<?xml version='1.0' encoding='UTF-8' standalone='no'?>
<svg baseProfile="tiny" version="1.2" xmlns:xlink="http://www.w3.org/1999/xlink" viewBox="0 0 2952 2952" width="249.936mm" height="249.936mm" xmlns="http://www.w3.org/2000/svg">
 <title>Qt SVG Document</title>
 <desc>Generated with Qt</desc>
 <defs/>
 <g stroke="black" stroke-linejoin="bevel" fill-rule="evenodd" stroke-linecap="square" stroke-width="1" fill="none">
  <g stroke="#000000" stroke-linejoin="bevel" stroke-linecap="square" font-style="normal" font-size="34.5833" font-family="MS Shell Dlg 2" font-weight="400" stroke-width="1" stroke-opacity="1" transform="matrix(1,0,0,1,0,0)" fill="none"/>
  <g stroke="#000000" stroke-linejoin="bevel" stroke-linecap="square" font-style="normal" font-size="34.5833" font-family="MS Shell Dlg 2" font-weight="400" stroke-width="1" stroke-opacity="1" transform="matrix(1,0,0,1,0,0)" fill="none"/>
  <g stroke="#000000" stroke-linejoin="bevel" stroke-linecap="square" font-style="normal" font-size="34.5833" font-family="MS Shell Dlg 2" font-weight="400" stroke-width="1" stroke-opacity="1" transform="matrix(11.808,0,0,11.808,0,0)" fill="none"/>
  <g stroke="#000000" stroke-linejoin="bevel" stroke-linecap="square" font-style="normal" font-size="34.5833" font-family="MS Shell Dlg 2" font-weight="400" stroke-width="1" stroke-opacity="1" transform="matrix(0.999744,0,0,0.999744,0,0)" fill="none"/>
  <g stroke="none" font-style="normal" font-size="34.5833" font-family="MS Shell Dlg 2" font-weight="400" fill-opacity="0" transform="matrix(0.999744,0,0,0.999744,0,0)" fill="#ffffff">
   <path fill-rule="evenodd" d="M-2,-2 L2955,-2 L2955,2955 L-2,2955 L-2,-2" vector-effect="none"/>
  </g>
  <g stroke="#000000" stroke-linejoin="bevel" stroke-linecap="square" font-style="normal" font-size="34.5833" font-family="MS Shell Dlg 2" font-weight="400" stroke-width="1" stroke-opacity="1" transform="matrix(0.999744,0,0,0.999744,0,0)" fill="none"/>
  <g stroke="#000000" stroke-linejoin="bevel" stroke-linecap="square" font-style="normal" font-size="34.5833" font-family="MS Shell Dlg 2" font-weight="400" stroke-width="1" stroke-opacity="1" transform="matrix(11.808,0,0,11.808,0,0)" fill="none"/>
  <g stroke="#000000" stroke-linejoin="bevel" stroke-linecap="square" font-style="normal" font-size="34.5833" font-family="MS Shell Dlg 2" font-weight="400" stroke-width="1" stroke-opacity="1" transform="matrix(11.808,0,0,11.808,0,0)" fill="none"/>
  <g stroke="#000000" stroke-linejoin="bevel" stroke-linecap="square" font-style="normal" font-size="34.5833" font-family="MS Shell Dlg 2" font-weight="400" stroke-width="1" stroke-opacity="1" transform="matrix(11.808,0,0,11.808,0,0)" fill="none"/>
  <g stroke="#000000" stroke-linejoin="bevel" stroke-linecap="square" font-style="normal" font-size="34.5833" font-family="MS Shell Dlg 2" font-weight="400" stroke-width="1" stroke-opacity="1" transform="matrix(11.808,0,0,11.808,0,0)" fill="none"/>
  <g stroke="#000000" stroke-linejoin="bevel" stroke-linecap="square" font-style="normal" font-size="34.5833" font-family="MS Shell Dlg 2" font-weight="400" stroke-width="1" stroke-opacity="1" transform="matrix(11.808,0,0,11.808,0,0)" fill="none"/>
  <g stroke="none" font-style="normal" font-size="34.5833" font-family="MS Shell Dlg 2" font-weight="400" fill-opacity="0" transform="matrix(11.808,0,0,11.808,0,0)" fill="#ffffff">
   <path fill-rule="evenodd" d="M0,0 L250,0 L250,250 L0,250 L0,0" vector-effect="none"/>
  </g>
  <g stroke="#000000" stroke-linejoin="bevel" stroke-linecap="square" font-style="normal" font-size="34.5833" font-family="MS Shell Dlg 2" font-weight="400" stroke-width="1" stroke-opacity="1" transform="matrix(11.808,0,0,11.808,0,0)" fill="none"/>
  <g stroke="#000000" stroke-linejoin="bevel" stroke-linecap="square" font-style="normal" font-size="34.5833" font-family="MS Shell Dlg 2" font-weight="400" stroke-width="1" stroke-opacity="1" transform="matrix(11.808,0,0,11.808,0,0)" fill="none"/>
  <g stroke="none" font-style="normal" font-size="34.5833" font-family="MS Shell Dlg 2" font-weight="400" fill-opacity="0" transform="matrix(0.999744,0,0,0.999744,0,0)" fill="#000000">
   <rect y="0" x="0" width="2953" height="2953"/>
  </g>
  <g stroke="#000000" stroke-linejoin="bevel" stroke-linecap="square" font-style="normal" font-size="34.5833" font-family="MS Shell Dlg 2" font-weight="400" stroke-width="1" stroke-opacity="1" transform="matrix(0.999744,0,0,0.999744,0,0)" fill="none"/>
  <g stroke="#000000" stroke-linejoin="bevel" stroke-linecap="square" font-style="normal" font-size="34.5833" font-family="MS Shell Dlg 2" font-weight="400" stroke-width="1" stroke-opacity="1" transform="matrix(0.999744,0,0,0.999744,0,0)" fill="none"/>
  <g stroke="#5c5c5c" stroke-linejoin="bevel" stroke-linecap="square" font-style="normal" font-size="34.5833" font-family="MS Shell Dlg 2" font-weight="400" stroke-width="3.07087" fill-opacity="1" stroke-opacity="1" transform="matrix(0.999744,0,0,0.999744,0,0)" fill="#c5c5c5">
   <path fill-rule="evenodd" d="M1481.36,2715.69 L1478.92,2711.34 L1480.14,2709.13 L1480.96,2708.7 L1481.63,2707.94 L1483.03,2703.09 L1482.23,2702.49 L1481.22,2701.87 L1480.42,2701.4 L1479.62,2700.87 L1478.33,2700.02 L1477.99,2699.78 L1477.18,2699.24 L1476.38,2698.74 L1475.61,2698.2 L1474.66,2697.55 L1474.28,2697.08 L1473.91,2696.26 L1473.6,2695.67 L1473.19,2695.29 L1472.97,2695.12 L1472.59,2694.82 L1472.17,2694.26 L1471.76,2693.48 L1471.7,2693.39 L1471.34,2692.85 L1470.93,2692.32 L1470.33,2691.91 L1469.71,2691.75 L1469.36,2691.66 L1468.24,2691.31 L1467.29,2691 L1466.61,2690.69 L1466.43,2690.22 L1466.35,2689.47 L1466.67,2688.06 L1466.81,2687.02 L1467.07,2686.12 L1467.12,2684.8 L1467.12,2683.99 L1467.12,2683.96 L1467.03,2682.96 L1466.75,2682.17 L1466.26,2680.83 L1466.06,2680.26 L1465.28,2679.35 L1464.54,2678.64 L1463.97,2678.26 L1463.17,2677.54 L1462.68,2676.82 L1462.34,2676.44 L1461.85,2675.82 L1461.53,2674.97 L1461.36,2674.41 L1460.9,2673.94 L1460.19,2673.5 L1459.78,2673.03 L1459.12,2672.37 L1458.32,2671.71 L1457.52,2670.9 L1457.26,2670.18 L1456.89,2669.3 L1456.4,2668.49 L1455.94,2667.3 L1455.48,2665.89 L1455.08,2664.89 L1454.59,2664.45 L1453.79,2664.23 L1453.57,2664.21 L1453.48,2664.2 L1453.1,2664.25 L1452.67,2664.66 L1451.18,2665.66 L1450.73,2665.88 L1450.29,2665.91 L1450.1,2665.87 L1449.92,2665.66 L1449.77,2665.37 L1449.45,2664.16 L1449.33,2663.09 L1449.12,2662.35 L1448.77,2661.81 L1447.92,2660.8 L1447.6,2660.62 L1446.9,2659.96 L1446.43,2659.36 L1445.76,2658.65 L1444.65,2658.24 L1443.32,2657.06 L1442.47,2655.74 L1441.5,2654.92 L1441.01,2654.5 L1440.42,2653.91 L1440.34,2653.83 L1440.05,2653.11 L1440.05,2652.39 L1440.86,2649.73 L1440.76,2649.27 L1440.43,2648.76 L1440.02,2648.32 L1439.87,2648.16 L1439.19,2647.73 L1438.61,2647.5 L1437.16,2646.94 L1436.49,2646.54 L1436.4,2645.65 L1436.45,2645.15 L1436.4,2644.6 L1436.57,2643.89 L1437.35,2642.87 L1438.15,2642.35 L1440.06,2641.45 L1440.38,2641.05 L1440.3,2640.69 L1440.06,2640.23 L1439.42,2639.79 L1438.39,2639.1 L1436.68,2637.94 L1436,2637.69 L1435.33,2637.16 L1434.77,2637 L1434.55,2636.94 L1433.52,2636.99 L1432.87,2637.19 L1432.06,2637.43 L1431.32,2637.5 L1430.98,2637.21 L1429.71,2634.2 L1428.64,2632.62 L1428.35,2631.35 L1428.38,2630.74 L1428.53,2630.28 L1428.73,2629.64 L1429.89,2628.18 L1431.08,2626.66 L1431.93,2625.36 L1432.46,2623.85 L1433.16,2622.29 L1433.44,2620.8 L1433.69,2620.26 L1433.97,2618.62 L1434.04,2617.8 L1433.75,2616.81 L1432.97,2616.19 L1432.35,2615.34 L1431.68,2614.16 L1431.59,2613.51 L1431.13,2612.17 L1430.73,2611.64 L1430.01,2611.24 L1429.61,2611.09 L1429.21,2611.01 L1428.66,2610.96 L1428.32,2610.81 L1427.63,2610.18 L1427.29,2609.67 L1427.16,2609.29 L1427.24,2609.03 L1427.55,2608.85 L1428.24,2608.62 L1428.75,2608.71 L1429.1,2608.68 L1429.54,2608.49 L1429.62,2608.42 L1430.04,2608.09 L1430.22,2607.62 L1430.28,2606.95 L1430.21,2605.26 L1430.11,2602.71 L1431.12,2601.94 L1433.38,2604.27 L1434.49,2604.54 L1435.11,2603.72 L1434.68,2600.11 L1434.51,2599.94 L1433.91,2599.32 L1431.79,2599.23 L1430.5,2598.96 L1429.82,2598.46 L1428.91,2594.97 L1428.02,2593.48 L1424.39,2590.29 L1422.62,2589.37 L1421.2,2589.06 L1420.41,2588.8 L1419.99,2588.73 L1419.2,2588.6 L1417.93,2588.55 L1416.56,2588.38 L1415.56,2588.19 L1414.85,2587.95 L1414.24,2587.53 L1413.86,2586.73 L1413.6,2586.18 L1413.69,2584.21 L1414.29,2582.55 L1414.22,2580.39 L1414.15,2579.88 L1413.33,2579.55 L1412.92,2579.86 L1412.3,2581.52 L1411.38,2582.02 L1410.06,2582.07 L1409.58,2582.36 L1409.22,2583.01 L1408.84,2584.4 L1408.78,2585.05 L1408.77,2585.24 L1408.93,2587.81 L1408.26,2588.7 L1407.9,2589.02 L1407.01,2588.68 L1406.63,2587.91 L1406.53,2586.71 L1406.43,2585.36 L1406.1,2584.13 L1405.76,2582.89 L1405.83,2582.09 L1406.07,2581.21 L1407.32,2579.86 L1408.5,2577.89 L1408.74,2575.75 L1408.43,2575.2 L1407.83,2575.01 L1405.23,2575.75 L1403.02,2575.53 L1401.24,2575.44 L1398.43,2576.64 L1397.88,2576.4 L1397.33,2575.22 L1396.97,2574.53 L1395.62,2573.28 L1393.07,2572.12 L1392.33,2571.26 L1392.31,2570.75 L1392.83,2570.39 L1393.84,2570.25 L1396.99,2571.07 L1398.46,2570.63 L1398.63,2570.25 L1398.55,2569.53 L1397.95,2569.09 L1395.67,2568.81 L1391.78,2568.88 L1389.21,2567.8 L1388.39,2567.85 L1387.04,2567.53 L1386.01,2566.86 L1383.85,2563.74 L1383.39,2562.66 L1383.37,2560.78 L1384.04,2558.74 L1383.53,2556.96 L1380.96,2555.59 L1379.83,2554.85 L1379.28,2553.96 L1378.58,2553.36 L1377.17,2553.12 L1373.8,2554.41 L1370.25,2554.44 L1367.68,2555.4 L1366.4,2555.11 L1366.11,2554.73 L1365.95,2554.03 L1366.14,2553.5 L1370.29,2550.11 L1370.63,2549.08 L1370.03,2548.5 L1369.07,2548.62 L1366.14,2549.85 L1364.22,2551.75 L1363.3,2553.91 L1361.36,2555.49 L1359.41,2553.62 L1358.14,2553.62 L1355.47,2555.45 L1353.69,2556.38 L1351,2556.14 L1348.52,2555.3 L1346.02,2554.94 L1345.35,2554.85 L1343.96,2554.15 L1343.7,2553.72 L1341.72,2550.42 L1340.74,2549.92 L1338.46,2549.39 L1336.08,2548.84 L1333.6,2548.89 L1331.58,2547.18 L1331.46,2546.41 L1332.45,2544.84 L1332.47,2544.8 L1332.5,2544.13 L1332.38,2543.46 L1331.9,2542.59 L1329.66,2541.05 L1328.63,2539.23 L1327.63,2538.24 L1325.8,2536.45 L1323.86,2534.55 L1323.44,2534.13 L1323.37,2533.09 L1323.29,2532.04 L1322.64,2531.44 L1322.27,2531.51 L1321.97,2531.56 L1319.02,2533.44 L1317.33,2534.23 L1315.7,2533.8 L1313.59,2532.14 L1312.98,2530.89 L1313.42,2529.54 L1315.25,2528.5 L1316.2,2527.96 L1316.69,2527.14 L1316.47,2525.29 L1315.8,2524.33 L1315.36,2524.34 L1313.92,2524.4 L1311.78,2523.13 L1310.77,2521.4 L1309.57,2520.2 L1308.78,2520.46 L1307.53,2522.36 L1306.4,2526.01 L1304.89,2526.97 L1304.24,2526.9 L1303.88,2525.77 L1304.43,2524.16 L1306.16,2521.68 L1308.06,2519.74 L1308.66,2518.32 L1309.21,2517.86 L1310.77,2517.05 L1311.42,2516.35 L1312.23,2514.96 L1312.24,2514.93 L1312.19,2513.59 L1311.86,2512.46 L1310.39,2511.65 L1309.72,2511.28 L1307.46,2511.38 L1306.18,2512.41 L1305.44,2514.48 L1305.46,2516.33 L1304.74,2517 L1304.26,2517 L1304.14,2516.94 L1303.54,2516.64 L1303.01,2516.09 L1302.51,2514.36 L1301.57,2509.72 L1301.19,2508.47 L1300.84,2508.06 L1300.37,2507.72 L1299.48,2507.71 L1298.71,2508 L1297.55,2509.6 L1296.13,2510.84 L1295.63,2510.9 L1295.41,2510.93 L1294.99,2510.7 L1294.59,2510.01 L1294.37,2509.21 L1294.33,2508.86 L1294.27,2508.4 L1294.3,2507.42 L1294.42,2506.63 L1294.51,2505.95 L1294.29,2505.25 L1293.28,2504 L1290.72,2501.71 L1288.23,2499.49 L1286.84,2498.54 L1285.92,2498.21 L1282.94,2496.44 L1282.52,2496.19 L1281.97,2496.09 L1281.34,2496.25 L1279.97,2496.29 L1279.39,2496.2 L1278.03,2496.37 L1276.27,2497.38 L1275.45,2497.36 L1274.66,2497.1 L1272.94,2495.36 L1272.3,2495.1 L1270.09,2495.06 L1268.82,2494.56 L1267.42,2493.16 L1266.95,2492.36 L1266.81,2492.13 L1266.52,2490.4 L1266.5,2488.98 L1266.6,2487.9 L1266.59,2487.34 L1266.58,2487.07 L1266.38,2486.23 L1266.1,2485.52 L1266.03,2485.34 L1265.29,2484.7 L1264.18,2484.38 L1262.91,2484.58 L1262.33,2485.14 L1261.97,2486.09 L1261.42,2487 L1259.35,2488.85 L1258.51,2489.25 L1257.1,2489.45 L1256.07,2489.11 L1254.21,2488.2 L1252.71,2488.03 L1251.07,2489.62 L1250.16,2490.01 L1249.56,2490.06 L1249.19,2489.73 L1248.44,2487.49 L1248.37,2487.27 L1248.15,2485.4 L1247.95,2484.63 L1247.6,2483.86 L1246.95,2483.18 L1246.18,2482.69 L1245.21,2482.59 L1244.76,2482.69 L1244.22,2482.81 L1243.71,2483.29 L1243.25,2484.03 L1242.66,2485.89 L1242.78,2486.46 L1243.11,2486.93 L1243.86,2487.32 L1244.43,2487.35 L1245.05,2487.62 L1245.52,2487.96 L1245.8,2488.34 L1245.94,2489.32 L1245.93,2489.42 L1245.88,2489.77 L1245.61,2490.36 L1245.13,2490.76 L1244.57,2491.05 L1244.24,2491.08 L1243.06,2490.27 L1240.69,2487.83 L1236.23,2483.31 L1234.35,2481.69 L1233.66,2481.34 L1233.07,2481.56 L1232.92,2481.7 L1231.85,2482.75 L1231.12,2483.05 L1230.43,2483.02 L1229.43,2482.68 L1228.79,2482.46 L1227.58,2482.63 L1227.27,2482.63 L1226.45,2482.65 L1225.18,2482.69 L1223.9,2483.05 L1222.98,2483.08 L1222.54,2483.03 L1222.2,2482.99 L1221.75,2482.83 L1221,2482.24 L1220.06,2480.94 L1219.83,2480.06 L1219.77,2479.87 L1219.88,2478.38 L1219.44,2477.49 L1218.63,2476.38 L1218.04,2475.82 L1216.51,2474.5 L1214.19,2473.21 L1213.47,2473 L1212.76,2472.86 L1210.67,2471.5 L1209.06,2470.15 L1208.35,2469.45 L1207.3,2468.4 L1203.87,2465.25 L1203.74,2464.98 L1203.13,2463.65 L1202.46,2462.97 L1201.94,2462.8 L1201.28,2462.79 L1199.95,2462.39 L1199.64,2462.41 L1199.41,2462.42 L1199.13,2462.7 L1199.16,2463.58 L1199.28,2463.91 L1199.95,2465.74 L1200.02,2466.26 L1199.87,2466.66 L1199.66,2466.9 L1198.89,2467.07 L1198.52,2467.06 L1196.81,2467.04 L1194.89,2466.71 L1193.39,2465.97 L1192.94,2465.57 L1192.9,2465.53 L1192,2463.74 L1191.55,2463.23 L1191.08,2463.01 L1190.52,2463.21 L1190.06,2463.7 L1189.61,2464.78 L1189.57,2467.57 L1189.04,2468.08 L1188.88,2468.23 L1188.05,2468.31 L1187.97,2468.32 L1187.26,2468.03 L1187.08,2467.8 L1186.47,2467.03 L1185.91,2465.7 L1185.75,2464.15 L1185.57,2463.49 L1185.4,2462.89 L1185.04,2462.38 L1184.58,2462.14 L1183.89,2462.12 L1181.55,2463.03 L1181.51,2463.05 L1180.16,2464.41 L1178.3,2466.23 L1178.26,2466.27 L1177.86,2466.66 L1176.01,2467.49 L1175.03,2467.37 L1174.42,2467.24 L1173.62,2466.77 L1173.15,2465.74 L1172.4,2463.66 L1172.22,2463.34 L1171.45,2462.57 L1170.57,2462.07 L1169.85,2461.56 L1169.4,2461.23 L1169.13,2460.43 L1169.16,2459.83 L1169.35,2459.36 L1169.63,2459 L1170.62,2458.3 L1170.66,2458.25 L1171.06,2457.76 L1171.15,2457.41 L1171.18,2457.04 L1171.08,2456.22 L1170.94,2455.8 L1170.33,2455.21 L1168.1,2454.14 L1167.72,2453.79 L1167.31,2453.41 L1166.65,2452.77 L1166.13,2452 L1165.83,2451.25 L1165.74,2450.07 L1165.99,2449.02 L1166.01,2448.92 L1166.54,2447.28 L1166.2,2446.28 L1165.86,2445.62 L1164.84,2445.21 L1163.9,2444.98 L1163.75,2444.94 L1161.99,2444.26 L1161.12,2443.65 L1159.88,2442.43 L1157.82,2439.53 L1157.24,2438.39 L1156.95,2437.63 L1156.73,2436.74 L1155.94,2434.56 L1155.43,2433.08 L1154.59,2428.9 L1154.31,2428.24 L1154.39,2425.83 L1154.49,2425.5 L1154.7,2425.08 L1155.2,2424.29 L1157.18,2422.03 L1159.75,2419.86 L1160.29,2419.06 L1160.51,2418.61 L1160.61,2417.92 L1160.62,2417.24 L1160.49,2416.54 L1160.19,2415.97 L1159.48,2415.22 L1158.37,2414.9 L1157.02,2414.83 L1154.74,2414.94 L1153.08,2414.13 L1152.02,2413.12 L1151.73,2412.31 L1151.32,2411.81 L1151.13,2411.7 L1150.62,2411.4 L1150.45,2411.43 L1149.7,2411.52 L1147.96,2412.19 L1147.38,2412.13 L1146.45,2410.95 L1146.03,2410.71 L1145.26,2410.71 L1144.81,2411.02 L1143.8,2412.49 L1142.71,2413.52 L1140.42,2414.11 L1139.65,2413.84 L1134.69,2412.35 L1132.31,2411.18 L1130.91,2410.23 L1129.74,2408.21 L1127.31,2407.35 L1126.22,2406.45 L1125.28,2403.48 L1125.14,2400.68 L1126.11,2398.71 L1126.54,2397.84 L1126.68,2395.73 L1126.36,2395.14 L1125.64,2394.82 L1123.99,2395.33 L1123.88,2395.37 L1122.89,2395.23 L1122.03,2394.15 L1121.99,2392.84 L1121.9,2392.08 L1120.05,2389.19 L1120.08,2388.18 L1120.1,2387.44 L1122.3,2386.26 L1123.66,2384.96 L1122.8,2382.07 L1120.5,2381.22 L1118.84,2381.62 L1115.64,2381.58 L1114.65,2382.26 L1113.74,2382.88 L1112.17,2382.84 L1110.37,2381.13 L1110.09,2377.93 L1109.96,2376.35 L1108.83,2375.36 L1106.99,2375.5 L1106.45,2375.38 L1105.27,2375.14 L1104.36,2374.37 L1103.88,2373.96 L1103.3,2372.74 L1101.35,2368.6 L1099.96,2367.43 L1094.96,2367.7 L1091.35,2366.57 L1090.37,2364.7 L1090.27,2364.5 L1089.92,2364.5 L1088.96,2364.5 L1085.04,2367.03 L1082.93,2367.39 L1081.85,2366.48 L1082.22,2364.21 L1082.39,2363.2 L1082.21,2362.16 L1080.67,2362.43 L1076.77,2365.35 L1074.59,2366.98 L1062.11,2369.28 L1061.79,2369.17 L1059.36,2368.38 L1058.64,2367.03 L1058.55,2365.31 L1059.32,2364.95 L1061.48,2365.85 L1063.1,2366.12 L1064.41,2365.22 L1064.86,2363.42 L1064.18,2362.34 L1061.12,2361.89 L1059.14,2362.56 L1056.3,2362.34 L1053.6,2361.3 L1052.02,2360.09 L1051.7,2357.02 L1050.58,2353.87 L1050.47,2353.7 L1049.27,2351.84 L1046.66,2350.49 L1042.2,2349.27 L1040.73,2347.99 L1040.66,2347.93 L1040.39,2347.7 L1040.67,2346.26 L1040.21,2344.63 L1037.87,2343.37 L1037.1,2343.01 L1036.99,2342.96 L1036.52,2342.74 L1035.93,2340.8 L1034.49,2339 L1032.69,2338.51 L1031.7,2337.47 L1030.21,2337.33 L1028.36,2338.64 L1026.63,2339.02 L1025.3,2339.32 L1023,2338.69 L1021.02,2336.57 L1019.04,2335.31 L1017.87,2333.46 L1017.43,2332.43 L1016.97,2331.34 L1017.21,2329.6 L1017.28,2329.09 L1017.14,2328.64 L1016.79,2327.56 L1016.9,2326.06 L1017.1,2323.28 L1016.22,2321.93 L1016.06,2321.7 L1016.03,2320.79 L1015.98,2319.5 L1015.93,2318.05 L1017.28,2313.09 L1016.65,2311.2 L1017.49,2310.36 L1018.09,2309.76 L1018,2308.23 L1016.26,2307.53 L1015.66,2307.28 L1014.04,2305.53 L1013.63,2302.96 L1012.59,2299.27 L1012.33,2298.32 L1011.22,2296.28 L1010.1,2294.21 L1009.98,2293.99 L1009.96,2293.97 L1007.64,2292.14 L1006.47,2290.03 L1006.43,2289.98 L1005.34,2288.36 L1002.68,2288.99 L1001.6,2287.46 L998.629,2284.89 L997.693,2284.42 L995.024,2283.09 L993.147,2282.71 L991.465,2282.37 L989.606,2283.18 L987.86,2283.94 L985.653,2283.99 L983.04,2284.8 L980.742,2284.75 L979.3,2283.67 L979.12,2282.37 L979.326,2282.16 L981.733,2279.71 L982.093,2278.09 L980.832,2277.46 L979.705,2277.68 L977.543,2279.62 L975.73,2279.96 L974.659,2280.16 L971.641,2278.76 L968.307,2275.52 L967.339,2273.7 L966.594,2272.3 L965.243,2270.25 L965.716,2268.02 L965.536,2267.05 L964.567,2265.52 L964.184,2264.3 L964.094,2263.33 L964.297,2262.57 L964.387,2258.98 L964.68,2258.08 L963.553,2257.07 L962.63,2256.75 L962.134,2257.02 L961.086,2257.91 L960.67,2258.26 L959.949,2259.41 L958.935,2259.48 L956.367,2256.89 L955.421,2253.87 L953.348,2252.02 L950.935,2248.63 L950.014,2247.34 L944.608,2242.16 L945.509,2236.34 L944.067,2235.06 L943.333,2235.09 L940.8,2235.19 L938.841,2234.7 L936.633,2232.83 L936.453,2232.2 L936.7,2231.66 L938.638,2231.34 L938.998,2230.8 L938.74,2230.42 L938.525,2230.1 L937.241,2229 L935.304,2228.12 L932.916,2227.96 L932.195,2228.17 L931.587,2228.53 L931.181,2229.43 L931.147,2229.94 L930.978,2232.49 L930.483,2233.62 L929.559,2234.02 L928.883,2233.82 L928.455,2233.39 L928.066,2230.88 L927.644,2228.17 L927.171,2227.29 L926.225,2226.66 L925.572,2226.66 L924.536,2226.9 L921.782,2228.91 L920.886,2229.56 L920.075,2230.13 L919.422,2230.01 L919.129,2229.47 L919.225,2228.1 L919.242,2227.87 L920.909,2224.58 L921.314,2221.99 L920.188,2219.88 L917.101,2217.71 L916.043,2217.4 L915.457,2217.6 L914.961,2218.19 L915.029,2218.75 L916.448,2220.3 L916.403,2220.89 L916.02,2221.43 L915.313,2221.71 L915.051,2221.81 L913.745,2221.81 L910.298,2219.54 L908.473,2217.4 L907.302,2216.81 L904.756,2216.34 L900.814,2218.25 L896.241,2218.25 L894.889,2218.5 L894.34,2218.39 L894.236,2218.37 L894.118,2218.28 L893.335,2217.71 L891.195,2216.68 L889.415,2216.27 L888.852,2215.8 L888.694,2215.3 L888.829,2214.83 L889.348,2214.29 L889.753,2211.18 L888.897,2207.26 L887.519,2203.19 L887.5,2203.14 L886.974,2202.61 L885.27,2200.88 L884.008,2200.14 L883.972,2200.14 L880.832,2199.89 L879.796,2200.05 L878.94,2200.61 L877.933,2202.05 L877.656,2202.44 L876.484,2203.21 L875.899,2202.55 L875.786,2201.34 L876.056,2199.98 L876.24,2199.7 L876.462,2199.35 L878.241,2197.91 L879.503,2195.52 L878.602,2192.59 L876.8,2191.33 L875.64,2191.19 L872.745,2190.84 L868.419,2189.35 L866.482,2189.44 L864.5,2188.67 L864.022,2188.27 L862.833,2187.28 L862.768,2187.25 L858.507,2185.21 L857.736,2184.16 L856.448,2182.4 L855.759,2181.47 L855.616,2180.93 L855.311,2179.77 L854.768,2177.73 L854.73,2176.65 L854.542,2171.33 L854.431,2171.25 L854.002,2170.92 L853.806,2170.98 L853.416,2171.1 L853.129,2171.85 L852.29,2174.03 L852.254,2174.09 L851.332,2175.65 L851.118,2176.01 L850.129,2176.15 L849.636,2176.22 L849.496,2176.24 L849.461,2176.14 L848.916,2174.63 L848.911,2174.62 L848.915,2174.59 L849.258,2172.62 L849.271,2172.55 L849.429,2172.19 L851.096,2168.42 L851.56,2167.37 L852.2,2165.92 L852.218,2164.85 L852.232,2164.07 L852.245,2163.31 L851.726,2162.86 L850.917,2162.15 L850.848,2162.09 L850.781,2162.08 L849.268,2161.87 L849.226,2161.87 L849.201,2161.89 L848.055,2162.81 L847.549,2163.42 L846.296,2164.93 L846.072,2165.2 L845.901,2165.13 L845.018,2164.78 L844.27,2164.48 L844.178,2164.12 L843.467,2161.35 L843.324,2160.79 L843.611,2160.24 L844.856,2157.86 L845.027,2156.98 L845.396,2155.11 L846.273,2154.27 L846.348,2154.2 L846.433,2154.12 L850.012,2153.67 L850.397,2153.62 L850.553,2153.2 L851.028,2151.91 L850.45,2147.33 L850.442,2147.27 L850.425,2147.24 L849.388,2145.16 L849.271,2144.93 L849.181,2144.91 L848.937,2144.86 L848.37,2144.75 L848.28,2144.88 L846.883,2146.95 L846.472,2147.39 L844.991,2148.98 L844.901,2149.17 L843.684,2151.73 L843.027,2152.08 L841.442,2152.94 L841.341,2152.99 L841.272,2152.93 L840.602,2152.33 L840.53,2152.27 L840.58,2151.7 L840.622,2151.21 L841.071,2146.01 L841.323,2145.29 L841.992,2143.4 L842.152,2142.94 L843.011,2141.76 L845.603,2138.2 L845.751,2137.99 L846.533,2136.92 L847.063,2136.19 L847.835,2135.82 L848.916,2135.31 L849.738,2134.91 L849.812,2134.88 L849.805,2134.85 L849.483,2133.46 L849.361,2132.94 L849.222,2132.77 L846.748,2129.74 L846.623,2129.53 L845.01,2126.83 L844.946,2126.72 L844.943,2126.64 L844.912,2125.76 L844.901,2125.42 L845.308,2124.93 L847.063,2122.85 L847.181,2122.56 L847.598,2121.56 L847.829,2121 L847.822,2120.91 L847.748,2119.94 L847.739,2119.83 L847.652,2119.76 L844.495,2117.22 L843.295,2117.26 L843.279,2117.26 L843.272,2117.34 L843.223,2117.87 L843.189,2118.25 L843.849,2120.47 L843.955,2120.82 L843.911,2120.9 L843.198,2122.14 L843.098,2122.31 L842.657,2122.22 L841.753,2122.04 L841.071,2121.9 L840.294,2120.96 L837.286,2117.31 L836.755,2116.69 L835.392,2115.11 L835.304,2115.01 L834.862,2115.1 L833.988,2115.28 L833.547,2115.37 L833.474,2115.6 L833.405,2115.82 L832.725,2117.96 L832.691,2118.07 L832.508,2118.09 L831.249,2118.21 L829.012,2114.37 L828.861,2114.11 L829.007,2113.49 L829.343,2112.05 L829.537,2111.23 L832.833,2107.78 L833.502,2107.08 L833.456,2105.57 L833.448,2105.3 L833.412,2104.11 L832.893,2103.79 L830.168,2102.12 L829.687,2101.53 L826.652,2097.79 L826.293,2097.35 L826.047,2095.84 L823.95,2082.93 L823.554,2082.31 L818.981,2075.09 L818.498,2074.33 L814.443,2072.84 L814.228,2072.85 L810.659,2072.97 L810.45,2072.67 L810.19,2072.3 L809.623,2071.49 L809.594,2070.63 L809.397,2064.64 L809.267,2064.35 L808.615,2062.9 L808.586,2062.84 L808.559,2062.82 L806.207,2061.84 L806.108,2061.8 L806.065,2061.8 L804.779,2061.8 L803.067,2062.07 L802.849,2062.05 L802.244,2062 L801.67,2061.96 L801.618,2061.93 L800.747,2061.46 L800.115,2060.25 L799.846,2059.73 L797.548,2055.38 L797.552,2054.83 L797.57,2052.41 L798.075,2050.88 L798.381,2049.95 L798.407,2049.52 L798.449,2048.82 L797.728,2047.45 L796.804,2047.36 L796.753,2047.37 L795.933,2047.49 L793.966,2047.79 L791.04,2047.98 L790.88,2047.99 L790.833,2047.96 L789.921,2047.34 L789.888,2047.31 L789.771,2047.11 L788.034,2044.09 L786.059,2040.65 L786.041,2040.46 L785.811,2037.97 L786.261,2035.87 L786.242,2035.5 L786.178,2034.24 L786.171,2034.11 L786.068,2033.81 L785.811,2033.05 L785.135,2032.49 L784.414,2032.45 L783.648,2032.69 L782.45,2034.08 L781.756,2034.88 L780.089,2038.15 L780.009,2038.71 L779.616,2041.48 L779.519,2041.83 L779.383,2042.32 L779.323,2042.54 L779.279,2042.57 L779.263,2042.58 L778.647,2042.99 L777.543,2042.56 L777.498,2042.5 L777.009,2041.81 L776.935,2041.71 L776.935,2041.7 L776.207,2036.08 L776.192,2035.96 L776.034,2033.26 L775.944,2031.7 L775.042,2029.85 L772.854,2025.37 L772.835,2025.33 L772.832,2025.33 L771.731,2024.67 L770.714,2024.97 L768.102,2025.72 L767.811,2025.8 L767.713,2025.44 L766.865,2022.31 L766.491,2022 L763.45,2019.53 L762.405,2018.68 L760.341,2017.71 L758.643,2016.9 L757.674,2016.16 L757.133,2015.3 L756.931,2014.24 L757.021,2013.64 L757.052,2013.6 L759.091,2011.46 L759.387,2011.15 L760.197,2010.3 L760.224,2010.1 L760.395,2008.79 L760.4,2008.75 L760.197,2008.14 L760.019,2008.05 L757.108,2006.53 L756.525,2006.22 L753.1,2005.15 L753,2005.12 L752.425,2004.75 L752.422,2004.74 L752.2,2004.1 L752.235,2003.73 L752.256,2003.51 L752.387,2003.32 L752.476,2003.19 L752.538,2003.09 L753.033,2002.76 L753.049,2002.76 L753.804,2002.76 L754.295,2002.77 L754.622,2002.94 L756.002,2003.67 L756.48,2003.93 L756.881,2004.04 L757.145,2004.11 L757.719,2004.07 L758.057,2003.8 L758.065,2003.78 L758.08,2003.74 L758.327,2003.07 L758.322,2002.77 L758.316,2002.47 L757.843,2001.85 L757.127,2001.45 L756.762,2001.25 L756.728,2001.24 L754.667,2001.09 L753.081,2001.15 L750.927,2001.22 L750.341,2001.44 L750.026,2001.56 L749.524,2001.55 L747.3,2001.52 L745.484,2000.95 L745.34,2000.91 L745.299,2000.83 L745.256,2000.76 L741.33,1993.63 L741.276,1993.24 L741.06,1991.67 L741.668,1990.46 L741.924,1990.31 L745.453,1988.25 L745.588,1986.85 L744.852,1984.66 L744.417,1983.36 L742.727,1980.75 L738.447,1976.78 L736.239,1975.09 L734.414,1973.36 L733.489,1971.57 L732.477,1969.62 L731.756,1968.76 L731.396,1967.72 L729.435,1965.48 L728.715,1964.66 L728.062,1962.43 L726.913,1961.64 L726.079,1961.89 L725.336,1962.97 L724.57,1965.04 L723.601,1966.44 L722.768,1968.54 L722.114,1969.19 L721.028,1969.3 L720.808,1969.32 L720.132,1968.78 L717.391,1962.93 L717.001,1962.09 L716.46,1960 L716.447,1958.89 L716.437,1958.08 L716.527,1956.96 L716.865,1956.15 L717.451,1955.42 L718.24,1954.68 L719.118,1954.39 L719.428,1954.34 L721.033,1954.07 L724.142,1954.55 L729.796,1955.9 L731.373,1955.47 L732.725,1954.84 L732.95,1953.87 L728.625,1948.33 L728.264,1947.16 L728.242,1945.47 L727.679,1944.25 L726.935,1943.82 L724.66,1944.21 L723.015,1944.97 L721.821,1946.12 L720.853,1947.86 L719.659,1948.64 L718.915,1948.73 L717.699,1948.06 L717.474,1946.59 L717.671,1945.06 L717.699,1944.84 L718.51,1942.92 L718.866,1942.38 L720.402,1940.02 L720.222,1938.42 L718.96,1935.58 L718.451,1935.11 L716.753,1933.55 L716.362,1932.88 L715.897,1932.09 L716.505,1931 L717.665,1930.02 L722.734,1926.8 L723.139,1926.13 L722.509,1924.42 L722.148,1921.51 L722.418,1919.12 L723.32,1917.09 L724.176,1914.48 L724.288,1909.34 L725.054,1905.83 L725.392,1904.55 L723.455,1903.87 L722.418,1904.77 L720.188,1908.38 L718.949,1912.99 L716.651,1917.91 L715.142,1919.82 L713.385,1920.86 L712.529,1920.59 L711.808,1918.94 L711.583,1916.62 L711.853,1914.62 L711.38,1912.95 L707.055,1909.43 L705.095,1907.25 L703.022,1905.74 L700.837,1904.32 L699.26,1904.21 L697.526,1904.82 L695.611,1905.11 L695.543,1906.12 L697.278,1908.22 L697.233,1909.19 L696.467,1910.27 L694.89,1910.74 L693.71,1910.65 L693.2,1910.61 L691.601,1909.46 L690.632,1908.29 L690.384,1907 L690.902,1905.92 L694.723,1901.68 L695.047,1901.32 L695.106,1900.62 L695.16,1899.97 L694.507,1899.32 L693.324,1898.92 L692.502,1898.64 L691.485,1898.77 L688.717,1899.12 L686.532,1898.8 L685.479,1897.96 L685.068,1897.63 L683.763,1895.5 L683.356,1894.84 L683.536,1892.25 L684.077,1890.98 L684.039,1890.69 L683.919,1889.77 L683.513,1889.09 L682.207,1889.02 L680.833,1889.99 L679.774,1890.42 L678.801,1891.24 L678.197,1891.75 L677.116,1891.64 L676.71,1889.77 L676.823,1888.01 L677.791,1886.7 L680.879,1884.79 L681.463,1884.43 L686.131,1883.37 L688.222,1882.9 L689.19,1880.06 L689.214,1880.02 L690.947,1877.56 L691.038,1876.7 L690.677,1875.8 L689.235,1874.88 L688.627,1873.95 L688.614,1873.54 L688.582,1872.49 L689.371,1871.3 L690.182,1870.57 L691.308,1870.35 L692.569,1869.45 L692.736,1869.39 L694.462,1868.75 L695.228,1868.89 L696.332,1868.52 L696.692,1867.98 L696.624,1866.7 L695.746,1865.15 L695.739,1864.88 L695.723,1864.31 L695.138,1863.12 L695.205,1862.06 L693.966,1859.67 L694.417,1855.53 L695.07,1854.24 L696.715,1852.94 L696.895,1851.76 L696.309,1850.12 L695.47,1849.02 L695.363,1848.88 L691.804,1846.54 L689.28,1843.99 L687.591,1843.54 L684.15,1841.95 L682.905,1841.38 L682.792,1840.48 L683.645,1838.54 L684.279,1837.1 L685.563,1835.36 L685.946,1834.35 L686.149,1831.78 L684.82,1829.84 L680.742,1828.22 L679.684,1828.09 L678.31,1828.4 L675.989,1829.94 L674.502,1830.03 L672.542,1829.73 L670.447,1829.08 L667.068,1826.98 L666.032,1826.96 L665.717,1827.21 L665.581,1828.02 L666.077,1830.63 L665.942,1832.75 L664.748,1833.9 L664.433,1834.69 L663.194,1835.39 L662.18,1835.07 L661.031,1832.93 L660.67,1831.53 L661.02,1827.58 L661.053,1827.21 L661.301,1826.33 L661.369,1824.3 L661.943,1821.73 L662.022,1821.37 L662.72,1819.44 L663.892,1817.66 L664.14,1816.71 L664.297,1815.68 L663.486,1814.82 L663.392,1814.8 L660.761,1814.35 L659.522,1813.74 L659.319,1813.29 L659.702,1810.94 L659.679,1808.29 L660.31,1805.58 L660.445,1803.51 L660.062,1801.26 L659.048,1801.14 L657.456,1801.91 L657.089,1802.09 L655.489,1804.01 L653.304,1805.76 L651.029,1808.11 L648.641,1809.5 L646.748,1809.89 L643.347,1808.71 L638.791,1808.31 L635.98,1808.06 L634.741,1806.87 L632.466,1804.82 L632.096,1804.58 L631.497,1804.19 L630.912,1803.51 L630.551,1802.74 L630.889,1801.28 L631.407,1800.54 L631.587,1800.02 L631.452,1799.43 L632.286,1797.65 L632.579,1796.21 L632.562,1795.72 L632.348,1795.16 L632.044,1794.83 L631.582,1794.52 L630.844,1794.1 L630.196,1793.86 L629.16,1793.55 L628.253,1793.2 L627.719,1792.91 L626.921,1792.47 L626.602,1792.19 L626.343,1791.54 L626.177,1790.9 L626.238,1790.5 L626.402,1789.42 L626.109,1788.25 L624.757,1787.59 L622.64,1787.95 L620.95,1789.19 L619.125,1791.99 L619.034,1792.27 L618.359,1794.37 L617.346,1795.07 L616.512,1795.12 L609.596,1792.03 L609.128,1791.82 L608.064,1791.33 L607.298,1791.78 L606.668,1792.57 L606.42,1793.61 L606.217,1796.49 L606.6,1800.46 L605.429,1801.36 L603.581,1801.09 L602.433,1800.64 L602.415,1800.63 L601.509,1800.55 L600.856,1799.26 L600.54,1797.66 L600.18,1795.59 L600.247,1794.35 L600.383,1791.87 L600.277,1791.09 L600.045,1789.35 L599.391,1787.77 L598.761,1786.71 L598.017,1786.29 L596.333,1786.73 L595.877,1786.85 L592.701,1786.58 L591.124,1786.13 L588.623,1785.63 L586.753,1785.43 L586.055,1785.07 L585.74,1784.6 L585.672,1783.88 L586.753,1782.57 L586.956,1782.18 L587.091,1781.92 L587.091,1780.83 L586.889,1779.73 L586.438,1778.78 L585.402,1778.38 L584.41,1778.36 L583.059,1779.35 L581.549,1779.15 L580.851,1778.74 L577.919,1775.83 L577.517,1775.43 L576.593,1773.85 L576.425,1773.26 L576.143,1772.27 L575.613,1771.47 L572.741,1767.12 L571.818,1766.01 L569.249,1764.34 L567.008,1762.62 L566.456,1762.4 L564.034,1762.87 L563.122,1763.71 L562.21,1764.89 L561.86,1765.64 L561.263,1765.98 L560.531,1765.85 L559.675,1765.47 L559.157,1764.9 L558.639,1764.01 L558.447,1763.12 L558.356,1762.53 L558.2,1761.52 L558.087,1760.02 L557.862,1758.12 L557.941,1756.79 L558.414,1755.19 L559.112,1753.75 L558.977,1751.98 L558.222,1750.78 L554.438,1749 L553.751,1748.91 L553.379,1749.06 L552.872,1749.08 L552.607,1749.05 L552.252,1749 L551.892,1749.09 L551.588,1749.7 L551.622,1751.23 L551.295,1751.8 L551.385,1752.18 L551.993,1752.78 L552.072,1753.31 L551.779,1753.86 L551.396,1754.15 L550.721,1754.23 L550.101,1754.18 L549.617,1753.79 L547.679,1751.99 L546.913,1751.02 L546.231,1748.27 L546.17,1748.02 L545.81,1746.63 L545.674,1744.97 L545.559,1744.64 L545.382,1744.13 L545.077,1741.86 L544.728,1740.78 L544.818,1739.83 L545.145,1739.13 L545.539,1738.52 L545.9,1738.47 L546.339,1738.92 L546.913,1739.35 L547.251,1739.6 L548.04,1739.64 L548.783,1738.98 L549.346,1737.87 L549.673,1736.56 L550.653,1735.12 L550.664,1733.85 L549.054,1730.7 L547.938,1729.7 L547.184,1729.46 L546.08,1729.46 L544.694,1729.67 L544.064,1730.2 L543.027,1730.78 L542.065,1731.73 L541.27,1732.52 L539.4,1734 L538.601,1735.12 L537.339,1735.82 L536.224,1735.93 L534.726,1735.84 L533.431,1735.86 L531.696,1735.76 L530.975,1735.66 L528.993,1735.1 L527.044,1734.44 L525.433,1734.07 L524.897,1733.88 L523.868,1733.53 L523.519,1733.34 L521.919,1733.01 L520.838,1733.16 L520.151,1733.43 L518.574,1734.74 L517.605,1734.97 L516.564,1734.96 L516.31,1734.96 L515.183,1734.89 L514.17,1734.59 L512.519,1733.93 L512.48,1733.91 L509.574,1732.65 L507.944,1731.65 L507.862,1731.6 L506.837,1730.53 L505.879,1729.74 L504.442,1728.89 L503.661,1728.42 L503.064,1727.95 L502.545,1727.3 L502.32,1726.84 L502.388,1726.51 L502.681,1726.42 L503.142,1726.4 L503.976,1726.55 L504.697,1726.14 L505.023,1725.06 L504.776,1721.7 L504.01,1720.62 L502.838,1719.76 L501.847,1718.95 L500.923,1717.89 L500.045,1716.47 L499.549,1715.28 L499.144,1712.4 L496.959,1707.24 L496.868,1705.75 L497.116,1703.68 L497.477,1702.64 L498.085,1701.58 L499.099,1700.32 L499.121,1699.85 L498.603,1699.4 L497.972,1699.2 L497.116,1699.22 L494.503,1701.04 L493.061,1702.06 L489.434,1703.93 L487.897,1705.29 L487.812,1705.37 L486.754,1705.98 L485.492,1705.95 L482.766,1705.53 L481.775,1705.28 L479.86,1703.99 L478.982,1702.82 L478.734,1701.7 L478.846,1700.16 L479.001,1699.27 L479.477,1696.51 L480.294,1693.23 L480.716,1691.54 L480.865,1689.87 L481.009,1688.27 L480.829,1687.3 L480.04,1686.29 L478.869,1685.93 L477.72,1686.2 L475.377,1687.44 L471.367,1690.14 L469.295,1692.08 L467.583,1693.5 L464.722,1694.44 L463.528,1694.55 L463.09,1694.55 L462.131,1694.53 L461.117,1693.54 L460.688,1692.87 L460.261,1692.21 L460.036,1690.45 L460.441,1688.83 L460.216,1687.77 L459.338,1685.93 L457.761,1684.17 L457.716,1684.12 L455.891,1683.43 L454.134,1683.49 L453.525,1683.72 L451.16,1683.92 L449.651,1684.37 L447.408,1685.12 L445.017,1685.92 L443.839,1686.31 L441.924,1685.72 L439.491,1685.12 L438.162,1684.57 L437.486,1683.85 L436.54,1683.18 L435.323,1681.85 L434.264,1679.91 L433.994,1678.42 L432.8,1676.24 L432.8,1675.72 L433.003,1675.16 L434.095,1673.98 L435.543,1672.69 L438.381,1670.51 L440.341,1667.19 L440.24,1666.15 L439.868,1664.91 L439.885,1664.09 L440.116,1663.19 L440.285,1661.65 L440.251,1660.19 L439.558,1658.77 L437.7,1657.03 L436.895,1655.62 L437.131,1653.98 L437.12,1652.46 L437.694,1650.24 L439.13,1648.38 L439.902,1646.89 L440.505,1644.53 L440.738,1643.27 L440.605,1642.31 L440.58,1642.13 L440.534,1641.8 L440.444,1641.6 L439.132,1638.69 L439.131,1638.69 L439.026,1638.6 L437.205,1637.06 L435.804,1635.95 L435.761,1635.92 L435.76,1635.92 L434.771,1633.69 L436.313,1628.58 L437.003,1626.24 L437.39,1624.94 L439.139,1619.1 L439.139,1619.1 L439.139,1619.09 L439.145,1619.06 L439.171,1618.98 L439.826,1616.8 L441.571,1610.99 L442.113,1609.2 L450.565,1581.05 L459.959,1549.78 L469.405,1518.3 L478.424,1488.22 L487.999,1456.32 L498.032,1422.86 L508.426,1388.13 L517.697,1357.21 L527.801,1323.49 L538.466,1287.9 L551.085,1245.72 L562.976,1205.96 L575.79,1163.11 L587.5,1123.94 L601.075,1078.54 L612.94,1038.77 L625.811,995.656 L637.366,956.907 L649.831,915.087 L660.916,877.932 L670.542,845.673 L676.284,826.304 L678.897,817.551 L678.896,817.408 L678.555,784.668 L678.233,752.881 L677.929,723.534 L677.639,695.633 L677.316,663.893 L677,633.122 L676.71,604.776 L676.439,578.823 L676.155,550.974 L675.903,526 L675.658,501.99 L675.621,498.464 L675.587,495.161 L675.381,475.539 L679.123,470.051 L690.73,453.029 L708.227,427.362 L726.112,401.116 L745.119,373.211 L765.61,343.11 L786.631,312.234 L809.006,279.337 L831.297,246.547 L854.02,213.121 L877.002,179.286 L885.344,167 L896.351,150.792 L897.261,149.453 L940.192,155.522 L996.49,163.481 L1000.67,163.59 L1004.87,163.002 L1016.91,155.641 L1028.8,154.554 L1041.91,159.774 L1051.47,167.692 L1066.47,181.327 L1075.92,193.428 L1092.37,205.006 L1104.88,206.71 L1121.6,207.811 L1137.65,208.202 L1160.54,213.644 L1175.74,220.288 L1553.95,332.389 L1658.48,363.124 L1710,378.235 L1710.16,378.28 L1791.54,402.098 L1791.9,402.198 L2065.98,487.799 L2094.36,496.555 L2094.63,496.659 L2095,496.859 L2095.66,497.045 L2097.34,497.562 L2098.46,497.892 L2099.85,498.303 L2101.54,498.816 L2103.91,499.508 L2105.82,500.084 L2107.92,500.694 L2109.04,501.031 L2110.83,501.549 L2112.89,502.198 L2114.7,502.724 L2115.96,503.098 L2116.63,503.296 L2117.24,503.452 L2117.9,503.704 L2118.46,503.833 L2118.91,503.97 L2120.37,504.405 L2121.33,504.691 L2122.75,505.115 L2123.73,505.419 L2124.44,505.667 L2124.86,505.818 L2125.52,505.979 L2126.19,506.138 L2127.42,506.514 L2128.28,506.779 L2128.69,506.901 L2129.1,507.028 L2129.56,507.148 L2130.39,507.402 L2131.06,507.602 L2132.26,507.958 L2133.14,508.217 L2133.47,508.324 L2134.77,508.702 L2135.59,508.944 L2136.34,509.175 L2137.03,509.388 L2137.9,509.644 L2138.88,509.997 L2139.37,510.131 L2140.23,510.32 L2140.44,510.386 L2140.9,510.527 L2141.78,510.794 L2142.85,511.092 L2143.37,511.267 L2144.04,511.465 L2144.1,511.481 L2144.2,511.51 L2144.5,511.638 L2145.55,511.915 L2146.17,512.086 L2146.84,512.273 L2147.61,512.512 L2149.19,512.98 L2151.33,513.623 L2152.49,513.964 L2153.48,514.283 L2153.92,514.415 L2154.32,514.522 L2155.08,514.79 L2155.52,514.946 L2155.86,515.028 L2156.82,515.302 L2157.84,515.587 L2158.15,515.729 L2158.39,515.838 L2158.9,515.885 L2159.92,516.225 L2161.51,516.682 L2163.01,517.165 L2164.8,517.699 L2166.13,518.09 L2167.59,518.497 L2169.01,518.921 L2169.71,519.109 L2170.37,519.245 L2171.02,519.523 L2171.2,519.573 L2172.67,520.011 L2173.84,520.359 L2176.02,521.036 L2177.61,521.5 L2178.84,521.89 L2180.75,522.446 L2184.51,523.599 L2185.37,523.59 L2191.32,523.262 L2196.87,522.913 L2201.75,522.687 L2207.28,522.368 L2211.69,522.133 L2215.35,521.896 L2215.63,528.727 L2214.29,535.503 L2212.8,545.108 L2211.58,561.145 L2210.91,577.57 L2211.07,590.043 L2210.45,609.12 L2210.58,633.32 L2214.79,639.822 L2215.44,640.678 L2220.67,647.492 L2225.92,653.256 L2228.81,659.929 L2231.74,668.575 L2231.85,668.87 L2235.76,679.379 L2239.93,690.576 L2241.93,694.583 L2241.86,698.547 L2241.78,703.093 L2241.09,710.082 L2251.31,728.05 L2255.17,733.229 L2256.12,743.274 L2256.46,748.864 L2257.04,760.892 L2260.3,768.332 L2264.54,773.329 L2268.38,779.645 L2273.51,787.877 L2275.88,792.275 L2281.89,798.626 L2287.08,802.886 L2288.66,809.728 L2290.95,818.671 L2292.47,829.305 L2295.13,843.938 L2296.65,865.183 L2297.98,886.621 L2298.33,902.701 L2298.34,903.498 L2288.47,915.571 L2288.46,915.583 L2288.36,915.705 L2287.95,916.206 L2287.95,916.208 L2321.48,1016.3 L2320.48,1017.04 L2294.9,1035.78 L2286.07,1042.25 L2283.03,1044.37 L2259.02,1061.12 L2237.25,1076.3 L2219.93,1086.49 L2219.91,1086.75 L2218.73,1100.71 L2214.34,1128.93 L2212.6,1141.44 L2210.17,1160.58 L2200.43,1217.23 L2199.18,1223.29 L2198.95,1224.97 L2198.94,1225.09 L2188.06,1297.45 L2185.71,1311.93 L2185.52,1313.12 L2185.17,1315.28 L2184.31,1324.36 L2184.25,1324.98 L2183.11,1337.14 L2183.05,1337.78 L2183.04,1337.89 L2181.37,1351.84 L2181.01,1355.17 L2177.01,1378.68 L2176.91,1379.25 L2176.82,1379.79 L2176.87,1380.91 L2176.97,1383.46 L2175.67,1392.2 L2175.46,1393.2 L2174.9,1395.86 L2174.69,1397.35 L2173.73,1404.16 L2173.59,1405.14 L2172.92,1409.8 L2171.55,1419.24 L2171.53,1419.37 L2170.37,1431.24 L2170.29,1432.44 L2170.28,1432.59 L2169.72,1442.01 L2169.2,1451.09 L2168.68,1458.08 L2168.81,1463.95 L2168.94,1474.01 L2168.94,1477.09 L2169.07,1482.26 L2169.07,1487.15 L2168.37,1496.75 L2168.29,1507.06 L2168.32,1508.4 L2172.5,1508.42 L2174.67,1508.43 L2183.92,1508.5 L2196.81,1508.24 L2204.48,1508.23 L2213.44,1508.2 L2217.63,1508.19 L2227.42,1508.17 L2235.51,1508.29 L2239.35,1508.35 L2240.08,1508.36 L2242.79,1508.41 L2251,1508.54 L2276.66,1508.95 L2278.56,1508.98 L2278.58,1508.98 L2285.76,1509.01 L2303.15,1509.07 L2305.23,1509.1 L2307.5,1509.1 L2317.95,1509.12 L2324.26,1509.15 L2331.71,1509.09 L2362.33,1509.25 L2401.35,1509.48 L2407.43,1509.52 L2413.68,1509.56 L2417.16,1509.59 L2426.95,1509.65 L2430.34,1509.63 L2431.7,1509.62 L2436.31,1509.59 L2445.98,1509.66 L2454.48,1509.62 L2455.58,1509.62 L2464.84,1509.69 L2474.42,1509.72 L2484.21,1509.76 L2493.63,1509.79 L2503.27,1509.79 L2512.81,1509.79 L2514.16,1509.79 L2516.4,1509.99 L2522.35,1512.68 L2531.96,1517.2 L2539.85,1520.86 L2541.63,1521.69 L2545.53,1523.51 L2565.63,1589.1 L2564.93,1589.55 L2562.58,1591.08 L2561.15,1592.01 L2558.47,1593.74 L2558.41,1593.78 L2558.38,1593.8 L2555.79,1595.48 L2553.01,1597.29 L2552.44,1597.66 L2552.43,1597.66 L2549.37,1599.64 L2530.78,1611.67 L2512.4,1623.42 L2495.78,1634.13 L2481.02,1643.56 L2478.06,1645.61 L2468.89,1651.43 L2459.72,1657.26 L2456.62,1659.23 L2448.46,1664.44 L2441.59,1668.87 L2440.52,1669.56 L2423.17,1680.74 L2414.39,1686.45 L2413.97,1686.72 L2413.31,1687.14 L2400.8,1695.21 L2389.61,1702.39 L2386.4,1704.46 L2386.4,1704.52 L2386.36,1708.08 L2381.29,1714.04 L2378.75,1717.28 L2370.3,1727.5 L2370.3,1727.5 L2370.03,1741.25 L2370.03,1741.26 L2372.68,1749.59 L2378.76,1768.71 L2373.02,1768.7 L2358.54,1768.61 L2355.8,1768.46 L2353.74,1768.59 L2339.72,1768.54 L2336.72,1768.58 L2325.2,1768.73 L2324.5,1768.72 L2323.55,1768.71 L2323.55,1768.71 L2323.54,1770.77 L2323.52,1772.92 L2323.51,1774.94 L2323.49,1777.06 L2323.49,1777.18 L2323.47,1779.2 L2323.46,1781.26 L2323.45,1783.11 L2323.45,1783.15 L2323.45,1783.36 L2323.44,1785.49 L2323.41,1787.65 L2323.39,1789.82 L2323.37,1791.95 L2323.34,1794.08 L2323.32,1795.94 L2323.32,1795.96 L2322.88,1795.95 L2321.12,1795.94 L2319.18,1795.94 L2316.93,1795.93 L2314.73,1795.92 L2312.51,1795.92 L2310.3,1795.91 L2308.12,1795.9 L2306.12,1795.91 L2303.9,1795.92 L2301.72,1795.93 L2300.72,1795.94 L2300.72,1797.28 L2300.72,1797.61 L2300.72,1799.24 L2300.72,1800.93 L2300.72,1802.56 L2300.72,1804.27 L2300.72,1805.95 L2300.72,1807.66 L2300.72,1809.44 L2300.72,1819.3 L2299.91,1819.39 L2297.83,1819.63 L2297.81,1825.44 L2297.76,1836.74 L2293.78,1841.67 L2274.43,1865.64 L2262.63,1880.7 L2258.7,1885.77 L2258.51,1886.04 L2257.2,1887.84 L2256.61,1888.65 L2256.46,1888.86 L2255.39,1890.35 L2255.34,1890.4 L2255.09,1890.73 L2254.74,1891.19 L2254.47,1891.29 L2253.72,1892.29 L2249.61,1897.82 L2249.57,1897.88 L2244.68,1904.45 L2244.57,1904.61 L2238.41,1912.88 L2222.1,1939.42 L2215.91,1949.46 L2210.08,1958.39 L2198.73,1975.76 L2194.83,1981.78 L2183.96,1998 L2176.46,2007.37 L2176.47,2007.38 L2178.1,2009.79 L2178.4,2010.62 L2178.76,2011.08 L2178.89,2011.33 L2178.89,2011.33 L2179,2011.51 L2177.57,2012.29 L2177.65,2014.18 L2170.63,2016.4 L2170.64,2016.43 L2171.71,2020.2 L2172.15,2021.62 L2172.34,2022.38 L2172.54,2023.06 L2172.67,2023.44 L2172.66,2023.44 L2172.66,2023.45 L2173.09,2024.83 L2173.25,2026.04 L2173.17,2026.55 L2166.6,2028.45 L2162.63,2029.56 L2159.31,2030.34 L2157.64,2035.06 L2157.25,2036.78 L2156.76,2037.48 L2155.74,2038.93 L2153.68,2041.77 L2153.68,2041.79 L2152.97,2049.77 L2153.57,2063.07 L2153.57,2063.15 L2153.66,2065.06 L2153.71,2066.22 L2153.76,2067.32 L2153.82,2068.57 L2153.88,2069.86 L2153.94,2071.28 L2154.19,2076.61 L2154.19,2076.69 L2155.21,2099.1 L2155.24,2099.92 L2155.51,2105.73 L2155.64,2108.72 L2155.83,2112.87 L2156.68,2131.65 L2157.31,2145.44 L2157.33,2145.66 L2157.33,2146.08 L2157.24,2146.3 L2156.85,2146.38 L2156.5,2146.54 L2156.49,2146.91 L2156.63,2147.32 L2156.96,2147.65 L2157.34,2147.84 L2160.76,2182.43 L2161.27,2187.58 L2161.76,2192.11 L2163.09,2204.47 L2163.68,2209.77 L2164.43,2215.99 L2162.06,2224.06 L2160.81,2228.25 L2159.53,2232.55 L2157.13,2239.81 L2155.32,2244.85 L2151.96,2253.56 L2150.94,2256.04 L2147.71,2263.73 L2146.62,2265.01 L2146.2,2265.57 L2145.63,2267.46 L2145.46,2268.46 L2145.39,2268.93 L2145.01,2269.52 L2144.76,2269.98 L2144.16,2272.44 L2144.13,2272.58 L2142.59,2279.24 L2142.62,2279.79 L2142.66,2280.14 L2142.66,2280.23 L2142.68,2280.37 L2143.2,2280.83 L2143.29,2281.08 L2143.33,2281.23 L2143.79,2281.68 L2144.33,2282.53 L2145.16,2282.95 L2145.62,2283.76 L2150.96,2289.21 L2151.17,2290.13 L2149.51,2294.87 L2149.27,2295.49 L2149.12,2296.02 L2143.66,2312.18 L2140.85,2320.72 L2137.62,2330.5 L2130.67,2350.16 L2130.64,2350.24 L2125.85,2363.79 L2124.78,2367.03 L2122.46,2374.12 L2122.28,2374.78 L2122.15,2375.15 L2121.99,2375.62 L2119.62,2382.44 L2111.37,2405.29 L2110.06,2408.91 L2105.11,2422.23 L2102.84,2427.95 L2100.88,2432.88 L2099.35,2438.39 L2088.08,2490.71 L2077.78,2514.86 L2077.78,2514.86 L2074.19,2516.68 L2071.17,2518.2 L2071.1,2518.24 L2049.59,2528.62 L2049.3,2528.76 L2017.38,2537.19 L2015.91,2538 L2010.42,2541.04 L2006.81,2543.03 L2002.31,2543.62 L1994.96,2544.59 L1992.7,2544.77 L1992.59,2544.78 L1992.58,2544.78 L1989.73,2545.12 L1976.83,2546.84 L1972.31,2547.41 L1964.43,2548.57 L1949.52,2550.41 L1942.82,2551.1 L1940.29,2551.4 L1923.42,2553.4 L1898.01,2556.56 L1890.51,2557.56 L1874.73,2559.45 L1860.56,2561.07 L1852.43,2562.04 L1847.1,2562.81 L1838.59,2564.21 L1837.31,2564.41 L1825.25,2565.58 L1824.59,2565.69 L1819.95,2566.16 L1815.95,2566.64 L1810.89,2567.27 L1805.61,2567.92 L1798.79,2568.76 L1792.39,2569.53 L1784.14,2570.58 L1778.15,2571.34 L1772.81,2571.95 L1770.57,2570.82 L1768.99,2570.79 L1768.27,2571.13 L1768.18,2571.16 L1767.47,2571.41 L1767.28,2571.47 L1767.18,2571.51 L1762.77,2572.62 L1763.26,2574.41 L1763.31,2574.59 L1763.45,2575.14 L1763.67,2576.11 L1763.67,2576.11 L1763.72,2576.34 L1763.77,2576.34 L1763.92,2577 L1764.02,2577.44 L1764.08,2577.68 L1763.95,2578.03 L1763.81,2578.23 L1763.15,2579.12 L1762.98,2579.35 L1762.37,2580.23 L1761.69,2581.22 L1761.53,2581.45 L1760.94,2582.19 L1760.38,2583 L1759.83,2583.7 L1758.86,2584.6 L1757.79,2585.59 L1756.62,2586.75 L1755.46,2587.93 L1755.29,2588.39 L1754.71,2589.85 L1754.32,2590.9 L1754.05,2591.42 L1753.6,2592.21 L1752.99,2592.98 L1752.09,2594.23 L1751.1,2595.65 L1750.07,2597.12 L1749.51,2597.93 L1749.42,2598.05 L1748.84,2597.88 L1701.97,2584.8 L1702.18,2613.65 L1703.42,2644.66 L1704.32,2659.2 L1703.39,2661.27 L1701.73,2665.98 L1699.15,2671.15 L1697,2675.22 L1693.47,2680.51 L1690.55,2684.26 L1676.03,2692.94 L1659.99,2703.85 L1641.9,2715.37 L1630.89,2723.55 L1631.55,2724.17 L1631.9,2724.5 L1632.2,2724.82 L1632.36,2725.08 L1632.74,2725.64 L1633.23,2726.28 L1633.54,2726.85 L1633.77,2727.28 L1633.82,2727.61 L1633.91,2728.6 L1634,2729.85 L1634.03,2730.21 L1634.06,2730.53 L1634.08,2730.88 L1634.08,2731.01 L1634.17,2731.56 L1634.22,2731.91 L1634.28,2733.05 L1634.31,2733.7 L1634.31,2733.8 L1634.36,2734.66 L1634.38,2735.1 L1634.43,2735.85 L1634.47,2736.75 L1634.5,2737.23 L1634.52,2737.62 L1634.55,2738.08 L1634.57,2738.58 L1634.61,2739.07 L1634.6,2739.43 L1634.65,2740.37 L1634.66,2740.93 L1634.67,2741.59 L1634.7,2742.17 L1634.69,2742.38 L1634.67,2742.54 L1634.65,2742.63 L1634.65,2742.75 L1634.66,2742.82 L1634.69,2743.01 L1634.69,2743.26 L1634.68,2743.48 L1634.67,2743.78 L1634.64,2744.01 L1634.63,2744.37 L1634.63,2744.87 L1634.62,2745.32 L1634.64,2745.55 L1634.66,2745.71 L1634.63,2745.87 L1634.58,2746.16 L1634.47,2746.67 L1634.35,2747.03 L1634.28,2747.28 L1634.23,2747.59 L1634.18,2747.94 L1634.16,2748.12 L1634.17,2748.28 L1634.15,2748.42 L1634.03,2748.87 L1633.94,2749.16 L1633.88,2749.5 L1633.82,2749.87 L1633.81,2750.03 L1633.84,2750.44 L1633.86,2750.71 L1633.84,2751.09 L1633.82,2751.19 L1633.77,2751.24 L1633.68,2751.29 L1633.54,2751.33 L1633.46,2751.4 L1633.38,2751.52 L1633.29,2751.7 L1633.24,2751.9 L1633.25,2752.06 L1633.3,2752.27 L1633.35,2752.48 L1633.45,2752.63 L1633.56,2752.78 L1633.75,2752.96 L1633.95,2753.13 L1634.26,2753.32 L1634.4,2753.42 L1634.53,2753.56 L1634.71,2753.74 L1634.94,2753.96 L1635.09,2754.07 L1635.23,2754.13 L1635.44,2754.26 L1635.54,2754.34 L1635.69,2754.44 L1635.8,2754.48 L1635.94,2754.5 L1636.06,2754.55 L1636.19,2754.62 L1636.3,2754.72 L1636.45,2754.81 L1636.63,2754.9 L1636.89,2755.05 L1637.11,2755.21 L1638.36,2756.33 L1638.47,2756.45 L1638.67,2756.79 L1638.74,2757.08 L1638.8,2757.32 L1639.04,2757.69 L1639.14,2757.9 L1639.18,2758.12 L1639.11,2758.54 L1639.09,2758.81 L1639.16,2759 L1639.39,2759.28 L1639.56,2759.53 L1639.64,2759.71 L1639.69,2759.97 L1639.72,2760.29 L1639.74,2760.58 L1639.77,2760.78 L1639.8,2761.01 L1639.82,2761.31 L1639.8,2761.49 L1639.76,2761.76 L1639.71,2762.16 L1639.58,2762.85 L1639.56,2763.05 L1639.54,2763.22 L1639.5,2763.36 L1639.42,2763.58 L1639.21,2764 L1639.11,2764.23 L1639.06,2764.35 L1639,2764.75 L1638.88,2765.22 L1638.8,2765.5 L1638.77,2765.7 L1638.68,2766.02 L1638.65,2766.2 L1638.64,2766.4 L1638.65,2766.56 L1638.7,2766.67 L1638.77,2766.76 L1638.97,2766.87 L1639.33,2767.05 L1639.68,2767.25 L1639.91,2767.41 L1640.19,2767.65 L1640.41,2767.88 L1640.6,2768.2 L1640.73,2768.47 L1640.87,2768.64 L1641.06,2768.81 L1641.18,2768.91 L1641.28,2768.96 L1641.43,2769.06 L1641.77,2769.3 L1642.09,2769.56 L1642.27,2769.66 L1642.57,2769.84 L1642.96,2770.06 L1643.24,2770.23 L1643.59,2770.48 L1643.72,2770.59 L1644.02,2770.92 L1644.29,2771.27 L1644.54,2771.6 L1644.75,2771.97 L1645.04,2772.62 L1645.39,2773.32 L1645.66,2773.83 L1645.78,2774.1 L1645.88,2774.27 L1645.95,2774.51 L1645.99,2774.61 L1646.09,2774.72 L1646.21,2774.85 L1646.28,2774.95 L1646.31,2775.05 L1646.39,2775.19 L1646.47,2775.36 L1646.53,2775.49 L1646.58,2775.73 L1646.68,2776.11 L1646.72,2776.43 L1646.74,2776.7 L1646.74,2776.94 L1646.74,2777.22 L1646.77,2777.37 L1646.81,2777.47 L1646.83,2777.63 L1646.87,2777.82 L1647,2778.24 L1647.05,2778.6 L1647.09,2778.8 L1647.28,2779.56 L1647.31,2779.79 L1647.38,2780.11 L1647.39,2780.22 L1647.43,2780.34 L1647.43,2780.41 L1647.44,2780.44 L1647.39,2780.6 L1647.16,2781.1 L1647.08,2781.32 L1647.01,2781.52 L1646.97,2781.7 L1646.99,2781.88 L1647.03,2782.17 L1647.05,2782.29 L1647.06,2782.35 L1646.73,2782.36 L1642.43,2782.75 L1640.18,2782.95 L1639.65,2782.92 L1639.04,2782.82 L1638.38,2782.51 L1637.75,2782.45 L1636.76,2782.74 L1636.05,2782.8 L1635.41,2782.67 L1634.94,2782.39 L1634.68,2782.14 L1634.28,2781.83 L1633.69,2781.59 L1632.85,2781.44 L1632.52,2781.44 L1631.39,2781.58 L1629.5,2781.96 L1628.35,2782.32 L1626.96,2782.43 L1626.65,2782.59 L1626.34,2782.89 L1626.15,2783.27 L1626.26,2783.52 L1626.6,2783.8 L1626.94,2783.95 L1627.6,2784.23 L1628.19,2784.56 L1628.42,2784.85 L1628.55,2785.28 L1628.51,2785.56 L1628.26,2785.76 L1627.93,2785.86 L1627.42,2785.84 L1627.04,2785.74 L1626.2,2785.37 L1624.85,2785.21 L1624.16,2785.3 L1623.17,2785.24 L1622.1,2784.86 L1621.92,2784.74 L1621.2,2784.26 L1620.43,2783.65 L1620.12,2783.01 L1619.98,2782.2 L1619.99,2781.52 L1619.85,2780.85 L1619.61,2780.2 L1619.24,2779.77 L1618.73,2779.26 L1617.86,2779.06 L1616.63,2779.09 L1615.72,2779.31 L1614.13,2779.99 L1612.63,2780.51 L1606.06,2781.9 L1605.18,2781.92 L1604.17,2781.75 L1603.39,2781.8 L1602.47,2782.04 L1601.88,2782.39 L1601.33,2782.64 L1600.73,2782.51 L1600.3,2782.3 L1599.19,2781.53 L1598.51,2781.32 L1597.89,2781.32 L1596.31,2780.94 L1595.91,2780.7 L1595.32,2780.59 L1594.09,2780.71 L1592.83,2781.13 L1591.8,2781.66 L1590.93,2781.69 L1590.63,2781.53 L1590.11,2780.97 L1590.09,2780.17 L1590.04,2779.77 L1589.85,2779.28 L1587.39,2777.62 L1586.84,2776.7 L1586.74,2775.51 L1586.9,2774.99 L1588.62,2773.67 L1589.21,2772.94 L1589.9,2771.84 L1589.89,2771.35 L1589.52,2770.96 L1588.2,2771.14 L1586.64,2771.65 L1585.81,2771.66 L1585.07,2771.4 L1584.51,2770.93 L1584.37,2770.16 L1584.28,2769.27 L1584.72,2767.63 L1584.74,2766.68 L1584.42,2766.11 L1584.18,2765.92 L1583.58,2765.95 L1582.49,2766.73 L1581.88,2767.5 L1581.55,2768.16 L1581.26,2768.37 L1580.7,2768.91 L1579.82,2769.19 L1578.52,2769.03 L1577.81,2768.4 L1577.21,2767.42 L1576.88,2766.66 L1575.75,2765.24 L1575.27,2765.05 L1573.38,2763.87 L1572.67,2762.85 L1572.42,2762.17 L1572.09,2761.89 L1571.39,2761.56 L1570.75,2761.1 L1570.13,2760.78 L1569.65,2760.64 L1569.13,2760.24 L1568.07,2759.04 L1567.17,2758.31 L1566.16,2757.74 L1563.93,2756.24 L1562.3,2755.61 L1561.37,2755.46 L1560.07,2754.7 L1558.86,2753.61 L1558.03,2752.51 L1555.79,2750.8 L1554.55,2750.08 L1554.1,2749.59 L1553.87,2748.83 L1553.7,2748.35 L1553.31,2747.85 L1552.52,2746.3 L1552.24,2745.44 L1552.07,2744.74 L1551.94,2742.65 L1551.81,2741.59 L1551.63,2741.05 L1551.21,2740.57 L1550.48,2740.33 L1549.53,2740.04 L1548.42,2739.66 L1547.21,2738.93 L1545.9,2738.25 L1544.23,2737.63 L1542.41,2737.51 L1540.88,2737.13 L1540.65,2736.88 L1539.19,2734.71 L1537.86,2733.02 L1536.06,2731.71 L1535.06,2731.45 L1533.63,2731.4 L1532.63,2731.54 L1531.17,2731.61 L1528.74,2732.17 L1528.31,2732.48 L1528.15,2732.98 L1528.12,2733.48 L1528.53,2734.05 L1530.44,2734.97 L1531.36,2735.56 L1531.91,2736.2 L1532.13,2736.78 L1531.81,2737.13 L1531.3,2737.49 L1530.43,2737.48 L1529.01,2737.77 L1528.19,2738.12 L1526.73,2740.26 L1526.31,2740.64 L1525.96,2740.62 L1525.59,2740.51 L1524.93,2739.92 L1524.36,2739.01 L1523.86,2738.47 L1523.41,2738.17 L1522.94,2738.01 L1522.62,2738.02 L1522.21,2738.24 L1521.07,2740.37 L1520.81,2741.27 L1520.58,2742.65 L1520.26,2743.47 L1519.74,2744.79 L1519.28,2745.6 L1519.06,2745.66 L1518.91,2745.72 L1518.27,2745.63 L1517.65,2745.33 L1517,2744.62 L1516.94,2744.51 L1516.71,2744.09 L1516.66,2743.31 L1516.91,2742.27 L1517.35,2741.34 L1517.7,2740.02 L1517.31,2739.18 L1517.1,2738.77 L1516.67,2738.23 L1515.38,2737.43 L1515.04,2737.31 L1514.73,2737.23 L1514,2737.19 L1512.69,2737.29 L1511.48,2737.44 L1510.2,2737.66 L1509.17,2737.59 L1507.71,2737.37 L1506.43,2737.34 L1505.45,2737.44 L1505.16,2737.59 L1504.59,2738.28 L1504.23,2738.95 L1503.57,2739.88 L1502.38,2740.65 L1501.68,2740.73 L1500.93,2740.29 L1500.36,2739.21 L1499.75,2738.19 L1499.13,2737.7 L1497.91,2736.44 L1497.8,2736.32 L1497.44,2735.52 L1497.04,2734.75 L1496.66,2734.36 L1496.47,2733.59 L1496.48,2733.46 L1496.5,2733.07 L1496.48,2732.49 L1496.08,2731.81 L1495.21,2730.83 L1494.72,2729.72 L1494.15,2728.88 L1494.07,2728.75 L1493.63,2727.97 L1492.85,2726.89 L1492.57,2726.44 L1492.34,2726.12 L1492.14,2725.9 L1491.68,2725.04 L1490.26,2723.1 L1489.99,2722.05 L1488.72,2720.47 L1488.12,2720.06 L1487.28,2718.71 L1485.66,2717.29 L1484.68,2716.06 L1484.58,2715.94 L1483.75,2715.63 L1482.14,2715.88 L1482.08,2715.9 L1481.36,2715.69" vector-effect="none"/>
  </g>
  <g stroke="#000000" stroke-linejoin="bevel" stroke-linecap="square" font-style="normal" font-size="34.5833" font-family="MS Shell Dlg 2" font-weight="400" stroke-width="1" stroke-opacity="1" transform="matrix(0.999744,0,0,0.999744,0,0)" fill="none"/>
  <g stroke="#000000" stroke-linejoin="bevel" stroke-linecap="square" font-style="normal" font-size="34.5833" font-family="MS Shell Dlg 2" font-weight="400" stroke-width="1" stroke-opacity="1" transform="matrix(11.808,0,0,11.808,0,0)" fill="none"/>
  <g stroke="#000000" stroke-linejoin="bevel" stroke-linecap="square" font-style="normal" font-size="34.5833" font-family="MS Shell Dlg 2" font-weight="400" stroke-width="1" stroke-opacity="1" transform="matrix(11.808,0,0,11.808,0,0)" fill="none"/>
  <g stroke="#000000" stroke-linejoin="bevel" stroke-linecap="square" font-style="normal" font-size="34.5833" font-family="MS Shell Dlg 2" font-weight="400" stroke-width="1" stroke-opacity="1" transform="matrix(11.808,0,0,11.808,0,0)" fill="none"/>
  <g stroke="#000000" stroke-linejoin="bevel" stroke-linecap="square" font-style="normal" font-size="34.5833" font-family="MS Shell Dlg 2" font-weight="400" stroke-width="1" stroke-opacity="1" transform="matrix(1,0,0,1,0,0)" fill="none"/>
  <g stroke="#000000" stroke-linejoin="bevel" stroke-linecap="square" font-style="normal" font-size="34.5833" font-family="MS Shell Dlg 2" font-weight="400" stroke-width="1" stroke-opacity="1" transform="matrix(11.808,0,0,11.808,0,0)" fill="none"/>
  <g stroke="#000000" stroke-linejoin="bevel" stroke-linecap="square" font-style="normal" font-size="34.5833" font-family="MS Shell Dlg 2" font-weight="400" stroke-width="1" stroke-opacity="1" transform="matrix(11.808,0,0,11.808,0,0)" fill="none"/>
  <g stroke="#000000" stroke-linejoin="bevel" stroke-linecap="square" font-style="normal" font-size="34.5833" font-family="MS Shell Dlg 2" font-weight="400" stroke-width="1" stroke-opacity="1" transform="matrix(11.808,0,0,11.808,0,0)" fill="none"/>
  <g stroke="#000000" stroke-linejoin="bevel" stroke-linecap="square" font-style="normal" font-size="34.5833" font-family="MS Shell Dlg 2" font-weight="400" stroke-width="1" stroke-opacity="1" transform="matrix(11.808,0,0,11.808,0,0)" fill="none"/>
  <g stroke="#000000" stroke-linejoin="bevel" stroke-linecap="square" font-style="normal" font-size="34.5833" font-family="MS Shell Dlg 2" font-weight="400" stroke-width="1" stroke-opacity="1" transform="matrix(1,0,0,1,0,0)" fill="none"/>
 </g>
</svg>
