<?xml version='1.0' encoding='UTF-8' standalone='no'?>
<svg baseProfile="tiny" version="1.2" xmlns:xlink="http://www.w3.org/1999/xlink" viewBox="0 0 2952 2952" width="249.936mm" height="249.936mm" xmlns="http://www.w3.org/2000/svg">
 <title>Qt SVG Document</title>
 <desc>Generated with Qt</desc>
 <defs/>
 <g stroke="black" stroke-linejoin="bevel" fill-rule="evenodd" stroke-linecap="square" stroke-width="1" fill="none">
  <g stroke="#000000" stroke-linejoin="bevel" stroke-linecap="square" font-style="normal" font-size="34.5833" font-family="MS Shell Dlg 2" font-weight="400" stroke-width="1" stroke-opacity="1" transform="matrix(1,0,0,1,0,0)" fill="none"/>
  <g stroke="#000000" stroke-linejoin="bevel" stroke-linecap="square" font-style="normal" font-size="34.5833" font-family="MS Shell Dlg 2" font-weight="400" stroke-width="1" stroke-opacity="1" transform="matrix(1,0,0,1,0,0)" fill="none"/>
  <g stroke="#000000" stroke-linejoin="bevel" stroke-linecap="square" font-style="normal" font-size="34.5833" font-family="MS Shell Dlg 2" font-weight="400" stroke-width="1" stroke-opacity="1" transform="matrix(11.808,0,0,11.808,0,0)" fill="none"/>
  <g stroke="#000000" stroke-linejoin="bevel" stroke-linecap="square" font-style="normal" font-size="34.5833" font-family="MS Shell Dlg 2" font-weight="400" stroke-width="1" stroke-opacity="1" transform="matrix(0.999744,0,0,0.999744,0,0)" fill="none"/>
  <g stroke="none" font-style="normal" font-size="34.5833" font-family="MS Shell Dlg 2" font-weight="400" fill-opacity="0" transform="matrix(0.999744,0,0,0.999744,0,0)" fill="#ffffff">
   <path fill-rule="evenodd" d="M-2,-2 L2955,-2 L2955,2955 L-2,2955 L-2,-2" vector-effect="none"/>
  </g>
  <g stroke="#000000" stroke-linejoin="bevel" stroke-linecap="square" font-style="normal" font-size="34.5833" font-family="MS Shell Dlg 2" font-weight="400" stroke-width="1" stroke-opacity="1" transform="matrix(0.999744,0,0,0.999744,0,0)" fill="none"/>
  <g stroke="#000000" stroke-linejoin="bevel" stroke-linecap="square" font-style="normal" font-size="34.5833" font-family="MS Shell Dlg 2" font-weight="400" stroke-width="1" stroke-opacity="1" transform="matrix(11.808,0,0,11.808,0,0)" fill="none"/>
  <g stroke="#000000" stroke-linejoin="bevel" stroke-linecap="square" font-style="normal" font-size="34.5833" font-family="MS Shell Dlg 2" font-weight="400" stroke-width="1" stroke-opacity="1" transform="matrix(11.808,0,0,11.808,0,0)" fill="none"/>
  <g stroke="#000000" stroke-linejoin="bevel" stroke-linecap="square" font-style="normal" font-size="34.5833" font-family="MS Shell Dlg 2" font-weight="400" stroke-width="1" stroke-opacity="1" transform="matrix(11.808,0,0,11.808,0,0)" fill="none"/>
  <g stroke="#000000" stroke-linejoin="bevel" stroke-linecap="square" font-style="normal" font-size="34.5833" font-family="MS Shell Dlg 2" font-weight="400" stroke-width="1" stroke-opacity="1" transform="matrix(11.808,0,0,11.808,0,0)" fill="none"/>
  <g stroke="#000000" stroke-linejoin="bevel" stroke-linecap="square" font-style="normal" font-size="34.5833" font-family="MS Shell Dlg 2" font-weight="400" stroke-width="1" stroke-opacity="1" transform="matrix(11.808,0,0,11.808,0,0)" fill="none"/>
  <g stroke="none" font-style="normal" font-size="34.5833" font-family="MS Shell Dlg 2" font-weight="400" fill-opacity="0" transform="matrix(11.808,0,0,11.808,0,0)" fill="#ffffff">
   <path fill-rule="evenodd" d="M0,0 L250,0 L250,250 L0,250 L0,0" vector-effect="none"/>
  </g>
  <g stroke="#000000" stroke-linejoin="bevel" stroke-linecap="square" font-style="normal" font-size="34.5833" font-family="MS Shell Dlg 2" font-weight="400" stroke-width="1" stroke-opacity="1" transform="matrix(11.808,0,0,11.808,0,0)" fill="none"/>
  <g stroke="#000000" stroke-linejoin="bevel" stroke-linecap="square" font-style="normal" font-size="34.5833" font-family="MS Shell Dlg 2" font-weight="400" stroke-width="1" stroke-opacity="1" transform="matrix(11.808,0,0,11.808,0,0)" fill="none"/>
  <g stroke="none" font-style="normal" font-size="34.5833" font-family="MS Shell Dlg 2" font-weight="400" fill-opacity="0" transform="matrix(0.999744,0,0,0.999744,0,0)" fill="#000000">
   <rect y="0" x="0" width="2953" height="2953"/>
  </g>
  <g stroke="#000000" stroke-linejoin="bevel" stroke-linecap="square" font-style="normal" font-size="34.5833" font-family="MS Shell Dlg 2" font-weight="400" stroke-width="1" stroke-opacity="1" transform="matrix(0.999744,0,0,0.999744,0,0)" fill="none"/>
  <g stroke="#000000" stroke-linejoin="bevel" stroke-linecap="square" font-style="normal" font-size="34.5833" font-family="MS Shell Dlg 2" font-weight="400" stroke-width="1" stroke-opacity="1" transform="matrix(0.999744,0,0,0.999744,0,0)" fill="none"/>
  <g stroke="#5c5c5c" stroke-linejoin="bevel" stroke-linecap="square" font-style="normal" font-size="34.5833" font-family="MS Shell Dlg 2" font-weight="400" stroke-width="3.07087" fill-opacity="1" stroke-opacity="1" transform="matrix(0.999744,0,0,0.999744,0,0)" fill="#c5c5c5">
   <path fill-rule="evenodd" d="M717.423,2169.52 L684.156,2099.83 L669.346,2049.74 L668.366,2016.63 L674.682,1968.07 L676.424,1923.96 L667.604,1876.05 L650.072,1827.59 L621.978,1769.77 L605.861,1712.17 L597.368,1659.46 L597.694,1599.41 L600.199,1581.93 L602.595,1564.83 L602.733,1536.36 L603.024,1476.36 L603.333,1471.41 L608.411,1389.93 L610.372,1368.45 L612.489,1341.51 L616.271,1296.79 L619.386,1279.41 L623.22,1261.42 L629.373,1243.23 L638.439,1224.26 L646.67,1211.3 L654.128,1201.32 L655.58,1199.38 L673.132,1179.89 L690.915,1163.47 L722.288,1138.76 L753.828,1115.67 L853.797,1054.21 L900.544,1023.97 L990.214,957.38 L1067.32,903.532 L1129.73,864.683 L1177.35,839.964 L1226.38,822.246 L1307.34,795.03 L1403.58,754.542 L1482.19,715.623 L1516.26,699.103 L1555.68,679.693 L1594.01,643.159 L1649.55,581.526 L1727.95,507.914 L1758.55,479.493 L1777.72,455.191 L1781.02,455.536 L1812.84,464.359 L1817.24,467.634 L1824.03,470.173 L1847.92,475.658 L1850.45,473.08 L1866.09,477.46 L1864.93,480.639 L1908.96,492.112 L1917.59,493.527 L1948.99,502.713 L1961.7,502.384 L1970.15,503.779 L1983.7,511.687 L2020.5,531.997 L2038.55,542.175 L2044.86,545.672 L2066.35,557.599 L2067.56,558.172 L2135.1,583.777 L2146.57,588.162 L2155.14,591.414 L2171.75,597.469 L2174.95,598.661 L2180.48,600.777 L2188.6,603.811 L2282.76,634.928 L2288.99,639.25 L2295.66,643.146 L2301.82,648.03 L2305.93,649.929 L2339.23,671.209 L2375.78,693.238 L2375.7,696.002 L2376.6,697.926 L2377.11,700.234 L2376.47,704.208 L2376.17,705.838 L2374.55,714.592 L2374.1,715.203 L2372.75,717.029 L2370.85,718.222 L2369.16,718.306 L2368.28,718.35 L2365.87,717.556 L2360.06,715.747 L2354.82,714.888 L2350.08,715.273 L2347.39,717.067 L2337.26,726.811 L2334.95,728.35 L2331.47,730.698 L2328.79,733.124 L2328.24,735.63 L2330.31,740.566 L2332.48,743.719 L2332.38,745.605 L2330.88,747.62 L2329.22,747.62 L2325.31,746.646 L2320.31,746.004 L2317.64,746.428 L2314.54,747.8 L2312.49,749.595 L2311.1,751.812 L2310.29,753.991 L2309.93,754.979 L2309.69,755.681 L2308.65,758.825 L2307.9,763.096 L2307.04,765.116 L2306.24,766.993 L2305.65,767.697 L2305.22,768.217 L2304.93,768.569 L2302.51,770.019 L2299.3,770.631 L2298.01,770.878 L2295.46,770.531 L2293.13,770.109 L2290.91,770.561 L2289.53,771.525 L2288.44,773.067 L2287.91,774.921 L2286.91,781.822 L2285.8,783.969 L2284.16,785.879 L2281.36,787.712 L2275.64,791.168 L2273.6,793.207 L2272.6,795.296 L2272.32,797.637 L2272.2,798.584 L2272.33,801.418 L2273.15,809.524 L2274.88,819.777 L2274.42,825.583 L2274.4,825.988 L2273.9,830.752 L2272.51,835.92 L2271.34,840.753 L2269.16,845.24 L2268,848.958 L2267.44,849.99 L2266.59,851.523 L2265.49,854.376 L2264.31,857.46 L2263.52,859.856 L2263.26,862.806 L2263.07,866.269 L2261.62,869.99 L2258.39,875.908 L2257.13,879.396 L2256.84,882.316 L2255.19,884.228 L2252.86,891.386 L2251.71,893.428 L2250.36,898.273 L2248.58,901.296 L2247.36,904.036 L2247.72,906.387 L2247,908.558 L2246.48,913.829 L2245.23,915.238 L2243.79,917.974 L2242.74,920.206 L2241.96,922.483 L2241.59,926.141 L2240.95,931.654 L2240.07,934.77 L2238.86,936.897 L2235.69,942.425 L2231.68,949.099 L2229.59,952.413 L2226.7,955.689 L2225.93,957.249 L2224.71,960.065 L2223.64,962.554 L2220.46,970.157 L2217.62,976.016 L2214.54,982.939 L2213.51,987.426 L2211.81,991.441 L2209.51,995.294 L2207.43,998.29 L2206.58,999.836 L2205.65,1001.82 L2203.85,1004.82 L2203.51,1005.38 L2201,1009.85 L2198.38,1013.97 L2196.46,1017.56 L2195.46,1019.65 L2194.69,1021.94 L2193.54,1024.93 L2184.46,1043.82 L2180.36,1048.37 L2178.73,1050.77 L2177.13,1055.4 L2174.52,1067.85 L2170.56,1076.46 L2166.27,1083.15 L2166.92,1087.03 L2166.74,1088.45 L2167,1091.4 L2165.52,1096.69 L2164.08,1103.72 L2163.97,1106.02 L2164.93,1108.73 L2167.8,1114.47 L2168.75,1118.27 L2168.52,1129.67 L2167.93,1134.14 L2168.16,1138.86 L2168.8,1140.75 L2170.23,1142.2 L2172.81,1142.72 L2177,1146.46 L2179.14,1149.1 L2178.96,1150.49 L2177.25,1151.37 L2176.27,1151.99 L2177.54,1153.59 L2180.69,1155.95 L2181.65,1157.03 L2181.1,1159.12 L2179.11,1161.73 L2179.09,1163.57 L2179.81,1164.94 L2179.71,1167.01 L2180.43,1169.2 L2179.48,1171.4 L2179.04,1172.74 L2178.96,1174.32 L2179.97,1177.57 L2179.27,1179.05 L2180.43,1182.43 L2179.86,1184.15 L2180.19,1187.71 L2180.72,1189.67 L2182.07,1193.04 L2182.35,1193.74 L2183.29,1194.36 L2186.52,1195.45 L2187.47,1196.07 L2188.02,1197.1 L2189.29,1201.56 L2190.02,1203.71 L2190.27,1205.38 L2190.29,1207.67 L2190.15,1209.7 L2189.8,1211.3 L2188.46,1214.36 L2188.34,1215.77 L2187.45,1218.14 L2187,1220.86 L2186.07,1223.05 L2184.9,1224.92 L2184.67,1228.17 L2183.92,1233.7 L2183.77,1241.61 L2183.82,1246.41 L2185.5,1249.44 L2188.34,1250.63 L2190.46,1252.54 L2191.21,1254.06 L2190.82,1257.89 L2190.36,1259.54 L2191.36,1261.29 L2191.75,1262.69 L2192.76,1263.92 L2193.3,1265.34 L2193.26,1266.89 L2192.38,1269.27 L2190.03,1272 L2189.08,1272.44 L2188.29,1273.55 L2187.59,1277.18 L2184.68,1278.52 L2184.24,1280.18 L2181.66,1283.13 L2181.62,1286.27 L2181.92,1289.71 L2181.91,1292.3 L2183.07,1293.7 L2182.89,1294.45 L2180.82,1296.66 L2180.06,1298.41 L2178.96,1299.87 L2176.6,1301.77 L2176.04,1303.01 L2176,1304.17 L2177.25,1304.56 L2178.31,1305.76 L2178.7,1309.41 L2177.89,1310.5 L2176.36,1311.26 L2175.07,1312.72 L2174.7,1313.85 L2174.66,1314.63 L2174.97,1315.75 L2176.37,1316.42 L2177.08,1317.02 L2177.27,1318.17 L2176.71,1319.09 L2175.52,1320.24 L2174.41,1325.39 L2173.38,1329.24 L2172.4,1333.78 L2171.6,1336.19 L2172.05,1337.46 L2174.84,1340.31 L2175.23,1342.06 L2175,1343.44 L2174.41,1344.6 L2173.31,1345.81 L2172.04,1346.63 L2171.18,1347.3 L2169.27,1349.75 L2168.16,1351.46 L2166.33,1352.92 L2163.22,1353.38 L2162.13,1354.07 L2161.12,1355.79 L2160.27,1358.29 L2158.94,1359.29 L2156.83,1360.56 L2155.62,1362.06 L2153.9,1364.43 L2152.29,1366.27 L2151.86,1367.5 L2151.82,1369.54 L2151.51,1371.03 L2152.48,1372.2 L2154.2,1373 L2155.85,1374.31 L2157.14,1377.27 L2157.12,1378.61 L2156.27,1380.21 L2155.35,1381.38 L2154.9,1382.32 L2154.95,1383.57 L2155.81,1385.38 L2157.04,1387.25 L2157.43,1388.83 L2157.56,1392.84 L2157.29,1395.81 L2158.59,1399.94 L2158.28,1401.67 L2157.58,1403 L2153.82,1407.13 L2152.69,1409.45 L2151.08,1412.22 L2146.72,1417.71 L2136.73,1432.29 L2135.79,1433.06 L2133.82,1435.32 L2127.56,1445.47 L2125.32,1449.51 L2117.36,1461.99 L2109.97,1474.57 L2105.4,1481.78 L2098.78,1492.87 L2093.23,1502.37 L2091.43,1505.23 L2082.98,1518.9 L2073.28,1534.88 L2061.99,1552.61 L2059.12,1557.3 L2052.47,1568.97 L2048.86,1573.75 L2035.38,1573.94 L2033.33,1580.23 L2032.35,1581.79 L2031.46,1583.91 L2026.38,1594.82 L2014.9,1617.52 L2007.98,1630.39 L1995.48,1654.08 L1991.19,1660.92 L1987.88,1666.33 L1986.5,1668.6 L1985.33,1670.51 L1983.88,1673.11 L1972.22,1690.41 L1957.03,1713.61 L1955.37,1715.97 L1953.94,1717.51 L1953.34,1718.15 L1953.03,1718.42 L1942.32,1727.64 L1921.35,1745.73 L1877.7,1783.38 L1858.43,1799.84 L1853.87,1803.56 L1842.3,1813.46 L1836.24,1818.64 L1816.2,1835.57 L1811.13,1839.76 L1777.08,1868.6 L1754.2,1888.46 L1753.01,1889.48 L1738.94,1901.59 L1719.99,1918.22 L1704.51,1931.21 L1695.1,1939.3 L1687.02,1946.52 L1677.87,1954.45 L1671.88,1959.28 L1665.71,1964 L1662.76,1967.37 L1660.17,1970.83 L1658.55,1973.67 L1645.7,1998.61 L1633.41,1991.31 L1619.81,1984.26 L1619.16,1983.76 L1618.69,1983.07 L1617.18,1979.68 L1611.22,1980.94 L1605.63,1985.36 L1594.01,1964.22 L1622.07,1953.29 L1614.06,1938.33 L1606.67,1924.31 L1602.07,1914.93 L1580.03,1922.26 L1576.98,1922.48 L1573.35,1909.47 L1571.55,1902.98 L1570.41,1900.15 L1569.99,1897.4 L1565.55,1889.96 L1558.08,1877.87 L1547.13,1884.58 L1542.49,1876.84 L1537.24,1867.99 L1534.96,1864.12 L1533.67,1862.28 L1531.16,1859.15 L1525.6,1851.87 L1532.48,1845.13 L1524.33,1835.11 L1531.17,1826.79 L1523.54,1820.33 L1510.16,1834.96 L1452.33,1788.37 L1442.46,1800.75 L1426.08,1787.04 L1421.73,1783.4 L1414.93,1777.18 L1422.45,1768.67 L1427.29,1763.27 L1410.13,1748.94 L1397.46,1737.06 L1386.21,1725.44 L1377.16,1735.45 L1366.95,1746.49 L1367.74,1737.31 L1379.6,1714.05 L1385.65,1692.59 L1359.68,1684.62 L1343.18,1679.84 L1346.49,1672.02 L1328.42,1659.87 L1334.02,1647.57 L1318.76,1631.39 L1305.19,1616.28 L1296.3,1624.34 L1292.94,1627.33 L1291.22,1629.07 L1288.55,1631.42 L1284.68,1637.84 L1278.48,1651.29 L1270.22,1668.34 L1263.67,1683.23 L1262.41,1684.64 L1260.35,1686.89 L1254.37,1693.46 L1250.88,1697.34 L1244.6,1704.84 L1249.32,1711.08 L1247.54,1714.34 L1245.73,1717.33 L1243.83,1721.02 L1243.42,1721.77 L1234.51,1738.18 L1226.79,1752.24 L1221.63,1761.57 L1238.41,1779.53 L1241.13,1782.63 L1238.19,1784.9 L1237.92,1785.91 L1234.68,1788.21 L1233.76,1789.04 L1233.92,1790.12 L1232.82,1791.54 L1231.46,1792.21 L1229.81,1793.13 L1227.37,1793.27 L1226.16,1793.89 L1225.17,1795.2 L1225.24,1800.57 L1225.58,1802.11 L1226.83,1804.26 L1227.76,1805.6 L1228.16,1807.39 L1227.92,1809.05 L1227.49,1811.09 L1225.81,1812.88 L1225.42,1814.88 L1224.98,1816.92 L1223.47,1818.42 L1221.7,1818.56 L1219.27,1818.23 L1217.66,1818.16 L1216.19,1818.81 L1214.44,1820.14 L1212.79,1821.2 L1211.56,1821.26 L1210.15,1821.01 L1207.93,1820.83 L1203.44,1820.78 L1202.31,1821.31 L1201.62,1823.79 L1200.91,1826.04 L1200.77,1827.86 L1197.01,1830.91 L1195.15,1832.04 L1188.83,1837.32 L1186.19,1839.89 L1186.17,1841.82 L1184.17,1843.94 L1183.7,1846.31 L1183.29,1848.35 L1183.04,1850.74 L1183.34,1852.55 L1182.74,1853.08 L1180.72,1853.56 L1179.53,1854.04 L1178.61,1854.96 L1175.94,1859.07 L1173.97,1865.44 L1172.71,1867.11 L1171.38,1868.36 L1167.28,1870.36 L1166.23,1871.3 L1165.36,1872.76 L1163.9,1874.31 L1160.9,1877.91 L1158.53,1882.4 L1157.66,1886.88 L1157.04,1888.62 L1155.52,1891.01 L1154.1,1891.89 L1153.14,1891.66 L1151.34,1889.45 L1149,1887.27 L1147.37,1887.2 L1146.59,1887.84 L1146.04,1888.95 L1142.13,1893.01 L1141.01,1894.04 L1139.4,1894.39 L1135.1,1897.47 L1130.88,1901.9 L1127.34,1903.16 L1123.34,1907.18 L1121.69,1910.17 L1118.84,1911.39 L1114.66,1913.8 L1114.11,1915.84 L1111.08,1919.06 L1108.73,1919.86 L1108.3,1921.13 L1106.94,1921.93 L1105.15,1922.34 L1103.68,1923.45 L1101.27,1926.82 L1099.04,1927.4 L1098.12,1928.36 L1096.56,1929.33 L1095.39,1929.67 L1092.98,1929.92 L1090.91,1930.93 L1089.46,1932.27 L1088.68,1933.28 L1088.34,1936.98 L1087.88,1938.28 L1088.06,1940.21 L1087.88,1942.65 L1087.49,1944.92 L1086.11,1947.79 L1084.16,1950.73 L1081.63,1951.88 L1077.84,1951.95 L1074.99,1952.57 L1074.14,1953.26 L1075.43,1954.36 L1077.34,1954.82 L1080.92,1954.96 L1082.55,1954.39 L1084.02,1955.33 L1086.32,1955.47 L1087.46,1955.65 L1088.57,1957.14 L1091.39,1958.18 L1093.48,1958.34 L1092.22,1967.21 L1091.06,1976.39 L1082.14,1975.09 L1079.69,1994.53 L1074.9,1995.3 L1074.45,2004.6 L1074.12,2013.99 L1067.52,2014.81 L1063.17,2031.12 L1059.09,2047.1 L1055.2,2059.83 L1051.6,2073.48 L1048.14,2086.56 L1044.75,2099.86 L1058.31,2103.49 L1055.23,2113.61 L1052.65,2123.66 L1050.01,2133.42 L1047.28,2143.48 L1045.16,2151.63 L1045.74,2160.41 L1048.64,2160.23 L1049.74,2169.01 L1049.96,2171.58 L1050.45,2178.02 L1041.58,2179.21 L1042.23,2202.66 L1042.4,2205.69 L1043.08,2224.01 L1041.69,2237.65 L1040.14,2252.74 L1039.51,2266.09 L1039.28,2273.86 L1032.08,2273.94 L1029.7,2273.62 L1026.26,2293.15 L1025.92,2294.85 L1024.38,2302.56 L1023.68,2305.21 L1023.03,2306.95 L1018.44,2314.95 L1020.41,2316.26 L1026,2319.47 L1029.65,2321.73 L1031.9,2323.26 L1039.64,2330.65 L1046.2,2337.68 L1047.56,2338.98 L1049.55,2339.99 L1054.06,2341.87 L1057.15,2343.22 L1056.96,2343.7 L1052.99,2358.37 L1052.45,2359.21 L994.261,2497.14 L977.177,2513.66 L966.167,2524.16 L959.584,2515.63 L952.711,2503.3 L943.596,2485.42 L930.364,2454.79 L925.488,2440.98 L917.382,2406.64 L911.287,2368.42 L909.722,2365.05 L898.381,2340.64 L874.959,2322.39 L851.602,2309.47 L850.819,2309.04 L822.258,2290.92 L804.931,2276.5 L799.012,2269.95 L787.722,2257.46 L773.133,2243.92 L772.187,2243.04 L771.008,2241.4 L756.193,2220.73 L755.696,2220.03 L755.489,2219.68 L740.997,2195.17 L735.414,2187.42 L728.808,2178.25 L720.924,2174.96 L717.423,2169.52" vector-effect="none"/>
  </g>
  <g stroke="#000000" stroke-linejoin="bevel" stroke-linecap="square" font-style="normal" font-size="34.5833" font-family="MS Shell Dlg 2" font-weight="400" stroke-width="1" stroke-opacity="1" transform="matrix(0.999744,0,0,0.999744,0,0)" fill="none"/>
  <g stroke="#000000" stroke-linejoin="bevel" stroke-linecap="square" font-style="normal" font-size="34.5833" font-family="MS Shell Dlg 2" font-weight="400" stroke-width="1" stroke-opacity="1" transform="matrix(11.808,0,0,11.808,0,0)" fill="none"/>
  <g stroke="#000000" stroke-linejoin="bevel" stroke-linecap="square" font-style="normal" font-size="34.5833" font-family="MS Shell Dlg 2" font-weight="400" stroke-width="1" stroke-opacity="1" transform="matrix(11.808,0,0,11.808,0,0)" fill="none"/>
  <g stroke="#000000" stroke-linejoin="bevel" stroke-linecap="square" font-style="normal" font-size="34.5833" font-family="MS Shell Dlg 2" font-weight="400" stroke-width="1" stroke-opacity="1" transform="matrix(11.808,0,0,11.808,0,0)" fill="none"/>
  <g stroke="#000000" stroke-linejoin="bevel" stroke-linecap="square" font-style="normal" font-size="34.5833" font-family="MS Shell Dlg 2" font-weight="400" stroke-width="1" stroke-opacity="1" transform="matrix(1,0,0,1,0,0)" fill="none"/>
  <g stroke="#000000" stroke-linejoin="bevel" stroke-linecap="square" font-style="normal" font-size="34.5833" font-family="MS Shell Dlg 2" font-weight="400" stroke-width="1" stroke-opacity="1" transform="matrix(11.808,0,0,11.808,0,0)" fill="none"/>
  <g stroke="#000000" stroke-linejoin="bevel" stroke-linecap="square" font-style="normal" font-size="34.5833" font-family="MS Shell Dlg 2" font-weight="400" stroke-width="1" stroke-opacity="1" transform="matrix(11.808,0,0,11.808,0,0)" fill="none"/>
  <g stroke="#000000" stroke-linejoin="bevel" stroke-linecap="square" font-style="normal" font-size="34.5833" font-family="MS Shell Dlg 2" font-weight="400" stroke-width="1" stroke-opacity="1" transform="matrix(11.808,0,0,11.808,0,0)" fill="none"/>
  <g stroke="#000000" stroke-linejoin="bevel" stroke-linecap="square" font-style="normal" font-size="34.5833" font-family="MS Shell Dlg 2" font-weight="400" stroke-width="1" stroke-opacity="1" transform="matrix(11.808,0,0,11.808,0,0)" fill="none"/>
  <g stroke="#000000" stroke-linejoin="bevel" stroke-linecap="square" font-style="normal" font-size="34.5833" font-family="MS Shell Dlg 2" font-weight="400" stroke-width="1" stroke-opacity="1" transform="matrix(1,0,0,1,0,0)" fill="none"/>
 </g>
</svg>
