<?xml version='1.0' encoding='UTF-8' standalone='no'?>
<svg version="1.2" xmlns:xlink="http://www.w3.org/1999/xlink" xmlns="http://www.w3.org/2000/svg" baseProfile="tiny" width="249.936mm" height="249.936mm" viewBox="0 0 2952 2952">
 <title>Qt SVG Document</title>
 <desc>Generated with Qt</desc>
 <defs/>
 <g stroke="black" fill-rule="evenodd" stroke-linejoin="bevel" stroke-width="1" stroke-linecap="square" fill="none">
  <g stroke="#000000" stroke-opacity="1" font-family="MS Shell Dlg 2" font-size="34.5833" font-weight="400" stroke-linejoin="bevel" stroke-width="1" stroke-linecap="square" font-style="normal" fill="none" transform="matrix(1,0,0,1,0,0)"/>
  <g stroke="#000000" stroke-opacity="1" font-family="MS Shell Dlg 2" font-size="34.5833" font-weight="400" stroke-linejoin="bevel" stroke-width="1" stroke-linecap="square" font-style="normal" fill="none" transform="matrix(1,0,0,1,0,0)"/>
  <g stroke="#000000" stroke-opacity="1" font-family="MS Shell Dlg 2" font-size="34.5833" font-weight="400" stroke-linejoin="bevel" stroke-width="1" stroke-linecap="square" font-style="normal" fill="none" transform="matrix(11.808,0,0,11.808,0,0)"/>
  <g stroke="#000000" stroke-opacity="1" font-family="MS Shell Dlg 2" font-size="34.5833" font-weight="400" stroke-linejoin="bevel" stroke-width="1" stroke-linecap="square" font-style="normal" fill="none" transform="matrix(0.999744,0,0,0.999744,0,0)"/>
  <g fill-opacity="0" stroke="none" font-family="MS Shell Dlg 2" font-size="34.5833" font-weight="400" font-style="normal" fill="#ffffff" transform="matrix(0.999744,0,0,0.999744,0,0)">
   <path fill-rule="evenodd" vector-effect="none" d="M-2,-2 L2955,-2 L2955,2955 L-2,2955 L-2,-2"/>
  </g>
  <g stroke="#000000" stroke-opacity="1" font-family="MS Shell Dlg 2" font-size="34.5833" font-weight="400" stroke-linejoin="bevel" stroke-width="1" stroke-linecap="square" font-style="normal" fill="none" transform="matrix(0.999744,0,0,0.999744,0,0)"/>
  <g stroke="#000000" stroke-opacity="1" font-family="MS Shell Dlg 2" font-size="34.5833" font-weight="400" stroke-linejoin="bevel" stroke-width="1" stroke-linecap="square" font-style="normal" fill="none" transform="matrix(11.808,0,0,11.808,0,0)"/>
  <g stroke="#000000" stroke-opacity="1" font-family="MS Shell Dlg 2" font-size="34.5833" font-weight="400" stroke-linejoin="bevel" stroke-width="1" stroke-linecap="square" font-style="normal" fill="none" transform="matrix(11.808,0,0,11.808,0,0)"/>
  <g stroke="#000000" stroke-opacity="1" font-family="MS Shell Dlg 2" font-size="34.5833" font-weight="400" stroke-linejoin="bevel" stroke-width="1" stroke-linecap="square" font-style="normal" fill="none" transform="matrix(11.808,0,0,11.808,0,0)"/>
  <g stroke="#000000" stroke-opacity="1" font-family="MS Shell Dlg 2" font-size="34.5833" font-weight="400" stroke-linejoin="bevel" stroke-width="1" stroke-linecap="square" font-style="normal" fill="none" transform="matrix(11.808,0,0,11.808,0,0)"/>
  <g stroke="#000000" stroke-opacity="1" font-family="MS Shell Dlg 2" font-size="34.5833" font-weight="400" stroke-linejoin="bevel" stroke-width="1" stroke-linecap="square" font-style="normal" fill="none" transform="matrix(11.808,0,0,11.808,0,0)"/>
  <g fill-opacity="0" stroke="none" font-family="MS Shell Dlg 2" font-size="34.5833" font-weight="400" font-style="normal" fill="#ffffff" transform="matrix(11.808,0,0,11.808,0,0)">
   <path fill-rule="evenodd" vector-effect="none" d="M0,0 L250,0 L250,250 L0,250 L0,0"/>
  </g>
  <g stroke="#000000" stroke-opacity="1" font-family="MS Shell Dlg 2" font-size="34.5833" font-weight="400" stroke-linejoin="bevel" stroke-width="1" stroke-linecap="square" font-style="normal" fill="none" transform="matrix(11.808,0,0,11.808,0,0)"/>
  <g stroke="#000000" stroke-opacity="1" font-family="MS Shell Dlg 2" font-size="34.5833" font-weight="400" stroke-linejoin="bevel" stroke-width="1" stroke-linecap="square" font-style="normal" fill="none" transform="matrix(11.808,0,0,11.808,0,0)"/>
  <g fill-opacity="0" stroke="none" font-family="MS Shell Dlg 2" font-size="34.5833" font-weight="400" font-style="normal" fill="#000000" transform="matrix(0.999744,0,0,0.999744,0,0)">
   <rect y="0" x="0" width="2953" height="2953"/>
  </g>
  <g stroke="#000000" stroke-opacity="1" font-family="MS Shell Dlg 2" font-size="34.5833" font-weight="400" stroke-linejoin="bevel" stroke-width="1" stroke-linecap="square" font-style="normal" fill="none" transform="matrix(0.999744,0,0,0.999744,0,0)"/>
  <g fill-opacity="1" stroke="#5c5c5c" stroke-opacity="1" font-family="MS Shell Dlg 2" font-size="34.5833" font-weight="400" stroke-linejoin="bevel" stroke-width="3.07087" stroke-linecap="square" font-style="normal" fill="#c5c5c5" transform="matrix(0.999744,0,0,0.999744,0,0)">
   <path fill-rule="evenodd" vector-effect="none" d="M950.611,2129.99 L948.875,2128.59 L947.539,2127.82 L945.543,2126.46 L943.822,2124.96 L942.454,2123.96 L941.566,2123.05 L941.22,2121.57 L941.016,2120.39 L941.59,2116.8 L941.629,2115.21 L940.765,2111.36 L940.372,2109.44 L940.38,2108 L941.071,2103.82 L941.134,2101.3 L940.568,2097.75 L939.688,2094.92 L938.305,2092 L935.319,2090.55 L935.476,2085.55 L935.979,2083.67 L936.733,2082.41 L936.277,2077.29 L935.664,2075.42 L934.281,2072.33 L933.574,2071.45 L932.678,2070.89 L928.796,2069.67 L927.185,2068.82 L921.857,2063.38 L920.207,2061.03 L919.806,2059.88 L918.501,2057.49 L915.877,2055.69 L914.949,2054.44 L909.543,2050.53 L908.152,2049.38 L906.399,2048.53 L905.433,2048.39 L904.356,2048.79 L903.531,2049.76 L900.278,2051.96 L897.598,2054.11 L896.199,2054.96 L893.755,2056.99 L891.421,2058.3 L889.629,2059.2 L885.425,2059.8 L883.759,2059.72 L881.346,2059.58 L880.089,2059.18 L876.828,2058.04 L875.044,2057.38 L874.069,2057.2 L873.299,2057.12 L871.838,2057.2 L870.085,2057.35 L867.044,2056.52 L866.124,2056.38 L862.407,2056.7 L859.35,2056.67 L858.785,2056.81 L855.602,2056.92 L854.926,2057.14 L853.37,2058.67 L851.971,2059.11 L850.525,2059.4 L848.128,2058.92 L846.085,2058.81 L843.539,2059.18 L838.384,2060.5 L836.993,2061.12 L835.775,2063.58 L835.02,2063.91 L833.81,2064.01 L832.553,2064.32 L831.901,2064.57 L830.887,2065.14 L830.18,2065.71 L829.252,2066.65 L827.633,2066.95 L825.904,2066.86 L824.121,2065.86 L821.213,2064.77 L820.812,2064.36 L820.883,2063.33 L821.221,2062.27 L821.237,2061.36 L820.977,2060.6 L818.03,2058.41 L817.386,2057.2 L816.765,2056.69 L815.453,2056.58 L814.297,2057 L812.569,2058.67 L810.989,2059.41 L809.629,2060.22 L808.514,2060.42 L807.288,2059.88 L805.928,2059.06 L804.537,2058.69 L802.887,2058.67 L801.087,2058.29 L798.612,2056.35 L797.488,2053.56 L797.119,2051.9 L796.317,2050.48 L794.415,2048.32 L791.83,2046.31 L790.73,2044.54 L789.59,2042.75 L788.844,2041.34 L788.388,2039.51 L785.74,2037.85 L784.38,2036.54 L783.021,2034.42 L781.59,2030.12 L780.962,2029.21 L779.83,2028.58 L777.182,2028.39 L776.074,2027.83 L772.836,2025.45 L771.712,2023.9 L771.413,2022.52 L772.231,2021.19 L772.624,2019.88 L772.081,2018.3 L770.848,2015.78 L769.952,2012.59 L768.773,2008.38 L767.696,2004.89 L767.421,2004.02 L767.138,2003.25 L766.73,2002.43 L765.394,2001.4 L764.113,2000.87 L762.604,2000.57 L760.891,2000.06 L760.089,1999.72 L758.746,1998.91 L757.59,1997.55 L755.72,1994.45 L753.834,1993.72 L752.27,1992.82 L751.5,1991.26 L750.416,1989.88 L749.111,1988.67 L748.097,1988.29 L746.416,1988.61 L744.404,1990.18 L741.213,1992.1 L738.046,1996.88 L737.182,1999.28 L735.917,2001.29 L735.398,2003.54 L735.186,2004.32 L734.502,2004.76 L731.013,2002.14 L727.901,2001.56 L725.669,2000.89 L722.958,2000.38 L720.97,1999.23 L720.019,1998.08 L717.496,2000.42 L715.814,2002.82 L713.488,2004.61 L711.909,2004.16 L707.571,2005.12 L705.202,2005.21 L702.286,2004.68 L699.614,2005.38 L698.137,2006.41 L695.598,2007.69 L694.372,2008.08 L692.84,2008.36 L691.229,2008.78 L688.361,2010.18 L686.514,2011.3 L684.329,2012.84 L683.708,2012.91 L682.2,2012.88 L681.359,2012.74 L680.188,2012.89 L679.119,2012.59 L677.87,2011.48 L676.934,2009.96 L676.408,2008.06 L676.667,2005.19 L678.003,1992.67 L678.396,1989.02 L677.665,1987.29 L676.691,1986.03 L674.577,1984.6 L671.284,1983.09 L669.296,1983.15 L666.828,1983.23 L666.137,1982.79 L665.744,1981.42 L665.618,1979.14 L666.184,1976.25 L665.665,1975.32 L664.644,1974.25 L663.072,1973.44 L660.447,1970.5 L659.929,1969.38 L657.854,1968.3 L657.123,1967.05 L654.137,1964.94 L650.577,1962.54 L648.227,1961.19 L645.304,1959.86 L643.426,1959.3 L638.121,1958.03 L635.237,1957.34 L634.145,1956.79 L632.872,1955.9 L631.481,1954.79 L630.569,1953.77 L629.21,1952.03 L620.691,1952.27 L619.536,1953.04 L617.728,1954.79 L615.339,1956.77 L614.286,1957.25 L612.715,1957.62 L611.206,1957.22 L607.717,1956.33 L606.176,1955.13 L605.076,1954.52 L603.929,1953.25 L600.157,1951.75 L596.872,1949.49 L595.473,1947.73 L593.304,1947.31 L592.392,1946.08 L592.094,1943.77 L591.559,1941.05 L589.846,1938.41 L588.133,1935.52 L586.451,1933.32 L584.392,1932.01 L581.202,1929 L579.803,1926.81 L580.416,1922.25 L581.312,1919.72 L581.218,1916.2 L580.18,1910.69 L578.593,1909.49 L577.65,1908.56 L577.571,1907.15 L579.347,1905.22 L579.992,1904.73 L579.787,1903.22 L578.671,1901 L577.481,1898.75 L578.314,1897.98 L578.833,1897.32 L579.076,1896.63 L579.21,1896.11 L579.245,1895.34 L579.135,1894.67 L578.593,1893.4 L577.076,1889.64 L576.227,1887.56 L575.567,1885.6 L575.339,1884.53 L575.277,1883.5 L575.434,1880.37 L575.536,1878.47 L575.528,1877.32 L575.261,1874.47 L575.072,1871.49 L575.151,1869.83 L575.339,1867.84 L576.078,1864.69 L576.392,1863.55 L577.06,1861.71 L577.06,1861.2 L576.99,1860.64 L576.723,1860.26 L576.675,1859.81 L576.927,1859.15 L577.948,1858.04 L578.585,1856.98 L578.711,1856.49 L578.609,1855.53 L578.239,1854.8 L577.815,1854.28 L577.587,1853.9 L576.99,1852.56 L576.825,1851.6 L576.895,1850.67 L576.935,1849.24 L576.99,1848.1 L577.163,1847.02 L577.32,1846.04 L577.367,1845.55 L577.336,1844.74 L577.147,1843.73 L576.62,1842.53 L576.29,1841.95 L575.591,1840.37 L575.159,1839.18 L574.703,1837.63 L574.522,1836.98 L573.76,1834.26 L573.414,1832.58 L573.194,1831.11 L573.123,1829.71 L573.108,1828.03 L573.281,1827.12 L573.791,1825.68 L574.444,1824.58 L575.104,1823.78 L575.968,1822.7 L576.353,1822.02 L576.668,1821.2 L576.73,1820.59 L576.715,1820.14 L576.518,1819.58 L576.196,1819.15 L575.756,1818.9 L575.064,1818.86 L574.302,1819.21 L573.917,1819.68 L573.587,1820.23 L572.44,1822.08 L572.055,1822.5 L571.363,1822.78 L570.868,1822.82 L570.2,1822.7 L569.626,1822.35 L569.241,1821.88 L568.95,1821.36 L568.668,1820.63 L568.306,1819.16 L568.094,1818.29 L567.897,1816.79 L567.835,1815.56 L568.149,1814.15 L568.888,1812.26 L569.501,1810.71 L569.917,1809.57 L570.263,1808.47 L570.404,1807.88 L570.404,1807.06 L570.341,1806.1 L570.066,1805.22 L569.697,1804.45 L569.06,1803.59 L568,1802.67 L566.742,1802.14 L566.011,1801.75 L564.636,1801.25 L563.324,1801.05 L560.935,1800.83 L560.133,1801.1 L559.622,1801.74 L559.387,1802.18 L559.167,1803.24 L559.214,1804.27 L559.457,1804.88 L559.646,1806.01 L559.63,1806.71 L559.505,1807.48 L559.237,1807.94 L558.884,1808.28 L558.137,1808.72 L556.809,1809.11 L555.473,1809.19 L554.381,1809.18 L552.118,1808.71 L550.899,1808.33 L549.532,1807.69 L548.581,1807.12 L547.756,1806.52 L546.255,1805.11 L545.1,1803.88 L543.505,1801.74 L543.112,1801.04 L542.035,1799.38 L541.674,1798.84 L541.163,1798.32 L540.982,1798.02 L540.833,1797.61 L540.809,1796.9 L540.691,1796.17 L540.33,1795.04 L540.086,1794.61 L539.591,1793.86 L539.065,1793.48 L538.617,1793.28 L538.114,1793.15 L537.65,1793.16 L537.178,1793.35 L536.809,1793.59 L536.4,1794.15 L535.882,1794.96 L535.544,1796.21 L535.19,1797.53 L534.892,1798.2 L534.672,1798.56 L534.232,1799.13 L533.768,1799.48 L533.171,1799.83 L532.707,1799.99 L531.921,1800.16 L530.365,1800.17 L528.903,1800.17 L527.08,1799.98 L525.658,1799.73 L524.809,1799.46 L523.929,1799.13 L523.065,1798.69 L522.672,1798.34 L520.448,1796.57 L519.803,1796.24 L519.214,1796.05 L518.719,1796.03 L518.074,1796.1 L517.493,1796.29 L515.827,1797.31 L515.096,1797.82 L514.397,1798.24 L513.438,1798.52 L512.738,1798.51 L511.795,1798.24 L510.986,1797.75 L509.234,1796.72 L508.259,1796.34 L507.607,1796.21 L505.784,1795.99 L504.77,1795.78 L504,1795.52 L503.403,1795.15 L501.964,1794.08 L501.218,1793.56 L500.118,1793.06 L499.19,1792.95 L497.469,1793.04 L496.385,1792.91 L495.481,1792.71 L494.271,1792.05 L491.332,1790.03 L490.515,1789.72 L489.611,1789.58 L488.904,1789.64 L488.141,1789.82 L487.544,1790.08 L486.797,1790.36 L485.705,1790.78 L484.935,1790.96 L484.267,1790.93 L483.568,1790.8 L482.845,1790.52 L480.809,1789.43 L477.721,1787.79 L473.076,1785.42 L471.992,1785.24 L469.493,1785.27 L468.888,1785.17 L468.212,1784.96 L467.662,1784.6 L467.12,1784.06 L466.829,1783.48 L466.633,1782.89 L466.672,1782.36 L466.805,1781.71 L466.994,1781.27 L467.552,1780.51 L468.393,1779.87 L469.517,1778.99 L470.727,1778.02 L471.458,1777.27 L472.259,1776.28 L472.723,1775.44 L473.289,1773.64 L473.407,1773.2 L473.399,1772.5 L473.328,1771.64 L473.187,1770.42 L472.959,1767.57 L472.754,1765.64 L472.558,1763.81 L472.228,1762 L471.803,1759.94 L471.835,1758.89 L472.165,1757.68 L472.66,1756.56 L473.163,1755.44 L473.352,1754.77 L473.501,1753.94 L473.501,1753.15 L473.414,1752.38 L473.155,1751.64 L472.817,1750.96 L471.898,1749.4 L471.23,1748.25 L470.837,1747.29 L470.688,1746.82 L470.577,1746.16 L470.562,1745.43 L470.845,1743.77 L471.316,1741.64 L471.332,1741.12 L471.552,1740.21 L471.528,1739.7 L471.56,1739.2 L471.465,1738.52 L471.293,1738.01 L471.041,1737.54 L470.719,1737.08 L470.09,1736.47 L469.493,1736.1 L468.943,1735.85 L468.016,1735.59 L466.609,1735.25 L465.878,1734.87 L464.896,1734.05 L464.267,1733.39 L463.434,1732.41 L463.143,1731.88 L462.9,1731.38 L462.412,1731.01 L462.035,1730.88 L461.289,1730.93 L460.432,1731.28 L459.536,1731.83 L458.931,1732.14 L458.412,1732.14 L457.666,1731.98 L457.069,1731.72 L456.456,1731.15 L455.591,1729.87 L455.466,1729.16 L455.521,1728.44 L455.717,1727.52 L456.377,1726.25 L457.092,1725.33 L457.65,1724.31 L457.902,1723.84 L458.098,1723.25 L458.341,1721.52 L458.351,1721.04 L458.225,1720.46 L457.586,1719.05 L456.748,1716.6 L456.287,1715.21 L455.904,1713.51 L455.721,1711.91 L455.752,1711.38 L455.836,1710.69 L456.041,1710 L457.209,1707.63 L457.848,1706.45 L458.063,1705.83 L458.126,1705.42 L458.12,1704.05 L458.189,1702.37 L458.199,1701.4 L458.424,1699.68 L458.765,1698.37 L459.184,1697.05 L459.64,1695.24 L459.692,1693.93 L459.519,1693.2 L459.352,1692.35 L459.048,1691.7 L458.634,1691 L457.387,1689.73 L456.633,1689.2 L455.139,1688.56 L451.561,1687.68 L450.471,1687.19 L447.967,1685.85 L446.773,1685.53 L446.406,1685.5 L445.704,1685.57 L442.98,1686.58 L440.643,1687.43 L439.669,1687.67 L438.6,1687.58 L437.636,1687.08 L436.693,1686.23 L436.158,1684.98 L435.897,1683.94 L435.184,1674.77 L434.828,1670.48 L434.713,1669.61 L434.398,1668.76 L433.822,1667.77 L433.214,1667.13 L431.119,1665.22 L429.872,1664.28 L429.138,1663.75 L427.566,1663.15 L425.534,1662.22 L424.549,1661.68 L423.302,1660.76 L421.458,1658.64 L420.882,1657.38 L420.777,1656.51 L420.724,1654.31 L421.091,1650.86 L421.416,1648.49 L421.804,1646.1 L422.406,1643.48 L419.105,1642.54 L417.611,1640.3 L410.994,1637.22 L404.409,1634.16 L399.662,1635.81 L397.575,1635.24 L396.654,1635.92 L395.304,1636.27 L394.418,1636.58 L394.09,1637.15 L394.201,1638.01 L393.916,1638.9 L393.892,1640.56 L393.507,1641.25 L393.9,1642.9 L394.383,1643.83 L395.364,1644.72 L395.448,1646.36 L394.395,1646.97 L392.887,1646.29 L391.481,1647.14 L391.436,1648.73 L392.477,1649.68 L393.074,1650.61 L391.618,1651.16 L391.169,1653.12 L390.415,1656 L387.306,1657.92 L385.682,1660.55 L383.669,1660.83 L381.612,1660.05 L379.159,1660.94 L374.401,1663.11 L371.059,1664.1 L369.327,1664.91 L367.869,1667.63 L365.984,1670.4 L360.414,1672.25 L355.388,1675.8 L352.139,1677.48 L351.015,1678.15 L348.655,1677.89 L347.945,1677.99 L346.478,1678.3 L345.597,1680.05 L343.831,1681.15 L333.005,1682.88 L326.065,1686.53 L325.656,1687.09 L325.753,1687.81 L325.985,1689.15 L324.7,1690.63 L321.739,1692.33 L319.436,1692.16 L317.181,1691.91 L316.572,1691.92 L311.974,1692.38 L306.062,1693.04 L302.094,1692.89 L298.36,1694.91 L296.881,1696.74 L294.943,1700.72 L294.494,1700.95 L293.292,1700.42 L291.843,1699.87 L290.073,1700.06 L288.629,1700.81 L288.129,1702.69 L288.557,1706.62 L287.584,1712.02 L286.962,1712.06 L283.111,1712.69 L278.793,1712.88 L273.814,1711.56 L271.407,1711.79 L270.129,1712.85 L268.446,1714.34 L266.414,1713.84 L265.14,1712.69 L262.339,1711.25 L260.783,1710.7 L259.383,1712.8 L258.41,1713.15 L257.36,1712.53 L257.515,1711.13 L257.321,1708.76 L253.937,1707.4 L253.275,1708.6 L250.786,1706.89 L247.052,1707.67 L246.079,1707.4 L245.612,1704.4 L243.94,1701.68 L242.15,1702.73 L239.661,1702.26 L230.831,1705.57 L227.407,1705.68 L215.543,1703.54 L206.741,1704.83 L203.755,1702.11 L202.153,1702.58 L201.262,1704.3 L199.787,1705.88 L197.499,1704.99 L196.829,1705.11 L194.239,1708.45 L192.34,1709.6 L190.621,1709.58 L189.671,1708.78 L187.079,1705.73 L183.127,1704.11 L181.176,1704.8 L179.174,1705.03 L176.018,1706.65 L175.119,1709.83 L172.81,1709.63 L172.04,1708.55 L172.553,1707.11 L171.167,1706.88 L170.141,1707.32 L169.319,1708.14 L169.345,1708.68 L170.166,1709.17 L170.602,1710.86 L170.56,1712.7 L170.247,1713.29 L169.892,1713.32 L168.882,1712.46 L166.819,1711.59 L165.026,1711.24 L164.163,1711.41 L163.376,1711.99 L163.537,1712.68 L164.362,1714.08 L164.531,1714.88 L164.05,1715.26 L162.318,1715.25 L160.791,1714.59 L159.734,1713.68 L159.208,1713.07 L158.868,1711.61 L158.334,1710.82 L157.759,1710.68 L155.484,1711.16 L154.006,1710.98 L152.918,1711.93 L152.589,1711.99 L152.4,1711.75 L152.464,1711.26 L152.527,1710.78 L152.079,1709.89 L151.317,1709.55 L150.336,1709.83 L149.593,1710.46 L148.954,1711.62 L148.743,1712.5 L146.786,1713.07 L144.963,1713.04 L142.267,1712.61 L140.643,1712.84 L138.885,1713.75 L136.532,1715.28 L134.367,1715.73 L129.381,1715.06 L124.519,1714.86 L121.096,1712.53 L110.826,1708.76 L103.708,1707.51 L100.246,1709.22 L96.8613,1709.92 L90.4819,1707.04 L86.1169,1705.01 L85.4495,1704.01 L85.4752,1702.88 L86.0655,1701.18 L85.7928,1700.47 L84.9618,1700.18 L83.2904,1700.38 L78.4744,1699.45 L75.2686,1700.37 L74.5909,1698.96 L75.3095,1696.18 L73.0134,1694.35 L74.3092,1686.39 L79.3137,1677.46 L85.927,1674.46 L86.3649,1671.72 L87.8261,1662.56 L87.3236,1659.84 L88.9997,1657.59 L87.0857,1655.16 L87.0966,1654.88 L86.9918,1654.68 L86.7431,1654.47 L86.4991,1654.33 L86.225,1654.15 L85.6764,1653.85 L85.4353,1653.7 L85.0376,1653.49 L84.7707,1653.24 L84.5253,1652.95 L84.4854,1652.68 L84.5916,1652.39 L84.8882,1652.21 L85.2113,1652.09 L85.5093,1652.02 L85.7261,1651.82 L85.8443,1651.55 L85.3012,1649.04 L85.3962,1644.02 L85.067,1643.68 L84.6703,1643.01 L84.6315,1642.69 L84.5032,1642.43 L84.394,1642.03 L84.4176,1641.62 L84.8812,1641.38 L85.282,1641.46 L85.895,1641.83 L86.2015,1641.71 L87.1681,1640.57 L87.6003,1639.93 L87.7103,1639.43 L87.4117,1638.62 L87.3645,1637.63 L87.5964,1637.02 L87.6278,1636.29 L88.5237,1635.3 L89.2231,1634.64 L89.3488,1634.35 L89.4431,1632.88 L89.3645,1632.52 L87.7771,1631.77 L87.6671,1631.54 L87.9028,1631.35 L89.2231,1630.45 L89.9696,1629.78 L90.284,1629.7 L91.0227,1629.65 L91.5649,1629.39 L92.5001,1628.54 L92.8223,1628.39 L93.2859,1628.7 L94.6219,1629.82 L94.8812,1629.88 L95.1012,1629.75 L95.2898,1629.31 L95.6042,1628 L96.2407,1626.99 L97.1602,1626.41 L97.3645,1626.09 L97.2859,1625.73 L97.0109,1625.19 L96.7044,1624.9 L96.4136,1624.81 L95.6985,1624.83 L94.8891,1624.66 L93.7024,1624.26 L93.2073,1623.89 L92.8458,1623.3 L92.9009,1622.79 L93.0737,1622 L93.3409,1621.26 L93.6396,1620.45 L93.7889,1619.55 L93.6238,1619.1 L93.7339,1618.74 L93.9853,1618.4 L96.1205,1617.51 L96.3827,1617.3 L96.7424,1617.04 L97.4225,1616.85 L97.8692,1616.79 L98.3242,1616.78 L99.3612,1616.61 L99.7067,1616.27 L99.9576,1615.8 L99.83,1615.39 L99.5914,1615.03 L99.4525,1614.77 L99.4562,1614.63 L99.4609,1614.46 L99.7372,1614.16 L100.148,1613.87 L100.25,1613.81 L100.587,1613.62 L100.696,1613.58 L101,1613.47 L101.645,1613.33 L101.938,1613.14 L102.104,1612.72 L102.129,1612.12 L102.199,1611.72 L102.341,1611.42 L102.588,1611.35 L102.951,1611.42 L103.287,1611.31 L103.533,1610.96 L103.734,1610.5 L104.009,1609.84 L104.207,1609.51 L104.53,1609.27 L104.925,1609.14 L105.375,1609.09 L105.981,1609.14 L106.428,1609.28 L106.808,1609.45 L107.163,1609.39 L107.564,1609.11 L107.726,1608.43 L108.001,1608.21 L108.333,1608 L108.665,1607.46 L108.622,1606.83 L108.286,1605.99 L108.244,1605.57 L108.367,1605.16 L108.645,1604.71 L109.281,1604.08 L110.045,1603.36 L110.563,1602.9 L110.976,1602.11 L111.257,1601.55 L111.936,1600.83 L112.363,1600.61 L112.781,1600.4 L113.262,1600.08 L113.742,1599.84 L114.09,1599.69 L114.311,1599.44 L114.279,1598.9 L113.982,1598.6 L113.543,1598.34 L113.268,1598.1 L113.205,1597.73 L113.311,1597.39 L113.665,1597.21 L114.174,1597.22 L114.648,1597.21 L115.13,1597.15 L115.47,1596.99 L115.684,1596.71 L115.763,1596.46 L115.608,1596.11 L115.416,1595.85 L115.148,1595.59 L114.845,1595.38 L114.551,1595.16 L114.429,1594.87 L114.388,1594.56 L114.542,1594.29 L115.009,1594.01 L115.611,1593.82 L116.35,1593.59 L116.768,1593.59 L117.113,1593.92 L117.36,1594.4 L117.545,1594.69 L117.764,1594.81 L117.892,1594.59 L117.791,1594.24 L117.644,1593.84 L117.336,1593.46 L117.046,1593.09 L116.882,1592.48 L116.781,1591.3 L116.769,1590.75 L116.874,1590.2 L117.124,1589.81 L117.473,1589.57 L117.627,1589.15 L117.39,1588.81 L116.931,1588.64 L116.371,1588.47 L115.76,1588.17 L115.358,1587.9 L115.02,1587.4 L114.949,1587.05 L115.13,1586.82 L115.563,1586.75 L116.09,1586.97 L116.763,1587.12 L117.468,1587.03 L117.941,1586.56 L118.028,1585.78 L117.892,1584.84 L117.775,1584.12 L117.542,1583.53 L116.998,1582.74 L116.764,1582.11 L116.907,1581.57 L117.244,1581.14 L117.451,1580.49 L117.672,1580.04 L118.151,1579.88 L118.882,1579.8 L119.167,1579.48 L119.254,1579.17 L119.138,1578.65 L119.372,1577.96 L119.489,1577.65 L119.45,1577.15 L119.191,1576.74 L119.088,1576.37 L119.172,1575.81 L119.497,1575.36 L119.875,1574.97 L120.319,1574.68 L120.857,1574.63 L121.466,1574.59 L122.023,1574.63 L122.514,1574.71 L122.872,1574.85 L123.072,1574.84 L123.15,1574.67 L123.154,1574.53 L123.233,1574.37 L123.336,1574.3 L123.444,1574.21 L123.589,1574.12 L123.762,1573.99 L123.943,1573.86 L124.478,1573.19 L125.225,1572.01 L125.297,1570.9 L125.386,1569.94 L125.598,1568.98 L126.421,1568.61 L127.009,1568.89 L128.681,1568.99 L129.396,1568.98 L129.852,1568.61 L128.92,1567.4 L129.76,1566.47 L130.102,1566.26 L130.377,1566.15 L130.848,1566.01 L131.246,1565.98 L131.497,1565.99 L132.451,1565.95 L133.054,1566.02 L133.425,1566.17 L133.738,1566.4 L134.034,1566.4 L134.334,1566.24 L134.507,1566.04 L134.579,1565.76 L134.51,1565.5 L134.254,1565.29 L133.763,1564.88 L133.369,1564.65 L133.005,1564.34 L132.897,1564.03 L132.954,1563.73 L133.068,1563.47 L133.239,1563.34 L133.985,1563.25 L134.42,1563.07 L134.833,1562.7 L135.066,1562.36 L135.152,1561.97 L135.197,1561.52 L135.221,1561.14 L135.219,1560.78 L135.195,1560.37 L135.225,1559.97 L135.325,1559.75 L135.603,1559.72 L136.517,1559.9 L137.363,1559.91 L137.922,1559.83 L138.376,1559.58 L138.847,1559.07 L139.053,1558.67 L139.389,1558.17 L139.635,1557.84 L140.07,1557.39 L140.53,1557.15 L141.1,1557.19 L141.638,1557.54 L142.218,1557.66 L142.781,1557.48 L143.412,1557.2 L143.825,1556.94 L144.226,1556.5 L144.562,1556.03 L145.003,1555.6 L145.554,1555.37 L145.896,1555.2 L146.928,1555.08 L147.37,1554.95 L148.197,1554.83 L150.011,1554.33 L151.163,1554.04 L153.138,1553.32 L155.467,1553.12 L156.01,1552.93 L156.244,1552.58 L155.556,1552.04 L155.569,1551.61 L155.864,1551.21 L156.609,1550.5 L157.675,1549.99 L158.919,1549.79 L159.787,1550.28 L160.753,1551.06 L161.296,1551.16 L162.014,1550.89 L163.017,1550.37 L164.366,1549.99 L165.646,1549.82 L166.375,1550 L166.71,1550.74 L166.954,1551.32 L167.378,1551.34 L167.794,1551.06 L168.477,1550.68 L169.499,1550.26 L170.399,1550.18 L171.234,1549.6 L171.549,1548.68 L172.32,1548.12 L173.273,1547.44 L174.038,1547.48 L174.959,1548.14 L175.597,1548.44 L175.99,1548.34 L176.268,1547.76 L176.431,1546.85 L176.973,1546.34 L178.17,1545.87 L179.245,1545.89 L180.699,1546.04 L181.91,1546.95 L182.828,1547.91 L184.013,1548.09 L185.013,1548.4 L185.339,1548.67 L186.344,1548.24 L186.951,1547.5 L187.395,1545.77 L188.144,1545.27 L189.819,1545.25 L191.614,1545.65 L193.218,1545 L193.659,1544.99 L193.985,1545.38 L194.301,1545.61 L194.873,1545.76 L195.413,1545.29 L196.457,1544.24 L197.472,1543.59 L198.712,1543.35 L199.977,1543.15 L200.878,1542.61 L202.853,1541.92 L203.21,1541.54 L203.328,1539.98 L204.286,1538.85 L205.191,1537.02 L205.855,1535.56 L207.547,1535.06 L210.043,1534.92 L211.523,1535.47 L213.279,1535.83 L216.287,1535.15 L219.425,1533.29 L221.631,1532.78 L223.429,1532.56 L225.82,1532.88 L227.072,1532.19 L227.827,1530.88 L228.701,1530.35 L229.665,1529.06 L229.682,1527.32 L230.793,1524.37 L230.908,1524.06 L231.49,1522.5 L231.754,1522.05 L232.094,1521.7 L232.319,1521.43 L232.514,1521.21 L233.186,1520.43 L234.05,1519.41 L234.497,1518.92 L234.684,1518.49 L235.27,1517.5 L236.408,1515.72 L238.958,1513.58 L242.282,1511.59 L244.638,1511.49 L247.648,1512.63 L249.047,1512.41 L250.659,1511.43 L252.726,1509.59 L253.958,1507.99 L255.064,1507.97 L255.694,1507.43 L255.769,1506.3 L256.959,1504.92 L258.355,1502.87 L259.303,1501.43 L261.115,1500.64 L263.701,1498.79 L267.554,1496.26 L269.704,1495.24 L272.73,1494.62 L283.286,1488.96 L283.734,1484.15 L284.57,1482.3 L286.106,1480.01 L287.624,1477.42 L289.782,1474.83 L291.766,1473.14 L292.243,1470.37 L293.575,1467.56 L293.497,1466.32 L293.867,1462.48 L294.781,1460.73 L294.834,1459.21 L294.459,1457.46 L294.003,1455.93 L295.773,1454.45 L296.765,1450.13 L296.492,1446.09 L296.454,1444.45 L297.037,1441.79 L297.967,1440.01 L299.637,1434.66 L300.616,1433.31 L305.195,1431.51 L307.989,1431.38 L311.022,1431.71 L313.005,1429.75 L314.075,1427.45 L315.3,1426.36 L316.117,1425.84 L318.237,1425.92 L319.035,1426.17 L321.489,1425.21 L322.672,1424.52 L323.932,1423.49 L326.231,1422.1 L327.709,1420.84 L329.382,1419.87 L330.199,1418.97 L330.782,1418.68 L331.988,1418.37 L330.046,1415.9 L326.91,1410.68 L325.162,1406.38 L324.407,1402.35 L324.546,1398.32 L325.778,1387.29 L329.319,1383.08 L334.503,1379.74 L340.663,1377.64 L342.665,1376.2 L343.486,1373.53 L345.949,1367.32 L349.234,1363.27 L354.47,1361.01 L368.809,1355.13 L374.488,1352.8 L384.644,1338.68 L386.499,1336.74 L389.637,1335.09 L394.809,1332.38 L395.388,1328.73 L395.107,1326.56 L394.312,1323.45 L395.153,1320.71 L397.372,1318.94 L396.914,1318.3 L392.848,1315.83 L392.819,1314.47 L393.244,1313.43 L395.339,1312.77 L395.99,1312.02 L398.562,1304.43 L398.81,1302.73 L398.465,1300.99 L394.661,1299.36 L389.774,1298.79 L387.879,1298.99 L385.48,1299.63 L384.448,1299.54 L382.025,1298.99 L380.455,1298.93 L378.711,1297.46 L375.9,1296.45 L368.618,1294.57 L366.531,1293.73 L364.621,1292.24 L362.429,1290.12 L358.539,1284.33 L357.843,1283.82 L357.159,1283.7 L353.458,1283.29 L351.042,1282.69 L347.582,1280.46 L345.961,1279.64 L345.519,1279.58 L344.664,1279.58 L341.723,1279.72 L339.973,1280.13 L337.214,1280.28 L336.501,1280.15 L333.507,1279.34 L332.729,1279.06 L331.173,1277.91 L330.024,1276.98 L329.635,1276.81 L328.757,1276.64 L327.383,1277.11 L326.004,1277.89 L325.191,1278.13 L324.737,1277.99 L324.283,1277.47 L323.818,1276.82 L322.987,1275.78 L322.203,1275.32 L318.077,1273.42 L316.745,1272.95 L315.295,1272.53 L314.222,1272.04 L312.059,1271.98 L310.327,1272.19 L309.242,1272.66 L307.562,1273.55 L306.507,1273.91 L303.325,1274.65 L301.769,1274.41 L300.348,1274.23 L299.771,1274.31 L298.951,1274.13 L298.191,1274.12 L297.124,1274.6 L293.776,1275.49 L290.217,1276.84 L289.48,1277.18 L289.268,1277.07 L288.914,1276.65 L287.9,1276.41 L287.158,1276.32 L286.008,1276.41 L285.107,1275.23 L284.688,1275.19 L283.692,1274.71 L282.955,1274.53 L281.222,1274.56 L280.427,1274.45 L279.908,1274.3 L279.148,1274.4 L278.665,1274.4 L276.82,1273.74 L276.26,1273.63 L275.83,1273.72 L275.541,1273.46 L273.148,1271.94 L271.041,1270.25 L268.89,1267.66 L268.657,1267.14 L268.651,1265.51 L268.238,1264.36 L266.883,1261.66 L266.47,1261.58 L266.022,1261.16 L265.162,1259.94 L264.725,1259.68 L263.983,1259.84 L262.934,1259.47 L262.191,1259.4 L261.472,1258.81 L259.928,1258.23 L260.641,1257.14 L260.388,1256.81 L258.618,1256.02 L257.714,1255.38 L257.315,1254.79 L257.12,1254.09 L257.179,1253.17 L256.508,1251.43 L256.362,1249.82 L253.438,1246.9 L252.321,1245.25 L252.174,1243.66 L252.307,1242.58 L252.545,1241.67 L252.545,1241.23 L252.848,1240.32 L252.391,1239.89 L249.356,1238.88 L248.297,1239.04 L247.908,1238.86 L247.81,1237.73 L248.267,1236.25 L246.741,1230.2 L246.575,1229.85 L246.118,1229.77 L245.093,1230.77 L244.052,1230.63 L243.675,1230.16 L242.93,1228.91 L242.506,1228.12 L241.291,1227.86 L241.126,1226.67 L241.268,1225.61 L241.586,1224.18 L242.706,1225.47 L244.415,1225.83 L245.276,1226.84 L246.156,1226.92 L246.77,1227.15 L247.495,1227.09 L247.948,1227.17 L248.339,1227.35 L248.553,1227.44 L249.416,1227.84 L249.744,1227.93 L249.987,1228 L251.079,1228.3 L252.604,1228.54 L253.541,1228.54 L253.953,1228.44 L254.148,1228.45 L254.215,1228.62 L254.428,1228.96 L254.972,1229.21 L255.444,1229.36 L256.097,1229.47 L256.928,1229.99 L257.641,1230.72 L259.244,1231.01 L259.639,1231.33 L260.187,1232.06 L260.9,1232.25 L261.555,1232.1 L262.739,1232.62 L263.647,1233.75 L264.242,1233.99 L265.067,1234.02 L266.052,1235.08 L267.289,1236.33 L268.026,1236.64 L268.763,1236.9 L269.152,1236.79 L269.712,1235.81 L270.454,1235.47 L272.739,1233.79 L274.125,1231.53 L274.946,1229.73 L276.332,1229.22 L277.327,1228.9 L278.195,1228.7 L278.685,1228.71 L279.757,1229.18 L280.776,1229.22 L281.444,1228.99 L282.225,1228.46 L282.794,1228.06 L283.756,1228.52 L286.283,1230.08 L287.167,1230.95 L287.354,1231.28 L287.425,1232.08 L287.513,1232.75 L287.779,1233.42 L288.185,1233.94 L288.986,1234.66 L290.207,1235.4 L292.185,1236.52 L292.677,1236.71 L293.157,1236.81 L294.451,1236.92 L295.023,1236.95 L296.004,1237.28 L297.015,1237.41 L298.218,1237.42 L304.344,1234.12 L309.399,1231.38 L317.857,1226.88 L322.941,1224.14 L327.9,1221.49 L331.016,1219.8 L336.068,1217.1 L336.043,1216.05 L336.282,1215.05 L336.049,1214.11 L335.764,1212.71 L335.148,1210.64 L334.708,1209.86 L334.449,1209.73 L330.316,1207.77 L331.261,1204.98 L332.835,1199.72 L332.845,1199.59 L332.812,1199.43 L332.709,1199.28 L332.569,1199.18 L328.026,1196.33 L328.741,1195.57 L329.523,1190.98 L330.475,1188.19 L330.851,1187.29 L331.253,1186.27 L331.829,1185.27 L332.081,1184.81 L333.553,1182.64 L334.682,1181.05 L337.06,1177.48 L372.804,1125.19 L373.069,1120.72 L373.339,1115.83 L373.524,1113.02 L374.008,1104.19 L374.145,1103.79 L374.187,1103.38 L374.112,1102.67 L371.712,1094.44 L371.186,1092.89 L370.717,1091.9 L370.408,1091.26 L369.851,1089.92 L369.095,1088.02 L368.719,1087.05 L367.836,1084.55 L363.864,1074.12 L363.353,1072.58 L362.17,1069.02 L361.695,1067.81 L362.095,1067.78 L363.91,1067.27 L364.721,1066.97 L367.455,1065.82 L370.103,1064.67 L371.274,1064.24 L371.809,1064.1 L373.113,1063.97 L375.465,1063.84 L504.585,1054.39 L505.385,1053.68 L511.032,1048.39 L511.452,1048.14 L511.85,1047.38 L512.659,1044.78 L512.809,1041.13 L512.889,1040.67 L513.411,1040.17 L515.099,1038.86 L515.621,1038.21 L516.611,1036.85 L518.043,1035.35 L518.512,1034.93 L519.643,1034.1 L521.659,1033.08 L521.889,1032.84 L522.022,1032.48 L521.977,1031.9 L521.818,1031.5 L520.519,1028.65 L520.448,1028.14 L524.55,1028.66 L549.967,1031.84 L550.063,1031.72 L550.127,1031.49 L550.102,1031.13 L550.043,1030.89 L550.085,1030.73 L550.246,1030.6 L550.637,1030.53 L551.185,1030.2 L551.687,1029.82 L552.319,1029.04 L552.527,1028.59 L554.111,1027.09 L557.095,1022.75 L562.558,1019.5 L565.604,1016.31 L567.774,1016.02 L571.929,1014.63 L573.73,1015.19 L574.482,1018.34 L576.099,1019.1 L577.01,1018.44 L578.565,1017.12 L581.515,1017.81 L582.166,1016.66 L585.997,1015.19 L586.667,1012.84 L590.601,1013.01 L592.012,1012.37 L592.215,1010.61 L592.743,1010.07 L596.806,1009.69 L599.269,1009.02 L611.586,1002.65 L613.371,1001 L615.259,999.782 L617,1000.12 L618.372,1001.65 L618.859,1003.71 L619.325,1008.74 L620.903,1011.37 L626.04,1014.55 L629.592,1016.33 L633.538,1016.68 L635.641,1017.6 L637.793,1020.09 L638.597,1021.52 L641.079,1023.28 L643.216,1023.71 L644.122,1023.89 L646.095,1024.5 L647.789,1024.49 L649.639,1024.44 L651.345,1024.96 L653.195,1024.82 L654.814,1025.64 L656.806,1024.82 L662.125,1024.8 L664.225,1024.07 L666.128,1024.75 L667.623,1024 L669.152,1024.98 L672.977,1025.3 L673.493,1023.86 L674.809,1023.61 L676.66,1024.37 L679.88,1024.48 L682.228,1021.88 L686.141,1019.43 L690.925,1019.34 L691.568,1019.32 L695.001,1017.33 L701.37,1012.92 L702.117,1005.91 L709.925,1000.75 L713.467,993.777 L719.907,990.29 L727.521,989.649 L732.269,989.112 L738.088,985.273 L738.242,984.275 L738.157,983.506 L737.959,982.687 L737.892,981.66 L737.758,980.654 L737.735,979.559 L737.847,978.755 L738.115,977.862 L738.763,976.61 L739.098,975.695 L739.232,974.734 L739.925,972.991 L740.171,972.366 L740.863,971.673 L741.377,971.025 L742.583,970.132 L743.991,969.908 L745.823,969.618 L748.035,968.545 L756.837,963.764 L757.396,962.535 L758.2,961.664 L761.249,961.443 L761.961,961.372 L763.597,962.163 L766.016,963.026 L769.765,963.44 L771.355,962.962 L773.491,962.965 L776.124,963.183 L779.826,963.475 L783.295,963.788 L785.519,964.2 L786.871,964.416 L787.52,963.969 L788.012,963.63 L791.334,962.299 L794.708,960.343 L797.995,959.05 L800.578,958.477 L802.176,957.269 L808.258,954.415 L811.303,954.062 L814.221,954.639 L816.403,954.809 L819.633,953.572 L822.151,953.52 L824.117,953.193 L827.864,953.345 L830.736,953.642 L834.937,954.239 L838.922,954.961 L844.047,955.399 L847.28,956.266 L850.952,957.259 L852.799,957.919 L855.362,957.852 L858.737,956.052 L862.961,953.799 L868.818,952.16 L871.106,952.147 L871.559,952.159 L873.841,952.216 L878.31,952.321 L883.86,951.41 L885.111,951.161 L886.738,950.701 L888.228,950.116 L891.934,950.002 L897.07,950.917 L898.97,950.687 L902.16,949.423 L903.015,948.197 L904.163,943.549 L905.067,941.946 L905.222,940.87 L904.679,939.306 L904.163,938.622 L901.339,931.643 L901.3,930.351 L901.437,929.059 L903.363,923.94 L903.139,922.572 L902.55,921.677 L898.808,919.081 L896.711,916.479 L893.457,909.796 L892.208,908.967 L889.28,908.12 L887.626,907.387 L885.196,902.918 L883.251,900.917 L881.209,899.698 L877.842,895.756 L877.394,894.667 L875.382,889.447 L873.269,883.762 L871.297,880.514 L870.406,875.994 L869.221,869.834 L867.807,864.256 L867.598,860.212 L867.244,856.585 L868.335,853.213 L870.425,847.938 L872.52,844.516 L874.852,842.862 L874.997,840.957 L874.225,835.701 L875.211,834.307 L874.127,829.627 L871.949,826.905 L870.782,822.237 L868.603,819.747 L868.525,817.335 L868.059,815.702 L866.58,813.679 L863.858,812.745 L862.457,810.489 L861.524,808.155 L859.734,804.032 L858.1,800.609 L856.156,797.419 L854.599,794.229 L852.188,790.495 L846.73,786.33 L843.123,782.723 L842.84,778.762 L841.496,775.509 L838.95,771.831 L837.606,761.788 L839.092,754.079 L843.972,744.177 L843.63,733.235 L844.097,730.434 L842.696,727.167 L842.463,724.444 L844.175,721.488 L844.33,718.687 L843.941,716.353 L841.063,714.952 L834.994,712.385 L830.326,706.55 L828.615,702.971 L827.059,699.004 L827.059,693.869 L824.958,690.213 L823.402,684.378 L822.002,680.877 L819.512,677.843 L817.568,676.676 L815.389,675.975 L813.211,674.186 L808.309,666.484 L804.886,665.006 L802.552,663.528 L800.452,660.26 L799.752,657.693 L799.752,654.425 L798.507,651.624 L796.795,648.357 L791.505,641.744 L784.192,633.264 L779.446,629.452 L773.378,622.372 L769.799,620.894 L764.353,619.416 L759.841,618.638 L755.173,616.615 L752.061,613.425 L747.704,606.657 L744.359,603.623 L741.947,602.145 L734.556,599.266 L728.255,594.287 L721.797,588.53 L714.542,583.84 L708.176,574.787 L702.659,572.737 L694.031,571.816 L691.131,564.602 L689.434,562.763 L685.402,563.47 L681.159,567.572 L677.057,566.794 L673.662,563.046 L671.54,558.59 L670.903,554.7 L662.066,553.962 L659.117,554.23 L657.374,553.202 L656.57,551.147 L655.721,550.209 L653.844,550.03 L651.923,548.466 L650.046,545.74 L648.482,544.668 L647.007,545.249 L645.622,545.338 L642.941,543.819 L641.958,542.3 L641.958,540.557 L641.556,539.038 L640.35,537.429 L639.456,535.999 L639.277,534.659 L640.037,533.809 L641.154,533.809 L642.137,533.273 L642.34,532.015 L643.161,530.216 L642.482,528.923 L640.873,528.438 L640.122,526.801 L640.122,525.179 L641.069,523.527 L641.615,522.451 L639.908,520.732 L639.539,519.023 L639.695,513.577 L639.183,511.188 L640.662,502.576 L638.761,501.207 L638.886,496.78 L635.089,491.641 L634.965,486.129 L633.471,479.89 L631.853,474.857 L627.247,469.076 L625.761,465.233 L625.146,455.539 L621.334,446.67 L622.424,430.955 L620.479,421.619 L619.467,405.592 L618.222,395.712 L610.862,381.248 L605.682,371.124 L604.269,362.412 L604.201,357.756 L600.973,353.23 L599.689,349.939 L598.56,346.946 L597.383,345.121 L595.303,342.727 L594.42,340.951 L594.106,338.351 L594.086,332.513 L593.743,331.169 L593.124,329.952 L593.075,327.234 L592.83,325.998 L592.045,324.82 L588.346,321.984 L587.816,321.003 L587.796,318.825 L587.689,317 L586.59,312.378 L584.921,310.485 L583.695,308.601 L583.245,305.992 L583.258,302.852 L631.39,326.526 L709.769,365.113 L782.587,400.946 L840.266,429.317 L971.471,493.904 L1042.98,529.117 L1167.55,590.462 L1273.4,641.99 L1336.59,672.486 L1388.88,697.738 L1395.83,702.384 L1399.27,704.55 L1405.86,705.948 L1413.65,706.029 L1415.55,705.542 L1421.35,705.336 L1423.8,705.422 L1425.8,706.259 L1428.29,706.807 L1431.66,703.455 L1434.67,702.063 L1438.96,698.902 L1441.89,697.773 L1444.3,696.193 L1446.97,695.102 L1449.49,694.613 L1452.88,695.328 L1455.48,695.591 L1456.76,696.156 L1458.45,696.645 L1460.44,697.811 L1462.4,699.655 L1465.6,702.063 L1468.04,703.004 L1472.18,703.756 L1475.79,704.847 L1480.61,707.745 L1485.39,711.733 L1491.03,715.082 L1494.5,717.189 L1497.92,720.613 L1499.54,721.365 L1501.04,722.494 L1503.49,724.902 L1504.84,726.257 L1505.9,727.084 L1508.45,728.025 L1511.24,731.111 L1512.86,733.029 L1515.6,735.362 L1517.41,736.378 L1521.51,737.356 L1524.45,736.604 L1525.65,736.604 L1526.26,736.561 L1527.9,737.377 L1530.17,738.489 L1534.29,740.19 L1538.8,743.313 L1541,745.337 L1543.29,746.297 L1546.45,747.73 L1552.44,750.987 L1555.65,751.645 L1559.03,751.732 L1560.54,751.508 L1563.18,748.731 L1565.15,747.851 L1566.94,748.239 L1570.73,747.801 L1571.92,748.663 L1575.58,752.998 L1578.28,752.32 L1586.01,752.05 L1588.71,752.05 L1590.81,752.93 L1595.42,756.181 L1599.75,758.145 L1601.24,758.687 L1602.73,759.974 L1606.27,765.38 L1607.2,768.711 L1607.47,771.623 L1607.75,773.993 L1608.9,775.341 L1611.27,774.874 L1611.67,774.942 L1615.13,776.431 L1617.63,778.328 L1624.88,782.527 L1627.93,784.83 L1631.52,786.185 L1633.62,785.101 L1633.96,782.798 L1634.9,780.563 L1637.95,779.276 L1639.37,780.089 L1640.05,780.292 L1644.52,785.236 L1647.3,787.539 L1650.41,788.69 L1652.85,789.232 L1655.15,790.451 L1657.59,791.196 L1660.71,790.587 L1662.67,790.384 L1664.64,791.67 L1667.75,796.614 L1667.82,796.682 L1671.61,799.933 L1676.62,801.897 L1677.71,802.981 L1678.39,805.013 L1681.5,805.081 L1684.96,807.044 L1690.31,810.092 L1692.27,809.618 L1697.69,806.909 L1698.77,807.044 L1700.8,808.399 L1702.02,810.295 L1703.11,812.463 L1706.42,814.224 L1705.95,816.797 L1706.09,818.287 L1707.17,819.507 L1708.73,820.929 L1708.73,822.825 L1707.64,825.534 L1707.64,827.972 L1708.8,829.598 L1712.52,828.243 L1714.15,826.618 L1718.68,824.044 L1719.83,824.857 L1723.29,828.175 L1726.2,831.02 L1726.47,832.781 L1725.32,834.407 L1724.37,836.506 L1724.64,837.658 L1725.59,838.47 L1727.62,840.095 L1729.45,843.414 L1729.45,843.482 L1731.35,845.92 L1733.25,847.817 L1734.13,847.41 L1734.33,845.852 L1734.67,844.159 L1736.43,842.534 L1739.95,843.346 L1745.37,846.123 L1747.47,846.936 L1750.24,847.478 L1752.68,848.02 L1754.04,848.765 L1755.12,852.693 L1756.05,854.927 L1778.26,889.078 L1778.54,890.238 L1781.26,891.337 L1783.2,892.867 L1783.83,895.012 L1824.28,912.838 L1829.67,912.851 L2020.88,912.924 L2098.91,912.995 L2386.99,912.953 L2408.66,912.917 L2603.75,913.105 L2636.5,913.106 L2738.08,913.389 L2887.34,913.724 L2886.82,914.718 L2885.49,916.022 L2883.98,917.09 L2880.95,918.505 L2879.57,918.89 L2877.74,919.685 L2876.11,919.834 L2873.98,920.592 L2871.93,922.082 L2870.55,923.435 L2868.58,925.621 L2866.74,928.452 L2865.55,930.353 L2863.36,934.749 L2861.65,937.121 L2860.52,939.139 L2858.51,940.809 L2855.88,942.802 L2829.2,974.804 L2823.24,974.804 L2819.21,975.996 L2811.46,975.624 L2804.91,983.447 L2796.86,987.322 L2791.35,988.44 L2785.31,992.836 L2779.2,1005.35 L2781.73,1019.81 L2782.85,1028.6 L2788.27,1037.13 L2792.13,1054.9 L2797.16,1056.99 L2786.95,1063.1 L2784.23,1064.7 L2778.98,1067.12 L2775.9,1068.34 L2771.22,1067.56 L2766.09,1066.63 L2764.1,1067.41 L2761.88,1069.75 L2759.4,1073.9 L2757.41,1081.75 L2756.77,1082.24 L2755.91,1082.34 L2754.74,1082.14 L2750.42,1079.05 L2745.03,1074.78 L2743.42,1073.17 L2742.34,1072.49 L2741.28,1072.5 L2740.07,1073.01 L2739.12,1074.13 L2738.69,1075.81 L2738.59,1077.94 L2738.74,1079.93 L2739.58,1082.72 L2741.46,1087.63 L2742.03,1090.17 L2742.35,1093.6 L2743.1,1096.66 L2744.05,1098.62 L2746.04,1101.28 L2747.74,1102.6 L2749.71,1103.01 L2751.41,1103.24 L2752.53,1104.33 L2753.48,1107.33 L2753.31,1109.09 L2751.84,1111.63 L2748.38,1115.04 L2746.91,1117.31 L2746.73,1119.42 L2747.22,1121.35 L2748.15,1123.66 L2749.27,1126.49 L2749.45,1128.88 L2749.1,1133.09 L2749.73,1135.95 L2750.8,1137.85 L2752.76,1139.01 L2757.23,1140.1 L2759.48,1141.05 L2762.89,1143.25 L2765.11,1146.53 L2766.23,1149.01 L2767.33,1152.62 L2767.27,1155.97 L2766.38,1157.65 L2765.41,1158.1 L2764.21,1158.33 L2755.71,1157.73 L2753.77,1158.13 L2752.88,1158.66 L2752.43,1159.86 L2752.79,1161.99 L2755.5,1170.88 L2756.51,1176.91 L2756.57,1180.34 L2756.14,1183.46 L2752.04,1199.69 L2752.13,1202.15 L2753.17,1204.43 L2756.51,1206.93 L2763.9,1210.34 L2765.48,1211.78 L2766.41,1213.17 L2766.57,1214.54 L2766.45,1215.44 L2765.92,1216.63 L2764.23,1217.46 L2759.11,1216.54 L2757.19,1216.36 L2756.02,1217.67 L2755.39,1219.54 L2755.53,1220.98 L2756.57,1222.6 L2760.81,1225.42 L2763.44,1227.1 L2765.83,1229.43 L2767.7,1232.95 L2768.34,1234.63 L2769.45,1236.39 L2770.62,1237.8 L2772.18,1238.49 L2774.17,1238.61 L2775.16,1238.22 L2775.84,1237.68 L2777.31,1235.35 L2778.26,1234.15 L2779.93,1233.59 L2781.26,1233.8 L2783.05,1235.75 L2784.41,1240.12 L2784.55,1243.11 L2784.38,1244.59 L2783.29,1246.31 L2780.32,1248.37 L2776.62,1250.53 L2775.93,1251.47 L2775.77,1252.67 L2776.34,1253.74 L2777.08,1254.62 L2778.77,1255.52 L2793.84,1261.16 L2797.53,1262.4 L2800.88,1263.96 L2803.77,1266.27 L2804.76,1267.42 L2805.13,1268.78 L2805.25,1270.29 L2804.89,1271.14 L2804.05,1272.02 L2802.94,1272.09 L2800.34,1271.13 L2797.82,1269.87 L2796.79,1269.72 L2795.9,1269.89 L2795.18,1270.61 L2794.98,1271.91 L2795.37,1273.34 L2796.69,1275.8 L2798.5,1277.71 L2799.19,1278.76 L2799.75,1279.9 L2799.92,1280.95 L2800.41,1282.93 L2800.88,1283.97 L2801.97,1285.12 L2806.04,1288.48 L2807.19,1289.79 L2808.16,1291.52 L2808.38,1292.43 L2808.17,1293.79 L2807.67,1294.58 L2804.41,1297.61 L2799.69,1302.05 L2797.38,1304.81 L2796.99,1306.08 L2796.97,1307.17 L2797.33,1308.09 L2797.76,1308.7 L2799.65,1310.34 L2804.6,1312.64 L2805.64,1313.73 L2806.13,1314.55 L2806.26,1315.33 L2806.16,1315.98 L2805.78,1316.83 L2804.63,1318.75 L2804.16,1319.64 L2802.16,1322.89 L2800.34,1325.95 L2798.65,1329.19 L2797.83,1331.96 L2795.99,1339.68 L2795.25,1343.76 L2794.46,1348.37 L2794.26,1350.36 L2794.5,1352.4 L2794.28,1353.12 L2793.91,1353.84 L2792.57,1355.12 L2788.53,1358.37 L2787.13,1359.87 L2786.15,1362.15 L2786.19,1363.85 L2786.54,1365.23 L2789.42,1369.76 L2791.21,1374.32 L2792.05,1376.6 L2792.45,1378.7 L2792.71,1383.23 L2792.94,1387.24 L2793.23,1390.04 L2793.77,1392.62 L2794.79,1394.17 L2797.07,1396.1 L2799.09,1397.37 L2800.73,1398.81 L2801.4,1400.11 L2801.74,1401.78 L2801.18,1403.53 L2800.43,1404.74 L2800.08,1406.09 L2800.08,1407.39 L2800.52,1408.65 L2801.57,1409.96 L2802.2,1410.75 L2802.46,1412.05 L2802.75,1412.94 L2803.63,1414.26 L2805.23,1414.62 L2807.42,1414.61 L2808.52,1414.92 L2808.95,1415.71 L2809.36,1417.44 L2809.85,1418.77 L2811,1419.72 L2812.01,1419.87 L2813.45,1420.33 L2814.17,1420.85 L2814.35,1421.57 L2814.32,1422.32 L2813.57,1424.08 L2812.21,1426.18 L2811,1429.5 L2810.25,1434.17 L2809.96,1436.42 L2809.27,1437.98 L2808.43,1439.42 L2805.61,1442.97 L2804.68,1444.61 L2804.05,1446.17 L2803.27,1447.93 L2802.52,1449.43 L2800.99,1450.82 L2797.96,1452.6 L2796.24,1454.08 L2792.37,1455.84 L2789.91,1456.53 L2789.33,1457.34 L2789.19,1457.91 L2789.48,1459.27 L2789.91,1460.42 L2791.18,1461.95 L2792.91,1463.74 L2795.45,1465.38 L2797.46,1468.51 L2798.34,1470.81 L2798.63,1472.68 L2798.68,1474.14 L2798.48,1476.03 L2798.11,1477.87 L2798.11,1479.31 L2798.19,1480.81 L2797.99,1481.56 L2797.36,1482.23 L2795.63,1483.04 L2795.11,1483.44 L2794.79,1484.1 L2794.82,1484.88 L2795.34,1486.58 L2797.27,1489.44 L2799.09,1491.68 L2801.48,1495.29 L2801.45,1496.82 L2800.85,1497.66 L2799.69,1498.18 L2797.15,1498.27 L2790.98,1498.29 L2788.5,1498.9 L2785.27,1500.92 L2782.83,1503.87 L2781.92,1506.08 L2781.55,1507.87 L2781.58,1509.72 L2781.75,1510.96 L2782.1,1512.77 L2781.95,1513.58 L2781.43,1514.3 L2780.34,1515.26 L2778.87,1516.44 L2775.55,1517.65 L2773.86,1518.48 L2772.02,1520.62 L2771.08,1522.9 L2770.04,1524.63 L2768.54,1526.5 L2767.65,1528.38 L2767.44,1530.37 L2767.56,1532.53 L2767.88,1534.9 L2767.59,1537.12 L2765.57,1540.64 L2762.05,1544.01 L2753.76,1549.82 L2747.05,1556.22 L2742.2,1559.31 L2738.79,1565.61 L2734.46,1566.62 L2731.27,1567.59 L2729.77,1569.1 L2728.99,1572.13 L2726.2,1572.37 L2724.84,1573.89 L2725.02,1576.4 L2727.03,1579.44 L2728.86,1585.96 L2728.67,1587.83 L2722.77,1592.19 L2718.12,1598.24 L2715.62,1601.68 L2715.99,1604.99 L2716.47,1606.19 L2714.88,1607.24 L2712.93,1606.96 L2710.2,1606.13 L2707.95,1606.87 L2706.82,1608.07 L2706.68,1609.89 L2704.89,1611.44 L2702.23,1614.65 L2700.58,1618.01 L2699.86,1620.85 L2699.34,1621.96 L2697.7,1623.5 L2696.32,1625.31 L2693.57,1626.91 L2688.39,1629.64 L2686.57,1631.75 L2685.05,1634.34 L2684.39,1638.28 L2684.5,1643.17 L2684.37,1650.1 L2682.13,1653.13 L2677.94,1654.94 L2670.51,1657.14 L2664.67,1660.38 L2661.46,1667.56 L2660.15,1669.42 L2659.12,1674.19 L2656.31,1675.81 L2654.9,1675.91 L2651.69,1676.12 L2646,1682.23 L2641.41,1686.28 L2635.55,1689.62 L2634.32,1690.96 L2634.29,1700.36 L2633.18,1701.21 L2629.71,1702.06 L2628.07,1705.08 L2627.61,1708.4 L2625.86,1710.91 L2623.33,1711.46 L2620.69,1714.36 L2617.03,1723.51 L2614.49,1728.68 L2613.56,1730.58 L2610.95,1741.05 L2608.47,1747.14 L2605.57,1750.66 L2604.55,1751.35 L2602.01,1753.11 L2592.65,1762.72 L2591.19,1767.53 L2587.7,1772.16 L2585.2,1774.19 L2583.06,1777.68 L2580.22,1790.13 L2576.74,1793.35 L2576.46,1793.57 L2575.84,1794.06 L2572.42,1796.73 L2568.52,1797.64 L2563.63,1805.03 L2561.57,1806.03 L2557.26,1806.43 L2553.37,1809.71 L2547.16,1815.55 L2544.65,1823.57 L2542.04,1829.7 L2538.55,1835.51 L2534.97,1839.35 L2531.69,1843.33 L2529.99,1847.28 L2528.31,1852.08 L2526.49,1855.45 L2526.03,1855.8 L2522.8,1858.33 L2521.35,1861.21 L2516.58,1866.51 L2510.64,1870.16 L2504.62,1878.05 L2492.74,1893.41 L2487.83,1899.2 L2483.35,1904.41 L2483.18,1904.61 L2477.56,1908.68 L2474.19,1914.91 L2470.12,1917.21 L2468.48,1918.14 L2460.73,1923.05 L2457.75,1926.91 L2458.87,1934.14 L2457.12,1942.46 L2460.38,1951.07 L2463.37,1953.61 L2463.62,1956.24 L2464.16,1959.91 L2465.17,1963.22 L2467.46,1966.81 L2467.24,1973.44 L2466.59,1979.35 L2466.55,1980.2 L2466.32,1985.07 L2467.31,1988.77 L2467.93,1997.87 L2468.29,2001.5 L2468.5,2003.69 L2468.69,2007.56 L2467.45,2011.34 L2464.09,2023 L2462.85,2027.27 L2459.87,2036.02 L2454.7,2039.37 L2451.11,2044.04 L2447.68,2046.82 L2444.01,2049.66 L2441.01,2054.29 L2438.39,2062.04 L2434.35,2065.03 L2430.4,2067.78 L2425.09,2072.17 L2421.17,2076.1 L2418.16,2079.31 L2417.25,2082.09 L2417.03,2091.1 L2416.03,2096.51 L2413.71,2100.14 L2409.5,2105.89 L2407.2,2110.01 L2405.16,2113.68 L2402.98,2120.4 L2398.28,2125.1 L2393.23,2126 L2390.5,2129.95 L2389.98,2130.7 L2389.98,2137.56 L2387.09,2141.53 L2380.05,2141.35 L2372.1,2143.7 L2367.77,2143.7 L2361.81,2145.32 L2359.99,2147.02 L2357.84,2149.48 L2355.31,2154.71 L2349.89,2156.7 L2344.29,2159.23 L2343.91,2159.83 L2341.76,2163.2 L2342.49,2168.62 L2339.6,2171.87 L2338.64,2179.88 L2331.75,2185.11 L2329.83,2189.45 L2330.47,2190.99 L2333.28,2191.11 L2334.43,2193.41 L2331.62,2194.18 L2328.81,2193.92 L2326.39,2194.69 L2326.9,2196.6 L2328.05,2197.5 L2326,2199.92 L2321.15,2199.54 L2314.64,2197.54 L2308.93,2197.78 L2304.93,2200.09 L2301.77,2199.08 L2299,2200.05 L2296.54,2204.07 L2294.82,2206.01 L2291.54,2207.03 L2285.83,2209.59 L2285.34,2209.8 L2278.12,2212.95 L2269.31,2217.42 L2266.7,2220.02 L2265.74,2221.54 L2263.44,2225.2 L2259.2,2230.89 L2256.12,2235.05 L2252.86,2238.64 L2250.92,2241.68 L2249.9,2244.36 L2247.61,2249.01 L2241.76,2252.55 L2240.88,2257.17 L2239.91,2262.18 L2235.77,2266.85 L2235,2267.72 L2232.84,2267.78 L2231.43,2267.82 L2229.06,2269.3 L2227.62,2271.84 L2223.17,2276.06 L2214.11,2285.26 L2208.09,2294.99 L2202.08,2301.59 L2195.2,2306.65 L2190.41,2309.49 L2186.91,2309.79 L2182.63,2310.27 L2181.12,2311.23 L2179.68,2314.61 L2177.27,2318.26 L2173.45,2321.46 L2169.94,2323.53 L2165.18,2324.78 L2163.54,2332.99 L2163.54,2335.15 L2165.01,2339.21 L2167.69,2341.63 L2168.38,2342.93 L2169.67,2344.83 L2172.53,2346.91 L2174.6,2348.12 L2176.59,2349.84 L2178.84,2352.52 L2181.17,2353.3 L2182.99,2355.55 L2183.16,2357.37 L2183.68,2361.43 L2184.28,2364.54 L2185.32,2366.1 L2187.91,2368.52 L2189.99,2371.8 L2190.51,2374.83 L2190.33,2376.9 L2187.48,2382.17 L2186.1,2384.68 L2185.06,2387.45 L2183.94,2390.56 L2182.73,2392.37 L2181.86,2394.62 L2181.78,2397.04 L2181.34,2399.38 L2179.87,2402.49 L2178.58,2405.08 L2178.14,2407.59 L2177.45,2409.14 L2174.95,2409.92 L2172.44,2410.53 L2170.19,2412.69 L2168.81,2415.2 L2167.94,2417.79 L2166.39,2420.3 L2163.54,2421.51 L2163.19,2424.7 L2160.16,2430.15 L2159.65,2432.74 L2158.52,2435.94 L2157.48,2438.97 L2156.88,2441.56 L2156.97,2443.03 L2156.97,2445.1 L2155.58,2446.92 L2153.94,2449.86 L2151.87,2456.52 L2152.38,2459.28 L2153.85,2462.39 L2154.11,2465.33 L2154.72,2467.58 L2156.53,2469.57 L2157.57,2471.56 L2157.83,2473.98 L2157.57,2475.1 L2156.1,2476.37 L2155.67,2476.74 L2153.16,2478.04 L2150.57,2479.34 L2148.49,2483.05 L2148.41,2485.73 L2147.03,2487.29 L2146.85,2490.49 L2147.41,2491.37 L2147.89,2492.13 L2149.79,2494.12 L2151.43,2499.39 L2152.21,2501.98 L2152.47,2504.84 L2151.87,2508.12 L2150.74,2511.06 L2149.45,2513.91 L2149.62,2515.04 L2149.62,2516.85 L2150.4,2519.88 L2150.92,2522.99 L2152.42,2526.54 L2154.01,2530.02 L2154.64,2533.6 L2154.41,2538.49 L2153.3,2541.59 L2151.82,2543.63 L2151.58,2546.59 L2149.57,2550.02 L2148.42,2552.49 L2149.01,2553.97 L2150.2,2555.98 L2153.01,2557.92 L2155.59,2559.92 L2157.86,2561.55 L2160.55,2562.83 L2160.92,2564.92 L2162.94,2566.67 L2164.45,2567.13 L2166.35,2568.87 L2171.47,2569.96 L2174.47,2572.39 L2178.28,2574.97 L2180.05,2575.17 L2182.92,2573.92 L2184.77,2573.64 L2187.53,2574.39 L2189.06,2574.44 L2190.54,2573.46 L2191.61,2573.98 L2193.65,2576.03 L2195.74,2578.34 L2197.3,2581.42 L2198.7,2583.83 L2200.03,2584.59 L2202.01,2585.51 L2203.58,2587.93 L2206.7,2590.22 L2208.6,2591.85 L2209.5,2593.57 L2211.3,2595.77 L2213.2,2596.48 L2215.63,2602.77 L2218.37,2606.89 L2220.15,2613.83 L2221.01,2618.82 L2222.25,2621.3 L2222.06,2627.02 L2223.07,2632.11 L2221.85,2637.03 L2222.41,2640.02 L2225.15,2643.31 L2225.8,2644.97 L2224.46,2646.63 L2227.09,2651.76 L2228.85,2653.93 L2228.88,2655.4 L2231.07,2656.51 L2233.46,2657.17 L2233.81,2657.95 L2232.74,2658.98 L2232.52,2660.31 L2235.27,2663.03 L2237.59,2667.27 L2241.6,2670.92 L2242.81,2673.55 L2244.59,2675.49 L2245.52,2678.98 L2245.78,2680.88 L2246.59,2682.18 L2249.56,2683.98 L2252.13,2685.56 L2252.96,2686.82 L2253.29,2689.1 L2254.18,2690.09 L2253.92,2690.51 L2248.99,2696.95 L2247.41,2700.46 L2246.49,2703.9 L2246.56,2706.4 L2247.23,2708.34 L2247.84,2709.31 L2247.71,2710.2 L2247.13,2710.59 L2247.27,2711.21 L2248.2,2711.39 L2248.9,2711.67 L2249.82,2712.24 L2250.52,2713.89 L2250.56,2715.99 L2249.61,2720.7 L2248.58,2722.36 L2248.25,2724.45 L2246.03,2730.73 L2245.57,2734.97 L2246.09,2736.65 L2246.11,2738.62 L2245.93,2740.19 L2246.29,2741.57 L2246.31,2742.64 L2246.51,2743.75 L2246.15,2743.48 L2245.74,2743.31 L2245.59,2743.11 L2245.5,2742.85 L2245.52,2742.41 L2245.49,2742.19 L2245.21,2742.01 L2244.73,2741.99 L2243.95,2741.79 L2243.47,2741.04 L2233.17,2734.93 L2227.96,2730.7 L2226.01,2729.86 L2222.95,2729.48 L2218.8,2729.68 L2216.89,2729.07 L2214.45,2726.44 L2213.3,2723.67 L2212.38,2720.8 L2210.19,2717.1 L2207.96,2715.39 L2206.19,2710.14 L2202.01,2705.67 L2189.14,2704.77 L2183.12,2697.2 L2179.05,2699.21 L2175.33,2699.83 L2172.9,2699.35 L2156.93,2677.13 L2136.62,2672.29 L2129.39,2667.29 L2114.26,2660.44 L2098.84,2658.99 L2078.67,2649.17 L2077.49,2641.33 L2068.66,2637.2 L2063.97,2625.91 L2051.56,2614.4 L2050.33,2607.58 L2039.27,2593.83 L2037.48,2580.64 L2024.96,2567.57 L2016.24,2572.48 L2001.83,2571.37 L1978.24,2560.86 L1951.87,2559.07 L1931.68,2547.62 L1874.4,2525.28 L1860.55,2515.26 L1859.77,2495.03 L1835.52,2493.13 L1818.98,2494.92 L1801.88,2476.14 L1785.56,2475.92 L1770.81,2470.78 L1759.52,2456.69 L1743.54,2444.96 L1734.78,2431.16 L1734.34,2425.98 L1737.19,2422.71 L1736.04,2410.02 L1731.71,2404.43 L1725.4,2398.8 L1724.75,2398.23 L1724.62,2398.03 L1723.91,2396.91 L1723.57,2396.37 L1723.17,2395.75 L1722.34,2394.46 L1721.53,2393.19 L1721.05,2392.45 L1721,2392.37 L1718.95,2390.34 L1717.64,2389.03 L1716.03,2388.03 L1711.66,2385.3 L1700.43,2384.48 L1699.17,2384.38 L1691.85,2383.85 L1689.23,2383.65 L1682.47,2379.4 L1677.07,2376 L1673.35,2375.32 L1671.13,2374.91 L1663.9,2375.52 L1653.91,2376.35 L1653.14,2376.7 L1647.95,2379.04 L1643.63,2384.28 L1640.99,2385.61 L1640.77,2390.86 L1634.68,2397.35 L1626.22,2398.81 L1624.02,2400.15 L1623.42,2402.87 L1621.82,2403.95 L1618.73,2405.66 L1617.13,2408.23 L1615.04,2412.78 L1614.15,2415.94 L1610.98,2417.58 L1609.94,2419.18 L1609.45,2420.86 L1609.56,2422.16 L1610.24,2423.36 L1610.5,2424.74 L1610.27,2425.93 L1610.1,2427.12 L1610.51,2429.49 L1610.42,2431.11 L1609.4,2432.99 L1607.63,2434.48 L1606.04,2436.21 L1604.52,2438.67 L1603.65,2440.18 L1603.73,2441.95 L1603.61,2444.32 L1601.34,2446.84 L1600.81,2447.93 L1599.42,2448.87 L1598.48,2449.31 L1597.72,2450.46 L1596.79,2452.29 L1593.85,2455.25 L1591.24,2458.26 L1588.1,2464.25 L1587.36,2466.03 L1585.75,2467.37 L1581.04,2468.72 L1578.58,2468.85 L1577.22,2469.83 L1576.1,2471.26 L1574.26,2472.16 L1570.8,2472.92 L1563.57,2480.23 L1559.92,2482.97 L1557.55,2483.48 L1555.8,2483.67 L1554.53,2484.33 L1552.73,2486.05 L1551.87,2487.31 L1551.32,2488.38 L1550.52,2489.47 L1547.79,2491.73 L1543.43,2494.71 L1540.7,2494.86 L1538.58,2494.78 L1536.77,2495.17 L1533.22,2495.16 L1531.65,2495 L1530.11,2493.95 L1522.51,2490.91 L1522.02,2490.82 L1520.97,2490.23 L1517.83,2489.69 L1514.41,2489.61 L1512.13,2489.79 L1509.31,2489.72 L1506.95,2490.25 L1505.26,2490.28 L1503.81,2490.54 L1502.57,2490.81 L1501.65,2491.71 L1500.36,2492.7 L1499.68,2492.87 L1498.05,2493.89 L1495.68,2494.82 L1494.14,2494.85 L1492.95,2494.16 L1492.35,2493.71 L1490.45,2493.82 L1487.25,2493.46 L1485.44,2492.87 L1483.88,2492.24 L1482.53,2491.65 L1481.55,2490.36 L1480.54,2489.68 L1478.94,2489.2 L1477.19,2489.1 L1475.71,2488.74 L1474.34,2488.56 L1472.53,2488.55 L1471.85,2488.69 L1469.81,2488 L1467.11,2485.29 L1466.82,2484.39 L1466.25,2483.46 L1464.98,2482.41 L1464.37,2481.68 L1463.32,2480.91 L1462.33,2479.95 L1461.08,2478.22 L1457.94,2475.58 L1456.39,2474.2 L1454.89,2473.19 L1452.37,2471.98 L1451.46,2471.64 L1449.69,2471.7 L1448.6,2471.55 L1448.03,2471.42 L1447.55,2471.79 L1447.08,2473.09 L1447.13,2473.64 L1446.81,2474.85 L1444.62,2477.27 L1441.99,2481.27 L1439.63,2482.97 L1438.08,2483.92 L1435.59,2484.81 L1433.13,2485.46 L1431.86,2485.83 L1430.87,2486.62 L1428.9,2487.57 L1424.76,2487.66 L1422.62,2488.93 L1420.7,2490.6 L1419.12,2492.71 L1416.79,2494.61 L1416.08,2496.79 L1414.26,2497.64 L1412.94,2497.48 L1410.33,2495.5 L1409.3,2493.9 L1408.11,2492.35 L1406.12,2490.27 L1403.92,2488.72 L1401.09,2487.44 L1396.25,2483.88 L1394.98,2481.87 L1394.29,2480.08 L1392.71,2479 L1390.45,2477.81 L1389.17,2475.91 L1387.29,2473.97 L1385.24,2472.42 L1384.55,2471.57 L1383.94,2469.73 L1382.96,2468.45 L1380.24,2466.24 L1375.15,2464.95 L1373.1,2464.71 L1370.23,2464.37 L1368.71,2464.14 L1367.65,2464.23 L1365.28,2463.58 L1363.69,2462.05 L1361.71,2460.68 L1360.23,2460.25 L1358.12,2460.05 L1356.93,2460.68 L1355.88,2462.35 L1355.34,2463.22 L1352.84,2464.17 L1350.04,2464.9 L1348,2464.64 L1346.41,2464.1 L1344.95,2464.54 L1342.99,2464.86 L1340.54,2465.59 L1339.7,2465.53 L1338.49,2465.78 L1337.96,2466.03 L1334.6,2465.75 L1332.61,2466.53 L1326.33,2471.25 L1324.31,2471.42 L1322.14,2471.05 L1320.08,2468.16 L1317.03,2467.04 L1312.35,2468.09 L1305.25,2467.82 L1296.31,2466.73 L1292.89,2467.31 L1290.08,2466.54 L1287.63,2464.93 L1285.87,2463.53 L1284.26,2461.59 L1281.62,2454.79 L1279.64,2453.73 L1277.96,2452.49 L1276.67,2449.53 L1274.64,2447.52 L1273.64,2446.31 L1273.78,2445.14 L1274.2,2443.98 L1273.9,2441.33 L1272.46,2439.18 L1271.97,2436.09 L1272.54,2435.51 L1274.45,2434.87 L1275.1,2434.82 L1275.8,2434.38 L1276.47,2432.69 L1276.73,2430.54 L1275.75,2428.86 L1276.34,2427.58 L1276.06,2426.59 L1276.29,2424.55 L1276.15,2423 L1275.54,2421.82 L1274.58,2420.85 L1273.31,2419.35 L1273.16,2418.67 L1273.62,2416.81 L1273.66,2416.25 L1271.63,2412.37 L1272.92,2412.04 L1273.18,2410.98 L1271.28,2408.48 L1270.04,2406.32 L1267.78,2405.32 L1265.44,2399.51 L1262.78,2398.83 L1261.42,2397.64 L1258.5,2392.72 L1256.99,2391.12 L1254.91,2385.82 L1255.01,2384.87 L1253.43,2380.22 L1251.19,2378.69 L1248.98,2377.97 L1250.6,2375.63 L1252.48,2370.5 L1254.96,2367.19 L1259.22,2362.41 L1262.11,2356.85 L1266.64,2352.28 L1268.31,2349.73 L1269.23,2349 L1270.17,2348.4 L1270.38,2347.88 L1270.41,2346.62 L1269.8,2344.95 L1269.35,2344.01 L1269.27,2343 L1268.38,2341.99 L1267.29,2339.35 L1266.67,2338.5 L1266.01,2337.3 L1265.26,2335.12 L1264.12,2333.83 L1264.12,2332.7 L1264.58,2331.34 L1265.15,2330.19 L1264.64,2329.45 L1263.59,2328.24 L1261.32,2326.75 L1258.72,2323.97 L1257.33,2323.12 L1256.15,2321.31 L1256.09,2320.55 L1255.92,2320.17 L1255.39,2319.77 L1254.67,2319.42 L1254.38,2319.4 L1253.98,2319.23 L1253.32,2318.1 L1252.79,2317.5 L1252.05,2317.09 L1251.33,2315.73 L1251.24,2314.75 L1251.33,2314.1 L1250.13,2311.87 L1249.55,2308.54 L1249.71,2307.63 L1250.12,2306.46 L1249.59,2305.77 L1247.87,2305.01 L1246.81,2304.39 L1245.25,2302.64 L1243.5,2302.39 L1242.09,2302.38 L1239.43,2301.9 L1237.39,2301.6 L1235.74,2301.47 L1234.58,2301.12 L1233.42,2300.61 L1232.71,2300.59 L1230.82,2301.81 L1229.81,2302.16 L1229.57,2302.37 L1228.31,2302.84 L1227.05,2303.07 L1225.49,2302.78 L1223.66,2302.19 L1222.01,2301.82 L1218.66,2301.29 L1217.16,2301.19 L1216.13,2300.43 L1215.25,2300.26 L1213.63,2299.48 L1212.79,2298.75 L1211.36,2298.1 L1209.78,2297.71 L1207.89,2297.56 L1205.81,2297.85 L1204.2,2298.25 L1199.47,2298.36 L1197.06,2298.32 L1195.94,2297.96 L1194.67,2297.77 L1193.25,2297.69 L1190.97,2297.95 L1188.87,2298.13 L1187.21,2298.08 L1185.69,2297.71 L1184.5,2296.46 L1183.26,2295.33 L1182.07,2294.59 L1177.78,2294.4 L1176.09,2293.49 L1175.1,2293.42 L1173.89,2293.18 L1172.14,2293.2 L1168.7,2293.03 L1167.94,2292.59 L1167.12,2291.28 L1165.43,2288.24 L1163.79,2285.9 L1163.31,2284.92 L1161.63,2281.01 L1160.68,2279.66 L1159.52,2278.29 L1158.17,2277.06 L1156.92,2276.33 L1156.02,2276.14 L1155.22,2276.19 L1150.63,2277.48 L1147.96,2278 L1142.24,2278.66 L1141.64,2278.48 L1140.06,2277.37 L1136.71,2275.18 L1134.15,2274.1 L1131.93,2274.36 L1131.29,2274.18 L1129.75,2273.2 L1127.45,2271.95 L1126.63,2271.85 L1124.23,2271.99 L1121.27,2271.85 L1119.16,2270.78 L1118.49,2269.98 L1117.23,2269.75 L1115.24,2270 L1114.25,2270.77 L1113.83,2272.39 L1113.34,2272.94 L1112.29,2273.07 L1108.48,2271.77 L1107.46,2271.09 L1106.81,2270.34 L1106.11,2269.94 L1104.96,2269.77 L1103.57,2269.47 L1103.25,2269.14 L1101.43,2268.42 L1099.97,2267.45 L1098.96,2266.68 L1097.84,2266.22 L1096.96,2266.1 L1095.09,2266.16 L1092.53,2264.7 L1090.8,2262.78 L1089.58,2261.82 L1087.53,2261.7 L1085.63,2261.15 L1083.99,2260.19 L1081.39,2259.64 L1079.78,2259.68 L1078.68,2259.92 L1076.91,2261.47 L1075.59,2262.5 L1071.97,2263.74 L1069.12,2263.64 L1066.16,2263.85 L1058.25,2264.96 L1052.48,2263.92 L1051.29,2263.12 L1049.98,2262.01 L1049.18,2260.98 L1046.71,2259.37 L1042.44,2257.6 L1041.42,2256.93 L1040.39,2256.23 L1036.58,2254.19 L1035.47,2253.67 L1033.61,2252.43 L1032.57,2251.62 L1029.9,2250.71 L1028.78,2250.72 L1027.89,2250.65 L1027.1,2250.37 L1026.01,2248.96 L1025.04,2247.41 L1024.27,2246.51 L1023.11,2245.97 L1021.97,2245.68 L1020.87,2245.6 L1019.56,2246.04 L1016.1,2247.92 L1014.93,2248.79 L1012.97,2252.25 L1012.06,2252.95 L1010.88,2253.65 L1009.88,2254.08 L1008.41,2254.28 L1007.35,2254.29 L1005.68,2253.71 L1004.67,2253.23 L1002.55,2252.76 L1000.19,2250.62 L999.17,2249.34 L998.504,2247.81 L998.337,2247.11 L998.237,2246.02 L998.041,2244.9 L997.645,2243.84 L997.115,2242.94 L995.968,2241.26 L995.187,2239.82 L994.398,2238.95 L993.378,2238.27 L992.566,2237.9 L989.438,2237.74 L986.045,2237.71 L984.55,2237.69 L982.728,2237.47 L979.56,2237.38 L978.229,2237.2 L974.285,2236.5 L972.596,2236.08 L970.947,2235.79 L969.488,2234.98 L967.687,2233.62 L965.944,2232.01 L964.73,2230.99 L962.892,2230.03 L960.5,2229.41 L958.142,2228.37 L956.515,2227.48 L954.134,2226.38 L952.736,2225.97 L951.708,2225.46 L949.425,2224.15 L948.688,2223.86 L947.628,2223.64 L944.958,2223.65 L942.893,2223.82 L939.332,2224.6 L937.741,2224.87 L935.411,2224.95 L934.646,2224.85 L934.525,2224.45 L934.853,2223.91 L935.723,2223.33 L938.485,2218.56 L939.515,2217.34 L940.189,2216.1 L940.157,2215.09 L939.987,2209.12 L939.842,2207.53 L939.971,2206.29 L940.315,2205.08 L940.76,2204.08 L942.602,2202.08 L946.039,2198.56 L946.668,2197.71 L947.227,2196.49 L947.392,2195.35 L947.532,2193.46 L948.639,2189.55 L949.596,2187.3 L950.043,2185.64 L950.371,2180.69 L950.479,2177.25 L950.696,2174.6 L951.103,2172.26 L951.209,2170.65 L950.687,2168.13 L950.456,2166.52 L950.375,2163.73 L950.417,2162.47 L951.135,2159.62 L951.394,2157.77 L951.647,2150.88 L951.844,2148.07 L952.391,2141.53 L954.065,2137.82 L954.352,2135.82 L954.23,2134.38 L951.939,2131.39 L950.611,2129.99"/>
  </g>
  <g stroke="#000000" stroke-opacity="1" font-family="MS Shell Dlg 2" font-size="34.5833" font-weight="400" stroke-linejoin="bevel" stroke-width="1" stroke-linecap="square" font-style="normal" fill="none" transform="matrix(0.999744,0,0,0.999744,0,0)"/>
  <g stroke="#000000" stroke-opacity="1" font-family="MS Shell Dlg 2" font-size="34.5833" font-weight="400" stroke-linejoin="bevel" stroke-width="1" stroke-linecap="square" font-style="normal" fill="none" transform="matrix(11.808,0,0,11.808,0,0)"/>
  <g stroke="#000000" stroke-opacity="1" font-family="MS Shell Dlg 2" font-size="34.5833" font-weight="400" stroke-linejoin="bevel" stroke-width="1" stroke-linecap="square" font-style="normal" fill="none" transform="matrix(11.808,0,0,11.808,0,0)"/>
  <g stroke="#000000" stroke-opacity="1" font-family="MS Shell Dlg 2" font-size="34.5833" font-weight="400" stroke-linejoin="bevel" stroke-width="1" stroke-linecap="square" font-style="normal" fill="none" transform="matrix(11.808,0,0,11.808,0,0)"/>
  <g stroke="#000000" stroke-opacity="1" font-family="MS Shell Dlg 2" font-size="34.5833" font-weight="400" stroke-linejoin="bevel" stroke-width="1" stroke-linecap="square" font-style="normal" fill="none" transform="matrix(1,0,0,1,0,0)"/>
  <g stroke="#000000" stroke-opacity="1" font-family="MS Shell Dlg 2" font-size="34.5833" font-weight="400" stroke-linejoin="bevel" stroke-width="1" stroke-linecap="square" font-style="normal" fill="none" transform="matrix(11.808,0,0,11.808,0,0)"/>
  <g stroke="#000000" stroke-opacity="1" font-family="MS Shell Dlg 2" font-size="34.5833" font-weight="400" stroke-linejoin="bevel" stroke-width="1" stroke-linecap="square" font-style="normal" fill="none" transform="matrix(11.808,0,0,11.808,0,0)"/>
  <g stroke="#000000" stroke-opacity="1" font-family="MS Shell Dlg 2" font-size="34.5833" font-weight="400" stroke-linejoin="bevel" stroke-width="1" stroke-linecap="square" font-style="normal" fill="none" transform="matrix(11.808,0,0,11.808,0,0)"/>
  <g stroke="#000000" stroke-opacity="1" font-family="MS Shell Dlg 2" font-size="34.5833" font-weight="400" stroke-linejoin="bevel" stroke-width="1" stroke-linecap="square" font-style="normal" fill="none" transform="matrix(11.808,0,0,11.808,0,0)"/>
  <g stroke="#000000" stroke-opacity="1" font-family="MS Shell Dlg 2" font-size="34.5833" font-weight="400" stroke-linejoin="bevel" stroke-width="1" stroke-linecap="square" font-style="normal" fill="none" transform="matrix(1,0,0,1,0,0)"/>
 </g>
</svg>
