<?xml version='1.0' encoding='UTF-8' standalone='no'?>
<svg xmlns="http://www.w3.org/2000/svg" height="249.936mm" version="1.2" baseProfile="tiny" viewBox="0 0 2952 2952" width="249.936mm" xmlns:xlink="http://www.w3.org/1999/xlink">
 <title>Qt SVG Document</title>
 <desc>Generated with Qt</desc>
 <defs/>
 <g stroke-width="1" stroke-linecap="square" stroke-linejoin="bevel" fill-rule="evenodd" fill="none" stroke="black">
  <g stroke-width="1" font-family="MS Shell Dlg 2" transform="matrix(1,0,0,1,0,0)" stroke-opacity="1" stroke-linecap="square" font-weight="400" font-style="normal" stroke-linejoin="bevel" font-size="34.5833" fill="none" stroke="#000000"/>
  <g stroke-width="1" font-family="MS Shell Dlg 2" transform="matrix(1,0,0,1,0,0)" stroke-opacity="1" stroke-linecap="square" font-weight="400" font-style="normal" stroke-linejoin="bevel" font-size="34.5833" fill="none" stroke="#000000"/>
  <g stroke-width="1" font-family="MS Shell Dlg 2" transform="matrix(11.808,0,0,11.808,0,0)" stroke-opacity="1" stroke-linecap="square" font-weight="400" font-style="normal" stroke-linejoin="bevel" font-size="34.5833" fill="none" stroke="#000000"/>
  <g stroke-width="1" font-family="MS Shell Dlg 2" transform="matrix(0.999744,0,0,0.999744,0,0)" stroke-opacity="1" stroke-linecap="square" font-weight="400" font-style="normal" stroke-linejoin="bevel" font-size="34.5833" fill="none" stroke="#000000"/>
  <g font-family="MS Shell Dlg 2" transform="matrix(0.999744,0,0,0.999744,0,0)" fill-opacity="0" font-weight="400" font-style="normal" font-size="34.5833" fill="#ffffff" stroke="none">
   <path d="M-2,-2 L2955,-2 L2955,2955 L-2,2955 L-2,-2" fill-rule="evenodd" vector-effect="none"/>
  </g>
  <g stroke-width="1" font-family="MS Shell Dlg 2" transform="matrix(0.999744,0,0,0.999744,0,0)" stroke-opacity="1" stroke-linecap="square" font-weight="400" font-style="normal" stroke-linejoin="bevel" font-size="34.5833" fill="none" stroke="#000000"/>
  <g stroke-width="1" font-family="MS Shell Dlg 2" transform="matrix(11.808,0,0,11.808,0,0)" stroke-opacity="1" stroke-linecap="square" font-weight="400" font-style="normal" stroke-linejoin="bevel" font-size="34.5833" fill="none" stroke="#000000"/>
  <g stroke-width="1" font-family="MS Shell Dlg 2" transform="matrix(11.808,0,0,11.808,0,0)" stroke-opacity="1" stroke-linecap="square" font-weight="400" font-style="normal" stroke-linejoin="bevel" font-size="34.5833" fill="none" stroke="#000000"/>
  <g stroke-width="1" font-family="MS Shell Dlg 2" transform="matrix(11.808,0,0,11.808,0,0)" stroke-opacity="1" stroke-linecap="square" font-weight="400" font-style="normal" stroke-linejoin="bevel" font-size="34.5833" fill="none" stroke="#000000"/>
  <g stroke-width="1" font-family="MS Shell Dlg 2" transform="matrix(11.808,0,0,11.808,0,0)" stroke-opacity="1" stroke-linecap="square" font-weight="400" font-style="normal" stroke-linejoin="bevel" font-size="34.5833" fill="none" stroke="#000000"/>
  <g stroke-width="1" font-family="MS Shell Dlg 2" transform="matrix(11.808,0,0,11.808,0,0)" stroke-opacity="1" stroke-linecap="square" font-weight="400" font-style="normal" stroke-linejoin="bevel" font-size="34.5833" fill="none" stroke="#000000"/>
  <g font-family="MS Shell Dlg 2" transform="matrix(11.808,0,0,11.808,0,0)" fill-opacity="0" font-weight="400" font-style="normal" font-size="34.5833" fill="#ffffff" stroke="none">
   <path d="M0,0 L250,0 L250,250 L0,250 L0,0" fill-rule="evenodd" vector-effect="none"/>
  </g>
  <g stroke-width="1" font-family="MS Shell Dlg 2" transform="matrix(11.808,0,0,11.808,0,0)" stroke-opacity="1" stroke-linecap="square" font-weight="400" font-style="normal" stroke-linejoin="bevel" font-size="34.5833" fill="none" stroke="#000000"/>
  <g stroke-width="1" font-family="MS Shell Dlg 2" transform="matrix(11.808,0,0,11.808,0,0)" stroke-opacity="1" stroke-linecap="square" font-weight="400" font-style="normal" stroke-linejoin="bevel" font-size="34.5833" fill="none" stroke="#000000"/>
  <g font-family="MS Shell Dlg 2" transform="matrix(0.999744,0,0,0.999744,0,0)" fill-opacity="0" font-weight="400" font-style="normal" font-size="34.5833" fill="#000000" stroke="none">
   <rect height="2953" y="0" x="0" width="2953"/>
  </g>
  <g stroke-width="1" font-family="MS Shell Dlg 2" transform="matrix(0.999744,0,0,0.999744,0,0)" stroke-opacity="1" stroke-linecap="square" font-weight="400" font-style="normal" stroke-linejoin="bevel" font-size="34.5833" fill="none" stroke="#000000"/>
  <g stroke-width="3.07087" font-family="MS Shell Dlg 2" transform="matrix(0.999744,0,0,0.999744,0,0)" fill-opacity="1" stroke-opacity="1" stroke-linecap="square" font-weight="400" font-style="normal" stroke-linejoin="bevel" font-size="34.5833" fill="#c5c5c5" stroke="#5c5c5c">
   <path d="M1638.6,617.61 L1639.33,618.511 L1640.51,618.405 L1641.14,617.834 L1641.65,617.251 L1642.11,616.726 L1643.02,616.239 L1643.28,616.239 L1643.61,616.238 L1643.9,616.237 L1644.02,616.237 L1644.16,616.328 L1644.99,616.857 L1646.21,618.08 L1646.81,618.399 L1648.07,618.652 L1649.22,619.066 L1650.19,619.492 L1650.42,620.351 L1650.98,622.307 L1651.29,623.06 L1651.72,623.459 L1652.66,623.564 L1655.81,622.716 L1657.19,622.345 L1658.33,622.323 L1658.56,622.318 L1659.82,622.591 L1660.94,622.784 L1661.71,623.245 L1662.34,623.729 L1662.6,624.381 L1663.53,624.516 L1663.79,624.554 L1665.55,624.333 L1665.73,624.219 L1668.83,622.312 L1671.38,624.457 L1671.53,624.579 L1671.71,624.732 L1671.86,624.858 L1672.11,625.069 L1672.95,625.78 L1673.25,626.027 L1674.79,627.33 L1675.51,627.929 L1673.56,630.461 L1671.97,632.533 L1671.32,633.757 L1671.3,633.81 L1670.85,634.416 L1672.49,634.949 L1673.98,635.509 L1676.63,636.304 L1678.35,636.58 L1679.83,637.11 L1680.16,637.227 L1680.22,637.274 L1681.64,638.28 L1683.18,639.22 L1682.07,639.186 L1683.62,641.047 L1683.67,642.81 L1683.69,643.188 L1683.93,643.488 L1684.15,643.765 L1685.64,644.576 L1685.89,645.023 L1686.04,645.277 L1686.11,645.416 L1686.42,645.965 L1687.13,648.24 L1688.64,653.091 L1689.9,655.229 L1690.58,655.908 L1691.25,656.071 L1692.63,656.404 L1693.79,656.682 L1693.93,656.677 L1695.15,656.633 L1696.79,656.575 L1697.21,656.56 L1698.84,661.054 L1698.25,661.898 L1697.52,662.963 L1703.35,669.482 L1703.49,669.517 L1707.05,670.392 L1707.95,671.298 L1708.8,672.145 L1709.26,674.343 L1708.38,677.104 L1709.22,680.243 L1709.63,680.896 L1710,681.078 L1711.19,681.652 L1711.9,681.604 L1711.96,681.6 L1711.99,681.583 L1713.12,680.912 L1713.13,680.325 L1713.16,677.871 L1717.59,680.748 L1719.33,681.358 L1719.65,681.354 L1720.41,681.346 L1722.85,684.792 L1722.24,685.717 L1720.92,687.695 L1720.62,689.725 L1719.83,695.213 L1718.08,697.576 L1714.66,698.311 L1711.52,698.823 L1710.29,699.537 L1710.61,701.5 L1710.55,702.012 L1711.87,707.357 L1714.09,709.062 L1715.85,709.124 L1716.59,709.369 L1719.81,709.374 L1721.33,709.413 L1729.15,709.615 L1729.25,709.595 L1729.81,709.477 L1732.38,709.518 L1739.19,709.736 L1745.02,709.991 L1748.22,709.951 L1749.65,710.007 L1750.84,710.444 L1751.41,710.659 L1752.02,710.933 L1752.47,711.132 L1753.84,710.957 L1755.27,710.718 L1756.15,710.631 L1761.04,709.795 L1766.56,708.992 L1768.68,708.656 L1771.49,710.294 L1771.99,710.566 L1775.12,710.002 L1775.72,712.969 L1777.03,714.004 L1779.13,715.939 L1781.31,715.791 L1784.34,715.407 L1787.71,714.98 L1788.19,714.924 L1791.16,714.485 L1791.77,714.421 L1794.49,714.047 L1796.11,713.863 L1800.42,713.298 L1801.61,713.14 L1803.84,712.976 L1803.84,713.037 L1803.84,713.107 L1803.83,718.072 L1803.83,718.768 L1803.82,723.762 L1803.85,735.258 L1853.73,735.317 L1853.85,735.317 L1879.21,735.335 L1874.19,753.373 L1873.82,754.718 L1872.86,758.161 L1871.92,761.536 L1912.4,765.639 L1913.8,765.781 L1914,765.804 L1922.28,766.675 L1925.3,767.011 L1933.94,767.974 L1939.15,768.554 L1931.79,892.168 L1995.2,899.689 L2013.44,901.565 L2033.37,903.154 L2030.7,908.892 L2036.27,913.112 L2037.66,912.096 L2037.79,912.159 L2039.33,911.081 L2040.1,910.492 L2042.39,908.919 L2043.8,907.915 L2045.32,906.835 L2047.01,905.696 L2048.18,905.856 L2051.68,902.947 L2051.33,901.884 L2052.12,901.293 L2053.18,900.497 L2054.39,899.586 L2057.33,897.615 L2059.52,896.199 L2067.16,891.121 L2067.08,890.715 L2067.47,890.433 L2070.41,895.242 L2070.46,895.191 L2071.25,894.216 L2072.44,892.762 L2073.82,891.077 L2073.86,891.028 L2075.3,889.254 L2077.1,887.05 L2077.18,886.958 L2079.61,883.985 L2079.67,883.911 L2082.11,880.918 L2082.17,880.842 L2084,878.602 L2086.81,875.165 L2087.43,874.401 L2090.82,870.257 L2092.61,868.062 L2092.66,868 L2092.73,867.92 L2092.75,867.89 L2095.41,864.636 L2095.46,864.577 L2097.97,861.499 L2098.02,861.438 L2100.63,858.239 L2100.68,858.187 L2100.78,858.061 L2128.5,867.476 L2129.41,867.784 L2131.42,868.286 L2132.94,868.667 L2137.84,869.89 L2138.14,869.965 L2141.93,871.42 L2141.99,871.457 L2141.96,871.584 L2141.64,872.933 L2140.11,879.349 L2140.09,879.415 L2140.05,879.559 L2140.03,879.674 L2144.05,881.42 L2144.25,881.506 L2142.43,882.605 L2142.3,882.683 L2140.33,883.865 L2138.28,885.102 L2142.43,886.506 L2145.23,887.495 L2151.23,889.427 L2152.46,889.936 L2153.94,890.42 L2155.69,890.261 L2158.81,888.906 L2163.85,886.881 L2169.49,884.677 L2170.78,884.52 L2170.36,883.291 L2174.49,881.73 L2173.28,877.788 L2178.09,875.741 L2184.31,873.516 L2185.85,876.453 L2186.94,878.309 L2191.12,885.723 L2194.69,891.952 L2194.95,892.442 L2196.24,895.458 L2200.4,895.254 L2200.38,895.983 L2200.37,896.297 L2200.2,902.016 L2200.18,902.644 L2200.16,902.881 L2200.52,904.055 L2201.99,908.952 L2202.64,911.362 L2204.5,917.756 L2202.76,917.829 L2200.65,918.402 L2200.71,918.681 L2202.73,926.151 L2202.78,926.358 L2203.55,932.701 L2202.98,934.962 L2201.86,938.782 L2202.94,941.638 L2203.63,943.744 L2203.67,943.933 L2204.06,944.794 L2205.56,949.365 L2205.91,950.786 L2206.64,954.11 L2205.95,954.125 L2209.08,964.417 L2209.7,966.463 L2210.39,966.205 L2210.68,967.131 L2211.27,968.997 L2211.64,972.642 L2212.01,973.658 L2212.66,975.532 L2213.06,976.707 L2213.1,976.856 L2213.3,977.402 L2213.76,978.803 L2214.11,979.933 L2214.12,980.012 L2214.9,983.589 L2214.9,983.684 L2216.41,988.01 L2216.51,988.292 L2216.93,989.249 L2217.65,992.63 L2217.3,994.36 L2216.5,998.379 L2216.48,998.491 L2216.67,998.503 L2216.95,998.509 L2220.94,998.535 L2224.53,998.561 L2227.54,998.584 L2230.03,998.602 L2231.27,998.612 L2232.97,998.625 L2235.34,998.642 L2235.84,998.646 L2239.45,998.673 L2241.15,998.686 L2244.03,998.708 L2244.59,998.712 L2250.19,998.754 L2250.46,998.756 L2250.74,998.758 L2255.96,998.798 L2256.04,998.792 L2256.56,998.752 L2260.08,998.799 L2261.96,1004.11 L2262.96,1006.94 L2263.37,1008.09 L2263.6,1008.75 L2266.09,1015.76 L2266.07,1017 L2266.06,1017.94 L2265.98,1023.24 L2265.95,1025.4 L2265.91,1028.07 L2265.91,1028.16 L2265.86,1031.33 L2266.45,1033.42 L2266.75,1046.57 L2266.77,1047.37 L2267.28,1060.77 L2267.37,1066.6 L2267.46,1070.93 L2267.45,1071.39 L2266.36,1071.48 L2266.3,1071.48 L2265.43,1070.85 L2265.41,1071.34 L2265.41,1071.51 L2265.25,1074.95 L2264.89,1081.84 L2266.5,1083.04 L2266.36,1084.54 L2264.72,1085.37 L2264.68,1095.09 L2263.37,1102.23 L2264.33,1105.87 L2263.55,1145.75 L2263.31,1158.49 L2201.3,1157.29 L2200.84,1157.74 L2197.72,1160.85 L2196.35,1162.2 L2196.12,1162.44 L2194.85,1163.7 L2190,1168.53 L2188.07,1170.44 L2187.86,1170.65 L2187.21,1171.29 L2186.03,1172.47 L2186.1,1172.48 L2186.57,1172.58 L2186.28,1172.96 L2183.29,1176.64 L2182.64,1176.75 L2182.15,1176.41 L2182.33,1176.23 L2182.32,1176.17 L2176.54,1171.82 L2175.98,1172.24 L2176.68,1176.72 L2175.21,1178.47 L2173.15,1177.66 L2171.84,1178.42 L2171.53,1178.6 L2171.24,1178.96 L2171.34,1180.95 L2170.14,1184.04 L2168.48,1188.3 L2166.99,1189.8 L2167.28,1189.89 L2168.95,1190.43 L2228.29,1189.31 L2226.42,1194.33 L2221.93,1206.37 L2221.77,1206.75 L2220.49,1210.25 L2218.21,1216.4 L2216.38,1221.43 L2214.09,1227.61 L2209.04,1241.98 L2217.48,1244.78 L2227.71,1248.17 L2242.02,1253.18 L2247.69,1255.09 L2253.82,1255.85 L2264.7,1257.14 L2271.52,1258 L2271.61,1258.01 L2295.9,1261.46 L2304.98,1266.43 L2310.17,1268.97 L2314.44,1270.97 L2318.83,1273.01 L2322.63,1275.29 L2336.08,1282.42 L2336.18,1282.49 L2343.67,1287.81 L2346.95,1290.12 L2367.79,1304.32 L2372.17,1307.21 L2397.39,1323.32 L2398.55,1324.09 L2400.27,1325.24 L2401.72,1326.2 L2404.37,1327.96 L2404.44,1328.01 L2407.68,1330.16 L2429.61,1344.66 L2433.71,1347.38 L2439.33,1351.1 L2442.09,1352.95 L2446.88,1356.12 L2449.4,1357.75 L2450,1358.17 L2452.24,1359.68 L2452.54,1359.87 L2455.63,1361.92 L2459.56,1364.52 L2462.73,1366.64 L2466.35,1369.05 L2470.44,1371.71 L2474.55,1374.32 L2477.9,1376.48 L2480.93,1378.41 L2485.14,1381.14 L2493.27,1386.41 L2499.1,1390.18 L2511.62,1398.25 L2513.48,1399.48 L2515.47,1400.79 L2517.65,1402.23 L2517.72,1402.27 L2519.94,1403.75 L2521.81,1405.06 L2524.25,1406.74 L2528.67,1409.87 L2530.2,1411.02 L2532.38,1412.55 L2534.15,1413.81 L2538.48,1416.85 L2542.14,1419.5 L2544.35,1421.33 L2545.33,1422.06 L2547.72,1423.62 L2549.73,1425.05 L2550.26,1425.4 L2551.08,1426.05 L2551.95,1426.57 L2552.61,1426.88 L2553.09,1427.07 L2553.83,1427.71 L2554.72,1428.52 L2556.45,1430.05 L2557.95,1431.47 L2558.48,1431.94 L2559.93,1433.23 L2561.03,1434.19 L2564.58,1424.83 L2565.35,1422.8 L2568.43,1421.98 L2568.51,1421.92 L2570.52,1424.51 L2570.4,1424.85 L2573.5,1424.97 L2574.49,1424.97 L2579.36,1425.4 L2580.45,1423.2 L2580.81,1423.3 L2579.59,1425.61 L2579.54,1425.65 L2579.8,1426.33 L2582.91,1427.86 L2583.06,1428.01 L2582.34,1428.65 L2582.16,1428.92 L2581,1433.08 L2580.87,1433.56 L2580.43,1434.23 L2580.29,1434.45 L2574.85,1439.39 L2567.09,1446.4 L2569.84,1448.68 L2570.1,1448.58 L2572.18,1449.63 L2570.76,1451.16 L2570.38,1451.05 L2569.18,1452.24 L2569.21,1452.29 L2568.64,1453.67 L2568.51,1454.91 L2567.95,1457.43 L2567.61,1458.92 L2567.21,1460.57 L2567.08,1460.51 L2566.88,1461.5 L2566.7,1461.68 L2566.3,1462.1 L2565.84,1463.14 L2569.07,1463.66 L2568.65,1467.43 L2568.57,1468.07 L2568.61,1468.25 L2568.53,1468.75 L2568.42,1470.23 L2568.36,1471.3 L2568.23,1472.61 L2568.25,1472.72 L2568.32,1472.98 L2568.42,1473.27 L2568.02,1476.48 L2569.71,1477.29 L2570.74,1477.2 L2570.9,1477.31 L2572.58,1477.82 L2573.99,1478.78 L2573.98,1479.07 L2567.93,1478.64 L2567.85,1478.62 L2567.84,1478.74 L2567.81,1479.29 L2567.78,1480.49 L2567.71,1482.12 L2567.66,1482.85 L2567.57,1484.11 L2568.53,1484.43 L2568.53,1486.93 L2568.75,1486.93 L2569.5,1486.73 L2569.4,1487.49 L2569.14,1487.54 L2569.07,1487.73 L2568.91,1487.84 L2567.44,1492.35 L2567.49,1492.6 L2567.74,1492.82 L2565.61,1492.6 L2567.8,1496.7 L2568,1496.75 L2568.07,1499.25 L2568.11,1501.32 L2566.67,1500.81 L2565.65,1505.47 L2565.82,1505.57 L2569.53,1507.41 L2569.16,1507.83 L2568.61,1508.9 L2568.65,1508.98 L2567.65,1511.91 L2565.49,1511.16 L2565.44,1511.19 L2566.14,1512.24 L2566.29,1515.3 L2566.8,1516.01 L2566.87,1516.21 L2566.99,1516.58 L2567.08,1517.06 L2566.72,1520.2 L2566.8,1520.25 L2566.78,1520.7 L2567.02,1521.66 L2567.5,1525.08 L2568.08,1527.31 L2567.87,1527.42 L2566.57,1527.32 L2566.14,1529.15 L2566.15,1530.62 L2565.76,1531.46 L2565.68,1532.82 L2565.7,1534.18 L2565.5,1534.81 L2565.05,1535.03 L2564.62,1535.97 L2564.2,1537.13 L2564.32,1537.18 L2563.34,1539.75 L2562.89,1539.97 L2564.72,1543.4 L2562.51,1543.22 L2562.07,1546.32 L2560.04,1546.42 L2559.15,1546.92 L2553.89,1549.3 L2552.43,1549.98 L2550.57,1550.88 L2549.94,1551.17 L2550.51,1552.97 L2546.29,1553.18 L2546.22,1552.9 L2540.59,1555.52 L2527.34,1562.62 L2507.58,1573.17 L2502.28,1575.55 L2498.95,1567.41 L2497.74,1563.05 L2494.79,1560.63 L2493.87,1558.36 L2493.53,1550.88 L2494.7,1547.11 L2488.11,1546.61 L2488.28,1545.81 L2487.15,1545.48 L2486.92,1546.52 L2485.78,1546.43 L2475.64,1544.2 L2468.35,1541.99 L2463.81,1539.63 L2460.97,1537.21 L2458.05,1534.24 L2455.8,1530.06 L2458.08,1536.54 L2459.58,1541.15 L2462.67,1548.48 L2475.13,1555.45 L2483.08,1553.49 L2483.86,1554.92 L2486.16,1559.18 L2485.85,1560 L2485.78,1560.19 L2487.1,1561.03 L2485.79,1562.76 L2487.05,1572.01 L2488.63,1574.13 L2488.98,1574.8 L2488.69,1582.59 L2489.26,1584.79 L2489.75,1586.38 L2489.97,1587.28 L2490.53,1588.33 L2490.57,1588.51 L2490.6,1589 L2490.72,1589.67 L2491.26,1590.77 L2491.36,1591.89 L2491.53,1592.31 L2491.88,1593.53 L2491.9,1593.81 L2492.31,1604.43 L2492.24,1604.58 L2491.97,1604.82 L2491.61,1605.5 L2491.16,1607.86 L2491.05,1608.31 L2491.04,1608.55 L2490.8,1609.06 L2490.61,1609.59 L2488.07,1615.2 L2504.2,1631.39 L2514.16,1671.33 L2522.95,1659.31 L2516.23,1657.65 L2516.79,1656.93 L2518.4,1656.64 L2519.14,1656.16 L2527.54,1646.76 L2528.97,1646.59 L2530.46,1646.08 L2530.68,1645.92 L2530.88,1645.88 L2537.78,1641.97 L2542.75,1641.05 L2543.6,1641.08 L2552.45,1643.13 L2553.9,1644.04 L2556.14,1643.14 L2556.77,1643.03 L2557.24,1642.65 L2558.79,1638.88 L2560.84,1639.82 L2562.51,1641.71 L2572.31,1644.26 L2575.08,1646.37 L2577.41,1647.43 L2577.74,1648.38 L2580.71,1647.62 L2582.98,1648.07 L2589.29,1647.65 L2590.82,1647.16 L2594.57,1646.33 L2595.05,1646.38 L2599.02,1647.45 L2602.59,1646.48 L2602.74,1646.16 L2624.15,1651.38 L2622.62,1670.88 L2618.24,1726.35 L2598.08,1725.01 L2526.33,1720.24 L2488.43,1733.07 L2480.41,1735.78 L2474.19,1737.89 L2467.82,1740.04 L2461.3,1742.25 L2449.35,1746.3 L2444.9,1747.8 L2439.16,1749.75 L2426.04,1754.19 L2415.56,1757.74 L2406.63,1760.77 L2400.28,1762.92 L2393.42,1765.24 L2392.86,1765.43 L2388.92,1766.77 L2386.06,1767.74 L2380.09,1769.76 L2372.7,1772.26 L2368.75,1773.6 L2367.14,1774.15 L2359.31,1776.79 L2352.84,1779.01 L2331.58,1786.31 L2328.69,1787.3 L2327.14,1787.83 L2302.3,1796.36 L2290.69,1800.35 L2272.84,1806.48 L2267.85,1808.19 L2267.79,1808.21 L2222.24,1823.85 L2222.02,1823.93 L2220.19,1848.69 L2214.65,1848.05 L2182.36,1844.33 L2181.81,1844.26 L2182.18,1850.13 L2182.11,1852.98 L2182.02,1856.49 L2181.56,1875.02 L2181.37,1882.53 L2176.02,1882.09 L2175.74,1895.33 L2175.72,1896.73 L2175.43,1898.69 L2173.87,1902.79 L2174.57,1909.88 L2172.43,1911.02 L2169.89,1912.15 L2168.01,1911.53 L2165.47,1912.07 L2157.47,1917.03 L2145.43,1924.49 L2145.83,1925.48 L2146.44,1925.96 L2148.05,1926.96 L2148.4,1927.05 L2150.34,1931.07 L2150.16,1931.33 L2150.13,1931.24 L2148.17,1931.04 L2147.56,1934.35 L2146.62,1934.27 L2144.73,1939.7 L2142.47,1944.45 L2141.88,1945.2 L2142.09,1945.26 L2141.95,1945.56 L2141.73,1946.02 L2141.41,1945.92 L2141.32,1946.88 L2140.1,1949.46 L2139.21,1956.04 L2136.3,1959.12 L2131.18,1962.37 L2126.71,1965.04 L2124.99,1968.38 L2122.1,1974 L2121.89,1974.41 L2121.8,1974.4 L2117.3,1982.51 L2115.3,1986.11 L2108.76,1997.88 L2104.93,1996.7 L2104.65,1997.33 L2104.37,1997.27 L2101.17,1995.82 L2084.56,1988.27 L2084.43,1988.38 L2069.39,2000.58 L2062.74,2005.97 L2059.53,2008.67 L2062.4,2012.26 L2065.69,2016.25 L2068.76,2020.43 L2071.42,2024.01 L2075.34,2028.21 L2077.8,2031.4 L2072.32,2031.7 L2063.99,2035.77 L2063.4,2036.06 L2051.51,2041.16 L2051.24,2043.9 L2050.84,2042.91 L2049.58,2042.7 L2047.27,2042.66 L2044.3,2043.78 L2043.23,2044.94 L2042.36,2046.3 L2041.46,2048.84 L2040.37,2050.79 L2040.76,2052.37 L2041.57,2054.15 L2042.58,2056.33 L2043.18,2057.52 L2043.17,2058.31 L2042.74,2058.89 L2042.5,2060.07 L2042.91,2060.47 L2042.27,2061.04 L2039.95,2061.59 L2038.69,2061.38 L2037.63,2061.55 L2037.56,2064.96 L2037.55,2065.68 L2038.37,2066.87 L2033.32,2066.98 L2027.36,2070.22 L2023.47,2075.46 L2022.14,2078.78 L2019.42,2078.14 L2018.55,2079.3 L2015.78,2081.02 L2013.05,2080.58 L2011.93,2084.1 L2012.95,2085.69 L2017.51,2089.11 L2015.65,2093.32 L2015.53,2093.6 L2013.78,2099.4 L2012.4,2098.33 L2005.09,2100.3 L2002.21,2098.51 L1992.11,2121.66 L1991.96,2121.86 L1990.98,2121.47 L1986.1,2119.78 L1983.66,2123.83 L1981.8,2127.37 L1972.9,2129.92 L1968.56,2133.25 L1963.3,2149.5 L1956.03,2166.17 L1952.67,2164.27 L1952.12,2165.67 L1949.05,2167.73 L1948.43,2168.2 L1944.68,2165.3 L1942.77,2166.64 L1940.22,2167.58 L1935.33,2170.45 L1928.24,2177.79 L1919.22,2175.68 L1902.68,2172.44 L1903.04,2164.78 L1892.15,2162.63 L1887.05,2175.71 L1882.35,2190.57 L1878.1,2203.67 L1857.35,2199.78 L1847.99,2198.01 L1844.65,2197.38 L1842.47,2196.97 L1811.99,2191.51 L1798.87,2189.16 L1798.95,2207.05 L1794.25,2210.7 L1789.56,2213.97 L1789.41,2222.02 L1789.16,2223.99 L1789.07,2224.75 L1790.02,2225.48 L1790.72,2226.47 L1789.47,2228.29 L1789.43,2228.39 L1787.9,2230.42 L1782.69,2237.79 L1785.2,2239.77 L1775.05,2262.2 L1775.64,2262.22 L1774.95,2263.06 L1774.47,2264.02 L1774.07,2264.82 L1772.55,2268.54 L1772.53,2269.83 L1771.15,2271.93 L1769.27,2272.28 L1765.21,2274.27 L1762.66,2276.2 L1760.51,2277.67 L1758.73,2278.62 L1756.76,2279.8 L1751.47,2278.51 L1748.02,2282.4 L1744.84,2280.97 L1741.98,2280.31 L1736.4,2280.55 L1732.4,2280.24 L1728.58,2279.3 L1724.2,2278.36 L1719.06,2275.56 L1700.6,2276.53 L1697.3,2276.51 L1686.52,2277.14 L1671.25,2277.88 L1671.19,2277.88 L1670.69,2277.91 L1666.14,2278.11 L1665.98,2277.92 L1662.54,2273.92 L1660.39,2271.4 L1659.88,2270.82 L1656.52,2263.57 L1655.79,2259.1 L1656.94,2255.32 L1655.95,2255.21 L1654.54,2255.05 L1647.24,2254.24 L1642.83,2253.75 L1636.31,2253.03 L1635.33,2252.92 L1626.17,2252.2 L1624.49,2252.07 L1620.2,2251.73 L1618.5,2251.6 L1612.94,2251.16 L1606.58,2250.67 L1603.49,2250.42 L1603.55,2250.6 L1604.13,2252.13 L1604.31,2252.59 L1605.91,2256.82 L1607.18,2260.15 L1607.93,2262.14 L1607.96,2262.22 L1607.34,2268.06 L1606.8,2273.03 L1606.43,2276.49 L1606.41,2276.74 L1611.31,2277.69 L1612.39,2277.88 L1614.71,2278.47 L1616.37,2278.72 L1618.64,2279.26 L1619.75,2279.46 L1622.26,2280.01 L1619.01,2285.13 L1618.87,2285.35 L1616.47,2290.03 L1616.14,2290.44 L1611.53,2298.52 L1611.08,2299.36 L1609.66,2302.24 L1609.39,2302.17 L1604.17,2311.69 L1599.34,2320.52 L1590.04,2337.66 L1574.24,2333.92 L1573.59,2333.64 L1566.33,2330.11 L1562.37,2336.74 L1556.16,2347.15 L1549.3,2344.06 L1543.78,2341.58 L1543.02,2341.24 L1524.67,2332.96 L1524.03,2332.63 L1508.84,2324.77 L1494.71,2317.34 L1466.55,2302.54 L1460.77,2285.47 L1450.2,2283.62 L1437.4,2281.49 L1435.57,2283.7 L1428.39,2282.65 L1426.89,2282.32 L1423.87,2281.5 L1422.02,2281.03 L1422.84,2278.52 L1402.57,2272.82 L1394.37,2270.62 L1384.43,2267.87 L1378.09,2266.1 L1378.39,2265.27 L1380.49,2260.35 L1384.4,2252.8 L1376.66,2251.72 L1371.81,2250.65 L1365.29,2250.16 L1363.01,2248.74 L1360.5,2247.72 L1354.44,2245.46 L1351.67,2244.5 L1351.27,2244.36 L1350.89,2244.23 L1342.75,2240.76 L1339.95,2239.38 L1337.11,2239.14 L1326.19,2237.75 L1323,2237.32 L1316.74,2236.23 L1311.58,2236.19 L1304.13,2235.76 L1302.22,2232.72 L1296.93,2228.33 L1292.98,2225.24 L1291.6,2223.45 L1288.82,2221.16 L1287.16,2218.82 L1285.75,2218.07 L1282.9,2217.16 L1280.02,2217.68 L1276.99,2219.22 L1278.92,2221.78 L1280.12,2224.8 L1280.18,2224.95 L1278.47,2224.82 L1272.26,2224.58 L1267.19,2224.04 L1261.43,2223.04 L1266.11,2219.65 L1267.77,2219.22 L1270.21,2219.27 L1270.96,2216.26 L1275.81,2216.04 L1275.31,2212 L1275.13,2210.62 L1275.35,2210.03 L1278.32,2208.5 L1280.43,2207.95 L1280.88,2206.38 L1280.69,2205.2 L1279.65,2204.4 L1278.4,2203.98 L1276.53,2202.38 L1275.51,2200.79 L1276,2196.87 L1275.8,2194.8 L1272.47,2192.59 L1274.02,2189.5 L1270.92,2186.57 L1270.58,2182.04 L1256.27,2182.41 L1248.49,2182.29 L1245.54,2182.44 L1242.58,2183.38 L1238.76,2185.29 L1235.35,2187.59 L1229.44,2188.88 L1228.41,2187.49 L1228.36,2186.86 L1228.24,2185.32 L1227.63,2183.94 L1227.29,2182.69 L1226.87,2181.2 L1227.77,2173.34 L1220.38,2170.86 L1219.97,2170.18 L1216.57,2169.1 L1211.29,2167.43 L1210.86,2167.01 L1204.81,2164.12 L1203.42,2163.47 L1198.24,2160.98 L1196.32,2160.09 L1191.26,2157.68 L1155.22,2140.53 L1139.25,2133.02 L1131.93,2129.91 L1131.33,2129.62 L1121.35,2124.87 L1118.43,2123.51 L1084.2,2106.87 L1083.88,2106.57 L1083.85,2106.53 L1086.92,2101.5 L1087.41,2100.39 L1086.94,2100.25 L1084.88,2099.62 L1081.15,2098.19 L1079.93,2097.81 L1079.77,2097.64 L1079.13,2097.39 L1070.05,2093.83 L1063.74,2087.58 L1062.33,2085 L1056.42,2082.99 L1048.89,2082.8 L1039.85,2081.5 L1037.06,2081.35 L1035.16,2081.24 L1029.82,2080.77 L1023.31,2083.28 L1018.13,2084.63 L1017.52,2084.49 L1016.38,2085.31 L1013.71,2085.79 L1012.33,2085.8 L1007.37,2084.25 L1005.82,2083.68 L998.017,2083.15 L995.593,2082.37 L989.911,2082.28 L976.47,2082.09 L966.983,2081.95 L966.129,2069.75 L966.149,2068.56 L966.176,2067 L966.275,2065.88 L966.438,2064.05 L966.685,2061.69 L965.903,2058.14 L963.022,2057.31 L958.779,2056.07 L957.305,2056.28 L956.248,2056.43 L950.682,2062.25 L949.377,2064.59 L948.29,2066.74 L947.027,2066.72 L946.098,2066.7 L945.133,2066.69 L940.123,2064.26 L935.545,2061.24 L933.028,2060.42 L930.742,2058.81 L929.494,2058.01 L927.811,2057.79 L926.349,2057.18 L924.658,2057.55 L922.552,2057.52 L921.293,2057.5 L919.413,2056.69 L918.376,2055.69 L916.715,2054.29 L914.846,2052.88 L911.728,2050.28 L906.955,2046.28 L904.976,2045.28 L902.569,2044.05 L901.534,2043.06 L896.547,2039.06 L894.669,2037.58 L889.9,2033.85 L888.449,2032.25 L885.941,2031.23 L883.608,2032.38 L881.686,2033.92 L880.186,2035.67 L878.056,2037.22 L872.138,2038.7 L869.407,2038.27 L866.429,2040.39 L864.066,2043.11 L858.812,2042.64 L854.84,2040.82 L853.723,2039.52 L852.776,2038.43 L850.903,2037.03 L847.986,2035.41 L843.534,2037.12 L839.95,2037.65 L837.836,2038.02 L835.288,2039.36 L834.004,2040.72 L831.675,2041.67 L829.144,2042.03 L827.887,2041.62 L827.055,2041.01 L825.576,2041.39 L825.578,2040.99 L823.497,2039.59 L820.994,2038.17 L819.723,2038.75 L815.334,2036.91 L813.643,2037.28 L811.743,2037.45 L808.781,2038.39 L807.295,2039.36 L805.596,2040.32 L803.677,2041.67 L802.393,2043.02 L801.743,2044.19 L801.307,2044.98 L800.451,2045.95 L798.948,2047.89 L798.496,2049.85 L798.038,2052.01 L796.965,2053.37 L795.872,2055.91 L795.015,2056.88 L793.303,2058.43 L791.816,2059.39 L790.752,2060.16 L789.692,2060.74 L788.63,2061.12 L787.351,2062.08 L786.092,2062.06 L783.979,2062.62 L782.071,2063.19 L779.761,2063.16 L778.711,2062.75 L777.671,2062.14 L776.414,2061.54 L775.16,2061.32 L773.261,2061.49 L772.195,2062.07 L771.57,2061.86 L769.888,2061.84 L767.991,2062.01 L761.435,2063.69 L761.196,2064.52 L759.876,2069.17 L757.868,2076.42 L755.089,2079.13 L754.253,2080.01 L754.155,2080.11 L751.022,2083.4 L746.955,2087.47 L746.927,2089.24 L746.855,2093.81 L746.761,2099.78 L746.717,2102.61 L751.277,2107 L749.251,2115.23 L745.168,2115.02 L744.924,2115.01 L743.993,2114.96 L738.523,2114.69 L737.475,2114.48 L733.904,2114.03 L729.687,2113.5 L728.654,2113.37 L725.649,2113.25 L721.81,2113.1 L720.872,2113.07 L719.602,2113.64 L716.888,2112.42 L716.262,2112.02 L713.515,2112.57 L710.573,2112.33 L708.955,2108.38 L707.52,2104.65 L707.131,2103.64 L702.679,2105.74 L702.233,2107.5 L701.79,2108.87 L701.328,2111.42 L700.255,2112.59 L698.981,2113.55 L698.111,2115.11 L698.093,2116.49 L699.12,2117.88 L700.153,2119.07 L699.277,2121.42 L698.014,2121.4 L697.356,2122.97 L696.918,2124.14 L696.261,2125.9 L695.822,2126.88 L697.069,2127.88 L697.262,2129.06 L697.022,2130.83 L696.6,2131.02 L695.094,2133.16 L692.953,2135.29 L691.467,2136.26 L689.143,2136.81 L685.332,2138.14 L680.685,2139.26 L675.612,2140.76 L671.599,2141.69 L667.791,2142.81 L664.412,2143.75 L659.837,2143.89 L660.504,2143.22 L650.466,2132.14 L645.059,2136.11 L643.926,2135.02 L642.466,2134.21 L635.306,2129.56 L634.37,2128.96 L621.72,2120.62 L614.308,2115.78 L610.311,2112.59 L608.115,2111.09 L598.474,2104.54 L596.866,2104.86 L595.143,2104.61 L592.634,2103.37 L590.565,2102.29 L589.398,2101.26 L587.424,2099.27 L583.929,2095.51 L576.272,2102.55 L574.327,2100.26 L571.886,2096.54 L569.531,2093.03 L567.973,2091.05 L571.441,2086.12 L570.699,2084.94 L570.16,2084.51 L569.3,2084.41 L568.086,2083.7 L566.782,2082.44 L566.002,2082.59 L564.957,2082.53 L564.055,2082.05 L563.248,2081.32 L562.259,2080.59 L560.13,2080.08 L558.451,2079.89 L556.93,2079.44 L555.567,2078.46 L554.909,2076.47 L554.254,2074.32 L553.764,2072.59 L549.136,2068.53 L547.321,2066.99 L546.506,2065.61 L544.795,2063.66 L544.139,2063.22 L543.692,2062.6 L542.956,2061.97 L542.26,2061.52 L542.273,2060.64 L541.825,2060.02 L541.666,2059.59 L541.179,2058.97 L540.096,2058.13 L538.88,2057.68 L537.831,2057.39 L536.079,2058.03 L534.951,2057.42 L534.077,2056.66 L533.368,2056.14 L532.833,2055.31 L532.8,2055.22 L532.509,2054.44 L532.226,2053.65 L532.036,2053.25 L530.921,2052.97 L530.469,2052.73 L529.807,2052.49 L529.232,2052.44 L528.417,2052.34 L527.846,2052.02 L527.517,2051.61 L527.146,2050.71 L527.035,2049.58 L526.259,2049.31 L525.223,2048.83 L523.429,2047.94 L522.043,2047.32 L520.626,2046.79 L519.731,2046.37 L518.953,2045.95 L518.142,2045.75 L517.245,2045.5 L516.523,2045.16 L515.743,2044.8 L515.282,2044.52 L514.737,2044.08 L514.047,2043.55 L513.5,2043.22 L512.429,2042.14 L511.595,2041.5 L511.253,2041.09 L511.141,2040.79 L510.379,2039.29 L510.302,2038.58 L509.117,2038.1 L508.247,2038.01 L507.839,2038.06 L506.27,2037.79 L506.112,2037.76 L504.368,2037.46 L503.207,2037.34 L502.308,2037.19 L501.801,2037.06 L501.345,2036.95 L500.773,2036.7 L500.336,2036.51 L499.208,2036.16 L498.268,2036.11 L497.81,2036.08 L497.15,2036.45 L496.587,2036.79 L496.205,2036.73 L495.833,2036.67 L494.247,2035.81 L493.236,2035.34 L492.013,2035.46 L491.29,2035.26 L490.653,2035.08 L490.589,2034.37 L489.461,2034.03 L489.073,2033.96 L488.094,2033.81 L486.511,2033.12 L485.794,2031.83 L485.84,2030.53 L485.887,2029.09 L485.716,2028.53 L485.132,2028.07 L484.653,2027.6 L484.503,2027.07 L484.328,2026.57 L484.42,2026.29 L484.289,2026.06 L483.588,2024.76 L482.926,2024.25 L482.09,2023.94 L481.577,2023.43 L481.389,2022.91 L481.663,2022.46 L481.499,2022.14 L481.236,2021.72 L480.68,2021.56 L479.932,2021.12 L479.99,2020.53 L480.312,2020.15 L480.511,2019.81 L480.315,2019.54 L479.554,2019.3 L478.567,2018.54 L477.73,2018.28 L477.346,2017.96 L477.253,2017.53 L477.283,2017.08 L477.418,2016.57 L476.961,2015.66 L476.733,2015.01 L476.735,2013.85 L476.878,2012.58 L477.49,2011.79 L477.819,2010.99 L477.836,2009.8 L476.899,2008.39 L477.759,2007.62 L479.441,2007.59 L479.589,2007.02 L479.225,2006.46 L478.723,2005.88 L477.639,2005.11 L477.113,2004.47 L477.37,2003.78 L476.815,2003.6 L476.685,2002.33 L475.282,2001.71 L473.623,1998.56 L473.46,1998.58 L473.661,1999.62 L473.167,1999.87 L471.842,1998.74 L471.6,1998.81 L471.361,1999.03 L470.841,1998.84 L470.857,1996.78 L467.422,1992.59 L467.706,1991.45 L465.986,1990.81 L466.456,1989.23 L466.177,1988.92 L464.127,1988.26 L465.508,1985.88 L465.324,1985.14 L463.874,1983.54 L463.587,1982.67 L464.391,1980.91 L463.857,1980.44 L461.984,1980.42 L461.645,1979.93 L462.619,1979.14 L462.058,1977.3 L460.04,1977.62 L459.803,1977.48 L460.316,1975.41 L458.649,1975.25 L458.033,1975.04 L458.067,1974.56 L458.235,1973.96 L457.878,1973.77 L457.14,1971.79 L456.739,1971.1 L457.629,1970.22 L457.475,1969.96 L454.875,1968.65 L454.377,1968.64 L453.794,1967.95 L455.309,1966.64 L455.271,1966.1 L453.579,1965.02 L453.488,1964.98 L452.77,1964.68 L451.201,1964.52 L449.433,1964.78 L447.437,1964.9 L445.72,1964.65 L444.301,1964.74 L442.615,1964.7 L441.487,1965.39 L440.698,1965.96 L440.137,1966.57 L439.181,1966.9 L438.42,1966.96 L437.747,1966.94 L437.345,1966.63 L436.405,1965.93 L435.51,1965.18 L434.185,1964.63 L433.41,1963.97 L432.688,1963.6 L431.845,1963.57 L431.006,1963.31 L430.308,1962.2 L429.473,1959.38 L429.272,1957.85 L429.309,1957.76 L430.26,1955.27 L431.124,1954.48 L431.332,1953.58 L431.42,1952.86 L431.689,1951.34 L431.753,1950.82 L431.341,1949.75 L430.631,1950.61 L430.401,1951.03 L430.202,1950.86 L429.902,1951.94 L429.55,1952.56 L428.477,1953.71 L428.386,1953.64 L427.659,1954.52 L426.825,1956.16 L424.286,1959.45 L423.259,1960.15 L419.148,1961.01 L416.506,1961.14 L414.749,1960.57 L411.243,1960.34 L409.851,1961.09 L408.976,1961.26 L407.689,1962.28 L407.182,1962.17 L408.844,1951.48 L414.215,1939.33 L410.566,1934.11 L413.967,1930.8 L414.717,1930.57 L415.029,1930.46 L415.576,1930.29 L415.99,1928.91 L417.755,1924.27 L419.813,1918.87 L420.071,1916.1 L420.442,1911.35 L420.269,1911.19 L416.874,1908.09 L414.605,1906.13 L413.844,1905.48 L413.944,1903.89 L414.017,1902.73 L419.861,1897.85 L420.314,1887.36 L414.231,1886.34 L408.487,1885.38 L402.772,1886.92 L396.934,1887.76 L390.835,1877.66 L390.364,1875.01 L388.56,1873.57 L386.35,1869.92 L382.739,1865.32 L378.026,1864.39 L374.928,1861.69 L374.752,1862.39 L373.166,1861.64 L373.087,1861.6 L368.903,1859.61 L368.013,1858.33 L363.128,1852.11 L362.437,1848.84 L361.818,1845.19 L364.76,1837.23 L367.082,1834.87 L370.213,1832.34 L374.295,1828.28 L375.415,1827.2 L376.808,1826.64 L378.447,1824.49 L380.299,1823.14 L382.315,1822.67 L384.566,1821.61 L385.329,1821.25 L385.657,1817.62 L385.925,1813.7 L386.056,1811.79 L387.216,1810.93 L387.09,1806.85 L387.433,1804.76 L388.828,1803.38 L389.103,1801.69 L390.758,1799.67 L393.544,1797.07 L392.752,1795.94 L392.138,1793.97 L391.442,1791.01 L391.231,1787.66 L391.201,1787.19 L391.5,1785.33 L392.869,1784.59 L394.692,1783.81 L396.449,1781.72 L399.774,1780.37 L401.951,1777.71 L402.267,1776.08 L401.882,1775.31 L401.558,1774.66 L400.427,1772.37 L400.574,1770.77 L399.986,1768.93 L400.582,1767.21 L401.128,1766.19 L401.998,1765.82 L403.516,1764.85 L403.948,1763.78 L404.814,1763.22 L404.964,1763.18 L406.421,1762.74 L405.771,1762.18 L403.922,1760.58 L404.437,1758.87 L405.064,1757.42 L405.326,1756.82 L407.075,1755.53 L408.774,1753.91 L409.383,1753.33 L410.423,1752.05 L411.411,1749 L411.879,1746.91 L412.134,1745.77 L411.63,1742.04 L414.554,1738.87 L415.266,1733.73 L415.239,1730.23 L416.235,1727.71 L418.582,1725.72 L420.167,1725.4 L421.247,1725.18 L422.469,1723.74 L422.897,1723.36 L423.426,1722.88 L425.34,1721.14 L426.55,1719.78 L428.947,1715.41 L429.118,1714.4 L422.971,1712.43 L422.696,1708.81 L425.726,1707.84 L426.88,1706.49 L427.2,1704.2 L426.486,1701.51 L427.297,1700.07 L428.171,1699.07 L428.099,1697.85 L428.865,1696.11 L429.276,1695.69 L429.664,1695.2 L429.83,1694.57 L429.797,1693.78 L429.66,1692.89 L429.705,1690.83 L429.513,1689.37 L429.366,1687.69 L428.954,1686.6 L428.309,1685.74 L428.551,1684.84 L430.571,1683.29 L436.794,1670.81 L437.688,1669.02 L436.783,1666.47 L440.053,1656.77 L440.42,1656.54 L442.145,1653.89 L446.081,1653.61 L449.907,1654.58 L450.946,1652.14 L452.023,1649.62 L467.841,1628.65 L472.777,1621.39 L476.284,1614.3 L475.595,1611.52 L478.204,1602.44 L481.268,1596.01 L510.989,1533.62 L511.455,1532.64 L517.43,1525.15 L517.154,1522.71 L517.423,1521.54 L519.663,1520.76 L520.671,1520.47 L520.696,1518.87 L520.424,1517.93 L520.975,1517.07 L521.063,1516 L521.94,1514.94 L523.239,1514.39 L524.14,1514.1 L524.443,1513.07 L525.072,1512.13 L525.878,1511.04 L527.149,1510.02 L528.748,1508.64 L529.594,1507.29 L530.54,1506.62 L531.773,1505.66 L532.76,1505.11 L532.931,1505.01 L533.485,1503.99 L533.902,1502.61 L534.021,1500.92 L534.686,1499.67 L535.621,1498.87 L536.231,1498.15 L538.411,1496.38 L540.715,1493.67 L541.801,1491.72 L541.926,1491.49 L541.862,1489.76 L544.867,1489.62 L545.944,1489.51 L550.716,1488.38 L555.281,1488.53 L558.097,1487.88 L559.693,1486.05 L560.243,1482.52 L560.84,1480.19 L561.933,1477.59 L562.418,1476.13 L562.547,1475.74 L562.579,1473.67 L562.959,1471.83 L561.949,1469.09 L561.24,1465.53 L561.924,1463.32 L563.062,1462.55 L563.49,1462.26 L565.316,1461.55 L567.606,1461.02 L569.427,1460.4 L571.472,1459.02 L572.311,1457.63 L573.355,1457.36 L574.91,1457.02 L575.007,1456.88 L575.57,1456.07 L575.907,1454.05 L576.83,1452.86 L577.312,1452.27 L576.687,1450.98 L576.532,1449.85 L577.917,1449.39 L578.454,1448.11 L579.389,1446.08 L580.56,1445.57 L582.383,1444.67 L583.304,1443.6 L584.389,1442.49 L587.376,1442.77 L590.897,1442.22 L592.222,1440.66 L593.159,1438.97 L593.702,1437.53 L591.989,1436.93 L589.287,1436.49 L587.843,1435.62 L587.796,1435.19 L587.666,1433.99 L588.869,1433.11 L590.802,1433.38 L592.112,1432.34 L593.36,1432.11 L594.621,1431.34 L595.905,1430.91 L597.024,1430.09 L598.836,1429.82 L600.292,1429.59 L602.534,1428.76 L603.833,1428.4 L604.94,1426.98 L605.761,1425.56 L607.029,1424.78 L608.3,1423.78 L608.836,1422.36 L608.517,1420.86 L609.438,1419.18 L611.014,1417.68 L611.283,1416.97 L611.632,1416.04 L611.585,1414.32 L611.686,1412.6 L612.817,1411.23 L614.693,1409.47 L616.183,1408.59 L616.229,1408.53 L617.612,1406.91 L618.646,1404.89 L619.722,1403.17 L620.313,1401.98 L620.775,1400.02 L620.913,1397.31 L620.807,1394.95 L620.025,1393.17 L620.097,1391.61 L620.991,1390.45 L622.562,1389.18 L623.962,1388.42 L625.306,1386.83 L625.299,1386.74 L625.131,1384.69 L624.254,1383.24 L622.26,1382.05 L620.525,1380.66 L619.056,1378.15 L618.339,1375.8 L618.12,1373.79 L618.01,1371.16 L617.941,1369.15 L619.221,1367.4 L619.589,1364.17 L621.271,1362.72 L624.52,1362.31 L625.228,1361.91 L627.152,1360.8 L629.388,1359.29 L631.391,1357.55 L632.488,1356.02 L634.445,1354.42 L636.759,1353.43 L638.303,1351.73 L640.979,1350.79 L642.894,1349.14 L646.431,1347.35 L649.876,1345.64 L653.475,1345.03 L656.227,1343.12 L658.185,1342.26 L660.02,1342.09 L661.704,1341.48 L663.013,1341.45 L663.608,1340.48 L664.508,1339.86 L665.517,1338.95 L667.79,1338.25 L669.47,1337.93 L670.22,1336.87 L671.695,1336.26 L672.757,1335.3 L674.703,1334.69 L676.189,1333.82 L677.515,1332.72 L678.688,1331.85 L680.843,1331.24 L682.471,1331.21 L684.22,1330.26 L685.234,1329.01 L686.869,1328.25 L689.385,1327.99 L692.984,1327.44 L695.691,1327.28 L697.974,1327.16 L700.841,1326.76 L704.678,1324.66 L711.796,1321.28 L715.638,1318.7 L716.721,1318.36 L717.222,1318.57 L717.661,1319.71 L718.272,1320.13 L718.432,1319.98 L718.904,1319.55 L718.953,1319.05 L718.833,1318.29 L718.985,1317.62 L719.395,1316.63 L719.603,1315.55 L719.94,1314.56 L720.118,1314.18 L720.599,1313.68 L724.644,1311.88 L727.582,1310.13 L728.92,1309.23 L729.612,1309.04 L730.652,1308.8 L732.88,1308.89 L734.538,1308.95 L735.701,1308.11 L736.748,1307.5 L737.9,1306.78 L740.368,1305.4 L741.944,1304.78 L742.878,1304.41 L744.053,1304.26 L745.978,1303.51 L747.16,1302.58 L748.199,1301.29 L750.235,1300.09 L751.182,1299.64 L752.034,1299.07 L753.131,1298.72 L753.915,1298.23 L754.759,1297.15 L755.301,1296.53 L755.444,1296.37 L756.796,1295.61 L758.315,1295.08 L759.682,1294.18 L760.532,1293.39 L761.006,1292.54 L760.846,1291.19 L759.815,1287.65 L759.44,1283.44 L759.19,1280.26 L758.956,1277.88 L758.81,1276.18 L758.848,1274.63 L759.272,1272.32 L760.088,1268.71 L760.119,1268.57 L760.222,1268.21 L760.367,1267.3 L760.795,1265.23 L760.93,1264.91 L762.581,1255.87 L764.082,1254.88 L766.463,1254.46 L768.323,1254.08 L769.076,1253.32 L769.224,1253.17 L770.753,1251.13 L773.71,1246.85 L776.51,1242.79 L777.232,1241.67 L777.133,1241.12 L776.992,1240.34 L773.919,1237.07 L772.707,1235.69 L772.474,1235.41 L772.398,1235.29 L771.893,1234.49 L771.467,1230.41 L770.905,1226.3 L770.998,1225.13 L771.337,1224.26 L771.987,1223.46 L772.122,1223.26 L772.209,1223.13 L773.408,1222.31 L775.185,1221.73 L776.873,1220.97 L778.327,1220.34 L779.624,1219.07 L780.892,1217.37 L781.444,1215.84 L781.769,1214.13 L782.256,1212.77 L782.44,1211.61 L781.964,1209.91 L781.185,1209.38 L780.231,1208.38 L779.092,1207.07 L779.351,1206.81 L780.59,1207.71 L782.313,1208.34 L783.738,1208.53 L786.214,1208.72 L788.256,1208.1 L788.369,1208.07 L790.085,1206.86 L791.171,1206.25 L793.17,1205.1 L795.274,1204.19 L796.982,1202.76 L797.382,1199.91 L797.371,1197.52 L797.615,1195.21 L798.31,1193.75 L800.541,1190.96 L802.622,1188.7 L804.273,1185.33 L804.446,1184.98 L804.908,1182.04 L805.638,1180.19 L806.358,1178.99 L807.177,1177.79 L807.716,1177.05 L805.831,1173.9 L804.637,1171.9 L801.62,1167.42 L798.819,1162.79 L796.498,1160.17 L794.484,1157.66 L795.557,1154.9 L794.976,1152.78 L795.14,1149.06 L793.699,1145.36 L793.673,1144.48 L793.607,1142.24 L794.776,1139.88 L795.627,1138.16 L796.138,1137.03 L798.986,1138.49 L801.457,1138.84 L803.645,1138.78 L805.483,1138.47 L807.139,1138.11 L809.171,1137.09 L810.248,1136.41 L810.84,1136.03 L811.711,1133.31 L812.692,1132.16 L813.59,1130.55 L814.044,1128.46 L814.575,1126 L812.536,1121.2 L811.169,1118.82 L809.307,1116.5 L808.057,1113.2 L808.291,1109.38 L807.834,1105.73 L807.736,1103.5 L807.946,1102.06 L809.519,1101.02 L810.88,1101.38 L811.685,1101.59 L813.964,1102.23 L817.055,1101.87 L818.758,1102.53 L820.694,1103.92 L821.541,1106.27 L823.229,1107.6 L824.071,1108 L825.873,1108.86 L828.242,1108.56 L831.663,1108.47 L833.885,1108.46 L836,1108.25 L838.375,1108.1 L840.33,1106.98 L841.614,1105.33 L843.953,1104.32 L846.521,1103.99 L845.345,1102.48 L843.832,1101.75 L841.708,1101.46 L839.198,1100.82 L838.506,1099.99 L838.671,1099.67 L838.952,1099.11 L840.814,1098.72 L842.807,1097.97 L844.962,1096.66 L846.375,1094.13 L846.894,1090.51 L848.892,1089.47 L848.692,1088.04 L849.479,1086.38 L850.613,1085.5 L851.945,1084.56 L854.017,1083.59 L855.402,1082.64 L856.261,1081.41 L857.959,1080.75 L859.096,1079.67 L859.019,1077.59 L859.847,1075.21 L860.266,1071.1 L860.273,1071.03 L860.969,1066.37 L860.099,1062.98 L859.138,1060.28 L859.637,1058.7 L860.2,1057.15 L860.899,1055.48 L861.252,1054.09 L861.467,1051.86 L862.106,1049.58 L862.871,1046.29 L863.692,1042.94 L865.381,1040.36 L868.155,1037.85 L870.753,1036.11 L872.536,1034.1 L873.3,1032.35 L868.104,1031.66 L868.752,1027.1 L806.406,989.526 L807.163,962.098 L807.803,938.925 L808.765,904.063 L809.181,888.987 L821.906,889.066 L853.507,889.265 L932.634,889.777 L934.765,889.791 L936.896,889.805 L939.027,889.819 L949.682,889.889 L951.813,889.903 L960.338,889.96 L962.469,889.974 L970.993,890.031 L1060.5,890.642 L1062.63,890.657 L1064.83,890.675 L1067.04,890.692 L1068.28,890.703 L1069.24,890.71 L1115.56,891.086 L1117.76,891.104 L1120.01,890.878 L1147,888.168 L1149.24,887.942 L1151.4,887.412 L1162.2,884.759 L1163.18,882.861 L1172.92,863.885 L1173.89,861.987 L1175.53,862.057 L1176.2,862.33 L1176.88,861.712 L1177.84,861.517 L1178.81,860.956 L1180.39,860.98 L1181.23,861.203 L1182.35,861.273 L1183.6,861.135 L1184.78,861.101 L1185.86,860.803 L1187.2,861.086 L1188.55,861.525 L1190.29,861.5 L1192.79,861.613 L1195.37,861.91 L1198.11,862.98 L1200.22,863.697 L1200.4,863.7 L1201.62,859.508 L1232.76,853.31 L1233.98,853.066 L1234.09,853.046 L1234.08,852.824 L1235.05,852.302 L1236.38,852.096 L1238.01,852.144 L1241.53,851.228 L1244.17,849.14 L1245.81,847.5 L1247.98,845.085 L1248.48,842.978 L1248.82,841.548 L1249.02,838.916 L1248.55,836.617 L1248.57,834.657 L1248.34,831.619 L1248.55,829.765 L1249.8,828.133 L1250.53,825.22 L1250.06,823.732 L1250.5,822.764 L1251.55,822.599 L1252.52,823.12 L1253.27,824.36 L1254.42,825.173 L1255.66,825.192 L1256.61,824.485 L1257.72,823.021 L1258.65,821.687 L1259.02,821.541 L1259.9,821.192 L1260.89,820.915 L1261.71,820.847 L1262.03,820.3 L1262.31,819.694 L1261.44,818.006 L1260.85,816.221 L1259.72,812.533 L1259.86,811.194 L1260.18,809.565 L1260.72,807.083 L1260.62,806.112 L1260.06,805.198 L1260.28,804.194 L1260.81,803.701 L1261.29,802.965 L1261.53,802.125 L1260.76,801.287 L1259.46,801.221 L1257.6,801.273 L1255.75,800.84 L1254.57,800.384 L1253.47,799.727 L1252.71,799.285 L1251.33,799.273 L1249.27,799.785 L1246.94,800.777 L1246.13,800.755 L1245.18,800.328 L1243.73,798.931 L1242.12,795.752 L1240.66,794.221 L1240.25,793.188 L1240.16,792.817 L1239.39,792.334 L1239.59,792.085 L1240.94,790.761 L1241.4,788.725 L1241.42,787.239 L1242.39,780.834 L1242.96,778.807 L1243.89,772.629 L1244.5,767.923 L1244.93,758.305 L1247.35,760.239 L1251.46,761.978 L1259.12,760.867 L1266.83,759.386 L1268.35,759.367 L1268.37,759.664 L1268.55,759.64 L1280.33,758.103 L1283.22,757.774 L1283.47,757.726 L1283.63,757.671 L1289.49,756 L1293.79,754.774 L1295.21,754.37 L1295.55,754.273 L1324,746.161 L1324.12,746.143 L1349.28,742.27 L1352.05,741.886 L1360.2,740.715 L1407.09,733.668 L1420.8,731.608 L1441.35,738.713 L1483.15,686.29 L1475.25,678.024 L1506.42,678.154 L1517.91,678.202 L1520.17,678.212 L1525.56,678.235 L1526.49,678.239 L1527.38,678.243 L1527.9,678.245 L1528.53,678.247 L1529.07,678.25 L1532.02,678.262 L1532.87,678.266 L1533.52,678.269 L1534.48,678.273 L1536.45,678.281 L1536.81,678.283 L1537.24,678.285 L1537.51,678.286 L1537.83,678.287 L1539.03,678.292 L1539.41,678.294 L1539.71,678.295 L1540.03,678.297 L1540.38,678.298 L1541.1,678.301 L1541.47,678.303 L1542.12,678.306 L1542.72,678.308 L1543.39,678.311 L1544.06,678.314 L1544.68,678.317 L1545.48,678.32 L1546.21,678.323 L1546.59,678.325 L1547.12,678.327 L1547.87,678.33 L1548.7,678.334 L1549.63,678.338 L1550.58,678.342 L1551.27,678.345 L1556.64,678.368 L1562.8,678.453 L1565.65,678.492 L1565.69,676.052 L1565.84,668.033 L1565.84,667.97 L1565.93,660.401 L1566.04,652.469 L1566.05,652.285 L1566.07,644.139 L1566.07,642.591 L1566.09,642.258 L1566.16,640.426 L1566.24,631.912 L1566.24,631.772 L1566.33,622.576 L1566.34,622.397 L1566.34,622.321 L1566.35,622.267 L1566.35,620.323 L1566.37,614.426 L1566.38,614.011 L1566.38,613.688 L1566.44,613.528 L1569.29,605.972 L1570.16,603.711 L1577.86,583.563 L1580.78,576.475 L1583.51,570.341 L1583.57,570.204 L1585.36,566.006 L1585.82,565.16 L1585.96,564.632 L1585.92,554.579 L1585.92,554.499 L1585.97,553.336 L1586.01,552.127 L1586.06,550.915 L1586.11,549.45 L1586.17,548.002 L1586.22,546.477 L1586.29,544.73 L1586.37,542.574 L1586.41,541.481 L1586.45,540.604 L1586.53,538.35 L1586.61,536.316 L1586.69,534.061 L1586.79,531.538 L1586.8,531.282 L1586.53,529.883 L1586.47,529.577 L1615.43,523.866 L1615.49,523.851 L1615.86,523.754 L1617.85,533.154 L1621.88,552.869 L1621.94,553.17 L1623.08,557.905 L1624.02,563.011 L1624.25,564.308 L1625.04,568.034 L1625.75,571.288 L1625.78,571.466 L1626.42,574.42 L1627.65,580.106 L1627.66,580.146 L1627.81,580.874 L1629.5,588.691 L1630.6,593.786 L1630.94,595.339 L1631.6,598.398 L1632.43,602.237 L1632.78,603.862 L1633.44,606.933 L1634.1,610.002 L1633.77,610.093 L1633.78,610.145 L1634.73,610.543 L1635.88,611.268 L1637.03,612.507 L1637.67,614.481 L1638.09,615.89 L1638.6,617.61" fill-rule="evenodd" vector-effect="none"/>
  </g>
  <g stroke-width="1" font-family="MS Shell Dlg 2" transform="matrix(0.999744,0,0,0.999744,0,0)" stroke-opacity="1" stroke-linecap="square" font-weight="400" font-style="normal" stroke-linejoin="bevel" font-size="34.5833" fill="none" stroke="#000000"/>
  <g stroke-width="1" font-family="MS Shell Dlg 2" transform="matrix(11.808,0,0,11.808,0,0)" stroke-opacity="1" stroke-linecap="square" font-weight="400" font-style="normal" stroke-linejoin="bevel" font-size="34.5833" fill="none" stroke="#000000"/>
  <g stroke-width="1" font-family="MS Shell Dlg 2" transform="matrix(11.808,0,0,11.808,0,0)" stroke-opacity="1" stroke-linecap="square" font-weight="400" font-style="normal" stroke-linejoin="bevel" font-size="34.5833" fill="none" stroke="#000000"/>
  <g stroke-width="1" font-family="MS Shell Dlg 2" transform="matrix(11.808,0,0,11.808,0,0)" stroke-opacity="1" stroke-linecap="square" font-weight="400" font-style="normal" stroke-linejoin="bevel" font-size="34.5833" fill="none" stroke="#000000"/>
  <g stroke-width="1" font-family="MS Shell Dlg 2" transform="matrix(1,0,0,1,0,0)" stroke-opacity="1" stroke-linecap="square" font-weight="400" font-style="normal" stroke-linejoin="bevel" font-size="34.5833" fill="none" stroke="#000000"/>
  <g stroke-width="1" font-family="MS Shell Dlg 2" transform="matrix(11.808,0,0,11.808,0,0)" stroke-opacity="1" stroke-linecap="square" font-weight="400" font-style="normal" stroke-linejoin="bevel" font-size="34.5833" fill="none" stroke="#000000"/>
  <g stroke-width="1" font-family="MS Shell Dlg 2" transform="matrix(11.808,0,0,11.808,0,0)" stroke-opacity="1" stroke-linecap="square" font-weight="400" font-style="normal" stroke-linejoin="bevel" font-size="34.5833" fill="none" stroke="#000000"/>
  <g stroke-width="1" font-family="MS Shell Dlg 2" transform="matrix(11.808,0,0,11.808,0,0)" stroke-opacity="1" stroke-linecap="square" font-weight="400" font-style="normal" stroke-linejoin="bevel" font-size="34.5833" fill="none" stroke="#000000"/>
  <g stroke-width="1" font-family="MS Shell Dlg 2" transform="matrix(11.808,0,0,11.808,0,0)" stroke-opacity="1" stroke-linecap="square" font-weight="400" font-style="normal" stroke-linejoin="bevel" font-size="34.5833" fill="none" stroke="#000000"/>
  <g stroke-width="1" font-family="MS Shell Dlg 2" transform="matrix(1,0,0,1,0,0)" stroke-opacity="1" stroke-linecap="square" font-weight="400" font-style="normal" stroke-linejoin="bevel" font-size="34.5833" fill="none" stroke="#000000"/>
 </g>
</svg>
