<?xml version='1.0' encoding='UTF-8' standalone='no'?>
<svg xmlns:xlink="http://www.w3.org/1999/xlink" baseProfile="tiny" xmlns="http://www.w3.org/2000/svg" height="249.936mm" viewBox="0 0 2952 2952" width="249.936mm" version="1.2">
 <title>Qt SVG Document</title>
 <desc>Generated with Qt</desc>
 <defs/>
 <g stroke-width="1" fill-rule="evenodd" fill="none" stroke-linejoin="bevel" stroke-linecap="square" stroke="black">
  <g stroke-width="1" transform="matrix(1,0,0,1,0,0)" stroke-opacity="1" font-size="34.5833" fill="none" stroke-linejoin="bevel" font-style="normal" stroke-linecap="square" stroke="#000000" font-family="MS Shell Dlg 2" font-weight="400"/>
  <g stroke-width="1" transform="matrix(1,0,0,1,0,0)" stroke-opacity="1" font-size="34.5833" fill="none" stroke-linejoin="bevel" font-style="normal" stroke-linecap="square" stroke="#000000" font-family="MS Shell Dlg 2" font-weight="400"/>
  <g stroke-width="1" transform="matrix(11.808,0,0,11.808,0,0)" stroke-opacity="1" font-size="34.5833" fill="none" stroke-linejoin="bevel" font-style="normal" stroke-linecap="square" stroke="#000000" font-family="MS Shell Dlg 2" font-weight="400"/>
  <g stroke-width="1" transform="matrix(0.999744,0,0,0.999744,0,0)" stroke-opacity="1" font-size="34.5833" fill="none" stroke-linejoin="bevel" font-style="normal" stroke-linecap="square" stroke="#000000" font-family="MS Shell Dlg 2" font-weight="400"/>
  <g transform="matrix(0.999744,0,0,0.999744,0,0)" font-size="34.5833" fill-opacity="0" fill="#ffffff" font-style="normal" stroke="none" font-family="MS Shell Dlg 2" font-weight="400">
   <path fill-rule="evenodd" vector-effect="none" d="M-2,-2 L2955,-2 L2955,2955 L-2,2955 L-2,-2"/>
  </g>
  <g stroke-width="1" transform="matrix(0.999744,0,0,0.999744,0,0)" stroke-opacity="1" font-size="34.5833" fill="none" stroke-linejoin="bevel" font-style="normal" stroke-linecap="square" stroke="#000000" font-family="MS Shell Dlg 2" font-weight="400"/>
  <g stroke-width="1" transform="matrix(11.808,0,0,11.808,0,0)" stroke-opacity="1" font-size="34.5833" fill="none" stroke-linejoin="bevel" font-style="normal" stroke-linecap="square" stroke="#000000" font-family="MS Shell Dlg 2" font-weight="400"/>
  <g stroke-width="1" transform="matrix(11.808,0,0,11.808,0,0)" stroke-opacity="1" font-size="34.5833" fill="none" stroke-linejoin="bevel" font-style="normal" stroke-linecap="square" stroke="#000000" font-family="MS Shell Dlg 2" font-weight="400"/>
  <g stroke-width="1" transform="matrix(11.808,0,0,11.808,0,0)" stroke-opacity="1" font-size="34.5833" fill="none" stroke-linejoin="bevel" font-style="normal" stroke-linecap="square" stroke="#000000" font-family="MS Shell Dlg 2" font-weight="400"/>
  <g stroke-width="1" transform="matrix(11.808,0,0,11.808,0,0)" stroke-opacity="1" font-size="34.5833" fill="none" stroke-linejoin="bevel" font-style="normal" stroke-linecap="square" stroke="#000000" font-family="MS Shell Dlg 2" font-weight="400"/>
  <g stroke-width="1" transform="matrix(11.808,0,0,11.808,0,0)" stroke-opacity="1" font-size="34.5833" fill="none" stroke-linejoin="bevel" font-style="normal" stroke-linecap="square" stroke="#000000" font-family="MS Shell Dlg 2" font-weight="400"/>
  <g transform="matrix(11.808,0,0,11.808,0,0)" font-size="34.5833" fill-opacity="0" fill="#ffffff" font-style="normal" stroke="none" font-family="MS Shell Dlg 2" font-weight="400">
   <path fill-rule="evenodd" vector-effect="none" d="M0,0 L250,0 L250,250 L0,250 L0,0"/>
  </g>
  <g stroke-width="1" transform="matrix(11.808,0,0,11.808,0,0)" stroke-opacity="1" font-size="34.5833" fill="none" stroke-linejoin="bevel" font-style="normal" stroke-linecap="square" stroke="#000000" font-family="MS Shell Dlg 2" font-weight="400"/>
  <g stroke-width="1" transform="matrix(11.808,0,0,11.808,0,0)" stroke-opacity="1" font-size="34.5833" fill="none" stroke-linejoin="bevel" font-style="normal" stroke-linecap="square" stroke="#000000" font-family="MS Shell Dlg 2" font-weight="400"/>
  <g transform="matrix(0.999744,0,0,0.999744,0,0)" font-size="34.5833" fill-opacity="0" fill="#000000" font-style="normal" stroke="none" font-family="MS Shell Dlg 2" font-weight="400">
   <rect x="0" height="2953" width="2953" y="0"/>
  </g>
  <g stroke-width="1" transform="matrix(0.999744,0,0,0.999744,0,0)" stroke-opacity="1" font-size="34.5833" fill="none" stroke-linejoin="bevel" font-style="normal" stroke-linecap="square" stroke="#000000" font-family="MS Shell Dlg 2" font-weight="400"/>
  <g stroke-width="3.07087" transform="matrix(0.999744,0,0,0.999744,0,0)" stroke-opacity="1" font-size="34.5833" fill-opacity="1" fill="#c5c5c5" stroke-linejoin="bevel" font-style="normal" stroke-linecap="square" stroke="#5c5c5c" font-family="MS Shell Dlg 2" font-weight="400">
   <path fill-rule="evenodd" vector-effect="none" d="M490.827,621.721 L490.905,621.721 L515.547,621.678 L517.51,621.695 L532.358,621.826 L548.908,621.776 L550.535,621.771 L558.701,621.746 L560.618,621.741 L562.806,621.734 L589.642,621.653 L594.674,621.637 L599.19,621.624 L608.426,621.67 L612.601,621.691 L613.451,621.695 L618.289,621.719 L619.443,621.725 L622.053,621.738 L629.62,621.776 L633.441,621.795 L635.118,621.803 L637.941,621.817 L638.004,621.817 L644.601,621.85 L646.484,621.86 L649.593,621.875 L660.757,621.931 L668.768,621.971 L672.784,621.991 L673.964,621.997 L674.441,622 L675.106,622.003 L702.715,622.141 L703.369,622.144 L704.297,622.149 L704.639,622.15 L704.976,622.156 L709.377,622.112 L710.079,622.109 L711.816,622.103 L719.157,622.081 L720.705,622.081 L738.289,622.083 L753.372,622.085 L756.162,622.086 L761.834,622.087 L763.73,622.087 L765.58,622.087 L766.943,622.087 L767.495,622.087 L768.94,622.087 L782.687,622.087 L784.711,622.087 L791.346,622.087 L793.129,622.083 L807.97,622.05 L821.655,622.019 L821.784,622.019 L855.695,621.943 L856.326,621.942 L863.908,621.925 L866.551,621.919 L866.75,621.91 L870.406,621.845 L874.18,621.845 L874.26,621.845 L878.312,621.868 L882.005,621.877 L882.863,621.879 L886.868,621.89 L887.156,621.89 L895.767,621.913 L900.222,621.924 L927.246,621.993 L927.619,621.993 L956.706,622.001 L959.706,621.985 L966.091,622.018 L967.38,622.024 L972.245,622.049 L973.492,622.055 L988.238,622.129 L988.998,622.133 L990.936,622.143 L993.663,622.157 L997.231,622.145 L1004.5,622.12 L1005.04,622.118 L1005.62,622.116 L1006.42,622.114 L1006.71,622.113 L1007.07,622.161 L1007.08,622.162 L1007.29,622.191 L1008.77,622.194 L1011.04,622.198 L1011.7,622.199 L1034.7,622.239 L1040.81,622.25 L1040.81,622.25 L1050.04,622.283 L1051.17,622.288 L1080.31,622.394 L1085.34,622.413 L1110.14,622.503 L1120.77,622.542 L1136.38,622.367 L1136.96,622.338 L1144.61,622.337 L1145.05,622.333 L1167.89,622.395 L1168.16,622.396 L1168.16,622.396 L1201.6,622.487 L1203.79,622.493 L1203.87,622.494 L1209.26,622.508 L1218.58,622.534 L1218.72,622.543 L1235.59,622.473 L1241.99,622.447 L1242.1,622.422 L1264.81,622.553 L1270.09,622.584 L1274.44,622.572 L1329.92,622.416 L1335.54,622.401 L1336.21,622.399 L1342.17,622.382 L1357.96,622.338 L1359.82,622.314 L1372.79,622.144 L1377.98,622.076 L1392.62,622.129 L1408.68,622.188 L1412.68,622.316 L1412.68,622.316 L1417.55,622.472 L1418.7,622.509 L1433.68,622.545 L1437.8,622.885 L1439.87,622.824 L1448.31,622.576 L1461.76,622.616 L1465.56,622.52 L1486.66,622.372 L1486.66,622.372 L1504.83,622.245 L1505.1,622.251 L1505.79,622.269 L1506.93,622.256 L1512.02,622.28 L1532.75,622.131 L1538.05,622.093 L1545.37,622.011 L1545.41,622.01 L1548.72,622.022 L1554.68,622.042 L1564.57,622.064 L1572.07,622.112 L1572.65,622.112 L1578.13,622.119 L1584.03,622.127 L1588.03,622.189 L1600.96,622.202 L1602.21,622.238 L1602.23,622.237 L1615.38,622.189 L1623.06,622.161 L1625.14,622.154 L1627.56,622.145 L1652.8,622.053 L1653.48,622.05 L1661.39,622.016 L1665.07,622.001 L1678.14,621.946 L1679.8,621.958 L1680.87,621.964 L1687.12,621.9 L1688.41,621.896 L1694.57,621.88 L1694.97,621.879 L1711.63,621.829 L1719.31,621.783 L1719.31,621.783 L1728.12,621.73 L1728.79,621.742 L1734.57,621.696 L1747.13,621.763 L1751.84,621.835 L1757.64,621.8 L1757.64,621.8 L1764.56,621.759 L1766.71,621.854 L1772.54,621.854 L1779.99,621.854 L1783.82,621.854 L1784.05,621.854 L1784.75,621.854 L1786.58,621.854 L1788.47,621.865 L1788.69,621.866 L1790.72,621.878 L1791.77,621.857 L1792.78,621.881 L1794.69,621.925 L1794.77,621.927 L1795.75,621.936 L1805.06,622.018 L1807.28,622.037 L1828.45,622.694 L1830.02,622.743 L1834.15,622.791 L1835.5,622.852 L1835.58,622.852 L1846.5,622.925 L1846.55,622.93 L1847.39,622.903 L1847.49,622.926 L1880.19,622.812 L1890.75,622.776 L1918.96,622.677 L1922.44,622.665 L1926.14,622.693 L1926.68,622.721 L1945.66,622.669 L1945.68,622.669 L1965.04,622.615 L1972.34,622.561 L1977.81,622.52 L1977.98,622.532 L2010.87,622.431 L2011.41,622.417 L2014.85,622.322 L2026.38,622.275 L2026.61,622.275 L2034.06,622.244 L2034.12,622.244 L2035.08,622.24 L2043.61,622.246 L2050.16,622.251 L2069.46,622.265 L2070.46,622.242 L2070.58,622.3 L2071.76,622.425 L2072.26,622.412 L2076,622.318 L2081.62,622.176 L2101.81,622.185 L2109.5,622.189 L2110.32,622.189 L2111.83,622.192 L2117.41,622.204 L2134.06,622.271 L2140.4,622.297 L2148.09,622.196 L2164.88,622.208 L2166.89,622.229 L2170.78,622.214 L2182.06,622.17 L2185.06,622.223 L2189.77,622.223 L2193.55,622.203 L2194,622.206 L2197.42,622.23 L2197.45,622.23 L2223.6,622.25 L2229.52,622.254 L2231.69,622.269 L2231.88,622.271 L2243.35,622.285 L2255.3,622.3 L2258.5,622.304 L2260.72,622.307 L2281.69,622.333 L2284.15,622.336 L2297.2,622.352 L2302.89,622.38 L2306.53,622.398 L2328.61,622.508 L2336.88,622.549 L2344.04,622.584 L2347.51,622.539 L2347.52,622.539 L2348.79,622.567 L2348.95,622.571 L2358.82,622.557 L2376.33,622.489 L2375.52,623.077 L2375.74,623.859 L2375.26,624.75 L2374.27,624.448 L2373.56,624.705 L2373.45,625.381 L2373.76,625.839 L2374.85,626.464 L2374.69,627.849 L2373.38,627.922 L2373.45,628.854 L2374.36,629.651 L2374.35,629.677 L2373.38,631.212 L2373.4,631.551 L2373.42,631.874 L2373.65,632.15 L2374.49,632.49 L2378.08,633.93 L2379.33,633.75 L2379.67,633.871 L2380.04,634.003 L2380.64,636.046 L2380.66,636.878 L2378.93,637.421 L2376.16,636.681 L2374.97,639.215 L2374.93,640.553 L2379.65,640.955 L2379.97,640.713 L2380.26,640.487 L2380.55,640.623 L2380.95,640.848 L2381.13,641.479 L2381.12,641.528 L2380.94,642.017 L2381.01,642.485 L2381.58,643.531 L2382.73,644.828 L2382.93,647.205 L2383.28,651.374 L2384.14,654.017 L2384.08,654.702 L2382.63,657.163 L2382.01,657.498 L2380.45,657.558 L2380,658.963 L2379.85,660.368 L2380.02,661.088 L2381.81,662.65 L2382.54,662.782 L2383.46,661.894 L2383.8,661.714 L2384.04,661.931 L2383.82,664.292 L2383.75,665.04 L2383.2,665.856 L2382.17,666.276 L2382.23,666.588 L2383.71,666.709 L2385.38,666.002 L2386.36,667.791 L2389.43,668.173 L2390.09,668.567 L2391.8,669.587 L2392.29,670.74 L2394.48,671.771 L2396.64,671.474 L2396.95,671.432 L2400.87,671.829 L2406.76,673.508 L2407.5,674.372 L2407.95,675.301 L2408.04,675.489 L2408.33,676.076 L2409.37,677.42 L2409.93,677.576 L2411.62,679.856 L2413.47,683.305 L2413.74,688.079 L2413.29,691.255 L2412.72,695.254 L2410.88,696.933 L2408.89,700.052 L2407.9,700.4 L2407.91,700.928 L2409.19,702.859 L2409.44,703.854 L2409.02,704.442 L2408.12,704.67 L2407.68,707.201 L2408.67,707.896 L2408.8,708.496 L2408.21,710.199 L2407.41,711.674 L2406.33,712.897 L2406.11,714.756 L2406.94,716.578 L2407.32,716.686 L2408.08,716.206 L2408.41,716.255 L2411.47,719.443 L2412.33,721.495 L2413.7,724.743 L2411.12,729.106 L2410.43,729.81 L2407.86,732.439 L2407.87,732.462 L2408.65,736.034 L2405.36,740.828 L2404.2,741.248 L2403.59,741.291 L2402.19,741.392 L2398.42,742.58 L2396.28,743.707 L2394.13,743.636 L2393.02,743.853 L2392.19,744.357 L2391.44,747.786 L2390.8,750.695 L2388.15,755.561 L2387.53,755.97 L2385.94,756.065 L2385.58,756.663 L2385.77,757.598 L2386.95,759.631 L2386.98,759.671 L2388.08,760.089 L2388.07,761.011 L2387.36,763.325 L2384.83,764.856 L2383.8,764.879 L2382.41,764.436 L2380.65,764.291 L2376.78,768.66 L2376.32,770.54 L2374.78,771.522 L2374.26,771.462 L2373.4,770.623 L2372.66,770.443 L2369.88,771.724 L2367.55,773.304 L2364.84,774.371 L2363.51,776.021 L2362.26,776.249 L2361.25,775.89 L2360.46,777.913 L2360.31,777.98 L2359.21,778.464 L2358.69,778.332 L2358.27,778.56 L2357.46,780.786 L2356.3,780.344 L2355.57,780.751 L2355.54,782.259 L2356.02,782.785 L2354.39,785.528 L2354.04,785.748 L2351.5,787.384 L2350.56,787.467 L2349.62,786.761 L2347.64,786.666 L2343.88,792.485 L2343.05,794.784 L2343.46,795.921 L2341.33,800.062 L2342.99,802.826 L2343.01,806.236 L2341.63,809.441 L2341.24,810.353 L2339,811.479 L2337.55,811.907 L2336.86,813.813 L2335.77,815.243 L2335.66,815.393 L2333.8,816.674 L2332.79,816.83 L2331.46,816.566 L2330.66,816.661 L2328.29,820.242 L2325.7,821.532 L2323.02,821.89 L2316.95,823.478 L2316.37,824.22 L2314.71,827.461 L2314.94,828.465 L2314.89,829.314 L2314.08,831.909 L2311.4,833.726 L2308.82,833.858 L2305.95,836.225 L2305.31,837.708 L2305.56,840.793 L2306.12,841.797 L2306.28,843.184 L2306.23,843.781 L2305.28,845.969 L2300,847.966 L2299.06,850.99 L2298.95,852.131 L2298.35,858.282 L2297.43,858.617 L2295.74,859.877 L2293.81,861.318 L2293.31,862.262 L2293.65,864.903 L2292.52,866.732 L2292.16,868.369 L2292.37,869.182 L2292.2,869.982 L2289.81,873.687 L2286.83,876.102 L2281.15,885.467 L2285.02,885.399 L2296.04,885.356 L2297.39,885.284 L2317.26,885.094 L2318.71,885.083 L2318.77,885.082 L2335.87,884.927 L2336.11,884.925 L2358.36,884.723 L2362.15,884.688 L2373.66,884.584 L2386.95,884.448 L2387.36,884.468 L2390.29,884.38 L2390.47,884.375 L2396.87,884.183 L2417.62,884.016 L2442.56,883.817 L2442.6,883.816 L2452.3,883.739 L2455.36,883.833 L2457.15,883.665 L2457.65,883.725 L2457.87,883.725 L2463.55,883.683 L2465.98,883.665 L2482.34,883.546 L2482.44,883.545 L2484.41,883.51 L2493.25,883.442 L2493.46,883.434 L2493.67,883.435 L2493.7,883.435 L2496.03,883.401 L2499.94,883.358 L2507.51,883.274 L2523.04,883.102 L2530.61,883.019 L2537.73,882.94 L2537.76,882.938 L2537.84,882.934 L2551.49,882.918 L2551.53,882.941 L2553.42,882.896 L2554.21,884.842 L2555.38,886.57 L2559.3,890.532 L2559.45,891.034 L2558.96,896.458 L2559.08,898.379 L2559.45,899.764 L2561.24,902.503 L2563.07,904.176 L2567.45,907.182 L2572.91,910.493 L2577.26,914.236 L2579.59,916.71 L2585.91,921.917 L2587.54,924.185 L2588.36,926.097 L2589.89,931.199 L2590.68,933.105 L2589.96,935.477 L2590.87,938.094 L2590.47,939.846 L2589.19,938.623 L2585.87,941.566 L2581.75,944.303 L2580.25,944.088 L2577.1,942.817 L2575.07,940.591 L2572.4,936.966 L2561.08,932.117 L2549.98,931.855 L2544.23,935.946 L2543.61,936.385 L2539.65,939.909 L2538.36,942.325 L2537.1,945.942 L2536.63,947.755 L2536.33,950.125 L2536.44,952.35 L2536.79,953.563 L2538.08,955.407 L2540.22,957.098 L2546.52,959.89 L2554.93,962.663 L2563.48,967.205 L2565.55,968.864 L2566.17,969.684 L2566.8,971.334 L2566.95,972.77 L2566.65,974.847 L2566.56,975.054 L2565.75,976.908 L2564.82,977.96 L2558.98,981.451 L2558.67,981.688 L2557.5,982.583 L2553.02,984.253 L2549.22,984.439 L2542.95,982.045 L2539.76,981.629 L2539.75,982.515 L2532.85,984.821 L2526.72,991.213 L2525.45,993.453 L2526.41,996.501 L2526.33,997.818 L2525.48,1000.25 L2521.25,1006.01 L2519.72,1007.69 L2519.06,1008.32 L2516.21,1010 L2514.64,1010.52 L2511.28,1010.94 L2505.6,1010.51 L2500.8,1013.45 L2498.19,1014.74 L2494.41,1018.02 L2492.54,1017.98 L2489.89,1016.1 L2487.94,1013.45 L2480.6,1008.77 L2480.07,1008.73 L2478.72,1008.6 L2477.4,1009.69 L2476.4,1010.93 L2474.84,1011.84 L2473.8,1012.44 L2469.37,1015.02 L2464.11,1018.08 L2461.71,1019.48 L2460.15,1020.69 L2459.19,1022.13 L2458.16,1025.09 L2458.08,1027.1 L2458.38,1029.47 L2458.9,1033.42 L2459.05,1041.84 L2459.4,1044.37 L2460.35,1046.37 L2460.43,1046.56 L2461.76,1048.63 L2464.91,1052.43 L2467.16,1057.32 L2469.15,1059.52 L2469.84,1060.27 L2473.33,1062.74 L2476.43,1064.04 L2480.34,1064.89 L2483.4,1065.02 L2486.95,1064.24 L2488.44,1063.6 L2489.3,1062.83 L2490.16,1061.61 L2492,1057.78 L2492.59,1057.1 L2494.73,1055.88 L2497.81,1054.89 L2499.29,1055.06 L2500.28,1055.58 L2502.57,1058.71 L2503.56,1061.62 L2503.69,1065.38 L2503.28,1068.47 L2503.23,1068.65 L2502.66,1070.69 L2502.41,1071.59 L2501.26,1073.57 L2498.19,1075.47 L2492.84,1077.62 L2485.33,1083.39 L2484.21,1083.73 L2483.03,1083.64 L2480.39,1083.08 L2478.43,1082.35 L2477.8,1082.6 L2474.66,1085.11 L2472.62,1085.96 L2469.22,1087.38 L2463.77,1090.62 L2461.34,1092.76 L2460.08,1094.44 L2458.98,1096.39 L2458.49,1098.08 L2458.48,1098.99 L2459,1101.1 L2460.06,1103.9 L2463.13,1110.37 L2464.04,1112.07 L2465.46,1114.02 L2470.65,1116.62 L2472.74,1117.13 L2474.78,1117.51 L2476.1,1117.48 L2476.74,1117.62 L2477.35,1117.64 L2478.55,1118.06 L2479,1118.47 L2479.42,1119.31 L2479.65,1120.18 L2479.85,1120.5 L2479.87,1120.89 L2479.74,1121.51 L2478.83,1121.59 L2478.18,1122.78 L2477.91,1122.96 L2477.71,1123.35 L2477.75,1123.8 L2477.92,1123.87 L2478.81,1123.73 L2479.05,1123.69 L2479.79,1123.86 L2480.58,1124.28 L2481.09,1124.84 L2481.3,1125.63 L2479.71,1131.46 L2479.13,1132.7 L2477.9,1134.33 L2476.44,1135.52 L2474.78,1136.16 L2473.16,1135.87 L2468.75,1133.74 L2468.59,1133.73 L2463.93,1133.3 L2462.67,1132.94 L2461.3,1132.02 L2459.15,1130.08 L2458.57,1129.25 L2458.56,1127.73 L2459.39,1126.13 L2459.45,1125.45 L2459,1122.93 L2458.24,1121.72 L2450.72,1115.41 L2445.21,1112.21 L2443.68,1111.83 L2441.14,1111.63 L2440.67,1111.69 L2437.21,1112.19 L2435.96,1112.69 L2433.41,1114.31 L2432.61,1114.26 L2430.62,1114.13 L2428.63,1114.69 L2426.81,1115.63 L2424.83,1117.25 L2423.93,1118.43 L2423,1123.92 L2421.82,1126.94 L2421.2,1128.01 L2419.99,1131.81 L2419.49,1135.44 L2420.23,1141.1 L2421.37,1145.16 L2422.34,1147.35 L2425.95,1153.37 L2432.11,1158.78 L2432.69,1160.05 L2432.73,1160.87 L2432.76,1161.6 L2431.4,1165.46 L2430.48,1167.08 L2429.48,1170.43 L2429.36,1171.94 L2429.49,1174.41 L2429.16,1175.56 L2428.34,1176.93 L2427.51,1178.83 L2427.38,1180.86 L2423.58,1183.32 L2422.71,1184.19 L2422.04,1185.23 L2421.58,1187.2 L2421.04,1188.48 L2416.8,1193.23 L2421.67,1196.58 L2423.16,1196.94 L2421.77,1198.84 L2421.4,1199 L2417.72,1200.55 L2417.67,1200.58 L2411.46,1190.89 L2414.53,1187.33 L2410.93,1183.13 L2409.43,1177.59 L2409.44,1174.67 L2410.6,1169.11 L2412.34,1163.6 L2412.37,1161.59 L2412.09,1160.87 L2410.25,1158.53 L2406.88,1155.37 L2404.82,1154.33 L2402.65,1154.38 L2399.03,1154.46 L2397.75,1155.34 L2395.23,1155.32 L2392.4,1157.64 L2390.72,1159.54 L2389.78,1161.12 L2388.72,1164.18 L2386.06,1173.47 L2381.52,1176.29 L2369.35,1183.87 L2368.68,1185.69 L2368.64,1189.98 L2365.02,1202.86 L2365.41,1204.47 L2367.92,1206.75 L2370.52,1208.27 L2379.52,1208.33 L2383.5,1207.28 L2380.13,1201.61 L2379.12,1197.74 L2378.99,1195.47 L2379.45,1193.25 L2380.14,1191.74 L2380.9,1190.76 L2382.49,1189.23 L2383.66,1188.47 L2385.62,1188.07 L2391.35,1189.14 L2393.21,1189.93 L2394.04,1190.74 L2395.63,1193.46 L2396.45,1194.42 L2399.9,1197.65 L2401.2,1198.65 L2403.67,1199.94 L2406.96,1202.82 L2407.79,1203.22 L2409.05,1203.4 L2405.32,1211.35 L2403.6,1214.22 L2402.5,1215.45 L2401.24,1215.66 L2399.83,1217.35 L2398.37,1220.25 L2395.4,1224.64 L2394.77,1224.92 L2394.14,1224.82 L2396.86,1230.19 L2395.61,1234.22 L2394.65,1244.38 L2391.22,1245.21 L2389.26,1244.62 L2388.48,1244.62 L2384.81,1246.71 L2381.81,1247.57 L2377.46,1245.26 L2375.94,1245.62 L2373.61,1246.63 L2372.64,1247.51 L2371.55,1248.97 L2370.96,1250.49 L2369.41,1256.28 L2369.44,1257.78 L2370.37,1260.11 L2373.63,1266.32 L2376.49,1269.73 L2379.47,1270.88 L2381.43,1271.64 L2384.93,1271.18 L2388.53,1270.24 L2391.53,1269.83 L2394.22,1270 L2396.34,1270.61 L2398.71,1272.1 L2399.36,1272.83 L2402.34,1276.86 L2404.27,1280.21 L2405.69,1282.22 L2407.46,1284.3 L2408.25,1286.06 L2409.08,1288.1 L2409.4,1289.85 L2409.35,1292.72 L2409.24,1292.87 L2408.28,1294.11 L2406.44,1294.46 L2405.2,1293.28 L2403.3,1292.27 L2401.33,1296.97 L2399.98,1301.33 L2399.58,1301.36 L2394.66,1299.13 L2391.66,1299.44 L2391.08,1303.54 L2391.15,1304.93 L2392.49,1308.13 L2393.81,1309.71 L2394.61,1309.8 L2395.04,1311.61 L2395.08,1311.81 L2396.16,1313.81 L2397.13,1315.21 L2398.58,1317.02 L2399.95,1318.83 L2401.47,1320.76 L2402.56,1321.26 L2411.41,1322.61 L2411.69,1322.87 L2411.72,1322.89 L2412.44,1323.55 L2412.64,1323.94 L2413.34,1328.7 L2413.43,1329.34 L2413.16,1330.57 L2413.1,1330.85 L2412.6,1331.73 L2410.65,1334 L2408.77,1335.87 L2408.63,1336.01 L2405.49,1339.13 L2404.1,1340.1 L2402.45,1340.87 L2398.24,1341.7 L2394.52,1340.56 L2382.01,1332.76 L2380.42,1332.2 L2379.62,1332.25 L2374.85,1334.31 L2373.13,1335.43 L2370.91,1337.29 L2370.07,1338.17 L2369.83,1338.43 L2367.61,1340.77 L2367.41,1340.98 L2366.04,1344.07 L2364.12,1354.75 L2361.05,1362.83 L2358.32,1370.03 L2357.71,1372.94 L2357.47,1375.73 L2357.59,1379.37 L2357.91,1382.61 L2356.21,1384.97 L2355.93,1385.2 L2352.3,1388.2 L2350.19,1388.59 L2349.4,1388.46 L2345.8,1386.44 L2343.34,1385.74 L2332.41,1384.11 L2329.92,1383.13 L2329.5,1382.56 L2329.33,1381.48 L2328.69,1381.11 L2317.42,1380.34 L2316.38,1380.94 L2315.9,1381.22 L2315.18,1382.35 L2313.75,1387.05 L2311.13,1392.51 L2309.87,1396.86 L2309.69,1399.68 L2309.85,1401.34 L2310.11,1404.11 L2312.17,1409.65 L2313,1411.13 L2315.55,1414.08 L2316.96,1414.99 L2319.43,1416.05 L2321.54,1418.56 L2323.23,1419.89 L2331.07,1423.64 L2333.48,1425.09 L2335.13,1427.04 L2335.35,1427.45 L2336.07,1428.73 L2336.79,1430.58 L2337.48,1434.05 L2337.38,1442.58 L2336.61,1446.11 L2335.87,1448.39 L2335.11,1449.64 L2322.75,1458.51 L2313.21,1463.67 L2309.81,1466.23 L2308.35,1467.97 L2312.17,1473.69 L2312.48,1474.15 L2312.97,1475.81 L2312.91,1476.89 L2312.37,1478.87 L2310.92,1481.1 L2309.26,1482.11 L2305.93,1481.79 L2304.3,1481 L2300.4,1477.84 L2298.93,1476.11 L2296.99,1473.81 L2293.68,1476.51 L2292.01,1477.5 L2280.33,1481.23 L2271.12,1486.7 L2268.44,1487.89 L2267.31,1488.39 L2265.54,1488.48 L2262.37,1487.54 L2261.73,1487.06 L2259.67,1483.57 L2258.8,1479.66 L2258.41,1476.54 L2258.42,1474.55 L2259.52,1471.38 L2259.58,1470.31 L2259.11,1468.22 L2256.38,1462.3 L2255.64,1461.34 L2254.39,1460.45 L2252.89,1459.59 L2249.05,1457.98 L2246.56,1457.55 L2243.88,1458.04 L2239.86,1460.45 L2238.09,1462.02 L2236.36,1465.16 L2236.11,1466.23 L2235.91,1469.23 L2236.4,1473.31 L2237.21,1475.12 L2240.4,1479.4 L2244.88,1486.9 L2247.77,1492.83 L2247.85,1494.37 L2246.89,1497.43 L2244.21,1499.41 L2242.03,1502.27 L2241.29,1503.59 L2240.62,1505.68 L2240.32,1508.36 L2240.77,1510.6 L2242.08,1514.69 L2246.95,1523.23 L2249.42,1528.84 L2250.21,1531.7 L2250.17,1533.4 L2249.91,1534.59 L2249.66,1535.75 L2248.6,1537.98 L2247.34,1539.33 L2242.3,1542.37 L2238.16,1543.51 L2234.29,1544.06 L2228.89,1543.8 L2224.79,1542.07 L2221.07,1539.86 L2219.49,1536.51 L2219.31,1534.63 L2219.1,1530.52 L2220.12,1528.53 L2222.61,1526.28 L2227.27,1523.08 L2229.03,1520.32 L2229.17,1519.67 L2228.95,1517.82 L2228.04,1515.07 L2224.2,1506.67 L2223.38,1503.95 L2222.5,1503.89 L2219.92,1503.69 L2216.36,1504.56 L2214.17,1505.59 L2212.61,1507.04 L2210.98,1509.41 L2209.48,1512.78 L2209.25,1514.17 L2209.38,1515.56 L2210.07,1518.51 L2211.59,1523.16 L2212.43,1525.18 L2214.11,1528.02 L2214.64,1530.53 L2213.21,1532.8 L2209.99,1534.12 L2208.43,1534.7 L2205.81,1534.91 L2204.3,1535.3 L2202.76,1536.38 L2201.96,1537.48 L2201.2,1539.06 L2200.85,1541.81 L2200.8,1542.18 L2200.84,1543.51 L2201.09,1544.29 L2201.87,1545.44 L2206.14,1550.47 L2210.14,1555.18 L2213.13,1556.88 L2217.25,1557.88 L2220.26,1557.99 L2225.43,1557.28 L2231.05,1555.95 L2235.09,1555.49 L2238.02,1555.47 L2240.06,1555.83 L2241.76,1556.73 L2242.27,1557.24 L2243.5,1558.49 L2244.9,1560.82 L2245.4,1562.63 L2245.29,1564.43 L2244.92,1565.79 L2243.93,1569.44 L2242.33,1571.94 L2238.15,1576.82 L2234.7,1579.42 L2231.01,1582.89 L2228.3,1586.65 L2226.17,1588.76 L2222.34,1591.71 L2219.25,1592.95 L2216,1593.48 L2213.9,1593.33 L2211.14,1592.41 L2209.48,1591.34 L2207.73,1588.86 L2206.73,1586.61 L2206.32,1583.85 L2206.8,1579.35 L2207.36,1576.94 L2208.41,1575.02 L2212.95,1571.19 L2213.52,1570 L2213.18,1565.26 L2212.67,1563.96 L2211.53,1562.01 L2209.29,1559.76 L2208.54,1558.57 L2207.5,1557.75 L2206.1,1557.3 L2206.07,1557.31 L2202.82,1558.37 L2201.16,1559.65 L2198.72,1563.22 L2196.34,1564.55 L2194.96,1566.4 L2192.25,1571.16 L2192.2,1572.35 L2192.72,1574.01 L2193.13,1581.06 L2193.68,1583.43 L2194.51,1585.2 L2194.53,1585.68 L2194.36,1586.34 L2192.32,1593.92 L2192.76,1599.51 L2195.09,1605.41 L2198.01,1610.02 L2199.98,1614.01 L2202.2,1616.5 L2205.24,1619.41 L2208.8,1623.94 L2210.21,1626.42 L2212.3,1632.78 L2212.39,1634.2 L2212.16,1635.61 L2211.17,1638.15 L2210.28,1639.5 L2206.25,1642.95 L2200.31,1646.1 L2196.45,1650.5 L2195.91,1651.37 L2195.36,1652.28 L2194.32,1656.75 L2193.05,1658.79 L2192.65,1660.64 L2192.03,1663.41 L2191.62,1666.64 L2192.28,1673.93 L2193.5,1678.7 L2194.24,1679.94 L2197.12,1682.23 L2198.36,1683.5 L2201.16,1689.38 L2201.44,1690.72 L2201.79,1692.45 L2201.51,1694.94 L2200.71,1697.36 L2200.1,1698.57 L2199.55,1699.65 L2197.78,1702.3 L2195.73,1704.43 L2195.52,1704.65 L2181.48,1714.8 L2179.56,1715.8 L2174.03,1716.61 L2172.61,1717.03 L2169.88,1718.31 L2162.64,1722.48 L2163.99,1724.46 L2159.16,1732.65 L2159.13,1736.36 L2161.66,1742.44 L2161.86,1742.91 L2163.14,1747.25 L2163.09,1749.83 L2161.44,1753.32 L2158.08,1754.54 L2154.39,1754.53 L2151.05,1753.13 L2149.36,1751.7 L2148.04,1749.66 L2147.8,1746.02 L2148.71,1741.45 L2152.9,1734.14 L2155.21,1725.63 L2155.17,1724.83 L2154.17,1724.83 L2149.15,1726.11 L2145.08,1727.52 L2140.03,1728.57 L2139.64,1728.58 L2134.62,1728.65 L2132.84,1728.37 L2130.92,1727.8 L2127.57,1726.82 L2123.98,1726.47 L2121.41,1726.81 L2118.92,1728.08 L2117.37,1729.44 L2116.82,1730.38 L2116.24,1733.86 L2116.54,1737.23 L2116.8,1738.05 L2117.62,1739.3 L2124.47,1745.32 L2126.26,1748.48 L2127.11,1750.84 L2127.99,1754.31 L2127.87,1757.85 L2126.95,1760.04 L2122.89,1766.68 L2121.8,1767.92 L2117.62,1771.15 L2114.62,1771.45 L2112.74,1771.23 L2103.94,1770.19 L2101.68,1770.16 L2097.5,1771.7 L2094.08,1772.52 L2092.58,1773.34 L2090.98,1774.66 L2089.99,1775.89 L2089.23,1777.81 L2088.76,1779.99 L2087.3,1786.69 L2086.03,1793.84 L2085.97,1796.91 L2086.23,1798.9 L2086.02,1800.5 L2085.12,1803.66 L2083.99,1806.66 L2082.73,1808.95 L2080.63,1807.48 L2078.97,1806.36 L2074.6,1806.08 L2069.51,1804.39 L2062.99,1799.83 L2061.41,1798.36 L2060.66,1797.15 L2058.88,1791.36 L2058.18,1790.05 L2057.7,1789.56 L2055.45,1788.82 L2050.91,1788.52 L2048.44,1789.53 L2046.54,1791.74 L2045.32,1793.54 L2045,1794.86 L2045.07,1798.47 L2045.82,1802.55 L2046.89,1804.71 L2053.91,1813.85 L2055.71,1815.4 L2064.12,1820.06 L2065.8,1821.48 L2067.99,1820.26 L2070.2,1819.61 L2071.74,1820.85 L2073.5,1820.98 L2075.65,1820.51 L2077.96,1819.28 L2079.44,1818.98 L2083.02,1819.4 L2086.78,1820.55 L2090.93,1820.05 L2095.92,1820.95 L2097.69,1822.1 L2098.68,1823.29 L2099.01,1824.04 L2099.25,1824.59 L2099.89,1828.89 L2099.61,1831.94 L2098.32,1834.79 L2096.21,1837.86 L2093.37,1840.83 L2092.06,1841.87 L2090.13,1843 L2087.67,1843.98 L2083,1844.49 L2080.34,1844.17 L2075.64,1842.62 L2074.25,1841.81 L2070.47,1838.75 L2067.84,1837.03 L2063.06,1832.21 L2059.18,1830.49 L2056.46,1829.89 L2044.62,1838.43 L2037.76,1843.67 L2035.64,1847.82 L2036,1850.5 L2037.05,1853.04 L2037.46,1853.63 L2040.2,1857.56 L2041.13,1858.52 L2051.71,1866.38 L2052.92,1866.84 L2054.75,1867 L2060.21,1866.02 L2063.42,1864.43 L2065.72,1864.42 L2068.02,1865.03 L2069.59,1866.07 L2070.57,1866.92 L2072.54,1870.11 L2073.16,1872.1 L2073.13,1873.24 L2072.6,1875.11 L2072.54,1875.35 L2071.44,1877.56 L2068.24,1881.71 L2066.45,1884.43 L2065.82,1886.04 L2065.49,1887.56 L2065.31,1890.65 L2066.01,1893.97 L2066.18,1896.39 L2066,1897.71 L2065.35,1899.09 L2063.89,1900.58 L2060.91,1902.14 L2054.51,1903.12 L2051.39,1902.44 L2050.66,1902.48 L2045.95,1904.45 L2042.67,1905.07 L2039.44,1905.19 L2036.01,1903.95 L2030.82,1903.25 L2028.21,1903.4 L2025.75,1903.84 L2023.55,1904.57 L2026.93,1914.21 L2027.97,1916.02 L2030.73,1918.4 L2034.7,1924.48 L2034.84,1926.41 L2033.78,1930.72 L2033.16,1931.85 L2032.13,1932.94 L2030.77,1933.68 L2028.23,1934.38 L2025.49,1934.54 L2023.68,1934.23 L2020.64,1933.05 L2018.42,1931.36 L2017.2,1929.08 L2016.36,1925.97 L2012.72,1917.07 L2010.49,1912.66 L2004.21,1916.65 L2001.75,1919.72 L2000.41,1920.98 L1998.04,1921.86 L1992.17,1921.86 L1988.4,1922.17 L1986.63,1922.62 L1985,1923.38 L1983.34,1924.52 L1981.34,1926.83 L1980.83,1928.19 L1980.56,1929.68 L1980.55,1931.58 L1981.01,1933.95 L1981.83,1935.51 L1982.95,1936.58 L1985.1,1937.56 L1985.32,1937.66 L1998.73,1941.04 L2003.28,1942.9 L2009.98,1946.28 L2012.98,1948.75 L2014.11,1950.23 L2014.16,1950.78 L2014.22,1951.43 L2013.89,1952.17 L2011.08,1955.46 L2007.32,1961.11 L2002.98,1965.92 L2001.83,1967.07 L1995.11,1973.8 L1992.6,1976.61 L1988.53,1982.1 L1987.72,1984.29 L1987.63,1986.81 L1988.4,1990.83 L1989.96,1995.46 L1991.03,1997.14 L1994.53,2001.31 L1996.16,2003.72 L1997.49,2006.49 L1998.68,2008.2 L2000.54,2009.48 L2007.83,2012.99 L2008.95,2013.38 L2009.98,2013.75 L2015.18,2014.69 L2018.42,2016.24 L2021.95,2019.77 L2022.98,2022.1 L2023.08,2022.59 L2023.33,2023.87 L2022.92,2025.88 L2022.17,2027.8 L2021.06,2029.42 L2018.42,2031.68 L2013.07,2033.96 L2008.63,2034.81 L2007.15,2034.48 L1995.71,2026.83 L1992.91,2027.37 L1982.36,2028 L1980.88,2028.31 L1973.15,2030.94 L1971.38,2028.93 L1970.31,2028.03 L1968.71,2026.67 L1966.33,2025.1 L1964.32,2024.42 L1962.65,2024.44 L1961.94,2024.74 L1960.47,2026.21 L1959.4,2027.64 L1958.5,2029.31 L1957.19,2032.6 L1957.32,2034.3 L1957.81,2035.27 L1958.8,2035.91 L1959.03,2036.47 L1958.69,2038.39 L1957.42,2040.59 L1957.43,2041.75 L1957.96,2042.86 L1956.59,2048.26 L1956.55,2050.32 L1956.9,2052.11 L1957.35,2053.19 L1962.58,2059.56 L1965.46,2062.34 L1968.75,2064.08 L1973.01,2064.42 L1975.77,2064.25 L1980.51,2063.06 L1986.63,2059.48 L1989.63,2058.43 L1991.54,2058.73 L1993.17,2059.27 L1995,2060.46 L1998.71,2063.59 L2001.04,2066.83 L2001.98,2068.52 L2002.78,2070.4 L2003.21,2072.32 L2004.37,2072.49 L2005.63,2073 L2005.66,2076.12 L2005.18,2077.89 L2004.19,2079.85 L2003.87,2080.49 L2002.91,2081.35 L1998.87,2082.9 L1997.13,2083 L1993.47,2083.85 L1990.13,2085.73 L1985.31,2087.96 L1982.94,2088.45 L1981.22,2088.42 L1978.75,2087.93 L1975.82,2086.81 L1963.38,2079.72 L1962.13,2078.57 L1957.58,2072.08 L1950.54,2063.19 L1949.86,2063.32 L1948.43,2064.19 L1944.26,2065.21 L1938.19,2065.85 L1933.71,2066.02 L1931.74,2066.38 L1928.91,2067.68 L1925.33,2070.39 L1923.52,2072.77 L1923.34,2073.01 L1922.25,2075.39 L1921.76,2078.19 L1922.09,2081.35 L1922.81,2082.7 L1924.3,2084.66 L1925.97,2086.33 L1929.25,2087.84 L1940.15,2090.34 L1943.17,2091.6 L1946.19,2093.3 L1949.12,2095.57 L1954.91,2100.78 L1959.68,2104.51 L1961.72,2107.63 L1962.32,2109.41 L1963.19,2111.98 L1963.38,2114.46 L1962.9,2117.8 L1962.54,2119.05 L1961.86,2120.31 L1960.02,2122.13 L1954.22,2126.28 L1951.99,2126.96 L1950.58,2126.97 L1944.16,2126.15 L1943.21,2126.34 L1942.01,2126.89 L1938.68,2129.57 L1934.74,2131.68 L1932.68,2132.34 L1924.95,2133.66 L1923.83,2134.06 L1921.98,2135.43 L1920.98,2137.1 L1920.75,2137.49 L1920.27,2139.08 L1920.38,2141.45 L1921.42,2144.36 L1922.9,2147.32 L1925.86,2151.79 L1927.4,2153.28 L1939.35,2162.84 L1940.51,2164.46 L1941.23,2166.98 L1941.16,2168.89 L1940.08,2170.01 L1938.5,2171.73 L1935.86,2174.02 L1934.18,2176.73 L1931.62,2181.58 L1931.16,2183.22 L1930.41,2184.08 L1927.46,2186.02 L1925.49,2186.89 L1924.16,2187.04 L1920.64,2189.9 L1920.25,2191.49 L1919.9,2196.51 L1919.78,2196.79 L1919.53,2197.39 L1918.84,2198.25 L1919.16,2199.08 L1926.68,2201.24 L1929.67,2201.7 L1931.14,2201.67 L1936.27,2200.4 L1939.51,2199.27 L1941.7,2198.16 L1943.6,2196.72 L1946.95,2192.17 L1945.92,2187.25 L1944.3,2182.48 L1943.73,2178.87 L1943.66,2175.19 L1944.36,2172.86 L1945.75,2169.86 L1947.78,2169.04 L1949.21,2169.48 L1950.84,2170.8 L1952.04,2171.77 L1960.76,2177.64 L1965.64,2181.94 L1967.93,2188.32 L1968.23,2189.67 L1968.65,2191.57 L1968.43,2193.94 L1967.33,2196.75 L1964.17,2200.44 L1963.34,2201.97 L1963.33,2202.66 L1962.77,2203.59 L1959.71,2205.16 L1957.29,2204.78 L1956.11,2205.05 L1949.47,2207.59 L1944.03,2210.2 L1942.72,2210.12 L1940.59,2208.89 L1937.4,2209.83 L1934.29,2209.53 L1932.92,2210.28 L1931.79,2211.59 L1930.34,2214.38 L1930.12,2215.61 L1930.2,2216.96 L1930.59,2217.78 L1932,2219.39 L1936.95,2223.38 L1937.76,2224.04 L1943.75,2227.47 L1945.85,2228.39 L1948.24,2229.05 L1953.43,2229.46 L1958.95,2228.67 L1966.26,2225.1 L1970.43,2222.27 L1973.21,2219.26 L1976.54,2214.62 L1978.26,2209.95 L1978.21,2205.8 L1977.3,2202.74 L1977.28,2201.73 L1977.62,2199.77 L1978.65,2197.21 L1979.8,2195.36 L1981.94,2192.7 L1983.91,2191.38 L1985.61,2190.64 L1986.98,2190.56 L1989.91,2190.91 L1991.14,2191.59 L1993.2,2193.37 L1993.97,2195.41 L1994.13,2195.85 L1993.91,2204.27 L1993.48,2205.21 L1992.17,2208.05 L1988.89,2212.65 L1986.67,2215.78 L1984.25,2217.68 L1982.88,2218.75 L1980.1,2220.93 L1975.62,2225.27 L1973.38,2228.33 L1967.62,2237.09 L1965.64,2238.97 L1963.44,2240.48 L1959.27,2243.34 L1958.59,2244.04 L1958.41,2244.59 L1958.94,2250.9 L1958.59,2252.48 L1958.55,2252.69 L1957.93,2253.92 L1957.91,2254.08 L1957.8,2254.99 L1958.73,2262.11 L1958.68,2268.17 L1958.67,2269.58 L1959.32,2271.05 L1965.45,2279.32 L1965.46,2282.11 L1964.38,2285.25 L1968.55,2288.5 L1968.97,2289.2 L1969.83,2291.95 L1970.19,2293.1 L1971.78,2296.65 L1973.64,2298.74 L1976.2,2300.59 L1976.62,2300.57 L1977.53,2298.82 L1978.46,2294.34 L1979.83,2292.15 L1980.32,2290.9 L1982.09,2282.65 L1983.12,2280.17 L1984.16,2278.81 L1985.3,2277.78 L1987.82,2276.47 L1990.16,2275.82 L1993.66,2275.96 L1996.35,2276.71 L1998.13,2278.03 L1999.4,2279.94 L2000.04,2282.15 L1999.89,2284.58 L1999.38,2286.82 L1998.34,2289.55 L1997.18,2293.99 L1995.61,2296.56 L1991.48,2300.98 L1990.75,2303.19 L1989.45,2303.21 L1988.45,2304.64 L1988.61,2306.05 L1987.17,2306.3 L1985.67,2305.96 L1985.01,2306.46 L1985.01,2307.78 L1984.84,2308.11 L1983.47,2308.92 L1982.16,2308.91 L1979.74,2309.33 L1980.5,2314.69 L1981.74,2320.59 L1982.84,2329.49 L1982.62,2339.11 L1982.33,2342.12 L1981.76,2345.7 L1981.48,2347.49 L1980.52,2350.27 L1979.11,2351.75 L1974.42,2354.34 L1970.29,2355.23 L1962.87,2355.6 L1957.94,2355.25 L1954.97,2354.79 L1954.34,2354.23 L1953.85,2352.58 L1950.78,2349.49 L1950.21,2349.2 L1946.93,2348.77 L1940.91,2349.25 L1938.78,2350.2 L1936.9,2351.75 L1936,2352.76 L1933.26,2357.6 L1933.13,2359.56 L1933.4,2365.41 L1933.54,2366.14 L1933.94,2366.77 L1935.72,2367.97 L1939.78,2369.95 L1942.11,2371.09 L1944.69,2374.48 L1945.18,2375.65 L1946.04,2376.41 L1948.4,2377.24 L1950.63,2377.53 L1955.2,2379.54 L1965.83,2388.35 L1967.29,2390.85 L1967.67,2392.48 L1967.63,2393.18 L1966.34,2397.19 L1965.4,2401.37 L1963.96,2403.75 L1960.43,2406.17 L1958.32,2406.93 L1955.23,2407.39 L1952.52,2408.77 L1949.91,2410.73 L1948.25,2414.94 L1948.34,2418.58 L1906.56,2418.08 L1898.38,2418.12 L1889.48,2418.02 L1886.71,2417.99 L1886.71,2417.99 L1882.28,2417.95 L1882.25,2417.95 L1881.22,2417.94 L1880.64,2417.94 L1879.22,2417.91 L1877.85,2417.86 L1867.16,2417.78 L1859.69,2417.73 L1838.81,2417.61 L1834.45,2417.57 L1827.03,2417.7 L1824.06,2417.67 L1811.91,2417.53 L1807.29,2417.23 L1782.22,2417.2 L1776.8,2417.17 L1773.71,2417.39 L1773.64,2417.36 L1761.31,2417.34 L1757.67,2417.26 L1755.12,2417.29 L1753.85,2417.3 L1753.44,2417.3 L1741.34,2417.17 L1723.26,2416.99 L1707.88,2416.83 L1699.63,2417.11 L1680.54,2416.98 L1680.53,2416.98 L1648.94,2416.75 L1628.18,2416.82 L1617.32,2416.86 L1616.5,2416.9 L1605.59,2416.82 L1595.74,2416.75 L1567.03,2416.53 L1516.45,2416.17 L1502.7,2416.08 L1502.12,2416.07 L1472.63,2415.56 L1454.38,2415.43 L1442.99,2415.29 L1440.81,2415.26 L1439.86,2415.25 L1430.74,2415.11 L1410.5,2414.79 L1405.16,2414.71 L1397.85,2414.6 L1384.5,2414.52 L1384.04,2414.52 L1383.49,2414.52 L1374.55,2414.41 L1372.51,2414.39 L1369.03,2414.34 L1315.87,2413.69 L1303.96,2413.54 L1299.42,2413.48 L1297.17,2413.46 L1295.87,2413.44 L1295.76,2413.44 L1293.95,2413.39 L1293.93,2413.39 L1290.69,2413.43 L1290.19,2413.42 L1290.08,2413.42 L1286.62,2413.42 L1259.87,2413.17 L1255.39,2413.04 L1245.41,2412.76 L1239.8,2412.57 L1239.71,2412.55 L1235.54,2412.52 L1229.9,2412.56 L1219,2412.43 L1196.53,2412.18 L1186.22,2411.99 L1186.15,2411.99 L1178.73,2411.93 L1158.49,2411.79 L1144.11,2411.69 L1143.07,2411.63 L1139.58,2411.62 L1131.32,2411.69 L1131.13,2411.71 L1123.4,2411.69 L1108.78,2411.65 L1107.28,2411.65 L1090.61,2411.6 L1082.9,2411.38 L1079.69,2411.45 L1073.21,2411.58 L1043.83,2411.5 L1043.74,2411.49 L1030.25,2411.41 L1014.71,2411.46 L1008.41,2411.43 L1006.78,2411.42 L994.401,2411.36 L989.171,2411.33 L976.751,2411.27 L976.727,2411.27 L976.726,2411.27 L967.265,2411.36 L966.837,2411.36 L966.68,2411.36 L966.635,2411.36 L966.144,2411.35 L953.979,2411.27 L953.969,2411.27 L952.313,2411.26 L952.105,2411.26 L949.534,2411.26 L916.022,2411.09 L888.985,2410.95 L888.409,2410.95 L868.557,2410.85 L834.083,2410.88 L830.014,2410.89 L797.712,2410.92 L795.689,2410.92 L786.237,2410.93 L741.374,2410.97 L739.892,2411.01 L736.575,2411 L734.208,2410.98 L733.567,2410.97 L733.536,2380.61 L733.571,2377.31 L733.606,2373.93 L733.572,2361.54 L733.548,2353.18 L733.519,2351.03 L733.519,2351.01 L733.473,2348.35 L733.67,2339.87 L733.604,2319.94 L733.604,2319.92 L733.597,2318.49 L733.604,2312.15 L733.665,2298.72 L733.55,2294.53 L733.547,2293.69 L733.541,2291.95 L733.53,2289.09 L733.556,2283.88 L733.556,2283.87 L733.556,2283.87 L733.523,2253.93 L733.523,2249.35 L733.523,2247.21 L733.523,2245.41 L733.523,2244.18 L733.523,2243.02 L733.52,2242.66 L733.498,2239.67 L733.497,2239.65 L733.607,2233.37 L733.529,2230.06 L733.534,2228.65 L733.543,2225.93 L733.546,2224.96 L733.565,2218.98 L733.575,2216.08 L733.575,2215.93 L733.587,2212.16 L733.598,2209 L733.599,2208.56 L733.567,2204.4 L733.557,2203.1 L733.557,2201.32 L733.557,2200.67 L733.55,2199.38 L733.547,2198.66 L733.532,2195.68 L733.527,2194.49 L733.526,2194.3 L733.515,2192.02 L733.513,2191.65 L733.501,2189.22 L733.472,2183.21 L733.472,2183.19 L733.472,2183.18 L733.437,2173.52 L733.434,2172.73 L733.448,2172.6 L733.548,2171.71 L733.545,2171.29 L733.544,2171.2 L733.437,2153.83 L733.393,2146.75 L733.371,2142.14 L733.361,2141.72 L732.725,2141.99 L732.268,2142.19 L730.506,2142.31 L729.801,2141.55 L728.022,2142.49 L725.573,2142.98 L724.059,2142.4 L722.534,2141.13 L721.24,2140.9 L720.535,2139.9 L720.57,2138.66 L721.424,2137.95 L723.001,2137.31 L723.55,2137.31 L725.875,2138.22 L726.437,2138.17 L727.876,2137.29 L728.204,2136.84 L728.022,2134.12 L727.81,2133.83 L725.831,2133.33 L723.764,2133.29 L723.482,2133.28 L723.079,2132.66 L722.877,2131.73 L722.759,2130.92 L722.355,2130.62 L721.984,2130.41 L721.579,2130.27 L721.427,2130.39 L721.293,2130.62 L721.293,2130.94 L721.209,2131.41 L721.023,2131.59 L716.813,2129.94 L714.152,2130.03 L710.564,2130.84 L709.438,2131.42 L708.142,2132.55 L704.06,2134.25 L701.079,2134.25 L700.888,2135.01 L700.734,2137.51 L699.822,2141.28 L699.392,2141.8 L698.125,2142.53 L697.382,2142.38 L696.232,2141.37 L695.529,2138.83 L694.996,2133.13 L694.644,2132.2 L694.263,2132.02 L693.917,2132.22 L691.157,2135 L690.381,2135.27 L688.995,2134.92 L687.756,2133.54 L687.629,2132.99 L687.84,2131.82 L688.579,2130.9 L690.199,2129.89 L691.316,2128.81 L691.811,2127.87 L691.681,2126.95 L690.742,2126.59 L690.039,2126.66 L688.906,2127.56 L687.262,2129.72 L685.507,2129.81 L683.609,2128.03 L683.299,2127.21 L683.691,2123.62 L683.191,2123.14 L677.254,2122.04 L675.331,2121.27 L674.051,2120.22 L672.695,2121.9 L671.104,2123.87 L669.595,2126.2 L668.721,2126.79 L667.363,2127.1 L665.743,2127.24 L664.814,2126.96 L662.627,2126.06 L661.77,2125.89 L661.164,2126.04 L659.996,2127.28 L659.907,2128.03 L660.442,2129.49 L662.474,2130.81 L663.177,2130.95 L664.131,2130.52 L665.457,2130.19 L666.791,2129.76 L668.792,2130.3 L669.623,2130.86 L670.432,2132.51 L671.529,2136.55 L670.918,2138.98 L670.109,2139.74 L668.78,2140.26 L668.18,2140.21 L667.475,2139.78 L666.736,2138.89 L665.74,2134.48 L664.879,2134.13 L663.847,2134.29 L661.514,2136.21 L660.602,2137.58 L659.142,2139.77 L657.58,2140.79 L656.114,2141.38 L653.812,2141.8 L653.162,2141.73 L651.253,2141.5 L646.062,2139.43 L645.483,2138.71 L645.181,2137.57 L645.161,2136.85 L645.677,2135.12 L648.524,2130.93 L650.846,2129.32 L651.223,2128.79 L651.704,2127.19 L651.904,2124.62 L651.646,2123.9 L650.292,2122.82 L649.195,2122.74 L647.863,2123.04 L645.024,2124.54 L642.851,2126.39 L640.76,2129 L639.529,2130.91 L637.34,2135.37 L637.287,2136.16 L636.857,2137.02 L635.812,2138.48 L635.335,2138.82 L633.862,2139.3 L630.281,2139.22 L629.492,2138.99 L628.875,2138.36 L628.543,2136.03 L629.098,2133.79 L632.561,2131.21 L633.222,2130.24 L633.119,2129.08 L632.36,2127.16 L631.965,2126.7 L630.511,2126.44 L629.623,2126.57 L627.88,2127.45 L625.712,2129.57 L624.601,2131.19 L623.522,2133.6 L622.001,2137.9 L622.408,2138.97 L622.326,2140.01 L621.466,2141.3 L620.987,2142.01 L616.802,2143.44 L615.042,2142.94 L613.367,2142.12 L612.116,2141.5 L611.591,2141.16 L611.013,2140.14 L610.731,2139.12 L610.721,2139.08 L610.516,2136.51 L610.279,2135.97 L608.809,2134.2 L607.899,2133.8 L606.444,2133.83 L605.815,2134.09 L602.893,2136.69 L602.8,2137.48 L605.064,2141.75 L605.025,2142.31 L604.366,2143.69 L601.589,2146.16 L601.41,2146.32 L600.133,2146.29 L599.127,2145.59 L598.305,2145.42 L594.8,2145.39 L594.042,2145.66 L590.549,2145.88 L588.683,2145.43 L587.235,2144.49 L585.944,2142.28 L583.977,2140.94 L582.833,2139.26 L582.125,2138.11 L582.497,2136.51 L583.784,2135.31 L585.184,2134.93 L586.035,2135.11 L587.853,2135 L590.183,2134.22 L591.214,2133.26 L591.86,2132.05 L592.198,2130.39 L592.065,2129.17 L591.401,2127.35 L590.034,2126 L588.75,2126.7 L583.93,2131.91 L581.396,2133.52 L579.049,2133.64 L577.667,2133.39 L577.516,2133.26 L577.253,2133.05 L571.837,2124.4 L571.163,2122.93 L570.124,2122.02 L566.121,2120.48 L565.269,2121.83 L564.919,2121.96 L562.07,2122.14 L561.01,2121.9 L560.008,2121.46 L558.219,2118.4 L557.839,2118.34 L554.058,2117.81 L552.764,2116.71 L552.416,2116.17 L552.335,2115.39 L553.482,2113.81 L556.486,2112.16 L559.681,2109.84 L560.445,2108.91 L560.713,2107.98 L560.55,2106.05 L559.476,2105.9 L557.352,2105.14 L556.996,2104.63 L556.317,2101.85 L557.972,2101.07 L562.349,2100.03 L562.745,2099.14 L563.016,2097.15 L562.271,2095.83 L559.66,2094.75 L557.811,2094.63 L556.859,2095.4 L555.705,2098.43 L554.907,2099.13 L550.541,2097.77 L548.473,2097.84 L546.547,2098.32 L546.673,2090.49 L546.693,2085.37 L547.119,2072.93 L547.078,2071.06 L547.406,2061.04 L547.392,2058.3 L547.485,2054.52 L547.518,2053.17 L547.633,2048.53 L547.633,2048.52 L547.816,2041.12 L547.819,2041.01 L547.823,2040.87 L547.855,2039.56 L547.895,2038.22 L547.989,2033.81 L548.25,2021.6 L548.25,2021.59 L548.376,2018.19 L548.379,2018.02 L548.453,2014.67 L548.455,2014.54 L548.7,2004.25 L548.785,2000.68 L549.047,1989.92 L549.12,1987.19 L549.452,1974.73 L549.516,1974.59 L550.131,1945.95 L550.16,1944.34 L550.16,1944.34 L550.278,1937.77 L550.312,1935.98 L551.131,1906.17 L551.183,1904.25 L551.183,1903.21 L551.183,1903.14 L551.183,1903.12 L551.618,1883.97 L552.121,1861.78 L552.772,1833.1 L553.127,1817.45 L553.813,1787.16 L554.757,1745.48 L555.004,1734.57 L555.177,1730.86 L555.182,1730.75 L555.406,1721.36 L555.709,1708.66 L555.861,1702.65 L555.922,1700.03 L555.925,1699.92 L556.081,1693.32 L556.253,1686.05 L556.26,1685.75 L556.448,1677.84 L556.987,1655.03 L557.015,1653.85 L557.319,1641.07 L557.448,1635.65 L557.451,1634.31 L558.022,1610.64 L558.366,1596.39 L558.484,1591.47 L558.528,1589.65 L558.515,1585.54 L558.522,1585.3 L559.05,1566.62 L559.075,1565.72 L559.154,1562.93 L559.248,1559.6 L559.44,1552.8 L559.691,1543.93 L559.763,1541.37 L560.301,1522.29 L561.193,1490.67 L561.238,1489.07 L561.375,1484.21 L561.559,1477.7 L561.597,1476.36 L561.636,1474.67 L561.668,1473.31 L561.851,1466.14 L561.853,1466.09 L562.072,1458.96 L562.093,1458.27 L562.081,1456.42 L562.01,1455.53 L562.586,1435.93 L562.707,1431.82 L563.257,1413.11 L563.554,1402.99 L563.608,1401.13 L564.02,1387.11 L564.532,1369.65 L564.799,1360.52 L565.268,1344.54 L565.268,1344.53 L565.397,1340.13 L565.599,1335.44 L566.037,1317.56 L566.108,1314.67 L566.125,1313.23 L566.371,1306.09 L566.399,1305.29 L566.316,1301.98 L566.304,1300.06 L566.411,1297.67 L566.564,1294.23 L566.658,1292.99 L566.806,1287.58 L566.826,1286.86 L566.832,1286.64 L566.94,1282.68 L566.87,1279.02 L566.857,1278.37 L566.94,1276.86 L566.985,1276.42 L567.355,1272.78 L567.48,1268.64 L567.686,1261.81 L567.694,1261.53 L567.731,1260.27 L567.828,1259.78 L567.895,1259.43 L567.896,1259.36 L567.899,1257.95 L567.901,1257.15 L567.911,1253.44 L567.957,1251.36 L567.975,1251.05 L568.268,1245.94 L568.402,1243.6 L568.506,1239.71 L568.509,1239.61 L568.553,1237.96 L568.589,1236.64 L568.707,1232.23 L568.858,1226.56 L568.956,1222.91 L569.034,1219.98 L569.057,1219.1 L569.192,1214.06 L568.837,1212.89 L568.824,1212.84 L569.466,1210.97 L568.698,1207.47 L568.835,1206.43 L567.78,1202.38 L569.399,1199.82 L569.525,1199.62 L569.603,1199.5 L569.861,1199.09 L569.685,1197.91 L567.777,1185.09 L566.363,1175.58 L565.435,1169.35 L565.414,1169.21 L565.398,1169.1 L565.3,1168.44 L561.856,1145.28 L561.823,1145.06 L561.734,1144.37 L560.762,1136.83 L559.703,1128.63 L558.901,1122.41 L558.808,1121.69 L557.472,1111.32 L556.251,1101.86 L556.071,1100.46 L555.743,1098.07 L555.694,1097.8 L555.591,1097.22 L555.246,1094.56 L554.855,1091.65 L552.786,1076.29 L552.132,1071.43 L547.985,1041.5 L547.849,1040.52 L547.218,1035.96 L547.213,1035.92 L545.825,1025.9 L545.561,1024.29 L544.137,1013.17 L543.567,1008.72 L543.385,1007.3 L542.884,1003.97 L541.058,991.369 L540.986,990.873 L540.731,989.077 L540.36,986.092 L540.34,985.971 L540.26,985.479 L540.092,984.12 L539.311,978.507 L538.708,973.738 L538.2,969.957 L537.455,964.286 L537.36,963.564 L533.245,934.969 L533.163,934.401 L532.885,932.212 L532.87,932.099 L531.188,918.876 L531.015,917.516 L531.015,917.23 L531.025,917.181 L530.909,916.537 L530.303,912.405 L530.178,911.531 L528.691,901.13 L528.631,900.927 L528.621,900.859 L527.044,889.583 L527.042,889.565 L527.04,889.553 L526.375,884.882 L526.364,884.813 L525.866,881.816 L525.714,880.708 L525.498,879.139 L524.83,874.357 L522.317,856.356 L520.435,842.863 L520.369,842.336 L519.525,836.535 L518.548,829.819 L516.429,815.252 L515.455,808.554 L515.375,808.005 L514.755,803.746 L514.064,798.705 L514.053,798.629 L513.658,795.761 L513.004,791.021 L512.859,789.975 L512.639,788.412 L512.466,787.184 L512.224,785.442 L511.95,783.47 L511.324,778.96 L510.496,772.99 L510.49,772.952 L510.262,771.5 L509.169,762.996 L508.964,761.559 L508.884,761.066 L508.49,757.722 L507.689,752.76 L507.696,752.481 L506.345,742.428 L505.709,737.701 L504.805,730.968 L504.298,727.195 L504.184,726.351 L502.023,709.293 L501.868,708.066 L501.27,703.344 L501.145,702.362 L498.474,680.419 L498.141,677.755 L498.014,676.742 L497.52,672.796 L497.307,671.488 L497.25,671.136 L496.662,666.766 L496.074,662.392 L493.455,641.617 L493.002,637.881 L492.518,633.888 L491.892,629.296 L490.863,622.215 L490.791,621.721 L490.827,621.721"/>
  </g>
  <g stroke-width="1" transform="matrix(0.999744,0,0,0.999744,0,0)" stroke-opacity="1" font-size="34.5833" fill="none" stroke-linejoin="bevel" font-style="normal" stroke-linecap="square" stroke="#000000" font-family="MS Shell Dlg 2" font-weight="400"/>
  <g stroke-width="1" transform="matrix(11.808,0,0,11.808,0,0)" stroke-opacity="1" font-size="34.5833" fill="none" stroke-linejoin="bevel" font-style="normal" stroke-linecap="square" stroke="#000000" font-family="MS Shell Dlg 2" font-weight="400"/>
  <g stroke-width="1" transform="matrix(11.808,0,0,11.808,0,0)" stroke-opacity="1" font-size="34.5833" fill="none" stroke-linejoin="bevel" font-style="normal" stroke-linecap="square" stroke="#000000" font-family="MS Shell Dlg 2" font-weight="400"/>
  <g stroke-width="1" transform="matrix(11.808,0,0,11.808,0,0)" stroke-opacity="1" font-size="34.5833" fill="none" stroke-linejoin="bevel" font-style="normal" stroke-linecap="square" stroke="#000000" font-family="MS Shell Dlg 2" font-weight="400"/>
  <g stroke-width="1" transform="matrix(1,0,0,1,0,0)" stroke-opacity="1" font-size="34.5833" fill="none" stroke-linejoin="bevel" font-style="normal" stroke-linecap="square" stroke="#000000" font-family="MS Shell Dlg 2" font-weight="400"/>
  <g stroke-width="1" transform="matrix(11.808,0,0,11.808,0,0)" stroke-opacity="1" font-size="34.5833" fill="none" stroke-linejoin="bevel" font-style="normal" stroke-linecap="square" stroke="#000000" font-family="MS Shell Dlg 2" font-weight="400"/>
  <g stroke-width="1" transform="matrix(11.808,0,0,11.808,0,0)" stroke-opacity="1" font-size="34.5833" fill="none" stroke-linejoin="bevel" font-style="normal" stroke-linecap="square" stroke="#000000" font-family="MS Shell Dlg 2" font-weight="400"/>
  <g stroke-width="1" transform="matrix(11.808,0,0,11.808,0,0)" stroke-opacity="1" font-size="34.5833" fill="none" stroke-linejoin="bevel" font-style="normal" stroke-linecap="square" stroke="#000000" font-family="MS Shell Dlg 2" font-weight="400"/>
  <g stroke-width="1" transform="matrix(11.808,0,0,11.808,0,0)" stroke-opacity="1" font-size="34.5833" fill="none" stroke-linejoin="bevel" font-style="normal" stroke-linecap="square" stroke="#000000" font-family="MS Shell Dlg 2" font-weight="400"/>
  <g stroke-width="1" transform="matrix(1,0,0,1,0,0)" stroke-opacity="1" font-size="34.5833" fill="none" stroke-linejoin="bevel" font-style="normal" stroke-linecap="square" stroke="#000000" font-family="MS Shell Dlg 2" font-weight="400"/>
 </g>
</svg>
