<?xml version='1.0' encoding='UTF-8' standalone='no'?>
<svg xmlns:xlink="http://www.w3.org/1999/xlink" baseProfile="tiny" xmlns="http://www.w3.org/2000/svg" height="249.936mm" viewBox="0 0 2952 2952" width="249.936mm" version="1.2">
 <title>Qt SVG Document</title>
 <desc>Generated with Qt</desc>
 <defs/>
 <g stroke-width="1" fill-rule="evenodd" fill="none" stroke-linejoin="bevel" stroke-linecap="square" stroke="black">
  <g stroke-width="1" transform="matrix(1,0,0,1,0,0)" stroke-opacity="1" font-size="34.5833" fill="none" stroke-linejoin="bevel" font-style="normal" stroke-linecap="square" stroke="#000000" font-family="MS Shell Dlg 2" font-weight="400"/>
  <g stroke-width="1" transform="matrix(1,0,0,1,0,0)" stroke-opacity="1" font-size="34.5833" fill="none" stroke-linejoin="bevel" font-style="normal" stroke-linecap="square" stroke="#000000" font-family="MS Shell Dlg 2" font-weight="400"/>
  <g stroke-width="1" transform="matrix(11.808,0,0,11.808,0,0)" stroke-opacity="1" font-size="34.5833" fill="none" stroke-linejoin="bevel" font-style="normal" stroke-linecap="square" stroke="#000000" font-family="MS Shell Dlg 2" font-weight="400"/>
  <g stroke-width="1" transform="matrix(0.999744,0,0,0.999744,0,0)" stroke-opacity="1" font-size="34.5833" fill="none" stroke-linejoin="bevel" font-style="normal" stroke-linecap="square" stroke="#000000" font-family="MS Shell Dlg 2" font-weight="400"/>
  <g transform="matrix(0.999744,0,0,0.999744,0,0)" font-size="34.5833" fill-opacity="0" fill="#ffffff" font-style="normal" stroke="none" font-family="MS Shell Dlg 2" font-weight="400">
   <path fill-rule="evenodd" vector-effect="none" d="M-2,-2 L2955,-2 L2955,2955 L-2,2955 L-2,-2"/>
  </g>
  <g stroke-width="1" transform="matrix(0.999744,0,0,0.999744,0,0)" stroke-opacity="1" font-size="34.5833" fill="none" stroke-linejoin="bevel" font-style="normal" stroke-linecap="square" stroke="#000000" font-family="MS Shell Dlg 2" font-weight="400"/>
  <g stroke-width="1" transform="matrix(11.808,0,0,11.808,0,0)" stroke-opacity="1" font-size="34.5833" fill="none" stroke-linejoin="bevel" font-style="normal" stroke-linecap="square" stroke="#000000" font-family="MS Shell Dlg 2" font-weight="400"/>
  <g stroke-width="1" transform="matrix(11.808,0,0,11.808,0,0)" stroke-opacity="1" font-size="34.5833" fill="none" stroke-linejoin="bevel" font-style="normal" stroke-linecap="square" stroke="#000000" font-family="MS Shell Dlg 2" font-weight="400"/>
  <g stroke-width="1" transform="matrix(11.808,0,0,11.808,0,0)" stroke-opacity="1" font-size="34.5833" fill="none" stroke-linejoin="bevel" font-style="normal" stroke-linecap="square" stroke="#000000" font-family="MS Shell Dlg 2" font-weight="400"/>
  <g stroke-width="1" transform="matrix(11.808,0,0,11.808,0,0)" stroke-opacity="1" font-size="34.5833" fill="none" stroke-linejoin="bevel" font-style="normal" stroke-linecap="square" stroke="#000000" font-family="MS Shell Dlg 2" font-weight="400"/>
  <g stroke-width="1" transform="matrix(11.808,0,0,11.808,0,0)" stroke-opacity="1" font-size="34.5833" fill="none" stroke-linejoin="bevel" font-style="normal" stroke-linecap="square" stroke="#000000" font-family="MS Shell Dlg 2" font-weight="400"/>
  <g transform="matrix(11.808,0,0,11.808,0,0)" font-size="34.5833" fill-opacity="0" fill="#ffffff" font-style="normal" stroke="none" font-family="MS Shell Dlg 2" font-weight="400">
   <path fill-rule="evenodd" vector-effect="none" d="M0,0 L250,0 L250,250 L0,250 L0,0"/>
  </g>
  <g stroke-width="1" transform="matrix(11.808,0,0,11.808,0,0)" stroke-opacity="1" font-size="34.5833" fill="none" stroke-linejoin="bevel" font-style="normal" stroke-linecap="square" stroke="#000000" font-family="MS Shell Dlg 2" font-weight="400"/>
  <g stroke-width="1" transform="matrix(11.808,0,0,11.808,0,0)" stroke-opacity="1" font-size="34.5833" fill="none" stroke-linejoin="bevel" font-style="normal" stroke-linecap="square" stroke="#000000" font-family="MS Shell Dlg 2" font-weight="400"/>
  <g transform="matrix(0.999744,0,0,0.999744,0,0)" font-size="34.5833" fill-opacity="0" fill="#000000" font-style="normal" stroke="none" font-family="MS Shell Dlg 2" font-weight="400">
   <rect x="0" height="2953" width="2953" y="0"/>
  </g>
  <g stroke-width="1" transform="matrix(0.999744,0,0,0.999744,0,0)" stroke-opacity="1" font-size="34.5833" fill="none" stroke-linejoin="bevel" font-style="normal" stroke-linecap="square" stroke="#000000" font-family="MS Shell Dlg 2" font-weight="400"/>
  <g stroke-width="3.07087" transform="matrix(0.999744,0,0,0.999744,0,0)" stroke-opacity="1" font-size="34.5833" fill-opacity="1" fill="#c5c5c5" stroke-linejoin="bevel" font-style="normal" stroke-linecap="square" stroke="#5c5c5c" font-family="MS Shell Dlg 2" font-weight="400">
   <path fill-rule="evenodd" vector-effect="none" d="M609.675,2124 L610.261,2123.65 L611.497,2123.88 L612.22,2123.76 L612.959,2123.31 L613.674,2122.69 L613.879,2121.61 L613.313,2121.02 L612.097,2120.92 L611.434,2120.35 L611.627,2119.73 L611.088,2118.79 L610.968,2118.65 L610.566,2118.21 L611.377,2117.08 L612.614,2115.84 L613.867,2114 L613.916,2112.93 L613.097,2112.15 L612.743,2110.85 L612.783,2110.5 L613.362,2109.92 L615.812,2108.88 L615.93,2108.77 L616.366,2108.39 L616.873,2107.45 L617.025,2106.74 L616.896,2105.46 L616.502,2104.99 L616.918,2103.53 L616.936,2103.28 L616.962,2102.93 L616.649,2102.4 L616.229,2102.5 L616.022,2102.9 L615.929,2103.53 L615.211,2104.12 L614.303,2104.56 L613.217,2105.72 L611.876,2106.23 L610.763,2105.85 L610.47,2105.22 L610.301,2104 L610.655,2102.62 L611.772,2101.89 L613.202,2101.13 L613.958,2100.05 L614.078,2099.25 L613.363,2098.33 L613.331,2097.7 L613.677,2096.85 L614.384,2095.79 L614.422,2095.53 L614.594,2094.35 L614.61,2093.84 L614.056,2092.08 L613.814,2091.81 L612.753,2091.33 L612.167,2090.61 L611.829,2088.48 L611.725,2085.55 L612.32,2084.06 L614.723,2082.73 L615.239,2082.92 L616.268,2083.66 L617.136,2083.89 L619.901,2082.75 L619.664,2081.49 L619.793,2080.93 L620.076,2080.49 L620.443,2080.05 L620.69,2079.74 L622.096,2078.94 L625.097,2076.54 L625.211,2076.29 L625.415,2075.85 L625.355,2075.36 L624.893,2074.64 L624.928,2074.17 L626.9,2072.12 L628.445,2071.02 L629.963,2068.95 L630.008,2067.71 L630.243,2067.21 L630.752,2066.12 L631.006,2063.83 L635.176,2056.71 L635.298,2056.42 L635.285,2054.79 L637.466,2051.69 L638.39,2049.68 L638.975,2048.66 L639.533,2046.5 L639.702,2046.09 L639.723,2046.03 L639.909,2045.57 L640.19,2045.15 L642.525,2041.62 L643.653,2040.22 L644.002,2040.2 L644.582,2040.47 L647.556,2043 L648.894,2043.05 L650.571,2043.38 L651.029,2043.52 L653.88,2044.22 L654.476,2044.25 L656.451,2044.36 L656.623,2044.37 L658.966,2044.69 L660.235,2044.87 L660.262,2044.87 L664.22,2045.41 L665.525,2045.7 L666.65,2045.94 L666.653,2045.94 L666.687,2045.95 L668.472,2046.33 L669.276,2046.26 L669.301,2046.26 L669.257,2045.91 L669.542,2044.27 L670.158,2044.12 L678.93,2043.97 L678.95,2043.97 L679.342,2043.97 L679.356,2041.36 L684.474,2041.37 L684.492,2038.81 L688.334,2038.76 L688.338,2038.76 L691.985,2038.72 L692.024,2036.19 L695.66,2036.14 L695.507,2034.97 L695.188,2032.55 L694.182,2030.08 L694.003,2029.14 L694.207,2027.17 L694.23,2024.1 L694.501,2023.29 L695.068,2022.29 L697.093,2020.39 L697.582,2019.72 L697.768,2018.98 L699.066,2016.94 L700.603,2015.18 L703.168,2013.88 L704.581,2013.16 L704.742,2013.09 L705.386,2012.75 L706.589,2011.54 L706.597,2011.53 L708.758,2009.36 L708.765,2009.35 L710.8,2007.3 L712.856,2005.02 L713.873,1994.53 L713.823,1992.98 L713.823,1992.9 L713.948,1991.61 L714.592,1984.95 L714.651,1982.81 L714.437,1981.49 L714.2,1980.97 L711.447,1978.33 L710.578,1977.26 L709.875,1975.61 L709.306,1973.15 L709.36,1972.52 L710.038,1971.27 L711.349,1969.64 L712.303,1968.16 L712.814,1966.98 L713.225,1965.69 L713.361,1964.14 L713.297,1962.95 L713.244,1961.95 L712.836,1960.03 L712.364,1959.52 L712.257,1959.41 L710.721,1959.01 L709.456,1959.55 L709.189,1960.11 L707.017,1960.86 L706.57,1960.88 L705.736,1960.21 L705.357,1959.33 L704.912,1957.27 L704.436,1953.24 L703.698,1948.84 L702.785,1946.27 L701.817,1944.19 L700.268,1941.91 L699.212,1940.82 L698.741,1940.45 L697.658,1939.6 L696.634,1939.25 L692.213,1938.38 L687.837,1938.18 L682.352,1937.24 L681.309,1937.27 L680.381,1937.69 L679.455,1938.69 L678.456,1940.22 L677.798,1940.67 L676.967,1940.93 L673.629,1941.22 L668.349,1940.58 L666.27,1939.79 L665.525,1939.22 L663.773,1936.39 L662.18,1934.17 L661.566,1933.6 L660.271,1932.89 L659.373,1933.65 L657.58,1937.07 L656.751,1938.23 L656.156,1938.65 L655.418,1938.64 L654.603,1938.21 L652.897,1936.76 L652.048,1935.37 L651.619,1933.38 L651.859,1929.96 L648.088,1925.07 L647.455,1923.24 L647.4,1922.16 L647.61,1920.85 L647.485,1920.44 L646.437,1919.82 L645.819,1919.66 L643.877,1919.61 L642.818,1919.37 L642.295,1918.97 L641.9,1917.93 L641.877,1915.69 L642.388,1912.88 L643.129,1909.89 L645.165,1903.71 L647.195,1901.34 L648.063,1899.81 L648.831,1897.71 L649.495,1895.19 L650.355,1893.66 L650.542,1892.45 L650.091,1890.04 L650.451,1888.26 L651.403,1885.85 L651.543,1884.44 L651.593,1883.49 L650.706,1879.44 L650.536,1878.07 L651.331,1875.45 L652.032,1872.46 L652.058,1871.08 L651.805,1870.24 L650.73,1868.53 L649.353,1866.89 L647.366,1863.22 L647.33,1862.81 L647.727,1862.26 L651.801,1859.55 L652.515,1858.52 L652.422,1857.82 L651.046,1854.37 L650.014,1853.16 L648.868,1852.29 L645.872,1850.95 L643.369,1850.2 L640.897,1849.69 L638.913,1849.05 L637.785,1848.4 L637.313,1848.01 L634.947,1842.91 L634.948,1842.33 L635.339,1841.73 L637.205,1839.47 L641.017,1836.44 L641.858,1835.44 L642.666,1833.9 L643.944,1830.61 L644.807,1825.12 L644.767,1823.65 L644.504,1822.03 L642.04,1816.52 L642.141,1815.1 L642.051,1814.42 L641.725,1813.85 L640.182,1812.38 L637.428,1808.64 L636.709,1807.37 L636.637,1806.76 L636.712,1806.41 L637.144,1805.88 L638.262,1805.4 L640.991,1805.62 L643.708,1805.22 L644.904,1804.31 L645.172,1803.9 L645.261,1803.2 L645.514,1802.82 L647.802,1801.82 L651.976,1801.69 L656.587,1803.57 L658.237,1803.61 L659.213,1803.35 L661.066,1802.25 L661.747,1801.65 L663.478,1800.12 L665.125,1798.19 L665.872,1796.26 L667.311,1791.28 L666.98,1788.81 L667.122,1788.07 L670.225,1783.01 L671.6,1781.57 L673.427,1779.23 L674.016,1778.19 L674.299,1777.3 L674.738,1775.93 L676.44,1772.8 L677.424,1771.73 L679.733,1770.3 L681.727,1769.91 L682.981,1769.32 L685.527,1766.64 L685.649,1766.09 L685.565,1763.93 L685.96,1761.65 L686.141,1761.26 L691.158,1757.46 L696.33,1753.99 L696.392,1753.47 L695.666,1752.12 L693.043,1748.09 L692.954,1747.96 L691.666,1743.87 L691.572,1740.02 L693.924,1736.25 L694.504,1735.33 L694.544,1735.26 L694.968,1734.58 L695.682,1733.81 L697.081,1732.93 L696.993,1731.9 L695.399,1730.37 L694.999,1729.21 L694.365,1728.43 L694.403,1727 L694.633,1726.6 L695.804,1726.16 L696.567,1724.58 L696.238,1723.1 L696.094,1722.45 L695.132,1721.56 L694.86,1721.31 L693.771,1719.67 L693.777,1718.52 L694.553,1717.52 L696.163,1717 L698.191,1717 L699.313,1716.26 L699.462,1715.48 L699.082,1714.82 L698.554,1714.52 L697.497,1714.59 L695.784,1714.16 L694.646,1713.11 L694.095,1712.08 L694.273,1710.16 L694.417,1709.55 L694.622,1708.68 L695.385,1707.45 L696.52,1706.31 L697.96,1705.38 L699.952,1704.38 L700.709,1704.17 L702.155,1703.76 L704.681,1702.37 L704.91,1701.82 L705.362,1698.44 L705.153,1696.11 L704.658,1694.43 L703.404,1693.34 L702.847,1692.49 L702.397,1691.25 L701.618,1690.37 L700.588,1689.79 L699.97,1689.05 L700.099,1688.77 L701.2,1686.41 L701.856,1684.71 L702.306,1683.05 L702.349,1681.13 L702.203,1679.76 L702.193,1679.67 L701.532,1677 L698.667,1669.71 L697.669,1665.73 L695.305,1660.19 L695.569,1659.75 L696.89,1658.75 L697.479,1657.66 L697.705,1656.46 L697.558,1655.61 L696.684,1652.91 L696.051,1651.73 L694.845,1648.35 L694.908,1647.03 L695.142,1646.07 L695.186,1645.9 L695.362,1645.59 L695.685,1645.03 L696.351,1644.63 L698.644,1644.75 L699.279,1644.57 L701.963,1642.55 L702.483,1642.02 L702.742,1641.22 L702.629,1638.71 L702.349,1638.04 L700.626,1636.65 L698.851,1634.73 L696.617,1632.05 L696.276,1631.33 L695.952,1629.41 L696.195,1629.18 L696.822,1629.36 L698.783,1630.51 L699.564,1630.5 L700.387,1630.09 L701.051,1629.54 L701.265,1629.12 L701.285,1628.41 L701.096,1627.59 L700.218,1625.8 L698.162,1623.5 L696.104,1621.8 L695.205,1621.29 L693.739,1620.49 L693.633,1620.44 L693.303,1619.7 L693.244,1619.57 L693.098,1617.36 L695.118,1612.65 L697.102,1609.85 L698.926,1608.96 L700.302,1609.35 L700.796,1609.27 L703.673,1607.65 L705.109,1605.84 L708.158,1602.73 L708.659,1601.93 L708.886,1601.06 L709.147,1600.67 L710.795,1599.54 L712.212,1598.24 L713.165,1596.51 L713.683,1596.3 L714.851,1596.31 L715.485,1596.15 L715.928,1595.55 L716.107,1594.74 L716.063,1594.64 L715.763,1593.95 L715.234,1593.51 L713.655,1592.56 L713.349,1592.1 L713.321,1591.29 L713.778,1590.02 L714.177,1589.66 L714.53,1589.56 L717.064,1590.03 L718.431,1589.45 L720.327,1588.16 L721.302,1587.03 L721.978,1585.85 L722.6,1583.89 L722.963,1580.41 L722.798,1578.68 L721.878,1575.96 L721.639,1574.67 L721.659,1573.2 L722.151,1568.17 L722.82,1565.37 L723.149,1562.94 L723.191,1562.63 L723.429,1562.26 L725.02,1560.69 L725.572,1559.16 L727.256,1556.86 L728.62,1555.36 L729.875,1554.5 L730.341,1554.35 L731.581,1553.96 L732.944,1553.92 L736.148,1554.48 L739.515,1552.36 L742.467,1551.82 L743.291,1551.44 L745.109,1549.64 L746.306,1547.18 L747.299,1546.22 L748.778,1545.74 L752.325,1545.89 L753.642,1545.51 L755.752,1544.91 L756.881,1544.24 L759.427,1542.03 L762.403,1537.96 L762.607,1537.68 L763.341,1536.68 L763.343,1536.68 L765.19,1534.15 L766.828,1532.79 L770.401,1532.21 L772.48,1532.9 L776.677,1531.6 L779.633,1529.52 L780.666,1528.23 L783.933,1526.9 L784.138,1526.72 L784.729,1526.2 L785.351,1524.4 L785.078,1521.57 L785.276,1520.9 L785.814,1520.36 L788.17,1518.99 L789.267,1518.06 L790.309,1516.63 L795.471,1511.12 L799.216,1507.9 L799.281,1507.84 L799.771,1507.29 L799.906,1506.86 L800.389,1505.87 L800.746,1505.24 L801.476,1504.91 L802.702,1504.37 L803.314,1503.64 L803.495,1503.04 L803.716,1502.37 L804.101,1501.71 L804.734,1501.28 L805.578,1501.21 L806.62,1501.26 L808.458,1500.8 L809.165,1500.78 L811.937,1501.4 L812.586,1501.2 L813.113,1500.51 L813.196,1499.66 L812.139,1497.42 L811.574,1495.48 L811.463,1494.53 L811.759,1493.16 L811.366,1491.57 L811.071,1490.38 L810.876,1488.91 L810.724,1487.76 L811.13,1485.93 L811.095,1485.1 L810.309,1484.14 L805.474,1479.84 L802.027,1472.05 L800.828,1470.08 L799.62,1468.53 L798.362,1467.49 L797.052,1466.7 L795.406,1466.07 L794.76,1465.58 L792.914,1464.19 L788.669,1463.79 L785.005,1462.55 L783.942,1461.47 L782.578,1458.68 L779.315,1455.44 L778.308,1454.56 L777.093,1453.85 L773.654,1449.8 L772.702,1449.39 L768.962,1449.15 L766.974,1448.36 L766.421,1447.9 L765.959,1447.3 L765.504,1446.28 L765.362,1443.94 L764.587,1442.58 L762.751,1440.63 L759.414,1438.5 L757.393,1437.38 L755.29,1436.87 L755.184,1436.64 L753.942,1433.97 L753.252,1432.96 L752.545,1432.26 L751.281,1431.76 L750.393,1431.75 L746.409,1432.37 L744.217,1433.08 L741.153,1433.38 L740.538,1433.07 L739.628,1432.14 L737.297,1429.42 L737.087,1428.49 L737.152,1427.94 L738.24,1424.92 L738.782,1422.89 L738.787,1422.81 L738.825,1422.23 L738.384,1418.26 L738.587,1415.78 L738.871,1414.53 L739.377,1413.02 L739.844,1411.63 L739.815,1408.3 L739.189,1404.47 L739.038,1403.54 L738.661,1402.85 L736.434,1398.76 L733.462,1392.6 L731.792,1389.14 L726.696,1385.15 L723.13,1380.87 L722.512,1379.85 L722.543,1379.34 L725.175,1378.47 L725.818,1377.88 L726.119,1377.34 L726.156,1374.41 L724.835,1372.9 L721.837,1370.44 L721.762,1370.14 L721.047,1367.3 L721.009,1366.81 L721.375,1364.38 L721.027,1362.83 L720.192,1361.38 L718.626,1359.62 L717.735,1358.87 L716.404,1357.87 L716.061,1357.29 L716.357,1356.53 L718.191,1354.75 L718.341,1354.06 L718.037,1353.42 L717.213,1352.47 L717.033,1351.8 L716.866,1350.83 L716.541,1350.04 L714.874,1347.2 L713.963,1345.25 L713.118,1341.43 L712.96,1339.34 L712.409,1337.97 L712.069,1337.39 L711.456,1337.03 L710.382,1336.83 L709.585,1336.51 L708.999,1336.28 L708.336,1335.77 L707.792,1335.34 L707.569,1335.17 L706.32,1333.09 L706.01,1332.79 L704.868,1331.97 L702.64,1330.78 L700.58,1329.94 L698.701,1328.79 L697.385,1327.19 L696.918,1326.27 L696.03,1325.08 L694.84,1323.7 L691.664,1321.43 L689.71,1319.73 L687.987,1317.9 L686.214,1315.38 L685.363,1313.66 L684.054,1311.03 L682.543,1307.98 L681.485,1303.84 L681.348,1302.99 L680.926,1300.38 L679.537,1296.47 L677.839,1293.01 L676.206,1291.03 L673.736,1288.78 L672.666,1287.98 L668.025,1285.34 L666.819,1284.3 L664.925,1282.03 L664.816,1281.9 L663.716,1279.54 L663.495,1278.82 L663.481,1278.77 L663.008,1274.9 L663.02,1273.66 L663.407,1271.46 L664.758,1267.09 L664.832,1265.8 L664.854,1265.42 L664.057,1262.03 L664.055,1261.61 L664.055,1261.56 L664.052,1260.9 L664.052,1260.8 L664.196,1259.8 L664.196,1259.8 L664.211,1259.7 L664.366,1258.62 L665.092,1255.7 L665.087,1254.12 L665.074,1253.48 L664.519,1251.13 L664.338,1250.61 L663.547,1248.37 L663.462,1246.11 L663.65,1244.69 L665.046,1240.44 L665.091,1240.11 L665.311,1238.5 L665.259,1236.42 L665.04,1235.38 L663.982,1232.8 L663.036,1230.28 L663.016,1230.08 L662.635,1226.02 L662.97,1223.18 L664.297,1219.84 L664.884,1218.87 L665.873,1217.25 L668.773,1214.78 L668.804,1214.76 L671.942,1212.09 L672.855,1210.17 L673.067,1208.59 L672.523,1206.32 L671.441,1205.02 L670.029,1203.32 L667.241,1201.29 L663.367,1199.47 L661.206,1198.46 L660.974,1198.07 L660.04,1196.51 L660.755,1195.04 L663.561,1192.1 L665.038,1190.55 L666.894,1189.79 L668.017,1189.33 L670.075,1189.4 L672.739,1189.49 L673.72,1189.52 L674.192,1189.54 L677.573,1188.57 L679.24,1187.46 L680.31,1186.74 L682.027,1183.12 L682.171,1181.77 L682.175,1181.73 L682.971,1174.28 L683.015,1170.96 L683.069,1166.86 L682.269,1161.04 L682.266,1161.02 L682.213,1160.64 L681.406,1158.71 L679.883,1157.35 L678.815,1149.97 L678.948,1147 L677.754,1138.17 L674.672,1125.58 L675.139,1115.29 L672.649,1104.96 L670.533,1099.33 L665.869,1084.59 L658.481,1077.42 L655.475,1071.92 L654.769,1070.01 L654.211,1063.68 L652.273,1058.26 L650.865,1055.33 L650.629,1053.43 L650.401,1051.59 L650.477,1050.95 L650.995,1046.66 L652.005,1045.05 L655.184,1042.65 L656.699,1040.46 L657.025,1039.03 L656.877,1038.3 L656.045,1037.24 L655.51,1034.98 L655.213,1028.33 L654.789,1026.6 L654.255,1025.43 L653.613,1024.45 L653.129,1023.99 L652.67,1023.76 L651.685,1022.97 L651.427,1022.57 L651.452,1022.37 L651.652,1022.14 L653.078,1021.11 L653.712,1020.86 L654.856,1020.21 L655.739,1020.03 L656.219,1019.78 L657.797,1015.95 L658.065,1011.13 L656.926,1008.84 L656.266,1007.93 L655.506,1007.51 L655.022,1007.48 L654.505,1007.19 L654.121,1006.64 L653.555,1004.82 L652.138,1002.09 L650.873,999.804 L647.37,996.281 L647.191,991.427 L649.219,987.108 L649.509,986.49 L649.984,983.82 L649.211,982.394 L645.973,980.273 L643.864,978.078 L642.616,975.48 L642.646,974.273 L645.022,966.186 L645.498,958.024 L643.804,953.228 L644.547,945.502 L640.625,939.642 L641.279,938.176 L643.121,936.564 L645.359,931.378 L645.634,930.079 L645.289,929.53 L643.542,926.962 L642.282,923.944 L643.154,922.636 L644.895,922.238 L645.895,921.952 L646.761,920.413 L649.567,918.718 L653.228,918.058 L655.327,916.545 L655.62,915.865 L655.151,914.903 L653.969,914.501 L652.538,913.317 L650.763,910.864 L644.142,904.606 L641.693,900.74 L641.987,894.964 L640.496,893.569 L638.204,888.861 L635.432,883.382 L635.328,882.442 L632.163,877.497 L631.224,874.032 L632.383,871.457 L631.376,866.161 L631.514,864.9 L632.185,863.661 L633.229,862.768 L635.587,860.75 L637.432,858.582 L637.659,857.926 L637.19,857.089 L636.023,856.402 L634.573,854.812 L633.606,854.59 L632.335,854.797 L631.715,853.943 L631.601,851.825 L632.229,850.465 L633.309,848.595 L633.453,847.08 L632.175,844.39 L631.347,842.646 L629.028,839.533 L627.944,837.438 L628.42,835.671 L629.508,834.379 L630.237,832.916 L633.479,830.209 L639.086,828.989 L641.32,828.968 L643.113,828.746 L645.255,827.958 L646.108,827.225 L646.709,827.206 L647.766,827.602 L648.656,828.222 L649.371,828.452 L650.231,828.184 L651.618,826.626 L652.581,825.945 L654.816,825.821 L655.469,825.291 L656.661,822.943 L664.508,816.256 L665.655,816.732 L667.43,819.999 L668.971,820.746 L671.475,819.33 L674.759,816.331 L682.519,813.021 L685.465,813.087 L687.188,812.553 L689.158,813.169 L690.795,812.737 L691.983,812.777 L693.857,813.69 L694.04,814.147 L695.067,814.253 L699.396,813.133 L701.23,813.531 L703.326,815.443 L703.568,815.918 L703.537,816.847 L702.683,817.383 L701.506,818.451 L700.902,819.588 L701.123,820.815 L702.237,821.817 L703.98,822.029 L708.443,820.886 L712.944,817.513 L714.441,817.217 L716.565,817.828 L717.876,820.43 L719.343,822.246 L720.353,822.404 L725.274,818.464 L728.814,815.22 L730.63,814.529 L733.829,814.971 L738.848,816.608 L740.284,816.017 L740.672,816 L741.632,815.959 L743.41,818.202 L745.535,821.594 L749.678,825.023 L751.983,827.981 L752.765,829.321 L754.504,829.792 L760.992,838.253 L761.814,840.792 L760.829,842.964 L759.363,844.27 L758.797,845.777 L758.767,846.326 L759.015,846.868 L759.517,847.378 L760.535,847.626 L763.126,847.489 L764.259,847.926 L765.003,848.539 L765.766,850.005 L768.935,851.529 L769.539,851.729 L770.803,851.468 L771.709,851.838 L772.293,853.522 L772.197,855.04 L773.45,857.964 L774.519,859.21 L777.119,861.143 L781.234,863.211 L782.871,863.311 L788.694,862.825 L793.85,861.282 L798.673,859.418 L802.723,858.372 L806.784,859.857 L808.318,859.309 L808.866,857.226 L811.059,854.595 L812.045,851.527 L811.936,847.581 L816.101,839.031 L818.841,833.66 L817.281,831.487 L815.882,830.262 L815.882,828.508 L816.978,826.864 L819.28,825.11 L821.801,824.562 L823.232,823.226 L827.415,813.929 L831.909,803.238 L835.008,799.209 L839.121,797.472 L839.115,777.721 L838.883,773.104 L838.671,768.033 L838.673,761.241 L839.072,752.51 L838.878,746.503 L839.343,728.902 L839.455,707.171 L839.362,695.559 L838.838,685.819 L837.993,639.986 L837.865,632.738 L837.501,614.489 L837.304,583.426 L837.241,573.462 L837.24,573.411 L837.24,573.407 L837.221,570.375 L837.198,566.673 L837.197,566.651 L837.138,557.28 L837.138,557.275 L837.323,514.691 L837.144,498.839 L862.304,498.977 L862.304,498.996 L964.345,498.964 L964.354,498.964 L979.29,498.96 L983.463,498.959 L1002.23,498.953 L1010.85,498.95 L1013.26,498.95 L1027.58,498.945 L1050.43,498.938 L1053.9,498.937 L1058.22,498.936 L1067.69,498.933 L1125.51,498.915 L1144.38,498.91 L1146.18,498.909 L1159.21,498.905 L1163.09,498.898 L1163.16,498.898 L1167.77,498.889 L1170.6,498.884 L1179.2,498.868 L1199.9,498.829 L1231.07,498.77 L1265.17,498.707 L1278.18,498.726 L1280.27,498.729 L1283.45,498.717 L1284.39,498.714 L1285.74,498.737 L1285.8,498.738 L1286.33,498.736 L1286.37,498.736 L1288.94,498.727 L1288.95,498.727 L1296.47,498.702 L1302.46,498.682 L1334.81,498.574 L1334.84,498.574 L1336.72,498.568 L1340.07,498.605 L1486.31,498.518 L1554.74,498.477 L1558.63,498.474 L1575.37,498.464 L1580.74,498.461 L1592.83,498.454 L1620.77,498.437 L1621.1,498.437 L1622.75,498.436 L1622.83,498.436 L1622.93,498.43 L1623.16,498.432 L1624.16,498.442 L1627.21,498.473 L1635.28,498.555 L1635.54,498.558 L1637.12,498.574 L1637.82,498.581 L1649.5,498.7 L1649.54,498.7 L1650.47,498.709 L1651.33,498.718 L1654.87,498.754 L1655.4,498.76 L1660.73,498.814 L1667.69,498.586 L1668.14,498.587 L1668.16,498.587 L1672.69,498.601 L1673.58,498.604 L1673.6,498.604 L1674.72,498.608 L1700.8,498.688 L1700.81,498.688 L1701.36,498.69 L1701.77,498.691 L1703.68,498.697 L1723.65,498.098 L1725.56,498.092 L1725.57,498.092 L1817.47,497.797 L1831.95,497.721 L1854.6,497.602 L1854.62,497.716 L1862.38,497.704 L1891.73,497.402 L1894.64,497.66 L1895.64,497.995 L1900.79,499.732 L1901.57,499.73 L1901.65,499.73 L1958.49,499.634 L1958.51,499.634 L1988.26,499.584 L1988.28,499.584 L1995.96,499.571 L1996.91,499.569 L1997.12,499.569 L2000.56,499.563 L2034.01,499.507 L2040.22,499.544 L2040.27,499.737 L2040.28,499.742 L2060.04,499.636 L2060.13,499.636 L2077.41,499.543 L2126.7,499.591 L2129.83,499.595 L2129.83,499.595 L2151.68,499.616 L2190.4,499.32 L2197.46,499.316 L2197.46,499.316 L2223.9,499.304 L2224.3,499.304 L2225.25,499.308 L2231.89,499.298 L2236.31,499.292 L2242.54,499.282 L2257.31,499.26 L2257.87,499.269 L2259.31,499.261 L2264.2,499.23 L2268.08,499.26 L2283.72,499.258 L2324.12,499.327 L2324.11,510.334 L2324.1,510.564 L2324.1,514.331 L2324.07,536.833 L2324.06,545.355 L2324.06,545.447 L2324.05,545.598 L2324.05,546.947 L2324.05,548.496 L2324.05,552.142 L2324.05,552.176 L2324.06,565.528 L2324.06,582.968 L2324.06,583 L2324.06,584.74 L2324.06,674.255 L2324.06,684.369 L2324.04,694.233 L2324.04,694.295 L2324.03,697.069 L2324,712.755 L2323.96,734.031 L2323.96,734.847 L2323.94,747.521 L2323.93,752.687 L2323.92,754.111 L2323.92,754.112 L2323.9,765.504 L2323.9,765.514 L2323.89,770.439 L2323.89,773.305 L2323.89,773.983 L2323.88,776.395 L2323.83,801.742 L2323.92,816.519 L2323.92,816.728 L2323.92,816.748 L2323.97,825.554 L2323.89,867.567 L2323.89,867.7 L2323.89,878.406 L2323.89,878.413 L2323.88,895.757 L2323.87,895.771 L2323.87,896.815 L2323.87,901.839 L2323.87,907.827 L2323.87,909.392 L2323.87,910.166 L2323.88,912.663 L2323.86,930.719 L2323.86,931.381 L2323.86,934.029 L2323.86,939.649 L2323.85,950.137 L2323.84,957.805 L2323.83,969.314 L2323.83,975.105 L2323.83,975.113 L2323.82,980.271 L2323.81,991.137 L2323.81,992.335 L2323.81,992.923 L2323.81,993.293 L2323.81,1000.65 L2323.8,1009.04 L2323.8,1009.86 L2323.79,1011.42 L2323.78,1016.45 L2323.77,1021.76 L2323.76,1026.89 L2323.75,1029.71 L2323.74,1032.24 L2323.74,1032.34 L2323.74,1034.63 L2323.74,1034.67 L2323.74,1038.31 L2323.72,1048.52 L2323.72,1053.72 L2323.71,1059.06 L2323.7,1064.08 L2323.69,1069.54 L2323.69,1074.39 L2323.68,1077.6 L2323.68,1079.43 L2323.67,1085.58 L2323.66,1095.51 L2323.66,1095.51 L2323.65,1101.31 L2323.65,1101.42 L2323.65,1101.54 L2323.65,1101.69 L2323.65,1102.03 L2323.67,1104.31 L2323.7,1111.24 L2323.71,1113.38 L2323.72,1114.65 L2323.74,1118.25 L2323.76,1121.94 L2323.78,1127.26 L2323.81,1132.7 L2323.84,1137.74 L2323.86,1142.66 L2323.86,1143.09 L2323.87,1148.26 L2323.87,1153.72 L2323.87,1155.63 L2323.87,1158.53 L2323.88,1164.45 L2323.88,1169.76 L2323.88,1172.89 L2323.93,1248.04 L2323.93,1248.08 L2323.9,1268.21 L2323.89,1280.37 L2323.88,1284.96 L2323.87,1295.58 L2324,1300.77 L2323.86,1305.92 L2324.08,1311.2 L2323.86,1316.4 L2323.85,1343.34 L2323.84,1385.66 L2323.83,1406.12 L2323.83,1406.18 L2323.81,1422.08 L2323.77,1454.85 L2323.67,1534.08 L2323.66,1535.66 L2323.63,1562.66 L2323.62,1565.81 L2323.59,1593.94 L2323.65,1609.45 L2323.71,1626.89 L2323.76,1638.7 L2323.61,1673.32 L2323.55,1686.98 L2323.69,1728.02 L2323.5,1804.72 L2323.72,1817.08 L2323.63,1817.94 L2323.58,1819.14 L2323.62,1820.46 L2323.64,1820.56 L2323.45,1861.51 L2323.47,1864.96 L2323.52,1876.11 L2323.52,1876.14 L2323.55,1901.3 L2323.55,1901.45 L2323.58,1912.15 L2323.59,1917.29 L2323.62,1917.64 L2323.45,1925.62 L2323.45,1925.97 L2323.48,1958.56 L2323.54,2010.84 L2323.55,2028.83 L2323.55,2028.91 L2323.4,2058.62 L2323.4,2059.84 L2323.4,2061.13 L2323.4,2062.88 L2323.4,2074.99 L2323.41,2152.75 L2323.21,2271.23 L2323.2,2272.99 L2323.2,2273.58 L2323.08,2292.59 L2323.11,2297.68 L2323.11,2297.69 L2323.12,2330.26 L2323.12,2347.7 L2323.12,2347.73 L2323.06,2350.99 L2322.96,2357.17 L2322.97,2357.88 L2323.06,2368.35 L2323.07,2368.68 L2322.94,2373.66 L2322.96,2429.52 L2322.83,2458.84 L2322.75,2477.31 L2322.74,2477.31 L2322.65,2484.11 L2322.69,2535.45 L2254.82,2534.94 L2248.31,2534.94 L2247.31,2534.94 L2190.65,2534.93 L2180.49,2534.93 L2179.81,2534.93 L2178.04,2534.93 L2176.79,2534.93 L2173.74,2534.93 L2171,2534.93 L2170.79,2534.93 L2145.29,2534.92 L2102.05,2534.91 L2091.07,2534.91 L2065.13,2535.07 L2064.72,2535.07 L2053.08,2535.15 L2040.29,2535.23 L2039.56,2535.22 L1998.73,2534.94 L1979.55,2535.02 L1959.02,2535.11 L1903.77,2535.34 L1855.63,2535.2 L1814.4,2535.09 L1804.16,2535.06 L1787.88,2535.19 L1775.88,2535.29 L1769.2,2535.35 L1764.77,2535.39 L1763.71,2535.39 L1760.79,2535.42 L1759.71,2535.43 L1753.72,2535.48 L1750.29,2535.51 L1743.21,2535.56 L1721.17,2535.54 L1706.08,2529.72 L1634.5,2502.87 L1609.4,2493.45 L1576.98,2481.28 L1558.29,2474.35 L1514.6,2458.14 L1452.44,2435.07 L1373.22,2405.92 L1337.88,2393.02 L1334.7,2392.02 L1331.02,2390.6 L1327.67,2389.31 L1265.77,2366.93 L1188.74,2339.06 L1111.83,2312 L1084.69,2301.73 L1050.1,2288.88 L1002.73,2271.29 L926.22,2243.21 L917.033,2239.69 L863.626,2220.19 L777.677,2188.8 L703.406,2162.02 L684.691,2155.34 L667.525,2149.21 L664.704,2148.21 L659.214,2146.25 L638.832,2138.97 L633.647,2137.12 L628.728,2135.37 L627.232,2134.83 L626.08,2134.42 L626.052,2134.41 L623.56,2133.52 L619.674,2132.13 L610.471,2128.85 L610.359,2127.81 L610.857,2126.81 L610.43,2125.33 L610.106,2124.86 L609.611,2124.38 L609.675,2124"/>
  </g>
  <g stroke-width="1" transform="matrix(0.999744,0,0,0.999744,0,0)" stroke-opacity="1" font-size="34.5833" fill="none" stroke-linejoin="bevel" font-style="normal" stroke-linecap="square" stroke="#000000" font-family="MS Shell Dlg 2" font-weight="400"/>
  <g stroke-width="1" transform="matrix(11.808,0,0,11.808,0,0)" stroke-opacity="1" font-size="34.5833" fill="none" stroke-linejoin="bevel" font-style="normal" stroke-linecap="square" stroke="#000000" font-family="MS Shell Dlg 2" font-weight="400"/>
  <g stroke-width="1" transform="matrix(11.808,0,0,11.808,0,0)" stroke-opacity="1" font-size="34.5833" fill="none" stroke-linejoin="bevel" font-style="normal" stroke-linecap="square" stroke="#000000" font-family="MS Shell Dlg 2" font-weight="400"/>
  <g stroke-width="1" transform="matrix(11.808,0,0,11.808,0,0)" stroke-opacity="1" font-size="34.5833" fill="none" stroke-linejoin="bevel" font-style="normal" stroke-linecap="square" stroke="#000000" font-family="MS Shell Dlg 2" font-weight="400"/>
  <g stroke-width="1" transform="matrix(1,0,0,1,0,0)" stroke-opacity="1" font-size="34.5833" fill="none" stroke-linejoin="bevel" font-style="normal" stroke-linecap="square" stroke="#000000" font-family="MS Shell Dlg 2" font-weight="400"/>
  <g stroke-width="1" transform="matrix(11.808,0,0,11.808,0,0)" stroke-opacity="1" font-size="34.5833" fill="none" stroke-linejoin="bevel" font-style="normal" stroke-linecap="square" stroke="#000000" font-family="MS Shell Dlg 2" font-weight="400"/>
  <g stroke-width="1" transform="matrix(11.808,0,0,11.808,0,0)" stroke-opacity="1" font-size="34.5833" fill="none" stroke-linejoin="bevel" font-style="normal" stroke-linecap="square" stroke="#000000" font-family="MS Shell Dlg 2" font-weight="400"/>
  <g stroke-width="1" transform="matrix(11.808,0,0,11.808,0,0)" stroke-opacity="1" font-size="34.5833" fill="none" stroke-linejoin="bevel" font-style="normal" stroke-linecap="square" stroke="#000000" font-family="MS Shell Dlg 2" font-weight="400"/>
  <g stroke-width="1" transform="matrix(11.808,0,0,11.808,0,0)" stroke-opacity="1" font-size="34.5833" fill="none" stroke-linejoin="bevel" font-style="normal" stroke-linecap="square" stroke="#000000" font-family="MS Shell Dlg 2" font-weight="400"/>
  <g stroke-width="1" transform="matrix(1,0,0,1,0,0)" stroke-opacity="1" font-size="34.5833" fill="none" stroke-linejoin="bevel" font-style="normal" stroke-linecap="square" stroke="#000000" font-family="MS Shell Dlg 2" font-weight="400"/>
 </g>
</svg>
