<?xml version='1.0' encoding='UTF-8' standalone='no'?>
<svg xmlns:xlink="http://www.w3.org/1999/xlink" baseProfile="tiny" xmlns="http://www.w3.org/2000/svg" height="249.936mm" viewBox="0 0 2952 2952" width="249.936mm" version="1.2">
 <title>Qt SVG Document</title>
 <desc>Generated with Qt</desc>
 <defs/>
 <g stroke-width="1" fill-rule="evenodd" fill="none" stroke-linejoin="bevel" stroke-linecap="square" stroke="black">
  <g stroke-width="1" transform="matrix(1,0,0,1,0,0)" stroke-opacity="1" font-size="34.5833" fill="none" stroke-linejoin="bevel" font-style="normal" stroke-linecap="square" stroke="#000000" font-family="MS Shell Dlg 2" font-weight="400"/>
  <g stroke-width="1" transform="matrix(1,0,0,1,0,0)" stroke-opacity="1" font-size="34.5833" fill="none" stroke-linejoin="bevel" font-style="normal" stroke-linecap="square" stroke="#000000" font-family="MS Shell Dlg 2" font-weight="400"/>
  <g stroke-width="1" transform="matrix(11.808,0,0,11.808,0,0)" stroke-opacity="1" font-size="34.5833" fill="none" stroke-linejoin="bevel" font-style="normal" stroke-linecap="square" stroke="#000000" font-family="MS Shell Dlg 2" font-weight="400"/>
  <g stroke-width="1" transform="matrix(0.999744,0,0,0.999744,0,0)" stroke-opacity="1" font-size="34.5833" fill="none" stroke-linejoin="bevel" font-style="normal" stroke-linecap="square" stroke="#000000" font-family="MS Shell Dlg 2" font-weight="400"/>
  <g transform="matrix(0.999744,0,0,0.999744,0,0)" font-size="34.5833" fill-opacity="0" fill="#ffffff" font-style="normal" stroke="none" font-family="MS Shell Dlg 2" font-weight="400">
   <path fill-rule="evenodd" vector-effect="none" d="M-2,-2 L2955,-2 L2955,2955 L-2,2955 L-2,-2"/>
  </g>
  <g stroke-width="1" transform="matrix(0.999744,0,0,0.999744,0,0)" stroke-opacity="1" font-size="34.5833" fill="none" stroke-linejoin="bevel" font-style="normal" stroke-linecap="square" stroke="#000000" font-family="MS Shell Dlg 2" font-weight="400"/>
  <g stroke-width="1" transform="matrix(11.808,0,0,11.808,0,0)" stroke-opacity="1" font-size="34.5833" fill="none" stroke-linejoin="bevel" font-style="normal" stroke-linecap="square" stroke="#000000" font-family="MS Shell Dlg 2" font-weight="400"/>
  <g stroke-width="1" transform="matrix(11.808,0,0,11.808,0,0)" stroke-opacity="1" font-size="34.5833" fill="none" stroke-linejoin="bevel" font-style="normal" stroke-linecap="square" stroke="#000000" font-family="MS Shell Dlg 2" font-weight="400"/>
  <g stroke-width="1" transform="matrix(11.808,0,0,11.808,0,0)" stroke-opacity="1" font-size="34.5833" fill="none" stroke-linejoin="bevel" font-style="normal" stroke-linecap="square" stroke="#000000" font-family="MS Shell Dlg 2" font-weight="400"/>
  <g stroke-width="1" transform="matrix(11.808,0,0,11.808,0,0)" stroke-opacity="1" font-size="34.5833" fill="none" stroke-linejoin="bevel" font-style="normal" stroke-linecap="square" stroke="#000000" font-family="MS Shell Dlg 2" font-weight="400"/>
  <g stroke-width="1" transform="matrix(11.808,0,0,11.808,0,0)" stroke-opacity="1" font-size="34.5833" fill="none" stroke-linejoin="bevel" font-style="normal" stroke-linecap="square" stroke="#000000" font-family="MS Shell Dlg 2" font-weight="400"/>
  <g transform="matrix(11.808,0,0,11.808,0,0)" font-size="34.5833" fill-opacity="0" fill="#ffffff" font-style="normal" stroke="none" font-family="MS Shell Dlg 2" font-weight="400">
   <path fill-rule="evenodd" vector-effect="none" d="M0,0 L250,0 L250,250 L0,250 L0,0"/>
  </g>
  <g stroke-width="1" transform="matrix(11.808,0,0,11.808,0,0)" stroke-opacity="1" font-size="34.5833" fill="none" stroke-linejoin="bevel" font-style="normal" stroke-linecap="square" stroke="#000000" font-family="MS Shell Dlg 2" font-weight="400"/>
  <g stroke-width="1" transform="matrix(11.808,0,0,11.808,0,0)" stroke-opacity="1" font-size="34.5833" fill="none" stroke-linejoin="bevel" font-style="normal" stroke-linecap="square" stroke="#000000" font-family="MS Shell Dlg 2" font-weight="400"/>
  <g transform="matrix(0.999744,0,0,0.999744,0,0)" font-size="34.5833" fill-opacity="0" fill="#000000" font-style="normal" stroke="none" font-family="MS Shell Dlg 2" font-weight="400">
   <rect x="0" height="2953" width="2953" y="0"/>
  </g>
  <g stroke-width="1" transform="matrix(0.999744,0,0,0.999744,0,0)" stroke-opacity="1" font-size="34.5833" fill="none" stroke-linejoin="bevel" font-style="normal" stroke-linecap="square" stroke="#000000" font-family="MS Shell Dlg 2" font-weight="400"/>
  <g stroke-width="3.07087" transform="matrix(0.999744,0,0,0.999744,0,0)" stroke-opacity="1" font-size="34.5833" fill-opacity="1" fill="#c5c5c5" stroke-linejoin="bevel" font-style="normal" stroke-linecap="square" stroke="#5c5c5c" font-family="MS Shell Dlg 2" font-weight="400">
   <path fill-rule="evenodd" vector-effect="none" d="M218.671,418.7 L220.519,416.234 L221.579,415.308 L228.642,415.44 L250.325,415.709 L250.346,415.709 L263.311,415.764 L267.121,415.78 L268.509,415.824 L278.44,416.138 L278.509,416.139 L292.059,416.396 L299.08,416.557 L302.631,416.639 L307.091,416.741 L309.482,416.796 L309.957,416.818 L319.608,416.943 L323.658,416.995 L330.583,417.085 L335.827,417.152 L344.651,417.265 L350.415,417.34 L365.675,417.588 L365.686,417.588 L371.605,417.782 L379.776,417.893 L407.946,418.233 L418.369,418.358 L420.554,418.385 L421.735,418.399 L422.743,418.421 L423.232,418.432 L424.75,418.466 L424.976,418.47 L425.389,418.483 L425.456,418.484 L428.82,418.544 L442.874,418.791 L442.893,418.791 L446.39,418.867 L449.844,418.927 L458.776,419.084 L461.942,419.173 L462.516,419.184 L462.648,419.206 L463.785,419.227 L467.318,419.202 L473.89,419.28 L477.871,419.342 L488.652,419.56 L491.939,419.627 L494.848,419.685 L495.196,419.692 L506.291,419.917 L515.55,419.846 L519.727,419.928 L520.413,419.942 L534.529,420.219 L539.475,420.312 L541.185,420.379 L541.196,420.379 L568.054,420.765 L569.445,420.875 L572.678,420.963 L576.251,421.033 L576.835,421.045 L586.362,421.232 L596.835,421.419 L607.449,421.608 L608.089,421.608 L614.386,421.714 L617.863,421.773 L619.979,421.808 L624.567,421.88 L638.581,422.099 L652.571,422.206 L655.6,422.218 L669.711,422.274 L671.643,422.282 L671.763,422.282 L673.054,422.304 L673.227,422.304 L673.518,422.304 L674.687,422.316 L691.093,422.331 L697.739,422.274 L697.947,422.272 L701.62,422.218 L701.831,422.215 L708.043,422.19 L713,422.17 L727.83,422.082 L739.241,422.014 L739.272,422.014 L743.726,421.989 L747.218,421.97 L747.273,421.959 L751.61,421.958 L756.775,421.936 L762.628,422.024 L765.373,421.937 L781.632,421.787 L785.646,421.75 L823.207,421.403 L826.931,421.369 L827.469,421.364 L837.57,421.271 L838.265,421.315 L841.477,421.27 L841.565,421.27 L844.539,421.211 L858.519,420.938 L865.377,420.778 L869.853,420.668 L875.699,420.525 L879.622,420.429 L884.369,420.371 L893.199,420.159 L893.652,420.115 L894.215,420.048 L894.28,420.063 L894.502,420.115 L894.733,420.092 L902.725,419.927 L907.538,419.829 L907.546,419.829 L908.112,419.796 L908.476,419.763 L911.889,419.703 L924.909,419.474 L929.59,419.385 L935.533,419.281 L937.758,419.242 L938.95,419.149 L944.141,419.098 L949.477,419.046 L954.084,419.001 L955.597,418.986 L962.957,418.935 L963.831,418.966 L965.702,419.033 L967.366,419.023 L967.726,419.021 L971.001,419.019 L973.176,418.973 L981.482,418.893 L984.987,418.86 L989.856,418.738 L992.007,418.699 L992.791,418.684 L992.892,418.683 L995.442,418.628 L996.413,418.639 L997.539,418.629 L1006.04,418.411 L1009.7,418.318 L1019.19,418.075 L1030.65,417.774 L1030.79,417.794 L1031,417.761 L1032.64,417.683 L1033.32,417.739 L1034.07,417.717 L1035.14,417.684 L1037.24,417.629 L1042.94,417.647 L1044.64,417.653 L1044.85,417.619 L1045.05,417.616 L1046.13,417.598 L1046.43,417.601 L1047.44,417.61 L1049.99,417.634 L1059.03,417.719 L1067.18,417.796 L1067.77,417.751 L1076.42,417.871 L1076.47,417.871 L1101.21,417.669 L1111.86,417.582 L1118.36,417.533 L1122.1,417.506 L1132.65,417.475 L1143.06,417.445 L1160.8,417.06 L1163.85,416.994 L1188.97,416.448 L1202.69,415.906 L1203.14,415.886 L1205.9,415.766 L1207.47,415.698 L1243.8,414.565 L1245.41,414.514 L1247.74,414.442 L1254.47,414.232 L1254.89,414.221 L1259.72,414.098 L1260.41,414.08 L1274.41,414.024 L1279.47,413.937 L1283.37,413.791 L1287.74,413.85 L1289.31,413.871 L1289.88,413.846 L1291.39,413.781 L1291.51,413.78 L1299.6,413.721 L1302.2,413.706 L1302.18,413.668 L1328.17,413.516 L1329.54,413.48 L1329.83,413.473 L1331.52,413.429 L1333.75,413.371 L1343.91,413.198 L1353.02,413.043 L1354.18,413.079 L1371.64,412.587 L1372.13,412.574 L1379.31,412.361 L1393.32,411.945 L1401.03,411.651 L1414.12,411.151 L1414.67,411.13 L1428.52,410.602 L1429.33,410.616 L1429.59,410.593 L1432.77,410.507 L1436.98,410.393 L1439.87,410.425 L1449.42,410.218 L1456.31,410.068 L1467.11,409.834 L1477.74,409.464 L1477.75,409.463 L1484.86,409.25 L1484.95,409.206 L1496.88,408.884 L1498.78,408.842 L1516.27,408.449 L1519.79,408.37 L1525.01,408.26 L1526.73,408.224 L1532.6,408.152 L1534.62,408.109 L1540.65,407.886 L1571.32,407.256 L1572.62,407.134 L1576.18,407.055 L1576.49,407.088 L1581.21,406.799 L1581.8,406.86 L1583.26,406.806 L1587.01,406.669 L1587.2,406.662 L1595.87,406.344 L1607.26,405.995 L1617.45,405.666 L1625.67,405.499 L1626.02,405.492 L1627.71,405.312 L1629.11,405.163 L1639.55,404.792 L1653.91,404.283 L1655.19,404.238 L1668.12,403.414 L1668.4,403.396 L1668.43,403.394 L1671.22,403.205 L1671.45,403.195 L1675.21,403.042 L1680.3,402.836 L1682.05,402.764 L1685.53,402.576 L1706.43,401.533 L1709.76,407.403 L1710.97,408.855 L1712.71,410.543 L1718.48,413.884 L1721.25,416.18 L1722.15,417.407 L1722.51,418.367 L1722.39,419.388 L1720.24,425.159 L1720.23,426.44 L1720.52,427.568 L1720.99,428.304 L1721.29,428.78 L1723.86,430.888 L1727.81,431.904 L1733.93,432.75 L1739.91,434.516 L1744.67,435.504 L1745.46,435.893 L1745.87,436.089 L1746.41,436.67 L1746.54,436.803 L1746.93,437.642 L1747.29,440.088 L1747.01,443.836 L1745.76,448.31 L1745.7,449.606 L1746.07,451.682 L1746.75,453.103 L1747.69,454.235 L1749.21,455.404 L1750.85,456.535 L1753.09,457.62 L1755.89,458.975 L1757.3,460.283 L1758.75,462.73 L1760.06,466.655 L1760.38,468.79 L1760.72,469.673 L1761.15,470.573 L1762.76,472.6 L1763.21,473.16 L1765.79,474.792 L1767.22,475.421 L1768.43,475.736 L1771.32,476.494 L1774.6,476.794 L1778.07,476.537 L1780.19,476.381 L1781.09,476.564 L1781.48,476.941 L1781.93,477.673 L1781.98,478.009 L1782.22,479.644 L1782.2,479.945 L1782.15,480.704 L1781.86,481.489 L1781.1,482.36 L1778.97,484.247 L1778.37,485.178 L1778.34,486.379 L1778.64,487.121 L1779.99,488.335 L1781.51,488.717 L1783.37,488.625 L1783.67,489.036 L1783.71,489.773 L1782.84,492.097 L1780.94,495.294 L1780.75,496.832 L1780.99,498.419 L1781.65,499.694 L1782.49,500.233 L1783.94,500.7 L1785.56,500.77 L1787.37,501.621 L1787.97,502.226 L1788.23,502.8 L1788.77,503.198 L1791.41,503.964 L1793.04,503.719 L1793.4,503.492 L1794.45,502.809 L1794.94,502.809 L1795.18,503.027 L1795.14,503.703 L1794.9,504.89 L1794.08,507.201 L1794.03,508.042 L1796.41,512.67 L1797.21,513.56 L1797.97,513.693 L1801.02,513.161 L1803.54,512.015 L1803.7,514.095 L1803.25,515.343 L1803.58,516.377 L1803.99,516.65 L1808.2,516.726 L1809.67,515.078 L1812.32,511.533 L1813.9,512.034 L1818.05,513.351 L1819.28,514.1 L1820.35,515.392 L1819.38,516.499 L1817.7,518.422 L1816.66,519.196 L1815.31,519.879 L1813.02,521.039 L1811,522.68 L1810.46,523.33 L1809.9,524.63 L1808.28,527.266 L1806.65,529.695 L1804.63,532.699 L1802.99,536.537 L1802.88,537.104 L1801.87,542.352 L1801.07,544.798 L1795.83,556.333 L1795.03,558.37 L1794.43,559.891 L1794.09,561.121 L1793.84,562.016 L1793.38,563.667 L1793.26,565.092 L1793.32,567.666 L1794.19,570.129 L1794.4,571.321 L1794.19,572.691 L1792.11,577.035 L1791.71,577.866 L1791.4,578.512 L1790.39,579.331 L1789.52,580.415 L1788.56,582.648 L1788.32,583.87 L1788.51,584.833 L1789.13,586.082 L1789.13,589.654 L1788.15,593.869 L1788.03,596.861 L1788.26,599.067 L1788.85,601.395 L1789.06,602.196 L1788.69,603.475 L1787.19,605.53 L1786.63,606.755 L1785.93,610.478 L1785.9,611.694 L1786.31,615.592 L1787.68,621.742 L1787.64,622.386 L1786.44,625.782 L1786.38,626.83 L1786.55,629.706 L1786.91,636.019 L1786.95,636.341 L1787.31,638.963 L1787.58,640.492 L1788.04,643.036 L1788.5,645.576 L1789.51,649.959 L1790.4,653.833 L1791.57,659.939 L1791.71,660.518 L1792.41,663.451 L1794,668.323 L1794.53,669.948 L1792.59,680.03 L1793.22,681.467 L1795.07,685.736 L1795.1,685.795 L1795.36,686.396 L1796.57,688.255 L1799.06,693.221 L1802.02,699.783 L1802.74,702.038 L1802.96,703.66 L1803.47,705.224 L1804.07,706.256 L1805.59,707.194 L1805.84,707.615 L1807.39,711.315 L1809.17,714.209 L1810.12,716.981 L1812.2,720.917 L1813.85,723.26 L1814.44,723.806 L1816.8,725.983 L1818.01,727.411 L1818.62,728.381 L1819.46,729.71 L1820.11,731.504 L1820.37,732.231 L1820.57,734.913 L1820.18,737.596 L1819.81,738.396 L1817.28,741.312 L1816.84,741.818 L1811.49,748.601 L1810.23,753.658 L1809.89,756.095 L1810.43,759.717 L1812.61,766.565 L1813.74,770.104 L1813.78,770.23 L1813.92,770.682 L1814.23,771.641 L1815.38,774.016 L1816.63,775.335 L1822.15,779.079 L1825.2,780.762 L1828.28,783.324 L1832.73,785.991 L1835.6,788.041 L1836.63,789.196 L1838.91,792.692 L1839.28,793.246 L1840.94,796.884 L1841.63,799.4 L1841.56,800.582 L1841.1,801.695 L1840.42,803.306 L1840.11,805.45 L1840.09,806.544 L1840.03,810.213 L1840.32,813.196 L1839.98,814.521 L1839.48,815.513 L1838.54,819.742 L1838.52,825.73 L1839.33,827.344 L1839.35,827.402 L1844.4,833.418 L1844.87,833.978 L1846.3,835.436 L1847.61,836.788 L1852.65,841.077 L1852.97,841.315 L1857.72,844.826 L1861.82,848.511 L1862.31,848.953 L1863.36,851.021 L1866.56,853.346 L1870.41,855.56 L1873.05,857.65 L1876.5,861.839 L1876.75,862.248 L1878.82,865.646 L1880.29,866.98 L1883.12,869.537 L1884.17,871.242 L1885.04,873.271 L1885.9,874.702 L1890.28,879.102 L1892.48,880.654 L1894.94,881.838 L1906.24,886.615 L1907.71,887.781 L1909.15,889.921 L1910.39,892.252 L1910.54,892.89 L1911.49,897.7 L1912.16,903.591 L1912.68,905.799 L1913.34,906.939 L1914.44,908.835 L1916.29,911.467 L1918.12,913.757 L1919.74,914.721 L1920.09,914.926 L1928.05,916.629 L1932.01,917.099 L1932.59,917.168 L1937.73,918.314 L1938.51,919.587 L1940.47,922.807 L1942.89,928.594 L1945.29,933.082 L1945.79,933.791 L1946.93,935.41 L1950.98,939.32 L1951.43,945.661 L1951.67,949.101 L1952.77,951.608 L1955.12,954.819 L1956.12,956.02 L1957.21,957.325 L1957.22,957.34 L1960.56,961.339 L1961.57,962.211 L1963.6,963.961 L1964.5,964.738 L1965.68,965.749 L1965.95,965.979 L1970.24,968.853 L1973.27,971.262 L1976.92,973.473 L1980.88,974.662 L1982.87,975.697 L1984.76,977.671 L1986.6,978.716 L1990.28,980.122 L1993.14,980.725 L1993.65,980.833 L1996.42,982.508 L1997.06,983.098 L1997.65,984.022 L1997.89,984.649 L1998.28,985.675 L1998.91,988.152 L2000.84,990.333 L2002.37,991.48 L2003.7,992.169 L2004.6,992.489 L2006.03,992.993 L2006.74,993.151 L2008.48,993.537 L2009.63,994.208 L2010.35,995.097 L2010.44,996.129 L2011.38,997.562 L2013.71,999.947 L2014.79,1000.59 L2023.04,1005.51 L2026.46,1007.55 L2030.73,1010.45 L2033.45,1012.75 L2040.37,1020.73 L2042,1022.23 L2048.44,1025.75 L2050.61,1027.46 L2051.22,1028.59 L2051.26,1028.67 L2051.63,1030.59 L2054.17,1033.32 L2057.15,1035.39 L2057.81,1036.47 L2060.1,1041.47 L2066.01,1048.4 L2067.01,1049.02 L2070.61,1050.08 L2072.49,1051.41 L2073.97,1052.93 L2075.06,1055.18 L2076.35,1060.87 L2077.05,1063.94 L2077.19,1065.15 L2077.04,1067.03 L2076.96,1068.03 L2078.28,1071.73 L2078.69,1072.87 L2078.88,1074.53 L2078.85,1076.29 L2078.58,1078.15 L2078.59,1080.7 L2079.13,1083.53 L2079.7,1086.45 L2081.13,1090.69 L2081.33,1092.33 L2081.62,1100.78 L2082.08,1102.79 L2083.09,1106.45 L2083.91,1108.54 L2084.82,1110.11 L2086.85,1112.84 L2089.53,1117.46 L2090.12,1118.48 L2090.42,1119.55 L2090.68,1120.48 L2091.95,1126.63 L2091.61,1131.62 L2091.34,1132.43 L2084.83,1140.28 L2084.55,1140.93 L2084.55,1140.98 L2084.52,1141.16 L2084.2,1143.23 L2080.38,1147.26 L2079.99,1147.97 L2079.98,1148.72 L2080.73,1152.12 L2082.09,1154.27 L2084.77,1160.51 L2087.78,1166.39 L2088.67,1168.52 L2088.72,1168.82 L2089.1,1170.8 L2089.51,1171.73 L2090.51,1173.45 L2090.99,1174.26 L2091.58,1174.86 L2092.01,1175.84 L2093.01,1178.14 L2093.67,1181.81 L2093.66,1189.78 L2093.66,1190.46 L2093.84,1192.19 L2094.49,1194.2 L2095.35,1196.85 L2096.31,1198.8 L2097.65,1205.41 L2097.66,1205.42 L2098.46,1208.32 L2099.19,1209.76 L2100.71,1212 L2102.22,1213.95 L2104.12,1215.86 L2107.09,1217.67 L2108.57,1219.72 L2111.3,1225.54 L2112.53,1226.94 L2123.48,1233.37 L2126.85,1235.55 L2127.88,1236.21 L2130.34,1236.54 L2134.08,1236.3 L2134.79,1236.14 L2138.07,1235.38 L2141.68,1233.86 L2142.36,1233.37 L2147.11,1227.69 L2152.32,1222.14 L2155.82,1220.27 L2158.52,1216.66 L2163.35,1209.3 L2164.91,1205.17 L2164.65,1202.46 L2164.69,1201.66 L2165.03,1200.56 L2168.81,1193.76 L2170.41,1192.35 L2172.39,1191.16 L2176.65,1189.54 L2176.66,1189.53 L2180.6,1189.72 L2182.93,1190.59 L2186.25,1191.42 L2190.52,1191.63 L2193,1192 L2196.88,1193.19 L2200.58,1194.91 L2201.55,1195.36 L2208.26,1198.8 L2209.45,1199.42 L2215.05,1202.29 L2219.79,1205.75 L2223.24,1207.48 L2223.46,1207.56 L2225.67,1208.38 L2228.65,1210.18 L2229.88,1210.46 L2232.6,1210.52 L2234.06,1210.44 L2238.12,1210.21 L2240.42,1210.37 L2241.02,1210.49 L2243.21,1210.92 L2245.82,1211.96 L2247.95,1211.76 L2249.04,1211.89 L2250.43,1212.43 L2253.57,1214.57 L2257.76,1216.45 L2260.44,1218.09 L2263.94,1221.36 L2265.52,1223 L2269.79,1227.42 L2270.68,1227.84 L2272.48,1228.08 L2273.73,1228.65 L2281.27,1232.76 L2286.75,1237.1 L2290.12,1239.13 L2290.76,1239.51 L2293.97,1241.44 L2297.97,1243.83 L2300.8,1245.53 L2302.24,1248.25 L2302.35,1251.13 L2301.99,1252.97 L2300.29,1261.71 L2299.19,1266.1 L2297.2,1269.73 L2288.52,1276.81 L2281.27,1281.72 L2281.21,1281.82 L2279.47,1284.6 L2278.21,1287.28 L2278.07,1287.57 L2277.98,1288.15 L2277.63,1290.31 L2275.02,1293.89 L2274.94,1293.94 L2272.11,1295.73 L2267,1300.82 L2265.27,1303.7 L2264.8,1305.57 L2264.72,1305.92 L2264.53,1307.52 L2264.5,1310.44 L2265.53,1314.68 L2268.08,1319.04 L2268.1,1319.07 L2269.76,1320.85 L2270.39,1321.54 L2270.62,1321.78 L2270.68,1321.85 L2273.78,1327.62 L2273.91,1327.88 L2274.26,1328.99 L2275.31,1332.31 L2275.33,1332.4 L2275.78,1334.65 L2275.86,1335.04 L2275.89,1335.18 L2276.86,1341.36 L2277.11,1342.95 L2277.11,1343 L2277.09,1343.82 L2277,1347.19 L2277,1347.19 L2276.71,1349.36 L2275.38,1354.6 L2274.61,1357.64 L2274.43,1358.06 L2273.83,1359.38 L2271.93,1363.58 L2270.38,1365.69 L2268.31,1368.06 L2267.99,1368.42 L2267.22,1369.03 L2266.88,1369.3 L2265.2,1370.63 L2262.77,1373.08 L2262.3,1373.34 L2261.11,1373.99 L2260.78,1374.16 L2260.42,1374.47 L2260.01,1374.82 L2259.83,1375.11 L2254.91,1382.81 L2254.12,1384.06 L2250.92,1389.08 L2250.42,1390 L2247.66,1395.07 L2246.73,1396.79 L2245.44,1400.46 L2245.44,1400.48 L2245.39,1400.64 L2243.6,1407.23 L2243.17,1409.46 L2242.68,1411.97 L2241.41,1416.4 L2241.36,1416.58 L2240.99,1419.73 L2240.33,1421.54 L2239.78,1423.06 L2239.27,1425.94 L2238.54,1430.08 L2238.01,1433.12 L2237.57,1436.69 L2236.72,1438.2 L2236.24,1439.03 L2233.85,1444.53 L2233.19,1445.31 L2227.44,1452.11 L2223.95,1456.23 L2223.92,1456.27 L2221.64,1457.96 L2221.08,1458.58 L2220.63,1459.08 L2217.14,1462.95 L2216.27,1463.92 L2216.13,1464.12 L2215.16,1465.61 L2214.52,1466.57 L2213.83,1467.6 L2211.92,1474.01 L2211.41,1475.69 L2207.03,1485.12 L2206.08,1488.26 L2205.45,1493.05 L2205.46,1493.2 L2205.75,1501.95 L2204.97,1506.59 L2204.96,1508.9 L2204.95,1510.45 L2204.93,1512.5 L2205.06,1513.09 L2205.21,1513.85 L2205.69,1516.21 L2206.05,1519.25 L2206.64,1522.04 L2207.01,1523.8 L2207.2,1524.7 L2207.48,1527.4 L2207.61,1528.17 L2208.61,1533.81 L2210.22,1539.35 L2211.46,1542.64 L2211.61,1542.93 L2211.74,1543.2 L2212.3,1544.35 L2219.53,1555.55 L2220.52,1556.65 L2223.91,1559.45 L2225.94,1560.45 L2228.22,1560.86 L2231.95,1562.42 L2235.53,1564.66 L2238.35,1567.47 L2241.35,1570.67 L2248.4,1582.67 L2249.54,1584.61 L2249.61,1584.72 L2250.48,1585.9 L2253.05,1591.69 L2262.03,1600.25 L2266.29,1603.13 L2267.11,1603.68 L2279.13,1611.8 L2282.37,1609.6 L2283.05,1609.35 L2284.17,1609.42 L2289.31,1612.09 L2294.37,1615.21 L2295.34,1616.47 L2295.99,1618.69 L2296.13,1620.71 L2295.91,1623.79 L2296.06,1625.32 L2299.29,1629.52 L2300.56,1630.73 L2301.83,1631.93 L2307.73,1635.83 L2307.99,1636 L2310.02,1636.96 L2312.7,1637.12 L2315.9,1636.39 L2318.56,1636.45 L2320.65,1637.07 L2320.72,1637.12 L2321.42,1637.62 L2322.11,1638.75 L2322.79,1640.39 L2323.03,1641.57 L2323.59,1642.65 L2324.42,1643.53 L2325.6,1644.3 L2327.36,1645.1 L2330.56,1646.54 L2336.17,1653.95 L2339.41,1658.24 L2342.44,1660.86 L2343.55,1661.49 L2347.53,1661.97 L2348.17,1661.9 L2350.24,1661.69 L2359.07,1659.89 L2363.78,1658.27 L2363.87,1658.39 L2365.39,1660.66 L2365.69,1662.51 L2366.07,1663.19 L2366.84,1663.39 L2370.04,1662.98 L2370.05,1663.08 L2370.14,1664.94 L2369.93,1665.73 L2367.33,1668.83 L2365.32,1669.43 L2361.82,1672.17 L2357.33,1672.23 L2356.36,1674.95 L2354.12,1676.31 L2351.71,1678.52 L2351.97,1682.02 L2352.18,1682.74 L2352.91,1683.86 L2355.62,1689.6 L2359.55,1697.93 L2359.96,1698.8 L2360.66,1699.59 L2364.78,1702.28 L2365.22,1702.58 L2365.52,1702.77 L2370.74,1704.64 L2374.37,1705.12 L2378.6,1705.04 L2380.26,1704.21 L2386.08,1700.49 L2387.88,1698.76 L2389.43,1696.67 L2391.41,1694 L2392.9,1692.42 L2397.28,1689.12 L2399.58,1688.38 L2399.93,1688.46 L2400.37,1688.55 L2402.38,1689.91 L2402.72,1690.13 L2411.04,1696.7 L2414.62,1698.91 L2416.3,1699.59 L2416.78,1700.46 L2416.91,1703 L2416.12,1704.32 L2415.92,1705.6 L2417.5,1709.85 L2418.37,1710.99 L2421.07,1713.47 L2422.66,1711.9 L2423.48,1712.46 L2425.51,1713.29 L2428.85,1713.45 L2430.04,1713.97 L2431.74,1715.39 L2432.94,1715.97 L2434.46,1715.68 L2434.5,1715.68 L2438.17,1715.71 L2439.44,1717.31 L2440.8,1719.63 L2442.02,1721.23 L2446.41,1725.58 L2451.57,1729.56 L2451.79,1729.73 L2454.11,1730.89 L2457.78,1733.11 L2459.15,1733.93 L2461.08,1735.2 L2462.26,1736.17 L2464.01,1737.6 L2466.09,1741.84 L2467.07,1743.05 L2467.42,1743.94 L2467.47,1746.39 L2467.12,1748.86 L2466.82,1749.78 L2466.04,1752.22 L2465.17,1754.23 L2464.61,1756.42 L2465.33,1759.17 L2465.51,1759.86 L2466.32,1760.81 L2468.12,1761.9 L2471.41,1762.92 L2472.91,1762.64 L2477.35,1762.79 L2479.32,1761.7 L2480.79,1761.24 L2483.27,1760.96 L2483.6,1761.22 L2483.77,1761.68 L2483.67,1763.49 L2483.89,1764.39 L2484.79,1765.23 L2485.04,1765.47 L2486.4,1765.63 L2488.74,1767.11 L2489.27,1767.53 L2490.89,1768.79 L2492.83,1773.11 L2494.33,1775.94 L2495.48,1777.53 L2495.76,1777.92 L2499.37,1779.87 L2501.87,1780.74 L2512.19,1783.59 L2514.85,1783.93 L2516.95,1784.81 L2518.34,1785.72 L2520.27,1787.45 L2520.29,1787.47 L2521.17,1788.77 L2521.99,1790.81 L2521.98,1792.92 L2521.29,1794.97 L2520.47,1798.97 L2520.22,1804.49 L2520.56,1806.95 L2520.58,1809.39 L2520.11,1810.21 L2519.89,1811.4 L2520.65,1813.62 L2522.54,1815.8 L2524,1818.91 L2525.51,1820.56 L2525.72,1820.79 L2531.64,1827.22 L2534.36,1831.07 L2535.05,1832.61 L2535.26,1833.8 L2535.23,1835.08 L2534.67,1837.1 L2533.36,1838.45 L2531.54,1839.43 L2528.6,1839.78 L2522.9,1837.9 L2521.28,1837.59 L2520.33,1837.74 L2519.12,1838.55 L2518.76,1839.29 L2518.59,1840.31 L2518.5,1843.47 L2518.42,1846.23 L2518.35,1848.77 L2518.65,1851.99 L2520.14,1859.65 L2520.36,1860.45 L2521.85,1863.12 L2523.67,1865.66 L2525.34,1868.66 L2526.33,1870.94 L2527.26,1874.65 L2529.34,1879.72 L2532.99,1886.02 L2535.41,1890.21 L2537.01,1892.48 L2543.12,1898.73 L2544.45,1900.09 L2546.4,1902.7 L2547.2,1903.76 L2548.57,1906.05 L2550.64,1910.84 L2553.65,1919.82 L2554.15,1921.68 L2554.93,1924.61 L2555.35,1926.95 L2555.45,1928.99 L2555.09,1932.29 L2552.83,1943.57 L2552.37,1945.14 L2552.26,1945.52 L2551.12,1947.78 L2549.94,1948.99 L2545.7,1950.83 L2543.07,1951.38 L2535.77,1951.9 L2532.22,1953.06 L2531.59,1953.44 L2530.46,1954.12 L2530.41,1954.17 L2530.34,1954.25 L2529.65,1955.05 L2528.19,1958.08 L2526.75,1959.61 L2523.4,1962.31 L2522.84,1962.96 L2522.53,1963.59 L2522.06,1964.55 L2521.96,1964.94 L2521.25,1967.81 L2521.04,1969.87 L2520.79,1970.97 L2520.62,1971.7 L2519.9,1973.23 L2519.83,1973.6 L2519.65,1974.47 L2519.66,1976.26 L2520.15,1977.91 L2521.3,1980.11 L2523.92,1984.1 L2525.56,1986.32 L2527.74,1988.75 L2530.12,1992.06 L2530.56,1991.97 L2534.06,1991.26 L2537.25,1991.11 L2540.15,1991.96 L2540.87,1992.4 L2541.56,1993.28 L2541.6,1993.45 L2541.77,1994.02 L2541.92,1996.09 L2541.87,1996.42 L2541.75,1997.12 L2539.23,2003.49 L2538.93,2004.25 L2538.37,2005.68 L2538.32,2007.36 L2540.14,2014.22 L2540.44,2015.99 L2542.06,2020 L2542.56,2021.25 L2542.86,2021.82 L2543.21,2022.48 L2543.3,2022.65 L2549.09,2033.59 L2549.12,2033.64 L2550.25,2037.88 L2553.79,2044.28 L2557.61,2049.97 L2557.87,2050.36 L2558.88,2051.53 L2560.46,2053.01 L2565.61,2056.75 L2566.76,2057.75 L2567.59,2058.47 L2569.02,2060.41 L2571.03,2064.41 L2572.17,2068.4 L2572.13,2070.91 L2571.8,2072.21 L2570.96,2075.52 L2568.69,2081.28 L2568.65,2081.4 L2568.55,2082.6 L2568.83,2085.77 L2569.11,2086.61 L2569.95,2088.19 L2571.19,2089.76 L2577.03,2094.11 L2583.06,2096.25 L2588.52,2098.82 L2591.53,2100.59 L2593.67,2102.13 L2595.33,2103.84 L2602.88,2111.6 L2607.84,2113.22 L2609.47,2112.38 L2611.18,2111.05 L2612.4,2109.71 L2613.4,2107.98 L2615.58,2100.87 L2614.69,2097.28 L2612.38,2094.79 L2608.18,2091.36 L2603.22,2089.39 L2599.48,2087.28 L2598.23,2086.09 L2597.26,2084.77 L2596.52,2083.23 L2596,2081.33 L2596.93,2076.5 L2597.14,2075.91 L2602.18,2076.97 L2605.98,2077.25 L2606.06,2077.68 L2607.2,2077.95 L2613.05,2078.14 L2614.72,2078.48 L2616.41,2075.12 L2616.56,2074.82 L2619.98,2081.38 L2622.7,2088.26 L2624.24,2090.83 L2627.39,2093.69 L2630.64,2095.88 L2634.91,2098.77 L2636.48,2100.56 L2637.32,2102.61 L2638.06,2105.71 L2638.6,2107.98 L2638.59,2112.72 L2639.67,2117.22 L2642.1,2120.2 L2645.14,2121.41 L2647.8,2121.68 L2650.83,2120.55 L2655.2,2118.31 L2657.33,2117.62 L2658.54,2117.49 L2661.53,2116.2 L2662.93,2115.71 L2664.33,2115.61 L2666.82,2116.35 L2668.02,2117.06 L2670.06,2118.8 L2672.49,2121.96 L2673.7,2124.33 L2673.83,2125.22 L2673.92,2125.79 L2673.98,2127.42 L2673.27,2133.79 L2673.27,2133.8 L2672.77,2136.02 L2670.1,2144.8 L2667.09,2159.85 L2666.26,2161.95 L2665.38,2163.68 L2664.39,2165.59 L2663.73,2166.88 L2661.8,2173.61 L2659.59,2178.25 L2656.02,2178.34 L2653.87,2178.59 L2652.46,2180.11 L2651.68,2180.47 L2648.96,2180.46 L2647.66,2180.93 L2646.54,2181.71 L2645.16,2183.57 L2644.8,2184.11 L2644.53,2185.59 L2644.65,2192.4 L2644.41,2194.07 L2644.58,2195.44 L2645.07,2196.67 L2645.48,2197.4 L2645.94,2198.23 L2647.41,2200.87 L2648.37,2202.04 L2651.16,2204.18 L2652.99,2205 L2657.29,2205.36 L2661.34,2205.41 L2662.91,2205.67 L2664.9,2206.75 L2664.91,2206.78 L2666.03,2208.24 L2667.36,2211.21 L2667.64,2212.67 L2667.46,2214.91 L2666.49,2218.47 L2665.3,2220.74 L2663.94,2222.17 L2662.37,2222.19 L2660.49,2222.07 L2657.99,2220.5 L2654.51,2220.09 L2652.59,2220.23 L2648.95,2218.55 L2648.13,2218.62 L2646.03,2219.46 L2645.98,2219.48 L2644.29,2220.15 L2642.46,2221.3 L2639.87,2224.25 L2637.57,2227.83 L2636.84,2230.21 L2636.38,2234.09 L2636.5,2236.67 L2636.96,2238.55 L2638.22,2240.4 L2642.52,2245.35 L2646.02,2248.69 L2647.98,2251.02 L2648.53,2252.56 L2648.55,2255.92 L2648,2257.57 L2647.11,2258.52 L2648.27,2258.81 L2651.82,2261.35 L2649.79,2264.2 L2649.46,2264.6 L2646.08,2268.63 L2646.06,2268.66 L2642.9,2271.28 L2641.27,2272.92 L2639.51,2275.27 L2637.63,2278.5 L2637.08,2280.01 L2636.44,2283.44 L2635.81,2291.04 L2631.78,2300.87 L2630.35,2302.69 L2629.34,2303.55 L2626.72,2305.79 L2623.33,2306.96 L2615.31,2307.82 L2614.7,2307.73 L2611.73,2306.01 L2610.39,2304.87 L2607.73,2301.98 L2601.95,2294.64 L2599.43,2289.87 L2595.05,2282.55 L2593.3,2280.28 L2590.15,2277.01 L2589.83,2277.01 L2587.46,2276.99 L2583.89,2277.56 L2579.19,2278.73 L2575.87,2280.28 L2573.86,2282.22 L2572.23,2284.56 L2571.89,2285.41 L2571.28,2288.06 L2570.32,2295.83 L2569.54,2299.28 L2564.7,2310.25 L2564.44,2311.72 L2564.37,2313.76 L2563.68,2318.18 L2561.12,2324.66 L2556.84,2338.01 L2555.92,2340.35 L2554.76,2342.41 L2552.41,2345.85 L2549.67,2349.25 L2545.37,2353.83 L2543.67,2355.27 L2540.97,2356.71 L2539.6,2357.14 L2536.81,2357.23 L2535.04,2356.84 L2531.48,2355.11 L2529.84,2353.33 L2528.91,2351.22 L2528.59,2349.81 L2528.53,2348.55 L2528.8,2347.3 L2531.3,2339.86 L2531.77,2338.7 L2532.86,2336.58 L2534.8,2334.32 L2536.54,2331.27 L2537.94,2327.81 L2538.96,2323.85 L2539.12,2321 L2538.27,2316.11 L2536.22,2310.13 L2534.1,2306.33 L2533.47,2305.65 L2533.44,2305.61 L2531.99,2304.67 L2526.38,2302.62 L2521.09,2301.93 L2519.72,2301.57 L2519.53,2301.52 L2518.19,2300.85 L2516.92,2300.55 L2516.26,2300.4 L2510.79,2300.67 L2509.45,2300.93 L2507.05,2302.22 L2506.65,2302.56 L2505.04,2303.9 L2503.17,2306.08 L2501.83,2308.16 L2500.73,2310.95 L2500.62,2311.41 L2500.11,2313.49 L2500.21,2315.88 L2500.64,2317.24 L2502.21,2320.63 L2502.85,2322.33 L2504.21,2325.91 L2504.95,2327.44 L2506.43,2329.77 L2510.61,2335.29 L2511.98,2338.5 L2512.25,2338.96 L2513.71,2341.48 L2518.07,2346.11 L2518.82,2347.32 L2519.24,2348.8 L2519.17,2351.87 L2519.16,2352.65 L2518.68,2354.97 L2517.79,2357.42 L2517.15,2358.6 L2516.38,2359.72 L2511.38,2364.29 L2510.44,2365.56 L2509.84,2367.33 L2509.67,2369.25 L2509.76,2370.91 L2510.14,2372.46 L2510.84,2374.1 L2517.11,2383.08 L2521.28,2390.19 L2522.59,2393.18 L2522.9,2394.68 L2522.84,2395.34 L2522.3,2397.98 L2521.56,2401.61 L2519.42,2406.77 L2518.06,2408.51 L2516.47,2409.93 L2514.71,2411.04 L2512.4,2411.84 L2509.86,2412.16 L2504.18,2411.73 L2496.38,2409.62 L2489.43,2409.33 L2487.54,2409.68 L2485.69,2410.5 L2483.8,2412.49 L2482.34,2415.47 L2482.18,2418.46 L2482.21,2418.55 L2482.55,2419.5 L2485.28,2424.81 L2493.37,2430.41 L2495.39,2432 L2497.54,2434.29 L2506.44,2439.11 L2508.31,2438.66 L2509.28,2437.89 L2509.93,2437.88 L2511.89,2439.29 L2512.55,2440.24 L2512.71,2440.66 L2513.34,2442.4 L2513.72,2446.39 L2513.63,2450.6 L2511.98,2452.31 L2511.1,2452.74 L2509.95,2452.92 L2508.4,2452.6 L2506.71,2451.62 L2505.08,2451.3 L2503.53,2451.36 L2502.5,2451.74 L2499.22,2454.58 L2497.89,2455.3 L2494.29,2456.57 L2488.75,2457.2 L2487.23,2457.1 L2485.53,2456.67 L2480.64,2454.83 L2476.09,2452.65 L2474.11,2452.01 L2470.31,2451.46 L2460.92,2452.56 L2457.91,2452 L2456.04,2450.83 L2455.13,2450.63 L2454.59,2450.51 L2453.37,2451.5 L2452.91,2452.51 L2452.6,2453.02 L2451.55,2454.78 L2450.88,2456.38 L2450.8,2457.19 L2450.91,2457.9 L2451.2,2458.4 L2452.7,2460.2 L2452.96,2460.52 L2455.55,2463.19 L2458.32,2465.57 L2460.36,2467.32 L2462.94,2469.27 L2466.03,2471.6 L2468.23,2473.07 L2469.44,2473.88 L2473.15,2477.26 L2476.05,2479.61 L2478.79,2481.24 L2480.87,2482.26 L2482.92,2483.71 L2484.48,2485.22 L2487.05,2487.71 L2489.31,2490.73 L2491.69,2494.87 L2492.49,2497.3 L2492.71,2500.05 L2492.53,2503.9 L2492.18,2506.61 L2491.83,2507.75 L2490.01,2510.21 L2488.91,2511.26 L2484.89,2513.4 L2484.06,2513.84 L2481.81,2515.43 L2480.4,2516.43 L2479.21,2517.01 L2473.8,2518.48 L2468.4,2520.53 L2465.13,2522.04 L2462.97,2523.85 L2460.63,2527.12 L2460.19,2528.1 L2459.48,2532.72 L2458.57,2542.1 L2458.22,2544.75 L2457.53,2550.14 L2457.04,2552.33 L2455.62,2556.3 L2451.53,2561.97 L2450.75,2563.35 L2450.29,2565.18 L2440.67,2565.35 L2439.02,2565.39 L2438.99,2565.37 L2427.1,2565.38 L2427.02,2565.39 L2427,2565.39 L2420.8,2565.46 L2414.21,2565.53 L2400.67,2565.68 L2394.08,2565.75 L2390.67,2565.79 L2388.65,2565.82 L2388.62,2565.82 L2388.44,2565.82 L2388.25,2565.83 L2380.55,2565.89 L2378.84,2565.92 L2378.75,2565.92 L2364.5,2566.02 L2362.38,2566.04 L2357.43,2566.07 L2357.24,2566.07 L2356.8,2566.02 L2355.24,2566.17 L2352.58,2566.09 L2344.13,2566.15 L2344.09,2566.15 L2322.37,2566.33 L2304.29,2566.47 L2298.72,2566.64 L2298.55,2566.64 L2296.01,2566.72 L2295.65,2566.7 L2284.07,2566.82 L2274.04,2566.91 L2270.74,2566.94 L2251.36,2567.12 L2251.14,2567.12 L2236.25,2567.26 L2236.2,2567.26 L2234.93,2567.27 L2217.62,2567.43 L2216.45,2567.49 L2206.85,2567.53 L2203.48,2567.59 L2208.43,2559.43 L2211.02,2557.33 L2213.1,2554.1 L2213.25,2553.4 L2213.07,2552.7 L2213.38,2551.27 L2214.36,2549.68 L2214.07,2547.38 L2214.51,2546.55 L2216.19,2545.3 L2217.66,2544.2 L2218.47,2543.91 L2218.99,2538.55 L2219.08,2537.56 L2219.89,2534.92 L2224.5,2533.18 L2225.33,2531.28 L2225.37,2530.76 L2225.23,2529.55 L2224.75,2528.67 L2224.53,2525.98 L2225.08,2524.69 L2227.58,2522.63 L2229.83,2522.52 L2232.16,2520.93 L2232.87,2518.67 L2232.91,2517.93 L2232.71,2517.06 L2234.16,2514.23 L2234.66,2513.59 L2239.96,2512.2 L2242.29,2511.89 L2244.54,2510.77 L2246.61,2507.65 L2247.3,2507.57 L2248.46,2507.8 L2249.35,2507.66 L2250.96,2506.54 L2251.06,2506.41 L2252.01,2505.17 L2252.61,2503.51 L2253.87,2503.13 L2255.82,2502.15 L2256.17,2501.36 L2257.37,2498.57 L2257.35,2495.6 L2255.9,2493.19 L2257.76,2489.58 L2257.41,2488.59 L2258.12,2486.59 L2261.4,2481.52 L2263.12,2481.6 L2263.95,2482.22 L2264.77,2482.14 L2266.98,2480.72 L2267.28,2480.53 L2268.7,2478.14 L2268.28,2477.68 L2268.31,2476.37 L2268.95,2476.01 L2269.96,2476.4 L2270.66,2474.46 L2271.03,2474.26 L2271.48,2474.37 L2272.44,2473.95 L2272.57,2473.89 L2273.26,2472.13 L2274.14,2472.44 L2275.22,2472.25 L2276.38,2470.81 L2278.74,2469.88 L2280.78,2468.5 L2283.2,2467.39 L2283.84,2467.54 L2284.59,2468.27 L2285.05,2468.33 L2286.39,2467.47 L2286.78,2465.83 L2290.16,2462.03 L2291.69,2462.15 L2292.9,2462.54 L2293.8,2462.52 L2296,2461.18 L2296.62,2459.17 L2296.63,2458.37 L2295.67,2458 L2295.65,2457.97 L2294.62,2456.2 L2294.46,2455.38 L2294.77,2454.86 L2296.15,2454.78 L2296.7,2454.42 L2299,2450.18 L2299.55,2447.65 L2300.21,2444.66 L2300.94,2444.22 L2301.9,2444.03 L2303.78,2444.09 L2305.64,2443.11 L2308.92,2442.08 L2310.15,2441.99 L2310.68,2441.95 L2311.68,2441.59 L2314.55,2437.41 L2313.87,2434.3 L2313.87,2434.28 L2316.1,2431.99 L2316.7,2431.37 L2318.95,2427.57 L2317.76,2424.74 L2317.01,2422.96 L2314.34,2420.18 L2314.05,2420.14 L2313.4,2420.55 L2313.06,2420.46 L2312.34,2418.87 L2312.53,2417.25 L2313.47,2416.19 L2314.17,2414.9 L2314.69,2413.42 L2314.57,2412.9 L2313.71,2412.29 L2314.09,2410.09 L2314.87,2409.89 L2315.24,2409.38 L2315.02,2408.51 L2313.9,2406.83 L2313.89,2406.37 L2314.76,2406.06 L2316.5,2403.35 L2318.1,2401.88 L2318.59,2398.4 L2318.98,2395.63 L2318.75,2391.47 L2317.14,2388.47 L2315.67,2386.48 L2315.18,2386.35 L2314.27,2385.18 L2314.02,2384.66 L2313.94,2384.5 L2313.55,2383.69 L2312.9,2382.94 L2307.78,2381.48 L2304.36,2381.13 L2304.09,2381.17 L2302.21,2381.43 L2300.3,2380.53 L2299.87,2379.52 L2298.39,2378.63 L2297.81,2378.29 L2295.14,2377.96 L2294.28,2376.4 L2292.82,2377.02 L2291.53,2376.91 L2291.48,2376.64 L2292.38,2376.27 L2292.86,2375.56 L2292.92,2374.91 L2293.11,2372.85 L2292.9,2372.66 L2292.61,2372.82 L2291.81,2373.59 L2291.17,2373.48 L2289.61,2372.12 L2289.46,2371.49 L2289.59,2370.27 L2289.99,2369.04 L2291.34,2368.99 L2291.88,2368.7 L2293.14,2366.56 L2293.2,2365.96 L2292.45,2363.66 L2292.14,2360.02 L2291.97,2357.95 L2290.97,2356.82 L2290.47,2355.91 L2290.41,2355.51 L2290.57,2355.08 L2290.58,2355.04 L2290.42,2354.49 L2290.08,2354.29 L2289.82,2354.17 L2289.57,2354.37 L2289.29,2354.58 L2285.17,2354.23 L2285.21,2353.06 L2286.24,2350.86 L2288.66,2351.5 L2290.17,2351.03 L2290.15,2350.3 L2289.63,2348.52 L2289.3,2348.41 L2289.01,2348.3 L2287.92,2348.46 L2284.79,2347.2 L2284.06,2346.91 L2283.86,2346.67 L2283.84,2346.39 L2283.83,2346.09 L2284.67,2344.76 L2284.68,2344.73 L2283.88,2344.04 L2283.83,2343.23 L2284.96,2343.16 L2285.1,2341.96 L2284.16,2341.41 L2283.88,2341.01 L2283.98,2340.42 L2284.6,2340.2 L2285.46,2340.46 L2285.88,2339.69 L2285.69,2339.01 L2286.39,2338.49 L2271.14,2338.55 L2262.54,2338.56 L2262.41,2338.56 L2261.3,2338.54 L2261.29,2338.54 L2258.27,2338.58 L2252.03,2338.54 L2244.82,2338.51 L2225.59,2338.41 L2222.42,2338.4 L2217.46,2338.37 L2206.09,2338.36 L2203.95,2338.36 L2185.68,2338.33 L2183.74,2338.33 L2180.96,2338.33 L2170.54,2338.32 L2160.55,2338.3 L2160.39,2338.3 L2158.5,2338.29 L2153.34,2338.28 L2130.56,2338.27 L2130.54,2338.27 L2127.55,2338.25 L2127.17,2338.24 L2123.87,2338.26 L2119.77,2338.26 L2117.16,2338.22 L2107.33,2338.25 L2103.94,2338.27 L2102.19,2338.25 L2087.56,2338.24 L2080.86,2338.33 L2075.33,2338.3 L2060.83,2338.24 L2055.97,2338.23 L2054.66,2338.23 L2053.94,2338.23 L2047.24,2338.23 L2029.65,2338.22 L2024.76,2338.34 L2021.5,2338.43 L2021.06,2338.44 L2020.04,2338.33 L2019.93,2338.28 L2019.06,2338.3 L2002.24,2338.29 L1996.54,2338.28 L1989.11,2338.28 L1988.27,2338.28 L1988.22,2338.28 L1981.73,2338.31 L1981.53,2338.31 L1971.48,2338.35 L1968.49,2338.43 L1968.02,2338.44 L1939.36,2338.53 L1939.22,2338.52 L1934.45,2338.56 L1928.09,2338.6 L1911.23,2338.65 L1911.21,2338.65 L1894.68,2338.69 L1894.2,2338.67 L1890.98,2338.65 L1887.95,2338.66 L1863.37,2338.74 L1854.17,2338.77 L1825.68,2338.87 L1825.6,2338.85 L1824.87,2338.88 L1824.82,2338.87 L1815.31,2338.81 L1815.24,2338.81 L1814.06,2338.76 L1810.47,2338.71 L1809.1,2338.67 L1790.66,2338.1 L1788.72,2338.08 L1780.61,2338.01 L1779.75,2338 L1779.69,2338 L1778.03,2337.96 L1777.14,2337.94 L1776.23,2337.96 L1774.46,2337.95 L1774.27,2337.95 L1772.62,2337.94 L1771.03,2337.94 L1770.42,2337.94 L1770.22,2337.94 L1766.88,2337.94 L1760.39,2337.94 L1755.31,2337.94 L1753.44,2337.86 L1747.41,2337.89 L1747.41,2337.89 L1742.36,2337.92 L1738.25,2337.86 L1727.31,2337.8 L1722.28,2337.84 L1721.69,2337.83 L1714.02,2337.88 L1714.02,2337.88 L1707.33,2337.92 L1692.82,2337.96 L1692.46,2337.96 L1687.1,2337.98 L1685.97,2337.98 L1680.53,2338.04 L1679.6,2338.03 L1678.15,2338.02 L1666.77,2338.07 L1663.56,2338.08 L1656.67,2338.11 L1656.07,2338.11 L1634.09,2338.19 L1631.98,2338.2 L1630.17,2338.21 L1623.48,2338.23 L1612.02,2338.27 L1612,2338.27 L1610.92,2338.24 L1599.65,2338.23 L1596.17,2338.18 L1591.02,2338.17 L1586.26,2338.16 L1585.75,2338.16 L1579.22,2338.12 L1570.6,2338.1 L1565.41,2338.09 L1562.53,2338.08 L1562.49,2338.08 L1556.11,2338.15 L1551.49,2338.18 L1533.43,2338.31 L1529,2338.29 L1528.01,2338.3 L1527.4,2338.29 L1527.17,2338.28 L1511.34,2338.39 L1511.34,2338.39 L1492.96,2338.52 L1489.65,2338.6 L1477.93,2338.57 L1470.58,2338.78 L1468.78,2338.84 L1465.18,2338.54 L1452.14,2338.51 L1451.13,2338.48 L1446.89,2338.34 L1446.89,2338.34 L1443.41,2338.23 L1429.42,2338.18 L1416.66,2338.13 L1412.14,2338.19 L1400.84,2338.34 L1399.22,2338.36 L1385.47,2338.4 L1380.28,2338.41 L1379.69,2338.42 L1374.8,2338.43 L1326.46,2338.56 L1322.68,2338.58 L1318.07,2338.55 L1298.29,2338.43 L1298.2,2338.46 L1292.62,2338.48 L1277.92,2338.54 L1277.8,2338.53 L1269.68,2338.51 L1264.99,2338.5 L1264.91,2338.5 L1263,2338.49 L1233.87,2338.41 L1233.87,2338.41 L1233.64,2338.41 L1213.75,2338.36 L1213.36,2338.36 L1206.69,2338.36 L1206.19,2338.39 L1192.59,2338.54 L1183.33,2338.51 L1161.72,2338.43 L1157.34,2338.41 L1131.95,2338.32 L1130.98,2338.31 L1122.94,2338.28 L1122.93,2338.28 L1117.61,2338.28 L1097.57,2338.24 L1097,2338.24 L1095.02,2338.24 L1093.73,2338.23 L1093.55,2338.21 L1093.54,2338.21 L1093.23,2338.16 L1092.97,2338.17 L1092.28,2338.17 L1091.77,2338.17 L1091.3,2338.17 L1084.97,2338.19 L1081.86,2338.2 L1079.48,2338.19 L1077.79,2338.18 L1077.13,2338.18 L1064.29,2338.11 L1063.2,2338.11 L1058.96,2338.09 L1057.84,2338.08 L1052.28,2338.05 L1049.66,2338.07 L1024.32,2338.06 L1024,2338.06 L1000.46,2338 L996.575,2337.99 L989.074,2337.97 L988.823,2337.97 L985.334,2337.96 L984.586,2337.96 L981.368,2337.95 L977.839,2337.93 L977.769,2337.93 L974.482,2337.93 L971.296,2337.99 L971.123,2338 L968.82,2338 L962.216,2338.02 L961.666,2338.02 L932.124,2338.08 L932.011,2338.08 L920.089,2338.11 L907.16,2338.14 L905.607,2338.14 L899.827,2338.14 L898.064,2338.14 L886.088,2338.14 L884.829,2338.14 L884.348,2338.14 L883.16,2338.14 L881.549,2338.14 L879.897,2338.14 L874.956,2338.14 L872.525,2338.14 L859.385,2338.14 L844.067,2338.14 L842.718,2338.14 L836.323,2338.16 L834.81,2338.16 L834.198,2338.16 L830.364,2338.2 L830.07,2338.2 L829.773,2338.2 L828.964,2338.19 L828.394,2338.19 L804.343,2338.07 L803.763,2338.07 L803.347,2338.06 L802.319,2338.06 L798.821,2338.04 L791.842,2338.01 L782.116,2337.96 L779.407,2337.94 L777.767,2337.94 L772.02,2337.91 L771.965,2337.91 L769.506,2337.9 L768.045,2337.89 L764.716,2337.87 L758.124,2337.84 L755.85,2337.83 L754.845,2337.82 L750.63,2337.8 L749.89,2337.8 L746.253,2337.78 L738.206,2337.74 L734.273,2337.75 L729.889,2337.76 L706.51,2337.83 L704.604,2337.84 L702.934,2337.85 L695.82,2337.87 L694.402,2337.87 L679.984,2337.92 L667.049,2337.8 L665.34,2337.79 L643.872,2337.82 L643.804,2337.82 L643.773,2337.82 L643.78,2334.67 L643.781,2334.11 L643.782,2333.64 L643.788,2330.69 L643.786,2329.41 L643.745,2322.02 L643.744,2321.87 L643.791,2321.04 L643.791,2321.02 L643.781,2320.63 L643.789,2315.83 L643.805,2306.1 L643.811,2301.97 L643.807,2299.29 L643.798,2292.68 L643.797,2292.17 L643.793,2288.63 L643.793,2288.63 L643.811,2285.99 L643.794,2280.44 L643.794,2280.43 L643.794,2280.11 L643.736,2260.63 L643.736,2260.62 L643.734,2259.94 L643.695,2245.26 L643.688,2241.98 L643.68,2238.26 L643.663,2230.72 L643.64,2219.85 L643.63,2215.36 L643.628,2213.17 L643.612,2189.95 L643.611,2188.75 L643.611,2188.72 L643.608,2184.48 L643.604,2179.9 L643.603,2178.26 L643.537,2168.56 L643.536,2168.42 L643.536,2168.34 L643.536,2168.34 L643.501,2163.24 L643.501,2163.21 L643.623,2156.96 L643.654,2155.4 L643.653,2155.38 L643.639,2148.76 L643.655,2144.85 L643.667,2142.01 L643.667,2141.97 L643.634,2140.4 L643.682,2136.74 L643.703,2132.61 L643.733,2130.96 L643.732,2110.45 L643.726,2109.9 L643.726,2109.89 L643.725,2109.75 L643.756,2108.51 L643.748,2105.31 L643.745,2103.85 L643.746,2102.41 L643.752,2093.76 L643.753,2092.92 L643.753,2092.92 L643.756,2089.33 L643.788,2082.03 L643.789,2081.84 L643.782,2080.33 L643.76,2075.59 L643.75,2073.41 L643.732,2071.68 L643.699,2068.4 L643.713,2068.17 L643.712,2066.87 L643.71,2064.92 L643.711,2064.83 L643.721,2063.45 L643.687,2060.09 L643.665,2055.84 L643.682,2053.18 L643.715,2048.22 L643.715,2048.19 L643.716,2046.99 L643.711,2046.35 L643.64,2037.41 L643.614,2034.15 L643.614,2034.13 L643.569,2027.41 L643.557,2024.49 L643.557,2024.48 L643.557,2024.45 L643.626,2020.95 L643.627,2018.22 L643.631,2012.44 L643.631,2012.38 L643.662,2012.18 L643.688,2002.78 L643.698,2002.21 L643.685,1998.4 L643.715,1997.09 L643.756,1987.15 L643.852,1963.53 L643.872,1958.64 L643.855,1952.51 L643.877,1951.78 L643.913,1939.87 L643.913,1939.78 L643.88,1938.35 L643.881,1938.29 L643.906,1924.96 L643.923,1918.23 L643.923,1918.2 L644.013,1911.45 L644.013,1911.43 L644.062,1904.84 L644.062,1904.73 L644.037,1897.9 L644.035,1895.31 L644.029,1895.26 L644.045,1893.07 L644.043,1891 L644.077,1887.25 L644.102,1884.47 L644.12,1880.85 L644.155,1873.74 L644.188,1866.97 L644.145,1864.05 L644.05,1853.02 L644.047,1852.73 L644.042,1852.13 L644.043,1852.06 L644.052,1850.36 L644.063,1848.65 L644.069,1847.64 L644.081,1845.86 L644.08,1845.84 L644.011,1844.16 L643.995,1843.77 L644.007,1843.59 L643.953,1826.12 L644,1825.67 L643.936,1813.5 L643.935,1813.28 L643.92,1810.11 L643.899,1805.66 L643.899,1805.62 L643.841,1796.59 L643.841,1796.58 L643.785,1792.35 L643.858,1790.29 L643.871,1789.82 L643.815,1788.65 L643.752,1773.77 L643.814,1770.27 L643.833,1758.28 L643.837,1755.6 L643.845,1750.62 L643.846,1750.14 L643.865,1748.8 L644.162,1728.5 L644.313,1720.07 L644.319,1717.61 L644.322,1716.47 L644.378,1713.51 L644.433,1710.56 L644.479,1708.16 L644.54,1703.79 L644.508,1701.09 L644.508,1701.08 L644.587,1697.11 L644.674,1690.15 L644.702,1688 L644.702,1687.97 L644.78,1683.54 L644.928,1675.03 L644.907,1673.86 L644.937,1671.96 L644.985,1670.41 L644.989,1670.29 L644.996,1667.67 L645.008,1666.95 L645.009,1657.84 L645.024,1654.51 L645.043,1650.17 L645.043,1650.02 L645.136,1647.84 L645.221,1627.07 L645.221,1627.02 L645.194,1616.28 L645.194,1616.26 L645.182,1613.55 L645.192,1612.87 L645.238,1589.2 L645.244,1586.19 L645.267,1574.34 L645.307,1569.26 L645.427,1565.85 L645.427,1565.81 L645.555,1555.26 L645.638,1550.5 L645.648,1549 L645.684,1545.13 L645.708,1542.57 L645.708,1542.14 L645.708,1542.14 L645.708,1541.82 L645.716,1538.2 L645.724,1533.2 L645.724,1533.15 L645.695,1517.87 L645.695,1517.85 L645.69,1516.93 L645.647,1510.16 L645.638,1508.72 L645.64,1508.01 L645.696,1503.31 L645.702,1502.81 L645.702,1497.85 L645.702,1497.04 L645.66,1494.55 L645.647,1492.56 L645.582,1487.21 L645.467,1473.79 L645.461,1471.35 L645.481,1462.38 L645.485,1460.64 L645.46,1457.15 L645.448,1455.48 L645.456,1453.85 L645.524,1441.04 L645.625,1421.94 L645.631,1420.66 L645.632,1420.64 L645.694,1418.03 L645.683,1417.46 L645.713,1414.05 L645.714,1413.95 L645.723,1412.07 L645.749,1407.14 L645.779,1401.3 L645.783,1400.47 L645.849,1387.73 L645.85,1387.59 L645.892,1386.69 L645.888,1379.3 L645.885,1374.12 L645.986,1372.44 L645.992,1372.43 L645.992,1372.38 L645.985,1360.31 L645.984,1358.72 L646.002,1353.44 L646.003,1353.42 L646.147,1351.31 L646.1,1346.73 L646.096,1346.42 L646.376,1328.88 L646.744,1305.74 L646.866,1298.02 L646.886,1296.79 L646.907,1295.97 L647.039,1287.4 L647.087,1284.29 L647.195,1277.26 L647.251,1273.65 L647.406,1263.59 L647.407,1263.58 L647.407,1263.57 L647.456,1261.07 L647.542,1256.71 L647.543,1256.62 L647.559,1255.82 L647.559,1255.8 L647.543,1254.76 L647.528,1253.84 L647.518,1253.27 L647.409,1246.52 L647.409,1245.11 L647.409,1242.84 L647.409,1240.54 L647.409,1239.91 L647.423,1237.25 L647.424,1237.05 L647.409,1236.65 L647.409,1236.13 L647.409,1235.87 L647.409,1229.23 L647.409,1229.22 L647.411,1226.95 L647.412,1225.86 L647.415,1222.21 L647.418,1218.92 L647.418,1218.41 L647.42,1215.47 L647.423,1211.99 L647.427,1207.75 L647.429,1204.97 L647.43,1204.16 L647.43,1204.16 L647.43,1204.15 L647.471,1203.9 L647.372,1202.66 L647.372,1201.72 L647.372,1201.69 L647.359,1198.26 L647.345,1194.76 L647.345,1194.75 L647.33,1190.81 L647.325,1189.66 L647.312,1186.25 L647.304,1184.35 L647.299,1182.89 L647.311,1181.68 L647.317,1181.08 L647.327,1180.14 L647.353,1177.59 L647.387,1174.21 L647.387,1174.19 L647.389,1174.02 L647.424,1170.56 L647.448,1168.23 L647.453,1167.69 L647.459,1167.1 L647.459,1167.1 L647.488,1164.29 L647.523,1160.86 L647.535,1159.71 L647.547,1158.49 L647.551,1158.08 L647.551,1158.07 L647.565,1156.78 L647.583,1154.95 L647.593,1154 L647.599,1153.4 L647.602,1153.14 L647.61,1152.29 L647.629,1150.49 L647.629,1150.49 L647.649,1148.54 L647.663,1147.13 L647.703,1143.16 L647.688,1140.03 L647.688,1139.97 L647.666,1135.58 L647.674,1134.83 L647.703,1131.84 L647.703,1131.79 L647.659,1120.54 L647.315,1118.4 L648.255,1116.38 L650.205,1113.4 L653.111,1109.89 L654.08,1108.43 L654.627,1103.26 L653.8,1100.94 L651.824,1099.55 L649.727,1098.65 L647.18,1097.96 L644.54,1098.46 L641.773,1099.95 L641.56,1100.07 L635.731,1101.44 L631.734,1101.26 L631.701,1101.26 L629.843,1100.51 L628.584,1099.48 L627.779,1097.16 L628.177,1094.64 L628.601,1091.76 L628.43,1091.52 L626.882,1089.39 L624.933,1088.02 L620.812,1086.93 L618.274,1087.31 L614.989,1089.61 L614.928,1089.65 L608.379,1093.52 L604.884,1094.19 L600.139,1094.09 L598.157,1093.62 L598.152,1093.62 L594.326,1092.19 L590.354,1089.01 L587.705,1084.22 L587.439,1083.52 L585.792,1079.19 L584.946,1077.8 L583.592,1076.56 L582.739,1076.08 L581.45,1075.84 L580.803,1075.95 L576.918,1076.62 L572.504,1076.35 L569.184,1075.38 L568.042,1074.79 L565.141,1071.91 L564.452,1071.03 L563.932,1069.75 L563.898,1069.67 L563.957,1068.16 L566.571,1063.33 L567.189,1061.3 L567.354,1059.66 L567.1,1058.2 L567.093,1058.16 L566.683,1055.79 L565.217,1052.75 L563.955,1051.19 L562.869,1049.84 L559.755,1046.95 L558.173,1045.94 L555.8,1044.41 L555.542,1044.29 L551.939,1042.51 L547.984,1040.94 L546.418,1039.9 L544.77,1038.4 L543.869,1037.3 L543.711,1037.1 L541.768,1034.73 L539.991,1031.88 L539.742,1031.25 L539.691,1031.12 L539.334,1030.21 L538.855,1028.99 L538.048,1026.29 L537.807,1024.96 L537.58,1023.7 L537.042,1020.72 L536.986,1020.03 L536.809,1017.84 L536.4,1012.78 L536.31,1011.66 L536.094,1008.99 L536.27,1007.46 L536.324,1006.99 L536.547,1006.17 L537.324,1004.99 L539.09,1003.26 L540.368,1002.28 L541.174,1001.95 L543.346,1001.52 L545.447,1000.15 L546.865,998.5 L547.701,995.969 L547.63,994.029 L547.281,992.934 L547.005,992.068 L545.517,989.259 L544.84,988.675 L544.065,988.007 L543.008,987.588 L542.636,987.549 L541.856,987.468 L541.803,987.475 L539.338,987.833 L536.484,989.705 L534.175,990.903 L532.937,991.461 L531.507,991.786 L527.63,991.284 L526.34,990.816 L525.957,990.538 L525.406,990.14 L524.544,989.403 L523.243,987.331 L523.004,986.476 L522.844,984.539 L522.98,981.717 L522.402,980.308 L521.171,978.831 L519.844,977.813 L515.706,976.174 L514.682,975.324 L513.173,974.07 L511.829,971.691 L511.023,967.148 L509.792,965.094 L506.839,962.408 L504.78,961.464 L503.09,960.958 L497.402,959.256 L492.74,956.646 L490.934,955.412 L489.429,954.072 L488.222,952.787 L486.407,949.893 L485.885,948.696 L485.43,946.099 L484.888,939.429 L484.628,937.951 L484.03,936.768 L482.484,934.873 L481.35,933.838 L474.736,930.305 L472.797,928.798 L469.122,925.208 L467.609,923.454 L465.376,920.865 L464.116,918.966 L464.012,918.809 L463.016,916.602 L461.451,911.041 L461.628,908.564 L461.696,908.333 L463.696,901.545 L464.082,900.872 L465.251,899.664 L466.771,898.754 L467.517,898.487 L468.007,898.311 L470.295,898.116 L475.013,900.151 L476.679,900.457 L477.726,900.411 L479.49,899.983 L481.329,899.021 L482.294,898.336 L483.064,897.419 L485.097,894.032 L485.874,891.391 L486.169,889.271 L486.138,888.293 L485.599,886.057 L483.723,882.392 L483.584,881.743 L483.248,880.177 L482.936,878.719 L483.019,877.124 L483.592,874.568 L485.008,870.972 L486.834,867.87 L488.521,865.772 L488.859,865.353 L489.442,863.792 L493.054,857.796 L494.176,856.348 L495.31,855.319 L496.485,854.253 L497.591,853.587 L499.904,852.868 L502.716,852.527 L505.593,852.484 L506.169,852.382 L506.228,852.372 L509.054,851.872 L510.008,851.497 L511.932,850.19 L513.774,847.78 L514.292,846.519 L514.634,844.652 L514.793,838.992 L514.828,837.745 L513.862,830.216 L513.815,827.27 L514.104,825.923 L515.981,822.601 L516.573,822.012 L517.906,820.688 L519.671,819.432 L520.648,819.302 L522.085,819.478 L522.109,819.488 L523.55,820.06 L525.581,821.399 L528.971,824.369 L533.268,827.514 L536.305,828.953 L539.048,829.711 L540.26,829.787 L540.616,829.735 L543.046,829.38 L545.842,828.471 L546.856,827.897 L548.968,826.701 L550.992,824.74 L553.64,820.722 L554.485,817.928 L554.539,817.752 L554.586,817.595 L554.915,815.678 L554.928,815.602 L554.449,811.104 L553.566,809.095 L552.794,807.754 L552.095,806.989 L551.175,806.414 L550.623,806.367 L550.618,806.368 L546.843,807.197 L546.829,807.197 L545.922,807.71 L542.346,810.571 L542.317,810.594 L542.245,810.652 L542.19,810.697 L541.833,810.982 L541.749,811.049 L540.319,811.983 L537.712,812.864 L535.487,812.902 L533.833,812.136 L530.36,809.479 L529.101,808.231 L527.405,806.056 L527.023,805.114 L526.846,803.537 L527.058,801.515 L527.97,800.006 L528.799,799.304 L529.1,799.049 L530.59,798.344 L542.596,797.701 L543.58,797.448 L545.863,796.199 L547.023,794.713 L547.122,794.443 L548.71,790.138 L548.858,787.073 L548.637,783.577 L548.62,783.441 L548.453,782.063 L547.852,780.738 L546.993,779.588 L544.815,777.588 L543.874,777.143 L542.702,776.974 L538.847,777.227 L536.351,776.951 L533.785,776.131 L530.389,773.648 L526.157,769.593 L525.38,768.565 L524.35,766.327 L524.409,764.187 L525.021,762.585 L525.739,761.366 L528.435,758.659 L529.537,756.865 L529.984,754.989 L529.944,753.211 L529.747,752.183 L529.13,750.916 L527.32,748.705 L523.872,746.421 L521.049,745.268 L518.204,744.723 L516.707,744.979 L511.408,746.736 L508.015,747.121 L506.797,746.958 L505.647,746.582 L501.818,745.332 L500.119,745.238 L498.385,745.547 L496.329,746.784 L495.168,748.437 L494.252,749.742 L493.939,750.462 L493.679,751.878 L493.983,755.672 L493.872,756.689 L492.949,759.176 L491.433,760.703 L489.331,762.042 L487.721,762.396 L483.898,762.602 L473.231,763.875 L471.955,763.796 L470.058,763.194 L464.263,760.306 L456.077,757.909 L453.95,756.778 L453.656,756.622 L452.794,755.903 L451.503,754.303 L450.724,752.29 L450.472,750.627 L450.825,747.72 L450.781,746.487 L450.325,744.604 L449.497,743.518 L448.172,742.672 L446.874,742.328 L445.83,742.051 L444.428,742.175 L439.844,744.553 L437.211,745.494 L436.502,745.504 L433.491,745.544 L431.928,745.193 L429.893,744.225 L428.941,743.581 L427.544,741.556 L427.374,740.941 L427.326,739.712 L427.54,738.25 L428.913,734.763 L429.399,732.021 L429.183,729.124 L428.024,726.843 L424.6,724.8 L423.605,724.442 L422.218,724.212 L418.207,724.523 L416.13,724.453 L414.43,723.964 L411.167,722.191 L408.445,719.196 L406.9,716.445 L403.945,712.232 L402.153,710.927 L396.651,708.243 L391.945,705.05 L390.252,702.766 L390.006,702.044 L389.776,700.537 L389.812,697.996 L389.818,697.54 L389.752,696.486 L388.761,693.791 L388.376,693.028 L387.25,691.743 L386.241,691.193 L382.383,690.02 L379.536,688.364 L375.736,683.96 L374.925,683.468 L371.946,682.399 L369.331,682.411 L362.352,684.518 L360.793,684.682 L359.199,684.544 L357.606,684.073 L355.102,682.858 L353.412,681.635 L351.084,679.083 L349.894,676.772 L348.975,674.269 L348.645,672.313 L348.122,669.219 L348.489,667.466 L349.334,665.586 L350.662,663.995 L352.347,661.964 L352.457,661.832 L352.972,659.506 L352.682,657.098 L352.167,653.557 L353.29,650.432 L356.031,647.927 L357.132,646.992 L358.21,645.511 L358.635,644.11 L358.661,643.381 L358.694,642.453 L358.716,641.844 L358.618,641.002 L358.53,640.244 L357.786,638.513 L356.573,636.777 L354.466,635.527 L352.595,635.029 L349.025,634.772 L346.967,633.724 L345.507,632.371 L344.671,631.007 L344.25,629.75 L343.806,627.301 L343.641,624.018 L343.275,622.535 L342.712,621.234 L341.113,619.519 L340.332,619.048 L335.88,617.452 L333.737,616.202 L330.554,613.076 L329.945,612.477 L328.015,610.032 L326.951,608.268 L326.279,606.885 L326.092,606.279 L325.72,605.075 L325.64,602.637 L325.801,601.038 L327.409,597.196 L329.057,594.865 L329.82,593.01 L330.31,590.999 L330.436,587.915 L330.204,586.513 L329.395,583.979 L327.573,580.778 L325.632,579.066 L324.449,578.318 L322.853,577.768 L321.723,577.482 L319.201,577.448 L316.614,577.805 L313.372,577.661 L311.559,577.229 L310.405,576.725 L306.56,573.918 L303.208,572.118 L299.995,571.532 L299.314,570.813 L299.132,570.3 L298.578,568.731 L298.596,567.262 L300.357,562.296 L300.549,559.94 L300.309,558.628 L299.694,557.427 L297.692,555.2 L296.433,554.436 L294.232,553.582 L289.212,553.365 L287.157,552.367 L286.13,551.619 L284.876,550.34 L283.304,548.735 L283.006,548.431 L280.632,547.104 L278.672,546.423 L277.554,546.297 L275.916,546.54 L273.973,547.148 L269.155,549.46 L266.966,550.256 L265.837,550.416 L263.565,549.938 L262.54,549.349 L261.424,547.926 L261.167,547.036 L261.263,545.546 L261.687,543.772 L262.748,542.269 L264.88,540.834 L270.076,539.029 L271.5,538.21 L273.241,536.62 L273.984,534.652 L274.16,533.45 L273.783,530.694 L273.384,529.417 L273.36,529.369 L272.534,527.686 L272.425,527.537 L270.932,525.509 L268.905,523.553 L268.171,522.352 L267.42,521.121 L266.91,519.465 L266.812,516.967 L267.008,515.402 L266.351,511.246 L264.333,506.754 L263.478,505.304 L260.759,500.696 L259.903,497.19 L260.176,495.792 L261.062,493.039 L261.806,490.997 L262.048,488.111 L261.289,485.326 L261.259,485.216 L261.107,484.658 L258.45,480.162 L256.121,477.497 L254.123,475.823 L251.479,474.272 L250.459,473.35 L248.253,471.356 L247.694,470.362 L247.064,468.212 L246.92,466.785 L247.122,465.206 L247.475,463.042 L247.667,459.649 L247.218,457.013 L245.738,454.002 L247.344,453.423 L248.639,452.62 L257.505,449.317 L259.82,448.18 L262.032,445.157 L262.356,443.34 L263.287,438.111 L262.865,436.282 L261.968,433.999 L259.669,432.377 L258.423,429.12 L256.117,426.244 L253.555,426.276 L250.469,427.194 L247.88,428.997 L247.61,432.009 L246.95,434.712 L246.727,438.658 L247.548,440.526 L246.753,442.775 L242.566,446.127 L242.058,445.04 L240.47,443.39 L237.471,442.949 L236.452,443.116 L234.257,444.247 L232.024,444.976 L227.82,444.809 L224.719,443.979 L222.605,442.827 L221.11,441.282 L220.458,440.051 L220.241,438.817 L220.561,437.03 L221.928,434.429 L222.322,433.181 L222.417,431.972 L222.246,430.482 L221.805,429.007 L219.324,424.546 L218.247,420.943 L218.671,418.7"/>
  </g>
  <g stroke-width="1" transform="matrix(0.999744,0,0,0.999744,0,0)" stroke-opacity="1" font-size="34.5833" fill="none" stroke-linejoin="bevel" font-style="normal" stroke-linecap="square" stroke="#000000" font-family="MS Shell Dlg 2" font-weight="400"/>
  <g stroke-width="1" transform="matrix(11.808,0,0,11.808,0,0)" stroke-opacity="1" font-size="34.5833" fill="none" stroke-linejoin="bevel" font-style="normal" stroke-linecap="square" stroke="#000000" font-family="MS Shell Dlg 2" font-weight="400"/>
  <g stroke-width="1" transform="matrix(11.808,0,0,11.808,0,0)" stroke-opacity="1" font-size="34.5833" fill="none" stroke-linejoin="bevel" font-style="normal" stroke-linecap="square" stroke="#000000" font-family="MS Shell Dlg 2" font-weight="400"/>
  <g stroke-width="1" transform="matrix(11.808,0,0,11.808,0,0)" stroke-opacity="1" font-size="34.5833" fill="none" stroke-linejoin="bevel" font-style="normal" stroke-linecap="square" stroke="#000000" font-family="MS Shell Dlg 2" font-weight="400"/>
  <g stroke-width="1" transform="matrix(1,0,0,1,0,0)" stroke-opacity="1" font-size="34.5833" fill="none" stroke-linejoin="bevel" font-style="normal" stroke-linecap="square" stroke="#000000" font-family="MS Shell Dlg 2" font-weight="400"/>
  <g stroke-width="1" transform="matrix(11.808,0,0,11.808,0,0)" stroke-opacity="1" font-size="34.5833" fill="none" stroke-linejoin="bevel" font-style="normal" stroke-linecap="square" stroke="#000000" font-family="MS Shell Dlg 2" font-weight="400"/>
  <g stroke-width="1" transform="matrix(11.808,0,0,11.808,0,0)" stroke-opacity="1" font-size="34.5833" fill="none" stroke-linejoin="bevel" font-style="normal" stroke-linecap="square" stroke="#000000" font-family="MS Shell Dlg 2" font-weight="400"/>
  <g stroke-width="1" transform="matrix(11.808,0,0,11.808,0,0)" stroke-opacity="1" font-size="34.5833" fill="none" stroke-linejoin="bevel" font-style="normal" stroke-linecap="square" stroke="#000000" font-family="MS Shell Dlg 2" font-weight="400"/>
  <g stroke-width="1" transform="matrix(11.808,0,0,11.808,0,0)" stroke-opacity="1" font-size="34.5833" fill="none" stroke-linejoin="bevel" font-style="normal" stroke-linecap="square" stroke="#000000" font-family="MS Shell Dlg 2" font-weight="400"/>
  <g stroke-width="1" transform="matrix(1,0,0,1,0,0)" stroke-opacity="1" font-size="34.5833" fill="none" stroke-linejoin="bevel" font-style="normal" stroke-linecap="square" stroke="#000000" font-family="MS Shell Dlg 2" font-weight="400"/>
 </g>
</svg>
