<?xml version='1.0' encoding='UTF-8' standalone='no'?>
<svg xmlns:xlink="http://www.w3.org/1999/xlink" baseProfile="tiny" xmlns="http://www.w3.org/2000/svg" height="249.936mm" viewBox="0 0 2952 2952" width="249.936mm" version="1.2">
 <title>Qt SVG Document</title>
 <desc>Generated with Qt</desc>
 <defs/>
 <g stroke-width="1" fill-rule="evenodd" fill="none" stroke-linejoin="bevel" stroke-linecap="square" stroke="black">
  <g stroke-width="1" transform="matrix(1,0,0,1,0,0)" stroke-opacity="1" font-size="34.5833" fill="none" stroke-linejoin="bevel" font-style="normal" stroke-linecap="square" stroke="#000000" font-family="MS Shell Dlg 2" font-weight="400"/>
  <g stroke-width="1" transform="matrix(1,0,0,1,0,0)" stroke-opacity="1" font-size="34.5833" fill="none" stroke-linejoin="bevel" font-style="normal" stroke-linecap="square" stroke="#000000" font-family="MS Shell Dlg 2" font-weight="400"/>
  <g stroke-width="1" transform="matrix(11.808,0,0,11.808,0,0)" stroke-opacity="1" font-size="34.5833" fill="none" stroke-linejoin="bevel" font-style="normal" stroke-linecap="square" stroke="#000000" font-family="MS Shell Dlg 2" font-weight="400"/>
  <g stroke-width="1" transform="matrix(0.999744,0,0,0.999744,0,0)" stroke-opacity="1" font-size="34.5833" fill="none" stroke-linejoin="bevel" font-style="normal" stroke-linecap="square" stroke="#000000" font-family="MS Shell Dlg 2" font-weight="400"/>
  <g transform="matrix(0.999744,0,0,0.999744,0,0)" font-size="34.5833" fill-opacity="0" fill="#ffffff" font-style="normal" stroke="none" font-family="MS Shell Dlg 2" font-weight="400">
   <path fill-rule="evenodd" vector-effect="none" d="M-2,-2 L2955,-2 L2955,2955 L-2,2955 L-2,-2"/>
  </g>
  <g stroke-width="1" transform="matrix(0.999744,0,0,0.999744,0,0)" stroke-opacity="1" font-size="34.5833" fill="none" stroke-linejoin="bevel" font-style="normal" stroke-linecap="square" stroke="#000000" font-family="MS Shell Dlg 2" font-weight="400"/>
  <g stroke-width="1" transform="matrix(11.808,0,0,11.808,0,0)" stroke-opacity="1" font-size="34.5833" fill="none" stroke-linejoin="bevel" font-style="normal" stroke-linecap="square" stroke="#000000" font-family="MS Shell Dlg 2" font-weight="400"/>
  <g stroke-width="1" transform="matrix(11.808,0,0,11.808,0,0)" stroke-opacity="1" font-size="34.5833" fill="none" stroke-linejoin="bevel" font-style="normal" stroke-linecap="square" stroke="#000000" font-family="MS Shell Dlg 2" font-weight="400"/>
  <g stroke-width="1" transform="matrix(11.808,0,0,11.808,0,0)" stroke-opacity="1" font-size="34.5833" fill="none" stroke-linejoin="bevel" font-style="normal" stroke-linecap="square" stroke="#000000" font-family="MS Shell Dlg 2" font-weight="400"/>
  <g stroke-width="1" transform="matrix(11.808,0,0,11.808,0,0)" stroke-opacity="1" font-size="34.5833" fill="none" stroke-linejoin="bevel" font-style="normal" stroke-linecap="square" stroke="#000000" font-family="MS Shell Dlg 2" font-weight="400"/>
  <g stroke-width="1" transform="matrix(11.808,0,0,11.808,0,0)" stroke-opacity="1" font-size="34.5833" fill="none" stroke-linejoin="bevel" font-style="normal" stroke-linecap="square" stroke="#000000" font-family="MS Shell Dlg 2" font-weight="400"/>
  <g transform="matrix(11.808,0,0,11.808,0,0)" font-size="34.5833" fill-opacity="0" fill="#ffffff" font-style="normal" stroke="none" font-family="MS Shell Dlg 2" font-weight="400">
   <path fill-rule="evenodd" vector-effect="none" d="M0,0 L250,0 L250,250 L0,250 L0,0"/>
  </g>
  <g stroke-width="1" transform="matrix(11.808,0,0,11.808,0,0)" stroke-opacity="1" font-size="34.5833" fill="none" stroke-linejoin="bevel" font-style="normal" stroke-linecap="square" stroke="#000000" font-family="MS Shell Dlg 2" font-weight="400"/>
  <g stroke-width="1" transform="matrix(11.808,0,0,11.808,0,0)" stroke-opacity="1" font-size="34.5833" fill="none" stroke-linejoin="bevel" font-style="normal" stroke-linecap="square" stroke="#000000" font-family="MS Shell Dlg 2" font-weight="400"/>
  <g transform="matrix(0.999744,0,0,0.999744,0,0)" font-size="34.5833" fill-opacity="0" fill="#000000" font-style="normal" stroke="none" font-family="MS Shell Dlg 2" font-weight="400">
   <rect x="0" height="2953" width="2953" y="0"/>
  </g>
  <g stroke-width="1" transform="matrix(0.999744,0,0,0.999744,0,0)" stroke-opacity="1" font-size="34.5833" fill="none" stroke-linejoin="bevel" font-style="normal" stroke-linecap="square" stroke="#000000" font-family="MS Shell Dlg 2" font-weight="400"/>
  <g stroke-width="3.07087" transform="matrix(0.999744,0,0,0.999744,0,0)" stroke-opacity="1" font-size="34.5833" fill-opacity="1" fill="#c5c5c5" stroke-linejoin="bevel" font-style="normal" stroke-linecap="square" stroke="#5c5c5c" font-family="MS Shell Dlg 2" font-weight="400">
   <path fill-rule="evenodd" vector-effect="none" d="M267.435,1663.03 L267.487,1653.43 L267.496,1651.77 L267.652,1622.91 L267.678,1621.84 L267.713,1621.77 L267.68,1607.2 L267.707,1605.37 L267.75,1605.3 L267.646,1601.68 L267.761,1577.63 L267.761,1577.59 L267.798,1572.07 L267.746,1568.15 L267.706,1530.5 L267.707,1527.96 L267.646,1521.51 L267.644,1520.72 L267.676,1516.3 L267.691,1516.27 L267.688,1511.82 L267.596,1501.04 L267.632,1492.78 L267.563,1489.21 L267.571,1483.34 L267.581,1480.63 L267.605,1460.27 L267.621,1446.58 L267.585,1417.26 L267.562,1398.84 L267.548,1387.78 L267.576,1379.77 L267.558,1376.35 L267.632,1353.87 L267.597,1352.72 L267.603,1347.26 L267.603,1347.25 L267.604,1345.78 L267.605,1345.49 L267.625,1345.35 L267.642,1343.91 L267.641,1342.73 L267.64,1342.23 L267.634,1337.07 L267.59,1334.96 L267.565,1314.29 L267.565,1314.26 L267.568,1309.65 L267.569,1308.83 L267.588,1306.24 L267.589,1306.11 L267.671,1294.89 L267.631,1291.46 L267.555,1290.11 L267.686,1278.62 L267.625,1277.27 L267.52,1246.26 L267.615,1246.26 L267.62,1243.05 L267.619,1242 L267.525,1148.72 L267.62,1105.35 L267.62,1105.05 L267.621,1104.98 L267.675,1097.48 L267.63,1096.28 L267.676,1089.98 L267.611,1050.8 L267.595,1048.99 L267.548,952.228 L285.403,951.793 L292.553,951.786 L304.471,952.097 L323.093,952.013 L335.987,951.955 L336.458,951.916 L364.95,952.072 L382.868,951.904 L392.836,952.191 L404.759,952.165 L404.943,952.141 L414.448,952.148 L425.053,952.155 L425.17,952.155 L425.438,952.156 L425.472,952.156 L454.445,952.169 L471.084,952.118 L472.819,952.113 L477.491,952.115 L532.733,952.15 L533.083,952.15 L570.878,952.273 L630.972,952.467 L640.534,952.485 L645.185,952.494 L653.817,952.51 L659.194,952.52 L693.266,952.585 L698.91,952.595 L699.001,952.595 L699.466,952.596 L699.913,952.597 L718.816,952.633 L732.3,952.613 L733.622,952.614 L742.387,952.623 L755.873,952.636 L756.15,952.636 L757.099,952.637 L835.484,952.713 L835.501,952.713 L902.514,952.723 L941.734,953.788 L941.758,953.789 L941.83,953.791 L967.236,953.942 L999.282,953.634 L1003.26,953.596 L1004.66,953.59 L1024.59,953.511 L1081.11,953.287 L1081.44,953.305 L1081.78,953.296 L1082.11,953.288 L1082.22,953.286 L1106.91,953.275 L1135.06,953.263 L1147.37,953.432 L1157.82,953.292 L1157.82,953.292 L1159.5,953.328 L1174.3,953.283 L1174.33,953.283 L1174.38,953.283 L1179.81,953.294 L1185.69,953.142 L1191.48,953.148 L1202.95,953.16 L1220.16,953.177 L1242.24,953.199 L1253.64,953.211 L1255.46,953.017 L1276.29,952.963 L1278.92,952.934 L1281.71,952.846 L1299.46,952.74 L1316.58,952.845 L1333.28,952.948 L1334.97,952.956 L1353.95,952.945 L1355.65,952.982 L1378.53,953.034 L1378.53,953.034 L1378.53,953.034 L1399.14,952.967 L1399.15,952.967 L1399.28,952.967 L1401.34,952.976 L1425.81,953.08 L1427.7,953.08 L1433.28,953.091 L1434.35,953.093 L1446.39,953.114 L1446.9,953.115 L1449.86,953.132 L1450.01,953.134 L1456.57,953.203 L1459.24,953.225 L1467.52,953.214 L1470.97,953.21 L1473.22,953.21 L1476.09,953.262 L1478.72,953.186 L1478.94,953.18 L1478.97,953.18 L1487.06,953.249 L1490.66,953.177 L1492.4,953.222 L1493.28,953.258 L1496.75,953.241 L1501.77,953.203 L1502.44,953.198 L1509.75,953.282 L1514.46,953.29 L1516.66,953.287 L1521.77,953.25 L1522.41,953.294 L1530.83,953.284 L1535.9,953.278 L1559.86,953.249 L1569.63,953.232 L1570.02,953.231 L1581.48,953.201 L1582.48,953.191 L1587.17,953.215 L1588.09,953.26 L1609.93,953.18 L1616.07,953.229 L1616.98,953.21 L1617.69,953.192 L1621.48,953.173 L1623.85,953.162 L1640.92,953.187 L1648.22,953.155 L1650.6,953.192 L1650.65,953.193 L1656.36,953.136 L1667.63,953.205 L1667.68,953.205 L1677.43,953.064 L1678.27,953.078 L1680.38,953.112 L1683.87,953.047 L1684.75,953.129 L1695.57,953.132 L1700.34,953.134 L1700.88,953.106 L1706.5,953.122 L1717.51,953.154 L1717.63,953.103 L1718.76,953.11 L1723.83,953.14 L1734.87,953.134 L1740.48,953.143 L1747.22,953.152 L1747.25,953.152 L1751.85,953.127 L1752.78,953.199 L1756.95,953.185 L1764.12,953.161 L1774.62,953.125 L1774.67,953.125 L1781.21,953.152 L1791.85,953.12 L1792.44,953.119 L1798.19,953.112 L1808.88,953.075 L1820.32,953.036 L1820.69,953.061 L1820.87,953.072 L1826.12,953.065 L1848.18,953.036 L1849.3,953.09 L1855.05,953.071 L1868.47,953.026 L1869.28,957.175 L1870.8,961.148 L1874.13,966.824 L1877.46,973.118 L1877.54,973.177 L1879.1,974.35 L1880.01,974.765 L1881.82,976.727 L1882.95,977.499 L1883.31,978.015 L1883.66,979.786 L1884.15,980.328 L1885.42,980.74 L1886.13,980.662 L1886.93,980.334 L1887.96,979.438 L1889.1,979.238 L1889.3,979.203 L1890.9,979.272 L1894.62,981.703 L1897.08,982.996 L1900.78,984.593 L1903.98,986.669 L1904.7,986.989 L1908.97,988.879 L1911.73,990.402 L1912.37,990.755 L1913.47,991.503 L1914.75,992.718 L1915.36,993.546 L1916.04,995.168 L1916.35,995.573 L1917.15,996.384 L1918.24,997.147 L1920.07,997.918 L1922.88,998.697 L1926.43,999.681 L1931.46,1001.67 L1934.82,1002 L1937.72,1001.91 L1939.59,1002.53 L1940.16,1002.91 L1941.02,1004.27 L1945.32,1007.12 L1945.74,1007.48 L1946.88,1008.46 L1947.53,1009.33 L1948.8,1010.26 L1949.43,1010.61 L1953.22,1012.74 L1957.47,1014.79 L1958.3,1015.07 L1959.55,1015.48 L1962.84,1016.57 L1963.88,1016.64 L1965.11,1016.56 L1968.04,1015.8 L1969.49,1015.43 L1969.81,1015.5 L1972.41,1018.29 L1974.7,1022.33 L1974.97,1022.81 L1975.42,1023.24 L1981.13,1026.97 L1981.99,1027.82 L1984.9,1031.42 L1986.85,1032.8 L1988.3,1033.37 L1992.74,1037.14 L1994.03,1038.57 L1994.51,1039.81 L1994.92,1041.84 L1995.84,1042.62 L1997.28,1043.41 L1998.48,1043.59 L1999.28,1043.71 L2000.05,1043.99 L2001.47,1044.61 L2002.07,1045.21 L2007.2,1045.91 L2008.4,1045.95 L2010.51,1045.22 L2011.43,1045.58 L2012.06,1045.58 L2014.32,1044.85 L2018.62,1042.96 L2023.1,1043.44 L2025.56,1043.31 L2025.57,1043.31 L2026.53,1043.08 L2030.4,1040.67 L2031.48,1039.71 L2034.24,1036.41 L2034.81,1035.72 L2036.39,1035.12 L2038.4,1033.15 L2039.54,1031.59 L2040,1030.84 L2042.6,1026.56 L2043.8,1025.21 L2044.28,1024.37 L2045.35,1020.84 L2046.78,1017.24 L2047.04,1013.99 L2047.95,1012.4 L2048,1011.38 L2047.65,1010.45 L2047.61,1009.77 L2048.09,1008.07 L2049,1007.54 L2050.87,1006.44 L2053.1,1005.57 L2056.76,1004.53 L2059.96,1004.11 L2061.59,1004.11 L2062.37,1004.61 L2064.89,1006.87 L2068.41,1008.02 L2069.42,1008.35 L2073.13,1010.17 L2075.76,1011.1 L2077.17,1011.59 L2079.97,1011.85 L2083.12,1011.89 L2084.12,1011.7 L2092.67,1012.5 L2092.74,1012.51 L2098.33,1013.94 L2102.52,1014.47 L2107.77,1014.24 L2110.78,1013.61 L2113.99,1012.44 L2117.25,1010.93 L2121.61,1008.91 L2124.05,1008.21 L2126.37,1008.23 L2126.58,1008.36 L2127.67,1009.05 L2129.78,1009.99 L2134.79,1011.64 L2138.43,1012.46 L2142.59,1012.28 L2147.09,1011.46 L2148.6,1010.99 L2151.68,1010.03 L2154.88,1008.17 L2156.18,1008.66 L2156.54,1009.46 L2157.36,1010.23 L2158.73,1010.86 L2160.62,1011.36 L2161.37,1011.35 L2164.77,1011.32 L2167.32,1011.83 L2168.16,1012.16 L2168.85,1012.71 L2170.06,1013.05 L2172.91,1012.99 L2173.82,1012.64 L2175.89,1010.89 L2177.73,1008.88 L2177.87,1008.27 L2178.41,1007.11 L2180.18,1005.24 L2181.23,1004.68 L2182.7,1004.29 L2183.82,1004.52 L2185.3,1005.67 L2186.84,1005.9 L2186.84,1005.9 L2191.81,1005.53 L2192.2,1006.39 L2194.13,1008.19 L2194.61,1008.5 L2196.11,1009.49 L2196.75,1009.61 L2202.05,1009.19 L2203.5,1008.83 L2205.06,1008.2 L2205.66,1007.8 L2205.7,1007.77 L2206.15,1007.26 L2206.32,1007.06 L2206.87,1006.78 L2208.71,1006.29 L2210.72,1005.28 L2211.37,1004.7 L2211.97,1004.58 L2211.99,1004.58 L2213.32,1005.34 L2213.7,1005.77 L2216.84,1009.34 L2217.53,1009.46 L2218.82,1009.7 L2220.08,1009.93 L2220.08,1009.93 L2220.61,1010.02 L2223.16,1010.49 L2223.57,1010.42 L2226.04,1010.02 L2226.38,1009.96 L2227.82,1009.37 L2228.45,1009.38 L2228.45,1009.38 L2228.75,1009.38 L2231.83,1010.27 L2233.54,1010.98 L2237.31,1013.13 L2237.72,1014.05 L2237.5,1018.9 L2237.48,1019.54 L2237.53,1019.85 L2237.6,1020.24 L2238.4,1022.12 L2238.72,1023.24 L2238.97,1026.04 L2239.18,1026.51 L2239.38,1026.95 L2239.82,1027.5 L2241.38,1028.59 L2242.62,1029 L2246.31,1029.25 L2248.94,1029.88 L2250.79,1030 L2252.26,1030.33 L2253.16,1030.66 L2254.17,1031.25 L2256.93,1032.89 L2258.71,1035.03 L2259.65,1036.37 L2260.55,1037.66 L2260.89,1038.63 L2260.87,1039.33 L2260.87,1039.42 L2261.58,1041.04 L2261.63,1041.17 L2262.53,1042.17 L2268.21,1043.17 L2271.2,1043.05 L2271.25,1043.06 L2272.68,1043.19 L2275.75,1042.91 L2277.51,1042.38 L2279.68,1042.03 L2281.48,1042.07 L2285.35,1042.86 L2290.81,1044.54 L2291.68,1045.4 L2293.22,1045.9 L2295.82,1046.23 L2299.55,1046.7 L2302.45,1047.06 L2305.52,1046.64 L2306.4,1046.82 L2307.49,1047.52 L2309.35,1049.1 L2311.56,1054.46 L2311.66,1055.07 L2311.58,1055.73 L2311.54,1056.05 L2311.28,1056.79 L2310.23,1059.77 L2310.28,1060.78 L2310.54,1061.59 L2310.9,1062.3 L2311.46,1062.62 L2313.11,1062.88 L2315.11,1062.76 L2317.36,1061.94 L2318.61,1061.21 L2320.49,1060.03 L2322.25,1058.5 L2323.3,1058.07 L2327.25,1057.14 L2327.83,1057.48 L2329.33,1058.36 L2329.63,1058.53 L2333,1060.51 L2337.05,1060.95 L2340.61,1062.24 L2343.63,1064.5 L2345.52,1065.68 L2349.51,1067.09 L2350.6,1067.19 L2352.42,1067.35 L2354.24,1067.89 L2356.24,1068.77 L2357.55,1070.88 L2357.89,1073.35 L2357.97,1076.54 L2357.4,1081.29 L2357.75,1082.26 L2358.39,1082.85 L2359.98,1083.72 L2360.17,1083.77 L2363.52,1084.69 L2364.32,1084.91 L2368.39,1085.3 L2372.08,1084.37 L2372.62,1083.84 L2373.32,1083.64 L2374.71,1083.49 L2376.63,1083.27 L2378.77,1083.38 L2387.53,1086.42 L2389.37,1087.57 L2390.41,1088.78 L2390.57,1089.18 L2390.6,1090.09 L2390.58,1090.23 L2390.37,1091.57 L2390,1092.32 L2388.98,1093.12 L2387.76,1094.86 L2384.75,1099.67 L2384.12,1101 L2383.59,1102.78 L2383.52,1103.81 L2383.68,1106.4 L2384.17,1108.12 L2385,1109.82 L2387.63,1113.34 L2390.96,1118.22 L2392.22,1119.57 L2393.78,1120.7 L2398.74,1122.73 L2401.22,1124.49 L2401.8,1124.9 L2401.82,1124.92 L2403.11,1126.18 L2404.71,1128.39 L2405.49,1130.08 L2406.07,1132.97 L2406.07,1132.99 L2406.06,1135.77 L2406.06,1136.2 L2406.2,1137.38 L2406.6,1139.2 L2407.24,1141.13 L2407.55,1142.08 L2408.19,1143.4 L2412.08,1146.13 L2412.36,1146.33 L2413.11,1146.67 L2413.87,1146.82 L2414.67,1146.97 L2415.89,1146.93 L2416.83,1146.9 L2418.23,1146.6 L2420.19,1145.65 L2423.6,1142.56 L2424.93,1141.72 L2427.84,1140.74 L2430.43,1140.68 L2430.43,1140.68 L2432.61,1141.34 L2433.53,1141.62 L2435.38,1142.78 L2436.21,1143.52 L2437.25,1144.71 L2438.53,1146.85 L2439.09,1148.38 L2439.44,1149.92 L2439.92,1150.95 L2442.02,1153.91 L2442.62,1154.46 L2442.78,1154.62 L2442.85,1154.68 L2444.12,1155.45 L2447.52,1156.48 L2449.98,1156.63 L2450.61,1156.67 L2451.54,1156.51 L2454.39,1155.3 L2456.11,1154.17 L2460.2,1152.37 L2461.7,1152.53 L2465.11,1152.88 L2466.43,1153.02 L2467.07,1153.1 L2469.43,1153.41 L2469.63,1153.43 L2470.61,1153.56 L2474.42,1154.92 L2474.44,1154.93 L2477.35,1158.68 L2477.35,1158.68 L2477.35,1158.68 L2477.52,1159.23 L2478.71,1163.68 L2479.05,1167.63 L2479.05,1167.67 L2478.9,1169.44 L2478.89,1169.49 L2478.88,1169.66 L2477.84,1173.21 L2476.89,1175.09 L2473.66,1178.99 L2469.91,1183.52 L2469.4,1184.69 L2468.85,1187.64 L2468.85,1187.66 L2469,1190.33 L2470,1193.12 L2470.05,1193.25 L2470.68,1195 L2470.77,1195.93 L2470.89,1197.1 L2469.28,1201.07 L2468.97,1201.68 L2468.39,1202.82 L2468.15,1203.89 L2468.08,1205.46 L2468.19,1206.71 L2468.84,1208.52 L2469.31,1209.86 L2469.9,1210.66 L2471.01,1212.19 L2472.47,1213.46 L2474.39,1214.74 L2477.88,1216.69 L2480.44,1219.62 L2481.45,1221.25 L2481.97,1222.53 L2482.19,1223.52 L2482.35,1224.92 L2482.4,1225.36 L2482.4,1226.34 L2482.41,1229.95 L2483.18,1232.28 L2484.62,1234.62 L2485.88,1235.93 L2485.89,1235.94 L2490.19,1238.8 L2491.76,1240.48 L2493.11,1242.58 L2493.81,1244.4 L2494.16,1246.25 L2493.8,1249.41 L2493.49,1250.05 L2494.52,1251.33 L2495.55,1252.62 L2495.56,1253.47 L2495.3,1254.08 L2492.9,1257.31 L2491.67,1258.35 L2491.38,1258.47 L2490.88,1258.67 L2489.15,1258.9 L2485.83,1259.8 L2485.81,1259.82 L2485.38,1260.23 L2484.88,1261.61 L2485.11,1262.67 L2487.29,1265.52 L2487.97,1266.78 L2488.29,1267.75 L2488.39,1269.08 L2488.52,1270.88 L2487.64,1274.49 L2487.82,1276.58 L2488.38,1278.62 L2489.47,1280.36 L2489.92,1281.08 L2491.19,1282.36 L2493.61,1283.89 L2494.68,1284.58 L2496.51,1286.46 L2497.25,1287.81 L2498.16,1290.47 L2499.23,1291.95 L2500.44,1293 L2501.75,1293.64 L2501.85,1293.69 L2502.47,1293.82 L2506.27,1294.63 L2508.13,1295.46 L2509.35,1296.51 L2510.12,1297.44 L2511.1,1299.31 L2511.56,1300.6 L2511.75,1303.06 L2511.77,1303.32 L2511.47,1306.07 L2510.32,1308.87 L2510.27,1308.98 L2509.6,1310.05 L2509.48,1310.31 L2508.84,1311.8 L2508.17,1314.67 L2508.09,1316.13 L2508.35,1319.96 L2508.59,1320.89 L2509.19,1323.23 L2509.95,1325.06 L2509.96,1325.07 L2510.38,1325.95 L2511.18,1326.98 L2512.55,1327.94 L2513.03,1328.14 L2513.34,1328.28 L2514.8,1328.63 L2515.24,1328.09 L2517.46,1327.25 L2519.9,1327.46 L2521.7,1328.21 L2523.57,1329.74 L2524.1,1330.46 L2524.65,1331.93 L2524.7,1333.23 L2524.16,1334.61 L2522.93,1336.17 L2520.19,1338.29 L2519.76,1338.62 L2518.88,1340.7 L2518.75,1342.28 L2518.85,1343.05 L2519.23,1343.65 L2520.45,1344.79 L2522.01,1345.42 L2522.39,1345.57 L2523.62,1345.44 L2524.08,1345.16 L2524.68,1344.42 L2525.88,1341.9 L2526.57,1340.8 L2528.93,1339.91 L2529.21,1339.81 L2532.53,1340.04 L2534.4,1340.95 L2535.39,1342.38 L2535.7,1343.4 L2535.63,1344.27 L2535.35,1345.16 L2533.98,1347.54 L2533.23,1349.43 L2533.4,1350.37 L2533.67,1350.88 L2534.72,1351.95 L2534.92,1352.16 L2535.5,1352.44 L2537.53,1352.58 L2538.41,1352.37 L2540.17,1351.54 L2542.3,1351.11 L2543.49,1351.1 L2547.9,1351.91 L2550.41,1353.24 L2551.28,1354.38 L2551.46,1355.14 L2551.37,1356.92 L2550.18,1360.56 L2549.58,1361.92 L2549.11,1362.48 L2547.51,1364.37 L2547.22,1364.91 L2546.94,1366.06 L2547.25,1367.67 L2549.23,1371.63 L2549.37,1373.04 L2549.19,1374.09 L2548.36,1375.63 L2548.3,1375.68 L2547.6,1376.2 L2544.13,1377.34 L2542.75,1378.26 L2542.27,1379.04 L2541.92,1380 L2541.99,1381.45 L2542.62,1382.57 L2543.01,1383.25 L2544.75,1385.22 L2545.71,1386.75 L2546.14,1388.03 L2546.31,1390.85 L2546.5,1391.84 L2546.96,1393.05 L2547.67,1394.21 L2548.54,1395.2 L2549.62,1396.43 L2550.96,1397.32 L2553.09,1398.19 L2555.12,1399.62 L2555.76,1400.31 L2556.83,1401.95 L2557.47,1403.68 L2557.5,1405.25 L2557.12,1406.89 L2556.64,1408.93 L2556.66,1409.47 L2556.67,1409.95 L2557.09,1411.67 L2557.6,1412.85 L2558.7,1414.21 L2560.28,1415.35 L2561.56,1415.9 L2565.25,1416.92 L2566.83,1417.83 L2568.53,1419.49 L2569.2,1420.6 L2569.91,1422.3 L2570.01,1423.55 L2569.47,1425.13 L2567.51,1427.41 L2566.26,1429.42 L2565.86,1431.92 L2566.03,1435.55 L2566.04,1435.69 L2565.57,1437.12 L2564.2,1438.89 L2562.18,1440.01 L2560.53,1440.52 L2560.5,1440.53 L2558.99,1441.58 L2558.45,1442.41 L2557.93,1444.85 L2557.96,1446.12 L2558.18,1447.26 L2559.03,1448.66 L2561.81,1450.11 L2563.36,1450.92 L2565.64,1452.54 L2566.95,1454.36 L2567.46,1455.36 L2567.71,1456.08 L2567.76,1456.83 L2567.55,1457.55 L2566.72,1458.84 L2565.7,1459.58 L2564.85,1460.19 L2562.5,1460.47 L2558.31,1459.51 L2556.34,1460.34 L2554.67,1461.71 L2553.98,1462.9 L2553.76,1463.5 L2553.62,1463.91 L2553.53,1466.04 L2553.52,1466.14 L2553.74,1468.02 L2554.56,1469.36 L2555.47,1470.59 L2556.48,1471.62 L2559.83,1474.52 L2560.38,1475.42 L2561.11,1477.72 L2561.16,1478.67 L2561.21,1479.79 L2560.44,1482.77 L2559.58,1484.36 L2555.71,1488.81 L2555.11,1489.74 L2554.61,1491.36 L2554.57,1492.85 L2554.72,1494.2 L2555.22,1495.83 L2555.56,1496.62 L2555.8,1497.17 L2557.02,1499.15 L2557.08,1499.26 L2557.61,1499.79 L2558.5,1500.68 L2559.35,1501.3 L2563.05,1502.86 L2563.89,1503.55 L2564.56,1504.47 L2564.98,1505.51 L2565.02,1505.6 L2565.22,1506.8 L2565.21,1507.97 L2564.86,1509.14 L2564.17,1510.45 L2563.13,1511.78 L2562.14,1513.05 L2561.63,1514.13 L2561.38,1515.2 L2560.98,1516.98 L2560.77,1519.06 L2560.77,1519.09 L2562.09,1523.51 L2562.72,1524.39 L2564.78,1526.57 L2565.57,1526.59 L2567.23,1527.35 L2568.66,1529.02 L2568.83,1529.21 L2570.27,1530.34 L2571.91,1532.14 L2573.13,1533.16 L2574.74,1533.77 L2576.88,1533.84 L2577.63,1533.49 L2578.06,1533.08 L2578.55,1532.06 L2578.69,1531 L2578.9,1529.98 L2578.68,1528.46 L2579.47,1528.03 L2580.16,1525.79 L2580.86,1521.37 L2580.92,1521.03 L2581.84,1519.84 L2583.09,1519.19 L2584.61,1519.12 L2587.13,1519.92 L2588.62,1521.37 L2590.37,1527.55 L2590.72,1529.91 L2590.74,1531.11 L2590.67,1531.95 L2590.35,1532.81 L2589.71,1533.89 L2589.21,1534.72 L2586.49,1537.48 L2584,1539.39 L2583.07,1540.68 L2582.9,1541.17 L2582.97,1541.71 L2583.82,1543.52 L2583.88,1543.66 L2585.22,1545.72 L2586.06,1546.55 L2587.25,1547.21 L2591.2,1547.96 L2593.52,1548.19 L2596.26,1549.14 L2598.56,1550.6 L2599.46,1550.87 L2601,1550.87 L2604.04,1549.58 L2605.33,1549.54 L2606.82,1549.96 L2607.94,1550.49 L2610.02,1552.19 L2610.94,1553.58 L2611.58,1555.2 L2611.7,1556.6 L2611.5,1557.99 L2611.14,1558.85 L2610.54,1559.74 L2608.58,1561.99 L2608.15,1562.75 L2607.87,1563.71 L2608.12,1566.52 L2608.43,1567.7 L2608.81,1569.19 L2608.86,1570.66 L2608.56,1572.64 L2606.8,1576.41 L2606.62,1577.67 L2606.79,1578.48 L2607.29,1581.01 L2608.99,1584.66 L2609.13,1586.51 L2608.51,1588.54 L2608.5,1588.58 L2607.2,1590.15 L2605.62,1591.34 L2602.39,1592.88 L2601.61,1593.53 L2601.06,1594.53 L2601.09,1595.91 L2601.09,1595.92 L2601.09,1595.95 L2602.13,1598.1 L2603.91,1600.33 L2604.97,1601.29 L2606.08,1602.3 L2606.1,1602.32 L2609.67,1604.66 L2610.02,1604.9 L2611.06,1605.32 L2613.45,1605.66 L2613.75,1605.64 L2617.63,1605.28 L2620.69,1606.09 L2622.3,1607.01 L2623.72,1608.62 L2624.72,1610.69 L2625.65,1615.03 L2625.28,1617.23 L2625.24,1617.43 L2625.24,1617.44 L2624.09,1619.13 L2622.5,1620.55 L2620.03,1621.86 L2616.71,1623.62 L2616.32,1623.3 L2613.83,1621.28 L2614.73,1619.23 L2614.75,1619.19 L2616.19,1615.91 L2616.19,1614.34 L2616.19,1613.57 L2615.73,1613.07 L2611.58,1612.99 L2610.98,1613.29 L2609.51,1614.03 L2608.9,1616.37 L2608.9,1617.08 L2608.9,1619.13 L2609.16,1620.55 L2612.18,1623.28 L2613.24,1624.24 L2613.4,1624.38 L2612.01,1625.04 L2611.55,1625.53 L2611.12,1626.99 L2611.25,1628.8 L2611.26,1628.86 L2611.29,1629.33 L2612.5,1632.67 L2612.71,1633.24 L2613.42,1635.19 L2614.15,1637.19 L2614.29,1638.72 L2614.29,1639.53 L2614.29,1639.53 L2614.29,1639.56 L2613.8,1641.4 L2613.08,1642.94 L2610.32,1647.35 L2610.26,1647.46 L2610.24,1647.54 L2609.51,1650.91 L2609.51,1650.92 L2609.94,1653.4 L2610.74,1655.18 L2610.75,1655.2 L2611.43,1655.99 L2612.16,1656.84 L2613.22,1657.46 L2614.64,1657.72 L2625.05,1656.52 L2627.58,1656.23 L2629.88,1656.69 L2631.79,1657.57 L2633.54,1659.18 L2634.17,1660.84 L2634.23,1661 L2634.35,1661.32 L2634.35,1661.36 L2634.18,1662.82 L2632.94,1664.5 L2631.04,1665 L2627.5,1664.08 L2626.84,1663.72 L2626.18,1663.69 L2625.52,1663.96 L2624.26,1665.1 L2622.92,1666.96 L2622.82,1667.11 L2622.19,1669.01 L2622.19,1669.02 L2622.22,1670.55 L2622.59,1673.19 L2623.43,1675.24 L2623.51,1675.45 L2624.63,1677.39 L2626.1,1679.97 L2626.45,1680.58 L2627.26,1683.18 L2627.26,1683.36 L2627.38,1689.11 L2627.39,1689.54 L2628.02,1692.41 L2628.02,1692.42 L2628.21,1694.46 L2627.85,1696.33 L2627.38,1697.53 L2625.89,1699.5 L2625.08,1700.31 L2623.74,1701.65 L2622.8,1703.33 L2622.5,1705.16 L2622.66,1706.39 L2623.34,1707.88 L2626.13,1710.98 L2628.44,1713.18 L2628.82,1713.77 L2629.06,1714.61 L2629.22,1716.17 L2628.98,1718.54 L2627.26,1721.6 L2626.54,1723.39 L2626.22,1724.65 L2626.31,1725.97 L2626.86,1727.63 L2627,1727.84 L2627.25,1728.22 L2627.95,1729.26 L2628.92,1730.06 L2631.11,1731.4 L2633.47,1732.24 L2634.67,1733.14 L2635.04,1733.41 L2636.59,1734.87 L2637.52,1736.52 L2637.87,1737.53 L2638.09,1738.79 L2637.65,1742.04 L2636.74,1744.01 L2635.31,1747.1 L2634.9,1749.6 L2634.64,1751.17 L2634.8,1753.9 L2635.17,1755.95 L2635.36,1756.98 L2635.75,1758.15 L2636.73,1759.83 L2637.4,1760.68 L2640.86,1763.8 L2642.13,1765.29 L2642.37,1765.76 L2643.11,1767.2 L2643.43,1768.14 L2643.52,1769.75 L2643.16,1771.48 L2642.77,1772.41 L2641.66,1774.09 L2640.61,1775.01 L2639.05,1775.94 L2635.09,1777.01 L2634.59,1777.34 L2634,1777.74 L2633.55,1778.13 L2632.72,1779.46 L2632.48,1780 L2632.25,1781.25 L2632.26,1781.65 L2632.28,1782.18 L2632.39,1782.68 L2632.68,1783.87 L2634.35,1787.14 L2635.53,1791.05 L2635.5,1792.64 L2635.13,1794.54 L2633.59,1797.77 L2633.32,1798.68 L2633.3,1798.93 L2633.18,1800.2 L2633.32,1801.02 L2633.64,1803.07 L2635.93,1808.08 L2636.3,1809.16 L2636.39,1810.68 L2636.41,1810.97 L2636.1,1812.45 L2635.62,1813.46 L2635.05,1814.2 L2633.91,1815.51 L2632.81,1816.45 L2631.04,1817.59 L2628.47,1818.64 L2626.08,1819.87 L2625.11,1820.64 L2623.47,1822.37 L2622.14,1824.36 L2621.27,1826.54 L2620.69,1828.75 L2620.63,1830.44 L2621.65,1834.53 L2622.28,1835.87 L2624.05,1837.12 L2624.55,1837.19 L2625.94,1837.81 L2628.05,1838.92 L2629.14,1839.49 L2630.95,1841.54 L2631.09,1841.69 L2631.89,1843.26 L2632.06,1843.74 L2632.44,1844.76 L2632.98,1849.17 L2633.25,1849.97 L2633.3,1850.1 L2633.33,1850.21 L2633.92,1851.11 L2635.37,1852.25 L2635.49,1852.34 L2635.99,1852.73 L2636.98,1853.5 L2637.37,1853.72 L2637.37,1853.72 L2639.65,1855.01 L2642.17,1855.64 L2645.01,1855.9 L2647.55,1856.85 L2649.28,1857.99 L2650.12,1858.8 L2651.47,1860.31 L2653.1,1862.52 L2653.69,1863.66 L2654.08,1864.41 L2654.52,1865.58 L2654.77,1867.14 L2654.81,1868.59 L2654.87,1871.27 L2655.21,1872.47 L2655.81,1873.41 L2656.51,1874.05 L2658.34,1875.32 L2659.82,1876.67 L2660.3,1877.1 L2660.75,1877.95 L2661.06,1879.27 L2660.99,1880.56 L2660.65,1881.66 L2659.76,1883.26 L2658.1,1884.73 L2656.15,1886.16 L2655.32,1886.88 L2653.88,1888.81 L2653.54,1890.57 L2654.39,1893.4 L2656.33,1896.89 L2656.68,1898.05 L2656.81,1899.21 L2656.74,1900.16 L2656.43,1901.14 L2655.36,1903.18 L2655.11,1904.58 L2655.27,1905.54 L2655.79,1906.51 L2656.96,1907.72 L2658.61,1908.62 L2661.04,1909.27 L2664.34,1909.4 L2666.09,1908.83 L2667.81,1907.95 L2668.6,1907.81 L2670.95,1908.16 L2672.2,1909.45 L2672.6,1910.3 L2675.88,1907.68 L2676.5,1905.92 L2675.86,1904.45 L2676.03,1901.36 L2676.55,1899.24 L2676.76,1896.88 L2678.79,1895.47 L2681.21,1894.75 L2683.21,1894.73 L2685.02,1896.98 L2686,1899.53 L2687.8,1900.8 L2688.5,1902.59 L2688.83,1904.02 L2688.1,1908.12 L2687.85,1909.54 L2686.12,1911.91 L2684.3,1912.8 L2677.36,1915.39 L2676.34,1916.02 L2675.08,1916.48 L2676.24,1918.83 L2676.59,1920.9 L2676.44,1923.56 L2676.17,1925.25 L2676.01,1926.49 L2676.12,1927.61 L2676.62,1929.29 L2677.05,1930.07 L2678.78,1931.63 L2679.58,1932.36 L2681.65,1933.57 L2683.22,1934.88 L2685.04,1936.97 L2687.12,1940.49 L2687.24,1940.93 L2687.27,1941.02 L2687.86,1943.2 L2687.67,1945.46 L2687.09,1947.06 L2686.39,1949.22 L2686.18,1950.31 L2686.85,1953.06 L2688.98,1956.67 L2689.65,1957.81 L2691.23,1961.33 L2691.75,1964.58 L2691.59,1965.81 L2691.67,1967.77 L2692.07,1969.06 L2692.66,1970.03 L2693.23,1970.97 L2694.82,1972.5 L2695.99,1974.09 L2696.08,1974.21 L2696.73,1975.53 L2696.74,1975.56 L2697.06,1976.57 L2697.35,1978.72 L2697.21,1979.67 L2696.63,1981.21 L2695.27,1982.45 L2694.15,1983.1 L2690.08,1984.51 L2688.41,1985.63 L2687.58,1986.81 L2687.25,1988.2 L2687.17,1989.37 L2687.37,1990.07 L2688.25,1991.18 L2689.05,1991.64 L2690.83,1992.02 L2691.72,1991.89 L2693.43,1991.27 L2697.21,1989.46 L2698.73,1988.98 L2700.01,1988.79 L2700.89,1988.89 L2702.42,1989.42 L2704.28,1990.46 L2704.52,1990.7 L2705.75,1991.96 L2706.73,1992.96 L2707.54,1993.55 L2709.15,1994.33 L2713.08,1994.5 L2714.8,1995.17 L2715.79,1995.77 L2717.36,1997.51 L2717.84,1998.45 L2718.03,1999.48 L2717.88,2001.33 L2716.5,2005.22 L2716.48,2006.37 L2716.92,2007.6 L2717.06,2008 L2717.59,2008.56 L2720.11,2009.02 L2722.74,2010.43 L2725.75,2012.63 L2726.66,2013.03 L2728.08,2013.37 L2730.62,2013.48 L2732.64,2013.2 L2734.62,2013.22 L2735.5,2013.45 L2736.75,2013.88 L2737.68,2014.47 L2739.2,2015.81 L2740.63,2018.32 L2741.26,2020.3 L2741.45,2021.4 L2741.35,2023.82 L2740.96,2025.39 L2740.36,2026.84 L2739.07,2028.67 L2737.81,2031.68 L2737.69,2032.93 L2737.75,2034.84 L2738.04,2035.79 L2738.19,2036.26 L2738.72,2037.35 L2739.55,2038.73 L2741.06,2040.64 L2741.54,2041.11 L2744.03,2043.56 L2745.71,2044.54 L2749.2,2045.79 L2749.81,2046.16 L2751.06,2047.51 L2751.51,2048.52 L2751.79,2049.69 L2751.92,2052.26 L2752.27,2054.18 L2752.6,2055.16 L2753.25,2056.23 L2754.4,2057.29 L2756.01,2058.11 L2758.81,2058.31 L2760.27,2058.7 L2761.92,2059.68 L2762.88,2061.04 L2763.46,2062.4 L2763.53,2062.99 L2763.6,2063.65 L2763.59,2064.13 L2763.56,2064.86 L2763.54,2065.43 L2763.21,2066.53 L2762.36,2067.69 L2761.5,2068.42 L2759.35,2070.38 L2758.47,2072.83 L2758.88,2075.61 L2759.1,2077.49 L2758.7,2079.31 L2758.61,2079.42 L2757.29,2081.01 L2756.25,2082.26 L2755.59,2083.73 L2755.3,2085.1 L2755.71,2087.53 L2755.97,2089.06 L2756.69,2091.02 L2757.62,2092.83 L2759.45,2094.83 L2760.77,2095.79 L2762.73,2096.74 L2763.98,2097.11 L2765.23,2097.22 L2766.45,2097.09 L2771.92,2095.44 L2773.97,2095.43 L2776.3,2096.27 L2776.94,2096.65 L2779.92,2100.1 L2782.15,2101.4 L2785.17,2102.32 L2785.96,2102.75 L2786.84,2103.76 L2787.15,2104.36 L2787.92,2106.47 L2787.97,2107.29 L2782.74,2107.29 L2778.86,2107.29 L2770.58,2107.29 L2768.67,2107.29 L2757.3,2107.28 L2757.28,2107.28 L2755.4,2107.27 L2755.4,2107.27 L2754.01,2107.27 L2753.93,2107.27 L2751.17,2107.27 L2751.16,2107.27 L2750.44,2107.27 L2750.42,2107.27 L2746.54,2107.26 L2745.62,2107.26 L2745.61,2107.26 L2743.38,2107.26 L2743.36,2107.26 L2743.17,2107.26 L2715.96,2107.21 L2713.88,2107.21 L2713.88,2107.21 L2686.98,2107.17 L2683.33,2107.17 L2682.86,2107.17 L2650.72,2107.12 L2650.7,2107.12 L2649.7,2107.12 L2649.68,2107.12 L2639.88,2107.12 L2622.47,2107.12 L2622.45,2107.12 L2618.18,2107.11 L2616.98,2107.11 L2600.67,2107.1 L2596.4,2107.08 L2585.53,2107.05 L2584.37,2107.04 L2581.66,2107.02 L2573.71,2107.02 L2565.15,2107.07 L2562.73,2107.1 L2552.9,2107.12 L2552.35,2107.12 L2552.31,2107.13 L2552.26,2107.13 L2546.19,2107.11 L2544.15,2107.12 L2544.12,2107.11 L2544.11,2107.11 L2538.85,2107.08 L2525.15,2107.02 L2524.09,2107.02 L2520.25,2107.03 L2519.67,2107.03 L2519.66,2107.03 L2501.83,2107.06 L2500.83,2107.06 L2490.1,2107.03 L2487.53,2107.02 L2487.2,2107.02 L2486.35,2107.02 L2454.98,2106.93 L2454.96,2106.93 L2454.95,2106.93 L2453.85,2106.9 L2453.16,2106.93 L2444.1,2106.92 L2438.63,2106.91 L2436.68,2106.9 L2435.94,2106.92 L2433.26,2106.97 L2428.92,2106.94 L2427.82,2106.93 L2427.8,2106.93 L2427.79,2106.93 L2426.1,2106.91 L2424.07,2106.88 L2422.37,2106.91 L2421.19,2106.93 L2420.92,2106.93 L2419.78,2106.94 L2416.99,2106.95 L2415.29,2106.95 L2414.27,2106.96 L2412.69,2106.96 L2411.51,2106.93 L2409.22,2106.86 L2405.99,2106.85 L2397.93,2106.84 L2397.33,2106.84 L2395.19,2106.84 L2389.76,2106.83 L2388.75,2106.83 L2388.1,2106.83 L2357.11,2106.78 L2356.37,2106.78 L2336.76,2106.75 L2336.4,2106.75 L2335.48,2106.74 L2334.84,2106.75 L2324.57,2106.73 L2324.48,2106.73 L2323.89,2106.73 L2323.67,2106.73 L2320.37,2106.73 L2305.24,2106.74 L2297.74,2106.74 L2297.44,2106.74 L2296.61,2106.75 L2291.89,2106.79 L2291.51,2106.79 L2291.47,2106.79 L2286.07,2106.8 L2260.65,2106.61 L2259.49,2106.72 L2259.33,2106.73 L2258.84,2106.73 L2247.99,2106.71 L2242.69,2106.71 L2242.07,2106.75 L2229.75,2106.74 L2229.72,2106.72 L2226.62,2106.71 L2226.44,2106.7 L2199.43,2106.55 L2199.25,2106.57 L2194,2106.52 L2193.97,2106.52 L2193.97,2106.52 L2183.12,2106.54 L2180.53,2106.54 L2179.96,2106.53 L2177.76,2106.52 L2174.97,2106.54 L2172.22,2106.56 L2166.86,2106.52 L2161.65,2106.55 L2157.26,2106.58 L2156.11,2106.59 L2153.32,2106.6 L2152.99,2106.58 L2151.86,2106.58 L2129.26,2106.57 L2124.06,2106.56 L2123.41,2106.56 L2120.72,2106.56 L2107.09,2106.56 L2096.61,2106.55 L2079.91,2106.54 L2079.1,2106.54 L2078.68,2106.54 L2078.32,2106.55 L2078.23,2106.55 L2076.39,2106.48 L2064.26,2106.56 L2064.21,2106.56 L2063.61,2106.54 L2063.58,2106.54 L2060.34,2106.56 L2058.75,2106.57 L2058.2,2106.57 L2053.25,2106.52 L2049.52,2106.51 L2047.83,2106.5 L2031.82,2106.52 L2031.81,2106.52 L2020.18,2106.5 L2015.5,2106.49 L2009.24,2106.48 L2009.24,2106.48 L2008.01,2106.46 L1999.84,2106.47 L1998.48,2106.47 L1998.42,2106.47 L1997.74,2106.44 L1992.36,2106.41 L1990.25,2106.43 L1987.02,2106.44 L1983.44,2106.45 L1971.23,2106.37 L1966.96,2106.37 L1962.51,2106.38 L1960.48,2106.36 L1956.4,2106.31 L1950.76,2106.35 L1940.11,2106.42 L1934.86,2106.36 L1933.19,2106.35 L1899.22,2106.39 L1892.51,2106.39 L1870.78,2106.42 L1868.15,2106.42 L1866.77,2106.42 L1861.41,2106.41 L1855.61,2106.43 L1850.59,2106.44 L1846.37,2106.36 L1841.15,2106.36 L1835.27,2106.39 L1834.5,2106.39 L1827.5,2106.35 L1824.1,2106.45 L1823.71,2106.44 L1819.13,2106.39 L1818.24,2106.4 L1813.21,2106.33 L1812.87,2106.35 L1812.4,2106.4 L1807.41,2106.47 L1802.83,2106.46 L1802.81,2106.46 L1801.97,2106.45 L1788.81,2106.41 L1788.16,2106.41 L1775.65,2106.42 L1771.65,2106.4 L1769.33,2106.41 L1758.65,2106.43 L1742.74,2106.46 L1737.59,2106.45 L1737.23,2106.45 L1735.21,2106.44 L1735.18,2106.42 L1732.09,2106.44 L1731.93,2106.45 L1726.21,2106.47 L1718.55,2106.42 L1718.08,2106.44 L1704.89,2106.48 L1704.62,2106.48 L1699.27,2106.49 L1691.23,2106.47 L1688.48,2106.48 L1675,2106.57 L1672.36,2106.55 L1672.31,2106.55 L1672.3,2106.55 L1670.05,2106.55 L1669.49,2106.53 L1666.99,2106.53 L1666.93,2106.53 L1661.58,2106.53 L1661.51,2106.53 L1656.13,2106.55 L1651.78,2106.56 L1650.73,2106.51 L1642.38,2106.59 L1641.32,2106.53 L1640.15,2106.56 L1640.09,2106.56 L1639.82,2106.56 L1618.23,2106.55 L1612.96,2106.55 L1607.68,2106.55 L1607.31,2106.56 L1605.01,2106.59 L1604.6,2106.57 L1601.86,2106.44 L1585.38,2106.56 L1581.71,2106.56 L1580.5,2106.57 L1580.12,2106.56 L1579.31,2106.53 L1575.41,2106.54 L1574.69,2106.54 L1556.58,2106.57 L1548.31,2106.58 L1543.71,2106.59 L1543.52,2106.59 L1542.86,2106.59 L1542.84,2106.59 L1516.53,2106.61 L1512.97,2106.61 L1510.32,2106.61 L1508.75,2106.61 L1505.8,2106.79 L1503.68,2106.71 L1501.4,2106.61 L1500.38,2106.67 L1489.5,2106.77 L1484.08,2106.76 L1478.93,2106.75 L1477.63,2106.75 L1462.62,2106.72 L1455.77,2106.72 L1451.74,2106.7 L1450.66,2106.61 L1447.91,2106.64 L1439.58,2106.71 L1438.33,2106.73 L1426.42,2106.72 L1423.33,2106.72 L1412.46,2106.71 L1407.13,2106.71 L1399.05,2106.7 L1397.81,2106.7 L1396.16,2106.7 L1393.67,2106.7 L1384.47,2106.69 L1384.47,2106.69 L1381.48,2106.71 L1380.86,2106.7 L1379.92,2106.7 L1378.95,2106.73 L1373.63,2106.68 L1369.58,2106.66 L1368.95,2106.68 L1352.1,2106.66 L1347.18,2106.65 L1323.29,2106.61 L1319.72,2106.62 L1314.66,2106.62 L1309.17,2106.63 L1306.86,2106.62 L1303.84,2106.63 L1302.14,2106.64 L1300.61,2106.64 L1298.57,2106.63 L1298.23,2106.63 L1295.31,2106.63 L1288.42,2106.6 L1287.45,2106.6 L1282.12,2106.59 L1281.9,2106.59 L1276.65,2106.58 L1272.23,2106.58 L1264.3,2106.55 L1262.98,2106.57 L1262.51,2106.58 L1260.22,2106.58 L1255.07,2106.58 L1254.97,2106.58 L1249.69,2106.58 L1249.55,2106.58 L1245.43,2106.48 L1244.02,2106.47 L1238.74,2106.45 L1236.37,2106.47 L1233.18,2106.48 L1227.87,2106.51 L1225.34,2106.5 L1224.37,2106.44 L1222.77,2106.45 L1219.66,2106.48 L1218.92,2106.49 L1217.01,2106.43 L1184.66,2106.46 L1165.53,2106.49 L1158.37,2106.47 L1151.87,2106.46 L1139.52,2106.44 L1130.11,2106.42 L1119.24,2106.4 L1109.77,2106.38 L1098.87,2106.33 L1095.96,2106.36 L1093.63,2106.36 L1092.1,2106.36 L1086.89,2106.34 L1085.52,2106.33 L1075.82,2106.34 L1064.91,2106.33 L1062.76,2106.33 L1054.1,2106.28 L1053.68,2106.28 L1048.68,2106.32 L1039.61,2106.34 L1029.34,2106.41 L1029.03,2106.4 L1027.25,2106.38 L994.362,2106.32 L991.202,2106.31 L980.433,2106.29 L975.196,2106.29 L967.125,2106.27 L966.762,2106.31 L931.769,2106.27 L921.7,2106.26 L915.518,2106.26 L914.704,2106.24 L913.229,2106.23 L907.65,2106.19 L905.095,2106.25 L899.125,2106.2 L886.894,2106.1 L883.285,2106.11 L844.362,2106.13 L844.33,2083 L844.287,2051.41 L844.314,2046.01 L844.318,2020.91 L844.31,2018.59 L844.363,2007.07 L844.487,1979.66 L844.417,1975.56 L844.346,1971.46 L844.411,1958.97 L844.334,1957.71 L844.334,1957.65 L844.442,1941.2 L844.426,1910.86 L844.367,1904.13 L844.431,1862.92 L844.461,1843.49 L844.492,1823.69 L844.49,1821.28 L844.484,1815.7 L844.415,1743.66 L844.399,1727.34 L844.369,1727.34 L838.927,1727.32 L823.256,1727.35 L804.164,1727.36 L799.013,1727.31 L798.933,1727.31 L798.115,1727.3 L792.428,1727.36 L790.05,1727.35 L784.384,1727.34 L782.086,1727.33 L782.028,1727.34 L780.85,1727.39 L775.301,1727.4 L774.955,1727.4 L774.935,1727.39 L774.874,1727.4 L759.876,1727.41 L754.343,1727.41 L749.868,1727.37 L749.688,1727.36 L724.035,1727.32 L723.656,1727.33 L718.636,1727.31 L710.073,1727.35 L698.796,1727.4 L696.128,1727.4 L693.405,1727.4 L693.335,1727.38 L692.482,1727.37 L680.28,1727.25 L670.933,1727.35 L647.229,1727.39 L646.099,1727.39 L641.778,1727.34 L638.289,1727.38 L636.322,1727.32 L630.769,1727.36 L620.835,1727.43 L619.964,1727.35 L615.308,1727.38 L614.499,1727.37 L609.737,1727.48 L609.15,1727.41 L604.029,1727.43 L603.984,1727.43 L603.505,1727.41 L598.493,1727.4 L598.47,1727.4 L597.989,1727.37 L592.95,1727.43 L592.506,1727.37 L587.451,1727.46 L586.955,1727.36 L582.691,1727.44 L582.379,1727.46 L581.855,1727.45 L581.525,1727.41 L576.39,1727.44 L576.042,1727.42 L571.024,1727.33 L570.469,1727.29 L559.898,1727.38 L558.532,1727.35 L554.337,1727.34 L553.893,1727.34 L548.994,1727.38 L548.629,1727.37 L482.787,1727.51 L466.435,1727.54 L465.762,1727.54 L460.811,1727.39 L456.632,1727.27 L449.445,1727.49 L449.431,1727.48 L430.777,1727.51 L427.678,1727.62 L416.887,1727.6 L405.679,1727.59 L405.463,1727.59 L400.233,1727.57 L354.743,1727.46 L351.042,1727.48 L323.629,1727.6 L318.004,1727.61 L312.747,1727.58 L309.831,1727.71 L307.375,1727.7 L296.227,1727.63 L291.082,1727.66 L290.717,1727.63 L279.672,1727.63 L277.579,1727.63 L276.092,1727.52 L271.522,1727.67 L267.484,1727.71 L267.51,1721.82 L267.528,1721.35 L267.505,1693.95 L267.548,1693.74 L267.532,1688.12 L267.515,1684.5 L267.407,1668.12 L267.435,1663.03"/>
  </g>
  <g stroke-width="1" transform="matrix(0.999744,0,0,0.999744,0,0)" stroke-opacity="1" font-size="34.5833" fill="none" stroke-linejoin="bevel" font-style="normal" stroke-linecap="square" stroke="#000000" font-family="MS Shell Dlg 2" font-weight="400"/>
  <g stroke-width="1" transform="matrix(11.808,0,0,11.808,0,0)" stroke-opacity="1" font-size="34.5833" fill="none" stroke-linejoin="bevel" font-style="normal" stroke-linecap="square" stroke="#000000" font-family="MS Shell Dlg 2" font-weight="400"/>
  <g stroke-width="1" transform="matrix(11.808,0,0,11.808,0,0)" stroke-opacity="1" font-size="34.5833" fill="none" stroke-linejoin="bevel" font-style="normal" stroke-linecap="square" stroke="#000000" font-family="MS Shell Dlg 2" font-weight="400"/>
  <g stroke-width="1" transform="matrix(11.808,0,0,11.808,0,0)" stroke-opacity="1" font-size="34.5833" fill="none" stroke-linejoin="bevel" font-style="normal" stroke-linecap="square" stroke="#000000" font-family="MS Shell Dlg 2" font-weight="400"/>
  <g stroke-width="1" transform="matrix(1,0,0,1,0,0)" stroke-opacity="1" font-size="34.5833" fill="none" stroke-linejoin="bevel" font-style="normal" stroke-linecap="square" stroke="#000000" font-family="MS Shell Dlg 2" font-weight="400"/>
  <g stroke-width="1" transform="matrix(11.808,0,0,11.808,0,0)" stroke-opacity="1" font-size="34.5833" fill="none" stroke-linejoin="bevel" font-style="normal" stroke-linecap="square" stroke="#000000" font-family="MS Shell Dlg 2" font-weight="400"/>
  <g stroke-width="1" transform="matrix(11.808,0,0,11.808,0,0)" stroke-opacity="1" font-size="34.5833" fill="none" stroke-linejoin="bevel" font-style="normal" stroke-linecap="square" stroke="#000000" font-family="MS Shell Dlg 2" font-weight="400"/>
  <g stroke-width="1" transform="matrix(11.808,0,0,11.808,0,0)" stroke-opacity="1" font-size="34.5833" fill="none" stroke-linejoin="bevel" font-style="normal" stroke-linecap="square" stroke="#000000" font-family="MS Shell Dlg 2" font-weight="400"/>
  <g stroke-width="1" transform="matrix(11.808,0,0,11.808,0,0)" stroke-opacity="1" font-size="34.5833" fill="none" stroke-linejoin="bevel" font-style="normal" stroke-linecap="square" stroke="#000000" font-family="MS Shell Dlg 2" font-weight="400"/>
  <g stroke-width="1" transform="matrix(1,0,0,1,0,0)" stroke-opacity="1" font-size="34.5833" fill="none" stroke-linejoin="bevel" font-style="normal" stroke-linecap="square" stroke="#000000" font-family="MS Shell Dlg 2" font-weight="400"/>
 </g>
</svg>
