<?xml version='1.0' encoding='UTF-8' standalone='no'?>
<svg xmlns:xlink="http://www.w3.org/1999/xlink" baseProfile="tiny" xmlns="http://www.w3.org/2000/svg" height="249.936mm" viewBox="0 0 2952 2952" width="249.936mm" version="1.2">
 <title>Qt SVG Document</title>
 <desc>Generated with Qt</desc>
 <defs/>
 <g stroke-width="1" fill-rule="evenodd" fill="none" stroke-linejoin="bevel" stroke-linecap="square" stroke="black">
  <g stroke-width="1" transform="matrix(1,0,0,1,0,0)" stroke-opacity="1" font-size="34.5833" fill="none" stroke-linejoin="bevel" font-style="normal" stroke-linecap="square" stroke="#000000" font-family="MS Shell Dlg 2" font-weight="400"/>
  <g stroke-width="1" transform="matrix(1,0,0,1,0,0)" stroke-opacity="1" font-size="34.5833" fill="none" stroke-linejoin="bevel" font-style="normal" stroke-linecap="square" stroke="#000000" font-family="MS Shell Dlg 2" font-weight="400"/>
  <g stroke-width="1" transform="matrix(11.808,0,0,11.808,0,0)" stroke-opacity="1" font-size="34.5833" fill="none" stroke-linejoin="bevel" font-style="normal" stroke-linecap="square" stroke="#000000" font-family="MS Shell Dlg 2" font-weight="400"/>
  <g stroke-width="1" transform="matrix(0.999744,0,0,0.999744,0,0)" stroke-opacity="1" font-size="34.5833" fill="none" stroke-linejoin="bevel" font-style="normal" stroke-linecap="square" stroke="#000000" font-family="MS Shell Dlg 2" font-weight="400"/>
  <g transform="matrix(0.999744,0,0,0.999744,0,0)" font-size="34.5833" fill-opacity="0" fill="#ffffff" font-style="normal" stroke="none" font-family="MS Shell Dlg 2" font-weight="400">
   <path fill-rule="evenodd" vector-effect="none" d="M-2,-2 L2955,-2 L2955,2955 L-2,2955 L-2,-2"/>
  </g>
  <g stroke-width="1" transform="matrix(0.999744,0,0,0.999744,0,0)" stroke-opacity="1" font-size="34.5833" fill="none" stroke-linejoin="bevel" font-style="normal" stroke-linecap="square" stroke="#000000" font-family="MS Shell Dlg 2" font-weight="400"/>
  <g stroke-width="1" transform="matrix(11.808,0,0,11.808,0,0)" stroke-opacity="1" font-size="34.5833" fill="none" stroke-linejoin="bevel" font-style="normal" stroke-linecap="square" stroke="#000000" font-family="MS Shell Dlg 2" font-weight="400"/>
  <g stroke-width="1" transform="matrix(11.808,0,0,11.808,0,0)" stroke-opacity="1" font-size="34.5833" fill="none" stroke-linejoin="bevel" font-style="normal" stroke-linecap="square" stroke="#000000" font-family="MS Shell Dlg 2" font-weight="400"/>
  <g stroke-width="1" transform="matrix(11.808,0,0,11.808,0,0)" stroke-opacity="1" font-size="34.5833" fill="none" stroke-linejoin="bevel" font-style="normal" stroke-linecap="square" stroke="#000000" font-family="MS Shell Dlg 2" font-weight="400"/>
  <g stroke-width="1" transform="matrix(11.808,0,0,11.808,0,0)" stroke-opacity="1" font-size="34.5833" fill="none" stroke-linejoin="bevel" font-style="normal" stroke-linecap="square" stroke="#000000" font-family="MS Shell Dlg 2" font-weight="400"/>
  <g stroke-width="1" transform="matrix(11.808,0,0,11.808,0,0)" stroke-opacity="1" font-size="34.5833" fill="none" stroke-linejoin="bevel" font-style="normal" stroke-linecap="square" stroke="#000000" font-family="MS Shell Dlg 2" font-weight="400"/>
  <g transform="matrix(11.808,0,0,11.808,0,0)" font-size="34.5833" fill-opacity="0" fill="#ffffff" font-style="normal" stroke="none" font-family="MS Shell Dlg 2" font-weight="400">
   <path fill-rule="evenodd" vector-effect="none" d="M0,0 L250,0 L250,250 L0,250 L0,0"/>
  </g>
  <g stroke-width="1" transform="matrix(11.808,0,0,11.808,0,0)" stroke-opacity="1" font-size="34.5833" fill="none" stroke-linejoin="bevel" font-style="normal" stroke-linecap="square" stroke="#000000" font-family="MS Shell Dlg 2" font-weight="400"/>
  <g stroke-width="1" transform="matrix(11.808,0,0,11.808,0,0)" stroke-opacity="1" font-size="34.5833" fill="none" stroke-linejoin="bevel" font-style="normal" stroke-linecap="square" stroke="#000000" font-family="MS Shell Dlg 2" font-weight="400"/>
  <g transform="matrix(0.999744,0,0,0.999744,0,0)" font-size="34.5833" fill-opacity="0" fill="#000000" font-style="normal" stroke="none" font-family="MS Shell Dlg 2" font-weight="400">
   <rect x="0" height="2953" width="2953" y="0"/>
  </g>
  <g stroke-width="1" transform="matrix(0.999744,0,0,0.999744,0,0)" stroke-opacity="1" font-size="34.5833" fill="none" stroke-linejoin="bevel" font-style="normal" stroke-linecap="square" stroke="#000000" font-family="MS Shell Dlg 2" font-weight="400"/>
  <g stroke-width="3.07087" transform="matrix(0.999744,0,0,0.999744,0,0)" stroke-opacity="1" font-size="34.5833" fill-opacity="1" fill="#c5c5c5" stroke-linejoin="bevel" font-style="normal" stroke-linecap="square" stroke="#5c5c5c" font-family="MS Shell Dlg 2" font-weight="400">
   <path fill-rule="evenodd" vector-effect="none" d="M300.056,2017.45 L301.289,2018.59 L302.394,2018.43 L303.63,2017.57 L304.498,2016.35 L304.93,2014.6 L305.948,2013.24 L305.802,2012.15 L307.139,2011.04 L308.324,2008.83 L308.926,2005.9 L308.408,2004.85 L308.881,2003.6 L310.101,2003.32 L310.731,2001.94 L311.509,2001.76 L319.012,1986.7 L324.659,1973.04 L325.042,1971.9 L330.047,1956.99 L332.091,1950.19 L334.162,1942.63 L334.677,1940.75 L337.817,1924.85 L338.271,1920.76 L337.682,1919.01 L338.371,1917.5 L338.401,1917.43 L338.598,1916.39 L338.982,1914.35 L338.123,1911.41 L338.652,1909.85 L338.569,1908.71 L338.308,1908.49 L337.331,1907.65 L337.471,1907.54 L338.331,1906.86 L338.34,1906.85 L339.859,1904.66 L340.347,1903.95 L341.105,1902.86 L341.371,1902.48 L347.955,1879.08 L349.844,1868.51 L349.833,1868.45 L349.232,1865.07 L349.754,1863.34 L353.621,1844.66 L353.133,1843.6 L352.262,1841.71 L351.73,1836.44 L350.231,1832.91 L349.775,1831.71 L348.344,1831.75 L347.635,1830.24 L350.185,1826.29 L351.486,1823.23 L352.097,1822.11 L352.787,1821.4 L352.991,1819.33 L355.227,1818.77 L356.392,1816.86 L362.187,1815.36 L365.153,1811.78 L365.235,1811.65 L368.852,1805.7 L373.457,1796.87 L381.726,1777.47 L383.909,1771.14 L384.276,1770.07 L390.927,1750.78 L397.863,1726.35 L397.878,1726.27 L401.703,1706.64 L403.024,1699.86 L404.184,1689.41 L404.281,1688.85 L404.647,1686.73 L405.416,1684.01 L405.416,1683 L405.416,1681 L407.217,1674.68 L409.157,1667.94 L409.051,1667.72 L413.844,1643.07 L416.528,1626.07 L417.721,1616.86 L419.419,1603.74 L421.908,1584.51 L423.729,1565.08 L425.419,1550 L425.757,1542.53 L425.785,1540.97 L425.827,1538.68 L426.618,1530.86 L427.689,1521.11 L429.117,1510.1 L429.118,1510.09 L429.64,1504.78 L429.21,1502.57 L429.608,1501.27 L429.737,1500.12 L428.729,1499.07 L428.527,1498.15 L429.096,1496.47 L429.669,1493.2 L429.083,1492.41 L428.197,1491.79 L428.63,1491.11 L429.258,1490.01 L430.024,1489.75 L431.689,1477.7 L431.774,1471.94 L432.025,1470.08 L432.449,1466.94 L432.082,1463.5 L432.362,1459.33 L432.805,1457.26 L433.44,1451.79 L432.884,1448.64 L432.188,1447.32 L432.487,1445.91 L433.255,1443.44 L433.23,1441.36 L434.06,1439.31 L433.825,1437.21 L432.318,1436.33 L431.999,1435.55 L432.37,1434.91 L432.791,1434.19 L432.994,1433.2 L433.217,1432.11 L433.236,1432.02 L432.221,1430.68 L432.572,1429.3 L432.767,1428.54 L432.911,1427.97 L433.215,1426.78 L433.517,1425.59 L434.023,1423.6 L434.031,1423.53 L434.308,1421.09 L434.312,1421.05 L433.88,1419.15 L434.027,1417.57 L434.774,1416.15 L435.353,1414.77 L436.518,1412.01 L438.857,1396.1 L438.907,1395.68 L439.642,1389.51 L440.457,1382.66 L440.552,1381.87 L441.122,1376.38 L441.195,1375.68 L441.401,1372.69 L441.484,1371.48 L441.48,1367.53 L441.488,1366.47 L441.551,1358.29 L441.595,1352.45 L441.599,1351.89 L441.27,1348.19 L441.487,1342.98 L441.514,1342.34 L442.442,1337.49 L442.612,1336.61 L443.162,1333.74 L443.173,1333.65 L443.279,1332.8 L443.635,1329.93 L443.926,1329.77 L445.097,1318.04 L445.376,1315.25 L445.635,1312.65 L446.333,1305.66 L446.587,1303.12 L446.556,1302.54 L446.546,1302.36 L446.499,1301.5 L446.322,1298.21 L445.901,1296.67 L445.767,1296.17 L445.886,1295.22 L445.974,1294.53 L445.989,1294.41 L446.028,1294.1 L446.587,1292.36 L446.492,1291.27 L446.383,1290.03 L446.982,1288.11 L447.486,1285.33 L447.831,1283.43 L448.951,1277.26 L448.96,1277.21 L448.442,1272.87 L448.361,1272.77 L447.624,1271.84 L447.426,1271.59 L446.553,1271.34 L444.311,1271.29 L443.153,1270.27 L442.794,1269.63 L443.315,1269.55 L444.922,1269.33 L445.971,1267.19 L446.529,1264.06 L446.856,1262.23 L447.453,1258.88 L448.247,1254.83 L448.497,1253.56 L449.072,1245.64 L448.884,1243.21 L448.405,1241.54 L448.152,1241.46 L447.125,1241.15 L447.038,1241.12 L447.196,1240.13 L447.193,1237.98 L446.303,1235.7 L446.069,1235.1 L446.594,1234.25 L445.761,1232.12 L443.904,1230.63 L444.102,1228.41 L444.165,1227.7 L444.269,1226.53 L444.562,1223.23 L444.628,1222.49 L444.609,1221.14 L444.323,1219.6 L444.318,1219.57 L446.065,1217.14 L446.088,1217.11 L446.267,1216.86 L447.356,1216.58 L447.398,1214.86 L447.399,1214.82 L447.426,1213.72 L447.346,1213.67 L446.136,1212.95 L446.169,1211.4 L446.181,1210.85 L446.186,1210.6 L446.231,1208.56 L446.294,1208 L446.302,1207.93 L446.482,1206.34 L446.507,1206.11 L448.146,1204.51 L448.721,1204.06 L450.175,1202.93 L450.291,1202.57 L451.744,1198.05 L452.6,1194.34 L456.602,1176.97 L458.616,1166.1 L458.708,1165.6 L458.625,1163.8 L458.548,1162.12 L458.753,1160.04 L459.059,1156.93 L459.091,1156.61 L460.07,1151.28 L461.051,1145.94 L461.074,1145.82 L461.617,1142.86 L461.85,1141.02 L462.254,1137.84 L462.555,1135.46 L462.577,1135.29 L463.317,1129.45 L463.401,1128.79 L463.105,1125.84 L462.517,1124.88 L462.631,1122.6 L462.67,1121.82 L463.321,1121.01 L464.256,1119.85 L464.481,1117.88 L463.488,1117.02 L463.433,1116.98 L463.227,1116.08 L461.686,1115.79 L460.809,1115.02 L461.438,1108.8 L462.523,1103.73 L464.319,1100.48 L464.67,1100.69 L467.031,1098.22 L469.18,1096.6 L469.726,1093.78 L472.762,1078.09 L473.103,1076.33 L473.328,1075.16 L474.083,1069.28 L474.787,1063.8 L475.317,1054.39 L475.443,1052.15 L475.456,1051.91 L475.346,1051.37 L474.179,1045.68 L473.009,1044.35 L474.532,1041.21 L474.872,1038.16 L476.804,1020.81 L477.015,1018.91 L477.014,1018.86 L476.88,1013.41 L476.647,1003.9 L476.638,1003.52 L476.576,1003.32 L475.206,998.89 L474.07,995.215 L472.373,994.394 L463.819,995.248 L463.896,994.023 L472.066,990.682 L472.289,990.326 L473.924,987.725 L476.179,974.559 L477.7,955.902 L477.531,953.876 L477.265,950.693 L477.12,950.094 L476.666,948.217 L473.551,940.578 L473.658,940.354 L474.336,938.928 L474.367,938.863 L474.686,938.417 L474.878,938.15 L474.882,936.573 L474.887,934.58 L473.929,934.201 L473.719,933.955 L472.968,933.078 L472.379,932.39 L472.413,932.324 L472.998,931.183 L474.69,929.599 L475.999,929.637 L477.248,928.06 L478.579,922.511 L480.403,911.305 L480.97,907.823 L480.968,906.426 L480.962,900.687 L480.961,899.658 L480.465,899.357 L480.344,899.178 L480.043,898.732 L479.865,898.469 L478.831,896.938 L480.139,890.638 L480.715,885.391 L481.302,880.044 L481.313,879.943 L482.224,871.645 L482.871,865.743 L483.364,861.249 L483.644,858.691 L483.848,847.449 L483.489,841.293 L483.285,837.794 L483.093,835.121 L482.882,832.176 L482.828,831.422 L482.697,831.02 L481.973,828.803 L480.203,826.958 L479.364,826.083 L478.544,825.228 L477.009,824.432 L475.106,821.157 L475.346,818.785 L476.015,817.942 L475.927,817.787 L475.386,816.824 L474.337,815.845 L473.009,816.544 L471.224,816.763 L471.091,814.137 L472.101,813.748 L472.334,812.085 L473.613,811.274 L473.878,810.147 L475.126,808.826 L475.082,808.096 L475.101,807.79 L475.506,801.305 L475.222,799.42 L476.105,797.953 L477.41,785.005 L477.208,780.74 L476.509,776.684 L476.697,775.773 L477.124,773.693 L477.059,771.124 L476.604,766.067 L476.115,765.391 L475.737,764.869 L475.959,763.365 L476.209,761.674 L476.171,761.257 L475.621,755.153 L475.62,755.139 L474.963,754.555 L474.477,754.123 L474.385,751.953 L473.708,751.187 L472.439,750.755 L472.486,748.368 L472.59,746.364 L471.858,745.392 L470.857,745.295 L470.884,744.397 L470.493,743.638 L469.419,743.326 L468.147,742.018 L468.667,740.474 L467.952,738.809 L469.514,737.697 L470.303,736.81 L471.737,736.103 L473.453,734.706 L473.79,733.381 L473.433,732.357 L473.725,731.86 L474.062,730.392 L474.926,729.202 L478.617,726.947 L478.978,726.837 L480.198,726.464 L483.207,726.443 L484.458,725.763 L484.49,725.746 L484.635,725.041 L484.807,724.21 L485.566,720.53 L487.307,712.091 L487.295,711.706 L487.283,711.304 L487.169,707.608 L487.053,703.867 L487.002,702.188 L486.884,698.362 L486.691,696.321 L485.697,685.777 L483.272,674.804 L483.178,674.38 L481.531,666.923 L478.102,656.083 L477.386,654.206 L476.858,652.822 L476.754,652.548 L473.71,644.568 L472.746,642.403 L470.079,636.418 L467.051,629.618 L463.058,621.32 L459.798,618.517 L462.385,615.651 L464.621,615.021 L466.038,615.835 L466.299,616.979 L467.208,618.657 L469.375,619.775 L469.503,621.058 L468.536,622.641 L467.277,623.2 L467.417,624.318 L469.095,627.394 L470.143,627.813 L471.891,628.373 L474.058,625.926 L477.353,627.95 L479.637,628.272 L480.656,628.862 L480.683,628.907 L481.565,630.371 L487.558,634.875 L488.436,635.253 L488.574,635.312 L493.958,639.517 L494.609,641.164 L495.378,642.213 L494.774,644.608 L497.932,646.19 L500.41,644.589 L501.738,644.869 L502.927,647.106 L506.996,648.899 L507.487,649.044 L507.553,649.064 L507.982,649.19 L508.524,649.35 L508.802,649.432 L510.928,648.881 L511.035,648.853 L511.584,648.522 L512.317,648.079 L513.272,647.385 L513.621,645.498 L513.621,644.712 L513.621,644.695 L513.621,644.052 L513.621,644.044 L513.621,643.611 L512.084,643.401 L509.654,641.496 L507.3,639.649 L506.726,638.813 L506.422,638.368 L505.32,636.55 L506.036,635.763 L507.932,635.241 L508.761,636.214 L510.317,635.13 L511.329,634.424 L513.508,634.623 L517.739,635.314 L518.498,635.438 L525.301,633.328 L526.702,632.893 L528.515,632.342 L529.859,631.934 L533.221,629.724 L533.44,629.581 L533.683,629.421 L534.662,628.652 L535.71,626.625 L537.392,625.789 L539.456,627.958 L540.183,628.722 L541.302,629.631 L543.82,630.78 L546.894,633.405 L548.991,635.992 L556.261,635.642 L556.349,635.587 L560.606,632.907 L561.923,632.077 L561.569,626.044 L562.552,624.738 L564.107,623.567 L565.837,624.388 L568.004,625.087 L570.73,625.716 L574.225,625.716 L575.963,625.298 L578,624.807 L579.467,623.829 L583.162,620.795 L584.92,620.124 L588.904,618.34 L595.614,612.854 L598.985,610.476 L599.131,606.184 L601.945,605.546 L605.386,604.357 L608.387,603.188 L612.781,601.124 L619.134,601.921 L620.546,602.474 L622.34,603.878 L623.572,605.117 L628.56,610.13 L631.894,615.077 L634.431,618.84 L634.306,621.412 L633.444,639.143 L635.897,641.513 L645.379,650.669 L648.574,652.126 L650.958,654.089 L653.22,654.109 L654.156,654.118 L658.364,654.644 L660.01,654.17 L662.457,654.191 L671.205,654.796 L671.662,654.828 L677.799,654.738 L686.308,649.81 L689.016,647.893 L692.314,646.483 L694.779,645.042 L697.537,642.978 L711.253,635.999 L724.983,637.453 L726.108,637.573 L729.308,640.797 L738.739,646.874 L745.177,651.021 L748.049,654.098 L750.248,654.954 L753.464,657.031 L753.681,657.172 L757.419,658.473 L758.95,659.416 L769.989,670.534 L771.17,671.722 L777.935,675.235 L778.6,675.58 L780.645,676.642 L788.393,680.663 L788.735,681.253 L793.741,689.869 L794.169,690.606 L794.467,692.56 L794.582,693.306 L795.095,696.668 L796.047,702.893 L796.174,703.033 L801.778,709.219 L802.498,710.014 L807.668,723.536 L807.944,724.259 L809.185,725.757 L814.897,732.653 L815.421,735.413 L815.531,735.992 L817.192,744.736 L815.718,752.582 L815.628,753.06 L816.054,754.355 L816.557,755.886 L819.329,764.31 L819.575,765.059 L819.948,765.742 L820.579,766.896 L823.417,772.085 L823.389,773.498 L823.337,776.14 L823.273,779.333 L823.22,782.001 L820.201,790.102 L820.269,794.241 L820.306,796.442 L827.181,807.568 L827.617,808.274 L827.646,808.32 L827.974,808.85 L830.35,817.881 L830.491,821.586 L830.745,828.312 L830.133,830.771 L827.098,842.96 L826.944,845.071 L826.51,851.044 L829.657,860.849 L830.067,861.146 L835.618,865.163 L837.215,866.319 L844.509,869.137 L850.996,874.42 L851.015,874.435 L851.067,874.478 L855.679,877.239 L855.68,877.239 L855.773,877.295 L864.919,880.785 L867.55,880.976 L875.562,881.558 L877.066,881.668 L881.091,882.672 L881.948,882.885 L883.03,883.155 L883.301,883.222 L892.161,885.953 L892.55,886.073 L892.702,886.12 L893.081,886.237 L893.719,886.503 L900.281,889.236 L905.667,890.793 L908.413,891.586 L909.518,891.905 L913.325,893.384 L914.365,893.849 L914.694,893.996 L915.775,894.814 L915.8,894.832 L920.802,898.614 L924.575,899.935 L925.277,900.18 L926.452,899.937 L931.671,898.858 L933.503,898.48 L936.291,897.024 L937.504,896.391 L939.062,895.578 L941.523,895.15 L942.444,894.989 L944.83,895.795 L950.532,897.72 L953.764,902.315 L954.57,903.461 L956.796,906.625 L967.56,908.599 L967.584,908.598 L975.854,908.473 L977.052,908.271 L977.962,907.945 L981.061,906.833 L981.085,906.821 L994.97,899.947 L996.197,898.627 L1000.27,894.252 L1005.23,893.128 L1012.9,891.39 L1016.19,892.046 L1016.21,892.037 L1017.18,892.203 L1017.18,892.184 L1021.25,892.692 L1024.39,891.806 L1024.83,891.521 L1041.24,880.878 L1047.65,878.509 L1053.2,878.182 L1059.28,875.288 L1060.23,874.436 L1065.01,871.094 L1065.68,869.767 L1067.31,866.562 L1068.45,865.977 L1073.36,866.306 L1077.22,864.205 L1081.27,862.002 L1082.39,860.351 L1083.45,858.8 L1083.43,858.655 L1083.15,855.135 L1090.41,848.375 L1090.85,847.974 L1093.35,845.638 L1095.99,844.727 L1101.9,842.685 L1109.78,839.96 L1132.19,845.317 L1139.07,845.044 L1140.35,844.993 L1149.59,841.51 L1151.82,840.667 L1160.72,840.813 L1162.76,840.846 L1169.19,838.793 L1182.89,834.413 L1191.39,831.696 L1191.6,831.629 L1191.93,831.711 L1194.37,832.319 L1194.75,832.414 L1198.5,833.3 L1201.59,834.028 L1202.9,835.037 L1202.9,835.037 L1206.14,837.526 L1206.74,837.991 L1211.02,841.279 L1212.26,842.232 L1218.62,843.943 L1223.81,845.338 L1230.23,845.802 L1235.61,843.103 L1238.81,841.497 L1240.9,841.339 L1245.08,841.024 L1249.05,840.723 L1256.57,842.839 L1261.79,846.715 L1263.88,848.273 L1274.51,851.905 L1284.92,854.916 L1288.15,861.329 L1289.46,863.924 L1290.56,870.143 L1290.97,872.47 L1290.7,876.205 L1290.58,877.863 L1294.32,882.171 L1298.25,882.292 L1299.02,882.315 L1305.58,881.564 L1307.05,880.155 L1307.36,879.85 L1309.58,880.775 L1310.38,880.034 L1310.82,879.626 L1311.98,878.557 L1312.44,878.124 L1313.96,877.262 L1313.07,875.153 L1323.4,864.739 L1327.37,863.455 L1329.45,862.78 L1338.51,863.433 L1346.19,862.499 L1353.24,864.549 L1354.86,864.128 L1362.18,861.015 L1364.86,861.141 L1373.12,867.493 L1373.15,867.512 L1373.83,868.04 L1379.09,866.82 L1382.02,863.818 L1386.6,859.122 L1390.83,854.786 L1396.57,852.977 L1410.47,848.598 L1429.5,840.093 L1439.74,836.134 L1445.77,830.109 L1450.28,827.117 L1455.74,823.494 L1468.62,823.199 L1477.94,826.654 L1479.75,828.623 L1488.97,838.66 L1493.71,842.787 L1500.62,845.145 L1509.22,844.39 L1523.68,843.124 L1545.7,838.154 L1557.59,834.321 L1559.5,833.858 L1580.28,831.897 L1580.5,831.877 L1586.28,824.481 L1592.35,816.706 L1600.91,811.984 L1621.85,806.924 L1626.28,804.459 L1642.14,795.64 L1642.62,795.395 L1652.55,790.38 L1669.26,788.829 L1669.69,788.789 L1678.9,786.011 L1681.22,785.495 L1681.26,785.486 L1700.52,780.602 L1709.26,781.426 L1721.91,779.437 L1738.88,776.767 L1739.56,776.66 L1753.24,756.056 L1759.95,750.162 L1768.47,747.678 L1778.66,752.934 L1782.28,754.802 L1793.1,755.773 L1802.39,751.847 L1804.15,751.104 L1809.48,750.725 L1829.41,749.307 L1831.6,748.434 L1839.99,745.101 L1841.72,744.411 L1844.59,743.987 L1858.41,741.936 L1860.95,741.56 L1870.18,744.605 L1876.47,746.059 L1879.07,746.658 L1886.72,746.771 L1894.99,745.331 L1899.48,744.548 L1909.16,740.368 L1918.5,733.692 L1928.61,729.204 L1934.06,724.915 L1940.34,716.229 L1940.36,716.202 L1943.1,716.14 L1953.85,715.897 L1975.35,715.855 L1998.72,715.809 L1999.58,715.807 L2017.38,715.772 L2031.31,715.744 L2036.94,715.736 L2042.64,715.72 L2043.11,715.73 L2052.21,715.764 L2057,715.782 L2060.12,715.794 L2061.35,715.836 L2063.21,715.813 L2067.47,715.8 L2072.7,715.785 L2084.49,715.878 L2092.22,715.873 L2105.96,715.885 L2111.91,715.891 L2111.91,715.891 L2116.76,715.895 L2116.77,715.895 L2119.39,715.897 L2122.5,715.877 L2122.68,715.878 L2130.53,715.914 L2138.03,715.949 L2147.28,715.807 L2155.27,715.954 L2156.4,715.946 L2161.06,715.963 L2161.09,715.963 L2163.34,715.962 L2187.72,715.844 L2192.13,716.022 L2193.55,716.021 L2231.56,715.807 L2231.57,715.807 L2237.24,715.834 L2313.64,716.197 L2341.36,716.538 L2347.3,716.611 L2347.37,716.612 L2376.29,716.853 L2383.57,717.042 L2383.61,717.042 L2384.96,717.048 L2385.02,717.032 L2395.38,716.719 L2409.85,716.734 L2412.38,716.957 L2420.67,717.686 L2425.45,716.707 L2442.88,716.77 L2461.02,716.836 L2461.67,716.852 L2462.23,716.851 L2498.24,717.146 L2504.16,717.194 L2509.67,717.474 L2528.91,717.421 L2542.21,717.718 L2549.47,718.082 L2550.81,720.834 L2554.02,723.421 L2556.27,726.141 L2555.74,728.971 L2556.84,733.065 L2558.04,733.654 L2559.9,733.7 L2561.23,735.434 L2561.56,737.192 L2561.31,739.41 L2561.84,741.573 L2562.85,744.739 L2563.09,748.379 L2564.01,751.271 L2565.99,755.369 L2566.74,756.681 L2570.77,761.704 L2574.76,764.183 L2577.94,766.493 L2579.42,767.924 L2584.59,775.757 L2584.74,775.982 L2585.21,776.966 L2586.48,779.622 L2587.17,781.98 L2587.25,783.695 L2586.84,785.157 L2586.8,786.537 L2587.01,787.188 L2588.67,789.954 L2594.34,793.666 L2595.41,793.84 L2596.73,793.463 L2598,792.84 L2599.69,791.634 L2601.08,790.34 L2602.32,789.615 L2608.42,789.364 L2609.51,789.578 L2610.5,790.063 L2613.55,791.863 L2613.81,792.166 L2616.81,797.995 L2618.83,803.365 L2623.18,808.254 L2624.86,809.09 L2628.77,809.174 L2630.74,808.559 L2631.87,807.56 L2632.98,806.997 L2640.92,808.667 L2644.46,809.712 L2649.04,814.354 L2654.33,819.557 L2656.06,820.316 L2657.37,820.591 L2658.09,821.334 L2658.91,823.027 L2660.88,827.101 L2661.31,828.389 L2660.63,836.52 L2661.1,844.218 L2661.4,846.288 L2663.49,850.608 L2664.76,852.222 L2668.18,855.342 L2673.42,861.463 L2675.37,863.95 L2675.55,864.831 L2675.39,866.25 L2675.5,866.51 L2676.45,867.082 L2676.72,867.416 L2676.96,868.095 L2676.86,869.417 L2676.84,869.706 L2676.86,870.753 L2677.39,871.36 L2678.92,871.55 L2679.94,872.514 L2680.27,873.246 L2679.78,874.417 L2680.69,876.216 L2682.05,877.317 L2682.54,878.243 L2682.5,883.708 L2680.15,887.549 L2679.25,888.329 L2678.71,889.219 L2677.46,889.947 L2676.78,891.116 L2676.69,892.185 L2677.33,893.033 L2677.12,894.167 L2676.82,894.541 L2674.67,895.595 L2671,898.91 L2670.71,899.543 L2670.88,900.529 L2670.64,901.286 L2669.76,902.347 L2668.77,903.026 L2667.71,903.248 L2666.67,903.034 L2665.27,903.523 L2664.19,904.318 L2663.65,905.123 L2663.41,905.433 L2663.49,905.932 L2664.1,906.104 L2664.77,906.628 L2664.86,907.31 L2663.72,910.252 L2661.37,916.35 L2658.92,920.919 L2657.49,922.517 L2656.37,923.388 L2655.74,923.578 L2655.17,924.26 L2654.87,925.525 L2655.17,926.293 L2655.77,926.81 L2656.08,927.25 L2656.17,928.582 L2654.51,934.767 L2654.51,935.233 L2655.64,938.285 L2655.68,942.424 L2653.65,943.144 L2652.99,943.582 L2649.47,946.788 L2647.87,948.271 L2645.87,950.813 L2644.63,957.336 L2643.15,963.447 L2636.79,969.546 L2634.57,973.807 L2626.74,989.276 L2620.7,1001.65 L2620.44,1004.65 L2621.05,1011.47 L2621.18,1015.27 L2621.01,1017.67 L2620.49,1020.53 L2620.17,1021.15 L2618.57,1022.88 L2616.8,1024.08 L2616.75,1024.15 L2615.52,1025.8 L2614.15,1029.59 L2611.93,1035.82 L2610.23,1044.29 L2610.12,1045.22 L2610.48,1049.35 L2610.18,1051.16 L2605.87,1064.31 L2605.87,1067.04 L2605.88,1067.89 L2605.6,1069.49 L2604.92,1070.77 L2604.53,1075.62 L2604.28,1076.58 L2603.81,1077.47 L2602.98,1078.16 L2600.35,1079.57 L2599.6,1080.35 L2599.28,1083.75 L2598.71,1084.56 L2597.45,1085.05 L2596.92,1088.3 L2590.98,1091.81 L2588.73,1095.87 L2588.42,1096.78 L2588.21,1099.06 L2588.35,1103.17 L2588.37,1103.71 L2584.37,1110.67 L2581.06,1114.67 L2576.19,1120 L2574.72,1121.05 L2571.43,1122.89 L2569.48,1126.34 L2570.1,1128.06 L2570.41,1129.38 L2570.46,1135.15 L2570.02,1135.8 L2566.89,1142.28 L2566.43,1144.58 L2566.83,1146.07 L2568.21,1147.17 L2569.44,1147.43 L2570.54,1146.19 L2571.24,1143.75 L2572.1,1142.4 L2573.31,1141.67 L2574.61,1142.16 L2575.85,1143.03 L2574.95,1146.07 L2572.86,1148.54 L2569.5,1150.4 L2568.66,1153.16 L2569.92,1155.9 L2573.08,1160.43 L2574.12,1164.27 L2573.69,1165.27 L2572.27,1167.5 L2571.2,1171.11 L2570.03,1175.12 L2568.72,1179.99 L2568.16,1182.46 L2566.8,1185.28 L2564.36,1189.51 L2562.49,1190.74 L2561.23,1191.13 L2560.59,1191.95 L2560.24,1193.16 L2558.99,1194.62 L2557.77,1195.65 L2557.15,1195.91 L2556.42,1195.89 L2555.4,1195.67 L2554.71,1196.26 L2554.58,1197.23 L2555.22,1198.16 L2555.27,1198.74 L2554.64,1201.25 L2554.28,1201.95 L2554.15,1202.18 L2554.13,1203.58 L2553.86,1203.99 L2552.47,1204.36 L2548.14,1212.82 L2545.91,1215.31 L2545.02,1216.8 L2544.26,1219.29 L2544.23,1220.12 L2544.44,1221.07 L2545.11,1222.52 L2545.14,1222.98 L2544.82,1224.1 L2543.97,1225.46 L2543.35,1225.88 L2539.76,1227.91 L2534.52,1229.07 L2533.32,1229.61 L2532.73,1230.15 L2531.29,1232.05 L2528.73,1234.37 L2527.11,1235.7 L2525.08,1236.86 L2522.98,1237 L2520.7,1236.67 L2519.99,1237.19 L2519.34,1238.69 L2518.47,1239.17 L2516.11,1239.04 L2515.43,1239.56 L2513.51,1240.25 L2513.13,1240.96 L2511.76,1241.51 L2511.16,1242.35 L2510.7,1243 L2510.59,1245.33 L2509.91,1246.75 L2507.54,1247.67 L2506.45,1248.96 L2506.98,1251.23 L2506.59,1257.44 L2505.99,1258.7 L2503.52,1259.98 L2502.96,1261.7 L2501.49,1263.43 L2501.61,1264.3 L2501.39,1264.88 L2501.07,1265.69 L2501.01,1266.75 L2501.28,1267.42 L2501.65,1268.33 L2501.52,1269.43 L2500.93,1271.08 L2500.85,1271.12 L2499.45,1271.86 L2497.93,1273.1 L2496.57,1274.78 L2496.29,1277.82 L2496.83,1280.04 L2495.87,1284.72 L2492.93,1290.33 L2491.01,1291.25 L2490.11,1293.22 L2489.32,1295.48 L2487.92,1304.09 L2488.07,1308.21 L2487.7,1309.15 L2485.36,1311.76 L2484.16,1312.69 L2482.86,1313.33 L2481.81,1314.5 L2481.16,1316.25 L2481.25,1317.17 L2482.73,1319.19 L2482.36,1323.97 L2480.87,1327.89 L2479.94,1329.69 L2477.4,1332.42 L2475.59,1333.14 L2471.36,1333.33 L2470.24,1334.86 L2468.95,1337.28 L2468.4,1338.73 L2468.49,1340.01 L2468.15,1341.45 L2467.61,1342.85 L2465.87,1346.09 L2463.31,1348.71 L2462.66,1348.84 L2461.13,1348.51 L2459.62,1349.17 L2458.85,1349.51 L2458.57,1350.08 L2458.32,1351.3 L2458.37,1352.19 L2458.75,1353.57 L2459.6,1355.11 L2460.94,1359.69 L2461.36,1361.87 L2461.64,1364.22 L2461.51,1372.82 L2460.56,1375.49 L2458.45,1380.82 L2458.01,1381.7 L2455.7,1384.14 L2453.39,1385.42 L2453.29,1387.72 L2455.61,1394.76 L2457.73,1397.18 L2460.97,1400.39 L2462.83,1401.4 L2463.89,1402.43 L2466.72,1405.64 L2467.07,1406.07 L2468.95,1410.09 L2468.93,1410.74 L2468.43,1412.95 L2468.23,1413.36 L2464.96,1419.78 L2464.32,1420.28 L2461.47,1421.38 L2461,1421.74 L2460.69,1422.18 L2460.04,1424.55 L2460.04,1424.56 L2459.34,1425.55 L2459.28,1426.12 L2460.95,1429.91 L2466.37,1435.75 L2466.49,1435.88 L2467.96,1437.06 L2474.66,1442.02 L2478.57,1442.59 L2482.59,1442.27 L2484.02,1441.82 L2485.36,1440.34 L2485.62,1439.82 L2485.78,1438.67 L2486.26,1437.68 L2489.16,1434.34 L2490.05,1433.78 L2491.93,1433.07 L2493.09,1433.03 L2494.11,1433.37 L2494.69,1433.84 L2495.78,1435.18 L2496.95,1437.05 L2497.24,1437.71 L2498.02,1441.43 L2498.44,1442.28 L2501.72,1445.71 L2502.94,1446.62 L2504.97,1448.12 L2507.31,1450.9 L2508.14,1453.52 L2509.16,1454.25 L2510.04,1454.36 L2510.82,1454.02 L2510.92,1453.98 L2511.38,1453.05 L2512.33,1448.63 L2514.22,1446.98 L2515.39,1446.23 L2516.66,1446.12 L2517.33,1446.28 L2518.81,1447.28 L2519.78,1447.56 L2520.16,1447.56 L2522.41,1447.56 L2523.68,1447.56 L2524.47,1447.56 L2528.62,1447.52 L2529.57,1447.84 L2530.11,1448.02 L2530.18,1448.04 L2531.06,1448.34 L2531.85,1448.6 L2532.54,1449.78 L2532.75,1450.57 L2533.01,1451.55 L2532.96,1451.85 L2532.84,1452.71 L2532.41,1453.95 L2532.42,1455.55 L2533.48,1457.48 L2533.52,1459.01 L2532.82,1460.77 L2532.5,1462.9 L2533.09,1467.31 L2534.39,1468.41 L2534.91,1468.59 L2539.61,1469.64 L2540.17,1469.77 L2540.86,1469.6 L2542.25,1468.77 L2542.61,1468.74 L2543.75,1468.66 L2546.7,1469.65 L2547.1,1470.93 L2549.54,1473.1 L2553.36,1474.61 L2554.14,1475.68 L2555.42,1477.97 L2555.63,1479.95 L2555.91,1482.51 L2555.84,1483.36 L2555.37,1484.93 L2554.8,1485.6 L2553.92,1486.65 L2553.66,1487.25 L2553.6,1488.36 L2553.19,1488.97 L2550.87,1490.79 L2550.28,1493.68 L2550.12,1495.55 L2549.98,1495.99 L2549.34,1496.74 L2548.58,1497.64 L2546.63,1499.42 L2545.62,1501.45 L2545.51,1502 L2546.03,1503.31 L2545.85,1504.17 L2544.26,1507.16 L2543.07,1508.4 L2543.04,1508.42 L2542.4,1508.91 L2542.33,1508.97 L2541.49,1509.61 L2537.4,1510.55 L2534.41,1510.88 L2532.33,1511.97 L2531.42,1513.17 L2531.53,1514.61 L2532.24,1523.98 L2532.4,1526.14 L2532.65,1527.88 L2532.85,1528.14 L2532.98,1528.21 L2537.63,1530.55 L2537.78,1530.67 L2537.79,1530.68 L2539.3,1531.86 L2541.42,1533.51 L2543.19,1536.08 L2543.21,1536.17 L2543.67,1537.99 L2543.7,1538.11 L2543.96,1539.13 L2544.03,1539.4 L2543.61,1542.92 L2541.98,1545.05 L2541.9,1545.26 L2541.31,1546.79 L2541.46,1547.4 L2541.69,1548.32 L2543.63,1551.82 L2543.71,1553.46 L2542.94,1554.39 L2541.6,1554.61 L2536.56,1555.07 L2533.95,1557.3 L2532.57,1557.46 L2531.77,1558.43 L2531.96,1559.09 L2532.46,1559.46 L2533.13,1560.31 L2533.32,1561.05 L2533.99,1561 L2534.67,1560.81 L2536.03,1561.1 L2536.76,1561.84 L2536.58,1562.88 L2533.44,1564.54 L2532.9,1565.11 L2533.12,1565.68 L2535.08,1565.95 L2536.15,1566.07 L2536.4,1566.66 L2536,1567.65 L2535.86,1569.3 L2535.26,1570.86 L2534.11,1571.84 L2533.87,1572.64 L2533.89,1573.53 L2533.9,1573.83 L2534.28,1574.74 L2535.99,1575.55 L2536.53,1576.43 L2536.71,1577.62 L2536.89,1579.45 L2535.76,1581.81 L2532.89,1582.22 L2530.77,1582.71 L2530.08,1583.85 L2530.57,1585.1 L2530.65,1585.31 L2531.06,1585.98 L2531.43,1586.57 L2531.69,1588.41 L2531.61,1588.79 L2531.67,1590.11 L2531.79,1591.08 L2531.77,1591.13 L2530.39,1594.79 L2529.95,1595.78 L2529.51,1596.76 L2529.51,1597.08 L2529.52,1598.35 L2529.52,1598.5 L2529.99,1600.68 L2529.95,1601.66 L2529.78,1602.12 L2529.42,1602.49 L2528.26,1603.05 L2527.29,1603.69 L2526.48,1603.57 L2525.04,1603.37 L2522.2,1604.16 L2521.59,1604.34 L2520,1605.02 L2518.56,1605.68 L2518.29,1606.72 L2518.08,1607.55 L2519.04,1608.48 L2520.1,1608.74 L2521.61,1609.44 L2522.5,1610.87 L2522.11,1612.47 L2520.99,1613.42 L2519.33,1612.87 L2517.36,1612.87 L2516.07,1613.8 L2515.38,1615.8 L2515.09,1617.48 L2516.55,1619.01 L2517.83,1620.02 L2518.42,1621.82 L2518.26,1622.66 L2517.98,1624.08 L2517.7,1624.71 L2516.93,1626.42 L2516.93,1638.45 L2516.92,1656.63 L2516.87,1657.05 L2516.9,1664.41 L2516.87,1667.92 L2516.91,1672.98 L2516.94,1677.35 L2516.93,1678.24 L2516.9,1680.39 L2516.92,1684.92 L2516.91,1698.22 L2516.85,1700.97 L2516.82,1702.54 L2516.84,1703.93 L2516.88,1706.75 L2516.89,1710.3 L2516.87,1710.93 L2516.85,1712.69 L2516.84,1713.67 L2516.89,1719.74 L2516.89,1720.2 L2516.9,1721.75 L2516.9,1725.4 L2516.9,1733.11 L2516.9,1783.74 L2516.91,1826.43 L2516.92,1943.44 L2516.91,1943.54 L2517.04,2030.85 L2517.03,2030.96 L2517.02,2031.03 L2516.92,2103.93 L2516.93,2132.95 L2516.95,2181.52 L2516.95,2202.19 L2517.08,2210.69 L2517.06,2286.51 L2516.94,2299.66 L2517.09,2305.85 L2517.06,2352.49 L2512.73,2352.49 L2510.38,2352.85 L2508.47,2352.49 L2504.58,2352.44 L2466.59,2352.3 L2460.78,2352.49 L2406.06,2352.73 L2394.46,2352.58 L2375.75,2352.75 L2368.83,2352.81 L2344.42,2353.03 L2343.25,2353.04 L2341.32,2353.06 L2340.67,2353.2 L2331.18,2353.19 L2330.05,2353.19 L2307.78,2353.16 L2267.88,2353.11 L2194.21,2353.52 L2172.67,2353.64 L2172.62,2353.64 L2083.32,2354.25 L2071.26,2354.5 L2053.68,2354.87 L2041.06,2355.24 L2025.86,2355.7 L2002.49,2355.34 L2002.09,2355.35 L1996.68,2355.46 L1986.68,2355.37 L1936.27,2354.91 L1875.32,2355.15 L1868.38,2354.74 L1862.74,2354.89 L1841.23,2354.74 L1830.66,2354.67 L1830.65,2354.67 L1805.82,2354.24 L1723.14,2353.92 L1704.21,2353.42 L1686.91,2353.53 L1679.85,2353.38 L1678.93,2353.56 L1646.36,2354.15 L1642.7,2354.45 L1628.73,2354.47 L1616.55,2354.49 L1595.6,2354.6 L1595.21,2354.6 L1587.18,2354.65 L1562.46,2355.23 L1561.04,2355.26 L1558.94,2355.31 L1546.68,2355.16 L1546.49,2355.38 L1545.9,2355.38 L1545.86,2355.38 L1520.73,2355.16 L1498.66,2354.98 L1492.95,2355.02 L1476.35,2355.13 L1461.35,2355.21 L1442.2,2354.99 L1411.27,2354.9 L1401.55,2354.91 L1384.19,2354.91 L1383.7,2354.92 L1365.97,2355.03 L1354.14,2355.21 L1341.88,2355.1 L1324.57,2354.3 L1315.67,2354.08 L1311.62,2353.98 L1297.17,2353.55 L1274.76,2353.52 L1260.95,2353.5 L1255.31,2353.63 L1251.63,2353.72 L1246.95,2353.95 L1243.49,2353.84 L1220.3,2353.51 L1216.76,2353.45 L1195.75,2353.12 L1195.59,2353.11 L1174.54,2352.78 L1171.86,2352.73 L1171.84,2352.73 L1147.48,2352.27 L1145.73,2352.24 L1144.08,2352.21 L1112.82,2351.61 L1105.73,2351.49 L1071.98,2350.94 L1067.79,2351.05 L1066.81,2351.07 L1044.12,2350.59 L1040.4,2350.34 L1011.92,2349.86 L1006.2,2349.58 L999.264,2349.54 L998.827,2349.54 L998.392,2349.54 L977.622,2349.44 L970.52,2349.28 L969.076,2349.24 L960.093,2349.04 L946.047,2348.76 L942.971,2348.7 L935.634,2348.98 L931.758,2349.13 L909.206,2349.24 L892.857,2349.47 L873.299,2350.24 L867.628,2350.46 L856.504,2350.6 L844.583,2350.78 L832.649,2350.79 L814.942,2350.81 L799.221,2350.89 L798.182,2350.9 L796.805,2350.91 L794.304,2350.94 L792.564,2350.95 L791.489,2350.96 L771.467,2351.06 L770.84,2351.06 L763.81,2351.11 L747.255,2351.23 L741.701,2350.54 L736.391,2350.45 L729.901,2349.83 L723.384,2349.22 L717.335,2348.98 L706.104,2350.16 L692.226,2350.89 L687.976,2351.12 L659.497,2352.66 L658.157,2352.74 L629.42,2352.21 L620.502,2352.19 L607.88,2352.15 L607.638,2352.15 L604.32,2352.16 L592.765,2352.2 L576.673,2352.54 L574.47,2352.96 L566.912,2354.39 L548.027,2353.69 L546.044,2353.61 L528.595,2354.1 L521.476,2354.35 L518.438,2354.18 L514.859,2353.99 L475.792,2353.98 L466.321,2353.98 L441.115,2353.77 L435.946,2353.71 L430.407,2353.63 L403.868,2353.06 L401.711,2349.32 L399.318,2347.5 L398.323,2347.22 L398.006,2346.45 L396.329,2345.05 L395.776,2343.51 L395.601,2343.02 L394.128,2342.47 L393.904,2342.41 L393.011,2342.16 L391.392,2340.88 L391.096,2339.95 L389.688,2338.76 L388.493,2336.25 L387.924,2335.71 L386.667,2334.52 L386.558,2334.42 L386.462,2334.41 L384.429,2334.25 L383.788,2334.91 L383.261,2334.92 L383.063,2334.61 L382.977,2334.48 L381.79,2334.5 L381.166,2334.75 L380.44,2335.04 L380.557,2334.77 L380.885,2334.03 L380.966,2333.84 L380.322,2333.44 L380.05,2333.27 L379.203,2333.59 L379.343,2333.1 L378.813,2332.12 L377.975,2331.97 L377.625,2330.36 L376.698,2328.34 L375.351,2326.79 L373.955,2326.6 L373.864,2326.48 L373.093,2325.45 L373.085,2325.44 L372.924,2325.19 L372.067,2323.82 L372.012,2323.52 L371.93,2323.06 L371.785,2322.24 L370.871,2320.62 L370.583,2320.11 L369.385,2318.63 L368.424,2318.41 L367.531,2317.82 L365.811,2315.65 L365.323,2315.11 L365.503,2313.67 L364.734,2312.83 L363.615,2312.76 L362.849,2312.76 L361.983,2311.44 L362.539,2310.98 L362.942,2309.67 L362.816,2308.62 L362.372,2307.58 L361.603,2307.44 L361.335,2306.92 L361.073,2305.7 L361.351,2305.03 L362.142,2304.28 L361.92,2303.29 L362.716,2301.03 L362.642,2298.98 L361.258,2297.11 L361.331,2296.14 L360.668,2295.46 L359.767,2295.49 L358.453,2292.09 L358.217,2289.67 L359.23,2289.61 L360.133,2288.15 L359.646,2286.64 L358.872,2285.39 L359.712,2284.29 L359.508,2282.42 L359.929,2280.82 L359.181,2279.99 L358.43,2279.68 L357.695,2277.69 L357.191,2276.61 L356.325,2274.86 L355.457,2274.61 L355.716,2272.74 L355.61,2270.75 L354.972,2269.61 L354.886,2268.73 L355.338,2267.76 L355.003,2265.71 L353.681,2263.69 L353.276,2262.39 L352.491,2262.03 L351.866,2261.49 L351.65,2260.43 L350.667,2259.94 L350.681,2259.22 L349.125,2257.32 L348.229,2257.26 L348.007,2256.18 L347.223,2255.25 L345.233,2253.1 L344.301,2252.46 L345.07,2251.68 L345.092,2250.27 L345.959,2249.11 L346.043,2241.55 L346.046,2241.26 L345.372,2233.98 L344.663,2232.72 L345.136,2231.39 L344.988,2230.51 L342.645,2227.27 L342.995,2226.78 L342.417,2225.33 L341.032,2224.69 L340.688,2225.66 L340.292,2225.95 L339.144,2225.05 L338.739,2223.91 L339.217,2221.87 L339.2,2221.23 L339.849,2220.82 L340.457,2219.57 L340.007,2217.97 L340.556,2216.93 L340.712,2212.75 L341.181,2202.81 L341.179,2202.78 L340.77,2195.42 L340.777,2195.22 L340.811,2194.27 L340.92,2191.16 L340.963,2189.92 L340.012,2186.57 L339.687,2185.43 L339.306,2184.09 L337.907,2178.84 L338.134,2176.95 L339.126,2174.72 L341.452,2170.8 L341.981,2169.26 L341.134,2168.9 L340.925,2168.37 L341.989,2167.58 L341.998,2165.59 L341.876,2163.52 L340.87,2163.23 L341.099,2162.32 L341.674,2162.19 L342.182,2159.75 L342.591,2157.79 L342.174,2157.09 L341.935,2155.22 L342.558,2153.92 L345.121,2148.46 L346.661,2143.95 L348.513,2138.52 L348.717,2136.49 L349.144,2135.15 L350.622,2129.16 L350.941,2126.57 L351.41,2123.96 L350.726,2123.16 L350.102,2123.04 L349.987,2122.46 L350.326,2121.04 L349.918,2119.97 L348.957,2118.03 L348.453,2117.1 L347.888,2117.04 L347.012,2117.41 L346.025,2115.94 L347.329,2115.99 L347.958,2114.8 L347.189,2113.4 L348.133,2113.13 L348.022,2109.88 L348.633,2106.65 L348.055,2105.85 L348.116,2103.01 L346.831,2102.3 L347.039,2101.32 L346.615,2099.28 L346.325,2099.07 L345.689,2098.6 L345.137,2097.6 L344.415,2095.57 L345.57,2094.09 L344.604,2090.72 L343.529,2089.25 L341.773,2088.58 L339.876,2087.25 L338.261,2085.91 L337.03,2085.56 L333.54,2083.57 L333.321,2082.78 L334.383,2080.26 L334.497,2079.99 L333.929,2077.96 L333.097,2077.11 L332.21,2076.14 L332.292,2075.06 L330.922,2073.02 L330.876,2070.89 L330.341,2069.29 L330.061,2068.24 L329.508,2066.97 L328.533,2066.07 L328.594,2064.35 L326.739,2060.81 L325.371,2059.83 L324.3,2059.06 L321.633,2057.25 L321.5,2057.16 L319.502,2057.44 L319.311,2058.43 L317.97,2057.97 L317.94,2058.06 L317.513,2059.3 L316.584,2059.74 L315.734,2060.63 L315.035,2060.7 L314.739,2059.15 L314.844,2056.26 L315.053,2055.54 L314.295,2051.61 L313.036,2045.51 L311.866,2037.93 L309.544,2031.3 L308.444,2028.16 L306.06,2024.63 L303.512,2021.75 L301.614,2020.09 L300.088,2020.14 L299.571,2019.25 L300.056,2017.45"/>
   <path fill-rule="evenodd" vector-effect="none" d="M455.741,595.111 L456.51,595.18 L456.929,595.88 L458.118,595.39 L458.467,593.503 L458.397,592.245 L459.096,592.175 L460.005,594.342 L460.354,596.019 L461.194,597.557 L462.032,600.143 L463.5,602.73 L464.269,602.17 L465.248,603.289 L464.059,603.988 L462.801,603.359 L460.634,600.703 L458.747,599.794 L457.768,599.864 L455.462,596.648 L455.741,595.111"/>
   <path fill-rule="evenodd" vector-effect="none" d="M564.287,612.18 L564.536,611.905 L564.736,611.88 L564.724,612.155 L564.961,612.405 L565.223,612.38 L565.623,612.168 L565.998,612.068 L566.46,611.993 L566.61,611.793 L567.01,611.68 L567.497,611.381 L567.747,611.406 L568.209,611.181 L568.946,610.781 L569.208,610.681 L569.62,610.656 L569.933,610.681 L570.295,610.606 L570.557,610.281 L571.007,610.306 L571.531,610.544 L571.58,610.917 L571.566,611.248 L571.107,611.631 L570.744,611.743 L570.52,611.743 L570.02,612.08 L569.745,612.192 L568.846,612.58 L568.434,612.667 L567.234,612.805 L566.76,612.88 L565.885,612.929 L565.811,613.017 L565.198,613.167 L564.624,613.167 L564.196,612.53 L564.287,612.18"/>
   <path fill-rule="evenodd" vector-effect="none" d="M467.693,604.519 L468.834,603.816 L469.889,603.844 L470.452,604.576 L471.677,604.59 L472.761,604.646 L474.112,604.364 L474.985,604.407 L475.604,603.421 L476.139,603.689 L476.491,604.111 L476.139,604.562 L474.76,604.843 L473.408,605.012 L472.479,605.293 L470.466,604.857 L468.749,604.857 L467.595,604.717 L467.693,604.519"/>
   <path fill-rule="evenodd" vector-effect="none" d="M584.057,609.44 L584.204,609.366 L585.102,609.035 L586.269,609.059 L587.253,609.219 L589.158,609.44 L590.62,609.735 L591.493,609.969 L591.69,610.141 L591.628,610.337 L591.136,610.436 L590.633,610.448 L590.202,610.325 L589.871,610.153 L589.354,610.166 L588.887,610.301 L588.518,610.485 L587.928,609.883 L587.658,609.907 L586.994,609.674 L586.675,609.563 L586.245,609.699 L586.036,609.71 L585.298,609.416 L585.114,609.403 L584.88,609.6 L584.61,609.92 L584.389,610.018 L584.18,609.981 L584.008,609.649 L584.057,609.44"/>
   <path fill-rule="evenodd" vector-effect="none" d="M370.876,2326.11 L371.041,2325.77 L371.289,2325.77 L371.454,2325.77 L371.536,2325.99 L371.619,2326.33 L371.619,2326.44 L371.701,2326.66 L371.536,2326.88 L371.371,2326.99 L371.206,2327.11 L371.041,2327.11 L370.876,2326.88 L370.876,2326.66 L370.793,2326.44 L370.876,2326.11 L370.876,2326.11"/>
   <path fill-rule="evenodd" vector-effect="none" d="M325.818,2086.97 L325.983,2086.86 L326.066,2086.75 L326.148,2086.52 L326.231,2086.52 L326.396,2086.63 L326.396,2086.86 L326.396,2087.19 L326.479,2087.31 L326.231,2087.64 L326.148,2087.64 L325.983,2087.53 L325.818,2087.42 L325.736,2087.19 L325.818,2086.97 L325.818,2086.97"/>
   <path fill-rule="evenodd" vector-effect="none" d="M340.425,2227.65 L340.59,2227.42 L340.755,2227.31 L341.003,2227.31 L341.168,2227.53 L341.085,2227.87 L341.168,2228.09 L341.085,2228.32 L340.92,2228.43 L340.755,2228.43 L340.507,2228.32 L340.425,2227.98 L340.425,2227.65 L340.425,2227.65"/>
  </g>
  <g stroke-width="1" transform="matrix(0.999744,0,0,0.999744,0,0)" stroke-opacity="1" font-size="34.5833" fill="none" stroke-linejoin="bevel" font-style="normal" stroke-linecap="square" stroke="#000000" font-family="MS Shell Dlg 2" font-weight="400"/>
  <g stroke-width="1" transform="matrix(11.808,0,0,11.808,0,0)" stroke-opacity="1" font-size="34.5833" fill="none" stroke-linejoin="bevel" font-style="normal" stroke-linecap="square" stroke="#000000" font-family="MS Shell Dlg 2" font-weight="400"/>
  <g stroke-width="1" transform="matrix(11.808,0,0,11.808,0,0)" stroke-opacity="1" font-size="34.5833" fill="none" stroke-linejoin="bevel" font-style="normal" stroke-linecap="square" stroke="#000000" font-family="MS Shell Dlg 2" font-weight="400"/>
  <g stroke-width="1" transform="matrix(11.808,0,0,11.808,0,0)" stroke-opacity="1" font-size="34.5833" fill="none" stroke-linejoin="bevel" font-style="normal" stroke-linecap="square" stroke="#000000" font-family="MS Shell Dlg 2" font-weight="400"/>
  <g stroke-width="1" transform="matrix(1,0,0,1,0,0)" stroke-opacity="1" font-size="34.5833" fill="none" stroke-linejoin="bevel" font-style="normal" stroke-linecap="square" stroke="#000000" font-family="MS Shell Dlg 2" font-weight="400"/>
  <g stroke-width="1" transform="matrix(11.808,0,0,11.808,0,0)" stroke-opacity="1" font-size="34.5833" fill="none" stroke-linejoin="bevel" font-style="normal" stroke-linecap="square" stroke="#000000" font-family="MS Shell Dlg 2" font-weight="400"/>
  <g stroke-width="1" transform="matrix(11.808,0,0,11.808,0,0)" stroke-opacity="1" font-size="34.5833" fill="none" stroke-linejoin="bevel" font-style="normal" stroke-linecap="square" stroke="#000000" font-family="MS Shell Dlg 2" font-weight="400"/>
  <g stroke-width="1" transform="matrix(11.808,0,0,11.808,0,0)" stroke-opacity="1" font-size="34.5833" fill="none" stroke-linejoin="bevel" font-style="normal" stroke-linecap="square" stroke="#000000" font-family="MS Shell Dlg 2" font-weight="400"/>
  <g stroke-width="1" transform="matrix(11.808,0,0,11.808,0,0)" stroke-opacity="1" font-size="34.5833" fill="none" stroke-linejoin="bevel" font-style="normal" stroke-linecap="square" stroke="#000000" font-family="MS Shell Dlg 2" font-weight="400"/>
  <g stroke-width="1" transform="matrix(1,0,0,1,0,0)" stroke-opacity="1" font-size="34.5833" fill="none" stroke-linejoin="bevel" font-style="normal" stroke-linecap="square" stroke="#000000" font-family="MS Shell Dlg 2" font-weight="400"/>
 </g>
</svg>
