<?xml version='1.0' encoding='UTF-8' standalone='no'?>
<svg xmlns:xlink="http://www.w3.org/1999/xlink" baseProfile="tiny" xmlns="http://www.w3.org/2000/svg" height="249.936mm" viewBox="0 0 2952 2952" width="249.936mm" version="1.2">
 <title>Qt SVG Document</title>
 <desc>Generated with Qt</desc>
 <defs/>
 <g stroke-width="1" fill-rule="evenodd" fill="none" stroke-linejoin="bevel" stroke-linecap="square" stroke="black">
  <g stroke-width="1" transform="matrix(1,0,0,1,0,0)" stroke-opacity="1" font-size="34.5833" fill="none" stroke-linejoin="bevel" font-style="normal" stroke-linecap="square" stroke="#000000" font-family="MS Shell Dlg 2" font-weight="400"/>
  <g stroke-width="1" transform="matrix(1,0,0,1,0,0)" stroke-opacity="1" font-size="34.5833" fill="none" stroke-linejoin="bevel" font-style="normal" stroke-linecap="square" stroke="#000000" font-family="MS Shell Dlg 2" font-weight="400"/>
  <g stroke-width="1" transform="matrix(11.808,0,0,11.808,0,0)" stroke-opacity="1" font-size="34.5833" fill="none" stroke-linejoin="bevel" font-style="normal" stroke-linecap="square" stroke="#000000" font-family="MS Shell Dlg 2" font-weight="400"/>
  <g stroke-width="1" transform="matrix(0.999744,0,0,0.999744,0,0)" stroke-opacity="1" font-size="34.5833" fill="none" stroke-linejoin="bevel" font-style="normal" stroke-linecap="square" stroke="#000000" font-family="MS Shell Dlg 2" font-weight="400"/>
  <g transform="matrix(0.999744,0,0,0.999744,0,0)" font-size="34.5833" fill-opacity="0" fill="#ffffff" font-style="normal" stroke="none" font-family="MS Shell Dlg 2" font-weight="400">
   <path fill-rule="evenodd" vector-effect="none" d="M-2,-2 L2955,-2 L2955,2955 L-2,2955 L-2,-2"/>
  </g>
  <g stroke-width="1" transform="matrix(0.999744,0,0,0.999744,0,0)" stroke-opacity="1" font-size="34.5833" fill="none" stroke-linejoin="bevel" font-style="normal" stroke-linecap="square" stroke="#000000" font-family="MS Shell Dlg 2" font-weight="400"/>
  <g stroke-width="1" transform="matrix(11.808,0,0,11.808,0,0)" stroke-opacity="1" font-size="34.5833" fill="none" stroke-linejoin="bevel" font-style="normal" stroke-linecap="square" stroke="#000000" font-family="MS Shell Dlg 2" font-weight="400"/>
  <g stroke-width="1" transform="matrix(11.808,0,0,11.808,0,0)" stroke-opacity="1" font-size="34.5833" fill="none" stroke-linejoin="bevel" font-style="normal" stroke-linecap="square" stroke="#000000" font-family="MS Shell Dlg 2" font-weight="400"/>
  <g stroke-width="1" transform="matrix(11.808,0,0,11.808,0,0)" stroke-opacity="1" font-size="34.5833" fill="none" stroke-linejoin="bevel" font-style="normal" stroke-linecap="square" stroke="#000000" font-family="MS Shell Dlg 2" font-weight="400"/>
  <g stroke-width="1" transform="matrix(11.808,0,0,11.808,0,0)" stroke-opacity="1" font-size="34.5833" fill="none" stroke-linejoin="bevel" font-style="normal" stroke-linecap="square" stroke="#000000" font-family="MS Shell Dlg 2" font-weight="400"/>
  <g stroke-width="1" transform="matrix(11.808,0,0,11.808,0,0)" stroke-opacity="1" font-size="34.5833" fill="none" stroke-linejoin="bevel" font-style="normal" stroke-linecap="square" stroke="#000000" font-family="MS Shell Dlg 2" font-weight="400"/>
  <g transform="matrix(11.808,0,0,11.808,0,0)" font-size="34.5833" fill-opacity="0" fill="#ffffff" font-style="normal" stroke="none" font-family="MS Shell Dlg 2" font-weight="400">
   <path fill-rule="evenodd" vector-effect="none" d="M0,0 L250,0 L250,250 L0,250 L0,0"/>
  </g>
  <g stroke-width="1" transform="matrix(11.808,0,0,11.808,0,0)" stroke-opacity="1" font-size="34.5833" fill="none" stroke-linejoin="bevel" font-style="normal" stroke-linecap="square" stroke="#000000" font-family="MS Shell Dlg 2" font-weight="400"/>
  <g stroke-width="1" transform="matrix(11.808,0,0,11.808,0,0)" stroke-opacity="1" font-size="34.5833" fill="none" stroke-linejoin="bevel" font-style="normal" stroke-linecap="square" stroke="#000000" font-family="MS Shell Dlg 2" font-weight="400"/>
  <g transform="matrix(0.999744,0,0,0.999744,0,0)" font-size="34.5833" fill-opacity="0" fill="#000000" font-style="normal" stroke="none" font-family="MS Shell Dlg 2" font-weight="400">
   <rect x="0" height="2953" width="2953" y="0"/>
  </g>
  <g stroke-width="1" transform="matrix(0.999744,0,0,0.999744,0,0)" stroke-opacity="1" font-size="34.5833" fill="none" stroke-linejoin="bevel" font-style="normal" stroke-linecap="square" stroke="#000000" font-family="MS Shell Dlg 2" font-weight="400"/>
  <g stroke-width="3.07087" transform="matrix(0.999744,0,0,0.999744,0,0)" stroke-opacity="1" font-size="34.5833" fill-opacity="1" fill="#c5c5c5" stroke-linejoin="bevel" font-style="normal" stroke-linecap="square" stroke="#5c5c5c" font-family="MS Shell Dlg 2" font-weight="400">
   <path fill-rule="evenodd" vector-effect="none" d="M1030.19,2118.3 L1030.99,2107.36 L1033.27,2100.44 L1037.64,2099.41 L1045.55,2092.03 L1051.58,2082.62 L1055.93,2080.75 L1068.1,2070.42 L1076.02,2060.45 L1077.78,2058.23 L1077.04,2050.19 L1075.04,2041.31 L1068.75,2036.98 L1067.22,2034.06 L1065.64,2024.45 L1065.85,2018.45 L1065.87,2017.67 L1065.99,2014.25 L1068.91,2011.26 L1069.83,2010.32 L1073.33,2006.74 L1073.89,2005.52 L1074.03,2005.21 L1074.6,2003.96 L1073.93,2000.03 L1073.08,1994.97 L1075.02,1990.96 L1075.99,1988.96 L1074.55,1986.58 L1071.85,1982.11 L1072.61,1976.58 L1073.11,1972.98 L1069.46,1968.41 L1065.22,1966.43 L1064.56,1965.37 L1059.56,1957.35 L1059.51,1956.45 L1059.39,1954.45 L1060.96,1949.97 L1060.13,1942.32 L1057.95,1940 L1057.64,1937.39 L1058.58,1931.86 L1058.94,1929.71 L1063.1,1925.4 L1067.06,1925.19 L1071.03,1926.42 L1079.9,1921.17 L1084.66,1919.46 L1085.66,1915.78 L1090.73,1911.55 L1095.63,1910.51 L1101.35,1911.51 L1110.06,1916.72 L1114.53,1915.28 L1117.74,1918.87 L1123.11,1916.65 L1123.12,1916.26 L1123.75,1898.18 L1124.46,1877.71 L1124.8,1867.79 L1126.24,1826.44 L1126.97,1805.26 L1128.99,1746.75 L1130.39,1706.55 L1131.66,1669.67 L1133.37,1620.25 L1135.01,1572.68 L1135.02,1572.57 L1137.16,1500.77 L1137.48,1490.31 L1138.4,1459.55 L1138.39,1459.31 L1136.03,1378.48 L1134.56,1327.92 L1134.54,1327.04 L1132.58,1240.82 L1132.58,1240.65 L1132.3,1232.55 L1130.3,1174.77 L1130.14,1170.21 L1130.11,1167.01 L1128.15,1106.62 L1128.15,1104.78 L1127.69,1089.32 L1127.39,1079.24 L1124.53,983.131 L1123.86,960.434 L1123.15,936.638 L1122.94,929.486 L1122.77,923.667 L1122.12,875.25 L1121.48,827.874 L1121.42,823.791 L1120.88,783.904 L1168.4,780.671 L1183.99,780.188 L1290.13,776.899 L1294.21,776.773 L1317.69,776.045 L1340.96,775.325 L1396.15,773.615 L1414.19,773.056 L1418.5,772.922 L1424.56,772.734 L1438.8,772.293 L1457.73,771.937 L1463.78,771.824 L1472.47,771.583 L1507.13,770.621 L1509.16,770.565 L1509.29,770.561 L1509.72,770.369 L1513.53,769.98 L1532.13,768.084 L1545.83,766.687 L1545.84,766.687 L1547.47,766.52 L1548.9,766.327 L1551.26,766.284 L1561.13,766.105 L1571.95,765.908 L1572.06,765.906 L1608.66,765.241 L1608.67,765.241 L1656.93,764.364 L1718.35,763.248 L1718.3,799.382 L1718.26,828.119 L1718.25,832.677 L1718.21,863.481 L1718.35,867.134 L1718.27,890.083 L1718.27,890.087 L1718.23,899.886 L1718.07,947.684 L1717.92,948.068 L1717.92,961.754 L1717.92,963.217 L1717.92,963.517 L1717.92,984.771 L1717.92,997.327 L1717.92,1003.69 L1717.92,1004.75 L1718.17,1004.7 L1725.22,1003.21 L1725.36,1003.18 L1725.57,1003.14 L1729.22,1002.44 L1732.95,1002.08 L1733.22,1002.06 L1741.23,1000.71 L1742.23,1000.52 L1745.38,1000.14 L1756.53,998.408 L1756.79,998.374 L1759.39,998.024 L1764.6,997.174 L1769.15,996.433 L1778.03,994.984 L1779.32,994.774 L1779.41,994.758 L1778.73,1002.13 L1778.55,1003.98 L1778.55,1004.36 L1777.96,1010.68 L1777.95,1010.72 L1776.41,1027.03 L1779.17,1037.57 L1780.65,1043.21 L1780.66,1043.22 L1781.25,1045.47 L1786.13,1064.09 L1785.42,1066.12 L1775.16,1095.53 L1774.41,1097.68 L1774.98,1099.79 L1776.41,1102.18 L1784.42,1115.53 L1781.12,1118.85 L1780.99,1118.99 L1778.13,1122.25 L1773.49,1126.94 L1770.55,1129.92 L1769.13,1133.98 L1767.26,1139.33 L1778.7,1166.38 L1778.95,1167.16 L1778.97,1167.24 L1779.13,1167.72 L1778.93,1168.94 L1778.55,1171.17 L1778.55,1175.2 L1777.3,1179.91 L1776.41,1183.26 L1776.55,1186.9 L1778.55,1190.74 L1783.56,1193.62 L1786.28,1194.19 L1788.71,1198.41 L1791.68,1205.98 L1792.86,1208.96 L1792.71,1217.01 L1794.86,1221.04 L1809.12,1229.37 L1809.3,1229.47 L1811.31,1230.61 L1838.05,1245.74 L1842.24,1248.11 L1857.05,1256.49 L1889.95,1275.1 L1899.46,1289.63 L1903.19,1295.34 L1912.91,1310.2 L1913.04,1310.39 L1940.22,1351.92 L1940.86,1352.89 L1942.28,1355.2 L1937.88,1364.77 L1930.58,1371.56 L1919.12,1379.62 L1915.29,1378.36 L1915.26,1378.39 L1912.23,1380.74 L1912.91,1385.16 L1916.24,1395.97 L1916.99,1398.41 L1923.92,1410.47 L1928.2,1418.46 L1928.19,1418.63 L1927.19,1428.66 L1925.15,1436.47 L1922.77,1441.23 L1920.05,1441.23 L1914.27,1434.43 L1905.77,1442.25 L1901.36,1450.75 L1899.66,1466.72 L1896.6,1470.46 L1895.92,1477.26 L1892.57,1485.19 L1892.46,1485.17 L1887.42,1484.39 L1881.85,1480.69 L1877.53,1466.35 L1878.81,1461.64 L1880.97,1456.86 L1878.92,1451.77 L1874.51,1449.39 L1867.1,1440.38 L1866.69,1439.87 L1864.53,1433.15 L1862.82,1427.81 L1863.25,1425.61 L1864.29,1420.35 L1864.38,1419.87 L1864.99,1416.76 L1864.92,1416.73 L1860.23,1414.38 L1855.48,1408.95 L1852.76,1412.68 L1850.38,1414.38 L1852.42,1428.03 L1848.26,1447.3 L1844.26,1451.43 L1837.8,1455.17 L1838.14,1463.66 L1835.95,1471.92 L1832.75,1471.06 L1829.39,1461.86 L1827.61,1453.13 L1826.03,1427.81 L1830.99,1410.25 L1836.27,1410.68 L1844.58,1397.62 L1845.24,1391.04 L1847.3,1370.2 L1841.4,1361.5 L1836.46,1354.22 L1836.1,1358.65 L1832.68,1362.97 L1829.31,1362.73 L1826.93,1358.99 L1823.33,1350.87 L1826.51,1339.56 L1824.55,1333.84 L1818.83,1331.69 L1815.15,1330.3 L1813.55,1329.7 L1801.97,1327.09 L1800.16,1326.68 L1778.33,1327.72 L1775.95,1319.56 L1775.95,1317.02 L1775.95,1308.69 L1771.19,1305.97 L1765.75,1294.75 L1759.98,1288.98 L1759.59,1288.98 L1754.93,1288.98 L1754.82,1288.98 L1749.1,1288.98 L1749.78,1285.92 L1748.76,1280.48 L1745.59,1277.8 L1747.74,1269.6 L1747.15,1265.01 L1747.13,1264.91 L1746.38,1259.07 L1745.53,1257.44 L1742.3,1251.25 L1735.17,1251.59 L1739.72,1240.36 L1740.26,1239.02 L1739.92,1231.2 L1741.62,1226.78 L1740.22,1224.68 L1737.55,1220.67 L1733.82,1220.32 L1732.45,1215.57 L1732.24,1215.51 L1718.51,1211.83 L1716.82,1212.22 L1705.26,1214.89 L1703.56,1219.98 L1704.31,1222.43 L1704.54,1223.18 L1706.16,1228.43 L1706.28,1228.82 L1708.34,1233.77 L1712.5,1243.73 L1712.48,1246.28 L1712.4,1259.75 L1714.91,1263.2 L1718.65,1268.31 L1718.85,1268.58 L1720.11,1279.87 L1720.21,1280.82 L1719.53,1287.28 L1725.99,1290.68 L1719.89,1299.82 L1719.41,1300.55 L1719.19,1300.87 L1719.4,1307.01 L1719.53,1311.07 L1718.93,1321.55 L1718.85,1322.96 L1723.12,1330.14 L1725.31,1333.84 L1734.12,1339.81 L1734.83,1340.29 L1743.32,1341.99 L1752.84,1340.47 L1752.84,1343.52 L1742.83,1351.43 L1740.78,1353.06 L1740.78,1360.18 L1742.64,1366.29 L1741.31,1372.2 L1740.88,1374.11 L1740.94,1387.37 L1745.02,1390.76 L1741.96,1397.56 L1735.54,1401.46 L1732.45,1403.34 L1729.73,1416.25 L1730.38,1427.81 L1723.34,1439.16 L1717.42,1437.88 L1711.38,1430.87 L1706.23,1429.1 L1704.95,1412.39 L1706.35,1408.47 L1706.87,1407.04 L1705.27,1405.76 L1703.9,1405.92 L1694.38,1407.08 L1689.89,1406.83 L1665.92,1405.54 L1648.91,1401.57 L1643.4,1400.28 L1632.65,1401.26 L1630.15,1397.7 L1631.85,1394.4 L1627.16,1392.66 L1626.09,1392.26 L1621.24,1399.43 L1621.49,1399.69 L1624.71,1403 L1624.71,1408.44 L1624.32,1418.98 L1632.53,1423.05 L1633.21,1427.13 L1626.1,1430.29 L1625.39,1434.6 L1628.17,1443.44 L1631.21,1441.23 L1634.23,1439.02 L1648.8,1437.45 L1655.36,1431.24 L1666.52,1441.74 L1679.43,1445.82 L1679.09,1456.02 L1679.06,1463.67 L1679.04,1468.22 L1680.89,1501.01 L1681,1502.92 L1687.25,1514.13 L1686.91,1517.87 L1679.43,1524.67 L1680.45,1529.09 L1688.27,1536.9 L1685.55,1544.04 L1682.11,1545.29 L1681.92,1545.36 L1678.07,1546.76 L1674.67,1545.4 L1667.53,1557.29 L1671.27,1561.71 L1686.59,1561.01 L1686.91,1565.45 L1686.37,1587.08 L1676.56,1592.03 L1676.03,1592.3 L1663.75,1593.85 L1663.3,1593.99 L1649.42,1598.14 L1648.5,1598.42 L1635.25,1609.97 L1636.27,1602.15 L1633.21,1595.36 L1625.39,1598.76 L1628.45,1606.91 L1624.48,1607.9 L1624.72,1609.86 L1625.39,1615.41 L1629,1617.63 L1629.81,1618.13 L1637.29,1622.89 L1629.68,1628.61 L1630.89,1633.43 L1636.95,1636.48 L1640.46,1638.63 L1643.07,1640.22 L1644.51,1641.59 L1646.99,1643.94 L1649.52,1646.34 L1651.9,1651.77 L1647.36,1662.04 L1650.8,1667.99 L1656.33,1663.32 L1657.31,1664.48 L1658.36,1665.71 L1655.57,1670.91 L1653.62,1674.53 L1658.7,1683.72 L1666.52,1688.48 L1665.83,1696.3 L1669.04,1700.08 L1669.57,1700.71 L1669,1704.37 L1670.56,1713.57 L1670.4,1726.6 L1663.76,1750.76 L1661.12,1760.35 L1661.93,1770.68 L1665.16,1772.76 L1662.07,1776.86 L1662.78,1789.08 L1666.08,1791.95 L1666.56,1799.85 L1665.44,1809.93 L1663.96,1811.92 L1661.5,1815.21 L1658.88,1809.87 L1652.24,1810.15 L1647.8,1813.78 L1647.54,1823.28 L1648.84,1831.9 L1653.6,1836.32 L1654.84,1841.7 L1653.36,1845.28 L1648.49,1847.36 L1645.87,1854.32 L1647.23,1858.3 L1643.69,1862.7 L1637.24,1869.07 L1636.95,1873.02 L1635.91,1873.77 L1633.7,1875.34 L1631.38,1872.76 L1630.57,1869.56 L1621.77,1875.13 L1613.64,1883.76 L1613.57,1883.84 L1613.56,1883.85 L1613.52,1883.89 L1612.55,1884.92 L1611.9,1885.61 L1613.03,1890.38 L1613.11,1890.7 L1612.56,1895.11 L1613.3,1905.89 L1613.37,1906.9 L1616.48,1914.6 L1616.48,1916.34 L1616.49,1920.37 L1616.01,1930.06 L1612.58,1933.32 L1611.38,1938.74 L1607.05,1942.56 L1602.64,1946.07 L1602.35,1951.89 L1600.61,1956.6 L1595.51,1958.13 L1593.12,1960.66 L1591.1,1964.06 L1584.63,1974.99 L1571.35,2002.17 L1573.16,2013.43 L1576.74,2020.13 L1576.36,2022.62 L1576.11,2024.26 L1570.7,2021.99 L1566.36,2021.9 L1564.18,2020.21 L1564.56,2016.44 L1556.06,2008.96 L1552.66,2003.19 L1544.58,1997.67 L1529.6,1995.7 L1519.94,1993.25 L1516.16,1992.93 L1513.29,1992.69 L1510.98,1992.49 L1503.66,1993.3 L1501.14,1994.65 L1498.19,1996.22 L1495.52,1999.33 L1490.28,1999.94 L1484.01,1997.98 L1475.03,1997.25 L1459.23,2001.11 L1443.96,2004.84 L1425.66,2009.32 L1413.28,2014.89 L1408.56,2015.08 L1405.6,2015.61 L1396.5,2017.22 L1382.18,2019.03 L1371.23,2022.42 L1369.14,2023.29 L1367.15,2024.12 L1358.61,2027.66 L1350.99,2033.43 L1350.49,2033.39 L1344.5,2032.99 L1279.85,2057.45 L1272.89,2059.43 L1267.52,2060.96 L1263.42,2065.4 L1260.46,2068.6 L1255.4,2073.71 L1239.86,2079.79 L1237.07,2079.42 L1233.13,2078.88 L1228.08,2077.89 L1220.96,2078.55 L1218.87,2078.74 L1195.93,2085.49 L1192.84,2087.76 L1188.93,2090.62 L1175.52,2084.74 L1173.03,2084.51 L1172.67,2084.48 L1167.85,2084.04 L1157.4,2085.72 L1139.88,2089.98 L1124.66,2093.78 L1101.4,2099.57 L1097.87,2100.45 L1092.02,2102.4 L1071.53,2109.23 L1068.15,2110.69 L1055.05,2116.39 L1037.68,2126.95 L1037.62,2126.86 L1034.15,2121.04 L1030.04,2120.34 L1030.19,2118.3"/>
   <path fill-rule="evenodd" vector-effect="none" d="M1746.78,1824.86 L1747.64,1824.28 L1751.61,1821.6 L1758.17,1817.19 L1759.3,1816.43 L1766.37,1813.28 L1774.93,1803.52 L1782.64,1792.12 L1785.59,1799.34 L1782.75,1811.68 L1783.28,1815.67 L1800.91,1803.98 L1801.1,1803.86 L1807.38,1801.79 L1811.12,1800.57 L1810.06,1791.19 L1808.91,1781.09 L1806.91,1780.78 L1804.5,1780.41 L1802.12,1774.63 L1802,1768.35 L1801.81,1758.84 L1801.8,1758.16 L1801.68,1751.84 L1794.99,1749.6 L1790.86,1743.03 L1791.58,1732.49 L1795.32,1729.99 L1796.68,1726.03 L1791.12,1722.92 L1790.66,1722.67 L1795.36,1716.39 L1796.02,1715.51 L1801.44,1713.12 L1805.32,1720.06 L1805.61,1720.56 L1812.65,1719.58 L1816.63,1716.17 L1817.41,1715.5 L1809.25,1706.66 L1806.89,1700.97 L1816.59,1688 L1823.19,1682.53 L1823.19,1675.73 L1818.83,1673.6 L1819.68,1668.12 L1824.8,1655.2 L1826.67,1650.49 L1826.82,1650.09 L1829.52,1643.27 L1832.45,1639.24 L1833.04,1638.42 L1839.5,1629.51 L1842.81,1621.31 L1851.21,1617.82 L1851.37,1617.76 L1855.99,1610.39 L1857.51,1606.06 L1855.14,1599.6 L1850.37,1599.73 L1855.29,1582.65 L1855.81,1581.25 L1862.1,1580.37 L1862.41,1580.33 L1872.72,1553.3 L1874.19,1537.9 L1871.6,1532.49 L1870.16,1529.48 L1874.98,1520.79 L1885.04,1518.38 L1890.48,1514.3 L1893.54,1503.11 L1898.48,1498.41 L1902.08,1494.98 L1904.69,1492.49 L1911.55,1490.51 L1913.15,1491.31 L1916.99,1493.23 L1925.49,1493.23 L1930.21,1489.72 L1931.6,1483.72 L1941.46,1476.58 L1943.84,1469.78 L1945.88,1462.98 L1948.66,1460.36 L1950.3,1464 L1953.01,1478.28 L1953.35,1484.73 L1954.03,1491.87 L1957.82,1491.87 L1960.83,1491.87 L1962.19,1485.75 L1966.27,1465.02 L1972.48,1450.29 L1983.97,1423 L1985.76,1423.55 L1990.35,1424.67 L1990.35,1424.53 L2000.14,1426.9 L2000.14,1426.9 L2004.49,1427.95 L2012.07,1430.06 L2011.93,1435.42 L2011.92,1435.61 L2011.92,1436.38 L2031.86,1441.21 L2043.53,1444.03 L2055.13,1446.53 L2070.41,1450.92 L2071.12,1450.92 L2073.7,1451.69 L2074.01,1454.29 L2071.42,1487.74 L2071.42,1487.86 L2071.11,1492.28 L2069.71,1512.1 L2069.69,1512.34 L2062.86,1520.97 L2061.37,1535.92 L2062.23,1552.5 L2062.29,1553.08 L2062.69,1556.91 L2065.6,1560.11 L2067.11,1561.77 L2075.51,1578.29 L2075.69,1579.57 L2075.95,1581.37 L2081.23,1636.95 L2082.7,1652.34 L2088.69,1715.42 L2091.31,1762.6 L2078.93,1764.83 L2071.13,1768.02 L2068.01,1769.3 L2066.2,1771.59 L2061.97,1776.94 L2063.21,1784.73 L2064.83,1789.33 L2060.04,1793.59 L2055.31,1793.66 L2054.29,1798.76 L2050.8,1801.53 L2048,1803.89 L2042.95,1802.22 L2035.97,1803.57 L2031.95,1807.34 L2030.5,1811.68 L2024.43,1812.31 L2020.3,1818.08 L2020.44,1826.49 L2022.56,1831.3 L2020,1832.89 L2015.46,1831.36 L2012.72,1834.35 L2009.31,1832.53 L2005.55,1834.57 L1997.35,1833.53 L1986.34,1840.95 L1984.93,1835.91 L1982.23,1831.95 L1982.59,1825 L1988.67,1821.55 L1988.52,1814.15 L1989.28,1806.67 L1992.01,1799.2 L1991.79,1787.73 L1978.61,1773.44 L1978.18,1766.3 L1976.85,1764.32 L1974.5,1760.82 L1968.61,1759.23 L1976.61,1730.29 L1974.83,1725.15 L1970.91,1721.25 L1970.88,1713.15 L1967.29,1707.34 L1965.93,1702.58 L1970.69,1679.81 L1967.97,1674.71 L1960.24,1671.11 L1958.34,1670.22 L1955.39,1668.6 L1955.05,1656.02 L1958.45,1651.94 L1957.09,1647.53 L1948.26,1644.47 L1948.26,1639.37 L1950.98,1638.01 L1956.08,1637.72 L1959.48,1637.53 L1963.14,1637.32 L1965.37,1622.05 L1965.79,1602.66 L1957.09,1597.91 L1956.75,1593.49 L1964.23,1584.65 L1964.57,1578.19 L1970.01,1577.52 L1972.39,1574.12 L1971.37,1569.7 L1966.61,1565.4 L1959.64,1547.4 L1959.98,1531.69 L1960.18,1528.64 L1960.57,1522.7 L1954.63,1517.91 L1953.69,1518.51 L1949.62,1521.1 L1944.52,1523.14 L1925.49,1526.2 L1923.7,1527.31 L1923.49,1527.44 L1920.04,1529.58 L1919.53,1529.9 L1919.03,1553.38 L1918.35,1557.8 L1916.64,1576.67 L1916.04,1583.4 L1915.39,1590.55 L1919.86,1600.74 L1923.7,1609.5 L1927.86,1611.5 L1926.07,1614.9 L1925.89,1633.58 L1923.11,1645.49 L1924.81,1652.96 L1929.34,1654.99 L1929.56,1657.72 L1929.39,1658.34 L1927.86,1663.84 L1925.51,1672 L1927.86,1678.11 L1925.34,1689.26 L1928.01,1695.59 L1936.36,1699.86 L1937.71,1703.69 L1935.63,1716.59 L1929.91,1730.86 L1929.9,1730.9 L1926.08,1736.85 L1919.49,1747.13 L1919.48,1754.48 L1911.01,1768.68 L1909.93,1776.37 L1911.8,1782.85 L1917.63,1785.71 L1923.59,1783.74 L1924.58,1783.41 L1925.18,1789.48 L1924.47,1796.72 L1921.27,1795.8 L1919.86,1803.77 L1919.52,1805.7 L1913.2,1810.65 L1911.89,1811.68 L1910.74,1810.6 L1909.29,1809.25 L1910.29,1803.32 L1911.97,1793.42 L1902.39,1784.64 L1895.21,1781.36 L1885.09,1778.92 L1881.18,1780.18 L1881.02,1780.23 L1879.27,1788.23 L1871.28,1796.19 L1868.15,1795.84 L1860.11,1780.67 L1855.94,1779.88 L1855.14,1779.73 L1855.07,1779.74 L1847.66,1781.43 L1843.02,1784.8 L1842.05,1785.51 L1840.18,1786.87 L1839.99,1790.86 L1839.73,1796.23 L1838.94,1803.87 L1838.47,1808.42 L1840.63,1817.7 L1838.55,1818.53 L1834.12,1820.3 L1833.54,1821.22 L1829.21,1828.13 L1830.8,1834.56 L1830.56,1835.58 L1828.67,1843.66 L1828.46,1844.56 L1819.31,1851.02 L1818.45,1851.62 L1816.59,1850.48 L1818.77,1844.64 L1816.39,1841.92 L1810.61,1845.66 L1808.82,1843.19 L1806.87,1842.89 L1804.13,1842.47 L1803.03,1843.65 L1797.02,1850.08 L1789.88,1848.38 L1785.04,1854.08 L1780.85,1855.25 L1780.36,1854.05 L1777.98,1848.24 L1771.58,1845.47 L1767.79,1847.83 L1761.68,1851.62 L1761.01,1851.89 L1754.62,1854.43 L1750.87,1839.76 L1749.44,1834.45 L1744.23,1832.87 L1746.78,1824.86"/>
   <path fill-rule="evenodd" vector-effect="none" d="M1387,2404.63 L1390.72,2400.14 L1390.66,2389.25 L1392.4,2382.88 L1394.36,2380.73 L1394.63,2375.91 L1397.82,2363.1 L1403.93,2361.06 L1409.41,2357.32 L1412.94,2351.22 L1415.19,2345.42 L1415.87,2331.24 L1420.72,2335.71 L1421.08,2335.23 L1426.01,2328.69 L1433.47,2322.75 L1436.49,2311.91 L1438.77,2308.21 L1439.06,2299.25 L1439.64,2281.82 L1437.68,2269.8 L1442.42,2276.25 L1448.24,2281 L1451.57,2282.27 L1454.7,2281.74 L1459.33,2283.14 L1463.1,2288.05 L1464.95,2292.69 L1468.89,2297.54 L1471.46,2304.54 L1469.32,2313.36 L1465.9,2320.59 L1461.01,2328.02 L1457.08,2337.96 L1453.81,2351.58 L1453.9,2359.04 L1456.3,2367.79 L1461.12,2375.21 L1463.78,2378.08 L1464.34,2378.68 L1465.96,2380.43 L1470.66,2379.66 L1470.72,2379.89 L1473.14,2387.84 L1476.95,2392.27 L1485.21,2395.83 L1483.57,2398.6 L1486.03,2402.65 L1483.8,2405.23 L1483.75,2409.93 L1481.49,2417.15 L1474.48,2420.89 L1467.94,2421.17 L1460.86,2423.22 L1454.55,2426.03 L1450.58,2425.35 L1440.74,2427.49 L1436.42,2428.67 L1433.65,2425.87 L1427.69,2427.53 L1423.83,2427.83 L1414.79,2431.1 L1412.22,2429.14 L1405.79,2429.98 L1389.24,2416.73 L1387,2404.63"/>
   <path fill-rule="evenodd" vector-effect="none" d="M1690.96,1832.28 L1693.1,1826.68 L1697.61,1825.08 L1699.74,1820.3 L1697.35,1812.33 L1695.22,1807.81 L1696.55,1797.98 L1694.42,1786.55 L1695.32,1782.59 L1691.77,1779.11 L1690.97,1776.19 L1692.56,1771.14 L1696.28,1770.61 L1697.58,1772.59 L1702.66,1773.26 L1707.7,1771.36 L1711.04,1770.96 L1714.62,1769.54 L1713.7,1765.34 L1713.29,1763.43 L1715.42,1755.73 L1721.91,1748.28 L1721.71,1747.06 L1721.53,1745.89 L1716.07,1742.07 L1713.29,1737.13 L1704.62,1729.9 L1702.4,1724.1 L1703,1711.01 L1707.71,1691.95 L1710.4,1686.73 L1712.23,1683.18 L1710.9,1670.2 L1712.49,1665.38 L1713.95,1649.36 L1715.01,1646.49 L1718.34,1645.45 L1718.47,1637.16 L1721.75,1628.27 L1729.48,1617.87 L1732.1,1617.11 L1734.38,1616.44 L1743.86,1622.37 L1744.91,1632.43 L1746.22,1634.82 L1749.14,1650.18 L1748.37,1666.45 L1745.71,1674.15 L1742.26,1678.66 L1741.99,1682.12 L1743.32,1690.09 L1745.18,1695.67 L1747.04,1707.36 L1746.72,1712.69 L1744.12,1722.24 L1741.19,1725.96 L1740.93,1731.01 L1740.95,1731.15 L1741.47,1734.77 L1744.12,1738.45 L1747.3,1738.45 L1749.16,1737.39 L1752.35,1741.11 L1750.49,1751.47 L1744.41,1755.46 L1740.4,1759.98 L1739.69,1766.8 L1739.6,1767.68 L1744.37,1777.39 L1747.71,1784.17 L1749.7,1790.01 L1754.74,1793.73 L1757.4,1795.05 L1757.08,1798.03 L1753.15,1797.44 L1750.76,1801.43 L1742.89,1802.63 L1737.21,1800.1 L1732.16,1800.63 L1730.56,1804.62 L1727.37,1807.81 L1724.98,1805.68 L1722.86,1797.18 L1722.86,1790.54 L1721.53,1784.16 L1719.4,1779.11 L1715.42,1779.38 L1711.43,1781.24 L1712.76,1785.75 L1713.63,1790.52 L1713.56,1799.04 L1717.28,1810.47 L1718.07,1818.7 L1715.23,1824.95 L1713.91,1826.24 L1710.63,1825.35 L1707.44,1823.49 L1705.85,1826.14 L1707.08,1832.92 L1705.66,1843.53 L1697.42,1849.31 L1692.37,1855.83 L1690.64,1843.66 L1690.96,1832.28"/>
   <path fill-rule="evenodd" vector-effect="none" d="M1757.79,1475.87 L1759.2,1472.45 L1762.82,1472.85 L1764.83,1468.63 L1766.64,1465.62 L1768.45,1464.61 L1771.66,1465.62 L1772.87,1463.81 L1772.06,1461.72 L1769.05,1460.79 L1763.22,1457.37 L1761.01,1454.56 L1761.81,1452.35 L1765.63,1449.53 L1767.64,1445.51 L1764.83,1441.69 L1770.66,1438.48 L1771.46,1444.1 L1771.8,1449.02 L1780.91,1455.76 L1781.1,1457.53 L1778.5,1461.39 L1780.31,1469.44 L1784.73,1475.87 L1788.35,1482.91 L1786.94,1486.73 L1782.52,1486.53 L1784.73,1482.1 L1783.72,1479.09 L1781.71,1477.28 L1779.4,1479.18 L1773.77,1482.05 L1770.86,1485.32 L1772.31,1490.35 L1776.69,1490.75 L1778.9,1495.77 L1783.12,1497.38 L1785.13,1500.8 L1790.83,1503.56 L1796.39,1506.03 L1810.26,1506.63 L1812.94,1509.38 L1814.69,1513.26 L1823.13,1516.48 L1824.28,1520.73 L1828.96,1530.76 L1829.42,1541.62 L1829.7,1548.23 L1828.56,1551.46 L1830.97,1556.09 L1827.75,1558.1 L1826.03,1564.1 L1823.93,1568.35 L1823.63,1571.62 L1821.14,1576.51 L1815.49,1589.66 L1812.27,1596.3 L1810.87,1598.91 L1803.84,1603.03 L1797.42,1607.61 L1790.13,1604.29 L1783.34,1593.63 L1781.77,1576.82 L1786.49,1555.46 L1790.16,1553.47 L1792.48,1549.27 L1791.77,1545.43 L1796.7,1535.85 L1798.2,1520.5 L1795.59,1516.28 L1793.51,1516.55 L1786.14,1510.65 L1781.31,1506.83 L1770.46,1504.82 L1767.04,1506.83 L1762.21,1501.81 L1760.04,1492.21 L1758.59,1488.54 L1759,1481.1 L1757.79,1475.87"/>
   <path fill-rule="evenodd" vector-effect="none" d="M1851.88,1479.49 L1854.09,1475.67 L1861.1,1474.45 L1865.96,1476.17 L1868.16,1483.17 L1868.57,1489.14 L1873.79,1492.96 L1874.6,1495.77 L1867.57,1493.92 L1857.92,1494.37 L1855.7,1496.18 L1854.9,1493.96 L1855.7,1489.43 L1851.68,1484.51 L1851.88,1479.49"/>
   <path fill-rule="evenodd" vector-effect="none" d="M1738.89,1450.54 L1742.11,1450.94 L1745.93,1451.54 L1747.94,1449.73 L1756.58,1452.35 L1758.39,1455.97 L1757.19,1459.38 L1755.38,1463.61 L1754.17,1467.02 L1751.56,1468.63 L1748.94,1471.25 L1745.32,1468.83 L1743.11,1459.79 L1742.31,1456.57 L1739.9,1453.96 L1738.89,1450.54"/>
   <path fill-rule="evenodd" vector-effect="none" d="M1731.45,1566.94 L1735.47,1562.72 L1737.68,1559.1 L1738.49,1555.28 L1741.1,1553.88 L1744.12,1553.88 L1743.31,1556.29 L1744.12,1559.91 L1742.11,1563.93 L1735.47,1570.16 L1732.26,1571.77 L1729.84,1571.57 L1731.45,1566.94"/>
   <path fill-rule="evenodd" vector-effect="none" d="M1685.65,1749.35 L1688.31,1746.96 L1692.3,1745.1 L1695.49,1745.89 L1697.08,1750.68 L1694.16,1754.4 L1691.77,1758.12 L1688.84,1757.59 L1685.92,1764.76 L1686.45,1756.26 L1687.51,1752.01 L1685.65,1749.35"/>
   <path fill-rule="evenodd" vector-effect="none" d="M1793.53,1772.37 L1796.2,1770.87 L1798.06,1776.72 L1798.48,1781.4 L1797,1788.68 L1794.96,1790.21 L1793.28,1782.3 L1793.53,1772.37"/>
   <path fill-rule="evenodd" vector-effect="none" d="M1769.09,1687.17 L1770.42,1685.31 L1773.08,1689.29 L1774.14,1695.67 L1773.88,1702.31 L1771.22,1702.05 L1769.09,1701.25 L1768.56,1692.48 L1769.09,1687.17"/>
   <path fill-rule="evenodd" vector-effect="none" d="M1832.58,1594.09 L1836.8,1595.49 L1837.61,1598.91 L1838.01,1601.52 L1838.81,1605.35 L1836,1605.35 L1833.58,1603.74 L1832.98,1599.11 L1832.58,1594.09"/>
   <path fill-rule="evenodd" vector-effect="none" d="M1773.08,1762.9 L1775.74,1756.79 L1777.86,1759.98 L1779.46,1765.03 L1779.46,1767.42 L1773.08,1767.42 L1773.08,1762.9"/>
  </g>
  <g stroke-width="1" transform="matrix(0.999744,0,0,0.999744,0,0)" stroke-opacity="1" font-size="34.5833" fill="none" stroke-linejoin="bevel" font-style="normal" stroke-linecap="square" stroke="#000000" font-family="MS Shell Dlg 2" font-weight="400"/>
  <g stroke-width="1" transform="matrix(11.808,0,0,11.808,0,0)" stroke-opacity="1" font-size="34.5833" fill="none" stroke-linejoin="bevel" font-style="normal" stroke-linecap="square" stroke="#000000" font-family="MS Shell Dlg 2" font-weight="400"/>
  <g stroke-width="1" transform="matrix(11.808,0,0,11.808,0,0)" stroke-opacity="1" font-size="34.5833" fill="none" stroke-linejoin="bevel" font-style="normal" stroke-linecap="square" stroke="#000000" font-family="MS Shell Dlg 2" font-weight="400"/>
  <g stroke-width="1" transform="matrix(11.808,0,0,11.808,0,0)" stroke-opacity="1" font-size="34.5833" fill="none" stroke-linejoin="bevel" font-style="normal" stroke-linecap="square" stroke="#000000" font-family="MS Shell Dlg 2" font-weight="400"/>
  <g stroke-width="1" transform="matrix(1,0,0,1,0,0)" stroke-opacity="1" font-size="34.5833" fill="none" stroke-linejoin="bevel" font-style="normal" stroke-linecap="square" stroke="#000000" font-family="MS Shell Dlg 2" font-weight="400"/>
  <g stroke-width="1" transform="matrix(11.808,0,0,11.808,0,0)" stroke-opacity="1" font-size="34.5833" fill="none" stroke-linejoin="bevel" font-style="normal" stroke-linecap="square" stroke="#000000" font-family="MS Shell Dlg 2" font-weight="400"/>
  <g stroke-width="1" transform="matrix(11.808,0,0,11.808,0,0)" stroke-opacity="1" font-size="34.5833" fill="none" stroke-linejoin="bevel" font-style="normal" stroke-linecap="square" stroke="#000000" font-family="MS Shell Dlg 2" font-weight="400"/>
  <g stroke-width="1" transform="matrix(11.808,0,0,11.808,0,0)" stroke-opacity="1" font-size="34.5833" fill="none" stroke-linejoin="bevel" font-style="normal" stroke-linecap="square" stroke="#000000" font-family="MS Shell Dlg 2" font-weight="400"/>
  <g stroke-width="1" transform="matrix(11.808,0,0,11.808,0,0)" stroke-opacity="1" font-size="34.5833" fill="none" stroke-linejoin="bevel" font-style="normal" stroke-linecap="square" stroke="#000000" font-family="MS Shell Dlg 2" font-weight="400"/>
  <g stroke-width="1" transform="matrix(1,0,0,1,0,0)" stroke-opacity="1" font-size="34.5833" fill="none" stroke-linejoin="bevel" font-style="normal" stroke-linecap="square" stroke="#000000" font-family="MS Shell Dlg 2" font-weight="400"/>
 </g>
</svg>
