<?xml version='1.0' encoding='UTF-8' standalone='no'?>
<svg xmlns:xlink="http://www.w3.org/1999/xlink" baseProfile="tiny" xmlns="http://www.w3.org/2000/svg" height="249.936mm" viewBox="0 0 2952 2952" width="249.936mm" version="1.2">
 <title>Qt SVG Document</title>
 <desc>Generated with Qt</desc>
 <defs/>
 <g stroke-width="1" fill-rule="evenodd" fill="none" stroke-linejoin="bevel" stroke-linecap="square" stroke="black">
  <g stroke-width="1" transform="matrix(1,0,0,1,0,0)" stroke-opacity="1" font-size="34.5833" fill="none" stroke-linejoin="bevel" font-style="normal" stroke-linecap="square" stroke="#000000" font-family="MS Shell Dlg 2" font-weight="400"/>
  <g stroke-width="1" transform="matrix(1,0,0,1,0,0)" stroke-opacity="1" font-size="34.5833" fill="none" stroke-linejoin="bevel" font-style="normal" stroke-linecap="square" stroke="#000000" font-family="MS Shell Dlg 2" font-weight="400"/>
  <g stroke-width="1" transform="matrix(11.808,0,0,11.808,0,0)" stroke-opacity="1" font-size="34.5833" fill="none" stroke-linejoin="bevel" font-style="normal" stroke-linecap="square" stroke="#000000" font-family="MS Shell Dlg 2" font-weight="400"/>
  <g stroke-width="1" transform="matrix(0.999744,0,0,0.999744,0,0)" stroke-opacity="1" font-size="34.5833" fill="none" stroke-linejoin="bevel" font-style="normal" stroke-linecap="square" stroke="#000000" font-family="MS Shell Dlg 2" font-weight="400"/>
  <g transform="matrix(0.999744,0,0,0.999744,0,0)" font-size="34.5833" fill-opacity="0" fill="#ffffff" font-style="normal" stroke="none" font-family="MS Shell Dlg 2" font-weight="400">
   <path fill-rule="evenodd" vector-effect="none" d="M-2,-2 L2955,-2 L2955,2955 L-2,2955 L-2,-2"/>
  </g>
  <g stroke-width="1" transform="matrix(0.999744,0,0,0.999744,0,0)" stroke-opacity="1" font-size="34.5833" fill="none" stroke-linejoin="bevel" font-style="normal" stroke-linecap="square" stroke="#000000" font-family="MS Shell Dlg 2" font-weight="400"/>
  <g stroke-width="1" transform="matrix(11.808,0,0,11.808,0,0)" stroke-opacity="1" font-size="34.5833" fill="none" stroke-linejoin="bevel" font-style="normal" stroke-linecap="square" stroke="#000000" font-family="MS Shell Dlg 2" font-weight="400"/>
  <g stroke-width="1" transform="matrix(11.808,0,0,11.808,0,0)" stroke-opacity="1" font-size="34.5833" fill="none" stroke-linejoin="bevel" font-style="normal" stroke-linecap="square" stroke="#000000" font-family="MS Shell Dlg 2" font-weight="400"/>
  <g stroke-width="1" transform="matrix(11.808,0,0,11.808,0,0)" stroke-opacity="1" font-size="34.5833" fill="none" stroke-linejoin="bevel" font-style="normal" stroke-linecap="square" stroke="#000000" font-family="MS Shell Dlg 2" font-weight="400"/>
  <g stroke-width="1" transform="matrix(11.808,0,0,11.808,0,0)" stroke-opacity="1" font-size="34.5833" fill="none" stroke-linejoin="bevel" font-style="normal" stroke-linecap="square" stroke="#000000" font-family="MS Shell Dlg 2" font-weight="400"/>
  <g stroke-width="1" transform="matrix(11.808,0,0,11.808,0,0)" stroke-opacity="1" font-size="34.5833" fill="none" stroke-linejoin="bevel" font-style="normal" stroke-linecap="square" stroke="#000000" font-family="MS Shell Dlg 2" font-weight="400"/>
  <g transform="matrix(11.808,0,0,11.808,0,0)" font-size="34.5833" fill-opacity="0" fill="#ffffff" font-style="normal" stroke="none" font-family="MS Shell Dlg 2" font-weight="400">
   <path fill-rule="evenodd" vector-effect="none" d="M0,0 L250,0 L250,250 L0,250 L0,0"/>
  </g>
  <g stroke-width="1" transform="matrix(11.808,0,0,11.808,0,0)" stroke-opacity="1" font-size="34.5833" fill="none" stroke-linejoin="bevel" font-style="normal" stroke-linecap="square" stroke="#000000" font-family="MS Shell Dlg 2" font-weight="400"/>
  <g stroke-width="1" transform="matrix(11.808,0,0,11.808,0,0)" stroke-opacity="1" font-size="34.5833" fill="none" stroke-linejoin="bevel" font-style="normal" stroke-linecap="square" stroke="#000000" font-family="MS Shell Dlg 2" font-weight="400"/>
  <g transform="matrix(0.999744,0,0,0.999744,0,0)" font-size="34.5833" fill-opacity="0" fill="#000000" font-style="normal" stroke="none" font-family="MS Shell Dlg 2" font-weight="400">
   <rect x="0" height="2953" width="2953" y="0"/>
  </g>
  <g stroke-width="1" transform="matrix(0.999744,0,0,0.999744,0,0)" stroke-opacity="1" font-size="34.5833" fill="none" stroke-linejoin="bevel" font-style="normal" stroke-linecap="square" stroke="#000000" font-family="MS Shell Dlg 2" font-weight="400"/>
  <g stroke-width="3.07087" transform="matrix(0.999744,0,0,0.999744,0,0)" stroke-opacity="1" font-size="34.5833" fill-opacity="1" fill="#c5c5c5" stroke-linejoin="bevel" font-style="normal" stroke-linecap="square" stroke="#5c5c5c" font-family="MS Shell Dlg 2" font-weight="400">
   <path fill-rule="evenodd" vector-effect="none" d="M501.156,1291.43 L502.959,1291.37 L505.776,1291.26 L505.744,1286.54 L505.69,1257.94 L505.765,1257.8 L505.809,1245.96 L505.704,1245.62 L505.664,1213.94 L505.608,1169.52 L505.631,1166.12 L505.67,1155.68 L505.594,1148.71 L505.491,1123.65 L505.339,1117.21 L505.25,1113.48 L505.375,1110.14 L505.408,1108.92 L505.262,1095.96 L505.262,1095.91 L505.276,1092.62 L505.28,1091.76 L505.206,1089.14 L505.039,1019.32 L504.73,976.177 L504.68,974.867 L504.675,971.218 L504.316,948.091 L581.204,948.111 L600.083,948.116 L602.039,948.116 L602.039,948.12 L612.823,948.11 L623.302,948.101 L627.97,948.156 L644.416,948.126 L659.436,948.098 L660.061,948.09 L663.707,948.136 L665.413,948.108 L674.525,948.279 L676.128,948.149 L676.158,948.149 L697.732,948.149 L697.737,948.15 L705.701,948.14 L707.638,948.137 L714.427,948.128 L716.399,948.123 L728.944,948.091 L734.105,948.11 L738.106,948.11 L745.046,948.109 L749.973,948.099 L757.772,948.082 L763.29,948.092 L771.011,948.143 L771.093,948.144 L772.476,948.127 L781.646,948.16 L784.627,948.171 L790.112,948.19 L800.332,948.179 L802.777,948.179 L816.166,948.179 L834.34,948.178 L844.888,948.178 L847.724,948.151 L852.711,948.104 L853.118,948.115 L854.589,948.092 L858.232,948.042 L858.416,948.04 L860.719,948.057 L865.982,948.082 L879.316,948.144 L882.053,948.157 L883.992,948.199 L897.594,948.155 L903.026,948.137 L905.176,948.146 L907.202,948.175 L910.547,948.174 L910.754,948.175 L915.888,948.189 L915.898,948.208 L917.215,948.179 L919.712,948.175 L920.771,948.205 L922.702,948.253 L923.265,948.235 L924.178,948.212 L924.196,948.222 L929.18,948.232 L933.954,948.241 L934.183,948.21 L940.573,948.275 L942.494,948.278 L961.022,948.301 L968.611,948.31 L973.881,948.326 L978.995,948.342 L979.028,948.342 L979.07,948.342 L980.455,948.34 L983.455,948.336 L983.829,948.336 L984.228,948.327 L986.991,948.329 L987.032,948.329 L989.595,948.356 L992.095,948.331 L992.298,948.273 L992.639,948.276 L994.937,948.295 L1001.72,948.351 L1002.33,948.335 L1008.48,948.342 L1023.79,948.382 L1023.79,948.382 L1023.85,948.357 L1024.29,948.366 L1024.31,948.367 L1025.94,948.398 L1026.12,948.398 L1026.16,948.398 L1026.63,948.397 L1030.63,948.403 L1034.77,948.393 L1052.71,948.365 L1055.86,948.379 L1061.4,948.403 L1066.39,948.4 L1068.62,948.406 L1076.14,948.425 L1077.3,948.408 L1083.36,948.452 L1083.59,948.436 L1083.85,948.419 L1085.28,948.395 L1092.54,948.44 L1094.24,948.501 L1094.8,948.492 L1097.94,948.443 L1100.11,948.431 L1104.79,948.407 L1105.11,948.45 L1110.94,948.428 L1118.31,948.463 L1131.68,948.479 L1135.19,948.483 L1136.43,948.533 L1163.22,948.628 L1171.34,948.656 L1183.05,948.473 L1183.84,948.497 L1185.21,948.536 L1193.19,948.509 L1194.54,948.509 L1198.42,948.51 L1205.04,948.531 L1209.03,948.493 L1221.1,948.561 L1225.81,948.604 L1226.24,948.608 L1232.51,948.608 L1233.37,948.576 L1234.55,948.585 L1236.54,948.601 L1240.9,948.627 L1241.79,948.628 L1250.87,948.576 L1252.27,948.628 L1257.74,948.613 L1282.91,948.545 L1283.79,948.607 L1283.96,948.619 L1287.05,948.635 L1288.18,948.633 L1293.51,948.625 L1294.38,948.658 L1305.91,948.62 L1309.3,948.624 L1326.01,948.643 L1330.4,948.648 L1336.5,948.655 L1338.45,948.655 L1338.46,948.642 L1341.42,948.698 L1348.92,948.561 L1352.16,948.584 L1366.72,948.687 L1372.51,948.7 L1372.6,948.701 L1402,948.696 L1402.04,948.696 L1404.13,948.702 L1405.2,948.704 L1414.48,948.728 L1422.67,948.702 L1424.23,948.727 L1425.32,948.74 L1427.8,948.77 L1457.34,948.837 L1459.57,948.888 L1459.88,948.953 L1462.04,948.964 L1462.26,948.955 L1488.66,949.113 L1493.42,949.123 L1496.05,949.116 L1504.03,949.166 L1504.5,949.158 L1509.73,949.185 L1510.68,949.19 L1514.46,949.238 L1514.52,949.238 L1514.89,949.24 L1530.67,949.319 L1536.13,949.344 L1540.75,949.365 L1562.47,949.42 L1562.53,949.421 L1573.04,949.559 L1595.47,949.689 L1595.7,949.682 L1595.74,949.689 L1596.11,949.69 L1598.38,949.693 L1603.68,949.7 L1610.06,949.684 L1615.4,949.643 L1626.05,949.634 L1630.84,949.63 L1636.53,949.628 L1660.83,949.891 L1661.56,949.899 L1672.11,949.898 L1673.62,949.898 L1684.17,949.897 L1688.16,949.882 L1689.95,949.884 L1698.47,949.922 L1698.52,949.922 L1705.35,949.935 L1710.59,949.971 L1713.97,949.96 L1715.92,949.962 L1720.63,950.009 L1729.64,950.005 L1729.79,950.006 L1731.83,949.989 L1732.11,949.992 L1760.1,949.973 L1761.2,949.969 L1762.52,949.964 L1784.65,950.051 L1784.68,950.052 L1792.85,950.101 L1810.12,950.206 L1810.39,950.206 L1816.51,950.247 L1825.33,950.306 L1840.14,950.404 L1842.75,950.422 L1848.02,950.457 L1856.13,950.511 L1879.64,950.667 L1881.28,950.678 L1887.66,950.753 L1911.35,951.032 L1919.15,951.124 L1934.85,951.308 L1943.03,951.325 L1950.69,951.34 L1969.46,951.378 L1974.74,951.388 L1993,951.425 L1993.25,951.425 L1995.87,951.426 L2014.07,951.426 L2022.24,951.427 L2038.08,951.457 L2038.1,951.457 L2043.49,951.507 L2045.55,951.515 L2050.65,951.537 L2070.03,951.625 L2077.05,951.657 L2094.89,951.738 L2096.8,951.714 L2101.45,951.717 L2108.88,951.723 L2117.21,951.729 L2133.13,951.743 L2140.57,951.749 L2156.36,951.763 L2158.89,951.756 L2162.35,951.747 L2162.37,951.747 L2164.76,951.771 L2169.24,951.817 L2171.77,951.807 L2172.16,951.807 L2172.16,951.807 L2172.24,951.808 L2172.34,951.808 L2204.25,951.831 L2204.25,951.831 L2213.19,951.838 L2214.9,951.829 L2214.97,951.829 L2236.2,951.806 L2236.21,951.806 L2236.21,951.806 L2257.37,951.756 L2264.22,951.68 L2267.99,951.496 L2268.01,951.496 L2275.16,951.571 L2289.23,951.718 L2289.27,951.719 L2294.12,951.772 L2294.55,951.602 L2299.9,951.613 L2302.68,951.618 L2321.12,951.655 L2331.74,951.676 L2333.85,951.68 L2333.9,951.681 L2343.71,951.7 L2345.27,951.63 L2345.49,951.62 L2347.18,951.545 L2354.22,951.55 L2362.01,951.556 L2364.78,951.559 L2370.09,951.563 L2375.34,951.596 L2380.61,951.653 L2385.89,951.741 L2385.9,951.741 L2391.18,951.709 L2394.01,951.748 L2396.48,951.781 L2399.06,951.772 L2401.7,951.763 L2405.06,951.77 L2404.84,955.051 L2404.89,956.944 L2404.97,957.497 L2404.62,957.726 L2404.32,958.457 L2403.74,958.4 L2403.5,959.651 L2403.48,959.778 L2403.4,960.243 L2403.62,960.475 L2404.02,960.217 L2404.31,960.482 L2404.58,960.665 L2404.87,961.201 L2404.42,961.476 L2404.37,962.193 L2404.27,962.398 L2404.14,962.67 L2403.88,963.579 L2403.94,965.114 L2403.72,966.373 L2403.89,967.85 L2403.76,968.993 L2403.11,969.503 L2402.78,973.225 L2402.97,974.914 L2402.26,976.749 L2402.33,977.408 L2402.69,978.651 L2402.38,984.13 L2402.3,985.401 L2401.79,986.551 L2401.54,987.285 L2401.55,989.044 L2400.98,991.701 L2400.13,993.814 L2399.85,994.17 L2399.11,995.118 L2397.55,996.056 L2396.67,996.811 L2395.36,998.8 L2393.89,1001.45 L2392.65,1003.14 L2391.21,1004.37 L2389.39,1005.51 L2388.77,1006.13 L2388.35,1006.86 L2388.08,1007.98 L2386.52,1010.69 L2385.99,1011.98 L2385.93,1012.38 L2385.75,1013.72 L2385.17,1015.73 L2385.13,1015.81 L2382.56,1020.49 L2381.23,1021.98 L2379.93,1023.44 L2377.53,1025.61 L2377.37,1025.75 L2373.67,1028.08 L2370.67,1029.59 L2367.59,1031.13 L2358.97,1036.95 L2357.63,1037.96 L2355.9,1040.81 L2354.96,1042.06 L2347.6,1047.2 L2344.98,1049.03 L2338.37,1054.19 L2338.23,1054.36 L2338.05,1054.58 L2336.72,1055.08 L2335.93,1055.83 L2334.67,1057.41 L2333.79,1059.48 L2332.72,1063.62 L2331.92,1066.77 L2331.9,1066.81 L2331.71,1068.47 L2330.63,1070.58 L2330.35,1071.7 L2330.55,1071.96 L2331.39,1073.02 L2332.46,1074.25 L2333.13,1075.11 L2333.76,1075.9 L2333.85,1076.04 L2334.55,1076.97 L2336.01,1078.9 L2344.51,1090.05 L2345.25,1090.48 L2346.58,1091.75 L2348.86,1095.17 L2349.84,1097.1 L2353.84,1102.38 L2354.22,1103.14 L2355.03,1104.74 L2356.99,1109.36 L2357.33,1110.22 L2358.87,1114.23 L2359.33,1115.78 L2359.38,1117.15 L2359.62,1117.85 L2360.66,1119.74 L2361.07,1122.18 L2362.11,1125.09 L2362.45,1125.71 L2364.26,1127.72 L2367.68,1132.99 L2369.5,1136.13 L2369.91,1136.86 L2372.32,1140.08 L2373.94,1141.59 L2374.55,1142.17 L2375.39,1142.55 L2375.99,1142.6 L2376.66,1142.66 L2377.97,1142.54 L2380.01,1143.09 L2383.66,1142.69 L2385.51,1143.02 L2387.9,1143.01 L2391.33,1143.43 L2391.69,1143.58 L2391.69,1143.58 L2395.53,1145.2 L2399.7,1147.91 L2401.19,1149.14 L2402.22,1149.61 L2403.1,1150.02 L2405.45,1151.39 L2407.14,1152.14 L2409.55,1153.21 L2411.14,1153.47 L2413.37,1154.13 L2415.7,1155.16 L2419.17,1157.99 L2420.72,1158.84 L2423.14,1161.08 L2424.01,1161.88 L2425.67,1165.78 L2426.49,1168.18 L2428.76,1172.89 L2428.89,1173.17 L2429.05,1173.49 L2429.17,1175.07 L2429.36,1175.78 L2429.71,1176.3 L2430.91,1177.49 L2431.96,1179.75 L2432.17,1181.18 L2432.84,1181.88 L2432.9,1181.95 L2433.16,1183.18 L2433.19,1185.52 L2433.2,1186.41 L2433.23,1188.18 L2433.22,1188.49 L2433.21,1191.14 L2433.19,1193.68 L2433.19,1193.72 L2433.26,1204.16 L2433.35,1215.35 L2433.39,1216.84 L2433.39,1217.47 L2433.35,1226.32 L2433.35,1235.39 L2433.34,1236.42 L2433.34,1245.95 L2433.32,1246.45 L2433.42,1256.36 L2433.37,1256.83 L2433.37,1258.84 L2433.37,1266.54 L2433.37,1266.8 L2433.37,1267.5 L2433.37,1272.02 L2433.38,1272.53 L2433.37,1275.35 L2433.4,1297.95 L2433.4,1298.66 L2433.4,1298.66 L2433.34,1303.96 L2433.42,1322.63 L2433.47,1324.08 L2433.43,1329.14 L2433.43,1330.03 L2433.43,1330.04 L2433.48,1344.87 L2433.54,1360.31 L2433.54,1360.34 L2433.53,1360.6 L2433.47,1363.13 L2433.46,1365.06 L2433.47,1365.71 L2433.5,1368.31 L2433.52,1370.83 L2433.59,1375.98 L2433.54,1376.44 L2433.62,1391.51 L2433.62,1391.54 L2433.62,1391.64 L2433.54,1396.95 L2433.52,1409.94 L2433.49,1422.6 L2433.49,1422.65 L2433.5,1422.82 L2433.5,1422.83 L2433.46,1453.74 L2433.44,1453.86 L2433.43,1453.89 L2433.42,1453.92 L2433.37,1459.86 L2433.43,1463.4 L2433.43,1466.99 L2433.4,1479.03 L2433.37,1479.81 L2433.47,1483.53 L2433.47,1484.08 L2433.45,1490.24 L2433.43,1500.48 L2433.41,1508.69 L2433.39,1510.83 L2433.39,1510.86 L2433.38,1515.07 L2433.37,1519.19 L2433.36,1521.07 L2433.35,1524.45 L2433.39,1525.53 L2433.39,1525.56 L2433.37,1526.12 L2433.35,1530.58 L2433.33,1531.32 L2433.37,1535.81 L2433.34,1536.17 L2433.33,1536.26 L2433.37,1541.03 L2433.34,1541.61 L2433.3,1545.63 L2433.29,1546.14 L2433.27,1546.69 L2433.27,1546.79 L2433.34,1550.5 L2433.33,1551.56 L2433.32,1556.42 L2433.26,1556.66 L2433.23,1577.12 L2433.23,1577.16 L2433.21,1586.88 L2433.17,1607.47 L2433.13,1633.22 L2433.09,1633.9 L2433.07,1637.79 L2433.08,1638.37 L2433.08,1638.38 L2433.09,1639.05 L2433.13,1641.69 L2433.16,1643.63 L2433.15,1644.29 L2433.14,1644.34 L2433.1,1648.63 L2433.09,1649.29 L2433.09,1649.36 L2433.11,1653.73 L2433.08,1654.52 L2433.1,1658.36 L2433.13,1658.58 L2433.13,1659.63 L2433.1,1664.13 L2433.08,1664.73 L2433.09,1669.13 L2433.09,1669.86 L2433.1,1674.89 L2433.11,1677.29 L2433.12,1685.15 L2433.13,1689.58 L2433.1,1689.61 L2433.09,1690.16 L2433.11,1699.82 L2433.11,1699.85 L2433.11,1699.86 L2433.15,1715.48 L2433.1,1720.3 L2433.1,1730.6 L2433.08,1756.1 L2433.07,1758.64 L2433.07,1761.24 L2433.07,1761.25 L2433.07,1761.25 L2433.07,1771.45 L2433.08,1784.08 L2433.08,1784.92 L2433.08,1791.54 L2433.08,1791.71 L2433.08,1791.88 L2433.08,1792.11 L2433.09,1794.17 L2433.09,1794.64 L2433.09,1796.29 L2433.11,1822.48 L2413.19,1822.46 L2398.06,1822.44 L2396.1,1822.46 L2396.1,1822.46 L2396.1,1822.46 L2396.04,1824.02 L2396.24,1824.34 L2397.17,1824.96 L2397.94,1824.59 L2398.25,1824.62 L2398.36,1825.45 L2399.32,1825.74 L2399.63,1826.16 L2399.75,1826.53 L2399.15,1826.94 L2399.34,1827.59 L2399.08,1827.9 L2399.32,1828.39 L2400.07,1828.51 L2400.31,1828.43 L2400.66,1829.14 L2399.25,1830.15 L2399.2,1830.54 L2399.86,1831.18 L2399.97,1831.62 L2399.6,1832.72 L2399.74,1833.26 L2400.28,1834.15 L2399.54,1834.89 L2398.9,1834.92 L2397.3,1836.33 L2395.82,1837.64 L2395.36,1839.03 L2395.1,1839.81 L2395.17,1840.25 L2395.71,1841.64 L2397.29,1845.67 L2397.63,1846.01 L2398.47,1846.35 L2398.48,1846.36 L2398.91,1846.53 L2400.41,1846.35 L2402.13,1846.51 L2403.39,1847.61 L2403.54,1847.99 L2403.25,1849.3 L2402.54,1850.89 L2403.83,1851.59 L2405.3,1853.14 L2406.6,1855.24 L2407.77,1856.17 L2411.8,1859.34 L2413.32,1859.15 L2413.58,1858.87 L2413.58,1858.47 L2413.83,1858.4 L2414.77,1858.9 L2415.13,1859.44 L2415.75,1862.63 L2415.82,1866.02 L2415.82,1866.49 L2415.59,1867.42 L2414.51,1868.69 L2414.29,1868.76 L2414.32,1870.81 L2414.47,1874.45 L2414.75,1875.67 L2415.02,1875.73 L2415.06,1876.06 L2414.99,1876.17 L2414.36,1877.14 L2413.13,1879.04 L2412.36,1879.81 L2412.82,1882.57 L2413.91,1886.77 L2414.74,1888.2 L2414.63,1889.06 L2414.28,1890.16 L2413.51,1892.54 L2410.81,1894.1 L2408.71,1894.75 L2407.75,1895.04 L2407.2,1894.36 L2405.1,1894.36 L2404.9,1894.36 L2403.68,1894.11 L2403.27,1893.7 L2403.03,1893.18 L2402.55,1892.84 L2400.82,1893.18 L2400.16,1893.2 L2399.48,1893.7 L2398.75,1893.83 L2398.64,1894.76 L2398.66,1894.79 L2399.13,1895.41 L2399.87,1895.01 L2400.62,1894.26 L2401.02,1894.84 L2400.73,1896.38 L2401.21,1898.05 L2401.46,1899.55 L2401.27,1900.37 L2400.68,1901.34 L2400.18,1901.42 L2400.16,1900.74 L2400.01,1900.62 L2399.3,1901.51 L2399.58,1903.41 L2400.17,1903.82 L2401.72,1903.61 L2403.81,1905.58 L2404.93,1906.42 L2405.97,1906.76 L2406.76,1906.82 L2407.27,1906.51 L2407.71,1906.81 L2407.87,1907.29 L2407.88,1907.42 L2408.02,1909.61 L2407.78,1910.94 L2406.2,1911.69 L2404.66,1912 L2403.15,1913.85 L2403.66,1915.77 L2403.83,1916.43 L2405.88,1918.99 L2406.25,1919.02 L2406.67,1918.79 L2406.93,1918.32 L2407.28,1918.09 L2408.99,1918.05 L2409.83,1918.39 L2411.05,1918.47 L2412.15,1917.79 L2414.41,1919.04 L2415.62,1920.12 L2415.91,1921.07 L2416.34,1921.26 L2418.07,1920.96 L2421.04,1920.19 L2422.13,1919.18 L2423.39,1919.1 L2424.98,1919 L2425.04,1919.02 L2427.15,1919.75 L2427.44,1920.09 L2427.61,1921.38 L2428.31,1924.11 L2428.7,1924.91 L2428.66,1925.65 L2427.9,1927.86 L2427.88,1930.98 L2428.25,1932.43 L2429,1932.75 L2429.16,1932.82 L2429.58,1932.83 L2430.09,1933.36 L2430.15,1933.69 L2429.77,1937.61 L2429.77,1937.62 L2429.54,1939.95 L2429.53,1940.53 L2429.52,1941.5 L2429.73,1944.75 L2430.1,1945.71 L2431.4,1947.1 L2431.69,1947.16 L2432.53,1946.88 L2433.84,1947.55 L2435.6,1950.48 L2435.79,1952.21 L2436.06,1953.66 L2436.27,1954.2 L2436.57,1954.61 L2437.34,1955 L2436.65,1957.41 L2434.41,1960.7 L2433.46,1962.09 L2431.26,1964.01 L2430.67,1965.24 L2430.73,1965.86 L2432.58,1966.38 L2432.79,1966.83 L2432.9,1967.75 L2432.89,1967.86 L2432.87,1968.03 L2432.61,1970.93 L2431.85,1973.54 L2431.18,1974.76 L2430.61,1975.13 L2429.31,1975.52 L2428.87,1975.44 L2428.05,1974.93 L2427.1,1975.33 L2424.61,1977.73 L2424.24,1978.24 L2424.07,1979.13 L2423.96,1979.2 L2423.68,1979.37 L2420.79,1980.12 L2419.9,1980.08 L2418.97,1979.65 L2418.63,1979.67 L2416.55,1982.4 L2416.83,1983.03 L2417.23,1983.33 L2417.71,1983.18 L2418.29,1983.14 L2418.91,1984.06 L2418.91,1984.27 L2418.49,1985.93 L2417.95,1986.61 L2417.91,1987.14 L2418.23,1988.05 L2418.44,1988.43 L2420.42,1990.13 L2421.44,1990.34 L2422.36,1991.57 L2422.65,1991.96 L2422.86,1992.47 L2423.35,1993.64 L2423.09,1995.25 L2422.67,1996.38 L2422.07,1997.43 L2421.79,1997.66 L2421.63,1997.71 L2421.62,1997.71 L2421.18,1997.84 L2420.84,1997.94 L2420.54,1998.03 L2419.37,1998.22 L2418.7,1998.71 L2417.96,1999.99 L2418.13,2000.9 L2418.12,2001.9 L2417.04,2003.38 L2416.98,2003.46 L2415.96,2003.83 L2416.09,2004.78 L2417.19,2006.43 L2418.52,2007 L2419.67,2006.97 L2419.96,2007.14 L2420.44,2008.06 L2421.16,2011.12 L2420,2012.76 L2419.18,2014.89 L2418.83,2016.06 L2418.5,2016.32 L2417.45,2016.57 L2416.15,2017.93 L2416.12,2018.48 L2417.06,2019.43 L2417.12,2020.01 L2416.94,2020.45 L2416.6,2020.68 L2416.31,2020.63 L2416.01,2020.36 L2415.85,2019.64 L2415.26,2019.31 L2414.75,2019.41 L2410.79,2023.23 L2410.64,2023.89 L2410.66,2024.55 L2411.01,2025.25 L2411.62,2028.01 L2411.73,2028.59 L2411.74,2028.68 L2411.94,2029.76 L2411.44,2030.13 L2410.44,2029.98 L2410.32,2030.14 L2410.35,2030.43 L2410.79,2031.09 L2411.22,2031.74 L2412.09,2031.41 L2413.9,2032.44 L2414.49,2033.89 L2414.54,2034.55 L2414.19,2034.99 L2412.5,2034.96 L2411.04,2035.3 L2410.97,2035.58 L2411.47,2036.54 L2411.62,2039.19 L2410.08,2040.53 L2409.45,2040.58 L2409.21,2040.84 L2408.62,2042.03 L2408.41,2044.3 L2408.42,2044.49 L2409.41,2046.54 L2409.73,2046.58 L2410.11,2046.2 L2410.2,2045.78 L2410.39,2045.69 L2410.64,2045.98 L2410.7,2046.4 L2409.97,2048.61 L2409.67,2049.07 L2408.32,2049.87 L2407.57,2049.92 L2407.33,2050.39 L2407.46,2051.26 L2407.98,2051.88 L2408.54,2052.28 L2408.65,2052.82 L2408.26,2053.59 L2408.2,2053.7 L2408,2053.89 L2407.52,2053.9 L2406.97,2053.67 L2406.35,2052.7 L2405.85,2052.74 L2405.5,2053.37 L2405.27,2053.8 L2405.21,2055.62 L2404.57,2055.84 L2404.32,2055.44 L2403.11,2053.51 L2400.97,2053.18 L2400.5,2053.38 L2400.31,2054.72 L2401.47,2056.43 L2401.43,2056.8 L2400.03,2059.34 L2399.77,2059.8 L2399.46,2060.13 L2398.11,2061.06 L2397.1,2060.89 L2396.84,2061.17 L2396.93,2062.77 L2397.82,2062.94 L2398.14,2063.26 L2398.18,2063.52 L2397.74,2065.99 L2397.03,2068.81 L2395.17,2070.61 L2394.87,2072.01 L2394.67,2072.25 L2391.87,2071.57 L2390.88,2071.9 L2390.27,2073.56 L2389.12,2075.54 L2389.08,2075.58 L2388.13,2076.46 L2387.66,2076.46 L2387.4,2077.34 L2387.64,2079.6 L2387.65,2079.7 L2388.53,2081.08 L2389.7,2080.98 L2390.1,2080.76 L2390.43,2080.88 L2390.68,2081.22 L2390.88,2082.02 L2390.61,2082.46 L2389.2,2082.74 L2388.08,2083.55 L2387.62,2085.19 L2386.71,2086.79 L2385.74,2088.15 L2385.75,2088.19 L2385.91,2088.61 L2386.02,2088.9 L2387.72,2092.3 L2389.14,2092 L2389.55,2092.16 L2389.62,2096.03 L2388.91,2097.53 L2388.26,2097.91 L2388.05,2098.94 L2388.3,2099.21 L2390.87,2100.91 L2391.95,2101.45 L2392.14,2101.44 L2392.29,2101.42 L2392.42,2101.42 L2392.51,2101.46 L2392.64,2101.53 L2392.73,2101.61 L2392.82,2101.82 L2392.81,2101.98 L2392.75,2102.16 L2392.76,2102.46 L2393.24,2102.85 L2394.27,2102.82 L2394.6,2102.66 L2395.32,2101.86 L2395.63,2101.77 L2396.06,2101.91 L2396.69,2102.66 L2396.96,2104.01 L2396.74,2104.94 L2397.96,2105.09 L2399.48,2105.44 L2402.1,2106.96 L2402.42,2108.57 L2402.35,2108.92 L2402.11,2109.47 L2401.38,2110.39 L2401.27,2110.62 L2401.83,2110.89 L2402.88,2111.07 L2403.26,2110.76 L2403.39,2109.94 L2403.65,2109.44 L2403.94,2109.18 L2404.29,2109.29 L2405.85,2111.62 L2406.94,2113.28 L2406.89,2113.44 L2406.26,2113.54 L2406.02,2113.82 L2406,2115.3 L2406.17,2115.52 L2406.95,2115.5 L2409.34,2114.28 L2410.13,2114.32 L2410.47,2114.54 L2411.61,2116.37 L2411.68,2117.5 L2411.51,2118.57 L2411.51,2118.59 L2411.46,2118.91 L2411.61,2119.48 L2412.67,2120.48 L2414.43,2121.3 L2417.08,2125.01 L2417.33,2125.97 L2417.27,2126.41 L2417.19,2126.89 L2417.02,2127.8 L2416.52,2128.49 L2415.86,2128.88 L2415.14,2129.08 L2414.07,2129.15 L2413.38,2129.6 L2413.2,2130.29 L2413.64,2131.91 L2414.14,2132.41 L2414.71,2132.3 L2415.57,2131.18 L2416.28,2130.55 L2416.9,2130.22 L2417.87,2130.37 L2418.83,2131.12 L2420.05,2133.79 L2421.19,2137.55 L2421.17,2138.02 L2420.87,2138.75 L2420.9,2138.89 L2420.97,2139.22 L2421.26,2139.47 L2422.05,2139.77 L2422.56,2140.43 L2422.59,2141.03 L2422.36,2141.48 L2422.23,2142.11 L2422.39,2142.6 L2423.42,2143.44 L2424.64,2143.77 L2424.84,2144.14 L2424.81,2144.65 L2424.3,2145.38 L2421.54,2148.95 L2421.49,2149.03 L2421.6,2149.96 L2421.93,2150.36 L2422.37,2150.54 L2423.33,2150.52 L2423.96,2150.42 L2425.15,2150.39 L2426.69,2150.56 L2427.09,2150.67 L2427.09,2153.99 L2426.9,2157.73 L2426.36,2159.8 L2426.56,2160.86 L2426.57,2160.9 L2426.34,2161.65 L2426.34,2161.66 L2426.3,2161.68 L2424.4,2162.59 L2423.57,2162.99 L2423.57,2163 L2423.02,2164.04 L2423.75,2165.71 L2425.4,2166.43 L2426.47,2166.16 L2426.96,2166.7 L2428.01,2168.78 L2427.8,2168.9 L2427.66,2169.6 L2427.1,2170.76 L2426.93,2171.55 L2426.85,2171.95 L2427.03,2173.08 L2427.48,2173.58 L2428.3,2173.71 L2428.66,2173.63 L2428.87,2173.36 L2428.95,2172.96 L2429.78,2173.17 L2430.5,2173.29 L2432.32,2172.59 L2433.91,2173.13 L2434.45,2173.29 L2435.08,2173.23 L2431.47,2174.81 L2429.95,2175.81 L2427.44,2176.88 L2426.62,2177.02 L2426.07,2176.98 L2423.9,2176.85 L2420.9,2175.94 L2419.78,2175.26 L2419.72,2175.21 L2419.58,2175.07 L2419.05,2174.58 L2417.2,2171.97 L2416.77,2171.07 L2416.47,2169.71 L2415.98,2168.36 L2414.85,2166.47 L2413.93,2165.43 L2413.2,2164.77 L2411.57,2163.75 L2410.75,2163.5 L2408.84,2162.92 L2408.84,2162.92 L2406.56,2162.98 L2403.98,2163.84 L2402.81,2164.58 L2399.81,2167.3 L2398.08,2168.14 L2396.85,2168.41 L2396.02,2168.43 L2394.95,2168.46 L2394.24,2168.33 L2393.57,2168.2 L2392.91,2167.9 L2392.66,2167.73 L2389.23,2165.32 L2388.67,2164.15 L2388.39,2163.32 L2387.83,2161.62 L2387.48,2160.01 L2387.36,2158.98 L2387.36,2158.59 L2387.36,2156.14 L2387.36,2156.13 L2386.85,2153.58 L2386.17,2152.09 L2384.75,2150.14 L2383.62,2149.03 L2383.6,2149.01 L2383.08,2148.65 L2380.9,2147.1 L2376.53,2145.31 L2375.16,2144.32 L2374.04,2143.12 L2371.11,2138.82 L2368.79,2135.72 L2368.06,2134.22 L2367.63,2132.71 L2367.49,2130.42 L2367.55,2129.52 L2368.01,2127.94 L2368.57,2126.77 L2371.22,2122.53 L2372.3,2121 L2373.2,2120.29 L2373.53,2119.63 L2373.71,2118.45 L2373.73,2118.33 L2373.71,2117.53 L2373.56,2117.17 L2372.64,2116.11 L2371.02,2115.09 L2363.3,2112.42 L2361.42,2112.32 L2359.73,2112.51 L2358.5,2112.65 L2357.88,2112.82 L2357.41,2113.29 L2354.15,2114.11 L2350.56,2113.76 L2349.86,2113.57 L2346.9,2112.76 L2346.74,2112.72 L2345.34,2111.95 L2344.77,2111.42 L2344.47,2110.57 L2344.97,2106.38 L2344.9,2103.58 L2344.6,2101.4 L2343.44,2099.54 L2341.68,2098.76 L2340.08,2098.29 L2338.47,2098.14 L2337.51,2098.06 L2333.99,2096.82 L2332.33,2095.78 L2329.66,2093.78 L2326.53,2092.64 L2322.96,2092.25 L2319.98,2090.51 L2319.72,2090.36 L2318.4,2089.59 L2317.89,2089.29 L2314.41,2090.1 L2313.48,2090.49 L2311.93,2091.83 L2310.27,2092.87 L2309.17,2093.52 L2307.19,2094.24 L2305.42,2094.34 L2303.97,2094.11 L2303.47,2093.84 L2303.16,2093.21 L2302.93,2092.49 L2302.89,2091.6 L2303.81,2088.98 L2304.04,2088.33 L2304.08,2088.04 L2304.15,2087.46 L2304.06,2086.93 L2302.11,2082.2 L2300.47,2080.8 L2299.51,2080.19 L2298.73,2080.03 L2296.03,2080.4 L2293.47,2080.08 L2290.19,2079.67 L2287.9,2079.38 L2286.54,2078.94 L2285.77,2078.18 L2280.95,2076.7 L2277.55,2076 L2275.96,2075.96 L2274.05,2076.27 L2272.5,2076.74 L2269.79,2076.99 L2268.53,2076.87 L2268.48,2076.87 L2265.85,2076.97 L2260.84,2076.09 L2260.05,2075.21 L2260,2075.1 L2259.38,2073.67 L2259.38,2073.59 L2259.4,2072.97 L2259.1,2072.11 L2258.3,2070.98 L2257.47,2069.8 L2255.91,2067.91 L2253.47,2066.47 L2252.58,2065.94 L2251.79,2065.65 L2250.49,2065.36 L2248.86,2065.26 L2246.55,2064.7 L2243.29,2064.48 L2242.2,2064.12 L2240.83,2063.16 L2240.44,2062.68 L2240.26,2062.28 L2240.07,2061.87 L2239.85,2059.4 L2239.57,2058.42 L2238.87,2056.76 L2238.81,2056.42 L2238.76,2056.14 L2238.78,2055.58 L2238.98,2051.3 L2238.62,2050.5 L2235.29,2048.59 L2233.78,2047.97 L2231.06,2047.19 L2230.8,2047.19 L2230.8,2047.19 L2230.25,2047.18 L2228.98,2047.7 L2228.68,2047.75 L2226.5,2048.1 L2226.14,2048.16 L2223.9,2047.76 L2223.43,2047.67 L2223.42,2047.67 L2222.31,2047.47 L2221.17,2047.26 L2220.57,2047.15 L2217.8,2044.01 L2217.47,2043.63 L2216.3,2042.96 L2216.27,2042.96 L2215.74,2043.06 L2215.18,2043.57 L2213.4,2044.47 L2211.78,2044.9 L2211.3,2045.15 L2211.14,2045.32 L2210.75,2045.76 L2210.71,2045.79 L2210.18,2046.14 L2208.81,2046.7 L2207.53,2047.02 L2202.86,2047.39 L2202.3,2047.28 L2200.98,2046.42 L2200.56,2046.14 L2198.85,2044.56 L2198.51,2043.79 L2194.12,2044.12 L2194.12,2044.12 L2192.77,2043.92 L2191.46,2042.91 L2190.48,2042.7 L2189.18,2043.04 L2188.25,2043.54 L2186.7,2045.19 L2186.22,2046.21 L2186.1,2046.75 L2184.47,2048.52 L2182.65,2050.06 L2181.85,2050.37 L2179.33,2050.43 L2178.26,2050.12 L2177.66,2049.64 L2176.92,2049.34 L2174.67,2048.9 L2171.68,2048.92 L2171.01,2048.93 L2169.35,2048.49 L2168.14,2047.94 L2167.42,2047.26 L2167.1,2046.56 L2165.95,2046.12 L2163.13,2047.76 L2160.42,2048.6 L2159.09,2049.02 L2155.12,2049.74 L2151.45,2049.91 L2148.24,2049.18 L2143.83,2047.73 L2141.97,2046.9 L2141.01,2046.29 L2140.82,2046.17 L2138.78,2046.16 L2136.63,2046.77 L2132.78,2048.56 L2129.91,2049.89 L2127.08,2050.92 L2124.43,2051.47 L2119.8,2051.68 L2116.11,2051.21 L2111.18,2049.94 L2111.12,2049.94 L2103.58,2049.23 L2102.71,2049.4 L2099.93,2049.37 L2097.46,2049.14 L2096.22,2048.7 L2093.9,2047.89 L2090.63,2046.28 L2089.74,2045.99 L2086.63,2044.97 L2084.41,2042.98 L2083.73,2042.54 L2082.29,2042.54 L2079.47,2042.91 L2076.25,2043.83 L2074.28,2044.6 L2072.63,2045.57 L2071.83,2046.03 L2071.41,2047.53 L2071.44,2048.13 L2071.75,2048.95 L2071.7,2049.85 L2070.91,2051.25 L2070.68,2054.12 L2069.41,2057.29 L2068.47,2060.4 L2068.04,2061.14 L2066.99,2062.33 L2064.7,2066.11 L2064.29,2066.77 L2063.28,2068.14 L2061.51,2069.87 L2060.12,2070.41 L2059.62,2071.01 L2057.19,2073.92 L2056.24,2074.77 L2052.82,2076.89 L2051.97,2077.09 L2051.97,2077.09 L2049.8,2077.21 L2045.85,2076.79 L2042.06,2078.45 L2040.07,2079.1 L2039.52,2079.09 L2038.7,2078.78 L2036.84,2079.43 L2035.78,2079.39 L2031.26,2078.77 L2030.73,2078.24 L2029.49,2077.69 L2028.81,2077.44 L2028.1,2077.34 L2027.04,2077.19 L2025.77,2076.49 L2024.96,2075.8 L2024.6,2074.01 L2024.18,2072.91 L2023.04,2071.65 L2019.13,2068.34 L2017.85,2067.83 L2016.13,2066.62 L2013.56,2063.44 L2012.8,2062.69 L2007.77,2059.41 L2007.38,2059.03 L2007.14,2058.6 L2005.12,2055.04 L2002.83,2052.58 L2002.54,2052.52 L2001.27,2052.85 L1998.68,2053.51 L1997.6,2053.59 L1996.69,2053.52 L1993.78,2052.56 L1992.68,2052.2 L1991.95,2051.96 L1988.2,2050.15 L1984.86,2048.27 L1984.31,2047.96 L1983.19,2047.14 L1982.61,2046.37 L1981.61,2045.52 L1981.24,2045.2 L1977.45,2042.68 L1976.69,2041.49 L1976.19,2041.15 L1974.54,2040.6 L1971.98,2040.69 L1969.02,2040.39 L1964.59,2038.64 L1961.46,2037.77 L1958.99,2037.09 L1957.37,2036.41 L1956.41,2035.73 L1955.71,2035.02 L1955.43,2034.66 L1954.84,2033.23 L1954.29,2032.5 L1953.17,2031.43 L1952.2,2030.77 L1951.63,2030.46 L1949.2,2029.12 L1945.44,2027.45 L1944.8,2027.17 L1941.98,2025.34 L1938.72,2023.93 L1936.55,2022.79 L1933.27,2020.65 L1931.86,2020.59 L1931.68,2020.62 L1930.68,2020.8 L1929.77,2021.59 L1929.07,2021.88 L1928.44,2021.94 L1927.32,2021.58 L1926.89,2021.1 L1926.59,2019.54 L1926.27,2019.09 L1925.27,2018.41 L1923.67,2016.68 L1922.87,2016.31 L1921.5,2015.28 L1921.43,2015.23 L1918.49,2009.68 L1915.55,2004.67 L1914.21,2001.17 L1913.5,1997.52 L1901.68,1997.55 L1896.6,1997.57 L1895.62,1997.52 L1876.18,1997.55 L1871.54,1997.56 L1871.39,1997.55 L1871.06,1997.52 L1860.98,1997.56 L1851.55,1997.59 L1846.48,1997.6 L1845.97,1997.6 L1836.59,1997.63 L1830.82,1997.6 L1830.78,1997.6 L1821.53,1997.63 L1815.2,1997.66 L1811.53,1997.67 L1810.71,1997.6 L1806.65,1997.63 L1806.63,1997.63 L1800.69,1997.62 L1795.74,1997.61 L1786.02,1997.62 L1781.54,1997.59 L1780.54,1997.58 L1780.44,1997.63 L1770.73,1997.6 L1765.78,1997.59 L1765.31,1997.61 L1761.11,1997.61 L1751.57,1997.61 L1750.78,1997.53 L1747.71,1997.59 L1745.86,1997.56 L1745.11,1997.55 L1736.52,1997.67 L1736.47,1997.67 L1726.54,1997.61 L1721.51,1997.66 L1721.47,1997.66 L1719.37,1997.63 L1712.93,1997.66 L1697.88,1997.63 L1695.79,1997.65 L1692.46,1997.66 L1691.83,1997.68 L1691.03,1997.69 L1685.62,1997.65 L1666.36,1997.72 L1665.55,1997.68 L1661.42,1997.66 L1660.54,1997.67 L1650.43,1997.7 L1650.1,1997.7 L1641.48,1997.71 L1620.36,1997.74 L1615.89,1997.74 L1608.47,1997.75 L1607.91,1997.71 L1603.4,1997.75 L1601.47,1997.75 L1597.32,1997.74 L1590.87,1997.67 L1590.28,1997.67 L1585.86,1997.7 L1582.79,1997.72 L1582.02,1997.69 L1580.49,1997.65 L1577.31,1997.71 L1570.18,1997.65 L1570.16,1997.65 L1569.97,1997.66 L1567.64,1997.72 L1565.12,1997.68 L1563.13,1997.68 L1560.09,1997.68 L1552.79,1997.69 L1550.44,1997.67 L1544.66,1997.61 L1544.53,1997.61 L1541.92,1997.59 L1541.46,1997.59 L1530.85,1997.57 L1529.91,1997.57 L1524.99,1997.56 L1523.32,1997.56 L1501.75,1997.47 L1499.94,1997.46 L1499.82,1997.46 L1499.82,1997.46 L1481.65,1997.52 L1481.65,1997.52 L1481.65,1997.52 L1461.49,1997.48 L1459.98,1997.44 L1443.26,1997.45 L1441.77,1997.45 L1427.05,1997.36 L1411.96,1997.26 L1396.31,1997.36 L1393.85,1997.43 L1391.54,1997.46 L1373.17,1997.51 L1371.57,1997.68 L1361.52,1997.67 L1342.06,1997.65 L1326.89,1997.63 L1316.78,1997.62 L1311.68,1997.62 L1306.49,1997.75 L1301.71,1997.74 L1301.66,1997.74 L1301.64,1997.74 L1288.59,1997.78 L1287.11,1997.75 L1287.11,1997.75 L1277.9,1997.87 L1267.05,1997.72 L1242.24,1997.74 L1220.47,1997.74 L1220.38,1997.75 L1220.08,1997.75 L1219.78,1997.76 L1219.5,1997.75 L1169.68,1997.94 L1152.11,1998.01 L1150.88,1998.02 L1147.37,1998.05 L1119.12,1998.32 L1096.73,1998.19 L1096.66,1998.19 L1096.64,1998.19 L1062.07,1997.25 L1003,1997.24 L1002.99,1997.24 L933.898,1997.17 L933.062,1997.17 L932.817,1997.17 L920.93,1997.16 L913.205,1997.15 L912.039,1997.15 L900.154,1997.17 L883.492,1997.14 L883.098,1997.14 L882.688,1997.14 L882.608,1997.14 L877.633,1997.13 L847.601,1997.07 L842.861,1997.06 L835.253,1997.05 L831.153,1997.04 L822.724,1997.02 L769.755,1996.85 L736.442,1996.74 L736.133,1996.74 L687.441,1996.71 L683.323,1996.71 L681.793,1996.71 L667.127,1996.76 L641.59,1996.75 L641.559,1996.75 L641.323,1996.75 L641.22,1996.75 L631.872,1996.74 L623.494,1996.74 L623.332,1996.76 L612.823,1996.78 L604.036,1996.53 L588.243,1996.67 L563.129,1996.54 L562.714,1996.57 L551.349,1996.62 L534.934,1996.7 L524.43,1996.42 L518.127,1996.43 L502.389,1996.81 L502.334,1986.37 L502.315,1957.41 L502.238,1940.38 L502.155,1913.9 L502.138,1895.32 L502.078,1891.26 L501.985,1860.71 L501.978,1858.61 L501.939,1830.39 L501.93,1824.19 L501.924,1821.45 L501.882,1802.48 L501.917,1793.13 L501.884,1761.86 L501.823,1735.94 L501.815,1730.77 L501.77,1701.13 L501.78,1698.45 L501.887,1668.78 L501.973,1635.76 L501.99,1601.9 L501.974,1596.89 L501.928,1582.97 L501.879,1567.72 L501.757,1534.86 L501.754,1534.25 L501.732,1517.61 L501.709,1499.93 L501.657,1465.73 L501.659,1463.25 L501.676,1444.13 L501.696,1421.87 L501.689,1419.09 L501.646,1403.09 L501.672,1399.53 L501.656,1380.45 L501.649,1371 L501.508,1338.38 L501.656,1335.44 L501.469,1314.29 L501.156,1291.43"/>
  </g>
  <g stroke-width="1" transform="matrix(0.999744,0,0,0.999744,0,0)" stroke-opacity="1" font-size="34.5833" fill="none" stroke-linejoin="bevel" font-style="normal" stroke-linecap="square" stroke="#000000" font-family="MS Shell Dlg 2" font-weight="400"/>
  <g stroke-width="1" transform="matrix(11.808,0,0,11.808,0,0)" stroke-opacity="1" font-size="34.5833" fill="none" stroke-linejoin="bevel" font-style="normal" stroke-linecap="square" stroke="#000000" font-family="MS Shell Dlg 2" font-weight="400"/>
  <g stroke-width="1" transform="matrix(11.808,0,0,11.808,0,0)" stroke-opacity="1" font-size="34.5833" fill="none" stroke-linejoin="bevel" font-style="normal" stroke-linecap="square" stroke="#000000" font-family="MS Shell Dlg 2" font-weight="400"/>
  <g stroke-width="1" transform="matrix(11.808,0,0,11.808,0,0)" stroke-opacity="1" font-size="34.5833" fill="none" stroke-linejoin="bevel" font-style="normal" stroke-linecap="square" stroke="#000000" font-family="MS Shell Dlg 2" font-weight="400"/>
  <g stroke-width="1" transform="matrix(1,0,0,1,0,0)" stroke-opacity="1" font-size="34.5833" fill="none" stroke-linejoin="bevel" font-style="normal" stroke-linecap="square" stroke="#000000" font-family="MS Shell Dlg 2" font-weight="400"/>
  <g stroke-width="1" transform="matrix(11.808,0,0,11.808,0,0)" stroke-opacity="1" font-size="34.5833" fill="none" stroke-linejoin="bevel" font-style="normal" stroke-linecap="square" stroke="#000000" font-family="MS Shell Dlg 2" font-weight="400"/>
  <g stroke-width="1" transform="matrix(11.808,0,0,11.808,0,0)" stroke-opacity="1" font-size="34.5833" fill="none" stroke-linejoin="bevel" font-style="normal" stroke-linecap="square" stroke="#000000" font-family="MS Shell Dlg 2" font-weight="400"/>
  <g stroke-width="1" transform="matrix(11.808,0,0,11.808,0,0)" stroke-opacity="1" font-size="34.5833" fill="none" stroke-linejoin="bevel" font-style="normal" stroke-linecap="square" stroke="#000000" font-family="MS Shell Dlg 2" font-weight="400"/>
  <g stroke-width="1" transform="matrix(11.808,0,0,11.808,0,0)" stroke-opacity="1" font-size="34.5833" fill="none" stroke-linejoin="bevel" font-style="normal" stroke-linecap="square" stroke="#000000" font-family="MS Shell Dlg 2" font-weight="400"/>
  <g stroke-width="1" transform="matrix(1,0,0,1,0,0)" stroke-opacity="1" font-size="34.5833" fill="none" stroke-linejoin="bevel" font-style="normal" stroke-linecap="square" stroke="#000000" font-family="MS Shell Dlg 2" font-weight="400"/>
 </g>
</svg>
