<?xml version='1.0' encoding='UTF-8' standalone='no'?>
<svg xmlns:xlink="http://www.w3.org/1999/xlink" baseProfile="tiny" xmlns="http://www.w3.org/2000/svg" height="249.936mm" viewBox="0 0 2952 2952" width="249.936mm" version="1.2">
 <title>Qt SVG Document</title>
 <desc>Generated with Qt</desc>
 <defs/>
 <g stroke-width="1" fill-rule="evenodd" fill="none" stroke-linejoin="bevel" stroke-linecap="square" stroke="black">
  <g stroke-width="1" transform="matrix(1,0,0,1,0,0)" stroke-opacity="1" font-size="34.5833" fill="none" stroke-linejoin="bevel" font-style="normal" stroke-linecap="square" stroke="#000000" font-family="MS Shell Dlg 2" font-weight="400"/>
  <g stroke-width="1" transform="matrix(1,0,0,1,0,0)" stroke-opacity="1" font-size="34.5833" fill="none" stroke-linejoin="bevel" font-style="normal" stroke-linecap="square" stroke="#000000" font-family="MS Shell Dlg 2" font-weight="400"/>
  <g stroke-width="1" transform="matrix(11.808,0,0,11.808,0,0)" stroke-opacity="1" font-size="34.5833" fill="none" stroke-linejoin="bevel" font-style="normal" stroke-linecap="square" stroke="#000000" font-family="MS Shell Dlg 2" font-weight="400"/>
  <g stroke-width="1" transform="matrix(0.999744,0,0,0.999744,0,0)" stroke-opacity="1" font-size="34.5833" fill="none" stroke-linejoin="bevel" font-style="normal" stroke-linecap="square" stroke="#000000" font-family="MS Shell Dlg 2" font-weight="400"/>
  <g transform="matrix(0.999744,0,0,0.999744,0,0)" font-size="34.5833" fill-opacity="0" fill="#ffffff" font-style="normal" stroke="none" font-family="MS Shell Dlg 2" font-weight="400">
   <path fill-rule="evenodd" vector-effect="none" d="M-2,-2 L2955,-2 L2955,2955 L-2,2955 L-2,-2"/>
  </g>
  <g stroke-width="1" transform="matrix(0.999744,0,0,0.999744,0,0)" stroke-opacity="1" font-size="34.5833" fill="none" stroke-linejoin="bevel" font-style="normal" stroke-linecap="square" stroke="#000000" font-family="MS Shell Dlg 2" font-weight="400"/>
  <g stroke-width="1" transform="matrix(11.808,0,0,11.808,0,0)" stroke-opacity="1" font-size="34.5833" fill="none" stroke-linejoin="bevel" font-style="normal" stroke-linecap="square" stroke="#000000" font-family="MS Shell Dlg 2" font-weight="400"/>
  <g stroke-width="1" transform="matrix(11.808,0,0,11.808,0,0)" stroke-opacity="1" font-size="34.5833" fill="none" stroke-linejoin="bevel" font-style="normal" stroke-linecap="square" stroke="#000000" font-family="MS Shell Dlg 2" font-weight="400"/>
  <g stroke-width="1" transform="matrix(11.808,0,0,11.808,0,0)" stroke-opacity="1" font-size="34.5833" fill="none" stroke-linejoin="bevel" font-style="normal" stroke-linecap="square" stroke="#000000" font-family="MS Shell Dlg 2" font-weight="400"/>
  <g stroke-width="1" transform="matrix(11.808,0,0,11.808,0,0)" stroke-opacity="1" font-size="34.5833" fill="none" stroke-linejoin="bevel" font-style="normal" stroke-linecap="square" stroke="#000000" font-family="MS Shell Dlg 2" font-weight="400"/>
  <g stroke-width="1" transform="matrix(11.808,0,0,11.808,0,0)" stroke-opacity="1" font-size="34.5833" fill="none" stroke-linejoin="bevel" font-style="normal" stroke-linecap="square" stroke="#000000" font-family="MS Shell Dlg 2" font-weight="400"/>
  <g transform="matrix(11.808,0,0,11.808,0,0)" font-size="34.5833" fill-opacity="0" fill="#ffffff" font-style="normal" stroke="none" font-family="MS Shell Dlg 2" font-weight="400">
   <path fill-rule="evenodd" vector-effect="none" d="M0,0 L250,0 L250,250 L0,250 L0,0"/>
  </g>
  <g stroke-width="1" transform="matrix(11.808,0,0,11.808,0,0)" stroke-opacity="1" font-size="34.5833" fill="none" stroke-linejoin="bevel" font-style="normal" stroke-linecap="square" stroke="#000000" font-family="MS Shell Dlg 2" font-weight="400"/>
  <g stroke-width="1" transform="matrix(11.808,0,0,11.808,0,0)" stroke-opacity="1" font-size="34.5833" fill="none" stroke-linejoin="bevel" font-style="normal" stroke-linecap="square" stroke="#000000" font-family="MS Shell Dlg 2" font-weight="400"/>
  <g transform="matrix(0.999744,0,0,0.999744,0,0)" font-size="34.5833" fill-opacity="0" fill="#000000" font-style="normal" stroke="none" font-family="MS Shell Dlg 2" font-weight="400">
   <rect x="0" height="2953" width="2953" y="0"/>
  </g>
  <g stroke-width="1" transform="matrix(0.999744,0,0,0.999744,0,0)" stroke-opacity="1" font-size="34.5833" fill="none" stroke-linejoin="bevel" font-style="normal" stroke-linecap="square" stroke="#000000" font-family="MS Shell Dlg 2" font-weight="400"/>
  <g stroke-width="3.07087" transform="matrix(0.999744,0,0,0.999744,0,0)" stroke-opacity="1" font-size="34.5833" fill-opacity="1" fill="#c5c5c5" stroke-linejoin="bevel" font-style="normal" stroke-linecap="square" stroke="#5c5c5c" font-family="MS Shell Dlg 2" font-weight="400">
   <path fill-rule="evenodd" vector-effect="none" d="M690.926,2242.11 L691.086,2237.16 L691.14,2224.11 L691.292,2187.81 L691.33,2178.72 L691.311,2178.61 L691.349,2178.32 L691.532,2174.46 L691.922,2170.6 L692.396,2152.25 L692.001,2146.54 L691.919,2134.57 L692.008,2122.59 L691.88,2097.51 L691.757,2073.34 L691.927,2011.5 L691.927,2011.43 L691.85,1969.26 L692.087,1963.11 L691.856,1904.72 L691.866,1904.66 L691.737,1864.81 L691.95,1846.47 L691.941,1844.8 L691.845,1834.26 L691.845,1834.24 L691.934,1790.47 L691.978,1768.72 L692.168,1760.01 L692.071,1707.47 L692.38,1706.94 L692.533,1705.89 L692.189,1652.49 L692.852,1443.36 L692.64,1425.19 L692.765,1347.76 L692.789,1333.02 L692.693,1324.5 L692.622,1318.21 L692.808,1306.76 L692.834,1270.48 L692.834,1270.46 L692.99,1238.63 L693.024,1231.66 L692.932,1217.45 L693.079,1188.45 L692.963,1185.74 L692.982,1180.3 L693.156,1130.99 L693.147,1059.53 L693.263,1048.13 L693.462,1045.78 L693.364,1018.15 L693.344,1017.58 L693.441,1012.93 L693.926,933.919 L694.022,918.246 L694.023,918.134 L694.004,915.649 L693.977,912.096 L693.952,908.876 L693.926,905.487 L693.916,904.139 L693.925,903.906 L694.131,898.514 L694.143,894.772 L694.383,824.746 L694.468,799.642 L694.468,799.629 L694.697,709.295 L694.335,707.915 L694.714,703.981 L695.095,585.413 L694.862,581.814 L695.027,531.518 L695.028,531.279 L695.181,527.098 L695.203,470.58 L694.794,428.043 L694.808,428.053 L695.286,412.992 L694.687,364.973 L711.517,365.316 L730.301,366.695 L740.508,367.318 L751.595,367.469 L759.583,367.367 L785.333,366.919 L814.091,366.333 L823.153,366.174 L838.873,365.897 L863.482,365.478 L883.958,365.126 L905.881,364.804 L918.387,364.615 L939.89,364.258 L974.608,363.804 L1005.28,363.409 L1022.18,363.214 L1035.78,363.074 L1042.54,363.004 L1051.78,362.909 L1074.35,362.675 L1090.32,362.53 L1109.47,362.359 L1130.96,362.222 L1138.3,362.197 L1151.17,362.153 L1196.75,361.934 L1218.99,361.931 L1243.84,361.809 L1276.57,361.763 L1284.3,361.76 L1285.9,361.759 L1289.03,361.756 L1302.39,361.742 L1306.61,361.606 L1311.19,362.974 L1312.93,363.496 L1327.48,363.267 L1329.3,363.238 L1349.99,363.107 L1354.53,363.055 L1359.33,363 L1371.76,362.948 L1379.71,362.914 L1381.34,362.907 L1384.58,362.893 L1385.07,362.893 L1390.96,362.886 L1397.35,362.878 L1414.14,362.859 L1416.77,362.834 L1424.52,362.761 L1424.62,362.76 L1429.27,362.716 L1444.95,362.569 L1448.58,362.569 L1489.95,362.568 L1524.53,362.476 L1524.53,362.476 L1534.29,362.45 L1543.8,362.173 L1587.12,361.747 L1592.6,361.729 L1598.26,361.711 L1633.11,361.637 L1675.55,361.523 L1675.7,459.203 L1675.7,459.223 L1675.84,546.841 L1675.85,553.09 L1675.81,572.338 L1675.7,635.198 L1675.59,642.635 L1675.6,675.316 L1675.6,690.149 L1675.6,690.188 L1675.6,691.72 L1675.59,712.27 L1675.58,731.798 L1675.55,800.483 L1679.77,800.504 L1732.75,800.768 L1735.14,800.779 L1772.49,800.965 L1779.35,801.093 L1784.18,801.182 L1819.62,801.183 L1839.66,801.183 L1841.57,801.183 L1854.38,801.877 L1895.32,801.79 L1925.82,801.421 L1936.26,801.294 L1940.47,801.582 L1977.2,801.094 L1978.53,800.855 L2002.49,800.658 L2016.25,800.545 L2018.14,800.746 L2018.43,800.756 L2026.39,800.503 L2065.77,800.632 L2066.09,800.612 L2100.77,800.437 L2106,800.41 L2111.58,800.382 L2112.09,800.35 L2113.84,800.342 L2124.28,800.294 L2124.35,800.294 L2153.93,800.363 L2160.82,800.38 L2167.82,800.396 L2170.7,800.403 L2181.91,799.976 L2263.78,799.159 L2269.92,798.703 L2289.01,799.224 L2329.5,799.311 L2330.03,874.974 L2329.82,923.203 L2330.06,945.644 L2330.1,949.533 L2330.16,964.367 L2329.5,998.38 L2329.5,998.401 L2329.54,998.577 L2329.29,1015.78 L2329.42,1017.88 L2329.21,1039.72 L2329.21,1134.99 L2329.2,1152.91 L2329.21,1152.97 L2329.22,1156.25 L2329.26,1204.85 L2329.24,1205.13 L2329.32,1283.74 L2329.18,1375.14 L2329.08,1444.31 L2329.08,1444.32 L2329.13,1459.48 L2329.27,1499.87 L2329.03,1601.62 L2329,1605.67 L2328.78,1645.4 L2328.77,1646.56 L2328.73,1654.82 L2328.44,1678.87 L2328.46,1679.05 L2328.28,1694.7 L2328.23,1695.07 L2328.15,1707.45 L2327.1,1740.89 L2326.4,1772.63 L2326.16,1823.2 L2326.26,1864.8 L2326.23,1958.61 L2328,1971.36 L2332.22,2004.8 L2332.2,2009.65 L2331.87,2073.62 L2331.88,2074.55 L2331.78,2084.02 L2332.45,2111.86 L2332.26,2122.71 L2332.19,2126.16 L2332.23,2138.91 L2332.22,2141.49 L2332.32,2156.3 L2332.11,2177.06 L2332.26,2181.11 L2332.22,2192.31 L2332.23,2193.12 L2332.06,2211.81 L2332.11,2229.29 L2332.1,2231.83 L2332.21,2237.41 L2332.19,2267.75 L2332.17,2267.78 L2331.77,2280.45 L2331.66,2286.71 L2330.9,2332.01 L2330.89,2338.3 L2330.87,2351.84 L2330.82,2383.48 L2330.97,2383.75 L2330.98,2387.63 L2331,2399.59 L2330.84,2403.29 L2330.83,2413.39 L2331.11,2440.18 L2331.09,2440.23 L2331.1,2441.25 L2331.1,2446.67 L2331.16,2450.71 L2331.14,2455.54 L2331.11,2456.33 L2331.09,2477.15 L2331.09,2478.79 L2331.09,2486.55 L2286.55,2486.47 L2269.31,2486.48 L2265.03,2486.44 L2259.63,2486.48 L2258.05,2486.49 L2257.44,2486.48 L2241.15,2486.5 L2234.28,2486.51 L2229.41,2486.52 L2222.08,2486.53 L2221.04,2486.52 L2220.6,2486.52 L2191.45,2486.54 L2191.44,2486.54 L2183.66,2486.54 L2140.98,2486.87 L2116.89,2486.85 L2116.88,2486.85 L2113.43,2486.84 L2059.09,2486.79 L2040.04,2486.89 L2039.94,2486.89 L2018.15,2487.01 L2018.15,2487 L2018.09,2486.79 L2011.24,2486.75 L1974.37,2486.81 L1970.57,2486.82 L1970.35,2486.82 L1969.29,2486.82 L1960.83,2486.83 L1960.81,2486.83 L1928,2486.89 L1927.98,2486.89 L1865.32,2487 L1865.23,2487 L1864.37,2487 L1858.69,2485.08 L1857.59,2484.71 L1854.39,2484.43 L1822.02,2484.76 L1813.47,2484.77 L1813.44,2484.65 L1788.47,2484.78 L1772.5,2484.86 L1671.19,2485.19 L1671.18,2485.19 L1669.07,2485.2 L1647.05,2485.86 L1644.95,2485.85 L1644.5,2485.85 L1643.89,2485.85 L1643.88,2485.85 L1615.13,2485.76 L1613.89,2485.75 L1613.87,2485.75 L1612.89,2485.75 L1607.89,2485.74 L1607.87,2485.74 L1607.38,2485.73 L1599.7,2485.98 L1593.83,2485.92 L1593.25,2485.92 L1589.34,2485.88 L1588.39,2485.87 L1587.37,2485.86 L1587.32,2485.86 L1574.45,2485.73 L1573.67,2485.72 L1571.94,2485.7 L1571.64,2485.7 L1562.75,2485.61 L1559.39,2485.58 L1558.28,2485.56 L1558.03,2485.56 L1557.92,2485.57 L1557.83,2485.57 L1556.01,2485.57 L1555.65,2485.57 L1524.84,2485.59 L1511.52,2485.6 L1505.59,2485.6 L1487.14,2485.61 L1482.85,2485.61 L1407.4,2485.66 L1246.17,2485.75 L1242.48,2485.71 L1240.41,2485.72 L1240.38,2485.72 L1204.71,2485.84 L1198.11,2485.86 L1189.81,2485.89 L1189.81,2485.89 L1186.97,2485.9 L1186.92,2485.9 L1186.34,2485.9 L1186.28,2485.9 L1184.79,2485.87 L1183.76,2485.88 L1180.24,2485.89 L1177.94,2485.89 L1163.6,2485.87 L1126.01,2485.94 L1091.64,2486 L1068.81,2486.04 L1059.33,2486.06 L1056.22,2486.07 L1051.13,2486.08 L1051.06,2486.08 L1046.78,2486.09 L1032.41,2486.09 L1030.42,2486.09 L1009.63,2486.1 L945.88,2486.12 L935.441,2486.12 L930.673,2486.12 L926.845,2486.12 L901.65,2486.13 L885.868,2486.13 L883.205,2486.14 L873.71,2486.14 L853.016,2486.14 L848.416,2486.15 L831.949,2486.15 L831.938,2486.15 L719.438,2486.19 L719.438,2486.16 L691.699,2486.01 L691.323,2449.89 L691.299,2448.84 L690.97,2443.51 L691.284,2431.05 L691.182,2425.79 L691.348,2415.41 L691.435,2390.12 L691.249,2369.55 L691.249,2369.28 L691.306,2365.76 L691.306,2365.56 L691.265,2333.88 L691.265,2333.76 L691.318,2314.24 L691.094,2308.73 L691.038,2291.89 L691.038,2291.86 L691.011,2283.74 L691.016,2279.4 L691.005,2273.31 L691.015,2273.07 L690.999,2267.63 L690.926,2242.11"/>
  </g>
  <g stroke-width="1" transform="matrix(0.999744,0,0,0.999744,0,0)" stroke-opacity="1" font-size="34.5833" fill="none" stroke-linejoin="bevel" font-style="normal" stroke-linecap="square" stroke="#000000" font-family="MS Shell Dlg 2" font-weight="400"/>
  <g stroke-width="1" transform="matrix(11.808,0,0,11.808,0,0)" stroke-opacity="1" font-size="34.5833" fill="none" stroke-linejoin="bevel" font-style="normal" stroke-linecap="square" stroke="#000000" font-family="MS Shell Dlg 2" font-weight="400"/>
  <g stroke-width="1" transform="matrix(11.808,0,0,11.808,0,0)" stroke-opacity="1" font-size="34.5833" fill="none" stroke-linejoin="bevel" font-style="normal" stroke-linecap="square" stroke="#000000" font-family="MS Shell Dlg 2" font-weight="400"/>
  <g stroke-width="1" transform="matrix(11.808,0,0,11.808,0,0)" stroke-opacity="1" font-size="34.5833" fill="none" stroke-linejoin="bevel" font-style="normal" stroke-linecap="square" stroke="#000000" font-family="MS Shell Dlg 2" font-weight="400"/>
  <g stroke-width="1" transform="matrix(1,0,0,1,0,0)" stroke-opacity="1" font-size="34.5833" fill="none" stroke-linejoin="bevel" font-style="normal" stroke-linecap="square" stroke="#000000" font-family="MS Shell Dlg 2" font-weight="400"/>
  <g stroke-width="1" transform="matrix(11.808,0,0,11.808,0,0)" stroke-opacity="1" font-size="34.5833" fill="none" stroke-linejoin="bevel" font-style="normal" stroke-linecap="square" stroke="#000000" font-family="MS Shell Dlg 2" font-weight="400"/>
  <g stroke-width="1" transform="matrix(11.808,0,0,11.808,0,0)" stroke-opacity="1" font-size="34.5833" fill="none" stroke-linejoin="bevel" font-style="normal" stroke-linecap="square" stroke="#000000" font-family="MS Shell Dlg 2" font-weight="400"/>
  <g stroke-width="1" transform="matrix(11.808,0,0,11.808,0,0)" stroke-opacity="1" font-size="34.5833" fill="none" stroke-linejoin="bevel" font-style="normal" stroke-linecap="square" stroke="#000000" font-family="MS Shell Dlg 2" font-weight="400"/>
  <g stroke-width="1" transform="matrix(11.808,0,0,11.808,0,0)" stroke-opacity="1" font-size="34.5833" fill="none" stroke-linejoin="bevel" font-style="normal" stroke-linecap="square" stroke="#000000" font-family="MS Shell Dlg 2" font-weight="400"/>
  <g stroke-width="1" transform="matrix(1,0,0,1,0,0)" stroke-opacity="1" font-size="34.5833" fill="none" stroke-linejoin="bevel" font-style="normal" stroke-linecap="square" stroke="#000000" font-family="MS Shell Dlg 2" font-weight="400"/>
 </g>
</svg>
