<?xml version='1.0' encoding='UTF-8' standalone='no'?>
<svg xmlns:xlink="http://www.w3.org/1999/xlink" baseProfile="tiny" xmlns="http://www.w3.org/2000/svg" height="249.936mm" viewBox="0 0 2952 2952" width="249.936mm" version="1.2">
 <title>Qt SVG Document</title>
 <desc>Generated with Qt</desc>
 <defs/>
 <g stroke-width="1" fill-rule="evenodd" fill="none" stroke-linejoin="bevel" stroke-linecap="square" stroke="black">
  <g stroke-width="1" transform="matrix(1,0,0,1,0,0)" stroke-opacity="1" font-size="34.5833" fill="none" stroke-linejoin="bevel" font-style="normal" stroke-linecap="square" stroke="#000000" font-family="MS Shell Dlg 2" font-weight="400"/>
  <g stroke-width="1" transform="matrix(1,0,0,1,0,0)" stroke-opacity="1" font-size="34.5833" fill="none" stroke-linejoin="bevel" font-style="normal" stroke-linecap="square" stroke="#000000" font-family="MS Shell Dlg 2" font-weight="400"/>
  <g stroke-width="1" transform="matrix(11.808,0,0,11.808,0,0)" stroke-opacity="1" font-size="34.5833" fill="none" stroke-linejoin="bevel" font-style="normal" stroke-linecap="square" stroke="#000000" font-family="MS Shell Dlg 2" font-weight="400"/>
  <g stroke-width="1" transform="matrix(0.999744,0,0,0.999744,0,0)" stroke-opacity="1" font-size="34.5833" fill="none" stroke-linejoin="bevel" font-style="normal" stroke-linecap="square" stroke="#000000" font-family="MS Shell Dlg 2" font-weight="400"/>
  <g transform="matrix(0.999744,0,0,0.999744,0,0)" font-size="34.5833" fill-opacity="0" fill="#ffffff" font-style="normal" stroke="none" font-family="MS Shell Dlg 2" font-weight="400">
   <path fill-rule="evenodd" vector-effect="none" d="M-2,-2 L2955,-2 L2955,2955 L-2,2955 L-2,-2"/>
  </g>
  <g stroke-width="1" transform="matrix(0.999744,0,0,0.999744,0,0)" stroke-opacity="1" font-size="34.5833" fill="none" stroke-linejoin="bevel" font-style="normal" stroke-linecap="square" stroke="#000000" font-family="MS Shell Dlg 2" font-weight="400"/>
  <g stroke-width="1" transform="matrix(11.808,0,0,11.808,0,0)" stroke-opacity="1" font-size="34.5833" fill="none" stroke-linejoin="bevel" font-style="normal" stroke-linecap="square" stroke="#000000" font-family="MS Shell Dlg 2" font-weight="400"/>
  <g stroke-width="1" transform="matrix(11.808,0,0,11.808,0,0)" stroke-opacity="1" font-size="34.5833" fill="none" stroke-linejoin="bevel" font-style="normal" stroke-linecap="square" stroke="#000000" font-family="MS Shell Dlg 2" font-weight="400"/>
  <g stroke-width="1" transform="matrix(11.808,0,0,11.808,0,0)" stroke-opacity="1" font-size="34.5833" fill="none" stroke-linejoin="bevel" font-style="normal" stroke-linecap="square" stroke="#000000" font-family="MS Shell Dlg 2" font-weight="400"/>
  <g stroke-width="1" transform="matrix(11.808,0,0,11.808,0,0)" stroke-opacity="1" font-size="34.5833" fill="none" stroke-linejoin="bevel" font-style="normal" stroke-linecap="square" stroke="#000000" font-family="MS Shell Dlg 2" font-weight="400"/>
  <g stroke-width="1" transform="matrix(11.808,0,0,11.808,0,0)" stroke-opacity="1" font-size="34.5833" fill="none" stroke-linejoin="bevel" font-style="normal" stroke-linecap="square" stroke="#000000" font-family="MS Shell Dlg 2" font-weight="400"/>
  <g transform="matrix(11.808,0,0,11.808,0,0)" font-size="34.5833" fill-opacity="0" fill="#ffffff" font-style="normal" stroke="none" font-family="MS Shell Dlg 2" font-weight="400">
   <path fill-rule="evenodd" vector-effect="none" d="M0,0 L250,0 L250,250 L0,250 L0,0"/>
  </g>
  <g stroke-width="1" transform="matrix(11.808,0,0,11.808,0,0)" stroke-opacity="1" font-size="34.5833" fill="none" stroke-linejoin="bevel" font-style="normal" stroke-linecap="square" stroke="#000000" font-family="MS Shell Dlg 2" font-weight="400"/>
  <g stroke-width="1" transform="matrix(11.808,0,0,11.808,0,0)" stroke-opacity="1" font-size="34.5833" fill="none" stroke-linejoin="bevel" font-style="normal" stroke-linecap="square" stroke="#000000" font-family="MS Shell Dlg 2" font-weight="400"/>
  <g transform="matrix(0.999744,0,0,0.999744,0,0)" font-size="34.5833" fill-opacity="0" fill="#000000" font-style="normal" stroke="none" font-family="MS Shell Dlg 2" font-weight="400">
   <rect x="0" height="2953" width="2953" y="0"/>
  </g>
  <g stroke-width="1" transform="matrix(0.999744,0,0,0.999744,0,0)" stroke-opacity="1" font-size="34.5833" fill="none" stroke-linejoin="bevel" font-style="normal" stroke-linecap="square" stroke="#000000" font-family="MS Shell Dlg 2" font-weight="400"/>
  <g stroke-width="3.07087" transform="matrix(0.999744,0,0,0.999744,0,0)" stroke-opacity="1" font-size="34.5833" fill-opacity="1" fill="#c5c5c5" stroke-linejoin="bevel" font-style="normal" stroke-linecap="square" stroke="#5c5c5c" font-family="MS Shell Dlg 2" font-weight="400">
   <path fill-rule="evenodd" vector-effect="none" d="M976.35,1333.94 L979.937,1317.93 L981.05,1310.76 L981.654,1304.07 L987.069,1292.4 L989.714,1286.69 L991.715,1279.3 L992.559,1276.19 L992.835,1275.17 L992.582,1270.95 L991.316,1263.54 L990.05,1258.8 L990.062,1257.67 L992.583,1253.32 L994.83,1251.98 L997.856,1247.7 L998.409,1246.34 L999.597,1240.63 L1000.12,1238.11 L1000.69,1232.09 L1002.68,1228.72 L1002.77,1228.04 L1001.98,1226.36 L1001.53,1223.96 L1001.83,1222 L1002.48,1220.31 L1005.89,1217.09 L1006.35,1215.56 L1005.9,1211.29 L1005.63,1208.75 L1005.77,1207.17 L1007.07,1205.93 L1009.05,1205.69 L1009.88,1205.2 L1010.97,1201.7 L1013.81,1199.72 L1015.31,1199.36 L1017.11,1197.36 L1018.19,1195.29 L1023.59,1191.81 L1023.93,1190.22 L1026.15,1185.15 L1027.8,1182.23 L1027.81,1179.34 L1028.13,1178.7 L1030.58,1176.66 L1031.16,1172.82 L1033.87,1170.73 L1035.88,1169.19 L1035.31,1166.12 L1039.34,1164.81 L1041.04,1163.58 L1043.25,1160.72 L1043.99,1160.5 L1046.88,1161.28 L1047.56,1161.03 L1049.93,1156.11 L1051.9,1148.99 L1051.91,1148.95 L1053.91,1143.35 L1054.26,1142.35 L1055.4,1134.6 L1054.61,1129.56 L1051.78,1122.89 L1048.39,1110.82 L1047.17,1103.41 L1046.97,1095.37 L1047.4,1090.07 L1047.41,1089.99 L1047.31,1082.64 L1046.6,1078.55 L1045.46,1074.34 L1045.23,1073.46 L1040.67,1062.55 L1040.48,1055.95 L1041.33,1049.1 L1043.33,1045.87 L1049.21,1040.04 L1051.66,1037.15 L1052.91,1034.94 L1054.53,1029.53 L1055.74,1022.64 L1064.76,1000.16 L1066.11,992.104 L1066.14,991.57 L1066.27,989.48 L1065.27,984.827 L1062.21,977.113 L1063.08,969.031 L1062.94,962.609 L1062.69,960.615 L1062.35,957.933 L1059.52,949.988 L1059.21,944.33 L1058.1,937.223 L1054.25,931.177 L1050.26,927.053 L1049.28,925.591 L1048.92,923.122 L1049.11,920.144 L1049.06,919.735 L1048.54,915.391 L1047.35,913.789 L1044.49,912.601 L1043.9,911.966 L1043.2,910.364 L1043.01,907.533 L1042.57,906.084 L1037.95,899.626 L1037.76,898.598 L1038.18,896.526 L1038.11,895.474 L1035.5,892.094 L1031.07,889.043 L1027.85,887.707 L1026.85,886.831 L1025.84,884.845 L1024.79,882.779 L1023.92,881.928 L1023.85,881.854 L1020.31,878.402 L1015.87,871.475 L1015.08,865.709 L1013.75,863.002 L1011.22,859.334 L1011.35,858.224 L1013.68,855.363 L1014.36,853.955 L1014.66,852.411 L1014.34,850.326 L1011.92,845.383 L1010.54,839.297 L1006.25,834.892 L1005.99,833.89 L1006.15,832.78 L1007.79,829.228 L1008.32,826.378 L1008.69,822.766 L1008.36,821.114 L1007.9,818.823 L1008.14,818.098 L1012.53,814.599 L1013.27,813.621 L1010.4,809.86 L1009.58,809.055 L1009.89,808.246 L1011.81,807.136 L1013.64,803.587 L1013.61,802.773 L1013.02,801.603 L1012.95,800.207 L1014.11,799.005 L1014.91,797.1 L1016.03,795.323 L1016.7,794.996 L1018.24,795.167 L1018.82,794.325 L1018.57,792.051 L1016.91,789.71 L1017.98,786.18 L1017.49,784.103 L1017.38,783.631 L1017.4,783.332 L1017.46,782.502 L1017.93,781.998 L1018.36,781.847 L1020.35,781.136 L1020.22,778.698 L1018.81,776.534 L1018.52,775.573 L1021.54,773.21 L1024.03,767.087 L1024.02,766.345 L1021.94,765.445 L1021.12,764.423 L1021.24,763.309 L1021.38,762.02 L1021.69,739.766 L1021.38,725.592 L1022.48,722.546 L1026.3,717.483 L1028.37,713.725 L1028.64,712.838 L1029.84,708.999 L1031.9,702.347 L1032.91,698.18 L1034.67,695.285 L1040,690.184 L1041.21,687.454 L1041.6,684.318 L1041.11,675.139 L1040.8,672.512 L1040.17,670.39 L1036.62,666.396 L1030.96,660.02 L1028.92,656.509 L1028,655.53 L1026.05,653.938 L1021.31,651.175 L1019.82,649.76 L1018.83,648.813 L1017.78,647.4 L1015.28,642.505 L1013.17,641.58 L1012.71,641.007 L1011.52,634.838 L1011.5,631.508 L1012.48,624.264 L1015.05,621.001 L1017.38,619.532 L1019.17,615.777 L1020.82,608.418 L1022.94,596.787 L1023.46,593.958 L1024.65,588.874 L1026.05,585.272 L1027.21,582.483 L1028.81,579.969 L1032.44,576.478 L1035.59,574.282 L1036.64,573.551 L1037.62,571.566 L1037.96,570.865 L1038.27,565.199 L1037.57,548.228 L1038.63,533.091 L1038.42,529.38 L1038.12,528.378 L1034.37,524.338 L1030.95,519.264 L1029.29,515.364 L1028.77,513.321 L1028.52,512.349 L1028.2,509.447 L1028.95,506.966 L1028.99,506.883 L1030.97,503.314 L1032.2,499.258 L1035.38,488.725 L1093.9,487.541 L1099.05,487.037 L1129.7,486.271 L1143.29,485.931 L1195.8,484.618 L1196.43,485.273 L1208.83,485.242 L1212.2,484.287 L1216.72,484.417 L1219.23,485.232 L1219.25,485.239 L1239.74,484.99 L1240.23,485.071 L1253.59,485.428 L1269.38,485.85 L1289.09,485.7 L1289.14,485.357 L1292.73,484.919 L1345.74,483.589 L1353.86,483.722 L1388.37,484.283 L1434.96,484.549 L1452.34,484.648 L1505.29,486.609 L1507.25,486.924 L1507.44,487.007 L1509.98,488.104 L1526.49,490.962 L1527.45,490.988 L1541.09,491.354 L1573.2,490.463 L1593.27,490.757 L1602.86,491.313 L1612.45,491.868 L1622.94,492.476 L1623.23,492.483 L1655.83,493.326 L1667.89,494.125 L1679.85,494.917 L1691.21,494.322 L1704.31,494.596 L1719.37,494.21 L1773.16,492.832 L1784.75,493 L1804.72,493.288 L1809,493.35 L1818.22,493.153 L1818.58,493.145 L1840.75,492.67 L1854.74,492.305 L1858.77,492.297 L1881.59,491.344 L1906.24,490.914 L1926.32,491.415 L1937.14,491.037 L2018.37,488.198 L2061.63,488.212 L2065.51,488.214 L2116.7,487.075 L2147.44,487.211 L2149.87,487.165 L2173.49,486.719 L2184.55,486.511 L2207.03,486.26 L2207.34,486.256 L2206.28,487.737 L2201.9,488.949 L2200.09,490.301 L2199.01,491.713 L2197.94,495.726 L2192.98,497.464 L2192.5,497.258 L2186.84,494.868 L2184.57,492.341 L2182.11,491.097 L2180.38,491.081 L2176.64,494.337 L2176.11,494.798 L2172.73,496.268 L2169.62,496.63 L2166.77,498.398 L2166.45,498.593 L2162.58,503.442 L2162.25,504.667 L2164.19,505.38 L2164.79,506.171 L2163.31,507.61 L2161.54,507.97 L2161.15,508.715 L2161.26,509.456 L2160.39,510.572 L2159.57,511.615 L2159.73,512.591 L2161.65,512.141 L2164.6,517.726 L2165.51,519.439 L2168.28,521.516 L2170.82,528 L2171.68,528.565 L2170.53,529.506 L2170.64,530.076 L2172.61,530.493 L2173.46,530.371 L2174.2,529.703 L2175.1,529.539 L2175.97,534.678 L2174.74,544.51 L2175.56,548.095 L2175.45,548.74 L2175.15,550.452 L2174.65,551.459 L2173.51,552.256 L2171.92,552.256 L2171.6,552.83 L2173.26,554.489 L2175.05,555.45 L2175.75,562.375 L2179.48,565.8 L2182.43,569.648 L2184.73,573.636 L2184.88,574.91 L2184.88,575.908 L2185.26,576.597 L2185.9,576.823 L2188.14,576.051 L2188.72,576.013 L2189.37,576.211 L2189.42,576.57 L2189.54,577.284 L2188.52,577.541 L2187.84,578.434 L2187.71,578.602 L2187.75,579.957 L2188.45,581.226 L2188.4,582.653 L2188.11,583.25 L2187.85,583.156 L2187.34,583.266 L2186.57,582.615 L2185.52,582.235 L2184.55,582.535 L2183.68,584.044 L2182.13,585.827 L2179.83,588.462 L2176.57,591.153 L2176.27,591.755 L2176.43,592.473 L2177.92,593.862 L2177.56,595.029 L2171.25,603.337 L2168.61,604.845 L2167.54,605.971 L2167.2,606.755 L2167.04,609.721 L2163.65,613.12 L2160.2,614.065 L2156.59,616.257 L2154.32,619.375 L2153.92,620.24 L2153.84,622.051 L2155.04,624.283 L2155.06,625.59 L2151.75,628.589 L2150.54,629.975 L2149.79,631.506 L2149.82,633.218 L2150.89,634.211 L2152.38,637.453 L2152.78,639.953 L2152.65,641.213 L2151.72,642.718 L2149.25,644.164 L2146.52,652.368 L2146.39,652.775 L2145.48,653.418 L2144.82,653.418 L2144.58,652.734 L2142.86,653.479 L2138.86,658.538 L2138.12,660.316 L2138.35,662.508 L2139.77,665.307 L2142.04,666.687 L2142.12,668.243 L2141.3,669.797 L2139.6,676.241 L2140.49,678.981 L2139.53,681.573 L2135.98,686.682 L2135.31,687.201 L2132.58,686.978 L2127.23,689.577 L2124.74,692.907 L2124.91,694.288 L2125.39,695.294 L2125.31,696.041 L2121.92,698.989 L2121.45,699.907 L2119.96,702.793 L2117.7,704.621 L2115.5,705.774 L2113.94,709.046 L2113.96,710.766 L2111.65,713.209 L2107.91,713.866 L2103.34,715.52 L2102.95,716.214 L2102.9,718.085 L2102.98,718.297 L2103.43,719.529 L2106.05,720.816 L2107.13,723.667 L2107.21,729.709 L2106.84,731.495 L2106.86,735.669 L2107.29,736.793 L2108.32,737.879 L2108.74,737.899 L2110.94,736.573 L2111.82,736.893 L2111.96,737.656 L2111.29,741.288 L2111.39,742.432 L2114.67,745.661 L2119.77,755.127 L2123,757.613 L2123.34,758.877 L2122.36,761.565 L2122.36,762.367 L2122.74,763.229 L2123.68,764.032 L2126.5,764.973 L2126.36,765.795 L2124.8,766.738 L2124.06,768.584 L2125.06,773.637 L2126.44,776.484 L2126.16,778.39 L2125.09,780.115 L2125.15,780.636 L2129.06,783.742 L2130.72,784.283 L2133.44,784.362 L2134.08,785.505 L2133.74,786.628 L2132.52,788.419 L2131.79,789.239 L2131.79,790.671 L2132.46,792.682 L2132.04,794.286 L2131.36,796.018 L2131.21,796.401 L2131.21,797.834 L2132.29,799.291 L2133.47,800.339 L2137.8,801.155 L2137.99,802.135 L2137.62,803.358 L2137.76,804.381 L2138.35,805.609 L2140.21,805.819 L2141.41,805.722 L2142.38,804.798 L2143.02,803.024 L2143.96,802.758 L2145.04,803.667 L2146.69,805.949 L2148.69,811.08 L2149.01,813.244 L2149.03,813.344 L2148.51,814.807 L2146.15,815.348 L2146.15,817.311 L2146.47,817.913 L2150.42,821.887 L2152.7,823.61 L2154.34,822.89 L2155.76,823.37 L2155.95,824.952 L2152.96,825.787 L2150.51,823.865 L2149.45,825.042 L2150,826.117 L2152.49,826.718 L2154.41,827.588 L2155.77,827.98 L2156.54,829.714 L2155.96,830.824 L2153.64,829.883 L2151.55,827.96 L2150.87,828.779 L2150.41,830.896 L2149.94,835.087 L2151.58,840.607 L2152.06,844.584 L2151.39,846.112 L2150.38,847.114 L2148.41,847.28 L2146.65,847.593 L2146.87,849.291 L2147.77,849.975 L2149.75,850.193 L2153.06,848.898 L2153.83,849.188 L2153.64,850.332 L2151.83,851.435 L2151.67,854.201 L2150.99,855.425 L2151.88,855.711 L2154.23,854.158 L2155.34,852.737 L2156.47,852.272 L2157.12,852.801 L2157.23,854.092 L2156.87,855.566 L2156,856.621 L2155.81,857.349 L2156.67,857.954 L2157.72,857.379 L2160.5,854.956 L2161.58,855.012 L2161.93,855.814 L2161.74,857.158 L2160.47,858.854 L2160.45,860.026 L2161.66,860.765 L2163.04,860.288 L2163.55,860.276 L2163.68,860.273 L2163.62,861.006 L2162.27,863.069 L2162.04,864.746 L2160.93,866.341 L2157.97,868.696 L2156.78,869.595 L2155.32,869.824 L2153.87,869.025 L2152.48,866.76 L2151.36,866.62 L2151.27,867.915 L2151.69,868.89 L2151.97,870.188 L2154.69,873.551 L2154.83,874.612 L2154.25,875.632 L2152.99,876.552 L2152.39,876.652 L2149.98,875.571 L2149.33,875.773 L2149.06,875.857 L2148.43,877.321 L2148.69,880.129 L2147.89,881.402 L2145.67,882.191 L2141.81,882.577 L2138.11,880.827 L2128.97,880.023 L2127.77,880.527 L2126.63,881.67 L2125.25,884.222 L2124.21,887.484 L2124.01,889.025 L2124.83,890.766 L2130.28,895.645 L2138.32,901.765 L2139.63,904.285 L2139.67,905.745 L2138.78,908.066 L2137.26,910.986 L2133.75,916.166 L2131.74,917.687 L2130.88,917.888 L2127.3,917.389 L2126.42,918.549 L2126.6,920.248 L2127.76,921.968 L2131.01,924.686 L2131.6,925.766 L2132.22,928.645 L2133.3,930.283 L2136.71,933.242 L2137.15,933.981 L2136.79,935.161 L2136.09,935.84 L2135.33,935.96 L2132.9,934.702 L2131.17,935.002 L2131.65,937.466 L2130.97,938.805 L2129.31,938.806 L2129.31,938.066 L2128.92,937.466 L2127.88,936.663 L2126.39,936.86 L2125.94,938.68 L2125.66,942.392 L2124.73,945.634 L2124.14,947.682 L2123.16,949.361 L2118.81,950.637 L2116.87,951.204 L2112.91,949.808 L2111.85,950.009 L2110.46,952.373 L2107.82,959.315 L2104.11,960.648 L2100.74,958.306 L2102.15,955.955 L2106.14,954.444 L2107.23,953.446 L2106.82,952.207 L2105.59,951.327 L2103.5,951.226 L2102.38,951.604 L2098.31,956.898 L2095.94,957.936 L2094.21,959.254 L2093.09,961.017 L2092.78,961.98 L2092.98,963.77 L2093.8,964.737 L2097.36,967.302 L2097.63,968.831 L2096.11,970.975 L2094.72,972.014 L2090.2,971.514 L2089.56,972.054 L2087.08,977.732 L2086.02,985.659 L2084.7,988.702 L2084.27,989.713 L2082.79,991.409 L2079.83,993.007 L2074.56,993.724 L2073.39,994.322 L2073.38,994.917 L2074.54,997.409 L2075.43,999.831 L2074.82,1001.46 L2074.14,1001.72 L2072.72,1000.7 L2071.25,1001.03 L2070.47,1003.97 L2067.43,1005.92 L2060.81,1010.87 L2055.44,1014.45 L2051.04,1015.75 L2044.11,1014.97 L2040.79,1015.29 L2038.04,1016.12 L2036.85,1017.12 L2036.41,1017.75 L2035.55,1018.99 L2034.06,1022.84 L2033.56,1023.46 L2032.37,1023.72 L2029.55,1023.2 L2026.55,1020.04 L2025.46,1019.32 L2021.8,1018.77 L2019.92,1019.16 L2019.47,1019.4 L2018.1,1020.15 L2015.04,1022.2 L2013.42,1023.92 L2011.41,1025.08 L2003.88,1024.68 L2001.86,1025.54 L1996.6,1030.69 L1995.89,1031.99 L1995.89,1033.3 L1998.13,1037.17 L1997.87,1038.64 L1995.91,1039.46 L1992.56,1039 L1989.88,1039.92 L1989.09,1040.68 L1988.23,1046.33 L1988.55,1047.09 L1990.32,1048.89 L1990.43,1049.79 L1990.06,1050.7 L1988.4,1052.11 L1987.99,1053.23 L1988.72,1056.61 L1990.29,1061.15 L1990.45,1062.13 L1990.02,1063.71 L1989.11,1064.59 L1986.32,1065.98 L1981.69,1066.8 L1977.32,1068.43 L1974.54,1070.52 L1970.42,1073.6 L1969.98,1073.85 L1965.24,1076.51 L1959.43,1077.18 L1954.45,1079.92 L1952.86,1080.21 L1950.74,1079.57 L1946.98,1077.09 L1934.23,1070.73 L1931.37,1070.04 L1924.81,1071.57 L1920.03,1075.51 L1917.52,1079.38 L1913.6,1080.96 L1911.32,1080.9 L1907.51,1079.24 L1899.42,1079.41 L1896.3,1080.28 L1885.07,1079.45 L1882.89,1080.55 L1882.87,1080.62 L1881.73,1084.93 L1880.59,1086.2 L1871.85,1090.47 L1867.07,1093.01 L1864.22,1093.81 L1861.36,1094.38 L1857.21,1092.92 L1855.17,1092.62 L1852.62,1094.4 L1852.21,1097.03 L1853.12,1098.42 L1853.13,1106.33 L1853,1108.88 L1852.42,1110.51 L1851.62,1111.77 L1850.19,1114.04 L1848.96,1115.23 L1844.41,1119.14 L1840.13,1120.39 L1840.01,1120.43 L1837.47,1123.17 L1836.56,1124.14 L1832.47,1131.99 L1831.01,1137.44 L1831.83,1139.75 L1833.03,1140.04 L1835.34,1138.32 L1836.65,1138.29 L1836.82,1140.14 L1836.51,1141.86 L1835.97,1142.66 L1835.63,1142.69 L1835.13,1144.06 L1836,1150.47 L1836.08,1150.65 L1839.61,1158.39 L1842.03,1160.9 L1843.06,1163.37 L1843.42,1165.74 L1841.69,1170.01 L1839.87,1176.58 L1839.67,1179.48 L1840.44,1182.85 L1840.27,1183.69 L1840.09,1184.56 L1836.73,1192.1 L1837.07,1193.96 L1836.5,1197.4 L1835.82,1198.86 L1833.64,1200.59 L1833.01,1201.9 L1832.02,1208.14 L1835.03,1212.34 L1837.43,1217.13 L1840.22,1227.17 L1841.15,1228.63 L1842.75,1229.66 L1843.6,1232.47 L1844.24,1232.82 L1845.15,1232.52 L1846.87,1232.56 L1846.85,1233.33 L1845.84,1235.65 L1846.16,1236.72 L1846.54,1236.88 L1846.86,1237.01 L1848.24,1236.63 L1849.25,1237.46 L1848.82,1237.89 L1848.62,1238.08 L1847.67,1239.01 L1847.57,1239.18 L1846.65,1240.76 L1846.55,1241.62 L1846.88,1248.86 L1847.1,1253.89 L1849.68,1256.84 L1851.93,1257.93 L1852.27,1258.78 L1849.9,1264.72 L1849.07,1264.79 L1847.89,1263.89 L1847.13,1263.9 L1844.33,1265.41 L1840.64,1268.91 L1840.49,1269.59 L1839.19,1275.64 L1839.09,1277.38 L1840.19,1283.08 L1840.61,1285.25 L1841.48,1287.19 L1843.14,1288.88 L1845.28,1289.32 L1845.83,1288.77 L1846.16,1287.92 L1846.17,1285.64 L1847.51,1283.6 L1848.81,1282.76 L1851.03,1283.45 L1853.35,1284.74 L1854.28,1286 L1854.47,1286.76 L1854.5,1287.66 L1853.77,1292.93 L1853.5,1293.77 L1852.29,1295.24 L1850.74,1296.17 L1848.21,1296.46 L1846.23,1296.43 L1845.76,1296.93 L1845.88,1297.75 L1847.64,1299.01 L1850.06,1300.37 L1853.38,1301.7 L1854.47,1303.84 L1854.32,1304.14 L1853.93,1304.96 L1853.64,1305.2 L1852.88,1305.83 L1852.1,1306.17 L1850.74,1306.48 L1849.27,1306.29 L1848.3,1305.28 L1847.56,1304.32 L1846.36,1304.03 L1844.37,1305.1 L1841.39,1305.95 L1840.55,1306.41 L1840.69,1307.5 L1841.72,1308.43 L1843.05,1310.09 L1843.6,1311.83 L1843.17,1313 L1839.93,1316.82 L1838.15,1321.29 L1837.63,1322.1 L1836.57,1322.73 L1832.49,1322.37 L1831.12,1322.64 L1831.11,1322.66 L1830.16,1325.43 L1830.62,1326.12 L1834.17,1328.2 L1834.52,1329.67 L1831.86,1330.22 L1826.58,1333.17 L1825.03,1334.3 L1824.02,1335.78 L1823.64,1337.05 L1823.76,1338.7 L1826.2,1342.96 L1826.5,1344.55 L1826.1,1345.53 L1823.82,1346.91 L1823.61,1347.04 L1823.39,1347.17 L1822.54,1348.24 L1822.22,1349.61 L1822.34,1352.49 L1821.87,1353.77 L1820.35,1354.51 L1816.85,1351.91 L1815.88,1351.77 L1814.62,1352.88 L1813.97,1354.05 L1813.61,1355.92 L1813.91,1358.53 L1816.83,1361.94 L1817.27,1363.21 L1817.11,1364.4 L1816.38,1365.08 L1815.12,1364.86 L1815.04,1363.93 L1813.88,1361.21 L1811.6,1359.57 L1809.37,1360.08 L1807.61,1362.01 L1807.83,1364.84 L1808.68,1369.32 L1808.56,1370.53 L1805.28,1372.53 L1800.31,1377.78 L1800.49,1379.97 L1802.92,1383.38 L1803.58,1386.05 L1803.23,1392.1 L1803.12,1394.1 L1802.75,1396.58 L1801.74,1399.45 L1801.72,1400.45 L1802.01,1401.16 L1804.08,1401.64 L1806.52,1399.42 L1807.81,1399.05 L1813.31,1400.62 L1816.46,1402.09 L1817.02,1402.63 L1816.93,1402.98 L1811.81,1404.35 L1810.57,1405.52 L1810.35,1406.93 L1811.56,1408.64 L1811.73,1409.7 L1811.58,1409.95 L1811.57,1409.98 L1808.15,1415.87 L1807.25,1416.88 L1804.13,1418.37 L1801.39,1418.39 L1799.78,1419.08 L1799.25,1420.36 L1799.07,1422.21 L1800.45,1429.09 L1800.45,1430.27 L1799.67,1439.47 L1798.94,1441.5 L1797.81,1443.23 L1791.26,1448.98 L1789,1450.96 L1782.81,1455.07 L1778.89,1458.17 L1776.15,1462.14 L1774.36,1465.91 L1773.97,1469.76 L1772.97,1470.71 L1768.97,1471.67 L1767.55,1471.51 L1766.86,1471.43 L1766.21,1472.32 L1765.5,1473.74 L1765.01,1477.24 L1766.05,1480.29 L1767.38,1482.65 L1767.66,1483.37 L1768.08,1484.47 L1768.81,1486.35 L1764.26,1488.74 L1761.38,1488.92 L1759.16,1489.65 L1758.01,1491.33 L1756.06,1497.62 L1756.4,1499.79 L1759.21,1507.15 L1759.63,1516.73 L1758.92,1519.61 L1757.11,1522.87 L1755.85,1526.37 L1755.66,1527.87 L1756.99,1532.44 L1758.39,1535.33 L1758.47,1535.91 L1758.92,1539.08 L1757.98,1542.09 L1754.29,1545.45 L1752.78,1550.74 L1751.3,1553.51 L1750.37,1554.79 L1745.99,1558.17 L1745.22,1559.57 L1745.08,1561.47 L1745.55,1570.99 L1745.4,1571.14 L1745.28,1571.26 L1743.82,1572.7 L1741.78,1574.07 L1738.24,1575.09 L1737.23,1575.77 L1735.97,1577.58 L1734.76,1580.86 L1733.77,1582.58 L1728.12,1590.83 L1720.41,1595.32 L1709.85,1602.13 L1708.44,1603.03 L1704.12,1603.05 L1701.07,1609.17 L1698.71,1611.26 L1697.04,1613.24 L1695.62,1614.94 L1694.28,1617.63 L1691,1622.74 L1689.32,1624.75 L1686.32,1626.86 L1685.37,1628.45 L1684.35,1630.17 L1682.82,1636.17 L1682.7,1638.98 L1682.7,1638.98 L1682.4,1646.75 L1682.38,1647.13 L1683.42,1648.79 L1684.21,1651.43 L1684.01,1654.9 L1683.44,1658.82 L1682.54,1661.39 L1680.45,1665.27 L1679.38,1667.26 L1678.1,1668.36 L1677.39,1670.33 L1676.74,1676.15 L1676.94,1676.79 L1677.49,1678.61 L1677.35,1681.84 L1676.63,1683.26 L1672.09,1685.21 L1669.05,1687.05 L1667.97,1688.09 L1667.74,1688.64 L1667.73,1688.64 L1667.63,1688.88 L1667.75,1690.43 L1669.07,1691.87 L1669.15,1692.42 L1668.07,1695.48 L1665.95,1697.13 L1664.68,1702.15 L1664.46,1706.23 L1665.74,1709.85 L1667.72,1711.5 L1668.53,1712.84 L1668.57,1713.27 L1668.88,1716.43 L1668.35,1718.04 L1667.66,1718.56 L1667.62,1718.58 L1665.94,1719.28 L1657.33,1727.17 L1654.99,1729.31 L1646.26,1732.82 L1646.15,1732.89 L1640.52,1736.46 L1636.58,1741.07 L1634.59,1749.63 L1634.49,1751.07 L1635.49,1757.56 L1635.99,1769.64 L1634.16,1774.54 L1630.55,1780.5 L1629.55,1781.36 L1627.36,1781.24 L1626.28,1784.27 L1626.36,1787.13 L1626.17,1787.79 L1626,1788.4 L1624.65,1793.26 L1624.77,1795.5 L1626.06,1797.88 L1630.27,1801.46 L1633.25,1804.59 L1635.67,1810.49 L1636,1812.01 L1635.96,1814.68 L1635.94,1814.87 L1635.16,1821.93 L1634.88,1823.21 L1634.39,1825.45 L1633.43,1827 L1633.29,1827.15 L1629.7,1830.95 L1629.04,1831.66 L1628.43,1832.87 L1628.35,1834.84 L1629.64,1846.74 L1629.25,1848.39 L1627.5,1852.38 L1626.46,1857.64 L1626.3,1864.14 L1625.97,1865.89 L1625.96,1865.94 L1623.77,1877.65 L1623.67,1881.3 L1622.79,1887.58 L1622.74,1887.95 L1621.38,1897.67 L1620.48,1899.34 L1616.82,1902.96 L1615.55,1904.22 L1614.16,1907.73 L1613.78,1910.89 L1614.33,1920.02 L1614.59,1921.41 L1615.41,1922.73 L1621.29,1926.71 L1623.48,1927.07 L1628.64,1926.91 L1629.93,1927.72 L1629.81,1928.09 L1629.42,1929.38 L1626.62,1933.3 L1624.2,1935.73 L1623.14,1937.28 L1619.62,1944.12 L1619.57,1944.21 L1618.11,1947.05 L1617.29,1949.38 L1617.39,1950.48 L1618.33,1952.81 L1622.17,1959.06 L1625.24,1961.91 L1626.37,1964.01 L1626.58,1965.4 L1622.71,1973.63 L1618.86,1991.2 L1614.11,2001.07 L1610.29,2007.87 L1606.48,2009.77 L1606.47,2009.78 L1601.78,2012.11 L1601.06,2013 L1599.61,2016.89 L1599.46,2024.31 L1600.89,2029.38 L1602.41,2032.26 L1602.74,2033.56 L1602.74,2033.57 L1602.68,2033.87 L1602.25,2036.14 L1601.85,2037.02 L1601.62,2037.54 L1600.26,2040.56 L1598.49,2045.88 L1598.45,2049.13 L1599.68,2054.47 L1600.22,2059.84 L1599.44,2061.3 L1592.39,2068.62 L1592.91,2071.46 L1596.46,2077.4 L1596.67,2079.53 L1595.74,2081.04 L1591.67,2085.31 L1590.97,2086.05 L1591.39,2087.71 L1591.25,2095.2 L1591.25,2095.26 L1591.59,2100.55 L1591.44,2101.98 L1590.81,2103.27 L1588.48,2105.37 L1588.11,2106.25 L1588.26,2107.91 L1591.32,2114.43 L1593.62,2115.92 L1596.17,2115.76 L1597.61,2116.41 L1598.23,2117.11 L1598.25,2117.47 L1598.41,2120.18 L1598.31,2120.8 L1597.09,2121.08 L1596.97,2121.9 L1598.2,2124.11 L1599.87,2126.04 L1600.08,2126.27 L1601.33,2127.72 L1603.18,2130.9 L1603.38,2135.67 L1603.09,2136.9 L1602.01,2139.23 L1598.43,2142.45 L1597.28,2144.6 L1596.9,2146.98 L1599.29,2152.1 L1601.8,2159.13 L1601.75,2160.94 L1601.72,2161.76 L1601.18,2163.31 L1598.88,2167.31 L1595.55,2172.17 L1592.12,2176.06 L1589.62,2178.89 L1585.41,2182.74 L1583.94,2184.08 L1582.27,2186.37 L1581.73,2188.14 L1582.06,2191.09 L1582.64,2192.53 L1584.92,2195.34 L1586.16,2198.37 L1585.76,2202.39 L1584.46,2208.73 L1584.83,2211.26 L1586.54,2215.51 L1586.55,2215.55 L1586.95,2216.53 L1588.17,2218.32 L1590.7,2219.65 L1595.91,2224.06 L1596.41,2225.42 L1596.45,2227.74 L1595.69,2229.3 L1593.36,2232.07 L1591.44,2232.58 L1588.23,2231.96 L1586.35,2233 L1584.49,2235.68 L1583.38,2238.55 L1582.99,2241.98 L1583.81,2244.92 L1585.33,2246.68 L1585.31,2247.65 L1582.59,2251.43 L1577.7,2256.91 L1575.89,2257.17 L1574.32,2255.59 L1572.78,2255.26 L1569.56,2257.13 L1565.99,2260.66 L1558.73,2262.22 L1556.44,2263.63 L1549.87,2264.48 L1548.33,2265.74 L1541.29,2271.49 L1540.08,2273.89 L1539.81,2275.8 L1540.22,2276.91 L1541.6,2278.68 L1542.8,2279.01 L1543.56,2279.69 L1544.25,2281.54 L1544.76,2284.31 L1544.93,2287.88 L1544.84,2289.11 L1544.46,2293.95 L1546.24,2302.55 L1546.13,2305.04 L1545.6,2306.07 L1543.16,2307.47 L1542.52,2308.44 L1541.66,2312.2 L1541.73,2320.05 L1540.94,2321.61 L1540.92,2321.65 L1538.11,2325.23 L1535.97,2327.35 L1532.36,2329.25 L1528.91,2330.54 L1528.41,2331.1 L1526.8,2339.23 L1526.97,2342.95 L1526.3,2346.44 L1526.32,2346.66 L1526.36,2347.04 L1526.97,2347.48 L1527.53,2352.33 L1527.02,2353.96 L1526.26,2356.36 L1525.65,2358.3 L1526.07,2359.24 L1526.25,2359.64 L1528.04,2363.67 L1531.08,2367.66 L1531.79,2371.43 L1531.89,2374.32 L1532.64,2379.74 L1532.88,2381.47 L1533.06,2382.99 L1533.43,2385.99 L1534.03,2387.24 L1534.78,2389.2 L1535.5,2395.79 L1536.66,2399.29 L1545.19,2407.05 L1549.92,2411.35 L1551.49,2413.12 L1554.03,2416.9 L1554.04,2416.9 L1555.84,2420.47 L1556.35,2423.05 L1556.14,2424.98 L1555.03,2426.16 L1552.11,2427.68 L1550.93,2430.03 L1551.33,2432.34 L1553.19,2434.15 L1554.59,2434.21 L1556.39,2433.65 L1560.94,2430.89 L1561.84,2429.7 L1562.12,2427.22 L1562.65,2426.42 L1564.27,2426.11 L1566.91,2426.8 L1569,2429.43 L1569.85,2431.47 L1570.8,2432.69 L1574.25,2434.75 L1575.33,2436.34 L1576.38,2439.35 L1577.14,2445.27 L1578.17,2449.36 L1581.44,2453.36 L1585.7,2460.16 L1587.26,2463.65 L1587.25,2465.56 L1550.94,2464.18 L1520.27,2463.03 L1517.71,2462.93 L1499.84,2462.25 L1488.78,2461.84 L1452.39,2460.46 L1445.22,2460.19 L1387.15,2458 L1379.78,2457.72 L1368.52,2457.29 L1338.24,2456.41 L1334.1,2456.29 L1322.56,2455.96 L1294.93,2455.16 L1292.95,2455.1 L1237.81,2453.5 L1235.15,2453.43 L1235.08,2453.42 L1219.22,2453 L1193.35,2452.3 L1160.54,2451.41 L1147.35,2451.05 L1116.45,2450.22 L1084.14,2449.34 L1076.99,2449.28 L1067.93,2401.77 L1068.95,2399.91 L1070.8,2396.56 L1071.49,2394.46 L1072.42,2391.61 L1070.35,2386.27 L1071.4,2374.4 L1072.07,2373.67 L1075.59,2374.98 L1075.7,2371.47 L1075.7,2371.45 L1077.38,2320.65 L1078.1,2288.97 L1078.21,2283.92 L1078.26,2282.11 L1078.32,2281.12 L1078.91,2264.56 L1080.57,2218.09 L1080.97,2206.86 L1081.13,2202.42 L1083.36,2158.67 L1083.76,2150.93 L1084.08,2142.43 L1084.63,2127.7 L1086.11,2088.18 L1086.74,2071.23 L1087.62,2047.76 L1088.03,2036.6 L1088.07,2036.04 L1089.42,2011.46 L1089.86,1994.49 L1090.66,1963.96 L1091.5,1931.37 L1091.51,1931.09 L1091.55,1929.61 L1091.71,1922.08 L1091.81,1916.25 L1091.86,1915.64 L1092.57,1892.45 L1092.79,1885.45 L1092.85,1883.27 L1093.12,1874.43 L1093.62,1858.12 L1094.24,1837.64 L1094.47,1830.23 L1094.87,1811.8 L1095.26,1794.14 L1095.3,1792.24 L1095.31,1791.98 L1095.52,1788.58 L1094.95,1788.26 L1094.91,1784.88 L1095.46,1782.63 L1097.61,1780.96 L1098.53,1779.5 L1098.84,1776.99 L1098.72,1774.72 L1098.44,1774.77 L1096.23,1770.11 L1095.6,1768.8 L1094.84,1767.98 L1093.39,1767.45 L1093.22,1761.43 L1094.46,1759.57 L1094.32,1758.47 L1091.85,1755.89 L1088.09,1748.92 L1084.68,1745.53 L1081.38,1742.87 L1074.93,1740.92 L1074.16,1739.92 L1073.95,1738.05 L1071.69,1736.59 L1068.6,1736.96 L1066.31,1737.24 L1065.64,1736.85 L1065.19,1735.76 L1065.75,1733.81 L1067.2,1732.08 L1067.04,1731.57 L1064.2,1729.66 L1066.5,1725.15 L1066.77,1724.02 L1066.96,1722.18 L1067.15,1720.32 L1067.13,1716.54 L1066.19,1714.25 L1063.52,1710.1 L1062.1,1709.43 L1061.02,1698.14 L1060.99,1697.74 L1060.69,1696.58 L1059.71,1695.42 L1058.39,1694.59 L1057.49,1695.05 L1055.66,1697.96 L1054.29,1697.54 L1051.32,1695.16 L1047.37,1694.93 L1045,1696.41 L1044.73,1696.4 L1035.97,1696.27 L1032.57,1699.34 L1025.73,1697.14 L1025.4,1697.54 L1021.38,1698.54 L1020.38,1698.38 L1019.3,1697.44 L1017.43,1697.63 L1017.06,1699.13 L1018.69,1701.75 L1018.65,1702.28 L1015.77,1706.09 L1014.84,1707.88 L1017.13,1713.55 L1017.07,1714.56 L1016.46,1715.9 L1014,1718.37 L1013.78,1719.03 L1014.11,1719.97 L1012.2,1720.54 L1011.92,1720.33 L1011.53,1720.02 L1010.19,1721 L1010.22,1721.51 L1010.84,1723.77 L1011.3,1724.8 L1010.87,1725.99 L1009.82,1726.13 L1008.45,1726.27 L1007.98,1727.81 L1008.47,1728.72 L1009.68,1729.65 L1010.54,1729.87 L1010.86,1730.74 L1010.23,1731.89 L1009.1,1733.15 L1009.57,1734.62 L1010.78,1736.66 L1010.27,1738.74 L1009.76,1739.83 L1008.55,1740.44 L1007.39,1740.53 L1006.29,1740.54 L1005.24,1741.46 L1004.93,1742.23 L1005.29,1743.84 L1004.99,1744.49 L1004.91,1744.65 L1002.91,1744.9 L1002.54,1746.22 L1001.06,1746.24 L999.711,1745.53 L996.383,1743.56 L989.312,1737.92 L987.182,1734.68 L983.261,1733.4 L983.238,1733.38 L982.03,1732.52 L980.588,1729.9 L980.412,1728.83 L980.976,1726.89 L984.313,1719.79 L986.409,1716.13 L986.074,1713.13 L985.038,1709.27 L985.104,1708.09 L988.773,1701 L988.872,1700.05 L988.466,1698.64 L982.483,1689.07 L982.063,1687.24 L983.386,1682.03 L984.163,1680.57 L985.21,1679.37 L988.189,1677.47 L990.217,1673.53 L990.82,1668.57 L994.866,1658.88 L995.044,1656.22 L995.278,1655.44 L997.321,1648.62 L997.727,1645.72 L996.624,1642.55 L996.938,1640.96 L998.598,1638.46 L1000.94,1637.15 L1002.69,1635.25 L1003.81,1633.21 L1003.9,1632.92 L1005.02,1629.51 L1008.7,1622.73 L1010.52,1620.38 L1013.77,1617.23 L1018.23,1610.65 L1018.66,1607.67 L1018.16,1601.81 L1018.43,1596.03 L1018.78,1594.3 L1023.01,1586.6 L1028.22,1577.12 L1030.65,1571.68 L1030.72,1570.4 L1028.12,1566.27 L1027.63,1564.76 L1026.38,1558.31 L1023.29,1554.61 L1019.74,1551.9 L1014.64,1547.22 L1014.1,1545.66 L1013.45,1540.97 L1012.82,1538.9 L1012.79,1538.83 L1011.87,1536.69 L1010.34,1534.65 L1005.94,1531.14 L1004.58,1528.19 L1004.42,1526.96 L1006.01,1520.77 L1007.14,1518.14 L1011.21,1513.89 L1014.49,1512.12 L1016.31,1509.31 L1016.39,1509.09 L1017.21,1506.95 L1017.07,1506.15 L1016.28,1504.91 L1011.76,1500.64 L1011.21,1498.95 L1011.1,1498.58 L1011.44,1494.93 L1012.79,1490.24 L1016.02,1482.01 L1016.08,1480.8 L1014.67,1476.7 L1010.19,1467.48 L1002.47,1457.01 L1001.61,1454.74 L999.317,1444.88 L997.064,1438.99 L995.065,1433.76 L994.536,1431.12 L996.448,1417.36 L995.638,1401.33 L992.878,1394.15 L992.026,1390.35 L992.046,1387.98 L992.893,1384.96 L996.166,1363.03 L996.152,1358.91 L995.288,1355.4 L995.067,1354.5 L993.172,1349.62 L990.934,1347.38 L987.318,1345.23 L985.471,1344.57 L982.774,1340.76 L982.435,1340.28 L980.697,1339.38 L976.887,1336.05 L976.35,1333.94"/>
  </g>
  <g stroke-width="1" transform="matrix(0.999744,0,0,0.999744,0,0)" stroke-opacity="1" font-size="34.5833" fill="none" stroke-linejoin="bevel" font-style="normal" stroke-linecap="square" stroke="#000000" font-family="MS Shell Dlg 2" font-weight="400"/>
  <g stroke-width="1" transform="matrix(11.808,0,0,11.808,0,0)" stroke-opacity="1" font-size="34.5833" fill="none" stroke-linejoin="bevel" font-style="normal" stroke-linecap="square" stroke="#000000" font-family="MS Shell Dlg 2" font-weight="400"/>
  <g stroke-width="1" transform="matrix(11.808,0,0,11.808,0,0)" stroke-opacity="1" font-size="34.5833" fill="none" stroke-linejoin="bevel" font-style="normal" stroke-linecap="square" stroke="#000000" font-family="MS Shell Dlg 2" font-weight="400"/>
  <g stroke-width="1" transform="matrix(11.808,0,0,11.808,0,0)" stroke-opacity="1" font-size="34.5833" fill="none" stroke-linejoin="bevel" font-style="normal" stroke-linecap="square" stroke="#000000" font-family="MS Shell Dlg 2" font-weight="400"/>
  <g stroke-width="1" transform="matrix(1,0,0,1,0,0)" stroke-opacity="1" font-size="34.5833" fill="none" stroke-linejoin="bevel" font-style="normal" stroke-linecap="square" stroke="#000000" font-family="MS Shell Dlg 2" font-weight="400"/>
  <g stroke-width="1" transform="matrix(11.808,0,0,11.808,0,0)" stroke-opacity="1" font-size="34.5833" fill="none" stroke-linejoin="bevel" font-style="normal" stroke-linecap="square" stroke="#000000" font-family="MS Shell Dlg 2" font-weight="400"/>
  <g stroke-width="1" transform="matrix(11.808,0,0,11.808,0,0)" stroke-opacity="1" font-size="34.5833" fill="none" stroke-linejoin="bevel" font-style="normal" stroke-linecap="square" stroke="#000000" font-family="MS Shell Dlg 2" font-weight="400"/>
  <g stroke-width="1" transform="matrix(11.808,0,0,11.808,0,0)" stroke-opacity="1" font-size="34.5833" fill="none" stroke-linejoin="bevel" font-style="normal" stroke-linecap="square" stroke="#000000" font-family="MS Shell Dlg 2" font-weight="400"/>
  <g stroke-width="1" transform="matrix(11.808,0,0,11.808,0,0)" stroke-opacity="1" font-size="34.5833" fill="none" stroke-linejoin="bevel" font-style="normal" stroke-linecap="square" stroke="#000000" font-family="MS Shell Dlg 2" font-weight="400"/>
  <g stroke-width="1" transform="matrix(1,0,0,1,0,0)" stroke-opacity="1" font-size="34.5833" fill="none" stroke-linejoin="bevel" font-style="normal" stroke-linecap="square" stroke="#000000" font-family="MS Shell Dlg 2" font-weight="400"/>
 </g>
</svg>
