<?xml version='1.0' encoding='UTF-8' standalone='no'?>
<svg xmlns:xlink="http://www.w3.org/1999/xlink" baseProfile="tiny" xmlns="http://www.w3.org/2000/svg" height="249.936mm" viewBox="0 0 2952 2952" width="249.936mm" version="1.2">
 <title>Qt SVG Document</title>
 <desc>Generated with Qt</desc>
 <defs/>
 <g stroke-width="1" fill-rule="evenodd" fill="none" stroke-linejoin="bevel" stroke-linecap="square" stroke="black">
  <g stroke-width="1" transform="matrix(1,0,0,1,0,0)" stroke-opacity="1" font-size="34.5833" fill="none" stroke-linejoin="bevel" font-style="normal" stroke-linecap="square" stroke="#000000" font-family="MS Shell Dlg 2" font-weight="400"/>
  <g stroke-width="1" transform="matrix(1,0,0,1,0,0)" stroke-opacity="1" font-size="34.5833" fill="none" stroke-linejoin="bevel" font-style="normal" stroke-linecap="square" stroke="#000000" font-family="MS Shell Dlg 2" font-weight="400"/>
  <g stroke-width="1" transform="matrix(11.808,0,0,11.808,0,0)" stroke-opacity="1" font-size="34.5833" fill="none" stroke-linejoin="bevel" font-style="normal" stroke-linecap="square" stroke="#000000" font-family="MS Shell Dlg 2" font-weight="400"/>
  <g stroke-width="1" transform="matrix(0.999744,0,0,0.999744,0,0)" stroke-opacity="1" font-size="34.5833" fill="none" stroke-linejoin="bevel" font-style="normal" stroke-linecap="square" stroke="#000000" font-family="MS Shell Dlg 2" font-weight="400"/>
  <g transform="matrix(0.999744,0,0,0.999744,0,0)" font-size="34.5833" fill-opacity="0" fill="#ffffff" font-style="normal" stroke="none" font-family="MS Shell Dlg 2" font-weight="400">
   <path fill-rule="evenodd" vector-effect="none" d="M-2,-2 L2955,-2 L2955,2955 L-2,2955 L-2,-2"/>
  </g>
  <g stroke-width="1" transform="matrix(0.999744,0,0,0.999744,0,0)" stroke-opacity="1" font-size="34.5833" fill="none" stroke-linejoin="bevel" font-style="normal" stroke-linecap="square" stroke="#000000" font-family="MS Shell Dlg 2" font-weight="400"/>
  <g stroke-width="1" transform="matrix(11.808,0,0,11.808,0,0)" stroke-opacity="1" font-size="34.5833" fill="none" stroke-linejoin="bevel" font-style="normal" stroke-linecap="square" stroke="#000000" font-family="MS Shell Dlg 2" font-weight="400"/>
  <g stroke-width="1" transform="matrix(11.808,0,0,11.808,0,0)" stroke-opacity="1" font-size="34.5833" fill="none" stroke-linejoin="bevel" font-style="normal" stroke-linecap="square" stroke="#000000" font-family="MS Shell Dlg 2" font-weight="400"/>
  <g stroke-width="1" transform="matrix(11.808,0,0,11.808,0,0)" stroke-opacity="1" font-size="34.5833" fill="none" stroke-linejoin="bevel" font-style="normal" stroke-linecap="square" stroke="#000000" font-family="MS Shell Dlg 2" font-weight="400"/>
  <g stroke-width="1" transform="matrix(11.808,0,0,11.808,0,0)" stroke-opacity="1" font-size="34.5833" fill="none" stroke-linejoin="bevel" font-style="normal" stroke-linecap="square" stroke="#000000" font-family="MS Shell Dlg 2" font-weight="400"/>
  <g stroke-width="1" transform="matrix(11.808,0,0,11.808,0,0)" stroke-opacity="1" font-size="34.5833" fill="none" stroke-linejoin="bevel" font-style="normal" stroke-linecap="square" stroke="#000000" font-family="MS Shell Dlg 2" font-weight="400"/>
  <g transform="matrix(11.808,0,0,11.808,0,0)" font-size="34.5833" fill-opacity="0" fill="#ffffff" font-style="normal" stroke="none" font-family="MS Shell Dlg 2" font-weight="400">
   <path fill-rule="evenodd" vector-effect="none" d="M0,0 L250,0 L250,250 L0,250 L0,0"/>
  </g>
  <g stroke-width="1" transform="matrix(11.808,0,0,11.808,0,0)" stroke-opacity="1" font-size="34.5833" fill="none" stroke-linejoin="bevel" font-style="normal" stroke-linecap="square" stroke="#000000" font-family="MS Shell Dlg 2" font-weight="400"/>
  <g stroke-width="1" transform="matrix(11.808,0,0,11.808,0,0)" stroke-opacity="1" font-size="34.5833" fill="none" stroke-linejoin="bevel" font-style="normal" stroke-linecap="square" stroke="#000000" font-family="MS Shell Dlg 2" font-weight="400"/>
  <g transform="matrix(0.999744,0,0,0.999744,0,0)" font-size="34.5833" fill-opacity="0" fill="#000000" font-style="normal" stroke="none" font-family="MS Shell Dlg 2" font-weight="400">
   <rect x="0" height="2953" width="2953" y="0"/>
  </g>
  <g stroke-width="1" transform="matrix(0.999744,0,0,0.999744,0,0)" stroke-opacity="1" font-size="34.5833" fill="none" stroke-linejoin="bevel" font-style="normal" stroke-linecap="square" stroke="#000000" font-family="MS Shell Dlg 2" font-weight="400"/>
  <g stroke-width="3.07087" transform="matrix(0.999744,0,0,0.999744,0,0)" stroke-opacity="1" font-size="34.5833" fill-opacity="1" fill="#c5c5c5" stroke-linejoin="bevel" font-style="normal" stroke-linecap="square" stroke="#5c5c5c" font-family="MS Shell Dlg 2" font-weight="400">
   <path fill-rule="evenodd" vector-effect="none" d="M369.139,625.756 L372.099,625.767 L389.244,625.829 L451.624,625.788 L463.311,627.469 L478.339,629.63 L518.097,629.491 L545.839,629.322 L559.045,628.965 L571.094,626.4 L596.647,626.32 L609.256,627.343 L627.009,627.582 L628.979,627.608 L640.933,627.522 L665.091,624.619 L689.903,624.655 L697.615,624.675 L697.616,624.675 L706.968,624.699 L709.936,624.702 L737.693,624.727 L743.212,624.738 L752.466,624.755 L760.943,625.183 L764.119,625.344 L772.603,625.383 L794.58,625.176 L823.463,624.905 L887.304,624.107 L897.148,623.983 L915.991,623.829 L943.851,623.677 L949.872,623.665 L977.815,623.612 L984.171,626.376 L990.394,626.385 L990.559,626.386 L992,626.382 L1020.92,626.309 L1021.99,626.401 L1025.53,626.368 L1040.31,626.23 L1059,626.196 L1108.63,626.103 L1108.88,626.103 L1128.14,626.067 L1155.25,626.017 L1161.3,626.318 L1237.29,626.077 L1244.02,626.225 L1244.14,626.22 L1250.86,625.996 L1271.94,625.996 L1320.35,625.935 L1349.54,625.881 L1350.58,625.879 L1358.08,625.872 L1359.35,625.871 L1369.68,625.862 L1399.72,625.835 L1403.88,625.84 L1438.67,625.89 L1446.7,625.828 L1456.61,625.752 L1482.98,625.549 L1519.03,625.768 L1540.93,625.888 L1578.07,626.091 L1594.13,626.25 L1600.99,626.839 L1604.09,627.392 L1607.39,627.678 L1610.61,627.459 L1618.03,627.755 L1632.26,627.812 L1633.87,627.818 L1637.11,627.831 L1637.75,627.834 L1664.57,627.94 L1668.33,627.955 L1767.72,628.445 L1769.02,628.452 L1863.54,628.918 L1863.58,628.918 L1919.01,629.061 L1938.06,629.057 L1968.21,629.051 L1972.89,626.073 L1973.73,626.072 L2015.85,626.037 L2061.77,625.999 L2141.91,626.07 L2141.91,626.07 L2204.96,626.126 L2207.56,626.126 L2226.58,626.126 L2233.84,626.128 L2238.88,626.13 L2245.8,626.132 L2261.96,626.138 L2292.3,626.166 L2330.26,626.41 L2343.01,626.492 L2361.14,626.62 L2372.74,626.704 L2411.58,626.843 L2447.67,626.909 L2487.61,627.004 L2529.39,627.077 L2551.61,627.234 L2551.99,655.305 L2552.22,681.266 L2552.04,684.881 L2552.21,724.929 L2552.22,736.532 L2552.24,759.959 L2552.21,764.327 L2552.26,783.982 L2552.27,787.387 L2552.24,814.717 L2552.22,838.198 L2552.22,841.24 L2552.28,883.231 L2552.31,904.939 L2552.34,925.375 L2552.34,926.122 L2552.49,966.471 L2552.55,985.19 L2552.61,1002.28 L2552.63,1008.44 L2552.61,1050.01 L2552.5,1090.55 L2552.37,1126.99 L2552.36,1130.27 L2552.41,1166.66 L2552.42,1173.01 L2552.5,1204.84 L2552.54,1243.23 L2552.5,1254.71 L2552.55,1278.01 L2552.56,1281.37 L2552.57,1288.98 L2552.61,1323.63 L2552.62,1326.21 L2552.74,1363.71 L2552.81,1368.7 L2552.83,1391.52 L2552.93,1424.02 L2553.03,1444.93 L2553.05,1480.49 L2553.12,1493.32 L2553.17,1598.04 L2553.19,1599.99 L2553.26,1642.4 L2553.21,1649.22 L2553.26,1650.52 L2553.2,1658.63 L2553.2,1658.71 L2553.2,1659.04 L2553.09,1705.98 L2553.2,1806.92 L2553.2,1808.06 L2553.19,1811.54 L2553.09,1811.54 L2553.2,1845.1 L2553.27,1846.56 L2553.13,1858.99 L2553.21,1860.46 L2553.25,1864.16 L2553.16,1876.31 L2553.16,1876.45 L2553.14,1879.25 L2553.14,1880.14 L2553.14,1885.13 L2553.14,1885.16 L2553.16,1907.53 L2553.21,1909.82 L2553.22,1915.4 L2553.22,1915.94 L2553.22,1917.22 L2553.2,1918.78 L2553.18,1918.93 L2553.18,1919.24 L2553.18,1920.83 L2553.18,1920.84 L2553.17,1926.75 L2553.21,1927.99 L2553.13,1952.33 L2553.15,1956.03 L2553.12,1964.7 L2553.13,1976.67 L2553.16,1996.6 L2553.2,2028.33 L2553.18,2043.15 L2553.15,2065.18 L2553.14,2068.11 L2553.14,2074.47 L2553.21,2078.33 L2553.17,2087.27 L2553.27,2098.94 L2553.27,2103.75 L2553.26,2103.78 L2553.22,2108.57 L2553.23,2109.42 L2553.29,2116.41 L2553.29,2119.16 L2553.33,2159.91 L2553.39,2164.15 L2553.35,2170.12 L2553.35,2170.16 L2553.22,2196.19 L2553.34,2200.11 L2553.29,2200.18 L2553.26,2202.16 L2553.3,2217.94 L2553.26,2218.01 L2553.23,2219.16 L2553.06,2250.4 L2553.05,2252.2 L2553,2262.59 L2552.97,2268.09 L2553.08,2285.82 L2553.1,2289.74 L2553.12,2295.83 L2553.07,2296.05 L2553.1,2325.71 L2553.08,2326.22 L2553.05,2332.58 L2548.77,2332.54 L2542.81,2332.52 L2537.03,2332.53 L2531.11,2332.49 L2503.69,2332.51 L2502.85,2332.52 L2502.69,2332.48 L2453.85,2332.53 L2423.78,2332.56 L2414.61,2332.42 L2414.58,2332.41 L2382.65,2332.61 L2382.48,2332.62 L2358.8,2332.77 L2328.53,2333.21 L2310.91,2333.47 L2302.88,2333.97 L2275.39,2333.96 L2178.26,2333.9 L2177.71,2333.91 L2171.37,2333.92 L2171.28,2333.92 L2128.99,2334.08 L2031.64,2334.44 L2029.89,2334.45 L2017.37,2334.45 L1926.72,2334.4 L1886.36,2334.15 L1877.93,2334.1 L1845.62,2333.53 L1825.29,2332.69 L1823.57,2332.68 L1811.38,2332.44 L1809.36,2332.42 L1808.69,2332.35 L1804.23,2332.31 L1678.24,2332.06 L1633.68,2331.74 L1597.66,2331.87 L1558.64,2332.01 L1539.38,2331.95 L1534.74,2331.94 L1519.26,2331.89 L1438.72,2332.29 L1418.21,2332.29 L1347.39,2332.32 L1307.43,2332.31 L1265.41,2332.98 L1243.76,2333.12 L1228.3,2333.12 L1169.49,2333.12 L1165.77,2333.12 L1157.66,2333.33 L1125.08,2333.1 L1046.16,2333.13 L994.394,2332.89 L955.838,2332.81 L937.652,2332.31 L931.803,2332.75 L853.833,2333.53 L843.155,2333.93 L840.419,2333.93 L833.745,2333.91 L827.182,2333.89 L799.019,2333.83 L798.953,2333.83 L789.001,2333.87 L787.335,2333.88 L786.858,2333.91 L781.54,2333.94 L776.555,2333.96 L743.533,2334.13 L743.222,2334.15 L705.718,2334.03 L698.136,2334.27 L697.864,2334.26 L696.059,2334.07 L682.962,2334.17 L660.143,2334.36 L658.873,2334.59 L623.894,2335.05 L619.882,2334.78 L609.943,2334.9 L580.889,2335.25 L541.897,2335.34 L529.7,2334.67 L527.877,2334.67 L508.8,2334.67 L475.048,2334.67 L470.44,2334.59 L463.912,2334.47 L428.34,2334.29 L426.066,2334.28 L375.603,2334.03 L371.582,2334.01 L371.615,2268.59 L371.625,2250 L371.635,2230.42 L371.636,2228.97 L371.636,2228.93 L371.631,2214.8 L371.62,2183.68 L371.725,2176.59 L371.839,2116.73 L371.873,2098.4 L371.864,2092.44 L371.732,2009 L371.732,2008.98 L371.585,1915.95 L371.462,1856.79 L371.462,1854.06 L371.478,1839.88 L371.465,1834.79 L371.473,1798.55 L371.471,1769.59 L371.471,1769.57 L371.499,1747.88 L371.558,1703.87 L371.586,1700.07 L371.802,1670.94 L372.162,1643.04 L372.209,1639.44 L372.567,1611.61 L372.41,1554.34 L372.389,1546.86 L372.437,1513.4 L372.444,1508.73 L372.445,1507.2 L372.445,1506.58 L372.455,1504.2 L372.444,1500.99 L372.415,1492.65 L372.391,1485.59 L372.387,1485.29 L372.367,1483.92 L372.421,1483.08 L372.421,1482.97 L372.421,1482.3 L372.402,1481.08 L372.432,1475.9 L372.413,1474.52 L372.412,1473.81 L372.405,1470.18 L372.395,1467.83 L372.385,1465.33 L372.381,1464.46 L372.387,1462.69 L372.359,1419.21 L372.358,1418.17 L372.358,1417.92 L372.348,1417.87 L372.359,1414.78 L372.379,1412.73 L372.36,1410.02 L372.355,1407.95 L372.239,1358.56 L372.056,1278.99 L372.014,1260.8 L371.974,1243.68 L371.899,1210.93 L371.849,1202.18 L371.845,1201.47 L371.771,1199.8 L371.792,1199.41 L371.773,1198.53 L371.676,1183.77 L371.672,1182.05 L371.672,1181.84 L371.702,1181.66 L371.627,1157.31 L371.594,1146.52 L371.585,1143.27 L371.647,1103.23 L371.522,1074.38 L371.476,1070.7 L371.387,1063.56 L370.848,1054.82 L370.949,1037.32 L370.949,1037.13 L370.986,1036.24 L371.043,1013.69 L370.835,1009.3 L370.829,1006.07 L370.655,909.725 L370.826,900.432 L370.804,873.847 L370.811,872.866 L370.88,857.127 L369.801,855.231 L369.759,845.924 L369.434,772.973 L369.317,746.653 L369.283,735.049 L369.237,708.189 L369.187,687.689 L369.149,652.898 L369.139,626.295 L369.139,625.756"/>
  </g>
  <g stroke-width="1" transform="matrix(0.999744,0,0,0.999744,0,0)" stroke-opacity="1" font-size="34.5833" fill="none" stroke-linejoin="bevel" font-style="normal" stroke-linecap="square" stroke="#000000" font-family="MS Shell Dlg 2" font-weight="400"/>
  <g stroke-width="1" transform="matrix(11.808,0,0,11.808,0,0)" stroke-opacity="1" font-size="34.5833" fill="none" stroke-linejoin="bevel" font-style="normal" stroke-linecap="square" stroke="#000000" font-family="MS Shell Dlg 2" font-weight="400"/>
  <g stroke-width="1" transform="matrix(11.808,0,0,11.808,0,0)" stroke-opacity="1" font-size="34.5833" fill="none" stroke-linejoin="bevel" font-style="normal" stroke-linecap="square" stroke="#000000" font-family="MS Shell Dlg 2" font-weight="400"/>
  <g stroke-width="1" transform="matrix(11.808,0,0,11.808,0,0)" stroke-opacity="1" font-size="34.5833" fill="none" stroke-linejoin="bevel" font-style="normal" stroke-linecap="square" stroke="#000000" font-family="MS Shell Dlg 2" font-weight="400"/>
  <g stroke-width="1" transform="matrix(1,0,0,1,0,0)" stroke-opacity="1" font-size="34.5833" fill="none" stroke-linejoin="bevel" font-style="normal" stroke-linecap="square" stroke="#000000" font-family="MS Shell Dlg 2" font-weight="400"/>
  <g stroke-width="1" transform="matrix(11.808,0,0,11.808,0,0)" stroke-opacity="1" font-size="34.5833" fill="none" stroke-linejoin="bevel" font-style="normal" stroke-linecap="square" stroke="#000000" font-family="MS Shell Dlg 2" font-weight="400"/>
  <g stroke-width="1" transform="matrix(11.808,0,0,11.808,0,0)" stroke-opacity="1" font-size="34.5833" fill="none" stroke-linejoin="bevel" font-style="normal" stroke-linecap="square" stroke="#000000" font-family="MS Shell Dlg 2" font-weight="400"/>
  <g stroke-width="1" transform="matrix(11.808,0,0,11.808,0,0)" stroke-opacity="1" font-size="34.5833" fill="none" stroke-linejoin="bevel" font-style="normal" stroke-linecap="square" stroke="#000000" font-family="MS Shell Dlg 2" font-weight="400"/>
  <g stroke-width="1" transform="matrix(11.808,0,0,11.808,0,0)" stroke-opacity="1" font-size="34.5833" fill="none" stroke-linejoin="bevel" font-style="normal" stroke-linecap="square" stroke="#000000" font-family="MS Shell Dlg 2" font-weight="400"/>
  <g stroke-width="1" transform="matrix(1,0,0,1,0,0)" stroke-opacity="1" font-size="34.5833" fill="none" stroke-linejoin="bevel" font-style="normal" stroke-linecap="square" stroke="#000000" font-family="MS Shell Dlg 2" font-weight="400"/>
 </g>
</svg>
