<?xml version='1.0' encoding='UTF-8' standalone='no'?>
<svg xmlns:xlink="http://www.w3.org/1999/xlink" baseProfile="tiny" xmlns="http://www.w3.org/2000/svg" height="249.936mm" viewBox="0 0 2952 2952" width="249.936mm" version="1.2">
 <title>Qt SVG Document</title>
 <desc>Generated with Qt</desc>
 <defs/>
 <g stroke-width="1" fill-rule="evenodd" fill="none" stroke-linejoin="bevel" stroke-linecap="square" stroke="black">
  <g stroke-width="1" transform="matrix(1,0,0,1,0,0)" stroke-opacity="1" font-size="34.5833" fill="none" stroke-linejoin="bevel" font-style="normal" stroke-linecap="square" stroke="#000000" font-family="MS Shell Dlg 2" font-weight="400"/>
  <g stroke-width="1" transform="matrix(1,0,0,1,0,0)" stroke-opacity="1" font-size="34.5833" fill="none" stroke-linejoin="bevel" font-style="normal" stroke-linecap="square" stroke="#000000" font-family="MS Shell Dlg 2" font-weight="400"/>
  <g stroke-width="1" transform="matrix(11.808,0,0,11.808,0,0)" stroke-opacity="1" font-size="34.5833" fill="none" stroke-linejoin="bevel" font-style="normal" stroke-linecap="square" stroke="#000000" font-family="MS Shell Dlg 2" font-weight="400"/>
  <g stroke-width="1" transform="matrix(0.999744,0,0,0.999744,0,0)" stroke-opacity="1" font-size="34.5833" fill="none" stroke-linejoin="bevel" font-style="normal" stroke-linecap="square" stroke="#000000" font-family="MS Shell Dlg 2" font-weight="400"/>
  <g transform="matrix(0.999744,0,0,0.999744,0,0)" font-size="34.5833" fill-opacity="0" fill="#ffffff" font-style="normal" stroke="none" font-family="MS Shell Dlg 2" font-weight="400">
   <path fill-rule="evenodd" vector-effect="none" d="M-2,-2 L2955,-2 L2955,2955 L-2,2955 L-2,-2"/>
  </g>
  <g stroke-width="1" transform="matrix(0.999744,0,0,0.999744,0,0)" stroke-opacity="1" font-size="34.5833" fill="none" stroke-linejoin="bevel" font-style="normal" stroke-linecap="square" stroke="#000000" font-family="MS Shell Dlg 2" font-weight="400"/>
  <g stroke-width="1" transform="matrix(11.808,0,0,11.808,0,0)" stroke-opacity="1" font-size="34.5833" fill="none" stroke-linejoin="bevel" font-style="normal" stroke-linecap="square" stroke="#000000" font-family="MS Shell Dlg 2" font-weight="400"/>
  <g stroke-width="1" transform="matrix(11.808,0,0,11.808,0,0)" stroke-opacity="1" font-size="34.5833" fill="none" stroke-linejoin="bevel" font-style="normal" stroke-linecap="square" stroke="#000000" font-family="MS Shell Dlg 2" font-weight="400"/>
  <g stroke-width="1" transform="matrix(11.808,0,0,11.808,0,0)" stroke-opacity="1" font-size="34.5833" fill="none" stroke-linejoin="bevel" font-style="normal" stroke-linecap="square" stroke="#000000" font-family="MS Shell Dlg 2" font-weight="400"/>
  <g stroke-width="1" transform="matrix(11.808,0,0,11.808,0,0)" stroke-opacity="1" font-size="34.5833" fill="none" stroke-linejoin="bevel" font-style="normal" stroke-linecap="square" stroke="#000000" font-family="MS Shell Dlg 2" font-weight="400"/>
  <g stroke-width="1" transform="matrix(11.808,0,0,11.808,0,0)" stroke-opacity="1" font-size="34.5833" fill="none" stroke-linejoin="bevel" font-style="normal" stroke-linecap="square" stroke="#000000" font-family="MS Shell Dlg 2" font-weight="400"/>
  <g transform="matrix(11.808,0,0,11.808,0,0)" font-size="34.5833" fill-opacity="0" fill="#ffffff" font-style="normal" stroke="none" font-family="MS Shell Dlg 2" font-weight="400">
   <path fill-rule="evenodd" vector-effect="none" d="M0,0 L250,0 L250,250 L0,250 L0,0"/>
  </g>
  <g stroke-width="1" transform="matrix(11.808,0,0,11.808,0,0)" stroke-opacity="1" font-size="34.5833" fill="none" stroke-linejoin="bevel" font-style="normal" stroke-linecap="square" stroke="#000000" font-family="MS Shell Dlg 2" font-weight="400"/>
  <g stroke-width="1" transform="matrix(11.808,0,0,11.808,0,0)" stroke-opacity="1" font-size="34.5833" fill="none" stroke-linejoin="bevel" font-style="normal" stroke-linecap="square" stroke="#000000" font-family="MS Shell Dlg 2" font-weight="400"/>
  <g transform="matrix(0.999744,0,0,0.999744,0,0)" font-size="34.5833" fill-opacity="0" fill="#000000" font-style="normal" stroke="none" font-family="MS Shell Dlg 2" font-weight="400">
   <rect x="0" height="2953" width="2953" y="0"/>
  </g>
  <g stroke-width="1" transform="matrix(0.999744,0,0,0.999744,0,0)" stroke-opacity="1" font-size="34.5833" fill="none" stroke-linejoin="bevel" font-style="normal" stroke-linecap="square" stroke="#000000" font-family="MS Shell Dlg 2" font-weight="400"/>
  <g stroke-width="3.07087" transform="matrix(0.999744,0,0,0.999744,0,0)" stroke-opacity="1" font-size="34.5833" fill-opacity="1" fill="#c5c5c5" stroke-linejoin="bevel" font-style="normal" stroke-linecap="square" stroke="#5c5c5c" font-family="MS Shell Dlg 2" font-weight="400">
   <path fill-rule="evenodd" vector-effect="none" d="M2022.04,2755.99 L2014.58,2755.74 L2014.83,2754.33 L2013.47,2754.15 L2012.34,2754.54 L2010.85,2753.4 L2007.03,2753.01 L2007.03,2752.15 L2009.72,2751.88 L2011.17,2749.68 L2011.24,2749.33 L2009.06,2748.39 L2010.39,2743.89 L2010.82,2743.38 L2011.84,2743.35 L2012.44,2742.9 L2012.05,2741.96 L2012.06,2739.27 L2011.11,2738.46 L2010.57,2737.31 L2011.7,2735.18 L2010,2734.29 L2009.33,2735.17 L2008.31,2734.61 L2007.75,2734.84 L2007.54,2738.58 L2006.54,2738.51 L2004.7,2739.36 L2003.5,2738 L2003.52,2733.9 L2002.1,2732.75 L2001.33,2733.92 L2000.89,2733.93 L1998.62,2731.89 L1997.22,2732.05 L1996.14,2729.92 L1996.04,2729.04 L1997.49,2726.86 L1998.99,2725.88 L1998.48,2724.96 L1998.9,2724.41 L1998.51,2723.94 L1996,2724.23 L1994.72,2723.75 L1994.49,2724.81 L1992.77,2725.59 L1992.43,2726.31 L1990.51,2725.48 L1987.38,2725.58 L1985.54,2724.77 L1984.26,2723.69 L1981.6,2724.67 L1980.65,2723.08 L1978.02,2721.26 L1978.62,2719.93 L1980.57,2717.61 L1979.79,2716.27 L1979.86,2715.3 L1982.14,2714.54 L1983.47,2712.32 L1984.74,2711.56 L1984.97,2710.99 L1984.22,2709.73 L1983.08,2709.07 L1982.48,2707.29 L1981.34,2707.71 L1980.86,2707.46 L1980.86,2705.89 L1980.22,2705.31 L1979.92,2704.29 L1979.23,2703.84 L1977.24,2703.66 L1977.15,2702.71 L1978.38,2702.49 L1977.59,2701.42 L1976.54,2701 L1974.77,2701.54 L1974.74,2702.4 L1973.35,2703.08 L1973.12,2704.51 L1972.6,2704.39 L1972.19,2704.8 L1971.49,2703.96 L1967.7,2705.41 L1960.95,2709.52 L1959.39,2709.79 L1957.97,2709.33 L1957.09,2710.08 L1956.25,2711.59 L1952.85,2713.71 L1950.61,2710.81 L1951.2,2710.41 L1948.63,2706.32 L1951.76,2703.47 L1950.5,2701.59 L1946.59,2698.79 L1944.34,2698.2 L1944.25,2691.6 L1940.58,2691.18 L1940.81,2688.16 L1937.78,2685.28 L1937.52,2685.59 L1934.95,2684.55 L1934.09,2685.84 L1932.46,2685.38 L1930.82,2683.9 L1930.48,2680.67 L1932.44,2678.39 L1932.25,2676.78 L1931.64,2676.04 L1930.42,2675.51 L1929.77,2673.74 L1926.17,2674.06 L1924.87,2673.65 L1923.86,2671.43 L1923.71,2669.54 L1921.28,2668.63 L1919.4,2666.57 L1919.25,2665.94 L1919.69,2665.08 L1918.29,2663.96 L1918.26,2662.29 L1914.42,2659.77 L1912.83,2659.46 L1911.87,2659.78 L1912.18,2659.27 L1906.37,2659.86 L1906.31,2657.39 L1904.88,2657.44 L1904.92,2659.3 L1901.56,2659.38 L1902.33,2657.53 L1901.97,2656.92 L1898.41,2656.64 L1895.24,2654.29 L1891.75,2654.04 L1892.85,2656 L1892.52,2658.04 L1892.79,2661.32 L1892.35,2662.69 L1889.81,2666.76 L1890.28,2667.98 L1892.46,2668.02 L1893.61,2668.54 L1894.45,2670.74 L1893.74,2672.79 L1891.89,2672.97 L1889.96,2672.28 L1888.68,2671.22 L1887.64,2669.25 L1886.4,2669.15 L1883.09,2671.51 L1878.97,2676.99 L1879.03,2678.09 L1879.81,2679.05 L1881.75,2679.8 L1882.59,2679.4 L1885.13,2675.7 L1886.53,2674.99 L1889.35,2675.02 L1891.24,2676.68 L1890.95,2679.93 L1889.44,2683.16 L1887.91,2684.23 L1885.81,2684.14 L1885.07,2685.5 L1886.61,2687.8 L1886.73,2692.24 L1889.04,2694.87 L1889.88,2696.91 L1889.44,2698.68 L1887.43,2699.14 L1880.21,2698.47 L1878.98,2698.96 L1879.23,2700.2 L1880.37,2701.73 L1880.27,2704.76 L1880.74,2705.94 L1878.94,2707.16 L1875.94,2708.04 L1866.99,2709.34 L1864.93,2710.34 L1857.03,2712.38 L1854.15,2711.22 L1847.63,2710.36 L1847.38,2711.18 L1841.42,2708.95 L1840.2,2709.34 L1839.66,2710.43 L1837.59,2709.94 L1837.28,2710.98 L1836.25,2710.53 L1835.83,2711.33 L1833.79,2710.19 L1832.63,2711.45 L1825.65,2710.1 L1824.85,2711.62 L1823.74,2711.34 L1822.4,2714.47 L1821.22,2718.94 L1820.12,2718.67 L1816.31,2723.77 L1816.62,2724.55 L1816.1,2725.44 L1814.01,2727.46 L1812.33,2727.67 L1811.1,2728.8 L1810.72,2730.41 L1810.98,2732.11 L1808.21,2732.47 L1803.34,2731.17 L1801.54,2731.18 L1801.47,2730.78 L1797.89,2730.53 L1791.34,2730.97 L1791.36,2731.24 L1787.65,2732.13 L1785.83,2733.3 L1767.05,2733.77 L1766.38,2732.65 L1764.97,2732.95 L1764.3,2731.84 L1762.94,2730.83 L1763.49,2729.48 L1763.23,2728.59 L1764.32,2727.77 L1764.09,2724.25 L1763.57,2722.84 L1764.03,2721.61 L1763.06,2719.94 L1761.21,2719.09 L1761.39,2715.41 L1762.44,2715.05 L1762.63,2713.01 L1763.21,2712.18 L1762.31,2707.91 L1763.57,2706.65 L1765.33,2705.86 L1764.39,2704.37 L1763.38,2704.29 L1763.53,2702.61 L1761.56,2699.74 L1763.13,2697.79 L1764.79,2697.21 L1765.39,2696.05 L1763.84,2692.83 L1762.33,2691.75 L1762.12,2690.63 L1761.12,2689.05 L1761.96,2687.6 L1766.55,2683.87 L1769.1,2682.34 L1769.84,2682.37 L1771.37,2683.93 L1772.77,2683.69 L1774.51,2681.52 L1774.79,2679.21 L1776.86,2678.62 L1777.3,2677.7 L1778.89,2676.58 L1779.01,2675.16 L1780.19,2674.49 L1780.47,2673.85 L1779.99,2673.42 L1781.12,2671.58 L1780.75,2669.58 L1782.2,2668.95 L1781.59,2667.82 L1782.21,2666.62 L1781.34,2664.45 L1779.22,2662.33 L1778.27,2660.7 L1778.8,2657.98 L1778.37,2656.18 L1779.14,2651.28 L1778.63,2650.2 L1779.39,2646.64 L1784.76,2648.19 L1786.57,2647.58 L1787.09,2646.26 L1786.84,2644.69 L1785.62,2643.47 L1785.54,2642.29 L1787.51,2641.55 L1791.22,2638.03 L1791.12,2631.85 L1793.17,2629.64 L1792.92,2625.42 L1794.24,2624.34 L1794.51,2622.46 L1795.73,2621.76 L1795.77,2620.98 L1796.85,2620.47 L1799.03,2621.24 L1799.27,2620.33 L1798.06,2619.44 L1798.33,2618.15 L1800.22,2617.81 L1801.08,2617.07 L1802.44,2610.59 L1802.06,2609.2 L1802.75,2607.87 L1804.14,2607.07 L1803.34,2606.26 L1802.92,2604.15 L1803.13,2603.5 L1804.97,2601.64 L1805.2,2599.83 L1806.8,2599.11 L1807.07,2596.42 L1805.87,2596.35 L1805.81,2596.91 L1804.9,2596.95 L1804.88,2596.28 L1801.48,2596.31 L1801.46,2595.06 L1800.18,2595.1 L1798.15,2596.61 L1795.46,2597.41 L1778.45,2597.54 L1761.08,2598.6 L1759.69,2598.17 L1757.41,2596.1 L1756,2595.33 L1754.45,2596.36 L1753.09,2600.1 L1737.7,2600.63 L1735.08,2601.15 L1734.07,2599.35 L1733.36,2599.12 L1731.12,2599.4 L1729.27,2600.66 L1726.67,2600.93 L1726.34,2599.98 L1725.35,2599.09 L1722.1,2597.97 L1718.27,2597.53 L1717.16,2591.92 L1717.43,2588.19 L1716.8,2587.5 L1715.69,2587.29 L1714.3,2587.62 L1713.05,2588.74 L1712.44,2588.74 L1711.79,2587.65 L1711.75,2586.69 L1714.14,2584.34 L1713.38,2583.67 L1709.67,2582.87 L1708.48,2581.95 L1708.67,2580.96 L1712.44,2579.27 L1713.11,2578.38 L1712.98,2577.55 L1710.74,2574.89 L1710.26,2573.34 L1712.02,2572.31 L1714.12,2572.17 L1714.1,2571.32 L1712.71,2569.31 L1712.65,2568.26 L1714.81,2567.24 L1714.85,2566.46 L1713.42,2564.67 L1711.73,2564.3 L1710.78,2565.16 L1709.34,2568.07 L1708.14,2568.45 L1707.51,2568.01 L1707.41,2567.39 L1708.96,2565.03 L1709,2563.82 L1707.47,2563.37 L1703.95,2564.17 L1703.07,2563.66 L1701.83,2561.02 L1702.12,2560.44 L1703.42,2559.7 L1708.06,2559.34 L1707.97,2557.85 L1706.42,2555.49 L1703.61,2553.7 L1703.99,2553.2 L1705.77,2552.78 L1709.76,2553.9 L1710.24,2552.74 L1709.34,2550.62 L1707.55,2550.41 L1703.93,2552.51 L1703.01,2552.58 L1702,2550.92 L1701.56,2547.92 L1700.24,2548.96 L1698.92,2548.45 L1698.85,2546.13 L1699.86,2544.23 L1699.69,2543.08 L1698.69,2542.86 L1696.07,2543.94 L1694.56,2543.86 L1692.84,2543.22 L1691.71,2541.8 L1691.71,2541.01 L1694.68,2536.92 L1694.31,2535.94 L1692.59,2534 L1695.81,2531.72 L1696.37,2530.28 L1695.43,2529.31 L1693.64,2528.58 L1690.59,2528.71 L1690.31,2529.63 L1689.45,2526.25 L1688.44,2526.25 L1688.21,2524.34 L1680.42,2524.09 L1680.11,2518.98 L1676.59,2518.91 L1672.38,2517.76 L1676.07,2504.99 L1678.07,2494.01 L1673.75,2494.01 L1671.43,2494.82 L1667.15,2494.26 L1667.16,2493.53 L1664.28,2493.34 L1664.13,2485.78 L1663.65,2484.01 L1662.96,2484.37 L1648.88,2484.89 L1648.62,2479.94 L1647.64,2478.8 L1646.53,2478.88 L1645.35,2477.39 L1652.79,2469.6 L1650.83,2467.76 L1651.74,2466.16 L1651.89,2462.36 L1651.1,2462.19 L1651.16,2461.68 L1651.53,2461.76 L1652.19,2460.16 L1651.18,2458.21 L1651.45,2457.29 L1655.19,2455.85 L1654.19,2453.63 L1657.48,2454.56 L1657.56,2452.54 L1659.74,2452.31 L1660.57,2451.74 L1662.44,2451.46 L1661.86,2448.72 L1659.12,2449.95 L1656.27,2449.93 L1654.53,2450.78 L1652.17,2450.52 L1648.46,2449.28 L1648.67,2448.03 L1648.16,2447.57 L1648.35,2446.77 L1649.35,2445.52 L1651.9,2444.1 L1656.54,2444.14 L1656.64,2438.34 L1655.6,2436.53 L1658.04,2435.95 L1657.98,2432.74 L1656.23,2432.74 L1656.23,2433.14 L1655.24,2433.2 L1655.19,2431.18 L1655.99,2431.16 L1656.16,2428.4 L1655.06,2426.23 L1654.36,2425.67 L1654.66,2425.27 L1654.28,2421.69 L1647.92,2420.92 L1647.59,2417.07 L1639.2,2417.22 L1639.39,2415.41 L1636.77,2413.07 L1636.44,2410.99 L1635.39,2409.25 L1636.28,2398.97 L1637.02,2396.27 L1638.33,2394.33 L1639.93,2393.19 L1640.7,2391.97 L1640.64,2391.22 L1637.74,2385.36 L1636.27,2379.36 L1633.82,2379.15 L1630.81,2379.71 L1628.09,2379.58 L1628.21,2378.99 L1627.81,2378.95 L1628.85,2374.24 L1629.85,2371.58 L1629.83,2370 L1629.13,2367.39 L1631.5,2366.18 L1631.84,2363.69 L1627.75,2363.02 L1628.5,2360.67 L1628.13,2360.54 L1628.95,2358.68 L1628.47,2358.24 L1626.28,2358.43 L1625.66,2357.61 L1625.99,2355 L1624.68,2354.16 L1621.28,2355.48 L1617.88,2355.16 L1617.87,2350.93 L1616.14,2350.85 L1616.01,2348.64 L1610.93,2348.76 L1609.66,2344.07 L1607.24,2344.79 L1604.77,2344.98 L1595.7,2344.88 L1591.75,2345.5 L1581.46,2346.11 L1563.89,2345.73 L1564.02,2345.09 L1557.25,2341.81 L1557.29,2339.1 L1556.74,2338.78 L1556.42,2336.67 L1556.51,2334.14 L1557.98,2328.26 L1556.98,2327.82 L1558.06,2324.75 L1558.27,2322.91 L1559.3,2321.86 L1559.82,2319.04 L1560.43,2318.35 L1561.62,2318.01 L1561.02,2317.49 L1561.1,2316.59 L1561.94,2314.29 L1561.69,2313.05 L1562.41,2311.52 L1562.54,2312.62 L1567.83,2312.47 L1567.83,2313.22 L1570.05,2313.17 L1570.31,2312.79 L1571.65,2313.16 L1572.03,2301.23 L1572.57,2299.79 L1574.16,2299.79 L1574.2,2291.8 L1574.79,2287.2 L1573.8,2282.24 L1573.24,2281.69 L1573.12,2280.67 L1571.95,2279.85 L1571.15,2274.3 L1571.81,2273.07 L1571.49,2272.3 L1571.86,2271.64 L1571.08,2271.02 L1573.62,2267.18 L1575.14,2262.29 L1573.65,2256.41 L1567.2,2256.01 L1561.74,2257.47 L1561.33,2256.52 L1555.62,2259.5 L1555.38,2259.23 L1553.59,2259.76 L1552.33,2255.05 L1549.53,2256.13 L1547.61,2255.67 L1548.18,2255.03 L1548.09,2251.28 L1548.8,2250.83 L1550.48,2251.7 L1552.96,2250.5 L1554.44,2248.62 L1555.1,2246.41 L1556.31,2245.16 L1559.39,2244.86 L1564.55,2242.4 L1565.9,2242.95 L1566.42,2242.32 L1568.1,2241.63 L1568.79,2239.72 L1569.47,2239.02 L1573.35,2239.58 L1574.09,2238.28 L1574.03,2237.54 L1573.32,2237.04 L1570.57,2236.42 L1567.47,2236.74 L1565.96,2236.46 L1562.7,2234.43 L1558.62,2233.75 L1549.46,2229.84 L1548.68,2228.87 L1546.36,2228.35 L1545.12,2227.46 L1542.19,2226.72 L1537.34,2224.94 L1535.67,2223.92 L1513.87,2216.48 L1504.64,2214.4 L1500.97,2212.87 L1496.9,2210.45 L1493.15,2209.41 L1493.44,2210.94 L1492.83,2212.25 L1491.93,2212.93 L1491.46,2210.75 L1488.11,2209.54 L1486.37,2208.2 L1484.59,2208.19 L1484.4,2207.13 L1483.94,2206.72 L1483.71,2207.38 L1482.4,2207.13 L1482.44,2206.35 L1481.02,2206.16 L1481.13,2205.15 L1478.12,2204.52 L1476.28,2203.69 L1474.19,2203.65 L1474.17,2193.91 L1474.64,2191.9 L1475.86,2191.48 L1476.34,2187.88 L1478.07,2187.62 L1478.12,2186.56 L1477.16,2184.2 L1476.82,2181.79 L1477.97,2178.73 L1479,2178.34 L1479.33,2176.95 L1480.46,2175.32 L1480.46,2173.62 L1482.2,2170.65 L1482.15,2168.48 L1476.74,2168.04 L1473.46,2168.18 L1474.39,2168.09 L1474.29,2163.03 L1473.58,2152.44 L1472.48,2151.92 L1473.19,2150.22 L1472.53,2149.14 L1472.37,2147.19 L1472.57,2146.78 L1473.23,2146.75 L1472.67,2134.2 L1471.4,2133.64 L1470.56,2132.58 L1469.31,2121.39 L1469.94,2121.17 L1469.58,2119.42 L1470.01,2100.59 L1468.29,2080.33 L1468.56,2079.3 L1470.14,2081.11 L1471.62,2081.5 L1474.33,2069.52 L1478.82,2060.91 L1478.91,2056.91 L1480.35,2049.55 L1479.55,2049.47 L1479.7,2046.66 L1479.95,2045.9 L1481.12,2046.09 L1482.62,2042.45 L1483.29,2041.98 L1483.54,2040.48 L1484.44,2040.3 L1484.6,2039.75 L1491.44,2038.09 L1497.24,2037.99 L1498.73,2036.99 L1501.31,2032.51 L1494.62,2026.04 L1489.78,2022.28 L1486.97,2021.55 L1482.11,2021.53 L1476.78,2019.98 L1475.46,2017.9 L1476.57,2015.11 L1476.11,2014.29 L1474.41,2013.14 L1474.54,2005.18 L1474.14,2004.36 L1474.18,2001.45 L1472.15,1995.3 L1474.84,1994.8 L1475.41,1995.8 L1482.73,1992.37 L1483.28,1990.93 L1489.19,1990.21 L1492.25,1990.57 L1495.14,1991.48 L1495.25,1991.11 L1498.48,1992.15 L1498.62,1991.65 L1500.17,1992.07 L1500.12,1992.96 L1507.53,1991.37 L1508.87,1991.56 L1509.03,1992.08 L1511.03,1991.79 L1513.73,1992.09 L1514.17,1992.59 L1514.56,1992.31 L1515.02,1992.71 L1520.82,1990.09 L1521.76,1990.44 L1522.08,1991.02 L1523.12,1990.86 L1523.46,1991.35 L1527.53,1991.35 L1527.92,1990.65 L1528.91,1990.17 L1531.84,1991.06 L1532.3,1990.72 L1533.55,1990.96 L1534.45,1989.32 L1536.2,1990.21 L1537.28,1990.29 L1537.58,1989.99 L1537.93,1990.41 L1540.09,1991.05 L1541.32,1990.01 L1542.74,1986.3 L1548.27,1984.65 L1558.2,1979.92 L1559.44,1981.94 L1564.29,1978.45 L1567.74,1980.07 L1568.78,1978.26 L1573.71,1973.96 L1573.17,1973.36 L1574.88,1972.52 L1576.04,1973.7 L1577.66,1972.16 L1580.41,1974.98 L1581.18,1974.05 L1579.43,1978.4 L1582.67,1982.12 L1583.86,1984.95 L1584.93,1986.34 L1586.11,1986.84 L1586.61,1987.49 L1587.42,1987.24 L1587.83,1987.7 L1587.86,1988.85 L1588.77,1988.59 L1590.14,1990.13 L1589.83,1991 L1590.69,1990.6 L1593.28,1992.88 L1593.3,1993.51 L1594.64,1995.03 L1598.71,1990.76 L1602.17,1993.26 L1604.79,1996.77 L1607.4,1998.91 L1606.62,2000.53 L1610.08,2003.02 L1611.38,2001.05 L1612.04,2000.78 L1617.01,2004.34 L1618.97,2004.99 L1619.61,1999.36 L1619.32,1998.76 L1612.22,1995.29 L1611.12,1993.08 L1611.12,1991.19 L1613.99,1986.85 L1616.85,1979.95 L1618.81,1973.95 L1616.38,1973.08 L1614.69,1979.2 L1612.18,1984.88 L1609.63,1988.74 L1608.73,1989.3 L1606.38,1989.69 L1604.61,1988.78 L1590.41,1974.26 L1587.9,1972.06 L1586.8,1971.94 L1586.09,1970.44 L1586.02,1967.12 L1587.19,1964.16 L1589.19,1961.92 L1597.2,1955.09 L1596.72,1954.26 L1597.71,1952.37 L1599.82,1951.54 L1601.04,1952.17 L1602.02,1951.46 L1602.33,1951.86 L1601.39,1952.57 L1602.73,1954.14 L1605,1955.37 L1606.45,1956.91 L1607.43,1958.76 L1611.48,1962.27 L1611.4,1962.74 L1613.83,1964.87 L1615.32,1965.66 L1615.75,1966.57 L1619.48,1969.06 L1617.83,1972.53 L1618.34,1972.88 L1619.32,1970.91 L1620.73,1970.63 L1625.6,1963.89 L1631.05,1959.39 L1635.37,1954.97 L1638.7,1950.59 L1644.19,1941.87 L1648,1932.45 L1649.53,1931.42 L1651.53,1931.34 L1654.86,1932.72 L1658.67,1935.09 L1663.61,1937.5 L1665.26,1939.31 L1665.46,1942.07 L1663.38,1949.09 L1662.71,1950.04 L1656.43,1968.98 L1649.29,1992.85 L1648.12,1995.53 L1645.68,1996.99 L1644.66,1996.71 L1634.9,1997.5 L1633.8,1998.33 L1632.89,1998.21 L1629.32,2000.03 L1625.83,2000.58 L1621.67,2000.07 L1620.87,2005.51 L1630.77,2007.76 L1631,2006.68 L1631.47,2006.81 L1631.65,2005.06 L1632.18,2004.27 L1633.48,2003.94 L1634.52,2005.54 L1634.88,2003.22 L1635.86,2002.12 L1638.31,2001.92 L1640.15,2002.82 L1642.85,2002.76 L1644.53,2000.85 L1645.38,2000.92 L1645.97,2002.56 L1647.34,2004.53 L1651.53,2008.08 L1658.51,2011.96 L1661.74,2012.85 L1669.64,2013.61 L1674.02,2013.41 L1676.81,2012.46 L1678.46,2012.37 L1680.94,2011.38 L1683.67,2009.26 L1685.2,2004.27 L1685.53,2001.31 L1686.05,2000.85 L1687.62,2001.31 L1690.76,2003.94 L1691.74,2003.68 L1692.72,2003.94 L1693.96,2006.7 L1696.45,2009.53 L1702.82,2012.88 L1705.31,2008.51 L1708.52,2001.02 L1708.84,2001.07 L1703.47,2014.01 L1710.46,2015.96 L1711.25,2015.19 L1711.78,2015.43 L1712.7,2013.13 L1714.45,2012.89 L1714.88,2011.88 L1713.1,2011.12 L1713.28,2010.8 L1717.83,2012.45 L1714.45,2021.64 L1712.91,2021.74 L1712.3,2023.6 L1713.12,2024.03 L1711.35,2030.04 L1711.8,2030.32 L1713.76,2026.03 L1714.88,2024.6 L1717.25,2018.98 L1733.79,2026.14 L1739.18,2026.14 L1739.25,2028.88 L1741.17,2028.82 L1741.08,2033.18 L1742.25,2033.19 L1742.56,2024.88 L1745.78,2024.8 L1745.85,2026.91 L1746.52,2026.88 L1746.51,2024.77 L1755.37,2024.63 L1755.29,2021.33 L1756.06,2020.64 L1755.55,2014.26 L1754.57,2013.67 L1754.38,2004.66 L1755.23,2004.53 L1756.93,1985.66 L1757.93,1984.35 L1759.55,1983.14 L1762.69,1982.51 L1766.43,1982.96 L1770.53,1985.72 L1772.36,1986.03 L1773.1,1986.66 L1774.02,1988.85 L1772.26,2004.23 L1773.22,2008.54 L1773.17,2010.28 L1772.35,2012.2 L1772.78,2013.71 L1772.31,2013.86 L1772.06,2014.67 L1771.31,2014.82 L1770.92,2016.49 L1770.26,2017.41 L1771.04,2026.96 L1771.65,2027.2 L1780.77,2026.46 L1782.65,2026.06 L1783.55,2025.37 L1778.31,1993.64 L1782.59,1992.79 L1784.21,2002.49 L1787.26,2001.96 L1788.33,2007.82 L1788.01,2007.88 L1788.12,2008.85 L1794,2007.78 L1790.29,1987.51 L1791.88,1987.23 L1801.95,2041.7 L1803.43,2047.44 L1803.34,2046.84 L1803.83,2046.84 L1806.66,2049.13 L1808.2,2058.31 L1813.2,2059.05 L1814.33,2065.02 L1816.22,2064.72 L1814.67,2055.43 L1815.46,2055.35 L1815.82,2057.56 L1817.23,2057.36 L1817.7,2059.46 L1818.34,2059.66 L1819.82,2059.63 L1821.79,2056.14 L1827.17,2057.42 L1829.17,2043.58 L1857.64,2047.52 L1859.27,2050.18 L1859.68,2053.83 L1861.75,2053.51 L1862.5,2054.16 L1862.28,2055.43 L1862.69,2058.06 L1863.98,2058.29 L1864.58,2060.18 L1866.2,2060.48 L1871.98,2059.75 L1875.53,2059.75 L1875.58,2061.46 L1876.77,2061.45 L1876.97,2062.21 L1878.93,2062.11 L1879.42,2061.75 L1886.71,2061.87 L1887.91,2061.32 L1888.02,2060.05 L1896.16,2060.16 L1899.07,2060.68 L1900.25,2062.05 L1900.09,2063.17 L1898.62,2064.87 L1895.83,2065.16 L1893.22,2063.97 L1891.51,2063.77 L1890.82,2063.9 L1890.46,2064.83 L1889.99,2064.84 L1891.13,2067.53 L1893.78,2068.28 L1895.27,2068.03 L1896.32,2067.37 L1898.54,2067.84 L1901.02,2067.35 L1900.88,2066.24 L1900.18,2065.68 L1901.72,2061.34 L1902.62,2060.46 L1903.7,2060.23 L1903.63,2059.92 L1909.69,2057.96 L1909.1,2055.75 L1910.12,2055.43 L1910.62,2057.54 L1912.4,2058.91 L1915.34,2058.06 L1915.77,2057.62 L1915.54,2055.79 L1917.33,2055.68 L1917.63,2056.31 L1922.46,2054.99 L1922.76,2053.97 L1924,2053.68 L1924.88,2054.34 L1926.19,2054.04 L1928.58,2053.22 L1928.87,2052.46 L1929.55,2053.26 L1929.85,2053.17 L1931.66,2051.59 L1932.87,2049.85 L1934.96,2049.02 L1936.24,2049.39 L1937.02,2049.12 L1939.55,2047.69 L1942.63,2045.1 L1943.27,2044.36 L1943.55,2042.3 L1943.15,2040.84 L1940.91,2039.77 L1937.8,2040.82 L1934.82,2043.42 L1931.68,2044.54 L1928.77,2046.91 L1920.37,2049.47 L1917.95,2050.88 L1916.78,2050.06 L1927.96,2045.85 L1933.38,2043.17 L1933.33,2040.6 L1931.24,2039.2 L1930.84,2036.7 L1932.07,2034.68 L1933.94,2033.98 L1935.38,2030.91 L1940.31,2029.99 L1941.46,2032.21 L1941.99,2032.49 L1948.97,2030.5 L1949.6,2036.37 L1950.37,2038.94 L1950.35,2039.25 L1949.81,2039.31 L1950.31,2042.51 L1953.49,2042.43 L1954.28,2041.51 L1956.09,2041.08 L1955.76,2038.99 L1956.28,2037.69 L1956.09,2035.96 L1957.43,2034.46 L1962.73,2030.19 L1967.11,2027.8 L1967.95,2026.51 L1974.9,2021.03 L1978.24,2017.1 L1982.12,2014.53 L1983.41,2008.69 L1990.77,2003.64 L1991.61,1997.74 L1989.6,1997.21 L1988.01,1997.6 L1987.12,1999.68 L1986.23,2000.19 L1985.28,2004.22 L1984.66,2004.37 L1986.76,1994.57 L1991.3,1995.3 L1993.26,1983.63 L1993.67,1983.69 L1993.48,1984.98 L1994.12,1985.01 L1995.32,1977.94 L1997.41,1978.28 L1995.66,1987.47 L1997.18,1988.7 L1996.79,1999.96 L1996.09,2000.05 L1995.96,2001.54 L1993.17,2003.47 L1993.3,2000.88 L1992.3,2000.8 L1992.17,2002.9 L1983.63,2008.82 L1979.91,2025.73 L1960.1,2036.86 L1959.49,2040.15 L1959.99,2053.2 L1959.74,2058.17 L1954.96,2060.6 L1954.88,2061.18 L1953.55,2061.79 L1961.23,2058.93 L1963.67,2057.31 L1962.87,2056.16 L1962.02,2048.15 L1961.36,2047.64 L1961.11,2040.81 L1961.62,2039.64 L1962.64,2039.1 L1963.15,2039.21 L1967.88,2036.67 L1967.49,2036.03 L1968.29,2035.62 L1968.75,2036.06 L1978.01,2031.06 L1979,2031.39 L1978.92,2032.11 L1978.21,2032 L1977.9,2033.1 L1979,2033.35 L1978.48,2034.1 L1978.92,2034.24 L1976.7,2042 L1974.96,2043.05 L1975.82,2044.63 L1977.08,2043.83 L1978.23,2044.05 L1979.89,2042.75 L1979.69,2043.47 L1980.08,2043.97 L1981.99,2042.17 L1981.87,2041.74 L1980.51,2041.6 L1980.79,2040.93 L1980.3,2040.87 L1980.35,2040.26 L1981.48,2040.26 L1984.75,2023.96 L1985.1,2023.99 L1985.87,2022.94 L1986.31,2018.82 L1985.96,2018.73 L1986.42,2018.4 L1987.48,2011.12 L1987.91,2010.13 L1992.58,2006.65 L1995.42,2006.82 L1994.82,2010.08 L1994.64,2016.83 L1993.02,2021 L1992.58,2020.89 L1990.82,2030.18 L1989.53,2033.71 L1990.9,2032 L1991.67,2032.14 L1992.47,2026.36 L1992.88,2026.36 L1993.9,2021.17 L1996.37,2021.57 L1994.36,2030.53 L1994.83,2031.23 L1997.63,2029.79 L1998.09,2008.89 L2002.13,2009.01 L2002.28,2008.23 L1999.17,2007.85 L1998.21,2006.22 L1999.12,1988.59 L2000.27,1988.64 L2000.41,1986.62 L2000.74,1986.68 L2000.33,1998.37 L2001.29,1998.37 L2001.98,1997.7 L2002.2,1994.06 L2001.87,1994 L2001.95,1993.34 L2002.36,1993.28 L2002.53,1989.8 L2002.8,1989.83 L2002.88,1994.08 L2003.87,1994.08 L2003.95,1993.56 L2004.61,1993.48 L2004.92,1985.27 L2005.52,1985.35 L2005.55,1986.07 L2006.45,1986.13 L2006.42,1984.52 L2007.44,1984.8 L2007.82,1987.59 L2008.45,1987.71 L2008.93,1988.45 L2007.83,2020.01 L2012.09,2020.2 L2013.13,1992.56 L2013.96,1991.71 L2018.19,1991.87 L2020.88,1994.91 L2020.08,2020.39 L2023.63,2020.5 L2024.6,1994.81 L2031.66,1994.96 L2031.1,2021.03 L2034.63,2020.67 L2034.64,2021.28 L2035.61,2021.34 L2036.4,1995.08 L2070.3,1996.4 L2071.16,1996.41 L2071.66,1995.67 L2071.6,1996.67 L2070.58,1996.64 L2070.45,1998.19 L2072.54,1998.1 L2072.48,1998.52 L2071.46,1998.5 L2071.41,2004.86 L2072.44,2004.65 L2072.44,2005.22 L2071.42,2005.18 L2071.2,2012.35 L2072.21,2012.17 L2072.21,2012.85 L2071.12,2012.61 L2070.93,2018.03 L2071.26,2018.57 L2071.96,2018.35 L2071.99,2019.16 L2070.93,2018.93 L2070.85,2021.75 L2072.43,2023.77 L2073.59,2023.64 L2074.44,2024.09 L2074.98,2024.9 L2075.08,2026.42 L2075.71,2026.44 L2076.49,2020.29 L2076.74,2017.13 L2076.73,2016.3 L2076.3,2015.85 L2076.47,2013.71 L2077.34,2013.66 L2077.58,2012.91 L2077.98,2012.82 L2082.02,2012.84 L2081.99,2011.82 L2085.21,2011.91 L2085.12,2007.05 L2082.55,2007.02 L2082.52,2006.32 L2081.21,2006.25 L2081.09,2007.18 L2078.48,2007.16 L2078.5,2006.84 L2077.96,2006.86 L2077.95,2007.66 L2077.24,2007.72 L2077.31,2002.76 L2077.98,2002.73 L2077.97,2003.62 L2078.46,2003.59 L2078.41,2002.4 L2081.03,1999.63 L2080.93,1998.4 L2078.33,1998.43 L2078.38,1998.12 L2077.38,1998.24 L2077.4,1997.85 L2095.42,1998.58 L2095.26,2002.44 L2096.11,2002.48 L2096.12,2000.95 L2096.36,2000.65 L2096.68,2000.86 L2097.84,1999.3 L2108.25,1999.95 L2108.24,2004.17 L2109.2,2003.5 L2110.93,2001.02 L2112.26,2000.23 L2117.71,1999.44 L2119.83,1997.7 L2120.07,1996.21 L2113.99,1996.21 L2112.88,1997.19 L2110.72,1997.33 L2110.65,1975.89 L2120.33,1975.63 L2120.2,1973 L2116.34,1973.59 L2109.8,1973.79 L2107.58,1975.43 L2058.02,1975.76 L2055.73,1975.3 L2054.03,1973.85 L2053.9,1953.34 L2120.72,1953.21 L2120.98,1971.68 L2120.59,1997.33 L2119.02,1999.7 L2111.9,2001.18 L2109.74,2004.1 L2108.54,2005.05 L2109.22,2005.64 L2109.06,2012.82 L2109.55,2014.22 L2111.94,2013.89 L2114.94,2012.82 L2114.96,2012.37 L2110.89,2011.81 L2110.71,2010.14 L2111.27,2006.72 L2110.87,2006.59 L2111.76,2004.35 L2112.69,2003.56 L2113.98,2003.14 L2118.64,2002.82 L2120.85,2002.22 L2120.62,2001.66 L2121.58,2001.19 L2123.29,2001.33 L2125.44,1999.97 L2126.97,1998.3 L2127.31,1998.67 L2126.51,1999.77 L2126.74,2000.27 L2127.69,2000.33 L2128.26,2001.03 L2128.9,2000.9 L2128.29,2000.45 L2128.19,1999.55 L2129.05,1996.19 L2129.53,1995.68 L2131.13,1995.27 L2150.28,1991.88 L2164.11,1991.47 L2164.91,1991.69 L2165.21,1992.35 L2165.27,1995.74 L2167.39,1995.12 L2167.88,1997.2 L2170.88,1997.44 L2174.13,1997.16 L2177.95,1996.44 L2179.66,1995.64 L2179.94,1996.03 L2183.25,1995.59 L2185.4,1994.37 L2185.81,1993.26 L2184.5,1993.28 L2183.94,1992.78 L2183.77,1988.6 L2184.03,1987.62 L2186.09,1988.4 L2186.48,1987.53 L2186.09,1986.24 L2185.11,1986.44 L2183.86,1985.46 L2184.39,1984.81 L2185.95,1984.39 L2187.09,1982.99 L2186.06,1982.9 L2185.84,1982.12 L2186.15,1981.02 L2187.48,1980.58 L2186.65,1979.87 L2186.7,1979.2 L2187.82,1978.22 L2188.01,1975.89 L2188.91,1976.2 L2190.3,1989.95 L2196.27,1989.88 L2195.23,1974.98 L2207.15,1973.73 L2208.16,1988.49 L2211.79,1988.33 L2211.94,1990.6 L2212.69,1990.6 L2213.04,1985.81 L2218.93,1985.35 L2226.27,1981.96 L2228.43,1981.96 L2231.12,1981.06 L2232.43,1981.11 L2233.4,1983.75 L2233.98,1984.3 L2235.81,1985.08 L2238.16,1985.08 L2241.31,1982.85 L2242.8,1980.83 L2242.99,1978.86 L2239.15,1980.32 L2238.78,1979.96 L2242.44,1978.84 L2243.25,1978 L2242.72,1976.76 L2243.08,1971.18 L2243.39,1971.21 L2243.08,1976.09 L2243.75,1978.36 L2243.67,1981.59 L2245.53,1980.95 L2248.15,1980.83 L2248.66,1980.81 L2247.81,1989.1 L2248.79,1992.82 L2251.22,1992.22 L2251.11,1992.69 L2250.34,1992.83 L2249.72,1996.29 L2249.93,1997.46 L2248.84,1999.64 L2250.16,2002.99 L2249.6,2004.6 L2249.94,2005.19 L2249.35,2007.12 L2248.98,2007.1 L2248.94,2008.1 L2249.17,2012.06 L2249.96,2013.34 L2250.11,2015.06 L2249.7,2020.05 L2250.14,2023.79 L2249.24,2025.89 L2250.35,2032.91 L2248.83,2035.19 L2248.87,2041.52 L2247.94,2050.75 L2248.09,2059.3 L2249.22,2065.2 L2251.34,2071.1 L2249.89,2077.18 L2247.58,2077.74 L2246.68,2094.49 L2248.3,2111.09 L2250,2121.01 L2252.38,2122.83 L2253.62,2122.69 L2254.36,2125.84 L2254.43,2128.05 L2256.66,2128.05 L2256.79,2130.32 L2253.81,2129.47 L2253.65,2129.86 L2254.16,2137.2 L2253.88,2141.17 L2254.13,2141.87 L2254.69,2142.16 L2254.87,2144.81 L2253.12,2146.65 L2251.96,2153.53 L2252.8,2165.26 L2251.67,2174.8 L2252.37,2191.44 L2253.35,2199.49 L2253.79,2208.41 L2253.88,2226.15 L2253.2,2233.13 L2255.48,2237.97 L2257.26,2238.85 L2257.57,2243.38 L2257.26,2249.52 L2254.28,2249.79 L2254.97,2251.01 L2254.47,2255.44 L2252.73,2258.31 L2248.37,2254.49 L2247.38,2258.81 L2246.89,2266.09 L2242.56,2274.38 L2238.41,2281.21 L2238.28,2283.15 L2239.22,2284.95 L2238.53,2286.76 L2239.45,2287.15 L2238.34,2289.03 L2238.43,2290.6 L2237.17,2292.02 L2237.57,2292.92 L2238.82,2293.32 L2237.52,2294.87 L2238.91,2296.13 L2238.59,2297.9 L2235.53,2300.5 L2229.35,2310.46 L2229.21,2312.58 L2226.87,2312.15 L2225.15,2311.27 L2222.9,2311.3 L2222.07,2313.11 L2219.21,2312.91 L2219.25,2314.44 L2218.93,2314.41 L2217.61,2316.97 L2217.01,2319.49 L2216.7,2324.39 L2215.26,2327.64 L2213.81,2328.68 L2212.83,2328.86 L2210.99,2328.35 L2210.57,2329.19 L2209.71,2328.89 L2208.82,2329.28 L2204.66,2328.33 L2203.8,2330.03 L2204.4,2332.14 L2196.35,2331.53 L2194.36,2334.74 L2193.23,2335.63 L2191.76,2338.52 L2190.29,2340.16 L2186.48,2351.04 L2185.93,2353.59 L2185.32,2357.22 L2185.97,2360.9 L2184.46,2368.43 L2182.2,2376.96 L2181.68,2380.55 L2178.66,2380.12 L2174.48,2381.9 L2171.42,2384.31 L2171.42,2386.06 L2176.37,2385.59 L2176.68,2393.62 L2176.16,2394.68 L2176.98,2399.16 L2180.74,2399.18 L2180.42,2403.63 L2179.24,2403.77 L2179,2402.77 L2177.67,2402.81 L2177.04,2409.28 L2176.88,2419.3 L2177.51,2423.43 L2173.01,2424.35 L2170.77,2424.29 L2170.31,2425.61 L2169.36,2425.91 L2168.94,2426.6 L2155.2,2425.52 L2154.81,2426.54 L2153.18,2426.36 L2153.01,2427.15 L2150.25,2427.24 L2150.23,2427.58 L2148.72,2427.9 L2142.03,2427.03 L2141.82,2428.02 L2137.39,2428.03 L2137.23,2428.65 L2135.75,2428.14 L2134.41,2429.14 L2132.75,2428.79 L2132.53,2429.11 L2131.38,2428.1 L2125.8,2427.36 L2125.79,2427.09 L2117.2,2427.83 L2116.21,2425.83 L2116.56,2424.22 L2115.58,2422.03 L2116.37,2421.64 L2116.31,2420.57 L2114.26,2419.12 L2114.47,2418.39 L2111.4,2417.92 L2109.41,2418.54 L2109.43,2420.23 L2105.56,2421.97 L2105.03,2423.33 L2104.36,2423.49 L2104.24,2424.21 L2101.32,2423.91 L2101.32,2424.2 L2100.66,2424.19 L2100.65,2423.33 L2098.87,2424.15 L2099.09,2427.06 L2103.47,2426.91 L2103.46,2427.87 L2104,2427.9 L2104,2428.41 L2104.87,2428.5 L2105.06,2429.31 L2106.02,2429.45 L2105.92,2434.87 L2105.07,2434.88 L2104.53,2434.16 L2101.41,2434.87 L2101.18,2435.86 L2097.34,2436.07 L2097.34,2434.05 L2091.36,2433.47 L2091.49,2432.88 L2089.74,2431.48 L2088.79,2431.38 L2087.94,2432.03 L2086.26,2431.81 L2083.33,2432.17 L2084.32,2438.32 L2083.96,2439.09 L2071.3,2444.88 L2071.38,2446.61 L2070,2447.41 L2068.64,2450.34 L2071.41,2452.57 L2071.89,2453.69 L2070.44,2454.05 L2070.65,2456.12 L2071.18,2457.14 L2069.83,2457.37 L2069.6,2457.8 L2069.69,2458.73 L2070.77,2459.93 L2069.84,2460.36 L2069.31,2461.72 L2069.55,2462.29 L2070.6,2462.49 L2070.13,2466 L2070.98,2466.46 L2071.76,2465.52 L2072.31,2465.73 L2071.64,2468.03 L2072.1,2469.2 L2071.46,2469.86 L2070.37,2470.11 L2070.21,2470.77 L2069.14,2471.42 L2068.3,2472.58 L2068.46,2473.16 L2069.41,2472.72 L2070.76,2473.21 L2072.18,2472.73 L2072.12,2475.34 L2073.32,2476.52 L2073.48,2477.24 L2074.77,2476.52 L2075.08,2477.73 L2076.16,2478.39 L2080.04,2477.27 L2080.35,2477.75 L2079.95,2478.9 L2080.6,2479.88 L2081.92,2479.6 L2083.17,2478.36 L2083.67,2478.56 L2084.36,2480 L2083.24,2480.76 L2083.19,2481.85 L2082.12,2483.12 L2081.89,2484.28 L2082.52,2486.22 L2082.1,2488.05 L2082.43,2488.8 L2081.89,2491.44 L2080.99,2493.17 L2081.1,2494.81 L2080.38,2497.5 L2080.42,2499.77 L2080.69,2500.68 L2081.57,2501.61 L2080.8,2504.15 L2078.84,2505.89 L2078.49,2506.79 L2080.05,2507.57 L2080.76,2511.97 L2080.35,2512 L2081.19,2515.38 L2084.04,2516.34 L2084.09,2516.78 L2082.73,2517.97 L2085.42,2519.23 L2084.11,2520.52 L2084.2,2522.31 L2083.06,2523.61 L2083.44,2524.8 L2084.3,2525.02 L2084.34,2525.94 L2082.77,2528.33 L2082.35,2529.96 L2083.01,2530.15 L2085.78,2527.2 L2085.44,2528.73 L2085.67,2529.77 L2086.45,2529.93 L2087.95,2528.42 L2089.12,2528.24 L2086.63,2530.86 L2085.28,2531.48 L2085.45,2533.05 L2086.73,2533.96 L2087.53,2533.9 L2087.23,2532.58 L2087.82,2531.47 L2088.78,2533.02 L2087.19,2535.67 L2085.56,2535.29 L2085.13,2535.66 L2084.69,2539.35 L2085.62,2539.06 L2086.91,2540.09 L2088.18,2540.41 L2089.08,2539.84 L2090.1,2539.89 L2090.7,2540.51 L2090.32,2541.46 L2088.87,2542.03 L2087.11,2544.02 L2087.46,2544.9 L2089.31,2545.37 L2088.85,2547.7 L2089.18,2550.38 L2090.59,2550.48 L2092.45,2552 L2093.73,2552.12 L2094.38,2551.53 L2094.13,2550.22 L2096.44,2549.67 L2096.94,2547.5 L2097.6,2547.07 L2099.29,2547.44 L2103.65,2550.18 L2105.33,2549.62 L2105.51,2553.88 L2105.85,2554.32 L2106.83,2554.37 L2106.9,2553.7 L2107.96,2552.78 L2109.5,2552.84 L2109.46,2555.19 L2108.68,2556.84 L2110.04,2557.36 L2112.56,2555.3 L2113.44,2555.74 L2114.49,2558.84 L2114.19,2559.22 L2113.21,2559.33 L2113.08,2560.06 L2114.36,2560.81 L2115.43,2564.27 L2116.67,2564.56 L2116.12,2565.74 L2116.12,2567.11 L2115.49,2567.87 L2116.42,2568.69 L2116.33,2569.42 L2115.47,2570.46 L2116.02,2571.56 L2115.87,2575.47 L2115.72,2575.82 L2114.13,2575.34 L2114.78,2576.78 L2113.35,2578.14 L2114.86,2580.72 L2114.28,2584.09 L2115.87,2585.31 L2114.61,2585.54 L2113.76,2586.43 L2113.38,2588.4 L2113.96,2589.2 L2115.74,2589.05 L2117.07,2590.24 L2117.81,2591.84 L2118.65,2592.12 L2118.05,2593.75 L2119.35,2594.56 L2116.94,2598.51 L2117.78,2600.35 L2117,2602.01 L2117.34,2603.86 L2115.51,2605.21 L2114.4,2604.86 L2113.63,2605.68 L2114.86,2608.6 L2114.01,2609.69 L2114.26,2610.82 L2112.98,2612.49 L2112.81,2613.53 L2113.06,2614.31 L2114.8,2615.45 L2115.14,2617.48 L2116.3,2618.67 L2115.72,2622.13 L2114.26,2622.89 L2113.03,2624.36 L2109.48,2624.66 L2108.99,2625.15 L2108.74,2626.21 L2109.27,2627.15 L2108.93,2628.47 L2107.07,2630.06 L2106.58,2632.35 L2106.83,2633.74 L2107.63,2634.35 L2108.28,2634.56 L2109.83,2633.84 L2111.22,2633.73 L2112.75,2635 L2112.35,2636.27 L2113.25,2639.25 L2114.21,2640.28 L2114.07,2642.3 L2113.54,2646.07 L2110.9,2648.33 L2110.21,2651.45 L2110.36,2656.85 L2109.29,2658.22 L2109.35,2659.73 L2110.38,2662.04 L2106.86,2663.53 L2106.92,2665.02 L2107.49,2665.62 L2108.53,2665.61 L2109.2,2666.22 L2110.46,2668.86 L2110.57,2670.06 L2108.53,2670.12 L2107.53,2672.55 L2107.84,2673.44 L2109.58,2673.98 L2110.07,2675.74 L2108.72,2675.64 L2106.42,2676.51 L2104.34,2676.41 L2103.36,2681.29 L2104,2682.49 L2103.75,2682.9 L2101.92,2683.23 L2101.79,2683.54 L2103.45,2685.41 L2104.4,2688.07 L2103.92,2688.56 L2102.56,2688.83 L2101.74,2689.86 L2103.93,2691.49 L2104.56,2692.81 L2105.96,2694.31 L2105.87,2694.91 L2103.94,2696.47 L2103.36,2697.72 L2103.36,2699.84 L2104.25,2700.96 L2104.65,2702.71 L2103.67,2702.65 L2099.49,2707.16 L2099.72,2707.75 L2103.04,2709.54 L2103.78,2711.21 L2102.97,2711.79 L2100.99,2711.24 L2099.61,2711.55 L2097.19,2714.42 L2097.3,2716.63 L2094.84,2716.97 L2094.07,2717.8 L2095.59,2718.14 L2097.02,2719.65 L2096.08,2720.43 L2095.85,2720.96 L2096.14,2721.57 L2097.46,2722.37 L2098.62,2721.98 L2099.14,2722.52 L2098.83,2723.59 L2096.96,2724.45 L2096.9,2725.56 L2097.95,2726.69 L2101.26,2728.83 L2100.25,2730 L2098.28,2729.77 L2097.61,2730.16 L2097.98,2732.33 L2096.63,2733.99 L2096.13,2736.46 L2094.28,2735.68 L2092.06,2733.64 L2087.91,2732.57 L2085.37,2731.46 L2083.44,2728.93 L2081.28,2727.91 L2079.77,2726.1 L2076.41,2723.31 L2075.5,2723.06 L2075.49,2722.05 L2075.16,2721.92 L2075.34,2720.47 L2074.17,2720.21 L2073.38,2723.63 L2072.08,2724.5 L2070.19,2728.19 L2067.55,2731.32 L2064.17,2736.48 L2063.12,2743.21 L2062.1,2745.56 L2059.9,2747.39 L2057.7,2748.06 L2050.06,2745.27 L2047,2749.02 L2046.19,2749.35 L2045.03,2750.74 L2041.22,2751.03 L2038.22,2748.59 L2028.97,2745.44 L2027.93,2744.46 L2026.77,2741.71 L2024.25,2748.15 L2022.04,2755.99"/>
   <path fill-rule="evenodd" vector-effect="none" d="M902.651,1154.63 L910.41,1155.07 L919.967,1158.44 L930.659,1161.3 L933.137,1162.54 L935.349,1162.83 L938.2,1162.55 L941.138,1161.98 L944.126,1160.56 L945.96,1160.26 L949.054,1160.87 L952.994,1164.01 L955.781,1164.95 L958.275,1167.51 L961.336,1169.72 L969.303,1173.86 L978.401,1177.62 L980.036,1177.45 L987.164,1178.59 L988.82,1179.52 L989.768,1181.92 L984.066,1181.85 L975.794,1179.42 L968.314,1176.26 L963.286,1174.69 L961.699,1176.67 L961.282,1176.66 L960.369,1173.41 L957.27,1172.54 L957.086,1173.36 L952.125,1172.44 L948.528,1170.63 L943.583,1168.85 L940.852,1168.65 L939.272,1167.24 L934.329,1165.47 L932.653,1165.37 L927.385,1163.74 L913.832,1162.42 L907.974,1160.33 L898.247,1155.45 L900.732,1154.65 L902.651,1154.63"/>
   <path fill-rule="evenodd" vector-effect="none" d="M1295.44,1324.58 L1298.56,1325.08 L1306.26,1323.68 L1311.63,1323.16 L1314.87,1323.64 L1317.04,1323.25 L1318.46,1323.94 L1317.75,1324.66 L1316.15,1325.32 L1310.9,1325.24 L1309.86,1325.74 L1309.5,1325.49 L1307.86,1325.73 L1296.76,1329.78 L1292.06,1333.07 L1290.22,1333.75 L1289.1,1333.19 L1288.11,1333.78 L1287.82,1334.82 L1283.42,1336.51 L1278.44,1339.71 L1275.47,1340.84 L1267.12,1347.6 L1264.11,1348.29 L1263.45,1349.17 L1260.89,1350.52 L1259.91,1350.69 L1258.68,1350.15 L1257.14,1350.33 L1260.13,1348.89 L1261.08,1346.27 L1261.4,1346.72 L1265.2,1344.8 L1268.61,1341.87 L1272.44,1334.93 L1272.41,1331.79 L1272.86,1330.42 L1273.68,1330.17 L1276.66,1330.67 L1279.34,1329.93 L1281.41,1328.65 L1284.22,1328.35 L1286.33,1327.49 L1289.41,1327.18 L1291.78,1326.09 L1291.79,1324.9 L1293.87,1324.58 L1294.32,1322.66 L1295.12,1321.83 L1295.08,1323.17 L1294.56,1324.42 L1295.44,1324.58"/>
   <path fill-rule="evenodd" vector-effect="none" d="M1091.41,342.932 L1094.52,344.358 L1099.46,345.575 L1107.83,345.184 L1110.85,346.079 L1114.05,345.883 L1114.85,346.679 L1114.83,347.869 L1105.48,352.022 L1102.92,351.687 L1092.48,353.085 L1086.67,355.922 L1085.75,355.575 L1084.08,356.442 L1079.62,359.071 L1079.46,360.477 L1078.24,360.616 L1076.46,359.504 L1074.95,359.542 L1074.73,357.978 L1076.82,354.582 L1076.93,353.818 L1084.56,346.932 L1086.47,344.29 L1089.31,342.979 L1091.41,342.932"/>
   <path fill-rule="evenodd" vector-effect="none" d="M1189.82,1520.66 L1191.96,1522.55 L1193.26,1522.75 L1196.7,1524.69 L1196.91,1525.77 L1195.82,1529.06 L1197.96,1531.94 L1199.4,1537.49 L1201.81,1539.31 L1203.28,1539.13 L1204.07,1539.68 L1201.44,1542.29 L1202.88,1543.7 L1203.64,1543.11 L1204.04,1543.89 L1202.43,1544.97 L1202.15,1544.68 L1202.83,1544.16 L1201.52,1542.86 L1199.73,1543.42 L1199.9,1544.03 L1198.59,1544.07 L1198.68,1544.87 L1200.27,1545.87 L1198.8,1546.81 L1198.03,1546.33 L1198.01,1543.76 L1196.83,1543.37 L1196.21,1538.17 L1194.87,1535.1 L1192.6,1532.29 L1191.93,1532.22 L1190.55,1530.95 L1189.57,1531.01 L1188.32,1530.48 L1186.77,1528.74 L1182.25,1525.69 L1181.43,1524.09 L1180.8,1523.89 L1180.63,1521.74 L1181.5,1520.07 L1183.62,1520.79 L1186.59,1520.6 L1188.2,1519.51 L1189.82,1520.66"/>
   <path fill-rule="evenodd" vector-effect="none" d="M1141.71,737.773 L1142.17,738.866 L1144.31,738.236 L1145.04,740.257 L1143.49,740.721 L1142.63,742.211 L1124.21,747.5 L1116.85,750.36 L1115.67,749.914 L1106.08,752.811 L1105.68,751.851 L1103.54,752.348 L1102.98,750.128 L1105.09,749.466 L1104.92,748.406 L1115.31,745.921 L1118.44,744.629 L1118.01,743.238 L1121.07,742.41 L1120.78,740.953 L1124.63,739.826 L1124.96,741.151 L1127.7,740.489 L1128.28,740.82 L1131.24,740.208 L1131.97,739.705 L1137.2,739.158 L1141.71,737.773"/>
   <path fill-rule="evenodd" vector-effect="none" d="M1002.41,1177.89 L1005.92,1179.86 L1021.78,1179.99 L1031.08,1181.8 L1040.05,1184.45 L1041.35,1183.84 L1041.76,1184.36 L1036.34,1185.55 L1029.36,1185.88 L1019.82,1185.33 L1019.33,1188.54 L1018.65,1188.56 L1018.21,1189.69 L1016.58,1189.61 L1016.49,1188.4 L1015.73,1188.24 L1016.11,1184.81 L1006.19,1183 L1004.02,1182.28 L1001.22,1180.53 L1002.57,1179.21 L1001.7,1178.49 L1002.41,1177.89"/>
   <path fill-rule="evenodd" vector-effect="none" d="M1097.93,678.199 L1091.8,679.657 L1091.74,677.338 L1092.96,676.689 L1093.15,675.582 L1094.31,675.178 L1095.53,671.565 L1096.1,670.961 L1096.46,667.417 L1098.4,666.474 L1101.46,662.982 L1104.59,660.909 L1108.09,660.18 L1110.37,661.311 L1112.03,663.281 L1112.77,665.795 L1113.69,667.269 L1108.75,670.846 L1099.45,674.423 L1097.93,678.199"/>
   <path fill-rule="evenodd" vector-effect="none" d="M1098.15,1228.42 L1109.78,1228.55 L1112.18,1229.3 L1118.8,1229.81 L1121.45,1231.02 L1121.9,1234.39 L1121.05,1238.37 L1117.49,1240.58 L1113.44,1240.84 L1111.23,1241.64 L1107.87,1242.1 L1106.62,1241.64 L1105.92,1237.76 L1103.97,1236.05 L1099.81,1234.19 L1096.8,1232.17 L1090.69,1229.71 L1090.69,1228.5 L1098.15,1228.42"/>
   <path fill-rule="evenodd" vector-effect="none" d="M1484.92,1645.41 L1486.71,1645.45 L1488.95,1646.74 L1490.69,1646.25 L1491.83,1646.75 L1493.94,1648.77 L1494.62,1652.18 L1493.68,1653.09 L1492.96,1654.84 L1494.3,1663.03 L1493.41,1666.17 L1492.6,1666.37 L1489.75,1664.76 L1484.39,1664.18 L1483.38,1663.54 L1481.25,1660.24 L1480.03,1659.43 L1479.81,1658.62 L1477.59,1657.71 L1477.38,1652.4 L1476.64,1649.18 L1478,1644.97 L1478.98,1643.96 L1481.56,1644.04 L1484.92,1645.41"/>
   <path fill-rule="evenodd" vector-effect="none" d="M1156.05,765.149 L1159.27,766.024 L1160.27,767.887 L1161.25,775.918 L1160.76,776.902 L1161.53,778.87 L1158.44,778.948 L1158.28,777.109 L1159,776.384 L1160.27,776.384 L1160.81,775.607 L1160.09,769.442 L1155.86,770.087 L1155.43,770.461 L1154.01,770.339 L1150.74,772.446 L1147.95,772.939 L1147.42,774.066 L1147.78,774.287 L1147.57,775.307 L1146.75,776.145 L1143.85,776.927 L1140.73,778.974 L1139.07,778.456 L1134.22,777.938 L1134.03,777.615 L1135.9,774.528 L1135.68,773.978 L1136.11,773.344 L1137.49,771.627 L1140.79,769.132 L1146.75,767.646 L1148.75,765.96 L1151.65,766.17 L1156.05,765.149"/>
   <path fill-rule="evenodd" vector-effect="none" d="M1182.41,649.154 L1185.49,649.701 L1185.66,651.659 L1180.6,654.321 L1177.47,654.58 L1174.55,655.531 L1166.07,661.521 L1164.1,662.418 L1160.16,661.939 L1157.74,660.958 L1157.18,660.174 L1157.25,658.189 L1158.95,652.489 L1160.79,651.354 L1166.08,650.109 L1171.73,650.328 L1177.33,649.237 L1182.41,649.154"/>
   <path fill-rule="evenodd" vector-effect="none" d="M1523.8,1656.98 L1527.54,1657.73 L1528.4,1657.58 L1535.58,1660.07 L1536.41,1662.74 L1537.37,1663.69 L1537.2,1664.54 L1537.7,1665.92 L1537.49,1667.13 L1536.52,1665.68 L1535.34,1668 L1536.27,1668.77 L1534.03,1669.45 L1533.94,1670.44 L1532.27,1670.78 L1530.38,1671.78 L1529.58,1671.59 L1528.31,1670.45 L1527.05,1670.13 L1527.14,1670.75 L1526.18,1670.26 L1526.68,1670.24 L1526.74,1669.85 L1525.76,1669.63 L1525.85,1669.87 L1524.24,1670.03 L1523.89,1669.27 L1523.11,1669.2 L1521.64,1667.72 L1519.82,1666.78 L1513.55,1661.75 L1514.25,1659.44 L1515.94,1658.04 L1519.64,1656.96 L1520.69,1657 L1520.98,1657.55 L1522.78,1656.52 L1523.56,1656.59 L1523.8,1656.98"/>
   <path fill-rule="evenodd" vector-effect="none" d="M1256.72,1328.86 L1256.3,1334.8 L1255.02,1336.15 L1250.33,1337.34 L1248.02,1337.47 L1247.87,1338.13 L1246.53,1338.77 L1246.19,1338.31 L1236.87,1341.48 L1236.27,1341.47 L1235.1,1339.03 L1234.55,1339.13 L1234.26,1339.71 L1233.92,1338.7 L1235.12,1338.7 L1234.93,1337.81 L1235.31,1337.75 L1235.34,1336.67 L1235.73,1336.67 L1236.02,1335.81 L1236.75,1335.94 L1239.01,1334.92 L1239.37,1334.26 L1240.22,1334.56 L1241.85,1333.63 L1241.6,1332.38 L1244.09,1331.13 L1244.75,1330.41 L1247.26,1329.52 L1250.77,1328.99 L1254.08,1329.07 L1254.07,1328.6 L1257.14,1328.26 L1257.18,1328.84 L1256.72,1328.86"/>
   <path fill-rule="evenodd" vector-effect="none" d="M1212.18,1545.4 L1215.68,1545.68 L1216.77,1547.13 L1218.38,1548.02 L1220.56,1550.04 L1222.91,1550.5 L1225.3,1552.51 L1225.49,1553.06 L1225.07,1554.5 L1222.13,1555.19 L1223.44,1556.59 L1224.56,1557.12 L1225.96,1560.31 L1219.51,1562.83 L1216.63,1561.34 L1213.14,1557.16 L1211.59,1551.91 L1208.84,1546.37 L1209.26,1545.57 L1210.14,1545.22 L1212.18,1545.4"/>
   <path fill-rule="evenodd" vector-effect="none" d="M1899.18,1600.4 L1903.09,1600.45 L1906.95,1602.09 L1912.38,1605.71 L1912.23,1608.47 L1910.05,1610.92 L1910.05,1613.68 L1909.59,1615.88 L1907.41,1617.26 L1904.71,1615.78 L1901.26,1611.94 L1899.58,1610.57 L1898.16,1609.95 L1896.03,1608.01 L1894.91,1605.71 L1895.62,1603.21 L1896.99,1601.78 L1899.18,1600.4"/>
   <path fill-rule="evenodd" vector-effect="none" d="M1276.59,1017.12 L1276.55,1019.41 L1275.4,1023.18 L1271.61,1029.83 L1269.9,1031.89 L1266.71,1034.52 L1264.66,1034.35 L1263.85,1033.54 L1263.96,1032.1 L1265.61,1028.17 L1263.73,1027.38 L1264.91,1024.64 L1265.27,1024.87 L1264.87,1026.51 L1265.97,1026.83 L1266.47,1026.3 L1266.99,1024.91 L1265.23,1024.14 L1265.73,1024 L1266.55,1022.8 L1265.92,1022.59 L1265.38,1023.42 L1266.09,1021.37 L1265.94,1022.37 L1266.6,1022.59 L1266.98,1021.27 L1267.85,1021.64 L1268.41,1020.15 L1267.19,1020.03 L1267.81,1018.46 L1268.91,1018.86 L1270.41,1015.98 L1272.24,1013.92 L1274.01,1013.22 L1275.75,1013.84 L1276.68,1015.58 L1276.59,1017.12"/>
   <path fill-rule="evenodd" vector-effect="none" d="M1238.1,1000.69 L1238.71,1001.21 L1239.79,1001.13 L1239.55,1001.39 L1239.93,1001.4 L1240.67,1002.57 L1240.19,1003.68 L1240.59,1004.46 L1240.23,1004.77 L1240.66,1005.81 L1240.46,1006.07 L1241.08,1006.94 L1241.53,1008.88 L1241.97,1008.28 L1242.47,1008.5 L1242.51,1009.08 L1241.65,1009.27 L1241.76,1009.67 L1242.08,1009.54 L1242.21,1011.38 L1243.65,1015.01 L1242.53,1015.36 L1239.91,1010.67 L1239.46,1011.01 L1238.97,1010.49 L1239.17,1009.97 L1238.61,1010.27 L1237.51,1008.45 L1237.17,1008.77 L1236.56,1007.43 L1235.9,1007.27 L1236.21,1007 L1235.45,1006.34 L1234.46,1007.08 L1234.54,1006.29 L1234.07,1006.52 L1232.96,1006.05 L1232.76,1006.76 L1230.49,1006.29 L1230.09,1007.35 L1229.74,1007.24 L1229.87,1005.9 L1227.51,1005 L1226.8,1003.86 L1226.86,1003.3 L1228.5,1001.93 L1230.57,1001.09 L1235.85,1000.74 L1237.23,1000.31 L1238.1,1000.69"/>
   <path fill-rule="evenodd" vector-effect="none" d="M1141.43,235.179 L1140.69,236.105 L1139.85,234.769 L1139.23,230.974 L1139.88,229.722 L1139.97,227.897 L1141.26,226.071 L1143.09,225.405 L1145.94,223.427 L1150.27,221.906 L1152.61,221.955 L1154.1,222.635 L1156,224.252 L1156.29,224.978 L1152.82,229.684 L1145.63,233.661 L1141.43,235.179"/>
   <path fill-rule="evenodd" vector-effect="none" d="M1174.55,765.58 L1174.51,766.043 L1178.94,766.688 L1180.52,767.788 L1179.94,769.215 L1175.41,770.772 L1175.42,772.565 L1173.55,772.71 L1173.43,771.798 L1172.5,771.829 L1172.51,771.369 L1170.01,771.215 L1167.06,769.488 L1163.5,768.281 L1163.54,767.936 L1165.27,768.316 L1166.45,764.397 L1171.87,765.636 L1172.34,759.338 L1175.21,759.52 L1174.55,765.58"/>
   <path fill-rule="evenodd" vector-effect="none" d="M1059.43,374.861 L1063.38,374.878 L1063.69,375.147 L1064.62,377.168 L1064.42,378.455 L1063.17,381.196 L1060.27,383.49 L1055.06,383.711 L1053.34,384.691 L1052.45,386.119 L1049.9,388.12 L1048.58,387.69 L1047.64,385.979 L1049.84,380.212 L1053.35,377.118 L1055.85,375.673 L1058.57,374.763 L1059.43,374.861"/>
   <path fill-rule="evenodd" vector-effect="none" d="M1173.7,717.688 L1175.95,717.352 L1177.34,715.869 L1179.82,715.785 L1182.88,715.002 L1185.75,716.149 L1189.03,716.569 L1192.18,717.48 L1192.62,718.009 L1192.41,718.541 L1191.45,719.086 L1185.27,721.001 L1182.93,721.073 L1176.71,719.828 L1174.08,719.8 L1171.31,720.359 L1168.43,721.716 L1166.51,722.108 L1165.43,722.128 L1164.08,718.794 L1164.25,716.82 L1165.81,716.289 L1170.78,715.659 L1172.1,714.582 L1171.65,716.467 L1173.7,717.688"/>
   <path fill-rule="evenodd" vector-effect="none" d="M1092.94,575.907 L1091.32,576.523 L1089.76,575.963 L1086.7,572.382 L1087.75,566.463 L1091.66,561.64 L1094.27,559.458 L1097.89,558.731 L1098.79,559.478 L1098.67,560.5 L1097.64,561.815 L1096.87,564.469 L1095.32,565.575 L1095.41,567.505 L1094.72,570.12 L1094.83,574.173 L1092.94,575.907"/>
   <path fill-rule="evenodd" vector-effect="none" d="M1151.84,788.377 L1151.6,789.128 L1150.69,789.215 L1151.12,789.853 L1145.73,794.386 L1138.61,798.349 L1138.38,797.728 L1134.15,796.976 L1133.43,797.883 L1132.53,796.873 L1133.46,796.225 L1136.53,796.588 L1137.62,794.891 L1142.81,791.526 L1144.84,789.384 L1148.15,787.859 L1151.84,788.377"/>
   <path fill-rule="evenodd" vector-effect="none" d="M1056.9,895.37 L1057.15,896.083 L1059.73,896.54 L1065.08,896.884 L1075.81,896.737 L1077.4,898.774 L1073.19,902.005 L1067.28,902.683 L1052.94,900.898 L1050.78,899.045 L1050.63,897.966 L1052,896.07 L1053.21,895.545 L1056.9,895.37"/>
   <path fill-rule="evenodd" vector-effect="none" d="M1018.57,1614.09 L1017.91,1614.63 L1016.53,1614.35 L1014.65,1614.86 L1012.31,1616.03 L1011.04,1615.88 L1010.49,1614.37 L1011.23,1610.04 L1010.43,1606.68 L1011.76,1605.5 L1012.3,1604.24 L1011.71,1601.55 L1014.75,1598.1 L1015.83,1597.51 L1018.45,1597.92 L1020.37,1599.01 L1020.66,1599.6 L1020.29,1600.94 L1019.42,1601.87 L1019.74,1612.2 L1018.57,1614.09"/>
   <path fill-rule="evenodd" vector-effect="none" d="M1321.8,1575.99 L1320.53,1576.37 L1318.73,1575.02 L1315.15,1574.05 L1309.73,1571.8 L1308.11,1568.58 L1309.63,1567.26 L1311.06,1566.8 L1318.45,1565.83 L1321.9,1566.16 L1324.9,1567.46 L1325.79,1568.64 L1325.86,1569.68 L1322.82,1575.45 L1321.8,1575.99"/>
   <path fill-rule="evenodd" vector-effect="none" d="M937.005,132.029 L936.133,133.281 L934.277,132.995 L934.277,132.695 L930.67,130.747 L929.811,127.776 L929.432,125.905 L929.711,124.73 L932.439,121.682 L934.221,120.283 L941.07,120.731 L942.014,121.11 L943.716,123.328 L942.462,124.338 L941.455,127.958 L938.982,128.897 L937.005,132.029"/>
   <path fill-rule="evenodd" vector-effect="none" d="M1110.3,249.652 L1108.27,250.141 L1107.2,249.898 L1105.36,249.25 L1103.78,247.861 L1103.58,243.386 L1105.28,240.524 L1108.47,237.826 L1110.51,236.876 L1112.44,236.531 L1116.16,238.053 L1117.1,240.682 L1116.94,242.332 L1114.78,245.996 L1110.3,249.652"/>
   <path fill-rule="evenodd" vector-effect="none" d="M1057.14,440.072 L1057.79,440.139 L1058.13,441.607 L1057.62,443.132 L1052.84,446.949 L1050.54,447.905 L1047.86,448.059 L1044.58,450.106 L1041.21,450.05 L1040.09,448.977 L1042.03,446.527 L1043.93,445.191 L1045.89,444.788 L1046.32,443.645 L1047.74,443.884 L1052.62,441.018 L1054.97,440.198 L1057.14,440.072"/>
   <path fill-rule="evenodd" vector-effect="none" d="M1189.01,573.856 L1192.86,576.71 L1196.83,580.785 L1195.92,581.913 L1195.53,585.829 L1194.36,586.053 L1191.02,585.55 L1186.17,581.689 L1183.22,577.661 L1184.62,573.409 L1185.23,573.744 L1189.01,573.856"/>
   <path fill-rule="evenodd" vector-effect="none" d="M1074.13,498.144 L1073.04,498.179 L1070.56,495.708 L1071.06,490.757 L1071.81,489.946 L1074.6,487.73 L1079.75,486.477 L1081.14,486.225 L1084.62,487.512 L1084.57,489.918 L1082.34,493.247 L1074.13,498.144"/>
   <path fill-rule="evenodd" vector-effect="none" d="M1079.19,423.556 L1080.37,425.082 L1080.08,425.773 L1079.19,425.776 L1079.1,427.305 L1078.37,427.208 L1077.92,426.618 L1076.79,426.522 L1076.89,427.064 L1076.36,427.658 L1074.39,428.057 L1069.65,432.204 L1067.18,432.938 L1065.89,432.543 L1065.93,430.265 L1065.61,429.4 L1065.97,428.178 L1067.19,427.04 L1068.36,425.113 L1069.58,424.173 L1069.83,423.136 L1071.69,423.723 L1076.15,422.084 L1077.22,422.13 L1079.19,423.556"/>
   <path fill-rule="evenodd" vector-effect="none" d="M1024.6,286.193 L1022.33,286.663 L1019.96,286.61 L1018.77,285.865 L1018.66,284.996 L1022.04,281.492 L1023.32,280.667 L1033.32,276.198 L1031.3,278.666 L1028.96,283.036 L1024.6,286.193"/>
   <path fill-rule="evenodd" vector-effect="none" d="M1116,610.36 L1114.61,610.444 L1113.69,609.996 L1113.62,608.865 L1117.76,606.036 L1120.84,602.331 L1122.78,600.81 L1124.18,600.485 L1127.09,601.844 L1127.56,602.819 L1128.84,603.74 L1125.72,605.464 L1122.69,608.184 L1116,610.36"/>
   <path fill-rule="evenodd" vector-effect="none" d=""/>
   <path fill-rule="evenodd" vector-effect="none" d="M1070.2,551.054 L1066.25,551.614 L1064.35,550.746 L1066.21,549.6 L1067.56,547.758 L1069.85,542.061 L1073.26,540.606 L1075.3,540.505 L1076.28,541.287 L1076.99,542.801 L1076.94,544.144 L1076.02,546.382 L1072.59,550.047 L1070.2,551.054"/>
   <path fill-rule="evenodd" vector-effect="none" d="M1038.4,538.972 L1038.41,539.474 L1037.58,540.228 L1036.76,539.207 L1033.2,541.403 L1027.24,535.808 L1026.71,534.899 L1026.72,532.1 L1027.66,531.097 L1028.73,531.03 L1038.27,532.557 L1039.24,533.877 L1037.69,538.06 L1038.4,538.972"/>
   <path fill-rule="evenodd" vector-effect="none" d="M1220.62,563.419 L1222.66,564.999 L1223.46,566.996 L1222.07,568.785 L1222.47,573.422 L1220.03,573.753 L1219.7,570.11 L1217.46,569.315 L1213.7,569.845 L1211.85,568.785 L1211.98,565.672 L1213.3,564.479 L1217.39,562.757 L1220.62,563.419"/>
   <path fill-rule="evenodd" vector-effect="none" d="M1167.11,331.31 L1165.73,329.877 L1167.68,326.185 L1167.87,324.067 L1169.9,322.451 L1172.05,321.57 L1173.74,321.812 L1177.09,323.109 L1178.55,324.087 L1174.25,328.071 L1172.37,329.052 L1170.74,329.178 L1169.47,330.457 L1167.11,331.31"/>
   <path fill-rule="evenodd" vector-effect="none" d="M1184.42,811.756 L1189.43,811.798 L1190.78,812.305 L1191.07,813.324 L1190.73,814.175 L1188.99,814.747 L1180.94,816.526 L1177.05,817.727 L1175.76,818.807 L1174.24,818.585 L1174.01,817.622 L1174.29,816.884 L1177.21,812.796 L1179.46,811.826 L1184.42,811.756"/>
   <path fill-rule="evenodd" vector-effect="none" d="M1209.91,585.948 L1206.05,587.213 L1201.21,585.971 L1200.85,584.468 L1201.53,582.351 L1204.27,579.053 L1207.7,577.463 L1210.92,577.065 L1212.42,579.04 L1211.73,583.585 L1209.91,585.948"/>
   <path fill-rule="evenodd" vector-effect="none" d="M1108.78,253.871 L1113.29,254.263 L1113.99,255.144 L1113.74,256.486 L1112.19,257.41 L1104.86,259.129 L1096.96,260.058 L1096.05,259.849 L1095.36,258.963 L1095.72,257.367 L1096.35,256.844 L1100.3,254.911 L1105.51,254.011 L1108.78,253.871"/>
   <path fill-rule="evenodd" vector-effect="none" d="M878.134,112.732 L877.96,112.981 L876.052,112.185 L875.35,109.768 L875.226,108.778 L876.118,104.777 L877.911,103.405 L880.981,102.634 L884.259,104.454 L881.92,107.754 L880.631,110.552 L878.134,112.732"/>
   <path fill-rule="evenodd" vector-effect="none" d="M1083.3,635.835 L1084.02,636.928 L1080.59,639.346 L1078.91,639.313 L1078.75,638.485 L1076.64,639.048 L1074.99,637.491 L1077.07,634.411 L1078.58,633.152 L1081.98,632.158 L1083.59,631.297 L1085.56,631.317 L1086.35,632.127 L1086.13,634.278 L1083.3,635.835"/>
   <path fill-rule="evenodd" vector-effect="none" d="M1177.87,557.818 L1176.69,558.598 L1176.08,556.841 L1177.06,556.098 L1177.11,554.122 L1178.7,550.001 L1179.16,549.246 L1179.9,548.91 L1182.35,549.428 L1183.22,550.029 L1184.74,552.673 L1185.14,554.435 L1180.6,557.497 L1177.87,557.818"/>
   <path fill-rule="evenodd" vector-effect="none" d="M1146.88,604.229 L1142.92,606.196 L1140.14,600.592 L1144.46,597.859 L1148.63,597.625 L1149.55,598.086 L1150.36,599.251 L1150.27,600.476 L1149.75,601.447 L1146.88,604.229"/>
   <path fill-rule="evenodd" vector-effect="none" d="M1122.24,809.868 L1129.05,810.472 L1129.98,811.145 L1129.8,812.881 L1125.67,814.28 L1120.18,815.523 L1116.86,813.762 L1116.81,811.327 L1118.4,809.721 L1122.24,809.868"/>
   <path fill-rule="evenodd" vector-effect="none" d="M1138.2,756.367 L1140.4,756.574 L1145.46,755.501 L1147.78,755.826 L1148.79,756.46 L1148.67,757.589 L1147.97,758.181 L1148.34,758.299 L1148.36,758.811 L1147.31,758.86 L1147.25,758.368 L1146.16,758.299 L1145.78,758.804 L1145.95,760.033 L1145.67,760.131 L1144.78,760.023 L1145.28,759.185 L1143.83,758.378 L1143.42,758.487 L1143.17,760.122 L1142.74,759.986 L1142.05,758.559 L1136.26,757.885 L1134.57,758.309 L1133.43,757.461 L1133.7,755.571 L1134.28,755.223 L1138.2,756.367"/>
   <path fill-rule="evenodd" vector-effect="none" d="M1454.81,860.996 L1453.72,864.109 L1452.09,866.428 L1447.75,870.524 L1447.43,870.437 L1446.97,869.636 L1447.22,867.597 L1450.01,862.146 L1451.81,860.915 L1454.81,860.996"/>
   <path fill-rule="evenodd" vector-effect="none" d="M1012.46,487.578 L1011.59,488.086 L1010.24,487.945 L1007.93,486.844 L1006.78,485.694 L1008.6,482.208 L1012.26,479.841 L1014.13,479.568 L1015.44,480.112 L1015.55,481.89 L1013.74,486.03 L1012.46,487.578"/>
   <path fill-rule="evenodd" vector-effect="none" d="M1110.06,593.103 L1104.45,595.266 L1099.51,596.303 L1098.05,596.056 L1097.63,595.577 L1097.86,594.745 L1097.2,593.646 L1098.09,592.713 L1098.87,593.359 L1101.56,592.321 L1108.22,590.751 L1109.33,590.854 L1110.33,591.497 L1110.65,592.623 L1110.06,593.103"/>
   <path fill-rule="evenodd" vector-effect="none" d="M1186.67,1076.46 L1185.15,1076.23 L1184.75,1075.8 L1183.54,1070.77 L1183.84,1069.8 L1186.48,1067.45 L1187.04,1065.89 L1187.04,1064.05 L1187.44,1063.67 L1188.49,1064.09 L1188.16,1066.09 L1188.55,1067.78 L1189.35,1068.8 L1189.35,1069.61 L1187.33,1071.69 L1187.76,1073.17 L1186.67,1076.46"/>
   <path fill-rule="evenodd" vector-effect="none" d="M1604.66,1822.3 L1604.14,1822.58 L1602.55,1822.1 L1599,1820.22 L1598.71,1819.43 L1599.04,1815.85 L1601.77,1814.47 L1605.19,1815.22 L1607.79,1817.32 L1606.09,1821.79 L1604.66,1822.3"/>
   <path fill-rule="evenodd" vector-effect="none" d="M1235.09,996.821 L1232.05,997.106 L1228.64,995.016 L1233.96,991.596 L1235.85,991.575 L1241.63,992.759 L1239.6,995.034 L1235.09,996.821"/>
   <path fill-rule="evenodd" vector-effect="none" d="M1081.51,583.467 L1084.16,584.312 L1086.9,584.335 L1089.52,584.857 L1090.15,586.423 L1087.53,589.194 L1086.21,589.596 L1084.26,589.383 L1081.33,588.125 L1078.9,586.298 L1078.59,585.034 L1079.5,584.124 L1081.51,583.467"/>
   <path fill-rule="evenodd" vector-effect="none" d="M1732.45,1741.08 L1731.16,1741.23 L1729.64,1739.59 L1728.48,1739.26 L1727.19,1737.01 L1725.8,1735.82 L1725.67,1733.81 L1726.37,1733.43 L1728.24,1733.63 L1733.97,1735.51 L1734.38,1737.29 L1732.92,1739.43 L1732.45,1741.08"/>
   <path fill-rule="evenodd" vector-effect="none" d="M1543.06,883.625 L1544.27,885.07 L1544.76,886.338 L1544.29,888.013 L1542.95,884.93 L1541.58,885.5 L1538.04,888.376 L1537.34,887.266 L1537.39,886.315 L1537.98,884.452 L1540.01,880.948 L1541.2,880.11 L1544.47,879.431 L1543.06,883.625"/>
   <path fill-rule="evenodd" vector-effect="none" d="M1090.55,689.461 L1088.57,691.051 L1086.99,690.455 L1079.41,690.587 L1077.36,689.064 L1077.56,686.989 L1079.94,686.016 L1089.1,687.01 L1090.55,689.461"/>
   <path fill-rule="evenodd" vector-effect="none" d="M1051.85,355.253 L1047.35,355.134 L1045.24,353.896 L1044.45,352.601 L1044.6,350.001 L1049.1,348.869 L1053.2,350.456 L1054.42,353.596 L1053.42,354.85 L1051.85,355.253"/>
   <path fill-rule="evenodd" vector-effect="none" d="M1191.35,673.065 L1192.16,673.445 L1192.89,674.733 L1192.36,676.033 L1186.5,679.076 L1183.45,679.087 L1182.57,678.186 L1182.77,676.59 L1184.39,674.268 L1186.55,673.135 L1191.35,673.065"/>
   <path fill-rule="evenodd" vector-effect="none" d="M1635.62,1828.71 L1634.74,1828.93 L1634.09,1828.53 L1632.35,1824.75 L1632.51,1823.04 L1633.56,1821.28 L1637.71,1820.04 L1638.15,1821.89 L1638.91,1823 L1638.43,1827.86 L1635.62,1828.71"/>
   <path fill-rule="evenodd" vector-effect="none" d="M1118.45,542.339 L1121.32,543.03 L1121.94,543.599 L1121.92,544.886 L1117.57,546.284 L1115.85,546.34 L1113.12,546.192 L1110.44,544.797 L1110.42,543.266 L1112.37,541.836 L1114.72,541.439 L1118.45,542.339"/>
   <path fill-rule="evenodd" vector-effect="none" d="M1035.11,385.371 L1033.69,385.65 L1031.74,385.343 L1029.23,383.944 L1028.45,383.161 L1028.54,381.132 L1029.44,380.202 L1030.52,379.828 L1033.52,379.692 L1035.81,380.072 L1037.49,381.801 L1037.84,383.161 L1037.31,384.448 L1036.67,384.979 L1035.11,385.371"/>
   <path fill-rule="evenodd" vector-effect="none" d="M1039.55,480.519 L1040.48,481.563 L1040.56,482.809 L1039.27,484.659 L1038.18,485.218 L1035.56,485.582 L1034.51,485.218 L1033.78,485.526 L1032.08,485.302 L1030.75,484.995 L1029.64,483.616 L1031.64,481.405 L1034.69,480.66 L1039.55,480.519"/>
   <path fill-rule="evenodd" vector-effect="none" d="M1046.09,500.226 L1045.4,500.924 L1041.46,500.878 L1040.85,498.026 L1041.24,496.828 L1042.99,494.709 L1044.56,494.129 L1047.59,494.105 L1048.94,494.925 L1047.9,498.083 L1046.09,500.226"/>
   <path fill-rule="evenodd" vector-effect="none" d="M1121.99,1096.3 L1119.95,1095.95 L1119.41,1094.87 L1120.96,1090.8 L1122.89,1089.16 L1125.79,1088.78 L1126.43,1089.53 L1126.08,1091.24 L1123.63,1095.16 L1122.54,1096.3 L1121.99,1096.3"/>
   <path fill-rule="evenodd" vector-effect="none" d="M1230.22,1347.88 L1229.79,1349.33 L1230.3,1351.32 L1229.57,1352.45 L1229.63,1353.04 L1230.23,1353.4 L1229.62,1353.48 L1229.5,1354.82 L1229.9,1355.32 L1229.43,1356.48 L1227.71,1356.79 L1226.79,1354.04 L1226.24,1349.15 L1227.47,1348.84 L1227.63,1349.16 L1228.41,1349.1 L1229.78,1346.19 L1230.63,1346.29 L1230.22,1347.88"/>
   <path fill-rule="evenodd" vector-effect="none" d="M1104.98,1089.46 L1106.27,1090.69 L1107.26,1093.3 L1108.45,1094.42 L1107.66,1095.48 L1106.2,1096.29 L1103.89,1094.97 L1103.35,1094.22 L1103.37,1093.78 L1104.01,1093.51 L1104.25,1093.7 L1103.8,1094.35 L1106.16,1096 L1106.94,1095.03 L1104.67,1090.45 L1103.32,1090.03 L1102.35,1090.89 L1102.18,1091.97 L1103.18,1092.59 L1103.55,1092.17 L1103.61,1093.27 L1102.04,1092.56 L1101.65,1091.7 L1102.1,1090.26 L1102.98,1089.47 L1104.98,1089.46"/>
   <path fill-rule="evenodd" vector-effect="none" d="M1236.27,1333.48 L1235.35,1333.2 L1234.08,1331.01 L1231.44,1329.86 L1231.17,1329.32 L1231.79,1327 L1232.84,1326.64 L1235.46,1327.9 L1236.73,1329.97 L1236.88,1332.11 L1237.63,1332.54 L1237.59,1333.02 L1236.27,1333.48"/>
   <path fill-rule="evenodd" vector-effect="none" d="M1029.57,408.028 L1028.1,409.006 L1027.09,408.99 L1026.17,408.785 L1024.31,407.438 L1023.95,406.152 L1024.75,404.039 L1026.61,402.964 L1028.94,402.764 L1029.59,403.051 L1030.53,404.075 L1030.8,405.685 L1030.62,406.777 L1029.57,408.028"/>
   <path fill-rule="evenodd" vector-effect="none" d="M1151.71,571.895 L1151.69,573.22 L1146.84,575.537 L1144.33,576.035 L1143.27,575.489 L1142.71,573.839 L1144.06,572.804 L1150.94,571.699 L1151.71,571.895"/>
   <path fill-rule="evenodd" vector-effect="none" d="M1289.81,1318.95 L1290.36,1319.44 L1289.88,1320.23 L1288.18,1321.27 L1287.75,1320.61 L1287.44,1320.79 L1286.72,1322.23 L1287.15,1324.52 L1286.72,1325.08 L1286.15,1324.98 L1285.21,1323.52 L1285.66,1321.63 L1288.48,1318.63 L1289.26,1318.37 L1289.81,1318.95"/>
   <path fill-rule="evenodd" vector-effect="none" d="M1076.96,596.75 L1079.26,599.224 L1079.32,600.101 L1076.86,601.218 L1072.72,600.648 L1071.73,600.049 L1071.9,598.922 L1074.28,597.06 L1076.96,596.75"/>
   <path fill-rule="evenodd" vector-effect="none" d="M1032.24,505.126 L1028.62,505.855 L1027.72,505.256 L1027.47,504.549 L1028.79,501.98 L1031.05,501.299 L1034.18,501.951 L1034.66,504.068 L1034.1,504.752 L1032.24,505.126"/>
   <path fill-rule="evenodd" vector-effect="none" d="M1194.52,979.258 L1193.45,978.934 L1194.67,971.75 L1195.32,970.98 L1197.1,970.889 L1197.25,972.41 L1196.85,974.36 L1195.42,977.55 L1195.3,978.635 L1194.52,979.258"/>
   <path fill-rule="evenodd" vector-effect="none" d="M1190.25,543.063 L1189.91,543.201 L1188.26,541.915 L1188.28,539.916 L1188.91,538.29 L1191.02,536.721 L1192.3,536.574 L1192.73,538.811 L1192.18,541.241 L1191.34,542.599 L1190.25,543.063"/>
   <path fill-rule="evenodd" vector-effect="none" d="M1912.87,1685.71 L1911.83,1686.63 L1911.02,1685.94 L1910.97,1684.61 L1911.59,1682.92 L1909.74,1681.92 L1909.34,1680.81 L1912.05,1680 L1913.36,1681.38 L1912.87,1685.71"/>
   <path fill-rule="evenodd" vector-effect="none" d="M1605.04,1836.98 L1604.01,1836.85 L1605.08,1829.95 L1605.35,1832.24 L1607.51,1834.69 L1606.63,1836.49 L1605.04,1836.98"/>
   <path fill-rule="evenodd" vector-effect="none" d="M1159.28,696.563 L1159.4,697.677 L1156.67,699.02 L1154.83,699.297 L1153.71,698.503 L1153.59,696.965 L1153.91,696.697 L1157.61,695.46 L1159.28,696.563"/>
   <path fill-rule="evenodd" vector-effect="none" d="M1046.92,868.91 L1043.32,869.762 L1042.58,869.087 L1042.51,868.413 L1043.77,866.502 L1045.89,865.603 L1047.12,866.053 L1047.52,866.952 L1047.43,868.104 L1046.92,868.91"/>
   <path fill-rule="evenodd" vector-effect="none" d="M1096.57,540.971 L1094.82,540.723 L1094.41,539.295 L1094.75,537.644 L1096.47,536.689 L1097.94,536.464 L1098.9,537.277 L1098.47,539.57 L1098.13,540.175 L1096.57,540.971"/>
   <path fill-rule="evenodd" vector-effect="none" d="M1083.88,245.97 L1080.93,245.97 L1080.57,245.635 L1079.91,243.8 L1080.52,242.423 L1082.12,241.832 L1083.77,242.114 L1084.7,243.421 L1083.88,245.97"/>
   <path fill-rule="evenodd" vector-effect="none" d="M1574.12,1519.7 L1573.58,1519.65 L1573.46,1519.05 L1572.75,1518.54 L1572.41,1517.06 L1574.75,1515.38 L1575.98,1515.43 L1576.46,1515.7 L1576.76,1516.75 L1576.46,1517.59 L1574.12,1519.7"/>
   <path fill-rule="evenodd" vector-effect="none" d="M1258.67,1003.79 L1258.27,1004.18 L1257.21,1003.98 L1257.04,1003.33 L1257.15,1001.69 L1257.64,1001.52 L1258.38,999.268 L1257.15,999.034 L1257.28,998.036 L1259.88,999.098 L1259.73,1001.22 L1258.67,1003.79"/>
   <path fill-rule="evenodd" vector-effect="none" d="M1142.58,643.495 L1141.83,643.816 L1140.98,643.481 L1141.29,641.886 L1140.43,640.879 L1141.93,639.214 L1143.63,639.662 L1143.95,640.711 L1143.39,642.588 L1142.58,643.495"/>
   <path fill-rule="evenodd" vector-effect="none" d="M1152.07,981.241 L1151.04,981.293 L1149.81,980.632 L1154.34,978.514 L1155.34,978.562 L1155.57,979.176 L1154.96,980.06 L1152.07,981.241"/>
   <path fill-rule="evenodd" vector-effect="none" d="M1188.33,1346.96 L1184.08,1346.75 L1182.26,1345.38 L1182.77,1344.66 L1183.82,1344.54 L1188.24,1345.56 L1188.78,1346.43 L1188.33,1346.96"/>
   <path fill-rule="evenodd" vector-effect="none" d="M788.182,247.044 L788.559,250.474 L787.386,251.146 L785.541,250.2 L785.184,247.956 L785.645,247.092 L786.421,246.79 L787.616,246.68 L788.182,247.044"/>
   <path fill-rule="evenodd" vector-effect="none" d="M1139.84,926.354 L1140.52,926.198 L1140.71,926.548 L1139.36,926.898 L1139.5,928.892 L1137.29,928.543 L1136.69,928.18 L1137.14,927.662 L1136.4,927.532 L1136.38,927.221 L1138.06,926.677 L1138.06,926.328 L1139.04,926.716 L1139.98,925.952 L1139.84,926.354"/>
   <path fill-rule="evenodd" vector-effect="none" d="M1156.41,673.212 L1155.04,673.583 L1154.73,672.795 L1158.25,670.799 L1159.01,671.624 L1159.02,672.065 L1156.41,673.212"/>
   <path fill-rule="evenodd" vector-effect="none" d="M1632.14,1799.39 L1632.03,1799.7 L1631.64,1799.4 L1629.98,1799.57 L1630.94,1797.81 L1631.17,1796.55 L1630.38,1795.88 L1630.42,1795.3 L1630.94,1794.96 L1632.2,1795.83 L1632.48,1797.42 L1632.14,1799.39"/>
   <path fill-rule="evenodd" vector-effect="none" d="M1118.37,593.963 L1118.59,595.605 L1117.43,596.543 L1115.98,596.267 L1114.87,595.054 L1117.23,593.654 L1118.37,593.963"/>
   <path fill-rule="evenodd" vector-effect="none" d="M1271.96,1322.05 L1272.93,1324.19 L1272.98,1325.55 L1272.62,1326.07 L1271.92,1325.86 L1270.62,1323.84 L1270.9,1322.22 L1271.39,1321.76 L1271.96,1322.05"/>
   <path fill-rule="evenodd" vector-effect="none" d=""/>
   <path fill-rule="evenodd" vector-effect="none" d="M1253.79,1062.98 L1251.48,1063.02 L1251.12,1062.72 L1251.71,1061.93 L1253.2,1061.3 L1254.65,1061.15 L1255.78,1061.9 L1255.07,1062.58 L1253.79,1062.98"/>
   <path fill-rule="evenodd" vector-effect="none" d="M1144.91,808.127 L1143.4,808.127 L1143,807.159 L1144.24,805.469 L1146.26,805.529 L1146.21,807.204 L1144.91,808.127"/>
   <path fill-rule="evenodd" vector-effect="none" d="M1092.47,618.532 L1091.07,617.849 L1091.06,616.662 L1093.41,616.197 L1094.33,616.549 L1094.74,617.154 L1094.59,618.173 L1092.47,618.532"/>
   <path fill-rule="evenodd" vector-effect="none" d="M1138.74,531.037 L1137.79,531.148 L1137.36,530.71 L1137.53,528.731 L1138.03,528.065 L1139.97,528.503 L1140.09,528.945 L1139.69,530.122 L1138.74,531.037"/>
   <path fill-rule="evenodd" vector-effect="none" d="M1095.5,1212.18 L1097.32,1212.55 L1095.01,1213.6 L1091.81,1212.66 L1095.5,1212.18"/>
   <path fill-rule="evenodd" vector-effect="none" d="M1135.12,215.439 L1133.71,215.219 L1133.8,214.44 L1136.34,212.763 L1136.49,213.421 L1135.12,215.439"/>
   <path fill-rule="evenodd" vector-effect="none" d="M1134.18,991.685 L1133.16,991.582 L1132.49,989.97 L1134.29,989.896 L1136.62,990.9 L1135.99,991.457 L1134.18,991.685"/>
   <path fill-rule="evenodd" vector-effect="none" d="M1111.21,735.571 L1111.6,737.305 L1110.89,737.778 L1109.45,735.218 L1109.68,734.409 L1110.58,734.665 L1111.21,735.571"/>
   <path fill-rule="evenodd" vector-effect="none" d="M1241.75,636.524 L1240.28,636.297 L1239.99,635.169 L1241.14,634.108 L1242.4,633.993 L1242.7,634.266 L1241.75,636.524"/>
   <path fill-rule="evenodd" vector-effect="none" d="M1126.36,676.453 L1125.52,676.492 L1124.93,675.929 L1124.89,674.728 L1125.54,674.149 L1126.76,674.1 L1127.7,675.072 L1127.53,675.738 L1126.36,676.453"/>
   <path fill-rule="evenodd" vector-effect="none" d="M1014.54,392.154 L1014.22,392.702 L1013.82,392.546 L1013.23,391.552 L1013.32,390.846 L1013.76,389.893 L1015.03,389.324 L1015.19,389.956 L1014.54,392.154"/>
   <path fill-rule="evenodd" vector-effect="none" d="M791.26,248.226 L790.196,247.878 L789.177,246.583 L789.345,245.476 L789.823,245.225 L790.716,245.81 L791.361,247.293 L791.26,248.226"/>
   <path fill-rule="evenodd" vector-effect="none" d="M1292.78,1320.85 L1292.06,1320.99 L1291.55,1320.64 L1291.11,1319.31 L1292.4,1318.4 L1293.22,1319.08 L1292.78,1320.85"/>
   <path fill-rule="evenodd" vector-effect="none" d="M1167.63,921.595 L1167.37,922.701 L1166.6,922 L1166.33,918.692 L1167.05,918.569 L1167.63,921.595"/>
   <path fill-rule="evenodd" vector-effect="none" d="M1099.92,578.746 L1099.2,579.25 L1098.63,578.691 L1099.08,577.431 L1101.02,577.019 L1100.88,578.019 L1099.92,578.746"/>
   <path fill-rule="evenodd" vector-effect="none" d="M1102.46,617.665 L1101.73,617.807 L1101.24,617.065 L1101.58,615.564 L1102.64,615.418 L1103.36,616.731 L1102.46,617.665"/>
   <path fill-rule="evenodd" vector-effect="none" d="M640.605,336.19 L639.116,335.958 L639.997,334.693 L640.647,334.726 L641.485,335.559 L640.605,336.19"/>
   <path fill-rule="evenodd" vector-effect="none" d="M1275.05,1007.84 L1274,1007.13 L1274.23,1006.28 L1275.28,1006.99 L1275.05,1007.84"/>
   <path fill-rule="evenodd" vector-effect="none" d="M1184.1,1043.15 L1183.68,1042.36 L1183.94,1042.34 L1184.1,1043.15"/>
  </g>
  <g stroke-width="1" transform="matrix(0.999744,0,0,0.999744,0,0)" stroke-opacity="1" font-size="34.5833" fill="none" stroke-linejoin="bevel" font-style="normal" stroke-linecap="square" stroke="#000000" font-family="MS Shell Dlg 2" font-weight="400"/>
  <g stroke-width="1" transform="matrix(11.808,0,0,11.808,0,0)" stroke-opacity="1" font-size="34.5833" fill="none" stroke-linejoin="bevel" font-style="normal" stroke-linecap="square" stroke="#000000" font-family="MS Shell Dlg 2" font-weight="400"/>
  <g stroke-width="1" transform="matrix(11.808,0,0,11.808,0,0)" stroke-opacity="1" font-size="34.5833" fill="none" stroke-linejoin="bevel" font-style="normal" stroke-linecap="square" stroke="#000000" font-family="MS Shell Dlg 2" font-weight="400"/>
  <g stroke-width="1" transform="matrix(11.808,0,0,11.808,0,0)" stroke-opacity="1" font-size="34.5833" fill="none" stroke-linejoin="bevel" font-style="normal" stroke-linecap="square" stroke="#000000" font-family="MS Shell Dlg 2" font-weight="400"/>
  <g stroke-width="1" transform="matrix(1,0,0,1,0,0)" stroke-opacity="1" font-size="34.5833" fill="none" stroke-linejoin="bevel" font-style="normal" stroke-linecap="square" stroke="#000000" font-family="MS Shell Dlg 2" font-weight="400"/>
  <g stroke-width="1" transform="matrix(11.808,0,0,11.808,0,0)" stroke-opacity="1" font-size="34.5833" fill="none" stroke-linejoin="bevel" font-style="normal" stroke-linecap="square" stroke="#000000" font-family="MS Shell Dlg 2" font-weight="400"/>
  <g stroke-width="1" transform="matrix(11.808,0,0,11.808,0,0)" stroke-opacity="1" font-size="34.5833" fill="none" stroke-linejoin="bevel" font-style="normal" stroke-linecap="square" stroke="#000000" font-family="MS Shell Dlg 2" font-weight="400"/>
  <g stroke-width="1" transform="matrix(11.808,0,0,11.808,0,0)" stroke-opacity="1" font-size="34.5833" fill="none" stroke-linejoin="bevel" font-style="normal" stroke-linecap="square" stroke="#000000" font-family="MS Shell Dlg 2" font-weight="400"/>
  <g stroke-width="1" transform="matrix(11.808,0,0,11.808,0,0)" stroke-opacity="1" font-size="34.5833" fill="none" stroke-linejoin="bevel" font-style="normal" stroke-linecap="square" stroke="#000000" font-family="MS Shell Dlg 2" font-weight="400"/>
  <g stroke-width="1" transform="matrix(1,0,0,1,0,0)" stroke-opacity="1" font-size="34.5833" fill="none" stroke-linejoin="bevel" font-style="normal" stroke-linecap="square" stroke="#000000" font-family="MS Shell Dlg 2" font-weight="400"/>
 </g>
</svg>
