<?xml version='1.0' encoding='UTF-8' standalone='no'?>
<svg xmlns:xlink="http://www.w3.org/1999/xlink" width="249.936mm" height="249.936mm" viewBox="0 0 2952 2952" xmlns="http://www.w3.org/2000/svg" version="1.2" baseProfile="tiny">
 <title>Qt SVG Document</title>
 <desc>Generated with Qt</desc>
 <defs/>
 <g fill="none" fill-rule="evenodd" stroke-linejoin="bevel" stroke-linecap="square" stroke="black" stroke-width="1">
  <g fill="none" font-weight="400" stroke-opacity="1" stroke-linejoin="bevel" stroke-linecap="square" font-size="34.5833" font-style="normal" transform="matrix(1,0,0,1,0,0)" stroke="#000000" font-family="MS Shell Dlg 2" stroke-width="1"/>
  <g fill="none" font-weight="400" stroke-opacity="1" stroke-linejoin="bevel" stroke-linecap="square" font-size="34.5833" font-style="normal" transform="matrix(1,0,0,1,0,0)" stroke="#000000" font-family="MS Shell Dlg 2" stroke-width="1"/>
  <g fill="none" font-weight="400" stroke-opacity="1" stroke-linejoin="bevel" stroke-linecap="square" font-size="34.5833" font-style="normal" transform="matrix(11.808,0,0,11.808,0,0)" stroke="#000000" font-family="MS Shell Dlg 2" stroke-width="1"/>
  <g fill="none" font-weight="400" stroke-opacity="1" stroke-linejoin="bevel" stroke-linecap="square" font-size="34.5833" font-style="normal" transform="matrix(0.999744,0,0,0.999744,0,0)" stroke="#000000" font-family="MS Shell Dlg 2" stroke-width="1"/>
  <g fill="#ffffff" font-weight="400" fill-opacity="0" font-size="34.5833" font-style="normal" transform="matrix(0.999744,0,0,0.999744,0,0)" stroke="none" font-family="MS Shell Dlg 2">
   <path fill-rule="evenodd" d="M-2,-2 L2955,-2 L2955,2955 L-2,2955 L-2,-2" vector-effect="none"/>
  </g>
  <g fill="none" font-weight="400" stroke-opacity="1" stroke-linejoin="bevel" stroke-linecap="square" font-size="34.5833" font-style="normal" transform="matrix(0.999744,0,0,0.999744,0,0)" stroke="#000000" font-family="MS Shell Dlg 2" stroke-width="1"/>
  <g fill="none" font-weight="400" stroke-opacity="1" stroke-linejoin="bevel" stroke-linecap="square" font-size="34.5833" font-style="normal" transform="matrix(11.808,0,0,11.808,0,0)" stroke="#000000" font-family="MS Shell Dlg 2" stroke-width="1"/>
  <g fill="none" font-weight="400" stroke-opacity="1" stroke-linejoin="bevel" stroke-linecap="square" font-size="34.5833" font-style="normal" transform="matrix(11.808,0,0,11.808,0,0)" stroke="#000000" font-family="MS Shell Dlg 2" stroke-width="1"/>
  <g fill="none" font-weight="400" stroke-opacity="1" stroke-linejoin="bevel" stroke-linecap="square" font-size="34.5833" font-style="normal" transform="matrix(11.808,0,0,11.808,0,0)" stroke="#000000" font-family="MS Shell Dlg 2" stroke-width="1"/>
  <g fill="none" font-weight="400" stroke-opacity="1" stroke-linejoin="bevel" stroke-linecap="square" font-size="34.5833" font-style="normal" transform="matrix(11.808,0,0,11.808,0,0)" stroke="#000000" font-family="MS Shell Dlg 2" stroke-width="1"/>
  <g fill="none" font-weight="400" stroke-opacity="1" stroke-linejoin="bevel" stroke-linecap="square" font-size="34.5833" font-style="normal" transform="matrix(11.808,0,0,11.808,0,0)" stroke="#000000" font-family="MS Shell Dlg 2" stroke-width="1"/>
  <g fill="#ffffff" font-weight="400" fill-opacity="0" font-size="34.5833" font-style="normal" transform="matrix(11.808,0,0,11.808,0,0)" stroke="none" font-family="MS Shell Dlg 2">
   <path fill-rule="evenodd" d="M0,0 L250,0 L250,250 L0,250 L0,0" vector-effect="none"/>
  </g>
  <g fill="none" font-weight="400" stroke-opacity="1" stroke-linejoin="bevel" stroke-linecap="square" font-size="34.5833" font-style="normal" transform="matrix(11.808,0,0,11.808,0,0)" stroke="#000000" font-family="MS Shell Dlg 2" stroke-width="1"/>
  <g fill="none" font-weight="400" stroke-opacity="1" stroke-linejoin="bevel" stroke-linecap="square" font-size="34.5833" font-style="normal" transform="matrix(11.808,0,0,11.808,0,0)" stroke="#000000" font-family="MS Shell Dlg 2" stroke-width="1"/>
  <g fill="#000000" font-weight="400" fill-opacity="0" font-size="34.5833" font-style="normal" transform="matrix(0.999744,0,0,0.999744,0,0)" stroke="none" font-family="MS Shell Dlg 2">
   <rect width="2953" height="2953" x="0" y="0"/>
  </g>
  <g fill="none" font-weight="400" stroke-opacity="1" stroke-linejoin="bevel" stroke-linecap="square" font-size="34.5833" font-style="normal" transform="matrix(0.999744,0,0,0.999744,0,0)" stroke="#000000" font-family="MS Shell Dlg 2" stroke-width="1"/>
  <g fill="#c5c5c5" font-weight="400" fill-opacity="1" stroke-opacity="1" stroke-linejoin="bevel" stroke-linecap="square" font-size="34.5833" font-style="normal" transform="matrix(0.999744,0,0,0.999744,0,0)" stroke="#5c5c5c" font-family="MS Shell Dlg 2" stroke-width="3.07087">
   <path fill-rule="evenodd" d="M1730.14,2092.99 L1651.66,2014.58 L1627.92,1990.87 L1508.25,1871.47 L1402.89,1766.47 L1385.56,1753.44 L1377.09,1745.1 L1371.21,1742.82 L1362.48,1742.84 L1356.17,1744.84 L1348.41,1749.28 L1339.02,1752.3 L1314.23,1758.08 L1302.47,1762.41 L1285.81,1766.87 L1271.22,1772.08 L1254.81,1777.07 L1236.91,1782.78 L1221.93,1786.81 L1195.78,1794.99 L1178.86,1798.05 L1164.67,1798.33 L1152.74,1796.27 L1140.37,1788.21 L1128.33,1776.7 L1120.35,1766.14 L1113.02,1757.29 L1102.6,1749.98 L1086.93,1740.46 L1073.91,1729.67 L1065.85,1721.78 L1059.78,1714.13 L1049.64,1701.47 L1046.03,1696.99 L1030.99,1677.96 L1007.66,1653.02 L990.975,1633.09 L978.277,1612.9 L967.943,1597.89 L948.164,1570.59 L926.557,1550.99 L885.442,1502 L860.948,1473.05 L841.227,1446.81 L839.923,1443.58 L849.278,1433.88 L868.797,1421.67 L895.117,1401.85 L938.179,1372.44 L978.064,1353.01 L995.86,1343.26 L974.509,1316.66 L943.272,1287.45 L915.154,1256.72 L886.711,1229.03 L869.213,1219.74 L840.435,1200.29 L800.403,1178.56 L797.376,1176.2 L780.07,1167.21 L762.533,1154.31 L753.019,1152.69 L741.24,1156.94 L712.673,1165.58 L683.934,1181.08 L641.395,1206.8 L615.116,1220.55 L589.006,1223.88 L547.733,1233.91 L400.602,1262.85 L395.627,1250.25 L394.368,1250.72 L391.195,1250.74 L388.305,1249.68 L384.437,1248.74 L379.291,1248.48 L375.744,1247.79 L373.821,1247.41 L373.43,1247.31 L371.403,1246.38 L369.539,1245.87 L367.815,1245.45 L367.395,1244.68 L367.122,1245.38 L366.877,1245.27 L366.934,1244.53 L366.998,1244 L367.281,1243.16 L367.553,1242.25 L367.812,1241.26 L367.964,1240.61 L368.206,1239.28 L368.326,1238.2 L368.425,1236.89 L368.434,1235.76 L368.401,1234.65 L368.308,1233.54 L368.171,1232.45 L368.037,1231.71 L367.803,1230.62 L367.532,1229.6 L365.032,1222.44 L360.877,1217.87 L360.255,1217.46 L359.776,1216.74 L359.542,1216.82 L359.28,1216.86 L359.01,1216.86 L358.759,1216.8 L358.543,1216.73 L358.275,1216.57 L358.023,1216.36 L357.794,1216.09 L357.056,1214.77 L356.601,1212.91 L356.528,1212.63 L356.491,1212.39 L356.472,1212.13 L356.497,1211.87 L355.425,1210.28 L354.868,1206.8 L352.814,1207.71 L350.941,1208.54 L349.331,1209.26 L347.911,1209.88 L346.391,1210.51 L345.446,1210.91 L343.695,1211.67 L341.108,1212.85 L340.294,1213.23 L339.238,1213.67 L338.153,1214.12 L337.007,1214.59 L335.802,1215.06 L334.956,1215.39 L334.02,1215.69 L331.829,1216.38 L330.169,1216.87 L328.55,1217.34 L326.593,1217.92 L325.362,1218.28 L323.912,1218.7 L322.973,1218.97 L320.957,1219.53 L317.85,1220.46 L315.82,1221.07 L314.659,1221.41 L313.221,1221.82 L311.865,1222.19 L310.914,1222.48 L310.141,1222.75 L309.07,1223.18 L308.201,1223.56 L307.078,1224.09 L306.171,1224.57 L304.989,1225.22 L304.342,1225.62 L303.507,1226.17 L302.979,1226.55 L302.384,1227.02 L301.637,1227.62 L301.083,1228.11 L300.421,1228.7 L299.823,1229.28 L299.143,1229.95 L298.399,1230.76 L298.07,1231.16 L297.6,1231.7 L297.101,1232.34 L296.617,1232.98 L296.168,1233.6 L295.725,1234.28 L295.407,1234.78 L294.992,1235.46 L294.499,1236.32 L293.578,1238.08 L293.038,1238.99 L292.274,1240.12 L291.862,1240.67 L291.483,1241.13 L290.582,1242.11 L289.841,1242.82 L289.266,1243.33 L288.414,1244.03 L287.773,1244.52 L287.014,1245.04 L286.265,1245.52 L285.637,1245.86 L285.016,1246.17 L284.182,1246.53 L283.587,1246.76 L282.849,1247.01 L282.046,1247.26 L281.478,1247.41 L280.783,1247.57 L280.127,1247.71 L279.506,1247.82 L278.862,1247.9 L276.794,1248.07 L275.889,1248.12 L274.618,1248.17 L272.791,1247.89 L268.819,1246.4 L268.345,1246.26 L263.148,1244.7 L260.418,1240.89 L255.873,1237.65 L253.464,1237.3 L251.226,1236.97 L250.48,1237.04 L248.893,1235.29 L248.811,1235.23 L248.572,1235.17 L248.33,1235.08 L247.668,1234.82 L247.411,1234.73 L247.096,1234.57 L246.789,1234.43 L246.439,1234.22 L246.101,1233.98 L245.911,1233.78 L245.707,1233.54 L245.483,1233.21 L245.348,1233.02 L245.255,1232.82 L245.188,1232.63 L245.153,1232.36 L245.103,1231.79 L245.057,1231.33 L245.033,1231.16 L244.99,1231.03 L244.92,1230.9 L244.829,1230.8 L244.701,1230.71 L244.415,1230.55 L244.117,1230.37 L243.805,1230.11 L243.595,1229.89 L243.406,1229.66 L243.146,1229.24 L242.799,1228.65 L242.779,1228.58 L242.714,1228.45 L242.601,1228.31 L242.463,1228.23 L242.335,1228.22 L242.16,1228.24 L242.02,1228.29 L241.854,1228.39 L241.723,1228.47 L241.381,1228.63 L240.97,1228.79 L240.489,1228.97 L240.282,1228.98 L240.109,1228.97 L239.94,1228.92 L239.73,1228.82 L239.596,1228.71 L239.377,1228.47 L238.951,1227.95 L238.779,1227.79 L238.552,1227.65 L238.35,1227.58 L238.149,1227.53 L237.939,1227.52 L237.758,1227.53 L238.105,1227.03 L238.307,1226.7 L238.508,1226.31 L238.636,1225.99 L238.788,1225.62 L238.919,1225.2 L239.036,1224.74 L239.118,1224.31 L239.252,1223.82 L239.342,1223.35 L239.386,1222.88 L239.409,1222.6 L239.406,1222.1 L239.363,1221.64 L239.383,1220.96 L239.476,1220.22 L239.622,1219.51 L239.803,1218.87 L239.996,1218.35 L240.182,1217.91 L240.468,1217.33 L240.795,1216.8 L241.011,1216.37 L241.346,1215.82 L241.603,1215.46 L241.924,1215.08 L242.417,1214.57 L242.898,1214.18 L243.438,1213.96 L244.529,1213.57 L245.544,1213.28 L248.203,1212.61 L247.538,1209.85 L246.466,1207.9 L244.088,1204.22 L243.312,1202.99 L242.959,1202.43 L240.671,1198.82 L226.484,1197.05 L224.544,1192.08 L221.612,1190.18 L217.021,1187.23 L214.349,1185.51 L212.024,1184.02 L209.66,1182.5 L211.616,1176.36 L213.741,1169.7 L208.872,1168.25 L205.456,1161.07 L199.871,1156.9 L192.44,1157.59 L191.91,1157.22 L185.253,1157.89 L183.709,1156.48 L184.267,1153.09 L178.473,1149.61 L180.612,1145.73 L181.122,1144.81 L184.774,1142.26 L186.007,1139.78 L185.649,1139.37 L185.447,1139.07 L185.262,1138.75 L185.136,1138.49 L184.998,1138.13 L184.889,1137.76 L184.887,1137.33 L184.906,1137.01 L184.957,1136.67 L185.007,1136.42 L185.097,1136.09 L185.184,1135.82 L185.324,1135.49 L185.445,1135.22 L185.635,1134.9 L185.766,1134.63 L185.843,1134.37 L185.912,1134.11 L185.964,1133.76 L185.974,1133.42 L185.956,1133.16 L185.595,1132.53 L185.4,1132.24 L185.176,1131.95 L184.924,1131.66 L184.646,1131.42 L184.432,1131.2 L184.091,1130.82 L183.79,1130.41 L183.58,1130.03 L182.934,1128.19 L182.442,1126.85 L182.115,1126.03 L182.061,1125.87 L181.903,1125.28 L181.769,1124.88 L181.555,1124.35 L181.345,1123.9 L181.122,1123.5 L180.935,1123.21 L180.704,1122.88 L179.191,1122.12 L177.827,1121.46 L177.213,1121.16 L176.468,1120.85 L176.122,1120.72 L175.185,1120.39 L174.724,1120.27 L174.199,1120.13 L173.786,1120.04 L173.493,1119.98 L173.183,1119.96 L172.936,1119.97 L172.666,1120 L172.441,1120.04 L172.176,1120.13 L171.945,1120.23 L171.717,1120.35 L171.53,1120.47 L171.301,1120.65 L171.091,1120.78 L170.772,1120.95 L170.498,1121.09 L170.167,1121.21 L169.86,1121.29 L169.638,1121.34 L167.896,1121.06 L166.449,1118.72 L164.679,1120.17 L161.797,1122.54 L159.954,1122.24 L157.729,1121.05 L155.951,1120.04 L154.956,1119.49 L154.281,1119.17 L153.956,1119.02 L152.912,1118.61 L151.201,1118.17 L150.164,1118.01 L149.954,1117.98 L149.748,1117.94 L149.491,1117.85 L149.304,1117.74 L149.126,1117.61 L148.984,1117.48 L148.869,1117.34 L148.717,1117.12 L148.46,1116.71 L148.297,1116.45 L148.149,1116.26 L147.959,1116.06 L147.774,1115.91 L147.527,1115.75 L147.336,1115.66 L146.907,1115.49 L146.706,1115.44 L146.518,1115.35 L146.339,1115.25 L146.154,1115.09 L146.022,1114.95 L145.635,1114.4 L145.399,1114.08 L145.131,1113.82 L144.853,1113.62 L143.544,1112.74 L143.422,1112.68 L143.299,1112.69 L143.218,1112.73 L142.79,1113.15 L142.463,1113.51 L142.119,1113.82 L141.693,1114.15 L141.238,1114.44 L140.759,1114.69 L140.369,1114.79 L140.797,1112.18 L145.272,1106.02 L143.738,1103.11 L141.298,1095.43 L136.627,1092.06 L134.014,1091.68 L129.756,1086 L121.784,1087.21 L121.643,1087.04 L114.786,1088.13 L109.352,1086.72 L106.436,1086.58 L105.171,1086.16 L104.087,1086.02 L102.989,1086.22 L101.482,1087.73 L98.3806,1087.74 L96.6882,1087.35 L95.4894,1087.57 L93.8996,1089.3 L93.1722,1089.24 L90.2671,1087.76 L86.2256,1087.76 L82.6028,1068.82 L81.9769,1058.8 L78.6574,1049.43 L73.568,1044.03 L65.594,1038.03 L58.9538,1031.67 L58.5212,1028.59 L58.5959,1028.54 L63.3409,1025.54 L61.3493,1019.58 L60.2785,1012.24 L60.225,1004.06 L62.8361,996.908 L69.3465,983.399 L76.7986,970.873 L98.7618,940.994 L108.205,929.773 L112.911,922.363 L115.049,917.002 L119.831,914.551 L126.508,913.977 L129.193,914.529 L133.018,917.602 L141.681,918.063 L143.754,913.594 L144.224,909.2 L148.063,906.366 L156.904,908.031 L169.53,914.678 L175.791,915.701 L181.158,911.187 L184.815,906.555 L194.799,899.148 L201.568,893.014 L206.267,889.036 L207.992,886.414 L209.079,885.203 L209.007,877.613 L210.083,865.658 L221.799,846.419 L232.471,840.73 L239.361,840.669 L240.795,840.653 L251.994,850.901 L260.853,863.995 L267.372,882.658 L269.836,893.053 L270.678,896.612 L271.894,900.569 L275.883,902.918 L273.159,907.731 L275.163,911.698 L279.151,913.263 L285.887,911.994 L296.21,913.103 L312.518,917.742 L322.083,922.838 L326.568,929.484 L333.481,915.749 L340.527,911.771 L347.026,910.797 L352.104,911.54 L353.946,912.625 L355.325,914.668 L355.332,925.104 L357.905,935.934 L364.946,947.9 L378.084,958.48 L390.474,963.766 L394.367,965.47 L400.916,968.454 L411.275,973.973 L426.609,983.797 L436.263,984.196 L444.404,975.253 L446.464,966.788 L450.367,960.759 L462.625,960.108 L469.965,954.083 L477.495,951.017 L478.412,950.375 L480.133,947.838 L481.511,947.504 L483.31,948.313 L484.776,948.614 L486.507,948.674 L488.26,948.861 L489.465,949.132 L491.014,949.165 L492.441,949.326 L495.996,949.534 L497.91,949.184 L502.33,950.53 L503.51,951.174 L506.487,952.325 L508.413,952.087 L511.515,945.274 L511.513,944.247 L510.931,942.465 L509.727,941.396 L509.412,940.326 L510.058,938.514 L511.464,937.377 L512.665,936.546 L513.098,934.463 L513.998,931.634 L514.097,930.148 L513.324,926.316 L513.526,925.211 L514.059,924.268 L515.084,923.082 L515.62,922.282 L515.425,921.176 L514.714,920.607 L514.238,919.295 L515.061,917.618 L516.738,915.558 L519.872,914.683 L520.749,913.45 L520.871,911.796 L536.975,927.812 L555.521,940.098 L573.124,953.599 L586.755,964.765 L607.466,979.933 L626.253,992.471 L643.217,1002.58 L658.34,1007.11 L672.669,1004.54 L687.069,1000.74 L699.479,1001.31 L715.34,1001.06 L723.958,993.661 L737.703,979.834 L759.068,976.236 L776.641,973.211 L788.291,970.564 L800.447,969.533 L817.399,973.932 L829.241,969.998 L847.332,967.607 L868.774,970.408 L885.86,981.52 L889.177,993.527 L890.097,1010 L890.587,1013.42 L891.911,1022.59 L893.197,1025.77 L895.967,1032.6 L902.54,1037.36 L912.47,1050.63 L924.016,1059.82 L1423.14,1231.34 L1598.15,1291.83 L1668.81,1316.33 L1761.75,1348.63 L1842.56,1376.73 L1890.4,1393.41 L2197.84,1500.88 L2203.64,1502.89 L2309.49,1541.23 L2339.5,1552.11 L2463.53,1597.17 L2562.07,1633.05 L2766.55,1707.7 L2815.38,1725.54 L2862.39,1741.35 L2903.87,1755.23 L2897.66,1757.19 L2867.78,1766.61 L2854.65,1770.63 L2835.7,1776.45 L2796.05,1788.08 L2782.75,1791.99 L2722.44,1809.87 L2686.34,1821.06 L2628.29,1839.06 L2522.85,1870.54 L2521.11,1871.06 L2458.2,1890.58 L2457.9,1890.68 L2420.88,1902.83 L2344.03,1925 L2313.29,1933.86 L2230.84,1958.33 L2116.29,1992.18 L2042.98,2014.43 L1986.74,2031.49 L1922.72,2050.81 L1825.27,2080.21 L1740.99,2104.72 L1730.14,2092.99" vector-effect="none"/>
  </g>
  <g fill="none" font-weight="400" stroke-opacity="1" stroke-linejoin="bevel" stroke-linecap="square" font-size="34.5833" font-style="normal" transform="matrix(0.999744,0,0,0.999744,0,0)" stroke="#000000" font-family="MS Shell Dlg 2" stroke-width="1"/>
  <g fill="none" font-weight="400" stroke-opacity="1" stroke-linejoin="bevel" stroke-linecap="square" font-size="34.5833" font-style="normal" transform="matrix(11.808,0,0,11.808,0,0)" stroke="#000000" font-family="MS Shell Dlg 2" stroke-width="1"/>
  <g fill="none" font-weight="400" stroke-opacity="1" stroke-linejoin="bevel" stroke-linecap="square" font-size="34.5833" font-style="normal" transform="matrix(11.808,0,0,11.808,0,0)" stroke="#000000" font-family="MS Shell Dlg 2" stroke-width="1"/>
  <g fill="none" font-weight="400" stroke-opacity="1" stroke-linejoin="bevel" stroke-linecap="square" font-size="34.5833" font-style="normal" transform="matrix(11.808,0,0,11.808,0,0)" stroke="#000000" font-family="MS Shell Dlg 2" stroke-width="1"/>
  <g fill="none" font-weight="400" stroke-opacity="1" stroke-linejoin="bevel" stroke-linecap="square" font-size="34.5833" font-style="normal" transform="matrix(1,0,0,1,0,0)" stroke="#000000" font-family="MS Shell Dlg 2" stroke-width="1"/>
  <g fill="none" font-weight="400" stroke-opacity="1" stroke-linejoin="bevel" stroke-linecap="square" font-size="34.5833" font-style="normal" transform="matrix(11.808,0,0,11.808,0,0)" stroke="#000000" font-family="MS Shell Dlg 2" stroke-width="1"/>
  <g fill="none" font-weight="400" stroke-opacity="1" stroke-linejoin="bevel" stroke-linecap="square" font-size="34.5833" font-style="normal" transform="matrix(11.808,0,0,11.808,0,0)" stroke="#000000" font-family="MS Shell Dlg 2" stroke-width="1"/>
  <g fill="none" font-weight="400" stroke-opacity="1" stroke-linejoin="bevel" stroke-linecap="square" font-size="34.5833" font-style="normal" transform="matrix(11.808,0,0,11.808,0,0)" stroke="#000000" font-family="MS Shell Dlg 2" stroke-width="1"/>
  <g fill="none" font-weight="400" stroke-opacity="1" stroke-linejoin="bevel" stroke-linecap="square" font-size="34.5833" font-style="normal" transform="matrix(11.808,0,0,11.808,0,0)" stroke="#000000" font-family="MS Shell Dlg 2" stroke-width="1"/>
  <g fill="none" font-weight="400" stroke-opacity="1" stroke-linejoin="bevel" stroke-linecap="square" font-size="34.5833" font-style="normal" transform="matrix(1,0,0,1,0,0)" stroke="#000000" font-family="MS Shell Dlg 2" stroke-width="1"/>
 </g>
</svg>
