<?xml version='1.0' encoding='UTF-8' standalone='no'?>
<svg xmlns:xlink="http://www.w3.org/1999/xlink" width="249.936mm" height="249.936mm" viewBox="0 0 2952 2952" xmlns="http://www.w3.org/2000/svg" version="1.2" baseProfile="tiny">
 <title>Qt SVG Document</title>
 <desc>Generated with Qt</desc>
 <defs/>
 <g fill="none" fill-rule="evenodd" stroke-linejoin="bevel" stroke-linecap="square" stroke="black" stroke-width="1">
  <g fill="none" font-weight="400" stroke-opacity="1" stroke-linejoin="bevel" stroke-linecap="square" font-size="34.5833" font-style="normal" transform="matrix(1,0,0,1,0,0)" stroke="#000000" font-family="MS Shell Dlg 2" stroke-width="1"/>
  <g fill="none" font-weight="400" stroke-opacity="1" stroke-linejoin="bevel" stroke-linecap="square" font-size="34.5833" font-style="normal" transform="matrix(1,0,0,1,0,0)" stroke="#000000" font-family="MS Shell Dlg 2" stroke-width="1"/>
  <g fill="none" font-weight="400" stroke-opacity="1" stroke-linejoin="bevel" stroke-linecap="square" font-size="34.5833" font-style="normal" transform="matrix(11.808,0,0,11.808,0,0)" stroke="#000000" font-family="MS Shell Dlg 2" stroke-width="1"/>
  <g fill="none" font-weight="400" stroke-opacity="1" stroke-linejoin="bevel" stroke-linecap="square" font-size="34.5833" font-style="normal" transform="matrix(0.999744,0,0,0.999744,0,0)" stroke="#000000" font-family="MS Shell Dlg 2" stroke-width="1"/>
  <g fill="#ffffff" font-weight="400" fill-opacity="0" font-size="34.5833" font-style="normal" transform="matrix(0.999744,0,0,0.999744,0,0)" stroke="none" font-family="MS Shell Dlg 2">
   <path fill-rule="evenodd" d="M-2,-2 L2955,-2 L2955,2955 L-2,2955 L-2,-2" vector-effect="none"/>
  </g>
  <g fill="none" font-weight="400" stroke-opacity="1" stroke-linejoin="bevel" stroke-linecap="square" font-size="34.5833" font-style="normal" transform="matrix(0.999744,0,0,0.999744,0,0)" stroke="#000000" font-family="MS Shell Dlg 2" stroke-width="1"/>
  <g fill="none" font-weight="400" stroke-opacity="1" stroke-linejoin="bevel" stroke-linecap="square" font-size="34.5833" font-style="normal" transform="matrix(11.808,0,0,11.808,0,0)" stroke="#000000" font-family="MS Shell Dlg 2" stroke-width="1"/>
  <g fill="none" font-weight="400" stroke-opacity="1" stroke-linejoin="bevel" stroke-linecap="square" font-size="34.5833" font-style="normal" transform="matrix(11.808,0,0,11.808,0,0)" stroke="#000000" font-family="MS Shell Dlg 2" stroke-width="1"/>
  <g fill="none" font-weight="400" stroke-opacity="1" stroke-linejoin="bevel" stroke-linecap="square" font-size="34.5833" font-style="normal" transform="matrix(11.808,0,0,11.808,0,0)" stroke="#000000" font-family="MS Shell Dlg 2" stroke-width="1"/>
  <g fill="none" font-weight="400" stroke-opacity="1" stroke-linejoin="bevel" stroke-linecap="square" font-size="34.5833" font-style="normal" transform="matrix(11.808,0,0,11.808,0,0)" stroke="#000000" font-family="MS Shell Dlg 2" stroke-width="1"/>
  <g fill="none" font-weight="400" stroke-opacity="1" stroke-linejoin="bevel" stroke-linecap="square" font-size="34.5833" font-style="normal" transform="matrix(11.808,0,0,11.808,0,0)" stroke="#000000" font-family="MS Shell Dlg 2" stroke-width="1"/>
  <g fill="#ffffff" font-weight="400" fill-opacity="0" font-size="34.5833" font-style="normal" transform="matrix(11.808,0,0,11.808,0,0)" stroke="none" font-family="MS Shell Dlg 2">
   <path fill-rule="evenodd" d="M0,0 L250,0 L250,250 L0,250 L0,0" vector-effect="none"/>
  </g>
  <g fill="none" font-weight="400" stroke-opacity="1" stroke-linejoin="bevel" stroke-linecap="square" font-size="34.5833" font-style="normal" transform="matrix(11.808,0,0,11.808,0,0)" stroke="#000000" font-family="MS Shell Dlg 2" stroke-width="1"/>
  <g fill="none" font-weight="400" stroke-opacity="1" stroke-linejoin="bevel" stroke-linecap="square" font-size="34.5833" font-style="normal" transform="matrix(11.808,0,0,11.808,0,0)" stroke="#000000" font-family="MS Shell Dlg 2" stroke-width="1"/>
  <g fill="#000000" font-weight="400" fill-opacity="0" font-size="34.5833" font-style="normal" transform="matrix(0.999744,0,0,0.999744,0,0)" stroke="none" font-family="MS Shell Dlg 2">
   <rect width="2953" height="2953" x="0" y="0"/>
  </g>
  <g fill="none" font-weight="400" stroke-opacity="1" stroke-linejoin="bevel" stroke-linecap="square" font-size="34.5833" font-style="normal" transform="matrix(0.999744,0,0,0.999744,0,0)" stroke="#000000" font-family="MS Shell Dlg 2" stroke-width="1"/>
  <g fill="#c5c5c5" font-weight="400" fill-opacity="1" stroke-opacity="1" stroke-linejoin="bevel" stroke-linecap="square" font-size="34.5833" font-style="normal" transform="matrix(0.999744,0,0,0.999744,0,0)" stroke="#5c5c5c" font-family="MS Shell Dlg 2" stroke-width="3.07087">
   <path fill-rule="evenodd" d="M572.133,2693.63 L571.768,2691.78 L570.121,2685.41 L569.656,2683.63 L568.419,2676.94 L567.064,2669.03 L566.062,2663.44 L565.248,2658.02 L564.271,2652.12 L564.089,2651.03 L562.683,2646.79 L559.806,2638.42 L558.979,2635.56 L558.17,2632.57 L556.653,2628.22 L553.195,2620.27 L551.687,2613.51 L551.269,2611.62 L550.102,2605.01 L546.963,2596.82 L542.4,2586.26 L539.564,2577.42 L539.054,2575.83 L538.758,2564.9 L538.282,2552.74 L536.673,2541.48 L535.289,2529.44 L534.354,2520.69 L532.847,2508.54 L532.105,2494.53 L531.207,2482.98 L529.869,2467.27 L528.99,2457.65 L528.01,2445.63 L527.507,2430.71 L530.033,2417.14 L531.551,2408.91 L532.832,2398.19 L534.166,2388.99 L536.65,2371.47 L537.485,2364.33 L537.357,2356.33 L534.708,2350.09 L531.368,2340.62 L530.586,2329.3 L529.968,2317.74 L529.704,2313.39 L529.666,2306.09 L529.342,2294.29 L529.156,2287.03 L528.644,2277.83 L527.12,2265.05 L526.328,2253.61 L526.394,2245.33 L527.07,2237.53 L527.939,2228.55 L528.541,2215.91 L527.651,2205.67 L524.34,2194.59 L522.213,2186.17 L520.676,2177.14 L517.426,2165.04 L513.441,2152 L510.715,2142.27 L506.474,2127.86 L503.932,2116.39 L501.853,2103.25 L498.781,2091.39 L494.144,2077.73 L490.185,2067.97 L485.467,2057.38 L481.664,2050.48 L470.955,2033.26 L459.068,2013.81 L458.13,2012.26 L455.061,2006.45 L448.482,1998.09 L439.717,1987.81 L432.921,1979.24 L426.165,1972.04 L417.084,1960.68 L412.791,1953.26 L410.684,1949.76 L405.508,1944.71 L396.521,1936.22 L389.783,1931.36 L383.274,1925.26 L376.716,1913.93 L370.552,1900.31 L366.772,1888.14 L363.429,1876.77 L359.454,1865.08 L356.026,1857.02 L350.883,1849.01 L346.3,1841.53 L342.352,1834.38 L338.091,1826.13 L335.763,1822.36 L333.178,1820.8 L325.853,1819.18 L317.741,1818.04 L313.084,1816.6 L305.387,1814.48 L294.888,1813.39 L283.492,1812.99 L268.993,1811.93 L249.013,1810.58 L234.302,1811.24 L222.391,1813.11 L207.49,1814.14 L195.3,1814.24 L186.29,1813.26 L175.762,1813.78 L157.481,1814.18 L140.863,1813.14 L115.178,1811.41 L102.654,1810.01 L90.5039,1809.15 L93.1729,1803.82 L99.2693,1789.07 L99.4252,1776.67 L103.209,1765.92 L107.185,1753.1 L110.607,1741.82 L112.888,1733.42 L113.949,1719.8 L114.328,1714.97 L112.721,1708.83 L107.473,1696.76 L104.931,1691.14 L102.78,1684.95 L102.695,1678.95 L105.48,1670.72 L110.95,1664.66 L119.533,1658.07 L127.389,1651.65 L136.763,1641.51 L144.891,1633.07 L150.507,1625.35 L155.329,1618.42 L156.438,1616.43 L161.334,1607.67 L161.919,1606.61 L163.325,1603.7 L167.626,1594.82 L174.375,1585.86 L180.898,1580.17 L185.761,1573.97 L188.308,1569.37 L205.544,1535.27 L211.715,1519.85 L214.538,1503.52 L216.27,1486.71 L215.953,1476.17 L213.847,1467.39 L213.46,1466 L211.155,1457.76 L209.011,1451.89 L202.049,1437.87 L195.244,1429.73 L188.282,1420.76 L186.548,1417.65 L183.436,1412.11 L181.914,1402.57 L182.74,1397.01 L192.062,1379.18 L195.662,1368.68 L196.361,1359.77 L195.844,1351.3 L196.115,1338.08 L197.154,1327.74 L198.311,1311.65 L199.835,1300.68 L202.375,1293.06 L206.324,1284.41 L211.518,1279.73 L219.188,1276.33 L230.774,1271.84 L241.533,1264.74 L250.047,1256.48 L253.187,1250.14 L254.814,1241.86 L254.687,1230.79 L251.081,1220.35 L246.17,1210.68 L242.848,1202.52 L242.094,1200.66 L242.688,1192.35 L248.091,1181.33 L256.363,1167.24 L263.872,1155.32 L272.434,1144.49 L277.963,1131.63 L279.79,1117.28 L280.639,1103.49 L280.797,1090.17 L280.824,1082.92 L279.415,1061.08 L280.524,1036.78 L280.909,1028.38 L282.644,1028.41 L295.99,1029.25 L306.846,1029.97 L313.371,1031.47 L318.876,1032.73 L330.481,1037.31 L340.265,1040.84 L358.899,1041.29 L379.302,1041.05 L402.531,1040.73 L411.296,1044.85 L415.275,1052.26 L418.355,1057.56 L425.761,1060.42 L435.934,1059.44 L444.889,1055.18 L452.192,1050.92 L457.411,1048.38 L465.955,1050.3 L471.6,1051.98 L476.172,1048.49 L476.14,1043.51 L474.951,1036.97 L477.093,1031.15 L484.174,1026.75 L494.093,1025.99 L519.782,1025.05 L562.262,1024.86 L575.46,1025.59 L583.215,1028.45 L603.671,1027.84 L616.75,1026.92 L620.811,1020.55 L624.92,1009.05 L631.361,995.186 L668.65,996.389 L687.884,996.036 L723.804,999.657 L765.627,1001.67 L794.969,1003.07 L799.341,993.022 L801.751,988.511 L809.018,969.428 L813.717,952.022 L820.425,932.744 L827.955,915.241 L836.114,897.995 L843.247,883.064 L853.793,860.328 L866.132,832.677 L876.505,806.188 L884.577,787.89 L886.169,784.391 L888.041,780.176 L892.264,770.063 L898.096,755.422 L902.051,744.608 L905.554,732.622 L908.967,722.166 L912.626,713.591 L921.367,693.092 L927.473,676.686 L934.807,658.897 L950.033,624.93 L953.406,617.488 L955.052,613.952 L958.976,605.513 L961.8,598.884 L975.535,573.774 L980.326,562.187 L983.244,553.03 L989.68,540.062 L990.315,538.726 L999.882,518.207 L1011.16,498.086 L1028.17,465.482 L1030.52,455.231 L1031.01,449.46 L1030.58,447.007 L1028.21,442.268 L1023.14,436.911 L1007.86,423.736 L1001.12,417.019 L993.214,407.503 L951.11,362.233 L941.484,350.045 L939.717,346.091 L939.908,341.301 L939.631,334.981 L939.731,322.422 L941.048,308.574 L942.149,294.927 L943.273,280.171 L942.149,272.446 L940.915,263.438 L1019.4,262.481 L1161.55,260.913 L1518.18,257.688 L1627.39,256.924 L1942.02,255.266 L2095.91,254.763 L2098.89,258.242 L2104.27,264.528 L2106.89,268.507 L2106.89,268.52 L2110.32,271.696 L2112.44,274.057 L2115.32,277.575 L2119.53,282.37 L2123.68,287.274 L2130.08,294.6 L2134.28,299.589 L2138.34,304.383 L2143.45,310.321 L2149.99,317.693 L2156.39,325.261 L2161.54,331.294 L2166.65,337.218 L2172.15,343.665 L2177.49,349.795 L2182.12,355.159 L2187.05,361.033 L2192.16,366.907 L2196.21,371.54 L2201.89,378.241 L2207.82,385.147 L2211.52,389.342 L2214.55,393.026 L2218.75,397.816 L2224.65,404.588 L2231.28,412.368 L2237.64,419.734 L2243.03,426.067 L2249.07,433.25 L2252.56,437.468 L2256.42,441.892 L2260.95,447.093 L2266.43,453.351 L2270.49,458.139 L2274.25,462.513 L2277.84,466.584 L2283.23,472.914 L2287.82,478.272 L2293.36,484.699 L2296.75,488.72 L2300.14,492.68 L2303.45,496.664 L2306.34,499.883 L2309.66,503.977 L2313.26,507.961 L2317.52,512.856 L2320.47,516.402 L2323.48,519.851 L2327.97,525.256 L2331.07,528.753 L2334.87,533.258 L2338.43,537.399 L2341.68,541.151 L2346.31,546.555 L2350.7,551.751 L2354.28,555.916 L2358.96,561.476 L2364.45,567.741 L2376.3,580.123 L2384.71,590.221 L2389.76,595.27 L2395.93,602.006 L2403.22,610.975 L2410.84,619.252 L2416.14,625.002 L2427.78,636.541 L2432.89,642.194 L2438.45,648.889 L2440.04,650.796 L2445.57,656.97 L2452.72,665.452 L2458.46,672.278 L2462.95,677.251 L2469.61,684.867 L2476.16,692.486 L2480.04,697.006 L2483.82,701.153 L2487.96,706.127 L2489.71,708.234 L2496.02,715.546 L2501.84,722.352 L2502.53,723.16 L2511.92,733.707 L2516.47,739.137 L2525.52,749.537 L2530.34,755.186 L2533.82,759.093 L2535.04,760.458 L2541.34,767.766 L2549.54,777.339 L2562.15,791.868 L2570,800.979 L2577.22,808.963 L2581.07,813.409 L2585.97,818.981 L2589.34,822.748 L2594.6,828.998 L2599.07,834.267 L2604.04,840.141 L2606.93,843.533 L2610.57,847.82 L2615.4,853.088 L2619.32,857.835 L2621.98,862.121 L2622.74,863.575 L2623.74,865.512 L2625.28,868.89 L2627.59,873.104 L2636.07,885.223 L2640.97,892.076 L2646.79,900.126 L2652.96,907.207 L2658.82,914.179 L2664.66,921.029 L2670.63,928.569 L2676.37,935.068 L2682.11,941.917 L2687.86,948.657 L2692.97,954.695 L2697.65,960.491 L2702.12,965.366 L2707.22,971.984 L2713.82,979.871 L2721.06,987.758 L2727.33,995.306 L2732.97,1002.38 L2740.85,1011.66 L2748.19,1020.47 L2752.98,1026.16 L2757.45,1031.26 L2761.6,1036.25 L2766.91,1042.63 L2772.77,1049.82 L2779.26,1057.36 L2786.28,1066.17 L2792.77,1073.83 L2802.24,1084.84 L2807.13,1090.98 L2815.76,1100.95 L2818.73,1104.89 L2829.59,1117.98 L2839.48,1129.46 L2849.59,1141.4 L2853.31,1146.04 L2858.82,1152.48 L2858.95,1152.63 L2859.16,1152.9 L2866.51,1161.91 L2870.71,1166.81 L2872.46,1168.85 L2877.06,1174.45 L2880.55,1178.71 L2881.76,1180.16 L2881.8,1180.21 L2879.59,1181.43 L2877.98,1182.33 L2874.77,1184.21 L2871.39,1186.1 L2867.87,1188.14 L2863.21,1190.84 L2859.2,1193.21 L2855.64,1195.34 L2851.35,1197.71 L2846.84,1200.42 L2835.01,1207.29 L2832.44,1208.64 L2828.01,1211.35 L2823.9,1213.71 L2818.58,1216.72 L2811.95,1220.58 L2809.1,1222.17 L2804.54,1224.88 L2798.94,1228.22 L2794.61,1230.54 L2789.73,1233.49 L2782.61,1237.51 L2778.45,1239.92 L2773.36,1242.86 L2771.41,1244.02 L2766.99,1246.64 L2764.73,1247.95 L2760.89,1250.17 L2757.82,1252 L2753.67,1254.32 L2750.15,1256.45 L2746.41,1258.58 L2741.53,1261.43 L2738.1,1263.31 L2732.55,1266.55 L2729.07,1268.63 L2723.84,1271.62 L2720.13,1273.75 L2714.86,1276.85 L2712.33,1278.25 L2707.95,1280.9 L2705.78,1282.11 L2703.84,1283.22 L2702.72,1283.89 L2696.79,1287.28 L2692.56,1289.75 L2686.1,1293.51 L2681.18,1296.37 L2675.77,1299.55 L2672.29,1301.58 L2669.26,1303.37 L2664.75,1305.98 L2660.69,1308.3 L2655.95,1311.1 L2652.29,1313.17 L2649.18,1314.96 L2645.3,1317.19 L2641.37,1319.55 L2637.35,1321.77 L2633.56,1324.04 L2629.64,1326.37 L2624.58,1329.17 L2536.74,1382.86 L2536.14,1384.2 L2515.32,1430.71 L2509.63,1443.41 L2505.17,1453.35 L2456.89,1568.43 L2418.83,1661.61 L2383.55,1741.84 L2382.1,1744.98 L2364.19,1783.99 L2364.08,1784.23 L2319.23,1794.4 L2255.09,1806.8 L2213.71,1815.25 L2190.16,1819.64 L2159.97,1825.28 L2101.76,1837.16 L2070.55,1843.23 L2041.32,1849.3 L1992.52,1859.34 L1977.41,1862.23 L1898.65,1878.33 L1883.29,1881.23 L1852.59,1887.65 L1823.34,1893.37 L1773.57,1903.92 L1724.77,1913.15 L1694.79,1919.74 L1657.88,1926.87 L1616.52,1935.3 L1587.79,1941.1 L1581.1,1952.44 L1559.3,1990.41 L1538.49,2024.93 L1520.17,2056.02 L1502.82,2086.58 L1488.47,2111.87 L1476.07,2132.14 L1461.71,2156.62 L1436.69,2198.73 L1422.08,2223.99 L1410.19,2243.72 L1398.54,2264.49 L1376.01,2301.57 L1359.66,2328.92 L1349.5,2345.99 L1337.86,2364.65 L1328.69,2382.52 L1325.5,2385.2 L1319.42,2390.28 L1315.15,2393.85 L1310.15,2398.04 L1304.74,2402.56 L1298.98,2407.38 L1293.95,2411.59 L1288.78,2415.91 L1283.89,2420 L1278.29,2424.69 L1274.26,2428.06 L1270.82,2430.94 L1267.34,2433.84 L1263.54,2437.02 L1259.18,2440.67 L1254.48,2444.6 L1250.71,2447.75 L1245.58,2452.04 L1240.42,2456.36 L1236.48,2459.66 L1230.36,2464.77 L1225.76,2468.62 L1221.2,2472.43 L1216.84,2476.07 L1212.51,2479.69 L1208.53,2483.02 L1202.27,2488.26 L1198,2491.82 L1193.69,2495.43 L1188.27,2499.96 L1182.73,2504.59 L1177.33,2509.1 L1173.86,2512.01 L1169.09,2515.99 L1163.85,2520.37 L1160.89,2522.84 L1156.83,2526.24 L1153.57,2528.96 L1150.35,2531.65 L1146.87,2534.55 L1142.99,2537.8 L1139.02,2541.12 L1135.29,2544.24 L1131.64,2547.28 L1126.97,2551.19 L1123.72,2553.9 L1119.7,2557.26 L1114.39,2561.7 L1109.35,2565.9 L1104.98,2569.56 L1101.22,2572.7 L1095.14,2577.78 L1089.82,2582.22 L1084.02,2587.06 L1079.14,2591.14 L1071.77,2597.3 L1063.31,2604.36 L970.832,2681.57 L966.974,2684.79 L962.213,2688.76 L958.201,2692.11 L955.353,2694.49 L951.361,2697.82 L948.417,2700.28 L945.865,2702.41 L943.327,2704.52 L939.88,2707.4 L936.293,2710.4 L933.264,2712.92 L928.373,2717 L924.214,2720.47 L920.82,2723.31 L916.246,2727.12 L913.428,2729.48 L910.609,2731.82 L907.273,2734.61 L904.26,2737.12 L901.09,2739.77 L897.159,2743.05 L894.008,2745.67 L891.543,2747.73 L886.996,2751.53 L883.147,2754.74 L880.206,2757.19 L877.477,2759.46 L869.277,2757.92 L863.077,2756.76 L854.958,2755.23 L851.258,2754.54 L842.532,2752.9 L838.055,2752.06 L830.741,2750.69 L825.02,2749.61 L822.045,2749.05 L818.145,2748.32 L815.189,2747.77 L811.658,2747.1 L805.949,2746.03 L796.358,2745.04 L783.706,2743.72 L773.175,2742.63 L768.343,2741.9 L759.81,2740.03 L733.339,2734.01 L723.782,2731.8 L714.499,2729.98 L708.638,2728.89 L708.008,2728.77 L697.872,2726.89 L664.274,2720.15 L643.339,2715.81 L627.554,2712.73 L618.72,2711.02 L610.677,2709.16 L598.336,2706.85 L589.825,2704.98 L581.303,2703.35 L574.113,2701.83 L573.11,2701.67 L572.774,2701.62 L572.832,2697.15 L572.133,2693.63" vector-effect="none"/>
  </g>
  <g fill="none" font-weight="400" stroke-opacity="1" stroke-linejoin="bevel" stroke-linecap="square" font-size="34.5833" font-style="normal" transform="matrix(0.999744,0,0,0.999744,0,0)" stroke="#000000" font-family="MS Shell Dlg 2" stroke-width="1"/>
  <g fill="none" font-weight="400" stroke-opacity="1" stroke-linejoin="bevel" stroke-linecap="square" font-size="34.5833" font-style="normal" transform="matrix(11.808,0,0,11.808,0,0)" stroke="#000000" font-family="MS Shell Dlg 2" stroke-width="1"/>
  <g fill="none" font-weight="400" stroke-opacity="1" stroke-linejoin="bevel" stroke-linecap="square" font-size="34.5833" font-style="normal" transform="matrix(11.808,0,0,11.808,0,0)" stroke="#000000" font-family="MS Shell Dlg 2" stroke-width="1"/>
  <g fill="none" font-weight="400" stroke-opacity="1" stroke-linejoin="bevel" stroke-linecap="square" font-size="34.5833" font-style="normal" transform="matrix(11.808,0,0,11.808,0,0)" stroke="#000000" font-family="MS Shell Dlg 2" stroke-width="1"/>
  <g fill="none" font-weight="400" stroke-opacity="1" stroke-linejoin="bevel" stroke-linecap="square" font-size="34.5833" font-style="normal" transform="matrix(1,0,0,1,0,0)" stroke="#000000" font-family="MS Shell Dlg 2" stroke-width="1"/>
  <g fill="none" font-weight="400" stroke-opacity="1" stroke-linejoin="bevel" stroke-linecap="square" font-size="34.5833" font-style="normal" transform="matrix(11.808,0,0,11.808,0,0)" stroke="#000000" font-family="MS Shell Dlg 2" stroke-width="1"/>
  <g fill="none" font-weight="400" stroke-opacity="1" stroke-linejoin="bevel" stroke-linecap="square" font-size="34.5833" font-style="normal" transform="matrix(11.808,0,0,11.808,0,0)" stroke="#000000" font-family="MS Shell Dlg 2" stroke-width="1"/>
  <g fill="none" font-weight="400" stroke-opacity="1" stroke-linejoin="bevel" stroke-linecap="square" font-size="34.5833" font-style="normal" transform="matrix(11.808,0,0,11.808,0,0)" stroke="#000000" font-family="MS Shell Dlg 2" stroke-width="1"/>
  <g fill="none" font-weight="400" stroke-opacity="1" stroke-linejoin="bevel" stroke-linecap="square" font-size="34.5833" font-style="normal" transform="matrix(11.808,0,0,11.808,0,0)" stroke="#000000" font-family="MS Shell Dlg 2" stroke-width="1"/>
  <g fill="none" font-weight="400" stroke-opacity="1" stroke-linejoin="bevel" stroke-linecap="square" font-size="34.5833" font-style="normal" transform="matrix(1,0,0,1,0,0)" stroke="#000000" font-family="MS Shell Dlg 2" stroke-width="1"/>
 </g>
</svg>
