<?xml version='1.0' encoding='UTF-8' standalone='no'?>
<svg xmlns:xlink="http://www.w3.org/1999/xlink" baseProfile="tiny" xmlns="http://www.w3.org/2000/svg" height="249.936mm" viewBox="0 0 2952 2952" width="249.936mm" version="1.2">
 <title>Qt SVG Document</title>
 <desc>Generated with Qt</desc>
 <defs/>
 <g stroke-width="1" fill-rule="evenodd" fill="none" stroke-linejoin="bevel" stroke-linecap="square" stroke="black">
  <g stroke-width="1" transform="matrix(1,0,0,1,0,0)" stroke-opacity="1" font-size="34.5833" fill="none" stroke-linejoin="bevel" font-style="normal" stroke-linecap="square" stroke="#000000" font-family="MS Shell Dlg 2" font-weight="400"/>
  <g stroke-width="1" transform="matrix(1,0,0,1,0,0)" stroke-opacity="1" font-size="34.5833" fill="none" stroke-linejoin="bevel" font-style="normal" stroke-linecap="square" stroke="#000000" font-family="MS Shell Dlg 2" font-weight="400"/>
  <g stroke-width="1" transform="matrix(11.808,0,0,11.808,0,0)" stroke-opacity="1" font-size="34.5833" fill="none" stroke-linejoin="bevel" font-style="normal" stroke-linecap="square" stroke="#000000" font-family="MS Shell Dlg 2" font-weight="400"/>
  <g stroke-width="1" transform="matrix(0.999744,0,0,0.999744,0,0)" stroke-opacity="1" font-size="34.5833" fill="none" stroke-linejoin="bevel" font-style="normal" stroke-linecap="square" stroke="#000000" font-family="MS Shell Dlg 2" font-weight="400"/>
  <g transform="matrix(0.999744,0,0,0.999744,0,0)" font-size="34.5833" fill-opacity="0" fill="#ffffff" font-style="normal" stroke="none" font-family="MS Shell Dlg 2" font-weight="400">
   <path fill-rule="evenodd" vector-effect="none" d="M-2,-2 L2955,-2 L2955,2955 L-2,2955 L-2,-2"/>
  </g>
  <g stroke-width="1" transform="matrix(0.999744,0,0,0.999744,0,0)" stroke-opacity="1" font-size="34.5833" fill="none" stroke-linejoin="bevel" font-style="normal" stroke-linecap="square" stroke="#000000" font-family="MS Shell Dlg 2" font-weight="400"/>
  <g stroke-width="1" transform="matrix(11.808,0,0,11.808,0,0)" stroke-opacity="1" font-size="34.5833" fill="none" stroke-linejoin="bevel" font-style="normal" stroke-linecap="square" stroke="#000000" font-family="MS Shell Dlg 2" font-weight="400"/>
  <g stroke-width="1" transform="matrix(11.808,0,0,11.808,0,0)" stroke-opacity="1" font-size="34.5833" fill="none" stroke-linejoin="bevel" font-style="normal" stroke-linecap="square" stroke="#000000" font-family="MS Shell Dlg 2" font-weight="400"/>
  <g stroke-width="1" transform="matrix(11.808,0,0,11.808,0,0)" stroke-opacity="1" font-size="34.5833" fill="none" stroke-linejoin="bevel" font-style="normal" stroke-linecap="square" stroke="#000000" font-family="MS Shell Dlg 2" font-weight="400"/>
  <g stroke-width="1" transform="matrix(11.808,0,0,11.808,0,0)" stroke-opacity="1" font-size="34.5833" fill="none" stroke-linejoin="bevel" font-style="normal" stroke-linecap="square" stroke="#000000" font-family="MS Shell Dlg 2" font-weight="400"/>
  <g stroke-width="1" transform="matrix(11.808,0,0,11.808,0,0)" stroke-opacity="1" font-size="34.5833" fill="none" stroke-linejoin="bevel" font-style="normal" stroke-linecap="square" stroke="#000000" font-family="MS Shell Dlg 2" font-weight="400"/>
  <g transform="matrix(11.808,0,0,11.808,0,0)" font-size="34.5833" fill-opacity="0" fill="#ffffff" font-style="normal" stroke="none" font-family="MS Shell Dlg 2" font-weight="400">
   <path fill-rule="evenodd" vector-effect="none" d="M0,0 L250,0 L250,250 L0,250 L0,0"/>
  </g>
  <g stroke-width="1" transform="matrix(11.808,0,0,11.808,0,0)" stroke-opacity="1" font-size="34.5833" fill="none" stroke-linejoin="bevel" font-style="normal" stroke-linecap="square" stroke="#000000" font-family="MS Shell Dlg 2" font-weight="400"/>
  <g stroke-width="1" transform="matrix(11.808,0,0,11.808,0,0)" stroke-opacity="1" font-size="34.5833" fill="none" stroke-linejoin="bevel" font-style="normal" stroke-linecap="square" stroke="#000000" font-family="MS Shell Dlg 2" font-weight="400"/>
  <g transform="matrix(0.999744,0,0,0.999744,0,0)" font-size="34.5833" fill-opacity="0" fill="#000000" font-style="normal" stroke="none" font-family="MS Shell Dlg 2" font-weight="400">
   <rect x="0" height="2953" width="2953" y="0"/>
  </g>
  <g stroke-width="1" transform="matrix(0.999744,0,0,0.999744,0,0)" stroke-opacity="1" font-size="34.5833" fill="none" stroke-linejoin="bevel" font-style="normal" stroke-linecap="square" stroke="#000000" font-family="MS Shell Dlg 2" font-weight="400"/>
  <g stroke-width="3.07087" transform="matrix(0.999744,0,0,0.999744,0,0)" stroke-opacity="1" font-size="34.5833" fill-opacity="1" fill="#c5c5c5" stroke-linejoin="bevel" font-style="normal" stroke-linecap="square" stroke="#5c5c5c" font-family="MS Shell Dlg 2" font-weight="400">
   <path fill-rule="evenodd" vector-effect="none" d="M1797.47,260.938 L1798.28,260.847 L1800.51,262.482 L1804.14,262.911 L1805.27,263.353 L1805.51,265.666 L1806.8,267.737 L1806.74,268.628 L1804.9,272.304 L1805.71,273.803 L1807.27,275.099 L1817.03,278.245 L1819.2,278.248 L1822.19,276.686 L1824.56,276.826 L1826.12,277.849 L1827.63,279.484 L1832.64,280.644 L1834.11,281.235 L1839.92,281.174 L1842.28,280.765 L1844.58,281.112 L1853.08,285.649 L1856.77,288.334 L1859.19,288.804 L1865.2,291.059 L1866.38,291.233 L1873.07,288.841 L1876.63,288.098 L1877.89,288.127 L1883.53,290.051 L1885.42,291.259 L1890.75,290.931 L1892.43,292.293 L1894.78,293.619 L1898.94,293.346 L1899.98,294.1 L1901.96,293.555 L1903.68,293.841 L1905.62,293.14 L1907.38,293.528 L1911.67,295.168 L1916.22,298.236 L1919.27,298.422 L1921.36,299.925 L1924.85,298.83 L1926.02,297.113 L1925.32,295.323 L1925.95,294.266 L1929.88,292.642 L1933.52,290.171 L1934.4,289.858 L1935.31,290.313 L1936.84,290.498 L1937.29,291.524 L1938.7,292.285 L1939.42,294.075 L1940.61,294.378 L1940.35,295.734 L1941.1,296.679 L1941.86,298.531 L1943.77,298.366 L1945.24,299.492 L1947.03,299.199 L1950.38,300.618 L1952.32,300.356 L1952.14,299.157 L1953.46,298.566 L1954.27,297.802 L1954.76,297.771 L1955.82,298.659 L1958.93,298.07 L1959.33,299.28 L1959.69,299.553 L1962.66,299.675 L1964.41,300.431 L1966.28,299.868 L1966.59,300.087 L1966.5,301.652 L1966.87,302.234 L1969.55,302.914 L1971.04,304.642 L1972.65,304.621 L1973.38,305.416 L1974.18,305.693 L1975.87,305.047 L1977.55,307.08 L1978.86,307.058 L1980.51,306.531 L1981.31,306.768 L1982.17,307.969 L1982.09,309.5 L1982.57,309.93 L1983.94,310.312 L1984.3,312.496 L1985.11,313.802 L1986.29,314.407 L1985.82,315.848 L1986.57,317.788 L1987.74,319.249 L1988.09,320.209 L1990.01,321.234 L1990.62,322.141 L1991.47,322.611 L1993.58,322.687 L1994.54,324.445 L1996.22,324.561 L1996.91,326.315 L1998.09,326.395 L1999.07,327.021 L2000.58,327.337 L2001.44,330.291 L2003.12,331.198 L2004.62,331.537 L2004.64,332.501 L2004.28,333.39 L2004.67,334.299 L2008,334.933 L2009.08,336.111 L2010.74,336.208 L2011.85,335.661 L2012.84,333.85 L2014.94,331.734 L2016.32,331.565 L2017.38,330.888 L2018.67,332.67 L2019.61,333.11 L2020.65,331.18 L2022.03,330.987 L2025.66,333.879 L2027.55,333.817 L2029.47,334.486 L2031.22,333.837 L2032.95,334.456 L2034.97,333.926 L2035.96,334.934 L2037.9,336.103 L2040.94,335.254 L2042.54,336.096 L2043.36,335.903 L2046.55,336.162 L2048.01,336.844 L2048.68,337.92 L2053.35,340.247 L2055.35,339.925 L2057.78,341.056 L2060.36,342.829 L2063.67,343.066 L2065.39,343.713 L2067.61,343.863 L2069.34,345.018 L2070.06,345.91 L2071.16,346.344 L2072.71,346.128 L2074.33,344.991 L2076.39,344.102 L2077.92,342.746 L2079.89,340.074 L2081,339.234 L2081.48,340.323 L2082.48,340.966 L2082.97,340.963 L2084.7,339.689 L2086.6,340.61 L2088.2,339.257 L2089.13,339.153 L2089.85,339.771 L2090.2,340.634 L2090.94,341.176 L2094.8,341.268 L2096.87,345.56 L2098.63,346.967 L2100.85,347.732 L2105.11,348.463 L2105.93,350.955 L2108.9,352.048 L2110.21,353.229 L2110.85,356.174 L2113.32,359.609 L2115.96,360.24 L2118.37,362.91 L2121.55,365.615 L2122.59,367.555 L2125.7,369.962 L2129.61,370.714 L2131.24,371.665 L2132.68,373.684 L2132.41,375.519 L2132.56,376.254 L2135.79,376.936 L2137.55,376.679 L2137.84,377.348 L2137.62,379.492 L2138.02,379.979 L2140.99,381.2 L2145.85,381.718 L2147.54,382.318 L2148.45,383.993 L2148.86,386.478 L2151.8,389.778 L2151.67,391.926 L2152.2,392.466 L2154.38,393.156 L2156.39,392.686 L2157.45,392.901 L2157.83,393.335 L2157.5,394.266 L2157.86,394.816 L2160.01,393.76 L2165.66,393.076 L2168.12,391.723 L2170.36,386.135 L2170.84,385.345 L2171.51,385.24 L2172.32,386.893 L2173.32,388.113 L2175.91,389.112 L2178.27,390.654 L2178.8,391.357 L2180.24,395.491 L2188.75,402.695 L2190.28,403.468 L2195.34,408.885 L2195.36,410.114 L2194.4,412.204 L2194.5,414.179 L2195.05,416.485 L2196.53,418.588 L2196.92,419.976 L2196.95,421.492 L2197.81,421.929 L2199.75,422.117 L2201.44,422.64 L2205.41,422.929 L2208.59,424.632 L2211,424.442 L2211.93,424.688 L2212.48,427.254 L2214.36,429.523 L2214.52,430.084 L2214.28,431.178 L2213.83,431.674 L2210.82,433.178 L2208.88,434.681 L2205.6,436.353 L2205.01,437.189 L2204.81,438.433 L2205.62,439.752 L2207.55,440.25 L2207.96,440.749 L2208.61,442.52 L2210.37,444.736 L2210.85,447.279 L2213.38,448.973 L2213.48,450.742 L2216.34,453.382 L2219.46,454.444 L2223.34,455.16 L2224.4,454.827 L2225.23,454.941 L2228.18,456.615 L2231.26,458.944 L2232.29,460.208 L2233.82,463.345 L2236.91,465.452 L2237.3,465.997 L2237.76,467.767 L2237.65,469.402 L2238.55,472.416 L2241.29,473.684 L2242.31,474.621 L2242.93,476.776 L2244.58,479.3 L2245.37,480.015 L2246.24,480.122 L2248.16,477.194 L2248.9,476.921 L2250.15,478.314 L2252.3,479.801 L2252.94,481.043 L2254.34,481.177 L2256.14,482.879 L2257.13,483.095 L2258.27,482.54 L2259.18,482.543 L2260.66,483.125 L2266.71,484.156 L2267.79,483.852 L2269.06,482.954 L2270.9,482.851 L2272.65,484.106 L2273.02,486.668 L2274.88,486.801 L2275.88,487.184 L2278.36,489.217 L2279.73,489.807 L2281.8,490.194 L2283.06,492.222 L2283.75,492.414 L2287.08,492.174 L2287.9,492.525 L2290.18,496.769 L2291.59,498.102 L2290.25,500.01 L2290.6,501.181 L2291.72,502.709 L2291.51,506.097 L2289.34,509.659 L2289.12,511.558 L2288.31,512.048 L2286.67,511.795 L2285.29,512.044 L2283.31,514.849 L2282.85,515.032 L2283.65,516.458 L2284.76,517.413 L2287.36,517.922 L2287.93,518.42 L2291.32,528.546 L2292.23,529.062 L2294.39,528.873 L2294.99,529.62 L2295.5,531.148 L2297.9,531.358 L2299.27,532.61 L2299.3,534.555 L2300.07,536.098 L2300,536.804 L2301.31,537.915 L2302.76,542.39 L2302.37,544.84 L2301.63,546.124 L2301.19,548.267 L2300.58,549.364 L2301.9,551.511 L2301.24,554.279 L2300.44,555.729 L2300.49,558.036 L2299.73,560.767 L2298.97,562.328 L2299.17,563.527 L2293.74,566.605 L2293.03,567.583 L2293.12,568.333 L2294.16,569.509 L2294.82,571.446 L2296.47,571.827 L2297.03,572.246 L2298.8,575.145 L2301.1,577.664 L2301.39,578.69 L2301.27,579.356 L2299.73,581.89 L2300.44,583.576 L2300.43,584.716 L2301.05,585.12 L2301.28,585.706 L2300.85,588.701 L2301.69,590.435 L2303.71,592.245 L2305.38,592.615 L2305.79,593.005 L2306.05,596.448 L2307.42,597.142 L2308.16,598.433 L2308.43,599.625 L2309.34,600.642 L2310.24,600.951 L2315.71,600.841 L2316.71,601.603 L2318.1,603.304 L2321.48,604.024 L2323.4,606.673 L2326.04,608.15 L2327.11,610.188 L2327.01,612.082 L2331.31,612.086 L2334.05,611.744 L2335.39,610.785 L2337.14,610.173 L2338.1,609.332 L2339.11,609.226 L2339.68,610.072 L2340.57,613.491 L2341.07,613.73 L2342.28,613.509 L2343.95,613.774 L2344.7,613.193 L2344.4,611.26 L2344.73,610.656 L2347.92,610.779 L2348.91,608.273 L2350.12,607.767 L2350.07,605.994 L2350.76,604.537 L2350.64,603.805 L2351.34,602.092 L2351.74,601.779 L2358.18,601.216 L2359.26,600.77 L2362.06,600.692 L2364.3,600.252 L2366.47,600.509 L2367.95,601.414 L2369.61,603.007 L2370.28,603.145 L2372.88,602.949 L2376.04,602 L2377.01,601.981 L2377.94,601.487 L2380.96,600.964 L2383.85,601.873 L2386.6,601.967 L2388.14,601.444 L2390.2,601.302 L2392.35,600.314 L2393.48,597.823 L2394.77,597.042 L2404,596.125 L2405.25,597.644 L2405.51,598.618 L2404.58,601.966 L2406.62,606.085 L2404.73,608.199 L2405.45,612.662 L2404.14,615.194 L2405.66,618.589 L2405.08,620.187 L2405.69,621.13 L2406.78,624.174 L2407.34,624.815 L2408.73,625.287 L2408.2,626.505 L2409.02,627.894 L2407.97,631.294 L2408.21,634.399 L2408.59,635.237 L2410.58,636.687 L2409.14,639.663 L2408.58,640.026 L2404.77,638.88 L2399.07,638.567 L2395.7,637.066 L2396.33,639.376 L2397.63,640.51 L2398.24,641.687 L2397.68,643.038 L2398,645.34 L2397.5,647.507 L2398.45,649.233 L2398.52,650.413 L2397.49,651.255 L2397.02,653.658 L2396.53,654.644 L2394.64,655.74 L2394.48,657.51 L2393.92,658.433 L2392.16,659.827 L2389.22,660.534 L2388.06,661.958 L2386.72,661.939 L2386.04,662.296 L2387.5,667.408 L2386.59,668.661 L2387.59,671.802 L2388.48,672.331 L2390.98,672.701 L2392.28,673.567 L2394.84,678.949 L2394.93,679.784 L2394.61,680.76 L2393.02,682.857 L2394.08,685.716 L2398.36,689.846 L2400.37,690.358 L2405.07,693.364 L2406.65,692.701 L2407.33,693.148 L2406.32,697.432 L2407.81,699.979 L2407.83,701.015 L2407.11,702.794 L2408.05,703.727 L2408.69,706.36 L2406.45,707.878 L2405.05,708.038 L2403.61,708.952 L2402.52,710.244 L2402.16,711.438 L2400.85,712.212 L2400.21,714.523 L2399.82,715.055 L2393.48,718.266 L2393.56,719.008 L2395.29,720.307 L2393.64,722.357 L2393.23,723.779 L2393.29,724.854 L2394.38,727.663 L2393.51,731.524 L2393.72,732.361 L2397.06,735.905 L2397.24,738.108 L2397.76,738.924 L2399.57,740.183 L2400.17,740.942 L2402.38,742 L2404.21,746.237 L2409.81,749.038 L2410.84,750.096 L2411.02,750.584 L2410.66,752.51 L2411.97,756.557 L2412.41,759.511 L2412.05,760.083 L2409.84,761.505 L2405.2,766.299 L2404.79,767.067 L2404.95,768.083 L2403.51,769.397 L2403.01,770.524 L2399.93,771.114 L2398.69,772.594 L2395.28,774.677 L2395.42,776.738 L2393.51,780.053 L2392.78,783.114 L2391.95,785.095 L2391.55,785.621 L2389.7,786.483 L2388.36,788.23 L2388.37,789.521 L2386.95,794.114 L2388.05,798.632 L2387.97,800.08 L2386.89,802.358 L2386.74,803.363 L2387.66,805.226 L2391.71,808.281 L2391.4,810.473 L2396.02,811.768 L2396.85,812.589 L2398.47,812.762 L2399.62,813.746 L2400.46,815.115 L2403.02,814.833 L2405.22,815.62 L2408.42,814.677 L2409.87,814.645 L2412.26,816.209 L2413.17,816.333 L2414.07,817.206 L2414.19,818.456 L2415.69,820.01 L2417.13,823.035 L2421.33,824.247 L2424.12,825.856 L2425.37,826.087 L2430.65,826.032 L2430.72,829.009 L2431.04,829.897 L2432.26,830.642 L2434.14,831.069 L2434.54,831.646 L2435.36,834.845 L2435.91,836.971 L2432.9,837.58 L2428.86,836.281 L2425.56,837.566 L2422.55,838.059 L2419.5,840.855 L2416.44,844.921 L2414.99,845.04 L2413.4,846.194 L2412.95,847.122 L2411.75,848.171 L2411.22,851.683 L2407.93,860.547 L2406.49,862.088 L2404.26,862.983 L2404.33,864.258 L2403.01,868.327 L2403.8,871.485 L2403.64,872.645 L2404.51,873.894 L2406.46,878.678 L2405.79,880.169 L2405.88,881.17 L2406.55,882.63 L2406.47,883.754 L2405.21,885.617 L2404.88,887.127 L2405.64,889.722 L2403.87,892.792 L2404.36,895.896 L2403.49,900.268 L2404.3,903.586 L2407.16,907.498 L2407.5,909.104 L2406.92,911.502 L2406.38,911.953 L2406.98,912.421 L2407.86,916.039 L2407.04,919.388 L2407.87,922.33 L2409.17,924.762 L2409.92,927.345 L2410.02,929.06 L2409.25,931.161 L2409.97,932.101 L2412.3,933.491 L2413.3,936.702 L2412.53,939.114 L2413.13,940.61 L2413.3,942.739 L2413.65,943.654 L2414.77,944.614 L2414.97,945.719 L2415.07,946.79 L2413.99,948.583 L2414.12,951.187 L2413.28,954.235 L2413.88,957.232 L2412.68,959.402 L2412.54,960.325 L2413.27,961.518 L2416.1,963.825 L2417.13,966.374 L2416.49,967.346 L2415.73,967.726 L2414.67,970.381 L2414.15,970.742 L2414.36,972.374 L2415.51,974.946 L2414.34,981.511 L2414.64,982.684 L2417.29,984.979 L2418.03,989.11 L2419.03,990.398 L2419.86,992.409 L2419.86,993.498 L2416.47,1000.85 L2414.91,1002.99 L2415.46,1006.72 L2416.11,1007.87 L2416.18,1009.16 L2414.8,1013.2 L2414.43,1017.49 L2413.71,1018.97 L2414.53,1022.45 L2414.16,1024.02 L2414.28,1024.88 L2414.92,1025.91 L2415.09,1027.46 L2413.14,1029.89 L2412.44,1033.85 L2412.33,1038.53 L2410.04,1041.62 L2409.47,1047.36 L2410.85,1049.62 L2410.55,1051.1 L2411.8,1054.66 L2412.42,1055.37 L2415.62,1056.69 L2417.42,1057.92 L2419.54,1058.26 L2420.25,1059.13 L2420.56,1060.52 L2420.44,1061.45 L2419.17,1063.8 L2419.06,1066.69 L2417.29,1071.86 L2416.76,1072.64 L2416.68,1073.66 L2417.52,1078.41 L2418.67,1079.61 L2419.79,1081.87 L2421.56,1084.26 L2424.33,1084.27 L2426.43,1085.2 L2427.68,1084.78 L2429.78,1085 L2430.63,1085.61 L2432.9,1088.99 L2433.08,1091.53 L2432.16,1093.07 L2432.69,1095.8 L2432.36,1096.97 L2431.67,1097.67 L2431.72,1098.07 L2432.48,1101.11 L2432.96,1100.8 L2434.37,1101.13 L2434.28,1102.44 L2434.56,1103.38 L2435.4,1104.38 L2435.81,1104.19 L2436.8,1104.49 L2437.72,1107.12 L2438.84,1108.51 L2437.06,1110.99 L2439.07,1114.69 L2438.56,1116.05 L2440.16,1118.27 L2441.02,1118.8 L2441.55,1119.61 L2441.84,1122.44 L2440.16,1124.88 L2439.95,1125.78 L2440.07,1127.14 L2441.04,1128.56 L2440.84,1130.15 L2441.13,1131.08 L2440.49,1132.27 L2440.26,1134.35 L2441.76,1135.45 L2442.4,1137.52 L2442.04,1138.61 L2440.91,1139.66 L2441.41,1142.71 L2441.27,1144.11 L2440.8,1144.84 L2440.98,1146.68 L2440.55,1147.35 L2441,1148.82 L2440.83,1149.45 L2439.08,1150.64 L2437.04,1150.98 L2436.23,1153.13 L2434.72,1154.44 L2433.74,1157.26 L2434.67,1159.02 L2436.52,1160.5 L2437.06,1161.38 L2436.72,1165.97 L2437.17,1169.49 L2436.55,1172.83 L2439.36,1174.76 L2439.94,1181.21 L2440.91,1182.96 L2441.72,1185.33 L2440.51,1190.55 L2440.74,1192.06 L2440.53,1194.18 L2439.12,1194.96 L2438.04,1196.16 L2436.71,1196.85 L2436.48,1197.63 L2439.07,1198.88 L2438.75,1200.52 L2439.35,1201.48 L2439.31,1202.87 L2440.09,1204.96 L2440.53,1207.22 L2440.38,1208.52 L2438.51,1210.51 L2437.83,1213.71 L2436.84,1214.43 L2436.07,1215.74 L2436.05,1217.42 L2435.16,1219.39 L2434.12,1219.43 L2432.78,1220.05 L2431.09,1217.92 L2430.27,1217.57 L2428.68,1217.83 L2426.23,1218.73 L2424.49,1221.08 L2423.68,1221.62 L2420.37,1222.31 L2420.06,1224.06 L2419.18,1224.87 L2417.03,1225.79 L2413.99,1226.05 L2413.66,1227.25 L2413.82,1229.7 L2415.33,1230.66 L2416.02,1232.64 L2417.88,1234.68 L2416.98,1236.45 L2417.57,1239.54 L2418.46,1240.24 L2420.26,1240.98 L2421.44,1242.03 L2421.71,1243.38 L2420.82,1244.54 L2420,1244.77 L2419.66,1247 L2419.03,1247.74 L2417.59,1248.15 L2415.19,1248.28 L2414.16,1249.19 L2413.93,1249.82 L2415.09,1251.14 L2416.57,1253.87 L2417.64,1254.67 L2418.46,1255.85 L2419.52,1256.6 L2421.77,1257.45 L2424.22,1259.07 L2424.86,1260.44 L2425.85,1260.95 L2425.58,1262.69 L2425.97,1263.84 L2427.44,1265.29 L2429.32,1267.98 L2428.9,1268.76 L2428.24,1269.09 L2427.97,1270.38 L2424.94,1271.89 L2423.82,1272.03 L2422.9,1271.61 L2422.2,1271.68 L2421.4,1271.2 L2420.73,1271.28 L2419.89,1272 L2419.65,1273 L2418.36,1274.42 L2417.34,1276.22 L2417.32,1277.31 L2418.42,1279.15 L2417.27,1282.17 L2417.34,1283.83 L2417.96,1285.38 L2417.58,1286.08 L2416.95,1286.42 L2416.52,1287.82 L2417.61,1289.33 L2418.47,1291.21 L2418.56,1292.12 L2420.27,1295.42 L2422.99,1296.55 L2423.53,1298.29 L2424.38,1299.25 L2425.47,1299.83 L2426.32,1301.18 L2425.11,1304.5 L2426.17,1307 L2426.97,1307.71 L2428.06,1307.95 L2428.51,1308.79 L2431.11,1316.83 L2431.92,1318.09 L2434.86,1319.17 L2436.34,1319.42 L2439.32,1323.2 L2441.29,1324.67 L2442.43,1326.25 L2444.03,1331 L2446.14,1333.72 L2446.8,1333.93 L2448.16,1332.95 L2449.69,1333.46 L2450.89,1336.05 L2451.72,1336.93 L2453.57,1337.77 L2455.72,1340.31 L2456.53,1340.2 L2460.78,1341.62 L2463.26,1342.82 L2464.25,1345.57 L2465.53,1347.14 L2467.35,1348.65 L2468.06,1350.19 L2468.6,1350.51 L2469.99,1350.26 L2471.89,1351.11 L2473.35,1353.78 L2475.5,1354.9 L2476.09,1356.81 L2478.69,1360.38 L2479.03,1365.12 L2482.58,1370.37 L2482.31,1371.3 L2483.6,1374.39 L2484.29,1377.68 L2483.27,1381.15 L2482.42,1382.29 L2483.13,1383.92 L2484.22,1383.73 L2484.98,1384.04 L2485.11,1386.05 L2484.24,1387.33 L2484.22,1388.99 L2484.99,1391.37 L2484.22,1393.36 L2483.9,1395.78 L2484.69,1396.8 L2487.78,1399.23 L2488.94,1403.26 L2490.91,1407.41 L2492.38,1408.58 L2493.32,1409.9 L2494.74,1410.59 L2493.62,1411.32 L2489.31,1412.06 L2486,1412.1 L2482.68,1411.66 L2480.75,1411.04 L2477.84,1413.8 L2476.28,1414.5 L2476.28,1417.41 L2473.49,1422.55 L2471.28,1423.6 L2468.39,1424.55 L2466.12,1424.45 L2463.17,1425.26 L2462.27,1424.66 L2460.28,1424.47 L2458.94,1422.56 L2457.86,1422.54 L2451.18,1425.74 L2450.18,1427.02 L2449.69,1431.14 L2445.49,1435.67 L2445.05,1436.66 L2443.97,1437.71 L2441.76,1436.54 L2434.93,1437.46 L2433.18,1437.38 L2431.62,1437.98 L2429.2,1440.16 L2427.57,1440.28 L2425.33,1439.95 L2424.08,1439.24 L2423.07,1437.82 L2419.17,1435.64 L2418,1435.67 L2415.53,1437.48 L2412.28,1438.35 L2409.68,1438.17 L2408.06,1437.39 L2405.69,1438.06 L2402.87,1438.36 L2401.16,1437.68 L2399.57,1437.43 L2398.09,1438.43 L2397.24,1439.86 L2394.49,1448.58 L2393.88,1449.57 L2393.35,1449.68 L2392.18,1448.72 L2391.02,1448.51 L2389.63,1449.28 L2389.13,1449.24 L2388.69,1448.82 L2388.43,1447.19 L2387.46,1446.02 L2386.19,1445.92 L2385.82,1445.43 L2384.25,1445.28 L2383.73,1445.64 L2379.48,1444.55 L2377.96,1445.27 L2374.9,1444.12 L2373.42,1443.2 L2373.68,1442.25 L2373.15,1441.9 L2372.19,1442.67 L2369.76,1443 L2368.01,1443.75 L2365.76,1445.04 L2364.45,1446.23 L2363.02,1448.13 L2362.81,1449.82 L2362.39,1450.74 L2360.59,1452.43 L2360.54,1453.02 L2359.82,1454.05 L2359.82,1455.31 L2358.99,1456.68 L2358.47,1459.49 L2358.59,1461.24 L2357.75,1463.43 L2353.21,1468.05 L2352.12,1471 L2351.17,1472.61 L2345,1476.45 L2344.7,1477.31 L2344.58,1479.24 L2345.02,1480.61 L2344.73,1482.38 L2344.15,1483.37 L2344.34,1484.72 L2345.82,1485.98 L2346.58,1486.03 L2349.17,1485.13 L2350.77,1486.29 L2351.33,1488.39 L2351.34,1492.76 L2352.34,1493.3 L2353.14,1495.22 L2352.64,1497.29 L2353.16,1498.09 L2354.33,1501.83 L2353.55,1502.81 L2351.65,1503.61 L2350.31,1503.1 L2348.83,1501.71 L2347.57,1501.58 L2347.28,1501.89 L2346.91,1502.62 L2347.89,1504.23 L2348.24,1507.21 L2347.08,1508.65 L2347.12,1510.51 L2347.99,1511.44 L2348.64,1512.79 L2349.81,1513.84 L2350.66,1513.7 L2354.83,1514.73 L2355.47,1514.45 L2356.08,1514.67 L2356.7,1515.42 L2358.36,1515.51 L2359.47,1515.92 L2359.97,1517.2 L2364.03,1518.48 L2367.35,1521.08 L2367.86,1523.79 L2368.17,1528.25 L2368.79,1529.6 L2370.47,1531.87 L2368.64,1538.38 L2368.14,1538.77 L2364.5,1539.12 L2363.46,1540.24 L2363.22,1541.7 L2365.15,1543.15 L2365.49,1543.78 L2366.8,1543.85 L2366.71,1544.84 L2367.26,1546.69 L2367.89,1547.66 L2371.42,1549.47 L2372.22,1550.66 L2372.49,1551.88 L2373.1,1552.47 L2376.36,1553.95 L2376.77,1557.1 L2378.47,1558.15 L2378.97,1559.09 L2379.14,1559.72 L2378.88,1560.72 L2379.41,1562.86 L2380.22,1563.31 L2381.03,1562.76 L2381.96,1563.16 L2383.67,1566.31 L2385.76,1567.41 L2387.12,1569.48 L2387.63,1575.04 L2384.98,1578.57 L2384.7,1580.65 L2384.08,1581.77 L2383.81,1584.51 L2385.19,1587.99 L2386.1,1588.31 L2387.33,1590.03 L2388.31,1590.5 L2388.54,1590.98 L2388.87,1595.14 L2389.31,1596.1 L2389.47,1597.74 L2389,1598.82 L2389.23,1600.3 L2388.68,1601.63 L2389.21,1602.16 L2389.52,1605 L2391.32,1607.08 L2391.06,1607.96 L2389.89,1608.98 L2387.37,1610.4 L2382.06,1611.61 L2380.45,1611.45 L2379.98,1611.76 L2379.24,1613.07 L2378.25,1613.66 L2375.9,1613.99 L2374.27,1613.39 L2373.04,1613.32 L2372.31,1614.05 L2372.42,1614.89 L2373.54,1616.3 L2373.82,1617.91 L2373.61,1620.24 L2374.97,1624.97 L2375.42,1628.98 L2376.16,1631.5 L2375.58,1632.51 L2374.67,1632.92 L2375.1,1633.8 L2375.1,1634.78 L2374.59,1635.66 L2375.1,1637.01 L2374.68,1640.9 L2374.96,1642.33 L2376.6,1643.5 L2377.92,1643.3 L2378.97,1642.59 L2383.03,1638.55 L2385.16,1638.26 L2385.53,1640.09 L2386.67,1640.89 L2388.12,1643.39 L2389.78,1644.68 L2390.3,1645.94 L2391.55,1646.87 L2391.74,1649 L2392.3,1649.72 L2392.93,1652.64 L2393.7,1653.75 L2395.27,1654.74 L2396.32,1657 L2397.32,1662.31 L2397.85,1663.6 L2397.34,1666.43 L2399.59,1668.54 L2400.65,1670.08 L2402.97,1674.28 L2403.44,1675.77 L2403.62,1678.35 L2402.93,1681.69 L2403.04,1686.59 L2402.56,1688.53 L2403.47,1690.08 L2403.38,1691.06 L2404.23,1692.09 L2404.88,1694.04 L2404.13,1695.96 L2404.87,1697.92 L2404.87,1698.55 L2404.06,1700.39 L2404.71,1704.14 L2403.23,1706.57 L2402.26,1709.47 L2400.2,1711.13 L2400.66,1712.61 L2399.85,1714.51 L2399.67,1716.36 L2398.21,1717.62 L2397.92,1722.09 L2397.12,1725.61 L2393.32,1732.38 L2393.08,1736.06 L2393.3,1737.18 L2393.98,1737.48 L2393.71,1738.64 L2393.98,1739.45 L2392.27,1741.93 L2392.29,1742.89 L2394.59,1745.03 L2394.51,1746 L2393.83,1746.58 L2393.75,1747.02 L2393.72,1747.84 L2394.01,1748.25 L2394.78,1748.61 L2396.77,1748.21 L2397.19,1748.44 L2397.46,1749.38 L2396.86,1750.22 L2396.02,1754.08 L2395.42,1764.72 L2394.9,1766.66 L2394.07,1767.62 L2390.52,1769.3 L2394.67,1773.43 L2396.26,1774.57 L2397.17,1779.09 L2397.59,1779.81 L2397.18,1780.84 L2397.51,1783.66 L2399.66,1786.56 L2399.24,1786.48 L2399.32,1787.86 L2397.54,1788.03 L2398.44,1789.92 L2397.21,1790.35 L2397.3,1791.37 L2399.66,1794.33 L2396.56,1793.46 L2396.13,1795.04 L2393.65,1799.23 L2399.53,1807.74 L2402.12,1809.62 L2403.49,1811.29 L2405.14,1815.64 L2405.86,1816.86 L2408.5,1818.27 L2409.5,1819.62 L2408.78,1819.82 L2409.73,1821.02 L2409.25,1826.27 L2408.62,1827.61 L2406.39,1829.78 L2403.99,1833.56 L2402.73,1834.55 L2401.26,1835.05 L2400.13,1837.88 L2400.48,1840.09 L2401.9,1843.75 L2402.49,1847.06 L2402.17,1853.08 L2402.34,1861.68 L2402.02,1862.76 L2400.57,1864.16 L2400.58,1865.01 L2401.88,1868.05 L2401.66,1872.97 L2404.54,1879.12 L2406.37,1882.96 L2407.56,1884.58 L2410.55,1886.01 L2412.53,1890.23 L2413.22,1893.47 L2411.45,1896.84 L2411.74,1898.41 L2412.66,1899.52 L2413.96,1900.12 L2416.59,1904.97 L2418.49,1906.48 L2425.78,1911.17 L2426.23,1914.62 L2427.62,1917.02 L2422.76,1919.09 L2420.87,1919.27 L2419.87,1919 L2419.39,1919.38 L2415.23,1919.64 L2413.77,1920.19 L2413.08,1921.11 L2409.39,1923.19 L2406.44,1922.8 L2404.95,1923.03 L2403.5,1922.7 L2400.92,1922.93 L2400.51,1924.82 L2401.4,1926.52 L2401.16,1930.09 L2402.99,1931.82 L2403.45,1932.67 L2404.23,1937.17 L2404.58,1941.31 L2404.25,1941.72 L2401.9,1942.17 L2400.94,1942.71 L2399.02,1942.68 L2396.64,1943.17 L2396.21,1942.43 L2395.78,1943.24 L2395.18,1943.59 L2391.56,1942.26 L2390.38,1942.56 L2390.29,1943.58 L2390.94,1945.59 L2390.14,1946.89 L2387.64,1948.86 L2387.79,1949.88 L2388.8,1951.84 L2388.44,1953.72 L2387.38,1954.8 L2386.19,1954.81 L2385.79,1954.43 L2385.91,1953.9 L2385.23,1953.04 L2383.29,1952.75 L2381.81,1951.47 L2378.7,1950.78 L2377.21,1949.69 L2376.78,1949.74 L2376.16,1953.59 L2375.72,1954.01 L2372.31,1955.12 L2371.04,1953.77 L2370.03,1953.18 L2368.07,1954.37 L2365.75,1953.74 L2365.07,1955.38 L2363.66,1955.49 L2363.51,1957.32 L2364.56,1959.01 L2364.73,1960.62 L2366.64,1962.68 L2367.16,1964.08 L2366.54,1965.97 L2367.24,1968.31 L2366.27,1969.46 L2366.1,1972.15 L2364.74,1973.66 L2364.81,1974.55 L2364.43,1975.75 L2364.51,1977.7 L2365.17,1979 L2365.32,1980.03 L2364.6,1983.84 L2363.45,1985.66 L2359.76,1988.34 L2358.18,1990.04 L2357.66,1991.05 L2357.72,1992.68 L2359.39,1994.38 L2359.32,1996.76 L2358.42,1998.69 L2356.96,1999.95 L2356.17,2001.51 L2355.33,2002.1 L2354.12,2002.17 L2352.95,2002.66 L2351.47,2006.78 L2351.05,2008.72 L2350.65,2009.24 L2349.24,2010 L2347.6,2011.91 L2346.46,2012.4 L2343.74,2011.86 L2342.6,2012.11 L2340.75,2013.05 L2338.73,2015.14 L2336.98,2016.26 L2336.07,2018.7 L2332.95,2023.25 L2332.5,2027.54 L2327.51,2036.6 L2327.45,2037.82 L2328,2039.24 L2329.52,2041.64 L2328.99,2044.95 L2329.5,2046.53 L2327.68,2047.73 L2326.54,2049.09 L2325,2049.68 L2323.97,2051.9 L2321.8,2051.89 L2319.53,2054.1 L2317.22,2060.79 L2317.57,2062.87 L2318.3,2064.48 L2318.02,2065.96 L2318.25,2068.21 L2317.23,2069.98 L2317.29,2073.26 L2316.8,2073.73 L2314.84,2074.52 L2311.99,2077.75 L2307.85,2080.16 L2307.73,2081.16 L2308.61,2084.63 L2308.17,2090.27 L2310.57,2092.4 L2311.19,2095.64 L2313.7,2098.94 L2314.97,2099.9 L2315.18,2100.51 L2311.98,2106.5 L2311.94,2108.49 L2309.65,2110.58 L2307.66,2117.39 L2305.14,2121.67 L2305.49,2124.15 L2304.86,2126.51 L2306.52,2135.82 L2305.26,2137.07 L2304.73,2138.38 L2304.82,2138.97 L2305.62,2141.19 L2305.6,2143.09 L2306.03,2144.26 L2306.55,2144.91 L2309.27,2146.07 L2309.44,2146.44 L2309.06,2149.62 L2309.41,2151.1 L2309.3,2152.44 L2308.25,2155.51 L2308.33,2156.14 L2307.21,2157.75 L2307.06,2158.98 L2307.66,2161.11 L2308.4,2162.07 L2308.99,2166.67 L2307.45,2168.55 L2307.09,2169.4 L2304.48,2172.38 L2302.8,2176.25 L2301.42,2177.22 L2300.86,2178.51 L2299.49,2179.27 L2298.85,2180.04 L2298.17,2183.67 L2297.62,2184.77 L2298.22,2186.38 L2296.91,2189.99 L2295.74,2190.37 L2294.94,2191.16 L2294.09,2194.77 L2293.17,2196.86 L2291.74,2197.48 L2291.42,2198.06 L2289.91,2199.14 L2288.93,2201.06 L2287.4,2203.12 L2286.63,2205.57 L2286.95,2208.13 L2285.28,2209.35 L2280.25,2210.3 L2279.34,2211.11 L2279.59,2214.55 L2279.23,2215.06 L2273.48,2217.41 L2272.58,2220.39 L2272.7,2222.24 L2271.56,2224.76 L2269.14,2224.83 L2267.43,2225.79 L2262.62,2227.15 L2260.13,2226.97 L2257.54,2227.19 L2254.8,2225.6 L2254.13,2224.66 L2251.21,2223.33 L2250.44,2223.27 L2247.42,2224.19 L2246.7,2223.94 L2246.28,2223.02 L2245.75,2222.78 L2243.8,2222.95 L2242.26,2222.53 L2238.43,2223.28 L2237.39,2222.72 L2235.79,2220.57 L2233.85,2220.56 L2232.32,2219.93 L2230.68,2219.79 L2229.66,2219.92 L2228.12,2221.71 L2224.7,2222.03 L2224.36,2222.88 L2222.7,2223.19 L2220.86,2224.42 L2219.13,2224.57 L2218.74,2225.05 L2217.64,2225.48 L2216.29,2225.01 L2212.13,2225.31 L2211.45,2225.11 L2210.43,2224.16 L2209.74,2222.56 L2207.03,2218.7 L2202.51,2214.02 L2200.34,2209.33 L2198.54,2206.6 L2195.74,2203.69 L2195,2199.11 L2192.69,2195.84 L2192.08,2194.05 L2188.62,2190.76 L2188.67,2187.82 L2186.63,2184.02 L2185.15,2185.17 L2181.48,2186.96 L2180.44,2189.3 L2178.91,2189.48 L2175.72,2189.01 L2171.86,2187.74 L2170.99,2187.73 L2170,2187.19 L2168.12,2187.06 L2164.59,2183.92 L2161.92,2182.26 L2159.72,2182.99 L2151.52,2184.79 L2144.45,2184.19 L2142.99,2184.42 L2142.64,2184.9 L2138.93,2186.98 L2135.85,2189.59 L2133.58,2190.93 L2130.34,2192.17 L2126.21,2192.09 L2125.42,2192.32 L2123.44,2194.36 L2122.52,2196.12 L2121.57,2196.16 L2119.13,2198.98 L2116.3,2200.53 L2114.82,2201.01 L2113.95,2202.36 L2113.56,2205.74 L2114.76,2208.55 L2116.21,2210.01 L2116.11,2211.71 L2114.98,2216.27 L2117.48,2225.54 L2113.21,2225.78 L2110.6,2228.81 L2106.98,2231.29 L2105.02,2233.81 L2102.87,2234.88 L2100.43,2235.54 L2097.78,2235.68 L2096.04,2236.46 L2095.14,2236.33 L2093.81,2235.14 L2093.23,2234.19 L2094.5,2233.09 L2095.61,2230.84 L2097.19,2229.24 L2097.14,2228.81 L2092.81,2225.83 L2092.05,2225.78 L2090.07,2226.31 L2086.21,2224.84 L2084.85,2223.91 L2081.82,2220.06 L2078.87,2217.71 L2078.19,2216.81 L2077.26,2217.05 L2076.2,2218.69 L2074.39,2219.16 L2072.77,2224.23 L2071.77,2225.2 L2070.83,2225.65 L2069.67,2225.67 L2068.4,2224.87 L2066.09,2222.51 L2064.44,2222.51 L2063.37,2221.92 L2062.99,2220.89 L2063.28,2218.35 L2062.78,2217.04 L2061.77,2216.16 L2060.27,2215.7 L2059.14,2214.31 L2057.56,2213.9 L2054.89,2211.84 L2052.35,2212.77 L2046.52,2210.19 L2042.27,2211.2 L2027.86,2212.72 L2026.89,2212.34 L2025.78,2211.23 L2024.4,2210.43 L2022.99,2212.75 L2023.05,2215.8 L2022.46,2216.99 L2021.62,2217.8 L2021.29,2218.7 L2022.35,2222.33 L2021.47,2228.39 L2022.33,2230.24 L2022.62,2233.24 L2023.22,2235.06 L2024.86,2236.57 L2027.56,2240.22 L2029.13,2241.16 L2028.45,2244.9 L2028.86,2246.83 L2029.79,2248.87 L2029.48,2250.05 L2028.51,2251.75 L2025.64,2253.49 L2024.99,2255.2 L2025.04,2257.01 L2024.58,2258.16 L2021.85,2260.69 L2021.11,2262 L2020.33,2262.62 L2019.7,2264.33 L2019.21,2264.88 L2019.25,2266.59 L2018.98,2267.25 L2017.6,2267.7 L2015.36,2269.87 L2013.19,2270.02 L2012.38,2271.93 L2011.23,2272.14 L2009.15,2271.22 L2007.99,2272.52 L2006.37,2272.17 L2005.05,2272.34 L2002.44,2274.36 L2001.49,2275.52 L2001.33,2276.59 L2000.92,2277.05 L1999.08,2277 L1997.44,2278.06 L1996.46,2277.92 L1995.49,2278.21 L1994.17,2277.88 L1992.39,2279.19 L1991.65,2280.22 L1990.3,2281.03 L1988.9,2282.59 L1986.16,2283.69 L1984.53,2284.05 L1982.65,2283.78 L1978.5,2285.29 L1976.89,2285.12 L1974.23,2284.24 L1971.65,2285.17 L1969.5,2285.18 L1968.41,2284.27 L1966.28,2280.84 L1963.25,2278.67 L1961.11,2278.51 L1959.09,2277.25 L1957.83,2277.8 L1954.09,2277.53 L1952.94,2278.01 L1949.96,2277.74 L1949.4,2279.78 L1948.49,2280.85 L1945.54,2279.87 L1942.52,2280.41 L1942.05,2281.05 L1942.1,2283.39 L1941.36,2284.34 L1940.48,2284.29 L1938.58,2283.48 L1934.7,2283.95 L1931.62,2283.55 L1931.4,2282.03 L1930.8,2280.7 L1928.18,2282.06 L1926.82,2283.26 L1922.16,2283.21 L1920.53,2282.64 L1919.16,2283.19 L1918.97,2282.99 L1919.18,2284.3 L1918.51,2286.57 L1916.05,2285.89 L1917.67,2281.38 L1918.89,2282.32 L1920.47,2281.37 L1918.26,2279.5 L1916.62,2279.27 L1914.09,2280.79 L1912.52,2282.48 L1911.63,2284.36 L1911.03,2288.71 L1910.59,2289.78 L1909.61,2289.95 L1908.12,2289.65 L1907.23,2287.24 L1906.42,2286.4 L1904.7,2286.9 L1904.41,2285.44 L1891.98,2282.83 L1886.9,2281.26 L1886.67,2282.32 L1887.11,2284.08 L1887.02,2286.24 L1889.25,2287.48 L1888.41,2289.12 L1888.91,2290.26 L1888.71,2290.51 L1892.64,2295.54 L1893.32,2296.85 L1893.33,2297.34 L1891.42,2296.8 L1891.01,2296.79 L1890.63,2297.23 L1890.4,2298.13 L1890.45,2301.18 L1889.8,2301.45 L1888.51,2302.84 L1887.55,2302.8 L1882.54,2301.07 L1878.85,2301.65 L1878.63,2300.44 L1874.47,2300.47 L1873.59,2300.88 L1869.67,2299.79 L1867.84,2301.63 L1866.87,2303.56 L1866.2,2306.17 L1864.67,2305.83 L1862.54,2304.41 L1861.73,2305.17 L1859.24,2304.17 L1857.42,2304.18 L1854.39,2303.51 L1853.91,2303.1 L1853.74,2302.22 L1853.14,2301.84 L1853.43,2300.27 L1852.73,2300.13 L1850.45,2298.66 L1850.65,2297.58 L1846.92,2297.51 L1843.26,2298.76 L1842,2295.9 L1841.23,2292.5 L1838.11,2291.9 L1836.41,2291.08 L1833.25,2287.31 L1833,2286.46 L1833.24,2283.15 L1832.65,2280.91 L1832.83,2278.48 L1831.91,2277 L1831.92,2275.77 L1830.81,2276.05 L1829.16,2277.96 L1828.98,2280.73 L1827.87,2280.86 L1827.84,2281.26 L1827.58,2281.25 L1827.38,2286.68 L1825.39,2290.38 L1824.24,2291.69 L1822.59,2295.5 L1822.83,2296.03 L1818.85,2298.02 L1819.3,2299.82 L1818.42,2300.87 L1817.55,2301.31 L1816.75,2301.02 L1815.46,2301.17 L1815.08,2301.48 L1815.33,2303.36 L1814.38,2304.6 L1814.24,2305.24 L1814.52,2306.89 L1815.35,2308.81 L1815.93,2308.52 L1815.91,2308.97 L1815.03,2311.21 L1814.38,2314.74 L1814.82,2316.3 L1815.85,2317.03 L1814.04,2319.1 L1813.3,2321.35 L1813.54,2322.06 L1814.73,2322.06 L1815.31,2323.14 L1814.84,2325.29 L1813.99,2326.92 L1813.52,2327.24 L1813.84,2328.7 L1812.34,2328.43 L1811.24,2334.35 L1813.11,2334.52 L1813.01,2338.35 L1813.46,2340.3 L1813.62,2344.23 L1812.91,2346.33 L1812.71,2347.98 L1806.77,2348.02 L1804.66,2347.64 L1803.03,2348.06 L1803.12,2348.31 L1799.93,2348.34 L1800.14,2349.73 L1786.98,2349.85 L1786.99,2350.59 L1782.1,2350.65 L1782.1,2351.34 L1777.09,2351.35 L1777.1,2352.11 L1774.33,2352.15 L1774.34,2353.53 L1771.52,2353.53 L1771.55,2355.39 L1768.62,2355.43 L1768.75,2357.69 L1763.86,2358.19 L1750.3,2361.59 L1750.99,2367.33 L1743.15,2366.63 L1738.73,2366.7 L1735.09,2367.78 L1733.91,2368.82 L1730.27,2370.84 L1729.1,2371.08 L1729.06,2370.63 L1728.29,2370.64 L1728.39,2370.26 L1727.71,2370.22 L1727.89,2371.11 L1724.45,2371.54 L1723.54,2372.19 L1721.86,2374.2 L1716.51,2377.3 L1716.31,2377.5 L1716.63,2378.4 L1715.11,2378.7 L1715.29,2379.17 L1714.58,2379.2 L1714.56,2379.55 L1713.98,2379.61 L1711.13,2379.06 L1709.69,2384.38 L1708.69,2385.41 L1706.33,2385.38 L1704.99,2386.59 L1704.09,2388.57 L1699.37,2384.94 L1699.5,2389.17 L1703.08,2390.88 L1702.49,2392.25 L1704.45,2409.3 L1700.48,2447.55 L1701.48,2452.02 L1701.98,2452.49 L1702.92,2452.75 L1702.84,2454.23 L1709.82,2454.27 L1710.57,2456.77 L1709.2,2460.41 L1702.85,2471.12 L1698.87,2470.07 L1697.39,2475.31 L1692.76,2478.51 L1689.78,2479.31 L1690.65,2484.39 L1690.13,2484.58 L1689.98,2485.8 L1689.51,2484.98 L1687.31,2485.25 L1686.13,2482.1 L1682.01,2482.12 L1681.99,2481.48 L1679.58,2481.46 L1679.49,2477 L1678.97,2476.94 L1678.18,2477.87 L1678.53,2476.97 L1678.04,2477.18 L1678.13,2475.11 L1676.87,2475.76 L1676.3,2476.52 L1676.07,2477.63 L1675.58,2478.11 L1672.87,2478.96 L1669.86,2477.6 L1667.2,2477.48 L1667.19,2474.42 L1664.97,2474.38 L1665.01,2467.97 L1666.61,2466.66 L1668.05,2468.32 L1668.68,2468.12 L1676.06,2461.9 L1671.49,2453.49 L1667.99,2455.53 L1666.72,2453.39 L1663.6,2455.08 L1660.47,2455.34 L1657.4,2451.91 L1654.37,2450.82 L1651.78,2449.19 L1648.96,2449.06 L1647.16,2448.28 L1645.2,2448.87 L1641.27,2452.32 L1640.58,2454.05 L1639.19,2454.88 L1637.07,2455.19 L1635.79,2453.9 L1634.82,2453.81 L1634.16,2453.2 L1632.83,2449.79 L1632.45,2447.97 L1632.57,2443.09 L1633.79,2439.31 L1634.69,2438.32 L1634.85,2437.23 L1635.56,2436.26 L1636.96,2433.17 L1640.29,2429 L1640.66,2425.4 L1639.01,2422.15 L1638.69,2420.09 L1637.03,2420.3 L1633.22,2420.15 L1625.24,2419.17 L1626.09,2421.44 L1626.22,2424.26 L1626.76,2426.21 L1624.71,2425.06 L1620.49,2430.76 L1619.06,2432.2 L1621.14,2433.27 L1620.88,2433.54 L1619.41,2433.29 L1620.24,2436.76 L1620.07,2440.95 L1619.09,2440.03 L1617.64,2440.31 L1617.41,2442.49 L1615.01,2442.22 L1614.67,2443.35 L1611.45,2441.76 L1611.06,2442.91 L1610.09,2444.1 L1606.02,2439.24 L1605.09,2438.78 L1603.47,2439.99 L1600.11,2445.78 L1597.42,2447.06 L1592.68,2450.1 L1592.54,2449.61 L1592.33,2449.74 L1592.08,2450.65 L1590.32,2451.99 L1589.05,2452.06 L1584.18,2450.95 L1582.49,2451.14 L1581.33,2449.62 L1580.82,2449.37 L1580.55,2449.55 L1580.29,2449.05 L1580.05,2449.53 L1579.73,2449.51 L1575.39,2448.72 L1573.16,2448.7 L1571.23,2449.93 L1568.21,2452.99 L1567.44,2453.31 L1566.88,2454.57 L1566.33,2454.68 L1566.37,2455.42 L1565.73,2456.47 L1563.96,2458.38 L1563.56,2461.36 L1562.63,2463.76 L1562.25,2464.03 L1560.67,2464.08 L1560.16,2464.41 L1558.19,2469.25 L1558.06,2470.16 L1557.42,2470.8 L1557.63,2471.64 L1557.12,2473.39 L1554.28,2476.79 L1552.08,2477.94 L1551.56,2478.49 L1548.36,2486.74 L1546.09,2489.4 L1543.06,2494.71 L1542.59,2499.63 L1545.25,2511.72 L1554.6,2532.68 L1555.99,2537.48 L1555.88,2541.13 L1554.71,2543.18 L1546.06,2550.3 L1542.52,2554.87 L1539.32,2563.6 L1535.37,2569.28 L1533.97,2573.63 L1531.93,2583.8 L1529.88,2594.35 L1528.88,2602.23 L1525.64,2613.03 L1525.39,2612.95 L1524.89,2614.63 L1515.8,2629 L1515.1,2631.91 L1515.39,2635.32 L1514.63,2635.29 L1506.18,2638.94 L1483.59,2647.75 L1475.54,2651.05 L1475.32,2651.49 L1461.95,2656.69 L1439.73,2665.96 L1439.92,2667.81 L1439.2,2668.94 L1435.24,2668.73 L1433.89,2668.22 L1430.36,2669.36 L1422.39,2673.88 L1418.07,2675.47 L1417.06,2676.53 L1415.12,2676.49 L1411.69,2677.62 L1398.32,2683.1 L1396.64,2684.03 L1392.87,2685.38 L1386.87,2688.33 L1385.58,2688.44 L1385.37,2688.77 L1383.77,2689.17 L1383.61,2689.95 L1383.14,2689.94 L1382.03,2691.07 L1379.22,2694.59 L1377.38,2696.42 L1376.42,2698.14 L1375.11,2698.25 L1374.91,2698.92 L1372.46,2700.75 L1370.04,2703.16 L1363.97,2707.72 L1359.98,2710.04 L1357.58,2711.01 L1356.89,2711.64 L1349.13,2714.65 L1344.92,2718.34 L1342.49,2720.01 L1339.38,2721.52 L1338.79,2722.34 L1338.74,2721.09 L1338.03,2721.35 L1338.02,2721.96 L1337.26,2722.14 L1337.36,2722.49 L1330.02,2726.9 L1325.74,2729.04 L1323.12,2731.07 L1318.86,2733.55 L1317.94,2732.55 L1317.97,2731.58 L1317.25,2729.08 L1317.06,2726.89 L1317.73,2724.83 L1317.39,2724.01 L1317.2,2721.38 L1313.08,2720.81 L1312.23,2720.26 L1312.02,2720.41 L1311.26,2720.02 L1311.69,2719.28 L1310.25,2718.48 L1310.07,2718.7 L1309.46,2718.36 L1309.16,2719.07 L1303.46,2717.14 L1303.91,2716.34 L1302.95,2716.33 L1302.23,2714.81 L1303.88,2709.97 L1302.94,2709.92 L1302.93,2709.49 L1302.33,2709.39 L1301.98,2708.35 L1301.42,2707.99 L1298.91,2708 L1298.67,2708.4 L1296.68,2707.91 L1295.49,2708.35 L1294.75,2711.12 L1293.68,2710.92 L1293.37,2712.03 L1290.66,2711.73 L1290.19,2712.07 L1289.06,2711.64 L1286.33,2711.49 L1286.29,2711.06 L1284.7,2710.92 L1284.41,2711.62 L1283.25,2711.61 L1282.09,2713.57 L1281.8,2713.49 L1282.54,2711.64 L1279.23,2710.36 L1279.31,2709.95 L1278.01,2709.31 L1276.12,2710.69 L1273.81,2713.54 L1278.32,2714.57 L1278.93,2715.98 L1278.29,2717.84 L1279.92,2718.39 L1278.97,2721.55 L1277.41,2721.18 L1277.7,2722.88 L1277.5,2722.9 L1275.57,2731.36 L1274.77,2732.48 L1273.14,2730.49 L1270.5,2728.67 L1266.32,2727.2 L1265.89,2727.36 L1264.97,2728.94 L1257.94,2728.61 L1259.28,2722.88 L1259.08,2720.17 L1255.92,2721.32 L1255.91,2720.56 L1253.43,2721.16 L1245.18,2718.42 L1244.88,2718.53 L1241.32,2724.92 L1239.09,2730.21 L1236.94,2736.38 L1235.55,2734.7 L1233.62,2728.64 L1232.57,2727.64 L1231.52,2727.36 L1228.58,2728.99 L1227.82,2729.84 L1226.59,2732.23 L1223.1,2736.03 L1220.89,2736.43 L1215.34,2734.6 L1213.79,2732.8 L1211.28,2727.63 L1209.8,2722.89 L1208.77,2715.28 L1208.47,2714.65 L1207.31,2713.94 L1206.42,2713.73 L1203.68,2714.01 L1199.19,2717.16 L1194.21,2719.47 L1192.73,2719.62 L1190.13,2719.24 L1188.46,2718.73 L1186.72,2717.75 L1186.41,2716.16 L1186.54,2714.17 L1187.98,2711.81 L1192.05,2707.96 L1196,2706.13 L1198.18,2704.7 L1198.91,2703.4 L1199.04,2702.08 L1198.46,2698.85 L1197.93,2697.9 L1197.28,2697.27 L1193.48,2695.18 L1193.04,2694.48 L1192.8,2693.05 L1193.37,2690.65 L1193.25,2689.96 L1192.66,2688.29 L1190.92,2685.9 L1189.81,2683.3 L1189.83,2676.85 L1189.3,2676.46 L1188.37,2676.34 L1182.17,2680.62 L1180.02,2681.79 L1177.01,2683.17 L1176.17,2682.85 L1176.31,2681.28 L1180.14,2676.47 L1181.13,2673.52 L1180.78,2671.46 L1177.88,2665.78 L1177.37,2664.24 L1178.04,2662.94 L1178.62,2662.58 L1183.93,2660.56 L1184.48,2659.79 L1184.76,2658.85 L1184.62,2658.33 L1184.05,2658.29 L1183.52,2657.58 L1182.84,2657.56 L1178.14,2659.1 L1177.15,2659.28 L1174.93,2659.04 L1174.06,2658.79 L1175.47,2658.22 L1176.31,2657.34 L1176.56,2656.51 L1175.46,2655.84 L1171.88,2656.65 L1170.32,2656.72 L1167.76,2656.16 L1165.7,2655.07 L1165.92,2654.08 L1168.68,2649.81 L1168.39,2649.17 L1167.1,2649.31 L1166.99,2649.03 L1167.14,2645.33 L1166.85,2644.66 L1166.52,2647.6 L1165.12,2647.62 L1165.05,2646.77 L1166.55,2646.66 L1165.67,2644.35 L1165.74,2639.98 L1164.52,2640.34 L1164.65,2641.51 L1164.28,2641.69 L1162.26,2638.43 L1160.65,2637.41 L1160.07,2636.7 L1159.97,2635.09 L1159.47,2635.65 L1158.79,2637.82 L1158.52,2638.12 L1158.29,2637.99 L1158.84,2635.24 L1157.42,2633.85 L1157.62,2633.46 L1157.28,2633.22 L1155.87,2633.98 L1155.82,2635.84 L1154.51,2637.88 L1154.68,2639.08 L1155.25,2640.09 L1155.02,2640.29 L1154.34,2639.55 L1153.82,2639.75 L1153.15,2638.72 L1151.27,2637.27 L1150.12,2635.82 L1148.17,2635.15 L1147.44,2638.35 L1147.6,2640.09 L1147,2640.91 L1145.87,2640.47 L1145.61,2641.03 L1146.62,2641.44 L1145.39,2645.15 L1143.7,2648.22 L1142.12,2647.28 L1140.48,2645.37 L1140.05,2644.46 L1139.84,2642.09 L1141.24,2636.01 L1141.59,2632.83 L1141.4,2630.85 L1140.47,2628.1 L1132.96,2619.98 L1130.64,2615.97 L1125.4,2601.54 L1123.53,2599.21 L1122.63,2598.82 L1120.4,2599.33 L1119.09,2598.77 L1117.77,2596.21 L1117.79,2595.28 L1118.76,2591.39 L1121.98,2587.28 L1124.58,2585.23 L1127.93,2581.94 L1129.96,2578.32 L1134.88,2577.78 L1140.98,2574.87 L1142.78,2573.24 L1144.68,2570.72 L1145.26,2569.48 L1145.63,2567.6 L1141.32,2563.93 L1139.87,2564.8 L1136.58,2565.99 L1131.2,2569.85 L1127.78,2566.03 L1124.81,2556.94 L1123.49,2555.19 L1121.58,2553.71 L1114.7,2552.48 L1108.13,2552.56 L1106.27,2552.19 L1103.91,2551.06 L1097.06,2545.7 L1095.36,2545.03 L1093.37,2544.73 L1088.63,2545.7 L1085.06,2547.81 L1082.58,2551.47 L1081.32,2554.94 L1080,2556.75 L1078.34,2558.35 L1075.04,2560.21 L1070.62,2561.68 L1060.55,2561.36 L1053.66,2560.73 L1043.83,2560.49 L1036.37,2559.82 L1029.47,2559.97 L1024.76,2558.81 L1022.19,2558.6 L1018.84,2558.96 L1015.32,2560.46 L1013.14,2561.91 L1009.2,2563.88 L1005.42,2564.83 L1002.6,2564.8 L999.844,2564.19 L996.177,2562.5 L992.186,2561.26 L989.688,2561.56 L979.327,2564.39 L975.536,2564.55 L973.086,2563.38 L971.175,2561.79 L966.682,2555.7 L958.933,2548.76 L956.651,2545.65 L958.054,2543.72 L960.594,2541.05 L961.364,2539.72 L961.452,2538.76 L960.41,2535.73 L957.502,2533 L954.963,2531.36 L953.464,2531.63 L951.575,2535.27 L949.717,2535.02 L947.914,2529.37 L947.451,2528.78 L946.282,2528.72 L945.526,2530 L944.363,2533.51 L938.608,2540.39 L937.719,2540.04 L936.808,2542.37 L929.371,2539.55 L927.557,2538.41 L929.094,2536.2 L928.508,2535.86 L929.236,2530.88 L925.605,2528.81 L922.351,2527.51 L920.549,2531.02 L918.351,2530.12 L915.068,2530.95 L913.828,2530.82 L910.189,2528.61 L900.832,2520.53 L898.656,2519.93 L896.008,2520.89 L890.708,2526 L888.546,2528.5 L887.419,2529.02 L885.105,2529.1 L879.401,2527.27 L877.786,2527.31 L877.076,2527.63 L875.436,2529.46 L874.996,2532.14 L873.87,2534.24 L872.133,2535.43 L866.063,2535.42 L862.419,2534.27 L861.873,2533.04 L862.028,2532.16 L861.033,2531.4 L859.561,2531.29 L859.196,2530.15 L857.834,2529.17 L855.402,2528.11 L852.775,2527.81 L851.157,2528.96 L850.52,2530 L849.684,2532 L849.301,2534.22 L848.34,2537.15 L846.772,2540.19 L842.612,2541.7 L841.351,2541.34 L838.944,2541.33 L837.34,2542.55 L835.761,2542.28 L834.902,2544.5 L834.103,2545.44 L829.622,2546.61 L828.488,2546.22 L827.655,2545.48 L827.767,2544.09 L827.139,2542.04 L823.469,2540.33 L821.657,2540.42 L821.115,2540.9 L819.176,2541.33 L816.886,2542.63 L814.919,2543 L812.554,2545.58 L811.443,2545.45 L812.516,2547.58 L812.434,2548.92 L811.873,2549.36 L810.84,2549.18 L810.102,2549.44 L810.014,2550.08 L810.334,2550.84 L810.163,2551.37 L809.284,2552.04 L807.485,2552.06 L806.927,2553.39 L805.692,2553.99 L805.213,2553.98 L803.869,2552.1 L802.685,2551.42 L801.54,2551.26 L799.816,2551.75 L797.052,2551.11 L795.949,2550.36 L793.974,2548.15 L794.836,2546.4 L795.351,2542.35 L794.411,2541.14 L791.868,2539.67 L786.002,2541.18 L785.546,2541.66 L785.799,2546.13 L786.441,2547.36 L788.066,2548.67 L788.684,2550.09 L788.789,2553.01 L787.965,2554.56 L787.146,2555.35 L784.6,2555.35 L782.882,2554.87 L780.71,2555.82 L778.406,2553.86 L776.206,2552.63 L773.781,2553.39 L770.921,2553.51 L769.259,2552.66 L768.365,2551.81 L767.463,2551.62 L766.183,2550.39 L766.279,2549.62 L767.225,2548.49 L767.011,2547.71 L766.086,2548.42 L764.233,2545.99 L762.601,2545.86 L761.735,2545.24 L760.507,2541.65 L758.437,2541 L758.182,2538.9 L761.582,2537.2 L764.16,2537.11 L765.213,2534.62 L767.148,2533.27 L768.777,2532.66 L771.353,2533.94 L773.962,2532.92 L774.735,2533.45 L778.967,2533.41 L779.867,2534.73 L780.2,2534.42 L780.183,2533.2 L779.903,2532.47 L778.074,2531.79 L777.689,2531.17 L777.92,2530.58 L779.572,2530.63 L779.717,2530.11 L778.012,2529.41 L777.151,2528.21 L775.712,2528.03 L770.116,2524.61 L768.92,2523.4 L768.327,2521.25 L767.57,2520.1 L764.624,2518.62 L763.652,2517.77 L762.684,2514.57 L763.518,2513.2 L763.303,2512.45 L762.075,2512.03 L760.158,2510.75 L757.953,2508.34 L755.732,2509.9 L754.373,2510.04 L751.024,2509.05 L728.409,2509.67 L727.983,2494.84 L728.474,2494.8 L727.196,2494.02 L726.13,2492.31 L722.571,2491.24 L721.204,2490.35 L720.197,2489.18 L719.61,2487.92 L715.566,2486.14 L715.158,2487.49 L713.778,2488.8 L713.264,2490.83 L712.189,2492.63 L712.479,2495.26 L711.744,2495.11 L711.535,2496.33 L712.563,2496.42 L712.68,2497.05 L712.106,2499.53 L710.226,2498.9 L710.277,2498.34 L709.815,2497.42 L707.838,2496.36 L707.729,2495.92 L699.316,2489.57 L698.93,2490.84 L696.39,2490.58 L695.805,2492.14 L693.363,2492.01 L693.615,2488.74 L696.265,2488.86 L696.077,2487.52 L700.097,2487.75 L700.373,2486.9 L700.753,2485.19 L700.938,2476.95 L700.19,2476.21 L699.288,2473.55 L697.192,2470.42 L695.13,2468.89 L693.968,2467.43 L694.568,2465.82 L694.993,2465.4 L695.406,2465.39 L695.558,2465.83 L700.012,2464.56 L699.578,2463.45 L693.933,2460.83 L692.013,2458.1 L690.999,2458.31 L689.344,2459.84 L686.586,2458.54 L684.266,2457.99 L683.82,2457.61 L684.288,2457.19 L684.257,2456.47 L682.85,2456 L681.788,2455.25 L680.581,2453.74 L679.603,2449.14 L678.749,2446.84 L678.071,2446.82 L678.035,2445.09 L677.44,2445.44 L675.417,2445.28 L675.47,2444.29 L674.639,2444.06 L674.661,2445.49 L673.754,2445 L672.994,2445.42 L671.142,2442.16 L672.591,2441.01 L669.822,2437.28 L672.688,2435.05 L668.831,2432.89 L668.953,2431.92 L669.918,2427.85 L672.484,2425.1 L673.263,2425.85 L676.316,2423.42 L672.053,2422.25 L669.994,2420.98 L669.796,2420.77 L671.381,2418.66 L671.677,2417.74 L668.311,2416.81 L668.249,2416.49 L666.938,2415.62 L666.792,2414.32 L669.533,2410.03 L671.484,2409.52 L672.901,2412.75 L673.954,2413.2 L674.075,2411.13 L675.354,2410.62 L674.746,2409.15 L677.055,2408.87 L677.528,2410.04 L678.752,2411.25 L678.784,2412.3 L679.326,2412.31 L679.311,2412.68 L678.806,2412.65 L678.901,2413.37 L679.911,2413.67 L680.921,2415.08 L679.006,2416.27 L679.663,2418.24 L680.839,2419.23 L680.172,2419.81 L680.654,2419.96 L680.532,2420.38 L681.575,2420.71 L681.762,2420.25 L682.396,2420.46 L682.598,2419.58 L683.674,2420.78 L684.456,2419.31 L684.133,2419.01 L685.436,2416.91 L684.915,2414.91 L685.042,2414.01 L684.491,2412.9 L684.432,2412.1 L685.415,2413.29 L686.003,2415.19 L685.648,2415.4 L686.2,2416.98 L687.188,2416.9 L687.597,2418.74 L689.459,2418.11 L689.813,2418.09 L689.842,2418.48 L690.537,2418.31 L690.544,2417.56 L691.025,2417.59 L691.035,2416.64 L691.835,2416.57 L691.901,2415.82 L690.911,2414.61 L691.265,2413.86 L690.569,2413.85 L690.349,2413.31 L690.798,2411.51 L691.9,2410.66 L691.266,2409.33 L691.868,2408.68 L691.165,2409.04 L690.881,2408.62 L691.371,2408.25 L690.263,2407.11 L689.642,2405.58 L688.74,2405.05 L687.788,2403.54 L686.238,2399.67 L685.386,2398.93 L684.157,2396.52 L680.841,2392.61 L680.303,2392.47 L678.925,2390.88 L677.317,2387.64 L675.399,2386.42 L674.937,2384.63 L672.763,2381.74 L672.362,2380.31 L671.5,2378.99 L669.861,2378.04 L665.351,2381.55 L661.424,2379.75 L658.482,2377.1 L654.447,2374.88 L650.804,2372.03 L644.008,2369.05 L641.044,2366.54 L639.561,2364.67 L638.679,2363.93 L637.122,2363.22 L635.503,2361.57 L633.956,2359.46 L632.828,2357.24 L631.946,2356.27 L630.583,2355.26 L626.73,2353.9 L625.06,2352.67 L623.156,2350.49 L622.81,2349.45 L618.216,2341.43 L613.028,2335.79 L608.49,2332.51 L604.957,2329.19 L593.387,2322.94 L585.786,2317.72 L583.264,2312.04 L580.467,2310.11 L574.4,2305.08 L570.225,2300.71 L568.051,2295.74 L568.432,2294.69 L569.697,2294.71 L570.509,2293.91 L569.916,2293.2 L570.709,2291.4 L570.02,2286.85 L570.498,2285.57 L570.358,2282.39 L569.516,2279.57 L568.422,2276.79 L567.776,2276.12 L566.363,2273.39 L560.229,2267.88 L556.513,2263.19 L556.297,2261.04 L556.611,2259.86 L558.204,2258.94 L557.675,2258.36 L558.039,2257.78 L559.742,2255.8 L560.646,2255.35 L561.13,2254.21 L562.693,2252.41 L563.039,2252.21 L563.668,2252.46 L564.569,2251.28 L564.873,2248.26 L564.416,2247.54 L564.574,2246.72 L564.837,2246.45 L566.429,2246.23 L566.626,2245.54 L567.826,2244.95 L567.705,2244.39 L568.002,2243.66 L568.69,2243.12 L568.546,2242.17 L569.03,2241.89 L569.704,2240.34 L570.411,2240.04 L570.718,2239.34 L571.212,2239.2 L571.184,2238.23 L571.856,2236.85 L571.827,2234.99 L572.283,2233.74 L572.182,2231.17 L572.882,2230.74 L572.586,2228.95 L573.747,2228.18 L574.56,2226.99 L576.225,2225.41 L580.305,2223.39 L581.837,2222.34 L582.5,2222.28 L584.143,2221.4 L585.314,2219.87 L586.516,2216.52 L586.544,2214.6 L589.463,2210.35 L589.467,2209.29 L587.713,2208.38 L586.272,2206.69 L586.188,2205.97 L588.008,2202.94 L587.829,2201.95 L588.621,2200.14 L589.063,2192.33 L589.885,2191.18 L591.159,2187.81 L592.114,2186.53 L592.127,2184.65 L592.5,2183.51 L595.052,2182.31 L596.184,2181.24 L596.919,2176.99 L599.827,2173.27 L601.02,2172.61 L603.538,2172.05 L605.622,2170.98 L606.327,2170.2 L607.857,2167.8 L608.138,2164.79 L609.081,2163.86 L610.147,2163.19 L613.928,2163.38 L617.783,2158.71 L620.396,2157.5 L620.377,2155.19 L621.026,2152.94 L620.487,2149.88 L621.35,2147.65 L622.574,2146.55 L624.252,2146.32 L625.159,2145.89 L625.77,2142.39 L627.11,2140.36 L626.304,2138.36 L626.18,2137.17 L626.531,2135.3 L625.684,2132.24 L626.245,2131.52 L628.319,2131.06 L630.501,2129.94 L631.449,2128.99 L632.869,2128.4 L636.201,2128.44 L638.51,2126.83 L639.02,2126.11 L642.069,2125.64 L642.971,2124.94 L644.289,2123.19 L644.358,2120.66 L645.748,2118.71 L646.761,2115.79 L646.546,2113.91 L648.046,2108.38 L647.728,2104.27 L649.271,2103.91 L650.378,2102.83 L652.115,2103.21 L656.012,2097.58 L657.821,2094.35 L658.668,2093.75 L660.785,2093.16 L662.006,2091.25 L662.713,2089.28 L663.15,2085.97 L662.709,2085.8 L661.702,2081.33 L662.483,2079.34 L662.126,2077.58 L661.48,2077.05 L660.075,2076.88 L658.722,2075.81 L657.573,2073.91 L656.202,2072.53 L655.724,2071.38 L654.436,2070.6 L654.406,2070.16 L656.279,2070.36 L660.381,2069.52 L661.582,2068.18 L662.729,2065.81 L665.782,2063.12 L667.148,2061.09 L668.295,2060.56 L670.019,2061.67 L672.175,2062.39 L674.737,2063.7 L675.125,2065.43 L674.741,2066.91 L674.772,2068.3 L676.502,2069.64 L678.678,2072.11 L680.117,2073.16 L681.251,2073.59 L684.065,2072.29 L688.702,2067.54 L691.321,2066.96 L692.104,2067.11 L693.351,2067.91 L694.713,2067.62 L695.776,2067.84 L700.377,2070.62 L701.898,2071.9 L702.406,2071.73 L702.445,2070.88 L701.467,2068.42 L702.261,2064.59 L701.846,2063.88 L698.945,2063.11 L698.548,2062.07 L701.471,2058.96 L702.905,2058.72 L703.337,2057.77 L704.876,2055.91 L705.898,2055.52 L707.626,2055.53 L710.675,2054.89 L710.926,2052.5 L711.35,2051.33 L712.763,2050.33 L713.756,2047.18 L713.194,2044.07 L714.116,2042.77 L713.92,2040.97 L714.681,2039.65 L714.566,2037.41 L715.172,2036.23 L714.706,2035.17 L714.733,2032.93 L715.734,2028.37 L716.43,2026.7 L711.951,2027.67 L711.761,2028.05 L710.682,2028.43 L708.174,2032.42 L706.388,2033.13 L704.504,2035.78 L703.59,2036.5 L702.929,2036.58 L701.694,2035.75 L703.025,2034.47 L703.139,2033.83 L702.65,2032.6 L702.785,2030.84 L702.495,2029.47 L701.503,2028.74 L700.877,2028.66 L700.522,2028.15 L702.046,2026.78 L702.325,2025.33 L702.124,2024.18 L701.238,2022.71 L700.83,2021.05 L701.13,2018.66 L700.499,2018.12 L698.955,2017.73 L699.667,2014.83 L699.336,2013.19 L699.606,2011.73 L699.131,2007.74 L694.763,2005.08 L694.028,2004.14 L692.228,2003.41 L691.026,2001.62 L692.303,1999.44 L691.957,1996.98 L693.152,1995.25 L695.19,1988.64 L695.521,1986.69 L694.749,1986.34 L693.026,1986.34 L691.714,1987.08 L689.597,1987.25 L685.313,1986.62 L683.421,1987.19 L681.795,1986.6 L681.083,1985.45 L681.437,1984.24 L684.327,1978.1 L683.508,1978.34 L681.714,1977.93 L679.2,1977.97 L678.48,1977.51 L677.354,1975.49 L675.363,1975.14 L674.286,1975.29 L675.26,1972.96 L675.602,1970.52 L675.051,1968.14 L677.401,1963.4 L678.001,1960.8 L677.095,1959.26 L677.811,1957.79 L676.644,1956.12 L679.913,1954.95 L683.834,1951.7 L684.941,1950.21 L685.534,1948.15 L687.138,1944.88 L686.88,1943.82 L685.464,1941.87 L683.955,1941.31 L682.703,1940.32 L681.946,1938.79 L685.79,1937.63 L686.43,1936.24 L687.247,1935.7 L688.764,1935.42 L689.798,1935.75 L691.05,1935.04 L693.74,1934.51 L696.52,1929.96 L700.187,1928.24 L700.847,1926.72 L702.079,1925.42 L703.296,1921.06 L702.625,1917.52 L705.299,1917.85 L705.453,1913.69 L706.903,1914.2 L708.493,1913.84 L708.712,1913.53 L708.434,1912.71 L708.706,1911.79 L709.267,1911.63 L709.86,1909.21 L709.709,1905.88 L709.411,1904.94 L709.663,1904.36 L712.61,1900.88 L713.082,1900.62 L713.709,1901 L714.34,1900.94 L714.363,1899.87 L715.179,1897.93 L716.326,1896.83 L718.424,1896.17 L719.303,1896.1 L720.154,1896.46 L720.537,1896.19 L720.694,1894.4 L722.026,1890.81 L723.966,1888.15 L724.783,1885.89 L723.793,1885.17 L722.833,1883.82 L724.802,1881.96 L725.101,1881.16 L726.159,1880.17 L725.106,1880.44 L722.487,1879.63 L717.685,1879.89 L716.392,1879.27 L714.48,1877.6 L711.506,1877.68 L709.426,1877.1 L708.673,1874.92 L708.761,1873.69 L709.58,1874.48 L710.858,1874.81 L712.491,1874.89 L713.532,1874.44 L713.719,1873.25 L714.146,1872.17 L714.81,1871.51 L715.759,1868.75 L715.325,1867.4 L714.016,1866.28 L714.007,1865.31 L714.52,1864.5 L714.38,1863.78 L712.735,1862.91 L713.245,1861.42 L712.707,1860.31 L713.577,1858.62 L713.575,1858.09 L716.373,1857.64 L716.946,1856.76 L714.5,1855.66 L714.027,1854.55 L714.071,1853.93 L715.223,1851.69 L715.763,1849.56 L715.852,1847.84 L715.333,1847.07 L716.914,1845.63 L717.309,1841.49 L717.089,1838.03 L716.649,1837.35 L716.688,1836.32 L717.946,1832.74 L718.519,1831.91 L718.617,1830.82 L719.928,1829.46 L723.801,1827.18 L725.648,1826.35 L726.5,1826.59 L726.644,1826.06 L727.627,1826.05 L728.625,1826.41 L729.125,1827.43 L731.345,1829.08 L734.019,1828.55 L735.194,1829.04 L735.718,1830.04 L739.12,1831.28 L740.261,1832.64 L745.102,1833.82 L746.137,1833.81 L750.053,1830.02 L753.201,1827.78 L754.408,1826.21 L756.033,1824.81 L757.597,1824.39 L760.192,1824.99 L764.504,1824.91 L764.323,1824.29 L767.582,1815.72 L766.584,1812.72 L766.716,1811.98 L768.01,1810.69 L768.882,1807.11 L771.918,1805.78 L773.068,1804.35 L774.105,1801.24 L773.878,1797.63 L775.801,1796.54 L777.234,1795.09 L781.453,1794.6 L782.872,1791.86 L784.642,1792.67 L785.518,1792.62 L787.67,1793.71 L788.267,1793.66 L791.87,1790.04 L791.181,1789.48 L791.813,1787.91 L791.144,1786.26 L791.779,1783.69 L791.155,1778.53 L791.525,1776.43 L790.791,1773.5 L791.278,1772.3 L791.899,1771.62 L795.389,1770.48 L798.712,1768.71 L801.245,1766.36 L803.427,1764.86 L805.374,1762.24 L809.22,1760.01 L808.44,1757.24 L808.71,1755.25 L809.865,1751.31 L811.227,1750.02 L811.33,1749.05 L810.338,1746.44 L807.46,1744.87 L805.148,1742.83 L804.957,1740.71 L804.463,1739.74 L800.282,1738.54 L799.3,1737.69 L798.525,1735.93 L795.969,1735.22 L793.66,1730.75 L791.233,1727.75 L790.886,1726.66 L792.116,1724.67 L793.1,1721.8 L793.38,1718.64 L792.697,1716.73 L791.37,1715.09 L790.775,1711.95 L789.849,1710.89 L788.416,1707.87 L788.412,1705.37 L788.079,1704.6 L787.261,1703.59 L786.518,1703.33 L785.811,1702.51 L784.967,1700.32 L784.874,1699.39 L785.601,1698.32 L785.352,1696.94 L785.799,1696.01 L785.676,1695.3 L784.139,1694.21 L782.742,1691.96 L778.371,1690.15 L774.468,1687.91 L773.424,1685.18 L772.73,1686.37 L770.438,1687.76 L768.644,1687.86 L767.015,1688.62 L765.42,1688.7 L761.589,1688.11 L757.158,1686.76 L756.377,1687.32 L753.258,1690.99 L752.118,1691.72 L746.94,1693.62 L745.313,1690.94 L744.571,1687.86 L743.737,1686.42 L743.005,1686.07 L742.308,1686.44 L739.266,1686.44 L736.822,1685.53 L735.79,1684.69 L734.097,1683.97 L732.15,1683.53 L730.567,1684.65 L728.731,1687.25 L723.786,1688.75 L721.019,1690.65 L717.973,1691.59 L716.672,1692.44 L715.744,1694.24 L715.591,1696.03 L714.859,1696.9 L712.561,1698.44 L705.817,1698.2 L702.014,1698.66 L700.676,1698.52 L699.657,1698.67 L696.687,1700.03 L694.15,1700.25 L692.991,1699.67 L692.278,1698.6 L692.075,1696.68 L690.649,1694.82 L688.743,1693.97 L684.741,1693.53 L682.866,1693.77 L681.408,1692.45 L678.729,1692.67 L676.498,1691.42 L673.193,1690.67 L670.846,1688.76 L668.49,1687.75 L664.838,1683.26 L662.977,1681.85 L659.318,1682.59 L657.161,1681.12 L654.85,1680.77 L652.914,1681.12 L648.449,1680.19 L645.259,1680.18 L644.776,1680.25 L644.669,1680.63 L645.531,1681.92 L648.335,1683.58 L649.065,1684.45 L649.277,1685.6 L650.783,1689.06 L650.936,1691.36 L646.962,1691.29 L643.474,1693.76 L640.564,1693.46 L639.853,1693.76 L638.529,1695.09 L637.186,1695.57 L634.181,1697.44 L633.074,1697.62 L632.204,1696.93 L631.966,1696.14 L629.735,1694.13 L627.339,1693.6 L625.502,1692.07 L621.963,1687.64 L620.841,1687.03 L620.238,1684.71 L617.82,1682.12 L610.546,1672.24 L609.365,1671.79 L603.723,1672.16 L603.152,1671.78 L601.703,1671.94 L600.096,1670.9 L595.372,1669.77 L594.343,1668.95 L590.881,1669.8 L589.53,1670.42 L586.993,1670.64 L584.425,1671.48 L578.495,1672.02 L576.027,1669.93 L575.006,1669.44 L572.722,1669.26 L570.327,1670.4 L568.331,1669.81 L561.226,1665.91 L560.173,1665.85 L552.457,1667.4 L551.309,1667.18 L547.424,1665.34 L545.983,1665 L544.018,1665.13 L542.288,1664.47 L539.073,1664.03 L537.218,1662.92 L536.066,1660.78 L535.513,1660.49 L535.041,1659.09 L533.748,1657.09 L527.862,1653.03 L526.935,1651.29 L526.743,1649.52 L526.02,1647.42 L526.538,1645.9 L526.486,1645.19 L525.093,1643.58 L524.537,1641.63 L524.805,1636.17 L524.506,1635.92 L520.502,1636.37 L514.266,1634.81 L511.533,1634.55 L510.354,1633.58 L509.198,1631.86 L506.338,1631.72 L503.406,1630.9 L502.144,1631.38 L498.403,1631.36 L497.602,1631.64 L496.322,1632.77 L494.439,1633.28 L492.96,1632.89 L490.839,1631.35 L489.592,1622.3 L488.898,1620.12 L488.905,1618.83 L488.235,1618.01 L487.697,1616.27 L489.533,1612.18 L489.586,1610.78 L488.828,1609.21 L488.699,1608.06 L489.157,1607.03 L489.409,1603.66 L490.73,1601.78 L490.294,1599.77 L491.717,1597.28 L492.668,1593.85 L492.747,1592.29 L491.199,1588.2 L489.025,1584.52 L489.336,1578.93 L488.645,1578.08 L486.702,1576.84 L486.106,1575.89 L486.396,1573.98 L484.479,1571.31 L485.469,1569.05 L488.313,1567.47 L488.696,1566.02 L488.409,1564.49 L487.149,1562.16 L486.664,1558.49 L484.827,1554.84 L488.23,1550.07 L488.486,1549.17 L490.834,1546.44 L491.014,1545.65 L490.752,1544.31 L491.155,1543.52 L490.924,1542.01 L492.778,1538.12 L493.908,1537.16 L498.564,1534.71 L501.661,1532.53 L499.641,1529.2 L500.238,1527.25 L503.786,1520.14 L503.533,1517.86 L501.995,1512.6 L502.227,1509.49 L503.686,1506.52 L504.596,1503.86 L507.245,1502.55 L508.348,1501.33 L511.484,1499.53 L510.619,1497.62 L509.873,1494.87 L506.669,1491.37 L505.949,1489.81 L505.949,1489.02 L506.434,1487.92 L510.582,1482.81 L511.154,1481.46 L510.964,1479.69 L509.864,1476.86 L508.648,1471 L508.26,1470.44 L506.545,1469.27 L506.223,1468.28 L506.089,1463.28 L506.466,1462.48 L507.509,1461.68 L511.559,1460.36 L515,1458.24 L516.382,1456.78 L516.902,1455.2 L517.966,1453.57 L519.496,1452.18 L520.122,1450.49 L520.765,1449.9 L524.486,1447.98 L526.702,1446.23 L529.472,1444.63 L531.257,1442.98 L537.498,1435.01 L538.713,1431.97 L546.685,1424.77 L546.896,1421.59 L545.87,1419.49 L544.644,1418.21 L544.811,1417.51 L547.336,1414.74 L549.209,1413.92 L549.947,1413.27 L551.065,1409.2 L554.365,1408.27 L556.444,1408.53 L556.301,1407.74 L554.231,1403.99 L553.569,1400.06 L556.694,1397.43 L560.151,1396.01 L563.183,1393.73 L564.323,1391.67 L564.368,1387 L564.054,1384.51 L564.387,1383.16 L567.656,1380.29 L568.415,1379.27 L568.361,1377.03 L566.442,1375.74 L565.657,1371.83 L564.306,1369.33 L564.164,1367.98 L564.497,1366.19 L563.969,1364.19 L564.914,1362.65 L565.569,1357.95 L566.271,1357.13 L568.93,1355.32 L569.616,1354.04 L569.407,1350.2 L568.59,1348.22 L568.855,1347.54 L571.316,1345.19 L571.227,1339.38 L570.667,1336.6 L570.8,1335.26 L572.873,1332.68 L573.98,1329.41 L575.408,1326.85 L578.379,1324.83 L579.967,1322.79 L579.326,1322.14 L578.36,1322 L578.573,1321.51 L574.006,1321.93 L572.377,1321.58 L566.045,1319.09 L560.562,1319.43 L558.804,1319.1 L556.705,1316.88 L553.199,1314.8 L550.119,1314.21 L546.812,1312.76 L545.961,1312.15 L544.9,1310.59 L543.907,1306.45 L542.78,1305.29 L542.748,1304.47 L543.44,1302.38 L543.795,1300.09 L543.747,1298.84 L543.062,1297.18 L542.819,1293.8 L544.031,1286.52 L541.273,1284.05 L537.945,1282.1 L535.112,1278.88 L534.944,1278.36 L535.075,1277.79 L537.092,1275.32 L538.405,1274.58 L539.247,1273.32 L539.544,1272.66 L539.707,1270.5 L540.572,1267.86 L542.629,1263.65 L542.618,1262.99 L539.605,1255.03 L539.702,1252.22 L542.228,1250.88 L544.239,1250.53 L549.129,1250.52 L553.49,1248.73 L554.959,1247.17 L558.607,1238.53 L558.86,1234.03 L562.697,1231.07 L566.121,1229.03 L569.373,1226.33 L570.209,1226.07 L572.813,1227.31 L575.568,1227.97 L578.384,1227.48 L581.197,1226.32 L585.011,1224.01 L586.88,1221.91 L587.429,1220.61 L588.558,1219.13 L588.859,1215.89 L588.868,1213.92 L587.362,1209.36 L587.143,1206.55 L591.602,1205.51 L591.888,1200.02 L591.495,1193.95 L591.026,1193.21 L590.915,1192.34 L587.158,1190.47 L587.002,1189.37 L587.526,1186.99 L587.517,1185.14 L586.886,1183.74 L588.509,1180.61 L590.791,1177.94 L592.086,1175.7 L595.818,1172.23 L597.271,1171.35 L600.225,1171.17 L601.906,1169.59 L605.02,1169.21 L610.5,1172.01 L612.528,1171.53 L613.772,1170.27 L614.179,1168.42 L615.668,1165.24 L618.471,1162.94 L622.085,1160.74 L623.665,1159.25 L623.996,1158.24 L623.909,1157.57 L620.966,1155.14 L619.101,1150.28 L618.741,1146.85 L619.785,1144.35 L622.37,1141.65 L625.433,1136.52 L628.618,1133.97 L633.235,1129.64 L635.591,1128.59 L640.57,1127.52 L643.324,1125.24 L643.931,1123.39 L647.825,1117.87 L651.401,1113.77 L651.239,1112.59 L649.357,1110.96 L649.275,1110.09 L649.737,1108.52 L650.553,1107 L648.003,1101.19 L644.317,1100.67 L640.165,1099.62 L639.481,1098.44 L634.945,1094.19 L633.222,1093.18 L631.422,1092.72 L629.705,1092.96 L626.424,1094.31 L624.945,1094.31 L622.516,1092.91 L621.893,1093.31 L620.605,1098.42 L619.137,1098.73 L614.799,1096.71 L612.37,1095.24 L609.954,1092.22 L609.46,1090.79 L606.424,1089.73 L603.578,1089.59 L600.755,1088.4 L597.954,1088.44 L595.234,1085.86 L593.372,1085.08 L590.1,1082.55 L587.931,1082.56 L584.599,1083.84 L583.814,1083.85 L581.683,1080.81 L580.509,1079.87 L573.803,1076.94 L568.483,1075.55 L565.178,1068.65 L562.438,1060.71 L555.774,1058.95 L553.546,1057.45 L552.127,1057.24 L550.985,1057.84 L548.334,1058.4 L546.85,1058.18 L543.948,1056.93 L539.676,1055.89 L538.331,1055.22 L537.045,1053.59 L536.198,1051.91 L535.977,1050.33 L532.139,1047.93 L530.994,1046.62 L533.724,1044.52 L541.716,1036.52 L544.155,1032.61 L545.045,1031.87 L545.22,1026.88 L544.02,1023.45 L546.918,1017.24 L549.356,1013.42 L549.333,1010.77 L548.249,1008.98 L548.601,1006.61 L549.71,1003.69 L549.486,1002.27 L549.914,1000.45 L549.954,997.788 L550.61,995.926 L548.887,985.114 L548.042,983.409 L546.301,981.602 L548.739,980.483 L551.168,983.156 L553.096,986.589 L554.284,989.844 L556.152,990.957 L556.996,985.84 L558.681,982.658 L559.957,981.96 L564.683,983.558 L570.52,983.779 L573.489,981.645 L574.681,980.264 L575.635,979.964 L575.617,979.452 L574.846,978.233 L573.088,976.198 L572.929,975.396 L577.347,970.59 L579.68,966.614 L578.985,965.081 L577.343,962.72 L577.951,960.27 L576.434,954.223 L577.401,952.671 L577.434,950.838 L578.926,948.618 L579.724,948.38 L580.608,946.13 L581.512,944.737 L582.477,939.824 L583.323,938.783 L586.233,936.619 L588.51,933.374 L592.544,931.591 L593.995,929.285 L594.809,928.805 L596.897,928.859 L599.303,928.294 L600.451,927.569 L602.074,924.962 L603.341,924.118 L606.383,922.897 L609.672,923.197 L610.841,921.608 L611.577,921.103 L622.141,916.468 L625.484,914.336 L627.484,910.175 L628.148,907.528 L628.122,905.848 L627.502,904.092 L624.573,900.749 L623.582,898.842 L623.66,895.504 L623.305,895.468 L625.418,893.665 L626.34,891.572 L628.408,889.382 L630.204,886.534 L631.442,883.622 L632.342,880.026 L633.601,877.343 L634.846,872.735 L636.285,870.508 L638.208,868.135 L641.791,864.896 L644.165,862.161 L650.778,857.388 L654.117,854.427 L662.31,851.576 L662.657,851.695 L664.649,854.448 L666.293,855.723 L672.289,856.046 L675.588,857.045 L677.253,857.988 L679.573,861.069 L683.786,859.847 L686.965,859.427 L689.029,859.477 L692.474,860.617 L694.206,860.675 L696.756,859.164 L700.607,856.191 L702.225,853.831 L700.448,852.585 L699.536,851.07 L699.517,848.181 L699.837,847.14 L702.777,842.7 L705.71,839.529 L706.982,835.087 L710.209,829.96 L710.236,828.928 L709.555,826.445 L709.669,821.997 L710.837,818.527 L709.607,816.247 L709.15,814.685 L711.176,813.517 L713.609,812.794 L716.966,809.247 L718.607,808.186 L722.616,807.071 L724.116,803.906 L724.321,802.346 L724.128,799.827 L730.154,800.282 L731.826,800.075 L733.38,799.406 L735.618,797.601 L737.638,794.873 L742.535,794.16 L743.815,793.678 L746.937,791.747 L749.526,788.163 L750.941,785.507 L754.715,783.847 L755.907,782.803 L756.616,780.76 L756.27,777.884 L756.579,776.421 L758.662,774.513 L758.984,772.743 L760.16,770.468 L760.313,768.987 L758.065,764.397 L757.946,763.542 L759.179,758.963 L758.903,752.242 L759.918,749.512 L761.972,746.386 L762.252,745.261 L761.775,742.181 L762.955,742.008 L763.958,740.379 L765.316,739.3 L768.968,738.518 L772.305,738.176 L774.64,738.439 L776.356,739.17 L778.492,738.715 L780.342,739.12 L782.814,737.992 L785.099,737.501 L787.847,737.773 L790.156,737.306 L795.824,734.808 L797.715,734.594 L801.022,732.91 L802.29,731.91 L812.615,726.745 L813.425,727.315 L818.005,732.754 L822.861,737.667 L826.272,738.631 L827.609,739.606 L831.038,746.728 L833.703,746.796 L838.664,745.859 L840.572,744.898 L843.16,744.185 L847.522,744.365 L850.936,742.943 L853.769,742.665 L855.561,739.944 L862.953,733.507 L864.505,730.562 L866.167,730.048 L868.313,728.559 L871.064,727.835 L872.867,724.207 L875.364,721.799 L877.043,720.833 L880.746,720.526 L884.637,718.265 L887.551,717.837 L889.385,717.097 L894.654,711.206 L898.794,711.876 L900.341,714.1 L901.125,714.495 L907.87,713.587 L912.506,710.901 L913.757,710.451 L915.068,710.819 L918.432,713.444 L918.81,713.455 L920.461,711.302 L922.449,709.974 L922.616,708.218 L925.679,704.599 L926.279,701.758 L926.764,700.826 L930.09,696.704 L933.111,695.371 L935.507,694.865 L935.871,694.545 L936.205,692.195 L937.855,689.595 L938.529,686.656 L939.087,685.895 L941.325,684.493 L943.07,681.429 L944.505,680.323 L946.019,679.837 L947.334,680.852 L948.373,682.413 L948.853,682.599 L953.919,683.115 L956.773,682.611 L959.14,682.674 L959.55,681.429 L959.799,678.794 L961.019,677.434 L961.497,675.932 L963.613,672.078 L968.43,671.289 L975.651,672.108 L980.144,671.613 L983.384,668.833 L986.395,667.41 L988.218,665.975 L989.594,665.442 L992.522,661.953 L995.281,659.408 L1002.1,658.166 L1004.59,658.169 L1006.72,655.515 L1007.75,652.438 L1011.12,649.969 L1010.83,643.728 L1012.1,641.298 L1011.95,639.934 L1012.51,637.212 L1013.74,634.57 L1015.29,633.108 L1016.29,628.595 L1015.86,624.49 L1017.03,623.546 L1019.92,623.462 L1022.76,624.657 L1027.5,622.675 L1028.06,622.677 L1029.22,623.682 L1030.47,625.405 L1033.84,627.976 L1034.64,628.08 L1037.58,627.366 L1038.3,627.489 L1039.32,628.48 L1040.46,628.757 L1042.65,630.177 L1044.41,632.589 L1047.58,631.817 L1050.94,631.807 L1051.89,630 L1053.34,628.31 L1053.64,626.149 L1057.8,623.717 L1058.78,622.237 L1059.79,622.216 L1063.11,624.742 L1064.34,625.257 L1069.92,626.64 L1071.76,626.543 L1075.36,627.089 L1077.21,627.063 L1077.07,627.541 L1078.62,626.769 L1081.01,624.59 L1087.65,623.943 L1089.32,623.199 L1093.18,620.459 L1093.7,619.52 L1092.89,615.687 L1092.03,613.328 L1092.72,611.83 L1094.74,610.461 L1096.25,608.334 L1098.82,606.352 L1099.62,604.51 L1100.09,604.125 L1101.23,600.583 L1102.51,598.663 L1106.68,595.312 L1105.9,594.161 L1104.97,591.129 L1102.27,588.832 L1101.65,587.485 L1102.77,585.489 L1105.52,578.234 L1106.45,576.826 L1107.64,576.065 L1108.7,575.903 L1114.5,575.854 L1118.14,575.082 L1120.89,578.771 L1121.83,579.185 L1124.56,579.33 L1127.12,580.001 L1129.72,580.208 L1131.67,579.341 L1134.04,579.347 L1137.67,577.443 L1139.94,575.084 L1143.02,570.737 L1144.69,569.245 L1146.46,568.59 L1150.39,568.317 L1155.18,565.943 L1160.76,566.023 L1161.6,565.635 L1163.18,563.844 L1164.6,561.559 L1168.08,557.712 L1169.71,553.779 L1172.88,555.145 L1175.13,555.251 L1177.32,555.85 L1178.79,555.919 L1181.94,557.531 L1182.87,557.415 L1186.17,557.856 L1187.63,558.898 L1188.35,558.939 L1188.99,557.373 L1190.94,554.515 L1194.59,553.433 L1195.82,550.602 L1196.68,549.564 L1197.32,547.54 L1196.68,544.949 L1196.11,544.065 L1196.33,542.23 L1196.85,541.467 L1199.93,540.072 L1202.18,537.166 L1201.65,535.71 L1201.08,530.78 L1201.25,529.72 L1202.93,526.92 L1202.15,521.15 L1204.25,516.704 L1212.93,515.412 L1220.55,510.259 L1223.06,510.535 L1225.75,509.517 L1229.03,508.879 L1229.62,506.04 L1230.17,505.497 L1234.48,503.386 L1236.62,504.419 L1237.59,504.578 L1238.77,504.255 L1240.54,502.951 L1241.75,501.431 L1244.97,500.153 L1252.64,503.618 L1255.37,504.133 L1258.09,504.012 L1260.16,505.473 L1261.55,507.785 L1262.16,508.231 L1263.82,507.179 L1265.96,504.732 L1270.77,500.332 L1273.15,496.598 L1275.35,495.893 L1277.56,496.173 L1278.56,495.805 L1280.85,492.215 L1282.23,491.543 L1282.73,489.91 L1282.38,487.178 L1284.56,484.833 L1289.89,484.437 L1298.94,485.212 L1300.25,479.846 L1305.08,480.933 L1305.68,481.492 L1306.82,481.398 L1309.15,482.245 L1310.09,482.004 L1311.78,480.963 L1314.3,482.022 L1317.13,483.811 L1321.69,480.818 L1323.77,481.552 L1326.3,483.1 L1329.2,484.186 L1330.3,484.145 L1331.7,482.182 L1333.69,480.603 L1336.64,479.809 L1337.19,479.294 L1337.87,478.442 L1339.14,475.314 L1339.36,473.965 L1340.01,473.787 L1341.85,474.226 L1344.47,473.993 L1346.47,475.63 L1348.11,476.025 L1350,475.902 L1351.97,474.954 L1352.98,475.117 L1355.54,476.367 L1356.35,477.045 L1356.92,478.43 L1357.65,478.887 L1363.08,478.161 L1363.69,478.234 L1366.61,479.916 L1368.36,480.38 L1369.97,480.232 L1371.8,479.072 L1372.19,477.443 L1372,473.457 L1372.38,472.643 L1372.92,471.791 L1375.29,470.096 L1377.54,469.308 L1379.66,469.547 L1382.21,468.13 L1383.89,468.778 L1384.66,468.765 L1385.21,468.605 L1386.52,467.244 L1389.56,466.231 L1391.45,465.899 L1392.9,466.008 L1393.56,465.297 L1393.47,462.731 L1393.8,461.517 L1393.43,460.299 L1394,459.061 L1394.58,458.791 L1395.84,456.952 L1397.14,454.58 L1398.12,454.029 L1400.19,453.659 L1401.81,450.53 L1403.34,449.068 L1404.81,447.101 L1408.56,445.505 L1408.93,445.052 L1408.93,444.133 L1408.61,443.655 L1408.9,441.631 L1409.65,440.242 L1412.74,437.333 L1415.28,431.748 L1416.75,425.725 L1417.69,423.903 L1419.21,424.723 L1421.82,429.433 L1423.34,431.025 L1424.27,431.432 L1425.47,429.89 L1428,428.578 L1428.99,428.503 L1434.52,429.497 L1435.72,429.181 L1436.82,428.301 L1439.09,427.334 L1442.15,426.781 L1443.77,426.78 L1446.04,427.386 L1449.82,429.297 L1454.7,429.559 L1456.19,430.131 L1461.32,433.265 L1464.2,433.472 L1467.46,434.29 L1470.8,436.762 L1472.35,437.455 L1478.75,437.904 L1488.21,441.879 L1489.75,442.121 L1491.15,441.033 L1492.26,439.308 L1492.9,439.224 L1497.03,439.964 L1502.73,439.764 L1507.95,441.156 L1515.63,440.934 L1512.12,437.65 L1511.49,436.688 L1510.86,433.455 L1510.75,430.89 L1511.51,422.414 L1510.61,417.432 L1508.18,412.943 L1508.01,412.089 L1508.12,408.594 L1508.92,405.671 L1508.98,402.336 L1509.7,399.211 L1511.33,396.608 L1512.23,392.971 L1512.39,390.288 L1512.05,386.552 L1513.95,383.194 L1514.31,380.683 L1513.11,378.882 L1509.73,376.366 L1503.81,373.361 L1503.6,372.214 L1504.04,365.741 L1503.41,363.785 L1501.21,360.013 L1501.15,358.997 L1502.48,356.784 L1504.09,355.376 L1508.73,353.283 L1509.05,352.181 L1509.31,346.876 L1510.11,345.096 L1512.51,343.001 L1516.27,341.781 L1528.3,333.887 L1529.03,332.443 L1528.26,329.983 L1528.29,326.492 L1530.34,325.581 L1531.51,324.571 L1535.84,314.64 L1538.62,314.607 L1541.25,315.474 L1550.89,315.782 L1552.35,310.942 L1556.43,308.005 L1560.16,306.306 L1565,301.151 L1566.29,300.269 L1568.15,299.926 L1568.91,299.51 L1569.64,299.865 L1570.37,301.178 L1572.57,302.835 L1577.3,305.58 L1579.89,305.325 L1583.5,304.401 L1587.47,303.812 L1590.35,302.023 L1591.88,299.136 L1594.58,297.793 L1597.75,294.794 L1598.72,291.804 L1602.71,286.068 L1605.27,284.068 L1606.66,281.938 L1607.81,279.225 L1610.91,278.523 L1613.96,278.373 L1616.68,279.516 L1620.03,281.41 L1630.08,282.375 L1631.8,281.738 L1632.3,281.01 L1634.38,279.368 L1638.78,278.233 L1646.7,272.482 L1649,271.802 L1653.01,272.032 L1655.96,268.523 L1661.22,266.849 L1663.59,264.8 L1666.67,263.539 L1669.2,263.209 L1670.18,263.487 L1675.59,262.561 L1677.81,262.677 L1682.25,261.825 L1682.89,261.98 L1685.79,264.255 L1688.21,268.314 L1688.56,269.899 L1689.79,271.739 L1691.57,273.353 L1693.77,274.785 L1700.37,277.622 L1701.27,277.692 L1703.58,276.768 L1704.58,276.663 L1711.61,278.481 L1713.13,277.77 L1714.59,276.05 L1718.75,272.951 L1720.16,271.248 L1723.43,270.04 L1729.3,267.142 L1730.26,267.236 L1734.45,269.544 L1737.27,269.515 L1741.88,268.122 L1743.99,265.671 L1746.64,263.991 L1747.98,262.732 L1749.14,262.502 L1756.52,262.924 L1764.95,264.289 L1769.29,265.455 L1772.02,262.099 L1775,260.959 L1782.21,260.961 L1784.43,259.739 L1786.25,259.588 L1788.05,258.797 L1791.13,258.781 L1794.37,260.072 L1797.47,260.938"/>
  </g>
  <g stroke-width="1" transform="matrix(0.999744,0,0,0.999744,0,0)" stroke-opacity="1" font-size="34.5833" fill="none" stroke-linejoin="bevel" font-style="normal" stroke-linecap="square" stroke="#000000" font-family="MS Shell Dlg 2" font-weight="400"/>
  <g stroke-width="1" transform="matrix(11.808,0,0,11.808,0,0)" stroke-opacity="1" font-size="34.5833" fill="none" stroke-linejoin="bevel" font-style="normal" stroke-linecap="square" stroke="#000000" font-family="MS Shell Dlg 2" font-weight="400"/>
  <g stroke-width="1" transform="matrix(11.808,0,0,11.808,0,0)" stroke-opacity="1" font-size="34.5833" fill="none" stroke-linejoin="bevel" font-style="normal" stroke-linecap="square" stroke="#000000" font-family="MS Shell Dlg 2" font-weight="400"/>
  <g stroke-width="1" transform="matrix(11.808,0,0,11.808,0,0)" stroke-opacity="1" font-size="34.5833" fill="none" stroke-linejoin="bevel" font-style="normal" stroke-linecap="square" stroke="#000000" font-family="MS Shell Dlg 2" font-weight="400"/>
  <g stroke-width="1" transform="matrix(1,0,0,1,0,0)" stroke-opacity="1" font-size="34.5833" fill="none" stroke-linejoin="bevel" font-style="normal" stroke-linecap="square" stroke="#000000" font-family="MS Shell Dlg 2" font-weight="400"/>
  <g stroke-width="1" transform="matrix(11.808,0,0,11.808,0,0)" stroke-opacity="1" font-size="34.5833" fill="none" stroke-linejoin="bevel" font-style="normal" stroke-linecap="square" stroke="#000000" font-family="MS Shell Dlg 2" font-weight="400"/>
  <g stroke-width="1" transform="matrix(11.808,0,0,11.808,0,0)" stroke-opacity="1" font-size="34.5833" fill="none" stroke-linejoin="bevel" font-style="normal" stroke-linecap="square" stroke="#000000" font-family="MS Shell Dlg 2" font-weight="400"/>
  <g stroke-width="1" transform="matrix(11.808,0,0,11.808,0,0)" stroke-opacity="1" font-size="34.5833" fill="none" stroke-linejoin="bevel" font-style="normal" stroke-linecap="square" stroke="#000000" font-family="MS Shell Dlg 2" font-weight="400"/>
  <g stroke-width="1" transform="matrix(11.808,0,0,11.808,0,0)" stroke-opacity="1" font-size="34.5833" fill="none" stroke-linejoin="bevel" font-style="normal" stroke-linecap="square" stroke="#000000" font-family="MS Shell Dlg 2" font-weight="400"/>
  <g stroke-width="1" transform="matrix(1,0,0,1,0,0)" stroke-opacity="1" font-size="34.5833" fill="none" stroke-linejoin="bevel" font-style="normal" stroke-linecap="square" stroke="#000000" font-family="MS Shell Dlg 2" font-weight="400"/>
 </g>
</svg>
