<?xml version='1.0' encoding='UTF-8' standalone='no'?>
<svg xmlns:xlink="http://www.w3.org/1999/xlink" baseProfile="tiny" xmlns="http://www.w3.org/2000/svg" height="249.936mm" viewBox="0 0 2952 2952" width="249.936mm" version="1.2">
 <title>Qt SVG Document</title>
 <desc>Generated with Qt</desc>
 <defs/>
 <g stroke-width="1" fill-rule="evenodd" fill="none" stroke-linejoin="bevel" stroke-linecap="square" stroke="black">
  <g stroke-width="1" transform="matrix(1,0,0,1,0,0)" stroke-opacity="1" font-size="34.5833" fill="none" stroke-linejoin="bevel" font-style="normal" stroke-linecap="square" stroke="#000000" font-family="MS Shell Dlg 2" font-weight="400"/>
  <g stroke-width="1" transform="matrix(1,0,0,1,0,0)" stroke-opacity="1" font-size="34.5833" fill="none" stroke-linejoin="bevel" font-style="normal" stroke-linecap="square" stroke="#000000" font-family="MS Shell Dlg 2" font-weight="400"/>
  <g stroke-width="1" transform="matrix(11.808,0,0,11.808,0,0)" stroke-opacity="1" font-size="34.5833" fill="none" stroke-linejoin="bevel" font-style="normal" stroke-linecap="square" stroke="#000000" font-family="MS Shell Dlg 2" font-weight="400"/>
  <g stroke-width="1" transform="matrix(0.999744,0,0,0.999744,0,0)" stroke-opacity="1" font-size="34.5833" fill="none" stroke-linejoin="bevel" font-style="normal" stroke-linecap="square" stroke="#000000" font-family="MS Shell Dlg 2" font-weight="400"/>
  <g transform="matrix(0.999744,0,0,0.999744,0,0)" font-size="34.5833" fill-opacity="0" fill="#ffffff" font-style="normal" stroke="none" font-family="MS Shell Dlg 2" font-weight="400">
   <path fill-rule="evenodd" vector-effect="none" d="M-2,-2 L2955,-2 L2955,2955 L-2,2955 L-2,-2"/>
  </g>
  <g stroke-width="1" transform="matrix(0.999744,0,0,0.999744,0,0)" stroke-opacity="1" font-size="34.5833" fill="none" stroke-linejoin="bevel" font-style="normal" stroke-linecap="square" stroke="#000000" font-family="MS Shell Dlg 2" font-weight="400"/>
  <g stroke-width="1" transform="matrix(11.808,0,0,11.808,0,0)" stroke-opacity="1" font-size="34.5833" fill="none" stroke-linejoin="bevel" font-style="normal" stroke-linecap="square" stroke="#000000" font-family="MS Shell Dlg 2" font-weight="400"/>
  <g stroke-width="1" transform="matrix(11.808,0,0,11.808,0,0)" stroke-opacity="1" font-size="34.5833" fill="none" stroke-linejoin="bevel" font-style="normal" stroke-linecap="square" stroke="#000000" font-family="MS Shell Dlg 2" font-weight="400"/>
  <g stroke-width="1" transform="matrix(11.808,0,0,11.808,0,0)" stroke-opacity="1" font-size="34.5833" fill="none" stroke-linejoin="bevel" font-style="normal" stroke-linecap="square" stroke="#000000" font-family="MS Shell Dlg 2" font-weight="400"/>
  <g stroke-width="1" transform="matrix(11.808,0,0,11.808,0,0)" stroke-opacity="1" font-size="34.5833" fill="none" stroke-linejoin="bevel" font-style="normal" stroke-linecap="square" stroke="#000000" font-family="MS Shell Dlg 2" font-weight="400"/>
  <g stroke-width="1" transform="matrix(11.808,0,0,11.808,0,0)" stroke-opacity="1" font-size="34.5833" fill="none" stroke-linejoin="bevel" font-style="normal" stroke-linecap="square" stroke="#000000" font-family="MS Shell Dlg 2" font-weight="400"/>
  <g transform="matrix(11.808,0,0,11.808,0,0)" font-size="34.5833" fill-opacity="0" fill="#ffffff" font-style="normal" stroke="none" font-family="MS Shell Dlg 2" font-weight="400">
   <path fill-rule="evenodd" vector-effect="none" d="M0,0 L250,0 L250,250 L0,250 L0,0"/>
  </g>
  <g stroke-width="1" transform="matrix(11.808,0,0,11.808,0,0)" stroke-opacity="1" font-size="34.5833" fill="none" stroke-linejoin="bevel" font-style="normal" stroke-linecap="square" stroke="#000000" font-family="MS Shell Dlg 2" font-weight="400"/>
  <g stroke-width="1" transform="matrix(11.808,0,0,11.808,0,0)" stroke-opacity="1" font-size="34.5833" fill="none" stroke-linejoin="bevel" font-style="normal" stroke-linecap="square" stroke="#000000" font-family="MS Shell Dlg 2" font-weight="400"/>
  <g transform="matrix(0.999744,0,0,0.999744,0,0)" font-size="34.5833" fill-opacity="0" fill="#000000" font-style="normal" stroke="none" font-family="MS Shell Dlg 2" font-weight="400">
   <rect x="0" height="2953" width="2953" y="0"/>
  </g>
  <g stroke-width="1" transform="matrix(0.999744,0,0,0.999744,0,0)" stroke-opacity="1" font-size="34.5833" fill="none" stroke-linejoin="bevel" font-style="normal" stroke-linecap="square" stroke="#000000" font-family="MS Shell Dlg 2" font-weight="400"/>
  <g stroke-width="3.07087" transform="matrix(0.999744,0,0,0.999744,0,0)" stroke-opacity="1" font-size="34.5833" fill-opacity="1" fill="#c5c5c5" stroke-linejoin="bevel" font-style="normal" stroke-linecap="square" stroke="#5c5c5c" font-family="MS Shell Dlg 2" font-weight="400">
   <path fill-rule="evenodd" vector-effect="none" d="M983.918,585.307 L985.234,586.864 L986.423,587.438 L990.406,591.354 L994.763,593.686 L998.819,595.012 L1000.23,595.167 L1003.82,597.201 L1005.12,597.223 L1011,598.883 L1012.83,600.152 L1016.5,601.587 L1017.25,601.814 L1019.91,601.152 L1021.63,601.126 L1026.92,603.398 L1028.99,604.883 L1036.61,606.482 L1038.53,607.477 L1039.4,609.345 L1041.47,611.698 L1045.38,613.957 L1048.04,615.112 L1050,615.093 L1052.57,615.969 L1054.3,615.494 L1057.9,613.895 L1058.47,613.978 L1063.52,615.35 L1066.34,615.769 L1068.18,617.027 L1069.7,617.17 L1075.96,619.53 L1083.22,623.242 L1091.91,628.473 L1099.06,633.78 L1100.47,634.511 L1102.26,636.594 L1103.98,637.107 L1104.57,636.798 L1105.62,637.222 L1105.99,638.212 L1106.89,638.122 L1106.9,639.279 L1107.34,639.729 L1108.21,639.96 L1108.82,641.092 L1108.81,641.979 L1109.66,642.532 L1109.84,643.74 L1110.65,644.897 L1111.63,645.064 L1113.63,646.143 L1114.93,647.737 L1117.26,648.341 L1119.55,651.298 L1119.93,652.288 L1120.03,653.998 L1120.81,654.654 L1120.81,656.004 L1121.98,657.126 L1121.77,658.216 L1122.12,660.038 L1125.13,662.112 L1125.49,663.242 L1125.96,663.56 L1126.41,665.627 L1125.26,667.345 L1124.63,670.097 L1123.83,670.184 L1123.28,671.818 L1123.57,672.985 L1122.83,673.618 L1122.07,676.991 L1121.53,677.354 L1120.98,678.994 L1118.1,680.693 L1117.27,682.217 L1117.34,683.558 L1116.38,683.965 L1115.93,684.957 L1112.64,688.1 L1113,688.591 L1114.53,689.14 L1114.61,690.663 L1115.04,691.062 L1114.74,693.531 L1113.83,695.82 L1114.47,697.962 L1114.3,698.199 L1113.26,697.83 L1111.56,698.767 L1111.57,699.21 L1112.23,700.218 L1112.38,701.401 L1112.18,702 L1109.84,703.112 L1108.07,703.316 L1106.88,704.478 L1107,707.264 L1107.66,707.922 L1108.86,710.143 L1108.38,711.65 L1108.35,713.605 L1105.76,715.547 L1105.83,715.836 L1107.57,716.875 L1108.28,717.899 L1108.74,719.726 L1109.83,720.946 L1109.83,722.449 L1110.12,723.323 L1110.6,723.863 L1112.39,724.742 L1114.43,726.821 L1115.47,727.325 L1115.51,728.129 L1115.02,729.894 L1116.62,731.31 L1118.41,734.027 L1117.51,736.689 L1117.59,737.067 L1118.44,737.685 L1119.87,739.446 L1119.85,740.898 L1120.47,742.046 L1120.38,743.396 L1120.85,744.099 L1123.24,745.465 L1125.53,750.421 L1126.23,752.827 L1125.92,753.635 L1125.72,756.107 L1126.13,756.86 L1126.48,758.865 L1125.85,760.751 L1127.97,760.278 L1128.13,758.863 L1129.04,758.27 L1130.05,757.008 L1129.42,755.979 L1129.45,754.583 L1130.02,753.487 L1129.82,752.642 L1130.88,750.843 L1131.78,750.654 L1132.83,750.951 L1133.33,750.32 L1136.27,749.882 L1138.55,750.53 L1139.5,751.588 L1140.3,751.976 L1141.51,752.093 L1143.61,753.311 L1144.42,754.048 L1145.23,755.58 L1147.66,757.01 L1150.14,759.515 L1151.54,759.684 L1154.43,760.716 L1154.89,762.613 L1155.5,762.985 L1155.62,763.408 L1155.94,763.4 L1155.77,764.202 L1158.88,766.312 L1159.37,767.378 L1160.06,767.996 L1161.17,768.028 L1162.51,766.947 L1166.4,765.721 L1167.35,765.783 L1169.02,766.443 L1170.4,765.742 L1172.13,765.403 L1172.72,765.82 L1173.27,765.716 L1174.91,763.964 L1175.97,763.513 L1179.22,764.396 L1180.62,762.675 L1182.7,762.336 L1185.4,762.854 L1187.15,763.773 L1188.52,764.854 L1191.12,767.904 L1192.08,768.449 L1194.58,767.77 L1196.45,767.723 L1197.23,766.563 L1197.74,763.83 L1198.42,762.57 L1201.65,759.667 L1203.64,756.243 L1205.22,754.17 L1206.96,750.066 L1207.14,748.445 L1207.71,746.877 L1207.25,744.294 L1207.78,740.629 L1207.47,739.092 L1206.76,738.1 L1206.44,736.897 L1205.95,733.705 L1205.47,732.397 L1204.63,731.8 L1205.66,731.099 L1208.66,730.474 L1209.46,731.033 L1211.33,731.241 L1211.31,731.002 L1215.03,728.609 L1217.01,729.077 L1219.07,730.23 L1221.22,729.228 L1222.35,726.782 L1222.39,724.947 L1222.72,724.54 L1223,722.968 L1224.28,722.14 L1224.82,721.372 L1224.68,719.171 L1225.13,716.279 L1226.68,713.049 L1228.22,711.89 L1229.88,710.007 L1231.26,709.401 L1232.52,708.379 L1233.11,707.566 L1233.44,705.852 L1236.43,704.643 L1236.98,704.567 L1239.27,706.751 L1240.79,709.974 L1241.7,710.169 L1243.42,709.4 L1244.4,710.149 L1245.28,710.411 L1248.55,710.614 L1251.06,712.656 L1252.21,713.101 L1253.63,713.444 L1256.74,713.374 L1258.95,713.688 L1261.45,715.669 L1265.63,717.873 L1266.54,719.026 L1271.2,721.497 L1273.12,723.544 L1274.83,723.222 L1276.17,721.108 L1277.46,720.83 L1284.49,722.161 L1285.06,722.347 L1286,723.244 L1287.03,723.633 L1293.29,724.201 L1294.82,725.623 L1296.64,724.186 L1298.82,723.198 L1305.33,723.392 L1305.93,721.704 L1306.92,720.399 L1307.86,719.692 L1308.76,719.439 L1309.84,719.757 L1314.34,719.287 L1318.6,716.941 L1321.17,713.483 L1322.06,712.897 L1324.46,712.682 L1326.5,713.625 L1327.85,715.179 L1328.21,716.532 L1327.18,719.238 L1327.31,719.678 L1327.77,719.938 L1330.66,720.359 L1331.81,719.226 L1339.32,718.17 L1342.1,717.042 L1342.59,717.103 L1344,718.802 L1347.42,719.488 L1349.79,721.968 L1351.76,723.331 L1351.32,725.01 L1354.73,727.052 L1357.97,729.64 L1359.18,729.923 L1361.92,729.182 L1366.2,731.156 L1366.96,730.835 L1368.35,729.018 L1371.43,727.558 L1371.46,726.611 L1373.29,723.966 L1374.07,722.072 L1374.88,717.912 L1375.21,717.473 L1376.89,716.901 L1378.95,715.32 L1381.71,715.304 L1383.45,714.374 L1384.36,714.434 L1388.56,716.052 L1390.18,716.173 L1391.04,715.89 L1392.15,714.596 L1393.36,711.9 L1394.24,711.141 L1394.78,711.016 L1395.32,711.32 L1397.16,714.292 L1400.57,716.557 L1401.88,717.002 L1404.21,716.961 L1405.73,717.608 L1406.4,718.437 L1406.91,721.552 L1408.69,723.758 L1410.29,724.855 L1413.15,725.395 L1413.81,725.78 L1414.77,727.072 L1415.09,728.609 L1414.7,731.44 L1415.51,733.077 L1417.01,734.675 L1418.53,735.787 L1423.37,738.153 L1427.55,739.116 L1430.67,737.581 L1432.81,737.537 L1436.81,736.11 L1436.91,738.071 L1435.85,742.317 L1434.08,747.453 L1433.2,748.873 L1431.58,749.293 L1430.91,750.284 L1430.4,751.8 L1430.18,753.943 L1429.07,755.561 L1428.36,758.796 L1426.81,760.251 L1426.86,761.343 L1427.5,762.839 L1426.57,764.739 L1426.47,765.932 L1426.84,767.084 L1428.02,768.783 L1427.2,769.773 L1423.27,772.884 L1422.71,773.675 L1422.66,774.443 L1423.4,776.424 L1424.35,777.764 L1424.42,782.483 L1424.87,785.011 L1424.83,789.741 L1424.23,792.212 L1424.5,793.97 L1424.08,795.414 L1425.19,799.415 L1424.47,802.47 L1424.68,803.493 L1425.36,804.683 L1425.34,807.796 L1426.19,809.303 L1425.92,811.37 L1427.55,813.888 L1429.11,815.193 L1430.52,817.374 L1432.52,819.342 L1433.14,820.309 L1433.83,822.646 L1436.61,824.851 L1440.97,825.531 L1444.8,828.063 L1447.62,829.504 L1451.28,829.936 L1454.74,830.873 L1456.55,830.673 L1460.85,829.061 L1465.34,825.842 L1467.24,824.047 L1467.94,823.763 L1469.34,824.531 L1474.01,828.553 L1479.46,831.505 L1481.27,829.582 L1483.4,827.855 L1488.96,825.92 L1492.2,824.082 L1495.69,820.503 L1496.16,820.347 L1497.88,820.776 L1502.44,822.805 L1507.79,823.566 L1510.19,823.502 L1514.79,822.352 L1517.29,820.289 L1522.39,817.544 L1525.94,817.685 L1527.12,818.001 L1528.2,818.708 L1530.67,822.377 L1531.52,822.941 L1532.65,822.932 L1535.14,824.069 L1536.62,824.294 L1538.96,823.457 L1540.8,822.446 L1541.56,822.446 L1546.84,826.662 L1547.68,828.004 L1551.54,829.884 L1553.85,829.308 L1555.5,829.369 L1557.32,829.83 L1559.79,831.079 L1561.71,831.548 L1563.33,828.695 L1563.76,826.488 L1565.43,824.487 L1566.23,821.59 L1566.92,820.871 L1568.06,817.476 L1568.89,816.174 L1569.02,814.031 L1570.4,809.68 L1574.44,804.271 L1574.46,801.279 L1575.05,800.043 L1575.22,797.841 L1577.02,792.705 L1577.04,791.397 L1576.35,788.552 L1576.41,787.191 L1580.21,783.875 L1579.71,782.007 L1579.98,780.046 L1579.48,778.054 L1580.16,774.79 L1580.75,773.665 L1582.26,773.453 L1585.11,773.628 L1587.58,772.321 L1588.47,770.799 L1589.53,769.874 L1593.3,768.818 L1593.72,766.199 L1595.33,762.878 L1595.91,759.967 L1599.97,761.018 L1601.71,761.088 L1602.68,760.756 L1603.89,758.928 L1607.35,756.221 L1607.97,755.129 L1608.97,751.631 L1609.74,750.828 L1610.81,750.51 L1612.36,750.867 L1614.97,747.406 L1617.23,746.273 L1619.29,744.757 L1620.5,743.443 L1622.09,739.904 L1623.47,738.105 L1624.35,734.95 L1627.83,735.804 L1632.38,735.707 L1634.98,737.448 L1638.87,736.47 L1641.99,736.406 L1643.65,737.048 L1646.64,738.942 L1650.53,739.674 L1654,739.209 L1656.67,739.375 L1662.05,736.696 L1665.42,736.58 L1665.52,734.614 L1665.65,736.538 L1666.71,738.886 L1673.99,748.032 L1676.34,749.585 L1677.9,749.576 L1680.07,748.7 L1681.23,747.79 L1682.44,745.266 L1683.49,744.813 L1684.62,744.787 L1687.12,745.587 L1693.41,749.683 L1698.68,751.875 L1702.01,752.482 L1706.52,755.157 L1714.74,752.267 L1720.89,752.628 L1723.66,753.328 L1725.32,754.937 L1728.61,756.427 L1730.94,758.153 L1733.92,758.964 L1736.84,760.259 L1738.39,761.5 L1741.62,760.898 L1744.67,759.205 L1746.14,759.029 L1749.94,757.708 L1755.3,758.155 L1757.03,758.674 L1761.51,758.317 L1766.59,760.521 L1769.16,762.239 L1770.85,766.12 L1774.42,768.043 L1776.65,770.05 L1778.66,770.94 L1780.01,772.153 L1782.5,773.528 L1787.33,778.358 L1788.56,782.239 L1789.76,791.153 L1789.61,797.803 L1790.16,800.987 L1791.31,802.434 L1792.15,802.917 L1791.36,803.847 L1790.75,806.778 L1789.81,808.738 L1789.91,818.622 L1791.88,819.673 L1796.27,824.113 L1798.13,825.561 L1800.38,826.913 L1805.04,828.264 L1808.49,830.101 L1813.89,832.202 L1815.45,832.574 L1817.14,832.571 L1819.88,831.356 L1821.61,831.44 L1822.54,832.97 L1822.91,834.708 L1823.84,836.85 L1825.24,838.993 L1825.28,840.271 L1828.66,842.49 L1832.75,848.138 L1836.07,846.641 L1842.8,842.186 L1844.71,841.823 L1847.42,842.571 L1849.22,843.45 L1852.04,842.116 L1853.48,840.979 L1854.38,840.814 L1856.64,841.812 L1860.46,840.75 L1861.56,840.888 L1864,842.106 L1865.13,842.983 L1865.77,843.858 L1865.73,845.559 L1866.31,847.538 L1868.24,848.25 L1869.61,849.397 L1872.71,849.659 L1873.21,849.56 L1876.57,846.582 L1880.24,844.63 L1883.15,844.573 L1885.79,843.944 L1889.35,842.21 L1891.06,841.074 L1894.11,838.162 L1895,837.748 L1900.79,838.639 L1903.26,839.622 L1905.13,841.443 L1906.2,841.783 L1911.36,843.09 L1913.75,843.12 L1915.79,843.941 L1917.28,844.124 L1917.96,853.388 L1918.44,856.351 L1918.72,856.641 L1918.9,859.146 L1920.04,860.087 L1921.38,861.985 L1922.51,861.974 L1924.99,861.188 L1926.4,860.412 L1927.48,859.11 L1928.44,858.508 L1933.19,857.864 L1935.38,859.718 L1940.48,862.403 L1941.81,862.673 L1945.86,867.865 L1946.94,868.55 L1947.71,868.472 L1948.15,868.957 L1950.24,874.271 L1952.01,877.665 L1954.34,880.454 L1957.26,882.656 L1957.8,884.838 L1958.3,885.667 L1962.54,888.079 L1963.78,887.865 L1966.91,886.632 L1972.4,886.929 L1974.02,887.498 L1975.52,889.203 L1979.4,895.345 L1980.09,896.88 L1980.63,897.587 L1983.67,899.749 L1984.98,901.83 L1986.11,904.53 L1986.92,905.224 L1988.22,905.002 L1990.01,903.838 L1994.5,897.45 L1996.7,891.914 L1999.23,889.344 L2001.41,888.055 L2005.58,886.501 L2008.34,884.212 L2009.17,884.01 L2010.35,884.205 L2014.01,882.443 L2015.49,881.04 L2019.89,878.556 L2021.79,875.211 L2023.1,874.082 L2024.34,873.456 L2026.1,873.402 L2029.16,874.495 L2030.5,874.13 L2031.53,874.311 L2034.47,876.05 L2038.94,877.36 L2042.02,877.382 L2043.21,878.609 L2044.89,879.1 L2046.19,878.816 L2047.64,879.16 L2054.2,883.018 L2063.41,880.419 L2065.23,877.401 L2065.9,877.24 L2070.14,877.899 L2074.84,876.082 L2076.19,875.017 L2082.55,873.138 L2086.83,870.814 L2088.53,868.904 L2088.57,868.258 L2088.61,868.853 L2088.89,868.676 L2091.49,869.993 L2093.94,872.055 L2096.71,879.943 L2097.14,882.007 L2097.04,883.859 L2095.92,886.276 L2095.82,887.161 L2096.14,893.779 L2095.59,895.443 L2095.06,896.19 L2094.88,897.625 L2098.32,903.584 L2100.31,906.392 L2104.32,910.23 L2106.97,913.341 L2110.75,916.917 L2112.38,918.068 L2114.76,920.694 L2116.65,921.967 L2117.14,922.512 L2118.05,925.098 L2118.98,925.967 L2122.94,927.36 L2124.12,929.986 L2126.23,930.652 L2128.63,930.329 L2131.7,928.77 L2133.58,928.307 L2135.09,927.023 L2137.4,925.942 L2138.61,925.476 L2139.18,925.744 L2139.33,928.37 L2140.43,935.197 L2139.74,941.095 L2139.01,943.115 L2138.88,945.74 L2139.42,949.174 L2139.4,951.799 L2138.17,955.717 L2138.86,959.756 L2138.61,962.664 L2139.06,963.593 L2141.98,965.835 L2142.74,966.825 L2143.38,969.026 L2143.26,969.833 L2143.85,973.832 L2143.46,975.669 L2141.54,977.244 L2141.1,978.113 L2141.07,983.141 L2140.56,984.837 L2140.26,988.37 L2139.77,989.521 L2140.36,990.995 L2141.98,993.196 L2141.59,996.305 L2141.98,1001.6 L2142.89,1004.1 L2144.29,1005.86 L2145.67,1006.64 L2146.26,1007.35 L2147.12,1009.05 L2148.72,1014.07 L2150.46,1015.02 L2150.98,1016.5 L2152.99,1018.29 L2153.53,1019.99 L2153.31,1020.43 L2151.39,1020.63 L2151.27,1022.71 L2152.01,1025.78 L2151.86,1026.27 L2152.99,1028.41 L2154.98,1030 L2157.36,1031.32 L2158.22,1033.13 L2159.42,1033.19 L2160.99,1032.48 L2161.98,1032.77 L2163.01,1033.21 L2164.22,1034.52 L2167.46,1036.4 L2168.59,1036.62 L2168.93,1037.61 L2168.15,1039.83 L2168.2,1040.76 L2168.52,1041.43 L2171.12,1044.11 L2171.59,1045.04 L2171.27,1046.52 L2172.4,1047.12 L2172.45,1048.27 L2171.51,1050.17 L2171,1053.72 L2170.46,1054.75 L2170.38,1058.12 L2169.52,1064.34 L2167.48,1066.85 L2166.6,1068.8 L2166.5,1069.73 L2167.07,1073.39 L2166.62,1075.69 L2167.7,1077.87 L2167.8,1079.4 L2168.76,1080.93 L2171.76,1082.69 L2172.49,1083.52 L2173.75,1086.3 L2175.29,1088.18 L2177.63,1089.94 L2179.03,1093.49 L2179.35,1095.24 L2180.21,1096.82 L2180.9,1099.82 L2183.75,1103.5 L2184.29,1104.65 L2184.33,1105.58 L2183.65,1109.23 L2183.92,1109.55 L2189.79,1113.57 L2191.07,1115 L2191.78,1116.72 L2195.14,1119.5 L2199.25,1121.76 L2202.51,1122.81 L2203.49,1122.71 L2204.92,1121.9 L2206.12,1121.62 L2209.05,1121.92 L2209.05,1123.98 L2210.82,1128.48 L2213.08,1131.87 L2214.5,1132.86 L2215.04,1133.62 L2215.24,1134.65 L2216.1,1136.41 L2217.57,1138.2 L2219.29,1141.21 L2220.2,1144.12 L2221.06,1144.78 L2221.6,1145.71 L2222.04,1149.25 L2223.08,1149.64 L2224.54,1154.83 L2225.72,1157.07 L2226.23,1159.09 L2227.61,1160.68 L2228.25,1162.8 L2230,1163.21 L2231.29,1165.48 L2232.88,1167.2 L2234.25,1168.17 L2234.59,1169.98 L2235.23,1171.41 L2237.07,1173.92 L2239.46,1176.44 L2240.73,1178.9 L2242.4,1183.72 L2242.5,1184.65 L2242.06,1187.57 L2242.38,1188.95 L2243.51,1190.65 L2245.67,1192.46 L2246.75,1194.53 L2248.74,1196.74 L2257.24,1203.9 L2261.93,1204.37 L2265.12,1206.49 L2266.46,1206.72 L2270.18,1211.2 L2272.54,1212.55 L2274.18,1215.33 L2275.63,1216.18 L2276.66,1216.2 L2277.66,1216.88 L2281.01,1217.97 L2284.22,1220.49 L2285.25,1220.79 L2287.75,1220.71 L2289.41,1221.1 L2290.73,1220.52 L2291.87,1220.8 L2293.3,1223.53 L2295.7,1224.11 L2297.16,1225.04 L2298.38,1225.07 L2299.24,1227.16 L2300.8,1229.61 L2301.06,1231.85 L2302.37,1231.87 L2309.42,1236.26 L2312.35,1237.31 L2313.89,1238.47 L2319.17,1239.81 L2320.33,1240.39 L2322.09,1241.6 L2323.86,1244.15 L2325.04,1245.16 L2326.15,1247.88 L2326.66,1248.4 L2328.39,1248.33 L2329.13,1247.29 L2329.73,1246.97 L2332.06,1247.38 L2337.37,1249.12 L2338.42,1249.99 L2340.68,1254.64 L2343.1,1254.68 L2345.28,1254.05 L2346.37,1254.51 L2347.59,1255.82 L2348.23,1255.98 L2349.92,1255.27 L2351.75,1253.87 L2360.05,1254.11 L2361.1,1255.7 L2363.3,1257.71 L2364.77,1260.08 L2367.24,1260.07 L2370.57,1263.07 L2373.65,1263.74 L2375.62,1264.92 L2379.93,1266.75 L2381.42,1263.79 L2383.86,1264.5 L2384.94,1264.33 L2386.51,1265 L2388.53,1262.32 L2389.81,1261.87 L2391.52,1262.14 L2393.41,1261.97 L2395.23,1262.92 L2401.7,1264.27 L2403.71,1265.32 L2405.06,1265.66 L2406.21,1265.18 L2406.71,1265.28 L2411.38,1268.25 L2413.63,1271.27 L2416.16,1273.41 L2417.34,1276.21 L2419.02,1277.84 L2420.96,1281.01 L2427.27,1283 L2427.6,1283.31 L2431.96,1288.27 L2433.44,1291.72 L2435.04,1292.45 L2438.77,1295.52 L2441.07,1298.5 L2441.49,1298.59 L2442.97,1297.82 L2443.61,1297.83 L2449.06,1300.87 L2451.63,1303.69 L2453.01,1305.78 L2453.5,1307.41 L2455.34,1309.58 L2456.29,1311.92 L2456.36,1312.18 L2454.95,1314.62 L2455.46,1319.26 L2453.87,1322.75 L2452.4,1323.07 L2449.33,1323.21 L2448.17,1323.68 L2446.32,1325.94 L2443.94,1328.18 L2443.04,1331.77 L2441.88,1333.9 L2440.73,1334.52 L2438.21,1336.9 L2436.09,1338.01 L2434.06,1339.57 L2433.71,1344.05 L2434.57,1345.73 L2434.54,1346.34 L2433.7,1348.29 L2430.6,1350.06 L2430.12,1351.87 L2428.89,1352.82 L2428.71,1353.58 L2429.51,1355.73 L2429.36,1356.29 L2430.31,1357.13 L2431.15,1357.16 L2431.91,1358.59 L2432.65,1358.77 L2432.66,1360.01 L2433.21,1360.59 L2433.06,1361.95 L2435.77,1364.28 L2435.3,1365.19 L2436.41,1365.85 L2436.75,1366.55 L2437.44,1366.77 L2438.09,1367.76 L2437.52,1368.5 L2437.44,1369.78 L2438.25,1370.86 L2439.19,1371.1 L2439.48,1372.39 L2440,1372.44 L2441.03,1371.77 L2441.41,1371.82 L2441.77,1372.82 L2441.42,1373.58 L2441.79,1374.04 L2442.19,1374.1 L2442.72,1373.66 L2443.42,1373.87 L2442.99,1375.09 L2443.71,1376.1 L2444.44,1376.14 L2444.94,1376.49 L2444.93,1377.11 L2445.46,1377.53 L2445.39,1378 L2444.66,1378.38 L2445.01,1379.55 L2445.28,1379.51 L2445.69,1378.79 L2446.45,1379.04 L2446.96,1379.8 L2447.05,1380.44 L2446.39,1381.23 L2446.79,1382.05 L2445.76,1382.24 L2446.4,1384.17 L2447.18,1383.8 L2447.37,1384.52 L2448.26,1383.43 L2448.79,1384.32 L2448.48,1385.38 L2449.9,1385.59 L2449.64,1386.55 L2448.55,1386.3 L2448.14,1386.66 L2448.89,1387.97 L2448.71,1389.22 L2448.13,1389.51 L2447.55,1390.63 L2445.87,1391.07 L2445.77,1393.68 L2444.82,1394.66 L2445.19,1395.67 L2444.96,1396.37 L2445.37,1397.14 L2444.79,1398.48 L2444.9,1400.01 L2444.65,1400.47 L2442.86,1401.33 L2442.19,1401.95 L2442.11,1402.52 L2442.91,1403.76 L2442.94,1404.47 L2442.06,1406.44 L2441.37,1406.09 L2440.94,1406.56 L2441.24,1407.11 L2442.28,1407.55 L2442.31,1407.83 L2441.48,1408.11 L2441.32,1408.56 L2442.32,1409.72 L2442.88,1411.01 L2442.85,1412.01 L2442.18,1413.62 L2442.63,1415.4 L2441.58,1418.06 L2442.16,1419.06 L2441.56,1419.97 L2441.66,1420.58 L2441.14,1421.1 L2440.59,1423 L2440.75,1424.08 L2441.54,1425.48 L2441.3,1427.62 L2441.6,1427.81 L2444.96,1427 L2445.8,1429.29 L2446.34,1428.86 L2447.07,1429.03 L2447.15,1429.89 L2446.19,1431.06 L2447.66,1432.93 L2447.08,1434.54 L2447.3,1435.04 L2449.79,1435.32 L2451.32,1437.17 L2451.62,1435.7 L2452.18,1435.37 L2452.71,1436.13 L2452,1438.3 L2453.45,1439.09 L2454.45,1438.69 L2455.16,1439.06 L2455.21,1439.8 L2454.33,1441.19 L2453.95,1442.43 L2455.31,1442.65 L2455.5,1441.91 L2456.13,1441.45 L2457.42,1442.34 L2458.75,1441.24 L2459.1,1441.27 L2461.4,1442.81 L2463.05,1445.16 L2462.65,1446.56 L2461.49,1447.68 L2459.68,1448.84 L2456.22,1449.99 L2453.48,1451.47 L2449.66,1454.44 L2450.26,1455.41 L2452.17,1457.21 L2454.3,1458.18 L2456.73,1461.79 L2459.38,1464.41 L2459.53,1465.8 L2460.27,1467.13 L2460.41,1467.99 L2459.74,1470.61 L2459.21,1471.63 L2457.18,1472.11 L2458.08,1472.6 L2458.34,1473.8 L2457.9,1474.03 L2457.42,1475.2 L2457.46,1476.25 L2457.91,1477.18 L2457.83,1479.38 L2457.46,1481.53 L2455.83,1484.64 L2455.67,1486.17 L2454.32,1490.56 L2452.84,1490.53 L2452.69,1490.79 L2452.63,1492.48 L2453.19,1494.44 L2452.34,1496.78 L2452.79,1497.65 L2452.92,1498.83 L2452.01,1500.48 L2451.38,1500.54 L2450.48,1501.54 L2448.28,1502.95 L2447.4,1503.22 L2445.9,1503 L2445.19,1503.53 L2445.21,1504.86 L2443.98,1504.91 L2442.81,1507.6 L2441.85,1508.07 L2439.84,1511.34 L2438.76,1512.5 L2438.22,1515.57 L2437.32,1517.27 L2438.91,1519.05 L2438.61,1520.92 L2438.68,1524.26 L2439.35,1524.98 L2439.83,1524.92 L2439.94,1524.22 L2441.08,1524.02 L2442.03,1523.49 L2446.55,1524.07 L2447.61,1524.59 L2447.73,1524.98 L2447.66,1525.98 L2446.63,1526.65 L2445.62,1526.86 L2446.26,1527.23 L2446.22,1527.45 L2444.61,1527.32 L2444.1,1527.59 L2443.18,1528.43 L2443.37,1528.82 L2442.63,1529.65 L2443.06,1530.01 L2446.61,1530.29 L2448.28,1530.72 L2449.51,1531.33 L2449.64,1531.65 L2449.88,1534.31 L2449.6,1537.06 L2448.55,1538.71 L2448.44,1539.52 L2450.18,1543.15 L2450.6,1544.83 L2450.28,1546.71 L2448.56,1550.25 L2448.2,1552.77 L2448.48,1554.6 L2448.86,1555.3 L2450.66,1556.48 L2451.91,1557.93 L2451.44,1562.72 L2451.68,1563.41 L2453.3,1565.27 L2453.53,1568.51 L2452.47,1570.73 L2452.58,1572.6 L2451.5,1574.47 L2451.14,1575.69 L2450.84,1576.14 L2450.19,1576.25 L2448.07,1578.92 L2446.14,1580.24 L2445.31,1582.17 L2443.59,1582.61 L2443.15,1584.4 L2441.94,1586.87 L2439.67,1590.28 L2437.37,1592.39 L2430.46,1594.19 L2429.73,1594.6 L2428.46,1596.15 L2425.64,1597.97 L2424.72,1599.56 L2424.31,1601.01 L2422.67,1603.49 L2420.69,1606.2 L2419.2,1607.41 L2419.05,1608.02 L2420.09,1608.96 L2421.45,1611.17 L2421.72,1612.21 L2421.41,1612.8 L2421.54,1613.18 L2419.72,1615.66 L2418.57,1618.48 L2418.4,1619.82 L2419.24,1621.87 L2419.5,1626.04 L2420.22,1628.21 L2420.88,1629.02 L2420.3,1630.96 L2422.25,1632.36 L2422.98,1633.83 L2420.93,1637.36 L2419.49,1638.27 L2419.74,1642.12 L2418.5,1643.27 L2416.67,1642.88 L2415.73,1643.28 L2415.67,1648.67 L2415.2,1648.72 L2415.18,1649.63 L2414.11,1649.95 L2410.59,1648.68 L2408.85,1649.33 L2408.3,1652.96 L2408.59,1653.34 L2403.48,1662.96 L2401.39,1663.91 L2400.34,1664.89 L2396.33,1667.15 L2394.98,1668.85 L2392.17,1670.89 L2390.75,1671.66 L2388.71,1672.07 L2386.78,1672.92 L2385.73,1673.9 L2384.43,1674.37 L2383.84,1674.85 L2383.41,1676.32 L2383.04,1676.69 L2381.47,1677.58 L2379,1680.2 L2377.76,1680.76 L2378.13,1682.2 L2377.2,1683.42 L2377,1684.27 L2374.66,1687.31 L2373.1,1690.56 L2370.34,1692.25 L2368.67,1695.18 L2368.55,1696.22 L2368.31,1696.27 L2367.83,1697.86 L2366.54,1698.08 L2365.7,1697.61 L2364.18,1697.78 L2363.41,1697.41 L2356.98,1696.8 L2354.63,1698.1 L2352.13,1700.43 L2351.6,1700.71 L2348.66,1701.07 L2347.26,1702.62 L2345.68,1703.24 L2339.03,1701.79 L2334.64,1700.14 L2329.38,1704.65 L2326.46,1705.12 L2320.91,1708.41 L2319.3,1708.69 L2317.31,1709.73 L2316.07,1709.13 L2314.54,1707.9 L2313.57,1707.58 L2309.1,1707.35 L2306.44,1706.18 L2303.67,1706.48 L2303.02,1706.25 L2301.62,1703.18 L2299.81,1701.99 L2298.52,1702.1 L2297.2,1702.8 L2295.14,1703.13 L2293.66,1702.59 L2290.39,1703.41 L2289.51,1704.33 L2289.76,1707.63 L2287.94,1712.79 L2287.71,1713.92 L2287.88,1714.98 L2287.31,1716.69 L2287.43,1718.23 L2285.97,1720.31 L2285.99,1722.69 L2285.24,1728.74 L2283.61,1731.64 L2281.74,1732.97 L2279.79,1734.87 L2279.64,1735.65 L2279,1736.35 L2278.46,1737.59 L2278.08,1738.03 L2276.92,1738.45 L2276.13,1739.48 L2276.04,1740.02 L2276.42,1741.16 L2274.94,1743.76 L2273.69,1744.84 L2273.5,1746.1 L2272.94,1747.05 L2272.91,1747.93 L2271.69,1749.38 L2270.94,1749.66 L2268.62,1749.45 L2265.17,1751.24 L2264.56,1751.03 L2263.67,1751.61 L2263.55,1752.31 L2261.97,1752.5 L2261.19,1754.02 L2259.24,1754.3 L2258.97,1755.89 L2258.3,1756.74 L2258.28,1757.36 L2257.65,1758.43 L2256.54,1758.6 L2256.09,1760.08 L2254.51,1763.23 L2254.7,1764.19 L2253.72,1765.14 L2253.79,1766.58 L2253.24,1768.84 L2253.39,1770.25 L2253.12,1771.33 L2253.13,1772.51 L2253.46,1773.24 L2252.87,1773.66 L2251.12,1774.02 L2248.19,1773.43 L2245.38,1774.07 L2243.15,1776.12 L2242.69,1776.94 L2239.93,1778.38 L2239.19,1777.98 L2237.99,1778.08 L2236.16,1777.56 L2234.07,1777.95 L2231.77,1777.89 L2230.38,1776.76 L2228.29,1775.89 L2226.4,1777.12 L2219.96,1784.09 L2218.7,1785.11 L2218.08,1786.21 L2215.38,1787.42 L2214.96,1788.34 L2213.64,1788.42 L2212.66,1788.79 L2211.77,1788.45 L2206.2,1789.19 L2196.22,1787.66 L2193.03,1788.51 L2191.97,1789.89 L2189.09,1791.01 L2183.78,1789.23 L2182.08,1789.85 L2179.62,1789.87 L2178.4,1790.21 L2175.55,1792.05 L2174.38,1793.49 L2172.06,1795.45 L2170.51,1798.31 L2168.7,1803.48 L2163.11,1806.17 L2161.52,1809.25 L2158.38,1814.19 L2157.63,1813.97 L2157.22,1814.3 L2156.15,1814.36 L2154.64,1813.53 L2154.13,1812.78 L2153.77,1810.95 L2151.77,1808.38 L2150.34,1808.87 L2147.35,1808.52 L2146.84,1808.07 L2144.22,1809.22 L2138.41,1814.39 L2137.69,1815.5 L2135,1814.94 L2134.57,1814.58 L2131.51,1814.84 L2131.23,1815.14 L2130.96,1816.57 L2129.75,1816.89 L2129.4,1817.24 L2128.33,1817.36 L2127.78,1817.95 L2126.21,1817.88 L2124.3,1818.51 L2122.85,1818.57 L2122.28,1818.98 L2121.5,1818.74 L2120.5,1818.97 L2119.82,1818.51 L2117,1818.93 L2114.7,1820.42 L2114.39,1821.67 L2113.95,1822.14 L2109.17,1823.67 L2107.81,1826.07 L2107.69,1827.38 L2106.15,1829 L2104.23,1829.34 L2104.04,1829.79 L2102.83,1830.38 L2102.16,1831.1 L2097.64,1833.78 L2095.7,1836.98 L2093.72,1838.17 L2091.12,1840.46 L2090.66,1840.49 L2087.47,1843.2 L2086.79,1844.12 L2086.11,1844.37 L2084.87,1845.75 L2084.26,1846.02 L2083.78,1846.9 L2082.25,1847.77 L2081.29,1849.28 L2077.37,1850.22 L2075.39,1851.04 L2076.2,1854.58 L2074.17,1857.89 L2072.28,1859.63 L2071.8,1860.45 L2071.28,1860.21 L2069.71,1861.03 L2068.56,1861.18 L2066.59,1864.67 L2065.26,1865.51 L2064.51,1866.63 L2064.01,1867.52 L2063.95,1868.62 L2062.95,1869.29 L2063.14,1871.43 L2062.85,1872.13 L2062.33,1872.63 L2060.65,1873.13 L2058.29,1874.51 L2057.21,1875.91 L2056.27,1877.68 L2056.26,1878.24 L2057.05,1879.8 L2057.46,1882.79 L2056.78,1885.04 L2056.21,1885.94 L2055.69,1888.21 L2055.29,1888.63 L2054.19,1888.94 L2053.61,1890.05 L2054.21,1891.3 L2054.3,1893.25 L2055.01,1895.16 L2056.4,1896.15 L2057.77,1897.8 L2058.5,1898.05 L2059.91,1899.59 L2060.87,1900.89 L2062.55,1904.22 L2062.87,1905.65 L2062.72,1906.36 L2062.04,1907.11 L2061.79,1909.93 L2061.26,1911.28 L2061.18,1915.23 L2061.62,1915.9 L2061.68,1919.14 L2058.62,1918.06 L2056.86,1918.34 L2055.69,1919.21 L2054.81,1921.1 L2054.67,1924.89 L2052.17,1932.96 L2051.62,1933.6 L2049.64,1933.99 L2048.03,1934.79 L2047.05,1935.79 L2045.8,1936.27 L2043.39,1938.76 L2041.38,1939.03 L2037.38,1941.76 L2037.45,1943.45 L2036.29,1945.36 L2035.1,1948.17 L2033.04,1956.22 L2033.64,1957.62 L2033.89,1960.56 L2034.78,1963.53 L2034.85,1967.02 L2034.5,1967.07 L2029.64,1968.67 L2027.99,1970.08 L2026.36,1972.19 L2025.01,1973.22 L2023.39,1973.61 L2019.55,1973.49 L2016.67,1974.4 L2015.22,1975.36 L2013.36,1975.51 L2011.73,1975.99 L2010.27,1976.96 L2007.13,1978.24 L2006.93,1979.34 L2006.36,1980.25 L2003.38,1983.16 L2002.88,1984.39 L2001.7,1985.83 L1998.44,1988.83 L1993.34,1990.95 L1992.54,1990.55 L1990.7,1990.85 L1988.74,1992.07 L1987.43,1992.33 L1984.79,1995.38 L1980.49,1998.09 L1978.87,2001.06 L1978.77,2002.21 L1975.01,2001.78 L1974.16,2001.35 L1971.35,2002.62 L1970.69,2002.52 L1970.36,2002.07 L1969.58,2001.99 L1968.36,2002.52 L1965.81,2002.77 L1963.43,2003.43 L1962.19,2002.55 L1959.83,2002.84 L1958.06,2004.27 L1957.75,2006.33 L1953.36,2010.05 L1952.66,2011.2 L1950.43,2012.62 L1949.43,2012.62 L1941.87,2004.28 L1939.86,2001.63 L1930.3,1992.6 L1929.36,1992.24 L1928.49,1992.32 L1917.37,1996.62 L1914.68,1996.84 L1910.82,1995.75 L1910.44,1995.38 L1909.81,1993.47 L1909.22,1992.85 L1907.63,1991.76 L1905.82,1991.34 L1903.53,1992.22 L1899.59,1994.37 L1897.05,1996.37 L1892.49,2000.98 L1885.98,2001.69 L1874.8,2006.43 L1870.38,2008.89 L1867.26,2011.44 L1865.98,2013.12 L1863.61,2020.42 L1862.79,2021.55 L1860.54,2022.57 L1853.01,2027.08 L1846.63,2032.19 L1846.21,2031.86 L1845.64,2029.64 L1843.6,2026.51 L1842.45,2025.55 L1841.16,2025.07 L1835.33,2025.92 L1825.91,2027.96 L1822.45,2026.85 L1809.18,2025.03 L1801.17,2025.23 L1797.17,2026.54 L1769.77,2033.08 L1669.73,2050.56 L1670.41,2058.46 L1668.96,2054.55 L1668.21,2054.04 L1667.43,2054.45 L1666.33,2056.11 L1664.85,2056.75 L1663.79,2057.71 L1663.43,2057.64 L1661.55,2055.28 L1658.52,2052.99 L1654.96,2052.34 L1651.13,2053.22 L1648.36,2052.1 L1646.99,2052.02 L1641.6,2054.37 L1638.4,2055.29 L1636.05,2055.58 L1635.14,2056.08 L1632.94,2056.28 L1631.99,2056.64 L1628.81,2058.04 L1624.19,2061.73 L1619.83,2062.25 L1615.99,2065.07 L1611.12,2066.68 L1598.49,2067.37 L1591.34,2067.43 L1588.29,2067.15 L1586.57,2067.73 L1584.07,2069.7 L1582.52,2069.96 L1578.04,2069.3 L1573.23,2070.42 L1570.6,2070.54 L1552.28,1985.76 L1537.23,1972.7 L1492.94,1972.96 L1491.86,1972.84 L1491.25,1972.04 L1488.58,1971.97 L1449.74,1981.54 L1446.74,1981.7 L1440.68,1983.93 L1430.74,1985.39 L1417.94,1933.42 L1414.08,1916.54 L1407.16,1889.07 L1404.06,1888.08 L1398.36,1883.82 L1397.71,1881.73 L1393.89,1881.28 L1392.64,1880 L1390.1,1879.48 L1387.94,1877.42 L1386.44,1875.71 L1383.74,1870.65 L1383.33,1869.59 L1383.26,1867.5 L1382.04,1866.7 L1378.28,1862.6 L1376.26,1858.89 L1373.67,1862.47 L1372.69,1863.34 L1369.22,1865.41 L1368.72,1868.47 L1368.02,1869.78 L1360.52,1871.16 L1357.75,1872.52 L1355.54,1873.13 L1352.88,1874.61 L1349.25,1877.77 L1346.39,1881.75 L1343.38,1883.55 L1341.95,1884.83 L1339.12,1885.84 L1333.69,1886.15 L1331.76,1886.77 L1330,1890.22 L1326.67,1898.66 L1326.62,1899.37 L1327.41,1900.57 L1327.31,1901.5 L1325,1905.71 L1324.35,1906.38 L1322.9,1907.15 L1322.01,1909.95 L1320.09,1912.93 L1319.46,1913.47 L1318.14,1913.92 L1316.56,1915.28 L1313.03,1917.46 L1312.45,1918.35 L1311.02,1919.62 L1310.07,1922.01 L1307.81,1922.84 L1306.95,1925.84 L1305.59,1928.97 L1299.01,1932.16 L1296.03,1932.84 L1292.92,1934.36 L1291.01,1934.86 L1290.56,1935.77 L1289.79,1936.1 L1289.14,1936.92 L1288.05,1940.19 L1281.52,1943.06 L1278.4,1946.27 L1278.26,1947.45 L1279.04,1950.18 L1279.02,1951.49 L1277.72,1954.72 L1277.6,1955.94 L1278.54,1959.45 L1278.37,1961.31 L1277.33,1962.74 L1277.27,1963.58 L1278.81,1966.23 L1280.6,1968.32 L1281.47,1970.32 L1281.35,1971.4 L1280,1974.33 L1279.61,1976.16 L1280.61,1978.25 L1281.93,1979.2 L1282.58,1980.4 L1283.36,1983.52 L1284.25,1985.24 L1284.36,1986.62 L1286.06,1991.89 L1287.62,1992.96 L1286.16,1993.32 L1285.28,1994.5 L1284.94,1995.53 L1285.13,1997.92 L1283.66,2001.68 L1282.26,2002.82 L1281.61,2004.28 L1280.98,2004.99 L1279.33,2005.45 L1278.18,2006.42 L1277.71,2008.18 L1276.46,2010.23 L1276.06,2011.42 L1274.69,2013 L1274.25,2014.65 L1272.26,2017.02 L1271.39,2018.68 L1271.43,2019.41 L1273.31,2021.25 L1275.99,2026.46 L1275.53,2028.92 L1274.96,2037.87 L1275.19,2041.85 L1275.77,2045.58 L1274.67,2053.23 L1275.16,2057.63 L1275.74,2059.47 L1275.67,2062.69 L1275.94,2063.36 L1274.27,2066.31 L1274.59,2067.87 L1275.33,2068.75 L1274.97,2074.16 L1276.06,2075.9 L1276.59,2080.29 L1275.92,2085.19 L1275.18,2087.13 L1273.51,2089.38 L1275.16,2096.15 L1275.28,2098.24 L1275.84,2099.73 L1278.34,2102.06 L1280.29,2104.38 L1281.11,2106.72 L1283.98,2110.55 L1284.68,2112.62 L1284.79,2113.92 L1284.43,2116.69 L1284.61,2118.79 L1284.12,2121.48 L1284.66,2124.8 L1284.42,2126.57 L1284.64,2131.85 L1284.38,2132.22 L1284.91,2136.56 L1282.94,2136.38 L1281.23,2136.86 L1278.02,2141.49 L1273.44,2144.28 L1268.99,2146.54 L1267.72,2151.44 L1266.42,2154.08 L1266.19,2156.77 L1265.76,2157.32 L1264.5,2158.16 L1263.34,2159.46 L1260.13,2160.9 L1257.12,2163.46 L1254.13,2164.86 L1251.62,2167.93 L1249.98,2168.12 L1248.9,2167.9 L1246.99,2171.25 L1245.47,2172.58 L1243.46,2172.71 L1242.61,2174.17 L1239.86,2176.35 L1239.76,2177.17 L1240.93,2182.78 L1240.69,2185.99 L1242.09,2189.51 L1242.62,2193.65 L1242.48,2194.71 L1242.98,2196.85 L1242.55,2198.19 L1240.99,2200.81 L1240.94,2201.46 L1241.24,2202.15 L1242.98,2203.82 L1243.76,2205.22 L1245.16,2206.84 L1246.08,2208.98 L1248.82,2212.52 L1249.03,2213.39 L1248.65,2216.68 L1247.72,2219.16 L1248.34,2221.16 L1248.41,2223.34 L1250.2,2226.74 L1251.52,2231.09 L1254.01,2235.72 L1255.94,2238.22 L1256.56,2241.58 L1256.19,2243.09 L1256.37,2244.24 L1257.65,2246.88 L1258.92,2248.66 L1256.68,2254.41 L1256.84,2257.47 L1258.12,2260.43 L1257.47,2262.7 L1257.24,2267 L1255.36,2269.61 L1255.18,2270.59 L1256.29,2273.53 L1255.76,2277.06 L1256.03,2279.26 L1255.83,2279.98 L1254.73,2283.17 L1253.37,2284.66 L1250.93,2285.99 L1249,2287.65 L1247.27,2288.47 L1246.85,2289.07 L1246.96,2291.24 L1246.27,2292.73 L1245.17,2294.22 L1245.25,2296.06 L1244.26,2300.78 L1245.49,2301.21 L1247.34,2302.73 L1247.37,2305.53 L1248.63,2308.48 L1249.52,2309.74 L1252.74,2312.22 L1255.35,2315.45 L1257.52,2316.96 L1257,2318.41 L1257.24,2318.97 L1259.12,2320.83 L1259.25,2321.37 L1258.97,2322.03 L1256.97,2323.92 L1256.19,2327.65 L1256.63,2328.6 L1258.93,2329.88 L1260.81,2331.68 L1261.25,2333.07 L1261.94,2337.97 L1262.12,2341.85 L1263.41,2349.89 L1265.51,2355.49 L1268.01,2365.94 L1268.82,2371.56 L1274.19,2375.57 L1275.56,2378.71 L1275.28,2380.76 L1276.47,2383.36 L1279.24,2394.19 L1276.59,2398.78 L1274.06,2404.38 L1272.79,2406.49 L1269.81,2409.97 L1271.33,2413.4 L1277.3,2423.6 L1278.24,2425.86 L1279.34,2430.35 L1279.85,2431.55 L1280.72,2432.38 L1279.41,2434.36 L1278.73,2436.91 L1279.32,2440.6 L1280.59,2442 L1280.27,2444.97 L1281.11,2448.43 L1279.29,2451.24 L1271.92,2456.21 L1271.78,2456.01 L1271.63,2456.21 L1271.34,2455.42 L1269.83,2454.37 L1268.7,2454.21 L1267.89,2454.41 L1266.62,2455.33 L1266.07,2455.33 L1265.53,2455.05 L1264.11,2452.84 L1260.99,2452.82 L1259.91,2452.28 L1258.73,2452.24 L1257.82,2452.6 L1256.69,2453.75 L1256.69,2454.35 L1257.87,2455.69 L1258.09,2456.39 L1257.75,2457.05 L1255.04,2456.65 L1253.25,2455.69 L1252.88,2455.73 L1252.66,2456.93 L1252.39,2457.15 L1251.07,2457.02 L1250.57,2457.25 L1249.62,2456.84 L1249.78,2455.91 L1250.45,2454.8 L1250.27,2453.87 L1249.99,2453.63 L1246.45,2454.49 L1246.18,2455.13 L1246.59,2456.11 L1244.65,2457.89 L1244.43,2458.54 L1245.19,2458.44 L1246,2457.89 L1246.91,2457.83 L1248.73,2458.5 L1249.17,2459.36 L1246.82,2459.9 L1246,2461.14 L1245.88,2461.78 L1246.86,2463.35 L1246.96,2464.27 L1243.47,2464.91 L1243.3,2465.45 L1243.89,2466.97 L1243.79,2471.4 L1242.66,2473.25 L1240.45,2476.53 L1238.73,2478.04 L1233.72,2480.58 L1232.86,2481.66 L1231.73,2482.46 L1230.09,2482.9 L1228.05,2484.13 L1226.79,2485.81 L1226.92,2487.49 L1225.62,2488.62 L1223.85,2491.26 L1223.63,2493.1 L1221.37,2497.81 L1220.87,2500.24 L1218.88,2504.57 L1218.25,2506.73 L1217.58,2506.93 L1216.38,2506.75 L1214.49,2507.95 L1211.66,2508.99 L1210.71,2509.84 L1209.92,2511.08 L1209.61,2510.99 L1208.93,2511.57 L1209,2515.08 L1208.59,2516.15 L1207.34,2517.8 L1207.44,2518.33 L1203.57,2520.66 L1201.86,2522.54 L1200.9,2523.18 L1200.31,2524.35 L1200.07,2526.45 L1197.76,2526.16 L1195.41,2524.47 L1192.08,2523.36 L1191.17,2522.54 L1190.8,2521.64 L1190.5,2518.24 L1187.86,2515.99 L1186.95,2514.36 L1185.7,2513.19 L1184.63,2512.25 L1182.63,2511.92 L1180.56,2513 L1179.46,2511.16 L1178.42,2510.62 L1175.48,2510.08 L1173.37,2508.36 L1170.97,2506.9 L1171.35,2505.31 L1170.93,2504.71 L1169.88,2504.73 L1168.29,2505.89 L1167.17,2506.35 L1165.86,2506.61 L1164.35,2506.35 L1161.69,2507.51 L1159.47,2507.49 L1157.15,2506.79 L1154.99,2505.61 L1153.44,2504.25 L1150.27,2502.9 L1148.04,2503.49 L1145.78,2502.34 L1143,2501.72 L1141.11,2500.56 L1139.86,2499.42 L1136.81,2500.12 L1134.13,2501.84 L1131,2502.48 L1127.2,2501.94 L1125.97,2502.2 L1124.37,2500.76 L1122.88,2500.92 L1121.53,2500.4 L1120.3,2500.48 L1118.47,2501.51 L1116.24,2502.03 L1113.89,2501.31 L1112.22,2501.44 L1107.62,2500.34 L1105.44,2500.08 L1100.68,2500.1 L1099.4,2500.91 L1098.93,2503.15 L1096.96,2502.99 L1095.83,2503.19 L1091.56,2501.03 L1084.14,2499.02 L1081.21,2497.71 L1080.47,2497.69 L1079.73,2497.21 L1077.48,2494.19 L1076.84,2493.71 L1075.17,2493.15 L1074.52,2492.41 L1073.35,2491.87 L1072.66,2490.34 L1072.1,2484.73 L1071.02,2481.97 L1070.13,2481.49 L1069.2,2480.38 L1068.88,2478.82 L1068.14,2477.32 L1067.6,2473.37 L1065.14,2470.39 L1064.2,2468.19 L1062.98,2466.71 L1062.37,2465.3 L1061.4,2464.04 L1061.22,2462.42 L1056.75,2455.29 L1056.02,2452.66 L1053.54,2452.44 L1051.47,2451.54 L1049.94,2451.29 L1049.03,2450.41 L1048.66,2449.38 L1047.36,2448.68 L1046.18,2447.54 L1041.24,2445.92 L1037.88,2444.07 L1035.99,2444.07 L1035.04,2443.49 L1032.28,2443.73 L1030.68,2445.3 L1024.93,2448.04 L1022.66,2448.26 L1018.45,2449.67 L1016.73,2449.63 L1016.83,2448.3 L1016.42,2446.57 L1014.4,2442.78 L1012.09,2436.32 L1011.1,2435.18 L1009.63,2435.11 L1009.26,2434.86 L1008.48,2433.78 L1007.96,2432.33 L1008.1,2428.79 L1006.85,2423.96 L1006.44,2420.23 L1005.51,2417.85 L1006.19,2414.88 L1006.06,2413.54 L1003.61,2410.66 L1002.67,2407.59 L1002.69,2405.76 L1000.96,2403.49 L1001.15,2397.54 L1001.38,2396.58 L1002.63,2394.53 L1003.22,2390.67 L1001.58,2386.55 L1001.21,2384.31 L1001.32,2381.15 L1000.1,2378.56 L997.32,2370.46 L996.758,2364.13 L996.037,2361 L995.58,2359.63 L994.054,2357.54 L992.773,2354.36 L992.956,2349.15 L991.49,2346.1 L991.043,2343.66 L990.991,2342.04 L991.85,2339.76 L991.682,2338.72 L984.857,2330.87 L984.15,2329.64 L982.798,2324.11 L981.885,2323 L980.327,2322.07 L976.548,2320.6 L975.85,2318.23 L974.573,2317.01 L974.335,2315.8 L974.591,2314.24 L972.351,2310.01 L972.181,2308.16 L970.328,2307.2 L969.192,2306.05 L968.633,2304.65 L968.589,2303.28 L967.885,2301.92 L967.253,2297.93 L965.781,2296.18 L964.333,2293.8 L962.629,2292.35 L961.37,2289.82 L960.158,2288.32 L958.824,2285.26 L954.988,2281.96 L954.669,2281.36 L954.499,2278.05 L955.68,2275.49 L957.527,2267.34 L958.659,2265.33 L958.6,2264.57 L957.715,2262.54 L956.109,2261.98 L955.378,2258.56 L953.671,2255.8 L955.368,2253.34 L954.767,2248.91 L954.956,2246 L955.726,2242.34 L953.743,2237.56 L954.073,2235.06 L953.905,2233.27 L954.591,2229.49 L955.143,2228.21 L956.457,2226.76 L957.403,2224.2 L958.09,2221.19 L960.136,2219.13 L961.71,2218.45 L963.414,2215.55 L964.715,2214.2 L965.2,2212.64 L965.293,2210.61 L963.946,2209.36 L963.506,2208.32 L963.384,2206.82 L961.92,2203.98 L961.551,2201.91 L961.777,2200.54 L961.407,2197.57 L958.234,2195.56 L957.033,2194.04 L956.502,2192.7 L955.613,2186.39 L954.49,2185.6 L953.157,2185.15 L951.595,2182.41 L949.995,2180.51 L946.293,2180.39 L943.555,2177.78 L941.908,2177.17 L940.452,2177.12 L939.311,2177.42 L938.498,2176.57 L937.64,2173.11 L938.06,2168.03 L937.632,2167.33 L936.309,2167.26 L933.488,2169.78 L930.483,2170.22 L926.773,2169.46 L926.282,2170.14 L925.942,2171.81 L923.928,2172.26 L923.479,2172.59 L920.022,2172.75 L917.255,2171.23 L915.031,2170.78 L909.219,2167.44 L906.847,2165.09 L904.486,2161.75 L901.689,2156.73 L896.747,2152.4 L896.56,2151.73 L894.549,2149.75 L894.199,2148.95 L894.256,2147.31 L893.84,2146.53 L891.519,2146 L889.211,2146.08 L887.845,2145.83 L886.163,2146.44 L882.842,2144.55 L878.385,2143.25 L873.636,2143.31 L869.077,2145.11 L860.185,2151.5 L858.316,2151.99 L854.951,2152.33 L854.183,2153.22 L852.634,2154.27 L850.737,2154.42 L849.375,2154.98 L847.719,2158.58 L845.783,2161.53 L844.096,2162.92 L839.857,2165.43 L833.111,2166.38 L828.421,2169.69 L827.075,2169.96 L823.607,2169.8 L821.822,2170.35 L819.196,2170.46 L815.745,2170.08 L814.976,2170.28 L813.504,2172.2 L813.261,2175.1 L811.272,2180.29 L810.51,2181.6 L805.355,2186 L803.859,2186.22 L802.673,2187 L799.43,2192.56 L796.212,2195.81 L794.069,2199.23 L791.305,2199.18 L788.932,2198.09 L787.543,2198.08 L784.919,2196.72 L782.606,2194.48 L781.668,2193.98 L779.295,2193.55 L777.308,2192.13 L776.35,2191.95 L773.922,2184.47 L771.616,2182.21 L768.983,2180.46 L764.277,2175.45 L762.287,2174.7 L755.908,2174.46 L754.999,2174.17 L753.315,2172.62 L748.397,2173.38 L747.612,2173.28 L745.639,2172.42 L743.594,2170.32 L739.29,2169.56 L739.108,2167.7 L734.711,2163.3 L733.279,2160.47 L733.435,2157.45 L734.472,2152.98 L734.344,2151.23 L733.683,2150.13 L732.211,2148.93 L729.091,2147.71 L727.572,2148.3 L727.38,2146.81 L728.087,2145.31 L727.939,2142.09 L728.467,2139.59 L726.989,2135.99 L724.712,2134.23 L722.252,2133.84 L722.047,2133.09 L724.7,2128.26 L725.483,2127.81 L728.971,2127.16 L730.249,2126.4 L732.091,2123.97 L733.811,2122.85 L734.658,2120.61 L738.035,2116.69 L738.473,2115.87 L738.507,2115.15 L736.63,2110.56 L735.064,2109.48 L732.355,2101.24 L732.259,2099.09 L732.68,2097.61 L734.498,2093.15 L735.787,2091.39 L733.426,2088.33 L732.91,2087.18 L732.085,2082.94 L730.223,2079.76 L729.848,2077.2 L729.155,2076.75 L729.43,2074.48 L729.141,2073.43 L727.335,2071.74 L726.614,2069.89 L726.312,2065.83 L727.451,2062.1 L726.751,2059.47 L727.164,2057.18 L726.095,2055.13 L724.775,2054.78 L722.612,2051.36 L718.444,2047.78 L714.447,2051 L712.535,2051.24 L710.667,2050.88 L709.488,2050.38 L707.719,2048.95 L706.585,2047.12 L703.994,2045.58 L702.692,2043.29 L701.185,2041.84 L697.156,2040.42 L694.65,2040.6 L692.508,2040.26 L691.335,2038.97 L689.377,2038.52 L688.777,2037.31 L689.252,2035.09 L690.54,2033.86 L690.641,2033.43 L690.215,2031.81 L690.331,2026.2 L690.802,2024.06 L691.769,2022.5 L692.2,2019.03 L693.344,2016.78 L694.709,2015.54 L695.643,2015.06 L696.872,2013.14 L697.221,2010.26 L698.023,2008.07 L698.151,2006.85 L698.636,2006 L700.515,2005.08 L701.618,2003.83 L701.912,2002.12 L702.994,2000.9 L705.239,1996.49 L707.58,1995.54 L710.642,1994.76 L713.246,1992.09 L716.149,1990.39 L716.598,1989.63 L716.281,1988.1 L716.49,1987.08 L717.408,1984.77 L719.554,1981.34 L719.543,1978.54 L719.297,1977.6 L718.705,1976.77 L717.67,1976.02 L717.196,1974.32 L717.398,1970.7 L717.108,1969.78 L717.223,1969 L718.395,1967.91 L720.099,1967.73 L721.051,1967.13 L721.693,1966.32 L722.915,1962.86 L726.527,1962.02 L726.497,1961.44 L728.117,1958.68 L729.86,1956.93 L732.295,1955.5 L735.362,1954.77 L738.664,1951.74 L740.26,1951.16 L740.769,1950.55 L740.578,1948.71 L739.77,1945.73 L739.874,1943.46 L740.884,1939.55 L740.416,1937.1 L739.58,1934.68 L739.595,1933.49 L740.592,1930.44 L740.754,1928.16 L740.411,1924.94 L741.246,1922.1 L741.628,1917.78 L742.69,1915.83 L742.089,1914.22 L743.174,1910.94 L742.326,1909.53 L742.211,1908.79 L743.281,1905.5 L742.81,1903.76 L742.09,1897.94 L742.094,1896.57 L742.938,1893.42 L742.671,1891.13 L741.184,1887.54 L740.741,1885.38 L738.648,1879.43 L738.5,1877.23 L737.274,1876.03 L735.511,1873.17 L734.7,1869.09 L735.305,1863.2 L735.034,1861.1 L731.973,1860.43 L728.899,1858.51 L722.76,1856.34 L721.285,1855.42 L720.459,1851.61 L718.415,1849.23 L717.876,1849.24 L717.278,1846.4 L715.564,1842.29 L714.707,1840.78 L713.195,1839.3 L712.63,1837.55 L712.685,1832 L712.262,1829.2 L712.512,1827.26 L714.423,1821.09 L715.482,1818.98 L715.63,1817.09 L716.173,1815.97 L718.342,1815.12 L721.04,1814.63 L725.151,1812.31 L727.757,1811.92 L729.461,1811.13 L730.726,1809.99 L732.124,1808.08 L735.014,1801.07 L735.2,1799.7 L734.647,1796.96 L735.017,1793.61 L736.605,1790.35 L739.807,1785.53 L741.066,1777.4 L740.539,1773.56 L741.414,1770.53 L740.874,1768.91 L741.249,1764.3 L741.601,1762.08 L742.703,1758.52 L742.139,1757.11 L742.492,1755.69 L743.047,1755.11 L743.898,1752.91 L743.409,1751.89 L743.401,1750.07 L741.974,1743.42 L741.99,1740.86 L742.278,1735.54 L742.966,1732.69 L742.85,1727.6 L743.554,1725.74 L743.482,1723.83 L744.591,1719.28 L744.906,1716.28 L744.416,1713.4 L744.513,1713.05 L747.994,1710.26 L750.516,1706.61 L751.156,1704.52 L753.072,1702.54 L756.772,1697.06 L758.663,1694.83 L761.522,1693.4 L761.675,1692.47 L759.787,1688.85 L752.528,1677.74 L751.872,1674.4 L750.305,1671.53 L750.941,1667.8 L750.041,1666.55 L749.872,1665.89 L751.227,1664.04 L751.465,1662.7 L749.688,1662.1 L748.723,1661.37 L746.704,1658.29 L746.039,1656.47 L744.112,1655.61 L741.127,1655.79 L739.599,1654.11 L738.921,1652.74 L740.456,1648.27 L740.239,1645.99 L739.367,1644.24 L739.131,1643.07 L739.395,1641.05 L740.963,1636.59 L741.383,1632.1 L744.259,1622.16 L743.819,1620.32 L743.81,1618.26 L744.117,1616.52 L744.484,1616.08 L743.814,1612.28 L743.602,1607.75 L742.679,1604.45 L743.37,1600.8 L743.216,1599.48 L739.153,1597 L737.898,1595.62 L734.018,1595.47 L731.326,1593.87 L728.619,1593.21 L727.982,1590.97 L725.086,1586.1 L723.216,1585.15 L721.487,1583.77 L720.473,1582.48 L717.29,1580.29 L715.433,1578.02 L713.22,1572.72 L713.974,1570.3 L714.647,1559.98 L715.696,1558.17 L712.725,1555.87 L708.913,1552 L708.446,1550.95 L708.397,1549.6 L707.67,1547.92 L707.517,1546.43 L706.678,1545.84 L705.916,1543.96 L705.764,1542.69 L706.874,1540.12 L707.046,1539.07 L706.727,1535.33 L707.001,1533.16 L706.209,1531.66 L705.586,1527.56 L702.231,1525.28 L702.28,1524.57 L703.39,1522.07 L703.631,1518.23 L705.13,1515.23 L707.095,1513.38 L707.93,1510.62 L708.913,1509.03 L711.771,1506.19 L711.388,1504.19 L711.804,1502.91 L710.5,1500.9 L710.387,1500.32 L711.532,1499 L711.56,1498.58 L710.092,1496.68 L709.551,1494.38 L711.074,1493.19 L711.183,1492.5 L710.353,1490.35 L708.397,1488.44 L708.028,1487.52 L707.758,1485.02 L707.021,1482.12 L706.889,1477.83 L705.743,1475.69 L706.274,1474.06 L705.965,1473.34 L705.3,1473.03 L700.169,1472.47 L697.022,1471.05 L696.654,1471.12 L695.303,1467.8 L695.344,1465.27 L696.703,1459.68 L696.58,1456.35 L697.402,1455.43 L697.407,1454.61 L696.669,1451.63 L695.702,1450.64 L693.116,1449.75 L698.029,1439.87 L698.181,1438.21 L697.708,1437.5 L698.498,1435.77 L698.504,1434.91 L697.554,1432.89 L696.851,1432.17 L695.057,1431.41 L691.361,1430.51 L689.221,1428.95 L687.531,1426.24 L686.931,1425.81 L683.656,1425.36 L682.969,1424.91 L682.748,1424.14 L683.121,1422.18 L681.766,1420.49 L681.84,1420.01 L683.32,1418.48 L683.436,1414.03 L683.942,1412.4 L684.563,1407.24 L686.187,1400.2 L687.833,1398.03 L688.827,1396.16 L688.58,1392.85 L689.291,1389.71 L689.248,1388.75 L687.755,1386.02 L687.117,1382.25 L686.097,1379.1 L685.543,1378.03 L683.174,1375.65 L683.001,1375.01 L682.32,1374.55 L679.432,1375.32 L677.797,1375.07 L676.705,1375.26 L673.088,1376.2 L670.342,1376.2 L667.103,1377.39 L665.306,1378.4 L664.176,1378.62 L662.899,1378.09 L662.822,1378.28 L660.551,1377.06 L660.793,1373.7 L659.925,1371.13 L658.402,1369.33 L655.569,1367.04 L653.773,1364.73 L651.253,1363.06 L649.801,1361.13 L647.992,1360.36 L647.126,1359.2 L646.317,1358.72 L643.269,1352.02 L642.507,1351.76 L642.016,1351.19 L642.31,1349.77 L641.156,1340.79 L639.902,1336.81 L638.21,1334.83 L637.618,1333.74 L636.807,1330.69 L632.631,1328.98 L631.311,1326.03 L627.771,1322.75 L626.294,1320.54 L623.799,1317.89 L622.978,1317.26 L621.379,1316.93 L619.217,1315.78 L613.321,1311.22 L613.763,1309.87 L615.124,1307.47 L615.089,1304.69 L614.279,1303.22 L613.501,1300.69 L612.731,1299.83 L611.748,1299.49 L611.453,1295.19 L611.625,1294.04 L612.885,1291.35 L613.099,1290.29 L611.6,1287.19 L610.946,1286.47 L610.962,1286.04 L611.654,1285.11 L611.404,1283.86 L610.461,1282.07 L610.224,1280.63 L609.094,1279.49 L609.094,1278.98 L612.755,1274.65 L613.699,1272.78 L613.917,1269.57 L613.549,1268.27 L613.935,1265.64 L613.312,1263.04 L613.962,1260.88 L614.591,1254.75 L613.889,1253.39 L613.739,1250.88 L611.564,1247 L611.624,1244.62 L609.006,1239.16 L600.324,1233.26 L599.526,1230.96 L594.23,1225 L593.32,1223.73 L592.657,1222.09 L591.699,1221.22 L591.208,1220.4 L590.49,1217.5 L588.407,1216.3 L588.014,1215.48 L587.596,1212.91 L587.315,1208.71 L587.941,1206.04 L589.42,1203.63 L590.838,1199.52 L591.6,1198.61 L593.027,1197.93 L593.631,1197.15 L593.965,1195.48 L593.506,1194.82 L594.952,1195.67 L596.513,1195.63 L598.445,1195 L598.922,1194.31 L598.7,1192.28 L599.3,1190.44 L601.661,1188.15 L602.128,1187.17 L603.326,1187.35 L604.245,1187.13 L605.039,1186.52 L606.167,1186.3 L610.005,1182.87 L612.408,1181.87 L614.948,1181.7 L617.448,1180.74 L618.268,1180.04 L618.48,1178.79 L620.343,1178.4 L621.057,1177.93 L623.128,1172.12 L625.476,1168.41 L626.139,1166.84 L626.409,1164.82 L626.802,1164.05 L631.838,1159.57 L632.779,1159.35 L635.256,1159.67 L636.678,1158.77 L639.036,1158.18 L639.832,1157.69 L641.051,1155.9 L641.687,1154.23 L642.868,1153.46 L643.63,1152.21 L645.043,1151.11 L646.82,1150.41 L650.329,1146.39 L650.384,1143.94 L651.147,1143.94 L651.93,1142.78 L651.818,1142.52 L653.255,1141.41 L655.831,1138.5 L656.263,1137.67 L660.858,1134.03 L663.123,1133.81 L664.544,1132.65 L665.187,1131.25 L666.257,1129.85 L666.97,1127.86 L666.319,1125.5 L666.443,1124.82 L668.334,1123.36 L668.99,1122.46 L669.276,1121.47 L671.593,1120.66 L673.718,1119.52 L674.779,1118.63 L675.934,1118.23 L680.014,1113.95 L681.701,1113.68 L682.956,1113.98 L683.805,1114.67 L684.497,1114.65 L686.179,1112.27 L686.572,1111.29 L687.678,1110.32 L690.771,1109.43 L691.633,1107.87 L693.181,1106 L694.016,1105.35 L698.512,1103.66 L696.883,1102.23 L695.736,1099.8 L694.521,1098.16 L691.928,1092.15 L690.306,1090.34 L689.127,1089.49 L683.416,1087.76 L682.697,1087.24 L682.159,1086.18 L680.904,1085.35 L678.735,1085.13 L677.141,1085.34 L674.811,1084.72 L674.218,1084.11 L674.045,1082.76 L673.207,1080.79 L671.635,1079.62 L670.554,1078.41 L669.216,1075.93 L668.945,1074.28 L668.243,1073.15 L668.346,1072.65 L667.655,1071.97 L664.405,1071.43 L663.254,1071.72 L662.458,1071.16 L659.912,1070.72 L656.54,1066.9 L656.529,1064.65 L655.787,1062.67 L654.337,1062.44 L653.567,1062.65 L650.164,1060.59 L649.671,1060.08 L649.008,1058.43 L646.408,1056.63 L646.032,1055.67 L645.888,1052.53 L645.116,1051.6 L643.554,1048.29 L642.301,1047.85 L641.564,1046.7 L640.686,1046.2 L638.311,1043.78 L637.745,1043.66 L637.07,1043.96 L632.572,1047.36 L630.165,1048.09 L627.536,1048.23 L624.833,1047.36 L617.487,1043.64 L609.426,1040.07 L607.416,1037.56 L605.83,1032.75 L604.712,1030.79 L603.852,1029.84 L599.678,1026.62 L598.3,1025.3 L597.072,1023.52 L597.17,1021.66 L598.054,1019.83 L598.128,1018.25 L598.693,1017 L597.612,1012.33 L598.991,1011.84 L599.454,1009.53 L599.16,1007.99 L601.312,1004.94 L601.788,1002.18 L603.139,999.977 L604.294,998.846 L604.957,997.534 L606.456,995.756 L606.972,994.08 L609.674,992.101 L612.296,992.172 L613.273,991.908 L613.064,990.95 L613.531,989.9 L613.31,989.193 L612.769,988.648 L612.794,987.82 L613.678,987.234 L614.096,987.295 L615.672,988.494 L616.43,988.527 L617.191,987.88 L617.862,986.454 L618.813,985.619 L620.606,982.751 L621.072,980.348 L621.564,979.762 L622.645,976.228 L623.504,974.592 L623.578,972.956 L624.003,971.981 L625.006,971.232 L625.889,971.744 L627.481,972.109 L628.416,972.793 L629.4,972.342 L630.119,971.569 L630.752,970.008 L632.613,967.254 L633.57,966.142 L637.249,963.126 L637.718,961.804 L637.922,957.685 L637.851,957.344 L636.009,956.334 L636.193,955.304 L637.229,954.179 L637.136,953.425 L634.714,951.103 L634.187,947.666 L632.749,946.796 L632.628,946.044 L632.691,945.013 L634.781,944.651 L636.017,942.527 L633.405,939.867 L634.13,938.313 L634.166,937.018 L634.451,936.948 L635.293,933.68 L637.064,929.47 L639.472,925.228 L640.44,924.253 L641.941,923.349 L643.343,921.886 L644.012,920.485 L645.298,919.358 L647.479,916.624 L647.831,915.381 L649.728,913.247 L649.495,913.127 L650.306,912.097 L650.428,911.269 L650.361,908.429 L652.713,904.723 L652.859,900.411 L653.39,898.983 L654.236,897.693 L655.868,896.374 L656.668,892.844 L658.512,890.699 L660.664,890.136 L662.706,888.779 L663.473,887.873 L664.617,885.645 L665.876,881.911 L669.712,875.467 L670.056,874.538 L670.302,871.083 L672.39,866.9 L673.274,865.586 L674.208,865 L676.124,864.515 L678.851,862.192 L679.096,860.272 L680.627,856.782 L681.97,849.481 L682.09,846.25 L682.484,845.988 L683.704,837.901 L684.525,835.395 L684.721,833.313 L687.104,826.765 L688.996,823.066 L689.511,820.398 L689.56,818.256 L690.568,816.194 L691.771,814.618 L698.38,807.058 L700.91,802.328 L702.409,800.307 L704.509,799.268 L706.683,797.497 L708.329,796.688 L712.309,795.839 L714.864,795.698 L716.928,794.464 L719.985,794.036 L721.775,792.859 L723.451,792.834 L726.295,793.792 L728.95,796.568 L729.253,798.034 L730.831,800.951 L733.717,803.278 L735.458,803.461 L744.127,809.662 L748.829,814.009 L750.603,815.244 L751.177,816.1 L755.626,820.322 L757.177,822.271 L757.373,824.318 L758.716,826.823 L759.527,830.744 L760.534,832.381 L764.739,837.18 L770.633,844.762 L773.555,847.093 L775.506,849.219 L777.068,850.468 L780.311,854.145 L782.723,855.939 L785.803,856.982 L789.191,856.666 L791.084,857.048 L791.296,855.499 L792.591,854.181 L793.036,853.352 L793.849,853.361 L795.198,852.549 L795.83,851.393 L801.034,846.881 L802.584,842.923 L803.778,841.719 L807.819,839.784 L810.306,836.704 L811.783,833.971 L813.917,832.46 L815.195,831.086 L816.286,827.932 L819.223,823.507 L820.246,821.281 L823.068,817.282 L825.119,815.139 L826.421,811.501 L828.46,809.035 L830.242,804.738 L832.169,802.708 L835.166,796.886 L836.492,790.741 L844.427,782.999 L845.883,781.792 L847.645,780.896 L850.317,778.278 L851.371,776.312 L854.847,772.677 L857.052,769.577 L859.239,767.492 L863.778,760.952 L865.577,759.668 L867.929,755.347 L868.959,754.129 L873.438,751.683 L874.716,750.409 L876.057,746.72 L878.715,742.119 L878.948,739.884 L881.938,735.346 L882.724,733.688 L883.388,731.383 L883.782,726.437 L884.223,724.771 L886.09,721.192 L887.318,717.911 L887.838,717.467 L889.583,714.44 L889.845,713.404 L890.655,712.439 L891.649,709.869 L892.746,709.146 L895.026,708.761 L895.91,707.444 L895.821,704.645 L896.537,703.499 L897.802,702.267 L898.77,699.805 L900.225,698.509 L904.024,697.357 L905.794,695.064 L906.382,693.239 L906.381,692.221 L908.666,687.46 L909.256,684.952 L909.842,677.474 L910.6,676.073 L910.724,674.291 L911.904,672.465 L912.364,669.707 L911.368,658.132 L918.444,651.093 L920.051,648.672 L924.216,644.174 L924.7,642.958 L925.491,641.981 L926.218,641.28 L928.72,640.194 L929.259,639.746 L930.063,638.225 L934.342,635.54 L936.286,635.452 L938.008,636.076 L939.487,636.243 L940.483,635.684 L939.465,628.16 L939.865,623.443 L941.388,619.734 L943.678,617.244 L942.346,615.12 L942.223,613.057 L943.771,607.796 L944.287,606.703 L946.031,605.57 L949.274,601.847 L957.454,597.233 L958.854,595.877 L959.149,592.862 L960.451,590.838 L960.746,589.806 L960.572,587.025 L961.104,587.054 L965.924,584.83 L969.774,585.205 L982.448,584.626 L983.918,585.307"/>
  </g>
  <g stroke-width="1" transform="matrix(0.999744,0,0,0.999744,0,0)" stroke-opacity="1" font-size="34.5833" fill="none" stroke-linejoin="bevel" font-style="normal" stroke-linecap="square" stroke="#000000" font-family="MS Shell Dlg 2" font-weight="400"/>
  <g stroke-width="1" transform="matrix(11.808,0,0,11.808,0,0)" stroke-opacity="1" font-size="34.5833" fill="none" stroke-linejoin="bevel" font-style="normal" stroke-linecap="square" stroke="#000000" font-family="MS Shell Dlg 2" font-weight="400"/>
  <g stroke-width="1" transform="matrix(11.808,0,0,11.808,0,0)" stroke-opacity="1" font-size="34.5833" fill="none" stroke-linejoin="bevel" font-style="normal" stroke-linecap="square" stroke="#000000" font-family="MS Shell Dlg 2" font-weight="400"/>
  <g stroke-width="1" transform="matrix(11.808,0,0,11.808,0,0)" stroke-opacity="1" font-size="34.5833" fill="none" stroke-linejoin="bevel" font-style="normal" stroke-linecap="square" stroke="#000000" font-family="MS Shell Dlg 2" font-weight="400"/>
  <g stroke-width="1" transform="matrix(1,0,0,1,0,0)" stroke-opacity="1" font-size="34.5833" fill="none" stroke-linejoin="bevel" font-style="normal" stroke-linecap="square" stroke="#000000" font-family="MS Shell Dlg 2" font-weight="400"/>
  <g stroke-width="1" transform="matrix(11.808,0,0,11.808,0,0)" stroke-opacity="1" font-size="34.5833" fill="none" stroke-linejoin="bevel" font-style="normal" stroke-linecap="square" stroke="#000000" font-family="MS Shell Dlg 2" font-weight="400"/>
  <g stroke-width="1" transform="matrix(11.808,0,0,11.808,0,0)" stroke-opacity="1" font-size="34.5833" fill="none" stroke-linejoin="bevel" font-style="normal" stroke-linecap="square" stroke="#000000" font-family="MS Shell Dlg 2" font-weight="400"/>
  <g stroke-width="1" transform="matrix(11.808,0,0,11.808,0,0)" stroke-opacity="1" font-size="34.5833" fill="none" stroke-linejoin="bevel" font-style="normal" stroke-linecap="square" stroke="#000000" font-family="MS Shell Dlg 2" font-weight="400"/>
  <g stroke-width="1" transform="matrix(11.808,0,0,11.808,0,0)" stroke-opacity="1" font-size="34.5833" fill="none" stroke-linejoin="bevel" font-style="normal" stroke-linecap="square" stroke="#000000" font-family="MS Shell Dlg 2" font-weight="400"/>
  <g stroke-width="1" transform="matrix(1,0,0,1,0,0)" stroke-opacity="1" font-size="34.5833" fill="none" stroke-linejoin="bevel" font-style="normal" stroke-linecap="square" stroke="#000000" font-family="MS Shell Dlg 2" font-weight="400"/>
 </g>
</svg>
