<?xml version='1.0' encoding='UTF-8' standalone='no'?>
<svg xmlns:xlink="http://www.w3.org/1999/xlink" baseProfile="tiny" xmlns="http://www.w3.org/2000/svg" height="249.936mm" viewBox="0 0 2952 2952" width="249.936mm" version="1.2">
 <title>Qt SVG Document</title>
 <desc>Generated with Qt</desc>
 <defs/>
 <g stroke-width="1" fill-rule="evenodd" fill="none" stroke-linejoin="bevel" stroke-linecap="square" stroke="black">
  <g stroke-width="1" transform="matrix(1,0,0,1,0,0)" stroke-opacity="1" font-size="34.5833" fill="none" stroke-linejoin="bevel" font-style="normal" stroke-linecap="square" stroke="#000000" font-family="MS Shell Dlg 2" font-weight="400"/>
  <g stroke-width="1" transform="matrix(1,0,0,1,0,0)" stroke-opacity="1" font-size="34.5833" fill="none" stroke-linejoin="bevel" font-style="normal" stroke-linecap="square" stroke="#000000" font-family="MS Shell Dlg 2" font-weight="400"/>
  <g stroke-width="1" transform="matrix(11.808,0,0,11.808,0,0)" stroke-opacity="1" font-size="34.5833" fill="none" stroke-linejoin="bevel" font-style="normal" stroke-linecap="square" stroke="#000000" font-family="MS Shell Dlg 2" font-weight="400"/>
  <g stroke-width="1" transform="matrix(0.999744,0,0,0.999744,0,0)" stroke-opacity="1" font-size="34.5833" fill="none" stroke-linejoin="bevel" font-style="normal" stroke-linecap="square" stroke="#000000" font-family="MS Shell Dlg 2" font-weight="400"/>
  <g transform="matrix(0.999744,0,0,0.999744,0,0)" font-size="34.5833" fill-opacity="0" fill="#ffffff" font-style="normal" stroke="none" font-family="MS Shell Dlg 2" font-weight="400">
   <path fill-rule="evenodd" vector-effect="none" d="M-2,-2 L2955,-2 L2955,2955 L-2,2955 L-2,-2"/>
  </g>
  <g stroke-width="1" transform="matrix(0.999744,0,0,0.999744,0,0)" stroke-opacity="1" font-size="34.5833" fill="none" stroke-linejoin="bevel" font-style="normal" stroke-linecap="square" stroke="#000000" font-family="MS Shell Dlg 2" font-weight="400"/>
  <g stroke-width="1" transform="matrix(11.808,0,0,11.808,0,0)" stroke-opacity="1" font-size="34.5833" fill="none" stroke-linejoin="bevel" font-style="normal" stroke-linecap="square" stroke="#000000" font-family="MS Shell Dlg 2" font-weight="400"/>
  <g stroke-width="1" transform="matrix(11.808,0,0,11.808,0,0)" stroke-opacity="1" font-size="34.5833" fill="none" stroke-linejoin="bevel" font-style="normal" stroke-linecap="square" stroke="#000000" font-family="MS Shell Dlg 2" font-weight="400"/>
  <g stroke-width="1" transform="matrix(11.808,0,0,11.808,0,0)" stroke-opacity="1" font-size="34.5833" fill="none" stroke-linejoin="bevel" font-style="normal" stroke-linecap="square" stroke="#000000" font-family="MS Shell Dlg 2" font-weight="400"/>
  <g stroke-width="1" transform="matrix(11.808,0,0,11.808,0,0)" stroke-opacity="1" font-size="34.5833" fill="none" stroke-linejoin="bevel" font-style="normal" stroke-linecap="square" stroke="#000000" font-family="MS Shell Dlg 2" font-weight="400"/>
  <g stroke-width="1" transform="matrix(11.808,0,0,11.808,0,0)" stroke-opacity="1" font-size="34.5833" fill="none" stroke-linejoin="bevel" font-style="normal" stroke-linecap="square" stroke="#000000" font-family="MS Shell Dlg 2" font-weight="400"/>
  <g transform="matrix(11.808,0,0,11.808,0,0)" font-size="34.5833" fill-opacity="0" fill="#ffffff" font-style="normal" stroke="none" font-family="MS Shell Dlg 2" font-weight="400">
   <path fill-rule="evenodd" vector-effect="none" d="M0,0 L250,0 L250,250 L0,250 L0,0"/>
  </g>
  <g stroke-width="1" transform="matrix(11.808,0,0,11.808,0,0)" stroke-opacity="1" font-size="34.5833" fill="none" stroke-linejoin="bevel" font-style="normal" stroke-linecap="square" stroke="#000000" font-family="MS Shell Dlg 2" font-weight="400"/>
  <g stroke-width="1" transform="matrix(11.808,0,0,11.808,0,0)" stroke-opacity="1" font-size="34.5833" fill="none" stroke-linejoin="bevel" font-style="normal" stroke-linecap="square" stroke="#000000" font-family="MS Shell Dlg 2" font-weight="400"/>
  <g transform="matrix(0.999744,0,0,0.999744,0,0)" font-size="34.5833" fill-opacity="0" fill="#000000" font-style="normal" stroke="none" font-family="MS Shell Dlg 2" font-weight="400">
   <rect x="0" height="2953" width="2953" y="0"/>
  </g>
  <g stroke-width="1" transform="matrix(0.999744,0,0,0.999744,0,0)" stroke-opacity="1" font-size="34.5833" fill="none" stroke-linejoin="bevel" font-style="normal" stroke-linecap="square" stroke="#000000" font-family="MS Shell Dlg 2" font-weight="400"/>
  <g stroke-width="3.07087" transform="matrix(0.999744,0,0,0.999744,0,0)" stroke-opacity="1" font-size="34.5833" fill-opacity="1" fill="#c5c5c5" stroke-linejoin="bevel" font-style="normal" stroke-linecap="square" stroke="#5c5c5c" font-family="MS Shell Dlg 2" font-weight="400">
   <path fill-rule="evenodd" vector-effect="none" d="M1577.73,209.461 L1579.77,209.111 L1580.74,209.414 L1581.82,209.298 L1583.72,209.973 L1585.68,208.319 L1586.93,205.638 L1589.09,204.356 L1590.39,204.03 L1593.4,203.82 L1597.92,205.102 L1603,207.852 L1604.82,206.826 L1606.52,207.548 L1606.8,209.576 L1608.25,212.466 L1610.41,212.326 L1611.69,212.932 L1612.43,214.074 L1613.02,216.405 L1614.58,218.969 L1616.09,222.371 L1616.86,228.478 L1617.25,229.41 L1618.19,230.109 L1619.64,233.745 L1619.18,236.029 L1621.91,240.364 L1622.87,242.997 L1624.95,244.046 L1625.8,243.533 L1626.79,242.274 L1628.58,242.508 L1629.72,243.137 L1630.09,245.584 L1631.22,247.215 L1631.53,248.846 L1631.99,249.359 L1634.09,249.848 L1636.11,251.386 L1636.96,251.386 L1638.18,250.361 L1641.33,250.524 L1643.37,249.312 L1645.65,248.986 L1647.46,251.293 L1649.59,252.109 L1650.1,252.924 L1650.07,255.511 L1650.53,257.701 L1653.43,263.411 L1654.33,264.483 L1655.72,265.415 L1656.66,263.084 L1657.74,261.873 L1658.45,260.358 L1662,259.566 L1663.9,257.958 L1667.25,257.422 L1670.46,257.771 L1672.65,260.591 L1675.6,260.754 L1677.02,261.383 L1678.58,263.201 L1680.2,266.347 L1681.56,267.139 L1684.34,267.931 L1685.39,268.747 L1689.54,268.91 L1691.98,266.999 L1694.68,265.46 L1696.27,263.48 L1697.4,262.78 L1703.34,263.409 L1704.42,263.083 L1704.93,263.27 L1706.06,266.043 L1710.38,269.911 L1719.04,278.975 L1721.08,279.907 L1724.23,282.144 L1728.29,287.549 L1729.6,286.967 L1733.4,283.145 L1738.86,281.048 L1741.47,280.535 L1744.68,284.683 L1750.44,287.385 L1751.46,288.317 L1753.08,290.717 L1757.42,294.678 L1758.22,294.911 L1762.73,293.443 L1764.1,293.327 L1766.17,293.303 L1769.97,294.119 L1773.3,295.68 L1777.21,298.616 L1783.66,301.551 L1785.99,303.439 L1786.44,304.44 L1786.5,306.444 L1788.77,309.147 L1789.28,310.731 L1789.71,311.104 L1791.27,310.848 L1794.65,311.034 L1798.65,313.783 L1800.41,315.857 L1803.11,316.905 L1806.77,320.935 L1810.15,322.939 L1808.9,325.897 L1808.99,327.598 L1810.49,329.741 L1808.25,330.627 L1807.31,331.465 L1801.01,339.852 L1799.9,344.721 L1799.9,347.097 L1800.35,349.054 L1801.39,350.73 L1804.67,354.131 L1806.83,355.459 L1808.65,357.974 L1811.97,360.792 L1812.7,364.53 L1813.81,366.149 L1814.44,367.85 L1815.57,372.554 L1815.09,373.952 L1814.72,377.236 L1813.84,378.796 L1812,381.148 L1808.11,382.22 L1807.25,385.131 L1806.49,386.389 L1806.52,389.416 L1807.14,391.862 L1811.98,395.867 L1814.32,397.096 L1815.8,399.966 L1817.14,406.536 L1822.13,410.571 L1825.37,415.987 L1824.77,423.672 L1827.44,434.989 L1828.08,436.355 L1829,436.829 L1832.07,436.433 L1832.89,436.992 L1833.83,438.622 L1840.22,442.953 L1842.79,443.287 L1845.21,442.719 L1849.93,444.49 L1850.92,444.233 L1855.55,441.066 L1861.42,439.298 L1862.05,438.668 L1862.53,436.572 L1863.58,437.202 L1867.59,432.235 L1868.64,431.376 L1876.53,428.632 L1877.76,428.626 L1880.96,429.665 L1882.34,429.638 L1885.62,429.138 L1890.1,427.548 L1890.14,430.745 L1890.56,432.45 L1891.24,433.079 L1896.38,433.94 L1903.23,441.346 L1904.45,443.5 L1907.26,446.981 L1907.62,448.191 L1905.48,454.314 L1903.59,456.345 L1902.14,458.482 L1901.26,460.764 L1900.93,463.408 L1897.54,466.631 L1896.24,469.278 L1893.09,472.798 L1892.02,474.565 L1890.61,475.707 L1889.15,476.034 L1888.36,477.189 L1888.64,477.824 L1891.61,478.296 L1894.84,480.014 L1895.97,480.944 L1897.11,482.516 L1899.91,488.869 L1902.67,496.921 L1903.19,501.319 L1902.6,503.897 L1902.59,510.164 L1903.17,511.007 L1905.29,512.451 L1905.76,513.732 L1905.01,518.497 L1904.87,522.268 L1904.19,525.783 L1904.33,527.11 L1906.26,530.764 L1907.2,531.322 L1907.06,532.695 L1907.34,533.65 L1908.71,534.753 L1909.43,538.826 L1905.65,540.876 L1905.32,542.773 L1904.19,545.915 L1904.47,547.649 L1906.81,552.711 L1905.52,555.293 L1905.44,557.001 L1906.86,564.055 L1904.76,568.023 L1903.71,572.747 L1904,574.079 L1905.64,576.803 L1905.71,578.255 L1898.51,587.407 L1896.92,590.283 L1895.73,595.83 L1895.39,599.483 L1894.39,600.809 L1893.54,606.673 L1893.06,608.371 L1891.76,610.789 L1891.11,613.801 L1891.58,618.217 L1893.17,621.816 L1893.65,626.181 L1891.86,630.22 L1891.53,634.288 L1891.81,635.87 L1893.75,640.53 L1895.02,641.826 L1897.46,642.721 L1898.86,644.474 L1903.83,649.099 L1904.69,649.095 L1906.16,647.645 L1908.07,646.525 L1909.74,646.358 L1910.91,645.511 L1911.76,644.248 L1912.8,640.537 L1912.57,639.329 L1911.76,638.297 L1911.97,636.028 L1914.85,633.036 L1920.77,631.305 L1921.24,630.857 L1926.79,631.624 L1927.28,631.468 L1930.73,633.123 L1933.25,632.281 L1936.54,632.584 L1938.24,632.271 L1941.91,636.428 L1943.78,643.232 L1944.13,648.299 L1944.58,649.912 L1944.87,650.59 L1947.32,652.735 L1947.78,654.184 L1947.27,655.578 L1944.39,657.875 L1943.7,659.582 L1944.2,662.018 L1945.57,664.162 L1946.75,668.37 L1947.82,668.711 L1951.92,667.971 L1952.42,668.4 L1953.98,668.294 L1955.15,669.403 L1957.38,669.485 L1963.59,666.877 L1965.59,668.532 L1966.94,668.642 L1971.71,665.807 L1978.05,665.303 L1979.34,664.667 L1981.79,662.597 L1982.61,661.457 L1982.75,660.527 L1982.02,659.176 L1982.27,657.107 L1982.89,655.805 L1982.78,653.801 L1983.4,652.78 L1986.41,650.369 L1987.04,648.872 L1987.46,643.266 L1987.95,641.638 L1988.23,636.589 L1988.94,635.031 L1990.27,634.403 L1992.57,631.82 L1992.8,626.958 L1995.24,622.049 L1995.53,619.49 L1996.44,616.651 L1995.87,612.487 L1996.33,608.729 L2000.71,607.033 L2002.74,605.693 L2005.97,606.849 L2009.85,607.211 L2013.6,608.447 L2014.3,608.295 L2017.9,605.972 L2019.58,605.972 L2020.45,606.318 L2021.39,607.207 L2022.33,609.299 L2022.43,611.717 L2023.95,616.302 L2025.37,622.397 L2024.49,624.77 L2024.95,627.059 L2026.47,630.307 L2029.85,634.285 L2030.59,637.083 L2032.85,637.823 L2034.19,639.307 L2036.61,644.8 L2036.61,648.383 L2035.74,652.2 L2035.9,657.804 L2037.62,661.401 L2038.5,667.977 L2039.05,668.388 L2041.58,669.016 L2041.76,670.571 L2040.87,672.039 L2041.61,674.738 L2043.74,675.807 L2044.93,679.148 L2045.38,679.535 L2049.33,679.553 L2050.83,679.928 L2051.95,680.682 L2054.12,681.191 L2055.49,680.878 L2056.88,680.994 L2058.25,681.948 L2059.01,683.53 L2064.83,683.855 L2070.34,685.692 L2074.4,684.46 L2075.65,683.692 L2079.8,685.785 L2081.9,688.693 L2082.15,689.553 L2081.64,693.391 L2082.01,694.647 L2081.47,696.047 L2081.9,697.382 L2082.52,697.67 L2083.63,699.368 L2084.82,699.996 L2085.19,700.996 L2083.32,707.601 L2079.91,710.787 L2079.12,712.113 L2079.17,713.719 L2083.86,717.904 L2086.84,719.671 L2087.41,720.81 L2088.03,724.163 L2090.28,725.717 L2091.16,726.717 L2092.66,729.74 L2093.14,731.066 L2093.77,735.159 L2092.43,735.019 L2091.5,735.577 L2090.76,739.716 L2090.25,740.67 L2089.74,740.739 L2086.6,738.878 L2086.76,736.321 L2086.3,735.624 L2084.06,735.694 L2081.93,734.74 L2081.3,734.81 L2081.19,735.368 L2082.18,737.763 L2082.41,739.205 L2082.04,740.321 L2080.37,740.833 L2079.86,743.274 L2077.64,744.018 L2075.4,745.344 L2074.09,746.646 L2073.64,747.855 L2074.21,749.925 L2073.7,752.506 L2073.07,753.18 L2071.82,753.808 L2068.98,754.18 L2067.68,755.179 L2066.99,756.993 L2067.16,759.956 L2065.18,760.935 L2065.15,761.318 L2063.84,761.388 L2063.67,761.643 L2060.87,769.259 L2058.52,773.194 L2058.22,775.223 L2056.22,779.871 L2055.14,780.97 L2053.43,781.767 L2053.14,783.032 L2054.62,787.194 L2054.47,789.705 L2053.79,790.891 L2051.86,792.146 L2051.49,793.169 L2050.7,801.514 L2050.84,803.653 L2051.61,805.42 L2053.74,807.744 L2054.99,808.302 L2058.39,810.929 L2061,813.695 L2062.08,814.067 L2064.38,812.858 L2065.77,814.439 L2067.82,818.989 L2070.23,820.711 L2071.54,823.061 L2072.5,823.829 L2076.84,825.701 L2077.2,827.489 L2077.12,829.839 L2079.23,832.871 L2080.49,838.378 L2082.27,842.54 L2085.44,845.579 L2086.37,846.862 L2086.41,847.577 L2085.52,850.41 L2085.28,855.349 L2085.64,856.662 L2089.4,858.158 L2091.01,859.158 L2093.14,859.227 L2096.01,858.832 L2099.79,859.971 L2101.66,859.971 L2106.66,861.272 L2108.16,861.9 L2110.09,863.596 L2113.98,866.222 L2117.68,865.641 L2119.24,864.944 L2124.41,863.68 L2126.83,864.649 L2127.65,865.46 L2129.37,871.659 L2129.49,874.816 L2130,876.738 L2128.38,882.768 L2128.12,886.858 L2129.8,891.865 L2129.81,893.979 L2130.48,897.64 L2131.99,899.662 L2136.07,901.776 L2136.7,902.659 L2137.83,908.932 L2138.72,910.512 L2138.97,911.883 L2141.06,915.545 L2140.27,918.64 L2136.84,922.215 L2134.63,925.661 L2132.78,931.052 L2131.42,933.584 L2131.31,937.209 L2133.69,940.415 L2131.39,942.924 L2126.96,951.032 L2125.03,953.054 L2122.99,953.937 L2120.29,956.632 L2117.25,957.84 L2116.48,959.048 L2116.12,960.488 L2116.26,963.253 L2117.51,965.065 L2118.13,967.249 L2122.22,971.197 L2123.47,972.893 L2123.78,974.403 L2122.42,977.423 L2114.75,982.325 L2107.91,989.504 L2107.49,991.269 L2107.91,999.933 L2110.64,1001.58 L2113.68,1002.86 L2117.31,1007.04 L2121.48,1009.18 L2126.73,1015.24 L2127.5,1016.82 L2127.67,1018.26 L2129.35,1021.21 L2129.77,1023.23 L2131.48,1026.11 L2133.29,1028.82 L2136.34,1030.12 L2137.35,1031.32 L2137.55,1032.75 L2136.89,1037.33 L2138.05,1041.07 L2139.57,1043.41 L2140.51,1044.33 L2143.36,1045.37 L2144.15,1046.61 L2144.75,1048.99 L2149.63,1051.66 L2152.43,1051.82 L2153.13,1054.03 L2155.87,1055.3 L2156.66,1055.85 L2157.38,1056.97 L2158.32,1057.34 L2160.05,1057.1 L2161.46,1057.89 L2164.86,1058.91 L2164.91,1062.11 L2165.63,1064.49 L2169.93,1066.95 L2171.83,1067.16 L2174.5,1068.4 L2174.74,1069.42 L2174.6,1075.49 L2174.97,1076.63 L2175.74,1077.58 L2178.4,1078.38 L2179.53,1079.79 L2182.09,1080.66 L2182.37,1081.12 L2182.12,1082.58 L2180.54,1084.55 L2179.69,1086.22 L2179.26,1088.81 L2178.29,1089.71 L2177.73,1091.98 L2175.98,1094.27 L2175.02,1096.4 L2171.31,1099.22 L2165.04,1109.76 L2147.35,1121.59 L2145.89,1122.93 L2141.02,1125.82 L2139.2,1125.75 L2138.12,1125.13 L2136.19,1125.31 L2134.68,1125.75 L2132.33,1125.87 L2131.37,1126.21 L2130.18,1127.25 L2127.81,1127.61 L2124.26,1126.29 L2118.64,1125.34 L2116.26,1125.57 L2114.86,1126.84 L2114.73,1127.72 L2113.93,1128.78 L2112.71,1131.9 L2111.06,1132.88 L2109.31,1134.74 L2108.53,1134.56 L2107.97,1135.07 L2108.4,1138.06 L2109.17,1138.68 L2110.45,1140.61 L2110.04,1142.46 L2108.41,1145.52 L2108.7,1146.44 L2108.53,1147.67 L2109.05,1148.25 L2110.81,1148.99 L2112.24,1150.79 L2111.27,1153.94 L2111.37,1154.95 L2111.97,1155.65 L2111.16,1158.73 L2111.5,1159.46 L2111.55,1162.32 L2112.28,1162.76 L2111.74,1163.54 L2111.87,1164.01 L2111.57,1164.51 L2109.78,1166.18 L2108.91,1166.42 L2107.96,1167.23 L2105.47,1167.31 L2103.98,1168.53 L2103.87,1170.1 L2102.69,1172.01 L2103.27,1174.46 L2102.92,1176.37 L2105.53,1179.4 L2104.88,1180.31 L2105.15,1183.78 L2106.67,1184.58 L2107.97,1184.41 L2109.71,1184.88 L2111.54,1184.83 L2112.11,1184.28 L2112.45,1182.68 L2112.15,1181.36 L2112.36,1180.71 L2113.45,1180.61 L2114.76,1179.57 L2115.12,1178.82 L2116.26,1178.84 L2117.1,1177.83 L2118.33,1177.52 L2119.2,1177.51 L2119.55,1178.99 L2121.17,1180.38 L2123.83,1179.13 L2125.58,1180.07 L2130.09,1180.15 L2130.11,1181.69 L2128.62,1184.58 L2128.95,1186.57 L2128.8,1187.92 L2129.58,1190.65 L2130.94,1193.02 L2131.33,1196.67 L2130.43,1198.67 L2128.82,1200.57 L2126.97,1201.87 L2124.55,1205.63 L2124.38,1206.57 L2125.44,1208.52 L2123.97,1209.77 L2123.91,1210.73 L2123.28,1211.43 L2124.62,1214.51 L2124.51,1215.7 L2124.13,1216.74 L2122.57,1217.5 L2121.64,1218.33 L2119.99,1222.09 L2118.74,1222.94 L2117.57,1226.35 L2116.55,1227 L2116.7,1227.88 L2116.02,1228.62 L2116.37,1230.01 L2116.14,1231.77 L2116.66,1232.79 L2115.92,1236.1 L2114.4,1237.51 L2114.21,1239.04 L2113.7,1239.77 L2112.06,1239.75 L2109.82,1241.55 L2109.34,1243.83 L2108.7,1245.05 L2109.32,1246.83 L2109.1,1247.76 L2108.49,1248.87 L2106.77,1249.45 L2106.91,1254.12 L2110.11,1257.48 L2111.12,1260.47 L2111.39,1262.61 L2110.47,1264.41 L2108.93,1265.95 L2108.12,1268.56 L2108.4,1276.46 L2108.11,1281.86 L2108.63,1284.04 L2107.94,1289.2 L2106.36,1292.09 L2104.41,1293.77 L2100.47,1298.61 L2098.18,1300.11 L2095.84,1303.02 L2095.7,1303.64 L2097.83,1307.34 L2097.37,1308.32 L2097.35,1309.29 L2096.78,1310.28 L2096.63,1312.6 L2095.66,1316.52 L2095,1317.61 L2093.28,1318.95 L2090.12,1319.45 L2088.14,1320.57 L2087.83,1323.1 L2088.27,1325.99 L2087.89,1328.31 L2088.02,1329.56 L2086.99,1329.22 L2086.11,1329.36 L2084.69,1330.1 L2083.24,1330.4 L2082.42,1331.1 L2080.38,1331.91 L2079.83,1332.82 L2079.97,1334.87 L2078.59,1336.24 L2077.14,1336.89 L2076.8,1337.36 L2075.68,1341.14 L2073.43,1343.22 L2072.39,1346.4 L2071.86,1346.99 L2070.29,1346.98 L2069.3,1347.58 L2068.85,1348.62 L2069.11,1349.94 L2068.76,1351.55 L2067.17,1353.02 L2065.44,1353.41 L2064.62,1353.92 L2062.77,1356.96 L2061.32,1357.49 L2060.81,1359.04 L2060.87,1364.08 L2062.57,1366.62 L2065.85,1368.81 L2069.33,1376.32 L2068.51,1378.08 L2068.76,1379.15 L2070.94,1381.78 L2072.17,1384.78 L2071.64,1390.4 L2071.88,1400.6 L2071.63,1402.73 L2071.26,1403.91 L2069.78,1406.11 L2068.85,1411.56 L2069.53,1421.53 L2069.33,1422.8 L2068.31,1424.73 L2067.74,1426.68 L2068.82,1430.06 L2066.72,1434.7 L2066.45,1436.18 L2068.17,1441.35 L2068.29,1444.14 L2068.91,1444.79 L2072.71,1446.38 L2074.3,1447.63 L2072.14,1451.52 L2068.28,1455.97 L2067.51,1457.78 L2067.37,1459.85 L2065.99,1460.6 L2061.72,1465.57 L2059.15,1467.22 L2055.83,1470.79 L2054.46,1471.2 L2051.72,1471.31 L2047.39,1473.96 L2043.44,1473.74 L2040.11,1474.4 L2039.06,1474.21 L2038.22,1473.3 L2037.29,1473.42 L2036.2,1474.94 L2034.1,1476.58 L2032.83,1481.4 L2033.93,1483.6 L2033.78,1484.11 L2032.1,1486.59 L2029.74,1488.24 L2030.05,1488.84 L2032.65,1490.07 L2033.87,1492.87 L2035.85,1494.6 L2040.78,1495.92 L2044.15,1498.08 L2047.21,1503.55 L2048.32,1506.87 L2049.06,1510.8 L2052.35,1512.01 L2054.51,1512.27 L2055.91,1513.05 L2058.51,1512.59 L2061.74,1512.85 L2063.12,1513.31 L2065.14,1516.87 L2065.85,1519.37 L2066.79,1521.08 L2067.09,1522.94 L2066.77,1523.66 L2065.18,1524.4 L2064.11,1525.34 L2067.54,1526.84 L2069.64,1527.05 L2071.09,1528.16 L2072.93,1528.45 L2074.81,1529.6 L2077.36,1530.18 L2078.39,1530.83 L2078.96,1532.54 L2079.44,1536.58 L2083.37,1536.42 L2085,1538.22 L2085.74,1538.6 L2088.72,1537.83 L2089.27,1538.28 L2089.46,1539.08 L2092.21,1541.2 L2095.08,1540.95 L2096.72,1542.18 L2100.36,1542.74 L2105.32,1548.57 L2106.51,1551.49 L2107.79,1553.35 L2108.52,1555.58 L2108.12,1557.05 L2109.37,1557.55 L2112.32,1557.69 L2115.4,1559.09 L2115.32,1559.67 L2116.94,1560.88 L2117.9,1566.93 L2118.99,1568.09 L2117.7,1576.28 L2117.95,1581.13 L2118.65,1584.75 L2118.09,1588.04 L2117.28,1590.1 L2117.53,1592.32 L2118.5,1594.42 L2120.79,1596.46 L2121.82,1598 L2120.42,1600.64 L2118.3,1601.58 L2115.88,1603.42 L2113.28,1609.42 L2112.85,1615.22 L2111.82,1618.21 L2110.13,1620.17 L2111.2,1624.12 L2110.8,1627.89 L2110.95,1629.99 L2110.63,1631.3 L2107.04,1634.84 L2105.76,1637.67 L2104.4,1639.35 L2103.5,1642.23 L2100.73,1643.96 L2105.31,1646.62 L2107.83,1646.95 L2110.83,1646.72 L2113.84,1648.22 L2118.57,1649.95 L2119.46,1650.62 L2120.28,1652.03 L2123.32,1653.84 L2125.43,1656.54 L2130.46,1655.22 L2133.53,1652.94 L2136.59,1651.74 L2137.21,1651.87 L2139.06,1654.42 L2139.46,1655.56 L2140.84,1655.81 L2142.03,1656.45 L2145.33,1658.59 L2146.9,1660.28 L2149.11,1661.26 L2150.94,1663.89 L2153.88,1665.6 L2154.96,1667.36 L2157.18,1668.9 L2158.62,1672.49 L2160.04,1673.39 L2161.8,1673.88 L2163.17,1675.28 L2164.89,1679.44 L2164.73,1681.65 L2166.02,1683.48 L2169.08,1686.31 L2172.87,1687.77 L2176.69,1687.27 L2178.75,1688.19 L2180.78,1687 L2182.4,1687.92 L2183.07,1689.2 L2183.02,1691.16 L2183.75,1691.64 L2184.43,1692.69 L2185.76,1695.78 L2182.96,1697.48 L2182.91,1701.1 L2183.62,1702.34 L2184.66,1702.23 L2188.46,1703.44 L2189.91,1701.51 L2192.22,1700.89 L2195.95,1701.24 L2199.25,1702.33 L2201.23,1705.57 L2201.62,1707.45 L2203.81,1710.09 L2204.92,1713.08 L2205.02,1715.51 L2201.04,1723.16 L2202.4,1724.24 L2204.2,1727.07 L2204.48,1731.92 L2205.03,1733.8 L2204.84,1737.2 L2205.93,1740.34 L2204.7,1741.4 L2202.34,1742.24 L2198.9,1744.4 L2197.95,1747.15 L2196.73,1748.77 L2194.91,1749.11 L2192.01,1748.52 L2190.54,1748.6 L2188.43,1747.81 L2186.29,1747.77 L2183.53,1748.34 L2181.68,1749.24 L2182.05,1751.44 L2182.96,1752.99 L2183.03,1753.67 L2181.75,1756.29 L2181.72,1757.62 L2179.44,1760.38 L2179.2,1761.28 L2179.67,1764.13 L2180.52,1765.21 L2181.63,1768.43 L2180.58,1771.36 L2180.3,1773.8 L2179.07,1776.6 L2178.88,1778.48 L2176.51,1778.7 L2175.03,1779.43 L2173.39,1779.73 L2171.38,1781.43 L2169.54,1784.16 L2167.49,1784.75 L2166.31,1789.3 L2166.62,1790.72 L2166.24,1796.45 L2161.46,1800.92 L2163.48,1802.26 L2165.28,1802.82 L2168.83,1806.1 L2171.36,1806.51 L2172.27,1807.31 L2173.86,1807.77 L2175.47,1808.91 L2179.01,1809.53 L2181.05,1811.78 L2182.25,1812.57 L2183.31,1814.24 L2186.7,1816.11 L2188.66,1818.32 L2189.69,1820.49 L2189.33,1822.36 L2188.92,1822.95 L2186.55,1823.18 L2185.39,1823.87 L2185.47,1825.33 L2185.06,1826.99 L2184.21,1828.53 L2183.6,1832.86 L2181.85,1834.01 L2180.26,1834.27 L2179.26,1834.82 L2178.63,1835.6 L2177.54,1836.14 L2175.34,1838.55 L2173.84,1839.32 L2172.92,1839.43 L2171.81,1841.95 L2172.69,1844.9 L2175.19,1849.18 L2174.88,1852.36 L2175.29,1853.13 L2174.89,1854.05 L2176.11,1854.54 L2177.74,1857.01 L2177.51,1857.8 L2176.44,1858.58 L2176.47,1859.48 L2175.51,1861.04 L2176.16,1863.74 L2175.04,1863.65 L2174.06,1864.68 L2174.47,1865.75 L2174.43,1867.26 L2175.71,1869.13 L2175.77,1870.72 L2176.52,1871.47 L2176.2,1874.26 L2175.35,1874.69 L2175.54,1875.66 L2175.16,1876.98 L2175.42,1878.34 L2175.86,1878.94 L2175.56,1880.14 L2176.45,1881.51 L2177.13,1881.97 L2175.09,1885.06 L2174.08,1885.83 L2173.72,1886.54 L2172.34,1887.23 L2170.67,1890.97 L2170.35,1893.05 L2169.17,1895.04 L2169.04,1896.09 L2169.4,1896.52 L2169.51,1897.93 L2170.13,1898.61 L2170.13,1900.41 L2171.46,1904.49 L2171.3,1905.03 L2170,1906.03 L2168.07,1909.3 L2169.24,1910.63 L2169.84,1910.85 L2170.35,1911.83 L2171.58,1912.11 L2172.36,1915.27 L2174.88,1918.31 L2175.84,1920.59 L2175.98,1922.67 L2177.02,1923.95 L2177.29,1925.28 L2178.25,1926.06 L2176.16,1926 L2174.9,1926.84 L2174.23,1926.55 L2173.46,1926.94 L2171.21,1928.79 L2170.48,1930.29 L2168.9,1930.69 L2168.16,1931.23 L2168.3,1932.75 L2166.53,1933.43 L2164.88,1933.37 L2164.15,1934.07 L2162.08,1934.06 L2161.55,1934.96 L2162.85,1936.36 L2163.26,1938.16 L2163.45,1939.33 L2162.82,1939.83 L2162.75,1942.13 L2163.83,1943.46 L2163.8,1944.26 L2164.68,1944.6 L2164.6,1945.37 L2165.3,1945.61 L2165.4,1946.62 L2166.26,1947.75 L2166.4,1948.46 L2165.82,1949.1 L2165.95,1949.76 L2165.6,1950.2 L2166.25,1950.46 L2166.93,1950.23 L2167.62,1951.25 L2168.8,1951.47 L2171.83,1954.38 L2172.19,1955.65 L2173.46,1956.9 L2173.03,1957.3 L2173.08,1958.35 L2172.27,1959.45 L2172.11,1960.86 L2171.3,1962.27 L2172.33,1964.77 L2173.29,1966.16 L2173.76,1968.23 L2174.52,1968.45 L2174.79,1968.99 L2174.35,1970.08 L2174.37,1971.57 L2175.11,1974.69 L2175.18,1976.55 L2175.76,1977.69 L2175.98,1979.25 L2175.32,1980.4 L2175.09,1981.67 L2175.45,1982.93 L2174.5,1983.7 L2174.44,1984.97 L2173.96,1985.16 L2172.87,1984.59 L2171.56,1982.81 L2170.68,1982.64 L2170.29,1982.21 L2168.63,1982.11 L2167.62,1984.12 L2167.53,1985.6 L2166.49,1986.77 L2165.31,1987.62 L2163.79,1987.72 L2161.64,1991.16 L2159.49,1991.21 L2158.01,1992.29 L2156.95,1993.56 L2157.04,1995.53 L2157.7,1996.19 L2157.91,1997.9 L2156.72,1999.31 L2156.12,1999.05 L2154.67,1999.57 L2153.32,1999.11 L2151.95,1999.52 L2150.68,2000.84 L2149.93,2001 L2149.3,2002.77 L2149.35,2003.95 L2148.42,2004.76 L2148.1,2006.1 L2146.8,2007.79 L2143.41,2006.42 L2142.89,2005.92 L2138.52,2006.32 L2138.03,2006.88 L2137.89,2008.8 L2138.3,2009.59 L2138.04,2011.01 L2136.86,2012.63 L2136.04,2012.67 L2133.97,2016.34 L2132.92,2016.44 L2132.09,2020.76 L2131.67,2021.46 L2130.74,2022.48 L2129.47,2022.53 L2126.58,2024.18 L2126.17,2024.89 L2126.21,2025.95 L2122.05,2027.05 L2122.01,2027.84 L2123.38,2029.5 L2122.55,2031.83 L2122.77,2032.61 L2121.65,2033.68 L2121.61,2036.55 L2121.35,2036.94 L2121.74,2037.65 L2121.79,2040.25 L2121.67,2040.77 L2120.74,2041.71 L2121.94,2045.65 L2121.18,2046.83 L2120.65,2046.63 L2120.21,2046.83 L2119.26,2046.34 L2118.24,2046.48 L2117.35,2048.98 L2117.91,2050.14 L2119.75,2050.98 L2120.28,2052.97 L2119.7,2056.52 L2118.95,2057.42 L2119.2,2058.79 L2118.62,2060.49 L2119.13,2061.74 L2118.91,2062.78 L2119.45,2064.98 L2120.03,2065.68 L2119.6,2069.47 L2121.16,2070.85 L2123.15,2075.01 L2123.2,2075.47 L2122.4,2076.43 L2121.97,2077.63 L2122.64,2079.4 L2123.54,2080.39 L2127.33,2080.6 L2128.85,2081.32 L2132.03,2080.69 L2136.16,2080.75 L2136.85,2081.41 L2136.96,2082.44 L2136.87,2082.84 L2135.92,2083.24 L2136.06,2084.31 L2134.18,2085.56 L2132.96,2085.82 L2132.65,2087.22 L2131.46,2089.16 L2131.65,2089.57 L2133.2,2090.22 L2133.24,2091.28 L2133.88,2092.39 L2133.33,2093.42 L2131.73,2093.41 L2130.41,2094.06 L2130.13,2094.71 L2129.68,2096.83 L2130.76,2100.78 L2129.85,2103.04 L2129.66,2105 L2124.48,2106.99 L2122.46,2106.98 L2121.15,2108.36 L2120.96,2109.99 L2121.25,2112.63 L2122.72,2113.59 L2123.9,2116.64 L2123.74,2117.22 L2122,2117.32 L2120.66,2120.78 L2119.74,2121.93 L2119.31,2125.46 L2120.36,2127.76 L2120.1,2132.82 L2121.61,2138.21 L2123,2138.72 L2123.06,2141.12 L2123.71,2142.37 L2123.71,2144.93 L2124.08,2146.94 L2125.05,2148.59 L2126.44,2149.45 L2126.61,2149.97 L2125.84,2154.1 L2126.1,2155.43 L2127.51,2156.9 L2128.12,2156.56 L2128.48,2156.98 L2129.56,2159.75 L2129.31,2160.23 L2129.25,2164.44 L2128.42,2164.78 L2127.49,2166.1 L2126.2,2166.18 L2124.42,2167.68 L2123.4,2167.88 L2123,2168.45 L2119.87,2168.92 L2119.32,2169.76 L2118.16,2169.93 L2115.11,2172.82 L2114.03,2172.71 L2113.2,2173.38 L2113.01,2174.82 L2111.39,2176.24 L2113.63,2178.91 L2114.69,2182.49 L2117.31,2182.92 L2118.35,2184.66 L2117.54,2187.25 L2116.46,2189.11 L2116.22,2190.53 L2116.91,2193.62 L2116.88,2195.28 L2117.46,2196.92 L2116.05,2199.84 L2116.45,2201.05 L2115.62,2203.01 L2116.22,2204.62 L2115.74,2204.99 L2115.36,2206.05 L2115.56,2207.18 L2115.28,2208.79 L2115.7,2210.99 L2115.36,2211.5 L2115.53,2212.93 L2115.02,2213.37 L2115.01,2213.79 L2117.47,2217.66 L2117.1,2218.32 L2114.62,2219.83 L2113.86,2221.62 L2113.77,2222.92 L2113.19,2223.16 L2112.39,2224.62 L2108.55,2227.18 L2108.31,2227.62 L2108.03,2227.39 L2106.56,2228.45 L2105.44,2230.55 L2104.96,2230.43 L2103.54,2230.88 L2101.45,2232.83 L2100.61,2235.02 L2098.82,2235.97 L2098.25,2237.04 L2098.35,2240.01 L2097.05,2242.2 L2095.25,2243.42 L2093.96,2244.79 L2093.47,2244.58 L2091.95,2244.86 L2091.2,2245.48 L2090.23,2247.09 L2090,2248.34 L2088.45,2248.97 L2087.98,2250.59 L2089.17,2254.57 L2089.04,2256.92 L2087.57,2258.05 L2086.4,2258.34 L2086.01,2258.99 L2085.87,2260.84 L2084.12,2262.42 L2081.48,2264.03 L2079.98,2264.57 L2080.02,2265.11 L2079.28,2265.3 L2081.03,2270.08 L2080.6,2271.6 L2079.15,2272.68 L2078.61,2274.06 L2076.68,2275.82 L2075.39,2277.54 L2075.58,2278.9 L2073.56,2281.36 L2073.29,2284.26 L2073.01,2284.65 L2073.22,2289.48 L2072.77,2291.78 L2070.35,2294.5 L2070.86,2296.9 L2069.74,2298.25 L2065.5,2299.65 L2063.5,2299.32 L2061.64,2298.33 L2059.21,2298.01 L2058.89,2296.37 L2058.25,2295.62 L2055.03,2295.73 L2052.65,2293.71 L2050.37,2295.25 L2048.71,2295.17 L2046.28,2298.04 L2045.95,2300.11 L2041.9,2302.98 L2040.01,2306.14 L2036.4,2308.61 L2034.91,2311.71 L2033.31,2313.58 L2029.41,2314.8 L2028.84,2315.74 L2027.55,2316.61 L2025.78,2318.47 L2022.35,2320.9 L2020.3,2323.41 L2019.21,2323.86 L2021.68,2327.52 L2025.49,2329.97 L2025.18,2333.21 L2024.02,2334.06 L2024.44,2335.05 L2024.12,2336.48 L2022.45,2339.18 L2022.47,2340.17 L2019.67,2342.52 L2019.03,2344.14 L2017.85,2344.81 L2017.11,2346.11 L2017.08,2349.55 L2017.99,2352.38 L2017.05,2354.23 L2016.8,2355.79 L2019.18,2359.17 L2019.54,2362.62 L2018.14,2364.76 L2018.95,2366.7 L2022.5,2370.56 L2024.71,2371.25 L2025.13,2372.84 L2022.68,2373.86 L2021.92,2374.63 L2020.85,2374.49 L2018.73,2375.37 L2016.48,2375.69 L2014.25,2375.49 L2012.39,2376.91 L2010.96,2377.35 L2009.69,2378.79 L2008.73,2378.85 L2008.16,2379.52 L2008.1,2381.29 L2006.33,2384.23 L2007.29,2385.44 L2008.17,2385.83 L2008.37,2387.16 L2008.95,2387.94 L2008.15,2390.75 L2007.22,2392.05 L2007.25,2392.9 L2006.58,2394.38 L2008.08,2395.32 L2008.57,2396.53 L2009.04,2396.8 L2009.69,2399.45 L2006.96,2401.52 L2006.07,2403.01 L2002.32,2404.45 L2001.63,2405.35 L2000.66,2408.05 L2001.13,2411.41 L2000.99,2412.8 L2001.92,2414.22 L2001.32,2415.95 L2003.32,2417.42 L2003.96,2418.53 L2003.12,2420.5 L2002.97,2421.73 L2003.82,2427.03 L1997.26,2426.43 L1994.92,2426.77 L1993.23,2428.23 L1990.53,2429 L1990.21,2429.36 L1990.17,2431.55 L1988.46,2434.67 L1987.15,2435.78 L1985.89,2437.7 L1982.58,2439.43 L1982.05,2440.32 L1979.25,2441.73 L1978.21,2441.88 L1975.45,2441.44 L1974.02,2442.18 L1972.41,2442.02 L1972.05,2442.54 L1970.08,2442.6 L1968.31,2443.07 L1967.79,2443.66 L1967.66,2445.18 L1967.15,2445.75 L1966.96,2447.84 L1965.79,2449.86 L1964.98,2450.3 L1964.49,2451.28 L1962.94,2452.67 L1962.19,2453.25 L1960.73,2453.51 L1958.65,2455.68 L1957.19,2453.53 L1955.28,2453.74 L1953.85,2453.06 L1953.15,2452.23 L1952.41,2452.39 L1951.8,2453.31 L1950.52,2452.4 L1949.62,2453.08 L1947.34,2452.65 L1945.47,2453.57 L1943.82,2453.64 L1941.58,2455.63 L1934.85,2458.83 L1933.11,2460.04 L1931.05,2460.44 L1930.25,2461.23 L1926.96,2461.94 L1923.84,2461.89 L1923.12,2462.15 L1921.42,2465.09 L1918.68,2468.27 L1918.64,2468.66 L1916.92,2470.04 L1915.82,2470.4 L1914.96,2471.22 L1914.72,2472.18 L1913.71,2472.87 L1911.58,2471.82 L1910.66,2470.22 L1909.55,2469.15 L1907.94,2469.27 L1906.95,2470.09 L1904.75,2470.74 L1901.18,2469.2 L1898.23,2469.51 L1896.67,2470.21 L1894.97,2471.66 L1893.51,2473.78 L1891.42,2474.2 L1890.03,2475.72 L1888.81,2475.93 L1886.29,2477.06 L1884.17,2476.8 L1883.83,2480.22 L1885.2,2485.14 L1885.32,2487.49 L1884.46,2490.49 L1885.06,2491.8 L1884.3,2492.61 L1884.16,2493.71 L1883.46,2494.98 L1882.02,2495.3 L1879.79,2496.43 L1877.36,2496.37 L1877.41,2498.61 L1876.9,2499.5 L1875.35,2500.12 L1874.62,2500.08 L1872.92,2501.16 L1872.35,2503.21 L1870.82,2504.49 L1868.42,2505.85 L1867.72,2508.55 L1866.83,2508.7 L1865.76,2509.41 L1864.96,2510.53 L1863.4,2510.26 L1861.89,2510.64 L1861.53,2509.4 L1859.84,2507.08 L1859.18,2506.49 L1858.16,2506.17 L1857.25,2506.93 L1855.5,2506.76 L1854.82,2507.92 L1853.97,2508.15 L1852.69,2507.88 L1852.03,2508.54 L1851.15,2508.85 L1850.47,2510.94 L1849.75,2511.41 L1849.07,2513.37 L1849,2514.59 L1848.23,2515.42 L1846.87,2516.63 L1845.07,2517.1 L1843.35,2518.16 L1841.66,2518.49 L1840.92,2519.79 L1839.62,2520.77 L1837.69,2523.04 L1836.29,2521.87 L1835.24,2521.97 L1834.38,2522.76 L1833.17,2522.84 L1832.17,2523.97 L1831.15,2524.03 L1829.79,2524.99 L1827.8,2524.49 L1826.42,2523.32 L1825.46,2522.92 L1823.67,2523.66 L1820.22,2522.39 L1817.12,2523.06 L1814.56,2520.92 L1813.21,2520.73 L1812.42,2521.13 L1812.37,2520.85 L1812.35,2521.12 L1812.04,2517.1 L1809.73,2514.84 L1808.4,2514.77 L1807.89,2514.05 L1806.86,2513.48 L1804.2,2513.52 L1802.39,2512.53 L1800.05,2516.66 L1799.54,2518.05 L1799.54,2519.19 L1797.04,2521.8 L1795.63,2522.6 L1794.2,2524.55 L1791.44,2526.1 L1786.27,2526.33 L1785.01,2527.26 L1783.01,2529.77 L1782.87,2536.9 L1781.05,2539.23 L1775.86,2540.72 L1774.64,2542.07 L1772.8,2542.65 L1770.73,2545.33 L1766.88,2548.14 L1763.26,2549.64 L1756.65,2551.04 L1752.24,2553.34 L1751.19,2554.15 L1750.11,2556.09 L1746.53,2557.03 L1741.82,2557.56 L1739.83,2557.38 L1738.44,2556.87 L1736.82,2555.26 L1733.41,2554.84 L1731.28,2553.71 L1730.18,2553.71 L1727.48,2555.4 L1724.97,2555.29 L1724.92,2554.16 L1724.41,2553.27 L1723.25,2552.47 L1721.69,2552.47 L1719.53,2553.53 L1715.38,2552.07 L1713.25,2553.21 L1712.06,2552.9 L1711.01,2552.11 L1710.93,2549.94 L1710.14,2549.26 L1708.79,2549.36 L1707.17,2547.66 L1704.85,2548.09 L1701.96,2549.46 L1698.48,2547.54 L1692.78,2547.51 L1690.58,2548.98 L1688.18,2548.48 L1685.75,2547.28 L1684.59,2547.17 L1684.41,2545.92 L1682.65,2544.05 L1682.14,2543.72 L1680.74,2543.77 L1679.77,2542.51 L1676.21,2542.41 L1674,2541.97 L1673.51,2542.08 L1672.3,2543.22 L1671.02,2541.53 L1671.25,2540.61 L1670.13,2539.69 L1669.39,2536.57 L1668.89,2535.71 L1667.35,2536.69 L1664.3,2537.58 L1663.87,2536.55 L1663.25,2536.3 L1657.16,2536.3 L1654.35,2535.44 L1652.83,2533.79 L1652.36,2532.7 L1649.74,2532.01 L1648.69,2531.27 L1647.3,2529.39 L1645.37,2528.76 L1643.55,2527.42 L1642.21,2528.12 L1638.99,2527.29 L1637.27,2527.73 L1636.12,2528.52 L1635.65,2530.72 L1634.75,2529.38 L1632.89,2528.21 L1632.14,2527.36 L1631.21,2525.54 L1627.17,2525.1 L1626.4,2524.67 L1622.57,2524.66 L1621.33,2522.82 L1619.94,2521.63 L1619.4,2519.73 L1616.93,2518.41 L1615.02,2516.48 L1613.58,2515.96 L1612.08,2516.6 L1609.98,2516.81 L1604.71,2515.21 L1604.04,2513.91 L1604.03,2512.44 L1604.39,2510.1 L1605.1,2508.42 L1604.13,2508.07 L1602.72,2508.1 L1601.35,2507.47 L1600.79,2505.06 L1601.55,2503.73 L1601.46,2502.55 L1600.01,2502.17 L1598.63,2502.21 L1597.41,2501.05 L1595.21,2501.43 L1591.24,2500.8 L1590.38,2500.34 L1586.01,2501.11 L1585.28,2500.48 L1583.48,2499.76 L1582.52,2497.03 L1579.11,2497.46 L1577.7,2497.25 L1578.88,2495.82 L1579.42,2493.96 L1579.09,2493.08 L1577.36,2490.81 L1577.27,2488.82 L1580.68,2485.67 L1582.05,2483.73 L1582.17,2482.32 L1582.86,2480.21 L1581.95,2478.52 L1579.56,2477.7 L1578.57,2475.8 L1578.06,2475.42 L1575.83,2476.73 L1572.79,2476.45 L1572.08,2476.89 L1571.14,2476.95 L1570.35,2476.58 L1568.71,2476.38 L1567.49,2476.68 L1563.45,2475.85 L1561.93,2476.21 L1560.58,2476.94 L1557.61,2477.07 L1554.2,2476.45 L1552.13,2474.09 L1548.7,2474.31 L1546.92,2476.58 L1542.52,2476.91 L1540.89,2476.24 L1540.08,2476.25 L1538.65,2476.87 L1538.22,2477.7 L1536.36,2477.9 L1535.3,2478.55 L1534.68,2480.25 L1534.91,2480.72 L1534.59,2482.88 L1531.41,2483.1 L1529.84,2482.91 L1527.68,2483.29 L1526.08,2482.95 L1522.72,2484.04 L1521.36,2483.89 L1518.83,2486.52 L1517.97,2486.7 L1515.58,2488.58 L1513.25,2488.22 L1508.5,2490.89 L1507.14,2490.23 L1507.05,2488.85 L1506.4,2488.04 L1502.74,2485.99 L1500.45,2485.27 L1500.51,2482.61 L1499.68,2480.98 L1496.07,2479.76 L1491.83,2476.62 L1490.07,2476.78 L1488.36,2476.41 L1486.72,2475.38 L1484.18,2472.57 L1483.36,2472.13 L1482.53,2472.78 L1479.62,2478.11 L1479.15,2479.85 L1479.97,2480.62 L1479.98,2481.48 L1479.64,2482.02 L1478.51,2483 L1477.55,2483.23 L1476.71,2484.19 L1473.82,2485.87 L1471.74,2487.61 L1470.4,2487.93 L1466.85,2484.28 L1465.63,2484.03 L1464.3,2482.69 L1462.19,2481.83 L1461.17,2479.37 L1461.56,2478 L1460.69,2477.8 L1459.98,2476.29 L1458.18,2475.36 L1457.53,2473.03 L1455.73,2472.99 L1452.87,2471.72 L1450.65,2473.54 L1449.23,2473.17 L1447.36,2471.92 L1446.56,2470.85 L1446.46,2469.72 L1445.38,2466.9 L1444.3,2466.4 L1443.5,2464.99 L1441.54,2462.97 L1440.99,2461.61 L1438.82,2461.78 L1438.25,2462.07 L1438.05,2462.64 L1437.23,2462.79 L1435.8,2462.03 L1434.77,2460.37 L1433.55,2459.78 L1434,2458.47 L1433.18,2457.66 L1432.55,2456.16 L1432.53,2455.29 L1432.73,2454.52 L1434.2,2453.17 L1435.13,2450.27 L1433.43,2448.83 L1432.56,2446.68 L1433.88,2444.04 L1433.2,2443.57 L1432.57,2442.07 L1432.09,2442.19 L1430.29,2441.59 L1429.66,2440.69 L1429.92,2439.02 L1430.5,2438.47 L1430.28,2437.57 L1428.77,2436.93 L1427.29,2435.46 L1425.49,2435.51 L1425.18,2435.97 L1424.26,2435.66 L1423.29,2437.76 L1422.45,2437.93 L1422.81,2438.69 L1420.54,2439.84 L1419.11,2439.97 L1418.12,2439.36 L1417.28,2439.47 L1416.83,2440.3 L1415.5,2440.84 L1413.45,2440.8 L1412.79,2442.14 L1411.68,2442.6 L1412.42,2445.22 L1411.26,2445.74 L1410.83,2446.4 L1409.38,2446.89 L1408.5,2447.98 L1407.32,2450.57 L1406.38,2450.93 L1405.73,2451.77 L1404.47,2452.18 L1403.71,2451.5 L1403.07,2452.14 L1402.61,2454 L1401.94,2454.66 L1402.13,2456.59 L1401.64,2457.97 L1401.81,2458.73 L1400.3,2459.36 L1399.66,2460.1 L1399.67,2460.61 L1400.15,2460.84 L1400.52,2461.65 L1399.18,2463.72 L1396.88,2465.89 L1395.94,2469.66 L1394.51,2471.1 L1393.61,2471.6 L1391.71,2471.54 L1389.96,2472.09 L1389.02,2473.17 L1389,2473.81 L1388.37,2474.29 L1384.94,2475.05 L1383.29,2474.6 L1382.62,2473.63 L1381.46,2473.24 L1378.83,2472.63 L1378.06,2472.84 L1377.54,2471.35 L1375.86,2471.56 L1375.33,2471.35 L1374.53,2470.1 L1373.44,2467.14 L1372.08,2466.59 L1371.02,2467.14 L1370.56,2469.07 L1369.8,2469.93 L1368.39,2470.52 L1369.03,2472.04 L1368.59,2473.19 L1368.75,2474.39 L1367.7,2475.53 L1367.49,2476.21 L1366.72,2476.71 L1366.67,2477.3 L1367.33,2479.83 L1369.7,2479.75 L1370.38,2480.27 L1370.73,2481.35 L1371.97,2482.58 L1372.44,2485.1 L1374.21,2487.31 L1375.46,2488.04 L1375.88,2489.17 L1374.84,2491.25 L1374.54,2494.14 L1374.21,2494.41 L1372.88,2494.41 L1372.24,2495.38 L1370.69,2494.2 L1367.59,2496.8 L1366.2,2498.79 L1365.98,2499.35 L1366.32,2500.89 L1366.94,2501.46 L1367.01,2503.25 L1368.4,2506.39 L1371.69,2505.68 L1373.59,2507.14 L1376.16,2507.11 L1376.95,2507.43 L1377.74,2508.79 L1380.5,2510.91 L1380.93,2511.79 L1384.38,2514.06 L1387.2,2514.71 L1388.42,2514.57 L1389.33,2513.9 L1390.16,2513.9 L1391.09,2514.98 L1391.59,2515.13 L1391.51,2515.63 L1392.03,2516.6 L1395.91,2518.18 L1396.5,2519.14 L1397.26,2522.35 L1398.54,2522.64 L1400.1,2521.72 L1403.33,2522.94 L1404.2,2522.81 L1406.31,2524.43 L1406.71,2524.47 L1408.48,2523.23 L1410.28,2523.64 L1411.48,2522.67 L1412.45,2522.99 L1412.76,2523.42 L1414.03,2523.35 L1414.89,2524.15 L1415.75,2524.26 L1416.24,2523.92 L1417.08,2522.09 L1417.65,2521.85 L1419.08,2522.28 L1420.32,2523.78 L1420.79,2523.89 L1421.67,2522.85 L1422.23,2522.81 L1422.93,2523.37 L1426.6,2524.66 L1430.06,2525.47 L1431.98,2524.11 L1432.46,2521.21 L1434.15,2520.8 L1434.36,2520.1 L1433.79,2519.17 L1433.95,2518.63 L1434.81,2518.06 L1435.79,2517.98 L1437.66,2518.69 L1438.11,2519.21 L1438.18,2520.23 L1438.97,2521.09 L1440.01,2520.59 L1442.22,2521.88 L1442.98,2521.72 L1443.2,2520.81 L1443.92,2520.5 L1444.62,2519.49 L1444.77,2518.36 L1445.45,2518.2 L1446.8,2518.55 L1447.28,2516.95 L1449.91,2515.98 L1450.94,2515.94 L1452.15,2516.66 L1453.58,2516.21 L1455.84,2517.9 L1455.61,2519.02 L1456.06,2519.3 L1458.21,2518.79 L1457.82,2520.58 L1458.45,2521.13 L1457.87,2521.27 L1458.51,2523.95 L1457.75,2524.59 L1456.65,2526.62 L1456.04,2529.09 L1454.14,2530.28 L1452.13,2532.2 L1451.5,2533.72 L1451.85,2534.62 L1453.86,2536.85 L1455.62,2537.7 L1457.13,2542.04 L1457.73,2542.18 L1458.79,2544.44 L1459.71,2545.2 L1459.89,2545.88 L1459.75,2546.33 L1455.8,2548.89 L1452.82,2550.33 L1451.76,2550.42 L1450.97,2551.05 L1449.53,2550.78 L1447.14,2552.19 L1445.75,2555.04 L1444.82,2555.82 L1444.12,2557.03 L1441.62,2557.51 L1439.68,2561.24 L1439.52,2563.08 L1438.47,2564.31 L1437.12,2564.08 L1435.07,2562.02 L1433.19,2563.07 L1430.18,2562.94 L1429.22,2563.77 L1427.9,2562.79 L1427.32,2563.66 L1424.53,2564.22 L1423.17,2566.55 L1422.17,2566.19 L1421.65,2566.85 L1421.47,2568.21 L1419.07,2571.76 L1418.06,2571.41 L1416.71,2571.71 L1415.58,2572.89 L1417.89,2573.82 L1418.54,2574.91 L1419.34,2578.84 L1417.26,2582.29 L1417.19,2587.45 L1416.91,2588.41 L1417.11,2589.23 L1416.48,2592.42 L1414.02,2598.23 L1412.93,2598.8 L1412.18,2600.37 L1411.25,2600.94 L1410.95,2602.65 L1409.84,2605.13 L1405.69,2605.8 L1403.12,2605.35 L1401.18,2607.15 L1400.14,2609.35 L1398.28,2609.28 L1397.39,2609.64 L1395.74,2608.63 L1391.82,2607.99 L1390.84,2607.12 L1388.83,2606.45 L1387.73,2606.94 L1386.73,2607.88 L1386.57,2608.7 L1385.33,2609.89 L1385.01,2611.12 L1384.02,2612.3 L1383.09,2615.19 L1381.8,2616.01 L1380.29,2615.58 L1378.49,2616.85 L1377.58,2616.35 L1376.73,2615 L1375.15,2614.03 L1374.33,2614.21 L1373.74,2613.98 L1371.61,2612.56 L1369.78,2612.28 L1368.15,2613.52 L1368.46,2616.39 L1370.76,2618.64 L1370.59,2618.97 L1371.14,2619.88 L1372.45,2621.43 L1375.88,2622.58 L1377.06,2624.6 L1377.09,2625.42 L1376.26,2627.73 L1376.49,2630.14 L1376.19,2631.39 L1371.3,2633.56 L1372,2635.76 L1372.59,2636.91 L1374.18,2638.63 L1374.6,2641.05 L1376.64,2643.69 L1378.65,2644.26 L1379.45,2645.1 L1379.62,2646.82 L1378.86,2648.94 L1378.93,2649.89 L1379.48,2650.79 L1380.48,2651.03 L1381.35,2651.91 L1384.4,2656.92 L1384.47,2657.93 L1382.67,2660.07 L1382.67,2660.86 L1384.61,2660.38 L1385.49,2660.58 L1387.34,2663.21 L1388.86,2663.94 L1389.08,2665.16 L1388.52,2665.4 L1388.49,2665.76 L1386.48,2666.04 L1382.72,2670.88 L1380.32,2671.67 L1378.93,2673.75 L1378.63,2673.33 L1378.46,2673.55 L1377.89,2676.59 L1378.14,2678.08 L1378.38,2678.41 L1379.45,2678.31 L1379.16,2680.86 L1378.68,2681.4 L1378.08,2683.38 L1376.68,2685.22 L1375.18,2686.06 L1371.15,2687.44 L1368.03,2687.23 L1367.75,2688.35 L1362.15,2691.69 L1359.41,2695.62 L1358.04,2695.81 L1356.71,2696.49 L1356.07,2696.15 L1352.51,2696.8 L1348.69,2695.43 L1345.53,2696.59 L1341.66,2700.49 L1338.42,2705.18 L1338.79,2705.91 L1330.85,2708.14 L1328.67,2706.42 L1324.92,2709.15 L1323.37,2711.11 L1320.4,2711.28 L1318.98,2712.24 L1318.78,2715.52 L1319.08,2716.15 L1318.63,2718.17 L1317.27,2717.9 L1315.75,2716.88 L1314.14,2718.26 L1311.7,2717.75 L1309.89,2716.75 L1308.95,2715.39 L1308.36,2712.67 L1307.64,2712.12 L1306.54,2712.08 L1304.38,2711.16 L1304,2710.68 L1303.46,2709.87 L1302.76,2706.73 L1300.71,2708.61 L1301.58,2710.49 L1301.22,2713.7 L1298.88,2715.92 L1299.07,2718.16 L1298.62,2719.17 L1297.64,2719.69 L1296.57,2719.43 L1293.74,2721.66 L1292.48,2722.06 L1290.97,2721.29 L1290.07,2721.92 L1289.4,2721.76 L1288.61,2721.19 L1287.12,2720.84 L1286.87,2719.69 L1286.01,2719.17 L1282.65,2718.5 L1282.3,2717.56 L1282.51,2716.97 L1282.2,2715.86 L1282.32,2714.81 L1280.84,2713.36 L1279.59,2712.99 L1278.61,2713.18 L1278.19,2713.39 L1277.46,2715.59 L1276.99,2715.8 L1276.85,2716.88 L1275.11,2718.73 L1275.24,2719.26 L1272.91,2720.22 L1270.98,2719.11 L1270.63,2719.19 L1270.19,2720.02 L1269.05,2720.9 L1266.47,2721.24 L1265.26,2722.29 L1265.4,2723.03 L1265.01,2724.17 L1265.46,2725.12 L1264.87,2725.74 L1264.6,2727.58 L1263.14,2727.92 L1262.68,2728.36 L1261.8,2728.25 L1260.94,2729.19 L1261.08,2730.39 L1262.01,2730.56 L1262.73,2731.86 L1261,2733.33 L1258.61,2734.18 L1257.42,2734.09 L1256.69,2734.66 L1255.7,2734.41 L1254.96,2734.99 L1254.15,2734.12 L1253.26,2734.53 L1252.04,2734.37 L1251.31,2733.47 L1247.82,2733.3 L1246.39,2734.26 L1245.39,2735.82 L1245.5,2736.44 L1244.95,2736.31 L1243.96,2737.06 L1241.14,2740.27 L1239.71,2740.06 L1238.84,2740.53 L1238.29,2741.87 L1237.35,2742.32 L1236.55,2743.55 L1234.89,2742.74 L1233.1,2743.38 L1232.52,2742.89 L1232.11,2741.53 L1229.82,2740.55 L1229.2,2740.68 L1228.9,2740.1 L1227.77,2739.32 L1225.95,2740.11 L1223.67,2739.99 L1222.89,2740.36 L1222.43,2741.02 L1220.52,2739.24 L1217.52,2739.35 L1214.91,2736.86 L1212.72,2735.36 L1210.99,2733.24 L1209.32,2732.23 L1209.64,2730.08 L1209.43,2728.84 L1209.62,2726.17 L1209.46,2724.8 L1208.74,2724.18 L1206.49,2724.82 L1203.39,2726.45 L1201.88,2728.08 L1200.91,2730.24 L1197.93,2729.58 L1197.4,2729.07 L1197.85,2724.95 L1197.49,2723.61 L1196.56,2722.4 L1195.86,2722.15 L1195.38,2720.83 L1195.74,2719.22 L1194.49,2717.89 L1194.88,2717.42 L1196.14,2717.49 L1196.71,2717.08 L1198.65,2710.5 L1200.1,2708.65 L1201.43,2705.95 L1202.67,2704.24 L1203.12,2702.71 L1205.03,2699.91 L1206.68,2696.53 L1207,2694.46 L1206.65,2692.78 L1206.94,2692.15 L1208.26,2690.41 L1210.27,2689.21 L1210.23,2687.17 L1210.7,2686.48 L1215.56,2681.94 L1216.88,2682.78 L1219.4,2683.31 L1220.3,2683.04 L1223.95,2680.81 L1224.68,2679.73 L1229.36,2676.23 L1230.92,2677.28 L1231.94,2676.51 L1234.81,2675.3 L1237.9,2672.01 L1238.2,2670.37 L1237.64,2666.11 L1236.35,2665.04 L1234.55,2657.48 L1232.36,2657.36 L1230.75,2655.37 L1229.9,2655.32 L1229.64,2654.75 L1229.15,2654.62 L1228.22,2653.6 L1224.38,2651.27 L1223.73,2650.51 L1221.75,2649.88 L1217.77,2645.55 L1214.06,2643.21 L1213.83,2641.72 L1213.03,2639.92 L1210.76,2639.29 L1209.68,2637.9 L1209.15,2638.84 L1209.23,2640.17 L1208.55,2641.15 L1208.05,2644.54 L1204.32,2645.99 L1203.36,2647.2 L1201.43,2648.16 L1200.67,2647.7 L1200,2647.87 L1193.94,2645.44 L1192.25,2645.64 L1188.93,2644.97 L1187,2646.35 L1184.5,2644.44 L1184.48,2641.17 L1182.19,2638.26 L1182.3,2636.33 L1181.57,2635.1 L1181.59,2633.55 L1180.31,2630.89 L1178.27,2629 L1177.56,2627.33 L1178.18,2626.58 L1177.96,2625.38 L1178.94,2624.61 L1177.9,2623.54 L1177.8,2622.59 L1178.8,2619.78 L1178.26,2613.98 L1179.61,2612.77 L1181.35,2610.35 L1181.47,2607.93 L1180.87,2603.83 L1181.79,2602.44 L1182.2,2600.94 L1184.08,2598.99 L1184.08,2597.66 L1183.15,2596.46 L1180.45,2594.6 L1179.33,2594.46 L1176.83,2593.21 L1175.14,2593.02 L1170.45,2593.51 L1169.17,2594.51 L1167.72,2594.58 L1166.67,2596.31 L1166.24,2596.7 L1165.99,2596.56 L1165.76,2597.09 L1163.42,2597.73 L1162.98,2598.29 L1161.93,2598.73 L1160.56,2601.15 L1156.22,2601.04 L1154.61,2600.12 L1154.07,2600.42 L1153.59,2599.52 L1153.17,2599.37 L1149.54,2602.3 L1148.69,2603.37 L1145.6,2604.17 L1143.87,2604.5 L1137.46,2603.37 L1136.44,2605.02 L1134.07,2606.99 L1131.83,2608.56 L1129.37,2609.56 L1125.65,2609.87 L1121.41,2611.19 L1114.51,2610.77 L1113.46,2610.96 L1111.93,2612.46 L1110.94,2612.8 L1109.6,2612.81 L1107.4,2611.28 L1104.09,2612.92 L1103.83,2612.29 L1106.81,2605.97 L1107.35,2603.91 L1107.27,2601.24 L1107.68,2599.1 L1106.6,2598.05 L1106.46,2596.51 L1108.27,2592.92 L1108.51,2590.14 L1107.67,2589.29 L1106.61,2589.16 L1106.15,2588.58 L1105.22,2588.37 L1104.84,2587.33 L1102.95,2587.18 L1100.08,2588.31 L1098.66,2587.87 L1097.78,2586.76 L1097.47,2582.9 L1096.16,2581.66 L1091.58,2579.23 L1087.84,2578.04 L1087.5,2574.36 L1087.85,2571.42 L1087.37,2570.29 L1086.28,2569.83 L1085.54,2568.77 L1084.88,2566.85 L1084.44,2566.6 L1083.24,2567.02 L1080.89,2568.52 L1079.64,2568.22 L1079.04,2566.61 L1072.82,2568.23 L1070.2,2569.83 L1068.27,2570.05 L1066.4,2570.72 L1065.67,2571.91 L1064.62,2572.79 L1061.64,2572.49 L1057.75,2574.72 L1056.14,2574.39 L1052.72,2575.67 L1051.53,2575.44 L1050.11,2574.59 L1051.58,2571.09 L1051.83,2568.72 L1051.38,2566.76 L1050.55,2564.73 L1048.19,2560.77 L1047.66,2559.09 L1048.16,2556.95 L1047.6,2555.55 L1045.5,2553.8 L1044.43,2553.45 L1042.89,2551.34 L1042.31,2548.71 L1038.76,2542.2 L1038.13,2537.42 L1038.96,2534.39 L1038.8,2530.53 L1039.09,2528.96 L1042.35,2522.44 L1044.17,2516.12 L1043.41,2513.27 L1044.41,2510.43 L1044.38,2509.57 L1042.47,2506.5 L1042.25,2505.26 L1042.42,2503.39 L1043.43,2501.49 L1040.25,2499.11 L1038.99,2497.56 L1035.82,2495.5 L1035.11,2493.74 L1034.86,2491.64 L1035.31,2490.75 L1035.76,2490.22 L1037.14,2489.77 L1037.62,2489.1 L1038.46,2483.71 L1037.37,2479.63 L1036.92,2474.54 L1036.03,2473.38 L1035.75,2472.26 L1036.67,2463.79 L1037.39,2460.39 L1036.71,2459.07 L1035.27,2459.2 L1033.89,2459.89 L1027.68,2464.85 L1026.19,2466.72 L1022.54,2473.27 L1021.29,2474.62 L1018.96,2474.85 L1015.35,2473.32 L1011.4,2473.99 L1010.5,2474.44 L1009.27,2476.09 L1005.64,2479.61 L1001.95,2482.08 L999.977,2482.91 L999.196,2485.34 L998.521,2486.25 L993.456,2485.61 L991.964,2484.67 L990.1,2484.41 L988.161,2483.4 L986.372,2483.82 L983.819,2485.5 L981.315,2486.53 L978.504,2485.28 L974.785,2486.92 L974.266,2485.45 L972.854,2487.73 L971.798,2490.49 L971.017,2490.63 L970.81,2492.04 L967.351,2494.98 L967.871,2496.68 L967.819,2498.38 L966.152,2499.77 L965.945,2501 L966.732,2503.82 L964.723,2505.79 L963.614,2505.42 L962.649,2505.78 L960.986,2507.64 L960.475,2508.82 L962.093,2512.67 L956.5,2512.69 L955.357,2513.21 L953.567,2515.18 L950.876,2517.38 L948.361,2518.15 L945.654,2519.75 L942.519,2520.62 L941.826,2520.36 L939.322,2520.56 L935.972,2515.46 L932.792,2514.29 L929.328,2512.16 L927.71,2511.54 L922.059,2510.5 L920.299,2509.12 L919.078,2508.75 L915.699,2508.13 L912.349,2508.89 L911.298,2508.4 L911.282,2506.36 L911.799,2503.31 L913.57,2499.47 L915.444,2497.9 L917.374,2497.47 L918.851,2496.73 L919.589,2495.48 L919.263,2494.61 L915.712,2492.92 L913.707,2492.73 L909.104,2490.97 L907.347,2489.46 L905.606,2488.58 L903.178,2485.84 L902.638,2485.7 L899.827,2483.21 L897.016,2482.1 L891.752,2478.73 L890.966,2479.15 L890.372,2478.8 L889.066,2476.93 L888.015,2474.67 L885.358,2474.95 L882.819,2471.81 L882.053,2471.69 L880.037,2469.29 L877.255,2466.82 L875.438,2465.51 L870.639,2462.99 L869.787,2462.11 L871.15,2459.99 L871.888,2456.3 L870.923,2449.7 L869.106,2445.04 L867.175,2441.67 L861.013,2432.67 L861.087,2431.55 L861.553,2430.47 L869.786,2422.29 L876.403,2419.07 L878.447,2415.89 L880.037,2411.57 L880.349,2409.12 L880.15,2400.84 L879.842,2399.36 L880.167,2398.95 L877.552,2396.54 L874.532,2395.61 L873.759,2394.97 L873.817,2389.3 L873.142,2385.05 L873.804,2383.88 L876.193,2382.57 L877.706,2381.33 L878.054,2380.59 L878.376,2377.59 L881.066,2375.46 L881.156,2374.22 L880.529,2372.02 L879.605,2369.7 L878.102,2367.56 L878.267,2365.81 L881.682,2364.75 L883.249,2363.63 L885.179,2360.98 L887.399,2357.07 L889.518,2356.52 L890.572,2355.59 L891.401,2353.98 L892.604,2350.24 L894.565,2350.15 L897.067,2346.91 L898.198,2346.04 L899.494,2345.7 L898.78,2343.44 L895.618,2338.56 L895.998,2336.83 L895.269,2335.46 L894.579,2332.89 L892.613,2328.83 L893.919,2327.06 L894.144,2326.13 L893.653,2325.26 L892.482,2324.42 L892.873,2323.13 L891.143,2321.05 L891.37,2319.46 L893.632,2315.16 L895.008,2313.51 L896.928,2312.06 L897.249,2309.88 L894.724,2306.92 L893.361,2306.41 L892.183,2303.59 L890.288,2301.3 L889.96,2300.51 L890.023,2298.23 L889.262,2292.67 L888.668,2291.72 L887.695,2291.1 L887.319,2289.77 L886.366,2288.79 L883.545,2287.3 L881.3,2286.91 L879.136,2287.11 L875.358,2283.9 L871.412,2283.87 L869.273,2283.42 L866.624,2282.17 L864.867,2282.16 L864.241,2281.79 L863.072,2280.68 L862.811,2280.03 L863.033,2276.61 L862.18,2273.78 L861.509,2272.64 L859.526,2270.98 L858.607,2269.01 L856.774,2266.47 L856.233,2265.98 L854.702,2265.68 L854.336,2265.33 L851.839,2260.99 L845.982,2255.92 L845.766,2254.73 L846.14,2251.21 L845.926,2249.51 L845.256,2248.12 L844.397,2247.05 L841.423,2244.58 L838.029,2244.73 L837.153,2243.58 L837.643,2239.24 L838.236,2238.51 L839.301,2235.69 L840.44,2234.38 L842.683,2233.17 L842.639,2232.17 L841.923,2231.2 L841.631,2229.97 L840.823,2229.71 L840.431,2228.06 L839.568,2227.67 L840.976,2227.11 L843.523,2225.41 L845.943,2222.04 L846.979,2218.39 L845.739,2215.54 L846.926,2211.88 L844.524,2207.24 L843.505,2206.34 L840.105,2207.36 L836.314,2206.93 L833.616,2207.61 L831.539,2205.36 L830.58,2206.43 L829.928,2206.28 L829.398,2205.31 L829.592,2201.31 L830.487,2197.16 L831.657,2194.57 L831.667,2191.92 L830.893,2188.8 L829.496,2186.1 L828.568,2186.38 L827.101,2187.57 L825.477,2188.16 L825.086,2187.6 L820.165,2189.24 L819.425,2189.92 L817.926,2189.98 L817.519,2190.74 L816.586,2190.44 L815.408,2191.63 L811.922,2191.7 L809.786,2192.09 L808.297,2192.87 L807.999,2192.72 L807.897,2191.27 L807.161,2190.78 L806.156,2190.72 L806.522,2189.98 L805.093,2189.28 L800.836,2188.63 L800.092,2189.1 L798.301,2188.81 L791.335,2189.11 L784.95,2188.33 L784.815,2188.87 L784.869,2188.27 L778.916,2187.78 L779.629,2186.22 L781.089,2184.67 L780.734,2184.44 L781.615,2182.82 L782.511,2182.22 L784.735,2182.08 L785.273,2181.37 L784.922,2179.79 L785.069,2177.41 L786.108,2176.27 L786.59,2175.15 L788.06,2173.73 L787.913,2172.84 L789.237,2170.14 L789.647,2167.76 L790.004,2167.51 L790.576,2168.1 L790.812,2168 L792.364,2166.12 L792.071,2165.29 L792.797,2164.77 L792.906,2164.28 L792.236,2163.34 L792.076,2162.38 L793.902,2162.2 L793.976,2162.55 L794.543,2162.53 L794.756,2163.62 L795.13,2163.6 L795.225,2166.03 L797.393,2165.7 L799.329,2164.86 L800.609,2163.76 L800.927,2163.09 L800.84,2161.33 L801.433,2160.12 L801.59,2158.77 L801.133,2158.37 L801.078,2157.74 L799.815,2157.83 L798.134,2154.72 L795.778,2152.2 L794.295,2147.41 L793.852,2143.34 L792.967,2139.89 L793.122,2138.07 L792.881,2137.4 L789.72,2135.98 L788.589,2136.32 L787.072,2136.21 L785.821,2137.25 L784.263,2137.48 L783.102,2139.45 L781.941,2139.48 L781.144,2138.85 L778.643,2140.36 L776.148,2140.4 L772.623,2139.2 L772.036,2135.7 L771.795,2135.15 L771.094,2135 L770.185,2133.59 L769.097,2130.38 L767.874,2128.96 L765.882,2127.83 L764.156,2127.75 L764.109,2127.42 L763.557,2127.43 L763.951,2127.25 L764.332,2124.33 L763.886,2121.82 L764.247,2120.71 L765.13,2119.58 L765.748,2120.52 L765.875,2123.2 L766.315,2124.46 L768.738,2125.86 L772.383,2126.37 L773.27,2127.4 L773.935,2129.17 L779.636,2129.57 L781.346,2130.26 L785.716,2131.23 L791.266,2131.19 L794.094,2130.76 L796.546,2129.53 L797.119,2129.84 L798.159,2129.15 L798.732,2128.24 L799.355,2125.51 L799.209,2121.57 L798.8,2119.62 L798.163,2118.31 L798.396,2117.71 L797.85,2116.31 L796.912,2115.31 L797.615,2113.93 L797.855,2112.57 L797.878,2111.69 L797.08,2110.88 L797.397,2108.73 L796.663,2106.78 L796.388,2103.29 L795.995,2102.22 L795.283,2101.78 L794.568,2102.02 L792.776,2103.68 L791.9,2103.59 L790.909,2104.02 L789.733,2103.74 L788.582,2104.64 L787.772,2104.2 L785.321,2105.15 L781.62,2105.22 L780.465,2105.58 L779.549,2106.47 L778.959,2107.66 L777.68,2111.3 L776.915,2110.05 L777.224,2108.04 L777.56,2107.05 L778.344,2106.52 L778.691,2105.82 L778.472,2104.99 L776.792,2102.49 L778.736,2101.77 L778.553,2101.05 L778.882,2099.36 L778.377,2097.34 L779.355,2095.39 L779.262,2093.83 L778.056,2093.28 L778.849,2092.22 L779.61,2092.22 L780.786,2091.46 L780.95,2091.04 L780.537,2089.35 L780.915,2087.74 L782.068,2086.48 L782.246,2085.85 L781.605,2085.09 L781.433,2083.56 L781.76,2082.37 L782.584,2081.92 L780.29,2078.28 L778.581,2077.22 L777.162,2075.28 L776.485,2074.93 L776.377,2073.57 L776.673,2072.9 L776.112,2071.03 L775.401,2069.9 L774.316,2069.16 L774.631,2068.2 L774.278,2064.87 L773.566,2064.74 L773.318,2063.98 L772.438,2063.2 L770.452,2063.99 L769.603,2063.68 L766.908,2063.55 L765.656,2061.81 L765.358,2060.85 L763.23,2058.45 L761.521,2055.77 L760.315,2055.12 L759.562,2054.19 L757.341,2053.04 L756.565,2052.05 L754.329,2050.36 L753.588,2049.15 L753.021,2047.06 L754.283,2043.61 L755.127,2043.04 L754.342,2041.47 L752.478,2039.84 L751.518,2039.4 L752.076,2036.85 L753.424,2033.58 L755.464,2030.61 L756.549,2029.92 L758.208,2029.66 L761.214,2027.25 L764.987,2026.54 L766.027,2026.65 L766.991,2025.99 L768.086,2022.39 L770.211,2022.31 L771.02,2021.92 L771.531,2021.32 L772.603,2020.87 L773.538,2018.6 L775.511,2018.45 L776.066,2017.4 L776.304,2015.8 L777.576,2015.21 L777.705,2013.94 L778.648,2013.12 L779.173,2013.26 L779.41,2014.02 L780.256,2014.57 L781.274,2014.45 L783.249,2015.92 L786.028,2016.61 L790.16,2017.03 L790.606,2016.71 L790.973,2014.99 L791.997,2014.29 L795.758,2009.74 L796.986,2008.73 L796.632,2006.86 L796.102,2006.74 L796.378,2004.55 L796.906,2003.52 L797.481,2003.44 L798.144,2002.83 L798.742,2000.56 L799.256,1999.91 L798.75,1996.42 L799.636,1994.71 L799.319,1993.2 L799.587,1991.01 L798.619,1987.55 L796.887,1983.6 L795.763,1982 L796.372,1980.98 L795.854,1978.79 L796.301,1976.17 L796.125,1975.02 L794.629,1972.83 L793.862,1970.98 L792.327,1969.76 L791.805,1968.85 L791.772,1966.99 L791.081,1965.85 L792.429,1962.39 L792.59,1960.69 L793.606,1959.61 L794.626,1956.99 L795.637,1955.7 L795.459,1952.94 L797.36,1952.35 L798.918,1949.7 L801.064,1948.25 L800.93,1946.69 L801.265,1944.59 L802.24,1944.05 L804.66,1944.32 L805.105,1943.82 L805.111,1941.13 L806.244,1932.23 L807.295,1929.7 L807.484,1927.51 L808.572,1925.64 L808.427,1923.99 L807.084,1920.85 L805.729,1918.14 L804.626,1916.83 L802.798,1913.63 L800.887,1912.86 L798.879,1911.28 L797.191,1910.52 L798.683,1907.87 L801.182,1906.11 L803.076,1901.79 L803.474,1900.13 L802.719,1897.77 L804.262,1892.69 L805.861,1891.33 L806.856,1887.26 L808.315,1885.7 L811.934,1883.79 L813.077,1882.15 L815.31,1880.18 L815.727,1879.2 L815.607,1877.01 L816.382,1874.65 L816.49,1872.58 L815.564,1869.97 L815.678,1868.79 L816.87,1867.06 L817.126,1865.37 L816.416,1858.06 L818.488,1854.01 L820.22,1853.87 L820.419,1853.31 L818.937,1851.28 L818.681,1849.34 L818.88,1848.16 L819.249,1847.42 L820.529,1846.52 L823.384,1847.92 L825.134,1847.11 L825.978,1843.34 L826.83,1834.55 L828.627,1833.13 L829.272,1831.24 L831.264,1829.47 L830.155,1824.75 L831.853,1821.93 L832.272,1819.74 L831.368,1818.83 L830.673,1817.33 L830.765,1815.72 L830.35,1815.35 L830.818,1813.76 L830.656,1811.12 L831.593,1810.39 L833.589,1807.66 L833.228,1804.29 L835.773,1798.8 L836.118,1795.13 L837.053,1792.34 L836.303,1790.76 L831.846,1788.03 L831.413,1783.91 L832.798,1780.52 L832.712,1780.09 L831.359,1779.29 L830.655,1778.31 L830.456,1777.36 L830.863,1773.57 L829.059,1770.66 L828.777,1768.83 L829.002,1767.93 L830.387,1766.96 L832.544,1764.53 L833.472,1761.17 L837.702,1758.3 L837.137,1755.64 L838.328,1753 L838.2,1750.68 L838.73,1748.77 L839.716,1747.31 L839.53,1744.24 L840.166,1741.88 L842.258,1739.07 L845.811,1737.34 L846.538,1736.69 L846.787,1735.65 L846.522,1732.06 L847.209,1728.13 L846.981,1727.12 L845.769,1725.13 L845.111,1721.18 L844.689,1720.62 L840.396,1719.21 L833.155,1718.57 L828.952,1716.72 L825.313,1713.71 L824.409,1712.18 L823.969,1710.6 L823.709,1707.51 L821.695,1705.36 L821.207,1703.83 L821.275,1702.5 L822.173,1700.62 L822.077,1700 L819.406,1696.54 L818.333,1694.27 L817.789,1691.25 L817.932,1686.22 L817.305,1684.62 L814.248,1680.86 L814.59,1677.8 L816.109,1673.4 L816.04,1672.46 L815.134,1670.76 L815.133,1669.85 L816.723,1666.72 L815.335,1666.02 L813.244,1665.49 L811.984,1665.69 L810.631,1665.08 L810.377,1664.71 L810.251,1660.84 L809.488,1659.19 L811.202,1652.56 L810.734,1644.93 L811.84,1642.95 L812.866,1642 L813.119,1640.29 L810.891,1634.03 L808.84,1631.47 L807.131,1627.77 L805.827,1623.69 L803.397,1618.84 L802.462,1616.15 L802.568,1614.41 L801.984,1609.18 L801.351,1607.97 L799.248,1605.5 L798.857,1602.75 L798.112,1601.73 L798.717,1600.91 L798.675,1600.28 L799.751,1598.98 L799.75,1597.99 L798.817,1596.41 L799.007,1591.61 L798.239,1588.69 L796.631,1586.06 L793.112,1582.43 L790.231,1580.12 L788.49,1579.83 L789.886,1574.78 L792.276,1568.93 L791.288,1567.99 L787.47,1566.23 L786.653,1565.17 L786.227,1563.91 L785.992,1561.08 L786.24,1559.76 L787.885,1557.16 L787.98,1556.38 L786.917,1554.34 L785.908,1553.52 L784.808,1551.76 L785.003,1550.16 L785.93,1548.57 L786.143,1547.42 L786.752,1546.42 L786.533,1546.17 L787.287,1545.41 L790.212,1544.53 L792.566,1542.34 L797.925,1540.32 L803.813,1534.99 L802.943,1531.77 L803.228,1528.86 L803.075,1525.41 L801.747,1520.31 L802.182,1516.16 L802.74,1514.62 L802.746,1512.49 L803.479,1511.16 L803.789,1509.72 L803.992,1507.6 L803.709,1505.95 L801.586,1500.5 L800.709,1499.41 L797.883,1498.4 L797.508,1496.37 L796.114,1495.04 L796.006,1494.37 L796.291,1493.74 L797.294,1493.25 L798.094,1493.1 L800.346,1493.56 L802.285,1493 L806.51,1488.12 L806.68,1487.33 L807.748,1486.53 L808.399,1484.48 L807.993,1482.5 L809.305,1474.81 L810.556,1473.41 L811.017,1472 L814.213,1470.83 L815.079,1468.6 L817.321,1465 L817.456,1464.09 L815.527,1462.45 L813.974,1460.43 L814.13,1459.33 L815.775,1456.19 L816.29,1453.82 L819.97,1451.84 L821.871,1449.65 L822.517,1447.41 L821.854,1443.72 L819.854,1438.6 L819.536,1435.97 L820.744,1433.89 L822.557,1432 L822.878,1429.62 L825.553,1423.36 L828.129,1420.47 L832.124,1418.35 L833.54,1417.21 L835.538,1416.59 L837.05,1415.64 L838.863,1412.53 L840.024,1411.22 L842.927,1408.99 L842.183,1398.32 L842.654,1397.22 L845.23,1394.55 L851.005,1390.47 L850.8,1385.02 L851.644,1381.69 L853.312,1379.61 L855.676,1377.4 L854.668,1376.6 L853.612,1370.34 L851.105,1366.22 L850.699,1364.77 L850.581,1360.23 L847.549,1360.85 L843.096,1362.82 L839.425,1367.26 L837.273,1368.01 L835.646,1369.21 L834.799,1375.19 L832.94,1377.85 L831.531,1383.87 L830.504,1385.84 L829.6,1386.73 L826.865,1388.43 L824.209,1387.86 L823.527,1388.99 L822.474,1389.68 L819.883,1390.58 L814.356,1390.88 L812.456,1391.37 L810.132,1392.97 L809.812,1393.52 L809.794,1397.23 L808.679,1398.34 L805.656,1397.94 L804.457,1400.17 L803.3,1400.07 L798.188,1402.19 L796.325,1402.42 L793.269,1399.78 L792.234,1399.23 L789.089,1396.16 L786.041,1395.31 L784.875,1394.52 L780.024,1385.43 L775.168,1380.57 L776.052,1377.74 L775.406,1372.97 L774.728,1371.76 L773.331,1370.56 L771.716,1367.48 L769.432,1364.55 L767.597,1361.02 L764.667,1357.67 L763.656,1355.47 L763.714,1354.76 L764.482,1353.8 L764.146,1350.84 L764.86,1348.08 L764.586,1346.2 L765.121,1345.45 L766.316,1345.09 L766.56,1344.4 L766.717,1340.5 L766.409,1338.16 L763.914,1335.01 L762.925,1332.37 L761.103,1331.23 L759.584,1330.75 L755.491,1330.44 L752.756,1327.92 L752.172,1326.9 L752.208,1326.18 L753.164,1325.3 L753.807,1321.93 L751.52,1312.12 L750.904,1310.71 L742.581,1307.31 L741.246,1304.92 L741.855,1302.62 L743.454,1301.66 L743.897,1300.82 L743.929,1297.74 L743.335,1291.64 L742.016,1290.4 L741.629,1288.32 L739.159,1287.63 L739.264,1285.3 L738.899,1284.24 L738.389,1283.66 L736.863,1283.04 L734.393,1282.9 L730.907,1283.42 L725.58,1281.87 L720.624,1278.35 L714.996,1276.03 L710.889,1272.56 L707.222,1271.25 L706.735,1269.28 L704.804,1267.95 L699.238,1265.94 L698.131,1265.1 L697.391,1264.16 L697.101,1259.08 L696.22,1256.75 L696.418,1255.33 L695.295,1251.51 L691.974,1250.1 L688.787,1247.19 L685.877,1245.34 L685.666,1244.71 L685.895,1242.39 L683.862,1240.99 L682.348,1237.32 L681.759,1234.57 L680.833,1232.95 L677.88,1229.56 L677.634,1228.41 L678.354,1225.18 L678.23,1222.82 L676.98,1220.24 L674.51,1217.25 L673.982,1217.23 L671,1218.97 L670.006,1218.78 L667.789,1215.73 L659.616,1210.99 L655.531,1210.76 L652.896,1209.28 L649.586,1209.37 L647.718,1207.92 L644.888,1208.07 L642.918,1207.52 L638.524,1207.55 L636.612,1206.59 L635.625,1203.63 L635.929,1201.72 L637.865,1198.43 L640.279,1196.04 L641.013,1194.8 L640.6,1191.63 L640.938,1190.39 L643.817,1188.59 L644.209,1187.05 L644.408,1182.71 L644.841,1182.16 L648.217,1181.21 L648.915,1179.94 L649.225,1178.39 L648.967,1176.48 L647.151,1174.26 L648.508,1170.26 L650.025,1163.47 L654.621,1158.8 L654.957,1157.38 L658.345,1153.77 L658.758,1152.83 L658.767,1151.14 L659.303,1149.83 L660.92,1148.33 L663.511,1148.27 L667.503,1146.63 L667.603,1144.26 L670.749,1137.34 L671.314,1133.29 L672.199,1129.93 L670.772,1128.22 L670.134,1126.81 L670.318,1125.96 L677.331,1121.95 L679.586,1120.15 L681.172,1116.95 L687.751,1113.6 L692.322,1112.3 L695.632,1111.91 L696.808,1110.9 L697.745,1109.35 L699.932,1103.45 L696.893,1095.54 L697.379,1089.12 L705.359,1087.13 L709.035,1087.52 L710.111,1088 L712.727,1090.07 L715.842,1093.83 L723.612,1093.18 L724.903,1093.4 L729.112,1095.12 L731.372,1094.78 L733.514,1093.82 L734.99,1092.68 L735.652,1091.44 L736,1087.79 L737.982,1084.38 L739.062,1080.21 L741.076,1075.47 L740.712,1074.19 L737.872,1071.94 L736.576,1069.18 L736.277,1067.82 L736.622,1064.93 L737.81,1061.04 L739.712,1056.9 L739.891,1055.86 L739.577,1052.61 L740.618,1051.44 L740.896,1050.62 L740.93,1048.38 L741.609,1044.51 L742.168,1043.11 L741.712,1039.81 L742.484,1034.09 L742.102,1027.19 L742.395,1025.74 L744.333,1021.54 L745.692,1020.14 L747.541,1016.37 L748.966,1014.63 L750.74,1015.28 L753.1,1014.92 L755.484,1016.23 L761.794,1016.63 L765.779,1015 L773.891,1010.73 L774.964,1010.76 L776.114,1011.62 L778.852,1010.62 L788.987,1016.16 L790.173,1017.34 L791.108,1017.53 L792.409,1016.91 L794.268,1018.03 L795.906,1018.47 L797.909,1018.25 L798.894,1018.74 L801.14,1018.22 L801.823,1017.72 L802.67,1016.53 L804.089,1013.13 L806.489,1011.9 L808.435,1012.64 L809.3,1013.37 L809.633,1014.12 L811.99,1015.32 L814.566,1015.65 L816.281,1015.21 L818.044,1015.3 L820.953,1018.47 L821.953,1019.01 L822.567,1020.24 L825.181,1019.77 L826.37,1020.64 L828.847,1020.94 L830.909,1022.53 L834.749,1022.04 L836.593,1022.72 L837.645,1022.26 L839.314,1020.48 L841.504,1022.45 L843.828,1025.14 L844.393,1026.35 L843.794,1031.83 L842.109,1034.18 L843.369,1042.92 L843.231,1043.66 L841.709,1045.44 L841.443,1046.54 L841.223,1048.92 L842.183,1050.72 L844.886,1052.02 L845.603,1052.87 L846.762,1056.49 L848.398,1058.33 L849.155,1059.79 L849.304,1060.9 L851.997,1060.97 L853.497,1061.79 L854.248,1063.14 L853.862,1063.58 L856.67,1065.76 L860.292,1065.29 L861.813,1065.58 L864.849,1067.23 L871.297,1066.38 L872.76,1065.28 L873.722,1063.85 L875.726,1062.98 L880.255,1062.91 L880.88,1062.73 L882.094,1060.48 L888.262,1059.48 L890.278,1058.18 L892.351,1055.69 L893.799,1054.58 L895.19,1053.69 L898.512,1052.42 L900.215,1050.3 L901.209,1049.68 L905.411,1049.58 L907.229,1047.66 L908.165,1047.14 L909.613,1046.91 L913.333,1044.68 L917.507,1043.52 L921.964,1043.43 L924.037,1042.94 L924.804,1039.76 L927.842,1032.65 L927.927,1029.52 L929.148,1024.97 L930.255,1022.2 L929.971,1018.09 L931.278,1010.78 L930.54,1000.51 L929.5,996.161 L930.227,995.308 L931.42,994.657 L933.038,991.754 L934.004,991.127 L936.275,990.593 L937.326,988.084 L938.007,987.317 L940.108,986.481 L941.045,983.694 L942.578,982.3 L944.679,981.603 L945.929,980.024 L947.632,979.559 L949.563,972.497 L950.33,970.801 L951.579,969.384 L952.658,969.013 L954.702,969.245 L958.563,967.828 L960.806,968.129 L963.021,969.291 L964.611,969.151 L967.166,967.874 L972.731,966.619 L975.797,964.273 L977.359,961.88 L978.92,955.956 L978.74,951.674 L977.955,948.522 L978.438,946.454 L978.097,944.944 L974.576,940.135 L973.185,937.138 L973.355,935.488 L975.144,931.329 L975.018,925.328 L974.537,924.68 L973.043,924.359 L970.09,924.568 L969.164,924.328 L967.421,921.13 L967.421,920.2 L967.932,919.062 L972.362,916.947 L973.696,915.483 L976.706,911.254 L977.983,907.908 L978.466,905.375 L978.267,902.238 L978.665,900.472 L979.999,897.87 L980.453,895.43 L979.034,890.41 L979.062,886.809 L981.419,880.255 L982.015,876.351 L982.043,872.935 L983.037,870.541 L984.627,863.732 L983.974,859.409 L981.699,854.235 L984.542,852.158 L985.99,848.253 L985.933,846.858 L986.331,845.859 L988.829,844.255 L990.05,842.117 L992.151,840.885 L994.749,841.32 L995.107,840.18 L994.565,837.538 L994.479,834.261 L996.126,831.495 L997.351,828.173 L999.081,826.054 L999.629,823.85 L999.458,822.976 L997.801,820.895 L998.09,816.423 L996.51,813.098 L996.657,811.779 L998.294,811.236 L999.335,810.134 L1000.92,802.182 L1002.09,801.043 L1007.85,799.741 L1010.44,795.812 L1012.2,795.928 L1013.9,795.58 L1014.44,790.232 L1016.68,786.699 L1017.12,784.196 L1017.65,783.645 L1017.53,779.189 L1019.32,775.656 L1020.6,771.796 L1020.69,767.588 L1023.3,763.961 L1025.88,762.078 L1025.8,760.078 L1026.36,757.497 L1027.92,752.642 L1028.76,751.953 L1028.59,750.254 L1029,748.197 L1030.68,743.988 L1030.31,742.104 L1032.02,741.737 L1032.04,741.31 L1031.26,740.329 L1031.13,738.64 L1031.56,735.96 L1030.53,733.697 L1031.89,729.214 L1031.95,727.8 L1032.89,726.687 L1033.63,725.059 L1033.83,723.664 L1033.21,721.478 L1034.26,717.385 L1035.09,715.973 L1038.1,716.23 L1038.69,715.316 L1039.37,714.944 L1041.13,714.758 L1041.75,714.199 L1044.05,713.688 L1046.55,713.572 L1048.06,714.06 L1050.04,713.827 L1051.67,715.187 L1053.79,718.722 L1054.28,721.284 L1055.78,724.626 L1055.96,726.028 L1058.85,730.181 L1062.65,739.43 L1062.97,742.526 L1062.49,743.822 L1063.84,746.644 L1063.04,749.18 L1062.76,751.855 L1063.46,754.311 L1064.82,756.012 L1068.98,757.287 L1073.61,756.288 L1076.67,756.985 L1078.48,761.134 L1082.5,765.309 L1083.15,767.053 L1085.36,767.727 L1087.78,769.656 L1092.32,767.61 L1093.65,766.029 L1097.23,764.797 L1101.69,766.331 L1104.22,769.912 L1107.31,770.516 L1109.72,772.376 L1110.83,776.77 L1111.46,777.84 L1114.38,779.816 L1117.56,786.907 L1117.82,789.046 L1118.44,790.417 L1120.91,792.928 L1124.12,798.112 L1124.77,799.623 L1125.25,804.714 L1127.38,806.458 L1128.55,809.596 L1129.12,810.34 L1131.22,809.758 L1133.42,808.323 L1137.78,802.844 L1141.58,801.083 L1143.14,799.282 L1144.31,797.247 L1147.12,795.29 L1148.84,795.134 L1151.33,795.446 L1152.89,796.229 L1156.32,796.855 L1161.1,796.272 L1164.16,794.741 L1168.22,796.933 L1170.03,796.274 L1172.16,796.112 L1173.49,796.344 L1177.47,795.461 L1179.68,796.437 L1180.76,797.542 L1182,798.162 L1184.85,796.739 L1187.66,795.879 L1188.39,794.462 L1188.63,791.405 L1192.24,790.359 L1196.33,785.429 L1197.11,783.081 L1198.2,781.359 L1198.95,779.559 L1198.48,777.722 L1197.05,774.529 L1197.05,773.474 L1199.36,770.958 L1199.61,770.181 L1199.12,765.564 L1199.29,764.647 L1200.1,764.036 L1200.61,763.119 L1199.16,760.214 L1202.93,752.235 L1204.39,750.792 L1206.32,749.672 L1208.28,743.119 L1206.99,740.827 L1208.79,738.756 L1213.29,738.621 L1216.77,739.98 L1218.27,739.613 L1219.16,738.435 L1225.19,721.169 L1225.6,717.583 L1231.18,712.92 L1233.59,712.115 L1234.71,711.257 L1237.89,707.624 L1237.81,706.919 L1236.64,705.543 L1236.25,704.1 L1234.57,703.24 L1235.27,700.044 L1234.76,699.165 L1235.82,697.736 L1235.63,695.995 L1234.56,695.213 L1235.85,691.712 L1236.43,691.929 L1238.03,691.305 L1239.74,691.15 L1245.23,689.28 L1248.91,689.022 L1255.66,687.077 L1259.04,685.543 L1262.72,684.556 L1265.62,683.102 L1266.14,683.362 L1267.48,686.43 L1268.08,686.989 L1276.1,687.798 L1277.01,688.552 L1277.79,688.553 L1279.1,686.695 L1279.3,683.472 L1280.34,681.471 L1281.64,677.261 L1282.73,676.794 L1289.15,677.577 L1291.79,678.878 L1294.16,680.66 L1297.24,679.44 L1298.9,679.623 L1301,681.652 L1302.87,682.186 L1303.58,683.401 L1304.23,683.817 L1306.59,684.079 L1307.73,683.144 L1310.67,684.412 L1311.48,686.239 L1312.7,691.774 L1313.87,694.128 L1314.39,694.441 L1319.21,694.73 L1320.62,693.866 L1323.69,697.449 L1326.81,698.774 L1330.12,699.688 L1331.17,699.403 L1333.11,698.183 L1336.83,694.736 L1338.23,692.014 L1340.74,690.067 L1342.09,689.691 L1343.09,689.861 L1347.18,687.869 L1347.71,687.272 L1348.61,685.47 L1348.73,684.214 L1347.93,681.749 L1347.62,678.539 L1347,676.799 L1348.81,674.957 L1352.67,673.701 L1353.5,672.771 L1355.68,663.839 L1357.1,663.397 L1358.24,660.815 L1360.43,659.628 L1362.04,660.07 L1368.16,663.279 L1371.14,664.244 L1373.41,664.099 L1375.23,666.171 L1378.28,668.149 L1380.35,668.931 L1382.8,668.023 L1384.2,668.311 L1385.94,670.007 L1387.33,672.966 L1394.13,678.783 L1395.34,678.81 L1397.02,678.136 L1398.76,678.761 L1399.61,679.725 L1400.36,683.403 L1401.86,683.69 L1406,687.034 L1408.73,688.357 L1409.5,690.521 L1411.63,693.155 L1414.47,691.966 L1415.92,688.445 L1415.96,687.284 L1413.51,681.391 L1413.86,678.422 L1414.88,676.351 L1414.97,673.701 L1413.33,669.677 L1413.64,667.832 L1413.08,666.299 L1413.43,665.39 L1415.09,664.368 L1417.61,660.954 L1417.96,659.319 L1420.36,654.202 L1420.05,652.71 L1420.76,650.881 L1420.56,649.183 L1421.01,647.485 L1420.76,645.973 L1420.08,644.903 L1418,643.019 L1417.64,642.018 L1417.91,639.317 L1420.13,633.713 L1418.88,632.783 L1418.34,629.944 L1415.33,624.524 L1414.28,623.779 L1413.77,622.895 L1411.97,617.683 L1414.68,614.274 L1415.71,613.707 L1416.41,612.854 L1419.37,611.518 L1419.53,608.594 L1419.8,608.197 L1422.6,607.051 L1423.54,605.166 L1423.17,603.91 L1423.21,602.069 L1423.48,597.93 L1424.05,595.976 L1422.26,592.206 L1420.02,585.714 L1417.66,582.009 L1420.36,580.077 L1422.09,579.964 L1425.83,572.237 L1425.21,569.226 L1425.7,568.771 L1427.64,568.204 L1428.96,565.981 L1428.54,565.027 L1428.88,562.976 L1428.34,562.025 L1427.66,561.629 L1427.09,558.302 L1427.36,555.874 L1427.2,553.894 L1427.8,551.39 L1427.33,549.663 L1429.44,543.772 L1431.03,541.385 L1434.78,541.612 L1438.17,545.135 L1438.98,547.62 L1437.37,551.017 L1437.28,552.018 L1438.59,554.229 L1442.12,557.92 L1443.86,558.658 L1445.45,558.658 L1447.46,560.135 L1448.5,560.419 L1452.83,560.107 L1453.25,560.504 L1457.48,560.931 L1459.83,562.009 L1462.89,561.117 L1464.28,561.559 L1465.52,562.407 L1467.75,562.634 L1471.04,564.002 L1474.11,564.561 L1477.63,563.234 L1480.53,561.327 L1481.43,561.214 L1483,561.697 L1484.58,562.582 L1488.42,561.76 L1490.18,563.583 L1494.33,566.424 L1495.57,568.202 L1495.71,570.219 L1496.43,571.781 L1498.27,574.264 L1501.96,575.893 L1503.1,575.893 L1504.96,575.246 L1505.48,574.792 L1506.59,572.169 L1507.59,571.582 L1509.15,572.292 L1510.58,573.428 L1512.04,573.542 L1513.45,569.622 L1514.56,569.338 L1522,570.587 L1522.57,570.959 L1523.5,572.917 L1525.72,573.371 L1527.8,573.371 L1530.5,573.939 L1535.77,572.291 L1541.66,573.655 L1543.61,575.019 L1544.13,576.312 L1544.51,579.165 L1551.75,590.897 L1554.06,590.287 L1555.91,590.361 L1558.21,588.76 L1558.52,587.946 L1558.38,586.875 L1557.13,584.618 L1556.76,583.176 L1557.5,582.361 L1557.95,581.035 L1557.24,578.382 L1559.26,574.496 L1559.37,573.681 L1558.55,572.797 L1557.98,570.772 L1557.47,565.49 L1560.11,561.347 L1559.09,559.579 L1557.72,558.136 L1555.03,556.064 L1553.63,552.923 L1553.44,548.152 L1551.25,545.452 L1550.48,542.868 L1554.49,536.212 L1560.14,531.324 L1562.52,528.368 L1564.45,524.97 L1564.68,520.943 L1565.76,519.477 L1570.67,515.264 L1571.32,514.1 L1571.92,511.121 L1575.07,508.467 L1575.67,507.373 L1575.67,506.488 L1573.96,503.113 L1574.13,498.714 L1571.92,495.431 L1570.3,491.497 L1568.82,486.748 L1568.79,484.42 L1568.4,483.559 L1566.46,481.722 L1565.87,480.626 L1565.73,478.787 L1565.16,477.25 L1563.94,474.946 L1562.29,473.363 L1561.61,471.174 L1560.7,469.987 L1560.3,464.702 L1559.14,458.486 L1557.83,456.344 L1554.91,453.038 L1551.53,441.652 L1547.9,440.837 L1547.19,440.116 L1545.82,437.857 L1545.6,434.97 L1545.2,433.736 L1544.54,432.315 L1542.95,430.662 L1541.48,426.518 L1539.66,425.912 L1538.84,424.655 L1537.82,423.84 L1535.4,423.095 L1535.4,421.395 L1536.48,418.787 L1536.31,417.087 L1534.69,412.267 L1534.04,411.358 L1532.82,410.846 L1532.51,410.124 L1534.64,406.817 L1535.06,405.001 L1535,398.317 L1535.54,397.036 L1535.49,396.221 L1532.9,394.801 L1532.14,394.055 L1531.94,393.38 L1532.73,388.513 L1532.59,386.812 L1530.97,382.015 L1529.92,380.571 L1529.89,378.568 L1529.01,377.939 L1525.72,376.774 L1524.67,375.749 L1524.07,374.585 L1523.87,373.094 L1522.45,371.208 L1522.26,370.043 L1522.91,364.849 L1522.68,364.197 L1520.13,364.383 L1516.21,357.465 L1516.07,355.019 L1518.88,351.735 L1515.78,350.594 L1515.27,348.963 L1515.87,345.492 L1515.61,344.63 L1514.7,344.374 L1513.23,340.6 L1514.02,339.622 L1515.95,338.411 L1515.16,335.895 L1514.25,329.628 L1513.14,327.089 L1511.3,324.69 L1511.21,323.035 L1510.44,321.335 L1508.74,319.028 L1507.55,318.469 L1503.63,317.398 L1499.63,315.464 L1497.73,314.998 L1491.39,314.835 L1490.32,314.019 L1488.81,311.876 L1486.34,311.853 L1484.55,311.48 L1483.08,310.595 L1481.68,309.29 L1480.07,305.352 L1478.99,304.817 L1478.48,303.768 L1477.94,299.691 L1477.97,298.34 L1481.6,293.843 L1482.19,291.047 L1485.26,289.439 L1485.74,287.226 L1485.89,284.15 L1488.55,281.47 L1490,278.418 L1489.58,276.531 L1489.75,275.715 L1490.48,274.76 L1491.85,273.921 L1494.18,272.849 L1495.77,272.5 L1496.39,271.614 L1497.21,269.214 L1497.1,268.259 L1497.92,265.556 L1498.46,261.198 L1500.53,259.031 L1500.82,257.959 L1502.29,256.934 L1503.57,252.507 L1504.68,250.339 L1505.59,249.897 L1508.65,249.431 L1509.28,248.918 L1510.53,246.704 L1510.87,245.492 L1510.56,244.164 L1510.95,242.276 L1513.76,238.524 L1513.82,237.522 L1513.23,234.935 L1513.71,231.346 L1512.37,227.827 L1514.45,222.257 L1514.02,220.299 L1514.7,219.46 L1518.51,217.479 L1522.08,217.316 L1522.99,216.733 L1524.61,214.705 L1525.86,213.68 L1527.22,213.237 L1529.04,213.167 L1530.03,213.656 L1531.79,215.964 L1533.07,217.036 L1536.48,218.458 L1538.95,220.276 L1540.05,224.098 L1541.08,224.541 L1543.89,224.82 L1546.78,224.494 L1549.34,223.329 L1549.94,222.443 L1550.11,220.742 L1549.76,219.739 L1550.02,215.754 L1551.07,211.768 L1551.55,207.969 L1551.92,207.083 L1554.02,204.683 L1555.3,206.944 L1559.53,210.23 L1562.77,209.135 L1569.04,203.587 L1572.31,205.895 L1573.9,206.011 L1574.81,206.454 L1577.73,209.461"/>
  </g>
  <g stroke-width="1" transform="matrix(0.999744,0,0,0.999744,0,0)" stroke-opacity="1" font-size="34.5833" fill="none" stroke-linejoin="bevel" font-style="normal" stroke-linecap="square" stroke="#000000" font-family="MS Shell Dlg 2" font-weight="400"/>
  <g stroke-width="1" transform="matrix(11.808,0,0,11.808,0,0)" stroke-opacity="1" font-size="34.5833" fill="none" stroke-linejoin="bevel" font-style="normal" stroke-linecap="square" stroke="#000000" font-family="MS Shell Dlg 2" font-weight="400"/>
  <g stroke-width="1" transform="matrix(11.808,0,0,11.808,0,0)" stroke-opacity="1" font-size="34.5833" fill="none" stroke-linejoin="bevel" font-style="normal" stroke-linecap="square" stroke="#000000" font-family="MS Shell Dlg 2" font-weight="400"/>
  <g stroke-width="1" transform="matrix(11.808,0,0,11.808,0,0)" stroke-opacity="1" font-size="34.5833" fill="none" stroke-linejoin="bevel" font-style="normal" stroke-linecap="square" stroke="#000000" font-family="MS Shell Dlg 2" font-weight="400"/>
  <g stroke-width="1" transform="matrix(1,0,0,1,0,0)" stroke-opacity="1" font-size="34.5833" fill="none" stroke-linejoin="bevel" font-style="normal" stroke-linecap="square" stroke="#000000" font-family="MS Shell Dlg 2" font-weight="400"/>
  <g stroke-width="1" transform="matrix(11.808,0,0,11.808,0,0)" stroke-opacity="1" font-size="34.5833" fill="none" stroke-linejoin="bevel" font-style="normal" stroke-linecap="square" stroke="#000000" font-family="MS Shell Dlg 2" font-weight="400"/>
  <g stroke-width="1" transform="matrix(11.808,0,0,11.808,0,0)" stroke-opacity="1" font-size="34.5833" fill="none" stroke-linejoin="bevel" font-style="normal" stroke-linecap="square" stroke="#000000" font-family="MS Shell Dlg 2" font-weight="400"/>
  <g stroke-width="1" transform="matrix(11.808,0,0,11.808,0,0)" stroke-opacity="1" font-size="34.5833" fill="none" stroke-linejoin="bevel" font-style="normal" stroke-linecap="square" stroke="#000000" font-family="MS Shell Dlg 2" font-weight="400"/>
  <g stroke-width="1" transform="matrix(11.808,0,0,11.808,0,0)" stroke-opacity="1" font-size="34.5833" fill="none" stroke-linejoin="bevel" font-style="normal" stroke-linecap="square" stroke="#000000" font-family="MS Shell Dlg 2" font-weight="400"/>
  <g stroke-width="1" transform="matrix(1,0,0,1,0,0)" stroke-opacity="1" font-size="34.5833" fill="none" stroke-linejoin="bevel" font-style="normal" stroke-linecap="square" stroke="#000000" font-family="MS Shell Dlg 2" font-weight="400"/>
 </g>
</svg>
