<?xml version='1.0' encoding='UTF-8' standalone='no'?>
<svg xmlns:xlink="http://www.w3.org/1999/xlink" width="249.936mm" height="249.936mm" viewBox="0 0 2952 2952" xmlns="http://www.w3.org/2000/svg" version="1.2" baseProfile="tiny">
 <title>Qt SVG Document</title>
 <desc>Generated with Qt</desc>
 <defs/>
 <g fill="none" fill-rule="evenodd" stroke-linejoin="bevel" stroke-linecap="square" stroke="black" stroke-width="1">
  <g fill="none" font-weight="400" stroke-opacity="1" stroke-linejoin="bevel" stroke-linecap="square" font-size="34.5833" font-style="normal" transform="matrix(1,0,0,1,0,0)" stroke="#000000" font-family="MS Shell Dlg 2" stroke-width="1"/>
  <g fill="none" font-weight="400" stroke-opacity="1" stroke-linejoin="bevel" stroke-linecap="square" font-size="34.5833" font-style="normal" transform="matrix(1,0,0,1,0,0)" stroke="#000000" font-family="MS Shell Dlg 2" stroke-width="1"/>
  <g fill="none" font-weight="400" stroke-opacity="1" stroke-linejoin="bevel" stroke-linecap="square" font-size="34.5833" font-style="normal" transform="matrix(11.808,0,0,11.808,0,0)" stroke="#000000" font-family="MS Shell Dlg 2" stroke-width="1"/>
  <g fill="none" font-weight="400" stroke-opacity="1" stroke-linejoin="bevel" stroke-linecap="square" font-size="34.5833" font-style="normal" transform="matrix(0.999744,0,0,0.999744,0,0)" stroke="#000000" font-family="MS Shell Dlg 2" stroke-width="1"/>
  <g fill="#ffffff" font-weight="400" fill-opacity="0" font-size="34.5833" font-style="normal" transform="matrix(0.999744,0,0,0.999744,0,0)" stroke="none" font-family="MS Shell Dlg 2">
   <path fill-rule="evenodd" d="M-2,-2 L2955,-2 L2955,2955 L-2,2955 L-2,-2" vector-effect="none"/>
  </g>
  <g fill="none" font-weight="400" stroke-opacity="1" stroke-linejoin="bevel" stroke-linecap="square" font-size="34.5833" font-style="normal" transform="matrix(0.999744,0,0,0.999744,0,0)" stroke="#000000" font-family="MS Shell Dlg 2" stroke-width="1"/>
  <g fill="none" font-weight="400" stroke-opacity="1" stroke-linejoin="bevel" stroke-linecap="square" font-size="34.5833" font-style="normal" transform="matrix(11.808,0,0,11.808,0,0)" stroke="#000000" font-family="MS Shell Dlg 2" stroke-width="1"/>
  <g fill="none" font-weight="400" stroke-opacity="1" stroke-linejoin="bevel" stroke-linecap="square" font-size="34.5833" font-style="normal" transform="matrix(11.808,0,0,11.808,0,0)" stroke="#000000" font-family="MS Shell Dlg 2" stroke-width="1"/>
  <g fill="none" font-weight="400" stroke-opacity="1" stroke-linejoin="bevel" stroke-linecap="square" font-size="34.5833" font-style="normal" transform="matrix(11.808,0,0,11.808,0,0)" stroke="#000000" font-family="MS Shell Dlg 2" stroke-width="1"/>
  <g fill="none" font-weight="400" stroke-opacity="1" stroke-linejoin="bevel" stroke-linecap="square" font-size="34.5833" font-style="normal" transform="matrix(11.808,0,0,11.808,0,0)" stroke="#000000" font-family="MS Shell Dlg 2" stroke-width="1"/>
  <g fill="none" font-weight="400" stroke-opacity="1" stroke-linejoin="bevel" stroke-linecap="square" font-size="34.5833" font-style="normal" transform="matrix(11.808,0,0,11.808,0,0)" stroke="#000000" font-family="MS Shell Dlg 2" stroke-width="1"/>
  <g fill="#ffffff" font-weight="400" fill-opacity="0" font-size="34.5833" font-style="normal" transform="matrix(11.808,0,0,11.808,0,0)" stroke="none" font-family="MS Shell Dlg 2">
   <path fill-rule="evenodd" d="M0,0 L250,0 L250,250 L0,250 L0,0" vector-effect="none"/>
  </g>
  <g fill="none" font-weight="400" stroke-opacity="1" stroke-linejoin="bevel" stroke-linecap="square" font-size="34.5833" font-style="normal" transform="matrix(11.808,0,0,11.808,0,0)" stroke="#000000" font-family="MS Shell Dlg 2" stroke-width="1"/>
  <g fill="none" font-weight="400" stroke-opacity="1" stroke-linejoin="bevel" stroke-linecap="square" font-size="34.5833" font-style="normal" transform="matrix(11.808,0,0,11.808,0,0)" stroke="#000000" font-family="MS Shell Dlg 2" stroke-width="1"/>
  <g fill="#000000" font-weight="400" fill-opacity="0" font-size="34.5833" font-style="normal" transform="matrix(0.999744,0,0,0.999744,0,0)" stroke="none" font-family="MS Shell Dlg 2">
   <rect width="2953" height="2953" x="0" y="0"/>
  </g>
  <g fill="none" font-weight="400" stroke-opacity="1" stroke-linejoin="bevel" stroke-linecap="square" font-size="34.5833" font-style="normal" transform="matrix(0.999744,0,0,0.999744,0,0)" stroke="#000000" font-family="MS Shell Dlg 2" stroke-width="1"/>
  <g fill="#c5c5c5" font-weight="400" fill-opacity="1" stroke-opacity="1" stroke-linejoin="bevel" stroke-linecap="square" font-size="34.5833" font-style="normal" transform="matrix(0.999744,0,0,0.999744,0,0)" stroke="#5c5c5c" font-family="MS Shell Dlg 2" stroke-width="3.07087">
   <path fill-rule="evenodd" d="M2804.86,822.222 L2767.09,863.856 L2728.82,948.784 L2709.26,989.835 L2666.16,1122.34 L2667.15,1155.86 L2660.24,1166.8 L2659.3,1182.33 L2634.04,1237.42 L2628.97,1244.78 L2594.7,1279.14 L2584.56,1292.92 L2578.7,1303.88 L2577.85,1307.95 L2576.73,1338.83 L2577.31,1357.09 L2544.07,1423.04 L2534.55,1452.65 L2521.86,1503.76 L2507.64,1526.46 L2514.28,1607.75 L2518.31,1621.21 L2520.83,1633.46 L2521.63,1641.44 L2522.17,1654.45 L2522.04,1665.98 L2520.83,1672.18 L2515.4,1683.97 L2511.45,1689.22 L2503.02,1697.75 L2493.32,1702.86 L2490.23,1708.38 L2481.57,1720.05 L2478.92,1725.16 L2477.08,1731.53 L2476.32,1736.96 L2472.71,1788.31 L2463.2,1855.6 L2455.82,1891.88 L2452.43,1902.13 L2427.31,1965.65 L2400.48,2029.95 L2338.16,2036.9 L2335.42,2041.39 L2293.61,2039.73 L2259.83,2007.83 L2132.23,2039.68 L2121.13,2051.1 L2093.09,2078.38 L2046.81,2123.2 L2026.47,2115.93 L2021.76,2122.52 L2013.41,2125.66 L1996.59,2130.91 L1992.55,2133.02 L1991.52,2137.1 L1991.16,2145.76 L1989.99,2153.3 L1985.33,2157.47 L1980.12,2157.88 L1971.6,2172.05 L1956.93,2197.89 L1952.67,2210.01 L1944.68,2236.93 L1944.28,2247.29 L1942.75,2254.38 L1940.46,2261.69 L1915.05,2312.01 L1909.89,2307.03 L1901.95,2310.53 L1884.99,2308.28 L1874.98,2306.4 L1862.24,2305.41 L1833.84,2306.62 L1835.55,2322.95 L1838.64,2349.2 L1825.18,2358.58 L1800.44,2365.37 L1780.84,2374.77 L1762.8,2376.66 L1749.88,2378.67 L1732.05,2382.62 L1729.47,2391.78 L1705.42,2426.86 L1704.75,2432.78 L1695.55,2435.11 L1689.27,2435.34 L1664.64,2438.66 L1662.57,2440.54 L1652.03,2437.99 L1615.65,2511.25 L1624.89,2536.96 L1630.99,2551.54 L1634.49,2561.36 L1638.12,2571.32 L1643.15,2588.64 L1646.11,2600.75 L1649.29,2608.16 L1682.18,2666.52 L1653.74,2668.09 L1626.1,2668 L1604.52,2669.75 L1552.66,2684.38 L1542.7,2684.6 L1534.67,2683.03 L1533.5,2689.85 L1520.13,2689.14 L1510.04,2687.57 L1499.58,2686.4 L1494.56,2685.1 L1486.17,2676.21 L1469.48,2673.43 L1460.37,2670.79 L1454.72,2669.8 L1445.74,2667.29 L1437.49,2660.74 L1434.11,2656.68 L1430.49,2655.22 L1416.45,2642.52 L1412.9,2638.66 L1408.55,2631.89 L1404.74,2620.67 L1403.57,2604.75 L1396.62,2552.61 L1399.98,2517.13 L1405.37,2490.39 L1401.37,2466.29 L1387.47,2467.42 L1356.6,2463.24 L1332.06,2462.39 L1326.59,2461.4 L1322.82,2459.48 L1320.44,2464.05 L1300.25,2463.87 L1294.64,2464.59 L1277.62,2463.4 L1266.97,2462.32 L1263.62,2461.94 L1236.59,2459.43 L1126.31,2450.01 L1111.82,2449.38 L1096.25,2448.3 L1087.01,2447.5 L1078.89,2448.26 L1063.86,2448.71 L980.234,2441.8 L976.644,2435.7 L877.225,2434.62 L676.592,2432.24 L595.298,2431.52 L591.353,2430.83 L593.181,2419.19 L592.205,2406.61 L591.596,2393.16 L587.774,2389.77 L583.167,2386.06 L583.046,2377.66 L589.151,2374.11 L592.763,2369.65 L592.422,2357.16 L604.473,2345.03 L603.901,2316.48 L603.232,2301.74 L600.288,2289.41 L599.158,2261.24 L598.409,2236.37 L594.308,2209.67 L590.828,2186.25 L587.822,2168.2 L580.586,2144.6 L579.067,2129.93 L574.485,2073.41 L569.005,2052.55 L564.328,2026.31 L560.921,1995.27 L562.243,1977.76 L543.466,1940.49 L540.808,1915.47 L534.223,1892.91 L525.394,1860.45 L514.194,1833.53 L504.701,1819.75 L494.631,1800.83 L478.329,1777.58 L469.464,1766.97 L467.019,1759.45 L452.842,1757.56 L441.429,1757.49 L436.998,1760.42 L428.87,1759.28 L425.309,1754.22 L415.559,1744.87 L404.334,1737.19 L383.758,1729.71 L371.343,1726.98 L355.613,1727.95 L342.269,1760.71 L336.66,1777.74 L335.28,1780.89 L331.047,1782.37 L300.226,1782.96 L297.175,1779.42 L295.502,1775.08 L292.745,1775.18 L292.646,1773.61 L303.574,1773.11 L305.74,1773.61 L329.373,1773.31 L327.6,1737.77 L282.308,1739.44 L283.586,1767.3 L279.041,1767.3 L279.551,1774.1 L277.679,1774 L278.369,1783.65 L283.784,1787.1 L286.541,1791.33 L287.132,1796.25 L283.391,1802.56 L278.762,1805.12 L271.967,1802.45 L268.524,1797.43 L267.044,1790.64 L265.37,1729 L279.353,1715.32 L285.557,1715.91 L292.385,1710.61 L297.308,1711.1 L299.672,1708.83 L304.855,1709.21 L307.315,1707.33 L310.369,1704.98 L308.497,1689.12 L305.644,1673.47 L301.698,1669.7 L296.977,1665.2 L288.317,1665.22 L285.263,1662.46 L286.478,1658.63 L296.096,1653.31 L292.058,1646.42 L286.739,1646.81 L279.75,1640.81 L277.976,1633.81 L270.495,1631.65 L262.815,1626.33 L238.587,1640.35 L230.394,1643.82 L228.353,1643.26 L226.972,1638.64 L221.855,1640.41 L221.657,1645.92 L224.414,1647.79 L211.929,1650.63 L213.977,1646.02 L212.502,1643.36 L214.469,1639.92 L215.945,1636.08 L234.806,1630.59 L247.919,1611.16 L260.073,1607.29 L264.901,1606 L269.948,1603.8 L268.817,1597.06 L263.403,1593.91 L252.074,1603.05 L244.655,1604.98 L240.507,1609.68 L235.647,1608.17 L229.45,1606.32 L207.608,1613.34 L201.929,1602.42 L185.216,1602.97 L167.257,1602.97 L132.6,1590.37 L129.762,1568.95 L137.354,1561.18 L134.175,1550.04 L141.179,1537.7 L144.909,1536.78 L147.398,1529.92 L150.874,1531.14 L173.245,1532.4 L175.91,1530.09 L177.657,1527.6 L163.399,1524.31 L164.831,1518.47 L191.834,1517.27 L205.501,1514.63 L212.953,1510.27 L215.549,1504.86 L220.339,1500.32 L232.431,1500.89 L237.203,1509.39 L242.17,1508.66 L246.05,1505.71 L250.437,1494.1 L246.348,1484.01 L247.192,1465.61 L248.77,1447.49 L250.837,1441.88 L250.048,1434.79 L246.902,1421.97 L242.996,1421.06 L239.314,1414.09 L238.551,1409.98 L236.363,1405.44 L233.309,1403.28 L230.651,1398.21 L226.712,1390.58 L221.4,1388.17 L219.032,1383.59 L212.63,1383.68 L208.497,1384.47 L204.694,1385.23 L195.902,1385.34 L189.47,1385.5 L184.379,1383.84 L183.494,1376.74 L175.12,1377.38 L172.463,1374.88 L166.362,1370.74 L157.199,1369.5 L149.325,1365.33 L137.512,1369.66 L132.405,1365.6 L125.354,1362.57 L129.432,1357.89 L133.665,1357.59 L135.735,1354.64 L141.106,1353.75 L143.07,1353.84 L149.618,1354.73 L152.471,1353.95 L154.971,1351.85 L154.046,1349.22 L151.487,1347.64 L143.312,1345.55 L136.488,1345.35 L126.877,1347.99 L111.419,1350.26 L109.932,1343.48 L90.2484,1334.6 L89.4629,1329.49 L111.125,1331.85 L111.419,1325.84 L84.7347,1327.12 L77.547,1324.66 L80.8912,1321.26 L87.1979,1318.17 L88.2735,1311.61 L86.2067,1301.47 L83.8427,1300.58 L84.731,1297.72 L101.074,1298.12 L108.952,1298.41 L115.552,1297.58 L118.206,1293.89 L117.322,1269.66 L115.85,1269.82 L104.822,1272.57 L87.5907,1273.26 L81.6841,1269.62 L85.4212,1263.76 L94.2901,1254.65 L95.9567,1250.07 L95.8613,1245.89 L101.871,1242.05 L104.029,1242.09 L114.858,1237.17 L111.808,1234.81 L112.498,1228.21 L103.838,1210.8 L99.2055,1203.6 L101.47,1200.64 L108.46,1204.19 L111.808,1211.08 L113.383,1215.12 L119.888,1211.98 L122.053,1209.71 L128.947,1205.28 L137.409,1203.4 L142.526,1199.17 L147.651,1199.87 L150.511,1202.72 L146.671,1204.3 L147.258,1206.76 L146.964,1211.29 L151.102,1210.21 L154.057,1207.64 L152.772,1202.92 L189.173,1192.99 L189.991,1185.99 L188.284,1180.9 L185.752,1179.42 L187.091,1177.1 L184.426,1175.11 L178.865,1179.22 L162.081,1183.47 L146.348,1186.89 L137.247,1186.8 L129.674,1188.42 L120.28,1188.35 L115.655,1184.41 L116.242,1175.05 L136.135,1103.47 L112.994,1063.4 L111.617,1058.18 L114.076,1052.86 L119.297,1051.19 L125.794,1051.29 L130.225,1056.11 L131.209,1060.64 L140.959,1075.41 L144.799,1076.2 L150.606,1076.2 L164.489,1080.33 L165.572,1083.48 L164.515,1091.8 L156.259,1090.28 L152.177,1110.46 L154.229,1111.09 L178.788,1116.18 L178.722,1117.28 L185.836,1116.99 L190.568,1111.62 L190.054,1102.79 L185.84,1095.43 L185.476,1091.64 L186.497,1079.4 L182.389,1072.69 L178.017,1067.39 L176.453,1062.04 L151.678,1058.77 L141.451,1048.53 L140.566,1035.53 L136.822,1020.47 L137.611,1016.83 L140.566,1015.25 L139.975,1012.49 L141.865,1006.2 L157.713,990.548 L160.83,991.857 L162.742,995.44 L159.141,997.974 L144.96,1011.66 L148.58,1019.81 L153.708,1034.05 L154.523,1035.43 L158.642,1046.3 L162.676,1048.84 L176.343,1052.02 L185.975,1054.22 L188.619,1052.22 L192.436,1034.28 L192.737,1032.86 L185.256,1027.12 L183.931,1026.46 L182.327,1025.66 L164.702,1015.4 L155.609,1018.96 L155.055,1017.25 L167.364,1012.29 L169.75,1014.01 L183.564,998.518 L190.641,999.562 L204.694,1002.45 L213.772,1002.7 L230.79,995.311 L240.698,995.205 L248.748,993.171 L256.909,989.314 L267.65,986.081 L272.87,989.628 L279.412,987.832 L280.913,983.657 L278.024,976.218 L281.174,965.192 L273.461,951.915 L276.02,941.477 L299.356,925.134 L304.771,924.347 L309.106,926.709 L309.4,929.96 L306.445,933.6 L302.568,936.165 L284.5,947.682 L287.26,952.149 L288.009,953.361 L289.441,955.679 L289.918,956.453 L294.367,962.388 L299.8,960 L317.336,950.221 L317.88,949.845 L325.218,958.275 L346.373,946.767 L360.117,938.319 L370.972,935.17 L369.724,929.08 L375.153,927.691 L371.846,913.321 L401.291,906.35 L402.965,913.343 L402.66,914.4 L401.235,914.754 L400.358,913.896 L399.51,909.707 L374.952,915.537 L379.874,936.749 L406.958,930.079 L450.32,919.239 L487.895,903.913 L531.455,896.987 L555.675,894.033 L574.544,886.315 L581.6,874.505 L604.631,865.447 L638.697,861.418 L643.459,879.026 L648.778,880.596 L658.201,901.928 L693.284,913.086 L695.494,910.216 L698.082,908.823 L699.532,910.645 L703.258,910.154 L704.624,908.106 L708.339,908.774 L711.136,911.388 L711.529,913.511 L714.443,913.909 L718.834,914.471 L721.114,917.403 L722.053,920.627 L727.872,924.015 L741.818,928.421 L743.826,925.497 L745.731,926.678 L747.28,925.807 L749.732,927.532 L752.911,926.55 L756.645,927.129 L770.025,929.208 L772.015,930.583 L773.894,933.635 L774.97,936.497 L781.251,938.757 L786.188,939.009 L785.913,941.627 L787.396,941.866 L787.466,942.653 L818.955,946.837 L881.464,956.833 L892.076,957.518 L904.297,956.829 L917.292,954.343 L927.618,951.304 L932.082,948.129 L939.006,944.807 L938.282,942.003 L939.674,941.061 L942.908,941.291 L943.701,941.99 L947.14,942.047 L950.378,941.048 L951.916,939.19 L954.391,937.987 L956.865,935.869 L956.868,933.334 L958.473,931.654 L960.216,927.784 L961.163,926.948 L960.939,924.559 L965.029,920.561 L968.3,917.027 L973.167,913.131 L983.769,906.328 L989.745,902.993 L988.071,897.823 L988.317,893.144 L992.157,889.406 L1002.3,885.563 L1006.39,886.894 L1011.11,893.095 L1015.64,889.504 L1014.46,887.385 L1012.2,885.713 L1011.64,882.891 L1013.18,880.53 L1017.5,880.224 L1017.98,882.193 L1020.35,882.679 L1023.13,880.56 L1024.7,879.083 L1029.24,877.668 L1034.55,878.225 L1038.76,879.366 L1038.45,882.701 L1045.14,884.289 L1045.93,882.692 L1062.24,888.818 L1075.45,879.61 L1110.54,839.237 L1150.33,804.229 L1191.06,776.771 L1196.77,776.377 L1201.39,777.753 L1205.53,781.791 L1206.71,789.275 L1202.67,796.166 L1176.48,813.694 L1179.64,819.205 L1181.8,819.701 L1183.87,821.965 L1183.77,824.721 L1179.24,828.657 L1176.19,828.166 L1173.42,826.034 L1155.91,840.17 L1138.81,855.23 L1122.23,872.055 L1106.43,889.406 L1152.57,939.557 L1155.38,941.433 L1159.04,943.308 L1163.35,944.25 L1169.4,944.161 L1176.54,941.937 L1183.88,939.615 L1192.94,935.157 L1199.75,931.242 L1208.43,924.816 L1217.07,916.74 L1223.12,909.663 L1228.18,902.507 L1232.49,894.28 L1235.14,888.199 L1237.2,882.117 L1239.15,875.364 L1240.5,868.424 L1234.42,859.658 L1239.59,855.297 L1220.24,828.626 L1201.33,842.904 L1198.3,842.722 L1197.54,841.718 L1194.1,844.403 L1190.88,844.279 L1187.04,839.241 L1188.82,835.663 L1192.53,835.048 L1194.51,837.534 L1195.01,837.149 L1196.33,833.907 L1200.13,833.376 L1201.85,829.679 L1206.79,828.834 L1207.15,826.83 L1208.24,824.827 L1210.5,824.469 L1212.2,824.725 L1213.17,821.293 L1217.82,820.422 L1218.23,818.414 L1219.25,816.441 L1222.79,815.848 L1223.86,811.89 L1227.23,810.925 L1228.58,806.87 L1232.15,805.609 L1233.62,801.964 L1236.58,800.589 L1238.05,796.745 L1241.7,795.861 L1243.67,791.822 L1247.1,791.283 L1249.35,786.882 L1253.3,787.439 L1255.46,782.844 L1259.6,783.304 L1260.79,779.562 L1265.51,779.464 L1266.99,775.528 L1271.48,775.528 L1272.99,771.883 L1278.31,772.277 L1279.19,768.341 L1284.22,768.929 L1285.59,764.922 L1290.03,764.696 L1292.09,761.281 L1296.13,761.94 L1298.09,758.229 L1302.23,758.424 L1304.21,755.147 L1308.64,755.244 L1310.31,751.599 L1314.25,751.307 L1317.1,747.959 L1320.45,747.857 L1322.81,744.907 L1327.05,745.301 L1329.12,742.05 L1333.03,742.236 L1335.61,738.799 L1339.26,738.998 L1341.92,735.65 L1345.76,735.946 L1348.02,732.695 L1352.56,733.075 L1354.13,729.939 L1358.55,729.939 L1361.02,726.79 L1365.25,727.675 L1367.12,724.03 L1371.52,724.079 L1373.62,720.978 L1378.05,721.668 L1380.29,718.55 L1384.45,718.811 L1387.01,715.861 L1390.95,716.254 L1393.31,713.202 L1397.04,713.565 L1400.01,710.544 L1403.85,710.938 L1406.41,708.08 L1410.35,708.571 L1413.1,705.913 L1416.54,706.006 L1419.5,703.286 L1423.44,703.847 L1425.95,700.853 L1430.63,701.287 L1432.9,698.628 L1436.83,699.022 L1439.3,696.266 L1443.73,696.855 L1446.48,693.736 L1450.52,694.984 L1453.29,691.295 L1456.92,692.427 L1459.68,689.273 L1463.35,691.109 L1466.47,687.009 L1470.41,688.782 L1472.77,685.633 L1476.91,687.305 L1479.37,683.466 L1483.9,684.943 L1486.56,681.497 L1490.69,683.466 L1492.96,679.918 L1497.68,681.396 L1500.05,678.246 L1504.28,679.626 L1506.84,676.375 L1510.8,677.791 L1513.83,674.504 L1518.07,676.473 L1520.82,672.832 L1524.76,674.898 L1528.01,671.355 L1531.85,673.323 L1534.71,669.878 L1538.84,671.749 L1541.79,668.922 L1545.58,670.554 L1548.29,667.348 L1552.13,668.825 L1554.99,666.233 L1558.73,667.808 L1562.09,664.928 L1565.62,666.136 L1568.38,663.774 L1572.61,665.543 L1575.76,662.69 L1579.41,664.167 L1582.56,661.606 L1586.6,662.787 L1589.15,660.425 L1593.29,661.704 L1595.95,659.342 L1600.38,660.62 L1603.33,658.457 L1606.97,659.961 L1609.93,657.373 L1614.07,659.045 L1617.31,656.781 L1621.25,658.355 L1623.91,655.896 L1627.37,657.484 L1631.2,655.206 L1634.94,656.781 L1638.48,654.348 L1641.93,655.993 L1645.28,654.025 L1648.79,655.679 L1652.23,653.521 L1655.91,655.405 L1659.06,653.14 L1662.91,654.512 L1666.25,653.039 L1669.79,654.45 L1673.24,652.349 L1676.89,654.025 L1680.23,651.858 L1683.78,653.335 L1687.52,651.663 L1690.64,653.313 L1693.92,651.464 L1696.77,653.211 L1696.76,656.153 L1696.77,657.281 L1699.56,658.807 L1702.41,664.021 L1708.86,692.675 L1719.6,732.814 L1803.98,708.394 L1811.26,709.12 L1815.2,715.816 L1816.39,726.251 L1814.81,737.277 L1817.17,746.928 L1812.45,748.109 L1808.9,731.373 L1809.1,724.875 L1803.06,722.84 L1796.69,724.676 L1721.08,745.814 L1730.13,777.058 L1639.74,803.052 L1637.31,795.569 L1584.01,812.044 L1583.82,869.22 L1679.13,840.599 L1672.43,813.491 L1734.46,793.6 L1746.28,830.426 L1756.91,826.685 L1761.64,826.879 L1764.79,829.241 L1765.74,834.695 L1904.05,785.219 L1921.25,771.662 L1934.05,767.527 L1967.52,745.668 L1984.86,731.687 L1999.03,726.764 L2059.29,687.579 L2141.41,634.408 L2226.28,580.055 L2247.94,560.956 L2277.29,533.186 L2284.97,530.824 L2320.02,493.805 L2380.87,433.939 L2435.81,376.044 L2477.56,335.675 L2498.43,312.438 L2505.13,311.452 L2509.26,314.601 L2511.43,318.149 L2507.69,326.023 L2503.36,328.978 L2498.43,329.172 L2469.68,357.731 L2422.42,406.367 L2368.46,461.112 L2318.55,511.193 L2264.29,564.892 L2195.76,609.793 L2145.06,643.454 L2124.87,656.856 L1932.64,779.933 L1929.75,780.88 L1749.02,846.937 L1748.72,850.524 L1730.11,856.195 L1734.25,873.621 L1732.48,876.77 L1728.64,875.297 L1721.84,854.027 L1581.29,893.52 L1579.97,971.017 L1579.53,992.795 L1644.59,1022.18 L1685.93,1040.92 L1690.88,1043 L1695.46,1045.14 L1698.29,1043.79 L1700.33,942.888 L1774.21,928.677 L1774.28,942.069 L1774.35,943.927 L1774.76,944.666 L1774.91,945.316 L1774.96,945.847 L1774.67,946.612 L1774.29,947.324 L1774.66,1010.13 L1892.82,1026.31 L1915.82,891.64 L1991.47,849.6 L2006.65,921.853 L2007.43,925.364 L2020.25,983.286 L2022.02,984.126 L2166.01,881.104 L2165.24,849.821 L2163.46,794.436 L2161.87,741.532 L2202.8,715.569 L2242.04,689.72 L2256.02,807.825 L2271.57,806.697 L2362.16,762.484 L2431.67,725.954 L2418.42,614.778 L2654.79,630.644 L2855.85,643.348 L2855.75,659.988 L2856.07,661.982 L2858.68,665.304 L2859.16,668.591 L2858.48,671.306 L2853.98,679.578 L2813.51,753.528 L2794.31,786.904 L2788.53,796.776 L2777.37,819.104 L2777.25,819.497 L2777.22,819.732 L2777.25,819.78 L2777.27,819.829 L2777.55,819.993 L2777.79,820.081 L2778.2,820.152 L2784.68,817.184 L2799.84,799.072 L2805.63,793.937 L2818.24,787.298 L2820.8,784.445 L2822.77,782.866 L2831.24,782.786 L2841.08,781.981 L2845.39,784.654 L2824.47,793.689 L2804.86,822.222" vector-effect="none"/>
   <path fill-rule="evenodd" d="M214.899,1473.72 L221.169,1475.97 L219.796,1478.52 L217.263,1481.44 L212.957,1486.2 L208.666,1486.25 L206.195,1483.56 L204.286,1483.11 L201.309,1484.74 L198.49,1484.29 L197.363,1480.14 L198.064,1478.3 L201.147,1479.54 L200.876,1477.27 L200.321,1476.36 L199.444,1475.82 L198.813,1474.67 L196.555,1474.54 L194.554,1470.93 L200.553,1468.02 L204.488,1469.38 L210.472,1472.8 L214.899,1473.72" vector-effect="none"/>
   <path fill-rule="evenodd" d="M184.166,1458.26 L184.874,1454.86 L187.521,1452.41 L191.229,1452.09 L199.007,1454 L205.299,1455.27 L210.993,1457.33 L211.243,1458.2 L210.516,1459.14 L208.324,1461.28 L202.653,1460.4 L200.189,1460.98 L195.281,1459.75 L189.661,1460.94 L186.603,1460.89 L184.166,1458.26" vector-effect="none"/>
   <path fill-rule="evenodd" d="M193.879,1474.06 L189.98,1474.15 L187.165,1473.18 L187.763,1471.65 L189.404,1470.28 L192.748,1471.19 L193.967,1472.96 L193.879,1474.06" vector-effect="none"/>
  </g>
  <g fill="none" font-weight="400" stroke-opacity="1" stroke-linejoin="bevel" stroke-linecap="square" font-size="34.5833" font-style="normal" transform="matrix(0.999744,0,0,0.999744,0,0)" stroke="#000000" font-family="MS Shell Dlg 2" stroke-width="1"/>
  <g fill="none" font-weight="400" stroke-opacity="1" stroke-linejoin="bevel" stroke-linecap="square" font-size="34.5833" font-style="normal" transform="matrix(11.808,0,0,11.808,0,0)" stroke="#000000" font-family="MS Shell Dlg 2" stroke-width="1"/>
  <g fill="none" font-weight="400" stroke-opacity="1" stroke-linejoin="bevel" stroke-linecap="square" font-size="34.5833" font-style="normal" transform="matrix(11.808,0,0,11.808,0,0)" stroke="#000000" font-family="MS Shell Dlg 2" stroke-width="1"/>
  <g fill="none" font-weight="400" stroke-opacity="1" stroke-linejoin="bevel" stroke-linecap="square" font-size="34.5833" font-style="normal" transform="matrix(11.808,0,0,11.808,0,0)" stroke="#000000" font-family="MS Shell Dlg 2" stroke-width="1"/>
  <g fill="none" font-weight="400" stroke-opacity="1" stroke-linejoin="bevel" stroke-linecap="square" font-size="34.5833" font-style="normal" transform="matrix(1,0,0,1,0,0)" stroke="#000000" font-family="MS Shell Dlg 2" stroke-width="1"/>
  <g fill="none" font-weight="400" stroke-opacity="1" stroke-linejoin="bevel" stroke-linecap="square" font-size="34.5833" font-style="normal" transform="matrix(11.808,0,0,11.808,0,0)" stroke="#000000" font-family="MS Shell Dlg 2" stroke-width="1"/>
  <g fill="none" font-weight="400" stroke-opacity="1" stroke-linejoin="bevel" stroke-linecap="square" font-size="34.5833" font-style="normal" transform="matrix(11.808,0,0,11.808,0,0)" stroke="#000000" font-family="MS Shell Dlg 2" stroke-width="1"/>
  <g fill="none" font-weight="400" stroke-opacity="1" stroke-linejoin="bevel" stroke-linecap="square" font-size="34.5833" font-style="normal" transform="matrix(11.808,0,0,11.808,0,0)" stroke="#000000" font-family="MS Shell Dlg 2" stroke-width="1"/>
  <g fill="none" font-weight="400" stroke-opacity="1" stroke-linejoin="bevel" stroke-linecap="square" font-size="34.5833" font-style="normal" transform="matrix(11.808,0,0,11.808,0,0)" stroke="#000000" font-family="MS Shell Dlg 2" stroke-width="1"/>
  <g fill="none" font-weight="400" stroke-opacity="1" stroke-linejoin="bevel" stroke-linecap="square" font-size="34.5833" font-style="normal" transform="matrix(1,0,0,1,0,0)" stroke="#000000" font-family="MS Shell Dlg 2" stroke-width="1"/>
 </g>
</svg>
