<?xml version='1.0' encoding='UTF-8' standalone='no'?>
<svg xmlns:xlink="http://www.w3.org/1999/xlink" width="249.936mm" height="249.936mm" viewBox="0 0 2952 2952" xmlns="http://www.w3.org/2000/svg" version="1.2" baseProfile="tiny">
 <title>Qt SVG Document</title>
 <desc>Generated with Qt</desc>
 <defs/>
 <g fill="none" fill-rule="evenodd" stroke-linejoin="bevel" stroke-linecap="square" stroke="black" stroke-width="1">
  <g fill="none" font-weight="400" stroke-opacity="1" stroke-linejoin="bevel" stroke-linecap="square" font-size="34.5833" font-style="normal" transform="matrix(1,0,0,1,0,0)" stroke="#000000" font-family="MS Shell Dlg 2" stroke-width="1"/>
  <g fill="none" font-weight="400" stroke-opacity="1" stroke-linejoin="bevel" stroke-linecap="square" font-size="34.5833" font-style="normal" transform="matrix(1,0,0,1,0,0)" stroke="#000000" font-family="MS Shell Dlg 2" stroke-width="1"/>
  <g fill="none" font-weight="400" stroke-opacity="1" stroke-linejoin="bevel" stroke-linecap="square" font-size="34.5833" font-style="normal" transform="matrix(11.808,0,0,11.808,0,0)" stroke="#000000" font-family="MS Shell Dlg 2" stroke-width="1"/>
  <g fill="none" font-weight="400" stroke-opacity="1" stroke-linejoin="bevel" stroke-linecap="square" font-size="34.5833" font-style="normal" transform="matrix(0.999744,0,0,0.999744,0,0)" stroke="#000000" font-family="MS Shell Dlg 2" stroke-width="1"/>
  <g fill="#ffffff" font-weight="400" fill-opacity="0" font-size="34.5833" font-style="normal" transform="matrix(0.999744,0,0,0.999744,0,0)" stroke="none" font-family="MS Shell Dlg 2">
   <path fill-rule="evenodd" d="M-2,-2 L2955,-2 L2955,2955 L-2,2955 L-2,-2" vector-effect="none"/>
  </g>
  <g fill="none" font-weight="400" stroke-opacity="1" stroke-linejoin="bevel" stroke-linecap="square" font-size="34.5833" font-style="normal" transform="matrix(0.999744,0,0,0.999744,0,0)" stroke="#000000" font-family="MS Shell Dlg 2" stroke-width="1"/>
  <g fill="none" font-weight="400" stroke-opacity="1" stroke-linejoin="bevel" stroke-linecap="square" font-size="34.5833" font-style="normal" transform="matrix(11.808,0,0,11.808,0,0)" stroke="#000000" font-family="MS Shell Dlg 2" stroke-width="1"/>
  <g fill="none" font-weight="400" stroke-opacity="1" stroke-linejoin="bevel" stroke-linecap="square" font-size="34.5833" font-style="normal" transform="matrix(11.808,0,0,11.808,0,0)" stroke="#000000" font-family="MS Shell Dlg 2" stroke-width="1"/>
  <g fill="none" font-weight="400" stroke-opacity="1" stroke-linejoin="bevel" stroke-linecap="square" font-size="34.5833" font-style="normal" transform="matrix(11.808,0,0,11.808,0,0)" stroke="#000000" font-family="MS Shell Dlg 2" stroke-width="1"/>
  <g fill="none" font-weight="400" stroke-opacity="1" stroke-linejoin="bevel" stroke-linecap="square" font-size="34.5833" font-style="normal" transform="matrix(11.808,0,0,11.808,0,0)" stroke="#000000" font-family="MS Shell Dlg 2" stroke-width="1"/>
  <g fill="none" font-weight="400" stroke-opacity="1" stroke-linejoin="bevel" stroke-linecap="square" font-size="34.5833" font-style="normal" transform="matrix(11.808,0,0,11.808,0,0)" stroke="#000000" font-family="MS Shell Dlg 2" stroke-width="1"/>
  <g fill="#ffffff" font-weight="400" fill-opacity="0" font-size="34.5833" font-style="normal" transform="matrix(11.808,0,0,11.808,0,0)" stroke="none" font-family="MS Shell Dlg 2">
   <path fill-rule="evenodd" d="M0,0 L250,0 L250,250 L0,250 L0,0" vector-effect="none"/>
  </g>
  <g fill="none" font-weight="400" stroke-opacity="1" stroke-linejoin="bevel" stroke-linecap="square" font-size="34.5833" font-style="normal" transform="matrix(11.808,0,0,11.808,0,0)" stroke="#000000" font-family="MS Shell Dlg 2" stroke-width="1"/>
  <g fill="none" font-weight="400" stroke-opacity="1" stroke-linejoin="bevel" stroke-linecap="square" font-size="34.5833" font-style="normal" transform="matrix(11.808,0,0,11.808,0,0)" stroke="#000000" font-family="MS Shell Dlg 2" stroke-width="1"/>
  <g fill="#000000" font-weight="400" fill-opacity="0" font-size="34.5833" font-style="normal" transform="matrix(0.999744,0,0,0.999744,0,0)" stroke="none" font-family="MS Shell Dlg 2">
   <rect width="2953" height="2953" x="0" y="0"/>
  </g>
  <g fill="none" font-weight="400" stroke-opacity="1" stroke-linejoin="bevel" stroke-linecap="square" font-size="34.5833" font-style="normal" transform="matrix(0.999744,0,0,0.999744,0,0)" stroke="#000000" font-family="MS Shell Dlg 2" stroke-width="1"/>
  <g fill="#c5c5c5" font-weight="400" fill-opacity="1" stroke-opacity="1" stroke-linejoin="bevel" stroke-linecap="square" font-size="34.5833" font-style="normal" transform="matrix(0.999744,0,0,0.999744,0,0)" stroke="#5c5c5c" font-family="MS Shell Dlg 2" stroke-width="3.07087">
   <path fill-rule="evenodd" d="M669.968,1530.64 L693.439,1486.23 L679.539,1481.73 L595.284,1471 L644.384,1455.68 L644.856,1456.06 L651.085,1439.57 L668.291,1409.22 L695.397,1365.95 L717.959,1339.11 L729.335,1323.74 L750.056,1321.18 L775.981,1300.27 L781.747,1299.72 L785.8,1293.77 L788.578,1284.45 L804.712,1257.25 L813.042,1246.76 L838.196,1222.34 L847.49,1207.47 L846.519,1205.76 L852.439,1197.99 L866.608,1165.22 L882.734,1157.83 L898.008,1134.24 L912.654,1114.14 L927.867,1098.42 L936.783,1080.08 L936.624,1074.38 L972.852,1058.3 L985.085,1039.38 L1006.2,1015.9 L1003.69,1011.2 L1029.46,1000.92 L1029.83,1000.91 L1028.31,988.529 L1024.71,972.461 L1029.77,962.433 L1036.92,962.21 L1039.43,956.291 L1035.59,947.424 L1038.3,933.006 L1036.96,917.76 L1050.8,902.075 L1066.71,895.765 L1088.02,845.314 L1096.94,836.269 L1101.57,825.796 L1106,809.49 L1118.35,788.472 L1137.85,782.043 L1141.46,782.843 L1159.64,777.815 L1161.72,772.813 L1174.43,763.898 L1183.72,760.031 L1190.02,761.197 L1193.84,754.345 L1220.8,735.366 L1226.15,734.756 L1230.08,715.776 L1237.41,706.127 L1255.01,695.727 L1269.64,675.046 L1277.4,665.868 L1277.73,661.815 L1301.38,660.229 L1307.75,663.2 L1315.46,658.702 L1320.7,654.048 L1331.35,636.234 L1335.71,615.904 L1335.65,613.62 L1340.82,607.185 L1347.56,607.893 L1353.26,603.686 L1357.06,595.944 L1363.25,593.053 L1365.14,580.861 L1365.56,580.657 L1356.05,577.328 L1363.72,565.036 L1368.99,548.014 L1368.25,539.497 L1371.08,533.884 L1382.51,530.011 L1382.32,523.471 L1399.91,524.977 L1411.97,508.526 L1414.13,496.385 L1425.78,473.638 L1433.74,454.833 L1439.46,426.427 L1438.7,416.899 L1442.61,413.257 L1442.92,380.281 L1465.11,367.049 L1477.46,342.526 L1477.15,331.445 L1498.45,293.765 L1512.85,272.773 L1517.74,268.086 L1517.99,259.03 L1521.47,239.786 L1515.91,239.212 L1513.91,238.992 L1528.55,223.967 L1533.14,201.639 L1536.61,180.664 L1545.49,174.862 L1550.94,174.214 L1558.02,175.018 L1574.8,164.969 L1575.59,137.567 L1590.95,115.161 L1609.1,100.005 L1630.05,103.702 L1633.82,95.0178 L1638.14,88.3611 L1646.18,88.1278 L1652.62,84.9221 L1653.52,81.874 L1658.34,74.6871 L1666.74,69.9236 L1666.88,74.9694 L1666.46,77.9985 L1673.07,81.3297 L1672.5,82.4312 L1671.78,82.7476 L1671.67,83.0015 L1671.58,83.2226 L1671.61,83.7371 L1671.78,84.4891 L1671.94,85.3994 L1671.68,85.9931 L1671.29,86.3098 L1671.24,86.3127 L1670.57,86.3493 L1670.22,86.5251 L1670.02,86.6264 L1669.72,87.4971 L1669.76,89.0011 L1669.89,90.1489 L1670.24,90.9009 L1670.86,91.6529 L1671.29,92.1674 L1671.22,92.7611 L1671.22,93.4339 L1671.65,94.4036 L1671.71,94.5421 L1671.86,94.8086 L1672.23,95.492 L1672.76,96.6397 L1672.92,97.55 L1672.95,98.4603 L1673.08,99.0144 L1673.41,99.3706 L1674.09,99.6872 L1675.2,100.518 L1675.59,100.993 L1676.18,101.31 L1676.51,101.706 L1677.29,101.983 L1678.1,102.101 L1678.5,102.458 L1678.46,102.814 L1678.1,103.922 L1677.81,104.634 L1677.97,105.624 L1677.78,106.692 L1677.97,107.365 L1678.2,108.078 L1678.33,108.632 L1678.89,109.225 L1679.31,109.898 L1679.28,110.769 L1679.18,111.916 L1678.95,112.866 L1678.59,113.262 L1677.75,113.579 L1677.19,113.856 L1676.83,114.528 L1676.6,115.439 L1676.73,116.547 L1677,118.011 L1677.35,118.763 L1677.88,119.198 L1678.3,119.713 L1678.3,120.148 L1678.2,120.781 L1678.17,121.692 L1678.17,122.879 L1678.3,123.749 L1678.27,124.462 L1678.14,125.055 L1677.71,126.005 L1677.52,126.797 L1677.55,127.43 L1677.71,127.746 L1678.23,128.103 L1678.59,128.855 L1678.89,129.963 L1678.92,131.189 L1678.82,131.941 L1678.56,132.416 L1678.07,132.654 L1678.05,132.666 L1677.35,133.01 L1677.19,133.255 L1676.9,133.683 L1676.73,134.514 L1676.67,135.542 L1676.8,136.651 L1676.54,137.719 L1676.25,137.917 L1675.78,138.321 L1675.66,138.431 L1675.65,138.443 L1675.21,139.412 L1675.2,139.421 L1675.18,139.492 L1675.14,139.67 L1675.04,140.054 L1675.16,140.262 L1675.36,140.608 L1675.5,141.439 L1675.92,141.795 L1676.18,142.191 L1676.64,142.428 L1676.77,142.982 L1676.41,143.774 L1676.25,144.189 L1676.05,144.723 L1676.09,145.005 L1676.15,145.475 L1676.34,146.346 L1676.11,147.018 L1675.72,147.968 L1675.33,148.522 L1675.17,148.665 L1674.84,148.958 L1674.48,149.195 L1674.32,149.63 L1674.41,149.687 L1676.95,151.309 L1677.48,151.648 L1679.93,152.519 L1682.05,152.717 L1684.17,152.519 L1685.52,152.225 L1686.71,151.965 L1687.34,152.157 L1688.64,152.559 L1691.08,153.864 L1693.24,153.825 L1694.31,153.231 L1695.32,152.559 L1695.35,152.501 L1695.84,151.53 L1696.99,150.976 L1697.83,150.224 L1698.45,149.551 L1698.93,149.489 L1699.13,149.463 L1699.37,149.432 L1700.25,149.432 L1701.06,149.353 L1702.11,149.393 L1703.64,149.947 L1704.01,150.662 L1704.09,150.817 L1704.45,151.688 L1704.94,152.084 L1705.95,152.756 L1706.9,153.231 L1707.78,153.389 L1708.37,153.389 L1709.15,153.152 L1710.55,153.073 L1710.91,152.163 L1711.26,151.911 L1711.4,151.807 L1711.79,151.915 L1712.67,152.163 L1713.39,152.717 L1714.24,152.717 L1715.35,152.717 L1716.39,152.598 L1717.24,152.282 L1717.96,151.98 L1718.08,151.925 L1718.31,152.074 L1718.8,152.4 L1719.08,152.279 L1719.62,152.044 L1720.24,152.321 L1720.76,152.4 L1721.51,152.44 L1722.72,152.875 L1723.07,153.342 L1723.4,153.785 L1724.12,153.785 L1724.89,153.39 L1724.97,153.35 L1725.19,153.38 L1725.85,153.469 L1726.1,153.469 L1726.76,153.469 L1727.9,153.389 L1728.65,153.389 L1729.63,153.983 L1729.92,154.854 L1730.18,156.08 L1729.99,157.505 L1730.45,158.449 L1730.51,158.573 L1731.42,159.048 L1732.47,159.325 L1734.16,159.483 L1734.91,160.631 L1735.79,161.264 L1737.16,161.778 L1738.08,161.541 L1739.31,161.145 L1740.49,160.631 L1740.67,160.465 L1741.04,160.117 L1741.83,160.156 L1742.35,160.829 L1742.93,161.897 L1743.13,162.807 L1743.4,163.415 L1743.52,163.678 L1744.24,164.35 L1744.93,164.64 L1745.09,164.707 L1746.2,165.498 L1746.62,165.812 L1746.78,165.933 L1746.84,165.937 L1748.22,166.012 L1749.1,167.19 L1749.16,167.279 L1749.68,167.872 L1750.89,168.545 L1752.07,168.822 L1753.34,168.782 L1754.25,169.297 L1754.54,170.088 L1754.97,170.919 L1755.75,171.394 L1756.5,171.038 L1757.35,170.365 L1758.52,169.455 L1759.21,169.692 L1760.45,170.167 L1761.39,170.009 L1763.35,170.128 L1764.26,171.275 L1765.31,171.79 L1766.12,172.225 L1766.94,172.818 L1767.62,172.541 L1768.37,172.541 L1769.48,173.016 L1770.26,172.304 L1771.24,171.552 L1771.99,171.315 L1772.9,171.513 L1773.78,172.067 L1774.53,172.897 L1775.51,172.897 L1776.56,172.106 L1777.37,171.473 L1777.8,170.761 L1777.93,169.613 L1777.66,168.189 L1777.6,166.527 L1777.8,165.577 L1778.68,164.786 L1779.62,164.192 L1780.67,163.836 L1781.35,163.361 L1781.51,162.609 L1781.71,161.66 L1782.39,161.027 L1783.5,160.631 L1784.02,160.71 L1784.9,161.224 L1785.56,161.264 L1786.05,160.196 L1786.6,159.483 L1787.25,159.444 L1787.87,160.117 L1788.62,160.75 L1789.37,161.224 L1790.51,161.027 L1791.23,160.789 L1792.05,160.75 L1792.89,160.829 L1793.35,160.235 L1793.68,159.009 L1794.36,158.375 L1794.98,157.821 L1795.73,157.505 L1796.12,157.149 L1796.94,157.07 L1798.18,157.624 L1799.09,158.494 L1799.55,159.721 L1799.45,160.789 L1799.64,160.973 L1800.1,161.422 L1800.33,162.53 L1801.08,163.243 L1801.89,163.48 L1802.91,163.559 L1803.85,163.084 L1805.03,162.491 L1805.81,162.372 L1806.26,162.372 L1807.34,162.57 L1808.03,162.788 L1808.09,162.807 L1808.16,162.794 L1808.94,162.649 L1809.33,161.541 L1810.6,160.552 L1811.38,159.721 L1811.77,159.057 L1812.13,158.415 L1812.13,157.736 L1812.13,157.426 L1812.26,155.724 L1812.62,154.616 L1812.98,153.587 L1813.44,152.796 L1813.88,152.707 L1814.22,152.638 L1815.33,153.231 L1816.11,153.192 L1816.99,152.796 L1818,152.202 L1818.53,151.688 L1819.15,151.134 L1819.44,150.422 L1819.77,149.155 L1820.42,148.087 L1820.94,147.098 L1821.66,146.623 L1822.28,145.99 L1823.25,145.475 L1824.72,145.475 L1825.64,146.464 L1826.32,146.821 L1827.4,146.821 L1829.03,146.544 L1830.17,146.741 L1831.57,147.335 L1832.84,148.443 L1833.98,149.986 L1834.83,151.174 L1835.71,152.717 L1836.82,153.825 L1838.39,155.012 L1838.94,156.199 L1838.32,157.703 L1838.13,158.771 L1838.65,159.958 L1839.07,161.106 L1839.43,162.689 L1839.98,163.52 L1840.8,164.192 L1840.9,165.181 L1840.38,166.408 L1839.85,167.437 L1839.72,168.624 L1839.85,169.692 L1840.57,171.038 L1841.22,171.908 L1842.04,171.908 L1843.54,171.315 L1844.91,171.077 L1846.41,171.196 L1847.84,171.473 L1849.34,171.433 L1850.91,170.84 L1852.08,170.444 L1853.55,169.851 L1855.12,169.297 L1856.62,168.664 L1858.6,167.793 L1859.75,166.843 L1861.41,165.854 L1862.55,165.3 L1863.86,164.43 L1865.29,163.559 L1866.79,162.649 L1868.42,161.818 L1870.08,161.066 L1870.96,160.235 L1871.29,159.947 L1871.94,159.365 L1873.44,159.088 L1874.77,159.279 L1874.81,159.286 L1874.92,159.253 L1875.76,159.009 L1876.64,158.732 L1877.85,158.652 L1879.22,158.652 L1880.75,158.375 L1882.18,158.138 L1883.75,158.178 L1884.5,158.336 L1885.87,158.89 L1887.37,158.771 L1888.7,158.494 L1890.24,158.494 L1892,158.929 L1892.12,158.912 L1893.34,158.732 L1894.61,158.138 L1896.14,157.188 L1896.85,156.702 L1897.18,156.476 L1898.11,156.274 L1898.46,156.199 L1899.69,155.724 L1900.9,155.091 L1902.43,153.627 L1903.22,152.4 L1903.64,150.817 L1903.67,149.749 L1904.19,148.127 L1905.3,146.464 L1905.47,146.31 L1906.84,145 L1907.91,144.248 L1909.12,143.971 L1910.16,143.615 L1910.95,142.982 L1911.81,142.441 L1911.89,142.389 L1913,141.795 L1914.01,140.766 L1914.89,139.935 L1915.74,139.223 L1917.21,139.302 L1918.54,139.777 L1919.49,140.608 L1920.73,143.022 L1922.29,145.594 L1923.37,146.781 L1924.38,147.85 L1925.98,149.551 L1926.63,150.184 L1928.26,151.569 L1930.12,151.728 L1931.59,151.807 L1932.76,152.163 L1934.16,152.954 L1935.18,153.587 L1936.19,153.825 L1937.62,154.695 L1938.76,155.605 L1940.07,156.713 L1941.99,157.109 L1942.84,157.861 L1943.36,158.85 L1944.14,159.8 L1945.38,160.235 L1946.49,160.631 L1947.67,161.185 L1948.55,161.224 L1949.36,160.631 L1950.37,160.196 L1951.74,160.75 L1953.05,161.383 L1954.61,161.897 L1956.05,162.253 L1957.61,162.966 L1958.72,163.638 L1960.09,164.113 L1961.17,163.243 L1973.69,158.415 L2020.84,135.859 L2036.63,136.69 L2039.53,164.232 L2034.83,190.98 L2041.23,223.265 L2046.64,235.331 L2075.17,234.817 L2080.46,241.582 L2082.61,258.992 L2082.97,261.875 L2083.59,262.667 L2084.34,264.091 L2084.47,264.842 L2084.3,266.187 L2083.78,268.284 L2083.62,268.739 L2083.2,269.945 L2082.67,271.092 L2082.61,271.804 L2082.97,272.398 L2084.08,273.703 L2084.21,273.929 L2085.74,276.472 L2086.1,277.817 L2086.07,278.727 L2085.38,279.834 L2085.22,280.234 L2085.09,280.586 L2085.15,281.733 L2085.41,282.603 L2085.61,282.999 L2085.77,283.988 L2086.29,285.253 L2086.65,286.677 L2087.34,288.062 L2087.6,289.249 L2087.83,290.237 L2088.15,290.87 L2089.16,291.622 L2089.65,292.176 L2089.95,292.65 L2090.6,293.085 L2090.79,293.244 L2091.15,293.758 L2091.64,295.182 L2091.45,295.894 L2091.54,296.25 L2090.99,297.357 L2091.15,297.871 L2091.32,298.544 L2091.84,300.284 L2092.75,301.985 L2094.32,303.33 L2095.42,304.477 L2095.95,305.545 L2096.44,306.692 L2096.7,307.245 L2097.64,307.957 L2099.11,308.432 L2099.93,308.867 L2100.84,308.748 L2103.97,307.799 L2106.09,307.72 L2106.64,307.364 L2107.23,307.285 L2108.05,307.681 L2108.73,308.313 L2109.09,308.828 L2109.12,310.054 L2109.61,311.517 L2109.94,313.218 L2110.1,314.286 L2110.46,314.879 L2111.24,314.998 L2111.99,314.839 L2112.42,314.246 L2112.84,312.941 L2113.2,312.664 L2113.62,312.704 L2114.05,313.178 L2114.31,313.811 L2114.8,314.404 L2115.22,315.116 L2115.77,315.71 L2116,316.58 L2116.17,317.331 L2116.49,317.845 L2116.92,317.964 L2117.24,317.964 L2117.8,318.518 L2118.35,318.795 L2118.94,318.755 L2119.46,318.201 L2120.08,317.727 L2120.8,317.529 L2121.94,316.936 L2122.46,316.698 L2123.24,316.303 L2123.6,316.224 L2124.42,316.382 L2125.1,316.342 L2126.11,315.472 L2127.09,314.958 L2127.61,314.998 L2127.91,315.433 L2128.26,315.828 L2128.66,315.907 L2129.08,316.066 L2130.16,317.133 L2130.97,317.41 L2131.88,317.133 L2132.73,316.422 L2133.22,316.263 L2133.45,316.698 L2133.25,317.489 L2133.61,318.28 L2134.49,318.597 L2135.83,318.992 L2137.13,319.111 L2137.35,319.225 L2137.95,319.546 L2138.67,320.1 L2139.68,320.337 L2140.53,320.377 L2141.24,320.258 L2142.32,319.546 L2146.13,318.28 L2147.28,318.399 L2147.93,318.715 L2148.45,318.518 L2149,318.518 L2149.56,318.913 L2150.02,319.586 L2150.15,320.495 L2150.41,321.326 L2151.58,321.959 L2152.66,322.591 L2153.93,323.264 L2154.48,323.541 L2154.6,323.928 L2154.68,324.174 L2154.48,324.648 L2154.61,325.044 L2154.97,325.004 L2155.27,324.767 L2155.72,324.925 L2156.37,325.202 L2156.83,325.36 L2157.06,325.281 L2157.25,325.597 L2156.93,326.191 L2156.99,326.586 L2157.42,326.863 L2158.14,327.298 L2159.05,327.298 L2160.09,327.219 L2160.42,326.863 L2160.71,326.784 L2161.1,326.547 L2161.18,326.491 L2161.59,326.191 L2162.15,326.111 L2162.9,326.032 L2163.84,326.191 L2164.53,325.953 L2164.95,326.151 L2165.41,326.823 L2165.77,327.219 L2166.68,327.219 L2167.4,327.179 L2167.89,327.693 L2168.64,328.326 L2169.48,328.88 L2170.2,329.355 L2170.98,329.79 L2171.8,330.106 L2172.39,330.62 L2172.71,331.53 L2173.27,332.321 L2174.21,333.428 L2175.03,334.18 L2175.52,334.931 L2175.58,335.294 L2175.61,335.485 L2175.78,336.157 L2184.3,344.629 L2188.79,349.089 L2189.28,349.31 L2189.93,349.604 L2190.49,349.959 L2190.69,350.081 L2190.88,350.197 L2191.14,350.434 L2191.26,350.586 L2191.77,351.199 L2192.08,351.581 L2193.68,353.519 L2193.97,353.914 L2194.04,354.036 L2194.27,354.507 L2195.93,357.948 L2196.22,358.462 L2196.45,358.739 L2196.81,359.016 L2198.31,359.846 L2202.81,362.219 L2204.74,363.208 L2210.96,364.157 L2214.1,364.671 L2217.94,364.869 L2218.33,364.829 L2218.73,364.71 L2219.64,364.354 L2224.53,361.744 L2224.86,361.626 L2225.61,361.389 L2227.59,360.825 L2228.67,360.518 L2228.76,360.518 L2229.06,360.518 L2229.29,360.479 L2229.65,360.479 L2234.64,361.112 L2236.43,361.309 L2237.02,361.468 L2237.54,361.586 L2237.93,361.784 L2238.42,362.061 L2238.72,362.338 L2238.98,362.694 L2241.72,366.767 L2242.14,367.241 L2245.43,370.405 L2245.99,370.919 L2246.18,371.196 L2246.35,371.631 L2246.84,372.857 L2247.1,373.331 L2247.49,373.924 L2249.64,376.139 L2253.13,379.896 L2253.46,380.212 L2254.47,380.884 L2256.13,381.754 L2256.59,382.031 L2256.85,382.347 L2256.95,382.664 L2256.91,383.02 L2256.69,383.573 L2254.27,388.121 L2254.27,388.146 L2254.21,388.358 L2254.17,388.793 L2250.31,389.302 L2249.97,389.346 L2249.39,389.72 L2248.57,390.256 L2246.97,390.493 L2246.25,391.126 L2245.53,392.371 L2245.47,392.47 L2245.01,393.261 L2244.53,393.416 L2244.52,393.419 L2244.44,393.403 L2244.33,393.382 L2243.55,393.228 L2243.31,393.182 L2243.16,393.273 L2243.05,393.341 L2242.99,393.38 L2243.05,393.736 L2243.3,393.99 L2243.51,394.21 L2243.52,394.221 L2243.74,394.606 L2243.74,394.622 L2243.77,395.041 L2243.66,395.246 L2243.13,396.27 L2243.03,396.448 L2242.86,396.78 L2242.3,398.125 L2242.14,399.39 L2242.11,400.458 L2242.34,400.655 L2243.17,400.462 L2243.38,400.414 L2243.71,400.339 L2243.89,400.123 L2244.66,399.221 L2244.72,399.153 L2244.8,399.002 L2244.88,398.862 L2245.11,398.441 L2245.5,397.176 L2246.48,397.057 L2246.71,396.82 L2246.69,396.773 L2246.51,396.385 L2246.32,395.91 L2246.46,395.642 L2246.47,395.623 L2246.51,395.555 L2246.67,395.463 L2247.39,395.041 L2247.41,395.024 L2247.92,394.423 L2248.07,394.253 L2248.14,394.171 L2248.21,394.169 L2249.42,394.136 L2250.7,394.102 L2250.83,394.098 L2251.08,394.092 L2251.16,394.129 L2252.09,394.54 L2252.63,394.778 L2253.49,395.159 L2253.82,395.634 L2253.75,395.95 L2251.53,397.057 L2251.08,397.69 L2250.98,399.706 L2250.52,400.853 L2251.53,402.118 L2252.21,402.589 L2252.27,402.637 L2253.23,403.305 L2255.35,402.712 L2255.48,403.186 L2255.84,403.74 L2258.67,407.14 L2258.25,407.536 L2257.89,409.987 L2257.4,411.49 L2257.66,412.636 L2257.56,412.887 L2257.53,412.953 L2257.27,413.15 L2256.78,413.229 L2253.62,413.388 L2253.36,413.585 L2253.31,413.774 L2253.26,413.981 L2253.52,414.337 L2254.21,415.088 L2254.86,416.037 L2255.09,416.076 L2255.77,415.839 L2256.29,415.602 L2259.03,415.523 L2259.36,415.641 L2259.46,415.958 L2259.39,417.381 L2259.78,419.121 L2259.78,420.94 L2260.24,421.928 L2261.71,422.086 L2263.31,421.572 L2264.67,420.663 L2264.67,420.577 L2264.67,420.142 L2264.67,420.07 L2263.63,418.528 L2263.4,417.579 L2263.56,416.68 L2263.79,415.365 L2264.77,413.071 L2264.91,412.926 L2265.21,412.6 L2265.98,411.778 L2266.18,411.569 L2266.19,411.547 L2266.89,410.066 L2267.21,410.183 L2268.12,410.52 L2271.16,411.648 L2271.17,411.652 L2271.75,412.004 L2274.75,414.06 L2280.98,416.907 L2283.33,418.602 L2283.39,418.646 L2282.76,420.98 L2282.32,422.64 L2282.35,423.075 L2284.46,426.563 L2284.5,426.633 L2284.67,432.287 L2284.65,433.087 L2284.63,434.778 L2284.7,435.252 L2284.89,435.49 L2285.32,435.806 L2288.71,437.98 L2289,438.415 L2289.17,438.89 L2289.46,440.353 L2289.52,440.629 L2289.48,440.742 L2289.39,440.985 L2288.75,442.018 L2288.12,443.041 L2288.06,445.532 L2289.46,447.469 L2290.11,450.079 L2290.17,450.102 L2291.48,450.632 L2293.4,450.05 L2293.96,449.881 L2295.04,449.209 L2296.37,448.22 L2297.91,447.39 L2299.31,446.165 L2300.64,444.82 L2301.46,443.12 L2301.62,441.381 L2301.04,438.376 L2300.74,437.704 L2300.45,436.439 L2300.58,434.106 L2302.5,431.259 L2303.91,429.875 L2305.28,427.384 L2305.93,426.435 L2305.7,425.328 L2308.34,426.08 L2308.63,426.238 L2310.59,427.78 L2312.61,428.452 L2314.11,429.322 L2314.41,429.638 L2314.5,429.994 L2314.57,432.287 L2314.63,433.908 L2314.8,434.383 L2314.99,434.62 L2315.45,434.897 L2319.53,436.715 L2321.03,437.387 L2321.22,437.585 L2321.29,437.901 L2321.06,441.697 L2320.77,442.232 L2319.88,443.884 L2319.1,445.334 L2317.86,449.881 L2317.83,450.711 L2317.9,451.027 L2318.19,451.304 L2318.84,451.502 L2321.84,452.293 L2323.41,452.806 L2324.45,452.925 L2327.81,453.123 L2330.19,453.676 L2330.71,453.913 L2331.23,454.388 L2333.7,456.906 L2334.33,457.551 L2334.82,458.381 L2335.27,459.293 L2335.54,459.844 L2336.84,462.255 L2337.17,462.809 L2337.43,463.046 L2337.92,463.283 L2340.1,464.074 L2343.07,465.616 L2343.43,465.695 L2344.73,465.537 L2345.19,465.576 L2345.19,465.576 L2345.2,465.584 L2345.94,466.13 L2346.06,466.386 L2346.07,466.406 L2346.08,466.459 L2346.15,467.001 L2346.32,468.292 L2346.37,468.66 L2346.56,468.936 L2348.42,469.925 L2348.81,470.004 L2351.12,469.208 L2351.45,469.095 L2351.47,469.102 L2362.11,475.307 L2363.26,475.973 L2364.46,476.724 L2366.49,477.91 L2369.94,480.006 L2371.9,481.271 L2373.99,482.773 L2374.61,483.287 L2375.71,484.275 L2376.37,484.947 L2376.92,485.303 L2377.8,486.093 L2378.39,486.726 L2379.07,487.635 L2381.39,490.679 L2381.88,491.391 L2382.73,492.181 L2383.28,492.616 L2384.32,493.683 L2385.53,494.711 L2386.48,495.818 L2387.26,496.767 L2387.81,497.913 L2388.24,498.664 L2389.02,499.692 L2390.19,500.996 L2390.81,501.708 L2392.67,504.387 L2392.84,504.633 L2394.73,507.361 L2399.16,526.452 L2401.18,545.108 L2399.03,561.471 L2392.22,590.716 L2391.47,592.099 L2390.94,593.245 L2390.26,594.589 L2389.44,595.853 L2388.5,597.039 L2387.26,598.224 L2385.69,599.608 L2383.97,601.307 L2382.73,602.69 L2381.72,603.954 L2380.7,605.417 L2379.56,607.076 L2378.32,608.973 L2377.15,610.83 L2376.17,612.174 L2375,613.438 L2373.95,614.466 L2372.85,615.256 L2371.74,615.888 L2370.2,616.56 L2368.57,617.35 L2367.24,618.022 L2365.8,618.931 L2364.59,619.919 L2363.36,621.104 L2362.28,622.527 L2361.24,624.068 L2360.22,625.491 L2359.34,626.755 L2358.48,627.612 L2358.27,627.822 L2357.81,628.155 L2356.9,628.81 L2354.75,630.153 L2351.75,632.01 L2349.04,633.63 L2346.46,635.211 L2344.51,636.357 L2342.13,637.819 L2339.91,639.162 L2338.7,640.071 L2337.63,641.138 L2336.58,642.758 L2335.77,644.576 L2335.11,646.709 L2334.43,648.843 L2334.05,649.964 L2333.74,650.858 L2333.22,651.855 L2333.13,652.043 L2331.89,653.861 L2330.71,654.888 L2329.54,655.797 L2327.65,656.745 L2325.62,657.733 L2323.96,658.721 L2322.4,659.787 L2321.06,660.815 L2319.72,662.158 L2318.38,663.817 L2317.18,665.358 L2315.91,666.978 L2314.96,667.966 L2313.43,669.112 L2311.15,670.534 L2308.37,672.193 L2305.34,674.05 L2305.36,674.23 L2305.54,675.986 L2306.06,678.08 L2307.98,681.834 L2310.66,685.508 L2315.35,689.103 L2317.8,690.288 L2320.99,691.355 L2326.31,694.357 L2328.36,696.135 L2330.84,699.414 L2333.06,704.352 L2335.64,711.384 L2337.04,716.48 L2339.03,722.011 L2342.16,727.422 L2346.33,735.046 L2350.41,741.801 L2354.19,748.476 L2356.15,754.875 L2357.39,761.906 L2357.26,767.041 L2358.17,773.439 L2358.27,779.956 L2358.66,786.394 L2358.92,791.252 L2359.11,793.016 L2359.54,796.979 L2361.37,800.533 L2363.39,804.72 L2366.32,810.92 L2368.21,815.146 L2369.49,817.594 L2371.15,819.371 L2374.74,821.978 L2379.5,825.018 L2382.86,826.993 L2388.3,829.283 L2389.48,829.584 L2392.31,830.31 L2398.05,831.732 L2403.34,833.825 L2408.78,836.865 L2411.78,839.353 L2414.26,841.88 L2416.09,844.526 L2417.33,847.962 L2417.75,851.555 L2417.91,854.517 L2417.95,857.399 L2417.36,859.65 L2415.73,861.545 L2413.09,862.848 L2410.8,864.467 L2409.49,865.716 L2407.9,867.231 L2406.24,869.758 L2405.23,872.009 L2405.13,875.049 L2405.75,877.497 L2406.53,880.064 L2406.5,881.604 L2405.72,883.815 L2403.89,887.921 L2408.26,891.277 L2411.65,892.699 L2415.79,893.844 L2419.94,895.146 L2421.83,896.331 L2425.35,899.095 L2427.47,901.227 L2428.61,902.332 L2429.85,903.359 L2431.09,902.885 L2432.52,901.898 L2434.87,901.622 L2437.32,901.661 L2441.52,902.727 L2443.68,902.293 L2445.63,902.372 L2446.84,902.924 L2447.69,904.662 L2448.5,906.754 L2448.99,907.939 L2449.58,908.57 L2450.39,909.281 L2451.01,909.952 L2451.8,910.663 L2453,911.729 L2454.11,912.597 L2455.25,913.94 L2455.48,915.084 L2455.97,916.032 L2456.56,916.94 L2457.67,917.848 L2458.91,919.072 L2459.79,919.625 L2461.25,920.059 L2462.95,920.414 L2464.45,920.691 L2465.46,920.572 L2467.55,919.704 L2469.08,919.625 L2470.68,919.94 L2472.24,919.309 L2473.87,918.677 L2475.5,918.164 L2476.32,918.045 L2477.75,917.769 L2479.48,917.335 L2481.47,916.98 L2482.68,916.466 L2484.05,915.598 L2485.22,914.492 L2486.3,913.229 L2487.11,911.768 L2488.48,911.018 L2489.82,910.426 L2491.29,909.913 L2493.31,909.281 L2495.07,908.689 L2496.96,909.202 L2498.33,909.794 L2499.34,910.426 L2500.55,911.531 L2501.69,912.479 L2502.9,913.466 L2504.53,914.887 L2506.06,916.19 L2507.85,916.98 L2509.26,917.69 L2510.33,918.401 L2511.21,918.598 L2512.58,918.559 L2513.59,918.48 L2514.83,918.401 L2515.91,918.401 L2516.79,919.23 L2517.51,920.256 L2518.58,921.757 L2519.37,922.941 L2519.95,924.283 L2520.34,925.468 L2520.67,926.455 L2521.29,927.876 L2521.94,929.1 L2522.46,929.889 L2523.57,930.244 L2525.2,930.363 L2526.9,930.718 L2528.43,931.231 L2529.87,931.824 L2531.24,932.495 L2532.08,933.284 L2533.13,934.705 L2533.91,936.482 L2535.28,938.14 L2535.77,939.482 L2536.13,941.022 L2536.39,942.917 L2536.71,944.654 L2537.24,946.075 L2537.69,947.457 L2538.08,948.917 L2538.61,950.022 L2539.58,951.562 L2540.5,953.141 L2541.15,954.917 L2541.48,956.536 L2541.9,958.628 L2542.32,960.365 L2542.45,960.828 L2542.85,962.299 L2543.4,963.918 L2543.95,965.339 L2544.51,966.918 L2544.64,967.905 L2544.25,969.207 L2543.46,970.391 L2543.04,971.773 L2543.14,973.194 L2543.3,974.812 L2543.56,976.391 L2543.76,978.128 L2544.38,979.944 L2544.51,981.444 L2544.21,982.983 L2543.82,984.325 L2543.3,984.996 L2542.06,985.983 L2540.92,986.891 L2539.71,987.996 L2538.64,989.259 L2537.4,991.588 L2536.16,993.561 L2535.31,994.706 L2534.14,996.048 L2532.93,997.311 L2531.82,998.298 L2531.01,999.285 L2530.62,1000.03 L2530.32,1001.42 L2529.8,1002.6 L2529.38,1003.71 L2528.66,1004.53 L2528.11,1005.68 L2527.55,1006.19 L2526.64,1006.47 L2525.53,1006.55 L2524.42,1006.51 L2523.34,1006.43 L2522.85,1006.67 L2522.24,1007.73 L2521.65,1009.47 L2521.19,1010.41 L2520.77,1011.4 L2519.99,1012.66 L2519.46,1013.3 L2519.01,1014.01 L2517.93,1015.23 L2517.31,1015.31 L2515.94,1015.35 L2514.28,1015.19 L2512.81,1014.95 L2511.28,1014.24 L2509.68,1013.26 L2508.21,1012.19 L2506.35,1010.45 L2504.95,1008.92 L2503.97,1007.57 L2503.71,1007.04 L2503.32,1006.27 L2502.83,1005.01 L2502.28,1004.26 L2501.36,1003.98 L2500.06,1004.61 L2498.59,1005.24 L2497.39,1006.35 L2496.24,1008.32 L2495.49,1009.78 L2494.58,1011.64 L2494.29,1013.41 L2493.7,1014.76 L2493.28,1015.62 L2493.19,1015.97 L2493.02,1016.73 L2492.79,1017.87 L2492.85,1019.22 L2493.08,1020.2 L2493.18,1021.07 L2493.05,1021.43 L2492.56,1021.62 L2491.68,1021.58 L2490.7,1021.11 L2489.56,1020.72 L2488.84,1020.6 L2488.46,1020.56 L2488.12,1020.52 L2486.95,1020.56 L2485.74,1020.6 L2484.9,1021.03 L2483.98,1021.54 L2483.43,1022.02 L2482.97,1022.57 L2482.74,1023.44 L2483.33,1025.18 L2483.65,1025.62 L2484.44,1026.72 L2485.39,1028.06 L2486.46,1029.12 L2487.93,1030.23 L2489.69,1031.29 L2490.93,1032.28 L2491.74,1033.27 L2492.76,1034.61 L2493.77,1036.42 L2495.14,1038.52 L2496.31,1039.9 L2497.78,1041.24 L2498.98,1042.15 L2500.35,1043.01 L2502.54,1044.16 L2504.04,1045.11 L2505.73,1046.61 L2507.17,1048.42 L2508.57,1050.24 L2509.32,1051.5 L2510.07,1053.08 L2510.33,1054.7 L2510.07,1056.35 L2509.61,1058.21 L2508.9,1060.22 L2508.51,1061.8 L2508.25,1063.5 L2508.28,1065.15 L2508.77,1066.61 L2509.45,1067.99 L2510.33,1069.89 L2510.98,1071.39 L2512,1072.77 L2513.04,1073.76 L2513.43,1074.78 L2513.69,1076.36 L2514.21,1077.82 L2514.44,1078.45 L2514.34,1079 L2513.66,1079.68 L2512.55,1080.54 L2511.34,1081.73 L2510.85,1082.71 L2509.91,1084.09 L2509.45,1085.4 L2509.61,1087.01 L2509.81,1088.83 L2509.68,1090.33 L2509.48,1092.03 L2509.29,1093.84 L2509,1094.87 L2508.25,1095.58 L2507.2,1095.85 L2505.86,1096.25 L2504.95,1096.6 L2504.53,1097 L2504.2,1097.79 L2503.94,1098.46 L2503.58,1098.85 L2502.67,1099.37 L2501.56,1100.08 L2500.97,1100.86 L2500.78,1101.73 L2501.33,1102.96 L2501.89,1104.26 L2502.44,1105.88 L2503.06,1106.78 L2504.1,1107.73 L2504.92,1108.68 L2506,1109.58 L2506.91,1110.3 L2507.2,1111.24 L2507.4,1112.7 L2507.23,1114.04 L2507.07,1115.27 L2507.07,1117.08 L2507.43,1118.38 L2507.63,1119.8 L2507.69,1121.38 L2507.79,1123.08 L2508.02,1124.81 L2507.95,1126.31 L2507.5,1127.7 L2506.91,1129.71 L2506.84,1130.93 L2506.35,1131.68 L2505.44,1132.19 L2504.01,1132.63 L2502.83,1133.53 L2502.11,1134.72 L2501.63,1136.14 L2501.89,1137.12 L2502.34,1138.27 L2503.06,1139.02 L2503.71,1139.97 L2503.74,1140.68 L2503.26,1141.11 L2501.63,1140.91 L2500.03,1140.99 L2498.89,1142.02 L2497.81,1143.08 L2496.51,1144.27 L2495.93,1144.82 L2495.56,1145.17 L2494.68,1146.59 L2494.22,1147.86 L2494.09,1149.04 L2493.8,1149.99 L2493.7,1151.21 L2493.41,1152.31 L2492.82,1152.95 L2491.68,1153.46 L2490.34,1154.01 L2489.14,1154.25 L2488.29,1155 L2487.67,1155.94 L2487.24,1157.76 L2486.79,1159.49 L2486.62,1160.6 L2486.95,1161.15 L2487.67,1161.74 L2488.06,1162.37 L2488.06,1163.4 L2487.77,1164.74 L2487.86,1166 L2487.9,1168.05 L2487.93,1169.67 L2487.96,1171.41 L2488.35,1172.87 L2489.17,1173.93 L2490.02,1174.6 L2490.86,1175.35 L2491.35,1176.06 L2491.42,1176.89 L2491.09,1177.8 L2490.34,1178.63 L2489.27,1179.34 L2488.48,1180.13 L2487.57,1181.7 L2486.95,1183.79 L2486.69,1185.69 L2486.75,1187.19 L2486.92,1188.96 L2487.18,1190.34 L2487.73,1191.61 L2488.91,1193.58 L2489.49,1195.04 L2489.92,1196.62 L2489.92,1198.04 L2489.53,1199.69 L2488.91,1200.99 L2488.06,1203.28 L2487.24,1205.25 L2486.59,1206.87 L2485.81,1208.69 L2485.16,1211.05 L2484.57,1213.1 L2483.92,1214.56 L2482.81,1216.26 L2481.7,1217.99 L2481.02,1219.89 L2480.72,1221.31 L2480.23,1223.24 L2479.84,1224.78 L2479.68,1226.95 L2480.13,1229.16 L2480.36,1231.05 L2480.66,1232.47 L2481.47,1234.25 L2482.84,1235.82 L2484.15,1236.77 L2485.29,1237.99 L2486.59,1239.49 L2488.09,1241.46 L2489.27,1243.04 L2490.31,1244.54 L2491.22,1245.6 L2492.14,1246.31 L2493.6,1247.06 L2495.27,1247.46 L2496.64,1248.09 L2498.23,1249.75 L2499.11,1250.81 L2500.06,1252.31 L2501.33,1253.73 L2502.67,1254.6 L2504.07,1255.03 L2505.64,1255.58 L2506.81,1256.17 L2507.82,1257 L2508.83,1257.55 L2509.88,1258.07 L2511.64,1258.78 L2513.79,1259.45 L2516.2,1260.08 L2518.32,1260.55 L2520.15,1260.71 L2522.46,1260.67 L2524.91,1260.63 L2526.25,1260.43 L2528.14,1260.32 L2530.09,1260.04 L2531.5,1260.2 L2532.51,1260.91 L2534.2,1262.21 L2535.02,1262.96 L2535.67,1263.59 L2537.24,1264.46 L2539,1265.13 L2540.76,1266.23 L2542.29,1267.49 L2543.43,1268.72 L2543.95,1269.23 L2545.29,1269.35 L2546.6,1268.99 L2547.9,1268.24 L2548.49,1268.32 L2549.53,1268.95 L2550.64,1269.82 L2551.91,1270.49 L2553.02,1271.12 L2555.11,1271.99 L2556.8,1272.78 L2558.04,1273.53 L2558.79,1274.39 L2559.71,1275.66 L2560.52,1277.19 L2561.69,1278.26 L2562.8,1279.21 L2564.01,1280.31 L2565.41,1281.73 L2566.36,1282.76 L2567.34,1284.18 L2568.15,1285.32 L2568.93,1286.42 L2570.27,1287.61 L2570.83,1288.79 L2571.28,1290.41 L2571.58,1291.43 L2572.49,1292.85 L2573.11,1294.55 L2573.7,1295.73 L2574.35,1296.79 L2575.26,1298.1 L2576.89,1299.4 L2578.62,1300.7 L2580.38,1301.61 L2581.36,1302.28 L2582.04,1303.14 L2582.7,1303.58 L2583.84,1304.37 L2584.68,1304.96 L2586.19,1306.1 L2587.39,1307.09 L2588.4,1308.19 L2589.22,1309.33 L2590.16,1310.32 L2591.27,1311.31 L2592.48,1312.53 L2593.85,1313.83 L2595.51,1315.13 L2598.77,1317.18 L2601.77,1319.51 L2605.3,1322.58 L2609.27,1324.28 L2611.95,1326.29 L2614.39,1330.08 L2614.78,1332.48 L2614.78,1335.71 L2615.18,1337.69 L2614.98,1343.72 L2614.98,1343.84 L2613.94,1347.11 L2613.12,1350.15 L2612.83,1352.87 L2612.37,1355.7 L2611.88,1357.87 L2611.59,1360.32 L2612.11,1362.72 L2612.11,1363.04 L2612.08,1364.34 L2611.65,1365.64 L2609.6,1366.39 L2608.03,1367.06 L2606.01,1366.78 L2602.82,1366.31 L2599.36,1365.92 L2594.6,1366.7 L2592.48,1367.06 L2590.88,1367.85 L2589.58,1368.56 L2588.01,1369.35 L2586.22,1369.82 L2584.42,1370.29 L2582.6,1370.41 L2579.86,1369.86 L2578.06,1369.86 L2575.52,1371.51 L2573.7,1372.74 L2569.98,1375.61 L2567.69,1376.52 L2565.48,1377.47 L2563.88,1377.86 L2561.34,1378.22 L2559.44,1378.3 L2558.14,1378.34 L2556.64,1378.53 L2555.3,1378.97 L2554.42,1380.39 L2553.15,1382.12 L2552.01,1383.82 L2550.74,1385.75 L2549.63,1388.31 L2548.85,1389.73 L2548.55,1390.4 L2548.26,1391.58 L2547.61,1392.61 L2546.5,1393.83 L2545.42,1395.05 L2544.83,1396.79 L2543.04,1399.35 L2542.39,1400.06 L2540.89,1399.66 L2539.71,1399.15 L2538.34,1398.72 L2536.23,1398.32 L2534.63,1397.85 L2533.13,1397.65 L2531.56,1397.53 L2530.19,1397.34 L2529.21,1397.02 L2527.55,1397.65 L2526.08,1397.93 L2524.78,1398.24 L2523.41,1398.36 L2521.52,1398.44 L2519.92,1398.56 L2518.45,1398.7 L2518.26,1398.72 L2516.5,1398.8 L2514.21,1398.36 L2513.95,1400.06 L2513.79,1401.56 L2513.46,1404.32 L2512.81,1406.6 L2512.16,1408.34 L2511.28,1410.03 L2510.63,1411.65 L2510.4,1412.99 L2509.75,1415.08 L2509.68,1417.52 L2509.52,1419.22 L2509.09,1421.34 L2508.83,1423.47 L2508.83,1425.17 L2507.43,1425.92 L2505.7,1426.39 L2503.45,1426.78 L2501.2,1428.05 L2499.28,1429.39 L2497.09,1430.57 L2495.79,1431.48 L2494.87,1432.82 L2494.45,1434 L2494.58,1435.22 L2495.01,1436.8 L2495.2,1438.81 L2495.98,1440.62 L2496.31,1441.76 L2496.67,1443.5 L2496.77,1444.56 L2496.11,1446.22 L2495.98,1447.36 L2496.15,1448.11 L2496.83,1449.25 L2497.55,1450.36 L2498.23,1451.38 L2498.89,1452.92 L2500.09,1454.93 L2501.01,1455.76 L2501.33,1456.43 L2501.49,1457.65 L2501.33,1458.63 L2501.17,1460.25 L2501.37,1461.97 L2501.4,1462.18 L2500.97,1464.66 L2500.94,1465.81 L2500.84,1467.7 L2500.74,1469.75 L2500.71,1471.96 L2499.41,1472.67 L2498.14,1473.02 L2497.38,1473.38 L2496.57,1473.77 L2495.69,1474.75 L2495.04,1475.27 L2493.24,1476.53 L2491.29,1477.83 L2488.61,1479.56 L2487.21,1480.94 L2485.87,1483.39 L2485.84,1484.73 L2485.84,1485.95 L2485.81,1487.64 L2486.04,1489.42 L2486.07,1491.66 L2486.06,1491.77 L2485.97,1492.61 L2485.16,1495.09 L2484.73,1496.9 L2483.92,1498.44 L2482.87,1500.37 L2482.45,1501.59 L2482.16,1503.41 L2481.57,1505.02 L2481.05,1506.28 L2479.71,1506.52 L2478.41,1506.28 L2476.78,1505.81 L2475.6,1505.38 L2474.53,1504.9 L2472.73,1505.5 L2471.46,1505.97 L2470.25,1506.32 L2469.01,1506.68 L2467.35,1507.19 L2466.41,1507.62 L2464.74,1508.29 L2464.09,1509.08 L2462.49,1510.19 L2461.64,1510.62 L2460.18,1511.76 L2458.81,1512.75 L2457.27,1513.5 L2455.61,1514.21 L2454.44,1515.39 L2453.3,1516.29 L2451.83,1516.53 L2450.72,1516.33 L2449.55,1516.02 L2448.27,1515.55 L2448.11,1515.49 L2447.03,1515.15 L2446.55,1515.23 L2446.06,1515.9 L2445.37,1516.81 L2444.59,1517.87 L2444.26,1518.86 L2444.2,1520 L2444.49,1521.14 L2444.69,1523.19 L2444.39,1524.73 L2443.81,1526.11 L2442.53,1528.12 L2441.43,1529.77 L2440.06,1530.76 L2439.21,1532.02 L2438.36,1532.92 L2436.86,1534.34 L2437.15,1535.6 L2437.68,1537.1 L2438.29,1538.52 L2438.95,1539.82 L2440.15,1541.63 L2440.84,1543.05 L2441.16,1543.64 L2441.82,1545.3 L2442.34,1546.95 L2443.09,1548.25 L2443.41,1548.8 L2444.46,1550.46 L2446.48,1552.11 L2447.85,1553.41 L2449.35,1554.68 L2449.81,1555.82 L2450.39,1557.2 L2450.69,1558.42 L2451.4,1560.15 L2451.67,1561.69 L2451.67,1563.62 L2451.4,1564.17 L2450.33,1565.35 L2449.42,1566.22 L2448.44,1567.4 L2447.65,1568.94 L2446.64,1570.08 L2443.81,1571.82 L2442.01,1573.83 L2439.07,1574.43 L2438.36,1574.57 L2436.96,1576.15 L2435.85,1579.78 L2434.58,1584.7 L2434.51,1584.9 L2433.76,1587.1 L2432.49,1592.46 L2430.73,1601.21 L2429.62,1607.2 L2424.73,1608.34 L2420.69,1609.01 L2417.29,1609.64 L2414.62,1610.31 L2410.22,1612.28 L2407.09,1618.07 L2402.16,1619.49 L2399.06,1620.51 L2396.98,1621.03 L2394.53,1621.62 L2393.06,1622.09 L2391.2,1623.11 L2390.42,1623.15 L2388.92,1623 L2387.42,1623.15 L2385.34,1621.5 L2384.85,1621.03 L2384.23,1620.4 L2383.44,1618.98 L2382.69,1617.56 L2380.7,1618.31 L2377.77,1620.08 L2375.42,1621.18 L2374.21,1622.01 L2371.48,1623.15 L2368.77,1623.82 L2366.68,1625.48 L2364.5,1626.7 L2362.8,1627.53 L2360.39,1628 L2358.89,1628.16 L2356.8,1629.42 L2355.14,1630.17 L2353.96,1631.03 L2350.47,1633.71 L2348.62,1634.66 L2347.77,1636.59 L2346.92,1637.97 L2345.58,1640.96 L2344.6,1643.84 L2345.45,1645.88 L2345.71,1647.46 L2345.81,1649.63 L2345.65,1651.48 L2345.71,1653.13 L2345.19,1654.9 L2344.02,1655.73 L2341.28,1656.72 L2339.09,1657.78 L2337.2,1658.49 L2335.86,1658.13 L2334.69,1658.45 L2333.32,1659.08 L2330.94,1659.99 L2329.41,1660.38 L2327.12,1660.97 L2325.5,1662.13 L2325.46,1662.15 L2324.22,1663.37 L2323.37,1665.5 L2321.06,1666.6 L2318.61,1667.51 L2316.17,1668.73 L2313.92,1670.03 L2312.52,1671.02 L2310.26,1672.47 L2310,1674.13 L2309.84,1676.69 L2309.94,1678.11 L2307.46,1678.78 L2305.34,1679.37 L2302.96,1680.35 L2299.08,1681.61 L2295.79,1683.46 L2294.16,1684.6 L2293.11,1685.43 L2292.04,1686.46 L2290.96,1689.41 L2289.52,1691.03 L2288.06,1693.23 L2287.27,1694.02 L2285.68,1694.96 L2285.28,1696.3 L2285.28,1698.35 L2285.09,1700.01 L2284.5,1701.74 L2283.99,1702.96 L2283.69,1703.67 L2283.07,1704.85 L2282.55,1705.99 L2280.82,1706.58 L2279.51,1708.39 L2278.66,1709.62 L2277.03,1710.76 L2276.71,1711.9 L2277.07,1714.7 L2277.49,1717.37 L2277.1,1719.27 L2276.35,1720.6 L2274.91,1721.47 L2274.33,1721.79 L2272.83,1721.86 L2272.01,1722.02 L2271.36,1723.56 L2270.22,1724.9 L2268.59,1726.31 L2266.93,1727.89 L2265.43,1729.7 L2265,1730.45 L2264.94,1732.03 L2264.45,1732.81 L2262.88,1734.7 L2262.13,1735.92 L2261.58,1737.78 L2261.32,1739.27 L2257.34,1738.52 L2252.51,1739.27 L2249.18,1740.77 L2246.25,1741.99 L2246.02,1744.23 L2243.71,1748.61 L2242.79,1751.87 L2242.3,1754.08 L2241.49,1755.54 L2240.34,1756.95 L2239.96,1757.43 L2238.88,1758.92 L2237.84,1761.09 L2237.77,1762.98 L2237.09,1765.22 L2236.83,1767.04 L2237.48,1768.85 L2237.48,1770.85 L2236.89,1772.59 L2236.53,1773.93 L2236.3,1775.97 L2236.21,1777.35 L2236.4,1778.49 L2236.99,1779.4 L2238.33,1781.05 L2239.4,1782.04 L2239.54,1782.16 L2240.9,1783.38 L2242.27,1784.72 L2243.28,1786.09 L2243.58,1787.43 L2243.87,1788.97 L2244.03,1790.58 L2243.84,1791.72 L2243.8,1792.79 L2244.62,1794.32 L2245.6,1795.62 L2246.15,1796.76 L2246.67,1797.99 L2247.26,1798.93 L2247.91,1800.15 L2248.43,1801.29 L2249.09,1803.3 L2248.86,1804.52 L2248.01,1805.62 L2247.26,1806.53 L2246.9,1807.08 L2247.07,1807.95 L2247.88,1809.25 L2248.99,1810.55 L2249.67,1811.41 L2250.39,1812.55 L2250.98,1813.5 L2252.05,1814.96 L2252.84,1816.53 L2252.97,1817.63 L2252.87,1818.62 L2252.45,1819.72 L2251.92,1820.7 L2251.6,1821.61 L2251.53,1823.03 L2250.98,1824.29 L2250.82,1825.94 L2251.11,1827.59 L2251.57,1829.64 L2251.57,1832.32 L2252.15,1833.34 L2253.55,1834.29 L2254.66,1834.76 L2255.38,1834.88 L2257.24,1835.98 L2258.45,1837.56 L2260.24,1839.41 L2261.19,1841.49 L2261.51,1842.52 L2261.19,1843.15 L2258.22,1846.37 L2256.29,1848.19 L2252.51,1850.7 L2250.36,1851.81 L2249.25,1852.48 L2248.37,1852.99 L2247.07,1853.07 L2245.99,1853.82 L2245.17,1855.67 L2244.98,1857.28 L2244.29,1860.47 L2243.05,1863.34 L2242.3,1866.06 L2241.52,1868.3 L2240.45,1870.35 L2237.64,1871.57 L2236.76,1872.75 L2236.53,1874.36 L2237.15,1876.69 L2238.1,1878.97 L2239.56,1881.88 L2239.4,1883.46 L2239.43,1886.1 L2238.29,1888.18 L2236.21,1889.64 L2233.86,1890.66 L2232.13,1892.04 L2230.79,1893.54 L2229,1896.53 L2225.57,1899.32 L2223.13,1901.96 L2220.68,1905.58 L2217.36,1908.73 L2217.26,1910.15 L2215.4,1911.76 L2212.69,1912.35 L2211.03,1913.18 L2210.38,1914.63 L2210.93,1916.76 L2210.77,1919.12 L2210.25,1921.52 L2211.03,1923.49 L2212.6,1926.05 L2213.51,1927.62 L2214.1,1928.61 L2215.86,1930.02 L2216.77,1931.52 L2217.39,1933.09 L2217.72,1934.47 L2217.88,1935.57 L2217.94,1936.87 L2217.75,1938.09 L2216.97,1939.98 L2216.31,1941.36 L2215.79,1942.23 L2215.2,1944.23 L2213.22,1944.11 L2211.65,1943.92 L2209.76,1943.96 L2208.65,1944.39 L2207.05,1944.94 L2206.14,1945.45 L2204.96,1945.93 L2204.21,1946.04 L2203.24,1945.96 L2202.26,1945.37 L2201.51,1944.67 L2199.58,1944.78 L2198.44,1945.3 L2197.66,1944.59 L2197.01,1943.45 L2196.16,1942.58 L2195.28,1942.11 L2193.84,1941.95 L2192.8,1940.34 L2191.66,1939 L2190.55,1937.86 L2189.77,1936.99 L2189.12,1936.87 L2187.81,1936.95 L2187.16,1937.42 L2186.77,1938.17 L2186.12,1938.72 L2185.27,1938.64 L2184.19,1938.68 L2182.53,1939.19 L2180.44,1939.71 L2178.45,1940.18 L2177.21,1940.06 L2175.97,1940.22 L2175.71,1941.6 L2175.09,1942.97 L2174.51,1944.51 L2174.18,1945.73 L2173.92,1946.83 L2173.14,1947.26 L2172.48,1947.89 L2171.67,1949.23 L2170.27,1950.73 L2168.77,1951.91 L2168.02,1952.81 L2167.3,1953.95 L2166.32,1954.27 L2164.59,1954.62 L2163.48,1955.1 L2162.86,1955.76 L2161.79,1957.5 L2161.07,1958.56 L2160.19,1959.11 L2159.11,1959.5 L2158.43,1959.94 L2158.4,1961 L2159.18,1961.71 L2159.8,1962.34 L2160.19,1963.32 L2159.96,1964.19 L2159.77,1965.33 L2158.1,1966 L2156.73,1967.14 L2155.69,1968.24 L2154.81,1968.83 L2153.86,1969.46 L2152.98,1970.21 L2152.07,1970.88 L2151.12,1972.02 L2150.73,1973.4 L2150.47,1974.85 L2150.11,1976.31 L2150.11,1977.69 L2149.72,1980.05 L2149.33,1981.35 L2149.1,1982.6 L2147.5,1983.23 L2145.78,1983.9 L2144.41,1984.26 L2143.33,1984.45 L2142.81,1985.67 L2142.61,1984.22 L2141.7,1983.19 L2140.85,1981.9 L2140.17,1980.87 L2137.98,1978.32 L2136.16,1977.06 L2135.08,1975.88 L2134.26,1973.59 L2133.71,1973 L2129.99,1971.86 L2128.36,1970.88 L2127.61,1969.15 L2124.38,1968.04 L2123.54,1966.35 L2122.62,1964.54 L2119,1963.32 L2116.88,1962.61 L2114.37,1962.65 L2112.09,1963.83 L2110.78,1964.78 L2109.41,1965.21 L2106.41,1964.78 L2103.71,1963.91 L2100.54,1962.18 L2097.74,1961.55 L2095.1,1961.16 L2093.73,1961.16 L2090.92,1962.61 L2089.52,1963.24 L2087.76,1964.38 L2086.33,1964.54 L2083.85,1963.71 L2080.55,1962.42 L2078.47,1960.84 L2076.71,1960.13 L2074.13,1960.17 L2071.42,1960.72 L2068.81,1961.71 L2066.66,1962.57 L2065.91,1962.26 L2064.31,1960.92 L2062.94,1958.99 L2061.71,1956.59 L2060.11,1954.74 L2058.12,1952.62 L2055.48,1951.44 L2052.22,1951.36 L2049.15,1951.12 L2047.49,1950.45 L2046.15,1948.8 L2044.75,1946.28 L2043.21,1944 L2042.33,1941.83 L2041.62,1939.94 L2040.44,1939.27 L2037.67,1938.72 L2035.68,1937.97 L2033.5,1938.45 L2032.06,1939.94 L2030.43,1942.93 L2029.09,1943.45 L2028.15,1943.29 L2026.71,1942.07 L2025.34,1940.34 L2023.81,1939.55 L2021.99,1939.86 L2020.22,1941.48 L2020.29,1943.21 L2020.09,1944.51 L2019.25,1944.98 L2017.84,1944.43 L2015.92,1943.29 L2013.54,1942.78 L2010.57,1941.79 L2008.42,1940.69 L2005.65,1938.92 L2004.05,1937.03 L2002.68,1935.1 L2001.11,1933.53 L1999.42,1933.25 L1997.04,1933.96 L1994.95,1935.85 L1993.78,1937.31 L1992.7,1938.09 L1991.53,1938.25 L1990.19,1937.78 L1988.79,1935.14 L1987.12,1933.09 L1983.9,1931.13 L1981.22,1928.69 L1979.69,1927.07 L1978.22,1924.63 L1976.23,1922.35 L1974.05,1920.26 L1972.12,1919.48 L1970.17,1919.48 L1967.95,1920.14 L1966.78,1921.25 L1965.57,1923.81 L1964.36,1927.07 L1963.22,1929.59 L1962.18,1931.64 L1961.62,1934.9 L1961,1940.1 L1959.54,1943.45 L1960.22,1946.24 L1960.55,1949.74 L1963.22,1952.54 L1966.84,1955.49 L1969.71,1960.01 L1970.53,1966.67 L1970.3,1972.29 L1968.18,1974.06 L1965.24,1974.46 L1961.88,1972.88 L1957.55,1972.02 L1951.22,1970.84 L1947.21,1970.96 L1940.43,1970.25 L1936.19,1968.28 L1933.06,1964.07 L1929.6,1959.82 L1926.79,1958.01 L1921.28,1955.88 L1915.87,1956.43 L1911.17,1958.68 L1904.65,1959.15 L1900.17,1961.43 L1898.62,1962.22 L1895.55,1965.45 L1893.4,1969.66 L1893.11,1973.95 L1893.43,1978.79 L1895.59,1985.4 L1896.3,1991.58 L1897.15,1993.4 L1899.21,1997.83 L1904.13,2002.28 L1908.4,2006.37 L1908.96,2011.06 L1908.47,2016.29 L1906.87,2019.63 L1904.62,2021.92 L1901.03,2022.74 L1897.25,2021.96 L1893.76,2020.78 L1889.32,2020.42 L1881.86,2020.81 L1877.91,2022.35 L1870.15,2021.6 L1865.09,2021.48 L1856.21,2020.59 L1856.06,2020.58 L1854.01,2022.94 L1848.33,2027.58 L1847.97,2033.76 L1849.76,2037.92 L1850.62,2039.9 L1851.27,2045.01 L1850.78,2050.01 L1847.52,2054.89 L1843.67,2058.31 L1841.94,2062.25 L1843.57,2068.7 L1848.33,2077.08 L1852.8,2084.24 L1860.01,2090.38 L1868.09,2095.77 L1873.9,2100.6 L1877.49,2104.54 L1878.69,2110.32 L1879.02,2116.85 L1877.19,2122.67 L1872.79,2128.42 L1866.27,2132.67 L1858.38,2135.06 L1850.94,2133.65 L1847.16,2129.09 L1840.6,2125.78 L1833.63,2124.84 L1820.94,2123.58 L1816.54,2126.88 L1808.81,2130.9 L1801.41,2136.4 L1797.17,2138.37 L1793.19,2141.36 L1790.97,2144.47 L1785.82,2148.24 L1781.12,2158.59 L1783.7,2168.93 L1782.75,2175.7 L1779.69,2183.68 L1774.53,2192.76 L1771.11,2196.93 L1766.48,2202.95 L1761.72,2202.83 L1757.87,2199.45 L1755.95,2195.6 L1753.6,2193.04 L1749.52,2191.94 L1745.31,2190.8 L1742.9,2191.19 L1737.19,2189.85 L1730.93,2191.51 L1726.37,2193.28 L1724.97,2202.71 L1725.36,2210.46 L1722.42,2212.55 L1718.77,2212.31 L1713.55,2212.19 L1710.23,2213.84 L1705.01,2213.61 L1700.64,2214.47 L1697.96,2216.05 L1695.55,2223.87 L1694.25,2231.58 L1692.29,2237.4 L1688.96,2240.51 L1683.75,2241.61 L1680.68,2244.16 L1673.54,2245.78 L1668.91,2247.03 L1663.36,2248.25 L1664.64,2259.7 L1664.37,2265.55 L1663.23,2269.17 L1660.98,2273.62 L1658.67,2279.59 L1655.99,2283.17 L1655.44,2287.69 L1652.83,2294.26 L1650.61,2296.5 L1645.36,2299.21 L1643.05,2303.93 L1642.82,2311.01 L1641.94,2318.24 L1636.98,2323 L1634.99,2324.88 L1628.67,2329.01 L1624.92,2334.48 L1625.14,2336.87 L1622.93,2344.81 L1623.68,2350.36 L1622.76,2356.73 L1617.68,2360.38 L1613.67,2363.02 L1606.46,2364.74 L1600.91,2363.09 L1597.98,2360.62 L1595.73,2361.36 L1593.77,2360.74 L1591.36,2359.95 L1589.27,2359.24 L1587.12,2359.44 L1585,2360.03 L1582.13,2360.7 L1580.24,2360.5 L1574.17,2360.03 L1572.38,2359.44 L1571.5,2359.49 L1569.67,2359.6 L1566.05,2360.3 L1563.44,2364.82 L1562.79,2367.89 L1561.52,2371.43 L1561.55,2373.55 L1560.54,2375.71 L1560.48,2379.05 L1560.57,2380.31 L1560.71,2382.04 L1561.55,2384.71 L1563.9,2385.97 L1564.68,2386.21 L1564.46,2390.57 L1564.29,2393.71 L1563.67,2395.44 L1563.22,2400.71 L1563.31,2404.37 L1563.77,2409.2 L1564,2412.19 L1563.28,2413.68 L1560.9,2412.82 L1558.88,2414.9 L1557.12,2414.86 L1554.84,2413.68 L1553.04,2412.54 L1552,2412.66 L1551.64,2414.07 L1550.92,2415.61 L1550.43,2417.73 L1549.52,2419.69 L1548.05,2420.56 L1547.2,2420.72 L1546.32,2421.07 L1544.5,2422.17 L1543.55,2422.92 L1541.95,2422.72 L1540.91,2422.52 L1539.15,2421.97 L1538.07,2421.07 L1537.39,2420.6 L1535.89,2421.23 L1534.26,2421.78 L1533.31,2422.44 L1532.4,2424.68 L1531.75,2426.57 L1530.93,2428.81 L1529.82,2430.78 L1529.24,2432.35 L1528.52,2433.49 L1527.64,2434.31 L1526.82,2435.34 L1526.59,2436.75 L1526.11,2438.32 L1525.65,2439.93 L1524.12,2440.33 L1523.33,2440.01 L1522.84,2438.64 L1521.64,2438.13 L1520.5,2437.98 L1519.42,2437.85 L1518.41,2437.97 L1517.98,2438.44 L1517.66,2440.09 L1517.54,2441.55 L1517.5,2442.13 L1517.07,2443.43 L1515.57,2444.26 L1515.27,2444.29 L1513.75,2444.45 L1512.38,2444.41 L1510.65,2444.06 L1510,2443.86 L1508.72,2444.69 L1508.07,2445.75 L1507.68,2447.48 L1506.83,2450.07 L1506.15,2451.61 L1505.1,2452.67 L1504.94,2453.45 L1504.74,2454.79 L1503.24,2455.18 L1502.56,2455.34 L1501.48,2456.16 L1500.28,2455.73 L1499.14,2454.79 L1498.12,2454.98 L1497.15,2456.09 L1495.74,2456.32 L1494.99,2456.48 L1494.11,2456.67 L1493.04,2456.75 L1491.64,2456.95 L1490.98,2456.44 L1490.46,2455.57 L1490.1,2454.08 L1489.78,2453.1 L1488.41,2453.33 L1487.4,2453.81 L1487,2454.59 L1487,2457.11 L1486.74,2458.6 L1486.94,2459.66 L1486.09,2461.12 L1485.93,2461.86 L1486.12,2462.73 L1486.74,2464.81 L1487.14,2466.62 L1487.46,2468.78 L1487.66,2470.66 L1487.85,2472.63 L1487.33,2474.44 L1486.78,2475.69 L1486.29,2475.93 L1484.85,2476.17 L1483.91,2476.21 L1483.29,2476.91 L1482.77,2478.41 L1482.6,2480.17 L1482.11,2482.02 L1480.81,2483.91 L1479.28,2486.03 L1478.88,2486.85 L1478.66,2488.5 L1478.72,2490.43 L1479.11,2491.77 L1479.6,2493.1 L1479.41,2494.36 L1478.82,2495.77 L1478.49,2496.91 L1479.15,2498.25 L1479.63,2500.25 L1480.52,2501.98 L1481.75,2503.4 L1483.58,2504.65 L1484.59,2505.44 L1485.77,2506.11 L1486.94,2507.05 L1487.14,2508.7 L1488.9,2510.67 L1490.3,2511.37 L1491.67,2511.41 L1493.14,2511.45 L1494.37,2511.06 L1495.12,2509.6 L1495.91,2508.23 L1496.62,2506.07 L1497.02,2503.67 L1497.8,2501.71 L1498.16,2500.88 L1499.23,2500.17 L1500.93,2499.62 L1502.23,2499.78 L1503.8,2500.57 L1504.16,2501.55 L1504.09,2504.42 L1504.52,2506.23 L1505.01,2507.72 L1506.25,2508.98 L1507.94,2510 L1508.72,2510.15 L1509.44,2509.88 L1510.68,2509.33 L1512.6,2508.7 L1514.69,2510.08 L1515.77,2510.15 L1516.78,2509.53 L1518.73,2508.74 L1519.84,2509.88 L1521.44,2511.02 L1522.81,2510.7 L1524.18,2509.49 L1526.07,2508.11 L1527.61,2507.48 L1528.09,2507.29 L1529.99,2507.17 L1532.24,2507.17 L1535.2,2507.68 L1537.45,2507.91 L1539.12,2508.39 L1540.62,2510 L1541.56,2513.02 L1541.54,2513.41 L1541.4,2516.13 L1542.02,2519.66 L1543.29,2522.18 L1544.5,2523.36 L1545.77,2524.61 L1546.1,2525.75 L1546.68,2527.13 L1547.56,2528.23 L1550.2,2531.17 L1551.83,2532.2 L1553.17,2531.69 L1554.54,2531.1 L1556.63,2531.37 L1559.01,2532.12 L1560.77,2531.92 L1563.9,2531.69 L1564.55,2531.49 L1565.5,2531.96 L1568.14,2532.39 L1569.05,2531.1 L1569.9,2529.52 L1571.34,2528.82 L1572.03,2528.98 L1573,2529.21 L1574.43,2529.88 L1576.65,2529.92 L1577.79,2529.21 L1579.42,2528.97 L1580.86,2529.21 L1581.74,2530.98 L1581.97,2533.77 L1583.21,2535.97 L1583.36,2536.17 L1584.28,2537.38 L1585.52,2538.56 L1587.87,2539.82 L1588.29,2539.73 L1589.57,2539.46 L1590.77,2539.11 L1591.98,2539.74 L1592.79,2540.45 L1594.98,2540.88 L1597.39,2540.72 L1600.1,2541.78 L1601.5,2542.8 L1602.45,2544.42 L1604.01,2546.5 L1605.51,2547.68 L1607.53,2548.66 L1609.56,2548.85 L1613.27,2548.07 L1622.21,2585.08 L1625.37,2585.19 L1627.56,2585.59 L1629.81,2585.94 L1631.89,2586.61 L1634.57,2586.76 L1637.14,2585.98 L1639.43,2585.98 L1641.32,2586.72 L1645.07,2585.98 L1646.47,2587.63 L1646.67,2590.69 L1646.54,2593.76 L1646.54,2597.02 L1648.49,2601.34 L1649.6,2603.81 L1650.87,2605.74 L1652.5,2607.5 L1653.71,2608.72 L1655.47,2610.69 L1657.92,2611.12 L1661.21,2611.86 L1664.16,2613.64 L1664.8,2614.03 L1668.29,2615.95 L1668.78,2617.68 L1670.34,2620.35 L1672.07,2621.45 L1676.9,2623.29 L1677.88,2625.22 L1681.01,2626.44 L1682.34,2624.36 L1684.4,2622.82 L1687.01,2621.49 L1689.26,2620.78 L1693.99,2620.66 L1695.45,2618.86 L1697.05,2619.09 L1699.82,2619.48 L1702.33,2618.86 L1704.71,2618.31 L1708.01,2619.72 L1710.16,2621.29 L1712.12,2621.84 L1713.94,2621.29 L1716.1,2621.06 L1717.04,2619.29 L1719.1,2619.45 L1721.54,2619.17 L1723.53,2618.19 L1727.02,2617.48 L1729.43,2617.01 L1731.59,2618.15 L1734.91,2619.92 L1781.22,2625.3 L1789.47,2667.95 L1799.58,2678.48 L1819.6,2694.62 L1854.89,2712.56 L1855.35,2715.97 L1857.53,2732 L1857.62,2755.26 L1857.8,2799.99 L1857.85,2812.33 L1857.24,2812.52 L1856.84,2813.11 L1856.39,2813.74 L1855.8,2814.13 L1854.79,2814.37 L1853.62,2814.53 L1852.93,2815.11 L1852.34,2815.7 L1851.85,2816.41 L1851.59,2817.08 L1851.59,2818.53 L1851.33,2820.22 L1851.04,2821.75 L1850.68,2822.69 L1849.9,2823.79 L1848.92,2824.69 L1848.2,2825.36 L1847.71,2826.18 L1847.45,2826.85 L1847.09,2827.28 L1846.51,2827.48 L1845.43,2827.68 L1844.84,2827.87 L1844.42,2828.23 L1843.73,2828.42 L1843.02,2828.58 L1842.76,2828.89 L1842.5,2829.32 L1842.17,2829.52 L1841.42,2829.83 L1840.8,2830.31 L1840.11,2831.09 L1839.72,2832.27 L1839.23,2832.78 L1838.55,2833.29 L1838.03,2833.49 L1837.41,2833.92 L1836.92,2834.39 L1836.53,2834.7 L1835.94,2835.13 L1835.68,2835.57 L1835.39,2836 L1806.79,2839.41 L1752.91,2828.93 L1730.71,2820.37 L1729.82,2821 L1728.68,2821.39 L1727.35,2820.92 L1726.37,2819.94 L1725.45,2818.06 L1724.48,2817.08 L1723.2,2816.76 L1721.7,2817.23 L1720.3,2818.45 L1718.83,2819.59 L1717.63,2819.67 L1716.19,2818.76 L1714.69,2817.08 L1713.29,2815.51 L1711.69,2814.92 L1710.03,2815.11 L1708.4,2815.94 L1707.29,2816.96 L1706.25,2818.18 L1704.58,2818.37 L1703.25,2817.86 L1701.29,2816.49 L1699.73,2814.29 L1698.58,2813.27 L1697.28,2813.11 L1695.32,2813.39 L1693.43,2813.19 L1692.26,2812.6 L1691.31,2811.23 L1690.69,2810.76 L1689.35,2810.48 L1687.59,2810.72 L1686.16,2810.72 L1685.25,2810.13 L1684.2,2809.89 L1683,2810.32 L1681.2,2811.19 L1678.82,2812.13 L1677.09,2812.96 L1675.56,2813.54 L1674.16,2813.31 L1673.05,2812.64 L1671.97,2811.78 L1669.49,2810.95 L1666.85,2809.97 L1664.64,2809.03 L1662.78,2807.85 L1661.31,2806.32 L1660.1,2804.71 L1658.6,2803.77 L1656.87,2803.49 L1655.21,2803.49 L1652.7,2803.89 L1650.58,2804.32 L1649.11,2804.83 L1647.97,2805.26 L1645.82,2805.46 L1644.35,2805.46 L1643.18,2805.06 L1642.1,2804.51 L1641.19,2803.77 L1640.08,2803.18 L1638.81,2803.34 L1637.86,2804 L1637.05,2805.06 L1635.81,2805.93 L1634.28,2805.89 L1632.25,2805.06 L1630.39,2803.97 L1629.29,2804.24 L1628.31,2805.18 L1627.36,2805.89 L1626.12,2805.93 L1624.56,2805.22 L1623.81,2804.36 L1622.76,2803.69 L1621.13,2802.91 L1619.7,2802.47 L1617.15,2801.81 L1613.99,2800.12 L1612,2798.98 L1610.99,2798.04 L1610.66,2796.47 L1610.86,2795.09 L1610.44,2793.17 L1609.33,2791.68 L1608.19,2790.54 L1607.18,2789.36 L1606.46,2787.75 L1606.3,2785.59 L1606.43,2783.43 L1606.62,2781.23 L1606.78,2780.21 L1606.88,2778.05 L1605.71,2777.39 L1604.5,2776.6 L1603.2,2774.84 L1602.19,2773.15 L1601.24,2771.66 L1599.64,2770.71 L1597.69,2769.89 L1595.24,2769.18 L1593.32,2768.4 L1592.17,2767.53 L1590.64,2765.88 L1589.44,2765.02 L1587.9,2764.82 L1586.4,2764.39 L1584.87,2763.33 L1583.3,2762.35 L1581.93,2762.15 L1579.82,2761.96 L1577.6,2762.08 L1541.11,2764.23 L1540.58,2763.57 L1539.64,2762.7 L1538.5,2762.27 L1537.88,2761.45 L1537.16,2760.31 L1535.5,2759.29 L1534.09,2758.86 L1532.46,2758.03 L1531.09,2757.17 L1530.32,2756.39 L1530.31,2756.38 L1529.04,2754.54 L1527.7,2753.05 L1526.33,2751.04 L1525.19,2749.51 L1523.92,2748.18 L1522.29,2747 L1521.15,2746.17 L1519.29,2745.62 L1517.76,2745.39 L1515.93,2745.07 L1514.46,2744.96 L1512.8,2744.8 L1511.53,2744.41 L1510.32,2743.54 L1509.57,2742.95 L1508.56,2742.64 L1506.93,2742.25 L1505.2,2741.27 L1504.09,2740.17 L1503.21,2738.79 L1502.1,2737.18 L1501.48,2735.34 L1500.51,2733.81 L1499.66,2732.98 L1498.61,2732.71 L1497.67,2732.55 L1497.24,2732.44 L1496.4,2732.23 L1494.83,2731.49 L1493.27,2730.63 L1492.32,2730.08 L1491.5,2729.8 L1490.56,2729.84 L1489.35,2729.8 L1487.95,2729.53 L1486.71,2729.49 L1485.67,2729.72 L1483.78,2730.08 L1482.41,2730.23 L1481.04,2729.8 L1479.41,2729.13 L1478.07,2728.23 L1477.09,2727.92 L1475.66,2727.52 L1474.61,2727.41 L1472.95,2727.17 L1471.51,2727.37 L1470.73,2727.29 L1469.79,2726.5 L1468.64,2725.99 L1467.28,2725.64 L1465.84,2725.6 L1464.83,2725.21 L1463.88,2724.54 L1462.25,2723.56 L1460.82,2722.22 L1459.68,2721.24 L1458.27,2720.73 L1457,2720.3 L1455.54,2719.79 L1453.87,2719.43 L1452.34,2719.39 L1450.77,2719.43 L1449.37,2719.98 L1447.42,2720.06 L1445.65,2720.1 L1443.76,2720.65 L1442.07,2721.48 L1440.47,2721.87 L1437.96,2722.42 L1436.62,2723.16 L1435.48,2724.11 L1433.78,2725.01 L1432.19,2725.36 L1430.49,2725.44 L1429.81,2725.21 L1428.99,2724.3 L1428.01,2723.32 L1426.54,2722.46 L1424.85,2721.67 L1423.22,2721.28 L1421.88,2721.12 L1420.35,2720.46 L1419.37,2719.79 L1418.59,2719 L1417.45,2718.73 L1416.6,2718.41 L1415.59,2718.1 L1414.67,2718.02 L1414.22,2717.55 L1413.63,2717.08 L1412.36,2716.65 L1410.66,2716.76 L1409.23,2716.33 L1408.35,2715.31 L1407.14,2715 L1405.74,2715.08 L1404.99,2714.68 L1404.21,2713.66 L1403.19,2712.76 L1402.41,2712.21 L1400.94,2712.17 L1399.74,2711.62 L1398.73,2710.99 L1398.01,2710.64 L1396.93,2710.72 L1396.09,2710.68 L1395.3,2710.32 L1394.06,2710.6 L1392.92,2710.44 L1392.11,2710.21 L1390.97,2710.48 L1390.05,2710.64 L1389.34,2711.15 L1388.16,2711.35 L1387.25,2711.23 L1386.07,2711.86 L1384.77,2712.76 L1383.95,2713.35 L1382.72,2714.05 L1381.87,2714.76 L1380.69,2715.86 L1379.55,2716.61 L1378.57,2717.31 L1377.04,2718.22 L1376.94,2719 L1377.07,2720.34 L1376.88,2722.14 L1376.13,2723.4 L1375.02,2724.46 L1374.14,2725.99 L1373.58,2727.25 L1373.32,2728.47 L1372.96,2730.04 L1372.34,2730.82 L1371.2,2732.67 L1370.03,2733.61 L1368.59,2733.84 L1367.49,2734.04 L1366.7,2734.59 L1365.92,2736.04 L1365.33,2737.61 L1364.84,2740.05 L1364.22,2742.09 L1363.51,2744.21 L1362.82,2746.65 L1362.4,2747.51 L1361.71,2748.45 L1360.83,2750.18 L1360.38,2751.44 L1359.53,2753.36 L1359.5,2754.26 L1359.56,2755.4 L1359.89,2757.05 L1359.82,2758.74 L1359.59,2760.7 L1359.5,2762.94 L1359.14,2764.75 L1358.58,2766.87 L1357.83,2768.91 L1357.77,2770.52 L1357.9,2772.44 L1357.57,2775.11 L1357.28,2777.39 L1357.08,2779.9 L1357.12,2781.39 L1356.76,2783.9 L1357.41,2786.34 L1358.26,2788.54 L1359.14,2790.42 L1359.69,2791.68 L1359.82,2794.78 L1359.63,2797.1 L1359.63,2798.94 L1359.56,2800.82 L1359.59,2802.24 L1359.86,2804.16 L1360.12,2806.4 L1361.03,2808.01 L1361.32,2809.26 L1361.06,2810.21 L1358.39,2810.68 L1356.46,2810.44 L1355.81,2808.95 L1355.13,2807.66 L1353.46,2807.38 L1351.93,2807.38 L1350.01,2807.85 L1348.64,2810.32 L1347.01,2813.39 L1345.73,2814.72 L1344.36,2816.33 L1343.97,2818.61 L1341.69,2820.57 L1339.77,2822.18 L1338.23,2825.32 L1337.13,2827.64 L1336.21,2830.31 L1335.82,2831.99 L1335.1,2833.29 L1334.81,2835.06 L1335.1,2837.29 L1333.96,2837.84 L1332.04,2837.57 L1329.56,2836.9 L1326.95,2836.7 L1326.14,2837.18 L1325.55,2839.22 L1324.93,2840.75 L1324.9,2840.83 L1324.8,2840.83 L1324.34,2840.59 L1323.49,2840.55 L1323.1,2840.32 L1322.48,2840.16 L1321.54,2839.53 L1321.21,2839.22 L1320.49,2839.02 L1319.61,2838.82 L1318.8,2838.51 L1318.6,2838.51 L1317.88,2838.63 L1317.66,2838.39 L1317.27,2838.39 L1316.81,2838.23 L1316.42,2838.23 L1315.9,2838.16 L1314.79,2838.2 L1314.2,2837.88 L1314.04,2837.72 L1313.35,2837.25 L1312.9,2837.18 L1311.98,2837.14 L1310.78,2837.14 L1309.5,2837.29 L1308.26,2837.33 L1307.38,2837.49 L1306.31,2837.61 L1305.39,2837.76 L1304.81,2837.84 L1304.38,2837.88 L1303.73,2837.76 L1303.01,2837.65 L1302.46,2837.57 L1302.07,2837.61 L1301.29,2837.41 L1300.73,2837.21 L1300.34,2837.02 L1299.98,2837.06 L1299.23,2837.1 L1298.87,2836.74 L1298.42,2836.66 L1298.09,2836.63 L1296.82,2835.49 L1296.33,2835.21 L1296.2,2834.62 L1295.16,2834.07 L1294.76,2833.68 L1294.6,2832.82 L1293.82,2831.99 L1293.04,2831.64 L1292.02,2831.13 L1291.11,2831.29 L1290.82,2831.13 L1289.9,2830.89 L1288.73,2830.31 L1288.57,2828.89 L1288.57,2827.4 L1288.37,2825.87 L1287.82,2823.95 L1287.46,2822.73 L1286.68,2822.3 L1285.5,2821.98 L1284.92,2821.12 L1284.49,2820.02 L1283.74,2819.35 L1282.89,2818.53 L1282.53,2817.23 L1282.34,2815.7 L1282.34,2814.37 L1282.18,2813.47 L1281.82,2812.76 L1281.03,2812.01 L1279.67,2810.91 L1278.46,2809.7 L1277.19,2808.32 L1275.75,2807.22 L1274.22,2805.77 L1272.98,2804.32 L1271.84,2803.22 L1270.66,2802.24 L1268.58,2801.02 L1267.34,2800.31 L1265.97,2799.69 L1264.37,2798.86 L1263.72,2798.43 L1262.87,2797.72 L1261.66,2796.78 L1260.26,2796.19 L1258.5,2796.11 L1256.9,2796.39 L1255.24,2796.62 L1253.51,2797.33 L1251.62,2797.53 L1250.15,2797.57 L1248.46,2797.13 L1246.73,2797.29 L1245.36,2797.06 L1243.92,2796.47 L1243.27,2795.8 L1241.67,2794.54 L1240.47,2793.37 L1239.65,2791.83 L1238.61,2790.5 L1237.21,2789.26 L1237.11,2789.17 L1235.8,2788.58 L1234.69,2788.34 L1233.1,2787.75 L1231.69,2787.01 L1230.39,2786.3 L1230.46,2784.93 L1230.1,2782.96 L1230.19,2780.8 L1230.1,2779.47 L1229.35,2777.62 L1228.5,2775.74 L1228.01,2773.93 L1228.04,2772.56 L1228.01,2771.58 L1227.52,2770.79 L1226.38,2769.57 L1225.6,2767.77 L1224.52,2766.75 L1223.35,2765.33 L1222.11,2764.51 L1221.13,2763.25 L1221.03,2761.96 L1220.57,2760.58 L1220.22,2759.29 L1219.63,2758.46 L1218.55,2757.44 L1217.77,2756.42 L1216.33,2755.09 L1215.39,2755.09 L1213.76,2755.24 L1211.83,2755.17 L1210.86,2755.17 L1209.88,2754.69 L1209.62,2754.14 L1208.15,2752.18 L1207.73,2752.53 L1207.17,2751.51 L1205.7,2749.43 L1205.41,2750.26 L1203.52,2748.8 L1201.66,2749.43 L1200.06,2751.04 L1198.69,2751.98 L1196.77,2752.46 L1195.11,2753.56 L1193.44,2753.91 L1192.66,2754.54 L1191.84,2755.75 L1191.29,2756.38 L1190.28,2757.01 L1188.58,2757.36 L1187.31,2757.68 L1185.62,2758.07 L1184.7,2758.58 L1183.89,2759.68 L1182.97,2760.39 L1181.67,2760.74 L1180.3,2760.94 L1179.19,2761.29 L1178.41,2762.11 L1177.72,2762.9 L1177.07,2763.49 L1176.84,2764.43 L1176.35,2765.53 L1175.86,2766.67 L1175.34,2767.38 L1174.69,2767.93 L1173.75,2768.12 L1172.64,2768.24 L1171.85,2768.4 L1171.01,2768.48 L1170.19,2768.2 L1169.47,2767.73 L1169.18,2767.06 L1168.69,2766.63 L1167.78,2766.39 L1166.9,2765.61 L1166.18,2765.26 L1164.87,2764.9 L1163.64,2765.1 L1162.76,2765.22 L1161.97,2765.02 L1161.19,2765.06 L1160.73,2765.49 L1160.28,2765.96 L1159.69,2766.08 L1158.61,2765.92 L1157.83,2765.84 L1157.18,2766.24 L1156.14,2766.83 L1155.25,2767.18 L1154.05,2767.26 L1153.14,2767.34 L1152.14,2767.37 L1151.83,2767.38 L1151.15,2767.65 L1150.04,2768.75 L1149.19,2769.81 L1148.44,2771.5 L1148.28,2772.75 L1148.11,2773.97 L1147.49,2774.87 L1146.84,2775.74 L1146.38,2776.64 L1146.16,2777.47 L1145.57,2777.98 L1144.72,2778.33 L1143.97,2779.11 L1143.35,2779.94 L1142.57,2780.41 L1141.46,2780.37 L1140.71,2780.49 L1139.96,2781.2 L1139.08,2782.1 L1138.33,2782.88 L1137.51,2783.24 L1136.57,2783.12 L1135.04,2782.81 L1133.5,2782.61 L1132.85,2782.88 L1132.23,2783.63 L1131.58,2784.1 L1130.5,2784.26 L1129.17,2784.1 L1126.98,2783.94 L1125.64,2783.9 L1123.98,2783.28 L1122.94,2782.81 L1121.83,2782.53 L1121.14,2782.69 L1120.13,2783.12 L1103.73,2786.38 L1082.79,2795.29 L1081.16,2795.49 L1080.18,2795.29 L1078.06,2793.84 L1076.73,2793.6 L1074.45,2793.72 L1073.47,2795.45 L1073.24,2796.94 L1072.55,2797.92 L1071.38,2798.55 L1069.88,2798.98 L1068.61,2799.37 L1068.28,2799.8 L1068.05,2800.82 L1067.34,2801.77 L1066.75,2802.43 L1066,2803.18 L1064.69,2804.32 L1062.93,2805.22 L1061.6,2805.97 L1060.46,2806.32 L1059.05,2806.12 L1057.85,2805.61 L1056.22,2805.3 L1055.07,2804.79 L1053.7,2803.53 L1053.15,2802.16 L1052.33,2800.55 L1050.97,2799.76 L1047.97,2799.18 L1046.4,2797.88 L1045.55,2795.84 L1044.54,2794.78 L1043.37,2794.07 L1042.19,2793.4 L1039.75,2792.5 L1037.59,2791.01 L1035.74,2790.26 L1034.53,2789.48 L1032.51,2788.26 L1032.38,2787.16 L1033.29,2784.96 L1033.65,2783.47 L1034.01,2782.53 L1033.09,2780.72 L1031.92,2780.06 L1029.77,2779.63 L1027.16,2779.11 L1024.84,2778.25 L1022.89,2777.9 L1020.64,2778.33 L1018.75,2779.11 L1016.33,2780.41 L1014.96,2781.35 L1012.71,2782.53 L1010.89,2783.12 L1009.29,2784.49 L1007.17,2786.18 L1005.6,2787.75 L1004.01,2789.36 L1002.57,2790.5 L1001.33,2791.52 L999.701,2792.74 L997.679,2793.56 L995.657,2793.84 L993.505,2793.95 L991.124,2794.19 L988.418,2794.11 L986.657,2793.88 L984.113,2793.4 L981.374,2793.01 L979.45,2792.93 L975.895,2793.4 L973.906,2794.23 L971.851,2795.17 L969.406,2795.8 L967.123,2797.02 L965.362,2798.12 L963.992,2799.1 L962.753,2800.35 L955.644,2807.85 L955.024,2808.24 L953.752,2808.36 L952.415,2808.36 L951.209,2808.95 L950.1,2810.8 L948.535,2812.41 L947.165,2814.13 L945.6,2816.33 L944.948,2817.67 L944.654,2819 L944.067,2819.75 L942.763,2821.12 L941.817,2822.38 L941.262,2823.75 L940.839,2825.4 L940.741,2826.85 L940.415,2827.91 L939.925,2828.58 L938.882,2829.05 L936.599,2830.19 L934.838,2830.66 L933.403,2831.44 L932.751,2832.19 L931.903,2833.6 L930.436,2834.98 L929.033,2835.88 L927.729,2836.15 L925.185,2836.27 L923.163,2836.66 L921.631,2837.57 L920.881,2838.23 L919.315,2839.81 L917.717,2840.79 L916.315,2841.26 L914.424,2841.3 L912.532,2841.69 L910.641,2841.73 L908.749,2841.77 L907.739,2842.2 L905.978,2842.91 L905.032,2843.06 L903.727,2843.18 L902.716,2843.53 L902.26,2844.16 L901.966,2844.99 L901.999,2846.12 L901.412,2847.18 L900.01,2848.36 L898.64,2848.95 L897.238,2849.26 L895.346,2849.93 L893.259,2850.56 L892.085,2850.8 L889.9,2850.72 L888.694,2850.91 L885.759,2852.09 L884.324,2852.52 L882.693,2852.95 L880.737,2853.54 L878.682,2854.29 L877.541,2855.19 L876.269,2855.62 L873.986,2856.17 L872.551,2856.84 L871.28,2857.9 L869.682,2858.92 L867.856,2860.14 L866.095,2860.96 L856.731,2862.48 L854.795,2860.4 L841.565,2858.59 L836.692,2856.97 L829.378,2861.6 L822.374,2862.7 L826.894,2852.42 L803.886,2851.96 L813.726,2825.49 L831.399,2814.49 L842.045,2805.27 L840.545,2803.38 L834.362,2806.47 L826.661,2806.24 L824.68,2804.81 L824.794,2804.33 L838.797,2792.07 L840.925,2775.27 L850.211,2756.99 L853.278,2753.35 L850.275,2746.74 L853.009,2744.18 L851.886,2742.11 L852.902,2740.31 L859.692,2732.33 L862.137,2732.26 L867.564,2725.37 L869.112,2718.64 L868.681,2715.83 L869.6,2711.23 L868.068,2707.01 L869.07,2705.23 L871.186,2705.88 L876.404,2703.61 L874.843,2698.35 L875.746,2693.39 L891.373,2686.91 L901.209,2687.34 L900.104,2685.24 L907.89,2683.61 L907.826,2679.18 L902.887,2678.64 L902.08,2674.79 L894.24,2671.13 L892.377,2667.65 L897.18,2663.97 L896.775,2662.21 L881.325,2650.32 L874.875,2657.94 L872.771,2658.35 L868.549,2658.48 L856.86,2665.88 L852.3,2667.09 L843.249,2657.84 L837.658,2647.74 L826.813,2636.8 L821.668,2629.87 L814.877,2637.5 L810.73,2639.74 L810.439,2641.87 L802.916,2644.88 L796.521,2646.53 L794.565,2651.52 L789.271,2650.28 L786.382,2648.93 L783.878,2646.89 L776.484,2646.07 L775.924,2651.02 L772.707,2649.36 L771.069,2653.28 L770.845,2657.53 L766.573,2655.89 L759.329,2659.65 L751.871,2657.4 L747.35,2647.66 L741.25,2654.9 L744.588,2660.44 L743.203,2661.19 L737.122,2657.46 L738.053,2656.59 L733.135,2653.65 L732.594,2654.05 L724.866,2641.55 L715.562,2639.18 L698.624,2630.87 L709.584,2615.52 L695.532,2600.97 L691.367,2594.44 L682.408,2588.55 L681.596,2590.81 L677.06,2615.2 L673.997,2615.29 L661.795,2604.19 L651.095,2612.89 L648.128,2615.65 L627.155,2635.26 L634.425,2638.12 L629.224,2644.88 L609.171,2664.5 L604.219,2660.67 L586.336,2679.76 L585.248,2679.56 L570.91,2692.59 L571.467,2691.39 L552.995,2693.12 L540.052,2674.5 L536.351,2667.62 L522.184,2664.07 L522.088,2660.56 L528.994,2657.25 L500.522,2616.66 L511.234,2608.56 L520.918,2598.91 L516.791,2592.22 L523.148,2583.95 L526.21,2579.21 L523.239,2575.71 L527.725,2570.55 L518.471,2559.72 L516.407,2550.8 L513.093,2547.32 L514.381,2542.98 L507.784,2537.44 L496.644,2535.28 L492.56,2530.37 L491.953,2521.81 L488.073,2511.88 L487.084,2502.92 L469.852,2488.38 L465.198,2488.52 L462.949,2484.64 L459.439,2486.92 L455.136,2486.33 L449.331,2471.8 L440.122,2463.1 L434.539,2467.23 L431.291,2466.61 L416.441,2470.65 L401.28,2485.03 L396.09,2489.46 L381.986,2476.15 L376.859,2474.19 L364.839,2471.56 L357.834,2464.96 L354.283,2460.36 L348.439,2463.55 L317.59,2455.55 L319.113,2436.72 L309.373,2424.21 L304.781,2399.18 L284.964,2390.83 L275.296,2395.28 L208.415,2369.58 L184.693,2331.48 L184.035,2331.13 L260.641,2265.95 L261.76,2265.55 L258.55,2232.19 L261.581,2219.45 L260.421,2210.02 L261.456,2188.74 L276.105,2163.26 L287.141,2154.72 L300.021,2128.17 L311.926,2115.44 L323.865,2103.85 L328.965,2097.21 L335.048,2099.6 L340.025,2105.09 L339.639,2100.95 L348.154,2096.13 L357.247,2096.22 L362.423,2093.78 L367.909,2087.92 L395.859,2077.58 L421.811,2025.96 L455.33,1982.29 L458.31,1979.9 L465.788,1965.64 L471.561,1969.25 L475.659,1980.45 L476.296,1981.08 L498.286,1945.67 L530.467,1794.23 L561.527,1788.33 L580.57,1787.74 L590.556,1786.52 L587.181,1768.06 L596.164,1741.2 L600.31,1716.46 L598.755,1697.22 L606.36,1689.09 L612.97,1664.74 L626.705,1648.56 L630.305,1634.89 L631.55,1630.13 L641.976,1609.84 L642.815,1589.14 L669.968,1530.64" vector-effect="none"/>
  </g>
  <g fill="none" font-weight="400" stroke-opacity="1" stroke-linejoin="bevel" stroke-linecap="square" font-size="34.5833" font-style="normal" transform="matrix(0.999744,0,0,0.999744,0,0)" stroke="#000000" font-family="MS Shell Dlg 2" stroke-width="1"/>
  <g fill="none" font-weight="400" stroke-opacity="1" stroke-linejoin="bevel" stroke-linecap="square" font-size="34.5833" font-style="normal" transform="matrix(11.808,0,0,11.808,0,0)" stroke="#000000" font-family="MS Shell Dlg 2" stroke-width="1"/>
  <g fill="none" font-weight="400" stroke-opacity="1" stroke-linejoin="bevel" stroke-linecap="square" font-size="34.5833" font-style="normal" transform="matrix(11.808,0,0,11.808,0,0)" stroke="#000000" font-family="MS Shell Dlg 2" stroke-width="1"/>
  <g fill="none" font-weight="400" stroke-opacity="1" stroke-linejoin="bevel" stroke-linecap="square" font-size="34.5833" font-style="normal" transform="matrix(11.808,0,0,11.808,0,0)" stroke="#000000" font-family="MS Shell Dlg 2" stroke-width="1"/>
  <g fill="none" font-weight="400" stroke-opacity="1" stroke-linejoin="bevel" stroke-linecap="square" font-size="34.5833" font-style="normal" transform="matrix(1,0,0,1,0,0)" stroke="#000000" font-family="MS Shell Dlg 2" stroke-width="1"/>
  <g fill="none" font-weight="400" stroke-opacity="1" stroke-linejoin="bevel" stroke-linecap="square" font-size="34.5833" font-style="normal" transform="matrix(11.808,0,0,11.808,0,0)" stroke="#000000" font-family="MS Shell Dlg 2" stroke-width="1"/>
  <g fill="none" font-weight="400" stroke-opacity="1" stroke-linejoin="bevel" stroke-linecap="square" font-size="34.5833" font-style="normal" transform="matrix(11.808,0,0,11.808,0,0)" stroke="#000000" font-family="MS Shell Dlg 2" stroke-width="1"/>
  <g fill="none" font-weight="400" stroke-opacity="1" stroke-linejoin="bevel" stroke-linecap="square" font-size="34.5833" font-style="normal" transform="matrix(11.808,0,0,11.808,0,0)" stroke="#000000" font-family="MS Shell Dlg 2" stroke-width="1"/>
  <g fill="none" font-weight="400" stroke-opacity="1" stroke-linejoin="bevel" stroke-linecap="square" font-size="34.5833" font-style="normal" transform="matrix(11.808,0,0,11.808,0,0)" stroke="#000000" font-family="MS Shell Dlg 2" stroke-width="1"/>
  <g fill="none" font-weight="400" stroke-opacity="1" stroke-linejoin="bevel" stroke-linecap="square" font-size="34.5833" font-style="normal" transform="matrix(1,0,0,1,0,0)" stroke="#000000" font-family="MS Shell Dlg 2" stroke-width="1"/>
 </g>
</svg>
