<?xml version='1.0' encoding='UTF-8' standalone='no'?>
<svg baseProfile="tiny" viewBox="0 0 2952 2952" xmlns="http://www.w3.org/2000/svg" xmlns:xlink="http://www.w3.org/1999/xlink" version="1.2" height="249.936mm" width="249.936mm">
 <title>Qt SVG Document</title>
 <desc>Generated with Qt</desc>
 <defs/>
 <g stroke-width="1" stroke="black" stroke-linecap="square" stroke-linejoin="bevel" fill="none" fill-rule="evenodd">
  <g stroke-width="1" transform="matrix(1,0,0,1,0,0)" stroke="#000000" font-style="normal" stroke-opacity="1" stroke-linecap="square" stroke-linejoin="bevel" font-size="34.5833" font-weight="400" fill="none" font-family="MS Shell Dlg 2"/>
  <g stroke-width="1" transform="matrix(1,0,0,1,0,0)" stroke="#000000" font-style="normal" stroke-opacity="1" stroke-linecap="square" stroke-linejoin="bevel" font-size="34.5833" font-weight="400" fill="none" font-family="MS Shell Dlg 2"/>
  <g stroke-width="1" transform="matrix(11.808,0,0,11.808,0,0)" stroke="#000000" font-style="normal" stroke-opacity="1" stroke-linecap="square" stroke-linejoin="bevel" font-size="34.5833" font-weight="400" fill="none" font-family="MS Shell Dlg 2"/>
  <g stroke-width="1" transform="matrix(0.999744,0,0,0.999744,0,0)" stroke="#000000" font-style="normal" stroke-opacity="1" stroke-linecap="square" stroke-linejoin="bevel" font-size="34.5833" font-weight="400" fill="none" font-family="MS Shell Dlg 2"/>
  <g transform="matrix(0.999744,0,0,0.999744,0,0)" stroke="none" font-style="normal" font-size="34.5833" font-weight="400" fill="#ffffff" fill-opacity="0" font-family="MS Shell Dlg 2">
   <path vector-effect="none" fill-rule="evenodd" d="M-2,-2 L2955,-2 L2955,2955 L-2,2955 L-2,-2"/>
  </g>
  <g stroke-width="1" transform="matrix(0.999744,0,0,0.999744,0,0)" stroke="#000000" font-style="normal" stroke-opacity="1" stroke-linecap="square" stroke-linejoin="bevel" font-size="34.5833" font-weight="400" fill="none" font-family="MS Shell Dlg 2"/>
  <g stroke-width="1" transform="matrix(11.808,0,0,11.808,0,0)" stroke="#000000" font-style="normal" stroke-opacity="1" stroke-linecap="square" stroke-linejoin="bevel" font-size="34.5833" font-weight="400" fill="none" font-family="MS Shell Dlg 2"/>
  <g stroke-width="1" transform="matrix(11.808,0,0,11.808,0,0)" stroke="#000000" font-style="normal" stroke-opacity="1" stroke-linecap="square" stroke-linejoin="bevel" font-size="34.5833" font-weight="400" fill="none" font-family="MS Shell Dlg 2"/>
  <g stroke-width="1" transform="matrix(11.808,0,0,11.808,0,0)" stroke="#000000" font-style="normal" stroke-opacity="1" stroke-linecap="square" stroke-linejoin="bevel" font-size="34.5833" font-weight="400" fill="none" font-family="MS Shell Dlg 2"/>
  <g stroke-width="1" transform="matrix(11.808,0,0,11.808,0,0)" stroke="#000000" font-style="normal" stroke-opacity="1" stroke-linecap="square" stroke-linejoin="bevel" font-size="34.5833" font-weight="400" fill="none" font-family="MS Shell Dlg 2"/>
  <g stroke-width="1" transform="matrix(11.808,0,0,11.808,0,0)" stroke="#000000" font-style="normal" stroke-opacity="1" stroke-linecap="square" stroke-linejoin="bevel" font-size="34.5833" font-weight="400" fill="none" font-family="MS Shell Dlg 2"/>
  <g transform="matrix(11.808,0,0,11.808,0,0)" stroke="none" font-style="normal" font-size="34.5833" font-weight="400" fill="#ffffff" fill-opacity="0" font-family="MS Shell Dlg 2">
   <path vector-effect="none" fill-rule="evenodd" d="M0,0 L250,0 L250,250 L0,250 L0,0"/>
  </g>
  <g stroke-width="1" transform="matrix(11.808,0,0,11.808,0,0)" stroke="#000000" font-style="normal" stroke-opacity="1" stroke-linecap="square" stroke-linejoin="bevel" font-size="34.5833" font-weight="400" fill="none" font-family="MS Shell Dlg 2"/>
  <g stroke-width="1" transform="matrix(11.808,0,0,11.808,0,0)" stroke="#000000" font-style="normal" stroke-opacity="1" stroke-linecap="square" stroke-linejoin="bevel" font-size="34.5833" font-weight="400" fill="none" font-family="MS Shell Dlg 2"/>
  <g transform="matrix(0.999744,0,0,0.999744,0,0)" stroke="none" font-style="normal" font-size="34.5833" font-weight="400" fill="#000000" fill-opacity="0" font-family="MS Shell Dlg 2">
   <rect y="0" height="2953" x="0" width="2953"/>
  </g>
  <g stroke-width="1" transform="matrix(0.999744,0,0,0.999744,0,0)" stroke="#000000" font-style="normal" stroke-opacity="1" stroke-linecap="square" stroke-linejoin="bevel" font-size="34.5833" font-weight="400" fill="none" font-family="MS Shell Dlg 2"/>
  <g stroke-width="3.07087" transform="matrix(0.999744,0,0,0.999744,0,0)" stroke="#5c5c5c" font-style="normal" stroke-opacity="1" stroke-linecap="square" stroke-linejoin="bevel" font-size="34.5833" font-weight="400" fill="#c5c5c5" fill-opacity="1" font-family="MS Shell Dlg 2">
   <path vector-effect="none" fill-rule="evenodd" d="M2779.37,1469.16 L2766.43,1468.54 L2751.04,1479.18 L2743.52,1488.63 L2727.79,1499.83 L2679.98,1525.01 L2633.8,1519.92 L2622.37,1565.41 L2592.81,1573.19 L2562.18,1607.12 L2535.78,1625.48 L2495.22,1602.26 L2428.96,1616.41 L2415.55,1631.66 L2414.37,1639.64 L2412.07,1654.83 L2411.37,1659.61 L2409.67,1670.87 L2408.79,1676.73 L2404.77,1689.8 L2400.67,1693.53 L2392.35,1698.99 L2389.19,1706.6 L2388.08,1709.83 L2385.93,1716.59 L2389.64,1722.39 L2394.48,1728.25 L2394.79,1730.14 L2394.62,1731.95 L2391.94,1741.6 L2392.82,1743.06 L2392.92,1744.29 L2392.16,1746.72 L2391.93,1748.93 L2392.74,1751.52 L2393.85,1752.7 L2394.67,1753.3 L2396.16,1757.06 L2399.71,1760.19 L2403.2,1761.31 L2405.48,1763.57 L2407.04,1766.2 L2407.09,1767.35 L2405.65,1771.39 L2405.82,1773.07 L2406.92,1777.11 L2406.5,1779.96 L2405.14,1782.37 L2402.96,1783.87 L2399.71,1783.23 L2395.88,1782.01 L2398.38,1784.91 L2399.96,1788.51 L2400.04,1790.05 L2397.76,1792.04 L2397.62,1793.8 L2397.23,1795.79 L2396.91,1797.14 L2395.79,1799.84 L2395.48,1802.33 L2395.04,1806.15 L2395.14,1808.67 L2393.34,1812.33 L2393.16,1812.99 L2393.63,1815.94 L2394.01,1818.64 L2394.9,1820.1 L2396.34,1822.77 L2397.65,1825.63 L2397.87,1828.53 L2397.04,1830.45 L2390.49,1831.04 L2388.41,1831.24 L2387.39,1832.15 L2387.01,1833.21 L2388.9,1835.26 L2390.86,1837.83 L2392.98,1840.06 L2393.47,1842.86 L2393.03,1845.15 L2393.68,1847.21 L2393.61,1848.76 L2392.26,1850.03 L2390.22,1850.17 L2385.07,1851.75 L2384.67,1852.38 L2385.75,1853.42 L2387.62,1854.3 L2388.29,1855.43 L2387.9,1856.28 L2386.77,1857.75 L2385.52,1858.94 L2385.86,1860.52 L2387.45,1862.67 L2390.16,1864.66 L2391.46,1865.79 L2392.09,1866.86 L2391.97,1868.28 L2388.24,1872.97 L2387.22,1876.03 L2389.26,1880.1 L2393.02,1883.29 L2397.9,1884.85 L2398.76,1886.27 L2398.85,1888.86 L2398.37,1890.11 L2398.72,1892.16 L2400.53,1894.49 L2401.71,1895.28 L2403.05,1895.86 L2418.68,1907.63 L2416.64,1924.55 L2429.83,1926.7 L2464.94,1920.96 L2495.3,1930.68 L2495.38,1943.3 L2482.78,1952.96 L2478.02,1999.92 L2446.11,2033.42 L2419.29,2066.92 L2447.81,2108.68 L2429.91,2138.25 L2429.79,2138.85 L2429.42,2139.08 L2429.22,2138.73 L2428.78,2138.51 L2428.24,2138.83 L2427.39,2139.5 L2426.76,2139.68 L2425.93,2140.51 L2425.18,2140.79 L2424.02,2141.32 L2423.37,2142.44 L2422.73,2143.44 L2422.41,2144.52 L2422.62,2145.61 L2422.66,2145.95 L2422.77,2147 L2423.77,2148.17 L2423.7,2148.98 L2423.34,2149.72 L2422.45,2150.58 L2422.33,2151.41 L2422.66,2152.9 L2422.43,2154.03 L2421.89,2155.14 L2421.67,2156.09 L2421.31,2157.22 L2421.14,2157.97 L2420.86,2159.32 L2420.89,2161.1 L2420.42,2161.83 L2420.06,2162.63 L2419.98,2163.65 L2419.85,2164.77 L2419.52,2165.5 L2418.5,2166.57 L2417.71,2167.02 L2417.35,2168 L2415.69,2169.62 L2414.31,2171.38 L2413.27,2172.27 L2412.43,2173.19 L2411.71,2172.87 L2410.82,2172.98 L2409.95,2173 L2408.52,2173.44 L2407.75,2174.04 L2406.99,2174.13 L2405.84,2175.26 L2405.08,2175.1 L2404.69,2175.73 L2403.25,2176.23 L2402.67,2176.27 L2402.42,2176.8 L2402.49,2177.6 L2401.92,2177.86 L2401.73,2178.45 L2401.19,2178.87 L2400.34,2179.15 L2399.95,2179.67 L2398.25,2180.77 L2397.5,2180.66 L2397.12,2182.27 L2396.74,2182.14 L2396.41,2181.56 L2395.99,2181.47 L2394.95,2182.65 L2393.5,2183.08 L2392.14,2184.32 L2391.28,2184.15 L2390.41,2183.56 L2374.27,2199.54 L2344.47,2212.95 L2338.13,2218.08 L2332.5,2218.73 L2289.42,2224.23 L2253.74,2220.59 L2250.53,2226.33 L2248.3,2229.03 L2245.29,2232.63 L2243.78,2237.57 L2242.28,2242.41 L2235.99,2262.61 L2237.49,2271.49 L2243.52,2306.87 L2229.15,2330.9 L2229.01,2332.35 L2228.38,2334.62 L2227.37,2337.95 L2226.27,2339.04 L2224.66,2340.15 L2222.29,2341.25 L2219.49,2341.86 L2217.21,2342.21 L2215.55,2343.05 L2214.06,2343.74 L2212.02,2344.55 L2210.07,2345.32 L2208.15,2346.26 L2205.35,2347.7 L2205.2,2350.74 L2204.67,2358.3 L2205.82,2373.2 L2196.01,2419.24 L2195.67,2431.22 L2198.41,2454.18 L2185.26,2489.74 L2183,2535.01 L2149.95,2594.53 L2138.31,2627.91 L2132.48,2644.69 L2084.78,2652.19 L2075.85,2642.97 L2054.64,2620.98 L2038.17,2566.95 L2028.86,2562.9 L2026.11,2564.22 L2024.67,2564.84 L2019.16,2563.97 L2016.41,2564.19 L2015.66,2565.35 L2016.01,2565.86 L2016.37,2566.53 L2015.17,2575.7 L2014.6,2579.24 L2014.04,2580.29 L2011.44,2582.65 L2011.36,2583.83 L2012.69,2586.13 L2012.41,2587.32 L2010.77,2588.55 L2011.03,2591.77 L2009.96,2593.34 L2009.8,2595.58 L2009.27,2596.77 L2008.41,2597.25 L2006.78,2598.9 L2006.35,2601.82 L2003.94,2604.64 L2003.25,2606.72 L2002.32,2608.44 L2002.39,2609.73 L2002.06,2610.44 L2002.05,2611.18 L2002.46,2611.8 L2002.35,2612.84 L2001.37,2614.05 L1998.96,2614.5 L1995.92,2617.29 L1994.35,2619.33 L1993.57,2619.78 L1991.35,2620.13 L1989.88,2622.14 L1988.13,2624.38 L1987.19,2627.19 L1986.2,2627.94 L1985.82,2628.79 L1985.61,2631.68 L1984.71,2632.59 L1981.51,2634.13 L1981.04,2634.7 L1980.84,2639.04 L1979.32,2640.62 L1976.75,2642.27 L1974.91,2643.82 L1974.23,2643.88 L1973.54,2644.84 L1971.99,2647.84 L1969.76,2649.47 L1968.64,2649.57 L1965.73,2655.2 L1933.97,2670.51 L1880.47,2654.23 L1845.61,2647.21 L1832.39,2653.16 L1811.23,2607.23 L1813.49,2581.9 L1780.08,2549.76 L1761.71,2513.15 L1740.27,2458.15 L1712.12,2443.45 L1679.01,2399.91 L1628.41,2446.56 L1540.06,2477.67 L1539.34,2477.47 L1538.93,2477.54 L1538.37,2478 L1537.79,2479.07 L1537.76,2480.38 L1537.76,2480.38 L1536.78,2480.47 L1536.26,2480.26 L1535.64,2480.22 L1533.69,2480.43 L1532.97,2480.3 L1530.79,2478.38 L1530.56,2477.23 L1529.42,2475.06 L1527.55,2472.2 L1525.92,2469.36 L1524.67,2467.71 L1522.83,2467.05 L1521.16,2466.81 L1520.19,2466.96 L1519.45,2467.47 L1519.8,2468.7 L1520.45,2469.41 L1520.77,2471.05 L1520.49,2472.49 L1519.68,2473.86 L1518.8,2473.97 L1515.6,2473.65 L1512.13,2474.5 L1510.08,2474.3 L1508.83,2473.78 L1506.39,2474.04 L1505.82,2467.67 L1515.24,2447.13 L1507.61,2425.52 L1483.27,2389.07 L1481.15,2364.05 L1491.37,2349.76 L1497.38,2304.18 L1494.8,2235 L1486.56,2233.49 L1478.27,2234.08 L1446.47,2195.76 L1450.61,2173.53 L1399.72,2150.45 L1398.71,2149.84 L1396.93,2149.08 L1396.14,2149.18 L1394.35,2148.63 L1393.68,2148.38 L1393.18,2148.5 L1391.12,2148.55 L1390.29,2149.04 L1388.53,2149.22 L1388.12,2149.04 L1385.96,2146.57 L1385.56,2145.54 L1384.74,2145.02 L1382.71,2144.83 L1380.08,2144.24 L1378.97,2143.55 L1376.8,2143.11 L1375.51,2142.18 L1373.24,2139.7 L1371.69,2138.01 L1367.25,2136.77 L1365.54,2137.53 L1364.34,2137.85 L1363.49,2137.06 L1362.72,2135.71 L1362.22,2133.29 L1360.37,2131.41 L1358.12,2130.87 L1354.79,2129.14 L1352.31,2128.61 L1348.02,2129.02 L1346.61,2130.02 L1345.29,2131.27 L1344.45,2131.37 L1343.82,2131.13 L1342.97,2130.5 L1340.8,2129.6 L1340.01,2128.87 L1338.9,2128.74 L1336.29,2129.59 L1335.37,2129.61 L1333.37,2128.54 L1332.04,2127.48 L1330.97,2125.41 L1330.69,2124.51 L1326.25,2121 L1323.16,2119.32 L1320.71,2117.48 L1319.58,2115.17 L1295.65,2099.75 L1256.82,2071.87 L1108.61,1988.05 L1101.74,1986.86 L1098.72,1986.31 L1095.63,1985.89 L1090.98,1987.5 L1084.55,1983.68 L1077.44,1983.31 L1070.51,1983.52 L1069.03,1984.08 L1060.66,1984.35 L1059.05,1983.96 L1057.71,1983.2 L1050.89,1978.02 L1046.69,1974.98 L1045.27,1973.64 L1040.35,1971.95 L1038.28,1972.14 L1034.99,1973.41 L1032.47,1974.04 L1021.65,1973.73 L1018.8,1974.87 L1015.82,1976.27 L1012.52,1976.91 L1007.11,1977.4 L1005.58,1977.31 L1002.13,1975.95 L999.42,1975.73 L996.736,1976.68 L994.159,1977.58 L992.897,1977.8 L990.786,1978.02 L988.299,1979.05 L986.78,1979.93 L985.962,1980.55 L982.984,1982.07 L977.679,1982.97 L973.844,1983.63 L967.258,1986.77 L959.217,1991.3 L954.551,1992.3 L952.593,1993.35 L951.653,1993.51 L950.102,1993.3 L947.274,1995.92 L946.595,1996.37 L945.493,1996.76 L944.951,1996.77 L944.211,1996.4 L943.24,1995.62 L940.664,1993.28 L937.9,1990.37 L935.257,1988.5 L933.213,1987.93 L932.144,1987.86 L931.718,1987.52 L929.303,1981.33 L927.741,1978.76 L925.515,1976.79 L924.477,1975.63 L923.017,1974.7 L919.7,1971.17 L918.747,1969.47 L918.244,1968.49 L918.177,1967.83 L918.478,1966.61 L918.172,1963.57 L918.165,1962.22 L918.527,1958.13 L918.439,1954.37 L917.824,1952.63 L917.104,1951.68 L911.108,1947.6 L910.067,1947.55 L909.06,1947.37 L908.298,1947.05 L907.549,1946.61 L906.352,1945.05 L904.261,1942.3 L902.719,1940.66 L901.679,1939.2 L900.533,1937.85 L900.147,1937.13 L900.024,1935.95 L899.827,1933.62 L899.39,1930.75 L898.869,1929.3 L897.344,1926.94 L895.387,1925.5 L894.762,1924.81 L894.457,1923.46 L894.072,1923.22 L891.731,1922.69 L890.474,1922.7 L887.584,1922.17 L883.614,1921.01 L883.403,1920.61 L880.646,1919.17 L879.813,1919.17 L879.043,1919.55 L877.992,1919.54 L877.021,1919.04 L876.072,1918.18 L873.763,1918.4 L869.466,1918.82 L866.833,1919.98 L864.784,1920.11 L863.603,1919.29 L863.319,1918.5 L863.366,1917.19 L861.173,1916.9 L857.241,1916.38 L855.501,1915.98 L854.066,1915.66 L853.533,1915.54 L853.176,1915.57 L852.879,1915.77 L852.647,1916.24 L851.859,1917.59 L851.412,1917.96 L850.923,1918.13 L850.437,1918.14 L849.172,1917.57 L847.934,1917.11 L847.377,1916.56 L846.723,1915.4 L846.417,1915.28 L846.033,1915.35 L843.783,1916.23 L843.026,1916.35 L842.575,1916.17 L841.848,1915.07 L840.018,1914.27 L838.99,1914.43 L838.424,1914.83 L836.666,1916.68 L834.174,1917.98 L832.209,1918.11 L830.834,1917.77 L829.463,1917.33 L827.851,1917.61 L825.782,1917.42 L823.583,1916.54 L822.37,1915.38 L821.156,1915.02 L818.676,1915.15 L816.474,1915.32 L814.213,1915.84 L813.359,1916.66 L812.536,1916.87 L811.506,1917.52 L810.734,1917.6 L810.077,1917.66 L809.612,1917.4 L808.464,1916.25 L807.914,1915.35 L807.035,1913.4 L805.087,1913.07 L804.488,1913.31 L803.909,1913.21 L803.544,1912.32 L802.595,1912.03 L802.107,1912.04 L801.71,1911.73 L801.21,1911.62 L800.733,1911.48 L800.365,1911.61 L799.363,1911.63 L798.805,1911.82 L797.109,1911.95 L796.296,1912.22 L795.808,1912.42 L795.008,1912.29 L792.973,1912.58 L791.173,1912.29 L789.854,1911.75 L789.329,1911.64 L787.313,1911.95 L786.21,1911.95 L781.718,1911.4 L779.823,1911.46 L777.019,1911.65 L761.345,1912.5 L743.635,1913.03 L737.342,1911.48 L733.522,1908.89 L731.621,1908.22 L728.79,1908.11 L724.015,1908.74 L720.517,1909.28 L712.892,1909.91 L709.881,1910.36 L707.797,1910.83 L706.748,1910.96 L705.328,1910.62 L703.599,1910.27 L701.076,1909.97 L699.612,1909.98 L696.978,1909.78 L694.693,1909.24 L692.535,1908.92 L689.194,1908.63 L681.564,1908.56 L673.919,1908.96 L670.196,1908.69 L668.621,1907.86 L666.198,1906.61 L664.306,1906.16 L663.039,1906.03 L660.581,1905.35 L657.833,1904.53 L654.258,1903.13 L651.781,1901.57 L646.156,1899.7 L644.398,1899.98 L643.716,1899.99 L642.826,1899.61 L641.607,1898.89 L638.876,1896.61 L636.388,1896.71 L633.93,1896.31 L632.168,1895.73 L630.631,1895.39 L627.701,1893.83 L625.639,1893.48 L624.655,1893.09 L623.681,1891.71 L620.041,1890.88 L618.506,1890.19 L617.213,1889.92 L616.469,1889.62 L615.595,1889.02 L615.046,1888.84 L613.422,1888.29 L610.538,1887.18 L608.206,1886.12 L606.438,1886.09 L605.41,1885.98 L603.916,1885.74 L602.25,1885.34 L599.269,1884.4 L592.727,1882.35 L589.778,1881.37 L578.923,1879.61 L577.558,1880.09 L576.888,1880.21 L576.294,1880.06 L575.902,1879.79 L574.98,1879.04 L573.848,1878.07 L573.255,1877.58 L572.789,1877.14 L572.216,1876.64 L571.902,1876.41 L571.307,1875.95 L570.832,1875.55 L570.267,1875.27 L569.726,1874.82 L568.039,1873.33 L566.544,1872.04 L564.055,1869.82 L562.72,1868.33 L562.31,1867.86 L562.1,1867.31 L562.02,1866.56 L561.808,1865.85 L561.145,1865.25 L560.469,1864.96 L558.862,1864.35 L557.554,1863.59 L557.147,1863.3 L551.992,1855.07 L550.326,1855.22 L549.968,1855.1 L549.614,1854.45 L546.976,1854.94 L542.949,1851.76 L539.735,1848.98 L538.195,1846.42 L537.908,1845.71 L537.671,1844.69 L536.901,1843.45 L536.124,1842.5 L536.003,1841.8 L535.962,1840.8 L536.221,1839.43 L536.121,1839 L535.87,1838.85 L535.112,1838.7 L533.794,1838.29 L533.011,1837.61 L532.631,1836.91 L532.458,1836.15 L532.495,1835.26 L532.474,1835.03 L532.325,1834.72 L532.048,1834.37 L530.626,1833.05 L530.318,1832.66 L530.131,1832.29 L529.937,1831.43 L529.558,1828.67 L529.019,1826.83 L492.908,1836.34 L433.992,1868.44 L262.029,1915.57 L261.012,1915.85 L260.14,1915.75 L256.625,1909.99 L254.772,1907.73 L253.548,1907.06 L252.501,1906.96 L251.928,1907.05 L251.384,1906.92 L250.776,1906.57 L249.92,1905.6 L249.41,1905.35 L248.555,1905.29 L247.84,1905.17 L247.098,1904.86 L246.496,1904.43 L245.994,1903.9 L244.445,1902.85 L243.639,1902.47 L242.465,1902.2 L241.934,1902.19 L238.256,1901.18 L235.279,1898.79 L233.341,1896.57 L231.87,1895.59 L230.731,1895.46 L228.531,1894.38 L223.835,1892.73 L223.297,1892.37 L222.809,1892 L221.635,1890.96 L220.836,1890.26 L219.662,1889.31 L218.014,1887.97 L216.734,1886.85 L216.373,1886.04 L215.503,1884.65 L214.371,1883.36 L212.122,1882.66 L210.304,1881.81 L209.837,1881.3 L208.805,1879.65 L207.815,1878.15 L207.082,1877.06 L206.64,1876.58 L205.908,1875.78 L205.325,1875.04 L204.105,1873.43 L203.574,1872.69 L203.383,1872.58 L203.309,1872.39 L202.181,1871.39 L200.766,1870.08 L200.186,1869.62 L196.615,1866.9 L191.982,1864.72 L186.062,1859.48 L184.47,1858 L183.112,1856.77 L182.094,1855.79 L180.524,1854.21 L179.215,1852.93 L178.904,1852.19 L178.508,1851.76 L177.129,1850.39 L175.749,1849.05 L174.144,1847.54 L172.503,1846.27 L171.145,1845.23 L166.915,1842.8 L165.034,1841.98 L164.206,1841.5 L162.983,1841.21 L161.738,1841.12 L160.387,1841.16 L158.18,1841.02 L156.858,1840.74 L154.361,1840.65 L153.144,1840.62 L152.359,1840.63 L151.199,1841.44 L150.69,1841.46 L150.075,1840.91 L149.58,1840.66 L148.646,1840.69 L146.927,1841.21 L146.206,1841.17 L145.767,1840.94 L145.668,1840.58 L145.838,1840.14 L147.005,1838.91 L147.557,1838.34 L148.158,1837.78 L149.608,1837.65 L150.237,1836.84 L150.831,1836.53 L150.938,1835.94 L150.549,1835.58 L150.379,1835.08 L150.52,1834.77 L151.008,1834.46 L152.055,1833.5 L152.55,1832.37 L152.402,1830.86 L152.126,1829.41 L151.673,1828.67 L151.369,1827.95 L151.086,1826.47 L150.973,1825.86 L150.81,1825.56 L150.527,1824.82 L150.315,1824.48 L150.082,1823.69 L149.671,1822.39 L149.403,1821.49 L149.07,1820.49 L148.823,1820.03 L148.448,1819.56 L147.79,1818.9 L147.224,1818.37 L146.312,1817.68 L146.105,1817.07 L146.017,1817.01 L145.536,1816.31 L145.33,1815.73 L144.736,1815.08 L144.298,1814.77 L143.852,1814.64 L143.435,1814.43 L143.102,1814.11 L142.77,1813.65 L142.48,1813.53 L142.24,1813.74 L141.999,1814.21 L141.914,1815.18 L141.256,1815.4 L140.691,1814.97 L139.672,1812.98 L138.76,1811.17 L137.946,1809.76 L136.793,1809.38 L135.421,1809.1 L134.905,1809.06 L133.264,1808.94 L132.168,1809.16 L131.694,1809.56 L131.284,1810.1 L130.866,1810.92 L130.173,1811.47 L129.402,1811.84 L128.9,1811.9 L128.249,1811.31 L127.033,1809.89 L123.935,1806.45 L123.595,1805.94 L122.343,1804.86 L120.738,1803.58 L119.458,1802.8 L118.192,1802.42 L116.756,1801.05 L114.889,1800.07 L112.802,1797.33 L112.399,1796.9 L111.324,1796.35 L110.701,1795.95 L109.711,1795.31 L109.372,1794.73 L109.301,1794.13 L109.266,1792.17 L109.068,1791.05 L108.721,1790.17 L108.297,1789.18 L108.332,1788.21 L108.381,1787.58 L108.332,1786.55 L108.049,1786.11 L106.712,1785.17 L106.698,1784.63 L106.889,1784.15 L106.988,1783.27 L106.691,1781.32 L106.472,1780.41 L105.821,1779.88 L104.661,1779.59 L103.671,1779.54 L102.766,1779.8 L101.705,1780.37 L100.941,1781.23 L100.297,1781.58 L99.802,1781.55 L99.5403,1781.24 L99.4554,1780.86 L99.2503,1779.66 L99.1867,1778.93 L99.0169,1778.01 L98.9108,1777.75 L98.6491,1777.13 L98.3025,1776.43 L98.1186,1775.84 L97.8074,1775.45 L97.1284,1774.6 L96.6475,1773.83 L96.605,1773.45 L96.5697,1772.89 L96.5697,1772.21 L96.7536,1771.3 L96.9304,1770.89 L97.4113,1770.39 L97.765,1769.77 L98.055,1769.36 L98.6137,1768.59 L99.0381,1767.98 L99.6464,1767.61 L99.7171,1767.31 L100.75,1766.45 L102.377,1766.22 L103.197,1765.88 L103.904,1765.53 L103.975,1764.72 L103.254,1763.75 L102.631,1763.66 L102.235,1764.02 L101.669,1764.27 L101.245,1764.14 L101.146,1763.72 L101.188,1762.94 L101.599,1761.95 L101.797,1761.33 L101.655,1760.44 L101.825,1759.9 L102.278,1759.58 L102.334,1759.12 L102.094,1758.22 L101.457,1757.68 L100.99,1756.59 L100.467,1755.22 L100.325,1753.99 L100.255,1752.39 L100.028,1751.43 L99.8303,1749.96 L99.8727,1749.28 L100.057,1748.36 L100.368,1747.34 L100.297,1744.71 L100.325,1742.38 L100.495,1742.07 L100.941,1742.13 L102.384,1742.79 L102.942,1742.77 L103.643,1742.71 L103.947,1742.47 L104.237,1742 L104.364,1741.5 L104.194,1740.97 L103.466,1740.4 L102.674,1740.01 L101.528,1739.69 L100.502,1739.47 L99.6535,1739.11 L99.5474,1738.63 L98.2177,1737.77 L97.4821,1737.51 L96.6121,1737.27 L95.9897,1736.87 L95.3531,1736.71 L94.6388,1736.5 L93.9598,1736.23 L93.6061,1735.85 L93.0049,1735.84 L92.3683,1735.93 L91.5762,1735.85 L91.272,1735.56 L91.2155,1735.01 L91.2296,1734.73 L91.3357,1734.01 L91.5974,1733.76 L91.8803,1733.43 L92.5098,1733.04 L92.7644,1732.72 L92.6017,1732.36 L91.8591,1731.95 L90.8264,1731.22 L89.7726,1729.81 L88.0821,1728.64 L87.7992,1728.1 L87.5517,1727.48 L87.6365,1725.94 L87.8487,1725.54 L88.1599,1725.38 L88.8036,1725.23 L89.1502,1725.2 L89.518,1725.14 L89.7655,1725.12 L90.4587,1725.12 L91.3145,1725.32 L92.1349,1725.84 L92.7503,1726.54 L92.9412,1726.71 L93.4505,1727.03 L94.1224,1727.46 L94.9924,1728.16 L95.4592,1728.77 L95.919,1729.05 L96.308,1728.98 L96.8809,1728.97 L97.574,1729.27 L98.642,1729.47 L99.2927,1730.13 L99.7737,1730.19 L99.9505,1729.8 L99.5969,1729.03 L99.7666,1728.88 L100.12,1728.97 L100.354,1728.79 L100.177,1728.43 L100.085,1728.07 L100.304,1727.9 L100.7,1727.99 L101.309,1727.57 L101.811,1727.57 L101.973,1727.05 L101.881,1726.47 L101.966,1725.91 L102.207,1725.01 L102.369,1723.89 L102.659,1721.05 L102.758,1719.98 L102.773,1718.83 L102.681,1717.39 L103.027,1716.23 L103.232,1715.42 L103.628,1714.8 L104.59,1714.25 L105.057,1713.69 L105.496,1713.09 L105.772,1712.66 L106.642,1712.01 L107.342,1711.71 L108.516,1710.95 L109.159,1710.23 L109.563,1710.02 L112.165,1708.57 L113.842,1708.3 L114.004,1708.02 L114.302,1707.77 L114.549,1707.69 L115.214,1707.26 L115.603,1707.36 L115.942,1707.34 L116.148,1706.99 L116.459,1706.7 L116.735,1706.68 L117.18,1707.03 L117.661,1707.14 L118.227,1707.75 L118.715,1707.77 L119.04,1707.56 L119.571,1706.91 L120.024,1705.87 L120.42,1705.35 L121.077,1705.3 L122.061,1705.11 L122.888,1704.22 L123.129,1703.72 L122.966,1702.67 L122.082,1701.92 L121.502,1701.45 L121.389,1701.15 L120.971,1700.91 L120.561,1700 L119.118,1698.02 L118.34,1697.58 L118.284,1697.11 L117.958,1696.64 L117.612,1696.53 L117.385,1696.31 L117.088,1696.44 L116.558,1696.78 L116.346,1697.35 L116.367,1697.98 L116.105,1698.37 L115.582,1698.43 L115.37,1698.22 L115.002,1697.23 L115.002,1696.69 L115.355,1695.96 L115.454,1695.23 L115.278,1694.9 L115.214,1694.69 L114.825,1694.36 L114.259,1694.55 L113.806,1694.94 L113.085,1695.06 L112.526,1694.72 L112.385,1694.23 L112.059,1693.47 L111.72,1693.28 L111.423,1693.25 L111.274,1693.04 L111.31,1692.6 L111.168,1692.3 L110.892,1692.21 L109.407,1693.28 L108.438,1693.46 L108.141,1693.47 L107.837,1693.23 L107.823,1692.79 L107.985,1692.26 L108.007,1691.91 L107.653,1691.6 L107.236,1691.56 L106.663,1691.68 L105.963,1692.13 L105.531,1693.03 L105.241,1694.62 L105.241,1695.44 L105.015,1695.92 L104.753,1696.14 L104.3,1696.12 L103.176,1695.93 L102.766,1695.57 L101.966,1695.84 L101.386,1696.53 L100.962,1697.6 L100.361,1698.1 L99.7737,1698.9 L99.6676,1699.94 L99.0381,1700.97 L98.4157,1701.34 L98.2177,1701.92 L98.2035,1702.74 L97.8286,1703.51 L98.0267,1704.55 L98.154,1705.31 L98.0479,1705.8 L97.7226,1706.03 L96.9162,1706.04 L96.0675,1705.79 L96.0392,1705.36 L95.7421,1704.18 L95.1975,1702.02 L94.568,1700.97 L93.8324,1700.06 L93.0827,1699.78 L91.1447,1697.96 L90.7557,1697.86 L90.6355,1697.72 L90.1757,1697.63 L89.6382,1697.35 L89.3341,1696.84 L89.3836,1696.13 L89.7443,1695.48 L90.0979,1695.23 L90.3384,1695.06 L91.173,1694.55 L91.5408,1694.3 L92.4674,1693.96 L93.3303,1693.63 L94.1436,1692.88 L94.1507,1691.97 L93.981,1690.9 L93.5566,1689.96 L93.0615,1689.07 L92.9271,1688.14 L92.9625,1687.78 L93.6344,1687 L93.9102,1686.84 L94.9217,1686.12 L95.2541,1685.77 L96.0109,1684.94 L96.6687,1684.21 L96.9233,1683.99 L97.8145,1683.1 L98.4086,1682.56 L98.8189,1681.55 L99.2079,1681.1 L99.6252,1680.49 L100.311,1679.35 L101.21,1677.39 L101.351,1676.97 L101.924,1675.39 L102.15,1674.37 L101.719,1673.24 L100.707,1672.47 L98.1116,1671.81 L97.2204,1671.24 L95.5229,1670.53 L94.2851,1670.22 L93.7334,1670.34 L93.3373,1670.84 L93.2949,1671.56 L92.8847,1672.21 L92.6371,1673.82 L92.1703,1674.67 L90.5223,1675.24 L89.7089,1676.53 L89.6806,1677.91 L90.0838,1678.73 L90.2889,1679.45 L90.2535,1680 L88.1458,1681.14 L87.7285,1681.13 L87.3536,1679.96 L87.2122,1678.92 L87.3041,1678.07 L87.3678,1677.45 L87.1344,1677.38 L86.9646,1677.56 L87.1344,1675.51 L88.549,1671.61 L96.5838,1661.14 L102.016,1654.75 L106.203,1650.56 L112.767,1645.18 L118.821,1640.77 L127.422,1635.06 L128.61,1633.36 L133.816,1630.13 L136.475,1627.13 L146.943,1614.69 L152.488,1607.33 L156.562,1601.3 L159.193,1597.26 L160.693,1594.29 L162.801,1588.7 L163.748,1585.74 L165.913,1581.73 L166.266,1578.52 L167.709,1572.15 L168.6,1563.31 L169.237,1560.14 L169.668,1557.06 L169.732,1554.52 L169.676,1553.92 L169.548,1552.33 L169.11,1550.12 L168.632,1548.26 L167.868,1545.43 L167.755,1544.78 L167.38,1542.74 L167.292,1542.61 L166.415,1541.36 L166.263,1541.1 L165.124,1539.59 L164.374,1537.9 L163.296,1536.17 L162.74,1534.64 L161.941,1533.62 L161.248,1532.73 L161.149,1532.41 L160.93,1531.65 L161.117,1530.61 L161.047,1529.86 L159.563,1529.96 L159.62,1529.86 L161.459,1528.7 L162.93,1528.41 L163.778,1527.93 L164.316,1527.17 L165.08,1526.52 L165.957,1526.26 L167.796,1524.88 L168.588,1524.71 L170.512,1522.58 L170.965,1521.65 L171.021,1520.77 L171.502,1520.01 L172.209,1519.3 L173.822,1518.37 L174.048,1516.95 L176.566,1514.13 L178.547,1512.68 L179.169,1512.65 L179.707,1512.63 L180.131,1512.12 L181.319,1511.47 L181.885,1510.65 L182.31,1509.77 L183.017,1508.83 L183.3,1507.62 L184.799,1506.49 L185.987,1505.44 L186.978,1504.19 L187.954,1502.09 L191.009,1498.49 L191.915,1498.21 L192.891,1497.97 L193.739,1497.35 L193.966,1496.94 L194.164,1496.51 L193.386,1495.55 L192.084,1494.46 L191.9,1493.42 L192.056,1491.49 L192.07,1490.47 L192.579,1489.23 L193.131,1488.22 L193.258,1487.5 L194.334,1486.87 L194.532,1486.17 L194.56,1485.42 L194.673,1484.81 L195.168,1484.65 L195.663,1483.32 L195.607,1482.86 L195.14,1482.41 L195.041,1481.7 L194.786,1480.88 L194.701,1480.08 L195.479,1479.27 L195.748,1478.77 L196.88,1477.81 L197.545,1477.08 L197.559,1476.5 L196.922,1474.8 L197.375,1473.68 L197.587,1470.84 L198.294,1468.87 L199.2,1466.99 L199.497,1465 L199.454,1462.61 L198.662,1459.99 L198.436,1458.7 L199.171,1456.98 L199.525,1455.6 L198.881,1454.22 L197.99,1452.22 L197.934,1450.86 L198.1,1449.73 L198.454,1449.3 L198.51,1446.9 L199.019,1445.82 L199.896,1442.12 L201.226,1439.77 L202.641,1437.82 L204.565,1435.83 L207.917,1429.67 L209.473,1426.88 L209.657,1425.51 L209.36,1424.25 L207.563,1421.18 L206.333,1419.81 L205.159,1419.02 L203.9,1418.46 L202.952,1417.59 L201.905,1417.13 L198.878,1415 L198.326,1414.19 L197.562,1412.45 L196.572,1411.36 L195.709,1410.53 L194.846,1409.82 L194.365,1408.66 L193.927,1407.47 L193.856,1406.99 L192.866,1406.13 L190.829,1404.74 L189.909,1404.29 L189.188,1403.65 L188.622,1402.54 L187.066,1401.38 L186.345,1401.05 L184.789,1400.14 L183.671,1398.97 L181.535,1397.87 L180.559,1397.61 L179.201,1397.51 L177.305,1396.58 L175.523,1395.72 L173.741,1395.15 L172.029,1394.87 L169.667,1394.22 L167.686,1393.51 L167.191,1393.16 L166.017,1392.35 L165.621,1392.19 L165.098,1391.73 L164.362,1391.52 L163.513,1391.4 L162.028,1391.01 L160.203,1390.55 L157.968,1389.54 L156.469,1388.88 L155.337,1388.64 L154.389,1388.28 L153.721,1388.08 L152.971,1388.25 L176.057,1359.79 L193.415,1338.91 L231.665,1310.62 L267.2,1297.04 L274.567,1224.29 L312.818,1189.72 L313.836,1189.94 L314.741,1192.66 L317.457,1196.73 L321.362,1199.28 L323.964,1200.41 L326.879,1202.87 L330.415,1204.77 L335.564,1204.77 L341.76,1201.97 L348.352,1197.39 L354.123,1193.68 L356.924,1191.36 L357.858,1190.11 L358.792,1189.77 L360.008,1189.04 L362.554,1188.73 L367.307,1188.73 L369.458,1188.61 L371.07,1189.04 L374.89,1188.84 L376.927,1188.76 L380.576,1187.06 L384.028,1184.54 L385.839,1182.84 L387.253,1180.86 L389.29,1178.8 L392.855,1177.64 L404.653,1173.17 L418.515,1163.29 L428.729,1157.49 L445.251,1151.27 L454.587,1147.68 L466.809,1132.23 L498.779,1114.29 L551.798,1149.43 L605.382,1161.88 L634.014,1168.56 L661.57,1178.74 L691.502,1177.78 L743.842,1175.97 L739.938,1203.69 L751.877,1205.67 L761.043,1210.99 L786.336,1209.35 L795.276,1207.15 L807.838,1199.56 L821.305,1198.21 L837.714,1195.21 L883.037,1200.13 L894.467,1203.07 L900.182,1203.92 L903.464,1203.24 L907.821,1200.7 L910.65,1198.38 L920.892,1195.6 L925.871,1192.55 L929.832,1192.26 L948.052,1181.34 L986.415,1164.71 L1002.77,1140.94 L1027.1,1131.55 L1050.35,1122.5 L1057.6,1083.62 L1099.36,1100.03 L1131.61,1081.93 L1140.66,1076.61 L1143.94,1035.53 L1150.96,963.101 L1137.27,931.867 L1160.35,888.072 L1155.03,854.235 L1189.78,823.453 L1214.33,801.612 L1222.82,769.812 L1225.08,723.527 L1210.66,698.913 L1196.61,677.763 L1184.8,666.038 L1162.5,661.172 L1119.78,623.204 L1114.63,577.711 L1096.36,546.534 L1079.27,506.812 L1095.73,463.152 L1104.05,436.988 L1107.56,410.168 L1123.86,381.876 L1116.73,361.619 L1111.86,352.339 L1113.11,342.041 L1125.67,331.856 L1131.01,328.885 L1134.98,322.69 L1137.72,325.49 L1146.69,328.33 L1148.2,329.013 L1152.07,333.377 L1153.22,330.82 L1154.25,329.9 L1154.48,329.175 L1154.35,327.98 L1157.17,326.254 L1158.03,323.538 L1158.46,322.909 L1160.86,324.422 L1161.44,324.182 L1162.83,321.303 L1163.48,319.981 L1164.12,316.748 L1165.63,314.018 L1165.89,312.398 L1166.19,311.231 L1166.95,309.254 L1166.99,306.899 L1167.6,305.524 L1169.1,304.551 L1169.44,303.101 L1170.72,300.166 L1170.67,299.28 L1182.8,295.132 L1197.31,290.57 L1200.12,290.718 L1208.36,290.612 L1210.1,290.343 L1211.22,289.035 L1211.62,287.627 L1212.96,285.81 L1214.44,284.604 L1217.18,285.177 L1218.92,286.097 L1222.98,285.962 L1224.96,287.448 L1226.47,287.156 L1228.49,288.194 L1229.65,287.803 L1230.2,287.504 L1230.99,287.47 L1231.77,287.732 L1232.62,288.258 L1232.94,288.491 L1233.59,288.629 L1234.57,288.516 L1236.01,288.074 L1237.22,287.726 L1238.98,287.127 L1239.89,286.859 L1240.53,287.168 L1241.08,287.525 L1241.64,287.476 L1242.13,287.193 L1242.75,286.864 L1243.3,286.737 L1244.06,286.89 L1244.59,287.216 L1245.55,288.085 L1246.2,286.96 L1247.29,285.32 L1249.11,282.679 L1249.72,282.475 L1250.46,282.472 L1251.09,282.969 L1253.44,285.47 L1254.33,285.748 L1255.4,285.666 L1256.1,285.633 L1256.86,285.88 L1257.89,286.048 L1258.93,286.076 L1259.55,285.902 L1260.39,285.463 L1260.87,285.259 L1261.29,285.414 L1262.02,286.409 L1262.51,286.61 L1263.16,286.405 L1263.61,286.326 L1264.12,286.465 L1264.61,287.04 L1264.98,287.491 L1265.42,287.443 L1265.46,287.146 L1265.46,286.398 L1265.58,285.634 L1266.29,285.18 L1266.79,285.085 L1267.46,285.504 L1268.04,285.814 L1268.7,285.687 L1269.39,285.327 L1270.01,285.294 L1270.9,285.416 L1271.87,285.304 L1272.7,285.099 L1273.83,285.003 L1274.52,284.954 L1274.95,284.89 L1274.79,283.659 L1274.18,282.071 L1273.2,280.874 L1272.99,277.943 L1272.51,275.061 L1272.56,273.595 L1272.59,272.893 L1271.79,270.494 L1270.45,269.703 L1268.66,268.757 L1267.62,267.107 L1260.05,260.673 L1259.07,258.384 L1258.61,254.891 L1258.44,253.238 L1258.54,251.677 L1258.94,250.272 L1259.81,248.491 L1260.84,246.396 L1263.87,244.795 L1264.35,243.109 L1265.11,242.467 L1266.34,242.104 L1267.11,241.571 L1267.95,240.851 L1268.64,240.334 L1269.26,239.864 L1270.51,236.567 L1271.42,235.44 L1271.98,234.705 L1272.68,233.127 L1275.15,236.569 L1276.86,236.081 L1279.78,233.81 L1281.68,234.866 L1283.03,233.411 L1283.87,232.27 L1285.19,232.672 L1286.42,233.06 L1287.65,232.307 L1288.74,231.54 L1289.9,231.397 L1290.96,231.628 L1291.77,231.752 L1292.58,231.781 L1293.07,231.405 L1295.27,228.356 L1296.37,227.495 L1297.17,227.15 L1297.65,227.149 L1298.35,227.491 L1298.75,227.646 L1299.72,227.535 L1300.48,227.471 L1301.11,227.704 L1302.4,228.529 L1302.99,228.262 L1304.23,227.495 L1305.45,227.149 L1306.59,227.459 L1308.8,228.47 L1310.31,228.749 L1311.8,228.84 L1312.4,229.026 L1313.05,229.478 L1313.8,230.226 L1314.22,231.084 L1314.86,232.144 L1317.01,233.842 L1318.57,235.167 L1319.43,235.649 L1320.33,235.991 L1321.68,236.614 L1322.18,237.144 L1322.74,237.892 L1323.46,238.531 L1324.07,238.889 L1324.71,239.31 L1325.58,239.636 L1326.75,240.087 L1327.43,240.367 L1327.99,240.492 L1328.94,241.661 L1329.55,242.097 L1330.19,242.268 L1330.67,242.626 L1331.05,243.094 L1331.25,243.609 L1331.16,244.686 L1330.66,246.028 L1329.57,247.012 L1329.11,247.559 L1328.72,247.903 L1328.41,248.293 L1328.14,248.84 L1328.13,249.277 L1328.25,249.698 L1328.63,249.962 L1328.7,250.321 L1328.53,250.618 L1328.13,250.899 L1327.74,251.274 L1327.2,251.712 L1326.86,252.258 L1326.73,252.57 L1326.7,253.054 L1326.83,253.631 L1327.17,254.286 L1327.53,254.847 L1327.68,255.33 L1327.97,256.016 L1328.23,257.139 L1328.61,258.246 L1328.61,258.792 L1328.62,259.432 L1328.51,260.18 L1328.45,260.742 L1328.45,261.194 L1328.59,261.366 L1329.01,261.069 L1329.73,260.709 L1330.38,260.521 L1331.49,260.598 L1332.62,260.784 L1333.43,260.799 L1334.07,260.876 L1334.88,261.031 L1336.14,261.139 L1337.05,261.029 L1337.82,261.028 L1338.73,261.012 L1339.53,260.996 L1340.17,261.198 L1341.58,264.394 L1342.72,266.904 L1344.56,267.744 L1345.75,268.055 L1346.44,268.242 L1347.14,268.756 L1347.79,269.333 L1348.23,269.707 L1348.97,270.034 L1349.8,270.236 L1350.36,270.61 L1350.64,271.623 L1350.87,272.808 L1351.28,273.634 L1352.62,275.161 L1353.94,276.689 L1354.34,277.25 L1354.64,277.951 L1354.82,278.886 L1355.03,279.603 L1355.26,279.806 L1357.47,279.649 L1361.06,279.258 L1368.71,276.42 L1369.31,274.377 L1369.89,273.005 L1370.04,271.758 L1370.11,269.637 L1370.56,269.076 L1370.9,268.748 L1371.04,267.704 L1371.32,267.049 L1372.17,266.362 L1373.06,265.941 L1373.53,265.396 L1373.98,264.101 L1374.49,263.025 L1375.39,261.076 L1376.02,260.343 L1376.53,259.391 L1377.18,258.331 L1377.7,257.442 L1378.55,256.413 L1379.7,255.726 L1380.87,255.228 L1381.49,255.384 L1382.02,255.68 L1382.52,256.055 L1382.92,256.227 L1383.41,256.118 L1383.78,255.572 L1384,254.901 L1384.29,254.386 L1384.98,254.262 L1385.51,254.496 L1386.21,254.808 L1386.94,254.871 L1387.89,254.591 L1388.73,253.983 L1389.33,253.515 L1392.06,252.113 L1394.07,251.178 L1395.61,251.085 L1397.61,251.461 L1399.39,251.666 L1400.18,251.276 L1400.71,250.653 L1400.99,249.982 L1401.33,249.623 L1401.88,249.811 L1402.33,250.248 L1403.11,250.858 L1403.81,251.077 L1404.49,251.046 L1405.45,250.766 L1406.06,250.689 L1406.89,251.111 L1408.01,251.424 L1408.75,251.55 L1409.13,251.628 L1409.14,252.237 L1409.61,253.158 L1410.6,254.532 L1412.17,256 L1412.73,256.671 L1413.07,257.826 L1413.5,258.934 L1413.77,260.073 L1413.94,260.619 L1414.43,261.493 L1415.04,261.962 L1415.71,262.696 L1416.13,263.102 L1417.11,263.555 L1418.15,264.368 L1419.02,265.336 L1419.62,266.148 L1420.31,266.741 L1421.38,266.79 L1424.15,266.622 L1425.72,267.576 L1427.36,268.265 L1428.47,268.563 L1428.92,268.564 L1429.74,268.503 L1430.18,268.534 L1430.68,268.379 L1431.3,268.349 L1432.11,268.304 L1432.73,267.9 L1433.23,267.495 L1433.87,267.325 L1435.64,267.328 L1436.34,266.986 L1437.05,266.894 L1438.08,266.896 L1439.17,266.352 L1440.17,266.152 L1441.04,266.185 L1442.79,266.422 L1444.16,266.596 L1444.89,266.801 L1445.72,267.021 L1446.59,267.366 L1447.04,267.32 L1448.22,266.964 L1449.59,266.499 L1450.3,266.532 L1451.41,266.457 L1452.95,266.429 L1453.65,266.633 L1454.19,266.993 L1454.81,266.823 L1455.25,266.778 L1456.18,266.983 L1456.96,267.328 L1457.58,267.173 L1458.55,267.347 L1459.84,267.631 L1460.99,267.385 L1461.61,267.293 L1462.57,267.358 L1463.33,267.516 L1464.03,267.923 L1464.59,268.455 L1465.16,269.329 L1465.68,270.157 L1466.05,270.751 L1466.29,271.313 L1466.87,271.86 L1467.24,271.986 L1467.79,271.956 L1468.17,271.801 L1468.67,271.662 L1469.04,271.913 L1469.57,272.039 L1469.99,272.29 L1470.43,272.743 L1471.23,272.964 L1471.59,273.23 L1472.18,273.777 L1472.96,274.435 L1473.33,274.935 L1473.84,275.482 L1474.59,274.985 L1475.68,274.224 L1476.74,273.853 L1478.14,273.343 L1480.19,273.225 L1482.79,273.28 L1483.89,273.237 L1485.65,273.32 L1487.03,273.699 L1489.28,274.658 L1491.1,275.397 L1492.12,275.853 L1493.01,276.479 L1493.9,277.356 L1494.16,278.432 L1493.93,279.195 L1493.55,279.755 L1493.51,280.191 L1494.14,280.708 L1494.48,281.021 L1494.79,281.755 L1495.39,282.817 L1495.87,283.645 L1498.57,286.616 L1499.8,287.743 L1500.35,288.462 L1500.64,289.195 L1500.88,289.898 L1501.04,290.615 L1501.47,291.131 L1502.12,291.071 L1503.26,291.044 L1504.14,290.689 L1505.53,290.57 L1507.55,290.422 L1508.87,290.739 L1509.8,291.381 L1510.39,292.085 L1510.85,292.882 L1511.65,293.695 L1511.82,294.366 L1512.11,295.629 L1512.08,296.19 L1511.98,297.078 L1511.66,297.388 L1510.77,298.07 L1510.33,298.52 L1510.48,298.848 L1511.12,299.162 L1512.77,299.169 L1514.83,299.099 L1516.4,299.059 L1517.55,298.924 L1518.9,298.914 L1519.9,298.046 L1520.5,296.63 L1521.26,296.151 L1522.18,296.108 L1523.02,296.828 L1523.73,297.704 L1524.73,298.659 L1526.58,299.524 L1527.57,300.401 L1528.26,301.65 L1528.51,302.539 L1528.85,305.641 L1528.64,306.871 L1528.01,308.488 L1530.12,309.448 L1531.65,310.56 L1532.21,311.139 L1532.55,312.574 L1532.22,313.398 L1531.42,314.655 L1531.08,316.305 L1530.57,317.673 L1529.83,318.977 L1529.27,319.956 L1529.06,320.437 L1529.99,321.142 L1530.7,322.158 L1531.85,324.389 L1532.56,326.183 L1533,327.571 L1534.62,327.936 L1535.61,328.455 L1537.99,329.182 L1540.92,330.146 L1542.53,330.901 L1543.03,331.495 L1543.79,332.262 L1545.55,332.769 L1546.62,332.976 L1547.44,333.728 L1548.73,333.641 L1549.34,333.706 L1549.97,334.581 L1550.67,335.985 L1551.55,336.83 L1551.86,337.33 L1551.89,337.922 L1551.92,338.638 L1552.61,339.124 L1553.51,339.253 L1554.24,339.568 L1555.43,340.43 L1555.83,341.242 L1555.9,341.989 L1555.98,342.627 L1565.15,348.154 L1566.35,347.352 L1567.09,347.185 L1567.6,347.468 L1567.97,347.968 L1568.22,348.561 L1568.57,348.936 L1569.26,348.629 L1570.14,348.167 L1571.09,347.83 L1572.79,347.684 L1573.32,347.298 L1573.91,345.917 L1574.5,344.116 L1575.03,343.512 L1575.9,343.05 L1576.79,342.884 L1577.8,342.517 L1578.62,341.946 L1580.06,340.772 L1581.01,339.766 L1581.99,339.305 L1582.52,338.919 L1582.93,338.268 L1583.35,337.524 L1584.6,336.255 L1585.85,334.893 L1586.18,334.381 L1586.4,333.838 L1586.26,333.308 L1586.25,332.685 L1586.37,331.721 L1586.53,329.667 L1586.6,328.625 L1586.5,327.597 L1586.01,326.768 L1585.5,326.438 L1585.14,326.203 L1584.88,326.076 L1584.74,325.749 L1585.19,325.316 L1586.13,324.527 L1587.2,323.195 L1587.84,322.638 L1589.53,321.653 L1590.5,321.083 L1590.97,320.307 L1591.3,319.25 L1591.6,318.489 L1592.07,318.04 L1593.72,317.444 L1596.21,316.479 L1598.05,315.385 L1600.75,314.328 L1602.58,313.717 L1603.97,312.932 L1604.35,312.592 L1605.19,310.994 L1606.58,307.919 L1606.88,306.753 L1607.18,304.995 L1608.17,303.194 L1609.41,301.427 L1610.53,300.188 L1612.66,300.094 L1614.06,299.854 L1614.89,299.408 L1615.68,299.367 L1617.27,299.534 L1618.34,299.635 L1619.61,299.488 L1620.14,299.555 L1621.04,299.717 L1621.83,299.707 L1623.29,299.608 L1624.86,299.635 L1625.76,299.704 L1626.83,299.837 L1627.59,300.263 L1627.95,300.686 L1628.53,301.641 L1629.63,302.428 L1629.93,303.085 L1630.27,303.866 L1630.9,304.603 L1631.59,305.278 L1631.98,305.935 L1632.17,306.84 L1632.4,308.275 L1632.51,310.176 L1633.05,311.862 L1633.76,312.958 L1634.62,313.867 L1635.11,314.681 L1635.29,315.337 L1635.84,316.369 L1636.49,317.339 L1636.86,318.214 L1637.31,319.058 L1638.18,319.75 L1639.83,323.032 L1640.53,325 L1640.89,326.404 L1640.94,327.805 L1641.03,328.833 L1642.04,330.865 L1642.82,333.361 L1643.03,334.484 L1643.12,335.854 L1643.51,337.009 L1643.97,338.413 L1644.24,339.162 L1644.2,340.407 L1644.72,341.314 L1644.96,342.187 L1645.6,343.219 L1646.71,344.348 L1647.21,344.539 L1647.92,345.011 L1648.16,345.542 L1648.59,346.075 L1649.52,346.611 L1650.1,347.176 L1650.78,347.866 L1651.15,348.554 L1651.45,349.583 L1651.97,350.489 L1652.81,349.625 L1653.85,348.047 L1655.54,346.038 L1657.85,344.532 L1660.69,343.061 L1661.28,343.035 L1662.05,343.228 L1662.77,343.203 L1663.11,342.864 L1663.18,342.273 L1663.4,341.341 L1663.9,340.692 L1664.78,340.388 L1665.9,339.93 L1666.77,339.564 L1668.2,339.421 L1669.04,339.21 L1669.51,338.872 L1669.61,338.25 L1669.55,337.191 L1669.72,335.948 L1670.16,335.36 L1671.12,334.777 L1671.81,333.942 L1673.06,333.393 L1674.78,332.629 L1675.49,332.324 L1676.3,332.612 L1677.26,332.527 L1678.13,332.067 L1679.13,331.391 L1680.22,330.841 L1680.91,330.38 L1681.14,329.51 L1681.98,328.646 L1683.41,328.192 L1684.63,327.144 L1685.86,325.723 L1686.71,324.454 L1687.55,323.683 L1688.36,323.379 L1688.8,322.729 L1689.15,321.736 L1689.38,321.022 L1690.66,320.317 L1691.19,319.824 L1691.67,318.489 L1692.27,317.778 L1692.86,317.348 L1693.12,316.416 L1693.19,315.669 L1693.41,314.923 L1694.22,314.557 L1695.03,314.627 L1695.83,314.697 L1696.4,314.421 L1696.84,313.834 L1697.68,313.25 L1698.39,313.412 L1698.73,313.478 L1699.08,313.014 L1699.71,312.459 L1700.18,312.214 L1700.57,311.922 L1700.67,311.285 L1700.89,310.835 L1701.51,310.576 L1701.98,310.596 L1702.39,310.989 L1702.47,311.333 L1702.87,311.679 L1703.65,312.216 L1703.99,312.609 L1704.75,313.41 L1705.44,313.993 L1705.92,314.387 L1707.06,315.177 L1707.92,315.762 L1708.55,316.702 L1710.36,319.227 L1710.91,321.132 L1711.49,322.476 L1711.84,323.212 L1712.19,324.398 L1713.11,325.108 L1714.06,325.351 L1715.31,325.69 L1716.3,325.918 L1717.47,325.93 L1718.46,325.924 L1719.66,325.453 L1720.69,324.934 L1721.25,324.566 L1721.97,324.293 L1722.62,324.315 L1723.46,324.666 L1724.59,324.662 L1725.43,324.391 L1726.28,323.605 L1727.37,323.32 L1728.9,323.18 L1730.28,322.805 L1731.42,323.035 L1733.23,323.49 L1734.83,323.6 L1736.2,323.568 L1737.13,323.546 L1738.24,323.122 L1739.26,323.102 L1741.59,323.08 L1746.37,323.193 L1752.91,323.358 L1752.17,325.374 L1755.2,325.531 L1756.51,326.138 L1760.41,328.345 L1762.35,329.861 L1763.04,330.819 L1763.44,331.539 L1763.46,332.178 L1763.53,332.614 L1764.1,332.87 L1764.82,332.862 L1765.5,333.166 L1767.05,334.179 L1768,334.501 L1769.41,334.533 L1772.37,334.489 L1773.62,334.286 L1774.16,334.199 L1775.83,334.529 L1778.44,334.996 L1779.47,334.105 L1780.37,333.104 L1781.35,332.711 L1782.17,332.783 L1783.25,333.2 L1783.85,333.752 L1784.43,333.868 L1785.09,333.751 L1785.79,333.635 L1786.38,333.829 L1786.81,334.176 L1787.52,334.636 L1788.31,334.786 L1789.38,334.705 L1791.59,334.638 L1793.09,334.672 L1793.44,335.097 L1793.77,335.412 L1794.17,335.401 L1794.56,335.017 L1795.34,334.699 L1796.45,334.62 L1799.24,334.716 L1803.81,335.053 L1804.91,335.129 L1806.07,334.941 L1807.13,335.219 L1807.94,335.602 L1808.98,336.207 L1809.77,336.808 L1810.66,337.255 L1811.76,337.44 L1812.65,337.405 L1813.27,337.148 L1813.72,336.827 L1814.46,336.587 L1815.3,336.489 L1815.91,336.684 L1816.61,337.113 L1817.13,337.322 L1817.89,337.285 L1818.64,337.108 L1819.78,336.624 L1820.89,336.141 L1821.61,335.839 L1822.79,335.449 L1823.65,335.274 L1824.19,335.343 L1827.55,335.729 L1830.62,336.05 L1833.06,336.253 L1833.91,336.187 L1834.94,336.506 L1835.02,336.663 L1835.03,336.732 L1835.02,336.801 L1834.91,337.233 L1834.91,337.303 L1834.93,337.372 L1835,337.533 L1835.04,337.593 L1835.18,337.736 L1835.23,337.793 L1835.25,337.859 L1835.26,337.928 L1835.23,338.188 L1835.23,338.362 L1835.24,338.429 L1835.33,338.574 L1835.53,338.818 L1835.58,338.863 L1835.65,338.891 L1835.72,338.893 L1835.79,338.905 L1836,339.052 L1836.05,339.102 L1836.33,339.486 L1836.38,339.536 L1836.61,339.709 L1836.66,339.757 L1836.7,339.817 L1836.72,339.885 L1836.69,340.076 L1836.67,340.145 L1836.63,340.207 L1836.58,340.26 L1836.53,340.304 L1836.47,340.341 L1836.18,340.444 L1836.13,340.485 L1835.95,340.701 L1835.92,340.765 L1835.9,340.834 L1835.9,340.905 L1835.93,340.972 L1835.98,341.023 L1836.05,341.059 L1836.29,341.23 L1836.35,341.266 L1836.43,341.282 L1836.64,341.294 L1836.78,341.339 L1836.84,341.376 L1836.89,341.425 L1836.95,341.526 L1837.09,341.799 L1837.1,341.87 L1837.09,341.941 L1837.02,342.077 L1836.9,342.267 L1836.74,342.449 L1836.55,342.647 L1836.3,342.805 L1836.25,342.853 L1836.14,343.003 L1836.11,343.067 L1836.09,343.136 L1836.1,343.207 L1836.2,343.359 L1836.25,343.403 L1836.32,343.427 L1836.37,343.473 L1836.51,343.736 L1836.55,343.793 L1836.82,343.97 L1836.87,344.02 L1837,344.234 L1837.12,344.493 L1837.31,344.755 L1837.35,344.898 L1837.34,345.042 L1837.29,345.212 L1837.2,345.414 L1837.19,345.529 L1837.02,346.111 L1836.89,346.473 L1836.79,346.816 L1836.78,346.887 L1836.78,347.193 L1836.75,347.39 L1836.75,347.461 L1836.79,347.663 L1836.92,347.854 L1837.05,348.282 L1837.06,348.352 L1837.06,348.421 L1836.99,348.622 L1836.93,348.818 L1836.91,348.887 L1836.91,348.96 L1836.92,349.029 L1836.94,349.096 L1836.98,349.156 L1837.1,349.254 L1837.14,349.314 L1837.15,349.7 L1837.14,349.886 L1837.12,349.955 L1837.02,350.207 L1836.92,350.391 L1836.85,350.612 L1836.65,350.86 L1836.48,351.018 L1836.43,351.076 L1836.37,351.264 L1836.36,351.335 L1836.38,351.406 L1836.42,351.467 L1836.49,351.54 L1836.53,351.599 L1836.61,351.832 L1836.61,351.901 L1836.5,352.179 L1836.41,352.319 L1836.38,352.383 L1836.34,352.534 L1836.29,352.888 L1836.3,352.96 L1836.37,353.199 L1836.37,353.269 L1836.34,353.331 L1836.23,353.456 L1836.2,353.52 L1836.17,353.724 L1836.14,353.787 L1835.95,354.021 L1835.93,354.09 L1835.89,354.894 L1835.84,355.025 L1835.79,355.078 L1835.62,355.185 L1835.42,355.275 L1835.34,355.374 L1835.31,355.433 L1835.28,355.528 L1835.26,355.631 L1835.25,355.746 L1835.27,355.813 L1835.32,355.863 L1835.38,355.891 L1835.53,355.925 L1835.59,355.953 L1835.65,356.003 L1835.67,356.068 L1835.68,356.373 L1835.7,356.511 L1836.07,357.025 L1836.17,357.15 L1836.22,357.202 L1836.41,357.328 L1836.46,357.381 L1836.48,357.45 L1836.48,357.519 L1836.44,357.689 L1836.43,357.761 L1836.5,357.963 L1836.51,358.101 L1836.37,358.521 L1836.22,358.9 L1836.18,359.028 L1836.17,359.122 L1836.17,359.192 L1836.2,359.391 L1836.28,359.782 L1836.32,360.007 L1836.3,360.324 L1836.27,360.611 L1836.21,360.955 L1836.09,361.332 L1836.04,361.58 L1836.02,362.024 L1836.03,362.191 L1836.06,362.327 L1836.1,362.481 L1836.14,362.566 L1836.47,362.979 L1836.54,363.14 L1836.72,363.526 L1836.75,363.597 L1836.75,363.666 L1836.68,363.928 L1836.66,363.992 L1836.65,364.063 L1836.68,364.13 L1836.87,364.229 L1836.93,364.266 L1836.97,364.33 L1837.06,364.62 L1837.06,364.689 L1837.04,364.881 L1837.05,365.201 L1837.08,365.27 L1837.18,365.44 L1837.2,365.506 L1837.24,365.626 L1837.26,365.782 L1837.25,365.871 L1837.21,366.019 L1837.2,366.089 L1837.23,366.358 L1837.27,366.421 L1837.38,366.483 L1837.53,366.59 L1837.71,366.799 L1837.82,366.908 L1837.86,366.963 L1837.9,367.025 L1837.93,367.125 L1837.93,367.197 L1837.93,367.266 L1837.9,367.334 L1837.7,367.782 L1837.69,367.852 L1837.72,368.017 L1837.75,368.081 L1837.8,368.13 L1837.89,368.178 L1837.94,368.228 L1837.99,368.286 L1838.09,368.485 L1838.1,368.554 L1838.09,368.697 L1837.91,369.181 L1837.91,369.251 L1837.94,369.326 L1837.97,369.39 L1838.02,369.437 L1838.17,369.542 L1838.22,369.591 L1838.26,369.653 L1838.3,369.79 L1838.29,370.08 L1838.29,370.153 L1838.31,370.22 L1838.45,370.447 L1838.61,370.748 L1838.63,370.813 L1838.64,371.006 L1838.63,371.136 L1838.61,371.207 L1838.63,371.277 L1838.78,371.449 L1838.87,371.495 L1838.94,371.506 L1838.99,371.55 L1839.12,371.784 L1839.3,371.995 L1839.4,372.163 L1839.44,372.276 L1839.47,372.383 L1839.46,372.549 L1839.42,372.854 L1839.41,372.926 L1839.52,373.225 L1839.65,373.613 L1839.68,373.681 L1839.73,373.732 L1839.93,373.819 L1840,373.84 L1840.06,373.886 L1840.3,374.311 L1840.31,374.382 L1840.31,374.626 L1840.34,374.69 L1840.42,374.81 L1840.61,375.269 L1840.64,375.333 L1840.69,375.384 L1841.25,375.719 L1841.32,375.744 L1841.39,375.731 L1841.57,375.655 L1841.71,375.645 L1841.78,375.664 L1842.08,375.91 L1842.27,376.156 L1842.3,376.224 L1842.32,376.362 L1842.32,376.431 L1842.27,376.664 L1842.17,376.908 L1842.15,376.977 L1842.15,377.141 L1842.19,377.774 L1842.13,378.138 L1842.1,378.2 L1842.05,378.255 L1841.83,378.401 L1841.78,378.447 L1841.73,378.579 L1841.73,378.65 L1841.74,378.721 L1841.84,378.974 L1841.89,379.286 L1841.89,379.511 L1841.92,379.576 L1842.01,379.673 L1844.1,380.82 L1845.69,380.909 L1846.63,381.03 L1847.71,380.765 L1848.93,380.02 L1850.42,379.466 L1851.9,379.237 L1855.19,379.796 L1856.83,380.285 L1857.87,379.973 L1860.08,380.33 L1864.66,384.203 L1869.3,386.367 L1874.57,387.376 L1877.65,387.7 L1881.05,387.89 L1887.15,388.648 L1891.94,389.263 L1893.16,389.67 L1895.77,391.356 L1897.41,392.779 L1898.32,394.285 L1898.47,395.421 L1898.45,397.674 L1897.12,400.435 L1895.4,402.646 L1893.19,409.537 L1892.85,410.259 L1873.58,426.809 L1896.44,452.611 L1867.13,487.24 L1857.85,503.65 L1837.6,530.81 L1818.47,562.27 L1803.65,569.4 L1760.42,641.6 L1770.15,702.258 L1813.27,745.601 L1835.22,766.31 L1873.92,800.713 L1885.69,815.651 L1902.33,832.965 L1936.05,833.758 L1980.64,828.326 L2011.53,839.755 L2046.28,823.459 L2072.64,840.548 L2132.4,862.049 L2145.3,874.158 L2183.32,901.092 L2196.22,910.372 L2207.77,920.896 L2220.89,939.795 L2245,954.959 L2262.43,967.521 L2275.1,972.613 L2314.6,965.597 L2346.74,972.727 L2378.31,950.659 L2408.41,936.966 L2425.73,952.017 L2490.54,941.945 L2509.55,949.046 L2514.76,972.359 L2569.65,996.463 L2604.05,974.509 L2635.85,961.042 L2658.26,899.027 L2709.97,888.502 L2724.91,895.858 L2734.53,902.195 L2743.7,895.745 L2752.98,888.842 L2778.55,886.352 L2789.76,881.486 L2789.08,872.659 L2817.93,865.077 L2823.71,878.657 L2818.5,894.5 L2818.61,912.72 L2818.39,917.586 L2813.41,923.244 L2823.14,939.427 L2825.74,985.147 L2827.44,1028.49 L2862.18,1070.14 L2867.73,1089.83 L2860.82,1115.97 L2857.66,1117.21 L2852.56,1125.36 L2847.47,1149.92 L2844.75,1151.84 L2839.44,1161.12 L2835.59,1163.05 L2834,1166.67 L2834.68,1172.32 L2833.89,1177.76 L2831.29,1182.4 L2813.07,1201.3 L2810.8,1208.43 L2808.65,1223.59 L2809.33,1231.74 L2807.75,1238.41 L2808.2,1244.86 L2804.81,1281.42 L2805.49,1322.38 L2799.54,1330.87 L2799.43,1332.97 L2800.62,1335.51 L2802.77,1343.55 L2803.84,1346.94 L2806.45,1348.3 L2808.71,1348.7 L2811.82,1347.9 L2813.35,1347.05 L2814.09,1347.79 L2813.18,1353.11 L2813.63,1358.2 L2815.67,1362.64 L2818.84,1367.99 L2819.07,1373.85 L2816.18,1380.27 L2818.87,1388.3 L2824.5,1404.49 L2814.31,1441.83 L2808.85,1464.49 L2779.37,1469.16"/>
  </g>
  <g stroke-width="1" transform="matrix(0.999744,0,0,0.999744,0,0)" stroke="#000000" font-style="normal" stroke-opacity="1" stroke-linecap="square" stroke-linejoin="bevel" font-size="34.5833" font-weight="400" fill="none" font-family="MS Shell Dlg 2"/>
  <g stroke-width="1" transform="matrix(11.808,0,0,11.808,0,0)" stroke="#000000" font-style="normal" stroke-opacity="1" stroke-linecap="square" stroke-linejoin="bevel" font-size="34.5833" font-weight="400" fill="none" font-family="MS Shell Dlg 2"/>
  <g stroke-width="1" transform="matrix(11.808,0,0,11.808,0,0)" stroke="#000000" font-style="normal" stroke-opacity="1" stroke-linecap="square" stroke-linejoin="bevel" font-size="34.5833" font-weight="400" fill="none" font-family="MS Shell Dlg 2"/>
  <g stroke-width="1" transform="matrix(11.808,0,0,11.808,0,0)" stroke="#000000" font-style="normal" stroke-opacity="1" stroke-linecap="square" stroke-linejoin="bevel" font-size="34.5833" font-weight="400" fill="none" font-family="MS Shell Dlg 2"/>
  <g stroke-width="1" transform="matrix(1,0,0,1,0,0)" stroke="#000000" font-style="normal" stroke-opacity="1" stroke-linecap="square" stroke-linejoin="bevel" font-size="34.5833" font-weight="400" fill="none" font-family="MS Shell Dlg 2"/>
  <g stroke-width="1" transform="matrix(11.808,0,0,11.808,0,0)" stroke="#000000" font-style="normal" stroke-opacity="1" stroke-linecap="square" stroke-linejoin="bevel" font-size="34.5833" font-weight="400" fill="none" font-family="MS Shell Dlg 2"/>
  <g stroke-width="1" transform="matrix(11.808,0,0,11.808,0,0)" stroke="#000000" font-style="normal" stroke-opacity="1" stroke-linecap="square" stroke-linejoin="bevel" font-size="34.5833" font-weight="400" fill="none" font-family="MS Shell Dlg 2"/>
  <g stroke-width="1" transform="matrix(11.808,0,0,11.808,0,0)" stroke="#000000" font-style="normal" stroke-opacity="1" stroke-linecap="square" stroke-linejoin="bevel" font-size="34.5833" font-weight="400" fill="none" font-family="MS Shell Dlg 2"/>
  <g stroke-width="1" transform="matrix(11.808,0,0,11.808,0,0)" stroke="#000000" font-style="normal" stroke-opacity="1" stroke-linecap="square" stroke-linejoin="bevel" font-size="34.5833" font-weight="400" fill="none" font-family="MS Shell Dlg 2"/>
  <g stroke-width="1" transform="matrix(1,0,0,1,0,0)" stroke="#000000" font-style="normal" stroke-opacity="1" stroke-linecap="square" stroke-linejoin="bevel" font-size="34.5833" font-weight="400" fill="none" font-family="MS Shell Dlg 2"/>
 </g>
</svg>
