<?xml version='1.0' encoding='UTF-8' standalone='no'?>
<svg baseProfile="tiny" viewBox="0 0 2952 2952" xmlns="http://www.w3.org/2000/svg" xmlns:xlink="http://www.w3.org/1999/xlink" version="1.2" height="249.936mm" width="249.936mm">
 <title>Qt SVG Document</title>
 <desc>Generated with Qt</desc>
 <defs/>
 <g stroke-width="1" stroke="black" stroke-linecap="square" stroke-linejoin="bevel" fill="none" fill-rule="evenodd">
  <g stroke-width="1" transform="matrix(1,0,0,1,0,0)" stroke="#000000" font-style="normal" stroke-opacity="1" stroke-linecap="square" stroke-linejoin="bevel" font-size="34.5833" font-weight="400" fill="none" font-family="MS Shell Dlg 2"/>
  <g stroke-width="1" transform="matrix(1,0,0,1,0,0)" stroke="#000000" font-style="normal" stroke-opacity="1" stroke-linecap="square" stroke-linejoin="bevel" font-size="34.5833" font-weight="400" fill="none" font-family="MS Shell Dlg 2"/>
  <g stroke-width="1" transform="matrix(11.808,0,0,11.808,0,0)" stroke="#000000" font-style="normal" stroke-opacity="1" stroke-linecap="square" stroke-linejoin="bevel" font-size="34.5833" font-weight="400" fill="none" font-family="MS Shell Dlg 2"/>
  <g stroke-width="1" transform="matrix(0.999744,0,0,0.999744,0,0)" stroke="#000000" font-style="normal" stroke-opacity="1" stroke-linecap="square" stroke-linejoin="bevel" font-size="34.5833" font-weight="400" fill="none" font-family="MS Shell Dlg 2"/>
  <g transform="matrix(0.999744,0,0,0.999744,0,0)" stroke="none" font-style="normal" font-size="34.5833" font-weight="400" fill="#ffffff" fill-opacity="0" font-family="MS Shell Dlg 2">
   <path vector-effect="none" fill-rule="evenodd" d="M-2,-2 L2955,-2 L2955,2955 L-2,2955 L-2,-2"/>
  </g>
  <g stroke-width="1" transform="matrix(0.999744,0,0,0.999744,0,0)" stroke="#000000" font-style="normal" stroke-opacity="1" stroke-linecap="square" stroke-linejoin="bevel" font-size="34.5833" font-weight="400" fill="none" font-family="MS Shell Dlg 2"/>
  <g stroke-width="1" transform="matrix(11.808,0,0,11.808,0,0)" stroke="#000000" font-style="normal" stroke-opacity="1" stroke-linecap="square" stroke-linejoin="bevel" font-size="34.5833" font-weight="400" fill="none" font-family="MS Shell Dlg 2"/>
  <g stroke-width="1" transform="matrix(11.808,0,0,11.808,0,0)" stroke="#000000" font-style="normal" stroke-opacity="1" stroke-linecap="square" stroke-linejoin="bevel" font-size="34.5833" font-weight="400" fill="none" font-family="MS Shell Dlg 2"/>
  <g stroke-width="1" transform="matrix(11.808,0,0,11.808,0,0)" stroke="#000000" font-style="normal" stroke-opacity="1" stroke-linecap="square" stroke-linejoin="bevel" font-size="34.5833" font-weight="400" fill="none" font-family="MS Shell Dlg 2"/>
  <g stroke-width="1" transform="matrix(11.808,0,0,11.808,0,0)" stroke="#000000" font-style="normal" stroke-opacity="1" stroke-linecap="square" stroke-linejoin="bevel" font-size="34.5833" font-weight="400" fill="none" font-family="MS Shell Dlg 2"/>
  <g stroke-width="1" transform="matrix(11.808,0,0,11.808,0,0)" stroke="#000000" font-style="normal" stroke-opacity="1" stroke-linecap="square" stroke-linejoin="bevel" font-size="34.5833" font-weight="400" fill="none" font-family="MS Shell Dlg 2"/>
  <g transform="matrix(11.808,0,0,11.808,0,0)" stroke="none" font-style="normal" font-size="34.5833" font-weight="400" fill="#ffffff" fill-opacity="0" font-family="MS Shell Dlg 2">
   <path vector-effect="none" fill-rule="evenodd" d="M0,0 L250,0 L250,250 L0,250 L0,0"/>
  </g>
  <g stroke-width="1" transform="matrix(11.808,0,0,11.808,0,0)" stroke="#000000" font-style="normal" stroke-opacity="1" stroke-linecap="square" stroke-linejoin="bevel" font-size="34.5833" font-weight="400" fill="none" font-family="MS Shell Dlg 2"/>
  <g stroke-width="1" transform="matrix(11.808,0,0,11.808,0,0)" stroke="#000000" font-style="normal" stroke-opacity="1" stroke-linecap="square" stroke-linejoin="bevel" font-size="34.5833" font-weight="400" fill="none" font-family="MS Shell Dlg 2"/>
  <g transform="matrix(0.999744,0,0,0.999744,0,0)" stroke="none" font-style="normal" font-size="34.5833" font-weight="400" fill="#000000" fill-opacity="0" font-family="MS Shell Dlg 2">
   <rect y="0" height="2953" x="0" width="2953"/>
  </g>
  <g stroke-width="1" transform="matrix(0.999744,0,0,0.999744,0,0)" stroke="#000000" font-style="normal" stroke-opacity="1" stroke-linecap="square" stroke-linejoin="bevel" font-size="34.5833" font-weight="400" fill="none" font-family="MS Shell Dlg 2"/>
  <g stroke-width="3.07087" transform="matrix(0.999744,0,0,0.999744,0,0)" stroke="#5c5c5c" font-style="normal" stroke-opacity="1" stroke-linecap="square" stroke-linejoin="bevel" font-size="34.5833" font-weight="400" fill="#c5c5c5" fill-opacity="1" font-family="MS Shell Dlg 2">
   <path vector-effect="none" fill-rule="evenodd" d="M501.177,670.29 L646.086,668.144 L722.793,591.635 L970.819,562.199 L1096.17,572.356 L1451.6,646.524 L1564.34,645.614 L1907.53,453.032 L2004.38,310.792 L2012.2,163.875 L2014.58,166.032 L2015.13,170.821 L2015.74,173.037 L2016.88,175.04 L2022.36,177.805 L2029.75,179.74 L2030.48,180.955 L2031.16,183.728 L2031.55,187.134 L2032.5,188.255 L2033.94,189.282 L2043.12,190.264 L2046.22,194.547 L2048.1,195.751 L2050.09,196.064 L2052.15,195.89 L2053.97,195.306 L2055.96,193.824 L2059.08,190.172 L2061.57,188.608 L2064.86,188.778 L2068.94,192.269 L2070.66,193.543 L2073.03,196.694 L2078.1,207.85 L2080.29,209.195 L2092.31,209.819 L2093.96,209.027 L2095.68,206.934 L2097.6,204.793 L2098.45,204.293 L2100.07,204.549 L2101.62,204.993 L2104.02,206.333 L2105.89,206.188 L2107.28,206.09 L2108.45,206.32 L2109.83,207.572 L2111.99,213.488 L2114.03,215.744 L2119.86,220.677 L2124.31,221.499 L2127.17,222.556 L2130.3,223.738 L2133.47,226.26 L2135.69,229.605 L2136.71,234.463 L2141.31,237.53 L2145.81,238.789 L2149.24,238.254 L2152.47,235.237 L2155.93,230.457 L2157.77,229.823 L2161.49,230.032 L2164.19,228.313 L2167.57,228.487 L2171.45,225.821 L2173.27,225.845 L2178.81,228.177 L2182.54,228.293 L2184.03,227.807 L2185.06,226.395 L2185.91,225.848 L2187.96,226.367 L2189.36,227.392 L2190.52,228.576 L2197.65,232.581 L2185.66,540.683 L2356.91,476.595 L2420.55,438.363 L2452.06,477.476 L2417.89,548.441 L2356.24,792.674 L2328.75,834.545 L2327.74,1054.25 L2343.28,1149.79 L2332.66,1172.11 L2293.88,1301.08 L1925.21,1920.53 L1813.22,2046.88 L1756.01,2109.03 L1727.41,2140.21 L1732.3,2148.99 L1737.08,2156.72 L1741,2161.45 L1745.35,2164.18 L1764.83,2174.47 L1768.08,2180.16 L1780.52,2196.19 L1784.58,2200.83 L1788.89,2204.22 L1810.71,2212.74 L1821.14,2216.85 L1828.74,2219.29 L1833.56,2223.14 L1837.53,2228.29 L1838.54,2231.05 L1840.54,2233.38 L1847.91,2252.04 L1857,2273.86 L1860.16,2287.92 L1860.25,2300.17 L1863.03,2310.12 L1864.08,2318.93 L1865.8,2326.01 L1762.2,2541.15 L1580.42,2580.77 L1371.86,2664.72 L1327.64,2729.4 L1194.74,2666.51 L1186.39,2606.13 L1141.58,2574.46 L1140.29,2562.19 L1024.11,2441.89 L911.994,2284.3 L1062.12,2180.6 L1093.4,2038.99 L1094.33,1978.68 L1133.55,1878.75 L1167.16,1810.44 L1160.27,1751.84 L1149.45,1722.62 L1152.65,1677.63 L1052.13,1549.66 L932.111,1341.14 L970.271,1256.19 L992.566,1222.74 L1122.22,1163.83 L1065.72,1047.35 L1061.55,1042.38 L1056.63,1039.32 L1046.77,1035.58 L1030.43,1032.02 L1026.41,1031.09 L1023.14,1030.96 L1015.85,1030.83 L1012.7,1030.41 L1010.29,1029.42 L1008.41,1028.28 L985.942,1008.65 L955.831,982.638 L945.716,969.555 L940.711,964.732 L914.343,940.542 L901.152,928.536 L899.14,926.736 L895.378,924.34 L827.114,882.608 L785.171,857.002 L770.659,848.139 L756.576,839.392 L747.671,834.741 L690.626,799.752 L677.612,771.238 L654.648,741.958 L615.226,714.975 L591.879,713.061 L567.467,694.044 L560.817,690.862 L553.414,689.571 L542.9,690.456 L527.722,691.329 L526.042,691.048 L521.975,689.23 L519.32,687.771 L511.046,680.747 L501.885,672.479 L501.177,670.29"/>
  </g>
  <g stroke-width="1" transform="matrix(0.999744,0,0,0.999744,0,0)" stroke="#000000" font-style="normal" stroke-opacity="1" stroke-linecap="square" stroke-linejoin="bevel" font-size="34.5833" font-weight="400" fill="none" font-family="MS Shell Dlg 2"/>
  <g stroke-width="1" transform="matrix(11.808,0,0,11.808,0,0)" stroke="#000000" font-style="normal" stroke-opacity="1" stroke-linecap="square" stroke-linejoin="bevel" font-size="34.5833" font-weight="400" fill="none" font-family="MS Shell Dlg 2"/>
  <g stroke-width="1" transform="matrix(11.808,0,0,11.808,0,0)" stroke="#000000" font-style="normal" stroke-opacity="1" stroke-linecap="square" stroke-linejoin="bevel" font-size="34.5833" font-weight="400" fill="none" font-family="MS Shell Dlg 2"/>
  <g stroke-width="1" transform="matrix(11.808,0,0,11.808,0,0)" stroke="#000000" font-style="normal" stroke-opacity="1" stroke-linecap="square" stroke-linejoin="bevel" font-size="34.5833" font-weight="400" fill="none" font-family="MS Shell Dlg 2"/>
  <g stroke-width="1" transform="matrix(1,0,0,1,0,0)" stroke="#000000" font-style="normal" stroke-opacity="1" stroke-linecap="square" stroke-linejoin="bevel" font-size="34.5833" font-weight="400" fill="none" font-family="MS Shell Dlg 2"/>
  <g stroke-width="1" transform="matrix(11.808,0,0,11.808,0,0)" stroke="#000000" font-style="normal" stroke-opacity="1" stroke-linecap="square" stroke-linejoin="bevel" font-size="34.5833" font-weight="400" fill="none" font-family="MS Shell Dlg 2"/>
  <g stroke-width="1" transform="matrix(11.808,0,0,11.808,0,0)" stroke="#000000" font-style="normal" stroke-opacity="1" stroke-linecap="square" stroke-linejoin="bevel" font-size="34.5833" font-weight="400" fill="none" font-family="MS Shell Dlg 2"/>
  <g stroke-width="1" transform="matrix(11.808,0,0,11.808,0,0)" stroke="#000000" font-style="normal" stroke-opacity="1" stroke-linecap="square" stroke-linejoin="bevel" font-size="34.5833" font-weight="400" fill="none" font-family="MS Shell Dlg 2"/>
  <g stroke-width="1" transform="matrix(11.808,0,0,11.808,0,0)" stroke="#000000" font-style="normal" stroke-opacity="1" stroke-linecap="square" stroke-linejoin="bevel" font-size="34.5833" font-weight="400" fill="none" font-family="MS Shell Dlg 2"/>
  <g stroke-width="1" transform="matrix(1,0,0,1,0,0)" stroke="#000000" font-style="normal" stroke-opacity="1" stroke-linecap="square" stroke-linejoin="bevel" font-size="34.5833" font-weight="400" fill="none" font-family="MS Shell Dlg 2"/>
 </g>
</svg>
