<?xml version='1.0' encoding='UTF-8' standalone='no'?>
<svg baseProfile="tiny" viewBox="0 0 2952 2952" xmlns="http://www.w3.org/2000/svg" xmlns:xlink="http://www.w3.org/1999/xlink" version="1.2" height="249.936mm" width="249.936mm">
 <title>Qt SVG Document</title>
 <desc>Generated with Qt</desc>
 <defs/>
 <g stroke-width="1" stroke="black" stroke-linecap="square" stroke-linejoin="bevel" fill="none" fill-rule="evenodd">
  <g stroke-width="1" transform="matrix(1,0,0,1,0,0)" stroke="#000000" font-style="normal" stroke-opacity="1" stroke-linecap="square" stroke-linejoin="bevel" font-size="34.5833" font-weight="400" fill="none" font-family="MS Shell Dlg 2"/>
  <g stroke-width="1" transform="matrix(1,0,0,1,0,0)" stroke="#000000" font-style="normal" stroke-opacity="1" stroke-linecap="square" stroke-linejoin="bevel" font-size="34.5833" font-weight="400" fill="none" font-family="MS Shell Dlg 2"/>
  <g stroke-width="1" transform="matrix(11.808,0,0,11.808,0,0)" stroke="#000000" font-style="normal" stroke-opacity="1" stroke-linecap="square" stroke-linejoin="bevel" font-size="34.5833" font-weight="400" fill="none" font-family="MS Shell Dlg 2"/>
  <g stroke-width="1" transform="matrix(0.999744,0,0,0.999744,0,0)" stroke="#000000" font-style="normal" stroke-opacity="1" stroke-linecap="square" stroke-linejoin="bevel" font-size="34.5833" font-weight="400" fill="none" font-family="MS Shell Dlg 2"/>
  <g transform="matrix(0.999744,0,0,0.999744,0,0)" stroke="none" font-style="normal" font-size="34.5833" font-weight="400" fill="#ffffff" fill-opacity="0" font-family="MS Shell Dlg 2">
   <path vector-effect="none" fill-rule="evenodd" d="M-2,-2 L2955,-2 L2955,2955 L-2,2955 L-2,-2"/>
  </g>
  <g stroke-width="1" transform="matrix(0.999744,0,0,0.999744,0,0)" stroke="#000000" font-style="normal" stroke-opacity="1" stroke-linecap="square" stroke-linejoin="bevel" font-size="34.5833" font-weight="400" fill="none" font-family="MS Shell Dlg 2"/>
  <g stroke-width="1" transform="matrix(11.808,0,0,11.808,0,0)" stroke="#000000" font-style="normal" stroke-opacity="1" stroke-linecap="square" stroke-linejoin="bevel" font-size="34.5833" font-weight="400" fill="none" font-family="MS Shell Dlg 2"/>
  <g stroke-width="1" transform="matrix(11.808,0,0,11.808,0,0)" stroke="#000000" font-style="normal" stroke-opacity="1" stroke-linecap="square" stroke-linejoin="bevel" font-size="34.5833" font-weight="400" fill="none" font-family="MS Shell Dlg 2"/>
  <g stroke-width="1" transform="matrix(11.808,0,0,11.808,0,0)" stroke="#000000" font-style="normal" stroke-opacity="1" stroke-linecap="square" stroke-linejoin="bevel" font-size="34.5833" font-weight="400" fill="none" font-family="MS Shell Dlg 2"/>
  <g stroke-width="1" transform="matrix(11.808,0,0,11.808,0,0)" stroke="#000000" font-style="normal" stroke-opacity="1" stroke-linecap="square" stroke-linejoin="bevel" font-size="34.5833" font-weight="400" fill="none" font-family="MS Shell Dlg 2"/>
  <g stroke-width="1" transform="matrix(11.808,0,0,11.808,0,0)" stroke="#000000" font-style="normal" stroke-opacity="1" stroke-linecap="square" stroke-linejoin="bevel" font-size="34.5833" font-weight="400" fill="none" font-family="MS Shell Dlg 2"/>
  <g transform="matrix(11.808,0,0,11.808,0,0)" stroke="none" font-style="normal" font-size="34.5833" font-weight="400" fill="#ffffff" fill-opacity="0" font-family="MS Shell Dlg 2">
   <path vector-effect="none" fill-rule="evenodd" d="M0,0 L250,0 L250,250 L0,250 L0,0"/>
  </g>
  <g stroke-width="1" transform="matrix(11.808,0,0,11.808,0,0)" stroke="#000000" font-style="normal" stroke-opacity="1" stroke-linecap="square" stroke-linejoin="bevel" font-size="34.5833" font-weight="400" fill="none" font-family="MS Shell Dlg 2"/>
  <g stroke-width="1" transform="matrix(11.808,0,0,11.808,0,0)" stroke="#000000" font-style="normal" stroke-opacity="1" stroke-linecap="square" stroke-linejoin="bevel" font-size="34.5833" font-weight="400" fill="none" font-family="MS Shell Dlg 2"/>
  <g transform="matrix(0.999744,0,0,0.999744,0,0)" stroke="none" font-style="normal" font-size="34.5833" font-weight="400" fill="#000000" fill-opacity="0" font-family="MS Shell Dlg 2">
   <rect y="0" height="2953" x="0" width="2953"/>
  </g>
  <g stroke-width="1" transform="matrix(0.999744,0,0,0.999744,0,0)" stroke="#000000" font-style="normal" stroke-opacity="1" stroke-linecap="square" stroke-linejoin="bevel" font-size="34.5833" font-weight="400" fill="none" font-family="MS Shell Dlg 2"/>
  <g stroke-width="3.07087" transform="matrix(0.999744,0,0,0.999744,0,0)" stroke="#5c5c5c" font-style="normal" stroke-opacity="1" stroke-linecap="square" stroke-linejoin="bevel" font-size="34.5833" font-weight="400" fill="#c5c5c5" fill-opacity="1" font-family="MS Shell Dlg 2">
   <path vector-effect="none" fill-rule="evenodd" d="M1513.75,2340.12 L1433.01,2341.82 L1390.08,2338.76 L1380.2,2346.25 L1350.56,2363.63 L1294,2359.88 L1208.82,2361.24 L1187.36,2358.86 L1110.02,2384.07 L1045.29,2312.18 L1018.37,2273.68 L942.395,2233.48 L931.833,2172.83 L950.231,2053.59 L845.977,1994.31 L759.438,1930.25 L711.74,1881.87 L668.811,1864.16 L608.167,1858.71 L482.641,1832.27 L414.139,1810.11 L323.789,1839.96 L324.79,1806.08 L326.152,1762.47 L327.558,1712.44 L287.191,1660.45 L280.156,1635.05 L269.773,1607.54 L268.449,1600.27 L264.43,1578.21 L260.846,1534.04 L253.178,1493.9 L255.484,1455.2 L261.7,1434.6 L263.478,1419.75 L263.427,1409.91 L262.325,1400.34 L257.435,1379.21 L253.294,1368.2 L245.304,1356.23 L234.942,1337.76 L222.61,1311.61 L210.299,1289.57 L205.831,1280 L196.873,1260.83 L186.471,1242.18 L176.576,1226.92 L169.871,1207.66 L161.034,1186.76 L156.745,1169.45 L156.233,1161.6 L157.924,1150.12 L161.313,1141.01 L170.085,1124.53 L173.667,1115.22 L176.284,1102.94 L176.069,1094.47 L174.16,1086.95 L171.136,1080.21 L162.857,1068.96 L150.203,1046.54 L143.04,1024.95 L141.002,1011.11 L139.093,973.571 L133.968,937.818 L131.994,929.531 L128.477,922.194 L125.882,919.069 L116.531,911.302 L97.6997,897.703 L72.8205,883.012 L72.0355,882.496 L76.0217,881.138 L80.871,878.763 L84.7715,876.981 L89.1639,874.011 L93.0644,872.607 L97.9488,870.716 L100.865,869.312 L105.258,867.529 L112.075,864.612 L114.991,862.829 L118.4,861.317 L131.577,856.67 L134.494,855.264 L141.803,852.941 L150.623,847.319 L155.051,843.426 L158.002,841.047 L162.395,838.722 L171.215,832.503 L177.083,830.177 L183.9,828.878 L187.309,828.446 L188.749,827.472 L191.701,826.552 L195.602,825.145 L198.36,824.445 L199.01,824.28 L201.927,824.334 L209.13,822.981 L215.069,822.224 L225.294,818.923 L235.59,813.24 L240.018,811.886 L244.375,811.02 L247.292,811.562 L254.53,812.753 L256.006,812.698 L260.82,813.781 L268.094,814.864 L273.436,814.972 L275.825,815.459 L281.131,817.083 L283.987,818.25 L284.996,818.652 L289.354,818.76 L296.698,816.541 L299.579,816.541 L303.937,818.111 L306.818,818.652 L311.175,819.734 L315.498,821.845 L318.414,821.791 L321.331,820.438 L321.858,819.843 L322.842,818.003 L321.928,816.163 L323.439,814.16 L327.34,813.24 L330.713,814.376 L332.083,818.219 L334.93,819.789 L338.83,818.869 L340.833,817.083 L343.679,817.028 L346.666,816.054 L349.549,815.877 L351.059,815.784 L352.535,814.918 L354.01,814.376 L355.416,815.405 L356.857,815.892 L358.333,815.459 L362.76,813.619 L367.188,810.371 L369.683,807.447 L371.194,806.527 L372.67,805.065 L376.64,801.275 L382.122,796.075 L389.572,789.954 L392.067,786.974 L394.983,786.649 L397.9,786.27 L400.851,784.861 L401.87,783.398 L402.89,781.989 L404.892,779.117 L406.368,778.195 L410.761,778.304 L413.677,777.87 L416.137,776.406 L422.568,772.178 L424.008,772.287 L429.842,773.425 L434.269,771.094 L437.326,766.323 L440.243,765.455 L445.83,756.831 L448.922,751.027 L451.031,744.732 L450.679,739.359 L457.356,727.849 L459.921,722.038 L461.959,719.159 L465.016,714.867 L469.901,697.421 L471.447,694.54 L472.923,693.126 L475.453,690.244 L476.929,689.319 L479.915,687.905 L480.934,686.491 L480.021,683.554 L480.126,680.617 L480.724,676.21 L481.848,671.857 L486.346,667.503 L487.365,666.196 L488.419,663.203 L489.965,660.317 L492.636,653.075 L497.239,645.831 L501.569,641.06 L517.174,630.862 L554.13,607.891 L563.126,601.78 L576.514,595.341 L591.351,587.4 L594.984,568.823 L596.579,566.563 L598.054,566.126 L606.945,564.432 L612.47,563.486 L618.752,562.41 L632.806,560.433 L640.925,559.295 L648.339,557.054 L649.85,556.125 L653.891,552.299 L655.964,549.456 L664.714,537.972 L667.279,535.073 L674.413,527.96 L675.959,525.06 L679.684,517.945 L682.776,513.511 L685.798,511.157 L688.855,510.281 L696.234,508.09 L697.204,507.6 L705.23,503.545 L709.728,501.628 L721.675,497.739 L730.601,495.602 L733.588,494.726 L739.596,491.055 L742.654,488.698 L745.676,486.452 L769.246,468.545 L776.212,462.491 L780.464,460.736 L792.378,451.8 L798.047,451.556 L802.179,447.635 L808.738,438.577 L813.289,436.435 L821.155,431.974 L838.901,418.956 L895.264,397.133 L919.968,412.581 L920.987,413.515 L930.509,418.626 L940.559,424.175 L956.899,426.592 L969.501,423.649 L976.437,422.032 L993.058,417.527 L1005.85,416.648 L1022.26,419.065 L1023.19,419.317 L1040.57,424.01 L1049.98,427.141 L1061.37,428.24 L1068.29,429.558 L1077.25,433.237 L1096.3,444.438 L1096.3,445.042 L1104.73,447.731 L1115.2,452.396 L1122.69,456.621 L1130.24,462.381 L1138.89,473.898 L1141.29,477.331 L1147.07,485.575 L1151.68,492.425 L1151.4,500.752 L1155.47,506.557 L1158.99,510.39 L1173.01,520.846 L1186.64,536.276 L1202.28,554.048 L1206.28,558.475 L1231.16,574.539 L1233.13,575.467 L1244.02,581.092 L1254.39,584.805 L1257.18,585.616 L1293.2,596.127 L1296.28,598.561 L1297.26,599.106 L1305.66,602.872 L1313.04,604.181 L1321.23,604.836 L1337.04,606.09 L1341.92,606.581 L1357.7,612.691 L1367.43,614.325 L1376.48,614.385 L1389.23,613.492 L1389.35,613.566 L1389.54,613.74 L1394.03,611.023 L1411.28,602.623 L1424.01,592.489 L1442.11,583.079 L1453.93,576.926 L1461.29,573.228 L1472.99,568.147 L1477.84,564.65 L1489.51,557.601 L1500.02,547.651 L1504.55,544.644 L1523.1,539.011 L1544.25,535.368 L1560.86,532.52 L1561.76,532.666 L1567.69,536.057 L1578.06,543.824 L1599.74,554.43 L1618.93,562.574 L1664.12,580.983 L1665.59,581.966 L1699.17,587.423 L1727.37,632.958 L1729.79,636.371 L1710.4,676.264 L1692.95,711.791 L1675.77,749.928 L1648.48,812.231 L1644.62,821.042 L1593.44,937.924 L1577.11,971.249 L1575.76,974.456 L1564.92,999.968 L1551.7,1032.04 L1541.92,1053.25 L1535.9,1066.26 L1518.66,1103.67 L1506.13,1132.81 L1491.77,1164.17 L1504.56,1191.33 L1499.09,1203.43 L1497.94,1203.8 L1489.57,1217.09 L1487.61,1218.22 L1485.3,1220.47 L1486.12,1223 L1459.44,1263.88 L1459.09,1264.08 L1455.7,1269.23 L1439.54,1291.71 L1439.07,1292.35 L1429.23,1307.87 L1428.22,1309.35 L1421.32,1320.55 L1412.17,1334.53 L1405.61,1344.83 L1403.99,1347.75 L1413.36,1488.32 L1320.07,1538.65 L1311.1,1543 L1312.42,1552.22 L1312.71,1552.18 L1313.6,1551.82 L1314.01,1551.97 L1314.04,1553.11 L1314.82,1553.01 L1315.01,1552.57 L1314.61,1551.81 L1315.13,1551.67 L1315.76,1552.34 L1315.67,1553.34 L1316.45,1553.7 L1316.4,1554.71 L1316.07,1555.53 L1315.8,1555.76 L1315.63,1555.82 L1315.3,1556.02 L1315.13,1556.3 L1315.14,1556.49 L1315.28,1556.81 L1315.39,1556.94 L1315.67,1557.05 L1315.78,1557.04 L1315.96,1556.93 L1316.04,1556.95 L1316.07,1557 L1315.93,1558.02 L1315.63,1558.62 L1315.39,1559.05 L1315.31,1559.1 L1315.2,1559.21 L1314.92,1559.4 L1314.66,1559.48 L1314.59,1559.53 L1314.57,1559.83 L1314.73,1560.08 L1314.9,1560.18 L1315,1560.31 L1315.04,1560.62 L1315.01,1560.81 L1314.91,1560.96 L1314.65,1561.09 L1314.09,1561.28 L1313.62,1561.25 L1313.33,1561.34 L1313.24,1561.55 L1313.33,1561.73 L1313.3,1561.89 L1313.26,1562.13 L1313.37,1562.31 L1313.49,1562.56 L1313.49,1562.7 L1313.37,1562.79 L1313.15,1562.87 L1312.55,1563 L1312.06,1563.24 L1311.84,1563.51 L1311.85,1563.61 L1311.87,1563.8 L1311.8,1564.05 L1311.69,1564.19 L1311.51,1564.3 L1311.33,1564.53 L1311.19,1564.62 L1311.09,1564.6 L1310.99,1564.51 L1310.91,1564.51 L1310.84,1564.59 L1310.82,1564.82 L1310.83,1565.1 L1311.12,1565.37 L1311.16,1565.45 L1311.38,1565.98 L1311.62,1566.21 L1311.91,1566.71 L1311.97,1567.07 L1312.26,1567.51 L1312.82,1567.92 L1313.05,1568.01 L1313.29,1567.95 L1313.5,1568.01 L1313.94,1568.48 L1314.06,1568.82 L1314,1568.9 L1313.89,1568.95 L1313.68,1568.98 L1313.54,1569.05 L1313.51,1569.19 L1313.6,1569.31 L1313.88,1569.38 L1314.5,1569.56 L1328.71,1662.65 L1329.2,1665.69 L1354.13,1690.03 L1386.56,1721.78 L1424.76,1759.58 L1451.54,1786.03 L1456.13,1790.6 L1459.78,1788.95 L1463.99,1787.04 L1466.02,1784.48 L1467.92,1782.07 L1493.39,1749.53 L1497.02,1745.07 L1499.11,1742.46 L1517.99,1718.75 L1569.62,1686.58 L1569.9,1687.64 L1635.02,1708.13 L1715.76,1680.36 L1758.86,1676.7 L1784.42,1679.51 L1860.94,1717.77 L1895.04,1749.48 L1962.23,1811.94 L1999.83,1749.94 L2005.3,1747.36 L2006.95,1745.84 L2012.6,1743.24 L2012.64,1737.27 L2013.89,1734.25 L2105.89,1624.19 L2106.85,1623.72 L2110.49,1619.57 L2112.21,1617.43 L2113.26,1616.11 L2117.39,1615.12 L2128.89,1612.5 L2133.82,1612.26 L2138.62,1612.25 L2142.07,1612.29 L2142.61,1612.41 L2142.99,1612.69 L2144.24,1611.46 L2145.21,1611.35 L2146.13,1612.06 L2146.1,1614.02 L2148.14,1613.94 L2148.68,1613.27 L2149.6,1612.64 L2150,1612.67 L2150.27,1613.81 L2150.39,1614.12 L2150.77,1612.74 L2151.36,1612.38 L2152.5,1612.68 L2153.73,1614.55 L2153.68,1615.38 L2153.8,1615.91 L2154.49,1615.88 L2155.32,1614.95 L2156.15,1615.45 L2156.8,1616.45 L2158.45,1616.34 L2160.14,1615.64 L2160.69,1615.9 L2161.05,1616.71 L2161.21,1617.46 L2163.06,1617.96 L2164.64,1618.77 L2165.52,1618.83 L2166.56,1618.52 L2166.34,1617.5 L2166.24,1616.58 L2166.88,1616.14 L2168.18,1616.06 L2168.93,1616.79 L2168.91,1617.61 L2169.42,1617.83 L2170.02,1617.58 L2169.89,1617.24 L2170.31,1616.74 L2171.66,1616.74 L2172.44,1616.52 L2172.4,1615.53 L2173.77,1615.7 L2174.16,1616.41 L2175.15,1616.55 L2176.33,1615.93 L2176.87,1616.34 L2176.75,1617.24 L2175.95,1618.25 L2176.22,1618.39 L2176.92,1618.07 L2177.75,1618.36 L2178.46,1619.57 L2178.96,1619.72 L2179.62,1618.38 L2181.04,1617.93 L2182.02,1619.61 L2182.53,1619.61 L2182.73,1617.63 L2183.41,1616.88 L2184.47,1616.54 L2185.33,1616.84 L2185.25,1617.77 L2184.76,1618.62 L2185,1619.05 L2185.59,1618.84 L2185.61,1618.4 L2185.8,1617.9 L2187.37,1617.65 L2188.57,1617.05 L2189.13,1617.05 L2190.35,1617.89 L2190.84,1617.82 L2191.61,1617.26 L2192.75,1617.22 L2194,1617.03 L2195.26,1617.54 L2196.94,1617.72 L2197.45,1617.4 L2197.12,1616.2 L2195.8,1615.35 L2195.76,1614.46 L2196.09,1613.51 L2196.81,1613.47 L2197.31,1613.94 L2197.49,1614.82 L2198.15,1615.37 L2199.4,1615.3 L2200,1614.75 L2200.02,1613.41 L2200.54,1612.42 L2201.6,1613.04 L2201.88,1613.5 L2202.5,1613.4 L2203.26,1612.19 L2203.52,1611.49 L2205.48,1610.96 L2206.7,1611.42 L2207.24,1610.82 L2207.01,1609.27 L2207.75,1608.94 L2208.44,1609.23 L2208.98,1610.33 L2209.05,1610.24 L2209.86,1610.27 L2210.15,1609.61 L2211.21,1609.48 L2211.45,1609.11 L2211.95,1608.97 L2212.2,1609.26 L2213.04,1608.85 L2213.09,1607.38 L2212.77,1606.34 L2214.53,1605.64 L2214.8,1607.56 L2215.36,1607.48 L2216.26,1607.92 L2216.87,1608.7 L2217.38,1608.59 L2217.61,1608.3 L2216.99,1607.04 L2217.45,1606.11 L2217.39,1605.28 L2218.3,1604.09 L2218.37,1602.83 L2219.12,1601.94 L2219.59,1601.43 L2220.32,1601.62 L2220.53,1602.08 L2220.46,1602.78 L2221.03,1603.17 L2221.57,1603.67 L2221.89,1604.38 L2222.78,1604.29 L2222.71,1603.68 L2221.85,1602.73 L2221.6,1601.66 L2221.28,1600.81 L2221.56,1600.39 L2223.03,1600.17 L2223.58,1600.78 L2224.03,1602.53 L2225.23,1603.61 L2225.34,1604.18 L2226.29,1604.63 L2226.41,1605.12 L2226.39,1605.5 L2227.01,1605.22 L2227.18,1606.11 L2228.28,1605.93 L2229,1605.32 L2229.44,1604.82 L2230.05,1604.68 L2230.7,1605.07 L2231.17,1605.6 L2231.82,1605.71 L2232.25,1605.44 L2232.62,1604.83 L2233.19,1604.51 L2234.13,1604.22 L2234.46,1603.61 L2234.52,1602.78 L2234.65,1601.29 L2235.31,1600.83 L2236.55,1600.77 L2237.11,1600.83 L2237.78,1601.01 L2238.47,1601.18 L2238.83,1601.03 L2239.12,1600.51 L2240.09,1598.99 L2240.66,1598.55 L2241.48,1598.23 L2242.23,1598.36 L2243.04,1598.48 L2243.73,1599.05 L2244.62,1600.3 L2244.72,1600.71 L2244.78,1601.19 L2244.78,1601.47 L2244.71,1601.68 L2244.53,1602.02 L2244.46,1602.18 L2244.45,1602.33 L2244.48,1602.46 L2244.56,1602.68 L2244.68,1602.82 L2244.83,1602.95 L2245.09,1603.05 L2245.37,1603.08 L2245.56,1603.04 L2245.88,1602.92 L2246.31,1602.64 L2246.55,1602.5 L2246.86,1602.43 L2247.09,1602.41 L2247.9,1602.58 L2248.79,1602.69 L2249.32,1601.52 L2249.97,1601.07 L2250.74,1601.13 L2251.19,1601.32 L2251.19,1601.32 L2251.97,1601.86 L2252.51,1602.1 L2253.29,1602.4 L2254.37,1602.76 L2255.45,1603.12 L2256.27,1603.18 L2257.16,1603.12 L2257.83,1603 L2258.36,1603 L2258.95,1602.7 L2259.55,1602.58 L2260.1,1602.22 L2260.79,1602.15 L2261.57,1602.09 L2262.11,1601.97 L2262.61,1601.97 L2263.01,1602.04 L2263.34,1602.31 L2263.54,1602.64 L2263.66,1603.33 L2263.66,1604.53 L2263.78,1604.94 L2264.02,1605.73 L2264.09,1606.3 L2263.89,1606.76 L2263.63,1607.09 L2263.08,1607.34 L2262.75,1607.61 L2262.64,1608.06 L2262.58,1608.5 L2262.67,1608.69 L2262.93,1608.79 L2263.32,1608.85 L2263.79,1608.73 L2264.35,1608.67 L2264.78,1608.67 L2265.24,1608.73 L2265.52,1609.01 L2265.65,1609.39 L2265.83,1609.81 L2265.99,1610.09 L2266.16,1610.21 L2266.34,1610.08 L2266.58,1609.72 L2267.04,1609.45 L2267.57,1609.45 L2267.97,1609.65 L2268.24,1609.98 L2268.49,1610.55 L2268.49,1611.23 L2268.55,1611.77 L2268.61,1612.36 L2268.84,1612.88 L2269.13,1613.28 L2269.39,1613.49 L2269.66,1613.49 L2270.12,1613.49 L2270.45,1613.33 L2270.72,1613.06 L2270.83,1612.7 L2270.55,1612.25 L2270.36,1611.93 L2270.29,1611.47 L2270.42,1610.94 L2270.82,1610.61 L2271.33,1610.48 L2271.77,1610.42 L2272.23,1610.48 L2272.62,1610.74 L2272.94,1611.19 L2273.19,1611.7 L2273.19,1612.15 L2273.07,1612.72 L2272.83,1613.2 L2272.71,1613.55 L2272.65,1613.94 L2272.82,1614.39 L2273,1614.62 L2273.17,1614.85 L2273.44,1615.07 L2273.88,1615.12 L2274.22,1615.01 L2274.85,1614.88 L2275.43,1615.01 L2275.87,1615.26 L2276.5,1615.89 L2276.81,1616.76 L2276.94,1617.46 L2276.75,1617.97 L2276.28,1618.85 L2276.44,1619.52 L2276.81,1619.94 L2277.32,1619.78 L2277.79,1618.83 L2278.51,1618.31 L2279.14,1618.52 L2279.57,1619.26 L2280.02,1619.71 L2280.74,1619.71 L2281.32,1619.36 L2281.92,1619.09 L2282.52,1619.55 L2282.84,1620.01 L2282.96,1621.04 L2283.24,1621.66 L2283.85,1621.88 L2284.6,1621.88 L2285.52,1621.51 L2286.31,1621.64 L2286.86,1621.58 L2287.49,1620.67 L2287.61,1619.9 L2287.72,1619.51 L2287.22,1618.64 L2287.83,1617.97 L2288.42,1617.77 L2290.03,1618.27 L2290.86,1618.71 L2291.04,1619.45 L2291.67,1619.97 L2292.61,1620.55 L2293.57,1620.61 L2294.68,1621.17 L2295.44,1621.63 L2296.32,1621.52 L2296.8,1620.64 L2297.44,1620.31 L2298.85,1620.07 L2299.45,1620.07 L2299.48,1620.07 L2299.95,1620.07 L2300.78,1620.2 L2301.35,1620.83 L2301.7,1621.36 L2302.13,1621.68 L2302.77,1621.42 L2302.99,1620.97 L2303.27,1620.29 L2303.82,1620.45 L2304,1621.12 L2304.29,1621.21 L2304.76,1621.05 L2305.02,1620.54 L2305.46,1620.61 L2306.3,1620.92 L2307.13,1621.08 L2307.4,1620.54 L2307.67,1619.99 L2307.36,1619.58 L2306.71,1619.34 L2305.99,1618.76 L2306.13,1617.89 L2306.66,1617.29 L2307.36,1617.29 L2308.12,1617.29 L2308.69,1617.01 L2309.18,1616.39 L2309.83,1616.33 L2310.81,1616.27 L2311.9,1616.51 L2312.79,1616.28 L2313.16,1616.54 L2313.55,1617.18 L2314.85,1617.97 L2315.89,1617.99 L2316.73,1618.33 L2318.22,1617.86 L2318.8,1617.72 L2319.26,1618.03 L2319.75,1618.58 L2320.89,1618.42 L2321.15,1617.77 L2321.27,1617 L2321.77,1616.36 L2322.45,1615.95 L2323.07,1616.43 L2323.26,1617.05 L2323.67,1617.94 L2324.18,1618.63 L2324.73,1618.68 L2325.48,1618.45 L2326.17,1617.93 L2326.59,1617.21 L2327.02,1616.72 L2327.53,1616.27 L2328.31,1616.42 L2328.8,1616.84 L2328.72,1618.34 L2329.37,1619.34 L2329.94,1619.44 L2331.25,1620.08 L2331.71,1620.64 L2331.64,1620.94 L2331.4,1621.88 L2331.87,1622.47 L2332.63,1622.52 L2333.71,1622.42 L2334.87,1623.51 L2335.03,1624.57 L2334.86,1625.15 L2334.6,1625.97 L2334.42,1627.02 L2334.75,1627.62 L2335.28,1627.73 L2335.9,1627.38 L2336.48,1626.92 L2336.78,1625.96 L2337.37,1625.04 L2337.58,1624.88 L2338.1,1624.72 L2338.79,1624.7 L2339.18,1624.83 L2339.66,1625.18 L2340.07,1625.65 L2340.41,1625.45 L2378.18,1627.43 L2448.24,1741.76 L2571.73,1797.4 L2575.95,1799.42 L2576.65,1803.7 L2578.4,1820.45 L2582.74,1859.09 L2583.37,1862.83 L2589.23,1866.85 L2600.02,1873.38 L2658.86,1895.49 L2657.75,1899.11 L2649,1909.8 L2646.48,1919.19 L2646.2,1923.96 L2646.18,1924.23 L2646.29,1924.78 L2646.8,1924.78 L2647.05,1924.4 L2647.48,1924.07 L2648.06,1924.24 L2648.45,1924.88 L2648.98,1925.2 L2649.69,1924.97 L2649.8,1924.29 L2649.62,1923.88 L2649.38,1923.33 L2649.83,1923.05 L2650.45,1923.4 L2650.99,1923.14 L2650.82,1922.69 L2650.45,1922.32 L2650.29,1921.77 L2650.48,1921.27 L2650.96,1921 L2651.42,1921.44 L2651.54,1922.22 L2652.01,1922.61 L2652.59,1922.57 L2653.94,1921.64 L2654.77,1921.57 L2655.3,1921.89 L2655.53,1922.26 L2655.37,1922.72 L2654.63,1923.15 L2654.21,1923.72 L2653.51,1924.16 L2653.53,1924.59 L2654.02,1924.82 L2654.57,1924.67 L2654.91,1924.23 L2655.51,1924.23 L2656.17,1924.71 L2656.72,1924.56 L2657.51,1924.94 L2657.86,1925.45 L2658.35,1925.58 L2658.7,1925.29 L2659.22,1925.43 L2659.62,1926.65 L2660.09,1927.05 L2660.23,1927.59 L2659.56,1927.95 L2659.54,1928.39 L2659.83,1929.11 L2659.51,1929.47 L2659.27,1930.17 L2659.46,1930.66 L2659.94,1930.8 L2660.39,1930.4 L2660.82,1930.59 L2660.82,1931.04 L2660.56,1931.69 L2660.9,1932.18 L2661.36,1932.27 L2661.9,1932.02 L2662.61,1932.27 L2662.88,1932.8 L2662.88,1933.64 L2662.51,1933.96 L2662.04,1934.16 L2661.66,1934.32 L2661.06,1934.23 L2660.55,1934.51 L2660.42,1935.05 L2660.85,1935.46 L2661.57,1935.59 L2662.99,1935.3 L2663.95,1935.59 L2664.34,1935.92 L2664.23,1936.45 L2663.88,1936.91 L2664.03,1937.68 L2665.04,1938.43 L2666.96,1939 L2667.45,1939.36 L2668.09,1939.31 L2668.4,1938.89 L2669.03,1938.89 L2669.3,1939.36 L2669.19,1940.17 L2669.73,1940.82 L2671.48,1941.17 L2672.22,1941.96 L2673.04,1942.66 L2674.1,1943.57 L2674.72,1943.79 L2675.08,1944.43 L2675.08,1945.11 L2675.34,1945.49 L2675.78,1945.51 L2676.27,1945 L2676.5,1944.26 L2676.99,1943.98 L2677.96,1944.66 L2678.03,1945.21 L2677.86,1946.07 L2678.11,1946.41 L2679.19,1946.93 L2679.92,1947.31 L2680.52,1947.38 L2680.89,1947.7 L2680.78,1948.5 L2680.13,1948.9 L2680.05,1949.38 L2680.4,1949.59 L2681.11,1949.55 L2681.66,1948.64 L2683.66,1948.57 L2684.74,1949.09 L2684.96,1949.72 L2685.12,1950.96 L2685.57,1951.5 L2686.41,1951.67 L2686.72,1952.07 L2686.65,1952.61 L2686.29,1953.56 L2686.4,1954.12 L2686.86,1954.35 L2687.1,1954.19 L2687.19,1953.74 L2687.59,1953.59 L2687.73,1953.88 L2687.95,1954.47 L2688.55,1954.75 L2689.08,1954.47 L2689.23,1953.92 L2689.76,1953.48 L2690.25,1953.63 L2690.44,1954.59 L2689.9,1955.19 L2689.82,1955.68 L2689.94,1955.95 L2690.33,1955.97 L2690.78,1955.61 L2692.65,1956.24 L2692.78,1956.9 L2692.78,1957.71 L2693.22,1957.98 L2694.01,1957.3 L2694.55,1957.34 L2694.81,1958.05 L2695.62,1958.14 L2696.13,1958.55 L2696.11,1959.33 L2695.57,1959.86 L2695.51,1960.58 L2695.08,1960.77 L2694.45,1960.63 L2694.09,1960.99 L2694.03,1961.46 L2694.47,1961.94 L2695.3,1961.42 L2695.88,1961.6 L2695.88,1962.12 L2695.62,1962.69 L2695.98,1963.37 L2696.58,1963.35 L2697.19,1963.19 L2697.74,1963.63 L2698.03,1964.62 L2698.42,1965.3 L2698.33,1966.14 L2698.54,1966.66 L2699.33,1966.99 L2699.58,1967.3 L2699.6,1967.71 L2698.95,1968.38 L2698.7,1969.12 L2699.03,1969.72 L2699.74,1969.87 L2700.01,1970.15 L2700.05,1970.61 L2700.45,1970.65 L2700.88,1970.19 L2701.42,1970.22 L2701.78,1970.67 L2701.83,1971.36 L2701.43,1971.42 L2701.09,1971.59 L2701.04,1972.08 L2700.35,1972.16 L2700.41,1972.55 L2701.09,1972.59 L2701.27,1972.98 L2700.24,1973.11 L2700.26,1973.24 L2700.32,1973.39 L2700.42,1973.56 L2700.53,1973.65 L2700.57,1973.69 L2700.84,1973.78 L2700.95,1973.85 L2700.99,1973.91 L2701,1973.97 L2700.92,1974.09 L2700.8,1974.2 L2700.66,1974.27 L2700.43,1974.27 L2700.25,1974.52 L2699.88,1974.78 L2700.01,1975.08 L2701.04,1975.26 L2701.53,1974.77 L2701.94,1974.77 L2702.27,1975.24 L2702.82,1975.22 L2703.1,1975.48 L2703.1,1976.2 L2703.06,1977.04 L2703.26,1977.15 L2703.56,1976.9 L2703.58,1976.34 L2703.95,1975.93 L2704.54,1976.01 L2704.54,1976.46 L2704.23,1976.86 L2704.31,1977.16 L2705.56,1977.16 L2705.54,1976.58 L2705.86,1976.21 L2706.4,1976.56 L2706.75,1977.17 L2707.42,1976.98 L2707.77,1976.1 L2707.77,1975.65 L2708.25,1975.26 L2708.82,1975.31 L2708.97,1975.92 L2708.8,1976.99 L2708.92,1977.35 L2709.34,1977.32 L2709.3,1976.79 L2709.77,1976.36 L2710.53,1976.39 L2711.22,1976.6 L2711.16,1977.01 L2710.61,1977.52 L2710.2,1977.58 L2710.06,1977.93 L2710.27,1978.19 L2710.77,1978.36 L2710.98,1978.57 L2711.21,1978.47 L2711.36,1978.04 L2711.99,1977.87 L2712.66,1978.33 L2713.63,1978.55 L2714.25,1979.14 L2714.32,1980.13 L2714.17,1981.41 L2714.32,1981.44 L2715.06,1980.25 L2715.98,1979.65 L2716.4,1980.04 L2716.24,1980.5 L2715.41,1980.85 L2715.27,1981.44 L2715.35,1981.91 L2715.69,1982.04 L2716.16,1981.38 L2716.85,1981.03 L2717.23,1981.43 L2716.93,1981.94 L2716.52,1982.27 L2716.52,1982.9 L2717.4,1982.92 L2717.4,1983.46 L2717.56,1984.06 L2717.05,1984.47 L2716.18,1984.4 L2716.32,1983.87 L2716.8,1983.68 L2716.77,1983.47 L2716.22,1983.4 L2716.02,1983.99 L2715.46,1983.99 L2715.37,1983.5 L2714.97,1983.52 L2714.86,1983.86 L2715.24,1984.88 L2715.9,1984.75 L2716.17,1985.28 L2716.39,1986.61 L2715.99,1987.19 L2716.16,1987.62 L2716.3,1987.57 L2716.24,1987.15 L2716.63,1987.02 L2716.7,1987.43 L2717.04,1987.43 L2717.04,1987.03 L2717.4,1986.85 L2717.97,1986.91 L2718.83,1986.52 L2718.49,1985.89 L2719.45,1985.08 L2720.13,1985.74 L2720.34,1986.41 L2720.11,1986.9 L2719.21,1987.58 L2719.18,1987.92 L2719.68,1988.29 L2720.31,1988.75 L2720.94,1988.85 L2721.58,1988.37 L2721.69,1987.77 L2722.1,1987.45 L2722.92,1987.47 L2723.44,1987.87 L2723.25,1988.2 L2722.86,1988.49 L2722.88,1988.7 L2723.41,1988.51 L2724.15,1988.62 L2724.42,1989.01 L2724.64,1988.31 L2725.31,1988.61 L2725.73,1988.38 L2726.39,1988.49 L2726.6,1988.82 L2726.27,1989.02 L2726.38,1989.27 L2726.88,1989.37 L2727.2,1988.99 L2727.09,1988.43 L2727.42,1988.13 L2728.13,1988.53 L2728.37,1988.92 L2728.13,1989.49 L2727.81,1989.73 L2727.7,1990.01 L2727.2,1990.34 L2726.8,1990.89 L2726.9,1991.07 L2727.46,1990.92 L2728.03,1991.36 L2727.69,1991.72 L2727.29,1992.06 L2727.45,1992.96 L2727.56,1993.2 L2727.91,1993.26 L2728.12,1993.69 L2727.8,1994.03 L2727.38,1993.74 L2726.96,1993.99 L2726.69,1994.37 L2727.18,1995.21 L2727.06,1996.18 L2727.69,1995.76 L2728.31,1996.36 L2728.68,1996.05 L2728.78,1995.4 L2729.32,1996.06 L2730.13,1996.15 L2730.11,1996.63 L2729.82,1997.02 L2729.34,1997.09 L2728.95,1997.43 L2728.37,1997.12 L2727.78,1997.25 L2727.74,1997.34 L2728.36,1997.59 L2728.38,1997.98 L2728.55,1998.63 L2729.03,1998.89 L2729.25,1998.64 L2729.6,1998.05 L2729.71,1997.44 L2730.17,1997.27 L2730.35,1997.81 L2730.76,1998 L2730.5,1998.54 L2730.65,1999.16 L2730.25,2000.09 L2730.65,2000.51 L2730.6,2001.01 L2729.83,2000.81 L2729.65,2000.27 L2729.42,2000.04 L2729.19,2000.19 L2728.95,2000.75 L2728.39,2001.2 L2727.88,2001.01 L2727.97,2000.58 L2728.34,2000.29 L2728.29,1999.97 L2728.04,1999.82 L2727.64,2000.18 L2727.37,1999.91 L2727.41,1999.59 L2726.89,1999.4 L2726.57,1999.49 L2726.43,1999.83 L2726.24,2000.14 L2726.81,2000.73 L2726.71,2001.31 L2727.05,2001.76 L2728.01,2001.8 L2728.6,2002.08 L2728.79,2002.52 L2728.48,2002.8 L2728.54,2003.02 L2729.01,2002.95 L2728.81,2001.74 L2729.27,2001.53 L2729.61,2001.78 L2729.91,2002.2 L2730.56,2002.47 L2730.61,2003.21 L2730.58,2004.13 L2730.23,2004.42 L2730.61,2005.53 L2730.25,2005.97 L2729.66,2006.12 L2729.18,2006.53 L2729.1,2006.99 L2729.42,2007.58 L2728.82,2007.67 L2728.69,2008.01 L2729.27,2008.01 L2729.29,2008.57 L2729.61,2008.92 L2729.04,2009.1 L2728.69,2009.53 L2728.7,2009.88 L2729.21,2010 L2729.84,2010.59 L2729.6,2011.29 L2729.13,2011.51 L2728.89,2011.4 L2728.38,2011.58 L2727.98,2011.18 L2727.61,2011.18 L2727.17,2011.33 L2726.84,2011.23 L2726.73,2011.45 L2727.06,2012.01 L2727.25,2012.85 L2727.65,2013.09 L2727.81,2012.63 L2728.53,2012.86 L2729.27,2014.1 L2729.35,2015.16 L2730.22,2016.42 L2732.13,2016.3 L2733.51,2016.55 L2733.6,2017.68 L2733.91,2017.84 L2735.51,2017.32 L2737.47,2017.33 L2738.18,2016.8 L2739.43,2016.81 L2740.85,2016.83 L2742.45,2016.3 L2743.34,2016.13 L2744.76,2016.32 L2747.07,2016.16 L2748.85,2016.89 L2750.98,2017.09 L2752.22,2017.63 L2752.56,2018.7 L2753.09,2019.24 L2754.69,2019.61 L2755.21,2020.87 L2755.2,2021.76 L2757.87,2022.14 L2758.04,2022.67 L2759.1,2023.39 L2759.45,2024.47 L2759.8,2025 L2760.68,2025.37 L2761.74,2025.73 L2762.09,2026.8 L2763.86,2028.07 L2765.44,2030.22 L2766.32,2030.94 L2767.37,2032.91 L2768.96,2033.81 L2770.2,2034.18 L2770.9,2034.72 L2771.07,2036.32 L2771.6,2036.68 L2773.9,2037.77 L2774.96,2038.14 L2775.13,2039.39 L2775.83,2040.28 L2776.18,2040.29 L2777.07,2040.47 L2778.31,2041.02 L2779.01,2041.74 L2779.89,2042.46 L2780.6,2043.18 L2781.48,2043.36 L2782.01,2043.9 L2782.88,2046.23 L2783.72,2051.04 L2784.91,2056.92 L2787.35,2061.75 L2790.68,2066.41 L2794.71,2071.6 L2798.38,2076.98 L2801.68,2083.94 L2806.18,2094.65 L2806.63,2095.73 L2808.78,2100.89 L2811.55,2107.5 L2813.97,2113.2 L2813.59,2115.15 L2811.09,2117.26 L2810.01,2119.73 L2810.87,2122.4 L2811.2,2124.53 L2811.72,2125.78 L2810.46,2127.37 L2810.27,2129.32 L2808.48,2131.07 L2811.62,2135.89 L2812.46,2139.45 L2815.26,2142.5 L2816.12,2145.17 L2816.8,2148.01 L2819.94,2152.3 L2822.91,2155.35 L2824.85,2156.08 L2825.54,2157.5 L2826.4,2159.99 L2829.21,2161.62 L2832.74,2161.84 L2835.05,2161.51 L2837.05,2162.12 L2836.82,2164.22 L2838.41,2166.9 L2831.29,2175.09 L2832.53,2181.5 L2833.67,2184.7 L2840.77,2187.79 L2847.44,2190.7 L2853.24,2192.62 L2855.25,2193.29 L2856.93,2193.84 L2856.69,2194.05 L2855.61,2195.18 L2854.2,2196.88 L2853.44,2198.16 L2852.31,2200.02 L2851.46,2201.39 L2850.48,2203.31 L2849.78,2205.84 L2850.53,2209.35 L2850.37,2210.07 L2850,2210.92 L2849.51,2211.54 L2849.17,2212.09 L2848.98,2212.62 L2849,2213.02 L2850.26,2215.31 L2850.66,2215.97 L2850.96,2216.6 L2851.28,2217.42 L2852.54,2220.16 L2855.58,2221.41 L2856.69,2221.51 L2858.5,2221.13 L2859.61,2221.58 L2860.62,2221.83 L2860.48,2222.52 L2859.22,2223.11 L2858.09,2223.95 L2857.52,2224.36 L2857.08,2224.92 L2856.79,2225.52 L2856.35,2226.88 L2856.34,2227.73 L2856.31,2228.75 L2856.21,2230.62 L2857.15,2233.8 L2857.07,2235.4 L2858.31,2236.74 L2859.03,2238.21 L2859.06,2239.35 L2859.32,2241.7 L2860.05,2244.98 L2860.76,2248.78 L2860.53,2250.37 L2860.14,2253.11 L2859.54,2254.14 L2858.91,2254.74 L2858.67,2254.8 L2858.34,2254.42 L2858.25,2254.7 L2858.62,2256.1 L2858.64,2256.6 L2858.45,2257.1 L2856.54,2258.89 L2854.43,2260.96 L2853.08,2262.68 L2850.54,2264.26 L2851.3,2264.73 L2852.39,2266.96 L2850.62,2268.38 L2850.02,2269.41 L2850.94,2271.18 L2852.32,2273.67 L2852.65,2276.15 L2854.2,2278.64 L2854.69,2282 L2856.6,2284.84 L2859.22,2286.46 L2859.7,2287.44 L2859.16,2291.22 L2858.06,2295.09 L2856.04,2297.66 L2853.95,2300.51 L2852.34,2302.78 L2851.58,2303.8 L2851.71,2307.44 L2851.1,2309.99 L2850.37,2313.94 L2849.71,2314.11 L2848.94,2315.73 L2847.11,2316.21 L2845.9,2316.51 L2843.63,2316.32 L2842.88,2316.45 L2841.11,2316.28 L2840.24,2316.07 L2839.48,2315.37 L2838.61,2314.78 L2837.77,2314.14 L2836.6,2314.13 L2834.89,2314.13 L2833.26,2313.59 L2829.96,2312.67 L2828.85,2312.43 L2827.22,2312.96 L2826.77,2313.4 L2826.55,2313.43 L2826.18,2313.4 L2823.87,2312.28 L2822.07,2311.26 L2821.61,2311.07 L2821.5,2310.96 L2821.5,2310.79 L2817.17,2308.3 L2815.2,2307.18 L2814.79,2307.61 L2815.49,2310.8 L2815.65,2311.55 L2815.77,2312.42 L2816.11,2313.09 L2816.71,2314.54 L2815.26,2317.41 L2814.03,2320.65 L2813.32,2321.74 L2813.09,2322.1 L2812.65,2323.49 L2812.47,2324.47 L2811.71,2325.46 L2810.67,2326.03 L2809.91,2326.75 L2809.68,2327.14 L2809.37,2327.78 L2808.15,2332.25 L2806.81,2334.22 L2805.96,2335.05 L2805.37,2336.11 L2804.3,2336.82 L2801.54,2338.7 L2801.32,2339.57 L2799.92,2339.81 L2799.04,2340.28 L2797.21,2341.34 L2796.52,2342.01 L2795.91,2342.82 L2795.37,2343.04 L2794.87,2343.14 L2793.68,2343.17 L2792.81,2342.84 L2791.91,2341.8 L2791.25,2341.49 L2790.22,2341.54 L2789.05,2342.38 L2788.02,2343.1 L2786.55,2344.11 L2785.9,2344.6 L2784.63,2347.8 L2782.73,2349.27 L2781.72,2350.08 L2779.53,2350.31 L2777.27,2350.5 L2776.42,2351.31 L2775.94,2351.75 L2776.08,2352.38 L2776,2352.64 L2775.15,2353.26 L2774.84,2353.63 L2774.36,2353.97 L2773.93,2354.49 L2772.91,2354.94 L2771.2,2356.46 L2771.55,2355.87 L2772.01,2355.07 L2772.37,2353.82 L2772.23,2353.43 L2772.07,2352.91 L2771.8,2352.38 L2771.38,2351.19 L2770.9,2350.33 L2770.41,2349.7 L2770.18,2348.84 L2769.58,2347.94 L2769.57,2345.32 L2769.19,2343.36 L2767.26,2340.28 L2764.96,2338.81 L2763.7,2338.01 L2760.09,2336.35 L2757.25,2336.26 L2753.87,2337.3 L2751.41,2337.65 L2748.99,2338.77 L2747.56,2339.19 L2747.18,2339.19 L2746.64,2339.19 L2743.15,2339.77 L2742.2,2340.23 L2741.61,2340.38 L2740.86,2340.7 L2740.49,2340.89 L2740.16,2341.03 L2740.01,2341.09 L2738.75,2341.61 L2737.5,2342.03 L2737.29,2341.87 L2737.14,2341.48 L2737.03,2340.54 L2736.78,2339.67 L2736.02,2338.32 L2735.9,2338.18 L2735.04,2337.79 L2733.91,2337.96 L2732.6,2337.65 L2732.08,2336.26 L2731.03,2335.73 L2730.15,2334.85 L2729.27,2332.56 L2728.39,2331.69 L2725.05,2331.51 L2721.54,2331.69 L2719.08,2330.99 L2716.26,2330.64 L2714.33,2331.17 L2711.17,2332.23 L2708.19,2333.12 L2705.03,2334 L2701.86,2334.19 L2699.05,2333.84 L2693.95,2331.74 L2689.2,2329.99 L2685.74,2329.44 L2684.46,2329.3 L2683.4,2329.83 L2681.65,2332.12 L2678.5,2335.47 L2675.87,2337.94 L2672.01,2340.42 L2669.39,2343.24 L2667.99,2344.83 L2665.18,2346.24 L2662.72,2346.25 L2661.31,2345.2 L2659.55,2343.45 L2657.97,2341.87 L2655.5,2340.12 L2653.22,2339.95 L2652.52,2341.01 L2651.29,2342.6 L2649.72,2343.31 L2646.56,2343.67 L2644.62,2343.85 L2642.69,2344.04 L2640.41,2344.4 L2638.83,2344.58 L2636.89,2342.83 L2635.66,2341.25 L2634.6,2340.03 L2632.13,2338.81 L2630.37,2337.05 L2627.9,2335.48 L2626.84,2334.78 L2625.44,2334.79 L2625.26,2334.09 L2625.17,2332.96 L2623.89,2331.57 L2623.3,2330.63 L2623.66,2329.87 L2624,2328.29 L2623.82,2327.41 L2621.01,2326.72 L2619.25,2327.08 L2616.96,2325.15 L2615.55,2324.81 L2613.79,2324.47 L2611.85,2323.42 L2610.8,2323.07 L2610.1,2324.66 L2609.4,2325.54 L2608.35,2325.55 L2606.77,2326.09 L2605.36,2325.57 L2604.31,2325.92 L2602.55,2326.46 L2602.37,2325.93 L2601.49,2325.06 L2600.78,2324.53 L2600.61,2325.42 L2598.69,2326.66 L2597.98,2325.25 L2597.09,2324.56 L2594.81,2324.22 L2593.22,2323.35 L2591.63,2322.3 L2590.92,2321.6 L2588.11,2320.91 L2584.94,2320.4 L2582.65,2320.42 L2581.43,2321.66 L2580.03,2322.9 L2579.16,2324.14 L2578.28,2323.44 L2576.87,2322.57 L2576,2324.16 L2574.42,2325.4 L2573.72,2324.7 L2572.84,2324.53 L2571.08,2324.54 L2569.67,2324.73 L2568.62,2324.73 L2568.78,2322.97 L2568.07,2321.57 L2565.42,2319.83 L2563.48,2318.61 L2561.18,2316.69 L2559.33,2314.89 L2558.1,2313.3 L2555.64,2309.6 L2552.13,2304.83 L2548.96,2300.07 L2547.03,2296.71 L2545.1,2293.54 L2544.57,2291.77 L2542.63,2289.3 L2540.17,2285.06 L2538.41,2282.95 L2537.7,2281.71 L2538.06,2280.65 L2538.41,2279.24 L2538.06,2278.36 L2537.35,2275.71 L2536.12,2274.12 L2534.18,2273.23 L2533.16,2271.64 L2530.14,2272.64 L2528.52,2274.2 L2526.88,2276.64 L2525.46,2277.32 L2523.15,2278.16 L2520.34,2278.1 L2518.39,2278.77 L2516.58,2280.85 L2514.58,2284.18 L2513.87,2284.52 L2512.93,2286.98 L2510.28,2287.45 L2509.59,2286.91 L2508.74,2285.65 L2507.5,2285.62 L2505.73,2286.3 L2503.63,2285.54 L2502.61,2284.11 L2501.57,2283.02 L2498.44,2281.19 L2499.16,2280.31 L2500.77,2278.93 L2503.08,2278.09 L2503.27,2277.21 L2503.3,2275.79 L2502.97,2274.55 L2502.65,2272.94 L2502.54,2270.11 L2502.4,2268.15 L2502.1,2265.31 L2501.47,2261.93 L2500.27,2260.13 L2496.94,2259 L2493.57,2260.17 L2489.14,2261.5 L2486.3,2262.33 L2484.73,2261.59 L2481.21,2261.52 L2477.86,2261.63 L2474.3,2263.33 L2474.63,2264.76 L2473.72,2265.98 L2470.3,2269.81 L2469,2273.69 L2466.79,2278.61 L2465.87,2280.71 L2461.04,2284.7 L2457.09,2289.05 L2456.34,2291.34 L2457.37,2292.6 L2459.09,2294.75 L2460.62,2297.79 L2459.87,2300.08 L2460.02,2301.85 L2460.14,2304.51 L2459.25,2305.2 L2457.68,2304.29 L2454.71,2303.52 L2452.39,2305.07 L2448.7,2305.18 L2446.61,2303.73 L2444.34,2302.8 L2441.34,2303.1 L2438.52,2303.58 L2436.45,2301.06 L2433.66,2299.95 L2431.01,2300.43 L2428.18,2301.09 L2424.68,2300.14 L2420.64,2299.72 L2418.52,2299.85 L2415.73,2298.57 L2413.48,2296.23 L2412.48,2292.84 L2411.65,2290 L2409.33,2287.93 L2405,2287.58 L2402.87,2288.96 L2396.82,2292.75 L2391.84,2295.86 L2385.8,2299.48 L2384.72,2301.23 L2384.01,2301.22 L2371.9,2299.61 L2361.89,2298.21 L2353.81,2297.2 L2345.9,2296.2 L2343.27,2295.63 L2339.58,2295.39 L2335.36,2294.45 L2329.98,2289.59 L2324.75,2285.79 L2323.19,2284 L2319.68,2283.06 L2308.97,2280.61 L2303.87,2280.19 L2298.41,2280.12 L2295.25,2279.37 L2291.75,2277.37 L2287.52,2278.2 L2284.31,2281.17 L2281.27,2285.21 L2277.72,2287.65 L2272.76,2289.53 L2268.71,2290.19 L2261.83,2291.17 L2260.41,2292.39 L2258.8,2294.32 L2258.78,2296.45 L2257.51,2299.8 L2256.08,2301.73 L2252.55,2302.93 L2250.07,2304.31 L2248.98,2306.78 L2246.51,2307.46 L2243.7,2307.43 L2241.77,2306.7 L2239.31,2306.14 L2235.63,2305.57 L2234.56,2306.27 L2232.62,2306.78 L2229.45,2306.92 L2226.11,2307.24 L2222.4,2308.79 L2220.26,2311.6 L2219.85,2314.57 L2217.23,2317.41 L2212.67,2320.61 L2207.42,2324.51 L2204.9,2327.78 L2201.72,2331.42 L2194.26,2335.68 L2192.4,2335.95 L2191.24,2335.67 L2178.05,2340.27 L2176.87,2340.42 L2176.13,2341.43 L2170.59,2343.29 L2165.68,2342.24 L2163.98,2341.84 L2158.87,2340.57 L2156.09,2342.18 L2155.28,2342.75 L2152.2,2344.89 L2148.54,2348.18 L2147.03,2349.52 L2145.01,2351.33 L2142.79,2353.45 L2143.26,2356.11 L2143.43,2357.28 L2143.2,2357.67 L2141.13,2359.1 L2138.81,2360.87 L2134.08,2364.86 L2133.53,2365.44 L2132.23,2367.25 L2132.55,2369.5 L2133.36,2373.85 L2133.98,2375.52 L2134.03,2376.41 L2131.77,2379.74 L2129.28,2380.02 L2125.87,2382.79 L2123.52,2384.12 L2122.62,2385.67 L2121.78,2385.47 L2118.67,2384.82 L2116.46,2385.67 L2115.57,2385.2 L2114.43,2385.16 L2111.86,2385.12 L2109.71,2385.86 L2106.21,2384.99 L2102.14,2384.06 L2099.69,2383.45 L2099.62,2383.59 L2099.09,2384.72 L2097.68,2387.81 L2089.82,2390.48 L2084.68,2391.37 L2082.02,2393.49 L2077.07,2393.35 L2071.62,2389.78 L2066.62,2385.82 L2058.83,2377.24 L2053.62,2372.18 L2052.73,2359.72 L2046.73,2351.63 L2037.07,2347.34 L2031.21,2351.33 L2018.69,2349.82 L2014.71,2349.97 L2013.7,2350.29 L2013.32,2350.71 L2011.64,2353.74 L2011,2354.06 L2007.36,2350.39 L2003.92,2349.85 L2001.88,2350.3 L2000.69,2351.37 L1994.45,2354.96 L1986.47,2357.76 L1976.27,2359.04 L1979.44,2370.69 L1982.23,2379.34 L1985.26,2387.13 L1968.21,2411.25 L1964.13,2427.89 L1963.74,2430.03 L1960.19,2446.79 L1964.03,2452.71 L1959.87,2471.27 L1946.71,2470.45 L1940.59,2470.1 L1933.07,2469.75 L1915.87,2469.01 L1899.49,2470.63 L1891.87,2471.39 L1864.86,2474.04 L1861.5,2474.38 L1840.08,2471.14 L1794.04,2462.85 L1792.48,2464.39 L1791.2,2464.45 L1788.7,2464.62 L1781.57,2462.91 L1776.15,2460.12 L1771.2,2459.45 L1765.74,2463.71 L1764.6,2466.7 L1763.95,2473.84 L1762.99,2474.19 L1759.93,2475.22 L1758.51,2475.67 L1756.3,2476.34 L1754.42,2477.22 L1750.68,2479 L1748.21,2481.21 L1746.9,2484.24 L1746.27,2485.8 L1746.46,2487.22 L1710.14,2491.3 L1689.22,2500.54 L1685.76,2503.95 L1685.26,2504.46 L1681.97,2507.8 L1672.73,2504.93 L1641.16,2446.35 L1583.6,2336.03 L1513.75,2340.12"/>
  </g>
  <g stroke-width="1" transform="matrix(0.999744,0,0,0.999744,0,0)" stroke="#000000" font-style="normal" stroke-opacity="1" stroke-linecap="square" stroke-linejoin="bevel" font-size="34.5833" font-weight="400" fill="none" font-family="MS Shell Dlg 2"/>
  <g stroke-width="1" transform="matrix(11.808,0,0,11.808,0,0)" stroke="#000000" font-style="normal" stroke-opacity="1" stroke-linecap="square" stroke-linejoin="bevel" font-size="34.5833" font-weight="400" fill="none" font-family="MS Shell Dlg 2"/>
  <g stroke-width="1" transform="matrix(11.808,0,0,11.808,0,0)" stroke="#000000" font-style="normal" stroke-opacity="1" stroke-linecap="square" stroke-linejoin="bevel" font-size="34.5833" font-weight="400" fill="none" font-family="MS Shell Dlg 2"/>
  <g stroke-width="1" transform="matrix(11.808,0,0,11.808,0,0)" stroke="#000000" font-style="normal" stroke-opacity="1" stroke-linecap="square" stroke-linejoin="bevel" font-size="34.5833" font-weight="400" fill="none" font-family="MS Shell Dlg 2"/>
  <g stroke-width="1" transform="matrix(1,0,0,1,0,0)" stroke="#000000" font-style="normal" stroke-opacity="1" stroke-linecap="square" stroke-linejoin="bevel" font-size="34.5833" font-weight="400" fill="none" font-family="MS Shell Dlg 2"/>
  <g stroke-width="1" transform="matrix(11.808,0,0,11.808,0,0)" stroke="#000000" font-style="normal" stroke-opacity="1" stroke-linecap="square" stroke-linejoin="bevel" font-size="34.5833" font-weight="400" fill="none" font-family="MS Shell Dlg 2"/>
  <g stroke-width="1" transform="matrix(11.808,0,0,11.808,0,0)" stroke="#000000" font-style="normal" stroke-opacity="1" stroke-linecap="square" stroke-linejoin="bevel" font-size="34.5833" font-weight="400" fill="none" font-family="MS Shell Dlg 2"/>
  <g stroke-width="1" transform="matrix(11.808,0,0,11.808,0,0)" stroke="#000000" font-style="normal" stroke-opacity="1" stroke-linecap="square" stroke-linejoin="bevel" font-size="34.5833" font-weight="400" fill="none" font-family="MS Shell Dlg 2"/>
  <g stroke-width="1" transform="matrix(11.808,0,0,11.808,0,0)" stroke="#000000" font-style="normal" stroke-opacity="1" stroke-linecap="square" stroke-linejoin="bevel" font-size="34.5833" font-weight="400" fill="none" font-family="MS Shell Dlg 2"/>
  <g stroke-width="1" transform="matrix(1,0,0,1,0,0)" stroke="#000000" font-style="normal" stroke-opacity="1" stroke-linecap="square" stroke-linejoin="bevel" font-size="34.5833" font-weight="400" fill="none" font-family="MS Shell Dlg 2"/>
 </g>
</svg>
