<?xml version='1.0' encoding='UTF-8' standalone='no'?>
<svg baseProfile="tiny" viewBox="0 0 2952 2952" xmlns="http://www.w3.org/2000/svg" xmlns:xlink="http://www.w3.org/1999/xlink" version="1.2" height="249.936mm" width="249.936mm">
 <title>Qt SVG Document</title>
 <desc>Generated with Qt</desc>
 <defs/>
 <g stroke-width="1" stroke="black" stroke-linecap="square" stroke-linejoin="bevel" fill="none" fill-rule="evenodd">
  <g stroke-width="1" transform="matrix(1,0,0,1,0,0)" stroke="#000000" font-style="normal" stroke-opacity="1" stroke-linecap="square" stroke-linejoin="bevel" font-size="34.5833" font-weight="400" fill="none" font-family="MS Shell Dlg 2"/>
  <g stroke-width="1" transform="matrix(1,0,0,1,0,0)" stroke="#000000" font-style="normal" stroke-opacity="1" stroke-linecap="square" stroke-linejoin="bevel" font-size="34.5833" font-weight="400" fill="none" font-family="MS Shell Dlg 2"/>
  <g stroke-width="1" transform="matrix(11.808,0,0,11.808,0,0)" stroke="#000000" font-style="normal" stroke-opacity="1" stroke-linecap="square" stroke-linejoin="bevel" font-size="34.5833" font-weight="400" fill="none" font-family="MS Shell Dlg 2"/>
  <g stroke-width="1" transform="matrix(0.999744,0,0,0.999744,0,0)" stroke="#000000" font-style="normal" stroke-opacity="1" stroke-linecap="square" stroke-linejoin="bevel" font-size="34.5833" font-weight="400" fill="none" font-family="MS Shell Dlg 2"/>
  <g transform="matrix(0.999744,0,0,0.999744,0,0)" stroke="none" font-style="normal" font-size="34.5833" font-weight="400" fill="#ffffff" fill-opacity="0" font-family="MS Shell Dlg 2">
   <path vector-effect="none" fill-rule="evenodd" d="M-2,-2 L2955,-2 L2955,2955 L-2,2955 L-2,-2"/>
  </g>
  <g stroke-width="1" transform="matrix(0.999744,0,0,0.999744,0,0)" stroke="#000000" font-style="normal" stroke-opacity="1" stroke-linecap="square" stroke-linejoin="bevel" font-size="34.5833" font-weight="400" fill="none" font-family="MS Shell Dlg 2"/>
  <g stroke-width="1" transform="matrix(11.808,0,0,11.808,0,0)" stroke="#000000" font-style="normal" stroke-opacity="1" stroke-linecap="square" stroke-linejoin="bevel" font-size="34.5833" font-weight="400" fill="none" font-family="MS Shell Dlg 2"/>
  <g stroke-width="1" transform="matrix(11.808,0,0,11.808,0,0)" stroke="#000000" font-style="normal" stroke-opacity="1" stroke-linecap="square" stroke-linejoin="bevel" font-size="34.5833" font-weight="400" fill="none" font-family="MS Shell Dlg 2"/>
  <g stroke-width="1" transform="matrix(11.808,0,0,11.808,0,0)" stroke="#000000" font-style="normal" stroke-opacity="1" stroke-linecap="square" stroke-linejoin="bevel" font-size="34.5833" font-weight="400" fill="none" font-family="MS Shell Dlg 2"/>
  <g stroke-width="1" transform="matrix(11.808,0,0,11.808,0,0)" stroke="#000000" font-style="normal" stroke-opacity="1" stroke-linecap="square" stroke-linejoin="bevel" font-size="34.5833" font-weight="400" fill="none" font-family="MS Shell Dlg 2"/>
  <g stroke-width="1" transform="matrix(11.808,0,0,11.808,0,0)" stroke="#000000" font-style="normal" stroke-opacity="1" stroke-linecap="square" stroke-linejoin="bevel" font-size="34.5833" font-weight="400" fill="none" font-family="MS Shell Dlg 2"/>
  <g transform="matrix(11.808,0,0,11.808,0,0)" stroke="none" font-style="normal" font-size="34.5833" font-weight="400" fill="#ffffff" fill-opacity="0" font-family="MS Shell Dlg 2">
   <path vector-effect="none" fill-rule="evenodd" d="M0,0 L250,0 L250,250 L0,250 L0,0"/>
  </g>
  <g stroke-width="1" transform="matrix(11.808,0,0,11.808,0,0)" stroke="#000000" font-style="normal" stroke-opacity="1" stroke-linecap="square" stroke-linejoin="bevel" font-size="34.5833" font-weight="400" fill="none" font-family="MS Shell Dlg 2"/>
  <g stroke-width="1" transform="matrix(11.808,0,0,11.808,0,0)" stroke="#000000" font-style="normal" stroke-opacity="1" stroke-linecap="square" stroke-linejoin="bevel" font-size="34.5833" font-weight="400" fill="none" font-family="MS Shell Dlg 2"/>
  <g transform="matrix(0.999744,0,0,0.999744,0,0)" stroke="none" font-style="normal" font-size="34.5833" font-weight="400" fill="#000000" fill-opacity="0" font-family="MS Shell Dlg 2">
   <rect y="0" height="2953" x="0" width="2953"/>
  </g>
  <g stroke-width="1" transform="matrix(0.999744,0,0,0.999744,0,0)" stroke="#000000" font-style="normal" stroke-opacity="1" stroke-linecap="square" stroke-linejoin="bevel" font-size="34.5833" font-weight="400" fill="none" font-family="MS Shell Dlg 2"/>
  <g stroke-width="3.07087" transform="matrix(0.999744,0,0,0.999744,0,0)" stroke="#5c5c5c" font-style="normal" stroke-opacity="1" stroke-linecap="square" stroke-linejoin="bevel" font-size="34.5833" font-weight="400" fill="#c5c5c5" fill-opacity="1" font-family="MS Shell Dlg 2">
   <path vector-effect="none" fill-rule="evenodd" d="M701.106,1304.21 L729.792,1303.48 L884.582,1225.21 L928.889,1206.59 L957.43,1191.74 L979.418,1182.86 L1034.61,1176.16 L1080.62,1165.38 L1115.42,1168.88 L1173.09,1172.95 L1216.48,1170.04 L1251.72,1170.33 L1248.23,1151.69 L1236.58,1138.88 L1225.25,1124.9 L1217.94,1112.38 L1236.1,1079.43 L1266.68,1060.36 L1275.86,1013.9 L1306.14,947.794 L1327.26,911.536 L1339.2,890.421 L1351.43,876.879 L1378.66,860.716 L1437.05,827.078 L1455.84,801.159 L1491.12,757.885 L1499.71,747.692 L1548.78,753.444 L1597.86,756.065 L1600.79,760.111 L1600.89,760.798 L1601.03,761.117 L1600.94,761.522 L1600.75,762.045 L1600.75,762.423 L1600.95,762.955 L1600.94,763.369 L1600.83,763.851 L1600.73,763.92 L1600.41,763.861 L1600.15,763.879 L1599.86,764.115 L1599.71,764.379 L1599.67,764.716 L1599.92,765.49 L1600.01,765.849 L1600.02,766.095 L1599.86,766.418 L1599.53,766.809 L1599.37,767.06 L1599.28,767.319 L1599.3,767.483 L1599.69,767.465 L1599.93,767.587 L1600.05,767.774 L1600.06,767.965 L1599.94,768.238 L1599.7,768.416 L1599.52,768.693 L1599.41,768.925 L1599.36,769.262 L1599.67,770.154 L1599.69,770.55 L1599.66,771.474 L1599.73,771.856 L1599.96,772.274 L1600.14,772.725 L1600.23,773.317 L1600.43,774.299 L1600.72,775.173 L1601.08,776.183 L1601.17,776.98 L1601.3,777.43 L1601.52,777.817 L1601.58,778.04 L1601.48,778.372 L1601.34,778.636 L1601.24,778.95 L1601.09,779.919 L1600.9,780.12 L1600.64,780.265 L1600.38,780.338 L1600.26,780.534 L1600.27,780.711 L1600.42,780.925 L1600.98,781.389 L1601.09,781.639 L1600.9,781.862 L1600.67,782.063 L1600.49,782.331 L1600.43,782.622 L1600.52,782.961 L1600.66,783.232 L1600.95,783.323 L1601.44,783.241 L1602.04,783.223 L1602.39,783.391 L1602.49,783.621 L1602.25,783.91 L1602.06,784.165 L1601.92,784.47 L1601.9,784.718 L1602.08,784.954 L1602.47,785.278 L1602.87,785.566 L1603.05,785.762 L1603.09,785.987 L1602.9,786.138 L1602.61,786.233 L1602.27,786.229 L1601.98,786.272 L1601.78,786.39 L1601.78,786.492 L1601.95,786.777 L1602.21,787.339 L1602.44,787.705 L1602.55,788.062 L1602.58,788.29 L1602.54,788.504 L1602.37,788.661 L1601.34,788.702 L1601.02,788.816 L1600.93,789.007 L1600.93,789.225 L1601.06,789.589 L1601.38,790.058 L1601.56,790.615 L1601.74,790.891 L1602.68,790.745 L1602.95,790.781 L1603.05,790.951 L1603.01,791.288 L1602.67,791.688 L1602.31,791.972 L1601.88,792.316 L1601.69,792.671 L1601.65,792.964 L1601.73,793.344 L1601.7,793.497 L1601.46,793.763 L1601.16,793.897 L1601,794.068 L1601.01,794.625 L1600.93,795.146 L1600.63,796.102 L1600.69,796.619 L1601.07,797.121 L1601.31,798.004 L1614.29,844.301 L1633.43,898.437 L1700.67,924.16 L1750.07,934.987 L1767.47,942.413 L1824.77,952.606 L1893.79,945.034 L1933.25,949.84 L2005.63,953.043 L2028.53,997.922 L2056.59,1053.66 L2066.28,1062.17 L2082.44,1076.37 L2077.05,1110.01 L2092.78,1118.02 L2111.93,1140.08 L2141.23,1157.23 L2153.46,1163.06 L2163.46,1167.86 L2175.91,1173.9 L2223.74,1164.07 L2255.27,1155.62 L2290.07,1127.74 L2305.87,1124.75 L2323.42,1111.28 L2401.1,1066.36 L2441.73,1055.95 L2507.48,1039.35 L2560.92,1025.22 L2596.59,1040.15 L2676.99,1019.53 L2674.51,1046.9 L2667.38,1080.25 L2661.12,1110.54 L2691.21,1175.33 L2700.78,1194.77 L2704.16,1204.19 L2714.57,1243.03 L2738,1318.18 L2759.99,1358.38 L2760.28,1380.36 L2754.31,1394.92 L2761.16,1436.28 L2762.03,1539.3 L2782.27,1574.54 L2783.87,1632.64 L2788.68,1668.46 L2791.01,1699.63 L2784.74,1727.29 L2785.47,1772.14 L2773.68,1827.91 L2777.17,1855.44 L2770.1,1887.97 L2770.1,1888.15 L2757.61,1896.5 L2752.47,1896.6 L2743.34,1900.89 L2726.96,1899.66 L2697.5,1897.66 L2682.46,1896.39 L2634.7,1897.46 L2612.51,1879.27 L2602.1,1878.46 L2550.43,1899.08 L2543.62,1917.16 L2543.6,1917.32 L2477.12,1936.58 L2470.24,1937.36 L2461.92,1938.61 L2398.81,1946.73 L2380.1,1954.6 L2345.72,1967.44 L2329.56,1974.86 L2186.83,2042.86 L2149.39,2060.01 L2078.24,2089.2 L2056.07,2101.35 L2038.54,2110.64 L2023.27,2121.39 L2020,2123.7 L2010.93,2129.14 L2009.09,2130.25 L2003.89,2133.16 L1978.22,2146.99 L1971.76,2153.67 L1961.75,2158.79 L1950.31,2165.92 L1932.24,2165.7 L1865.24,2232.65 L1838.32,2203.6 L1767.57,2207.25 L1718.37,2200.93 L1720.59,2114.8 L1689.11,2121.39 L1614.79,2137.06 L1585.04,2143.39 L1569.19,2143.73 L1548.82,2144.21 L1539.08,2144.45 L1519.28,2144.95 L1485.27,2134.74 L1455.64,2128.76 L1435.76,2124.58 L1435.66,2124.27 L1386.69,2111.97 L1260.08,2049.52 L1240.76,2039.36 L1237.41,2037.45 L1175.06,2002.9 L1154.84,2002.7 L1124.69,1999.12 L1118.3,2000.57 L1096.08,2005.66 L1030.41,1986.29 L1027.97,1985.59 L1024.87,1984.67 L1018.91,1982.93 L1013.63,1981.38 L985.088,1973.03 L976.657,1961.94 L975.29,1960.08 L971.279,1954.57 L968.903,1951.31 L967.063,1948.8 L964.265,1944.97 L961.558,1941.27 L959.96,1939.08 L959.296,1938.16 L956.207,1933.95 L954.614,1931.78 L953.294,1929.98 L952.135,1928.39 L950.58,1926.26 L948.789,1923.8 L947.106,1921.5 L945.276,1919.03 L944.058,1917.32 L940.299,1912.2 L937.608,1908.5 L935.163,1905.19 L927.413,1894.32 L926.225,1892.71 L923.934,1889.62 L921.767,1886.69 L919.67,1883.88 L918.128,1881.8 L915.618,1878.42 L913.095,1874.99 L909.902,1870.69 L906.515,1865.92 L903.589,1861.81 L902.25,1859.91 L900.183,1859.64 L897.814,1859.34 L893.738,1858.81 L889.687,1858.28 L887.147,1857.94 L883.403,1857.47 L879.703,1856.99 L876.835,1856.62 L873.928,1856.25 L871.076,1855.89 L867.995,1855.5 L865.14,1855.11 L860.902,1854.57 L858.93,1854.33 L853.297,1853.61 L849.558,1853.09 L845.507,1852.59 L841.355,1852.05 L840.224,1851.91 L835.675,1851.33 L832.059,1850.97 L817.345,1846.83 L806.355,1843.76 L802.707,1842.73 L800.104,1842 L794.67,1840.48 L789.913,1839.14 L786.169,1838.14 L781.486,1836.9 L770.512,1833.84 L764.376,1832.11 L746.156,1827.01 L746.212,1826.63 L745.064,1826.35 L743.401,1826.29 L740.99,1825.57 L738.103,1824.75 L736.2,1824.21 L734.084,1823.63 L731.677,1822.95 L728.567,1822.07 L724.914,1821.04 L724.281,1820.87 L722.061,1820.26 L719.225,1819.51 L717.014,1818.92 L712.074,1817.63 L694.378,1813.03 L693.121,1812.66 L690.711,1811.99 L687.021,1810.94 L682.483,1809.66 L674.981,1807.52 L670.466,1806.26 L665.094,1804.74 L659.403,1803.13 L647.432,1799.75 L637.045,1796.86 L632.332,1795.58 L627.274,1794.22 L624.981,1793.61 L620.853,1792.49 L616.084,1791.21 L610.905,1790.95 L607.521,1790.82 L587.409,1790.07 L575.499,1789.63 L567.277,1789.3 L543.651,1788.32 L525.487,1787.58 L512.45,1787.07 L509.511,1786.91 L504.367,1786.91 L456.916,1784.84 L442.015,1803.49 L441.539,1805.8 L419.202,1804.85 L405.387,1804.05 L402.337,1803.61 L351.812,1800.82 L323.172,1807.6 L293.105,1814.78 L250.788,1824.92 L240.766,1793.75 L234.313,1692.38 L209.704,1559.14 L188.954,1193.2 L261.516,1182.8 L289.875,1174.43 L358.569,1218.04 L447.313,1313.77 L701.106,1304.21"/>
  </g>
  <g stroke-width="1" transform="matrix(0.999744,0,0,0.999744,0,0)" stroke="#000000" font-style="normal" stroke-opacity="1" stroke-linecap="square" stroke-linejoin="bevel" font-size="34.5833" font-weight="400" fill="none" font-family="MS Shell Dlg 2"/>
  <g stroke-width="1" transform="matrix(11.808,0,0,11.808,0,0)" stroke="#000000" font-style="normal" stroke-opacity="1" stroke-linecap="square" stroke-linejoin="bevel" font-size="34.5833" font-weight="400" fill="none" font-family="MS Shell Dlg 2"/>
  <g stroke-width="1" transform="matrix(11.808,0,0,11.808,0,0)" stroke="#000000" font-style="normal" stroke-opacity="1" stroke-linecap="square" stroke-linejoin="bevel" font-size="34.5833" font-weight="400" fill="none" font-family="MS Shell Dlg 2"/>
  <g stroke-width="1" transform="matrix(11.808,0,0,11.808,0,0)" stroke="#000000" font-style="normal" stroke-opacity="1" stroke-linecap="square" stroke-linejoin="bevel" font-size="34.5833" font-weight="400" fill="none" font-family="MS Shell Dlg 2"/>
  <g stroke-width="1" transform="matrix(1,0,0,1,0,0)" stroke="#000000" font-style="normal" stroke-opacity="1" stroke-linecap="square" stroke-linejoin="bevel" font-size="34.5833" font-weight="400" fill="none" font-family="MS Shell Dlg 2"/>
  <g stroke-width="1" transform="matrix(11.808,0,0,11.808,0,0)" stroke="#000000" font-style="normal" stroke-opacity="1" stroke-linecap="square" stroke-linejoin="bevel" font-size="34.5833" font-weight="400" fill="none" font-family="MS Shell Dlg 2"/>
  <g stroke-width="1" transform="matrix(11.808,0,0,11.808,0,0)" stroke="#000000" font-style="normal" stroke-opacity="1" stroke-linecap="square" stroke-linejoin="bevel" font-size="34.5833" font-weight="400" fill="none" font-family="MS Shell Dlg 2"/>
  <g stroke-width="1" transform="matrix(11.808,0,0,11.808,0,0)" stroke="#000000" font-style="normal" stroke-opacity="1" stroke-linecap="square" stroke-linejoin="bevel" font-size="34.5833" font-weight="400" fill="none" font-family="MS Shell Dlg 2"/>
  <g stroke-width="1" transform="matrix(11.808,0,0,11.808,0,0)" stroke="#000000" font-style="normal" stroke-opacity="1" stroke-linecap="square" stroke-linejoin="bevel" font-size="34.5833" font-weight="400" fill="none" font-family="MS Shell Dlg 2"/>
  <g stroke-width="1" transform="matrix(1,0,0,1,0,0)" stroke="#000000" font-style="normal" stroke-opacity="1" stroke-linecap="square" stroke-linejoin="bevel" font-size="34.5833" font-weight="400" fill="none" font-family="MS Shell Dlg 2"/>
 </g>
</svg>
