<?xml version='1.0' encoding='UTF-8' standalone='no'?>
<svg baseProfile="tiny" viewBox="0 0 2952 2952" xmlns="http://www.w3.org/2000/svg" xmlns:xlink="http://www.w3.org/1999/xlink" version="1.2" height="249.936mm" width="249.936mm">
 <title>Qt SVG Document</title>
 <desc>Generated with Qt</desc>
 <defs/>
 <g stroke-width="1" stroke="black" stroke-linecap="square" stroke-linejoin="bevel" fill="none" fill-rule="evenodd">
  <g stroke-width="1" transform="matrix(1,0,0,1,0,0)" stroke="#000000" font-style="normal" stroke-opacity="1" stroke-linecap="square" stroke-linejoin="bevel" font-size="34.5833" font-weight="400" fill="none" font-family="MS Shell Dlg 2"/>
  <g stroke-width="1" transform="matrix(1,0,0,1,0,0)" stroke="#000000" font-style="normal" stroke-opacity="1" stroke-linecap="square" stroke-linejoin="bevel" font-size="34.5833" font-weight="400" fill="none" font-family="MS Shell Dlg 2"/>
  <g stroke-width="1" transform="matrix(11.808,0,0,11.808,0,0)" stroke="#000000" font-style="normal" stroke-opacity="1" stroke-linecap="square" stroke-linejoin="bevel" font-size="34.5833" font-weight="400" fill="none" font-family="MS Shell Dlg 2"/>
  <g stroke-width="1" transform="matrix(0.999744,0,0,0.999744,0,0)" stroke="#000000" font-style="normal" stroke-opacity="1" stroke-linecap="square" stroke-linejoin="bevel" font-size="34.5833" font-weight="400" fill="none" font-family="MS Shell Dlg 2"/>
  <g transform="matrix(0.999744,0,0,0.999744,0,0)" stroke="none" font-style="normal" font-size="34.5833" font-weight="400" fill="#ffffff" fill-opacity="0" font-family="MS Shell Dlg 2">
   <path vector-effect="none" fill-rule="evenodd" d="M-2,-2 L2955,-2 L2955,2955 L-2,2955 L-2,-2"/>
  </g>
  <g stroke-width="1" transform="matrix(0.999744,0,0,0.999744,0,0)" stroke="#000000" font-style="normal" stroke-opacity="1" stroke-linecap="square" stroke-linejoin="bevel" font-size="34.5833" font-weight="400" fill="none" font-family="MS Shell Dlg 2"/>
  <g stroke-width="1" transform="matrix(11.808,0,0,11.808,0,0)" stroke="#000000" font-style="normal" stroke-opacity="1" stroke-linecap="square" stroke-linejoin="bevel" font-size="34.5833" font-weight="400" fill="none" font-family="MS Shell Dlg 2"/>
  <g stroke-width="1" transform="matrix(11.808,0,0,11.808,0,0)" stroke="#000000" font-style="normal" stroke-opacity="1" stroke-linecap="square" stroke-linejoin="bevel" font-size="34.5833" font-weight="400" fill="none" font-family="MS Shell Dlg 2"/>
  <g stroke-width="1" transform="matrix(11.808,0,0,11.808,0,0)" stroke="#000000" font-style="normal" stroke-opacity="1" stroke-linecap="square" stroke-linejoin="bevel" font-size="34.5833" font-weight="400" fill="none" font-family="MS Shell Dlg 2"/>
  <g stroke-width="1" transform="matrix(11.808,0,0,11.808,0,0)" stroke="#000000" font-style="normal" stroke-opacity="1" stroke-linecap="square" stroke-linejoin="bevel" font-size="34.5833" font-weight="400" fill="none" font-family="MS Shell Dlg 2"/>
  <g stroke-width="1" transform="matrix(11.808,0,0,11.808,0,0)" stroke="#000000" font-style="normal" stroke-opacity="1" stroke-linecap="square" stroke-linejoin="bevel" font-size="34.5833" font-weight="400" fill="none" font-family="MS Shell Dlg 2"/>
  <g transform="matrix(11.808,0,0,11.808,0,0)" stroke="none" font-style="normal" font-size="34.5833" font-weight="400" fill="#ffffff" fill-opacity="0" font-family="MS Shell Dlg 2">
   <path vector-effect="none" fill-rule="evenodd" d="M0,0 L250,0 L250,250 L0,250 L0,0"/>
  </g>
  <g stroke-width="1" transform="matrix(11.808,0,0,11.808,0,0)" stroke="#000000" font-style="normal" stroke-opacity="1" stroke-linecap="square" stroke-linejoin="bevel" font-size="34.5833" font-weight="400" fill="none" font-family="MS Shell Dlg 2"/>
  <g stroke-width="1" transform="matrix(11.808,0,0,11.808,0,0)" stroke="#000000" font-style="normal" stroke-opacity="1" stroke-linecap="square" stroke-linejoin="bevel" font-size="34.5833" font-weight="400" fill="none" font-family="MS Shell Dlg 2"/>
  <g transform="matrix(0.999744,0,0,0.999744,0,0)" stroke="none" font-style="normal" font-size="34.5833" font-weight="400" fill="#000000" fill-opacity="0" font-family="MS Shell Dlg 2">
   <rect y="0" height="2953" x="0" width="2953"/>
  </g>
  <g stroke-width="1" transform="matrix(0.999744,0,0,0.999744,0,0)" stroke="#000000" font-style="normal" stroke-opacity="1" stroke-linecap="square" stroke-linejoin="bevel" font-size="34.5833" font-weight="400" fill="none" font-family="MS Shell Dlg 2"/>
  <g stroke-width="3.07087" transform="matrix(0.999744,0,0,0.999744,0,0)" stroke="#5c5c5c" font-style="normal" stroke-opacity="1" stroke-linecap="square" stroke-linejoin="bevel" font-size="34.5833" font-weight="400" fill="#c5c5c5" fill-opacity="1" font-family="MS Shell Dlg 2">
   <path vector-effect="none" fill-rule="evenodd" d="M102.631,1437.76 L126.849,1359.56 L179.365,1314.52 L289.424,1332.11 L370.631,1321.53 L380.031,1217.09 L431.209,1141.63 L438.65,1119.43 L442.626,1105.54 L445.962,1087.84 L475.402,1015.93 L566.171,1014.73 L614.282,1005.85 L608.472,962.568 L641.764,931.887 L660.042,917.265 L644.505,869.351 L670.486,812.428 L778.913,696.788 L797.713,670.154 L822.715,656.576 L847.716,654.683 L859.793,662.256 L922.656,677.465 L975.14,699.007 L996.159,716.11 L1006.26,721.402 L1070.25,752.992 L1092.9,706.514 L1108.23,691.385 L1148.26,638.415 L1159.41,626.073 L1225.61,537.966 L1307.6,533.527 L1333.58,567.928 L1374.05,588.491 L1385.35,602.069 L1403.76,615.32 L1443.97,626.548 L1468.51,633.337 L1470.73,674.593 L1548.19,649.771 L1613.21,652.121 L1738.54,647.16 L1798.33,656.038 L1880.32,694.943 L1972.24,789.466 L2011.4,798.083 L2076.55,790.902 L2144.31,782.939 L2176.03,786.855 L2210.11,742.988 L2257.63,677.188 L2379.31,676.796 L2382.67,578.948 L2405.39,502.585 L2405.63,503.332 L2408.75,506.152 L2411.58,508.548 L2412.48,509.046 L2413.87,509.666 L2414.44,509.762 L2419.62,509.464 L2423.21,509.162 L2425.73,509.603 L2428,510.688 L2436.33,517.175 L2444.29,517.828 L2457.74,527.032 L2465.57,537.02 L2470.01,546.746 L2489.47,558.681 L2492.51,560.268 L2497.31,563.252 L2502.26,566.275 L2516.57,575.009 L2539.85,589.245 L2541.14,590.062 L2541.82,590.676 L2546.32,594.771 L2555.32,603.023 L2557.02,604.668 L2560.47,609.131 L2570.75,618.004 L2578.41,624.7 L2579.05,625.087 L2579.87,625.425 L2580.95,625.571 L2583.43,625.613 L2584.55,625.658 L2585.92,625.975 L2591.49,627.191 L2594.86,628.464 L2596.54,629.509 L2597.96,631.206 L2617.23,670.936 L2573,691.033 L2565.4,702.441 L2552.38,731.42 L2593.32,802.549 L2627.61,846.202 L2626.52,861.546 L2630.21,871.513 L2632.56,891.505 L2621.09,914.805 L2607.72,948.892 L2607.4,969.464 L2596.73,1017.77 L2545.52,1053.14 L2583.77,1106.9 L2623.4,1147.93 L2623.84,1152.12 L2639.12,1162.92 L2641.97,1183.52 L2687.3,1204.97 L2702.39,1182.91 L2773.53,1154.27 L2743.87,1363.92 L2741.65,1435.73 L2756.01,1475.94 L2771.54,1602.71 L2784.6,1661.85 L2788.58,1708.27 L2830.03,1812.25 L2733.29,1834.01 L2705.74,1924.94 L2696.41,1955.75 L2678.39,1961.04 L2662.33,1968.42 L2526.56,1973.05 L2456.64,1981.02 L2398.61,1987.41 L2383.73,2036.5 L2364.27,2070.71 L2357.68,2101.19 L2352.59,2177.89 L2311.07,2235.93 L2166.91,2272.91 L2102.94,2246.15 L2007.11,2271.47 L1889.22,2301.24 L1816.37,2319.91 L1677.06,2400.46 L1645.6,2424.62 L1617.27,2429.97 L1554.86,2479.97 L1498.33,2495.12 L1412.56,2512.74 L1390.23,2501.91 L1372.3,2493.31 L1350.38,2482.84 L1297.83,2452.1 L1263.49,2412.54 L1235.29,2398.18 L1244.95,2337.86 L1215.97,2312.4 L1198.61,2297.13 L1148.28,2197.19 L1107.21,2116.71 L977.438,2110.97 L906.677,2102.35 L782.909,2115.93 L680.161,2097.65 L648.958,2084.33 L560.384,2064.92 L439.807,2018.8 L405.489,1921.72 L382.217,1838.7 L381.776,1837.12 L381.091,1836.22 L380.985,1835.29 L381.528,1833.58 L381.674,1832.64 L381.65,1831.64 L381.948,1831.34 L382.474,1831.1 L382.902,1830.62 L382.955,1830.35 L382.821,1829.67 L382.894,1829.14 L383.233,1828.5 L383.996,1827.89 L384.64,1827.38 L385.263,1826.66 L385.336,1826.05 L385.157,1825.75 L384.671,1825.69 L382.982,1825.95 L382.664,1825.45 L382.329,1824.45 L381.766,1823.61 L381.521,1822.96 L381.521,1822.57 L381.693,1822.23 L382.264,1822.02 L384.108,1821.95 L384.418,1821.67 L384.487,1821.28 L384.426,1820.88 L384.23,1820.24 L383.814,1819.58 L383.361,1818.57 L383.051,1818.06 L383.06,1817.88 L383.406,1817.66 L383.924,1817.59 L384.549,1817.6 L385.067,1817.42 L385.401,1817.15 L385.332,1816.75 L385.002,1816.4 L384.283,1815.88 L383.594,1815.3 L383.276,1814.88 L383.308,1814.43 L383.549,1813.89 L383.892,1813.43 L384.328,1812.91 L384.149,1812.5 L383.512,1812.2 L382.439,1812.23 L381.566,1812.38 L381.04,1812.21 L380.799,1811.73 L380.624,1811.12 L380.738,1810.6 L381.064,1810.12 L381.481,1809.76 L381.815,1809.36 L381.619,1808.91 L380.608,1808.08 L380.346,1807.69 L380.322,1807.38 L380.55,1807.02 L381.007,1806.89 L381.472,1806.63 L381.815,1806.27 L382.093,1804.54 L382.256,1803.97 L382.517,1803.5 L382.696,1802.9 L382.59,1802.5 L382.191,1801.81 L381.954,1801 L381.799,1799.57 L381.154,1797.76 L380.624,1796.2 L380.281,1794.43 L380.118,1793.37 L379.792,1792.57 L379.375,1791.81 L379.245,1791.13 L379.302,1789.47 L379.261,1788.76 L378.714,1787.16 L378.804,1786.56 L379.008,1786.14 L379.326,1785.65 L379.751,1785.33 L379.963,1784.84 L379.947,1784.5 L379.743,1784.16 L379.302,1783.94 L378.6,1783.97 L378.576,1783.68 L378.739,1783.21 L379.016,1782.77 L379.612,1782.06 L379.898,1781.48 L379.873,1781.04 L379.718,1780.4 L379.277,1779.01 L379.335,1778.41 L379.604,1777.93 L380.126,1777.51 L380.599,1777.48 L381.162,1777.58 L381.35,1777.46 L381.546,1776.6 L381.562,1775.85 L381.211,1774.9 L381.211,1774.22 L381.554,1773.28 L381.701,1772.56 L381.464,1771.99 L381.285,1770.75 L376.016,1763.5 L288.021,1758.8 L200.026,1748.49 L171.434,1662.32 L191.54,1639.34 L183.967,1602 L159.945,1596.78 L108.506,1544.56 L103.936,1485.81 L102.631,1437.76"/>
  </g>
  <g stroke-width="1" transform="matrix(0.999744,0,0,0.999744,0,0)" stroke="#000000" font-style="normal" stroke-opacity="1" stroke-linecap="square" stroke-linejoin="bevel" font-size="34.5833" font-weight="400" fill="none" font-family="MS Shell Dlg 2"/>
  <g stroke-width="1" transform="matrix(11.808,0,0,11.808,0,0)" stroke="#000000" font-style="normal" stroke-opacity="1" stroke-linecap="square" stroke-linejoin="bevel" font-size="34.5833" font-weight="400" fill="none" font-family="MS Shell Dlg 2"/>
  <g stroke-width="1" transform="matrix(11.808,0,0,11.808,0,0)" stroke="#000000" font-style="normal" stroke-opacity="1" stroke-linecap="square" stroke-linejoin="bevel" font-size="34.5833" font-weight="400" fill="none" font-family="MS Shell Dlg 2"/>
  <g stroke-width="1" transform="matrix(11.808,0,0,11.808,0,0)" stroke="#000000" font-style="normal" stroke-opacity="1" stroke-linecap="square" stroke-linejoin="bevel" font-size="34.5833" font-weight="400" fill="none" font-family="MS Shell Dlg 2"/>
  <g stroke-width="1" transform="matrix(1,0,0,1,0,0)" stroke="#000000" font-style="normal" stroke-opacity="1" stroke-linecap="square" stroke-linejoin="bevel" font-size="34.5833" font-weight="400" fill="none" font-family="MS Shell Dlg 2"/>
  <g stroke-width="1" transform="matrix(11.808,0,0,11.808,0,0)" stroke="#000000" font-style="normal" stroke-opacity="1" stroke-linecap="square" stroke-linejoin="bevel" font-size="34.5833" font-weight="400" fill="none" font-family="MS Shell Dlg 2"/>
  <g stroke-width="1" transform="matrix(11.808,0,0,11.808,0,0)" stroke="#000000" font-style="normal" stroke-opacity="1" stroke-linecap="square" stroke-linejoin="bevel" font-size="34.5833" font-weight="400" fill="none" font-family="MS Shell Dlg 2"/>
  <g stroke-width="1" transform="matrix(11.808,0,0,11.808,0,0)" stroke="#000000" font-style="normal" stroke-opacity="1" stroke-linecap="square" stroke-linejoin="bevel" font-size="34.5833" font-weight="400" fill="none" font-family="MS Shell Dlg 2"/>
  <g stroke-width="1" transform="matrix(11.808,0,0,11.808,0,0)" stroke="#000000" font-style="normal" stroke-opacity="1" stroke-linecap="square" stroke-linejoin="bevel" font-size="34.5833" font-weight="400" fill="none" font-family="MS Shell Dlg 2"/>
  <g stroke-width="1" transform="matrix(1,0,0,1,0,0)" stroke="#000000" font-style="normal" stroke-opacity="1" stroke-linecap="square" stroke-linejoin="bevel" font-size="34.5833" font-weight="400" fill="none" font-family="MS Shell Dlg 2"/>
 </g>
</svg>
