<?xml version='1.0' encoding='UTF-8' standalone='no'?>
<svg baseProfile="tiny" viewBox="0 0 2952 2952" xmlns="http://www.w3.org/2000/svg" xmlns:xlink="http://www.w3.org/1999/xlink" version="1.2" height="249.936mm" width="249.936mm">
 <title>Qt SVG Document</title>
 <desc>Generated with Qt</desc>
 <defs/>
 <g stroke-width="1" stroke="black" stroke-linecap="square" stroke-linejoin="bevel" fill="none" fill-rule="evenodd">
  <g stroke-width="1" transform="matrix(1,0,0,1,0,0)" stroke="#000000" font-style="normal" stroke-opacity="1" stroke-linecap="square" stroke-linejoin="bevel" font-size="34.5833" font-weight="400" fill="none" font-family="MS Shell Dlg 2"/>
  <g stroke-width="1" transform="matrix(1,0,0,1,0,0)" stroke="#000000" font-style="normal" stroke-opacity="1" stroke-linecap="square" stroke-linejoin="bevel" font-size="34.5833" font-weight="400" fill="none" font-family="MS Shell Dlg 2"/>
  <g stroke-width="1" transform="matrix(11.808,0,0,11.808,0,0)" stroke="#000000" font-style="normal" stroke-opacity="1" stroke-linecap="square" stroke-linejoin="bevel" font-size="34.5833" font-weight="400" fill="none" font-family="MS Shell Dlg 2"/>
  <g stroke-width="1" transform="matrix(0.999744,0,0,0.999744,0,0)" stroke="#000000" font-style="normal" stroke-opacity="1" stroke-linecap="square" stroke-linejoin="bevel" font-size="34.5833" font-weight="400" fill="none" font-family="MS Shell Dlg 2"/>
  <g transform="matrix(0.999744,0,0,0.999744,0,0)" stroke="none" font-style="normal" font-size="34.5833" font-weight="400" fill="#ffffff" fill-opacity="0" font-family="MS Shell Dlg 2">
   <path vector-effect="none" fill-rule="evenodd" d="M-2,-2 L2955,-2 L2955,2955 L-2,2955 L-2,-2"/>
  </g>
  <g stroke-width="1" transform="matrix(0.999744,0,0,0.999744,0,0)" stroke="#000000" font-style="normal" stroke-opacity="1" stroke-linecap="square" stroke-linejoin="bevel" font-size="34.5833" font-weight="400" fill="none" font-family="MS Shell Dlg 2"/>
  <g stroke-width="1" transform="matrix(11.808,0,0,11.808,0,0)" stroke="#000000" font-style="normal" stroke-opacity="1" stroke-linecap="square" stroke-linejoin="bevel" font-size="34.5833" font-weight="400" fill="none" font-family="MS Shell Dlg 2"/>
  <g stroke-width="1" transform="matrix(11.808,0,0,11.808,0,0)" stroke="#000000" font-style="normal" stroke-opacity="1" stroke-linecap="square" stroke-linejoin="bevel" font-size="34.5833" font-weight="400" fill="none" font-family="MS Shell Dlg 2"/>
  <g stroke-width="1" transform="matrix(11.808,0,0,11.808,0,0)" stroke="#000000" font-style="normal" stroke-opacity="1" stroke-linecap="square" stroke-linejoin="bevel" font-size="34.5833" font-weight="400" fill="none" font-family="MS Shell Dlg 2"/>
  <g stroke-width="1" transform="matrix(11.808,0,0,11.808,0,0)" stroke="#000000" font-style="normal" stroke-opacity="1" stroke-linecap="square" stroke-linejoin="bevel" font-size="34.5833" font-weight="400" fill="none" font-family="MS Shell Dlg 2"/>
  <g stroke-width="1" transform="matrix(11.808,0,0,11.808,0,0)" stroke="#000000" font-style="normal" stroke-opacity="1" stroke-linecap="square" stroke-linejoin="bevel" font-size="34.5833" font-weight="400" fill="none" font-family="MS Shell Dlg 2"/>
  <g transform="matrix(11.808,0,0,11.808,0,0)" stroke="none" font-style="normal" font-size="34.5833" font-weight="400" fill="#ffffff" fill-opacity="0" font-family="MS Shell Dlg 2">
   <path vector-effect="none" fill-rule="evenodd" d="M0,0 L250,0 L250,250 L0,250 L0,0"/>
  </g>
  <g stroke-width="1" transform="matrix(11.808,0,0,11.808,0,0)" stroke="#000000" font-style="normal" stroke-opacity="1" stroke-linecap="square" stroke-linejoin="bevel" font-size="34.5833" font-weight="400" fill="none" font-family="MS Shell Dlg 2"/>
  <g stroke-width="1" transform="matrix(11.808,0,0,11.808,0,0)" stroke="#000000" font-style="normal" stroke-opacity="1" stroke-linecap="square" stroke-linejoin="bevel" font-size="34.5833" font-weight="400" fill="none" font-family="MS Shell Dlg 2"/>
  <g transform="matrix(0.999744,0,0,0.999744,0,0)" stroke="none" font-style="normal" font-size="34.5833" font-weight="400" fill="#000000" fill-opacity="0" font-family="MS Shell Dlg 2">
   <rect y="0" height="2953" x="0" width="2953"/>
  </g>
  <g stroke-width="1" transform="matrix(0.999744,0,0,0.999744,0,0)" stroke="#000000" font-style="normal" stroke-opacity="1" stroke-linecap="square" stroke-linejoin="bevel" font-size="34.5833" font-weight="400" fill="none" font-family="MS Shell Dlg 2"/>
  <g stroke-width="3.07087" transform="matrix(0.999744,0,0,0.999744,0,0)" stroke="#5c5c5c" font-style="normal" stroke-opacity="1" stroke-linecap="square" stroke-linejoin="bevel" font-size="34.5833" font-weight="400" fill="#c5c5c5" fill-opacity="1" font-family="MS Shell Dlg 2">
   <path vector-effect="none" fill-rule="evenodd" d="M820.476,649.723 L846.787,602.327 L848.589,566.285 L859.064,537.969 L856.879,519.688 L857.149,510.148 L864.96,473.492 L864.048,461.631 L864.47,455.611 L864.583,453.189 L866.813,452.041 L868.345,451.297 L869.899,450.678 L871.521,450.036 L872.704,449.484 L874.033,448.819 L875.846,448.538 L878.077,448.053 L879.958,447.175 L881.242,446.296 L882.12,445.429 L882.92,442.771 L883.427,440.969 L883.539,439.809 L894.974,420.678 L890.176,392.508 L888.985,385.438 L893.992,369.354 L895.186,365.502 L896.391,361.571 L898.784,358.699 L900.558,356.553 L903.112,351.98 L931.524,354.877 L965.826,350.496 L970.309,349.978 L975.355,345.901 L999.087,335.223 L1011.94,322.495 L1012.63,322.968 L1013.31,323.104 L1014.39,322.112 L1015.55,321.775 L1016.38,320.828 L1016.71,320.907 L1016.97,321.369 L1017.28,321.47 L1017.58,320.186 L1018.18,320.276 L1019.53,319.398 L1019.85,318.981 L1020.52,318.764 L1020.95,318.428 L1021.1,317.956 L1021.56,317.747 L1021.5,317.111 L1021.7,316.692 L1022.16,316.658 L1023.31,316.264 L1023.62,315.762 L1024.22,315.885 L1025.14,314.987 L1025.74,314.916 L1026.35,314.442 L1027.5,314.09 L1028.19,314.076 L1028.89,313.986 L1029.47,314.238 L1030.14,313.51 L1030.96,312.795 L1032.07,311.398 L1033.39,310.103 L1033.67,309.326 L1034.3,308.966 L1035.11,308.118 L1035.37,307.535 L1035.48,306.64 L1035.54,305.832 L1035.83,305.195 L1036.2,304.612 L1036.18,303.196 L1036.4,302.12 L1036.54,301.523 L1036.83,300.625 L1037,299.868 L1037.43,298.983 L1037.61,298.085 L1037.35,296.9 L1037.45,296.232 L1038.16,295.554 L1038.44,294.96 L1038.5,294.32 L1037.7,293.386 L1037.61,292.546 L1037.58,292.282 L1037.41,291.409 L1037.67,290.55 L1038.18,289.756 L1038.7,288.866 L1039.62,288.441 L1040.22,288.221 L1040.88,287.554 L1041.38,287.413 L1042.06,286.878 L1042.49,286.622 L1042.84,286.799 L1043,287.081 L1043.29,286.895 L1043.39,286.422 L1057.64,262.87 L1034.93,229.621 L1056.29,202.949 L1081.7,176.278 L1085.48,138.884 L1095.52,131.191 L1095.45,121.144 L1100.28,113.012 L1110.42,109.092 L1133.44,96.5221 L1149.07,88.2323 L1162.63,82.916 L1167.86,82.3754 L1169.48,83.3665 L1171.69,83.5468 L1175.25,83.2314 L1176.96,81.249 L1177.95,76.9239 L1179.48,74.9416 L1192.55,72.5087 L1197.33,73.2295 L1208.5,76.3833 L1222.74,68.544 L1227.24,73.9504 L1236.7,74.1306 L1234.18,82.2402 L1239.23,86.4752 L1240.31,99.0902 L1247.43,107.65 L1250.04,152.974 L1255.99,168.202 L1259.59,178.024 L1301.04,196.135 L1344.47,210.462 L1378.89,211.453 L1406.1,221.725 L1411.6,206.497 L1451.53,187.637 L1460.66,156.888 L1461.91,155.435 L1462.41,155.052 L1462.93,155.075 L1463.24,155.435 L1464.09,156.1 L1464.69,156.257 L1465.23,156.043 L1465.7,155.795 L1466.23,155.255 L1467.2,153.644 L1471.03,144.712 L1471.59,143.102 L1472.6,141.806 L1473.4,141.581 L1474.05,141.671 L1475.25,142.37 L1477.41,143.113 L1479.37,142.82 L1480.4,142.55 L1482.13,142.167 L1482.99,142.133 L1487.72,143.952 L1488.93,145.444 L1489.71,147.399 L1490.85,150.181 L1492.12,152.422 L1494.6,155.114 L1495.9,156.088 L1497.36,157.817 L1498.54,158.859 L1500.16,159.445 L1504.57,158.904 L1521.92,148.452 L1526.92,134.44 L1552.78,127.772 L1558.68,128.628 L1570.53,115.428 L1574.54,111.778 L1582.29,110.066 L1588.64,116.419 L1592.07,116.644 L1568.59,135.251 L1577.78,154.354 L1579.59,179.043 L1616.89,225.937 L1637.97,252.317 L1643.36,262.238 L1645.21,267.597 L1648.03,284.488 L1650.37,336.377 L1654.44,354.981 L1657.62,369.518 L1656.95,398.057 L1657.55,408.964 L1659.99,422.691 L1665.19,442.163 L1691.84,427.999 L1707.47,417.553 L1719.38,412.599 L1769.04,399.978 L1819.99,367.006 L1826.48,380.612 L1830.89,410.257 L1826.03,419.898 L1845.85,429.99 L1846.66,471.8 L1845.58,474.953 L1847.11,479.008 L1851.35,481.621 L1853.78,484.595 L1860.54,486.938 L1866.13,486.847 L1870,485.586 L1882.8,484.775 L1885.41,485.676 L1888.47,487.388 L1893.52,487.478 L1899.83,488.92 L1902.26,490.181 L1902.53,492.344 L1905.5,493.876 L1907.03,492.885 L1908.57,490.452 L1911,490.181 L1921.36,503.247 L1915.1,518.79 L1918.97,529.468 L1926.27,545.552 L1946.95,553.662 L1950.2,554.653 L1953.08,553.211 L1954.75,553.571 L1956.28,554.427 L1957.45,556.185 L1957.72,558.753 L1959.07,559.699 L1959.25,561.456 L1959.57,563.303 L1961.5,565.105 L1964.36,564.441 L1971.06,560.56 L1978.6,556.714 L1980.85,555.486 L1982.3,554.501 L1982.63,554.484 L1982.63,555.16 L1983.05,555.971 L1983.91,556.286 L1986.55,555.543 L1987.81,555.745 L1989.27,556.781 L1990.42,558.043 L1992.31,558.471 L1993.93,557.435 L1998.17,556.263 L2000.15,553.02 L2003.12,550.406 L2014.03,557.975 L2033.13,561.399 L2053.4,561.129 L2055.7,560.634 L2059.53,557.975 L2062.78,558.606 L2067.33,560.904 L2072.64,564.283 L2077.15,560.904 L2082.01,561.805 L2086.2,559.417 L2085.71,550.226 L2105.35,544.459 L2121.66,554.011 L2128.06,564.283 L2150.22,572.843 L2169.51,593.027 L2181.58,601.463 L2193.11,621.084 L2228.26,645.953 L2260.27,683.406 L2246.03,692.642 L2240.71,700.752 L2240.31,720.125 L2246.98,729.361 L2252.07,746.977 L2265,770.359 L2257.04,779.708 L2244.92,786.432 L2243.74,795.758 L2242.57,797.786 L2240.19,799.723 L2237.66,800.984 L2233.83,802.606 L2231.67,803.057 L2231.4,808.148 L2233.43,816.798 L2235.36,822.182 L2241.92,840.113 L2234.46,856.085 L2247.01,871.425 L2241.97,885.212 L2239.62,903.503 L2242.33,912.514 L2228.4,933.824 L2220.02,950.854 L2190.56,957.702 L2185.6,964.641 L2177.13,970.588 L2173.62,978.968 L2165.96,988.068 L2155.06,1006.18 L2159.29,1027.9 L2162.81,1030.69 L2159.47,1041.23 L2156.23,1047.27 L2153.17,1051.32 L2151.52,1053.15 L2151.72,1055.02 L2152.47,1056.23 L2154.52,1057.29 L2155.55,1058.17 L2155.71,1058.87 L2156.5,1059.55 L2157.26,1059.64 L2159.53,1061.18 L2159.97,1061.36 L2160.26,1061.54 L2160.82,1061.98 L2161.57,1062.24 L2162.06,1062.94 L2162.4,1063.43 L2163.12,1064.39 L2163.65,1065.19 L2164.15,1065.71 L2164.38,1066.48 L2164.87,1067.14 L2165.31,1067.6 L2165.46,1068.14 L2165.61,1068.92 L2165.95,1069.81 L2166.41,1070.31 L2166.16,1071.37 L2166.07,1072.11 L2166.37,1072.99 L2167.29,1074.14 L2168.53,1074.72 L2172.79,1111.19 L2174.14,1133.54 L2174.32,1151.02 L2146.84,1208.51 L2149.63,1229.68 L2140.98,1257.17 L2123.32,1270.05 L2123.14,1286.99 L2114.04,1294.79 L2099.44,1306.5 L2096.2,1318.03 L2101.24,1346.78 L2102.86,1360.92 L2092.41,1374.8 L2095.11,1386.06 L2096.38,1399.04 L2099.98,1438.87 L2102.32,1462.74 L2103.85,1477.79 L2107.1,1492.57 L2112.32,1519.24 L2133.36,1551.82 L2141.16,1555.01 L2174.2,1556.57 L2180.4,1566.19 L2201.35,1566.84 L2202.3,1569.72 L2203.13,1571.86 L2204.28,1573.98 L2207.39,1577.83 L2210.65,1583.04 L2210.75,1583.98 L2211.36,1585.12 L2211.04,1587.31 L2211.55,1587.86 L2213.23,1588.52 L2214.27,1589.61 L2214.69,1590.34 L2215.45,1590.96 L2216.42,1591.23 L2217.12,1591.65 L2217.25,1592.28 L2217.75,1593.01 L2218.61,1593.32 L2219.06,1593.91 L2219.48,1594.69 L2220.34,1595.21 L2221.17,1595.96 L2221.78,1596.9 L2223.92,1597.6 L2225.18,1598.14 L2226.69,1599.18 L2227.77,1600.89 L2229.35,1601.95 L2231.4,1603.37 L2235.05,1604.88 L2239.13,1605.78 L2241.09,1605.67 L2243.4,1604.81 L2245.48,1603.48 L2246.77,1602.62 L2247.82,1602.34 L2250.16,1602.4 L2251.62,1602.67 L2254.34,1603.19 L2256.33,1603.28 L2257.95,1604.31 L2260.79,1607.38 L2263.26,1609.63 L2264.39,1611.88 L2264.26,1615.04 L2262.9,1618.82 L2265.25,1639.19 L2248.76,1695.95 L2243.76,1715.73 L2254.03,1727.13 L2261.82,1737.4 L2264.71,1749.34 L2274.8,1779.44 L2274.8,1796.02 L2289.21,1812.6 L2297.5,1861.25 L2314.44,1903.42 L2312.1,1921.89 L2323.64,2000.29 L2334.27,2043.76 L2142.7,2140.63 L2107.2,2141.53 L1793.11,2153.37 L1683.28,2034.89 L1598.26,1980.91 L1563.17,1991.28 L1473.36,2004.15 L1499.05,2457.03 L1529.5,2621.92 L1537.49,2747.38 L1549.89,2785.96 L1502.1,2797.52 L1482.51,2795.55 L1469.86,2794.27 L1145.81,2761.58 L1074.29,2757.69 L1016.07,2753.85 L999.717,2750.69 L901.288,2731.7 L892.957,2730.11 L879.396,2631.02 L876.718,2561.52 L861.531,2424.15 L860.049,2422.17 L859.77,2421.38 L859.743,2420.34 L859.936,2418.3 L862.603,2414.84 L863.896,2412.44 L864.392,2411.81 L879.207,2397.7 L882.138,2393.5 L884.481,2391.35 L885.318,2389.35 L885.849,2387.32 L885.407,2386.24 L885.078,2385 L885.141,2383.47 L885.892,2380.65 L888.097,2378.74 L890.427,2375.98 L891.985,2373.34 L893.721,2368.3 L895.437,2361.94 L897.683,2355.73 L900.885,2348.51 L902.848,2344.42 L905.285,2338.4 L906.086,2335.48 L907.877,2332.7 L910.143,2327.15 L911.139,2324.77 L912.763,2322.51 L914.048,2320.66 L915.629,2318.67 L915.409,2317.36 L914.059,2313.4 L907.961,2308.91 L906.497,2306.71 L906.471,2304.11 L907.88,2301.32 L915.494,2290.91 L918.369,2288 L921.248,2284.33 L928.174,2273.64 L929.325,2268.53 L929.495,2266.83 L929.494,2264.71 L929.934,2262.76 L931.334,2260.54 L934.067,2257.81 L934.322,2256.35 L933.853,2254.41 L929.784,2247.64 L928.829,2244.91 L924.868,2240.37 L923.645,2236.89 L923.989,2234.72 L924.091,2230.48 L924.061,2227.81 L924.435,2225.07 L924.319,2224.41 L923.982,2223 L924.512,2221.33 L924.628,2220.28 L923.354,2218.52 L922.987,2217.69 L922.788,2215.93 L922.05,2212.28 L921.574,2211.33 L919.646,2210.56 L919.536,2209.48 L919.009,2208.47 L922.485,2195.77 L921.08,2190.52 L922.991,2185.27 L924.037,2181.81 L925.337,2180.56 L925.759,2178.61 L925.62,2177.53 L925.104,2176.07 L924.889,2173.77 L925.156,2171.7 L924.994,2170.4 L924.727,2169.38 L925.041,2167.76 L925.829,2165.89 L926.446,2164.42 L927.089,2162.14 L927.733,2159.64 L929.334,2155.51 L929.209,2154.54 L929.487,2153.01 L929.317,2151.29 L929.881,2149.13 L930.277,2147.3 L930.584,2144.23 L931.058,2142.72 L931.543,2139.98 L931.847,2138.24 L931.596,2136.27 L931.275,2134.71 L931.147,2132.83 L931.083,2130.71 L931.16,2129.13 L931.296,2124.14 L932.113,2114.28 L932.715,2108.76 L933.081,2104.45 L933.336,2100.24 L933.983,2097.69 L934.437,2095.16 L935.151,2091.3 L935.936,2082.5 L936.628,2079.2 L937.208,2076.27 L937.722,2072.2 L938.911,2068.9 L938.943,2067.91 L939.472,2067.08 L939.418,2066.58 L939.093,2065.81 L938.278,2064.94 L936.947,2063.05 L937.086,2061.71 L936.951,2060.67 L936.506,2059.87 L936.071,2059.39 L934.021,2057.97 L933.08,2056.93 L933.012,2055.23 L932.789,2053.83 L932.525,2052.78 L931.743,2049.13 L931.751,2048.42 L932.835,2047.08 L932.918,2046.14 L933.328,2044.72 L934.084,2043.27 L934.259,2042.84 L934.489,2041.22 L934.535,2040.12 L934.711,2039.75 L936.086,2039.09 L936.614,2038.4 L937.094,2038.14 L937.255,2037.85 L937.306,2037.39 L937.151,2037.09 L936.687,2036.5 L936.771,2036.17 L936.87,2035.79 L936.9,2035.02 L937.172,2034.64 L937.549,2034.04 L937.854,2033.23 L938.016,2032.21 L938.095,2031.25 L938.272,2030.74 L938.558,2030.18 L939.05,2028.95 L939.645,2028.38 L940.109,2027.44 L940.18,2026.9 L940.106,2026.48 L939.98,2026.12 L939.715,2025.57 L931.568,2020.15 L922.529,1978.26 L924.72,1856.2 L923.629,1852.33 L982.637,1829.71 L1017.21,1794.25 L1029.42,1727.08 L1035.69,1713.79 L1035.75,1712.42 L1035.89,1709.59 L1035.82,1708.36 L1035.73,1707.08 L1035.86,1705.58 L1036.16,1704.69 L1036.6,1703.51 L1036.96,1702.16 L1037.14,1701.42 L1037.37,1700.24 L1037.65,1698.95 L1038.01,1697.27 L1037.65,1696.42 L1037.72,1695.77 L1038.17,1694.94 L1038.63,1694.41 L1039.47,1693.96 L1040.11,1693.64 L1040.36,1693.41 L1040.95,1692.28 L1041.28,1691.66 L1041.44,1691.13 L1022.7,1628.89 L1033.4,1620.89 L1031.51,1604.04 L1035.47,1573.05 L1065.33,1523.71 L1066.87,1489.03 L1071.11,1480.92 L1092.63,1442.59 L1123.66,1339.32 L1122.89,1308.38 L1120.45,1249.07 L1114.34,1220.51 L1108.14,1189 L1112.38,1146.5 L1100.11,1114.22 L1073.84,1072.31 L1061.19,1068.45 L1022.11,1022.12 L1010.36,1006.45 L1007.87,989.634 L988.178,966.415 L961.104,957.344 L942.946,944.033 L932.87,920.774 L925.037,903.557 L869.033,871.301 L865.855,850.864 L860.335,839.858 L842.232,834.207 L844.971,821.171 L841.664,792.594 L821.235,774.232 L820.531,758.519 L819.199,735.368 L813.11,724.747 L813.349,707.389 L806.568,689.66 L811.209,676.302 L820.476,649.723"/>
  </g>
  <g stroke-width="1" transform="matrix(0.999744,0,0,0.999744,0,0)" stroke="#000000" font-style="normal" stroke-opacity="1" stroke-linecap="square" stroke-linejoin="bevel" font-size="34.5833" font-weight="400" fill="none" font-family="MS Shell Dlg 2"/>
  <g stroke-width="1" transform="matrix(11.808,0,0,11.808,0,0)" stroke="#000000" font-style="normal" stroke-opacity="1" stroke-linecap="square" stroke-linejoin="bevel" font-size="34.5833" font-weight="400" fill="none" font-family="MS Shell Dlg 2"/>
  <g stroke-width="1" transform="matrix(11.808,0,0,11.808,0,0)" stroke="#000000" font-style="normal" stroke-opacity="1" stroke-linecap="square" stroke-linejoin="bevel" font-size="34.5833" font-weight="400" fill="none" font-family="MS Shell Dlg 2"/>
  <g stroke-width="1" transform="matrix(11.808,0,0,11.808,0,0)" stroke="#000000" font-style="normal" stroke-opacity="1" stroke-linecap="square" stroke-linejoin="bevel" font-size="34.5833" font-weight="400" fill="none" font-family="MS Shell Dlg 2"/>
  <g stroke-width="1" transform="matrix(1,0,0,1,0,0)" stroke="#000000" font-style="normal" stroke-opacity="1" stroke-linecap="square" stroke-linejoin="bevel" font-size="34.5833" font-weight="400" fill="none" font-family="MS Shell Dlg 2"/>
  <g stroke-width="1" transform="matrix(11.808,0,0,11.808,0,0)" stroke="#000000" font-style="normal" stroke-opacity="1" stroke-linecap="square" stroke-linejoin="bevel" font-size="34.5833" font-weight="400" fill="none" font-family="MS Shell Dlg 2"/>
  <g stroke-width="1" transform="matrix(11.808,0,0,11.808,0,0)" stroke="#000000" font-style="normal" stroke-opacity="1" stroke-linecap="square" stroke-linejoin="bevel" font-size="34.5833" font-weight="400" fill="none" font-family="MS Shell Dlg 2"/>
  <g stroke-width="1" transform="matrix(11.808,0,0,11.808,0,0)" stroke="#000000" font-style="normal" stroke-opacity="1" stroke-linecap="square" stroke-linejoin="bevel" font-size="34.5833" font-weight="400" fill="none" font-family="MS Shell Dlg 2"/>
  <g stroke-width="1" transform="matrix(11.808,0,0,11.808,0,0)" stroke="#000000" font-style="normal" stroke-opacity="1" stroke-linecap="square" stroke-linejoin="bevel" font-size="34.5833" font-weight="400" fill="none" font-family="MS Shell Dlg 2"/>
  <g stroke-width="1" transform="matrix(1,0,0,1,0,0)" stroke="#000000" font-style="normal" stroke-opacity="1" stroke-linecap="square" stroke-linejoin="bevel" font-size="34.5833" font-weight="400" fill="none" font-family="MS Shell Dlg 2"/>
 </g>
</svg>
