<?xml version='1.0' encoding='UTF-8' standalone='no'?>
<svg xmlns:xlink="http://www.w3.org/1999/xlink" baseProfile="tiny" xmlns="http://www.w3.org/2000/svg" height="249.936mm" viewBox="0 0 2952 2952" width="249.936mm" version="1.2">
 <title>Qt SVG Document</title>
 <desc>Generated with Qt</desc>
 <defs/>
 <g stroke-width="1" fill-rule="evenodd" fill="none" stroke-linejoin="bevel" stroke-linecap="square" stroke="black">
  <g stroke-width="1" transform="matrix(1,0,0,1,0,0)" stroke-opacity="1" font-size="34.5833" fill="none" stroke-linejoin="bevel" font-style="normal" stroke-linecap="square" stroke="#000000" font-family="MS Shell Dlg 2" font-weight="400"/>
  <g stroke-width="1" transform="matrix(1,0,0,1,0,0)" stroke-opacity="1" font-size="34.5833" fill="none" stroke-linejoin="bevel" font-style="normal" stroke-linecap="square" stroke="#000000" font-family="MS Shell Dlg 2" font-weight="400"/>
  <g stroke-width="1" transform="matrix(11.808,0,0,11.808,0,0)" stroke-opacity="1" font-size="34.5833" fill="none" stroke-linejoin="bevel" font-style="normal" stroke-linecap="square" stroke="#000000" font-family="MS Shell Dlg 2" font-weight="400"/>
  <g stroke-width="1" transform="matrix(0.999744,0,0,0.999744,0,0)" stroke-opacity="1" font-size="34.5833" fill="none" stroke-linejoin="bevel" font-style="normal" stroke-linecap="square" stroke="#000000" font-family="MS Shell Dlg 2" font-weight="400"/>
  <g transform="matrix(0.999744,0,0,0.999744,0,0)" font-size="34.5833" fill-opacity="0" fill="#ffffff" font-style="normal" stroke="none" font-family="MS Shell Dlg 2" font-weight="400">
   <path fill-rule="evenodd" vector-effect="none" d="M-2,-2 L2955,-2 L2955,2955 L-2,2955 L-2,-2"/>
  </g>
  <g stroke-width="1" transform="matrix(0.999744,0,0,0.999744,0,0)" stroke-opacity="1" font-size="34.5833" fill="none" stroke-linejoin="bevel" font-style="normal" stroke-linecap="square" stroke="#000000" font-family="MS Shell Dlg 2" font-weight="400"/>
  <g stroke-width="1" transform="matrix(11.808,0,0,11.808,0,0)" stroke-opacity="1" font-size="34.5833" fill="none" stroke-linejoin="bevel" font-style="normal" stroke-linecap="square" stroke="#000000" font-family="MS Shell Dlg 2" font-weight="400"/>
  <g stroke-width="1" transform="matrix(11.808,0,0,11.808,0,0)" stroke-opacity="1" font-size="34.5833" fill="none" stroke-linejoin="bevel" font-style="normal" stroke-linecap="square" stroke="#000000" font-family="MS Shell Dlg 2" font-weight="400"/>
  <g stroke-width="1" transform="matrix(11.808,0,0,11.808,0,0)" stroke-opacity="1" font-size="34.5833" fill="none" stroke-linejoin="bevel" font-style="normal" stroke-linecap="square" stroke="#000000" font-family="MS Shell Dlg 2" font-weight="400"/>
  <g stroke-width="1" transform="matrix(11.808,0,0,11.808,0,0)" stroke-opacity="1" font-size="34.5833" fill="none" stroke-linejoin="bevel" font-style="normal" stroke-linecap="square" stroke="#000000" font-family="MS Shell Dlg 2" font-weight="400"/>
  <g stroke-width="1" transform="matrix(11.808,0,0,11.808,0,0)" stroke-opacity="1" font-size="34.5833" fill="none" stroke-linejoin="bevel" font-style="normal" stroke-linecap="square" stroke="#000000" font-family="MS Shell Dlg 2" font-weight="400"/>
  <g transform="matrix(11.808,0,0,11.808,0,0)" font-size="34.5833" fill-opacity="0" fill="#ffffff" font-style="normal" stroke="none" font-family="MS Shell Dlg 2" font-weight="400">
   <path fill-rule="evenodd" vector-effect="none" d="M0,0 L250,0 L250,250 L0,250 L0,0"/>
  </g>
  <g stroke-width="1" transform="matrix(11.808,0,0,11.808,0,0)" stroke-opacity="1" font-size="34.5833" fill="none" stroke-linejoin="bevel" font-style="normal" stroke-linecap="square" stroke="#000000" font-family="MS Shell Dlg 2" font-weight="400"/>
  <g stroke-width="1" transform="matrix(11.808,0,0,11.808,0,0)" stroke-opacity="1" font-size="34.5833" fill="none" stroke-linejoin="bevel" font-style="normal" stroke-linecap="square" stroke="#000000" font-family="MS Shell Dlg 2" font-weight="400"/>
  <g transform="matrix(0.999744,0,0,0.999744,0,0)" font-size="34.5833" fill-opacity="0" fill="#000000" font-style="normal" stroke="none" font-family="MS Shell Dlg 2" font-weight="400">
   <rect x="0" height="2953" width="2953" y="0"/>
  </g>
  <g stroke-width="1" transform="matrix(0.999744,0,0,0.999744,0,0)" stroke-opacity="1" font-size="34.5833" fill="none" stroke-linejoin="bevel" font-style="normal" stroke-linecap="square" stroke="#000000" font-family="MS Shell Dlg 2" font-weight="400"/>
  <g stroke-width="3.07087" transform="matrix(0.999744,0,0,0.999744,0,0)" stroke-opacity="1" font-size="34.5833" fill-opacity="1" fill="#c5c5c5" stroke-linejoin="bevel" font-style="normal" stroke-linecap="square" stroke="#5c5c5c" font-family="MS Shell Dlg 2" font-weight="400">
   <path fill-rule="evenodd" vector-effect="none" d="M2309.72,1993.47 L2316.46,2007.72 L2324.27,2015.69 L2336.36,2018.29 L2357.8,2020.75 L2369.14,2027.49 L2402.06,2032.85 L2411.1,2040.06 L2412.78,2047.72 L2418.14,2059.98 L2425.03,2065.65 L2436.36,2065.8 L2459.64,2062.58 L2481.38,2063.96 L2504.77,2066.18 L2516.91,2073.77 L2525.79,2084.34 L2528.24,2092.46 L2530.85,2105.95 L2538.5,2127.86 L2545.55,2140.12 L2554.12,2162.8 L2555.5,2167.55 L2554.12,2196.21 L2553.21,2206.02 L2548,2217.97 L2540.19,2232.07 L2530.39,2245.86 L2520.28,2257.66 L2510.48,2268.39 L2506.19,2271.61 L2494.4,2274.36 L2483.99,2275.13 L2473.42,2274.67 L2459.33,2262.41 L2445.09,2260.73 L2436.52,2260.73 L2429.32,2261.8 L2425.49,2260.73 L2424.11,2255.82 L2422.43,2242.95 L2414.46,2236.97 L2410.79,2236.97 L2406.04,2237.43 L2400.53,2244.94 L2409.41,2257.2 L2408.95,2267.01 L2401.45,2273.14 L2399,2272.22 L2394.25,2267.77 L2389.81,2268.39 L2381.23,2266.7 L2379.86,2270.23 L2378.44,2271.15 L2377.05,2270.98 L2374.6,2268.94 L2371.74,2270.41 L2369.94,2270.17 L2367.74,2266 L2365.61,2267.55 L2363.65,2268.04 L2359.73,2266.32 L2353.36,2271.23 L2351.65,2274.17 L2350.02,2282.19 L2345.32,2279.86 L2342.26,2281.08 L2339.61,2281.29 L2337.36,2275.98 L2333.89,2274.75 L2329.6,2280.06 L2317.96,2282.72 L2318.98,2301.52 L2334.09,2309.28 L2337.77,2305.6 L2336.75,2301.11 L2332.46,2296.41 L2334.91,2293.75 L2338.99,2294.57 L2340.63,2298.45 L2344.51,2300.49 L2359,2297.63 L2363.09,2289.67 L2367.17,2290.89 L2369.83,2307.85 L2368.8,2318.07 L2369.21,2326.44 L2367.38,2329.92 L2361.86,2330.12 L2359.62,2327.06 L2359.21,2323.58 L2354.92,2322.15 L2347.14,2325.9 L2345.2,2328.65 L2346.94,2335.09 L2349.18,2339.99 L2350.1,2346.43 L2349.79,2354.61 L2346.58,2362.22 L2341.68,2367.63 L2338.41,2368.45 L2335.04,2367.73 L2318.4,2354.76 L2311.76,2350.77 L2294,2341.58 L2272.97,2332.79 L2238.97,2326.15 L2208.45,2319.41 L2170.06,2313.89 L2163.53,2313.49 L2159.61,2313.89 L2145.05,2312.06 L2135.05,2308.99 L2111.87,2294.48 L2101.15,2285.8 L2089.72,2277.73 L2077.33,2267.25 L2069.16,2261.67 L2061.44,2254.86 L2051.27,2248.43 L2035.96,2237.15 L2028.36,2232.49 L2019.3,2228.32 L2007.03,2224.06 L2005.33,2221.89 L2001.72,2220.17 L1985.91,2214.9 L1972.37,2212.63 L1965.83,2211.18 L1964.29,2210.12 L1946.77,2207.6 L1925.94,2208.83 L1912.47,2208.83 L1896.48,2211.34 L1893.79,2212.69 L1881.41,2212.88 L1866.16,2209.99 L1861.38,2207.42 L1855.99,2209.26 L1843.43,2205.83 L1832.83,2201.06 L1830.88,2199.87 L1830.39,2198.59 L1825.92,2195.83 L1822.79,2194.24 L1820.4,2194.06 L1807.42,2185.66 L1804.17,2187.68 L1802.82,2187.56 L1801.96,2186.89 L1801.84,2181.86 L1794.97,2178.29 L1792.59,2176.23 L1785.56,2172.06 L1778.91,2169.06 L1772.13,2163.95 L1767.84,2162.38 L1764.05,2167.09 L1762.64,2166.29 L1759.45,2171.19 L1757.8,2170.34 L1765.03,2158.69 L1762.22,2154.2 L1747.46,2139.65 L1746.25,2139.65 L1743.14,2135.67 L1740.44,2134.69 L1738.91,2133.28 L1737.32,2133.28 L1734.56,2130.4 L1732.11,2130.15 L1727.64,2126.66 L1726.05,2126.66 L1718.82,2123.96 L1714.84,2121.69 L1707.28,2118.99 L1705.31,2119.27 L1703.1,2118.42 L1699.19,2118.18 L1698.32,2115.34 L1695.18,2114.69 L1694.31,2112.84 L1693.13,2113.3 L1692.11,2112.72 L1691.66,2114.32 L1690.32,2114.73 L1688.36,2114.56 L1686.44,2112.48 L1685.01,2114.11 L1683.45,2114.34 L1679.74,2112.83 L1666.59,2109.65 L1660.45,2109.81 L1659.25,2108.61 L1658.09,2108.61 L1657.34,2109.35 L1653.03,2109.4 L1652.71,2110.63 L1650.99,2111.77 L1650.08,2115.13 L1649.31,2116 L1648.75,2115.13 L1649.67,2109.59 L1649.21,2109.02 L1640.38,2108.61 L1640.12,2106.03 L1639.43,2105.6 L1636.5,2107.45 L1635.43,2107.45 L1633.05,2109.61 L1631.24,2108.05 L1627.44,2106.21 L1618.66,2105.88 L1611.57,2100.23 L1609.73,2099.87 L1608.42,2097.13 L1608.5,2093.78 L1598.95,2080.15 L1595.68,2077.29 L1586.82,2072.2 L1584.99,2072.44 L1584.21,2071.64 L1583.49,2072.59 L1582.67,2072.34 L1579.93,2069.56 L1568.33,2064.12 L1562.11,2059.9 L1557.51,2058.38 L1556.13,2058.94 L1552.86,2058.36 L1551.09,2056.27 L1550.25,2053.3 L1549.35,2052.56 L1539.71,2051.66 L1525.67,2047.41 L1516.44,2046.43 L1506.15,2043.41 L1495.56,2043.28 L1492.2,2041.84 L1491.18,2039.1 L1486.89,2040 L1485.08,2042.97 L1469.93,2037.85 L1465.84,2035.6 L1460.53,2030.7 L1435.17,2018.18 L1436.24,2014.71 L1434.09,2012.87 L1428.02,2010.11 L1425.82,2013.89 L1421.38,2012.46 L1421.33,2011.49 L1419.06,2009.76 L1412.28,2005.02 L1407.63,2002.81 L1407.14,2001.01 L1401.54,1999.26 L1401.18,1999.99 L1397.35,2001.84 L1393.72,1999.64 L1394.79,1998.01 L1389.38,1995.1 L1384.02,1994.74 L1383.64,1995.13 L1384.29,1999.35 L1379.78,2005.67 L1378.96,2006.06 L1376.61,2009.49 L1373.84,2011.53 L1370.49,2012.02 L1368.37,2009.24 L1366.73,2005.25 L1357.28,2000.11 L1352.27,1998.89 L1350.18,2006.21 L1350.42,2006.92 L1355.54,2007.94 L1361.26,2013.9 L1362.81,2014.8 L1363.38,2016.44 L1362.81,2019.71 L1363.47,2021.67 L1366.08,2024.61 L1368.69,2023.87 L1370.49,2024.45 L1370.33,2026.82 L1372.69,2026.82 L1378.08,2025.1 L1379.39,2023.47 L1379.55,2020.11 L1380.37,2018.97 L1380.62,2016.52 L1381.84,2016.6 L1381.6,2020.6 L1380.53,2024.45 L1381.92,2028.29 L1382,2030.9 L1383.15,2031.8 L1385.84,2030.66 L1387.56,2028.12 L1389.11,2029.11 L1388.21,2031.31 L1384.86,2033.76 L1377.92,2036.46 L1374.74,2036.54 L1372.78,2037.52 L1372.2,2038.42 L1372.2,2042.18 L1370.73,2042.75 L1370.73,2037.11 L1369.67,2036.38 L1362.57,2035.23 L1360.28,2034.09 L1354.07,2028.61 L1351.62,2027.31 L1349.66,2027.72 L1348.68,2032.13 L1347.46,2033.76 L1345.66,2033.93 L1345.01,2027.06 L1346.31,2022.89 L1345.21,2020.98 L1337.9,2021.5 L1329.82,2019.46 L1323.28,2016.44 L1322.38,2014.97 L1322.84,2013.58 L1320.34,2013 L1320.61,2013.6 L1318.47,2014.38 L1317.89,2013.48 L1318.44,2012.24 L1318.04,2012.04 L1311.51,2010.82 L1298.49,2006.73 L1296.75,2005.25 L1295.84,2002.34 L1296.96,1999.58 L1301.5,1994.11 L1304.36,1994.37 L1305.48,1995.24 L1305.89,1998.15 L1311.4,1998.71 L1319.93,1996.56 L1328.4,2000.91 L1335.6,2002.85 L1339.79,2005.04 L1348.21,2006.47 L1349.35,2003.06 L1333,2000.01 L1326.79,1996.74 L1311.05,1992.53 L1310.68,1993.9 L1308.85,1993.04 L1309.1,1992.2 L1298.21,1992.73 L1295.27,1991.18 L1294.78,1989.38 L1297.37,1975.43 L1299.33,1970.2 L1296.23,1969.17 L1295,1973.67 L1292.46,1977.81 L1290.09,1979.04 L1285.12,1978.79 L1267.18,1963.62 L1265.05,1967.48 L1267.17,1970.18 L1267.26,1972.22 L1265.05,1973.69 L1262.11,1972.46 L1261.29,1972.79 L1247.74,1987.91 L1246.27,1991.75 L1246.35,1995.6 L1248.14,2002.05 L1249.29,2003.03 L1248.72,2006.55 L1246.43,2009.57 L1244.31,2010.39 L1241.53,2010.06 L1240.3,2008.84 L1238.1,2001.64 L1232.71,2006.71 L1227.15,2013.49 L1224.87,2014.23 L1215.95,2013.1 L1213.02,2012.2 L1199.49,2000.45 L1197.12,1994.01 L1199.71,1987.09 L1198.9,1982.11 L1185.58,1974.02 L1183.79,1975.08 L1180.68,1974.92 L1177.17,1972.79 L1173.17,1968.71 L1169.66,1967.32 L1164.43,1962.25 L1153.81,1953.83 L1142.83,1929.18 L1141.5,1924.76 L1139.92,1923.41 L1139.25,1920.29 L1140.17,1918.86 L1144.2,1922.33 L1146.09,1922.03 L1148.13,1919.47 L1148.59,1917.81 L1147.36,1915.05 L1142.47,1913.5 L1139.35,1913.65 L1138.54,1917.23 L1138.64,1921.03 L1137.77,1922.39 L1134.45,1923.82 L1132.57,1923.1 L1121.48,1914.75 L1118.42,1911.53 L1115.21,1904.33 L1110.61,1902.34 L1106.48,1898.04 L1103.11,1890.75 L1102.81,1886.83 L1103.72,1881.8 L1113.69,1869.74 L1111.54,1868.19 L1099.45,1882.2 L1099.33,1883.56 L1098.11,1883.76 L1088.77,1894.65 L1097.89,1903.25 L1098.88,1905.43 L1098.47,1906.75 L1098.88,1908.18 L1098.21,1908.59 L1093.08,1911.46 L1083.82,1914.88 L1083.87,1915.88 L1076.74,1915.1 L1075.49,1914.44 L1072,1914.68 L1069.32,1916.55 L1052.86,1934.94 L1049.16,1936.85 L1046.74,1936.6 L1042.27,1934.43 L1022.06,1922.5 L1021.68,1920.05 L1022.55,1915.61 L1027.02,1907.54 L1031.06,1901.76 L1029.03,1892.62 L1031.33,1891.34 L1032.3,1891.75 L1031.28,1893.9 L1032.2,1894.61 L1035.82,1893.44 L1037.92,1891.94 L1052.21,1870.6 L1053.69,1870.65 L1055.73,1868.87 L1057.46,1865.44 L1058.79,1864.63 L1059.1,1865.14 L1057.21,1868.54 L1072.37,1865.39 L1073.81,1863.92 L1075.12,1864.47 L1076.35,1862.99 L1076.66,1861.15 L1078.44,1860.74 L1079.67,1859.52 L1079.92,1856.3 L1078.95,1855.38 L1075.28,1854.31 L1074.17,1852.53 L1073.11,1852.31 L1070.38,1854.26 L1062.77,1850.48 L1059.96,1850.78 L1053.58,1853.9 L1052.1,1856.56 L1052.1,1842.87 L1050.62,1841.64 L1038.08,1840.99 L1036.57,1841.9 L1036.06,1843.11 L1037.5,1845.37 L1039.19,1845.11 L1039.34,1846.39 L1039.95,1845.67 L1041.08,1845.78 L1040.87,1846.7 L1038.83,1848.64 L1035.87,1849.45 L1037.5,1851.5 L1035.19,1850.79 L1033.62,1851.19 L1031.49,1849.65 L1022.15,1846.72 L1015.67,1842.76 L1015.81,1839.14 L1018.51,1838.11 L1015.96,1835.49 L1003.47,1836.14 L1003.05,1836.99 L1001.93,1836 L996.624,1835.49 L984.57,1834.9 L972.166,1835.49 L960.596,1840.54 L957.28,1843.86 L958.009,1844.56 L958.24,1851.23 L952.932,1851.85 L947.409,1850.17 L945.163,1850.27 L944.519,1851.47 L941.974,1851.69 L940.467,1854.92 L939.14,1853.39 L940.008,1852.98 L937.353,1852.47 L937.404,1851.45 L938.119,1851.4 L938.221,1850.78 L937.455,1850.78 L935.413,1852.52 L935.019,1853.88 L935.107,1854.41 L937.557,1854.87 L937.557,1855.43 L934.137,1855.53 L933.525,1854.46 L920.339,1849.83 L919.133,1848.63 L915.576,1848.63 L913.617,1850.37 L912.116,1850.25 L911.656,1848.41 L905.255,1861.74 L908.134,1864.96 L907.522,1865.73 L902.407,1860.61 L903.142,1859.87 L904.398,1861.07 L911.044,1847.3 L904.582,1832.87 L898.886,1825.96 L895.424,1827.23 L894.965,1826.31 L897.17,1825.02 L895.87,1819.33 L894.107,1816.07 L893.249,1815.34 L892.057,1815.52 L891.106,1812.98 L892.184,1812.03 L891.259,1811.4 L890.238,1811.81 L889.268,1810.58 L891.657,1809.72 L891.351,1808.99 L865.441,1757.86 L850.78,1732.12 L849.198,1732.17 L849.606,1730.28 L842.46,1719.6 L832.863,1707.08 L829.584,1701.73 L828.933,1701.87 L827.606,1700.29 L826.381,1700.6 L820.153,1693.96 L802.032,1711.58 L801.828,1714.34 L813.724,1730 L810.674,1732.91 L806.797,1728.41 L808.106,1726.85 L799.48,1715.05 L794.579,1719.7 L798.357,1723.53 L797.438,1724.3 L793.661,1720.93 L781.665,1732.63 L801.144,1755.58 L801.144,1757.99 L799.61,1759.52 L794.39,1754.95 L795.037,1753.93 L793.099,1751.58 L791.364,1752.04 L788.454,1748.62 L788.352,1744.63 L785.851,1741.82 L784.013,1742.08 L780.321,1737.4 L780.893,1735.96 L775.999,1729.77 L774.161,1729.82 L771.099,1726.55 L771.711,1724.3 L769.465,1721.8 L765.433,1720.88 L761.805,1716.21 L761.805,1715.05 L757.085,1710.28 L756.656,1705.99 L753.396,1701.48 L749.834,1697.92 L748.071,1697.53 L744.815,1694.22 L744.514,1690.36 L746.144,1689.74 L780.287,1730.84 L786.718,1724.35 L786.31,1723.94 L787.484,1722.92 L787.841,1723.38 L798.102,1712.96 L797.693,1712.29 L798.714,1711.48 L799.225,1711.94 L809.842,1700.8 L809.485,1700.55 L810.965,1699.17 L811.373,1699.52 L818.826,1691.66 L817.882,1689.06 L809.24,1679.5 L779.143,1640.76 L768.322,1631.48 L753.988,1622.36 L744.678,1614.93 L737.286,1610.06 L722.504,1604.1 L705.148,1602.38 L699.39,1603.32 L698.043,1604.5 L698.247,1605.94 L699.594,1607 L699.349,1607.61 L694.449,1608.35 L693.551,1609.25 L693.886,1612.27 L690.12,1613.05 L688.936,1615.34 L684.859,1609.36 L684.24,1607.08 L682.28,1603.93 L680.831,1602.97 L671.989,1585.66 L669.702,1582.8 L668.15,1583.21 L667.692,1581.44 L664.394,1576.14 L662.433,1573.89 L660.31,1572.59 L658.921,1572.3 L658.472,1574.67 L654.715,1570.22 L647.728,1565.07 L645.568,1558.77 L642.587,1554.56 L638.116,1543.51 L633.839,1538.07 L633.09,1534.92 L630.05,1531.27 L628.049,1529.51 L622.7,1526.61 L621.148,1526.65 L618.698,1528.2 L615.962,1527.43 L613.43,1527.79 L612.368,1527.18 L609.428,1527.22 L608.166,1524.28 L600.934,1516.38 L591.923,1512.22 L588.03,1512.5 L586.396,1509.23 L585.114,1508.34 L581.169,1494.27 L580.656,1493.45 L578.474,1494.03 L578.229,1493.21 L580.393,1492.47 L580.026,1490.14 L577.208,1490.59 L576.963,1489.53 L579.498,1488.75 L565.774,1442.61 L561.611,1429.83 L552.706,1407.22 L547.847,1397.53 L548.002,1396.07 L545.601,1392.67 L538.455,1392.71 L537.352,1392.14 L536.984,1387.07 L538.332,1384.74 L540.619,1383.52 L540.148,1381.04 L531.102,1364.23 L526.087,1356.25 L516.052,1342.57 L510.523,1336.76 L509.461,1336.11 L508.767,1336.47 L506.766,1334.39 L508.321,1332.51 L503.99,1327.51 L495.372,1319.27 L481.07,1308.38 L473.117,1303.41 L471.81,1303.25 L469.392,1305.14 L463.083,1305.57 L461.98,1304.34 L463.328,1303.06 L460.02,1301.71 L457.386,1308.51 L456.223,1307.53 L458.06,1300.73 L457.44,1298.28 L456.517,1297.36 L452.168,1296.05 L444.244,1295.77 L443.622,1296.39 L439.745,1301.16 L441.644,1306.73 L440.296,1310.35 L439.194,1310.6 L439.5,1307.59 L435.396,1303.06 L441.061,1295.4 L435.098,1290.17 L432.607,1289.02 L430.198,1286.61 L426.073,1284.61 L421.5,1283.91 L419.417,1284.16 L418.523,1284.97 L418.608,1291.62 L416.159,1292.18 L415,1291.62 L415,1284.67 L417.224,1282.7 L414.707,1279.91 L408.01,1273.89 L405.394,1272.47 L403.409,1270.02 L398.999,1267.65 L397.202,1267.89 L395.854,1266.46 L396.794,1265.11 L396.549,1264.18 L395.327,1263.56 L394.466,1264.3 L385.89,1258.13 L386.054,1257.02 L384.339,1255.3 L381.888,1254.16 L380.051,1252.24 L377.886,1251.46 L364.288,1240.31 L357.019,1235.61 L355.427,1233.6 L340.725,1226.25 L339.964,1224.81 L321.726,1216.56 L318.664,1215.9 L315.958,1213.75 L298.501,1206.9 L292.375,1205.17 L271.089,1200.93 L245.873,1198.93 L245.261,1199.5 L245.787,1200.93 L238.982,1202.92 L237.553,1205.78 L237.464,1209.3 L235.409,1212.11 L233.571,1213.24 L230.713,1212.88 L229.794,1212.42 L229.334,1210.58 L228.058,1209.92 L219.565,1206.61 L218.157,1205.18 L204.938,1198.65 L198.373,1196.42 L193.906,1196.18 L192.684,1196.99 L183.914,1195.18 L169.798,1193.67 L162.251,1191.7 L157.575,1192.6 L152.808,1192.6 L151.611,1191.4 L150.453,1192.6 L148.05,1192.6 L145.686,1190.19 L145.686,1187.83 L144.489,1186.63 L144.489,1185.43 L134.921,1175.89 L134.921,1174.69 L128.957,1168.72 L128.957,1167.56 L127.799,1166.36 L128.957,1165.16 L128.957,1163.96 L131.36,1161.6 L131.36,1157.99 L130.201,1156.83 L130.201,1153.22 L128.957,1152.06 L123.036,1139.74 L118.476,1133.26 L116.524,1131.5 L116.371,1127.48 L115.871,1125.94 L113.972,1123.99 L113.206,1120.41 L113.002,1116.68 L114.891,1114.59 L120.884,1114.19 L127.358,1108.36 L127.091,1106.92 L127.652,1106.67 L129.768,1107.11 L131.36,1105.51 L132.557,1105.51 L133.763,1106.72 L135.307,1107.1 L137.366,1102.35 L152.994,1105.67 L163.203,1098.77 L179.141,1075.2 L183.586,1072.34 L192.809,1069.14 L219.989,1064.72 L228.576,1061.81 L246.775,1048.04 L255.963,1040.12 L265.38,1034.35 L292.418,1026.6 L307.11,1019.47 L324.016,991.513 L349.988,962.576 L365.281,947.934 L369.344,937.316 L368.427,929.603 L369.539,926.086 L381.595,918.188 L388.49,918.183 L392.621,919.659 L398.744,925.603 L401.636,931.737 L400.683,938.541 L398.87,941.302 L398.706,944.408 L399.473,947.657 L412.785,965.101 L428.558,975.983 L445.402,974.144 L454.591,980.735 L468.22,973.531 L471.895,967.86 L470.21,957.437 L464.698,952.993 L460.716,946.708 L461.65,942.717 L464.345,937.649 L466.778,935.063 L470.21,928.469 L469.904,922.951 L475.417,916.667 L482.786,914.86 L495.172,912.988 L505.008,917.406 L510.011,916.64 L513.854,913.908 L518.535,908.925 L520.036,905.658 L524.727,888.158 L527.024,885.705 L529.78,885.245 L529.75,882.936 L528.198,877.377 L526.319,875.415 L524.441,874.434 L522.318,875.007 L520.684,876.478 L520.521,880.32 L519.296,882.2 L517.009,882.936 L512.19,882.609 L509.658,880.32 L505.712,874.793 L505.765,872.375 L506.56,871.15 L512.878,866.271 L516.588,856.97 L516.615,849.349 L514.894,848.11 L511.929,848.031 L511.598,847.217 L513.819,845.301 L514.15,844.228 L514.048,842.465 L512.19,839.528 L512.68,837.73 L516.667,838.097 L517.872,837.79 L518.3,836.993 L517.499,836.095 L513.201,836.462 L512.328,835.711 L512.696,833.463 L516.519,832.989 L515.457,830.536 L515.39,828.171 L517.989,826.857 L524.333,815.996 L525.405,815.107 L539.877,821.057 L541.358,820.853 L553.398,814.494 L555.021,815.23 L556.32,820.547 L559.868,822.432 L561.332,824.511 L563.69,824.051 L565.359,821.871 L569.933,823.669 L571.974,825.631 L579.587,829.253 L581.515,830.765 L582.495,830.765 L583.428,828.936 L584.314,828.968 L586.512,831.027 L588.963,830.228 L591.989,831.163 L597.318,828.197 L600.258,827.952 L601.605,828.841 L599.988,833.397 L600.749,834.168 L607.334,834.995 L610.422,834.346 L614.079,838.991 L616.214,840.459 L615.817,841.755 L616.537,842.996 L618.461,844.648 L620.243,844.79 L620.595,847.717 L623.107,850.016 L627.547,857.007 L627.854,863.218 L631.703,869.12 L632.397,869.263 L634.398,867.996 L637.093,864.113 L638.931,863.295 L640.319,861.456 L639.275,858.075 L670.67,842.783 L759.122,802.4 L772.108,795.778 L856.639,818.259 L881.631,790.546 L892.656,776.404 L1009.94,636.776 L1013.68,638.356 L1018.38,643.057 L1058.6,663.29 L1076.62,676.993 L1079.37,680.526 L1083.45,690.745 L1086.07,692.871 L1092.84,695.185 L1099.44,698.442 L1114.75,703.143 L1126.46,707.682 L1133.33,712.544 L1145.26,714.367 L1149.34,715.67 L1170.19,730.359 L1175.8,732.402 L1179.92,732.659 L1188.55,736.951 L1201.78,744.554 L1203.57,748.115 L1213.58,758.113 L1228.22,769.18 L1243.27,779.066 L1300.13,789.183 L1441.47,812.143 L1493.93,786.271 L1527.4,766.946 L1607.2,733.191 L1701.17,700.467 L1817.77,675.376 L1835.23,681.354 L1968.15,721.36 L2037.37,744.658 L2062.48,755.541 L2109.34,773.168 L2105.21,818.845 L2160.95,833.866 L2413.82,896.135 L2524.32,932.675 L2600.52,959.406 L2668.64,981.478 L2757.97,991.461 L2768.69,994.73 L2784.69,1006.67 L2802.48,1022.63 L2775.65,1033.84 L2718.85,1060.27 L2677.44,1075.9 L2661.76,1081.17 L2656.86,1078.54 L2631.08,1079.03 L2627.09,1081.91 L2614.6,1084.42 L2603.08,1090.8 L2597.94,1091.6 L2586.11,1096.13 L2573.68,1099.87 L2565.47,1104.47 L2560.57,1108.46 L2557.51,1113.54 L2555.85,1117.47 L2555.79,1122.37 L2556.47,1125.25 L2555.55,1126.85 L2551.63,1129.61 L2547.83,1133.53 L2545.56,1137.95 L2542.99,1140.52 L2542.2,1142.97 L2542.26,1146.04 L2544.46,1153.21 L2547.16,1158.73 L2548.36,1164.02 L2547.9,1168.62 L2546.77,1171.99 L2543.3,1176.08 L2541.16,1177.61 L2531.87,1182 L2529.42,1185.07 L2516.25,1197.02 L2505.58,1203.77 L2501.14,1205.86 L2485.57,1206.78 L2482.93,1218.32 L2482.93,1223.14 L2474.11,1239.73 L2470.27,1245.62 L2458.59,1254.36 L2454.99,1259.02 L2450.18,1269.08 L2448.05,1276.11 L2446.99,1283.95 L2444.21,1291.23 L2442.17,1293.76 L2440.86,1297.52 L2441.44,1299.32 L2440.37,1301.04 L2437.19,1323.03 L2441.03,1334.47 L2442.42,1341.58 L2454.75,1357.11 L2457.2,1361.61 L2458.83,1367.82 L2461.36,1374.2 L2461.61,1383.84 L2459.57,1389.81 L2455.21,1396.27 L2441.68,1405.01 L2438.41,1410.16 L2438.74,1414.74 L2440.29,1419.48 L2439.56,1423.24 L2431.64,1432.97 L2430.17,1438.04 L2430.17,1444.33 L2432.53,1453.48 L2436.05,1462.23 L2437.03,1469.75 L2435.8,1472.61 L2429.76,1479.15 L2425.92,1487.41 L2425.27,1495.58 L2426.25,1504.98 L2424.37,1510.46 L2421.02,1513.56 L2414.32,1516.99 L2412.03,1520.51 L2407.62,1536.28 L2404.93,1540.04 L2403.62,1549.36 L2398.56,1560.89 L2384.43,1611.07 L2384.59,1623.99 L2382.8,1628.48 L2378.06,1634.53 L2373.81,1641.48 L2371.28,1648.18 L2367.2,1667.47 L2362.95,1675.16 L2362.38,1680.47 L2366.87,1703.44 L2375.57,1735.7 L2385.37,1761.75 L2381.39,1773.09 L2381.39,1795.16 L2383.38,1808.04 L2381.54,1814.47 L2374.34,1833.17 L2363.93,1839.76 L2346.17,1855.39 L2339.27,1858.92 L2323.04,1876.85 L2320.9,1881.44 L2302.98,1887.73 L2294.1,1890.03 L2285.52,1895.24 L2275.42,1900.14 L2270.36,1909.79 L2270.36,1915.77 L2272.66,1921.29 L2285.22,1935.69 L2294.56,1952.24 L2300.07,1963.89 L2302.22,1974.31 L2309.72,1993.47"/>
   <path fill-rule="evenodd" vector-effect="none" d="M1662.16,2324.52 L1660.28,2324.57 L1658.95,2325.94 L1658.09,2334.01 L1656.84,2335.21 L1658.95,2336.54 L1658.77,2338.65 L1657.57,2338.99 L1657.53,2340.24 L1649.72,2339.98 L1643.76,2334.01 L1643.76,2330.45 L1644.96,2329.25 L1644.79,2327.23 L1647.75,2323.92 L1644.79,2319.46 L1645.69,2313.19 L1642.13,2309.88 L1638.57,2309.88 L1632.6,2303.61 L1625.52,2301.51 L1622.35,2304.22 L1619.95,2304.22 L1619.95,2303.01 L1618.74,2301.81 L1618.74,2300.65 L1624.67,2294.68 L1624.67,2293.48 L1627.07,2291.08 L1631.87,2291.08 L1633.11,2289.88 L1634.23,2286.31 L1635.43,2285.11 L1635.43,2283.95 L1639,2280.34 L1640.2,2280.34 L1643.76,2276.78 L1644.96,2276.78 L1646.16,2275.58 L1653.28,2280.34 L1656.2,2280.34 L1659.08,2284.94 L1663.07,2284.9 L1664.01,2283.95 L1665.21,2283.95 L1666.41,2285.11 L1668.81,2285.11 L1669.97,2283.95 L1687.86,2283.95 L1689.07,2285.11 L1687.26,2286.61 L1684.9,2291.42 L1685.46,2293.48 L1685.46,2298.25 L1687.86,2300.65 L1687.61,2302.41 L1684.3,2303.01 L1683.1,2304.22 L1681.9,2304.22 L1667.36,2316.37 L1667.61,2320.92 L1666.24,2322.25 L1664.05,2322.29 L1663.58,2323.32 L1662.63,2323.28 L1662.16,2324.52"/>
   <path fill-rule="evenodd" vector-effect="none" d="M1690.18,2466.72 L1690.48,2469.12 L1689.02,2470.33 L1682.67,2470.02 L1682.37,2469.25 L1676.84,2468.91 L1676.8,2470.24 L1674.39,2469.98 L1672.98,2463.46 L1674.78,2458.05 L1677.13,2455.69 L1679.5,2455.69 L1680.22,2459.55 L1683.79,2461.65 L1687.82,2461.95 L1690.18,2466.72"/>
   <path fill-rule="evenodd" vector-effect="none" d="M1679.5,2429.45 L1678.34,2430.61 L1678.34,2433.02 L1674.82,2433.83 L1668.81,2430.61 L1668.81,2429.45 L1667.61,2428.25 L1669.97,2425.85 L1669.97,2424.64 L1674.78,2419.88 L1675.94,2419.88 L1678.34,2422.28 L1678.34,2423.49 L1679.5,2424.64 L1679.5,2429.45"/>
   <path fill-rule="evenodd" vector-effect="none" d="M1126.48,1948.8 L1126.65,1949.33 L1129.57,1946.41 L1130.16,1946.98 L1126.43,1950.51 L1125.09,1953.15 L1125.54,1954.04 L1123.35,1956.85 L1122.14,1957.65 L1120.67,1956.9 L1119.13,1951.21 L1119.92,1948.07 L1121.89,1946.44 L1124.02,1945.76 L1125.69,1946.86 L1126.48,1948.8"/>
   <path fill-rule="evenodd" vector-effect="none" d="M1684.05,2577.57 L1682.84,2578.17 L1680.44,2578.17 L1678.38,2579.67 L1677.52,2579.67 L1676.88,2577.57 L1677.05,2573.84 L1679.5,2571.35 L1684.3,2571.35 L1685.46,2570.14 L1687.86,2572.55 L1687.86,2573.75 L1689.07,2574.91 L1690.26,2574.91 L1690.26,2576.11 L1688.77,2577.57 L1686.71,2576.37 L1684.05,2577.57"/>
   <path fill-rule="evenodd" vector-effect="none" d="M1601.31,2257.06 L1605.47,2261.33 L1607.46,2262.55 L1606.79,2265.4 L1604.65,2265.95 L1602.35,2265.67 L1601.25,2264.14 L1597.94,2262.4 L1597.17,2261.35 L1597.23,2258.77 L1598.61,2258.47 L1599.86,2257.02 L1601.31,2257.06"/>
   <path fill-rule="evenodd" vector-effect="none" d="M1563.47,2437.63 L1565.73,2439 L1564.75,2440.66 L1562.97,2441.99 L1556.75,2443.15 L1554.39,2441.11 L1554.83,2439.74 L1559.97,2438.76 L1562.04,2437.39 L1563.47,2437.63"/>
  </g>
  <g stroke-width="1" transform="matrix(0.999744,0,0,0.999744,0,0)" stroke-opacity="1" font-size="34.5833" fill="none" stroke-linejoin="bevel" font-style="normal" stroke-linecap="square" stroke="#000000" font-family="MS Shell Dlg 2" font-weight="400"/>
  <g stroke-width="1" transform="matrix(11.808,0,0,11.808,0,0)" stroke-opacity="1" font-size="34.5833" fill="none" stroke-linejoin="bevel" font-style="normal" stroke-linecap="square" stroke="#000000" font-family="MS Shell Dlg 2" font-weight="400"/>
  <g stroke-width="1" transform="matrix(11.808,0,0,11.808,0,0)" stroke-opacity="1" font-size="34.5833" fill="none" stroke-linejoin="bevel" font-style="normal" stroke-linecap="square" stroke="#000000" font-family="MS Shell Dlg 2" font-weight="400"/>
  <g stroke-width="1" transform="matrix(11.808,0,0,11.808,0,0)" stroke-opacity="1" font-size="34.5833" fill="none" stroke-linejoin="bevel" font-style="normal" stroke-linecap="square" stroke="#000000" font-family="MS Shell Dlg 2" font-weight="400"/>
  <g stroke-width="1" transform="matrix(1,0,0,1,0,0)" stroke-opacity="1" font-size="34.5833" fill="none" stroke-linejoin="bevel" font-style="normal" stroke-linecap="square" stroke="#000000" font-family="MS Shell Dlg 2" font-weight="400"/>
  <g stroke-width="1" transform="matrix(11.808,0,0,11.808,0,0)" stroke-opacity="1" font-size="34.5833" fill="none" stroke-linejoin="bevel" font-style="normal" stroke-linecap="square" stroke="#000000" font-family="MS Shell Dlg 2" font-weight="400"/>
  <g stroke-width="1" transform="matrix(11.808,0,0,11.808,0,0)" stroke-opacity="1" font-size="34.5833" fill="none" stroke-linejoin="bevel" font-style="normal" stroke-linecap="square" stroke="#000000" font-family="MS Shell Dlg 2" font-weight="400"/>
  <g stroke-width="1" transform="matrix(11.808,0,0,11.808,0,0)" stroke-opacity="1" font-size="34.5833" fill="none" stroke-linejoin="bevel" font-style="normal" stroke-linecap="square" stroke="#000000" font-family="MS Shell Dlg 2" font-weight="400"/>
  <g stroke-width="1" transform="matrix(11.808,0,0,11.808,0,0)" stroke-opacity="1" font-size="34.5833" fill="none" stroke-linejoin="bevel" font-style="normal" stroke-linecap="square" stroke="#000000" font-family="MS Shell Dlg 2" font-weight="400"/>
  <g stroke-width="1" transform="matrix(1,0,0,1,0,0)" stroke-opacity="1" font-size="34.5833" fill="none" stroke-linejoin="bevel" font-style="normal" stroke-linecap="square" stroke="#000000" font-family="MS Shell Dlg 2" font-weight="400"/>
 </g>
</svg>
