<?xml version='1.0' encoding='UTF-8' standalone='no'?>
<svg xmlns:xlink="http://www.w3.org/1999/xlink" baseProfile="tiny" xmlns="http://www.w3.org/2000/svg" height="249.936mm" viewBox="0 0 2952 2952" width="249.936mm" version="1.2">
 <title>Qt SVG Document</title>
 <desc>Generated with Qt</desc>
 <defs/>
 <g stroke-width="1" fill-rule="evenodd" fill="none" stroke-linejoin="bevel" stroke-linecap="square" stroke="black">
  <g stroke-width="1" transform="matrix(1,0,0,1,0,0)" stroke-opacity="1" font-size="34.5833" fill="none" stroke-linejoin="bevel" font-style="normal" stroke-linecap="square" stroke="#000000" font-family="MS Shell Dlg 2" font-weight="400"/>
  <g stroke-width="1" transform="matrix(1,0,0,1,0,0)" stroke-opacity="1" font-size="34.5833" fill="none" stroke-linejoin="bevel" font-style="normal" stroke-linecap="square" stroke="#000000" font-family="MS Shell Dlg 2" font-weight="400"/>
  <g stroke-width="1" transform="matrix(11.808,0,0,11.808,0,0)" stroke-opacity="1" font-size="34.5833" fill="none" stroke-linejoin="bevel" font-style="normal" stroke-linecap="square" stroke="#000000" font-family="MS Shell Dlg 2" font-weight="400"/>
  <g stroke-width="1" transform="matrix(0.999744,0,0,0.999744,0,0)" stroke-opacity="1" font-size="34.5833" fill="none" stroke-linejoin="bevel" font-style="normal" stroke-linecap="square" stroke="#000000" font-family="MS Shell Dlg 2" font-weight="400"/>
  <g transform="matrix(0.999744,0,0,0.999744,0,0)" font-size="34.5833" fill-opacity="0" fill="#ffffff" font-style="normal" stroke="none" font-family="MS Shell Dlg 2" font-weight="400">
   <path fill-rule="evenodd" vector-effect="none" d="M-2,-2 L2955,-2 L2955,2955 L-2,2955 L-2,-2"/>
  </g>
  <g stroke-width="1" transform="matrix(0.999744,0,0,0.999744,0,0)" stroke-opacity="1" font-size="34.5833" fill="none" stroke-linejoin="bevel" font-style="normal" stroke-linecap="square" stroke="#000000" font-family="MS Shell Dlg 2" font-weight="400"/>
  <g stroke-width="1" transform="matrix(11.808,0,0,11.808,0,0)" stroke-opacity="1" font-size="34.5833" fill="none" stroke-linejoin="bevel" font-style="normal" stroke-linecap="square" stroke="#000000" font-family="MS Shell Dlg 2" font-weight="400"/>
  <g stroke-width="1" transform="matrix(11.808,0,0,11.808,0,0)" stroke-opacity="1" font-size="34.5833" fill="none" stroke-linejoin="bevel" font-style="normal" stroke-linecap="square" stroke="#000000" font-family="MS Shell Dlg 2" font-weight="400"/>
  <g stroke-width="1" transform="matrix(11.808,0,0,11.808,0,0)" stroke-opacity="1" font-size="34.5833" fill="none" stroke-linejoin="bevel" font-style="normal" stroke-linecap="square" stroke="#000000" font-family="MS Shell Dlg 2" font-weight="400"/>
  <g stroke-width="1" transform="matrix(11.808,0,0,11.808,0,0)" stroke-opacity="1" font-size="34.5833" fill="none" stroke-linejoin="bevel" font-style="normal" stroke-linecap="square" stroke="#000000" font-family="MS Shell Dlg 2" font-weight="400"/>
  <g stroke-width="1" transform="matrix(11.808,0,0,11.808,0,0)" stroke-opacity="1" font-size="34.5833" fill="none" stroke-linejoin="bevel" font-style="normal" stroke-linecap="square" stroke="#000000" font-family="MS Shell Dlg 2" font-weight="400"/>
  <g transform="matrix(11.808,0,0,11.808,0,0)" font-size="34.5833" fill-opacity="0" fill="#ffffff" font-style="normal" stroke="none" font-family="MS Shell Dlg 2" font-weight="400">
   <path fill-rule="evenodd" vector-effect="none" d="M0,0 L250,0 L250,250 L0,250 L0,0"/>
  </g>
  <g stroke-width="1" transform="matrix(11.808,0,0,11.808,0,0)" stroke-opacity="1" font-size="34.5833" fill="none" stroke-linejoin="bevel" font-style="normal" stroke-linecap="square" stroke="#000000" font-family="MS Shell Dlg 2" font-weight="400"/>
  <g stroke-width="1" transform="matrix(11.808,0,0,11.808,0,0)" stroke-opacity="1" font-size="34.5833" fill="none" stroke-linejoin="bevel" font-style="normal" stroke-linecap="square" stroke="#000000" font-family="MS Shell Dlg 2" font-weight="400"/>
  <g transform="matrix(0.999744,0,0,0.999744,0,0)" font-size="34.5833" fill-opacity="0" fill="#000000" font-style="normal" stroke="none" font-family="MS Shell Dlg 2" font-weight="400">
   <rect x="0" height="2953" width="2953" y="0"/>
  </g>
  <g stroke-width="1" transform="matrix(0.999744,0,0,0.999744,0,0)" stroke-opacity="1" font-size="34.5833" fill="none" stroke-linejoin="bevel" font-style="normal" stroke-linecap="square" stroke="#000000" font-family="MS Shell Dlg 2" font-weight="400"/>
  <g stroke-width="3.07087" transform="matrix(0.999744,0,0,0.999744,0,0)" stroke-opacity="1" font-size="34.5833" fill-opacity="1" fill="#c5c5c5" stroke-linejoin="bevel" font-style="normal" stroke-linecap="square" stroke="#5c5c5c" font-family="MS Shell Dlg 2" font-weight="400">
   <path fill-rule="evenodd" vector-effect="none" d="M1819.38,2566.61 L1821.79,2534.68 L1832.82,2532.47 L1842.35,2517.52 L1846.32,2494.48 L1830.71,2469.32 L1801.41,2469.88 L1793.18,2426.9 L1757.28,2429.31 L1754.28,2421.48 L1765.91,2421.28 L1763.1,2399.99 L1750.47,2402.2 L1748.28,2375.48 L1740.44,2369.86 L1737.23,2352.19 L1717.97,2346.56 L1713.76,2357.61 L1707.34,2362.63 L1684.88,2414.85 L1673.45,2416.86 L1673.45,2432.72 L1659.01,2433.33 L1655.4,2402.2 L1601.25,2408.02 L1593.83,2410.63 L1575.58,2410.23 L1579.19,2428.31 L1577.58,2442.57 L1538.47,2448.19 L1533.26,2454.01 L1522.43,2454.21 L1521.02,2439.76 L1511.99,2440.19 L1511.4,2451.6 L1492.55,2451.2 L1492.95,2462.65 L1482.52,2461.24 L1476.3,2451.6 L1465.47,2457.63 L1455.04,2445.18 L1441,2441.76 L1367.36,2478.37 L1289.38,2478.72 L1255.48,2491.17 L1257.69,2439.15 L1171.02,2436.35 L1116.72,2437.25 L1080.01,2440.08 L1074.18,2408.22 L1088.82,2407.62 L1090.83,2388.94 L1095.04,2381.31 L1105.07,2379.9 L1114.69,2385.53 L1135.75,2389.14 L1144.17,2395.57 L1149.99,2397.58 L1158.01,2397.38 L1160.73,2395.33 L1158.61,2369.46 L1160.55,2333.56 L1158.75,2330.84 L1158.01,2301.37 L1138.66,2306.44 L1124.12,2300.57 L1095.25,2313.62 L1085.21,2296.95 L1068.56,2303.98 L1071.97,2308.8 L1058.94,2318.24 L1048.53,2313.35 L1041.29,2316.23 L1039.28,2296.75 L1057.93,2286.42 L1053.74,2279 L1052.12,2279.68 L1046.85,2271.3 L1054.57,2267.25 L1045.95,2256.08 L1032.86,2261.35 L1058.19,2234.66 L1078.99,2219.27 L1073.84,2215.47 L1077.24,2206.97 L1065.89,2194.69 L1067.41,2186.43 L1066.05,2183.64 L1060.56,2180.93 L1041.24,2176.41 L1027.47,2169.18 L1015.96,2167.29 L1066.29,2137.04 L1075.32,2129.51 L1077.17,2124.36 L1084.62,2117.06 L1104.92,2109.51 L1105.67,2100.32 L1127.63,2095.96 L1127.93,2090.23 L1135.83,2088.43 L1156.28,2076.84 L1161.17,2076.22 L1163.28,2077.43 L1164.63,2071.85 L1162.07,2067.49 L1157.77,2067.03 L1156.51,2057.09 L1173.03,2050.58 L1171.03,2044.97 L1165.68,2046.55 L1159.22,2027.26 L1201.13,2011.41 L1193.73,1987.69 L1177.87,1968.52 L1171.48,1967.19 L1169.29,1950.74 L1149.41,1947.9 L1151.74,1908.23 L1156.76,1908.48 L1153.62,1838.93 L1153.62,1799.26 L1146.27,1750.58 L1157.17,1724.89 L1149.64,1721.32 L1146.66,1722.64 L1088.28,1760.71 L1066.09,1700.83 L1060.83,1689.41 L1052.55,1678.93 L1036.97,1670.97 L997.715,1669.02 L992.074,1664.19 L990.269,1656.06 L995.082,1646.12 L1039.65,1597.5 L1039.35,1582.89 L1035.47,1574.87 L1025.88,1568.48 L1002.8,1569.94 L984.6,1559.54 L961.887,1550.35 L933.156,1536.34 L919.619,1525.95 L905.931,1521.88 L897.507,1521.28 L867.122,1529.56 L853.735,1537.4 L843.807,1539.2 L844.559,1527.91 L843.029,1524.77 L848.771,1475.18 L843.338,1468.71 L828.07,1458.76 L809.193,1429.16 L803.326,1425.24 L791.368,1422.91 L773.618,1415.75 L749.627,1394.96 L697.356,1307.82 L695.852,1300.28 L697.732,1245.37 L699.331,1235.52 L710.41,1203.87 L711.162,1197.34 L708.53,1171.1 L715.034,1150.26 L711.869,1122.95 L722.398,1114.66 L725.508,1104.2 L729.589,1100.35 L734.854,1091.08 L735.831,1082.42 L737.411,1038.28 L736.207,1001.3 L743.508,928.937 L738.557,900.809 L729.769,881.757 L729.167,871.06 L732.025,862.021 L732.297,846.736 L734.582,841.683 L743.225,835.417 L761.924,835.907 L778.846,831.011 L799.905,813.686 L822.092,774.892 L846.463,710.564 L854.767,712.722 L866.951,678.222 L889.514,664.211 L890.718,659.692 L893.425,659.24 L893.877,645.982 L890.718,645.53 L892.372,625.342 L899.743,631.971 L906.512,632.121 L918.846,636.641 L942.312,592.8 L948.328,576.83 L946.037,566.61 L917.342,524.702 L915.387,513.554 L919.749,512.499 L920.35,507.678 L934.939,507.422 L940.657,493.667 L947.877,486.887 L959.159,472.575 L980.819,470.013 L981.571,467.151 L1020.68,463.727 L1025.73,439.717 L1051.37,445.004 L1058.59,437.32 L1060.83,446.32 L1103.51,437.085 L1105.07,418.488 L1136.2,419.258 L1136.5,405.682 L1129.73,401.313 L1141.77,383.987 L1148.74,370.524 L1174.81,370.407 L1176.51,346.472 L1188.26,347.059 L1203.29,342.229 L1219.64,345.142 L1232.98,352.976 L1256.24,390.842 L1284.52,424.489 L1299.7,452.322 L1306.18,461.426 L1296.26,476.396 L1305.78,502.029 L1303.27,509.461 L1309.79,516.291 L1397.61,513.45 L1408.13,510.713 L1504.85,507.399 L1554.17,509.927 L1553.27,561.453 L1605.47,561.151 L1605.06,614.836 L1608.98,616.041 L1611.01,630.278 L1613.58,631.294 L1614.35,635.006 L1622.03,637.718 L1627.53,634.892 L1633.16,636.663 L1645.19,632.595 L1647.92,636.461 L1654.82,635.006 L1661.41,637.812 L1676.71,638.9 L1678.72,632.873 L1695.37,635.686 L1703.29,613.489 L1708.8,604.952 L1706.6,596.515 L1707.7,592.799 L1713.01,589.283 L1724.15,591.995 L1732.87,568.593 L1735.58,564.676 L1741.9,561.06 L1745.41,555.637 L1768.17,531.933 L1818.91,482.115 L1851.1,509.701 L1915.78,454.837 L1930.82,472.715 L2006.43,468.095 L2006.23,453.23 L2012.85,454.435 L2035.31,475.125 L2035.51,483.361 L2050.16,493.307 L2049.02,503.769 L2050.06,511.969 L2048.4,513.927 L2043.37,513.525 L2039.08,521.008 L2034.87,521.31 L2034.11,524.172 L2036.67,529.596 L2034.57,536.375 L2020.58,555.358 L2011.03,557.88 L2002.65,571.522 L2000.69,584.779 L2003.85,625.005 L2001.75,630.278 L1987.61,639.92 L1992.27,643.988 L2017.51,648.237 L2039.79,668.693 L2059.19,701.214 L2064.62,706.51 L2074.37,710.112 L2074.95,728.09 L2085.33,776.673 L2100.53,776.827 L2100.68,783.23 L2123.41,782.917 L2124.31,804.536 L2153.72,803.256 L2171.02,824.347 L2182.22,839.262 L2181.51,845.638 L2186.29,884.835 L2196.29,890.56 L2198.27,910.782 L2203.59,921.024 L2208.85,925.041 L2210.23,930.44 L2204.34,941.111 L2199.07,964.964 L2174.78,965.974 L2172.71,974.511 L2184.81,977.398 L2180.23,996.92 L2176.09,1007.91 L2166.51,1024.41 L2162.37,1023.28 L2150.15,1030.13 L2137.29,1043.32 L2136.47,1044.95 L2139.3,1051.47 L2109.97,1059.69 L2110.98,1065.34 L2079.51,1069.42 L2078.92,1062.93 L2043.2,1064.36 L2030.41,1054.27 L2012.14,1052.39 L2004.16,1046.29 L1984.68,1042.97 L1977.71,1037.62 L1970.5,1050.25 L1947.86,1028.25 L1939.44,1036.09 L1932.22,1039.03 L1933.24,1045.93 L1943.8,1060.37 L1940.71,1063.31 L1939.66,1067.68 L1930.18,1067.75 L1924.24,1075.14 L1924.62,1079.58 L1915.91,1085.99 L1916.88,1095.39 L1938.6,1093.52 L1940.19,1102.55 L1954.55,1103.31 L1957.18,1126.71 L1956.51,1180.78 L2003.21,1180.48 L2008.63,1199.46 L2014.79,1205.49 L2071.5,1205.33 L2081.28,1206.54 L2096.17,1212.42 L2106.25,1218.89 L2118.13,1229.14 L2100.53,1248.87 L2118.76,1258.23 L2095.77,1298.87 L2084.03,1296.76 L2081.07,1318.03 L2080.94,1340.35 L2015.95,1328.15 L2015.5,1349.24 L2016.76,1351.37 L2026.48,1352.7 L2023.02,1364.75 L2017.46,1364.3 L1998.35,1393.68 L2012.8,1404.22 L2005.12,1421.55 L1983.31,1442.64 L1973.23,1448.66 L1963.31,1459.96 L1958.49,1474.27 L1958.94,1481.81 L1956.24,1488.13 L1960,1489.19 L1964.21,1503.35 L1968.27,1505.01 L1981.61,1529.73 L2018.06,1608.8 L2013.1,1624.32 L2014.15,1635.61 L2001.03,1654.56 L2002.83,1663.33 L2001.22,1668.55 L1983.17,1694.08 L1985.48,1698.88 L1993.1,1704.4 L1994.71,1707.72 L1988.65,1720.83 L2020.89,1760.83 L2036.25,1758.24 L2050.16,1762.01 L2058.68,1743.93 L2066.58,1746.19 L2065.45,1755.23 L2069.09,1755.73 L2090.4,1748.2 L2091.65,1750.34 L2077.75,1756.97 L2079.56,1760.89 L2092.22,1755.81 L2093.34,1761.83 L2099.28,1763.83 L2101.18,1770.55 L2117.35,1771.93 L2120.48,1776.95 L2134.27,1787.12 L2153.32,1816.49 L2149.06,1821.39 L2153.3,1829.44 L2138.48,1839.03 L2125.61,1851.02 L2142.06,1893.48 L2137.25,1895.87 L2132.74,1904.03 L2126.61,1935.32 L2127.94,1943.42 L2063.05,2010.8 L2061.04,2027.12 L2062.22,2032.49 L2069.08,2039.67 L2070.62,2043.47 L2072.09,2050.81 L2070.58,2060.35 L2084.15,2078.1 L2086.72,2086.25 L2090.59,2092.1 L2098.28,2095.89 L2090.96,2128.81 L2092.02,2135.29 L2109.46,2153.31 L2113.22,2166.72 L2109.87,2211.21 L2109.87,2339.25 L1909.8,2339.7 L1910.79,2543.83 L1891.21,2523.09 L1837.23,2566.41 L1819.38,2566.61"/>
  </g>
  <g stroke-width="1" transform="matrix(0.999744,0,0,0.999744,0,0)" stroke-opacity="1" font-size="34.5833" fill="none" stroke-linejoin="bevel" font-style="normal" stroke-linecap="square" stroke="#000000" font-family="MS Shell Dlg 2" font-weight="400"/>
  <g stroke-width="1" transform="matrix(11.808,0,0,11.808,0,0)" stroke-opacity="1" font-size="34.5833" fill="none" stroke-linejoin="bevel" font-style="normal" stroke-linecap="square" stroke="#000000" font-family="MS Shell Dlg 2" font-weight="400"/>
  <g stroke-width="1" transform="matrix(11.808,0,0,11.808,0,0)" stroke-opacity="1" font-size="34.5833" fill="none" stroke-linejoin="bevel" font-style="normal" stroke-linecap="square" stroke="#000000" font-family="MS Shell Dlg 2" font-weight="400"/>
  <g stroke-width="1" transform="matrix(11.808,0,0,11.808,0,0)" stroke-opacity="1" font-size="34.5833" fill="none" stroke-linejoin="bevel" font-style="normal" stroke-linecap="square" stroke="#000000" font-family="MS Shell Dlg 2" font-weight="400"/>
  <g stroke-width="1" transform="matrix(1,0,0,1,0,0)" stroke-opacity="1" font-size="34.5833" fill="none" stroke-linejoin="bevel" font-style="normal" stroke-linecap="square" stroke="#000000" font-family="MS Shell Dlg 2" font-weight="400"/>
  <g stroke-width="1" transform="matrix(11.808,0,0,11.808,0,0)" stroke-opacity="1" font-size="34.5833" fill="none" stroke-linejoin="bevel" font-style="normal" stroke-linecap="square" stroke="#000000" font-family="MS Shell Dlg 2" font-weight="400"/>
  <g stroke-width="1" transform="matrix(11.808,0,0,11.808,0,0)" stroke-opacity="1" font-size="34.5833" fill="none" stroke-linejoin="bevel" font-style="normal" stroke-linecap="square" stroke="#000000" font-family="MS Shell Dlg 2" font-weight="400"/>
  <g stroke-width="1" transform="matrix(11.808,0,0,11.808,0,0)" stroke-opacity="1" font-size="34.5833" fill="none" stroke-linejoin="bevel" font-style="normal" stroke-linecap="square" stroke="#000000" font-family="MS Shell Dlg 2" font-weight="400"/>
  <g stroke-width="1" transform="matrix(11.808,0,0,11.808,0,0)" stroke-opacity="1" font-size="34.5833" fill="none" stroke-linejoin="bevel" font-style="normal" stroke-linecap="square" stroke="#000000" font-family="MS Shell Dlg 2" font-weight="400"/>
  <g stroke-width="1" transform="matrix(1,0,0,1,0,0)" stroke-opacity="1" font-size="34.5833" fill="none" stroke-linejoin="bevel" font-style="normal" stroke-linecap="square" stroke="#000000" font-family="MS Shell Dlg 2" font-weight="400"/>
 </g>
</svg>
