<?xml version='1.0' encoding='UTF-8' standalone='no'?>
<svg xmlns="http://www.w3.org/2000/svg" baseProfile="tiny" viewBox="0 0 2952 2952" height="249.936mm" xmlns:xlink="http://www.w3.org/1999/xlink" version="1.2" width="249.936mm">
 <title>Qt SVG Document</title>
 <desc>Generated with Qt</desc>
 <defs/>
 <g stroke-linejoin="bevel" stroke-linecap="square" fill-rule="evenodd" stroke-width="1" stroke="black" fill="none">
  <g stroke-linejoin="bevel" stroke-linecap="square" font-style="normal" transform="matrix(1,0,0,1,0,0)" stroke-width="1" font-size="34.5833" font-weight="400" stroke="#000000" stroke-opacity="1" font-family="MS Shell Dlg 2" fill="none"/>
  <g stroke-linejoin="bevel" stroke-linecap="square" font-style="normal" transform="matrix(1,0,0,1,0,0)" stroke-width="1" font-size="34.5833" font-weight="400" stroke="#000000" stroke-opacity="1" font-family="MS Shell Dlg 2" fill="none"/>
  <g stroke-linejoin="bevel" stroke-linecap="square" font-style="normal" transform="matrix(11.808,0,0,11.808,0,0)" stroke-width="1" font-size="34.5833" font-weight="400" stroke="#000000" stroke-opacity="1" font-family="MS Shell Dlg 2" fill="none"/>
  <g stroke-linejoin="bevel" stroke-linecap="square" font-style="normal" transform="matrix(0.999744,0,0,0.999744,0,0)" stroke-width="1" font-size="34.5833" font-weight="400" stroke="#000000" stroke-opacity="1" font-family="MS Shell Dlg 2" fill="none"/>
  <g font-style="normal" fill-opacity="0" transform="matrix(0.999744,0,0,0.999744,0,0)" font-size="34.5833" font-weight="400" stroke="none" font-family="MS Shell Dlg 2" fill="#ffffff">
   <path d="M-2,-2 L2955,-2 L2955,2955 L-2,2955 L-2,-2" vector-effect="none" fill-rule="evenodd"/>
  </g>
  <g stroke-linejoin="bevel" stroke-linecap="square" font-style="normal" transform="matrix(0.999744,0,0,0.999744,0,0)" stroke-width="1" font-size="34.5833" font-weight="400" stroke="#000000" stroke-opacity="1" font-family="MS Shell Dlg 2" fill="none"/>
  <g stroke-linejoin="bevel" stroke-linecap="square" font-style="normal" transform="matrix(11.808,0,0,11.808,0,0)" stroke-width="1" font-size="34.5833" font-weight="400" stroke="#000000" stroke-opacity="1" font-family="MS Shell Dlg 2" fill="none"/>
  <g stroke-linejoin="bevel" stroke-linecap="square" font-style="normal" transform="matrix(11.808,0,0,11.808,0,0)" stroke-width="1" font-size="34.5833" font-weight="400" stroke="#000000" stroke-opacity="1" font-family="MS Shell Dlg 2" fill="none"/>
  <g stroke-linejoin="bevel" stroke-linecap="square" font-style="normal" transform="matrix(11.808,0,0,11.808,0,0)" stroke-width="1" font-size="34.5833" font-weight="400" stroke="#000000" stroke-opacity="1" font-family="MS Shell Dlg 2" fill="none"/>
  <g stroke-linejoin="bevel" stroke-linecap="square" font-style="normal" transform="matrix(11.808,0,0,11.808,0,0)" stroke-width="1" font-size="34.5833" font-weight="400" stroke="#000000" stroke-opacity="1" font-family="MS Shell Dlg 2" fill="none"/>
  <g stroke-linejoin="bevel" stroke-linecap="square" font-style="normal" transform="matrix(11.808,0,0,11.808,0,0)" stroke-width="1" font-size="34.5833" font-weight="400" stroke="#000000" stroke-opacity="1" font-family="MS Shell Dlg 2" fill="none"/>
  <g font-style="normal" fill-opacity="0" transform="matrix(11.808,0,0,11.808,0,0)" font-size="34.5833" font-weight="400" stroke="none" font-family="MS Shell Dlg 2" fill="#ffffff">
   <path d="M0,0 L250,0 L250,250 L0,250 L0,0" vector-effect="none" fill-rule="evenodd"/>
  </g>
  <g stroke-linejoin="bevel" stroke-linecap="square" font-style="normal" transform="matrix(11.808,0,0,11.808,0,0)" stroke-width="1" font-size="34.5833" font-weight="400" stroke="#000000" stroke-opacity="1" font-family="MS Shell Dlg 2" fill="none"/>
  <g stroke-linejoin="bevel" stroke-linecap="square" font-style="normal" transform="matrix(11.808,0,0,11.808,0,0)" stroke-width="1" font-size="34.5833" font-weight="400" stroke="#000000" stroke-opacity="1" font-family="MS Shell Dlg 2" fill="none"/>
  <g font-style="normal" fill-opacity="0" transform="matrix(0.999744,0,0,0.999744,0,0)" font-size="34.5833" font-weight="400" stroke="none" font-family="MS Shell Dlg 2" fill="#000000">
   <rect height="2953" width="2953" x="0" y="0"/>
  </g>
  <g stroke-linejoin="bevel" stroke-linecap="square" font-style="normal" transform="matrix(0.999744,0,0,0.999744,0,0)" stroke-width="1" font-size="34.5833" font-weight="400" stroke="#000000" stroke-opacity="1" font-family="MS Shell Dlg 2" fill="none"/>
  <g stroke-linejoin="bevel" stroke-linecap="square" font-style="normal" fill-opacity="1" transform="matrix(0.999744,0,0,0.999744,0,0)" stroke-width="3.07087" font-size="34.5833" font-weight="400" stroke="#5c5c5c" stroke-opacity="1" font-family="MS Shell Dlg 2" fill="#c5c5c5">
   <path d="M123.697,1677.74 L125.661,1650.07 L126.468,1639.86 L127.215,1633.85 L127.323,1630.91 L127.327,1627.53 L127.624,1624.49 L128.311,1618.58 L128.576,1613.94 L128.967,1607.69 L129.718,1600.29 L130.033,1596.18 L130.482,1586.77 L131.488,1575.94 L131.61,1574.31 L132.736,1559.2 L133.379,1551.47 L134.99,1537.1 L135.13,1533.73 L134.678,1530.48 L133.759,1527.9 L132.926,1525.55 L132.577,1523.37 L132.527,1521.65 L132.77,1520.33 L133.506,1518.98 L134.329,1516.87 L134.556,1515.79 L134.726,1514.38 L134.754,1513.6 L134.597,1513 L134.329,1512.39 L134.19,1512 L134.093,1511.36 L134.151,1510.76 L134.346,1510.31 L134.49,1509.94 L134.848,1509.47 L135.112,1509.24 L136.203,1508.56 L136.838,1508.13 L137.824,1507.42 L138.697,1506.59 L139.067,1505.62 L139.218,1505 L139.195,1504.22 L139.158,1502.57 L139.263,1501.37 L139.509,1500.24 L140.034,1499.41 L140.999,1498.45 L142.128,1497.79 L143.545,1496.45 L144.315,1495.12 L145.034,1494.25 L146.23,1493.31 L147.14,1492.34 L148.232,1490.46 L148.711,1489.63 L148.751,1488.49 L148.613,1487.22 L148.219,1485.57 L148.013,1484.65 L148.013,1483.9 L148.228,1483.13 L148.745,1482.17 L149.157,1481.79 L151.133,1480.98 L151.496,1480.81 L151.82,1480.33 L151.933,1479.85 L152.065,1479.16 L152.33,1477.79 L152.681,1476.58 L153.374,1474.82 L154.658,1472.81 L155.514,1471.67 L156.27,1471.13 L156.922,1469.03 L157.288,1466.4 L157.863,1463.11 L157.916,1461.59 L157.781,1460.47 L157.281,1459.31 L157.323,1458.38 L157.956,1456.74 L160.634,1452.83 L162.175,1450.95 L163.041,1449.82 L163.67,1449.31 L163.873,1448.87 L163.833,1448.31 L163.73,1447.77 L163.559,1446.68 L163.706,1445.25 L164.008,1443.64 L163.865,1441.52 L164.015,1436.61 L165.198,1431.06 L165.438,1429.84 L166.515,1427.5 L167.073,1426.4 L168.161,1425.26 L169.297,1424.22 L169.917,1422.83 L170.845,1420.29 L172.148,1417.22 L172.703,1415.1 L172.717,1414.03 L172.528,1412.28 L172.191,1411.19 L172.033,1410.56 L172.153,1409.49 L172.56,1408.03 L172.388,1406.77 L173.779,1406.97 L174.04,1407.1 L174.229,1407.43 L174.066,1408.17 L174.35,1408.55 L175.339,1408.2 L176.043,1408.44 L176.733,1410.66 L176.652,1411.37 L177.017,1411.67 L177.281,1411.89 L177.932,1411.97 L178.843,1411.94 L180.748,1411.19 L182.119,1410.69 L182.603,1410.7 L182.993,1410.85 L183.191,1411.04 L183.389,1411.42 L183.503,1411.99 L183.55,1412.26 L183.752,1412.42 L184.568,1412.27 L185.159,1412.26 L185.718,1412.47 L186.157,1412.83 L186.781,1413.1 L188.549,1413.39 L191.002,1414.02 L191.773,1414.48 L192.241,1415.18 L192.482,1415.41 L192.801,1415.49 L193.4,1415.35 L195.042,1415.18 L195.514,1415.01 L195.795,1414.59 L196.085,1414.19 L196.497,1413.53 L197.004,1413.05 L197.867,1412.74 L198.921,1412.42 L200.221,1412.52 L201.683,1412.88 L202.522,1412.71 L203.281,1412.41 L204.079,1411.91 L204.553,1411.27 L205.785,1410.47 L207.03,1410.16 L209.508,1411.65 L210.767,1411.69 L212.324,1412.14 L213.583,1412.04 L214.801,1410.57 L216.534,1408.5 L217.658,1407.78 L217.983,1407.58 L219.81,1407.18 L221.3,1406.19 L222.396,1405.91 L223.032,1406.03 L223.425,1406.1 L225.848,1406.83 L226.931,1407.67 L227.322,1408.29 L227.527,1408.62 L227.974,1410.38 L228.691,1411.75 L229.611,1412.6 L230.397,1413.15 L231.995,1414.48 L232.515,1415.47 L232.732,1416.21 L233.033,1417.17 L233.263,1417.78 L233.659,1418.35 L234.026,1418.54 L234.801,1418.58 L235.437,1418.44 L236.123,1418.2 L236.68,1417.69 L236.951,1418.27 L237.131,1418.73 L237.286,1419.19 L237.313,1419.7 L237.229,1420.1 L236.934,1421.12 L236.39,1422.6 L236.226,1423.91 L236.233,1426.59 L236.363,1430.38 L236.663,1431.15 L237.587,1434.04 L237.638,1434.31 L238.244,1437.44 L238.365,1438.07 L239.086,1439.2 L242.436,1444.44 L243.403,1445.95 L243.403,1449.06 L242.218,1450.3 L241.479,1451.08 L242.395,1456.48 L244.543,1459.36 L247.111,1462.8 L247.959,1463.43 L249.028,1464.29 L249.723,1465.01 L250.221,1465.66 L250.828,1466.2 L252.526,1468.44 L253.095,1469.61 L254.139,1471.81 L255.636,1474.78 L256.347,1477 L256.806,1479.26 L256.969,1479.49 L257.19,1479.71 L257.619,1479.82 L257.893,1479.62 L260.208,1478.82 L267.589,1476.48 L274.475,1474.56 L277.702,1473.54 L278.064,1473.46 L278.289,1473.34 L278.419,1473.1 L278.445,1472.76 L277.853,1470.36 L277.309,1468.15 L277.251,1467.91 L276.538,1464.37 L276.408,1463.77 L275.857,1461.23 L275.294,1458.83 L274.817,1456.58 L274.583,1454.42 L274.621,1454.09 L275.167,1449.34 L275.103,1448.63 L275.079,1448.36 L275.046,1447.19 L275.177,1446.45 L275.278,1445.87 L275.685,1444.56 L276.19,1443.4 L277.152,1442.11 L278.614,1440.47 L278.917,1440.11 L280.454,1437.89 L280.829,1437.47 L285.026,1432.99 L286.95,1429.32 L287.317,1429.04 L287.841,1428.53 L288.987,1427.91 L290.105,1427.65 L292.409,1426.98 L293.386,1426.62 L293.91,1426.26 L295.033,1424.54 L296.084,1423.36 L297.321,1424.43 L298.948,1426.18 L299.457,1426.88 L299.924,1427.54 L300.268,1428.14 L300.372,1428.49 L300.435,1428.71 L300.461,1429.77 L300.445,1430.39 L300.111,1431.05 L299.229,1432.82 L298.489,1434.5 L296.064,1440.11 L295.796,1441.78 L295.795,1442.9 L296.464,1444.02 L298.289,1445.07 L299.857,1445.96 L302.504,1447.74 L304.107,1448.77 L304.819,1449.18 L305.982,1449.51 L307.464,1449.61 L312.381,1449.29 L314.113,1449.36 L315.428,1450.1 L315.84,1450.67 L316.236,1451.22 L317.171,1454.19 L317.558,1457.19 L317.996,1460.6 L319.038,1464.52 L320.488,1469.97 L320.924,1476.68 L322.37,1479.23 L324.02,1480.76 L324.498,1481.21 L325.957,1481.76 L330.154,1483.34 L334.019,1485.91 L336.251,1487.01 L341.888,1489.78 L348.556,1493.06 L353.507,1496.51 L354.492,1496.53 L355.501,1496.51 L356.609,1496.66 L357.389,1497.32 L358.755,1498.77 L359.776,1499.86 L360.659,1500.52 L361.639,1501.82 L363.547,1503.44 L364.071,1504.13 L365.904,1507.64 L368.362,1509.73 L369.009,1511.35 L370.044,1513.29 L371.533,1515.04 L371.917,1515.71 L372.3,1515.48 L375.179,1513.75 L376.023,1513.29 L376.336,1513.02 L376.537,1512.63 L377.088,1511.83 L377.36,1511.41 L377.788,1511.19 L379.555,1510.69 L381.39,1510.46 L384.459,1509.89 L384.98,1509.63 L385.58,1509.13 L385.954,1508.6 L386.186,1508.03 L386.507,1507.22 L386.794,1506.79 L387.034,1506.61 L387.451,1506.63 L389.051,1507.18 L390.62,1507.46 L391.977,1507 L394.408,1506.09 L397.992,1504.56 L402.731,1499.2 L408.038,1491.69 L411.548,1488.6 L413.057,1485.46 L414.39,1482.76 L413.681,1479.8 L414.25,1476.96 L414.411,1475.94 L414.864,1474.89 L414.964,1474.02 L414.979,1473.43 L414.97,1472.72 L414.857,1471.89 L414.768,1470.84 L414.769,1470.08 L414.999,1468.83 L415.304,1467.8 L417.14,1463.62 L420.703,1464.79 L421.214,1464.82 L421.772,1464.69 L421.962,1464.43 L422.499,1463.88 L423.203,1463.34 L424.341,1462.94 L426.737,1462.4 L428.616,1461.68 L430.683,1460.08 L431.865,1459.38 L432.983,1459.01 L434.119,1458.79 L435.063,1458.25 L437.605,1456.11 L438.765,1455.12 L440.043,1454.01 L442.059,1452.92 L442.856,1452.76 L444.942,1452.2 L446.041,1452.38 L448.349,1452.72 L448.992,1452.61 L449.404,1452.39 L450.412,1452.08 L451.014,1452.12 L451.61,1452.41 L452.936,1453 L454.457,1453.61 L455.356,1453.67 L456.563,1453.63 L458.275,1453.27 L459.393,1452.84 L460.17,1452.71 L462.07,1453.11 L466.607,1454.1 L470.6,1454.78 L476.225,1455.96 L479.769,1456.86 L480.457,1456.94 L480.565,1456 L482.817,1449.01 L485.561,1440.98 L487.272,1435.56 L488.172,1432.33 L489.745,1430.44 L490.139,1428.82 L491.938,1426.2 L492.933,1425.25 L499.332,1422.58 L504.968,1420.5 L509.409,1418.39 L515.135,1416.28 L517.171,1415.51 L519.795,1414.5 L523.262,1413.03 L525.595,1412.22 L529.182,1411.82 L531.306,1411.41 L531.003,1409.05 L530.442,1406.79 L529.537,1403.97 L527.98,1394.4 L527.884,1391.44 L527.321,1389.47 L525.992,1389.23 L523.4,1385.06 L522.028,1385.24 L519.746,1384.44 L518.974,1383.87 L517.504,1381.24 L514.609,1379.24 L516.382,1376.81 L516.564,1376.56 L514.391,1374.04 L513.288,1372.51 L511.267,1373.47 L509.884,1372.92 L506.545,1369.72 L506.543,1368.53 L506.793,1368.01 L506.917,1367.75 L508.126,1366.02 L509.145,1363.15 L509.181,1362.33 L507.831,1358.99 L508.018,1357.53 L508.081,1356.88 L508.336,1355.96 L508.495,1350.58 L507.509,1348.23 L507.361,1347.09 L507.148,1345.46 L506.132,1344.21 L504.86,1342 L505.014,1341.11 L506.915,1338.04 L506.895,1336.88 L506.492,1335.85 L505.918,1334.5 L505.483,1331.15 L504.488,1327.55 L502.685,1323.86 L502.509,1323.06 L503.345,1320.95 L503.066,1319.08 L502.06,1317.41 L501.895,1316.7 L501.736,1313.14 L501.44,1311.93 L501.339,1311.06 L501.034,1309.7 L500.341,1308.54 L499.363,1307.14 L498.857,1306.07 L498.987,1305.18 L499.328,1304.09 L499.453,1303.64 L499.393,1302.71 L499.819,1299.11 L499.515,1298.04 L499.27,1297.19 L499.271,1296.09 L499.407,1294.85 L499.298,1294.01 L499.124,1293.44 L498.78,1292.72 L497.492,1291.11 L496.255,1289.85 L495.927,1289.35 L495.728,1288.9 L495.549,1288.08 L495.587,1287.23 L495.562,1285.64 L495.199,1283.95 L495.05,1282.54 L495.43,1281.94 L496.517,1280.85 L497.318,1280.45 L498.883,1279.93 L498.872,1278.74 L498.662,1277 L498.643,1275.08 L499.121,1274.22 L499.887,1273.29 L500.606,1272.73 L502.027,1271.36 L504.784,1268.69 L507.149,1264.98 L508.908,1261.98 L510.892,1258.54 L512.254,1255.04 L513.244,1252.9 L514.972,1249.11 L515.442,1247.96 L513.27,1246.71 L510.628,1242.9 L510.219,1242.18 L509.004,1239.84 L508.812,1238.81 L508.728,1236.78 L508.664,1234.68 L509.591,1232.48 L504.74,1228.32 L507.226,1225.02 L508.7,1219.51 L509.43,1214.34 L509.991,1210.37 L509.932,1209.77 L509.368,1208.39 L503.699,1208.47 L505.295,1199.6 L501.926,1199.84 L501.869,1196.34 L501.838,1194.5 L501.834,1194.24 L500.969,1194.31 L501.023,1192.79 L502.91,1190.38 L503.762,1189.55 L505.759,1188.94 L507.507,1188.7 L508.252,1188.48 L509.378,1185.52 L509.281,1184.5 L507.399,1182.22 L504.877,1178.15 L508.1,1176.81 L506.89,1171.51 L507.244,1169.43 L509.405,1168.93 L509.293,1168.39 L508.132,1167.02 L508.454,1165.23 L505.748,1157.77 L506.217,1156.15 L507.727,1153.39 L508.482,1149.85 L508.552,1148.75 L509.069,1143.3 L509.601,1137.69 L510.272,1129.5 L510.789,1120.62 L511.153,1119.79 L511.312,1115.39 L511.362,1113.04 L511.908,1106.74 L512.386,1103.32 L512.794,1100.61 L513.362,1097.88 L513.53,1096.15 L512.883,1093.86 L512.607,1092.89 L512.556,1091.15 L512.509,1090.04 L512.505,1089 L512.87,1084.9 L513.302,1080.66 L513.274,1078.25 L513.144,1076.61 L513.098,1074.6 L512.974,1073.78 L513.237,1072.79 L513.327,1071.66 L512.956,1070.59 L513.053,1070.2 L513.373,1069.83 L514.06,1070.43 L514.486,1070.65 L515.068,1070.47 L515.891,1069.88 L517.054,1069.32 L517.789,1068.35 L518.407,1068.24 L519.078,1068.51 L519.481,1068.64 L521.082,1067.71 L523.892,1066.24 L525.37,1065.67 L525.508,1065.21 L525.965,1064.86 L526.496,1064.9 L527.511,1064.83 L528.42,1064.29 L528.563,1063.67 L528.262,1062.96 L527.688,1062.15 L527.648,1061.64 L528.102,1061.42 L529.217,1062.09 L529.858,1061.77 L529.72,1060.86 L530.133,1060.26 L531.003,1060.26 L531.689,1060.17 L531.692,1059.09 L531.079,1058.09 L530.671,1056.74 L530.133,1055.13 L529.217,1054.45 L529.114,1053.99 L529.663,1052.14 L529.429,1051.51 L528.599,1050.91 L528.088,1050.04 L528.823,1048.6 L530.949,1047.63 L531.456,1046.63 L531.323,1045.88 L531.723,1044.89 L533.931,1044.61 L534.529,1043.6 L534.07,1041.49 L534.419,1039.42 L534.823,1037.36 L536.513,1036.06 L536.506,1034.86 L535.928,1034.21 L535.854,1033.93 L535.969,1033.46 L536.489,1031.78 L535.675,1028.43 L534.777,1027.41 L532.7,1026.96 L529.125,1027.26 L528.758,1026.73 L528.072,1025.74 L527.874,1024.53 L528.576,1023.54 L532.742,1019.53 L544.068,1012.09 L560.441,1027.64 L567.738,1033.36 L573.632,1038.29 L584.96,1046.52 L591.588,1050.49 L597.887,1053.6 L603.013,1055.55 L606.738,1056.97 L614.474,1058.92 L621.98,1060.73 L628.105,1061.17 L634.677,1060.75 L640.578,1059.3 L645.834,1057.41 L655.232,1053.26 L664.796,1047.39 L677.212,1035.42 L685.862,1023.34 L685.941,1023.16 L689.349,1016.03 L692.717,1006.61 L695.201,996.965 L695.53,995.684 L697.566,983.203 L698.395,978.113 L698.983,971.646 L699.478,966.194 L699.544,962.022 L699.664,954.473 L699.574,953.529 L699.487,952.602 L698.762,944.915 L698.443,941.53 L697.603,932.608 L697.381,930.48 L696.229,919.443 L695.942,917.545 L693.481,901.241 L693.168,897.062 L693.188,895.938 L693.252,892.484 L693.77,887.184 L694.785,882.084 L696.452,877.472 L698.568,873.309 L701.033,869.344 L704.394,865.278 L707.789,862.488 L712.354,859.91 L720.36,856.947 L727.195,855.783 L732.685,855.317 L738.922,855.498 L743.215,856.078 L751.825,857.503 L755.294,858.71 L781.254,867.737 L801.346,875.352 L814.021,880.242 L836.334,890.605 L846.948,895.534 L852.558,899.173 L855.975,901.39 L859.033,903.8 L864.193,907.866 L870.008,913.692 L878.498,922.38 L887.014,936.206 L887.903,937.649 L891.594,945.322 L893.557,951.345 L894.495,957.474 L895.296,962.716 L895.49,970.402 L894.666,977.455 L892.98,983.131 L892.846,983.58 L888.481,993.83 L885.078,1001.82 L877.043,1014.99 L871.972,1022.28 L868.649,1026.51 L843.107,1059.63 L853.241,1066.16 L860.05,1069.12 L867.21,1071.99 L882.003,1077.87 L914.304,1090.84 L918.504,1092.43 L923.385,1094.34 L934.165,1098.46 L933.052,1103.85 L935.37,1104.51 L935.258,1104.92 L934.839,1106.47 L937.731,1107.29 L939.123,1107.79 L940.784,1108.41 L944.447,1110.15 L945.79,1110.67 L947.418,1111.17 L949.617,1111.85 L952.546,1112.58 L954.906,1113.18 L955.029,1113.21 L955.069,1113.28 L955.111,1113.36 L955.151,1113.48 L955.093,1114.56 L953.87,1119.86 L953.999,1120.23 L954.215,1120.39 L956.38,1121.2 L955.003,1124.65 L959.748,1126.56 L967.673,1129.45 L971.429,1119.05 L975.81,1120.05 L977.11,1120.38 L981.086,1121.96 L982.288,1118.69 L992.216,1122.83 L999.067,1125.54 L997.718,1129.35 L996.523,1132.67 L1002.87,1135.3 L1007.68,1137.37 L1016.18,1140.81 L1025.72,1144.84 L1040.06,1150.46 L1043.62,1142.15 L1047.9,1131.86 L1053.21,1133.82 L1052.11,1136.69 L1054.61,1137.65 L1058.6,1139.45 L1063.88,1141.03 L1071.55,1143.89 L1077.69,1145.76 L1089.17,1149.84 L1097.17,1152.64 L1104.64,1156.11 L1111.78,1158.39 L1117.47,1160.67 L1115.43,1167.97 L1128.46,1171.6 L1146.36,1173.42 L1163.45,1149.42 L1170.12,1139.71 L1207.19,1148.81 L1217.87,1151.47 L1221.7,1124.67 L1223.16,1114.42 L1223.36,1112.93 L1223.53,1111.48 L1223.84,1108.7 L1224.42,1106.71 L1225.6,1104.08 L1226.73,1101.08 L1228.56,1096.58 L1230.51,1091.98 L1231.59,1089.39 L1232.6,1084.81 L1234.05,1079.37 L1235.19,1075.38 L1236.53,1071.2 L1237.67,1067.82 L1238.73,1064.92 L1239.55,1062.55 L1239.85,1061.24 L1239.48,1061.06 L1240.17,1058.96 L1241.88,1055.26 L1243.22,1052.92 L1244.51,1050.73 L1247.74,1043.47 L1248.16,1042.52 L1250.15,1043.2 L1254.49,1044.6 L1254.67,1044.66 L1258.27,1046.26 L1260.94,1047.73 L1262.88,1049.14 L1263.96,1049.77 L1268.25,1051.91 L1272.19,1054.42 L1275.25,1050.18 L1276.65,1048.09 L1277.86,1046.36 L1278.96,1045.83 L1282.29,1047.94 L1283.04,1048.03 L1284.3,1047.84 L1284.7,1047.84 L1285.55,1048.33 L1291.32,1053.79 L1300.65,1059.65 L1304.8,1062.66 L1307.31,1064.14 L1309.66,1065.27 L1307.79,1070.02 L1307.29,1071.15 L1330.95,1080.48 L1337.69,1083.09 L1337.97,1083.31 L1338.14,1084.74 L1338.6,1085.46 L1344.78,1088.15 L1351.3,1089.84 L1354.67,1091.2 L1356.68,1091.78 L1357.29,1092.15 L1361.66,1096.85 L1362.9,1097.86 L1370.73,1102.59 L1385.34,1107.45 L1397.63,1111.63 L1411.55,1116.13 L1422.72,1119.84 L1435.46,1122.53 L1448.25,1125.05 L1451.51,1125.79 L1451.78,1124.99 L1476.89,1131.35 L1477.11,1131.38 L1478.92,1114.01 L1480.96,1104.23 L1482.74,1096.66 L1484.72,1090.15 L1488.84,1082.12 L1495.1,1069.76 L1504.28,1052.89 L1507.56,1047.41 L1509.81,1042.53 L1510.89,1040.18 L1514.1,1031.65 L1513.64,1030.49 L1511.61,1029.65 L1511.31,1029.1 L1515.64,1007.32 L1520.59,1008.36 L1520.6,1008.14 L1520.85,1003.98 L1522.16,993.744 L1525.39,973.7 L1525.97,972.531 L1527.8,968.812 L1529.12,964.92 L1530.81,961.873 L1532.48,957.572 L1533.94,955.268 L1535.17,951.043 L1537.28,945.123 L1538.7,940.455 L1540.92,917.666 L1539.3,917.402 L1545.33,884.152 L1551.88,884.13 L1552.36,883.733 L1550.05,867.49 L1548.39,859.708 L1547.52,852.174 L1545.32,837.821 L1543.51,823.532 L1542.55,819.07 L1541.75,812.207 L1540.55,804.822 L1539.98,802.626 L1539.51,798.511 L1572.29,797.84 L1572.9,790.793 L1610.88,791.52 L1648.52,792.974 L1649.81,798.4 L1712.3,798.274 L1726.29,797.812 L1732.67,799.994 L1755.21,800.217 L1760.19,801.783 L1763.32,802.958 L1764.21,803.266 L1765.28,802.79 L1769.28,799.91 L1770.34,799.434 L1772.6,799.406 L1787.68,799.854 L1809.01,800.413 L1811.22,801.755 L1815.08,801.56 L1817.38,800.357 L1819,800.078 L1831.28,800.106 L1833.96,800.972 L1835.81,801.923 L1838.6,804.524 L1840.73,806.454 L1842.01,806.733 L1844.5,806.705 L1865,805.111 L1865.43,804.898 L1867.85,802.678 L1869.52,801.741 L1871.07,801.177 L1872.98,801.026 L1909.36,802.846 L1910.49,802.687 L1911.92,802.319 L1915.45,800.833 L1917.26,800.178 L1922.85,799.66 L1927.87,799.756 L1931,799.35 L1939.05,798.735 L1955.22,799.434 L1976.95,806.594 L1991.41,811.488 L2005.76,816.938 L2033.47,827.652 L2062.1,839.126 L2089.49,848.965 L2114.73,858.739 L2122.23,861.269 L2127.77,863.504 L2150.17,871.949 L2173.63,880.744 L2207.5,895.454 L2234.93,907.885 L2238.37,907.717 L2247.88,911.55 L2280.54,925.046 L2316.07,939.584 L2319.92,941.164 L2328.95,944.883 L2336.28,947.946 L2343.86,907.626 L2344.72,908.311 L2361.77,915.887 L2382.46,924.794 L2395.16,930.415 L2397.2,931.505 L2416.07,939.504 L2436.24,948.117 L2457.55,955.668 L2475.87,961.728 L2505.91,971.842 L2523.07,977.816 L2532.52,981.564 L2539.29,983.224 L2544.95,985.37 L2567.63,993.809 L2577.71,997.221 L2595,1004.01 L2626.02,1015.64 L2645.61,1023.06 L2648.13,1024.02 L2674.78,1033.23 L2699.53,1042.28 L2726.71,1052.17 L2753.5,1061.83 L2754.09,1062.05 L2779.69,1071.34 L2800.36,1078.85 L2830.98,1090.09 L2850.8,1097.25 L2850.23,1098.39 L2847.27,1105.84 L2845.04,1111.11 L2843.46,1113.07 L2841.88,1114.5 L2838.34,1117.06 L2836.26,1117.77 L2836.56,1123.13 L2836.37,1125.72 L2834.45,1133.66 L2833.6,1138.15 L2833.57,1143.48 L2834,1149.27 L2835.02,1154.99 L2837.51,1167.72 L2839.29,1176.05 L2841.07,1181.17 L2841.41,1181.71 L2854.91,1186.27 L2865.41,1189.88 L2868.94,1190.67 L2876.04,1191.91 L2894.07,1194.9 L2892.72,1199.54 L2885.1,1225.58 L2881.83,1233.54 L2878.69,1241.94 L2876.85,1246.85 L2870.16,1262.21 L2854.33,1277.46 L2846.76,1284.26 L2835.65,1294.98 L2814.09,1315.47 L2806.71,1323.13 L2790.47,1338.61 L2783.7,1346.16 L2775.13,1355.92 L2753.71,1382.28 L2731.92,1411.13 L2713.19,1437.07 L2710.08,1440.74 L2709.6,1441.3 L2696.38,1451.26 L2688.93,1460.55 L2677.96,1475.15 L2668.98,1470.66 L2660.6,1468.28 L2652.58,1468.65 L2645.23,1472.21 L2630.48,1480.69 L2624.2,1482.07 L2622.74,1481.93 L2618,1481.5 L2611.69,1479.65 L2603.41,1479.29 L2596.13,1481.13 L2591.42,1483.27 L2590.99,1488.65 L2590.5,1494.06 L2589.56,1502.79 L2589.13,1507.37 L2588.5,1513.21 L2588.5,1515.84 L2588.67,1519.16 L2589.07,1522.74 L2590.24,1528.01 L2590.67,1531.3 L2590.47,1535.22 L2590.38,1539.76 L2590.3,1544 L2590.08,1546.29 L2593.4,1545.96 L2598.63,1547 L2603.39,1549.52 L2612.31,1555.35 L2617.9,1557.7 L2618.69,1558.03 L2623.95,1561.79 L2626.97,1566.25 L2628.25,1570.21 L2630.77,1578.95 L2633.29,1586.1 L2633.8,1589.88 L2634.15,1594.23 L2633.46,1598.64 L2631.57,1601.56 L2627.91,1608.6 L2626.19,1610.6 L2623.33,1612.95 L2619.21,1615.81 L2616.86,1617.99 L2615.49,1620.16 L2615.14,1621.99 L2613.4,1627.72 L2613.19,1628.47 L2612.65,1630.41 L2606.62,1637.56 L2603.35,1640.19 L2600.38,1643.06 L2598.82,1645.31 L2598.2,1646.2 L2596.71,1648.95 L2596.12,1650.56 L2595.34,1652.67 L2594.2,1657.14 L2588.47,1664.23 L2587.38,1665.89 L2586.18,1669.04 L2584.87,1671.79 L2581.95,1676.02 L2580.63,1679 L2574.93,1691.5 L2566.7,1684.83 L2555.43,1676.88 L2541.54,1666.64 L2525.75,1654.35 L2522.05,1651.56 L2518.24,1648.68 L2507.57,1639.51 L2504.19,1636.43 L2500.27,1633.77 L2499.85,1634.3 L2498.92,1635.67 L2497.43,1638.27 L2496.23,1640.79 L2496,1642.14 L2495.92,1644.97 L2496.12,1649.81 L2498.06,1659.22 L2498.92,1663.95 L2498.89,1665.72 L2498.58,1667.98 L2497.75,1669.95 L2496.95,1670.9 L2495.94,1671.73 L2494.77,1672.24 L2493.25,1672.73 L2491.48,1673.07 L2489.28,1673.05 L2486.21,1672.7 L2484.53,1672.93 L2483.12,1673.28 L2481.46,1674.1 L2480.12,1675.36 L2479.17,1676.62 L2478.46,1678.14 L2477.31,1680.95 L2475.51,1684.89 L2473.05,1691.33 L2469.59,1701.52 L2468.76,1703.58 L2467.93,1705.19 L2466.81,1706.5 L2464.89,1708.19 L2461.03,1711.42 L2457.91,1714.17 L2454.42,1716.72 L2447.81,1721.18 L2445.54,1722.7 L2445.06,1723.02 L2443.54,1724.62 L2442.97,1726.31 L2442.83,1727.85 L2442.86,1729.43 L2442.34,1732.17 L2442.05,1733.69 L2441.08,1736.35 L2440.81,1737.84 L2440.44,1740.7 L2440.39,1743.13 L2440.28,1745.14 L2439.55,1747.9 L2438.03,1754.11 L2437.36,1758.1 L2436.57,1760.33 L2434.87,1763.97 L2433.7,1766.76 L2432.82,1769.26 L2431.91,1771.83 L2430.37,1776.52 L2430.28,1776.8 L2427.87,1784.82 L2426.01,1791.8 L2424.83,1794.45 L2423.28,1797.54 L2422.44,1799.63 L2421.09,1809.15 L2420.05,1814.2 L2418.71,1820.81 L2418.3,1824.91 L2418.13,1826.44 L2417.05,1830.45 L2415.27,1836.09 L2414.06,1838.75 L2410.6,1843.83 L2406.49,1850.07 L2404.07,1857.8 L2404.64,1861.46 L2407.25,1866.34 L2413.13,1872.13 L2414.98,1875.4 L2414.65,1879.24 L2412.55,1885.43 L2411.42,1888.73 L2406.58,1897.17 L2404.31,1903.86 L2401.46,1917.62 L2401.46,1921.13 L2402.44,1927.12 L2404.17,1937.63 L2405.21,1941.95 L2406.73,1945.7 L2407.09,1950.56 L2407.9,1980.28 L2406.89,1988.26 L2404.68,1997.85 L2404.74,1999.17 L2404.95,2003.96 L2406.29,2016.63 L2405.75,2022.6 L2402.37,2037.09 L2401.52,2039.9 L2400.57,2041.62 L2393.2,2048.37 L2391.08,2053.11 L2377.38,2047.16 L2377.08,2047.17 L2376.89,2047.42 L2375.6,2052.12 L2375.45,2052.23 L2375.21,2052.25 L2369.08,2050.18 L2367.97,2050.07 L2366.61,2049.66 L2362.44,2047.86 L2360.15,2047.18 L2356.39,2045.37 L2348.15,2057.17 L2347.62,2057.95 L2347.27,2058.68 L2346.99,2059.96 L2346.81,2061.55 L2346.77,2062.59 L2346.7,2063.54 L2346.35,2064.53 L2345.01,2066.76 L2340.73,2073.37 L2340.12,2073.81 L2339.78,2074.01 L2339.25,2074.06 L2338.37,2073.93 L2336.83,2073.68 L2335.11,2073.83 L2332.59,2074.21 L2330.72,2074.72 L2330,2074.79 L2328.38,2075.08 L2324.51,2076.07 L2322.14,2076.94 L2321.48,2077.15 L2320.8,2077.32 L2314.28,2078.08 L2309.28,2078.64 L2304.87,2079.11 L2303.62,2079.13 L2301.64,2079.18 L2296.29,2079.06 L2295.89,2079.06 L2295.67,2079.16 L2294.77,2079.96 L2294.6,2080.03 L2294.42,2080.06 L2291.47,2079.86 L2287.39,2079.06 L2286.68,2080.81 L2286.06,2083.66 L2284.07,2085.41 L2283.5,2088.64 L2281.89,2091.48 L2281.65,2098.36 L2280.97,2102.82 L2280.17,2102.59 L2198.05,2079.54 L2178.96,2074.88 L2178.68,2076.92 L2176.04,2077.68 L2175.49,2075.42 L2174.55,2073.53 L2145.54,2064.8 L2137.85,2062.65 L2103.64,2053.05 L2102.53,2052.73 L2101.85,2052.61 L2100.46,2052.38 L2100.25,2052.33 L2100.17,2052.55 L2100.15,2052.61 L2097.85,2051.6 L2094.1,2050.48 L2085.8,2049.5 L2050.65,2043.9 L2044.3,2042.89 L2038.11,2041.9 L2020.48,2039.95 L2021.55,2041.28 L2017.28,2046.83 L2018.08,2040.27 L2015.78,2039.36 L2016.34,2038.24 L1999.9,2035.48 L1970.84,2030.59 L1934.92,2024.55 L1914.47,2021.11 L1917.34,2013.56 L1918.04,2010.76 L1920.12,2007.28 L1916.38,2006.94 L1915.58,2008.14 L1914.92,2001.95 L1911.85,1999.55 L1909.52,2000.08 L1908.46,2004.48 L1907.39,2008.67 L1904.59,2012.27 L1904.53,2017.4 L1901.26,2020.79 L1898.73,2021.73 L1896.07,2023.99 L1894.74,2028.79 L1891.21,2030.18 L1891.81,2025.59 L1892.81,2022.66 L1891.14,2022.46 L1889.34,2023.99 L1885.75,2023.79 L1886.28,2018.33 L1825.96,2006.23 L1823.08,2005.72 L1819.53,2018.08 L1796.88,2015.56 L1795.96,2003.22 L1754.35,1993.35 L1752.35,2001.36 L1743.36,2000.22 L1744.56,1992.15 L1718.41,1991.06 L1717.31,1986.73 L1709.82,1994.38 L1650.09,1981.37 L1639.3,1979.02 L1637.13,1978.5 L1635.03,1972.7 L1622.31,1969.36 L1618.33,1967.98 L1613.16,1971.22 L1611.43,1973.23 L1608.54,1984.65 L1602.43,1983.49 L1604.49,1973.23 L1600.8,1970.97 L1592.05,1972.45 L1587.06,1971.82 L1584.2,1979.54 L1557.98,1973.48 L1558.06,1969.23 L1556.68,1967.38 L1554.69,1966.4 L1553.15,1965.92 L1550.79,1966.87 L1549.47,1966.98 L1546.83,1966.65 L1544.28,1967.29 L1542.59,1968.58 L1540.6,1968.75 L1537.91,1967.32 L1536.66,1966.52 L1535.74,1966.96 L1533.95,1967.88 L1529.37,1967.06 L1526.79,1966.7 L1526.31,1966.52 L1525.93,1965.56 L1525.23,1963.84 L1523.76,1962.72 L1523.12,1962.47 L1520.85,1963.4 L1519.8,1963.36 L1518.74,1962.61 L1518.53,1962.49 L1517.94,1962.15 L1514.94,1961.29 L1509.14,1960.39 L1503.29,1959.6 L1503.54,1956.97 L1501.89,1956.35 L1501.06,1956.03 L1500.67,1951.35 L1499.88,1950.99 L1498.64,1954.65 L1497.96,1955.61 L1497.32,1955.99 L1496.64,1958.2 L1495.89,1959.83 L1494.74,1960.6 L1493.14,1960.67 L1490.17,1958.5 L1487.52,1957.9 L1485.08,1957.59 L1483.66,1958.87 L1479.85,1958.57 L1480.23,1956.31 L1476.48,1955.09 L1473.55,1955.04 L1472.91,1956.08 L1470.2,1952.73 L1466.26,1951.98 L1460.65,1951.51 L1458.66,1958.01 L1454.46,1957.08 L1454.86,1951.95 L1454.42,1951.91 L1454.15,1954.14 L1453.71,1956.35 L1448.43,1955.98 L1442.56,1956 L1443.68,1948.15 L1439.46,1947.31 L1438.29,1948.51 L1437.53,1948.79 L1437.05,1948.93 L1436.76,1948.13 L1435.48,1946.8 L1432.43,1945.17 L1427.17,1944.46 L1426.46,1945.15 L1424.12,1944.75 L1421.91,1943.91 L1421.62,1946.03 L1420.92,1946.3 L1420.03,1945.77 L1418.8,1945.17 L1418.22,1942.67 L1416.72,1942.96 L1415.13,1944.15 L1413.82,1945.77 L1413.01,1947.51 L1412.81,1949.72 L1412.63,1953.08 L1411.85,1953.33 L1411.22,1952.84 L1407.66,1952.42 L1407.55,1953.17 L1392.72,1951.56 L1389.18,1951.49 L1386.99,1950.89 L1382.72,1948.8 L1375.85,1946.07 L1373.11,1944.47 L1372.67,1945.13 L1371.9,1946.23 L1368.08,1944.51 L1360.25,1940.69 L1355.66,1939.73 L1356.39,1938.87 L1354.84,1937.73 L1354.25,1937.9 L1353.83,1937.57 L1353.31,1937.43 L1352.53,1937.52 L1352.43,1938.9 L1351.52,1939.49 L1349.88,1939.25 L1348.98,1939.67 L1348.63,1937.54 L1347.66,1936.74 L1346.25,1935.94 L1344.48,1935.56 L1342.54,1934.33 L1336.41,1931.92 L1334.76,1931.25 L1332.43,1929.65 L1329.45,1928.37 L1326.47,1928.71 L1325.74,1928.98 L1324.73,1929.9 L1323.07,1930.07 L1321.34,1929.14 L1318.39,1927.95 L1316.73,1927.5 L1314.94,1927.99 L1314.32,1927.51 L1313,1927.3 L1311.98,1926.08 L1311.84,1924.85 L1309.63,1925.33 L1303.9,1923.58 L1300.56,1922.43 L1297.7,1921.08 L1294.02,1918.59 L1290.3,1916.23 L1287.81,1915.3 L1276.87,1911.1 L1274.55,1912.91 L1270.07,1911.74 L1267.13,1909.7 L1260.9,1908.2 L1261.4,1905.06 L1261.87,1904.11 L1259.93,1903.72 L1259.16,1904.99 L1258.24,1905.98 L1257.34,1907.43 L1255.07,1906.93 L1253.1,1906.01 L1251.98,1905.43 L1246.54,1903.27 L1244.85,1902.59 L1245.37,1899.44 L1244.3,1899.11 L1243.86,1899.05 L1242.52,1898.73 L1239.69,1898.05 L1232.43,1896.3 L1227.55,1894.8 L1221.89,1893.92 L1217.3,1893.69 L1207.18,1891.53 L1201.49,1889.72 L1198.27,1889.03 L1197.21,1888.8 L1196.57,1888.88 L1195.69,1888.93 L1194.48,1889.57 L1192.67,1890.14 L1191.16,1890.06 L1188.96,1889.7 L1187.42,1889.4 L1185.61,1889.14 L1184.42,1889.19 L1181.84,1889.68 L1179.88,1890.08 L1178.89,1890.28 L1177.72,1890.48 L1176.59,1890.54 L1172.54,1890.01 L1154.63,1886.77 L1151.61,1886.17 L1148.89,1885.38 L1147.8,1884.77 L1146.67,1883.84 L1145.28,1882.49 L1144.28,1881.79 L1142.07,1881.01 L1140.12,1880.43 L1136,1879.43 L1124.8,1877.27 L1101.38,1860.95 L1093.87,1856.82 L1074.69,1842.51 L1074.17,1841.84 L1074.09,1840.93 L1074.59,1831.15 L1074.27,1830.24 L1070.19,1825.4 L1058.8,1817.71 L1046.41,1807.9 L1033.24,1793.25 L1019.02,1777.98 L1016.01,1774.92 L1009.77,1770.21 L1008.35,1768.96 L1004.13,1763.52 L1002.64,1760.68 L1002.03,1760.16 L991.271,1755.24 L990.407,1754.69 L986.856,1751.5 L983.707,1749.17 L978.28,1745.83 L923.605,1757.07 L887.088,1793.01 L887.282,1795.11 L887.856,1802.6 L881.205,1826.22 L871.372,1845.46 L837.04,1879.13 L820.234,1894.95 L815.665,1899.67 L812.719,1902.39 L809.371,1895.47 L806.561,1892.84 L805.346,1895.72 L804.034,1896.5 L803.015,1896.61 L801.353,1898.8 L799.67,1900.66 L798.2,1902.29 L798.078,1901.36 L797.896,1899.97 L797.639,1898 L796.844,1895.48 L795.5,1896.7 L794.588,1899.39 L790.468,1898.48 L787.972,1899.23 L786.316,1899.72 L783.74,1900.5 L780.36,1901.51 L773.37,1900.77 L767.173,1900.3 L762.488,1905.5 L760.363,1908.28 L754.674,1912.95 L752.858,1914.44 L750.181,1914.99 L747.132,1915.61 L745.817,1914.42 L744.128,1912.9 L739.931,1909.1 L735.463,1908.63 L731.863,1909.97 L728.132,1912.05 L725.942,1905.29 L721.711,1905.4 L703.96,1905.87 L703.015,1912.45 L701.814,1912.51 L699.41,1908.28 L698.673,1908.62 L698.306,1915.67 L697.517,1915.6 L695.413,1911.89 L690.679,1910.64 L685.403,1912.84 L680.948,1911.79 L674.916,1912.99 L666.138,1914.07 L659.652,1914.34 L651.999,1918.88 L651.206,1916.44 L645.39,1916.17 L637.978,1916.18 L633.656,1916.73 L630.909,1914.67 L624.784,1915.84 L623.983,1917.56 L620.806,1917.59 L610.561,1923.01 L607.899,1924.43 L604.15,1924.37 L601.962,1933.81 L596.973,1934.41 L596.896,1935.77 L595.894,1935.65 L595.207,1931.33 L592.583,1931.31 L591.214,1933.18 L587.764,1937.17 L585.559,1939.72 L584.439,1939.09 L585.44,1945.27 L585.484,1945.54 L587.216,1945.43 L587.33,1945.95 L587.602,1947.29 L588.131,1949.88 L588.003,1950.68 L588.174,1952.24 L588.346,1953.51 L588.045,1953.57 L588.089,1954.17 L588.489,1954.13 L588.718,1953.97 L591.022,1953.54 L591.07,1953.74 L591.079,1953.78 L588.79,1954.11 L588.504,1954.27 L583.099,1954.88 L583.086,1954.8 L582.914,1954.82 L582.812,1954.12 L583.151,1954.05 L582.679,1951.71 L582.937,1950.76 L583.323,1950.45 L583.667,1945.75 L583.788,1945.61 L584.497,1944.78 L584.18,1943.11 L583.959,1941.78 L583.753,1940.14 L584.153,1940.03 L583.984,1938.83 L583.587,1938.6 L582.865,1938.55 L572.804,1937.85 L570.24,1935.84 L569.944,1933.28 L569.214,1932.76 L568.779,1931.79 L567.174,1933.09 L564.658,1930.1 L564.292,1926.55 L559.973,1927.11 L559.973,1929.28 L559.019,1932.92 L556.583,1933.22 L549.649,1934.09 L545.942,1937.38 L542.406,1940.51 L540.073,1938.84 L537.243,1936.82 L533.686,1932.31 L531.994,1931.14 L529.662,1929 L526.428,1929.3 L526.571,1934.35 L523.535,1933.96 L524.168,1929.03 L522.679,1928.34 L517.714,1930.13 L515.968,1933.95 L511.649,1934.78 L511.103,1932.68 L509.959,1932.49 L509.264,1933.09 L495.946,1933.96 L495.838,1928.2 L491.842,1927.94 L487.965,1940.68 L485.015,1941.68 L481.718,1940.16 L481.452,1938.53 L481.224,1938.73 L480.623,1938.18 L479.24,1938.87 L479.332,1940.99 L476.73,1944.15 L474.734,1938.52 L472.565,1939.64 L464.063,1940.6 L457.079,1938.69 L456.378,1938.58 L453.687,1939.03 L452.79,1938.73 L451.893,1938.43 L449.252,1939.03 L445.864,1939.23 L444.668,1940.92 L441.379,1939.48 L439.386,1938.78 L437.742,1936.69 L432.41,1936.19 L430.965,1937.14 L430.168,1937.44 L424.836,1939.03 L424.543,1939.17 L424.188,1939.33 L420.551,1939.48 L417.361,1937.59 L414.173,1939.53 L410.186,1937.59 L408.392,1938.23 L407.645,1941.27 L406.848,1941.42 L405.253,1939.03 L399.473,1939.88 L397.679,1945.56 L393.842,1950.94 L387.066,1944.86 L382.332,1947.15 L380.488,1945.71 L379.673,1937.19 L378.467,1937.45 L378.681,1941.81 L376.641,1943.5 L375.153,1943.95 L374.932,1943.85 L374.489,1942.15 L374.388,1940.86 L370.353,1940.72 L370.631,1947.79 L369.257,1950.08 L366.453,1950.02 L367.082,1953.51 L364.564,1961.35 L360.443,1967.31 L358.376,1962.65 L356.929,1962.84 L355.292,1963.05 L354.884,1960.82 L351.513,1960.67 L349.395,1959.01 L346.591,1953.86 L343.672,1957.92 L339.035,1959.64 L337.49,1967.65 L329.362,1969.83 L324.871,1966.98 L319.345,1967.71 L317.896,1966.32 L318.258,1965.3 L317.123,1965.41 L315.063,1975.82 L314.204,1976 L313.289,1975.65 L312.258,1973.76 L312.258,1972.1 L312.155,1970.05 L310.739,1969.47 L306.834,1969.36 L306.763,1973.08 L305.962,1972.5 L304.543,1972.18 L302.871,1971.3 L301.727,1975.6 L296.403,1974.85 L293.656,1970.16 L290.622,1970.04 L289.649,1971.99 L287.646,1970.04 L287.2,1970.07 L287.157,1964.79 L279.06,1964.32 L279.804,1971.99 L273.851,1973.59 L275.11,1963.92 L274.235,1963.51 L274.292,1955.4 L273.233,1954.68 L269.627,1953.71 L264.699,1961.3 L261.225,1966.74 L260.641,1967.08 L259.941,1967.12 L257.751,1970.97 L251.784,1969.31 L246.875,1974.45 L246.044,1968.86 L244.232,1968.4 L244.232,1972.18 L242.947,1973.99 L237.585,1974.75 L236.906,1968.63 L234.413,1964.1 L230.819,1963.35 L230.133,1974.36 L227.616,1974.45 L229.202,1976.48 L228.598,1977.47 L226.634,1983.81 L223.613,1987.44 L221.498,1981.47 L218.371,1981.3 L215.852,1980 L208.054,1981.17 L203.447,1982.6 L201.377,1988.81 L197.254,1987.36 L198.462,1982.45 L197.858,1975.65 L197.103,1972.1 L195.215,1971.35 L195.064,1967.87 L192.07,1970.68 L190.38,1960.26 L188.796,1960.37 L177.874,1961.07 L171.549,1961.64 L169.975,1966.56 L169.975,1966.56 L163.59,1932.33 L160.899,1917.98 L153.076,1873.68 L150.917,1864.53 L149.631,1856.01 L148.522,1848.97 L146.179,1842.01 L145.977,1835.12 L145.183,1828.93 L138.07,1787.34 L135.564,1771.84 L134.306,1764.05 L132.829,1755.07 L130.412,1740.36 L129.741,1736.27 L125.729,1712.91 L124.978,1709.18 L123.124,1696.01 L122.742,1693.68 L123.231,1680.95 L123.697,1677.74" vector-effect="none" fill-rule="evenodd"/>
  </g>
  <g stroke-linejoin="bevel" stroke-linecap="square" font-style="normal" transform="matrix(0.999744,0,0,0.999744,0,0)" stroke-width="1" font-size="34.5833" font-weight="400" stroke="#000000" stroke-opacity="1" font-family="MS Shell Dlg 2" fill="none"/>
  <g stroke-linejoin="bevel" stroke-linecap="square" font-style="normal" transform="matrix(11.808,0,0,11.808,0,0)" stroke-width="1" font-size="34.5833" font-weight="400" stroke="#000000" stroke-opacity="1" font-family="MS Shell Dlg 2" fill="none"/>
  <g stroke-linejoin="bevel" stroke-linecap="square" font-style="normal" transform="matrix(11.808,0,0,11.808,0,0)" stroke-width="1" font-size="34.5833" font-weight="400" stroke="#000000" stroke-opacity="1" font-family="MS Shell Dlg 2" fill="none"/>
  <g stroke-linejoin="bevel" stroke-linecap="square" font-style="normal" transform="matrix(11.808,0,0,11.808,0,0)" stroke-width="1" font-size="34.5833" font-weight="400" stroke="#000000" stroke-opacity="1" font-family="MS Shell Dlg 2" fill="none"/>
  <g stroke-linejoin="bevel" stroke-linecap="square" font-style="normal" transform="matrix(1,0,0,1,0,0)" stroke-width="1" font-size="34.5833" font-weight="400" stroke="#000000" stroke-opacity="1" font-family="MS Shell Dlg 2" fill="none"/>
  <g stroke-linejoin="bevel" stroke-linecap="square" font-style="normal" transform="matrix(11.808,0,0,11.808,0,0)" stroke-width="1" font-size="34.5833" font-weight="400" stroke="#000000" stroke-opacity="1" font-family="MS Shell Dlg 2" fill="none"/>
  <g stroke-linejoin="bevel" stroke-linecap="square" font-style="normal" transform="matrix(11.808,0,0,11.808,0,0)" stroke-width="1" font-size="34.5833" font-weight="400" stroke="#000000" stroke-opacity="1" font-family="MS Shell Dlg 2" fill="none"/>
  <g stroke-linejoin="bevel" stroke-linecap="square" font-style="normal" transform="matrix(11.808,0,0,11.808,0,0)" stroke-width="1" font-size="34.5833" font-weight="400" stroke="#000000" stroke-opacity="1" font-family="MS Shell Dlg 2" fill="none"/>
  <g stroke-linejoin="bevel" stroke-linecap="square" font-style="normal" transform="matrix(11.808,0,0,11.808,0,0)" stroke-width="1" font-size="34.5833" font-weight="400" stroke="#000000" stroke-opacity="1" font-family="MS Shell Dlg 2" fill="none"/>
  <g stroke-linejoin="bevel" stroke-linecap="square" font-style="normal" transform="matrix(1,0,0,1,0,0)" stroke-width="1" font-size="34.5833" font-weight="400" stroke="#000000" stroke-opacity="1" font-family="MS Shell Dlg 2" fill="none"/>
 </g>
</svg>
