<?xml version='1.0' encoding='UTF-8' standalone='no'?>
<svg xmlns="http://www.w3.org/2000/svg" baseProfile="tiny" viewBox="0 0 2952 2952" height="249.936mm" xmlns:xlink="http://www.w3.org/1999/xlink" version="1.2" width="249.936mm">
 <title>Qt SVG Document</title>
 <desc>Generated with Qt</desc>
 <defs/>
 <g stroke-linejoin="bevel" stroke-linecap="square" fill-rule="evenodd" stroke-width="1" stroke="black" fill="none">
  <g stroke-linejoin="bevel" stroke-linecap="square" font-style="normal" transform="matrix(1,0,0,1,0,0)" stroke-width="1" font-size="34.5833" font-weight="400" stroke="#000000" stroke-opacity="1" font-family="MS Shell Dlg 2" fill="none"/>
  <g stroke-linejoin="bevel" stroke-linecap="square" font-style="normal" transform="matrix(1,0,0,1,0,0)" stroke-width="1" font-size="34.5833" font-weight="400" stroke="#000000" stroke-opacity="1" font-family="MS Shell Dlg 2" fill="none"/>
  <g stroke-linejoin="bevel" stroke-linecap="square" font-style="normal" transform="matrix(11.808,0,0,11.808,0,0)" stroke-width="1" font-size="34.5833" font-weight="400" stroke="#000000" stroke-opacity="1" font-family="MS Shell Dlg 2" fill="none"/>
  <g stroke-linejoin="bevel" stroke-linecap="square" font-style="normal" transform="matrix(0.999744,0,0,0.999744,0,0)" stroke-width="1" font-size="34.5833" font-weight="400" stroke="#000000" stroke-opacity="1" font-family="MS Shell Dlg 2" fill="none"/>
  <g font-style="normal" fill-opacity="0" transform="matrix(0.999744,0,0,0.999744,0,0)" font-size="34.5833" font-weight="400" stroke="none" font-family="MS Shell Dlg 2" fill="#ffffff">
   <path d="M-2,-2 L2955,-2 L2955,2955 L-2,2955 L-2,-2" vector-effect="none" fill-rule="evenodd"/>
  </g>
  <g stroke-linejoin="bevel" stroke-linecap="square" font-style="normal" transform="matrix(0.999744,0,0,0.999744,0,0)" stroke-width="1" font-size="34.5833" font-weight="400" stroke="#000000" stroke-opacity="1" font-family="MS Shell Dlg 2" fill="none"/>
  <g stroke-linejoin="bevel" stroke-linecap="square" font-style="normal" transform="matrix(11.808,0,0,11.808,0,0)" stroke-width="1" font-size="34.5833" font-weight="400" stroke="#000000" stroke-opacity="1" font-family="MS Shell Dlg 2" fill="none"/>
  <g stroke-linejoin="bevel" stroke-linecap="square" font-style="normal" transform="matrix(11.808,0,0,11.808,0,0)" stroke-width="1" font-size="34.5833" font-weight="400" stroke="#000000" stroke-opacity="1" font-family="MS Shell Dlg 2" fill="none"/>
  <g stroke-linejoin="bevel" stroke-linecap="square" font-style="normal" transform="matrix(11.808,0,0,11.808,0,0)" stroke-width="1" font-size="34.5833" font-weight="400" stroke="#000000" stroke-opacity="1" font-family="MS Shell Dlg 2" fill="none"/>
  <g stroke-linejoin="bevel" stroke-linecap="square" font-style="normal" transform="matrix(11.808,0,0,11.808,0,0)" stroke-width="1" font-size="34.5833" font-weight="400" stroke="#000000" stroke-opacity="1" font-family="MS Shell Dlg 2" fill="none"/>
  <g stroke-linejoin="bevel" stroke-linecap="square" font-style="normal" transform="matrix(11.808,0,0,11.808,0,0)" stroke-width="1" font-size="34.5833" font-weight="400" stroke="#000000" stroke-opacity="1" font-family="MS Shell Dlg 2" fill="none"/>
  <g font-style="normal" fill-opacity="0" transform="matrix(11.808,0,0,11.808,0,0)" font-size="34.5833" font-weight="400" stroke="none" font-family="MS Shell Dlg 2" fill="#ffffff">
   <path d="M0,0 L250,0 L250,250 L0,250 L0,0" vector-effect="none" fill-rule="evenodd"/>
  </g>
  <g stroke-linejoin="bevel" stroke-linecap="square" font-style="normal" transform="matrix(11.808,0,0,11.808,0,0)" stroke-width="1" font-size="34.5833" font-weight="400" stroke="#000000" stroke-opacity="1" font-family="MS Shell Dlg 2" fill="none"/>
  <g stroke-linejoin="bevel" stroke-linecap="square" font-style="normal" transform="matrix(11.808,0,0,11.808,0,0)" stroke-width="1" font-size="34.5833" font-weight="400" stroke="#000000" stroke-opacity="1" font-family="MS Shell Dlg 2" fill="none"/>
  <g font-style="normal" fill-opacity="0" transform="matrix(0.999744,0,0,0.999744,0,0)" font-size="34.5833" font-weight="400" stroke="none" font-family="MS Shell Dlg 2" fill="#000000">
   <rect height="2953" width="2953" x="0" y="0"/>
  </g>
  <g stroke-linejoin="bevel" stroke-linecap="square" font-style="normal" transform="matrix(0.999744,0,0,0.999744,0,0)" stroke-width="1" font-size="34.5833" font-weight="400" stroke="#000000" stroke-opacity="1" font-family="MS Shell Dlg 2" fill="none"/>
  <g stroke-linejoin="bevel" stroke-linecap="square" font-style="normal" fill-opacity="1" transform="matrix(0.999744,0,0,0.999744,0,0)" stroke-width="3.07087" font-size="34.5833" font-weight="400" stroke="#5c5c5c" stroke-opacity="1" font-family="MS Shell Dlg 2" fill="#c5c5c5">
   <path d="M362.773,1359.06 L364.524,1354.28 L367.079,1350.25 L369.599,1348.34 L374.082,1346.77 L379.954,1344.99 L383.05,1343.6 L387.556,1340.57 L391.405,1337.69 L394.364,1336.23 L400.262,1335.06 L407.851,1333.4 L413.344,1332.48 L417.843,1332.49 L428.895,1333.72 L439.7,1334.77 L444.536,1334.43 L449.109,1332.94 L454.756,1330.99 L460.428,1328.18 L464.494,1325.6 L469.624,1321.29 L471.361,1319.59 L472.587,1317.67 L473.869,1313.91 L475.484,1304.67 L477.113,1298.01 L479.315,1292.69 L483.558,1284.74 L493.242,1267.94 L496.617,1261.02 L499.071,1253.47 L501.379,1244.16 L502.367,1239.15 L503.209,1233.04 L503.503,1226.89 L503.46,1221.67 L514.581,1219.33 L514.997,1219.43 L515.355,1219.89 L516.316,1222.62 L526.429,1221.61 L542.545,1219.86 L548.623,1219.89 L557.823,1220.26 L572.525,1220.35 L589.221,1220.78 L599.213,1222.62 L619.602,1222.73 L734.311,1232.22 L737.842,1234.77 L740.711,1235.56 L741.689,1236.19 L742.508,1237.64 L742.886,1240.83 L743.351,1241.93 L745.188,1243.19 L745.503,1244.32 L745.66,1247.38 L746.039,1248.8 L746.89,1249.46 L749.443,1249.72 L750.389,1250 L754.519,1255.39 L755.623,1255.8 L757.64,1255.64 L758.429,1255.86 L763.662,1259.27 L771.102,1263.56 L772.836,1263.78 L774.822,1263.18 L776.303,1263.02 L778.447,1263.71 L781.632,1265.23 L783.491,1265.16 L787.022,1265.35 L787.937,1266.24 L787.999,1269.07 L787.6,1273.47 L789.238,1273.68 L789.754,1273.78 L793.327,1274.49 L795.394,1274.9 L800.092,1275.83 L805.001,1276.81 L817.296,1279.21 L829.966,1281.29 L836.263,1281.82 L841.443,1281.9 L844.551,1281.95 L847.23,1281.85 L850.507,1281.73 L850.98,1281.71 L853.297,1281.63 L856.402,1281.39 L858.895,1281.2 L863.13,1280.99 L864.16,1280.94 L868.927,1280.63 L871.041,1280.73 L873.773,1281.29 L877.125,1282.1 L879.069,1282.82 L880.03,1283.21 L880.846,1283.79 L882.479,1285.41 L882.659,1285.59 L883.772,1286.72 L884.514,1287.34 L885.381,1287.97 L885.463,1288.03 L887.217,1289.67 L890.084,1286.63 L893.847,1283.39 L899.679,1278.36 L907.035,1271.27 L915.114,1265.74 L916.332,1264.25 L917.181,1260.54 L915.438,1247.02 L918.38,1247.02 L920.06,1247.06 L920.847,1247.09 L924.012,1247.05 L927.204,1246.93 L929.888,1246.57 L932.386,1246.02 L933.836,1245.73 L935.177,1245.66 L937.537,1245.72 L939.442,1245.57 L940.676,1245.42 L941.402,1245.15 L942.747,1244.43 L943.769,1243.87 L944.873,1243.18 L945.573,1242.75 L946.109,1242.64 L947.262,1242.73 L949.218,1243.01 L950.586,1243.13 L951.149,1243.05 L951.768,1242.86 L952.33,1242.92 L953.187,1243.09 L953.979,1243.11 L955.494,1243.16 L957.639,1243.22 L959.356,1243.18 L960.966,1243.03 L962.791,1242.63 L965.315,1242.27 L966.658,1241.84 L969.024,1240.78 L970.505,1239.81 L972.011,1239.09 L973.059,1238.7 L973.596,1238.7 L974.212,1238.84 L975.229,1239.17 L976.354,1239.34 L978.044,1239.48 L979.597,1239.7 L980.361,1239.83 L981.023,1240.16 L981.746,1240.46 L982.71,1240.69 L984.098,1240.66 L985.928,1240.69 L986.873,1240.78 L987.636,1241.02 L988.418,1241.37 L989.784,1241.7 L991.734,1242 L993.22,1242.41 L994.828,1242.66 L995.874,1242.67 L996.901,1242.45 L999.44,1241.66 L1000.73,1241.16 L1004.66,1239.28 L1010.78,1236.1 L1014.77,1234.76 L1018.29,1233.57 L1019.12,1233.19 L1021.56,1232.09 L1026.34,1229.75 L1027.53,1229.11 L1028.2,1228.63 L1030.72,1226.58 L1032.38,1225.19 L1034.5,1223.48 L1036.58,1222.06 L1039.15,1220.11 L1041.61,1218.22 L1044.06,1216.49 L1048.02,1213.97 L1049.1,1213.41 L1050.19,1213.07 L1053.9,1212.44 L1056.94,1212.11 L1058.53,1211.84 L1060.96,1211.47 L1064.77,1210.82 L1067.57,1210.23 L1069.48,1209.74 L1071.86,1208.98 L1074.7,1207.99 L1076.64,1207.17 L1076.98,1206.91 L1077.27,1206.59 L1077.75,1206.18 L1078.7,1205.64 L1081.97,1204.08 L1084.02,1203.06 L1085.54,1202.2 L1086.63,1201.64 L1087.42,1201.3 L1086.64,1199.71 L1086.2,1198.9 L1085.82,1198.34 L1085.48,1198.02 L1084.99,1197.69 L1084.01,1197.12 L1082.93,1196.48 L1081.67,1195.74 L1080.9,1195.23 L1080.5,1194.9 L1080.09,1194.37 L1079.36,1193.06 L1078.84,1191.88 L1078.57,1190.9 L1078.45,1190.17 L1078.47,1189.63 L1078.61,1188.96 L1078.83,1188.5 L1079.52,1187.06 L1080.23,1185.42 L1080.52,1184.15 L1080.71,1183.09 L1080.85,1181.62 L1081,1179.84 L1081.14,1178.98 L1081.37,1178.52 L1081.66,1178.11 L1082.05,1177.9 L1083.04,1177.68 L1083.52,1177.47 L1083.96,1177.16 L1084.31,1176.69 L1084.55,1176.23 L1084.74,1175.61 L1084.88,1174.93 L1084.91,1173.94 L1084.7,1172.41 L1084.52,1171.19 L1084.33,1170.53 L1084.1,1170.14 L1083.83,1169.67 L1083.68,1169.07 L1083.38,1167.48 L1083.03,1166.19 L1082.62,1164.62 L1082.56,1163.38 L1082.68,1161.65 L1083,1159.1 L1083.15,1157.66 L1083.08,1157 L1083.01,1156.41 L1082.64,1155.58 L1082.29,1154.67 L1082.17,1154.37 L1081.67,1152.51 L1081.03,1149.89 L1080.87,1148.16 L1080.92,1146.16 L1081.07,1143.71 L1080.97,1142.02 L1080.78,1140.06 L1080.65,1138.06 L1080.58,1137.14 L1080.49,1136.16 L1080.23,1134.85 L1079.96,1133.71 L1079.93,1132.71 L1080.18,1131.23 L1080.6,1128.85 L1080.72,1127.16 L1080.52,1124.89 L1080.03,1121.3 L1079.14,1115.98 L1078.41,1111.7 L1078.16,1110.88 L1078.4,1110.33 L1084.71,1107.93 L1086.36,1107.37 L1086.47,1107.03 L1085.69,1104.74 L1084.08,1100.4 L1083.97,1099.26 L1083.81,1098.35 L1081.8,1091.84 L1080.76,1086.48 L1080.42,1086.19 L1080.08,1086.19 L1078.89,1086.52 L1078.61,1086.29 L1078.47,1081.11 L1078.15,1076.83 L1078.63,1073.25 L1078.87,1070.06 L1078.88,1069.54 L1079.16,1069.55 L1080.97,1069.61 L1083.24,1068.71 L1085.12,1067.36 L1089.49,1065.05 L1093.29,1063.47 L1094.26,1063.19 L1099.87,1061.57 L1103.05,1060.11 L1105.95,1058.36 L1105.95,1058.08 L1101.05,1053.72 L1099.08,1051.37 L1097.52,1047.43 L1097.31,1044.35 L1096.7,1042.24 L1095.92,1040.92 L1094.23,1039.37 L1093.1,1038.91 L1092.19,1038.91 L1089.41,1039 L1088.28,1038.77 L1087.83,1038.08 L1085.41,1026.67 L1085.87,1025.88 L1086.21,1024.91 L1086.05,1023.66 L1085.33,1020.97 L1089.74,1021.17 L1088.91,1018.83 L1086.15,1015.28 L1088.94,1013.07 L1086.03,1007.7 L1085.11,1006.19 L1081.03,999.464 L1076.77,992.087 L1068.44,977.636 L1068.23,976.275 L1068.36,973.556 L1069.4,968.236 L1070.05,963.651 L1071.21,956.973 L1071.96,943.663 L1068.03,942.337 L1064.77,941.128 L1060.95,939.576 L1058.42,938.428 L1056.68,938.191 L1054.88,938.067 L1053.13,938.738 L1051.32,939.633 L1049.45,942.058 L1045.48,947.645 L1044,950.072 L1042.7,951.254 L1040.72,952.716 L1039.14,953.217 L1037.45,953.433 L1035.16,953.717 L1032.86,953.838 L1029.42,954.056 L1027.03,954.249 L1025.75,954.338 L1024.94,954.393 L1022.69,954.562 L1018.6,954.855 L1017.71,954.88 L1015.64,955.042 L1014.78,955.045 L1013.89,954.982 L1012.96,954.885 L1012.18,954.782 L1011.3,954.636 L1010.4,954.416 L1009.39,954.146 L1008.52,953.894 L1007.47,953.475 L1006.77,953.174 L1005.08,952.279 L1003.84,951.596 L1001.93,950.611 L999.798,949.508 L998.881,948.975 L998.301,948.575 L997.542,947.802 L996.769,946.841 L996.566,946.501 L996.265,945.97 L996.054,945.498 L995.926,945.06 L995.766,944.358 L995.63,943.647 L995.577,943.002 L995.564,942.325 L995.661,941.055 L995.746,939.164 L995.922,936.393 L996.114,935.029 L996.497,932.778 L997.037,930.172 L997.668,927.277 L998.317,924.391 L998.639,922.932 L998.048,922.804 L997.181,922.799 L996.62,922.778 L996.201,922.714 L995.971,922.617 L995.774,922.549 L995.812,922.392 L995.93,920.402 L995.332,917.783 L993.75,914.566 L992.167,912.35 L990.514,910.579 L986.598,907.926 L983.813,905.207 L982.353,903.363 L981.436,902.668 L977.965,900.24 L975.314,898.54 L973.101,896.65 L971.658,895.191 L970.854,893.945 L969.811,891.448 L968.644,889.576 L967.94,888.17 L967.338,885.993 L966.506,882.993 L965.766,881.014 L965.01,878.669 L963.926,876.33 L963.34,874.997 L961.221,871.913 L960.369,869.996 L960.06,869.002 L959.958,868.482 L959.768,867.511 L958.888,864.29 L958.243,860.697 L957.775,858.637 L955.835,853.929 L954.205,848.93 L953.58,841.879 L953.596,841.439 L953.615,840.873 L953.732,837.459 L953.498,835.339 L953.016,832.686 L952.383,829.672 L952.193,828.875 L952.15,828.694 L952.025,828.172 L951.9,827.649 L951.054,824.105 L950.564,822.898 L949.259,820.931 L948.61,820.054 L947.424,818.885 L945.098,817.178 L940.759,814.576 L936.42,812.766 L930.763,811.576 L927.65,811.523 L918.609,811.979 L916.893,812.29 L909.423,814.737 L904.2,815.686 L902.118,816.362 L897.771,818.426 L894.256,820.945 L891.014,824.417 L888.147,827.996 L884.805,833.566 L882.503,836.269 L879.526,838.826 L876.878,840.396 L874.796,840.78 L871.691,841.292 L870.506,841.258 L869.695,841.234 L869.134,841.218 L865.3,839.94 L862.085,838.205 L860.295,836.506 L859.071,834.134 L857.282,828.289 L855.866,826.041 L854.031,824.417 L843.903,818.494 L843.354,818.172 L832.809,812.071 L826.636,806.885 L825.394,805.095 L824.92,803.414 L824.956,801.515 L825.404,797.258 L825.394,795.233 L825.696,793.496 L826.426,792.144 L830.362,785.845 L831.641,782.558 L833.147,778.885 L833.622,775.05 L834.17,771.215 L834.088,769.628 L833.987,766.966 L833.666,765.207 L833.167,764.744 L832.147,764.282 L829.979,761.559 L827.705,759.855 L824.518,758.414 L822.509,758.268 L821.048,758.707 L819.321,760.015 L817.984,761.188 L816.08,762.834 L813.377,765.756 L808.702,773.025 L807.971,773.609 L806.802,773.902 L794.055,773.609 L789.379,773.098 L782.914,771.856 L778.97,769.993 L777.253,768.642 L775.509,766.247 L774.559,764.019 L774.66,762.14 L775.134,760.606 L776.778,758.341 L782.558,754.084 L784.083,753.228 L789.489,751.365 L790.052,750.981 L791.675,749.85 L791.857,749.72 L793.617,749.246 L796.831,746.799 L797.635,745.447 L798.401,739.055 L798.036,737.083 L794.32,730.086 L793.151,728.589 L791.315,726.965 L779.152,722.326 L771.555,719.039 L769.29,718.6 L766.551,718.6 L763.373,719.404 L760.633,720.208 L760.049,720.829 L759.683,722.217 L759.574,724.81 L760.122,733.759 L759.647,736.316 L759.109,737.572 L758.86,738.155 L758.703,738.521 L758.373,738.965 L757.831,740.101 L757.618,740.849 L757.169,741.236 L756.154,741.74 L754.869,742.303 L753.466,742.835 L751.17,743.331 L749.082,743.859 L747.055,744.087 L745.027,744.436 L742.909,745.113 L739.449,745.843 L738.973,745.72 L738.766,745.479 L738.622,744.639 L738.537,743.74 L738.275,742.659 L737.891,742.027 L736.828,740.493 L735.469,738.507 L733.75,736.818 L732.327,735.551 L731.259,734.856 L730.337,734.581 L728.795,733.253 L728.116,732.26 L727.141,730.756 L726.165,729.461 L725.372,727.359 L724.604,726.275 L722.074,724.723 L717.052,722.836 L714.499,721.901 L712.494,721.231 L710.659,720.617 L707.292,719.711 L706.98,719.64 L703.519,718.838 L701.014,718.397 L699.032,718.182 L696.627,717.964 L693.561,717.81 L690.647,717.777 L687.427,717.827 L682.141,717.832 L678.413,717.862 L673.228,717.901 L667.5,717.92 L663.28,717.965 L657.977,717.969 L653.486,718.012 L648.143,718.012 L649.513,716.022 L659.401,702.547 L653.943,695.566 L641.829,680.125 L637.517,674.509 L637.309,674.24 L636.608,674.669 L629.907,663.06 L634.142,659.314 L634.482,659.125 L643.616,659.465 L644.421,646.558 L636.862,646.081 L637.299,634.093 L636.571,634.063 L636.645,620.756 L619.357,620.308 L619.806,607.395 L618.927,607.386 L612.862,607.322 L612.861,607.154 L612.582,581.792 L612.579,581.525 L720.423,610.649 L720.117,623.341 L734.498,623.66 L734.46,613.123 L734.452,610.846 L762.839,620.618 L765.098,621.136 L772.053,620.419 L790.632,617.677 L795.684,616.667 L806.857,612.492 L810.998,610.455 L819.081,604.637 L834.522,593.075 L839.428,589.28 L843.55,585.359 L849.07,579.505 L852.734,575.399 L857.075,571.541 L859.195,569.915 L862.294,567.521 L862.423,566.663 L865.467,559.705 L867.188,550.737 L869.474,546.131 L870.423,545.674 L880.585,546.518 L883.257,547.291 L884.699,546.728 L889.973,541.806 L890.5,540.189 L889.587,531.75 L889.797,529.675 L890.923,526.581 L892.991,523.207 L894.217,519.291 L895.363,516.787 L897.895,514.388 L898.561,513.056 L898.534,511.244 L898.055,510.151 L896.493,508.202 L895.969,507.661 L894.528,506.268 L893.557,505.115 L893.162,504.529 L892.768,503.817 L892.339,502.775 L892.016,502.245 L891.765,501.897 L891.351,501.512 L891.153,501.202 L891.083,500.874 L891.031,500.326 L891.083,497.703 L891.056,492.802 L890.767,479.05 L890.837,478.281 L906.433,477.371 L922.012,470.994 L974.632,447.178 L983.607,442.401 L990.539,438.598 L991.623,438.008 L993.654,436.59 L994.621,436.257 L997.751,436.647 L999.689,435.603 L1002.3,432.584 L1007.38,429.538 L1009.79,428.573 L1011.53,427.181 L1012.75,426.493 L1020.13,435.212 L1027.94,443.096 L1030.35,444.151 L1033.16,444.097 L1035.67,442.529 L1036.84,440.014 L1038.89,438.716 L1040.65,438.473 L1048.11,439.311 L1049.55,439.23 L1063.17,434.579 L1066.82,433.064 L1069.8,432.605 L1074.04,431.037 L1085.81,429.433 L1088.03,428.892 L1088.95,429.298 L1090.76,431.84 L1092.79,433.287 L1098.27,434.586 L1100.89,435.205 L1121.8,440.158 L1123.62,429.566 L1128.51,412.355 L1130.44,400.868 L1131.49,396.171 L1130.77,387.27 L1121.41,369.543 L1115.28,365.797 L1106.56,357.028 L1104.21,354.2 L1109.81,347.195 L1110.81,345.924 L1111.3,345.314 L1113.08,343.54 L1115.24,341.399 L1117.42,339.561 L1119.74,337.898 L1119.84,337.825 L1122.12,336.425 L1123.13,335.589 L1123.7,334.785 L1124.04,333.912 L1124.08,333.071 L1123.95,332.33 L1123.59,331.722 L1122.89,331.011 L1122.02,330.164 L1121.39,329.319 L1121.06,328.476 L1120.93,327.667 L1120.81,326.421 L1120.65,325.31 L1120.52,324.434 L1120.31,323.707 L1120.29,323.625 L1119.93,322.714 L1119.5,321.774 L1118.97,320.622 L1118.87,319.611 L1119.15,318.603 L1119.86,317.228 L1120.26,316.692 L1120.48,316.51 L1121.47,315.689 L1122.41,315.022 L1123.42,314.556 L1124.46,314.293 L1125.26,314.09 L1125.63,313.997 L1126.47,313.632 L1127.07,313.13 L1128.05,311.994 L1128.45,311.523 L1129.66,310.252 L1130.64,309.349 L1132.05,308.482 L1133.96,307.181 L1135.11,306.279 L1136.08,305.443 L1136.86,304.505 L1137.25,303.846 L1138.21,302.225 L1139.8,299.171 L1140.71,297.73 L1141.45,296.96 L1142.89,295.958 L1145.34,295.031 L1149.36,294.078 L1150.26,293.769 L1151.6,293.171 L1152.75,292.521 L1153.61,291.87 L1154.44,291.016 L1155.63,289.863 L1156.99,288.734 L1158.07,288.059 L1159.38,287.613 L1160.44,287.341 L1161.54,287.247 L1162.84,287.432 L1164.4,287.693 L1166.09,287.975 L1167.53,288.217 L1169.18,288.403 L1170.46,288.36 L1172.85,288.097 L1175.58,287.86 L1176.91,287.868 L1177.79,288.026 L1178.74,288.435 L1180.39,289.328 L1180.94,289.559 L1181.44,289.688 L1181.82,289.664 L1182.12,289.515 L1182.37,289.289 L1182.53,288.861 L1182.66,287.852 L1182.89,286.364 L1183.03,285.954 L1183.4,284.878 L1183.99,283.878 L1184.26,283.419 L1185.45,282.139 L1186.23,281.715 L1186.88,281.592 L1187.81,281.749 L1188.61,282.082 L1190.49,283.153 L1191.92,283.894 L1192.66,284.277 L1194.24,284.993 L1195.59,285.405 L1196.89,285.59 L1198,285.748 L1200.05,286.012 L1201.13,286.322 L1202.16,286.808 L1202.88,287.014 L1203.58,287.043 L1204.41,286.896 L1205.79,286.627 L1207,286.458 L1208.4,286.365 L1209.38,286.169 L1210.49,285.822 L1210.94,285.59 L1211.6,285.248 L1213.08,284.399 L1213.68,284.021 L1215.25,283.024 L1216.35,282.374 L1217.56,281.825 L1218.52,281.533 L1220.75,280.835 L1224.52,279.823 L1228.77,278.712 L1232.51,277.775 L1234.76,277.163 L1236.54,276.629 L1236.66,276.593 L1237.64,276.328 L1239.35,275.941 L1240.41,275.663 L1240.81,275.51 L1241.2,275.27 L1241.7,274.791 L1241.97,274.464 L1242.61,273.518 L1242.88,273.129 L1244.06,271.501 L1244.99,270.28 L1245.28,269.998 L1245.7,269.728 L1246.17,269.583 L1247.24,269.452 L1248.91,269.201 L1249.72,269.047 L1250.2,268.887 L1250.42,268.814 L1250.52,268.78 L1251.15,268.499 L1251.67,268.173 L1251.94,267.89 L1251.98,267.826 L1252.16,267.563 L1252.3,267.319 L1252.67,266.702 L1253.02,266.33 L1253.49,266.037 L1254.01,265.802 L1254.5,265.68 L1254.81,265.602 L1255.84,265.39 L1257.33,265.083 L1259.84,264.644 L1261.73,264.269 L1262.7,264.104 L1263.05,264.024 L1263.3,263.916 L1263.62,263.764 L1263.92,263.602 L1264.08,263.558 L1264.2,263.558 L1264.32,263.613 L1264.48,263.768 L1264.63,263.942 L1264.73,264.015 L1264.89,264.053 L1265.04,264.045 L1265.16,263.991 L1265.27,263.892 L1265.85,262.923 L1266.6,261.528 L1267.4,259.951 L1268.35,257.994 L1268.74,257.238 L1269.29,256.182 L1269.83,255.113 L1270.01,254.706 L1270.25,254.107 L1270.35,253.84 L1270.65,253.065 L1271.21,251.732 L1271.76,250.563 L1271.91,250.309 L1272.11,250.056 L1272.29,249.921 L1272.55,249.814 L1274.2,249.469 L1275.25,249.212 L1276.25,248.927 L1277.03,248.686 L1277.42,248.562 L1277.88,248.41 L1279.28,247.882 L1280.62,247.326 L1282.42,246.592 L1284.86,245.762 L1287.29,245.028 L1287.87,244.853 L1288.66,244.615 L1290.81,243.965 L1293.12,243.343 L1295.43,242.789 L1297.37,242.312 L1299.63,241.656 L1301.37,241.156 L1302.46,240.798 L1302.9,240.574 L1303.14,240.371 L1303.25,240.156 L1303.32,239.872 L1303.33,239.554 L1303.23,238.77 L1303.05,237.587 L1302.89,236.223 L1302.82,235.326 L1302.8,234.905 L1302.84,234.485 L1303,233.861 L1303.41,232.988 L1304.05,231.879 L1304.56,231.213 L1305.48,230.139 L1306.46,229.156 L1307.89,227.825 L1309.2,226.753 L1309.99,226.247 L1311.56,225.575 L1312.86,225.049 L1314.98,224.028 L1317.04,223.052 L1318.89,222.12 L1320.37,221.232 L1321.22,220.635 L1321.92,220.026 L1323.09,219.124 L1324.21,218.279 L1325.63,217.163 L1327.18,215.9 L1329.13,214.424 L1330.31,213.488 L1330.64,213.161 L1331.17,212.62 L1331.5,212.167 L1331.95,211.507 L1332.25,211.109 L1332.86,210.522 L1333.86,209.664 L1334.34,209.295 L1334.69,209.051 L1335.36,208.647 L1336.02,208.178 L1337.36,207.096 L1339.18,205.525 L1340.86,204.054 L1342.55,202.638 L1343.9,201.565 L1345.49,200.384 L1347.32,199.105 L1348.52,198.284 L1349.93,197.448 L1351.46,196.376 L1352.88,195.33 L1353.55,194.836 L1354.91,193.825 L1356.43,192.68 L1357.77,191.606 L1359.22,190.416 L1359.82,189.91 L1360.71,189.089 L1361.91,188.033 L1363.33,186.851 L1365.4,185.182 L1367.21,183.749 L1368.85,182.459 L1371.51,180.43 L1373.64,178.908 L1375.48,177.547 L1376.97,176.356 L1378.39,175.319 L1380.56,173.706 L1382.52,172.218 L1384.28,170.875 L1385.8,169.648 L1387.07,168.602 L1389.01,167.042 L1390.68,165.707 L1392.97,163.958 L1395.09,162.371 L1396.89,160.955 L1399.09,159.251 L1400.86,157.871 L1402.77,156.338 L1404.81,154.715 L1406.64,153.226 L1406.69,153.184 L1407.7,152.444 L1408.16,152.104 L1408.6,151.783 L1409.17,151.362 L1409.63,151.001 L1410.28,150.4 L1411.23,149.476 L1412.23,148.554 L1413.32,147.712 L1414.9,146.449 L1416.77,144.906 L1420.12,142.2 L1423.59,139.394 L1425.83,137.558 L1426.43,137.069 L1428.99,134.984 L1431.66,132.819 L1432.63,131.916 L1433.38,131.137 L1434.03,130.309 L1434.8,129.142 L1435.36,128.479 L1437.18,127.057 L1440.57,124.27 L1441.26,123.674 L1451.42,114.586 L1453.06,113.037 L1456.63,109.403 L1459.64,106.272 L1463.34,102.437 L1466.55,98.963 L1469.54,95.7899 L1471.82,93.5421 L1473.84,91.9587 L1475.99,90.2963 L1478.82,88.0718 L1481.74,85.6865 L1484.43,83.481 L1485.5,82.5585 L1486.85,81.3955 L1489.25,79.1082 L1492.5,76.3208 L1493.91,75.0661 L1494.98,74.1146 L1496.73,72.752 L1499.66,70.7306 L1502.86,68.6126 L1503.59,68.1294 L1506.65,66.1285 L1508.89,64.6678 L1510.72,63.4674 L1512.49,62.1654 L1514.25,60.7829 L1515.44,59.8209 L1516.84,58.6882 L1517.62,58.2241 L1520.07,56.3628 L1525.04,52.7071 L1527.68,50.7915 L1528.82,49.9599 L1529.86,49.2074 L1535.28,45.3091 L1537.2,43.9803 L1537.58,43.7814 L1537.91,43.7835 L1538.11,43.9189 L1539.29,46.6294 L1543.28,55.613 L1545.9,61.4156 L1546.56,62.7155 L1546.98,63.3214 L1547.11,63.6571 L1547.2,64.1042 L1546.99,65.4436 L1545.91,71.6919 L1545.59,73.2873 L1540.8,100.72 L1536.67,126.25 L1534.47,138.773 L1530.22,162.786 L1528.82,171.334 L1527.87,177.098 L1527.72,179.232 L1527.84,182.195 L1528.24,184.952 L1530.65,192.544 L1532.61,197.722 L1538.08,211.696 L1568.31,226.411 L1593.02,239.036 L1607.18,249.29 L1611.92,252.362 L1621.77,257.312 L1629.11,260.338 L1636.31,263.303 L1640.87,265.395 L1647.97,268.649 L1657.19,272.873 L1668.76,278.842 L1676.06,282.6 L1682.73,287.363 L1701.4,302.145 L1719.57,315.914 L1733.93,326.149 L1738.41,329.349 L1750.92,337.922 L1787.44,365.032 L1793.2,369.314 L1793.65,369.647 L1876.06,430.843 L1877.2,431.688 L1883.07,436.05 L1910.98,456.774 L1918.71,462.512 L1938.45,477.173 L2004.44,523.411 L2013.25,529.586 L2014.37,528.472 L2016.37,526.493 L2018.37,524.468 L2020.2,522.72 L2022.08,520.874 L2022.31,520.649 L2034.07,462.938 L2160.45,502.763 L2164.96,504.185 L2166.94,506.414 L2170.53,510.55 L2175.07,515.824 L2179.09,520.436 L2182.19,524.055 L2185.52,527.902 L2189.07,531.977 L2192.72,536.237 L2197.57,541.739 L2200.81,545.442 L2203.16,548.159 L2204.91,550.178 L2208.91,554.687 L2212.9,559.464 L2217.28,564.531 L2220.36,568.15 L2223.29,571.521 L2227,575.72 L2230.93,580.229 L2235.21,585.193 L2239.84,590.508 L2243.73,595.12 L2246.65,598.552 L2251.23,603.847 L2254.54,607.632 L2259.02,612.72 L2262.57,616.836 L2265.21,619.938 L2269.2,624.612 L2273.46,629.575 L2278,634.787 L2281.41,638.717 L2286.28,644.363 L2289.91,648.438 L2294.45,653.712 L2298.12,657.93 L2302.3,662.77 L2306.17,667.381 L2307.29,668.882 L2308.47,670.541 L2309.14,671.465 L2310.26,673.05 L2311.28,674.723 L2312.39,676.704 L2313.35,678.607 L2314.76,681.547 L2315.7,683.758 L2316.61,686.186 L2317.44,688.659 L2318.24,691.378 L2318.97,694.236 L2319.56,697.17 L2320.02,700.072 L2320.19,701.893 L2320.34,704.254 L2320.4,707.138 L2320.4,709.806 L2320.34,712.041 L2320.27,713.382 L2320.12,714.707 L2319.75,717.28 L2319.32,719.96 L2318.83,722.302 L2318.29,724.472 L2317.55,727.366 L2316.68,730.044 L2315.63,732.92 L2314.8,735.151 L2313.74,738.166 L2312.68,740.997 L2311.74,743.735 L2310.51,747.151 L2309.31,750.535 L2307.9,754.288 L2306.62,757.888 L2305.22,761.965 L2304.05,765.18 L2302.49,769.41 L2301.46,772.241 L2300.01,776.318 L2298.69,779.902 L2297.35,783.532 L2296.26,786.562 L2294.96,790.177 L2293.48,794.192 L2292.45,797.023 L2290.94,801.376 L2289.75,804.653 L2288.72,807.468 L2287.24,811.637 L2285.77,815.622 L2284.6,818.836 L2283.63,821.559 L2282.43,824.743 L2280.85,829.22 L2279.4,833.219 L2278.19,836.573 L2276.91,839.956 L2275.75,843.248 L2274.5,846.833 L2273.33,850.11 L2272.07,853.524 L2270.88,856.678 L2269.79,859.662 L2268.23,863.753 L2267.09,866.845 L2266.12,869.537 L2265.1,872.275 L2264.29,874.511 L2263.91,875.526 L2263.83,875.676 L2263.73,875.791 L2263.57,875.859 L2263.37,875.823 L2262.81,875.738 L2262.1,875.687 L2261.18,875.728 L2259.92,875.858 L2257.83,876.156 L2256.13,876.376 L2254.66,876.552 L2253.95,876.616 L2253.2,876.612 L2252.38,876.525 L2251.34,876.252 L2249.59,875.662 L2247.09,874.917 L2244.17,874.077 L2242.05,873.357 L2239.78,872.605 L2237.58,871.994 L2235.34,871.569 L2232.42,871.117 L2228.13,870.554 L2221.74,869.977 L2217.61,869.555 L2215.12,869.377 L2214.34,869.32 L2212.88,869.218 L2211.95,869.142 L2210.76,869.007 L2210.06,868.899 L2209.64,868.783 L2209.49,868.728 L2209.27,868.597 L2209.18,868.53 L2209.1,868.466 L2208.77,868.199 L2208.4,867.992 L2207.95,867.866 L2207.45,867.781 L2204.72,867.866 L2204.09,867.82 L2201,867.165 L2196.61,866.091 L2195.79,866.004 L2195.12,866 L2193.94,866.114 L2192.56,866.331 L2190.82,866.77 L2187.97,867.447 L2187.42,867.526 L2186.6,867.479 L2185.75,867.494 L2185,867.633 L2181.47,868.408 L2180.73,868.551 L2179.97,868.632 L2178.4,868.633 L2176.61,868.74 L2175.09,868.927 L2174.4,869.127 L2173.57,869.501 L2172.67,869.983 L2172.12,870.182 L2171,870.32 L2169.57,870.506 L2168.45,870.79 L2167.41,870.988 L2166.55,871.108 L2166.32,871.165 L2166.15,871.207 L2166.21,871.418 L2166.28,871.928 L2166.35,872.693 L2166.58,878.496 L2166.78,883.583 L2167.27,892.435 L2168.3,906.06 L2168.54,914.728 L2168.64,915.566 L2168.96,916.187 L2167.22,916.904 L2165.1,917.758 L2153.22,920.378 L2148.97,921.711 L2148.21,921.951 L2159.15,942.292 L2165.6,959.006 L2170.53,970.326 L2175.14,979.039 L2179.92,986.537 L2183.11,991.492 L2184.19,993.164 L2185.16,995.765 L2186.4,999.083 L2188.09,1003.96 L2190.27,1014.04 L2191.83,1027.82 L2192.06,1029.86 L2192.44,1032.9 L2194.78,1052 L2195.79,1056.7 L2199.47,1075.42 L2199.73,1077.72 L2199.66,1078.18 L2199.1,1078.66 L2198.15,1078.83 L2196.66,1078.97 L2192.39,1079.09 L2191.33,1079.24 L2191,1079.36 L2190.6,1079.83 L2190.57,1080.37 L2191.14,1082.53 L2193.23,1089.17 L2193.27,1089.3 L2193.97,1092.51 L2193.84,1093.29 L2193.61,1093.38 L2189.75,1094.82 L2189.48,1095.25 L2191.71,1109.65 L2191.83,1111.23 L2192.13,1112.49 L2192.03,1114.91 L2191.48,1114.98 L2190.76,1115.18 L2190.51,1115.65 L2190.45,1115.85 L2190.34,1116.71 L2190.37,1118.95 L2190.26,1122 L2190.25,1123.31 L2190.14,1125.85 L2190.1,1126.77 L2190.16,1127.46 L2190.59,1129.06 L2191.04,1131.3 L2191.78,1135.35 L2192.42,1139.56 L2192.8,1142.71 L2193.08,1146.15 L2193.28,1148.24 L2193.35,1149.4 L2193.3,1151.36 L2193.53,1152.97 L2193.84,1153.94 L2193.94,1154.88 L2193.99,1156.49 L2195.62,1172.43 L2196.26,1180.25 L2196.04,1192.34 L2195.45,1197.12 L2193.83,1202.13 L2189.79,1221.05 L2186.23,1242.68 L2185.17,1257.79 L2184.88,1261.87 L2184.29,1266.33 L2182.31,1281.29 L2181.71,1297.39 L2181.12,1298.81 L2180.68,1299.73 L2177.99,1303.36 L2174.68,1306.54 L2172.91,1308.12 L2166.86,1312.52 L2164.62,1313.71 L2157.28,1317.63 L2144.39,1322.57 L2119.75,1331.12 L2118.69,1331.49 L2082.12,1346.25 L2058.2,1357.44 L2046.63,1363.1 L2030.71,1370.87 L2014.09,1378.11 L1992.32,1386.97 L1991.83,1387.17 L1991.8,1387.84 L1991.78,1388.09 L1991.65,1388.91 L1991.15,1390.06 L1987.32,1396.76 L1984.33,1403.12 L1983.65,1404.82 L1983.36,1405.52 L1982.87,1407.63 L1983.32,1412.26 L1983.87,1415.23 L1984.12,1416.57 L1984.24,1417.27 L1984.89,1419.35 L1986.78,1425.38 L1993.56,1443.37 L1996.71,1440.32 L2000.64,1450.31 L2001.5,1453.35 L2001.61,1455.06 L2001.59,1456.1 L2001.41,1462.31 L2001.4,1462.61 L2001.26,1464.6 L2001.27,1466.32 L2001.33,1468 L2001.37,1469.16 L2001.82,1474.32 L2001.9,1475.27 L2002.12,1477.03 L2002.25,1477.81 L2002.48,1478.77 L2002.97,1480.25 L2003,1480.33 L2003.13,1480.68 L2003.4,1481.47 L2003.53,1481.86 L2003.59,1482.23 L2003.56,1482.4 L2003.55,1482.63 L2003.5,1483.45 L2003.3,1484.47 L2002.83,1487.04 L2002.73,1487.8 L2002.72,1487.9 L2002.71,1488.07 L2002.71,1488.64 L2002.69,1488.86 L2002.68,1489.14 L2002.75,1489.72 L2002.89,1490.65 L2003.01,1491.58 L2003.09,1492.89 L2003.11,1494.95 L2003.13,1498.09 L2003.07,1498.35 L2002.77,1498.43 L2001.71,1498.64 L2000.68,1498.72 L2000.06,1498.77 L1999.82,1498.86 L1999.6,1498.94 L1999.42,1499.05 L1999.31,1499.19 L1999.18,1499.37 L1999.04,1499.68 L1998.87,1500.26 L1998.8,1500.52 L1998.62,1501.8 L1998.58,1502.04 L1998.44,1502.69 L1998.33,1503.03 L1997.83,1504.6 L1997.5,1505.46 L1996.99,1506.83 L1996.6,1508.17 L1996.16,1509.94 L1995.45,1511.97 L1997.41,1512.61 L2000.45,1513.38 L2000.63,1513.42 L2000.78,1513.5 L2000.89,1513.68 L2000.93,1513.84 L2000.97,1514.06 L2000.64,1517.82 L2000.55,1518.81 L2000.43,1519.35 L2000.6,1519.82 L2001.77,1523 L2001.88,1523.18 L2001.93,1523.46 L2002.05,1523.96 L2002.12,1524.38 L2002.18,1524.7 L2002.23,1525.23 L2002.28,1525.78 L2002.3,1526.2 L2002.3,1526.45 L2002.32,1527.14 L2002.37,1527.84 L2002.41,1528.44 L2002.47,1529.09 L2002.5,1529.99 L2002.49,1530.99 L2002.48,1531.57 L2002.58,1532.6 L2002.72,1533.35 L2002.84,1534.46 L2002.9,1535.28 L2002.87,1535.73 L2002.85,1536.36 L2002.86,1537.13 L2002.84,1537.83 L2002.81,1538.04 L2002.76,1538.41 L2002.69,1538.77 L2002.62,1539.06 L2002.53,1539.33 L2002.39,1539.68 L2002.2,1540.02 L2001.86,1540.55 L2001.52,1541.16 L2001.21,1541.86 L2000.93,1542.51 L2000.87,1542.69 L2000.61,1543.4 L2000.5,1543.84 L2000.44,1544.1 L1999.97,1546.23 L1999.74,1547.16 L1999.52,1547.92 L1999.18,1549.04 L1999.07,1549.35 L1998.88,1549.86 L1998.72,1550.3 L1998.35,1551.13 L1997.96,1551.83 L1997.5,1552.54 L1997.24,1552.86 L1996.97,1553.18 L1996.71,1553.41 L1996.46,1553.63 L1998,1555.7 L1998.22,1556.09 L1998.42,1556.54 L1998.53,1556.95 L1998.66,1557.82 L1998.67,1558.31 L1998.67,1559.15 L1998.6,1559.98 L1998.55,1560.16 L1998.38,1560.72 L1998.04,1561.34 L1997.51,1562.42 L1997.2,1563.35 L1997.13,1564.27 L1997.3,1565.91 L1997.41,1567.86 L1997.44,1568.85 L1997.55,1570.12 L1997.57,1572.75 L1998.04,1572.93 L1998.41,1572.99 L1999.18,1573.03 L2000.32,1572.97 L2003.68,1572.54 L2004.62,1572.42 L2004.87,1572.42 L2005.8,1572.43 L2007.08,1572.54 L2007.5,1572.63 L2007.76,1572.68 L2008.62,1572.86 L2009.12,1573.04 L2009.93,1573.33 L2010.96,1573.79 L2011.72,1574.21 L2012.72,1574.95 L2012.9,1575.1 L2013.42,1575.68 L2014.03,1576.56 L2014.85,1578.01 L2015.58,1579.59 L2015.91,1580.54 L2016.23,1581.61 L2016.58,1583.33 L2016.79,1584.63 L2016.86,1585 L2017.34,1589.17 L2017.62,1591.51 L2017.83,1593.32 L2017.82,1595.18 L2017.71,1596 L2017.53,1597.32 L2017.49,1597.55 L2017.3,1598.3 L2016.6,1601.01 L2013.98,1609.41 L2014.88,1613.06 L2015.96,1617 L2017.32,1619.2 L2018.23,1620.1 L2018.85,1620.59 L2022.63,1623.54 L2025.42,1625.61 L2026.6,1627.59 L2027.52,1629.48 L2028.02,1631.79 L2028.8,1642.53 L2029.27,1644.5 L2035.59,1658.98 L2042.11,1673.94 L2041.46,1674.38 L2039.04,1675.66 L2038.33,1676.09 L2036.61,1677.15 L2033.55,1679.24 L2030.27,1680.29 L2029.35,1680.68 L2030.43,1682.39 L2033.25,1686.66 L2033.72,1687.43 L2033.8,1687.79 L2033.8,1688.11 L2033.74,1688.5 L2033.16,1688.83 L2033.01,1689.24 L2032.95,1689.64 L2033.01,1690.43 L2033.21,1692.15 L2033.22,1693.98 L2033,1694.74 L2032.8,1695.51 L2032.65,1696.8 L2032.41,1697.59 L2031.98,1698.46 L2030.81,1699.83 L2030.43,1700.17 L2030.43,1700.53 L2031.08,1701.99 L2032.19,1704.11 L2034.1,1707.96 L2036.75,1712.84 L2053.12,1735.93 L2053.93,1735.47 L2054.18,1735.38 L2054.54,1735.34 L2055,1735.33 L2055.46,1735.35 L2055.89,1735.36 L2056.29,1735.31 L2056.67,1735.25 L2057.41,1735.08 L2060.52,1734.17 L2062.14,1733.63 L2062.69,1733.43 L2063.18,1733.18 L2064.9,1732.23 L2065.4,1731.92 L2065.68,1731.68 L2066.2,1731.18 L2067.87,1729.63 L2068.25,1729.32 L2068.56,1729.1 L2068.9,1728.84 L2069.2,1728.65 L2069.48,1728.49 L2069.75,1728.39 L2069.89,1728.34 L2070.12,1728.28 L2070.43,1728.25 L2070.73,1728.23 L2071.05,1728.24 L2071.4,1728.27 L2071.65,1728.3 L2071.96,1728.35 L2072.7,1728.52 L2073.23,1728.64 L2073.49,1728.66 L2073.71,1728.66 L2073.92,1728.64 L2074.11,1728.6 L2074.31,1728.5 L2074.43,1728.41 L2074.51,1728.29 L2074.59,1728.15 L2074.67,1727.98 L2074.74,1727.79 L2074.81,1727.51 L2074.99,1726.42 L2075.13,1725.8 L2075.21,1725.46 L2075.29,1725.27 L2075.41,1725.09 L2075.53,1724.95 L2075.69,1724.78 L2075.81,1724.68 L2075.86,1724.63 L2076.02,1724.56 L2076.08,1724.52 L2076.28,1724.44 L2076.48,1724.39 L2076.69,1724.34 L2076.98,1724.31 L2077.23,1724.29 L2077.43,1724.29 L2077.71,1724.3 L2077.95,1724.31 L2079.07,1724.34 L2079.5,1724.35 L2079.74,1724.35 L2080.12,1724.3 L2080.32,1724.25 L2080.68,1724.17 L2080.99,1724.07 L2081.59,1723.89 L2081.8,1723.81 L2082.11,1723.68 L2082.36,1723.56 L2083.42,1722.98 L2083.77,1722.76 L2084.65,1722.18 L2084.91,1721.99 L2085.24,1721.71 L2085.69,1721.32 L2085.9,1721.17 L2086.29,1720.94 L2086.67,1720.72 L2086.83,1720.65 L2087.44,1720.44 L2089.81,1725.55 L2092.8,1731.84 L2097.11,1737.79 L2099.02,1741.59 L2099.36,1741.44 L2099.78,1741.22 L2106.75,1737.71 L2107.79,1737.49 L2108.61,1737.42 L2109.48,1737.51 L2110.28,1737.6 L2112.91,1737.89 L2113.37,1737.94 L2114.48,1738.28 L2115.29,1738.73 L2116.4,1739.75 L2117.1,1740.95 L2117.71,1742.52 L2117.84,1742.83 L2118.2,1744.11 L2118.36,1745.63 L2118.37,1745.75 L2118.25,1747.18 L2117.72,1749.16 L2117.17,1750.54 L2112.71,1758.85 L2112.15,1759.6 L2111.44,1759.89 L2110.02,1760.07 L2108.61,1760.14 L2106.86,1760.09 L2106.78,1760.84 L2108.35,1768.28 L2108.63,1768.73 L2109.95,1769.1 L2113.53,1769.85 L2115.14,1770.11 L2116.43,1770.32 L2119.08,1770.66 L2120.89,1770.71 L2121.98,1770.72 L2123.55,1770.73 L2126.23,1770.55 L2127.17,1770.68 L2128.28,1771.02 L2129.67,1771.54 L2131.2,1772.19 L2132.59,1772.81 L2134.12,1773.52 L2135.78,1774.38 L2138.3,1775.67 L2139.84,1776.38 L2141.13,1776.75 L2142.31,1776.85 L2143.43,1776.83 L2144.42,1776.74 L2145.69,1776.57 L2146.79,1776.25 L2148.02,1775.52 L2148.99,1774.89 L2150.11,1774.03 L2150.95,1773.15 L2151.66,1772.25 L2152.37,1771.36 L2152.96,1770.61 L2153.62,1770 L2154.39,1769.48 L2155.58,1768.85 L2157.26,1768.04 L2158.44,1767.71 L2159.23,1767.58 L2160.07,1767.54 L2161.33,1767.55 L2163.01,1767.63 L2164.03,1767.79 L2164.7,1767.93 L2165.31,1768.21 L2165.86,1768.53 L2166.46,1769.11 L2167.45,1769.96 L2168.74,1771.15 L2169.95,1772.3 L2170.85,1773.03 L2172.27,1774.04 L2173.38,1774.69 L2175.07,1775.38 L2175.97,1775.62 L2176.95,1775.67 L2177.6,1775.65 L2178.44,1775.5 L2179.24,1775.29 L2179.85,1775.21 L2180.91,1775.26 L2183.06,1775.43 L2186.08,1775.76 L2187.04,1775.87 L2188.81,1776.09 L2189.96,1776.19 L2194.24,1776.42 L2195.82,1776.47 L2196.92,1776.64 L2198.32,1776.97 L2198.6,1777.14 L2198.6,1777.37 L2198.14,1779.31 L2197.61,1779.31 L2195.53,1779.4 L2193.48,1779.44 L2188.89,1779.31 L2187.37,1779.34 L2186.03,1779.36 L2185.23,1779.44 L2184.89,1779.48 L2184.51,1779.55 L2184.25,1779.64 L2184,1779.74 L2183.76,1779.92 L2183.57,1780.09 L2183.44,1780.25 L2183.29,1780.55 L2182.43,1782.82 L2180.33,1788.05 L2178.45,1792.93 L2176.94,1796.71 L2175.74,1799.41 L2175.62,1799.79 L2175.51,1800 L2175.31,1800.23 L2175.09,1800.48 L2174.81,1800.82 L2174.57,1801.14 L2174.34,1801.48 L2174.07,1801.95 L2173.79,1802.4 L2173.56,1802.86 L2173.32,1803.28 L2173.14,1803.54 L2173.02,1803.85 L2172.9,1804.2 L2172.76,1804.71 L2172.64,1805.22 L2172.52,1806.06 L2172.43,1806.65 L2172.37,1807.03 L2172.28,1807.33 L2172.08,1807.94 L2171.68,1808.91 L2170.41,1811.92 L2170.17,1812.42 L2170.07,1812.62 L2169.86,1812.78 L2169.54,1812.99 L2166.49,1814.38 L2165.56,1814.8 L2165,1815.04 L2164.71,1815.23 L2164.45,1815.59 L2164.1,1816.18 L2163.83,1816.38 L2160.6,1818.27 L2160.15,1818.51 L2166.47,1831.82 L2167.24,1834.01 L2168.36,1839.6 L2168.43,1841.04 L2168.42,1842.25 L2168.24,1843.41 L2168.05,1844.06 L2161.16,1844.63 L2161.11,1845.12 L2161.12,1846.77 L2161.19,1847.52 L2161.27,1848.36 L2161.21,1848.8 L2161.05,1849.61 L2160.98,1849.91 L2160.91,1850.22 L2160.87,1850.4 L2159.5,1854.91 L2159.33,1855.46 L2159.07,1856.27 L2158.83,1856.88 L2158.57,1857.34 L2158.25,1857.75 L2158.13,1857.91 L2157.8,1858.33 L2157.57,1858.68 L2157.5,1858.79 L2157.14,1859.3 L2156.92,1859.7 L2156.73,1860.08 L2156.57,1860.53 L2156.4,1861.11 L2156.24,1861.83 L2156.14,1862.56 L2156.1,1863.21 L2156.1,1863.78 L2156.13,1864.65 L2156.25,1867.86 L2156.33,1868.64 L2156.52,1870.16 L2156.54,1870.29 L2157.33,1876.65 L2157.81,1879.63 L2157.99,1880.54 L2158.29,1882.02 L2158.71,1883.77 L2158.97,1884.86 L2159.17,1885.7 L2159.49,1886.81 L2159.85,1888.11 L2160.09,1888.85 L2160.43,1889.68 L2161.04,1891.26 L2161.41,1892.09 L2161.66,1892.58 L2161.93,1892.97 L2162.19,1893.29 L2162.62,1893.72 L2163.03,1894.05 L2163.39,1894.29 L2163.53,1894.36 L2163.82,1894.52 L2164.81,1894.89 L2165.59,1895.18 L2166.14,1895.39 L2166.59,1895.6 L2167.13,1895.93 L2168.25,1896.68 L2168.99,1897.16 L2171.36,1898.67 L2171.7,1898.86 L2172.01,1899.02 L2172.37,1899.14 L2172.94,1899.27 L2173.59,1899.38 L2175.29,1899.53 L2178.79,1899.63 L2179.3,1899.64 L2179.8,1899.62 L2180.42,1899.54 L2180.49,1899.53 L2181.11,1899.41 L2181.54,1899.32 L2181.91,1899.29 L2182.28,1899.27 L2182.72,1899.29 L2183.27,1899.39 L2184.43,1899.7 L2185.3,1899.9 L2185.78,1899.93 L2186.35,1899.94 L2187.95,1899.95 L2189.7,1899.9 L2192.81,1899.81 L2196.86,1899.65 L2197.78,1899.67 L2199.77,1899.72 L2202.29,1899.75 L2203.13,1899.76 L2210.95,1899.87 L2211.4,1899.9 L2211.76,1899.93 L2212.33,1900.05 L2212.9,1900.17 L2214.4,1900.68 L2215.1,1900.91 L2215.71,1901.06 L2216.25,1901.12 L2216.76,1901.12 L2217.18,1901.09 L2217.69,1901.02 L2218.44,1900.85 L2220.76,1900.16 L2221.4,1899.96 L2224.02,1899.13 L2226.28,1898.47 L2227.67,1898.15 L2228.6,1898.01 L2229.42,1897.86 L2233.32,1897.14 L2233.68,1897.1 L2234.06,1897.11 L2234.51,1897.17 L2235.38,1897.35 L2236.72,1897.75 L2237.89,1898.17 L2238.98,1898.62 L2239.97,1899.1 L2240.58,1899.5 L2241.1,1899.86 L2241.72,1900.29 L2241.84,1900.41 L2242.04,1900.61 L2242.28,1900.86 L2242.96,1901.65 L2243.08,1901.8 L2243.73,1902.58 L2244.51,1903.59 L2244.86,1904.11 L2244.96,1904.3 L2245.02,1904.43 L2245.18,1904.73 L2245.62,1905.67 L2246.68,1907.87 L2247.16,1908.92 L2247.5,1909.58 L2247.77,1910.09 L2248.01,1910.64 L2248.15,1911.06 L2248.27,1911.53 L2248.39,1912.01 L2248.5,1912.81 L2248.71,1915.05 L2248.83,1917.81 L2248.88,1918.83 L2248.89,1920.06 L2248.94,1920.74 L2248.99,1921.24 L2249.09,1921.86 L2249.17,1922.22 L2249.29,1922.75 L2249.73,1924.21 L2250.55,1926.94 L2250.77,1927.56 L2250.88,1928.08 L2251.08,1929.14 L2251.15,1929.78 L2251.18,1930.39 L2251.36,1932.94 L2251.45,1934.2 L2251.47,1934.64 L2251.48,1935.32 L2251.48,1940.61 L2251.42,1941.06 L2251.29,1941.62 L2251.05,1942.33 L2251.01,1942.44 L2250.71,1943.31 L2250.5,1943.91 L2249.91,1945.66 L2249.68,1946.36 L2249.66,1946.43 L2249.5,1946.92 L2249.38,1947.5 L2248.76,1951.3 L2248.66,1951.94 L2248.52,1952.45 L2248.2,1953.65 L2247.25,1956.67 L2247.11,1957.39 L2246.64,1959.5 L2246.25,1961.24 L2246.09,1961.97 L2245.8,1963.31 L2245.61,1964.17 L2245.33,1965.69 L2245.16,1966.88 L2244.99,1968.13 L2244.95,1968.64 L2244.92,1969.34 L2244.83,1971.94 L2244.8,1972.43 L2244.67,1974.46 L2244.52,1976.15 L2244.45,1976.55 L2244.41,1976.68 L2244.32,1976.98 L2243.86,1978.5 L2243.6,1979.29 L2243.5,1979.74 L2243.49,1980.07 L2243.56,1980.53 L2243.76,1981.6 L2243.93,1982.14 L2244.17,1982.7 L2244.49,1983.31 L2244.8,1983.74 L2245.16,1984.14 L2245.53,1984.44 L2245.6,1984.48 L2245.88,1984.66 L2246.25,1984.86 L2246.39,1984.94 L2246.8,1985.14 L2247.14,1985.36 L2247.39,1985.62 L2247.62,1986 L2249.67,1990.56 L2249.97,1991.04 L2250.29,1991.44 L2252.03,1993.77 L2252.61,1994.66 L2253.11,1995.52 L2253.34,1995.9 L2253.59,1996.33 L2252.61,1997.24 L2249.05,2001.08 L2245.53,2004.5 L2240.03,2009.54 L2239.42,2009.84 L2238.72,2009.76 L2237.65,2009.52 L2237.38,2009.6 L2236.56,2011.84 L2236.04,2013.68 L2235.7,2014.82 L2235.42,2016.28 L2234.95,2017.74 L2234.06,2019.73 L2232.87,2022.48 L2232.16,2024.24 L2231.67,2025.44 L2231.32,2025.99 L2230.95,2026.53 L2228.65,2028.83 L2226.12,2031.78 L2224.7,2033.58 L2224.42,2033.74 L2224.1,2033.72 L2222.61,2033.45 L2222.42,2033.5 L2222.3,2033.73 L2222.03,2036.23 L2222.04,2037.45 L2221.9,2039.02 L2221.73,2039.93 L2223.58,2040.82 L2223.66,2041.11 L2219.69,2050.38 L2222.4,2051.22 L2225.12,2052.03 L2228.04,2052.5 L2230.06,2052.85 L2230.31,2053.1 L2230.63,2054.64 L2230.95,2054.93 L2233.31,2054.9 L2230.9,2062.85 L2230.61,2064.14 L2230.91,2067.87 L2231.23,2069.12 L2230.76,2071.83 L2232.13,2071.05 L2234.66,2070.1 L2236.55,2069.65 L2237.85,2069.48 L2239.45,2069.58 L2248.09,2072.5 L2250.37,2073.25 L2252.86,2074.07 L2255.17,2074.9 L2257.43,2075.62 L2259.4,2075.89 L2259.58,2075.95 L2260.09,2076.1 L2260.24,2076.31 L2260.44,2080.27 L2260.64,2080.48 L2261.28,2080.48 L2262.18,2080.58 L2262.3,2080.84 L2262.33,2082.79 L2262.32,2085.6 L2262.32,2086.14 L2262.32,2088.59 L2279.46,2091.29 L2280.4,2091.77 L2280.82,2092.25 L2280.95,2093.07 L2280.98,2094.15 L2281.2,2094.45 L2284.62,2095.55 L2287.14,2096.78 L2289.11,2098 L2291.19,2099.3 L2293.6,2101.45 L2291.42,2105.04 L2291.35,2105.29 L2291.4,2105.7 L2292.75,2106.54 L2294,2107.4 L2294.71,2107.88 L2294.69,2108.06 L2292.88,2111.3 L2292.71,2111.6 L2292.78,2111.65 L2293.29,2111.93 L2295.47,2113.05 L2296.65,2113.61 L2295.45,2116.09 L2293.99,2117.83 L2293.4,2118.57 L2291.4,2124.97 L2291.24,2125.06 L2290.27,2124.93 L2289.98,2124.93 L2289.74,2127.32 L2289.66,2130.1 L2289.54,2133.4 L2289.37,2134.54 L2288.66,2136.02 L2287.88,2137.12 L2287.13,2138.15 L2286.54,2138.65 L2286.28,2138.88 L2285.93,2139.18 L2284.64,2140.04 L2284.03,2140.65 L2283.96,2141.04 L2284.27,2142.27 L2285,2144.12 L2285.57,2145.19 L2285.95,2145.95 L2286.3,2146.66 L2287.29,2148.54 L2288.37,2150.04 L2286.71,2153.2 L2285.12,2156.14 L2284.13,2157.98 L2284.95,2158.33 L2285.06,2158.38 L2294.7,2162.51 L2300.98,2165.1 L2318.47,2172.34 L2327.08,2178.76 L2338.03,2186.7 L2350.87,2195.3 L2355.8,2198.46 L2365.42,2204.38 L2365.53,2204.45 L2373.15,2208.75 L2377.67,2210.95 L2382.41,2212.97 L2386.15,2214.41 L2409.51,2223.14 L2381.81,2255.69 L2381.28,2256.31 L2376.59,2261.82 L2369.7,2269.43 L2366.67,2272.42 L2360.05,2279.33 L2352.32,2288.57 L2346.25,2295.6 L2344.06,2297.94 L2341,2300.56 L2340.72,2300.8 L2340.27,2301.21 L2339.89,2301.56 L2338.44,2302.9 L2333.29,2307.16 L2330.61,2307.88 L2330.42,2307.92 L2327.97,2308.3 L2326.86,2308.47 L2325.61,2308.61 L2325,2308.66 L2324.5,2308.69 L2324.27,2308.69 L2323.85,2308.64 L2323.64,2308.6 L2323.48,2308.54 L2323.29,2308.44 L2322.84,2308.2 L2322.46,2308.07 L2322.28,2308.03 L2322.09,2308.01 L2321.32,2307.98 L2320.84,2307.99 L2318.72,2308.13 L2317.99,2308.24 L2317.79,2308.28 L2317.47,2308.39 L2317.31,2308.47 L2317.11,2308.61 L2316.91,2308.77 L2316.62,2309.07 L2315.98,2309.89 L2315.34,2310.62 L2314.58,2311.44 L2314.26,2311.7 L2312.67,2312.59 L2312.47,2312.7 L2312.4,2312.76 L2312.36,2312.85 L2312.34,2312.94 L2312.33,2313.05 L2312.35,2313.24 L2312.41,2313.89 L2312.41,2314.11 L2312.39,2314.22 L2312.36,2314.29 L2312.31,2314.36 L2311.57,2315.14 L2311.41,2315.36 L2315.78,2319.3 L2316.09,2319.63 L2316.4,2319.97 L2316.65,2320.32 L2316.92,2320.76 L2317.23,2321.35 L2317.55,2322.07 L2317.76,2322.67 L2317.92,2323.29 L2318.05,2323.97 L2318.12,2324.46 L2318.18,2325.05 L2318.2,2325.68 L2318.15,2326.45 L2318.06,2327.28 L2317.96,2327.8 L2317.89,2328.19 L2317.85,2328.6 L2317.83,2328.97 L2317.85,2329.24 L2317.89,2329.65 L2318.04,2330.41 L2318.18,2330.97 L2318.3,2331.3 L2318.46,2331.68 L2318.74,2332.19 L2319.58,2333.46 L2319.92,2333.93 L2320.84,2335.02 L2322.29,2336.66 L2323.76,2338.09 L2323.95,2338.26 L2324.29,2338.47 L2324.64,2338.67 L2324.92,2338.8 L2325.23,2338.92 L2325.77,2339.05 L2326.6,2339.22 L2326.99,2339.3 L2327.35,2339.39 L2327.68,2339.5 L2327.98,2339.62 L2328.22,2339.75 L2328.46,2339.89 L2328.92,2340.21 L2329.3,2340.47 L2329.65,2340.75 L2330.01,2341.05 L2330.52,2341.56 L2332.47,2343.63 L2332.68,2343.84 L2333.22,2344.29 L2333.43,2344.46 L2333.97,2344.8 L2334.37,2345.04 L2334.9,2345.29 L2335.74,2345.68 L2335.92,2345.75 L2336.39,2345.92 L2336.57,2346.02 L2336.74,2346.16 L2336.85,2346.32 L2336.94,2346.5 L2337,2346.77 L2337.01,2346.98 L2336.97,2347.2 L2336.9,2347.4 L2336.81,2347.58 L2336.66,2347.82 L2336.19,2348.49 L2335.44,2349.56 L2333.59,2351.97 L2331.88,2353.96 L2331.42,2354.54 L2331.21,2354.86 L2330.98,2355.26 L2330.8,2355.62 L2330.65,2355.98 L2330.53,2356.32 L2330.5,2356.4 L2330.4,2356.87 L2330.35,2357.14 L2330.31,2357.53 L2330.29,2357.99 L2330.28,2358.26 L2330.29,2358.58 L2330.33,2358.9 L2330.42,2359.21 L2330.54,2359.52 L2330.73,2359.93 L2330.86,2360.13 L2332.13,2362.08 L2332.55,2362.79 L2332.8,2363.2 L2333.51,2364.49 L2333.82,2365.09 L2333.99,2365.48 L2334.94,2367.83 L2335.15,2368.25 L2335.36,2368.62 L2335.59,2368.96 L2335.8,2369.23 L2336.02,2369.47 L2336.33,2369.75 L2336.63,2369.96 L2337.32,2370.42 L2337.66,2370.64 L2337.88,2370.85 L2338,2371.05 L2338.1,2371.35 L2338.14,2371.6 L2338.15,2371.97 L2338.11,2372.43 L2338.06,2372.75 L2337.97,2373.18 L2337.77,2373.72 L2337.54,2374.21 L2337.35,2374.49 L2337.27,2374.6 L2336.98,2374.92 L2336.73,2375.11 L2336.46,2375.27 L2336.08,2375.44 L2332.54,2376.89 L2330.5,2377.64 L2330.25,2377.69 L2330.19,2377.7 L2329.92,2377.74 L2329.63,2377.74 L2327.39,2377.69 L2326.35,2377.66 L2325.86,2377.66 L2325.51,2377.68 L2325.2,2377.77 L2324.93,2377.88 L2324.61,2378.08 L2324.35,2378.33 L2323.98,2378.87 L2323.03,2380.26 L2322.85,2380.53 L2322.54,2380.99 L2322.31,2381.31 L2321.89,2381.89 L2321.52,2382.44 L2321.18,2383.01 L2320.97,2383.47 L2320.71,2384.19 L2320.51,2384.82 L2320.25,2385.92 L2320.07,2386.71 L2320.06,2386.78 L2320,2387.12 L2319.95,2387.5 L2319.96,2387.87 L2319.99,2388.19 L2320.06,2388.48 L2320.18,2388.79 L2320.34,2389.03 L2320.57,2389.33 L2321.03,2389.9 L2321.23,2390.2 L2321.4,2390.5 L2321.53,2390.79 L2321.66,2391.09 L2321.79,2391.57 L2321.93,2392.35 L2322.05,2393.2 L2322.12,2393.69 L2322.22,2394.04 L2322.37,2394.38 L2322.57,2394.73 L2322.83,2395.06 L2323.1,2395.33 L2323.36,2395.52 L2323.63,2395.64 L2326.71,2396.65 L2328.66,2397.29 L2330.04,2397.77 L2330.22,2397.85 L2330.37,2397.96 L2330.47,2398.11 L2330.56,2398.34 L2330.67,2398.77 L2330.78,2399.37 L2330.84,2399.91 L2330.94,2402.09 L2330.97,2402.34 L2331.06,2402.6 L2331.18,2402.8 L2331.38,2403.06 L2331.63,2403.32 L2332.06,2403.7 L2332.31,2403.89 L2333.67,2404.76 L2335.23,2405.97 L2335.82,2406.5 L2336.57,2407.2 L2336.71,2407.39 L2336.81,2407.63 L2336.87,2407.86 L2336.92,2408.18 L2336.98,2410.11 L2336.98,2410.3 L2336.8,2411.34 L2336.71,2411.69 L2336.58,2411.99 L2336.41,2412.31 L2336.24,2412.53 L2336.04,2412.74 L2335.88,2412.85 L2335.8,2412.91 L2335.4,2413.18 L2335.08,2413.39 L2334.76,2413.58 L2334.57,2413.78 L2334.48,2413.9 L2334.29,2414.17 L2333.78,2414.81 L2333.6,2415.12 L2333.42,2415.47 L2333.29,2415.79 L2333.18,2416.1 L2333.14,2416.21 L2333.07,2416.43 L2333,2416.74 L2332.91,2417.1 L2332.87,2417.45 L2332.83,2418.24 L2332.84,2418.57 L2332.86,2418.83 L2332.9,2419.08 L2332.97,2419.26 L2333.08,2419.49 L2333.3,2419.85 L2333.62,2420.25 L2333.99,2420.68 L2335.63,2422.26 L2336.4,2422.91 L2336.86,2423.28 L2339.83,2425.73 L2340.06,2425.9 L2340.28,2425.99 L2340.62,2426.14 L2341.01,2426.3 L2341.32,2426.45 L2341.63,2426.62 L2342,2426.83 L2342.38,2427.1 L2342.87,2427.49 L2343.98,2428.55 L2344.62,2429.25 L2345.59,2430.28 L2345.85,2430.58 L2348.1,2433.4 L2348.98,2434.5 L2349.93,2435.82 L2350.11,2436.17 L2350.19,2436.45 L2350.25,2436.86 L2350.24,2437.37 L2350.2,2437.64 L2350.12,2437.88 L2349.98,2438.13 L2349.4,2439.14 L2349.09,2439.67 L2348.97,2439.99 L2348.29,2441.82 L2348.14,2442.2 L2348.06,2442.52 L2348,2442.85 L2347.94,2443.41 L2347.92,2443.52 L2347.84,2444.23 L2347.72,2445.84 L2347.68,2446.4 L2347.66,2446.72 L2347.64,2447.55 L2347.65,2448.38 L2347.65,2449.19 L2347.68,2449.68 L2347.71,2450 L2347.74,2450.31 L2347.87,2451.15 L2347.95,2451.8 L2348.11,2452.86 L2348.29,2454.09 L2348.67,2455.91 L2349.01,2457.4 L2349.2,2458.25 L2349.23,2458.41 L2349.27,2458.62 L2349.42,2459.58 L2349.45,2460.14 L2349.44,2460.89 L2349.37,2461.61 L2349.3,2462.3 L2349.26,2462.54 L2349.09,2463.15 L2348.85,2463.83 L2348.4,2464.87 L2347.79,2466 L2347.71,2466.14 L2347.47,2466.67 L2347.26,2467.3 L2347.22,2467.47 L2347.07,2468.05 L2346.77,2469.37 L2346.68,2470 L2346.58,2470.67 L2346.56,2471.37 L2346.53,2472.48 L2346.49,2473.31 L2346.39,2473.88 L2346.3,2474.31 L2346.32,2474.64 L2346.34,2474.76 L2346.35,2474.91 L2346.48,2475.58 L2346.84,2476.84 L2347.26,2478.09 L2347.62,2479.18 L2347.77,2479.52 L2349.52,2482.81 L2350.5,2484.48 L2350.81,2485.03 L2352.17,2487.74 L2353.86,2490.9 L2355.08,2493.06 L2355.5,2493.69 L2356.17,2494.6 L2356.93,2495.64 L2357.99,2496.94 L2358.87,2497.84 L2360.08,2498.96 L2361.47,2500.28 L2361.9,2500.67 L2359.4,2501.84 L2356.39,2502.39 L2352.05,2502.85 L2350.23,2503.13 L2349.58,2503.45 L2348.56,2504.79 L2347.54,2505.35 L2342.42,2507.32 L2340.8,2507.63 L2339.58,2507.91 L2338.57,2508.35 L2333.96,2512.85 L2333.46,2513.86 L2333.54,2514.39 L2334.18,2516.03 L2334.38,2516.93 L2334.25,2518.27 L2334.36,2519.5 L2334.84,2520.36 L2338.89,2523.95 L2339.4,2523.53 L2339.88,2523.2 L2340.73,2522.78 L2341.6,2522.42 L2342.91,2521.84 L2344.38,2521.22 L2345.76,2520.63 L2346.98,2520.17 L2347.66,2519.98 L2348.53,2519.85 L2349.29,2519.82 L2349.94,2519.83 L2350.59,2519.89 L2351.39,2519.99 L2352.09,2520.16 L2352.55,2520.32 L2352.89,2520.51 L2353.12,2520.7 L2353.3,2520.95 L2353.39,2521.2 L2353.46,2521.72 L2353.6,2522.95 L2353.76,2523.74 L2353.89,2524.12 L2354.12,2524.5 L2354.31,2524.74 L2354.58,2524.92 L2354.93,2525 L2355.49,2525.05 L2356.46,2525.08 L2357.32,2525.12 L2357.72,2525.17 L2358.06,2525.26 L2358.3,2525.36 L2358.53,2525.55 L2358.63,2525.72 L2358.69,2525.97 L2358.67,2526.4 L2358.62,2527 L2358.54,2528.01 L2358.5,2528.8 L2358.5,2530.09 L2358.54,2531.01 L2358.67,2531.56 L2358.81,2531.99 L2359.07,2532.54 L2359.34,2532.96 L2359.67,2533.4 L2359.75,2533.47 L2360.5,2533.93 L2361.71,2534.68 L2363.59,2534.9 L2363.9,2534.94 L2366.38,2535.04 L2368.56,2535.64 L2370.87,2536.57 L2373.06,2537.37 L2375.16,2538.18 L2377.07,2539.14 L2377.85,2539.38 L2378.07,2542.13 L2378.11,2545.28 L2377.85,2547.37 L2377.59,2548.43 L2376.78,2549.05 L2374.89,2549.19 L2373.8,2548.97 L2373.1,2547.93 L2372.42,2547.52 L2370.56,2547.23 L2364.63,2548.22 L2361.53,2548.95 L2359.6,2549.43 L2358.17,2549.61 L2356.41,2549.6 L2354.36,2549.59 L2353.77,2549.65 L2353.69,2549.68 L2353.35,2549.82 L2353.05,2550.17 L2352.89,2550.84 L2352.75,2552.91 L2352.54,2555.85 L2352.47,2557.45 L2352.48,2559.52 L2352.47,2560.02 L2352.42,2560.44 L2352.31,2560.76 L2352.09,2561 L2351.89,2561.11 L2351.62,2561.27 L2350.89,2561.71 L2350.76,2561.77 L2350.29,2561.94 L2350.04,2562.02 L2349.54,2562.19 L2348.76,2562.35 L2347.73,2562.52 L2347.06,2562.63 L2345.87,2562.79 L2345.77,2562.81 L2345.57,2562.83 L2345.3,2562.89 L2345.04,2563 L2344.85,2563.09 L2344.56,2563.32 L2344.51,2563.38 L2344.32,2563.64 L2344.25,2563.76 L2344.19,2563.87 L2343.6,2564.9 L2342.83,2566.18 L2342.13,2567.36 L2341.5,2568.45 L2341.27,2569 L2340.84,2570.12 L2340.73,2570.41 L2340.63,2571.09 L2340.52,2571.7 L2340.34,2572.44 L2340.29,2572.64 L2340.54,2572.82 L2343.78,2575.11 L2350.46,2579.43 L2353.22,2581.22 L2362.46,2585.49 L2372.4,2589.81 L2381.74,2592.7 L2395.47,2596.02 L2406.27,2599.72 L2414.66,2604.48 L2420.78,2608.69 L2424.75,2613.02 L2429.79,2618.7 L2432.02,2622.69 L2433.09,2624.63 L2436.35,2631.19 L2437.45,2633.4 L2440.06,2642.29 L2441.79,2652.2 L2442.25,2654.81 L2442.68,2656.08 L2444.84,2662.46 L2445.87,2665.49 L2446.73,2668.02 L2446.25,2668.76 L2444.74,2671.11 L2442.83,2674.26 L2442.49,2674.98 L2442.31,2675.28 L2442.11,2675.57 L2438.45,2680.11 L2438.22,2680.36 L2437.61,2681.01 L2437.11,2681.41 L2436.64,2681.72 L2436.23,2681.96 L2435.86,2682.13 L2435.48,2682.27 L2435.27,2682.34 L2435.2,2682.36 L2434.91,2682.42 L2434.58,2682.46 L2434.01,2682.48 L2433.22,2682.48 L2432.86,2682.48 L2432.49,2682.46 L2431.7,2682.39 L2429.13,2682.01 L2428.66,2681.93 L2428.32,2681.9 L2428.03,2681.89 L2427.55,2681.93 L2426.77,2682.04 L2425.91,2682.2 L2425.41,2682.35 L2425.03,2682.54 L2424.69,2682.76 L2424.26,2683.14 L2423.65,2683.73 L2422.99,2684.42 L2422.68,2684.69 L2422.24,2685.01 L2421.84,2685.25 L2421.38,2685.48 L2421.05,2685.67 L2420.68,2685.81 L2420.09,2686.02 L2419.65,2686.18 L2419.35,2686.29 L2418.88,2686.51 L2416.93,2687.72 L2416.53,2688.06 L2414.58,2689.97 L2414.24,2690.34 L2413.54,2691.15 L2413.18,2691.72 L2412.92,2692.19 L2412.75,2692.66 L2412.6,2693.13 L2412.5,2693.55 L2412.42,2694.02 L2412.4,2694.43 L2412.41,2695.04 L2412.47,2695.56 L2412.62,2696.35 L2412.87,2697.44 L2413.02,2698.02 L2413.39,2699.23 L2413.8,2700.39 L2414.75,2702.98 L2414.81,2703.15 L2415.06,2704.03 L2415.4,2705.19 L2415.59,2705.95 L2416.86,2712.77 L2417.03,2713.3 L2417.15,2713.68 L2418.25,2714.12 L2419.26,2714.58 L2419.64,2714.77 L2419.89,2714.89 L2420.34,2715.14 L2420.81,2715.52 L2421.29,2716.03 L2421.86,2716.7 L2422.45,2717.49 L2422.93,2718.29 L2423.27,2719.05 L2423.6,2719.99 L2423.91,2721.42 L2424.06,2722.49 L2424.18,2723.5 L2424.21,2725.57 L2424.19,2726.54 L2424.11,2727.36 L2424.01,2728.03 L2423.83,2728.68 L2423.53,2729.41 L2423.15,2730.08 L2422.64,2730.82 L2422.13,2731.45 L2421.57,2731.97 L2420.2,2733.18 L2418.8,2734.43 L2416.29,2736.2 L2415.2,2736.96 L2413.83,2737.93 L2413.3,2738.22 L2412.6,2738.5 L2412.28,2738.6 L2411.28,2738.83 L2410.27,2739.04 L2409.41,2739.16 L2405.29,2739.25 L2403.95,2739.28 L2402.74,2739.31 L2401.03,2739.2 L2399.88,2739.04 L2399.05,2738.89 L2398.25,2738.71 L2397.47,2738.45 L2396.23,2738 L2395.87,2737.87 L2393.89,2736.93 L2391.63,2735.84 L2389.99,2735.06 L2389.34,2734.7 L2388.68,2734.43 L2387.97,2734.21 L2386.41,2733.85 L2384.71,2733.54 L2383.57,2733.44 L2382.61,2733.43 L2381.95,2733.46 L2381.33,2733.58 L2380.68,2733.83 L2378.96,2734.73 L2376.62,2735.96 L2375.4,2736.79 L2374.66,2737.36 L2374.11,2737.84 L2373.64,2738.39 L2373.18,2739.05 L2372.77,2739.73 L2372.4,2740.5 L2371.84,2741.88 L2371.71,2742.24 L2370.42,2745.9 L2370.25,2746.49 L2370.18,2746.75 L2369.93,2747.95 L2369.65,2749.89 L2369.42,2751.78 L2369.35,2752.62 L2369.36,2752.79 L2369.48,2754.56 L2369.55,2755.14 L2369.62,2755.51 L2369.72,2756.05 L2369.81,2756.51 L2370.4,2758.93 L2370.58,2759.4 L2370.65,2759.56 L2370.81,2759.81 L2371.05,2760.13 L2371.67,2760.93 L2372.51,2762.08 L2372.55,2762.15 L2373.12,2762.94 L2373.66,2763.78 L2375.29,2766.92 L2375.66,2767.69 L2375.86,2768.26 L2376,2768.85 L2376.05,2769.43 L2376.04,2769.99 L2375.99,2770.51 L2375.9,2771.02 L2375.72,2771.68 L2375.7,2771.76 L2375.34,2772.62 L2374.96,2773.39 L2374.61,2773.96 L2374.15,2774.54 L2373.66,2775.1 L2373.05,2775.65 L2372.88,2775.8 L2372.33,2776.25 L2371.6,2776.73 L2370.97,2777.11 L2370.68,2777.29 L2369.53,2777.92 L2368.28,2778.54 L2367.35,2778.91 L2366.48,2779.25 L2362.46,2780.38 L2358.9,2781.38 L2357.94,2781.61 L2357.17,2781.85 L2355.68,2782.25 L2354.48,2782.62 L2353.45,2783.05 L2352.63,2783.43 L2351.62,2784.07 L2350.8,2784.68 L2350.2,2785.18 L2349.46,2785.9 L2348.87,2786.5 L2348.77,2786.63 L2348.38,2787.17 L2348,2787.82 L2347.59,2788.65 L2347.25,2789.47 L2347,2790.35 L2346.77,2791.17 L2346.74,2791.31 L2346.56,2791.99 L2346.42,2792.78 L2346.37,2793.51 L2346.37,2793.9 L2346.37,2794.12 L2346.39,2798.62 L2346.48,2799.38 L2346.56,2800.11 L2346.74,2800.83 L2346.91,2801.5 L2347.06,2801.91 L2347.11,2802.05 L2347.34,2802.5 L2347.78,2803.1 L2348.04,2803.41 L2348.09,2803.47 L2350.26,2806.06 L2355.28,2812.07 L2355.47,2812.37 L2355.84,2813.32 L2356.04,2814.02 L2356.79,2816.84 L2356.91,2817.27 L2357.02,2818 L2357.15,2818.81 L2357.79,2822.79 L2358.16,2825.62 L2358.52,2828.42 L2358.6,2829.04 L2358.95,2831.8 L2359.32,2833.95 L2359.62,2835.69 L2359.8,2837.03 L2359.91,2838.31 L2359.95,2840.02 L2359.94,2840.24 L2359.82,2840.98 L2359.77,2841.23 L2359.07,2843.36 L2358.99,2843.53 L2358.56,2844.32 L2358.23,2844.84 L2357.94,2845.24 L2357,2846.46 L2356.84,2846.64 L2355.24,2848.16 L2354.93,2848.43 L2354.47,2848.75 L2351.66,2850.19 L2351.34,2850.3 L2351.01,2850.4 L2350.69,2850.46 L2349.52,2850.59 L2348.64,2850.64 L2348.32,2850.63 L2346.93,2850.53 L2346.62,2850.5 L2346.25,2850.44 L2345.45,2850.29 L2344.11,2850.04 L2343.62,2849.93 L2343.24,2849.81 L2342.7,2849.64 L2341.85,2849.33 L2340.78,2849 L2340.14,2848.76 L2339.48,2848.54 L2339.01,2848.36 L2338.35,2848.07 L2338.1,2847.96 L2337.72,2847.78 L2337.65,2847.75 L2336.04,2847.17 L2335.5,2846.99 L2335.16,2846.91 L2334.66,2846.82 L2334.25,2846.76 L2333.89,2846.72 L2333.54,2846.71 L2332.53,2846.78 L2330.66,2846.87 L2330.32,2846.92 L2329.97,2847 L2329.41,2847.14 L2329.04,2847.26 L2328.65,2847.39 L2328.34,2847.55 L2327.94,2847.76 L2327.67,2847.96 L2327.47,2848.1 L2327.21,2848.33 L2326.98,2848.54 L2326.77,2848.78 L2326.46,2849.15 L2325.73,2850.07 L2324.75,2851.21 L2324.13,2852.02 L2323.68,2852.65 L2323.24,2853.26 L2323.01,2853.45 L2322.83,2853.57 L2322.72,2853.65 L2322.39,2853.8 L2321.92,2853.91 L2321.38,2853.95 L2320.75,2853.96 L2320.4,2854 L2320.11,2854.07 L2319.95,2854.13 L2319.75,2854.29 L2319.61,2854.43 L2319.1,2854.46 L2318.72,2854.46 L2318.56,2854.39 L2318.32,2854.17 L2317.94,2853.73 L2317.34,2852.66 L2316.39,2850.57 L2316.05,2849.67 L2315.92,2849.17 L2315.73,2848.4 L2315.68,2848.06 L2315.48,2846.76 L2315.44,2846.4 L2315.43,2846.27 L2315.47,2846.14 L2315.52,2846.06 L2315.65,2845.98 L2316.09,2845.75 L2316.36,2845.65 L2316.45,2845.56 L2316.49,2845.46 L2316.51,2845.27 L2316.48,2845.05 L2316.43,2844.77 L2316.2,2843.99 L2315.93,2843.28 L2315.43,2842.28 L2314.91,2841.32 L2314.45,2840.54 L2314.38,2840.42 L2314.04,2839.88 L2313.62,2839.42 L2313.18,2838.97 L2312.63,2838.54 L2312.24,2838.29 L2311.71,2838.06 L2311.25,2837.86 L2310.39,2837.57 L2309.31,2837.27 L2307.93,2836.95 L2304.66,2836.22 L2301.59,2835.56 L2299.94,2835.23 L2299.52,2835.1 L2299,2834.86 L2298.56,2834.62 L2298.08,2834.29 L2297.76,2834.03 L2297.21,2833.55 L2296.7,2833.15 L2296.21,2832.81 L2295.64,2832.42 L2294.75,2831.86 L2293.61,2831.27 L2292.33,2830.67 L2290.86,2830.05 L2288.92,2829.07 L2286.35,2827.82 L2285.29,2827.17 L2283.3,2825.96 L2281.71,2825.04 L2281.03,2824.61 L2280.46,2824.36 L2279.96,2824.19 L2279.46,2824.07 L2278.91,2824 L2278.43,2823.99 L2277.97,2824 L2277.42,2824.11 L2276.91,2824.34 L2276.32,2824.7 L2275.56,2825.37 L2274.47,2826.34 L2273.22,2827.54 L2272.38,2828.49 L2271.7,2829.47 L2270.81,2830.97 L2270.26,2831.89 L2269.94,2832.3 L2269.09,2833.02 L2266.95,2834.91 L2265.42,2836.24 L2264.93,2836.87 L2264.43,2837.69 L2263.87,2838.67 L2263.6,2839.37 L2263.38,2840.29 L2262.98,2842.11 L2262.65,2843.33 L2262.11,2845.05 L2261.65,2846.08 L2261.38,2846.63 L2260.12,2847.79 L2256.7,2850.43 L2252.56,2853.15 L2248.2,2855.74 L2244.78,2857.12 L2241.42,2858.38 L2241.1,2858.44 L2239.93,2858.48 L2236.35,2858.28 L2232.59,2858.03 L2227.17,2857.23 L2224.93,2856.9 L2218.84,2856.27 L2214.64,2855.61 L2213.22,2855.49 L2213.08,2855.52 L2206.5,2856.61 L2201.85,2856.95 L2201.06,2856.62 L2200.02,2855.83 L2199.64,2855.75 L2198.66,2856.07 L2196.52,2856.75 L2192.39,2858.34 L2192.02,2858.29 L2191.76,2858.1 L2189.58,2853.5 L2189.5,2853.38 L2188.93,2852.55 L2188.67,2852.36 L2186.81,2851.1 L2185.98,2850.24 L2183.32,2846.06 L2178.13,2834.65 L2177.83,2833.8 L2177.36,2833.79 L2175.93,2833.9 L2171.27,2835.12 L2167.75,2835.87 L2165.46,2836.33 L2165.39,2835.16 L2161.63,2835.83 L2156.71,2836.74 L2154.37,2837.33 L2153.12,2837.45 L2150.55,2836.92 L2146.79,2835.3 L2144.64,2834.42 L2142.8,2833.38 L2140.65,2831.64 L2136.25,2828.28 L2135.48,2827.77 L2134.99,2827.18 L2134.85,2826.73 L2134.82,2826.64 L2134.51,2825.99 L2134.31,2825.81 L2134.03,2825.75 L2133.35,2825.73 L2132.24,2825.69 L2130.67,2825.54 L2129,2825.26 L2126.97,2824.72 L2126.04,2824.54 L2123.57,2824.02 L2121.87,2823.77 L2117.61,2823.71 L2114.28,2824.11 L2111.1,2825.18 L2109.58,2825.19 L2105.27,2825.7 L2104.47,2825.76 L2104.15,2824.42 L2103.58,2818.8 L2103.15,2814.39 L2103.02,2812.96 L2102.87,2811.25 L2102.5,2811.25 L2097.92,2811.82 L2093.87,2811.8 L2086.57,2811.48 L2076.13,2810.42 L2075.59,2810.36 L2066.79,2811.09 L2062.81,2810.73 L2055.31,2810.08 L2051.13,2809.18 L2046.76,2808.49 L2042.71,2808.53 L2036.73,2809.43 L2032.66,2809.78 L2032.46,2809.8 L2032.24,2809.88 L2032,2809.99 L2031.44,2810.18 L2030.98,2810.31 L2030.62,2810.39 L2030.2,2810.43 L2029.58,2810.42 L2028.87,2810.45 L2028.39,2810.48 L2027.58,2810.53 L2026.54,2810.74 L2026.27,2810.79 L2025.96,2810.93 L2025.61,2811.12 L2025.54,2811.16 L2024.95,2811.43 L2024.43,2811.71 L2023.95,2811.89 L2023.57,2812.01 L2023.09,2812.09 L2022.56,2812.15 L2021.5,2812.17 L2021.03,2812.18 L2020.75,2812.22 L2020.56,2812.32 L2020.44,2812.45 L2020.34,2812.63 L2020.23,2812.93 L2020.07,2813.31 L2019.95,2813.47 L2019.8,2813.58 L2019.63,2813.65 L2019.16,2813.72 L2018.48,2813.83 L2018.1,2813.87 L2017.89,2813.86 L2017.68,2813.81 L2017.5,2813.77 L2017.34,2813.74 L2017.15,2813.73 L2016.68,2813.73 L2015.52,2813.59 L2014.61,2813.48 L2013.38,2813.18 L2012.35,2812.93 L2011.43,2812.69 L2010.72,2812.52 L2010.41,2812.45 L2009.61,2812.16 L2008.96,2811.9 L2008.17,2811.54 L2007.7,2811.3 L2006.98,2810.96 L2006.37,2810.62 L2005.72,2810.36 L2004.82,2809.96 L2004.54,2809.7 L2004.41,2809.34 L2004.34,2808.91 L2004.2,2808.41 L2004.04,2807.99 L2003.85,2807.57 L2003.59,2807.16 L2003.3,2806.86 L2002.94,2806.54 L2002.56,2806.21 L2002.07,2805.86 L2001.75,2805.67 L2001.47,2805.62 L2001.11,2805.63 L2000.23,2805.89 L1999.74,2806.1 L1999.26,2806.38 L1998.29,2807.07 L1997.73,2807.52 L1997.03,2808.06 L1996.54,2808.37 L1996,2808.76 L1995.67,2809.1 L1995.27,2809.52 L1994.95,2809.9 L1994.65,2810.09 L1994.34,2810.22 L1993.94,2810.33 L1993.48,2810.47 L1993.31,2810.58 L1993.18,2810.72 L1993.16,2810.89 L1993.18,2811.09 L1993.2,2811.35 L1993.19,2811.53 L1993.05,2811.61 L1992.36,2811.92 L1990.62,2812.84 L1989.18,2813.52 L1987.58,2814.22 L1986.1,2814.95 L1984.4,2815.71 L1982.75,2816.25 L1982,2816.58 L1981.56,2816.86 L1981.23,2817.12 L1980.93,2817.48 L1980.88,2817.59 L1980.65,2818.09 L1980.4,2818.75 L1978.35,2818.97 L1978.23,2819.01 L1977.97,2819.22 L1977.7,2819.55 L1977.41,2819.99 L1977.05,2820.24 L1976.61,2820.33 L1976.21,2820.31 L1975.81,2820.13 L1975.29,2819.69 L1975.19,2819.58 L1975.05,2819.45 L1974.86,2819.24 L1974.5,2818.74 L1974.08,2818.28 L1973.6,2818 L1972.86,2817.88 L1971.65,2817.99 L1970.89,2818.35 L1970.43,2818.64 L1970.02,2819.02 L1969.48,2819.75 L1969.02,2820.32 L1968.23,2820.89 L1967.23,2821.48 L1966.37,2821.77 L1965.63,2821.93 L1965.09,2821.93 L1964.61,2821.81 L1964.23,2821.58 L1963.71,2822.35 L1962.94,2823.48 L1961.31,2825.42 L1959.49,2827.44 L1959.18,2827.64 L1958.87,2827.69 L1958.59,2827.59 L1957.96,2826.97 L1956.9,2825.73 L1956.47,2824.96 L1956.17,2824.29 L1955.94,2823.49 L1955.72,2822.36 L1955.07,2821.1 L1954.59,2820.3 L1954.41,2819.69 L1954.29,2818.76 L1954.12,2817.09 L1953.95,2816.53 L1953.44,2815.96 L1952.96,2815.65 L1951.33,2814.72 L1948.61,2812.9 L1948.38,2812.75 L1949.7,2810.29 L1950.63,2808.23 L1950.87,2807.71 L1951.82,2805.34 L1952.29,2803.95 L1952.74,2802.6 L1953.98,2798.5 L1955.28,2794.03 L1955.96,2791.73 L1956.52,2789.84 L1956.98,2788.54 L1957.75,2786.37 L1958.34,2784.46 L1958.74,2782.23 L1958.9,2780.68 L1958.91,2779.66 L1958.91,2779.31 L1958.8,2777.82 L1958.56,2776.27 L1958.54,2776.11 L1958.22,2774.49 L1957.99,2772.7 L1957.94,2770.29 L1957.86,2768.55 L1957.69,2767.27 L1957.12,2765.35 L1956.35,2763.55 L1955.39,2761.99 L1954.99,2761.47 L1954.71,2761.11 L1954.49,2760.82 L1953.34,2759.78 L1951.41,2758.61 L1950.48,2758.19 L1948.37,2757.22 L1946.38,2756.31 L1945.47,2755.89 L1943.02,2754.72 L1941.88,2754.13 L1940.91,2753.34 L1940.07,2752.23 L1939.32,2750.8 L1938.61,2748.97 L1938.05,2747.07 L1937.69,2745.09 L1937.35,2742.93 L1937.14,2741.16 L1937.15,2740 L1937.25,2738.78 L1937.44,2737.6 L1937.69,2736.62 L1938.03,2735.65 L1938.55,2734.74 L1939.44,2733.5 L1939.52,2733.37 L1940.62,2732.19 L1942.08,2730.89 L1944.06,2729.38 L1946.83,2727.45 L1948.68,2726.18 L1949.38,2725.7 L1949.69,2725.47 L1951.11,2724.43 L1953.21,2722.65 L1954.8,2720.8 L1955.99,2719.16 L1956.9,2717.91 L1957.03,2717.74 L1957.91,2716.19 L1958.99,2713.67 L1959.86,2710.66 L1960.2,2708.83 L1960.28,2706.42 L1960.11,2704.11 L1960.06,2703.78 L1959.41,2699.69 L1958.85,2697.06 L1958.23,2695.14 L1957.39,2693.25 L1956.42,2691.54 L1956.13,2691.05 L1954.76,2688.6 L1952.34,2683.01 L1951.18,2680.22 L1951.04,2679.89 L1950.4,2678.34 L1950.05,2677.34 L1949.9,2676.67 L1948.67,2674.1 L1947.35,2671.34 L1944.92,2666.26 L1939.66,2655.77 L1933.3,2641.77 L1931.16,2636.98 L1929.97,2635.11 L1929.72,2634.98 L1928.7,2634.3 L1926.65,2633.07 L1926.2,2632.83 L1922.51,2630.91 L1917.82,2628.25 L1916.06,2627.25 L1913.4,2626.01 L1910.81,2624.9 L1907.08,2623.44 L1905.67,2622.88 L1902.11,2621.25 L1896.23,2617.92 L1895.31,2617.34 L1891.25,2614.78 L1889.83,2613.75 L1888.53,2612.81 L1888.21,2612.57 L1886.34,2610.94 L1884.66,2609.35 L1884.58,2609.26 L1884.31,2608.91 L1884.17,2608.72 L1883.49,2607.84 L1883.42,2607.76 L1882.58,2606.38 L1881.66,2604.39 L1880.88,2602.35 L1880.14,2600.18 L1879.31,2597.4 L1878.88,2596.11 L1878.57,2595.19 L1878.48,2594.93 L1877.97,2593.95 L1877.19,2592.79 L1876.23,2591.93 L1876.02,2591.81 L1874.63,2591.01 L1872.72,2590.23 L1872.29,2590.12 L1870.49,2589.67 L1868.5,2589.47 L1866.52,2589.27 L1866.44,2589.61 L1865.33,2593.86 L1864.32,2597.17 L1863.71,2598.62 L1863.4,2599.25 L1863.02,2599.79 L1861.94,2600.61 L1861.54,2600.95 L1861.2,2601.49 L1861.02,2602.2 L1860.93,2603.31 L1860.74,2606.4 L1860.57,2610.54 L1860.56,2612.79 L1860.47,2613.65 L1860.24,2614.22 L1859.84,2614.76 L1858.93,2615.44 L1856.16,2617.28 L1853.42,2619.29 L1852.07,2620.31 L1849.89,2621.95 L1845.61,2625.18 L1845.1,2625.55 L1844.67,2626.12 L1844.55,2626.63 L1844.55,2627.35 L1844.74,2628.29 L1845.05,2629.2 L1845.47,2630.06 L1845.83,2630.89 L1846.25,2632.13 L1846.65,2633.82 L1846.83,2634.55 L1847.39,2636.81 L1847.68,2638.37 L1847.78,2639.53 L1847.7,2641.07 L1847.39,2642.78 L1846.83,2644.62 L1845.88,2646.78 L1844.72,2648.76 L1843.58,2650.34 L1842.96,2651.11 L1842.68,2651.45 L1841.54,2652.58 L1839.06,2655.09 L1837.41,2656.86 L1835.74,2658.65 L1832.27,2662.26 L1829.69,2665.03 L1828.22,2666.61 L1823.37,2671.93 L1820.5,2675.28 L1819.49,2676.43 L1816.9,2679.37 L1813.36,2683.27 L1810.96,2685.91 L1808.54,2688.76 L1807.09,2690.39 L1806.87,2690.57 L1806.61,2690.65 L1806.28,2690.69 L1806.17,2690.69 L1805.47,2690.67 L1805.15,2690.71 L1804.87,2690.8 L1804.58,2690.99 L1804.24,2691.24 L1803.91,2691.36 L1803.53,2691.4 L1803.11,2691.37 L1802.75,2691.28 L1802.49,2691.23 L1802.26,2691.25 L1802.04,2691.36 L1801.85,2691.61 L1801.46,2692.37 L1801.27,2692.81 L1801.17,2693.47 L1801.21,2694.28 L1801.18,2694.93 L1801.08,2695.33 L1800.9,2695.65 L1800.57,2695.94 L1799.52,2696.49 L1798.77,2696.73 L1798.32,2696.84 L1798.04,2696.98 L1797.82,2697.26 L1797.4,2698.08 L1797.27,2698.25 L1797.11,2698.39 L1796.78,2698.43 L1796.24,2698.39 L1790.53,2697.55 L1790.33,2697.58 L1790.18,2697.68 L1790.1,2697.83 L1790.04,2698.11 L1789.99,2698.29 L1789.83,2698.39 L1789.64,2698.4 L1787.81,2698.15 L1784.14,2697.72 L1782.89,2697.63 L1781.26,2697.39 L1780.61,2697.34 L1779.79,2697.28 L1778.44,2697.29 L1776.11,2697.44 L1774.43,2697.56 L1773.87,2697.6 L1772.37,2697.76 L1771,2697.97 L1769.69,2698.27 L1768.76,2698.56 L1767.91,2698.82 L1767.15,2699.05 L1765.43,2699.54 L1765.08,2699.64 L1764.16,2699.76 L1762.79,2699.79 L1761.64,2699.73 L1760.19,2699.61 L1758.52,2699.6 L1758.24,2699.6 L1758.05,2699.53 L1757.95,2699.45 L1757.9,2699.3 L1757.87,2699.04 L1757.87,2698.24 L1757.86,2698.16 L1757.84,2698.04 L1757.72,2697.97 L1757.53,2697.94 L1755.25,2698.08 L1754.16,2698.15 L1753.9,2698.14 L1753.72,2698.08 L1753.6,2697.96 L1753.56,2697.76 L1753.54,2697.58 L1753.44,2697.4 L1753.2,2697.29 L1751.68,2697.11 L1749.3,2696.79 L1747.66,2696.67 L1746.23,2696.64 L1745.54,2696.65 L1745.03,2696.65 L1743.79,2696.75 L1743.39,2696.8 L1742.45,2696.91 L1741.23,2696.96 L1738.65,2697 L1736.35,2696.89 L1734.55,2696.73 L1733.14,2696.53 L1732.86,2696.49 L1732.03,2696.35 L1731.37,2696.24 L1729.73,2696.14 L1729.65,2698.52 L1727.62,2698.54 L1727.21,2703.24 L1722.49,2703.24 L1721.74,2703.66 L1721.48,2704.14 L1716.09,2704.85 L1714.55,2696.86 L1713.36,2692.5 L1712.07,2687.23 L1711.04,2682.86 L1710.32,2680.42 L1708.15,2675.64 L1707.46,2675.87 L1707.21,2675.39 L1705.66,2672.52 L1704.56,2670.28 L1702.24,2666.37 L1700.2,2663.29 L1698.64,2660.74 L1698.12,2659.97 L1697.78,2659.27 L1696.93,2656.15 L1695.68,2650.64 L1694.69,2645.78 L1694.64,2645.61 L1694.37,2645.43 L1690.93,2645.46 L1687.52,2645.51 L1687.24,2645.42 L1687.17,2645.14 L1687.2,2636.62 L1687.18,2636.18 L1687.07,2636.06 L1686.69,2636.1 L1682.3,2637.04 L1678.86,2637.87 L1678.31,2637.86 L1678.07,2637.74 L1677.97,2637.46 L1677.9,2636.79 L1677.68,2632.99 L1677.57,2632.29 L1677.47,2632.05 L1677.04,2629.8 L1676.98,2628.67 L1676.78,2627.17 L1676.74,2626.96 L1676.55,2626.87 L1674.38,2626.62 L1674.3,2626.43 L1674.33,2624.95 L1674.39,2621.79 L1674.48,2621.13 L1676.05,2613.96 L1676.12,2612.61 L1676.04,2612.4 L1675.64,2612.22 L1670.68,2610.61 L1670.59,2610.33 L1671.73,2605.49 L1671.82,2604.7 L1671.62,2601.62 L1671.58,2601.19 L1671.35,2601 L1669.53,2600.02 L1667.58,2599.27 L1665.78,2598.28 L1664.92,2596.97 L1663.44,2592.7 L1661.93,2589.29 L1660.86,2587.11 L1660.47,2586.28 L1660.02,2585.73 L1659.37,2585.15 L1656.29,2582.19 L1655.77,2581.33 L1655.16,2578.83 L1654.25,2573.57 L1653.55,2569.47 L1652.48,2562.94 L1652.35,2562.81 L1652.12,2562.77 L1648.7,2563.16 L1645.19,2563.27 L1640.92,2563.29 L1638.52,2563.08 L1637.16,2563.01 L1636.67,2563.06 L1635.58,2563.21 L1634.72,2563.25 L1633.96,2563.23 L1633.24,2563.14 L1632.44,2562.95 L1631.6,2562.75 L1630.95,2562.66 L1630.01,2562.69 L1626.24,2563.12 L1620.28,2563.78 L1619.64,2563.92 L1619.37,2564.09 L1619.15,2564.33 L1618.92,2564.53 L1618.67,2564.63 L1617.35,2564.68 L1616.02,2564.76 L1614.19,2564.88 L1610.39,2565.53 L1608.38,2565.82 L1607.64,2565.28 L1606.57,2564.93 L1605.54,2564.88 L1604,2564.98 L1602.94,2564.98 L1600.99,2565.12 L1599.33,2565.24 L1596.86,2565.8 L1590.87,2567.25 L1584.92,2569.55 L1580.73,2571.34 L1576.03,2572.79 L1568.14,2573.98 L1560.06,2576.18 L1557.5,2576.35 L1556.25,2576.22 L1554.18,2576 L1551.05,2575.65 L1548.58,2574.82 L1546.98,2573.76 L1545.56,2571.98 L1543.59,2568.63 L1542.18,2565.99 L1537.77,2556.89 L1531.87,2543.91 L1527.51,2534.72 L1524.28,2527.3 L1522.83,2523.94 L1521.71,2521.69 L1520.95,2520.73 L1520.2,2520.11 L1518.92,2519.48 L1517.5,2519.04 L1515.84,2518.6 L1513.8,2518.21 L1511.05,2517.66 L1508.49,2517.27 L1506.79,2516.97 L1505.7,2516.49 L1504.66,2515.57 L1503.53,2514.37 L1501.88,2511.73 L1499.86,2508.24 L1497.79,2504.83 L1496.71,2503.15 L1495.54,2499.85 L1494.94,2498.13 L1494.62,2496.12 L1494.54,2493.83 L1494.64,2491.49 L1495.03,2489.96 L1495.85,2488.44 L1496.76,2487.35 L1498.28,2485.92 L1500,2484.69 L1501.34,2483.31 L1502.63,2481.98 L1503.25,2480.51 L1503.88,2479.27 L1504.41,2477.65 L1504.66,2475.93 L1504.96,2473.64 L1504.68,2471.63 L1504.22,2470.1 L1503.42,2468.71 L1502.43,2467.61 L1501.06,2466.21 L1500.17,2464.97 L1499.41,2463.67 L1498.9,2462.38 L1498.69,2458.6 L1498.65,2456.03 L1498.76,2454.07 L1499.15,2452.16 L1499.35,2450.35 L1499.17,2448.34 L1498.75,2447.14 L1498.15,2445.61 L1497.28,2444.55 L1485.34,2440.7 L1483.62,2440.15 L1479.2,2438.84 L1476.29,2437.83 L1471.87,2436.24 L1469.85,2435.51 L1469.39,2435.35 L1466.2,2433.91 L1465.81,2433.73 L1464.07,2432.77 L1462.89,2432.12 L1461.28,2431.18 L1460.55,2430.63 L1460.24,2430.26 L1460.11,2429.86 L1459.97,2429.41 L1460,2428.33 L1459.95,2424.64 L1459.94,2420.31 L1459.91,2417.73 L1459.98,2416.65 L1460.09,2415.89 L1460.23,2415.18 L1460.41,2414.46 L1460.87,2413.53 L1461.39,2412.5 L1461.65,2412.03 L1461.73,2411.6 L1461.76,2411.15 L1461.73,2410.62 L1461.55,2410.06 L1461.39,2409.61 L1461.18,2408.99 L1460.68,2407.8 L1460.23,2406.9 L1459.63,2406.13 L1458.8,2405.16 L1458.08,2404.4 L1457.61,2403.91 L1456.75,2403.04 L1456.21,2402.44 L1455.9,2401.95 L1455.65,2401.22 L1455.43,2400.33 L1454.93,2397.3 L1454.76,2396.58 L1454.56,2395.78 L1454.31,2395.43 L1453.92,2395.07 L1453.35,2394.77 L1452.86,2394.63 L1452.32,2394.61 L1451.6,2394.73 L1450.97,2394.95 L1449.14,2395.7 L1446.89,2396.82 L1446.27,2397.01 L1445.83,2397.04 L1445.45,2396.97 L1445.09,2396.83 L1444.73,2396.57 L1444.47,2396.29 L1444.31,2396.12 L1443.62,2395.07 L1442.47,2392.79 L1441.54,2390.61 L1440.54,2388.43 L1440.21,2387.72 L1439.13,2385.41 L1437.56,2382.42 L1436.63,2380.79 L1435.75,2379.65 L1434.72,2378.63 L1433.93,2377.98 L1433.46,2377.73 L1433.35,2377.67 L1432.8,2377.45 L1431.98,2377.27 L1431.34,2377.23 L1429.93,2377.29 L1427.41,2377.39 L1425.88,2377.41 L1424.66,2377.34 L1423.69,2377.15 L1422.9,2376.78 L1421.96,2376.26 L1421.29,2375.71 L1421.01,2375.48 L1419.37,2374.27 L1418.31,2373.59 L1417.79,2373.33 L1417.1,2372.97 L1416.21,2372.6 L1414.97,2372.25 L1413.63,2371.97 L1412.13,2371.78 L1410.7,2371.58 L1409.66,2371.42 L1409.09,2371.11 L1408.69,2370.65 L1408.48,2369.73 L1408.22,2367.7 L1408.2,2366.6 L1408.33,2365.77 L1408.51,2364.97 L1408.91,2364.09 L1409.68,2362.8 L1410.82,2361.21 L1411.07,2360.9 L1412.02,2359.69 L1412.85,2358.62 L1413.44,2357.24 L1413.97,2355.52 L1414.34,2353.44 L1415.18,2346.69 L1415.31,2344.76 L1415.38,2343.84 L1415.29,2342.83 L1415.08,2342.06 L1414.6,2341.38 L1414.05,2340.92 L1413.2,2340.48 L1413.05,2340.43 L1412.23,2340.14 L1411.16,2339.89 L1409.97,2339.7 L1408.72,2339.6 L1407.82,2339.41 L1407.66,2339.37 L1406.72,2338.91 L1406.08,2338.35 L1405.32,2337.46 L1402.42,2333.7 L1401.39,2332.59 L1400.32,2331.87 L1398.92,2331.07 L1398.72,2330.96 L1398.01,2330.57 L1396.95,2329.74 L1396.13,2328.93 L1395.61,2328.05 L1395.2,2326.96 L1394.96,2325.43 L1394.69,2322.35 L1394.51,2320.24 L1394.33,2318.77 L1394.03,2317.66 L1393.88,2317.24 L1393.46,2316.09 L1392.02,2313.17 L1389.72,2309.47 L1387.24,2305.89 L1386.03,2304.35 L1385.96,2304.27 L1384.58,2302.66 L1383.61,2301.45 L1382.76,2300.25 L1382.68,2300.13 L1381.82,2298.77 L1380.7,2297.26 L1379.22,2295.81 L1377.79,2294.67 L1377.17,2294.36 L1376.73,2294.14 L1375.36,2293.55 L1373.66,2292.96 L1370.4,2291.92 L1368.6,2291.11 L1367.14,2290.34 L1365.87,2289.35 L1364.47,2288.19 L1363.38,2287.28 L1361.32,2285.79 L1360.43,2285.48 L1359.82,2285.45 L1359.06,2285.5 L1356.55,2286.84 L1354.47,2288.19 L1352.87,2289.56 L1350.97,2291.19 L1348.36,2293.67 L1346.68,2294.86 L1346.53,2294.93 L1344,2296.11 L1340.47,2297.66 L1338.06,2298.43 L1330,2299.91 L1323.4,2300.84 L1321.32,2301.31 L1319.5,2301.86 L1317.62,2302.48 L1317.38,2302.56 L1313.03,2304.02 L1306.43,2306.46 L1301.45,2308.18 L1296.29,2309.49 L1295.61,2309.65 L1294.64,2309.89 L1293.58,2310.14 L1290.3,2310.86 L1288.46,2311.37 L1287,2311.81 L1283.74,2312.86 L1281.88,2313.45 L1281.69,2313.51 L1280.63,2313.85 L1278.04,2314.52 L1274.99,2315.11 L1274.01,2315.21 L1273.42,2315.15 L1272.36,2314.83 L1271.93,2314.69 L1270.42,2314.23 L1269.13,2313.99 L1268.13,2313.9 L1266.76,2313.89 L1264.63,2313.98 L1262.02,2314.07 L1259.6,2314.27 L1252.63,2315.13 L1249.75,2315.43 L1247.47,2315.81 L1245.84,2316.2 L1244.99,2316.55 L1243.94,2317.11 L1243.29,2317.52 L1243.11,2317.63 L1242.77,2317.84 L1241.14,2318.94 L1239.82,2320.03 L1238.6,2321.07 L1236.54,2323.14 L1236.19,2323.62 L1235.85,2324.18 L1235.36,2325.25 L1234.46,2327.18 L1234.31,2327.51 L1233.87,2328.18 L1233.21,2329.2 L1232.63,2329.85 L1231.87,2330.31 L1230.99,2330.76 L1230.41,2331.05 L1231.23,2333.02 L1231.44,2333.52 L1232.28,2334.99 L1232.95,2335.81 L1233.65,2336.49 L1234.42,2337.19 L1235.17,2337.71 L1235.77,2338.1 L1236.54,2338.56 L1238.31,2339.41 L1241.63,2340.96 L1244.9,2342.09 L1246.57,2342.65 L1248.5,2342.96 L1249.06,2343.05 L1249.3,2343.13 L1249.77,2343.44 L1250.38,2343.74 L1251.62,2344.26 L1253.04,2344.89 L1254.19,2345.39 L1255.41,2346.01 L1256.18,2346.47 L1256.76,2346.84 L1257.61,2347.51 L1258.85,2348.57 L1260.04,2349.59 L1260.92,2350.4 L1261.58,2351.15 L1262.09,2351.82 L1262.47,2352.39 L1262.76,2352.97 L1263.2,2353.92 L1263.67,2355.25 L1264.11,2356.87 L1264.6,2358.24 L1264.79,2358.93 L1264.94,2359.57 L1264.97,2359.89 L1264.96,2360.72 L1264.89,2361.65 L1264.91,2363.09 L1264.98,2365.08 L1264.99,2366.3 L1264.93,2367.42 L1264.84,2368.49 L1264.71,2369.83 L1264.68,2370 L1264.46,2371.37 L1264.16,2372.82 L1263.96,2373.56 L1263.77,2374.04 L1263.61,2374.31 L1263.46,2374.45 L1263.18,2374.61 L1262.68,2374.83 L1261.28,2375.36 L1260.09,2375.84 L1259.87,2375.92 L1259.04,2376.21 L1257.07,2376.83 L1252.76,2378.42 L1249.93,2379.53 L1246.67,2380.77 L1245.46,2381.03 L1242.18,2381.13 L1237.8,2381.43 L1234.88,2381.64 L1230.02,2382.02 L1226.71,2382.33 L1224.97,2382.49 L1222.87,2382.86 L1218.3,2383.36 L1215.37,2383.62 L1213.31,2383.67 L1209.29,2383.55 L1206,2383.53 L1204.66,2383.49 L1203.6,2383.6 L1202.37,2383.86 L1200.91,2384.2 L1199.44,2384.56 L1198.33,2384.92 L1195.57,2385.69 L1194.2,2386.02 L1193.15,2386.1 L1192.06,2386.04 L1190.79,2385.96 L1188.26,2385.46 L1186.46,2385.05 L1184.95,2384.53 L1183.86,2384.06 L1182.61,2383.23 L1181.91,2382.77 L1181.27,2382.21 L1180.55,2381.43 L1179.64,2380.1 L1178.34,2378.23 L1176.37,2375.69 L1175.56,2374.77 L1174.72,2374.15 L1173.6,2373.6 L1172.51,2373.2 L1171.52,2372.95 L1170.33,2372.75 L1169.38,2372.68 L1168.01,2372.71 L1166.75,2372.77 L1165.38,2372.92 L1164.49,2373.07 L1163.35,2373.44 L1162.34,2373.86 L1159.75,2375.31 L1157.99,2376.33 L1156.03,2377.3 L1154.39,2378.2 L1153.11,2379 L1152.1,2379.77 L1151.28,2380.6 L1149.55,2382.49 L1148.65,2383.59 L1148.19,2384.55 L1147.94,2385.37 L1147.81,2386.21 L1147.71,2387.99 L1147.67,2389.08 L1147.65,2389.62 L1147.64,2391.58 L1147.64,2391.98 L1147.59,2392.51 L1147.37,2393.05 L1145.75,2396.34 L1145.4,2397.01 L1144.12,2398.98 L1143.38,2400.12 L1142.15,2401.78 L1140.8,2403.49 L1140.2,2404.24 L1139.52,2405.48 L1138.75,2407.34 L1138.06,2409.15 L1137.3,2411.31 L1136.9,2412.88 L1136.78,2413.86 L1136.61,2415.4 L1136.46,2418.01 L1136.4,2419.17 L1136.42,2420.97 L1136.49,2423.75 L1136.61,2424.87 L1136.94,2427.33 L1137.8,2432.38 L1137.98,2433.72 L1137.97,2434.3 L1137.9,2434.95 L1137.72,2435.47 L1137.4,2435.98 L1136.99,2436.49 L1136.19,2437.15 L1135.29,2437.75 L1134.65,2438.05 L1134.21,2438.12 L1133.64,2438.07 L1132.96,2437.86 L1132.13,2437.52 L1131.39,2437.11 L1130.74,2436.68 L1130.07,2436.1 L1129.58,2435.6 L1128.95,2434.97 L1127.94,2433.94 L1127.03,2433.05 L1126.17,2432.15 L1125.06,2431.18 L1124.16,2430.51 L1123.2,2429.97 L1121.98,2429.31 L1120.12,2428.36 L1118.97,2427.65 L1117.97,2426.87 L1117.16,2426.03 L1116.15,2424.59 L1115.24,2423.19 L1114.19,2421.5 L1113.08,2419.84 L1112.14,2418.56 L1110.5,2416.73 L1109.15,2415.4 L1107.01,2413.32 L1105.27,2411.8 L1103.65,2410.41 L1101.47,2408.79 L1100.4,2408.01 L1099,2407.18 L1096.74,2406.08 L1094.06,2404.64 L1090.84,2402.97 L1087.69,2401.51 L1085.22,2400.43 L1082.04,2399.08 L1079.94,2398.11 L1077.65,2397.13 L1074.17,2395.53 L1071.95,2394.53 L1070.92,2394.19 L1069.57,2393.77 L1067.92,2393.29 L1065.35,2392.68 L1063.82,2392.29 L1062.53,2391.87 L1061.71,2391.5 L1061.05,2391.07 L1060.42,2390.63 L1059.1,2389.62 L1057.65,2388.45 L1057.03,2387.97 L1056.03,2387.29 L1055.07,2386.78 L1053.99,2386.23 L1052.06,2385.43 L1049.27,2384.24 L1046.77,2383.2 L1043.2,2381.77 L1040.77,2380.76 L1037.56,2379.44 L1035.6,2378.62 L1033.9,2377.92 L1032.95,2377.57 L1031.57,2377.12 L1030.61,2376.87 L1028.63,2376.58 L1026.13,2376.06 L1024.51,2375.64 L1023.45,2375.31 L1022.2,2374.79 L1021.04,2374.39 L1019.76,2373.93 L1018.61,2373.45 L1017.93,2373.13 L1017.39,2372.8 L1016.87,2372.43 L1016.06,2371.8 L1015.03,2370.8 L1013.52,2369.31 L1012.42,2368.19 L1010.99,2366.77 L1009.23,2364.9 L1008.12,2363.76 L1007.34,2362.88 L1006.87,2362.28 L1006.31,2361.39 L1005.47,2360.1 L1003.9,2357.66 L1002.62,2355.64 L1001.68,2354.23 L1000.32,2352.15 L999.222,2350.24 L998.139,2348.61 L997.1,2346.84 L996.219,2345.44 L995.628,2344.34 L995.109,2343.4 L994.546,2342.37 L993.957,2341.06 L993.483,2339.89 L993.023,2338.71 L992.549,2337.46 L992.032,2336.24 L991.211,2334.47 L990.65,2333.29 L990.421,2332.61 L990.122,2331.41 L989.768,2329.53 L989.386,2327.59 L989.158,2326.03 L989.091,2325.57 L988.64,2322.99 L988.442,2321.78 L988.215,2320.86 L987.943,2319.96 L987.705,2319.29 L986.834,2317.54 L985.68,2315.61 L984.625,2314.27 L983.338,2312.91 L981.871,2311.36 L980.777,2310 L980.468,2309.5 L979.757,2308.34 L978.616,2306.49 L976.077,2307.85 L975.568,2308.11 L974.171,2308.83 L972.034,2309.95 L971.436,2310.27 L971.355,2310.42 L971.239,2310.79 L970.982,2311.61 L970.737,2312.5 L970.422,2313.49 L970.004,2314.4 L969.692,2315.05 L969.541,2315.31 L969.334,2315.47 L968.473,2315.77 L966.878,2316.26 L965.066,2316.84 L963.172,2317.49 L961.726,2318.02 L960.107,2318.69 L957.225,2319.95 L956.168,2320.42 L954.802,2320.95 L952.278,2321.79 L950.855,2322.29 L950.304,2322.49 L949.89,2322.72 L949.086,2323.25 L947.97,2323.98 L947.269,2324.47 L946.291,2325.26 L944.565,2326.69 L943,2328.05 L942.159,2328.81 L941.675,2329.28 L940.672,2330.38 L940.548,2330.51 L939.751,2331.35 L938.958,2331.89 L938.153,2332.38 L937.556,2332.62 L936.661,2332.93 L936.225,2332.98 L933.87,2333.19 L931.672,2333.18 L930.859,2333.14 L928.982,2332.79 L927.803,2332.55 L927.357,2332.44 L926.66,2332.22 L926.032,2332 L925.62,2331.82 L925.277,2331.63 L924.99,2331.44 L924.833,2331.33 L924.421,2331.08 L923.828,2330.7 L923.257,2330.37 L922.778,2330.16 L922.343,2329.98 L921.36,2329.65 L919.577,2328.92 L918.983,2328.73 L918.479,2328.65 L917.975,2328.63 L917.23,2328.64 L915.581,2328.62 L912.959,2328.56 L910.955,2328.46 L910.027,2328.45 L909.099,2328.49 L908.217,2328.54 L907.679,2328.54 L907.015,2328.44 L906.443,2328.35 L905.539,2328.19 L904.91,2328.03 L903.892,2327.74 L903.126,2327.5 L902.326,2327.32 L901.776,2327.25 L901.341,2327.21 L900.836,2327.28 L900.275,2327.42 L899.855,2327.59 L899.195,2327.84 L898.082,2328.26 L896.636,2328.82 L895.683,2329.16 L895.328,2329.22 L894.996,2329.23 L894.653,2329.19 L893.588,2328.94 L892.559,2328.73 L891.598,2328.5 L890.888,2328.4 L889.812,2328.31 L888.267,2328.14 L886.698,2328 L885.794,2327.94 L885.267,2327.96 L884.705,2328.13 L883.213,2328.63 L882.317,2328.98 L880.986,2329.45 L879.954,2329.75 L879.438,2329.83 L878.544,2329.83 L877.284,2329.96 L875.542,2330.09 L873.457,2330.27 L872.551,2330.43 L871.507,2330.58 L870.831,2330.77 L869.672,2331.19 L868.202,2331.76 L867.032,2332.22 L866.228,2332.51 L865.688,2332.7 L865.07,2332.84 L864.084,2332.97 L862.812,2333.02 L861.644,2333.04 L860.911,2333.08 L860.303,2333.2 L859.752,2333.38 L859.407,2333.58 L858.914,2334.03 L855.01,2333.06 L851.901,2332.24 L850.129,2331.87 L849.611,2331.49 L849.403,2329.96 L849.276,2329.27 L848.744,2326.38 L848.666,2325.66 L848.424,2325.36 L847.99,2325.2 L842.808,2324.51 L842.402,2324.4 L842.268,2323.99 L842.043,2320.52 L841.946,2318.47 L841.894,2317.89 L841.733,2317.65 L841.165,2317.4 L839.726,2317.2 L836.959,2316.86 L834.842,2316.68 L834.244,2316.81 L832.177,2317.43 L829.784,2318.15 L827.718,2318.63 L827.148,2318.71 L826.632,2318.6 L825.28,2317.72 L822.575,2315.79 L819.222,2313.34 L817.575,2312.04 L816.16,2310.4 L814.332,2308.12 L813.242,2307.1 L810.164,2304.83 L808.505,2303.81 L805.928,2302.12 L802.827,2300.03 L801.801,2299.36 L801.386,2299.16 L800.684,2299.16 L799.041,2299.06 L794.462,2298.99 L791.284,2298.99 L790.999,2299.15 L790.668,2299.43 L790.361,2299.58 L789.746,2299.67 L788.869,2299.91 L788.167,2300.03 L787.31,2300.29 L786.477,2300.33 L784.965,2300.37 L784.482,2300.45 L784.218,2300.65 L783.974,2301.16 L783.949,2301.77 L783.857,2302.5 L783.679,2303.1 L783.524,2303.32 L783.217,2303.49 L781.847,2303.64 L779.053,2303.96 L778.691,2304.02 L778.328,2304.27 L777.816,2304.69 L775.076,2306.91 L773.97,2307.7 L773.739,2307.98 L773.638,2308.21 L773.634,2309 L773.76,2313.07 L773.781,2314.58 L773.783,2314.74 L773.764,2315.32 L773.63,2315.67 L773.383,2315.88 L773.069,2316.06 L772.099,2316.22 L771.014,2316.35 L770.191,2316.41 L769.55,2316.42 L769.139,2316.5 L768.595,2316.73 L768.266,2316.86 L767.796,2317.07 L764.318,2317.34 L755.313,2318.41 L749.261,2318.99 L743.599,2319.55 L741.338,2319.77 L738.443,2320.17 L735.312,2321 L728.494,2322.88 L726.37,2323.53 L722.67,2324.67 L712.016,2327.93 L707.802,2329.02 L700.221,2331.57 L694.982,2333.13 L692.7,2333.61 L688.342,2334.41 L687.407,2334.53 L686.297,2334.46 L684.076,2334.36 L682.09,2334.26 L680.453,2334.4 L678.845,2334.63 L671.443,2336.35 L665.092,2337.68 L664.606,2333.93 L663.802,2329.97 L662.275,2325.83 L660.897,2323.23 L659.082,2321.03 L654.959,2318.28 L651.558,2316.96 L648.177,2317.01 L644.158,2317.64 L640.303,2319.23 L636.573,2320.41 L632.492,2321.21 L625.365,2323 L620.31,2323.73 L615.323,2324.53 L611.163,2324.43 L607.756,2323.44 L605.077,2321.97 L601.944,2319.01 L598.46,2315.05 L596.213,2311.83 L594.668,2309 L593.353,2305.32 L592.791,2302.72 L592.255,2298.93 L591.41,2293.53 L590.174,2287.8 L589.432,2282.69 L588.392,2279.04 L587.176,2274.13 L586.449,2270.27 L586.227,2266.8 L586.442,2262.96 L586.47,2259.43 L586.015,2257.1 L585.469,2255.71 L584.586,2254.64 L583.252,2253.92 L581.639,2253.48 L579.814,2253.35 L574.975,2253.93 L572.084,2254.08 L568.913,2253.79 L564.685,2253.1 L560.388,2252.25 L554.717,2251.56 L550.473,2250.9 L543.548,2249.6 L535.447,2248.34 L531.304,2247.48 L526.934,2246.26 L523.059,2244.76 L519.292,2242.95 L517.228,2241.48 L515.909,2239.79 L514.814,2237.65 L514.04,2235.6 L513.932,2234.14 L514.01,2232.74 L515.164,2229.73 L516.957,2224.83 L518.009,2220.58 L519.369,2215.84 L520.997,2210.23 L523.574,2203.53 L525.367,2199.68 L526.748,2195.56 L528.665,2191.54 L530.747,2186.18 L532.664,2182.47 L535.055,2178.53 L536.766,2174.9 L538.498,2170.37 L540.373,2165.91 L541.878,2162.64 L544.29,2158.18 L545.898,2153.98 L546.845,2150.6 L547.918,2146.72 L548.247,2142.7 L548.123,2138.75 L548.083,2134.93 L548.618,2131.95 L548.99,2125.74 L549.175,2122.11 L548.618,2119.95 L547.361,2115.85 L546.145,2110.45 L544.97,2102.35 L544.393,2098.61 L544.784,2095.25 L544.681,2091.09 L545.155,2087.01 L545.712,2081.65 L546.269,2077.34 L547.423,2072.62 L548.721,2067.3 L550.206,2063.35 L552.205,2059.97 L554.184,2057.49 L556.657,2054.59 L560.367,2050.03 L563.274,2046.84 L565.748,2043.43 L568.345,2040.36 L570.488,2038.16 L573.787,2035.75 L578.795,2031.87 L582.527,2029.01 L585.742,2026.43 L588.916,2022.74 L592.4,2019.24 L595.925,2015.28 L598.748,2013.11 L602.211,2009.63 L605.427,2006.1 L607.756,2003.3 L609.508,2001.12 L611.157,1997.86 L612.27,1994.77 L612.806,1992.31 L613.012,1988.69 L612.415,1985.47 L611.363,1982.13 L610.127,1979.72 L607.983,1976.17 L605.55,1972.4 L602.253,1967.52 L599.49,1962.78 L597.223,1958.88 L596.275,1955.89 L596.254,1953.44 L596.955,1950.08 L598.274,1946.97 L599.372,1944.77 L600.604,1942.7 L601.884,1941.18 L603.654,1939.63 L607.262,1935.55 L609.694,1930.68 L610.683,1927.26 L611.075,1921.47 L610.819,1918.27 L609.405,1911.72 L607.895,1906.85 L607.282,1903.8 L606.334,1897.66 L605.55,1892.18 L605.736,1887.91 L606.746,1884.55 L608.045,1881.87 L610.827,1878.84 L614.414,1876.04 L619.403,1872.41 L622.989,1868.16 L625.298,1864.56 L628.555,1860.52 L629.956,1857.55 L630.822,1853.69 L630.987,1849.3 L631.254,1845.61 L630.369,1841.14 L629.667,1837.66 L628.431,1833.49 L627.112,1830.77 L624.782,1827.1 L621.835,1824.18 L618.475,1822.63 L615.651,1820.63 L611.405,1816.69 L607.22,1812.92 L602.438,1807.79 L599.099,1804.16 L596.316,1801.26 L595.1,1797.96 L594.873,1795.07 L595.492,1790.83 L596.584,1786.81 L598.254,1783.86 L600.253,1781.16 L603.16,1778 L606.375,1775.43 L611.446,1771.59 L616.022,1768.03 L619.938,1765.25 L621.711,1762.9 L623.442,1760.15 L625.194,1757.1 L625.957,1754.98 L628.204,1751.56 L630.574,1749.48 L633.872,1746.86 L636.738,1745.09 L640.118,1744.18 L643.725,1742.59 L645.354,1741.07 L647.188,1739.19 L648.672,1736.24 L649.579,1733.77 L650.28,1730.76 L651.084,1727.38 L651.476,1725.11 L651.558,1722.76 L651.455,1718.91 L651.683,1713.43 L651.314,1710.51 L650.651,1708.84 L648.864,1705.35 L646.034,1703.19 L641.87,1700.76 L637.789,1700.06 L633.419,1700.06 L629.255,1699.89 L619.979,1698.65 L614.002,1697.17 L610.456,1696.92 L607.241,1698.2 L602.541,1700.39 L594.956,1703.27 L589.638,1706.28 L585.557,1709.5 L581.351,1712.38 L576.693,1713.66 L573.024,1713.99 L568.324,1713.78 L562.717,1713.25 L555.833,1711.19 L551.092,1708.38 L546.887,1704.38 L542.641,1699.27 L539.054,1693.46 L537.158,1689.3 L536.539,1684.31 L535.921,1679.36 L535.22,1673.42 L534.478,1667.12 L533.406,1662.46 L532.087,1658.58 L530.355,1655.57 L529.242,1652.65 L528.335,1649.1 L527.47,1644.69 L527.635,1640.48 L527.428,1636.98 L527.437,1633.74 L527.647,1631.79 L528.459,1629.02 L529.572,1626.51 L531.262,1623.91 L533.942,1621.19 L537.24,1618.88 L540.827,1617.61 L545.815,1617.4 L552.122,1617.73 L557.523,1617.98 L562.305,1616.82 L567.211,1615.01 L571.746,1613.28 L577.435,1613.15 L582.093,1613.57 L586.628,1613.07 L590.545,1611.67 L593.389,1609.81 L595.409,1607.09 L596.934,1603.55 L598.501,1599.88 L600.727,1596.66 L602.871,1593.65 L607.035,1590.85 L611.57,1588.42 L615.28,1586.27 L619.691,1585.33 L626.617,1583.97 L629.709,1583.14 L633.501,1581.7 L641.467,1578.01 L649.891,1573.72 L646.839,1566.63 L645.938,1564.49 L644.402,1560.97 L641.713,1555 L640.042,1551.49 L638.577,1548.63 L637.926,1547.36 L637.201,1545.98 L636.52,1544.62 L636.138,1543.5 L635.947,1542.75 L635.773,1541.82 L635.686,1540.74 L635.694,1539.18 L634.894,1539.37 L634.823,1539.39 L634.49,1539.49 L634.099,1539.61 L633.647,1539.81 L633.488,1539.9 L633.055,1540.14 L632.142,1540.72 L631.611,1541.01 L629.803,1541.83 L629.271,1542.07 L628.597,1542.37 L627.219,1540.06 L625.838,1538.45 L624.058,1536.73 L614.479,1531.27 L608.32,1527.94 L602.825,1526.02 L600.207,1525.28 L598.592,1524.94 L596.788,1524.73 L595.051,1524.73 L593.681,1525.14 L592.406,1525.64 L570.264,1537.58 L569.45,1536.86 L568.487,1536.55 L567.498,1536.86 L564.74,1538.44 L561.325,1540.01 L556.759,1541.34 L512.818,1554.32 L510.051,1555.15 L506.992,1555.82 L489.332,1559.22 L484.994,1560.19 L481.095,1561.88 L474.684,1564.91 L469.608,1567.01 L464.11,1568.46 L458.613,1569.39 L450.906,1570.6 L447.837,1570.53 L444.988,1569.58 L440.531,1567.9 L439.368,1567.39 L438.668,1567.08 L435.78,1565.81 L429.32,1562.25 L422.385,1557.8 L415.797,1553.96 L409.063,1550.26 L400.763,1546.72 L397.181,1545.19 L394.403,1543.59 L392.5,1541.4 L391.456,1538.66 L391.483,1535.53 L392.824,1527.6 L393.635,1522.93 L393.716,1519.94 L393.075,1517.32 L391.056,1510 L390.369,1505.44 L390.45,1497.36 L390.855,1483.58 L391.991,1469.35 L392.253,1465.91 L392.005,1462.32 L391.215,1459.45 L389.781,1456.42 L387.425,1452.55 L384.1,1447.65 L379.601,1442.39 L375.54,1438.37 L367.931,1432.17 L366.878,1430.79 L366.046,1428.82 L365.402,1425.04 L365.43,1421.35 L366.217,1415.58 L367.698,1406.97 L368.084,1402.52 L367.906,1398.38 L367.405,1394.4 L366.774,1389.68 L365.706,1385.25 L363.789,1379.24 L362.867,1375.33 L362.15,1371.29 L361.653,1367.33 L361.791,1362.84 L362.773,1359.06" vector-effect="none" fill-rule="evenodd"/>
  </g>
  <g stroke-linejoin="bevel" stroke-linecap="square" font-style="normal" transform="matrix(0.999744,0,0,0.999744,0,0)" stroke-width="1" font-size="34.5833" font-weight="400" stroke="#000000" stroke-opacity="1" font-family="MS Shell Dlg 2" fill="none"/>
  <g stroke-linejoin="bevel" stroke-linecap="square" font-style="normal" transform="matrix(11.808,0,0,11.808,0,0)" stroke-width="1" font-size="34.5833" font-weight="400" stroke="#000000" stroke-opacity="1" font-family="MS Shell Dlg 2" fill="none"/>
  <g stroke-linejoin="bevel" stroke-linecap="square" font-style="normal" transform="matrix(11.808,0,0,11.808,0,0)" stroke-width="1" font-size="34.5833" font-weight="400" stroke="#000000" stroke-opacity="1" font-family="MS Shell Dlg 2" fill="none"/>
  <g stroke-linejoin="bevel" stroke-linecap="square" font-style="normal" transform="matrix(11.808,0,0,11.808,0,0)" stroke-width="1" font-size="34.5833" font-weight="400" stroke="#000000" stroke-opacity="1" font-family="MS Shell Dlg 2" fill="none"/>
  <g stroke-linejoin="bevel" stroke-linecap="square" font-style="normal" transform="matrix(1,0,0,1,0,0)" stroke-width="1" font-size="34.5833" font-weight="400" stroke="#000000" stroke-opacity="1" font-family="MS Shell Dlg 2" fill="none"/>
  <g stroke-linejoin="bevel" stroke-linecap="square" font-style="normal" transform="matrix(11.808,0,0,11.808,0,0)" stroke-width="1" font-size="34.5833" font-weight="400" stroke="#000000" stroke-opacity="1" font-family="MS Shell Dlg 2" fill="none"/>
  <g stroke-linejoin="bevel" stroke-linecap="square" font-style="normal" transform="matrix(11.808,0,0,11.808,0,0)" stroke-width="1" font-size="34.5833" font-weight="400" stroke="#000000" stroke-opacity="1" font-family="MS Shell Dlg 2" fill="none"/>
  <g stroke-linejoin="bevel" stroke-linecap="square" font-style="normal" transform="matrix(11.808,0,0,11.808,0,0)" stroke-width="1" font-size="34.5833" font-weight="400" stroke="#000000" stroke-opacity="1" font-family="MS Shell Dlg 2" fill="none"/>
  <g stroke-linejoin="bevel" stroke-linecap="square" font-style="normal" transform="matrix(11.808,0,0,11.808,0,0)" stroke-width="1" font-size="34.5833" font-weight="400" stroke="#000000" stroke-opacity="1" font-family="MS Shell Dlg 2" fill="none"/>
  <g stroke-linejoin="bevel" stroke-linecap="square" font-style="normal" transform="matrix(1,0,0,1,0,0)" stroke-width="1" font-size="34.5833" font-weight="400" stroke="#000000" stroke-opacity="1" font-family="MS Shell Dlg 2" fill="none"/>
 </g>
</svg>
