<?xml version='1.0' encoding='UTF-8' standalone='no'?>
<svg xmlns="http://www.w3.org/2000/svg" baseProfile="tiny" viewBox="0 0 2952 2952" height="249.936mm" xmlns:xlink="http://www.w3.org/1999/xlink" version="1.2" width="249.936mm">
 <title>Qt SVG Document</title>
 <desc>Generated with Qt</desc>
 <defs/>
 <g stroke-linejoin="bevel" stroke-linecap="square" fill-rule="evenodd" stroke-width="1" stroke="black" fill="none">
  <g stroke-linejoin="bevel" stroke-linecap="square" font-style="normal" transform="matrix(1,0,0,1,0,0)" stroke-width="1" font-size="34.5833" font-weight="400" stroke="#000000" stroke-opacity="1" font-family="MS Shell Dlg 2" fill="none"/>
  <g stroke-linejoin="bevel" stroke-linecap="square" font-style="normal" transform="matrix(1,0,0,1,0,0)" stroke-width="1" font-size="34.5833" font-weight="400" stroke="#000000" stroke-opacity="1" font-family="MS Shell Dlg 2" fill="none"/>
  <g stroke-linejoin="bevel" stroke-linecap="square" font-style="normal" transform="matrix(11.808,0,0,11.808,0,0)" stroke-width="1" font-size="34.5833" font-weight="400" stroke="#000000" stroke-opacity="1" font-family="MS Shell Dlg 2" fill="none"/>
  <g stroke-linejoin="bevel" stroke-linecap="square" font-style="normal" transform="matrix(0.999744,0,0,0.999744,0,0)" stroke-width="1" font-size="34.5833" font-weight="400" stroke="#000000" stroke-opacity="1" font-family="MS Shell Dlg 2" fill="none"/>
  <g font-style="normal" fill-opacity="0" transform="matrix(0.999744,0,0,0.999744,0,0)" font-size="34.5833" font-weight="400" stroke="none" font-family="MS Shell Dlg 2" fill="#ffffff">
   <path d="M-2,-2 L2955,-2 L2955,2955 L-2,2955 L-2,-2" vector-effect="none" fill-rule="evenodd"/>
  </g>
  <g stroke-linejoin="bevel" stroke-linecap="square" font-style="normal" transform="matrix(0.999744,0,0,0.999744,0,0)" stroke-width="1" font-size="34.5833" font-weight="400" stroke="#000000" stroke-opacity="1" font-family="MS Shell Dlg 2" fill="none"/>
  <g stroke-linejoin="bevel" stroke-linecap="square" font-style="normal" transform="matrix(11.808,0,0,11.808,0,0)" stroke-width="1" font-size="34.5833" font-weight="400" stroke="#000000" stroke-opacity="1" font-family="MS Shell Dlg 2" fill="none"/>
  <g stroke-linejoin="bevel" stroke-linecap="square" font-style="normal" transform="matrix(11.808,0,0,11.808,0,0)" stroke-width="1" font-size="34.5833" font-weight="400" stroke="#000000" stroke-opacity="1" font-family="MS Shell Dlg 2" fill="none"/>
  <g stroke-linejoin="bevel" stroke-linecap="square" font-style="normal" transform="matrix(11.808,0,0,11.808,0,0)" stroke-width="1" font-size="34.5833" font-weight="400" stroke="#000000" stroke-opacity="1" font-family="MS Shell Dlg 2" fill="none"/>
  <g stroke-linejoin="bevel" stroke-linecap="square" font-style="normal" transform="matrix(11.808,0,0,11.808,0,0)" stroke-width="1" font-size="34.5833" font-weight="400" stroke="#000000" stroke-opacity="1" font-family="MS Shell Dlg 2" fill="none"/>
  <g stroke-linejoin="bevel" stroke-linecap="square" font-style="normal" transform="matrix(11.808,0,0,11.808,0,0)" stroke-width="1" font-size="34.5833" font-weight="400" stroke="#000000" stroke-opacity="1" font-family="MS Shell Dlg 2" fill="none"/>
  <g font-style="normal" fill-opacity="0" transform="matrix(11.808,0,0,11.808,0,0)" font-size="34.5833" font-weight="400" stroke="none" font-family="MS Shell Dlg 2" fill="#ffffff">
   <path d="M0,0 L250,0 L250,250 L0,250 L0,0" vector-effect="none" fill-rule="evenodd"/>
  </g>
  <g stroke-linejoin="bevel" stroke-linecap="square" font-style="normal" transform="matrix(11.808,0,0,11.808,0,0)" stroke-width="1" font-size="34.5833" font-weight="400" stroke="#000000" stroke-opacity="1" font-family="MS Shell Dlg 2" fill="none"/>
  <g stroke-linejoin="bevel" stroke-linecap="square" font-style="normal" transform="matrix(11.808,0,0,11.808,0,0)" stroke-width="1" font-size="34.5833" font-weight="400" stroke="#000000" stroke-opacity="1" font-family="MS Shell Dlg 2" fill="none"/>
  <g font-style="normal" fill-opacity="0" transform="matrix(0.999744,0,0,0.999744,0,0)" font-size="34.5833" font-weight="400" stroke="none" font-family="MS Shell Dlg 2" fill="#000000">
   <rect height="2953" width="2953" x="0" y="0"/>
  </g>
  <g stroke-linejoin="bevel" stroke-linecap="square" font-style="normal" transform="matrix(0.999744,0,0,0.999744,0,0)" stroke-width="1" font-size="34.5833" font-weight="400" stroke="#000000" stroke-opacity="1" font-family="MS Shell Dlg 2" fill="none"/>
  <g stroke-linejoin="bevel" stroke-linecap="square" font-style="normal" fill-opacity="1" transform="matrix(0.999744,0,0,0.999744,0,0)" stroke-width="3.07087" font-size="34.5833" font-weight="400" stroke="#5c5c5c" stroke-opacity="1" font-family="MS Shell Dlg 2" fill="#c5c5c5">
   <path d="M88.598,687.657 L89.1788,686.771 L98.7447,672.17 L105.02,661.235 L105.195,661.003 L105.362,660.78 L104.749,658.908 L103.903,656.324 L104.183,656.247 L109.123,654.896 L112.095,654.083 L114.425,653.682 L114.527,653.665 L126.878,653.245 L127.794,651.336 L127.95,651.012 L132.865,640.771 L136.244,633.617 L136.786,632.909 L137.157,632.424 L137.222,632.436 L137.445,632.512 L138.436,632.973 L139.937,633.652 L141.111,634.121 L142.3,634.559 L143.636,634.907 L144.33,635.03 L145.472,635.16 L145.808,635.185 L147.342,635.179 L148.224,635.115 L149.039,635.003 L150.34,634.751 L150.57,634.692 L152.063,634.159 L154.641,633.135 L156.638,632.409 L158.099,631.799 L160.021,631.058 L161.481,630.509 L162.882,629.96 L164.506,629.336 L165.271,629.01 L166.529,628.519 L166.911,628.391 L167.823,628.046 L169.081,627.525 L170.333,627.065 L171.972,626.398 L173.85,625.671 L176.92,624.438 L178.708,623.711 L179.706,623.28 L181.659,622.538 L184.341,621.499 L184.512,621.421 L185.071,621.235 L191.612,618.712 L194.379,618.308 L197.085,618.495 L200.025,619.275 L212.575,624.652 L214.244,625.367 L217.871,626.845 L224.351,629.489 L237.54,634.853 L237.711,634.897 L239.928,635.383 L241.688,635.769 L244.688,636.076 L248.691,635.795 L250.477,635.389 L252.112,635.017 L253.049,634.804 L253.74,634.562 L254.16,634.416 L256.408,633.632 L260.889,631.161 L271.679,625.159 L278.382,621.321 L278.46,621.276 L281.348,620.161 L284.468,619.758 L287.528,619.947 L290.643,620.905 L299.775,624.293 L300.133,624.426 L302.572,625.331 L346.354,641.6 L361.809,647.283 L364.079,644.772 L364.557,644.299 L365.391,643.654 L366.151,643.282 L366.854,643.04 L367.168,642.945 L367.2,642.604 L367.226,642.417 L367.283,642.218 L367.326,642.113 L367.545,641.705 L367.721,641.449 L367.83,641.313 L368.233,640.816 L368.44,640.569 L370.529,638.411 L373.254,635.468 L373.943,634.734 L375.818,632.754 L377.559,630.897 L378.034,630.37 L379.914,628.359 L382.508,625.613 L385.07,622.855 L385.13,622.797 L385.91,621.975 L388.076,619.694 L388.752,618.98 L392.615,614.826 L394.421,612.941 L401.408,605.691 L402.102,604.97 L405.809,601.056 L407.303,599.493 L408.8,597.896 L409.924,596.708 L411.03,595.541 L412.112,594.373 L413.556,592.883 L415.105,591.32 L416.158,590.162 L417.719,588.691 L418.043,588.261 L418.661,587.615 L419.442,586.782 L420.277,585.909 L421.017,585.142 L421.74,584.33 L422.605,583.434 L423.83,582.144 L424.744,581.298 L425.202,580.801 L425.862,580.102 L426.844,579.039 L427.868,577.856 L428.864,576.821 L429.886,575.705 L430.913,574.59 L431.941,573.481 L433.323,572.015 L433.921,571.416 L434.672,570.585 L435.967,569.162 L436.054,569.066 L436.125,568.995 L436.771,568.351 L437.954,567.131 L439.555,565.466 L441.362,563.531 L442.173,562.636 L442.434,562.32 L442.721,561.972 L443.556,561.069 L444.205,560.351 L444.862,559.68 L445.496,559.008 L445.905,558.593 L445.983,558.514 L446.686,557.843 L447.342,557.288 L447.713,556.995 L448.222,556.64 L448.789,556.394 L448.839,556.371 L449.278,556.265 L450.071,556.206 L450.734,556.202 L451.018,556.201 L452.18,556.252 L452.681,556.328 L452.836,556.351 L453.438,556.441 L455.189,556.693 L455.626,556.776 L456.152,556.882 L456.353,556.924 L457.585,557.111 L459.487,557.349 L460.672,557.489 L462.104,557.669 L462.794,557.756 L463.912,557.924 L464.968,558.126 L465.144,558.16 L466.126,558.349 L466.616,558.444 L468.479,558.769 L469.132,558.892 L470.046,559.063 L471.125,559.298 L472.692,559.535 L473.916,559.665 L475.082,559.804 L476.706,560.051 L477.958,560.19 L479.182,560.359 L480.338,560.459 L480.908,560.491 L483.369,560.626 L483.59,560.638 L488.332,554.724 L494.166,547.749 L501.418,539.586 L508.044,532.43 L515.679,523.912 L522.492,516.361 L524.492,514.177 L526.507,511.895 L536.341,501.153 L543.281,493.486 L545.197,491.36 L550.49,485.592 L553.031,482.744 L560.695,474.169 L567.734,466.574 L569.819,464.335 L577.413,455.803 L584.935,447.47 L585.957,446.351 L592.23,439.335 L598.631,432.278 L601.357,429.273 L608.213,421.521 L616.972,411.515 L620.917,407.391 L625.331,402.516 L633.492,393.418 L641.413,384.773 L642.931,383.044 L650,375.406 L657.835,366.733 L660.617,363.657 L660.816,363.516 L660.9,363.545 L665.687,368.386 L672.317,375.139 L672.632,375.454 L672.74,375.562 L679.2,382.164 L682.565,385.619 L682.762,385.777 L683.149,385.701 L683.384,385.679 L683.962,385.434 L684.362,385.319 L685.11,385.127 L685.447,385.047 L685.825,384.962 L686.626,384.79 L686.781,384.758 L687.149,384.71 L687.707,384.68 L688.399,384.6 L689.72,384.446 L689.987,384.396 L690.224,384.345 L690.542,384.276 L690.773,384.212 L691.086,384.121 L691.281,384.064 L691.528,383.976 L691.577,383.957 L691.694,383.913 L691.93,383.823 L692.192,383.724 L692.435,383.62 L692.599,383.536 L692.708,383.469 L692.937,383.327 L693.095,383.22 L693.288,383.045 L693.519,382.793 L693.643,382.638 L693.753,382.479 L693.866,382.337 L694.162,381.919 L694.357,381.607 L694.636,381.128 L694.913,380.667 L695.03,380.453 L695.162,380.228 L695.314,379.954 L695.434,379.711 L695.508,379.568 L695.62,379.285 L695.77,378.869 L695.831,378.683 L696.099,377.791 L696.355,376.79 L696.422,376.505 L696.59,375.944 L696.659,375.735 L696.706,375.632 L696.789,375.499 L696.918,375.365 L697.022,375.272 L697.151,375.192 L697.258,375.136 L697.441,375.066 L697.62,375.009 L697.907,374.941 L698.229,374.877 L698.396,374.847 L698.655,374.801 L699.153,374.706 L699.588,374.632 L700.442,374.506 L700.665,374.476 L701.26,374.399 L701.837,374.318 L702.691,374.197 L702.966,374.158 L703.059,374.149 L703.423,374.114 L703.697,374.094 L703.943,374.067 L704.733,373.978 L705.269,373.928 L705.892,373.78 L706.072,373.718 L707.414,373.26 L710.382,372.144 L712.279,371.324 L712.973,371.038 L713.854,370.8 L714.686,370.574 L715.401,370.366 L716.061,370.177 L716.474,370.061 L716.85,369.963 L717.238,369.878 L717.583,369.817 L717.638,369.81 L717.99,369.763 L718.384,369.715 L718.815,369.686 L719.357,369.678 L719.823,369.671 L720.101,369.666 L720.573,369.651 L723.379,369.575 L724.799,369.537 L725.048,369.455 L725.134,369.386 L725.209,369.28 L725.267,369.01 L725.29,368.734 L724.715,360.484 L724.03,350.925 L723.654,347.05 L723.649,346.832 L723.67,346.224 L723.7,346.077 L723.796,345.793 L724.04,345.387 L724.171,345.237 L724.61,344.877 L724.963,344.616 L725.306,344.422 L725.57,344.305 L725.966,344.167 L726.539,344.073 L727.965,344 L728.977,344.004 L730.661,344.011 L733.398,343.806 L733.78,343.776 L735.078,343.675 L736.251,343.621 L738.908,343.592 L741.878,343.565 L743.737,343.554 L743.979,343.536 L744.11,343.506 L744.193,343.442 L744.224,343.372 L744.263,343.247 L744.283,342.967 L744.298,342.794 L744.306,342.52 L744.295,341.893 L744.282,341.546 L744.279,341.396 L744.287,341.148 L744.311,340.718 L744.333,340.277 L744.334,340.078 L744.327,339.634 L744.339,338.636 L744.361,337.514 L744.395,336.276 L744.413,335.301 L744.453,333.81 L744.462,332.411 L744.465,331.513 L744.467,331.032 L744.493,330.265 L744.497,329.979 L744.471,329.631 L744.498,329.463 L744.528,329.412 L744.796,329.226 L745.173,329.044 L745.286,328.997 L746.495,328.455 L747.803,327.869 L747.981,327.781 L748.568,327.493 L748.675,327.435 L748.883,327.322 L749.157,327.138 L749.558,326.783 L749.897,326.453 L750.202,326.176 L750.414,326.055 L750.693,325.934 L751.209,325.769 L751.919,325.578 L752.525,325.436 L752.86,325.386 L752.975,325.37 L753.311,325.358 L753.639,325.372 L754.273,325.437 L754.379,325.448 L755.034,325.491 L756.102,325.608 L757.032,325.726 L757.394,325.771 L758.448,325.866 L760.552,326.069 L761.786,326.139 L762.262,326.166 L763.298,326.238 L763.465,326.266 L764.711,326.476 L764.783,326.488 L765.258,326.618 L765.31,326.633 L765.744,326.769 L766.228,326.933 L766.717,327.069 L767.316,327.187 L767.839,327.288 L768.403,327.377 L769.129,327.443 L769.999,327.5 L770.586,327.519 L771.37,327.574 L771.802,327.611 L772.329,327.68 L772.446,327.695 L773.276,327.791 L774.289,327.94 L775.026,328.076 L775.514,328.193 L775.596,328.212 L775.78,328.24 L776.121,328.29 L776.409,328.323 L776.586,328.329 L776.769,328.338 L776.845,328.363 L776.927,328.389 L777.021,328.475 L777.114,328.607 L777.165,328.737 L777.511,329.287 L778.458,330.443 L779.93,332.343 L780.281,332.761 L780.646,333.197 L781.182,333.806 L781.381,334.017 L781.436,334.075 L781.655,334.267 L782.057,334.435 L782.352,334.501 L782.91,334.516 L783.524,334.472 L784.211,334.419 L785.508,334.284 L786.118,334.181 L786.373,334.146 L786.721,334.108 L786.96,334.082 L787.384,334.031 L787.644,333.999 L788.113,333.941 L788.35,333.978 L788.481,334.028 L789.458,334.569 L790.253,334.961 L791.389,335.521 L793.191,336.412 L794.612,337.103 L795.109,337.36 L795.424,337.484 L796.185,337.733 L797.477,338.17 L797.935,338.319 L798.459,338.489 L799.208,338.771 L801.065,339.47 L801.788,339.72 L803.971,340.507 L805.27,340.941 L807.189,341.502 L809.088,341.96 L809.85,342.095 L810.5,342.201 L811.049,342.264 L811.506,342.297 L811.892,342.298 L812.228,342.279 L812.583,342.25 L812.645,342.243 L812.732,342.234 L812.94,342.211 L813.326,342.13 L813.693,342.019 L813.998,341.857 L814.304,341.612 L814.488,341.408 L814.742,341.061 L814.819,340.953 L815.266,340.092 L815.657,339.38 L815.869,339.092 L815.985,338.946 L816.176,338.705 L816.452,338.45 L816.819,338.176 L816.967,338.076 L817.226,337.901 L817.624,337.719 L818.01,337.577 L818.417,337.486 L818.804,337.427 L819.221,337.408 L819.742,337.428 L819.882,337.421 L821.853,337.511 L822.674,337.558 L826.847,337.858 L826.969,337.872 L828.536,338.065 L828.598,338.074 L830.752,338.512 L831.134,338.59 L831.221,338.613 L831.602,338.757 L832.269,339.01 L832.43,339.094 L832.697,339.314 L832.78,339.459 L832.788,339.554 L832.769,339.668 L832.534,340.43 L832.425,340.787 L832.363,341.471 L832.396,341.741 L832.439,341.866 L832.496,342.031 L832.621,342.256 L833.014,342.873 L833.155,343.068 L833.623,343.554 L833.833,343.717 L833.891,343.756 L833.998,343.829 L834.591,344.183 L834.669,344.224 L834.916,344.314 L835.291,344.396 L835.566,344.427 L836.567,344.543 L837.128,344.641 L837.534,344.727 L838.457,344.834 L839.534,344.856 L839.665,344.842 L841.098,344.698 L842.048,344.59 L842.276,344.584 L842.613,344.575 L843.091,344.612 L843.456,344.695 L843.787,344.8 L843.894,344.862 L844.15,345.012 L844.849,345.41 L845.445,345.843 L845.939,346.241 L846.366,346.483 L846.963,346.778 L847.586,347.06 L847.731,347.125 L848.328,347.334 L848.96,347.492 L849.832,347.634 L850.823,347.723 L851.985,347.762 L852.892,347.68 L853.644,347.597 L854.296,347.452 L854.697,347.325 L855.408,346.985 L855.601,346.875 L856.607,346.302 L857.686,345.722 L858.895,344.98 L859.589,344.663 L860.325,344.459 L860.903,344.393 L861.092,344.371 L861.48,344.363 L861.659,344.387 L861.83,344.41 L861.94,344.424 L862.471,344.525 L862.602,344.543 L862.775,344.552 L862.88,344.576 L863.045,344.592 L863.144,344.583 L863.318,344.568 L863.37,344.55 L863.619,344.391 L863.82,344.151 L863.965,344.021 L864.221,343.812 L864.723,343.513 L865.394,343.174 L866.655,342.392 L867.452,341.901 L869.092,340.869 L870.984,339.695 L872.283,338.88 L873.286,338.283 L873.486,338.18 L873.886,337.934 L874.648,337.402 L874.726,337.347 L875.12,337.121 L876.199,336.501 L877.815,335.55 L879.502,334.573 L880.983,333.72 L881.452,333.446 L882.195,333.013 L882.563,332.822 L882.89,332.653 L883.021,332.598 L883.326,332.426 L883.414,332.364 L883.471,332.279 L883.493,332.169 L883.493,332.019 L883.479,331.964 L883.427,331.858 L883.317,331.77 L883.244,331.739 L881.402,330.964 L879.803,330.236 L879.527,330.123 L878.479,329.693 L876.88,328.981 L874.855,328.159 L872.861,327.338 L871.049,326.563 L869.609,325.994 L869.498,325.947 L869.279,325.844 L867.464,324.994 L865.111,323.816 L864.452,323.482 L863.358,322.782 L862.244,322.011 L860.656,320.826 L860.226,320.449 L859.037,319.261 L857.668,317.775 L857.031,316.993 L856.694,316.489 L856.326,315.838 L855.552,314.174 L855.127,313.251 L854.867,312.714 L854.668,312.312 L854.428,311.878 L854.376,311.786 L854.323,311.667 L854.234,311.393 L854.202,311.157 L854.217,310.106 L854.233,309.94 L854.257,309.793 L854.295,309.619 L854.348,309.461 L854.416,309.303 L854.522,309.088 L854.843,308.515 L855.092,308.075 L855.315,307.683 L855.686,307.028 L855.909,306.537 L856.017,306.245 L856.08,306.102 L856.151,305.975 L856.225,305.847 L856.301,305.764 L856.427,305.66 L856.515,305.623 L856.688,305.516 L857.086,305.191 L857.239,305.029 L857.318,304.948 L857.414,304.839 L857.574,304.62 L857.834,304.283 L858.553,303.344 L859.094,302.55 L859.125,302.504 L859.386,302.143 L859.985,301.288 L860.305,300.846 L860.707,300.281 L860.971,300 L861.219,299.803 L861.329,299.726 L861.741,299.524 L861.917,299.468 L862.239,299.382 L862.99,299.208 L863.446,299.135 L864.361,298.992 L865.077,298.872 L866.036,298.714 L867.231,298.494 L868.725,298.207 L869.175,298.11 L870.362,297.806 L870.952,297.634 L872.214,297.229 L872.691,297.084 L873.192,296.921 L873.649,296.744 L874.192,296.494 L874.696,296.256 L875.296,295.932 L875.86,295.62 L876.932,295.01 L878.06,294.424 L878.959,294.017 L879.445,293.8 L879.961,293.61 L880.725,293.341 L881.13,293.217 L881.325,293.176 L881.512,293.137 L882.684,292.885 L883.921,292.641 L884.628,292.479 L885.547,292.271 L885.876,292.197 L886.69,292.032 L887.34,291.921 L887.738,291.876 L887.886,291.86 L888.425,291.85 L888.5,291.851 L889.822,291.862 L890.936,291.873 L891.742,291.909 L891.923,291.916 L892.141,291.875 L892.263,291.815 L892.441,291.452 L892.551,291.267 L892.711,291.08 L892.893,290.908 L893.4,290.54 L893.64,290.365 L894.08,290.007 L894.592,289.464 L894.646,289.407 L895.119,288.932 L895.493,288.539 L896.022,287.907 L896.306,287.536 L896.658,287.121 L896.924,286.834 L897.263,286.466 L897.662,286.106 L898.161,285.647 L898.455,285.376 L898.954,284.932 L899.5,284.457 L900.044,283.979 L900.277,283.79 L900.685,283.536 L900.928,283.393 L901.318,283.226 L901.601,283.215 L901.91,283.271 L902.981,283.668 L903.252,283.789 L904.536,284.596 L905.206,285.122 L905.422,285.339 L905.456,285.412 L905.898,287.077 L906.148,288.348 L906.375,290.131 L906.586,291.785 L907.128,294.046 L907.37,294.819 L907.531,295.179 L907.646,295.341 L907.69,295.402 L907.975,295.606 L908.103,295.751 L908.899,296.772 L911.785,300.974 L911.814,301.033 L911.877,301.224 L911.897,301.344 L911.864,301.621 L911.869,301.747 L911.903,301.824 L911.958,301.892 L912.02,301.928 L912.188,301.981 L913.302,302.261 L913.606,302.317 L913.953,302.381 L915.137,302.487 L916.196,302.478 L917.084,302.374 L917.722,302.3 L918.337,302.209 L918.716,302.153 L919.711,301.931 L921.401,301.391 L922.94,300.944 L923.916,300.722 L928.005,300.117 L930.726,299.675 L931.573,299.537 L931.676,299.526 L931.857,299.507 L932.939,299.477 L934.045,299.577 L934.251,299.596 L935.263,299.714 L936.199,299.868 L938.181,300.466 L938.484,300.557 L939.401,300.806 L939.889,300.846 L940.173,300.847 L940.42,300.816 L940.593,300.769 L940.727,300.734 L940.964,300.653 L941.201,300.554 L941.293,300.506 L941.574,300.287 L942.185,299.631 L942.418,299.372 L942.621,299.181 L942.906,298.987 L943.166,298.854 L943.502,298.732 L943.867,298.655 L944.273,298.61 L944.869,298.544 L945.235,298.503 L945.466,298.483 L948.095,298.252 L948.69,298.181 L949.271,298.185 L949.926,298.235 L950.768,298.333 L952.451,298.56 L953.889,298.734 L954.323,298.853 L954.376,298.877 L954.841,299.152 L955.198,299.197 L957.304,299.538 L960.315,300.039 L961.258,300.169 L961.874,300.203 L961.93,300.206 L962.23,300.196 L962.416,300.191 L962.603,300.146 L962.847,300.067 L963.011,300 L963.203,299.881 L963.396,299.763 L963.538,299.65 L963.663,299.525 L963.913,299.276 L964.525,298.653 L964.946,298.211 L965.167,298.007 L965.371,297.877 L965.597,297.736 L965.886,297.646 L966.124,297.585 L966.288,297.551 L966.582,297.524 L966.921,297.525 L967.164,297.532 L967.48,297.567 L967.769,297.603 L967.977,297.643 L968.181,297.707 L968.446,297.771 L968.762,297.869 L969.75,298.163 L972.315,298.971 L973.01,299.147 L973.783,299.278 L975.266,299.537 L976.357,299.717 L979.515,300.287 L982.137,300.791 L983.13,301.017 L985.375,301.519 L986.854,301.842 L987.647,302.015 L989.07,302.367 L991.109,302.986 L991.506,302.367 L991.965,301.896 L992.518,301.462 L993.248,301.028 L994.047,300.583 L994.588,300.243 L994.942,299.914 L995.331,299.432 L995.591,298.984 L995.911,298.336 L996.454,297.512 L997.254,296.854 L997.995,296.444 L998.806,296.058 L999.887,295.52 L1000.3,295.179 L1000.9,294.768 L1002.73,293.749 L1004.09,292.964 L1004.99,292.448 L1005.91,292.004 L1007.55,291.326 L1012.68,289.022 L1014.44,288.25 L1017.96,286.813 L1018.82,286.476 L1020.29,286.068 L1021.05,285.87 L1022.02,285.614 L1023.07,285.317 L1029.03,283.631 L1035.8,282.358 L1038.98,282.372 L1041.96,283.787 L1047.57,288.28 L1049.04,289.485 L1050.93,293.04 L1051.5,293.282 L1052.79,292.905 L1060.14,290.204 L1069.68,285.788 L1078.85,281.816 L1089.09,277.376 L1103.53,265.057 L1108.77,261.449 L1109.31,263.257 L1109.33,263.796 L1107.99,269.499 L1107.2,273.048 L1116.72,268.963 L1130.72,262.842 L1131.33,262.477 L1131.57,261.864 L1131.92,258.304 L1132.24,257.896 L1133.38,257.655 L1154.41,257.502 L1171.13,257.616 L1171.95,257.374 L1171.95,256.556 L1171.97,253.902 L1172.2,253.315 L1174.1,251.208 L1175.15,251.207 L1175.47,251.255 L1177.42,251.54 L1178.32,251.672 L1178.45,251.629 L1178.7,251.544 L1178.81,251.51 L1178.81,249.816 L1178.81,249.545 L1179.46,247.296 L1180.13,244.972 L1180.88,242.391 L1181.87,239.242 L1182.02,239.218 L1182.36,239.163 L1191.18,240.676 L1191.41,240.661 L1192.44,240.6 L1193.99,240.033 L1204.55,234.635 L1208.49,233.921 L1217.88,231.168 L1220.54,230.389 L1227.83,228.263 L1230.11,227.886 L1230.7,228.025 L1231.85,228.293 L1234.06,228.804 L1236.12,229.239 L1237.5,229.449 L1237.89,229.47 L1239.07,229.476 L1243.11,229.494 L1244,229.562 L1244.57,229.414 L1245.08,229.229 L1245.32,229.086 L1245.45,229.031 L1245.78,229.003 L1245.95,229.034 L1247.29,229.336 L1248.67,229.554 L1250.45,229.928 L1251.61,230.157 L1251.86,230.174 L1251.99,230.175 L1252.15,230.142 L1252.21,229.838 L1252.27,229.598 L1252.34,229.294 L1252.41,229.191 L1252.44,229.076 L1252.49,228.894 L1252.61,228.707 L1252.66,228.537 L1252.78,228.4 L1252.86,228.353 L1252.98,228.361 L1254.38,229.008 L1254.58,229.131 L1259.84,231.977 L1277.57,235.508 L1279.54,237.221 L1291.14,266.116 L1291.99,266.591 L1293.48,267.424 L1310.94,269.272 L1319.73,269.597 L1340.56,270.368 L1342.95,270.456 L1350.19,270.724 L1353.35,270.841 L1359.37,270.007 L1360.84,269.749 L1361.77,269.754 L1368,270.575 L1368.9,270.466 L1372.72,269.28 L1373.08,269.31 L1373.67,269.737 L1374.15,270.334 L1374.45,270.703 L1374.68,270.818 L1374.99,270.706 L1375.38,270.453 L1378.78,267.014 L1383.17,263.172 L1385.47,261.156 L1389.03,258.688 L1389.2,258.633 L1389.25,258.641 L1389.42,258.667 L1389.94,258.852 L1390.49,258.948 L1390.57,258.947 L1390.7,258.925 L1391.11,258.827 L1391.24,258.831 L1391.5,258.839 L1391.71,258.856 L1391.78,258.89 L1392.2,259.417 L1392.43,259.635 L1393.49,260.306 L1393.9,260.492 L1395.32,260.833 L1395.9,260.867 L1396.44,260.782 L1397.49,260.425 L1399,259.962 L1400.06,259.572 L1400.46,259.43 L1400.71,259.415 L1400.83,259.434 L1400.91,259.448 L1401.24,259.648 L1401.41,259.756 L1401.7,259.786 L1402,259.653 L1406.26,257.82 L1406.41,257.863 L1406.53,258.012 L1408.67,262.247 L1408.79,262.546 L1408.79,262.694 L1408.7,263.576 L1408.68,263.713 L1409.02,268.259 L1409.1,268.708 L1418.01,264.138 L1420.31,262.832 L1424.84,260.645 L1426.64,259.698 L1427.19,259.424 L1427.42,259.425 L1427.52,259.532 L1429.12,265.506 L1429.16,265.62 L1429.22,265.783 L1429.29,265.847 L1429.41,265.89 L1430.81,265.648 L1432.75,265.311 L1435.39,264.792 L1435.56,264.75 L1435.61,264.634 L1435.27,263.39 L1435.27,263.262 L1435.34,263.157 L1435.55,263.03 L1438.84,262.557 L1440.38,262.406 L1441.22,262.877 L1442.92,263.343 L1445.57,264.07 L1446.5,264.144 L1454.29,264.705 L1459.68,265.081 L1460.71,265.167 L1463.23,265.377 L1468.34,265.716 L1471.05,265.764 L1472.34,265.665 L1477.7,264.955 L1481.18,264.481 L1484.47,263.756 L1487.24,263.144 L1494.31,261.497 L1496.26,261.156 L1497.82,260.708 L1499.08,260.399 L1500.02,260.299 L1502.1,260.238 L1504.3,260.249 L1505.86,260.151 L1507.25,260.088 L1509.38,259.538 L1510.98,259.125 L1511.42,258.982 L1511.64,259.002 L1511.72,259.16 L1511.77,259.87 L1511.87,260.461 L1511.94,260.638 L1512.1,260.737 L1512.37,260.778 L1513.7,260.627 L1515.27,260.653 L1517.32,260.821 L1518.63,260.886 L1519.59,260.91 L1522.59,260.826 L1525.97,260.861 L1526.5,260.844 L1526.71,260.826 L1526.89,260.571 L1527.1,258.524 L1527.32,257.206 L1527.44,257.029 L1527.75,256.991 L1528.08,256.993 L1529.55,257.098 L1530.57,257.3 L1532.67,258.472 L1533.86,259.245 L1534.96,259.841 L1535.97,260.16 L1537.54,260.424 L1539.49,260.492 L1540.9,260.597 L1542.15,260.839 L1543.13,261.1 L1543.91,261.458 L1544.38,261.618 L1544.81,261.62 L1545.49,261.406 L1548.51,260.554 L1550.39,259.953 L1553.13,259.454 L1557.36,258.726 L1561.09,257.779 L1561.29,257.725 L1562.11,257.626 L1563.49,257.633 L1565.1,257.699 L1567.48,257.829 L1569.04,258.028 L1569.78,258.448 L1570.23,258.761 L1570.39,259.071 L1571.06,260.915 L1571.67,262.324 L1572.14,263.237 L1572.4,263.341 L1572.71,263.363 L1573.27,263.325 L1574.36,262.999 L1575.16,262.9 L1575.82,262.82 L1576.31,263.009 L1576.9,263.404 L1577.48,263.945 L1577.81,264.153 L1578.09,264.237 L1578.38,264.239 L1578.73,264.157 L1579.39,263.913 L1580.11,263.75 L1581.55,263.426 L1583.69,263.044 L1586.53,262.747 L1587.24,262.642 L1588.44,262.466 L1592.68,261.659 L1596.25,260.994 L1597.65,260.732 L1598.13,260.714 L1598.48,260.72 L1599.69,260.741 L1601.02,260.748 L1601.45,260.791 L1601.68,260.979 L1601.86,261.331 L1602.42,262.28 L1602.52,262.451 L1603.39,263.944 L1603.76,264.814 L1603.88,265.187 L1604,265.354 L1604.21,265.437 L1604.43,265.418 L1604.91,265.151 L1607.91,264.193 L1610.59,263.4 L1612.71,262.838 L1614.27,262.424 L1615.23,262.368 L1631.28,266.48 L1632.98,266.685 L1633.86,266.689 L1634.59,266.349 L1634.93,265.958 L1635.47,265.078 L1636.01,264.297 L1636.27,263.881 L1636.58,263.525 L1636.81,263.387 L1637.02,263.31 L1637.21,263.311 L1637.39,263.341 L1637.46,263.367 L1637.65,263.439 L1637.77,263.485 L1639.3,264.361 L1640.41,265.144 L1640.76,265.391 L1640.9,265.47 L1640.97,265.512 L1641.22,265.658 L1641.61,265.798 L1641.87,265.8 L1642.45,265.617 L1643.44,265.288 L1643.63,265.268 L1643.83,265.272 L1644.4,265.409 L1644.58,265.452 L1644.77,265.518 L1644.86,265.55 L1645.06,265.631 L1645.29,265.777 L1645.48,265.936 L1645.67,266.074 L1645.84,266.154 L1646.09,266.201 L1646.42,266.271 L1646.57,266.323 L1646.72,266.398 L1646.89,266.46 L1647.16,266.593 L1647.63,266.96 L1647.73,267.062 L1647.81,267.111 L1647.97,267.162 L1648.16,267.172 L1649.26,267.147 L1649.67,267.129 L1649.94,267.163 L1650.03,267.175 L1650.22,267.219 L1650.32,267.245 L1650.55,267.325 L1650.71,267.398 L1651.06,267.473 L1651.28,267.474 L1651.71,267.367 L1652.13,267.214 L1652.48,267.117 L1652.65,267.108 L1652.88,267.109 L1653.64,267.206 L1654.44,267.319 L1654.84,267.336 L1655.44,267.23 L1655.89,267.232 L1656.35,267.297 L1657.1,267.471 L1657.67,267.706 L1657.98,267.894 L1658.41,268.268 L1658.75,268.737 L1658.92,268.969 L1659.08,269.388 L1659.21,269.549 L1659.44,269.684 L1659.59,269.747 L1659.84,269.811 L1660.05,269.936 L1660.2,270.154 L1660.45,270.543 L1660.65,270.822 L1660.83,270.948 L1661.08,271.026 L1661.42,271.09 L1661.83,271.077 L1662.2,270.985 L1663.3,270.525 L1663.72,270.326 L1663.96,270.296 L1664.18,270.328 L1664.53,270.329 L1664.87,270.229 L1664.94,270.223 L1665.18,270.224 L1665.72,270.335 L1666.06,270.352 L1666.41,270.354 L1666.53,270.327 L1666.74,270.216 L1667.08,270.094 L1667.29,270.095 L1667.4,270.139 L1667.56,270.243 L1667.7,270.395 L1668.22,270.925 L1668.37,271.054 L1668.45,271.078 L1668.54,271.055 L1668.61,270.959 L1668.77,270.823 L1669.08,270.562 L1669.39,270.428 L1669.61,270.381 L1669.76,270.381 L1670,270.415 L1670.88,270.634 L1671.27,270.676 L1671.62,270.686 L1671.98,270.64 L1672.51,270.555 L1672.98,270.525 L1673.27,270.478 L1673.68,270.32 L1674.14,270.171 L1674.36,270.116 L1674.55,270.117 L1675.12,270.272 L1676.07,270.471 L1676.58,270.638 L1677.45,270.619 L1677.63,270.619 L1677.93,270.69 L1678.41,270.976 L1678.98,271.377 L1679.11,271.394 L1679.19,271.376 L1679.23,271.322 L1679.29,271.138 L1679.35,270.859 L1679.62,269.998 L1679.76,269.815 L1679.98,269.672 L1680.23,269.529 L1680.39,269.49 L1680.58,269.491 L1680.96,269.646 L1682.25,270.075 L1682.35,270.076 L1682.45,270.002 L1682.51,269.857 L1682.53,268.716 L1682.54,268.652 L1682.62,268.47 L1682.77,268.403 L1682.91,268.404 L1683.3,268.48 L1684.28,268.862 L1685.8,269.557 L1686.12,269.631 L1686.44,269.657 L1686.55,269.629 L1686.87,269.549 L1687.02,269.453 L1687.1,269.334 L1687.15,269.166 L1687.16,268.565 L1687.22,268.427 L1687.33,268.315 L1694.12,268.697 L1698.16,268.91 L1697.98,277.429 L1697.85,286.758 L1696.78,295.631 L1696.46,300.267 L1696.39,305.074 L1701.19,304.534 L1704.48,302.874 L1706.96,301.305 L1711.08,299.4 L1710.13,296.271 L1709.73,295.027 L1709.28,293.591 L1709.25,292.858 L1709.45,292.446 L1709.85,292.076 L1710.51,292.062 L1712.12,292.19 L1712.64,292.112 L1712.99,291.777 L1713.66,290.611 L1715.18,285.732 L1715.46,285.435 L1716.13,285.324 L1717.55,285.314 L1718.55,285.506 L1719.21,285.542 L1719.57,285.179 L1719.81,284.489 L1719.92,283.778 L1720.38,283.089 L1721.1,282.669 L1724.33,281.346 L1725.01,280.927 L1725.45,280.586 L1725.67,280.188 L1726.1,278.844 L1726.4,278.488 L1727.15,278.083 L1727.78,277.962 L1728.53,277.919 L1729.2,277.706 L1731.33,276.199 L1732.02,276.156 L1732.59,276.298 L1733.78,276.917 L1735.3,277.898 L1735.7,277.955 L1736.01,277.862 L1736.23,277.578 L1736.71,276.163 L1736.55,274.826 L1736.62,274.364 L1737.17,273.418 L1737.72,272.828 L1739.77,271.89 L1742.43,270.539 L1743.19,270.361 L1744.03,270.382 L1745.53,270.745 L1748.03,271.52 L1750.19,272.075 L1750.64,272.124 L1751.2,271.947 L1752.65,271.218 L1753.6,270.645 L1755.15,269.237 L1755.55,269.003 L1756.25,268.96 L1757.88,269.465 L1759.14,270.24 L1759.61,270.389 L1760.31,270.439 L1762.92,270.347 L1764.15,270.716 L1765.37,271.143 L1765.81,271.214 L1766.27,271.143 L1768.14,270.578 L1768.65,270.471 L1769.38,270.443 L1771.66,270.962 L1772.99,271.296 L1775.15,271.559 L1777.67,271.829 L1783.38,272.562 L1785.47,272.405 L1789.07,272.341 L1791.78,272.661 L1795.18,273.273 L1796.22,273.372 L1796.93,273.351 L1798.57,273.002 L1801.04,272.206 L1804.08,271.381 L1804.56,271.31 L1805.18,271.317 L1807.39,271.915 L1808.46,272.249 L1813.83,272.149 L1814.87,272.27 L1816.72,272.668 L1817.43,272.796 L1817.96,272.725 L1819.03,272.419 L1820.84,271.779 L1824.81,270.542 L1825.77,270.165 L1826.31,269.76 L1826.87,268.992 L1827.5,268.032 L1828.09,267.741 L1830.37,266.966 L1832.35,266.471 L1836.2,265.433 L1839.34,264.504 L1841.44,264.144 L1845.37,263.732 L1848.77,263.667 L1847.68,260.02 L1845.48,252.687 L1842.67,243.026 L1847.51,240.914 L1849.23,240.407 L1850.33,240.283 L1857.82,240.166 L1865.2,240.151 L1871.09,240.135 L1871.06,238.174 L1871.09,237.974 L1871.36,237.743 L1871.82,237.745 L1875.29,237.862 L1877.54,238.006 L1881.07,238.236 L1883.61,238.403 L1884.24,238.373 L1884.57,238.142 L1884.74,237.344 L1885.46,233.956 L1887.18,225.85 L1887.38,225.386 L1887.65,225.055 L1888.54,224.793 L1889.4,224.764 L1889.83,224.7 L1890.52,224.47 L1890.85,224.339 L1891.05,224.041 L1891.12,223.476 L1891.13,222.678 L1891.16,222.412 L1891.33,222.18 L1891.86,222.049 L1897.94,221.881 L1900.28,221.761 L1908.02,221.366 L1909.87,221.142 L1910,221.036 L1910.09,220.912 L1910.09,220.773 L1910.1,220.445 L1910.11,217.766 L1910.18,217.463 L1914.24,210.225 L1914.12,205.543 L1914.43,198.207 L1914.68,197.561 L1914.92,197.097 L1917.45,193.515 L1917.58,193.474 L1918.06,193.695 L1918.38,193.816 L1918.72,193.861 L1919.02,193.841 L1919.45,193.745 L1920.06,193.607 L1920.59,193.501 L1921.04,193.436 L1923.03,193.273 L1924.91,192.89 L1926.83,192.518 L1927.57,192.381 L1929.21,192.05 L1932.78,191.414 L1936.42,190.823 L1940.17,190.141 L1943,189.551 L1950.66,187.895 L1963.9,185.678 L1988.4,178.687 L1986.6,170.12 L1986.81,169.77 L1991.81,168.221 L1992.66,167.899 L1993.91,167.516 L1999,165.566 L2007.22,162.326 L2010.47,161.044 L2014.53,159.379 L2021.06,156.531 L2028.13,153.446 L2033.24,151.26 L2035.37,150.393 L2051.26,144.504 L2054.08,143.437 L2055.42,142.942 L2056.92,142.392 L2054,112.194 L2054.05,111.299 L2054.24,110.986 L2054.81,110.742 L2062.54,110.922 L2062.65,110.858 L2062.68,110.805 L2062.68,109.055 L2062.73,108.977 L2062.89,108.904 L2065.9,108.559 L2088.46,105.288 L2091.52,104.816 L2096.85,104.25 L2096.96,104.214 L2097.01,104.155 L2097.08,104.015 L2097.19,103.69 L2097.31,103.614 L2097.43,103.601 L2103.87,104.499 L2104.15,104.557 L2105.67,104.776 L2105.93,104.777 L2106,104.749 L2110.72,93.5929 L2112.82,93.8773 L2111.82,96.0294 L2117.98,96.3991 L2121.28,96.6741 L2124.42,96.9774 L2130.57,97.9919 L2135.95,98.8925 L2145.35,100.656 L2150.28,101.642 L2157.53,102.903 L2164.91,104.192 L2173.13,105.586 L2186.66,107.852 L2223.4,114.156 L2246.21,117.863 L2272.31,122.29 L2276.68,123.196 L2286.2,124.101 L2295.41,125.002 L2301.04,125.381 L2305.48,125.751 L2308.08,126.121 L2314.08,126.614 L2315.59,126.841 L2319.35,127.04 L2322.13,127.239 L2325.6,127.552 L2328.69,127.998 L2333.15,128.273 L2338.69,128.661 L2340.35,128.87 L2341.94,128.879 L2350.88,129.809 L2359.14,130.529 L2360.25,130.472 L2368.8,131.287 L2376.24,131.78 L2379.51,132.046 L2384.32,132.179 L2393.17,132.918 L2394.26,132.994 L2397.69,133.402 L2402.21,134.293 L2405.82,134.7 L2410.82,135.468 L2424.96,137.412 L2428.22,137.772 L2433.04,138.493 L2442.35,139.896 L2447.43,140.54 L2452.21,140.948 L2456.19,141.726 L2460.09,142.181 L2465.89,143.423 L2468.47,143.47 L2471.73,143.963 L2474.78,144.295 L2474.7,146.504 L2474.47,147.92 L2474.1,151.557 L2474.07,153.165 L2474.02,154.637 L2473.83,156.19 L2473.53,158.425 L2473.39,159.815 L2473.23,161.805 L2472.95,165.485 L2472.74,167.12 L2472.71,168.237 L2472.6,168.919 L2472.54,169.927 L2472.38,172.514 L2471.93,177.538 L2471.48,182.146 L2471.18,183.928 L2471.01,185.995 L2470.93,190.716 L2471,193.921 L2470.82,195.912 L2470.48,198.424 L2469.98,201.865 L2469.84,203.468 L2469.43,207.952 L2469.16,210.237 L2468.69,214.361 L2468.3,217.442 L2467.8,221.395 L2466.9,229.444 L2466.49,233.17 L2466.06,237.19 L2465.26,246.594 L2465.15,248.765 L2464.8,254.112 L2464.6,256.758 L2463.48,266.229 L2462.71,272.6 L2462.44,278.43 L2461.95,284.194 L2461.41,290.944 L2461.3,294.566 L2461.14,296.737 L2460.67,300.14 L2460.06,305.98 L2459.69,309.782 L2459.17,314.229 L2458.77,317.717 L2458.28,321.832 L2457.6,327.814 L2457.26,331.673 L2456.41,337.57 L2456.12,339.835 L2455.75,341.94 L2455.49,344.642 L2454.67,350.179 L2454.25,353.364 L2453.48,357.754 L2452.29,363.703 L2451.93,364.539 L2452.1,367.054 L2451.92,370.614 L2451.13,377.015 L2462.83,368.082 L2464.8,394.413 L2465.35,408.04 L2465.43,415.781 L2466.52,427.883 L2466.88,434.888 L2467.61,441.839 L2467.88,447.29 L2468.62,452.905 L2469.22,455.903 L2469.44,458.492 L2469.44,463.998 L2469.27,466.588 L2470.01,474.955 L2470.34,478.035 L2470.45,481.77 L2470.99,489.21 L2471.65,492.89 L2472.22,498.996 L2472.82,505.237 L2465.12,504.811 L2462.36,504.578 L2459.28,504.344 L2455.86,504.097 L2452.31,503.782 L2449.63,503.584 L2438.84,502.515 L2438.69,506.437 L2437.9,512.461 L2438.1,514.475 L2438.24,518.897 L2437.88,521.294 L2438.27,525.596 L2438.27,532.767 L2438.37,540.889 L2438.32,548.113 L2438.23,555.417 L2438.18,562.504 L2438.13,569.919 L2437.86,577.198 L2437.53,586.603 L2437.06,591.015 L2436.25,598.055 L2435.43,602.578 L2435.08,605.959 L2434.25,610.312 L2433.93,613.189 L2432.84,616.275 L2431.09,621.124 L2429.78,625.685 L2428.5,629.823 L2426.81,633.289 L2425.04,639.55 L2423.59,643.674 L2422.91,645.855 L2421.54,647.859 L2419.79,649.367 L2417.71,650.598 L2415.09,651.607 L2413.47,652.687 L2412.69,653.676 L2412.54,654.547 L2412.95,656.225 L2414.04,660.262 L2414.58,664.63 L2414.8,670.304 L2414.69,674.463 L2413.48,676.883 L2410.32,679.94 L2407.72,683.565 L2407.38,683.967 L2404.76,688.55 L2402.09,691.237 L2397.55,694.232 L2391.34,699.459 L2385.13,706.87 L2379.57,712.871 L2373.05,717.758 L2375.93,733.758 L2379.52,751.529 L2384.45,778.437 L2388.26,796.208 L2389.3,807.524 L2392.51,822.996 L2394.14,829.299 L2397.6,841.3 L2409.87,861.963 L2419.41,873.626 L2426,884.211 L2431.73,894.104 L2438.28,906.526 L2438.21,907.292 L2437.76,907.798 L2427.5,908.413 L2418.36,909.205 L2401.42,910.006 L2398.03,922.31 L2399.99,922.397 L2398.47,933.659 L2398.32,934.01 L2397.8,934.334 L2393.65,941.852 L2381.07,964.917 L2372.78,979.424 L2373.76,980.392 L2377.89,984.325 L2378.81,985.258 L2381.24,987.718 L2384.35,990.268 L2385.16,991.012 L2384.5,992.164 L2383.06,993.407 L2369.16,1008.87 L2368.91,1009.27 L2368.83,1009.86 L2375.14,1019.01 L2378.13,1023.08 L2380.47,1026.15 L2372.83,1034.53 L2371.33,1036.13 L2364.45,1042.51 L2372.78,1048.55 L2377.01,1051.62 L2384.75,1057.73 L2388.66,1061.13 L2390.6,1063.25 L2392.39,1065.35 L2393.04,1066.54 L2393.68,1069.21 L2394.36,1072.4 L2395.55,1076.15 L2398.06,1082.8 L2399.32,1085.87 L2401.81,1091.24 L2404.71,1096.75 L2410.54,1105.37 L2416.81,1114.64 L2421.87,1120.62 L2429.64,1128.45 L2435.58,1134.36 L2440.13,1138.7 L2448.86,1147.43 L2460.09,1158.71 L2473.39,1171.87 L2477.05,1175.24 L2480.26,1178.2 L2483.54,1181.11 L2486.26,1183.11 L2492.65,1187.27 L2507.23,1197.43 L2516.56,1203.67 L2527.48,1211.28 L2538.37,1218.76 L2544.06,1222.64 L2546.59,1224.45 L2543.82,1228.5 L2534.99,1242.07 L2523.92,1259.02 L2516.78,1269.27 L2508.39,1281.43 L2496.72,1298.49 L2489.03,1310.05 L2482.27,1317.52 L2472.73,1328.15 L2455.28,1346.09 L2442.45,1359.07 L2425.3,1376.24 L2421.92,1379.7 L2419.52,1382.64 L2417,1386.15 L2412.93,1392.37 L2407.1,1401.84 L2401.94,1410.35 L2388.18,1432.79 L2383.27,1441.13 L2379.58,1448.25 L2388.51,1453.62 L2404.43,1463.46 L2416.11,1470.83 L2423.24,1476.16 L2428.87,1481.08 L2433.54,1488.1 L2442.71,1506.32 L2446.09,1513.58 L2463.14,1550.25 L2473.5,1572.49 L2475.86,1577.69 L2484.29,1596.26 L2490.94,1610.92 L2504.52,1639.21 L2507.3,1645.37 L2512.06,1655.87 L2518.8,1671.22 L2527.17,1689.1 L2529.03,1693.18 L2538.86,1714.17 L2539.45,1715.44 L2558.1,1755.78 L2572.22,1786.34 L2576.18,1794.93 L2586.08,1816.37 L2601.6,1850.01 L2619.03,1887.48 L2623.66,1897.61 L2631.37,1915.21 L2641.94,1938.71 L2652.78,1961.56 L2666.96,1991.47 L2692.32,2047.41 L2696.27,2056.15 L2697.19,2057.93 L2697.8,2059.43 L2699.41,2063.45 L2700.84,2065.62 L2701.25,2066.72 L2701.43,2068.34 L2702.21,2069.45 L2711.35,2089.22 L2713.57,2116.06 L2717.93,2132.22 L2721.26,2144.74 L2725.76,2161.77 L2726.03,2163.68 L2726.14,2166.7 L2727.34,2177.62 L2717.45,2176.98 L2717.09,2184.69 L2717.53,2191.68 L2717.73,2196.55 L2712.56,2196.91 L2711.68,2206.59 L2711.02,2212.59 L2710.72,2220.71 L2710.68,2226.24 L2709.74,2233.14 L2709.84,2237.16 L2709.2,2242.45 L2708.37,2245.97 L2707.75,2256.88 L2709.32,2269.02 L2708.43,2272.69 L2709.1,2273.41 L2708.33,2276.37 L2713.44,2277.41 L2713.53,2280.49 L2715.69,2280.56 L2717.28,2285.45 L2720.89,2285.24 L2721.22,2287.62 L2717.14,2287.48 L2715.84,2287.45 L2715.75,2288.91 L2718.45,2289.66 L2723.15,2290.93 L2722.66,2300.55 L2721.98,2313.02 L2730.94,2313.81 L2731.49,2316.05 L2732.09,2318.93 L2732.91,2321.93 L2733.44,2323 L2734.96,2323.13 L2735.34,2323.38 L2736.36,2341.17 L2735.62,2352.31 L2732.97,2353.01 L2733.13,2356.29 L2733.88,2361.19 L2734.38,2363.42 L2734.63,2364.42 L2737.07,2377.32 L2738.87,2384.58 L2736.86,2385.23 L2738.52,2390.97 L2739.95,2391.06 L2740.16,2393.44 L2739.89,2394.72 L2742.34,2407.88 L2745.11,2408.47 L2745.78,2413.87 L2745.23,2418.15 L2745.58,2422.36 L2745.82,2425.26 L2745.35,2425.35 L2744.72,2425.43 L2733.9,2427.48 L2734.09,2428.01 L2735.21,2431.09 L2735.85,2432.75 L2736.1,2433.57 L2736.41,2435.17 L2736.55,2436.11 L2736.99,2437.47 L2739,2441.63 L2741.93,2446.51 L2742.05,2446.78 L2742.05,2447.22 L2739.47,2448.26 L2735.85,2449.49 L2735.74,2449.63 L2735.76,2450.02 L2736.12,2450.64 L2736.63,2451.86 L2736.65,2452.31 L2736.56,2452.46 L2732.16,2453.89 L2732.04,2454.11 L2732.03,2454.3 L2734.2,2461.19 L2734.53,2462.53 L2735.43,2466.8 L2736.01,2472.63 L2736.81,2480.98 L2736.94,2482.4 L2731.85,2484.31 L2726.43,2486.28 L2720.88,2488.16 L2712.02,2491.56 L2708.94,2491.65 L2709.25,2496.09 L2709.48,2499.47 L2708.62,2499.85 L2707.43,2500.53 L2706.39,2501.06 L2704.68,2501.77 L2699.19,2503.07 L2696.72,2504.81 L2693.23,2506.12 L2693.5,2509.1 L2682.03,2511.11 L2678.39,2511.99 L2678,2508.47 L2677.79,2506.51 L2677.67,2505.46 L2677.56,2504.13 L2670.15,2505.28 L2669.91,2504.5 L2668.22,2497.36 L2663.89,2498.23 L2661.71,2491.98 L2659.25,2493.02 L2657.44,2494.03 L2654.92,2495.12 L2649.45,2496.96 L2644.54,2497.17 L2640.81,2497.36 L2636.83,2497.55 L2636.54,2494.25 L2636.5,2493.81 L2635.95,2491.18 L2635.76,2489.88 L2634.52,2482.32 L2633.22,2482.86 L2631.24,2483.68 L2629.28,2484.51 L2627.31,2485.34 L2625.98,2485.9 L2625.44,2486.12 L2623.67,2486.95 L2622.53,2487.43 L2621.73,2487.85 L2619.83,2488.54 L2618.14,2488.66 L2617.76,2487.27 L2607.14,2489.8 L2606.86,2488.48 L2606.75,2486.46 L2606.94,2483.89 L2606.64,2481.76 L2608.98,2481.18 L2607.99,2477.37 L2607.7,2475.5 L2607.49,2474.84 L2607,2474.05 L2602.26,2475.53 L2601.05,2475.82 L2600.93,2474.94 L2600.67,2473.64 L2600.52,2473.05 L2600.27,2472.85 L2599.71,2472.87 L2599.31,2472.93 L2592.95,2475.05 L2588.81,2476.72 L2588.53,2477 L2588.36,2477.39 L2588.31,2479.13 L2588.27,2480.84 L2588.21,2482.54 L2588.15,2484.23 L2588.15,2487.03 L2588.12,2489.31 L2588.26,2490.11 L2588.59,2492.03 L2589.37,2494.35 L2590.63,2496.47 L2591.39,2497.75 L2592.04,2498.84 L2590.58,2498.71 L2589.24,2498.54 L2588.55,2498.62 L2587.31,2499.55 L2586.28,2500.08 L2585.29,2500.1 L2583.14,2500.44 L2581.16,2500.57 L2580.94,2500.54 L2580.01,2500.43 L2578.07,2500.24 L2573.34,2499.17 L2571.85,2498.81 L2568.24,2497.99 L2564.57,2497.28 L2563.12,2496.82 L2560.56,2497.42 L2559.67,2497.49 L2559.1,2497.8 L2558.88,2498.71 L2564.6,2509.02 L2566.93,2508.08 L2567.49,2508.97 L2568.22,2510.44 L2572.04,2517.61 L2572.23,2518.03 L2573.19,2517.56 L2573.91,2519.24 L2574.51,2521.14 L2575.26,2523.27 L2574.6,2523.49 L2574.23,2523.64 L2570.92,2524.81 L2570.24,2524.91 L2563.92,2524.84 L2561.74,2525.09 L2559.1,2525.41 L2547.13,2527.92 L2545.51,2528.4 L2545.12,2521.75 L2545.1,2521.33 L2544.52,2520.12 L2543.22,2517.23 L2541.59,2513.49 L2540.67,2511.57 L2540,2510.03 L2539.35,2508.68 L2527.8,2514.98 L2520.46,2505.53 L2519.25,2505.74 L2518.56,2504.49 L2516.94,2505.12 L2515.21,2506 L2514.72,2505.31 L2512.73,2506.07 L2507.17,2508.65 L2504.91,2509.56 L2504.57,2509.75 L2504.31,2510.11 L2502.94,2512.18 L2500.56,2514.58 L2500.18,2515.13 L2499.97,2515.84 L2499.76,2516.93 L2499.55,2519.04 L2499.5,2521.5 L2499.3,2522.89 L2499.15,2523.76 L2498.8,2524.25 L2498.28,2524.55 L2496.81,2524.96 L2495.96,2524.99 L2495.45,2525.01 L2492.26,2524.78 L2490.94,2524.67 L2487.51,2524.87 L2485.2,2524.85 L2481.67,2524.97 L2479.42,2525.07 L2478.14,2526.95 L2477.42,2527.98 L2476.75,2528.89 L2476.29,2529.19 L2472.26,2529.05 L2472.09,2532.49 L2471.73,2540.87 L2475.51,2541.36 L2479.21,2541.19 L2480.1,2541.23 L2481.64,2541.3 L2483.86,2548.17 L2484.75,2549.39 L2485.22,2550.67 L2485.91,2551.94 L2486.33,2553.22 L2486.54,2554.22 L2486.78,2557.19 L2486.89,2559.62 L2484.29,2560.76 L2478.6,2562.07 L2477.43,2562.31 L2476.82,2566.42 L2476.64,2569.31 L2475.66,2575.98 L2475.02,2580.93 L2482.29,2581.87 L2481.36,2587.7 L2481.13,2589.19 L2480.25,2595.28 L2472.98,2594.17 L2472.14,2600.58 L2473.36,2611.49 L2473.3,2612.41 L2472.57,2614.63 L2472.49,2615.11 L2472.48,2615.33 L2472.63,2616.63 L2477.65,2616.31 L2478.67,2616.41 L2482.04,2617.36 L2484.4,2617.51 L2486.16,2624.44 L2486.25,2625.04 L2486.4,2625.32 L2487.07,2626.53 L2488.58,2632.62 L2488.41,2632.92 L2486.18,2633.03 L2483.47,2633.7 L2476.16,2636.08 L2472.67,2637.47 L2469.61,2639.04 L2468.06,2639.67 L2465.7,2640.11 L2462.95,2640.03 L2460.4,2639.93 L2458.72,2639.46 L2456.59,2639.52 L2453.17,2639.88 L2451.81,2640.22 L2451.04,2640.33 L2449.27,2639.83 L2447.95,2639.56 L2446.38,2639.86 L2444.74,2639.89 L2444.23,2640.54 L2444.26,2641.71 L2444.92,2643.22 L2444.25,2646.4 L2444.22,2649.09 L2442.97,2650.17 L2442.7,2650.75 L2443.63,2652.55 L2443.41,2653.42 L2442.59,2654.08 L2442.05,2654.84 L2441.72,2655.93 L2440.9,2658.55 L2439.76,2660.4 L2439.27,2662.58 L2438.18,2664.82 L2436.11,2666.56 L2435.4,2666.94 L2434.52,2667.54 L2434.2,2668.03 L2433.71,2669.07 L2433.38,2670.43 L2432.45,2671.41 L2431.25,2672.83 L2427.44,2676.43 L2420.24,2681.01 L2416.05,2683.79 L2412.94,2685.42 L2411.63,2685.86 L2410.43,2686.35 L2408.79,2687.22 L2408.03,2688.26 L2406.78,2689.4 L2405.47,2690.11 L2404.11,2690.28 L2401.16,2690.6 L2398.49,2691.04 L2396.09,2691.15 L2393.64,2690.82 L2391.84,2690.17 L2391.02,2689.62 L2388.95,2687.5 L2387.54,2687.06 L2385.08,2687.11 L2383.45,2686.62 L2380.99,2685.59 L2378.76,2684.33 L2373.36,2683.84 L2370.42,2682.53 L2368.67,2681.28 L2365.73,2680.35 L2362.4,2679.21 L2358.86,2680.95 L2356.74,2681.83 L2353.03,2682.86 L2353.95,2685.04 L2354.83,2688.26 L2355.1,2691.15 L2353.63,2697.32 L2351.47,2701.83 L2347.23,2707.17 L2345.28,2708.92 L2344.88,2709.19 L2344.45,2709.23 L2339.21,2706.63 L2332.86,2703.61 L2332.05,2703.38 L2331.04,2703.35 L2330.78,2703.36 L2330.3,2703.52 L2329.71,2703.81 L2329.44,2704 L2328.76,2704.76 L2328.38,2705.44 L2327.21,2708.27 L2325,2713 L2324.76,2713.15 L2324.25,2713.26 L2323.37,2713.31 L2319.06,2713.07 L2312.77,2712.57 L2312.22,2712.55 L2311.7,2712.66 L2310.35,2713.41 L2308.02,2714.65 L2303.06,2717.29 L2297.32,2720.32 L2293.28,2722.47 L2288.61,2724.96 L2285.26,2726.77 L2283.24,2727.93 L2269.01,2735.23 L2262.66,2723.23 L2254.43,2707.69 L2237.99,2716.53 L2185.05,2745.23 L2183.44,2727.24 L2184.05,2726.38 L2183.11,2723.46 L2184.24,2721.35 L2181.97,2720.75 L2177.07,2713.12 L2180.08,2711.24 L2177.43,2705.66 L2173.8,2706.84 L2171.65,2703.36 L2170.08,2699.84 L2110.14,2698.17 L2107.6,2699.8 L2104.8,2694.63 L2105.02,2692.89 L2109.98,2691.44 L2110.6,2690.51 L2110.35,2689.05 L2107.34,2689.42 L2107.78,2686.82 L2099.96,2683.47 L2097.24,2681.99 L2094.22,2685.17 L2089.08,2695.21 L2085.66,2694.74 L2082.7,2699.58 L2081.04,2699.26 L2079.04,2704.24 L2077.07,2702.83 L2074.04,2706.1 L2071.42,2708.79 L2068.59,2711.48 L2066.32,2713.43 L2066.85,2714.15 L2063.57,2716.17 L2061.46,2716.63 L2058.47,2718.16 L2055.02,2718.45 L2051.19,2718.84 L2048.01,2719.51 L2046.35,2720.02 L2044.24,2720.76 L2042.89,2721.33 L2040.8,2722.18 L2040.48,2722.28 L2037.05,2723.31 L2028.26,2725.99 L2026.17,2729.56 L2021.67,2733.94 L2017.91,2737.84 L2011.16,2737.83 L2003.8,2735.81 L1997.36,2734.09 L1991.84,2738.54 L1987.93,2731.3 L1986.26,2727.81 L1984.56,2724.5 L1982.99,2721.04 L1979.69,2714.44 L1975.99,2706.77 L1974.72,2704 L1972.51,2699.82 L1970.11,2695.18 L1968.4,2691.71 L1966.61,2687.92 L1965.87,2686.53 L1965.21,2684.98 L1964.44,2683.14 L1964.3,2682.88 L1963.51,2681.29 L1962.93,2680.4 L1961.83,2678.17 L1961.35,2675.73 L1961.19,2673.11 L1960.89,2671.97 L1960.25,2670.7 L1959.69,2669.34 L1958.9,2665.92 L1958.6,2665.19 L1958,2664.47 L1956.96,2663.33 L1956.43,2661.08 L1955.34,2660.11 L1954.54,2660.16 L1952.41,2661.8 L1950.67,2662.29 L1949.11,2662.61 L1948.51,2662.23 L1947.81,2661.62 L1947.12,2660.83 L1946.31,2660.47 L1945.58,2660.75 L1943.83,2662.05 L1943.16,2662.29 L1942.31,2662.47 L1939.88,2661.93 L1938.84,2661.77 L1938.04,2662 L1937.43,2662.52 L1936.77,2663.27 L1936.28,2663.65 L1933.52,2664.54 L1930.52,2665.33 L1930.12,2665.59 L1929.76,2666.28 L1929.85,2667.04 L1930.28,2667.93 L1930.33,2668.66 L1929.84,2669.34 L1928.55,2669.42 L1928.11,2669.55 L1927.89,2670 L1927.76,2670.66 L1927.54,2671.25 L1926.89,2672 L1926.66,2672.72 L1926.67,2673.49 L1927.02,2674.28 L1927.28,2675.02 L1927.21,2675.86 L1926.85,2676.43 L1926.38,2677.13 L1926.27,2677.78 L1926.48,2680.27 L1926.76,2681.85 L1926.71,2682.7 L1925.96,2683.33 L1925.03,2684.14 L1924.23,2685.2 L1923.54,2687.03 L1922.61,2689.24 L1922.05,2691.22 L1921.33,2693.39 L1920.57,2695.56 L1920.07,2696.14 L1919.27,2696.19 L1918.4,2696.03 L1917.61,2695.18 L1917.01,2693.95 L1916.65,2693.38 L1916.11,2692.91 L1915.29,2692.58 L1913.99,2692.57 L1912.65,2692.7 L1911.43,2692.91 L1911.21,2693.97 L1910.6,2695.66 L1909.95,2696.53 L1908.5,2699.26 L1907.24,2700.66 L1905.77,2702 L1904.09,2703.09 L1902.13,2703.75 L1899.75,2704.64 L1895.67,2706.65 L1893.48,2707.41 L1891.4,2707.98 L1889.26,2708.16 L1887.17,2708.39 L1885.49,2708.68 L1884.46,2708.92 L1883.43,2709.37 L1881.81,2710.4 L1880.45,2711.46 L1874.04,2713.67 L1873.34,2714.03 L1871.11,2715.87 L1869.23,2717.77 L1868.14,2719.39 L1862.49,2724.13 L1844.48,2714.92 L1835.14,2710.16 L1826.05,2703.97 L1824.38,2685.02 L1816.85,2685.71 L1804.64,2686.36 L1797.82,2686.86 L1794.13,2686.93 L1786.82,2687.26 L1770.89,2688.75 L1762.53,2689.62 L1755.02,2690.56 L1742.67,2692.65 L1727.32,2695.94 L1724.41,2696.23 L1720.13,2697.2 L1713.72,2698.09 L1705.35,2699.51 L1703.21,2700.02 L1702.96,2699.99 L1702.42,2698.18 L1699.4,2698.77 L1698.69,2698.75 L1690.17,2700.13 L1686.68,2700.57 L1686.41,2700.69 L1686.21,2700.86 L1685.88,2701.25 L1685.54,2701.52 L1684.93,2701.67 L1679.64,2702.76 L1674.07,2704.19 L1662.62,2706.79 L1645.75,2711.76 L1648.75,2718.49 L1655.97,2736.5 L1657.8,2743.17 L1652.64,2744.72 L1647.55,2746.18 L1652.89,2761.59 L1654.89,2767.18 L1655.47,2768.39 L1656.14,2769.81 L1656.73,2771.57 L1658.27,2774.77 L1648.16,2776.62 L1627.95,2778.43 L1633.55,2795.26 L1637.31,2806.66 L1640.64,2817.1 L1645.86,2832.98 L1649.71,2844.05 L1630.7,2847.56 L1625.14,2848.15 L1606.72,2853.12 L1600.61,2854.78 L1598.24,2855.45 L1595.39,2856.87 L1569.43,2867.17 L1566.96,2867.96 L1561.83,2867.25 L1551.19,2864.91 L1549.61,2863.97 L1547.98,2862.5 L1546.33,2860.26 L1544.46,2858.06 L1537.4,2853.03 L1522.59,2858.86 L1512.34,2862.23 L1508.26,2854.21 L1504.78,2848 L1489.44,2853.44 L1470.74,2860.09 L1467.71,2850.5 L1464.93,2842.22 L1460.46,2830.08 L1458.43,2826.39 L1450.72,2826.12 L1447.52,2825.98 L1442.4,2824.88 L1439.71,2823.89 L1438.06,2823.52 L1430.38,2824.19 L1421.82,2824.79 L1421.69,2824 L1421.56,2822.56 L1421.71,2821.32 L1421.65,2820.16 L1421.54,2819.26 L1419.98,2819.19 L1416,2819.77 L1415.57,2819.63 L1415.47,2819.5 L1415.42,2819.28 L1416.21,2816.03 L1408.13,2816.03 L1389.78,2816.85 L1389.35,2816.8 L1389.13,2816.68 L1389.03,2816.52 L1388.8,2812.97 L1388.55,2810.8 L1388.49,2810.59 L1388.38,2810.51 L1382.16,2809.5 L1378.76,2809.12 L1372.89,2808.04 L1372.69,2808.05 L1372.59,2808.15 L1372.45,2809.32 L1372.31,2809.5 L1372.13,2809.53 L1367.94,2808.74 L1367.58,2808.68 L1367.31,2808.74 L1365.32,2809.61 L1363.66,2810.22 L1360.07,2811.45 L1358.26,2811.9 L1357.55,2811.95 L1353.65,2811.74 L1353.47,2811.86 L1353.38,2812.3 L1353.1,2812.46 L1347.46,2812.39 L1346.05,2812.26 L1345.46,2811.9 L1344.48,2811.53 L1337.29,2810.29 L1337.83,2807.2 L1338.46,2805.83 L1340.38,2802.74 L1342.1,2800.23 L1342.83,2799.14 L1343.22,2798.54 L1343.89,2797.48 L1343.97,2797.32 L1344.41,2796.47 L1344.61,2796.25 L1345.59,2794.49 L1345.98,2793.69 L1347.51,2791.62 L1349.28,2788.89 L1349.52,2788.61 L1350.35,2788.14 L1351.19,2786.49 L1353.26,2779.84 L1353.64,2777.06 L1353.26,2774.88 L1351.95,2769.86 L1351.9,2768.07 L1352.28,2765.5 L1353.86,2760.65 L1354.68,2757.49 L1354.24,2753.07 L1354.41,2750.29 L1354.35,2747.62 L1354.02,2744.35 L1354.19,2741.79 L1357.02,2738.79 L1359.2,2736.12 L1361.66,2731.98 L1364.74,2726.83 L1364.9,2725.34 L1365.4,2724.22 L1366.16,2722.69 L1367.82,2719.03 L1368.48,2717.52 L1368.82,2717.08 L1370.29,2715.8 L1370.58,2715.4 L1371.85,2714.19 L1372.73,2713.31 L1373.82,2712.53 L1374.26,2711.7 L1374.71,2710.53 L1374.77,2709.08 L1374.9,2707.88 L1375.32,2706.5 L1375.72,2704.79 L1376.53,2702.35 L1376.61,2701.59 L1376.79,2701.08 L1376.78,2697.41 L1376.74,2695.25 L1376.7,2693.59 L1376.6,2692.6 L1376.51,2691.86 L1376.48,2691.63 L1376.19,2690.59 L1376.06,2690.29 L1375.42,2688.77 L1374.97,2687.34 L1374.81,2686.5 L1374.87,2685.96 L1375.24,2683.39 L1375.56,2682.19 L1375.78,2681.39 L1375.85,2680.74 L1376.43,2677.85 L1376.44,2674.94 L1376.33,2674.17 L1376.39,2673.45 L1376.36,2672.48 L1376.26,2672.41 L1376.04,2672.33 L1375.97,2672.12 L1375.94,2671.7 L1375.99,2671.32 L1376.18,2670.64 L1376.26,2670.15 L1376.26,2669.01 L1376.46,2667.57 L1376.8,2666.36 L1376.96,2665.6 L1377.23,2662.65 L1377.51,2660.71 L1377.7,2659.35 L1377.89,2658.33 L1378.13,2657.68 L1378.21,2657.47 L1378.74,2655.64 L1379.29,2653.72 L1379.81,2651.7 L1379.81,2650.38 L1379.64,2648.56 L1378.7,2640.98 L1378.65,2640.73 L1378.54,2640.48 L1378.36,2640.18 L1378.14,2639.94 L1377.82,2639.5 L1376,2637.37 L1373.09,2633.81 L1371.27,2631.19 L1370.92,2630.41 L1370.74,2630 L1370.62,2629.38 L1370.61,2629.11 L1370.63,2628.59 L1370.54,2628.21 L1370.34,2627.94 L1369.74,2627.51 L1368.8,2627.01 L1368.57,2626.86 L1368.15,2626.6 L1367.58,2626.23 L1367.25,2626.03 L1366.9,2625.8 L1366.61,2625.59 L1366.38,2625.37 L1366.13,2625.08 L1365.88,2624.73 L1365.43,2623.99 L1365.08,2623.47 L1364.87,2623.45 L1364.26,2623.47 L1364.05,2623.53 L1363.89,2623.7 L1363.78,2624.03 L1363.5,2625.16 L1362.97,2627.38 L1362.01,2631.63 L1361.89,2631.89 L1361.68,2632.12 L1361.32,2632.35 L1360.81,2632.58 L1358.99,2633.11 L1358.28,2633.23 L1357.5,2633.26 L1355.93,2633.2 L1353.76,2633.03 L1352.05,2632.93 L1348.39,2632.93 L1346.08,2632.89 L1343.37,2632.93 L1341.98,2632.95 L1341.75,2632.92 L1341.61,2632.85 L1341.51,2632.7 L1341.43,2632.43 L1341.27,2629.5 L1341.21,2628.46 L1341.13,2628.27 L1341.04,2628.14 L1340.91,2628.06 L1340.07,2628.11 L1339.9,2628.12 L1337.29,2628.37 L1336.74,2628.41 L1331.61,2628.81 L1331.39,2628.84 L1331.18,2628.9 L1330.78,2629.03 L1330.46,2629.11 L1329.95,2629.25 L1328.17,2629.71 L1326.71,2630.02 L1325.33,2630.31 L1324.8,2630.44 L1324.09,2630.61 L1318.4,2632.31 L1317.67,2632.53 L1316.84,2632.57 L1315.92,2632.57 L1315.29,2632.52 L1314.39,2632.29 L1313.02,2631.83 L1310.28,2630.88 L1309.28,2630.56 L1308.53,2630.33 L1306.5,2629.64 L1305.17,2629.07 L1302.48,2627.75 L1300.13,2626.71 L1298.28,2626.03 L1297.74,2625.91 L1297.28,2625.9 L1296.73,2625.94 L1295.79,2626.21 L1292.97,2627.01 L1289.61,2627.86 L1287.95,2628.2 L1287.7,2628.18 L1287.49,2628.12 L1287.37,2628 L1287.34,2627.81 L1287.39,2627.35 L1287.87,2624.53 L1287.87,2624.33 L1287.79,2624.13 L1287.61,2624.03 L1287.3,2624 L1285.7,2623.91 L1285.5,2623.89 L1285.25,2623.78 L1284.68,2623.28 L1284.08,2622.72 L1283.36,2622.07 L1282.97,2621.62 L1282.46,2620.97 L1282.06,2620.45 L1281.76,2619.99 L1281.43,2619.63 L1281.24,2619.4 L1280.79,2618.67 L1280.19,2617.9 L1279.85,2617.66 L1279.39,2617.46 L1279.17,2617.29 L1278.74,2617.14 L1277.64,2617.21 L1270.95,2618.51 L1260.3,2619.42 L1251.11,2620.49 L1250.65,2620.68 L1249.6,2621.42 L1247.42,2622.87 L1246.23,2623.66 L1245.87,2623.97 L1245.63,2624.29 L1245.32,2624.94 L1244.78,2627.32 L1244.43,2628.91 L1243.87,2631.4 L1243.42,2633.41 L1242.97,2635.41 L1242.69,2636.66 L1242.29,2638.43 L1242.08,2639.39 L1241.96,2640.13 L1241.72,2641.66 L1241.54,2642.76 L1240.89,2643.47 L1240.65,2643.73 L1240.51,2643.79 L1238.66,2644.46 L1236.92,2644.61 L1222.37,2644.89 L1218.46,2644.97 L1213.32,2645.17 L1208.83,2646.63 L1207.41,2646.69 L1207.38,2646.63 L1207.26,2646.29 L1206.28,2643.82 L1205.45,2641.68 L1204.47,2639.31 L1202.99,2635.74 L1201.65,2632.22 L1201.1,2631.19 L1200.41,2630.41 L1200.1,2630.17 L1199.64,2629.84 L1198.68,2629.26 L1197.71,2628.71 L1196.92,2628.36 L1196.16,2628 L1194.85,2627.46 L1193.38,2626.81 L1191.42,2625.87 L1190.65,2625.45 L1189.96,2625.05 L1189.38,2624.8 L1188.39,2624.38 L1187.77,2624.19 L1187.08,2624.12 L1186.32,2624.11 L1185.34,2623.93 L1183.66,2623.37 L1182.2,2622.8 L1180.68,2622.21 L1176.23,2620.58 L1171.53,2618.69 L1169.53,2617.85 L1167.22,2616.62 L1165.21,2615.54 L1164.72,2615.35 L1163.53,2615.04 L1162.92,2614.78 L1162.38,2614.46 L1160.82,2613.45 L1158.61,2612.02 L1158.24,2611.64 L1158.19,2611.48 L1158.18,2611.3 L1158.21,2611.11 L1158.36,2610.79 L1163.75,2603.8 L1166.46,2600.28 L1166.63,2600.05 L1166.84,2599.7 L1166.86,2599.46 L1166.73,2599.2 L1166.17,2598.67 L1165.22,2597.98 L1163.31,2596.58 L1161.55,2595.27 L1161.43,2595.11 L1161.4,2594.89 L1161.46,2594.65 L1161.82,2593.99 L1162.48,2593.04 L1162.58,2592.89 L1163.56,2591.45 L1163.61,2591.25 L1163.61,2591.06 L1163.49,2590.89 L1163.32,2590.77 L1161.12,2590.08 L1160.44,2589.87 L1157.33,2588.88 L1155.1,2588.11 L1153.39,2587.47 L1153.23,2587.36 L1153.14,2587.23 L1153.08,2587.06 L1153.12,2586.85 L1153.59,2585.84 L1154.91,2583.03 L1155.72,2580.95 L1155.94,2579.98 L1155.95,2579.16 L1155.8,2577.86 L1155.26,2574.97 L1154.14,2570.41 L1153.88,2569.29 L1153.64,2567.76 L1153.49,2566.51 L1153.36,2565.46 L1153.05,2563.88 L1152.85,2562.94 L1152.66,2562.15 L1152.65,2562.1 L1152.6,2561.42 L1152.73,2560.73 L1152.77,2560.51 L1153.52,2559.26 L1154.02,2558.42 L1154.22,2557.77 L1154.27,2556.82 L1153.45,2551.93 L1153.36,2551.38 L1153.61,2549.32 L1153.63,2547.87 L1153.38,2543.33 L1153.03,2538.68 L1153.04,2538.4 L1153.08,2538.32 L1153.16,2538.25 L1153.36,2538.17 L1153.98,2537.99 L1154.1,2537.92 L1154.2,2537.84 L1154.27,2537.74 L1154.26,2537.57 L1153.93,2535.33 L1153.44,2531.95 L1152.74,2526.8 L1152.06,2522.19 L1151.5,2517.34 L1151.08,2512.65 L1150.89,2510.09 L1150.89,2506.62 L1151.08,2502.85 L1151.12,2497.32 L1151.14,2494.39 L1151.43,2490.84 L1151.35,2490.49 L1151.02,2490.4 L1150.19,2490.31 L1150.04,2490.21 L1149.44,2486.67 L1148.33,2479 L1148.34,2478.64 L1148.42,2478.44 L1148.57,2478.18 L1149.05,2477.7 L1149.33,2469.29 L1149.22,2461.82 L1149.55,2459.43 L1149.52,2457.06 L1149.4,2455.45 L1148.7,2452.04 L1147.99,2448.87 L1147.57,2446.4 L1147.58,2444.59 L1148.06,2441.42 L1148.39,2437.62 L1148.54,2433.95 L1148.61,2432.94 L1148.49,2430.7 L1147.78,2422.42 L1147.81,2421.93 L1147.76,2421.38 L1147.49,2419.98 L1147.31,2418.47 L1147.37,2417.81 L1147.45,2416.81 L1148.14,2413.42 L1148.72,2411.69 L1149.1,2410.9 L1149.42,2410.36 L1149.66,2409.71 L1150,2409.17 L1151.61,2406.41 L1152.42,2404.73 L1153.03,2402.73 L1153.4,2401.81 L1153.9,2401.14 L1154.22,2400.56 L1154.5,2399.6 L1154.75,2398.31 L1154.88,2398.05 L1155.04,2397.94 L1155.46,2397.88 L1158.53,2397.64 L1159.3,2397.58 L1162.9,2396.99 L1164.25,2396.72 L1164.55,2396.62 L1164.7,2396.42 L1164.72,2396.06 L1164.8,2393.92 L1164.84,2393.73 L1164.95,2393.58 L1165.18,2393.52 L1174.5,2392.37 L1176.92,2392.02 L1177.41,2391.91 L1177.56,2391.83 L1177.67,2391.63 L1177.71,2391.52 L1177.23,2388.87 L1177.26,2388.01 L1177.3,2387.58 L1177.37,2387.07 L1177.29,2385.84 L1177.1,2384.78 L1176.91,2383.98 L1176.38,2382.37 L1176.04,2380.92 L1175.15,2375.83 L1175.1,2375.58 L1174.67,2372.62 L1174.63,2372.13 L1174.67,2372 L1174.71,2371.85 L1175.01,2371.72 L1175.96,2371.57 L1177.11,2371.49 L1177.91,2371.51 L1178.67,2371.52 L1179.34,2371.56 L1179.81,2371.57 L1180.25,2371.5 L1185.9,2370.76 L1186.27,2370.71 L1185.71,2367.1 L1185.19,2362.94 L1184.94,2360.18 L1184.87,2359.42 L1184.79,2357.75 L1184.75,2357.15 L1184.65,2355.63 L1184.55,2353.58 L1184.49,2352.6 L1184.44,2351.46 L1184.23,2348.35 L1184.19,2347.75 L1184.13,2346.87 L1184.01,2345.99 L1183.91,2345.43 L1183.64,2344.37 L1183.41,2343.66 L1183.16,2342.98 L1182.14,2340.75 L1182.1,2340.63 L1181.64,2339.16 L1181.54,2338.68 L1180.32,2332.7 L1180.03,2331.05 L1179.64,2328.81 L1179.59,2328.58 L1179.22,2326.34 L1179.16,2326.03 L1178.79,2323.93 L1178.27,2321.05 L1177.95,2319.54 L1177.56,2318.42 L1177.49,2318.21 L1177.3,2318.32 L1175.18,2319.53 L1173.98,2320.05 L1170.66,2320.64 L1169.78,2320.58 L1168.9,2320.4 L1168.51,2320.81 L1167.52,2321.86 L1165.65,2323.38 L1165.05,2323.64 L1163.88,2324.1 L1162.24,2325.28 L1160.85,2326.5 L1160.22,2327.28 L1159.43,2328.44 L1157.58,2331.89 L1156.7,2333.39 L1156.35,2333.8 L1155.96,2334.18 L1154.6,2335 L1153.07,2335.59 L1152.47,2335.7 L1151.17,2335.66 L1150.38,2335.69 L1148.58,2335.44 L1147.48,2335.87 L1146.26,2336.5 L1145.27,2337.14 L1144.28,2337.95 L1143.27,2339.11 L1142.23,2340.75 L1141.01,2342.32 L1140.59,2343.08 L1139.64,2345.24 L1138.35,2347.26 L1137.4,2349.14 L1136.73,2349.97 L1134.61,2352.08 L1133.98,2353.03 L1133.48,2354.01 L1131.11,2356.83 L1130.91,2356.9 L1130,2356.94 L1129.28,2357.07 L1128.54,2357.18 L1127.89,2357.25 L1127,2357.34 L1126.45,2357.42 L1125.94,2357.52 L1125.47,2357.67 L1124.92,2357.89 L1124.3,2358.18 L1123.68,2358.37 L1122.59,2358.52 L1121.41,2358.66 L1120.32,2358.73 L1119.05,2358.85 L1118.31,2358.98 L1117.52,2359.08 L1116.98,2359.13 L1116.25,2359.18 L1115.32,2359.38 L1114.24,2359.65 L1113.18,2359.95 L1112.61,2360.22 L1112.18,2360.52 L1111.85,2360.87 L1111.71,2361.05 L1111.18,2361.48 L1110.61,2362.03 L1110.14,2362.54 L1109.72,2362.97 L1109.48,2363.21 L1109.31,2363.39 L1108.84,2363.75 L1108.4,2364.07 L1107.75,2364.47 L1106.91,2364.78 L1105.28,2365.26 L1102.99,2365.82 L1100.79,2366.3 L1100.26,2366.4 L1099.51,2366.47 L1098.38,2366.68 L1097.46,2366.64 L1096.4,2366.55 L1095.12,2366.31 L1094.05,2366.05 L1092.37,2365.58 L1091.73,2365.34 L1090.93,2365.19 L1089.78,2365.05 L1089.28,2365.09 L1088.78,2365.16 L1088.41,2365.27 L1086.47,2366.2 L1085.97,2366.53 L1085.6,2366.82 L1085.36,2367.06 L1085.09,2367.38 L1084.8,2367.96 L1084.53,2368.72 L1084.3,2369.47 L1083.96,2371.38 L1083.6,2373.05 L1083.29,2373.9 L1083.02,2374.44 L1082.34,2375.22 L1081.92,2375.66 L1081.23,2376.43 L1080.66,2377.03 L1079.66,2377.85 L1078.6,2378.79 L1077.7,2379.71 L1076.93,2380.29 L1075.67,2381.36 L1074.5,2382.4 L1074.1,2382.72 L1073.6,2383.06 L1072.68,2383.56 L1072.06,2383.88 L1071.3,2384.25 L1070.47,2384.78 L1069.7,2385.01 L1068.94,2385.18 L1068.6,2385.21 L1068.26,2385.18 L1067.85,2385.11 L1067.58,2385.02 L1067.32,2384.9 L1066.94,2384.67 L1066.47,2384.35 L1065.74,2383.6 L1064.94,2382.88 L1063.92,2382.06 L1063.44,2381.74 L1063,2381.48 L1062.65,2381.37 L1062.29,2381.34 L1061.78,2381.38 L1060.84,2381.61 L1059.33,2382.09 L1057.5,2382.72 L1056.98,2382.94 L1056.49,2383.18 L1055.96,2383.6 L1055.46,2384.04 L1055.07,2384.35 L1053.4,2385.56 L1052.47,2386.23 L1051.28,2387.03 L1050.59,2387.56 L1049.95,2388.03 L1049.33,2388.6 L1048.72,2389.33 L1048.04,2390.16 L1047.21,2391.21 L1046.42,2392.35 L1045.8,2393.15 L1045.35,2393.69 L1044.84,2394.2 L1043.68,2395.4 L1043.18,2395.79 L1042.49,2396.25 L1041.32,2397.15 L1040.9,2397.41 L1040.4,2397.71 L1039.42,2398.22 L1038.78,2398.48 L1037.97,2398.79 L1037.1,2399.26 L1036.32,2399.73 L1035.81,2399.17 L1034.64,2398.07 L1032.07,2395.56 L1029.18,2392.3 L1027.21,2390.36 L1023.15,2386 L1022.94,2385.89 L1022.85,2385.89 L1022.65,2385.91 L1022.3,2386.04 L1021.85,2386.47 L1021.45,2386.74 L1021.25,2386.72 L1021.13,2386.71 L1020.89,2386.52 L1019.64,2385.07 L1014.92,2379.58 L1013.09,2380.57 L1006.83,2384.02 L1005.38,2384.93 L1003.9,2385.85 L1001.55,2387.34 L997.722,2389.6 L995.486,2391.14 L993.44,2392.75 L993.205,2393.01 L993.073,2393.24 L993.087,2393.49 L993.354,2394.08 L993.751,2394.88 L994.312,2395.97 L994.708,2396.96 L994.905,2397.73 L994.887,2397.95 L994.74,2398.19 L994.465,2398.39 L992.093,2399.53 L987.604,2401.4 L986.107,2402.02 L982.859,2403.51 L978.642,2405.62 L978.496,2405.77 L978.422,2405.97 L978.457,2406.32 L978.937,2408.58 L979.75,2412.34 L980.841,2417.33 L981.126,2418.95 L981.107,2419.24 L980.996,2419.51 L980.835,2419.67 L980.466,2419.84 L979.077,2420.9 L977.51,2422.07 L976.932,2422.39 L976.394,2422.63 L975.732,2422.82 L974.956,2423.08 L973.035,2423.79 L972.56,2423.95 L972.261,2424.02 L972.002,2424.04 L971.594,2424.03 L971.268,2424 L970.852,2423.92 L970.511,2423.82 L968.903,2423.25 L968.564,2423.16 L968.127,2423.1 L967.679,2423.06 L966.863,2423.09 L966.07,2423.21 L964.946,2423.47 L963.853,2423.76 L962.84,2424.11 L961.936,2424.49 L961.006,2424.94 L960.112,2425.38 L959.327,2425.68 L958.928,2425.77 L958.531,2425.82 L957.96,2425.86 L957.326,2425.88 L956.664,2425.84 L955.906,2425.79 L954.283,2425.7 L952.709,2425.53 L952.26,2425.44 L952.021,2425.37 L951.515,2425.08 L950.711,2425.24 L947.883,2426.2 L946.614,2426.61 L942.538,2428.27 L940.919,2428.97 L939.479,2429.54 L938.287,2429.98 L937.079,2430.46 L936.754,2430.6 L936.583,2430.82 L936.442,2431.11 L936.333,2431.49 L936.208,2431.77 L936.086,2431.94 L935.906,2432.13 L935.309,2432.54 L934.678,2432.79 L931.705,2432.97 L927.692,2433.1 L923.255,2433.72 L914.373,2436.87 L908.098,2439.4 L907.645,2439.85 L907.552,2440.39 L909.124,2446.7 L908.84,2447.33 L902.145,2449.36 L896.666,2451.79 L886.428,2458.3 L873.619,2464.94 L860.517,2470.76 L847.835,2477.82 L828.717,2488.32 L827.912,2488.11 L827.369,2488.04 L826.501,2487.99 L825.155,2487.93 L824.909,2487.88 L824.709,2487.76 L824.556,2487.46 L824.069,2485.92 L823.627,2484.28 L823.505,2484.12 L823.32,2484.06 L822.981,2484.1 L819.196,2485.5 L817.725,2486.03 L817.502,2486.06 L817.363,2486 L817.271,2485.9 L816.837,2484.48 L815.913,2481.23 L815.149,2478.45 L814.568,2476.1 L813.963,2474.04 L813.393,2471.95 L812.763,2470.29 L812.156,2468.91 L811.399,2467.09 L811.284,2466.98 L811.157,2466.92 L810.983,2466.95 L808.4,2467.96 L805.33,2469.1 L800.592,2470.82 L800.372,2470.84 L800.233,2470.8 L800.111,2470.66 L800.006,2469.25 L800.03,2467.14 L800.039,2464.94 L799.953,2463.2 L799.683,2461.24 L799.505,2459.46 L799.342,2457.58 L799.228,2455.42 L799.223,2452.69 L799.18,2451.85 L799.06,2451.01 L798.892,2450.5 L798.142,2449.16 L797.791,2448.28 L797.487,2446.99 L797.2,2445.32 L796.931,2443.21 L796.751,2441.98 L796.69,2441.37 L796.677,2441.24 L796.587,2440.54 L796.421,2439.62 L796.365,2438.17 L796.366,2437.9 L796.429,2437.73 L796.552,2437.62 L796.784,2437.58 L798.048,2437.68 L798.341,2437.68 L798.496,2437.58 L798.573,2437.46 L798.574,2437.23 L798.466,2436.49 L798.225,2434.88 L798.082,2433.83 L797.786,2431.67 L797.587,2429.85 L797.465,2429.62 L797.259,2429.47 L796.91,2429.39 L796.273,2429.38 L794.852,2429.65 L792.836,2429.99 L790.614,2430.21 L790.326,2430.15 L790.141,2430 L789.978,2429.75 L789.652,2428.94 L789.247,2427.31 L788.804,2424.95 L788.564,2423.33 L788.462,2422.94 L788.298,2422.75 L788.052,2422.6 L787.662,2422.52 L786.839,2422.58 L785.955,2422.62 L784.7,2422.74 L783.856,2422.84 L783.722,2422.84 L782.314,2422.87 L781.449,2422.97 L780.996,2423.09 L780.42,2423.24 L779.785,2423.52 L777.781,2424.25 L774.676,2425.3 L771.989,2426.27 L771.734,2426.32 L771.572,2426.28 L771.457,2426.18 L771.412,2425.91 L771.254,2424.09 L771.017,2421.84 L770.736,2419.85 L770.314,2417.34 L769.65,2413.53 L769.045,2410.65 L768.5,2407.77 L767.931,2405.81 L767.874,2405.44 L767.476,2402.85 L766.635,2397.38 L764.843,2393.43 L763.284,2391.24 L758.084,2386.2 L757.46,2385.57 L755.995,2384.54 L751.33,2381.24 L750.238,2380.5 L749.466,2379.97 L742.379,2375.13 L741.952,2374.84 L739.611,2372.46 L738.877,2371.52 L737.874,2369.6 L737.317,2368.21 L737.255,2367.81 L737.03,2366.37 L737.74,2358.12 L740.965,2334.92 L730.291,2314.18 L730.061,2313.74 L729.685,2310.52 L729.333,2307.51 L726.036,2288.36 L721.267,2260.66 L715.659,2237.66 L719.128,2237.76 L719.534,2237.82 L719.726,2237.91 L719.938,2238.16 L720.088,2238.41 L720.356,2238.51 L720.968,2238.38 L723.046,2237.79 L723.93,2237.53 L724.32,2237.49 L730.622,2237.58 L735.062,2236.66 L735.539,2236.56 L736.302,2236.5 L738.845,2236.28 L743.07,2236.16 L750.684,2236.28 L751.859,2236.2 L753.421,2235.74 L754.45,2235.17 L755.519,2234.41 L758.499,2231.21 L763.972,2226.36 L764.252,2226.17 L764.303,2226.14 L764.375,2226.11 L764.721,2226.06 L768.414,2225.54 L769.077,2225.35 L769.785,2225.05 L770.472,2224.52 L771.466,2223.56 L772.779,2222.01 L773.113,2221.89 L773.561,2221.56 L774.045,2221.15 L774.79,2220.65 L775.795,2220.23 L776.465,2220.03 L777.134,2219.91 L777.58,2219.91 L778.261,2219.99 L778.892,2220.2 L780.858,2220.92 L781.539,2221.05 L781.898,2221.02 L782.133,2220.96 L782.307,2220.88 L782.434,2220.77 L783.446,2219.28 L783.955,2218.78 L784.043,2218.72 L784.329,2218.62 L784.394,2218.6 L785.736,2218.35 L786.29,2218.17 L786.65,2217.96 L786.807,2217.84 L787.087,2217.46 L787.131,2217.4 L787.176,2217.33 L787.695,2215.91 L787.832,2215.53 L787.904,2215.4 L788.011,2215.19 L788.158,2215.05 L788.213,2215.01 L788.402,2214.92 L788.487,2214.89 L789.028,2214.76 L789.192,2214.66 L789.266,2214.54 L789.302,2214.44 L789.321,2214.28 L789.333,2213.85 L789.376,2213.26 L789.475,2211.02 L789.759,2204.59 L789.585,2201.3 L788.182,2193.71 L788.169,2193.5 L788.236,2193.31 L788.266,2193.24 L788.376,2193.14 L788.478,2193.08 L788.634,2193.02 L788.683,2193 L789.713,2192.77 L791.765,2192.3 L792.851,2192.06 L792.939,2191.98 L793.261,2191.33 L794.7,2186.83 L794.721,2186.76 L794.896,2186.23 L795.046,2185.43 L795.355,2183.53 L796.166,2178.15 L796.626,2175.11 L798.526,2164.64 L798.599,2164.47 L798.725,2164.37 L798.819,2164.35 L801.828,2164.14 L802.068,2164.1 L802.166,2163.99 L802.197,2163.85 L802.197,2163.8 L801.897,2160.37 L802.469,2152.27 L802.488,2151.57 L802.416,2150.73 L802.069,2149.27 L801.994,2148.84 L801.97,2148.71 L801.971,2148.44 L802.839,2139.42 L802.842,2139.13 L802.474,2136.64 L801.683,2131.31 L801.66,2131.04 L801.707,2130.82 L801.81,2130.66 L802.024,2130.53 L803.578,2130.13 L807.105,2129.21 L807.254,2129.15 L807.32,2129.08 L807.369,2128.96 L807.379,2128.87 L807.368,2128.69 L806.977,2127.13 L805.608,2121.67 L805.172,2120.58 L804.445,2118.77 L801.157,2111.19 L801.182,2111.01 L801.249,2110.94 L802.805,2110.02 L802.996,2109.79 L803.094,2109.57 L803.073,2109.13 L801.802,2104.16 L810.132,2101.58 L811.966,2101.01 L813.752,2100.43 L815.917,2099.91 L817.405,2099.57 L819.701,2099.23 L823.535,2098.83 L831.282,2098.33 L840.516,2097.61 L851.105,2096.83 L862.173,2096.06 L862.238,2094.61 L862.194,2094.06 L862.335,2094.06 L862.598,2093.87 L863.821,2091.66 L865.367,2090.53 L869.619,2089.27 L870,2088.86 L869.796,2087.87 L869.973,2087.43 L871.097,2087.39 L875.054,2088.56 L876.546,2088.33 L877.427,2087.66 L878.326,2083.67 L877.327,2078.33 L877.524,2076.67 L878.52,2075.66 L882.073,2074.96 L882.7,2074.24 L882.715,2073.72 L882.731,2073.15 L882.733,2073.06 L882.458,2072.27 L879.896,2068.16 L879.772,2066.89 L880.563,2065.53 L881.189,2063.7 L881.709,2061.62 L881.824,2061.16 L881.984,2060.52 L878.323,2058.09 L873.989,2055.23 L872.456,2053.48 L871.775,2051.75 L871.843,2049.91 L872.94,2047.71 L874.426,2045.02 L875.515,2041.98 L876.695,2040.29 L878.16,2039.04 L880.238,2037.99 L881.751,2036.84 L882.051,2035.75 L881.716,2034.77 L879.876,2033.57 L877.628,2031.75 L877.063,2030.58 L877.185,2029.47 L877.785,2028.27 L878.548,2027.37 L878.902,2026.41 L878.705,2025.2 L878.523,2024.77 L877.249,2024.13 L873.894,2022.68 L871.652,2021.06 L869.703,2019.18 L867.72,2017.79 L864.422,2015.53 L861.015,2013.02 L859.332,2012.04 L857.622,2011.47 L855.857,2011.52 L852.422,2012.78 L850.801,2013.65 L849.533,2013.9 L847.414,2014.14 L845.782,2014.23 L844.603,2014.22 L843.659,2014.08 L842.871,2013.84 L842.274,2013.45 L841.775,2012.6 L841.486,2011.26 L841.438,2010.54 L841.573,2009.82 L841.907,2008.71 L843.427,2005.19 L843.829,2004.03 L844.164,2002.91 L844.373,2001.62 L844.373,2000.68 L844.283,1999.23 L843.851,1996.63 L843.605,1995.17 L843.562,1994.03 L843.517,1992.58 L843.54,1991.84 L843.763,1991.21 L844.476,1990.21 L846.331,1988.29 L847.033,1987.48 L847.449,1986.82 L847.716,1986.3 L847.814,1985.78 L847.806,1985.12 L847.669,1984.33 L847.461,1983.75 L846.725,1982.03 L846.071,1980.67 L845.621,1979.72 L845.116,1977.67 L845.008,1976.84 L845.116,1976.1 L845.457,1975.05 L845.621,1974.21 L845.662,1971.88 L845.525,1970.05 L845.104,1968.1 L843.7,1965.42 L842.229,1963.57 L841.139,1962.72 L839.581,1961.52 L835.687,1958.99 L833.152,1957.08 L832.171,1955.88 L831.989,1955.18 L831.898,1954.41 L832.185,1953.67 L832.743,1953.1 L833.506,1952.76 L834.842,1952.5 L836.9,1951.91 L837.704,1951.82 L838.958,1952.06 L840.021,1952.01 L840.771,1951.67 L842.765,1950.35 L844.691,1949.16 L845.713,1948.19 L846.397,1947.19 L846.74,1946.35 L847.215,1944.62 L847.57,1942.8 L848.905,1940.07 L849.186,1939.46 L849.301,1938.72 L849.171,1937.98 L848.543,1936.67 L847.815,1935.87 L846.588,1934.92 L845.389,1934.02 L844.844,1933.34 L844.408,1931.6 L844.435,1930.1 L844.326,1928.65 L843.918,1927.56 L843.346,1926.61 L842.719,1925.14 L842.583,1924.18 L842.665,1922.85 L842.474,1921.1 L842.092,1920.01 L841.329,1916.93 L841.275,1915.27 L841.411,1913.77 L841.303,1912.29 L840.586,1910.86 L839.83,1909.79 L839.203,1909.19 L838.086,1908.62 L836.505,1908.1 L835.414,1907.88 L832.062,1907.26 L829.363,1906.27 L826.434,1904.49 L824.021,1902.46 L823.122,1901.4 L822.849,1900.33 L823.04,1898.91 L823.694,1895.7 L823.803,1893.85 L823.517,1892.77 L823.013,1892.05 L821.759,1890.79 L820.423,1890.06 L818.679,1889.92 L817.235,1890.08 L815.599,1890.66 L812.247,1892.84 L810.447,1893.87 L808.294,1894.77 L806.713,1895.73 L805.215,1896.95 L803.743,1898.61 L803.388,1899.73 L802.925,1901.18 L802.707,1903 L802.325,1904.23 L801.644,1905.32 L800.281,1907.04 L798.182,1908.73 L797.201,1909.19 L796.084,1909.3 L794.257,1909.33 L792.622,1909.71 L791.068,1909.95 L789.896,1909.98 L788.942,1909.57 L787.852,1908.56 L787.089,1907.61 L786.407,1906.82 L785.672,1906.6 L784.717,1906.76 L783.954,1907.56 L783.573,1908.62 L783.027,1909.71 L782.537,1910.8 L781.856,1911.26 L781.011,1911.45 L779.893,1911.29 L778.694,1911.02 L777.849,1910.8 L776.977,1911.02 L775.941,1911.67 L775.368,1912.43 L774.851,1913.63 L774.251,1914.7 L773.352,1915.6 L772.016,1917.15 L771.416,1918.13 L770.653,1919 L768.991,1920.31 L767.219,1920.67 L765.338,1920.58 L760.323,1920.53 L757.897,1919.63 L756.507,1918.68 L754.954,1918.19 L753.754,1918.57 L752.528,1919.36 L751.383,1920.39 L749.202,1921.92 L747.567,1922.9 L746.995,1922.87 L746.504,1922.36 L745.005,1919.82 L744.214,1918.57 L743.533,1918.35 L742.77,1918.49 L741.952,1919.14 L741.216,1920.01 L740.099,1921.02 L738.927,1921.84 L737.182,1922.76 L736.256,1923.04 L735.438,1922.82 L734.729,1922.3 L734.238,1921.48 L733.993,1920.45 L733.653,1917.41 L733.367,1916.06 L733.039,1915.38 L732.467,1914.86 L731.677,1914.7 L730.886,1914.89 L729.36,1915.51 L728.379,1916.28 L727.37,1917.04 L726.471,1917.56 L725.462,1917.86 L724.426,1917.69 L722.955,1917.15 L721.128,1916.09 L719.902,1914.97 L718.321,1912.82 L717.312,1911.75 L716.004,1911.1 L714.205,1910.77 L712.788,1910.64 L711.888,1910.2 L711.18,1909.3 L710.58,1908.05 L709.49,1906.03 L708.536,1905.18 L707.282,1904.48 L706.137,1904.01 L704.583,1902.84 L703.82,1901.69 L703.166,1900.11 L702.294,1897.17 L702.185,1896 L702.594,1894.88 L703.289,1894.13 L706.383,1892.26 L708.154,1891.42 L712.188,1888.83 L714.696,1886.7 L715.5,1885.6 L715.854,1884.51 L715.677,1883.05 L714.723,1881.42 L713.687,1880.38 L712.542,1879.24 L711.547,1878.05 L711.289,1876.81 L711.752,1875.12 L712.665,1874.42 L713.878,1873.68 L714.927,1872.65 L715.541,1871.47 L715.568,1870.38 L715.105,1868.69 L714.014,1866.75 L712.352,1864.74 L711.235,1864.18 L710.101,1863.78 L708.853,1863.52 L706.277,1863.21 L704.229,1862.85 L703.03,1862.66 L700.577,1861.76 L698.887,1860.21 L696.652,1857.27 L695.466,1855.81 L694.199,1854.9 L692.618,1854.11 L689.702,1853.51 L684.768,1852.85 L678.199,1852.2 L673.922,1851.75 L671.093,1851.83 L669.547,1852.25 L668.166,1852.82 L662.777,1856 L660.27,1856.4 L658.119,1855.96 L654.783,1854.58 L651.704,1853.35 L649.147,1851.95 L645.655,1850.75 L641.594,1848.46 L640.219,1847.51 L639.051,1846.08 L638.02,1845.16 L634.668,1843.83 L631.848,1842.3 L629.203,1841.46 L627.683,1840.35 L626.834,1840.25 L624.268,1841.2 L620.913,1843.05 L617.024,1843.84 L613.411,1845.11 L604.786,1846.96 L600.917,1848.28 L593.504,1852.53 L592.076,1852.74 L588.969,1851.74 L587.292,1850.67 L584.922,1848.04 L581.212,1845.38 L579.237,1843.55 L578.579,1841.61 L578.819,1839.63 L579.866,1837 L580.327,1834.81 L580.111,1833.56 L579.558,1832.91 L574.781,1832.04 L570.952,1831.95 L567.219,1832.53 L564.497,1833.76 L562.941,1835.4 L562.253,1837.2 L561.804,1842.1 L561.325,1844.5 L560.877,1845.27 L557.49,1846.35 L556.661,1846.81 L554.862,1849.48 L554.001,1850.44 L552.119,1850.89 L550.962,1851.73 L549.42,1853.95 L545.747,1856.13 L545.09,1857.76 L545.589,1858.67 L547.697,1861.18 L548.319,1862.94 L548.082,1864.44 L547.233,1864.75 L544.508,1864.35 L543.492,1864.35 L540.679,1866.25 L537.632,1866.61 L534.22,1867.37 L532.397,1867 L531.225,1865.62 L530.374,1863.23 L529.679,1862.51 L527.447,1861.82 L541.108,1826.34 L544.267,1818.11 L550.356,1802.34 L554.787,1790.73 L558.435,1781.35 L562.394,1771.12 L566.509,1760.34 L569.69,1752.2 L573.271,1742.9 L578.476,1729.47 L581.991,1720.13 L585.417,1711.32 L586.328,1709.08 L587.463,1706.05 L587.278,1701.52 L586.967,1699.69 L586.017,1698.31 L584.976,1697.16 L582.711,1694.87 L579.037,1691.4 L578.907,1690.87 L578.91,1690 L579.327,1688.08 L581.025,1683.88 L581.255,1683.24 L581.029,1682.87 L580.302,1682.55 L576.64,1680.91 L571.463,1678.6 L573.39,1670.99 L573.348,1670.17 L573.227,1670.04 L572.623,1669.39 L572.239,1669.21 L570.96,1668.6 L562.77,1665.69 L561.659,1664.79 L560.73,1664.03 L557.58,1660.46 L557.09,1659.94 L556.968,1659.74 L556.632,1659.17 L556.283,1658.7 L553.089,1654.7 L549.977,1650.89 L549.819,1650.69 L549.264,1649.99 L547.367,1647.6 L549.342,1647.02 L550.143,1646.72 L550.546,1646.55 L550.724,1646.38 L551.147,1645.93 L551.291,1645.69 L551.381,1645.32 L551.444,1644.78 L551.533,1644.06 L551.534,1643.65 L551.591,1643.33 L551.614,1643.19 L551.643,1643.01 L551.877,1642.23 L552.418,1640.58 L553.064,1638.94 L553.731,1637.23 L554.155,1636.23 L554.774,1634.99 L554.905,1634.73 L555.766,1633 L556.285,1631.77 L556.532,1630.99 L556.669,1630.42 L556.769,1629.8 L556.857,1629.09 L556.975,1626.97 L557.233,1623.9 L557.241,1623.76 L557.277,1623.13 L557.333,1622.23 L557.559,1620.7 L557.697,1620.16 L557.783,1619.82 L558.046,1619.11 L558.158,1618.86 L558.291,1618.55 L558.883,1617.21 L559.62,1615.57 L560.122,1614.57 L560.332,1614.21 L560.902,1613.31 L561.418,1612.56 L561.455,1612.51 L561.858,1612.02 L562.282,1611.58 L562.448,1611.43 L562.503,1611.39 L562.57,1611.34 L562.63,1611.32 L562.751,1611.28 L563.07,1611.19 L565.529,1610.67 L566.456,1610.47 L567.127,1610.28 L567.288,1610.18 L567.421,1609.96 L567.518,1609.45 L567.584,1608.93 L567.601,1608.79 L567.653,1608.68 L567.912,1608.66 L568.171,1608.74 L568.61,1608.77 L569.645,1608.67 L570.63,1608.18 L571.459,1607.66 L572.109,1606.98 L572.734,1605.84 L573.364,1603.24 L574.07,1601.39 L575.063,1598.67 L575.975,1596.9 L577.095,1594.79 L578.032,1593.21 L578.79,1591.13 L579.256,1590.16 L580.842,1585.35 L583.382,1581.59 L586.007,1578.35 L589.854,1574.34 L593.523,1571.37 L598.761,1568.06 L604.955,1565.28 L613.931,1563.91 L620.899,1563.59 L626.817,1564.66 L640.298,1569.36 L644.565,1557.73 L644.815,1557.05 L652.287,1538.03 L665.675,1503.53 L664.373,1503.31 L659.164,1501.54 L649.171,1500.73 L637.223,1499.92 L630.93,1497.6 L625.725,1494.95 L615.059,1489.34 L607.662,1485.45 L620.561,1475.99 L621.02,1475.65 L640.094,1461.65 L645.012,1455.52 L647.131,1450.07 L648.931,1436.53 L650.725,1432.16 L650.827,1431.8 L650.882,1429.43 L650.774,1426.95 L650.785,1426.57 L651.018,1425.4 L651.031,1425.16 L650.986,1424.91 L650.876,1424.69 L650.673,1424.42 L650.34,1424.1 L649.55,1423.5 L649.006,1423.09 L648.84,1422.95 L648.638,1422.78 L648.523,1422.66 L648.442,1422.56 L648.251,1422.31 L648.191,1422.22 L648.144,1422.13 L648.076,1421.81 L648.075,1421.75 L648.07,1420.98 L648.223,1419.97 L648.408,1418.88 L648.422,1418.79 L648.497,1418.36 L648.589,1417.78 L648.69,1417.46 L648.686,1416.99 L649.004,1412.76 L649.04,1411.74 L649.063,1411.56 L649.085,1411.43 L649.559,1408.85 L649.94,1406.53 L650.03,1406 L650.344,1404.96 L650.748,1403.24 L651.763,1400.57 L652.54,1397.94 L653.271,1395.73 L653.638,1394.82 L654.436,1392.95 L655.281,1390.89 L656.518,1387.9 L657.764,1384.9 L659.117,1381.54 L659.141,1381.48 L659.514,1380.45 L660.015,1379.28 L660.286,1378.4 L660.222,1378.37 L660.331,1377.89 L647.165,1371.93 L639.821,1368.61 L632.623,1365.56 L630.748,1364.9 L630.584,1364.84 L628.494,1364.41 L622.592,1363.64 L607.394,1361.38 L607.012,1361.32 L607.428,1358.37 L607.363,1357.9 L606.36,1357.41 L601.853,1356.17 L599.671,1355.92 L595.465,1356.54 L593.523,1356.36 L589.714,1354.73 L583.078,1351.61 L570.196,1348.84 L553.385,1349.08 L553.438,1346.47 L531.292,1346.15 L520.609,1341.74 L507.888,1332.27 L503.028,1328.66 L500.154,1325.91 L496.462,1322.66 L486.606,1315.59 L478.255,1308.92 L470.901,1307.08 L466.75,1306.25 L464.703,1302.12 L460.855,1303.26 L456.022,1300.55 L448.306,1296.56 L446.976,1300.07 L440.965,1297.6 L437.963,1302.35 L434.367,1302.39 L434.169,1301.1 L433.299,1297.74 L432.311,1295.98 L430.089,1293.44 L425.944,1288.13 L424.364,1285.32 L423.438,1283.13 L421.486,1280.39 L419.568,1276.31 L418.18,1273.96 L411.142,1265.91 L409.823,1263.92 L409.166,1262.22 L407.742,1254.63 L407.102,1252.8 L405.75,1248.86 L405.642,1248.5 L405.316,1246.69 L405.249,1245.85 L405.26,1245.74 L405.261,1245.43 L405.188,1245.03 L404.895,1244.17 L404.162,1242.15 L404.032,1241.43 L404.061,1240.84 L403.984,1240.42 L403.852,1240.27 L403.152,1239.48 L402.154,1238.25 L400.309,1235.64 L399.436,1234.66 L398.684,1233.94 L397.989,1233.62 L397.269,1233.45 L389.362,1232.63 L387.719,1232.39 L385.955,1231.91 L382.372,1230.36 L379.123,1229.07 L377.925,1228.71 L376.636,1228.56 L372.721,1227.04 L369.523,1226.27 L367.158,1225.77 L366.021,1225.74 L363.505,1225.15 L362.722,1224.82 L361.982,1224.41 L360.964,1223.67 L358.297,1221.72 L356.224,1220.1 L355.207,1219.25 L351.092,1215.88 L348.874,1214.08 L345.928,1211.7 L343.824,1210.27 L342.395,1209.33 L341.46,1209.01 L338.723,1208.95 L336.258,1208.86 L335.013,1208.49 L333.8,1208.23 L332.428,1208.09 L331.215,1208.05 L329.597,1208.08 L328.927,1208.2 L324.812,1209.63 L324.161,1209.74 L321.753,1209.77 L320.767,1209.86 L319.212,1210.2 L317.019,1210.87 L315.123,1211.51 L313.132,1212.11 L311.988,1212.68 L311.438,1213.15 L308.607,1216.23 L307.855,1216.78 L306.97,1216.99 L305.428,1217.09 L299.411,1217.13 L295.877,1217.16 L292.711,1217.25 L290.366,1217.52 L288.856,1218.01 L286.624,1215.96 L284.627,1214.11 L282.327,1211.99 L280.936,1210.49 L280.152,1209.45 L279.413,1208.26 L276.657,1202.21 L274.711,1198.06 L273.162,1194.65 L271.531,1191.7 L270.128,1189.3 L268.087,1186.17 L264.036,1180.2 L256.963,1169.64 L255.996,1168.31 L254.52,1166.55 L253.152,1164.99 L249.54,1161.27 L247.783,1159.13 L246.98,1156.87 L245.324,1150.47 L243.245,1143.04 L242.543,1140.6 L241.159,1138.59 L241.5,1137.81 L241.917,1136.57 L241.842,1134.97 L241.235,1132.47 L239.74,1128.89 L237.25,1121.98 L236.605,1120.69 L235.904,1119.83 L235.303,1119.27 L234.785,1119.01 L229.899,1117.48 L227.332,1116.99 L225.974,1116.88 L224.995,1116.98 L221.117,1118.41 L218.801,1119.29 L215.792,1120.36 L215.587,1119.97 L215.221,1119.22 L214.576,1117.9 L214.539,1117.83 L214.114,1116.96 L212.188,1114.14 L210.049,1111.01 L205.774,1104.95 L196.355,1094.09 L185.428,1079.82 L178.606,1068.64 L174.64,1058.87 L175.258,1054.09 L175.206,1053.05 L174.764,1051.79 L174.574,1050.16 L174.53,1046.65 L167.398,1043.7 L164.863,1042.32 L163.166,1041.25 L163.891,1040.09 L164.202,1039.6 L170.948,1028.82 L177.234,1020.78 L178.809,1018.93 L180.64,1017.64 L181.698,1017 L181.916,1016.34 L182.245,1013.44 L182.555,1012.08 L183.481,1010.15 L185.046,1007.87 L185.82,1006.27 L185.854,1005.35 L185.349,1003.23 L185.265,1002.17 L185.686,1000.33 L186.615,997.895 L187.755,996.503 L188.37,995.243 L188.472,991.391 L187.924,987.542 L187.839,986.942 L187.794,986.623 L187.897,985.758 L188.098,984.853 L188.927,981.084 L188.99,980.263 L188.843,979.35 L188.489,976.55 L188.492,975.82 L188.766,975.304 L189.403,974.425 L190.163,973.454 L191.193,972.697 L192.01,972.487 L193.916,972.037 L196.094,971.498 L196.972,971.136 L197.82,970.531 L198.868,969.611 L199.063,969.44 L200.216,968.258 L200.884,967.408 L200.455,967.133 L200.311,967.042 L200.207,966.975 L199.644,966.452 L199.018,965.406 L198.588,964.409 L197.623,962.911 L197.368,962.515 L197.06,962.14 L196.514,961.7 L195.617,961.182 L194.442,960.021 L193.913,959.633 L191.978,958.456 L191.521,958.064 L191.128,957.727 L190.561,956.961 L190.552,956.762 L190.253,949.74 L190.48,948.495 L192.563,942.815 L192.629,942.208 L192.316,940.737 L192.193,939.81 L192.2,937.957 L192.237,936.392 L192.88,933.902 L193.525,931.125 L194.454,928.636 L196.075,926.172 L198.979,922.223 L199.696,921.278 L200.476,920.191 L201.195,919.06 L201.73,918.248 L202.564,916.675 L203.125,915.426 L203.518,913.844 L203.536,912.286 L203.41,911.506 L203.207,910.343 L203.095,909.435 L203.101,908.733 L203.218,908.381 L203.308,908.313 L202.962,907.95 L202.423,907.462 L201.744,906.4 L200.696,905.023 L199.451,903.473 L198.658,902.555 L197.751,901.693 L210.004,895.356 L209.372,893.843 L208.652,892.303 L207.63,890.033 L206.91,888.25 L206.166,886.441 L205.233,884.095 L203.92,880.952 L203.125,879.015 L202.974,878.503 L202.887,878.131 L202.349,875.503 L202.274,874.965 L202.224,874.657 L202.175,874.171 L202.144,872.211 L202.136,870.841 L208.484,871.695 L211.067,872.05 L213.014,872.275 L214.796,872.499 L214.879,872.511 L214.827,869.631 L214.59,867.526 L214.386,866.159 L214.277,865.649 L215.978,865.291 L221.572,863.768 L221.988,863.612 L222.041,863.429 L221.608,860.891 L221.609,860.696 L222.278,860.544 L224.23,860.13 L225.834,859.505 L227.265,858.704 L228.485,857.992 L226.916,852.509 L225.845,848.398 L223.797,840.454 L229.037,838.734 L230.264,838.303 L231.735,837.816 L233.37,837.292 L233.844,837.221 L234.4,837.264 L235.703,837.229 L236.346,837.014 L236.499,836.967 L236.734,836.963 L238.245,837.161 L238.391,837.157 L239.056,837.113 L239.165,837.06 L239.464,836.737 L239.688,836.648 L240.492,836.662 L240.992,836.671 L241.2,836.655 L241.394,836.582 L241.451,836.505 L241.5,836.346 L241.827,835.003 L241.891,834.888 L242.071,834.751 L242.482,834.582 L243.469,834.439 L245.324,834.403 L247.618,834.359 L247.789,834.304 L247.917,834.196 L247.774,832.73 L247.379,828.675 L247.195,826.795 L247.266,826.481 L247.613,826.239 L248.86,825.965 L251.319,825.451 L252.06,825.265 L254.195,824.73 L254.017,823.524 L251.863,808.907 L252.279,808.526 L257.476,807.43 L257.787,807.431 L257.89,807.571 L258.442,808.339 L259.478,808.761 L260.309,808.868 L263.009,808.704 L263.529,808.497 L263.599,808.323 L262.686,802.189 L264.674,801.858 L264.225,798.376 L263.574,793.414 L263.517,793.048 L263.334,792.789 L262.841,792.549 L261.678,792.163 L261.539,791.847 L261.318,789.976 L261.014,788.327 L260.73,786.127 L259.934,777.604 L262.203,777.402 L263.021,776.856 L263.926,774.761 L264.116,773.681 L264.061,766.97 L264.089,764.534 L264.03,763.669 L263.508,762.791 L262.085,761.426 L259.709,758.618 L258.501,757.58 L257.519,756.997 L253.225,755.688 L247.636,754.081 L242.459,752.56 L239.999,751.962 L238.008,751.209 L236.359,750.213 L235.164,749.09 L233.955,747.781 L232.505,746.544 L231.467,745.862 L229.476,744.98 L225.224,743.8 L220.247,742.434 L218.284,741.396 L217.118,740.287 L214.949,737.734 L213.918,736.703 L212.93,735.864 L211.323,734.833 L209.816,733.895 L208.095,733.234 L206.623,732.674 L205.913,732.257 L204.061,730.861 L200.79,728.285 L198.365,726.391 L195.487,723.753 L194.265,722.582 L192.971,721.494 L190.753,719.589 L187.773,717.05 L185.683,715.33 L184.673,714.718 L182.412,713.737 L179.426,712.777 L178.338,712.521 L175.942,712.436 L173.737,712.443 L170.339,712.613 L168.547,712.898 L166.883,713.538 L164.537,714.775 L162.304,715.358 L158.695,715.347 L156.338,715.145 L153.469,714.718 L152.424,714.142 L150.568,712.276 L147.955,710.004 L144.947,708.713 L142.697,708.393 L140.617,708.372 L136.202,708.564 L135.028,708.777 L133.877,709.14 L129.152,711.23 L127.957,711.689 L126.485,712.009 L124.907,712.116 L122.475,711.86 L120.438,711.252 L118.827,710.559 L116.662,709.268 L115.98,708.839 L114.167,707.562 L110.556,705.098 L104.751,700.884 L101.251,698.389 L100.429,698.037 L98.4988,697.355 L95.4378,696.363 L94.2325,696.267 L91.6835,696.256 L87.4157,696.237 L86.5027,696.224 L88.2484,689.1 L88.598,687.657" vector-effect="none" fill-rule="evenodd"/>
  </g>
  <g stroke-linejoin="bevel" stroke-linecap="square" font-style="normal" transform="matrix(0.999744,0,0,0.999744,0,0)" stroke-width="1" font-size="34.5833" font-weight="400" stroke="#000000" stroke-opacity="1" font-family="MS Shell Dlg 2" fill="none"/>
  <g stroke-linejoin="bevel" stroke-linecap="square" font-style="normal" transform="matrix(11.808,0,0,11.808,0,0)" stroke-width="1" font-size="34.5833" font-weight="400" stroke="#000000" stroke-opacity="1" font-family="MS Shell Dlg 2" fill="none"/>
  <g stroke-linejoin="bevel" stroke-linecap="square" font-style="normal" transform="matrix(11.808,0,0,11.808,0,0)" stroke-width="1" font-size="34.5833" font-weight="400" stroke="#000000" stroke-opacity="1" font-family="MS Shell Dlg 2" fill="none"/>
  <g stroke-linejoin="bevel" stroke-linecap="square" font-style="normal" transform="matrix(11.808,0,0,11.808,0,0)" stroke-width="1" font-size="34.5833" font-weight="400" stroke="#000000" stroke-opacity="1" font-family="MS Shell Dlg 2" fill="none"/>
  <g stroke-linejoin="bevel" stroke-linecap="square" font-style="normal" transform="matrix(1,0,0,1,0,0)" stroke-width="1" font-size="34.5833" font-weight="400" stroke="#000000" stroke-opacity="1" font-family="MS Shell Dlg 2" fill="none"/>
  <g stroke-linejoin="bevel" stroke-linecap="square" font-style="normal" transform="matrix(11.808,0,0,11.808,0,0)" stroke-width="1" font-size="34.5833" font-weight="400" stroke="#000000" stroke-opacity="1" font-family="MS Shell Dlg 2" fill="none"/>
  <g stroke-linejoin="bevel" stroke-linecap="square" font-style="normal" transform="matrix(11.808,0,0,11.808,0,0)" stroke-width="1" font-size="34.5833" font-weight="400" stroke="#000000" stroke-opacity="1" font-family="MS Shell Dlg 2" fill="none"/>
  <g stroke-linejoin="bevel" stroke-linecap="square" font-style="normal" transform="matrix(11.808,0,0,11.808,0,0)" stroke-width="1" font-size="34.5833" font-weight="400" stroke="#000000" stroke-opacity="1" font-family="MS Shell Dlg 2" fill="none"/>
  <g stroke-linejoin="bevel" stroke-linecap="square" font-style="normal" transform="matrix(11.808,0,0,11.808,0,0)" stroke-width="1" font-size="34.5833" font-weight="400" stroke="#000000" stroke-opacity="1" font-family="MS Shell Dlg 2" fill="none"/>
  <g stroke-linejoin="bevel" stroke-linecap="square" font-style="normal" transform="matrix(1,0,0,1,0,0)" stroke-width="1" font-size="34.5833" font-weight="400" stroke="#000000" stroke-opacity="1" font-family="MS Shell Dlg 2" fill="none"/>
 </g>
</svg>
