<?xml version='1.0' encoding='UTF-8' standalone='no'?>
<svg width="249.936mm" baseProfile="tiny" xmlns="http://www.w3.org/2000/svg" height="249.936mm" version="1.2" xmlns:xlink="http://www.w3.org/1999/xlink" viewBox="0 0 2952 2952">
 <title>Qt SVG Document</title>
 <desc>Generated with Qt</desc>
 <defs/>
 <g fill-rule="evenodd" stroke-linejoin="bevel" fill="none" stroke="black" stroke-width="1" stroke-linecap="square">
  <g stroke-linejoin="bevel" transform="matrix(1,0,0,1,0,0)" fill="none" stroke="#000000" stroke-width="1" font-weight="400" stroke-opacity="1" font-family="MS Shell Dlg 2" stroke-linecap="square" font-size="34.5833" font-style="normal"/>
  <g stroke-linejoin="bevel" transform="matrix(1,0,0,1,0,0)" fill="none" stroke="#000000" stroke-width="1" font-weight="400" stroke-opacity="1" font-family="MS Shell Dlg 2" stroke-linecap="square" font-size="34.5833" font-style="normal"/>
  <g stroke-linejoin="bevel" transform="matrix(11.808,0,0,11.808,0,0)" fill="none" stroke="#000000" stroke-width="1" font-weight="400" stroke-opacity="1" font-family="MS Shell Dlg 2" stroke-linecap="square" font-size="34.5833" font-style="normal"/>
  <g stroke-linejoin="bevel" transform="matrix(0.999744,0,0,0.999744,0,0)" fill="none" stroke="#000000" stroke-width="1" font-weight="400" stroke-opacity="1" font-family="MS Shell Dlg 2" stroke-linecap="square" font-size="34.5833" font-style="normal"/>
  <g transform="matrix(0.999744,0,0,0.999744,0,0)" fill="#ffffff" stroke="none" font-weight="400" font-family="MS Shell Dlg 2" fill-opacity="0" font-size="34.5833" font-style="normal">
   <path vector-effect="none" fill-rule="evenodd" d="M-2,-2 L2955,-2 L2955,2955 L-2,2955 L-2,-2"/>
  </g>
  <g stroke-linejoin="bevel" transform="matrix(0.999744,0,0,0.999744,0,0)" fill="none" stroke="#000000" stroke-width="1" font-weight="400" stroke-opacity="1" font-family="MS Shell Dlg 2" stroke-linecap="square" font-size="34.5833" font-style="normal"/>
  <g stroke-linejoin="bevel" transform="matrix(11.808,0,0,11.808,0,0)" fill="none" stroke="#000000" stroke-width="1" font-weight="400" stroke-opacity="1" font-family="MS Shell Dlg 2" stroke-linecap="square" font-size="34.5833" font-style="normal"/>
  <g stroke-linejoin="bevel" transform="matrix(11.808,0,0,11.808,0,0)" fill="none" stroke="#000000" stroke-width="1" font-weight="400" stroke-opacity="1" font-family="MS Shell Dlg 2" stroke-linecap="square" font-size="34.5833" font-style="normal"/>
  <g stroke-linejoin="bevel" transform="matrix(11.808,0,0,11.808,0,0)" fill="none" stroke="#000000" stroke-width="1" font-weight="400" stroke-opacity="1" font-family="MS Shell Dlg 2" stroke-linecap="square" font-size="34.5833" font-style="normal"/>
  <g stroke-linejoin="bevel" transform="matrix(11.808,0,0,11.808,0,0)" fill="none" stroke="#000000" stroke-width="1" font-weight="400" stroke-opacity="1" font-family="MS Shell Dlg 2" stroke-linecap="square" font-size="34.5833" font-style="normal"/>
  <g stroke-linejoin="bevel" transform="matrix(11.808,0,0,11.808,0,0)" fill="none" stroke="#000000" stroke-width="1" font-weight="400" stroke-opacity="1" font-family="MS Shell Dlg 2" stroke-linecap="square" font-size="34.5833" font-style="normal"/>
  <g transform="matrix(11.808,0,0,11.808,0,0)" fill="#ffffff" stroke="none" font-weight="400" font-family="MS Shell Dlg 2" fill-opacity="0" font-size="34.5833" font-style="normal">
   <path vector-effect="none" fill-rule="evenodd" d="M0,0 L250,0 L250,250 L0,250 L0,0"/>
  </g>
  <g stroke-linejoin="bevel" transform="matrix(11.808,0,0,11.808,0,0)" fill="none" stroke="#000000" stroke-width="1" font-weight="400" stroke-opacity="1" font-family="MS Shell Dlg 2" stroke-linecap="square" font-size="34.5833" font-style="normal"/>
  <g stroke-linejoin="bevel" transform="matrix(11.808,0,0,11.808,0,0)" fill="none" stroke="#000000" stroke-width="1" font-weight="400" stroke-opacity="1" font-family="MS Shell Dlg 2" stroke-linecap="square" font-size="34.5833" font-style="normal"/>
  <g transform="matrix(0.999744,0,0,0.999744,0,0)" fill="#000000" stroke="none" font-weight="400" font-family="MS Shell Dlg 2" fill-opacity="0" font-size="34.5833" font-style="normal">
   <rect width="2953" y="0" height="2953" x="0"/>
  </g>
  <g stroke-linejoin="bevel" transform="matrix(0.999744,0,0,0.999744,0,0)" fill="none" stroke="#000000" stroke-width="1" font-weight="400" stroke-opacity="1" font-family="MS Shell Dlg 2" stroke-linecap="square" font-size="34.5833" font-style="normal"/>
  <g stroke-linejoin="bevel" transform="matrix(0.999744,0,0,0.999744,0,0)" fill="#c5c5c5" stroke="#5c5c5c" stroke-width="3.07087" font-weight="400" stroke-opacity="1" font-family="MS Shell Dlg 2" fill-opacity="1" stroke-linecap="square" font-size="34.5833" font-style="normal">
   <path vector-effect="none" fill-rule="evenodd" d="M142.547,2097.37 L142.547,2092.81 L142.547,2060.1 L142.547,1927.2 L142.547,1777.95 L142.552,1680.77 L142.552,1657.31 L142.552,1640.13 L142.552,1616.48 L142.552,1582.13 L142.552,1554.32 L142.552,1542.46 L142.552,1521.27 L142.552,1458.99 L142.539,1404.9 L142.538,1400.93 L142.538,1400.73 L142.567,1393.74 L154.845,1393.74 L179.169,1393.74 L205.795,1393.74 L207.552,1393.74 L239.525,1393.8 L270.126,1393.85 L270.128,1393.85 L270.165,1393.85 L301.582,1393.9 L314.514,1393.93 L333.189,1393.96 L361.087,1393.96 L391.007,1393.96 L404.642,1393.96 L428.249,1393.96 L451.25,1393.96 L471.026,1393.96 L476.15,1393.96 L490.517,1393.96 L516.292,1393.96 L517.511,1393.96 L542.16,1393.96 L544.051,1393.96 L565.068,1393.96 L594.02,1393.96 L621.879,1393.96 L634.063,1393.96 L634.063,1375.53 L634.063,1359.58 L634.063,1359.06 L634.063,1214.13 L634.063,1126.87 L634.068,1064.56 L634.068,892.568 L634.068,862.991 L634.068,862.881 L998.525,866.132 L1302.09,867.521 L1372.21,867.688 L1931.01,866.7 L2052.95,865.977 L2056.23,870.327 L2059.39,874.689 L2062.68,879.123 L2064.61,881.776 L2066.88,884.829 L2069.98,889.058 L2073.14,893.395 L2076.43,897.842 L2079.85,902.445 L2083.45,907.389 L2084.97,909.437 L2088.14,913.775 L2092.81,920.038 L2094.08,921.78 L2097.47,926.39 L2102.15,932.767 L2104.03,935.303 L2106.84,939.146 L2110.43,943.999 L2113.72,948.469 L2117.3,953.332 L2120.76,958.025 L2124.18,962.661 L2126.35,965.596 L2140.27,984.457 L2140.41,984.655 L2158.64,1009.31 L2179.69,1037.82 L2204.32,1071.14 L2225.12,1099.15 L2242.81,1123.12 L2264.83,1152.87 L2283.05,1177.48 L2303.86,1205.6 L2319.12,1226.09 L2325.49,1234.64 L2350.01,1267.88 L2360.31,1281.82 L2370.67,1295.67 L2380.64,1309.06 L2390.04,1321.8 L2396.17,1329.97 L2414.27,1354.32 L2423.62,1366.88 L2433.79,1380.57 L2446.85,1398.1 L2456.68,1411.34 L2465.48,1423.15 L2477.52,1439.26 L2491.63,1458.17 L2499.04,1468.17 L2514.33,1488.65 L2522.06,1499.05 L2530.79,1510.74 L2539.24,1522.09 L2549.2,1535.4 L2554.44,1542.49 L2558.77,1548.29 L2561.49,1551.89 L2564.45,1555.86 L2566.88,1559.11 L2569.68,1562.86 L2571.12,1564.78 L2573.78,1568.33 L2575.4,1570.45 L2578.07,1574.1 L2579.15,1575.49 L2582.84,1580.45 L2596.55,1598.72 L2597.55,1600.08 L2602.72,1606.97 L2604.39,1609.22 L2605.7,1610.96 L2607.79,1613.73 L2613.85,1621.84 L2623.69,1634.98 L2628.76,1641.78 L2637.22,1653.04 L2640.97,1658.06 L2645.54,1664.2 L2647.28,1666.51 L2650.56,1670.87 L2655.97,1678.12 L2666.71,1692.51 L2671.91,1699.48 L2672.92,1700.87 L2677.39,1706.74 L2680.31,1710.69 L2686.06,1718.36 L2689.19,1722.56 L2695.44,1730.92 L2698.6,1735.14 L2701.97,1739.55 L2705.39,1744.08 L2708.83,1748.66 L2712.4,1753.34 L2723.03,1767.37 L2725.91,1771.28 L2730,1776.63 L2733.35,1781.28 L2736.92,1785.99 L2740.49,1790.67 L2744.01,1795.42 L2751.1,1804.83 L2754.23,1809.04 L2757.61,1813.45 L2760.94,1817.88 L2764.23,1822.28 L2767.58,1826.71 L2774.24,1835.68 L2785.04,1849.92 L2788.69,1854.68 L2791.97,1859.21 L2794,1861.89 L2819.51,1895.77 L2821,1897.82 L2719.06,2097.75 L2531.03,2098.89 L2360.47,2099.5 L2180.87,2099.71 L2001.7,2099.46 L1820.56,2098.76 L1647,2097.66 L1637.95,2097.71 L1613.7,2097.85 L1583.22,2098.02 L1370.61,2098.87 L1345.3,2098.92 L998.837,2098.8 L785.438,2097.89 L474.188,2097.87 L311.793,2097.81 L228.101,2097.64 L170.401,2097.47 L142.547,2097.37"/>
  </g>
  <g stroke-linejoin="bevel" transform="matrix(0.999744,0,0,0.999744,0,0)" fill="none" stroke="#000000" stroke-width="1" font-weight="400" stroke-opacity="1" font-family="MS Shell Dlg 2" stroke-linecap="square" font-size="34.5833" font-style="normal"/>
  <g stroke-linejoin="bevel" transform="matrix(11.808,0,0,11.808,0,0)" fill="none" stroke="#000000" stroke-width="1" font-weight="400" stroke-opacity="1" font-family="MS Shell Dlg 2" stroke-linecap="square" font-size="34.5833" font-style="normal"/>
  <g stroke-linejoin="bevel" transform="matrix(11.808,0,0,11.808,0,0)" fill="none" stroke="#000000" stroke-width="1" font-weight="400" stroke-opacity="1" font-family="MS Shell Dlg 2" stroke-linecap="square" font-size="34.5833" font-style="normal"/>
  <g stroke-linejoin="bevel" transform="matrix(11.808,0,0,11.808,0,0)" fill="none" stroke="#000000" stroke-width="1" font-weight="400" stroke-opacity="1" font-family="MS Shell Dlg 2" stroke-linecap="square" font-size="34.5833" font-style="normal"/>
  <g stroke-linejoin="bevel" transform="matrix(1,0,0,1,0,0)" fill="none" stroke="#000000" stroke-width="1" font-weight="400" stroke-opacity="1" font-family="MS Shell Dlg 2" stroke-linecap="square" font-size="34.5833" font-style="normal"/>
  <g stroke-linejoin="bevel" transform="matrix(11.808,0,0,11.808,0,0)" fill="none" stroke="#000000" stroke-width="1" font-weight="400" stroke-opacity="1" font-family="MS Shell Dlg 2" stroke-linecap="square" font-size="34.5833" font-style="normal"/>
  <g stroke-linejoin="bevel" transform="matrix(11.808,0,0,11.808,0,0)" fill="none" stroke="#000000" stroke-width="1" font-weight="400" stroke-opacity="1" font-family="MS Shell Dlg 2" stroke-linecap="square" font-size="34.5833" font-style="normal"/>
  <g stroke-linejoin="bevel" transform="matrix(11.808,0,0,11.808,0,0)" fill="none" stroke="#000000" stroke-width="1" font-weight="400" stroke-opacity="1" font-family="MS Shell Dlg 2" stroke-linecap="square" font-size="34.5833" font-style="normal"/>
  <g stroke-linejoin="bevel" transform="matrix(11.808,0,0,11.808,0,0)" fill="none" stroke="#000000" stroke-width="1" font-weight="400" stroke-opacity="1" font-family="MS Shell Dlg 2" stroke-linecap="square" font-size="34.5833" font-style="normal"/>
  <g stroke-linejoin="bevel" transform="matrix(1,0,0,1,0,0)" fill="none" stroke="#000000" stroke-width="1" font-weight="400" stroke-opacity="1" font-family="MS Shell Dlg 2" stroke-linecap="square" font-size="34.5833" font-style="normal"/>
 </g>
</svg>
