<?xml version='1.0' encoding='UTF-8' standalone='no'?>
<svg width="249.936mm" baseProfile="tiny" xmlns="http://www.w3.org/2000/svg" height="249.936mm" version="1.2" xmlns:xlink="http://www.w3.org/1999/xlink" viewBox="0 0 2952 2952">
 <title>Qt SVG Document</title>
 <desc>Generated with Qt</desc>
 <defs/>
 <g fill-rule="evenodd" stroke-linejoin="bevel" fill="none" stroke="black" stroke-width="1" stroke-linecap="square">
  <g stroke-linejoin="bevel" transform="matrix(1,0,0,1,0,0)" fill="none" stroke="#000000" stroke-width="1" font-weight="400" stroke-opacity="1" font-family="MS Shell Dlg 2" stroke-linecap="square" font-size="34.5833" font-style="normal"/>
  <g stroke-linejoin="bevel" transform="matrix(1,0,0,1,0,0)" fill="none" stroke="#000000" stroke-width="1" font-weight="400" stroke-opacity="1" font-family="MS Shell Dlg 2" stroke-linecap="square" font-size="34.5833" font-style="normal"/>
  <g stroke-linejoin="bevel" transform="matrix(11.808,0,0,11.808,0,0)" fill="none" stroke="#000000" stroke-width="1" font-weight="400" stroke-opacity="1" font-family="MS Shell Dlg 2" stroke-linecap="square" font-size="34.5833" font-style="normal"/>
  <g stroke-linejoin="bevel" transform="matrix(0.999744,0,0,0.999744,0,0)" fill="none" stroke="#000000" stroke-width="1" font-weight="400" stroke-opacity="1" font-family="MS Shell Dlg 2" stroke-linecap="square" font-size="34.5833" font-style="normal"/>
  <g transform="matrix(0.999744,0,0,0.999744,0,0)" fill="#ffffff" stroke="none" font-weight="400" font-family="MS Shell Dlg 2" fill-opacity="0" font-size="34.5833" font-style="normal">
   <path vector-effect="none" fill-rule="evenodd" d="M-2,-2 L2955,-2 L2955,2955 L-2,2955 L-2,-2"/>
  </g>
  <g stroke-linejoin="bevel" transform="matrix(0.999744,0,0,0.999744,0,0)" fill="none" stroke="#000000" stroke-width="1" font-weight="400" stroke-opacity="1" font-family="MS Shell Dlg 2" stroke-linecap="square" font-size="34.5833" font-style="normal"/>
  <g stroke-linejoin="bevel" transform="matrix(11.808,0,0,11.808,0,0)" fill="none" stroke="#000000" stroke-width="1" font-weight="400" stroke-opacity="1" font-family="MS Shell Dlg 2" stroke-linecap="square" font-size="34.5833" font-style="normal"/>
  <g stroke-linejoin="bevel" transform="matrix(11.808,0,0,11.808,0,0)" fill="none" stroke="#000000" stroke-width="1" font-weight="400" stroke-opacity="1" font-family="MS Shell Dlg 2" stroke-linecap="square" font-size="34.5833" font-style="normal"/>
  <g stroke-linejoin="bevel" transform="matrix(11.808,0,0,11.808,0,0)" fill="none" stroke="#000000" stroke-width="1" font-weight="400" stroke-opacity="1" font-family="MS Shell Dlg 2" stroke-linecap="square" font-size="34.5833" font-style="normal"/>
  <g stroke-linejoin="bevel" transform="matrix(11.808,0,0,11.808,0,0)" fill="none" stroke="#000000" stroke-width="1" font-weight="400" stroke-opacity="1" font-family="MS Shell Dlg 2" stroke-linecap="square" font-size="34.5833" font-style="normal"/>
  <g stroke-linejoin="bevel" transform="matrix(11.808,0,0,11.808,0,0)" fill="none" stroke="#000000" stroke-width="1" font-weight="400" stroke-opacity="1" font-family="MS Shell Dlg 2" stroke-linecap="square" font-size="34.5833" font-style="normal"/>
  <g transform="matrix(11.808,0,0,11.808,0,0)" fill="#ffffff" stroke="none" font-weight="400" font-family="MS Shell Dlg 2" fill-opacity="0" font-size="34.5833" font-style="normal">
   <path vector-effect="none" fill-rule="evenodd" d="M0,0 L250,0 L250,250 L0,250 L0,0"/>
  </g>
  <g stroke-linejoin="bevel" transform="matrix(11.808,0,0,11.808,0,0)" fill="none" stroke="#000000" stroke-width="1" font-weight="400" stroke-opacity="1" font-family="MS Shell Dlg 2" stroke-linecap="square" font-size="34.5833" font-style="normal"/>
  <g stroke-linejoin="bevel" transform="matrix(11.808,0,0,11.808,0,0)" fill="none" stroke="#000000" stroke-width="1" font-weight="400" stroke-opacity="1" font-family="MS Shell Dlg 2" stroke-linecap="square" font-size="34.5833" font-style="normal"/>
  <g transform="matrix(0.999744,0,0,0.999744,0,0)" fill="#000000" stroke="none" font-weight="400" font-family="MS Shell Dlg 2" fill-opacity="0" font-size="34.5833" font-style="normal">
   <rect width="2953" y="0" height="2953" x="0"/>
  </g>
  <g stroke-linejoin="bevel" transform="matrix(0.999744,0,0,0.999744,0,0)" fill="none" stroke="#000000" stroke-width="1" font-weight="400" stroke-opacity="1" font-family="MS Shell Dlg 2" stroke-linecap="square" font-size="34.5833" font-style="normal"/>
  <g stroke-linejoin="bevel" transform="matrix(0.999744,0,0,0.999744,0,0)" fill="#c5c5c5" stroke="#5c5c5c" stroke-width="3.07087" font-weight="400" stroke-opacity="1" font-family="MS Shell Dlg 2" fill-opacity="1" stroke-linecap="square" font-size="34.5833" font-style="normal">
   <path vector-effect="none" fill-rule="evenodd" d="M515.717,1666.37 L573.652,1543.92 L614.343,1342.55 L625.112,1219.82 L678.754,1037.48 L768.866,885.185 L732.444,734.873 L762.402,636.413 L1107.87,448.558 L1217.32,438.922 L1333.05,461.462 L1266.59,703.937 L1373.78,722.184 L1660.31,539.814 L1747.25,693.156 L2325.9,652.966 L2439.61,766.518 L2463.31,925.453 L2389.32,1203.18 L2172.51,1425.38 L2118.56,1492.26 L1903.75,1621.18 L1882.38,1668.31 L1760.19,1766.91 L1839.52,1797.09 L1910.12,1846.29 L1880.25,2170.2 L1813.59,2243.44 L1727.91,2256.18 L1620.59,2305.6 L1554.06,2395.74 L1380.06,2466.58 L1203.2,2472.83 L1080.15,2470.77 L1013.54,2515.76 L882.662,2530.81 L774.644,2493.93 L676.661,2395.63 L796.802,2181.08 L720.489,2156.59 L596.186,2125.55 L498.606,2073.85 L511.423,1932.25 L500.762,1842.28 L530.672,1751.74 L515.717,1666.37"/>
  </g>
  <g stroke-linejoin="bevel" transform="matrix(0.999744,0,0,0.999744,0,0)" fill="none" stroke="#000000" stroke-width="1" font-weight="400" stroke-opacity="1" font-family="MS Shell Dlg 2" stroke-linecap="square" font-size="34.5833" font-style="normal"/>
  <g stroke-linejoin="bevel" transform="matrix(11.808,0,0,11.808,0,0)" fill="none" stroke="#000000" stroke-width="1" font-weight="400" stroke-opacity="1" font-family="MS Shell Dlg 2" stroke-linecap="square" font-size="34.5833" font-style="normal"/>
  <g stroke-linejoin="bevel" transform="matrix(11.808,0,0,11.808,0,0)" fill="none" stroke="#000000" stroke-width="1" font-weight="400" stroke-opacity="1" font-family="MS Shell Dlg 2" stroke-linecap="square" font-size="34.5833" font-style="normal"/>
  <g stroke-linejoin="bevel" transform="matrix(11.808,0,0,11.808,0,0)" fill="none" stroke="#000000" stroke-width="1" font-weight="400" stroke-opacity="1" font-family="MS Shell Dlg 2" stroke-linecap="square" font-size="34.5833" font-style="normal"/>
  <g stroke-linejoin="bevel" transform="matrix(1,0,0,1,0,0)" fill="none" stroke="#000000" stroke-width="1" font-weight="400" stroke-opacity="1" font-family="MS Shell Dlg 2" stroke-linecap="square" font-size="34.5833" font-style="normal"/>
  <g stroke-linejoin="bevel" transform="matrix(11.808,0,0,11.808,0,0)" fill="none" stroke="#000000" stroke-width="1" font-weight="400" stroke-opacity="1" font-family="MS Shell Dlg 2" stroke-linecap="square" font-size="34.5833" font-style="normal"/>
  <g stroke-linejoin="bevel" transform="matrix(11.808,0,0,11.808,0,0)" fill="none" stroke="#000000" stroke-width="1" font-weight="400" stroke-opacity="1" font-family="MS Shell Dlg 2" stroke-linecap="square" font-size="34.5833" font-style="normal"/>
  <g stroke-linejoin="bevel" transform="matrix(11.808,0,0,11.808,0,0)" fill="none" stroke="#000000" stroke-width="1" font-weight="400" stroke-opacity="1" font-family="MS Shell Dlg 2" stroke-linecap="square" font-size="34.5833" font-style="normal"/>
  <g stroke-linejoin="bevel" transform="matrix(11.808,0,0,11.808,0,0)" fill="none" stroke="#000000" stroke-width="1" font-weight="400" stroke-opacity="1" font-family="MS Shell Dlg 2" stroke-linecap="square" font-size="34.5833" font-style="normal"/>
  <g stroke-linejoin="bevel" transform="matrix(1,0,0,1,0,0)" fill="none" stroke="#000000" stroke-width="1" font-weight="400" stroke-opacity="1" font-family="MS Shell Dlg 2" stroke-linecap="square" font-size="34.5833" font-style="normal"/>
 </g>
</svg>
