<?xml version='1.0' encoding='UTF-8' standalone='no'?>
<svg width="249.936mm" baseProfile="tiny" xmlns="http://www.w3.org/2000/svg" height="249.936mm" version="1.2" xmlns:xlink="http://www.w3.org/1999/xlink" viewBox="0 0 2952 2952">
 <title>Qt SVG Document</title>
 <desc>Generated with Qt</desc>
 <defs/>
 <g fill-rule="evenodd" stroke-linejoin="bevel" fill="none" stroke="black" stroke-width="1" stroke-linecap="square">
  <g stroke-linejoin="bevel" transform="matrix(1,0,0,1,0,0)" fill="none" stroke="#000000" stroke-width="1" font-weight="400" stroke-opacity="1" font-family="MS Shell Dlg 2" stroke-linecap="square" font-size="34.5833" font-style="normal"/>
  <g stroke-linejoin="bevel" transform="matrix(1,0,0,1,0,0)" fill="none" stroke="#000000" stroke-width="1" font-weight="400" stroke-opacity="1" font-family="MS Shell Dlg 2" stroke-linecap="square" font-size="34.5833" font-style="normal"/>
  <g stroke-linejoin="bevel" transform="matrix(11.808,0,0,11.808,0,0)" fill="none" stroke="#000000" stroke-width="1" font-weight="400" stroke-opacity="1" font-family="MS Shell Dlg 2" stroke-linecap="square" font-size="34.5833" font-style="normal"/>
  <g stroke-linejoin="bevel" transform="matrix(0.999744,0,0,0.999744,0,0)" fill="none" stroke="#000000" stroke-width="1" font-weight="400" stroke-opacity="1" font-family="MS Shell Dlg 2" stroke-linecap="square" font-size="34.5833" font-style="normal"/>
  <g transform="matrix(0.999744,0,0,0.999744,0,0)" fill="#ffffff" stroke="none" font-weight="400" font-family="MS Shell Dlg 2" fill-opacity="0" font-size="34.5833" font-style="normal">
   <path vector-effect="none" fill-rule="evenodd" d="M-2,-2 L2955,-2 L2955,2955 L-2,2955 L-2,-2"/>
  </g>
  <g stroke-linejoin="bevel" transform="matrix(0.999744,0,0,0.999744,0,0)" fill="none" stroke="#000000" stroke-width="1" font-weight="400" stroke-opacity="1" font-family="MS Shell Dlg 2" stroke-linecap="square" font-size="34.5833" font-style="normal"/>
  <g stroke-linejoin="bevel" transform="matrix(11.808,0,0,11.808,0,0)" fill="none" stroke="#000000" stroke-width="1" font-weight="400" stroke-opacity="1" font-family="MS Shell Dlg 2" stroke-linecap="square" font-size="34.5833" font-style="normal"/>
  <g stroke-linejoin="bevel" transform="matrix(11.808,0,0,11.808,0,0)" fill="none" stroke="#000000" stroke-width="1" font-weight="400" stroke-opacity="1" font-family="MS Shell Dlg 2" stroke-linecap="square" font-size="34.5833" font-style="normal"/>
  <g stroke-linejoin="bevel" transform="matrix(11.808,0,0,11.808,0,0)" fill="none" stroke="#000000" stroke-width="1" font-weight="400" stroke-opacity="1" font-family="MS Shell Dlg 2" stroke-linecap="square" font-size="34.5833" font-style="normal"/>
  <g stroke-linejoin="bevel" transform="matrix(11.808,0,0,11.808,0,0)" fill="none" stroke="#000000" stroke-width="1" font-weight="400" stroke-opacity="1" font-family="MS Shell Dlg 2" stroke-linecap="square" font-size="34.5833" font-style="normal"/>
  <g stroke-linejoin="bevel" transform="matrix(11.808,0,0,11.808,0,0)" fill="none" stroke="#000000" stroke-width="1" font-weight="400" stroke-opacity="1" font-family="MS Shell Dlg 2" stroke-linecap="square" font-size="34.5833" font-style="normal"/>
  <g transform="matrix(11.808,0,0,11.808,0,0)" fill="#ffffff" stroke="none" font-weight="400" font-family="MS Shell Dlg 2" fill-opacity="0" font-size="34.5833" font-style="normal">
   <path vector-effect="none" fill-rule="evenodd" d="M0,0 L250,0 L250,250 L0,250 L0,0"/>
  </g>
  <g stroke-linejoin="bevel" transform="matrix(11.808,0,0,11.808,0,0)" fill="none" stroke="#000000" stroke-width="1" font-weight="400" stroke-opacity="1" font-family="MS Shell Dlg 2" stroke-linecap="square" font-size="34.5833" font-style="normal"/>
  <g stroke-linejoin="bevel" transform="matrix(11.808,0,0,11.808,0,0)" fill="none" stroke="#000000" stroke-width="1" font-weight="400" stroke-opacity="1" font-family="MS Shell Dlg 2" stroke-linecap="square" font-size="34.5833" font-style="normal"/>
  <g transform="matrix(0.999744,0,0,0.999744,0,0)" fill="#000000" stroke="none" font-weight="400" font-family="MS Shell Dlg 2" fill-opacity="0" font-size="34.5833" font-style="normal">
   <rect width="2953" y="0" height="2953" x="0"/>
  </g>
  <g stroke-linejoin="bevel" transform="matrix(0.999744,0,0,0.999744,0,0)" fill="none" stroke="#000000" stroke-width="1" font-weight="400" stroke-opacity="1" font-family="MS Shell Dlg 2" stroke-linecap="square" font-size="34.5833" font-style="normal"/>
  <g stroke-linejoin="bevel" transform="matrix(0.999744,0,0,0.999744,0,0)" fill="#c5c5c5" stroke="#5c5c5c" stroke-width="3.07087" font-weight="400" stroke-opacity="1" font-family="MS Shell Dlg 2" fill-opacity="1" stroke-linecap="square" font-size="34.5833" font-style="normal">
   <path vector-effect="none" fill-rule="evenodd" d="M1600.45,2349.75 L1588.99,2242.31 L1503.38,2241.97 L1352.73,2090.67 L1353.71,1556.22 L1353.71,1554.37 L1203.94,1403.78 L752.783,1404.25 L422.538,1403.61 L227.823,1402.87 L227.923,581.83 L227.923,577.081 L227.928,574.01 L227.949,566.077 L227.931,550.278 L227.957,546.328 L227.923,542.41 L227.919,538.506 L227.946,534.6 L227.927,530.713 L227.939,526.824 L227.932,522.269 L253.923,530.531 L430.522,586.602 L454.382,594.163 L731.266,681.528 L1122.55,804.749 L1809.1,1022.81 L2218.22,1148.74 L2376.92,1197.84 L2475.04,1228.09 L2620.6,1314.01 L2710.94,1315.76 L2713.13,1376.13 L2711.94,1394.61 L2653.66,1419.87 L2667.81,1439.08 L2625.04,1564.7 L2625.03,1564.76 L2691.23,1560.1 L2624.47,1798.41 L2567.41,2001.77 L2574.38,2003.03 L2617.61,2010.86 L2690.11,2044.32 L2690.07,2044.48 L2685.32,2055.41 L2679.05,2069.68 L2675.45,2078 L2668.31,2094.36 L2661.75,2109.31 L2654.7,2125.9 L2648.32,2141.1 L2641.52,2156.5 L2634.91,2171.73 L2627.2,2189.45 L2620.47,2204.74 L2613.12,2221.53 L2612.66,2222.65 L2612.41,2222.6 L2612.26,2222.63 L2612.02,2222.81 L2612.01,2222.81 L2611.8,2223.04 L2611.51,2223.24 L2611.21,2223.41 L2610.82,2223.44 L2610.65,2223.44 L2610.34,2223.43 L2609.96,2223.31 L2609.61,2223.27 L2609.56,2223.26 L2609.03,2223.3 L2608.57,2223.36 L2608.12,2223.55 L2607.82,2223.73 L2607.59,2223.95 L2607.42,2224.2 L2607.34,2224.45 L2607.19,2224.59 L2606.78,2224.76 L2606.52,2224.95 L2606.35,2225.26 L2606.26,2225.6 L2606.22,2225.9 L2606.14,2226.1 L2605.44,2226.69 L2604.49,2227.33 L2602.31,2228.66 L2601.04,2229.38 L2600.96,2229.59 L2600.92,2229.79 L2600.74,2229.93 L2600.49,2230.05 L2600.34,2230.26 L2600.31,2230.29 L2600.17,2230.44 L2600,2230.51 L2599.76,2230.6 L2599.31,2230.8 L2599.04,2231.02 L2598.89,2231.24 L2598.69,2231.63 L2598.52,2232.01 L2598.33,2232.25 L2598.11,2232.46 L2597.66,2232.71 L2597.25,2232.85 L2596.94,2233.05 L2596.77,2233.17 L2596.58,2233.15 L2596.42,2233.2 L2596.22,2233.33 L2595.66,2233.63 L2595.16,2233.82 L2594.6,2234 L2594.18,2234.05 L2593.64,2234.04 L2592.56,2233.91 L2592.11,2233.82 L2591.79,2233.85 L2591.32,2234.04 L2591.13,2234.07 L2590.86,2234.09 L2590.68,2234.25 L2590.36,2234.53 L2590.16,2234.86 L2590.05,2235.18 L2589.87,2235.36 L2589.57,2235.5 L2589.01,2235.62 L2588.54,2235.85 L2588.23,2236.07 L2587.9,2236.3 L2587.5,2236.71 L2586.92,2237.24 L2586.69,2237.5 L2586.37,2237.62 L2586.11,2237.83 L2585.75,2238.14 L2585.57,2238.37 L2585.43,2238.7 L2585.3,2238.9 L2584.89,2239.24 L2584.64,2239.55 L2584.36,2239.77 L2584.12,2239.96 L2583.2,2240.7 L2582.8,2240.96 L2582.17,2241.36 L2581.07,2241.96 L2580.91,2242.05 L2580.1,2242.48 L2578.38,2243.69 L2577.52,2244.33 L2576.76,2244.95 L2576.56,2245.2 L2576.5,2245.46 L2576.51,2245.71 L2576.51,2245.9 L2576.39,2246.1 L2576.16,2246.27 L2576.05,2246.5 L2576,2246.55 L2575.89,2246.67 L2575.62,2246.77 L2575.37,2246.77 L2575.32,2246.77 L2575,2246.7 L2574.77,2246.75 L2574.59,2246.95 L2574.35,2247.18 L2574.29,2247.25 L2574.22,2247.25 L2574.14,2247.26 L2573.83,2247.25 L2573.76,2247.36 L2573.67,2247.63 L2573.58,2247.81 L2573.3,2247.84 L2573.19,2248.05 L2572.97,2248.25 L2572.87,2248.45 L2572.84,2248.54 L2572.77,2248.7 L2572.56,2248.84 L2572.44,2248.87 L2572.28,2248.9 L2572.03,2248.99 L2571.76,2249.27 L2571.3,2249.72 L2571.14,2249.87 L2571.05,2249.96 L2570.82,2250.14 L2570.44,2250.36 L2569.93,2250.46 L2569.41,2250.56 L2569.26,2250.59 L2568.72,2250.7 L2568.17,2251.05 L2567.77,2251.29 L2567.43,2251.57 L2567.08,2251.84 L2566.92,2251.99 L2566.78,2252.29 L2566.77,2252.67 L2566.73,2252.99 L2566.67,2253.15 L2566.59,2253.38 L2566.45,2253.75 L2566.18,2254.03 L2565.85,2254.67 L2565.59,2255.21 L2565.29,2255.6 L2564.94,2255.91 L2564.6,2256.19 L2564.2,2256.39 L2563.69,2256.63 L2563.36,2256.83 L2563.14,2256.88 L2562.51,2257 L2562.27,2257.03 L2561.93,2257.08 L2561.53,2257.23 L2561.22,2257.42 L2560.84,2257.76 L2560.23,2258.4 L2558,2260.76 L2557.66,2261.09 L2557,2261.6 L2556.72,2261.88 L2556.5,2262.04 L2555.99,2262.29 L2555.51,2262.46 L2555.11,2262.75 L2554.9,2263 L2554.69,2263.27 L2554.43,2263.76 L2554.28,2264.39 L2554.25,2264.5 L2554.12,2264.97 L2554.01,2265.15 L2553.83,2265.44 L2553.53,2265.83 L2553.18,2266.23 L2552.97,2266.38 L2552.88,2266.45 L2552.35,2266.76 L2551.72,2267.27 L2551.31,2267.6 L2551.16,2267.84 L2551.12,2267.93 L2550.99,2268.29 L2550.88,2268.46 L2550.68,2268.61 L2550.51,2268.85 L2550.4,2269.13 L2550.32,2269.32 L2550.27,2269.45 L2550.05,2269.68 L2549.82,2269.9 L2549.72,2269.95 L2549.39,2270.1 L2549.09,2270.29 L2548.86,2270.52 L2548.65,2270.82 L2548.48,2271.07 L2548.21,2271.21 L2547.94,2271.39 L2547.57,2271.57 L2547.53,2271.6 L2547.29,2271.68 L2547.05,2271.77 L2547,2271.77 L2546.78,2271.77 L2546.54,2271.77 L2546.29,2271.8 L2546.05,2271.88 L2545.8,2271.98 L2545.47,2272.23 L2545.34,2272.33 L2545.1,2272.45 L2544.59,2272.62 L2544.36,2272.64 L2544.27,2272.65 L2543.98,2272.62 L2543.86,2272.53 L2543.73,2272.45 L2543.53,2272.4 L2543.38,2272.4 L2543.05,2272.51 L2542.77,2272.75 L2542.52,2272.9 L2542.2,2272.97 L2541.89,2273.01 L2541.71,2273.15 L2541.53,2273.48 L2541.16,2273.88 L2540.87,2274.07 L2540.7,2274.3 L2540.63,2274.52 L2540.52,2274.63 L2540.19,2274.71 L2540.06,2274.93 L2539.95,2275.16 L2539.64,2275.48 L2539.44,2275.69 L2539.38,2275.75 L2538.98,2275.98 L2538.86,2276 L2538.7,2276.02 L2538.56,2276.03 L2538.4,2275.93 L2538.33,2275.83 L2538.3,2275.78 L2538.15,2275.56 L2538.02,2275.45 L2537.74,2275.48 L2537.44,2275.62 L2537.29,2275.76 L2537.22,2276 L2537.05,2276.35 L2536.95,2276.71 L2536.73,2277.02 L2536.46,2277.32 L2536,2277.63 L2535.67,2277.83 L2535.36,2277.83 L2535.14,2277.74 L2534.77,2277.44 L2534.71,2277.39 L2534.36,2277.07 L2534,2276.82 L2533.73,2276.69 L2533.36,2276.69 L2533.29,2276.69 L2532.82,2276.96 L2532.4,2277.16 L2531.87,2277.56 L2531.54,2277.74 L2531.23,2277.83 L2530.94,2277.91 L2530.42,2277.96 L2529.97,2277.89 L2529.45,2277.85 L2528.95,2277.8 L2528.95,2277.79 L2528.43,2277.56 L2527.72,2277.26 L2527.08,2276.94 L2526.99,2276.9 L2525.79,2276.42 L2525.36,2276.23 L2525.18,2276.14 L2524.93,2276 L2524.64,2275.97 L2524.25,2276.06 L2524,2276.22 L2523.82,2276.45 L2523.74,2276.82 L2523.61,2277.58 L2523.37,2278.06 L2523.11,2278.51 L2522.76,2279.07 L2522.3,2279.84 L2521.89,2280.66 L2521.65,2281.03 L2521.39,2281.31 L2520.92,2281.66 L2520.23,2281.96 L2519.7,2282.08 L2519.11,2282.27 L2518.78,2282.37 L2518.36,2282.5 L2518.06,2282.62 L2517.62,2282.91 L2516.8,2283.24 L2516.14,2283.58 L2515.71,2283.64 L2515.61,2283.66 L2515.15,2283.74 L2514.64,2283.78 L2514.6,2283.79 L2514.23,2283.8 L2513.84,2283.81 L2513.07,2283.78 L2512.18,2283.76 L2512.07,2283.75 L2511.46,2283.72 L2510.93,2283.72 L2510.71,2283.76 L2510.32,2283.84 L2509.86,2283.79 L2509.14,2283.66 L2508.33,2283.41 L2508.03,2283.24 L2507.9,2283.17 L2507.44,2283.05 L2506.78,2283.14 L2506.07,2283.44 L2505.55,2283.74 L2505.1,2284.11 L2504.63,2284.8 L2504.34,2285.32 L2503.92,2286.1 L2503.65,2286.66 L2503.33,2287.08 L2503.1,2287.64 L2502.91,2288.23 L2502.44,2288.84 L2502.04,2289.26 L2501.48,2289.65 L2501.03,2289.87 L2500.96,2289.91 L2500.51,2290.1 L2500.01,2290.38 L2499.56,2290.56 L2499.31,2290.73 L2498.74,2291.11 L2497.99,2291.59 L2497.35,2292.04 L2496.83,2292.4 L2496.3,2292.8 L2495.97,2293.28 L2495.19,2294.22 L2495.14,2294.28 L2494.98,2294.48 L2494.62,2294.94 L2494.35,2295.33 L2494.17,2295.75 L2493.75,2296.44 L2493.32,2297.19 L2492.78,2298.13 L2492.4,2298.58 L2492.05,2298.75 L2491.58,2298.83 L2490.92,2298.65 L2490.36,2298.53 L2490.01,2298.41 L2489.63,2298.38 L2489.37,2298.49 L2489.09,2298.65 L2488.59,2298.93 L2488.5,2299.04 L2488.39,2299.17 L2488.21,2299.39 L2487.91,2299.85 L2487.58,2300.38 L2487.28,2300.84 L2486.95,2301.2 L2486.49,2301.52 L2486.06,2301.79 L2485.69,2301.92 L2485.33,2301.97 L2484.86,2302.02 L2484.26,2302.19 L2483.73,2302.54 L2483.44,2302.91 L2483.11,2303.16 L2482.84,2303.33 L2482.33,2303.72 L2481.74,2304.25 L2481.34,2304.77 L2481.04,2305.21 L2480.65,2305.54 L2480.3,2305.83 L2479.73,2306.28 L2478.97,2307.07 L2478.46,2307.71 L2478.13,2308.09 L2477.78,2308.44 L2476.97,2309.22 L2476.09,2309.75 L2475.3,2310.14 L2474.52,2310.62 L2473.63,2310.97 L2472.9,2311.22 L2472.57,2311.37 L2472.27,2311.59 L2471.86,2311.94 L2471.54,2312.36 L2470.93,2312.88 L2470.3,2313.52 L2469.62,2314.28 L2469.29,2314.7 L2469.01,2315.21 L2468.65,2315.73 L2468.05,2316.46 L2467.3,2317.49 L2466.68,2318.08 L2466.03,2318.56 L2465.5,2318.98 L2464.55,2319.74 L2463.89,2320.17 L2463.65,2320.33 L2462.79,2320.81 L2461.71,2321.43 L2461.22,2321.65 L2460.84,2321.9 L2460.39,2322.21 L2459.76,2322.44 L2458.49,2322.87 L2456.93,2323.34 L2456.44,2323.49 L2455.74,2323.72 L2454.47,2324.19 L2453.97,2324.47 L2452.88,2325 L2451.77,2325.58 L2451.04,2326.04 L2450.74,2326.37 L2450.42,2326.65 L2450.31,2326.74 L2449.83,2327.02 L2449.75,2327.05 L2448.99,2327.39 L2448.01,2327.78 L2447.1,2328.18 L2446.79,2328.26 L2446.76,2328.27 L2446.21,2328.42 L2444.42,2328.95 L2443.48,2329.3 L2443.13,2329.42 L2442.78,2329.54 L2441.16,2329.94 L2439.98,2330.21 L2439.34,2330.55 L2439.1,2330.61 L2438.56,2330.76 L2438,2330.98 L2437.49,2331.2 L2437.01,2331.29 L2436.57,2331.45 L2436.06,2331.48 L2435.61,2331.56 L2435.42,2331.6 L2435.34,2331.59 L2434.97,2331.57 L2434.67,2331.6 L2434.26,2331.79 L2433.93,2331.95 L2433.4,2332.15 L2432.96,2332.27 L2432.43,2332.46 L2432.21,2332.54 L2431.38,2332.84 L2431.36,2332.84 L2430.62,2333 L2430.01,2333.44 L2429.59,2333.64 L2428.88,2333.83 L2428.25,2334.03 L2427.64,2334.29 L2426.91,2334.77 L2426.07,2335.46 L2425.24,2336.06 L2424.31,2336.78 L2423.62,2337.38 L2422.69,2338.21 L2421.91,2338.86 L2421.12,2339.48 L2420.7,2339.84 L2420.64,2339.9 L2420.25,2340.26 L2419.46,2340.61 L2418.49,2341.04 L2417.51,2341.46 L2416.74,2341.84 L2415.79,2342.11 L2415.15,2342.3 L2414.42,2342.62 L2413.81,2342.98 L2413.41,2343.29 L2413.38,2343.32 L2412.98,2343.66 L2412.59,2344.14 L2412.42,2344.56 L2411.84,2345.97 L2411.57,2346.43 L2411.32,2346.85 L2411.04,2347.28 L2410.9,2347.39 L2410.61,2347.64 L2409.64,2348.27 L2409.62,2348.28 L2409.59,2348.3 L2409.17,2348.48 L2408.73,2348.7 L2408.13,2348.87 L2407.55,2349.01 L2406.96,2349.18 L2405.98,2349.56 L2405.35,2349.76 L2404.74,2350.02 L2404.14,2350.18 L2403.48,2350.36 L2402.32,2350.75 L2401.15,2351.06 L2400.65,2351.32 L2399.99,2351.59 L2399.35,2351.74 L2398.79,2351.93 L2398.14,2352.15 L2397.58,2352.31 L2397.04,2352.48 L2396.58,2352.57 L2396.15,2352.58 L2395.63,2352.6 L2395.24,2352.58 L2394.97,2352.65 L2394.59,2352.8 L2394.39,2352.96 L2394.24,2353.24 L2394.24,2353.25 L2393.96,2353.46 L2393.91,2353.5 L2393.7,2353.64 L2393.32,2353.94 L2392.96,2354.22 L2392.44,2354.76 L2392.18,2355.06 L2392.09,2355.24 L2391.98,2355.44 L2391.78,2355.88 L2391.39,2356.62 L2391.18,2357.04 L2390.95,2357.31 L2390.74,2357.52 L2390.63,2357.58 L2390.27,2357.79 L2389.91,2357.99 L2389.83,2358.05 L2389.48,2358.3 L2389.22,2358.44 L2388.8,2358.66 L2388.26,2358.92 L2387.53,2359.25 L2386.52,2359.82 L2386.02,2360.06 L2385.33,2360.32 L2384.83,2360.49 L2384.47,2360.49 L2383.81,2360.52 L2383.34,2360.57 L2382.84,2360.71 L2382.33,2361.05 L2381.8,2361.33 L2381.29,2361.52 L2380.53,2361.72 L2379.7,2361.95 L2378.56,2362.27 L2377.98,2362.32 L2377.35,2362.27 L2376.76,2362.15 L2376.19,2361.97 L2375.3,2361.63 L2374.85,2361.33 L2374.71,2361.26 L2374.35,2361.1 L2373.87,2360.99 L2373.3,2360.98 L2372.63,2361.07 L2371.86,2361.38 L2371.64,2361.53 L2371.61,2361.55 L2371.16,2361.87 L2370.68,2362.34 L2370.65,2362.36 L2370.34,2362.57 L2370,2362.65 L2369.44,2362.76 L2368.86,2362.79 L2368.47,2362.86 L2368.27,2362.9 L2367.6,2363.01 L2367.12,2363.18 L2366.59,2363.29 L2365.96,2363.52 L2365.45,2363.85 L2365.01,2363.99 L2364.52,2364.02 L2363.93,2364.08 L2363.43,2364 L2362.87,2363.78 L2362.34,2363.66 L2361.66,2363.66 L2361.62,2363.66 L2361.17,2363.68 L2360.8,2363.58 L2360.22,2363.21 L2359.78,2362.56 L2359.45,2362 L2358.97,2361.5 L2358.57,2361.16 L2358.56,2361.15 L2358.15,2360.86 L2357.52,2360.54 L2357.02,2360.26 L2356.55,2360.07 L2355.57,2359.73 L2355.07,2359.61 L2354.58,2359.54 L2353.97,2359.47 L2353.27,2359.44 L2352.56,2359.37 L2351.85,2359.22 L2351.13,2358.89 L2350.71,2358.66 L2350.24,2358.38 L2349.86,2358.15 L2349.42,2357.71 L2348.97,2357.35 L2348.41,2357.11 L2347.96,2356.95 L2347.4,2356.89 L2346.9,2356.9 L2346.65,2356.86 L2346.17,2356.7 L2345.58,2356.64 L2345,2356.7 L2344.34,2356.75 L2343.91,2356.9 L2343.49,2357.06 L2342.78,2357.15 L2342.4,2357.19 L2341.87,2357.19 L2341.29,2357.09 L2340.79,2357.01 L2340.2,2356.95 L2339.68,2356.95 L2339.29,2356.9 L2338.79,2357.03 L2338.31,2357.12 L2337.75,2357.23 L2337.24,2357.29 L2337.21,2357.29 L2337.21,2357.29 L2336.44,2357.19 L2335.78,2357.23 L2335.25,2357.19 L2334.51,2356.94 L2333.78,2356.69 L2333.13,2356.48 L2332.75,2356.4 L2332.23,2356.36 L2332.22,2356.35 L2331.81,2356.53 L2331.4,2356.81 L2330.97,2356.98 L2330.52,2357.27 L2330.01,2357.51 L2329.11,2357.77 L2328.74,2357.9 L2328.55,2357.96 L2327.95,2358.19 L2327.41,2358.35 L2326.73,2358.65 L2326.12,2358.83 L2325.09,2358.86 L2324.28,2358.98 L2323.68,2359.02 L2322.79,2359.12 L2321.49,2359.12 L2320.77,2359.05 L2320.13,2358.77 L2320,2358.68 L2319.43,2358.32 L2318.9,2357.88 L2318.29,2357.74 L2318.28,2357.74 L2317.63,2357.69 L2317.11,2357.76 L2316.78,2357.91 L2316.54,2357.96 L2316.12,2357.96 L2315.38,2357.77 L2314.93,2357.74 L2314.66,2357.79 L2314.39,2357.77 L2314.12,2357.68 L2313.76,2357.56 L2313.29,2357.46 L2312.93,2357.44 L2312.63,2357.54 L2312.32,2357.74 L2312.07,2357.94 L2311.7,2358.36 L2311.13,2358.8 L2310.78,2359.15 L2310.45,2359.39 L2310.06,2359.65 L2309.77,2359.73 L2309.14,2359.76 L2308.68,2359.69 L2308.14,2359.65 L2307.63,2359.5 L2307.14,2359.28 L2306.33,2359 L2305.69,2358.73 L2305.12,2358.6 L2304.68,2358.53 L2304.04,2358.52 L2303.4,2358.44 L2302.65,2358.43 L2302.04,2358.52 L2301.61,2358.57 L2301.33,2358.6 L2300.8,2358.41 L2300.27,2358.19 L2299.84,2357.99 L2298.96,2357.48 L2297.66,2357.15 L2297.01,2357.12 L2296.92,2357.13 L2296.43,2357.19 L2296,2357.27 L2295.39,2357.26 L2294.55,2357.19 L2293.81,2357.19 L2292.79,2357.15 L2291.89,2357.17 L2291.15,2357.17 L2290.35,2357.2 L2290.03,2357.13 L2289.73,2357.07 L2288.45,2356.76 L2288.42,2356.75 L2287.46,2356.47 L2286.37,2356.05 L2285.51,2355.89 L2284.79,2355.97 L2284.1,2356.05 L2283.37,2356.27 L2282.71,2356.44 L2282.59,2356.45 L2282.15,2356.48 L2281.35,2356.44 L2280.37,2356.27 L2279.61,2356.1 L2279.4,2356.04 L2278.21,2355.66 L2277.3,2355.43 L2276.26,2355.26 L2275.48,2355.16 L2274.88,2355.08 L2274.73,2355.06 L2274.47,2355.07 L2274.46,2355.07 L2274.35,2355.07 L2273.79,2355.23 L2273.76,2355.25 L2273.44,2355.44 L2273.13,2355.75 L2272.68,2356.14 L2272.38,2356.4 L2271.8,2356.86 L2271.56,2357.05 L2271.47,2357.12 L2271.13,2357.34 L2270.69,2357.44 L2270.57,2357.45 L2270.4,2357.48 L2270.07,2357.26 L2269.69,2356.92 L2269.33,2356.55 L2268.62,2355.89 L2268,2355.44 L2267.23,2355.06 L2266.59,2354.77 L2265.66,2354.48 L2264.89,2354.27 L2264.31,2354.15 L2263.79,2354.17 L2263.29,2354.29 L2262.62,2354.37 L2262.46,2354.39 L2261.96,2354.32 L2261.11,2354.31 L2260.86,2354.22 L2260.47,2354.15 L2260.31,2354.11 L2260.14,2354.06 L2260.09,2354.02 L2259.91,2353.89 L2259.59,2353.36 L2259.42,2352.73 L2259.28,2352.29 L2259.06,2351.93 L2258.83,2351.57 L2258.55,2351.25 L2258.23,2350.98 L2258.07,2350.89 L2257.81,2350.75 L2257.47,2350.67 L2257.43,2350.65 L2257.13,2350.53 L2256.99,2350.48 L2256.79,2350.34 L2256.65,2350.25 L2256.13,2350.03 L2255.74,2349.86 L2255.19,2349.68 L2254.62,2349.6 L2253.91,2349.66 L2253.35,2349.77 L2252.99,2349.91 L2252.61,2350.06 L2251.07,2350.58 L2250.18,2350.98 L2249.67,2351.29 L2248.5,2351.99 L2248.36,2352.05 L2247.97,2352.21 L2247.61,2352.46 L2247.3,2352.68 L2247.21,2352.74 L2246.86,2352.94 L2246.57,2353.14 L2246.2,2353.31 L2245.72,2353.48 L2245.16,2353.64 L2244.67,2353.8 L2244.14,2353.87 L2243.59,2353.95 L2242.86,2354 L2241.95,2353.98 L2240.96,2354.04 L2240.71,2354.06 L2240.11,2354.02 L2239.32,2354 L2239.15,2354 L2238.34,2353.97 L2237.47,2353.97 L2236.61,2354.07 L2236.01,2354.22 L2235.15,2354.57 L2234.8,2354.76 L2234.42,2354.96 L2233.71,2355.23 L2232.8,2355.78 L2232.09,2356.23 L2231.35,2356.67 L2230.28,2357.23 L2230.11,2357.29 L2229.33,2357.6 L2228.74,2357.81 L2228.27,2357.88 L2227.62,2357.88 L2226.73,2357.81 L2226.23,2357.73 L2225.7,2357.77 L2225.13,2357.74 L2224.84,2357.7 L2224.44,2357.65 L2223.56,2357.51 L2222.89,2357.37 L2222.26,2357.06 L2221.93,2356.91 L2221.78,2356.84 L2221.27,2356.42 L2220.87,2355.89 L2220.6,2355.65 L2220.27,2355.13 L2219.92,2354.52 L2219.68,2354.14 L2219.39,2353.77 L2219.05,2353.36 L2218.98,2353.27 L2218.56,2353 L2218.52,2352.98 L2218.22,2352.8 L2217.55,2352.41 L2217.41,2352.31 L2217.16,2352.13 L2216.86,2351.94 L2216.84,2351.93 L2216.4,2351.65 L2215.77,2351.25 L2214.89,2350.9 L2214.51,2350.75 L2213.81,2350.56 L2213.8,2350.56 L2213.79,2350.56 L2213.74,2350.56 L2213.14,2350.53 L2212.25,2350.67 L2211.62,2350.72 L2210.92,2350.72 L2210.12,2350.55 L2209.17,2350.3 L2208.44,2350.05 L2207.99,2349.94 L2207.4,2349.91 L2206.67,2349.98 L2206.54,2349.99 L2205.91,2350.23 L2205.89,2350.23 L2205.39,2350.41 L2205.03,2350.61 L2204.57,2350.81 L2203.71,2350.94 L2203.05,2350.89 L2202.73,2350.78 L2202.22,2350.56 L2201.78,2350.29 L2201.76,2350.28 L2201.27,2349.86 L2200.85,2349.26 L2200.3,2348.59 L2199.76,2348.11 L2199.49,2347.87 L2198.54,2347.57 L2198.04,2347.52 L2197.17,2347.51 L2196.51,2347.54 L2195.85,2347.62 L2195.25,2347.84 L2194.7,2348.01 L2193.96,2348.16 L2193.55,2348.33 L2193.05,2348.46 L2192.57,2348.51 L2192.18,2348.53 L2191.66,2348.58 L2190.68,2348.61 L2190.31,2348.78 L2189.56,2349.11 L2189.11,2349.39 L2188.89,2349.7 L2188.6,2350.12 L2188.46,2350.25 L2188.22,2350.48 L2187.79,2351.02 L2187.5,2351.36 L2187.31,2351.5 L2186.96,2351.57 L2186.76,2351.61 L2186.18,2351.86 L2185.6,2352.17 L2185.14,2352.47 L2184.83,2352.72 L2184.25,2353.09 L2183.63,2353.52 L2183.19,2353.77 L2182.65,2354.06 L2182.06,2354.31 L2181.46,2354.5 L2180.66,2354.76 L2179.65,2355 L2178.88,2355.12 L2177.86,2355.2 L2177.15,2355.1 L2176.22,2354.73 L2175.98,2354.59 L2175.24,2354.18 L2174.27,2353.47 L2173.05,2352.5 L2172.32,2351.86 L2172.1,2351.6 L2171.93,2351.39 L2171.49,2350.72 L2171.27,2350.34 L2171.13,2350.1 L2170.57,2348.93 L2170.23,2348.29 L2169.71,2347.69 L2169.32,2347.35 L2168.91,2347.18 L2168.41,2347.12 L2167.92,2347.07 L2167.91,2347.07 L2167.38,2346.89 L2166.67,2346.59 L2166.11,2346.14 L2165.65,2345.81 L2165.35,2345.32 L2165.28,2344.82 L2165.4,2344.39 L2165.44,2344.26 L2165.58,2343.8 L2165.65,2343.66 L2165.81,2343.31 L2166.11,2342.81 L2166.44,2342.19 L2166.74,2341.43 L2166.95,2340.7 L2166.89,2340.16 L2166.78,2339.79 L2166.52,2339.49 L2166.09,2339.18 L2165.8,2339.09 L2165.54,2339.01 L2164.87,2338.93 L2164.3,2339.04 L2163.46,2339.21 L2163.14,2339.26 L2162.9,2339.3 L2162.17,2339.41 L2161.59,2339.52 L2160.86,2339.59 L2160.23,2339.46 L2159.7,2339.21 L2159.58,2339.08 L2159.19,2338.64 L2159.02,2338.04 L2158.99,2337.39 L2159.19,2336.63 L2159.25,2336.55 L2159.69,2335.96 L2160.06,2335.37 L2160.09,2335.31 L2160.68,2334.74 L2161.28,2334.02 L2161.87,2333.33 L2162.12,2332.83 L2162.12,2332.82 L2162.12,2332.48 L2161.95,2332.1 L2161.54,2331.77 L2160.93,2331.44 L2160.47,2331.37 L2159.97,2331.45 L2159.31,2331.64 L2159.14,2331.74 L2158.93,2331.87 L2158.68,2332.05 L2158.41,2332.24 L2158.11,2332.39 L2157.88,2332.51 L2157.37,2332.69 L2156.73,2332.81 L2155.77,2332.77 L2155.17,2332.68 L2154.92,2332.62 L2154.56,2332.54 L2153.46,2332.31 L2152.35,2332.2 L2152.18,2332.19 L2151.51,2332.15 L2151.15,2332.15 L2150.91,2332.15 L2150.61,2332.18 L2149.99,2332.23 L2149.29,2332.21 L2149.26,2332.21 L2147.79,2332.06 L2146.88,2331.95 L2146.09,2331.75 L2144.79,2331.25 L2144.78,2331.24 L2143.87,2330.49 L2143.82,2330.44 L2143.12,2329.82 L2142.57,2329.19 L2142.5,2329.11 L2142.23,2328.58 L2141.76,2327.33 L2141.44,2326.41 L2141.18,2325.47 L2141,2324.83 L2140.64,2323.57 L2140.54,2323.2 L2140.26,2322.18 L2140.23,2322.07 L2139.95,2321.26 L2139.78,2320.84 L2139.5,2320.44 L2139.13,2320.22 L2138.56,2320.17 L2138.22,2320.2 L2138.12,2320.21 L2137.47,2320.28 L2136.58,2320.45 L2136.02,2320.69 L2135.38,2321.04 L2135.26,2321.15 L2134.45,2321.9 L2133.8,2322.58 L2133.38,2323 L2132.7,2323.7 L2132.65,2323.75 L2132.4,2323.94 L2132.05,2324.2 L2131.7,2324.48 L2131.6,2324.62 L2131.52,2324.75 L2131.47,2325.06 L2131.46,2325.12 L2131.43,2325.39 L2131.31,2325.7 L2130.95,2325.97 L2130.73,2326.13 L2130.51,2326.29 L2130.25,2326.35 L2130.08,2326.39 L2129.44,2326.33 L2128.76,2325.89 L2127.7,2325.45 L2127.24,2325.25 L2126.93,2325.12 L2126.41,2325.04 L2125.53,2325.1 L2124.59,2325.33 L2123.71,2325.67 L2122.92,2325.83 L2121.71,2325.83 L2120.83,2325.55 L2120.29,2325.32 L2119.9,2325.06 L2119.3,2324.64 L2119.16,2324.55 L2118.23,2324.08 L2117.74,2323.83 L2116.89,2323.5 L2116.25,2323.04 L2116.1,2322.93 L2116.05,2322.89 L2115.59,2322.6 L2115.38,2322.47 L2114.86,2322.15 L2114.22,2321.73 L2113.8,2321.45 L2113.14,2320.69 L2112.69,2320.13 L2112.56,2319.62 L2112.42,2319.04 L2112.08,2317.53 L2111.92,2316.8 L2111.84,2316.5 L2111.75,2316.17 L2111.4,2315.6 L2110.94,2315.28 L2110.21,2315.06 L2109.41,2314.93 L2109.14,2314.89 L2108.7,2314.81 L2107.76,2314.66 L2106.86,2314.53 L2106.11,2314.36 L2105.54,2314.22 L2104.65,2314.13 L2103.6,2313.94 L2102.95,2313.87 L2102.42,2313.72 L2101.49,2313.42 L2101.19,2313.28 L2100.05,2312.73 L2099.5,2312.36 L2099.07,2312.05 L2098.57,2311.69 L2098.23,2311.56 L2097.92,2311.51 L2097.25,2311.72 L2096.73,2311.95 L2096.62,2312 L2096.16,2312.25 L2095.73,2312.58 L2095.28,2312.9 L2094.55,2313.42 L2093.65,2314.01 L2093.27,2314.36 L2092.95,2314.68 L2092.34,2315.02 L2091.61,2315.51 L2090.66,2316.12 L2090.02,2316.48 L2088.91,2317.19 L2087.97,2317.86 L2087.14,2318.55 L2086.37,2319.2 L2086.02,2319.6 L2085.88,2319.72 L2085.32,2320.19 L2084.41,2320.75 L2083.4,2321.01 L2082.73,2321.14 L2081.96,2321.03 L2080.92,2320.77 L2080.27,2320.3 L2080.15,2320.21 L2079.81,2319.82 L2079.54,2319.18 L2079.46,2318.3 L2079.39,2317.55 L2079.16,2317.16 L2078.8,2316.59 L2078.45,2316.12 L2077.99,2315.65 L2077.21,2315.13 L2076.37,2315 L2075.26,2315.08 L2074.88,2315.15 L2074.29,2315.25 L2073.12,2315.5 L2072.2,2315.78 L2071.15,2316.17 L2070.24,2316.49 L2069.94,2316.59 L2068.54,2317.13 L2066.83,2317.66 L2066.09,2317.91 L2065.11,2318.45 L2064.64,2318.65 L2063.9,2318.93 L2063.26,2319.26 L2063.06,2319.36 L2062.86,2319.46 L2062.6,2319.79 L2062.39,2320.39 L2062.39,2320.85 L2062.4,2320.88 L2062.45,2321.23 L2062.47,2321.33 L2062.54,2321.45 L2062.62,2321.58 L2062.78,2321.85 L2063.33,2322.71 L2063.96,2323.55 L2064.35,2323.93 L2064.68,2324.3 L2065.1,2324.62 L2065.56,2324.96 L2065.92,2325.45 L2066.21,2325.96 L2066.34,2326.43 L2066.34,2327.05 L2066.34,2327.56 L2066.3,2328.03 L2066.16,2328.58 L2065.92,2329 L2065.46,2329.44 L2064.96,2329.61 L2064.47,2329.86 L2064.09,2330 L2063.74,2330.16 L2063.29,2330.37 L2062.48,2330.71 L2062.18,2330.82 L2061.56,2331.11 L2061.27,2331.14 L2061.14,2331.16 L2060.76,2331.38 L2060.62,2331.56 L2060.55,2331.65 L2060.42,2331.7 L2060.1,2331.83 L2059.55,2332.07 L2059.06,2332.44 L2058.74,2332.89 L2058.59,2333.1 L2058.54,2333.17 L2058.45,2333.22 L2058.15,2333.37 L2057.72,2333.53 L2057.5,2333.81 L2057.35,2334.01 L2057.25,2334.15 L2056.92,2334.45 L2056.67,2334.66 L2056.31,2334.74 L2055.67,2334.77 L2055.28,2334.9 L2054.87,2335.03 L2054.39,2335.27 L2054.01,2335.45 L2053.45,2335.59 L2053.35,2335.63 L2052.87,2335.85 L2052.5,2336.06 L2052.44,2336.25 L2052.39,2336.4 L2052.14,2336.71 L2051.94,2337.08 L2051.66,2337.58 L2051.38,2338.08 L2051.05,2338.51 L2051.05,2338.51 L2050.64,2339.12 L2050.45,2339.68 L2050.24,2340.11 L2050.05,2340.72 L2049.94,2341.34 L2049.94,2341.39 L2049.77,2341.99 L2049.62,2342.44 L2049.59,2342.54 L2049.34,2343.03 L2049.11,2343.45 L2048.86,2343.75 L2048.51,2344.01 L2048.13,2344.43 L2047.75,2344.81 L2047.67,2344.89 L2047.26,2345.16 L2046.76,2345.36 L2046.15,2345.49 L2045.73,2345.46 L2044.96,2345.24 L2044.39,2345.09 L2043.88,2345.02 L2043.2,2345.04 L2042.34,2344.96 L2041.81,2344.81 L2041.28,2344.57 L2040.93,2344.43 L2040.75,2344.36 L2040.22,2344.32 L2039.74,2344.46 L2039.23,2344.8 L2039.15,2344.88 L2038.89,2345.17 L2038.5,2345.55 L2038.04,2345.93 L2037.7,2346.35 L2037.33,2346.63 L2037.12,2346.76 L2036.98,2346.86 L2036.78,2347.13 L2036.69,2347.53 L2036.65,2347.72 L2036.65,2348.17 L2036.52,2348.54 L2036.28,2349.18 L2035.97,2349.52 L2035.7,2349.66 L2035.46,2349.77 L2035.19,2350.23 L2034.85,2350.89 L2034.62,2351.56 L2034.73,2351.9 L2034.63,2352.24 L2034.6,2352.35 L2034.58,2352.6 L2034.47,2353.19 L2034.33,2353.78 L2034.03,2354.31 L2033.56,2355.15 L2033.12,2355.75 L2033.06,2355.8 L2032.49,2356.28 L2031.7,2356.94 L2031.17,2357.32 L2030.91,2357.5 L2030.81,2357.56 L2030.28,2357.62 L2029.8,2357.79 L2029.35,2357.93 L2028.99,2357.99 L2028.74,2357.99 L2028.47,2357.82 L2028.37,2357.68 L2028.29,2357.57 L2028.13,2357.45 L2027.85,2357.32 L2027.43,2357.39 L2027.13,2357.53 L2027.1,2357.54 L2026.71,2357.6 L2026.34,2357.57 L2026.03,2357.45 L2025.63,2356.97 L2025.37,2356.62 L2025.28,2356.5 L2025.05,2356.25 L2024.98,2356.15 L2024.32,2355.26 L2023.78,2354.65 L2023.16,2354.17 L2022.65,2353.77 L2022.24,2353.3 L2021.81,2353.03 L2021.34,2352.86 L2020.89,2352.68 L2020.62,2352.51 L2020.48,2352.31 L2020.48,2352.16 L2020.48,2352.1 L2020.53,2351.87 L2020.47,2351.62 L2020.32,2351.45 L2020.07,2351.31 L2019.58,2351.32 L2019.19,2351.56 L2018.78,2351.98 L2018.35,2352.24 L2017.93,2352.54 L2017.54,2352.73 L2017.31,2353.05 L2017.01,2353.5 L2016.88,2354.04 L2016.89,2354.69 L2016.97,2355.35 L2017.27,2356 L2017.62,2356.65 L2017.87,2357.04 L2018.13,2357.6 L2018.38,2358.16 L2018.58,2358.7 L2018.71,2359.17 L2018.78,2359.59 L2018.78,2359.59 L2018.81,2359.9 L2018.58,2360.21 L2018.07,2360.34 L2017.55,2360.37 L2016.86,2360.4 L2016.58,2360.51 L2016.39,2360.82 L2016.3,2361.16 L2016.36,2361.41 L2016.59,2361.81 L2016.76,2362.22 L2016.89,2362.62 L2016.89,2362.67 L2016.89,2363.07 L2016.81,2363.38 L2016.56,2363.65 L2016.43,2363.74 L2015.87,2364.13 L2015.38,2364.67 L2015.02,2365.11 L2014.69,2365.36 L2014.13,2365.56 L2012.84,2365.91 L2012.31,2366.1 L2011.68,2366.43 L2010.88,2366.68 L2009.86,2366.88 L2009.13,2366.95 L2008.22,2367.16 L2007.74,2367.38 L2007.29,2367.59 L2007.01,2367.67 L2006.96,2367.69 L2006.78,2367.74 L2006.25,2367.74 L2005.41,2367.77 L2004.99,2367.81 L2004.51,2367.89 L2004,2368.12 L2003.16,2368.43 L2002.48,2368.63 L2001.83,2368.59 L2001.27,2368.59 L2001.12,2368.58 L2000.74,2368.56 L2000.34,2368.58 L2000.1,2368.63 L1999.8,2368.81 L1999.39,2369.35 L1999.09,2369.7 L1998.72,2370.03 L1998.51,2370.3 L1998.19,2370.81 L1998,2371.28 L1997.88,2371.66 L1997.76,2372.02 L1997.73,2372.44 L1997.81,2373.03 L1997.82,2373.11 L1997.88,2373.42 L1997.83,2373.86 L1997.76,2374.43 L1997.59,2375.05 L1997.53,2375.16 L1997.26,2375.7 L1996.99,2376.23 L1996.87,2376.66 L1996.77,2376.96 L1996.47,2377.44 L1996.19,2377.99 L1995.78,2378.66 L1995.4,2379.23 L1994.54,2380.04 L1994.18,2380.4 L1993.69,2380.67 L1993.21,2380.75 L1992.68,2381.02 L1992.36,2381.2 L1992.14,2381.33 L1991.55,2381.62 L1990.91,2381.84 L1990.08,2381.93 L1989.44,2382.09 L1988.61,2382.35 L1988.29,2382.42 L1988.02,2382.48 L1987.6,2382.56 L1987.54,2382.57 L1987.51,2382.56 L1987.04,2382.55 L1986.96,2382.54 L1986.95,2382.54 L1986.45,2382.41 L1985.93,2382.06 L1985.53,2381.76 L1985.24,2380.99 L1985.04,2380.33 L1984.87,2379.74 L1984.64,2379.03 L1984.31,2378.52 L1983.96,2377.92 L1983.56,2377.41 L1983.17,2377.06 L1983.14,2377.03 L1983.08,2377 L1982.7,2376.78 L1982.64,2376.76 L1981.86,2376.53 L1980.98,2376.48 L1980.65,2376.56 L1980.47,2376.61 L1980.09,2376.81 L1979.76,2377.24 L1979.71,2377.68 L1979.71,2377.69 L1979.74,2378.44 L1979.8,2379.17 L1979.87,2379.91 L1980.02,2380.28 L1980.12,2380.91 L1980.12,2381.51 L1980.16,2381.99 L1980.17,2382.03 L1980.3,2382.73 L1980.46,2383.22 L1980.52,2383.41 L1980.59,2383.92 L1980.71,2384.73 L1980.7,2385.55 L1980.63,2386.28 L1980.6,2386.89 L1980.63,2387.76 L1980.71,2388.21 L1980.65,2388.75 L1980.48,2389.42 L1980.4,2390 L1980.35,2390.31 L1980.21,2390.6 L1979.94,2390.85 L1979.47,2390.99 L1978.88,2390.93 L1978.34,2390.96 L1978.32,2390.96 L1978.27,2390.98 L1977.79,2391.13 L1976.95,2391.15 L1976.36,2391.12 L1976.29,2391.12 L1975.87,2391.13 L1975.5,2391.29 L1975.22,2391.5 L1975.13,2391.62 L1974.91,2391.89 L1974.66,2392.31 L1974.35,2392.94 L1973.93,2393.81 L1973.76,2394.3 L1973.71,2394.38 L1973.47,2394.79 L1973.24,2395.19 L1973.2,2395.26 L1972.87,2395.66 L1972.51,2395.79 L1971.92,2395.91 L1971.28,2395.9 L1970.49,2395.81 L1969.78,2395.85 L1969.11,2395.93 L1967.76,2395.83 L1966.82,2395.69 L1966.59,2395.66 L1966.17,2395.61 L1965.76,2395.71 L1965.57,2395.87 L1965.34,2396.08 L1965.21,2396.39 L1964.91,2397.15 L1964.7,2397.84 L1964.57,2398.27 L1964.45,2398.61 L1964.42,2398.76 L1964.35,2399.07 L1964.43,2399.53 L1964.43,2399.54 L1964.75,2400 L1965.29,2400.73 L1965.34,2400.79 L1965.73,2401.1 L1965.79,2401.14 L1966.2,2401.48 L1966.57,2401.9 L1966.77,2402.31 L1966.85,2402.78 L1966.67,2403.4 L1966.42,2403.66 L1966,2403.91 L1965.69,2404.03 L1965.13,2404.25 L1964.61,2404.38 L1963.69,2404.36 L1963.64,2404.36 L1962.92,2404.25 L1962.48,2404.21 L1961.87,2403.9 L1961.19,2403.45 L1960.49,2403.07 L1960.05,2402.84 L1959.52,2402.57 L1958.83,2402.27 L1958,2401.94 L1957.52,2401.73 L1956.52,2401.3 L1955.58,2400.88 L1954.72,2400.67 L1953.92,2400.54 L1953.08,2400.51 L1952.64,2400.51 L1952.29,2400.64 L1951.74,2400.68 L1951.2,2400.62 L1950.83,2400.58 L1950.3,2400.56 L1949.84,2400.71 L1949.22,2400.92 L1948.68,2401.21 L1948.38,2401.34 L1948.18,2401.43 L1947.7,2401.63 L1947.25,2402 L1947.2,2402.04 L1946.6,2402.39 L1946,2402.66 L1945.25,2402.78 L1945.1,2402.76 L1944.64,2402.69 L1943.95,2402.42 L1943.33,2402.17 L1942.79,2401.83 L1942.44,2401.57 L1941.86,2400.7 L1941.54,2400 L1941.34,2399.66 L1941.04,2399.32 L1940.94,2399.25 L1940.67,2399.07 L1940.32,2398.88 L1939.92,2398.8 L1939.48,2398.74 L1938.95,2398.77 L1938.55,2398.87 L1937.85,2399.12 L1937.43,2399.32 L1936.8,2399.52 L1936.28,2399.77 L1935.59,2399.97 L1935.36,2400.05 L1935.12,2400.12 L1934.2,2400.39 L1933.26,2400.7 L1932.45,2400.96 L1931.88,2401.03 L1931.53,2401.04 L1931.26,2401.01 L1931.06,2400.98 L1930.56,2400.73 L1930.05,2400.54 L1929.58,2400.42 L1929.02,2400.19 L1928.61,2400.08 L1928.19,2399.92 L1927.58,2399.84 L1927.04,2399.84 L1926.7,2399.89 L1926.14,2400.11 L1925.39,2400.51 L1924.72,2401.01 L1924.23,2401.35 L1923.69,2401.58 L1923.1,2401.83 L1922.45,2402.04 L1921.54,2402.27 L1920.86,2402.46 L1920.37,2402.5 L1919.65,2402.38 L1918.91,2402.3 L1918.36,2402.3 L1917.57,2402.44 L1917.03,2402.49 L1916.51,2402.58 L1915.91,2402.66 L1915.25,2402.84 L1915.04,2402.96 L1914.75,2403.12 L1914.29,2403.63 L1914.27,2403.67 L1914.03,2404.04 L1913.75,2404.35 L1913.36,2404.88 L1913.09,2405.19 L1912.59,2405.53 L1912.02,2405.8 L1911.26,2406.18 L1910.81,2406.46 L1910.02,2406.9 L1909.21,2407.26 L1908.59,2407.47 L1908.14,2407.63 L1907.53,2407.81 L1907.06,2408.03 L1906.64,2408.33 L1906.17,2408.75 L1905.82,2409.01 L1905.42,2409.15 L1905.37,2409.15 L1904.74,2409.12 L1904.15,2409.04 L1903.56,2408.98 L1903.05,2408.8 L1902.52,2408.56 L1902.07,2408.47 L1901.96,2408.45 L1901.53,2408.14 L1900.66,2407.15 L1899.96,2406.5 L1899.69,2406.29 L1899.32,2406.15 L1898.65,2406.12 L1898.41,2406 L1898.09,2405.67 L1897.61,2405.46 L1897.02,2405.5 L1896.34,2405.81 L1896.04,2406.12 L1895.45,2406.76 L1895.08,2407.26 L1894.77,2407.64 L1894.4,2408.17 L1894.15,2408.61 L1893.59,2409.21 L1893.01,2409.72 L1892.61,2410.02 L1891.8,2410.61 L1891.31,2410.83 L1890.71,2410.98 L1890.15,2410.98 L1889.47,2410.81 L1889.09,2410.5 L1888.64,2409.65 L1888.49,2409.15 L1888.25,2408.61 L1888.14,2408.1 L1888.09,2407.86 L1888.03,2407.61 L1888.03,2407.51 L1888.03,2407.37 L1888.03,2406.79 L1888.18,2406.25 L1888.18,2405.67 L1888.01,2405.11 L1887.66,2404.66 L1887.19,2404.29 L1886.66,2404.09 L1886.16,2404.04 L1886.13,2404.04 L1886.02,2404.07 L1885.65,2404.17 L1885.3,2404.4 L1884.77,2404.99 L1884.34,2405.66 L1884.16,2406.21 L1883.99,2406.77 L1883.91,2407.22 L1883.91,2407.22 L1883.87,2407.54 L1883.89,2408.06 L1883.95,2408.48 L1883.97,2408.65 L1884.01,2408.98 L1884,2409.15 L1883.97,2409.79 L1884.01,2410.41 L1884,2410.47 L1883.97,2410.92 L1883.81,2411.51 L1883.58,2412.07 L1883.3,2412.47 L1883,2412.76 L1882.42,2412.91 L1881.84,2412.94 L1881.59,2412.94 L1881,2412.93 L1880.22,2412.88 L1879.38,2412.81 L1879.29,2412.8 L1878.37,2412.68 L1877.41,2412.63 L1876.77,2412.68 L1876,2412.77 L1875.57,2413.02 L1874.99,2413.51 L1874.61,2413.93 L1874.07,2414.18 L1873.5,2414.45 L1872.84,2414.8 L1872.41,2415.05 L1872.03,2415.41 L1871.66,2415.78 L1870.95,2416.7 L1870.8,2416.9 L1870.54,2417.26 L1870.42,2417.62 L1870.22,2418.04 L1870.08,2418.53 L1870,2418.93 L1869.99,2418.98 L1869.79,2419.23 L1869.46,2419.48 L1869.21,2419.64 L1868.95,2419.65 L1868.52,2419.67 L1868.04,2419.64 L1867.49,2419.47 L1867.39,2419.39 L1866.91,2419.01 L1866.58,2418.41 L1866.44,2417.91 L1866.37,2417.66 L1866.32,2417.49 L1866.23,2416.67 L1866,2416.05 L1865.66,2415.43 L1865.29,2414.94 L1864.83,2414.48 L1864.38,2413.86 L1863.92,2413.17 L1863.44,2412.66 L1863.3,2412.54 L1863,2412.29 L1862.36,2411.88 L1861.64,2411.59 L1861.62,2411.58 L1860.87,2411.39 L1860.25,2411.25 L1859.77,2411.17 L1858.98,2411.08 L1858.23,2411.17 L1857.48,2411.43 L1856.85,2411.82 L1856.32,2412.26 L1855.81,2412.68 L1855.16,2413.24 L1854.93,2413.47 L1854.71,2413.7 L1854.15,2414.01 L1853.44,2414.15 L1853.01,2414.05 L1852.22,2413.73 L1851.01,2413.08 L1850.21,2412.71 L1849.06,2411.95 L1848.28,2411.5 L1847.47,2411.01 L1847.02,2410.59 L1846.56,2410.05 L1846.24,2409.6 L1845.56,2408.96 L1844.62,2408.16 L1844.01,2407.55 L1843.32,2407.01 L1842.42,2406.5 L1841.58,2406.13 L1841.03,2405.96 L1838.72,2405.21 L1837.95,2404.88 L1837.33,2404.71 L1836.68,2404.69 L1835.98,2404.66 L1834.94,2404.67 L1834.23,2404.69 L1833.65,2404.71 L1832.97,2404.82 L1832.21,2405 L1831.67,2405.24 L1831,2405.76 L1830.38,2406.51 L1830.05,2406.9 L1829.53,2407.42 L1829.28,2407.74 L1828.59,2408.22 L1828.19,2408.38 L1827.45,2408.5 L1826.78,2408.38 L1826.23,2408.23 L1825.65,2407.96 L1825.44,2407.86 L1824.68,2407.63 L1824.65,2407.62 L1822.93,2407.05 L1822.13,2406.77 L1821.97,2406.71 L1821.22,2406.48 L1820.13,2406.21 L1819.2,2406.03 L1819.19,2406.03 L1818.62,2405.84 L1817.94,2405.47 L1817.37,2405.16 L1816.76,2404.6 L1816.74,2404.57 L1816.43,2404.15 L1816.11,2403.82 L1816.09,2403.8 L1815.65,2403.5 L1815.33,2403.11 L1815.05,2402.67 L1814.74,2402.1 L1814.36,2401.48 L1814.07,2401.1 L1813.81,2400.87 L1812.77,2400.26 L1812.08,2399.86 L1811.43,2399.47 L1810.86,2399.04 L1809.89,2398.45 L1808.41,2397.61 L1807.84,2397.26 L1807.72,2397.19 L1807.2,2397.01 L1806.9,2396.94 L1806.45,2396.89 L1806.33,2396.9 L1805.88,2396.93 L1805.36,2397.01 L1804.84,2397.05 L1804.72,2397.05 L1804.39,2397.02 L1803.96,2396.97 L1803.26,2397.05 L1802.43,2397.33 L1801.88,2397.63 L1801.33,2397.69 L1801.03,2397.75 L1800.47,2397.85 L1799.77,2397.88 L1798.6,2398.02 L1797.78,2398.11 L1797.53,2398.12 L1796.9,2398.15 L1796.13,2398.15 L1795.09,2398.14 L1794.26,2398.18 L1793.7,2398.26 L1793.59,2398.28 L1792.26,2398.39 L1791.22,2398.42 L1790.21,2398.7 L1789.53,2398.98 L1788.85,2399.34 L1788.34,2399.66 L1788.15,2399.78 L1787.66,2400.1 L1786.8,2400.72 L1785.94,2401.34 L1785.48,2401.62 L1784.39,2402.04 L1782.81,2402.55 L1781.26,2403.05 L1780.86,2403.22 L1780,2403.52 L1778.91,2403.92 L1778.73,2403.96 L1777.88,2404.14 L1777.37,2404.23 L1776.92,2404.26 L1776.38,2404.37 L1775.85,2404.57 L1774.84,2405.08 L1774.09,2405.68 L1773.58,2406.23 L1772.83,2407.06 L1772.5,2407.56 L1772.16,2408.33 L1771.97,2409.33 L1771.86,2409.83 L1771.63,2410.49 L1771.54,2410.64 L1771.1,2411.33 L1770.73,2411.95 L1770.32,2412.33 L1769.87,2412.75 L1769.61,2413 L1768.88,2413.43 L1768.29,2413.79 L1767.84,2414.13 L1767.52,2414.53 L1767.48,2414.6 L1767.37,2414.81 L1767.16,2415.18 L1766.96,2415.53 L1766.71,2415.85 L1766.28,2416.42 L1766,2416.8 L1765.75,2417.17 L1765.42,2417.42 L1764.87,2417.71 L1764.08,2417.83 L1763.93,2417.83 L1763.11,2417.81 L1762.68,2417.79 L1762.49,2417.78 L1761.96,2417.64 L1761.34,2417.26 L1761.02,2416.77 L1760.69,2415.95 L1760.47,2415.26 L1760.29,2414.76 L1759.98,2414.14 L1759.76,2413.83 L1759.55,2413.54 L1759,2412.87 L1758.57,2412.51 L1758.02,2412.28 L1757.29,2412.01 L1756.04,2411.61 L1755.05,2411.44 L1754.85,2411.41 L1754.1,2411.33 L1752.91,2411.33 L1751.7,2411.44 L1751.09,2411.58 L1750.54,2411.77 L1750.05,2411.91 L1749.17,2411.97 L1748.21,2412.01 L1747.58,2412.09 L1746.84,2412.21 L1746.3,2412.14 L1745.12,2412.01 L1744.57,2411.81 L1744.39,2411.69 L1743.91,2411.39 L1743.15,2410.79 L1743.13,2410.77 L1742.62,2410.32 L1741.8,2409.54 L1741.01,2408.94 L1740.47,2408.71 L1740.27,2408.67 L1739.74,2408.62 L1738.96,2408.5 L1738.22,2408.35 L1736.99,2408.13 L1736.46,2407.93 L1735.93,2407.73 L1735.27,2407.53 L1734.74,2407.36 L1734.3,2407.06 L1734.16,2406.97 L1733.66,2406.58 L1733.53,2406.48 L1733.3,2406.25 L1733.05,2405.99 L1732.83,2405.87 L1732.47,2405.67 L1731.76,2405.31 L1731.1,2404.97 L1730.49,2404.8 L1729.78,2404.72 L1729.18,2404.53 L1728.45,2404.36 L1727.97,2404.25 L1727.35,2404.11 L1726.83,2403.93 L1725.99,2403.46 L1725.01,2402.57 L1724.78,2402.38 L1724.27,2401.97 L1723.41,2401.24 L1723.07,2400.93 L1722.59,2400.69 L1722.03,2400.57 L1721.24,2400.51 L1720.77,2400.51 L1720.42,2400.51 L1719.97,2400.49 L1719.7,2400.48 L1718.77,2400.42 L1718.63,2400.39 L1717.86,2400.17 L1717.22,2399.95 L1716.44,2399.77 L1715.72,2399.53 L1715.03,2399.27 L1714.39,2399.11 L1713.67,2399.1 L1713.33,2399.06 L1712.91,2399 L1712.37,2398.69 L1711.98,2398.45 L1711.57,2398.21 L1711.06,2397.96 L1710.25,2397.74 L1709.35,2397.53 L1709.34,2397.52 L1708.31,2397.22 L1707.3,2396.86 L1705.68,2396.27 L1704.69,2395.96 L1703.86,2395.71 L1703.28,2395.54 L1702.37,2395.26 L1701.58,2395.27 L1700.88,2395.1 L1700.07,2394.78 L1699.79,2394.69 L1699.76,2394.68 L1699.54,2394.64 L1699.38,2394.69 L1699.25,2394.84 L1699.13,2395.21 L1699.02,2395.24 L1698.99,2395.24 L1698.81,2395.24 L1698.58,2395.12 L1698.5,2394.9 L1698.31,2394.72 L1698.12,2394.65 L1698.07,2394.65 L1697.95,2394.65 L1697.72,2394.73 L1697.66,2394.73 L1697.45,2394.7 L1697.19,2394.53 L1696.98,2394.19 L1696.88,2393.88 L1696.77,2393.76 L1696.73,2393.72 L1696.55,2393.64 L1696.26,2393.61 L1695.98,2393.64 L1695.52,2393.88 L1695.39,2393.97 L1695.09,2393.97 L1694.87,2393.81 L1694.51,2393.58 L1694.5,2393.57 L1694.26,2393.44 L1693.98,2393.04 L1693.84,2392.95 L1693.81,2392.93 L1693.58,2392.9 L1693.35,2392.93 L1693.16,2393.11 L1693.12,2393.24 L1692.98,2393.26 L1692.83,2393.13 L1692.63,2392.99 L1692.39,2392.91 L1692.09,2392.79 L1691.82,2392.65 L1691.47,2392.43 L1690.79,2392.04 L1690.41,2391.67 L1690.21,2391.22 L1690.11,2390.88 L1689.94,2390.64 L1689.61,2390.58 L1689.16,2390.36 L1688.82,2390.12 L1688.39,2389.9 L1688.34,2389.87 L1688.28,2389.8 L1687.83,2389.35 L1687.56,2388.93 L1687.54,2388.9 L1687.28,2388.44 L1687.08,2388.22 L1686.87,2388.06 L1686.83,2388.04 L1686.65,2388.01 L1686.29,2388.07 L1686.12,2388.08 L1685.81,2388.15 L1685.67,2388.1 L1685.37,2387.98 L1684.86,2387.65 L1684.65,2387.51 L1684.31,2387.32 L1684.13,2387.23 L1684.07,2387.15 L1683.95,2387.01 L1683.93,2386.98 L1683.84,2386.78 L1683.86,2386.42 L1683.82,2386.17 L1683.66,2385.97 L1683.49,2385.9 L1683.16,2385.82 L1682.87,2385.8 L1682.85,2385.8 L1682.62,2385.74 L1682.36,2385.57 L1682.25,2385.4 L1682.08,2385.23 L1681.77,2385.13 L1681.47,2385.24 L1681.32,2385.33 L1681.16,2385.33 L1681.05,2385.3 L1680.87,2385.24 L1680.72,2385.13 L1680.69,2385.1 L1680.55,2384.78 L1680.45,2384.5 L1680.23,2384.29 L1679.93,2384.17 L1679.47,2383.94 L1678.87,2383.84 L1678.43,2383.76 L1678.39,2383.75 L1677.96,2383.64 L1677.5,2383.44 L1677.43,2383.38 L1676.92,2383.08 L1676.53,2382.84 L1676.39,2382.74 L1676.13,2382.45 L1676.01,2382.31 L1675.65,2381.96 L1675.37,2381.84 L1675.12,2381.78 L1674.85,2381.79 L1674.62,2381.82 L1674.45,2381.76 L1674.3,2381.62 L1674.18,2381.34 L1674.17,2381.3 L1674.1,2381.17 L1674.04,2381.05 L1673.92,2380.92 L1673.83,2380.87 L1673.58,2380.83 L1673.36,2380.75 L1673.23,2380.68 L1673.11,2380.61 L1672.91,2380.4 L1672.9,2380.38 L1672.64,2380.1 L1672.45,2379.9 L1672.39,2379.78 L1672.27,2379.56 L1672.11,2379.32 L1672.01,2379.21 L1671.84,2379.03 L1671.73,2378.89 L1671.31,2378.34 L1671.04,2377.96 L1670.73,2377.55 L1670.42,2377.12 L1670.09,2376.76 L1670.02,2376.69 L1669.68,2376.35 L1669.64,2376.31 L1669.41,2376.02 L1669.24,2375.73 L1669.04,2375.32 L1668.79,2375.01 L1668.64,2374.89 L1668.32,2374.73 L1668,2374.67 L1667.82,2374.57 L1667.61,2374.45 L1667.42,2374.3 L1667.26,2374.15 L1667.12,2374.02 L1666.75,2373.43 L1666.4,2372.84 L1666.07,2372.24 L1666.06,2372.21 L1665.84,2371.83 L1665.8,2371.77 L1665.55,2371.31 L1665.4,2370.89 L1665.17,2370.46 L1664.82,2369.99 L1664.5,2369.69 L1664.33,2369.49 L1663.91,2369.01 L1663.2,2368.35 L1662.67,2367.96 L1662.14,2367.66 L1661.89,2367.53 L1661.65,2367.4 L1661.16,2367.04 L1660.57,2366.62 L1659.88,2366.25 L1658.96,2365.8 L1658.58,2365.5 L1658.02,2365.18 L1657.42,2364.86 L1656.32,2364.35 L1655.85,2364.15 L1655.39,2363.95 L1654.9,2363.72 L1653.16,2363.07 L1652.6,2362.86 L1651.98,2362.67 L1651.53,2362.53 L1650.89,2362.45 L1650.23,2362.45 L1649.73,2362.47 L1649.07,2362.37 L1648.42,2362.23 L1647.78,2362.2 L1646.92,2362.27 L1646.26,2362.32 L1645.67,2362.32 L1645.03,2362.44 L1644.5,2362.56 L1643.97,2362.62 L1643.26,2362.76 L1642.27,2363.07 L1641.74,2363.29 L1641.2,2363.51 L1640.72,2363.62 L1640.4,2363.69 L1639.75,2363.83 L1639.74,2363.83 L1639.01,2363.86 L1638.66,2363.91 L1637.68,2364.07 L1636.64,2364.11 L1635.98,2364.07 L1635.19,2364 L1634.09,2363.82 L1632.56,2363.54 L1631.73,2363.29 L1631.34,2363.14 L1630.96,2362.99 L1630.22,2362.62 L1629.69,2362.31 L1628.96,2361.97 L1628.3,2361.67 L1627.41,2361.38 L1626.61,2361.21 L1626.4,2361.12 L1625.98,2360.93 L1625.51,2360.68 L1625.45,2360.65 L1624.84,2360.24 L1624.23,2359.98 L1623.87,2359.73 L1623.65,2359.52 L1623.37,2359.37 L1622.82,2359.14 L1622.29,2359.12 L1621.75,2359.12 L1621.4,2359.01 L1621.04,2358.81 L1620.37,2358.42 L1619.53,2358.11 L1619.03,2357.92 L1618.29,2357.67 L1617.78,2357.41 L1617.13,2357.1 L1616.48,2356.88 L1615.53,2356.54 L1615.47,2356.53 L1615.06,2356.41 L1614.76,2356.25 L1614.67,2356.2 L1614.3,2355.89 L1614.02,2355.58 L1613.76,2355.39 L1613.39,2355.2 L1613.16,2355.17 L1612.71,2355.25 L1612.33,2355.38 L1612.25,2355.37 L1611.87,2355.34 L1611.41,2355.21 L1610.97,2354.95 L1610.58,2354.68 L1610.33,2354.44 L1610.1,2354.22 L1609.68,2353.89 L1609.12,2353.46 L1608.81,2353.35 L1608.51,2353.32 L1607.99,2353.41 L1607.8,2353.44 L1607.35,2353.35 L1606.71,2353.1 L1606.03,2352.79 L1605.66,2352.54 L1605.48,2352.25 L1605.43,2352.17 L1605.2,2351.78 L1604.82,2351.41 L1604.28,2351.11 L1603.58,2350.94 L1603,2350.91 L1602.85,2350.9 L1602.53,2350.89 L1602.06,2350.67 L1601.33,2350.2 L1600.91,2349.97 L1600.73,2349.87 L1600.45,2349.75 M1845.51,1194.25 L1845.14,1127.78 L1839.9,1125.26 L1807.29,1125.38 L1807.21,1120.46 L1797.33,1120.5 L1786.13,1114.53 L1769.27,1134.76 L1740.86,1129.15 L1740.26,1124.5 L1721.07,1134.64 L1720.95,1199.94 L1845.51,1194.25"/>
  </g>
  <g stroke-linejoin="bevel" transform="matrix(0.999744,0,0,0.999744,0,0)" fill="none" stroke="#000000" stroke-width="1" font-weight="400" stroke-opacity="1" font-family="MS Shell Dlg 2" stroke-linecap="square" font-size="34.5833" font-style="normal"/>
  <g stroke-linejoin="bevel" transform="matrix(11.808,0,0,11.808,0,0)" fill="none" stroke="#000000" stroke-width="1" font-weight="400" stroke-opacity="1" font-family="MS Shell Dlg 2" stroke-linecap="square" font-size="34.5833" font-style="normal"/>
  <g stroke-linejoin="bevel" transform="matrix(11.808,0,0,11.808,0,0)" fill="none" stroke="#000000" stroke-width="1" font-weight="400" stroke-opacity="1" font-family="MS Shell Dlg 2" stroke-linecap="square" font-size="34.5833" font-style="normal"/>
  <g stroke-linejoin="bevel" transform="matrix(11.808,0,0,11.808,0,0)" fill="none" stroke="#000000" stroke-width="1" font-weight="400" stroke-opacity="1" font-family="MS Shell Dlg 2" stroke-linecap="square" font-size="34.5833" font-style="normal"/>
  <g stroke-linejoin="bevel" transform="matrix(1,0,0,1,0,0)" fill="none" stroke="#000000" stroke-width="1" font-weight="400" stroke-opacity="1" font-family="MS Shell Dlg 2" stroke-linecap="square" font-size="34.5833" font-style="normal"/>
  <g stroke-linejoin="bevel" transform="matrix(11.808,0,0,11.808,0,0)" fill="none" stroke="#000000" stroke-width="1" font-weight="400" stroke-opacity="1" font-family="MS Shell Dlg 2" stroke-linecap="square" font-size="34.5833" font-style="normal"/>
  <g stroke-linejoin="bevel" transform="matrix(11.808,0,0,11.808,0,0)" fill="none" stroke="#000000" stroke-width="1" font-weight="400" stroke-opacity="1" font-family="MS Shell Dlg 2" stroke-linecap="square" font-size="34.5833" font-style="normal"/>
  <g stroke-linejoin="bevel" transform="matrix(11.808,0,0,11.808,0,0)" fill="none" stroke="#000000" stroke-width="1" font-weight="400" stroke-opacity="1" font-family="MS Shell Dlg 2" stroke-linecap="square" font-size="34.5833" font-style="normal"/>
  <g stroke-linejoin="bevel" transform="matrix(11.808,0,0,11.808,0,0)" fill="none" stroke="#000000" stroke-width="1" font-weight="400" stroke-opacity="1" font-family="MS Shell Dlg 2" stroke-linecap="square" font-size="34.5833" font-style="normal"/>
  <g stroke-linejoin="bevel" transform="matrix(1,0,0,1,0,0)" fill="none" stroke="#000000" stroke-width="1" font-weight="400" stroke-opacity="1" font-family="MS Shell Dlg 2" stroke-linecap="square" font-size="34.5833" font-style="normal"/>
 </g>
</svg>
