<?xml version='1.0' encoding='UTF-8' standalone='no'?>
<svg xmlns:xlink="http://www.w3.org/1999/xlink" baseProfile="tiny" xmlns="http://www.w3.org/2000/svg" height="249.936mm" viewBox="0 0 2952 2952" width="249.936mm" version="1.2">
 <title>Qt SVG Document</title>
 <desc>Generated with Qt</desc>
 <defs/>
 <g stroke-width="1" fill-rule="evenodd" fill="none" stroke-linejoin="bevel" stroke-linecap="square" stroke="black">
  <g stroke-width="1" transform="matrix(1,0,0,1,0,0)" stroke-opacity="1" font-size="34.5833" fill="none" stroke-linejoin="bevel" font-style="normal" stroke-linecap="square" stroke="#000000" font-family="MS Shell Dlg 2" font-weight="400"/>
  <g stroke-width="1" transform="matrix(1,0,0,1,0,0)" stroke-opacity="1" font-size="34.5833" fill="none" stroke-linejoin="bevel" font-style="normal" stroke-linecap="square" stroke="#000000" font-family="MS Shell Dlg 2" font-weight="400"/>
  <g stroke-width="1" transform="matrix(11.808,0,0,11.808,0,0)" stroke-opacity="1" font-size="34.5833" fill="none" stroke-linejoin="bevel" font-style="normal" stroke-linecap="square" stroke="#000000" font-family="MS Shell Dlg 2" font-weight="400"/>
  <g stroke-width="1" transform="matrix(0.999744,0,0,0.999744,0,0)" stroke-opacity="1" font-size="34.5833" fill="none" stroke-linejoin="bevel" font-style="normal" stroke-linecap="square" stroke="#000000" font-family="MS Shell Dlg 2" font-weight="400"/>
  <g transform="matrix(0.999744,0,0,0.999744,0,0)" font-size="34.5833" fill-opacity="0" fill="#ffffff" font-style="normal" stroke="none" font-family="MS Shell Dlg 2" font-weight="400">
   <path fill-rule="evenodd" vector-effect="none" d="M-2,-2 L2955,-2 L2955,2955 L-2,2955 L-2,-2"/>
  </g>
  <g stroke-width="1" transform="matrix(0.999744,0,0,0.999744,0,0)" stroke-opacity="1" font-size="34.5833" fill="none" stroke-linejoin="bevel" font-style="normal" stroke-linecap="square" stroke="#000000" font-family="MS Shell Dlg 2" font-weight="400"/>
  <g stroke-width="1" transform="matrix(11.808,0,0,11.808,0,0)" stroke-opacity="1" font-size="34.5833" fill="none" stroke-linejoin="bevel" font-style="normal" stroke-linecap="square" stroke="#000000" font-family="MS Shell Dlg 2" font-weight="400"/>
  <g stroke-width="1" transform="matrix(11.808,0,0,11.808,0,0)" stroke-opacity="1" font-size="34.5833" fill="none" stroke-linejoin="bevel" font-style="normal" stroke-linecap="square" stroke="#000000" font-family="MS Shell Dlg 2" font-weight="400"/>
  <g stroke-width="1" transform="matrix(11.808,0,0,11.808,0,0)" stroke-opacity="1" font-size="34.5833" fill="none" stroke-linejoin="bevel" font-style="normal" stroke-linecap="square" stroke="#000000" font-family="MS Shell Dlg 2" font-weight="400"/>
  <g stroke-width="1" transform="matrix(11.808,0,0,11.808,0,0)" stroke-opacity="1" font-size="34.5833" fill="none" stroke-linejoin="bevel" font-style="normal" stroke-linecap="square" stroke="#000000" font-family="MS Shell Dlg 2" font-weight="400"/>
  <g stroke-width="1" transform="matrix(11.808,0,0,11.808,0,0)" stroke-opacity="1" font-size="34.5833" fill="none" stroke-linejoin="bevel" font-style="normal" stroke-linecap="square" stroke="#000000" font-family="MS Shell Dlg 2" font-weight="400"/>
  <g transform="matrix(11.808,0,0,11.808,0,0)" font-size="34.5833" fill-opacity="0" fill="#ffffff" font-style="normal" stroke="none" font-family="MS Shell Dlg 2" font-weight="400">
   <path fill-rule="evenodd" vector-effect="none" d="M0,0 L250,0 L250,250 L0,250 L0,0"/>
  </g>
  <g stroke-width="1" transform="matrix(11.808,0,0,11.808,0,0)" stroke-opacity="1" font-size="34.5833" fill="none" stroke-linejoin="bevel" font-style="normal" stroke-linecap="square" stroke="#000000" font-family="MS Shell Dlg 2" font-weight="400"/>
  <g stroke-width="1" transform="matrix(11.808,0,0,11.808,0,0)" stroke-opacity="1" font-size="34.5833" fill="none" stroke-linejoin="bevel" font-style="normal" stroke-linecap="square" stroke="#000000" font-family="MS Shell Dlg 2" font-weight="400"/>
  <g transform="matrix(0.999744,0,0,0.999744,0,0)" font-size="34.5833" fill-opacity="0" fill="#000000" font-style="normal" stroke="none" font-family="MS Shell Dlg 2" font-weight="400">
   <rect x="0" height="2953" width="2953" y="0"/>
  </g>
  <g stroke-width="1" transform="matrix(0.999744,0,0,0.999744,0,0)" stroke-opacity="1" font-size="34.5833" fill="none" stroke-linejoin="bevel" font-style="normal" stroke-linecap="square" stroke="#000000" font-family="MS Shell Dlg 2" font-weight="400"/>
  <g stroke-width="3.07087" transform="matrix(0.999744,0,0,0.999744,0,0)" stroke-opacity="1" font-size="34.5833" fill-opacity="1" fill="#c5c5c5" stroke-linejoin="bevel" font-style="normal" stroke-linecap="square" stroke="#5c5c5c" font-family="MS Shell Dlg 2" font-weight="400">
   <path fill-rule="evenodd" vector-effect="none" d="M1561.87,2218.87 L1561.87,2225.81 L1560.3,2236.09 L1562.65,2249.93 L1561.48,2262.58 L1560.3,2268.91 L1567.45,2275.27 L1570.56,2282.12 L1570.9,2298.96 L1574.43,2313.2 L1574.43,2327.04 L1573.26,2337.71 L1567.76,2346.81 L1555.59,2360.65 L1552.45,2365.79 L1552.45,2377.65 L1553.62,2385.16 L1548.52,2394.65 L1543.41,2401.37 L1539.49,2404.14 L1533.6,2404.53 L1528.88,2404.53 L1527.31,2403.35 L1530.06,2395.44 L1530.85,2389.51 L1528.88,2385.16 L1518.68,2387.53 L1508.07,2393.86 L1498.65,2399 L1489.62,2402.56 L1480.19,2400.97 L1471.56,2400.58 L1465.27,2400.97 L1456.63,2411.65 L1447.21,2422.72 L1436.61,2429.44 L1425.61,2436.95 L1422.08,2442.88 L1420.51,2453.95 L1422.47,2467 L1426.01,2475.7 L1432.25,2486.38 L1432.06,2496.11 L1434.56,2504.47 L1427.97,2514.84 L1421.69,2519.98 L1418.54,2528.68 L1420.12,2539.35 L1415.8,2546.86 L1410.3,2550.42 L1403.62,2549.23 L1390.27,2548.05 L1379.28,2549.23 L1367.5,2555.16 L1357.68,2557.54 L1345.51,2557.14 L1332.16,2555.56 L1318.81,2557.14 L1305.85,2565.84 L1294.07,2576.91 L1282.29,2592.33 L1266.19,2599.44 L1253.62,2618.02 L1252.05,2630.28 L1261.87,2646.48 L1270.51,2657.55 L1277.18,2674.55 L1285.82,2690.76 L1290.14,2703.41 L1296.82,2715.66 L1301.14,2727.92 L1301.53,2742.54 L1305.06,2756.38 L1314.09,2764.68 L1318.81,2772.98 L1323.95,2777.22 L1312.04,2772.08 L1273.23,2754.76 L1245.48,2741.58 L1238.35,2737.96 L1153.13,2700.05 L1139.22,2694.42 L1112.85,2682.69 L1098.65,2677.39 L1060.44,2661.56 L1046.82,2656.1 L1029.68,2648.07 L1027.23,2647.78 L992.183,2633.15 L976.685,2624.72 L955.527,2615.39 L936.09,2607.09 L913.02,2596.21 L882.686,2583.17 L799.146,2546.01 L751.829,2526.14 L720.415,2512.5 L661.319,2488.09 L616.358,2470.59 L586.22,2458.04 L532.032,2437.78 L525.062,2435.01 L524.08,2432.84 L521.823,2430.56 L514.853,2427.2 L507.915,2424.29 L504.781,2423.32 L502.523,2421.94 L500.265,2420.85 L497.516,2418.48 L496.437,2416.41 L495.571,2412.93 L494.728,2412.08 L492.765,2410.99 L488.855,2407.6 L486.914,2406.22 L486.424,2405.34 L486.031,2403.65 L486.031,2402.37 L482.301,2399.7 L478.472,2396.64 L479.061,2394.56 L480.632,2393.57 L481.908,2392.19 L482.188,2389.13 L480.887,2386.68 L479.12,2383.71 L473.896,2377.26 L470.166,2369.87 L467.09,2365.6 L465.061,2363.65 L451.044,2352.08 L450.847,2348.22 L447.117,2345.36 L446.921,2343.08 L447.117,2341.6 L444.172,2339.13 L442.11,2337.75 L439.754,2334.98 L438.675,2332.8 L439.067,2331.12 L438.871,2326.87 L436.024,2321.14 L434.159,2318.27 L435.239,2316.59 L437.398,2315.31 L438.38,2308.58 L439.853,2307.3 L440.804,2304.89 L445.955,2298.49 L448.786,2296.62 L450.258,2294.35 L451.535,2294.05 L453.648,2292.13 L470.964,2271.54 L475.382,2267.91 L477.891,2265.56 L479.512,2259.75 L480.69,2257.48 L480.887,2253.62 L480.041,2249.74 L481.672,2237.01 L480.887,2232.66 L481.672,2226.73 L483.046,2220.31 L481.672,2216.95 L482.359,2213.88 L483.439,2211.8 L485.01,2211.11 L487.857,2210.42 L488.914,2207.94 L489.427,2205.08 L488.936,2200.63 L489.231,2198.46 L487.831,2191.77 L486.359,2189.06 L481.868,2181.75 L478.629,2174.53 L472.837,2159.51 L466.26,2140.82 L460.173,2127.97 L453.302,2115.31 L440.638,2095.94 L435.042,2085.16 L426.6,2070.82 L417.569,2054.81 L408.734,2041.16 L403.04,2031.18 L395.285,2021.68 L384.682,2011.99 L375.651,2004.97 L362.202,1995.58 L348.262,1986.49 L315.867,1966.91 L292.11,1952.97 L249.795,1929.99 L248.524,1928.15 L240.517,1924.98 L241.947,1920.34 L241.947,1917.17 L241.358,1915.29 L240.082,1913.02 L237.627,1910.25 L237.038,1907.78 L238.118,1906.29 L238.315,1904.42 L237.824,1901.94 L235.271,1899.08 L232.915,1894.82 L228.968,1890.14 L224.125,1886.12 L216.991,1879.27 L212.345,1873.99 L208.549,1869.18 L202.921,1864.04 L188.915,1854.22 L172.292,1844.46 L155.669,1835.95 L138.796,1827.63 L140.58,1826.69 L143.275,1826.35 L148.019,1824.55 L153.08,1822.31 L162.421,1819.68 L164.404,1819.71 L165.317,1820.15 L173.805,1819.87 L177.295,1820.57 L182.565,1820.39 L188.943,1819.55 L193.294,1818.31 L196.933,1816.64 L201.6,1815.01 L208.094,1813.77 L210.63,1813.47 L215.704,1813.97 L217.253,1814.56 L218.922,1815.72 L220.933,1818.01 L223.004,1819.77 L225.705,1821.21 L227.132,1821.64 L231.572,1821.37 L235.095,1820.39 L244.303,1815.23 L246.154,1813.2 L247.213,1811.31 L247.367,1810.34 L247.125,1809.37 L246.622,1803.98 L246.688,1801.52 L247.153,1799.18 L250.335,1793.97 L253.765,1790.48 L260.511,1784.52 L261.777,1783.83 L265.619,1783.29 L274.17,1781.07 L281.998,1777.6 L288.596,1773.22 L290.455,1772.32 L295.164,1771.05 L298.574,1771.11 L300.607,1771.59 L304.738,1773.1 L309.293,1772.67 L315.234,1771.63 L317.769,1771.58 L320.745,1771.97 L323.482,1772.84 L329.244,1775.59 L331.117,1777.35 L332.514,1779.23 L334.066,1780.68 L335.336,1781.11 L337.754,1780.86 L339.539,1781.01 L342.097,1781.56 L343.841,1781.35 L345.502,1780.74 L346.407,1779.53 L347.191,1777.83 L347.655,1776.05 L347.482,1772.91 L347.666,1770.21 L347.149,1770.01 L345.771,1763.62 L345.208,1762.37 L343.678,1757.14 L340.623,1748.9 L332.017,1732.23 L331.37,1730.13 L326.343,1723.27 L321.675,1717.33 L314.356,1709.79 L312.043,1707.15 L310.363,1704.21 L307.359,1697.84 L307.343,1695.18 L308.591,1691.22 L309.298,1689.81 L310.365,1689.04 L312.065,1688.39 L314.563,1688.57 L318.691,1689.68 L320.957,1690.72 L325.839,1692.26 L328.782,1694.26 L329.97,1694.14 L332.985,1694.36 L335.402,1694.23 L339.443,1693.44 L346.487,1691.43 L347.675,1691.43 L351.237,1690.16 L352.738,1689.14 L353.643,1687.97 L353.877,1686.88 L355.181,1686.19 L355.887,1684.66 L356.11,1681.84 L355.78,1679.42 L354.93,1676.08 L354.193,1671.39 L353.101,1666.96 L352.323,1662.33 L351.91,1658.59 L351.853,1655.72 L352.51,1652.29 L353.803,1648.94 L355.651,1645.99 L358.212,1643.2 L363.583,1639.02 L365.797,1638.16 L368.017,1637.95 L371.389,1638.25 L375.396,1639.16 L380.517,1640.79 L386.714,1643.53 L389.217,1644.33 L389.539,1645.21 L391.167,1645.48 L394.107,1647.4 L394.979,1647.32 L395.535,1647.51 L397.87,1646.78 L398.582,1645.97 L399.592,1645.97 L401.132,1645.07 L402.196,1643.9 L403.255,1641.84 L403.956,1639.14 L404.727,1634.74 L406.707,1619.22 L406.756,1613.13 L406.454,1607.86 L406.88,1606.16 L407.901,1603.86 L409.314,1601.6 L415.734,1593.03 L419.681,1589.55 L424.898,1586.62 L426.202,1585.57 L428.061,1584.87 L429.838,1583.69 L433.537,1582.38 L438.48,1579.78 L440.897,1579.53 L442.682,1579.92 L444.828,1580.88 L445.859,1580.95 L447.135,1582.11 L448.048,1582.51 L448.964,1583.23 L452.177,1583.58 L453.799,1583.17 L455.615,1581.75 L457.744,1578.96 L465.299,1567.72 L469.425,1560.97 L471.749,1557.65 L474.43,1554.66 L475.649,1552.64 L477.585,1551.98 L478.652,1551.05 L479.675,1549.07 L479.972,1545.04 L479.428,1531.87 L479.145,1530.86 L479.301,1530.06 L478.603,1525.67 L478.226,1521.36 L478.168,1517.85 L478.352,1515.03 L478.927,1511.28 L479.783,1507.57 L481.13,1499.95 L482.046,1484.96 L482.981,1481.69 L488.468,1476.87 L490.053,1476.78 L491.2,1475.93 L491.915,1476.01 L492.55,1476.33 L493.895,1476 L494.888,1476.15 L495.598,1475.18 L496.31,1475.06 L496.029,1474.37 L496.332,1471.67 L496.324,1470.3 L496.126,1469.86 L496.277,1468.61 L496.747,1467.52 L496.819,1466.19 L495.295,1462.61 L492.462,1459.16 L481.865,1448.78 L473.495,1440.16 L468.797,1436.15 L464.265,1433.84 L463.266,1432.47 L462.741,1430.3 L462.763,1426.96 L463.492,1422.2 L464.961,1414.78 L466.132,1411.31 L466.878,1409.77 L469.161,1406.05 L473.528,1399.66 L478.539,1395.08 L484.769,1388.08 L487.533,1385.89 L490.064,1384.63 L491.967,1384.38 L495.655,1384.44 L521.094,1389.39 L524.345,1389.13 L534.406,1387.18 L537.654,1387 L541.463,1387.47 L545.793,1388.61 L551.236,1390.84 L554.971,1392.92 L558.037,1395.12 L564.066,1395.77 L571.014,1397.35 L573.313,1397.3 L575.808,1396.64 L579.199,1392.63 L579.79,1392.39 L580.61,1389.69 L580.954,1386.87 L580.33,1381.39 L579.276,1376.28 L579.018,1372.2 L578.613,1370.96 L579.111,1367.65 L579.062,1365.28 L577.733,1361.25 L576.839,1357.19 L576.405,1357.15 L575.607,1356.35 L575.123,1354.98 L574.006,1353.81 L573.685,1352.53 L573.957,1351.6 L575.219,1350.46 L576.685,1350.29 L577.398,1350.01 L578.074,1350.09 L579.059,1349.11 L579.65,1348.06 L580.261,1343.25 L579.735,1341.72 L578.338,1339.71 L577.574,1337.38 L577.607,1336.17 L578.715,1335.76 L579.265,1334.79 L579.537,1333.62 L579.532,1332.65 L578.974,1331.81 L576.303,1329.29 L576.138,1327.84 L574.628,1326.88 L574.521,1325.67 L575.225,1323.65 L573.709,1321.56 L571.319,1319.72 L569.562,1317.15 L570.876,1310.54 L572.692,1308.75 L574.18,1305.04 L575.442,1303.5 L577.34,1302.6 L578.993,1300.5 L579.774,1297.84 L579.843,1295.34 L579.353,1293.16 L578.313,1290.99 L576.157,1288.1 L575.442,1287.54 L571.63,1286.51 L570.83,1285.39 L567.81,1283.87 L567.876,1281.37 L566.597,1279.36 L565.697,1278.25 L565.175,1277.96 L564.451,1276.87 L563.568,1276.71 L563.288,1276.92 L561.649,1276.64 L560.447,1276.32 L559.803,1275.68 L559.281,1274.82 L559.113,1273.36 L557.903,1271.78 L558.329,1269.05 L558.689,1268.89 L559.289,1268.97 L559.765,1267.87 L559.6,1267.22 L559.283,1267.67 L558.838,1266.73 L558.398,1266.45 L558.23,1265.39 L558.871,1265.39 L558.587,1264.54 L558.065,1264.22 L557.575,1261.9 L556.087,1260.61 L555.521,1259.19 L553.912,1257.37 L553.868,1256.8 L553.386,1256.68 L553.1,1255.75 L552.416,1254.76 L551.656,1254.56 L551.093,1253.96 L550.245,1252.46 L549.484,1252.05 L548.879,1251.25 L548.713,1250.52 L547.311,1249.99 L547.033,1250.12 L546.549,1249.27 L547.787,1248.73 L547.784,1248.28 L546.662,1248.21 L544.618,1247.08 L544.09,1245.74 L542.847,1244.97 L540.845,1242.4 L537.541,1239.92 L536.469,1237.64 L535.987,1237.36 L535.019,1235.98 L534.494,1235.13 L534.37,1234.19 L535.085,1232.81 L535.113,1230.61 L534.307,1229.64 L534.664,1229.27 L534.813,1227.04 L535.377,1227.32 L535.613,1226.95 L534.483,1224.68 L534.04,1224.36 L533.677,1223.67 L532.998,1223.63 L531.273,1222.75 L530.473,1222.67 L528.146,1221.87 L527.307,1221.95 L526.383,1220.94 L526.361,1219.18 L526.944,1216.96 L528.679,1215.06 L529.708,1214.77 L531.094,1214 L532.236,1212.46 L534.906,1207.61 L536.76,1205.38 L537.86,1203.37 L539.123,1202.26 L539.359,1201.65 L541.136,1200.48 L543.672,1199.78 L545.85,1199.48 L547.954,1199.68 L549.701,1200.15 L551.453,1201.31 L552.688,1202.39 L552.927,1203.12 L555.037,1204.52 L555.716,1205.56 L557.784,1206.92 L559.256,1207.48 L561.932,1209.72 L570.508,1211.41 L573.244,1211.52 L575.857,1211.26 L577.244,1210.73 L580.566,1208.74 L583.173,1206.71 L584.675,1206.22 L586.532,1204.35 L588.548,1202.94 L588.977,1202.17 L590.795,1200.5 L592.258,1199.53 L593.399,1197.87 L593.749,1196.46 L593.226,1194.97 L592.585,1193.77 L591.507,1192.36 L590.633,1191.84 L589.156,1190.16 L586.952,1185.71 L587.615,1183.45 L586.862,1183.29 L586.914,1178.33 L586.391,1176.77 L584.997,1175 L584.675,1174.19 L583.641,1173.39 L582.368,1172.83 L580.86,1172.6 L579.037,1172.61 L577.807,1172.9 L576.066,1173.71 L575.115,1173.68 L574.199,1173.32 L573.522,1172.52 L573.123,1171.75 L573.156,1170.99 L573.668,1170.14 L575.846,1169 L577.266,1167.74 L580.467,1165.91 L581.416,1164.82 L585.998,1161.69 L586.155,1160.97 L585.874,1160.4 L586.182,1158.91 L586.928,1157.21 L587.835,1155.96 L591.702,1152.35 L593.644,1151.98 L596.571,1150.67 L598.711,1150.22 L598.947,1149.7 L599.736,1148.85 L600.361,1147.23 L601.153,1146.7 L603.276,1146.98 L605.1,1146.81 L607.702,1145.79 L609.575,1144.35 L614.124,1142.01 L614.759,1141.16 L616.442,1139.69 L617.977,1138.7 L618.354,1138.05 L619.182,1135.75 L618.951,1133.51 L618.043,1132.17 L617.416,1130.25 L617.991,1129.37 L617.584,1128.03 L617.559,1127.12 L617.933,1126.06 L619.204,1124.08 L619.539,1123 L620.296,1122.63 L624.116,1121.76 L625.491,1121 L625.808,1120.49 L625.885,1119.62 L625.194,1117.81 L625.329,1116.51 L625.546,1116.34 L625.599,1114.71 L626.391,1113.18 L626.429,1112.41 L626.022,1111.13 L626.017,1110.13 L627.232,1109.37 L629.1,1106.49 L629.518,1105.25 L630.86,1104.07 L631.806,1102.65 L633.113,1102.37 L634.499,1101.71 L635.167,1100.9 L635.599,1099.89 L636.113,1099.45 L637.054,1097.31 L637.359,1094.93 L637.786,1093.27 L637.97,1090.49 L638.603,1089.8 L638.913,1088.67 L638.869,1087.62 L639.381,1086.77 L639.337,1085.65 L638.413,1083.51 L635.726,1077.8 L635.288,1077.24 L635.043,1076.23 L634.166,1075.23 L633.963,1074.31 L633.404,1073.75 L635.379,1071.72 L635.495,1071.24 L636.677,1069.74 L637.225,1068.08 L638.011,1067.01 L638.996,1065.88 L640.973,1064.54 L641.05,1064.1 L642.351,1062.8 L643.297,1060.98 L643.446,1059.21 L644.191,1057.51 L644.461,1055.98 L644.373,1054.33 L646.337,1050.77 L646.334,1049.88 L645.655,1048.76 L645.209,1046.78 L644.01,1045.38 L642.063,1044.34 L641.383,1043.58 L639.562,1036.13 L639.351,1033.83 L639.656,1031.21 L640.203,1029.52 L643.196,1025.48 L644.816,1024.14 L647.228,1022.72 L653.678,1019.5 L656.329,1017.99 L657.748,1016.82 L658.659,1016.45 L660.644,1016.48 L661.401,1017.28 L662.713,1018 L663.593,1019.49 L663.917,1020.98 L662.839,1027.39 L661.67,1031.43 L661.673,1032.07 L661.205,1033.81 L660.259,1034.74 L660.144,1035.59 L660.867,1037.52 L664.256,1041.13 L666.085,1041.99 L669.657,1042.58 L671.404,1042.53 L674.218,1042.19 L677.345,1041.33 L683.085,1039.08 L684.774,1038.67 L688.184,1038.41 L689.535,1038.93 L690.451,1039.93 L690.816,1041.34 L691.333,1042.07 L692.489,1042.95 L694.318,1043.62 L695.429,1043.7 L697.093,1043.37 L698.76,1043.52 L698.801,1044.12 L698.331,1045.25 L697.151,1047.16 L695.693,1048.82 L692.527,1050.76 L691.62,1051.13 L690.869,1051.81 L690.074,1051.82 L689.048,1052.51 L687.857,1052.76 L684.18,1054.55 L683.311,1055.2 L682.161,1055.61 L681.289,1055.65 L681.171,1055.89 L678.874,1056.23 L678.717,1057.04 L677.372,1057.45 L677.375,1058.13 L677.097,1058.37 L677.304,1059.66 L678.624,1061.99 L679.421,1062.92 L679.983,1064.32 L680.582,1065.25 L681.856,1066.01 L683.206,1066.28 L685.346,1065.79 L687.917,1064.77 L700.146,1058.94 L702.957,1058 L705.251,1056.94 L707.027,1054.96 L707.913,1052.45 L708.064,1050.92 L708.017,1049.55 L707.415,1047.86 L706.678,1043.19 L706.821,1040.13 L708.246,1031.57 L708.394,1029.6 L708.87,1029.15 L708.359,1022.3 L707.709,1019.44 L707.267,1018.32 L708.876,1014.32 L709.23,1014.03 L711.29,1013.82 L712.437,1013.17 L713.67,1013.69 L716.368,1013.71 L717.553,1013.15 L718.703,1013.06 L719.377,1012.61 L720.565,1012.2 L721.236,1011.68 L721.351,1010.91 L722.54,1010.78 L723.09,1009.49 L723.28,1008.2 L722.988,1005.14 L723.698,1004.25 L724.528,1003.8 L724.525,1003.03 L723.887,1002.35 L723.092,1002.23 L723.018,1003.08 L722.661,1003.04 L722.259,1002.08 L722.413,1001.19 L722.053,1000.54 L722.21,1000.14 L722.922,999.774 L723.519,999.771 L724.424,998.798 L724.619,998.113 L725.958,996.372 L726.544,994.071 L728.244,993.459 L729.793,993.248 L730.623,993.406 L731.734,993.278 L733.159,992.546 L734.537,990.564 L735.783,987.872 L738.861,986.963 L739.419,986.37 L739.556,985.981 L739.295,985.516 L738.693,985.069 L738.649,984.177 L738.324,983.589 L737.177,982.538 L737.078,982.172 L735.871,981.263 L735.219,979.009 L735.494,977.93 L736.473,977.578 L737.516,977.817 L738.179,978.607 L738.418,978.219 L738.797,978.074 L739.4,978.457 L739.218,977.991 L739.435,977.706 L739.35,976.913 L739.73,976.566 L740.272,976.705 L741.787,975.906 L743.789,975.995 L745.11,975.807 L745.585,975.133 L747.002,974.088 L747.018,973.722 L747.28,973.519 L747.357,973.09 L746.93,971.872 L747.027,971.221 L747.266,970.996 L747.285,970.63 L747.703,970.547 L748.619,969.729 L748.66,969.363 L748.377,968.917 L747.876,969.164 L747.577,968.9 L747.016,968.945 L746.776,968.784 L746.831,967.847 L747.128,967.561 L747.068,967.298 L747.464,966.602 L747.359,965.526 L747.695,964.528 L746.809,963.699 L746.647,963.272 L745.643,962.465 L745.621,962.199 L744.777,961.351 L743.943,959.929 L743.19,959.61 L741.625,956.233 L740.901,953.937 L740.775,952.648 L741.088,951.517 L744.284,948.115 L747.329,946.529 L748.083,946.646 L748.88,947.164 L750.624,947.236 L751.972,947.07 L754.56,948.586 L754.882,949.554 L757.745,951.434 L759.222,953.081 L759.665,954.206 L759.552,955.617 L758.383,960.059 L758.507,960.824 L758.314,961.953 L759.321,965.094 L760.715,966.294 L763.458,967.65 L766.043,968.648 L774.14,969.934 L776.321,969.965 L780.166,969.544 L781.751,969.13 L784.372,969.28 L788.654,969.017 L792.463,969.28 L795.241,969.912 L797.109,970.589 L801.831,971.007 L803.418,970.758 L805.278,969.699 L807.489,967.836 L809.618,965.487 L811.859,961.404 L813.675,959.216 L816.161,956.704 L820.465,953.136 L823.194,951.47 L824.855,950.172 L824.971,949.607 L824.173,948.886 L824.489,948.561 L825.246,949.08 L826.706,947.461 L827.451,945.844 L829.11,944.184 L828.865,943.008 L828.466,942.284 L828.461,941.114 L829.124,938.977 L829.993,938.206 L830.265,937.316 L830.301,936.149 L832.721,931.871 L832.917,931.022 L834.061,929.567 L835.604,928.912 L836.035,928.064 L837.182,927.454 L841.223,925.982 L843.838,925.405 L844.625,924.271 L845.126,920.883 L846.19,919.627 L847.054,918.172 L848.047,918.047 L848.239,917.362 L848.08,916.597 L849.738,915.618 L851.482,914.925 L853.622,914.551 L855.687,914.986 L857.104,915.826 L863.179,917.367 L864.571,918.047 L867.041,919.968 L867.96,921.415 L870.226,922.25 L874.244,924.69 L875.757,925.974 L876.359,927.623 L876.483,928.591 L876.92,928.99 L877.124,929.836 L878.279,931 L879.473,931.84 L880.933,932.278 L881.489,932.636 L882.05,933.36 L882.963,933.839 L884.231,933.753 L885.738,933.221 L889.289,929.617 L890.202,929.409 L891.817,927.063 L895.769,924.099 L899.157,919.527 L900.186,918.837 L901.493,918.51 L902.876,917.212 L903.863,916.602 L904.691,915.468 L905.995,914.373 L907.222,913.805 L908.333,913.719 L911.433,914.792 L913.336,915.105 L914.884,915.138 L918.493,914.756 L927.69,909.712 L929.475,909.299 L932.363,907.713 L935.298,908.102 L936.687,907.855 L940.565,905.778 L942.067,904.602 L944.124,903.463 L945.783,901.921 L947.127,901.151 L950.642,898.151 L951.116,897.383 L954.589,893.859 L955.769,891.754 L958.146,890.737 L961.19,888.987 L963.844,887.886 L966.43,887.473 L969.516,887.737 L972.376,888.369 L975.944,887.908 L978.202,887.091 L980.215,885.549 L983.304,884.121 L984.962,882.865 L985.991,881.689 L988.246,880.63 L988.32,879.704 L989.506,879.053 L990.419,878.806 L991.684,877.711 L993.464,876.735 L994.531,875.803 L996.866,873.388 L998.775,870.452 L1000.53,869.262 L1000.53,868.733 L1001.8,866.856 L1001.56,866.168 L1002.11,865.392 L1002.26,863.806 L1002.02,863.318 L1001.33,862.746 L1001.28,860.168 L1001.51,859.561 L1001.51,858.834 L1000.91,858.072 L1000.91,857.024 L1000.55,856.258 L999.707,855.013 L998.233,853.852 L996.008,853.178 L993.898,851.736 L991.269,849.127 L990.667,848.043 L990.383,846.432 L990.455,844.535 L990.724,843.204 L991.709,841.746 L994.36,840.323 L995.868,840.196 L996.781,840.473 L996.863,840.956 L997.735,841.194 L999.044,841.025 L999.795,840.498 L1000.75,840.293 L1001.38,839.442 L1001.97,838.995 L1002.52,837.986 L1003.32,837.861 L1004.42,837.251 L1005.45,836.198 L1006.56,835.951 L1006.59,834.578 L1006.94,833.167 L1007.53,831.672 L1007.88,831.467 L1007.96,830.5 L1007.64,830.22 L1008.19,829.451 L1007.95,828.927 L1008.15,827.716 L1007.82,826.632 L1007.9,825.622 L1008.53,824.61 L1010.59,823.875 L1012.88,823.34 L1013.16,822.855 L1013.08,822.331 L1012.24,822.012 L1012.2,821.527 L1013.31,820.434 L1013.54,819.547 L1013.29,817.409 L1013.53,815.917 L1013.24,814.67 L1012.72,814.592 L1012.6,813.866 L1012.2,813.383 L1010.77,812.424 L1010.05,811.581 L1009.34,811.342 L1009.1,810.94 L1008.5,810.821 L1008.18,810.178 L1007.46,809.737 L1005.68,809.304 L1005.4,809.546 L1003.85,809.715 L1002.82,809.315 L1001.95,809.241 L1000.83,807.632 L1000.63,807.031 L999.589,805.705 L1000.02,805.095 L1000.97,804.649 L1001.21,803.842 L1002.39,802.184 L1002.38,800.65 L1003.41,799.58 L1004.04,799.256 L1004.35,797.237 L1006.76,794.686 L1009.92,793.421 L1012.26,792.723 L1013.81,792.393 L1018.45,792.007 L1020.42,789.539 L1020.69,787.926 L1021.2,787.56 L1022.02,784.363 L1021.94,782.99 L1020.78,782.552 L1020.78,781.989 L1021.41,781.462 L1021.09,780.738 L1021.25,779.687 L1022.07,778.273 L1022.98,777.583 L1023.58,777.821 L1024.17,776.934 L1024.68,775.276 L1024.43,774.23 L1024.11,773.909 L1024.02,771.408 L1024.77,770.673 L1025.32,769.741 L1025.19,767.606 L1023.8,767.129 L1023.52,766.525 L1022.45,766.125 L1022.08,765.537 L1022.16,764.52 L1022.96,764.27 L1023.4,763.741 L1026,761.844 L1027.23,761.353 L1030.99,760.61 L1032.66,759.955 L1035.63,759.337 L1037.41,759.168 L1038.25,759.326 L1042.66,761.239 L1046.63,761.744 L1047.11,761.5 L1050.56,761.603 L1052.18,761.231 L1053.01,760.704 L1055.19,760.211 L1058.16,757.496 L1063.3,751.179 L1063.18,750.253 L1063.73,748.597 L1063.68,747.266 L1063.99,745.813 L1064.5,744.682 L1066.28,743.382 L1067.67,743.135 L1069.77,743.124 L1071.8,743.395 L1072.99,743.11 L1074.2,743.143 L1074.83,742.899 L1076.37,742.849 L1077.99,740.342 L1079.89,738.277 L1080.43,737.14 L1080.84,735.362 L1080.73,733.105 L1081.52,731.621 L1081.99,731.646 L1082.04,731.405 L1081.7,731.244 L1081.88,730.706 L1084.17,728.222 L1085.23,727.384 L1085.85,726.122 L1087.09,724.961 L1087.78,724.661 L1088.41,723.153 L1089.86,722.581 L1090.57,721.985 L1092.58,721.844 L1093.34,721.3 L1093.82,721.272 L1094.63,720.005 L1096,718.599 L1096.77,718.544 L1097.17,718.73 L1100.33,717.612 L1101.46,716.719 L1102.96,714.803 L1103.69,713.428 L1104.43,713.209 L1105.12,712.696 L1105.17,712.13 L1104.37,711.353 L1104.97,709.39 L1105.34,708.982 L1105.44,707.746 L1104.59,707.643 L1104.46,707.349 L1104.77,706.298 L1104.42,705.386 L1104.21,705.011 L1103.57,704.878 L1103.76,704.634 L1102.49,704.293 L1101.96,703.811 L1101.59,703.275 L1101.37,701.903 L1101.81,700.208 L1101.75,699.188 L1102.84,695.661 L1104.34,693.34 L1104.68,693.204 L1105.37,692.233 L1105.49,691.265 L1104.75,690.866 L1104.3,689.818 L1103.79,684.014 L1104.11,683.742 L1105.09,683.764 L1105.14,683.013 L1104.5,682.935 L1100.25,678.412 L1097.98,674.954 L1097.77,673.986 L1097.47,673.664 L1097.43,671.005 L1097.75,669.469 L1098.06,669.092 L1098.95,666.776 L1099.58,665.83 L1099.6,665.453 L1101.34,663.698 L1103.87,661.698 L1110.11,654.729 L1111.22,654.053 L1112.38,652.755 L1114.83,651.454 L1116.89,651.149 L1121.75,649.754 L1123.76,648.831 L1125.08,647.774 L1127.45,646.39 L1128.48,645.095 L1129.08,643.964 L1134.2,641.008 L1140.18,635.495 L1143.03,633.465 L1144.6,630.958 L1144.96,629.369 L1144.91,627.89 L1144.39,625.741 L1143.3,623.406 L1143.53,621.764 L1143.95,621.684 L1143.6,621.121 L1144.51,618.023 L1145.38,616.406 L1145.8,616.295 L1146.35,614.626 L1146.67,614.249 L1146.8,613.683 L1147.17,613.359 L1147.27,612.579 L1147.53,612.335 L1149.02,607.92 L1149.57,607.163 L1149.89,607.027 L1149.99,606.65 L1151.18,605.785 L1151.78,604.975 L1152.01,604.113 L1153.36,602.493 L1153.49,602.008 L1154.85,600.011 L1156.75,598.524 L1157.59,597.016 L1157.99,596.663 L1157.96,596.286 L1159.83,595.282 L1163,594.486 L1164.06,594.456 L1165.25,593.912 L1167.99,591.372 L1170.23,589.935 L1171.5,589.553 L1172.34,588.851 L1173.08,588.524 L1174.26,586.663 L1175.29,586.094 L1178.54,585.54 L1180.21,584.43 L1181.66,583.077 L1182.7,579.927 L1184.43,577.015 L1184.98,576.449 L1185.27,574.754 L1183.15,574.116 L1182.56,573.662 L1181.68,571.057 L1181.83,569.551 L1182.51,567.746 L1184.01,565.749 L1184.98,565.181 L1189.17,565.378 L1189.96,565.103 L1191.91,565.095 L1193.37,564.604 L1195.08,563.494 L1198.9,560.302 L1199.27,559.492 L1200.09,558.522 L1202.3,556.358 L1202.43,555.74 L1203.53,554.498 L1203.66,553.879 L1205.32,552.232 L1207.27,550.878 L1208.93,547.778 L1209.08,546.457 L1209.55,546.322 L1210.47,545.079 L1210.76,543.975 L1211.31,542.952 L1211.79,542.869 L1213.02,540.819 L1213.55,540.736 L1213.76,540.009 L1214.45,539.737 L1214.57,539.091 L1214.89,538.739 L1214.81,537.824 L1213.37,536.676 L1212.73,535.899 L1212.2,534.371 L1212.4,533.697 L1212.03,532.865 L1212.19,532.191 L1211.97,531.681 L1212.65,529.581 L1213.84,528.524 L1214.1,527.906 L1214.57,527.823 L1216.08,526.741 L1217.37,526.278 L1217.95,526.167 L1219.04,526.458 L1219.54,526.4 L1225.77,528.766 L1227.68,529.858 L1229.33,531.248 L1230.12,531.542 L1230.81,531.511 L1234.64,529.745 L1234.88,529.393 L1235.83,529.013 L1237.54,526.988 L1240.33,524.556 L1240.75,523.774 L1241.62,522.989 L1243.04,521.935 L1244.31,521.657 L1245.66,521.949 L1250.56,522.248 L1251.46,522.864 L1252.15,522.994 L1252.34,522.722 L1253.69,523.122 L1254.19,523.493 L1257.1,524.287 L1258.56,524.12 L1259.91,524.248 L1262.29,524.908 L1264.23,526.164 L1266.24,526.666 L1268.91,525.013 L1270.42,525.03 L1272.48,524.214 L1272.71,523.89 L1274.01,523.615 L1275.38,522.695 L1276.57,522.367 L1278.84,520.501 L1282.8,518.493 L1285.72,514.876 L1287.2,514.491 L1287.88,513.897 L1290.23,512.649 L1290.36,512.3 L1292.24,511.16 L1292.97,510.486 L1293.69,510.616 L1297.46,508.958 L1300.34,508.273 L1301.35,508.214 L1302.46,507.427 L1302.96,507.318 L1303.51,506.805 L1305.2,506.314 L1306.23,505.474 L1306.97,505.765 L1308.06,504.983 L1309.16,504.625 L1310.69,503.436 L1310.82,502.953 L1314.23,501.619 L1314.79,501.588 L1314.78,500.917 L1316.21,499.403 L1317.24,499.236 L1317.69,498.726 L1319.96,497.988 L1321.23,497.337 L1321.78,496.69 L1322.81,496.36 L1325.29,494.574 L1326.39,493.332 L1327.16,493.06 L1329.95,491.351 L1330.96,491.751 L1331.62,491.318 L1334.89,488.558 L1335.21,487.965 L1336,487.696 L1337.29,486.667 L1337.58,486.098 L1338.42,485.424 L1339,485.286 L1339.29,484.531 L1340.48,483.208 L1340.89,482.157 L1341.66,481.455 L1342.15,479.999 L1344.28,477.356 L1345.52,476.086 L1345.95,475.922 L1346.26,475.328 L1350.67,472.43 L1352.8,470.43 L1354.41,469.618 L1356.26,469.016 L1357.18,467.829 L1358.06,465.333 L1360.42,462.148 L1361.74,459.83 L1363.58,457.669 L1365.26,455.994 L1370.17,453.228 L1373.23,450.15 L1375.28,447.451 L1377.16,442.544 L1379.67,434.251 L1380.72,432.418 L1382.09,431.012 L1383.3,430.684 L1385.05,430.89 L1388.18,432.329 L1390.51,433.07 L1392.73,433.009 L1397.75,431.261 L1404.67,426.981 L1405.14,425.797 L1403.85,421.875 L1403.79,419.992 L1404,418.916 L1405.15,417.673 L1404.98,415.254 L1402.46,406.389 L1401.33,403.813 L1401.91,401.66 L1402.85,399.341 L1403.9,398.637 L1405.33,398.31 L1406.66,398.731 L1407.98,399.585 L1412.51,405.105 L1415.33,408.159 L1416.97,409.604 L1418.04,410.836 L1419.04,411.102 L1421.05,410.553 L1422.95,409.737 L1423.53,408.12 L1423.41,405.649 L1422.82,404.198 L1420.48,401.411 L1420.21,400.068 L1420.63,398.29 L1422.26,396.618 L1424.53,395.208 L1427.54,393.955 L1431.77,392.862 L1435.16,392.307 L1440.28,391.852 L1443.67,391.248 L1445.15,390.488 L1446.89,388.865 L1450.63,386.319 L1453.53,383.509 L1456.07,382.582 L1458.34,382.627 L1460.62,383.206 L1462.21,383.201 L1464.65,382.813 L1467.19,383.553 L1468.72,383.492 L1469.73,382.521 L1470.3,381.012 L1470.23,377.892 L1469.95,373.806 L1469.05,372.572 L1468.24,371.016 L1467.65,368.813 L1467.96,367.091 L1469.54,364.017 L1471.85,361.316 L1477.39,355.965 L1480.34,353.693 L1482.55,351.638 L1485.77,347.751 L1488.3,347.954 L1490.11,348.592 L1493.98,349.541 L1494.72,349.43 L1500.57,344.403 L1504.47,339.757 L1510.15,331.716 L1512.26,329.394 L1515.88,323.999 L1518.31,321.458 L1520.89,319.08 L1523.95,317.022 L1526.38,316.257 L1529.24,315.921 L1532.3,315.153 L1535.47,312.989 L1537.42,311.097 L1541.01,308.767 L1543.8,305.58 L1543.95,303.86 L1544.8,303.047 L1546.33,302.449 L1547.86,302.55 L1549.5,302.811 L1554.22,304.187 L1556.39,304.392 L1558.14,304.01 L1560.57,302.975 L1562.78,301.139 L1564.25,298.605 L1564.51,295.912 L1564.24,293.923 L1563.01,292.206 L1561.31,290.977 L1558.97,289.804 L1558.81,288.675 L1559.6,286.95 L1561.44,284.841 L1565.92,281.701 L1567.66,279.651 L1568.71,277.709 L1571.3,275.437 L1572.5,273.013 L1573.23,270.855 L1576.28,266.486 L1579.34,263.404 L1582.82,260.322 L1588.73,256.26 L1589.37,255.342 L1596.45,253.753 L1599.78,252.66 L1602.31,250.765 L1602.83,249.095 L1602.45,246.46 L1601.43,242.862 L1601.64,241.893 L1602.43,241.189 L1603.96,241.236 L1611.91,243.084 L1613.56,243.075 L1614.66,242.479 L1615.45,241.4 L1615.5,240.271 L1615.12,237.743 L1616.69,233.002 L1617.84,231.596 L1619.38,230.73 L1621.85,228.511 L1624.23,227.856 L1626.08,226.503 L1628.62,225.415 L1630.57,223.848 L1633.89,220.067 L1635.31,217.853 L1641.22,213.952 L1644.01,211.844 L1649.3,209.184 L1661.98,205.413 L1663.78,203.577 L1668.67,196.292 L1672.35,191.379 L1674.62,189.109 L1677.26,187.376 L1678.26,186.296 L1679.58,186.183 L1680.7,186.607 L1681.82,188.433 L1682.68,193.753 L1682.59,195.962 L1683.28,197.571 L1684.72,199.019 L1688.12,201.102 L1691.21,205.552 L1692.38,206.787 L1693.7,207.264 L1693.97,208.554 L1694.45,209.627 L1694.15,211.727 L1693.83,212.427 L1692.09,213.672 L1691.52,215.506 L1691.42,218.089 L1691.85,220.399 L1693.18,221.415 L1699.17,223.434 L1704.06,226.156 L1706.29,229.643 L1707.67,230.067 L1709.37,229.845 L1711.27,228.653 L1715.11,224.708 L1718.28,222.649 L1719.91,220.76 L1720.8,218.28 L1721.85,216.233 L1722.16,214.993 L1722.32,212.893 L1724.42,211.325 L1726.59,210.454 L1727.92,210.609 L1729.56,211.087 L1730.93,211.081 L1732.63,210.374 L1734.79,208.644 L1739.07,206.634 L1741.97,204.576 L1747.73,201.86 L1748.68,200.295 L1749.36,198.572 L1750.94,196.949 L1755.17,195.695 L1758.97,193.581 L1763.62,190.222 L1767.95,188.43 L1769.01,188.316 L1771.02,189.168 L1772.08,188.949 L1774.09,187.595 L1776.04,185.866 L1778.1,184.779 L1783,180.401 L1783.53,179.269 L1782.77,175.235 L1782.76,173.191 L1783.01,171.252 L1784.43,168.558 L1786.06,166.344 L1787.96,164.452 L1791.29,162.554 L1794.88,159.256 L1796.35,158.174 L1798.14,156.176 L1799.25,154.179 L1803.21,151.69 L1805.11,150.819 L1807.12,150.594 L1812.57,148.796 L1814.58,148.624 L1815.96,149.049 L1820.42,152.528 L1821.64,152.847 L1822.91,152.625 L1824.23,151.759 L1826.65,149.165 L1832.77,143.542 L1834.14,141.278 L1836.45,139.006 L1839.04,137.275 L1842.36,136.489 L1853.21,145.976 L1869.63,154.54 L1880.66,168.065 L1893.51,187.305 L1904.3,204.035 L1917.56,218.255 L1938.3,229.966 L1958.2,239.167 L1974.79,248.786 L1988.06,269.697 L1998.84,286.008 L2015.42,298.973 L2029.11,312.355 L2035.74,324.901 L2038.65,347.066 L2049.43,365.466 L2054.4,381.776 L2059.38,395.576 L2082.18,403.939 L2114.11,406.866 L2146.46,406.866 L2170.92,411.884 L2195.39,416.066 L2217.36,418.575 L2229.39,411.466 L2243.9,419.411 L2264.63,437.811 L2296.56,461.369 L2301.66,484.732 L2309.91,497.799 L2334.64,510.866 L2356.63,521.161 L2382.16,532.248 L2411.21,542.543 L2431.24,548.482 L2454.8,559.965 L2470.12,571.447 L2482.29,582.534 L2490.14,590.452 L2496.03,603.914 L2505.85,615 L2521.95,617.772 L2551.4,618.96 L2572.21,620.147 L2589.49,624.107 L2622.47,642.715 L2650.74,652.217 L2669.59,658.948 L2688.05,661.719 L2700.22,658.948 L2719.85,651.821 L2735.95,646.279 L2756.76,643.507 L2777.97,640.34 L2791.71,635.985 L2807.03,632.025 L2816.84,631.629 L2825.87,633.609 L2827.05,646.279 L2827.45,658.948 L2824.7,674.785 L2826.05,681.357 L2825.48,687.986 L2830.98,699.331 L2832.55,713.979 L2823.91,746.443 L2811.74,757.527 L2790.93,765.841 L2774.43,774.946 L2757.16,788.406 L2748.91,798.303 L2739.49,810.575 L2720.25,820.076 L2698.26,830.368 L2680.98,843.036 L2665.67,852.14 L2641.32,862.828 L2615.4,877.079 L2600.48,892.517 L2594.2,901.621 L2560.82,924.184 L2543.94,939.226 L2510.56,960.6 L2490.14,976.433 L2465.8,993.849 L2450.87,1009.29 L2407.68,1036.2 L2391.19,1048.07 L2376.27,1061.53 L2369.98,1063.51 L2362.92,1061.93 L2354.28,1066.68 L2338.57,1073.8 L2323.26,1082.11 L2313.05,1088.84 L2303.62,1087.26 L2289.49,1092.8 L2276.14,1105.86 L2267.1,1113.38 L2254.54,1120.11 L2245.12,1127.23 L2231.37,1135.54 L2225.48,1143.85 L2221.16,1153.75 L2210.17,1159.68 L2194.85,1170.37 L2187.39,1185.8 L2181.5,1196.09 L2172.47,1209.15 L2161.87,1223.4 L2150.09,1236.85 L2143.41,1245.56 L2141.06,1259.41 L2131.24,1266.14 L2120.64,1271.28 L2094.33,1268.91 L2084.91,1271.68 L2073.52,1277.22 L2066.45,1284.74 L2056.63,1292.65 L2047.21,1295.82 L2039.36,1290.67 L2023.65,1288.3 L2008.34,1293.44 L2001.27,1299.38 L2005.19,1305.71 L1994.59,1312.44 L1983.6,1314.81 L1965.14,1320.75 L1954.93,1326.68 L1949.43,1338.55 L1952.97,1352.01 L1949.04,1361.9 L1931.37,1370.6 L1916.84,1381.68 L1900.35,1387.22 L1887.39,1391.18 L1855.98,1401.86 L1840.67,1404.63 L1835.56,1413.73 L1829.28,1420.86 L1815.14,1428.37 L1799.04,1433.52 L1794.72,1441.04 L1786.48,1449.74 L1777.05,1458.84 L1768.41,1469.52 L1760.17,1477.44 L1749.57,1484.16 L1742.5,1495.64 L1729.54,1525.31 L1726.4,1537.58 L1711.87,1553.01 L1706.37,1560.52 L1700.48,1561.71 L1689.88,1552.21 L1680.85,1554.19 L1669.85,1555.77 L1662,1559.73 L1653.75,1556.57 L1644.72,1557.36 L1636.87,1562.1 L1630.19,1577.93 L1625.48,1581.89 L1612.92,1582.28 L1607.81,1585.05 L1617.24,1593.36 L1630.19,1599.29 L1640.01,1604.83 L1651.4,1608.39 L1659.64,1615.51 L1662.79,1629.76 L1665.14,1636.88 L1667.78,1647.16 L1663.96,1661.8 L1663.96,1674.86 L1659.64,1686.33 L1654.93,1692.26 L1650.22,1699.78 L1643.94,1707.69 L1637.65,1716.79 L1635.3,1728.66 L1643.54,1736.17 L1649.04,1744.48 L1652.97,1764.26 L1654.93,1778.89 L1647.86,1793.53 L1641.19,1802.63 L1630.59,1812.52 L1623.91,1825.57 L1615.67,1833.88 L1610.17,1842.58 L1607.42,1854.05 L1609.78,1874.62 L1606.63,1881.74 L1599.57,1891.23 L1598.39,1903.89 L1591.71,1926.43 L1589.75,1938.69 L1589.75,1949.77 L1585.04,1958.47 L1569.33,1971.92 L1564.23,1984.97 L1557.94,1995.65 L1553.62,2009.49 L1548.52,2017.79 L1537.92,2025.7 L1530.46,2032.03 L1527.71,2044.69 L1528.1,2062.88 L1528.1,2084.24 L1532.81,2096.5 L1546.05,2108.96 L1554.41,2119.43 L1572.86,2138.81 L1579.54,2144.74 L1584.64,2156.61 L1586.21,2164.52 L1591.32,2173.22 L1588.18,2180.33 L1581.11,2177.96 L1574.43,2174.8 L1564.23,2181.92 L1558.73,2184.68 L1557.55,2190.61 L1562.26,2200.11 L1561.87,2218.87"/>
  </g>
  <g stroke-width="1" transform="matrix(0.999744,0,0,0.999744,0,0)" stroke-opacity="1" font-size="34.5833" fill="none" stroke-linejoin="bevel" font-style="normal" stroke-linecap="square" stroke="#000000" font-family="MS Shell Dlg 2" font-weight="400"/>
  <g stroke-width="1" transform="matrix(11.808,0,0,11.808,0,0)" stroke-opacity="1" font-size="34.5833" fill="none" stroke-linejoin="bevel" font-style="normal" stroke-linecap="square" stroke="#000000" font-family="MS Shell Dlg 2" font-weight="400"/>
  <g stroke-width="1" transform="matrix(11.808,0,0,11.808,0,0)" stroke-opacity="1" font-size="34.5833" fill="none" stroke-linejoin="bevel" font-style="normal" stroke-linecap="square" stroke="#000000" font-family="MS Shell Dlg 2" font-weight="400"/>
  <g stroke-width="1" transform="matrix(11.808,0,0,11.808,0,0)" stroke-opacity="1" font-size="34.5833" fill="none" stroke-linejoin="bevel" font-style="normal" stroke-linecap="square" stroke="#000000" font-family="MS Shell Dlg 2" font-weight="400"/>
  <g stroke-width="1" transform="matrix(1,0,0,1,0,0)" stroke-opacity="1" font-size="34.5833" fill="none" stroke-linejoin="bevel" font-style="normal" stroke-linecap="square" stroke="#000000" font-family="MS Shell Dlg 2" font-weight="400"/>
  <g stroke-width="1" transform="matrix(11.808,0,0,11.808,0,0)" stroke-opacity="1" font-size="34.5833" fill="none" stroke-linejoin="bevel" font-style="normal" stroke-linecap="square" stroke="#000000" font-family="MS Shell Dlg 2" font-weight="400"/>
  <g stroke-width="1" transform="matrix(11.808,0,0,11.808,0,0)" stroke-opacity="1" font-size="34.5833" fill="none" stroke-linejoin="bevel" font-style="normal" stroke-linecap="square" stroke="#000000" font-family="MS Shell Dlg 2" font-weight="400"/>
  <g stroke-width="1" transform="matrix(11.808,0,0,11.808,0,0)" stroke-opacity="1" font-size="34.5833" fill="none" stroke-linejoin="bevel" font-style="normal" stroke-linecap="square" stroke="#000000" font-family="MS Shell Dlg 2" font-weight="400"/>
  <g stroke-width="1" transform="matrix(11.808,0,0,11.808,0,0)" stroke-opacity="1" font-size="34.5833" fill="none" stroke-linejoin="bevel" font-style="normal" stroke-linecap="square" stroke="#000000" font-family="MS Shell Dlg 2" font-weight="400"/>
  <g stroke-width="1" transform="matrix(1,0,0,1,0,0)" stroke-opacity="1" font-size="34.5833" fill="none" stroke-linejoin="bevel" font-style="normal" stroke-linecap="square" stroke="#000000" font-family="MS Shell Dlg 2" font-weight="400"/>
 </g>
</svg>
