<?xml version='1.0' encoding='UTF-8' standalone='no'?>
<svg xmlns:xlink="http://www.w3.org/1999/xlink" baseProfile="tiny" xmlns="http://www.w3.org/2000/svg" height="249.936mm" viewBox="0 0 2952 2952" width="249.936mm" version="1.2">
 <title>Qt SVG Document</title>
 <desc>Generated with Qt</desc>
 <defs/>
 <g stroke-width="1" fill-rule="evenodd" fill="none" stroke-linejoin="bevel" stroke-linecap="square" stroke="black">
  <g stroke-width="1" transform="matrix(1,0,0,1,0,0)" stroke-opacity="1" font-size="34.5833" fill="none" stroke-linejoin="bevel" font-style="normal" stroke-linecap="square" stroke="#000000" font-family="MS Shell Dlg 2" font-weight="400"/>
  <g stroke-width="1" transform="matrix(1,0,0,1,0,0)" stroke-opacity="1" font-size="34.5833" fill="none" stroke-linejoin="bevel" font-style="normal" stroke-linecap="square" stroke="#000000" font-family="MS Shell Dlg 2" font-weight="400"/>
  <g stroke-width="1" transform="matrix(11.808,0,0,11.808,0,0)" stroke-opacity="1" font-size="34.5833" fill="none" stroke-linejoin="bevel" font-style="normal" stroke-linecap="square" stroke="#000000" font-family="MS Shell Dlg 2" font-weight="400"/>
  <g stroke-width="1" transform="matrix(0.999744,0,0,0.999744,0,0)" stroke-opacity="1" font-size="34.5833" fill="none" stroke-linejoin="bevel" font-style="normal" stroke-linecap="square" stroke="#000000" font-family="MS Shell Dlg 2" font-weight="400"/>
  <g transform="matrix(0.999744,0,0,0.999744,0,0)" font-size="34.5833" fill-opacity="0" fill="#ffffff" font-style="normal" stroke="none" font-family="MS Shell Dlg 2" font-weight="400">
   <path fill-rule="evenodd" vector-effect="none" d="M-2,-2 L2955,-2 L2955,2955 L-2,2955 L-2,-2"/>
  </g>
  <g stroke-width="1" transform="matrix(0.999744,0,0,0.999744,0,0)" stroke-opacity="1" font-size="34.5833" fill="none" stroke-linejoin="bevel" font-style="normal" stroke-linecap="square" stroke="#000000" font-family="MS Shell Dlg 2" font-weight="400"/>
  <g stroke-width="1" transform="matrix(11.808,0,0,11.808,0,0)" stroke-opacity="1" font-size="34.5833" fill="none" stroke-linejoin="bevel" font-style="normal" stroke-linecap="square" stroke="#000000" font-family="MS Shell Dlg 2" font-weight="400"/>
  <g stroke-width="1" transform="matrix(11.808,0,0,11.808,0,0)" stroke-opacity="1" font-size="34.5833" fill="none" stroke-linejoin="bevel" font-style="normal" stroke-linecap="square" stroke="#000000" font-family="MS Shell Dlg 2" font-weight="400"/>
  <g stroke-width="1" transform="matrix(11.808,0,0,11.808,0,0)" stroke-opacity="1" font-size="34.5833" fill="none" stroke-linejoin="bevel" font-style="normal" stroke-linecap="square" stroke="#000000" font-family="MS Shell Dlg 2" font-weight="400"/>
  <g stroke-width="1" transform="matrix(11.808,0,0,11.808,0,0)" stroke-opacity="1" font-size="34.5833" fill="none" stroke-linejoin="bevel" font-style="normal" stroke-linecap="square" stroke="#000000" font-family="MS Shell Dlg 2" font-weight="400"/>
  <g stroke-width="1" transform="matrix(11.808,0,0,11.808,0,0)" stroke-opacity="1" font-size="34.5833" fill="none" stroke-linejoin="bevel" font-style="normal" stroke-linecap="square" stroke="#000000" font-family="MS Shell Dlg 2" font-weight="400"/>
  <g transform="matrix(11.808,0,0,11.808,0,0)" font-size="34.5833" fill-opacity="0" fill="#ffffff" font-style="normal" stroke="none" font-family="MS Shell Dlg 2" font-weight="400">
   <path fill-rule="evenodd" vector-effect="none" d="M0,0 L250,0 L250,250 L0,250 L0,0"/>
  </g>
  <g stroke-width="1" transform="matrix(11.808,0,0,11.808,0,0)" stroke-opacity="1" font-size="34.5833" fill="none" stroke-linejoin="bevel" font-style="normal" stroke-linecap="square" stroke="#000000" font-family="MS Shell Dlg 2" font-weight="400"/>
  <g stroke-width="1" transform="matrix(11.808,0,0,11.808,0,0)" stroke-opacity="1" font-size="34.5833" fill="none" stroke-linejoin="bevel" font-style="normal" stroke-linecap="square" stroke="#000000" font-family="MS Shell Dlg 2" font-weight="400"/>
  <g transform="matrix(0.999744,0,0,0.999744,0,0)" font-size="34.5833" fill-opacity="0" fill="#000000" font-style="normal" stroke="none" font-family="MS Shell Dlg 2" font-weight="400">
   <rect x="0" height="2953" width="2953" y="0"/>
  </g>
  <g stroke-width="1" transform="matrix(0.999744,0,0,0.999744,0,0)" stroke-opacity="1" font-size="34.5833" fill="none" stroke-linejoin="bevel" font-style="normal" stroke-linecap="square" stroke="#000000" font-family="MS Shell Dlg 2" font-weight="400"/>
  <g stroke-width="3.07087" transform="matrix(0.999744,0,0,0.999744,0,0)" stroke-opacity="1" font-size="34.5833" fill-opacity="1" fill="#c5c5c5" stroke-linejoin="bevel" font-style="normal" stroke-linecap="square" stroke="#5c5c5c" font-family="MS Shell Dlg 2" font-weight="400">
   <path fill-rule="evenodd" vector-effect="none" d="M2209.49,1517.38 L2206.15,1516 L2200.76,1516 L2194.61,1518.06 L2184.1,1518.06 L2183.84,1520.64 L2181.02,1522.96 L2177.51,1522.32 L2173.33,1520.38 L2167.43,1521.16 L2163.07,1523.22 L2158.46,1524.25 L2155.89,1520.9 L2154.36,1523.48 L2151.54,1526.83 L2146.15,1527.86 L2141.54,1530.18 L2138.14,1534.05 L2135.64,1536.37 L2133.31,1535.29 L2127.95,1531.21 L2120.26,1531.47 L2116.67,1536.63 L2112.82,1546.17 L2106.15,1551.07 L2100.51,1556.23 L2096.67,1562.93 L2093.08,1566.54 L2086.93,1569.64 L2085.39,1576.34 L2080.77,1584.08 L2077.95,1589.75 L2082.31,1591.81 L2081.03,1596.46 L2076.67,1596.71 L2070.61,1594.22 L2065.39,1593.88 L2066.23,1598.29 L2064.88,1604.71 L2062.06,1609.61 L2057.95,1613.99 L2060.52,1618.89 L2065.64,1621.98 L2065.9,1626.88 L2060.77,1630.75 L2060.52,1634.62 L2055.39,1637.97 L2051.8,1639 L2046.67,1642.1 L2047.7,1644.93 L2037.11,1652.73 L2032.86,1659.87 L2030.52,1665.56 L2031.55,1672.01 L2032.31,1680.52 L2030.78,1689.28 L2029.24,1694.18 L2030.01,1700.37 L2028.21,1707.59 L2027.74,1713.04 L2023.6,1721.25 L2021.03,1722.54 L2019.75,1719.71 L2018.22,1717.09 L2014.88,1713.52 L2013.6,1709.65 L2009.55,1705.57 L2005.65,1701.92 L2002.06,1696.24 L2001.37,1691.88 L2000.01,1686.96 L1997.19,1683.35 L1992.75,1680.21 L1990.52,1672.01 L1992.83,1668.66 L1996.42,1667.88 L1998.93,1668.13 L2002.06,1667.62 L1999.53,1664.04 L1996.68,1660.4 L1994.62,1654.22 L1991.8,1656.79 L1990.62,1660.67 L1988.47,1662.98 L1985.91,1659.89 L1981.29,1650.35 L1978.99,1644.93 L1976.95,1643.44 L1973.92,1644.85 L1968.47,1648.29 L1963.86,1649.32 L1957.19,1647.77 L1950.95,1639.34 L1946.65,1640.23 L1946.94,1642.61 L1945.4,1645.96 L1943.6,1642.87 L1940.78,1643.39 L1938.99,1644.42 L1935.66,1642.1 L1928.73,1637.97 L1926.94,1636.68 L1923.09,1635.65 L1920.27,1630.49 L1914.38,1627.4 L1906.17,1625.85 L1904.39,1622.41 L1904.12,1618.89 L1900.79,1619.15 L1900.53,1623.02 L1896.43,1623.79 L1891.56,1625.34 L1888.48,1629.2 L1886.17,1633.59 L1883.86,1635.13 L1877.97,1635.91 L1875.4,1639 L1874.12,1644.68 L1871.3,1647.77 L1868.22,1647.51 L1864.12,1644.42 L1859.25,1644.93 L1851.82,1646.74 L1847.2,1651.64 L1841.82,1654.99 L1839.63,1657.87 L1841.05,1659.89 L1843.87,1664.53 L1845.92,1669.69 L1847.46,1675.36 L1850.02,1681.55 L1844.12,1685.67 L1838.7,1687.32 L1836.95,1690.06 L1835.92,1697.28 L1840.28,1700.89 L1844.89,1701.4 L1849.23,1700.4 L1853.35,1700.89 L1856.4,1704.83 L1857.97,1707.59 L1856.69,1714.29 L1854.64,1718.68 L1848.23,1715.32 L1843.85,1714.08 L1839.63,1716.55 L1839,1721 L1839,1724.86 L1838.22,1728.58 L1832.84,1729.51 L1830.28,1732.6 L1826.95,1735.18 L1815.41,1737.76 L1813.61,1739.3 L1812.84,1746.52 L1811.05,1747.04 L1804.9,1747.3 L1799.26,1746.78 L1793.1,1746.78 L1787.21,1749.1 L1783.62,1749.87 L1780.03,1752.45 L1779,1755.8 L1779,1759.93 L1775.67,1763.02 L1776.69,1766.38 L1778.49,1768.18 L1774.9,1771.27 L1771.05,1770.76 L1768.75,1773.85 L1769.5,1779.06 L1766.95,1784.42 L1763,1786.3 L1759.52,1782.88 L1754.9,1782.62 L1750.54,1784.42 L1753.09,1788.63 L1751.76,1791.59 L1747.98,1794.74 L1751.01,1800.13 L1755.67,1802.99 L1757.72,1807.88 L1760.03,1814.07 L1762.08,1817.42 L1758.75,1818.45 L1758.75,1823.87 L1760.03,1829.28 L1762.85,1834.18 L1763.11,1842.17 L1759.57,1848.55 L1758.49,1851.71 L1748.23,1851.97 L1749.9,1854.34 L1753.62,1860.48 L1753.62,1866.41 L1751.05,1870.79 L1751.57,1873.63 L1755.67,1876.72 L1755.93,1882.39 L1751.82,1883.42 L1751.31,1880.59 L1749.52,1877.75 L1741.31,1882.39 L1743.36,1885.74 L1744.13,1889.35 L1743.11,1891.93 L1746.7,1900.95 L1750.73,1904.23 L1758.49,1904.82 L1758.75,1912.81 L1752.85,1913.07 L1746.7,1910.23 L1742.08,1911.26 L1738.49,1912.3 L1743.88,1917.45 L1747.98,1920.54 L1749.26,1924.67 L1747.21,1933.18 L1744.39,1938.07 L1743.32,1939.54 L1741.31,1944.78 L1738.75,1943.23 L1737.21,1931.37 L1735.93,1928.79 L1733.69,1928.12 L1733.19,1931.34 L1733.88,1945.81 L1730.54,1949.67 L1728.55,1953.01 L1726.7,1957.41 L1718.24,1956.89 L1712.6,1958.44 L1712.6,1961.27 L1715.42,1962.82 L1718.02,1962.18 L1720.8,1965.66 L1719.82,1970.01 L1716.44,1970.3 L1712.85,1973.13 L1714.9,1977 L1717.72,1981.64 L1719.01,1987.31 L1722.34,1990.15 L1727.47,1994.01 L1731.31,1999.17 L1736.7,2003.29 L1738.24,2008.71 L1733.88,2014.63 L1723.62,2015.15 L1722.08,2009.74 L1721.06,2003.03 L1718.75,2001.23 L1715.42,2004.58 L1713.88,2012.06 L1712.34,2017.99 L1712.6,2022.11 L1713.8,2026.84 L1715.16,2081.14 L1717.09,2082.96 L1720.8,2084.49 L1723.11,2086.81 L1727.21,2089.64 L1731.06,2090.42 L1733.88,2091.19 L1732.85,2094.03 L1737.21,2099.7 L1743.88,2109.23 L1745.93,2114.9 L1741.31,2119.28 L1742.08,2124.18 L1741.57,2128.82 L1738.24,2133.46 L1734.65,2132.69 L1731.06,2126.24 L1728.49,2125.99 L1724.9,2131.66 L1723.62,2136.04 L1723.88,2145.58 L1726.19,2150.47 L1724.9,2155.88 L1725.93,2166.45 L1723.36,2170.32 L1719.26,2174.44 L1716.44,2177.79 L1714.39,2177.79 L1709.52,2173.93 L1704.84,2173.84 L1696.96,2176.4 L1693.11,2180.78 L1691.32,2189.29 L1691.32,2197.02 L1688.24,2202.95 L1683.37,2205.01 L1675.93,2207.07 L1672.09,2209.13 L1670.55,2215.83 L1667.22,2226.4 L1662.34,2228.98 L1656.45,2235.16 L1658.24,2239.8 L1660.29,2242.64 L1660.29,2249.08 L1657.47,2254.75 L1645.87,2259.39 L1646.13,2262.7 L1649.52,2265.06 L1654.4,2265.83 L1655.93,2268.92 L1654.91,2275.11 L1648.04,2287.26 L1644.65,2292.63 L1643.37,2297.53 L1646.96,2298.82 L1648.5,2296.5 L1652.09,2296.24 L1653.37,2299.08 L1652.66,2306.09 L1656.96,2313.51 L1663.11,2321.24 L1666.7,2321.24 L1673.63,2323.56 L1681.83,2326.65 L1684.39,2328.2 L1676.45,2332.58 L1676.45,2336.7 L1679.01,2340.05 L1675.16,2354.74 L1676.96,2358.61 L1681.57,2362.47 L1684.91,2364.79 L1689.01,2365.05 L1693.62,2367.11 L1696.19,2371.49 L1696.19,2376.13 L1695.93,2380.77 L1693.88,2384.63 L1691.06,2388.76 L1693.37,2394.68 L1693.37,2400.35 L1689.52,2405.25 L1685.93,2410.14 L1684.65,2414.27 L1689.78,2415.81 L1692.85,2417.36 L1695.67,2420.45 L1695.67,2422.77 L1691.32,2425.35 L1687.47,2425.09 L1685.93,2421.48 L1682.5,2421.33 L1675.93,2423.29 L1671.32,2427.93 L1668.28,2431.52 L1664.4,2435.14 L1659.27,2439.78 L1655.17,2442.61 L1653.11,2446.22 L1655.68,2449.57 L1660.04,2452.92 L1662.86,2455.5 L1664.14,2463.74 L1661.06,2468.64 L1664.65,2471.99 L1665.16,2475.6 L1667.98,2482.55 L1672.86,2483.84 L1675.68,2486.42 L1678.75,2487.96 L1683.11,2488.22 L1687.47,2489.51 L1686.7,2500.07 L1692.6,2501.36 L1697.47,2504.45 L1702.34,2508.84 L1704.65,2511.93 L1703.88,2518.63 L1705.16,2523.01 L1708.75,2528.68 L1709.52,2534.09 L1707.98,2539.24 L1702.6,2549.8 L1706.19,2559.08 L1710.29,2570.42 L1707.21,2571.96 L1701.57,2571.96 L1699.78,2574.28 L1699.01,2576.08 L1699.01,2577.63 L1700.8,2582.27 L1700.55,2586.13 L1700.55,2592.06 L1707.98,2591.03 L1714.13,2588.19 L1717.47,2591.54 L1720.03,2596.18 L1720.29,2602.62 L1719.52,2607.52 L1719.52,2616.79 L1716.44,2620.4 L1713.11,2619.88 L1707.98,2616.79 L1704.14,2616.79 L1701.83,2621.95 L1700.29,2624.52 L1699.01,2627.36 L1701.34,2630.53 L1701.83,2633.28 L1701.57,2636.37 L1696.91,2637.05 L1692.85,2636.63 L1691.06,2639.72 L1691.32,2642.42 L1688.04,2646.7 L1687.47,2651.83 L1686.7,2655.7 L1679.78,2658.27 L1677.47,2657.76 L1675.42,2656.21 L1667.59,2654.93 L1661.65,2656.72 L1659.49,2657.95 L1660.81,2662.65 L1661.32,2667.81 L1656.7,2673.47 L1650.11,2676.57 L1645.47,2679.97 L1641.58,2680.69 L1632.86,2679.4 L1628.5,2680.43 L1624.65,2684.81 L1623.89,2689.19 L1623.63,2695.63 L1622.09,2700.27 L1621.07,2705.16 L1624.14,2713.41 L1631.32,2713.41 L1633.12,2715.98 L1630.55,2720.88 L1626.71,2725.26 L1621.58,2729.89 L1616.96,2731.95 L1610.04,2732.98 L1600.55,2729.12 L1597.48,2732.21 L1593.89,2732.98 L1590.3,2734.27 L1582.85,2738.98 L1578.5,2744.06 L1576.97,2748.7 L1579.53,2754.37 L1582.35,2758.23 L1580.56,2764.41 L1578.5,2768.02 L1577.48,2774.98 L1579.27,2782.19 L1583.63,2788.11 L1585.68,2794.81 L1587.69,2803.08 L1582.92,2801.24 L1578.82,2797.76 L1562.78,2791.32 L1553.93,2785.79 L1549.17,2779.3 L1544.86,2774.81 L1534.13,2770.07 L1533.76,2769.38 L1532.08,2768.15 L1531.7,2765.64 L1525.94,2762.14 L1516.4,2757.35 L1508.69,2751.67 L1506.18,2750.81 L1505.21,2749.5 L1504.54,2749.29 L1503.39,2748.34 L1502.76,2747.39 L1497.94,2744.06 L1484.84,2737.97 L1483.49,2736.98 L1481.37,2734.58 L1479.67,2733.71 L1477.69,2730.42 L1476.55,2729.97 L1476.06,2730.07 L1474.9,2729.17 L1474.42,2728.37 L1474.32,2727.4 L1474.65,2727.01 L1474.67,2725.55 L1473.35,2723.76 L1472.24,2723.02 L1471.7,2722.24 L1471.14,2721.11 L1470.94,2719.46 L1469.94,2717.16 L1466.25,2714.53 L1463.48,2711.13 L1457.14,2706.43 L1449.88,2698.03 L1440.53,2693.18 L1435.18,2684.54 L1430.1,2679.75 L1422.91,2674.16 L1402.71,2653.19 L1399.33,2646.98 L1391.02,2636.62 L1385.01,2631.05 L1381.33,2628.74 L1371.64,2620.55 L1356.57,2606.02 L1350.26,2597.36 L1349.18,2592.1 L1342.57,2582.05 L1333.91,2572.35 L1333.18,2564.28 L1324.88,2557.78 L1316.72,2549.9 L1296.72,2529.34 L1290.11,2521.45 L1271.03,2505.53 L1251.5,2498.26 L1218.26,2485.61 L1214.89,2481.26 L1211.81,2473.06 L1206.42,2469.82 L1198.58,2465.49 L1186.89,2457.76 L1179.2,2450.65 L1169.97,2439.82 L1160.89,2430.39 L1149.35,2419.11 L1141.05,2414.93 L1133.66,2406.43 L1121.51,2394.06 L1105.6,2379.06 L1090.9,2358.03 L1084.9,2352.47 L1079.2,2348.45 L1074.28,2344.74 L1067.67,2341.02 L1062.44,2337.47 L1059.92,2334.76 L1054.44,2330.82 L1048.75,2327.73 L1043.51,2323.71 L1037.52,2318.6 L1033.67,2313.5 L1029.67,2310.41 L1018.75,2304.53 L1011.52,2300.05 L1003.67,2294.33 L997.211,2290.77 L991.519,2287.99 L991.077,2287.62 L989.272,2286.96 L988.221,2286.39 L986.016,2284.53 L984.734,2281.8 L984.913,2280.57 L985.559,2280 L985.919,2277.64 L985.708,2276.18 L985.91,2272.78 L984.443,2268.81 L979.674,2263.56 L975.059,2257.84 L964.752,2245.62 L961.829,2238.2 L957.614,2234.11 L945.923,2224.02 L899.345,2190.43 L893.189,2191.39 L879.005,2184.13 L871.037,2182.67 L871.037,2181.84 L879.405,2182.92 L893.066,2190.19 L894.266,2190.19 L897.711,2188.52 L899.342,2188.83 L901.588,2187.37 L899.742,2182.83 L894.851,2181.81 L893.598,2181.8 L891.834,2180.52 L890.644,2179.36 L889.743,2177.82 L889.804,2176.3 L880.236,2167.98 L878.667,2168.85 L879.651,2176.05 L878.451,2176.46 L878.421,2177.51 L877.651,2177.69 L875.976,2169.99 L876.297,2167.22 L876.298,2165.17 L875.129,2164.86 L874.79,2162.54 L874.821,2161.64 L872.298,2159.17 L870.975,2159.54 L869.714,2158.89 L868.729,2156.88 L869.498,2156.26 L870.637,2157.65 L873.806,2158.52 L876.452,2156.04 L880.993,2153.08 L882.758,2149.13 L887.066,2134.9 L887.212,2131.51 L886.956,2128.83 L886.571,2128.06 L886.315,2125.77 L886.058,2125.2 L886.417,2124.37 L887.007,2124.4 L887.879,2122.78 L888.604,2122.06 L885.681,2106.44 L881.307,2098.34 L871.793,2086.02 L863.301,2079.06 L861.394,2076.95 L859.618,2073.64 L857.352,2070.54 L851.684,2065 L845.069,2059.12 L837.224,2053.55 L825.686,2046.28 L813.226,2036.38 L795.689,2025.25 L786.459,2020.14 L775.69,2014.89 L768.832,2008.26 L765.852,2006.92 L764.57,2005.37 L760.109,2002.74 L758.673,2001.15 L757.033,1998.55 L754.279,1996.37 L752.212,1995.99 L750.366,1995.22 L748.559,1992.3 L744.001,1989.37 L736.001,1986.89 L726.771,1981.48 L708.773,1971.73 L703.85,1964.62 L698.466,1962.14 L694.928,1958.9 L688.063,1955 L685.499,1949.95 L684.865,1947.06 L684.621,1944.98 L683.39,1941.73 L682.006,1940.65 L676.775,1939.41 L670.314,1936.62 L662.161,1934.15 L645.085,1927.19 L632.163,1921.47 L626.01,1921.47 L619.395,1919.15 L604.32,1913.11 L596.782,1909.87 L589.552,1906 L580.937,1902.13 L576.783,1897.34 L576.783,1896.87 L570.63,1887.28 L560.196,1872.12 L558.785,1864.7 L555.247,1856.96 L552.17,1848.77 L545.277,1841.5 L545.227,1839.17 L546.747,1836.56 L546.759,1835.89 L548.066,1832.87 L547.98,1831.96 L542.325,1824.33 L538.325,1817.83 L535.183,1811.53 L534.722,1809.02 L534.814,1807.69 L534.627,1806.64 L531.864,1801.74 L512.635,1785.65 L501.712,1776.84 L493.559,1769.26 L482.176,1761.37 L461.87,1749.76 L438.333,1738.01 L407.105,1723.31 L358.955,1702.12 L309.267,1681.85 L301.113,1678.91 L283.269,1671.79 L254.04,1660.66 L250.674,1659.69 L224.429,1651.17 L224.839,1645.5 L224.603,1642.63 L222.043,1640.54 L213.987,1636.63 L211.723,1634.23 L207.736,1631.41 L197.013,1628.5 L193.662,1625.6 L194.073,1621.78 L195.406,1620.85 L196.968,1619.04 L195.583,1615.32 L194.996,1614.15 L194.893,1612.91 L195.713,1611.67 L199.303,1609.09 L201.374,1604.6 L200.895,1603.91 L201.707,1603.27 L204.751,1597.65 L206.289,1593.63 L198.29,1580.63 L190.291,1575.06 L184.137,1570.42 L178.907,1563.92 L182.907,1553.71 L187.522,1549.38 L202.597,1548.45 L226.595,1542.57 L233.672,1537.62 L237.671,1530.2 L239.517,1520.29 L238.287,1510.7 L236.441,1502.34 L231.518,1495.54 L232.749,1487.49 L237.979,1477.9 L247.517,1464.28 L256.439,1455 L265.054,1447.88 L268.746,1439.21 L268.746,1433.64 L261.669,1424.05 L257.67,1415.07 L248.939,1396.47 L248.44,1395.88 L243.209,1387.53 L237.671,1378.24 L236.441,1368.34 L240.44,1361.84 L245.671,1357.82 L250.286,1346.37 L252.132,1331.51 L255.824,1319.44 L262.592,1311.7 L269.361,1306.75 L274.591,1302.11 L276.13,1297.77 L282.591,1295.92 L291.116,1297.5 L295.574,1293.6 L287.206,1286.63 L284.129,1281.37 L285.975,1278.27 L288.744,1275.49 L293.051,1274.56 L295.82,1277.65 L295.82,1281.99 L297.974,1284.46 L305.814,1284.65 L312.435,1283.84 L321.665,1278.27 L326.587,1271.46 L329.049,1263.73 L335.202,1250.72 L334.587,1243.92 L338.586,1240.51 L342.586,1238.34 L348.124,1230.3 L355.637,1227.57 L356.794,1228.41 L362.892,1225.03 L362.892,1222.87 L361.354,1217.3 L358.892,1215.13 L354.277,1213.89 L349.662,1211.41 L347.816,1207.39 L354.277,1199.03 L351.508,1195.63 L340.125,1199.65 L333.971,1198.41 L328.433,1193.77 L329.356,1188.2 L335.202,1183.86 L337.971,1182.32 L346.278,1176.75 L353.149,1162.21 L351.201,1155.08 L341.554,1145.58 L326.895,1134.34 L325.664,1126.29 L330.587,1124.12 L338.279,1126.29 L346.893,1123.5 L348.432,1127.53 L345.663,1135.26 L354.277,1137.12 L358.585,1132.17 L361.969,1123.19 L361.661,1116.69 L365.969,1113.29 L375.506,1108.33 L382.275,1104.31 L385.352,1099.97 L381.967,1096.57 L383.813,1092.23 L387.505,1089.76 L393.043,1094.71 L395.505,1094.71 L402.273,1089.14 L400.12,1085.11 L399.197,1080.16 L402.581,1080.16 L406.273,1076.14 L415.195,1074.9 L422.579,1076.14 L426.271,1074.59 L429.348,1070.87 L429.656,1063.75 L425.348,1059.73 L418.272,1055.4 L419.81,1052.61 L425.041,1050.44 L431.809,1049.2 L433.04,1047.66 L434.271,1041.46 L432.732,1035.58 L428.733,1032.49 L430.271,1027.53 L435.809,1024.75 L440.116,1024.44 L443.218,1021.34 L443.008,1012.57 L441.47,1006.52 L435.194,1004.62 L434.578,998.43 L431.809,993.167 L426.887,989.762 L423.502,982.641 L424.118,968.089 L421.964,961.588 L418.272,955.395 L424.425,952.609 L429.963,952.299 L436.732,950.442 L443.193,949.822 L448.731,947.965 L448.423,942.082 L450.577,935.89 L456.423,933.103 L458.577,927.53 L463.807,925.053 L466.576,921.338 L469.96,916.384 L474.883,914.216 L480.729,916.693 L485.959,915.455 L490.266,915.764 L491.189,912.978 L490.266,906.476 L499.496,898.116 L503.917,892.175 L501.958,886.969 L498.573,882.634 L493.958,882.325 L490.574,876.132 L495.804,874.274 L503.188,878.3 L506.573,872.726 L511.188,866.224 L513.034,857.244 L510.572,850.742 L512.111,845.478 L515.495,839.904 L517.341,827.209 L517.956,821.945 L522.264,820.397 L526.263,818.539 L525.34,813.894 L522.264,811.417 L516.726,810.798 L513.957,804.295 L510.572,803.985 L505.087,806.574 L503.25,805.143 L499.496,804.295 L497.035,805.224 L494.881,808.32 L494.574,815.752 L493.651,821.635 L489.036,822.874 L484.113,820.087 L481.036,814.513 L483.498,809.249 L482.882,804.605 L484.728,799.65 L489.651,798.721 L490.582,795.273 L495.775,791.891 L496.132,786.415 L494.266,782 L486.882,780.142 L482.575,776.116 L480.421,769.303 L479.806,766.207 L477.96,762.801 L472.729,763.73 L469.345,768.065 L464.329,767.06 L460.73,745.459 L462.269,739.575 L459.192,729.666 L454.885,724.711 L455.192,718.517 L458.577,712.324 L471.191,708.608 L478.575,707.679 L485.036,705.511 L488.42,702.104 L493.958,697.769 L501.342,697.149 L506.573,697.149 L509.034,694.053 L511.495,691.575 L517.649,688.169 L525.033,687.549 L528.109,688.478 L529.032,693.433 L532.109,693.124 L533.955,691.265 L536.724,687.549 L540.724,683.523 L544.416,682.904 L546.569,682.285 L546.569,680.426 L546.262,677.33 L547.492,673.613 L550.569,672.684 L553.338,673.923 L557.338,678.568 L557.645,683.214 L561.03,686.62 L564.722,686.93 L568.721,686.62 L572.721,688.788 L578.874,689.098 L584.72,692.504 L588.412,698.698 L593.95,699.317 L596.411,694.982 L598.257,690.956 L598.565,685.072 L599.181,680.117 L604.719,677.949 L610.872,676.091 L617.025,675.781 L621.025,674.542 L623.486,673.304 L627.486,676.4 L631.486,679.188 L632.409,677.639 L634.87,676.091 L637.024,677.02 L636.408,680.426 L633.024,684.143 L636.101,686.93 L640.1,686.31 L643.792,684.762 L648.1,683.833 L649.023,687.549 L651.792,693.743 L647.792,700.556 L642.875,705.04 L637.947,713.872 L638.254,723.472 L645.519,734.13 L652.407,738.956 L661.329,743.291 L666.56,747.317 L671.175,748.865 L672.405,750.414 L672.405,757.227 L674.867,761.252 L675.482,768.684 L678.251,771.161 L681.02,770.542 L688.404,768.374 L693.634,767.136 L701.326,767.136 L705.326,770.232 L708.71,776.426 L712.094,777.664 L718.555,776.426 L722.863,777.045 L727.17,779.522 L734.554,782.929 L738.246,788.193 L741.63,798.411 L749.322,807.701 L751.095,812.44 L753.671,814.899 L759.783,816.371 L765.629,816.991 L768.705,820.706 L773.936,824.732 L776.397,824.732 L779.166,823.803 L783.473,820.706 L786.858,815.133 L790.55,813.584 L790.857,808.32 L789.627,803.366 L793.934,802.437 L796.395,804.914 L799.164,806.772 L801.933,803.676 L806.241,802.437 L807.779,803.985 L807.164,807.701 L809.933,811.107 L815.778,807.082 L821.316,810.178 L821.932,814.513 L824.393,818.539 L829.931,819.468 L829.931,816.991 L831.469,812.346 L834.546,812.965 L839.469,812.965 L841.622,810.798 L844.699,812.965 L844.699,815.442 L846.545,819.777 L850.237,822.874 L854.544,825.97 L858.027,830.273 L860.39,832.783 L866.236,835.879 L870.851,839.595 L874.543,847.336 L880.081,849.503 L887.465,851.361 L895.772,853.838 L901.925,854.767 L907.771,851.98 L911.771,853.219 L915.77,863.437 L916.078,869.011 L921.924,871.488 L930.231,873.036 L935.153,871.488 L940.384,877.68 L942.537,883.563 L948.691,885.111 L952.998,885.731 L952.383,890.066 L956.69,893.162 L970.843,893.162 L981.919,891.923 L983.457,888.517 L989.303,890.685 L994.841,897.806 L995.148,903.999 L1002.22,908.334 L1012.69,912.049 L1021.92,916.074 L1028.99,920.409 L1044.99,919.79 L1047.45,916.693 L1050.53,912.049 L1056.68,909.262 L1067.45,907.714 L1074.83,906.476 L1083.76,901.522 L1094.22,899.664 L1105.6,895.329 L1107.75,887.898 L1110.83,885.421 L1115.14,878.919 L1116.68,873.036 L1116.98,866.533 L1120.68,857.244 L1123.45,858.173 L1128.37,853.219 L1128.68,850.742 L1125.29,843.311 L1121.91,837.737 L1119.14,834.64 L1118.52,828.757 L1123.45,825.351 L1126.83,819.777 L1130.83,815.442 L1136.68,810.488 L1136.37,803.366 L1133.29,799.96 L1132.68,794.076 L1134.83,788.193 L1141.91,782.929 L1146.52,781.38 L1150.52,777.045 L1152.67,769.613 L1156.06,762.181 L1161.6,752.891 L1169.29,741.743 L1173.9,732.763 L1176.06,722.234 L1184.36,717.588 L1192.67,718.208 L1199.13,711.395 L1208.98,701.795 L1212.98,695.291 L1216.05,688.478 L1221.59,679.497 L1225.59,668.968 L1229.59,657.819 L1232.05,649.457 L1242.21,642.024 L1253.59,629.946 L1259.13,619.726 L1263.74,606.718 L1263.74,592.781 L1263.43,568.933 L1262.51,546.633 L1266.82,536.412 L1278.52,517.913 L1280.37,513.112 L1280.98,508.776 L1281.14,505.369 L1279.95,503.281 L1278.67,500.258 L1281.3,497.389 L1280.06,495.147 L1279.91,492.359 L1283.14,483.687 L1285.75,481.828 L1288.06,479.815 L1288.06,475.788 L1293.44,472.691 L1298.67,467.735 L1306.27,459.389 L1313.44,450.543 L1317.55,445.183 L1318.52,436.759 L1320.98,432.577 L1324.06,425.763 L1327.44,416.625 L1331.44,407.951 L1334.06,403.15 L1335.29,398.503 L1346.21,385.028 L1365.59,360.246 L1377.28,345.996 L1386.2,335.773 L1400.51,320.128 L1406.36,316.411 L1415.19,310.303 L1418.36,307.892 L1435.43,296.429 L1447.74,287.135 L1465.89,279.7 L1481.74,272.109 L1494.2,266.843 L1500.5,265.139 L1515.58,261.731 L1532.19,258.013 L1539.73,256.619 L1540.04,260.492 L1539.73,267.462 L1540.65,281.249 L1550.19,294.57 L1557.58,307.737 L1563.11,313.003 L1566.04,322.142 L1571.27,323.226 L1572.65,324.311 L1575.42,328.493 L1580.65,330.816 L1584.03,332.83 L1602.03,353.121 L1605.17,358.192 L1608.26,366.586 L1614.8,372.637 L1622.19,378.678 L1630.8,388.59 L1630.8,401.601 L1633.11,405.008 L1636.95,407.486 L1641.37,408.447 L1644.69,408.447 L1648.63,410.306 L1651.21,411.049 L1655.03,409.562 L1657.73,407.952 L1661.92,407.828 L1664.38,409.81 L1665.86,413.404 L1666.22,416.997 L1667.33,421.086 L1669.67,425.298 L1672.62,426.166 L1673.36,423.688 L1677.05,423.812 L1678.16,426.414 L1680.99,430.626 L1684.32,432.237 L1687.88,431.989 L1692.44,433.476 L1696.25,441.034 L1700.31,442.397 L1704.13,442.025 L1708.68,440.786 L1711.27,440.663 L1715.7,445.743 L1719.27,447.725 L1723.94,447.106 L1730.1,446.982 L1734.16,447.477 L1739.57,452.185 L1748.93,458.381 L1759.63,464.576 L1769.11,471.39 L1773.91,471.638 L1778.71,473.868 L1781.66,477.709 L1784.86,481.178 L1789.17,484.152 L1794.21,486.134 L1796.92,488.116 L1796.55,490.718 L1794.46,492.825 L1794.46,494.931 L1796.92,496.17 L1805.29,497.657 L1809.35,498.648 L1813.17,496.665 L1816.61,495.674 L1819.81,495.922 L1825.47,499.267 L1828.55,501.993 L1830.89,504.966 L1833.23,505.09 L1838.03,504.223 L1841.72,505.462 L1841.84,507.444 L1839.63,508.931 L1837.9,510.666 L1839.13,513.763 L1841.72,515.745 L1847.87,515.745 L1851.19,516.613 L1851.81,519.958 L1853.66,522.931 L1855.99,524.79 L1860.06,525.781 L1862.76,527.02 L1864.61,529.497 L1867.32,531.975 L1868.05,534.453 L1868.42,539.781 L1869.04,560.594 L1867.56,567.408 L1863.99,575.832 L1861.66,587.354 L1860.18,592.062 L1857.96,597.141 L1857.72,601.477 L1852.55,614.856 L1849.72,624.147 L1840.24,636.907 L1836.55,641.367 L1833.03,648.62 L1832.84,655.482 L1828.82,664.554 L1829.17,666.514 L1830.77,667.134 L1831.63,669.735 L1830.64,672.46 L1828.3,674.071 L1825.97,674.071 L1824.86,675.681 L1824.86,678.159 L1825.1,680.884 L1824.24,683.361 L1822.27,685.715 L1821.04,689.307 L1822.89,693.519 L1822.4,696.368 L1819.94,698.722 L1816.86,704.048 L1813.78,710.861 L1809.35,718.046 L1806.4,724.487 L1805.91,728.203 L1803.08,729.937 L1802.95,733.53 L1799.63,741.581 L1795.81,750.252 L1791.88,761.648 L1788.8,767.098 L1786.58,768.832 L1785.48,771.681 L1784.86,776.883 L1782.15,784.439 L1778.34,791.004 L1774.52,795.586 L1772.06,802.523 L1768.86,805.495 L1767.26,808.84 L1764.31,816.891 L1758.65,827.79 L1756.43,829.896 L1753.97,831.754 L1752.13,835.965 L1745.85,842.777 L1744.09,849.738 L1743.58,851.223 L1741.05,855.039 L1737.48,860.984 L1736.37,867.053 L1733.3,871.883 L1728.13,877.704 L1720.62,882.534 L1719.39,884.145 L1721.48,885.878 L1720.87,888.851 L1718.77,895.043 L1718.28,901.236 L1721.48,902.475 L1722.96,907.8 L1726.05,912.064 L1727.76,913.002 L1730.71,912.259 L1731.2,914.24 L1732.19,920.185 L1731.57,921.795 L1732.43,923.281 L1734.9,924.396 L1734.9,926.377 L1737.85,926.873 L1737.73,928.359 L1735.88,930.34 L1735.63,931.95 L1736.13,935.418 L1735.14,936.781 L1732.68,938.514 L1727.27,939.753 L1724.56,941.487 L1724.06,945.357 L1724.93,949.041 L1725.79,955.729 L1725.67,957.958 L1724.56,963.283 L1725.3,966.627 L1726.9,969.847 L1728.25,974.553 L1727.88,977.154 L1720.87,986.194 L1721.48,989.042 L1720.99,991.891 L1720.87,997.959 L1724.68,995.73 L1727.39,994.491 L1729.48,990.529 L1732.31,988.547 L1738.71,986.753 L1739.94,986.689 L1742.65,986.07 L1746.83,981.86 L1751.88,977.649 L1759.51,974.305 L1762.96,969.599 L1765.54,966.751 L1764.92,964.893 L1762.46,962.169 L1761.72,960.311 L1762.22,957.339 L1764.92,952.385 L1770.09,947.184 L1776.62,943.84 L1783.26,941.115 L1795.08,933.437 L1803.59,928.862 L1810.58,928.359 L1815.1,926.023 L1823.14,921.052 L1833.23,911.887 L1840.12,903.341 L1857.22,891.699 L1861.16,887.736 L1864.49,885.135 L1869.53,885.135 L1873.1,887.489 L1876.92,886.126 L1881.47,883.525 L1898.21,875.723 L1901.28,872.874 L1902.51,870.025 L1901.53,867.3 L1900.05,864.823 L1902.14,859.374 L1902.14,855.782 L1899.93,852.314 L1897.71,849.713 L1896.98,846.369 L1897.84,844.016 L1899.81,841.786 L1905.84,839.309 L1911.87,835.965 L1917.16,832.745 L1923.68,830.639 L1928.6,830.763 L1930.94,834.107 L1932.42,838.07 L1936.97,838.566 L1940.66,837.203 L1944.11,839.433 L1946.33,844.883 L1951.25,848.722 L1957.28,851.571 L1962.82,849.589 L1966.88,848.598 L1970.08,849.713 L1974.75,853.429 L1977.95,857.392 L1981.02,861.898 L1984.6,862.966 L1986.9,862.553 L1994.32,858.011 L2003.92,855.287 L2013.15,856.401 L2018.44,860.86 L2023.5,863.431 L2028.9,864.328 L2031.36,863.461 L2032.72,860.241 L2033.21,856.773 L2034.83,852.78 L2032.84,847.484 L2034.07,844.387 L2037.39,840.795 L2048.1,827.419 L2051.06,823.951 L2055.73,822.34 L2060.16,822.712 L2065.33,824.322 L2070.62,824.57 L2075.55,823.951 L2077.64,821.721 L2076.28,818.129 L2073.08,812.679 L2074.44,808.22 L2074.31,804.876 L2072.35,801.16 L2070.75,797.568 L2068.04,795.339 L2064.84,793.233 L2064.47,788.774 L2068.04,787.783 L2072.22,786.297 L2076.28,783.82 L2082.56,783.696 L2085.51,784.81 L2089.58,790.88 L2093.39,797.321 L2098.93,802.894 L2104.22,806.239 L2112.71,806.239 L2116.65,804.133 L2118.88,797.384 L2119.24,792.636 L2122.26,787.32 L2124.09,785.69 L2125.63,784.684 L2129.82,786.173 L2136.22,790.756 L2138.83,793.462 L2141.14,794.855 L2143.44,794.597 L2145.9,792.946 L2146.42,790.572 L2146.31,784.439 L2147.42,780.723 L2146.92,773.663 L2147.91,769.203 L2149.75,764.992 L2159.35,761.895 L2166.74,764.868 L2171.13,768.684 L2174.12,772.176 L2178.43,773.291 L2182.49,771.681 L2185.94,768.708 L2186.92,764.125 L2185.81,761.524 L2183.36,757.79 L2182,754.463 L2181.88,749.261 L2182.61,744.802 L2184.83,740.59 L2188.52,740.59 L2194.06,741.705 L2198.12,743.935 L2205.01,749.509 L2209.81,749.137 L2213.75,748.022 L2215.6,744.802 L2216.95,740.838 L2219.29,737.989 L2224.46,734.273 L2227.29,732.043 L2229.75,726.345 L2232.46,722.505 L2236.76,718.046 L2241.32,711.605 L2242.55,706.774 L2243.41,698.722 L2245.99,695.377 L2250.42,692.9 L2259.41,683.857 L2262.73,679.397 L2267.16,675.681 L2270.73,672.336 L2275.41,666.762 L2280.08,662.426 L2284.51,653.879 L2288.7,652.021 L2290.42,652.888 L2294.48,655.737 L2297.19,658.71 L2298.05,662.179 L2298.05,666.266 L2299.16,669.983 L2302.11,672.089 L2304.57,671.965 L2309.5,670.974 L2312.57,669.735 L2321.56,661.188 L2329.43,655.365 L2337.19,649.915 L2342.11,641.862 L2346.66,635.297 L2351.95,629.722 L2355.89,626.625 L2358.48,623.032 L2358.49,618.643 L2357.49,612.998 L2356.38,608.538 L2355.77,603.831 L2358.97,600.61 L2363.89,596.274 L2367.95,592.309 L2373.24,590.203 L2378.66,588.964 L2384.57,587.973 L2389.28,585.973 L2394.16,582.821 L2396.87,578.806 L2398.97,573.974 L2404.38,570.381 L2409.8,568.399 L2416.32,564.806 L2419.03,564.187 L2423.58,564.311 L2427.64,563.939 L2432.07,563.072 L2436.5,560.594 L2438.22,556.258 L2439.09,542.878 L2440.69,537.303 L2440.69,534.453 L2438.22,532.099 L2435.52,530.365 L2433.42,527.763 L2432.81,524.79 L2434.78,522.559 L2437.61,522.436 L2441.55,522.559 L2444.75,521.692 L2448.56,521.32 L2454.22,523.674 L2456.44,528.506 L2458.04,535.94 L2464.81,541.887 L2473.17,547.338 L2478.1,549.444 L2482.65,551.674 L2484.37,554.4 L2483.76,558.24 L2478.77,566.503 L2476.01,572.364 L2471.95,576.308 L2468.38,582.027 L2469.61,587.354 L2472.44,589.584 L2478.1,589.584 L2484.25,587.973 L2490.4,585.867 L2496.56,578.186 L2499.76,577.938 L2505.03,578.302 L2508.25,581.407 L2515.02,576.328 L2521.54,574.346 L2532.62,573.602 L2538.4,572.487 L2550.83,572.983 L2557.35,569.514 L2561.17,566.293 L2563.63,560.222 L2565.6,556.506 L2568.8,554.4 L2576.3,551.426 L2581.1,553.037 L2593.78,558.86 L2598.09,558.364 L2601.41,555.391 L2602.89,551.55 L2603.75,546.718 L2606.09,543.249 L2610.89,542.506 L2623.32,544.736 L2626.27,543.002 L2626.39,539.533 L2625.04,534.081 L2626.76,531.356 L2632.79,528.506 L2638.08,529.002 L2645.84,530.984 L2650.76,533.214 L2656.67,534.329 L2664.05,535.197 L2667.5,533.586 L2679.8,526.648 L2684.48,526.028 L2694.45,529.374 L2699.99,527.143 L2701.59,525.037 L2701.34,521.197 L2699.86,516.365 L2696.54,509.427 L2697.65,503.727 L2700.73,499.887 L2706.51,495.674 L2711.06,498.152 L2714.88,504.223 L2719.68,512.896 L2723.86,523.427 L2726.2,526.648 L2731.49,529.869 L2734.94,531.48 L2738.63,531.232 L2744.88,527.337 L2747.98,526.4 L2749.83,523.922 L2750.44,518.843 L2749.95,514.259 L2749.09,508.807 L2751.8,506.205 L2754.87,505.958 L2758.44,507.32 L2761.89,512.152 L2763.74,517.108 L2763.74,521.197 L2766.07,521.692 L2769.64,521.197 L2773.83,518.843 L2782.79,535.052 L2808.63,570.36 L2805.56,601.848 L2800.69,631.529 L2806.68,665.599 L2812.99,705.855 L2816.84,726.5 L2813.25,751.79 L2808.63,759.531 L2802.22,768.047 L2799.15,792.304 L2795.56,810.883 L2793.76,815.786 L2780.18,838.751 L2774.28,852.943 L2768.89,869.973 L2765.82,890.874 L2765.05,912.289 L2766.59,931.383 L2768.12,947.895 L2770.18,954.604 L2771.71,960.28 L2773.25,968.536 L2775.56,975.502 L2776.07,979.114 L2760.18,992.53 L2740.69,1011.36 L2729.41,1020.14 L2708.9,1028.65 L2693.77,1038.45 L2690.76,1040.94 L2677.65,1055.33 L2662.01,1072.87 L2647.14,1079.84 L2627.39,1086.29 L2613.29,1087.58 L2596.63,1090.42 L2582.01,1094.03 L2570.73,1100.48 L2560.48,1107.7 L2541.5,1113.12 L2526.63,1113.38 L2517.66,1112.6 L2514.33,1111.06 L2506.63,1110.02 L2501.51,1109.77 L2495.87,1107.44 L2487.92,1107.7 L2475.36,1108.99 L2469.97,1109.77 L2462.54,1107.19 L2455.87,1106.41 L2448.95,1106.93 L2447.41,1111.83 L2441.26,1126.28 L2439.97,1137.88 L2444.59,1152.33 L2445.61,1161.62 L2441.26,1170.39 L2436.9,1175.8 L2431.77,1183.03 L2423.82,1197.73 L2420.49,1205.73 L2416.9,1203.15 L2414.59,1203.66 L2408.44,1205.47 L2400.49,1201.6 L2394.08,1200.83 L2388.7,1200.83 L2387.93,1201.6 L2379.47,1202.63 L2369.72,1202.37 L2365.88,1198.25 L2363.06,1194.38 L2349.47,1188.44 L2346.39,1188.19 L2342.29,1185.09 L2342.03,1179.67 L2334.08,1168.07 L2330.5,1167.55 L2326.14,1166 L2327.67,1162.39 L2321.27,1160.33 L2315.37,1160.59 L2311.52,1164.97 L2308.19,1164.97 L2305.37,1161.87 L2305.88,1155.43 L2302.81,1153.1 L2299.22,1155.43 L2298.45,1162.13 L2295.37,1164.71 L2291.78,1171.42 L2284.86,1186.9 L2284.86,1191.28 L2279.99,1197.99 L2276.91,1203.92 L2277.68,1209.08 L2281.01,1211.14 L2277.42,1214.76 L2276.65,1218.88 L2282.55,1222.75 L2282.04,1229.2 L2279.73,1240.81 L2279.99,1250.35 L2279.47,1256.03 L2274.6,1259.64 L2269.47,1266.09 L2265.88,1275.63 L2266.91,1285.69 L2265.37,1290.59 L2268.45,1294.46 L2265.63,1298.59 L2266.4,1313.03 L2266.4,1321.28 L2265.12,1332.12 L2266.91,1340.89 L2267.42,1347.33 L2264.35,1353.52 L2259.99,1359.71 L2260.5,1366.94 L2261.53,1371.58 L2261.27,1379.32 L2261.53,1387.31 L2261.53,1394.02 L2264.6,1400.72 L2263.83,1407.94 L2267.42,1430.38 L2272.04,1441.47 L2274.86,1442.24 L2275.37,1448.95 L2278.19,1456.17 L2282.04,1463.91 L2283.83,1473.45 L2282.04,1479.64 L2279.47,1489.95 L2274.86,1493.82 L2269.73,1496.66 L2269.22,1501.3 L2268.71,1510.84 L2264.6,1516.77 L2259.22,1519.61 L2252.81,1522.7 L2248.71,1522.96 L2241.27,1527.6 L2236.4,1523.74 L2232.55,1524.25 L2225.89,1524.77 L2219.99,1525.8 L2214.35,1521.16 L2211.79,1518.32 L2209.49,1517.38"/>
  </g>
  <g stroke-width="1" transform="matrix(0.999744,0,0,0.999744,0,0)" stroke-opacity="1" font-size="34.5833" fill="none" stroke-linejoin="bevel" font-style="normal" stroke-linecap="square" stroke="#000000" font-family="MS Shell Dlg 2" font-weight="400"/>
  <g stroke-width="1" transform="matrix(11.808,0,0,11.808,0,0)" stroke-opacity="1" font-size="34.5833" fill="none" stroke-linejoin="bevel" font-style="normal" stroke-linecap="square" stroke="#000000" font-family="MS Shell Dlg 2" font-weight="400"/>
  <g stroke-width="1" transform="matrix(11.808,0,0,11.808,0,0)" stroke-opacity="1" font-size="34.5833" fill="none" stroke-linejoin="bevel" font-style="normal" stroke-linecap="square" stroke="#000000" font-family="MS Shell Dlg 2" font-weight="400"/>
  <g stroke-width="1" transform="matrix(11.808,0,0,11.808,0,0)" stroke-opacity="1" font-size="34.5833" fill="none" stroke-linejoin="bevel" font-style="normal" stroke-linecap="square" stroke="#000000" font-family="MS Shell Dlg 2" font-weight="400"/>
  <g stroke-width="1" transform="matrix(1,0,0,1,0,0)" stroke-opacity="1" font-size="34.5833" fill="none" stroke-linejoin="bevel" font-style="normal" stroke-linecap="square" stroke="#000000" font-family="MS Shell Dlg 2" font-weight="400"/>
  <g stroke-width="1" transform="matrix(11.808,0,0,11.808,0,0)" stroke-opacity="1" font-size="34.5833" fill="none" stroke-linejoin="bevel" font-style="normal" stroke-linecap="square" stroke="#000000" font-family="MS Shell Dlg 2" font-weight="400"/>
  <g stroke-width="1" transform="matrix(11.808,0,0,11.808,0,0)" stroke-opacity="1" font-size="34.5833" fill="none" stroke-linejoin="bevel" font-style="normal" stroke-linecap="square" stroke="#000000" font-family="MS Shell Dlg 2" font-weight="400"/>
  <g stroke-width="1" transform="matrix(11.808,0,0,11.808,0,0)" stroke-opacity="1" font-size="34.5833" fill="none" stroke-linejoin="bevel" font-style="normal" stroke-linecap="square" stroke="#000000" font-family="MS Shell Dlg 2" font-weight="400"/>
  <g stroke-width="1" transform="matrix(11.808,0,0,11.808,0,0)" stroke-opacity="1" font-size="34.5833" fill="none" stroke-linejoin="bevel" font-style="normal" stroke-linecap="square" stroke="#000000" font-family="MS Shell Dlg 2" font-weight="400"/>
  <g stroke-width="1" transform="matrix(1,0,0,1,0,0)" stroke-opacity="1" font-size="34.5833" fill="none" stroke-linejoin="bevel" font-style="normal" stroke-linecap="square" stroke="#000000" font-family="MS Shell Dlg 2" font-weight="400"/>
 </g>
</svg>
