<?xml version='1.0' encoding='UTF-8' standalone='no'?>
<svg xmlns:xlink="http://www.w3.org/1999/xlink" baseProfile="tiny" xmlns="http://www.w3.org/2000/svg" height="249.936mm" viewBox="0 0 2952 2952" width="249.936mm" version="1.2">
 <title>Qt SVG Document</title>
 <desc>Generated with Qt</desc>
 <defs/>
 <g stroke-width="1" fill-rule="evenodd" fill="none" stroke-linejoin="bevel" stroke-linecap="square" stroke="black">
  <g stroke-width="1" transform="matrix(1,0,0,1,0,0)" stroke-opacity="1" font-size="34.5833" fill="none" stroke-linejoin="bevel" font-style="normal" stroke-linecap="square" stroke="#000000" font-family="MS Shell Dlg 2" font-weight="400"/>
  <g stroke-width="1" transform="matrix(1,0,0,1,0,0)" stroke-opacity="1" font-size="34.5833" fill="none" stroke-linejoin="bevel" font-style="normal" stroke-linecap="square" stroke="#000000" font-family="MS Shell Dlg 2" font-weight="400"/>
  <g stroke-width="1" transform="matrix(11.808,0,0,11.808,0,0)" stroke-opacity="1" font-size="34.5833" fill="none" stroke-linejoin="bevel" font-style="normal" stroke-linecap="square" stroke="#000000" font-family="MS Shell Dlg 2" font-weight="400"/>
  <g stroke-width="1" transform="matrix(0.999744,0,0,0.999744,0,0)" stroke-opacity="1" font-size="34.5833" fill="none" stroke-linejoin="bevel" font-style="normal" stroke-linecap="square" stroke="#000000" font-family="MS Shell Dlg 2" font-weight="400"/>
  <g transform="matrix(0.999744,0,0,0.999744,0,0)" font-size="34.5833" fill-opacity="0" fill="#ffffff" font-style="normal" stroke="none" font-family="MS Shell Dlg 2" font-weight="400">
   <path fill-rule="evenodd" vector-effect="none" d="M-2,-2 L2955,-2 L2955,2955 L-2,2955 L-2,-2"/>
  </g>
  <g stroke-width="1" transform="matrix(0.999744,0,0,0.999744,0,0)" stroke-opacity="1" font-size="34.5833" fill="none" stroke-linejoin="bevel" font-style="normal" stroke-linecap="square" stroke="#000000" font-family="MS Shell Dlg 2" font-weight="400"/>
  <g stroke-width="1" transform="matrix(11.808,0,0,11.808,0,0)" stroke-opacity="1" font-size="34.5833" fill="none" stroke-linejoin="bevel" font-style="normal" stroke-linecap="square" stroke="#000000" font-family="MS Shell Dlg 2" font-weight="400"/>
  <g stroke-width="1" transform="matrix(11.808,0,0,11.808,0,0)" stroke-opacity="1" font-size="34.5833" fill="none" stroke-linejoin="bevel" font-style="normal" stroke-linecap="square" stroke="#000000" font-family="MS Shell Dlg 2" font-weight="400"/>
  <g stroke-width="1" transform="matrix(11.808,0,0,11.808,0,0)" stroke-opacity="1" font-size="34.5833" fill="none" stroke-linejoin="bevel" font-style="normal" stroke-linecap="square" stroke="#000000" font-family="MS Shell Dlg 2" font-weight="400"/>
  <g stroke-width="1" transform="matrix(11.808,0,0,11.808,0,0)" stroke-opacity="1" font-size="34.5833" fill="none" stroke-linejoin="bevel" font-style="normal" stroke-linecap="square" stroke="#000000" font-family="MS Shell Dlg 2" font-weight="400"/>
  <g stroke-width="1" transform="matrix(11.808,0,0,11.808,0,0)" stroke-opacity="1" font-size="34.5833" fill="none" stroke-linejoin="bevel" font-style="normal" stroke-linecap="square" stroke="#000000" font-family="MS Shell Dlg 2" font-weight="400"/>
  <g transform="matrix(11.808,0,0,11.808,0,0)" font-size="34.5833" fill-opacity="0" fill="#ffffff" font-style="normal" stroke="none" font-family="MS Shell Dlg 2" font-weight="400">
   <path fill-rule="evenodd" vector-effect="none" d="M0,0 L250,0 L250,250 L0,250 L0,0"/>
  </g>
  <g stroke-width="1" transform="matrix(11.808,0,0,11.808,0,0)" stroke-opacity="1" font-size="34.5833" fill="none" stroke-linejoin="bevel" font-style="normal" stroke-linecap="square" stroke="#000000" font-family="MS Shell Dlg 2" font-weight="400"/>
  <g stroke-width="1" transform="matrix(11.808,0,0,11.808,0,0)" stroke-opacity="1" font-size="34.5833" fill="none" stroke-linejoin="bevel" font-style="normal" stroke-linecap="square" stroke="#000000" font-family="MS Shell Dlg 2" font-weight="400"/>
  <g transform="matrix(0.999744,0,0,0.999744,0,0)" font-size="34.5833" fill-opacity="0" fill="#000000" font-style="normal" stroke="none" font-family="MS Shell Dlg 2" font-weight="400">
   <rect x="0" height="2953" width="2953" y="0"/>
  </g>
  <g stroke-width="1" transform="matrix(0.999744,0,0,0.999744,0,0)" stroke-opacity="1" font-size="34.5833" fill="none" stroke-linejoin="bevel" font-style="normal" stroke-linecap="square" stroke="#000000" font-family="MS Shell Dlg 2" font-weight="400"/>
  <g stroke-width="3.07087" transform="matrix(0.999744,0,0,0.999744,0,0)" stroke-opacity="1" font-size="34.5833" fill-opacity="1" fill="#c5c5c5" stroke-linejoin="bevel" font-style="normal" stroke-linecap="square" stroke="#5c5c5c" font-family="MS Shell Dlg 2" font-weight="400">
   <path fill-rule="evenodd" vector-effect="none" d="M1446.71,2192.88 L1435.17,2191.28 L1423.24,2186.89 L1408.92,2186.09 L1400.97,2175.7 L1388.24,2163.31 L1381.88,2159.32 L1373.13,2168.51 L1363.98,2172.5 L1328.98,2170.11 L1288.41,2169.31 L1265.34,2168.51 L1251.42,2158.12 L1241.08,2146.13 L1212.71,2104.36 L1188.85,2067.6 L1153.85,1992.47 L1166.57,1965.29 L1179.3,1947.7 L1196.8,1939.71 L1231.8,1934.91 L1230.21,1907.73 L1246.12,1874.16 L1260.44,1864.57 L1274.76,1840.58 L1275.88,1809.54 L1282.72,1781.42 L1274.76,1754.24 L1260.44,1727.05 L1255.67,1693.47 L1250.9,1675.88 L1241.35,1663.09 L1217.49,1651.89 L1184.07,1626.31 L1147.48,1610.31 L1117.25,1595.92 L1093.39,1586.32 L1072.71,1583.12 L1053.61,1594.32 L1052.02,1607.11 L1047.41,1633.14 L1040.85,1643.34 L1025.33,1652.93 L1008.63,1657.13 L990.135,1655.93 L981.782,1668.52 L964.48,1696.11 L944.195,1705.71 L932.263,1723.1 L909.591,1731.49 L834.418,1743.48 L737.169,1743.48 L703.759,1750.08 L659.609,1755.48 L642.307,1760.27 L619.039,1767.47 L602.931,1771.07 L607.704,1781.86 L608.3,1796.85 L601.737,1807.64 L603.527,1823.83 L613.67,1832.83 L623.812,1828.63 L632.165,1830.43 L628.585,1842.42 L629.182,1852.61 L638.728,1859.21 L637.534,1869.4 L626.795,1880.79 L608.3,1885.59 L573.1,1884.99 L536.706,1883.19 L490.17,1865.8 L454.97,1858.01 L426.929,1851.41 L395.308,1841.22 L370.25,1834.63 L339.823,1834.63 L315.958,1826.23 L293.287,1812.44 L264.649,1805.85 L230.642,1799.25 L214.533,1793.25 L182.316,1775.86 L168.594,1746.48 L147.116,1718.3 L129.217,1703.91 L95.8067,1682.92 L74.8583,1668.27 L49.2707,1661.93 L44.2282,1652.29 L34.712,1638.45 L40.9503,1634.56 L44.3311,1634.16 L49.1041,1635.56 L53.0815,1635.36 L56.0646,1628.17 L58.4511,1623.17 L63.0251,1619.77 L68.3947,1616.37 L71.1789,1611.97 L74.1183,1611.33 L80.1886,1617.88 L86.0943,1635.76 L91.265,1636.56 L98.1845,1634.66 L101.805,1634.56 L105.566,1638.07 L108.567,1643.76 L111.749,1647.76 L116.919,1651.96 L123.085,1651.16 L128.653,1650.16 L134.022,1650.36 L138.199,1648.36 L142.574,1645.56 L150.728,1642.76 L156.495,1641.16 L163.456,1635.16 L167.035,1628.37 L170.814,1622.97 L174.195,1622.37 L181.951,1625.37 L185.53,1630.77 L191.921,1633.87 L192.491,1635.36 L200.843,1644.96 L205.815,1645.36 L210.787,1642.76 L218.145,1638.56 L219.935,1633.16 L223.117,1626.17 L231.47,1621.37 L238.828,1621.37 L244.595,1621.57 L251.954,1624.97 L258.318,1624.17 L267.466,1625.97 L271.642,1627.77 L277.012,1625.57 L282.58,1623.97 L293.717,1624.77 L295.109,1626.57 L292.524,1631.56 L288.148,1639.36 L288.546,1643.36 L292.722,1643.36 L297.893,1640.76 L301.871,1637.76 L306.445,1636.16 L311.814,1634.96 L315.195,1631.96 L314.201,1627.77 L314.797,1621.77 L316.786,1614.97 L321.161,1612.97 L326.531,1612.57 L325.934,1607.98 L324.343,1603.38 L331.105,1599.98 L331.304,1594.58 L332.298,1586.19 L337.469,1586.98 L343.236,1592.58 L350.395,1589.78 L349.202,1583.79 L345.622,1577.59 L349.003,1572.79 L356.361,1568.39 L358.549,1562.19 L367.101,1558.2 L373.663,1553.2 L373.266,1548.4 L367.299,1546.4 L359.742,1545.2 L349.6,1542.4 L346.219,1538 L346.02,1530.41 L348.605,1521.01 L350.992,1515.21 L358.549,1512.61 L361.93,1508.81 L362.527,1502.82 L366.106,1495.82 L366.902,1490.62 L363.322,1489.22 L355.964,1492.62 L350.395,1492.22 L332.099,1493.62 L328.321,1490.62 L329.528,1485.61 L332.895,1482.62 L341.048,1486.82 L345.424,1484.82 L347.611,1480.22 L342.639,1477.42 L333.889,1473.63 L326.332,1470.83 L320.989,1471.56 L316.388,1476.82 L312.212,1485.22 L309.627,1502.22 L306.643,1506.42 L299.683,1508.21 L294.115,1503.22 L291.728,1492.02 L297.495,1477.62 L294.91,1471.23 L289.143,1469.63 L284.966,1469.03 L280.79,1457.83 L279.597,1452.23 L284.171,1447.03 L295.109,1439.84 L301.871,1432.84 L304.456,1428.04 L307.837,1423.44 L313.405,1419.24 L316.388,1414.44 L313.803,1410.44 L314.015,1403.45 L315.69,1399.83 L320.313,1390.5 L328.122,1386.45 L332.497,1388.45 L337.469,1391.45 L336.872,1385.65 L335.878,1382.45 L330.906,1379.65 L324.72,1379.48 L319.968,1378.05 L316.587,1371.25 L315.792,1367.45 L304.257,1360.45 L299.683,1355.65 L293.518,1343.66 L292.126,1338.06 L280.193,1339.66 L275.023,1335.46 L278.801,1330.26 L284.966,1327.46 L296.501,1323.06 L299.683,1324.46 L303.66,1329.86 L310.621,1333.26 L310.82,1327.66 L309.229,1320.66 L306.246,1316.86 L312.61,1314.26 L317.581,1316.06 L322.752,1316.06 L329.315,1315.06 L335.082,1316.46 L341.446,1315.86 L345.026,1313.06 L347.611,1309.06 L355.765,1311.66 L362.527,1311.66 L366.547,1306.59 L369.487,1303.86 L374.061,1301.06 L379.163,1302.46 L388.171,1299.51 L394.28,1299.72 L400.312,1297.86 L407.869,1295.06 L415.426,1294.46 L421.62,1295.62 L426.961,1290.06 L433.014,1286.17 L435.415,1283.74 L438.139,1276.84 L437.899,1270.26 L442.258,1261.96 L444.43,1248.43 L447.644,1240.07 L448.24,1235.07 L451.422,1228.47 L455.4,1219.47 L453.809,1202.47 L452.616,1198.07 L450.621,1189.58 L451.82,1185.87 L455.996,1182.67 L461.963,1182.27 L469.719,1183.27 L468.724,1180.07 L465.145,1175.07 L461.963,1168.87 L458.383,1160.87 L455.002,1157.47 L450.826,1151.87 L443.269,1142.67 L438.893,1138.46 L441.081,1136.06 L446.053,1134.46 L450.627,1136.06 L452.814,1144.47 L456.991,1145.67 L461.764,1142.27 L463.156,1133.26 L462.126,1126.43 L462.161,1116.06 L464.946,1104.06 L467.332,1097.86 L474.889,1095.06 L482.248,1097.66 L487.617,1098.06 L487.816,1094.86 L490.998,1090.66 L488.413,1087.86 L482.049,1083.86 L475.486,1080.66 L469.321,1076.86 L467.332,1073.46 L470.713,1069.26 L472.503,1065.66 L473.696,1059.06 L475.884,1051.65 L480.06,1052.25 L484.037,1059.66 L489.208,1069.86 L495.771,1068.86 L500.743,1064.86 L507.305,1060.26 L514.266,1063.46 L517.448,1064.46 L518.243,1060.66 L519.039,1052.45 L521.226,1046.85 L523.812,1040.85 L525.999,1026.25 L539.92,1017.85 L542.904,1019.65 L543.5,1023.65 L544.892,1028.25 L546.483,1031.05 L549.864,1031.65 L554.04,1031.45 L559.211,1028.05 L560.802,1024.05 L565.774,1021.85 L569.751,1020.85 L572.535,1017.85 L577.308,1015.05 L581.485,1014.25 L584.07,1016.25 L590.434,1014.65 L597.991,1014.25 L601.969,1016.05 L602.565,1016.05 L607.935,1015.25 L609.327,1012.45 L607.935,1006.05 L606.145,1002.65 L607.736,997.644 L613.105,997.644 L622.651,996.844 L624.043,994.843 L621.458,991.643 L620.265,986.842 L622.055,981.84 L622.452,977.639 L623.661,971.85 L630.438,962.859 L639.953,954.633 L643.135,951.432 L643.732,945.431 L645.124,943.03 L647.51,939.829 L650.891,933.627 L652.084,927.425 L649.046,918.389 L649.101,912.821 L653.675,910.22 L657.852,908.62 L660.437,903.218 L660.039,893.214 L659.413,884.04 L665.147,876.314 L666.602,871.207 L670.778,865.404 L671.972,861.603 L672.568,855 L674.557,851.599 L678.733,845.797 L683.108,844.596 L689.399,843.575 L695.041,840.195 L697.626,838.194 L700.808,831.391 L707.768,823.187 L717.513,809.582 L719.701,802.378 L717.712,798.977 L715.326,791.573 L720.695,788.172 L722.485,784.77 L724.871,778.968 L727.457,771.964 L730.042,770.764 L732.031,774.565 L735.014,775.766 L739.787,772.765 L746.35,767.562 L748.14,764.561 L750.725,757.157 L753.31,752.955 L757.487,747.152 L760.072,740.148 L762.657,734.145 L770.413,725.941 L772.004,722.139 L773.993,716.336 L772.203,710.332 L770.214,704.729 L771.01,693.523 L772.004,686.118 L772.004,680.115 L768.424,675.712 L769.817,670.509 L774.987,665.706 L776.777,660.303 L776.379,655.9 L783.539,648.896 L786.522,642.492 L783.738,640.891 L779.228,634.009 L786.522,627.682 L792.289,623.68 L791.096,617.476 L795.67,612.272 L798.454,612.272 L804.221,609.671 L808,604.067 L811.977,599.464 L815.358,592.259 L813.767,586.855 L815.358,575.047 L820.586,572.44 L825.159,573.328 L828.5,571.087 L830.409,564.362 L831.841,561.64 L834.546,559.719 L835.978,556.836 L834.138,549.228 L833.655,545.625 L831.069,541.422 L829.876,532.615 L826.495,528.212 L825.243,527.312 L824.363,522.25 L832.159,514.885 L837.568,510.081 L843.296,505.437 L845.081,502.487 L845.976,501.447 L848.267,499.91 L853.613,498.18 L855.904,496.739 L857.014,495.673 L857.337,496.007 L857.537,496.016 L858.55,495.991 L858.886,495.735 L859.896,495.735 L860.877,494.874 L861.691,494.618 L862.407,494.758 L862.547,494.885 L862.674,495.476 L862.856,495.476 L863.234,495.166 L863.389,495.222 L863.445,495.447 L863.796,495.545 L864.188,495.165 L864.469,495.192 L864.61,495.841 L865.128,495.839 L865.325,495.981 L865.369,496.6 L864.12,496.813 L864.021,496.968 L864.26,497.096 L864.302,497.306 L863.867,497.646 L863.869,497.885 L864.332,498.111 L864.361,498.703 L865.188,498.799 L865.384,498.969 L865.526,499.87 L864.698,500.816 L864.966,501.167 L865.19,501.139 L865.554,500.617 L865.723,500.801 L865.837,501.448 L865.823,502.069 L865.303,502.591 L865.277,502.774 L865.571,503.013 L865.516,503.267 L865.053,503.662 L864.519,503.819 L864.478,504.142 L865.825,504.564 L867.425,504.689 L868.772,505.025 L872.165,505.047 L872.474,504.879 L872.782,504.877 L872.924,505.103 L874.017,505.101 L873.837,506.075 L876.2,506.528 L878.826,506.506 L879.681,507.337 L881.011,507.823 L882.482,507.1 L882.955,506.058 L883.442,505.464 L884.73,505.565 L885.239,505.503 L885.503,505.167 L885.857,504.992 L887.684,505.081 L887.846,504.978 L888.09,504.458 L888.333,504.223 L888.911,504.009 L889.185,503.508 L890.362,502.914 L890.788,502.169 L891.723,501.963 L892.179,501.597 L892.105,500.362 L893.344,499.87 L893.892,499.206 L894.633,499.083 L895.333,499.164 L896.104,498.755 L897.434,498.834 L897.911,498.568 L898.205,498.538 L899.069,499.302 L899.617,499.372 L900.034,499.566 L900.288,499.534 L900.946,498.839 L901.292,498.869 L901.536,499.053 L901.739,499.44 L901.872,500.235 L902.339,500.622 L903.497,500.51 L903.943,500.641 L904.554,501.374 L905.49,501.501 L906.07,501.493 L906.238,501.31 L906.369,500.301 L906.613,499.872 L906.947,499.648 L908.534,499.581 L908.992,499.764 L909.267,500.133 L909.216,500.54 L909.727,501.093 L909.806,501.909 L910.855,502.868 L911.053,503.447 L911.42,503.789 L911.721,504.882 L912.076,505.33 L912.863,505.579 L915.601,505.522 L916.229,505.784 L916.806,505.771 L918.272,504.833 L919.334,503.713 L919.778,503.567 L920.97,503.513 L921.416,503.631 L922.49,503.629 L923.133,503.878 L923.578,503.891 L924.285,503.429 L924.388,502.258 L924.703,501.718 L925.515,501.691 L926.052,502.216 L927.021,501.622 L927.808,502.174 L927.717,503.24 L928.071,503.78 L928.138,505.03 L928.375,505.306 L928.714,505.399 L929.069,505.056 L929.305,505.002 L929.554,505.173 L929.751,505.673 L930.144,506.12 L930.792,506.496 L932.658,507.148 L933.231,507.342 L934.976,507.535 L936.482,508.091 L936.985,507.921 L937.224,507.413 L937.296,506.76 L936.914,506.105 L937.131,505.565 L937.856,505.111 L938.336,504.965 L939.239,505.168 L939.675,505.562 L940.619,505.838 L940.897,506.144 L941.995,506.708 L943.501,507.239 L944.123,507.771 L945.199,509.028 L945.821,512.145 L946.181,512.46 L949.504,512.677 L950.223,512.845 L951.207,513.771 L951.469,514.53 L951.43,514.998 L951.624,515.559 L952.015,515.915 L954.863,517.546 L956.013,517.035 L956.321,517.129 L957.241,518.291 L957.85,518.858 L958.888,518.881 L959.379,519.381 L960.072,519.487 L960.488,519.997 L961.086,521.559 L962.348,523.309 L962.922,523.743 L965.288,524.445 L967.082,525.289 L968.063,525.966 L968.638,527.996 L969.307,528.673 L970.838,529.761 L971.889,530.365 L972.966,530.727 L974.544,530.969 L975.908,530.871 L976.816,531.21 L977.414,532.031 L978.825,535.462 L979.4,536.574 L980.261,537.565 L982.317,538.725 L982.939,539.305 L983.154,539.958 L982.94,540.925 L982.247,541.48 L981.84,542.012 L981.697,542.471 L982.678,544.767 L982.822,547.113 L982.751,548.78 L983.014,549.675 L983.684,550.785 L984.018,551.631 L984.617,555.063 L986.603,557.238 L988.039,559.39 L989.688,561.395 L991.148,565.02 L991.53,565.624 L992.152,566.107 L993.108,567.219 L993.491,567.872 L994.066,569.224 L994.496,571.159 L994.807,571.859 L995.287,572.439 L996.458,574.519 L997.702,575.943 L997.846,576.403 L998.396,577.007 L999.614,578.191 L1000.24,578.627 L1001.41,579.93 L1002.1,581.671 L1002.63,582.227 L1002.75,584.015 L1003.04,584.812 L1003.54,585.393 L1005.83,586.552 L1006.29,586.964 L1006.81,587.712 L1007.56,589.645 L1008.18,590.636 L1010.62,592.788 L1014.35,595.397 L1015.66,596.894 L1017.05,598.078 L1017.36,598.537 L1018.29,599.239 L1019.15,599.36 L1020.66,599.818 L1021.02,600.23 L1021.45,601.703 L1021.78,602.09 L1022.45,602.284 L1023.17,602.284 L1023.6,602.452 L1023.98,602.911 L1024.1,603.54 L1024.46,604.193 L1025.35,604.772 L1026.02,604.869 L1026.59,605.135 L1027,605.569 L1027.64,606.778 L1029.91,607.648 L1035.22,610.232 L1036.8,610.668 L1037.97,611.15 L1040.32,612.407 L1042.23,613.156 L1043.47,613.373 L1046.32,614.363 L1051.84,615.016 L1055.57,615.62 L1057.48,615.788 L1059.35,615.644 L1061.74,614.676 L1064.39,613.129 L1066.76,611.485 L1068.14,610.18 L1069.32,608.706 L1070.01,607.377 L1070.6,603.34 L1071.08,601.31 L1072.42,597.806 L1072.9,596.162 L1073.11,594.495 L1073.28,592.465 L1073.26,588.742 L1072.47,581.589 L1072.49,580.792 L1073.13,579.195 L1073.76,578.544 L1077.01,577.358 L1079.25,576.827 L1081.17,575.787 L1083.82,573.201 L1087.02,572.306 L1088.41,571.46 L1089.63,570.108 L1092.02,566.795 L1093,564.983 L1094.1,563.34 L1095.8,561.092 L1098.45,557.925 L1099.69,555.437 L1100.24,553.816 L1100.2,551.52 L1099.67,550.385 L1098.86,549.562 L1098.33,548.548 L1097.06,542.698 L1095.6,538.856 L1095.41,537.261 L1094.93,535.254 L1093.67,531.798 L1090.99,527.278 L1090.53,526.24 L1089.43,521.841 L1089.07,519.665 L1088.62,518.602 L1086.7,515.774 L1085.72,513.913 L1083.57,510.384 L1083.12,509.199 L1083.16,507.677 L1083.93,505.234 L1088.95,499.749 L1090.34,499.303 L1092.82,499.024 L1095.47,499.705 L1097.41,500.352 L1099.64,501.585 L1101.98,503.93 L1103.07,504.494 L1104.72,504.662 L1106.77,505.901 L1107.69,506.02 L1110.65,505.639 L1111.66,505.886 L1113.72,507.001 L1115.46,508.304 L1116.33,508.429 L1118.09,507.975 L1122.05,508.014 L1123.89,510.611 L1125.15,514.066 L1125.99,515.655 L1126.89,518.28 L1127.45,520.971 L1127.85,523.608 L1127.76,524.615 L1127.14,525.708 L1126.88,527.031 L1127.38,530.13 L1127.84,531.597 L1128.56,533.098 L1129,534.366 L1128.95,535.078 L1128.5,536.096 L1128.09,537.567 L1128.01,538.329 L1128.32,540.312 L1128.04,542.038 L1128.1,542.388 L1129.42,544.384 L1129.81,545.654 L1130.63,547.147 L1130.63,547.951 L1131.26,549.151 L1140.65,561.48 L1155.76,570.606 L1162.08,575.238 L1162.83,575.189 L1164.3,574.743 L1165.28,574.692 L1166.19,575.109 L1167.64,575.27 L1168.45,575.663 L1169.1,576.375 L1169.83,578.974 L1170.17,579.588 L1170.79,580.047 L1172.97,580.37 L1173.67,581.084 L1174.29,581.508 L1177.22,583.071 L1180.11,584.332 L1180.4,584.65 L1180.48,584.915 L1180.43,586.643 L1180.54,587.12 L1181.18,588.11 L1181.44,588.316 L1182.21,588.496 L1182.31,588.679 L1182.38,589.838 L1182.62,590.182 L1183.3,590.47 L1183.7,590.919 L1184.1,592.203 L1184.42,592.841 L1184.72,593.122 L1185.45,593.384 L1186.88,592.946 L1188.06,593.081 L1189.91,593.572 L1190.63,593.902 L1191.04,594.466 L1191.4,595.314 L1191.72,595.611 L1191.97,595.6 L1192.39,595.17 L1192.84,594.9 L1194,595.324 L1195,595.312 L1195.98,595.553 L1196.28,595.473 L1196.73,594.862 L1197.18,594.497 L1197.61,594.327 L1198.49,594.328 L1199.02,594.77 L1199.72,597.057 L1200.08,597.334 L1200.94,597.598 L1201.19,597.786 L1201.39,598.301 L1201.23,599.983 L1201.06,600.307 L1200.78,600.438 L1198.84,600.614 L1197.16,601.962 L1195.62,604.116 L1194.37,605.145 L1193.44,605.452 L1192.28,605.49 L1191.92,605.677 L1191.43,606.371 L1191.02,607.598 L1190.29,608.012 L1189.09,608.404 L1188.14,609.169 L1186.52,609.281 L1185.29,609.604 L1184.68,610.569 L1184.3,612.112 L1182.46,614.463 L1178.23,617.766 L1174.45,619.867 L1173.21,621.568 L1173.21,622.719 L1173.61,625.12 L1174.3,626.621 L1175,627.222 L1176.59,630.574 L1177.44,630.874 L1178.98,630.874 L1180.07,630.124 L1181.06,629.073 L1182.06,627.472 L1182.31,626.021 L1182.46,623.119 L1182.96,620.834 L1183.2,618.666 L1183.45,618.116 L1184.05,617.465 L1184.99,617.015 L1186.33,617.866 L1189.11,620.226 L1189.62,622.018 L1189.52,624.02 L1189.07,627.711 L1189,631.874 L1189.62,636.428 L1190.58,638.45 L1190.8,638.589 L1193.03,643.328 L1193.64,644.383 L1194.34,644.933 L1195.28,644.933 L1196.43,645.283 L1198.12,646.584 L1199.76,648.485 L1201,650.287 L1205.23,655.14 L1206.22,657.841 L1205.58,658.742 L1204.63,660.743 L1203.24,664.245 L1201.75,668.548 L1202.49,673.551 L1203.24,676.502 L1205.48,681.055 L1207.66,684.207 L1210.15,687.309 L1213.38,690.211 L1216.36,692.462 L1218.45,694.463 L1219.5,696.414 L1219.88,698.194 L1219.6,701.517 L1219.05,702.868 L1213.98,707.72 L1209.85,709.672 L1206.72,710.722 L1202.49,710.472 L1199.61,710.122 L1190.81,713.524 L1188.87,714.874 L1185.59,718.576 L1183.7,720.377 L1181.36,721.728 L1179.92,722.178 L1178.33,722.278 L1176.94,721.728 L1175.5,720.628 L1173.71,719.877 L1172.17,719.577 L1171.67,720.027 L1170.52,723.079 L1170.33,723.879 L1170.38,724.48 L1171.42,725.78 L1173.86,728.232 L1174.6,727.931 L1175.45,727.131 L1177.19,725.83 L1178.93,725.13 L1180.52,725.03 L1181.96,725.43 L1185.28,727.046 L1187.27,728.732 L1190.66,733.685 L1192.1,735.085 L1193.15,736.436 L1193.74,737.837 L1196.87,749.393 L1197.87,750.943 L1203.54,753.045 L1204.68,753.995 L1210.3,756.746 L1212.73,757.297 L1213.68,757.247 L1215.02,756.846 L1215.87,754.545 L1215.94,753.237 L1215.65,751.214 L1215.53,748.692 L1215.53,744.79 L1215.83,743.109 L1217.98,741.008 L1221.26,738.427 L1223.11,737.406 L1224.96,737.166 L1234.44,739.388 L1235.93,739.207 L1237.13,738.607 L1237.84,737.707 L1237.19,735.726 L1237.19,732.964 L1236.59,730.503 L1236.35,728.762 L1237.31,727.921 L1237.84,727.801 L1238.98,729.542 L1240.05,730.383 L1241.76,730.783 L1243.45,730.743 L1246.08,730.923 L1246.61,731.523 L1249.18,733.504 L1251.68,736.866 L1252.17,738.228 L1253.22,739.801 L1253.53,739.868 L1254.13,739.568 L1254.43,738.307 L1254.31,736.086 L1254.85,734.105 L1259.62,731.884 L1263.32,730.563 L1264.39,729.782 L1265.53,728.522 L1266.36,727.801 L1267.2,727.982 L1267.55,729.122 L1268.21,730.083 L1269.05,730.923 L1270.48,731.103 L1271.97,731.523 L1273.64,731.824 L1275.19,731.463 L1275.43,729.422 L1275.97,728.697 L1276.38,727.621 L1277.22,726.421 L1280.2,725.76 L1281.75,724.92 L1282.71,723.539 L1283.3,722.399 L1284.68,720.958 L1285.09,719.757 L1285.51,717.836 L1286.71,714.954 L1289.09,710.332 L1289.99,709.792 L1291.24,709.852 L1291.78,709.721 L1292.84,709.858 L1293.09,710.079 L1293.31,710.662 L1292.31,712.673 L1292.31,715.014 L1292.55,716.815 L1295.36,719.937 L1297.5,721.558 L1299.11,721.966 L1300.01,721.558 L1302.04,720.177 L1303.77,719.757 L1305.2,719.757 L1306.93,721.318 L1311.35,723.959 L1312.9,725.52 L1313.37,727.441 L1314.15,728.282 L1316.48,728.822 L1319.88,729.915 L1321.73,731.403 L1325.07,734.645 L1325.84,735.966 L1328.53,738.367 L1330.97,741.549 L1332.47,742.449 L1333.6,741.849 L1336.4,737.046 L1336.82,736.506 L1337.54,736.266 L1338.31,736.266 L1338.55,736.806 L1338.73,738.907 L1339.51,741.248 L1342.67,742.569 L1344.28,744.97 L1344.82,748.212 L1344.76,751.694 L1345.65,753.375 L1347.5,755.536 L1349.23,757.157 L1352.27,759.378 L1352.99,760.038 L1354.42,760.038 L1355.44,759.258 L1358.06,756.616 L1358.66,755.656 L1358.42,754.155 L1358.42,752.534 L1359.02,750.733 L1359.85,749.533 L1361.58,749.113 L1365.28,750.253 L1366.1,750.871 L1367.78,751.371 L1370.17,751.214 L1371.72,751.334 L1373.63,751.874 L1374.83,752.654 L1376.38,753.135 L1379.36,753.135 L1384.03,752.21 L1385.37,752.12 L1386.1,752.234 L1386.7,752.474 L1387.47,753.615 L1387.95,755.296 L1388.67,756.916 L1388.79,758.717 L1389.44,760.338 L1389.32,763.46 L1388.61,764.18 L1387.12,764.96 L1386.7,765.801 L1386.7,768.022 L1386.96,768.642 L1387.67,769.488 L1388.64,770.09 L1388.96,771.268 L1389.66,772.3 L1389.98,772.584 L1391.17,773.124 L1391.89,773.152 L1392.85,772.64 L1394.81,771.264 L1397.94,769.933 L1401.19,770.588 L1404.08,771.489 L1407.46,772.589 L1409.65,773.59 L1410.09,775.315 L1410.13,776.962 L1409.82,777.831 L1411.37,779.755 L1413.26,779.864 L1414.1,780.625 L1414.65,781.465 L1414.93,782.746 L1414.82,783.647 L1414.38,784.186 L1413.78,784.587 L1413.06,784.867 L1411.23,786.227 L1410.44,786.387 L1409.6,785.867 L1408.49,785.867 L1405.27,786.507 L1404.19,786.547 L1402.6,786.347 L1396.95,787.428 L1395.08,788.148 L1393.73,790.109 L1393.02,790.549 L1391.78,790.429 L1390.31,790.669 L1388.56,791.95 L1387.57,792.51 L1385.74,793.151 L1384.7,793.751 L1384.54,794.391 L1384.54,795.472 L1387.01,797.753 L1388.12,799.033 L1388.84,801.034 L1390.05,802.315 L1390.99,802.595 L1393.29,802.635 L1398.35,801.955 L1402.8,801.114 L1404.19,801.194 L1405.03,801.474 L1405.94,801.995 L1407.53,802.195 L1410.04,802.315 L1411.31,802.675 L1412.9,803.315 L1415.13,805.236 L1416.28,805.756 L1417.48,805.956 L1419.47,805.996 L1421.69,805.556 L1422.85,805.116 L1423.6,804.396 L1424.72,803.715 L1425.71,802.755 L1426.43,801.875 L1427.02,800.554 L1427.54,799.754 L1428.34,798.793 L1429.29,798.793 L1431.16,799.593 L1432.19,800.514 L1434.98,802.555 L1436.29,803.755 L1440.43,806.597 L1441.54,806.597 L1443.01,805.476 L1444.88,805.196 L1446.43,805.116 L1447.75,804.436 L1448.42,804.356 L1450.58,803.637 L1451.56,802.555 L1451.86,801.975 L1452.12,800.994 L1453.08,799.153 L1453.79,798.633 L1454.67,798.553 L1455.74,798.873 L1456.58,799.313 L1457.69,800.234 L1458.33,801.394 L1458.6,803.835 L1459.61,804.76 L1460.31,804.996 L1461.35,804.996 L1462.38,805.556 L1463.14,806.276 L1464.07,807.737 L1465.98,808.772 L1468.55,809.358 L1470.66,810.478 L1472.25,811.119 L1473.12,811.719 L1473.72,812.479 L1474.67,813.159 L1476.54,815.16 L1480.36,818.362 L1482.63,821.763 L1483.57,822.31 L1485.17,822.083 L1486.84,822.083 L1487.04,822.564 L1487.88,823.684 L1488,824.244 L1488,825.405 L1488.12,825.725 L1489.35,827.085 L1490.38,827.726 L1491.17,829.065 L1492.69,829.967 L1493.88,829.366 L1495.55,829.006 L1497.94,828.686 L1499.02,828.406 L1500.13,828.606 L1501.93,828.103 L1503.99,826.365 L1504.82,825.245 L1505.06,824.244 L1506.33,823.524 L1507.73,823.124 L1509.52,822.844 L1510.91,822.964 L1511.82,823.404 L1512.18,824.204 L1512.22,824.804 L1511.94,825.445 L1510.91,826.405 L1510.27,827.206 L1509.64,828.926 L1509.67,829.927 L1510.11,830.927 L1511.11,832.488 L1512.34,832.688 L1513.73,832.568 L1515,832.008 L1518.27,832.168 L1520.18,831.807 L1520.89,831.487 L1521.45,830.905 L1522,829.126 L1524.41,826.615 L1524.99,826.205 L1526.1,825.605 L1527.41,825.285 L1528.85,825.645 L1529.76,828.006 L1530.2,828.606 L1530.95,829.286 L1531.59,830.207 L1534.22,832.088 L1535.73,832.688 L1537,833.768 L1538.15,835.169 L1539.19,836.89 L1540.74,837.33 L1543.6,837.25 L1545.27,837.37 L1545.75,837.85 L1545.87,839.29 L1546.15,839.851 L1545.83,840.571 L1545.75,841.291 L1545.91,843.212 L1546.11,844.132 L1546.59,844.893 L1547.18,846.974 L1547.19,848.239 L1547.02,849.455 L1547.38,850.375 L1548.3,851.815 L1548.65,852.736 L1549.21,853.296 L1551.4,853.536 L1552.79,853.456 L1554.82,853.016 L1556.01,853.136 L1556.65,853.456 L1556.81,854.216 L1557.96,855.617 L1559.63,855.737 L1560.94,856.257 L1562.61,857.138 L1563.25,857.738 L1564.56,859.619 L1565.28,860.019 L1567.23,860.539 L1567.86,861.259 L1568.62,862.3 L1568.8,864.007 L1568.38,868.702 L1568.42,870.142 L1568.82,871.303 L1568.74,874.424 L1570.13,876.185 L1571.44,875.664 L1572.56,875.504 L1574.59,875.504 L1578.13,874.904 L1579.4,875.144 L1581.59,876.225 L1584.81,876.265 L1586.8,875.745 L1588.03,875.304 L1589.7,874.464 L1590.46,873.304 L1590.74,872.103 L1590.85,870.182 L1591.05,869.302 L1591.41,868.542 L1592.25,868.382 L1593.36,868.582 L1594.31,869.182 L1594.87,869.822 L1595.95,870.463 L1598.28,872.284 L1599.05,872.4 L1601.59,872.303 L1603.34,871.863 L1604.42,871.103 L1605.69,869.902 L1606.8,869.542 L1607.96,869.662 L1609.11,869.982 L1610.15,870.663 L1610.34,871.263 L1610.98,871.663 L1611.54,871.783 L1613.69,871.783 L1614.84,872.263 L1615.63,872.863 L1616.95,873.384 L1617.58,874.024 L1618.78,874.464 L1619.73,874.544 L1620.29,874.064 L1620.65,873.344 L1620.88,871.823 L1621.64,870.863 L1622.79,870.343 L1624.86,869.862 L1628.8,869.622 L1630.31,869.302 L1631.62,868.902 L1632.3,868.222 L1633.49,867.381 L1635.88,867.501 L1636.79,868.102 L1637.31,868.822 L1638.15,869.342 L1638.86,869.702 L1641.49,870.303 L1643.12,871.303 L1644.27,871.303 L1645.5,871.143 L1645.9,870.383 L1646.14,869.142 L1648.69,867.421 L1649.72,866.941 L1654.85,866.301 L1658.51,866.221 L1659.78,865.861 L1661.22,865.141 L1663.16,862.98 L1663.78,861.375 L1663.88,860.779 L1664.6,859.378 L1665.35,858.738 L1668.06,858.258 L1669.89,857.578 L1671.04,856.777 L1672.35,855.497 L1673.07,854.537 L1673.94,853.776 L1674.98,853.416 L1679.27,852.896 L1681.06,853.016 L1683.21,853.576 L1685.4,854.657 L1687.03,855.017 L1689.18,854.977 L1692.2,854.577 L1693.31,853.856 L1693.91,852.696 L1694.59,850.655 L1695.42,849.535 L1696.18,848.774 L1697.69,847.614 L1698.21,846.573 L1698.4,845.773 L1698.32,844.132 L1699.24,841.011 L1700.99,837.957 L1701.52,837.578 L1701.55,837.09 L1701.9,836.369 L1703.42,834.849 L1704.53,833.968 L1705.88,833.288 L1706.88,832.488 L1707.55,831.767 L1709.1,830.887 L1710.85,830.487 L1713.64,829.246 L1714.59,829.166 L1716.1,829.406 L1717.85,830.327 L1719.21,831.567 L1720.56,833.795 L1720.56,836.049 L1720.88,837.05 L1721.43,837.85 L1724.3,839.29 L1728.51,840.891 L1731.02,841.011 L1733.21,840.651 L1735.12,839.971 L1736.31,839.331 L1737.62,837.25 L1737.86,836.249 L1738.38,834.929 L1739.25,833.408 L1739.93,832.888 L1740.92,832.528 L1742.28,832.608 L1743.47,833.008 L1744.26,833.528 L1745.14,833.728 L1745.93,833.568 L1749.67,831.567 L1751.54,829.406 L1753.41,827.646 L1754.88,826.805 L1756.16,826.485 L1757.55,826.365 L1759.1,826.565 L1760.29,827.206 L1762.44,827.806 L1765.98,827.045 L1767.06,827.406 L1768.92,828.326 L1770.32,830.047 L1772.07,831.687 L1773.14,832.408 L1774.81,832.928 L1775.81,832.608 L1777.52,831.247 L1778.23,830.487 L1779.35,829.566 L1780.82,827.966 L1781.69,827.486 L1782.37,826.805 L1783.16,825.805 L1783.8,824.364 L1785.15,822.443 L1787.34,818.762 L1788.45,817.481 L1790.24,816.761 L1791.64,816.881 L1792.87,817.281 L1793.47,817.641 L1794.18,818.282 L1795.53,818.602 L1796.69,818.242 L1797.4,817.721 L1799.47,817.201 L1800.15,816.641 L1806.35,814.52 L1807.7,814.32 L1811.24,814.6 L1814.03,814.28 L1815.69,813.369 L1817.41,811.399 L1818.17,810.838 L1818.8,810.598 L1822.34,810.318 L1827.99,810.278 L1829.18,810.078 L1832.72,808.918 L1834.11,808.678 L1838.37,808.477 L1839.64,808.197 L1840.16,807.797 L1842.23,806.717 L1849.11,805.396 L1850.66,804.996 L1851.77,804.876 L1853.41,804.876 L1854.64,805.116 L1856.51,806.477 L1856.95,807.117 L1857.18,807.997 L1859.13,810.558 L1860.87,812.265 L1863.68,814.603 L1864.38,816.161 L1865.85,818.242 L1866.09,819.042 L1865.93,821.763 L1866.09,822.604 L1868.33,827.117 L1869,830.287 L1870.15,833.84 L1870.55,839.788 L1870.24,842.964 L1870.81,844.885 L1872.25,846.365 L1873.96,848.534 L1874.98,849.572 L1876.44,850.071 L1877.4,849.687 L1880.06,845.45 L1881.69,843.636 L1883.32,842.388 L1885.61,842.196 L1887.99,842.196 L1889.9,842.004 L1892.67,841.427 L1894.48,841.812 L1895.53,843.444 L1895.53,844.981 L1893.57,846.909 L1893.34,848.342 L1893.34,850.647 L1894.43,852.181 L1896.49,853.72 L1897.98,853.825 L1899.07,853.144 L1900.12,851.607 L1900.88,848.534 L1901.04,846.46 L1901.93,844.309 L1903.84,843.444 L1905.65,843.732 L1908.33,844.405 L1911.48,847.086 L1913.86,849.481 L1915.84,854.905 L1917.01,859.194 L1918.06,861.979 L1919.88,864.668 L1921.69,866.205 L1924.08,867.55 L1925.48,867.728 L1930.26,868.718 L1932.29,867.453 L1932.86,866.685 L1932.76,865.725 L1933.05,864.476 L1933.81,863.516 L1934.77,861.595 L1936.68,859.098 L1937.15,858.138 L1937.44,856.902 L1938.68,854.969 L1940.02,853.912 L1941.07,853.528 L1943.34,853.35 L1944.89,852.76 L1945.27,851.607 L1945.27,850.263 L1944.74,848.352 L1944.31,846.037 L1944.98,843.924 L1946.8,843.348 L1948.42,843.348 L1949.85,843.828 L1951.08,845.451 L1953,848.681 L1957.3,852.202 L1958.65,853.702 L1959.97,856.025 L1960.92,858.81 L1964.74,864.122 L1972.34,872.572 L1974.1,873.984 L1976.36,874.726 L1977.21,875.13 L1979.01,874.975 L1982.12,872.85 L1986.22,867.838 L1986.79,866.685 L1987.05,864.527 L1988.09,861.074 L1989.38,858.3 L1991.76,856.025 L1993.95,855.257 L1995.38,855.161 L1997.01,855.833 L1999.5,858.093 L2000.44,859.451 L2001.4,862.556 L2001.78,865.437 L2001.59,867.646 L2000.71,872.083 L2000.41,876.051 L2001.69,882.614 L2003.1,885.859 L2004.94,888.072 L2006.23,888.497 L2008.03,888.283 L2009.64,885.655 L2009.88,878.974 L2009.42,873.216 L2009.96,871.579 L2010.85,869.95 L2012.38,869.854 L2016.63,867.122 L2017.84,866.784 L2020.3,866.973 L2023.83,868.03 L2026.69,869.662 L2028.12,871.592 L2028.41,874.656 L2027.46,876.001 L2025.08,877.921 L2024.69,879.746 L2025.46,882.948 L2030.96,892.217 L2033.59,897.115 L2034.62,899.625 L2036.72,903.178 L2038.72,907.98 L2039.49,910.284 L2040.15,913.453 L2041.59,914.99 L2044.64,917.295 L2045.6,919.023 L2047.12,919.984 L2049.89,919.106 L2051.42,918.255 L2053.14,917.487 L2055.05,917.871 L2057,920.671 L2058.67,922.768 L2059.72,926.321 L2059.69,927.91 L2060.2,929.683 L2061.35,931.507 L2062.87,932.755 L2065.55,932.947 L2068.7,934.004 L2070.89,935.252 L2072.8,936.597 L2076.81,939.093 L2085.34,943.575 L2089.12,948.408 L2091.51,951.769 L2093.58,953.644 L2095.81,955.322 L2097.81,955.994 L2100.22,956.342 L2101.44,956.186 L2102.78,957.242 L2107.07,962.524 L2109.73,968.409 L2110.53,971.665 L2111.84,974.143 L2113.47,975.199 L2117.09,974.527 L2118.72,975.679 L2119.38,977.12 L2119.86,981.441 L2120.82,984.032 L2123.28,987.265 L2125.02,989.315 L2127.12,990.947 L2130.67,992.568 L2133.13,994.212 L2134.71,997.735 L2135.42,1001.32 L2140.02,1004.56 L2141.91,1005.54 L2144.97,1007.46 L2147.26,1009.29 L2155.95,1015.14 L2160.24,1018.51 L2160.81,1021.1 L2160.81,1023.02 L2159.31,1024.85 L2156.81,1027.13 L2152.8,1028.87 L2150.89,1029.36 L2148.98,1029.45 L2147.07,1029.36 L2143.82,1028.2 L2141.05,1027.43 L2137.71,1025.99 L2131.47,1023.56 L2128.17,1023.5 L2126.07,1024.27 L2124.54,1025.61 L2123.68,1027.53 L2123.39,1030.32 L2123.39,1033.1 L2125.47,1033.62 L2128.65,1033.62 L2133.61,1035.76 L2135.94,1038.57 L2135.45,1040.11 L2133.22,1043.39 L2130.67,1049.19 L2129.54,1055.83 L2129.31,1058.93 L2129.41,1061.04 L2129.89,1063.73 L2132.38,1066 L2134.53,1067.3 L2136.15,1067.87 L2139.43,1069.68 L2141.05,1071.18 L2141.76,1073.33 L2140.92,1076.11 L2138.38,1078.13 L2136.44,1078.98 L2128.26,1079.96 L2126.64,1080.82 L2124.64,1083.99 L2122.94,1085.58 L2121.49,1087.25 L2117.85,1087.31 L2116.33,1087.44 L2112.7,1091.28 L2111.56,1093.01 L2111.37,1094.65 L2111.37,1101.17 L2111.94,1106.65 L2114.54,1111.35 L2114.94,1117.21 L2114.8,1122.3 L2113.94,1125.75 L2112.32,1128.92 L2110.32,1130.17 L2108.98,1131.61 L2108.31,1134.87 L2109.27,1139.38 L2109.4,1140.59 L2108.6,1146.2 L2108.69,1151.87 L2108.6,1161.27 L2109.17,1163.87 L2111.08,1169.63 L2111.65,1173.47 L2111.21,1177.71 L2106.5,1186.04 L2105.07,1189.98 L2105.54,1192.48 L2107.08,1193.54 L2110.03,1193.63 L2112.42,1193.44 L2115.28,1192.57 L2117.76,1192.09 L2120.53,1192.75 L2122.12,1195.47 L2119.26,1201.87 L2115.6,1207.47 L2112.72,1212.51 L2111.84,1215.8 L2112.13,1219.16 L2113.18,1220.51 L2114.13,1221.08 L2116.67,1220.21 L2117.76,1219.26 L2118.24,1218.2 L2119,1217.15 L2120.41,1216.1 L2121.01,1215.15 L2123.08,1213.23 L2125.68,1213.13 L2127.5,1213.6 L2129.88,1212.84 L2130.56,1212.78 L2133.04,1211.68 L2134.47,1210.81 L2135.23,1208.99 L2135.01,1207.79 L2134.62,1207.27 L2133.61,1206.88 L2132.84,1205.63 L2132.58,1203.98 L2132.39,1201.02 L2132.71,1200.29 L2134.58,1197.26 L2136.08,1195.5 L2137.12,1195.13 L2138.32,1193.69 L2139.38,1190.71 L2141.9,1185.05 L2145,1183.95 L2147.58,1184.43 L2152.67,1186.51 L2154.19,1187.69 L2161.75,1190.58 L2165.38,1193.1 L2166.42,1194.01 L2168.39,1196.21 L2169.58,1198.37 L2170.53,1200.53 L2173.04,1204.13 L2174.47,1205.69 L2175.55,1206.17 L2177.92,1205.45 L2179.84,1203.89 L2179.72,1202.45 L2179.36,1201.37 L2177.93,1199.57 L2177.34,1196.45 L2177.81,1194.29 L2178.44,1192.75 L2180.21,1191.47 L2181.65,1191.47 L2183.34,1191.17 L2184.83,1190.57 L2186.82,1189.97 L2189.51,1189.47 L2191.4,1189.47 L2194.4,1190.43 L2195.77,1191.17 L2195.87,1192.67 L2197.44,1196.61 L2198.06,1199.07 L2200.15,1201.77 L2203.17,1204.57 L2205.81,1206.67 L2207.2,1207.97 L2208.5,1209.57 L2208.5,1211.37 L2207.11,1213.37 L2206.91,1215.17 L2208.48,1218.28 L2212.38,1221.07 L2214.27,1222.77 L2214.08,1226.35 L2211.93,1230.2 L2208.9,1233.47 L2206.11,1235.87 L2202.33,1239.87 L2199.65,1243.17 L2198.16,1246.17 L2197.36,1248.67 L2198.36,1252.07 L2200.64,1255.47 L2202.93,1256.37 L2206.01,1257.37 L2207.51,1258.67 L2209.2,1259.87 L2211.18,1262.07 L2211.55,1263.3 L2212.33,1264.11 L2215.83,1266.03 L2217.59,1266.09 L2220.29,1265.14 L2223.44,1265.21 L2224.71,1266.16 L2226.36,1267.88 L2226.7,1271.06 L2227.79,1273.66 L2230.08,1274.86 L2233.16,1274.86 L2236.54,1275.56 L2236.77,1275.72 L2239.72,1280.26 L2241.81,1282.26 L2244.2,1283.36 L2246.19,1283.86 L2247.78,1284.86 L2248.27,1286.16 L2248.47,1287.96 L2247.48,1288.96 L2246.68,1290.06 L2245.69,1291.76 L2245.19,1293.06 L2245.59,1294.36 L2246.54,1295.14 L2247.28,1296.36 L2247.01,1297.7 L2246.68,1298.56 L2243.42,1299.93 L2239.7,1301.91 L2237.63,1303.46 L2235.13,1304.46 L2232.07,1307.06 L2229.28,1308.66 L2226.5,1309.46 L2220.93,1309.86 L2218.84,1310.56 L2216.95,1312.16 L2215.17,1317.05 L2213.67,1320.56 L2213.37,1322.86 L2214.27,1324.66 L2215.06,1325.76 L2216.65,1327.06 L2218.63,1327.38 L2221.03,1327.56 L2223.32,1328.56 L2224.91,1329.56 L2225.5,1331.06 L2224.41,1334.26 L2224.41,1336.26 L2225.59,1340.59 L2225.01,1341.76 L2223.51,1342.96 L2220.23,1344.56 L2218.64,1345.06 L2213.87,1345.16 L2211.18,1346.46 L2209.99,1348.15 L2209.89,1349.55 L2209.3,1353.45 L2208.9,1354.55 L2207.8,1355.75 L2207.51,1357.05 L2207.9,1359.45 L2208.4,1361.55 L2209.2,1364.05 L2209.59,1366.05 L2210.39,1367.65 L2212.28,1370.65 L2215.26,1376.35 L2217.75,1378.15 L2220.09,1379.62 L2222.62,1380.75 L2227.59,1381.65 L2240.32,1383.45 L2245.99,1384.95 L2250.91,1385.59 L2254.04,1386.25 L2256.73,1387.45 L2257.42,1388.65 L2258.52,1390.15 L2258.81,1391.15 L2259.21,1396.55 L2258.91,1397.95 L2256.53,1399.35 L2255.23,1402.84 L2254.24,1406.34 L2254.83,1410.13 L2254.74,1414.34 L2255.43,1419.14 L2257.12,1423.94 L2259.67,1426.51 L2262.4,1427.06 L2265.19,1427.35 L2273.33,1430.64 L2275.32,1432.34 L2278.01,1434.14 L2279.39,1435.54 L2281.62,1437.38 L2286.63,1444.72 L2290.29,1451.44 L2293.02,1456.78 L2295.09,1459.84 L2297.2,1460.93 L2297.99,1460.53 L2298.79,1459.63 L2299.28,1458.73 L2300.28,1456.33 L2301.47,1455.23 L2303.46,1454.83 L2306.62,1454.75 L2307.68,1454.98 L2310.61,1456.48 L2315.8,1458.76 L2317.35,1460.01 L2318.3,1461.93 L2319.62,1463.3 L2320.67,1463.9 L2321.4,1464.03 L2323.07,1464.63 L2324.75,1465.41 L2327.31,1468.47 L2334.05,1473.09 L2335.95,1474.95 L2336.26,1476.93 L2335.78,1478.85 L2336.2,1481.01 L2337.54,1482.79 L2339.42,1484.5 L2341.69,1485.63 L2344.37,1486.65 L2349.56,1490.25 L2351.24,1491.75 L2353.14,1493.12 L2357.14,1495.82 L2362.27,1500.04 L2365.22,1504.06 L2368.24,1506.61 L2370.45,1507.16 L2372.41,1507.28 L2373.79,1508.24 L2374.98,1509.32 L2375.65,1510.19 L2377.63,1511.42 L2381.61,1514.3 L2384.65,1516.93 L2386.38,1517.48 L2387.33,1517.36 L2388.94,1516.64 L2389.78,1515.92 L2392.7,1514.12 L2394.43,1513.41 L2395.36,1512.69 L2396.22,1510.64 L2397.47,1509.2 L2399.02,1508.18 L2400.52,1507.58 L2402.01,1506.8 L2403.25,1503.26 L2402.77,1500.06 L2399.74,1495.94 L2398.37,1493.3 L2396.88,1492.41 L2394.25,1491.63 L2392.04,1490.49 L2390.43,1488.99 L2389.02,1486.81 L2388.05,1482.69 L2388.05,1480.65 L2388.58,1478.13 L2388.46,1476.27 L2387.81,1474.59 L2387.09,1474.05 L2384.98,1473.49 L2383.81,1471.77 L2382.97,1469.27 L2382.92,1467.45 L2383.15,1466.19 L2384.29,1465.05 L2386.2,1464.03 L2386.85,1463.97 L2389.54,1464.99 L2392.88,1465.11 L2394.67,1464.87 L2396.82,1463.91 L2398.13,1462.95 L2399.32,1461.51 L2400.69,1460.25 L2402.06,1459.21 L2403.09,1457.19 L2403.68,1454.04 L2403.92,1451.26 L2403.98,1447.96 L2404.45,1445.38 L2405.71,1440.82 L2406.02,1440.34 L2407.62,1438.9 L2410.19,1436.03 L2411.31,1434.94 L2413.7,1432.12 L2417.16,1427.2 L2419.25,1424.98 L2420.74,1424.56 L2422.83,1424.62 L2424.8,1424.86 L2426.11,1425.76 L2426.71,1426.84 L2427.6,1428.94 L2427.27,1430.44 L2426.86,1431.37 L2426.35,1431.88 L2425.39,1433.2 L2424.74,1434.76 L2424.56,1437.22 L2424.68,1439.26 L2425.75,1441.48 L2426.75,1442.45 L2429.21,1443.28 L2431.12,1444.6 L2433.33,1449.88 L2434.05,1452.88 L2434.16,1456.3 L2434.05,1458.64 L2433.57,1460.61 L2432.73,1462.17 L2431.18,1463.85 L2430.05,1465.89 L2428.97,1468.47 L2427.01,1475.43 L2426.77,1478.67 L2426.89,1480.17 L2426.17,1483.23 L2426.11,1484.97 L2426.71,1487.61 L2427.48,1489.95 L2428.74,1491.33 L2430.7,1491.93 L2432.32,1491.33 L2433.63,1490.37 L2434.7,1489.05 L2435.42,1486.95 L2437.45,1485.09 L2438.7,1484.25 L2440.43,1483.35 L2441.62,1482.39 L2442.82,1481.91 L2445.2,1481.97 L2447.11,1482.81 L2450.27,1485.15 L2455.52,1491.73 L2457.91,1493.9 L2459.16,1495.22 L2459.76,1497.69 L2460.01,1500.54 L2460.95,1501.04 L2462.39,1501.04 L2463.27,1500.75 L2464.68,1499.79 L2467.12,1499.19 L2467.81,1498.44 L2468.66,1497.24 L2469.4,1496.49 L2470.8,1496.24 L2472.44,1496.59 L2474.03,1498.84 L2474.63,1500.29 L2475.57,1501.44 L2476.46,1502.04 L2481.24,1501.79 L2483.57,1501.24 L2487.5,1499.49 L2489.44,1499.94 L2491.13,1500.69 L2494.31,1502.89 L2495.76,1504.14 L2497.25,1505.19 L2498.89,1505.54 L2500.03,1505.34 L2500.88,1504.99 L2501.32,1502.14 L2502.52,1501.64 L2503.91,1501.79 L2505.6,1502.59 L2506.44,1503.79 L2507.69,1506.69 L2508.48,1509.14 L2508.78,1511.29 L2508.09,1518.14 L2508.09,1520.09 L2508.33,1521.54 L2509.33,1522.73 L2510.52,1522.98 L2511.71,1522.19 L2512.26,1521.44 L2513.16,1519.74 L2513.8,1518.94 L2515.2,1518.34 L2516.59,1518.14 L2517.68,1518.39 L2519.47,1519.04 L2522.39,1521.42 L2523.53,1523.08 L2524.18,1525.11 L2524.12,1526.32 L2524.56,1530.28 L2525.16,1531.92 L2526.31,1533.24 L2527.43,1533.92 L2528.62,1534 L2530.01,1533.64 L2532.04,1531.76 L2534.35,1527.36 L2534.55,1526.2 L2534.55,1521.33 L2535.22,1518.81 L2536.1,1517.65 L2537.93,1517.01 L2539.12,1516.29 L2540.15,1516.17 L2543.34,1516.17 L2545.84,1515.97 L2547.23,1515.73 L2548.98,1515.01 L2550.26,1514.93 L2553.24,1515.09 L2554.47,1515.53 L2558.53,1517.77 L2561.07,1518.57 L2562.03,1519.05 L2562.98,1520.21 L2563.74,1521.45 L2567.92,1525.28 L2569.27,1527.04 L2572.49,1529.52 L2574.32,1531.24 L2575.83,1533.28 L2577.3,1534.8 L2581.12,1538.12 L2582.67,1540.2 L2584.38,1543.52 L2585.85,1545.68 L2588.28,1549.04 L2592.15,1553.61 L2593.65,1554.95 L2595.8,1556.31 L2598.58,1558.75 L2600.21,1559.88 L2604.24,1563.2 L2604.55,1563.63 L2605.07,1564.95 L2607.85,1569.55 L2608.4,1571.74 L2607.76,1572.69 L2603.83,1574.19 L2602.16,1574.19 L2599.58,1573.79 L2593.89,1571.75 L2590.03,1568.19 L2584.98,1564.35 L2584.14,1563.87 L2581.88,1563.67 L2580.25,1563.71 L2577.82,1564.47 L2575.67,1565.43 L2574.04,1566.67 L2572.09,1568.59 L2570.7,1570.27 L2570.58,1571.31 L2571.26,1572.59 L2572.49,1573.27 L2574.32,1573.43 L2577.34,1573.27 L2580.01,1572.67 L2583.23,1571.71 L2586.21,1571.43 L2588.52,1571.75 L2589.91,1572.63 L2590.67,1573.87 L2591.38,1574.71 L2592.31,1576.1 L2593.13,1577.7 L2593.97,1581.26 L2596.32,1589.23 L2598.22,1594.34 L2599.26,1600.89 L2599.5,1603.13 L2599.97,1604.93 L2600.81,1606.13 L2601.78,1606.96 L2603.12,1607.65 L2604.95,1608.09 L2605.94,1608.69 L2607.01,1609.69 L2608.09,1610.96 L2609.86,1612.38 L2610.31,1613.13 L2610.48,1614.37 L2612.34,1619.48 L2613.34,1621.42 L2613.69,1622.47 L2614.23,1625.47 L2614.23,1626.52 L2614.73,1627.97 L2614.98,1629.32 L2615.87,1630.32 L2616.52,1630.27 L2617.96,1629.57 L2621.44,1626.82 L2621.84,1625.67 L2623.78,1622.57 L2624.77,1620.43 L2625.62,1618.43 L2626.27,1616.18 L2625.88,1614.37 L2624.39,1611.15 L2623.58,1610.13 L2622.93,1608.73 L2622.19,1605.03 L2622.34,1604.08 L2623.13,1603.33 L2625.87,1603.63 L2630.39,1604.73 L2632.68,1605.13 L2637.3,1604.68 L2640.53,1603.33 L2641.43,1602.68 L2642.17,1601.68 L2644.41,1597.79 L2646.95,1593.74 L2648.89,1591.74 L2652.07,1587.34 L2653.31,1586.54 L2656.39,1585.24 L2657.84,1585.29 L2659.78,1585.59 L2662.41,1586.69 L2666.64,1587.99 L2669.47,1588.19 L2671.31,1589.04 L2672.35,1589.79 L2674.44,1592.04 L2675.68,1593.94 L2677.33,1597.11 L2677.67,1602.43 L2677.28,1608.63 L2676.73,1610.13 L2674.29,1613.23 L2672.15,1614.13 L2668.72,1614.59 L2665.89,1614.68 L2663.65,1615.33 L2661.81,1616.03 L2660.52,1617.68 L2660.77,1619.83 L2661.71,1620.73 L2663.6,1621.08 L2665.09,1620.68 L2666.04,1619.83 L2667.93,1618.68 L2669.42,1618.68 L2671.11,1618.88 L2672.5,1619.33 L2673.75,1620.03 L2678.42,1621.52 L2682.65,1623.42 L2684.73,1623.92 L2687.07,1624.77 L2689.26,1626.47 L2689.85,1629.22 L2689.9,1629.97 L2689.66,1631.27 L2689.06,1632.52 L2688.61,1633.82 L2688.61,1634.97 L2688.81,1636.62 L2689.26,1637.82 L2691.24,1639.94 L2692.49,1641.12 L2693.78,1641.22 L2695.62,1639.82 L2696.77,1639.12 L2698.36,1639.27 L2699.4,1639.82 L2700.44,1641.77 L2701.74,1644.66 L2702.63,1646.11 L2703.48,1646.91 L2707.31,1649.41 L2709.19,1651.04 L2710.84,1652.14 L2712.08,1652.26 L2718.44,1655.16 L2719.59,1656.11 L2721.03,1657.56 L2724.56,1661.46 L2725.65,1661.76 L2727.09,1661.61 L2728.58,1661.66 L2732.81,1662.36 L2733.95,1662.76 L2735.99,1662.91 L2736.84,1662.51 L2737.58,1661.81 L2738.15,1660.46 L2738.15,1657.31 L2737.93,1655.56 L2738.7,1652.02 L2738.79,1650.16 L2738.63,1646.16 L2738.07,1641.52 L2738.15,1637.12 L2740.54,1633.05 L2743.24,1629.05 L2745.23,1625.69 L2747.46,1623.8 L2747.66,1622.35 L2747.44,1619.62 L2746.9,1619.21 L2744.83,1616.97 L2742.68,1610.1 L2743,1608.34 L2744.04,1606.18 L2747.7,1600.74 L2748.9,1598.17 L2749.13,1596.74 L2749.29,1592.9 L2750.11,1587.71 L2751.91,1581.47 L2752.87,1578.99 L2754.06,1577.63 L2755.57,1576.91 L2756.92,1576.99 L2758.52,1577.87 L2758.57,1579.53 L2759.31,1581.39 L2760.15,1581.11 L2763.92,1580.99 L2766.63,1581.07 L2768.7,1581.39 L2771,1582.35 L2772.36,1583.47 L2773.56,1585.1 L2773.95,1585.3 L2774.41,1585.97 L2776.31,1587.11 L2778.76,1586.45 L2779.89,1585.61 L2780.43,1583.99 L2780.25,1582.31 L2780.25,1580.69 L2781.21,1579.79 L2782.4,1578.95 L2784.67,1578.35 L2788.84,1578.59 L2789.68,1579.61 L2789.86,1582.19 L2789.74,1583.99 L2789.8,1585.67 L2790.57,1587.29 L2792.78,1588.19 L2793.97,1589.21 L2794.39,1590.41 L2795.05,1595.5 L2795.76,1596.76 L2798.33,1600.36 L2804.12,1603.24 L2804.83,1605.1 L2805.91,1606.78 L2806.38,1608.16 L2807.28,1609.72 L2808.83,1610.98 L2810.36,1610.83 L2811.22,1610.62 L2813.48,1609.18 L2816.68,1607.57 L2820.94,1606.12 L2823.22,1606.01 L2824.76,1606.54 L2825.84,1610.3 L2826.85,1612.66 L2827.21,1614.39 L2827.86,1616.31 L2827.92,1617.45 L2826.85,1618.53 L2825.66,1618.58 L2824.58,1618.17 L2824.58,1617.19 L2823.57,1615.77 L2821.36,1615.17 L2818.49,1615.17 L2814.14,1616.07 L2813.13,1616.91 L2812.83,1618.35 L2812.11,1620.27 L2811.81,1622.07 L2812.11,1624.65 L2812.17,1629.09 L2812.35,1632.51 L2812.71,1634.49 L2812.89,1636.34 L2812.65,1638.56 L2812.95,1642.28 L2813.01,1645.52 L2812.65,1647.44 L2811.63,1648.94 L2810.14,1650.26 L2809.13,1652.36 L2808.41,1655.48 L2808.65,1657.39 L2807.64,1660.45 L2804.47,1667.41 L2801.01,1673.83 L2800.11,1676.04 L2798.74,1677.23 L2797.44,1677.8 L2794.93,1678.08 L2794.09,1678.74 L2793.74,1679.52 L2793.74,1680.54 L2794.49,1681.43 L2795.47,1683.78 L2796.54,1685.04 L2797.55,1686.66 L2798.15,1688.22 L2798.69,1689.9 L2799.01,1692.02 L2799.05,1694.1 L2799.52,1696.19 L2800.06,1697.39 L2801.19,1698.11 L2803.14,1698.71 L2807.88,1699.55 L2809.72,1700.45 L2811.1,1701.53 L2812.47,1704.41 L2812.83,1708.79 L2812.59,1712.21 L2812.65,1713.82 L2813.06,1715.45 L2814.74,1718.92 L2815.69,1720.18 L2816.71,1720.66 L2817.3,1720.72 L2817.78,1721.32 L2818.14,1722.28 L2818.49,1725.64 L2818.44,1727.32 L2818.67,1728.88 L2819.09,1730.26 L2817.84,1732.77 L2816.94,1733.97 L2817,1734.99 L2815.63,1736.97 L2815.22,1738.01 L2813.63,1739.76 L2811.63,1740.15 L2809.9,1740.99 L2807.76,1741.83 L2806.62,1743.15 L2803.82,1746.87 L2800.36,1748.72 L2798.27,1750.1 L2795.05,1751.12 L2793.74,1752.56 L2793.08,1753.76 L2792.66,1755.26 L2792.84,1757 L2793.85,1759.88 L2795.16,1762.16 L2796.42,1763.66 L2798.45,1765.63 L2799.88,1768.45 L2806.65,1780.81 L2808.41,1786.5 L2808.77,1788.6 L2808.23,1792.98 L2808.17,1795.44 L2806.74,1802.33 L2806.86,1803.77 L2807.76,1806.17 L2808.71,1807.79 L2810.14,1809.35 L2809.84,1811.03 L2809.61,1813.42 L2809.61,1815.94 L2809.9,1819.12 L2809.78,1821.04 L2809.49,1822.6 L2809.31,1824.64 L2807.82,1826.74 L2807.58,1827.69 L2808.05,1828.47 L2809.55,1829.25 L2811.16,1829.49 L2812.71,1830.69 L2813.54,1831.59 L2815.93,1832.97 L2816.23,1833.99 L2816.05,1836.33 L2816.17,1838.13 L2815.63,1839.45 L2813.3,1840.59 L2812.37,1842.42 L2812.77,1848.32 L2813.62,1849.84 L2816.59,1851.74 L2816.65,1853.06 L2816.11,1854.8 L2815.93,1856.18 L2815.99,1857.19 L2816.59,1858.27 L2818.91,1858.99 L2820.58,1859.77 L2824.16,1860.79 L2831.44,1860.61 L2833.29,1860.19 L2836.04,1860.07 L2836.57,1860.31 L2837.05,1861.51 L2836.69,1862.77 L2836.57,1864.51 L2837.47,1866.97 L2838.3,1867.87 L2838.12,1870.68 L2837.71,1871.82 L2836.04,1873.2 L2833.77,1873.86 L2832.63,1874.94 L2832.22,1876.14 L2832.46,1879.98 L2832.81,1881.54 L2835,1884.29 L2835.74,1887.83 L2839.2,1891.25 L2840.03,1892.63 L2840.99,1893.83 L2842.42,1895.09 L2843.37,1896.41 L2846.48,1897.13 L2847.25,1899.46 L2846.89,1902.7 L2847.31,1905.1 L2847.31,1910.68 L2847.49,1914.03 L2847.37,1915.83 L2847.91,1917.81 L2849.76,1922.13 L2850.47,1924.58 L2850.59,1927.1 L2851.07,1928.6 L2852.92,1930.28 L2856.26,1932.8 L2858.78,1934.89 L2861.26,1937.97 L2861.51,1939.93 L2861.87,1940.95 L2862.7,1942.09 L2864.32,1943.35 L2865.75,1946.05 L2866.64,1948.15 L2869.26,1949.84 L2870.82,1950.42 L2872.25,1951.56 L2872.91,1952.52 L2873.09,1955.24 L2872.73,1956.6 L2872.24,1957.55 L2872.19,1959.84 L2872.37,1962.17 L2873.09,1963.07 L2874.52,1964.39 L2875.83,1965.29 L2880.92,1966.94 L2881.9,1967.69 L2884.84,1967.75 L2886.99,1968.35 L2890.86,1970.63 L2893.31,1973.03 L2897.13,1973.03 L2899.69,1973.33 L2900.95,1974.28 L2902.02,1975.72 L2902.74,1977.16 L2904.53,1978.78 L2906.56,1981.6 L2905.66,1982.56 L2904.21,1985.52 L2903.51,1987.41 L2904.65,1988.85 L2905.78,1990.95 L2907.51,1992.75 L2908.35,1994.07 L2908.29,1996.17 L2906.91,1998.14 L2904.47,2000.36 L2904.31,2001.14 L2903.63,2001.8 L2902.68,2003.36 L2901.25,2004.86 L2900.77,2007.08 L2900.95,2013.61 L2900.47,2016.61 L2899.52,2017.75 L2898.4,2019.59 L2896.65,2020.87 L2896.17,2022.3 L2896.35,2023.5 L2897.31,2025.12 L2899,2025.54 L2901.07,2028.3 L2902.38,2031.96 L2905.72,2037.29 L2909.96,2042.27 L2911.27,2045.38 L2911.48,2046.53 L2910.34,2049.36 L2908.76,2052.16 L2907.39,2052.52 L2902.98,2050.48 L2898.92,2048.32 L2897.01,2047.96 L2895.7,2048.14 L2893.25,2049.04 L2890.88,2049.73 L2887.58,2050.3 L2885.26,2050.3 L2883.41,2049.72 L2881.92,2048.8 L2880.07,2048.68 L2878.04,2049.1 L2875.53,2050.78 L2874.76,2051.74 L2873.38,2054.26 L2873.15,2058.39 L2873.56,2061.03 L2873.62,2063.19 L2873.98,2065.88 L2875.47,2070.92 L2876.84,2073.5 L2877.38,2078.11 L2876.96,2080.45 L2877.2,2083.15 L2877.46,2089.99 L2876.84,2093.82 L2876.49,2095.14 L2874.52,2097.12 L2872.31,2097.89 L2870.52,2099.15 L2868.85,2101.97 L2868.91,2105.21 L2869.39,2108.92 L2871.15,2109.8 L2872.43,2111.26 L2874.93,2112.82 L2876.49,2114.2 L2879.47,2116.18 L2880.59,2118.04 L2884.96,2122.82 L2888.78,2125.29 L2890.51,2126.73 L2892.48,2127.87 L2895.16,2128.71 L2896.77,2129.6 L2897.96,2131.04 L2897.96,2132.12 L2897.31,2134.22 L2897.07,2137.1 L2896.41,2141.17 L2894.75,2148.19 L2894.2,2148.84 L2892,2150.28 L2887.4,2151.84 L2882.63,2153.22 L2880.78,2153.16 L2879.05,2152.44 L2876.09,2150.59 L2871.83,2149.02 L2865.75,2147.23 L2862.35,2147.17 L2859.9,2147.71 L2858.95,2148.37 L2857.93,2149.56 L2858.05,2151.54 L2859.66,2154.66 L2861.75,2155.98 L2864.32,2157.84 L2869.04,2160.13 L2872.97,2162.75 L2876.19,2164.37 L2879.23,2166.65 L2881.14,2168.74 L2881.32,2171.2 L2880.9,2173.78 L2879.47,2177.44 L2878.57,2178.1 L2877.38,2178.63 L2874.4,2178.63 L2868.22,2180.83 L2864.1,2181.92 L2862.82,2182.53 L2860.99,2183.82 L2861.35,2182.65 L2861.24,2177.13 L2865.78,2171.86 L2867.21,2167.3 L2865.06,2165.63 L2853.37,2167.78 L2846.93,2169.7 L2838.33,2171.14 L2832.13,2171.38 L2821.71,2171.3 L2813.28,2169.7 L2807.87,2165.89 L2800.87,2160.35 L2791.52,2160.53 L2751.45,2158.77 L2736.99,2159.32 L2711.14,2158.92 L2700,2144.13 L2687.67,2138.54 L2656.65,2139.74 L2628.01,2138.14 L2606.53,2139.34 L2579.09,2135.74 L2532.55,2135.34 L2480.05,2134.54 L2439.48,2132.54 L2404.48,2128.95 L2369.87,2126.95 L2300.67,2128.95 L2268.05,2130.15 L2246.18,2126.95 L2232.65,2116.16 L2223.5,2104.17 L2218.33,2090.98 L2212.76,2073.8 L2206.4,2058.61 L2202.03,2043.43 L2196.37,2030.45 L2190.09,2025.44 L2170.21,2021.85 L2149.13,2024.24 L2126.85,2025.04 L2103.78,2023.45 L2077.33,2017.17 L2047.7,2015.85 L2009.52,2018.25 L1984.06,2017.05 L1895.36,2016.65 L1854.25,2019.82 L1839.28,2018.25 L1827.35,2015.45 L1813.43,2017.05 L1805.08,2013.05 L1796.72,2011.86 L1784.79,2015.05 L1778.03,2021.45 L1764.79,2042.76 L1757.75,2053.42 L1762.12,2057.42 L1772.86,2058.61 L1780.81,2066.21 L1776.04,2074.2 L1771.67,2082.99 L1766.89,2095.38 L1756.15,2101.77 L1733.88,2108.57 L1719.16,2113.36 L1695.7,2116.96 L1666.26,2118.56 L1623.71,2119.76 L1585.82,2121.51 L1539.38,2123.35 L1483.7,2128.95 L1459.44,2132.54 L1450.29,2142.53 L1444.72,2160.52 L1445.12,2175.3 L1447.11,2185.29 L1446.71,2192.88"/>
  </g>
  <g stroke-width="1" transform="matrix(0.999744,0,0,0.999744,0,0)" stroke-opacity="1" font-size="34.5833" fill="none" stroke-linejoin="bevel" font-style="normal" stroke-linecap="square" stroke="#000000" font-family="MS Shell Dlg 2" font-weight="400"/>
  <g stroke-width="1" transform="matrix(11.808,0,0,11.808,0,0)" stroke-opacity="1" font-size="34.5833" fill="none" stroke-linejoin="bevel" font-style="normal" stroke-linecap="square" stroke="#000000" font-family="MS Shell Dlg 2" font-weight="400"/>
  <g stroke-width="1" transform="matrix(11.808,0,0,11.808,0,0)" stroke-opacity="1" font-size="34.5833" fill="none" stroke-linejoin="bevel" font-style="normal" stroke-linecap="square" stroke="#000000" font-family="MS Shell Dlg 2" font-weight="400"/>
  <g stroke-width="1" transform="matrix(11.808,0,0,11.808,0,0)" stroke-opacity="1" font-size="34.5833" fill="none" stroke-linejoin="bevel" font-style="normal" stroke-linecap="square" stroke="#000000" font-family="MS Shell Dlg 2" font-weight="400"/>
  <g stroke-width="1" transform="matrix(1,0,0,1,0,0)" stroke-opacity="1" font-size="34.5833" fill="none" stroke-linejoin="bevel" font-style="normal" stroke-linecap="square" stroke="#000000" font-family="MS Shell Dlg 2" font-weight="400"/>
  <g stroke-width="1" transform="matrix(11.808,0,0,11.808,0,0)" stroke-opacity="1" font-size="34.5833" fill="none" stroke-linejoin="bevel" font-style="normal" stroke-linecap="square" stroke="#000000" font-family="MS Shell Dlg 2" font-weight="400"/>
  <g stroke-width="1" transform="matrix(11.808,0,0,11.808,0,0)" stroke-opacity="1" font-size="34.5833" fill="none" stroke-linejoin="bevel" font-style="normal" stroke-linecap="square" stroke="#000000" font-family="MS Shell Dlg 2" font-weight="400"/>
  <g stroke-width="1" transform="matrix(11.808,0,0,11.808,0,0)" stroke-opacity="1" font-size="34.5833" fill="none" stroke-linejoin="bevel" font-style="normal" stroke-linecap="square" stroke="#000000" font-family="MS Shell Dlg 2" font-weight="400"/>
  <g stroke-width="1" transform="matrix(11.808,0,0,11.808,0,0)" stroke-opacity="1" font-size="34.5833" fill="none" stroke-linejoin="bevel" font-style="normal" stroke-linecap="square" stroke="#000000" font-family="MS Shell Dlg 2" font-weight="400"/>
  <g stroke-width="1" transform="matrix(1,0,0,1,0,0)" stroke-opacity="1" font-size="34.5833" fill="none" stroke-linejoin="bevel" font-style="normal" stroke-linecap="square" stroke="#000000" font-family="MS Shell Dlg 2" font-weight="400"/>
 </g>
</svg>
