<?xml version='1.0' encoding='UTF-8' standalone='no'?>
<svg xmlns:xlink="http://www.w3.org/1999/xlink" baseProfile="tiny" xmlns="http://www.w3.org/2000/svg" height="249.936mm" viewBox="0 0 2952 2952" width="249.936mm" version="1.2">
 <title>Qt SVG Document</title>
 <desc>Generated with Qt</desc>
 <defs/>
 <g stroke-width="1" fill-rule="evenodd" fill="none" stroke-linejoin="bevel" stroke-linecap="square" stroke="black">
  <g stroke-width="1" transform="matrix(1,0,0,1,0,0)" stroke-opacity="1" font-size="34.5833" fill="none" stroke-linejoin="bevel" font-style="normal" stroke-linecap="square" stroke="#000000" font-family="MS Shell Dlg 2" font-weight="400"/>
  <g stroke-width="1" transform="matrix(1,0,0,1,0,0)" stroke-opacity="1" font-size="34.5833" fill="none" stroke-linejoin="bevel" font-style="normal" stroke-linecap="square" stroke="#000000" font-family="MS Shell Dlg 2" font-weight="400"/>
  <g stroke-width="1" transform="matrix(11.808,0,0,11.808,0,0)" stroke-opacity="1" font-size="34.5833" fill="none" stroke-linejoin="bevel" font-style="normal" stroke-linecap="square" stroke="#000000" font-family="MS Shell Dlg 2" font-weight="400"/>
  <g stroke-width="1" transform="matrix(0.999744,0,0,0.999744,0,0)" stroke-opacity="1" font-size="34.5833" fill="none" stroke-linejoin="bevel" font-style="normal" stroke-linecap="square" stroke="#000000" font-family="MS Shell Dlg 2" font-weight="400"/>
  <g transform="matrix(0.999744,0,0,0.999744,0,0)" font-size="34.5833" fill-opacity="0" fill="#ffffff" font-style="normal" stroke="none" font-family="MS Shell Dlg 2" font-weight="400">
   <path fill-rule="evenodd" vector-effect="none" d="M-2,-2 L2955,-2 L2955,2955 L-2,2955 L-2,-2"/>
  </g>
  <g stroke-width="1" transform="matrix(0.999744,0,0,0.999744,0,0)" stroke-opacity="1" font-size="34.5833" fill="none" stroke-linejoin="bevel" font-style="normal" stroke-linecap="square" stroke="#000000" font-family="MS Shell Dlg 2" font-weight="400"/>
  <g stroke-width="1" transform="matrix(11.808,0,0,11.808,0,0)" stroke-opacity="1" font-size="34.5833" fill="none" stroke-linejoin="bevel" font-style="normal" stroke-linecap="square" stroke="#000000" font-family="MS Shell Dlg 2" font-weight="400"/>
  <g stroke-width="1" transform="matrix(11.808,0,0,11.808,0,0)" stroke-opacity="1" font-size="34.5833" fill="none" stroke-linejoin="bevel" font-style="normal" stroke-linecap="square" stroke="#000000" font-family="MS Shell Dlg 2" font-weight="400"/>
  <g stroke-width="1" transform="matrix(11.808,0,0,11.808,0,0)" stroke-opacity="1" font-size="34.5833" fill="none" stroke-linejoin="bevel" font-style="normal" stroke-linecap="square" stroke="#000000" font-family="MS Shell Dlg 2" font-weight="400"/>
  <g stroke-width="1" transform="matrix(11.808,0,0,11.808,0,0)" stroke-opacity="1" font-size="34.5833" fill="none" stroke-linejoin="bevel" font-style="normal" stroke-linecap="square" stroke="#000000" font-family="MS Shell Dlg 2" font-weight="400"/>
  <g stroke-width="1" transform="matrix(11.808,0,0,11.808,0,0)" stroke-opacity="1" font-size="34.5833" fill="none" stroke-linejoin="bevel" font-style="normal" stroke-linecap="square" stroke="#000000" font-family="MS Shell Dlg 2" font-weight="400"/>
  <g transform="matrix(11.808,0,0,11.808,0,0)" font-size="34.5833" fill-opacity="0" fill="#ffffff" font-style="normal" stroke="none" font-family="MS Shell Dlg 2" font-weight="400">
   <path fill-rule="evenodd" vector-effect="none" d="M0,0 L250,0 L250,250 L0,250 L0,0"/>
  </g>
  <g stroke-width="1" transform="matrix(11.808,0,0,11.808,0,0)" stroke-opacity="1" font-size="34.5833" fill="none" stroke-linejoin="bevel" font-style="normal" stroke-linecap="square" stroke="#000000" font-family="MS Shell Dlg 2" font-weight="400"/>
  <g stroke-width="1" transform="matrix(11.808,0,0,11.808,0,0)" stroke-opacity="1" font-size="34.5833" fill="none" stroke-linejoin="bevel" font-style="normal" stroke-linecap="square" stroke="#000000" font-family="MS Shell Dlg 2" font-weight="400"/>
  <g transform="matrix(0.999744,0,0,0.999744,0,0)" font-size="34.5833" fill-opacity="0" fill="#000000" font-style="normal" stroke="none" font-family="MS Shell Dlg 2" font-weight="400">
   <rect x="0" height="2953" width="2953" y="0"/>
  </g>
  <g stroke-width="1" transform="matrix(0.999744,0,0,0.999744,0,0)" stroke-opacity="1" font-size="34.5833" fill="none" stroke-linejoin="bevel" font-style="normal" stroke-linecap="square" stroke="#000000" font-family="MS Shell Dlg 2" font-weight="400"/>
  <g stroke-width="3.07087" transform="matrix(0.999744,0,0,0.999744,0,0)" stroke-opacity="1" font-size="34.5833" fill-opacity="1" fill="#c5c5c5" stroke-linejoin="bevel" font-style="normal" stroke-linecap="square" stroke="#5c5c5c" font-family="MS Shell Dlg 2" font-weight="400">
   <path fill-rule="evenodd" vector-effect="none" d="M1619.51,2336.35 L1613.61,2352.82 L1597.22,2369.28 L1590.01,2396.28 L1588.7,2408.79 L1606.4,2441.72 L1613.61,2445.01 L1620.82,2458.18 L1620.17,2472.01 L1614.27,2489.79 L1602.47,2496.37 L1584.11,2499.01 L1564.21,2503.04 L1555.93,2506.25 L1551.99,2516.78 L1550.03,2529.3 L1558.21,2542.73 L1564.45,2563.53 L1565.1,2583.29 L1554.62,2605.02 L1541.51,2624.77 L1513.32,2643.86 L1496.27,2655.71 L1483.82,2657.69 L1475.41,2653.03 L1468.09,2664.27 L1456.94,2668.22 L1441.21,2668.88 L1438,2679.83 L1430.68,2692.68 L1424.82,2705.75 L1414.99,2716.94 L1394.67,2727.48 L1375.66,2739.33 L1354.03,2749.86 L1328.46,2752.49 L1322.56,2765.66 L1325.64,2787.88 L1326.9,2790.27 L1326.52,2792.56 L1329.03,2797.83 L1340.36,2807.1 L1343.93,2811.52 L1343.27,2819.6 L1343.54,2821.37 L1346.13,2821.62 L1357.41,2820.17 L1359.24,2820.7 L1359.5,2823.47 L1361.73,2831.1 L1360.53,2831.47 L1358.85,2829.65 L1357.28,2827.55 L1351.77,2829.13 L1349.93,2830.05 L1348.49,2831.23 L1347.57,2833.08 L1348.1,2835.18 L1350.33,2839.4 L1351.51,2842.69 L1351.25,2844.79 L1350.59,2846.64 L1349.4,2847.51 L1348.35,2847.42 L1342.85,2839.79 L1340.67,2837.55 L1340.1,2831.63 L1338.4,2829 L1336.69,2827.81 L1334.07,2827.15 L1332.24,2827.15 L1328.3,2828.86 L1325.16,2828.34 L1322.27,2827.42 L1320.44,2826.49 L1317.81,2825.44 L1314.14,2824.58 L1310.03,2825.37 L1304.05,2818.95 L1303.86,2818.39 L1291.27,2807.33 L1290.35,2800.61 L1286.68,2796.14 L1285.64,2790.21 L1276.98,2783.5 L1248.01,2764.14 L1245.91,2760.59 L1241.32,2757.69 L1241.19,2754.79 L1245.12,2753.74 L1245.91,2748.61 L1242.5,2741.76 L1235.16,2735.7 L1226.9,2731.23 L1221.79,2724.77 L1217.99,2718.85 L1220.35,2716.48 L1219.69,2713.05 L1216.28,2707.66 L1208.94,2702.39 L1198.06,2695.41 L1188.36,2686.85 L1185.21,2680.53 L1187.83,2675.92 L1186.65,2671.58 L1181.15,2663.68 L1183.24,2661.44 L1186.13,2656.96 L1184.55,2651.96 L1180.88,2646.29 L1183.51,2641.42 L1184.42,2632.21 L1171.71,2611 L1162.4,2602.58 L1158.91,2595.92 L1158.37,2592.15 L1154.12,2588.99 L1143.05,2582.36 L1123.85,2569.13 L1108.12,2556.35 L1103.01,2549.38 L1093.83,2543.58 L1079.15,2535.68 L1063.41,2525.54 L1047.81,2516.98 L1025.79,2507.5 L1009.14,2499.43 L988.947,2494.06 L973.968,2488.82 L970.461,2488.01 L957.482,2485.5 L956.29,2484.61 L953.535,2481.26 L953.797,2477.64 L955.764,2475.6 L957.993,2474.74 L960.235,2472.73 L961.729,2469.41 L964.32,2469.27 L964.824,2467.99 L964.748,2465.08 L964.168,2462.85 L964.037,2458.64 L963.664,2455.85 L965.132,2455.11 L969.957,2455.27 L975.988,2453.9 L978.59,2451.26 L979.508,2440.86 L977.279,2431.64 L977.561,2424.45 L978.086,2422.93 L978.864,2415.15 L977.763,2412.31 L974.302,2407.09 L966.817,2399.63 L956.839,2388.76 L948.501,2383.7 L936.387,2375.49 L912.474,2361.89 L889.488,2349.97 L885.506,2347.61 L875.193,2339.54 L865.748,2330.28 L854.736,2322.7 L840.734,2314 L824.064,2304.48 L817.885,2300.01 L816.939,2295.59 L812.088,2292.03 L807.13,2290.79 L803.92,2285.24 L800.551,2283.34 L794.493,2279.38 L787.715,2275.28 L781.913,2274.85 L778.433,2269.75 L770.41,2262.32 L762.662,2257.78 L761.088,2252.38 L757.68,2249.35 L728.376,2234.75 L727.001,2230.52 L716.906,2224.2 L707.008,2218.69 L687.185,2209.21 L678.018,2205.41 L677.599,2204.47 L676.642,2204.16 L674.544,2202.95 L673.652,2200.47 L673.981,2198.41 L673.666,2197.32 L671.044,2195.06 L669.837,2193.74 L668.946,2192.58 L667.949,2190.47 L666.114,2188.68 L665.275,2186.94 L665.065,2185.57 L665.17,2184.57 L666.376,2183.52 L666.534,2182.83 L666.009,2181.04 L664.802,2179.53 L662.816,2178.34 L662.105,2177.43 L660.82,2176.94 L658.769,2168.49 L656.672,2161.64 L652.214,2155.58 L650.379,2148.2 L651.428,2141.09 L653.525,2137.4 L655.361,2131.08 L652.477,2127.12 L649.854,2121.33 L651.428,2116.59 L655.867,2111.38 L663.489,2106.57 L667.16,2105.26 L670.831,2104.47 L673.978,2101.3 L683.679,2105.26 L690.759,2104.2 L695.479,2102.1 L700.723,2097.35 L704.656,2092.87 L707.278,2087.87 L705.442,2085.23 L698.101,2085.23 L694.954,2076.8 L696.003,2071.8 L697.576,2067.05 L697.838,2060.47 L698.625,2055.99 L702.558,2051.51 L707.016,2050.45 L715.931,2051.77 L719.908,2051.04 L724.657,2047.56 L731.401,2044.39 L736.121,2038.6 L735.596,2033.33 L734.25,2028.51 L736.461,2027.26 L742.537,2025.43 L750.542,2026.74 L752.64,2028.32 L755,2028.85 L762.079,2026.21 L762.866,2022.26 L763.446,2017.01 L766.808,2012.64 L766.537,2009.88 L768.372,2006.72 L772.516,2007.15 L777.287,2006.45 L777.55,2003.29 L777.055,2000.47 L774.665,1997.23 L775.976,1994.33 L777.55,1991.7 L779.91,1986.43 L783.843,1986.43 L789.087,1989.59 L792.495,1990.12 L795.642,1986.43 L795.642,1976.94 L796.429,1971.94 L796.166,1965.35 L793.544,1960.61 L790.136,1957.18 L783.843,1960.08 L776.239,1961.13 L776.239,1955.07 L776.501,1951.12 L774.665,1946.38 L774.665,1944.8 L775.452,1942.95 L777.287,1940.58 L783.056,1940.58 L786.203,1939 L782.007,1927.4 L778.336,1917.92 L783.843,1907.11 L785.416,1901.84 L784.629,1896.31 L780.958,1890.51 L779.647,1886.03 L780.434,1879.18 L778.074,1876.02 L773.092,1871.54 L768.11,1868.38 L762.079,1867.06 L762.866,1856.26 L758.408,1854.94 L753.951,1854.68 L750.804,1853.09 L747.92,1850.46 L742.938,1849.14 L740.054,1842.03 L739.53,1838.34 L735.859,1834.91 L739.005,1829.9 L737.694,1821.47 L734.81,1818.84 L730.352,1815.41 L727.73,1811.98 L729.828,1808.3 L734.023,1805.4 L739.267,1800.65 L743.24,1796.95 L746.347,1793.27 L751.067,1788.53 L757.786,1786.52 L761.293,1786.69 L762.866,1790.38 L766.799,1790.64 L771.257,1788 L771.257,1785.63 L768.372,1782.47 L765.226,1780.89 L759.982,1779.31 L761.293,1775.09 L764.964,1770.08 L768.897,1765.08 L768.897,1759.28 L766.537,1753.22 L769.421,1749 L771.519,1745.05 L771.781,1740.3 L771.781,1735.56 L769.159,1731.08 L764.439,1728.97 L760.244,1728.71 L756.835,1726.34 L752.115,1722.38 L750.28,1718.43 L754.213,1703.41 L751.591,1699.98 L751.591,1695.76 L759.72,1691.28 L757.097,1689.7 L748.707,1686.54 L741.627,1684.17 L737.956,1684.17 L731.663,1676.26 L727.263,1668.67 L727.992,1661.5 L726.681,1658.6 L723.01,1658.87 L721.437,1661.24 L717.766,1659.92 L719.077,1654.91 L722.538,1649.42 L729.566,1636.99 L730.614,1630.67 L729.041,1627.5 L724.059,1626.71 L720.584,1624.3 L720.321,1620.92 L732.188,1616.17 L735.072,1610.37 L735.072,1603.78 L732.974,1600.88 L731.139,1596.14 L737.17,1589.81 L742.152,1587.18 L745.56,1576.37 L747.134,1569.52 L751.067,1567.41 L758.671,1565.3 L763.653,1563.19 L766.799,1557.13 L766.799,1549.22 L768.635,1540.52 L772.568,1536.04 L780.628,1533.42 L785.416,1533.51 L790.398,1537.47 L792.495,1537.47 L795.38,1534.04 L799.575,1529.82 L802.197,1525.87 L801.148,1515.06 L802.459,1509.52 L800.1,1504.52 L799.837,1494.76 L801.148,1490.28 L804.819,1484.48 L807.441,1484.75 L811.112,1491.34 L814.783,1492.13 L818.192,1487.38 L818.716,1482.64 L817.93,1477.63 L822.649,1473.15 L820.552,1467.35 L813.734,1457.6 L809.277,1451.8 L810.326,1448.9 L807.441,1448.11 L803.508,1447.32 L799.313,1444.42 L796.953,1442.04 L793.154,1440.48 L791.184,1438.62 L789.793,1383.09 L788.562,1378.25 L788.3,1374.03 L789.873,1367.97 L791.447,1360.32 L794.855,1356.9 L797.215,1358.74 L798.264,1365.6 L799.837,1371.13 L810.326,1370.6 L814.783,1364.54 L813.21,1359.01 L807.704,1354.79 L803.77,1349.51 L798.526,1345.56 L795.118,1342.66 L793.807,1336.86 L790.922,1332.12 L788.825,1328.16 L792.495,1325.26 L795.949,1324.97 L796.953,1320.52 L794.112,1316.96 L791.447,1317.62 L788.562,1316.03 L788.562,1313.13 L794.331,1311.55 L802.984,1312.08 L804.881,1307.58 L806.917,1304.17 L810.326,1300.22 L809.625,1285.42 L810.13,1282.13 L812.423,1282.82 L813.734,1285.45 L815.308,1297.58 L817.93,1299.16 L819.984,1293.8 L821.076,1292.31 L823.96,1287.3 L826.058,1278.6 L824.747,1274.38 L820.552,1271.22 L815.045,1265.94 L818.716,1264.89 L823.436,1263.83 L829.729,1266.73 L835.76,1266.47 L835.498,1258.3 L827.558,1257.69 L823.436,1254.34 L819.765,1245.11 L820.814,1242.48 L820.027,1238.79 L817.93,1235.36 L826.32,1230.61 L828.156,1233.51 L828.68,1236.41 L832.876,1235.36 L832.613,1229.56 L828.418,1226.4 L827.894,1223.5 L830.516,1219.01 L830.516,1212.95 L826.714,1206.67 L825.009,1204.25 L835.498,1203.98 L836.603,1200.75 L840.217,1194.23 L839.955,1186.06 L837.071,1181.05 L835.76,1175.51 L835.76,1169.97 L839.168,1168.92 L837.071,1165.49 L834.711,1159.16 L832.613,1154.15 L827.845,1151.23 L824.747,1145.72 L828.615,1142.5 L829.974,1139.47 L827.369,1135.17 L831.827,1133.32 L836.546,1133.59 L840.112,1137.09 L844.15,1135.17 L846.755,1129.68 L845.986,1124.36 L848.346,1121.19 L852.279,1121.72 L855.95,1118.56 L854.114,1116.71 L853.066,1113.28 L856.474,1110.12 L856.474,1105.9 L857.523,1102.47 L861.194,1099.84 L864.865,1099.04 L870.896,1096.67 L877.189,1096.67 L882.957,1097.2 L889.25,1096.94 L891.086,1096.41 L891.872,1089.02 L893.708,1087.44 L905.507,1084.81 L908.916,1082.17 L911.538,1079.01 L917.035,1078.06 L917.831,1074.26 L917.831,1070.3 L918.484,1065.76 L922.797,1063.23 L927.27,1064.5 L933.826,1067.93 L935.923,1063.45 L937.234,1056.59 L935.629,1053.77 L932.514,1049.74 L928.301,1049.24 L923.862,1050.26 L919.142,1049.74 L914.684,1046.04 L915.733,1038.66 L917.531,1035.86 L923.075,1034.18 L929.106,1029.96 L926.484,1023.63 L924.91,1017.83 L922.813,1012.55 L919.929,1007.81 L918.482,1005.74 L920.715,1002.8 L926.222,999.37 L930.941,994.359 L938.545,992.513 L943.527,991.986 L947.723,995.15 L950.869,995.414 L953.753,992.25 L955.064,986.448 L957.686,983.284 L963.717,982.493 L966.077,980.91 L968.437,976.427 L971.583,972.472 L976.565,970.89 L980.761,970.098 L981.023,966.143 L984.432,965.879 L984.708,969.482 L986.529,972.999 L994.92,974.581 L1000.95,977.746 L1003.84,983.02 L1007.77,984.075 L1009.6,985.393 L1016.68,989.613 L1020.09,991.986 L1021.93,990.931 L1024.81,990.404 L1026.65,993.568 L1028.22,990.14 L1027.92,987.7 L1032.32,986.791 L1038.71,995.414 L1045.53,996.996 L1050.25,995.942 L1055.81,992.428 L1058.92,990.987 L1061,992.513 L1063.36,998.051 L1068.08,1007.81 L1070.7,1010.97 L1072.89,1008.6 L1074.11,1004.64 L1076.99,1002.01 L1079.09,1008.34 L1082.01,1012.05 L1084.6,1015.72 L1081.39,1016.24 L1078.83,1015.98 L1075.16,1016.77 L1072.8,1020.2 L1075.07,1028.59 L1079.61,1031.8 L1082.5,1035.5 L1083.89,1040.53 L1084.6,1044.99 L1088.27,1050.79 L1092.25,1054.52 L1096.39,1058.7 L1097.71,1062.66 L1101.12,1066.31 L1102.69,1068.98 L1104,1071.89 L1106.62,1070.57 L1110.85,1062.16 L1111.34,1056.59 L1113.18,1049.21 L1112.39,1042.88 L1113.96,1037.87 L1115.54,1028.9 L1114.75,1020.2 L1113.7,1013.61 L1116.09,1007.79 L1120.44,1000.49 L1131.27,992.513 L1130.22,989.613 L1135.46,986.448 L1139.13,985.393 L1144.38,981.965 L1144.64,978.01 L1149.88,974.054 L1149.62,969.044 L1144.38,965.879 L1141.76,960.869 L1145.95,956.385 L1148.84,951.375 L1150.22,944.816 L1149.36,940.299 L1154.7,940.647 L1160.9,943.2 L1165.36,942.936 L1166.67,938.189 L1162.21,936.08 L1165.09,930.278 L1169.81,922.366 L1171.39,915.51 L1177.68,912.345 L1181.35,908.653 L1185.28,901.796 L1191.05,896.521 L1197.87,891.511 L1201.8,881.753 L1205.47,876.478 L1213.34,876.214 L1218.83,880.387 L1221.21,881.489 L1223.77,879.119 L1227.24,875.16 L1231.96,872.786 L1237.46,871.731 L1240.35,868.303 L1241.92,865.665 L1244.54,869.094 L1249.26,868.039 L1253.72,865.929 L1259.75,865.138 L1264.03,867.113 L1267.62,867.775 L1270.5,865.402 L1270.76,862.764 L1281.51,862.764 L1287.81,860.654 L1293.31,860.654 L1299.08,863.028 L1301.7,865.929 L1307.47,870.676 L1313.5,869.621 L1320.32,869.094 L1324.25,868.566 L1329.23,872.522 L1336.84,867.775 L1341.03,867.511 L1347.59,864.347 L1353.1,861.446 L1357.29,855.38 L1357.82,845.621 L1358.34,840.874 L1363.58,837.973 L1368.3,834.017 L1370.93,823.467 L1372.76,817.138 L1370.93,807.379 L1366.99,799.467 L1364.11,792.082 L1363.58,785.224 L1360.7,784.433 L1355.98,773.092 L1352.31,750.145 L1353.1,742.76 L1349.95,735.902 L1349.95,729.044 L1349.69,720.868 L1349.95,712.955 L1348.9,708.207 L1348.38,700.821 L1352.83,694.491 L1355.98,688.16 L1355.46,681.566 L1353.62,672.598 L1354.93,661.519 L1354.93,653.078 L1354.14,638.306 L1357.03,634.086 L1353.88,630.129 L1355.46,625.117 L1354.41,614.829 L1358.08,605.069 L1363.32,598.474 L1368.3,594.781 L1368.83,588.978 L1368.57,579.217 L1370.93,567.347 L1371.45,560.752 L1365.42,556.794 L1366.21,552.574 L1369.88,548.88 L1366.47,546.77 L1365.68,541.494 L1368.83,535.426 L1373.81,528.567 L1373.81,524.083 L1380.89,508.254 L1384.56,501.395 L1387.71,498.757 L1388.49,491.897 L1392.16,489.523 L1395.31,491.897 L1394.79,498.493 L1397.67,501.659 L1401.08,501.659 L1405.01,497.174 L1411.04,496.91 L1417.6,499.02 L1416.03,502.714 L1420.48,504.297 L1424.15,504.824 L1432.28,516.696 L1432.54,522.236 L1436.74,525.402 L1439.89,525.665 L1453.78,531.733 L1456.67,535.69 L1460.6,539.911 L1470.57,540.175 L1479.22,539.12 L1480,538.328 L1485.51,538.328 L1492.07,539.12 L1500.19,543.077 L1506.49,541.23 L1508.85,540.702 L1512.52,543.341 L1515.93,535.163 L1524.06,520.125 L1529.3,512.739 L1533.76,507.199 L1538.21,498.229 L1537.17,488.732 L1532.45,473.958 L1533.76,462.086 L1540.05,447.312 L1541.62,442.299 L1548.7,441.771 L1555.52,442.563 L1563.12,445.201 L1568.63,444.409 L1581.48,443.09 L1589.61,442.826 L1595.38,445.201 L1600.62,445.465 L1608.49,446.52 L1611.9,448.103 L1621.07,448.894 L1636.28,448.631 L1655.68,443.09 L1666.17,435.703 L1677.71,429.107 L1692.66,425.414 L1709.7,422.511 L1724.12,421.192 L1744.31,414.596 L1759.52,407.473 L1775.51,389.532 L1788.93,374.81 L1792,372.271 L1807.47,362.244 L1828.45,353.537 L1839.99,344.567 L1859.92,325.305 L1876.17,311.585 L1875.65,307.891 L1873.29,300.766 L1871.72,292.323 L1870.14,286.518 L1868.04,279.657 L1866.47,262.77 L1864.9,243.243 L1865.68,221.341 L1868.83,199.967 L1874.34,182.551 L1880.37,168.037 L1894.27,144.55 L1896.1,139.536 L1899.77,120.535 L1911.22,126.932 L1918.43,143.426 L1932.85,154.642 L1958.42,151.343 L1976.77,148.044 L1984.64,148.044 L1985.95,170.475 L1983.98,195.545 L1982.67,232.488 L1985.95,270.09 L1998.4,299.775 L2007.58,324.182 L2018.07,343.971 L2037.08,372.334 L2058.05,390.803 L2075.75,410.591 L2094.11,429.059 L2111.81,445.549 L2120.33,454.783 L2120.98,464.017 L2115.74,480.505 L2093.45,490.399 L2069.85,497.654 L2051.5,502.27 L2044.29,506.227 L2052.81,518.759 L2069.2,555.032 L2072.48,574.157 L2077.06,605.153 L2076.41,626.256 L2078.38,642.083 L2092.8,646.7 L2101.32,653.954 L2105.25,668.461 L2104.78,678.909 L2088.21,685.607 L2073.13,695.498 L2050.19,705.389 L2035.77,708.027 L2008.24,701.433 L1995.78,699.455 L1981.36,700.114 L1970.87,711.324 L1958.42,712.643 L1942.68,712.643 L1919.74,716.599 L1915.81,737.041 L1919.08,769.351 L1929.57,782.539 L1938.09,789.792 L1939.41,808.914 L1941.37,823.42 L1947.93,839.903 L1957.76,845.178 L1983.98,851.771 L1995.12,853.749 L2015.45,857.705 L2020.03,860.343 L2012.82,884.079 L2005.61,903.858 L2008.24,918.363 L2027.51,940.757 L2038.39,962.535 L2052.15,981.654 L2061.33,988.246 L2061.33,1003.41 L2062.64,1019.23 L2065.27,1030.44 L2052.12,1030.62 L2014.79,1024.51 L1961.04,1004.73 L1928.26,994.839 L1900.73,982.313 L1887.62,977.698 L1853.53,1005.39 L1806.99,1045.6 L1786.01,1063.4 L1823.38,1082.52 L1866.64,1104.93 L1904.66,1125.36 L1992.5,1152.39 L2053.56,1173.07 L2065.44,1184.37 L2071.74,1190.06 L2078.34,1197.97 L2083.06,1200.5 L2087.93,1201.53 L2093.45,1207.76 L2095.02,1213.48 L2095.65,1216.96 L2112.95,1222.65 L2115.16,1230.24 L2111.7,1234.36 L2106.35,1239.42 L2101.94,1247.65 L2099.11,1253.97 L2095.02,1257.14 L2086.4,1259.36 L2075.44,1261.09 L2069.2,1260.71 L2063.64,1259.76 L2058.83,1255.24 L2051.28,1251.44 L2045.93,1257.45 L2043.1,1278.33 L2037.75,1289.09 L2036.81,1301.11 L2041.84,1304.28 L2050.02,1308.07 L2053.49,1312.82 L2061.35,1320.41 L2067.36,1326.92 L2070.51,1337.6 L2078.45,1348.59 L2095.77,1353.85 L2100.81,1358.38 L2095.66,1368.3 L2085.22,1373 L2076.77,1371.03 L2064.5,1367.86 L2062.93,1372.92 L2066.24,1378.84 L2059.15,1381.47 L2055.01,1384.82 L2053.8,1399.81 L2056.63,1404.56 L2063.55,1413.73 L2061.98,1420.37 L2059.15,1428.6 L2059.46,1435.56 L2064.81,1434.93 L2068.59,1434.93 L2070.79,1438.72 L2076.77,1443.47 L2080.55,1445.68 L2084.64,1453.59 L2087.47,1463.39 L2095.02,1469.72 L2103.2,1476.05 L2107.61,1485.54 L2107.61,1491.86 L2103.2,1496.61 L2102.89,1502.93 L2098.8,1509.26 L2090.3,1517.17 L2080.23,1521.91 L2079.29,1528.56 L2084.01,1533.93 L2086.52,1542.79 L2083.69,1557.34 L2084.95,1563.66 L2077.71,1568.73 L2069.53,1572.2 L2064.5,1577.27 L2059.46,1586.44 L2054.12,1594.66 L2053.17,1602.88 L2057.58,1606.68 L2059.78,1613.32 L2062.55,1623.7 L2060.41,1627.24 L2051.62,1625.48 L2045.93,1621.55 L2038.7,1619.65 L2032.4,1622.81 L2024.39,1624.99 L2017.71,1626 L2009.43,1626.29 L2007.71,1634.68 L2000.94,1645.58 L2002.17,1653.16 L2000.05,1657 L1993.84,1665.39 L1985.97,1672.85 L1979.86,1674.68 L1976.71,1683.22 L1983.44,1687.38 L1984.64,1692.13 L1978.78,1699.81 L1971.99,1699.35 L1965.07,1701.56 L1957.79,1710.21 L1955.32,1717.06 L1949.02,1721.49 L1939.9,1728.76 L1933.29,1731.92 L1920.7,1736.67 L1916.61,1745.52 L1919.74,1752.09 L1934.82,1759.99 L1971.53,1773.17 L1982.67,1779.1 L1999.06,1806.11 L2012.82,1826.54 L2025.93,1841.69 L2041.67,1853.55 L2052.15,1867.38 L2057.4,1879.9 L2065.92,1896.37 L2069.85,1926.67 L2056.09,1953.02 L2042.32,1969.49 L2022.66,1992.55 L2016.1,2010.99 L2021.35,2031.41 L2041.67,2047.22 L2052.15,2059.73 L2059.37,2076.2 L2066.58,2090.03 L2068.54,2099.91 L2063.95,2108.48 L2061.99,2118.36 L2046.91,2119.67 L2015.45,2113.75 L1996.44,2110.45 L1985.29,2103.21 L1966.28,2103.21 L1951.2,2107.82 L1933.51,2109.13 L1900.07,2107.82 L1880.41,2107.82 L1868.61,2120.99 L1852.88,2134.82 L1831.9,2148 L1814.86,2160.51 L1791.91,2165.12 L1765.69,2165.78 L1748.65,2165.78 L1736.19,2180.27 L1722.43,2203.98 L1706.04,2219.79 L1668.68,2242.18 L1651.63,2247.45 L1631.97,2258.64 L1624.1,2270.5 L1622.79,2294.86 L1617.55,2320.55 L1619.51,2336.35"/>
  </g>
  <g stroke-width="1" transform="matrix(0.999744,0,0,0.999744,0,0)" stroke-opacity="1" font-size="34.5833" fill="none" stroke-linejoin="bevel" font-style="normal" stroke-linecap="square" stroke="#000000" font-family="MS Shell Dlg 2" font-weight="400"/>
  <g stroke-width="1" transform="matrix(11.808,0,0,11.808,0,0)" stroke-opacity="1" font-size="34.5833" fill="none" stroke-linejoin="bevel" font-style="normal" stroke-linecap="square" stroke="#000000" font-family="MS Shell Dlg 2" font-weight="400"/>
  <g stroke-width="1" transform="matrix(11.808,0,0,11.808,0,0)" stroke-opacity="1" font-size="34.5833" fill="none" stroke-linejoin="bevel" font-style="normal" stroke-linecap="square" stroke="#000000" font-family="MS Shell Dlg 2" font-weight="400"/>
  <g stroke-width="1" transform="matrix(11.808,0,0,11.808,0,0)" stroke-opacity="1" font-size="34.5833" fill="none" stroke-linejoin="bevel" font-style="normal" stroke-linecap="square" stroke="#000000" font-family="MS Shell Dlg 2" font-weight="400"/>
  <g stroke-width="1" transform="matrix(1,0,0,1,0,0)" stroke-opacity="1" font-size="34.5833" fill="none" stroke-linejoin="bevel" font-style="normal" stroke-linecap="square" stroke="#000000" font-family="MS Shell Dlg 2" font-weight="400"/>
  <g stroke-width="1" transform="matrix(11.808,0,0,11.808,0,0)" stroke-opacity="1" font-size="34.5833" fill="none" stroke-linejoin="bevel" font-style="normal" stroke-linecap="square" stroke="#000000" font-family="MS Shell Dlg 2" font-weight="400"/>
  <g stroke-width="1" transform="matrix(11.808,0,0,11.808,0,0)" stroke-opacity="1" font-size="34.5833" fill="none" stroke-linejoin="bevel" font-style="normal" stroke-linecap="square" stroke="#000000" font-family="MS Shell Dlg 2" font-weight="400"/>
  <g stroke-width="1" transform="matrix(11.808,0,0,11.808,0,0)" stroke-opacity="1" font-size="34.5833" fill="none" stroke-linejoin="bevel" font-style="normal" stroke-linecap="square" stroke="#000000" font-family="MS Shell Dlg 2" font-weight="400"/>
  <g stroke-width="1" transform="matrix(11.808,0,0,11.808,0,0)" stroke-opacity="1" font-size="34.5833" fill="none" stroke-linejoin="bevel" font-style="normal" stroke-linecap="square" stroke="#000000" font-family="MS Shell Dlg 2" font-weight="400"/>
  <g stroke-width="1" transform="matrix(1,0,0,1,0,0)" stroke-opacity="1" font-size="34.5833" fill="none" stroke-linejoin="bevel" font-style="normal" stroke-linecap="square" stroke="#000000" font-family="MS Shell Dlg 2" font-weight="400"/>
 </g>
</svg>
