<?xml version='1.0' encoding='UTF-8' standalone='no'?>
<svg xmlns:xlink="http://www.w3.org/1999/xlink" baseProfile="tiny" xmlns="http://www.w3.org/2000/svg" height="249.936mm" viewBox="0 0 2952 2952" width="249.936mm" version="1.2">
 <title>Qt SVG Document</title>
 <desc>Generated with Qt</desc>
 <defs/>
 <g stroke-width="1" fill-rule="evenodd" fill="none" stroke-linejoin="bevel" stroke-linecap="square" stroke="black">
  <g stroke-width="1" transform="matrix(1,0,0,1,0,0)" stroke-opacity="1" font-size="34.5833" fill="none" stroke-linejoin="bevel" font-style="normal" stroke-linecap="square" stroke="#000000" font-family="MS Shell Dlg 2" font-weight="400"/>
  <g stroke-width="1" transform="matrix(1,0,0,1,0,0)" stroke-opacity="1" font-size="34.5833" fill="none" stroke-linejoin="bevel" font-style="normal" stroke-linecap="square" stroke="#000000" font-family="MS Shell Dlg 2" font-weight="400"/>
  <g stroke-width="1" transform="matrix(11.808,0,0,11.808,0,0)" stroke-opacity="1" font-size="34.5833" fill="none" stroke-linejoin="bevel" font-style="normal" stroke-linecap="square" stroke="#000000" font-family="MS Shell Dlg 2" font-weight="400"/>
  <g stroke-width="1" transform="matrix(0.999744,0,0,0.999744,0,0)" stroke-opacity="1" font-size="34.5833" fill="none" stroke-linejoin="bevel" font-style="normal" stroke-linecap="square" stroke="#000000" font-family="MS Shell Dlg 2" font-weight="400"/>
  <g transform="matrix(0.999744,0,0,0.999744,0,0)" font-size="34.5833" fill-opacity="0" fill="#ffffff" font-style="normal" stroke="none" font-family="MS Shell Dlg 2" font-weight="400">
   <path fill-rule="evenodd" vector-effect="none" d="M-2,-2 L2955,-2 L2955,2955 L-2,2955 L-2,-2"/>
  </g>
  <g stroke-width="1" transform="matrix(0.999744,0,0,0.999744,0,0)" stroke-opacity="1" font-size="34.5833" fill="none" stroke-linejoin="bevel" font-style="normal" stroke-linecap="square" stroke="#000000" font-family="MS Shell Dlg 2" font-weight="400"/>
  <g stroke-width="1" transform="matrix(11.808,0,0,11.808,0,0)" stroke-opacity="1" font-size="34.5833" fill="none" stroke-linejoin="bevel" font-style="normal" stroke-linecap="square" stroke="#000000" font-family="MS Shell Dlg 2" font-weight="400"/>
  <g stroke-width="1" transform="matrix(11.808,0,0,11.808,0,0)" stroke-opacity="1" font-size="34.5833" fill="none" stroke-linejoin="bevel" font-style="normal" stroke-linecap="square" stroke="#000000" font-family="MS Shell Dlg 2" font-weight="400"/>
  <g stroke-width="1" transform="matrix(11.808,0,0,11.808,0,0)" stroke-opacity="1" font-size="34.5833" fill="none" stroke-linejoin="bevel" font-style="normal" stroke-linecap="square" stroke="#000000" font-family="MS Shell Dlg 2" font-weight="400"/>
  <g stroke-width="1" transform="matrix(11.808,0,0,11.808,0,0)" stroke-opacity="1" font-size="34.5833" fill="none" stroke-linejoin="bevel" font-style="normal" stroke-linecap="square" stroke="#000000" font-family="MS Shell Dlg 2" font-weight="400"/>
  <g stroke-width="1" transform="matrix(11.808,0,0,11.808,0,0)" stroke-opacity="1" font-size="34.5833" fill="none" stroke-linejoin="bevel" font-style="normal" stroke-linecap="square" stroke="#000000" font-family="MS Shell Dlg 2" font-weight="400"/>
  <g transform="matrix(11.808,0,0,11.808,0,0)" font-size="34.5833" fill-opacity="0" fill="#ffffff" font-style="normal" stroke="none" font-family="MS Shell Dlg 2" font-weight="400">
   <path fill-rule="evenodd" vector-effect="none" d="M0,0 L250,0 L250,250 L0,250 L0,0"/>
  </g>
  <g stroke-width="1" transform="matrix(11.808,0,0,11.808,0,0)" stroke-opacity="1" font-size="34.5833" fill="none" stroke-linejoin="bevel" font-style="normal" stroke-linecap="square" stroke="#000000" font-family="MS Shell Dlg 2" font-weight="400"/>
  <g stroke-width="1" transform="matrix(11.808,0,0,11.808,0,0)" stroke-opacity="1" font-size="34.5833" fill="none" stroke-linejoin="bevel" font-style="normal" stroke-linecap="square" stroke="#000000" font-family="MS Shell Dlg 2" font-weight="400"/>
  <g transform="matrix(0.999744,0,0,0.999744,0,0)" font-size="34.5833" fill-opacity="0" fill="#000000" font-style="normal" stroke="none" font-family="MS Shell Dlg 2" font-weight="400">
   <rect x="0" height="2953" width="2953" y="0"/>
  </g>
  <g stroke-width="1" transform="matrix(0.999744,0,0,0.999744,0,0)" stroke-opacity="1" font-size="34.5833" fill="none" stroke-linejoin="bevel" font-style="normal" stroke-linecap="square" stroke="#000000" font-family="MS Shell Dlg 2" font-weight="400"/>
  <g stroke-width="3.07087" transform="matrix(0.999744,0,0,0.999744,0,0)" stroke-opacity="1" font-size="34.5833" fill-opacity="1" fill="#c5c5c5" stroke-linejoin="bevel" font-style="normal" stroke-linecap="square" stroke="#5c5c5c" font-family="MS Shell Dlg 2" font-weight="400">
   <path fill-rule="evenodd" vector-effect="none" d="M2131.14,2420.03 L2127.64,2418.58 L2122.8,2418.06 L2120.4,2418.53 L2109.34,2422.98 L2102.5,2425.13 L2095.57,2426.56 L2090.88,2428.66 L2088.28,2431.47 L2084.86,2436.54 L2084.5,2439.46 L2084.4,2444.47 L2083.02,2449.03 L2081.9,2450.82 L2079.86,2452.46 L2078.08,2452.87 L2076.95,2456.35 L2076.39,2460.24 L2076.5,2463.05 L2077.21,2464.84 L2078.13,2465.97 L2079.61,2469.03 L2080.27,2472.86 L2080.68,2473.8 L2082.16,2475.75 L2084.3,2477.18 L2089.24,2479.28 L2093.48,2482.81 L2095.67,2485.37 L2096.38,2486.6 L2097.71,2490.95 L2099.34,2493.92 L2101.91,2495.52 L2104.44,2497.6 L2104.85,2499.24 L2103.88,2502.46 L2103.28,2504.07 L2102.4,2505.53 L2100.57,2507.53 L2099.55,2511.27 L2099.55,2512.9 L2100,2514.8 L2101.69,2518.28 L2101.69,2520.89 L2102.04,2522.32 L2104.54,2527.49 L2106.38,2529.64 L2107.19,2529.54 L2112.34,2527.59 L2113.67,2526.67 L2114.79,2525.54 L2116.02,2524.93 L2116.53,2525.6 L2116.07,2528.72 L2115.81,2532.61 L2115.35,2534.4 L2115.91,2536.24 L2115.76,2541.05 L2114.33,2543.92 L2114.54,2548.17 L2116.68,2552.77 L2116.32,2558.45 L2115.56,2560.96 L2112.5,2564.95 L2109.74,2566.13 L2106.48,2567.15 L2103.06,2568.53 L2101.74,2569.46 L2098.47,2574.01 L2096.94,2576.47 L2095.72,2579.03 L2094.85,2581.53 L2095.64,2589.3 L2096.38,2593.3 L2100.46,2603.69 L2104.03,2609.68 L2105.82,2612.09 L2111.73,2618.69 L2114.69,2622.53 L2117.6,2626.72 L2120.1,2631.74 L2121.42,2634.96 L2121.98,2637.88 L2121.88,2640.9 L2120.56,2643.56 L2116.63,2646.94 L2113.57,2648.58 L2108.98,2650.88 L2098.42,2655.69 L2095.99,2657.28 L2093.65,2655.9 L2087.98,2659.11 L2082.09,2659.43 L2073.57,2662.93 L2062.15,2659.23 L2053.17,2654.62 L2047.12,2653.34 L2033,2651.87 L2019.42,2640.46 L2017.08,2638.27 L2010.62,2625.3 L2008.6,2605.84 L2006.62,2601.85 L2004.41,2592.25 L1994.53,2581.69 L1975.41,2578.81 L1950.25,2581.22 L1929.85,2580.71 L1921.37,2570.98 L1912.94,2549.38 L1908.48,2546.5 L1899.55,2548.74 L1893.18,2544.91 L1886.17,2542.35 L1871.83,2543.31 L1864.5,2544.59 L1850.15,2542.67 L1831.03,2533.71 L1813.5,2522.19 L1803.23,2515.12 L1798.52,2505.56 L1795.36,2504.1 L1788.9,2503.76 L1785.68,2499.4 L1780.05,2488.31 L1777.8,2485.41 L1772.71,2489.57 L1770.79,2494.05 L1765.37,2493.09 L1761.83,2487.52 L1755.99,2485.54 L1744.02,2489.57 L1735.48,2499.06 L1726.17,2504.28 L1714.7,2512.6 L1705.14,2513.88 L1689.52,2508.44 L1682.46,2502.07 L1673.58,2501.4 L1664.98,2503.96 L1659.93,2510.81 L1659.24,2518.04 L1647.77,2518.04 L1640.12,2519 L1641.25,2525.71 L1638.53,2534.35 L1629.6,2536.27 L1620.36,2542.99 L1613.35,2545.87 L1604.1,2547.78 L1598.37,2553.22 L1592.63,2559.62 L1591.08,2561.98 L1583.07,2559.62 L1575.74,2558.02 L1568.73,2563.46 L1558.94,2561.75 L1556.62,2554.82 L1554.07,2548.1 L1541.64,2554.18 L1537.81,2545.87 L1534.94,2540.75 L1527.93,2545.23 L1518.3,2558.42 L1502.75,2555.46 L1490.32,2555.14 L1478.53,2552.9 L1468.65,2551.62 L1461.64,2553.54 L1451.8,2560.67 L1445.28,2563.54 L1433.4,2557.38 L1430.31,2543.71 L1430.96,2507.28 L1433.27,2499.8 L1419.57,2487.33 L1421.48,2483.81 L1422.76,2479.01 L1418.29,2474.53 L1413.51,2470.37 L1412.56,2465.9 L1417.98,2462.06 L1428.17,2440.95 L1431.36,2424.31 L1428.81,2403.84 L1429.55,2381.26 L1433.91,2357.77 L1450.04,2326.55 L1454.31,2301.15 L1450.8,2283.23 L1456.86,2252.84 L1457.49,2244.77 L1455.7,2236.15 L1447.62,2210.61 L1441.16,2187.9 L1433.48,2168.04 L1434.29,2149.8 L1442.77,2131.15 L1449.23,2110.87 L1455,2097.29 L1465.78,2070.16 L1465.46,2036.88 L1465.78,2013.53 L1457.18,1983.77 L1457.44,1948.29 L1464.83,1922.01 L1470.24,1906.34 L1474.14,1894.38 L1480.29,1870.93 L1486.98,1852.93 L1489.79,1844.74 L1482.14,1839.3 L1463.02,1828.74 L1441.99,1816.58 L1426.37,1806.34 L1414.58,1800.9 L1401.19,1799.3 L1382.39,1798.66 L1364.22,1803.14 L1349.56,1810.5 L1332.67,1816.26 L1318.96,1818.5 L1303.98,1825.22 L1300.16,1829.38 L1294.26,1837.45 L1281.63,1848.13 L1256.18,1860.3 L1224.28,1874.89 L1194.79,1893.14 L1170.96,1906.93 L1164.7,1916.74 L1160.32,1929.24 L1164.7,1954.81 L1168.21,1965.69 L1167.25,1973.37 L1156.83,1989.24 L1147.54,2004.65 L1133,2021.27 L1117.65,2034.24 L1105.24,2042.07 L1092.04,2046.64 L1057.93,2070.06 L1051.56,2074.8 L1043.27,2069.36 L1007.11,2037.84 L1002.8,2022.65 L995.784,2007.93 L992.597,2002.17 L991.322,1997.05 L982.583,2002.03 L977.617,1985.85 L956.9,1952.89 L953.395,1943.61 L951.164,1931.45 L942.24,1918.65 L928.216,1903.3 L921.204,1894.02 L914.83,1879.62 L905.587,1868.1 L900.807,1863.62 L893.157,1863.3 L882.002,1870.02 L874.034,1874.5 L868.582,1876.34 L860.926,1883.73 L852.362,1893.7 L835.789,1900.42 L818.759,1901.95 L806.786,1899.46 L791.487,1899.14 L784.157,1902.98 L775.733,1908.35 L751.829,1926.75 L726.332,1952.35 L715.313,1968.57 L702.247,1978.49 L691.411,1969.85 L674.837,1957.37 L663.045,1949.37 L648.703,1933.69 L629.261,1911.3 L614.919,1891.78 L600.577,1876.42 L592.609,1869.7 L583.366,1858.82 L566.793,1847.94 L543.527,1833.54 L523.129,1817.22 L507.193,1805.38 L487.433,1787.78 L469.266,1776.58 L437.395,1755.78 L414.128,1741.38 L386.081,1726.98 L376.52,1719.62 L365.684,1718.66 L355.485,1722.82 L343.695,1728.9 L333.175,1736.26 L326.888,1735.12 L328.717,1706.86 L327.123,1666.86 L334.294,1516.44 L347.84,1485.23 L372.54,1437.22 L369.716,1408.2 L349.433,1387.61 L352.62,1368.41 L372.54,1323.6 L398.834,1274.78 L415.567,1276.38 L432.299,1282.78 L462.577,1285.18 L486.481,1283.58 L510.384,1277.18 L522.586,1291.03 L535.882,1297.99 L555.005,1290.79 L576.173,1278.14 L586.079,1271.58 L604.405,1277.98 L611.577,1265.18 L625.122,1253.97 L657.79,1238.77 L676.913,1233.17 L697.751,1248.88 L726.314,1267.58 L750.218,1278.78 L762.17,1272.38 L770.934,1257.17 L779.699,1243.57 L786.073,1230.77 L783.683,1207.56 L788.464,1200.35 L798.822,1197.95 L806.79,1187.55 L812.367,1167.54 L813.164,1126.73 L807.586,1076.3 L798.822,1048.29 L766.95,1039.49 L740.656,1023.48 L678.507,995.466 L647.432,990.664 L618.748,983.461 L589.266,989.864 L557.395,988.263 L527.117,977.057 L488.871,956.247 L435.486,921.829 L371.743,884.208 L335.166,844.983 L335.804,832.816 L332.617,816.806 L331.979,793.112 L340.903,764.294 L355.564,748.283 L394.447,742.52 L483.688,733.554 L558.114,730.605 L618.823,727.79 L687.028,725.869 L734.198,723.307 L771.806,717.543 L795.391,709.858 L831.087,698.971 L848.298,688.724 L855.947,668.87 L862.959,654.78 L870.608,641.971 L857.859,629.802 L840.649,627.881 L833.637,621.476 L844.929,604.387 L866.146,570.238 L876.982,559.991 L896.105,554.867 L909.491,556.788 L922.877,563.193 L945.187,560.631 L964.31,565.114 L988.293,567.635 L1054.19,562.552 L1196.34,563.193 L1237.13,565.114 L1298.32,561.272 L1345.81,563.391 L1388.2,573.441 L1425.17,576.003 L1460.87,574.722 L1494.65,570.879 L1526.52,576.643 L1536.58,584.663 L1545.65,605.465 L1552.66,629.802 L1562.86,654.14 L1571.78,681.679 L1580.07,702.813 L1594.73,722.026 L1616.4,739.318 L1651.46,744.441 L1703.73,742.52 L1814.64,739.318 L1870.1,742.52 L1926.19,748.283 L1991.21,751.485 L2075.35,752.766 L2149.93,753.407 L2193.91,759.17 L2228.34,757.249 L2274.23,759.811 L2323.95,757.89 L2343.71,766.855 L2361.56,790.55 L2402.99,791.191 L2426.17,790.32 L2490.38,793.139 L2505.36,792.848 L2516.59,801.717 L2525.25,807.833 L2538.76,810.402 L2555.46,810.523 L2565.41,810.139 L2579.17,807.833 L2589.5,804.759 L2608.24,801.301 L2611.68,803.991 L2609.39,811.291 L2602.12,819.744 L2602.29,828.584 L2601.71,830.466 L2601.11,830.891 L2598.53,833.772 L2597.86,836.942 L2597.77,839.151 L2599.19,841.844 L2600.19,844.936 L2601.88,848.277 L2601.21,850.774 L2597.48,857.018 L2596.14,860.764 L2593.37,866.527 L2590.5,868.352 L2588.68,870.081 L2587.54,874.116 L2586.29,876.805 L2584.73,878.378 L2583.47,879.002 L2580.17,879.687 L2576.35,879.975 L2571.57,879.783 L2569.18,879.111 L2566.98,877.478 L2564.07,876.704 L2562.27,876.803 L2560,877.67 L2558.66,879.207 L2557.65,881.362 L2554.41,890.298 L2552.72,893.702 L2550.53,896.688 L2546.8,900.915 L2546.8,904.373 L2547.57,909.944 L2547.07,912.315 L2547.19,914.362 L2547.57,916.091 L2548.4,917.912 L2548.43,919.741 L2547.76,923.295 L2547.47,927.713 L2546.61,931.939 L2546.23,936.262 L2546.9,938.087 L2548.2,940.615 L2550.6,943.119 L2559.23,956.144 L2563.63,960.658 L2566.98,972.088 L2567.74,983.326 L2567.17,987.552 L2565.93,990.049 L2562.76,994.319 L2560.19,997.253 L2557.13,1006.19 L2557.04,1013.48 L2557.42,1018.09 L2555.79,1024.82 L2554.17,1026.93 L2552.54,1027.89 L2549.67,1028.56 L2547.47,1028.85 L2544.99,1026.74 L2541.07,1022.71 L2524.53,1022.03 L2518.89,1020.11 L2515.25,1017.9 L2513.34,1015.79 L2512.1,1013.97 L2510.47,1007.15 L2510.09,997.637 L2508.75,994.275 L2507.12,989.089 L2505.31,987.648 L2502.34,987.744 L2499.28,988.609 L2497.09,990.914 L2495.84,993.507 L2494.98,994.852 L2491.73,996.869 L2488.1,1000.9 L2486.47,1003.02 L2483.51,1009.07 L2482.17,1012.52 L2479.11,1015.02 L2477.68,1018.86 L2478.15,1024.24 L2479.87,1030.39 L2482.26,1034.71 L2485.71,1039.71 L2493.64,1048.73 L2499,1052.29 L2510.76,1061.99 L2516.15,1069.13 L2516.97,1072.94 L2519.55,1077.55 L2521.85,1080.62 L2524.14,1084.39 L2526.53,1086.38 L2527.97,1088.98 L2529.69,1093.3 L2529.88,1096.75 L2529.69,1101.08 L2530.17,1104.15 L2531.6,1108.18 L2532.94,1110.49 L2537.91,1112.7 L2538.68,1114.14 L2538.58,1116.64 L2536.96,1120.57 L2536.96,1122.59 L2537.85,1127.65 L2540.01,1133.29 L2540.55,1134.21 L2541.74,1137.67 L2542.22,1141.03 L2544.13,1143.81 L2546.8,1145.54 L2548.72,1149.38 L2549.48,1151.98 L2551.64,1152.94 L2554.65,1155.34 L2557.8,1159.37 L2562.31,1163.01 L2569.92,1166.5 L2581.23,1174.55 L2587.35,1178.48 L2591.93,1180.79 L2594.99,1184.53 L2598.25,1187.8 L2601.4,1192.31 L2603.12,1195.29 L2605.99,1197.79 L2608.95,1199.42 L2613.45,1199.71 L2615.93,1199.61 L2618.52,1199.23 L2621.68,1197.77 L2627.43,1192.57 L2636.59,1186.26 L2638.5,1183.77 L2639.65,1181.65 L2641.22,1177.98 L2639.55,1173.01 L2638.79,1169.26 L2638.4,1163.41 L2639.07,1157.45 L2640.6,1152.94 L2647.3,1144.89 L2651.02,1142.45 L2654.99,1141.07 L2659.07,1140.07 L2666.46,1138.68 L2670.24,1138.44 L2673.02,1138.53 L2674.54,1139.93 L2675.5,1142.18 L2675.31,1144.49 L2673.4,1148.9 L2668.52,1154.67 L2666.71,1157.84 L2665.08,1160.24 L2662.98,1168.59 L2661.16,1173.97 L2658.87,1182.13 L2658.84,1188.69 L2659.87,1193.99 L2660.34,1201.63 L2660.21,1207.58 L2654.28,1220.36 L2653.8,1222.85 L2653.22,1227.94 L2653.51,1233.32 L2654.56,1236.39 L2655.14,1242.44 L2653.99,1251.66 L2654.75,1256.66 L2660.11,1266.74 L2666.23,1272.02 L2671.01,1274.23 L2675.02,1275.57 L2678.66,1275.57 L2684.2,1274.52 L2691.57,1275.09 L2693.96,1276.15 L2695.2,1277.69 L2696.57,1281.43 L2696.57,1284.6 L2696.25,1287.77 L2695.77,1289.5 L2693.96,1293.53 L2692.36,1294.72 L2683.69,1306.32 L2681.33,1308.7 L2677.92,1313.64 L2677.7,1315.91 L2675.41,1320.71 L2672.06,1325.13 L2669.59,1328.98 L2668.9,1331.46 L2668.62,1333.96 L2667.47,1335.59 L2665.94,1336.07 L2664.31,1334.64 L2662.79,1334.73 L2662.02,1335.88 L2659.08,1341.7 L2656.47,1342.89 L2653.8,1346.35 L2651.89,1347.21 L2649.3,1347.79 L2647.87,1347.21 L2647.1,1346.54 L2647.2,1345.39 L2649.91,1344.19 L2651.5,1341.74 L2651.12,1339.72 L2649.95,1337.62 L2645,1331.56 L2636.4,1332.62 L2633.14,1334.34 L2629.5,1337.17 L2627.79,1340.87 L2625.3,1345.1 L2624.25,1349.32 L2624.25,1352.2 L2624.64,1356.53 L2625.88,1365.46 L2627.79,1375.15 L2629.8,1378.61 L2633.32,1383.61 L2634.87,1387.64 L2636.3,1390.33 L2636.78,1393.3 L2636.4,1396.09 L2635.54,1400.03 L2632.76,1403.87 L2629.99,1406.27 L2626.07,1407.8 L2612.49,1409.72 L2605.46,1412.4 L2602.95,1415.77 L2600.44,1417.98 L2597.58,1423.74 L2598.34,1426.82 L2598.82,1436.13 L2598.19,1440.09 L2597.58,1442.56 L2596.43,1444.87 L2595.47,1446.4 L2592.03,1448.13 L2588.49,1450.34 L2587.15,1451.78 L2582.47,1461.86 L2578.26,1470.12 L2574.6,1476.01 L2571.31,1480.13 L2567.36,1483.76 L2562.2,1486.83 L2538.87,1487.6 L2534.47,1485.58 L2533.8,1483.37 L2534.18,1481.84 L2535.04,1480.2 L2537.05,1478.09 L2541.83,1474.15 L2545.66,1470.5 L2549.67,1464.65 L2553.69,1460.52 L2556.46,1450.05 L2556.56,1446.02 L2555.6,1439.01 L2553.88,1437.95 L2546.71,1437.95 L2543.46,1436.71 L2540.36,1435.01 L2537.43,1432.19 L2535.52,1429.98 L2534.7,1426.33 L2534.66,1425.28 L2535.24,1422.88 L2536.77,1418.94 L2539.25,1415.87 L2540.78,1415.1 L2542.88,1416.25 L2545.85,1416.64 L2550.82,1416.64 L2552.73,1416.35 L2553.78,1414.62 L2557.04,1406.36 L2559.71,1400.6 L2567.65,1387.45 L2569.47,1383.51 L2569.66,1380.05 L2569.18,1376.31 L2567.36,1375.83 L2564.49,1376.98 L2562.49,1378.23 L2557.23,1378.8 L2544.89,1377.65 L2539.35,1378.42 L2533.51,1379.67 L2529.79,1381.78 L2525.2,1384.85 L2518.12,1391.58 L2515.06,1393.5 L2511.04,1395.61 L2508.53,1398.62 L2504.26,1405.21 L2501.39,1406.27 L2496.03,1406.46 L2488.48,1407.23 L2481.95,1407.63 L2475.67,1409.82 L2470.22,1413.08 L2466.68,1417.02 L2464.58,1422.11 L2463.43,1423.84 L2458.74,1424.32 L2452.69,1426.71 L2451.29,1428.54 L2450.23,1430.56 L2450.23,1433.44 L2451,1438.82 L2451.09,1441.6 L2447.75,1443.33 L2445.31,1443.23 L2441.82,1441.99 L2439.05,1439.2 L2436.37,1434.88 L2434.17,1431.9 L2427,1424.22 L2422.4,1422.26 L2417.92,1422.01 L2415.33,1423.74 L2411.41,1428.93 L2408.35,1431.33 L2407.02,1434.11 L2405.96,1437.86 L2405.01,1442.76 L2406.44,1448.8 L2406.54,1458.5 L2406.16,1462.44 L2406.25,1467.82 L2409.02,1471.27 L2411.41,1473.29 L2415.24,1474.15 L2419.54,1474.73 L2423.37,1474.96 L2428.87,1477.8 L2435.13,1482.32 L2437.9,1487.5 L2437.9,1495.85 L2440.67,1502.48 L2440.58,1507.95 L2440.1,1510.35 L2436.18,1515.92 L2435.7,1518.32 L2435.89,1521.59 L2436.47,1524.85 L2439.01,1529.24 L2440.34,1533.87 L2440.34,1537.05 L2439.24,1540.41 L2436.99,1545.64 L2432.83,1550.01 L2428.82,1550.78 L2420.21,1550.49 L2411.89,1551.06 L2409.69,1552.5 L2406.88,1555.89 L2401.46,1560.8 L2396.34,1570.69 L2391.5,1579.22 L2389.42,1581.79 L2386.75,1587.36 L2386.17,1591.77 L2386.22,1599.81 L2386.94,1603.1 L2387.89,1605.89 L2390.28,1609.34 L2392.48,1612.13 L2395.26,1614.53 L2404.09,1619.54 L2415.91,1625.07 L2423.27,1629.6 L2425.09,1631.43 L2425.76,1633.54 L2425.09,1636.99 L2425.37,1643.81 L2425.76,1646.79 L2425.76,1649.28 L2424.23,1652.45 L2421.45,1652.93 L2419.47,1652.98 L2417.06,1654.28 L2413.71,1657.83 L2409.98,1664.07 L2409.5,1667.53 L2409.88,1675.21 L2410.65,1678.66 L2412.18,1681.25 L2419.22,1686.28 L2420.45,1687.69 L2421.12,1688.87 L2421.63,1691.64 L2421.07,1695.73 L2420.1,1699.21 L2418.77,1702.29 L2418.01,1705.77 L2417.34,1714.01 L2417.6,1720.46 L2419.18,1724.92 L2419.94,1725.94 L2421.01,1729.22 L2421.12,1734.54 L2420.66,1739.56 L2418.16,1751.08 L2414.59,1760.61 L2414.03,1763.17 L2414.28,1770.85 L2413.75,1775.02 L2413.01,1778.44 L2411.69,1780.78 L2411.12,1781.29 L2409.44,1783.95 L2408.78,1786.16 L2408.11,1787.49 L2406.89,1788.92 L2404.19,1791.22 L2402.61,1793.63 L2397.4,1797.83 L2395.62,1799.78 L2393.63,1802.85 L2393.17,1805.77 L2389.14,1816.98 L2388.22,1820.36 L2387.05,1823.17 L2387.1,1827.63 L2387,1828.91 L2386.29,1831.62 L2385.98,1837.36 L2385.11,1839.61 L2382.92,1843.81 L2382.12,1849.08 L2378.46,1853.92 L2375.22,1855.99 L2372.99,1856.19 L2368.8,1854.25 L2366.65,1853.94 L2362.37,1854.15 L2358.24,1855.58 L2354.72,1857.37 L2351.97,1859.27 L2350.08,1861.66 L2347.61,1865.48 L2344.98,1868.54 L2343.81,1871.2 L2342.74,1874.63 L2342.64,1876.47 L2343.72,1878.5 L2348.5,1881.65 L2350.08,1883.18 L2351.05,1885.48 L2350.08,1891.32 L2348.69,1895.55 L2346.63,1898.13 L2345.19,1899.36 L2340.44,1902.28 L2337.33,1905.45 L2331.77,1911.75 L2327.75,1915.74 L2325.3,1920.35 L2323.26,1923.32 L2317.14,1926.13 L2313.01,1926.03 L2308.01,1924.85 L2305.31,1923.68 L2302.86,1921.32 L2301.53,1916.82 L2301.53,1913.74 L2302.4,1910.47 L2304.12,1906.81 L2304.7,1904.78 L2305.31,1899.15 L2304.59,1897.21 L2302.35,1894.85 L2300.26,1890.91 L2297.63,1887.32 L2295.98,1887.02 L2292.1,1887.53 L2288.79,1889.42 L2286.34,1890.4 L2283.94,1889.99 L2283.31,1889.27 L2279.25,1887.02 L2277.41,1886.46 L2271.91,1887.27 L2263.7,1892.45 L2262.32,1894.49 L2261.45,1897.92 L2260.74,1902.48 L2258.44,1906.68 L2255.89,1910.52 L2254.11,1912 L2251.3,1912.46 L2246.61,1912.87 L2242.28,1914.31 L2240.49,1918.56 L2238.8,1920.07 L2236.92,1921.37 L2234.68,1922.6 L2232.79,1922.75 L2231.32,1923.46 L2222.9,1925.15 L2219.48,1925.31 L2214.38,1926.44 L2211.63,1926.8 L2209.23,1928.54 L2208.11,1930.64 L2207.7,1935.04 L2207.86,1942.62 L2207.3,1943.95 L2204.57,1946.93 L2204.13,1948.25 L2203.17,1949.07 L2198.53,1950.04 L2195.12,1950.03 L2192.56,1950.86 L2190.62,1951.94 L2190.32,1952.48 L2186.24,1953.88 L2185.16,1953.88 L2183.23,1953.47 L2180.22,1955.57 L2178.33,1963.71 L2177.92,1968.47 L2178.28,1970.57 L2179.15,1972.31 L2181.24,1974.1 L2184.66,1976.05 L2185.83,1977.12 L2187.66,1979.99 L2189.3,1981.99 L2190.98,1983.57 L2192.61,1984.29 L2193.98,1986.78 L2195.72,1993.1 L2195.92,1996.17 L2195.31,1999.65 L2193.68,2001.7 L2193.27,2003.95 L2193.48,2006.25 L2195.57,2012.09 L2198.07,2015.21 L2204.7,2017.88 L2206.07,2018.8 L2206.63,2020.64 L2206.68,2022.89 L2206.23,2025.09 L2206.17,2030.98 L2205.62,2034.15 L2205.46,2038.2 L2206.02,2040.5 L2207.14,2041.99 L2207.6,2045.26 L2208.72,2049.31 L2210.71,2052.89 L2212.96,2054.02 L2216.02,2054.84 L2216.93,2055.76 L2219.33,2058.93 L2220.45,2063.95 L2220.81,2067.33 L2220.56,2070.76 L2218.52,2081.3 L2209.94,2090.7 L2202.25,2096.2 L2201.38,2098.3 L2201.13,2102.7 L2200.72,2104.95 L2199.39,2108.38 L2198.27,2112.53 L2196.38,2125.58 L2196.49,2130.4 L2197.91,2133.98 L2203.01,2139 L2208.37,2142.12 L2210.36,2143.81 L2212.98,2145.52 L2213.73,2146.25 L2214.89,2149.08 L2217.5,2152.82 L2220.61,2156.45 L2226.88,2162.75 L2229.12,2165.51 L2230.96,2168.58 L2231.88,2171.66 L2231.93,2174.27 L2231.82,2176.77 L2231.16,2180.51 L2230.75,2185.12 L2229.16,2194.63 L2227.55,2197.79 L2226.67,2198.94 L2225.2,2201.91 L2220.2,2212.96 L2217.44,2216.6 L2212.5,2224.48 L2208.59,2229.16 L2205.73,2231.93 L2200.26,2234.31 L2195.82,2237.79 L2192.66,2240.71 L2190.26,2242.4 L2188.33,2243.06 L2184.81,2243.68 L2182.82,2245.57 L2182.77,2248.28 L2183.79,2251.71 L2185.11,2254.48 L2186.34,2256.17 L2188.62,2258.33 L2189.91,2259.85 L2193.32,2262.05 L2205.05,2265.12 L2207.25,2265.18 L2210,2265.53 L2213.72,2265.33 L2217.14,2265.53 L2218.82,2266.2 L2219.79,2267.27 L2222.9,2269.63 L2225.2,2272.19 L2226.7,2275.14 L2232.12,2281.41 L2234.69,2284.01 L2240.09,2287.7 L2246.66,2293.28 L2251.76,2299.98 L2252.12,2303.77 L2251.76,2306.07 L2250.34,2309.55 L2250.08,2313.04 L2249.21,2314.26 L2246.21,2316.57 L2243.15,2320.46 L2241.97,2323.22 L2242.13,2327.98 L2243.15,2340.16 L2244.27,2344 L2247.09,2349.37 L2251.1,2355.47 L2254.47,2361 L2260.53,2366.78 L2264.87,2369.34 L2268.03,2372 L2269.76,2373.79 L2271.09,2375.53 L2272.09,2377.63 L2272.67,2384.54 L2271.96,2390.78 L2271.4,2393.09 L2269.97,2395.75 L2268.59,2397.59 L2266.76,2398.97 L2264.82,2399.49 L2254.31,2399.54 L2250.39,2399.74 L2242.33,2403.48 L2236.21,2405.52 L2229.48,2404.55 L2227.08,2403.68 L2223.51,2401.58 L2221.73,2399.79 L2220.25,2397.39 L2219.69,2395.85 L2211.84,2385.46 L2210.05,2384.44 L2208.42,2384.03 L2206.58,2384.23 L2195.06,2387.71 L2192.41,2387.82 L2187.31,2387.05 L2185.22,2387.15 L2180.01,2388.17 L2177.72,2389.61 L2177.11,2390.43 L2174.61,2395.7 L2172.42,2402.2 L2171.86,2407.57 L2171.19,2409.98 L2170.84,2415.51 L2170.38,2417.86 L2168.85,2423.03 L2165.43,2425.43 L2164.61,2426.71 L2161.4,2428.3 L2157.78,2429.73 L2151.97,2430.91 L2149.32,2431.78 L2143.76,2430.04 L2140.49,2428.66 L2137.89,2426.41 L2135.34,2423.29 L2132.95,2421.08 L2131.14,2420.03"/>
  </g>
  <g stroke-width="1" transform="matrix(0.999744,0,0,0.999744,0,0)" stroke-opacity="1" font-size="34.5833" fill="none" stroke-linejoin="bevel" font-style="normal" stroke-linecap="square" stroke="#000000" font-family="MS Shell Dlg 2" font-weight="400"/>
  <g stroke-width="1" transform="matrix(11.808,0,0,11.808,0,0)" stroke-opacity="1" font-size="34.5833" fill="none" stroke-linejoin="bevel" font-style="normal" stroke-linecap="square" stroke="#000000" font-family="MS Shell Dlg 2" font-weight="400"/>
  <g stroke-width="1" transform="matrix(11.808,0,0,11.808,0,0)" stroke-opacity="1" font-size="34.5833" fill="none" stroke-linejoin="bevel" font-style="normal" stroke-linecap="square" stroke="#000000" font-family="MS Shell Dlg 2" font-weight="400"/>
  <g stroke-width="1" transform="matrix(11.808,0,0,11.808,0,0)" stroke-opacity="1" font-size="34.5833" fill="none" stroke-linejoin="bevel" font-style="normal" stroke-linecap="square" stroke="#000000" font-family="MS Shell Dlg 2" font-weight="400"/>
  <g stroke-width="1" transform="matrix(1,0,0,1,0,0)" stroke-opacity="1" font-size="34.5833" fill="none" stroke-linejoin="bevel" font-style="normal" stroke-linecap="square" stroke="#000000" font-family="MS Shell Dlg 2" font-weight="400"/>
  <g stroke-width="1" transform="matrix(11.808,0,0,11.808,0,0)" stroke-opacity="1" font-size="34.5833" fill="none" stroke-linejoin="bevel" font-style="normal" stroke-linecap="square" stroke="#000000" font-family="MS Shell Dlg 2" font-weight="400"/>
  <g stroke-width="1" transform="matrix(11.808,0,0,11.808,0,0)" stroke-opacity="1" font-size="34.5833" fill="none" stroke-linejoin="bevel" font-style="normal" stroke-linecap="square" stroke="#000000" font-family="MS Shell Dlg 2" font-weight="400"/>
  <g stroke-width="1" transform="matrix(11.808,0,0,11.808,0,0)" stroke-opacity="1" font-size="34.5833" fill="none" stroke-linejoin="bevel" font-style="normal" stroke-linecap="square" stroke="#000000" font-family="MS Shell Dlg 2" font-weight="400"/>
  <g stroke-width="1" transform="matrix(11.808,0,0,11.808,0,0)" stroke-opacity="1" font-size="34.5833" fill="none" stroke-linejoin="bevel" font-style="normal" stroke-linecap="square" stroke="#000000" font-family="MS Shell Dlg 2" font-weight="400"/>
  <g stroke-width="1" transform="matrix(1,0,0,1,0,0)" stroke-opacity="1" font-size="34.5833" fill="none" stroke-linejoin="bevel" font-style="normal" stroke-linecap="square" stroke="#000000" font-family="MS Shell Dlg 2" font-weight="400"/>
 </g>
</svg>
