<?xml version='1.0' encoding='UTF-8' standalone='no'?>
<svg width="249.936mm" version="1.2" viewBox="0 0 2952 2952" baseProfile="tiny" xmlns="http://www.w3.org/2000/svg" height="249.936mm" xmlns:xlink="http://www.w3.org/1999/xlink">
 <title>Qt SVG Document</title>
 <desc>Generated with Qt</desc>
 <defs/>
 <g fill="none" stroke="black" fill-rule="evenodd" stroke-width="1" stroke-linecap="square" stroke-linejoin="bevel">
  <g font-size="34.5833" font-style="normal" fill="none" stroke="#000000" transform="matrix(1,0,0,1,0,0)" font-family="MS Shell Dlg 2" stroke-opacity="1" stroke-width="1" stroke-linecap="square" font-weight="400" stroke-linejoin="bevel"/>
  <g font-size="34.5833" font-style="normal" fill="none" stroke="#000000" transform="matrix(1,0,0,1,0,0)" font-family="MS Shell Dlg 2" stroke-opacity="1" stroke-width="1" stroke-linecap="square" font-weight="400" stroke-linejoin="bevel"/>
  <g font-size="34.5833" font-style="normal" fill="none" stroke="#000000" transform="matrix(11.808,0,0,11.808,0,0)" font-family="MS Shell Dlg 2" stroke-opacity="1" stroke-width="1" stroke-linecap="square" font-weight="400" stroke-linejoin="bevel"/>
  <g font-size="34.5833" font-style="normal" fill="none" stroke="#000000" transform="matrix(0.999744,0,0,0.999744,0,0)" font-family="MS Shell Dlg 2" stroke-opacity="1" stroke-width="1" stroke-linecap="square" font-weight="400" stroke-linejoin="bevel"/>
  <g font-size="34.5833" font-style="normal" fill="#ffffff" stroke="none" transform="matrix(0.999744,0,0,0.999744,0,0)" font-family="MS Shell Dlg 2" fill-opacity="0" font-weight="400">
   <path vector-effect="none" d="M-2,-2 L2955,-2 L2955,2955 L-2,2955 L-2,-2" fill-rule="evenodd"/>
  </g>
  <g font-size="34.5833" font-style="normal" fill="none" stroke="#000000" transform="matrix(0.999744,0,0,0.999744,0,0)" font-family="MS Shell Dlg 2" stroke-opacity="1" stroke-width="1" stroke-linecap="square" font-weight="400" stroke-linejoin="bevel"/>
  <g font-size="34.5833" font-style="normal" fill="none" stroke="#000000" transform="matrix(11.808,0,0,11.808,0,0)" font-family="MS Shell Dlg 2" stroke-opacity="1" stroke-width="1" stroke-linecap="square" font-weight="400" stroke-linejoin="bevel"/>
  <g font-size="34.5833" font-style="normal" fill="none" stroke="#000000" transform="matrix(11.808,0,0,11.808,0,0)" font-family="MS Shell Dlg 2" stroke-opacity="1" stroke-width="1" stroke-linecap="square" font-weight="400" stroke-linejoin="bevel"/>
  <g font-size="34.5833" font-style="normal" fill="none" stroke="#000000" transform="matrix(11.808,0,0,11.808,0,0)" font-family="MS Shell Dlg 2" stroke-opacity="1" stroke-width="1" stroke-linecap="square" font-weight="400" stroke-linejoin="bevel"/>
  <g font-size="34.5833" font-style="normal" fill="none" stroke="#000000" transform="matrix(11.808,0,0,11.808,0,0)" font-family="MS Shell Dlg 2" stroke-opacity="1" stroke-width="1" stroke-linecap="square" font-weight="400" stroke-linejoin="bevel"/>
  <g font-size="34.5833" font-style="normal" fill="none" stroke="#000000" transform="matrix(11.808,0,0,11.808,0,0)" font-family="MS Shell Dlg 2" stroke-opacity="1" stroke-width="1" stroke-linecap="square" font-weight="400" stroke-linejoin="bevel"/>
  <g font-size="34.5833" font-style="normal" fill="#ffffff" stroke="none" transform="matrix(11.808,0,0,11.808,0,0)" font-family="MS Shell Dlg 2" fill-opacity="0" font-weight="400">
   <path vector-effect="none" d="M0,0 L250,0 L250,250 L0,250 L0,0" fill-rule="evenodd"/>
  </g>
  <g font-size="34.5833" font-style="normal" fill="none" stroke="#000000" transform="matrix(11.808,0,0,11.808,0,0)" font-family="MS Shell Dlg 2" stroke-opacity="1" stroke-width="1" stroke-linecap="square" font-weight="400" stroke-linejoin="bevel"/>
  <g font-size="34.5833" font-style="normal" fill="none" stroke="#000000" transform="matrix(11.808,0,0,11.808,0,0)" font-family="MS Shell Dlg 2" stroke-opacity="1" stroke-width="1" stroke-linecap="square" font-weight="400" stroke-linejoin="bevel"/>
  <g font-size="34.5833" font-style="normal" fill="#000000" stroke="none" transform="matrix(0.999744,0,0,0.999744,0,0)" font-family="MS Shell Dlg 2" fill-opacity="0" font-weight="400">
   <rect width="2953" x="0" y="0" height="2953"/>
  </g>
  <g font-size="34.5833" font-style="normal" fill="none" stroke="#000000" transform="matrix(0.999744,0,0,0.999744,0,0)" font-family="MS Shell Dlg 2" stroke-opacity="1" stroke-width="1" stroke-linecap="square" font-weight="400" stroke-linejoin="bevel"/>
  <g font-size="34.5833" font-style="normal" fill="#c5c5c5" stroke="#5c5c5c" transform="matrix(0.999744,0,0,0.999744,0,0)" font-family="MS Shell Dlg 2" fill-opacity="1" stroke-opacity="1" stroke-width="3.07087" stroke-linecap="square" font-weight="400" stroke-linejoin="bevel">
   <path vector-effect="none" d="M58.6015,2234.69 L61.1634,2232.91 L61.763,2229.06 L69.358,2217.7 L72.7217,2217.46 L79.7789,2213.61 L86.6757,2202.23 L87.6066,2201.32 L88.7226,2200.23 L99.3466,2189.88 L110.39,2184.47 L121.641,2178.97 L124.41,2176.41 L140.567,2161.49 L144.643,2157.41 L145.607,2156.67 L148.947,2153.46 L154.361,2148.33 L157.214,2147.06 L163.561,2144.27 L168.125,2142.29 L169.687,2141.72 L172.304,2141.25 L174.277,2140.55 L176.022,2139.82 L179.535,2138.31 L184.185,2136.27 L185.189,2135.7 L186.544,2134.58 L187.801,2133.2 L188.875,2131.81 L190.101,2130.28 L191.209,2129.22 L192.209,2128.83 L193.625,2128.48 L195.277,2128.21 L199.374,2127.58 L201.024,2127.4 L202.074,2127.41 L202.694,2127.4 L203.612,2127.43 L204.906,2127.37 L208.105,2127.24 L211.373,2126.97 L215.588,2126.75 L217.175,2126.38 L218.434,2125.78 L219.413,2125.01 L220.299,2124.05 L221.421,2121.86 L222.616,2119.96 L223.46,2118.94 L224.897,2116.55 L227.292,2114.81 L228.218,2114.31 L229.177,2113.53 L230.656,2112.06 L232.073,2110.41 L233.78,2107.62 L235.127,2106.16 L237.512,2102.9 L240.166,2100.05 L243.838,2097.51 L245.752,2096.19 L247.438,2094.53 L248.589,2092.9 L249.856,2090.55 L251.447,2087.33 L252.463,2085.59 L253.81,2084.29 L256.599,2082.69 L258.548,2081.85 L260.836,2081.52 L267.143,2079.32 L269.836,2078.29 L271.495,2077.26 L273.109,2076.64 L275.624,2075.92 L280.074,2073.87 L282.487,2071.35 L283.015,2070.49 L283.408,2069.52 L283.486,2068.17 L283.359,2064.75 L282.834,2059.48 L282.17,2056.99 L279.959,2054.76 L278.134,2053.29 L277.33,2052.41 L275.81,2052.22 L271.232,2050.32 L268.88,2047.61 L266.655,2044.9 L266.374,2040.6 L266.342,2039.76 L266.48,2038.79 L266.913,2038.06 L267.582,2037.61 L269.66,2036.84 L270.551,2036.78 L271.397,2036.28 L272.397,2035.63 L274.402,2035.21 L276.368,2034.54 L279.947,2034.46 L285.079,2032.53 L287.866,2031.8 L289.689,2030.47 L290.068,2030.21 L290.909,2028.68 L291.099,2027.22 L290.378,2025.29 L289.062,2024.03 L283.714,2019.73 L279.322,2017.72 L275.377,2017.56 L274.39,2017.78 L273.911,2017.98 L273.13,2018.24 L270.831,2018.14 L269.435,2017.41 L268.314,2016.79 L264.726,2015.02 L257.445,2013.5 L256.726,2012.96 L255.891,2011.71 L255.235,2009.44 L254.696,2007.93 L254.239,2006.45 L253.491,2003.72 L252.549,2001.83 L251.571,2000.7 L250.855,1998.69 L248.813,1995.64 L247.203,1994.53 L246.085,1992.4 L244.111,1988.79 L242.887,1987.07 L241.419,1986.43 L238.903,1984 L237.246,1983.21 L234.588,1980.66 L233.13,1979.32 L232.729,1978.28 L232.487,1977.78 L232.422,1976.89 L232.516,1971.58 L232.47,1970.71 L232.656,1970.17 L233.111,1969.73 L234.681,1968.29 L235.27,1967.56 L235.934,1966.39 L236.461,1965.99 L237.216,1965.63 L238.942,1964.91 L240.976,1964.8 L242.451,1965.18 L243.176,1965.31 L243.887,1965.14 L244.951,1964.84 L247.67,1963.43 L248.723,1962.71 L249.243,1962.01 L249.551,1961.22 L249.71,1957.51 L249.045,1953.64 L248.312,1951.82 L247.695,1950.05 L246.163,1947.84 L246.002,1947.12 L245.522,1945.29 L245.742,1940.92 L247.697,1937.02 L252.064,1934.03 L253.875,1932.93 L254.756,1932.71 L256.042,1932.66 L257.949,1931.98 L270.459,1927.89 L271.77,1926.4 L273.752,1924.99 L275.394,1923.62 L276.937,1922.16 L278.592,1919.87 L280.06,1916.97 L280.171,1916.55 L280.316,1916.02 L280.336,1915.95 L280.382,1914.75 L280.055,1913.7 L279.564,1912.92 L277.365,1911.11 L276.28,1910.27 L275.013,1909.67 L273.73,1908.84 L272.423,1907.95 L270.496,1906.47 L268.462,1904.36 L267.355,1902.48 L267.089,1901.58 L266.492,1900.85 L266.06,1899.39 L265.877,1897.24 L265.618,1895.95 L265.512,1895.1 L265.575,1894.78 L266.54,1892.86 L267.896,1891.07 L269.367,1888.73 L269.907,1888.08 L270.738,1885.96 L271.222,1882.45 L270.916,1879.12 L270.092,1876.33 L269.05,1874.68 L268.489,1874.01 L267.871,1873.27 L266.809,1871.99 L265.949,1870.96 L264.188,1869.23 L263.305,1868.61 L261.388,1867.16 L259.148,1866.15 L252.884,1862.56 L245.944,1855.78 L244.019,1851.77 L244.982,1843.27 L247.067,1838.14 L249.52,1836.17 L251.483,1832.61 L251.397,1826.91 L253.161,1821.14 L253.976,1815.23 L252.651,1809.92 L251.413,1806.96 L250.769,1806.23 L250.077,1805.45 L249.61,1804.23 L249.47,1803.03 L249.59,1800.85 L251.953,1795.04 L253.733,1792.59 L256.882,1789.22 L257.332,1788.74 L260.598,1783.37 L261.023,1782.36 L261.362,1778.74 L261.26,1778.06 L260.997,1777.22 L260.587,1775.92 L260.496,1775.32 L260.54,1774.78 L260.838,1774.12 L261.455,1773.37 L262.119,1772.81 L262.633,1772.64 L264.302,1772.41 L266.333,1772.2 L268.942,1772.57 L269.755,1772.74 L270.635,1772.73 L271.386,1772.81 L272.792,1773 L274.038,1772.99 L275.742,1773.01 L278.641,1774.03 L280.176,1774.32 L280.94,1774.19 L281.591,1774.3 L284.523,1774.97 L287.093,1775.42 L288.295,1775.75 L290.489,1776.06 L292.512,1776.39 L299.108,1776.76 L299.893,1776.6 L300.593,1776.03 L301.721,1774.98 L302.512,1772.41 L302.924,1771.08 L303.768,1769.06 L303.916,1767.81 L303.715,1766.46 L303.103,1765.05 L301.614,1762.46 L301.175,1761.69 L300.03,1759.14 L297.049,1755.28 L292.762,1750.44 L286.157,1744.96 L285.444,1744.37 L282.999,1742.99 L281.923,1742.42 L280.588,1742.33 L269.842,1744.15 L264.846,1744.72 L262.785,1744.95 L259.095,1745.16 L255.728,1744.15 L251.361,1743.14 L250.683,1742.83 L250.317,1742.49 L250.072,1741.94 L249.853,1741.39 L248.464,1737.93 L248.315,1737.13 L248.424,1736.01 L249.419,1730.12 L250.118,1728.79 L251.294,1727.29 L253.922,1725.21 L257.171,1719.13 L259.256,1714.8 L260.311,1708.82 L261.246,1697.34 L261.464,1685.33 L264.626,1680.9 L269.259,1678.61 L273.62,1672.63 L274.801,1667.18 L272.239,1662.08 L273.32,1648.22 L267.724,1646.87 L79.4011,1264.86 L79.1331,1093.54 L173.904,1093.72 L271.91,1093.91 L271.831,1026.88 L270.067,1025.2 L260.463,1005.24 L260.463,983.101 L264.745,974.222 L266.015,975.193 L267.501,976.204 L268.725,977.127 L269.678,977.814 L270.986,978.364 L272.079,978.54 L273.27,978.407 L273.303,978.403 L274.182,977.951 L275.004,977.028 L275.49,975.88 L275.49,974.505 L275.004,973.504 L273.92,972.444 L272.827,971.894 L271.687,971.756 L271.033,971.344 L270.556,970.519 L270.248,969.734 L270.379,968.733 L270.902,967.81 L271.156,967.543 L271.603,967.073 L272.341,966.985 L273.565,967.26 L274.92,967.584 L276.097,967.859 L277.405,967.947 L278.676,967.996 L280.161,968.085 L281.507,968.183 L283.039,968.222 L284.441,968.458 L285.833,968.958 L286.879,969.371 L288.019,970.107 L289.15,971.118 L289.636,971.943 L289.673,972.993 L289.766,974.142 L290.159,975.742 L290.505,977.716 L291.028,979.237 L291.897,980.651 L293.037,981.712 L293.641,982.409 L293.887,982.693 L295.27,984.323 L295.877,985.609 L296.157,986.886 L296.709,988.457 L297.867,990.087 L298.811,990.961 L298.935,991.034 L299.904,991.609 L300.586,992.443 L301.81,993.641 L302.679,994.603 L303.343,995.654 L303.642,996.616 L303.557,997.814 L303.343,998.825 L303.427,999.415 L303.903,1000.01 L304.912,1000.65 L305.828,1000.89 L306.958,1001.44 L308.014,1002.08 L309.36,1002.59 L310.761,1002.95 L312.378,1003.04 L314.34,1003 L315.872,1003 L317.203,1003.13 L317.218,1003.14 L318.927,1003.09 L319.796,1002.81 L320.665,1002.12 L321.721,1001.21 L322.768,1000.2 L323.73,999.14 L324.237,998.026 L324.253,997.991 L324.431,997.733 L325.038,996.852 L325.86,995.752 L326.953,994.603 L328,993.504 L328.962,992.492 L329.747,991.432 L330.14,990.018 L330.233,988.319 L330.364,986.847 L330.625,985.56 L331.018,984.559 L331.494,984.048 L332.326,983.685 L332.522,983.647 L333.027,983.548 L333.718,983.587 L334.419,983.773 L335.073,983.911 L336.035,983.862 L336.665,983.627 L336.773,983.587 L337.521,983.175 L338.222,982.448 L338.876,981.574 L339.399,980.749 L339.578,980.27 L339.707,979.925 L340.23,979.051 L340.286,978.985 L340.623,978.589 L341.099,978.089 L341.576,977.49 L341.931,976.665 L342.108,975.84 L342.37,974.967 L342.763,974.417 L343.37,973.641 L343.94,973.18 L344.725,972.669 L345.594,972.08 L345.689,971.992 L346.294,971.432 L346.902,970.657 L347.602,970.058 L348.068,969.848 L348.518,969.646 L349.527,969.233 L350.127,969.121 L350.527,969.047 L351.573,968.87 L352.44,968.589 L352.844,968.458 L353.806,967.859 L354.675,967.172 L355.638,966.249 L356.684,965.522 L358.123,964.688 L359.655,963.912 L361.664,962.901 L363.234,962.077 L363.426,961.987 L364.411,961.527 L365.589,961.164 L366.682,961.065 L367.812,961.114 L369.868,961.114 L371.438,961.301 L372.484,961.252 L373.493,961.114 L374.717,961.164 L375.848,961.203 L376.763,961.478 L377.857,962.027 L379.165,962.724 L380.959,963.412 L382.837,963.961 L384.36,964.413 L385.845,964.923 L387.153,965.424 L388.508,965.886 L389.424,966.298 L390.601,966.71 L391.61,967.26 L392.741,968.134 L393.572,969.096 L394.45,970.244 L395.273,971.157 L396.151,971.707 L397.328,972.169 L398.636,972.532 L399.944,972.768 L400.991,973.082 L402.523,973.592 L404.485,974.23 L406.363,974.741 L408.372,975.242 L410.204,975.654 L412.166,976.017 L414.399,976.302 L415.922,976.341 L417.307,976.305 L417.407,976.302 L417.518,976.252 L418.239,975.929 L419.416,975.566 L420.593,975.428 L422.032,975.104 L423.079,974.78 L424.219,974.643 L424.484,974.643 L424.957,974.643 L425.788,974.417 L426.053,974.325 L426.835,974.054 L428.012,973.916 L429.367,973.818 L430.46,973.681 L431.203,973.655 L431.6,973.641 L432.684,973.504 L432.934,973.433 L433.824,973.18 L434.424,972.932 L434.824,972.768 L435.008,972.665 L435.739,972.257 L436.533,971.668 L437.318,971.118 L438.318,970.745 L439.804,970.47 L441.289,970.146 L442.644,970.009 L443.859,969.871 L445.176,969.734 L446.83,969.871 L448.138,969.97 L449.717,969.97 L450.717,969.646 L450.978,969.497 L451.679,969.096 L452.16,968.73 L452.286,968.634 L452.987,968.134 L453.856,967.535 L453.971,967.44 L454.688,966.848 L455.388,965.935 L456.043,964.825 L456.351,963.775 L456.388,962.587 L456.173,961.438 L456.173,960.201 L456.482,959.23 L457.089,958.454 L458.266,957.404 L459.275,956.393 L459.981,955.955 L460.322,955.745 L461.499,955.332 L462.331,955.332 L463.33,955.47 L464.947,955.47 L466.479,955.47 L468.787,955.47 L470.889,955.47 L472.935,955.519 L475.206,955.794 L476.953,956.255 L478.485,957.08 L479.439,957.816 L480.186,957.993 L480.924,958.317 L481.232,958.729 L482.195,959.328 L483.634,960.015 L485.287,960.614 L486.605,961.164 L487.782,961.566 L488.978,962.027 L490.492,962.361 L491.557,962.734 L492.716,963.431 L493.607,964.029 L493.697,964.089 L494.715,964.786 L496.229,965.444 L496.69,965.577 L497.518,965.817 L498.677,966.052 L499.742,966.376 L500.321,967.073 L500.714,968.193 L501.293,969.273 L502.012,970.254 L502.806,971.373 L503.788,972.306 L505.208,973.337 L506.675,974.27 L507.702,975.114 L508.852,976.282 L510.01,977.539 L510.56,978.311 L510.674,978.472 L511.615,979.155 L511.972,979.414 L513.617,980.298 L514.713,980.98 L515.037,981.181 L517.083,981.977 L518.863,982.248 L518.952,982.261 L520.645,982.261 L520.858,982.261 L520.959,982.244 L522.549,981.977 L524.324,981.653 L525.978,981.466 L527.66,981.231 L529.304,980.808 L530.818,980.484 L532.248,980.396 L534.2,980.062 L535.49,979.876 L536.91,979.827 L537.891,979.876 L539.807,979.876 L541.002,979.876 L542.161,979.974 L543.142,980.435 L544.114,981.044 L544.964,981.888 L545.936,982.919 L546.87,983.803 L548.3,985.02 L549.767,986.002 L551.234,986.935 L552.7,987.917 L554.027,988.8 L555.681,989.831 L557.148,990.813 L558.391,991.746 L559.147,992.492 L560.343,993.71 L561.951,994.692 L563.324,995.438 L565.548,996.695 L567.949,997.726 L569.687,998.01 L570.856,998.094 L570.93,998.099 L571.995,997.863 L573.462,997.353 L573.499,997.338 L575.059,996.744 L576.713,996.096 L578.311,995.202 L579.507,994.593 L580.759,993.945 L580.851,993.879 L581.871,993.15 L583.16,991.834 L583.202,991.793 L584.432,990.574 L584.805,990.204 L586.449,988.476 L587.916,986.984 L589.146,985.778 L589.159,985.767 L591.205,984.176 L592.849,982.87 L594.139,981.653 L594.165,981.624 L595.428,980.209 L596.656,978.774 L596.671,978.756 L596.675,978.753 L597.192,978.37 L597.558,978.099 L598.409,977.961 L599.343,978.246 L600.231,978.845 L601.613,980.013 L602.716,981.368 L604.052,982.635 L605.304,983.479 L606.547,983.989 L607.883,984.039 L609.172,983.616 L610.415,983.518 L611.751,983.705 L612.9,983.989 L614.012,984.225 L614.375,984.119 L614.816,983.989 L616.012,983.332 L616.316,983.184 L617.348,982.684 L618.46,982.585 L620.057,983.057 L621.44,983.567 L622.86,984.363 L624.682,985.393 L626.289,986.14 L627.71,986.837 L629.177,987.583 L630.466,988.614 L631.755,989.92 L632.419,991.275 L633.138,993.003 L633.624,994.741 L633.932,996.096 L634.428,997.029 L635.54,997.912 L636.38,998.472 L637.67,999.218 L638.828,1000.06 L641.005,1001.47 L642.556,1002.35 L643.762,1003.1 L644.827,1003.47 L645.855,1003.52 L646.336,1003.31 L646.696,1003.15 L646.877,1002.97 L647.181,1002.68 L647.723,1002.35 L648.518,1002.4 L649.321,1002.59 L650.255,1002.87 L651.096,1002.68 L652.031,1002.03 L652.834,1001.7 L653.769,1001.28 L654.563,1000.91 L655.171,1000.61 L655.413,1000.48 L656.478,999.739 L657.319,999.032 L658.191,998.512 L658.571,998.285 L659.012,998.079 L659.767,997.726 L660.926,997.068 L661.944,996.469 L661.946,996.468 L663.149,995.948 L664.57,995.526 L665.876,995.132 L666.261,995.016 L667.55,994.544 L668.84,993.945 L669.761,993.319 L669.951,993.189 L671.017,992.404 L671.998,991.609 L673.287,991.049 L674.931,990.44 L675.163,990.343 L676.707,989.694 L678.575,988.614 L679.641,987.868 L680.622,987.121 L680.962,986.949 L681.649,986.601 L682.715,986.464 L683.649,986.464 L684.845,986.277 L686.134,985.904 L686.547,985.701 L687.47,985.246 L687.804,985.122 L688.582,984.834 L689.694,984.785 L691.469,984.687 L692.628,984.313 L693.837,983.704 L694.011,983.616 L694.931,983.11 L695.207,982.959 L696.627,982.212 L697.515,981.565 L697.786,981.368 L698.897,979.974 L699.523,978.432 L700.364,976.096 L701.299,973.897 L702.14,972.306 L702.883,971.438 L702.896,971.423 L703.971,970.716 L705.475,970.068 L706.727,969.881 L707.97,969.97 L709.259,970.441 L711.212,970.863 L713.483,971.099 L715.66,971.138 L716.594,970.902 L718.014,970.49 L718.864,970.392 L719.799,970.578 L720.509,971.187 L721.126,971.982 L722.284,972.964 L723.265,973.573 L724.106,974.181 L725.358,974.741 L726.507,975.163 L727.218,975.015 L727.404,974.977 L727.887,974.715 L728.021,974.643 L728.778,974.27 L729.665,974.221 L730.553,974.594 L731.758,975.35 L733.001,976.096 L734.113,976.331 L735.851,976.518 L737.673,976.557 L738.831,976.557 L739.774,976.376 L739.803,976.371 L739.875,976.34 L740.691,975.998 L741.41,975.811 L742.251,975.948 L743.269,976.557 L744.783,977.264 L746.297,977.961 L748.119,978.658 L749.408,978.992 L749.824,978.882 L750.296,978.756 L750.643,978.426 L750.791,978.285 L751.632,978.01 L752.519,977.873 L753.37,977.686 L754.482,977.402 L755.547,976.979 L756.481,976.842 L757.5,976.793 L758.565,976.842 L759.723,977.028 L761.19,977.539 L762.62,978.059 L763.685,978.521 L764.75,979.08 L765.554,979.925 L766.31,981.28 L766.88,982.635 L767.908,984.176 L768.525,984.785 L769.599,985.158 L770.664,985.246 L772.085,985.629 L773.729,985.629 L775.019,985.393 L776.355,984.873 L777.11,984.325 L777.382,984.127 L778.046,983.332 L778.046,982.448 L777.822,981.28 L777.915,980.013 L778.207,978.906 L778.223,978.845 L778.376,978.615 L778.504,978.422 L778.933,977.775 L778.993,977.701 L779.69,976.842 L780.531,975.811 L780.98,974.829 L781.204,973.573 L781.381,972.679 L781.643,971.56 L781.998,970.303 L782.4,968.988 L783.026,967.78 L783.913,966.563 L785.111,965.125 L785.156,965.071 L785.237,964.989 L786.408,963.804 L786.852,963.424 L787.875,962.548 L789.557,961.654 L789.752,961.582 L791.426,960.957 L793.413,960.304 L793.696,960.211 L793.73,960.202 L793.937,960.149 L795.873,959.652 L798.097,959.23 L798.951,959.146 L800.012,959.043 L802.058,959.131 L803.558,959.436 L803.703,959.465 L805.039,959.878 L806.235,960.859 L807.347,962.45 L808.552,963.902 L809.748,965.11 L810.86,966.19 L812.327,967.496 L813.096,968.157 L813.308,968.34 L814.597,969.174 L814.735,969.23 L816.111,969.783 L817.578,970.254 L819.045,970.529 L819.979,970.156 L820.82,969.086 L821.339,968.147 L821.624,967.633 L822.334,966.239 L822.486,966.001 L823.352,964.649 L824.174,963.489 L824.417,963.147 L825.529,961.566 L826.426,960.025 L827.341,959.055 L827.491,958.896 L828.006,958.551 L828.958,957.914 L829.828,957.433 L830.556,957.031 L831.892,956 L833.406,955.352 L835.003,955.067 L837.05,955.165 L839.273,955.539 L841.366,955.725 L843.543,955.627 L845.412,955.539 L845.43,955.54 L845.459,955.543 L846.879,955.676 L847.589,956.098 L848.346,956.844 L849.14,957.541 L850.299,958.15 L851.812,958.807 L853.148,959.416 L853.721,959.78 L854.615,960.349 L854.978,960.576 L855.587,960.957 L856.97,961.841 L857.988,962.587 L859.24,963.667 L860.567,964.835 L861.903,965.954 L863.109,967.221 L863.178,967.277 L864.351,968.242 L865.996,969.174 L867.861,970.112 L867.948,970.156 L869.64,971.138 L870.845,971.933 L871.602,972.777 L872.086,973.286 L872.62,973.847 L873.322,974.248 L873.601,974.407 L874.937,975.35 L875.647,976.047 L876.311,977.166 L877.423,978.383 L877.563,978.531 L878.488,979.503 L879.376,980.347 L880.805,981.702 L881.823,982.821 L883.206,984.274 L884.271,985.531 L885.467,986.984 L885.57,987.095 L886.897,988.526 L887.624,989.375 L887.738,989.507 L889.158,990.391 L890.625,990.627 L892.055,990.529 L893.251,990.018 L894.68,989.036 L895.369,988.499 L895.876,988.103 L897.296,987.308 L898.763,986.837 L900.067,986.703 L900.099,986.699 L900.718,986.699 L901.566,986.699 L902.812,986.925 L903.351,987.023 L905.033,987.632 L906.817,988.899 L908.237,990.106 L909.443,990.951 L910.582,991.463 L910.703,991.517 L910.994,991.648 L911.273,991.72 L912.638,992.07 L913.928,991.982 L914.283,991.813 L914.815,991.559 L915.843,991.049 L916.03,991.009 L916.955,990.813 L918.328,990.951 L919.973,991.461 L920.691,991.971 L921.259,992.374 L921.356,992.443 L922.29,992.914 L923.402,993.71 L924.336,994.593 L925.579,995.526 L926.915,996.655 L928.251,997.49 L929.718,998.148 L930.736,998.806 L932.297,999.925 L932.55,1000.11 L933.493,1000.81 L934.558,1001.47 L935.847,1001.89 L937.314,1001.79 L937.802,1001.71 L938.921,1001.52 L940.164,1001.33 L941.762,1000.95 L943.546,1000.57 L944.285,1000.57 L945.144,1000.57 L946.611,1000.39 L947.757,1000.08 L947.984,1000.01 L950.171,999.552 L951.32,999.218 L952.927,998.943 L953.946,999.032 L955.506,999.454 L957.281,1000.01 L958.701,1000.86 L959.86,1001.74 L960.841,1002.3 L961.775,1002.68 L963.065,1003.24 L964.13,1004.04 L965.644,1005.11 L966.886,1005.77 L968.708,1006.79 L970.091,1007.45 L971.642,1008.52 L972.847,1009.46 L974.268,1010.48 L975.249,1011.56 L976.136,1012.4 L977.071,1013.53 L977.379,1014.55 L977.248,1015.86 L977.117,1016.98 L977.155,1018.2 L977.295,1019.83 L977.295,1021.23 L976.762,1022.49 L976.538,1023.34 L976.622,1024.41 L976.977,1025.35 L977.51,1026.56 L977.734,1027.59 L978.267,1029.18 L978.799,1030.67 L979.827,1032.54 L980.986,1034.23 L982.004,1035.67 L982.985,1036.99 L983.957,1038.43 L985.293,1040.39 L986.358,1041.65 L987.292,1042.5 L988.722,1043.15 L989.834,1043.62 L990.721,1043.71 L991.136,1043.57 L991.787,1043.34 L992.319,1042.73 L992.945,1042.12 L993.419,1041.96 L994.057,1041.75 L994.991,1041.56 L995.786,1041.56 L996.542,1041.56 L997.168,1041.75 L997.748,1042.26 L998.056,1042.41 L998.897,1042.59 L999.794,1042.59 L1000.99,1042.78 L1001.75,1042.92 L1002.86,1043.29 L1003.7,1043.62 L1004.28,1043.9 L1004.73,1044.6 L1004.6,1045.31 L1004.66,1045.59 L1004.77,1046.05 L1005.21,1046.38 L1006.02,1046.56 L1006.95,1046.42 L1007.61,1046 L1008.37,1045.12 L1008.82,1044.51 L1009.12,1044.19 L1009.31,1043.99 L1010.37,1043.48 L1011.48,1043.39 L1012.51,1043.85 L1013.17,1044.46 L1014.06,1045.44 L1014.73,1046.29 L1015.35,1047.12 L1015.53,1048.02 L1015.8,1049.14 L1016.15,1049.98 L1016.64,1050.82 L1017.53,1051.47 L1018.28,1051.8 L1018.78,1052.41 L1019.22,1053.25 L1019.75,1054.32 L1020.47,1055.54 L1021.71,1057.13 L1022.6,1058.2 L1023.98,1059.66 L1025.94,1061.34 L1027.81,1062.22 L1028.96,1062.83 L1030.56,1063.49 L1031.98,1064.05 L1033.05,1064.47 L1034.65,1065.45 L1036.52,1066.71 L1037.99,1067.74 L1039.14,1067.98 L1040.25,1067.74 L1041.28,1067.32 L1042.06,1066.9 L1042.79,1066.52 L1043.76,1066.29 L1044.94,1066.29 L1045.28,1066.29 L1046.79,1066.67 L1047.81,1067.5 L1048.79,1068.62 L1049.19,1069.33 L1049.21,1069.52 L1049.27,1069.99 L1049.32,1070.5 L1048.74,1071.62 L1048.26,1072.79 L1048.44,1073.67 L1049.06,1073.96 L1050.21,1074.23 L1051.9,1074.47 L1053.37,1074.75 L1054.43,1074.99 L1055.55,1075.26 L1056.57,1075.82 L1057.55,1076.43 L1058.4,1076.57 L1059.24,1076.53 L1060.12,1076.34 L1061.64,1076.11 L1062.75,1076.01 L1064.8,1076.06 L1066.71,1076.11 L1068.23,1076.11 L1069.91,1075.87 L1070.8,1075.36 L1071.64,1074.75 L1072.71,1074.23 L1074.09,1073.77 L1076.14,1073.49 L1077.34,1073.11 L1078.45,1072.46 L1078.98,1071.82 L1079.07,1071.71 L1079.87,1070.59 L1080.9,1069.57 L1082.01,1068.44 L1083.17,1067.74 L1084.18,1067.42 L1084.68,1067.56 L1084.94,1067.64 L1085.03,1067.72 L1085.57,1068.16 L1085.95,1068.76 L1086.05,1068.91 L1086.5,1070.13 L1086.72,1071.52 L1086.86,1072.37 L1087.07,1073.21 L1086.99,1074.14 L1086.72,1075.03 L1086.45,1075.97 L1086.45,1076.81 L1086.86,1077.7 L1087.57,1078.21 L1088.5,1078.5 L1089.65,1078.54 L1090.58,1078.4 L1091.23,1078.04 L1091.26,1078.02 L1091.92,1077.33 L1092.32,1076.2 L1092.41,1075.26 L1092.41,1074.23 L1092.68,1073.35 L1093.21,1072.46 L1093.74,1071.62 L1094.06,1070.69 L1093.92,1069.47 L1093.7,1068.49 L1093.56,1067.45 L1093.74,1066.62 L1094.37,1065.91 L1095.08,1065.5 L1095.84,1065.4 L1096.59,1065.56 L1096.72,1065.59 L1097.43,1066.15 L1097.97,1066.89 L1098.86,1067.88 L1099.7,1068.54 L1100.72,1069.05 L1101.83,1069.28 L1102.64,1069.14 L1103.84,1068.49 L1104.91,1067.79 L1105.88,1067.13 L1106.64,1066.67 L1107.53,1066.43 L1108.78,1066.43 L1109.97,1066.67 L1110.86,1066.99 L1111.89,1068.02 L1112.33,1069.14 L1112.77,1070.64 L1113.05,1072.18 L1113.4,1073.45 L1114.16,1074.65 L1115.35,1075.69 L1116.33,1076.06 L1117.31,1076.01 L1118.03,1075.74 L1118.82,1075.18 L1119.67,1074.23 L1119.99,1073.33 L1120.07,1073.11 L1120.25,1071.9 L1120.2,1070.21 L1120.11,1068.81 L1120.33,1067.69 L1120.78,1067.33 L1120.96,1067.18 L1121.93,1067.18 L1122.91,1067.42 L1124.6,1067.79 L1126.16,1068.11 L1127.44,1068.62 L1129.05,1069.38 L1130.25,1069.94 L1131.54,1070.31 L1132.92,1070.69 L1134.74,1071.01 L1135.98,1071.01 L1137.27,1070.69 L1138.92,1069.98 L1140.52,1069.28 L1142.25,1068.72 L1143.54,1068.35 L1144.93,1068.25 L1146.04,1068.44 L1147.1,1068.77 L1147.94,1069.52 L1148.97,1070.5 L1150.26,1071.67 L1151.68,1072.69 L1152.35,1073.16 L1152.62,1073.35 L1153.42,1073.55 L1153.73,1073.63 L1154.75,1074.19 L1156.18,1075.13 L1157.46,1075.82 L1158.4,1076.53 L1159.59,1077.18 L1160.88,1077.37 L1162,1077.42 L1162.75,1077.65 L1163.82,1078.16 L1165.07,1078.45 L1166.18,1078.5 L1167.15,1078.77 L1168.18,1079.28 L1169.33,1079.94 L1170.8,1080.26 L1172.36,1080.64 L1173.82,1081.11 L1175.07,1081.53 L1176.36,1081.99 L1177.87,1082.75 L1178.81,1083.73 L1179.56,1084.62 L1180.09,1085.6 L1180.58,1086.86 L1180.9,1088.36 L1181.21,1089.57 L1181.61,1090.92 L1182.01,1091.87 L1182.54,1092.75 L1183.25,1093.31 L1184.41,1093.55 L1185.43,1093.6 L1186.49,1093.82 L1187.12,1094.16 L1188.1,1094.67 L1189.52,1095.56 L1190.28,1096.26 L1191.3,1097.48 L1191.92,1098.36 L1192.37,1099.06 L1193.26,1099.81 L1194.23,1100.46 L1195.26,1100.89 L1196.63,1101.17 L1197.92,1101.17 L1199.66,1101.02 L1200.95,1100.65 L1202.77,1100.09 L1204.82,1099.48 L1206.46,1098.97 L1207.55,1098.66 L1207.73,1098.61 L1208.28,1098.46 L1208.58,1098.45 L1209.38,1098.42 L1209.62,1098.41 L1211.09,1098.5 L1212.29,1098.83 L1213.09,1099.63 L1213.94,1101.02 L1214.38,1102.05 L1215.09,1103.22 L1215.71,1103.73 L1216.65,1103.55 L1217.45,1103.09 L1218.82,1102.24 L1220.92,1101.07 L1222.74,1099.9 L1224.29,1098.92 L1225.49,1098.65 L1226.45,1098.57 L1226.78,1098.55 L1229.14,1098.22 L1230.88,1097.8 L1232.6,1097.14 L1234.16,1096.31 L1234.46,1096.02 L1234.94,1095.54 L1235.54,1094.95 L1236.65,1093.78 L1237.45,1093.07 L1238.87,1092.38 L1239.99,1092 L1240.84,1092.09 L1241.02,1092.16 L1242.03,1092.56 L1242.79,1093.07 L1243.59,1094.06 L1244.26,1095.28 L1244.53,1096.87 L1244.39,1098.36 L1243.99,1099.58 L1243.41,1100.65 L1242.74,1102.29 L1242.26,1104.02 L1241.99,1106.26 L1241.99,1108.56 L1242.17,1109.77 L1242.61,1110.51 L1243.24,1110.8 L1243.99,1111.07 L1244.75,1111.27 L1245.1,1111.34 L1245.46,1111.41 L1246.08,1111.07 L1246.88,1110.44 L1246.97,1110.38 L1248.22,1109.53 L1249.37,1108.75 L1249.57,1108.62 L1250.62,1107.99 L1252.17,1107.01 L1253.15,1106.54 L1253.88,1106.31 L1254.49,1106.12 L1255.86,1106.07 L1257.02,1106.26 L1258.36,1107.01 L1259.29,1107.85 L1260.44,1108.7 L1261.91,1109.87 L1262.93,1110.61 L1263.87,1111.31 L1264.89,1111.55 L1265.96,1111.64 L1267.2,1111.97 L1268.22,1112.11 L1269.43,1112.48 L1270.89,1113 L1272.41,1113.46 L1273.78,1114.21 L1274.72,1114.82 L1275.56,1115.15 L1276.41,1115.29 L1277.25,1115.05 L1277.96,1115 L1278.99,1115 L1279.79,1115 L1280.63,1115.29 L1281.16,1115.85 L1282.05,1116.92 L1282.98,1117.63 L1283.97,1118.19 L1284.59,1118.93 L1285.3,1119.78 L1286.32,1120.66 L1287.66,1121.14 L1289.21,1121.6 L1290.32,1122.26 L1290.9,1122.95 L1290.96,1123.03 L1291.57,1123.75 L1292.01,1125.2 L1292.1,1126.51 L1292.51,1127.39 L1292.56,1127.43 L1293.48,1128 L1295.08,1128.19 L1297.49,1128.29 L1298.37,1128.27 L1300.1,1128.24 L1303.04,1128.14 L1305.31,1128.14 L1306.3,1128.14 L1307.45,1128.14 L1308.82,1128.24 L1310.82,1128.29 L1312.51,1128.71 L1314.07,1129.22 L1315.89,1129.46 L1317.84,1129.22 L1319.63,1128.9 L1321.31,1128.66 L1323.14,1128.61 L1324.92,1128.61 L1326.92,1128.43 L1328.69,1128.1 L1329.48,1127.79 L1329.77,1127.68 L1330.56,1126.93 L1331.36,1126.19 L1332.92,1125.43 L1334.65,1124.87 L1336.57,1124.12 L1337.94,1123.29 L1339.19,1122.49 L1340.7,1122.02 L1342.17,1121.97 L1344.08,1121.97 L1344.48,1121.96 L1345.9,1121.93 L1347.95,1121.65 L1350.84,1120.9 L1352.98,1120.15 L1354.15,1119.58 L1354.49,1119.41 L1354.79,1119.01 L1355.51,1118.09 L1355.99,1116.69 L1355.82,1115.19 L1355.11,1113.83 L1354.04,1113 L1352.4,1112.43 L1350.93,1112.11 L1350.47,1111.81 L1349.64,1111.27 L1348.88,1110.29 L1348.4,1109.21 L1348.61,1107.58 L1349.51,1106.63 L1349.79,1106.48 L1350.75,1105.94 L1352.22,1104.95 L1353.07,1104.32 L1353.59,1103.92 L1354.4,1102.8 L1354.62,1101.63 L1354.4,1100 L1354.37,1099.97 L1353.59,1098.83 L1352.27,1097.94 L1351.37,1097.43 L1350.71,1096.72 L1350.44,1095.75 L1350.57,1094.9 L1351.15,1094.2 L1352.13,1094.01 L1353.02,1094.16 L1353.64,1094.72 L1354.08,1095.29 L1354.17,1095.41 L1355.15,1095.65 L1356.09,1095.28 L1356.29,1095.05 L1356.75,1094.53 L1357.07,1093.55 L1357.15,1092.43 L1357.33,1091.48 L1358,1090.92 L1358.75,1090.7 L1359.42,1090.79 L1359.91,1091.02 L1360.44,1091.39 L1361.47,1091.77 L1362.62,1092 L1363.91,1091.91 L1364.84,1091.68 L1365.92,1090.92 L1366.94,1089.9 L1367.65,1089.11 L1368.14,1088.45 L1368.76,1088.07 L1369.43,1088.21 L1369.92,1088.68 L1370.32,1089.53 L1370.76,1090.18 L1371.4,1090.85 L1371.47,1090.92 L1372.36,1091.21 L1373.48,1091.26 L1374.17,1091.01 L1374.67,1090.83 L1375.88,1089.9 L1376.49,1088.73 L1376.99,1087.7 L1377.56,1086.58 L1377.57,1086.56 L1378.1,1085.69 L1379.12,1084.75 L1379.75,1084.43 L1380.81,1084.11 L1382.01,1084.19 L1383.26,1084.48 L1384.28,1085.13 L1385.16,1086.06 L1385.2,1086.08 L1386.05,1086.63 L1387.03,1086.82 L1388.45,1086.63 L1389.61,1086.25 L1390.28,1085.6 L1390.54,1085.3 L1390.99,1084.75 L1391.7,1084.24 L1392.68,1083.92 L1393.88,1083.35 L1394,1083.26 L1394.86,1082.6 L1396.07,1081.8 L1396.19,1081.72 L1397.48,1081.06 L1398.92,1080.38 L1399.35,1080.18 L1399.72,1080.08 L1400.99,1079.75 L1402.91,1079.19 L1405.04,1078.45 L1406.73,1077.93 L1408.07,1077.14 L1409,1076.16 L1409.7,1074.96 L1409.71,1074.94 L1410.51,1073.86 L1411.54,1072.87 L1411.67,1072.74 L1413.14,1071.3 L1414.07,1070.4 L1415.18,1069.1 L1416.38,1068.02 L1418.25,1066.57 L1420.02,1065.77 L1421.27,1065.5 L1422.43,1064.79 L1423.31,1063.74 L1423.41,1063.62 L1424.47,1062.93 L1425.2,1062.74 L1426.12,1062.5 L1427.45,1062.18 L1427.86,1061.98 L1428.7,1061.57 L1429.94,1060.78 L1431.23,1060.45 L1431.49,1060.36 L1432.69,1059.93 L1434.17,1059.1 L1436.08,1058.06 L1438.61,1057.08 L1440.75,1056.66 L1443.02,1056.66 L1445.28,1056.66 L1447.73,1056.42 L1447.78,1056.4 L1449.6,1055.73 L1450.97,1054.76 L1451.06,1054.7 L1452.62,1053.62 L1454.13,1052.22 L1454.93,1051.49 L1455.56,1050.91 L1457.06,1050.07 L1458.14,1049.79 L1459.78,1049.65 L1461.15,1049.65 L1462.85,1050.07 L1464.44,1050.91 L1466.23,1052.46 L1467.38,1053.71 L1469.25,1054.74 L1471.52,1055.63 L1473.25,1056.42 L1474.67,1056.57 L1476.27,1056.38 L1477.46,1055.73 L1478.06,1055.4 L1479.35,1054.88 L1481.03,1054.74 L1482.28,1053.86 L1482.99,1052.59 L1483.52,1051.29 L1484.94,1049.88 L1486.34,1048.71 L1487.39,1047.83 L1489.31,1046.42 L1490.99,1045.87 L1493,1045.87 L1495.31,1046.05 L1497.28,1046.14 L1498.79,1046.24 L1500.39,1046.61 L1502.13,1047.36 L1503.85,1048.02 L1505.06,1048.15 L1506.14,1047.96 L1506.4,1047.92 L1506.9,1047.64 L1507.33,1047.41 L1508.57,1046.8 L1509.99,1046.29 L1511.64,1045.95 L1513.55,1045.49 L1514.89,1045.26 L1516.26,1045.53 L1517.86,1045.58 L1518.63,1045.56 L1519.95,1045.53 L1520.56,1045.45 L1522.08,1045.26 L1524.18,1044.83 L1526.53,1044.7 L1528.85,1044.36 L1530.27,1043.95 L1531.47,1043.48 L1532.8,1042.82 L1533.7,1042.12 L1534.23,1041.39 L1534.41,1041.14 L1534.94,1040.02 L1535.38,1038.94 L1536.18,1037.87 L1537.12,1037.21 L1538.28,1036.6 L1539.65,1036.23 L1541.08,1036.14 L1542.37,1036.33 L1542.57,1036.38 L1543.39,1036.6 L1544.32,1037.26 L1545.61,1038.11 L1547.03,1038.67 L1548.9,1039.23 L1550.67,1039.55 L1551.75,1039.83 L1553.08,1040.26 L1554.36,1040.67 L1555.48,1040.91 L1556.59,1040.87 L1557.97,1040.91 L1559.62,1041.24 L1561.1,1041.63 L1561.35,1041.7 L1563.18,1041.89 L1564.39,1041.89 L1564.6,1041.89 L1565.8,1041.75 L1566.73,1041.56 L1567.8,1041.28 L1569.13,1041 L1570.42,1041 L1571.85,1040.95 L1573.04,1040.72 L1574.51,1040.35 L1575.4,1039.97 L1576.38,1039.46 L1577.41,1039.13 L1578.34,1038.75 L1578.45,1038.73 L1578.83,1038.64 L1579.49,1038.48 L1580.16,1038.24 L1580.73,1037.87 L1581.27,1037.17 L1581.63,1036.38 L1582.12,1035.25 L1582.42,1034.08 L1582.83,1032.77 L1582.95,1032.39 L1583.32,1031.23 L1583.81,1030.25 L1584.52,1029.37 L1585.4,1028.38 L1586.21,1027.87 L1586.51,1027.77 L1587.45,1027.45 L1588.69,1027.08 L1590.34,1026.7 L1591.41,1026.74 L1592.43,1026.98 L1593.23,1027.4 L1594.75,1028.25 L1595.63,1028.66 L1596.92,1028.94 L1598.17,1028.99 L1599.33,1028.89 L1600.52,1028.66 L1602.08,1028.38 L1603.42,1028.2 L1605.15,1027.91 L1606.79,1027.82 L1608.03,1027.87 L1608.08,1027.87 L1608.22,1027.87 L1609.82,1027.87 L1611.59,1027.91 L1613.2,1028.01 L1614.75,1028.01 L1615.96,1028.01 L1617.33,1027.87 L1618.97,1027.49 L1620.58,1026.89 L1621.97,1026.29 L1622,1026.28 L1623.2,1025.54 L1624.31,1024.5 L1624.44,1024.39 L1625.2,1023.71 L1626.05,1023.1 L1626.15,1023.07 L1626.38,1022.99 L1626.89,1022.82 L1628.14,1022.73 L1629.16,1023.05 L1630.05,1023.76 L1631.25,1024.55 L1632.22,1025.25 L1633.16,1025.57 L1634.27,1025.62 L1635.48,1025.76 L1636.19,1026.1 L1637.17,1026.7 L1637.78,1027.13 L1638.32,1027.49 L1639.25,1028.01 L1640.54,1028.62 L1641.65,1029.04 L1642.68,1029.13 L1643.83,1028.94 L1644.45,1028.47 L1645.39,1028.1 L1646.5,1027.69 L1647.45,1027.55 L1647.52,1027.54 L1648.86,1027.35 L1649.84,1027.21 L1650.68,1027.35 L1651.43,1027.69 L1652.24,1027.87 L1653.43,1027.96 L1654.41,1027.82 L1655.4,1027.77 L1656.64,1027.87 L1657.83,1027.91 L1657.99,1027.88 L1658.86,1027.69 L1660.06,1027.21 L1661.09,1026.89 L1662.24,1026.28 L1662.28,1026.26 L1663.18,1025.72 L1664.33,1025.25 L1665.36,1024.93 L1665.69,1024.81 L1666.78,1024.46 L1668.29,1023.71 L1669.49,1023.1 L1669.65,1023.01 L1671.31,1022.17 L1671.51,1022.07 L1672.34,1021.66 L1673.62,1021.23 L1674.63,1021.15 L1674.82,1021.14 L1676.2,1021.28 L1677.4,1021.56 L1678.83,1021.93 L1680.16,1022.26 L1681.36,1022.59 L1682.65,1023.1 L1683.58,1023.61 L1684.92,1024.32 L1686.21,1025.39 L1687.1,1026.33 L1688.43,1027.87 L1689.41,1029.08 L1690.21,1030.16 L1691.27,1031.65 L1692.21,1033.01 L1692.83,1033.99 L1693.5,1035.48 L1694.17,1037.03 L1694.88,1038.43 L1695.64,1039.51 L1697.01,1040.58 L1698.22,1041.3 L1699.12,1041.84 L1699.51,1042.07 L1701.94,1043.76 L1702.79,1044.7 L1703.33,1045.95 L1704.04,1047.27 L1704.88,1048.2 L1705.68,1048.63 L1707.15,1049.37 L1708.75,1049.74 L1710.4,1050.35 L1712.31,1051.38 L1713.9,1052.27 L1715.69,1053.34 L1717.24,1053.86 L1719.38,1054.46 L1721.69,1055.02 L1724.09,1055.68 L1725.91,1056.15 L1726.85,1056.52 L1727.92,1057.54 L1728.84,1058.49 L1729.26,1058.83 L1729.52,1059.05 L1730.18,1058.9 L1731.03,1058.25 L1732.45,1057.46 L1733.12,1057.27 L1733.47,1057.17 L1734.76,1057.17 L1736.01,1057.36 L1737.52,1057.88 L1738.45,1058.34 L1739.38,1059 L1740.72,1059.56 L1742.77,1060.22 L1744.94,1061.05 L1746.77,1061.99 L1748.19,1062.78 L1749.57,1063.76 L1750.81,1064.56 L1751.79,1065.08 L1753.57,1065.91 L1755.03,1066.29 L1756.42,1066.47 L1757.58,1066.57 L1758.59,1066.89 L1759.58,1067.55 L1760.59,1067.79 L1761.8,1067.79 L1762.91,1067.64 L1764.25,1067.55 L1765.75,1067.83 L1766.91,1068.35 L1767.54,1069 L1768.38,1070.13 L1769.26,1071.52 L1770.38,1073.35 L1771.58,1074.8 L1772.92,1076.11 L1773.87,1077.05 L1774.42,1077.6 L1775.23,1078.16 L1776.01,1078.64 L1776.38,1078.87 L1778.08,1079.28 L1778.89,1079.47 L1779.72,1079.66 L1781.05,1079.7 L1782.83,1079.84 L1784.56,1080.08 L1786.34,1080.36 L1788.25,1080.41 L1789.63,1080.5 L1790.99,1080.45 L1791.1,1080.45 L1792.26,1080.42 L1792.39,1080.41 L1793.86,1080.31 L1794.87,1079.99 L1796.39,1079.66 L1797.2,1079.66 L1797.68,1079.66 L1798.79,1079.57 L1799.34,1079.37 L1799.85,1079.19 L1801.19,1078.77 L1802.58,1078.26 L1802.7,1078.21 L1804.04,1077.55 L1804.96,1077.01 L1805.55,1076.67 L1806.53,1076.34 L1807.6,1076.43 L1808.8,1076.43 L1809.86,1076.16 L1811.08,1076 L1811.65,1075.92 L1813.14,1075.96 L1813.15,1075.96 L1814.44,1075.87 L1815.87,1075.77 L1816.88,1075.85 L1817.11,1075.87 L1817.78,1076.34 L1818.45,1077.23 L1819.03,1078.16 L1819.87,1079.28 L1820.4,1080.04 L1821.34,1080.82 L1822.35,1081.43 L1823.47,1082.04 L1825.2,1083.07 L1826.14,1083.87 L1826.94,1085.36 L1827.2,1087.19 L1827.25,1088.92 L1826.98,1090.46 L1826.45,1092.05 L1825.91,1093.78 L1825.43,1095.6 L1825.51,1097.24 L1825.91,1098.73 L1826.49,1099.85 L1827.47,1100.56 L1829.12,1101.07 L1831.02,1101.73 L1832.89,1102.29 L1834.32,1102.29 L1835.29,1102.01 L1836.99,1101.49 L1839.14,1100.83 L1839.56,1100.7 L1840.09,1100.56 L1841.21,1100.28 L1843.03,1100.04 L1845.17,1099.81 L1846.59,1099.81 L1848.37,1100.04 L1850.37,1100.7 L1852.2,1101.45 L1853.79,1102.34 L1855.75,1103.27 L1856.85,1103.78 L1857.89,1104.26 L1860.42,1104.9 L1863,1105.38 L1865.26,1105.79 L1865.53,1105.84 L1865.97,1106.12 L1867.31,1106.97 L1869.27,1108.46 L1870.65,1109.9 L1871.66,1111.4 L1872.09,1112.04 L1873.1,1113.55 L1873.62,1114.83 L1873.95,1116.05 L1873.88,1117.28 L1881.06,1115.8 L1887.37,1114.5 L1907.6,1110.52 L1928.77,1106.29 L1946.21,1102.85 L2053.49,1081.47 L2114.03,1069.43 L2225.07,1047.33 L2285.61,1035.29 L2455.47,1001.24 L2465.23,999.267 L2480.67,996.155 L2490.89,994.093 L2497.01,992.856 L2508.23,990.607 L2514.22,989.38 L2525.67,987.082 L2532.77,985.659 L2546.87,982.801 L2553.49,981.466 L2560.46,980.062 L2569.97,978.148 L2580.9,975.939 L2592.02,973.681 L2602.13,971.639 L2612.59,969.547 L2622.73,967.476 L2632.37,965.522 L2641.3,963.706 L2664.97,958.935 L2679.77,955.931 L2691.53,953.526 L2707.08,950.365 L2720.52,947.636 L2731.14,945.467 L2743.27,942.993 L2755.91,940.471 L2769.28,937.742 L2784.5,934.65 L2796.7,932.176 L2810.38,929.389 L2832.67,924.845 L2846.98,921.93 L2865.19,918.249 L2875.32,916.188 L2875.81,916.089 L2886.65,913.872 L2892.97,912.582 L2900.52,1202.44 L2883.12,1205.98 L2879.77,1206.67 L2860.9,1210.52 L2824.37,1217.93 L2777.7,1227.4 L2724.73,1238.14 L2724.24,1238.24 L2678.38,1247.54 L2628.16,1257.73 L2567.06,1270.05 L2512.08,1281.15 L2457.14,1292.23 L2416.03,1300.47 L2368.35,1310.04 L2367.72,1310.16 L2366.23,1310.46 L2316.99,1320.34 L2269.17,1329.92 L2218.23,1340.13 L2189.71,1345.82 L2145.02,1354.72 L2060.71,1371.51 L1988.84,1385.78 L1949.32,1393.6 L1901.49,1403.08 L1866.36,1403.08 L1788.5,1403.08 L1710.64,1403.07 L1632.79,1403.07 L1554.93,1403.07 L1477.09,1403.07 L1477.09,1530.59 L1477.09,1587.6 L1477.09,1646.68 L1477.09,1823.81 L1477.08,1947.57 L1477.08,2072.02 L1477.08,2236.53 L1477.08,2240.18 L1477.08,2250.63 L56.9992,2242.26 L58.6015,2234.69" fill-rule="evenodd"/>
  </g>
  <g font-size="34.5833" font-style="normal" fill="none" stroke="#000000" transform="matrix(0.999744,0,0,0.999744,0,0)" font-family="MS Shell Dlg 2" stroke-opacity="1" stroke-width="1" stroke-linecap="square" font-weight="400" stroke-linejoin="bevel"/>
  <g font-size="34.5833" font-style="normal" fill="none" stroke="#000000" transform="matrix(11.808,0,0,11.808,0,0)" font-family="MS Shell Dlg 2" stroke-opacity="1" stroke-width="1" stroke-linecap="square" font-weight="400" stroke-linejoin="bevel"/>
  <g font-size="34.5833" font-style="normal" fill="none" stroke="#000000" transform="matrix(11.808,0,0,11.808,0,0)" font-family="MS Shell Dlg 2" stroke-opacity="1" stroke-width="1" stroke-linecap="square" font-weight="400" stroke-linejoin="bevel"/>
  <g font-size="34.5833" font-style="normal" fill="none" stroke="#000000" transform="matrix(11.808,0,0,11.808,0,0)" font-family="MS Shell Dlg 2" stroke-opacity="1" stroke-width="1" stroke-linecap="square" font-weight="400" stroke-linejoin="bevel"/>
  <g font-size="34.5833" font-style="normal" fill="none" stroke="#000000" transform="matrix(1,0,0,1,0,0)" font-family="MS Shell Dlg 2" stroke-opacity="1" stroke-width="1" stroke-linecap="square" font-weight="400" stroke-linejoin="bevel"/>
  <g font-size="34.5833" font-style="normal" fill="none" stroke="#000000" transform="matrix(11.808,0,0,11.808,0,0)" font-family="MS Shell Dlg 2" stroke-opacity="1" stroke-width="1" stroke-linecap="square" font-weight="400" stroke-linejoin="bevel"/>
  <g font-size="34.5833" font-style="normal" fill="none" stroke="#000000" transform="matrix(11.808,0,0,11.808,0,0)" font-family="MS Shell Dlg 2" stroke-opacity="1" stroke-width="1" stroke-linecap="square" font-weight="400" stroke-linejoin="bevel"/>
  <g font-size="34.5833" font-style="normal" fill="none" stroke="#000000" transform="matrix(11.808,0,0,11.808,0,0)" font-family="MS Shell Dlg 2" stroke-opacity="1" stroke-width="1" stroke-linecap="square" font-weight="400" stroke-linejoin="bevel"/>
  <g font-size="34.5833" font-style="normal" fill="none" stroke="#000000" transform="matrix(11.808,0,0,11.808,0,0)" font-family="MS Shell Dlg 2" stroke-opacity="1" stroke-width="1" stroke-linecap="square" font-weight="400" stroke-linejoin="bevel"/>
  <g font-size="34.5833" font-style="normal" fill="none" stroke="#000000" transform="matrix(1,0,0,1,0,0)" font-family="MS Shell Dlg 2" stroke-opacity="1" stroke-width="1" stroke-linecap="square" font-weight="400" stroke-linejoin="bevel"/>
 </g>
</svg>
