<?xml version='1.0' encoding='UTF-8' standalone='no'?>
<svg width="249.936mm" version="1.2" viewBox="0 0 2952 2952" baseProfile="tiny" xmlns="http://www.w3.org/2000/svg" height="249.936mm" xmlns:xlink="http://www.w3.org/1999/xlink">
 <title>Qt SVG Document</title>
 <desc>Generated with Qt</desc>
 <defs/>
 <g fill="none" stroke="black" fill-rule="evenodd" stroke-width="1" stroke-linecap="square" stroke-linejoin="bevel">
  <g font-size="34.5833" font-style="normal" fill="none" stroke="#000000" transform="matrix(1,0,0,1,0,0)" font-family="MS Shell Dlg 2" stroke-opacity="1" stroke-width="1" stroke-linecap="square" font-weight="400" stroke-linejoin="bevel"/>
  <g font-size="34.5833" font-style="normal" fill="none" stroke="#000000" transform="matrix(1,0,0,1,0,0)" font-family="MS Shell Dlg 2" stroke-opacity="1" stroke-width="1" stroke-linecap="square" font-weight="400" stroke-linejoin="bevel"/>
  <g font-size="34.5833" font-style="normal" fill="none" stroke="#000000" transform="matrix(11.808,0,0,11.808,0,0)" font-family="MS Shell Dlg 2" stroke-opacity="1" stroke-width="1" stroke-linecap="square" font-weight="400" stroke-linejoin="bevel"/>
  <g font-size="34.5833" font-style="normal" fill="none" stroke="#000000" transform="matrix(0.999744,0,0,0.999744,0,0)" font-family="MS Shell Dlg 2" stroke-opacity="1" stroke-width="1" stroke-linecap="square" font-weight="400" stroke-linejoin="bevel"/>
  <g font-size="34.5833" font-style="normal" fill="#ffffff" stroke="none" transform="matrix(0.999744,0,0,0.999744,0,0)" font-family="MS Shell Dlg 2" fill-opacity="0" font-weight="400">
   <path vector-effect="none" d="M-2,-2 L2955,-2 L2955,2955 L-2,2955 L-2,-2" fill-rule="evenodd"/>
  </g>
  <g font-size="34.5833" font-style="normal" fill="none" stroke="#000000" transform="matrix(0.999744,0,0,0.999744,0,0)" font-family="MS Shell Dlg 2" stroke-opacity="1" stroke-width="1" stroke-linecap="square" font-weight="400" stroke-linejoin="bevel"/>
  <g font-size="34.5833" font-style="normal" fill="none" stroke="#000000" transform="matrix(11.808,0,0,11.808,0,0)" font-family="MS Shell Dlg 2" stroke-opacity="1" stroke-width="1" stroke-linecap="square" font-weight="400" stroke-linejoin="bevel"/>
  <g font-size="34.5833" font-style="normal" fill="none" stroke="#000000" transform="matrix(11.808,0,0,11.808,0,0)" font-family="MS Shell Dlg 2" stroke-opacity="1" stroke-width="1" stroke-linecap="square" font-weight="400" stroke-linejoin="bevel"/>
  <g font-size="34.5833" font-style="normal" fill="none" stroke="#000000" transform="matrix(11.808,0,0,11.808,0,0)" font-family="MS Shell Dlg 2" stroke-opacity="1" stroke-width="1" stroke-linecap="square" font-weight="400" stroke-linejoin="bevel"/>
  <g font-size="34.5833" font-style="normal" fill="none" stroke="#000000" transform="matrix(11.808,0,0,11.808,0,0)" font-family="MS Shell Dlg 2" stroke-opacity="1" stroke-width="1" stroke-linecap="square" font-weight="400" stroke-linejoin="bevel"/>
  <g font-size="34.5833" font-style="normal" fill="none" stroke="#000000" transform="matrix(11.808,0,0,11.808,0,0)" font-family="MS Shell Dlg 2" stroke-opacity="1" stroke-width="1" stroke-linecap="square" font-weight="400" stroke-linejoin="bevel"/>
  <g font-size="34.5833" font-style="normal" fill="#ffffff" stroke="none" transform="matrix(11.808,0,0,11.808,0,0)" font-family="MS Shell Dlg 2" fill-opacity="0" font-weight="400">
   <path vector-effect="none" d="M0,0 L250,0 L250,250 L0,250 L0,0" fill-rule="evenodd"/>
  </g>
  <g font-size="34.5833" font-style="normal" fill="none" stroke="#000000" transform="matrix(11.808,0,0,11.808,0,0)" font-family="MS Shell Dlg 2" stroke-opacity="1" stroke-width="1" stroke-linecap="square" font-weight="400" stroke-linejoin="bevel"/>
  <g font-size="34.5833" font-style="normal" fill="none" stroke="#000000" transform="matrix(11.808,0,0,11.808,0,0)" font-family="MS Shell Dlg 2" stroke-opacity="1" stroke-width="1" stroke-linecap="square" font-weight="400" stroke-linejoin="bevel"/>
  <g font-size="34.5833" font-style="normal" fill="#000000" stroke="none" transform="matrix(0.999744,0,0,0.999744,0,0)" font-family="MS Shell Dlg 2" fill-opacity="0" font-weight="400">
   <rect width="2953" x="0" y="0" height="2953"/>
  </g>
  <g font-size="34.5833" font-style="normal" fill="none" stroke="#000000" transform="matrix(0.999744,0,0,0.999744,0,0)" font-family="MS Shell Dlg 2" stroke-opacity="1" stroke-width="1" stroke-linecap="square" font-weight="400" stroke-linejoin="bevel"/>
  <g font-size="34.5833" font-style="normal" fill="#c5c5c5" stroke="#5c5c5c" transform="matrix(0.999744,0,0,0.999744,0,0)" font-family="MS Shell Dlg 2" fill-opacity="1" stroke-opacity="1" stroke-width="3.07087" stroke-linecap="square" font-weight="400" stroke-linejoin="bevel">
   <path vector-effect="none" d="M2872.8,730.696 L2872.8,883.519 L2872.8,905.115 L2872.8,1099.91 L2872.8,1178.93 L2872.8,1275.06 L2872.8,1396.67 L2872.71,1396.68 L2872.42,1396.63 L2872.37,1396.62 L2872.37,1396.62 L2869.4,1395.97 L2865.49,1395.11 L2863.8,1395.37 L2860.57,1394.92 L2855.99,1393.56 L2849.95,1393.41 L2848.13,1392.62 L2847.69,1392.44 L2846.68,1392 L2846.76,1388.77 L2846.15,1387.66 L2841.87,1384.2 L2837.97,1386.05 L2834.38,1386 L2828.85,1384.49 L2827.33,1383.97 L2825.95,1382.5 L2825.14,1380.82 L2824.49,1378.57 L2822.71,1376.35 L2818.53,1375.55 L2815.68,1380.4 L2813.82,1381.23 L2811.72,1380.55 L2811.12,1379.62 L2808.23,1378.01 L2806.35,1378.08 L2805.24,1378.88 L2803.23,1380.85 L2800.79,1381.13 L2796.72,1378.24 L2794.48,1378.89 L2792.2,1378.59 L2790.69,1378.64 L2789.63,1380.58 L2789.51,1382.49 L2788.63,1384.42 L2787.16,1385.42 L2786.07,1386.6 L2782.18,1388.83 L2775.03,1389.65 L2774.11,1390.25 L2772.34,1393.55 L2769.9,1394.2 L2764.62,1394.39 L2760.63,1396.71 L2758.88,1397.09 L2758.58,1396.9 L2757.68,1396.33 L2756.28,1394.98 L2754.66,1394.66 L2754.01,1394.9 L2751.65,1396.76 L2749.4,1396.94 L2742.38,1395.75 L2735.44,1396.94 L2722.3,1393.98 L2716.46,1394.57 L2711.54,1394.17 L2701.83,1392.04 L2700.28,1390.95 L2698.72,1389.3 L2696.87,1385.18 L2692.1,1383.64 L2690.92,1382.35 L2687.86,1381.12 L2686.73,1381.16 L2683.94,1382.4 L2679.95,1381.97 L2677.33,1382.44 L2675.34,1379.65 L2672.18,1381.09 L2669.34,1381 L2663.7,1381.76 L2657.81,1380.64 L2648.66,1378.1 L2644.47,1377.1 L2642.54,1376.03 L2638.38,1375.79 L2634.56,1374.59 L2630.98,1374.71 L2628,1375.95 L2624.95,1375.29 L2619.51,1376.24 L2618.36,1375.9 L2617.39,1375.17 L2615.67,1374.47 L2613.21,1374.36 L2611.9,1374.78 L2606.45,1375.54 L2600.02,1375.37 L2597.74,1374.88 L2595.34,1376.67 L2595.77,1378.36 L2595.07,1379.91 L2589.17,1378.58 L2585.77,1378.7 L2580.24,1377.17 L2576.66,1377.29 L2567.96,1377.01 L2563.02,1376.22 L2554.89,1376.11 L2552.99,1375.6 L2547.87,1375.2 L2541.21,1373.52 L2538.93,1373.22 L2534.34,1371.46 L2525.21,1369.48 L2516.04,1366.36 L2514.14,1366.23 L2513,1365.89 L2503.38,1360.5 L2500.89,1359.44 L2497.1,1358.99 L2491.24,1358.99 L2486.66,1357.43 L2480.83,1358.37 L2479.12,1357.86 L2470.03,1357.39 L2467.07,1359.38 L2465.37,1359.44 L2460.62,1358.45 L2458.93,1358.88 L2455.52,1358.61 L2448.67,1356.93 L2438.84,1356.67 L2437.3,1355.77 L2437.26,1354.44 L2432.86,1352.67 L2427.95,1353.02 L2424.65,1350.08 L2423.12,1349.56 L2421.04,1349.43 L2418.05,1350.48 L2415.84,1352.26 L2410.92,1352.03 L2409.89,1351.12 L2407.62,1349.09 L2405.14,1348.41 L2403.44,1348.46 L2402.47,1347.73 L2401.14,1347.39 L2398.14,1348.06 L2396.43,1347.92 L2389.38,1345.67 L2387.12,1345.93 L2385.65,1345.49 L2385.4,1345.41 L2381.42,1345.15 L2378.59,1345.24 L2375.17,1344.59 L2372.66,1342.76 L2371.33,1342.42 L2368.14,1343.28 L2361.88,1342.33 L2358.46,1341.68 L2358.38,1341.68 L2352.79,1341.66 L2343.3,1340.24 L2335.95,1341.03 L2332.36,1340.76 L2328.94,1340.1 L2325,1341.17 L2322.31,1339.54 L2321,1340.15 L2319.56,1342.47 L2313.63,1340.18 L2304.3,1337.61 L2301.82,1336.73 L2299.41,1338.33 L2298.09,1338.56 L2295.81,1338.05 L2292.02,1337.79 L2288.19,1336 L2285.5,1334.37 L2283.78,1333.85 L2282.27,1333.89 L2279.27,1334.55 L2276.25,1334.64 L2274.31,1333.18 L2271.28,1332.89 L2268.97,1331.43 L2264.1,1332.91 L2262.58,1332.57 L2258.94,1330.78 L2252.58,1332.87 L2248.4,1332.42 L2245.77,1332.87 L2242.75,1332.77 L2241.79,1332.23 L2235.32,1330.9 L2231.89,1329.86 L2228.86,1329.56 L2225.19,1326.82 L2222.32,1325.38 L2220.41,1324.87 L2214.98,1326.54 L2208.44,1329.2 L2204.11,1329.71 L2201.08,1329.41 L2197.51,1330.09 L2193.01,1331.55 L2189.42,1331.46 L2186.97,1331.72 L2181.71,1332.82 L2178.69,1333.09 L2172.83,1332.88 L2168.62,1331.29 L2161.22,1329.97 L2156.25,1328.21 L2151.5,1327.02 L2148.44,1325.77 L2137.77,1322.84 L2137.31,1322.71 L2136.51,1322.74 L2135.72,1322.82 L2135.4,1322.84 L2134.97,1322.67 L2134.42,1322.23 L2134.08,1321.39 L2133.94,1320.62 L2132.95,1318.69 L2132.36,1318.26 L2131.59,1317.88 L2130.91,1317.78 L2130.27,1318.1 L2129.55,1318.76 L2126.71,1321.05 L2125.72,1322.03 L2124.67,1323.24 L2124.23,1323.87 L2123.83,1324.39 L2123.42,1324.64 L2122.88,1324.78 L2122.42,1324.67 L2122.1,1324.53 L2121.8,1324.32 L2121.15,1323.55 L2117.51,1321.31 L2116.1,1319.93 L2111.7,1318.32 L2108.37,1317.32 L2103.69,1316.01 L2099.68,1315.55 L2096.75,1315.29 L2091.34,1315.17 L2088.32,1314.76 L2085.19,1314.37 L2084.55,1313.93 L2083.75,1313.65 L2082.17,1313.5 L2080.19,1313.32 L2078.22,1313.16 L2075.87,1313.27 L2074.01,1313.02 L2071.96,1312.81 L2069.62,1312.83 L2067.11,1313.07 L2065.31,1313.49 L2063.55,1313.34 L2053.07,1312.58 L2052.67,1312.6 L2052.34,1312.63 L2052.02,1312.76 L2050.22,1313.81 L2048.72,1314.8 L2045.57,1316.85 L2042.6,1318.78 L2033.43,1322.26 L2030.82,1323.66 L2029.08,1325.06 L2028.78,1325.58 L2028.61,1326.22 L2028.54,1328.26 L2027.99,1330.96 L2029.5,1338.14 L2029.24,1338.77 L2028.76,1339.29 L2025.8,1341.06 L2023.76,1341.59 L2022.6,1342.03 L2021.43,1342.44 L2020.53,1342.85 L2019.6,1342.97 L2016.98,1343.99 L2012.43,1347.28 L2010.87,1348.41 L2008.19,1349.53 L2007.38,1349.64 L2006.59,1349.61 L2005.5,1349.64 L2004.32,1350.08 L2002.23,1351.11 L2000.57,1352.31 L1999.44,1353.61 L1998.92,1354.55 L1998.68,1354.9 L1998.23,1355 L1997.47,1354.84 L1997.05,1354.41 L1994.83,1353.42 L1992.99,1352.23 L1991.94,1352.03 L1990.42,1352.24 L1989.17,1352.79 L1987.93,1353.7 L1982.2,1358.98 L1981.09,1359.96 L1978.1,1361.18 L1973.09,1363.58 L1970.28,1364.65 L1968.46,1365.3 L1966.64,1365.76 L1965.16,1365.7 L1964,1364.78 L1962.6,1364.62 L1961.39,1364.9 L1960.54,1365.43 L1959.69,1366.41 L1958.03,1367.79 L1956.86,1368.3 L1955.89,1368.27 L1955.25,1367.99 L1953.55,1367.33 L1952.96,1367.19 L1952.25,1367.28 L1948.21,1368.42 L1945.97,1369.81 L1940.37,1371.56 L1938.84,1371.86 L1938.36,1372.19 L1938.19,1372.44 L1938.11,1372.76 L1938.27,1373.19 L1938.39,1373.39 L1938.31,1373.62 L1937.07,1374.71 L1935.93,1375.94 L1934.54,1376.52 L1932.9,1376.62 L1931.94,1376.07 L1931.08,1375.95 L1930.24,1376.11 L1927.81,1376.85 L1925.67,1377.8 L1924.7,1378.7 L1923.47,1379.29 L1921.72,1379.81 L1920.12,1380.55 L1919.12,1381.13 L1918.53,1381.98 L1917.82,1382.73 L1916.54,1383.21 L1915.87,1383.43 L1915.5,1383.51 L1915.05,1383.45 L1913.93,1382.77 L1913.16,1382.42 L1912.28,1382.17 L1911.75,1382.25 L1911.34,1382.49 L1910.89,1383.31 L1910.52,1383.97 L1909.89,1384.43 L1909.03,1384.82 L1907.25,1385.73 L1905.34,1386.68 L1904.42,1387.24 L1904.21,1387.67 L1903.81,1387.99 L1903.51,1388.26 L1902.71,1388.42 L1901.91,1388.98 L1899.88,1390.54 L1898.65,1391.38 L1897.54,1392.55 L1895.86,1393.67 L1893.57,1394.7 L1892.66,1395.24 L1891.57,1395.81 L1890.87,1395.97 L1890.3,1395.97 L1889.52,1395.74 L1888.65,1395.15 L1887.52,1395.12 L1884.48,1396.08 L1876.36,1398.64 L1874.88,1398.78 L1873.53,1399.43 L1872.9,1400.28 L1872.41,1401.33 L1871.63,1402.36 L1870.78,1403.96 L1870.33,1404.46 L1869.37,1405.28 L1868.72,1405.84 L1868.42,1406.12 L1868.21,1406.42 L1867.94,1406.6 L1867.83,1406.83 L1867.84,1407.12 L1867.73,1407.42 L1867.32,1407.59 L1866.88,1407.57 L1866.43,1407.63 L1866.17,1407.73 L1865.35,1407.56 L1864.67,1407.6 L1864.16,1407.79 L1863.21,1408.13 L1862.38,1408.71 L1861.88,1408.98 L1861.54,1409.25 L1861.41,1409.69 L1861.43,1410.08 L1861.3,1410.42 L1861.36,1412 L1861.03,1413.79 L1860.53,1415.42 L1859.53,1416.4 L1858.78,1417.84 L1858.81,1418.65 L1858.49,1419.71 L1857.54,1420.72 L1856.84,1422.01 L1856.6,1422.67 L1856.07,1423.15 L1855.58,1423.96 L1855.42,1424.71 L1855.31,1425.21 L1854.45,1426.39 L1853.95,1426.6 L1853.88,1426.63 L1853.28,1426.63 L1852.83,1426.73 L1852.54,1427.02 L1852.45,1427.35 L1852.32,1427.58 L1852.22,1427.97 L1852.19,1428.43 L1851.88,1428.71 L1851.54,1428.92 L1850.42,1429.01 L1849.65,1428.89 L1849.05,1428.92 L1848.38,1429.12 L1847.3,1429.25 L1846.49,1429.38 L1845.9,1429.64 L1845.28,1430.21 L1844.45,1430.72 L1843.67,1430.95 L1842.38,1431.21 L1841.33,1431.13 L1840.46,1430.99 L1839.77,1430.87 L1837.72,1430.59 L1836.18,1430.8 L1835.34,1431.73 L1834.95,1432.58 L1834.79,1432.91 L1834.36,1433.61 L1833.99,1433.95 L1833.58,1434.19 L1832.96,1434.15 L1832.15,1434.39 L1831.34,1434.49 L1830.1,1434.27 L1828.93,1434.29 L1827.97,1434.19 L1826.68,1433.92 L1825.43,1434.01 L1823.54,1435 L1821.52,1435.64 L1820.13,1436.23 L1817.77,1436.75 L1816.4,1437.2 L1815,1438.33 L1813.87,1438.98 L1813.04,1439.92 L1812.65,1440.7 L1812.14,1441.67 L1811.12,1442.67 L1809.43,1443.28 L1806.97,1443.34 L1805.21,1442.94 L1804.08,1442.7 L1801.46,1442.54 L1800.53,1442.7 L1799.69,1442.85 L1798.64,1443.35 L1792.67,1447.11 L1785.74,1450.52 L1779.34,1452.19 L1777.49,1452.51 L1774.81,1452.87 L1769.75,1455.09 L1766.01,1457.47 L1764.01,1459.58 L1762.5,1461.17 L1755.08,1467.63 L1753.21,1468.83 L1744.44,1474.74 L1736.88,1481.96 L1733.79,1484.91 L1732.76,1485.88 L1729.44,1489.58 L1727.6,1492.29 L1725.66,1498.44 L1725.88,1501.18 L1726.22,1506.24 L1725.89,1508.16 L1724.77,1509.13 L1723.45,1509.36 L1720.12,1513.06 L1716.06,1516.23 L1713.04,1518.56 L1710.85,1522.04 L1706.94,1524.99 L1706.15,1525.33 L1700.94,1527.55 L1698.09,1528.89 L1695.64,1530.05 L1693.25,1531.99 L1689.98,1534.58 L1688.92,1535.73 L1687.13,1537.66 L1682.84,1541.19 L1680.07,1542.72 L1673.55,1547.54 L1672.23,1548.8 L1669.05,1551.8 L1667.57,1553.56 L1664.78,1559.54 L1664.5,1560.49 L1664.07,1562.6 L1663.06,1564.08 L1660.97,1566.08 L1659.21,1568.34 L1656.64,1572.29 L1651.87,1580.82 L1648.77,1586.42 L1646.73,1589.08 L1646.55,1589.33 L1644.18,1593.59 L1644.07,1593.86 L1642.74,1597.06 L1641.11,1599.29 L1638.55,1603.71 L1635.97,1608.16 L1634.3,1610.23 L1633.21,1612.54 L1633.05,1613.69 L1633.93,1615.68 L1634.05,1615.96 L1633.74,1618.99 L1633.13,1620.08 L1632.17,1620.91 L1630.48,1622.39 L1630.24,1622.74 L1630.26,1623.21 L1630.63,1623.83 L1630.79,1624.25 L1630.42,1625.13 L1629.78,1625.81 L1628.97,1626.58 L1628.76,1626.83 L1628.71,1627.27 L1628.93,1628.02 L1628.94,1628.4 L1628.73,1628.92 L1628.68,1629.06 L1628.53,1629.78 L1628.29,1630.9 L1627.75,1631.79 L1627.07,1632.64 L1625.99,1633.2 L1624.84,1633.78 L1623.35,1633.91 L1622.31,1634.55 L1621.59,1636.48 L1621.56,1638.22 L1621.51,1641.07 L1620.09,1646.49 L1618.93,1649.18 L1618.68,1651 L1618.53,1652.12 L1617.68,1653.81 L1617.1,1655.61 L1616.96,1657.41 L1617.29,1658.81 L1616.99,1660.27 L1616.49,1663.53 L1616.6,1667.1 L1616.27,1668.29 L1615.56,1669.27 L1612.98,1670.53 L1612.66,1670.68 L1611.73,1671.11 L1611.07,1672.62 L1611.32,1674.28 L1613.08,1676.03 L1616.31,1678.15 L1618.75,1680.58 L1620.13,1681.59 L1620.59,1682.47 L1620.57,1683.28 L1619.44,1685.05 L1617.41,1687.77 L1616.69,1689.51 L1617.14,1692.94 L1616.6,1694.1 L1613.85,1698.56 L1612.39,1701.65 L1610.4,1710.59 L1613.14,1722.91 L1609.5,1731.36 L1606.4,1738.46 L1605.41,1744.05 L1604.6,1748.81 L1603.7,1753.96 L1603.12,1757.82 L1601.27,1770.26 L1598.49,1777.02 L1594.93,1763.11 L1575.52,1726.11 L1562.82,1726.91 L1539.75,1734.62 L1531.94,1737.41 L1521.62,1741.17 L1514.48,1744.33 L1507.38,1749.92 L1505.77,1760.19 L1505.01,1774.64 L1503.45,1787.18 L1507.38,1797.56 L1516.14,1801.54 L1526.32,1799.98 L1535.94,1808.74 L1532.66,1822.94 L1516.09,1828.6 L1504.98,1829.4 L1503.4,1835.68 L1501.87,1847.76 L1510.75,1859.9 L1520.1,1871.38 L1524.83,1881.86 L1519.34,1886.69 L1502.02,1881.96 L1487.51,1873.25 L1472.91,1867.66 L1451.45,1866.05 L1436.17,1868.35 L1436.14,1868.36 L1420.13,1879.94 L1413.78,1895.36 L1414.73,1908.22 L1414.69,1908.25 L1417.41,1914.59 L1426.07,1918.22 L1443.3,1920.94 L1450.45,1928.09 L1450.48,1937.57 L1450.55,1937.56 L1444.91,1945.52 L1431.21,1944.81 L1426.5,1951.85 L1430.58,1962.63 L1436.02,1972.8 L1437.73,1989.47 L1437.68,2002.11 L1434.51,2021.4 L1440,2044.31 L1433.65,2062.65 L1428.21,2087.47 L1428.97,2100.32 L1387.73,2122.62 L1335.56,2142.53 L1325.96,2144.77 L1322.03,2139.84 L1314.18,2136.82 L1276.51,2151.62 L1258.48,2162.6 L1248,2176.3 L1235.61,2188.29 L1204.99,2199.26 L1184.54,2208.83 L1172.56,2205.11 L1165.31,2197.75 L1151,2191.11 L1129.55,2190.5 L1114.54,2198.56 L1103.97,2207.02 L1098.02,2221.52 L1084.32,2227.67 L1074.05,2235.22 L1068.01,2256.48 L1045.65,2263.22 L1040.51,2273.6 L1045.04,2284.04 L1050.1,2300.91 L1051.77,2308.85 L1043.88,2339.25 L1031.14,2336.78 L1023.24,2328.01 L1016.11,2327.26 L1009.03,2340.78 L1008.98,2348.84 L1000.27,2349.65 L989.034,2355.33 L974.882,2360.06 L965.414,2355.88 L960.579,2343.14 L951.111,2346.51 L944.01,2361.67 L947.233,2376.78 L944.816,2388.92 L930.513,2402.57 L913.843,2407.3 L894.932,2420.9 L873.705,2428.1 L867.158,2429.81 L862.399,2414.48 L854.517,2404.1 L840.214,2412.92 L819.608,2434.57 L808.529,2436.91 L802.309,2426.82 L792.74,2413.75 L773.653,2430.54 L755.674,2440.84 L740.414,2450.57 L712.652,2460.19 L709.53,2440.37 L700.716,2427.28 L681.629,2419.27 L670.701,2407.34 L661.283,2412.77 L653.175,2429.8 L642.951,2439.31 L638.167,2447.12 L638.922,2456.94 L648.995,2458.55 L662.1,2453.72 L677.802,2454.57 L688.277,2460.32 L695.227,2468.12 L691.148,2476.13 L672.102,2476.19 L672.111,2476.23 L648.39,2473.76 L632.728,2474.57 L616.008,2485.04 L604.122,2477.79 L592.161,2477.04 L579.495,2487.46 L567.685,2490.63 L559.703,2482.68 L513.763,2494.66 L502.797,2474.05 L497.937,2466.64 L491.592,2458.57 L492.297,2443.36 L484.239,2425.28 L473.31,2405.38 L475.728,2395.31 L492.649,2389.62 L507.556,2382.42 L517.175,2369.37 L524.025,2363.28 L520.801,2348.22 L516.017,2337.7 L520.197,2330.39 L528.859,2323.8 L532.939,2313.47 L534.298,2294.89 L533.493,2274.49 L537.572,2260.84 L539.939,2242.41 L528.815,2225.64 L527.679,2223.35 L522.485,2212.87 L520.975,2193.94 L506.47,2158.13 L501.132,2139.49 L502.668,2120.28 L514.579,2101.85 L521.025,2073.14 L518.507,2051.44 L517.701,2033.46 L530.493,2006.97 L539.105,2001.43 L550.285,1986.17 L558.142,1982.39 L563.883,1969.45 L570.871,1964.65 L577.934,1961.54 L585.891,1952.75 L581.887,1944.71 L577.959,1933.64 L580.251,1923.37 L569.121,1916.67 L565.293,1908.26 L566.099,1899.65 L564.538,1892.44 L561.315,1884.3 L565.318,1873.05 L569.247,1864.34 L569.196,1843.69 L566.149,1835.05 L561.315,1826.24 L531.173,1834.95 L521.724,1829.41 L512.885,1826.18 L497.928,1821.45 L496.348,1802.37 L489.02,1797.41 L477.412,1787.29 L466.206,1783.28 L458.249,1781.7 L448.831,1769.01 L440.95,1763.44 L435.334,1746.77 L426.622,1737.18 L419.47,1736.4 L409.146,1744.33 L399.552,1749.21 L389.404,1755.43 L381.447,1745.14 L365.608,1737.96 L349.778,1736.99 L339.47,1736.42 L327.522,1721.34 L319.665,1704.66 L307.1,1698.32 L286.351,1691.92 L270.21,1680.57 L256.335,1669.71 L236.253,1660.1 L223.751,1655.35 L207.283,1642.01 L190.525,1634 L185.079,1626.96 L171.406,1612.48 L158.01,1603.04 L154.082,1592.77 L158.791,1580.02 L155.567,1565.07 L140.761,1562.65 L120.314,1566.78 L106.59,1565.8 L85.111,1551.52 L82.6937,1544.32 L82.744,1526.79 L80.377,1507.1 L76.7964,1492.09 L118.791,1484.92 L158.779,1446.79 L178.923,1440.75 L210.954,1462.1 L224.249,1479.02 L240.291,1460.91 L261.316,1433.09 L295.36,1413.35 L312.483,1413.15 L347.988,1410.78 L378.659,1397.13 L402.581,1392.45 L416.733,1405.95 L432.244,1403.63 L455.813,1390.84 L465.08,1373.01 L454.907,1351.15 L453.97,1312.1 L469.029,1287.32 L496.073,1280.97 L542.109,1253.1 L571.016,1259.34 L576.455,1243.73 L565.879,1225.3 L560.541,1206.26 L572.225,1191.76 L649.077,1179.47 L657.538,1170.61 L664.308,1063.27 L666.592,1008.87 L670.275,952.213 L655.999,903.302 L753.842,852.861 L783.925,842.834 L811.939,818.958 L854.596,746.059 L871.627,725.208 L892,714.226 L911.896,713.43 L923.794,724.492 L935.613,724.532 L957.14,722.184 L965.815,743.234 L968.123,765.836 L980.697,770.452 L989.451,761.936 L1009.19,751.67 L1027.65,758.594 L1032.27,772.203 L1023.67,786.448 L1009.43,793.531 L999.24,806.026 L1000.51,822.022 L1008.63,834.835 L1030.76,837.939 L1047.87,839.611 L1087.66,870.728 L1111.58,881.82 L1127.44,884.216 L1152.01,900.123 L1171.75,908.161 L1190.03,909.658 L1213.08,904.083 L1232.83,898.53 L1248.76,902.397 L1258,912.663 L1273.28,918.473 L1288.24,913.857 L1298.51,900.089 L1298.49,900.067 L1297.87,881.705 L1281.63,870.404 L1270.01,852.338 L1271.76,831.726 L1286.89,815.65 L1297.63,807.373 L1306.42,801.564 L1323.02,792.969 L1331.85,780.155 L1332.65,756.28 L1337.42,736.384 L1348.56,721.422 L1350.71,705.545 L1343.79,687.878 L1343.71,672.12 L1348.48,658.431 L1361.3,650.791 L1372.44,637.978 L1379.44,625.324 L1405.47,616.013 L1416.53,606.383 L1420.75,591.262 L1425.28,553.062 L1424.57,541.442 L1433.68,495.966 L1805.04,519.383 L1814.08,519.936 L1943.95,527.769 L1939.21,725.202 L2089.99,726.083 L2872.8,730.696" fill-rule="evenodd"/>
  </g>
  <g font-size="34.5833" font-style="normal" fill="none" stroke="#000000" transform="matrix(0.999744,0,0,0.999744,0,0)" font-family="MS Shell Dlg 2" stroke-opacity="1" stroke-width="1" stroke-linecap="square" font-weight="400" stroke-linejoin="bevel"/>
  <g font-size="34.5833" font-style="normal" fill="none" stroke="#000000" transform="matrix(11.808,0,0,11.808,0,0)" font-family="MS Shell Dlg 2" stroke-opacity="1" stroke-width="1" stroke-linecap="square" font-weight="400" stroke-linejoin="bevel"/>
  <g font-size="34.5833" font-style="normal" fill="none" stroke="#000000" transform="matrix(11.808,0,0,11.808,0,0)" font-family="MS Shell Dlg 2" stroke-opacity="1" stroke-width="1" stroke-linecap="square" font-weight="400" stroke-linejoin="bevel"/>
  <g font-size="34.5833" font-style="normal" fill="none" stroke="#000000" transform="matrix(11.808,0,0,11.808,0,0)" font-family="MS Shell Dlg 2" stroke-opacity="1" stroke-width="1" stroke-linecap="square" font-weight="400" stroke-linejoin="bevel"/>
  <g font-size="34.5833" font-style="normal" fill="none" stroke="#000000" transform="matrix(1,0,0,1,0,0)" font-family="MS Shell Dlg 2" stroke-opacity="1" stroke-width="1" stroke-linecap="square" font-weight="400" stroke-linejoin="bevel"/>
  <g font-size="34.5833" font-style="normal" fill="none" stroke="#000000" transform="matrix(11.808,0,0,11.808,0,0)" font-family="MS Shell Dlg 2" stroke-opacity="1" stroke-width="1" stroke-linecap="square" font-weight="400" stroke-linejoin="bevel"/>
  <g font-size="34.5833" font-style="normal" fill="none" stroke="#000000" transform="matrix(11.808,0,0,11.808,0,0)" font-family="MS Shell Dlg 2" stroke-opacity="1" stroke-width="1" stroke-linecap="square" font-weight="400" stroke-linejoin="bevel"/>
  <g font-size="34.5833" font-style="normal" fill="none" stroke="#000000" transform="matrix(11.808,0,0,11.808,0,0)" font-family="MS Shell Dlg 2" stroke-opacity="1" stroke-width="1" stroke-linecap="square" font-weight="400" stroke-linejoin="bevel"/>
  <g font-size="34.5833" font-style="normal" fill="none" stroke="#000000" transform="matrix(11.808,0,0,11.808,0,0)" font-family="MS Shell Dlg 2" stroke-opacity="1" stroke-width="1" stroke-linecap="square" font-weight="400" stroke-linejoin="bevel"/>
  <g font-size="34.5833" font-style="normal" fill="none" stroke="#000000" transform="matrix(1,0,0,1,0,0)" font-family="MS Shell Dlg 2" stroke-opacity="1" stroke-width="1" stroke-linecap="square" font-weight="400" stroke-linejoin="bevel"/>
 </g>
</svg>
