<?xml version='1.0' encoding='UTF-8' standalone='no'?>
<svg width="249.936mm" version="1.2" viewBox="0 0 2952 2952" baseProfile="tiny" xmlns="http://www.w3.org/2000/svg" height="249.936mm" xmlns:xlink="http://www.w3.org/1999/xlink">
 <title>Qt SVG Document</title>
 <desc>Generated with Qt</desc>
 <defs/>
 <g fill="none" stroke="black" fill-rule="evenodd" stroke-width="1" stroke-linecap="square" stroke-linejoin="bevel">
  <g font-size="34.5833" font-style="normal" fill="none" stroke="#000000" transform="matrix(1,0,0,1,0,0)" font-family="MS Shell Dlg 2" stroke-opacity="1" stroke-width="1" stroke-linecap="square" font-weight="400" stroke-linejoin="bevel"/>
  <g font-size="34.5833" font-style="normal" fill="none" stroke="#000000" transform="matrix(1,0,0,1,0,0)" font-family="MS Shell Dlg 2" stroke-opacity="1" stroke-width="1" stroke-linecap="square" font-weight="400" stroke-linejoin="bevel"/>
  <g font-size="34.5833" font-style="normal" fill="none" stroke="#000000" transform="matrix(11.808,0,0,11.808,0,0)" font-family="MS Shell Dlg 2" stroke-opacity="1" stroke-width="1" stroke-linecap="square" font-weight="400" stroke-linejoin="bevel"/>
  <g font-size="34.5833" font-style="normal" fill="none" stroke="#000000" transform="matrix(0.999744,0,0,0.999744,0,0)" font-family="MS Shell Dlg 2" stroke-opacity="1" stroke-width="1" stroke-linecap="square" font-weight="400" stroke-linejoin="bevel"/>
  <g font-size="34.5833" font-style="normal" fill="#ffffff" stroke="none" transform="matrix(0.999744,0,0,0.999744,0,0)" font-family="MS Shell Dlg 2" fill-opacity="0" font-weight="400">
   <path vector-effect="none" d="M-2,-2 L2955,-2 L2955,2955 L-2,2955 L-2,-2" fill-rule="evenodd"/>
  </g>
  <g font-size="34.5833" font-style="normal" fill="none" stroke="#000000" transform="matrix(0.999744,0,0,0.999744,0,0)" font-family="MS Shell Dlg 2" stroke-opacity="1" stroke-width="1" stroke-linecap="square" font-weight="400" stroke-linejoin="bevel"/>
  <g font-size="34.5833" font-style="normal" fill="none" stroke="#000000" transform="matrix(11.808,0,0,11.808,0,0)" font-family="MS Shell Dlg 2" stroke-opacity="1" stroke-width="1" stroke-linecap="square" font-weight="400" stroke-linejoin="bevel"/>
  <g font-size="34.5833" font-style="normal" fill="none" stroke="#000000" transform="matrix(11.808,0,0,11.808,0,0)" font-family="MS Shell Dlg 2" stroke-opacity="1" stroke-width="1" stroke-linecap="square" font-weight="400" stroke-linejoin="bevel"/>
  <g font-size="34.5833" font-style="normal" fill="none" stroke="#000000" transform="matrix(11.808,0,0,11.808,0,0)" font-family="MS Shell Dlg 2" stroke-opacity="1" stroke-width="1" stroke-linecap="square" font-weight="400" stroke-linejoin="bevel"/>
  <g font-size="34.5833" font-style="normal" fill="none" stroke="#000000" transform="matrix(11.808,0,0,11.808,0,0)" font-family="MS Shell Dlg 2" stroke-opacity="1" stroke-width="1" stroke-linecap="square" font-weight="400" stroke-linejoin="bevel"/>
  <g font-size="34.5833" font-style="normal" fill="none" stroke="#000000" transform="matrix(11.808,0,0,11.808,0,0)" font-family="MS Shell Dlg 2" stroke-opacity="1" stroke-width="1" stroke-linecap="square" font-weight="400" stroke-linejoin="bevel"/>
  <g font-size="34.5833" font-style="normal" fill="#ffffff" stroke="none" transform="matrix(11.808,0,0,11.808,0,0)" font-family="MS Shell Dlg 2" fill-opacity="0" font-weight="400">
   <path vector-effect="none" d="M0,0 L250,0 L250,250 L0,250 L0,0" fill-rule="evenodd"/>
  </g>
  <g font-size="34.5833" font-style="normal" fill="none" stroke="#000000" transform="matrix(11.808,0,0,11.808,0,0)" font-family="MS Shell Dlg 2" stroke-opacity="1" stroke-width="1" stroke-linecap="square" font-weight="400" stroke-linejoin="bevel"/>
  <g font-size="34.5833" font-style="normal" fill="none" stroke="#000000" transform="matrix(11.808,0,0,11.808,0,0)" font-family="MS Shell Dlg 2" stroke-opacity="1" stroke-width="1" stroke-linecap="square" font-weight="400" stroke-linejoin="bevel"/>
  <g font-size="34.5833" font-style="normal" fill="#000000" stroke="none" transform="matrix(0.999744,0,0,0.999744,0,0)" font-family="MS Shell Dlg 2" fill-opacity="0" font-weight="400">
   <rect width="2953" x="0" y="0" height="2953"/>
  </g>
  <g font-size="34.5833" font-style="normal" fill="none" stroke="#000000" transform="matrix(0.999744,0,0,0.999744,0,0)" font-family="MS Shell Dlg 2" stroke-opacity="1" stroke-width="1" stroke-linecap="square" font-weight="400" stroke-linejoin="bevel"/>
  <g font-size="34.5833" font-style="normal" fill="#c5c5c5" stroke="#5c5c5c" transform="matrix(0.999744,0,0,0.999744,0,0)" font-family="MS Shell Dlg 2" fill-opacity="1" stroke-opacity="1" stroke-width="3.07087" stroke-linecap="square" font-weight="400" stroke-linejoin="bevel">
   <path vector-effect="none" d="M1265.97,2812.28 L1265.68,2812.28 L1268.01,2675.31 L1261.63,2671.51 L1255.3,2669.4 L1241.46,2668.35 L1227.66,2670.46 L1216.01,2680.02 L1211.72,2690.61 L1200.07,2702.3 L1193.49,2708.2 L1189.55,2711.75 L1181.96,2723.53 L1170.38,2720.37 L1165.07,2710.8 L1154.44,2707.58 L1138.44,2711.65 L1125.71,2715.04 L1111.89,2711.89 L1089.69,2709.71 L1088.59,2702.32 L1109.78,2688.52 L1105.36,2684.12 L1091.68,2684.27 L1075.83,2687.44 L1060.95,2681.07 L1049.28,2682.12 L1036.44,2689.63 L1027,2696.95 L1013.17,2695.93 L1000.44,2702.3 L986.627,2713.97 L972.838,2716.09 L959.025,2723.53 L952.652,2729.89 L940.972,2730.95 L928.229,2738.39 L914.44,2736.27 L908.058,2730.96 L893.183,2733.08 L875.334,2729.91 L862.393,2730.92 L851.831,2722.48 L845.453,2710.77 L835.734,2707.53 L829.491,2700.21 L827.357,2693.82 L815.724,2682.18 L806.106,2675.77 L799.838,2667.29 L782.696,2668.4 L779.6,2677.86 L777.465,2682.17 L761.909,2685.31 L752.933,2682.14 L745.559,2654.55 L736.212,2642.03 L732.77,2625.57 L727.438,2614.43 L724.334,2600.53 L717.045,2582.57 L704.154,2568.87 L701.117,2553.15 L691.465,2542.18 L704.203,2507.2 L713.821,2478.54 L726.914,2451 L733.055,2432.44 L735.755,2411.65 L714.968,2398.43 L689.052,2374.4 L678.794,2350.91 L649.098,2341.74 L626.504,2319.27 L639.377,2282.54 L677.602,2279.82 L702.955,2282.75 L705.115,2271.95 L697.691,2254.4 L696.746,2235.37 L688.377,2227.81 L667.32,2223.9 L647.073,2226.6 L644.239,2207.16 L619.268,2207.16 L607.254,2210 L601.18,2207.3 L604.42,2191.64 L598.211,2178.01 L599.156,2164.51 L610.494,2161.67 L628.041,2163.56 L650.448,2162.75 L665.026,2152.22 L665.296,2142.24 L659.357,2128.74 L648.288,2121.18 L621.022,2122.53 L603.205,2127.39 L594.026,2122.26 L591.057,2109.57 L597.266,2090.67 L595.916,2063.14 L590.652,2044.65 L590.112,2029.26 L587.682,2010.9 L571.061,1966.1 L566.504,1934.56 L562.415,1900.69 L552.183,1817.88 L543.949,1796.42 L543.679,1772.66 L532.206,1774.01 L521.542,1782.92 L511.554,1795.61 L499.811,1793.72 L490.092,1783.86 L479.834,1779.01 L469.575,1764.56 L481.048,1749.71 L511.824,1736.76 L501.835,1721.64 L479.969,1716.37 L478.214,1699.64 L467.685,1668.73 L440.69,1669.81 L423.682,1679.26 L412.209,1671.97 L393.852,1649.29 L379.274,1612.71 L359.162,1578.29 L366.856,1554.13 L366.451,1524.84 L439.745,1506.08 L438.731,1489.36 L434.483,1475.73 L436.605,1467.35 L425.986,1462.1 L422.782,1452.65 L427.017,1440.1 L435.554,1429.6 L445.914,1411.13 L454.641,1397.16 L468.511,1384.51 L471.649,1368.85 L464.208,1342.65 L437.668,1324.87 L436.608,1310.21 L446.181,1294.52 L471.735,1281.91 L488.649,1270.44 L491.821,1255.78 L471.777,1196.05 L527.043,1166.16 L526.03,1148.95 L533.319,1115.68 L541.823,1091.11 L534.467,1060.4 L538.719,1034.56 L538.786,1017.62 L536.491,995.276 L529.202,981.643 L523.736,967.2 L530.046,957.769 L548.403,958.713 L555.962,948.05 L555.871,948.062 L555.827,935.362 L546.244,925.778 L523.162,922.134 L511.554,917.275 L507.909,908.771 L507.957,908.73 L506.695,891.494 L515.198,870.842 L536.66,855.319 L536.699,855.309 L557.177,852.214 L585.928,854.374 L605.5,861.866 L624.937,873.541 L648.153,879.885 L655.51,873.406 L649.166,859.368 L636.646,843.981 L624.734,827.716 L626.793,811.518 L628.91,803.107 L643.8,802.036 L666.004,794.452 L670.391,775.42 L657.501,763.676 L643.868,765.769 L632.124,760.437 L626.86,746.534 L628.952,729.729 L629.965,710.359 L632.124,696.591 L641.64,689.1 L651.207,684.865 L665.043,679.835 L675.503,676.091 L706.414,665.765 L723.434,664.694 L749.447,714.27 L754.224,732.914 L757.942,723.853 L760.422,707.183 L761.199,702.003 L762.413,695.102 L763.493,688.725 L764.826,681.233 L768.977,671.717 L773.853,660.396 L770.175,643.895 L772.853,631.905 L774.799,627.764 L778.486,621.79 L779.216,620.237 L778.605,615.641 L779.572,613.314 L782.292,609.668 L783.81,607.288 L783.83,606.21 L783.226,605.028 L781.37,603.673 L778.104,600.418 L773.773,597.574 L771.414,595.226 L771.074,593.003 L771.958,590.982 L773.211,590.41 L773.641,590.2 L777.1,588.516 L778.046,587.201 L778.488,585.613 L778.346,580.822 L779.013,576.454 L779.417,574.504 L778.971,572.63 L779.164,570.213 L779.93,567.804 L781.079,565.531 L781.277,564.036 L781.616,561.59 L783.167,557.986 L785.062,550.721 L785.136,546.909 L785.181,544.576 L786.142,541.995 L787.536,541.125 L789.533,540.955 L791.068,540.177 L792.526,539.43 L793.432,538.293 L794.15,537.104 L794.472,535.6 L794.675,534.632 L794.75,534.445 L795.03,533.744 L795.006,533.232 L794.724,532.235 L794.783,531.643 L795.065,531.303 L796.157,530.278 L797.004,529.363 L797.508,528.192 L797.294,527.618 L796.793,526.796 L796.765,526.157 L797.092,525.696 L799.354,523.71 L800.644,522.594 L801.459,521.141 L801.873,517.077 L801.708,516.702 L800.534,514.036 L800.755,512.496 L802.212,509.393 L804.447,506.627 L807.902,500.665 L811.341,494.738 L813.52,491.742 L815.3,487.458 L815.451,487.094 L818.63,481.395 L818.862,481.052 L821.595,477.492 L825.75,469.981 L832.147,458.56 L835.59,453.257 L837.945,450.239 L840.744,447.558 L842.097,445.564 L842.682,442.746 L843.059,441.471 L846.795,433.449 L848.776,431.103 L853.039,427.076 L854.806,425.393 L863.541,418.933 L867.262,416.876 L873,412.144 L875.398,409.555 L876.819,408.021 L881.213,404.543 L884.415,401.952 L887.694,400.401 L891.511,398.594 L898.495,395.619 L899.548,395.175 L904.792,391.22 L907.734,386.552 L911.778,383.422 L917.218,379.176 L921.677,374.218 L923.448,373.921 L924.942,372.608 L925.391,370.043 L924.929,363.266 L924.642,359.586 L927.246,351.35 L929.701,347.716 L934.158,342.759 L935.531,341.458 L939.674,337.499 L949.81,327.833 L961.561,319.906 L964.059,318.304 L974.012,309.642 L976.035,307.508 L978.719,304.678 L983.721,301.496 L990.504,298.526 L994.092,298.043 L996.574,297.615 L1005.15,295.368 L1014.43,290.805 L1022.44,285.762 L1023.84,285.094 L1024.97,284.895 L1026.21,284.675 L1029.74,284.893 L1031.24,285.219 L1033.6,285.748 L1036.9,285.669 L1039.16,284.848 L1040.54,283.514 L1041.21,282.217 L1041.74,281.168 L1042.85,279.909 L1044.37,279.04 L1046.24,277.525 L1048.07,276.918 L1051.24,276.221 L1053.1,275.428 L1055.81,274.575 L1058.34,273.245 L1060.02,273.13 L1061.74,273.484 L1063.03,273.617 L1064.6,273.594 L1066.27,273.888 L1067.34,273.75 L1068.43,273.429 L1069.27,273.483 L1069.82,273.161 L1070.31,272.713 L1070.89,271.766 L1071.09,271.334 L1071.62,270.197 L1072.75,268.942 L1074.81,268.664 L1077.55,269.039 L1078.48,269.193 L1079.65,269.385 L1081.05,269.495 L1082.79,269.146 L1083.83,268.842 L1084.94,268.16 L1085.77,267.39 L1086.57,267.046 L1087.65,266.869 L1089.1,266.691 L1089.99,266.431 L1090.8,266.384 L1091.83,266.549 L1093.34,266.42 L1093.79,266.137 L1094.21,265.768 L1094.24,265.146 L1094.38,264.625 L1094.55,264.318 L1094.67,263.883 L1095.06,263.486 L1095.67,263.362 L1096.46,263.358 L1096.57,263.315 L1097.23,263.04 L1098.38,261.448 L1098.53,260.784 L1098.74,259.776 L1099.4,258.696 L1100.11,258.053 L1100.43,257.165 L1101.37,255.431 L1102.64,254.086 L1103.08,252.66 L1103.04,251.573 L1104.04,249.645 L1105.38,248.334 L1106.05,246.149 L1106.49,243.746 L1106.41,241.639 L1106.59,241.18 L1106.56,240.66 L1106.74,240.067 L1107.19,239.7 L1107.86,239.337 L1108.97,238.567 L1110.24,238.108 L1110.92,237.853 L1111.84,237.795 L1112.93,238.027 L1113.28,237.893 L1113.88,237.817 L1114.47,237.843 L1115.02,237.62 L1115.18,237.216 L1115.16,236.825 L1115.31,236.52 L1115.67,236.27 L1115.95,235.868 L1116.35,235.497 L1117.22,234.74 L1118.52,233.641 L1119.11,232.971 L1120.26,230.831 L1121.29,229.445 L1121.96,228.047 L1122.8,226.91 L1124.6,226.033 L1126.59,225.846 L1137.48,222.413 L1141.55,221.135 L1143.06,221.175 L1144.23,221.962 L1145.27,222.267 L1146.04,222.27 L1146.98,222.06 L1148.44,221.285 L1149.66,220.566 L1152.73,219.184 L1154.98,217.684 L1156.46,216.116 L1158.11,214.994 L1160.83,212.9 L1161.91,212.147 L1162.98,211.943 L1163.38,211.577 L1163.92,211.144 L1164.2,210.568 L1165.42,209.817 L1167.99,208.546 L1170.38,207.322 L1171.53,206.81 L1172.36,206.192 L1172.87,205.3 L1173.47,204.211 L1174.02,203.877 L1174.73,203.769 L1175.91,204.11 L1176.95,204.584 L1178.44,205.486 L1179.05,205.578 L1179.54,205.469 L1180.44,205.17 L1182.16,204.52 L1183.11,203.519 L1183.9,202.384 L1185.24,201.599 L1187.38,200.607 L1189.72,199.918 L1191.38,199.119 L1192.67,197.915 L1195.53,196.646 L1198.8,195.66 L1199.92,195.436 L1201.08,195.602 L1202.37,196.334 L1204.56,196.206 L1206.42,195.427 L1207.95,193.785 L1209.62,192.324 L1209.72,192.009 L1209.56,191.737 L1209.35,191.161 L1209.44,190.733 L1209.68,190.406 L1210.32,189.96 L1212.37,189.556 L1219.88,187.216 L1222.87,185.354 L1228.29,183.816 L1229.25,183.704 L1230.04,183.885 L1232.32,184.774 L1233.16,185.145 L1234.47,185.188 L1236.03,184.505 L1238.27,182.662 L1239.4,181.343 L1240.53,180.637 L1242.16,180.256 L1244.04,180.473 L1245.6,181.708 L1247.57,181.783 L1250.02,181.162 L1252.45,180.301 L1256.22,178.863 L1262.93,175.648 L1266.94,174.014 L1268.43,172.701 L1276.1,165.617 L1277.77,164.408 L1279.45,163.662 L1281.48,163.379 L1282.89,163.655 L1285.35,165.246 L1288.33,166.572 L1288.89,167.146 L1289.91,167.363 L1290.51,167.235 L1290.83,166.761 L1291.54,165.5 L1293.04,163.764 L1295.27,162.146 L1298.08,160.767 L1299.65,160.178 L1301.11,160.147 L1302.16,160.18 L1303.26,160.038 L1306.85,158.534 L1308.94,157.015 L1315.04,152.612 L1318.55,151.245 L1319.79,151.077 L1321,150.539 L1322.57,149.99 L1324.13,149.4 L1326.85,148.688 L1330.82,146.315 L1331.46,145.61 L1331.81,144.776 L1329.79,135.146 L1330.53,131.531 L1330.62,128.791 L1330.85,127.939 L1331.25,127.241 L1333.58,125.362 L1337.08,123.485 L1349.37,118.826 L1353.34,116.239 L1357.57,113.491 L1359.58,112.16 L1361.99,110.764 L1362.42,110.583 L1362.86,110.549 L1363.4,110.523 L1377.44,111.535 L1379.81,111.733 L1382.22,111.17 L1385.58,110.859 L1388.72,110.829 L1391.47,111.109 L1393.96,111.446 L1397.1,111.29 L1399.74,111.515 L1402.4,111.757 L1404.52,111.953 L1405.58,112.333 L1406.45,112.914 L1410.63,113.443 L1414.68,113.985 L1421.93,114.155 L1425.87,114.5 L1431.23,115.112 L1437.5,116.876 L1441.97,118.206 L1447.87,120.373 L1449.76,122.214 L1454.63,125.22 L1455.51,126.255 L1455.9,126.53 L1456.34,126.722 L1456.95,126.868 L1457.68,126.674 L1458.23,126.35 L1458.77,125.654 L1459.35,124.809 L1460.76,123.187 L1462.09,121.864 L1465.89,118.799 L1466.86,117.92 L1467.71,117.488 L1468.63,117.616 L1469.66,118.135 L1470.45,118.704 L1471.78,121.29 L1471.96,122.326 L1472.42,123.456 L1473.15,124.045 L1473.73,124.269 L1474.17,124.237 L1475.22,124.128 L1476.29,124.095 L1476.91,124.264 L1491.2,128.196 L1495.3,129.864 L1501.68,131.468 L1508.33,133.829 L1518.25,135.587 L1523.89,137.721 L1531.75,138.008 L1535.79,137.638 L1542.84,136.164 L1546.12,135.816 L1550.94,135.934 L1556.96,133.978 L1561.74,133.077 L1565.81,133.47 L1571.61,132.794 L1580.37,129.231 L1587.65,126.983 L1590.21,127.674 L1594.06,129.6 L1598.98,133.279 L1603.04,133.671 L1607.64,135.066 L1616.3,136.852 L1617.58,137.578 L1621.64,137.715 L1625.17,137.103 L1630.76,137.704 L1639.28,134.907 L1644.17,137.311 L1646.2,137.76 L1652.73,135.785 L1655.83,137.732 L1659.89,138.121 L1662.48,140.083 L1666.53,139.963 L1670.55,139.08 L1672.58,139.02 L1674.87,139.716 L1678.48,141.901 L1683.62,144.296 L1688.69,144.654 L1691.75,145.328 L1693.52,145.02 L1696.74,142.887 L1700.07,144.06 L1712.58,147.507 L1720.52,150.58 L1722.45,147.465 L1724.2,146.649 L1727.81,148.832 L1733.09,147.4 L1737.67,148.28 L1742.49,148.643 L1752.34,147.581 L1765.05,149.487 L1772.55,149.51 L1772.65,149.51 L1777.23,150.389 L1785.63,151.66 L1789.9,150.51 L1791.68,150.965 L1795.05,153.408 L1799.63,154.286 L1803.43,154.169 L1808.75,154.515 L1809.09,154.616 L1811.05,155.208 L1814.08,154.859 L1823.54,157.877 L1825.83,158.061 L1829.85,157.173 L1831.64,157.626 L1832.93,158.605 L1835.21,158.534 L1838.53,159.449 L1841.57,162.159 L1842.95,163.387 L1849.55,163.69 L1852.51,161.305 L1856.52,159.907 L1859.31,160.074 L1861.36,160.774 L1865.78,164.71 L1872.35,164.249 L1878.25,166.61 L1878.3,168.391 L1880.37,169.6 L1893.54,169.948 L1902.73,172.203 L1907.3,172.568 L1909.56,171.987 L1915.93,173.312 L1918.2,173.239 L1922.17,170.566 L1934.34,171.196 L1936.64,171.886 L1944.45,170.617 L1950.59,172.712 L1958.44,172.714 L1963.52,173.314 L1966.86,174.734 L1979.75,181.957 L1981.28,182.416 L1983.82,182.589 L1996.11,186.773 L2008.35,189.43 L2014.5,191.775 L2017.55,192.185 L2026.48,194.438 L2033.34,194.977 L2035.89,195.656 L2046.78,195.806 L2053.4,196.86 L2065.06,197.238 L2069.86,197.078 L2077.27,199.123 L2081.82,198.971 L2089.73,200.744 L2090.68,198.676 L2090.09,196.403 L2093.31,194.004 L2096.37,194.665 L2104.98,194.886 L2112.29,193.876 L2114.04,193.308 L2117.34,193.452 L2119.65,194.392 L2120.94,195.367 L2122.48,195.824 L2129.78,194.559 L2133.86,195.44 L2137.85,193.777 L2142.65,193.614 L2147.77,195.223 L2153.35,195.543 L2155.93,196.982 L2161.54,198.319 L2173.81,201.72 L2181.71,203.232 L2189.27,202.208 L2193.07,202.332 L2197.3,200.404 L2199.96,204.132 L2203.49,203.501 L2208.82,204.081 L2212.56,202.424 L2214.08,202.371 L2218.18,204.012 L2219.76,205.739 L2226.16,207.809 L2228.63,213.325 L2230.73,215.544 L2232.8,216.999 L2245.81,219.857 L2252.41,220.39 L2260.23,219.607 L2277.83,223.572 L2287.14,221.971 L2296.55,223.567 L2299.56,223.333 L2302.73,220.84 L2303.6,220.508 L2305.77,220.938 L2307.65,222.756 L2308.85,223.521 L2309.26,223.775 L2311.59,223.262 L2316.95,220.153 L2324.03,219.901 L2327.29,219.021 L2329.66,214.609 L2330.9,213.801 L2340.48,212.695 L2345.68,209.709 L2347.15,208.129 L2349.12,206.786 L2350.3,204.198 L2350.46,201.647 L2351.89,199.051 L2353.91,198.978 L2356.96,199.378 L2359.96,198.507 L2365.42,202.384 L2368.69,202.011 L2371.38,199.369 L2372.86,198.298 L2375.39,198.207 L2379.26,200.358 L2380.06,201.602 L2382.88,202.518 L2385.37,201.41 L2389.19,194.91 L2394.79,195.98 L2397.17,198.947 L2398.04,201.97 L2399.13,204.221 L2400.98,206.191 L2403.03,206.88 L2410.44,208.902 L2415.25,208.981 L2420.47,206.5 L2426.2,211.127 L2427.02,212.625 L2426.92,216.955 L2428.27,217.534 L2428.85,217.785 L2431.29,218.832 L2439.39,219.045 L2445.53,220.856 L2449.86,221.461 L2452.12,221.123 L2457.36,222.269 L2461.34,223.138 L2461.34,223.136 L2461.41,223.149 L2461.8,223.223 L2461.92,223.202 L2461.92,266.221 L2461.92,298.558 L2461.92,511.914 L2461.92,667.858 L2461.92,709.378 L2461.92,950.81 L2461.91,1038.28 L2461.91,1160.78 L2461.91,1364.22 L2461.91,1364.95 L2461.91,1387.33 L2461.91,1413.22 L2444.8,1413.22 L2405.7,1413.22 L2365.06,1413.22 L2335.55,1413.22 L2332.9,1413.22 L2298.3,1413.22 L2296.59,1413.22 L2260.4,1413.22 L2240.24,1413.22 L2233.04,1413.22 L2205.28,1413.22 L2172.99,1413.22 L2139.86,1413.22 L2120.72,1413.22 L2078.72,1413.22 L2039.55,1413.22 L2013.34,1413.17 L1995.18,1413.13 L1951.08,1413.06 L1951.03,1413.06 L1951.03,1413.06 L1908.07,1412.98 L1863.19,1412.91 L1860.72,1412.9 L1823.35,1412.9 L1789.2,1412.9 L1771.96,1412.9 L1771.92,1422.71 L1771.92,1422.99 L1771.92,1428.57 L1771.94,1504.5 L1771.94,1591.93 L1771.94,1621.68 L1771.94,1638.31 L1771.94,1677.36 L1771.94,1725.58 L1771.94,1758.77 L1771.94,1782.89 L1771.94,1815.82 L1771.94,1952.24 L1771.94,2161.75 L1771.94,2348.31 L1771.94,2394.23 L1771.94,2434.35 L1771.94,2559.48 L1771.94,2578.27 L1771.94,2597.49 L1771.94,2643.35 L1771.92,2720.46 L1771.94,2778.17 L1771.93,2819.92 L1265.89,2817.48 L1265.97,2812.28" fill-rule="evenodd"/>
  </g>
  <g font-size="34.5833" font-style="normal" fill="none" stroke="#000000" transform="matrix(0.999744,0,0,0.999744,0,0)" font-family="MS Shell Dlg 2" stroke-opacity="1" stroke-width="1" stroke-linecap="square" font-weight="400" stroke-linejoin="bevel"/>
  <g font-size="34.5833" font-style="normal" fill="none" stroke="#000000" transform="matrix(11.808,0,0,11.808,0,0)" font-family="MS Shell Dlg 2" stroke-opacity="1" stroke-width="1" stroke-linecap="square" font-weight="400" stroke-linejoin="bevel"/>
  <g font-size="34.5833" font-style="normal" fill="none" stroke="#000000" transform="matrix(11.808,0,0,11.808,0,0)" font-family="MS Shell Dlg 2" stroke-opacity="1" stroke-width="1" stroke-linecap="square" font-weight="400" stroke-linejoin="bevel"/>
  <g font-size="34.5833" font-style="normal" fill="none" stroke="#000000" transform="matrix(11.808,0,0,11.808,0,0)" font-family="MS Shell Dlg 2" stroke-opacity="1" stroke-width="1" stroke-linecap="square" font-weight="400" stroke-linejoin="bevel"/>
  <g font-size="34.5833" font-style="normal" fill="none" stroke="#000000" transform="matrix(1,0,0,1,0,0)" font-family="MS Shell Dlg 2" stroke-opacity="1" stroke-width="1" stroke-linecap="square" font-weight="400" stroke-linejoin="bevel"/>
  <g font-size="34.5833" font-style="normal" fill="none" stroke="#000000" transform="matrix(11.808,0,0,11.808,0,0)" font-family="MS Shell Dlg 2" stroke-opacity="1" stroke-width="1" stroke-linecap="square" font-weight="400" stroke-linejoin="bevel"/>
  <g font-size="34.5833" font-style="normal" fill="none" stroke="#000000" transform="matrix(11.808,0,0,11.808,0,0)" font-family="MS Shell Dlg 2" stroke-opacity="1" stroke-width="1" stroke-linecap="square" font-weight="400" stroke-linejoin="bevel"/>
  <g font-size="34.5833" font-style="normal" fill="none" stroke="#000000" transform="matrix(11.808,0,0,11.808,0,0)" font-family="MS Shell Dlg 2" stroke-opacity="1" stroke-width="1" stroke-linecap="square" font-weight="400" stroke-linejoin="bevel"/>
  <g font-size="34.5833" font-style="normal" fill="none" stroke="#000000" transform="matrix(11.808,0,0,11.808,0,0)" font-family="MS Shell Dlg 2" stroke-opacity="1" stroke-width="1" stroke-linecap="square" font-weight="400" stroke-linejoin="bevel"/>
  <g font-size="34.5833" font-style="normal" fill="none" stroke="#000000" transform="matrix(1,0,0,1,0,0)" font-family="MS Shell Dlg 2" stroke-opacity="1" stroke-width="1" stroke-linecap="square" font-weight="400" stroke-linejoin="bevel"/>
 </g>
</svg>
