<?xml version='1.0' encoding='UTF-8' standalone='no'?>
<svg xmlns:xlink="http://www.w3.org/1999/xlink" baseProfile="tiny" version="1.2" viewBox="0 0 2952 2952" height="249.936mm" width="249.936mm" xmlns="http://www.w3.org/2000/svg">
 <title>Qt SVG Document</title>
 <desc>Generated with Qt</desc>
 <defs/>
 <g stroke-linejoin="bevel" stroke="black" stroke-linecap="square" fill="none" stroke-width="1" fill-rule="evenodd">
  <g stroke-linejoin="bevel" font-size="34.5833" stroke="#000000" stroke-linecap="square" fill="none" transform="matrix(1,0,0,1,0,0)" stroke-opacity="1" font-style="normal" stroke-width="1" font-weight="400" font-family="MS Shell Dlg 2"/>
  <g stroke-linejoin="bevel" font-size="34.5833" stroke="#000000" stroke-linecap="square" fill="none" transform="matrix(1,0,0,1,0,0)" stroke-opacity="1" font-style="normal" stroke-width="1" font-weight="400" font-family="MS Shell Dlg 2"/>
  <g stroke-linejoin="bevel" font-size="34.5833" stroke="#000000" stroke-linecap="square" fill="none" transform="matrix(11.808,0,0,11.808,0,0)" stroke-opacity="1" font-style="normal" stroke-width="1" font-weight="400" font-family="MS Shell Dlg 2"/>
  <g stroke-linejoin="bevel" font-size="34.5833" stroke="#000000" stroke-linecap="square" fill="none" transform="matrix(0.999744,0,0,0.999744,0,0)" stroke-opacity="1" font-style="normal" stroke-width="1" font-weight="400" font-family="MS Shell Dlg 2"/>
  <g font-size="34.5833" stroke="none" fill-opacity="0" fill="#ffffff" transform="matrix(0.999744,0,0,0.999744,0,0)" font-style="normal" font-weight="400" font-family="MS Shell Dlg 2">
   <path vector-effect="none" d="M-2,-2 L2955,-2 L2955,2955 L-2,2955 L-2,-2" fill-rule="evenodd"/>
  </g>
  <g stroke-linejoin="bevel" font-size="34.5833" stroke="#000000" stroke-linecap="square" fill="none" transform="matrix(0.999744,0,0,0.999744,0,0)" stroke-opacity="1" font-style="normal" stroke-width="1" font-weight="400" font-family="MS Shell Dlg 2"/>
  <g stroke-linejoin="bevel" font-size="34.5833" stroke="#000000" stroke-linecap="square" fill="none" transform="matrix(11.808,0,0,11.808,0,0)" stroke-opacity="1" font-style="normal" stroke-width="1" font-weight="400" font-family="MS Shell Dlg 2"/>
  <g stroke-linejoin="bevel" font-size="34.5833" stroke="#000000" stroke-linecap="square" fill="none" transform="matrix(11.808,0,0,11.808,0,0)" stroke-opacity="1" font-style="normal" stroke-width="1" font-weight="400" font-family="MS Shell Dlg 2"/>
  <g stroke-linejoin="bevel" font-size="34.5833" stroke="#000000" stroke-linecap="square" fill="none" transform="matrix(11.808,0,0,11.808,0,0)" stroke-opacity="1" font-style="normal" stroke-width="1" font-weight="400" font-family="MS Shell Dlg 2"/>
  <g stroke-linejoin="bevel" font-size="34.5833" stroke="#000000" stroke-linecap="square" fill="none" transform="matrix(11.808,0,0,11.808,0,0)" stroke-opacity="1" font-style="normal" stroke-width="1" font-weight="400" font-family="MS Shell Dlg 2"/>
  <g stroke-linejoin="bevel" font-size="34.5833" stroke="#000000" stroke-linecap="square" fill="none" transform="matrix(11.808,0,0,11.808,0,0)" stroke-opacity="1" font-style="normal" stroke-width="1" font-weight="400" font-family="MS Shell Dlg 2"/>
  <g font-size="34.5833" stroke="none" fill-opacity="0" fill="#ffffff" transform="matrix(11.808,0,0,11.808,0,0)" font-style="normal" font-weight="400" font-family="MS Shell Dlg 2">
   <path vector-effect="none" d="M0,0 L250,0 L250,250 L0,250 L0,0" fill-rule="evenodd"/>
  </g>
  <g stroke-linejoin="bevel" font-size="34.5833" stroke="#000000" stroke-linecap="square" fill="none" transform="matrix(11.808,0,0,11.808,0,0)" stroke-opacity="1" font-style="normal" stroke-width="1" font-weight="400" font-family="MS Shell Dlg 2"/>
  <g stroke-linejoin="bevel" font-size="34.5833" stroke="#000000" stroke-linecap="square" fill="none" transform="matrix(11.808,0,0,11.808,0,0)" stroke-opacity="1" font-style="normal" stroke-width="1" font-weight="400" font-family="MS Shell Dlg 2"/>
  <g font-size="34.5833" stroke="none" fill-opacity="0" fill="#000000" transform="matrix(0.999744,0,0,0.999744,0,0)" font-style="normal" font-weight="400" font-family="MS Shell Dlg 2">
   <rect y="0" height="2953" width="2953" x="0"/>
  </g>
  <g stroke-linejoin="bevel" font-size="34.5833" stroke="#000000" stroke-linecap="square" fill="none" transform="matrix(0.999744,0,0,0.999744,0,0)" stroke-opacity="1" font-style="normal" stroke-width="1" font-weight="400" font-family="MS Shell Dlg 2"/>
  <g stroke-linejoin="bevel" font-size="34.5833" stroke="#5c5c5c" fill-opacity="1" stroke-linecap="square" fill="#c5c5c5" transform="matrix(0.999744,0,0,0.999744,0,0)" stroke-opacity="1" font-style="normal" stroke-width="3.07087" font-weight="400" font-family="MS Shell Dlg 2">
   <path vector-effect="none" d="M510.42,1002.66 L531.804,966.234 L540.7,952.366 L553.187,929.806 L571.444,901.642 L574.535,896.873 L577.719,893.768 L588.683,883.072 L595.774,874.424 L602.849,867.523 L613.53,850.179 L615.499,829.228 L626.363,794.403 L632.886,775.528 L633.581,773.516 L640.836,749.131 L644.518,731.693 L651.754,709.054 L657.059,703.876 L665.847,700.494 L671.098,700.56 L678.063,704.149 L686.741,711.254 L697.115,723.629 L702.239,735.935 L713.557,750.487 L731.793,755.55 L751.136,747.057 L754.927,719.129 L744.715,691.019 L738.673,681.396 L729.219,666.336 L710.165,646.853 L691.476,592.393 L702.322,559.299 L704.013,557.176 L714.737,543.716 L732.401,528.203 L748.299,514.411 L758.855,509.299 L774.607,509.502 L792.145,506.23 L802.846,487.123 L818.744,473.333 L838.34,440.343 L854.328,417.802 L866.725,403.964 L884.391,388.443 L917.744,365.006 L928.472,357.514 L938.991,355.899 L954.734,354.561 L975.693,361.624 L991.318,374.075 L996.902,378.652 L999.996,381.187 L1012.39,396.17 L1018.87,404.008 L1019.01,404.181 L1031.15,414.836 L1045.05,425.515 L1062.55,425.741 L1080.18,413.721 L1090.9,392.862 L1096.35,373.682 L1115.42,351.129 L1130.02,333.866 L1140.74,313.002 L1170.69,294.137 L1188.36,278.612 L1191.58,275.22 L1208.14,257.797 L1211.36,254.405 L1231.52,235.948 L1239.64,228.512 L1260.91,202.528 L1283.94,176.566 L1303.63,134.801 L1312.86,113.509 L1317.98,101.718 L1316.33,91.1899 L1311.19,89.9486 L1300.62,87.4849 L1294.16,85.887 L1302.29,81.2896 L1308.65,85.8643 L1312.72,83.0059 L1325.46,81.6084 L1328.09,76.7597 L1332.44,72.1993 L1338.24,69.6451 L1345.48,69.0842 L1359.69,69.661 L1365.19,68.8101 L1371,66.2559 L1376.8,63.6872 L1382.3,62.8509 L1389.84,60.5705 L1394.76,63.1407 L1400.56,60.5865 L1403.45,64.5846 L1411.26,71.1512 L1415.88,75.4376 L1418.01,77.3977 L1418.12,77.4817 L1403,90.6035 L1397.9,96.2394 L1420.21,191.872 L1518.46,253.25 L1573.4,275.301 L1608.19,280.913 L1647.84,278.769 L1647.85,278.768 L1682.94,276.648 L1724.91,281.137 L1743.5,284.154 L1770.43,285.742 L1792.38,286.59 L1801.9,303.359 L1812.23,316.378 L1815.6,330.519 L1819.86,341.742 L1818.96,349.598 L1820.09,358.352 L1820.98,370.249 L1821.51,374.817 L1823.28,386.479 L1826.54,391.189 L1835.23,394.514 L1854.27,398.849 L1863.72,401 L1865.79,398.665 L1871.07,395.636 L1883.15,401.778 L1890.21,408.66 L1897.55,413.505 L1905.2,423.282 L1910.49,427.784 L1920.42,437.996 L1931.44,450.413 L1943.97,458.483 L1951.87,464.463 L1957.27,471.224 L1964.29,480.025 L1984.64,502.445 L1991.77,512.847 L2002.52,531.089 L2011.37,541.448 L2021.04,549.146 L2042.34,575.944 L2048.53,582.843 L2050.88,587.057 L2050.88,587.058 L2053.92,592.403 L2057.75,600.837 L2060.25,606.34 L2069.24,622.861 L2071.31,628.013 L2073.79,634.2 L2074.29,638.043 L2074.82,642.102 L2075.5,651.802 L2076.05,659.683 L2074.75,680.843 L2072.94,690.284 L2071.62,697.144 L2069.34,699.9 L2069.96,706.992 L2070.46,712.886 L2070.89,717.882 L2071.28,722.306 L2075.33,731.038 L2082.92,742.279 L2086.78,761.555 L2085.4,778.314 L2083.07,782.381 L2079.83,787.996 L2082.85,795.228 L2082.46,803.91 L2080.39,814.413 L2079.33,819.827 L2077.16,827.591 L2077.24,832.617 L2073.7,840.204 L2071.37,853.462 L2071.17,860.529 L2071.03,865.442 L2070.87,871.074 L2068.73,879.126 L2068.06,902.824 L2061.58,915.567 L2058.09,922.419 L2056.21,930.075 L2053.3,941.891 L2053.66,959.482 L2051.59,985.048 L2051,998.26 L2053.07,1014.93 L2062.4,1049.03 L2064.59,1051.27 L2062.46,1068.6 L2060.51,1082.49 L2057.33,1095.76 L2054.33,1108.55 L2050.52,1123.73 L2048.54,1131.15 L2047.02,1142.52 L2048.47,1149.89 L2047.5,1164.6 L2053.15,1187.34 L2061.14,1189.28 L2069.66,1191.34 L2077.33,1185.89 L2084.1,1178.69 L2095.6,1168.89 L2105.34,1160.6 L2119.92,1154.98 L2137.19,1153.69 L2152.71,1151.57 L2141.28,1172.89 L2136.82,1184.34 L2177.63,1243.22 L2221.21,1291.34 L2223.87,1299.76 L2222.76,1311.94 L2220.77,1328.98 L2216.54,1348.57 L2169.44,1365.58 L2166.89,1376.31 L2163.38,1386.41 L2160.4,1395.12 L2156.68,1403.63 L2156.67,1409.43 L2154.22,1415.88 L2152.93,1423.62 L2148.54,1426.19 L2146.87,1430.58 L2147,1435.48 L2147.64,1439.73 L2148.93,1443.35 L2150.35,1447.99 L2148.67,1452.24 L2144.93,1452.76 L2143.38,1455.34 L2143.04,1456.78 L2142.53,1457.6 L2140.94,1458.29 L2137.97,1458.82 L2137.49,1460.18 L2136.98,1461.88 L2135,1462.82 L2132.78,1467.97 L2130.94,1468.71 L2130.72,1470.42 L2129.07,1472.62 L2126.49,1473.91 L2121.98,1480.74 L2121.2,1482.8 L2121.98,1486.42 L2119.91,1489.62 L2108.05,1491.57 L2105.09,1495.18 L2104.44,1499.83 L2103.8,1503.69 L2100.06,1510.27 L2099.28,1516.2 L2100.44,1525.75 L2095.03,1531.16 L2093.35,1533.22 L2094.51,1538.51 L2094,1544.96 L2097.35,1553.47 L2097.58,1555.44 L2087.85,1555.65 L2080.85,1555.82 L2080.01,1558.48 L2079.39,1560.74 L2078.82,1561.89 L2078.02,1563.26 L2077.05,1564.73 L2076.07,1566.28 L2075.27,1567.65 L2074.3,1568.49 L2073.77,1569.64 L2073.46,1571.46 L2073.24,1573.49 L2072.71,1574.82 L2072.26,1576.33 L2072.97,1575.71 L2074.3,1575.22 L2078.2,1574.25 L2081.03,1573.4 L2083.82,1572.47 L2086.52,1571.9 L2091.7,1570.48 L2095.28,1569.51 L2094.51,1574.36 L2097.09,1585.19 L2097.6,1592.68 L2097.81,1595.79 L2102.51,1602.34 L2105.26,1611.95 L2112.82,1602.6 L2119.79,1600.92 L2124.3,1601.96 L2125.25,1602.86 L2129.72,1607.11 L2132.81,1614.21 L2135.65,1612.14 L2140.74,1608.68 L2145.58,1612.53 L2149.96,1617.17 L2157.7,1618.33 L2162.34,1623.36 L2166.6,1634.32 L2169.43,1641.67 L2170.21,1651.6 L2170.85,1656.89 L2173.43,1662.05 L2176.78,1665.27 L2183.49,1668.88 L2190.32,1671.33 L2196.04,1674.08 L2198.62,1680.53 L2197.2,1686.33 L2198.36,1692.26 L2201.07,1696.65 L2204.29,1700.52 L2204.29,1702.97 L2202.48,1705.16 L2198.49,1705.29 L2195.13,1706.06 L2192.43,1711.86 L2195.39,1718.18 L2202.1,1723.08 L2209.19,1729.14 L2212.03,1733.79 L2220.15,1735.59 L2223.5,1736.24 L2227.89,1736.11 L2232.14,1738.94 L2234.85,1742.17 L2236.53,1743.72 L2240.65,1742.68 L2246.59,1743.33 L2249.29,1746.68 L2253.42,1747.47 L2259.09,1748.1 L2261.8,1747.07 L2264.83,1748.27 L2267.35,1749.26 L2277.8,1752.12 L2284.04,1776.9 L2285.25,1786.01 L2289.35,1816.93 L2298.21,1842.44 L2303.52,1861.57 L2308.84,1877.87 L2311.32,1897.35 L2310.47,1902.66 L2309.55,1908.69 L2310.32,1922.1 L2317.19,1932.1 L2320.58,1939.75 L2326.55,1943.74 L2332.98,1941.74 L2338.51,1939.53 L2338.97,1936.35 L2341.83,1931.34 L2343.38,1929.57 L2346.92,1928.9 L2350.67,1932.63 L2356.22,1934.88 L2363.95,1928.91 L2370.39,1922.26 L2375.49,1919.16 L2378.37,1914.07 L2380.14,1909.64 L2384.79,1908.09 L2387.66,1909.2 L2392.76,1909.86 L2395.86,1914.29 L2399.18,1916.28 L2404.68,1918.38 L2419.62,1953.57 L2422.11,2008.63 L2424.5,2008.81 L2426.89,2008.19 L2427.96,2004.38 L2429.99,2004.02 L2432.12,2004.91 L2433.63,2005.09 L2433.71,2002.87 L2434.42,2000.04 L2436.02,1998.27 L2438.58,1997.82 L2439.29,1996.05 L2440.54,1996.03 L2441.33,1996.76 L2442.22,1998.44 L2442.66,2000.13 L2442.57,2001.54 L2444.61,2000.21 L2447.97,2000.57 L2450.86,2000.62 L2454.26,1998.09 L2456.48,1998.09 L2459.17,1995.71 L2478.32,1996.97 L2495.87,1997.87 L2511.83,1998.05 L2523.36,1998.95 L2541.98,2002.2 L2542.69,2002.24 L2549.28,2017.15 L2549.37,2017.17 L2549.68,2017.8 L2553.08,2028.2 L2556.48,2038.6 L2558.19,2043.8 L2554.67,2057.65 L2551.15,2073.22 L2551.12,2080.15 L2551.09,2087.08 L2552.74,2102.66 L2554.42,2113.06 L2556.1,2123.45 L2557.65,2161.54 L2555.89,2168.46 L2554.13,2177.12 L2552.36,2185.77 L2550.62,2190.96 L2547.12,2201.34 L2545.37,2206.52 L2541.89,2213.44 L2540.15,2216.9 L2534.92,2227.28 L2529.64,2249.77 L2529.61,2258.42 L2529.57,2265.34 L2531.27,2272.27 L2531.75,2274.09 L2536.36,2291.32 L2548.34,2312.12 L2550.04,2317.32 L2555.17,2325.98 L2556.87,2332.91 L2561.93,2357.15 L2561.92,2360.61 L2560.18,2364.07 L2554.98,2369.25 L2551.5,2374.43 L2546.3,2379.61 L2535.91,2389.97 L2528.98,2395.15 L2525.52,2396.87 L2516.87,2402.04 L2510.56,2405.18 L2506.5,2407.21 L2494.39,2414.1 L2480.57,2419.26 L2471.9,2427.89 L2454.58,2443.43 L2444.2,2450.32 L2439,2455.5 L2428.62,2462.4 L2421.7,2465.84 L2413.04,2472.74 L2410.99,2476.83 L2409.56,2479.66 L2400.88,2491.75 L2395.68,2496.93 L2383.57,2505.55 L2380.12,2505.54 L2373.19,2512.45 L2366.25,2519.35 L2363.04,2521.63 L2354.22,2528.09 L2351.26,2530.01 L2349.18,2531.57 L2343.96,2535.17 L2336.87,2540.17 L2327.92,2544.67 L2325.21,2547.69 L2321.25,2552.12 L2309.14,2559.01 L2302.23,2560.72 L2293.58,2567.62 L2284.93,2572.79 L2272.8,2583.14 L2267.59,2591.78 L2258.93,2600.41 L2245.09,2607.3 L2231.27,2612.45 L2226.07,2617.63 L2213.96,2624.52 L2200.12,2633.14 L2189.75,2636.57 L2175.93,2641.73 L2160.4,2641.69 L2153.5,2643.41 L2144.86,2645.12 L2134.5,2646.82 L2122.42,2648.52 L2096.54,2648.46 L2069.26,2643.81 L2051.71,2644.9 L2037.91,2644.87 L2031.01,2644.85 L2015.45,2650.01 L2005.11,2649.98 L1989.55,2655.13 L1980.91,2658.57 L1970.52,2667.2 L1958.39,2679.28 L1950.86,2687.81 L1945.76,2692.31 L1943.37,2702.01 L1941.93,2716.07 L1930.08,2728.63 L1923.6,2732.41 L1920.69,2734.11 L1909.53,2737.88 L1887.96,2740.14 L1869.76,2737.94 L1851.61,2738.36 L1840.51,2736.67 L1831.66,2735.33 L1810.06,2735.83 L1799.65,2734.32 L1786.67,2733.75 L1773.71,2734.06 L1760.73,2733.49 L1746.91,2733.81 L1727.89,2734.26 L1720.12,2734.44 L1697.67,2735.85 L1692.44,2734.22 L1684.65,2733.52 L1662.87,2725.27 L1647.06,2713.37 L1621.76,2702.56 L1614.85,2702.73 L1596.81,2708.41 L1579.65,2714.95 L1569.37,2719.58 L1554.76,2723.43 L1538.41,2727.32 L1523.77,2730.29 L1508.22,2730.66 L1490.94,2731.07 L1471.91,2730.64 L1458.93,2730.07 L1445.95,2729.5 L1428.66,2729.9 L1415.7,2730.21 L1402.72,2729.64 L1388.89,2729.96 L1375.9,2728.51 L1336.24,2733.83 L1324.12,2733.24 L1313.73,2732.61 L1295.49,2728.65 L1271.93,2717.81 L1270.55,2716.67 L1260.5,2708.43 L1253.4,2699.83 L1250.7,2694.64 L1249.75,2689.11 L1246.78,2671.93 L1245.86,2667.01 L1243.86,2656.22 L1240.98,2642.26 L1237.21,2627.44 L1233.43,2611.74 L1225.06,2583 L1220.38,2565.57 L1211,2529.83 L1208.91,2512.34 L1209.39,2493.91 L1209.31,2489.7 L1209.17,2483.34 L1208.82,2465.86 L1208.45,2448.32 L1207.18,2428.17 L1207.7,2411.5 L1208.24,2395.69 L1208.72,2377.26 L1210.07,2358.8 L1208.94,2345.67 L1200.33,2305.51 L1196.33,2279.28 L1195.14,2263.51 L1191.29,2244.3 L1190.29,2238.93 L1188.37,2228.57 L1183.47,2200.6 L1176.66,2187.69 L1144.18,2171.48 L1097.23,2141.24 L1083.38,2127.11 L1071.22,2118.24 L1046.82,2107.47 L1022.43,2096.69 L1003.32,2082.5 L989.502,2064.88 L977.396,2050.78 L967.959,2041.96 L966.069,2041.03 L948.308,2032.34 L930.79,2021.34 L912.391,2009.48 L895.756,1999.34 L877.375,1988.36 L862.178,1975.77 L857.319,1973.85 L829.052,1950.86 L821.112,1943.14 L813.046,1929.29 L825.885,1903.71 L837.132,1881.3 L863.848,1877.16 L881.15,1877.63 L896.722,1878.14 L910.549,1877.81 L926.583,1880.15 L940.884,1881.49 L955.629,1883.78 L971.219,1885.16 L980.706,1884.06 L994.388,1876.71 L1002.8,1865.1 L1007.8,1856.2 L1011.64,1836.71 L1013.38,1833.14 L1012.96,1813.04 L1010.86,1794.64 L1014.82,1776.98 L1020.65,1766.3 L1030.33,1753.09 L1038.29,1742.23 L1043.8,1725.46 L1061.45,1711.73 L1070.38,1694.39 L1067.94,1685.94 L1053.55,1647.03 L1032.79,1624.07 L1024.22,1606.51 L1027.95,1583.87 L1029.85,1569.93 L1031.82,1549.01 L1035.46,1535.09 L1035.64,1517.64 L1035.84,1498.44 L1036.1,1474 L1037.64,1452.84 L1037.95,1446.13 L1034.74,1418.15 L1014.1,1382.97 L993.315,1361.74 L968.975,1345.71 L964.891,1343.61 L955.046,1338.55 L934.152,1327.8 L909.723,1320.5 L878.273,1314.86 L843.396,1302.18 L824.179,1298.44 L776.978,1292.6 L745.491,1290.44 L712.327,1281.29 L670.631,1251.06 L653.276,1236.86 L646.005,1227.73 L637.766,1217.44 L625.676,1201.57 L617.143,1180.5 L612.111,1159.47 L605.328,1138.42 L596.777,1119.09 L586.492,1097.99 L576.155,1082.13 L562.188,1066.18 L551.851,1062.6 L530.94,1053.59 L510.006,1042.82 L506.521,1041.05 L502.78,1032.59 L497.971,1021.72 L510.42,1002.66" fill-rule="evenodd"/>
  </g>
  <g stroke-linejoin="bevel" font-size="34.5833" stroke="#000000" stroke-linecap="square" fill="none" transform="matrix(0.999744,0,0,0.999744,0,0)" stroke-opacity="1" font-style="normal" stroke-width="1" font-weight="400" font-family="MS Shell Dlg 2"/>
  <g stroke-linejoin="bevel" font-size="34.5833" stroke="#000000" stroke-linecap="square" fill="none" transform="matrix(11.808,0,0,11.808,0,0)" stroke-opacity="1" font-style="normal" stroke-width="1" font-weight="400" font-family="MS Shell Dlg 2"/>
  <g stroke-linejoin="bevel" font-size="34.5833" stroke="#000000" stroke-linecap="square" fill="none" transform="matrix(11.808,0,0,11.808,0,0)" stroke-opacity="1" font-style="normal" stroke-width="1" font-weight="400" font-family="MS Shell Dlg 2"/>
  <g stroke-linejoin="bevel" font-size="34.5833" stroke="#000000" stroke-linecap="square" fill="none" transform="matrix(11.808,0,0,11.808,0,0)" stroke-opacity="1" font-style="normal" stroke-width="1" font-weight="400" font-family="MS Shell Dlg 2"/>
  <g stroke-linejoin="bevel" font-size="34.5833" stroke="#000000" stroke-linecap="square" fill="none" transform="matrix(1,0,0,1,0,0)" stroke-opacity="1" font-style="normal" stroke-width="1" font-weight="400" font-family="MS Shell Dlg 2"/>
  <g stroke-linejoin="bevel" font-size="34.5833" stroke="#000000" stroke-linecap="square" fill="none" transform="matrix(11.808,0,0,11.808,0,0)" stroke-opacity="1" font-style="normal" stroke-width="1" font-weight="400" font-family="MS Shell Dlg 2"/>
  <g stroke-linejoin="bevel" font-size="34.5833" stroke="#000000" stroke-linecap="square" fill="none" transform="matrix(11.808,0,0,11.808,0,0)" stroke-opacity="1" font-style="normal" stroke-width="1" font-weight="400" font-family="MS Shell Dlg 2"/>
  <g stroke-linejoin="bevel" font-size="34.5833" stroke="#000000" stroke-linecap="square" fill="none" transform="matrix(11.808,0,0,11.808,0,0)" stroke-opacity="1" font-style="normal" stroke-width="1" font-weight="400" font-family="MS Shell Dlg 2"/>
  <g stroke-linejoin="bevel" font-size="34.5833" stroke="#000000" stroke-linecap="square" fill="none" transform="matrix(11.808,0,0,11.808,0,0)" stroke-opacity="1" font-style="normal" stroke-width="1" font-weight="400" font-family="MS Shell Dlg 2"/>
  <g stroke-linejoin="bevel" font-size="34.5833" stroke="#000000" stroke-linecap="square" fill="none" transform="matrix(1,0,0,1,0,0)" stroke-opacity="1" font-style="normal" stroke-width="1" font-weight="400" font-family="MS Shell Dlg 2"/>
 </g>
</svg>
