<?xml version='1.0' encoding='UTF-8' standalone='no'?>
<svg xmlns:xlink="http://www.w3.org/1999/xlink" baseProfile="tiny" version="1.2" viewBox="0 0 2952 2952" height="249.936mm" width="249.936mm" xmlns="http://www.w3.org/2000/svg">
 <title>Qt SVG Document</title>
 <desc>Generated with Qt</desc>
 <defs/>
 <g stroke-linejoin="bevel" stroke="black" stroke-linecap="square" fill="none" stroke-width="1" fill-rule="evenodd">
  <g stroke-linejoin="bevel" font-size="34.5833" stroke="#000000" stroke-linecap="square" fill="none" transform="matrix(1,0,0,1,0,0)" stroke-opacity="1" font-style="normal" stroke-width="1" font-weight="400" font-family="MS Shell Dlg 2"/>
  <g stroke-linejoin="bevel" font-size="34.5833" stroke="#000000" stroke-linecap="square" fill="none" transform="matrix(1,0,0,1,0,0)" stroke-opacity="1" font-style="normal" stroke-width="1" font-weight="400" font-family="MS Shell Dlg 2"/>
  <g stroke-linejoin="bevel" font-size="34.5833" stroke="#000000" stroke-linecap="square" fill="none" transform="matrix(11.808,0,0,11.808,0,0)" stroke-opacity="1" font-style="normal" stroke-width="1" font-weight="400" font-family="MS Shell Dlg 2"/>
  <g stroke-linejoin="bevel" font-size="34.5833" stroke="#000000" stroke-linecap="square" fill="none" transform="matrix(0.999744,0,0,0.999744,0,0)" stroke-opacity="1" font-style="normal" stroke-width="1" font-weight="400" font-family="MS Shell Dlg 2"/>
  <g font-size="34.5833" stroke="none" fill-opacity="0" fill="#ffffff" transform="matrix(0.999744,0,0,0.999744,0,0)" font-style="normal" font-weight="400" font-family="MS Shell Dlg 2">
   <path vector-effect="none" d="M-2,-2 L2955,-2 L2955,2955 L-2,2955 L-2,-2" fill-rule="evenodd"/>
  </g>
  <g stroke-linejoin="bevel" font-size="34.5833" stroke="#000000" stroke-linecap="square" fill="none" transform="matrix(0.999744,0,0,0.999744,0,0)" stroke-opacity="1" font-style="normal" stroke-width="1" font-weight="400" font-family="MS Shell Dlg 2"/>
  <g stroke-linejoin="bevel" font-size="34.5833" stroke="#000000" stroke-linecap="square" fill="none" transform="matrix(11.808,0,0,11.808,0,0)" stroke-opacity="1" font-style="normal" stroke-width="1" font-weight="400" font-family="MS Shell Dlg 2"/>
  <g stroke-linejoin="bevel" font-size="34.5833" stroke="#000000" stroke-linecap="square" fill="none" transform="matrix(11.808,0,0,11.808,0,0)" stroke-opacity="1" font-style="normal" stroke-width="1" font-weight="400" font-family="MS Shell Dlg 2"/>
  <g stroke-linejoin="bevel" font-size="34.5833" stroke="#000000" stroke-linecap="square" fill="none" transform="matrix(11.808,0,0,11.808,0,0)" stroke-opacity="1" font-style="normal" stroke-width="1" font-weight="400" font-family="MS Shell Dlg 2"/>
  <g stroke-linejoin="bevel" font-size="34.5833" stroke="#000000" stroke-linecap="square" fill="none" transform="matrix(11.808,0,0,11.808,0,0)" stroke-opacity="1" font-style="normal" stroke-width="1" font-weight="400" font-family="MS Shell Dlg 2"/>
  <g stroke-linejoin="bevel" font-size="34.5833" stroke="#000000" stroke-linecap="square" fill="none" transform="matrix(11.808,0,0,11.808,0,0)" stroke-opacity="1" font-style="normal" stroke-width="1" font-weight="400" font-family="MS Shell Dlg 2"/>
  <g font-size="34.5833" stroke="none" fill-opacity="0" fill="#ffffff" transform="matrix(11.808,0,0,11.808,0,0)" font-style="normal" font-weight="400" font-family="MS Shell Dlg 2">
   <path vector-effect="none" d="M0,0 L250,0 L250,250 L0,250 L0,0" fill-rule="evenodd"/>
  </g>
  <g stroke-linejoin="bevel" font-size="34.5833" stroke="#000000" stroke-linecap="square" fill="none" transform="matrix(11.808,0,0,11.808,0,0)" stroke-opacity="1" font-style="normal" stroke-width="1" font-weight="400" font-family="MS Shell Dlg 2"/>
  <g stroke-linejoin="bevel" font-size="34.5833" stroke="#000000" stroke-linecap="square" fill="none" transform="matrix(11.808,0,0,11.808,0,0)" stroke-opacity="1" font-style="normal" stroke-width="1" font-weight="400" font-family="MS Shell Dlg 2"/>
  <g font-size="34.5833" stroke="none" fill-opacity="0" fill="#000000" transform="matrix(0.999744,0,0,0.999744,0,0)" font-style="normal" font-weight="400" font-family="MS Shell Dlg 2">
   <rect y="0" height="2953" width="2953" x="0"/>
  </g>
  <g stroke-linejoin="bevel" font-size="34.5833" stroke="#000000" stroke-linecap="square" fill="none" transform="matrix(0.999744,0,0,0.999744,0,0)" stroke-opacity="1" font-style="normal" stroke-width="1" font-weight="400" font-family="MS Shell Dlg 2"/>
  <g stroke-linejoin="bevel" font-size="34.5833" stroke="#5c5c5c" fill-opacity="1" stroke-linecap="square" fill="#c5c5c5" transform="matrix(0.999744,0,0,0.999744,0,0)" stroke-opacity="1" font-style="normal" stroke-width="3.07087" font-weight="400" font-family="MS Shell Dlg 2">
   <path vector-effect="none" d="M58.7375,1234.28 L59.1662,1233.05 L60.2839,1230.25 L61.6599,1226.91 L64.5232,1219.2 L66.6413,1213.54 L68.2172,1209.5 L70.3944,1203.84 L71.9969,1199.43 L72.8556,1197.12 L74.4308,1192.94 L76.0908,1188.3 L77.2358,1185.17 L78.6951,1181.05 L70.4624,1161.8 L73.0877,1160.75 L75.1931,1159.72 L77.7419,1158.28 L79.9285,1156.89 L82.5071,1154.83 L83.5994,1153.71 L84.106,1152.97 L84.4384,1152.24 L84.6047,1151.42 L84.5889,1150.54 L84.3454,1148.88 L83.8827,1146.43 L83.5158,1143.71 L82.9517,1140.41 L82.5029,1137.52 L82.143,1136.31 L81.7653,1135.25 L81.3039,1134.24 L80.7498,1133.24 L80.077,1132.33 L79.4042,1131.56 L77.4547,1130 L82.5308,1126.54 L85.1983,1123.92 L89.2476,1121.42 L94.1158,1119.31 L96.6341,1117.85 L100.117,1115.72 L118.489,1104.57 L123.517,1102.65 L124.355,1102.12 L128.868,1098.81 L133.255,1095.7 L137.432,1092.97 L139.038,1093.71 L144.411,1096.48 L148.062,1098.41 L152.998,1101.07 L158.402,1103.98 L165.733,1107.96 L170.551,1110.65 L174.875,1113.09 L177.709,1114.74 L180.251,1116.3 L183.815,1118.43 L186.124,1119.85 L191.596,1122.86 L193.838,1124.11 L195.077,1124.79 L196.411,1125.53 L196.442,1125.55 L196.645,1125.66 L197.173,1125.96 L197.467,1126.12 L199.531,1127.2 L201.073,1128.01 L201.677,1128.33 L201.954,1128.49 L206.463,1131.26 L210.011,1132.98 L212.301,1133.51 L214.479,1132.49 L214.59,1132.44 L219.74,1126.42 L224.942,1114.7 L226.493,1108.26 L227.295,1101.38 L227.066,1093.22 L225.463,1083.01 L226.15,1078.28 L226.312,1061.42 L227.487,1053.55 L227.93,1052.74 L228.564,1052.14 L230.265,1051.47 L234.715,1044.8 L238.164,1034.27 L238.838,1031.68 L239.234,1029.61 L240.326,1020.92 L246.5,1016.45 L249.958,1010.29 L250.559,1008.91 L253.481,1004.05 L254.697,1001.51 L255.597,998.418 L256.16,996.057 L256.723,993.317 L256.592,990.91 L256.425,988.922 L256.252,987.28 L254.238,978.819 L253.891,976.569 L253.768,974.168 L253.609,972.067 L253.487,970.003 L253.286,966.965 L253.081,963.063 L252.879,959.798 L252.601,956.159 L252.67,955.108 L252.436,952.857 L252.017,951.17 L252.046,949.444 L251.813,947.456 L251.772,946.592 L251.43,937.586 L251.243,934.669 L251.228,934.433 L251.14,931.581 L250.979,929.217 L250.509,924.602 L249.889,919.764 L249.39,916.951 L248.672,914.928 L247.504,912.945 L246.452,911.413 L245.212,909.693 L244.122,908.086 L242.172,906.221 L240.335,904.467 L238.723,903.088 L236.927,902.198 L234.195,900.826 L231.352,899.642 L229.893,898.937 L227.542,898.989 L224.704,898.894 L222.875,898.831 L219.366,898.852 L218.018,897.922 L216.479,896.204 L215.094,895.35 L214.456,894.677 L213.454,893.197 L212.989,892.51 L212.161,891.088 L211.222,889.854 L210.171,888.66 L208.859,887.692 L208.483,886.981 L208.063,885.219 L207.379,882.858 L206.693,880.009 L207.206,878.129 L208.235,876.495 L207.205,873.058 L205.859,868.631 L203.965,862.658 L202.409,857.608 L201.041,853.203 L199.633,848.39 L198.182,843.533 L195.06,839.788 L190.132,833.953 L186.309,829.325 L183.376,826.138 L183.14,821.694 L182.885,814.244 L182.14,813.262 L188.559,806.479 L187.895,790.56 L191.493,778.054 L195.785,763.332 L200.006,749.135 L259.216,743.191 L264.815,743.584 L302.614,746.239 L308.089,746.623 L336.4,714.492 L364.698,677.748 L366.483,675.431 L368.504,675.319 L421.402,672.178 L429.378,670.794 L442.384,669.241 L445.03,668.925 L446.676,668.97 L447.282,668.987 L448.431,669.019 L463.558,669.435 L468.658,669.576 L491.947,670.169 L494.202,670.226 L501.271,667.28 L529.094,666.059 L538.16,674.658 L547.205,683.238 L559.977,699.502 L565.086,702.103 L575.942,698.851 L583.605,703.405 L583.216,706.477 L581.051,723.57 L580.456,735.077 L580.412,735.927 L583.401,742.016 L583.605,742.431 L583.909,742.538 L594.848,746.395 L600.209,748.285 L606.594,752.837 L622.56,752.187 L624.526,755.191 L633.443,756.223 L644.574,763.591 L650.406,763.591 L651.253,763.591 L651.701,763.686 L664.61,766.425 L669.908,766.983 L674.961,767.515 L680.751,768.125 L685.411,767.109 L696.334,764.725 L701.379,764.382 L713.031,763.591 L715.841,762.551 L716.105,762.453 L719.153,761.324 L721.146,760.573 L725.7,758.855 L734.18,755.656 L757.555,751.689 L769.243,748.855 L778.95,752.15 L779.261,752.255 L790.392,757.357 L804.306,759.057 L812.327,756.047 L814.881,755.089 L833.247,752.255 L838.256,745.454 L840.482,742.62 L847.718,732.417 L855.509,722.212 L861.631,720.512 L874.989,723.913 L877.815,727.571 L879.441,729.582 L883.166,738.433 L883.018,743.959 L883.719,749.36 L895.011,762.931 L897.168,766.243 L899.581,771.158 L900.834,774.821 L904.029,778.366 L905.508,783.343 L905.172,788.643 L902.228,797.58 L895.808,821.576 L903.789,823.913 L902.26,827.062 L900.079,846.236 L898.364,861.057 L893.957,876.963 L892.242,883.151 L887.877,909.305 L887.06,918.859 L885.563,938.659 L882.574,948.22 L879.441,957.348 L858.849,973.203 L843.348,986.099 L839.816,989.046 L835.407,992.716 L834.36,993.588 L832.217,995.457 L820.449,1012.95 L810.842,1016.76 L803.65,1018.99 L774.809,1026.43 L758.668,1032.65 L747.281,1037.8 L738.784,1051.16 L729.205,1086.88 L724.885,1122 L724.735,1123.24 L729.844,1162.84 L727.928,1183.62 L727.289,1192.71 L733.037,1203.74 L753.472,1215.42 L770.714,1223.86 L784.124,1238.14 L788.595,1246.58 L788.595,1253.7 L788.595,1254.68 L790.539,1254.66 L789.618,1271.98 L779.67,1290.18 L778.102,1293.04 L760.138,1331.88 L759.722,1353.45 L759.678,1355.75 L761.26,1361.21 L761.981,1363.7 L767.65,1364.01 L786.747,1363.45 L791.773,1363.3 L842.136,1361.84 L857.291,1356.58 L857.597,1356.48 L859.563,1355.79 L862.535,1354.76 L863.063,1354.58 L863.901,1354.29 L868.273,1354.12 L871.018,1354.01 L873.993,1353.9 L878.045,1353.74 L879.019,1353.7 L879.948,1353.66 L884.73,1350.83 L887.354,1349.27 L895.377,1340.5 L896.92,1317.93 L891.365,1309.77 L882.108,1304.13 L871.616,1290.96 L866.061,1280.3 L865.993,1279.71 L864.827,1269.64 L870.382,1266.51 L875.855,1263.72 L885.129,1259.01 L885.194,1258.98 L891.365,1249.57 L888.897,1234.52 L888.897,1221.07 L888.897,1218.84 L890.019,1215.99 L891.365,1212.57 L896.92,1206.29 L910.498,1203.16 L923.458,1210.06 L927.105,1211.44 L938.205,1233.43 L1013.95,1275.44 L1069.28,1225.21 L1072.09,1146.97 L1058.61,1109.56 L1056.53,1108.37 L1056.43,1108.31 L1039.54,1098.59 L1017.16,1094.82 L1017.16,1094.76 L1017.16,1094.72 L1010.99,1094.44 L1000.6,1093.98 L994.433,1080.17 L985.484,1073.27 L980.547,1067.62 L977.824,1063.31 L974.992,1058.83 L974.992,1048.08 L974.992,1047.53 L975.282,1041.93 L975.609,1035.6 L977.461,1019.91 L981.781,1011.75 L981.704,1011.28 L979.902,1000.28 L979.555,998.159 L978.695,992.912 L971.906,986.005 L962.649,979.098 L958.329,967.168 L963.266,949.585 L964.959,947.862 L965.061,947.758 L970.055,942.677 L971.906,933.256 L966.352,919.439 L968.203,915.671 L971.906,910.646 L975.372,910.39 L978.605,908.349 L981.616,907.909 L983.202,908.393 L986.021,910.111 L989.179,909.583 L991.191,910.141 L992.688,913.328 L994.421,914.826 L996.213,915.119 L997.002,914.951 L998.365,913.936 L1002.39,910.203 L1006.08,908.604 L1009.34,908.646 L1010.55,909.321 L1013.04,912.052 L1014.69,912.748 L1017.78,912.623 L1020.26,912.026 L1021.15,912.15 L1023.2,912.799 L1025.13,912.54 L1026.12,911.995 L1027.16,910.593 L1028.64,910.115 L1030.94,910.203 L1031.77,910.588 L1031.99,910.946 L1032.83,912.176 L1033.65,915.282 L1035.62,917.793 L1037.93,919.754 L1040.67,921.442 L1041.8,921.758 L1046.01,922.426 L1050.06,922.39 L1051.97,921.575 L1053.31,920.304 L1054.23,918.638 L1054.91,918.483 L1055.81,918.718 L1056.83,919.229 L1058.35,920.668 L1058.68,921.45 L1058.52,922.136 L1058.66,922.727 L1059.25,923.102 L1060.16,923.278 L1062.46,923.021 L1065.55,922.239 L1068.65,922.015 L1069.92,921.556 L1071.34,920.675 L1072.32,919.456 L1072.74,918.329 L1072.81,917.558 L1072.63,914.522 L1072.85,913.391 L1075.57,909.566 L1077.16,908.846 L1079.54,908.479 L1082.82,908.567 L1087.47,907.37 L1089.87,905.946 L1092.22,905.527 L1092.94,905.042 L1093.41,904.057 L1093.42,902.812 L1093.74,902.331 L1095.19,901.285 L1098,899.879 L1099.97,901.193 L1101.04,900.76 L1103.47,898.377 L1104.22,898.359 L1104.77,898.543 L1105.17,899.475 L1105.46,899.556 L1106.2,899.163 L1106.67,898.822 L1108.24,898.175 L1109.41,898.01 L1110.64,897.476 L1112,897.364 L1114.43,897.819 L1115.36,897.489 L1116.74,896.758 L1117.49,895.896 L1118.21,894.776 L1118.57,893.267 L1118.46,889.913 L1118.06,887.886 L1118.38,886.631 L1119.39,884.978 L1121.02,884.178 L1123.08,881.931 L1126.04,878.017 L1127.46,876.666 L1128.46,876.13 L1129.56,876.351 L1132.06,877.716 L1134.8,880.235 L1136.55,882.357 L1138.65,883.627 L1142.49,884.736 L1143.65,885.838 L1144.19,885.815 L1145.23,885.272 L1146.42,886.153 L1146.92,886.212 L1147.8,885.705 L1148.63,884.751 L1149.41,884.508 L1150.6,884.842 L1151.01,884.798 L1151.7,884.491 L1153.49,884.574 L1154.07,884.259 L1154.87,883.014 L1155.15,881.366 L1155.7,879.776 L1156.71,879.188 L1158.77,878.906 L1162.66,878.756 L1165.59,878.156 L1167.28,878.039 L1167.69,877.642 L1168.42,875.932 L1169.13,875.245 L1169.82,873.85 L1169.81,873.222 L1170.52,871.416 L1170.84,869.991 L1171.25,869.576 L1171.81,869.481 L1172.3,869.705 L1172.92,870.285 L1173.45,871.016 L1173.79,871.148 L1174.17,870.927 L1174.72,869.756 L1175.05,869.52 L1175.61,869.414 L1175.89,869.185 L1176.44,868.508 L1177.46,867.716 L1178.13,867.516 L1178.42,867.508 L1179.21,867.835 L1179.8,867.887 L1180.7,867.791 L1181.05,867.944 L1181.84,867.773 L1182.56,867.846 L1183.09,867.468 L1183.4,867.376 L1184.21,859.764 L1187.92,849.712 L1189.15,842.173 L1182.36,832.748 L1180.15,831.444 L1170.64,825.836 L1152.12,823.323 L1143.48,820.181 L1137.31,812.012 L1131.63,798.525 L1129.9,794.417 L1128.05,784.991 L1127.46,771.66 L1127.44,771.249 L1127.43,771.164 L1127.6,770.992 L1127.73,770.864 L1134.22,764.25 L1149.03,760.479 L1164.46,752.309 L1169.4,743.509 L1168.78,725.908 L1158.91,696.361 L1155.86,682.4 L1155.21,679.386 L1142.86,657.378 L1138.73,649.702 L1135.13,649.702 L1128.94,650.752 L1124.31,648.127 L1118.83,649.113 L1115.55,649.702 L1105.76,648.127 L1102.16,642.879 L1102.67,636.056 L1093.92,628.182 L1088.25,628.182 L1079.49,626.607 L1070.22,626.607 L1060.43,625.557 L1055.66,625.952 L1041.37,627.132 L1033.65,622.933 L1027.13,621.647 L1017.68,619.784 L1007.89,613.484 L1005.96,611.02 L998.37,607.154 L990.451,603.119 L974.326,598.869 L971.833,601.41 L963.076,602.985 L962.237,602.686 L957.902,601.14 L953.807,599.679 L952.773,599.31 L951.619,597.252 L950.713,595.635 L948.479,593.643 L946.592,591.96 L946.018,589.915 L942.883,588.686 L938.72,587.054 L935.584,585.825 L929.928,581.213 L921.444,577.755 L919.573,575.521 L917.894,573.517 L917.326,561.395 L911.549,546.174 L903.872,533.904 L891.328,522.509 L889.929,516.874 L914.139,501.118 L916.182,499.903 L926.502,493.765 L931.653,485.887 L935.259,481.159 L935.259,475.381 L934.744,466.976 L937.32,461.198 L936.066,458.642 L948.62,453.9 L958.994,449.744 L965.212,447.252 L975.879,440.001 L980.619,436.374 L988.915,435.165 L997.211,430.33 L1009.06,424.891 L1013.8,423.078 L1020.32,417.034 L1028.03,409.781 L1031.78,409.175 L1039.28,407.967 L1048.17,409.781 L1052.32,414.616 L1057.06,420.056 L1060.02,422.473 L1066.54,420.056 L1070.1,414.616 L1070.82,413.881 L1073.65,410.989 L1078.39,410.989 L1083.73,416.429 L1087.28,423.078 L1088.47,427.308 L1088.47,433.352 L1092.02,441.209 L1094.99,448.461 L1097.36,459.943 L1100.32,469.612 L1102.1,473.237 L1106.08,474.993 L1109.21,476.258 L1115.13,478.676 L1115.87,480.931 L1116.32,482.301 L1116.42,482.833 L1116.91,485.322 L1115.13,488.343 L1113.36,491.364 L1112.76,494.989 L1117.5,499.219 L1121.06,499.823 L1121.59,499.526 L1127.58,496.198 L1132.91,492.572 L1133.71,490.534 L1134.1,489.551 L1138.84,485.322 L1138.93,485.275 L1142.39,483.509 L1147.13,483.509 L1151.87,485.322 L1154.84,491.364 L1155.06,492.139 L1156.06,495.54 L1156.61,497.406 L1156.39,498.312 L1155.98,500.008 L1155.93,500.196 L1155.85,500.515 L1155.51,501.903 L1155.25,502.987 L1154.84,504.656 L1154.4,505.222 L1153.92,505.855 L1150.69,510.094 L1147.72,514.927 L1144.76,517.344 L1144.76,523.989 L1144.76,530.03 L1146.63,532.7 L1147.18,533.483 L1147.72,534.258 L1149.43,534.549 L1149.89,534.627 L1151.28,534.863 L1152.19,534.086 L1154.76,531.903 L1154.84,531.843 L1157.8,525.801 L1158.7,523.359 L1159.58,520.968 L1161.35,517.948 L1161.35,510.094 L1224.04,520.262 L1224.14,520.296 L1225.28,520.454 L1226.99,520.732 L1228.28,520.827 L1228.51,520.844 L1228.93,520.872 L1229.21,520.889 L1280.93,524.659 L1281.06,524.669 L1286.11,511.591 L1287.38,508.277 L1293.21,495.33 L1296.87,481.625 L1298.54,475.55 L1302.05,468.255 L1306.96,461.802 L1314.53,453.806 L1322.39,443.705 L1328.14,439.356 L1335.58,435.569 L1339.88,429.097 L1341.88,412.152 L1343.27,412.198 L1352.15,415.778 L1354.53,420.66 L1356.9,427.308 L1356.9,432.748 L1357.5,438.187 L1358.68,442.417 L1362.83,451.483 L1365.2,459.943 L1367.57,465.986 L1369.35,480.488 L1369.35,484.718 L1369.35,494.385 L1371.72,501.031 L1373.5,504.656 L1373.04,507.543 L1372.9,513.718 L1372.9,517.948 L1380.61,534.258 L1384.75,544.528 L1387.83,555.808 L1391.41,568.926 L1391.52,568.991 L1393.04,574.622 L1395.53,583.907 L1397.22,597.487 L1392.44,614.809 L1391.32,618.902 L1396.02,635.88 L1397.31,640.569 L1396.34,652.895 L1396.15,655.269 L1395.74,660.544 L1396.61,661.865 L1404.38,673.636 L1404.83,674.246 L1405.72,675.605 L1412.14,685.399 L1423.26,699.694 L1426.18,703.295 L1427.66,705.129 L1434.44,713.503 L1442.83,721.446 L1446.97,723.861 L1452.31,723.257 L1457.64,721.446 L1471.86,719.636 L1488.45,717.221 L1496.75,717.221 L1502.68,717.825 L1506.55,717.536 L1533.53,715.184 L1535.14,715.043 L1535.9,714.977 L1543.56,715.41 L1558.38,714.807 L1567.86,717.221 L1578.53,717.221 L1593.34,713.6 L1598.67,708.771 L1610.52,706.96 L1618.82,702.131 L1621.43,700.473 L1622.09,700.052 L1628.3,696.095 L1639.92,692.713 L1640.75,692.472 L1655.45,686.137 L1656.15,685.832 L1665.63,675.57 L1669.66,671.154 L1673.34,667.118 L1678.6,664.725 L1684,662.288 L1695.86,655.647 L1702.97,655.043 L1703.26,654.886 L1704.45,654.247 L1707.2,652.774 L1709.1,651.752 L1711.34,650.552 L1714.22,649.006 L1719.19,647.449 L1719.78,647.264 L1721.93,646.59 L1732,645.987 L1745.63,645.383 L1754.52,644.175 L1768.15,641.76 L1781.19,639.949 L1788.3,635.722 L1791.94,631.484 L1792.44,630.892 L1793.05,629.999 L1793.22,629.738 L1795.74,626.009 L1798.96,621.231 L1801.45,618.483 L1802.16,617.702 L1803.01,616.759 L1806.07,613.38 L1810.81,608.549 L1816.31,601.23 L1817.14,600.113 L1817.52,599.618 L1818.52,598.283 L1821.56,594.146 L1826.52,587.415 L1827.41,586.204 L1835.7,580.165 L1841.63,578.956 L1846.96,580.769 L1851.11,581.976 L1858.26,584.968 L1860.52,589.944 L1862.39,594.066 L1862.4,594.141 L1862.49,594.354 L1865.92,603.114 L1865.92,612.759 L1865.93,612.788 L1868.24,621.058 L1869.47,625.493 L1870.65,632.109 L1875.96,638.725 L1879.56,645.551 L1880.76,647.821 L1885.48,656.25 L1894.33,664.734 L1902.67,669.545 L1916.29,679.192 L1920.76,681.033 L1925.17,682.848 L1930.25,686.984 L1930.37,687.083 L1930.47,687.167 L1931.08,687.659 L1931.38,688.015 L1932.14,688.893 L1934.69,691.868 L1943.54,704.569 L1945.9,709.98 L1950.04,715.992 L1954.22,720.851 L1954.24,720.876 L1956.01,726.287 L1957.19,734.102 L1958.96,741.363 L1964.29,744.381 L1965.48,751.019 L1964.88,757.054 L1964.88,761.882 L1967.25,770.934 L1967.85,777.572 L1967.85,784.209 L1966.66,787.226 L1965.53,789.3 L1964.58,791.049 L1963.7,792.657 L1962.51,794.446 L1962.5,794.45 L1960.56,797.368 L1957.18,799.294 L1952.44,799.294 L1950.48,799.543 L1947.7,799.898 L1942.72,802.435 L1937.03,805.327 L1934.07,810.757 L1935.85,812.568 L1939.4,813.774 L1942.63,817.603 L1943.25,820.921 L1941.77,822.824 L1938.81,825.237 L1935.85,828.254 L1931.7,828.857 L1926.37,828.857 L1926.35,828.925 L1926.2,829.709 L1925.91,831.158 L1925.78,831.84 L1925.77,831.873 L1927.04,834.129 L1928.14,836.096 L1928.14,838.123 L1928.14,841.526 L1926.37,845.748 L1925.46,848.202 L1924.59,850.574 L1923.02,854.201 L1922.46,855.402 L1921.63,857.21 L1919.85,860.829 L1921.56,864.317 L1922.22,865.655 L1922.64,866.021 L1925.07,868.139 L1926.37,869.273 L1927.04,874.27 L1927.55,878.321 L1928.37,880.401 L1929.92,884.352 L1927.86,887.148 L1927.36,887.831 L1926.37,889.178 L1925.6,891.78 L1925.6,891.781 L1924.59,895.209 L1922.81,900.033 L1920.35,901.464 L1919.76,901.807 L1919.21,902.129 L1919.21,902.13 L1918.66,902.446 L1916.26,905.198 L1914.27,907.472 L1913.92,907.874 L1913.92,913.904 L1915.24,914.707 L1916.88,915.714 L1923.4,914.507 L1928.74,917.522 L1928.9,917.912 L1930.51,921.744 L1934.07,925.965 L1941.23,928.742 L1941.36,928.793 L1941.36,928.793 L1943.46,929.605 L1944.08,929.847 L1946.51,930.789 L1946.99,933.198 L1947.27,934.628 L1947.45,935.533 L1947.7,936.819 L1947.39,937.61 L1947.36,937.688 L1945.33,942.849 L1944.74,943.544 L1944.68,943.637 L1944.63,943.688 L1944.03,944.387 L1941.77,947.07 L1938.81,951.894 L1938.49,954.489 L1938.22,956.717 L1937.77,958.788 L1937.36,960.636 L1937.03,962.144 L1936.27,964.999 L1935.81,966.694 L1935.25,968.776 L1932.34,974.708 L1929.92,979.628 L1929.64,982.173 L1929.33,985.054 L1930.94,989.42 L1931.11,989.877 L1940.59,994.097 L1941.59,1002.25 L1941.77,1003.74 L1940.59,1012.18 L1937.63,1017.61 L1936.64,1021.26 L1935.85,1024.24 L1935.22,1024.63 L1931.11,1027.25 L1929.23,1027.89 L1925.77,1029.06 L1925.52,1029.08 L1924.8,1029.15 L1924.8,1029.15 L1919.26,1029.66 L1915.11,1029.66 L1913.33,1035.69 L1913.66,1042.07 L1913.66,1042.07 L1913.79,1044.67 L1913.92,1047.14 L1910.37,1052.57 L1913.33,1078.48 L1912.74,1082.7 L1916.42,1083.8 L1917.71,1086.14 L1920.44,1091.14 L1923.1,1095.19 L1924,1096.56 L1926.63,1095.67 L1929.73,1094.61 L1932.88,1093.55 L1942.24,1091.54 L1944.14,1091.14 L1950.07,1095.35 L1954.06,1099.04 L1955.26,1100.15 L1956.59,1101.38 L1957.44,1106.89 L1957.72,1108.7 L1958.37,1112.83 L1959.05,1118.06 L1959.55,1121.87 L1960.22,1131.73 L1961.07,1133.81 L1961.65,1135.22 L1961.65,1135.22 L1963.11,1138.74 L1967.47,1145.91 L1970.81,1151.39 L1980.06,1151.48 L1984.28,1152.12 L1992.28,1153.34 L2001.06,1154.01 L2007.61,1147.68 L2016.94,1140.01 L2023.25,1132.62 L2023.39,1132.46 L2030.66,1123.07 L2031.43,1119.93 L2031.8,1118.45 L2031.86,1118.17 L2032.59,1115.22 L2033.03,1113.43 L2033.24,1112.28 L2034.21,1106.8 L2039.69,1098.2 L2040.73,1096.56 L2048.6,1094.22 L2051.56,1093.35 L2054.95,1092.34 L2057.17,1091.21 L2064.73,1087.37 L2066.81,1086.31 L2068.12,1083.25 L2070.49,1077.69 L2072.73,1072.45 L2076.63,1069.15 L2077.47,1068.46 L2080.02,1066.27 L2086.95,1060.4 L2100.77,1051.71 L2116.03,1042.12 L2119.54,1039.91 L2122.77,1036.23 L2124.5,1034.26 L2132.76,1024.86 L2134.36,1023.03 L2134.94,1021.42 L2135.18,1020.74 L2136.13,1018.07 L2136.91,1015.9 L2137.82,1013.36 L2139.1,1009.77 L2142.91,1009.05 L2155.1,1006.76 L2156.73,1005.09 L2161.62,1000.13 L2163.17,999.178 L2166.14,997.363 L2170.51,994.7 L2178.8,992.892 L2188.55,991.558 L2192.69,988.892 L2197.53,986.017 L2202.09,984.333 L2205.46,982.65 L2208.7,979.806 L2212.87,979.212 L2216.94,980.764 L2220.28,982.04 L2222.18,983.113 L2225.62,985.054 L2228.91,988.409 L2233.32,992.892 L2231.31,1001.08 L2230.95,1002.54 L2231.35,1009.53 L2233.91,1015.8 L2239.24,1024.24 L2239.6,1024.6 L2241.04,1026.06 L2245.17,1030.26 L2251.69,1030.26 L2253.48,1030.01 L2256.8,1028.97 L2260.58,1026.05 L2264.51,1024.05 L2266.62,1022.97 L2270.06,1021.22 L2272.8,1017.19 L2275.39,1013.39 L2276.78,1011.77 L2279.54,1008.57 L2287,1006.29 L2291.39,1004.95 L2293.8,1004.07 L2297.15,1002.86 L2299.69,1001.93 L2302.55,1001.01 L2306.98,999.589 L2311.7,998.07 L2316.12,996.642 L2323.92,994.076 L2328.51,994.547 L2339.78,995.703 L2341.75,995.997 L2346.58,996.753 L2348.87,997.111 L2351.16,996.866 L2352.77,996.693 L2360.11,995.908 L2360.13,995.906 L2363.33,997.385 L2370.23,998.499 L2382.05,997.111 L2383.26,995.53 L2384.59,993.794 L2386.07,991.86 L2386.08,991.844 L2383.83,984.745 L2382.65,982.642 L2382.58,982.379 L2380.87,975.871 L2377.31,970.553 L2373.42,963.536 L2374.06,961.525 L2375.2,957.99 L2377.56,956.489 L2379.79,954.544 L2384.44,952.4 L2386.3,952.688 L2388.62,952.924 L2394.2,953.49 L2396.01,953.674 L2399.9,954.138 L2405.53,954.811 L2406.35,954.909 L2411.19,956.386 L2418.2,958.526 L2423.68,959.383 L2425.91,959.732 L2433.02,958.526 L2433.73,958.31 L2436.18,957.56 L2438.94,956.717 L2444.93,958.869 L2447.4,959.756 L2449.02,960.335 L2450.84,962.31 L2454.08,965.816 L2458.5,970.585 L2458.95,977.918 L2459.09,980.231 L2458.73,985.759 L2458.5,989.274 L2462.64,992.288 L2463.36,994.385 L2465.31,1000.13 L2467.28,1008.14 L2467.68,1009.77 L2467.48,1013.71 L2467.09,1021.22 L2465.9,1027.25 L2462.94,1035.69 L2465.9,1040.51 L2469.46,1042.92 L2469.67,1042.81 L2473.01,1041.11 L2478.35,1035.69 L2481.9,1026.05 L2487.73,1022.65 L2491.57,1024.22 L2497.31,1026.05 L2502.64,1029.06 L2507.38,1030.89 L2510.7,1032.17 L2514.4,1033.6 L2519.83,1035.69 L2524.57,1041.11 L2537.01,1064.02 L2545.9,1070.65 L2550.01,1077.56 L2550.64,1092.34 L2544.72,1101.38 L2538.79,1114.03 L2533.97,1129.77 L2531.5,1136.93 L2527.53,1152.59 L2528.8,1157.42 L2529.9,1161.63 L2530.79,1162.62 L2532.81,1164.89 L2535.83,1168.25 L2540.47,1168.52 L2541.27,1168.56 L2546.49,1168.86 L2548.28,1168.61 L2555.38,1167.65 L2558.53,1167.12 L2567.49,1165.59 L2574.18,1168.12 L2576.12,1168.86 L2577.81,1169.71 L2582.05,1171.87 L2584.59,1171.8 L2586.8,1171.74 L2589.02,1172.09 L2599.23,1173.68 L2602.57,1176.27 L2605.78,1178.76 L2609.31,1181.51 L2616.42,1194.16 L2618.7,1197.26 L2621.75,1201.38 L2621.16,1206.2 L2620.57,1213.43 L2620.55,1213.49 L2618.2,1220.66 L2614.05,1222.46 L2608.12,1223.67 L2603.38,1229.09 L2602.51,1229.97 L2598.64,1233.91 L2596.94,1239.67 L2594.34,1245.28 L2591.53,1251.37 L2591.32,1252.42 L2591.04,1253.87 L2590.34,1257.39 L2586.79,1257.99 L2586.44,1255.51 L2586.2,1253.78 L2581.46,1255.59 L2577.29,1258.57 L2576.23,1259.94 L2574.94,1261.61 L2573.15,1261.59 L2572.57,1259.2 L2571.38,1256.19 L2568.42,1259.2 L2565.62,1261.76 L2562.49,1264.62 L2560.16,1272.34 L2560.12,1272.45 L2558.94,1277.87 L2555.38,1283.89 L2554.64,1286.15 L2554.2,1287.5 L2550.71,1295.18 L2545.31,1300.14 L2545.23,1300.23 L2541.75,1303.75 L2539.98,1303.75 L2537.61,1303.75 L2534.63,1303.75 L2531.68,1303.75 L2530.49,1299.54 L2527.96,1297.34 L2526.35,1295.93 L2522.88,1297.25 L2521.61,1297.73 L2518.64,1304.96 L2514.55,1310.96 L2513.31,1312.79 L2511.24,1315.27 L2506.79,1320.61 L2501.93,1324.32 L2499.68,1326.03 L2498.53,1338.32 L2497.44,1349.93 L2497.31,1351.31 L2505.01,1369.37 L2511.4,1381.83 L2515.22,1380.74 L2521.17,1380.74 L2529.85,1388.31 L2540.4,1393.35 L2549.09,1403.43 L2572.05,1404.69 L2590.57,1405.49 L2598.12,1410.37 L2609.29,1405.95 L2627.59,1406.96 L2632.25,1407.22 L2647.14,1411.63 L2652.11,1414.78 L2658.31,1416.67 L2660.8,1415.41 L2662.04,1419.19 L2666.88,1419.19 L2667,1419.19 L2675.07,1416.67 L2676.43,1414.37 L2686.24,1412.26 L2694.93,1412.89 L2699.89,1413.52 L2707.34,1414.15 L2713.59,1417.11 L2716.65,1418.56 L2723.47,1418.56 L2732.16,1414.15 L2737.13,1407.85 L2742.09,1409.11 L2743.67,1411.04 L2748.19,1411.15 L2751.55,1409.96 L2753.32,1410.28 L2755.74,1406.59 L2761.95,1409.11 L2769.28,1409.53 L2771.75,1409.67 L2774.98,1411.63 L2779.56,1414.95 L2783.67,1417.93 L2785.9,1421.45 L2789.25,1426.75 L2789.87,1431.16 L2790.81,1437.35 L2791.12,1439.36 L2791.12,1447.27 L2791.12,1447.46 L2791.12,1451.33 L2791.12,1458.89 L2791.28,1460.73 L2791.67,1465.29 L2793.19,1468.62 L2794.22,1470.86 L2795.46,1476.53 L2795.13,1483.15 L2794.91,1487.62 L2794.84,1489.13 L2796.15,1494.44 L2796.7,1496.69 L2801.05,1508.03 L2802.29,1523.15 L2802.29,1527.85 L2802.29,1528.94 L2802.29,1533.64 L2802.29,1535.12 L2803.05,1536.55 L2801.88,1549.13 L2800.42,1550.24 L2800.38,1550.36 L2797.32,1558.42 L2799.06,1567.24 L2799.8,1571.02 L2800.42,1580.47 L2799.55,1586.22 L2799.18,1588.66 L2794.84,1596.84 L2789.87,1598.73 L2786.15,1601.25 L2781.81,1601.25 L2776.22,1598.73 L2773.74,1596.21 L2770.02,1593.06 L2755.12,1595.58 L2749.54,1598.1 L2747.23,1599.42 L2742.86,1601.92 L2739.61,1603.77 L2737.43,1612.13 L2736.82,1614.46 L2735.36,1620.07 L2742.71,1627.07 L2748.61,1633.06 L2773.19,1654.26 L2788.2,1671.23 L2796.9,1688.07 L2804.05,1701.95 L2809.8,1717.81 L2802.79,1728.47 L2775.29,1746.7 L2765.61,1756.94 L2744.94,1775.74 L2738.27,1783.28 L2733.89,1798.54 L2729.28,1814.46 L2729.29,1815.85 L2729.42,1831.58 L2735.59,1855.14 L2747.66,1906.63 L2748.36,1938.75 L2752.43,1943.66 L2756.07,1949.13 L2768.29,1945.84 L2786.26,1940.99 L2798.11,1938.36 L2830.73,1932.43 L2845.19,1934.68 L2863.66,1935.7 L2768.57,2070.76 L2756.92,2087.37 L2746.44,2102.31 L2738.44,2096.15 L2737.98,2095.8 L2737.95,2095.77 L2710.19,2074.4 L2708,2072.71 L2606.49,1994.53 L2595.57,1986.12 L2427.93,1985.23 L2426.94,2071.05 L2425.52,2193.64 L2420.9,2592.01 L2457.32,2592.01 L2456.86,2595.76 L2455.03,2610.56 L2460.46,2616.04 L2460.46,2622.21 L2455.03,2631.81 L2461.13,2633.87 L2464.53,2637.29 L2463.85,2641.41 L2460.46,2644.83 L2457.07,2650.32 L2456.39,2653.75 L2453.67,2659.23 L2447.57,2667.46 L2444.86,2670.88 L2442.14,2677.74 L2438.08,2680.48 L2429.94,2686.65 L2421.8,2685.96 L2416.37,2683.22 L2415.02,2686.65 L2414.34,2696.24 L2412.3,2703.1 L2407.56,2705.15 L2400.77,2705.84 L2399.42,2709.95 L2408.23,2714.75 L2409.59,2722.97 L2408.23,2729.83 L2404.17,2733.25 L2399.42,2736.68 L2395.35,2735.31 L2385.18,2721.6 L2384.74,2722.01 L2380.14,2726.23 L2377.72,2728.46 L2379.07,2740.11 L2379.21,2740.49 L2379.27,2740.9 L2380.35,2744.04 L2380.58,2745.16 L2380.59,2745.22 L2380.66,2745.43 L2381.11,2746.96 L2376.36,2751.76 L2373.65,2762.04 L2372.29,2782.59 L2362.8,2792.19 L2356.52,2796.71 L2355.67,2794.93 L2354.32,2782.59 L2350.93,2774.37 L2342.11,2768.89 L2337.36,2764.09 L2331.94,2757.24 L2319.73,2742.85 L2312.27,2727.09 L2308.88,2718.86 L2299.38,2709.95 L2295.31,2698.99 L2288.53,2691.45 L2280.39,2690.08 L2274.29,2686.65 L2268.19,2677.74 L2261.4,2669.51 L2253.27,2657.86 L2235.63,2653.06 L2224.78,2635.92 L2218,2625.64 L2201.72,2614.67 L2180.7,2598.9 L2177.99,2590.67 L2170.53,2565.3 L2164.76,2546.1 L2160.01,2523.47 L2151.88,2499.46 L2147.57,2483.49 L2145.77,2476.83 L2140.35,2463.8 L2129.9,2452.71 L2126.78,2449.39 L2123.39,2439.79 L2111.18,2422.64 L2102.43,2415.34 L2099.65,2413.03 L2085.41,2401.37 L2069.81,2390.39 L2044.04,2382.16 L2028.44,2382.16 L2012.17,2384.9 L2000.38,2386.94 L1996.45,2385.31 L1983.25,2388.95 L1981.46,2389.86 L1971.25,2395.03 L1956.85,2395.63 L1953.25,2388.95 L1943.65,2372.56 L1931.05,2367.71 L1912.14,2366.15 L1908.85,2365.88 L1889.65,2367.1 L1871.05,2367.1 L1846.45,2372.56 L1831.55,2371.64 L1827.84,2368.92 L1805.04,2374.99 L1793.64,2379.24 L1773.84,2373.78 L1763.04,2376.21 L1746.84,2377.42 L1716.84,2379.24 L1695.84,2379.85 L1680.24,2371.35 L1670.04,2356.17 L1656.23,2337.96 L1646.03,2321.56 L1634.63,2314.88 L1619.03,2315.49 L1599.83,2313.67 L1582.43,2310.02 L1565.63,2297.27 L1555.43,2285.73 L1552.43,2279.05 L1543.35,2274.07 L1531.43,2267.51 L1524.23,2262.66 L1509.83,2249.29 L1506.83,2238.97 L1496.39,2231.85 L1486.38,2228.81 L1475.87,2228.81 L1466.86,2228.3 L1458.35,2226.28 L1452.85,2221.21 L1448.85,2215.13 L1446.34,2210.57 L1437.34,2207.53 L1430.83,2205.5 L1422.32,2202.97 L1409.81,2202.97 L1397.3,2199.93 L1385.79,2194.36 L1381.78,2189.8 L1365.77,2188.28 L1353.76,2190.3 L1347.25,2192.84 L1335.74,2186.76 L1328.23,2184.73 L1320.23,2179.66 L1309.72,2176.11 L1296.7,2174.59 L1284.19,2173.07 L1275.18,2166.99 L1262.92,2160.91 L1253.91,2146.72 L1235.4,2121.89 L1226.39,2107.19 L1205.37,2095.03 L1188.35,2085.9 L1171.34,2074.75 L1156.82,2065.63 L1144.31,2046.87 L1132.8,2039.26 L1120.79,2033.69 L1119.76,2033.58 L1106.28,2032.17 L1087.76,2037.24 L1080.75,2042.81 L1065.74,2049.4 L1052.23,2055.49 L1043.22,2059.04 L1034.21,2060.05 L1024.7,2062.08 L1017.7,2066.64 L1017.32,2069.33 L1014.08,2071.2 L1009.33,2074.81 L1003.4,2076.01 L996.669,2081.62 L982.028,2086.83 L974.43,2087.83 L972.927,2088.03 L968.97,2085.23 L961.847,2085.23 L950.372,2086.03 L940.876,2076.81 L938.105,2072.4 L935.043,2075.09 L925.721,2052.73 L925.721,2038.05 L929.586,2019.45 L927.654,2001.84 L915.095,1986.18 L897.706,1979.32 L876.452,1968.56 L842.64,1956.81 L826.217,1940.17 L820.814,1916.75 L797.718,1897.09 L740.721,1857.92 L698.214,1806.01 L656.674,1766.82 L629.624,1747.23 L579.389,1667.86 L525.844,1605.1 L523.357,1602.18 L497.273,1573.75 L483.749,1542.38 L475.054,1543.36 L465.394,1550.22 L458.631,1547.28 L461.529,1543.36 L462.495,1532.57 L455.733,1527.67 L441.242,1530.61 L441.242,1538.45 L432.548,1550.22 L430.616,1550.22 L428.684,1548.26 L422.887,1546.3 L413.226,1546.3 L409.362,1541.4 L399.702,1540.42 L391.007,1546.3 L387.143,1546.3 L386.177,1543.36 L383.278,1537.47 L380.38,1524.73 L379.414,1514.92 L372.652,1509.04 L366.855,1513.94 L360.093,1518.84 L358.161,1514.92 L356.229,1509.04 L346.81,1511.73 L343.187,1508.06 L337.149,1508.06 L331.111,1508.06 L323.866,1501.93 L322.658,1493.34 L328.696,1489.67 L340.772,1488.44 L341.979,1485.99 L348.017,1482.31 L349.225,1477.41 L345.602,1471.28 L340.772,1468.83 L333.526,1467.6 L327.489,1467.6 L322.658,1463.92 L322.658,1461.47 L323.866,1459.02 L327.489,1456.56 L335.942,1455.34 L337.149,1451.66 L333.526,1445.53 L322.658,1439.4 L312.998,1439.4 L304.545,1446.75 L287.639,1447.98 L287.639,1435.72 L290.054,1427.14 L299.714,1424.68 L290.054,1416.1 L284.016,1412.42 L276.77,1407.51 L270.732,1401.38 L261.072,1397.7 L247.789,1403.84 L240.62,1398.38 L236.73,1388.99 L222.765,1385.72 L221.153,1389.54 L219.005,1392.26 L212.022,1392.26 L208.799,1399.9 L212.022,1404.81 L214.708,1410.27 L214.708,1413.54 L211.485,1415.72 L205.04,1414.08 L202.891,1408.63 L202.354,1403.72 L198.594,1398.81 L195.371,1394.99 L192.149,1391.72 L186.777,1387.9 L183.555,1381.35 L181.406,1375.9 L175.498,1373.17 L174.961,1379.17 L176.291,1382.32 L176.572,1382.99 L176.572,1387.9 L172.275,1387.9 L160.996,1372.08 L160.458,1362.8 L158.847,1357.89 L156.485,1353.78 L132.79,1312.93 L133.56,1310.33 L134.418,1306.56 L133.074,1303.14 L129.977,1301.4 L125.787,1301.21 L120.827,1301.14 L115.974,1300.63 L111.224,1299.12 L107.132,1296.94 L102.817,1294.32 L96.7271,1290.17 L93.0722,1287.44 L90.0783,1284.7 L89.3337,1284.31 L86.6617,1282.92 L86.0965,1282.63 L85.5433,1282.36 L84.8933,1282.05 L82.862,1281.08 L81.7842,1280.56 L80.2231,1277.81 L79.4285,1274.39 L76.1063,1272.09 L73.7778,1270.01 L72.3259,1267.15 L72.8542,1263.71 L71.1669,1258.64 L70.4851,1255.42 L69.8662,1253.26 L69.259,1251.61 L67.7605,1249.26 L66.3514,1247.17 L64.8537,1244.84 L63.9433,1243.45 L59.4797,1236.78 L58.7449,1235.56 L58.5966,1235.01 L58.7375,1234.28" fill-rule="evenodd"/>
  </g>
  <g stroke-linejoin="bevel" font-size="34.5833" stroke="#000000" stroke-linecap="square" fill="none" transform="matrix(0.999744,0,0,0.999744,0,0)" stroke-opacity="1" font-style="normal" stroke-width="1" font-weight="400" font-family="MS Shell Dlg 2"/>
  <g stroke-linejoin="bevel" font-size="34.5833" stroke="#000000" stroke-linecap="square" fill="none" transform="matrix(11.808,0,0,11.808,0,0)" stroke-opacity="1" font-style="normal" stroke-width="1" font-weight="400" font-family="MS Shell Dlg 2"/>
  <g stroke-linejoin="bevel" font-size="34.5833" stroke="#000000" stroke-linecap="square" fill="none" transform="matrix(11.808,0,0,11.808,0,0)" stroke-opacity="1" font-style="normal" stroke-width="1" font-weight="400" font-family="MS Shell Dlg 2"/>
  <g stroke-linejoin="bevel" font-size="34.5833" stroke="#000000" stroke-linecap="square" fill="none" transform="matrix(11.808,0,0,11.808,0,0)" stroke-opacity="1" font-style="normal" stroke-width="1" font-weight="400" font-family="MS Shell Dlg 2"/>
  <g stroke-linejoin="bevel" font-size="34.5833" stroke="#000000" stroke-linecap="square" fill="none" transform="matrix(1,0,0,1,0,0)" stroke-opacity="1" font-style="normal" stroke-width="1" font-weight="400" font-family="MS Shell Dlg 2"/>
  <g stroke-linejoin="bevel" font-size="34.5833" stroke="#000000" stroke-linecap="square" fill="none" transform="matrix(11.808,0,0,11.808,0,0)" stroke-opacity="1" font-style="normal" stroke-width="1" font-weight="400" font-family="MS Shell Dlg 2"/>
  <g stroke-linejoin="bevel" font-size="34.5833" stroke="#000000" stroke-linecap="square" fill="none" transform="matrix(11.808,0,0,11.808,0,0)" stroke-opacity="1" font-style="normal" stroke-width="1" font-weight="400" font-family="MS Shell Dlg 2"/>
  <g stroke-linejoin="bevel" font-size="34.5833" stroke="#000000" stroke-linecap="square" fill="none" transform="matrix(11.808,0,0,11.808,0,0)" stroke-opacity="1" font-style="normal" stroke-width="1" font-weight="400" font-family="MS Shell Dlg 2"/>
  <g stroke-linejoin="bevel" font-size="34.5833" stroke="#000000" stroke-linecap="square" fill="none" transform="matrix(11.808,0,0,11.808,0,0)" stroke-opacity="1" font-style="normal" stroke-width="1" font-weight="400" font-family="MS Shell Dlg 2"/>
  <g stroke-linejoin="bevel" font-size="34.5833" stroke="#000000" stroke-linecap="square" fill="none" transform="matrix(1,0,0,1,0,0)" stroke-opacity="1" font-style="normal" stroke-width="1" font-weight="400" font-family="MS Shell Dlg 2"/>
 </g>
</svg>
