<?xml version='1.0' encoding='UTF-8' standalone='no'?>
<svg xmlns:xlink="http://www.w3.org/1999/xlink" baseProfile="tiny" version="1.2" viewBox="0 0 2952 2952" height="249.936mm" width="249.936mm" xmlns="http://www.w3.org/2000/svg">
 <title>Qt SVG Document</title>
 <desc>Generated with Qt</desc>
 <defs/>
 <g stroke-linejoin="bevel" stroke="black" stroke-linecap="square" fill="none" stroke-width="1" fill-rule="evenodd">
  <g stroke-linejoin="bevel" font-size="34.5833" stroke="#000000" stroke-linecap="square" fill="none" transform="matrix(1,0,0,1,0,0)" stroke-opacity="1" font-style="normal" stroke-width="1" font-weight="400" font-family="MS Shell Dlg 2"/>
  <g stroke-linejoin="bevel" font-size="34.5833" stroke="#000000" stroke-linecap="square" fill="none" transform="matrix(1,0,0,1,0,0)" stroke-opacity="1" font-style="normal" stroke-width="1" font-weight="400" font-family="MS Shell Dlg 2"/>
  <g stroke-linejoin="bevel" font-size="34.5833" stroke="#000000" stroke-linecap="square" fill="none" transform="matrix(11.808,0,0,11.808,0,0)" stroke-opacity="1" font-style="normal" stroke-width="1" font-weight="400" font-family="MS Shell Dlg 2"/>
  <g stroke-linejoin="bevel" font-size="34.5833" stroke="#000000" stroke-linecap="square" fill="none" transform="matrix(0.999744,0,0,0.999744,0,0)" stroke-opacity="1" font-style="normal" stroke-width="1" font-weight="400" font-family="MS Shell Dlg 2"/>
  <g font-size="34.5833" stroke="none" fill-opacity="0" fill="#ffffff" transform="matrix(0.999744,0,0,0.999744,0,0)" font-style="normal" font-weight="400" font-family="MS Shell Dlg 2">
   <path vector-effect="none" d="M-2,-2 L2955,-2 L2955,2955 L-2,2955 L-2,-2" fill-rule="evenodd"/>
  </g>
  <g stroke-linejoin="bevel" font-size="34.5833" stroke="#000000" stroke-linecap="square" fill="none" transform="matrix(0.999744,0,0,0.999744,0,0)" stroke-opacity="1" font-style="normal" stroke-width="1" font-weight="400" font-family="MS Shell Dlg 2"/>
  <g stroke-linejoin="bevel" font-size="34.5833" stroke="#000000" stroke-linecap="square" fill="none" transform="matrix(11.808,0,0,11.808,0,0)" stroke-opacity="1" font-style="normal" stroke-width="1" font-weight="400" font-family="MS Shell Dlg 2"/>
  <g stroke-linejoin="bevel" font-size="34.5833" stroke="#000000" stroke-linecap="square" fill="none" transform="matrix(11.808,0,0,11.808,0,0)" stroke-opacity="1" font-style="normal" stroke-width="1" font-weight="400" font-family="MS Shell Dlg 2"/>
  <g stroke-linejoin="bevel" font-size="34.5833" stroke="#000000" stroke-linecap="square" fill="none" transform="matrix(11.808,0,0,11.808,0,0)" stroke-opacity="1" font-style="normal" stroke-width="1" font-weight="400" font-family="MS Shell Dlg 2"/>
  <g stroke-linejoin="bevel" font-size="34.5833" stroke="#000000" stroke-linecap="square" fill="none" transform="matrix(11.808,0,0,11.808,0,0)" stroke-opacity="1" font-style="normal" stroke-width="1" font-weight="400" font-family="MS Shell Dlg 2"/>
  <g stroke-linejoin="bevel" font-size="34.5833" stroke="#000000" stroke-linecap="square" fill="none" transform="matrix(11.808,0,0,11.808,0,0)" stroke-opacity="1" font-style="normal" stroke-width="1" font-weight="400" font-family="MS Shell Dlg 2"/>
  <g font-size="34.5833" stroke="none" fill-opacity="0" fill="#ffffff" transform="matrix(11.808,0,0,11.808,0,0)" font-style="normal" font-weight="400" font-family="MS Shell Dlg 2">
   <path vector-effect="none" d="M0,0 L250,0 L250,250 L0,250 L0,0" fill-rule="evenodd"/>
  </g>
  <g stroke-linejoin="bevel" font-size="34.5833" stroke="#000000" stroke-linecap="square" fill="none" transform="matrix(11.808,0,0,11.808,0,0)" stroke-opacity="1" font-style="normal" stroke-width="1" font-weight="400" font-family="MS Shell Dlg 2"/>
  <g stroke-linejoin="bevel" font-size="34.5833" stroke="#000000" stroke-linecap="square" fill="none" transform="matrix(11.808,0,0,11.808,0,0)" stroke-opacity="1" font-style="normal" stroke-width="1" font-weight="400" font-family="MS Shell Dlg 2"/>
  <g font-size="34.5833" stroke="none" fill-opacity="0" fill="#000000" transform="matrix(0.999744,0,0,0.999744,0,0)" font-style="normal" font-weight="400" font-family="MS Shell Dlg 2">
   <rect y="0" height="2953" width="2953" x="0"/>
  </g>
  <g stroke-linejoin="bevel" font-size="34.5833" stroke="#000000" stroke-linecap="square" fill="none" transform="matrix(0.999744,0,0,0.999744,0,0)" stroke-opacity="1" font-style="normal" stroke-width="1" font-weight="400" font-family="MS Shell Dlg 2"/>
  <g stroke-linejoin="bevel" font-size="34.5833" stroke="#5c5c5c" fill-opacity="1" stroke-linecap="square" fill="#c5c5c5" transform="matrix(0.999744,0,0,0.999744,0,0)" stroke-opacity="1" font-style="normal" stroke-width="3.07087" font-weight="400" font-family="MS Shell Dlg 2">
   <path vector-effect="none" d="M2441.62,2446.71 L2441.62,2425.42 L2441.62,2416.46 L2441.62,2408.06 L2440.57,2404.9 L2437.09,2402.8 L2432.91,2399.29 L2431.16,2396.48 L2422.45,2391.22 L2416.18,2391.22 L2403.98,2393.68 L2393.53,2393.33 L2383.14,2391.3 L2375.71,2391.3 L2372.9,2392.25 L2368.38,2397.37 L2363.96,2398.18 L2357.74,2395.35 L2352.71,2396.16 L2347.69,2395.14 L2343.88,2392.32 L2340.66,2393.53 L2336.85,2391.1 L2335.24,2387.87 L2331.42,2386.66 L2325.8,2387.06 L2321.98,2386.45 L2319.32,2385.52 L2312.76,2387.08 L2306.02,2388.68 L2304.61,2391.91 L2305.48,2395.92 L2304.51,2398.58 L2299.89,2399.39 L2293.26,2398.38 L2290.65,2395.95 L2281.48,2393.14 L2282.21,2387.87 L2279.8,2383.83 L2276.59,2382.81 L2272.77,2382.81 L2268.96,2383.83 L2265.95,2382.61 L2263.08,2378.37 L2260.32,2375.74 L2257.71,2368.67 L2256,2362.6 L2254,2357.95 L2250.98,2357.55 L2248.46,2355.94 L2240.6,2356.36 L2237.73,2357.95 L2234.51,2359.57 L2230.29,2357.75 L2220.85,2357.75 L2218.64,2354.52 L2215.03,2353.1 L2210.01,2352.29 L2205.59,2350.27 L2197.96,2348.05 L2194.14,2345.22 L2190.33,2342.99 L2185.1,2342.19 L2180.28,2341.58 L2174.94,2341.45 L2174.78,2338.48 L2173.45,2331.47 L2172.65,2323.79 L2171.16,2320.17 L2169.24,2316.72 L2166.42,2310.45 L2168.03,2307.42 L2174.26,2304.79 L2181.17,2301.87 L2184.26,2300.56 L2193.11,2293.44 L2194.37,2290.79 L2196.44,2288 L2199.2,2284.3 L2203.1,2282.86 L2208.61,2281.18 L2218.13,2278.86 L2221.23,2277.56 L2227.31,2274.15 L2231.22,2272.71 L2234.31,2271.41 L2238.22,2269.98 L2245.31,2265.97 L2249.94,2260.53 L2260.92,2252.32 L2264.38,2244.74 L2268.46,2232.73 L2266.89,2229.89 L2270.03,2224.2 L2265.32,2219.15 L2262.12,2218.06 L2260.54,2213.14 L2257.8,2210.2 L2254.96,2207.14 L2254.12,2203.29 L2251.2,2195.77 L2247.43,2194.51 L2246.17,2190.08 L2240.21,2186.93 L2235.82,2184.71 L2231.74,2182.82 L2229.06,2180.55 L2227.97,2184.4 L2221.38,2184.71 L2211.03,2185.66 L2200.98,2183.45 L2199.1,2180.29 L2194.39,2178.71 L2189.68,2176.18 L2186.29,2175.06 L2182.35,2173.62 L2176.58,2175.31 L2173.04,2177.55 L2167.27,2182.99 L2159.64,2191.98 L2153.88,2195.91 L2149.55,2199.49 L2142.9,2202.66 L2134.52,2204.9 L2129.74,2205.25 L2123.78,2208.72 L2120.33,2211.88 L2117.19,2213.78 L2112.17,2215.99 L2104.01,2223.25 L2104.01,2227.05 L2102.44,2231.78 L2102.44,2239.36 L2098.05,2240 L2093.39,2240.76 L2089.26,2241.26 L2081.72,2240.66 L2080.1,2235.98 L2082.61,2233.94 L2077.84,2227.5 L2077.14,2225.08 L2076.71,2222.94 L2075.97,2218.25 L2073.11,2217.1 L2071.11,2219.54 L2069.58,2222.56 L2065.77,2222.28 L2061.39,2220.26 L2055.86,2218.54 L2053.1,2217.58 L2049.38,2217.38 L2044.47,2215.81 L2039.85,2217.44 L2040.55,2211.34 L2042.83,2207.32 L2041.74,2204.5 L2041.48,2198.63 L2039.77,2191.75 L2037.41,2188.75 L2035.83,2183.83 L2034.48,2180.58 L2031.87,2172.34 L2029.39,2169.28 L2029.5,2164.96 L2027.11,2159.22 L2027.19,2156.24 L2027.32,2151.69 L2028.03,2148.57 L2024.2,2143.94 L2020.83,2141.59 L2019.53,2137.15 L2024.2,2134.53 L2028.09,2129.31 L2029.65,2125.39 L2030.95,2121.99 L2029.91,2116.24 L2031.21,2113.37 L2035.1,2112.32 L2039,2113.11 L2042.31,2114.88 L2044.71,2117.29 L2047.56,2117.29 L2053.37,2113.83 L2056.38,2111.8 L2059.5,2111.28 L2063.13,2111.02 L2067.28,2107.88 L2068.58,2103.7 L2072.22,2100.83 L2074.55,2095.86 L2075.85,2092.47 L2077.15,2089.85 L2082.42,2091.36 L2078.7,2084.37 L2079.74,2081.23 L2077.67,2078.88 L2077.15,2076.01 L2075.59,2070.78 L2077.67,2068.17 L2081.04,2064.25 L2078.96,2061.63 L2078.44,2057.98 L2076.89,2055.36 L2077.15,2052.49 L2058.99,2052.3 L2051.4,2052.12 L2019.11,2051.03 L1997.19,2051.09 L1995.81,2051.09 L1963.8,2051.1 L1959.74,2051.07 L1910.34,2051.52 L1905.63,2051.35 L1835.23,2050.13 L1831.72,2050.07 L1689.14,2048.08 L1538.06,2046.77 L1526.79,2045.67 L1194.27,2043.42 L1191.25,2043.32 L1191.63,2044.19 L1191.61,2046.81 L1191.08,2049.99 L1191.99,2052.87 L1195.21,2055.5 L1195.57,2056.66 L1195.42,2057.64 L1195.39,2057.87 L1194.65,2058.67 L1194.47,2058.87 L1194.11,2060.48 L1194.76,2062.22 L1194.1,2063.36 L1193.36,2063.38 L1192.93,2063.55 L1192.78,2063.77 L1191.82,2066.66 L1191.5,2066.85 L1189.24,2066.67 L1188.09,2066.31 L1187.37,2066.08 L1185.97,2065.6 L1184.45,2064.64 L1182.62,2063.34 L1182.19,2063.14 L1181.83,2063 L1181.17,2062.83 L1178.75,2062.19 L1177.36,2061.77 L1176.3,2061.2 L1175.82,2060.72 L1175.49,2059.95 L1174.68,2058.32 L1174.02,2057.89 L1173.14,2059.48 L1172.68,2060.58 L1172.42,2062.34 L1172.09,2062.57 L1170.72,2063.16 L1169.52,2064.37 L1168.25,2065.69 L1167.06,2067.63 L1166.62,2069.07 L1174.93,2082.44 L1179.3,2090.32 L1181.71,2101.32 L1184.69,2104.95 L1186.45,2108.46 L1173.27,2106.83 L1153.71,2111.47 L1072.67,2109.79 L1064.08,2108.99 L1063.37,2108.3 L1062.17,2107.8 L1062.1,2105.89 L1062.01,2103.53 L1061.11,2103.36 L1060.53,2103.17 L1060.44,2103.39 L1060.11,2103.26 L1060.22,2102.89 L1060.2,2101.79 L1060.09,2100.94 L1059.97,2100.46 L1059.06,2099.07 L1057.4,2097.37 L1054.82,2094.59 L1053.46,2094.15 L1051.75,2093.74 L1046.31,2090.84 L1044.52,2088.57 L1042.74,2086.37 L1042.48,2084.48 L1041.78,2083.38 L1040.96,2082.42 L1040.32,2081.1 L1028.52,2072.95 L1028.52,2072.76 L1028.29,2072.1 L1027.79,2071.79 L1026.93,2071.7 L1026.84,2071.41 L1026.6,2071.48 L1026.43,2071.23 L1026.07,2071.05 L1025.18,2071.28 L1024.19,2070.86 L1018.66,2069.46 L1016.95,2068.56 L1015.47,2067.79 L1011.4,2068.53 L1004.05,2069.33 L1002.52,2069.48 L995.447,2070.17 L988.914,2069.08 L986.593,2069.84 L985.538,2068.48 L982.742,2065.81 L978.298,2062.77 L975.465,2061.67 L970.671,2059.81 L960.107,2055.7 L952.457,2052.52 L948.5,2048.61 L943.103,2049.23 L937.464,2045.52 L934.209,2043.35 L931.667,2041.65 L920.637,2034.63 L919.409,2033.28 L918.019,2029.16 L916.316,2027.78 L915.713,2027.3 L912.719,2027.57 L910.152,2029.76 L908.823,2030.73 L908.818,2032.18 L908.313,2034.26 L908.196,2035.28 L908.035,2036.25 L900.616,2048.64 L897.281,2056 L893.808,2062.11 L892.107,2065.1 L889.7,2068.58 L886.509,2073.18 L883.026,2079.49 L882.375,2087.53 L881.104,2095.99 L880.455,2099.29 L879.446,2104.42 L878.825,2107.58 L879.554,2116.1 L879.508,2120.7 L882.515,2123.68 L882.461,2128.35 L882.009,2131.47 L881.27,2138.57 L880.45,2141.51 L876.899,2144.21 L873.85,2150.26 L870.999,2155.9 L864.854,2161.38 L846.814,2171.25 L834.726,2180.63 L823.394,2192.03 L819.868,2197.86 L818.861,2201.92 L819.137,2205.74 L820.624,2211.81 L825.409,2221.95 L826.416,2227.27 L826.668,2231.83 L829.749,2238.88 L829.743,2242.56 L831,2245.63 L831.566,2249.64 L831.444,2254.57 L831.208,2258.7 L829.738,2263.85 L824.361,2266.45 L820.244,2270.54 L816.733,2272.28 L812.047,2273.26 L809.458,2275.4 L805.487,2278.69 L803.008,2281.96 L799.705,2286.04 L795.572,2291.77 L791.741,2292.48 L783.727,2292.4 L780.477,2293.77 L777.379,2295.08 L772.675,2296.64 L767.97,2298.2 L763.955,2298.83 L761.787,2302.69 L750.664,2301.41 L749.021,2300.65 L745.147,2299.33 L741.132,2299.96 L734.708,2300.97 L730.807,2302.4 L728.778,2303.2 L726.216,2304.76 L717.157,2304.55 L714.266,2305.54 L709.703,2304.08 L703.969,2304.17 L699.84,2304 L696.629,2304.5 L689.374,2306.46 L684.585,2306.4 L678.02,2308.84 L670.707,2306.94 L667.382,2306.65 L662.451,2306.6 L655.224,2307.74 L647.082,2308.2 L642.839,2307.23 L635.385,2306.77 L632.061,2306.47 L620.592,2306.64 L617.381,2307.14 L614.056,2306.85 L610.154,2308.28 L605.222,2308.24 L601.897,2307.94 L595.36,2308.15 L583.089,2308.44 L575.523,2307.18 L572.084,2306.08 L565.433,2305.49 L558.897,2305.7 L549.723,2304.69 L542.27,2304.22 L535.733,2304.43 L530.802,2304.39 L524.727,2302.07 L515.895,2303.46 L510.274,2304.34 L506.949,2304.05 L500.298,2303.46 L492.042,2303.12 L483.095,2303.71 L476.558,2303.92 L471.126,2305.32 L468.416,2304.38 L465.246,2304.18 L461.2,2303.94 L456.949,2303.92 L453.047,2303.91 L445.249,2303.14 L441.928,2302.81 L436.883,2301.97 L431.145,2304 L426.104,2301.21 L422.665,2300.11 L416.015,2299.52 L412.001,2300.15 L407.704,2303.59 L404.709,2302.99 L399.956,2302.05 L392.799,2302.97 L395.91,2307.14 L398.465,2312.8 L398.976,2317.43 L398.976,2323.09 L397.003,2327.18 L393.867,2333.88 L388.758,2339.54 L383.138,2343.14 L375.474,2348.28 L366.788,2347.25 L359.635,2345.71 L356.57,2346.22 L346.862,2351.37 L344.362,2362.27 L341.676,2365.42 L340.062,2371.41 L338.795,2374.06 L336.975,2376.51 L322.409,2384.97 L309.503,2386.17 L305.105,2387.21 L299.44,2381.84 L293.352,2376.97 L290.27,2374.62 L283.345,2371.27 L272.337,2366.94 L267.138,2365.47 L264.339,2364.66 L259.931,2364.47 L257.463,2365.06 L253.659,2366.07 L251.204,2368 L246.3,2371.01 L241.978,2373.54 L239.22,2375.3 L236.281,2376.47 L232.368,2377.59 L228.296,2378.65 L223.862,2379.34 L214.048,2379.49 L202.494,2380.14 L192.323,2380 L185.993,2379.58 L184.374,2379.13 L180.957,2377.92 L176.568,2372.86 L172.499,2369.92 L169.575,2368.42 L165.126,2366.92 L160.754,2365.95 L156.293,2365.61 L152.418,2365.64 L147.968,2365.92 L145.013,2366.52 L142.796,2367.6 L140.28,2368.79 L131.091,2374.49 L130.231,2373.77 L129.774,2368.09 L129.761,2366.62 L129.546,2366.11 L129.603,2365.54 L129.418,2364.71 L129.402,2364.22 L129.546,2363.72 L129.603,2363.22 L129.567,2362.77 L129.747,2362.43 L129.821,2362.04 L129.756,2361.69 L129.884,2361.3 L129.8,2360.51 L129.768,2359.58 L129.548,2359.08 L129.548,2358.53 L129.384,2358.25 L129.22,2357.81 L129.194,2357.21 L129.055,2356.93 L129,2356.38 L129.22,2355.77 L129.822,2355.39 L130.48,2354.72 L130.919,2354.01 L131.302,2353.23 L131.478,2352.94 L131.605,2352.72 L131.631,2352.68 L132.12,2352.41 L132.767,2352.35 L133.614,2352.36 L134.044,2352.29 L134.335,2352.12 L134.482,2351.85 L134.949,2351.73 L135.341,2351.51 L135.532,2350.77 L135.723,2350.24 L135.765,2349.81 L135.681,2349.33 L135.853,2348.87 L136.017,2348.21 L135.962,2347.77 L135.853,2347.33 L135.542,2347.03 L135.469,2346.45 L135.659,2346.01 L136.236,2345.45 L136.62,2345.07 L137.115,2344.79 L137.715,2344.63 L138.594,2344.62 L138.923,2344.55 L139.362,2344.35 L139.707,2344.37 L140.404,2344.57 L140.958,2344.47 L141.5,2344.02 L141.987,2343.46 L142.432,2343.13 L142.876,2343.08 L143.226,2342.94 L143.913,2342.2 L144.79,2341.26 L145.174,2340.81 L145.722,2340.1 L145.685,2339.24 L145.579,2338.27 L145.387,2337.54 L145.283,2337.01 L145.612,2336.24 L145.791,2335.87 L145.992,2335.21 L146.27,2334.75 L146.617,2334.48 L147.242,2334.05 L147.497,2333.68 L147.64,2333.09 L147.635,2332.43 L147.793,2331.75 L148.027,2331.24 L148.757,2330.28 L149.615,2328.9 L150.053,2328.4 L150.656,2328.01 L151.323,2327.74 L152.301,2327.52 L153.507,2327.41 L154.248,2327.24 L154.906,2326.91 L155.307,2326.52 L155.583,2325.68 L155.594,2324.77 L155.647,2324.02 L155.583,2323.48 L155.254,2322.88 L154.987,2322.11 L155.042,2321.27 L154.877,2320.73 L154.329,2320.07 L153.791,2319.62 L153.177,2319.24 L152.41,2319.07 L151.63,2318.99 L151.147,2318.97 L150.877,2318.97 L150.494,2318.45 L150.146,2317.52 L149.901,2316.57 L149.626,2316.07 L149.043,2315.05 L148.966,2314.9 L148.608,2314.19 L148.296,2313.34 L148.056,2312.6 L147.972,2312 L147.748,2311.46 L147.58,2311.07 L147.31,2310.74 L146.925,2310.19 L147.006,2309.61 L147.335,2309.1 L148.187,2308.37 L148.66,2307.85 L149.158,2306.81 L149.613,2305.73 L149.688,2305.34 L149.518,2305.11 L148.895,2304.89 L147.906,2304.61 L147.428,2304.44 L147.074,2304.03 L146.789,2303.21 L146.537,2302.61 L146.373,2302.28 L146.044,2301.89 L145.659,2301.28 L145.22,2300.79 L144.946,2300.51 L145.001,2300.07 L144.672,2299.85 L144.015,2299.74 L143.41,2299.57 L142.972,2299.19 L142.698,2298.97 L142.204,2298.86 L141.656,2299.08 L141.107,2299.24 L140.504,2299.13 L140.066,2299.13 L138.86,2299.41 L138.146,2299.52 L137.543,2299.24 L136.885,2299.19 L136.283,2299.24 L135.898,2299.13 L135.514,2298.75 L135.021,2298.75 L134.144,2298.47 L133.43,2298.09 L132.498,2297.48 L132.005,2296.87 L131.51,2296.49 L130.853,2295.82 L130.304,2295.55 L130.085,2294.56 L129.755,2293.84 L129.755,2293.4 L129.371,2292.74 L128.988,2292.24 L129.207,2291.69 L129.097,2290.86 L128.494,2290.25 L128.329,2289.81 L128.219,2288.65 L129.152,2288.27 L129.591,2287.82 L129.536,2287.16 L129.206,2286.89 L129.206,2286.17 L129.37,2285.4 L129.865,2284.95 L130.248,2284.84 L129.973,2284.18 L129.863,2283.58 L129.973,2283.3 L130.302,2282.97 L130.192,2282.25 L130.521,2281.53 L130.356,2280.98 L130.356,2280.65 L130.356,2279.93 L130.302,2279.44 L129.863,2279.05 L130.028,2278.33 L130.137,2277.67 L130.466,2277.06 L130.85,2276.46 L131.617,2276.4 L132.001,2276.46 L132.33,2276.07 L132.494,2274.8 L133.591,2274.69 L134.359,2274.36 L135.4,2273.86 L136.169,2273.47 L137.155,2272.76 L138.251,2271.71 L139.075,2271.05 L139.568,2269.89 L140.116,2269.39 L140.993,2268.95 L141.926,2268.23 L142.913,2268.23 L143.351,2267.24 L144.338,2266.85 L144.447,2266.13 L144.721,2265.31 L144.997,2264.59 L145.326,2264.09 L145.709,2263.54 L146.257,2262.99 L146.86,2262.71 L147.134,2262.32 L147.353,2261.72 L147.792,2261.28 L148.176,2260.89 L148.835,2260.84 L150.479,2260.83 L151.631,2261.05 L152.782,2260.83 L153.77,2260.23 L154.373,2259.62 L155.031,2259.07 L155.359,2257.96 L155.853,2257.36 L155.633,2256.36 L155.743,2255.81 L155.798,2254.93 L156.346,2254.43 L157.005,2254.54 L158.046,2254.71 L159.034,2254.38 L160.678,2253.88 L161.886,2253.22 L162.543,2252.72 L163.037,2252.44 L163.475,2251.95 L163.859,2251.67 L163.585,2251.01 L163.201,2249.96 L163.037,2249.41 L162.653,2248.86 L162.377,2248.3 L162.049,2248.08 L162.323,2247.26 L163.091,2246.81 L163.256,2246.26 L164.133,2245.77 L165.01,2245.71 L165.34,2245.27 L165.338,2244.33 L165.612,2243.28 L165.777,2242.67 L165.997,2242.34 L166.271,2241.96 L166.217,2241.29 L166.491,2240.74 L166.984,2240.41 L167.148,2239.8 L167.039,2239.03 L167.148,2238.37 L167.094,2238.09 L166.763,2237.49 L166.818,2236.93 L167.202,2236.16 L167.97,2235.56 L168.245,2235.22 L168.464,2234.45 L168.957,2234.06 L169.231,2233.79 L169.834,2232.96 L170.383,2232.63 L171.315,2232.52 L172.028,2232.24 L172.961,2232.35 L174.112,2231.91 L174.276,2230.7 L175.593,2230.86 L176.031,2231.58 L176.579,2231.69 L177.238,2231.52 L177.841,2231.74 L178.115,2231.25 L178.718,2231.19 L179.706,2230.64 L180.145,2229.76 L181.131,2228.16 L181.845,2227.49 L181.955,2226.45 L181.734,2225.51 L181.734,2224.35 L181.515,2222.64 L181.515,2221.26 L181.405,2220.54 L181.241,2219.88 L182.172,2219.05 L183.049,2218.44 L183.763,2218.77 L184.585,2218.55 L185.407,2218.17 L186.231,2217.84 L186.943,2217.28 L187.437,2217.12 L187.876,2216.68 L188.315,2216.07 L188.589,2215.24 L188.424,2214.52 L188.149,2213.97 L188.204,2213.25 L188.204,2212.59 L188.478,2211.76 L188.423,2211.05 L188.807,2210.05 L188.971,2209.28 L189.685,2208.51 L190.123,2208.07 L190.946,2207.84 L191.659,2207.46 L192.372,2207.51 L192.865,2207.18 L193.139,2206.35 L192.975,2205.42 L191,2204.26 L189.464,2203.71 L188.257,2203.15 L186.776,2201.94 L185.68,2199.84 L184.692,2197.53 L184.143,2195.43 L183.649,2193.88 L183.32,2192.28 L182.935,2190.52 L182.223,2189.19 L181.838,2186.82 L181.18,2184.61 L180.795,2182.41 L179.752,2179.92 L179.04,2178.32 L178.107,2177.16 L177.614,2175.73 L177.119,2174.02 L176.79,2172.53 L176.295,2171.15 L175.802,2168.88 L175.307,2167.23 L175.417,2166.01 L175.033,2164.47 L174.429,2162.43 L173.989,2159.89 L173.715,2158.45 L173.001,2156.52 L172.673,2155.31 L171.739,2153.43 L171.685,2151.89 L171.3,2150.01 L171.464,2147.58 L171.245,2145.26 L171.134,2143.11 L170.969,2141.68 L170.804,2139.25 L170.968,2136.87 L171.242,2135.44 L171.352,2133.89 L171.297,2132.29 L170.967,2130.42 L170.583,2129.04 L170.362,2127.22 L169.759,2125.28 L169.046,2123.52 L168.551,2121.97 L167.784,2120.65 L166.686,2118.44 L165.863,2116.62 L165.039,2115.3 L163.04,2111.97 L165.659,2109.78 L166.54,2108.55 L167.115,2107.89 L169.09,2105.89 L170.601,2104.35 L171.821,2103.21 L172.794,2102.11 L173.921,2100.54 L174.933,2099.15 L176.101,2097.54 L177.3,2095.97 L177.948,2095.25 L179.022,2094.15 L179.515,2093.27 L180.063,2092.44 L180.611,2091.56 L181.435,2090.18 L182.257,2088.74 L183.134,2087.03 L184.01,2085.54 L184.834,2083.88 L185.591,2082.74 L185.82,2082.39 L186.752,2080.62 L187.465,2078.8 L189.165,2076.15 L190.042,2074.38 L190.756,2073.34 L191.138,2071.07 L191.631,2068.42 L192.07,2066.6 L191.586,2058.56 L195.485,2054.02 L223.102,2037.15 L231.599,2033.71 L232.309,2033.73 L235.526,2032.11 L238.843,2029.6 L238.71,2029 L238.692,2028.42 L238.801,2027.89 L239.059,2026.57 L239.28,2025.34 L239.954,2024.3 L240.062,2022.7 L240.062,2021.48 L240.226,2020.1 L240.28,2015.8 L240.115,2013.86 L239.73,2011.82 L239.073,2009.89 L238.578,2008.01 L238.359,2006.47 L237.919,2005.09 L237.26,2003.6 L236.876,2002.11 L236.765,2000.89 L236.491,1999.62 L236.546,1997.97 L236.71,1996.48 L236.929,1995.37 L236.928,1993.66 L236.599,1992.23 L236.379,1991.23 L236.379,1989.91 L236.05,1988.91 L236.05,1988.08 L235.884,1987.2 L235.61,1986.21 L235.5,1985.38 L235.72,1984.33 L236.158,1983.12 L236.706,1981.57 L237.09,1980.8 L237.583,1979.97 L238.297,1978.75 L239.174,1977.1 L239.938,1976.01 L240.6,1974.72 L242.136,1971.96 L251.078,1954.38 L241.137,1932.54 L233.706,1929.95 L214.188,1930.6 L211.799,1930.45 L208.358,1929.66 L204.92,1928.09 L201.342,1926.23 L198.328,1923.96 L194.822,1921.47 L191.876,1919.54 L189.007,1916.21 L185.995,1913.36 L183.679,1912.15 L180.22,1910.58 L178.355,1909.41 L176.434,1908.14 L174.624,1906.87 L172.648,1905.37 L171.167,1904.43 L170.783,1903.49 L170.453,1902.5 L170.068,1901.01 L170.201,1898.23 L170.5,1896.33 L170.672,1895.25 L170.727,1892.53 L170.836,1889.6 L170.891,1886.22 L171.056,1882.85 L171.165,1879.8 L171.165,1872.88 L171.056,1866.24 L170.999,1863.25 L171.054,1862.31 L171.549,1860.16 L172.316,1856.39 L173.03,1853.24 L173.633,1850.3 L174.017,1847.87 L174.676,1845.21 L175.224,1842.06 L176.212,1838.18 L176.705,1835.63 L177.308,1832.59 L177.638,1830.71 L178.57,1826.39 L177.965,1820.74 L177.678,1818.1 L176.411,1811.62 L175.587,1803.93 L175.642,1802.15 L175.695,1800.22 L175.86,1797.01 L175.906,1796.43 L176.353,1790.58 L176.846,1784.27 L177.34,1777.58 L177.297,1775.68 L177.833,1770.71 L178.052,1766.67 L178.49,1761.36 L178.819,1757.54 L178.832,1757.35 L179.203,1751.72 L179.53,1747.46 L179.75,1742.76 L179.742,1741.01 L179.804,1739.21 L179.859,1736.55 L180.133,1733.07 L180.077,1730.41 L180.187,1723.99 L180.35,1718.9 L180.459,1713.3 L180.513,1709.6 L180.567,1705.28 L180.732,1702.23 L180.511,1701.29 L179.963,1700.74 L178.207,1699.74 L175.791,1698.52 L174.693,1698.14 L172.497,1696.86 L170.247,1695.54 L165.578,1692.88 L163.712,1691.61 L160.144,1689.06 L157.124,1686.63 L155.587,1685.63 L154.434,1684.64 L151.964,1682.37 L149.384,1679.05 L146.033,1675.17 L143.674,1672.18 L141.092,1669.03 L139.336,1666.93 L139.61,1664.71 L141.146,1660.67 L143.997,1653.03 L146.302,1646.83 L148.276,1641.79 L150.196,1636.58 L152.883,1629.44 L153.266,1625.45 L154.032,1618.37 L154.8,1611.11 L155.785,1601.14 L157.651,1597.67 L159.077,1594.41 L159.788,1589.92 L160.721,1585.1 L161.434,1581.28 L162.364,1574.36 L166.535,1571.15 L172.189,1566.22 L175.098,1563.72 L181.025,1558.3 L185.415,1554.64 L189.751,1550.87 L192.495,1548.16 L197.436,1546.33 L200.949,1544.34 L203.364,1543.06 L206.274,1541.4 L206.986,1539.52 L208.029,1536.75 L207.038,1525.67 L206.157,1517.14 L205.386,1509.22 L205.384,1505.79 L205.439,1503.19 L205.219,1501.19 L204.559,1499.37 L203.406,1496.88 L200.969,1492.53 L199.616,1490.12 L195.769,1482.98 L193.792,1478.82 L190.22,1471.9 L184.177,1460.77 L180.66,1453.69 L178.573,1449.53 L185.159,1443.88 L192.405,1437.51 L202.01,1429.09 L207.665,1423.93 L216.722,1416.01 L223.365,1410.53 L224.023,1409.8 L222.811,1398.67 L222.201,1388.56 L220.66,1377.04 L218.736,1368.54 L216.974,1355.69 L215.651,1345.22 L214.551,1337.63 L213.396,1329.1 L211.689,1316.08 L210.367,1306.44 L209.044,1296.91 L208.218,1291.21 L207.06,1280.9 L206.342,1274.03 L205.209,1263.1 L205.073,1261.79 L203.641,1253.76 L202.868,1245.45 L202.538,1243.73 L202.223,1242.01 L200.353,1240.74 L197.602,1238.81 L195.126,1236.87 L191.825,1234.5 L191.329,1233.56 L190.663,1229.9 L190.163,1226.85 L189.185,1221.82 L187.997,1215.72 L186.22,1206.24 L184.944,1199.76 L184.941,1198.59 L184.935,1195.93 L184.852,1182.74 L184.724,1174.03 L184.759,1164.38 L184.67,1147.92 L184.653,1139.54 L184.582,1132.95 L184.549,1117.09 L184.417,1106.61 L184.408,1102.56 L184.245,1078.16 L184.176,1071.4 L184.077,1050.88 L184.053,1040.29 L184.044,1039.17 L183.981,1030.46 L183.895,1018.77 L183.885,1014.39 L183.496,1012.34 L183.819,1009.57 L184.726,997.087 L188.845,996.189 L191.038,994.074 L203.392,990.047 L209.879,990.972 L220.981,992.327 L226.696,992.477 L231.588,992.63 L235.159,992.232 L243.124,991.156 L250.925,990.081 L253.671,989.407 L253.505,988.964 L253.339,988.299 L253.612,987.688 L254.052,987.466 L254.545,987.076 L254.874,986.521 L254.872,986.077 L255.146,985.244 L255.419,984.467 L255.582,983.634 L255.471,982.969 L255.304,982.248 L254.973,981.528 L255.136,981.195 L255.686,980.75 L256.234,980.526 L256.179,980.027 L256.287,979.306 L256.452,979.072 L256.561,978.917 L256.67,978.418 L256.668,977.752 L256.337,976.865 L256.06,975.924 L255.784,975.703 L255.235,975.427 L254.465,974.984 L254.08,974.653 L253.803,974.321 L253.692,973.6 L254.185,972.878 L254.403,972.212 L254.238,971.99 L254.182,971.325 L254.125,970.659 L254.07,970.105 L253.959,969.884 L253.574,969.663 L253.353,969.442 L253.516,968.72 L253.626,968.22 L253.46,967.723 L253.347,967.056 L253.621,966.613 L254.116,966.334 L254.664,966.054 L254.883,965.777 L254.663,965.333 L254.442,964.946 L254.607,964.446 L254.716,964.058 L254.605,963.669 L254.385,963.172 L254.327,962.506 L254.876,962.061 L255.041,961.728 L254.711,961.451 L254.269,961.12 L254.323,960.621 L254.708,960.342 L255.037,960.009 L255.091,959.675 L254.65,959.344 L254.375,958.9 L254.209,958.457 L254.098,958.014 L254.372,957.514 L254.536,957.236 L254.04,957.015 L253.929,956.516 L253.874,956.185 L253.489,956.129 L253.214,956.019 L253.159,955.743 L253.213,955.299 L253.487,954.854 L253.43,954.466 L253.155,954.134 L253.1,953.856 L253.265,953.578 L253.758,953.301 L253.867,952.912 L253.811,952.69 L253.537,952.524 L253.371,952.303 L253.481,952.025 L253.865,951.747 L253.754,951.469 L253.369,951.248 L253.204,951.027 L253.312,950.75 L253.533,950.527 L253.477,950.028 L253.749,949.585 L253.474,949.196 L253.474,948.642 L253.637,948.364 L253.637,947.976 L253.526,947.643 L254.13,947.198 L253.36,947.144 L253.139,946.923 L253.083,946.369 L253.302,945.703 L253.246,945.093 L252.969,944.539 L252.913,943.93 L252.858,943.596 L252.693,943.263 L252.527,942.821 L252.635,942.321 L252.305,942.045 L252.029,941.713 L252.194,941.268 L252.412,940.769 L252.301,940.158 L252.244,939.715 L252.133,939.217 L252.738,938.993 L253.123,938.826 L253.286,938.436 L253.45,938.215 L253.669,937.936 L253.449,937.494 L253.283,937.161 L253.668,936.938 L253.997,936.715 L253.94,936.327 L253.665,935.718 L253.499,935.385 L253.607,934.665 L253.881,934.275 L254.43,933.775 L254.869,933.385 L254.923,932.886 L254.921,932.22 L254.865,931.776 L255.084,931.554 L255.358,931.331 L255.193,930.554 L255.301,929.888 L255.025,929.501 L255.354,928.835 L255.077,928.392 L254.802,927.949 L254.691,927.506 L254.801,926.95 L255.018,926.451 L255.183,926.006 L255.291,925.452 L254.961,925.008 L254.795,924.621 L254.848,924.121 L254.794,923.678 L254.628,923.291 L254.351,922.736 L254.185,922.348 L254.019,921.739 L254.018,921.35 L254.293,921.183 L254.677,921.071 L254.841,920.96 L254.73,920.405 L254.4,920.24 L254.4,919.852 L254.784,919.573 L255.663,919.404 L256.102,919.182 L256.157,918.738 L255.935,918.017 L255.769,917.573 L255.713,916.964 L255.437,916.687 L254.942,916.91 L254.559,917.355 L254.175,917.522 L253.9,917.358 L253.898,916.969 L253.734,916.747 L253.184,916.971 L252.965,917.027 L252.799,916.75 L252.523,915.974 L252.412,915.475 L251.97,914.866 L251.561,914.455 L251.53,914.424 L251.254,913.814 L251.188,913.537 L250.977,912.651 L250.59,911.931 L250.59,911.653 L250.808,911.209 L251.523,911.096 L251.907,910.873 L251.906,910.207 L251.849,909.708 L251.904,909.43 L252.344,909.429 L252.673,909.262 L252.837,908.818 L252.562,908.597 L252.177,908.543 L251.847,908.543 L251.626,908.211 L251.625,907.545 L252.01,907.323 L252.227,906.99 L252.171,906.323 L251.786,905.714 L251.29,905.051 L251.069,904.717 L251.068,904.163 L251.452,903.663 L252.001,903.606 L252.275,903.272 L252.109,902.774 L251.559,902.275 L251.393,901.944 L251.391,901.333 L251.665,900.944 L251.664,900.501 L251.113,899.781 L250.781,899.171 L250.946,898.562 L251.054,898.117 L251.054,897.618 L251.217,897.119 L251.491,896.729 L251.655,896.285 L251.654,895.73 L251.598,895.12 L251.431,894.456 L251.485,894.122 L251.539,893.512 L251.318,893.29 L251.044,893.18 L250.714,893.071 L250.11,893.293 L249.449,893.296 L249.011,893.519 L248.461,893.687 L247.802,893.799 L247.032,893.69 L246.537,893.47 L246.096,892.916 L245.732,892.176 L245.801,891.252 L245.905,890.507 L245.975,890.045 L246.116,889.689 L246.691,889.265 L246.674,889.093 L246.575,888.983 L246.372,888.877 L246.161,888.77 L246.055,888.474 L245.829,888.337 L245.701,888.171 L245.711,887.795 L245.715,887.336 L245.676,887.048 L245.555,886.827 L245.476,886.661 L245.537,886.423 L245.607,886.225 L245.613,886.059 L245.507,885.859 L245.281,885.678 L245.164,885.567 L245.118,885.434 L245.103,885.169 L244.902,885.069 L244.802,884.948 L244.708,884.671 L244.591,884.578 L244.453,884.522 L244.175,884.495 L244.057,884.4 L244.018,884.29 L244.068,884.072 L244.137,883.964 L244.137,883.824 L244.005,883.743 L243.79,883.726 L243.669,883.676 L243.574,883.541 L243.541,883.344 L243.596,883.24 L243.827,883.129 L243.888,883.045 L243.959,882.87 L243.929,882.62 L244.028,882.371 L244.132,882.162 L244.275,882.001 L244.334,881.894 L244.342,881.772 L244.234,881.679 L243.779,881.668 L243.391,881.738 L243.215,881.703 L243.149,881.537 L243.214,881.35 L243.291,881.227 L243.335,881.105 L243.301,880.977 L243.186,880.828 L243.071,880.643 L242.999,880.359 L242.929,880.148 L242.857,879.867 L242.82,879.583 L242.785,879.335 L242.629,879.115 L242.352,878.899 L242.043,878.629 L241.937,878.382 L241.901,878.169 L241.854,877.927 L241.738,877.822 L241.49,877.695 L241.266,877.639 L241.089,877.534 L240.984,877.428 L240.788,877.214 L240.573,877.094 L240.309,876.943 L240.149,876.828 L240.066,876.687 L239.959,876.403 L239.817,876.314 L239.591,876.281 L239.254,876.227 L238.963,876.106 L238.725,875.945 L238.583,875.699 L238.547,875.415 L238.568,875.143 L238.589,874.939 L238.484,874.789 L238.34,874.712 L238.225,874.629 L238.158,874.497 L238.086,874.331 L237.926,874.226 L237.69,874.121 L237.475,874.022 L237.237,873.845 L237.17,873.652 L237.185,873.397 L237.295,873.164 L237.476,872.882 L237.716,872.595 L237.903,872.383 L238.123,872.057 L238.218,871.703 L238.217,871.421 L238.399,870.984 L238.498,870.558 L238.463,870.054 L238.316,869.618 L238.18,869.298 L238.033,869.052 L237.927,868.911 L237.77,868.844 L237.68,868.735 L237.632,868.628 L237.621,868.507 L237.686,868.363 L237.797,868.225 L237.995,868.026 L238.276,867.813 L238.307,867.704 L238.3,867.565 L238.25,867.438 L238.222,867.317 L238.26,867.178 L238.326,867.018 L238.484,866.859 L238.623,866.647 L238.658,866.399 L238.428,866.188 L238.307,866.039 L238.234,865.87 L238.197,865.587 L238.197,865.339 L238.125,865.163 L238,865.088 L237.844,865.056 L237.625,864.977 L237.482,864.828 L237.392,864.592 L237.382,863.82 L237.3,863.507 L237.085,863.353 L236.816,863.231 L236.605,863.184 L236.407,863.004 L236.252,862.76 L236.075,862.478 L235.933,862.336 L235.721,862.231 L235.408,862.193 L235.089,862.161 L234.947,862.091 L234.8,861.917 L234.629,861.846 L234.172,861.809 L233.679,861.774 L233.418,861.769 L233.242,861.864 L233.078,862.03 L232.906,862.27 L232.766,862.482 L232.589,862.594 L232.26,862.722 L231.922,862.837 L231.606,862.943 L231.36,863.014 L231.009,863.262 L230.835,863.35 L230.593,863.449 L230.323,863.455 L230.136,863.483 L229.982,863.538 L229.851,863.677 L229.687,863.942 L229.5,864.154 L229.23,864.314 L228.89,864.42 L228.619,864.468 L228.338,864.539 L228.092,864.575 L227.816,864.498 L227.601,864.36 L227.386,864.257 L227.045,864.267 L226.647,864.294 L226.454,864.307 L226.329,864.223 L226.119,864.118 L225.908,864.083 L225.66,864.083 L225.415,864.083 L225.254,864.241 L224.996,864.253 L224.698,864.231 L224.463,864.049 L224.294,863.789 L224.151,863.646 L223.848,863.596 L223.406,863.626 L223.124,863.449 L222.756,863.249 L222.513,862.99 L222.312,862.787 L222.026,862.404 L221.832,862.067 L221.747,861.931 L221.57,861.825 L221.352,861.724 L221.182,861.543 L221.145,861.367 L221.124,861.005 L221.062,860.729 L220.951,860.58 L220.579,860.342 L220.163,860 L219.848,859.718 L219.699,859.642 L219.521,859.636 L219.31,859.671 L219.182,859.747 L218.887,859.778 L218.571,859.637 L218.253,859.531 L218.018,859.345 L217.858,859.174 L217.775,859.035 L217.708,858.869 L217.614,858.814 L217.449,858.825 L217.284,858.854 L217.014,858.838 L216.838,858.766 L216.738,858.666 L216.705,858.545 L216.703,858.251 L216.654,858.014 L216.594,857.907 L216.504,857.881 L216.405,857.91 L216.322,858.014 L216.213,858.175 L216.027,858.335 L215.856,858.403 L215.503,858.44 L215.273,858.353 L215.045,858.262 L214.814,858.166 L214.605,858.056 L214.434,857.945 L214.328,857.812 L214.279,857.68 L214.174,857.625 L214.053,857.657 L213.637,858.017 L213.36,858.04 L213.156,858.019 L213.013,857.914 L212.958,857.781 L212.929,857.487 L212.916,857.001 L212.889,856.854 L212.871,856.757 L212.766,856.57 L212.402,856.282 L212.291,856.095 L212.251,855.935 L212.268,855.807 L212.334,855.68 L212.327,855.541 L212.272,855.409 L212.184,855.262 L212.105,854.955 L212.076,854.413 L212.074,854.095 L212.179,853.918 L212.222,853.467 L212.177,853.069 L212.035,852.928 L211.905,852.853 L211.553,852.876 L211.311,852.893 L211.085,852.859 L210.821,852.784 L210.621,852.75 L210.379,852.788 L209.852,852.86 L209.653,852.846 L209.476,852.763 L209.415,852.619 L209.338,852.541 L209.228,852.52 L209.112,852.564 L209.019,852.614 L208.898,852.615 L208.821,852.515 L208.814,852.194 L208.807,852.006 L208.735,851.895 L208.609,851.819 L208.448,851.624 L208.381,851.304 L208.396,851.072 L208.472,850.882 L208.578,850.734 L208.61,850.551 L208.597,850.336 L208.506,850.21 L208.333,850.044 L208.079,849.85 L207.847,849.624 L207.697,849.392 L207.559,849.098 L207.414,848.915 L207.199,848.833 L206.946,848.823 L206.726,848.69 L206.52,848.486 L206.322,848.288 L206.206,848.11 L206.2,847.944 L206.172,847.79 L206.066,847.745 L205.88,847.691 L205.714,847.59 L205.468,847.351 L205.305,847.216 L205.205,847.05 L205.184,846.75 L205.114,846.608 L204.901,846.397 L204.691,846.215 L204.514,846.072 L204.342,845.927 L204.165,845.712 L204.088,845.475 L204.026,845.143 L203.911,844.912 L203.735,844.772 L203.523,844.69 L203.374,844.585 L203.276,844.384 L203.17,844.277 L202.971,844.226 L202.602,844.232 L202.216,844.249 L201.897,844.255 L201.69,844.208 L201.384,843.946 L201.161,843.715 L200.936,843.532 L200.688,843.427 L200.407,843.333 L199.845,843.301 L199.426,843.302 L199.002,843.291 L198.731,843.258 L198.297,843.126 L197.85,843.082 L197.372,843.084 L196.991,843.061 L196.761,842.99 L196.589,842.802 L196.423,842.72 L196.291,842.737 L196.154,842.813 L195.972,842.797 L195.806,842.697 L195.718,842.521 L195.524,842.405 L195.173,842.308 L194.907,842.179 L194.752,841.981 L194.625,841.766 L194.438,841.605 L194.218,841.496 L194.062,841.422 L193.791,841.373 L193.38,841.369 L193.037,841.325 L192.85,841.237 L192.668,841.159 L192.403,841.126 L192.167,841.116 L191.929,841.055 L191.72,840.945 L191.523,840.749 L191.394,840.491 L191.277,840.31 L191.045,840.113 L190.742,840.033 L190.39,840.073 L190.067,840.167 L189.611,840.245 L189.23,840.227 L188.815,840.148 L188.326,839.225 L188.257,838.801 L187.697,838.091 L187.136,837.239 L186.716,836.671 L186.367,835.82 L186.086,835.535 L186.087,835.11 L186.651,834.9 L186.793,834.546 L186.725,833.839 L186.305,833.412 L185.109,833.124 L184.265,833.121 L183.28,832.906 L182.716,832.903 L181.943,832.689 L181.169,832.686 L180.395,832.683 L179.55,832.468 L178.918,832.111 L178.427,831.755 L177.726,830.832 L177.377,829.911 L177.026,829.555 L176.888,828.633 L176.68,828.066 L176.682,827.43 L176.262,826.932 L175.559,826.646 L174.996,826.432 L174.013,825.649 L173.382,825.152 L173.243,824.372 L173.246,823.523 L173.178,822.743 L173.181,822.106 L172.972,821.468 L172.643,821.101 L172.271,820.687 L171.85,820.047 L171.29,819.55 L171.079,819.337 L170.728,818.981 L170.52,818.202 L170.593,817.282 L170.948,816.574 L171.16,816.079 L171.234,815.441 L170.743,814.874 L170.392,814.59 L170.042,814.092 L170.114,813.739 L170.326,813.385 L170.327,812.819 L170.399,812.465 L170.473,811.403 L170.476,810.694 L170.549,809.916 L170.619,809.703 L170.834,808.783 L170.697,807.863 L170.981,807.156 L170.843,806.447 L171.197,805.527 L171.623,804.821 L171.626,803.97 L171.908,803.405 L172.262,802.981 L172.123,802.414 L171.914,801.918 L171.775,801.421 L171.567,800.713 L171.569,799.72 L171.783,799.225 L171.151,798.657 L171.012,798.232 L171.086,797.241 L171.017,796.674 L170.737,795.965 L170.53,795.114 L170.532,794.335 L170.535,793.556 L170.468,792.777 L170.258,792.068 L170.05,791.075 L169.981,790.721 L169.703,789.871 L169.353,789.089 L169.003,788.451 L168.655,787.741 L168.304,787.316 L167.743,786.606 L167.605,785.968 L167.609,784.764 L167.612,783.772 L167.827,782.568 L168.181,782.004 L168.96,781.085 L169.173,780.094 L169.179,778.607 L168.69,777.473 L168.481,776.975 L168.201,776.267 L167.781,775.769 L167.08,774.988 L166.307,774.631 L165.958,773.638 L165.468,772.646 L165.33,771.795 L165.121,771.228 L164.7,770.731 L164.563,769.809 L164.495,769.029 L164.287,768.109 L163.937,767.612 L163.937,767.328 L163.519,766.548 L163.451,765.414 L163.666,764.636 L164.023,763.15 L164.379,762.159 L164.734,761.099 L164.877,760.037 L165.094,758.833 L165.097,757.912 L165.31,757.133 L165.032,756.283 L165.036,755.079 L164.758,754.158 L164.409,753.165 L164.062,751.676 L164.065,750.826 L164.068,749.835 L163.793,748.275 L163.794,747.637 L163.447,746.29 L163.52,745.512 L163.242,744.52 L163.667,743.388 L163.812,742.256 L163.183,741.333 L162.13,740.196 L161.004,739.766 L160.092,739.127 L159.107,738.839 L158.617,737.988 L157.633,737.702 L157.141,737.275 L155.666,736.349 L155.033,736.063 L152.504,734.567 L150.888,733.712 L148.639,732.36 L146.741,731.574 L145.617,730.861 L145.489,727.319 L145.437,721.794 L145.669,715.776 L145.157,700.191 L145.099,696.365 L145.968,689.568 L146.336,684.327 L146.777,678.803 L147.636,674.84 L148.108,666.947 L148.159,665.987 L148.599,660.677 L149.11,654.798 L149.624,648.353 L150.649,636.952 L151.377,629.658 L152.103,622.647 L152.757,616.91 L154.421,603.244 L155.366,594.178 L156.024,586.813 L157.11,577.606 L157.986,568.54 L158.78,562.379 L159.513,553.384 L160.382,546.372 L161.107,539.715 L161.623,532.843 L162.414,527.745 L164.258,523.782 L166.106,518.546 L168.093,513.875 L168.874,511.894 L168.458,510.05 L166.711,505.794 L164.404,500.401 L162.029,494.583 L160.001,489.829 L158.045,484.722 L156.298,480.464 L155.951,479.045 L156.104,475.149 L156.827,469.27 L157.341,462.539 L157.629,460.627 L157.282,459.28 L155.108,456.084 L152.935,452.464 L151.392,450.547 L149.428,448.415 L145.285,444.149 L142.265,441.093 L139.596,438.605 L137.842,436.403 L136.021,433.42 L133.639,428.949 L130.697,424.262 L127.754,418.868 L124.461,413.189 L120.747,407.013 L117.455,401.051 L114.442,396.08 L111.007,390.401 L108.39,385.982 L161.068,347.475 L162.094,346.646 L168.635,341.689 L176.812,335.08 L181.714,332.594 L187.434,329.283 L192.334,327.619 L196.417,325.958 L201.321,322.65 L206.231,317.7 L209.501,315.22 L213.593,311.095 L216.871,306.15 L220.172,293.81 L221.004,288.876 L221.843,281.475 L224.308,275.712 L225.952,271.597 L228.42,265.012 L230.07,259.252 L235.792,255.119 L240.694,252.633 L250.489,250.126 L253.755,249.29 L257.836,248.451 L262.732,247.609 L268.439,248.406 L273.33,249.207 L276.588,250.837 L280.661,252.464 L287.168,258.19 L289.605,261.467 L292.034,267.209 L294.47,270.487 L300.982,274.568 L306.689,275.365 L311.578,276.989 L316.467,278.612 L321.359,279.413 L327.065,280.21 L333.588,281.005 L337.666,280.988 L345.82,281.775 L349.896,282.58 L359.676,285.004 L363.755,284.987 L372.719,287.414 L380.06,287.383 L383.323,287.37 L388.217,287.349 L393.113,286.507 L398.01,285.664 L402.091,284.825 L405.353,284.812 L410.247,284.791 L414.325,284.774 L420.851,284.747 L427.373,285.54 L430.626,288.813 L428.984,292.108 L424.9,293.769 L421.633,295.426 L417.549,297.087 L412.637,302.86 L406.917,306.171 L397.926,311.961 L395.472,314.437 L390.552,322.675 L389.721,327.609 L388.074,332.546 L386.427,337.483 L384.777,343.242 L382.312,349.005 L380.663,354.764 L379.831,359.697 L379,364.631 L377.348,371.211 L376.519,375.323 L376.504,380.253 L378.117,385.998 L378.909,393.39 L378.891,399.141 L378.057,404.895 L377.229,409.007 L376.397,413.94 L376.376,420.514 L374.727,426.272 L373.893,432.027 L373.877,436.956 L374.68,441.06 L377.922,447.619 L380.361,450.074 L384.432,452.521 L389.315,455.787 L395.017,458.227 L399.088,460.675 L403.158,463.122 L408.866,463.92 L415.38,467.179 L418.632,470.452 L420.248,475.373 L424.295,485.215 L425.098,489.319 L424.264,495.073 L424.251,499.18 L423.418,504.934 L422.586,509.867 L421.755,514.799 L420.927,518.911 L420.1,522.199 L419.274,525.488 L419.256,531.238 L423.324,534.508 L429.039,532.841 L432.309,530.363 L437.211,527.877 L440.479,526.22 L443.752,522.921 L447.841,519.618 L451.932,515.494 L455.202,513.015 L460.107,509.709 L464.195,506.406 L469.102,502.278 L473.194,498.153 L476.472,493.21 L480.581,483.335 L483.041,479.217 L489.592,470.974 L494.515,461.916 L498.619,453.683 L502.721,446.272 L505.184,441.332 L506.83,436.395 L508.477,431.459 L509.316,424.061 L510.963,419.125 L511.792,415.014 L512.62,410.902 L512.636,405.972 L512.646,402.685 L513.48,396.931 L514.306,393.64 L515.953,388.704 L517.595,385.411 L519.236,382.116 L523.32,380.456 L529.011,386.184 L531.437,392.747 L533.056,396.848 L533.859,400.952 L539.542,409.145 L541.976,413.243 L550.115,418.96 L552.552,422.236 L555.796,427.974 L559.848,436.172 L561.469,439.452 L563.09,442.732 L565.524,446.829 L568.766,453.388 L571.195,459.129 L573.626,464.048 L576.052,470.609 L579.779,476.092 L578.468,480.458 L574.39,480.475 L570.317,478.849 L570.296,485.421 L571.101,488.705 L571.904,492.808 L574.335,497.727 L572.686,503.484 L571.844,511.702 L579.167,517.422 L579.964,523.169 L579.136,527.28 L576.676,531.397 L574.216,535.515 L572.572,539.629 L571.743,543.739 L570.101,547.033 L567.644,550.329 L565.999,554.442 L564.337,564.307 L562.687,570.064 L557.776,575.834 L554.502,579.133 L552.861,582.425 L552.032,586.536 L553.645,592.279 L558.526,596.364 L560.139,602.107 L560.129,605.393 L555.23,607.056 L545.449,604.633 L538.914,607.946 L542.148,616.967 L545.405,618.596 L547.021,623.517 L540.49,625.188 L535.594,626.029 L533.139,628.504 L529.038,635.913 L533.921,639.177 L537.999,639.16 L542.888,640.782 L546.141,644.054 L543.668,652.278 L537.132,655.59 L533.851,661.353 L538.73,666.259 L540.335,674.465 L539.509,677.753 L534.573,690.914 L532.932,694.206 L530.367,699.76 L527.872,704.68 L525.41,706.316 L521.301,709.59 L517.2,712.042 L511.46,715.31 L508.158,719.407 L504.839,725.147 L504.757,733.359 L506.337,738.291 L508.742,742.403 L510.323,747.335 L511.895,753.088 L513.451,760.484 L515.839,766.238 L519.059,770.353 L524.699,776.938 L530.356,781.88 L536.828,786.826 L540.031,792.583 L544.057,797.521 L548.907,801.64 L552.892,810.685 L558.591,811.521 L559.425,811.805 L563.465,813.177 L572.416,814.845 L578.93,815.684 L582.997,816.517 L585.406,817.731 L590.31,819 L595.143,824.762 L604.011,834.64 L605.576,841.212 L614.485,846.986 L619.344,850.283 L625.033,851.941 L628.261,855.234 L646.407,915.22 L640.61,924.234 L640.567,928.22 L640.56,928.884 L640.553,929.855 L640.535,931.623 L641.463,934.185 L642.915,938.197 L646.134,942.311 L647.666,952.167 L649.23,958.738 L652.441,963.673 L654.845,967.784 L656.426,972.714 L658.83,976.825 L664.52,978.483 L670.21,980.141 L675.876,984.261 L680.725,988.379 L689.552,1002.36 L694.059,1008.61 L702.447,1017.17 L705.322,1020.1 L717.038,1025.42 L723.527,1028.72 L729.209,1031.2 L735.689,1035.32 L740.555,1037.8 L745.483,1044.38 L748.6,1048.49 L751.82,1052.6 L755.693,1056.56 L761.503,1062.48 L770.429,1066.61 L779.372,1069.1 L786.692,1070.76 L794.012,1072.42 L800.518,1074.08 L821.697,1075.78 L833.118,1074.99 L842.094,1074.2 L853.507,1074.23 L866.55,1074.27 L876.316,1075.94 L893.419,1077.63 L903.959,1083.4 L904.733,1087.51 L908.768,1091.62 L914.433,1095.74 L937.02,1119.61 L940.247,1122.9 L946.612,1138.51 L953.084,1143.45 L959.565,1147.57 L974.181,1153.36 L980.702,1153.38 L992.115,1153.41 L998.653,1151.79 L1004.5,1137.85 L1007,1132.93 L1008.65,1130.48 L1011.16,1124.74 L1013.64,1120.64 L1020.27,1109.99 L1026.04,1103.44 L1027.72,1098.52 L1031.05,1091.97 L1035.21,1083.77 L1040.15,1078.86 L1045.1,1073.13 L1048.41,1068.21 L1054.16,1064.13 L1062.38,1056.76 L1071.42,1050.22 L1073.91,1046.12 L1076.39,1042.03 L1078.07,1037.11 L1082.18,1033.84 L1085.48,1029.74 L1085.53,1024.82 L1081.57,1013.31 L1079.17,1009.2 L1080.84,1005.1 L1083.32,1001.83 L1081.73,997.718 L1079.32,994.427 L1079.38,987.86 L1081.05,984.582 L1084.34,981.307 L1087.63,978.854 L1095.81,975.594 L1099.91,973.963 L1104.03,969.049 L1105.74,961.666 L1096.83,955.074 L1095.69,952.437 L1099.35,947.693 L1103.46,945.241 L1107.57,941.148 L1114.97,935.422 L1121.54,930.515 L1129.73,926.433 L1135.47,923.165 L1142.86,918.261 L1151.07,912.536 L1160.12,904.353 L1165.04,901.083 L1169.96,898.633 L1180.57,897.021 L1180.51,903.589 L1178.82,909.332 L1183.67,913.45 L1188.5,919.21 L1192.52,924.969 L1198.99,930.734 L1198.13,934.835 L1197.27,938.938 L1194.76,945.498 L1190.63,950.412 L1189.75,956.977 L1188.9,961.079 L1198.58,970.958 L1201.82,973.429 L1205.86,976.724 L1207.46,980.012 L1210.64,987.409 L1214.65,993.988 L1218.65,1001.39 L1221.86,1007.14 L1220.97,1014.53 L1219.26,1021.91 L1216.78,1026.01 L1214.31,1028.46 L1211.82,1032.56 L1208.52,1036.65 L1207.63,1044.04 L1210.04,1047.33 L1216.57,1046.53 L1220.67,1044.08 L1223.13,1042.44 L1226.4,1041.63 L1230.48,1041.64 L1234.56,1040.83 L1237.83,1040.02 L1242.73,1039.21 L1245.2,1036.76 L1247.67,1034.3 L1250.13,1032.67 L1255.07,1028.58 L1258.36,1025.3 L1262.46,1022.85 L1268.21,1018.76 L1271.52,1013.85 L1273.99,1011.39 L1277.27,1009.76 L1280.6,1002.38 L1287.17,997.475 L1291.28,994.203 L1292.95,990.104 L1295.44,986.007 L1297.92,982.73 L1297.9,978.542 L1298.18,973.848 L1296.76,965.594 L1304.06,971.548 L1315.13,973.749 L1323.29,972.951 L1346.93,973.017 L1356.72,972.224 L1367.32,972.253 L1373.85,971.451 L1384.45,971.481 L1391.79,970.68 L1403.21,970.712 L1412.99,970.741 L1433.38,969.977 L1443.16,970.004 L1451.31,970.028 L1466.8,970.072 L1478.24,967.64 L1490.48,966.854 L1502.7,967.709 L1510.04,966.91 L1514.94,966.102 L1526.37,964.493 L1532.9,963.69 L1536.97,964.522 L1537.75,967.808 L1537.69,973.554 L1537.64,978.48 L1536.76,985.044 L1535.87,992.43 L1536.61,999.819 L1536.56,1004.74 L1536.52,1008.85 L1536.47,1014.59 L1536.42,1018.7 L1535.56,1023.62 L1534.68,1030.19 L1533.8,1035.93 L1534.55,1042.5 L1538.59,1046.61 L1541.86,1045.8 L1546.76,1044.99 L1551.64,1045.83 L1554.87,1049.12 L1554.82,1054.05 L1555.6,1057.33 L1555.56,1061.43 L1554.69,1066.36 L1554.65,1070.46 L1554.55,1080.31 L1553.67,1086.87 L1553.6,1094.26 L1553.57,1097.54 L1552.61,1111.49 L1551.74,1116.41 L1551.69,1121.34 L1551.65,1126.26 L1551.57,1133.65 L1549.8,1147.59 L1548.93,1152.52 L1548.51,1157.33 L1548.42,1158.4 L1547.72,1160.21 L1547.21,1161.54 L1547.16,1166.46 L1548.76,1169.75 L1552.82,1171.4 L1558.53,1171.42 L1563.42,1171.43 L1569.93,1172.27 L1578.08,1172.29 L1583.78,1173.13 L1592.74,1173.98 L1596.83,1173.17 L1604.17,1172.37 L1611.52,1171.57 L1614.54,1171.96 L1615.31,1177.89 L1614.78,1184.36 L1611.03,1200.01 L1611.57,1208.64 L1612.1,1215.65 L1612.92,1219.79 L1613.71,1223.74 L1613.71,1232.91 L1614.24,1247.47 L1614.78,1259.87 L1616.38,1271.74 L1623.87,1281.44 L1632.43,1299.78 L1639.92,1311.11 L1636.18,1326.2 L1635.64,1342.38 L1643.13,1354.25 L1649.55,1366.11 L1653.27,1381.51 L1654.37,1386.06 L1657.76,1393.04 L1659.72,1400.62 L1657.58,1410.86 L1641.53,1426.5 L1600.87,1445.37 L1581.07,1451.84 L1565.56,1461 L1561.81,1473.94 L1565.79,1479.8 L1570.87,1483.95 L1583.21,1482.57 L1609.43,1483.65 L1644.74,1484.73 L1664,1483.65 L1690.75,1480.95 L1700.71,1480.89 L1771.8,1480.41 L1794.27,1479.33 L1830.65,1479.87 L1862.76,1479.33 L1883.09,1473.4 L1892.72,1467.47 L1894.32,1459.39 L1898.46,1447.64 L1900.21,1442.67 L1906.09,1440.52 L1917.86,1434.05 L1945.15,1419.49 L1956.38,1416.25 L1966.5,1419.32 L1975.64,1421.65 L1986.34,1416.25 L2013.09,1402.24 L2029.68,1403.85 L2045.73,1410.86 L2065.09,1411.45 L2068.22,1411.4 L2084.79,1403.31 L2111.54,1390.91 L2144.71,1375.81 L2159.38,1368.71 L2168.78,1364.49 L2176.27,1355.86 L2185.9,1351.55 L2189.11,1356.4 L2191.07,1369.45 L2191.79,1374.2 L2198.21,1407.63 L2205.7,1440.52 L2209.98,1477.18 L2215.86,1499.28 L2222.5,1511.05 L2222.73,1516.22 L2223.51,1520.33 L2226.69,1528.54 L2230.74,1531.01 L2234.75,1532.97 L2238.04,1534.31 L2243.75,1534.33 L2248.65,1533.52 L2256.03,1531.43 L2262.61,1522.9 L2268.35,1519.63 L2276.55,1515.55 L2280.66,1512.28 L2286.42,1506.56 L2292.18,1501.65 L2296.29,1497.56 L2300.41,1493.48 L2303.71,1490.2 L2308.64,1486.12 L2316.04,1479.57 L2320.97,1476.31 L2325.89,1473.04 L2331.6,1472.24 L2336.51,1470.61 L2348.77,1468.18 L2352.84,1468.19 L2359.36,1469.03 L2366.68,1469.87 L2386.16,1478.95 L2391.82,1483.07 L2418.58,1497.91 L2427.51,1501.21 L2437.27,1503.7 L2444.58,1506.18 L2451.08,1508.66 L2455.94,1511.96 L2461.63,1513.61 L2466.51,1514.45 L2468.91,1518.55 L2468.86,1524.3 L2468.8,1530.04 L2468.76,1533.32 L2469.51,1539.88 L2468.63,1546.44 L2469.36,1549.09 L2470.21,1552.19 L2478.3,1557.95 L2480.71,1561.24 L2477.41,1565.33 L2470,1572.69 L2469.94,1578.43 L2470.71,1582.53 L2472.29,1588.28 L2473.85,1594.84 L2474.62,1599.77 L2477,1605.51 L2486.74,1610.46 L2491.6,1612.94 L2497.19,1625.25 L2511.46,1625.42 L2524.3,1615.72 L2526.41,1613.82 L2534.47,1606.56 L2545.17,1594.7 L2564.43,1591.46 L2580.24,1595.26 L2582.06,1595.69 L2585.65,1596.56 L2586.9,1596.85 L2587.37,1597.25 L2588.68,1598.35 L2599.74,1607.64 L2623.28,1611.41 L2635.58,1609.79 L2646.28,1596.32 L2646.89,1595.72 L2663.94,1579.07 L2674.1,1566.13 L2682.66,1563.43 L2688.55,1565.05 L2699.25,1564.51 L2711.02,1568.28 L2734.56,1567.75 L2740.48,1567.11 L2759.71,1565.05 L2781.11,1557.5 L2798.23,1553.73 L2805.23,1554.14 L2801.35,1559.39 L2794.87,1564.66 L2785.78,1569.94 L2777.99,1575.21 L2770.38,1578.35 L2765.25,1582.27 L2762.48,1584.55 L2755.63,1589.4 L2753.32,1591.04 L2748.13,1596.3 L2741.66,1604.18 L2737.81,1614.66 L2736.55,1621.2 L2733.99,1630.37 L2732.74,1640.83 L2731.48,1648.68 L2730.23,1656.53 L2731.58,1665.68 L2731.62,1673.52 L2731.66,1680.05 L2730.39,1686.6 L2730.5,1706.2 L2731.85,1715.35 L2730.62,1727.12 L2731.97,1736.26 L2732,1742.79 L2732.04,1749.33 L2732.07,1754.56 L2728.2,1762.42 L2726.94,1768.96 L2724.37,1775.51 L2721.83,1788.6 L2720.57,1795.14 L2720.65,1810.82 L2719.13,1818.67 L2718.12,1823.9 L2710.34,1830.48 L2703.84,1834.44 L2698.65,1837.08 L2692.15,1839.73 L2685.66,1844.99 L2679.17,1848.95 L2672.68,1852.91 L2654.46,1858.24 L2649.26,1860.88 L2641.47,1864.84 L2633.68,1870.11 L2618.09,1878.04 L2612.9,1881.99 L2605.11,1887.26 L2586.94,1900.43 L2573.97,1912.26 L2566.19,1917.53 L2558.39,1921.5 L2546.69,1926.79 L2542.8,1930.73 L2536.33,1937.3 L2532.47,1946.47 L2531.19,1951.7 L2529.93,1959.55 L2526.06,1966.1 L2520.88,1972.67 L2515.72,1980.54 L2507.94,1988.42 L2500.17,1996.3 L2496.28,2000.24 L2495,2004.17 L2495.04,2012.01 L2495.09,2019.85 L2495.13,2027.69 L2495.18,2036.83 L2495.22,2044.67 L2496.57,2052.5 L2495.3,2059.04 L2492.73,2065.59 L2488.84,2068.22 L2482.34,2070.87 L2477.15,2074.82 L2477.19,2082.66 L2477.23,2089.19 L2477.26,2095.72 L2478.46,2100.42 L2482.55,2108.75 L2486.49,2115.26 L2493.04,2121.76 L2496.97,2124.35 L2502.19,2125.63 L2515.24,2129.47 L2520.46,2132.06 L2525.69,2134.64 L2529.61,2137.23 L2536.15,2141.11 L2545.29,2144.98 L2547.9,2146.27 L2587.04,2153.89 L2592.28,2160.39 L2594.93,2166.91 L2596.27,2173.43 L2598.92,2182.56 L2602.36,2189.52 L2601.61,2196.92 L2604.26,2204.74 L2605.6,2211.26 L2609.56,2221.69 L2613.54,2233.42 L2616.19,2242.55 L2618.83,2249.07 L2621.48,2255.58 L2626.75,2266 L2632.02,2276.42 L2635.98,2285.54 L2638.62,2293.36 L2646.47,2298.54 L2650.37,2295.91 L2651.64,2290.68 L2654.19,2280.22 L2655.46,2273.68 L2656.71,2265.83 L2660.57,2256.67 L2662,2251.57 L2663.13,2247.51 L2665.68,2238.36 L2668.24,2229.2 L2672.12,2223.95 L2677.28,2214.78 L2682.43,2204.3 L2683.71,2199.07 L2688.39,2191.28 L2691.44,2183.35 L2696.62,2178.1 L2700.48,2168.93 L2704.35,2162.38 L2710.83,2154.51 L2717.29,2145.33 L2723.77,2138.76 L2728.94,2130.89 L2736.16,2124.51 L2738.01,2121.7 L2741.89,2116.45 L2745.77,2112.51 L2753.57,2108.55 L2761.37,2104.59 L2767.23,2104.55 L2773.1,2105.83 L2777.02,2108.42 L2780.95,2112.32 L2784.91,2120.13 L2787.53,2122.73 L2790.18,2131.86 L2792.83,2138.38 L2792.85,2143.6 L2792.9,2151.44 L2791.63,2157.98 L2790.37,2165.82 L2789.11,2173.67 L2787.84,2178.9 L2786.56,2184.13 L2785.28,2188.06 L2784,2191.98 L2781.44,2199.83 L2777.59,2210.3 L2776.33,2219.45 L2776.37,2225.98 L2776.41,2233.82 L2776.46,2241.66 L2775.26,2254.66 L2775.25,2259.93 L2784.45,2272.96 L2788.39,2279.47 L2791.04,2285.98 L2797.63,2300.31 L2800.27,2306.83 L2799.1,2316.79 L2796.43,2318.6 L2773.46,2313.8 L2741.64,2307.15 L2742.96,2311.06 L2743.1,2316.29 L2744.32,2320.2 L2744.35,2326.73 L2744.38,2331.95 L2744.42,2338.48 L2743.14,2343.71 L2741.87,2348.94 L2740.6,2355.48 L2739.32,2359.4 L2738.05,2365.94 L2735.5,2375.09 L2730.35,2386.88 L2727.77,2390.81 L2721.3,2399.99 L2716.14,2407.85 L2710.97,2415.71 L2709.68,2418.33 L2707.1,2423.57 L2703.24,2431.43 L2700.65,2435.36 L2695.45,2438 L2690.24,2438.03 L2683.72,2436.76 L2679.38,2431.44 L2674.85,2432.14 L2669.34,2427.7 L2661.5,2425.13 L2656.29,2425.16 L2652.39,2426.49 L2645.89,2429.13 L2636.78,2430.49 L2622.88,2434.32 L2621.19,2439.72 L2617.3,2443.66 L2616.02,2447.58 L2613.47,2456.73 L2615.66,2463.63 L2619.63,2464.69 L2623.22,2465.65 L2626.55,2465.8 L2633.06,2464.46 L2639.56,2461.81 L2644.75,2459.17 L2649.95,2456.53 L2657.75,2453.88 L2664.26,2452.53 L2672.07,2451.18 L2675.99,2452.47 L2681.21,2453.75 L2685.12,2455.03 L2695.56,2457.58 L2700.79,2460.16 L2707.32,2462.74 L2716.45,2465.3 L2729.17,2467.29 L2736.74,2471.78 L2745.66,2471.78 L2757.7,2474.02 L2766.61,2478.06 L2771.96,2481.2 L2777.76,2487.03 L2783.55,2490.62 L2787.12,2491.96 L2789.58,2494.92 L2788.32,2501.46 L2788.35,2506.68 L2788.38,2513.21 L2788.43,2521.04 L2785.91,2538.03 L2784.63,2541.95 L2782.06,2547.19 L2778.18,2553.74 L2774.32,2561.59 L2770.44,2566.84 L2766.56,2572.08 L2761.51,2576.61 L2758.32,2581.34 L2733.35,2618.32 L2733.14,2617.95 L2732.73,2617.53 L2731.73,2616.96 L2731,2616.45 L2730.09,2615.42 L2727.56,2612.36 L2725.16,2609.97 L2722.04,2607.42 L2718.59,2604.73 L2716.57,2603.16 L2712.75,2600.36 L2710.18,2598.44 L2708.46,2597.24 L2707.35,2596.56 L2706.35,2596.11 L2705.76,2595.55 L2705.31,2594.76 L2704.62,2594.6 L2704.5,2594.68 L2703.97,2594.62 L2703.37,2594.46 L2696.79,2590.68 L2685.62,2583.94 L2659.54,2569.69 L2678.65,2530.51 L2677.72,2529.49 L2669.86,2521.7 L2647.61,2504.85 L2638.5,2506.21 L2632,2508.86 L2626.99,2509.89 L2562.82,2525.42 L2562.45,2525.61 L2562.45,2525.61 L2562.16,2525.5 L2559.94,2524.73 L2558.6,2524.16 L2557.06,2523.57 L2555.43,2523 L2554.19,2522.63 L2552.54,2521.93 L2551.38,2521.46 L2549.64,2520.93 L2548.36,2520.5 L2547.04,2520.08 L2545.1,2519.41 L2543.38,2518.72 L2541.31,2518.07 L2538.05,2516.83 L2531.6,2514.72 L2529.04,2513.86 L2526.1,2512.93 L2521.27,2511.28 L2514.34,2509.07 L2511.24,2508.09 L2504.92,2506.29 L2500.48,2504.93 L2498.27,2504.29 L2495.45,2503.6 L2494.42,2503.3 L2492.83,2502.83 L2490.99,2502.15 L2489.36,2501.82 L2485.61,2500.74 L2483.42,2500.16 L2480.88,2499.6 L2477.95,2498.94 L2475.14,2498.15 L2472.88,2497.57 L2471.01,2497.09 L2464.41,2495.53 L2455.51,2493.38 L2450.19,2492.27 L2445.51,2491.07 L2441.71,2490.07 L2441.62,2446.71" fill-rule="evenodd"/>
  </g>
  <g stroke-linejoin="bevel" font-size="34.5833" stroke="#000000" stroke-linecap="square" fill="none" transform="matrix(0.999744,0,0,0.999744,0,0)" stroke-opacity="1" font-style="normal" stroke-width="1" font-weight="400" font-family="MS Shell Dlg 2"/>
  <g stroke-linejoin="bevel" font-size="34.5833" stroke="#000000" stroke-linecap="square" fill="none" transform="matrix(11.808,0,0,11.808,0,0)" stroke-opacity="1" font-style="normal" stroke-width="1" font-weight="400" font-family="MS Shell Dlg 2"/>
  <g stroke-linejoin="bevel" font-size="34.5833" stroke="#000000" stroke-linecap="square" fill="none" transform="matrix(11.808,0,0,11.808,0,0)" stroke-opacity="1" font-style="normal" stroke-width="1" font-weight="400" font-family="MS Shell Dlg 2"/>
  <g stroke-linejoin="bevel" font-size="34.5833" stroke="#000000" stroke-linecap="square" fill="none" transform="matrix(11.808,0,0,11.808,0,0)" stroke-opacity="1" font-style="normal" stroke-width="1" font-weight="400" font-family="MS Shell Dlg 2"/>
  <g stroke-linejoin="bevel" font-size="34.5833" stroke="#000000" stroke-linecap="square" fill="none" transform="matrix(1,0,0,1,0,0)" stroke-opacity="1" font-style="normal" stroke-width="1" font-weight="400" font-family="MS Shell Dlg 2"/>
  <g stroke-linejoin="bevel" font-size="34.5833" stroke="#000000" stroke-linecap="square" fill="none" transform="matrix(11.808,0,0,11.808,0,0)" stroke-opacity="1" font-style="normal" stroke-width="1" font-weight="400" font-family="MS Shell Dlg 2"/>
  <g stroke-linejoin="bevel" font-size="34.5833" stroke="#000000" stroke-linecap="square" fill="none" transform="matrix(11.808,0,0,11.808,0,0)" stroke-opacity="1" font-style="normal" stroke-width="1" font-weight="400" font-family="MS Shell Dlg 2"/>
  <g stroke-linejoin="bevel" font-size="34.5833" stroke="#000000" stroke-linecap="square" fill="none" transform="matrix(11.808,0,0,11.808,0,0)" stroke-opacity="1" font-style="normal" stroke-width="1" font-weight="400" font-family="MS Shell Dlg 2"/>
  <g stroke-linejoin="bevel" font-size="34.5833" stroke="#000000" stroke-linecap="square" fill="none" transform="matrix(11.808,0,0,11.808,0,0)" stroke-opacity="1" font-style="normal" stroke-width="1" font-weight="400" font-family="MS Shell Dlg 2"/>
  <g stroke-linejoin="bevel" font-size="34.5833" stroke="#000000" stroke-linecap="square" fill="none" transform="matrix(1,0,0,1,0,0)" stroke-opacity="1" font-style="normal" stroke-width="1" font-weight="400" font-family="MS Shell Dlg 2"/>
 </g>
</svg>
