<?xml version='1.0' encoding='UTF-8' standalone='no'?>
<svg xmlns:xlink="http://www.w3.org/1999/xlink" baseProfile="tiny" version="1.2" viewBox="0 0 2952 2952" height="249.936mm" width="249.936mm" xmlns="http://www.w3.org/2000/svg">
 <title>Qt SVG Document</title>
 <desc>Generated with Qt</desc>
 <defs/>
 <g stroke-linejoin="bevel" stroke="black" stroke-linecap="square" fill="none" stroke-width="1" fill-rule="evenodd">
  <g stroke-linejoin="bevel" font-size="34.5833" stroke="#000000" stroke-linecap="square" fill="none" transform="matrix(1,0,0,1,0,0)" stroke-opacity="1" font-style="normal" stroke-width="1" font-weight="400" font-family="MS Shell Dlg 2"/>
  <g stroke-linejoin="bevel" font-size="34.5833" stroke="#000000" stroke-linecap="square" fill="none" transform="matrix(1,0,0,1,0,0)" stroke-opacity="1" font-style="normal" stroke-width="1" font-weight="400" font-family="MS Shell Dlg 2"/>
  <g stroke-linejoin="bevel" font-size="34.5833" stroke="#000000" stroke-linecap="square" fill="none" transform="matrix(11.808,0,0,11.808,0,0)" stroke-opacity="1" font-style="normal" stroke-width="1" font-weight="400" font-family="MS Shell Dlg 2"/>
  <g stroke-linejoin="bevel" font-size="34.5833" stroke="#000000" stroke-linecap="square" fill="none" transform="matrix(0.999744,0,0,0.999744,0,0)" stroke-opacity="1" font-style="normal" stroke-width="1" font-weight="400" font-family="MS Shell Dlg 2"/>
  <g font-size="34.5833" stroke="none" fill-opacity="0" fill="#ffffff" transform="matrix(0.999744,0,0,0.999744,0,0)" font-style="normal" font-weight="400" font-family="MS Shell Dlg 2">
   <path vector-effect="none" d="M-2,-2 L2955,-2 L2955,2955 L-2,2955 L-2,-2" fill-rule="evenodd"/>
  </g>
  <g stroke-linejoin="bevel" font-size="34.5833" stroke="#000000" stroke-linecap="square" fill="none" transform="matrix(0.999744,0,0,0.999744,0,0)" stroke-opacity="1" font-style="normal" stroke-width="1" font-weight="400" font-family="MS Shell Dlg 2"/>
  <g stroke-linejoin="bevel" font-size="34.5833" stroke="#000000" stroke-linecap="square" fill="none" transform="matrix(11.808,0,0,11.808,0,0)" stroke-opacity="1" font-style="normal" stroke-width="1" font-weight="400" font-family="MS Shell Dlg 2"/>
  <g stroke-linejoin="bevel" font-size="34.5833" stroke="#000000" stroke-linecap="square" fill="none" transform="matrix(11.808,0,0,11.808,0,0)" stroke-opacity="1" font-style="normal" stroke-width="1" font-weight="400" font-family="MS Shell Dlg 2"/>
  <g stroke-linejoin="bevel" font-size="34.5833" stroke="#000000" stroke-linecap="square" fill="none" transform="matrix(11.808,0,0,11.808,0,0)" stroke-opacity="1" font-style="normal" stroke-width="1" font-weight="400" font-family="MS Shell Dlg 2"/>
  <g stroke-linejoin="bevel" font-size="34.5833" stroke="#000000" stroke-linecap="square" fill="none" transform="matrix(11.808,0,0,11.808,0,0)" stroke-opacity="1" font-style="normal" stroke-width="1" font-weight="400" font-family="MS Shell Dlg 2"/>
  <g stroke-linejoin="bevel" font-size="34.5833" stroke="#000000" stroke-linecap="square" fill="none" transform="matrix(11.808,0,0,11.808,0,0)" stroke-opacity="1" font-style="normal" stroke-width="1" font-weight="400" font-family="MS Shell Dlg 2"/>
  <g font-size="34.5833" stroke="none" fill-opacity="0" fill="#ffffff" transform="matrix(11.808,0,0,11.808,0,0)" font-style="normal" font-weight="400" font-family="MS Shell Dlg 2">
   <path vector-effect="none" d="M0,0 L250,0 L250,250 L0,250 L0,0" fill-rule="evenodd"/>
  </g>
  <g stroke-linejoin="bevel" font-size="34.5833" stroke="#000000" stroke-linecap="square" fill="none" transform="matrix(11.808,0,0,11.808,0,0)" stroke-opacity="1" font-style="normal" stroke-width="1" font-weight="400" font-family="MS Shell Dlg 2"/>
  <g stroke-linejoin="bevel" font-size="34.5833" stroke="#000000" stroke-linecap="square" fill="none" transform="matrix(11.808,0,0,11.808,0,0)" stroke-opacity="1" font-style="normal" stroke-width="1" font-weight="400" font-family="MS Shell Dlg 2"/>
  <g font-size="34.5833" stroke="none" fill-opacity="0" fill="#000000" transform="matrix(0.999744,0,0,0.999744,0,0)" font-style="normal" font-weight="400" font-family="MS Shell Dlg 2">
   <rect y="0" height="2953" width="2953" x="0"/>
  </g>
  <g stroke-linejoin="bevel" font-size="34.5833" stroke="#000000" stroke-linecap="square" fill="none" transform="matrix(0.999744,0,0,0.999744,0,0)" stroke-opacity="1" font-style="normal" stroke-width="1" font-weight="400" font-family="MS Shell Dlg 2"/>
  <g stroke-linejoin="bevel" font-size="34.5833" stroke="#5c5c5c" fill-opacity="1" stroke-linecap="square" fill="#c5c5c5" transform="matrix(0.999744,0,0,0.999744,0,0)" stroke-opacity="1" font-style="normal" stroke-width="3.07087" font-weight="400" font-family="MS Shell Dlg 2">
   <path vector-effect="none" d="M301.882,1249.72 L302.619,1248.62 L308.139,1240.39 L310.259,1238.03 L314.397,1231.05 L315.601,1223.01 L316.104,1219.66 L315.281,1201.59 L314.111,1198.5 L319.625,1180.1 L328.213,1160.86 L339.589,1148.42 L352.738,1134.69 L356.035,1120.68 L356.035,1102.54 L355.623,1091.82 L352.545,1076.99 L366.164,1061.34 L371.743,1060.01 L373.232,1057.2 L376.327,1055.39 L392.72,1045.66 L404.673,1021.34 L403.024,979.709 L403.436,962.809 L404.673,951.68 L402.612,939.727 L399.315,926.949 L393.972,914.01 L397.969,891.916 L407.738,868.987 L428.924,800.085 L438.296,772.486 L442.432,765.501 L446.261,751.734 L446.064,747.412 L445.942,744.738 L445.942,744.735 L445.746,740.416 L445.442,739.862 L437.415,661.74 L437.58,630.964 L437.25,617.774 L436.701,611.399 L437.25,606.453 L438.459,596.121 L437.14,586.008 L444.274,559.705 L447.362,549.846 L453.375,509.65 L468.466,498.295 L483.965,487.304 L502.639,466.123 L509.106,434.608 L514.094,431.239 L518.54,431.04 L526.777,427.74 L535.68,428.729 L542.803,427.246 L549.529,422.794 L565.852,416.76 L574.359,413 L578.811,408.252 L580.196,406.471 L584.252,401.921 L584.252,395.491 L585.142,386.39 L584.252,378.476 L585.34,370.265 L586.354,360.138 L589.744,351.951 L590.23,346.633 L590.981,339.998 L597.575,325.571 L608.673,306.729 L610.426,307.153 L612.284,307.479 L615.546,308.157 L617.954,312.064 L622.317,313.821 L623.154,314.006 L623.413,314.081 L623.591,314.173 L625.094,314.983 L643.319,322.432 L652.766,327.97 L666.242,337.623 L685.801,337.288 L685.979,337.283 L692.474,337.115 L699.193,336.941 L705.234,338.425 L707.671,339.024 L709.232,339.408 L714.908,340.508 L721.68,342.47 L730.572,342.07 L735.123,344.139 L741.996,348.358 L744.527,355.057 L749.489,366.175 L754.244,372.767 L756.982,383.99 L761.738,390.571 L764.167,395.001 L764.025,396.499 L762.664,410.946 L762.974,417.738 L752.373,429.559 L746.013,436.656 L741.876,443.647 L742.082,448.17 L742.391,454.962 L742.803,464.021 L740.785,468.649 L736.829,469.846 L737.062,473.336 L735.043,489.314 L735.249,493.837 L735.558,500.628 L735.765,505.163 L744.966,511.553 L749.514,513.609 L754.065,515.676 L759.744,519.182 L770.14,526.284 L776.912,528.246 L777.588,528.873 L779.239,530.408 L786.114,534.637 L788.472,540.86 L788.646,541.32 L791.075,545.748 L789.367,557.165 L789.52,560.515 L789.882,568.477 L785.746,575.465 L783.727,580.092 L783.934,584.626 L784.14,589.148 L786.671,595.831 L784.757,602.725 L784.963,607.246 L783.049,614.141 L781.444,627.811 L779.427,632.437 L779.593,636.066 L779.634,636.958 L777.822,646.107 L773.685,653.094 L776.321,662.042 L774.2,664.414 L772.492,675.816 L770.784,687.229 L771.197,696.283 L769.385,705.429 L767.574,714.575 L765.906,718.077 L763.643,726.093 L766.072,730.507 L777.496,736.8 L791.143,742.975 L797.915,744.936 L800.485,745.476 L806.911,746.803 L813.581,746.497 L822.369,743.833 L833.381,741.074 L836.661,739.795 L839.948,738.514 L844.393,738.315 L851.165,740.276 L855.612,740.075 L864.504,739.677 L871.174,739.371 L879.962,736.706 L884.409,736.507 L890.975,733.947 L895.318,731.482 L901.986,731.189 L915.223,728.323 L919.668,728.124 L921.789,725.753 L934.921,720.633 L943.709,717.968 L950.276,715.409 L961.361,711.442 L965.6,711.708 L974.321,708.293 L980.907,707.37 L983.504,707.795 L989.668,708.804 L994.43,706.614 L1001.1,706.309 L1005.44,703.855 L1014.33,703.456 L1021,703.151 L1036.56,702.447 L1043.23,702.152 L1049.9,701.848 L1061.12,703.609 L1067.79,703.303 L1072.34,705.369 L1092.96,718.039 L1101.96,719.893 L1106.82,728.747 L1109.25,733.173 L1111.68,737.599 L1114.32,743.235 L1116.64,748.704 L1119.27,757.651 L1119.48,762.172 L1121.91,766.595 L1122.11,771.118 L1122.52,780.164 L1122.73,784.688 L1125.16,789.11 L1125.37,793.634 L1130.22,802.479 L1134.87,806.801 L1137.3,811.224 L1139.63,813.385 L1139.84,817.908 L1142.47,826.853 L1145.21,838.059 L1147.64,842.481 L1147.84,847.004 L1148.15,853.788 L1150.69,860.47 L1153.12,864.892 L1153.53,873.937 L1151.82,885.342 L1149.91,892.225 L1147.99,899.108 L1139.51,908.551 L1137.39,910.913 L1135.48,917.795 L1133.46,922.417 L1133.67,926.939 L1131.75,933.821 L1130.87,938.288 L1129.94,942.964 L1125.8,949.945 L1123.89,956.827 L1120.51,964.573 L1117.84,970.692 L1111.48,977.773 L1109.46,982.393 L1102.15,987.321 L1098.66,989.675 L1089.97,994.597 L1087.85,996.957 L1085.1,999.004 L1081.38,1001.78 L1074.82,1004.34 L1070.58,1009.06 L1061.89,1013.98 L1055.33,1016.54 L1048.76,1019.1 L1042.19,1021.66 L1033.61,1028.84 L1029.17,1029.04 L1017.89,1033.87 L1011.69,1036.63 L1007.35,1039.09 L1000.78,1041.65 L996.438,1044.11 L992.197,1048.83 L990.18,1053.45 L992.262,1057.23 L1001.81,1064.25 L1011.01,1070.63 L1017.03,1073.93 L1022.44,1076.9 L1027.09,1081.22 L1031.84,1087.8 L1040.94,1091.92 L1045.39,1099.8 L1050.45,1105.08 L1059.99,1108.71 L1084.42,1117.14 L1088.96,1119.19 L1097.65,1114.28 L1101.99,1111.82 L1105.79,1107.59 L1106.23,1107.1 L1114.82,1099.92 L1119.06,1095.2 L1125.62,1092.64 L1129.97,1090.18 L1132.29,1092.34 L1139.27,1098.81 L1144.23,1109.91 L1145.39,1112.02 L1149.09,1118.75 L1151.83,1129.95 L1152.24,1138.99 L1156.79,1141.05 L1152.96,1154.8 L1153.17,1159.32 L1149.03,1166.3 L1145,1175.54 L1145.2,1180.06 L1145.33,1184.67 L1148.9,1187.79 L1152.25,1191.19 L1157.86,1196.91 L1160.02,1197.87 L1168.46,1201.65 L1179.58,1201.15 L1186.45,1205.36 L1186.86,1214.4 L1189.4,1221.08 L1190.58,1227.5 L1194.1,1231.48 L1194.55,1231.99 L1198.74,1236.73 L1202.66,1241.16 L1204.18,1252.1 L1209.09,1255.11 L1215.5,1256.12 L1222.37,1260.34 L1228.3,1259.47 L1230.91,1261.84 L1233.55,1264.5 L1235.79,1266.75 L1238.77,1270.21 L1243.88,1274.23 L1265.74,1283.28 L1272.72,1289.76 L1276.45,1299.7 L1275.77,1307.72 L1278.3,1314.4 L1280.83,1321.08 L1281.14,1327.85 L1283.68,1334.53 L1288.33,1338.84 L1297.32,1340.7 L1301.87,1342.76 L1306.42,1344.82 L1310.87,1344.62 L1322.08,1346.37 L1330.98,1345.97 L1333.1,1343.62 L1341.99,1343.22 L1350.88,1342.81 L1359.57,1337.9 L1364.06,1335.99 L1366.18,1334.45 L1368.25,1332.98 L1372.39,1326.01 L1374.41,1321.39 L1383.88,1310.85 L1385.01,1309.6 L1395.56,1303.92 L1404.5,1297.4 L1413.5,1299.26 L1422.9,1310.15 L1427.56,1317.15 L1430.29,1325.66 L1440.5,1331.92 L1444.04,1334.1 L1453.14,1338.21 L1459.81,1337.91 L1468.7,1337.51 L1479.72,1334.75 L1492.95,1331.89 L1498.35,1330.73 L1506.19,1329.03 L1519.42,1326.17 L1523.87,1325.97 L1534.88,1323.22 L1539.33,1323.02 L1545.89,1320.46 L1563.04,1316.03 L1568.12,1319.46 L1574.79,1319.16 L1579.44,1323.47 L1579.74,1323.46 L1590.56,1322.97 L1603.8,1320.11 L1610.46,1319.81 L1619.25,1317.16 L1620.87,1316.41 L1630.16,1312.14 L1641.28,1311.64 L1663.3,1306.12 L1673.89,1303.47 L1678.66,1300.9 L1679.89,1294.71 L1692.28,1292.03 L1715.44,1284.22 L1719.78,1278.67 L1723.04,1277.2 L1734.18,1264.83 L1745.02,1251.5 L1751.69,1243.31 L1760.7,1234.71 L1786.17,1225.56 L1803.14,1219.1 L1835.5,1218.03 L1864.67,1213.19 L1875.28,1214.26 L1905.52,1216.41 L1928.86,1212.11 L1950.07,1199.74 L1955.3,1192.14 L1962.28,1181.98 L1962.81,1173.37 L1955.91,1153.46 L1943.71,1122.25 L1940.76,1110.29 L1937.87,1098.57 L1928.86,1078.12 L1928.33,1056.06 L1928.86,1043.68 L1933.1,1026.99 L1932.85,1023.13 L1953.59,1028.16 L1964.81,1029.92 L1976.03,1031.68 L1979.14,1030.47 L1982.59,1029.12 L1991.59,1030.98 L1997.88,1032.41 L2023.5,1038.23 L2031.96,1038.94 L2036.35,1039.31 L2039.26,1039.56 L2041.87,1040.99 L2047.88,1044.29 L2061.53,1050.47 L2068.3,1052.43 L2075.18,1056.65 L2081.95,1058.61 L2084.27,1060.77 L2102.58,1071.27 L2111.78,1077.65 L2120.88,1081.77 L2123.2,1083.93 L2130.59,1099.45 L2135.25,1103.77 L2137.78,1110.44 L2140.1,1112.6 L2140.31,1117.12 L2142.84,1123.8 L2147.91,1137.16 L2155.19,1150.42 L2157.83,1159.35 L2160.36,1166.03 L2164.9,1168.09 L2171.47,1165.53 L2180.46,1167.39 L2184.81,1164.93 L2189.16,1162.47 L2197.95,1159.81 L2204.62,1159.51 L2215.52,1154.49 L2217.84,1156.65 L2226.85,1158.51 L2231.29,1158.31 L2237.86,1155.75 L2250.99,1150.63 L2255.43,1150.43 L2262.1,1150.13 L2270.89,1147.47 L2277.56,1147.17 L2282.11,1149.23 L2291.11,1151.09 L2297.88,1153.04 L2309.3,1159.32 L2316.28,1165.8 L2334.58,1176.3 L2350.35,1180.11 L2364.3,1193.07 L2368.96,1197.39 L2373.61,1201.7 L2380.58,1208.18 L2389.78,1214.56 L2394.34,1216.62 L2403.54,1222.99 L2414.96,1229.27 L2426.28,1233.29 L2433.06,1235.25 L2439.83,1237.2 L2446.7,1241.42 L2453.58,1245.64 L2462.47,1245.24 L2464.79,1247.4 L2469.35,1249.46 L2480.77,1255.73 L2492.09,1259.75 L2496.64,1261.81 L2503.51,1266.02 L2510.49,1272.5 L2526.26,1276.32 L2530.81,1278.38 L2537.69,1282.59 L2540.43,1293.79 L2545.28,1302.62 L2550.14,1311.45 L2554.68,1313.51 L2559.34,1317.83 L2561.98,1326.76 L2564.41,1331.18 L2569.4,1331.87 L2571.89,1339.83 L2577.88,1343.65 L2585.88,1352.6 L2588.93,1353.32 L2594.35,1357.1 L2598.68,1365.01 L2603.95,1367.87 L2606.27,1370.03 L2615.47,1376.4 L2620.13,1380.72 L2627,1384.93 L2631.85,1393.77 L2634.39,1400.44 L2636.83,1404.86 L2639.15,1407.01 L2641.79,1415.94 L2642.09,1422.72 L2642.5,1431.75 L2642.92,1440.78 L2641.1,1449.91 L2632.63,1459.34 L2630.5,1461.7 L2624.04,1466.52 L2619.9,1473.49 L2620.32,1482.52 L2624.96,1486.83 L2627.5,1493.51 L2621.35,1505.09 L2621.55,1509.61 L2621.71,1512.98 L2621.76,1514.12 L2619.74,1518.74 L2622.82,1521.6 L2629.04,1527.37 L2631.32,1533.36 L2631.58,1534.04 L2636.22,1538.35 L2640.78,1540.41 L2643.31,1547.08 L2643.72,1556.11 L2644.03,1562.88 L2642.84,1568.91 L2642.23,1572.01 L2642.42,1576.53 L2641.73,1578.12 L2640.41,1581.14 L2640.81,1590.17 L2640.84,1590.74 L2641.03,1594.73 L2641.04,1595.05 L2641.13,1596.94 L2641.44,1603.71 L2641.48,1604.58 L2641.75,1610.48 L2642.16,1619.51 L2642.88,1635.31 L2643.18,1642.07 L2652.49,1650.7 L2657.24,1657.27 L2662.21,1668.35 L2662.52,1675.12 L2662.93,1684.15 L2661.19,1686.09 L2663.1,1689.59 L2665.74,1694.4 L2666.03,1700.47 L2678.26,1708.02 L2682.59,1715.92 L2678.12,1724.16 L2680.01,1730.55 L2679.84,1733.02 L2680.67,1736.01 L2683.6,1746.52 L2681.79,1755.65 L2686.64,1764.47 L2695.74,1768.59 L2700.4,1772.9 L2705.05,1777.21 L2707.48,1781.62 L2707.89,1790.64 L2703.86,1799.87 L2695.37,1809.29 L2693.36,1813.9 L2692.18,1819.86 L2697.64,1824.64 L2703.76,1828.41 L2709.97,1834.21 L2712.42,1844.22 L2709.14,1858.55 L2709.43,1864.61 L2705.87,1872.88 L2704.18,1879.03 L2700.61,1887.29 L2700.89,1893.36 L2697.61,1907.68 L2692.38,1913.56 L2688.3,1920.26 L2682.68,1926.59 L2677.12,1934.95 L2673.37,1939.17 L2669.79,1947.43 L2662.37,1957.89 L2652.59,1960.36 L2642.72,1960.81 L2636.89,1963.1 L2627.11,1965.57 L2615.25,1966.11 L2601.42,1966.74 L2595.41,1964.99 L2585.53,1965.44 L2571.79,1968.09 L2561.82,1966.52 L2548.18,1971.19 L2538.21,1969.62 L2526.46,1972.18 L2514.61,1972.72 L2508.68,1972.99 L2493.16,1979.77 L2487.33,1982.06 L2481.49,1984.35 L2473.78,1988.76 L2465.98,1991.14 L2458.27,1995.54 L2442.95,2006.36 L2435.42,2014.8 L2431.67,2019.02 L2421.98,2023.51 L2412.39,2030.02 L2406.75,2036.35 L2402.99,2040.57 L2399.24,2044.79 L2391.62,2051.21 L2385.88,2055.52 L2378.17,2059.92 L2366.81,2070.57 L2359.37,2081.02 L2353.83,2089.38 L2348.28,2097.73 L2325.16,2110.92 L2317.54,2117.34 L2309.93,2123.76 L2304.1,2126.05 L2292.63,2134.67 L2281.07,2141.27 L2275.14,2141.54 L2269.5,2147.87 L2259.91,2154.38 L2256.39,2158.82 L2244.96,2173.28 L2237.26,2177.67 L2231.52,2181.98 L2220.24,2194.64 L2214.6,2200.97 L2210.84,2205.19 L2197.6,2217.93 L2189.98,2224.35 L2184.53,2234.72 L2180.96,2242.98 L2177.2,2247.19 L2169.49,2251.59 L2163.85,2257.92 L2160.09,2262.14 L2156.33,2266.36 L2148.71,2272.77 L2144.96,2276.99 L2135.46,2285.52 L2131.71,2289.74 L2126.06,2296.06 L2120.42,2302.39 L2114.69,2306.7 L2107.08,2313.12 L2103.42,2319.35 L2097.78,2325.68 L2092.24,2334.02 L2084.8,2344.48 L2073.24,2351.07 L2071.55,2357.22 L2065.91,2363.55 L2060.28,2369.87 L2054.64,2376.2 L2049,2382.52 L2043.45,2390.87 L2032.37,2407.56 L2022.87,2416.08 L2009.53,2426.8 L2001.91,2433.22 L1998.15,2437.43 L1988.66,2445.96 L1984.9,2450.17 L1981.72,2452.85 L1977.28,2456.59 L1969.86,2467.04 L1964.13,2471.34 L1952.66,2479.96 L1945.04,2486.37 L1939.3,2490.68 L1929.81,2499.2 L1924.17,2505.52 L1918.53,2511.85 L1914.77,2516.06 L1907.06,2520.46 L1895.59,2529.07 L1887.88,2533.46 L1880.27,2539.88 L1874.63,2546.2 L1867.11,2554.63 L1863.35,2558.85 L1851.97,2569.48 L1846.33,2575.8 L1832.98,2586.52 L1821.52,2595.13 L1813.8,2599.52 L1806,2601.9 L1788.7,2612.8 L1782.97,2617.1 L1769.25,2625.74 L1766.02,2628.43 L1759.83,2630.28 L1752.12,2634.68 L1743.92,2641.84 L1737.72,2642.68 L1722.91,2652.24 L1718.26,2653.25 L1711.66,2657.39 L1700.75,2662.39 L1696.51,2667.09 L1691.11,2669.86 L1664.29,2666.34 L1656.22,2665.27 L1652.62,2664.8 L1644.98,2663.8 L1638.4,2662.93 L1633.85,2660.88 L1629.41,2661.08 L1620.51,2661.48 L1618.19,2659.33 L1606.97,2657.57 L1602.42,2655.52 L1588.98,2653.87 L1584.43,2651.82 L1573.32,2652.32 L1570.99,2650.17 L1565.01,2649.57 L1555.32,2648.61 L1550.82,2647.88 L1546.26,2647.33 L1542.85,2646.92 L1534.83,2644.56 L1531.39,2646.51 L1526.12,2643.16 L1517.12,2641.3 L1508.13,2639.45 L1503.68,2639.65 L1496.8,2635.45 L1488.03,2634.36 L1479.12,2633.26 L1474.37,2631.94 L1462.87,2629.93 L1460.46,2628.99 L1456.66,2627.5 L1451.61,2625.53 L1446.68,2622.73 L1442.43,2620.16 L1440.11,2618.76 L1431.68,2615.19 L1426.76,2613.77 L1417.84,2614.22 L1407.06,2610.4 L1396.3,2607.92 L1381.48,2602.83 L1376.07,2600.25 L1359.91,2595.19 L1351.8,2591.32 L1343.67,2586.1 L1327.45,2578.35 L1320.65,2573.1 L1309.87,2569.28 L1297.47,2563.17 L1288.27,2556.81 L1274.62,2550.65 L1265.52,2546.55 L1256.32,2540.19 L1247.32,2538.34 L1240.55,2536.39 L1227.11,2534.73 L1222.77,2537.19 L1213.88,2537.59 L1205.09,2540.24 L1196.4,2545.14 L1187.71,2550.18 L1176.6,2550.54 L1172.26,2552.99 L1168.88,2553.84 L1161.24,2555.74 L1152.45,2558.4 L1150.33,2560.75 L1132.34,2557.05 L1121.43,2562.04 L1119.11,2559.89 L1110.32,2562.54 L1099.2,2563.04 L1096.58,2563.16 L1085.87,2563.64 L1065.86,2564.54 L1061.41,2564.74 L1050.19,2562.99 L1029.77,2554.88 L1027.45,2552.72 L1020.98,2557.53 L1018.56,2553.12 L999.063,2565.28 L996.943,2567.63 L992.6,2570.08 L988.463,2577.04 L984.905,2580.99 L976.556,2586.92 L974.426,2590.27 L969.383,2598.2 L964.833,2596.15 L963.767,2592.26 L960.18,2591.85 L956.819,2587.02 L953.236,2587.09 L944.93,2587.26 L933.195,2586.29 L928.646,2584.24 L928.234,2575.23 L930.148,2568.37 L932.165,2563.77 L935.617,2556.62 L934.386,2550.04 L933.564,2545.66 L926.574,2540.54 L918.408,2533.98 L912.609,2530.8 L908.935,2528.79 L903.944,2531.19 L897.171,2529.24 L893.03,2523.56 L890.071,2522.43 L885.54,2518.48 L885.129,2509.47 L884.717,2500.46 L878.9,2496.03 L873.385,2491.82 L866.471,2493.36 L862.794,2497.41 L858.836,2500.18 L853.492,2499.6 L846.822,2499.9 L838.828,2503.27 L832.083,2500.71 L828.199,2496.96 L822.266,2498.75 L813.167,2494.64 L810.234,2491.93 L805.471,2490.14 L802.741,2488.06 L796.039,2482.95 L792.043,2479.06 L787.581,2470.97 L787.375,2466.46 L791.409,2457.25 L797.843,2452.58 L797.929,2446.82 L800.211,2442.35 L801.73,2439.38 L800.484,2437.11 L796.92,2430.6 L795.984,2427.94 L794.376,2423.39 L796.871,2415.31 L797.162,2401.9 L793.807,2396.53 L790.645,2391.83 L781.66,2391.39 L774.889,2387.48 L768.118,2383.58 L759.871,2372.98 L758.229,2358.21 L755.417,2351.54 L752.15,2343.33 L749.581,2336.87 L749.017,2332.9 L748.133,2328.2 L747.48,2324.73 L747.231,2319.28 L740.936,2318.52 L737.954,2314.4 L734.484,2312.33 L730.424,2307.62 L723.626,2302.37 L716.829,2297.12 L714.353,2282.39 L713.118,2277.46 L709.556,2269 L703.984,2258.35 L697.105,2249.06 L691.613,2242.44 L691.378,2233.76 L696.118,2224.49 L699.977,2221.34 L705.803,2216.58 L706.126,2212.97 L701.962,2206.16 L701.345,2192.64 L705.193,2188.36 L709.825,2183.22 L718.717,2182.82 L722.845,2183.52 L728.412,2184.47 L734.279,2182.12 L738.521,2180.94 L745.015,2171.38 L752.899,2164.5 L757.393,2151.72 L759.201,2145.52 L759.631,2135.68 L759.782,2132.23 L758.586,2129.08 L758.278,2122.32 L764.638,2115.26 L766.655,2110.65 L768.673,2106.04 L777.461,2103.39 L786.251,2100.73 L799.692,2102.39 L804.241,2104.44 L815.253,2101.69 L819.803,2103.74 L828.591,2101.09 L835.054,2096.28 L837.175,2093.93 L843.535,2086.87 L845.448,2080 L847.26,2070.89 L849.277,2066.28 L853.106,2052.55 L861.482,2040.88 L863.5,2036.27 L867.739,2031.56 L867.534,2027.05 L869.448,2020.19 L877.928,2010.77 L888.631,2001.25 L895.198,1998.7 L899.437,1993.99 L901.249,1984.87 L898.614,1975.95 L896.185,1971.54 L893.858,1969.38 L895.36,1953.5 L898.1,1944.17 L897.058,1939.45 L896.962,1935.3 L896.185,1932.57 L893.736,1920.66 L888.855,1908.6 L885.864,1905.83 L881.877,1902.13 L877.327,1900.08 L873.612,1899.31 L868.332,1898.22 L861.663,1898.52 L848.428,1901.38 L843.981,1901.58 L839.638,1904.03 L835.191,1904.21 L830.512,1904.43 L826.598,1905.63 L821.331,1905.29 L817.408,1905.03 L814.778,1906.09 L810.875,1907.67 L807.819,1907.77 L804.172,1907.88 L797.372,1909.22 L790.493,1910.58 L786.49,1910.94 L781.087,1911.18 L777.952,1912.33 L774.407,1911.48 L770.93,1911.64 L764.158,1909.68 L759.815,1912.14 L750.442,1911.7 L735.258,1910.98 L728.589,1911.28 L719.594,1909.43 L709.251,1907.32 L698.582,1905.3 L694.831,1903.76 L687.284,1904.1 L683.772,1904.64 L672.394,1900.25 L661.176,1898.49 L656.729,1898.69 L643.185,1894.78 L636.517,1895.08 L629.847,1895.38 L611.96,1893.93 L598.647,1894.47 L592.062,1891.61 L582.957,1892.97 L578.202,1886.41 L573.446,1879.84 L573.24,1875.33 L572.931,1868.56 L577.068,1861.6 L579.085,1856.98 L581.103,1852.37 L584.441,1846.64 L580.078,1841.39 L575.728,1832.27 L566.735,1830.42 L562.186,1828.36 L559.859,1826.21 L555.207,1821.9 L549.073,1818.36 L548.679,1815.37 L543.577,1811.12 L538.924,1806.8 L540.736,1797.68 L540.53,1793.17 L540.324,1788.66 L544.358,1779.44 L547.542,1770.38 L547.98,1761.19 L547.759,1754.42 L547.577,1745.63 L544.624,1736.47 L540.076,1734.41 L533.096,1727.94 L526.118,1721.48 L522.918,1720.77 L515.024,1719.04 L508.128,1717.76 L494.584,1713.85 L483.366,1712.09 L478.816,1710.04 L465.237,1710.87 L458.809,1710.94 L454.465,1713.39 L447.694,1711.44 L443.247,1711.64 L438.596,1707.33 L431.927,1707.63 L427.274,1703.31 L424.948,1701.16 L420.696,1686.76 L445.179,1607.54 L451.436,1598.21 L455.009,1580.1 L457.076,1575.34 L461.007,1563.85 L467.264,1554.52 L462.714,1552.47 L462.508,1547.95 L459.564,1532.25 L457.239,1530.09 L458.741,1514.19 L458.753,1514.17 L460.757,1509.58 L464.688,1498.09 L464.401,1491.83 L464.173,1486.8 L459.419,1480.23 L454.767,1475.92 L450.218,1473.86 L445.669,1471.8 L434.244,1465.53 L428.885,1469.45 L426.143,1469.19 L426.141,1469.19 L418.785,1468.49 L417.065,1468.13 L409.791,1466.63 L409.487,1466.35 L402.813,1460.16 L398.057,1453.58 L396.273,1450.34 L395.628,1449.17 L390.667,1438.08 L386.118,1436.02 L385.004,1434 L381.259,1427.19 L376.608,1422.87 L374.282,1420.72 L369.114,1405.11 L364.952,1395.81 L364.153,1394.02 L363.247,1389.55 L362.616,1386.45 L359.78,1383.23 L356.66,1376.26 L356.456,1371.74 L356.938,1364.71 L355.509,1363.72 L348.695,1360.75 L340.231,1356.79 L335.724,1352.18 L330.888,1349.43 L328.14,1345.14 L325.502,1333.16 L324.183,1328.21 L317.478,1321.18 L314.291,1312.06 L309.564,1296.67 L303.324,1281.35 L300.276,1263.38 L301.882,1249.72" fill-rule="evenodd"/>
  </g>
  <g stroke-linejoin="bevel" font-size="34.5833" stroke="#000000" stroke-linecap="square" fill="none" transform="matrix(0.999744,0,0,0.999744,0,0)" stroke-opacity="1" font-style="normal" stroke-width="1" font-weight="400" font-family="MS Shell Dlg 2"/>
  <g stroke-linejoin="bevel" font-size="34.5833" stroke="#000000" stroke-linecap="square" fill="none" transform="matrix(11.808,0,0,11.808,0,0)" stroke-opacity="1" font-style="normal" stroke-width="1" font-weight="400" font-family="MS Shell Dlg 2"/>
  <g stroke-linejoin="bevel" font-size="34.5833" stroke="#000000" stroke-linecap="square" fill="none" transform="matrix(11.808,0,0,11.808,0,0)" stroke-opacity="1" font-style="normal" stroke-width="1" font-weight="400" font-family="MS Shell Dlg 2"/>
  <g stroke-linejoin="bevel" font-size="34.5833" stroke="#000000" stroke-linecap="square" fill="none" transform="matrix(11.808,0,0,11.808,0,0)" stroke-opacity="1" font-style="normal" stroke-width="1" font-weight="400" font-family="MS Shell Dlg 2"/>
  <g stroke-linejoin="bevel" font-size="34.5833" stroke="#000000" stroke-linecap="square" fill="none" transform="matrix(1,0,0,1,0,0)" stroke-opacity="1" font-style="normal" stroke-width="1" font-weight="400" font-family="MS Shell Dlg 2"/>
  <g stroke-linejoin="bevel" font-size="34.5833" stroke="#000000" stroke-linecap="square" fill="none" transform="matrix(11.808,0,0,11.808,0,0)" stroke-opacity="1" font-style="normal" stroke-width="1" font-weight="400" font-family="MS Shell Dlg 2"/>
  <g stroke-linejoin="bevel" font-size="34.5833" stroke="#000000" stroke-linecap="square" fill="none" transform="matrix(11.808,0,0,11.808,0,0)" stroke-opacity="1" font-style="normal" stroke-width="1" font-weight="400" font-family="MS Shell Dlg 2"/>
  <g stroke-linejoin="bevel" font-size="34.5833" stroke="#000000" stroke-linecap="square" fill="none" transform="matrix(11.808,0,0,11.808,0,0)" stroke-opacity="1" font-style="normal" stroke-width="1" font-weight="400" font-family="MS Shell Dlg 2"/>
  <g stroke-linejoin="bevel" font-size="34.5833" stroke="#000000" stroke-linecap="square" fill="none" transform="matrix(11.808,0,0,11.808,0,0)" stroke-opacity="1" font-style="normal" stroke-width="1" font-weight="400" font-family="MS Shell Dlg 2"/>
  <g stroke-linejoin="bevel" font-size="34.5833" stroke="#000000" stroke-linecap="square" fill="none" transform="matrix(1,0,0,1,0,0)" stroke-opacity="1" font-style="normal" stroke-width="1" font-weight="400" font-family="MS Shell Dlg 2"/>
 </g>
</svg>
