<?xml version='1.0' encoding='UTF-8' standalone='no'?>
<svg xmlns:xlink="http://www.w3.org/1999/xlink" baseProfile="tiny" version="1.2" viewBox="0 0 2952 2952" height="249.936mm" width="249.936mm" xmlns="http://www.w3.org/2000/svg">
 <title>Qt SVG Document</title>
 <desc>Generated with Qt</desc>
 <defs/>
 <g stroke-linejoin="bevel" stroke="black" stroke-linecap="square" fill="none" stroke-width="1" fill-rule="evenodd">
  <g stroke-linejoin="bevel" font-size="34.5833" stroke="#000000" stroke-linecap="square" fill="none" transform="matrix(1,0,0,1,0,0)" stroke-opacity="1" font-style="normal" stroke-width="1" font-weight="400" font-family="MS Shell Dlg 2"/>
  <g stroke-linejoin="bevel" font-size="34.5833" stroke="#000000" stroke-linecap="square" fill="none" transform="matrix(1,0,0,1,0,0)" stroke-opacity="1" font-style="normal" stroke-width="1" font-weight="400" font-family="MS Shell Dlg 2"/>
  <g stroke-linejoin="bevel" font-size="34.5833" stroke="#000000" stroke-linecap="square" fill="none" transform="matrix(11.808,0,0,11.808,0,0)" stroke-opacity="1" font-style="normal" stroke-width="1" font-weight="400" font-family="MS Shell Dlg 2"/>
  <g stroke-linejoin="bevel" font-size="34.5833" stroke="#000000" stroke-linecap="square" fill="none" transform="matrix(0.999744,0,0,0.999744,0,0)" stroke-opacity="1" font-style="normal" stroke-width="1" font-weight="400" font-family="MS Shell Dlg 2"/>
  <g font-size="34.5833" stroke="none" fill-opacity="0" fill="#ffffff" transform="matrix(0.999744,0,0,0.999744,0,0)" font-style="normal" font-weight="400" font-family="MS Shell Dlg 2">
   <path vector-effect="none" d="M-2,-2 L2955,-2 L2955,2955 L-2,2955 L-2,-2" fill-rule="evenodd"/>
  </g>
  <g stroke-linejoin="bevel" font-size="34.5833" stroke="#000000" stroke-linecap="square" fill="none" transform="matrix(0.999744,0,0,0.999744,0,0)" stroke-opacity="1" font-style="normal" stroke-width="1" font-weight="400" font-family="MS Shell Dlg 2"/>
  <g stroke-linejoin="bevel" font-size="34.5833" stroke="#000000" stroke-linecap="square" fill="none" transform="matrix(11.808,0,0,11.808,0,0)" stroke-opacity="1" font-style="normal" stroke-width="1" font-weight="400" font-family="MS Shell Dlg 2"/>
  <g stroke-linejoin="bevel" font-size="34.5833" stroke="#000000" stroke-linecap="square" fill="none" transform="matrix(11.808,0,0,11.808,0,0)" stroke-opacity="1" font-style="normal" stroke-width="1" font-weight="400" font-family="MS Shell Dlg 2"/>
  <g stroke-linejoin="bevel" font-size="34.5833" stroke="#000000" stroke-linecap="square" fill="none" transform="matrix(11.808,0,0,11.808,0,0)" stroke-opacity="1" font-style="normal" stroke-width="1" font-weight="400" font-family="MS Shell Dlg 2"/>
  <g stroke-linejoin="bevel" font-size="34.5833" stroke="#000000" stroke-linecap="square" fill="none" transform="matrix(11.808,0,0,11.808,0,0)" stroke-opacity="1" font-style="normal" stroke-width="1" font-weight="400" font-family="MS Shell Dlg 2"/>
  <g stroke-linejoin="bevel" font-size="34.5833" stroke="#000000" stroke-linecap="square" fill="none" transform="matrix(11.808,0,0,11.808,0,0)" stroke-opacity="1" font-style="normal" stroke-width="1" font-weight="400" font-family="MS Shell Dlg 2"/>
  <g font-size="34.5833" stroke="none" fill-opacity="0" fill="#ffffff" transform="matrix(11.808,0,0,11.808,0,0)" font-style="normal" font-weight="400" font-family="MS Shell Dlg 2">
   <path vector-effect="none" d="M0,0 L250,0 L250,250 L0,250 L0,0" fill-rule="evenodd"/>
  </g>
  <g stroke-linejoin="bevel" font-size="34.5833" stroke="#000000" stroke-linecap="square" fill="none" transform="matrix(11.808,0,0,11.808,0,0)" stroke-opacity="1" font-style="normal" stroke-width="1" font-weight="400" font-family="MS Shell Dlg 2"/>
  <g stroke-linejoin="bevel" font-size="34.5833" stroke="#000000" stroke-linecap="square" fill="none" transform="matrix(11.808,0,0,11.808,0,0)" stroke-opacity="1" font-style="normal" stroke-width="1" font-weight="400" font-family="MS Shell Dlg 2"/>
  <g font-size="34.5833" stroke="none" fill-opacity="0" fill="#000000" transform="matrix(0.999744,0,0,0.999744,0,0)" font-style="normal" font-weight="400" font-family="MS Shell Dlg 2">
   <rect y="0" height="2953" width="2953" x="0"/>
  </g>
  <g stroke-linejoin="bevel" font-size="34.5833" stroke="#000000" stroke-linecap="square" fill="none" transform="matrix(0.999744,0,0,0.999744,0,0)" stroke-opacity="1" font-style="normal" stroke-width="1" font-weight="400" font-family="MS Shell Dlg 2"/>
  <g stroke-linejoin="bevel" font-size="34.5833" stroke="#5c5c5c" fill-opacity="1" stroke-linecap="square" fill="#c5c5c5" transform="matrix(0.999744,0,0,0.999744,0,0)" stroke-opacity="1" font-style="normal" stroke-width="3.07087" font-weight="400" font-family="MS Shell Dlg 2">
   <path vector-effect="none" d="M166.781,1441.64 L166.781,1441.64 L168.151,1432.33 L168.109,1406.14 L179.15,1375.36 L172.547,1358.85 L170.088,1354.88 L165.002,1328.73 L177.054,1274.05 L179.646,1249.78 L244.118,1248.74 L262.634,1248.01 L265.441,1154.35 L280.745,1161.74 L286.544,1163.12 L310.263,1168.77 L314.605,1169.81 L318.656,1170.05 L320.382,1170.16 L327.99,1170.57 L341.407,1171.42 L344.83,1171.63 L359.582,1172.52 L388.157,1173.53 L410.778,1177.42 L429.666,1187.61 L445.238,1189.25 L445.744,1189.3 L453.893,1186.6 L458.194,1186.73 L464.21,1183.23 L466.359,1181.08 L469.138,1178.31 L476.251,1168.74 L477.186,1167.67 L479.894,1163.31 L485.204,1159.86 L486.979,1157.98 L488.727,1156.13 L493.918,1152.39 L506.156,1147.8 L512.32,1148.83 L515.776,1146.29 L515.815,1146.27 L515.821,1146.26 L515.823,1146.26 L515.823,1146.26 L515.823,1146.26 L515.828,1146.26 L515.837,1146.25 L515.866,1146.23 L517.501,1145.25 L524.933,1144.76 L536.931,1144.78 L541.425,1145.27 L583.3,1135.36 L607.953,1127.75 L621.329,1123.22 L639.72,1116 L660.321,1107.74 L666.657,1112.77 L671.409,1115.1 L684.494,1118.7 L697.064,1124.85 L711.26,1127.79 L713.75,1128.31 L730.908,1138.68 L735.512,1141.03 L740.655,1143.26 L754.635,1149.3 L766.727,1154.53 L783.48,1161.16 L801.649,1168.19 L817.4,1174.28 L821.593,1184.94 L821.596,1184.94 L821.596,1184.94 L822.755,1188.24 L825.943,1195.4 L829.308,1202.95 L831.784,1213.24 L833.852,1221.83 L834.378,1224.02 L841.099,1224.2 L868.526,1218.93 L889.013,1215 L913.043,1201.2 L941.198,1112.54 L1035.81,1116.16 L1078.7,1146.14 L1143.69,1143.63 L1143.62,1143.59 L1148.69,1135.65 L1147.27,1128.99 L1150.48,1126.89 L1167.97,1076.5 L1159.74,1047.13 L1127.54,1003.12 L1113.71,974.789 L1106.98,959.866 L1119.18,887.439 L1116.07,858.854 L1116.06,858.846 L1113.41,809.035 L1076.99,801.452 L1063.16,796.297 L1081.52,731.732 L1072.97,703.821 L1059.96,680.181 L1032.16,641.72 L1005.31,624.391 L1000.44,621.25 L1000.33,621.179 L991.551,616.416 L981.481,610.955 L978.582,609.383 L964.914,601.923 L966.702,599.019 L1003.7,538.922 L1007.34,531.51 L1010.83,524.414 L1013.82,519.511 L1016.08,512.925 L1060.35,529.859 L1067.87,532.979 L1075.77,542.718 L1125.43,576.336 L1155.56,571.037 L1166.54,568.935 L1203.44,563.864 L1203.44,563.864 L1210.2,562.324 L1212.57,561.783 L1233.63,584.706 L1237.79,589.9 L1253.42,593.852 L1267.87,595.228 L1280.59,591.797 L1294.95,587.314 L1320.73,606.93 L1339.97,621.159 L1353.25,631.994 L1360.52,637.628 L1364.05,645.757 L1366.8,647.225 L1373.07,650.837 L1375.72,653.321 L1376.13,657.732 L1403.03,657.686 L1445.21,664.392 L1455.85,624.569 L1451.55,611.833 L1428.52,516.423 L1424.7,472.064 L1441.67,464.158 L1456.73,456.294 L1466.65,450.766 L1471.98,439.049 L1479.33,418.288 L1479.77,413.317 L1479.66,412.074 L1480.22,410.278 L1481.31,405.633 L1481.2,403.26 L1480.98,402.243 L1481.31,397.045 L1481.09,396.141 L1481.09,393.768 L1480.65,392.412 L1479.77,390.943 L1479.55,388.796 L1479.66,387.44 L1480.1,385.745 L1479.77,382.694 L1478.78,380.321 L1478.56,376.931 L1477.57,374.219 L1477.02,370.942 L1475.7,368.229 L1474.59,365.517 L1473.6,362.466 L1473.16,360.206 L1473.05,358.623 L1471.79,354.091 L1471.26,350.645 L1470.85,348 L1469.96,345.405 L1530.64,313.075 L1543.47,307.559 L1577.31,291.318 L1628.47,266.768 L1670.87,227.544 L1705.83,227.162 L1705.83,227.16 L1705.83,227.16 L1702.75,199.418 L1748.69,174.407 L1778.74,177.687 L1785.81,186.07 L1789.28,190.07 L1801.4,202.848 L1810.22,195.119 L1825.01,212.203 L1817.07,217.893 L1813.65,225.654 L1849.66,233.913 L1853.81,236.891 L1856.95,233.593 L1861.63,234.693 L1872.69,224.616 L1899.64,207.299 L1912.91,203.012 L1917.34,202.963 L1916.18,210.928 L1916.15,211.127 L1915.32,216.885 L1914.98,222.199 L1917.11,222.78 L1923.49,224.031 L1929.63,229.151 L1930.82,233.845 L1925.83,239.858 L1919.96,240.798 L1916.29,241.303 L1916.42,248.488 L1927.91,248.527 L1931.76,250.223 L1934.77,257.925 L1935.29,259.493 L1963.71,259.985 L1964.49,259.999 L1964.6,260.001 L1965,260.041 L1968.97,265.331 L1969.82,266.464 L1979.7,279.613 L1979.7,279.613 L1985.64,287.509 L1987.75,290.468 L1990.28,293.693 L1992.95,305.379 L1996.87,315.062 L2000.74,320.86 L2008.72,325.228 L2016.11,330.656 L2019.54,334.745 L2025.35,343.892 L2035.24,349.303 L2050.39,351.963 L2058.35,355.193 L2086.46,327.99 L2141.93,275.82 L2170.59,259.493 L2171.69,246.944 L2173.23,236.316 L2175.54,230.444 L2215.38,241.028 L2216.7,241.378 L2236.94,246.755 L2321.35,218.539 L2368.98,274.619 L2455.65,376.668 L2464.6,377.027 L2465.01,377.042 L2470.54,377.231 L2473.49,377.386 L2475.48,377.468 L2476.58,377.503 L2478.4,377.687 L2479.44,377.694 L2481.94,377.844 L2485.86,377.875 L2487.63,377.958 L2488.39,378.007 L2489.17,378.034 L2506.75,378.822 L2509.15,378.902 L2511.03,379.016 L2513.86,379.138 L2516.01,379.319 L2525.15,379.566 L2529.98,379.687 L2537.42,379.991 L2541.68,380.205 L2553.55,380.71 L2568.27,380.856 L2571.55,380.858 L2574.15,380.727 L2575.5,380.59 L2576.39,392.359 L2573.31,395.563 L2574.82,398.711 L2575.04,401.718 L2574.58,405.709 L2574.39,410.747 L2574.69,414.223 L2573.08,415.981 L2572.95,419.384 L2574.19,420.627 L2573.67,424.487 L2579.43,429.328 L2581.72,430.964 L2584.4,433.908 L2585.18,434.89 L2585.25,435.871 L2584.14,436.591 L2583.15,437.31 L2583.61,439.404 L2583.07,441.258 L2581.32,444.049 L2579.49,444.704 L2576.87,444.769 L2575.43,446.535 L2576.68,449.153 L2576.68,450.461 L2574.65,451.377 L2573.6,454.387 L2574.39,456.022 L2575.57,456.807 L2577.86,456.611 L2580.09,459.322 L2581.04,462.114 L2582.24,465.575 L2584.01,468.257 L2585.12,472.052 L2585.84,472.968 L2586.82,471.855 L2587.73,472.052 L2588.13,475.388 L2587.08,477.286 L2586.96,479.177 L2591.42,479.409 L2590.42,482.127 L2591.4,483.174 L2591.6,485.15 L2591.27,487.231 L2589.76,490.109 L2591.4,496.456 L2592.32,502.102 L2592.28,505.419 L2591.05,509.847 L2592.56,514.275 L2590.93,519.349 L2590.88,539.343 L2588.62,557.344 L2589.09,563.503 L2594.91,570.238 L2581.16,580.319 L2592.6,594.64 L2592.54,606.991 L2585.96,649.814 L2586.26,674.498 L2566.77,697.363 L2541.09,719.113 L2507.29,749.445 L2519.77,752.834 L2537.66,757.553 L2541.68,758.612 L2541.78,758.67 L2541.94,758.755 L2541.94,758.755 L2542.13,758.806 L2557.95,763.068 L2557.95,763.068 L2557.95,763.068 L2562.67,766.036 L2568.38,765.905 L2569.66,772.264 L2570.39,775.9 L2571.38,789.779 L2571.16,793.955 L2570.06,810.203 L2570.39,812.397 L2570.39,812.397 L2571.65,819.845 L2576.23,846.985 L2574.71,860.435 L2575.91,873.289 L2576.78,884.89 L2575.79,900.118 L2578.54,912.074 L2578.54,926.737 L2579.01,929.181 L2579.01,929.182 L2580.63,937.432 L2580.63,937.433 L2580.63,937.433 L2582.94,948.505 L2584.15,955.046 L2584.81,957.978 L2585.37,966.774 L2585.7,970.834 L2586.03,973.315 L2586.79,978.616 L2591.31,1015.89 L2591.59,1018.47 L2591.97,1022.14 L2593.07,1031.72 L2594.61,1045.14 L2601.69,1086.08 L2612.68,1117.1 L2611.11,1128.09 L2610.59,1137.51 L2614.78,1152.3 L2622.1,1190.24 L2628.52,1196.39 L2636.89,1202.8 L2650.24,1215.37 L2656.65,1220.99 L2660.92,1224.79 L2660.86,1224.8 L2660.73,1224.83 L2673.01,1234.6 L2682.68,1244.35 L2685.04,1247.69 L2684.52,1275.43 L2692.11,1300.03 L2689.89,1308.66 L2685.23,1322.58 L2679.73,1342.75 L2668.14,1360.06 L2660.23,1368.34 L2659.53,1372.92 L2658.26,1380.7 L2657.51,1382.78 L2657.51,1382.78 L2655.61,1388.02 L2653.3,1394.33 L2650.55,1399.06 L2648.5,1402.7 L2666.14,1406.87 L2669.6,1412.15 L2669.47,1416.67 L2669.85,1420.75 L2666.9,1426.22 L2662.85,1431.5 L2664.42,1435.44 L2667.72,1437.01 L2670.87,1438.77 L2673.29,1436.61 L2675.1,1435.2 L2677.38,1436.46 L2679.81,1444.54 L2680.75,1449.73 L2681.62,1455.06 L2683.12,1459.69 L2684.91,1461.42 L2684.86,1464.55 L2684.21,1466.92 L2683.66,1469.04 L2683.11,1471.32 L2684.91,1473.04 L2687.01,1473.53 L2688.2,1475.16 L2688.52,1477.23 L2688.83,1479.68 L2691.85,1482.13 L2695.61,1483.76 L2699.25,1483.7 L2701.26,1484.48 L2705.03,1484.58 L2707.17,1485.58 L2707.92,1489.04 L2708.36,1492.43 L2709.87,1494.82 L2711.82,1497.08 L2713.77,1499.09 L2718.1,1499.59 L2720.74,1501.6 L2722.43,1504.3 L2724.19,1506.25 L2726.96,1506.75 L2728.78,1506.69 L2730.79,1506.75 L2732.66,1508.03 L2734.56,1509.14 L2736.22,1510.31 L2736.82,1513.28 L2741.94,1513.11 L2744.23,1515.94 L2744.98,1520.57 L2748.67,1521.98 L2751.52,1524.86 L2752.76,1531.32 L2750.13,1535.58 L2750.32,1537.6 L2751.7,1542.36 L2751.81,1548.82 L2754.98,1550.81 L2762.16,1552.48 L2762.16,1557.06 L2761.37,1563.15 L2762,1565.04 L2764.2,1565.23 L2765.51,1562.77 L2767.75,1562.25 L2773.95,1565.4 L2781.33,1569.79 L2784.61,1573.74 L2787.85,1577.3 L2790.9,1584.39 L2779.19,1597 L2768.71,1605.83 L2758.44,1606.55 L2738.59,1614 L2738.59,1614 L2734.29,1614.48 L2729.39,1613.16 L2720.36,1610.35 L2708.14,1609.11 L2701.04,1610.86 L2679.96,1607.12 L2674.46,1608.28 L2678.7,1635.36 L2681.33,1642.38 L2680.43,1651.46 L2680.43,1659.39 L2679.12,1667.21 L2676.39,1673.6 L2675.56,1678.07 L2630.36,1710.54 L2601.77,1713.86 L2601.36,1715.4 L2601.36,1715.4 L2599.13,1723.87 L2596.38,1725 L2593.29,1726.34 L2588.34,1728.48 L2585.5,1744.93 L2554.57,1727.94 L2543,1721.08 L2538.5,1716.01 L2518.04,1721.61 L2512.49,1721.13 L2511.49,1720.02 L2510.81,1719.26 L2510.39,1719.69 L2509.87,1720.44 L2509.44,1721.35 L2508.31,1721.43 L2505.97,1722.07 L2505.8,1720.74 L2504.93,1719.82 L2503.62,1719.55 L2502.75,1719.9 L2501.92,1720.86 L2502.02,1721.55 L2501.59,1722.11 L2500.28,1722.24 L2499.72,1722.96 L2497.86,1723.32 L2494.82,1724.43 L2494.71,1724.01 L2494.23,1723.28 L2493.84,1723.87 L2492.86,1726.69 L2490.17,1729.99 L2488.91,1729.91 L2488.32,1729.09 L2487.26,1729.21 L2483.69,1728.81 L2479.37,1728.58 L2478.19,1729.36 L2475.12,1729.6 L2471.48,1730.66 L2470.56,1731.7 L2467.36,1733.17 L2465.08,1730.82 L2462.88,1730.62 L2462.22,1729.13 L2461,1729.48 L2460.84,1730.86 L2459.66,1732.07 L2459.23,1734.19 L2457.23,1736.12 L2454.93,1736.56 L2453.85,1738.04 L2452.4,1738.08 L2450.05,1738.54 L2447.17,1739.29 L2445.99,1740.99 L2443.02,1741.02 L2440.83,1741.51 L2439.91,1742.31 L2437.19,1743.68 L2436.84,1745.34 L2434.03,1747.68 L2431.27,1747.85 L2428.46,1749.44 L2425.99,1749.33 L2424.9,1749.73 L2422.94,1750.1 L2420.16,1749.54 L2418.43,1746.69 L2416.73,1744.17 L2415.52,1741.98 L2414.14,1739.59 L2412.9,1736.81 L2411.74,1734.84 L2410.68,1736.29 L2410.2,1737.47 L2409.73,1740.41 L2410.35,1741.33 L2411.36,1742.7 L2410.84,1744.08 L2411.56,1744.89 L2411.76,1745.94 L2410.64,1746.95 L2409.99,1746.66 L2408.42,1746.99 L2406.42,1747.31 L2404.99,1747.63 L2404.59,1748.33 L2405.31,1749.72 L2405.09,1750.22 L2404.22,1752.24 L2402.56,1754.63 L2401.19,1756.41 L2399.75,1757.03 L2399.91,1758.31 L2400.44,1760.32 L2398,1765.49 L2395.84,1771.9 L2394.14,1777.07 L2390.09,1780.34 L2390.68,1783.74 L2393.69,1787.14 L2393.42,1791.85 L2391.66,1795.71 L2393.33,1806.18 L2392.15,1817.17 L2392.15,1823.45 L2391.64,1827.11 L2388.12,1833.76 L2388.55,1839.71 L2384.98,1847.78 L2381,1856.83 L2375.17,1870.18 L2371.65,1887.61 L2366.24,1898.6 L2359.97,1911.33 L2356.45,1935.16 L2356.92,1940.24 L2359.09,1963.8 L2359.09,1963.83 L2361.74,1970.8 L2373.41,1983.61 L2382.99,1987.21 L2394,1995.52 L2408.51,2006.95 L2408.65,2007.06 L2411.88,2009.59 L2413.72,2011.05 L2414.25,2015.06 L2415.51,2024.76 L2416.08,2028.8 L2416.61,2032.61 L2417.3,2037.56 L2414.54,2044.32 L2412.83,2048.52 L2409.99,2054.32 L2404.76,2064.98 L2410.55,2080.02 L2412.83,2086 L2417.3,2098.79 L2410.14,2117.07 L2406.59,2123.5 L2402.08,2131.69 L2399.92,2136.64 L2394.91,2148.14 L2394.85,2149.16 L2394.6,2153.49 L2394.44,2156.31 L2394.02,2163.67 L2394.91,2187.28 L2394.91,2187.43 L2395.67,2194.78 L2396.47,2202.47 L2396.7,2204.79 L2390.43,2212.09 L2387.49,2215.3 L2383.51,2220.15 L2381.45,2223.03 L2380.93,2224.23 L2380.93,2224.24 L2377.24,2232.81 L2375.17,2237.63 L2369.72,2250.5 L2367.13,2251.46 L2363.75,2252.73 L2359.97,2254.14 L2357.11,2257.63 L2356.32,2259.03 L2356.03,2259.69 L2355.86,2262.83 L2355.54,2264.64 L2352.66,2265.99 L2351.94,2266.94 L2350.8,2268.9 L2349.59,2270.99 L2346.94,2272.28 L2344.88,2272.78 L2342.07,2275.13 L2339.04,2278.22 L2338.79,2278.47 L2336.75,2280.57 L2332.91,2284.53 L2331.11,2286.38 L2330.47,2287.04 L2325.07,2285.14 L2322.24,2284.82 L2317.03,2284.24 L2317.01,2284.26 L2308.66,2295.24 L2299.15,2300.76 L2298.22,2301.3 L2294.58,2303.95 L2287.74,2308.94 L2281.03,2316.57 L2276.12,2319.23 L2271.95,2321.47 L2269.84,2322.62 L2264.61,2325.59 L2256.36,2330.27 L2256.29,2330.33 L2254.75,2331.75 L2252.42,2333.89 L2249.39,2336.74 L2249.23,2336.89 L2248.98,2337.12 L2248.67,2339.12 L2248.11,2342.72 L2247.44,2347 L2243.7,2353.85 L2243.56,2354.01 L2239.22,2359.17 L2240.61,2364.83 L2240.73,2365.3 L2240.73,2368.01 L2240.73,2369.79 L2240.72,2369.82 L2240.57,2370.22 L2239.78,2372.44 L2238.52,2375.96 L2238.52,2377.21 L2238.52,2379.85 L2238.52,2382.03 L2236.98,2388.87 L2236.86,2389.01 L2233.94,2392.29 L2229.5,2397.29 L2225.42,2405.6 L2225.86,2407.93 L2225.86,2407.93 L2226.9,2413.23 L2229.5,2416.32 L2231.37,2418.51 L2231.37,2418.55 L2231.59,2420.29 L2232.91,2430.74 L2233.49,2431.84 L2234.28,2433.33 L2235.88,2436.35 L2232.14,2442.19 L2228.19,2445.17 L2226.19,2446.68 L2226.18,2446.71 L2225.53,2448 L2224.03,2451.06 L2224.12,2451.49 L2227.65,2459.67 L2227.25,2461.48 L2226.73,2463.97 L2226.73,2463.97 L2226.57,2464.75 L2226.19,2466.54 L2223.62,2469.1 L2221.67,2471.09 L2216.35,2473.06 L2213.42,2474.17 L2213.36,2474.24 L2209.02,2479.45 L2207.74,2480.97 L2205.96,2483.09 L2204.5,2484.83 L2202.63,2493.7 L2200.1,2494.37 L2196.28,2495.48 L2196.24,2495.5 L2196.24,2500.77 L2197.2,2502.64 L2197.78,2503.8 L2201.7,2504.26 L2202.76,2504.38 L2204.5,2504.58 L2204.5,2504.58 L2204.66,2504.87 L2204.69,2504.91 L2206.7,2508.4 L2206.7,2512.98 L2206.7,2513 L2202.84,2516.35 L2201.53,2517.49 L2201.51,2517.51 L2201.17,2518 L2196.24,2525.12 L2194.64,2525.4 L2194.59,2525.41 L2191.84,2525.9 L2188.11,2524.52 L2185.78,2523.66 L2183.08,2525.7 L2182.83,2525.89 L2182.81,2525.9 L2176.86,2525.9 L2174.66,2530.5 L2175.43,2533.74 L2176.11,2536.54 L2176.67,2540.53 L2176.86,2541.84 L2177.77,2544.53 L2178.41,2546.44 L2179.05,2548.16 L2179.51,2549.37 L2179.84,2550.25 L2178.95,2552.38 L2177.63,2555.52 L2177.62,2555.54 L2174.01,2558.23 L2170.15,2561.12 L2169.38,2561.7 L2167.77,2563.14 L2165.15,2565.51 L2162.66,2567.75 L2161.28,2567.39 L2159.69,2566.97 L2157.88,2565.61 L2156.71,2564.72 L2156.32,2564.41 L2153.74,2562.37 L2151.88,2562.69 L2149.23,2563.15 L2148.46,2568.51 L2148.46,2568.54 L2143.1,2570.56 L2142.51,2570.78 L2138,2570.78 L2130.85,2576.27 L2129.48,2577.31 L2129.08,2577.63 L2129.08,2577.63 L2127.7,2577.38 L2121.29,2576.25 L2120.82,2576.17 L2116.92,2576.66 L2105.47,2578.09 L2105.47,2578.09 L2102.87,2578.41 L2102.2,2578.45 L2098.91,2578.64 L2086.47,2579.2 L2084.98,2580 L2079.15,2583.15 L2073.8,2586.04 L2070.59,2589.49 L2069.73,2590.42 L2062.57,2598.16 L2052.11,2605.78 L2048.38,2605.36 L2048.28,2605.34 L2044.66,2604.91 L2042.57,2604.67 L2039.92,2604.36 L2031.97,2603.51 L2022.26,2600.46 L2017.33,2600.73 L2014.12,2600.88 L2013.16,2600.92 L2007.3,2601.19 L2000.07,2601.19 L1999.15,2601.19 L1990.67,2602.37 L1990.61,2602.38 L1987.91,2602.75 L1987.65,2604.86 L1987.45,2606.41 L1987.16,2608.83 L1982.48,2613.07 L1977.45,2617.2 L1967.75,2615.68 L1960.28,2614.16 L1958.54,2612.87 L1954.3,2609.59 L1945.34,2607.31 L1937.87,2608.07 L1933.39,2613.4 L1931.9,2621.77 L1928.91,2630.9 L1922.93,2633.18 L1916.21,2629.38 L1910.24,2627.85 L1908.73,2629.7 L1905.78,2633.15 L1902.02,2633.94 L1896.05,2628.62 L1890.03,2623.28 L1880.78,2616.3 L1878.87,2611.12 L1878.12,2605.03 L1871.4,2598.18 L1866.84,2598.18 L1860.95,2598.18 L1857.22,2595.91 L1855.44,2595.5 L1850.49,2594.38 L1845.26,2594.38 L1840.04,2594.38 L1831.07,2597.42 L1825.1,2602.75 L1823.61,2604.43 L1819.01,2609.71 L1813.5,2610.21 L1811.64,2610.38 L1806.87,2609.15 L1804.26,2608.48 L1800.86,2606.75 L1799.86,2606.24 L1798.97,2605.78 L1798.66,2605.86 L1796.04,2606.54 L1794.01,2607.07 L1792.48,2607.47 L1791.68,2607.64 L1789.94,2608.03 L1789.43,2608.04 L1787.66,2608.08 L1785.21,2608.14 L1782.21,2605.27 L1779.59,2602.76 L1779.56,2602.76 L1775.22,2603.41 L1774.31,2603.54 L1774.31,2603.54 L1774.31,2604.2 L1774.31,2608.62 L1774.31,2608.81 L1773.54,2612.63 L1770.68,2614.85 L1768.47,2616.55 L1765.15,2619.07 L1764.6,2619.48 L1760.1,2621.21 L1759.42,2621.46 L1758.63,2621.77 L1749.67,2630.14 L1748.18,2632.66 L1745.24,2637.75 L1742.28,2641.69 L1738.47,2646.87 L1729.5,2657.53 L1727.41,2662.06 L1723.55,2670.5 L1720.81,2671.9 L1717.6,2673.53 L1711.42,2671.46 L1708.57,2670.5 L1703.06,2674.97 L1701.12,2676.54 L1695.15,2681.87 L1694.13,2683.94 L1694.13,2683.94 L1692.94,2686.43 L1688.42,2690.24 L1686.19,2690.81 L1679.47,2692.52 L1675.76,2693.27 L1674.99,2698.65 L1674.16,2700.33 L1674.14,2700.33 L1672.13,2704.42 L1671.25,2706.21 L1671.25,2713.06 L1669.76,2722.94 L1664.53,2732.07 L1664.53,2738.92 L1667.52,2749.56 L1662.29,2754.13 L1657.81,2757.17 L1651.08,2767.82 L1647.35,2773.9 L1647.35,2779.22 L1645.11,2785.31 L1639.88,2785.31 L1638.02,2783.41 L1634.65,2779.98 L1629.43,2779.22 L1626.44,2776.18 L1621.45,2775.72 L1618.22,2775.42 L1610.01,2779.98 L1602.54,2782.27 L1595.93,2782.27 L1597.62,2779.17 L1599.39,2774.67 L1599.39,2764.76 L1598.51,2754.86 L1594.97,2741.35 L1594.97,2734.14 L1595.85,2725.14 L1594.09,2715.23 L1586.13,2710.73 L1583.49,2699.89 L1581.73,2688.23 L1579.09,2680.15 L1579.06,2680.11 L1572.81,2672.86 L1566.64,2663.89 L1563.12,2655.81 L1549.91,2636.86 L1546.1,2632.42 L1544.97,2631.11 L1544.51,2630.57 L1543.61,2629.84 L1543.46,2629.72 L1543.28,2629.57 L1535.7,2623.4 L1529.13,2620.69 L1522.45,2617.94 L1502.12,2603.54 L1489.68,2596.36 L1476.46,2583.7 L1469.42,2571.12 L1467.63,2567.73 L1462.26,2557.54 L1454.33,2547.67 L1452.57,2537.8 L1450.73,2531.18 L1447.29,2518.84 L1447.28,2518.79 L1447.28,2504.4 L1442.15,2491.32 L1442.02,2491.01 L1442,2490.89 L1439.21,2484.74 L1435.84,2477.32 L1461.3,2464.27 L1473.89,2467.57 L1501.43,2474.78 L1517.32,2476.31 L1517.32,2474.96 L1518.53,2470.36 L1518.97,2465.42 L1519.3,2459.92 L1518.97,2456.33 L1519.3,2449.93 L1521.5,2439.83 L1523.7,2433.66 L1534.96,2426.42 L1542.54,2410.98 L1547.42,2399.42 L1555.14,2382.46 L1571.05,2353.06 L1583.72,2320.49 L1596.4,2295.64 L1598.47,2282.01 L1595.47,2261.49 L1590.76,2240.89 L1586.74,2228.39 L1586.09,2221.23 L1558.08,2224.15 L1547.08,2217.96 L1544.74,2216.85 L1510.41,2219.19 L1498.48,2220 L1489.97,2207.14 L1500.91,2201.47 L1499.92,2198.89 L1498.6,2195.63 L1496.95,2193.61 L1496.18,2193.05 L1494.74,2190.8 L1493.04,2189.27 L1491.22,2188.1 L1489.68,2187.54 L1487.15,2186.19 L1484.17,2184.51 L1481.86,2182.37 L1481.18,2182.22 L1478.67,2182.15 L1477.46,2182.26 L1476.63,2181.43 L1470.41,2170.02 L1468.65,2166.2 L1466.34,2164.07 L1465.46,2163.62 L1464.84,2159.92 L1464.02,2157.33 L1462.81,2154.74 L1462.81,2150.92 L1437.36,2112.59 L1302.13,2083.39 L1279.87,2077.23 L1254.94,2030.23 L1252.58,1964.18 L1229.87,1930.54 L1222.64,1919.84 L1219.58,1903.98 L1201.2,1886.25 L1184.71,1869.77 L1176.45,1864.11 L1154.88,1861.13 L1149.48,1861.44 L1110.84,1859.78 L1093.54,1859.53 L1083.82,1879.06 L1078.12,1882.76 L1054.63,1889.36 L1043.55,1887.98 L1028.63,1887.77 L1021.24,1887.77 L983.292,1881.31 L973.731,1878.04 L956.145,1873.64 L938.349,1863.6 L926.955,1872.22 L924.467,1876.86 L918.995,1881.17 L913.758,1884.28 L913.593,1884.57 L898.078,1889.53 L896.298,1886.39 L892.006,1883.46 L890.331,1880.32 L887.924,1878.86 L884.888,1879.17 L883.286,1885.58 L878.251,1886.58 L874.169,1887.52 L872.554,1891.26 L870.513,1893.05 L867.962,1894.07 L864.731,1895.6 L860.904,1894.15 L847.214,1885.56 L844.833,1885.9 L839.816,1886.16 L836.075,1886.67 L833.694,1885.14 L831.707,1882.61 L829.952,1880.46 L825.871,1878.85 L823.745,1876.29 L823.15,1870.6 L823.83,1866.6 L824,1863.54 L821.194,1856.4 L819.748,1851.55 L817.282,1847.21 L811.5,1843.13 L807.929,1840.84 L804.868,1838.12 L801.891,1836.07 L797.725,1836.84 L793.898,1837.69 L790.5,1837.37 L790.053,1837.79 L789.606,1838.36 L789.009,1838.45 L788.695,1838.17 L788.352,1837.66 L787.785,1837.6 L786.781,1837.41 L785.931,1837.12 L784.531,1836.91 L783.772,1836.56 L783.327,1836.28 L782.62,1836.16 L782.16,1836.19 L781.325,1836.37 L780.891,1836.69 L780.265,1836.71 L779.836,1836.7 L779.572,1836.77 L779.218,1837.35 L778.067,1838.22 L777.075,1839.15 L774.371,1839.94 L771.734,1841.14 L770.161,1841.62 L769.247,1841.58 L768.133,1841.52 L766.12,1841.74 L764.942,1842.09 L764.037,1842.67 L763.372,1842.77 L762.849,1842.68 L761.854,1842.2 L759.12,1840.07 L756.737,1836.71 L755.977,1835.38 L754.387,1832.48 L753.772,1832.42 L753.033,1832.35 L751.47,1833.76 L751.102,1833.94 L750.56,1833.87 L750.462,1833.54 L750.047,1833.07 L749.634,1833 L748.935,1832.9 L748.242,1833.09 L747.467,1833.31 L746.484,1833.24 L745.742,1833.04 L745.13,1833.21 L743.932,1833 L743.12,1832.68 L742.347,1832.46 L741.579,1832.39 L731.122,1835.22 L727.984,1831.96 L725.735,1830.65 L724.688,1830.54 L724.248,1830.1 L723.473,1829.85 L722.406,1830.25 L721.717,1830.52 L721.066,1830.44 L720.103,1830.4 L719.663,1830.71 L719.223,1831.69 L718.993,1832.41 L718.584,1833.22 L717.946,1833.75 L716.146,1834.62 L715.434,1834.65 L713.775,1834.59 L707.939,1835.06 L705.699,1835.52 L704.4,1835.51 L702.481,1835.5 L701.574,1834.69 L701.825,1833.37 L702.474,1832.22 L703.019,1830.81 L703.3,1829.61 L703.458,1828.6 L704.055,1827.59 L704.683,1826.91 L704.981,1826.65 L705.575,1826.44 L706.253,1826.07 L708.114,1823.86 L709.095,1821.03 L708.703,1820.4 L707.809,1819.59 L707.258,1818.48 L706.761,1816.33 L706.238,1815.22 L705.874,1814.42 L705.767,1813.94 L705.719,1813.32 L705.61,1812.69 L705.107,1812.41 L704.526,1812.01 L704.149,1811.67 L703.207,1811.65 L702.655,1811.14 L701.614,1810.53 L700.883,1810.38 L700.193,1810.12 L690.658,1808.86 L673.242,1778.58 L667.787,1771.11 L659.342,1766.8 L656.467,1765.11 L655.951,1760.14 L655.527,1756.06 L655.505,1755.85 L655.119,1752.13 L648.243,1749.45 L629.059,1741.97 L615.417,1756.01 L612.471,1757.08 L603.572,1760.3 L594.337,1762.42 L595.497,1765.09 L597.777,1770.32 L596.707,1773.12 L579.27,1783.16 L567.887,1789.71 L545.81,1783.55 L527.54,1795.6 L514.138,1793.12 L482.49,1787.26 L477.76,1790.25 L435.72,1805.38 L428.563,1807.95 L417.315,1807.02 L376.629,1803.63 L339.531,1802.27 L333.267,1796.26 L328.973,1795.08 L317.784,1792.08 L314.894,1793.25 L312.072,1795.8 L309.872,1794.81 L306.085,1793.8 L304.02,1795.38 L303.015,1800.27 L300.568,1801.43 L299.717,1801.84 L294.692,1803.88 L292.515,1804.37 L292.259,1804.43 L288.333,1803.1 L286.684,1803.41 L283.595,1804.55 L279.932,1805.53 L278.676,1804.59 L277.524,1802.7 L273.525,1801.33 L269.308,1801.96 L266.255,1801.87 L265.172,1801.84 L262.974,1803.37 L259.439,1805.45 L256.693,1806.63 L255.715,1809.72 L255.081,1810.02 L252.296,1811.34 L239.401,1773.4 L228.721,1744.9 L232.541,1739.36 L232.244,1736.69 L233.345,1730.96 L235.107,1724.1 L236.208,1718.02 L235.658,1714.31 L236.004,1710.8 L237.469,1706.05 L238.143,1703.86 L241.603,1692.93 L243.119,1689.17 L245.677,1682.81 L247.99,1678.76 L256.248,1671.56 L265.497,1662.33 L272.324,1656.48 L282.252,1648.4 L256.028,1642.64 L170.473,1584.2 L174.217,1508.15 L174.893,1476.29 L173.903,1474.36 L167.721,1462.31 L163.917,1454.9 L166.781,1441.64" fill-rule="evenodd"/>
  </g>
  <g stroke-linejoin="bevel" font-size="34.5833" stroke="#000000" stroke-linecap="square" fill="none" transform="matrix(0.999744,0,0,0.999744,0,0)" stroke-opacity="1" font-style="normal" stroke-width="1" font-weight="400" font-family="MS Shell Dlg 2"/>
  <g stroke-linejoin="bevel" font-size="34.5833" stroke="#000000" stroke-linecap="square" fill="none" transform="matrix(11.808,0,0,11.808,0,0)" stroke-opacity="1" font-style="normal" stroke-width="1" font-weight="400" font-family="MS Shell Dlg 2"/>
  <g stroke-linejoin="bevel" font-size="34.5833" stroke="#000000" stroke-linecap="square" fill="none" transform="matrix(11.808,0,0,11.808,0,0)" stroke-opacity="1" font-style="normal" stroke-width="1" font-weight="400" font-family="MS Shell Dlg 2"/>
  <g stroke-linejoin="bevel" font-size="34.5833" stroke="#000000" stroke-linecap="square" fill="none" transform="matrix(11.808,0,0,11.808,0,0)" stroke-opacity="1" font-style="normal" stroke-width="1" font-weight="400" font-family="MS Shell Dlg 2"/>
  <g stroke-linejoin="bevel" font-size="34.5833" stroke="#000000" stroke-linecap="square" fill="none" transform="matrix(1,0,0,1,0,0)" stroke-opacity="1" font-style="normal" stroke-width="1" font-weight="400" font-family="MS Shell Dlg 2"/>
  <g stroke-linejoin="bevel" font-size="34.5833" stroke="#000000" stroke-linecap="square" fill="none" transform="matrix(11.808,0,0,11.808,0,0)" stroke-opacity="1" font-style="normal" stroke-width="1" font-weight="400" font-family="MS Shell Dlg 2"/>
  <g stroke-linejoin="bevel" font-size="34.5833" stroke="#000000" stroke-linecap="square" fill="none" transform="matrix(11.808,0,0,11.808,0,0)" stroke-opacity="1" font-style="normal" stroke-width="1" font-weight="400" font-family="MS Shell Dlg 2"/>
  <g stroke-linejoin="bevel" font-size="34.5833" stroke="#000000" stroke-linecap="square" fill="none" transform="matrix(11.808,0,0,11.808,0,0)" stroke-opacity="1" font-style="normal" stroke-width="1" font-weight="400" font-family="MS Shell Dlg 2"/>
  <g stroke-linejoin="bevel" font-size="34.5833" stroke="#000000" stroke-linecap="square" fill="none" transform="matrix(11.808,0,0,11.808,0,0)" stroke-opacity="1" font-style="normal" stroke-width="1" font-weight="400" font-family="MS Shell Dlg 2"/>
  <g stroke-linejoin="bevel" font-size="34.5833" stroke="#000000" stroke-linecap="square" fill="none" transform="matrix(1,0,0,1,0,0)" stroke-opacity="1" font-style="normal" stroke-width="1" font-weight="400" font-family="MS Shell Dlg 2"/>
 </g>
</svg>
