<?xml version='1.0' encoding='UTF-8' standalone='no'?>
<svg xmlns="http://www.w3.org/2000/svg" height="249.936mm" version="1.2" baseProfile="tiny" viewBox="0 0 2952 2952" width="249.936mm" xmlns:xlink="http://www.w3.org/1999/xlink">
 <title>Qt SVG Document</title>
 <desc>Generated with Qt</desc>
 <defs/>
 <g stroke-width="1" stroke-linecap="square" stroke-linejoin="bevel" fill-rule="evenodd" fill="none" stroke="black">
  <g stroke-width="1" font-family="MS Shell Dlg 2" transform="matrix(1,0,0,1,0,0)" stroke-opacity="1" stroke-linecap="square" font-weight="400" font-style="normal" stroke-linejoin="bevel" font-size="34.5833" fill="none" stroke="#000000"/>
  <g stroke-width="1" font-family="MS Shell Dlg 2" transform="matrix(1,0,0,1,0,0)" stroke-opacity="1" stroke-linecap="square" font-weight="400" font-style="normal" stroke-linejoin="bevel" font-size="34.5833" fill="none" stroke="#000000"/>
  <g stroke-width="1" font-family="MS Shell Dlg 2" transform="matrix(11.808,0,0,11.808,0,0)" stroke-opacity="1" stroke-linecap="square" font-weight="400" font-style="normal" stroke-linejoin="bevel" font-size="34.5833" fill="none" stroke="#000000"/>
  <g stroke-width="1" font-family="MS Shell Dlg 2" transform="matrix(0.999744,0,0,0.999744,0,0)" stroke-opacity="1" stroke-linecap="square" font-weight="400" font-style="normal" stroke-linejoin="bevel" font-size="34.5833" fill="none" stroke="#000000"/>
  <g font-family="MS Shell Dlg 2" transform="matrix(0.999744,0,0,0.999744,0,0)" fill-opacity="0" font-weight="400" font-style="normal" font-size="34.5833" fill="#ffffff" stroke="none">
   <path d="M-2,-2 L2955,-2 L2955,2955 L-2,2955 L-2,-2" fill-rule="evenodd" vector-effect="none"/>
  </g>
  <g stroke-width="1" font-family="MS Shell Dlg 2" transform="matrix(0.999744,0,0,0.999744,0,0)" stroke-opacity="1" stroke-linecap="square" font-weight="400" font-style="normal" stroke-linejoin="bevel" font-size="34.5833" fill="none" stroke="#000000"/>
  <g stroke-width="1" font-family="MS Shell Dlg 2" transform="matrix(11.808,0,0,11.808,0,0)" stroke-opacity="1" stroke-linecap="square" font-weight="400" font-style="normal" stroke-linejoin="bevel" font-size="34.5833" fill="none" stroke="#000000"/>
  <g stroke-width="1" font-family="MS Shell Dlg 2" transform="matrix(11.808,0,0,11.808,0,0)" stroke-opacity="1" stroke-linecap="square" font-weight="400" font-style="normal" stroke-linejoin="bevel" font-size="34.5833" fill="none" stroke="#000000"/>
  <g stroke-width="1" font-family="MS Shell Dlg 2" transform="matrix(11.808,0,0,11.808,0,0)" stroke-opacity="1" stroke-linecap="square" font-weight="400" font-style="normal" stroke-linejoin="bevel" font-size="34.5833" fill="none" stroke="#000000"/>
  <g stroke-width="1" font-family="MS Shell Dlg 2" transform="matrix(11.808,0,0,11.808,0,0)" stroke-opacity="1" stroke-linecap="square" font-weight="400" font-style="normal" stroke-linejoin="bevel" font-size="34.5833" fill="none" stroke="#000000"/>
  <g stroke-width="1" font-family="MS Shell Dlg 2" transform="matrix(11.808,0,0,11.808,0,0)" stroke-opacity="1" stroke-linecap="square" font-weight="400" font-style="normal" stroke-linejoin="bevel" font-size="34.5833" fill="none" stroke="#000000"/>
  <g font-family="MS Shell Dlg 2" transform="matrix(11.808,0,0,11.808,0,0)" fill-opacity="0" font-weight="400" font-style="normal" font-size="34.5833" fill="#ffffff" stroke="none">
   <path d="M0,0 L250,0 L250,250 L0,250 L0,0" fill-rule="evenodd" vector-effect="none"/>
  </g>
  <g stroke-width="1" font-family="MS Shell Dlg 2" transform="matrix(11.808,0,0,11.808,0,0)" stroke-opacity="1" stroke-linecap="square" font-weight="400" font-style="normal" stroke-linejoin="bevel" font-size="34.5833" fill="none" stroke="#000000"/>
  <g stroke-width="1" font-family="MS Shell Dlg 2" transform="matrix(11.808,0,0,11.808,0,0)" stroke-opacity="1" stroke-linecap="square" font-weight="400" font-style="normal" stroke-linejoin="bevel" font-size="34.5833" fill="none" stroke="#000000"/>
  <g font-family="MS Shell Dlg 2" transform="matrix(0.999744,0,0,0.999744,0,0)" fill-opacity="0" font-weight="400" font-style="normal" font-size="34.5833" fill="#000000" stroke="none">
   <rect height="2953" y="0" x="0" width="2953"/>
  </g>
  <g stroke-width="1" font-family="MS Shell Dlg 2" transform="matrix(0.999744,0,0,0.999744,0,0)" stroke-opacity="1" stroke-linecap="square" font-weight="400" font-style="normal" stroke-linejoin="bevel" font-size="34.5833" fill="none" stroke="#000000"/>
  <g stroke-width="3.07087" font-family="MS Shell Dlg 2" transform="matrix(0.999744,0,0,0.999744,0,0)" fill-opacity="1" stroke-opacity="1" stroke-linecap="square" font-weight="400" font-style="normal" stroke-linejoin="bevel" font-size="34.5833" fill="#c5c5c5" stroke="#5c5c5c">
   <path d="M1288.58,636.685 L1288.49,636.708 L1286.01,637.318 L1285.67,637.008 L1279.99,639.219 L1259.42,651.392 L1235.79,668.43 L1209.27,691.77 L1183.56,714.636 L1179.04,722.308 L1174.22,730.524 L1155.42,738.299 L1137.27,744.657 L1115.59,755.892 L1097.77,764.451 L1094.36,766.646 L1063.12,781.074 L1032.19,795.656 L1000.62,809.471 L990.115,815.178 L988.247,815.339 L969.471,824.383 L938.083,839.139 L936.47,840.242 L935.823,841.501 L935.429,843.401 L934.515,843.406 L932.827,843.415 L932.594,843.416 L927.697,851.255 L923.438,857.946 L917.381,868.051 L912.744,875.889 L906.023,883.979 L901.609,887.157 L895.655,891.467 L893.323,893.749 L868.712,912.895 L861.718,918.347 L855.756,922.789 L847.215,929.636 L844.746,931.538 L823.877,943.497 L816.741,947.565 L809.346,951.514 L809.261,957.811 L809.002,979.594 L804.875,985.03 L801.123,988.958 L792.725,998.327 L784.161,1000.77 L772.853,1002.47 L761.159,1003.8 L749.857,1006.38 L740.499,1007.83 L734.395,1008.87 L733.63,1009.24 L724.416,1013.72 L700.95,1026.2 L696.825,1028.23 L695.77,1028.75 L664.031,1029.08 L647.65,1028.68 L636.336,1029.13 L625.671,1028.95 L617.589,1027.24 L603.911,1023.43 L596.363,1022.47 L586.876,1024.43 L580.135,1026.11 L572.855,1027.79 L566.888,1028.84 L557.791,1030.17 L550.114,1030.09 L541.277,1030.03 L523.849,1029.77 L510.36,1030.49 L509.987,1031.92 L509.473,1033.91 L508.122,1040.51 L507.356,1046.27 L505.43,1052.21 L502.975,1058.13 L498.984,1074.79 L496.425,1084.79 L493.045,1097.2 L490.547,1105.57 L486.427,1116 L482.718,1125.96 L476.644,1137.1 L471.043,1146.26 L467.285,1153.76 L465.298,1159.54 L461.277,1169.15 L457.623,1176.61 L454.593,1182.94 L449.579,1194.08 L443.981,1203.29 L439.217,1211.78 L436.738,1215.57 L435.827,1216.96 L431.945,1222.88 L427.863,1229.78 L423.427,1238.93 L418.299,1247.11 L412.016,1255.9 L408.357,1263.62 L405.639,1267.14 L401.972,1272.56 L395.172,1282.59 L389.046,1291.33 L382.983,1301.51 L379.633,1306.21 L375.971,1312.14 L372.473,1317.71 L367.812,1324.2 L363.321,1331.27 L360.348,1336.37 L354.586,1343.79 L349.403,1350.95 L344.078,1359.71 L338.013,1369.21 L326.306,1386.39 L319.455,1395.85 L311.979,1405.93 L307.226,1413.45 L300.917,1421.83 L290.659,1435.94 L285.952,1442.59 L285.85,1442.77 L285.115,1444.02 L281.154,1450.82 L276.041,1458.39 L271.804,1464.27 L266.739,1471.27 L261.459,1478.64 L256.977,1486.05 L252.493,1494.38 L248.632,1501.74 L242.433,1512.83 L237.53,1521.63 L229.666,1535.16 L223.875,1544.17 L219.017,1552.14 L212.563,1563.33 L207.353,1572.37 L200.937,1581.93 L194.361,1590.83 L194.341,1590.84 L212.342,1598.05 L230.633,1605.39 L248.922,1612.71 L267.211,1620.05 L270.954,1623.63 L283.772,1628.71 L298.513,1632.52 L304.542,1638.75 L307.991,1645.62 L313.04,1650.91 L318.729,1654.8 L326.352,1658.67 L331.383,1661.76 L351.102,1682.02 L353.505,1683.76 L359.715,1688.23 L370.284,1696.15 L382.784,1703.74 L388.614,1706.06 L393.095,1721.25 L394.094,1724.69 L398.15,1727.8 L405.449,1731.66 L406.754,1733.23 L410.849,1740.1 L413.516,1750.9 L413.594,1761.11 L412.528,1769.12 L410.656,1794.3 L410.614,1794.87 L410.645,1794.83 L416.217,1788.08 L426.81,1779.37 L430.156,1773.39 L433.984,1766.76 L439.764,1761.39 L446.499,1754.91 L453.239,1749.22 L460.443,1740.38 L465.235,1732.66 L470.014,1723.05 L475.9,1710.61 L483.688,1693.77 L490.875,1680.85 L497.571,1668.57 L503.646,1659.12 L506.034,1654.54 L511.859,1656.23 L518.305,1653.53 L521.832,1649.1 L522.135,1648.25 L522.633,1646.86 L523.576,1644.23 L523.049,1638.58 L519.472,1635.94 L522.992,1630.58 L525.551,1626.8 L529.872,1620.49 L533.234,1616.08 L535.625,1611.98 L540.6,1607.39 L544.619,1603.6 L548.622,1597.62 L554.881,1591.61 L560.334,1585.77 L575.101,1569.67 L579.766,1566.35 L584.264,1562.86 L585.641,1561.46 L589.248,1557.81 L590.202,1556.55 L591.334,1555.76 L595.514,1558.55 L596.211,1559.02 L597.322,1559.97 L600.76,1562.9 L607.268,1568.83 L612.645,1574.29 L616.392,1578.97 L623.888,1587.24 L630.553,1593.47 L643.316,1592.61 L652.855,1592.39 L675.966,1591.62 L693.599,1591.67 L703.166,1597.42 L707.567,1602.73 L712.456,1608.5 L718.494,1617.56 L720.63,1623.04 L722.292,1629 L719.589,1636.71 L715.261,1642.7 L710.276,1646.17 L709.674,1654.03 L713.584,1658.87 L717.321,1662.45 L722.859,1668.07 L727.572,1672.28 L732.372,1675.54 L735.363,1677.57 L741.988,1678.31 L746.028,1677.5 L748.28,1675.45 L749.702,1671.21 L750.928,1660.37 L753.961,1654.08 L758.479,1651.85 L765.096,1651.19 L768.111,1652.04 L771.086,1652.87 L780.828,1659.26 L785.552,1665.5 L789.301,1671.29 L793.067,1680.05 L794.724,1685.54 L796.367,1692.13 L795.427,1697.46 L794.344,1704.84 L793.882,1708.93 L793.441,1716.47 L794.285,1722.74 L795.291,1728.38 L796.449,1733.55 L799.238,1739.81 L803.147,1745.12 L807.379,1750.75 L813.074,1757.31 L816.334,1761.22 L819.436,1766.37 L821.565,1769.79 L822.168,1770.75 L823.35,1772.63 L825.976,1779.68 L827.922,1781.86 L829.723,1785.78 L830.085,1792.84 L829.785,1796.29 L829.173,1803.2 L828.569,1809.49 L829.235,1813.87 L830.658,1816.73 L831.034,1817.48 L833.965,1821.85 L836.466,1823.6 L839.155,1825.59 L845.15,1829.01 L856.5,1836.01 L860.876,1838.5 L867.357,1843.95 L872.721,1849.26 L875.814,1853.33 L877.149,1861.01 L875.62,1875.93 L875.571,1880.07 L875.508,1885.5 L875.246,1895.85 L876.418,1904.01 L879.217,1913.1 L883.628,1923.91 L884.802,1930.65 L887.241,1934.56 L890.498,1938.63 L892.133,1942.85 L893.935,1947.4 L894.771,1952.73 L894.749,1956.33 L897.16,1972 L898.479,1979.01 L898.328,1981.68 L897.54,1984.83 L896.936,1991.57 L897.6,1995.88 L903.744,1995.46 L914.073,1995.1 L919.56,1995.38 L940.552,1997.32 L952.505,1999.3 L954.719,1999.87 L965.115,2002.53 L971.577,2003.6 L981.74,2003.24 L988.86,2001.62 L989.479,2001.48 L999.156,1998.92 L1009.95,1997.29 L1016.9,1997.89 L1050.33,2000.41 L1066.64,2001.9 L1079.39,2002.94 L1088.76,2003.84 L1094.57,2003.82 L1095.64,2005.76 L1096.16,2005.76 L1096.69,2005.29 L1097.37,2004.58 L1098.29,2002.42 L1099.37,2000.62 L1100.25,1998.53 L1101.08,1996.83 L1101.9,1994.63 L1102.47,1992.73 L1103.08,1991.04 L1103.8,1989.35 L1104.37,1988.59 L1105.25,1987.61 L1106.04,1987.13 L1107.25,1986.88 L1109.35,1986.55 L1114.19,1987.07 L1117.97,1987.04 L1121.6,1987.01 L1124.33,1986.98 L1127.84,1986.5 L1134.31,1986.04 L1140.35,1985.48 L1145.13,1984.93 L1151.06,1984.37 L1156.06,1983.97 L1163.25,1983.2 L1167.5,1982.65 L1173.6,1982.09 L1177.22,1981.85 L1179.43,1981.53 L1182.53,1980.95 L1186.03,1980.1 L1189.45,1979.25 L1192.81,1978.15 L1195.94,1976.55 L1196.2,1976.45 L1198.98,1975.45 L1201.35,1974.41 L1203.27,1972.86 L1205.21,1970.9 L1206.92,1968.7 L1208.47,1966.28 L1210.71,1963.46 L1212.99,1959.77 L1213.27,1958.65 L1229.64,1958.62 L1246.42,1958.59 L1263.21,1958.56 L1279.99,1958.53 L1296.77,1958.51 L1310.32,1958.84 L1310.36,1969.39 L1308.49,1976.09 L1310.3,1984.09 L1312.9,1990.36 L1314.84,1991.93 L1317.12,1995.84 L1322.29,1998.49 L1325.68,1999.1 L1327.06,2000.44 L1329.98,2001.87 L1331.95,2004.08 L1334.31,2006.45 L1335.96,2009.32 L1337.78,2011.99 L1339.92,2014.04 L1341.48,2016.19 L1343.09,2018.57 L1344.54,2021.43 L1345.46,2023.73 L1345.65,2027.47 L1346.42,2030.59 L1346.98,2033.24 L1348.79,2035.86 L1351.71,2038.28 L1354.8,2040.55 L1359.3,2042.83 L1362.22,2045.04 L1362.34,2045.12 L1365.57,2046.69 L1369.28,2048.71 L1373.64,2049.96 L1378.66,2052.45 L1387.55,2055.56 L1392.4,2057.74 L1398.87,2061.17 L1402.58,2063.04 L1408.41,2067.89 L1411.96,2069.76 L1420.7,2076.17 L1426.19,2079.45 L1432.02,2083.83 L1440.91,2089.92 L1446.74,2094.14 L1454.33,2098.2 L1456.81,2099.32 L1457.12,2099.7 L1457.23,2099.73 L1461.32,2100.92 L1463.59,2101.45 L1465.48,2101.62 L1468.26,2101.64 L1469.99,2101.86 L1472.3,2101.97 L1474.76,2102.26 L1477.08,2102.32 L1480.97,2101.84 L1483.75,2102.12 L1486.79,2103.17 L1489.31,2103.39 L1492.25,2103.41 L1495.51,2103.58 L1498.6,2103.77 L1501.75,2103.95 L1503.49,2103.95 L1507.31,2105.06 L1509.73,2105.38 L1513.3,2106.13 L1516.96,2106.62 L1521.17,2107.11 L1524.04,2107.85 L1526.51,2108.07 L1528.87,2109.32 L1530.48,2110.4 L1534.26,2112.02 L1536.61,2112.64 L1538.6,2114.2 L1541.84,2116.06 L1544.56,2117.15 L1547.64,2119.33 L1552.56,2122.71 L1554.69,2124.79 L1558.14,2126.2 L1561.48,2128.52 L1562.78,2129.35 L1566.86,2132.03 L1571.1,2134.42 L1574.75,2136.34 L1578.72,2139.18 L1582.28,2141.15 L1586.2,2143.17 L1590.58,2145.92 L1593.56,2147.98 L1598.42,2150.52 L1600.61,2151.97 L1603.35,2151.94 L1605.78,2151.14 L1608.2,2150.24 L1610.05,2149.5 L1613.94,2148.1 L1618.05,2146.4 L1622.22,2144.55 L1625.95,2143.4 L1629.16,2142.56 L1632.18,2141.36 L1634.18,2140.61 L1637.23,2139.56 L1640.03,2138.57 L1642.66,2137.62 L1643.5,2137.26 L1645.29,2136.47 L1647.56,2135.42 L1649.77,2135.07 L1651.67,2134.63 L1653.87,2134.39 L1657.18,2134.43 L1659.34,2134.14 L1661.55,2133.79 L1663.81,2133.82 L1665.96,2134.45 L1668.99,2134.98 L1672.4,2135.63 L1675.44,2136.47 L1678.53,2137.11 L1680.83,2137.94 L1683.1,2138.47 L1683.56,2138.58 L1685.08,2138.85 L1688.01,2139.9 L1691.21,2141.26 L1693.72,2142.55 L1696.49,2144.11 L1700.68,2145.78 L1704.96,2147.14 L1709.83,2149.54 L1712.56,2150.11 L1715.6,2150.7 L1718.74,2151.6 L1720.09,2152.79 L1719.96,2155.18 L1720.52,2158.67 L1719.6,2161.11 L1719.79,2164.18 L1718.71,2167.13 L1718.58,2169.68 L1717.92,2172.63 L1717.77,2177.95 L1716.21,2182.07 L1715.85,2186.2 L1715.08,2190.94 L1714.77,2195.89 L1714.42,2199.46 L1713.59,2204.3 L1713.24,2208.79 L1712.81,2215.32 L1712.03,2219.4 L1711.41,2224.81 L1710.26,2230.37 L1709.31,2236.59 L1708.9,2239.79 L1708.87,2240.03 L1705.75,2263.47 L1730.67,2272.63 L1753.29,2280.96 L1775.92,2289.31 L1798.53,2297.65 L1821.14,2306 L1841.11,2317.69 L1861.08,2329.38 L1870.89,2331.63 L1888.75,2334.74 L1906.61,2337.87 L1924.48,2340.98 L1942.34,2344.1 L1956.11,2346.85 L1969.86,2349.6 L1983.62,2352.35 L1998.07,2355.1 L2012.51,2357.86 L2026.97,2360.61 L2051.22,2364.86 L2070.9,2368.54 L2090.59,2372.2 L2110.28,2375.88 L2120.23,2377.41 L2127.43,2378.52 L2144.58,2381.15 L2161.73,2383.78 L2178.88,2386.41 L2186.1,2360.04 L2205.3,2348.38 L2205.5,2348.21 L2214.89,2340.82 L2244.73,2322.77 L2274.4,2303.94 L2304.88,2285.27 L2328.08,2312.44 L2350.64,2338.5 L2372.76,2365.36 L2387.84,2354.59 L2404.95,2340.48 L2413.57,2326.36 L2422.17,2312.24 L2430.78,2298.12 L2434.03,2281.05 L2437.26,2263.99 L2440.51,2246.92 L2443.75,2229.85 L2469.57,2215.75 L2484.44,2197.51 L2499.29,2179.29 L2514.15,2161.05 L2529.02,2142.83 L2526.47,2123.99 L2515.31,2103.57 L2504.14,2083.15 L2492.98,2062.73 L2484.23,2036.83 L2475.48,2010.92 L2466.72,1985.02 L2457.97,1959.1 L2449.21,1933.2 L2452.26,1930.85 L2482.83,1907.34 L2500.06,1905.78 L2517.28,1904.23 L2534.52,1902.69 L2562.2,1898.01 L2589.9,1893.35 L2617.59,1888.69 L2645.3,1884.02 L2672.99,1879.36 L2700.69,1874.7 L2712.02,1872.38 L2723.33,1870.05 L2734.38,1867.77 L2734.18,1867.63 L2708.66,1848.61 L2680.23,1828.59 L2686.2,1808.24 L2689.71,1796.28 L2699.17,1763.99 L2703.39,1748.3 L2708.19,1731.83 L2717.64,1699.52 L2727.25,1667.05 L2728.88,1660.14 L2731.08,1653.08 L2736.62,1634.73 L2745.99,1602.42 L2755.12,1570.74 L2758.22,1559.44 L2761.91,1548.08 L2764.82,1537.04 L2748.81,1552.53 L2731.55,1555.63 L2714.29,1558.73 L2697.03,1561.84 L2667.91,1568.06 L2642.04,1564.87 L2612.95,1549.13 L2587.09,1536.54 L2574.16,1530.24 L2560.15,1526.03 L2546.14,1521.82 L2532.13,1517.62 L2499.79,1505.02 L2480.38,1498.72 L2467.48,1481.16 L2468.85,1477.14 L2472.83,1465.46 L2478.17,1449.78 L2483.52,1434.09 L2483.55,1415.25 L2483.57,1396.42 L2483.59,1377.59 L2485.11,1350.68 L2486.62,1323.77 L2488.13,1296.88 L2489.65,1269.97 L2491.17,1243.06 L2492.68,1216.16 L2494.2,1189.26 L2514.93,1183.63 L2535.68,1178.01 L2556.42,1172.39 L2577.17,1166.76 L2597.92,1161.15 L2621.8,1144.24 L2645.68,1127.33 L2669.57,1110.42 L2693.46,1093.53 L2709.67,1082.83 L2725.86,1072.14 L2742.07,1061.46 L2731.55,1045.34 L2713.13,1013.95 L2693.58,982.04 L2674.52,950.615 L2665.47,935.22 L2655.44,918.719 L2646.2,917.758 L2625.11,916.776 L2609.39,915.965 L2607.93,915.651 L2595.93,915.159 L2566.41,913.858 L2548.33,912.888 L2543.89,912.65 L2543.16,912.61 L2536.41,912.247 L2506.72,910.481 L2477.53,909.351 L2476.8,910.355 L2467.81,905.493 L2460.85,901.739 L2446.59,894.041 L2416.42,877.581 L2386.58,861.074 L2355.04,844.419 L2342.38,843.94 L2342.07,843.949 L2338.5,844.008 L2325.84,844.242 L2295.49,844.078 L2265,844.058 L2235.3,843.741 L2223.29,843.74 L2211.29,843.74 L2199.29,843.74 L2198.31,843.74 L2198.23,844.051 L2187.84,844.524 L2170.97,844.214 L2154.02,844.217 L2137.47,843.91 L2119.78,844.388 L2103.23,844.545 L2086.36,844.553 L2076.14,844.558 L2069,844.09 L2061.53,844.416 L2052.29,844.261 L2042.88,844.428 L2041.41,844.479 L2035.21,845.076 L2022.35,845.065 L2021.36,845.063 L2018.22,845.058 L2001.23,845.042 L1984.24,845.027 L1967.25,845.013 L1950.27,845.001 L1933.28,844.989 L1916.29,844.979 L1899.3,844.96 L1882.31,844.952 L1865.32,844.946 L1848.33,844.94 L1831.35,844.936 L1814.35,844.933 L1797.36,844.932 L1780.37,844.931 L1763.39,844.932 L1746.4,844.934 L1729.41,844.937 L1717.74,844.94 L1716.2,844.944 L1695.43,844.947 L1678.45,844.954 L1661.46,844.962 L1644.47,844.971 L1627.48,844.981 L1610.48,844.993 L1593.5,845.006 L1576.51,845.02 L1560.68,844.891 L1560.68,845.032 L1560.69,846.297 L1560.56,859.173 L1560.58,867.178 L1560.76,872.511 L1560.12,877.062 L1560.47,882.083 L1560.32,887.266 L1560.5,892.598 L1560.53,903.114 L1560.22,910.336 L1560.41,918.802 L1560.26,926.185 L1560.2,926.125 L1560.11,926.025 L1559.56,925.193 L1557.66,922.265 L1550.67,914.601 L1544.16,907.708 L1537.98,900.826 L1526.75,888.925 L1518.13,879.851 L1510.31,871.085 L1500.54,860.277 L1491.27,850.582 L1485.57,844.634 L1485.08,844.354 L1470.12,830.037 L1440.23,798.013 L1410.33,766.002 L1380.41,733.996 L1350.49,701.994 L1320.57,669.986 L1290.63,637.993 L1288.58,636.685" fill-rule="evenodd" vector-effect="none"/>
  </g>
  <g stroke-width="1" font-family="MS Shell Dlg 2" transform="matrix(0.999744,0,0,0.999744,0,0)" stroke-opacity="1" stroke-linecap="square" font-weight="400" font-style="normal" stroke-linejoin="bevel" font-size="34.5833" fill="none" stroke="#000000"/>
  <g stroke-width="1" font-family="MS Shell Dlg 2" transform="matrix(11.808,0,0,11.808,0,0)" stroke-opacity="1" stroke-linecap="square" font-weight="400" font-style="normal" stroke-linejoin="bevel" font-size="34.5833" fill="none" stroke="#000000"/>
  <g stroke-width="1" font-family="MS Shell Dlg 2" transform="matrix(11.808,0,0,11.808,0,0)" stroke-opacity="1" stroke-linecap="square" font-weight="400" font-style="normal" stroke-linejoin="bevel" font-size="34.5833" fill="none" stroke="#000000"/>
  <g stroke-width="1" font-family="MS Shell Dlg 2" transform="matrix(11.808,0,0,11.808,0,0)" stroke-opacity="1" stroke-linecap="square" font-weight="400" font-style="normal" stroke-linejoin="bevel" font-size="34.5833" fill="none" stroke="#000000"/>
  <g stroke-width="1" font-family="MS Shell Dlg 2" transform="matrix(1,0,0,1,0,0)" stroke-opacity="1" stroke-linecap="square" font-weight="400" font-style="normal" stroke-linejoin="bevel" font-size="34.5833" fill="none" stroke="#000000"/>
  <g stroke-width="1" font-family="MS Shell Dlg 2" transform="matrix(11.808,0,0,11.808,0,0)" stroke-opacity="1" stroke-linecap="square" font-weight="400" font-style="normal" stroke-linejoin="bevel" font-size="34.5833" fill="none" stroke="#000000"/>
  <g stroke-width="1" font-family="MS Shell Dlg 2" transform="matrix(11.808,0,0,11.808,0,0)" stroke-opacity="1" stroke-linecap="square" font-weight="400" font-style="normal" stroke-linejoin="bevel" font-size="34.5833" fill="none" stroke="#000000"/>
  <g stroke-width="1" font-family="MS Shell Dlg 2" transform="matrix(11.808,0,0,11.808,0,0)" stroke-opacity="1" stroke-linecap="square" font-weight="400" font-style="normal" stroke-linejoin="bevel" font-size="34.5833" fill="none" stroke="#000000"/>
  <g stroke-width="1" font-family="MS Shell Dlg 2" transform="matrix(11.808,0,0,11.808,0,0)" stroke-opacity="1" stroke-linecap="square" font-weight="400" font-style="normal" stroke-linejoin="bevel" font-size="34.5833" fill="none" stroke="#000000"/>
  <g stroke-width="1" font-family="MS Shell Dlg 2" transform="matrix(1,0,0,1,0,0)" stroke-opacity="1" stroke-linecap="square" font-weight="400" font-style="normal" stroke-linejoin="bevel" font-size="34.5833" fill="none" stroke="#000000"/>
 </g>
</svg>
