<?xml version='1.0' encoding='UTF-8' standalone='no'?>
<svg xmlns="http://www.w3.org/2000/svg" height="249.936mm" viewBox="0 0 2952 2952" xmlns:xlink="http://www.w3.org/1999/xlink" width="249.936mm" baseProfile="tiny" version="1.2">
 <title>Qt SVG Document</title>
 <desc>Generated with Qt</desc>
 <defs/>
 <g stroke-linecap="square" stroke="black" fill-rule="evenodd" stroke-linejoin="bevel" stroke-width="1" fill="none">
  <g stroke-linecap="square" font-size="34.5833" transform="matrix(1,0,0,1,0,0)" stroke="#000000" stroke-linejoin="bevel" font-weight="400" font-family="MS Shell Dlg 2" stroke-width="1" font-style="normal" fill="none" stroke-opacity="1"/>
  <g stroke-linecap="square" font-size="34.5833" transform="matrix(1,0,0,1,0,0)" stroke="#000000" stroke-linejoin="bevel" font-weight="400" font-family="MS Shell Dlg 2" stroke-width="1" font-style="normal" fill="none" stroke-opacity="1"/>
  <g stroke-linecap="square" font-size="34.5833" transform="matrix(11.808,0,0,11.808,0,0)" stroke="#000000" stroke-linejoin="bevel" font-weight="400" font-family="MS Shell Dlg 2" stroke-width="1" font-style="normal" fill="none" stroke-opacity="1"/>
  <g stroke-linecap="square" font-size="34.5833" transform="matrix(0.999744,0,0,0.999744,0,0)" stroke="#000000" stroke-linejoin="bevel" font-weight="400" font-family="MS Shell Dlg 2" stroke-width="1" font-style="normal" fill="none" stroke-opacity="1"/>
  <g font-size="34.5833" transform="matrix(0.999744,0,0,0.999744,0,0)" stroke="none" font-weight="400" font-family="MS Shell Dlg 2" font-style="normal" fill="#ffffff" fill-opacity="0">
   <path d="M-2,-2 L2955,-2 L2955,2955 L-2,2955 L-2,-2" vector-effect="none" fill-rule="evenodd"/>
  </g>
  <g stroke-linecap="square" font-size="34.5833" transform="matrix(0.999744,0,0,0.999744,0,0)" stroke="#000000" stroke-linejoin="bevel" font-weight="400" font-family="MS Shell Dlg 2" stroke-width="1" font-style="normal" fill="none" stroke-opacity="1"/>
  <g stroke-linecap="square" font-size="34.5833" transform="matrix(11.808,0,0,11.808,0,0)" stroke="#000000" stroke-linejoin="bevel" font-weight="400" font-family="MS Shell Dlg 2" stroke-width="1" font-style="normal" fill="none" stroke-opacity="1"/>
  <g stroke-linecap="square" font-size="34.5833" transform="matrix(11.808,0,0,11.808,0,0)" stroke="#000000" stroke-linejoin="bevel" font-weight="400" font-family="MS Shell Dlg 2" stroke-width="1" font-style="normal" fill="none" stroke-opacity="1"/>
  <g stroke-linecap="square" font-size="34.5833" transform="matrix(11.808,0,0,11.808,0,0)" stroke="#000000" stroke-linejoin="bevel" font-weight="400" font-family="MS Shell Dlg 2" stroke-width="1" font-style="normal" fill="none" stroke-opacity="1"/>
  <g stroke-linecap="square" font-size="34.5833" transform="matrix(11.808,0,0,11.808,0,0)" stroke="#000000" stroke-linejoin="bevel" font-weight="400" font-family="MS Shell Dlg 2" stroke-width="1" font-style="normal" fill="none" stroke-opacity="1"/>
  <g stroke-linecap="square" font-size="34.5833" transform="matrix(11.808,0,0,11.808,0,0)" stroke="#000000" stroke-linejoin="bevel" font-weight="400" font-family="MS Shell Dlg 2" stroke-width="1" font-style="normal" fill="none" stroke-opacity="1"/>
  <g font-size="34.5833" transform="matrix(11.808,0,0,11.808,0,0)" stroke="none" font-weight="400" font-family="MS Shell Dlg 2" font-style="normal" fill="#ffffff" fill-opacity="0">
   <path d="M0,0 L250,0 L250,250 L0,250 L0,0" vector-effect="none" fill-rule="evenodd"/>
  </g>
  <g stroke-linecap="square" font-size="34.5833" transform="matrix(11.808,0,0,11.808,0,0)" stroke="#000000" stroke-linejoin="bevel" font-weight="400" font-family="MS Shell Dlg 2" stroke-width="1" font-style="normal" fill="none" stroke-opacity="1"/>
  <g stroke-linecap="square" font-size="34.5833" transform="matrix(11.808,0,0,11.808,0,0)" stroke="#000000" stroke-linejoin="bevel" font-weight="400" font-family="MS Shell Dlg 2" stroke-width="1" font-style="normal" fill="none" stroke-opacity="1"/>
  <g font-size="34.5833" transform="matrix(0.999744,0,0,0.999744,0,0)" stroke="none" font-weight="400" font-family="MS Shell Dlg 2" font-style="normal" fill="#000000" fill-opacity="0">
   <rect x="0" height="2953" y="0" width="2953"/>
  </g>
  <g stroke-linecap="square" font-size="34.5833" transform="matrix(0.999744,0,0,0.999744,0,0)" stroke="#000000" stroke-linejoin="bevel" font-weight="400" font-family="MS Shell Dlg 2" stroke-width="1" font-style="normal" fill="none" stroke-opacity="1"/>
  <g stroke-linecap="square" font-size="34.5833" transform="matrix(0.999744,0,0,0.999744,0,0)" stroke="#5c5c5c" stroke-linejoin="bevel" font-weight="400" font-family="MS Shell Dlg 2" stroke-width="3.07087" font-style="normal" fill="#c5c5c5" stroke-opacity="1" fill-opacity="1">
   <path d="M1627.66,2828.93 L1644.86,2783.59 L1544.03,2780.28 L1550.92,2697.28 L1501.55,2691.47 L1441.36,2642.39 L1437.85,2645.96 L1424.76,2647.59 L1386.97,2638.29 L1382.89,2632.24 L1377.55,2595.9 L1365.89,2584.36 L1365.12,2561.66 L1361.14,2545.87 L1345.41,2542.17 L1332.02,2546 L1241.92,2559.97 L1207.44,2551.83 L1065.33,2486.17 L1023.03,2408.02 L1010.49,2404.55 L983.372,2406.76 L979.363,2410.82 L971.27,2402.79 L978.675,2382.55 L975.617,2376.5 L966.569,2375.04 L960.059,2380.14 L951.647,2399.38 L945.117,2400.43 L943.99,2381.75 L939.949,2378.75 L924.391,2382.38 L908.864,2392.07 L894.017,2374.62 L859.177,2337.97 L854.178,2305.6 L844.183,2286.85 L809.381,2258.38 L850.211,2196.47 L861.766,2173.11 L858.41,2149.81 L925.173,2084.01 L906.527,2031.5 L938.821,1951.65 L925.259,1941.92 L897.514,1947.21 L811.407,1964.99 L793.189,1946.28 L793.021,1888.97 L806.795,1863.34 L810.845,1837.03 L849.432,1775.23 L851.744,1733.73 L870.382,1732.13 L908.355,1703.82 L1023.95,1649.2 L1018.86,1587.83 L1011.97,1530.7 L1008.31,1491.12 L1007.26,1479.36 L1005.55,1456.39 L972.936,1424.27 L983.816,1404.71 L1009.06,1396.35 L1047.79,1390.93 L1044.53,1374.42 L1034.54,1355.73 L1039.25,1324.21 L1011.12,1291.34 L1035.63,1284.47 L1033.67,1255.26 L1040.64,1224.49 L1018.07,1166.87 L1054.94,1138.23 L1083.28,1137.35 L1066.14,1092.47 L1145.73,1029.19 L1190.87,957.828 L1184.13,832.845 L1208.47,816.603 L1212.88,806.537 L1205.75,786.515 L1193.72,783.077 L1187.19,775.601 L1191.64,770.057 L1207.23,768.361 L1203.76,737.715 L1189.69,698.871 L1170.83,640.218 L1170.38,611.819 L1156.79,602.158 L1188.49,578.465 L1153.32,571.141 L1181.55,557.972 L1184.49,550.933 L1182.42,540.917 L1163.84,524.016 L1165.29,517.982 L1172.22,511.919 L1160.3,449.273 L1145.19,298.782 L1145.7,146.066 L1149.79,121.452 L1154.8,112.388 L1161.83,118.353 L1180.8,125.21 L1195.22,124.598 L1209.61,117.493 L1225.54,119.36 L1233.07,123.31 L1242.61,134.259 L1249.09,135.701 L1258.64,146.153 L1302.03,152.315 L1308.3,128.243 L1319.65,116.136 L1319.85,113.253 L1322.5,115.014 L1340.91,128.454 L1347.07,132.753 L1363.74,144.187 L1369.91,148.507 L1373.44,150.755 L1377.58,153.57 L1382.72,156.93 L1386.25,159.462 L1392.16,163.499 L1396.12,166.314 L1406.89,173.624 L1420.55,182.899 L1428.3,188.159 L1438.42,195.078 L1452.82,205.03 L1460.83,210.377 L1471.37,217.689 L1475.76,220.483 L1485.53,227.25 L1501.8,238.208 L1510.14,243.839 L1518.91,249.843 L1526.48,254.907 L1532.2,258.674 L1532.31,258.749 L1536.94,256.479 L1541.67,254.252 L1547.89,251.349 L1552.54,249.188 L1558.86,246.001 L1568.3,241.504 L1585.15,233.34 L1595.84,228.079 L1602.18,225.176 L1611.11,220.396 L1616.58,217.951 L1628.3,212.429 L1639.25,206.994 L1647.43,202.957 L1655.94,198.832 L1666.15,193.877 L1671.7,191.236 L1682.9,185.715 L1692.11,181.219 L1697.25,178.862 L1703.23,175.872 L1707.35,173.995 L1712.67,171.268 L1718.3,168.474 L1726.56,164.524 L1732.13,161.709 L1735.92,160.029 L1741.69,157.225 L1741.85,157.148 L1746.42,165.386 L1767.67,203.655 L1795.45,253.728 L1795.59,253.655 L1809.72,245.979 L1843.18,258.758 L1848.19,260.67 L1848.68,260.749 L1960.78,278.987 L1960.78,279.013 L1957.54,325.232 L1958.92,335.459 L1969.77,416.174 L1981.91,506.514 L1993.92,595.957 L1996,611.489 L1974.24,725.715 L1954.05,831.765 L1935.55,928.95 L1936.09,946.438 L1938.96,1037.87 L1942.41,1147.29 L1942.59,1147.88 L1995.8,1274.1 L2054.37,1413.07 L2054.37,1413.18 L2054.18,1559.32 L2054,1682.29 L2053.84,1806.87 L2053.85,1819.59 L2053.86,1857.46 L2053.81,1873.48 L2053.73,1897.16 L2053.71,1909.93 L2053.66,1945.71 L2053.63,1969.48 L2053.57,2039.18 L2053.55,2065.65 L2053.83,2099.45 L2053.84,2101.01 L2053.81,2101.02 L2053.2,2101.1 L2052.5,2101.18 L2051.59,2101.28 L2050.82,2101.43 L2049.51,2101.43 L2047.78,2101.3 L2045.8,2101.12 L2043.76,2101.06 L2042.93,2101.19 L2041.32,2101.69 L2039.13,2101.45 L2036.97,2101.14 L2036.01,2101.1 L2034.71,2101.06 L2033.24,2100.92 L2031.85,2100.66 L2031.4,2100.52 L2031.04,2100.42 L2029.89,2100.07 L2027.59,2099.16 L2026.16,2098.35 L2024.86,2097.27 L2024.72,2097.1 L2023.86,2096.02 L2023.65,2095.66 L2023.08,2094.68 L2022.78,2093.51 L2022.15,2092.04 L2021.9,2091.47 L2021.19,2089.93 L2020.51,2088.13 L2020.53,2086.48 L2019.66,2084.83 L2018.78,2083.38 L2017.82,2082.3 L2016.86,2081.04 L2015.97,2079.59 L2015.35,2078.08 L2014.74,2076.56 L2014.23,2075.31 L2013.34,2073.68 L2012.27,2071.88 L2011.78,2070.8 L2011.34,2070.09 L2010.54,2069 L2009.36,2067.54 L2008.01,2066.23 L2006.89,2064.73 L2005.52,2062.66 L2004.26,2060.95 L2003.32,2059.74 L2002.55,2058.66 L2001.94,2057.12 L2001.47,2055.45 L2000.94,2053.67 L2000.34,2051.28 L2000.28,2051.05 L2000.12,2049.47 L2000,2048.46 L1999.9,2047.29 L1999.86,2046.47 L1999.85,2046.09 L1999.92,2044.48 L1999.69,2042.81 L1999.41,2041.45 L1999.28,2040.39 L1998.5,2039.13 L1998.45,2039.05 L1997.77,2037.2 L1997.04,2035.31 L1996.9,2034.9 L1996.49,2033.71 L1996.12,2032.72 L1995.27,2031.86 L1995.07,2031.71 L1994.31,2031.14 L1993.23,2029.53 L1992.55,2028.76 L1992.31,2028.5 L1991.39,2027.64 L1990.64,2026.85 L1989.72,2026.17 L1988.68,2025.53 L1986.95,2024.19 L1985.54,2023.57 L1984.58,2023.2 L1983.42,2022.72 L1982.68,2022.54 L1981.34,2022.34 L1979.26,2022.36 L1977.46,2022.83 L1976.91,2022.98 L1975.61,2023.44 L1974.42,2023.49 L1972.26,2023.71 L1970.41,2024.15 L1968.41,2024.69 L1966.76,2025.13 L1964.65,2025.77 L1962.98,2026.3 L1961.17,2027.16 L1959.18,2028.05 L1958.68,2028.28 L1956.48,2029 L1954.91,2029.36 L1953.91,2029.66 L1952.24,2029.97 L1950.36,2030.21 L1948.71,2030.3 L1946.87,2030.39 L1945.02,2030.78 L1942.87,2031.38 L1941.06,2031.55 L1939.22,2031.99 L1937.71,2032.32 L1936.02,2032.63 L1934.55,2032.81 L1932.74,2033.14 L1930.62,2033.71 L1929.13,2034.28 L1927.13,2035.31 L1925.81,2035.99 L1924.4,2036.72 L1923.01,2037.12 L1921.73,2037.25 L1920.01,2037.8 L1918.93,2038.38 L1918.63,2038.54 L1917.57,2039.32 L1917.51,2039.36 L1917.3,2039.64 L1916.71,2040.39 L1916.67,2040.43 L1916,2041.07 L1914.81,2041.64 L1913.94,2042.66 L1912.55,2043.12 L1911.67,2044.52 L1911.29,2046.06 L1910.88,2047.16 L1909.84,2048.13 L1909.45,2048.72 L1908.8,2049.3 L1908.08,2050.04 L1907.23,2050.57 L1906.31,2050.99 L1905.27,2051.47 L1904.03,2051.78 L1902.07,2052.04 L1901.52,2052.13 L1899.86,2052.37 L1898.31,2052.68 L1898.17,2052.69 L1896.7,2052.77 L1894.73,2052.81 L1893.09,2052.64 L1891.65,2052.73 L1890.22,2052.99 L1889.04,2053.17 L1887.93,2053.19 L1886.73,2053.08 L1886.73,2053.08 L1885.45,2052.77 L1883.84,2052.51 L1882.41,2052.24 L1881.96,2051.96 L1880.88,2051.3 L1878.88,2050.31 L1877.55,2049.45 L1877.27,2049.27 L1876.3,2048.57 L1875.84,2048.24 L1874.15,2047.08 L1872.48,2045.91 L1870.42,2044.52 L1870.2,2044.37 L1868.68,2043.27 L1867.42,2042 L1866.5,2040.24 L1866.42,2040.08 L1865.1,2038.86 L1864.62,2038.41 L1863.5,2036.35 L1862.95,2034.87 L1862.34,2033.4 L1861.77,2032.12 L1861.61,2031.77 L1861.44,2031.56 L1861.43,2031.54 L1860.5,2030.39 L1859.69,2029.66 L1859.04,2029.26 L1858.91,2029.18 L1858.06,2028.76 L1856.83,2028.28 L1855.82,2028 L1855.57,2027.93 L1854.73,2027.77 L1854.02,2027.64 L1852.8,2027.42 L1851.18,2026.81 L1850.02,2026.3 L1848.9,2026.04 L1847.92,2025.73 L1846.64,2025.64 L1845.49,2025.64 L1844.17,2025.53 L1842.95,2025.73 L1842.26,2025.89 L1841.8,2025.99 L1840.61,2026.21 L1840.6,2026.21 L1840.56,2026.23 L1840.44,2026.29 L1839.6,2026.7 L1837.79,2027.07 L1836.4,2027.46 L1834.67,2028.01 L1833.06,2028.23 L1831.18,2028.5 L1829.75,2028.5 L1828.36,2028.5 L1827.28,2028.76 L1827.18,2028.78 L1826.28,2028.94 L1826.06,2028.94 L1825.47,2028.94 L1824.67,2029 L1823.25,2029.44 L1821.94,2030.08 L1820.82,2030.74 L1819.59,2031.69 L1818.9,2032.17 L1818.51,2032.46 L1817.47,2033.25 L1815.78,2033.93 L1814.82,2034.37 L1814.45,2034.47 L1813.93,2034.61 L1813.01,2034.92 L1812.13,2035.18 L1810.48,2035.47 L1810.05,2035.53 L1811.19,2038.3 L1818.9,2061.85 L1813.23,2081.53 L1808.43,2134.99 L1808.4,2135.34 L1807.71,2139.49 L1796.51,2206.32 L1789.41,2249.8 L1788.86,2253.19 L1786.72,2266.43 L1784.8,2278.23 L1790.41,2317.05 L1786.8,2336.18 L1779.85,2373.95 L1777.99,2384.27 L1775.89,2395.22 L1773.08,2409.88 L1769.32,2430.14 L1763.88,2452.53 L1763.88,2452.55 L1761.84,2467.88 L1759.19,2506.51 L1758.5,2517.12 L1757.09,2538.89 L1756.88,2543.76 L1755.27,2580.84 L1752.68,2610.06 L1750.91,2628.37 L1748.69,2655.04 L1747.73,2661.26 L1744.93,2679.46 L1742.83,2692.84 L1739.86,2712.23 L1739.86,2712.26 L1739.77,2720.72 L1740.02,2725.2 L1740.1,2727.41 L1740.3,2732.56 L1740.57,2742.31 L1740.57,2742.35 L1739.44,2765.73 L1738.69,2781.16 L1738.84,2787.68 L1739.28,2802.5 L1740.04,2828.04 L1740.06,2828.43 L1627.66,2828.93" vector-effect="none" fill-rule="evenodd"/>
  </g>
  <g stroke-linecap="square" font-size="34.5833" transform="matrix(0.999744,0,0,0.999744,0,0)" stroke="#000000" stroke-linejoin="bevel" font-weight="400" font-family="MS Shell Dlg 2" stroke-width="1" font-style="normal" fill="none" stroke-opacity="1"/>
  <g stroke-linecap="square" font-size="34.5833" transform="matrix(11.808,0,0,11.808,0,0)" stroke="#000000" stroke-linejoin="bevel" font-weight="400" font-family="MS Shell Dlg 2" stroke-width="1" font-style="normal" fill="none" stroke-opacity="1"/>
  <g stroke-linecap="square" font-size="34.5833" transform="matrix(11.808,0,0,11.808,0,0)" stroke="#000000" stroke-linejoin="bevel" font-weight="400" font-family="MS Shell Dlg 2" stroke-width="1" font-style="normal" fill="none" stroke-opacity="1"/>
  <g stroke-linecap="square" font-size="34.5833" transform="matrix(11.808,0,0,11.808,0,0)" stroke="#000000" stroke-linejoin="bevel" font-weight="400" font-family="MS Shell Dlg 2" stroke-width="1" font-style="normal" fill="none" stroke-opacity="1"/>
  <g stroke-linecap="square" font-size="34.5833" transform="matrix(1,0,0,1,0,0)" stroke="#000000" stroke-linejoin="bevel" font-weight="400" font-family="MS Shell Dlg 2" stroke-width="1" font-style="normal" fill="none" stroke-opacity="1"/>
  <g stroke-linecap="square" font-size="34.5833" transform="matrix(11.808,0,0,11.808,0,0)" stroke="#000000" stroke-linejoin="bevel" font-weight="400" font-family="MS Shell Dlg 2" stroke-width="1" font-style="normal" fill="none" stroke-opacity="1"/>
  <g stroke-linecap="square" font-size="34.5833" transform="matrix(11.808,0,0,11.808,0,0)" stroke="#000000" stroke-linejoin="bevel" font-weight="400" font-family="MS Shell Dlg 2" stroke-width="1" font-style="normal" fill="none" stroke-opacity="1"/>
  <g stroke-linecap="square" font-size="34.5833" transform="matrix(11.808,0,0,11.808,0,0)" stroke="#000000" stroke-linejoin="bevel" font-weight="400" font-family="MS Shell Dlg 2" stroke-width="1" font-style="normal" fill="none" stroke-opacity="1"/>
  <g stroke-linecap="square" font-size="34.5833" transform="matrix(11.808,0,0,11.808,0,0)" stroke="#000000" stroke-linejoin="bevel" font-weight="400" font-family="MS Shell Dlg 2" stroke-width="1" font-style="normal" fill="none" stroke-opacity="1"/>
  <g stroke-linecap="square" font-size="34.5833" transform="matrix(1,0,0,1,0,0)" stroke="#000000" stroke-linejoin="bevel" font-weight="400" font-family="MS Shell Dlg 2" stroke-width="1" font-style="normal" fill="none" stroke-opacity="1"/>
 </g>
</svg>
