<?xml version='1.0' encoding='UTF-8' standalone='no'?>
<svg xmlns="http://www.w3.org/2000/svg" height="249.936mm" viewBox="0 0 2952 2952" xmlns:xlink="http://www.w3.org/1999/xlink" width="249.936mm" baseProfile="tiny" version="1.2">
 <title>Qt SVG Document</title>
 <desc>Generated with Qt</desc>
 <defs/>
 <g stroke-linecap="square" stroke="black" fill-rule="evenodd" stroke-linejoin="bevel" stroke-width="1" fill="none">
  <g stroke-linecap="square" font-size="34.5833" transform="matrix(1,0,0,1,0,0)" stroke="#000000" stroke-linejoin="bevel" font-weight="400" font-family="MS Shell Dlg 2" stroke-width="1" font-style="normal" fill="none" stroke-opacity="1"/>
  <g stroke-linecap="square" font-size="34.5833" transform="matrix(1,0,0,1,0,0)" stroke="#000000" stroke-linejoin="bevel" font-weight="400" font-family="MS Shell Dlg 2" stroke-width="1" font-style="normal" fill="none" stroke-opacity="1"/>
  <g stroke-linecap="square" font-size="34.5833" transform="matrix(11.808,0,0,11.808,0,0)" stroke="#000000" stroke-linejoin="bevel" font-weight="400" font-family="MS Shell Dlg 2" stroke-width="1" font-style="normal" fill="none" stroke-opacity="1"/>
  <g stroke-linecap="square" font-size="34.5833" transform="matrix(0.999744,0,0,0.999744,0,0)" stroke="#000000" stroke-linejoin="bevel" font-weight="400" font-family="MS Shell Dlg 2" stroke-width="1" font-style="normal" fill="none" stroke-opacity="1"/>
  <g font-size="34.5833" transform="matrix(0.999744,0,0,0.999744,0,0)" stroke="none" font-weight="400" font-family="MS Shell Dlg 2" font-style="normal" fill="#ffffff" fill-opacity="0">
   <path d="M-2,-2 L2955,-2 L2955,2955 L-2,2955 L-2,-2" vector-effect="none" fill-rule="evenodd"/>
  </g>
  <g stroke-linecap="square" font-size="34.5833" transform="matrix(0.999744,0,0,0.999744,0,0)" stroke="#000000" stroke-linejoin="bevel" font-weight="400" font-family="MS Shell Dlg 2" stroke-width="1" font-style="normal" fill="none" stroke-opacity="1"/>
  <g stroke-linecap="square" font-size="34.5833" transform="matrix(11.808,0,0,11.808,0,0)" stroke="#000000" stroke-linejoin="bevel" font-weight="400" font-family="MS Shell Dlg 2" stroke-width="1" font-style="normal" fill="none" stroke-opacity="1"/>
  <g stroke-linecap="square" font-size="34.5833" transform="matrix(11.808,0,0,11.808,0,0)" stroke="#000000" stroke-linejoin="bevel" font-weight="400" font-family="MS Shell Dlg 2" stroke-width="1" font-style="normal" fill="none" stroke-opacity="1"/>
  <g stroke-linecap="square" font-size="34.5833" transform="matrix(11.808,0,0,11.808,0,0)" stroke="#000000" stroke-linejoin="bevel" font-weight="400" font-family="MS Shell Dlg 2" stroke-width="1" font-style="normal" fill="none" stroke-opacity="1"/>
  <g stroke-linecap="square" font-size="34.5833" transform="matrix(11.808,0,0,11.808,0,0)" stroke="#000000" stroke-linejoin="bevel" font-weight="400" font-family="MS Shell Dlg 2" stroke-width="1" font-style="normal" fill="none" stroke-opacity="1"/>
  <g stroke-linecap="square" font-size="34.5833" transform="matrix(11.808,0,0,11.808,0,0)" stroke="#000000" stroke-linejoin="bevel" font-weight="400" font-family="MS Shell Dlg 2" stroke-width="1" font-style="normal" fill="none" stroke-opacity="1"/>
  <g font-size="34.5833" transform="matrix(11.808,0,0,11.808,0,0)" stroke="none" font-weight="400" font-family="MS Shell Dlg 2" font-style="normal" fill="#ffffff" fill-opacity="0">
   <path d="M0,0 L250,0 L250,250 L0,250 L0,0" vector-effect="none" fill-rule="evenodd"/>
  </g>
  <g stroke-linecap="square" font-size="34.5833" transform="matrix(11.808,0,0,11.808,0,0)" stroke="#000000" stroke-linejoin="bevel" font-weight="400" font-family="MS Shell Dlg 2" stroke-width="1" font-style="normal" fill="none" stroke-opacity="1"/>
  <g stroke-linecap="square" font-size="34.5833" transform="matrix(11.808,0,0,11.808,0,0)" stroke="#000000" stroke-linejoin="bevel" font-weight="400" font-family="MS Shell Dlg 2" stroke-width="1" font-style="normal" fill="none" stroke-opacity="1"/>
  <g font-size="34.5833" transform="matrix(0.999744,0,0,0.999744,0,0)" stroke="none" font-weight="400" font-family="MS Shell Dlg 2" font-style="normal" fill="#000000" fill-opacity="0">
   <rect x="0" height="2953" y="0" width="2953"/>
  </g>
  <g stroke-linecap="square" font-size="34.5833" transform="matrix(0.999744,0,0,0.999744,0,0)" stroke="#000000" stroke-linejoin="bevel" font-weight="400" font-family="MS Shell Dlg 2" stroke-width="1" font-style="normal" fill="none" stroke-opacity="1"/>
  <g stroke-linecap="square" font-size="34.5833" transform="matrix(0.999744,0,0,0.999744,0,0)" stroke="#5c5c5c" stroke-linejoin="bevel" font-weight="400" font-family="MS Shell Dlg 2" stroke-width="3.07087" font-style="normal" fill="#c5c5c5" stroke-opacity="1" fill-opacity="1">
   <path d="M1940.47,2376.85 L1780.11,2385.98 L1764.6,2402.47 L1742.8,2409.61 L1693.77,2407.48 L1685.29,2427.07 L1697.85,2444.28 L1736.13,2475.38 L1739.81,2494.87 L1722.98,2504.4 L1707.44,2506.02 L1665.28,2481.93 L1652.82,2481.2 L1645.83,2485.93 L1642.79,2503.14 L1649.12,2528.16 L1669.54,2564.87 L1664.13,2575.87 L1645.47,2582.98 L1466.52,2430.29 L1438.45,2410.61 L1411.9,2416.56 L1357.44,2486.81 L1315.25,2455.5 L1117.05,2588.26 L1087.05,2595.41 L1024.05,2640.06 L967.325,2712.69 L952.166,2705.74 L987.699,2611.05 L988.361,2579.51 L909.662,2509.84 L919.688,2485.29 L935.888,2484.05 L939.933,2447.87 L951.229,2430.31 L935.989,2418.71 L936.535,2380.23 L931.804,2302.08 L628.452,2376.94 L605.088,2291.9 L560.005,2296.76 L558.19,2328.27 L523.367,2322.59 L507.376,2336.65 L470.228,2330.99 L454.573,2345.39 L454.414,2345.01 L415.073,2382.03 L414.85,2377.43 L414.698,2370.07 L414.576,2363.49 L414.303,2351.21 L413.694,2335.22 L413.237,2335.56 L412.75,2336.31 L412.476,2338.22 L412.02,2339.28 L411.986,2339.71 L411.898,2340.84 L411.533,2342.14 L411.167,2342.82 L410.163,2343.57 L407.697,2345.96 L405.871,2349.1 L405.232,2351.24 L403.923,2355.13 L403.547,2356.35 L402.827,2358.68 L402.818,2359.47 L402.778,2363.25 L402.766,2364.3 L403.671,2375.89 L403.679,2376 L404.105,2378.59 L403.71,2379.96 L401.579,2382.11 L401.561,2382.12 L399.022,2384.63 L398.687,2386.44 L398.961,2387.94 L399.268,2388.7 L400.179,2390.97 L401.939,2394.86 L402.093,2395.2 L402.218,2395.47 L402.183,2395.53 L400.118,2398.75 L400.262,2400.04 L400.331,2400.66 L401.153,2402.4 L397.744,2403.62 L380.272,2411.98 L356.073,2422.65 L347.245,2426.37 L340.123,2435.58 L330.443,2446.8 L325.177,2451.44 L321.068,2454.82 L318.663,2456.15 L316.593,2456.76 L314.615,2456.86 L312.575,2456.49 L294.069,2451.41 L284.724,2454.82 L278.179,2456.25 L274.235,2461.72 L274.101,2461.91 L273.887,2466.72 L270.884,2471.02 L268.53,2474.39 L267.23,2474.73 L260.652,2476.42 L243.401,2480.87 L242.444,2481.11 L241.561,2482.65 L238.03,2489.98 L234.499,2495.24 L225.094,2508.57 L208.2,2526.59 L201.534,2531.22 L194.503,2533.95 L191.1,2535.14 L189.554,2535.68 L185.941,2536.94 L180.164,2538.96 L176.774,2540.15 L174.547,2540.92 L172.526,2541.63 L170.11,2536.57 L169.469,2535.22 L166.961,2529.97 L161.908,2519.38 L156.77,2508.61 L156.649,2508.36 L152.698,2500.08 L150.353,2495.16 L149.452,2493.28 L140.93,2475.42 L140.808,2474.19 L115.717,2221.56 L115.696,2221.35 L103.703,2100.5 L103.642,1966.84 L105.712,1798.25 L106.169,1649.72 L106.321,1603.23 L110.836,1571.13 L114.296,1546.53 L115.3,1536.67 L116.792,1524.62 L117.888,1514.99 L120.231,1494.88 L121.023,1487.4 L121.992,1477.68 L122.027,1477.33 L123.093,1466 L123.397,1463.72 L124.28,1456.3 L125.254,1448.75 L126.228,1439.12 L127.172,1430.04 L128.27,1422.92 L128.693,1420.17 L130.063,1408.2 L130.916,1400.92 L131.768,1392.79 L132.894,1383.74 L134.112,1372.79 L134.629,1368.54 L134.873,1366.26 L135.914,1356.31 L135.968,1355.79 L136.699,1348.95 L136.882,1347.39 L137.643,1339.32 L138.221,1334.53 L138.951,1328.2 L139.804,1320.89 L140.443,1314.97 L140.778,1312.19 L141.569,1305.66 L142.269,1298.62 L143.182,1289.23 L145.039,1274.91 L147.292,1255.09 L149.757,1249.65 L152.892,1242.07 L155.541,1235.47 L157.824,1229.96 L159.437,1226.09 L161.598,1220.89 L163.363,1216.84 L165.038,1212.35 L167.534,1206.67 L169.299,1202.49 L171.734,1196.78 L174.078,1191.07 L176.544,1184.98 L178.583,1179.54 L181.201,1173.76 L183.058,1169.01 L185.523,1163.67 L188.141,1156.84 L191.185,1150.21 L193.985,1143.27 L196.785,1136.54 L199.829,1129.44 L202.112,1123.56 L204.273,1118.29 L205.826,1114.52 L212.127,1099.39 L219.341,1082.19 L225.794,1066.29 L242.292,1047.97 L247.253,1042.02 L250.267,1038.69 L252.945,1035.46 L255.259,1032.88 L258.059,1029.75 L261.803,1025.3 L264.634,1021.97 L268.469,1017.59 L272.092,1013.3 L275.653,1009.23 L279.64,1004.81 L306.792,973.31 L319.12,948.201 L333.396,918.949 L339.91,905.835 L345.328,895.032 L347.915,889.8 L351.05,883.346 L353.851,877.537 L355.251,874.514 L358.021,869.011 L360.425,864.153 L362.861,859.669 L391.169,801.214 L395.816,792.59 L412.689,761.275 L436.467,738.069 L453.143,721.795 L460.642,727.413 L461.619,727.923 L561.584,807.921 L611.753,829.765 L734.808,916.425 L906.29,998.127 L997.809,1146.52 L1087.02,1146.13 L1138,1151.7 L1182.25,1166.61 L1187.32,1193.35 L1212.88,1199.05 L1245.75,1153.55 L1287.47,1158.1 L1272.14,1167.18 L1269.19,1177.07 L1270.23,1181.54 L1272.29,1181.84 L1282.43,1185.11 L1286.27,1187.92 L1299.24,1185.38 L1316.39,1230.19 L1328.4,1252.41 L1360.78,1257.6 L1380.89,1256.56 L1398.12,1250.55 L1406.78,1224.68 L1406.68,1221.45 L1466.6,1242.8 L1474.76,1281.61 L1496.8,1283.84 L1497.39,1247.78 L1529.82,1248.8 L1569.76,1212.56 L1552.64,1155.65 L1579.56,1028.8 L1564.87,980.039 L1630.45,880.948 L1612.22,827.59 L1615.17,795.038 L1676.58,725.053 L1736.75,722.47 L1784.04,707.13 L1820.79,691.307 L1850.44,663.307 L1873.07,629.503 L1882.56,600.415 L1906.76,635.355 L1919.17,637.623 L1958.64,624.96 L1971.08,635.022 L1982.85,660.68 L1999.9,662.931 L2031.58,644.855 L2067.85,612.73 L2090.11,579.135 L2132.65,566.437 L2182.74,517.898 L2198.19,512.344 L2213.69,512.268 L2236.28,529.283 L2292.05,532.065 L2309.81,521.852 L2319.81,508.551 L2322.05,495.299 L2308.76,476.698 L2310.26,468.108 L2323.37,459.484 L2358.18,450.711 L2348.79,435.211 L2316.08,406.594 L2312.92,397.267 L2319.78,380.118 L2331.37,376.157 L2353.97,397.039 L2374.15,404.688 L2396.59,400.656 L2400.2,360.174 L2419.56,360.826 L2425.73,356.122 L2413.2,333.629 L2424.65,309.448 L2413.65,282.273 L2416.68,272.142 L2431.28,258.829 L2463.71,243.835 L2493.08,236.648 L2498.38,218.726 L2518.52,220.921 L2546.48,235.522 L2573.62,237.685 L2621.68,232.656 L2653.83,213.944 L2728.03,220.575 L2803.01,201.678 L2824.1,216.666 L2824.8,260.722 L2854.06,351.712 L2875.88,411.973 L2881.27,459.515 L2857.08,462.146 L2850.18,470.746 L2860.31,482.344 L2878.97,487.678 L2890.04,518.738 L2883.19,534.353 L2845.43,559.55 L2855.89,753.44 L2785.87,864.15 L2662.39,962.312 L2688.98,1031.93 L2645.02,1033.3 L2587.82,1077.74 L2622.83,1167.12 L2612.02,1214.85 L2615.05,1260.16 L2577.03,1270.82 L2620.68,1321.82 L2613.37,1370.72 L2628.86,1399.71 L2633.93,1425.32 L2573.84,1433.73 L2534.68,1446.7 L2517.8,1477.04 L2568.39,1526.87 L2571.04,1562.51 L2572.67,1580.76 L2578.36,1642.16 L2589.05,1730.77 L2596.93,1825.99 L2417.61,1910.71 L2358.7,1954.64 L2329.79,1957.12 L2326.21,2021.49 L2266.34,2117.37 L2260.06,2158.18 L2238.69,2197.95 L2238.95,2286.85 L2112.91,2225.62 L1980.98,2303.17 L1961.58,2323.13 L1940.47,2376.85" vector-effect="none" fill-rule="evenodd"/>
  </g>
  <g stroke-linecap="square" font-size="34.5833" transform="matrix(0.999744,0,0,0.999744,0,0)" stroke="#000000" stroke-linejoin="bevel" font-weight="400" font-family="MS Shell Dlg 2" stroke-width="1" font-style="normal" fill="none" stroke-opacity="1"/>
  <g stroke-linecap="square" font-size="34.5833" transform="matrix(11.808,0,0,11.808,0,0)" stroke="#000000" stroke-linejoin="bevel" font-weight="400" font-family="MS Shell Dlg 2" stroke-width="1" font-style="normal" fill="none" stroke-opacity="1"/>
  <g stroke-linecap="square" font-size="34.5833" transform="matrix(11.808,0,0,11.808,0,0)" stroke="#000000" stroke-linejoin="bevel" font-weight="400" font-family="MS Shell Dlg 2" stroke-width="1" font-style="normal" fill="none" stroke-opacity="1"/>
  <g stroke-linecap="square" font-size="34.5833" transform="matrix(11.808,0,0,11.808,0,0)" stroke="#000000" stroke-linejoin="bevel" font-weight="400" font-family="MS Shell Dlg 2" stroke-width="1" font-style="normal" fill="none" stroke-opacity="1"/>
  <g stroke-linecap="square" font-size="34.5833" transform="matrix(1,0,0,1,0,0)" stroke="#000000" stroke-linejoin="bevel" font-weight="400" font-family="MS Shell Dlg 2" stroke-width="1" font-style="normal" fill="none" stroke-opacity="1"/>
  <g stroke-linecap="square" font-size="34.5833" transform="matrix(11.808,0,0,11.808,0,0)" stroke="#000000" stroke-linejoin="bevel" font-weight="400" font-family="MS Shell Dlg 2" stroke-width="1" font-style="normal" fill="none" stroke-opacity="1"/>
  <g stroke-linecap="square" font-size="34.5833" transform="matrix(11.808,0,0,11.808,0,0)" stroke="#000000" stroke-linejoin="bevel" font-weight="400" font-family="MS Shell Dlg 2" stroke-width="1" font-style="normal" fill="none" stroke-opacity="1"/>
  <g stroke-linecap="square" font-size="34.5833" transform="matrix(11.808,0,0,11.808,0,0)" stroke="#000000" stroke-linejoin="bevel" font-weight="400" font-family="MS Shell Dlg 2" stroke-width="1" font-style="normal" fill="none" stroke-opacity="1"/>
  <g stroke-linecap="square" font-size="34.5833" transform="matrix(11.808,0,0,11.808,0,0)" stroke="#000000" stroke-linejoin="bevel" font-weight="400" font-family="MS Shell Dlg 2" stroke-width="1" font-style="normal" fill="none" stroke-opacity="1"/>
  <g stroke-linecap="square" font-size="34.5833" transform="matrix(1,0,0,1,0,0)" stroke="#000000" stroke-linejoin="bevel" font-weight="400" font-family="MS Shell Dlg 2" stroke-width="1" font-style="normal" fill="none" stroke-opacity="1"/>
 </g>
</svg>
