<?xml version='1.0' encoding='UTF-8' standalone='no'?>
<svg width="249.936mm" viewBox="0 0 2952 2952" baseProfile="tiny" xmlns:xlink="http://www.w3.org/1999/xlink" xmlns="http://www.w3.org/2000/svg" version="1.2" height="249.936mm">
 <title>Qt SVG Document</title>
 <desc>Generated with Qt</desc>
 <defs/>
 <g fill="none" stroke-linejoin="bevel" stroke-width="1" stroke-linecap="square" fill-rule="evenodd" stroke="black">
  <g stroke-opacity="1" fill="none" font-size="34.5833" stroke-linejoin="bevel" stroke-width="1" stroke-linecap="square" font-family="MS Shell Dlg 2" font-style="normal" transform="matrix(1,0,0,1,0,0)" font-weight="400" stroke="#000000"/>
  <g stroke-opacity="1" fill="none" font-size="34.5833" stroke-linejoin="bevel" stroke-width="1" stroke-linecap="square" font-family="MS Shell Dlg 2" font-style="normal" transform="matrix(1,0,0,1,0,0)" font-weight="400" stroke="#000000"/>
  <g stroke-opacity="1" fill="none" font-size="34.5833" stroke-linejoin="bevel" stroke-width="1" stroke-linecap="square" font-family="MS Shell Dlg 2" font-style="normal" transform="matrix(11.808,0,0,11.808,0,0)" font-weight="400" stroke="#000000"/>
  <g stroke-opacity="1" fill="none" font-size="34.5833" stroke-linejoin="bevel" stroke-width="1" stroke-linecap="square" font-family="MS Shell Dlg 2" font-style="normal" transform="matrix(0.999744,0,0,0.999744,0,0)" font-weight="400" stroke="#000000"/>
  <g fill="#ffffff" font-size="34.5833" font-family="MS Shell Dlg 2" font-style="normal" transform="matrix(0.999744,0,0,0.999744,0,0)" font-weight="400" stroke="none" fill-opacity="0">
   <path d="M-2,-2 L2955,-2 L2955,2955 L-2,2955 L-2,-2" fill-rule="evenodd" vector-effect="none"/>
  </g>
  <g stroke-opacity="1" fill="none" font-size="34.5833" stroke-linejoin="bevel" stroke-width="1" stroke-linecap="square" font-family="MS Shell Dlg 2" font-style="normal" transform="matrix(0.999744,0,0,0.999744,0,0)" font-weight="400" stroke="#000000"/>
  <g stroke-opacity="1" fill="none" font-size="34.5833" stroke-linejoin="bevel" stroke-width="1" stroke-linecap="square" font-family="MS Shell Dlg 2" font-style="normal" transform="matrix(11.808,0,0,11.808,0,0)" font-weight="400" stroke="#000000"/>
  <g stroke-opacity="1" fill="none" font-size="34.5833" stroke-linejoin="bevel" stroke-width="1" stroke-linecap="square" font-family="MS Shell Dlg 2" font-style="normal" transform="matrix(11.808,0,0,11.808,0,0)" font-weight="400" stroke="#000000"/>
  <g stroke-opacity="1" fill="none" font-size="34.5833" stroke-linejoin="bevel" stroke-width="1" stroke-linecap="square" font-family="MS Shell Dlg 2" font-style="normal" transform="matrix(11.808,0,0,11.808,0,0)" font-weight="400" stroke="#000000"/>
  <g stroke-opacity="1" fill="none" font-size="34.5833" stroke-linejoin="bevel" stroke-width="1" stroke-linecap="square" font-family="MS Shell Dlg 2" font-style="normal" transform="matrix(11.808,0,0,11.808,0,0)" font-weight="400" stroke="#000000"/>
  <g stroke-opacity="1" fill="none" font-size="34.5833" stroke-linejoin="bevel" stroke-width="1" stroke-linecap="square" font-family="MS Shell Dlg 2" font-style="normal" transform="matrix(11.808,0,0,11.808,0,0)" font-weight="400" stroke="#000000"/>
  <g fill="#ffffff" font-size="34.5833" font-family="MS Shell Dlg 2" font-style="normal" transform="matrix(11.808,0,0,11.808,0,0)" font-weight="400" stroke="none" fill-opacity="0">
   <path d="M0,0 L250,0 L250,250 L0,250 L0,0" fill-rule="evenodd" vector-effect="none"/>
  </g>
  <g stroke-opacity="1" fill="none" font-size="34.5833" stroke-linejoin="bevel" stroke-width="1" stroke-linecap="square" font-family="MS Shell Dlg 2" font-style="normal" transform="matrix(11.808,0,0,11.808,0,0)" font-weight="400" stroke="#000000"/>
  <g stroke-opacity="1" fill="none" font-size="34.5833" stroke-linejoin="bevel" stroke-width="1" stroke-linecap="square" font-family="MS Shell Dlg 2" font-style="normal" transform="matrix(11.808,0,0,11.808,0,0)" font-weight="400" stroke="#000000"/>
  <g fill="#000000" font-size="34.5833" font-family="MS Shell Dlg 2" font-style="normal" transform="matrix(0.999744,0,0,0.999744,0,0)" font-weight="400" stroke="none" fill-opacity="0">
   <rect width="2953" y="0" x="0" height="2953"/>
  </g>
  <g stroke-opacity="1" fill="none" font-size="34.5833" stroke-linejoin="bevel" stroke-width="1" stroke-linecap="square" font-family="MS Shell Dlg 2" font-style="normal" transform="matrix(0.999744,0,0,0.999744,0,0)" font-weight="400" stroke="#000000"/>
  <g stroke-opacity="1" fill="#c5c5c5" font-size="34.5833" stroke-linejoin="bevel" stroke-width="1.1811" stroke-linecap="square" font-family="MS Shell Dlg 2" font-style="normal" transform="matrix(0.999744,0,0,0.999744,0,0)" font-weight="400" stroke="#5c5c5c" fill-opacity="1">
   <path d="M289.285,2220.15 L291.292,2225.19 L295.311,2231.57 L296.313,2233.45 L297.602,2239.82 L297.894,2243.91 L297.71,2249.75 L297.407,2252.2 L298.032,2253.14 L298.637,2255.66 L301.75,2256.09 L300.775,2264.98 L300.535,2269.42 L301.367,2270.6 L303.172,2271.66 L304.968,2272.34 L308.253,2272.66 L310.952,2273.07 L312.353,2275.01 L313.815,2277.51 L313.401,2279.31 L312.468,2280.78 L312.912,2283.5 L314.327,2284.4 L315.982,2285.4 L318.279,2286.42 L319.235,2287.49 L319.785,2289.25 L320.72,2290.48 L323.407,2289.55 L324.812,2288.04 L325.882,2289.62 L327.574,2291.16 L328.954,2291.95 L330.404,2292.69 L330.747,2295.04 L331.263,2296.42 L331.402,2297.78 L331.765,2299.3 L332.364,2301.96 L332.348,2304.59 L333.189,2305.58 L334.254,2306.51 L335.302,2307.74 L337.239,2308.26 L339.159,2308.76 L340.988,2308.9 L341.756,2310.74 L342.1,2312.6 L341.7,2314.48 L341.639,2316.66 L343.117,2317.76 L343.277,2318.96 L344.109,2320.2 L346.224,2322.16 L347.947,2322.63 L351.609,2323.24 L353.772,2323.03 L356.376,2323.21 L358.454,2323.67 L360.743,2325.15 L362.097,2326.01 L364.882,2327.74 L366.823,2329.4 L367.749,2331.24 L367.519,2333 L366.572,2335.19 L367.136,2337.93 L368.003,2340.69 L368.934,2342.9 L370.34,2344.6 L371.9,2346.01 L373.263,2348.4 L374.526,2351.36 L376.326,2352.47 L375.05,2356.03 L375.254,2359.39 L374.873,2361.7 L374.246,2364.32 L373.67,2366.61 L372.796,2368.73 L371.475,2370.79 L370.864,2373.24 L369.587,2375.69 L369.35,2378.05 L370.21,2379.54 L372.525,2379.92 L371.421,2383.02 L370.282,2384.49 L373.635,2387.84 L375.273,2389.59 L376.242,2390.5 L376.573,2390.97 L377.727,2391.6 L378.707,2391.64 L380.279,2392 L381.904,2393.83 L382.374,2396.86 L383.335,2399.05 L384.247,2400.97 L383.633,2402.32 L383.744,2404.58 L383.666,2407.05 L383.523,2409.41 L383.269,2411.7 L383.742,2414.41 L384.686,2417.79 L384.743,2420.88 L385.37,2424.1 L386.242,2426.56 L383.302,2429.32 L380.895,2432.17 L380.926,2435.31 L380.646,2437.12 L380.244,2438.96 L380.618,2441.18 L382.244,2443.15 L384.383,2444.93 L386.066,2446.34 L388.029,2448.66 L388.228,2451 L390.217,2452.35 L392.894,2453.47 L394.073,2454.54 L395.185,2454.68 L396.537,2454.62 L397.739,2454.48 L398.868,2454.11 L399.921,2453.89 L401.95,2453.45 L404.503,2453.04 L405.614,2453.47 L407.3,2454.5 L408.802,2456.17 L409.984,2457.24 L411.225,2458.66 L412.324,2461.6 L412.756,2463.95 L412.447,2465.61 L412.717,2469.61 L413.227,2472.1 L414.144,2474.38 L416.262,2478.85 L416.859,2481 L417.259,2483.8 L417.777,2484.71 L419.189,2486.62 L419.679,2488.71 L421.567,2489.94 L422.878,2492.78 L425.033,2492.25 L428.164,2490.87 L430.167,2490.03 L431.765,2489.26 L434.047,2487.93 L435.172,2486.8 L439.037,2487.36 L440.24,2487.22 L441.144,2486.85 L442.879,2485.88 L443.707,2485.5 L448.287,2485.61 L450.605,2486.91 L451.877,2487.45 L452.849,2487.99 L454.72,2488.83 L455.542,2489.29 L456.138,2489.9 L457.258,2490.74 L458.304,2491.43 L460.617,2493.34 L461.514,2493.8 L462.563,2494.11 L463.688,2494.27 L464.964,2494.35 L466.317,2494.21 L467.593,2494.22 L469.169,2494.3 L470.683,2495.3 L471.97,2497.51 L473.104,2498.15 L475.196,2498.85 L475.549,2499.09 L475.737,2499.91 L476.395,2500.19 L477.264,2499.91 L477.822,2499.99 L478.046,2500.06 L478.281,2500.12 L478.698,2500 L479.003,2500.11 L479.209,2500.25 L479.562,2500.31 L479.744,2500.41 L479.992,2500.67 L480.135,2500.8 L480.443,2500.82 L480.766,2500.76 L480.966,2500.82 L481.189,2500.98 L481.783,2501.09 L481.924,2501.05 L482.177,2501.04 L482.364,2501.15 L482.529,2501.46 L482.788,2501.8 L483.305,2501.95 L483.628,2502.33 L483.757,2502.99 L483.98,2503.25 L484.204,2503.38 L484.339,2503.46 L484.374,2503.63 L484.386,2503.81 L484.451,2503.98 L484.521,2504.11 L484.544,2504.27 L484.48,2504.48 L484.474,2504.67 L484.662,2504.93 L484.674,2505.29 L484.383,2505.97 L484.359,2506.09 L484.448,2506.21 L484.521,2506.21 L484.85,2506.31 L485.232,2506.78 L485.438,2507.14 L485.655,2507.4 L485.779,2507.62 L485.908,2507.7 L486.113,2507.67 L486.296,2507.41 L486.413,2507.26 L486.548,2507.17 L486.736,2507.22 L486.913,2507.49 L487.171,2507.59 L487.471,2507.62 L487.612,2507.7 L487.782,2507.92 L487.935,2507.96 L488.076,2507.89 L488.24,2507.71 L488.382,2507.56 L488.611,2507.55 L488.893,2507.5 L489.322,2507.2 L489.498,2507.03 L489.768,2506.93 L490.103,2507 L490.379,2507.02 L490.55,2506.92 L490.791,2506.86 L490.991,2506.75 L491.578,2506.16 L492.025,2505.83 L492.348,2505.59 L492.542,2505.58 L492.93,2505.86 L493.112,2506.19 L493.241,2506.6 L493.541,2506.91 L493.699,2507 L493.952,2507.02 L494.058,2506.93 L494.169,2506.84 L494.299,2506.86 L494.446,2506.81 L494.546,2506.67 L494.657,2506.48 L494.769,2506.33 L494.922,2506.32 L495.18,2506.7 L495.345,2506.91 L495.539,2507.1 L495.762,2507.17 L496.179,2507.15 L496.908,2507.28 L497.137,2507.39 L497.272,2507.53 L497.384,2507.81 L497.495,2508.02 L497.63,2508.1 L497.771,2508.14 L497.93,2508.11 L498.23,2507.97 L498.441,2507.86 L498.717,2507.73 L498.958,2507.74 L499.158,2507.88 L499.428,2508.13 L499.769,2508.23 L500.139,2508.41 L500.41,2508.59 L500.609,2508.67 L500.845,2508.71 L501.068,2508.86 L501.238,2509.06 L501.855,2509.81 L502.073,2510.37 L502.249,2510.68 L502.455,2510.79 L502.742,2510.81 L503.13,2510.75 L503.448,2510.72 L503.718,2510.71 L503.947,2510.68 L504.317,2510.85 L504.535,2511.01 L504.682,2511.28 L504.734,2511.68 L504.793,2511.97 L504.705,2512.57 L504.746,2512.77 L504.887,2512.8 L505.099,2512.74 L505.293,2512.62 L505.522,2512.67 L505.534,2512.82 L505.534,2513.02 L505.598,2513.29 L505.786,2513.44 L505.968,2513.51 L506.292,2513.5 L506.468,2513.51 L506.662,2513.63 L506.803,2513.97 L506.914,2514.09 L507.038,2514.13 L507.202,2514.13 L507.39,2513.8 L507.443,2513.63 L507.449,2513.43 L507.379,2513.24 L507.361,2513.1 L507.449,2513 L507.602,2512.95 L507.943,2513.07 L508.16,2513.27 L508.354,2513.69 L508.401,2513.99 L508.489,2514.04 L508.671,2514.03 L508.906,2513.9 L509.036,2513.69 L509.147,2513.51 L509.288,2513.38 L509.541,2513.4 L509.711,2513.49 L509.905,2513.56 L510.052,2513.53 L510.223,2513.41 L510.428,2513.36 L510.593,2513.41 L510.781,2513.38 L511.239,2513.07 L511.433,2513.02 L511.739,2513.07 L511.833,2513.05 L511.891,2512.93 L511.886,2512.03 L511.944,2511.9 L512.068,2511.83 L512.297,2511.85 L512.802,2512.03 L513.084,2512.12 L513.319,2512.05 L513.454,2511.87 L513.496,2511.71 L513.519,2511.48 L513.684,2511.34 L513.866,2511.22 L514.142,2511.23 L514.453,2511.24 L514.771,2511.12 L514.953,2510.96 L515.153,2511 L515.476,2511.09 L515.676,2511.28 L515.893,2511.36 L516.134,2511.36 L516.428,2511.52 L516.586,2511.68 L516.739,2511.66 L517.08,2511.37 L517.374,2511.05 L517.603,2510.63 L517.697,2510.52 L517.991,2510.38 L518.29,2510.29 L518.384,2510.11 L518.502,2509.71 L518.625,2509.53 L518.819,2509.4 L518.984,2509.25 L519.095,2509.01 L519.195,2508.87 L519.36,2508.76 L519.566,2508.74 L519.853,2508.86 L520.212,2508.98 L520.841,2508.78 L521.246,2508.62 L521.487,2508.26 L521.704,2507.94 L522.016,2507.75 L522.362,2507.59 L522.75,2507.39 L523.22,2507.32 L523.438,2507.1 L524.096,2506.78 L524.401,2506.69 L524.707,2506.75 L525.024,2507.07 L525.171,2507.47 L525.324,2507.69 L525.477,2507.7 L525.782,2507.53 L526.17,2507.4 L526.393,2507.33 L526.699,2506.88 L526.781,2506.79 L527.087,2506.63 L527.463,2506.63 L527.78,2506.73 L528.221,2506.76 L528.938,2506.99 L529.367,2507.23 L529.467,2507.35 L529.637,2507.66 L529.619,2507.9 L529.66,2508.12 L529.784,2508.2 L530.019,2508.16 L530.607,2507.81 L531.159,2507.57 L531.623,2507.41 L531.952,2507.38 L532.193,2507.45 L532.346,2507.59 L532.504,2507.79 L532.687,2507.97 L532.886,2508.14 L533.092,2508.18 L533.356,2508.02 L533.73,2507.88 L533.994,2507.59 L534.364,2507.41 L534.555,2507.42 L534.855,2507.5 L535.146,2507.5 L535.416,2507.55 L535.51,2507.62 L535.563,2507.79 L535.616,2507.82 L536.007,2507.84 L536.621,2507.69 L537.055,2507.69 L537.276,2507.8 L537.664,2508.15 L538.33,2508.38 L538.692,2508.54 L538.986,2508.72 L539.191,2508.86 L539.488,2508.89 L539.861,2508.76 L540.008,2508.64 L540.093,2508.44 L540.046,2508.03 L540.084,2507.94 L540.499,2507.42 L540.784,2507.14 L541.266,2506.89 L541.595,2506.69 L541.753,2506.6 L541.988,2506.55 L542.529,2506.65 L542.805,2506.67 L543.169,2506.67 L543.569,2506.48 L543.945,2506.49 L544.374,2506.66 L544.585,2506.89 L545.032,2507.77 L545.179,2508.51 L545.279,2508.97 L545.373,2509.08 L545.69,2509.19 L546.072,2509.08 L546.319,2509.1 L546.442,2509.19 L546.654,2509.39 L546.86,2509.47 L547.324,2509.47 L547.7,2509.41 L547.917,2509.47 L548.011,2509.61 L548.193,2509.74 L548.511,2509.78 L548.81,2509.94 L549.233,2510.32 L549.275,2510.62 L549.051,2510.99 L548.893,2511.19 L548.857,2511.49 L549.104,2511.85 L549.498,2512.05 L549.815,2512.25 L549.921,2512.42 L549.939,2512.63 L549.939,2512.84 L550.033,2513.1 L550.388,2513.54 L550.876,2514.01 L550.92,2514.15 L550.861,2514.39 L550.808,2514.67 L550.858,2515.44 L550.711,2515.74 L550.647,2516.04 L550.558,2516.57 L550.597,2516.75 L550.752,2516.91 L550.917,2517.08 L550.946,2517.33 L551.005,2517.42 L551.217,2517.5 L551.39,2517.43 L551.49,2517.41 L551.651,2517.43 L551.886,2517.58 L552.213,2517.75 L552.527,2517.85 L552.724,2517.8 L552.926,2517.81 L553.047,2517.9 L553.164,2518.24 L553.344,2518.47 L553.908,2518.88 L554.369,2519.25 L554.748,2519.54 L555.233,2519.83 L555.444,2520.11 L555.674,2520.29 L556.12,2520.51 L556.352,2520.63 L556.743,2520.76 L556.875,2520.92 L557.031,2521.3 L557.36,2521.72 L557.586,2521.82 L557.962,2521.99 L558.221,2522.13 L558.432,2522.34 L558.606,2522.43 L558.735,2522.44 L558.897,2522.41 L559.055,2522.43 L559.129,2522.47 L559.182,2522.58 L559.208,2522.68 L559.264,2522.76 L559.522,2523.03 L559.681,2523.09 L559.795,2523.21 L559.875,2523.62 L559.989,2523.83 L560.269,2524.06 L560.433,2524.18 L560.736,2524.21 L561.006,2524.17 L561.37,2524.03 L561.582,2524.01 L561.717,2524.09 L561.999,2524.28 L562.231,2524.27 L562.434,2524.15 L562.575,2524.1 L562.801,2524.12 L563.286,2524.14 L563.973,2524.02 L564.132,2524.03 L564.22,2524.16 L564.203,2524.53 L564.288,2524.66 L564.446,2524.7 L564.814,2524.66 L565.058,2524.71 L565.196,2524.82 L565.363,2525.11 L565.466,2525.28 L565.622,2525.36 L565.851,2525.34 L566.318,2525.15 L566.532,2525.12 L566.856,2525.17 L567.117,2525.31 L567.458,2525.6 L567.816,2525.75 L568.222,2525.9 L568.433,2526.06 L568.657,2526.3 L568.795,2526.43 L569.265,2526.63 L569.603,2526.77 L569.717,2526.89 L569.747,2527.06 L569.738,2527.17 L569.811,2527.28 L570.111,2527.48 L570.437,2527.63 L570.745,2527.67 L571.107,2527.6 L571.6,2527.4 L571.906,2527.31 L572.262,2527.33 L572.494,2527.46 L572.784,2527.65 L572.987,2527.86 L573.369,2528.3 L573.437,2528.53 L573.504,2528.68 L573.642,2528.78 L573.842,2528.78 L574.03,2528.82 L574.127,2528.9 L574.283,2529.35 L574.362,2529.47 L574.471,2529.56 L574.735,2529.67 L574.959,2529.82 L574.959,2529.93 L574.876,2530.14 L574.8,2530.41 L574.803,2530.6 L574.944,2530.68 L575.179,2530.67 L575.346,2530.59 L575.605,2530.26 L575.69,2530.19 L575.74,2530.17 L575.846,2530.2 L576.031,2530.31 L576.337,2530.41 L576.883,2530.6 L577.156,2530.73 L577.247,2530.84 L577.241,2531.1 L577.28,2531.34 L577.394,2531.4 L577.588,2531.41 L577.979,2531.57 L578.096,2531.66 L578.231,2532.01 L578.346,2532.14 L578.569,2532.19 L578.846,2532.17 L579.001,2532.24 L579.154,2532.51 L579.228,2532.93 L579.186,2533.21 L579.233,2533.28 L579.36,2533.32 L579.477,2533.25 L579.63,2533.18 L579.739,2533.2 L579.827,2533.33 L579.915,2533.52 L580.009,2533.6 L580.103,2533.63 L580.271,2533.61 L580.356,2533.54 L580.429,2533.43 L580.476,2533.38 L580.547,2533.41 L580.664,2533.58 L580.708,2533.73 L580.779,2533.8 L580.929,2533.82 L581.164,2533.82 L581.334,2533.86 L581.405,2534 L581.51,2534.12 L581.751,2534.23 L582.063,2534.19 L582.286,2534.24 L582.597,2534.36 L582.938,2534.51 L583.156,2534.55 L583.391,2534.51 L583.62,2534.52 L583.796,2534.6 L584.031,2534.71 L584.284,2534.75 L584.625,2534.64 L584.912,2534.44 L585.083,2534.07 L585.119,2533.6 L585.277,2533 L585.571,2532.63 L586.053,2532.29 L586.834,2531.55 L587.551,2531.09 L587.757,2530.76 L587.939,2530.42 L587.828,2530.03 L587.616,2529.59 L587.645,2529 L587.164,2527.96 L587.187,2527.51 L587.375,2526.88 L587.81,2526.27 L587.951,2525.77 L587.916,2525.46 L587.592,2524.8 L587.516,2524.6 L587.569,2524.38 L587.986,2523.83 L588.245,2523.29 L588.362,2522.76 L588.456,2522.17 L588.656,2521.9 L589.185,2521.42 L589.367,2521.35 L589.872,2521.17 L590.06,2521.07 L590.331,2520.51 L590.86,2519.82 L591.189,2519.38 L591.371,2518.93 L591.365,2518.3 L591.453,2517.56 L591.382,2516.89 L591.588,2515.39 L591.788,2514.61 L592.634,2513.57 L592.822,2513.06 L592.781,2512.05 L592.875,2511.72 L593.48,2510.96 L594.185,2510.47 L595.026,2509.85 L595.643,2509.09 L596.119,2508.81 L596.583,2508.69 L598.181,2508.42 L598.41,2508.28 L598.645,2507.96 L598.739,2507.03 L598.604,2506.23 L598.257,2504.8 L598.434,2503.33 L598.663,2502.8 L599.186,2502.44 L599.691,2502.21 L599.991,2501.95 L600.202,2501.5 L600.208,2500.96 L599.768,2499.7 L599.756,2499.27 L600.279,2498.1 L600.526,2497.38 L600.825,2496.7 L601.096,2495.58 L601.495,2494.62 L601.953,2494.14 L602.482,2493.86 L602.629,2493.66 L602.976,2492.94 L603.158,2492.75 L603.593,2492.54 L605.485,2491.85 L606.125,2491.58 L606.825,2491.07 L607.389,2490.82 L608.153,2490.64 L608.605,2490.61 L609.839,2490.74 L610.362,2490.71 L611.044,2490.45 L611.625,2489.96 L611.907,2489.84 L612.242,2489.84 L612.53,2490 L612.777,2490.09 L612.912,2490.03 L613.376,2489.32 L613.888,2488.45 L614.046,2488.27 L614.34,2488.27 L614.651,2488.26 L614.84,2488.32 L615.31,2488.73 L615.574,2488.89 L615.833,2488.87 L615.968,2488.7 L616.262,2487.85 L616.444,2487.69 L616.673,2487.62 L617.119,2487.69 L617.331,2487.79 L617.637,2488.09 L617.836,2488.16 L618.518,2488.27 L619.164,2488.16 L620.357,2487.89 L620.745,2487.65 L621.092,2487.32 L621.221,2487.02 L621.239,2486.66 L621.144,2486.25 L620.804,2485.78 L620.733,2485.56 L620.874,2485.41 L621.168,2485.35 L621.409,2485.41 L621.532,2485.34 L621.685,2485.13 L621.944,2484.56 L622.284,2484.1 L622.655,2483.84 L623.26,2483.49 L623.524,2483.36 L624.282,2483.19 L625.005,2482.89 L625.428,2482.52 L625.599,2482.12 L625.693,2481.35 L625.945,2480.62 L626.345,2479.58 L626.527,2479.47 L626.838,2479.54 L627.338,2479.97 L628.296,2480.83 L628.936,2481.08 L629.418,2481.06 L629.806,2480.82 L630.229,2480.39 L630.434,2480.32 L630.711,2480.35 L631.322,2480.61 L631.933,2480.77 L632.926,2481.08 L633.972,2481.34 L634.342,2481.37 L634.653,2481.24 L635.153,2480.65 L636.546,2479.49 L637.356,2478.91 L638.15,2478.8 L638.479,2478.5 L639.013,2477.48 L639.243,2477.3 L639.595,2477.3 L640.753,2477.32 L640.947,2477.22 L641.117,2476.85 L641.428,2476.61 L642.239,2476.26 L642.515,2476.24 L643.115,2476.3 L643.973,2476.26 L644.319,2476.07 L645.218,2475.64 L645.647,2475.61 L646.041,2475.69 L646.306,2475.87 L646.652,2476.45 L646.846,2476.97 L647.263,2477.5 L647.639,2477.67 L647.951,2477.84 L648.209,2478.07 L648.674,2478.19 L649.367,2478.36 L649.837,2478.77 L650.143,2479.32 L650.566,2479.68 L651.188,2480.11 L651.506,2480.21 L652.076,2480.26 L652.928,2480.18 L654.244,2480.14 L655.284,2479.92 L655.872,2479.7 L656.442,2479.61 L657.347,2479.61 L658.287,2479.68 L658.704,2479.64 L659.573,2479.72 L660.678,2479.95 L661.283,2480.23 L661.636,2480.67 L661.859,2481.15 L661.9,2481.48 L661.806,2481.97 L661.507,2482.53 L661.33,2483.07 L661.401,2483.37 L661.8,2484.04 L662.13,2484.39 L662.453,2484.5 L662.67,2484.51 L662.87,2484.46 L663.164,2484.31 L663.375,2484.33 L663.722,2484.46 L664.127,2484.57 L664.691,2484.57 L665.414,2484.47 L665.973,2484.54 L666.448,2484.71 L666.995,2485.07 L667.395,2485.53 L667.735,2486.03 L667.929,2486.44 L668.44,2486.94 L668.934,2487.33 L669.463,2487.42 L670.391,2487.83 L671.038,2488.05 L671.519,2488.34 L671.96,2488.42 L672.183,2488.39 L672.971,2488.27 L673.605,2488.25 L673.852,2488.32 L674.087,2488.46 L674.158,2488.59 L674.128,2488.74 L673.964,2488.93 L673.782,2489.2 L673.641,2489.41 L673.558,2489.6 L673.547,2489.82 L673.699,2490.03 L673.94,2490.14 L674.446,2490.28 L675.233,2490.24 L676.585,2490.32 L677.76,2490.53 L678.958,2490.68 L680.093,2490.95 L680.821,2491.02 L680.986,2491.09 L681.209,2491.48 L681.215,2491.58 L681.538,2492.21 L681.797,2492.46 L682.237,2492.79 L683.125,2493.13 L683.677,2493.18 L684.27,2493.39 L684.523,2493.45 L684.823,2493.46 L685.181,2493.29 L685.534,2492.91 L686.421,2492.41 L686.962,2492.32 L687.338,2492.25 L687.714,2492.3 L688.489,2492.65 L689.012,2493.13 L689.147,2493.49 L689.236,2493.92 L689.406,2494.33 L689.6,2494.59 L689.876,2494.73 L690.217,2494.85 L690.487,2494.87 L690.757,2494.74 L691.128,2494.44 L691.568,2494.05 L692.332,2493.7 L692.949,2493.6 L693.895,2493.63 L694.565,2493.81 L694.935,2493.77 L695.153,2493.61 L696.005,2493.04 L696.675,2492.58 L697.256,2491.93 L697.726,2491.62 L698.091,2491.52 L698.42,2491.52 L698.714,2491.64 L699.107,2491.86 L699.513,2492.29 L699.801,2492.69 L700.059,2493.48 L700.382,2493.82 L701.029,2494.17 L701.358,2494.19 L701.763,2493.96 L702.639,2493.57 L703.291,2493.41 L703.679,2493.12 L704.278,2492.58 L705.13,2491.98 L706.023,2491.74 L706.529,2491.65 L707.005,2491.72 L707.545,2491.67 L708.103,2491.45 L708.579,2491.07 L708.767,2490.92 L709.073,2490.91 L709.396,2490.75 L710.066,2490.03 L710.947,2489.03 L711.523,2488.79 L711.946,2488.63 L712.258,2488.64 L712.657,2488.53 L712.834,2488.29 L713.574,2486.47 L713.862,2486.27 L714.356,2486.13 L714.914,2485.97 L715.137,2486.08 L715.266,2486.39 L715.478,2486.75 L715.713,2486.81 L716.065,2486.72 L716.389,2486.61 L716.735,2486.57 L717.47,2486.45 L718.016,2486.44 L718.874,2486.62 L719.973,2486.51 L720.561,2486.31 L720.796,2486.1 L720.937,2485.81 L721.23,2484.67 L721.513,2484.16 L721.818,2484 L722.265,2483.91 L722.817,2483.92 L723.281,2484.03 L723.681,2484.19 L723.927,2484.43 L723.992,2484.81 L724.116,2485.2 L724.386,2485.62 L724.644,2485.8 L725.191,2486.04 L725.784,2486.18 L726.178,2486.36 L726.448,2486.59 L726.625,2486.95 L726.854,2487.32 L727.236,2487.57 L727.647,2487.69 L728.305,2487.61 L728.869,2487.44 L729.257,2487.21 L729.398,2486.92 L729.398,2486.66 L729.257,2486.39 L729.286,2486.06 L729.516,2485.51 L729.674,2485.05 L730.015,2484.92 L730.597,2484.88 L731.549,2484.9 L732.8,2484.66 L733.306,2484.6 L733.564,2484.73 L733.793,2484.88 L734.034,2485.27 L734.234,2485.65 L734.404,2485.76 L734.534,2485.71 L734.728,2485.5 L735.439,2484.88 L735.92,2484.56 L736.361,2484.42 L736.672,2484.42 L737.054,2484.5 L737.248,2484.71 L737.354,2485.04 L737.519,2485.32 L737.748,2485.51 L738.142,2485.64 L738.606,2485.62 L739.088,2485.44 L739.581,2485.01 L739.928,2484.5 L739.992,2483.99 L739.898,2483.72 L739.522,2483.1 L739.405,2482.54 L739.493,2482.28 L739.84,2481.86 L740.245,2481.26 L740.492,2480.88 L740.839,2480.72 L741.154,2480.6 L741.567,2480.44 L742.102,2480.09 L742.378,2480.02 L742.883,2480.09 L743.077,2480.06 L743.459,2479.82 L743.888,2479.68 L744.47,2479.74 L745.005,2479.6 L745.675,2479.51 L746.674,2479.5 L747.596,2479.42 L748.019,2479.47 L748.272,2479.28 L748.536,2478.96 L748.93,2478.71 L749.13,2478.32 L749.341,2477.7 L749.5,2476.7 L749.788,2475.01 L749.946,2474.47 L750.234,2474.08 L750.328,2473.9 L750.311,2473.65 L750.14,2473.42 L749.5,2472.89 L749.177,2472.73 L748.889,2472.74 L748.266,2472.88 L747.937,2472.84 L747.496,2472.62 L747.079,2472.18 L746.856,2471.66 L746.809,2471.13 L746.809,2470.59 L747.091,2469.91 L747.355,2469.5 L747.525,2469.41 L747.731,2469.41 L748.184,2469.56 L748.554,2469.65 L748.93,2469.85 L749.359,2469.92 L749.911,2469.84 L750.17,2469.93 L750.581,2470.3 L751.263,2470.73 L751.809,2470.88 L752.109,2470.86 L752.273,2470.75 L752.65,2470.13 L931.048,2475.37 L931.483,2474.89 L931.699,2474.16 L931.601,2474 L931.601,2473.18 L931.725,2472.87 L932.226,2472.49 L932.97,2472.36 L933.663,2471.79 L934.031,2471.1 L934.149,2469.82 L933.839,2468.7 L933.464,2468.01 L933.33,2466.62 L933.33,2464.86 L933.206,2463.6 L932.944,2462.91 L932.444,2462.03 L932.251,2461.33 L932.36,2458.24 L932.177,2457.3 L932.234,2454.02 L932.737,2452.95 L933.663,2451.5 L934.968,2450.02 L935.227,2449.73 L935.912,2449.1 L936.789,2447.96 L937.099,2447.14 L937.343,2445.75 L937.699,2444.51 L937.904,2443.8 L938.652,2442.53 L940.248,2441.16 L941.309,2439.53 L941.372,2438.98 L941.555,2437.39 L941.438,2436.69 L941.231,2436.03 L941.361,2435.29 L941.813,2434.24 L942.59,2433.25 L943.499,2432.96 L944.067,2432.77 L944.496,2432.31 L944.65,2431.45 L944.374,2429.67 L943.877,2427.58 L943.766,2424.83 L943.742,2424.23 L943.742,2422.84 L944.176,2421.9 L945.24,2420.88 L945.74,2420.25 L946.175,2419.11 L946.091,2417.59 L945.57,2416.64 L944.711,2415.57 L944.006,2415.14 L942.227,2414.06 L941.519,2413.38 L940.952,2412.06 L940.081,2409.76 L939.866,2407.52 L940.326,2405.06 L942.071,2401.41 L942.179,2401.16 L942.807,2399.73 L944.033,2398.24 L944.647,2397.65 L945.971,2396.76 L946.536,2396.29 L946.683,2395.9 L947.139,2395.39 L948.474,2393.88 L949.263,2393.21 L950.117,2392.48 L951.123,2391.48 L951.736,2390.49 L951.831,2389.58 L951.736,2387.59 L951.912,2386.86 L951.95,2386.7 L952.546,2385.68 L953.662,2384.64 L954.415,2383.94 L954.907,2383.25 L955.477,2381.92 L955.71,2378.77 L955.526,2377.88 L955.577,2373.59 L956.011,2372.01 L956.195,2369.87 L956.187,2367.85 L956.745,2365.95 L957,2365.57 L957.363,2364.44 L957.806,2363.56 L958.785,2361 L959.822,2358.51 L959.041,2357.8 L957.565,2356.76 L957.522,2356.72 L956.403,2355.54 L955.028,2352.85 L953.368,2350.4 L952.975,2348.34 L952.09,2347.08 L951.218,2346.38 L950.861,2346.2 L949.613,2345.54 L947.729,2343.13 L946.054,2338.66 L945.286,2335.09 L943.868,2333.43 L943.559,2332.67 L944.007,2332.38 L944.734,2331.29 L946.239,2330.44 L947.769,2328.83 L949.46,2327.39 L951.476,2324.91 L953.795,2322.16 L956.162,2320.88 L956.674,2319.79 L956.616,2319.04 L956.574,2317.83 L956.253,2316.27 L956.065,2315.36 L955.929,2314.7 L955.241,2313.37 L954.131,2311.55 L953.997,2310.59 L954.361,2309.46 L955.034,2309.04 L950.57,2293.58 L951.328,2293.07 L952.517,2293.14 L953.829,2293.46 L956.201,2294.36 L957.763,2294.88 L960.881,2296.41 L961.938,2297.37 L962.867,2298.7 L965.217,2302.5 L966.326,2304.77 L966.755,2305.91 L967.622,2307.24 L968.613,2308.63 L969.354,2309.96 L970.096,2311.1 L971.523,2312.88 L972.644,2313.58 L974.508,2315.48 L976.312,2316.95 L979.115,2318.86 L980.486,2319.62 L981.671,2320.2 L983.106,2320.84 L985.353,2321.74 L989.098,2323.34 L990.16,2323.66 L992.661,2324 L993.911,2324.26 L998.348,2325.42 L999.972,2325.94 L1001.22,2326.08 L1002.35,2326.08 L1009.36,2325.82 L1010.8,2325.89 L1013.37,2326.29 L1015.81,2326.31 L1017.38,2326 L1018.63,2326.2 L1019.94,2326.59 L1021.56,2326.98 L1022.69,2327.11 L1024,2327.62 L1025.37,2328.33 L1026.81,2328.78 L1028.37,2329.11 L1029.37,2329.24 L1030.56,2329.25 L1031.88,2329.19 L1033.13,2328.95 L1035.89,2328.15 L1038.46,2327.48 L1039.9,2327.3 L1041.22,2327.24 L1043.41,2327.26 L1044.41,2327.2 L1046.1,2327.28 L1047.1,2327.35 L1052.36,2328.14 L1053.86,2328.15 L1055.55,2327.98 L1057,2327.42 L1058.5,2326.93 L1060.51,2326.56 L1062.07,2326.64 L1063.51,2327.21 L1064.88,2328.55 L1065.56,2329.69 L1065.98,2331.01 L1066.1,2332.59 L1065.88,2336.81 L1065.68,2338.45 L1065.48,2339.58 L1065.47,2341.28 L1065.76,2343.74 L1066.6,2348.47 L1066.83,2351 L1066.89,2352.13 L1066.87,2354.34 L1067.11,2355.98 L1067.71,2359.26 L1067.69,2361.47 L1067.17,2364.11 L1066.85,2365.49 L1066.65,2366.63 L1066.71,2367.7 L1067.07,2368.84 L1068.12,2371.3 L1069.17,2373.26 L1070.53,2375.35 L1071.02,2376.49 L1072.86,2381.86 L1073.23,2383.06 L1073.88,2387.04 L1074.06,2388.8 L1073.73,2391.51 L1073.83,2393.97 L1073.75,2396.11 L1073.81,2397.31 L1074.78,2400.97 L1075.34,2402.11 L1076.26,2403.69 L1077.56,2406.35 L1078.79,2409.57 L1079.09,2410.77 L1079.27,2412.22 L1079.57,2413.8 L1079.92,2416.95 L1080.16,2418.22 L1080.34,2419.48 L1080.39,2420.74 L1080.32,2421.87 L1080.12,2423.19 L1080.05,2424.27 L1079.53,2427.03 L1078.96,2428.17 L1078.64,2429.36 L1078.56,2431.13 L1078.36,2432.38 L1078.42,2433.39 L1078.96,2436.04 L1079.08,2437.05 L1079.07,2438.25 L1079.25,2439.32 L1079.74,2440.59 L1080.24,2441.54 L1080.98,2442.68 L1081.41,2443.23 L1082.1,2443.82 L1083.09,2444.52 L1084.28,2445.03 L1085.72,2445.42 L1088.22,2445.82 L1089.41,2445.82 L1092.97,2446.04 L1094.22,2446.36 L1095.89,2446.61 L1098.29,2446.77 L1099.79,2446.65 L1100.92,2446.35 L1102.06,2445.72 L1103.25,2444.6 L1104.14,2443.72 L1105.08,2442.53 L1105.97,2441.59 L1110.83,2436.77 L1111.64,2436.02 L1112.59,2435.71 L1113.84,2435.78 L1114.9,2436.11 L1115.96,2436.62 L1116.58,2437.51 L1117.2,2438.64 L1118.13,2439.34 L1119.32,2439.67 L1120.64,2440.38 L1123.2,2440.01 L1124.26,2439.63 L1125.21,2439.14 L1126.52,2438.96 L1127.78,2439.03 L1128.84,2438.59 L1129.97,2437.91 L1132.69,2434.9 L1133.76,2433.64 L1135.78,2431.64 L1136.72,2430.76 L1138.11,2429.88 L1140.55,2429.71 L1141.68,2429.72 L1142.81,2429.47 L1144.31,2429.36 L1145.31,2428.98 L1146.7,2428.11 L1148.02,2426.98 L1149.15,2425.86 L1150.86,2423.6 L1152.06,2422.41 L1153.95,2420.65 L1155.02,2419.97 L1156.02,2419.47 L1157.15,2419.1 L1158.47,2418.79 L1159.91,2418.55 L1160.98,2418.62 L1163.42,2418.44 L1164.48,2418.45 L1165.55,2418.58 L1166.8,2418.59 L1168.18,2418.53 L1169.12,2418.1 L1171.2,2416.79 L1171.74,2415.41 L1171.83,2414.77 L1171.84,2413.45 L1172.06,2408.66 L1172.2,2407.52 L1172.34,2404.62 L1172.23,2403.24 L1172.3,2401.47 L1172.5,2400.15 L1172.82,2398.89 L1173.01,2397.57 L1172.4,2396.3 L1171.59,2395.41 L1171.03,2394.4 L1170.98,2392.95 L1171.05,2391.44 L1170.88,2389.1 L1170.95,2388.03 L1170.9,2386.77 L1170.59,2385.38 L1170.04,2383.74 L1169.55,2382.54 L1169.18,2381.21 L1168.62,2380.01 L1167.95,2378.3 L1167.2,2377.35 L1166.58,2376.28 L1166.34,2375.2 L1166.22,2374.07 L1166.29,2372.68 L1166.69,2369.91 L1166.27,2367.32 L1166.03,2365.99 L1165.66,2364.48 L1165.18,2361.57 L1164.81,2360.12 L1164.14,2357.91 L1162.78,2354.87 L1161.55,2351.97 L1160.87,2350.95 L1158.62,2349.17 L1158.01,2348.1 L1157.7,2346.77 L1156.71,2345.88 L1153.95,2345.49 L1152.39,2345.1 L1150.33,2344.39 L1148.95,2344.13 L1147.39,2343.93 L1142.25,2343.96 L1140.88,2343.89 L1139.56,2343.63 L1137.94,2343.05 L1136.82,2342.22 L1135.82,2341.15 L1135.02,2339.82 L1134.59,2338.8 L1133.91,2337.54 L1132.12,2333.05 L1131.63,2331.91 L1131.01,2330.84 L1130.33,2329.89 L1129.71,2328.87 L1129.21,2327.92 L1128.53,2326.78 L1127.73,2325.33 L1126.62,2322.93 L1126.07,2321.41 L1125.7,2320.08 L1125.39,2318.63 L1125.15,2317.12 L1124.98,2315.64 L1124.92,2314.65 L1124.56,2311.88 L1124.14,2310.17 L1123.65,2308.66 L1122.41,2305.87 L1120.99,2303.66 L1120.31,2302.33 L1119.94,2300.94 L1120.51,2300.06 L1121.46,2299.31 L1122.53,2298.31 L1121.85,2297.11 L1120.79,2295.77 L1118.68,2292.8 L1118,2291.53 L1117.2,2290.27 L1116.83,2289.13 L1117.09,2287.81 L1118.09,2287.43 L1119.28,2287.5 L1120.35,2287.7 L1121.35,2287.77 L1122.48,2287.27 L1123.61,2286.65 L1124.81,2285.77 L1127.26,2284.28 L1128.64,2283.72 L1129.71,2283.22 L1133.28,2281.86 L1134.54,2281.11 L1135.86,2280.23 L1136.81,2279.55 L1139.83,2276.79 L1140.84,2276.23 L1141.84,2275.8 L1143.28,2275.49 L1144.54,2275.12 L1145.79,2274.81 L1146.86,2274.38 L1147.8,2273.69 L1148.62,2272.88 L1149.57,2271.75 L1150.14,2270.68 L1150.71,2269.42 L1151.6,2268.42 L1152.54,2267.54 L1153.49,2266.54 L1155.44,2264.22 L1156.58,2263.09 L1157.34,2262.21 L1158.03,2261.08 L1158.73,2260.14 L1160.93,2257.95 L1162.07,2257.01 L1162.95,2256.07 L1163.71,2254.94 L1164.28,2253.87 L1165.05,2251.42 L1165.87,2250.42 L1167,2249.86 L1168.13,2249.42 L1169.45,2249.05 L1170.76,2248.62 L1172.02,2248 L1172.9,2247.25 L1174.8,2244.67 L1175.56,2243.48 L1176.32,2241.97 L1177.02,2240.71 L1177.59,2239.39 L1178.29,2238.14 L1179.05,2237.01 L1180.94,2234.81 L1182.7,2233.12 L1183.46,2232.31 L1186.05,2229.17 L1187.4,2227.7 L1190.58,2220.91 L1194.6,2215.81 L1198.63,2213.94 L1202.09,2211.46 L1202.49,2211.21 L1205.34,2206.97 L1209.12,2202.96 L1209.91,2198.86 L1211.67,2197.26 L1214.72,2195.79 L1216.4,2193.25 L1215.05,2191.05 L1212.52,2188.17 L1212.17,2184.62 L1212.16,2181.73 L1214.01,2180.2 L1217.2,2179.86 L1220.23,2179 L1222.41,2177.81 L1224.42,2175.94 L1224.74,2170.68 L1225.57,2166.61 L1228.55,2160.43 L1231.77,2157.78 L1234.95,2154.56 L1234.94,2150.49 L1234.26,2147.61 L1235.26,2144.05 L1236.26,2139.13 L1233.72,2133.55 L1233.04,2130.33 L1233.19,2127.28 L1234.91,2125.66 L1241.78,2133.17 L1247.71,2138.17 L1255.81,2138.46 L1262.66,2139.38 L1266.39,2135.92 L1263.57,2130.59 L1270.71,2120.85 L1275.68,2117.69 L1287.45,2117.34 L1288.38,2115.77 L1290.22,2104.78 L1294.25,2099.44 L1296.93,2097.97 L1298.29,2097.23 L1309.51,2098.45 L1318.23,2100.62 L1321.96,2099.04 L1323.64,2095.16 L1323.87,2094.59 L1324.32,2093.2 L1324.83,2092.01 L1325.21,2090.56 L1325.03,2089.36 L1324.85,2088.29 L1324.86,2087.03 L1325.06,2086.02 L1324.75,2084.51 L1324.45,2083.05 L1324.02,2081.66 L1323.65,2080.53 L1323.16,2079.26 L1322.73,2078.13 L1322.36,2077.18 L1321.87,2075.73 L1321.01,2073.51 L1320.64,2072.13 L1320.4,2070.8 L1320.22,2069.54 L1320.23,2068.47 L1320.37,2066.77 L1320.69,2065.44 L1321.39,2063.81 L1321.96,2062.87 L1322.9,2061.8 L1323.79,2060.99 L1324.73,2060.18 L1326.62,2058.93 L1327.75,2058.37 L1328.82,2057.74 L1332.32,2054.94 L1334.43,2053.83 L1336.1,2052.29 L1338.42,2049.78 L1339.01,2048.28 L1339.21,2046.35 L1339.52,2045.36 L1340.86,2043.59 L1342.3,2042.49 L1343.18,2041.34 L1344.51,2040.44 L1345.55,2039.3 L1346.74,2038.2 L1348.59,2036.53 L1349.06,2035.38 L1350.09,2033.4 L1350.91,2030.94 L1351,2028.34 L1351.41,2026.51 L1352.02,2023.43 L1352.02,2021.19 L1353.77,2020.15 L1354.96,2019.83 L1359.06,2020.18 L1362.52,2020.49 L1364.23,2020.01 L1364.8,2019.75 L1365.42,2019.17 L1366.39,2015.84 L1366.44,2014.32 L1366.8,2012.97 L1367.57,2012.08 L1371.75,2003.05 L1371.86,2002.37 L1374.84,1997.1 L1374.94,1995.43 L1375.5,1994.08 L1376.54,1993.39 L1377.98,1992.82 L1380.05,1992.03 L1382.27,1991.29 L1383.95,1990.66 L1384.77,1990.14 L1386.99,1988.88 L1386.83,1988.15 L1387.09,1987.27 L1387.66,1986.38 L1387.86,1985.49 L1389.05,1983.98 L1389.56,1982.88 L1390.49,1982.2 L1391.11,1980.79 L1391.77,1978.91 L1392.03,1978.08 L1392.34,1976.57 L1392.28,1975.99 L1391.45,1974.49 L1390.88,1973.39 L1390.67,1972.4 L1390.92,1970.42 L1390.81,1969.92 L1390.48,1968.35 L1390.7,1966.68 L1391.52,1965.75 L1393.4,1964.51 L1394.96,1963.87 L1394.84,1961.97 L1400.24,1958.97 L1509.99,1897.36 L1508.16,1893.37 L1504.71,1890.35 L1539.6,1874.66 L1551.71,1872.69 L1648.62,1837.29 L1650.91,1836.42 L1756.67,1802.57 L1800.87,1788.71 L1854.92,1768.32 L1951.85,1734.66 L1975.28,1727.84 L2091.82,1688.57 L2151.9,1668.33 L2199.84,1652.18 L2237.76,1639.4 L2402.1,1583.51 L2404.33,1585.24 L2542.33,1538.31 L2577.97,1526.19 L2765.66,1461.08 L2761.43,1457.1 L2755.6,1454.47 L2751.84,1449.21 L2747.9,1445.82 L2744.7,1445.45 L2740.94,1444.51 L2736.66,1440.5 L2735.11,1439.05 L2729.68,1429.76 L2725.48,1422.51 L2724.6,1417.73 L2719.55,1407.66 L2717.41,1402.88 L2714.97,1401.68 L2710.76,1403.24 L2709.2,1404.25 L2707.79,1405.64 L2705.9,1410.56 L2697.61,1411.3 L2687.48,1407.38 L2680.79,1402.12 L2673.31,1399.67 L2664.62,1404.94 L2657.66,1414.34 L2653.9,1417.73 L2650.51,1419.23 L2645.25,1418.48 L2640.92,1416.41 L2634.91,1412.46 L2633.03,1407.57 L2631.71,1400.99 L2632.02,1396.29 L2632.58,1393.49 L2631.35,1390.6 L2628.83,1389.59 L2623.63,1389.33 L2623.35,1389.34 L2617.82,1389.4 L2613.63,1390.49 L2608.92,1393.46 L2603.86,1400.66 L2599.18,1404.94 L2593.54,1406.26 L2586.3,1407.46 L2579.25,1406.82 L2572.93,1408.75 L2566.33,1408.74 L2562.05,1412.19 L2557.81,1415.66 L2554.24,1413.78 L2551.37,1409.76 L2547.85,1404.94 L2543.65,1401.15 L2539.39,1400.99 L2534.12,1405.69 L2530.74,1409.45 L2524.91,1412.65 L2519.83,1411.71 L2515.51,1408.51 L2513.06,1405.13 L2510.43,1398.73 L2510.43,1394.41 L2508.49,1391.62 L2505.92,1390.27 L2503.48,1391.46 L2501.07,1394.74 L2496.89,1400.8 L2492,1402.68 L2488.38,1399.39 L2482.6,1391.21 L2479.59,1383.69 L2474.33,1373.54 L2471.32,1365.26 L2466.62,1359.62 L2459.89,1354.96 L2452.27,1355.25 L2445.18,1358.68 L2435.1,1360.57 L2430.35,1354.34 L2432.58,1345.71 L2434.32,1333.56 L2434.14,1323.12 L2429.95,1315.81 L2429.2,1310.36 L2429.03,1307.29 L2428.82,1303.4 L2426,1296.44 L2419.26,1293.58 L2412.84,1294.38 L2406.31,1293.32 L2400.64,1292.17 L2393.47,1285.91 L2391.03,1281.97 L2388.21,1268.43 L2383.93,1251.34 L2372.85,1235.4 L2363.05,1227.37 L2360.05,1224.24 L2359.56,1218.69 L2358.53,1215.25 L2355.26,1210.53 L2353.68,1207.98 L2350.23,1207.3 L2346.8,1208.86 L2343.84,1208.44 L2342.52,1207.1 L2342.19,1203.15 L2344.42,1196.67 L2340,1190.11 L2335.14,1181.07 L2333.3,1176.48 L2333.12,1171.44 L2329.43,1168.32 L2327.9,1165.37 L2328.39,1162.86 L2329.17,1160.94 L2327.71,1158 L2324.88,1156.3 L2320.97,1154.38 L2317.85,1153.88 L2314.96,1153.81 L2312.18,1152.9 L2309.82,1150.83 L2305.05,1140.3 L2298.26,1137.95 L2288.41,1138.87 L2283.88,1131.23 L2279.88,1130.17 L2275.46,1129.04 L2270.94,1127.28 L2268.13,1127.14 L2265.48,1126.82 L2260.37,1122.86 L2257.51,1122.18 L2250.1,1123.71 L2243.66,1118.59 L2235.15,1108.91 L2228.19,1098.63 L2220.84,1090.31 L2199.38,1083.8 L2183.63,1081.71 L2177.81,1081.51 L2171.97,1079.6 L2163.46,1071.06 L2161.31,1068.15 L2156.18,1061.22 L2149.6,1055.01 L2137.37,1039.78 L2134.09,1034.07 L2127.97,1023.42 L2115.75,1015.71 L2097.32,997.662 L2087.17,996.346 L2081.42,993.622 L2062.16,984.5 L2048.41,977.135 L2044.25,972.843 L2039.97,974.346 L2008.57,965.132 L1987.16,960.079 L1976.43,951.909 L1972.53,948.759 L1970.4,944.928 L1969.53,942.125 L1969.32,939.387 L1969.56,938.024 L1969.64,936.79 L1968.92,935.791 L1967.84,935.321 L1966.03,934.545 L1965.63,933.464 L1965.28,932.406 L1965.1,931.184 L1963.7,930.996 L1959.77,929.983 L1956.72,929.19 L1947.25,925.073 L1936.94,922.136 L1933.04,917.093 L1927.88,914.573 L1924.52,914.659 L1919.86,913.899 L1916.02,911.504 L1911.63,910.949 L1895.72,908.938 L1886.53,903.491 L1881.37,892.173 L1875.84,889.017 L1866.85,883.321 L1863.02,884.884 L1856.18,888.668 L1852.6,887.881 L1851.18,883.518 L1848.47,881.332 L1845.19,879.548 L1842.52,877.232 L1840.35,876.19 L1837.77,874.958 L1829.32,873.683 L1825.19,874.625 L1822.24,875.893 L1819.85,877.833 L1817.58,879.945 L1814.84,880.946 L1810.19,881.713 L1807.06,880.929 L1803.96,879.73 L1801.05,878.692 L1798.57,877.912 L1796.06,876.812 L1795.62,876.435 L1794.5,875.352 L1792.88,873.764 L1790.6,872.176 L1788.62,869.804 L1788.08,866.615 L1787.47,862.863 L1786.6,861.91 L1784.79,861.108 L1781.71,859.879 L1778.77,858.054 L1777.09,857.469 L1775.49,856.51 L1771.81,854.416 L1766.54,851.384 L1764.45,850.229 L1762.79,848.533 L1760.92,847.703 L1759.4,847.197 L1758.32,845.284 L1757.42,842.685 L1755.25,840.772 L1753.95,839.653 L1752.08,839.184 L1749.99,839.617 L1747.31,840.716 L1744.9,841.47 L1741.4,841.747 L1738.52,842.577 L1734.91,842.902 L1732.6,842.469 L1730.9,843.155 L1729.75,844.346 L1727.44,845.537 L1725.1,846.295 L1722.67,845.837 L1720.94,845.811 L1718.52,845.748 L1715.72,846.548 L1713.41,846.908 L1711.61,847.847 L1709.66,849.435 L1707.93,850.879 L1704.87,850.327 L1701.69,850.121 L1699.56,849.435 L1696.42,849.291 L1693.53,848.425 L1689.82,846.15 L1686.9,843.876 L1684.88,842.036 L1682.78,839.581 L1681.34,837.487 L1679.43,834.492 L1678.05,832.234 L1676.9,828.464 L1675.24,826.37 L1673.01,824.818 L1669.4,823.446 L1667.31,821.966 L1664.89,820.884 L1662.62,820.198 L1661.03,820.234 L1658.76,820.899 L1656.6,821.621 L1653.1,823.843 L1649.16,823.338 L1646.67,821.966 L1644.15,819.079 L1640.15,814.35 L1636.97,811.571 L1634.08,809.225 L1632.14,807.637 L1631.16,804.785 L1630.59,802.583 L1630.91,800.562 L1630.41,798.541 L1629.07,796.736 L1628.42,795.22 L1629.66,794.374 L1629.72,792.08 L1629.52,790.838 L1628.33,788.863 L1627.79,787.111 L1627.73,785.726 L1629.07,783.955 L1630.15,781.527 L1629.25,779.88 L1627.45,777.967 L1625.82,776.09 L1621.64,773.599 L1617.92,772.192 L1615.44,771.795 L1613.74,772.12 L1611.43,773.852 L1609.01,776.956 L1607.39,777.786 L1605.77,777.75 L1603.31,777.137 L1601.73,776.198 L1601.19,775.152 L1600.8,773.166 L1599.6,770.712 L1594.45,767.719 L1593.83,767.355 L1590.83,766.381 L1590.76,766.369 L1585.91,765.589 L1580.09,764.041 L1577.11,761.997 L1574.32,759.999 L1573.43,758.983 L1573.04,757.788 L1573.08,755.69 L1572.64,752.416 L1571.15,750.368 L1568.91,748.319 L1566.18,747.023 L1562.68,746.19 L1559.82,744.594 L1559.41,742.71 L1559.88,737.977 L1559.26,731.572 L1559.51,726.931 L1559.61,725.109 L1558.42,720.972 L1555.56,719.55 L1543.89,719.609 L1540.32,717.482 L1535.44,715.037 L1529.79,711.089 L1528.1,708.644 L1525.87,706.235 L1525.23,701.319 L1525.22,701.176 L1524.84,694.8 L1524.98,688.854 L1524.93,684.388 L1521.73,678.418 L1523.03,675.174 L1523.21,669.345 L1522.09,664.081 L1523.51,658.346 L1524.34,653.927 L1519.79,649.571 L1518.56,645.11 L1517.86,643.049 L1517.4,641.364 L1516.91,639.55 L1515.96,636.538 L1511.6,633.398 L1508.55,630.611 L1506.1,627.978 L1500.31,625.762 L1499.75,625.853 L1498.74,626.769 L1496.71,627.371 L1494.64,627.461 L1493.1,627.037 L1492.07,625.875 L1491.8,624.424 L1491.74,622.575 L1491.89,620.899 L1492.97,619.271 L1493.92,618.664 L1494.1,617.682 L1495.06,617.179 L1497.2,617.681 L1499.14,618.44 L1500.48,618.686 L1501.16,618 L1501.54,617.166 L1501.5,616.654 L1501.43,615.741 L1501.47,613.64 L1499.35,610.648 L1497.43,605.848 L1495.51,602.365 L1493.48,599.692 L1491.98,596.7 L1491.08,594.573 L1488.7,592.25 L1487.32,591.603 L1486.2,591.089 L1485.96,590.576 L1485.96,589.615 L1486.29,588.99 L1488.14,587.204 L1489.18,585.574 L1489.54,584.903 L1490.06,583.868 L1490.37,582.587 L1490.71,580.863 L1490.84,578.921 L1490.69,578.028 L1490.87,576.777 L1490.62,575.214 L1489.72,574.172 L1489.19,573.231 L1488.15,572.431 L1485.76,571.441 L1484.1,572.29 L1482.7,572.401 L1481.87,571.932 L1481.14,570.838 L1481.56,569.521 L1482.12,568.604 L1484.26,566.132 L1484.91,565.126 L1485.38,564.058 L1485.33,563.381 L1484.38,562.882 L1482.91,562.804 L1480.53,563.225 L1479.4,563.627 L1478.48,563.091 L1477.65,561.907 L1476.48,559.949 L1476.44,557.662 L1476.86,556.034 L1477.62,554.81 L1478.04,554.127 L1480.12,550.595 L1480.91,546.497 L1481.49,544.262 L1481.65,543.175 L1479.75,542.126 L1478.75,542.394 L1477.1,542.84 L1475.87,542.483 L1474.78,542.081 L1474.49,541.367 L1473.68,540.296 L1473.83,536.649 L1474.89,533.526 L1476.59,531.1 L1477.48,529.444 L1477.92,528.194 L1477.48,526.741 L1477.01,525.582 L1475.89,525.381 L1475.1,525.472 L1473.54,526.425 L1471.81,529.948 L1469.48,532.578 L1467.99,533.712 L1466.22,534.763 L1464.8,535.711 L1463.22,536.187 L1461.74,535.718 L1460.25,534.337 L1459.33,532.159 L1457.53,523.926 L1457.93,521.099 L1458.01,520.463 L1458.87,519.006 L1460.94,517.455 L1463.94,514.268 L1464.8,513.417 L1464.85,512.749 L1464.21,511.369 L1463.95,508.814 L1463.6,506.559 L1461.9,499.341 L1462.1,494.46 L1463.36,488.86 L1462.82,484.814 L1462.49,483.324 L1461.89,480.565 L1462.29,477.958 L1461.25,471.976 L1459.71,468.248 L1457.98,465.564 L1455.74,458.893 L1455.36,454.897 L1453.4,454.852 L1452.3,454.495 L1449.56,453.155 L1448.29,452.776 L1444.58,453.051 L1443.04,453.334 L1439.1,451.878 L1436.89,449.247 L1436.15,445.096 L1433.75,441.973 L1431.38,439.845 L1428.7,437.616 L1428.57,434.974 L1427.64,429.817 L1426.13,425.047 L1425.61,421.944 L1424.11,420.245 L1423.24,419.004 L1421.2,417.037 L1419.25,415.587 L1417.74,415.162 L1415.96,415.279 L1408.08,417.291 L1401.31,417.865 L1396.07,424.144 L1387.83,423.964 L1378.62,421.693 L1373.83,423.368 L1371.37,424.722 L1370.9,424.982 L1369.63,426.651 L1368.32,427.309 L1365.91,431.205 L1360.53,434 L1355.68,433.185 L1348.97,435.271 L1344.02,433.434 L1340.2,436.493 L1330.29,438.43 L1324.79,439.715 L1321.51,440.407 L1318.05,439.737 L1314.18,439.582 L1313.09,439.462 L1312.26,439.271 L1311.04,439.029 L1310.35,438.192 L1311.4,435.852 L1310.89,433.289 L1308.52,430.079 L1306.81,427.881 L1305.75,426.823 L1305.39,424.144 L1305.16,422.487 L1305.32,420.548 L1304.97,418.703 L1304.02,417.375 L1302.47,416.317 L1300.21,413.638 L1300.06,410.206 L1299.61,407.609 L1298.52,406.128 L1298.45,404.518 L1299.15,402.403 L1298.56,399.853 L1298.24,398.478 L1297.77,397.114 L1297.52,395.763 L1297.74,394.306 L1298.09,393.119 L1297.65,390.933 L1296.83,389.158 L1295.33,387.219 L1294.44,386.843 L1292.94,386.056 L1290.98,382.154 L1289.82,380.268 L1290.29,378.746 L1290.35,377.065 L1289.95,376.255 L1288.89,376.067 L1288.14,374.974 L1286.88,373.199 L1287,372.135 L1287.25,371.207 L1287.01,369.95 L1286.4,369.527 L1285.34,367.482 L1285.59,364.314 L1285.48,363.21 L1283.77,360.754 L1282.93,359.39 L1283.43,357.675 L1284.26,355.771 L1282.86,354.102 L1282.01,352.915 L1281.95,350.506 L1281.64,349.26 L1279.77,347.897 L1279.43,346.064 L1279.39,344.706 L1279.43,343.725 L1279.02,341.874 L1277.75,340.276 L1276.22,339.218 L1274.62,337.878 L1273.66,335.71 L1273.69,334.453 L1274.07,333.354 L1273.67,332.214 L1272.25,330.498 L1270.77,327.131 L1269.38,326.009 L1268.66,324.487 L1268.52,322.783 L1268.87,320.068 L1269.09,317.277 L1269.37,315.702 L1270.07,315.027 L1270.71,314.204 L1270.77,313.258 L1270.64,312.471 L1270.91,311.043 L1271.14,309.38 L1270.63,306.119 L1269.23,302.499 L1268.08,292.674 L1267.84,285.222 L1261.92,277.607 L1256.75,268.205 L1254.52,266.193 L1252.27,262.556 L1244.73,249.858 L1238.64,242.125 L1228.64,232.593 L1221.61,224.838 L1217.87,219.211 L1208.89,206.45 L1208.29,205.259 L1204.58,202.073 L1202.14,199.779 L1199.64,196.314 L1190.42,192.562 L1181.97,193.287 L1175.88,193.401 L1169.71,194.981 L1167.11,194.784 L1163.07,191.921 L1162.19,192.039 L1161.44,193.959 L1160.55,194.043 L1158.46,192.858 L1157.92,190.218 L1156.41,189.489 L1152.43,188.942 L1151.02,189.995 L1149.46,191.077 L1147.91,192.315 L1146.25,193.578 L1144.14,194.19 L1142.65,193.699 L1142.05,192.818 L1141.55,190.685 L1136.57,189.073 L1135.74,189.815 L1135.23,190.754 L1133.66,192.504 L1129.11,193.456 L1124.15,194.627 L1121.22,198.288 L1118.88,208.309 L1118.46,215.995 L1116.01,216.721 L1113.67,216.299 L1111.82,215.455 L1110.54,215.432 L1109.3,214.691 L1108.8,215.637 L1107.86,215.729 L1106.08,216.183 L1104.92,216.048 L1104.1,215.677 L1102.65,214.965 L1101.93,215.124 L1101.33,215.409 L1101.06,215.945 L1100.58,216.116 L1099.37,215.934 L1097.79,216.322 L1096.57,217.12 L1095.39,216.856 L1094.16,218.032 L1092.61,218.647 L1090.93,219.568 L1090.91,219.97 L1091.26,220.529 L1091.32,221.407 L1090.18,222.832 L1090.52,224.554 L1090.63,226.195 L1090.12,227.301 L1090.67,228.966 L1091.09,229.616 L1090.93,230.471 L1090.11,230.905 L1088.97,231.737 L1087.68,231.634 L1085.26,232.295 L1080.36,236.98 L1065.59,237.256 L1057.81,242.963 L1051.78,244.711 L1041.84,247.749 L1028.31,243.239 L1016.2,243.493 L1012.76,242.249 L1018.27,230.578 L1019.45,225.009 L1009.26,224.103 L1007.15,223.915 L1005.9,225.423 L1004.22,227.136 L1000.67,228.278 L996.842,230.174 L993.246,233.906 L991.983,235.861 L991.609,239.082 L989.29,240.349 L987.26,242.595 L984.407,243.607 L982.428,243.183 L980.074,242.591 L975.382,241.209 L971.245,244.804 L966.209,245.405 L961.949,246.828 L955.782,248.761 L953.849,259.806 L950.464,267.828 L950.578,270.934 L947.696,270.509 L944.496,269.039 L941.028,268.513 L940.258,269.687 L938.128,269.706 L936.28,270.12 L935.306,271.314 L935.251,276.671 L934.982,277.731 L934.862,279.86 L934.624,281.071 L934.14,281.872 L931.835,282.628 L930.658,282.715 L927.336,283.893 L924.235,284.055 L922.624,284.109 L921.465,284.698 L921.154,285.244 L921.169,290.308 L923.133,291.309 L924.028,293.447 L923.696,298.747 L921.51,302.203 L921.641,309.935 L923.393,313.753 L925.547,316.435 L926.024,318.176 L924.808,321.299 L924.777,324.175 L925.815,326.164 L927.714,328.456 L926.247,332.002 L925.981,335.829 L921.577,337.191 L920.478,339.087 L923.899,345.336 L923.912,347.311 L924.95,350.208 L924.944,354.144 L928.76,359.336 L930.576,361.239 L934.695,362.304 L932.09,370.06 L932.781,372.958 L933.171,383.639 L935.137,388.668 L934.98,390.495 L933.17,391.879 L932.815,394.186 L932.663,396.49 L933.901,399.651 L935.252,404.548 L931.357,409.201 L929.344,411.857 L927.895,413.002 L927.066,414.888 L926.641,416.851 L925.976,417.796 L924.086,418.135 L921.559,415.973 L920.639,414.753 L914.013,415.752 L911.406,416.729 L908.439,418.561 L904.634,419.578 L899.423,421.588 L894.212,421.891 L891.619,424.493 L889.196,425.74 L886.406,426.324 L883.684,426.689 L884.569,429.005 L884.698,430.929 L885.779,433.74 L885.683,436.969 L883.098,440.594 L882.147,444.876 L876,448.418 L867.573,447.362 L863.119,447.73 L859.465,449.805 L856.978,453.638 L855.811,461.287 L855.076,462.735 L852.438,465.049 L850.449,467.708 L848.367,470.257 L849.029,473.246 L847.487,478.13 L845.13,482.693 L842.416,483.642 L842.363,483.661 L840.895,484.174 L838.966,484.85 L836.445,489.439 L839.154,494.781 L839.831,497.828 L839.041,500.311 L836.651,503.217 L830.53,508.115 L830.689,512.349 L828.462,518.541 L822.383,522.999 L827.008,528.471 L830.13,531.749 L843.015,531.933 L849.708,540.227 L851.65,551.482 L851.924,555.307 L853.302,562.497 L853.779,564.722 L856.378,568.513 L860.14,570.751 L865.116,572.816 L868.781,574.387 L870.46,576.273 L870.894,577.158 L873.285,579.6 L873.334,583.288 L871.398,587.261 L872.951,592.13 L873.769,597.004 L873.521,600.934 L872.433,605.129 L874.764,608.651 L879.788,613.571 L880.535,617.621 L882.325,620.615 L885.032,623.191 L889.375,624.79 L893.771,624.24 L895.905,627.35 L897.423,629.691 L898.277,631.905 L897.457,634.328 L895.616,639.206 L892.211,642.824 L891.29,645.447 L890.923,647.856 L894.393,651.534 L894.656,653.904 L894.185,655.263 L891.561,660.054 L887.218,660.513 L880.171,663.021 L877.146,665.465 L873.521,667.33 L873.688,671.415 L873.752,677.069 L874.712,679.967 L874.316,681.661 L870.465,682.815 L868.386,684.445 L862.075,683.126 L860.572,686.395 L859.952,688.926 L859.583,693.453 L858.294,694.468 L855.757,695.245 L852.908,694.572 L851.096,695.245 L846.889,696.655 L840.642,701.782 L836.542,702.444 L832.244,707.157 L832.503,710.264 L832.865,716.842 L830.061,721.157 L828.442,724.321 L828.603,727.273 L829.04,729.502 L828.939,732.96 L827.676,734.938 L826.834,736.833 L825.745,738.271 L824.129,738.847 L818.791,739.107 L814.832,740.117 L812.853,741.633 L810.733,741.27 L805.863,741.212 L804.179,742.116 L797.87,747.649 L798.451,751.945 L798.704,756.035 L799.756,758.478 L799.925,761.257 L799.546,762.899 L800.514,764.036 L800.978,768.5 L799.882,770.593 L800.093,774.101 L803.041,778.186 L803.024,784.446 L807.718,790.428 L809.695,794.272 L811.63,794.716 L815.273,793.635 L823.917,789.692 L826.086,786.955 L828.982,785.597 L831.163,785.895 L832.173,788.267 L833.792,790.959 L837.407,794.623 L840.252,797.494 L843.846,800.059 L846.337,800.194 L846.02,802.722 L847.191,804.243 L849.575,807.808 L848.729,809.647 L844.483,811.96 L843.401,815.1 L841.694,818.703 L842.001,821 L843.013,822.891 L840.687,824.12 L839.804,826.638 L839.609,828.029 L839.908,828.854 L839.949,835.257 L839.243,836.452 L837.967,839.854 L837.935,842.727 L839.334,845.264 L842.709,849.904 L838.549,854.436 L835.706,863.072 L837.91,863.935 L840.059,865.463 L843.145,865.76 L843.918,867.216 L844.54,868.826 L844.409,871.962 L846.489,873.83 L848.965,872.929 L849.619,873.296 L850.668,874.872 L852.355,876.353 L852.672,877.57 L852.475,881.727 L852.187,883.109 L851.816,884.441 L851.223,885.253 L850.15,885.783 L851.702,887.051 L853.123,887.615 L854.423,889.25 L854.622,891.417 L854.949,895.113 L854.16,896.559 L853.68,898.634 L851.142,899.67 L848.197,900.649 L848.19,902.104 L847.102,903.788 L845.209,905.026 L844.529,910.501 L844.435,916.347 L843.111,919.874 L840.68,922.277 L837.512,923.208 L834.025,923.572 L831.105,922.661 L826.334,924.219 L819.394,923.365 L818.048,924.271 L817.574,927.401 L814.345,927.896 L809.036,927.43 L807.632,933.643 L806.654,934.992 L804.764,935.717 L802.823,935.236 L800.75,933.231 L798.742,931.266 L796.788,926.55 L795.027,925.98 L792.404,927.183 L790.754,930.335 L788.534,931.69 L785.788,932.056 L783.257,932.741 L781.408,933.101 L778.547,933.077 L772.884,937.384 L769.306,944.637 L770.595,949.51 L770.519,954.421 L767.535,963.386 L781.694,965.561 L781.855,983.318 L783.816,994.549 L784.442,999.309 L786.726,1008.05 L785.667,1015.2 L786.613,1019.55 L790.785,1023.52 L797.472,1028.29 L799.26,1031.93 L798.531,1036.63 L793.963,1041.47 L786.415,1047.29 L785.289,1049.87 L783.965,1054.24 L783.766,1060 L781.648,1064.9 L779.992,1066.89 L775.954,1065.96 L772.378,1062.19 L770.789,1058.88 L769.001,1056.83 L764.499,1057.89 L759.335,1059.61 L753.972,1059.74 L749.933,1058.35 L747.417,1055.63 L744.371,1055.04 L741.723,1056.03 L740.663,1058.15 L741.789,1060.93 L743.775,1063.45 L744.702,1065.83 L743.444,1071.99 L744.865,1084.37 L741.531,1090.81 L744.298,1095.98 L746.523,1098.82 L744.369,1100.79 L742.196,1105.03 L739.663,1107.85 L735.059,1112.32 L735.689,1119.43 L736.972,1121.12 L736.508,1123.34 L731.715,1124.96 L731.2,1128.14 L728.337,1128.83 L725.197,1129.77 L719.491,1130.03 L716.752,1130.84 L714.115,1128.2 L709.816,1128.89 L706.676,1127.8 L703.466,1128.61 L700.305,1130.86 L695.657,1133.27 L692.098,1134.82 L692.316,1135.45 L691.826,1136.64 L691.965,1137.42 L691.406,1138.89 L690.651,1140.37 L689.885,1141.64 L689.887,1142.83 L690.302,1143.46 L691.494,1144.17 L693.09,1145.07 L693.515,1145.85 L694.285,1147.6 L694.292,1151.26 L695.062,1152.38 L697.92,1154.9 L699.526,1155.94 L701.692,1156.23 L702.733,1154.75 L703.428,1152.86 L704.539,1151.86 L705.443,1151.02 L706.703,1150.67 L707.746,1150.81 L709.489,1151.01 L710.09,1151.44 L710.927,1151.92 L711.971,1152.21 L715.099,1151.23 L717.432,1151.06 L718.25,1151.49 L718.95,1152.47 L721.672,1155.77 L722.185,1156.38 L723.773,1158.01 L724.463,1158.65 L725.459,1159.64 L725.45,1160.4 L725.628,1160.6 L727.331,1160.73 L729.3,1161.01 L731.82,1161.28 L736.24,1161.81 L738.691,1161.99 L740.01,1161.76 L740.729,1161.85 L742.512,1162.96 L742.661,1163.47 L743.422,1165.31 L743.708,1165.84 L743.867,1166.59 L747.653,1170.42 L748.098,1171.59 L748.927,1172.55 L749.863,1173.37 L750.583,1174.17 L751.362,1174.85 L752.062,1175.61 L752.713,1176.39 L758.03,1182.9 L758.68,1183.4 L759.773,1183.32 L761.249,1183.26 L762.909,1182.95 L765.61,1181.87 L768.214,1182.58 L781.261,1188.51 L783.596,1188.88 L785.541,1189.14 L789.992,1189.35 L795.502,1190.85 L803.15,1194.57 L803.377,1198.67 L801.602,1204.52 L801.289,1205.66 L799.755,1211.52 L799.304,1212.76 L799.119,1213.69 L799.308,1214.96 L800.126,1215.6 L802.393,1217.15 L802.759,1218.02 L801.445,1220.85 L801.633,1221.54 L801.417,1227.39 L801.567,1228.57 L801.728,1230.34 L802.283,1232.47 L802.929,1236.12 L803.108,1236.67 L803.703,1239.47 L803.845,1241.39 L804.617,1243.84 L805.675,1246.6 L806.081,1247.83 L806.496,1248.93 L807.669,1249.61 L808.624,1250.06 L810.555,1250.54 L812.414,1250.33 L814.687,1249.87 L817.501,1249.05 L821.487,1248.9 L823.121,1248.9 L824.49,1249.39 L825.072,1250.29 L825.447,1250.77 L827.175,1253.86 L827.403,1254.64 L827.584,1256.87 L826.957,1258.07 L824.143,1258.98 L822.599,1259.4 L819.608,1260.09 L817.788,1260.78 L816.48,1261.29 L812.438,1263.17 L810.128,1264.9 L808.113,1266.42 L804.448,1269.75 L803.721,1270.61 L803.181,1271.3 L802.73,1271.94 L802.279,1272.86 L802.093,1273.64 L802.097,1275.92 L802.059,1276.7 L802.154,1280.19 L802.905,1281.84 L802.799,1282.7 L801.631,1284.84 L801.574,1285.62 L802.206,1286.77 L802.986,1288.32 L803.618,1289.14 L805.581,1291.56 L805.583,1292.47 L805.358,1293.03 L804.217,1293.8 L803.854,1294.58 L803.59,1295.22 L803.365,1296 L803.318,1296.91 L802.711,1300.23 L802.626,1301.82 L802.571,1302.88 L802.249,1304.34 L800.707,1306.08 L800.166,1306.58 L799.488,1307.41 L799.165,1308.05 L798.851,1308.73 L799.13,1310.29 L799.357,1310.92 L799.31,1312.11 L798.684,1313.95 L798.636,1314.72 L798.274,1315.82 L798.097,1316.23 L797.962,1317.24 L797.513,1319.43 L796.876,1320.9 L796.151,1322.73 L795.023,1325.2 L794.208,1326.12 L793.531,1326.94 L793.356,1328.18 L793.535,1329.13 L794.369,1331.66 L794.234,1333.22 L793.497,1335.26 L793.007,1336.63 L788.538,1345.28 L788.557,1347.67 L788.091,1349.61 L787.776,1349.97 L787.275,1350.32 L786.911,1350.62 L786.597,1350.98 L786.352,1351.56 L786.127,1352.19 L785.764,1353.14 L785.421,1353.61 L784.9,1354.07 L784.29,1354.46 L782.321,1359.35 L782.091,1361.61 L780.962,1364.89 L778.749,1370.93 L778.02,1375.18 L774.841,1381.37 L772.694,1387.45 L770.012,1390.47 L765.844,1393.15 L763.382,1395.61 L763.248,1396.74 L761.294,1399.44 L758.407,1402.1 L756.6,1403.43 L754.396,1410.59 L752.864,1410.53 L750.334,1411.59 L748.533,1413.29 L747.384,1413.43 L745.909,1415.11 L744.337,1415.02 L742.898,1415.45 L739.413,1411.99 L737.79,1409.83 L734.949,1407.85 L734.208,1406.83 L732.29,1406.44 L728.809,1405.37 L727.519,1404.94 L726.858,1406.31 L725.307,1407.26 L724.253,1407.4 L724.02,1408.88 L722.117,1412.03 L720.327,1414.65 L719.528,1418.13 L719.857,1421.19 L719.246,1424.57 L717.365,1427.48 L715.955,1431.43 L714.629,1434.96 L712.805,1438.91 L712.524,1441.4 L712.139,1442.93 L712.57,1444.19 L712.635,1444.32 L713.84,1446.48 L714.87,1447.41 L715.015,1449.16 L715.579,1450.71 L716.049,1452.68 L715.894,1454.94 L716.95,1458.48 L717.921,1460.29 L719.112,1462.35 L719.687,1463.32 L720.686,1464.64 L721.379,1464.92 L723.244,1465.25 L724.014,1465.73 L724.806,1466.23 L725.344,1467.52 L725.315,1469.37 L725.689,1470.09 L726.47,1470.23 L727.848,1469.89 L729.338,1470.18 L730.091,1470.7 L730.605,1472.03 L731.567,1472.95 L732.507,1473.51 L733.87,1474.21 L735.751,1475.39 L736.503,1475.81 L737.302,1476 L737.686,1476.21 L737.978,1476.31 L738.947,1476.61 L739.511,1476.85 L740.693,1477.41 L741.956,1478.16 L743.084,1478.68 L744.77,1479.78 L746.302,1480.84 L747.456,1481.17 L748.302,1481.13 L748.893,1481.09 L749.383,1480.84 L750.455,1480.48 L751.592,1479.67 L751.875,1478.59 L752.204,1476.8 L752.193,1475.42 L752.884,1474.66 L753.31,1474.07 L754.396,1473.42 L755.252,1472.3 L755.118,1471.16 L755.572,1469.32 L755.964,1468.86 L756.41,1467.86 L755.959,1465.94 L756.288,1464.9 L756.518,1463.61 L756.693,1461.61 L757.324,1460.38 L758.509,1459.68 L758.941,1459.27 L759.241,1458.63 L759.707,1457.46 L759.554,1455.92 L759.531,1455.69 L759.625,1454.47 L759.496,1451.76 L760.613,1450.57 L760.989,1448.22 L761.998,1446.06 L762.51,1444.97 L762.509,1444.22 L763.078,1443.01 L763.076,1441.92 L763.823,1440.1 L764.213,1439.16 L765.353,1437.89 L765.979,1436.8 L766.492,1436.11 L767.29,1435.47 L768.032,1435.13 L768.545,1434.26 L768.772,1433.46 L769.227,1432.82 L771.396,1431.78 L772.024,1431.32 L772.536,1430.4 L773.563,1429.88 L774.518,1429.12 L775.103,1428.61 L776.016,1428.04 L776.928,1427.23 L777.555,1426.31 L778.524,1425.16 L779.265,1424.46 L779.755,1424.2 L780.578,1424.23 L781.32,1424 L782.572,1423.17 L783.318,1422.55 L785.292,1421.66 L787.199,1421.14 L788.014,1420.78 L789.22,1421.1 L790.089,1420.98 L791.848,1421.01 L793.551,1421.76 L794.58,1421.74 L795.076,1421.63 L796.655,1421.92 L797.506,1421.7 L799.296,1421.39 L801.619,1421.37 L802.576,1421.23 L803.676,1421.24 L804.368,1421.36 L805.13,1421.36 L806.531,1421.52 L807.762,1422.61 L808.793,1423.86 L810.001,1424.64 L811.793,1425.37 L813.105,1425.49 L813.514,1425.64 L814.454,1426.13 L816.195,1427.7 L816.641,1428.74 L816.873,1429.77 L817.051,1430.17 L818.085,1431.08 L818.866,1431.58 L820.607,1433 L821.495,1433.84 L822.686,1435.23 L825.884,1438.51 L827.023,1440.53 L827.858,1441.27 L828.355,1441.54 L829.224,1441.7 L829.738,1441.68 L831.991,1441.86 L833.807,1442.2 L837.656,1442.73 L842.021,1443.83 L842.979,1444.27 L843.405,1444.27 L843.795,1444.36 L845.25,1444.93 L846.941,1445.38 L847.367,1445.56 L848.965,1446.95 L849.285,1447.41 L850.458,1448.35 L852.269,1449.49 L854.292,1450.4 L856.047,1451.02 L857.008,1451.73 L857.551,1452.57 L857.582,1453.68 L857.598,1454.4 L857.601,1455.28 L857.489,1458.32 L857.598,1459.05 L857.629,1459.95 L858.49,1461.39 L859.521,1462.39 L860.515,1463.12 L861.864,1463.94 L862.042,1464.17 L862.203,1464.71 L862.418,1466.08 L862.376,1467.69 L863.642,1468.81 L864.388,1469.49 L865.241,1469.99 L865.494,1470.31 L865.816,1470.62 L866.065,1470.91 L866.388,1471.66 L867.037,1472.61 L867.304,1473.38 L867.005,1474.3 L867.55,1476.06 L867.889,1477.23 L868.322,1477.42 L868.37,1478.73 L868.139,1480.2 L868.782,1481.6 L869.255,1482.51 L869.548,1484.41 L869.778,1485.19 L868.913,1485.16 L868.142,1486.05 L867.105,1486.64 L865.673,1488.24 L865.319,1488.53 L864.744,1488.81 L863.581,1489.2 L862.356,1489.71 L861.557,1490.24 L860.794,1490.55 L860.444,1490.85 L859.97,1491.43 L859.709,1492.37 L859.174,1493.76 L858.896,1494.03 L858.824,1494.25 L858.425,1494.75 L857.732,1495.39 L857.176,1496.1 L856.865,1496.94 L856.506,1498.84 L855.657,1499.77 L854.046,1501.17 L853.533,1501.32 L852.869,1501.13 L852.519,1500.94 L852.244,1500.93 L852.131,1500.99 L851.62,1501.76 L851.082,1502.1 L851.087,1502.21 L850.984,1503.17 L850.611,1504.05 L849.412,1505.16 L848.987,1505.36 L847.937,1506.18 L847.637,1506.32 L846.399,1506.47 L846.286,1506.55 L845.625,1507.54 L845.413,1507.73 L844.475,1507.93 L842.062,1508.81 L841.336,1508.79 L840.91,1508.55 L840.609,1508.49 L840.297,1508.49 L839.909,1508.6 L839.434,1508.92 L838.66,1509.62 L837.847,1510.15 L836.147,1510.82 L834.35,1511.77 L833.909,1511.87 L833.609,1511.85 L833.184,1511.79 L832.66,1511.55 L832.208,1512.13 L831.183,1512.74 L830.147,1513.68 L828.897,1514.39 L827.859,1514.61 L826.633,1515.14 L825.307,1515.18 L824.394,1515.4 L822.856,1515.58 L822.58,1515.69 L821.756,1516.34 L820.881,1516.9 L820.069,1517.69 L819.607,1518.01 L819.289,1518.33 L818.32,1518.96 L817.982,1519.08 L816.932,1519.19 L814.042,1519.91 L812.677,1520.17 L810.877,1519.89 L809.275,1519.78 L808.949,1519.72 L807.146,1519.05 L805.832,1519 L805.457,1518.83 L804.767,1518.19 L804.341,1517.95 L803.827,1517.53 L803.552,1517.5 L802.477,1517.92 L801.437,1517.74 L800.072,1518.2 L798.671,1518.38 L797.086,1519.84 L795.807,1520.7 L795.99,1521.85 L794.162,1523.07 L791.968,1523.32 L787.149,1527.46 L781.964,1529.89 L771.934,1535.55 L769.668,1536.9 L769.471,1541.37 L766.699,1546.19 L755.953,1552.47 L752.582,1553.79 L746.526,1553.38 L743.527,1554.21 L740.886,1555.13 L739.02,1555.78 L734.652,1556.56 L728.911,1556.88 L724.111,1556.79 L715.814,1561.55 L713.454,1564.47 L709.774,1566.49 L705.01,1566.67 L701.987,1567.76 L701.654,1567.88 L700.605,1568.98 L701.28,1570.94 L701.399,1575.19 L700.71,1581.51 L698.927,1583.98 L697.458,1585.13 L695.937,1586.44 L694.574,1589.9 L689.382,1599.75 L686.716,1606.54 L684.178,1611.05 L685.212,1613.68 L687.807,1615.18 L688.031,1619.01 L686.835,1621.19 L686.033,1623.35 L685.259,1627.55 L682.331,1631.19 L680.217,1629.5 L679.101,1628.4 L677.07,1628.14 L675.246,1630.04 L673.599,1632.6 L670.874,1638.97 L669.739,1641.62 L667.63,1645.81 L664.255,1648.63 L658.256,1654.64 L662.814,1655.8 L664.602,1660.35 L667.682,1664.41 L670.404,1669.25 L673.626,1673.47 L678.114,1682.22 L680.832,1690.5 L682.268,1691.39 L686.32,1689.25 L689.446,1689.59 L697.582,1696.37 L700.449,1700.25 L700.813,1708.11 L700.85,1708.92 L701.48,1712.7 L701.458,1716.39 L700.304,1718.8 L700.094,1720.9 L701.563,1722.95 L704.426,1724.27 L701.348,1726.97 L695.535,1731.89 L689.505,1734.56 L686.038,1738.33 L678.1,1747.5 L674.702,1752.09 L674.066,1757.95 L670.847,1763.77 L663.949,1769.37 L662.647,1774.04 L659.165,1778.63 L657.617,1780.59 L652.453,1785.85 L647.472,1789.22 L641.639,1795.02 L640.744,1797.29 L640.993,1800.66 L639.818,1802.13 L638.972,1803.82 L638.878,1804.52 L639.724,1805.25 L640.5,1805.46 L642.38,1805.3 L643.999,1805.71 L645.365,1814.65 L644.636,1815.9 L645.655,1817.5 L644.801,1818.91 L644.793,1820.92 L640.822,1822.53 L635.618,1836.1 L636.512,1839.42 L637.866,1841.44 L640.561,1844.82 L642.788,1848.53 L642.107,1855.43 L640.574,1858.27 L636.722,1862.07 L635.076,1864.75 L634.505,1867.8 L634.264,1869.18 L633.534,1870.69 L629.138,1872.52 L625.007,1875.29 L619.145,1875.77 L613.588,1876.58 L612.812,1878.98 L612.624,1881.71 L612.003,1882.32 L612.551,1885.11 L613.913,1888.18 L614.542,1890.44 L613.863,1895.43 L612.239,1896.89 L608.882,1897.97 L607.224,1900.44 L605.74,1904.21 L606.434,1907.02 L606.663,1910.01 L599.851,1915.88 L596.588,1918.06 L595.315,1919.63 L594.079,1922.21 L593.003,1928.91 L594.449,1932.11 L595.667,1937.67 L598.623,1942.37 L596.766,1957.36 L596.168,1958.09 L589.164,1964.32 L585.037,1967.06 L584.94,1983.41 L582.841,1991.24 L581.029,2005.19 L579.397,2007.33 L576.729,2010.81 L574.297,2013.99 L571.548,2017.58 L569.425,2020.35 L569.47,2021.68 L564.602,2030.49 L564.033,2031.41 L563.001,2031.56 L560.888,2031.75 L559.164,2032.52 L558.744,2034.93 L558.273,2036.8 L555.686,2036.51 L554.435,2036.66 L553.012,2037.32 L550.965,2038.92 L549.695,2039.6 L548.5,2039.66 L546.937,2039.32 L543.393,2041.97 L538.596,2043.63 L537.203,2045.24 L536.208,2046.25 L535.068,2046.67 L533.57,2045.95 L532.108,2044.57 L531.087,2044.37 L529.293,2044.27 L527.585,2043.33 L526.209,2043.45 L523.103,2045.11 L521.899,2045.19 L519.818,2044.32 L519.631,2045.88 L518.938,2047.3 L518.571,2048.57 L516.034,2049.87 L515.134,2051.49 L513.817,2052.26 L508.2,2052.2 L512.027,2056.62 L511.965,2057.85 L511.211,2059.49 L509.56,2060.33 L508.449,2061.72 L507.894,2063.35 L507.293,2064.41 L506.444,2065.55 L503.536,2066.67 L500.671,2067.39 L497.618,2068.49 L494.515,2068.64 L489.93,2071.6 L487.495,2072.04 L486.886,2073.39 L482.634,2076.6 L480.093,2079.6 L477.92,2082.03 L475.579,2089.99 L472.372,2094.13 L469.668,2097.34 L464.251,2100.19 L462.497,2101.6 L459.122,2104.29 L454.565,2109.1 L449.262,2114.79 L444.944,2118.92 L442.127,2122.7 L436.54,2128.69 L434.411,2133.51 L431.859,2138.27 L428.917,2142.53 L427.388,2144.09 L426.372,2144.86 L423.371,2146.57 L422.051,2147.56 L423.469,2149.78 L424.024,2151.61 L424.167,2152.4 L422.532,2155.23 L421.246,2157.23 L419.847,2158.78 L418.648,2159.51 L417.039,2159.59 L413.774,2158.74 L411.876,2157.84 L409.451,2154.93 L407.128,2150.25 L405.187,2146.18 L399.494,2143.38 L394.803,2141.89 L392.993,2144.19 L385.425,2153.25 L379.944,2157.37 L375.605,2159.85 L372.074,2161.6 L370.307,2164.38 L367.322,2165.07 L363.279,2165.03 L357.368,2165.59 L354.893,2167.59 L351.668,2168.76 L348.559,2169.97 L346.408,2171.56 L344.495,2180.64 L341.562,2184.24 L339.058,2184.85 L336.865,2186.51 L336.28,2188.37 L334.21,2189.54 L331.286,2189.65 L330.63,2189.68 L327.09,2188.93 L323.464,2188.38 L322.517,2186.7 L315.509,2188.61 L307.883,2192.64 L309.061,2196.09 L309.245,2198.25 L308.072,2199.74 L307.538,2201.11 L308.242,2205.6 L310.104,2209.79 L310.604,2212.51 L305.913,2214.96 L301.588,2219.09 L298.279,2217.14 L294.598,2214.34 L292.679,2214.34 L291.071,2215.22 L289.58,2217.19 L289.285,2220.15" fill-rule="evenodd" vector-effect="none"/>
  </g>
  <g stroke-opacity="1" fill="none" font-size="34.5833" stroke-linejoin="bevel" stroke-width="1" stroke-linecap="square" font-family="MS Shell Dlg 2" font-style="normal" transform="matrix(0.999744,0,0,0.999744,0,0)" font-weight="400" stroke="#000000"/>
  <g stroke-opacity="1" fill="none" font-size="34.5833" stroke-linejoin="bevel" stroke-width="1" stroke-linecap="square" font-family="MS Shell Dlg 2" font-style="normal" transform="matrix(11.808,0,0,11.808,0,0)" font-weight="400" stroke="#000000"/>
  <g stroke-opacity="1" fill="none" font-size="34.5833" stroke-linejoin="bevel" stroke-width="1" stroke-linecap="square" font-family="MS Shell Dlg 2" font-style="normal" transform="matrix(11.808,0,0,11.808,0,0)" font-weight="400" stroke="#000000"/>
  <g stroke-opacity="1" fill="none" font-size="34.5833" stroke-linejoin="bevel" stroke-width="1" stroke-linecap="square" font-family="MS Shell Dlg 2" font-style="normal" transform="matrix(11.808,0,0,11.808,0,0)" font-weight="400" stroke="#000000"/>
  <g stroke-opacity="1" fill="none" font-size="34.5833" stroke-linejoin="bevel" stroke-width="1" stroke-linecap="square" font-family="MS Shell Dlg 2" font-style="normal" transform="matrix(1,0,0,1,0,0)" font-weight="400" stroke="#000000"/>
  <g stroke-opacity="1" fill="none" font-size="34.5833" stroke-linejoin="bevel" stroke-width="1" stroke-linecap="square" font-family="MS Shell Dlg 2" font-style="normal" transform="matrix(11.808,0,0,11.808,0,0)" font-weight="400" stroke="#000000"/>
  <g stroke-opacity="1" fill="none" font-size="34.5833" stroke-linejoin="bevel" stroke-width="1" stroke-linecap="square" font-family="MS Shell Dlg 2" font-style="normal" transform="matrix(11.808,0,0,11.808,0,0)" font-weight="400" stroke="#000000"/>
  <g stroke-opacity="1" fill="none" font-size="34.5833" stroke-linejoin="bevel" stroke-width="1" stroke-linecap="square" font-family="MS Shell Dlg 2" font-style="normal" transform="matrix(11.808,0,0,11.808,0,0)" font-weight="400" stroke="#000000"/>
  <g stroke-opacity="1" fill="none" font-size="34.5833" stroke-linejoin="bevel" stroke-width="1" stroke-linecap="square" font-family="MS Shell Dlg 2" font-style="normal" transform="matrix(11.808,0,0,11.808,0,0)" font-weight="400" stroke="#000000"/>
  <g stroke-opacity="1" fill="none" font-size="34.5833" stroke-linejoin="bevel" stroke-width="1" stroke-linecap="square" font-family="MS Shell Dlg 2" font-style="normal" transform="matrix(1,0,0,1,0,0)" font-weight="400" stroke="#000000"/>
 </g>
</svg>
