<?xml version='1.0' encoding='UTF-8' standalone='no'?>
<svg xmlns="http://www.w3.org/2000/svg" height="249.936mm" version="1.2" baseProfile="tiny" viewBox="0 0 2952 2952" width="249.936mm" xmlns:xlink="http://www.w3.org/1999/xlink">
 <title>Qt SVG Document</title>
 <desc>Generated with Qt</desc>
 <defs/>
 <g stroke-width="1" stroke-linecap="square" stroke-linejoin="bevel" fill-rule="evenodd" fill="none" stroke="black">
  <g stroke-width="1" font-family="MS Shell Dlg 2" transform="matrix(1,0,0,1,0,0)" stroke-opacity="1" stroke-linecap="square" font-weight="400" font-style="normal" stroke-linejoin="bevel" font-size="34.5833" fill="none" stroke="#000000"/>
  <g stroke-width="1" font-family="MS Shell Dlg 2" transform="matrix(1,0,0,1,0,0)" stroke-opacity="1" stroke-linecap="square" font-weight="400" font-style="normal" stroke-linejoin="bevel" font-size="34.5833" fill="none" stroke="#000000"/>
  <g stroke-width="1" font-family="MS Shell Dlg 2" transform="matrix(11.808,0,0,11.808,0,0)" stroke-opacity="1" stroke-linecap="square" font-weight="400" font-style="normal" stroke-linejoin="bevel" font-size="34.5833" fill="none" stroke="#000000"/>
  <g stroke-width="1" font-family="MS Shell Dlg 2" transform="matrix(0.999744,0,0,0.999744,0,0)" stroke-opacity="1" stroke-linecap="square" font-weight="400" font-style="normal" stroke-linejoin="bevel" font-size="34.5833" fill="none" stroke="#000000"/>
  <g font-family="MS Shell Dlg 2" transform="matrix(0.999744,0,0,0.999744,0,0)" fill-opacity="0" font-weight="400" font-style="normal" font-size="34.5833" fill="#ffffff" stroke="none">
   <path d="M-2,-2 L2955,-2 L2955,2955 L-2,2955 L-2,-2" fill-rule="evenodd" vector-effect="none"/>
  </g>
  <g stroke-width="1" font-family="MS Shell Dlg 2" transform="matrix(0.999744,0,0,0.999744,0,0)" stroke-opacity="1" stroke-linecap="square" font-weight="400" font-style="normal" stroke-linejoin="bevel" font-size="34.5833" fill="none" stroke="#000000"/>
  <g stroke-width="1" font-family="MS Shell Dlg 2" transform="matrix(11.808,0,0,11.808,0,0)" stroke-opacity="1" stroke-linecap="square" font-weight="400" font-style="normal" stroke-linejoin="bevel" font-size="34.5833" fill="none" stroke="#000000"/>
  <g stroke-width="1" font-family="MS Shell Dlg 2" transform="matrix(11.808,0,0,11.808,0,0)" stroke-opacity="1" stroke-linecap="square" font-weight="400" font-style="normal" stroke-linejoin="bevel" font-size="34.5833" fill="none" stroke="#000000"/>
  <g stroke-width="1" font-family="MS Shell Dlg 2" transform="matrix(11.808,0,0,11.808,0,0)" stroke-opacity="1" stroke-linecap="square" font-weight="400" font-style="normal" stroke-linejoin="bevel" font-size="34.5833" fill="none" stroke="#000000"/>
  <g stroke-width="1" font-family="MS Shell Dlg 2" transform="matrix(11.808,0,0,11.808,0,0)" stroke-opacity="1" stroke-linecap="square" font-weight="400" font-style="normal" stroke-linejoin="bevel" font-size="34.5833" fill="none" stroke="#000000"/>
  <g stroke-width="1" font-family="MS Shell Dlg 2" transform="matrix(11.808,0,0,11.808,0,0)" stroke-opacity="1" stroke-linecap="square" font-weight="400" font-style="normal" stroke-linejoin="bevel" font-size="34.5833" fill="none" stroke="#000000"/>
  <g font-family="MS Shell Dlg 2" transform="matrix(11.808,0,0,11.808,0,0)" fill-opacity="0" font-weight="400" font-style="normal" font-size="34.5833" fill="#ffffff" stroke="none">
   <path d="M0,0 L250,0 L250,250 L0,250 L0,0" fill-rule="evenodd" vector-effect="none"/>
  </g>
  <g stroke-width="1" font-family="MS Shell Dlg 2" transform="matrix(11.808,0,0,11.808,0,0)" stroke-opacity="1" stroke-linecap="square" font-weight="400" font-style="normal" stroke-linejoin="bevel" font-size="34.5833" fill="none" stroke="#000000"/>
  <g stroke-width="1" font-family="MS Shell Dlg 2" transform="matrix(11.808,0,0,11.808,0,0)" stroke-opacity="1" stroke-linecap="square" font-weight="400" font-style="normal" stroke-linejoin="bevel" font-size="34.5833" fill="none" stroke="#000000"/>
  <g font-family="MS Shell Dlg 2" transform="matrix(0.999744,0,0,0.999744,0,0)" fill-opacity="0" font-weight="400" font-style="normal" font-size="34.5833" fill="#000000" stroke="none">
   <rect height="2953" y="0" x="0" width="2953"/>
  </g>
  <g stroke-width="1" font-family="MS Shell Dlg 2" transform="matrix(0.999744,0,0,0.999744,0,0)" stroke-opacity="1" stroke-linecap="square" font-weight="400" font-style="normal" stroke-linejoin="bevel" font-size="34.5833" fill="none" stroke="#000000"/>
  <g stroke-width="3.07087" font-family="MS Shell Dlg 2" transform="matrix(0.999744,0,0,0.999744,0,0)" fill-opacity="1" stroke-opacity="1" stroke-linecap="square" font-weight="400" font-style="normal" stroke-linejoin="bevel" font-size="34.5833" fill="#c5c5c5" stroke="#5c5c5c">
   <path d="M2439.36,1024.6 L2438.28,1027.32 L2440.68,1029.04 L2441.53,1031.3 L2442.31,1035.19 L2445.1,1037.21 L2448.58,1037.53 L2451.84,1037.53 L2454.16,1037.53 L2456.87,1037.21 L2460.98,1036.9 L2463.61,1033.4 L2466.71,1034.25 L2470.66,1034.49 L2473.68,1034.49 L2475.93,1035.5 L2477.32,1033.79 L2480.42,1034.18 L2484.06,1034.41 L2483.21,1038.62 L2486.93,1043.29 L2489.09,1044.61 L2492.5,1044.15 L2526.51,1052.63 L2532.09,1054.04 L2560.59,1061.2 L2565.7,1062.53 L2575.39,1065.02 L2578.79,1064.47 L2582.2,1063.93 L2585.07,1065.64 L2587.32,1066.11 L2591.03,1067.82 L2594.52,1068.76 L2596.15,1070.24 L2599.79,1071.72 L2602.34,1073.27 L2606.68,1071.48 L2610.94,1070.39 L2614.12,1069.07 L2616.13,1070.16 L2618.61,1070.86 L2621.24,1071.72 L2623.57,1073.2 L2626.12,1073.43 L2628.68,1074.68 L2631.93,1074.52 L2634.33,1075.22 L2637.05,1076.31 L2640.14,1074.6 L2642.85,1074.05 L2645.64,1073.74 L2650.14,1074.29 L2653.31,1075.22 L2657.5,1073.9 L2660.59,1074.52 L2663.23,1075.77 L2665.55,1075.85 L2667.87,1077.33 L2670.04,1079.74 L2672.6,1081.69 L2674.54,1083.32 L2676.55,1084.8 L2677.56,1087.22 L2677.94,1090.02 L2679.34,1092.05 L2679.96,1094.54 L2679.49,1096.88 L2678.02,1099.29 L2675.85,1101.86 L2674.15,1103.81 L2672.29,1105.91 L2670.51,1108.17 L2668.65,1111.6 L2667.57,1114.56 L2667.02,1117.6 L2666.17,1121.26 L2665.63,1124.45 L2664.54,1127.1 L2663.61,1129.83 L2662.53,1132.94 L2661.99,1135.2 L2660.83,1137.7 L2659.12,1140.66 L2657.03,1144.16 L2653.78,1146.5 L2651.3,1148.68 L2648.82,1151.41 L2645.26,1153.59 L2643.01,1155.38 L2639.6,1158.11 L2637.28,1160.76 L2634.26,1163.95 L2631.31,1166.37 L2628.76,1169.72 L2626.43,1173.15 L2625.04,1176.03 L2624.42,1178.21 L2624.19,1180.78 L2622.95,1182.97 L2621.94,1185.3 L2620.31,1187.02 L2619.69,1189.74 L2617.76,1192 L2615.59,1195.35 L2613.26,1199.1 L2612.49,1202.45 L2612.72,1206.58 L2612.65,1209.46 L2610.79,1212.58 L2612.18,1214.52 L2610.55,1218.42 L2609.39,1221.07 L2607.77,1223.56 L2605.6,1224.89 L2603.81,1226.21 L2601.72,1228.32 L2599.63,1230.03 L2598.55,1232.61 L2597.93,1234.87 L2597.7,1238.45 L2596.61,1241.49 L2594.67,1244.3 L2592.27,1247.57 L2590.34,1250.53 L2589.48,1255.6 L2587.63,1257.31 L2585.07,1258.17 L2582.2,1258.71 L2580.34,1260.04 L2578.79,1261.83 L2577.56,1264.33 L2576.94,1266.98 L2576.08,1269.7 L2575.77,1272.35 L2576.01,1274.77 L2576.94,1277.58 L2575.77,1281.24 L2572.68,1283.27 L2569.42,1282.64 L2569.42,1285.92 L2569.34,1289.97 L2569.65,1292.54 L2569.42,1294.8 L2568.18,1297.3 L2567.02,1300.42 L2565.7,1303.53 L2564.31,1306.03 L2562.53,1308.99 L2561.21,1310.78 L2559.58,1312.42 L2556.8,1313.36 L2553.16,1314.37 L2550.99,1315.93 L2548.97,1318.97 L2547.5,1322.32 L2546.42,1325.75 L2544.56,1328.56 L2543.94,1330.74 L2543.09,1332.85 L2541.92,1335.11 L2540.22,1336.59 L2538.28,1338.07 L2535.73,1340.18 L2535.57,1342.67 L2533.02,1345.17 L2531.47,1348.28 L2528.68,1351.87 L2527.21,1354.68 L2525.73,1356.63 L2524.18,1359.28 L2521.86,1362.63 L2519.23,1365.2 L2516.9,1367.46 L2514.81,1370.04 L2512.8,1372.22 L2510.71,1374.48 L2508.54,1377.29 L2505.28,1379.71 L2501.88,1381.42 L2499.09,1383.61 L2496.61,1387.97 L2493.59,1390 L2492.5,1392.26 L2491.88,1394.99 L2489.95,1397.56 L2486.85,1399.28 L2483.52,1400.22 L2481.35,1401.46 L2478.79,1403.41 L2476,1405.75 L2473.22,1407.31 L2475.85,1410.28 L2472.83,1411.84 L2468.88,1412.07 L2466.09,1412.69 L2463.53,1413.71 L2461.29,1415.03 L2459.43,1416.75 L2457.96,1419.56 L2457.18,1423.46 L2455.24,1425.79 L2452.92,1426.34 L2450.52,1427.51 L2447.58,1427.74 L2444.86,1428.21 L2442.62,1429.07 L2439.83,1431.41 L2437.51,1434.3 L2435.65,1436.64 L2434.18,1438.43 L2431.7,1440.69 L2429.45,1443.34 L2427.75,1445.06 L2426.04,1446.78 L2424.18,1448.72 L2422.25,1451.3 L2419.69,1455.35 L2417.29,1459.72 L2415.43,1463.54 L2414.58,1465.81 L2414.04,1468.54 L2413.65,1471.81 L2414.11,1474.78 L2413.8,1478.52 L2412.87,1482.34 L2410.94,1486.09 L2408.07,1487.96 L2410.24,1489.99 L2408.54,1491.86 L2407.06,1493.58 L2405.75,1495.37 L2403.66,1497.87 L2402.11,1501.3 L2400.56,1503.95 L2397.85,1504.58 L2395.21,1504.58 L2392.5,1505.75 L2390.02,1508.24 L2388.55,1510.82 L2388.32,1514.56 L2386.07,1517.37 L2383.05,1518.15 L2380.18,1520.73 L2378.33,1523.14 L2376.85,1525.02 L2374.92,1526.65 L2372.9,1528.61 L2369.57,1531.1 L2368.1,1533.44 L2367.56,1536.49 L2367.02,1539.37 L2365.08,1541.63 L2362.29,1543.82 L2359.89,1545.77 L2356.95,1547.49 L2353.38,1550.69 L2350.05,1552.87 L2348.27,1555.06 L2346.88,1557.01 L2344.24,1559.35 L2342.38,1562 L2341.22,1564.34 L2340.68,1566.53 L2340.45,1568.94 L2339.36,1574.09 L2336.26,1574.09 L2332.86,1574.25 L2330.53,1575.11 L2328.6,1576.2 L2326.43,1577.92 L2323.25,1581.04 L2321.78,1584.24 L2320.31,1587.05 L2317.91,1589 L2314.03,1590.33 L2310.39,1592.04 L2307.6,1593.45 L2305.43,1594.77 L2302.96,1596.57 L2300.79,1598.52 L2298.7,1601.49 L2296.06,1603.83 L2293.43,1605.62 L2291.72,1607.73 L2290.64,1610.7 L2289.4,1613.35 L2287.31,1616 L2285.29,1618.5 L2283.44,1620.22 L2281.96,1622.4 L2279.1,1624.43 L2276.15,1626.69 L2274.06,1629.27 L2272.44,1632.39 L2270.5,1635.12 L2267.94,1637.93 L2265.46,1641.13 L2263.68,1643.55 L2262.06,1646.36 L2260.66,1649.8 L2259.66,1652.06 L2258.8,1654.4 L2257.95,1656.98 L2257.56,1660.34 L2257.02,1663.93 L2256.48,1667.91 L2257.25,1670.8 L2257.64,1673.29 L2257.95,1675.71 L2259.19,1679.15 L2255.94,1679.38 L2252.37,1679.15 L2249.97,1679.7 L2247.8,1681.18 L2245.94,1683.13 L2244.24,1685.71 L2242.46,1688.44 L2239.98,1691.87 L2237.73,1694.68 L2237.19,1691.64 L2236.96,1687.11 L2234.4,1685.63 L2231.38,1684.77 L2228.83,1684.61 L2226.19,1684.85 L2223.25,1685.47 L2220.69,1686.33 L2217.67,1687.66 L2214.03,1689.92 L2210.93,1692.11 L2208.92,1693.67 L2207.52,1695.78 L2205.59,1698.04 L2203.34,1699.45 L2201.09,1700.93 L2198.77,1703.12 L2196.6,1705.69 L2194.05,1707.96 L2189.94,1711.78 L2187.93,1713.97 L2185.76,1716.08 L2183.59,1717.56 L2182.35,1720.06 L2179.56,1719.59 L2177,1719.59 L2173.91,1720.6 L2175.07,1723.65 L2173.29,1726.07 L2170.58,1728.26 L2168.95,1729.97 L2166.7,1732.78 L2164.15,1733.57 L2164.46,1736.14 L2164.15,1739.03 L2162.6,1742.08 L2160.51,1745.43 L2158.72,1747.39 L2157.1,1749.1 L2154.7,1751.45 L2152.99,1753.95 L2151.52,1756.52 L2149.89,1759.02 L2148.73,1761.21 L2146.1,1763.24 L2143.15,1766.21 L2141.6,1768.55 L2140.13,1770.27 L2138.66,1772.22 L2136.41,1775.03 L2133.32,1777.37 L2132.77,1779.87 L2131.46,1781.82 L2130.06,1783.86 L2128.36,1786.43 L2126.58,1789.24 L2124.72,1792.13 L2123.25,1794.48 L2121.62,1797.29 L2120.23,1799.71 L2119.14,1802.05 L2117.36,1805.1 L2115.42,1807.91 L2113.56,1810.33 L2112.01,1812.67 L2110.16,1815.02 L2108.14,1817.13 L2105.82,1818.3 L2103.65,1819.31 L2101.33,1820.88 L2098.15,1823.22 L2096.14,1826.19 L2097.3,1829.08 L2098.07,1831.65 L2097.06,1834 L2096.75,1837.28 L2096.21,1840.48 L2095.28,1843.61 L2092.96,1846.18 L2090.87,1847.9 L2088.85,1849.31 L2086.61,1851.34 L2084.67,1853.21 L2082.19,1855.25 L2080.18,1856.89 L2077.93,1858.68 L2074.29,1861.89 L2071.74,1865.09 L2069.41,1868.84 L2067.55,1871.89 L2065.31,1876.1 L2063.21,1879.78 L2061.74,1882.28 L2060.19,1884.78 L2058.64,1887.43 L2056.94,1889.39 L2055,1891.65 L2052.06,1895.64 L2050.74,1898.68 L2049.66,1901.18 L2048.03,1904.23 L2046.72,1906.89 L2045.24,1910.01 L2043.54,1913.29 L2042.45,1915.64 L2040.44,1918.22 L2038.12,1921.5 L2036.8,1923.3 L2034.94,1925.25 L2033.24,1927.2 L2031.69,1928.92 L2029.83,1931.42 L2028.12,1934.24 L2025.65,1937.75 L2023.4,1940.49 L2021.7,1942.99 L2020.3,1944.94 L2018.6,1947.75 L2016.89,1950.88 L2015.27,1953.69 L2013.87,1956.82 L2012.48,1959.4 L2011.32,1961.74 L2010,1964.17 L2008.84,1966.2 L2007.44,1968.46 L2005.58,1971.82 L2003.88,1974.4 L2002.41,1977.53 L2000.24,1980.11 L1998.07,1982.92 L1995.98,1986.13 L1993.96,1988.24 L1991.49,1990.66 L1990.09,1993.24 L1988.7,1996.52 L1988,1999.73 L1984.75,2001.06 L1981.42,2004.1 L1979.01,2006.76 L1975.53,2007.78 L1970.88,2007.47 L1967.09,2008.87 L1965.07,2009.89 L1962.67,2010.83 L1959.49,2012.08 L1956.78,2013.8 L1954.23,2015.75 L1952.6,2017.55 L1950.97,2019.66 L1949.66,2021.61 L1947.87,2024.27 L1946.48,2026.54 L1945.4,2028.57 L1944.23,2031.07 L1942.76,2033.03 L1941.06,2035.92 L1939.74,2039.59 L1938.11,2043.27 L1935.48,2046.24 L1932.15,2048.04 L1929.36,2049.76 L1927.97,2051.48 L1926.34,2053.74 L1924.64,2056.64 L1923.47,2059.06 L1922.08,2061.56 L1921,2063.52 L1919.06,2066.1 L1916.66,2063.99 L1913.71,2062.89 L1910.07,2063.52 L1907.05,2063.99 L1905.35,2066.41 L1902.48,2068.76 L1899.69,2070.63 L1896.91,2072.82 L1894.43,2074.93 L1892.65,2076.97 L1891.25,2078.69 L1889.08,2081.34 L1887.69,2083.38 L1886.22,2085.64 L1884.74,2088.15 L1883.5,2090.57 L1881.96,2093.54 L1880.1,2096.59 L1877.93,2098.62 L1875.6,2100.58 L1872.35,2102.85 L1869.72,2104.57 L1867.63,2105.97 L1865.22,2107.46 L1862.28,2109.42 L1859.72,2111.29 L1857.48,2113.01 L1855.62,2114.58 L1853.53,2116.53 L1851.51,2118.64 L1849.58,2120.83 L1847.72,2123.18 L1845.63,2125.99 L1843.23,2129.04 L1841.52,2131.23 L1839.74,2133.58 L1837.88,2135.38 L1836.18,2137.26 L1834.16,2138.98 L1832.3,2140.38 L1830.06,2142.03 L1827.58,2143.82 L1823.09,2147.27 L1820.06,2150 L1817.43,2152.58 L1815.34,2154.62 L1813.4,2156.73 L1811.54,2158.53 L1809.99,2160.17 L1808.52,2161.89 L1806.97,2163.93 L1805.11,2166.19 L1803.64,2168.07 L1801.78,2170.65 L1799.92,2173.16 L1797.83,2176.36 L1796.28,2179.1 L1794.97,2181.6 L1793.65,2184.18 L1792.49,2186.61 L1790.94,2190.52 L1789.93,2194.43 L1789.39,2197.56 L1789,2200.22 L1789.16,2203.43 L1789.47,2207.96 L1788.85,2210.78 L1791.17,2212.97 L1794.11,2215.63 L1796.05,2218.21 L1794.73,2220.56 L1793.11,2222.28 L1792.02,2224.47 L1789.47,2225.49 L1786.83,2226.43 L1785.13,2228.31 L1783.5,2230.03 L1781.72,2231.98 L1779.32,2234.88 L1776.76,2238.48 L1775.45,2240.28 L1774.05,2242.62 L1772.66,2244.58 L1770.95,2247.24 L1769.25,2249.82 L1767.86,2251.93 L1766.54,2253.89 L1765.38,2256.08 L1763.91,2258.82 L1762.67,2260.78 L1761.35,2263.2 L1759.72,2265.94 L1758.17,2268.76 L1757.01,2271.03 L1755.54,2273.84 L1753.91,2276.66 L1752.83,2278.77 L1751.9,2281.2 L1750.27,2284.02 L1748.96,2286.75 L1747.72,2288.95 L1746.17,2292.15 L1744.62,2294.74 L1743.38,2296.69 L1741.83,2299.51 L1739.89,2302.64 L1738.42,2304.75 L1736.79,2307.18 L1735.17,2309.92 L1733.46,2312.89 L1731.76,2315.95 L1729.28,2320.09 L1727.81,2322.91 L1726.18,2326.12 L1724.94,2328.7 L1723.24,2331.36 L1720.91,2332.23 L1720.06,2330.11 L1717.66,2329.8 L1714.18,2328.31 L1712.78,2326.2 L1710.46,2321.19 L1709.76,2318.22 L1707.44,2309.92 L1700.31,2296.46 L1698.76,2293.72 L1696.82,2287.62 L1692.56,2280.65 L1690.08,2274 L1688.77,2272.12 L1684.28,2268.6 L1680.87,2268.37 L1676.76,2265.39 L1674.98,2262.5 L1669.87,2259.91 L1667.16,2259.37 L1663.83,2259.91 L1660.88,2261.48 L1658.09,2263.67 L1655.54,2265.55 L1651.74,2268.37 L1648.95,2270.56 L1645.31,2272.43 L1635.24,2277.44 L1628.5,2279.87 L1619.05,2280.1 L1619.13,2276.66 L1621.22,2274.39 L1623.39,2273.37 L1627.42,2270.95 L1623.39,2270.56 L1615.26,2271.81 L1609.29,2271.57 L1606.04,2271.81 L1603.1,2275.25 L1601.62,2277.68 L1593.49,2272.04 L1589.54,2271.57 L1587.45,2269.54 L1585.67,2266.49 L1585.51,2263.44 L1587.37,2260.78 L1588.3,2257.72 L1588.3,2252.4 L1589.15,2248.96 L1588.53,2242.39 L1586.36,2238.71 L1585.13,2236.76 L1583.73,2232.92 L1583.81,2228.15 L1583.19,2224.86 L1583.96,2220.79 L1584.66,2217.82 L1585.13,2212.5 L1584.04,2207.42 L1583.81,2203.27 L1585.05,2198.26 L1584.04,2195.84 L1581.25,2191.3 L1578.7,2187.86 L1576.68,2185.9 L1572.27,2181.6 L1570.02,2179.88 L1565.53,2178 L1567.54,2175.5 L1564.75,2165.41 L1561.58,2163.07 L1559.18,2161.74 L1553.83,2158.84 L1549.57,2153.68 L1541.82,2144.06 L1539.04,2141.79 L1534.23,2139.29 L1528.89,2138.35 L1524.71,2137.57 L1520.83,2141.64 L1519.75,2146.64 L1514.17,2151.18 L1511.77,2152.58 L1509.29,2151.8 L1504.26,2151.18 L1500.92,2152.04 L1497.28,2152.35 L1495.04,2154.77 L1491.94,2156.26 L1488.69,2154.62 L1479.93,2153.37 L1473.66,2150.94 L1470.1,2150.32 L1465.29,2148.36 L1460.03,2141.32 L1457.24,2135.77 L1455.22,2132.72 L1452.05,2128.65 L1449.49,2126.31 L1447.71,2123.65 L1444.77,2121.93 L1431.52,2119.97 L1428.27,2119.58 L1422.46,2118.33 L1420.29,2117.16 L1412.77,2117 L1397.36,2114.11 L1392.87,2112.47 L1389.07,2109.88 L1387.29,2108.56 L1382.41,2105.27 L1380.01,2103.71 L1378.07,2102.22 L1375.98,2100.5 L1374.12,2098.62 L1372.8,2096.36 L1371.64,2092.92 L1370.02,2089.94 L1367.69,2087.83 L1367.38,2082.2 L1367.23,2079.15 L1366.53,2074.93 L1366.3,2068.68 L1364.05,2066.41 L1361.81,2065.86 L1358.47,2066.1 L1356.54,2064.61 L1353.98,2065.63 L1351.74,2064.46 L1349.26,2062.42 L1346.47,2058.12 L1344.3,2055.62 L1341.43,2054.84 L1339.11,2054.06 L1336.09,2053.2 L1328.5,2052.34 L1317.96,2049.21 L1315.41,2047.96 L1311.77,2044.44 L1309.75,2041.71 L1307.5,2040.14 L1305.49,2033.73 L1304.41,2027.63 L1302.7,2024.04 L1299.99,2020.91 L1292.71,2013.88 L1290.54,2009.97 L1289.38,2007.94 L1288.37,2005.36 L1287.06,2002.07 L1286.44,1999.57 L1284.58,1997.23 L1282.41,1987.85 L1280.63,1980.89 L1280.63,1977.3 L1282.79,1968.15 L1281.94,1960.18 L1282.64,1956.51 L1281.56,1952.91 L1280.86,1950.65 L1276.83,1939.47 L1274.04,1935.8 L1270.17,1931.97 L1256.07,1923.69 L1252.97,1922.2 L1248.71,1922.12 L1244.68,1922.83 L1238.64,1924.78 L1228.34,1929.55 L1225.78,1930.64 L1219.66,1932.91 L1214.71,1932.59 L1210.45,1930.88 L1205.02,1927.75 L1200.92,1924.31 L1197.59,1921.73 L1194.8,1919.39 L1190.85,1915.4 L1187.05,1911.73 L1180,1905.4 L1168.85,1893.84 L1154.44,1880.4 L1145.92,1873.84 L1138.56,1868.14 L1130.51,1863.99 L1119.74,1862.35 L1109.67,1861.73 L1097.66,1861.73 L1094.02,1861.73 L1073.5,1862.9 L1070.71,1862.12 L1066.6,1860.17 L1063.19,1857.98 L1058.78,1853.06 L1057.46,1851.26 L1056.14,1849.39 L1054.44,1846.18 L1049.95,1832.28 L1043.6,1823.84 L1027.87,1809.24 L1022.91,1807.68 L1019.27,1806.82 L1009.74,1805.02 L1007.11,1804.16 L1000.22,1801.04 L990.457,1790.57 L986.507,1786.51 L979.07,1779.79 L974.268,1776.59 L971.789,1775.97 L967.838,1774.87 L962.571,1773.39 L960.015,1772.84 L947.931,1770.11 L942.354,1768.39 L940.262,1766.91 L932.516,1760.66 L925.312,1756.21 L917.411,1753.01 L912.376,1751.53 L900.138,1748.71 L896.342,1747.86 L887.511,1745.51 L885.188,1744.19 L882.012,1743.72 L870.625,1743.09 L861.252,1744.03 L846.689,1742.94 L843.591,1742.23 L839.64,1741.37 L820.12,1738.8 L810.283,1738.09 L805.945,1737.31 L801.065,1735.52 L798.044,1733.41 L788.594,1725.21 L782.862,1722.17 L780.693,1720.92 L767.447,1713.89 L764.348,1710.92 L757.299,1706.79 L753.891,1702.96 L749.243,1700.62 L741.73,1696.48 L740.181,1694.29 L738.089,1689.61 L732.667,1680.55 L729.336,1673.22 L725.231,1669.63 L721.59,1666.5 L719.034,1664.71 L716.865,1663.85 L711.907,1661.9 L701.992,1655.5 L697.577,1653.47 L693.549,1652.84 L687.042,1652.69 L681.078,1651.36 L678.134,1650.11 L673.642,1649.17 L670.156,1649.02 L659.466,1652.14 L655.98,1653.94 L645.756,1659.17 L643.199,1659.95 L640.798,1659.09 L638.707,1656.67 L637.39,1651.98 L636.693,1648.94 L635.841,1646.83 L633.749,1644.41 L627.94,1640.74 L623.834,1636.92 L621.355,1633.8 L620.503,1630.36 L616.553,1627.24 L614.616,1623.03 L610.821,1622.25 L603.927,1625.06 L602.068,1623.03 L601.835,1620.76 L600.596,1616.39 L596.49,1611.55 L592.54,1610.3 L585.801,1605.86 L579.914,1602.97 L576.273,1599.14 L569.689,1594.38 L566.203,1592.28 L561.555,1589.16 L559.851,1586.11 L558.922,1583.62 L556.133,1581.04 L552.493,1583.54 L548.232,1585.57 L544.204,1587.67 L541.183,1588.61 L538.162,1589.16 L533.67,1588.06 L530.416,1586.74 L526.621,1584.63 L523.367,1583.38 L517.79,1582.05 L514.459,1581.27 L508.65,1577.92 L503.305,1576.83 L498.502,1575.97 L494.862,1576.05 L492.15,1575.42 L484.869,1572.3 L482.003,1571.75 L479.912,1570.35 L474.334,1564.73 L471.081,1563.72 L471.933,1559.42 L472.63,1556.15 L475.651,1549.75 L473.637,1547.8 L471.391,1543.66 L467.518,1537.58 L465.814,1534.38 L463.18,1532.82 L459.384,1532.43 L457.448,1529.15 L451.638,1525.48 L448.85,1525.25 L445.906,1524.47 L441.723,1526.42 L438.315,1525.25 L435.217,1523.14 L431.344,1521.35 L430.259,1519.32 L422.281,1518.15 L421.429,1514.25 L419.957,1510.43 L417.013,1507.23 L413.45,1504.65 L407.253,1503.48 L399.43,1501.85 L389.979,1500.75 L386.106,1501.53 L382.853,1505.9 L380.297,1505.43 L373.48,1503.25 L369.22,1503.25 L364.417,1502.39 L362.326,1503.8 L356.981,1505.9 L354.657,1506.92 L353.03,1504.89 L345.982,1500.52 L342.108,1497.95 L339.165,1496.62 L336.764,1492.8 L332.968,1492.87 L329.095,1491.39 L325.687,1490.61 L321.426,1489.52 L317.398,1488.43 L315.772,1486.87 L315.772,1484.37 L316.624,1478.68 L317.166,1475.25 L318.328,1472.83 L320.574,1470.88 L323.983,1468.61 L322.743,1466.2 L323.828,1461.52 L321.349,1459.57 L319.18,1456.91 L317.166,1452.62 L315.152,1444.59 L312.596,1441.24 L307.483,1436.17 L301.209,1431.64 L298.42,1428.29 L294.547,1422.91 L290.597,1418.54 L296.329,1411.99 L303.455,1404.66 L317.553,1392.57 L325.842,1391.72 L334.905,1388.28 L337.228,1386.02 L339.862,1383.37 L345.982,1372.61 L349.855,1369.65 L351.636,1367.39 L352.488,1364.81 L353.263,1360.06 L353.263,1355.61 L353.263,1350 L354.89,1346.96 L356.129,1344.62 L358.608,1341.74 L360.389,1337.21 L361.629,1334.02 L362.791,1331.21 L365.579,1329.49 L369.607,1327.94 L372.628,1325.75 L374.797,1324.12 L377.353,1321.93 L379.6,1319.83 L382.621,1317.64 L385.022,1315.7 L385.719,1312.89 L393.233,1304.94 L394.859,1301.66 L398.035,1300.81 L400.669,1297.53 L402.838,1295.82 L410.352,1294.1 L412.908,1293.95 L416.316,1294.73 L423.985,1296.67 L427.471,1294.8 L429.407,1292.39 L433.28,1291.92 L439.245,1292.78 L450.399,1289.43 L451.716,1284.83 L453.807,1282.72 L458.223,1282.1 L462.793,1282.72 L466.666,1282.49 L469.687,1281.4 L474.722,1279.84 L480.376,1282.1 L484.017,1280.93 L485.954,1278.59 L488.742,1277.5 L490.989,1275.63 L491.763,1271.89 L493.157,1266.74 L496.566,1262.14 L496.566,1258.48 L498.192,1257 L503.847,1254.9 L507.178,1251.23 L509.502,1247.18 L510.586,1242.74 L511.671,1238.06 L513.994,1235.88 L518.022,1233.15 L518.952,1230.81 L521.276,1226.6 L523.367,1222.94 L528.402,1217.1 L536.071,1210.86 L538.007,1208.76 L542.268,1204.71 L546.063,1201.36 L547.225,1193.64 L551.64,1190.91 L554.661,1190.6 L557.295,1189.82 L560.239,1188.34 L563.027,1190.21 L565.893,1192.32 L568.992,1189.2 L569.457,1185.46 L570.773,1179.61 L568.45,1175.95 L567.675,1173.69 L569.069,1171.51 L572.4,1170.19 L577.203,1170.19 L579.914,1167.85 L588.125,1161.3 L588.977,1158.73 L590.294,1154.84 L591.998,1152.03 L593.624,1149.23 L598.969,1144.32 L602.687,1129.83 L604.856,1124.45 L608.187,1112.69 L609.271,1108.95 L604.391,1105.29 L603.772,1103.03 L606.328,1099.06 L608.497,1095.63 L610.976,1093.22 L613.222,1090.41 L613.377,1088.07 L613.377,1084.41 L612.525,1081.69 L610.976,1079.51 L609.891,1075.61 L611.053,1071.56 L615.468,1069.85 L618.567,1067.9 L621.355,1065.88 L624.454,1065.49 L627.242,1064.79 L630.496,1064.63 L632.665,1064.01 L634.756,1062.92 L635.608,1059.72 L637.39,1057.46 L639.559,1056.06 L640.411,1052.56 L643.432,1051.7 L645.523,1051 L647.382,1049.13 L649.396,1046.95 L652.34,1046.72 L655.516,1047.57 L657.452,1045.31 L660.241,1042.82 L663.339,1041.73 L664.579,1043.99 L666.05,1046.48 L668.064,1050.14 L671.008,1051.86 L672.092,1054.89 L672.944,1058.09 L673.719,1061.44 L675.113,1064.63 L676.817,1066.97 L678.909,1067.82 L681.543,1067.67 L683.479,1070.16 L683.247,1073.51 L684.331,1076.31 L686.268,1078.81 L688.979,1080.83 L690.218,1083.56 L690.915,1086.36 L691.767,1089.24 L693.781,1091.11 L695.408,1092.83 L697.19,1094.54 L699.436,1095.63 L701.373,1098.2 L703.619,1101.01 L705.013,1104.28 L706.33,1107 L707.26,1110.35 L707.492,1113.16 L707.492,1115.65 L709.274,1118.53 L712.295,1120.48 L714.541,1123.6 L714.928,1126.48 L723.449,1135.75 L727.167,1141.9 L723.914,1143.23 L720.97,1143.23 L718.724,1143 L716.787,1144.79 L713.379,1146.35 L710.358,1147.28 L707.879,1150.16 L709.506,1153.67 L714.076,1152.97 L717.097,1152.73 L719.034,1155.93 L720.505,1158.81 L723.836,1157.33 L726.47,1155.69 L731.66,1153.12 L736.695,1151.18 L739.174,1150.94 L739.716,1154.68 L742.814,1157.02 L745.758,1157.02 L749.166,1155.77 L752.419,1156.86 L753.117,1159.59 L752.652,1161.77 L754.278,1163.72 L757.067,1163.49 L759.313,1162.71 L762.489,1160.21 L766.053,1157.95 L768.919,1156.16 L773.256,1153.75 L775.735,1152.11 L777.749,1149.77 L780.538,1144.94 L782.862,1141.51 L784.798,1138.87 L787.044,1136.84 L789.678,1137.15 L792.854,1137.39 L796.34,1137.7 L799.593,1138.48 L801.839,1138.79 L805.558,1139.33 L808.269,1139.33 L812.839,1139.33 L815.395,1139.33 L818.649,1137.46 L821.205,1135.05 L823.529,1132.71 L825.697,1131 L830.113,1130.3 L832.514,1130.06 L836.619,1129.91 L839.64,1130.37 L841.345,1132.01 L843.591,1133.72 L846.457,1135.98 L849.246,1134.58 L851.957,1134.81 L854.823,1135.67 L858.618,1134.81 L862.337,1137.39 L864.041,1139.64 L864.273,1142.45 L865.125,1145.88 L867.062,1150.55 L868.301,1154.6 L871.554,1153.98 L874.343,1152.97 L877.751,1155.3 L887.124,1160.14 L891.694,1161.62 L896.419,1162.4 L899.131,1163.02 L901.919,1163.49 L905.947,1164.58 L909.046,1165.82 L912.144,1166.45 L915.475,1167.15 L917.954,1166.91 L920.587,1166.52 L925.002,1166.37 L928.333,1167.77 L930.89,1168.86 L933.678,1170.58 L936.157,1173.15 L937.861,1175.17 L941.579,1176.58 L941.966,1180.08 L942.431,1184.45 L944.91,1182.11 L971.169,1203.15 L986.507,1220.99 L988.443,1223.25 L990.147,1226.06 L990.767,1228.94 L992.084,1231.2 L995.105,1233.77 L998.823,1234.16 L1003.08,1233.31 L1004.79,1234.87 L1005.79,1236.97 L1008.35,1240.16 L1007.96,1243.91 L1013.77,1252.32 L1019.04,1255.28 L1025.93,1267.37 L1030.81,1277.65 L1033.84,1280.15 L1039.03,1282.64 L1041.97,1284.83 L1045.69,1285.68 L1046.77,1289.35 L1051.26,1293.87 L1052.97,1296.28 L1056.53,1299.48 L1059.01,1304.24 L1059.78,1306.65 L1057.85,1309.46 L1059.4,1311.72 L1060.71,1314.21 L1062.42,1316.32 L1063.66,1319.59 L1066.37,1320.14 L1068,1322.17 L1068.38,1325.99 L1068.54,1330.74 L1069.7,1334.87 L1071.4,1337.68 L1070.24,1340.88 L1067.69,1342.83 L1067.69,1345.79 L1067.45,1348.28 L1070.47,1346.34 L1076.36,1340.96 L1078.3,1338.93 L1081.47,1337.45 L1084.65,1333.39 L1087.83,1331.83 L1092.94,1330.74 L1095.34,1329.03 L1108.2,1336.75 L1125.63,1347.5 L1124.46,1351.25 L1121.75,1353.59 L1118.65,1357.33 L1117.49,1362.08 L1118.11,1367.15 L1117.8,1373.47 L1121.68,1376.04 L1127.72,1374.25 L1131.36,1371.91 L1138.41,1370.19 L1148.55,1363.49 L1151.11,1358.34 L1154.05,1354.68 L1158.78,1348.91 L1165.98,1347.58 L1172.65,1351.4 L1178.69,1353.12 L1186.67,1359.43 L1188.37,1360.92 L1192.79,1365.75 L1196.74,1369.41 L1200.07,1374.79 L1204.64,1380.8 L1203.78,1388.28 L1201,1392.89 L1201.23,1398.66 L1201.85,1401.23 L1203.78,1405.13 L1207.19,1401 L1209.59,1404.04 L1212.15,1406.61 L1214.63,1407.47 L1218.11,1407.7 L1223.92,1405.99 L1226.87,1405.99 L1230.12,1407.16 L1233.06,1410.51 L1234.77,1413.63 L1235.93,1418.31 L1239.03,1425.64 L1243.68,1431.49 L1246.39,1436.01 L1255.76,1439.05 L1258.63,1439.68 L1262.5,1440.46 L1264.98,1441.32 L1267.23,1443.27 L1272.72,1448.88 L1278.92,1453.95 L1281.09,1456.45 L1283.49,1458.4 L1285.82,1459.33 L1291.39,1459.49 L1295.27,1457.62 L1297.82,1455.35 L1300.61,1453.01 L1302.55,1450.21 L1297.98,1442.72 L1296.66,1438.35 L1297.13,1436.17 L1298.67,1433.44 L1303.17,1431.64 L1306.81,1429.07 L1309.21,1426.03 L1310.06,1422.68 L1310.22,1420.26 L1307.89,1417.84 L1305.49,1415.5 L1305.72,1412.85 L1309.13,1409.18 L1309.6,1404.97 L1309.83,1402.4 L1312.38,1398.73 L1314.24,1394.21 L1315.79,1391.95 L1325.79,1381.66 L1328.03,1380.33 L1334.38,1382.12 L1338.26,1380.33 L1342.13,1378.46 L1345.93,1375.89 L1348.09,1370.27 L1352.59,1370.9 L1359.56,1373.86 L1363.74,1376.28 L1366.99,1377.13 L1369.55,1380.95 L1372.18,1383.37 L1372.96,1385.56 L1375.21,1386.02 L1384.19,1384.39 L1406.35,1379.71 L1422.84,1375.42 L1433.84,1372.85 L1458.32,1381.42 L1481.64,1389.61 L1489.69,1392.18 L1490.86,1394.76 L1493.18,1397.02 L1495.58,1398.73 L1498.14,1400.14 L1501.54,1402.71 L1503.71,1404.74 L1506.89,1405.75 L1510.45,1406.22 L1512.93,1407.16 L1516.03,1405.75 L1518.43,1405.13 L1520.75,1407.08 L1523.62,1406.22 L1526.1,1408.01 L1527.42,1410.82 L1531.37,1411.91 L1533.23,1416.75 L1536.71,1417.29 L1537.02,1419.87 L1539.42,1419.79 L1540.28,1416.12 L1543.99,1416.44 L1547.87,1413.71 L1546.7,1416.12 L1547.09,1418.46 L1549.73,1421.27 L1552.67,1421.27 L1552.75,1424.78 L1554.68,1426.89 L1557.16,1425.02 L1561.89,1423.92 L1564.44,1422.36 L1570.33,1423.77 L1572.65,1422.36 L1576.06,1421.97 L1578.23,1420.49 L1580.71,1419.79 L1583.5,1419.63 L1584.66,1415.66 L1586.6,1412.77 L1584.2,1410.59 L1580.17,1410.28 L1580.4,1406.84 L1578.93,1403.41 L1579.24,1396.71 L1579.7,1393.9 L1580.63,1390.23 L1595.58,1381.19 L1632.45,1369.18 L1634.93,1368.32 L1636.71,1366.76 L1639.97,1365.44 L1642.83,1365.2 L1642.52,1362.08 L1641.9,1359.2 L1644.15,1356.78 L1645.23,1352.1 L1647.02,1348.67 L1650.66,1347.97 L1654.3,1350.55 L1657.94,1350.62 L1660.65,1348.67 L1665.68,1347.19 L1668.55,1342.98 L1671.88,1341.5 L1671.65,1337.45 L1676.53,1336.2 L1679.16,1332.69 L1682.57,1330.82 L1683.19,1327.7 L1685.05,1326.45 L1689,1326.45 L1690.94,1327.7 L1694.89,1330.43 L1694.27,1333.94 L1694.81,1337.29 L1697.37,1339.63 L1702.4,1339.63 L1705.42,1335.34 L1707.44,1333.63 L1711.23,1334.41 L1714.02,1336.12 L1720.84,1336.43 L1723.47,1335.34 L1724.71,1333.08 L1728.2,1332.46 L1733.15,1330.12 L1736.72,1333.16 L1740.2,1334.64 L1744.46,1333.78 L1746.94,1331.37 L1749.42,1333.31 L1750.81,1330.27 L1752.98,1328.79 L1751.51,1324.04 L1748.96,1320.37 L1750.43,1317.88 L1753.6,1319.59 L1756.7,1320.69 L1760.11,1322.4 L1763.91,1320.69 L1766.54,1319.98 L1769.09,1318.27 L1770.8,1315.31 L1771.88,1311.17 L1773.51,1309.62 L1774.59,1305.56 L1777.69,1303.53 L1781.88,1300.65 L1782.11,1297.14 L1783.89,1295.58 L1785.75,1300.1 L1788.07,1298.78 L1790.32,1298.39 L1793.73,1298.23 L1795.66,1295.58 L1798.22,1296.75 L1801.4,1295.43 L1807.05,1291.53 L1810.69,1291.06 L1813.17,1292.78 L1815.96,1294.18 L1819.99,1294.57 L1819.68,1291.69 L1824.09,1269.31 L1823.7,1265.18 L1821.92,1262.38 L1819.44,1258.4 L1821.61,1253.41 L1820.45,1251.47 L1817.43,1248.27 L1816.04,1244.92 L1816.35,1241.49 L1825.49,1241.1 L1828.58,1238.76 L1833.39,1238.29 L1837.65,1238.76 L1840.44,1241.8 L1843.77,1238.14 L1846.79,1235.1 L1851.28,1228.55 L1850.51,1225.51 L1851.98,1220.76 L1852.21,1218.19 L1855.15,1218.42 L1860.58,1218.19 L1863.36,1216.47 L1865.84,1213.9 L1866.08,1209.15 L1868.48,1202.76 L1869.56,1198.39 L1872.04,1195.9 L1874.67,1196.84 L1877.23,1197.15 L1881.49,1195.67 L1884.12,1193.25 L1887.61,1195.12 L1892.72,1193.72 L1897.99,1193.02 L1901.94,1192.86 L1905.5,1194.11 L1909.84,1192.78 L1913.64,1192.24 L1915.65,1189.43 L1919.91,1188.65 L1924.4,1187.56 L1928.04,1184.68 L1929.9,1182.73 L1932.15,1179.69 L1934.47,1177.28 L1937.03,1174.71 L1934.71,1172.06 L1935.48,1168.32 L1938.5,1166.52 L1941.06,1161.93 L1942.76,1160.29 L1941.29,1156.86 L1937.26,1152.27 L1933.62,1150.16 L1927.12,1148.22 L1925.41,1146.5 L1924.02,1143.31 L1923.16,1138.94 L1922.93,1134.58 L1923.71,1130.37 L1924.64,1127.49 L1928.04,1124.69 L1935.79,1122.74 L1945.4,1121.65 L1953.14,1119.31 L1956.71,1117.44 L1959.8,1115.1 L1962.67,1111.52 L1964.45,1108.56 L1965.23,1105.91 L1966.62,1103.19 L1971.89,1097.11 L1974.06,1095.16 L1979.25,1093.45 L1987.53,1092.59 L1997.84,1089.79 L2003.03,1089.4 L2009.69,1091.97 L2012.01,1092.9 L2019.45,1093.45 L2023.79,1090.1 L2026.96,1089.01 L2029.6,1087.06 L2033.24,1087.3 L2035.64,1088.15 L2037.88,1086.75 L2039.9,1085.27 L2043.23,1084.65 L2046.87,1083.79 L2048.34,1086.13 L2051.36,1085.11 L2052.52,1082 L2054.23,1078.34 L2058.64,1078.57 L2061.97,1076.31 L2067.32,1072.34 L2072.9,1071.48 L2075.22,1071.25 L2082.27,1071.25 L2084.44,1068.99 L2085.29,1065.72 L2088,1058.87 L2092.73,1053.02 L2095.75,1054.5 L2100.71,1053.49 L2101.79,1051 L2104.58,1047.88 L2107.37,1052.4 L2110.47,1054.27 L2112.71,1054.11 L2116.74,1052.17 L2120.54,1051.31 L2122.78,1051.23 L2126.65,1051.08 L2129.99,1050.69 L2132.62,1052.4 L2135.56,1054.11 L2137.27,1056.92 L2139.51,1059.02 L2141.14,1061.2 L2144.78,1061.98 L2147.41,1060.03 L2150.44,1058.87 L2153.61,1059.26 L2158.72,1059.41 L2158.72,1054.97 L2161.98,1049.6 L2166.24,1050.14 L2170.11,1052.32 L2172.9,1052.09 L2174.45,1049.6 L2177,1047.57 L2179.48,1044.77 L2181.5,1042.43 L2183.43,1044.54 L2185.99,1046.79 L2187.62,1045.08 L2190.64,1048.27 L2194.05,1052.32 L2196.68,1052.09 L2197.3,1054.89 L2196.45,1059.18 L2194.9,1061.67 L2192.57,1066.58 L2191.72,1069.77 L2194.05,1075.53 L2192.42,1081.61 L2195.36,1082.31 L2199.86,1088.07 L2203.34,1088.93 L2207.83,1089.55 L2210.39,1090.96 L2213.72,1092.67 L2215.66,1094.62 L2218.45,1096.64 L2222.09,1095.63 L2227.74,1092.59 L2238.35,1090.26 L2241.45,1088.07 L2246.18,1087.06 L2249.74,1088.39 L2255.78,1088.39 L2262.06,1083.79 L2265,1082.47 L2267.94,1081.38 L2270.73,1080.83 L2272.75,1082 L2275.53,1080.83 L2278.71,1079.97 L2283.9,1075.77 L2286.22,1069.85 L2289.56,1068.06 L2292.81,1069.15 L2298.23,1069.77 L2304.04,1069.61 L2308.53,1068.68 L2310.86,1067.04 L2313.8,1065.1 L2315.97,1062.21 L2317.44,1059.72 L2322.79,1055.52 L2325.81,1054.89 L2329.22,1055.98 L2332.86,1053.8 L2335.88,1052.95 L2337.66,1048.51 L2341.45,1045.63 L2343.55,1042.82 L2347.73,1040.87 L2351.52,1039.16 L2355.78,1038.62 L2357.95,1036.98 L2359.27,1032.7 L2362.29,1030.13 L2366.55,1029.89 L2369.73,1027.87 L2374.07,1026.54 L2376.85,1024.29 L2380.26,1021.48 L2383.21,1020.7 L2384.52,1023.12 L2385.45,1026.47 L2387.78,1026.86 L2389.94,1024.05 L2394.98,1021.17 L2396.99,1019.15 L2399.47,1019.38 L2401.95,1018.99 L2405.9,1020.86 L2408.15,1022.81 L2410.39,1021.09 L2411.32,1025.38 L2414.04,1027.32 L2415.58,1025.22 L2419.46,1026.54 L2421.63,1025.84 L2424.72,1025.69 L2425.81,1023.74 L2426.74,1020.94 L2429.99,1019.15 L2433.01,1018.29 L2434.02,1015.56 L2436.73,1017.67 L2439.29,1020.7 L2439.36,1024.6" fill-rule="evenodd" vector-effect="none"/>
  </g>
  <g stroke-width="1" font-family="MS Shell Dlg 2" transform="matrix(0.999744,0,0,0.999744,0,0)" stroke-opacity="1" stroke-linecap="square" font-weight="400" font-style="normal" stroke-linejoin="bevel" font-size="34.5833" fill="none" stroke="#000000"/>
  <g stroke-width="1" font-family="MS Shell Dlg 2" transform="matrix(11.808,0,0,11.808,0,0)" stroke-opacity="1" stroke-linecap="square" font-weight="400" font-style="normal" stroke-linejoin="bevel" font-size="34.5833" fill="none" stroke="#000000"/>
  <g stroke-width="1" font-family="MS Shell Dlg 2" transform="matrix(11.808,0,0,11.808,0,0)" stroke-opacity="1" stroke-linecap="square" font-weight="400" font-style="normal" stroke-linejoin="bevel" font-size="34.5833" fill="none" stroke="#000000"/>
  <g stroke-width="1" font-family="MS Shell Dlg 2" transform="matrix(11.808,0,0,11.808,0,0)" stroke-opacity="1" stroke-linecap="square" font-weight="400" font-style="normal" stroke-linejoin="bevel" font-size="34.5833" fill="none" stroke="#000000"/>
  <g stroke-width="1" font-family="MS Shell Dlg 2" transform="matrix(1,0,0,1,0,0)" stroke-opacity="1" stroke-linecap="square" font-weight="400" font-style="normal" stroke-linejoin="bevel" font-size="34.5833" fill="none" stroke="#000000"/>
  <g stroke-width="1" font-family="MS Shell Dlg 2" transform="matrix(11.808,0,0,11.808,0,0)" stroke-opacity="1" stroke-linecap="square" font-weight="400" font-style="normal" stroke-linejoin="bevel" font-size="34.5833" fill="none" stroke="#000000"/>
  <g stroke-width="1" font-family="MS Shell Dlg 2" transform="matrix(11.808,0,0,11.808,0,0)" stroke-opacity="1" stroke-linecap="square" font-weight="400" font-style="normal" stroke-linejoin="bevel" font-size="34.5833" fill="none" stroke="#000000"/>
  <g stroke-width="1" font-family="MS Shell Dlg 2" transform="matrix(11.808,0,0,11.808,0,0)" stroke-opacity="1" stroke-linecap="square" font-weight="400" font-style="normal" stroke-linejoin="bevel" font-size="34.5833" fill="none" stroke="#000000"/>
  <g stroke-width="1" font-family="MS Shell Dlg 2" transform="matrix(11.808,0,0,11.808,0,0)" stroke-opacity="1" stroke-linecap="square" font-weight="400" font-style="normal" stroke-linejoin="bevel" font-size="34.5833" fill="none" stroke="#000000"/>
  <g stroke-width="1" font-family="MS Shell Dlg 2" transform="matrix(1,0,0,1,0,0)" stroke-opacity="1" stroke-linecap="square" font-weight="400" font-style="normal" stroke-linejoin="bevel" font-size="34.5833" fill="none" stroke="#000000"/>
 </g>
</svg>
