<?xml version='1.0' encoding='UTF-8' standalone='no'?>
<svg xmlns="http://www.w3.org/2000/svg" height="249.936mm" version="1.2" baseProfile="tiny" viewBox="0 0 2952 2952" width="249.936mm" xmlns:xlink="http://www.w3.org/1999/xlink">
 <title>Qt SVG Document</title>
 <desc>Generated with Qt</desc>
 <defs/>
 <g stroke-width="1" stroke-linecap="square" stroke-linejoin="bevel" fill-rule="evenodd" fill="none" stroke="black">
  <g stroke-width="1" font-family="MS Shell Dlg 2" transform="matrix(1,0,0,1,0,0)" stroke-opacity="1" stroke-linecap="square" font-weight="400" font-style="normal" stroke-linejoin="bevel" font-size="34.5833" fill="none" stroke="#000000"/>
  <g stroke-width="1" font-family="MS Shell Dlg 2" transform="matrix(1,0,0,1,0,0)" stroke-opacity="1" stroke-linecap="square" font-weight="400" font-style="normal" stroke-linejoin="bevel" font-size="34.5833" fill="none" stroke="#000000"/>
  <g stroke-width="1" font-family="MS Shell Dlg 2" transform="matrix(11.808,0,0,11.808,0,0)" stroke-opacity="1" stroke-linecap="square" font-weight="400" font-style="normal" stroke-linejoin="bevel" font-size="34.5833" fill="none" stroke="#000000"/>
  <g stroke-width="1" font-family="MS Shell Dlg 2" transform="matrix(0.999744,0,0,0.999744,0,0)" stroke-opacity="1" stroke-linecap="square" font-weight="400" font-style="normal" stroke-linejoin="bevel" font-size="34.5833" fill="none" stroke="#000000"/>
  <g font-family="MS Shell Dlg 2" transform="matrix(0.999744,0,0,0.999744,0,0)" fill-opacity="0" font-weight="400" font-style="normal" font-size="34.5833" fill="#ffffff" stroke="none">
   <path d="M-2,-2 L2955,-2 L2955,2955 L-2,2955 L-2,-2" fill-rule="evenodd" vector-effect="none"/>
  </g>
  <g stroke-width="1" font-family="MS Shell Dlg 2" transform="matrix(0.999744,0,0,0.999744,0,0)" stroke-opacity="1" stroke-linecap="square" font-weight="400" font-style="normal" stroke-linejoin="bevel" font-size="34.5833" fill="none" stroke="#000000"/>
  <g stroke-width="1" font-family="MS Shell Dlg 2" transform="matrix(11.808,0,0,11.808,0,0)" stroke-opacity="1" stroke-linecap="square" font-weight="400" font-style="normal" stroke-linejoin="bevel" font-size="34.5833" fill="none" stroke="#000000"/>
  <g stroke-width="1" font-family="MS Shell Dlg 2" transform="matrix(11.808,0,0,11.808,0,0)" stroke-opacity="1" stroke-linecap="square" font-weight="400" font-style="normal" stroke-linejoin="bevel" font-size="34.5833" fill="none" stroke="#000000"/>
  <g stroke-width="1" font-family="MS Shell Dlg 2" transform="matrix(11.808,0,0,11.808,0,0)" stroke-opacity="1" stroke-linecap="square" font-weight="400" font-style="normal" stroke-linejoin="bevel" font-size="34.5833" fill="none" stroke="#000000"/>
  <g stroke-width="1" font-family="MS Shell Dlg 2" transform="matrix(11.808,0,0,11.808,0,0)" stroke-opacity="1" stroke-linecap="square" font-weight="400" font-style="normal" stroke-linejoin="bevel" font-size="34.5833" fill="none" stroke="#000000"/>
  <g stroke-width="1" font-family="MS Shell Dlg 2" transform="matrix(11.808,0,0,11.808,0,0)" stroke-opacity="1" stroke-linecap="square" font-weight="400" font-style="normal" stroke-linejoin="bevel" font-size="34.5833" fill="none" stroke="#000000"/>
  <g font-family="MS Shell Dlg 2" transform="matrix(11.808,0,0,11.808,0,0)" fill-opacity="0" font-weight="400" font-style="normal" font-size="34.5833" fill="#ffffff" stroke="none">
   <path d="M0,0 L250,0 L250,250 L0,250 L0,0" fill-rule="evenodd" vector-effect="none"/>
  </g>
  <g stroke-width="1" font-family="MS Shell Dlg 2" transform="matrix(11.808,0,0,11.808,0,0)" stroke-opacity="1" stroke-linecap="square" font-weight="400" font-style="normal" stroke-linejoin="bevel" font-size="34.5833" fill="none" stroke="#000000"/>
  <g stroke-width="1" font-family="MS Shell Dlg 2" transform="matrix(11.808,0,0,11.808,0,0)" stroke-opacity="1" stroke-linecap="square" font-weight="400" font-style="normal" stroke-linejoin="bevel" font-size="34.5833" fill="none" stroke="#000000"/>
  <g font-family="MS Shell Dlg 2" transform="matrix(0.999744,0,0,0.999744,0,0)" fill-opacity="0" font-weight="400" font-style="normal" font-size="34.5833" fill="#000000" stroke="none">
   <rect height="2953" y="0" x="0" width="2953"/>
  </g>
  <g stroke-width="1" font-family="MS Shell Dlg 2" transform="matrix(0.999744,0,0,0.999744,0,0)" stroke-opacity="1" stroke-linecap="square" font-weight="400" font-style="normal" stroke-linejoin="bevel" font-size="34.5833" fill="none" stroke="#000000"/>
  <g stroke-width="3.07087" font-family="MS Shell Dlg 2" transform="matrix(0.999744,0,0,0.999744,0,0)" fill-opacity="1" stroke-opacity="1" stroke-linecap="square" font-weight="400" font-style="normal" stroke-linejoin="bevel" font-size="34.5833" fill="#c5c5c5" stroke="#5c5c5c">
   <path d="M1031.93,383.388 L1034.87,383.798 L1036.84,383.753 L1038.49,384.163 L1042.71,384.619 L1044.13,384.665 L1045.51,384.756 L1047.62,384.847 L1052.11,384.984 L1054.4,384.847 L1058.44,384.482 L1061.19,384.254 L1062.47,384.026 L1063.85,383.616 L1065.64,383.251 L1069.3,382.658 L1070.73,382.339 L1073.43,381.746 L1075.54,381.473 L1078.75,381.381 L1081.27,381.473 L1083.75,381.701 L1085.44,381.883 L1087.46,382.02 L1089.2,382.202 L1090.53,382.339 L1092.14,382.339 L1094.66,382.339 L1096.31,382.476 L1099.11,382.841 L1101.13,382.841 L1103.69,383.114 L1105.25,383.023 L1106.63,383.205 L1108.42,383.342 L1110.07,383.616 L1111.4,383.798 L1113.74,384.117 L1115.11,384.345 L1120.48,385.166 L1122.86,385.121 L1124.65,383.981 L1126.67,383.661 L1128.55,383.616 L1130.43,383.616 L1131.98,383.661 L1133.86,383.889 L1135.42,383.844 L1137.21,384.026 L1139.05,383.661 L1140.33,383.981 L1141.71,384.026 L1143.17,384.163 L1144.69,384.254 L1146.47,384.254 L1147.35,385.531 L1148.72,386.808 L1150.28,387.811 L1151.52,388.586 L1152.62,389.407 L1153.95,390.547 L1156.1,391.915 L1157.94,393.557 L1159.59,394.378 L1161.93,395.518 L1163.39,396.339 L1164.82,396.84 L1167.38,396.02 L1168.62,394.378 L1168.71,392.599 L1170,392.052 L1169.17,390.593 L1171.51,390.046 L1173.34,389.544 L1176.1,390.046 L1177.47,391.049 L1179.31,390.73 L1180.82,390.775 L1183.84,391.095 L1185.27,391.049 L1187.28,391.596 L1192.1,393.238 L1194.21,394.469 L1195.12,395.974 L1196.41,396.977 L1198.01,395.199 L1199.98,395.244 L1202.64,395.564 L1204.11,394.378 L1206.17,394.697 L1207.78,395.336 L1209.06,395.837 L1211.08,396.658 L1213.6,397.661 L1215.02,397.342 L1216.45,396.977 L1219.06,397.844 L1219.24,396.476 L1220.76,396.749 L1222.5,397.251 L1225.52,398.117 L1226.85,398.391 L1228.69,398.619 L1230.98,398.847 L1232.63,398.984 L1234.7,399.166 L1236.8,399.805 L1235.61,397.753 L1236.99,397.844 L1240.43,399.029 L1244.6,400.762 L1246.89,402.085 L1249.23,403.955 L1250.56,404.456 L1251.8,405.095 L1253.72,406.189 L1255.47,407.375 L1257.62,408.88 L1259.18,409.564 L1260.46,410.111 L1261.57,410.977 L1262.99,411.388 L1264.96,412.163 L1266.75,413.03 L1268.26,413.668 L1270.69,414.626 L1272.57,414.991 L1277.38,416.541 L1276.88,414.307 L1278.81,414.626 L1280.69,415.766 L1282.34,416.906 L1283.16,417.909 L1283.67,419.551 L1285.82,420.874 L1287.84,421.238 L1289.72,422.561 L1291.64,422.88 L1293.11,423.382 L1294.58,424.248 L1296.83,425.845 L1298.48,426.985 L1299.85,427.988 L1302.37,429.949 L1303.84,431.18 L1305.58,432.777 L1306.73,433.826 L1308.34,435.331 L1309.39,436.425 L1311.32,437.839 L1312.55,438.751 L1314.43,440.119 L1316.36,440.666 L1318.61,442.491 L1321.04,443.905 L1323.6,445.182 L1325.76,447.964 L1327.27,447.553 L1328.88,447.553 L1331.72,448.921 L1333.88,449.833 L1335.48,450.882 L1337.27,452.068 L1338.64,453.163 L1340.8,454.896 L1341.99,455.671 L1343,456.492 L1344.74,458.134 L1346.12,459.548 L1347.59,460.323 L1348.78,461.053 L1350.29,462.421 L1352.22,464.109 L1353.91,465.568 L1356.3,466.754 L1358.45,467.712 L1359.74,469.126 L1362.4,469.171 L1364.55,469.856 L1366.48,470.403 L1368.22,470.403 L1370.24,469.901 L1371.61,469.126 L1372.9,468.396 L1374.45,468.35 L1376.47,469.491 L1378.12,470.266 L1379.73,470.677 L1380.74,472.045 L1381.42,473.276 L1382.43,474.599 L1384.73,477.336 L1385.69,478.339 L1387.25,479.753 L1388.62,480.483 L1390.5,480.984 L1392.29,480.984 L1393.58,480.574 L1394.58,479.342 L1395.82,478.567 L1397.47,478.567 L1399.26,479.206 L1401.55,479.89 L1404.08,481.03 L1405.63,481.897 L1406.6,483.037 L1407.24,484.177 L1407.79,485.819 L1408.39,487.461 L1409.58,489.285 L1410.17,490.608 L1411.82,493.573 L1413.38,496.036 L1414.39,497.496 L1416,499.685 L1417.28,500.916 L1418.66,501.646 L1420.72,502.422 L1422.33,502.969 L1424.48,503.151 L1426.82,502.604 L1428.74,503.927 L1430.26,504.611 L1432,504.565 L1433.74,504.611 L1435.81,505.615 L1437.23,506.071 L1439.84,507.439 L1441.03,508.534 L1443.42,510.358 L1445.34,511.499 L1446.72,513.141 L1447.96,514.646 L1450.62,516.653 L1453.55,517.793 L1456.49,519.709 L1459.1,520.713 L1460.75,521.579 L1461.94,522.263 L1463.55,523.221 L1465.38,523.86 L1466.85,524.544 L1468.18,526.642 L1469.19,527.646 L1470.33,529.197 L1471.98,531.478 L1473.36,532.846 L1474.69,533.621 L1477.53,535.355 L1479.64,535.948 L1481.06,536.358 L1482.94,536.358 L1484.73,536.723 L1486.66,536.769 L1488.45,537.271 L1490.1,537.909 L1491.7,539.004 L1494.36,540.509 L1496.19,540.418 L1497.52,541.057 L1500.96,543.429 L1502.16,544.843 L1502.89,545.938 L1504.49,547.489 L1505.32,548.492 L1506.56,549.633 L1507.8,550.499 L1510.13,551.275 L1511.78,551.594 L1512.88,552.415 L1514.4,553.419 L1516.05,553.693 L1516.23,552.142 L1519.26,551.229 L1521.05,549.861 L1522.56,548.948 L1524.58,548.903 L1526.37,549.085 L1528.34,549.633 L1529.67,550.454 L1531.46,551.001 L1533.56,552.735 L1534.57,554.559 L1535.99,556.567 L1537.14,557.798 L1538.38,558.939 L1540.67,560.444 L1542.05,561.448 L1543.84,562.269 L1546.27,563.774 L1548.05,564.276 L1549.52,564.276 L1552,565.736 L1553.6,566.922 L1555.62,568.017 L1557.77,568.427 L1559.33,568.883 L1561.63,569.705 L1563,570.161 L1564.65,570.161 L1566.53,569.522 L1568.73,569.203 L1570.25,569.34 L1571.58,569.887 L1573.14,570.663 L1574.65,571.575 L1575.7,572.67 L1577.67,574.586 L1579.33,576.137 L1580.98,577.414 L1582.99,578.281 L1584.51,579.011 L1585.7,580.06 L1586.85,581.429 L1588.13,582.661 L1589.28,584.075 L1592.16,587.588 L1593.77,589.367 L1594.59,590.781 L1595.69,592.104 L1597.21,593.929 L1598.63,595.571 L1599.78,597.579 L1600.56,598.673 L1601.75,599.54 L1602.71,600.955 L1603.72,602.506 L1604.73,604.604 L1608.4,610.946 L1611.84,615.828 L1612.71,616.831 L1613.85,618.611 L1615.14,619.66 L1616.47,621.12 L1618.12,622.899 L1620.68,624.04 L1622.43,625.454 L1623.71,626.549 L1625.22,627.234 L1627.56,627.37 L1629.72,627.234 L1631.05,626.732 L1632.38,626.823 L1634.26,627.051 L1636,627.462 L1637.93,628.055 L1639.16,629.971 L1640.31,632.891 L1642.46,636.952 L1647.97,645.347 L1649.07,646.67 L1650.4,648.267 L1651.41,649.316 L1653.88,651.278 L1655.72,652.967 L1657.05,653.697 L1658.74,654.564 L1660.9,656.343 L1663.65,656.571 L1665.71,657.529 L1668.83,657.849 L1671.31,657.529 L1673.55,657.393 L1674.79,656.434 L1675.62,655.111 L1676.99,654.564 L1679.01,654.062 L1680.43,654.29 L1682.4,653.925 L1683.92,652.465 L1685.7,651.643 L1687.17,650.959 L1689.05,650.959 L1690.52,651.142 L1692.03,651.415 L1693.59,652.191 L1695.24,653.24 L1697.67,654.564 L1699.28,655.567 L1700.61,656.708 L1701.8,657.393 L1703.27,659.355 L1704.5,660.541 L1705.42,661.545 L1706.93,663.324 L1708.31,665.104 L1709.32,666.473 L1710.46,668.07 L1711.7,669.621 L1713.03,670.853 L1714.22,672.267 L1715.14,673.363 L1716.52,674.23 L1717.94,675.507 L1718.67,676.648 L1719.45,678.336 L1719.86,679.796 L1720.74,681.713 L1722.11,685.5 L1723.4,687.417 L1724.4,689.881 L1725.78,692.436 L1727.8,695.859 L1729.36,697.958 L1730.78,699.372 L1732.8,700.513 L1734.9,700.422 L1736.37,700.604 L1738.07,700.787 L1739.63,700.878 L1740.87,701.563 L1741.92,702.658 L1744.49,704.894 L1746.14,706.491 L1747.33,707.586 L1748.48,708.59 L1749.67,709.64 L1751.04,711.282 L1752.47,712.743 L1753.7,713.747 L1754.8,714.614 L1756.5,715.8 L1757.6,716.576 L1759.8,717.58 L1761.91,718.082 L1763.75,718.584 L1765.76,718.858 L1768.38,719.177 L1770.07,719.223 L1772.09,719.04 L1773.88,718.401 L1775.35,717.854 L1776.81,718.173 L1777.69,719.177 L1778.83,720.683 L1779.98,722.737 L1781.12,724.334 L1782.27,726.25 L1784.1,728.578 L1785.39,730.221 L1786.31,731.544 L1787.45,732.822 L1789.06,734.465 L1790.62,736.108 L1791.62,737.386 L1792.4,738.663 L1793.78,740.671 L1794.93,742.177 L1797.03,744.551 L1798.69,746.239 L1799.88,747.243 L1801.8,748.749 L1803.32,749.981 L1805.79,751.624 L1808.09,752.492 L1809.6,753.176 L1811.16,753.861 L1812.95,754.317 L1814.32,754.819 L1816.06,755.321 L1818.4,756.964 L1820.14,757.968 L1821.57,758.561 L1823.22,759.109 L1824.73,760.113 L1826.61,761.209 L1827.76,762.076 L1829.13,763.354 L1831.2,765.636 L1832.11,767.005 L1834.13,769.013 L1836.1,770.975 L1838.03,773.075 L1839.27,774.125 L1841.56,775.95 L1842.98,777.046 L1844.26,777.867 L1845.5,778.734 L1847.38,780.012 L1848.94,780.925 L1850.73,781.929 L1852.52,782.66 L1854.4,783.298 L1856,783.207 L1857.7,782.933 L1859.49,783.481 L1860.77,783.846 L1862.65,784.303 L1865.03,784.576 L1867.6,784.211 L1869.57,785.17 L1871.41,785.489 L1873.88,786.174 L1875.54,786.585 L1877.23,787.087 L1878.7,787.634 L1879.85,786.128 L1882.18,786.448 L1883.83,787.087 L1884.71,788.456 L1887.14,789.734 L1889.61,790.738 L1892.13,791.651 L1894.06,792.244 L1895.25,793.02 L1896.44,793.796 L1897.91,794.572 L1899.79,794.892 L1900.75,796.398 L1903.09,797.311 L1905.02,797.813 L1906.71,798.178 L1908.04,797.448 L1909.79,797.174 L1911.44,797.082 L1913.36,797.95 L1915.52,798.863 L1917.31,799.182 L1919.46,800.46 L1921.71,800.643 L1923.5,800.095 L1924.74,799.502 L1926.06,799.502 L1927.39,799.319 L1929.32,798.315 L1929.55,796.717 L1930.7,794.207 L1931.11,791.742 L1930.7,790.099 L1932.48,792.107 L1933.91,793.02 L1935.65,793.522 L1935.88,795.211 L1936.29,796.535 L1936.98,798.497 L1937.85,800.506 L1938.49,802.103 L1939.32,803.61 L1940.33,805.435 L1941.01,807.033 L1942.02,809.041 L1943.12,811.05 L1943.76,812.236 L1944.77,814.336 L1945.32,815.523 L1946.47,817.486 L1947.29,818.764 L1947.98,819.95 L1948.62,821.411 L1949.63,822.278 L1951.28,825.245 L1952.38,826.98 L1953.9,829.627 L1955.32,832.184 L1956.6,833.964 L1958.07,836.109 L1960.91,840.218 L1962.01,842.044 L1963.34,843.733 L1964.08,844.874 L1964.08,846.517 L1965.31,847.202 L1966.64,849.439 L1967.65,850.945 L1968.39,852.36 L1970.13,855.008 L1971.46,856.925 L1972.97,859.299 L1975.08,862.358 L1975.86,863.59 L1977.37,865.827 L1978.89,868.018 L1983.11,873.679 L1984.39,875.049 L1985.54,876.373 L1986.91,878.016 L1988.2,879.295 L1990.08,881.258 L1991.5,882.764 L1992.83,884.042 L1993.74,885.047 L1994.89,886.234 L1996.49,887.74 L1997.46,888.608 L1998.79,889.704 L2000.3,890.982 L2001.58,891.986 L2003.92,893.63 L2005.44,894.634 L2006.77,895.456 L2008.55,896.552 L2010.2,897.328 L2012.27,898.469 L2014.06,899.337 L2015.94,899.793 L2018,899.565 L2020.29,899.474 L2022.45,900.569 L2023.96,902.122 L2025.06,903.72 L2025.93,904.724 L2027.77,906.87 L2029.1,908.285 L2030.88,910.842 L2033.04,913.49 L2034.09,914.769 L2035.42,916.458 L2036.89,918.512 L2037.9,919.7 L2039.28,921.298 L2040.42,922.804 L2041.71,924.357 L2042.81,925.726 L2044.23,927.507 L2045.33,929.151 L2047.85,932.027 L2048.9,933.58 L2050.19,935.178 L2051.61,937.096 L2052.99,939.333 L2054.77,941.342 L2056.15,942.62 L2057.3,943.488 L2059.22,944.31 L2060.92,945.543 L2061.74,946.776 L2062.57,947.826 L2063.58,949.241 L2064.59,950.474 L2065.5,952.575 L2067.93,955.36 L2069.49,957.506 L2070.32,958.83 L2071.46,960.566 L2072.89,962.575 L2073.99,964.082 L2074.81,965.132 L2075.55,966.273 L2076.65,967.415 L2077.65,968.374 L2078.94,969.561 L2079.99,971.068 L2080.13,972.712 L2081.64,973.488 L2082.29,974.95 L2084.12,978.238 L2086.69,982.393 L2088.98,985.727 L2092.28,990.111 L2093.2,991.344 L2094.71,993.262 L2095.95,994.54 L2097.74,996.276 L2099.76,997.6 L2100.86,998.605 L2102.23,1000.02 L2104.07,1001.76 L2105.99,1003.54 L2106.95,1004.5 L2108.79,1006.19 L2110.03,1007.33 L2111.77,1008.97 L2113.42,1010.94 L2114.57,1012.44 L2115.85,1013.86 L2117.64,1015.5 L2118.92,1016.23 L2120.3,1017.37 L2122.22,1019.66 L2123.46,1021.17 L2124.84,1022.67 L2125.89,1023.95 L2127.04,1024.96 L2128.69,1026.65 L2130.84,1028.11 L2133.14,1029.16 L2134.37,1030.57 L2135.29,1031.72 L2136.16,1032.81 L2137.77,1034.23 L2139.42,1036.19 L2140.43,1037.2 L2141.34,1038.16 L2142.44,1039.39 L2143.64,1040.53 L2146.57,1042.17 L2148.59,1042.77 L2150.7,1044.28 L2153.04,1045.28 L2154.5,1046.33 L2155.47,1047.56 L2156.48,1048.71 L2157.48,1049.85 L2158.86,1051.4 L2160.33,1053 L2162.16,1055.01 L2163.81,1056.65 L2164.91,1057.8 L2166.61,1059.49 L2167.76,1060.44 L2169.41,1061.72 L2170.87,1062.96 L2172.02,1063.87 L2173.85,1065.38 L2175.73,1067.07 L2177.2,1068.16 L2178.53,1069.4 L2180.41,1071.32 L2181.56,1072.5 L2183.07,1073.96 L2184.31,1074.97 L2185.36,1075.88 L2186.74,1077.12 L2189.49,1079.81 L2191.14,1081.41 L2192.93,1082.6 L2194.44,1083.69 L2196.09,1084.97 L2197.56,1086.21 L2199.44,1087.67 L2201.37,1089.18 L2203.2,1090.64 L2204.35,1091.51 L2205.86,1092.69 L2207.05,1093.47 L2208.56,1094.47 L2209.66,1095.21 L2211.13,1096.21 L2214.16,1098.59 L2215.17,1099.55 L2216.82,1100.37 L2218.93,1100.55 L2220.35,1099.41 L2222.46,1100.23 L2224.38,1101.56 L2225.94,1103.15 L2227.82,1103.93 L2229.57,1104.98 L2231.12,1105.99 L2232.91,1106.99 L2235.02,1108 L2237.36,1108.45 L2239.97,1108.36 L2241.53,1106.95 L2243.18,1107.31 L2244.79,1107.95 L2246.85,1109.09 L2249.28,1109.64 L2251.76,1109.87 L2253.96,1110.1 L2254.55,1112.38 L2254.6,1114.25 L2255.11,1115.94 L2255.24,1117.36 L2254.55,1119.23 L2254.74,1121.11 L2256.89,1121.52 L2258.54,1122.98 L2259.69,1124.17 L2260.79,1125.63 L2261.52,1127.14 L2262.21,1128.69 L2263.5,1132.85 L2264.5,1135.41 L2265.38,1137.69 L2267.35,1141.99 L2269.32,1145.96 L2270.97,1149.3 L2272.85,1152.4 L2273.86,1154.05 L2274.91,1155.55 L2276.38,1157.47 L2278.31,1159.9 L2279.96,1161.54 L2281.97,1163.09 L2283.21,1163.96 L2284.27,1164.83 L2285.41,1165.7 L2286.79,1166.7 L2288.81,1168.48 L2290.69,1169.4 L2292.61,1171 L2294.17,1172.78 L2295.55,1174.42 L2297.29,1176.48 L2298.34,1177.81 L2299.49,1179.27 L2300.96,1180.78 L2302.15,1182.24 L2303.75,1183.79 L2305.31,1185.44 L2306.32,1186.58 L2307.61,1187.95 L2309.58,1189.82 L2311.23,1191.47 L2313.57,1193.8 L2315.31,1195.31 L2317.46,1197.18 L2320.12,1199.56 L2324.62,1203.35 L2325.63,1204.22 L2328.29,1206.5 L2330.3,1208.19 L2333.88,1210.8 L2335.21,1211.71 L2336.49,1212.49 L2338.05,1213.22 L2339.52,1213.45 L2341.03,1213.95 L2344.33,1215.96 L2347.27,1217.74 L2348.83,1218.57 L2350.71,1219.3 L2353.6,1220.03 L2356.53,1220.44 L2359.1,1221.17 L2360.93,1220.03 L2363.64,1219.66 L2365.24,1219.75 L2366.67,1219.53 L2368.36,1218.61 L2369.37,1217.38 L2370.98,1216.24 L2372.4,1214.82 L2374.05,1213.45 L2375.42,1213.08 L2377.62,1212.58 L2379.82,1213.26 L2381.15,1214.45 L2382.39,1216.14 L2383.31,1217.38 L2384.41,1218.52 L2387.34,1221.35 L2388.77,1222.4 L2390.88,1223.5 L2392.66,1223.87 L2394.68,1224.1 L2396.38,1224.6 L2398.26,1225.51 L2400.14,1226.33 L2402.57,1227.52 L2404.86,1228.48 L2407.66,1229.26 L2409.45,1229.81 L2411.92,1230.95 L2413.25,1231.77 L2414.76,1232.41 L2416.6,1233.28 L2418.52,1234.1 L2420.08,1234.61 L2421.83,1234.97 L2424.21,1235.43 L2428.2,1236.21 L2431.13,1236.75 L2433.15,1237.21 L2434.62,1237.39 L2436.09,1237.85 L2438.1,1238.76 L2439.43,1239.36 L2441.08,1240.04 L2443.56,1241.19 L2446.54,1242.15 L2448.24,1241.64 L2450.53,1242.15 L2452.5,1242.88 L2453.92,1243.65 L2455.94,1244.93 L2457.73,1246.44 L2459.52,1248.09 L2462.27,1250.78 L2464.33,1253.07 L2465.57,1254.26 L2468.09,1256.68 L2469.38,1257.73 L2471.16,1259.38 L2472.31,1260.75 L2474.1,1263.54 L2475.34,1265.27 L2476.25,1266.92 L2477.54,1269.2 L2478.27,1270.85 L2479,1273 L2480.2,1277.57 L2481.71,1282.64 L2482.44,1285.15 L2483.13,1286.89 L2483.87,1288.72 L2484.74,1290.87 L2485.47,1293.06 L2486.66,1296.86 L2487.99,1300.28 L2488.95,1302.29 L2489.96,1304.44 L2490.7,1306 L2488.18,1306.73 L2485.88,1307.37 L2482.49,1308.24 L2480.84,1308.6 L2478.68,1309.15 L2443.24,1318.16 L2402.2,1328.72 L2392.89,1330.91 L2382.58,1333.33 L2370.47,1336.21 L2367.54,1336.95 L2359.42,1338.87 L2350.8,1341.01 L2335.76,1344.4 L2313.29,1349.47 L2308.62,1366.07 L2308.25,1367.35 L2304.12,1382.07 L2296.05,1407.63 L2287.8,1409.69 L2281.06,1411.06 L2279.18,1411.79 L2277.11,1413.12 L2274.64,1415.22 L2273.58,1416.77 L2271.93,1420.02 L2271.34,1421.71 L2270.56,1429.12 L2267.49,1433.56 L2263.73,1436.85 L2261.98,1439.23 L2260.38,1442.02 L2256.11,1446.96 L2250.89,1468.63 L2246.21,1475.91 L2244.6,1479.56 L2244.6,1481.21 L2245.48,1483.36 L2245.98,1484.82 L2246.62,1486.33 L2247.63,1487.84 L2247.86,1489.31 L2246.94,1493.42 L2246.3,1495.8 L2244.42,1499.69 L2243.92,1502.11 L2243.78,1506.05 L2244.7,1508.79 L2245.06,1510.44 L2245.93,1511.63 L2247.72,1513.73 L2248.14,1516.39 L2247.77,1517.94 L2246.12,1519.04 L2238.09,1526.18 L2235.34,1527.14 L2234.15,1527.91 L2229.52,1530.8 L2223.65,1536.51 L2218.29,1538.66 L2213.61,1546.26 L2213.15,1550.6 L2210.81,1554.22 L2210.58,1556.14 L2211.32,1557.7 L2212.83,1564.1 L2212.23,1566.94 L2212.32,1569.13 L2210.81,1571.42 L2207.51,1575.36 L2204.71,1578.56 L2203.11,1581.85 L2201.59,1584.09 L2200.36,1586.11 L2199.3,1588.62 L2198.94,1589.95 L2197.65,1603.17 L2195.27,1605.01 L2193.94,1607.75 L2193.43,1610.18 L2193.34,1611.91 L2191.83,1612.42 L2189.49,1613.47 L2186.14,1614.25 L2184.81,1614.25 L2182.34,1612.92 L2179.63,1613.06 L2178.26,1614.25 L2176.7,1617.73 L2175.09,1622.58 L2173.72,1624.32 L2173.21,1626.1 L2172.16,1627.66 L2170.92,1628.62 L2166.61,1630.27 L2164.77,1631.59 L2162.39,1632.83 L2161.24,1634.2 L2159.46,1635.07 L2154.64,1636.72 L2152.9,1637.36 L2151.48,1638.91 L2150.33,1641.66 L2149.32,1642.85 L2148.54,1646.15 L2148.96,1647.52 L2148.73,1649.12 L2148.86,1651.13 L2143.64,1653.6 L2141.89,1655.07 L2137.31,1663.81 L2133.64,1672.55 L2132.63,1674.57 L2131.58,1675.57 L2127.13,1677.36 L2125.75,1677.73 L2123.83,1678.69 L2118.88,1683.35 L2117.27,1684.45 L2113.56,1686.47 L2111.95,1687.84 L2110.58,1690.17 L2109.75,1692.97 L2109.61,1696.13 L2110.3,1702.67 L2107.14,1710.13 L2107,1712.65 L2107.87,1716.72 L2109.43,1716.77 L2111.59,1715.08 L2114.25,1714.07 L2117,1714.99 L2119.75,1714.85 L2121.95,1716.95 L2125.16,1716.27 L2126.81,1717.87 L2125.2,1722.03 L2123,1723.96 L2121.95,1725.38 L2121.54,1726.75 L2121.44,1728.4 L2120.89,1730.28 L2120.07,1731.79 L2118.23,1733.21 L2117.09,1734.72 L2114.61,1739.02 L2113.42,1740.44 L2108.15,1745.98 L2102.28,1751.2 L2097.19,1757.65 L2095.72,1759.67 L2095.03,1763.06 L2093.89,1764.75 L2094.67,1767.54 L2095.08,1768.87 L2095.03,1771.07 L2093.06,1775.83 L2092.14,1786.55 L2091.04,1789.2 L2090.03,1790.71 L2084.3,1794.51 L2082.74,1795.98 L2082.24,1797.63 L2082.29,1799 L2082.01,1801.2 L2081,1802.34 L2075.32,1806.14 L2073.16,1807.56 L2072.47,1809.67 L2073.48,1813.01 L2073.34,1815.39 L2069.86,1817.68 L2068.21,1819.2 L2066.92,1819.42 L2065.41,1818.19 L2064.13,1817.91 L2061.38,1821.16 L2060.09,1822.22 L2057.3,1823.09 L2055.65,1823.36 L2053.86,1824.37 L2052.71,1825.38 L2051.2,1827.58 L2049.96,1828.95 L2048.4,1830.1 L2046.8,1831.24 L2042.85,1834.72 L2036.07,1841 L2033.96,1843.15 L2032.58,1845.62 L2033.41,1847.18 L2032.58,1850.71 L2032.58,1853.09 L2032.9,1856.2 L2032.4,1858.35 L2032.54,1860.46 L2031.11,1862.16 L2028.87,1863.85 L2029,1865.55 L2027.12,1865.5 L2025.38,1867.47 L2023.96,1869.71 L2022.31,1870.58 L2021.67,1872.46 L2019.51,1873.42 L2017.45,1873.15 L2015.43,1873.93 L2014.06,1875.9 L2012.5,1876.54 L2010.57,1877.82 L2008.32,1880.48 L2006.08,1879.38 L2003.51,1878.23 L2001.91,1876.08 L1998.33,1876.68 L1996.27,1876.58 L1993.97,1877.55 L1992.6,1876.26 L1991.86,1873.93 L1990.35,1872.74 L1989.07,1872 L1989.07,1876.04 L1989.07,1877.68 L1987.65,1878.83 L1985.86,1878.74 L1985.4,1880.07 L1982.28,1880.39 L1980.17,1880.98 L1977.79,1879.1 L1976.59,1877.55 L1975.22,1876.58 L1974.21,1874.07 L1974.49,1871.09 L1971.83,1870.72 L1971.6,1869.3 L1972.33,1867.79 L1972.97,1864.81 L1970.95,1865.5 L1968.89,1865.5 L1967.15,1866.14 L1964.03,1865.27 L1962.84,1866.92 L1959.63,1867.47 L1957.2,1869.3 L1955.46,1870.31 L1953.81,1871.23 L1952.71,1872.28 L1952.02,1873.79 L1950.73,1875.07 L1949.4,1876.58 L1947.75,1876.68 L1946.61,1878.1 L1944.96,1879.52 L1943.44,1879.84 L1944.45,1881.9 L1944.96,1884.01 L1945.92,1885.65 L1944.13,1887.58 L1941.65,1887.95 L1940.88,1889.59 L1938.17,1890.37 L1936.66,1891.93 L1934.64,1896.33 L1933.54,1898.99 L1932.85,1900.13 L1932.53,1901.55 L1931.7,1902.56 L1931.25,1904.07 L1930.83,1905.86 L1930.1,1907.46 L1931.75,1908.83 L1931.34,1910.76 L1930.33,1912.64 L1929.09,1913.69 L1925.01,1916.35 L1923.13,1918.73 L1922.35,1920.52 L1920.24,1921.53 L1918.77,1923.04 L1918.18,1924.92 L1918.27,1926.84 L1918.09,1928.49 L1914.97,1928.49 L1913.32,1928.67 L1910.57,1928.12 L1909.01,1928.76 L1906.53,1929.27 L1907.17,1931.51 L1906.16,1933.71 L1906.35,1936.1 L1905.71,1937.24 L1905.61,1938.62 L1909.42,1943.24 L1908.32,1945.26 L1907.68,1947.37 L1906.03,1949.8 L1904.33,1951.58 L1902.68,1953.19 L1901.44,1953.83 L1899.88,1953.6 L1898.42,1953.19 L1896.76,1955.52 L1896.08,1958.64 L1894.61,1959.56 L1893.97,1960.93 L1891.63,1963.08 L1889.61,1963.63 L1887.09,1965.1 L1885.81,1966.29 L1884.34,1968.08 L1882.78,1968.81 L1883.97,1970.09 L1885.94,1970.92 L1886.68,1974.59 L1887,1978.16 L1888.51,1979.53 L1886.31,1980.86 L1884.2,1982.51 L1882.5,1985.13 L1881.4,1987 L1882.05,1989.8 L1881.68,1992.37 L1882.5,1994.25 L1882.83,1997.18 L1883.7,1999.88 L1884.98,2000.39 L1887.87,2001.21 L1889.8,2002.04 L1890.8,2003.37 L1888.79,2004.19 L1887.73,2006.44 L1884.66,2006.67 L1883.79,2007.95 L1884.2,2009.23 L1885.71,2011.8 L1884.16,2012.76 L1882.55,2012.26 L1880.49,2012.62 L1878.61,2012.99 L1876.45,2014.82 L1875.54,2017.85 L1873.29,2018.26 L1872.28,2019.73 L1875.9,2022.52 L1877.23,2022.39 L1878.61,2021.65 L1881.31,2022.52 L1881.68,2024.31 L1883.42,2025.32 L1885.81,2025.73 L1887.37,2025.32 L1889.29,2023.95 L1892.09,2024.08 L1893.92,2024.04 L1895.44,2023.17 L1896.76,2023.44 L1898.78,2025.05 L1902.04,2023.58 L1904.01,2022.16 L1905.2,2020.87 L1907.4,2021.88 L1907.68,2024.54 L1910.66,2026.83 L1910.43,2028.21 L1908.04,2027.25 L1905.25,2029.54 L1903.51,2032.06 L1901.95,2033.34 L1899.52,2034.44 L1897.5,2036.37 L1895.39,2037.83 L1894.2,2038.98 L1893.6,2041.18 L1893.42,2043.1 L1893.46,2044.62 L1892.82,2045.9 L1890.67,2046.86 L1888.65,2047.78 L1887,2049.16 L1886.72,2050.67 L1887.23,2053.33 L1886.81,2056.17 L1884.29,2059.7 L1882.55,2061.72 L1881.31,2063.14 L1875.54,2070.06 L1873.88,2071.57 L1872.37,2072.44 L1870.22,2073.22 L1869.44,2074.42 L1867.42,2076.2 L1867.19,2079.05 L1866.09,2080.51 L1865.95,2082.9 L1867.28,2084.18 L1868.84,2084.64 L1867.6,2087.34 L1865.31,2088.99 L1863.15,2092.3 L1860.86,2094.45 L1861.5,2096.06 L1860.36,2097.48 L1858.43,2098.26 L1858.2,2101.1 L1855.5,2105.04 L1854.4,2105.87 L1853.53,2107.24 L1856.92,2109.86 L1858.2,2111.19 L1858.94,2112.79 L1859.62,2114.81 L1859.85,2117.74 L1858.48,2119.3 L1855.41,2121.55 L1852.24,2122.92 L1851.23,2126.73 L1850.32,2128.15 L1848.34,2129.39 L1847.15,2132.46 L1847.01,2135.03 L1848.8,2135.76 L1849.44,2137.64 L1850.73,2139.57 L1851.69,2140.53 L1852.1,2143.33 L1851.74,2144.66 L1850.36,2147.32 L1849.17,2149.25 L1847.7,2148.83 L1845.36,2149.71 L1845.23,2151.91 L1843.58,2152.64 L1843.21,2154.43 L1841.97,2156.31 L1841.33,2158.05 L1839.91,2159.84 L1839.77,2161.86 L1841.1,2162.73 L1839.68,2165.02 L1841.33,2167.73 L1842.75,2169.34 L1842.93,2170.8 L1843.9,2172.78 L1845.87,2173.46 L1847.15,2175.16 L1847.06,2176.72 L1846.79,2178.6 L1846.92,2179.93 L1847.79,2182.54 L1849.17,2183.42 L1850.04,2185.25 L1849.67,2186.76 L1848.85,2188.37 L1850.04,2189.88 L1851.51,2190.53 L1854.4,2191.03 L1855.36,2193 L1857.33,2193.6 L1859.72,2196.99 L1861.14,2197.64 L1862.47,2198.42 L1864.03,2198.46 L1866.91,2199.79 L1866.09,2201.86 L1865.63,2203.14 L1864.9,2204.61 L1863.38,2204.01 L1861.96,2203.51 L1860.5,2203.14 L1858.98,2203.32 L1857.42,2203.32 L1855.54,2204.1 L1856.14,2206.53 L1856.83,2207.64 L1856.69,2209.06 L1854.86,2209.7 L1853.34,2210.71 L1851.87,2211.08 L1850.73,2212.22 L1849.31,2212.91 L1847.93,2214.38 L1846.42,2215.8 L1845.04,2217.45 L1843.44,2219.1 L1841.97,2220.39 L1841.56,2221.63 L1840.92,2222.77 L1840.09,2224.29 L1840.96,2226.35 L1841.33,2227.96 L1840.23,2229.47 L1838.39,2230.99 L1837.89,2232.68 L1838.76,2235.34 L1836.97,2236.95 L1834.86,2237 L1833.17,2237.91 L1831.65,2240.16 L1829.68,2241.58 L1827.16,2242.55 L1825.83,2242.55 L1823.54,2241.58 L1820.88,2242.59 L1820.05,2243.74 L1820.92,2245.25 L1821.06,2246.72 L1817.58,2247.5 L1815.97,2248.05 L1813.95,2247.5 L1812.44,2248.56 L1812.95,2250.03 L1813.59,2251.31 L1811.25,2252.18 L1809.64,2252.87 L1807.63,2253.05 L1805.33,2254.2 L1803.82,2254.11 L1801.53,2254.89 L1800.52,2255.99 L1797.22,2257.78 L1800.02,2260.17 L1800.38,2264.89 L1798.73,2265.44 L1800.15,2267.28 L1800.98,2269.07 L1801.85,2270.9 L1800.66,2271.91 L1799.37,2273.06 L1797.72,2274.07 L1797.36,2275.58 L1798,2277.33 L1799.97,2279.21 L1801.3,2280.04 L1804.69,2280.26 L1806.07,2281.5 L1805.33,2282.93 L1805.61,2284.3 L1806.3,2285.59 L1807.63,2286.18 L1807.44,2287.97 L1805.47,2289.95 L1803.68,2293.71 L1802.17,2294.44 L1799.37,2294.58 L1797.59,2296.23 L1798.87,2297.43 L1800.7,2298.44 L1803.78,2297.8 L1805.61,2300.04 L1807.08,2300.32 L1808.64,2300.92 L1810.61,2302.29 L1812.07,2303.94 L1813.31,2304.63 L1819.92,2307.07 L1821.66,2307.57 L1824.68,2309.45 L1826.33,2310.23 L1829.68,2311.52 L1831.33,2313.22 L1830.69,2315.19 L1831.65,2317.16 L1836.38,2319.37 L1837.8,2319.82 L1839.4,2320.38 L1841.19,2321.11 L1841.47,2322.62 L1840.82,2324.41 L1838.76,2327.44 L1838.16,2330.24 L1840.27,2331.44 L1841.1,2334.33 L1842.25,2336.21 L1845.27,2337.91 L1847.06,2341.17 L1846.69,2343.23 L1846.37,2346.17 L1845.27,2348.19 L1844.4,2350.16 L1841.92,2352.46 L1841.24,2355.17 L1839.82,2356.5 L1837.66,2359.71 L1838.44,2363.02 L1838.81,2365.18 L1838.76,2370.09 L1837.8,2371.79 L1835.46,2372.29 L1834.31,2373.03 L1834.86,2374.72 L1837.8,2375.87 L1837.8,2377.85 L1836.79,2379.5 L1835.14,2379.91 L1834.77,2381.57 L1833.63,2383.22 L1832.98,2386.39 L1835.28,2385.24 L1838.62,2386.02 L1839.63,2384.32 L1841.92,2384.46 L1843.48,2384.37 L1846.01,2383.31 L1848.07,2383.31 L1850.87,2383.72 L1853.2,2383.68 L1853.89,2384.96 L1855.18,2385.88 L1856.96,2388.04 L1859.44,2387.12 L1861.37,2386.98 L1863.11,2387.9 L1864.12,2389.65 L1862.65,2392.63 L1862.65,2394.47 L1863.8,2396.03 L1864.16,2397.68 L1864.44,2400.62 L1865.68,2402.59 L1866.32,2404.89 L1868.98,2406.4 L1870.63,2407.83 L1872.74,2406.91 L1873.75,2408.33 L1874.3,2411.27 L1876.04,2412.56 L1878.84,2413.29 L1880.99,2413.2 L1883.33,2412.05 L1890.02,2410.22 L1892.59,2409.11 L1893.97,2409.57 L1895.25,2410.9 L1895.11,2412.42 L1894.06,2415.04 L1893.92,2416.46 L1894.43,2418.53 L1895.21,2420.13 L1896.95,2421.33 L1899.52,2421.83 L1899.42,2425 L1899.75,2427.53 L1901.53,2429.32 L1902.36,2431.06 L1903.09,2432.44 L1903.18,2434.09 L1902.73,2435.61 L1901.53,2436.62 L1901.21,2438.41 L1900.16,2439.93 L1897.91,2442.73 L1896.12,2443.74 L1895.57,2446.54 L1896.58,2448.84 L1896.76,2451.64 L1896.72,2453.2 L1895.25,2454.99 L1894.47,2457.33 L1892.82,2458.53 L1892.45,2461.14 L1891.03,2463.67 L1889.8,2464.63 L1888.01,2466.98 L1886.49,2469.46 L1884.93,2471.43 L1883.83,2472.21 L1882.92,2473.77 L1883.19,2475.93 L1881.91,2478.96 L1880.03,2482.59 L1878.01,2483.14 L1877.09,2484.94 L1875.35,2488.11 L1875.08,2489.76 L1877.87,2489.53 L1879.34,2489.62 L1880.4,2490.49 L1880.85,2492.01 L1879.62,2495.59 L1880.21,2498.4 L1878.88,2498.3 L1876.54,2498.12 L1874.66,2500.78 L1870.58,2503.31 L1871.09,2504.6 L1871.91,2507.4 L1871.27,2509.42 L1868.75,2509.14 L1866.27,2509.1 L1863.11,2510.71 L1860.63,2510.61 L1855.77,2509.42 L1854.03,2509.56 L1852.61,2510.43 L1852.01,2511.76 L1854.12,2512.64 L1854.49,2514.89 L1856.78,2517.09 L1857.65,2519.48 L1859.12,2521.37 L1858.8,2523.29 L1857.56,2524.67 L1855.68,2525.18 L1853.62,2527.57 L1852.01,2529.91 L1852.61,2531.56 L1851.32,2532.85 L1851.19,2534.37 L1852.01,2536.16 L1850.82,2537.81 L1848.3,2538.96 L1848.94,2540.98 L1849.67,2543.01 L1849.03,2547.28 L1847.56,2549.12 L1847.38,2550.45 L1848.85,2552.42 L1848.21,2554.45 L1846.88,2555.78 L1846.14,2557.07 L1847.43,2558.72 L1845.13,2560.14 L1839.08,2560.6 L1837.8,2561.16 L1836.61,2563.09 L1835.46,2564.69 L1833.81,2566.07 L1832.48,2566.53 L1829.18,2566.58 L1827.39,2566.07 L1825.88,2565.89 L1824.18,2567.22 L1822.67,2568.37 L1822.53,2570.9 L1822.57,2573.06 L1821.38,2574.02 L1821.52,2576.18 L1821.2,2578.66 L1819.09,2579.08 L1820.19,2580.23 L1820.42,2581.83 L1820.51,2584.91 L1819.55,2586.61 L1817.9,2586.48 L1816.11,2587.58 L1814.32,2588.82 L1812.03,2590.29 L1810.65,2591.12 L1810.93,2593.28 L1809.64,2594.57 L1808.13,2596.95 L1807.81,2598.75 L1807.86,2600.26 L1807.08,2602.33 L1805.43,2602.47 L1803.91,2602.19 L1802.03,2601.92 L1800.11,2600.68 L1798.04,2600.59 L1795.2,2601.6 L1793.87,2602.75 L1792.27,2603.48 L1790.34,2603.07 L1788.6,2605.87 L1786.17,2607.16 L1784.38,2606.06 L1781.63,2606.51 L1780.34,2606.01 L1778.46,2605.73 L1776.31,2606.19 L1773.51,2604.22 L1771.82,2607.94 L1770.35,2610.38 L1772.5,2612.49 L1773.01,2613.92 L1774.48,2615.02 L1774.38,2616.67 L1774.61,2619.48 L1773.47,2621.27 L1773.51,2623.34 L1772.73,2624.99 L1771.45,2627.47 L1770.21,2627.98 L1768.56,2629.68 L1766.54,2629.82 L1763.98,2629.82 L1760.4,2630.05 L1758.29,2628.26 L1756.5,2628.03 L1755.08,2627.47 L1753.57,2627.38 L1751.96,2626.97 L1750.45,2625.87 L1747.97,2627.47 L1747.65,2628.99 L1744.85,2631.43 L1744.35,2632.99 L1745.08,2635.61 L1744.72,2637.17 L1744.35,2638.97 L1744.35,2641.45 L1741.92,2642.78 L1738.99,2643.61 L1736.97,2643.01 L1735.18,2641.36 L1732.43,2642.09 L1730.41,2641.45 L1728.21,2641.27 L1727.29,2642.37 L1728.62,2645.4 L1728.26,2647.2 L1726.33,2645.77 L1724.91,2645.31 L1722.98,2645.4 L1719.82,2647.7 L1718.03,2647.56 L1716.43,2649.72 L1716.79,2651.93 L1716.84,2653.54 L1715.14,2655.98 L1714.41,2658.37 L1714.91,2660.02 L1717.21,2662.37 L1717.34,2664.39 L1715.14,2668.44 L1713.72,2669.95 L1711.75,2671.1 L1711.06,2675.98 L1709.04,2678.46 L1705.88,2680.3 L1705.79,2681.68 L1708.26,2683.98 L1708.4,2685.59 L1707.07,2687.1 L1705.42,2687.61 L1703.4,2687.75 L1701.25,2686.41 L1699.69,2687.66 L1697.95,2687.79 L1694.32,2686.87 L1692.22,2685.13 L1689.56,2685.08 L1688.18,2684.12 L1687.54,2682.78 L1686.35,2677.49 L1684.97,2674.14 L1684.05,2672.85 L1681.81,2672.39 L1679.65,2673.91 L1679.15,2675.33 L1678,2677.63 L1676.58,2678.09 L1674.42,2676.71 L1671.76,2676.07 L1669.38,2675.93 L1667.82,2675.79 L1666.49,2675.56 L1665.16,2675.52 L1663.69,2676.71 L1662.18,2680.53 L1661.68,2682.05 L1660.99,2683.56 L1660.03,2684.8 L1658.74,2685.86 L1656.86,2687.1 L1650.63,2690.41 L1649.62,2691.43 L1648.1,2693.13 L1646.04,2691.1 L1645.54,2689.68 L1645.81,2688.12 L1646.96,2686.28 L1649.3,2683.84 L1649.48,2681.63 L1648.84,2680.39 L1647.6,2677.72 L1647.28,2676.44 L1647.69,2674.32 L1648.24,2671.47 L1647.28,2668.94 L1646.45,2667.7 L1645.58,2664.39 L1644.9,2663.2 L1643.15,2661.03 L1642.97,2659.65 L1643.66,2657.4 L1643.79,2655.47 L1642.6,2653.03 L1641.73,2650.87 L1641,2648.35 L1639.62,2646.78 L1635.13,2642.6 L1633.02,2640.58 L1631.87,2638.69 L1631.19,2636.94 L1629.86,2635.01 L1628.53,2632.44 L1627.2,2631.15 L1624.26,2629.27 L1622.75,2628.99 L1620.32,2628.49 L1618.8,2628.49 L1617.15,2628.53 L1615.09,2628.39 L1613.3,2627.61 L1611.33,2627.66 L1609.82,2626.51 L1608.35,2625.08 L1606.97,2624.99 L1605.69,2623.2 L1603.72,2621.68 L1602.39,2619.98 L1599.91,2619.34 L1597.71,2618.6 L1595.97,2617.04 L1594.27,2615.8 L1591.25,2617.5 L1588.63,2618.37 L1587.35,2619.11 L1584.46,2618.7 L1582.76,2619.2 L1580.66,2619.98 L1579.74,2621.5 L1578.04,2623.02 L1574.01,2622.92 L1575.43,2619.52 L1575.15,2617.32 L1576.35,2616.35 L1575.15,2615.16 L1575.02,2612.49 L1574.05,2610.61 L1568.41,2606.93 L1567.59,2604.49 L1565.29,2602.24 L1559.43,2604.22 L1557.18,2604.49 L1553.69,2603.71 L1551.68,2603.99 L1549.38,2604.86 L1548.28,2602.84 L1547.92,2601.46 L1547,2600.08 L1545.39,2599.8 L1542.41,2599.62 L1540.95,2598.38 L1537,2596.59 L1534.62,2595.21 L1532.92,2591.3 L1529.25,2589.1 L1526.96,2588.5 L1525.04,2586.98 L1523.29,2586.43 L1521,2585.65 L1520.27,2583.26 L1519.12,2581.38 L1517.33,2580.09 L1515.18,2579.81 L1514.17,2578.94 L1512.79,2578.43 L1509.86,2578.48 L1506.69,2577.65 L1505.27,2577.42 L1503.39,2577.06 L1501.97,2576.92 L1498.85,2577.01 L1497.29,2576.5 L1495.87,2571.17 L1495.28,2568.19 L1493.21,2565.84 L1492.07,2564.6 L1490.42,2562.67 L1487.57,2562.3 L1485.14,2562.03 L1483.08,2562.26 L1478.82,2563.68 L1476.16,2563.04 L1473.18,2563.04 L1472.3,2560.42 L1471.8,2557.85 L1471.3,2553.25 L1469.14,2549.58 L1467.99,2547.97 L1467.4,2546.41 L1467.4,2544.15 L1468.87,2542.36 L1471.2,2541.17 L1474.46,2538.18 L1480.1,2531.56 L1480.83,2529.54 L1480.33,2519.76 L1479.69,2517.18 L1478.54,2515.53 L1475.33,2514.8 L1473.31,2515.39 L1471.71,2516.17 L1465.75,2516.08 L1464.05,2515.53 L1461.3,2513.6 L1459.42,2512.27 L1456.99,2512.87 L1454.97,2513.65 L1450.62,2516.17 L1446.49,2519.07 L1443.83,2520.72 L1440.62,2521.73 L1438.88,2521.23 L1436.31,2519.85 L1434.25,2516.08 L1431.86,2510.57 L1430.85,2507.45 L1430.26,2505.29 L1428.93,2500.28 L1428.33,2498.26 L1427.41,2496.33 L1425.67,2495.59 L1422.33,2496.6 L1420.22,2497.66 L1417.83,2497.66 L1414.9,2495.82 L1412.1,2493.85 L1410.68,2493.71 L1407.56,2494.58 L1403.98,2495.18 L1401.97,2494.86 L1400.82,2492.88 L1400.32,2489.85 L1399.03,2485.95 L1397.15,2482.27 L1396.6,2481.08 L1394.49,2476.07 L1393.71,2474 L1390.32,2470.05 L1381.93,2463.81 L1375.74,2460.04 L1369.96,2456.23 L1365.97,2454.21 L1361.71,2452.92 L1356.16,2451.22 L1352.26,2449.89 L1349.74,2449.2 L1344.51,2449.11 L1341.12,2448.88 L1336.4,2449.39 L1333.88,2449.75 L1331.95,2450.53 L1327.91,2451.54 L1324.98,2451.54 L1322.6,2450.86 L1320.67,2450.76 L1317.46,2450.72 L1315.95,2450.03 L1314.57,2450.26 L1311.91,2451.5 L1309.85,2451.77 L1304.71,2450.26 L1300.91,2448.38 L1299.39,2448.47 L1296.46,2448.56 L1293.66,2449.62 L1292.42,2450.26 L1288.66,2451.77 L1284.67,2454.35 L1283.39,2454.94 L1281.74,2454.94 L1278.21,2455.08 L1275.05,2454.48 L1272.34,2454.02 L1270.05,2454.35 L1265.1,2455.72 L1262.62,2456.83 L1259.5,2458.62 L1256.84,2459.49 L1252.85,2461.65 L1249,2463.07 L1242.31,2466.01 L1233.69,2469.69 L1230.98,2471.06 L1228.46,2471.34 L1227.08,2471.57 L1224.56,2472.07 L1210.58,2473.96 L1207.83,2474.23 L1205.03,2474.28 L1203.61,2474.42 L1196.18,2474.92 L1191.18,2475.06 L1180.82,2474.78 L1172.7,2474.51 L1168.21,2473.36 L1162.06,2470.83 L1159.22,2469.69 L1157.07,2468.81 L1152.8,2467.39 L1148.49,2465.83 L1145.19,2465 L1141.52,2463.58 L1133.13,2457.97 L1130.06,2455.82 L1126.12,2452.28 L1124.74,2450.53 L1119.83,2444.75 L1117.77,2443.23 L1114.01,2439.74 L1111.95,2438.09 L1110.66,2437.4 L1108.37,2437.26 L1103.33,2436.62 L1101.08,2436.53 L1095.85,2437.08 L1092.69,2437.26 L1089.25,2437.31 L1085.54,2438.46 L1083.89,2439.6 L1081.78,2443.09 L1080.22,2445.39 L1076.27,2447.82 L1072.65,2450.49 L1070.45,2452.56 L1069.72,2454.21 L1068.48,2458.02 L1067.01,2461.01 L1065.77,2462.43 L1059.95,2465.64 L1053.62,2467.67 L1050.69,2468.17 L1047.66,2468.31 L1042.8,2468.31 L1032.35,2467.76 L1025.61,2465.09 L1020.75,2462.15 L1017.26,2460.04 L1013,2457.47 L1009.88,2454.94 L1008,2453.66 L1001.76,2449.75 L998.874,2448.33 L997.269,2447.37 L994.38,2446.17 L991.262,2445.3 L993.647,2443.14 L995.435,2440.48 L996.581,2437.17 L996.444,2432.58 L996.306,2430.19 L995.022,2425.46 L994.885,2423.03 L994.747,2420.55 L995.802,2409.21 L996.902,2406.68 L997.223,2402.73 L999.195,2395.98 L1000.07,2393.13 L1000.71,2390.43 L1001.4,2385.74 L1004.28,2383.03 L1003.92,2377.02 L1007.86,2365.63 L1009.15,2360.31 L1008.73,2357.46 L1006.94,2354.98 L1006.71,2353.65 L1008.73,2350.16 L1015.56,2341.67 L1015.98,2339.38 L1021.16,2334.56 L1023.41,2331.9 L1025.56,2327.86 L1027.53,2324.83 L1027.99,2321.25 L1031.52,2317.58 L1033.68,2316.02 L1035.19,2314.73 L1035.6,2313.12 L1034.18,2311.98 L1033.22,2311.01 L1031.84,2309.68 L1030.37,2307.02 L1032.21,2306.15 L1034.87,2307.02 L1036.24,2306.38 L1041.84,2302.98 L1044.64,2301.28 L1042.8,2298.76 L1040.65,2298.12 L1036.98,2297.98 L1034.55,2296.92 L1033.95,2288.02 L1035.33,2283.71 L1034.59,2280.22 L1034.5,2275.54 L1036.47,2269.76 L1035.46,2263.61 L1035.24,2260.99 L1033.81,2258.79 L1032.85,2257.18 L1032.3,2254.25 L1032.35,2251.36 L1032.71,2249.93 L1034.46,2246.91 L1034.09,2242.09 L1034,2238.51 L1034.73,2236.86 L1038.49,2235.21 L1040.65,2234.66 L1042.94,2232.91 L1044.45,2230.89 L1045.96,2227.18 L1046.79,2225.71 L1049.27,2223.65 L1054.04,2220.85 L1055.27,2217.82 L1056.28,2216.31 L1057.57,2214.52 L1061.33,2211.08 L1061.37,2208.83 L1059.54,2207.59 L1056.14,2206.67 L1052.98,2206.03 L1050.09,2206.53 L1045.96,2208.55 L1040.14,2213.14 L1038.17,2213.65 L1035.19,2213.74 L1033.03,2213.28 L1031.43,2212.27 L1030.01,2210.48 L1028.5,2203.32 L1025.61,2201.31 L1023.96,2199.93 L1023.04,2197.68 L1021.75,2190.43 L1021.16,2188 L1020.47,2186.4 L1019.51,2185.43 L1016.34,2183.83 L1014.83,2182.09 L1013.96,2177.5 L1012.54,2176.58 L1005.34,2176.12 L998.461,2175.99 L994.014,2175.48 L986.54,2173.42 L979.066,2171.9 L974.343,2170.99 L972.234,2170.67 L965.631,2169.89 L959.67,2169.52 L956.827,2168.88 L955.176,2168.88 L951.554,2167.82 L948.619,2166.31 L947.335,2165.53 L941.283,2161.03 L937.936,2157.36 L935.414,2153.74 L933.121,2151.63 L929.132,2151.63 L926.381,2151.91 L921.75,2151.49 L910.057,2151.13 L905.655,2150.58 L902.17,2148.42 L898.365,2144.66 L895.705,2141.18 L899.786,2125.49 L900.199,2123.93 L895.613,2119.62 L894.742,2118.48 L893.596,2115.82 L892.45,2111 L892.358,2108.53 L891.899,2105.45 L890.936,2102.7 L889.286,2099.86 L885.434,2094.91 L874.659,2085.42 L871.907,2082.85 L870.486,2081.11 L869.523,2079.73 L868.744,2078.4 L868.056,2075.74 L868.193,2074.37 L868.744,2072.26 L869.019,2069.56 L866.91,2061.07 L866.038,2056.4 L866.543,2053.69 L867.23,2050.94 L866.91,2049.02 L866.222,2044.62 L866.038,2035.95 L865.396,2033.85 L863.746,2028.39 L862.049,2020.87 L863.287,2017.57 L864.663,2015.19 L866.543,2014.04 L868.01,2012.49 L868.881,2011.11 L869.707,2009.51 L871.541,2004.42 L873.146,2001.85 L873.787,1999.56 L873.971,1997.55 L873.558,1990.85 L872.687,1985.77 L872.32,1984.26 L871.036,1982.7 L870.394,1980.31 L869.248,1979.58 L867.093,1977.84 L862.737,1975.04 L859.619,1972.2 L858.931,1969.96 L856.593,1964.5 L855.171,1961.57 L853.658,1959.01 L852.007,1956.85 L850.494,1955.48 L850.082,1954.19 L848.568,1952.45 L840.452,1943.11 L840.59,1941.09 L842.745,1933.71 L841.324,1929.36 L840.59,1925.83 L840.315,1922.58 L840.223,1920.88 L840.315,1918.96 L839.948,1917.13 L839.948,1914.84 L841.324,1910.67 L841.828,1908.7 L843.387,1904.07 L843.479,1902.56 L843.02,1900.5 L841.966,1897.24 L838.022,1888.95 L836.372,1885.65 L834.721,1881.12 L833.391,1874.57 L830.823,1866.32 L829.035,1864.31 L827.43,1863.39 L825.275,1862.48 L817.113,1863.12 L815.508,1861.7 L814.867,1857.3 L815.187,1855.88 L816.838,1850.25 L818.672,1848.05 L820.185,1846.77 L822.341,1843.97 L823.303,1842.51 L824.083,1839.07 L824.358,1835.87 L825.229,1834.77 L828.622,1832.48 L829.815,1830.55 L830.594,1828.72 L830.686,1825.47 L830.456,1823 L829.31,1820.8 L829.264,1816.26 L827.98,1811.23 L827.935,1804.95 L827.659,1802.98 L826.605,1801.98 L823.808,1800.69 L821.148,1797.67 L820.002,1795.98 L819.681,1792.82 L821.148,1790.03 L821.515,1787.69 L820.69,1783.75 L818.764,1778.3 L817.022,1774.78 L816.013,1771.71 L815.967,1767.68 L815.233,1763.1 L814.454,1760.81 L815.875,1749.78 L815.6,1746.62 L814.225,1740.76 L814.316,1732.84 L813.583,1730.14 L811.061,1726.89 L810.556,1724.87 L810.419,1723.36 L810.877,1721.03 L811.932,1718.74 L812.299,1715.12 L809.731,1710.68 L807.347,1707.84 L805.925,1705.69 L805.558,1703.22 L805.467,1701.21 L804.687,1697.04 L803.036,1693.84 L800.79,1691.14 L801.294,1689.26 L803.633,1687.52 L805.237,1686.47 L807.255,1685.96 L811.886,1685 L813.72,1682.85 L814.316,1678.5 L815.004,1676.9 L816.013,1674.93 L817.205,1672.14 L817.343,1670.77 L816.884,1668.25 L818.122,1664.86 L817.985,1663.03 L817.526,1661.2 L816.746,1659.88 L813.078,1655.21 L812.895,1653.47 L812.666,1649.53 L812.024,1647.79 L812.069,1643.35 L811.428,1641.29 L809.272,1639.01 L806.888,1637.13 L805.467,1636.35 L803.541,1633.19 L804.045,1628.98 L803.312,1626.15 L801.89,1623.58 L802.44,1622.17 L804.091,1621.16 L805.329,1620.01 L805.467,1618.05 L805.192,1614.48 L803.541,1612.42 L803.908,1610.68 L805.237,1608.67 L804.962,1606.74 L805.467,1603.82 L807.117,1602.58 L809.869,1599.88 L811.29,1596.86 L811.152,1595.26 L808.86,1589.31 L808.218,1588.12 L807.072,1587.39 L803.908,1585.88 L801.157,1583.82 L799.46,1580.21 L798.497,1576.87 L798.956,1575.49 L800.652,1573.75 L802.532,1573.57 L804.595,1574.07 L806.063,1574.21 L808.768,1574.07 L810.419,1573.57 L811.565,1572.56 L813.308,1569.41 L812.666,1565.15 L811.749,1562.96 L810.786,1561.22 L808.401,1558.38 L805.283,1555 L802.807,1551.93 L802.028,1550.47 L802.028,1549.05 L802.945,1543.38 L804.458,1541.18 L807.759,1539.44 L810.144,1537.79 L812.207,1529.79 L813.032,1526.82 L812.666,1524.16 L807.851,1520.82 L806.246,1518.95 L806.475,1516.25 L807.989,1514.92 L808.539,1513.14 L807.438,1509.11 L809.227,1507.28 L813.078,1506.92 L813.353,1505.32 L809.914,1502.98 L808.493,1500.01 L804.916,1496.9 L803.449,1495.25 L802.119,1494.38 L800.01,1493.74 L799.781,1492.01 L802.945,1491.46 L804.274,1490.73 L806.384,1489.22 L807.943,1487.94 L808.355,1486.15 L807.117,1483.68 L807.255,1481.62 L806.888,1480.25 L804.825,1477.05 L803.908,1474.53 L804.687,1471.24 L806.109,1468.36 L806.98,1466.35 L806.842,1464.01 L805.329,1461.64 L803.954,1460.4 L802.807,1459.62 L801.294,1459.26 L796.204,1459.49 L792.032,1454.04 L789.602,1451.94 L787.217,1451.39 L783.778,1451.67 L781.073,1453.31 L779.881,1452.31 L778.918,1447.73 L777.451,1446.32 L775.02,1445.58 L772.728,1442.7 L770.343,1442.15 L768.555,1441.06 L767.317,1439.64 L766.675,1432.78 L765.666,1431.27 L763.465,1431.68 L762.319,1432.83 L760.852,1433.33 L759.064,1429.9 L757.413,1425.1 L754.845,1424.69 L752.919,1426.01 L749.022,1430.13 L745.858,1428.16 L741.319,1427.15 L738.842,1425.37 L735.816,1424.59 L735.174,1423.18 L735.954,1419.52 L734.349,1417.92 L732.698,1416.64 L732.836,1414.63 L732.377,1413.25 L731.552,1412.11 L728.709,1411.06 L728.388,1407.49 L726.233,1407.35 L723.803,1407.67 L721.464,1406.39 L719.584,1405.85 L715.32,1405.02 L712.248,1405.21 L713.302,1401.41 L714.128,1399.95 L715.412,1397.94 L715.962,1396.47 L716.925,1395.24 L717.429,1393.45 L716.833,1391.72 L716.787,1390.3 L717.108,1388.93 L716.145,1386.37 L712.523,1384.49 L710.643,1382.12 L710.093,1380.19 L708.992,1376.13 L706.058,1379.1 L704.04,1379.6 L702.023,1377.59 L700.372,1374.62 L697.3,1370.82 L696.062,1367.67 L695.145,1366.57 L693.907,1365.66 L692.439,1364.15 L691.431,1362 L690.147,1359.62 L688.542,1358.43 L687.762,1357.2 L685.607,1355.78 L684.002,1355.51 L682.214,1354.5 L681.526,1355.92 L680.93,1357.79 L679.692,1359.94 L678.363,1359.76 L676.62,1358.25 L676.849,1355.92 L675.886,1354.91 L672.814,1355.32 L671.072,1354.45 L670.797,1351.39 L670.522,1349.52 L668.733,1346.23 L665.432,1341.24 L664.973,1340.01 L665.111,1338.13 L665.982,1336.72 L668,1333.79 L665.57,1331.37 L662.314,1328.4 L658.325,1322.96 L660.617,1320.81 L661.81,1319.25 L662.818,1317.01 L662.773,1314.18 L662.406,1309.24 L661.259,1304.63 L661.535,1303.21 L662.131,1301.47 L665.615,1299.19 L666.074,1297.5 L665.615,1295.9 L666.12,1293.75 L667.266,1292.06 L669.513,1290.46 L670.247,1287.17 L671.53,1286.11 L674.694,1285.15 L676.483,1284.1 L677.354,1282.64 L677.216,1280.67 L675.199,1278.85 L673.227,1278.34 L671.209,1278.07 L668.733,1278.3 L665.478,1277.43 L663.46,1276.06 L661.81,1275.69 L659.013,1274.23 L658.096,1272.36 L659.976,1270.39 L660.984,1269.2 L663.277,1268.29 L665.111,1266.78 L664.286,1264.18 L665.432,1261.39 L666.762,1260.11 L668.275,1259.1 L669.146,1258.1 L670.109,1255.54 L671.714,1254.76 L672.814,1254.03 L674.327,1251.79 L679.876,1246.85 L682.443,1243.65 L683.957,1241 L685.149,1239.68 L686.524,1238.72 L687.487,1236.57 L689.551,1233.92 L691.935,1232.82 L692.99,1231.27 L692.073,1229.94 L690.468,1230.17 L687.625,1228.62 L686.983,1227.2 L685.47,1225.97 L683.223,1222.59 L681.343,1220.44 L679.692,1217.74 L677.629,1215.87 L673.089,1213.49 L670.292,1211.12 L669.284,1209.93 L667.266,1208.92 L665.753,1204.86 L666.762,1201.93 L668.733,1199.1 L670.43,1195.63 L671.164,1192.98 L671.072,1191.01 L669.009,1189.18 L665.111,1189.32 L664.148,1188.32 L662.543,1188.04 L661.947,1186.21 L664.286,1186.53 L666.487,1186.17 L668.917,1186.08 L671.072,1185.44 L673.594,1181.78 L674.373,1179.36 L675.382,1177.62 L677.4,1176.44 L677.858,1174.15 L678.179,1171.5 L679.646,1167.21 L681.985,1165.61 L682.856,1164.46 L684.14,1163.46 L685.24,1161.68 L686.02,1158.11 L686.387,1154.37 L685.974,1149.94 L686.524,1148.24 L688.037,1146.46 L689.78,1143.86 L691.339,1140.3 L691.293,1138.15 L690.926,1136.05 L691.476,1134.63 L692.256,1132.07 L691.752,1130.11 L691.476,1128.28 L692.256,1127.05 L694.228,1123.39 L697.025,1119.23 L697.575,1117.59 L698.813,1115.76 L699.547,1113.75 L699.592,1112.15 L700.051,1110.23 L699.822,1105.3 L698.95,1103.7 L699.959,1099.59 L702.894,1097.26 L703.536,1095.48 L704.407,1094.2 L705.507,1092.69 L706.149,1091.55 L707.571,1090.18 L707.846,1087.76 L710.139,1085.38 L710.505,1083.05 L711.514,1081.91 L714.77,1079.54 L717.613,1077.16 L717.842,1074.97 L718.575,1071.32 L717.979,1069.17 L717.934,1066.56 L710.368,1032.9 L727.379,1008.83 L731.047,1003.99 L729.718,1003.86 L728.25,1004.18 L724.261,1003.67 L721.739,1002.4 L718.621,1001.76 L717.292,999.564 L716.191,998.057 L715.137,996.413 L714.816,994.54 L715.274,992.394 L713.99,989.837 L711.147,986.32 L707.708,982.895 L709.588,981.069 L709.863,979.607 L711.101,974.173 L713.623,970.657 L714.036,969.242 L714.174,967.369 L716.696,961.479 L716.925,959.652 L714.174,955.862 L714.77,953.99 L719.355,950.931 L720.639,949.424 L720.868,947.689 L721.143,946.41 L720.639,944.995 L716.971,942.986 L713.027,942.392 L711.377,942.255 L707.066,943.031 L702.481,942.164 L699.409,940.703 L697.758,940.748 L695.282,941.342 L693.952,941.022 L691.981,939.333 L689.642,938.602 L688.45,937.37 L689.184,934.402 L687.671,934.082 L686.249,934.265 L684.828,935.087 L682.948,935.452 L681.664,934.584 L679.876,936.091 L678.271,937.324 L676.528,937.872 L674.603,937.233 L670.751,938.831 L668.779,938.694 L666.853,939.379 L662.543,940.337 L657.637,943.488 L655.94,943.168 L655.299,941.616 L655.574,939.744 L656.445,938.557 L658.096,938.328 L660.801,935.726 L663.048,933.397 L661.489,930.749 L660.296,929.288 L660.021,928.009 L659.471,926.366 L659.334,924.676 L659.288,923.17 L658.737,921.389 L660.159,920.384 L660.663,918.741 L660.893,916.869 L662.314,916.869 L663.094,915.453 L663.414,914.084 L665.478,912.12 L666.487,911.025 L668.367,911.573 L671.76,899.565 L668.275,887.695 L667.633,886.051 L665.936,885.412 L664.698,883.266 L663.139,882.171 L661.901,880.801 L660.251,879.295 L660.526,877.514 L659.471,872.949 L656.491,869.571 L655.665,868.155 L653.877,866.649 L653.281,864.321 L650.255,862.632 L648.742,859.208 L649.842,857.017 L649.521,855.556 L648.329,854.095 L648.329,851.858 L646.907,850.808 L646.541,848.708 L645.303,846.289 L643.423,847.156 L642.139,846.517 L640.947,845.148 L640.075,846.563 L638.608,846.7 L637.278,848.48 L635.261,846.837 L635.765,845.513 L637.783,843.367 L639.846,841.724 L644.156,837.433 L646.403,835.972 L648.604,833.507 L651.355,831.043 L652.364,829.81 L656.216,822.963 L655.849,821.32 L653.281,817.759 L653.006,815.523 L652.822,812.967 L652.914,810.365 L653.51,807.261 L654.198,804.249 L654.702,802.971 L656.995,800.095 L659.379,799.365 L663.185,798.543 L663.552,796.9 L662.956,795.074 L661.901,794.253 L659.792,794.024 L658.004,792.29 L655.665,790.738 L654.336,790.875 L648.1,790.784 L644.661,789.597 L642.918,787.863 L641.222,785.444 L639.433,784.576 L635.261,783.572 L632.143,782.523 L627.42,783.162 L625.265,783.435 L622.468,783.298 L620.588,782.796 L619.212,781.701 L616.048,780.514 L615.407,778.643 L616.736,777.548 L617.011,776.133 L616.874,774.353 L617.516,772.618 L618.066,769.195 L619.396,765.909 L620.084,762.076 L620.725,758.333 L620.817,754.91 L614.856,738.846 L613.114,737.477 L609.308,736.975 L606.74,735.971 L603.989,733.826 L602.659,731.59 L602.522,728.943 L603.301,727.163 L604.356,725.977 L605.64,724.471 L607.291,724.151 L609.446,724.014 L610.821,723.467 L612.197,722.6 L613.572,722.737 L615.269,722.965 L617.745,722.737 L620.68,719.04 L620.863,716.895 L622.743,715.572 L623.385,714.112 L622.743,712.104 L623.064,710.461 L623.064,708.955 L622.881,707.084 L623.339,702.064 L624.394,699.372 L625.357,697.593 L628.475,696.36 L629.85,695.813 L631.226,695.493 L633.289,694.353 L630.446,692.801 L626.182,690.656 L622.835,673.499 L623.843,664.419 L624.164,645.986 L614.627,646.67 L613.435,646.031 L611.692,646.898 L610.317,647.263 L609.033,647.856 L607.795,648.404 L606.649,649.636 L606.144,651.278 L604.494,651.05 L603.164,651.461 L601.192,651.917 L599.175,653.058 L597.478,654.335 L596.515,655.613 L595.369,656.48 L595.094,655.202 L595.506,653.286 L595.598,650.548 L595.369,648.815 L594.727,647.263 L593.535,646.214 L592.205,645.484 L589.912,646.168 L589.775,643.385 L589.912,641.195 L588.995,638.731 L589.225,636.769 L587.574,635.172 L582.805,637.956 L580.1,638.914 L578.495,637.773 L578.633,636.13 L581.246,632.891 L582.301,630.747 L582.805,629.195 L583.676,625.317 L585.419,623.264 L589.087,620.755 L590.279,619.341 L590.233,618.017 L589.133,615.599 L590.142,614.003 L591.425,611.585 L591.517,609.167 L593.81,604.285 L595.369,601.593 L607.382,581.383 L624.761,551.229 L623.385,549.496 L623.522,547.352 L623.247,544.98 L622.881,542.973 L624.348,541.513 L624.898,540.008 L626.503,537.772 L627.007,535.629 L628.933,533.941 L630.171,531.979 L632.005,530.702 L633.243,529.562 L634.94,528.786 L635.994,527.509 L636.407,526.186 L637.92,525.274 L638.425,523.723 L639.846,523.221 L641.589,521.716 L642.139,519.983 L642.735,518.706 L642.414,516.653 L644.431,516.288 L646.586,515.695 L648.466,515.33 L649.75,513.506 L651.263,511.727 L653.189,511.134 L654.381,510.176 L655.482,509.4 L655.482,507.85 L655.574,505.569 L654.657,504.337 L655.161,502.787 L653.785,500.962 L653.648,499.183 L654.015,497.222 L653.143,494.531 L653.052,492.387 L653.877,491.247 L655.023,490.335 L655.436,488.966 L656.353,487.142 L656.445,485.637 L656.216,483.995 L658.141,483.675 L658.829,481.897 L656.858,480.756 L655.849,479.616 L654.978,476.925 L654.702,474.69 L654.565,472.683 L654.519,471.133 L653.694,470.129 L652.364,468.031 L651.126,466.07 L649.888,463.835 L648.971,461.418 L648.696,459.913 L648.558,456.766 L646.678,455.899 L644.386,455.17 L639.067,455.398 L636.407,455.306 L634.481,455.033 L630.355,453.391 L628.062,452.388 L625.907,450.335 L625.173,447.918 L625.265,444.315 L625.632,442.628 L625.54,440.803 L624.99,435.741 L624.715,434.054 L630.951,430.679 L633.381,429.493 L634.94,428.627 L636.315,427.897 L637.966,427.122 L639.617,426.027 L641.084,425.16 L642.506,423.975 L644.661,421.831 L645.945,420.554 L647.228,419.414 L648.742,418.274 L650.897,417.453 L652.135,417.043 L653.694,416.906 L655.161,417.408 L657.316,418.183 L659.792,418.593 L661.168,418.913 L663.552,419.277 L665.982,419.414 L669.605,418.776 L673.227,419.414 L677.033,419.916 L679.05,419.779 L680.93,418.913 L682.489,419.323 L684.736,419.916 L686.754,420.098 L688.313,419.277 L689.642,418.274 L691.339,418.137 L692.852,418.32 L695.282,418.958 L696.795,419.049 L698.079,419.46 L699.592,419.551 L701.977,420.098 L704.865,420.554 L706.883,420.463 L709.451,420.691 L711.652,420.6 L713.623,420.919 L715.778,420.6 L717.154,419.779 L718.484,418.913 L719.263,417.681 L720.593,418.958 L720.914,420.554 L721.648,421.923 L722.748,423.063 L724.949,423.701 L723.803,421.831 L723.115,420.098 L724.445,420.19 L726.416,420.554 L727.7,420.053 L729.213,420.235 L730.635,420.965 L732.515,421.558 L734.441,421.831 L737.008,421.831 L741.456,422.059 L742.786,421.968 L745.445,421.74 L747.875,421.558 L751.59,421.603 L753.699,421.102 L755.212,420.965 L756.863,420.418 L759.201,420.554 L761.219,420.19 L762.594,420.554 L765.391,420.737 L768.005,420.418 L769.931,420.053 L771.948,419.414 L772.774,418.411 L774.791,417.453 L776.396,417.088 L778.597,417.043 L781.623,417.18 L783.732,416.769 L785.154,416.632 L786.575,416.313 L788.226,415.948 L789.739,415.31 L791.527,413.759 L792.995,411.753 L795.425,411.388 L797.121,411.707 L798.956,412.118 L801.294,412.482 L803.816,412.482 L806.751,412.619 L808.264,412.619 L809.731,412.482 L811.565,412.026 L813.032,411.479 L814.729,410.02 L815.554,407.968 L815.875,405.961 L817.343,406.098 L819.268,406.919 L822.065,407.101 L823.808,407.101 L825.229,406.691 L826.513,406.372 L827.98,406.417 L829.815,406.235 L831.924,406.828 L834.262,406.736 L835.409,404.775 L837.059,406.189 L838.206,408.104 L839.581,410.339 L840.177,412.163 L841.232,413.121 L842.562,415.219 L843.754,417.408 L845.313,416.268 L846.918,415.264 L848.523,414.626 L850.723,414.443 L854.667,413.987 L857.418,413.623 L859.481,413.121 L861.774,412.391 L863.425,411.89 L865.671,410.658 L868.698,409.017 L871.22,407.056 L872.916,405.277 L874.429,404.046 L876.309,402.906 L878.235,402.039 L880.299,401.629 L882.316,401.127 L884.288,400.945 L886.58,401.264 L888.735,401.264 L891.67,401.674 L893.367,401.811 L895.201,401.948 L896.76,401.902 L898.365,401.629 L901.804,401.036 L903.638,401.173 L905.884,401.264 L907.673,401.173 L909.278,400.762 L910.47,400.124 L912.625,400.033 L914.642,400.124 L914.505,402.039 L916.018,400.808 L917.256,399.805 L919.457,399.531 L921.612,399.166 L923.905,398.619 L926.014,399.029 L928.215,399.85 L930.874,400.762 L933.259,401.036 L935.826,401.127 L937.431,400.99 L938.99,400.397 L941.237,400.124 L943.255,399.668 L944.584,399.668 L947.702,399.029 L950.545,397.525 L952.196,397.889 L954.03,399.805 L955.864,400.762 L957.836,400.124 L959.395,399.668 L957.102,398.801 L957.973,396.886 L959.532,396.612 L961.321,396.84 L965.081,395.974 L966.41,395.472 L968.153,394.697 L969.757,393.694 L971.179,392.736 L972.738,391.323 L974.114,391.323 L975.397,391.049 L977.415,390.411 L980.441,389.498 L983.192,388.45 L984.981,387.538 L986.265,386.626 L987.824,385.166 L988.695,383.981 L990.07,382.248 L991.125,380.743 L992.455,379.056 L993.142,377.414 L992.776,375.271 L994.747,374.313 L996.306,373.538 L998.278,372.808 L999.929,372.535 L1001.58,371.76 L1003.41,371.76 L1005.8,372.808 L1007.22,373.538 L1010.02,375.043 L1012.77,376.274 L1014.14,376.958 L1015.47,377.551 L1016.8,378.053 L1019,378.828 L1021.11,379.74 L1022.81,380.697 L1025.33,381.336 L1030.37,382.977 L1031.93,383.388" fill-rule="evenodd" vector-effect="none"/>
   <path d="M1273.21,412.482 L1271.33,412.528 L1269.82,412.346 L1267.94,411.753 L1265.88,410.749 L1267.76,409.883 L1270.46,410.704 L1273.21,412.482" fill-rule="evenodd" vector-effect="none"/>
  </g>
  <g stroke-width="1" font-family="MS Shell Dlg 2" transform="matrix(0.999744,0,0,0.999744,0,0)" stroke-opacity="1" stroke-linecap="square" font-weight="400" font-style="normal" stroke-linejoin="bevel" font-size="34.5833" fill="none" stroke="#000000"/>
  <g stroke-width="1" font-family="MS Shell Dlg 2" transform="matrix(11.808,0,0,11.808,0,0)" stroke-opacity="1" stroke-linecap="square" font-weight="400" font-style="normal" stroke-linejoin="bevel" font-size="34.5833" fill="none" stroke="#000000"/>
  <g stroke-width="1" font-family="MS Shell Dlg 2" transform="matrix(11.808,0,0,11.808,0,0)" stroke-opacity="1" stroke-linecap="square" font-weight="400" font-style="normal" stroke-linejoin="bevel" font-size="34.5833" fill="none" stroke="#000000"/>
  <g stroke-width="1" font-family="MS Shell Dlg 2" transform="matrix(11.808,0,0,11.808,0,0)" stroke-opacity="1" stroke-linecap="square" font-weight="400" font-style="normal" stroke-linejoin="bevel" font-size="34.5833" fill="none" stroke="#000000"/>
  <g stroke-width="1" font-family="MS Shell Dlg 2" transform="matrix(1,0,0,1,0,0)" stroke-opacity="1" stroke-linecap="square" font-weight="400" font-style="normal" stroke-linejoin="bevel" font-size="34.5833" fill="none" stroke="#000000"/>
  <g stroke-width="1" font-family="MS Shell Dlg 2" transform="matrix(11.808,0,0,11.808,0,0)" stroke-opacity="1" stroke-linecap="square" font-weight="400" font-style="normal" stroke-linejoin="bevel" font-size="34.5833" fill="none" stroke="#000000"/>
  <g stroke-width="1" font-family="MS Shell Dlg 2" transform="matrix(11.808,0,0,11.808,0,0)" stroke-opacity="1" stroke-linecap="square" font-weight="400" font-style="normal" stroke-linejoin="bevel" font-size="34.5833" fill="none" stroke="#000000"/>
  <g stroke-width="1" font-family="MS Shell Dlg 2" transform="matrix(11.808,0,0,11.808,0,0)" stroke-opacity="1" stroke-linecap="square" font-weight="400" font-style="normal" stroke-linejoin="bevel" font-size="34.5833" fill="none" stroke="#000000"/>
  <g stroke-width="1" font-family="MS Shell Dlg 2" transform="matrix(11.808,0,0,11.808,0,0)" stroke-opacity="1" stroke-linecap="square" font-weight="400" font-style="normal" stroke-linejoin="bevel" font-size="34.5833" fill="none" stroke="#000000"/>
  <g stroke-width="1" font-family="MS Shell Dlg 2" transform="matrix(1,0,0,1,0,0)" stroke-opacity="1" stroke-linecap="square" font-weight="400" font-style="normal" stroke-linejoin="bevel" font-size="34.5833" fill="none" stroke="#000000"/>
 </g>
</svg>
