<?xml version='1.0' encoding='UTF-8' standalone='no'?>
<svg xmlns="http://www.w3.org/2000/svg" baseProfile="tiny" height="249.936mm" version="1.2" width="249.936mm" viewBox="0 0 2952 2952" xmlns:xlink="http://www.w3.org/1999/xlink">
 <title>Qt SVG Document</title>
 <desc>Generated with Qt</desc>
 <defs/>
 <g stroke-width="1" stroke-linecap="square" fill-rule="evenodd" fill="none" stroke="black" stroke-linejoin="bevel">
  <g stroke-width="1" stroke-linecap="square" font-family="MS Shell Dlg 2" font-weight="400" fill="none" font-style="normal" stroke="#000000" stroke-opacity="1" font-size="34.5833" stroke-linejoin="bevel" transform="matrix(1,0,0,1,0,0)"/>
  <g stroke-width="1" stroke-linecap="square" font-family="MS Shell Dlg 2" font-weight="400" fill="none" font-style="normal" stroke="#000000" stroke-opacity="1" font-size="34.5833" stroke-linejoin="bevel" transform="matrix(1,0,0,1,0,0)"/>
  <g stroke-width="1" stroke-linecap="square" font-family="MS Shell Dlg 2" font-weight="400" fill="none" font-style="normal" stroke="#000000" stroke-opacity="1" font-size="34.5833" stroke-linejoin="bevel" transform="matrix(11.808,0,0,11.808,0,0)"/>
  <g stroke-width="1" stroke-linecap="square" font-family="MS Shell Dlg 2" font-weight="400" fill="none" font-style="normal" stroke="#000000" stroke-opacity="1" font-size="34.5833" stroke-linejoin="bevel" transform="matrix(0.999744,0,0,0.999744,0,0)"/>
  <g font-family="MS Shell Dlg 2" fill-opacity="0" font-weight="400" fill="#ffffff" font-style="normal" stroke="none" font-size="34.5833" transform="matrix(0.999744,0,0,0.999744,0,0)">
   <path d="M-2,-2 L2955,-2 L2955,2955 L-2,2955 L-2,-2" vector-effect="none" fill-rule="evenodd"/>
  </g>
  <g stroke-width="1" stroke-linecap="square" font-family="MS Shell Dlg 2" font-weight="400" fill="none" font-style="normal" stroke="#000000" stroke-opacity="1" font-size="34.5833" stroke-linejoin="bevel" transform="matrix(0.999744,0,0,0.999744,0,0)"/>
  <g stroke-width="1" stroke-linecap="square" font-family="MS Shell Dlg 2" font-weight="400" fill="none" font-style="normal" stroke="#000000" stroke-opacity="1" font-size="34.5833" stroke-linejoin="bevel" transform="matrix(11.808,0,0,11.808,0,0)"/>
  <g stroke-width="1" stroke-linecap="square" font-family="MS Shell Dlg 2" font-weight="400" fill="none" font-style="normal" stroke="#000000" stroke-opacity="1" font-size="34.5833" stroke-linejoin="bevel" transform="matrix(11.808,0,0,11.808,0,0)"/>
  <g stroke-width="1" stroke-linecap="square" font-family="MS Shell Dlg 2" font-weight="400" fill="none" font-style="normal" stroke="#000000" stroke-opacity="1" font-size="34.5833" stroke-linejoin="bevel" transform="matrix(11.808,0,0,11.808,0,0)"/>
  <g stroke-width="1" stroke-linecap="square" font-family="MS Shell Dlg 2" font-weight="400" fill="none" font-style="normal" stroke="#000000" stroke-opacity="1" font-size="34.5833" stroke-linejoin="bevel" transform="matrix(11.808,0,0,11.808,0,0)"/>
  <g stroke-width="1" stroke-linecap="square" font-family="MS Shell Dlg 2" font-weight="400" fill="none" font-style="normal" stroke="#000000" stroke-opacity="1" font-size="34.5833" stroke-linejoin="bevel" transform="matrix(11.808,0,0,11.808,0,0)"/>
  <g font-family="MS Shell Dlg 2" fill-opacity="0" font-weight="400" fill="#ffffff" font-style="normal" stroke="none" font-size="34.5833" transform="matrix(11.808,0,0,11.808,0,0)">
   <path d="M0,0 L250,0 L250,250 L0,250 L0,0" vector-effect="none" fill-rule="evenodd"/>
  </g>
  <g stroke-width="1" stroke-linecap="square" font-family="MS Shell Dlg 2" font-weight="400" fill="none" font-style="normal" stroke="#000000" stroke-opacity="1" font-size="34.5833" stroke-linejoin="bevel" transform="matrix(11.808,0,0,11.808,0,0)"/>
  <g stroke-width="1" stroke-linecap="square" font-family="MS Shell Dlg 2" font-weight="400" fill="none" font-style="normal" stroke="#000000" stroke-opacity="1" font-size="34.5833" stroke-linejoin="bevel" transform="matrix(11.808,0,0,11.808,0,0)"/>
  <g font-family="MS Shell Dlg 2" fill-opacity="0" font-weight="400" fill="#000000" font-style="normal" stroke="none" font-size="34.5833" transform="matrix(0.999744,0,0,0.999744,0,0)">
   <rect y="0" x="0" height="2953" width="2953"/>
  </g>
  <g stroke-width="1" stroke-linecap="square" font-family="MS Shell Dlg 2" font-weight="400" fill="none" font-style="normal" stroke="#000000" stroke-opacity="1" font-size="34.5833" stroke-linejoin="bevel" transform="matrix(0.999744,0,0,0.999744,0,0)"/>
  <g stroke-width="3.07087" stroke-linecap="square" font-family="MS Shell Dlg 2" fill-opacity="1" font-weight="400" fill="#c5c5c5" font-style="normal" stroke="#5c5c5c" stroke-opacity="1" font-size="34.5833" stroke-linejoin="bevel" transform="matrix(0.999744,0,0,0.999744,0,0)">
   <path d="M2221.86,985.07 L2223.05,987.737 L2225.27,992.021 L2227.16,992.99 L2231.58,998.738 L2232.83,1004.56 L2233.93,1007.33 L2234.22,1010.87 L2234.54,1011.99 L2238.24,1017.48 L2239,1022.9 L2237.84,1023.17 L2236.95,1024.29 L2236.3,1026.09 L2237.15,1027.12 L2240.39,1029.78 L2240.39,1030.51 L2239.78,1031.95 L2240.37,1032.66 L2240.24,1033.82 L2239.45,1036.83 L2235.63,1039.86 L2229.97,1042.6 L2228.29,1044.66 L2226.13,1045.52 L2224.96,1047.47 L2223.15,1048.73 L2222.5,1050.79 L2221.52,1052.91 L2221,1053.46 L2219.48,1053.92 L2221.19,1055.7 L2221.82,1057.27 L2222.43,1059.77 L2222.48,1060.44 L2221.43,1063.73 L2221.54,1066.76 L2221.24,1068.02 L2220.27,1069.55 L2216.15,1074.34 L2212.58,1076.48 L2211.81,1077.78 L2206.49,1082.58 L2203.42,1084.56 L2202.23,1086.93 L2198.22,1088.81 L2196.08,1091.59 L2193.78,1092.05 L2191.87,1091.64 L2190.64,1092.23 L2189.59,1093.84 L2187.35,1094.39 L2185.12,1094.68 L2182.97,1095.31 L2182.29,1096.63 L2178.81,1097.57 L2178.23,1097.49 L2177.43,1097.8 L2176.35,1098.56 L2176.32,1100.95 L2175.12,1102.66 L2175.48,1105.47 L2175.84,1106.98 L2174.7,1116.23 L2173.27,1118.16 L2172.89,1119.15 L2170.3,1120.77 L2169.14,1122.21 L2169.1,1122.61 L2170.84,1124.88 L2171.29,1127.03 L2171.95,1128.94 L2172.69,1129.65 L2172.22,1132.4 L2172.52,1136 L2172.37,1138.35 L2172.65,1139.54 L2173.24,1144.33 L2172.39,1148.89 L2170.67,1152.28 L2168.74,1155.01 L2165.87,1156.12 L2164.49,1156.9 L2163.52,1158.45 L2163.06,1161.49 L2161.88,1163.63 L2162.06,1165.51 L2162,1170.21 L2160.98,1171.17 L2158.82,1172.37 L2154.37,1175.3 L2151.58,1177.47 L2149.94,1177.99 L2146.44,1181.61 L2144.63,1184.31 L2142.02,1186.39 L2141.5,1189.62 L2141.16,1190.4 L2139.43,1191.5 L2136.54,1192.65 L2135.79,1193.58 L2131.8,1195.5 L2130.54,1196.45 L2129.79,1196.65 L2128.82,1197.43 L2128.07,1197.81 L2127.94,1199.47 L2125.68,1201.22 L2122.93,1201.66 L2119.96,1201.8 L2118.06,1202.25 L2114.28,1203.85 L2112.67,1204.36 L2112.3,1207.73 L2111.76,1210.3 L2111.66,1211.8 L2112.16,1213.7 L2113.36,1220.1 L2113.08,1221.91 L2113.84,1223.76 L2113.29,1226.12 L2112.6,1227.2 L2112.14,1229.06 L2112.12,1232.85 L2112.48,1238.51 L2112.79,1240.42 L2110.41,1245.06 L2109.93,1247.1 L2110.33,1251.77 L2109.87,1253.4 L2110.45,1256.68 L2112.71,1257.77 L2112.03,1264.61 L2112.1,1266.52 L2111.28,1267.68 L2110.97,1273.41 L2111.09,1274.68 L2109.33,1277.81 L2109.95,1278.61 L2110.4,1281.4 L2110.31,1284.41 L2109.57,1286.36 L2109.55,1287.24 L2108.94,1288.26 L2109.16,1288.77 L2110.52,1289.88 L2107.96,1292.54 L2107.49,1295.92 L2108.77,1298.72 L2109,1300.37 L2108.81,1302.22 L2109.53,1305.65 L2109.91,1309.25 L2109.57,1312.31 L2110.33,1317.2 L2110.25,1321.63 L2110.55,1325.08 L2110.18,1327.16 L2106.96,1333.46 L2107.3,1334.28 L2109.69,1336.94 L2109.38,1338.88 L2110.51,1346.55 L2110.31,1347.55 L2110.39,1348.76 L2109.41,1349.99 L2107.88,1351.23 L2106.94,1352.77 L2107.03,1353.39 L2106.82,1356.31 L2108.15,1360.41 L2108.95,1361.78 L2110.59,1363.28 L2111.08,1365.32 L2110.65,1368.15 L2111.85,1370.08 L2113.19,1371.48 L2116.09,1375.32 L2118.52,1379.82 L2121.55,1382.27 L2127.23,1388.44 L2131.78,1388.75 L2138.57,1390.28 L2141.29,1389.54 L2143.78,1389.76 L2147.23,1390.95 L2153.69,1390.52 L2155.92,1391.16 L2157.88,1391.37 L2161.16,1391.15 L2164.36,1392.99 L2167.35,1394.31 L2170.49,1394.25 L2172.76,1393.71 L2174.86,1392.67 L2180.62,1389.04 L2183.35,1388.88 L2187.57,1387.92 L2190.91,1386.21 L2194.06,1383.62 L2200.55,1388.51 L2205.31,1391.28 L2208.71,1392.53 L2220.47,1394.69 L2227.7,1395.61 L2235.68,1395.76 L2238.31,1397.98 L2242.15,1398.76 L2244.53,1398.65 L2252.63,1397.23 L2257.84,1397.18 L2263.63,1395.81 L2266.05,1395.82 L2270.14,1397.03 L2279.95,1397.61 L2285.15,1395.37 L2288.53,1396.57 L2291.06,1399.44 L2293.92,1403.04 L2302.28,1410.01 L2309.28,1416.29 L2313.64,1418.14 L2318.17,1420.3 L2319.32,1420.58 L2323.39,1424.79 L2326.37,1425.65 L2330.17,1427.24 L2333.88,1428.31 L2340.13,1432.53 L2343.37,1433.68 L2345.9,1435.77 L2346.75,1437.05 L2349.9,1439.51 L2359.13,1445.53 L2362.52,1445.29 L2367.11,1443.42 L2373.68,1445.31 L2378.76,1451.12 L2385.59,1460.79 L2390.18,1463.87 L2392.12,1466.53 L2396.12,1470.5 L2397.72,1471.99 L2401.03,1474.12 L2404.19,1475.65 L2407.58,1476.4 L2411.78,1476.38 L2414.78,1475.68 L2420.7,1471.73 L2424.48,1471.75 L2427.69,1472.32 L2437.01,1472.67 L2440.64,1473.92 L2444.43,1475.64 L2448.19,1478.42 L2449.81,1479.18 L2455.06,1479.88 L2462.03,1481.9 L2466.49,1483.69 L2468.33,1485.1 L2470.82,1487.88 L2474.77,1490.06 L2480.94,1493.12 L2488.3,1499.27 L2490.19,1500.63 L2496.21,1500.77 L2502.4,1500.58 L2510.24,1501.94 L2518.29,1502.76 L2524.66,1501.89 L2527.32,1502.11 L2530.44,1503.87 L2534.66,1505.71 L2536.53,1505.62 L2540.04,1503.48 L2542.96,1503.47 L2546.82,1504.59 L2551.37,1505.1 L2555.54,1506.2 L2560.46,1506.86 L2565.94,1506.78 L2571.22,1507.88 L2578.38,1506.73 L2589.18,1506.61 L2592.71,1507.73 L2596.33,1508.22 L2600.16,1506.35 L2606.57,1504.87 L2607.92,1505.55 L2611.89,1504.71 L2617.43,1504.11 L2620.87,1504.82 L2624.33,1505.85 L2626.89,1504.81 L2630.5,1502.38 L2633.19,1501.7 L2636.49,1500.34 L2639.13,1498.75 L2640.14,1497.63 L2642.78,1496.67 L2646.94,1496.39 L2649.51,1495.01 L2651.49,1493.16 L2653.92,1492.48 L2655.5,1491.8 L2657.46,1491.65 L2659.6,1492.56 L2665.95,1489.56 L2668.79,1487.37 L2674.39,1486.56 L2679.43,1484.1 L2682.85,1482.07 L2693.28,1481.92 L2705.14,1478.96 L2708.53,1479.12 L2717.47,1475.03 L2719.17,1474.81 L2730.06,1492.63 L2740.68,1511 L2752.72,1555.96 L2753.26,1557.26 L2753.39,1560.75 L2754.42,1564.02 L2755,1566.44 L2754.45,1570.33 L2754.46,1572.91 L2756.15,1578.02 L2756.27,1579.66 L2756.52,1580.63 L2758.37,1582.01 L2760.09,1583.72 L2763.51,1586.14 L2765.25,1587.59 L2766.73,1588.34 L2770.63,1590.98 L2775.85,1593.81 L2778.64,1598.6 L2780.28,1600.56 L2779.32,1600.92 L2775.24,1604.51 L2773.98,1607.72 L2773.08,1609.15 L2769.33,1613.22 L2767.02,1613.99 L2764.46,1613.14 L2763.56,1613.08 L2762.87,1613.45 L2762.39,1614.66 L2762.41,1617.06 L2762.7,1620.97 L2763.19,1622.86 L2761.94,1626.55 L2761.13,1627.54 L2760.07,1628.47 L2758.52,1629.41 L2754.86,1631.05 L2745.18,1633.45 L2743.24,1634.54 L2738.88,1637.52 L2731.07,1643.23 L2729.35,1644.12 L2728.33,1645.3 L2727.6,1646.85 L2725.98,1652.51 L2725.24,1654.25 L2724.35,1655.56 L2723.2,1656.37 L2719.36,1657.13 L2717.36,1657.34 L2716.01,1657.83 L2714.49,1659.37 L2713.22,1661.02 L2712.37,1663.08 L2711.75,1664.13 L2711.08,1664.85 L2709.13,1665.63 L2706.69,1667 L2703.73,1669.72 L2702.44,1670.57 L2700.25,1671.67 L2695.64,1672.42 L2693.98,1673.32 L2690.93,1675.65 L2688.65,1679.26 L2684.84,1682.52 L2680.43,1684.53 L2679.35,1684.65 L2677.94,1684.36 L2676.97,1684.35 L2675.77,1684.5 L2674.67,1685.25 L2673.66,1686.64 L2672.53,1688.8 L2671.41,1691.47 L2669.93,1693.34 L2667.68,1695.54 L2666.53,1696.03 L2664.81,1696.15 L2662.61,1695.97 L2660.73,1696.11 L2660.2,1695.92 L2658.92,1694.94 L2656.94,1694.06 L2655.11,1693.53 L2652.94,1694.37 L2651.61,1695.06 L2651.27,1695.8 L2651.08,1703.18 L2650.87,1704.56 L2650.16,1706.35 L2649.55,1707.21 L2646.23,1709.42 L2645.17,1709.87 L2642.13,1710.52 L2641.25,1711.06 L2640.43,1711.99 L2639.31,1713.7 L2638.19,1714.81 L2637,1715.69 L2633.38,1717.47 L2632.72,1718.75 L2631.76,1719.56 L2630.12,1720.22 L2628.36,1720.35 L2626.5,1720.02 L2624.72,1719.47 L2623.24,1719.45 L2622.14,1719.75 L2618.08,1721.47 L2616.92,1721.56 L2615.44,1721.18 L2614.1,1720.44 L2612.77,1719.4 L2611.96,1718.36 L2611.19,1718.14 L2610.17,1718.17 L2608.54,1718.75 L2608,1719.24 L2607.81,1719.96 L2608.44,1721.64 L2608.44,1722.77 L2607.66,1725.98 L2607.15,1726.81 L2606.55,1727.48 L2605.64,1727.75 L2604.55,1727.63 L2603.64,1727.3 L2601.34,1727.17 L2599.77,1727.91 L2599.28,1728.61 L2598.53,1730.8 L2598.24,1732.13 L2597.18,1734.29 L2595.79,1736.2 L2594.48,1737.43 L2593.16,1739.6 L2591.79,1741.29 L2590.21,1741.71 L2588.3,1741.94 L2584.06,1739.84 L2583.48,1739.77 L2582.57,1740.12 L2580.96,1741.91 L2579.64,1742.95 L2578.99,1743.03 L2577.79,1742.79 L2576.84,1743.16 L2574.96,1744.43 L2574.11,1744.75 L2573.27,1744.83 L2572.33,1744.67 L2571.28,1744.34 L2570.46,1743.83 L2569.51,1742.68 L2568.4,1740.92 L2566.92,1738.04 L2565.56,1736.97 L2564.47,1736.72 L2563.2,1736.78 L2560.79,1737.72 L2559.84,1737.9 L2556.72,1737.77 L2555.44,1737.94 L2552.83,1738.9 L2551.55,1739.06 L2550.65,1739 L2549.51,1738.69 L2548.65,1738 L2547.94,1737.15 L2547.53,1736.3 L2546.28,1732.3 L2545.69,1731.36 L2543.99,1730.17 L2542.57,1729.7 L2541.51,1729.6 L2539.84,1730.06 L2536.57,1731.5 L2535.72,1731.75 L2534.96,1731.7 L2533.96,1731.34 L2531.71,1729.43 L2530.05,1728.91 L2528.82,1728.89 L2527.91,1729.48 L2527.25,1730.25 L2526.7,1731.36 L2526.09,1732.02 L2524.02,1733.06 L2521.79,1733.65 L2519.31,1733.61 L2518.26,1733.13 L2516.01,1731.69 L2514.49,1731.63 L2513.35,1731.94 L2512.38,1732.48 L2510.73,1733.84 L2510.02,1734.63 L2508.92,1736.35 L2508.41,1736.67 L2507.66,1736.83 L2506.91,1736.79 L2505.37,1736.27 L2501.68,1733.6 L2499.99,1732.56 L2499.55,1732.48 L2498.17,1732.75 L2496.57,1733.35 L2494.84,1734.29 L2492.99,1735.6 L2491.99,1735.36 L2490.5,1734.35 L2489.42,1733.86 L2487.98,1733.48 L2486.66,1733.27 L2484.23,1733.46 L2482.97,1733.4 L2480.44,1732.36 L2479.39,1732.21 L2476.91,1732.43 L2475.72,1732.88 L2474.94,1733.65 L2473.67,1735.3 L2471.03,1737.93 L2470.43,1738.26 L2467.51,1738.5 L2466.3,1738.87 L2465.23,1739.28 L2463.61,1740.65 L2462.53,1741.33 L2460,1741.83 L2458.96,1741.55 L2457.89,1740.88 L2455.1,1738.49 L2454.25,1737.89 L2453.4,1737.6 L2451.85,1737.73 L2448.98,1739.38 L2447.74,1739.84 L2446.16,1740.02 L2444.33,1739.98 L2441.35,1738.98 L2439.36,1736.92 L2438.63,1736.41 L2437.87,1736.22 L2432.54,1736.45 L2426.12,1738.26 L2422.37,1740.29 L2421.54,1740.55 L2418.67,1740.59 L2416.25,1740.43 L2414.5,1740.83 L2412.84,1742.47 L2411.69,1743.23 L2410.25,1744.02 L2408.06,1744.61 L2406.49,1745.67 L2405.19,1748.27 L2401.67,1749.47 L2400.94,1750.03 L2400.07,1751.07 L2399.48,1751.36 L2398.67,1751.13 L2395.76,1749.31 L2394.58,1748.81 L2393.38,1748.7 L2391.55,1749.25 L2391.22,1749.59 L2389.91,1752.07 L2388.56,1753.18 L2387.96,1753.31 L2386.75,1752.96 L2384.47,1751.22 L2382.44,1750.16 L2381.48,1750.22 L2379.4,1750.93 L2377,1752.77 L2375.79,1754.01 L2372.98,1757.54 L2372.24,1759.96 L2372.13,1761.19 L2371.8,1762.37 L2370.05,1765.74 L2369.35,1766.48 L2368.82,1766.77 L2368.11,1766.9 L2365.01,1766.78 L2360.42,1767.05 L2359.26,1767.53 L2358.83,1767.55 L2356.09,1765.84 L2355.52,1765.77 L2354.22,1766.04 L2353.48,1766.78 L2352.87,1768.24 L2352.35,1769.07 L2350.29,1771.19 L2349.9,1771.48 L2346.82,1772.24 L2343.37,1773.78 L2342.94,1774.14 L2342.05,1776.26 L2341.49,1776.75 L2339.89,1777.67 L2339.63,1778.9 L2340.14,1779.8 L2341.25,1781.01 L2341.6,1781.69 L2341.71,1782.89 L2341.53,1784.04 L2340.92,1784.73 L2339.2,1785.04 L2338.43,1785.56 L2338.05,1786.03 L2336.95,1786.43 L2336.03,1787.29 L2335.69,1788.39 L2335.18,1788.71 L2333.01,1789.42 L2330.1,1789.68 L2329.06,1790.21 L2328.63,1790.64 L2328.19,1791.52 L2326.52,1793.2 L2324.81,1793.96 L2323.88,1795.01 L2323.44,1795.25 L2321.3,1795.76 L2319.94,1796.67 L2319.02,1797.74 L2318.81,1798.2 L2319.04,1798.96 L2320.44,1801.04 L2321.57,1803.62 L2321.58,1804.18 L2321.17,1804.98 L2319.55,1806.88 L2318.33,1807.97 L2317.8,1809.68 L2316.85,1809.99 L2315.45,1809.92 L2314.5,1810.42 L2314.03,1811.17 L2312.98,1814.46 L2312.18,1815.93 L2311.6,1816.45 L2308.24,1817.56 L2306.45,1818.64 L2305.69,1819.23 L2305.14,1819.97 L2304.48,1821.58 L2304.17,1823.54 L2303.4,1824.78 L2300.01,1827.42 L2299.45,1828.25 L2299.38,1828.94 L2299.51,1829.59 L2300.8,1832.07 L2300.89,1832.7 L2300.71,1833.97 L2300.33,1834.49 L2299.18,1835.1 L2297.72,1835.37 L2296.8,1835.73 L2296.41,1836.45 L2296.74,1837.65 L2296.55,1838.31 L2295.75,1838.97 L2294.53,1839.43 L2290.74,1840.23 L2289.69,1839.75 L2288.45,1840.59 L2287.7,1841.38 L2286.76,1843.12 L2286.5,1844.85 L2283.88,1848.66 L2282.66,1849.85 L2280.82,1850.18 L2278.29,1851.41 L2276.02,1853.03 L2275.12,1853.9 L2274.28,1855.08 L2273.91,1855.86 L2273.75,1857.72 L2273.34,1858.11 L2271.63,1859.13 L2269.85,1859.75 L2269.03,1860.55 L2268.32,1860.72 L2266.19,1860.34 L2264.73,1860.36 L2263.64,1860.53 L2262.14,1861.39 L2261.65,1862.08 L2261.42,1862.87 L2261.35,1863.63 L2261.57,1864.51 L2262.24,1865.36 L2263.68,1866.41 L2264.78,1867.45 L2265.17,1868.69 L2265.25,1869.58 L2265.05,1870.61 L2264.5,1871.4 L2263.53,1872.3 L2261.17,1873.6 L2260,1874.83 L2257.98,1875.49 L2257.25,1875.99 L2254.96,1876.43 L2254.16,1876.8 L2253.41,1877.42 L2252.74,1878.98 L2253.3,1880.9 L2252.22,1880.95 L2250.26,1881.22 L2056.82,1861.26 L2004.03,1856.24 L1923.39,1849.48 L1848.99,1845.28 L1830.96,1835.35 L1808.03,1831.52 L1799.92,1832.4 L1763.26,1833.28 L1749.16,1834.07 L1679.17,1868.1 L1674.62,1869.92 L1672.63,1870.37 L1670.4,1870.42 L1668.71,1869.92 L1666.95,1868.56 L1664.6,1865.91 L1661.37,1863.29 L1660.04,1861.32 L1659.46,1858.63 L1657.35,1855.78 L1653.56,1849.45 L1652.53,1848.19 L1650.56,1847.06 L1647.63,1846.5 L1645.69,1846.45 L1643.79,1847.05 L1642.89,1847.34 L1641.74,1847.45 L1640.02,1846.93 L1638.98,1846.14 L1637.59,1844.02 L1636.68,1841.61 L1635.91,1840.36 L1635.32,1838.29 L1634.94,1834.59 L1635.04,1830.49 L1633.48,1825.41 L1633.43,1823.49 L1630.65,1825.12 L1629.96,1825.71 L1623.1,1830.16 L1591.01,1850.82 L1584.06,1857.74 L1561.78,1869.28 L1534.08,1895.09 L1532.25,1897.86 L1488.07,1938.55 L1487.23,1939.16 L1446.9,1980.5 L1418.53,1994.11 L1384.51,2010.64 L1361.2,2021.88 L1353.08,2017.01 L1352.55,2016.48 L1332.78,2013.12 L1297.16,2003.4 L1266.49,1979.1 L1265.69,1979.37 L1228.42,1982.47 L1193.27,1944.42 L1180.06,1930.52 L1168.96,1925.21 L1159.3,1919.22 L1130.59,1925.94 L1051.82,1944.52 L1044.01,1949.7 L1017.89,1971.35 L992.769,1997.45 L959.057,2026.38 L905.208,2036.13 L872.955,2060.66 L841.342,2053.96 L829.322,2059.02 L814.68,2033.8 L780.5,2006 L746.673,2010.7 L630.278,2011.6 L568.716,2016.09 L503.003,2017.41 L449.829,2018.5 L413.642,2019.22 L337.303,2020.77 L294.062,2021.62 L299.818,2016.33 L320.06,2009.04 L331.095,2004.22 L334.596,2000.9 L342.04,1999.31 L359.208,1992.43 L366.923,1988.45 L373.08,1986.24 L377.212,1984.31 L380.295,1982.39 L385.149,1978.16 L387.379,1975.01 L388.821,1966.19 L392.56,1948.68 L393.773,1935.82 L396.266,1926.64 L397.873,1917.59 L399.988,1909.57 L402.136,1899 L403.612,1888.98 L412.753,1863.58 L415.475,1854.07 L416.262,1834.92 L415.59,1828.47 L411.228,1814.12 L408.785,1808.22 L404.882,1800.4 L400.586,1794.32 L394.864,1788.38 L389.502,1781.31 L385.534,1777.18 L370.547,1756.49 L368.038,1754.65 L367.243,1748.08 L364.849,1737.21 L360.766,1723.23 L359.372,1717.23 L358.864,1713.34 L359.307,1709.94 L359.093,1705.3 L355.863,1699.18 L356.035,1688.14 L354.076,1682.04 L351.436,1676.86 L346.287,1668.94 L341.876,1658.38 L338.81,1650.57 L337.269,1632.98 L337.203,1627.57 L337.597,1618.74 L338.269,1610.02 L339.555,1601.42 L340.024,1597.79 L344.762,1591.3 L346.697,1587.61 L347.435,1583.56 L350.518,1560.63 L351.338,1550.63 L349.403,1538.33 L348.3,1534.6 L344.877,1525.54 L344.484,1522.59 L344.877,1513.9 L344.123,1505.14 L342.418,1494.26 L342.024,1487.96 L338.482,1473.66 L335.072,1459.82 L335.99,1452.58 L336.055,1443.85 L340.22,1440.54 L344.582,1438.87 L352.157,1436.54 L366.849,1429.98 L378.557,1423.95 L381.607,1419.75 L385.312,1417.12 L388.887,1408.27 L389.543,1403.91 L389.182,1402.2 L396.135,1398.4 L412.171,1393 L419.058,1386.51 L421.452,1374.38 L426.83,1356.64 L432.93,1344.3 L436.111,1333.22 L438.603,1328.66 L437.521,1324.07 L438.275,1317.18 L440.112,1308.17 L441.981,1296.36 L443.461,1284.1 L442.735,1272.24 L446.047,1250.37 L445.916,1239.02 L443.719,1230.56 L457.133,1223.53 L469.036,1217.36 L474.218,1201.62 L482.679,1187.84 L488.647,1180.63 L493.894,1180.96 L498.715,1180.3 L505.405,1178.27 L518.851,1176.1 L531.87,1175.38 L544.857,1176.07 L548.005,1175.09 L555.154,1169.58 L559.516,1163.54 L562.598,1157.77 L567.911,1149.67 L571.486,1145.36 L581.57,1143.26 L585.44,1138.31 L592.949,1131.32 L605.42,1120.94 L612.56,1112.56 L618.299,1101.02 L620.529,1097.81 L626.629,1090.4 L631.778,1085.25 L636.336,1079.93 L640.009,1074.52 L643.813,1069.6 L647.683,1063.5 L653.324,1053.3 L656.742,1048.64 L659.391,1046.2 L662.637,1044.3 L667.663,1042.24 L673.714,1041.45 L690.57,1039.73 L694.276,1037.74 L698.277,1035.79 L702.966,1034.25 L711.427,1032.68 L717.1,1032.19 L728.054,1026.48 L736.187,1024.45 L744.549,1021.72 L764.783,1020.82 L772.244,1019.1 L776.589,1017.85 L781.082,1014.49 L784.181,1013.32 L790.273,1012.72 L793.027,1011.82 L795.365,1010.42 L797.241,1008.95 L795.093,993.16 L791.601,987.208 L789.945,983.174 L789.584,981.174 L789.469,978.796 L789.617,973.943 L789.01,972.073 L784.189,962.858 L779.91,957.824 L774.745,940.804 L774.876,938.377 L777.27,925.325 L782.484,912.109 L784.337,901.615 L784.911,894.564 L784.025,892.99 L782.14,891.071 L780.566,888.612 L778.286,884.185 L769.195,872.209 L766.087,867.476 L762.266,853.686 L758.593,848.718 L757.216,846.176 L756.642,844.126 L756.495,841.7 L753.461,833.501 L751.657,829.041 L756.117,825.991 L762.709,820.203 L767.423,815.612 L769.801,810.578 L773.318,807.659 L777.606,806.372 L783.32,803.011 L786.657,801.682 L788.83,800.026 L794.249,793.648 L800.685,788.745 L803.694,786.138 L807.35,784.687 L810.13,785.613 L812.474,785.851 L814.729,785.49 L818.992,784.129 L820.968,783.687 L824.182,786.917 L825.1,788.229 L826.602,790.034 L833.036,796.894 L833.905,800.117 L834.037,801.609 L838.656,806.093 L839.751,808.725 L840.636,810.012 L842.801,811.906 L843.85,812.283 L849.589,811.152 L860.379,810.807 L861.525,810.501 L863.994,811.176 L879.727,810.299 L890.361,811.718 L897.871,809.324 L900.486,809.069 L901.691,810.971 L906.397,813.046 L907.779,816.555 L915.44,821.187 L920.4,823.63 L926.057,824.876 L928.55,825.139 L935.83,822.728 L940.192,816.842 L944.242,813.316 L950.702,808.93 L955.22,806.29 L965.861,801.715 L970.237,802.861 L978.979,804.749 L981.107,805.667 L988.584,806.552 L991.986,810.652 L995.667,812.915 L1002.19,810.783 L1006.92,812.127 L1008.03,813.734 L1011.02,813.538 L1016.03,811.996 L1019.57,813.406 L1021.67,815.046 L1023.51,815.538 L1027.74,812.915 L1031.97,812.751 L1042.27,807.307 L1046.96,804.126 L1049.91,798.551 L1053.98,793.927 L1067.96,787.369 L1071.13,785.662 L1077.98,781.989 L1083.64,779.727 L1088.66,777.415 L1093.66,774.119 L1103.1,770.889 L1109.78,765.945 L1118.52,760.46 L1126.61,757.353 L1128.77,757.681 L1131.67,760.386 L1134.76,763.879 L1136.06,769.536 L1145.12,784.859 L1147.22,786.859 L1151.66,789.237 L1154.86,789.352 L1160.52,788.614 L1169.49,788.68 L1184.6,788.024 L1188.64,789.467 L1193.03,790.713 L1212.81,797.657 L1217.32,799.166 L1226.47,799.297 L1245.45,803.921 L1252.72,804.183 L1255.47,805.774 L1267.75,808.102 L1271.31,809.053 L1273.31,810.283 L1275.48,810.398 L1279.31,810.07 L1283.15,810.594 L1291.63,812.644 L1293.5,813.382 L1296.22,814.104 L1299.42,814.284 L1301.43,814.858 L1304.89,815.366 L1309.76,817.202 L1312.45,819.17 L1313.65,821.351 L1313.89,825.122 L1313.83,830.645 L1314.03,835.679 L1315.47,836.653 L1318.91,837.108 L1321.34,837.961 L1322.65,839.582 L1323.27,841.191 L1323.45,842.667 L1324.04,843.274 L1325.23,843.126 L1325.8,844.684 L1326.59,847.406 L1327.87,848.734 L1329.34,853.686 L1329.08,858.064 L1328.64,867.082 L1328.7,871.346 L1328.96,873.543 L1329.77,875.445 L1331.9,877.757 L1333.47,878.544 L1336.26,879.544 L1339.34,880.299 L1342.79,883.25 L1343.93,884.824 L1345.93,895.435 L1346.25,896.876 L1349.07,897.991 L1352.71,898.401 L1358.53,898.499 L1360.79,899.057 L1367.4,901.598 L1372.96,901.352 L1377.5,903.582 L1378.81,904.722 L1379.57,905.124 L1382.66,905.132 L1385.3,905.386 L1389.45,905.23 L1390.31,905.755 L1391.3,907.173 L1392.19,908.903 L1393.37,912.396 L1395.54,914.552 L1398.06,916.462 L1400.85,917.864 L1403.06,918.471 L1404.53,919.447 L1407.59,919.553 L1411.28,920.488 L1416.14,924.645 L1417.8,925.481 L1420.05,925.489 L1422.26,925.12 L1425.13,926.924 L1426.61,927.588 L1429.27,924.956 L1432.09,920.759 L1432.44,917.782 L1434.39,914.692 L1432.61,912.207 L1431.9,910.6 L1434.99,908.682 L1439.72,906.723 L1440.29,903.066 L1443.69,901.041 L1447.49,897.696 L1450.58,895.638 L1455.75,892.334 L1460.73,890.211 L1466.37,888.817 L1468.72,888.095 L1469.9,887.276 L1473.62,889.276 L1480.85,891.9 L1484.7,892.998 L1487.26,892.572 L1489.54,892.326 L1493,893.67 L1504.95,891.949 L1507.1,891.588 L1512.04,893.638 L1516.94,895.392 L1521.11,896.015 L1526.27,899.491 L1529.47,901.131 L1532.22,896.802 L1533.52,895.392 L1536.11,894.507 L1540.18,889.063 L1543.46,884.335 L1544.36,882.93 L1546.19,881.241 L1550.16,879.469 L1553.21,878.27 L1558.44,876.552 L1563.89,874.109 L1566.28,875.125 L1570.08,875.732 L1577.63,875.404 L1582.59,874.797 L1585.9,872.838 L1589.23,866.918 L1591.31,861.835 L1592.44,859.917 L1595.05,855.506 L1598.66,850.637 L1601.38,846.947 L1603.66,844.192 L1606.03,841.339 L1609.84,839.732 L1614.15,839.043 L1622.14,838.83 L1628.86,839.847 L1639.21,837.359 L1645.86,840.494 L1654,844.979 L1665.41,849.357 L1669.79,850.193 L1672.6,851.021 L1677.01,852.833 L1683.88,853.21 L1687.16,852.702 L1691.47,853.653 L1694.71,853.768 L1699.54,856.523 L1704.72,856.588 L1707.31,858.146 L1710.23,859.376 L1712.01,860.671 L1717.47,862.376 L1720.72,869.542 L1724.43,870.936 L1726.92,872.494 L1729.48,875.133 L1733.67,879.577 L1734.41,881.742 L1735.48,882.315 L1738.63,881.151 L1747.09,879.151 L1751.51,876.527 L1761.02,874.166 L1773.86,875.429 L1776.67,874.707 L1778.62,874.871 L1783.91,876.281 L1789,875.314 L1795,872.953 L1802.16,870.05 L1804.89,870.168 L1809.74,872.116 L1818.09,875.921 L1819.41,879.413 L1821.1,882.66 L1823.75,885.201 L1823.37,887.271 L1823.42,889.411 L1826.35,893.478 L1829.16,895.937 L1833.38,897.126 L1840.16,897.782 L1843.39,899.34 L1845.59,902.865 L1847.57,904.39 L1865.87,910.375 L1874.19,918.377 L1878.37,920.705 L1885.27,922.788 L1889.91,923.829 L1893.26,926.428 L1898.35,931.011 L1901.71,936.028 L1903.46,941.341 L1904.07,943.981 L1912.42,950.343 L1915.91,952.844 L1921.67,956.607 L1925.97,960.886 L1929.62,964.887 L1933.35,966.97 L1939.69,966.15 L1945.26,966.334 L1947.63,969.134 L1949.73,971.954 L1952.87,974.73 L1955.26,979.124 L1956.67,982.633 L1957.97,984.338 L1960.43,984.732 L1966,990.176 L1967.67,990.799 L1970.49,990.979 L1972.28,992.225 L1974.1,992.963 L1995.81,991.635 L1998.37,991.11 L1999.88,989.405 L2000.88,988.864 L2007.99,987.7 L2010.85,987.585 L2016.33,990.124 L2025.03,989.617 L2028.99,987.811 L2032.66,987.266 L2034.69,986.288 L2039.14,986.107 L2041.75,985.376 L2044.31,984.187 L2046.96,982.551 L2049.18,980.922 L2050.44,979.646 L2052.49,978.222 L2056.52,976.415 L2058.01,975.459 L2061.98,974.071 L2063.65,972.464 L2067.6,969.687 L2070.89,966.506 L2071.72,965.381 L2073.32,964.45 L2075.4,964.916 L2077.42,966.098 L2083.21,967.125 L2088.84,969.774 L2091.3,970.369 L2093.54,970.4 L2096,971.184 L2100.85,971.901 L2104.16,972.901 L2107.41,975.143 L2109.02,977.021 L2110.52,978.158 L2120.23,979.148 L2128.89,979.156 L2132.24,978.927 L2135.84,978.909 L2138.45,984.469 L2146.78,988.317 L2155.87,993.895 L2159.57,994.24 L2161.36,994.229 L2164.67,995.062 L2171.04,994.406 L2177.98,998.506 L2180.26,994.271 L2184.57,990.421 L2185.84,988.025 L2188.44,984.23 L2189.49,983.052 L2191.64,981.775 L2191.38,979.795 L2190.54,976.879 L2192.02,978.03 L2194.09,978.253 L2195.97,978.79 L2198.38,980.803 L2202.24,980.403 L2206.42,981.187 L2208.72,981.001 L2212.81,979.815 L2214.89,977.945 L2216.63,978.228 L2217.54,977.525 L2219.25,982.978 L2219.93,984.061 L2221.86,985.07" vector-effect="none" fill-rule="evenodd"/>
  </g>
  <g stroke-width="1" stroke-linecap="square" font-family="MS Shell Dlg 2" font-weight="400" fill="none" font-style="normal" stroke="#000000" stroke-opacity="1" font-size="34.5833" stroke-linejoin="bevel" transform="matrix(0.999744,0,0,0.999744,0,0)"/>
  <g stroke-width="1" stroke-linecap="square" font-family="MS Shell Dlg 2" font-weight="400" fill="none" font-style="normal" stroke="#000000" stroke-opacity="1" font-size="34.5833" stroke-linejoin="bevel" transform="matrix(11.808,0,0,11.808,0,0)"/>
  <g stroke-width="1" stroke-linecap="square" font-family="MS Shell Dlg 2" font-weight="400" fill="none" font-style="normal" stroke="#000000" stroke-opacity="1" font-size="34.5833" stroke-linejoin="bevel" transform="matrix(11.808,0,0,11.808,0,0)"/>
  <g stroke-width="1" stroke-linecap="square" font-family="MS Shell Dlg 2" font-weight="400" fill="none" font-style="normal" stroke="#000000" stroke-opacity="1" font-size="34.5833" stroke-linejoin="bevel" transform="matrix(11.808,0,0,11.808,0,0)"/>
  <g stroke-width="1" stroke-linecap="square" font-family="MS Shell Dlg 2" font-weight="400" fill="none" font-style="normal" stroke="#000000" stroke-opacity="1" font-size="34.5833" stroke-linejoin="bevel" transform="matrix(1,0,0,1,0,0)"/>
  <g stroke-width="1" stroke-linecap="square" font-family="MS Shell Dlg 2" font-weight="400" fill="none" font-style="normal" stroke="#000000" stroke-opacity="1" font-size="34.5833" stroke-linejoin="bevel" transform="matrix(11.808,0,0,11.808,0,0)"/>
  <g stroke-width="1" stroke-linecap="square" font-family="MS Shell Dlg 2" font-weight="400" fill="none" font-style="normal" stroke="#000000" stroke-opacity="1" font-size="34.5833" stroke-linejoin="bevel" transform="matrix(11.808,0,0,11.808,0,0)"/>
  <g stroke-width="1" stroke-linecap="square" font-family="MS Shell Dlg 2" font-weight="400" fill="none" font-style="normal" stroke="#000000" stroke-opacity="1" font-size="34.5833" stroke-linejoin="bevel" transform="matrix(11.808,0,0,11.808,0,0)"/>
  <g stroke-width="1" stroke-linecap="square" font-family="MS Shell Dlg 2" font-weight="400" fill="none" font-style="normal" stroke="#000000" stroke-opacity="1" font-size="34.5833" stroke-linejoin="bevel" transform="matrix(11.808,0,0,11.808,0,0)"/>
  <g stroke-width="1" stroke-linecap="square" font-family="MS Shell Dlg 2" font-weight="400" fill="none" font-style="normal" stroke="#000000" stroke-opacity="1" font-size="34.5833" stroke-linejoin="bevel" transform="matrix(1,0,0,1,0,0)"/>
 </g>
</svg>
