<?xml version='1.0' encoding='UTF-8' standalone='no'?>
<svg xmlns="http://www.w3.org/2000/svg" baseProfile="tiny" height="249.936mm" version="1.2" width="249.936mm" viewBox="0 0 2952 2952" xmlns:xlink="http://www.w3.org/1999/xlink">
 <title>Qt SVG Document</title>
 <desc>Generated with Qt</desc>
 <defs/>
 <g stroke-width="1" stroke-linecap="square" fill-rule="evenodd" fill="none" stroke="black" stroke-linejoin="bevel">
  <g stroke-width="1" stroke-linecap="square" font-family="MS Shell Dlg 2" font-weight="400" fill="none" font-style="normal" stroke="#000000" stroke-opacity="1" font-size="34.5833" stroke-linejoin="bevel" transform="matrix(1,0,0,1,0,0)"/>
  <g stroke-width="1" stroke-linecap="square" font-family="MS Shell Dlg 2" font-weight="400" fill="none" font-style="normal" stroke="#000000" stroke-opacity="1" font-size="34.5833" stroke-linejoin="bevel" transform="matrix(1,0,0,1,0,0)"/>
  <g stroke-width="1" stroke-linecap="square" font-family="MS Shell Dlg 2" font-weight="400" fill="none" font-style="normal" stroke="#000000" stroke-opacity="1" font-size="34.5833" stroke-linejoin="bevel" transform="matrix(11.808,0,0,11.808,0,0)"/>
  <g stroke-width="1" stroke-linecap="square" font-family="MS Shell Dlg 2" font-weight="400" fill="none" font-style="normal" stroke="#000000" stroke-opacity="1" font-size="34.5833" stroke-linejoin="bevel" transform="matrix(0.999744,0,0,0.999744,0,0)"/>
  <g font-family="MS Shell Dlg 2" fill-opacity="0" font-weight="400" fill="#ffffff" font-style="normal" stroke="none" font-size="34.5833" transform="matrix(0.999744,0,0,0.999744,0,0)">
   <path d="M-2,-2 L2955,-2 L2955,2955 L-2,2955 L-2,-2" vector-effect="none" fill-rule="evenodd"/>
  </g>
  <g stroke-width="1" stroke-linecap="square" font-family="MS Shell Dlg 2" font-weight="400" fill="none" font-style="normal" stroke="#000000" stroke-opacity="1" font-size="34.5833" stroke-linejoin="bevel" transform="matrix(0.999744,0,0,0.999744,0,0)"/>
  <g stroke-width="1" stroke-linecap="square" font-family="MS Shell Dlg 2" font-weight="400" fill="none" font-style="normal" stroke="#000000" stroke-opacity="1" font-size="34.5833" stroke-linejoin="bevel" transform="matrix(11.808,0,0,11.808,0,0)"/>
  <g stroke-width="1" stroke-linecap="square" font-family="MS Shell Dlg 2" font-weight="400" fill="none" font-style="normal" stroke="#000000" stroke-opacity="1" font-size="34.5833" stroke-linejoin="bevel" transform="matrix(11.808,0,0,11.808,0,0)"/>
  <g stroke-width="1" stroke-linecap="square" font-family="MS Shell Dlg 2" font-weight="400" fill="none" font-style="normal" stroke="#000000" stroke-opacity="1" font-size="34.5833" stroke-linejoin="bevel" transform="matrix(11.808,0,0,11.808,0,0)"/>
  <g stroke-width="1" stroke-linecap="square" font-family="MS Shell Dlg 2" font-weight="400" fill="none" font-style="normal" stroke="#000000" stroke-opacity="1" font-size="34.5833" stroke-linejoin="bevel" transform="matrix(11.808,0,0,11.808,0,0)"/>
  <g stroke-width="1" stroke-linecap="square" font-family="MS Shell Dlg 2" font-weight="400" fill="none" font-style="normal" stroke="#000000" stroke-opacity="1" font-size="34.5833" stroke-linejoin="bevel" transform="matrix(11.808,0,0,11.808,0,0)"/>
  <g font-family="MS Shell Dlg 2" fill-opacity="0" font-weight="400" fill="#ffffff" font-style="normal" stroke="none" font-size="34.5833" transform="matrix(11.808,0,0,11.808,0,0)">
   <path d="M0,0 L250,0 L250,250 L0,250 L0,0" vector-effect="none" fill-rule="evenodd"/>
  </g>
  <g stroke-width="1" stroke-linecap="square" font-family="MS Shell Dlg 2" font-weight="400" fill="none" font-style="normal" stroke="#000000" stroke-opacity="1" font-size="34.5833" stroke-linejoin="bevel" transform="matrix(11.808,0,0,11.808,0,0)"/>
  <g stroke-width="1" stroke-linecap="square" font-family="MS Shell Dlg 2" font-weight="400" fill="none" font-style="normal" stroke="#000000" stroke-opacity="1" font-size="34.5833" stroke-linejoin="bevel" transform="matrix(11.808,0,0,11.808,0,0)"/>
  <g font-family="MS Shell Dlg 2" fill-opacity="0" font-weight="400" fill="#000000" font-style="normal" stroke="none" font-size="34.5833" transform="matrix(0.999744,0,0,0.999744,0,0)">
   <rect y="0" x="0" height="2953" width="2953"/>
  </g>
  <g stroke-width="1" stroke-linecap="square" font-family="MS Shell Dlg 2" font-weight="400" fill="none" font-style="normal" stroke="#000000" stroke-opacity="1" font-size="34.5833" stroke-linejoin="bevel" transform="matrix(0.999744,0,0,0.999744,0,0)"/>
  <g stroke-width="3.07087" stroke-linecap="square" font-family="MS Shell Dlg 2" fill-opacity="1" font-weight="400" fill="#c5c5c5" font-style="normal" stroke="#5c5c5c" stroke-opacity="1" font-size="34.5833" stroke-linejoin="bevel" transform="matrix(0.999744,0,0,0.999744,0,0)">
   <path d="M705.208,350.145 L705.054,347.448 L707.854,317.463 L707.106,313.991 L704.702,311.961 L701.177,309.664 L698.613,306.299 L692.523,295.081 L691.348,289.686 L690.6,284.184 L689.844,282.456 L696.316,282.581 L703.52,283.856 L710.159,286.121 L713.596,287.255 L737.528,285.813 L745.22,284.558 L750.989,286.881 L752.699,287.229 L754.381,287.095 L760.284,284.851 L765.279,283.382 L770.861,282.234 L776.176,281.513 L781.838,281.326 L786.299,281.219 L790.038,281.246 L792.789,282.287 L794.979,284.558 L796.689,287.095 L797.971,288.083 L800.989,287.709 L806.838,286.24 L810.07,291.769 L811.005,292.944 L813.449,292.811 L821.649,292.036 L822.517,292.731 L823.278,294.226 L824.119,296.71 L825.441,299.996 L830.075,303.481 L837.5,308.382 L843.363,312.335 L844.071,312.562 L845.727,312.362 L852.363,311.964 L854.821,312.157 L858.814,312.108 L863.402,310.586 L866.954,309.784 L868.663,309.825 L870.026,310.452 L873.164,312.202 L875.354,312.976 L877.745,313.07 L880.573,312.728 L883.841,312.285 L885.891,311.851 L887.667,310.863 L890.111,309.661 L892.141,309.3 L894.988,309.366 L903.181,311.58 L914.002,314.936 L919.021,316.106 L921.688,316.977 L923.747,318.058 L925.781,319.116 L927.758,319.169 L930.028,319.623 L932.779,320.425 L935.33,321.4 L939.256,321.547 L944.878,321.426 L947.31,320.981 L952.023,319.61 L959.421,317.487 L961.491,315.831 L962.693,313.988 L963.441,312.399 L965.818,308.138 L967.518,304.578 L968.315,303.024 L968.97,302.423 L970.519,302.116 L972.295,301.555 L974.672,300.566 L977.37,299.044 L984.448,293.098 L990.142,290.722 L991.535,289.156 L994.09,285.836 L996.133,282.164 L996.788,278.318 L997.596,273.008 L1001.44,263.875 L1002.7,261.417 L1004.4,259.675 L1008.51,256.55 L1011.62,255.161 L1016.05,253.945 L1020.39,252.476 L1031.32,244.303 L1037.86,237.853 L1040.38,236.491 L1043.19,235.449 L1045.75,235.035 L1048.67,235.149 L1052.92,235.636 L1062.61,237.588 L1068.98,239.062 L1070.3,239.082 L1071.72,238.494 L1072.57,237.312 L1073.04,235.302 L1073.38,233.299 L1074.35,231.016 L1076.27,228.365 L1080.17,223.41 L1081.93,220.753 L1083.81,217.334 L1085.42,214.242 L1086.19,211.558 L1087.29,207.572 L1089.92,206.316 L1093.44,205.041 L1101.74,204.166 L1105.29,205.909 L1111.28,207.658 L1116.14,208.273 L1121.54,208.05 L1124.12,208.193 L1128.04,211.438 L1131.17,211.491 L1137.08,212.346 L1139.19,213.254 L1142.07,215.164 L1145.61,216.78 L1148.64,217.18 L1151.27,216.299 L1157.03,216.593 L1163.25,216.646 L1168.81,215.309 L1177.25,214.496 L1177.02,216.326 L1177.21,218.516 L1177.6,221.187 L1178.84,223.871 L1182.72,229.28 L1185.61,231.122 L1186.96,233.62 L1189.56,237.185 L1192.02,240.951 L1194.48,242.527 L1197.77,247.816 L1198.88,249.485 L1200.65,251.515 L1202.77,253.531 L1206.88,255.121 L1213.72,257.618 L1216.31,261.245 L1220.49,265.778 L1227.11,270.478 L1229.42,273.837 L1231.41,279.019 L1233.22,282.731 L1235.64,285.723 L1238.31,287.699 L1243.41,287.299 L1249.04,286.694 L1269.21,291.629 L1276.24,290.854 L1318.64,299.147 L1324.39,317.604 L1334.5,327.019 L1340.28,346.036 L1353.21,342.951 L1361.42,341.722 L1371.7,342.83 L1385.03,345.715 L1401.04,350.83 L1402.79,358.415 L1426.03,373.82 L1449.47,388.557 L1460.92,389.258 L1475.29,393.104 L1487.11,407.62 L1499.29,416.127 L1516.69,430.23 L1523.3,434.57 L1531.76,435.919 L1559.06,437.868 L1573.62,432.794 L1594.24,425.182 L1602.77,425.716 L1609.21,423.98 L1618.85,441.327 L1634.42,478.186 L1656.09,503.607 L1669.73,522.376 L1663.14,567.595 L1665.54,591.313 L1663.35,602.05 L1670.7,622.242 L1674.33,630.308 L1677.08,643.85 L1673.64,663.561 L1681.76,731.843 L1679.63,735.69 L1678.9,739.643 L1675.78,747.809 L1674.98,750.673 L1675.11,756.716 L1674.52,758.76 L1673.95,768.322 L1671.43,778.271 L1672,784.427 L1678.7,803.404 L1682.99,811.484 L1685.18,822.461 L1687.01,848.115 L1684.14,866.318 L1674.39,889.528 L1684.32,888.707 L1692.9,896.673 L1699.62,900.913 L1715.22,917.78 L1723.98,930.28 L1728.65,938.426 L1732.02,948.335 L1741.3,959.74 L1748.59,966.684 L1759.22,981.508 L1768.33,999.809 L1774.82,1017.61 L1772.86,1033.73 L1766.56,1047.92 L1783.38,1073.64 L1796.93,1088.01 L1808.84,1099.02 L1822.73,1118.49 L1824.46,1124.04 L1825.18,1133.39 L1837.52,1144.77 L1854.83,1154.3 L1870.3,1163.84 L1884.21,1175.72 L1889.29,1179.14 L1896.76,1182.32 L1904.72,1186.42 L1925.74,1192.14 L1937.82,1194.99 L1950,1198.31 L1955.14,1200.56 L1960.2,1207.17 L1967.73,1220.31 L1970.08,1226.97 L1973.5,1239.31 L1975.32,1243.87 L1977.72,1246.76 L1981.01,1249.96 L1984.72,1254.74 L1989.87,1265.61 L1994.03,1273.77 L1997,1280.49 L2001.21,1288.29 L2004.34,1297.08 L2005.72,1302.39 L2008.16,1319.59 L2009.22,1321.04 L2018.81,1322.58 L2023.3,1323.95 L2026.77,1326.46 L2042.05,1331.69 L2047.63,1333.8 L2057.06,1337.78 L2064.49,1357.82 L2068.42,1366.11 L2069.75,1369.79 L2071.99,1374.14 L2078.61,1380.36 L2082.25,1390.33 L2087.27,1404.56 L2090.39,1414.58 L2090.5,1419.17 L2089.48,1423.77 L2086.36,1431.48 L2084.45,1438.54 L2083.61,1446.31 L2080.75,1451.78 L2076.29,1462.68 L2076.5,1468.37 L2077.13,1475.9 L2076.84,1488.31 L2083.01,1525.14 L2084.56,1531.2 L2104.15,1555.19 L2096.36,1577.16 L2116.15,1601.3 L2121.4,1615.75 L2100.09,1648.73 L2101.73,1662.24 L2102.83,1669.15 L2103.76,1671.88 L2112.77,1679.09 L2114.15,1676.5 L2116.77,1664.08 L2122.65,1649.98 L2124.9,1644.37 L2146.95,1618.15 L2159.45,1613.13 L2168.83,1610.33 L2194.87,1590.72 L2201.07,1594.25 L2227.4,1604.02 L2249.89,1611.72 L2265.57,1614.23 L2293.91,1621.17 L2319.52,1630.96 L2365.41,1649.7 L2381.67,1657.4 L2387.52,1659.64 L2408.52,1671.61 L2451.81,1696.13 L2454.46,1697.04 L2459.05,1697.2 L2465.54,1697.41 L2471.44,1696.05 L2477.43,1693.54 L2486.61,1688.38 L2493.02,1687.53 L2499.81,1687.4 L2512.39,1686.41 L2526.52,1681.09 L2534.88,1676.87 L2551.28,1677.35 L2554.43,1677.97 L2560.97,1679.76 L2565.73,1680.18 L2574.81,1678.98 L2581.97,1677.17 L2589.86,1673.59 L2599.37,1669.82 L2612.16,1664.11 L2627.1,1656.61 L2661.13,1651.16 L2663.68,1651.11 L2685.96,1652.61 L2775.33,1670.53 L2822.31,1677.93 L2844.8,1691.64 L2824.48,1710.38 L2810.96,1723.44 L2806.53,1728.72 L2803.7,1734.28 L2802.36,1739.84 L2802.31,1751.75 L2798.78,1764.41 L2797.45,1770.71 L2796.7,1777.76 L2798.41,1783.27 L2797.77,1785.13 L2795.1,1789.14 L2783.19,1805.27 L2776.83,1812.59 L2769.67,1819.38 L2762.22,1832.28 L2760.9,1837.14 L2756.12,1847.5 L2753.07,1855.59 L2742.76,1865.08 L2740.09,1868.65 L2735.07,1879.61 L2728.71,1891.68 L2725.67,1895.71 L2720.62,1906.26 L2715.84,1918.31 L2714.1,1930.25 L2712.31,1933.37 L2702.24,1942.35 L2692.92,1946.83 L2682.33,1949.73 L2676.34,1954.46 L2672.25,1958.99 L2663.33,1967.02 L2654.92,1977.59 L2638.76,1998.26 L2628.45,2009.88 L2617.47,2023.01 L2611.99,2031.34 L2604.46,2056.07 L2598.83,2067.69 L2593.99,2079.86 L2583.52,2102.69 L2585.71,2110.71 L2587.77,2116.58 L2596.66,2128.31 L2596.93,2139.53 L2600.99,2142.78 L2604.38,2146.51 L2607.13,2175.53 L2596.61,2191.66 L2581.44,2205.18 L2574.31,2218.16 L2566.21,2236.05 L2563.65,2234.62 L2559.92,2233.07 L2554.46,2233.82 L2548.29,2235.32 L2534.19,2241.17 L2526.5,2244.53 L2519.26,2246.22 L2502.27,2248.07 L2481.4,2257.9 L2474.39,2259.02 L2459.2,2260.02 L2450.06,2260.33 L2437.74,2258.52 L2432.32,2258.25 L2428.07,2259.48 L2424.44,2262.07 L2412.85,2272.27 L2410.93,2268.48 L2407.64,2265.59 L2398.85,2262.76 L2392.82,2261.96 L2380.16,2261.83 L2365.98,2262.09 L2355.93,2261.69 L2348.05,2262.68 L2343.91,2258.81 L2336.92,2254.83 L2327.51,2250.74 L2317.74,2248.34 L2312.02,2248.1 L2308.23,2249.54 L2306.2,2251.49 L2304.2,2254.08 L2302.09,2250.18 L2298.69,2246.98 L2294.66,2244.73 L2288.76,2243.64 L2280.69,2242.6 L2266.86,2241.88 L2251.69,2236.72 L2247.17,2236.48 L2243.51,2238.4 L2237.53,2242.57 L2230.32,2249.59 L2225.32,2251.76 L2217.37,2250.53 L2209.01,2249.84 L2202.38,2250.05 L2197.52,2252.61 L2192.98,2256.51 L2189.03,2259.08 L2184.17,2260.57 L2174.47,2260.73 L2166.96,2261.27 L2162.29,2262.28 L2152.22,2267.46 L2148.51,2268.5 L2144.5,2270.05 L2137.18,2273.98 L2129.36,2277.59 L2125.5,2279.28 L2117.91,2283.77 L2101.9,2290.29 L2092.75,2292.76 L2085.01,2292.92 L2076.89,2292.49 L2066.87,2292.52 L2057.82,2293.66 L2051.39,2295.68 L2044.85,2300.17 L2038.07,2306.5 L2030.8,2312.83 L2024.1,2317.88 L2013.07,2325.06 L2003.77,2329.33 L1993.03,2332.67 L1968.3,2336.71 L1957.86,2338.58 L1948.22,2340.71 L1933.59,2345.33 L1924.45,2346.3 L1907.1,2347.12 L1901.58,2345.27 L1895.51,2343.76 L1889.52,2343.38 L1883.35,2346.35 L1877.72,2348.46 L1874.67,2352.14 L1862.23,2357.11 L1845.75,2374.82 L1818.94,2402.19 L1795.25,2411.48 L1781.31,2415.65 L1776.72,2413.25 L1764.96,2409.45 L1755.96,2409.96 L1713.23,2428.34 L1705.48,2433.3 L1685.08,2454.7 L1680.08,2462.31 L1656.63,2475.42 L1643.88,2471.27 L1631.63,2466.77 L1622.2,2465.81 L1608.37,2471.69 L1593.89,2478.58 L1585.32,2479.96 L1578.32,2479.51 L1570.63,2475.64 L1551.29,2475.56 L1536.87,2474.73 L1529.2,2472.46 L1522.87,2468.93 L1517.72,2467.17 L1513.87,2466.88 L1507.19,2470.35 L1497.95,2468.85 L1490.29,2468.83 L1483.42,2470.27 L1476.91,2472.38 L1463.39,2474.65 L1456.26,2475.16 L1435.64,2473.96 L1430.99,2474.76 L1426.83,2477.37 L1420.58,2483.25 L1412.38,2485.81 L1400.3,2491.34 L1395.87,2496.74 L1393.04,2500.85 L1387.56,2505.55 L1384.32,2507.78 L1367.72,2508.65 L1358.9,2511.67 L1341.46,2511.99 L1322.05,2509.45 L1294.67,2519.31 L1287.72,2524.28 L1275.6,2528.79 L1266.33,2534.45 L1231.47,2544.52 L1225.12,2546.82 L1199.06,2561 L1188.25,2562.95 L1178.44,2564.37 L1166.13,2572.03 L1154.55,2574.45 L1155.65,2573.46 L1155.35,2571.88 L1154.5,2570.66 L1152.76,2568.15 L1146.35,2552.76 L1125.28,2501.48 L1103.86,2445.84 L1091.22,2416.7 L1084.93,2394.03 L1078.3,2370.55 L1076.75,2366.92 L1068.74,2354.1 L1057.26,2339.37 L1042.37,2321.02 L1034.91,2308.26 L1029.77,2298.03 L1021.11,2268.99 L1017.01,2254.43 L1016.21,2252.64 L1014.13,2250.31 L1009.36,2246.03 L1006.36,2243.16 L1004.14,2240.06 L1001.63,2236.27 L996.113,2227.72 L993.255,2224.04 L989.356,2213.02 L987.7,2210.74 L982.972,2205.45 L971.714,2194.44 L960.122,2183.89 L956.276,2180.34 L951.228,2176.68 L946.581,2173.93 L942.574,2172.81 L933.387,2171.14 L929.22,2170.16 L928.472,2169.79 L927.417,2167.85 L925.08,2163.11 L913.622,2136.72 L898.397,2105.84 L885.964,2080.18 L872.309,2051.21 L861.946,2024.26 L858.34,1992.69 L857.112,1985.64 L854.12,1971.19 L854.04,1968.97 L854.347,1966.95 L855.83,1964.44 L859.195,1960.02 L864.033,1954.81 L867.635,1950.92 L868.997,1948.27 L871.214,1943.3 L872.843,1938.6 L874.019,1934.6 L875.327,1930.14 L877.17,1905.46 L875.862,1893.06 L875.167,1877.84 L874.419,1872.47 L873.324,1869.24 L868.65,1863.9 L849.526,1845.17 L840.151,1836.6 L824.526,1827.79 L805.509,1818.22 L788.95,1813.28 L774.099,1808.96 L763.897,1806.02 L759.303,1804.47 L755.937,1802.12 L750.008,1795.07 L747.497,1792.02 L742.315,1788.5 L732.113,1782.67 L720.36,1776.16 L711.226,1771.51 L701.824,1768.36 L686.066,1763.18 L672.978,1759.17 L665.713,1757.41 L663.523,1757.83 L637.669,1764.62 L625.756,1768.2 L608.609,1772.9 L600.116,1776.48 L584.624,1783.9 L559.357,1795.92 L547.392,1801.69 L528.375,1811.2 L515.714,1817.82 L479.443,1836.36 L457.008,1847.79 L433.877,1858.74 L430.779,1859.52 L423.541,1860.77 L409.519,1862.56 L396.805,1864.03 L387.537,1865.07 L374.93,1866.78 L369.054,1868.14 L361.309,1871.11 L351.96,1875.52 L345.336,1879.2 L337.537,1884.6 L329.231,1890.34 L319.322,1897.07 L313.766,1900.92 L304.845,1906.93 L297.42,1911.71 L288.205,1918.38 L280.994,1923.91 L272.848,1930.22 L266.01,1936.25 L258.986,1940.29 L248.729,1945.47 L233.345,1952.46 L231.582,1952.46 L224.317,1952.04 L210.535,1950.92 L207.116,1950.92 L197.982,1951.61 L178.284,1953.95 L178.284,1947.32 L178.177,1934.5 L179.031,1923.5 L180.794,1911.53 L184.373,1899.3 L188.433,1884.5 L191.798,1868.9 L191.798,1862.6 L192.333,1853.57 L193.294,1845.61 L194.683,1838.24 L195.751,1835.52 L197.568,1831.89 L200.933,1828.2 L203.604,1824.99 L206.649,1821.1 L211.884,1815.27 L215.516,1811.43 L220.591,1804.8 L224.437,1799.51 L225.505,1796.42 L226.52,1791.13 L227.482,1785.41 L229.245,1781.41 L231.061,1777.51 L235.655,1770.45 L240.569,1764.1 L245.698,1758.17 L259.106,1749.19 L265.356,1745.29 L269.148,1742.94 L275.078,1737.6 L280.687,1731.51 L281.915,1729.7 L282.61,1726.44 L282.984,1720.83 L283.144,1711.69 L282.503,1703.57 L280.847,1692.09 L279.138,1680.71 L276.253,1669.28 L273.582,1658.17 L270.324,1643.85 L270.217,1642.52 L270.858,1639.58 L272.247,1635.47 L273.529,1631.73 L273.956,1627.83 L273.475,1622.33 L273.048,1619.55 L272.941,1617.99 L273.195,1617.1 L273.689,1616.66 L275.078,1616.64 L276.427,1616.34 L281.488,1614.85 L293.694,1611.08 L296.245,1610.24 L298.168,1609.21 L300.064,1607.76 L301.053,1606.58 L302.829,1604.34 L304.405,1601.67 L305.513,1599.3 L307.383,1594.88 L309.199,1590.05 L310.855,1586.36 L313.926,1581.69 L317.772,1574.98 L321.859,1564.35 L324.69,1558.82 L327.121,1553.78 L328.563,1549.64 L330.379,1544.29 L333.077,1538.98 L335.294,1535.03 L336.362,1531.77 L337.457,1526.43 L338.899,1520.66 L340.609,1514.89 L342.345,1509.41 L343.066,1503.64 L343.574,1495.95 L343.6,1490.5 L343.493,1477.63 L343.734,1470.98 L344.081,1466.44 L344.722,1462.94 L345.523,1460.4 L346.992,1458.34 L349.77,1455.19 L353.216,1451.96 L357.169,1448.01 L359.305,1445.28 L361.362,1442.16 L364.033,1437.62 L365.448,1434.49 L369.188,1427.95 L373.595,1420.6 L376.399,1416.49 L381.794,1408.8 L384.813,1404.55 L388.205,1399.69 L391.917,1395.1 L396.725,1389.94 L400.651,1386.02 L403.509,1384.41 L407.382,1382.86 L411.922,1381.07 L423.034,1376.93 L431.554,1374.26 L440.368,1371.25 L441.89,1370.47 L444.428,1368.41 L448.033,1365.21 L455.111,1358.59 L461.148,1353 L466.489,1348.04 L472.846,1343.63 L479.737,1339.17 L483.797,1337.14 L487.109,1336.34 L492.344,1335.99 L496.778,1336.07 L499.742,1336.02 L502.093,1335.48 L505.084,1334.04 L508.049,1332.22 L510.212,1330.73 L516.382,1325.57 L522.312,1320.71 L525.41,1318.49 L533.877,1314.49 L541.943,1310.75 L545.709,1309.04 L555.057,1303.94 L563.257,1299.5 L570.869,1295.93 L579.843,1290.66 L589.005,1284.81 L594.159,1281.42 L596.136,1280.06 L605.404,1275.23 L615.527,1270.31 L625.222,1267.83 L638.737,1264.65 L648.913,1262.11 L659.303,1259.31 L662.909,1257.44 L668.838,1253.32 L673.352,1250.49 L675.062,1249.83 L678,1247.88 L680.35,1245.18 L682.514,1240.8 L684.864,1235.72 L689.031,1226.91 L691.568,1221.57 L694.8,1214.25 L696.776,1211.02 L700.302,1206.5 L703.827,1202.28 L708.074,1196.57 L718.144,1184.71 L720.628,1178.86 L721.963,1177.18 L723.726,1176 L726.343,1174.83 L732.727,1172.34 L733.795,1171.03 L735.905,1167.93 L740.953,1158.56 L743.17,1153.11 L743.25,1149.91 L741.755,1146.22 L738.523,1142.37 L734.169,1135.54 L729.094,1126.7 L727.438,1123.04 L726.103,1119.35 L722.684,1108.91 L719.479,1097.98 L717.316,1090.32 L715.847,1084.31 L715.499,1080.17 L715.393,1073.89 L715.767,1065.83 L716.034,1061.77 L716.114,1060.82 L715.833,1060.18 L714.872,1059.54 L713.256,1059.13 L710.264,1058.68 L708.395,1058.07 L704.121,1055.74 L699.607,1052.97 L696.536,1050.96 L690.286,1047.89 L682.727,1044.36 L676.37,1041.43 L673.726,1040.76 L669.426,1040.28 L658.128,1039.4 L639.405,1037.61 L631.205,1036.81 L618.946,1035.39 L607.648,1034 L599.768,1032.8 L594.133,1031.6 L588.07,1028.63 L584.09,1026.02 L579.603,1022.52 L577.573,1020.3 L571.029,1016.08 L562.723,1011.3 L559.838,1009.46 L552.36,1006.04 L542.851,1001.9 L536.761,996.582 L531.126,991.4 L528.481,988.409 L527.306,987.127 L520.469,981.758 L513.337,976.256 L509.999,973.372 L508.263,970.247 L505.512,964.851 L503.989,960.818 L503.669,958.788 L503.161,953.26 L502.146,941.134 L501.211,938.73 L498.407,935.444 L495.335,932.961 L491.756,931.278 L488.578,929.462 L485.854,927.645 L483.85,924.868 L476.505,911.807 L475.116,909.991 L472.178,906.919 L469.401,904.675 L467.371,902.405 L464.753,898.212 L461.174,892.149 L458.129,886.059 L456.527,880.477 L455.031,877.085 L453.776,875.135 L451.933,874.547 L449.289,874.093 L445.015,873.719 L443.947,873.346 L442.451,872.197 L441.623,871.129 L441.062,869.767 L440.528,867.63 L440.608,864.959 L441.116,861.727 L441.97,859.136 L441.944,857.694 L441.463,856.225 L440.394,854.248 L437.75,849.548 L431.287,836.834 L429.39,830.237 L428.616,826.498 L428.135,824.174 L426.052,820.007 L422.873,814.318 L420.176,809.965 L416.116,803.902 L411.495,796.45 L410.507,794.126 L410.587,790.2 L411.041,784.938 L412.537,775.697 L414.3,771.049 L418.386,762.556 L421.511,756.413 L423.568,752.994 L425.758,749.148 L427.467,744.714 L428.803,740.093 L429.15,737.048 L429.123,732.027 L428.936,727.807 L428.429,721.183 L427.013,710.419 L426.158,703.608 L426.185,700.19 L426.532,696.477 L427.681,690.681 L429.07,685.633 L430.619,681.814 L433.317,679.25 L436.949,676.846 L441.329,674.816 L444.347,674.122 L448.968,673.213 L454.444,672.813 L461.949,672.439 L469.107,672.279 L475.624,672.786 L482.702,673.374 L487.109,673.48 L489.593,673.16 L491.756,671.798 L494.374,669.047 L496.511,666.055 L499.769,660.767 L501.799,658.283 L507.595,653.769 L513.925,649.148 L517.744,645.97 L518.439,644.367 L518.973,640.975 L519.961,632.963 L520.843,631.868 L522.499,630.959 L526.184,629.303 L532.061,625.831 L538.604,620.596 L542.771,616.723 L548.139,612.236 L552.974,608.123 L555.591,604.357 L556.606,602.434 L556.767,601.446 L557.568,599.843 L559.811,597.493 L562.536,593.86 L562.856,592.605 L562.669,591.323 L562.429,590.148 L563.15,588.679 L565.527,584.939 L568.038,580.613 L570.201,577.808 L572.285,575.725 L574.234,574.63 L576.131,574.389 L579.176,574.443 L583.182,574.737 L586.334,575.004 L589.699,575.217 L592.904,575.03 L599.929,574.336 L603.641,573.321 L606.419,571.531 L608.556,570.356 L614.352,567.792 L617.851,565.869 L620.575,563.198 L623.299,560.18 L625.276,558.284 L627.92,554.624 L629.416,553.503 L630.217,553.155 L630.991,552.221 L631.232,551.045 L630.911,548.268 L630.03,544.689 L629.816,542.792 L630.163,541.457 L631.365,538.412 L633.395,534.833 L634.838,533.497 L636.333,532.589 L637.482,532.055 L639.779,530.239 L641.248,528.743 L641.702,527.381 L641.809,525.672 L641.809,523.909 L642.076,523.375 L642.744,523.001 L643.758,522.867 L644.907,522.841 L646.189,522.386 L648.459,520.891 L649.661,519.128 L651.878,516.991 L654.736,514.721 L658.315,512.451 L661.68,510.207 L664.939,508.337 L664.164,506.922 L662.642,504.037 L662.001,501.74 L661.627,498.749 L661.814,496.238 L662.321,493.861 L663.523,490.522 L664.592,487.584 L665.927,485.768 L666.969,484.646 L668.705,483.07 L669.773,480.907 L670.12,479.304 L670.414,477.221 L670.842,476.153 L671.563,474.978 L671.67,474.016 L671.189,472.627 L670.281,470.891 L670.067,470.117 L670.307,469.235 L671.536,466.885 L672.257,465.149 L672.311,464.134 L671.91,461.73 L671.803,459.727 L672.364,458.178 L673.673,456.415 L674.928,454.732 L676.05,452.515 L676.397,450.485 L676.397,447.975 L675.649,444.155 L675.676,441.244 L676.237,437.692 L677.065,435.368 L678.213,433.285 L679.576,431.629 L682.193,428.53 L684.917,425.619 L687.375,423.349 L688.176,422.013 L688.523,420.491 L688.683,419.129 L690.046,416.378 L690.419,415.042 L691.995,413.333 L694.266,411.703 L696.856,410.528 L698.699,409.754 L701.397,408.792 L703.026,407.857 L704.522,406.014 L705.163,404.145 L705.323,401.928 L705.029,397.28 L704.442,392.927 L703.56,390.683 L702.198,388.066 L701.424,386.49 L701.263,385.315 L701.691,383.792 L702.465,380.774 L702.492,371.506 L702.385,366.084 L702.813,363.68 L703.827,360.181 L704.602,356.923 L705.208,350.145" vector-effect="none" fill-rule="evenodd"/>
  </g>
  <g stroke-width="1" stroke-linecap="square" font-family="MS Shell Dlg 2" font-weight="400" fill="none" font-style="normal" stroke="#000000" stroke-opacity="1" font-size="34.5833" stroke-linejoin="bevel" transform="matrix(0.999744,0,0,0.999744,0,0)"/>
  <g stroke-width="1" stroke-linecap="square" font-family="MS Shell Dlg 2" font-weight="400" fill="none" font-style="normal" stroke="#000000" stroke-opacity="1" font-size="34.5833" stroke-linejoin="bevel" transform="matrix(11.808,0,0,11.808,0,0)"/>
  <g stroke-width="1" stroke-linecap="square" font-family="MS Shell Dlg 2" font-weight="400" fill="none" font-style="normal" stroke="#000000" stroke-opacity="1" font-size="34.5833" stroke-linejoin="bevel" transform="matrix(11.808,0,0,11.808,0,0)"/>
  <g stroke-width="1" stroke-linecap="square" font-family="MS Shell Dlg 2" font-weight="400" fill="none" font-style="normal" stroke="#000000" stroke-opacity="1" font-size="34.5833" stroke-linejoin="bevel" transform="matrix(11.808,0,0,11.808,0,0)"/>
  <g stroke-width="1" stroke-linecap="square" font-family="MS Shell Dlg 2" font-weight="400" fill="none" font-style="normal" stroke="#000000" stroke-opacity="1" font-size="34.5833" stroke-linejoin="bevel" transform="matrix(1,0,0,1,0,0)"/>
  <g stroke-width="1" stroke-linecap="square" font-family="MS Shell Dlg 2" font-weight="400" fill="none" font-style="normal" stroke="#000000" stroke-opacity="1" font-size="34.5833" stroke-linejoin="bevel" transform="matrix(11.808,0,0,11.808,0,0)"/>
  <g stroke-width="1" stroke-linecap="square" font-family="MS Shell Dlg 2" font-weight="400" fill="none" font-style="normal" stroke="#000000" stroke-opacity="1" font-size="34.5833" stroke-linejoin="bevel" transform="matrix(11.808,0,0,11.808,0,0)"/>
  <g stroke-width="1" stroke-linecap="square" font-family="MS Shell Dlg 2" font-weight="400" fill="none" font-style="normal" stroke="#000000" stroke-opacity="1" font-size="34.5833" stroke-linejoin="bevel" transform="matrix(11.808,0,0,11.808,0,0)"/>
  <g stroke-width="1" stroke-linecap="square" font-family="MS Shell Dlg 2" font-weight="400" fill="none" font-style="normal" stroke="#000000" stroke-opacity="1" font-size="34.5833" stroke-linejoin="bevel" transform="matrix(11.808,0,0,11.808,0,0)"/>
  <g stroke-width="1" stroke-linecap="square" font-family="MS Shell Dlg 2" font-weight="400" fill="none" font-style="normal" stroke="#000000" stroke-opacity="1" font-size="34.5833" stroke-linejoin="bevel" transform="matrix(1,0,0,1,0,0)"/>
 </g>
</svg>
