<?xml version='1.0' encoding='UTF-8' standalone='no'?>
<svg xmlns="http://www.w3.org/2000/svg" baseProfile="tiny" height="249.936mm" version="1.2" width="249.936mm" viewBox="0 0 2952 2952" xmlns:xlink="http://www.w3.org/1999/xlink">
 <title>Qt SVG Document</title>
 <desc>Generated with Qt</desc>
 <defs/>
 <g stroke-width="1" stroke-linecap="square" fill-rule="evenodd" fill="none" stroke="black" stroke-linejoin="bevel">
  <g stroke-width="1" stroke-linecap="square" font-family="MS Shell Dlg 2" font-weight="400" fill="none" font-style="normal" stroke="#000000" stroke-opacity="1" font-size="34.5833" stroke-linejoin="bevel" transform="matrix(1,0,0,1,0,0)"/>
  <g stroke-width="1" stroke-linecap="square" font-family="MS Shell Dlg 2" font-weight="400" fill="none" font-style="normal" stroke="#000000" stroke-opacity="1" font-size="34.5833" stroke-linejoin="bevel" transform="matrix(1,0,0,1,0,0)"/>
  <g stroke-width="1" stroke-linecap="square" font-family="MS Shell Dlg 2" font-weight="400" fill="none" font-style="normal" stroke="#000000" stroke-opacity="1" font-size="34.5833" stroke-linejoin="bevel" transform="matrix(11.808,0,0,11.808,0,0)"/>
  <g stroke-width="1" stroke-linecap="square" font-family="MS Shell Dlg 2" font-weight="400" fill="none" font-style="normal" stroke="#000000" stroke-opacity="1" font-size="34.5833" stroke-linejoin="bevel" transform="matrix(0.999744,0,0,0.999744,0,0)"/>
  <g font-family="MS Shell Dlg 2" fill-opacity="0" font-weight="400" fill="#ffffff" font-style="normal" stroke="none" font-size="34.5833" transform="matrix(0.999744,0,0,0.999744,0,0)">
   <path d="M-2,-2 L2955,-2 L2955,2955 L-2,2955 L-2,-2" vector-effect="none" fill-rule="evenodd"/>
  </g>
  <g stroke-width="1" stroke-linecap="square" font-family="MS Shell Dlg 2" font-weight="400" fill="none" font-style="normal" stroke="#000000" stroke-opacity="1" font-size="34.5833" stroke-linejoin="bevel" transform="matrix(0.999744,0,0,0.999744,0,0)"/>
  <g stroke-width="1" stroke-linecap="square" font-family="MS Shell Dlg 2" font-weight="400" fill="none" font-style="normal" stroke="#000000" stroke-opacity="1" font-size="34.5833" stroke-linejoin="bevel" transform="matrix(11.808,0,0,11.808,0,0)"/>
  <g stroke-width="1" stroke-linecap="square" font-family="MS Shell Dlg 2" font-weight="400" fill="none" font-style="normal" stroke="#000000" stroke-opacity="1" font-size="34.5833" stroke-linejoin="bevel" transform="matrix(11.808,0,0,11.808,0,0)"/>
  <g stroke-width="1" stroke-linecap="square" font-family="MS Shell Dlg 2" font-weight="400" fill="none" font-style="normal" stroke="#000000" stroke-opacity="1" font-size="34.5833" stroke-linejoin="bevel" transform="matrix(11.808,0,0,11.808,0,0)"/>
  <g stroke-width="1" stroke-linecap="square" font-family="MS Shell Dlg 2" font-weight="400" fill="none" font-style="normal" stroke="#000000" stroke-opacity="1" font-size="34.5833" stroke-linejoin="bevel" transform="matrix(11.808,0,0,11.808,0,0)"/>
  <g stroke-width="1" stroke-linecap="square" font-family="MS Shell Dlg 2" font-weight="400" fill="none" font-style="normal" stroke="#000000" stroke-opacity="1" font-size="34.5833" stroke-linejoin="bevel" transform="matrix(11.808,0,0,11.808,0,0)"/>
  <g font-family="MS Shell Dlg 2" fill-opacity="0" font-weight="400" fill="#ffffff" font-style="normal" stroke="none" font-size="34.5833" transform="matrix(11.808,0,0,11.808,0,0)">
   <path d="M0,0 L250,0 L250,250 L0,250 L0,0" vector-effect="none" fill-rule="evenodd"/>
  </g>
  <g stroke-width="1" stroke-linecap="square" font-family="MS Shell Dlg 2" font-weight="400" fill="none" font-style="normal" stroke="#000000" stroke-opacity="1" font-size="34.5833" stroke-linejoin="bevel" transform="matrix(11.808,0,0,11.808,0,0)"/>
  <g stroke-width="1" stroke-linecap="square" font-family="MS Shell Dlg 2" font-weight="400" fill="none" font-style="normal" stroke="#000000" stroke-opacity="1" font-size="34.5833" stroke-linejoin="bevel" transform="matrix(11.808,0,0,11.808,0,0)"/>
  <g font-family="MS Shell Dlg 2" fill-opacity="0" font-weight="400" fill="#000000" font-style="normal" stroke="none" font-size="34.5833" transform="matrix(0.999744,0,0,0.999744,0,0)">
   <rect y="0" x="0" height="2953" width="2953"/>
  </g>
  <g stroke-width="1" stroke-linecap="square" font-family="MS Shell Dlg 2" font-weight="400" fill="none" font-style="normal" stroke="#000000" stroke-opacity="1" font-size="34.5833" stroke-linejoin="bevel" transform="matrix(0.999744,0,0,0.999744,0,0)"/>
  <g stroke-width="3.07087" stroke-linecap="square" font-family="MS Shell Dlg 2" fill-opacity="1" font-weight="400" fill="#c5c5c5" font-style="normal" stroke="#5c5c5c" stroke-opacity="1" font-size="34.5833" stroke-linejoin="bevel" transform="matrix(0.999744,0,0,0.999744,0,0)">
   <path d="M2677.55,2182.8 L2204.59,2139.78 L1954.42,2140.58 L1678.18,2024.82 L1550.62,2024.35 L1450.49,2156.69 L1262.02,2136.6 L1065.59,2052.41 L930.375,1936.01 L150.701,1405.25 L162.301,1387.48 L192.118,1315.8 L196.173,1300.06 L200.329,1283.2 L217.669,1268.08 L228.152,1254.8 L229.946,1252.09 L234.69,1249.54 L241.546,1247.51 L246.011,1246.67 L248.243,1245.51 L258.926,1235.23 L263.191,1230.37 L266.619,1225.18 L268.453,1222.04 L270.725,1218.81 L274.631,1215.94 L279.016,1214.46 L285.593,1210.79 L291.413,1207.65 L293.805,1205.69 L296.117,1202.3 L299.465,1196.56 L301.179,1193.49 L303.611,1191.7 L306.8,1189.79 L309.709,1187.32 L311.942,1184.29 L313.337,1179.86 L313.576,1175.72 L313.337,1172.49 L314.014,1170.93 L316.207,1168.58 L322.346,1164.47 L361.011,1146.42 L370.658,1138.88 L373.448,1138.37 L378.112,1138.17 L384.41,1138.92 L390.11,1139.68 L392.542,1138.96 L395.133,1137.21 L397.206,1136.33 L401.152,1136.17 L411.676,1136.53 L415.064,1136.09 L416.419,1134.7 L416.897,1131.87 L418.611,1128.4 L420.007,1126.21 L422.877,1116.24 L425.787,1110.18 L429.613,1104.04 L435.194,1098.98 L459.908,1079.97 L487.732,1064.46 L490.562,1063.15 L491.957,1061.35 L496.94,1048.08 L498.494,1045.65 L535.067,1025.1 L541.445,1021.71 L542.96,1020 L544.076,1016.65 L544.275,1012.7 L544.275,1008.28 L545.551,1005.97 L549.258,1001.62 L558.426,993.807 L566.996,987.31 L573.295,981.37 L582.941,971.724 L602.832,951.076 L607.297,948.006 L617.561,942.246 L634.841,938.639 L653.217,927.198 L667.846,925.086 L683.99,922.176 L722.875,901.009 L732.363,897.581 L784.382,882.553 L798.214,874.103 L816.311,867.366 L826.675,859.952 L867.533,845.243 L896.513,849.03 L922.543,848.551 L935.697,844.047 L960.479,842.752 L965.314,839.423 L973.486,832.407 L977.711,826.269 L984.328,818.217 L1002.35,809.965 L1014.58,806.139 L1023.91,797.369 L1030.13,793.463 L1037.07,792.267 L1067.84,794.06 L1078.48,793.303 L1098.65,789.915 L1108.38,786.766 L1118.62,784.613 L1130.06,784.653 L1143.85,786.885 L1153.82,781.703 L1159.56,782.142 L1167.25,784.773 L1176.7,790.034 L1188.14,793.423 L1209.67,794.658 L1238.53,794.778 L1250.01,800.558 L1260.45,801.236 L1273.25,799.163 L1294.85,788.878 L1315.5,780.109 L1329.57,781.544 L1347.85,788.261 L1366.88,794.459 L1401.88,774.887 L1409.33,763.526 L1439.79,731.597 L1451.35,724.183 L1515.13,696.758 L1528.56,696.001 L1546.1,701.661 L1552.95,705.249 L1573.76,699.03 L1609.12,685.158 L1649.12,644.31 L1673.72,617.882 L1692.29,610.468 L1696.84,604.967 L1705.25,601.818 L1714.45,597.398 L1723.38,597.956 L1732.45,600.208 L1740.68,602.979 L1766.57,601.743 L1780.23,600.308 L1802.05,593.412 L1816.44,590.223 L1832.03,587.433 L1868.94,581.413 L1884.96,576.431 L1898.83,570.053 L1915.3,559.33 L1925.3,551.796 L1936.14,542.349 L1946.27,532.902 L1956.04,526.205 L1965.62,523.196 L1979.14,521.481 L1994.08,521.442 L2006.2,522.079 L2017.76,521.84 L2031.41,518.153 L2055.31,508.422 L2066.63,501.725 L2072.39,499.199 L2073.41,500.873 L2076.92,504.182 L2080.68,508.526 L2090.93,516.339 L2096.59,521.92 L2103.36,530.371 L2106.95,539.379 L2108.71,550.381 L2111.58,556.201 L2115.8,563.854 L2118.11,571.588 L2119.07,580.277 L2119.87,586.695 L2119.67,593.113 L2120.94,596.302 L2123.65,600.886 L2130.15,608.061 L2149.09,626.118 L2162.56,641.545 L2171.77,652.865 L2176.99,661.555 L2225.36,693.608 L2255.01,709.217 L2278.02,733.497 L2301.52,751.065 L2326.58,774.596 L2355.69,810.379 L2360.17,831.904 L2365.83,855.522 L2367.81,856.16 L2369.38,857.615 L2370.42,859.688 L2370.5,862.279 L2369.96,864.152 L2368.54,865.826 L2377.25,900.127 L2379.53,899.051 L2382.56,899.41 L2385.23,911.767 L2375.5,922.051 L2388.31,940.968 L2395.37,964.838 L2401.25,1042.35 L2409.62,1035.5 L2432.18,1057.34 L2435.11,1056.64 L2475.21,1141.85 L2477.05,1147.59 L2472.66,1155.08 L2476.81,1164.49 L2497.38,1194.61 L2446.11,1224.12 L2422.2,1256.17 L2382.81,1331.23 L2778.94,2034.91 L2677.55,2182.8" vector-effect="none" fill-rule="evenodd"/>
  </g>
  <g stroke-width="1" stroke-linecap="square" font-family="MS Shell Dlg 2" font-weight="400" fill="none" font-style="normal" stroke="#000000" stroke-opacity="1" font-size="34.5833" stroke-linejoin="bevel" transform="matrix(0.999744,0,0,0.999744,0,0)"/>
  <g stroke-width="1" stroke-linecap="square" font-family="MS Shell Dlg 2" font-weight="400" fill="none" font-style="normal" stroke="#000000" stroke-opacity="1" font-size="34.5833" stroke-linejoin="bevel" transform="matrix(11.808,0,0,11.808,0,0)"/>
  <g stroke-width="1" stroke-linecap="square" font-family="MS Shell Dlg 2" font-weight="400" fill="none" font-style="normal" stroke="#000000" stroke-opacity="1" font-size="34.5833" stroke-linejoin="bevel" transform="matrix(11.808,0,0,11.808,0,0)"/>
  <g stroke-width="1" stroke-linecap="square" font-family="MS Shell Dlg 2" font-weight="400" fill="none" font-style="normal" stroke="#000000" stroke-opacity="1" font-size="34.5833" stroke-linejoin="bevel" transform="matrix(11.808,0,0,11.808,0,0)"/>
  <g stroke-width="1" stroke-linecap="square" font-family="MS Shell Dlg 2" font-weight="400" fill="none" font-style="normal" stroke="#000000" stroke-opacity="1" font-size="34.5833" stroke-linejoin="bevel" transform="matrix(1,0,0,1,0,0)"/>
  <g stroke-width="1" stroke-linecap="square" font-family="MS Shell Dlg 2" font-weight="400" fill="none" font-style="normal" stroke="#000000" stroke-opacity="1" font-size="34.5833" stroke-linejoin="bevel" transform="matrix(11.808,0,0,11.808,0,0)"/>
  <g stroke-width="1" stroke-linecap="square" font-family="MS Shell Dlg 2" font-weight="400" fill="none" font-style="normal" stroke="#000000" stroke-opacity="1" font-size="34.5833" stroke-linejoin="bevel" transform="matrix(11.808,0,0,11.808,0,0)"/>
  <g stroke-width="1" stroke-linecap="square" font-family="MS Shell Dlg 2" font-weight="400" fill="none" font-style="normal" stroke="#000000" stroke-opacity="1" font-size="34.5833" stroke-linejoin="bevel" transform="matrix(11.808,0,0,11.808,0,0)"/>
  <g stroke-width="1" stroke-linecap="square" font-family="MS Shell Dlg 2" font-weight="400" fill="none" font-style="normal" stroke="#000000" stroke-opacity="1" font-size="34.5833" stroke-linejoin="bevel" transform="matrix(11.808,0,0,11.808,0,0)"/>
  <g stroke-width="1" stroke-linecap="square" font-family="MS Shell Dlg 2" font-weight="400" fill="none" font-style="normal" stroke="#000000" stroke-opacity="1" font-size="34.5833" stroke-linejoin="bevel" transform="matrix(1,0,0,1,0,0)"/>
 </g>
</svg>
