<?xml version='1.0' encoding='UTF-8' standalone='no'?>
<svg xmlns="http://www.w3.org/2000/svg" baseProfile="tiny" height="249.936mm" version="1.2" width="249.936mm" viewBox="0 0 2952 2952" xmlns:xlink="http://www.w3.org/1999/xlink">
 <title>Qt SVG Document</title>
 <desc>Generated with Qt</desc>
 <defs/>
 <g stroke-width="1" stroke-linecap="square" fill-rule="evenodd" fill="none" stroke="black" stroke-linejoin="bevel">
  <g stroke-width="1" stroke-linecap="square" font-family="MS Shell Dlg 2" font-weight="400" fill="none" font-style="normal" stroke="#000000" stroke-opacity="1" font-size="34.5833" stroke-linejoin="bevel" transform="matrix(1,0,0,1,0,0)"/>
  <g stroke-width="1" stroke-linecap="square" font-family="MS Shell Dlg 2" font-weight="400" fill="none" font-style="normal" stroke="#000000" stroke-opacity="1" font-size="34.5833" stroke-linejoin="bevel" transform="matrix(1,0,0,1,0,0)"/>
  <g stroke-width="1" stroke-linecap="square" font-family="MS Shell Dlg 2" font-weight="400" fill="none" font-style="normal" stroke="#000000" stroke-opacity="1" font-size="34.5833" stroke-linejoin="bevel" transform="matrix(11.808,0,0,11.808,0,0)"/>
  <g stroke-width="1" stroke-linecap="square" font-family="MS Shell Dlg 2" font-weight="400" fill="none" font-style="normal" stroke="#000000" stroke-opacity="1" font-size="34.5833" stroke-linejoin="bevel" transform="matrix(0.999744,0,0,0.999744,0,0)"/>
  <g font-family="MS Shell Dlg 2" fill-opacity="0" font-weight="400" fill="#ffffff" font-style="normal" stroke="none" font-size="34.5833" transform="matrix(0.999744,0,0,0.999744,0,0)">
   <path d="M-2,-2 L2955,-2 L2955,2955 L-2,2955 L-2,-2" vector-effect="none" fill-rule="evenodd"/>
  </g>
  <g stroke-width="1" stroke-linecap="square" font-family="MS Shell Dlg 2" font-weight="400" fill="none" font-style="normal" stroke="#000000" stroke-opacity="1" font-size="34.5833" stroke-linejoin="bevel" transform="matrix(0.999744,0,0,0.999744,0,0)"/>
  <g stroke-width="1" stroke-linecap="square" font-family="MS Shell Dlg 2" font-weight="400" fill="none" font-style="normal" stroke="#000000" stroke-opacity="1" font-size="34.5833" stroke-linejoin="bevel" transform="matrix(11.808,0,0,11.808,0,0)"/>
  <g stroke-width="1" stroke-linecap="square" font-family="MS Shell Dlg 2" font-weight="400" fill="none" font-style="normal" stroke="#000000" stroke-opacity="1" font-size="34.5833" stroke-linejoin="bevel" transform="matrix(11.808,0,0,11.808,0,0)"/>
  <g stroke-width="1" stroke-linecap="square" font-family="MS Shell Dlg 2" font-weight="400" fill="none" font-style="normal" stroke="#000000" stroke-opacity="1" font-size="34.5833" stroke-linejoin="bevel" transform="matrix(11.808,0,0,11.808,0,0)"/>
  <g stroke-width="1" stroke-linecap="square" font-family="MS Shell Dlg 2" font-weight="400" fill="none" font-style="normal" stroke="#000000" stroke-opacity="1" font-size="34.5833" stroke-linejoin="bevel" transform="matrix(11.808,0,0,11.808,0,0)"/>
  <g stroke-width="1" stroke-linecap="square" font-family="MS Shell Dlg 2" font-weight="400" fill="none" font-style="normal" stroke="#000000" stroke-opacity="1" font-size="34.5833" stroke-linejoin="bevel" transform="matrix(11.808,0,0,11.808,0,0)"/>
  <g font-family="MS Shell Dlg 2" fill-opacity="0" font-weight="400" fill="#ffffff" font-style="normal" stroke="none" font-size="34.5833" transform="matrix(11.808,0,0,11.808,0,0)">
   <path d="M0,0 L250,0 L250,250 L0,250 L0,0" vector-effect="none" fill-rule="evenodd"/>
  </g>
  <g stroke-width="1" stroke-linecap="square" font-family="MS Shell Dlg 2" font-weight="400" fill="none" font-style="normal" stroke="#000000" stroke-opacity="1" font-size="34.5833" stroke-linejoin="bevel" transform="matrix(11.808,0,0,11.808,0,0)"/>
  <g stroke-width="1" stroke-linecap="square" font-family="MS Shell Dlg 2" font-weight="400" fill="none" font-style="normal" stroke="#000000" stroke-opacity="1" font-size="34.5833" stroke-linejoin="bevel" transform="matrix(11.808,0,0,11.808,0,0)"/>
  <g font-family="MS Shell Dlg 2" fill-opacity="0" font-weight="400" fill="#000000" font-style="normal" stroke="none" font-size="34.5833" transform="matrix(0.999744,0,0,0.999744,0,0)">
   <rect y="0" x="0" height="2953" width="2953"/>
  </g>
  <g stroke-width="1" stroke-linecap="square" font-family="MS Shell Dlg 2" font-weight="400" fill="none" font-style="normal" stroke="#000000" stroke-opacity="1" font-size="34.5833" stroke-linejoin="bevel" transform="matrix(0.999744,0,0,0.999744,0,0)"/>
  <g stroke-width="3.07087" stroke-linecap="square" font-family="MS Shell Dlg 2" fill-opacity="1" font-weight="400" fill="#c5c5c5" font-style="normal" stroke="#5c5c5c" stroke-opacity="1" font-size="34.5833" stroke-linejoin="bevel" transform="matrix(0.999744,0,0,0.999744,0,0)">
   <path d="M1769.48,273.075 L1777.49,275.926 L1785.12,279.032 L1791.84,280.356 L1799.26,281.237 L1804.52,283.292 L1816.61,285.519 L1817.88,286.057 L1827.11,295.357 L1829.6,298.783 L1834.99,303.604 L1836.97,304.998 L1840.22,306.149 L1849.6,311.581 L1855.06,313.757 L1858.26,315.271 L1860.71,316.451 L1862.34,316.622 L1865.01,314.616 L1868.54,308.694 L1872.6,304.166 L1876.02,302.551 L1879.16,301.67 L1887.26,295.161 L1887.87,294.011 L1894.55,290.022 L1900.13,285.03 L1912.39,283.855 L1918.61,283.855 L1921.62,283.561 L1928.07,282.117 L1933.8,285.788 L1945.84,296.066 L1948.26,297.461 L1954.28,298.33 L1965.42,305.696 L1972.31,311.149 L1979.6,319.339 L1984.54,323.267 L1988.2,325.616 L1990.71,329.58 L1994.17,334.364 L1998.86,346.563 L1999.67,351.678 L2000.06,356.915 L2000.6,359.582 L2003.93,362.862 L2006.21,363.993 L2011.22,369.009 L2014.28,371.91 L2016.39,373.256 L2021.95,384.158 L2025.01,388.71 L2027.01,393.017 L2028.44,394.938 L2034.03,395.978 L2041.59,400.052 L2044.76,400.872 L2046.95,403.815 L2071.69,406.568 L2074.7,407.632 L2075.61,408.293 L2081.6,407.657 L2084.41,407.583 L2095.2,404.989 L2097.87,405.014 L2109.96,407.265 L2132.76,407.853 L2133.43,408.183 L2132.84,410.79 L2133.02,417.661 L2134.52,420.658 L2135.69,425.395 L2140.28,430.251 L2144.17,436.551 L2151.71,446.172 L2152.31,451.201 L2152.52,461.035 L2154.13,464.131 L2154.31,471.284 L2154.75,473.292 L2153.87,481.392 L2153.28,484.003 L2153.43,493.777 L2153.86,499.616 L2153.87,513.828 L2158.75,518.033 L2162.74,522.315 L2166.96,525.426 L2168.66,525.806 L2173.06,528.485 L2181.53,531.006 L2184.05,531.128 L2186.9,532.28 L2193.45,535.362 L2198.58,539.13 L2203.26,541.724 L2205.75,545.346 L2206.9,548.772 L2207.83,556.628 L2209.35,563.7 L2210.53,567.518 L2211.92,569.696 L2212.56,573.856 L2210.23,584.403 L2208.36,590.612 L2207.49,593.825 L2207.1,599.135 L2208.64,606.41 L2207.88,613.01 L2209.11,614.576 L2211.87,616.229 L2215.15,619.569 L2217.18,623.141 L2217.79,626.616 L2217.73,632.416 L2219.18,643.349 L2221.71,648.151 L2224.89,652.936 L2233.02,660.204 L2238.38,663.441 L2240.04,666.273 L2244.51,669.075 L2248.72,671.257 L2251.76,673.802 L2257.31,677.733 L2267.44,685.654 L2269.95,690.567 L2272.18,692.844 L2274.07,695.995 L2280.65,702.629 L2283.51,703.746 L2286.1,710.895 L2287.01,715.595 L2294.65,722.935 L2297.44,724.981 L2311.25,731.344 L2314.4,733.363 L2321.38,732.835 L2329.77,727.061 L2342.58,726.851 L2349.57,728.176 L2353.35,729.761 L2355.82,731.592 L2360.75,733.619 L2364.51,733.753 L2368.28,734.714 L2377.99,732.927 L2380.22,733.23 L2383.75,732.884 L2388.23,734.92 L2397.14,735.99 L2401.13,735.576 L2406.51,734.149 L2410.16,735.313 L2416.55,736.65 L2426.68,735.703 L2428.23,740.694 L2429.57,742.383 L2433.95,743.877 L2437.42,744.621 L2441.11,746.369 L2444.05,746.881 L2453.86,750.172 L2457.79,751.936 L2459.06,754.574 L2459.4,756.704 L2462.95,760.611 L2465.5,762.178 L2467.5,765.105 L2470.05,767.377 L2471.19,772.396 L2471.41,775.919 L2472.34,780.82 L2474.79,785.049 L2476.79,790.535 L2477.72,791.849 L2480,793.824 L2484.04,796.291 L2486.46,797.034 L2489.72,801.45 L2492.43,803.881 L2498.24,809.924 L2499.56,812.984 L2507.85,821.845 L2508.78,823.682 L2509.74,826.447 L2510.69,827.982 L2514.09,831.649 L2514.35,835.051 L2514.23,839.91 L2516.06,843.589 L2516.97,846.169 L2522.04,855.511 L2528.97,866.169 L2531.6,869.367 L2533.57,872.617 L2536.67,879.031 L2538.98,882.601 L2544.87,893.133 L2550.27,898.679 L2553.31,903.603 L2556.03,906.577 L2561.31,907.924 L2565.41,907.882 L2573.35,907.826 L2584.29,908.731 L2594.35,910.738 L2600.42,910.664 L2601.23,910.175 L2603.92,916.831 L2608.45,929.067 L2608.67,932.689 L2609.52,935.748 L2611.58,939.541 L2617.06,946.956 L2622.76,967.536 L2627.4,974.6 L2640.97,992.473 L2644.37,999.08 L2646.72,1002.75 L2649.53,1005.61 L2650.86,1007.96 L2650,1018.49 L2647.23,1034.15 L2639.45,1053.87 L2635.88,1073.35 L2635.68,1076.97 L2643.39,1102.37 L2649.78,1109.89 L2656.97,1123.64 L2657.88,1126.43 L2657.66,1133.67 L2657.83,1137.22 L2658.37,1140.21 L2660.84,1146.23 L2666.05,1155.11 L2669.26,1178.68 L2666.46,1180.87 L2662.97,1182.96 L2658.86,1184.31 L2649.77,1185.2 L2645.14,1186.95 L2638.44,1191.97 L2631.95,1193.83 L2620.82,1196.39 L2590.62,1197.74 L2578.14,1201.8 L2566,1204.84 L2549.65,1213.35 L2541.19,1214.09 L2528.56,1216.44 L2521.56,1218.74 L2515.59,1221.65 L2510.06,1224.61 L2484.9,1227.18 L2475.87,1228.35 L2468.37,1231.44 L2463.53,1234.28 L2459.57,1237.91 L2454.47,1244.87 L2446.05,1260.09 L2440.28,1269.2 L2434.6,1276.54 L2429.12,1284.61 L2422.32,1292.54 L2414.63,1300.23 L2405.53,1311.29 L2402.2,1316.09 L2393.64,1333.31 L2382.98,1345.82 L2364.37,1361.31 L2353.16,1371.73 L2347.38,1379.12 L2332.33,1382.26 L2327,1388.69 L2319.07,1400.78 L2314.47,1409.4 L2307.96,1418.4 L2297.29,1426.62 L2292.59,1428.09 L2273.21,1427.06 L2253.78,1428.14 L2233.71,1431.37 L2223.73,1434.41 L2216.53,1435.38 L2208.7,1434.89 L2199.8,1445.66 L2187.17,1466.22 L2179.44,1489.71 L2161.67,1498.92 L2141.65,1509.41 L2144.93,1522.04 L2145.13,1538.97 L2140.18,1571.62 L2141.27,1589.33 L2139.06,1607.62 L2136.27,1625.24 L2133.53,1638.69 L2132.4,1648.97 L2134.02,1655.82 L2130.3,1662.63 L2125.55,1679.17 L2116.45,1697.57 L2108.42,1724.05 L2104.85,1742.16 L2094.57,1751.85 L2070.63,1759.9 L2060.26,1765.58 L2060.8,1768.12 L2059.82,1774.63 L2054.48,1787.85 L2048.95,1791.76 L2044.4,1798.03 L2026.93,1807.03 L2005,1816.82 L1993.7,1820.3 L1987.19,1822.79 L1980.97,1827.74 L1980.87,1840.76 L1979.5,1851.57 L1984.59,1872.23 L1989.88,1893.57 L1990.47,1902.96 L1993.01,1919.21 L1994.14,1932.28 L1993.55,1945.25 L1994.14,1949.66 L1999.25,1963.18 L2000.89,1968.74 L2003.78,1987.1 L2002.55,2002.02 L1997.95,2036.24 L1996.85,2042.28 L1993.97,2047.79 L1986.89,2057.48 L1986.19,2062.89 L1984.27,2075.73 L1983.27,2088.75 L1982.68,2101.92 L1982.78,2109.99 L1985.08,2136.25 L1989.66,2147.9 L1996.24,2163.66 L2003.93,2175.48 L2007.87,2183.21 L2010.79,2192.32 L2010.53,2208.8 L2015.35,2217.92 L2015.67,2224.85 L2015.01,2229.93 L2015.77,2235.73 L2017.85,2244.68 L2023.94,2265.56 L2027.52,2281.78 L2028.7,2291.58 L2032.45,2294.33 L2054.81,2325.21 L2060.74,2331.38 L2068.74,2341.92 L2077.28,2350.78 L2083.69,2359.86 L2089.51,2371.53 L2093.16,2380.34 L2099.67,2401.76 L2100.67,2411.37 L2099.5,2439.96 L2095.44,2454.15 L2081.79,2492.06 L2079.59,2507.01 L2076.39,2522.79 L2073.23,2534.76 L2070.83,2548.27 L2067.11,2561.97 L2065.3,2581.16 L2059.72,2607.29 L2057.57,2620.46 L2054.24,2625.16 L2047,2631.47 L2042.39,2634.33 L2036.23,2637.22 L2027.04,2640.51 L2015.52,2646.45 L1989.9,2656.71 L1978.79,2659.09 L1973.57,2664.05 L1957.1,2671.25 L1926.89,2682.12 L1918.3,2690.01 L1897.69,2677.45 L1854.64,2670.67 L1772.76,2654.25 L1752.35,2652.88 L1750.01,2652.93 L1718.84,2657.92 L1705.15,2664.78 L1693.42,2670.02 L1684.71,2673.47 L1677.48,2676.75 L1670.92,2678.41 L1662.6,2679.51 L1658.25,2679.12 L1652.25,2677.48 L1649.36,2676.92 L1634.34,2676.48 L1626.68,2680.35 L1613.73,2685.22 L1602.21,2686.12 L1595.99,2686.24 L1590.12,2687.03 L1581.7,2691.75 L1576.22,2694.05 L1570.81,2695.3 L1564.86,2695.1 L1560.65,2694.96 L1558.23,2694.12 L1518.56,2671.66 L1499.33,2660.7 L1493.97,2658.64 L1479.06,2651.58 L1437.02,2634.41 L1413.55,2625.44 L1387.59,2619.08 L1373.22,2616.78 L1352.62,2609.73 L1328.49,2600.78 L1322.81,2597.55 L1298.95,2615.51 L1290.36,2618.08 L1278.91,2622.68 L1258.71,2646.7 L1256.64,2651.84 L1251.26,2664.76 L1248.86,2676.14 L1247.59,2678.51 L1239.34,2671.9 L1238.48,2669.41 L1237.48,2663.07 L1235.98,2650.7 L1255.5,2620.48 L1250.69,2607.24 L1232.56,2585.12 L1239.69,2564.99 L1221.74,2543.01 L1220.32,2537.46 L1214.67,2503.71 L1214.94,2492.35 L1214.36,2485.45 L1214.17,2480.23 L1218.26,2470.25 L1220.87,2465.23 L1221.64,2458.11 L1223.39,2451.65 L1226.26,2444.58 L1227.19,2440.37 L1227.09,2436.16 L1224.23,2426.98 L1219.63,2413.94 L1216.3,2404.81 L1210.23,2399.11 L1208.17,2395.12 L1206.96,2391.76 L1203.35,2384.16 L1196.55,2365.8 L1187.91,2362.15 L1182.8,2360.22 L1168.8,2355.42 L1165.62,2353.12 L1161.51,2351.87 L1152.72,2350.45 L1151.74,2349.13 L1149.51,2333.37 L1148.24,2328.5 L1145.38,2320.45 L1141.52,2313.31 L1138.8,2307.15 L1134.99,2299.68 L1130.27,2289.72 L1126.87,2285.34 L1123.86,2282.4 L1121.65,2279.76 L1119.99,2275.57 L1116.86,2264.27 L1114.7,2258.17 L1107.8,2246.13 L1103.17,2240.07 L1098.45,2238.01 L1087.3,2234.97 L1076.23,2232.35 L1056.98,2227.12 L1049.68,2223.36 L1042.83,2220.45 L1038.18,2217.32 L1025.43,2206.43 L1011.26,2197.69 L995.405,2188.95 L984.099,2178.53 L983.438,2169.96 L981.848,2164.87 L969.122,2147.03 L958.208,2136.95 L945.801,2123.79 L930.384,2100.22 L936.159,2087.22 L937.952,2072.44 L932.012,2056.14 L923.66,2039.37 L913.921,2025.79 L907.24,2019.43 L898.736,2008.98 L895.652,1999.9 L891.37,1992.43 L883.343,1980.98 L869.052,1965.53 L862.897,1961.64 L855.036,1954.34 L845.938,1955.1 L854.871,1933.83 L857.501,1917.15 L855.825,1893.65 L853.818,1883.59 L849.891,1876.19 L843.748,1858.8 L843.222,1853.16 L845.535,1844.04 L846.061,1835.28 L846.599,1833.41 L846.477,1827.88 L847.211,1825.25 L850.074,1817.77 L850.735,1814.15 L852.693,1810.62 L845.247,1748.06 L848.404,1730 L845.883,1717.59 L842.555,1710.2 L835.826,1691.7 L837.832,1681.87 L835.63,1660.13 L841.668,1618.7 L829.175,1601.51 L809.317,1578.22 L795.05,1544.45 L786.215,1528.55 L780.318,1530.14 L772.499,1529.65 L753.607,1536.63 L740.27,1541.28 L715.26,1539.49 L707.509,1538.25 L701.452,1534.28 L685.509,1521.36 L674.35,1513.56 L663.521,1500.26 L650.355,1496.74 L639.857,1496.1 L618.389,1482.59 L597.093,1468.48 L595.49,1461.53 L580.819,1456.84 L568.608,1454.2 L559.186,1453.18 L551.661,1454.31 L539.817,1457.14 L534.525,1439.71 L525.263,1431.09 L519.989,1414.18 L481.14,1406.58 L474.704,1407.29 L456.222,1402.77 L451.068,1403.32 L446.394,1403.69 L443.947,1401.88 L441.732,1399.14 L440.068,1395.73 L438.251,1390.99 L436.134,1387.91 L430.065,1383.6 L426.233,1379.45 L423.861,1376.13 L417.597,1373.84 L413.828,1372.38 L411.883,1370.53 L410.267,1368.67 L409.252,1367.15 L406.23,1362.3 L403.978,1360.86 L401.727,1357.41 L399.341,1354.14 L398.105,1351.85 L395.462,1350.16 L391.902,1345.21 L390.764,1342.75 L390.409,1340.3 L390.237,1338.29 L390.445,1336.62 L391.339,1336.42 L393.702,1333.7 L396.359,1329.9 L396.69,1327.3 L397.874,1323.15 L399.731,1319.52 L400.866,1314.89 L402.4,1310.08 L402.231,1306.54 L409.099,1293.17 L411.281,1287.65 L425.297,1279.56 L433.666,1276.35 L437.452,1273.84 L441.663,1269.45 L446.816,1266.02 L451.676,1264.04 L455.003,1261.65 L456.617,1258.96 L458.898,1256.46 L460.905,1255.43 L466.293,1247.51 L466.921,1244.66 L468.934,1240.79 L471.168,1234.83 L471.598,1232.16 L475.128,1229.87 L479.567,1227.93 L481.616,1225.9 L481.735,1223.74 L482.687,1221.04 L484.752,1217.78 L484.285,1216.46 L482.733,1214.05 L483.421,1207.03 L488.187,1202.26 L491.291,1199.78 L492.979,1198.82 L494.815,1198.22 L496.166,1197.49 L501.281,1196.24 L504.451,1195.09 L512.435,1191.63 L516.944,1189.15 L518.686,1181.69 L519.069,1178.57 L525.428,1174.09 L527.591,1161.32 L529.503,1157.39 L529.103,1152.22 L527.444,1147.38 L524.294,1144.34 L521.378,1141.99 L515.397,1132.72 L512.667,1126.47 L508.697,1123.58 L504.768,1114.51 L499.177,1110.89 L496.83,1109.93 L496.406,1103.53 L493.71,1100.14 L493.047,1096.96 L492.194,1094.36 L491.895,1088.2 L487.476,1082.89 L485.112,1082.15 L483.685,1075.77 L484.973,1068.65 L479.366,1063.13 L479.428,1055.96 L480.329,1052.7 L478.322,1048.55 L478.952,1044.77 L477.94,1043.29 L474.5,1035.64 L473.09,1031.26 L473.185,1023.68 L471.683,1019.72 L470.75,1015.06 L470.209,1008.84 L468.51,1004.04 L467.714,997.124 L465.567,994.062 L463.942,991.01 L458.165,989.208 L446.897,977.537 L445.384,975.108 L442.497,968.05 L441.153,963.945 L440.828,959.558 L441.776,954.583 L436.124,949.916 L431.459,943.336 L426.457,939.06 L420.959,930.925 L422.896,924.096 L421.002,922.762 L415.864,917.683 L414.091,905.928 L412.666,899.728 L413.028,894.521 L415.561,888.426 L418.632,883.187 L419.829,880.685 L421.821,874.66 L421.957,872.34 L427.662,863.079 L427.328,842.63 L425.832,833.791 L422.048,827.072 L422.241,822.534 L410.814,818.322 L406.784,815.539 L404.288,813.128 L402.13,810.611 L400.323,807.481 L393.373,806.347 L389.84,805.388 L386.787,802.222 L384.141,801.448 L381.792,799.397 L379.716,795.89 L378.687,793.532 L376.488,791.963 L374.825,790.08 L377.925,787.38 L378.957,784.639 L379.432,781.183 L379.674,776.039 L381.525,771.044 L383.187,763.494 L389.947,757.9 L387.042,753.059 L387.875,748.387 L395.863,738.758 L398.447,734.254 L402.8,727.759 L401.757,722.62 L399.628,716.413 L404.089,692.602 L404.218,685.787 L410.132,678.96 L413.916,675.238 L417.545,672.829 L427.75,667.793 L440.112,662.07 L446.052,655.565 L449.249,650.565 L454.867,647.17 L460.612,643.047 L464.105,634.614 L485.255,616.969 L488.528,613.781 L490.72,609.727 L496.041,604.464 L501.023,596.143 L508.608,584.304 L510.823,582.508 L517.199,575.672 L522.633,572.079 L523.787,567.32 L522.456,558.657 L525.184,545.965 L525.057,539.335 L532.128,527.869 L532.633,513.405 L536.005,510.135 L538.42,505.149 L537.276,502.066 L532.507,496.393 L529.663,491.59 L525.379,486.048 L523.059,484.521 L524.103,470.873 L524.127,467.949 L525.486,462.379 L527.319,458.472 L531.614,450.97 L533.902,445.624 L538.624,440.472 L542.639,435.113 L545.085,432.767 L542.216,428.77 L541.64,424.951 L541.98,422.767 L543.066,419.722 L544.052,412.445 L547.933,400.112 L550.188,395.17 L552.052,392.835 L551.444,385.226 L549.964,380.335 L550.131,378.619 L549.512,375.667 L548.755,374.915 L548.205,368.273 L547.143,363.192 L546.604,356.005 L546.403,348.711 L547.702,343.081 L547.921,336.885 L549.568,330.304 L553.481,324.984 L559.593,329.423 L563.202,330.099 L569.477,332.579 L572.446,333.429 L579.165,332.835 L583.01,331.188 L588.042,331.716 L596.715,331.407 L600.861,329.714 L604.34,329.909 L606.587,329.765 L609.548,325.998 L612.173,323.548 L615.287,321.432 L624.271,320.654 L625.674,319.437 L627.442,318.355 L636.049,316.737 L641.469,316.552 L646.761,319.091 L651.481,319.061 L663.137,322.445 L668.568,322.784 L671.797,322.541 L673.374,323.055 L678.442,325.457 L682.04,325.549 L686.122,324.705 L688.44,323.027 L690.733,322.136 L698.874,320.286 L702.921,318.656 L708.601,319.414 L712.54,317.422 L716.667,312.625 L720.195,311.126 L723.525,308.804 L727.58,307.577 L730.642,305.925 L734.514,304.581 L743.668,298.981 L748.772,296.948 L755.461,293.755 L762.143,293.344 L766.208,293.71 L768.405,294.051 L771.232,294.864 L773.606,296.068 L779.258,294.307 L785.578,290.758 L791.859,288.258 L795.856,286.085 L797.711,284.356 L808.434,306.309 L815.139,317.693 L817.647,321.779 L821.656,324.484 L822.622,329.829 L825.443,334.533 L830.143,338.738 L837.78,348.43 L842.655,357.612 L843.559,359.731 L844.821,361.663 L848.278,370.226 L850.361,373.089 L851.73,374.313 L855.023,379.553 L857.434,385.898 L862.053,392.18 L866.16,395.872 L868.828,398.865 L871.329,400.43 L876.208,404.591 L884.507,409.997 L889.07,412.309 L891.942,415.48 L892.912,418.969 L892.833,422.237 L891.638,426.997 L891.343,432.628 L892.439,436.417 L892.563,438.713 L891.427,439.178 L890.836,439.794 L891.799,442.941 L892.438,448.009 L893.763,451.169 L895.051,456.608 L894.919,459.171 L904.147,468.127 L911.235,469.061 L918.101,472.014 L922.025,471.335 L923.795,470.414 L927.443,463.631 L930.796,462.479 L933.506,462.387 L940.178,463.611 L944.846,464.046 L948.703,464.053 L955.147,466.007 L958.747,466.221 L964.067,467.168 L966.439,468.332 L969.76,468.652 L982.367,468.291 L989.459,467.31 L992.543,467.876 L999.494,467.926 L1002.68,467.664 L1005.75,468.392 L1010.35,468.526 L1016.11,466.098 L1020.33,465.051 L1023.39,463.299 L1030.51,462.64 L1035.45,460.752 L1038.32,459.307 L1046.28,458.45 L1050.18,457.65 L1061.63,457.756 L1063.84,458.682 L1065.63,459.011 L1068.38,461.136 L1074.17,461.248 L1087.52,458.455 L1093.99,456.78 L1097.96,456.363 L1100.2,455.756 L1102.57,453.675 L1104.62,452.588 L1106.58,452.409 L1114.51,448.953 L1118.43,448.053 L1124.5,449.248 L1128.74,451.204 L1130.62,451.814 L1133.42,453.354 L1140.09,453.772 L1144.46,451.835 L1146.86,453.644 L1148.93,453.847 L1151.12,454.733 L1152.72,455.671 L1158.15,455.911 L1159.71,455.619 L1161.32,454.561 L1164.67,454.014 L1174.17,456.113 L1178.08,455.777 L1183.13,456.609 L1185.32,456.467 L1188.47,455.057 L1193.33,455.328 L1198.4,454.507 L1204.69,461.001 L1207.96,462.915 L1209.98,464.792 L1212.75,464.417 L1217.31,459.352 L1220.38,457.903 L1223.28,456.196 L1227.3,453.156 L1231.07,451.574 L1232.57,449.368 L1235.27,446.374 L1239.94,437.275 L1242.07,436.247 L1243.69,434.624 L1247.18,429.175 L1250.73,426.971 L1253.19,423.074 L1255.47,420.209 L1257.27,416.667 L1257.04,413.99 L1256.12,411.024 L1256.72,406.577 L1264.3,392.847 L1269.02,380.924 L1266.38,377.264 L1271.96,375.143 L1275.8,373.982 L1287.49,375.174 L1293.56,375.463 L1299.21,376.546 L1301.13,376.389 L1303.38,375.198 L1307.5,372.056 L1314,363.971 L1317.14,358.892 L1326.24,350.475 L1336.88,340.135 L1344.81,337.688 L1351.27,337.204 L1356.25,332.977 L1357.34,331.183 L1360.3,331.269 L1362.84,330.596 L1370.43,324.325 L1371.6,323.053 L1373.74,324.928 L1376.63,325.862 L1380.3,326.64 L1385.57,329.183 L1390.87,333.398 L1391.52,334.959 L1394.67,337.562 L1398.39,336.645 L1403.23,334.619 L1405.23,334.199 L1407.3,335.35 L1412.17,340.38 L1415.94,343.051 L1417.83,344.004 L1424.36,348.439 L1436.78,358.912 L1439.3,360.458 L1440.51,361.714 L1447.99,367.131 L1456.33,368.588 L1462.61,367.08 L1466.34,369.127 L1468.48,367.495 L1477.42,363.236 L1481.22,360.241 L1483.43,358.124 L1487.78,358.265 L1492.22,356.166 L1494.44,353.624 L1496.28,349.094 L1497.63,348.142 L1502.31,341.18 L1505.5,339.225 L1506.27,337.255 L1511.41,331.393 L1513.51,327.927 L1516.18,324.651 L1519.53,322.129 L1520.03,319.862 L1528.48,309.563 L1528.98,307.296 L1534.96,304.987 L1537.88,304.106 L1541.36,304.525 L1544.22,303.787 L1558.12,303.589 L1561.88,302.686 L1568.61,299.186 L1573.54,298.379 L1577.34,297.057 L1581.29,294.623 L1586.44,293.901 L1589.4,292.946 L1595.98,289.031 L1601.83,283.231 L1613.33,278.606 L1614.9,273.565 L1619.35,268.695 L1630.93,266.688 L1634.23,264.07 L1645.64,259.175 L1648.33,259.42 L1649.67,259.861 L1659.63,254.636 L1670.06,249.791 L1677.43,247.909 L1685.23,245.569 L1703.92,235.046 L1712.21,229.883 L1713.85,231.204 L1718.08,238.032 L1722.37,242.192 L1726.36,244.95 L1731.58,248.039 L1737.96,252.311 L1745.04,256.179 L1754.28,257.034 L1761.25,260.803 L1767.62,266.913 L1768.9,272.17 L1769.48,273.075" vector-effect="none" fill-rule="evenodd"/>
  </g>
  <g stroke-width="1" stroke-linecap="square" font-family="MS Shell Dlg 2" font-weight="400" fill="none" font-style="normal" stroke="#000000" stroke-opacity="1" font-size="34.5833" stroke-linejoin="bevel" transform="matrix(0.999744,0,0,0.999744,0,0)"/>
  <g stroke-width="1" stroke-linecap="square" font-family="MS Shell Dlg 2" font-weight="400" fill="none" font-style="normal" stroke="#000000" stroke-opacity="1" font-size="34.5833" stroke-linejoin="bevel" transform="matrix(11.808,0,0,11.808,0,0)"/>
  <g stroke-width="1" stroke-linecap="square" font-family="MS Shell Dlg 2" font-weight="400" fill="none" font-style="normal" stroke="#000000" stroke-opacity="1" font-size="34.5833" stroke-linejoin="bevel" transform="matrix(11.808,0,0,11.808,0,0)"/>
  <g stroke-width="1" stroke-linecap="square" font-family="MS Shell Dlg 2" font-weight="400" fill="none" font-style="normal" stroke="#000000" stroke-opacity="1" font-size="34.5833" stroke-linejoin="bevel" transform="matrix(11.808,0,0,11.808,0,0)"/>
  <g stroke-width="1" stroke-linecap="square" font-family="MS Shell Dlg 2" font-weight="400" fill="none" font-style="normal" stroke="#000000" stroke-opacity="1" font-size="34.5833" stroke-linejoin="bevel" transform="matrix(1,0,0,1,0,0)"/>
  <g stroke-width="1" stroke-linecap="square" font-family="MS Shell Dlg 2" font-weight="400" fill="none" font-style="normal" stroke="#000000" stroke-opacity="1" font-size="34.5833" stroke-linejoin="bevel" transform="matrix(11.808,0,0,11.808,0,0)"/>
  <g stroke-width="1" stroke-linecap="square" font-family="MS Shell Dlg 2" font-weight="400" fill="none" font-style="normal" stroke="#000000" stroke-opacity="1" font-size="34.5833" stroke-linejoin="bevel" transform="matrix(11.808,0,0,11.808,0,0)"/>
  <g stroke-width="1" stroke-linecap="square" font-family="MS Shell Dlg 2" font-weight="400" fill="none" font-style="normal" stroke="#000000" stroke-opacity="1" font-size="34.5833" stroke-linejoin="bevel" transform="matrix(11.808,0,0,11.808,0,0)"/>
  <g stroke-width="1" stroke-linecap="square" font-family="MS Shell Dlg 2" font-weight="400" fill="none" font-style="normal" stroke="#000000" stroke-opacity="1" font-size="34.5833" stroke-linejoin="bevel" transform="matrix(11.808,0,0,11.808,0,0)"/>
  <g stroke-width="1" stroke-linecap="square" font-family="MS Shell Dlg 2" font-weight="400" fill="none" font-style="normal" stroke="#000000" stroke-opacity="1" font-size="34.5833" stroke-linejoin="bevel" transform="matrix(1,0,0,1,0,0)"/>
 </g>
</svg>
