<?xml version='1.0' encoding='UTF-8' standalone='no'?>
<svg xmlns:xlink="http://www.w3.org/1999/xlink" baseProfile="tiny" xmlns="http://www.w3.org/2000/svg" height="249.936mm" viewBox="0 0 2952 2952" width="249.936mm" version="1.2">
 <title>Qt SVG Document</title>
 <desc>Generated with Qt</desc>
 <defs/>
 <g stroke-width="1" fill-rule="evenodd" fill="none" stroke-linejoin="bevel" stroke-linecap="square" stroke="black">
  <g stroke-width="1" transform="matrix(1,0,0,1,0,0)" stroke-opacity="1" font-size="34.5833" fill="none" stroke-linejoin="bevel" font-style="normal" stroke-linecap="square" stroke="#000000" font-family="MS Shell Dlg 2" font-weight="400"/>
  <g stroke-width="1" transform="matrix(1,0,0,1,0,0)" stroke-opacity="1" font-size="34.5833" fill="none" stroke-linejoin="bevel" font-style="normal" stroke-linecap="square" stroke="#000000" font-family="MS Shell Dlg 2" font-weight="400"/>
  <g stroke-width="1" transform="matrix(11.808,0,0,11.808,0,0)" stroke-opacity="1" font-size="34.5833" fill="none" stroke-linejoin="bevel" font-style="normal" stroke-linecap="square" stroke="#000000" font-family="MS Shell Dlg 2" font-weight="400"/>
  <g stroke-width="1" transform="matrix(0.999744,0,0,0.999744,0,0)" stroke-opacity="1" font-size="34.5833" fill="none" stroke-linejoin="bevel" font-style="normal" stroke-linecap="square" stroke="#000000" font-family="MS Shell Dlg 2" font-weight="400"/>
  <g transform="matrix(0.999744,0,0,0.999744,0,0)" font-size="34.5833" fill-opacity="0" fill="#ffffff" font-style="normal" stroke="none" font-family="MS Shell Dlg 2" font-weight="400">
   <path fill-rule="evenodd" vector-effect="none" d="M-2,-2 L2955,-2 L2955,2955 L-2,2955 L-2,-2"/>
  </g>
  <g stroke-width="1" transform="matrix(0.999744,0,0,0.999744,0,0)" stroke-opacity="1" font-size="34.5833" fill="none" stroke-linejoin="bevel" font-style="normal" stroke-linecap="square" stroke="#000000" font-family="MS Shell Dlg 2" font-weight="400"/>
  <g stroke-width="1" transform="matrix(11.808,0,0,11.808,0,0)" stroke-opacity="1" font-size="34.5833" fill="none" stroke-linejoin="bevel" font-style="normal" stroke-linecap="square" stroke="#000000" font-family="MS Shell Dlg 2" font-weight="400"/>
  <g stroke-width="1" transform="matrix(11.808,0,0,11.808,0,0)" stroke-opacity="1" font-size="34.5833" fill="none" stroke-linejoin="bevel" font-style="normal" stroke-linecap="square" stroke="#000000" font-family="MS Shell Dlg 2" font-weight="400"/>
  <g stroke-width="1" transform="matrix(11.808,0,0,11.808,0,0)" stroke-opacity="1" font-size="34.5833" fill="none" stroke-linejoin="bevel" font-style="normal" stroke-linecap="square" stroke="#000000" font-family="MS Shell Dlg 2" font-weight="400"/>
  <g stroke-width="1" transform="matrix(11.808,0,0,11.808,0,0)" stroke-opacity="1" font-size="34.5833" fill="none" stroke-linejoin="bevel" font-style="normal" stroke-linecap="square" stroke="#000000" font-family="MS Shell Dlg 2" font-weight="400"/>
  <g stroke-width="1" transform="matrix(11.808,0,0,11.808,0,0)" stroke-opacity="1" font-size="34.5833" fill="none" stroke-linejoin="bevel" font-style="normal" stroke-linecap="square" stroke="#000000" font-family="MS Shell Dlg 2" font-weight="400"/>
  <g transform="matrix(11.808,0,0,11.808,0,0)" font-size="34.5833" fill-opacity="0" fill="#ffffff" font-style="normal" stroke="none" font-family="MS Shell Dlg 2" font-weight="400">
   <path fill-rule="evenodd" vector-effect="none" d="M0,0 L250,0 L250,250 L0,250 L0,0"/>
  </g>
  <g stroke-width="1" transform="matrix(11.808,0,0,11.808,0,0)" stroke-opacity="1" font-size="34.5833" fill="none" stroke-linejoin="bevel" font-style="normal" stroke-linecap="square" stroke="#000000" font-family="MS Shell Dlg 2" font-weight="400"/>
  <g stroke-width="1" transform="matrix(11.808,0,0,11.808,0,0)" stroke-opacity="1" font-size="34.5833" fill="none" stroke-linejoin="bevel" font-style="normal" stroke-linecap="square" stroke="#000000" font-family="MS Shell Dlg 2" font-weight="400"/>
  <g transform="matrix(0.999744,0,0,0.999744,0,0)" font-size="34.5833" fill-opacity="0" fill="#000000" font-style="normal" stroke="none" font-family="MS Shell Dlg 2" font-weight="400">
   <rect x="0" height="2953" width="2953" y="0"/>
  </g>
  <g stroke-width="1" transform="matrix(0.999744,0,0,0.999744,0,0)" stroke-opacity="1" font-size="34.5833" fill="none" stroke-linejoin="bevel" font-style="normal" stroke-linecap="square" stroke="#000000" font-family="MS Shell Dlg 2" font-weight="400"/>
  <g stroke-width="3.07087" transform="matrix(0.999744,0,0,0.999744,0,0)" stroke-opacity="1" font-size="34.5833" fill-opacity="1" fill="#c5c5c5" stroke-linejoin="bevel" font-style="normal" stroke-linecap="square" stroke="#5c5c5c" font-family="MS Shell Dlg 2" font-weight="400">
   <path fill-rule="evenodd" vector-effect="none" d="M1977.71,2750.46 L1977.06,2750.31 L1975.75,2748.32 L1974.27,2745.18 L1972.07,2743.22 L1971.23,2739.35 L1969.98,2736.95 L1968.02,2735.47 L1966.62,2732.73 L1963.43,2729.78 L1961.88,2729.49 L1960.9,2728.45 L1959.57,2726.81 L1958.43,2724.18 L1957.03,2723.09 L1956.79,2721.58 L1955.62,2720.45 L1950.44,2718.54 L1948.94,2716.5 L1947.27,2715.57 L1948.05,2714.67 L1948.14,2712.38 L1947.7,2708.34 L1946.56,2706.05 L1946.63,2704.11 L1949.5,2697.17 L1948.57,2694.63 L1948.85,2693.71 L1947.13,2692.43 L1945.92,2690.68 L1941.55,2688.98 L1939.81,2687.8 L1938.02,2685.52 L1937.06,2683.33 L1934.16,2684.45 L1933.68,2685.17 L1929.12,2686.21 L1928.98,2686.6 L1926.13,2685.83 L1924.32,2686.06 L1923.54,2685.48 L1922.82,2686.01 L1921.63,2685.04 L1918.72,2683.7 L1915.73,2683 L1914.55,2682.16 L1911.88,2681.97 L1908.85,2680.86 L1894.61,2683.21 L1892.48,2682.43 L1888.21,2682.86 L1882.64,2682.13 L1876.75,2684.86 L1874.15,2684.71 L1868.86,2680.65 L1867.65,2680.55 L1865,2682.05 L1863.59,2681.64 L1861.48,2679.52 L1859.72,2676.7 L1855.27,2674.26 L1854.35,2670.59 L1854.68,2665.65 L1855.16,2664.65 L1854.65,2661.97 L1855.41,2661.05 L1854.95,2659.7 L1854.05,2658.86 L1854.93,2653.64 L1855.61,2653.07 L1853.78,2651.24 L1856.9,2647.13 L1856.39,2646.48 L1857.04,2645.01 L1856.06,2643.9 L1856.01,2641.83 L1858.4,2638.76 L1857.89,2638 L1858.44,2635.28 L1856.11,2633.93 L1856.24,2632.72 L1856.93,2631.99 L1855.38,2632.42 L1853.41,2631.48 L1846.66,2624.63 L1845.26,2624.25 L1842.21,2621.3 L1840.5,2621.21 L1838.96,2620.16 L1837.75,2620.39 L1835.5,2619.78 L1834.29,2613.48 L1832.7,2611.15 L1832.79,2608.27 L1830.3,2605.75 L1828.43,2602.06 L1824.64,2598.9 L1821.28,2599.32 L1819.58,2598.49 L1818.98,2599.45 L1817.93,2599.5 L1816.25,2597.18 L1812.33,2594.83 L1812.6,2592.96 L1812.07,2591.57 L1811.3,2590.98 L1811.13,2590.07 L1809.04,2588.95 L1807.79,2585.79 L1805.65,2584.36 L1805.03,2582.18 L1804.21,2581.72 L1803.99,2578.84 L1802.58,2575.01 L1800.63,2572.55 L1799.45,2569.03 L1798.03,2568.97 L1795.36,2567.1 L1793.75,2566.95 L1793.33,2566.51 L1792.45,2566.78 L1789.84,2563.84 L1789.96,2562.45 L1787.98,2561.47 L1787.27,2560.2 L1784.53,2559.2 L1781.46,2553.04 L1781.66,2551.48 L1779.92,2549.84 L1776.02,2553.22 L1773.4,2554.57 L1769.2,2554.28 L1768.82,2553.55 L1766.5,2554.16 L1763.97,2553.43 L1763.33,2553.81 L1761.81,2553.47 L1760,2555.29 L1758.25,2555.58 L1757.67,2557.34 L1757.08,2556.81 L1755.68,2557.61 L1754.13,2557.51 L1753.04,2559.14 L1750.86,2558.83 L1748.83,2557.88 L1747.28,2557.99 L1741.36,2555.46 L1740.6,2554.54 L1739.23,2554.07 L1736.9,2551.38 L1735.06,2550.47 L1733.83,2548.45 L1732.61,2548.91 L1730.25,2547.7 L1728.64,2547.98 L1727.11,2547.23 L1724.54,2547.71 L1723.51,2546.66 L1720.8,2547.44 L1719.78,2546.84 L1719.15,2547.5 L1717.37,2547.21 L1715.96,2544.81 L1712.53,2542.27 L1709.92,2536.91 L1708.05,2537.27 L1707.17,2536.67 L1705.65,2536.65 L1704.77,2535.88 L1700.05,2534.69 L1698.28,2528.71 L1697.4,2528.25 L1698.32,2527.42 L1698.8,2525.17 L1699.58,2524.52 L1699.44,2522.13 L1698.06,2519.98 L1697.59,2517.77 L1698.57,2515.79 L1696.92,2514.74 L1695.99,2513.03 L1696.32,2510.99 L1695.66,2509.41 L1691.84,2506.55 L1689.74,2502.69 L1684.02,2502.98 L1679.06,2504.88 L1677.96,2508.16 L1675.77,2510.73 L1669.6,2511.83 L1667.05,2513.77 L1664.23,2514.79 L1661.36,2514.33 L1659.44,2512.93 L1659.1,2513.64 L1656.43,2514.21 L1655.91,2513.69 L1655.79,2511.72 L1654.41,2510.73 L1652.92,2508.14 L1652.88,2507.47 L1653.48,2507.07 L1649.49,2505.13 L1647.31,2502.22 L1636.91,2504.54 L1631.95,2507.71 L1627.97,2507.61 L1626.56,2508.01 L1625.2,2510.21 L1622.18,2511.42 L1619.57,2513.29 L1618.48,2513.39 L1618.07,2514.37 L1611.76,2511.71 L1610.01,2511.82 L1608.69,2511.24 L1606.11,2512.09 L1597.99,2511.19 L1594.38,2508.71 L1592.27,2507.94 L1592.06,2507.39 L1589.51,2506.52 L1589.04,2505.67 L1587.02,2504.95 L1586.47,2505.3 L1582.69,2503.02 L1581.27,2501.29 L1578.02,2499.41 L1573.18,2498.39 L1571.87,2497.24 L1565.38,2494.89 L1565.08,2494.1 L1564.15,2494.02 L1562.56,2492.97 L1561.93,2491.47 L1560.36,2490.07 L1557.39,2488.12 L1555.85,2487.66 L1553.28,2484.69 L1551.32,2483.57 L1551.2,2482.49 L1550.18,2481.77 L1550.41,2478.33 L1549.91,2478.11 L1548.34,2474.77 L1541.75,2469.07 L1541.3,2468.96 L1539.8,2470.88 L1537.5,2471.21 L1536.36,2470.84 L1531.92,2472.81 L1528.23,2471.57 L1527.85,2469.82 L1523.54,2469.15 L1521.26,2467.94 L1519.7,2466.45 L1517.23,2467.03 L1515.46,2465.39 L1514.02,2464.83 L1512.56,2460.63 L1510.64,2458.2 L1508.61,2457.21 L1508.68,2455.33 L1505.77,2453.95 L1504.97,2452.83 L1501.51,2450.59 L1499.36,2450.34 L1498.05,2450.9 L1496.64,2450.14 L1494.53,2450.15 L1489.51,2448.52 L1488.56,2448.98 L1481.58,2446.57 L1478.76,2446.05 L1478.16,2445.25 L1476.74,2444.63 L1475.95,2442.18 L1473.7,2441.03 L1472.24,2441.23 L1471.7,2440.87 L1471.76,2440.02 L1470.45,2439.45 L1468.63,2439.28 L1467.54,2439.9 L1465.77,2439.37 L1466.06,2440.66 L1465.09,2441.48 L1463.56,2441.83 L1460.96,2440.62 L1460.07,2440.73 L1462.12,2435.12 L1463.58,2429.14 L1464.94,2427.86 L1466.7,2427.13 L1467.79,2427.58 L1468.25,2426.03 L1469.43,2425.25 L1469.51,2424.07 L1470.28,2423.94 L1469.92,2423.09 L1470.41,2422.6 L1469.8,2422.1 L1468.47,2422.05 L1466.81,2420.63 L1466.09,2421.49 L1465.43,2421.01 L1463.77,2421.65 L1461.07,2420.64 L1461.27,2419.39 L1461.79,2419.01 L1461.69,2417.79 L1462.63,2416.85 L1460.88,2409.13 L1461.63,2405.57 L1460.59,2399.92 L1460.9,2398.93 L1461.59,2398.51 L1461.52,2397.77 L1459.58,2395.32 L1459.35,2393.69 L1458.1,2392.58 L1457.25,2388.61 L1459.32,2386.77 L1462.02,2385.33 L1462.44,2384.59 L1462.47,2381.09 L1463.76,2380.27 L1463.58,2378.2 L1462.92,2377.46 L1463.36,2376.54 L1462.81,2375.64 L1463.74,2373.71 L1464.82,2372.7 L1466.1,2368.11 L1465.92,2366.54 L1461.82,2361.11 L1459.69,2359.76 L1458.1,2359.38 L1455.57,2356.53 L1453.83,2355.46 L1452.32,2350.74 L1449.05,2346.6 L1447.89,2346.22 L1449.28,2345.7 L1450.07,2344.56 L1451.64,2339.77 L1455.57,2337.26 L1458.84,2332.04 L1458.49,2330.55 L1460.19,2325.9 L1460.16,2323.58 L1458.06,2320.98 L1456.84,2318.07 L1456.89,2316.94 L1458.86,2313.66 L1459.11,2311.67 L1463.22,2307.53 L1466.88,2306.42 L1467.58,2305.28 L1468.59,2300.29 L1470.78,2297.41 L1471.54,2297.36 L1471.71,2296.65 L1474.8,2294.15 L1475.85,2291.44 L1477.03,2291.1 L1477.49,2289.63 L1479.08,2287.87 L1477.42,2282.97 L1476.22,2281.36 L1475.79,2279.86 L1476.37,2280.08 L1477.32,2279.54 L1477.12,2279.1 L1479.27,2276.24 L1479.69,2272.59 L1482.42,2270.94 L1483.62,2269.37 L1485,2268.98 L1486.33,2267.09 L1489.22,2266.33 L1490.67,2264.74 L1493.92,2263.04 L1495.8,2261.14 L1495.35,2259.54 L1495.67,2257.85 L1496.59,2256.39 L1492.7,2251.46 L1492.56,2249.52 L1492.91,2249.37 L1491.51,2247.46 L1492.12,2246.73 L1491.64,2246.26 L1491.76,2245.08 L1490.28,2243.82 L1490.4,2241.38 L1489.88,2240.16 L1490.75,2236.7 L1489.69,2234.2 L1489.37,2230.67 L1489.66,2226.57 L1488.98,2225.87 L1488.58,2224.2 L1488.63,2222.08 L1485.76,2222.13 L1484.42,2220.71 L1482.62,2220.03 L1480.53,2218.38 L1478.17,2218.21 L1476.42,2217.53 L1473.79,2215.07 L1470.11,2212.74 L1467.85,2211.38 L1466.64,2212.2 L1453.59,2203.47 L1452.86,2202.9 L1452.86,2202.29 L1453.74,2199.75 L1452.48,2198.66 L1452.01,2196.17 L1450.07,2194.18 L1448.48,2193.38 L1448.12,2192.79 L1448.65,2192.63 L1447.81,2192.54 L1449.84,2191.75 L1450.8,2190.71 L1449.9,2186.56 L1448.52,2183.26 L1448.84,2181.26 L1451.43,2179.06 L1453.8,2177.93 L1457.1,2178.05 L1458.43,2177.37 L1459.56,2175.93 L1459.35,2174.86 L1460.44,2174.5 L1460.12,2173.87 L1460.94,2173.99 L1461.51,2172.26 L1462.74,2172.25 L1462.64,2170.69 L1464.69,2170.42 L1464.8,2169.8 L1466.99,2169.8 L1466.94,2169.16 L1468.13,2168.82 L1469.6,2167.46 L1469.56,2164.84 L1467.14,2164.08 L1467.13,2163.64 L1468,2163.62 L1468.16,2162.88 L1466.86,2161.35 L1467.37,2161.09 L1467.01,2160.34 L1467.46,2159.74 L1463.7,2157.14 L1463.83,2156.44 L1463.14,2155.96 L1461.4,2155.33 L1460.34,2154.21 L1457.47,2154.37 L1453.66,2153.07 L1450.22,2153.82 L1448.91,2153.02 L1445.04,2154.42 L1443.25,2153.55 L1440.91,2154.01 L1439.56,2153.74 L1439.25,2152.97 L1435.93,2153.07 L1434.85,2151.97 L1432.82,2152.12 L1430.41,2151.06 L1427.21,2150.58 L1425.76,2149.29 L1425.15,2147.32 L1423.09,2147.65 L1416.79,2162.24 L1414.95,2162.86 L1413.46,2165.17 L1411.05,2166.6 L1409.55,2166.78 L1409.21,2167.85 L1407.25,2170.15 L1404.59,2169.86 L1401.19,2170.71 L1393.13,2170.62 L1392.42,2170.79 L1391.96,2171.82 L1389.95,2172.1 L1385.4,2174.29 L1380.79,2174.44 L1375.74,2179 L1374.32,2181.62 L1377.9,2182.59 L1374.85,2183.16 L1373.03,2182.02 L1371.71,2181.93 L1370.45,2182.05 L1369.76,2183 L1368.45,2181.83 L1368.58,2180.38 L1366.98,2180.82 L1365.33,2179.69 L1364.56,2178.64 L1366.28,2178.35 L1365.14,2177.97 L1365.14,2177.47 L1364.45,2177.52 L1364.74,2177.08 L1364,2177.07 L1363.92,2176.42 L1363.33,2176.63 L1362.85,2176.18 L1360.34,2176.99 L1357.65,2177.09 L1357.1,2176.18 L1356.89,2173.83 L1354.9,2171.78 L1353.44,2169.05 L1351.34,2169.3 L1351.17,2168.23 L1349.53,2167.46 L1349.3,2166.74 L1346.29,2165.87 L1343.57,2162.78 L1343.83,2162.1 L1342.71,2161.23 L1342.69,2159.54 L1341.34,2158.74 L1339.27,2158.26 L1338.02,2157.01 L1336.88,2157.15 L1336.29,2156.29 L1334.52,2155.8 L1333.75,2154.58 L1330.33,2152.85 L1329.41,2152.84 L1329.25,2152.28 L1328.21,2152.33 L1328.39,2151.97 L1327.04,2151.35 L1325.77,2151.28 L1324.31,2150.47 L1323.67,2150.67 L1323.09,2149.85 L1321.82,2152.11 L1321.28,2151.83 L1321,2150.81 L1319.24,2152.2 L1316.05,2152.54 L1314.64,2149.86 L1313.81,2150.24 L1311.86,2149.46 L1311.98,2149.17 L1310.65,2149.33 L1310,2148.46 L1310.16,2147.27 L1309.4,2146.62 L1308.1,2145.94 L1307.5,2146.29 L1306.55,2145.87 L1306.49,2146.24 L1305.3,2146.48 L1305.59,2145.29 L1303.41,2144.21 L1303.02,2144.46 L1303.21,2143.43 L1302.18,2141.77 L1301.15,2140.23 L1298.9,2138.4 L1298.49,2137.26 L1294.06,2133.41 L1293.37,2133.35 L1292.96,2132.66 L1290.57,2131.29 L1291.39,2130.04 L1291.38,2128.18 L1288.74,2127.51 L1287.37,2126.25 L1284.55,2126.47 L1283.65,2124.91 L1283.06,2124.73 L1278.95,2124.69 L1277.85,2123.94 L1277.64,2122.11 L1275.42,2121.99 L1272.36,2120.91 L1271.66,2119.87 L1269.91,2119.58 L1269.33,2117.91 L1267.82,2115.87 L1268.14,2115.09 L1267.4,2113.94 L1267.46,2113.15 L1265.85,2111.75 L1264.84,2109.4 L1263.36,2108.24 L1259.93,2106.87 L1259.22,2106.06 L1258.95,2106.36 L1258.14,2105.97 L1255.63,2102.87 L1255.11,2102.83 L1254.17,2097.06 L1252.92,2096.86 L1250.44,2097.47 L1248.4,2097.23 L1245.56,2098.75 L1243.54,2097.39 L1241.58,2097.06 L1239.5,2095.95 L1237.9,2096.96 L1236.17,2097.17 L1231.59,2095.03 L1227.3,2096.09 L1222.55,2095.57 L1219.31,2095.94 L1218.54,2095.32 L1217.16,2096.29 L1214.39,2096.05 L1212.85,2096.68 L1211.56,2098.02 L1207.68,2098.69 L1204.87,2100.75 L1203.38,2100.72 L1201.23,2099.73 L1199.5,2100.73 L1197.01,2101.14 L1196.63,2100.66 L1195.36,2100.73 L1194.49,2099.3 L1193.15,2099.6 L1191.03,2099.19 L1190.56,2100.07 L1189.84,2099.94 L1189.32,2101.22 L1185.98,2101.15 L1185.32,2102.03 L1184.16,2102.52 L1181.5,2102.92 L1179.77,2102.41 L1178.45,2102.56 L1177.53,2102.05 L1171.01,2102.23 L1169.6,2101.78 L1167.48,2098.37 L1167.31,2096.87 L1166.52,2096.11 L1166.33,2094.98 L1164.76,2094.91 L1165.52,2093.15 L1164.63,2088.5 L1162.8,2087.06 L1157.82,2087.09 L1156.32,2084.44 L1156.95,2083.18 L1153.57,2084.03 L1152.33,2084.95 L1148.5,2085.78 L1144.95,2084.77 L1143.58,2085.02 L1143.24,2084.24 L1142.61,2084.07 L1140.65,2084.42 L1139.57,2084.12 L1137,2082.28 L1135.15,2081.67 L1134.77,2080.77 L1133.76,2080.59 L1131.41,2081.24 L1130.83,2080.64 L1127.33,2081.08 L1125.18,2080.1 L1123.93,2080.21 L1118.86,2078.73 L1113.74,2079.21 L1111.71,2079.86 L1108.52,2079.06 L1107.07,2080.53 L1106.49,2080.23 L1105.88,2080.82 L1103.59,2080.86 L1101.61,2079.44 L1100.48,2075.94 L1098.94,2075.23 L1096.23,2074.99 L1095.15,2074.21 L1095.05,2073.36 L1094.03,2072.82 L1091.84,2073.06 L1090.74,2071.86 L1089.43,2071.51 L1087.65,2070.2 L1083.59,2068.49 L1082.89,2068.73 L1080.79,2066.81 L1079.4,2066.28 L1077.73,2064.43 L1077.76,2063.42 L1077.1,2062.99 L1075.29,2057.75 L1081.84,2053.4 L1080.61,2047.53 L1079.63,2046.3 L1078.38,2046.43 L1071.87,2050.27 L1066.07,2051.61 L1063.52,2050.68 L1056.97,2051 L1054.01,2048.57 L1046.89,2045.91 L1046.65,2044.84 L1045.54,2043.71 L1039.99,2042.01 L1035.83,2041.6 L1035.02,2040.53 L1035.33,2039.78 L1034.09,2039 L1032.65,2038.79 L1032.66,2038.09 L1031.57,2037.85 L1031.38,2037.05 L1030.51,2036.85 L1028.66,2035.27 L1028.64,2034.77 L1026.18,2033.58 L1025.92,2032.55 L1022.11,2029.61 L1021.9,2029.26 L1023.01,2027.35 L1023.3,2024.67 L1021.49,2018.83 L1016.95,2018.45 L1011.53,2021.13 L1009.1,2023.55 L1005.48,2023.85 L1003.81,2025.59 L1002.26,2025.43 L1000.39,2026.83 L998.349,2026.41 L993.063,2028.26 L987.786,2026.04 L982.103,2026.33 L981.223,2027.02 L978.478,2027.42 L975.161,2029.92 L971.84,2030.58 L970.54,2031.49 L968.157,2031.81 L964.82,2031.53 L963.802,2030.77 L959.253,2031.31 L956.806,2029.83 L948.202,2027.62 L945.232,2027.24 L942.942,2027.68 L938.456,2026.53 L935.395,2028.84 L934.76,2033.79 L932.539,2035.54 L930.636,2039.1 L929.513,2042.52 L930.031,2045.92 L925.914,2048.68 L923.025,2050 L919.232,2053.28 L915.693,2053.43 L910.498,2054.77 L904.07,2054.34 L898.927,2053.08 L896.175,2054.52 L894.826,2053.7 L894.722,2052.65 L893.738,2052.23 L893.126,2051.02 L891.091,2050.6 L886.877,2050.75 L886,2049.83 L882.835,2048.83 L881.003,2047.61 L879.604,2047.78 L875.576,2046.9 L873.945,2043.54 L872.217,2041.31 L868.092,2039.43 L866.352,2038.17 L866.174,2037.06 L864.369,2035.07 L860.237,2033.11 L858.803,2029.56 L857.113,2027.79 L856.094,2027.64 L852.669,2023.23 L856.549,2019.61 L859.04,2015.76 L860.853,2014.58 L861.349,2012.28 L863.112,2010.86 L863.358,2009.72 L861.973,2007.2 L862.307,2004.95 L861.853,2003.11 L863.923,2001.64 L865.372,1999.66 L865.387,1998.07 L867.044,1994.33 L866.828,1988.01 L864.88,1984.13 L863.923,1980.41 L863.375,1980.04 L862.183,1977.19 L860.407,1975.47 L861.253,1974.38 L862.395,1970.81 L861.879,1968.83 L862.744,1966.27 L862.268,1963.81 L862.901,1962.78 L862.691,1961.46 L866.865,1963.79 L868.29,1964.01 L869.699,1963.37 L871.742,1963.48 L875.862,1964.31 L878.878,1965.66 L883.176,1961.6 L883.968,1958.74 L889.826,1951.14 L911.213,1948.89 L912.419,1948.14 L911.666,1938.82 L916.52,1924.29 L917.301,1905.67 L914.284,1889.32 L912.758,1888.57 L911.629,1885.56 L909.283,1883.9 L904.787,1877.48 L900.424,1875.05 L901.023,1868.17 L898.293,1867.98 L895.131,1868.47 L888.605,1866.72 L886.203,1864.58 L883.722,1858.22 L884.589,1857.76 L885.572,1855.31 L887.505,1853.44 L887.799,1852.58 L889.946,1850.77 L890.15,1849.58 L890.869,1848.76 L891.04,1847.08 L892.338,1844.89 L892.006,1844.15 L892.408,1841.52 L891.835,1840.72 L892.406,1839.63 L892.535,1833.51 L893.431,1831.43 L893.015,1830.91 L893.574,1829.74 L894.324,1828.7 L895.254,1828.51 L895.754,1827.63 L896.522,1827.34 L897.474,1825.47 L900.366,1822.48 L900.607,1821.42 L905.464,1816.9 L908.238,1813.46 L908.788,1812.11 L910.7,1810.48 L912.095,1807.62 L912.863,1803.73 L915.708,1800.02 L914.995,1799.68 L913.496,1800.3 L911.554,1799.29 L907.668,1796.17 L904.509,1792.2 L902.511,1791.16 L900.937,1791.41 L897.98,1789.11 L896.296,1788.68 L892.506,1784.97 L893.03,1782.42 L892.241,1780.99 L892.663,1779.65 L891.457,1776.73 L892.821,1772 L892.516,1771.5 L893.146,1769.11 L892.828,1767.02 L893.167,1765.58 L890.44,1762.89 L887.761,1755.85 L889.525,1753.91 L889.654,1751.83 L891.603,1749.16 L895.061,1740.96 L892.144,1740.19 L890.875,1738.94 L890.981,1737.79 L889.229,1736.8 L888.655,1733.89 L887.64,1732.64 L887.965,1731.43 L886.295,1729.64 L886.392,1728.52 L885.023,1726.09 L885.899,1723.42 L885.586,1722.84 L883.149,1721.85 L879.157,1726.13 L878.949,1728.11 L875.96,1729.75 L870.499,1734.46 L868.243,1735.5 L866.132,1735.87 L865.456,1735.41 L863.95,1735.5 L862.508,1736.01 L860.61,1735.19 L859.53,1735.6 L857.377,1734.67 L856.366,1734.73 L854.803,1733.07 L852.507,1732.56 L851.84,1731.71 L848.639,1729.96 L847.564,1726.74 L845.345,1725.21 L845.493,1724.64 L843.165,1722.06 L843.101,1721.19 L843.991,1720.39 L844.304,1718.67 L843.743,1718.06 L843.315,1714.01 L841.665,1711.14 L841.123,1708.81 L839.544,1707.97 L839.574,1707.29 L837.124,1704.82 L838.51,1702.89 L838.287,1700.69 L838.764,1698.03 L831.632,1689.04 L829.373,1684.52 L816.213,1678.56 L790.32,1657.15 L785.718,1658.62 L780.428,1661.55 L775.2,1662.43 L773.281,1662.04 L771.993,1662.6 L771.057,1661.55 L769.875,1661.82 L768.623,1660.95 L767.019,1661.56 L766.362,1662.33 L764.093,1661.26 L763.15,1661.67 L760.652,1661.46 L758.3,1659.77 L756.89,1660.05 L758.769,1658.24 L758.707,1657.29 L759.345,1657.02 L760.152,1655.6 L761.602,1651.52 L762.818,1650.28 L767.926,1646.62 L772.27,1644.9 L772.977,1643.81 L776.048,1642.35 L775.97,1640.27 L776.922,1639.44 L776.468,1638.8 L776.539,1636.86 L777.805,1634.46 L778.652,1633.99 L776.939,1631.74 L777.263,1625.93 L777.048,1616.44 L776.603,1615.34 L776.921,1607.92 L774.845,1591.85 L776.292,1591.3 L779.006,1589.24 L783.615,1584.94 L785.655,1581.77 L788.36,1579.86 L789.314,1577.84 L789.603,1575.54 L792.218,1575.31 L792.734,1566.38 L794.153,1561.26 L795.619,1557.87 L797.125,1555.84 L798.946,1549.89 L802.4,1546.08 L802.594,1543.51 L797.361,1540.28 L791.014,1533.71 L788.121,1531.7 L785.989,1525.8 L786.017,1523.85 L781.76,1515.73 L774.228,1507.24 L767.307,1496.89 L766.883,1497 L765.717,1495.51 L764.278,1494.72 L762.994,1494.93 L761.703,1493.66 L757.031,1492.23 L755.864,1492.68 L754.157,1490.22 L753.716,1488.28 L750.718,1484.96 L746.994,1482.61 L744.405,1482.32 L743.131,1481.12 L740.906,1484.05 L736.041,1486.46 L736.1,1482.21 L734.223,1481.85 L733.598,1481.15 L732.163,1482.12 L728.519,1482.61 L727.816,1482.34 L728.778,1481.54 L730.021,1479.03 L729.406,1478.22 L730.673,1477.8 L731.505,1475.91 L734.16,1473.22 L734.405,1472.66 L733.313,1471.78 L733.792,1470.01 L735.566,1467.63 L736.24,1465.02 L737.207,1464.18 L737.439,1462.85 L738.549,1461.45 L738.202,1461.01 L740.758,1457.31 L741.147,1455.13 L742.374,1453.09 L742.024,1452.76 L744.207,1450.42 L744.024,1449.97 L745.672,1447.72 L750.436,1442.65 L753.143,1438.56 L754.668,1437.3 L761.573,1428.02 L763.124,1425.27 L762.716,1422.09 L761.577,1418.63 L751.835,1404.62 L749.846,1401.01 L749.242,1400.75 L749.507,1399.09 L747.633,1397.58 L745.277,1393.53 L743.89,1392.57 L740.297,1391.44 L736.446,1385.74 L733.275,1384.44 L730.323,1381.54 L727.304,1377.34 L723.828,1374.83 L720.651,1371.6 L716.664,1369.57 L713.583,1368.63 L710.121,1366.6 L708.205,1363.57 L700.173,1357.31 L700.649,1356.19 L699.828,1355.52 L700.463,1354.17 L702.143,1352.61 L701.71,1348.6 L700.701,1346.3 L700.817,1344.83 L700.204,1344.59 L698.943,1342.68 L697.286,1341.78 L696.319,1341.5 L695.146,1342.66 L693.146,1341.97 L691.202,1339.35 L687.426,1335.75 L680.364,1326.62 L682.933,1321.51 L685.363,1318.59 L701.639,1306.96 L713.696,1296.93 L715.191,1295.22 L722.352,1282.05 L726.766,1272.83 L728.553,1267.16 L734.378,1241.78 L736.133,1237.56 L738.6,1233.91 L759.144,1214.93 L789.148,1195.94 L795.221,1191.55 L799.706,1186.53 L809.977,1170.77 L812.448,1165.12 L824.963,1116.43 L835.518,1078.45 L838.15,1072.82 L848.162,1057.9 L891.951,1008.4 L896.044,1011.94 L900.856,1009.25 L905.354,1007.49 L912.587,1005.11 L916.584,1004.31 L925.812,1003.89 L943.951,1004.38 L950.81,1003.74 L958.332,1001.95 L964.821,999.461 L969.374,997.343 L977.616,991.945 L985.459,983.407 L995.321,970.757 L1001.84,958.66 L1003.43,949.296 L1003.97,928.376 L1001.77,922.402 L998.928,918.666 L996.124,916.597 L977.689,907.55 L972.376,903.711 L969.325,900.241 L966.156,895.003 L959.479,880.857 L953.255,880.098 L953.852,866.889 L951.964,840.527 L950.272,825.219 L947.077,812.081 L938.131,787.445 L936.893,781.674 L936.838,776.292 L938.448,769.767 L942.728,762.078 L967.633,736.078 L970.005,731.633 L970.894,724.084 L968.967,719.969 L966.502,717.822 L961.715,715.189 L938.329,709.494 L924.999,707.911 L895.944,706.359 L891.791,705.52 L887.25,703.801 L883.359,700.596 L875.027,688.81 L863.358,664.435 L860.67,661.706 L857.082,660.101 L853.959,660.298 L851.675,662.552 L850.11,673.815 L848.21,681.569 L846.742,684.877 L844.321,687.766 L841.274,689.636 L838.456,689.982 L830.96,687.881 L827.72,686.129 L825.165,683.47 L821.307,676.833 L799.225,624.46 L795.809,618.281 L789.834,611.614 L759.175,586.92 L755.744,583.111 L752.975,578.794 L750.591,572.941 L749.374,566.556 L749.526,559.376 L750.385,559.527 L750.299,555.631 L750.97,554.009 L751.325,549.08 L751.943,547.68 L751.521,560.448 L754.179,561.65 L756.516,559.504 L756.613,558.983 L756.202,559.031 L757.088,557.969 L760.089,557.965 L760.922,557.081 L761.56,557.488 L763.769,556.117 L766.105,557.339 L765.82,557.867 L766.366,561.935 L768.793,562.614 L769.857,563.472 L765.561,561.881 L765.261,562.452 L766.159,566.025 L767.81,568.828 L768.952,572.286 L771.241,574.979 L771.436,577.354 L774.484,579.64 L774.827,580.385 L776.781,581.319 L777.821,580.713 L778.761,581.826 L779.285,581.687 L780.245,582.382 L780.97,581.975 L782.096,583.31 L782.427,582.969 L782.669,583.495 L782.702,583.187 L784.959,584.208 L786.382,585.473 L787.154,586.983 L789.766,588.315 L790.88,587.907 L792.861,588.493 L792.54,588.938 L793.586,589.606 L794.137,590.878 L796.379,592.389 L797.568,592.309 L800.146,594.018 L800.206,594.555 L800.763,594.396 L801.18,595.191 L801.533,594.971 L802.14,595.588 L803.324,595.085 L805.839,592.819 L805.692,594.088 L804.436,596.224 L804.44,597.336 L803.817,597.635 L803.225,599.499 L803.668,599.787 L804.42,602.5 L805.467,602.182 L804.44,599.807 L804.407,598.605 L805.239,597.124 L804.997,596.727 L806.589,594.6 L807.045,595.882 L805.595,597.82 L805.451,599.161 L805.934,600.095 L807.609,601.168 L808.657,601.059 L810.389,599.817 L812.288,599.872 L813.377,599.141 L814.206,600.194 L816.415,600.667 L820.178,600.701 L820.776,600.224 L822.031,600.711 L823.643,600.483 L824.992,601.327 L828.571,601.059 L829.504,601.655 L830.901,601.337 L831.284,601.849 L833.66,601.715 L834.604,599.67 L835.849,598.565 L835.849,597.651 L836.265,598.247 L836.238,602.837 L836.923,602.748 L836.735,598.456 L836.99,599.499 L837.763,600.214 L839.3,599.231 L839.589,600.612 L841.184,602.79 L841.093,601.774 L839.743,599.877 L841.872,600.781 L842.657,600.294 L842.538,597.24 L844.915,598.79 L843.451,600.181 L846.05,603.52 L847.661,603.212 L846.956,602.158 L847.419,601.781 L846.983,600.469 L846.352,600.38 L845.875,599.078 L843.062,596.674 L845.868,598.164 L847.567,600.131 L850.163,599.298 L850.539,599.606 L852.063,598.235 L853.137,598.632 L853.963,598.225 L856.534,601.295 L857.448,602.1 L857.817,601.782 L855.87,598.88 L854.648,597.897 L855.057,597.311 L854.688,595.492 L856.105,594.181 L856.42,592.541 L857.26,592.859 L858.508,592.571 L859.992,590.941 L859.657,588.795 L861.06,588.406 L862.191,589.444 L863.032,589.529 L863.071,588.738 L864.86,589.051 L866.317,587.78 L866.814,588.177 L868.09,587.491 L868.365,586.766 L868.009,585.951 L869.13,585.494 L871.221,582.974 L871.657,581.136 L870.638,579.891 L872.289,577.638 L871.852,575.65 L873.611,575.78 L876.364,578.025 L876.545,578.88 L879.775,578.542 L881.511,580.118 L881.551,579.363 L882.256,579.005 L885.186,578.365 L887.259,578.588 L888.158,579.661 L889.42,580.078 L890.041,578.937 L891.374,579.83 L898.753,571.711 L898.506,568.612 L898.996,566.396 L900.48,565.134 L901.97,561.914 L902.541,561.984 L902.702,562.808 L901.688,563.345 L902.104,563.971 L902.877,563.603 L903.044,563.941 L902.695,564.22 L902.877,567.4 L905.065,569.994 L906.381,569.079 L904.515,566.207 L903.803,566.197 L903.542,561.872 L905.522,562.103 L905.75,561.491 L905.21,560.608 L906.173,559.062 L909.462,559.03 L910.596,558.334 L911.624,556.575 L911.181,555.343 L912.537,553.365 L912.734,552.419 L912.288,551.983 L912.899,551.467 L915.014,551.318 L916.93,549.278 L917.868,549.091 L917.834,548.296 L918.533,547.889 L919.258,547.938 L919.499,548.505 L921.03,548.445 L923.602,547.103 L925.948,543.372 L926.569,540.385 L929.114,538.029 L931.713,539.939 L935.184,539.234 L936.983,537.961 L937.775,538.1 L939.206,539.542 L940.797,539.949 L943.185,541.788 L942.005,544.591 L940.589,545.356 L939.246,547.463 L938.728,549.24 L938.971,550.922 L938.225,551.429 L935.647,551.429 L931.692,553.238 L930.39,555.325 L930.464,557.289 L929.196,560.056 L926.61,559.689 L923.61,562.504 L922.216,564.961 L922.122,567.992 L923.049,570.218 L922.72,574.72 L926.488,581.624 L930.79,586.036 L930.862,587.3 L930.258,587.932 L929.074,586.68 L928.679,586.799 L929.863,588.385 L930.427,588.135 L930.226,589.288 L931.202,589.336 L932.093,590.718 L933.247,589.804 L932.146,588.224 L934.127,588.98 L935.933,590.54 L940.225,595.81 L941.731,597.92 L942.948,600.83 L945.421,601.211 L946.421,602.093 L950.09,603.689 L951.054,602.948 L952.014,603.157 L952.128,602.312 L951.47,601.11 L951.953,600.047 L949.335,599.202 L946.616,596.847 L946.066,595.437 L946.569,594.462 L947.542,593.916 L952.82,594.234 L955.325,592.411 L955.358,591.313 L958.164,586.285 L959.796,586.543 L960.843,587.06 L961.179,588.093 L964.878,590.11 L966.295,590.667 L967.315,590.359 L969.773,591.631 L969.699,592.078 L967.255,590.607 L966.758,591.303 L970.169,593.201 L970.538,591.799 L970.243,593.181 L971.035,593.608 L971.216,592.356 L971.686,593.111 L972.076,592.108 L972.21,592.575 L973.217,592.743 L973.338,592.356 L976.514,592.843 L976.121,593.259 L977.161,595.679 L977.719,595.427 L978.036,596.108 L976.22,596.906 L975.63,597.701 L975.898,599.857 L976.308,599.818 L976.308,597.979 L976.368,599.549 L977.268,599.519 L977.489,596.986 L977.523,597.473 L978.651,597.443 L978.651,600.463 L979.067,600.463 L979.04,596.628 L979.114,600.513 L980.9,603.394 L983.613,605.123 L989.266,607.15 L989.488,606.554 L987.467,605.481 L987.5,605.103 L984.54,604.174 L984.103,603.315 L981.075,601.05 L981.068,600.205 L982.028,600.444 L981.055,599.142 L981.209,595.396 L980.611,594.363 L982.498,594.899 L982.854,597.89 L982.686,594.889 L983.619,595.277 L983.774,598.407 L983.834,595.326 L984.6,595.585 L984.969,599.152 L985.023,595.744 L985.822,596.121 L985.943,600.225 L986.016,596.439 L986.849,597.045 L986.621,600.742 L986.997,597.334 L987.822,597.91 L987.621,601.626 L988.01,601.755 L988.01,597.791 L985.781,595.863 L980.383,593.925 L980.052,592.914 L978.749,592.669 L980.072,592.795 L981.757,590.36 L981.602,589.506 L980.461,588.939 L979.065,591.831 L980.394,588.89 L979.266,588.591 L978.541,590.976 L979.192,588.581 L977.95,588.333 L977.07,591.274 L976.56,591.066 L977.332,587.946 L978.044,587.618 L986.605,590.658 L988.162,590.638 L990.317,589.724 L990.029,589.257 L987.437,589.843 L985.893,589.704 L981.296,587.693 L980.14,585.289 L980.241,583.699 L978.932,581.453 L976.89,579.317 L979.355,577.627 L981.362,578.581 L983.41,577.965 L985.096,575.797 L986.245,575.252 L987.266,575.49 L987.595,576.693 L988.729,577.945 L990.979,578.034 L991.079,575.659 L990.582,574.656 L988.83,573.046 L986.046,572.562 L983.526,569.389 L984.003,568.296 L984.681,568.107 L984.15,566.288 L984.889,562.313 L983.492,560.335 L984.845,558.742 L983.714,558.149 L986.755,552.921 L987.037,551.45 L978.12,546.661 L978.636,546.423 L984.041,549.226 L984.961,546.801 L983.591,540.46 L981.113,538.839 L982.147,537.16 L978.784,535.48 L978.562,534.943 L973.435,532.752 L972.193,531.141 L972.123,529.884 L971.304,529.416 L970.984,530.455 L969.944,530.237 L969.578,528.542 L967.98,528.085 L968.37,526.743 L967.9,526.454 L961.864,534.227 L961.877,534.824 L967.02,539.416 L968.236,537.766 L967.148,539.565 L970.29,542.219 L977.723,546.075 L977.707,546.433 L969.829,542.018 L969.09,542.107 L960.409,534.176 L960.825,533.716 L961.629,533.818 L965.765,528.629 L966.134,527.963 L965.724,526.343 L962.965,522.904 L954.486,516.813 L952.165,513.904 L950.948,513.956 L950.844,515.035 L950.389,515.249 L949.363,514.963 L948.634,513.057 L950.173,511.824 L949.4,511.864 L949.371,510.834 L948.52,511.125 L948.162,513.248 L948.339,514.98 L949.493,516.803 L948.604,517.474 L949.006,518.721 L946.489,515.291 L945.86,515.429 L946.131,514.931 L947.004,515.704 L947.315,515.454 L947.847,510.686 L946.603,511.3 L946.646,513.629 L945.801,514.648 L944.309,513.452 L946.209,510.009 L946.677,507.825 L945.902,506.768 L945.262,506.46 L944.96,506.848 L944.791,504.471 L944.31,503.778 L943.231,503.585 L943.429,501.355 L937.507,484.571 L934.518,478.642 L935.177,478.491 L936.196,479.999 L938.216,484.199 L944.266,500.886 L945.37,502.014 L945.076,502.35 L947.098,505.857 L948.043,507.3 L948.459,507.223 L948.385,507.776 L950.288,510.338 L954.406,514.947 L954.906,514.625 L954.93,515.472 L957.363,517.345 L973.045,525.526 L977.135,530.235 L982.075,534.85 L987.326,541.957 L992.636,552.356 L994.636,559.815 L995.186,564.402 L994.624,564.899 L994.624,565.634 L995.228,568.874 L995.859,570.146 L996.759,570.245 L997.9,569.569 L998.263,566.826 L997.644,565.728 L997.55,554.716 L997.429,554.12 L996.925,554.06 L997.344,553.399 L997.021,553.45 L996.645,551.452 L995.946,550.518 L995.348,547.491 L995.67,547.183 L992.682,540.275 L991.81,540.694 L992.315,539.692 L990.52,536.846 L989.681,536.776 L989.956,535.792 L986.829,532.533 L985.391,530.057 L984.84,530.464 L985.068,529.689 L978.683,524.63 L970.102,519.252 L958.46,508.645 L958.044,507.273 L954.109,504.629 L951.618,501.885 L949.071,497.58 L945.48,493.508 L944.804,491.91 L943.498,484.751 L944.252,483.705 L940.278,475.608 L940.45,474.972 L941.567,476.117 L944.317,481.208 L946.386,486.65 L951.539,490.383 L952.49,490.621 L953.022,491.695 L953.086,493.079 L951.798,494.059 L951.729,494.864 L953.146,496.319 L954.829,496.324 L956.588,500.897 L955.004,501.355 L953.728,502.622 L954.695,502.329 L955.702,503.015 L955.47,504.059 L955.834,504.503 L959.796,506.957 L960.252,505.717 L959.726,503.847 L960.27,502.572 L961.685,507.685 L963.316,508.529 L963.394,505.981 L963.819,505.865 L965.815,510.134 L969.791,514.415 L973.58,516.701 L975.034,516.446 L975.711,516.792 L976.105,517.834 L975.858,519.67 L974.995,518.972 L973.661,518.896 L973.455,520.322 L976.373,521.999 L978.562,522.496 L979.14,523.321 L979.717,523.083 L979.222,522.556 L982.013,524.524 L982.443,526.075 L985.001,528.242 L990.164,534.454 L994.495,541.74 L995.905,542.803 L996.054,543.938 L997.053,544.692 L998.678,550.447 L999.416,558.514 L1000.5,558.984 L1000.59,563.486 L999.893,564.937 L1000.14,565.454 L1002.18,565.361 L1000.01,565.868 L1000.28,573.828 L999.926,574.162 L999.914,581.965 L1001.13,584.459 L1002.08,584.697 L1001.86,585.671 L1002.35,586.635 L1002.46,584.91 L1003.52,585.451 L1004.41,582.032 L1004.14,579.091 L1004.69,576.261 L1004.4,575.036 L1005.18,566.562 L1004.33,565.464 L1002.48,565.006 L1004.27,565.146 L1005.66,566.686 L1006,596.007 L1006.79,596.214 L1007.22,581.365 L1008.23,568.666 L1009.13,568.627 L1010.19,569.501 L1013.58,568.984 L1020.06,565.985 L1025.29,561.37 L1027.88,556.769 L1027.78,555.198 L1028.31,555.009 L1029.12,555.677 L1029.2,556.93 L1026.93,561.134 L1022.79,565.496 L1018.81,568.1 L1014.71,569.859 L1014.3,570.704 L1014.74,577.869 L1014.33,582.4 L1015.01,585.381 L1015.47,585.898 L1016.64,584.987 L1015.56,585.992 L1016.24,586.733 L1017.34,585.838 L1016.26,586.802 L1018.47,588.064 L1018.18,588.483 L1015.62,587.967 L1013.75,588.563 L1012.92,589.924 L1012.64,596.979 L1013.25,597.098 L1014.06,595.628 L1017.55,593.879 L1019.8,592.021 L1019.79,590.66 L1018.49,589.318 L1018.64,588.205 L1020.21,588.835 L1024.38,587.967 L1028.3,587.848 L1028.71,587.241 L1027.99,588.633 L1029.33,590.858 L1030.18,590.302 L1029.17,588.483 L1029.28,587.48 L1031.81,585.423 L1035.04,585.84 L1035.39,581.289 L1033,581.667 L1032.56,584.35 L1031.8,584.419 L1032.43,582.203 L1032.23,580.226 L1031.28,578.537 L1030.05,572.107 L1029.17,572.306 L1030.01,572.028 L1029.72,570.537 L1028.88,570.597 L1029.69,570.487 L1029.14,564.236 L1029.71,560.37 L1030.1,559.367 L1030.95,559.347 L1032.78,577.48 L1033.42,578.275 L1035.83,578.534 L1036.48,578.375 L1036.75,574.589 L1035.72,574.551 L1035.61,576.785 L1035.6,574.813 L1034.58,574.328 L1034.38,576.729 L1034.49,574.328 L1033.87,573.931 L1033.99,570.409 L1034.77,570.679 L1034.78,572.667 L1037.75,572.46 L1037.98,571.057 L1034.09,569.852 L1034.21,568.612 L1036.68,568.755 L1037.19,567.547 L1034.87,567.03 L1037.24,567.451 L1037.2,566.402 L1036.57,565.925 L1037.28,566.18 L1037.07,565.281 L1037.46,565.726 L1039.33,561.051 L1034.36,557.855 L1041.33,561.178 L1043.12,558.65 L1036.66,555.584 L1036.34,556.171 L1037.66,556.645 L1037.08,557.479 L1035.16,556.466 L1034.62,556.887 L1034.37,556.458 L1032.92,556.789 L1034.91,554.893 L1030.75,549.448 L1032.74,551.503 L1035.11,549.398 L1037.13,549.269 L1038.87,548.1 L1037.72,546.799 L1028.69,548.243 L1028.51,547.742 L1037.9,545.818 L1040.82,550.613 L1045,555.075 L1049.27,555.383 L1050.27,557.53 L1051.49,557.804 L1051.55,557.411 L1050.11,556.993 L1049.94,555.333 L1048.74,554.508 L1049.47,554.439 L1049.98,555.274 L1051.14,554.332 L1052.39,554.27 L1057.43,557.075 L1057.9,556.94 L1059.22,553.87 L1056.45,548.026 L1053.94,544.645 L1053.74,543.721 L1054.28,542.896 L1055.25,542.936 L1055.69,543.649 L1055.78,542.747 L1056.41,542.488 L1057.51,543.747 L1058.62,543.393 L1059.24,542.2 L1058.61,541.286 L1060.51,538.9 L1064.76,536.326 L1064.27,537.199 L1061.12,539.624 L1062.86,542.576 L1068.93,542.129 L1070.49,539.674 L1072.94,538.58 L1075.22,536.791 L1075.45,535.887 L1076.92,535.569 L1078.06,536.97 L1076.02,537.904 L1075.55,540.002 L1078.22,540.717 L1079.74,533.859 L1079.79,535.241 L1080.89,535.638 L1080.88,536.453 L1081.68,537.348 L1085.66,537.689 L1086.9,537 L1088.99,537.914 L1091.03,539.594 L1090.96,540.581 L1091.51,539.919 L1091.25,538.768 L1091.64,538.507 L1092.61,538.561 L1095.12,540.107 L1096.54,539.439 L1097.92,540.576 L1099.33,537.658 L1102.43,536.862 L1103.06,538.86 L1102.73,538.294 L1099.75,538.393 L1100.04,541.633 L1101.1,542.16 L1103.33,542.081 L1102.88,539.685 L1103.61,539.685 L1103.39,540.689 L1104.05,542.17 L1103.86,539.785 L1105.29,540.451 L1112.52,538.335 L1117.76,539.512 L1122.18,536.86 L1124.84,537.101 L1125.6,536.65 L1125.1,537.209 L1123.19,537.001 L1118.67,539.967 L1118.59,540.603 L1118.98,541.042 L1126.24,542.074 L1126.94,537.482 L1126.18,537.264 L1130.07,537.813 L1129.77,537.89 L1128.39,543.307 L1129.06,541.866 L1129.55,542.044 L1130.56,541.011 L1131.79,538.329 L1136.13,539.261 L1136.77,538.949 L1136.34,539.298 L1136.41,540.164 L1137.42,541.586 L1137.93,541.666 L1139.41,541.308 L1139.75,539.352 L1139.57,541.284 L1141.07,542.27 L1142.79,542.151 L1142.9,542.702 L1144.37,542.795 L1144.98,541.332 L1145.33,541.53 L1144.48,542.882 L1146.31,543.799 L1146.58,542.246 L1148.83,541.342 L1148.61,543.801 L1148.03,543.468 L1147.92,542.216 L1147.15,542.102 L1146.6,542.526 L1146.44,543.829 L1148.44,544.201 L1149.39,543.824 L1150.21,544.889 L1151.3,544.999 L1156.07,544.699 L1153.99,545.088 L1154.08,547.293 L1156.7,546.877 L1156.04,545.08 L1156.8,546.893 L1157.39,546.893 L1165.76,542.862 L1166.68,539.721 L1166.6,534.378 L1167.1,534.385 L1167.06,533.376 L1167.37,533.399 L1167.56,542.711 L1168.6,541.916 L1168.59,539.84 L1168.8,541.773 L1169.95,540.922 L1169.96,538.218 L1170.27,538.202 L1170.42,540.572 L1172.18,539.268 L1171.68,536.89 L1170.18,535.912 L1171.84,536.811 L1172.33,539.172 L1174.92,536.381 L1173.73,535.626 L1172.59,536.954 L1173.64,535.562 L1172.74,534.974 L1171.73,536.167 L1172.67,534.95 L1172,534.513 L1170.63,534.6 L1169.48,535.244 L1169.6,535.777 L1169.29,535.236 L1170.61,534.521 L1172.07,534.433 L1174.2,535.777 L1177.02,533.034 L1176.46,532.374 L1177.23,532.84 L1179.4,528.062 L1178.91,528.453 L1178.07,528.075 L1178.68,528.018 L1178.91,527.47 L1178.24,527.232 L1179.32,527.416 L1179.48,527.935 L1180.97,523.528 L1180.42,523.148 L1181,523.437 L1181.83,521.045 L1183.42,514.256 L1184.03,509.78 L1183.73,506.87 L1182.71,503.1 L1182.41,502.432 L1181.87,502.382 L1182.37,502.213 L1178.75,490.074 L1177.34,487.35 L1172.47,483.89 L1169.49,479.346 L1164.65,474.613 L1162.31,473.47 L1162.17,475.058 L1161.25,474.812 L1161.38,474.215 L1161.96,474.335 L1162.2,473.41 L1160.11,472.097 L1159.52,471.103 L1158.71,471.819 L1159.57,470.467 L1158.81,470.208 L1157.97,467.305 L1157.22,466.593 L1159.19,466.672 L1159.11,465.708 L1156.74,462.725 L1155.92,463.391 L1155.66,464.465 L1156.39,466.881 L1156.86,467.179 L1155.94,467.408 L1154.66,465.071 L1153.33,464.554 L1153.84,464.226 L1154.06,461.422 L1153.1,461.591 L1153.06,461.233 L1152.08,461.889 L1152.04,465.052 L1152.92,465.171 L1151.57,465.171 L1151.69,464.326 L1150.78,463.12 L1148.75,463.109 L1147.22,462.347 L1146.68,460.175 L1147.44,458.407 L1145.43,455.904 L1144.68,455.515 L1140.71,455.396 L1140.23,455.585 L1139.97,457.086 L1137.53,454.561 L1136.69,454.72 L1136.62,454.143 L1134.95,453.079 L1132.41,450.34 L1130.6,450.738 L1130.19,449.156 L1129.65,449.349 L1129.49,450.411 L1127.53,450.357 L1127.21,451.883 L1127.6,453.57 L1126.93,450.73 L1127.73,449.504 L1130.57,448.168 L1132.98,448.081 L1137.17,449.211 L1140.98,448.21 L1143.32,447.133 L1145.1,445.212 L1145.61,441.146 L1143.85,436.333 L1144.42,427.98 L1143.06,421.724 L1143.66,416.681 L1141.67,409.367 L1141.72,406.477 L1142.67,404.259 L1145.98,401.873 L1147.34,400.268 L1148.27,395.575 L1149.57,391.867 L1152.6,390.399 L1154.18,388.587 L1154.27,383.076 L1155.07,380.312 L1156.47,377.882 L1160.32,377.093 L1164.45,378.916 L1167.5,377.149 L1168.79,375.519 L1169.19,373.185 L1168.02,370.978 L1166.23,369.721 L1161.04,368.431 L1160.44,367.726 L1160.37,365.574 L1160.7,364.839 L1163.81,363.133 L1168.38,359.178 L1169.07,357.386 L1168.7,353.539 L1169.38,346.758 L1171.72,342.959 L1174.58,340.405 L1177.66,338.774 L1180.06,335.831 L1178.94,332.86 L1173.41,330.514 L1171.88,329.261 L1170.92,327.008 L1170.96,325.902 L1173.12,324.518 L1177.3,323.488 L1178.19,321.304 L1178.91,320.748 L1183.39,319.35 L1187.81,320.48 L1189.03,319.743 L1189.98,317.775 L1187.55,307.079 L1188.7,299.191 L1189.83,295 L1190.51,294.584 L1195.61,294.428 L1198.89,292.05 L1202.35,290.969 L1202.47,289.504 L1200.74,287.299 L1199.44,282.453 L1203.31,278.397 L1204.27,274.158 L1205.23,272.815 L1206.86,272.375 L1209.01,276.104 L1211.27,276.289 L1211.48,275.803 L1209.81,271.849 L1209.49,269.786 L1209.63,265.489 L1210.39,263.683 L1211.63,263.035 L1212.78,263.33 L1215.15,265.731 L1217.13,268.959 L1218.97,269.478 L1219.33,265.321 L1223.14,264.782 L1225.31,263.289 L1226.31,259.826 L1233.47,249.602 L1234.56,248.995 L1234.92,247.619 L1234.51,245.611 L1235.98,242.605 L1240.09,242.446 L1241.6,245.628 L1243.89,247.222 L1245.2,247.146 L1246.06,245.643 L1248.26,246.808 L1250.41,246.495 L1252.58,244.783 L1253.43,245.203 L1254.88,248.482 L1258.58,246.365 L1260.17,247.165 L1265.35,246.87 L1266.13,248.851 L1268.34,247.78 L1269.05,248.941 L1271.14,247.3 L1272.71,247.669 L1274.59,246.17 L1275.55,245.957 L1278.66,248.461 L1280.11,246.554 L1283.75,245.617 L1285.5,244.376 L1288.18,240.289 L1288.62,240.358 L1289.16,241.755 L1293.47,240.847 L1295.47,242.876 L1297.82,244.198 L1298.03,245.565 L1298.81,246.701 L1301.44,246.752 L1304.03,249.661 L1305.11,250.248 L1305.6,251.39 L1307.24,252.51 L1308.8,252.81 L1308.98,254.701 L1310.45,255.027 L1312.72,257.14 L1312.41,259.006 L1313.07,260.778 L1316.18,261.764 L1317.83,262.968 L1319.63,265.341 L1320.12,267.191 L1322.79,267.049 L1325.24,264.906 L1326.31,265.314 L1328.22,264.466 L1332.36,266.361 L1334.23,268.8 L1339.13,269.28 L1341.96,270.418 L1343.72,274.317 L1343.58,279.71 L1342.85,282.306 L1343.66,282.996 L1344.43,284.723 L1343.94,285.229 L1344.16,290.725 L1343.66,291.038 L1345.87,292.79 L1347.37,292.761 L1349.79,294.288 L1350,298.751 L1349.07,299.23 L1349.4,303.016 L1348.58,304.992 L1347.38,306.292 L1346.46,314.968 L1343.89,318.542 L1339.82,320.588 L1338.91,322.706 L1337.14,322.755 L1335.13,325.104 L1336.68,327.806 L1337.66,328.176 L1337.4,328.824 L1337.89,330.176 L1337.39,332.702 L1340.49,343.018 L1341.94,344.869 L1342.7,347.187 L1345.36,349.921 L1346.48,352.233 L1347.07,356.422 L1346.81,359.703 L1346.03,363.733 L1344.95,364.372 L1343.87,366.162 L1341.56,367.295 L1341.56,370.443 L1340.5,371.851 L1337.39,373.893 L1335.53,377.531 L1335.79,377.829 L1334.52,378.643 L1330.79,379.58 L1326.25,384.413 L1325.37,389.866 L1326.08,390.266 L1324.36,392.626 L1324.53,393.729 L1323.35,395.259 L1322.22,395.757 L1323.14,398.898 L1323.75,399.379 L1323.45,401.478 L1323.77,402.265 L1325.7,403.178 L1327.37,402.697 L1330.16,403.247 L1334.67,403.06 L1337.38,403.547 L1339.58,402.946 L1343,403.12 L1344.54,403.562 L1346.29,405.479 L1348.49,405.774 L1350.27,405.418 L1351.85,405.859 L1354.35,407.339 L1354.13,408.476 L1355.87,412.094 L1355.43,412.943 L1355.8,413.504 L1358.3,413.238 L1364.31,413.85 L1365.01,414.21 L1365.25,415.59 L1366.17,416.497 L1369.08,416.673 L1371.88,418.562 L1372.6,418.425 L1373.36,417.486 L1374.56,418.011 L1376.65,417.839 L1377.37,419.184 L1379.01,420.029 L1379.83,421.473 L1381.29,421.004 L1382.57,421.234 L1384.34,422.462 L1386.04,421.868 L1388.57,423.646 L1391.51,422.794 L1391.65,422.119 L1394.22,420.96 L1397.77,420.789 L1401.59,422.519 L1401.91,423.045 L1401.6,424.192 L1402.73,425.181 L1403.83,425.222 L1405.21,426.574 L1406.68,426.591 L1409.07,428.216 L1410.22,430.002 L1411.19,433.416 L1413.32,435.437 L1413.32,436.559 L1414.23,438.56 L1413.94,440.783 L1414.46,441.271 L1416.15,440.946 L1417.07,442.481 L1419.19,444.279 L1420.01,448.475 L1421.69,449.274 L1423.93,449.505 L1426.09,448.66 L1428.22,450.333 L1431.43,449.478 L1433.24,451.03 L1435.04,451.769 L1437.16,453.95 L1439.85,455.78 L1441.21,455.909 L1442.92,454.697 L1445.25,457.506 L1446.7,457.502 L1449.29,459.852 L1453.42,461.37 L1453.98,462.438 L1454.1,464.755 L1456.39,466.326 L1457.59,463.872 L1459.09,455.165 L1458.34,453.078 L1455.05,449.925 L1455.03,449.256 L1460,445.044 L1459.88,441.007 L1463.11,436.215 L1464.36,432.157 L1463.77,422.05 L1462.22,420.745 L1458.25,418.874 L1457.67,417.643 L1457.84,416.54 L1460.01,412.081 L1466.62,405.058 L1468.53,402.287 L1469.28,401.528 L1470,401.641 L1471.61,400.77 L1473.11,401.629 L1474.11,401.535 L1474.52,403.234 L1476.81,403.413 L1477.33,404.559 L1480.22,405.151 L1480.08,406.23 L1481.25,407.376 L1483.94,408.123 L1483.51,410.64 L1486.24,411.944 L1487.46,413.234 L1488.51,412.899 L1489.34,414.669 L1490.13,413.989 L1491.56,413.89 L1493.75,414.724 L1494.59,413.715 L1495.35,414.469 L1497.39,413.818 L1498.58,412.613 L1499.63,413.146 L1501.67,412.293 L1502.16,412.63 L1504.33,412.387 L1507.83,411.445 L1509.28,412.763 L1510.15,412.018 L1511.45,412.99 L1511.83,412.244 L1512.47,412.116 L1514.34,413.857 L1515.68,414.281 L1517.73,414.392 L1518.52,414.007 L1519.88,415.346 L1523.07,417.221 L1523.65,418.15 L1525.3,418.827 L1526.38,420.043 L1528.97,420.738 L1529.88,422.717 L1530.61,422.763 L1533.09,425.797 L1533.2,433.279 L1533.67,434.095 L1534.69,434.464 L1534.96,436.008 L1539.95,440.642 L1542.07,445.866 L1542.63,446.09 L1542.58,447.828 L1543.83,451.911 L1544.59,452.924 L1546.18,454.228 L1548.91,455.118 L1550.29,456.173 L1551.9,458.532 L1553.99,459.743 L1554.33,460.311 L1553.96,461.007 L1555.97,460.725 L1556.69,461.283 L1559.8,461.549 L1560.63,462.509 L1563.36,462.651 L1565.01,462.351 L1565.47,461.14 L1566.02,461.693 L1566.9,461.522 L1568.16,460.258 L1569.25,460.597 L1569.05,460.031 L1569.89,459.042 L1570.9,459.362 L1573.81,457.346 L1575.71,458.057 L1576.85,457.645 L1580.17,455.519 L1580.74,455.587 L1584.12,452.673 L1589,451.618 L1589.61,452.576 L1594.75,447.904 L1595.22,448.428 L1596.64,447.232 L1606.67,433.943 L1613.77,438.3 L1623.7,439.906 L1626.43,440.645 L1629.12,442.078 L1637.24,442.789 L1644.51,444.843 L1646.78,446.094 L1651.28,445.15 L1653.32,445.297 L1654.87,446.505 L1657.73,445.656 L1658.28,444.514 L1657.96,443.932 L1654.61,441.457 L1653.78,439.585 L1652.81,439.687 L1650.36,437.044 L1648.26,433.822 L1648.45,431.805 L1649.89,429.299 L1650.6,423.089 L1648.9,422.497 L1647.11,421.029 L1646.79,417.396 L1647.83,416.851 L1648.91,417.167 L1651.36,418.981 L1656.56,420.342 L1659.03,416.566 L1660.21,413.457 L1662.89,413.747 L1664.84,411.372 L1666.99,407.282 L1667.56,406.905 L1669.78,408.082 L1673.33,408.582 L1673.22,410.766 L1674.77,413.619 L1673.83,414.586 L1673.74,416.25 L1669.95,418.884 L1667.49,422.012 L1665.47,423.592 L1666.13,425.579 L1665.36,429.161 L1666.37,429.989 L1665.12,433.212 L1661.67,433.574 L1660.3,434.588 L1661.25,438.727 L1662.77,441.789 L1662.05,442.639 L1660,443.415 L1662.13,449.608 L1661.47,452.397 L1660.34,454.522 L1661.6,457.078 L1661.27,461.025 L1662.11,462.277 L1665.72,460.28 L1665.7,461.546 L1666.68,462.11 L1666.09,464.02 L1667.99,466.688 L1668.33,468.065 L1665.94,471.697 L1667.15,478.006 L1666.8,479.5 L1664.11,481.523 L1662.68,484.017 L1660.75,484.87 L1661.61,486.227 L1660.87,487.501 L1661.38,489.028 L1660.71,489.943 L1661.26,491.881 L1662.98,494.059 L1663.77,494.151 L1664.61,494.984 L1664.93,496.047 L1665.85,496.881 L1668.73,498.877 L1669.78,499.06 L1670.97,500.463 L1672.36,501.04 L1674.22,503.228 L1674.83,505.896 L1675.66,506.752 L1675.78,507.999 L1675.27,508.924 L1675.74,509.897 L1679.37,510.001 L1681.72,511.451 L1682.23,512.494 L1683.85,512.673 L1687.93,515.741 L1690.27,516.537 L1691.96,518.693 L1692.52,518.391 L1693.67,522.426 L1694.69,522.685 L1694.95,524.098 L1695.84,524.275 L1695.72,525.267 L1697.28,526.736 L1700.23,527.645 L1703.27,525.999 L1704.14,525.007 L1704.84,525.044 L1711.25,532.766 L1711.96,534.763 L1714.38,538.286 L1715.11,540.712 L1716.32,542.037 L1716.16,542.517 L1724.85,548.067 L1729.96,552.42 L1724.17,557.452 L1722.65,558.216 L1718.66,562.18 L1713.1,564.993 L1711.14,566.833 L1714.11,571.543 L1728.53,607.622 L1741.4,621.485 L1742.31,621.091 L1744.75,622.582 L1746.09,622.213 L1746.82,622.543 L1750.84,620.879 L1753.22,620.588 L1754.53,621.188 L1759.81,620.951 L1760.7,621.901 L1762.71,622.502 L1768.42,619.98 L1772.49,616.409 L1773.69,614.335 L1776.57,612.374 L1778,613.863 L1780.62,613.679 L1781.03,614.219 L1782.68,614.187 L1784.34,615.939 L1791.63,614.8 L1798.04,611.562 L1803.23,610.487 L1804.64,609.118 L1809.94,606.232 L1818.17,600.004 L1824.18,597.862 L1825.68,598.618 L1827.14,598.635 L1828.24,599.198 L1828.35,599.883 L1829.98,600.402 L1831.05,601.66 L1832.94,601.663 L1835.23,603.082 L1839.39,602.73 L1840.75,603.058 L1842.56,604.466 L1843.55,606.114 L1845.69,606.855 L1846.13,607.62 L1845.81,609.477 L1842.58,610.134 L1841.9,612.286 L1855.87,634.891 L1858.55,640.721 L1859.48,641.025 L1860.58,640.571 L1861.86,642.261 L1861.91,644.374 L1862.84,645.86 L1862.81,647.909 L1859.73,650.935 L1859.8,652.162 L1858.3,655.058 L1858.24,656.102 L1856.32,658.593 L1856.3,661.208 L1859.14,664.507 L1859.37,667.91 L1860.53,670.559 L1860.37,672.411 L1862.62,674.661 L1885.68,683.167 L1886.43,685.89 L1888.94,686.789 L1889.43,689.361 L1890.81,689.486 L1892.79,690.493 L1894.05,692.376 L1896.23,699.495 L1898.37,703.777 L1898.47,707.025 L1897.67,708.827 L1899.57,709.481 L1902.33,707.728 L1905.85,709.996 L1907.95,707.919 L1910.33,707.491 L1913.6,707.995 L1916.41,710.357 L1921.55,710.797 L1922.37,710.535 L1926.35,706.495 L1927.08,703.721 L1929.14,700.115 L1931.08,698.419 L1932.58,698.064 L1935.25,699.79 L1937.82,699.354 L1937.41,696.48 L1937.71,695.763 L1938.68,694.776 L1940.94,694.071 L1941.82,694.018 L1943.29,697.251 L1944.34,697.083 L1945.45,697.549 L1946.59,699.146 L1945.64,701.399 L1947.28,703.403 L1946.63,706.078 L1948.85,712.495 L1950.03,713.414 L1950.51,714.442 L1950.27,717.949 L1951.09,720.542 L1953.27,723.498 L1952.85,727.013 L1954.1,729.031 L1952.9,729.962 L1953.26,732.02 L1951.73,733.939 L1950.32,734.644 L1949.8,736.938 L1949.78,740.312 L1950.32,742.232 L1949.51,748.93 L1950.92,757.25 L1952,758.452 L1951.53,760.52 L1954.62,763.423 L1978.02,799.724 L1966.81,808.859 L1965.82,810.707 L1962.65,813.383 L1961.46,815.508 L1959.67,816.511 L1957.22,820.66 L1956.06,821.522 L1956.05,823.564 L1955.47,824.623 L1955.88,827.028 L1954.89,828.25 L1955.2,830.071 L1954.69,830.733 L1954.84,833.937 L1955.8,834.825 L1955.65,835.867 L1953.11,836.911 L1952.42,838.276 L1951.28,839.212 L1947.05,840.034 L1945.53,841.222 L1943.19,842.152 L1940.94,842.112 L1938.34,844.992 L1936.13,846.058 L1934.3,845.987 L1932.59,847.127 L1931.75,846.641 L1928.15,846.62 L1926.64,845.31 L1922.88,845.629 L1918.43,844.47 L1917.34,845.685 L1915.21,845.776 L1914.65,845.399 L1912.61,847.447 L1909.12,846.036 L1907.13,846.414 L1905.88,847.437 L1903.97,850.783 L1902.81,851.312 L1901.86,853.982 L1902.51,855.645 L1902.57,857.796 L1899.23,861.676 L1896.81,860.905 L1895.75,861.58 L1896.13,862.187 L1895.82,862.854 L1896.94,863.346 L1898.12,862.924 L1898.9,863.452 L1899.81,866.139 L1898.65,869.648 L1900.2,870.973 L1903.1,872.066 L1904.42,875.176 L1905.81,875.513 L1907.89,877.402 L1909.42,877.531 L1910.73,879.963 L1915.14,882.474 L1916.6,882.238 L1917.89,880.704 L1919.71,881.195 L1922.26,884.3 L1922.34,887.258 L1923.76,889.01 L1923.99,890.844 L1925.43,891.242 L1926.54,893.01 L1929.46,893.626 L1931.59,896.438 L1933.82,896.424 L1934.35,897.114 L1934.36,901.156 L1933.5,901.47 L1933.22,903.068 L1931.76,903.678 L1931.74,905.12 L1930.02,907.03 L1928.71,911.557 L1926.91,914.455 L1926.68,916.175 L1965.05,1046.33 L2009.06,976.831 L2051.01,1002.58 L2059.52,1004.94 L2077.91,1005.2 L2109.82,1000.32 L2114.12,999.291 L2122.48,991.209 L2121.14,978.588 L2121.21,959.52 L2122.07,942.77 L2128.83,942.865 L2138.18,944.653 L2148.95,938.03 L2152.14,935.31 L2151.29,934.429 L2150.02,934.303 L2149.13,929.337 L2149.35,924.075 L2150.18,920.778 L2152.97,922.209 L2157.85,926.53 L2162.29,928.91 L2168.63,930.673 L2169.9,930.426 L2170.9,929.609 L2173.2,931.013 L2174.89,930.488 L2180.05,931.049 L2180.21,933.863 L2181.75,936.025 L2182.52,938.618 L2184.82,941.404 L2184.66,942.873 L2186.14,943.913 L2186.75,944.963 L2189.01,945.732 L2188.66,947.795 L2190.24,948.692 L2190.24,950.253 L2190.87,951.088 L2191.26,951.271 L2193.13,949.796 L2194.11,952.121 L2196.5,951.986 L2197.25,953.138 L2198.67,953.534 L2200.54,952.215 L2201.28,952.932 L2202.32,952.297 L2206.76,951.356 L2209.99,952.39 L2211.01,953.466 L2212.12,953.603 L2213.65,956.259 L2214.92,956.264 L2218.76,958.742 L2219.57,960.908 L2224.58,955.626 L2227.99,954.65 L2230.12,955.092 L2232.39,954.351 L2234.11,953.192 L2235.26,949.769 L2236.96,948.173 L2239.75,946.545 L2243.03,941.456 L2246.16,938.682 L2250.2,937.248 L2252.21,932.551 L2252.99,933.607 L2254.29,933.99 L2255.11,933.671 L2257.03,934.361 L2258.44,935.775 L2258.75,938.43 L2260.82,942.011 L2263.25,944.832 L2266.2,946.587 L2267.41,949.93 L2272.96,956.064 L2270.03,957.259 L2266.57,959.879 L2264.8,961.762 L2262.66,965.642 L2265.24,968.977 L2271.24,975.032 L2275.04,983.658 L2269.67,993.382 L2265.6,997.078 L2264.29,999.104 L2262.32,1000.02 L2260.45,1001.92 L2259.19,1006 L2257.8,1007.18 L2256.99,1008.7 L2257.12,1010.54 L2257.77,1010.94 L2256.57,1017.54 L2250.15,1020.89 L2248.21,1023.62 L2247,1025.9 L2246.04,1030.83 L2246.72,1032.79 L2242.36,1037.52 L2234.62,1041.86 L2231.97,1044.32 L2229.5,1047.68 L2229.03,1048.6 L2229.22,1051.85 L2229.98,1058.49 L2230.83,1060.17 L2229.76,1062.57 L2226.93,1067.62 L2225.05,1068.62 L2224.11,1070.53 L2221.15,1073.13 L2220.37,1076.58 L2217.72,1081.45 L2213.26,1085.67 L2212.36,1088.28 L2203.93,1099.18 L2200.71,1106.32 L2206.37,1109.32 L2207.63,1111.84 L2208.27,1112.29 L2208.29,1119.89 L2207.89,1121.1 L2204.12,1127.33 L2198.11,1132.11 L2195.6,1133.05 L2193.42,1134.76 L2192.06,1137.85 L2191.14,1138.47 L2190.04,1140.6 L2193.22,1142.87 L2194.46,1145.85 L2195.89,1147.51 L2200.93,1149.35 L2201.75,1150.57 L2205.34,1153.34 L2206.45,1155.03 L2206.76,1157.64 L2208.2,1159.63 L2209.86,1159.84 L2210.32,1160.41 L2211.21,1160.06 L2214.69,1164.33 L2215.3,1164.36 L2216.28,1165.5 L2216.03,1167.46 L2215.44,1168.31 L2215.73,1170.57 L2227.2,1191.87 L2223.24,1190.49 L2219.05,1191.34 L2217.6,1193.06 L2216.71,1199.15 L2215.82,1200.34 L2214.76,1204.23 L2214.06,1204.9 L2214.51,1206.59 L2215.4,1207.75 L2214.34,1208.86 L2213.16,1208.95 L2212.14,1210.39 L2211.21,1210.82 L2210.97,1212.74 L2209.72,1214.33 L2206.71,1216.56 L2204.58,1218.92 L2200.28,1220.63 L2198.74,1222.83 L2197.99,1226.52 L2197.21,1227.89 L2194.98,1229.44 L2194.97,1230.59 L2193.42,1231.25 L2192.46,1232.92 L2190.4,1233.97 L2189.19,1236.88 L2187.29,1236.45 L2183.65,1238.16 L2181.11,1237.95 L2179.06,1239.88 L2177.96,1240.15 L2176.93,1241.92 L2175.03,1242.52 L2174.29,1244.38 L2170.61,1245.41 L2170.22,1246.18 L2169.17,1246.53 L2167.76,1248.86 L2166.82,1248.47 L2165.14,1248.97 L2164.46,1248.07 L2160.93,1248.29 L2160.64,1247.76 L2158.36,1248.98 L2156.84,1248.92 L2154.72,1248.01 L2149.86,1241.75 L2147.72,1241.29 L2145.12,1241.93 L2144.19,1244.1 L2142.05,1246.52 L2141.33,1250.87 L2141.62,1253.17 L2139.58,1260.44 L2139.14,1260.9 L2137.82,1260.85 L2135.83,1263.46 L2134.41,1264.55 L2134.3,1265.92 L2135.14,1266.91 L2134.82,1268.02 L2135.45,1269.12 L2136.81,1288.44 L2131.95,1295.51 L2128.12,1298.34 L2130.71,1303.24 L2135.16,1309.35 L2131.25,1311.62 L2129.1,1314.82 L2131.78,1318.87 L2132.57,1322.95 L2132.55,1327.71 L2142.28,1328.16 L2140.7,1329.42 L2139.2,1332.21 L2139.87,1334.43 L2136.7,1339.61 L2132.96,1348.9 L2135.02,1348.74 L2141.09,1351.18 L2143.1,1351.16 L2144.26,1351.92 L2145.64,1351.98 L2150.7,1354.11 L2150.95,1356.78 L2152.66,1357.61 L2155.69,1354.9 L2157.7,1354.74 L2159.96,1355.54 L2162.63,1354.9 L2167.24,1358.93 L2170.64,1358.75 L2173.01,1357.93 L2174.48,1360.62 L2176.8,1360.89 L2179.5,1363.58 L2180.24,1366.14 L2180.95,1366.31 L2183.3,1369.39 L2187.55,1370.48 L2193.52,1371.07 L2196.53,1371.2 L2200.79,1370.35 L2204.52,1370.73 L2209.99,1373.71 L2217.02,1374.13 L2221.55,1377.7 L2228.72,1377.15 L2235.43,1379.58 L2240.92,1383.16 L2244.41,1395.08 L2241.13,1397.17 L2239.83,1399.23 L2238.82,1399.28 L2230.79,1403.62 L2216.23,1401.43 L2213.28,1403.67 L2205.03,1416.33 L2202.41,1417.46 L2199.82,1420.86 L2196.37,1422.9 L2196.67,1427 L2194.92,1430 L2191.67,1431.94 L2190.54,1433.17 L2188.8,1432.91 L2187.41,1435.94 L2185.85,1437.94 L2186.04,1440.11 L2185.48,1440.57 L2185.59,1443.07 L2189.52,1446.61 L2190.2,1448.44 L2192.03,1450.5 L2199.41,1453.5 L2201.25,1453.36 L2204.11,1452.01 L2204.62,1452.38 L2204.34,1453.56 L2205.24,1454.31 L2207.92,1453.62 L2208.01,1455.59 L2211.71,1461.07 L2211.28,1461.71 L2214.5,1465.29 L2214.49,1467.12 L2215.6,1470.1 L2214.36,1474.49 L2213.08,1475 L2210.13,1474.29 L2211.84,1475.14 L2214.11,1477.38 L2219.9,1480.49 L2216.38,1491.6 L2216.51,1494.92 L2216.83,1495.72 L2217.68,1496.15 L2217.4,1497.07 L2219.35,1499.81 L2219.54,1502.13 L2221.11,1502.84 L2222.05,1504.72 L2220.59,1506.73 L2220.35,1510.38 L2221.26,1512.69 L2220.92,1514.21 L2221.13,1514.57 L2222.2,1514.18 L2221.93,1515.32 L2221.17,1515.65 L2221.48,1516.49 L2220.39,1520.34 L2219.06,1522.4 L2219.56,1523.6 L2219.36,1525.51 L2218.77,1526.33 L2219.18,1527.32 L2218.9,1528.36 L2220.61,1531.58 L2220.38,1532.25 L2221.52,1534.88 L2221.18,1535.71 L2221.65,1537.73 L2221,1538.94 L2221.61,1540.31 L2219.85,1545.33 L2219.79,1547.05 L2218.52,1547.71 L2218.28,1548.88 L2216.86,1551.02 L2214.5,1552.02 L2213.79,1553.1 L2209.33,1556.52 L2194.12,1575.77 L2191.29,1577.72 L2188.69,1578.57 L2185.77,1578.53 L2185.11,1579.54 L2184.03,1579.97 L2184,1582.98 L2184.66,1584 L2184.7,1585.48 L2183.71,1586.84 L2183.62,1588.62 L2184.59,1589.72 L2186.15,1593.65 L2185.53,1599.77 L2187.98,1600.33 L2188.4,1600.89 L2188.59,1602.56 L2188.06,1604.06 L2188.52,1604.92 L2188.53,1607.37 L2189.81,1608.87 L2188.97,1610.91 L2189.9,1612.54 L2189.59,1614.88 L2190.68,1621.7 L2191.7,1622.92 L2192.33,1622.74 L2193.49,1624.35 L2195.91,1625.64 L2198.25,1628.99 L2200.97,1630.35 L2199.8,1639.81 L2203.04,1644.28 L2204.2,1646.91 L2206.33,1649.43 L2208.78,1650.18 L2216.93,1656.48 L2215.98,1656.96 L2214.74,1658.87 L2211.84,1660.98 L2212.26,1666.1 L2211.66,1666.62 L2211.51,1667.77 L2211.86,1670.42 L2212.86,1670.56 L2211.91,1676.29 L2210.03,1676.69 L2207.69,1681.94 L2208.84,1694.76 L2209.52,1696.08 L2208.85,1696.9 L2213.13,1699.11 L2213.66,1698.8 L2215.75,1699.44 L2218.75,1701.61 L2220.48,1702.12 L2227.92,1712.16 L2229.02,1712.75 L2233.82,1712.65 L2235.15,1713.47 L2235.85,1715.1 L2237.1,1716.37 L2240.9,1717.84 L2239.56,1720.91 L2239.99,1726.43 L2240.73,1726.71 L2240.42,1729.11 L2239.57,1729.83 L2238.24,1729.84 L2238.11,1731.03 L2236.17,1734.69 L2233.79,1737.08 L2230.89,1737.89 L2230.09,1741.34 L2229.38,1742.27 L2228.31,1742.55 L2225.97,1744.32 L2224.18,1748.15 L2220.27,1746.85 L2219.1,1746.03 L2217.47,1746.1 L2216.28,1745.37 L2212.35,1745.99 L2209.34,1749.55 L2205.16,1749.15 L2201.17,1751.21 L2200.41,1752.15 L2198.82,1752.31 L2199.18,1770.5 L2214.93,1782.83 L2212.33,1788.04 L2210.44,1788.26 L2206.47,1790.7 L2204.03,1790.74 L2197.96,1788.82 L2181.45,1789.88 L2180.81,1790.56 L2160.22,1797.11 L2161.03,1813.38 L2160.73,1828.22 L2156.12,1831.05 L2152.3,1827.91 L2152.29,1825.81 L2140.03,1827.75 L2135.5,1826.22 L2129.68,1825.91 L2127.24,1827.54 L2120.54,1829.55 L2118,1835.09 L2107.6,1848.14 L2106.86,1847.04 L2103.55,1845.68 L2100.67,1844.98 L2099.31,1844.13 L2097.06,1844.23 L2095.74,1849.7 L2096.06,1852.6 L2095.6,1854.68 L2094.84,1856.1 L2092.67,1858.26 L2092.03,1861.17 L2090.72,1863.84 L2090.82,1864.85 L2088.79,1868.29 L2088.07,1871.7 L2088.37,1873.52 L2086.03,1875.81 L2085.92,1878.27 L2084.57,1880.31 L2081.17,1882.79 L2080.28,1887.01 L2080.88,1887.86 L2071.97,1898.7 L2066.74,1903.33 L2059.5,1923.77 L2059.4,1925.49 L2057.95,1927.47 L2057.93,1928.9 L2056.77,1930.82 L2057.77,1931.3 L2057.44,1932.66 L2053.53,1937.81 L2051.6,1937.99 L2050.37,1938.99 L2049.76,1941.56 L2048.15,1942.92 L2043.82,1944.86 L2042.69,1946.68 L2040.88,1951.96 L2039.37,1954.49 L2040.09,1959.09 L2038.62,1961.61 L2038.73,1962.21 L2039.25,1962.31 L2038.95,1963.56 L2039.6,1964.83 L2041.13,1966.49 L2041.47,1990.75 L2045.1,2001.94 L2043.55,2012.89 L2045.5,2014.12 L2048.65,2014.99 L2052.51,2014.95 L2056.66,2016.12 L2057.26,2016.38 L2057.02,2017.1 L2057.7,2018.21 L2058.68,2018.27 L2062.42,2021.4 L2067.44,2022.99 L2074.01,2021.95 L2075.05,2022.73 L2076.82,2022.19 L2077.61,2022.45 L2078.84,2020.38 L2079.71,2019.54 L2080.26,2019.72 L2087.5,2041.44 L2093.9,2062.64 L2089.85,2080.61 L2082.06,2091.53 L2073.34,2100.51 L2070.29,2100.94 L2065.73,2110.49 L2065.19,2113.28 L2056.1,2120.26 L2043.4,2127.3 L2036.85,2135.66 L2032.56,2136.69 L2031.13,2136.31 L2031.95,2137.53 L2032.02,2139.19 L2030.66,2140.65 L2024.56,2144.42 L2023.11,2145.16 L2019.55,2145.75 L2017.88,2151.22 L2023.29,2160.17 L2023.07,2163.41 L2029.31,2164.15 L2032.51,2175.05 L2033.42,2176.72 L2035.32,2177.8 L2035.28,2180.08 L2036.03,2180.26 L2035.52,2181.36 L2039.42,2184.7 L2055.65,2193.31 L2058.82,2194.19 L2061.95,2196.47 L2066.05,2198.08 L2070.6,2201.03 L2084.38,2206.83 L2086.8,2206.2 L2088.23,2206.64 L2092.3,2217.76 L2095.15,2221.81 L2096.66,2225.22 L2099.94,2228.07 L2098.72,2228.46 L2098.03,2229.83 L2096.22,2230.63 L2094.71,2232.2 L2093.64,2234.28 L2094.44,2238.8 L2092.61,2244.21 L2089.06,2246.13 L2087.97,2247.94 L2088.57,2252.53 L2090.12,2254.52 L2090,2255.79 L2091.59,2258.83 L2092.88,2260.37 L2094.71,2260.79 L2096.13,2262.84 L2097.03,2265.47 L2096.93,2268.36 L2096.51,2269.15 L2098.59,2273.18 L2100.81,2274.45 L2100.42,2278.26 L2094.17,2278.1 L2091.62,2280.8 L2086.36,2280.03 L2083.73,2280.46 L2079.03,2284.11 L2067.35,2279.33 L2066.42,2279.47 L2063.77,2284.41 L2061.79,2289.9 L2060.47,2291.45 L2059.34,2293.94 L2059.03,2298.48 L2060.86,2301.24 L2061.15,2302.5 L2062.47,2303.84 L2059.65,2307.32 L2057.88,2308.19 L2053.27,2313.89 L2049.35,2315.85 L2047.57,2325.09 L2044.11,2337.22 L2048.07,2350.82 L2045.6,2356.24 L2044.4,2372.48 L2043.54,2373.36 L2043.96,2374.7 L2042.91,2377.02 L2040.03,2379.95 L2039.91,2381.24 L2028.18,2403.55 L2025.62,2411.45 L2021.45,2418.29 L2013.06,2429.03 L2011.44,2430.39 L2009.56,2430.8 L2008.2,2430.48 L2006.56,2431.2 L2002.93,2431.23 L2001.64,2431.54 L2000.34,2432.64 L1998.41,2432.23 L1997.28,2432.62 L1994.77,2431.73 L1993.1,2433.54 L1992.25,2433.73 L1992.12,2434.66 L1992.76,2436.21 L1992.34,2437.25 L1992.78,2437.67 L1992.42,2441.24 L1991.66,2442.14 L1990.59,2441.78 L1990.27,2442.66 L1987.6,2443.47 L1984.57,2446.04 L1984.31,2447.4 L1982.83,2447.74 L1983.12,2449.64 L1980.87,2452.13 L1980.06,2456.38 L1978.82,2458.49 L1976.24,2460.04 L1970.29,2461.49 L1968.39,2462.75 L1966.43,2462.75 L1961.4,2464.76 L1960.51,2475.32 L1964.58,2499.24 L1985.52,2527.35 L1981.22,2540.36 L1982.96,2543.3 L1984.19,2547.01 L1986.02,2548.7 L1987.35,2552.96 L1986.63,2555.86 L1987.52,2557.46 L1987.4,2558.57 L1985.8,2561.84 L1986.07,2564.66 L1985.2,2564.71 L1985.05,2565.79 L1984.83,2569.19 L1985.38,2571.71 L1992.35,2579.65 L1995.97,2586.97 L1997.74,2589.55 L2001.44,2598.3 L2004.47,2603.61 L2013.62,2614.19 L2022.37,2622.09 L2029.15,2624.66 L2034.57,2630.28 L2050.43,2635.32 L2050.81,2634.85 L2053.07,2636.1 L2057.58,2636.98 L2058.21,2638.45 L2058.93,2638.92 L2058.12,2641.14 L2057.93,2644.03 L2059.27,2648.35 L2060.92,2650.19 L2060.26,2651.95 L2060.82,2652.81 L2060.64,2653.59 L2059.33,2655 L2055.92,2655.76 L2053.45,2657.88 L2053.71,2658.69 L2053.02,2661.76 L2053.95,2662.86 L2054.63,2664.86 L2056.33,2665.92 L2057.78,2667.95 L2058.39,2671.65 L2057.05,2674.12 L2057.11,2678.57 L2055.24,2680.25 L2058.31,2683.94 L2059.04,2685.97 L2062.36,2688.02 L2062.97,2688.87 L2062.98,2691.73 L2062.35,2694.1 L2063.09,2695.41 L2063.42,2698.65 L2065.19,2702.37 L2064.62,2710.13 L2064.04,2711.09 L2065.81,2715.81 L2066.94,2716.95 L2066.21,2719.5 L2066.35,2720.8 L2065.67,2721.83 L2064.51,2722.36 L2063.48,2724.37 L2062.09,2724.27 L2061.38,2725.28 L2059.66,2725.54 L2056.49,2728.39 L2054.4,2728.94 L2048.47,2728.77 L2047.74,2728.31 L2046.02,2728.85 L2040.13,2728.06 L2036.66,2729.04 L2033.55,2727.47 L2029.89,2727.88 L2027.9,2726.95 L2026.75,2727.53 L2023.47,2726.68 L2021.34,2726.72 L2020.54,2726.14 L2018.73,2726.6 L2017.55,2725.29 L2016.55,2726.07 L2016.59,2727.63 L2015.45,2729.12 L2013.6,2729.56 L2010.42,2728.94 L2010.04,2730.59 L2010.91,2732.24 L2009.2,2735.04 L2008.6,2739.52 L2006.32,2739.17 L2004.07,2740.91 L2002.66,2740.25 L2001.38,2740.85 L2000.71,2740.52 L1999.21,2742.04 L1997.97,2742.2 L1996.85,2744.48 L1995.26,2745.14 L1994.85,2746.12 L1993.72,2745.93 L1991.2,2746.59 L1989.7,2747.87 L1986.75,2747.36 L1985.71,2748.54 L1984.17,2748.43 L1983.35,2749.05 L1982.16,2748.51 L1979.67,2748.59 L1979.31,2749.97 L1977.71,2750.46"/>
   <path fill-rule="evenodd" vector-effect="none" d="M1055.76,553.282 L1050.5,550.062 L1045.03,548.134 L1042.22,548.124 L1040.69,546.751 L1040.53,544.652 L1041.02,543.359 L1042.6,541.946 L1045.49,542.915 L1045.99,540.719 L1046.52,540.56 L1049.53,542.468 L1050.73,543.198 L1054.06,547.196 L1055.95,551.056 L1056.19,553.163 L1055.76,553.282"/>
   <path fill-rule="evenodd" vector-effect="none" d="M971.753,590.678 L970.826,590.002 L970.88,588.581 L970.437,588.432 L969.403,589.257 L966.919,587.81 L965.579,586.237 L965.879,585.488 L965.396,584.086 L965.812,584.236 L966.47,583.351 L968.632,582.407 L968.907,580.76 L970.398,580.102 L971.277,578.621 L972.567,578.532 L975.951,579.774 L977.689,581.155 L978.629,582.318 L979.737,585.865 L980.805,587.652 L977.816,586.624 L973.653,587.061 L973.176,587.657 L973.257,589.386 L971.753,590.678"/>
   <path fill-rule="evenodd" vector-effect="none" d="M976.427,579.098 L974.272,577.816 L971.11,576.932 L970.821,575.709 L972.13,574.269 L972.204,573.086 L973.399,573.116 L974.682,572.36 L976.709,572.609 L977.492,573.162 L977.817,574.318 L980.31,574.05 L981.935,574.914 L984.551,575.441 L983.397,576.773 L981.859,577.339 L978.824,576.743 L976.937,578.065 L976.427,579.098"/>
   <path fill-rule="evenodd" vector-effect="none" d="M958.103,524.651 L957.149,522.425 L957.755,521.871 L958.618,522.412 L959.005,523.512 L958.103,524.651"/>
   <path fill-rule="evenodd" vector-effect="none" d="M959.232,523.833 L959.316,522.173 L960.462,522.151 L962.297,523.531 L959.232,523.833"/>
   <path fill-rule="evenodd" vector-effect="none" d="M980.166,600.475 L979.602,600.118 L979.392,595.474 L980.005,595.567 L980.283,600.158 L980.166,600.475"/>
   <path fill-rule="evenodd" vector-effect="none" d="M979.222,522.556 L978.616,522.129 L977.71,520.946 L979.222,522.556"/>
   <path fill-rule="evenodd" vector-effect="none" d="M958.945,522.017 L958.279,521.561 L959.492,521.135 L958.945,522.017"/>
   <path fill-rule="evenodd" vector-effect="none" d="M1130.4,537.86 L1130.07,537.813 L1131.1,537.542 L1130.4,537.86"/>
  </g>
  <g stroke-width="1" transform="matrix(0.999744,0,0,0.999744,0,0)" stroke-opacity="1" font-size="34.5833" fill="none" stroke-linejoin="bevel" font-style="normal" stroke-linecap="square" stroke="#000000" font-family="MS Shell Dlg 2" font-weight="400"/>
  <g stroke-width="1" transform="matrix(11.808,0,0,11.808,0,0)" stroke-opacity="1" font-size="34.5833" fill="none" stroke-linejoin="bevel" font-style="normal" stroke-linecap="square" stroke="#000000" font-family="MS Shell Dlg 2" font-weight="400"/>
  <g stroke-width="1" transform="matrix(11.808,0,0,11.808,0,0)" stroke-opacity="1" font-size="34.5833" fill="none" stroke-linejoin="bevel" font-style="normal" stroke-linecap="square" stroke="#000000" font-family="MS Shell Dlg 2" font-weight="400"/>
  <g stroke-width="1" transform="matrix(11.808,0,0,11.808,0,0)" stroke-opacity="1" font-size="34.5833" fill="none" stroke-linejoin="bevel" font-style="normal" stroke-linecap="square" stroke="#000000" font-family="MS Shell Dlg 2" font-weight="400"/>
  <g stroke-width="1" transform="matrix(1,0,0,1,0,0)" stroke-opacity="1" font-size="34.5833" fill="none" stroke-linejoin="bevel" font-style="normal" stroke-linecap="square" stroke="#000000" font-family="MS Shell Dlg 2" font-weight="400"/>
  <g stroke-width="1" transform="matrix(11.808,0,0,11.808,0,0)" stroke-opacity="1" font-size="34.5833" fill="none" stroke-linejoin="bevel" font-style="normal" stroke-linecap="square" stroke="#000000" font-family="MS Shell Dlg 2" font-weight="400"/>
  <g stroke-width="1" transform="matrix(11.808,0,0,11.808,0,0)" stroke-opacity="1" font-size="34.5833" fill="none" stroke-linejoin="bevel" font-style="normal" stroke-linecap="square" stroke="#000000" font-family="MS Shell Dlg 2" font-weight="400"/>
  <g stroke-width="1" transform="matrix(11.808,0,0,11.808,0,0)" stroke-opacity="1" font-size="34.5833" fill="none" stroke-linejoin="bevel" font-style="normal" stroke-linecap="square" stroke="#000000" font-family="MS Shell Dlg 2" font-weight="400"/>
  <g stroke-width="1" transform="matrix(11.808,0,0,11.808,0,0)" stroke-opacity="1" font-size="34.5833" fill="none" stroke-linejoin="bevel" font-style="normal" stroke-linecap="square" stroke="#000000" font-family="MS Shell Dlg 2" font-weight="400"/>
  <g stroke-width="1" transform="matrix(1,0,0,1,0,0)" stroke-opacity="1" font-size="34.5833" fill="none" stroke-linejoin="bevel" font-style="normal" stroke-linecap="square" stroke="#000000" font-family="MS Shell Dlg 2" font-weight="400"/>
 </g>
</svg>
