<?xml version='1.0' encoding='UTF-8' standalone='no'?>
<svg xmlns:xlink="http://www.w3.org/1999/xlink" baseProfile="tiny" xmlns="http://www.w3.org/2000/svg" height="249.936mm" viewBox="0 0 2952 2952" width="249.936mm" version="1.2">
 <title>Qt SVG Document</title>
 <desc>Generated with Qt</desc>
 <defs/>
 <g stroke-width="1" fill-rule="evenodd" fill="none" stroke-linejoin="bevel" stroke-linecap="square" stroke="black">
  <g stroke-width="1" transform="matrix(1,0,0,1,0,0)" stroke-opacity="1" font-size="34.5833" fill="none" stroke-linejoin="bevel" font-style="normal" stroke-linecap="square" stroke="#000000" font-family="MS Shell Dlg 2" font-weight="400"/>
  <g stroke-width="1" transform="matrix(1,0,0,1,0,0)" stroke-opacity="1" font-size="34.5833" fill="none" stroke-linejoin="bevel" font-style="normal" stroke-linecap="square" stroke="#000000" font-family="MS Shell Dlg 2" font-weight="400"/>
  <g stroke-width="1" transform="matrix(11.808,0,0,11.808,0,0)" stroke-opacity="1" font-size="34.5833" fill="none" stroke-linejoin="bevel" font-style="normal" stroke-linecap="square" stroke="#000000" font-family="MS Shell Dlg 2" font-weight="400"/>
  <g stroke-width="1" transform="matrix(0.999744,0,0,0.999744,0,0)" stroke-opacity="1" font-size="34.5833" fill="none" stroke-linejoin="bevel" font-style="normal" stroke-linecap="square" stroke="#000000" font-family="MS Shell Dlg 2" font-weight="400"/>
  <g transform="matrix(0.999744,0,0,0.999744,0,0)" font-size="34.5833" fill-opacity="0" fill="#ffffff" font-style="normal" stroke="none" font-family="MS Shell Dlg 2" font-weight="400">
   <path fill-rule="evenodd" vector-effect="none" d="M-2,-2 L2955,-2 L2955,2955 L-2,2955 L-2,-2"/>
  </g>
  <g stroke-width="1" transform="matrix(0.999744,0,0,0.999744,0,0)" stroke-opacity="1" font-size="34.5833" fill="none" stroke-linejoin="bevel" font-style="normal" stroke-linecap="square" stroke="#000000" font-family="MS Shell Dlg 2" font-weight="400"/>
  <g stroke-width="1" transform="matrix(11.808,0,0,11.808,0,0)" stroke-opacity="1" font-size="34.5833" fill="none" stroke-linejoin="bevel" font-style="normal" stroke-linecap="square" stroke="#000000" font-family="MS Shell Dlg 2" font-weight="400"/>
  <g stroke-width="1" transform="matrix(11.808,0,0,11.808,0,0)" stroke-opacity="1" font-size="34.5833" fill="none" stroke-linejoin="bevel" font-style="normal" stroke-linecap="square" stroke="#000000" font-family="MS Shell Dlg 2" font-weight="400"/>
  <g stroke-width="1" transform="matrix(11.808,0,0,11.808,0,0)" stroke-opacity="1" font-size="34.5833" fill="none" stroke-linejoin="bevel" font-style="normal" stroke-linecap="square" stroke="#000000" font-family="MS Shell Dlg 2" font-weight="400"/>
  <g stroke-width="1" transform="matrix(11.808,0,0,11.808,0,0)" stroke-opacity="1" font-size="34.5833" fill="none" stroke-linejoin="bevel" font-style="normal" stroke-linecap="square" stroke="#000000" font-family="MS Shell Dlg 2" font-weight="400"/>
  <g stroke-width="1" transform="matrix(11.808,0,0,11.808,0,0)" stroke-opacity="1" font-size="34.5833" fill="none" stroke-linejoin="bevel" font-style="normal" stroke-linecap="square" stroke="#000000" font-family="MS Shell Dlg 2" font-weight="400"/>
  <g transform="matrix(11.808,0,0,11.808,0,0)" font-size="34.5833" fill-opacity="0" fill="#ffffff" font-style="normal" stroke="none" font-family="MS Shell Dlg 2" font-weight="400">
   <path fill-rule="evenodd" vector-effect="none" d="M0,0 L250,0 L250,250 L0,250 L0,0"/>
  </g>
  <g stroke-width="1" transform="matrix(11.808,0,0,11.808,0,0)" stroke-opacity="1" font-size="34.5833" fill="none" stroke-linejoin="bevel" font-style="normal" stroke-linecap="square" stroke="#000000" font-family="MS Shell Dlg 2" font-weight="400"/>
  <g stroke-width="1" transform="matrix(11.808,0,0,11.808,0,0)" stroke-opacity="1" font-size="34.5833" fill="none" stroke-linejoin="bevel" font-style="normal" stroke-linecap="square" stroke="#000000" font-family="MS Shell Dlg 2" font-weight="400"/>
  <g transform="matrix(0.999744,0,0,0.999744,0,0)" font-size="34.5833" fill-opacity="0" fill="#000000" font-style="normal" stroke="none" font-family="MS Shell Dlg 2" font-weight="400">
   <rect x="0" height="2953" width="2953" y="0"/>
  </g>
  <g stroke-width="1" transform="matrix(0.999744,0,0,0.999744,0,0)" stroke-opacity="1" font-size="34.5833" fill="none" stroke-linejoin="bevel" font-style="normal" stroke-linecap="square" stroke="#000000" font-family="MS Shell Dlg 2" font-weight="400"/>
  <g stroke-width="3.07087" transform="matrix(0.999744,0,0,0.999744,0,0)" stroke-opacity="1" font-size="34.5833" fill-opacity="1" fill="#c5c5c5" stroke-linejoin="bevel" font-style="normal" stroke-linecap="square" stroke="#5c5c5c" font-family="MS Shell Dlg 2" font-weight="400">
   <path fill-rule="evenodd" vector-effect="none" d="M1835.09,2254.49 L1834.01,2258.66 L1835.85,2260.42 L1837.94,2259.25 L1838.87,2268.27 L1838.71,2293.13 L1840.26,2317.13 L1856.99,2360.93 L1845.43,2356.5 L1822.69,2352.07 L1801.59,2346.22 L1786.68,2340.57 L1770.73,2332.24 L1765.81,2343.67 L1755.99,2354.5 L1702.27,2357 L1709.1,2376.39 L1681.41,2379.5 L1674.29,2358.36 L1670.5,2355.52 L1660.36,2351.74 L1662.04,2342.15 L1604.82,2325.7 L1575.85,2319.13 L1576.08,2317.08 L1573.55,2315.4 L1535.93,2303.63 L1497.54,2297.08 L1456.9,2293.54 L1432.15,2287.39 L1432.19,2285.53 L1422.27,2283.39 L1422.85,2281.23 L1374.14,2274.17 L1329.52,2244.66 L1311.21,2239.21 L1300.45,2238.14 L1270.56,2227.45 L1169.95,2197.39 L1172.56,2210.97 L1171.73,2214.02 L1158.47,2243.86 L1132.65,2318.54 L1131.32,2315.69 L1126.07,2316.09 L1115.16,2310.49 L1113.72,2311.7 L1106.93,2308.52 L1104.69,2309.13 L1099.23,2333.67 L1096.53,2363.67 L1091.72,2365.37 L1078.59,2363.67 L1064.29,2355.53 L1041.21,2337.61 L1023.66,2318.16 L1010.75,2311.57 L1013.68,2297.41 L1009.78,2294.2 L1006.48,2273.4 L943.432,2260.87 L929.574,2263.03 L925.123,2266.54 L921.087,2267.32 L902.047,2250.69 L887.501,2248.71 L860.605,2236.51 L843.222,2233.49 L843.055,2235.15 L828.133,2234.05 L819.135,2235.98 L798.861,2247.38 L790.485,2254.84 L785.787,2261.09 L776.157,2265.66 L772.887,2268.72 L768.29,2268.11 L761.502,2269.42 L759.133,2272.02 L739.797,2268.25 L736.876,2268.46 L735.441,2270.37 L722.371,2262.31 L715.098,2259.46 L711.071,2259.6 L706.618,2257.97 L705.239,2259.42 L699.624,2258.02 L696.722,2255.64 L644.992,2264.21 L640.327,2266.36 L628.782,2268.66 L608.801,2280.37 L598.825,2290.12 L595.136,2290.39 L576.108,2299.86 L562.918,2311.5 L553.992,2315.74 L536.994,2317.53 L526.025,2322.89 L524.014,2325.86 L511.998,2318.36 L506.742,2312.94 L499.288,2311.34 L498.058,2306.41 L499.694,2304.31 L503.651,2303.52 L516.685,2294.44 L519.034,2286.44 L532.143,2284.24 L543.258,2278.91 L572.57,2272.67 L604.758,2259.53 L644.437,2250 L643.106,2242.94 L644.928,2232.38 L632.665,2227.93 L629.483,2224.49 L638.64,2217.21 L643.329,2203.2 L636.598,2203.08 L621.104,2206.82 L609.329,2206.42 L592.091,2210.07 L576.769,2211.25 L567.66,2214.22 L560.084,2214.29 L546.218,2218.52 L535.476,2217.86 L535.121,2213.66 L537.054,2211.63 L538.158,2213.51 L540.8,2211.89 L536.225,2195.93 L532.412,2193.18 L528.892,2180.32 L522.977,2172.33 L515.884,2171.18 L508.693,2168.26 L506.128,2164.57 L506.108,2157.98 L501.084,2152.78 L498.43,2151.7 L496.8,2141.17 L488.4,2130.98 L485.217,2123.61 L483.804,2116.13 L476.075,2109.79 L468.681,2107.35 L472.359,2092.21 L479.186,2088.5 L484.622,2080.51 L489.577,2076.56 L493.801,2073.96 L495.837,2075.94 L511.692,2074.25 L520.138,2070.79 L525.197,2065.26 L525.706,2058.36 L527.359,2054.98 L551.118,2066.97 L552.335,2065.74 L552.201,2062.34 L550.299,2060.8 L550.247,2056.42 L429.581,2035.13 L417.281,2041.69 L397.597,2047.67 L388.259,2025.52 L392.835,1985.57 L385.202,1957.76 L370.122,1935.75 L314.153,1912.03 L312.176,1909.39 L304.058,1904.6 L297.386,1892.07 L332.376,1866.89 L333.821,1837.22 L348.005,1820.89 L367.17,1804.88 L383.449,1775.74 L407.293,1754.19 L427.131,1710.32 L432.508,1683.52 L432.65,1660.55 L440.678,1648.08 L444.595,1629.75 L453.611,1605.89 L449.929,1604.37 L443.528,1605.07 L437.599,1600.39 L432.208,1598.38 L422.275,1589.99 L420.232,1583.36 L428.88,1581.42 L424.623,1571.96 L427.317,1573.03 L431.744,1572.5 L441.363,1568.32 L449.708,1558.86 L454.488,1549.06 L467.237,1539.06 L463.343,1534.55 L460.009,1526.61 L447.958,1521.78 L446.5,1523.83 L443.242,1522.51 L439.489,1516.29 L417.89,1512.66 L410.537,1507.99 L405.258,1506.57 L394.86,1496.4 L390.524,1482.93 L388.383,1481.94 L389.224,1479.83 L384.577,1472.81 L386.186,1469.93 L385.334,1462.55 L378.121,1448.01 L390.529,1432.77 L397.613,1427.33 L397.961,1422.36 L394.806,1417.46 L384.69,1412.99 L362.263,1411.8 L347.16,1415.64 L333.992,1413.74 L323.339,1413.81 L319.858,1416.34 L317.79,1414.51 L319.542,1409.03 L325.344,1402.02 L333.107,1397.1 L342.629,1397.09 L345.652,1394.73 L349.809,1394.13 L353.326,1389.84 L359.984,1385.77 L363.442,1379.79 L366.893,1378.58 L368.597,1376.32 L371.556,1368.68 L374.706,1364.78 L385.126,1358.35 L388.425,1353.32 L394.842,1354.48 L398.151,1360.33 L402.936,1365.17 L401.887,1353.76 L398.246,1348.84 L401.295,1345.13 L405.424,1345.73 L405.694,1344.32 L396.549,1339.51 L369.285,1320.92 L368.65,1313.36 L369.74,1311.49 L368.178,1312.58 L366.947,1309.13 L365.612,1308.72 L369.549,1297.48 L364.236,1294.39 L365.338,1291.15 L362.901,1291.17 L362.685,1290.11 L368.388,1289.08 L372.201,1282.01 L372.865,1279.16 L371.877,1277.75 L373.589,1274.58 L372.133,1273.27 L371.465,1269.37 L374.713,1255.86 L374.496,1254.25 L370.859,1253.68 L371.114,1250.7 L372.673,1250.46 L371.019,1247.86 L374.701,1243.29 L370.489,1240.18 L370.763,1233.23 L368.967,1230.28 L371.352,1220.07 L375.22,1216.81 L376.576,1212.29 L379.313,1208.76 L385.678,1190.25 L383.58,1187.04 L384.646,1185.55 L383.579,1182.28 L384.047,1173.82 L385.923,1169.43 L395.177,1159.89 L396.912,1155.07 L401.886,1149.58 L402.452,1144.85 L406.963,1140.59 L407.799,1136.99 L409.612,1136.65 L411.491,1133.2 L414.343,1132.61 L416.811,1130.09 L419.935,1129.71 L421.813,1125.99 L425.767,1125.57 L429.231,1119.5 L437.703,1115.65 L437.744,1112.08 L443.103,1111.22 L443.365,1108.23 L441.06,1101.07 L438.082,1098.88 L438.581,1093.08 L437.174,1088.24 L438.619,1085.95 L437.19,1085.19 L440.395,1081.34 L441.193,1076.96 L442.987,1076.2 L441.92,1073.2 L443.039,1071.11 L443.145,1064.06 L439.921,1058.28 L442.844,1054.94 L445.158,1048.59 L454.119,1040.93 L458.456,1038.94 L461.193,1038.24 L465.75,1039.89 L487.666,1062.55 L497.222,1069.48 L498.395,1072.52 L496.608,1076.5 L497.278,1078.55 L503.082,1077.47 L529.027,1089.61 L533.903,1090.02 L538.871,1093.47 L552.766,1111.18 L570.22,1122.54 L568.321,1126.56 L573.359,1127.43 L591.431,1140.75 L600.546,1153.71 L608.635,1157.64 L613.711,1162.14 L615.223,1166.11 L630.066,1168.8 L648.893,1175.88 L648.434,1177.17 L659.282,1183.57 L659.176,1185.98 L651.324,1201.75 L651.341,1206.71 L647.267,1210.29 L644.839,1223.55 L637.809,1229.54 L636.445,1234.95 L637.486,1246.05 L640.825,1255.93 L645.019,1260.32 L652.678,1263.12 L652.301,1266.86 L654.292,1267.02 L657.145,1271.24 L659.748,1271.58 L662.289,1275.88 L667.441,1271.66 L675.148,1271.19 L680.6,1269.38 L688.524,1270.14 L693.47,1268.99 L714.644,1257.71 L741.802,1258.31 L750.271,1261.53 L754.458,1261.52 L753.591,1249.49 L755.536,1250.62 L756.864,1246.66 L755.53,1233.3 L763.925,1224.03 L765.691,1208.07 L767.258,1204.74 L772.072,1207.33 L775.069,1206.6 L774.912,1207.49 L781.296,1210.09 L784.416,1203.89 L787.258,1205.48 L790.605,1202.57 L792.999,1199.29 L793.46,1195.64 L796.228,1197.94 L798.399,1197.53 L798.294,1194.23 L805.552,1189.62 L807.772,1184.27 L803.969,1175.13 L838.835,1150.87 L839.946,1142.64 L833.335,1132.66 L828.619,1131.54 L820.71,1132.04 L810.279,1127.93 L800.796,1127.04 L799.921,1123.48 L805.438,1122.47 L828.406,1123.84 L839.388,1119.47 L850.068,1111.86 L869.986,1104.24 L893.872,1107.62 L897.713,1106.56 L910.706,1098.62 L924.839,1096.12 L932.56,1091.6 L933.067,1086.24 L935.743,1079.77 L940.836,1074.28 L945.926,1071.05 L955.398,1060.95 L971.289,1056.42 L983.497,1040.19 L983.411,1035.35 L973.87,1025.48 L966.506,1015.41 L959.39,1015.96 L950.463,1018.66 L938.918,1018.01 L935.064,1015.31 L933.783,1011.59 L934.003,1006.91 L940.119,1003.11 L944.582,998.473 L950.402,982.1 L962.395,976.818 L966.451,972.537 L978.806,969.711 L985.867,965.104 L1002.98,966.787 L1012.89,963.124 L1015.24,958.608 L1021.69,954.692 L1029.76,956.34 L1026.9,960.488 L1041.48,965.491 L1047.14,968.701 L1055.39,969.015 L1063.64,963.599 L1070.71,962.67 L1084.23,951.944 L1090.43,949.134 L1108.69,948.489 L1112.15,945.375 L1118.87,934.038 L1122.02,932.071 L1122.84,928.961 L1128.74,920.307 L1146.21,909.776 L1157.42,910.344 L1166.76,914.827 L1175.11,917.097 L1191.52,919.652 L1196.59,918.947 L1204.02,913.735 L1206.16,902.619 L1213.49,888.384 L1216.58,884.932 L1222.22,882.814 L1229.11,883.058 L1243.72,876.488 L1291.4,846.269 L1292.02,844.384 L1295.68,842.057 L1283.34,823.318 L1271.39,810.875 L1313.7,797.011 L1346.59,859.367 L1405.75,872.1 L1428.37,883.729 L1435.38,883.212 L1435.69,882.147 L1451.02,877.665 L1442.54,874.247 L1434.17,863.778 L1430.41,854.782 L1427.81,843.382 L1429.87,830.473 L1433.16,827.274 L1446.8,822.179 L1458.21,822.209 L1477.01,818.105 L1487.32,818.383 L1495.93,816.304 L1502.09,802.832 L1502.89,791.864 L1501.71,782.619 L1489.94,757.677 L1481.38,746.968 L1494.61,722.898 L1507.4,691.093 L1537.67,697.818 L1546.59,693.499 L1532.35,684.566 L1533.93,678.563 L1538.26,673.665 L1527.26,660.777 L1530.72,651.699 L1531.97,643.533 L1529.73,630.377 L1523.5,613.575 L1524.7,603.838 L1517.04,602.679 L1512.07,591.297 L1511.1,571.182 L1518.83,552.355 L1540.18,530.754 L1546.69,528.99 L1565.83,534.556 L1570.22,522.845 L1562.41,522.419 L1562.4,516.279 L1577.71,517.281 L1575.8,504.092 L1590.66,504.329 L1601.24,502.205 L1601.99,523.219 L1601.11,526.16 L1597.13,525.94 L1594.8,532.543 L1614.88,543.026 L1648.34,555.521 L1656.53,531.974 L1709.4,510.369 L1733.54,502.523 L1744.52,501.254 L1763.94,503.187 L1782.41,509.056 L1820.76,533.865 L1861.51,555.07 L1864.61,569.417 L1862.11,599.876 L1863.55,623.108 L1866.68,629.725 L1872.41,649.92 L1876.87,677.781 L1877.67,783.757 L1949.8,834.861 L1961.98,844.87 L2001.28,870.618 L2002.82,873.839 L2008.83,877.185 L2042.18,904.051 L2064.24,918.559 L2072.49,926.416 L2085.36,931.835 L2084.84,934.77 L2108.16,948.482 L2127.22,953.555 L2126.3,947.564 L2127.77,937.104 L2140.94,898.625 L2140.82,893.879 L2135.89,877.224 L2137.6,868.499 L2137.31,860.962 L2135.51,860.333 L2136.78,853.642 L2133.36,852.293 L2128.59,829.122 L2125.99,805.581 L2125.46,790.255 L2128.1,772.281 L2127.03,768.955 L2142.77,772.236 L2212.6,777.019 L2220.24,778.541 L2218.37,784.04 L2267.88,802.84 L2289.33,815.567 L2322.66,827.335 L2320.58,834.917 L2332.93,842.423 L2329.03,856.103 L2320.25,881.503 L2312.51,886.817 L2306.6,897.532 L2295.79,918.134 L2282.7,952.001 L2298.7,956.524 L2324.82,974.96 L2328.18,975.646 L2320.43,1004.91 L2359.05,1012.75 L2369.13,1034.74 L2391.84,1044.41 L2426.63,1054.64 L2441.3,1057.58 L2443.81,1050.28 L2460.96,1042.39 L2477.8,1037.94 L2529.01,1049.35 L2514.14,1090.59 L2502.75,1127.36 L2493.31,1189.25 L2485.94,1214.24 L2482.77,1234.4 L2536.48,1235.71 L2534.31,1257.85 L2564.23,1269.62 L2547.08,1327.61 L2528.52,1412.97 L2525.76,1433.35 L2527.02,1443.66 L2526.63,1455.67 L2522.96,1478.59 L2516.13,1500.69 L2508.23,1520.76 L2487.09,1563.4 L2474.43,1583.98 L2465.76,1619.87 L2463.58,1623.3 L2479.11,1653.58 L2485.32,1675.8 L2494.47,1695.75 L2497.16,1705.83 L2484.47,1729.68 L2478.01,1749.54 L2474.02,1779.68 L2493.57,1786.39 L2497.56,1791.65 L2493.45,1803.36 L2479.39,1794 L2472.24,1787.59 L2463.76,1833.21 L2463.63,1837.5 L2480.93,1858.74 L2491.33,1867.84 L2483.17,1866.42 L2464.23,1860.08 L2466.09,1870.67 L2480.08,1876.48 L2483.57,1877.34 L2486.74,1876.33 L2492.05,1870.74 L2494.44,1869.95 L2506.03,1872.43 L2515.39,1876.16 L2509.54,1856.21 L2496.41,1852.47 L2492.07,1846.69 L2492.61,1842.08 L2496.53,1838.67 L2514.47,1839.06 L2518.63,1835.49 L2519.36,1831.83 L2521.53,1830.04 L2525.48,1831.63 L2534.38,1830.69 L2544.11,1837.66 L2546.08,1840.46 L2545.2,1845.32 L2547.46,1858.93 L2553.32,1874.37 L2551.41,1886.53 L2545.63,1889.52 L2539.28,1888.93 L2532.66,1890.14 L2526.96,1887.39 L2528.28,1895.66 L2531.52,1902.55 L2537.32,1929.19 L2545.05,1933.45 L2548.82,1938.6 L2546.08,1951.38 L2546.85,1953.11 L2555.14,1959.84 L2566.12,1975.11 L2579.57,1975.52 L2585.9,1978.31 L2571.9,1960.37 L2573.23,1955.84 L2582.02,1953.12 L2586.68,1953.22 L2595.51,1956.38 L2604.7,1968.08 L2608.47,1976.98 L2618.47,1990.61 L2623.63,1987.33 L2631.02,1975.69 L2658.35,1960.88 L2668.43,1962.18 L2672.56,1959.57 L2676.33,1959.85 L2688.38,1964.71 L2701.21,1977.28 L2707.14,1991.73 L2708.64,2003.88 L2698.39,2027.33 L2689.92,2038.2 L2693.75,2039.55 L2693.62,2044.13 L2699.5,2047.7 L2706.14,2055.63 L2715.25,2073.49 L2709.21,2204.38 L2706.55,2220.95 L2606.4,2181.13 L2527.1,2156.19 L2504.32,2146.42 L2487.6,2134.61 L2400.21,2045.91 L2378.04,2030.08 L2343.13,2008.21 L2326.14,2003.79 L2232.29,2028.71 L2229.49,2024.9 L2218.85,2018.51 L2201.78,2004.82 L2193.07,2012.05 L2179.72,2028.17 L2169.41,2038.14 L2117.03,2024.78 L2107.32,2025.64 L2108.35,2029.43 L2106.25,2038.51 L2102,2047.63 L2035.75,2115.61 L2034.57,2117.28 L2038.38,2119.81 L2009.14,2150.6 L2003.63,2151.63 L1990.24,2164.03 L1987.78,2164.47 L1975.07,2177.26 L1962,2185.28 L1962.11,2186.37 L1942.51,2189.26 L1833.19,2196.63 L1831.08,2253.06 L1831.23,2254.02 L1835.09,2254.49"/>
  </g>
  <g stroke-width="1" transform="matrix(0.999744,0,0,0.999744,0,0)" stroke-opacity="1" font-size="34.5833" fill="none" stroke-linejoin="bevel" font-style="normal" stroke-linecap="square" stroke="#000000" font-family="MS Shell Dlg 2" font-weight="400"/>
  <g stroke-width="1" transform="matrix(11.808,0,0,11.808,0,0)" stroke-opacity="1" font-size="34.5833" fill="none" stroke-linejoin="bevel" font-style="normal" stroke-linecap="square" stroke="#000000" font-family="MS Shell Dlg 2" font-weight="400"/>
  <g stroke-width="1" transform="matrix(11.808,0,0,11.808,0,0)" stroke-opacity="1" font-size="34.5833" fill="none" stroke-linejoin="bevel" font-style="normal" stroke-linecap="square" stroke="#000000" font-family="MS Shell Dlg 2" font-weight="400"/>
  <g stroke-width="1" transform="matrix(11.808,0,0,11.808,0,0)" stroke-opacity="1" font-size="34.5833" fill="none" stroke-linejoin="bevel" font-style="normal" stroke-linecap="square" stroke="#000000" font-family="MS Shell Dlg 2" font-weight="400"/>
  <g stroke-width="1" transform="matrix(1,0,0,1,0,0)" stroke-opacity="1" font-size="34.5833" fill="none" stroke-linejoin="bevel" font-style="normal" stroke-linecap="square" stroke="#000000" font-family="MS Shell Dlg 2" font-weight="400"/>
  <g stroke-width="1" transform="matrix(11.808,0,0,11.808,0,0)" stroke-opacity="1" font-size="34.5833" fill="none" stroke-linejoin="bevel" font-style="normal" stroke-linecap="square" stroke="#000000" font-family="MS Shell Dlg 2" font-weight="400"/>
  <g stroke-width="1" transform="matrix(11.808,0,0,11.808,0,0)" stroke-opacity="1" font-size="34.5833" fill="none" stroke-linejoin="bevel" font-style="normal" stroke-linecap="square" stroke="#000000" font-family="MS Shell Dlg 2" font-weight="400"/>
  <g stroke-width="1" transform="matrix(11.808,0,0,11.808,0,0)" stroke-opacity="1" font-size="34.5833" fill="none" stroke-linejoin="bevel" font-style="normal" stroke-linecap="square" stroke="#000000" font-family="MS Shell Dlg 2" font-weight="400"/>
  <g stroke-width="1" transform="matrix(11.808,0,0,11.808,0,0)" stroke-opacity="1" font-size="34.5833" fill="none" stroke-linejoin="bevel" font-style="normal" stroke-linecap="square" stroke="#000000" font-family="MS Shell Dlg 2" font-weight="400"/>
  <g stroke-width="1" transform="matrix(1,0,0,1,0,0)" stroke-opacity="1" font-size="34.5833" fill="none" stroke-linejoin="bevel" font-style="normal" stroke-linecap="square" stroke="#000000" font-family="MS Shell Dlg 2" font-weight="400"/>
 </g>
</svg>
