<?xml version='1.0' encoding='UTF-8' standalone='no'?>
<svg xmlns:xlink="http://www.w3.org/1999/xlink" baseProfile="tiny" xmlns="http://www.w3.org/2000/svg" height="249.936mm" viewBox="0 0 2952 2952" width="249.936mm" version="1.2">
 <title>Qt SVG Document</title>
 <desc>Generated with Qt</desc>
 <defs/>
 <g stroke-width="1" fill-rule="evenodd" fill="none" stroke-linejoin="bevel" stroke-linecap="square" stroke="black">
  <g stroke-width="1" transform="matrix(1,0,0,1,0,0)" stroke-opacity="1" font-size="34.5833" fill="none" stroke-linejoin="bevel" font-style="normal" stroke-linecap="square" stroke="#000000" font-family="MS Shell Dlg 2" font-weight="400"/>
  <g stroke-width="1" transform="matrix(1,0,0,1,0,0)" stroke-opacity="1" font-size="34.5833" fill="none" stroke-linejoin="bevel" font-style="normal" stroke-linecap="square" stroke="#000000" font-family="MS Shell Dlg 2" font-weight="400"/>
  <g stroke-width="1" transform="matrix(11.808,0,0,11.808,0,0)" stroke-opacity="1" font-size="34.5833" fill="none" stroke-linejoin="bevel" font-style="normal" stroke-linecap="square" stroke="#000000" font-family="MS Shell Dlg 2" font-weight="400"/>
  <g stroke-width="1" transform="matrix(0.999744,0,0,0.999744,0,0)" stroke-opacity="1" font-size="34.5833" fill="none" stroke-linejoin="bevel" font-style="normal" stroke-linecap="square" stroke="#000000" font-family="MS Shell Dlg 2" font-weight="400"/>
  <g transform="matrix(0.999744,0,0,0.999744,0,0)" font-size="34.5833" fill-opacity="0" fill="#ffffff" font-style="normal" stroke="none" font-family="MS Shell Dlg 2" font-weight="400">
   <path fill-rule="evenodd" vector-effect="none" d="M-2,-2 L2955,-2 L2955,2955 L-2,2955 L-2,-2"/>
  </g>
  <g stroke-width="1" transform="matrix(0.999744,0,0,0.999744,0,0)" stroke-opacity="1" font-size="34.5833" fill="none" stroke-linejoin="bevel" font-style="normal" stroke-linecap="square" stroke="#000000" font-family="MS Shell Dlg 2" font-weight="400"/>
  <g stroke-width="1" transform="matrix(11.808,0,0,11.808,0,0)" stroke-opacity="1" font-size="34.5833" fill="none" stroke-linejoin="bevel" font-style="normal" stroke-linecap="square" stroke="#000000" font-family="MS Shell Dlg 2" font-weight="400"/>
  <g stroke-width="1" transform="matrix(11.808,0,0,11.808,0,0)" stroke-opacity="1" font-size="34.5833" fill="none" stroke-linejoin="bevel" font-style="normal" stroke-linecap="square" stroke="#000000" font-family="MS Shell Dlg 2" font-weight="400"/>
  <g stroke-width="1" transform="matrix(11.808,0,0,11.808,0,0)" stroke-opacity="1" font-size="34.5833" fill="none" stroke-linejoin="bevel" font-style="normal" stroke-linecap="square" stroke="#000000" font-family="MS Shell Dlg 2" font-weight="400"/>
  <g stroke-width="1" transform="matrix(11.808,0,0,11.808,0,0)" stroke-opacity="1" font-size="34.5833" fill="none" stroke-linejoin="bevel" font-style="normal" stroke-linecap="square" stroke="#000000" font-family="MS Shell Dlg 2" font-weight="400"/>
  <g stroke-width="1" transform="matrix(11.808,0,0,11.808,0,0)" stroke-opacity="1" font-size="34.5833" fill="none" stroke-linejoin="bevel" font-style="normal" stroke-linecap="square" stroke="#000000" font-family="MS Shell Dlg 2" font-weight="400"/>
  <g transform="matrix(11.808,0,0,11.808,0,0)" font-size="34.5833" fill-opacity="0" fill="#ffffff" font-style="normal" stroke="none" font-family="MS Shell Dlg 2" font-weight="400">
   <path fill-rule="evenodd" vector-effect="none" d="M0,0 L250,0 L250,250 L0,250 L0,0"/>
  </g>
  <g stroke-width="1" transform="matrix(11.808,0,0,11.808,0,0)" stroke-opacity="1" font-size="34.5833" fill="none" stroke-linejoin="bevel" font-style="normal" stroke-linecap="square" stroke="#000000" font-family="MS Shell Dlg 2" font-weight="400"/>
  <g stroke-width="1" transform="matrix(11.808,0,0,11.808,0,0)" stroke-opacity="1" font-size="34.5833" fill="none" stroke-linejoin="bevel" font-style="normal" stroke-linecap="square" stroke="#000000" font-family="MS Shell Dlg 2" font-weight="400"/>
  <g transform="matrix(0.999744,0,0,0.999744,0,0)" font-size="34.5833" fill-opacity="0" fill="#000000" font-style="normal" stroke="none" font-family="MS Shell Dlg 2" font-weight="400">
   <rect x="0" height="2953" width="2953" y="0"/>
  </g>
  <g stroke-width="1" transform="matrix(0.999744,0,0,0.999744,0,0)" stroke-opacity="1" font-size="34.5833" fill="none" stroke-linejoin="bevel" font-style="normal" stroke-linecap="square" stroke="#000000" font-family="MS Shell Dlg 2" font-weight="400"/>
  <g stroke-width="3.07087" transform="matrix(0.999744,0,0,0.999744,0,0)" stroke-opacity="1" font-size="34.5833" fill-opacity="1" fill="#c5c5c5" stroke-linejoin="bevel" font-style="normal" stroke-linecap="square" stroke="#5c5c5c" font-family="MS Shell Dlg 2" font-weight="400">
   <path fill-rule="evenodd" vector-effect="none" d="M992.18,682.487 L1104.9,721.441 L1105.62,721.088 L1167.15,690.211 L1215.39,691.427 L1233.56,680.35 L1237.29,678.075 L1252.27,668.939 L1283.89,649.665 L1346.98,676.193 L1376.95,705.464 L1383.84,712.188 L1417.79,719.167 L1519.39,698.21 L1527.65,703.758 L1533.8,707.875 L1507.82,719.5 L1502.53,721.872 L1483.16,750.197 L1449.34,829.079 L1449.56,841.483 L1450.24,880.296 L1429.1,945.175 L1430.81,947.976 L1438.02,959.728 L1507.33,985.031 L1547.37,999.66 L1606.77,975.944 L1650.43,989.457 L1657.55,1022.88 L1689.46,1070.27 L1690.41,1069.86 L1886.81,982.387 L1958.3,978.804 L1976.26,975.807 L1975.96,977.178 L1975.82,979.489 L1976.16,981.8 L1977.13,984.894 L1980.6,992.669 L1984,994.138 L1988.64,997.271 L1990.97,998.231 L2009.51,1002.66 L2016.59,1004.05 L2020.55,1005.73 L2022.74,1007.53 L2024.51,1009.71 L2032.31,1023.71 L2037.53,1029.46 L2042.56,1033.97 L2044.19,1035.24 L2056.63,1042.39 L2059.83,1044.83 L2067.46,1048.06 L2073.42,1053.06 L2076.24,1055.97 L2082.22,1060.58 L2090.4,1069.6 L2094.43,1074.85 L2099.62,1079.21 L2112.46,1077.76 L2128.27,1077.43 L2139.4,1077.9 L2152.79,1079.7 L2162.56,1080.02 L2170.07,1090.65 L2176.12,1100.43 L2177.53,1103.57 L2182.66,1117.25 L2187,1125.88 L2189.86,1129.76 L2192.21,1131.67 L2195.17,1133.04 L2198.58,1133.79 L2208.76,1134.79 L2211.85,1135.79 L2213.23,1136.65 L2215.41,1139.03 L2219.16,1145.41 L2221.65,1153.28 L2222.87,1156.16 L2227.97,1162.85 L2234.05,1168.39 L2241.93,1172.03 L2246.8,1174.99 L2258.43,1177.92 L2268.75,1179.86 L2274.8,1182.54 L2276.81,1184.36 L2277.89,1186.36 L2278.16,1187.43 L2278.29,1190.84 L2277.96,1197.22 L2278.91,1213.26 L2281.11,1222.54 L2281.57,1226.04 L2280.78,1231.17 L2277.49,1240.77 L2276.87,1245.76 L2277.75,1249.03 L2280.05,1251.85 L2281.64,1252.83 L2285.14,1253.9 L2304.47,1256.52 L2332.02,1256.74 L2362.24,1256.5 L2371.09,1258.5 L2377.39,1260.85 L2381.91,1264.29 L2395.69,1272.98 L2399.07,1275.58 L2404.4,1278 L2407.09,1279.61 L2408.72,1281.31 L2410.09,1283.89 L2410.92,1287.28 L2411.41,1292.6 L2417.8,1296.57 L2428.69,1300.99 L2442.85,1303.96 L2458.39,1305.41 L2467.36,1306.84 L2470.9,1306.97 L2474.43,1306.68 L2477.95,1305.9 L2494.8,1300.75 L2498.28,1300.17 L2501.73,1300.23 L2510.43,1301.83 L2515.58,1303.3 L2532.07,1311.61 L2539.55,1308.72 L2547.66,1306.17 L2571.47,1300.62 L2588.23,1298.86 L2599.92,1297.1 L2614.83,1296.49 L2621.12,1295.88 L2632.4,1292.71 L2635.72,1291.11 L2639.98,1288.25 L2655.86,1299.17 L2657.85,1301.48 L2658.45,1302.95 L2658.7,1306.06 L2657.94,1309.13 L2656.1,1313 L2652.83,1317.38 L2651.63,1320.12 L2650.72,1323.31 L2650.71,1326.59 L2651.11,1328.22 L2651.85,1329.78 L2653.85,1332.23 L2660.39,1337.86 L2667.99,1341.81 L2671.4,1343.02 L2681.75,1345.06 L2684.99,1346.27 L2688,1348.28 L2693.48,1354.44 L2696.19,1356.52 L2700.89,1358.06 L2709.12,1359.06 L2712.22,1359.84 L2714.79,1361.37 L2716.93,1364.16 L2718.07,1367.23 L2719.67,1373.96 L2719.8,1379.16 L2719.15,1382.41 L2717.82,1385.19 L2707.3,1402.24 L2700.43,1412.01 L2709.83,1419.74 L2712.81,1421.46 L2715.95,1422.24 L2724.2,1422.03 L2729.31,1422.53 L2746.35,1428.69 L2755.22,1430.69 L2754.67,1438.33 L2753.8,1444.31 L2751.61,1452.99 L2750.36,1456.04 L2749.43,1457.39 L2747.03,1459.47 L2744.22,1461.13 L2726.68,1469.38 L2717.67,1474.48 L2713.07,1477.88 L2706.61,1481.13 L2704.3,1483.14 L2698.22,1491.68 L2695.6,1496.67 L2691.05,1508.67 L2687.2,1517.36 L2684.67,1524.56 L2676.86,1549.73 L2680.55,1553.17 L2683.71,1555.32 L2688.5,1557.49 L2692.26,1558.64 L2700.62,1559.56 L2718,1559.5 L2723.13,1557.68 L2728.49,1556.88 L2735.91,1556.57 L2749.12,1556.69 L2746.31,1565.5 L2735.01,1571.36 L2729.35,1571.34 L2724.27,1573.34 L2715.66,1575.33 L2703.46,1578.94 L2691.82,1581.43 L2684.44,1583.75 L2676.08,1587 L2664.72,1592.74 L2652.07,1599.77 L2642.83,1607.18 L2637.67,1610.79 L2633.2,1614.64 L2620.78,1622.46 L2617.49,1625.12 L2609.56,1628.75 L2606.26,1631.39 L2592.64,1640.12 L2588.16,1643.95 L2579.3,1649.4 L2569.25,1654.26 L2566.3,1655.3 L2561.5,1656.14 L2542.29,1657.88 L2536.52,1654.97 L2526.55,1651.96 L2521.86,1649.95 L2519.17,1648.46 L2514.48,1644.91 L2505.41,1639.93 L2500.41,1638.34 L2495.15,1637.21 L2473.33,1634.85 L2460.33,1632.77 L2438.77,1632.27 L2431.04,1631.74 L2427.31,1631.08 L2413.36,1627.09 L2397.39,1623.87 L2388.08,1623.3 L2370.76,1623.1 L2359.09,1623.46 L2352.92,1624.02 L2338.48,1626.76 L2316.75,1631.56 L2307.72,1632.95 L2302.87,1627.6 L2297.79,1623.14 L2282.1,1614.14 L2278.03,1610.46 L2271.29,1602.92 L2267.93,1601.01 L2265.95,1600.34 L2261.75,1599.56 L2255.13,1599.13 L2216.01,1599.31 L2194.34,1598.27 L2182.22,1594.99 L2176.23,1593.87 L2150.61,1592.84 L2135.26,1602.94 L2131.1,1606.3 L2124.24,1609.23 L2118.88,1612.81 L2113.04,1615.05 L2107.5,1618.59 L2099.56,1621.23 L2081.49,1630.02 L2071.37,1633.07 L2055.55,1641.88 L2038.04,1639.69 L2028.84,1638.09 L2024.81,1637.85 L2016.81,1638.56 L2011.47,1640.3 L2007.2,1647.37 L2004.31,1650.44 L1999.22,1656.96 L1998.16,1659.3 L1995.96,1666.06 L1994.42,1668.56 L1992.48,1670.71 L1987.7,1674.23 L1984.5,1676.98 L1976.55,1680.5 L1967.4,1688.49 L1965.26,1689.6 L1960.63,1691.42 L1958.79,1692.77 L1953.96,1698.04 L1952.87,1700.31 L1951.68,1703.96 L1950.63,1706.22 L1945.93,1711.75 L1944.29,1713.27 L1936.36,1718.39 L1933.19,1720.17 L1920.98,1725.23 L1853.09,1739.29 L1837.04,1741.55 L1813.35,1746.89 L1799.43,1745.69 L1785.69,1742.41 L1780.39,1739.8 L1768.96,1731.63 L1763.55,1732.73 L1759.5,1732.88 L1752.07,1731.65 L1743.24,1736.5 L1736.53,1738.86 L1732.87,1739.8 L1727.13,1740.46 L1707.5,1741.16 L1696.22,1743.06 L1690.36,1743.57 L1684.61,1743.45 L1679.36,1742.39 L1677.84,1741.71 L1668.43,1735.46 L1644.85,1730.29 L1628.95,1727.9 L1616.85,1724.39 L1601.99,1720.7 L1598.67,1720.5 L1595.44,1720.95 L1586.46,1723.57 L1572.45,1723.65 L1565.99,1713.14 L1564.9,1710.36 L1564,1705.74 L1564.12,1697.47 L1563.55,1694.15 L1562.92,1692.57 L1561.92,1691.13 L1560.61,1690.01 L1557.54,1688.78 L1554.15,1688.35 L1550.59,1688.43 L1546.96,1688.86 L1539.62,1690.46 L1533.64,1691.18 L1509.08,1692.18 L1493.87,1694.45 L1468.42,1695.34 L1456.1,1696.73 L1446.63,1697.88 L1424.09,1698.61 L1409.98,1700.34 L1417.73,1706.65 L1426.24,1711.11 L1427.94,1713.49 L1428.54,1716.32 L1428.23,1719.13 L1427.78,1720.4 L1425.16,1724.74 L1424.1,1727.43 L1423.26,1730.62 L1423.23,1733.86 L1423.57,1735.5 L1425.05,1738.61 L1431.15,1745.34 L1432.88,1748.16 L1435.91,1754.5 L1433.9,1761.81 L1432.66,1769.05 L1431.64,1794.24 L1426.41,1797.64 L1421.76,1801.82 L1419.56,1803.05 L1414.9,1804.94 L1409.38,1808.49 L1400.16,1811.73 L1390.17,1816.73 L1383.66,1820.46 L1372.25,1826.14 L1354.92,1831.14 L1355.48,1838.73 L1355.29,1848.1 L1356.26,1857.46 L1356.11,1860.75 L1355.11,1864.31 L1353.79,1866.94 L1346.7,1875.04 L1345.08,1877.52 L1343.79,1882.09 L1343.54,1887.4 L1344.29,1889.84 L1345.02,1890.99 L1346.97,1892.9 L1349.5,1894.21 L1358.13,1896.22 L1360.62,1897.51 L1362.55,1899.3 L1363.88,1901.47 L1365.51,1907.48 L1368.11,1913.53 L1373.39,1919.78 L1376.39,1922.43 L1380.8,1927.15 L1382.3,1929.46 L1383.06,1932.09 L1383.14,1934.08 L1382.93,1935.14 L1381.89,1937.03 L1379.95,1938.55 L1374.86,1940.35 L1370.5,1942.77 L1368.25,1943.61 L1360.09,1947.72 L1355.16,1949.83 L1337.63,1955.96 L1329.16,1958.12 L1324.05,1958.24 L1302.84,1954.32 L1296.98,1953.89 L1289.07,1953.89 L1283.2,1954.34 L1277.6,1955.53 L1258.77,1961.03 L1248.81,1965.42 L1240.27,1967.92 L1236.76,1968.19 L1231.5,1967.78 L1210.61,1963.49 L1205.48,1963.41 L1202.26,1963.92 L1199.38,1965.05 L1198.17,1965.87 L1192.19,1971.41 L1187.79,1976.84 L1180.29,1989.91 L1178.02,1992.64 L1176.53,1993.77 L1173.02,1995.33 L1169.24,1996.1 L1165.37,1996.41 L1159.59,1996.15 L1154.27,1994.67 L1150.25,1992.08 L1148.45,1989.29 L1147.87,1986.03 L1148.16,1982.75 L1151.17,1974.75 L1152.01,1969.89 L1151.73,1966.73 L1151.25,1965.27 L1148.24,1960.97 L1146.42,1959.06 L1143.76,1957.77 L1139.47,1958.01 L1132.08,1959.74 L1129.08,1959.72 L1126.24,1958.77 L1125,1957.79 L1123.35,1954.89 L1122.76,1951.49 L1122.68,1946.05 L1114.23,1946.63 L1109.35,1947.72 L1091.25,1956.31 L1081.15,1959.06 L1050.54,1968.74 L1049.57,1986.11 L1049.12,2017.71 L1048.4,2023.94 L1047.19,2027.68 L1045.15,2030.57 L1042.79,2032.5 L1031.39,2039.52 L1018.83,2043.29 L1015.2,2043.64 L1010.69,2043.09 L1004.09,2063.93 L1000.11,2086.61 L995.551,2088.72 L991.777,2091.53 L983.384,2100.59 L980.412,2104.89 L977.07,2112.78 L971.87,2129.09 L970.5,2135.5 L968.793,2148.72 L961.527,2157.38 L956.792,2165.24 L949.968,2174.87 L945.617,2183 L941.072,2190.59 L936.277,2196.36 L932.092,2202.46 L922.959,2207.22 L911.455,2211.92 L903.124,2214.18 L891.721,2215.21 L862.352,2219.89 L847.547,2220.94 L841.366,2221.88 L837.492,2223.26 L834.346,2225.31 L825.317,2235.29 L824.731,2244.1 L824.078,2248.94 L821.417,2259.81 L820.49,2262.46 L819.248,2264.61 L816.625,2268.12 L809.212,2280.45 L805.917,2284.82 L802.959,2292.01 L799.413,2297.66 L797.018,2303.74 L795.753,2305.77 L793.391,2308.67 L790.631,2313.66 L780.763,2315.44 L772.946,2315.96 L767.331,2315.57 L763.852,2314.62 L762.261,2313.8 L760.848,2312.71 L758.823,2310.06 L755.937,2303.22 L746.556,2286.79 L744.261,2284.33 L741.176,2282.85 L737.874,2282.46 L714.203,2284.96 L708.115,2285.87 L700.66,2287.57 L697.1,2287.92 L692.01,2287.59 L688.972,2286.44 L687.672,2285.4 L685.988,2282.64 L685.184,2279.54 L683.905,2271.27 L681.884,2264.84 L678.357,2257.59 L677.477,2253.98 L676.401,2246.11 L669.619,2252.7 L664.029,2257.45 L660.209,2260.03 L652.24,2264.18 L644.954,2268.56 L642.454,2271.23 L640.792,2274.29 L639.257,2278.27 L638.488,2281.14 L637.808,2286.01 L632.364,2302.98 L630.408,2310.21 L629.347,2312.69 L626.404,2317.29 L623.995,2323.31 L622.682,2325.24 L617.967,2330.81 L614.925,2333.83 L610.38,2339.81 L608.278,2341.78 L603.309,2345.21 L599.966,2347.96 L591.792,2351.56 L587.45,2354.86 L575.113,2362.3 L570.77,2365.67 L568.473,2366.8 L563.633,2368.65 L559.116,2371.67 L551.935,2374.48 L549.125,2376.27 L542.409,2383.23 L540.517,2385.58 L537.778,2389.67 L535.086,2392.69 L532.749,2395.91 L530.113,2398.71 L527.77,2401.87 L523.103,2406.97 L521.574,2408.46 L516.665,2411.79 L514.352,2413.23 L511.842,2414.4 L503.872,2416.58 L492.795,2420.36 L483.306,2422.66 L475.641,2425.58 L470.798,2428.21 L469.082,2429.49 L461.598,2437.46 L459.8,2438.81 L456.363,2440.03 L451.938,2440.64 L450.08,2440.42 L447.675,2438.94 L442.244,2432.49 L439.007,2427.68 L437.965,2425.52 L437.326,2422.7 L436.132,2411.55 L434.066,2402.65 L431.35,2394.04 L428.315,2387.32 L424.169,2377.01 L423.273,2374.11 L421.01,2361.11 L419.96,2351.7 L418.332,2342.23 L417.165,2338.31 L415.637,2336.33 L412.918,2334.77 L410.057,2334.14 L408.088,2334.48 L406.23,2335.14 L403.515,2336.77 L398.466,2343.11 L397.438,2345.43 L395.823,2350.22 L394.716,2352.15 L390.513,2357.82 L387.725,2360.84 L383.92,2366.06 L378.391,2371.77 L370.826,2366.84 L363.376,2363.94 L358.873,2361.37 L356.195,2360.57 L353.241,2360.31 L350.165,2360.57 L336.316,2363.04 L328.641,2365.16 L327.042,2372.1 L315.91,2382.99 L287.51,2362.71 L290.869,2345.5 L350.009,2308.34 L386.695,2276.3 L422.081,2197.9 L458.803,2164.19 L460.078,2163.02 L467.627,2157.91 L509.485,2129.56 L559.977,2095.35 L568.435,2081.91 L587.559,2051.52 L595.269,2049.73 L621.076,2043.76 L626.413,2027.6 L631.9,2011.25 L654.442,1996.17 L675.439,1982.13 L674.078,1979.98 L648.001,1938.79 L661.107,1855.78 L626.116,1759.68 L639.058,1748.29 L647.718,1737.92 L661.888,1736.95 L719.912,1732.9 L734.367,1731.91 L756.788,1716.22 L763.501,1711.54 L773.184,1710.81 L816.611,1707.59 L831.99,1696.97 L839.598,1691.71 L860.474,1677.28 L869.881,1652.04 L885.031,1611.38 L865.076,1566.5 L889.464,1561.03 L949.546,1547.54 L983.833,1553.17 L998.026,1540.09 L1021.52,1518.44 L1015.03,1502.28 L1027.37,1490.02 L1036.87,1480.6 L1040.54,1476.69 L1010.82,1433.4 L1006.3,1397.51 L998.616,1381.12 L943.855,1342.59 L940.092,1339.95 L873.49,1325.24 L870.7,1324.62 L855.757,1336.88 L845.865,1345 L843.492,1346.95 L828.978,1358.86 L794.986,1366.06 L749.511,1373.34 L611.454,1395.45 L606.457,1396.25 L555.187,1406.58 L511.663,1396.04 L487.553,1390.19 L413.88,1422.61 L427.752,1325.71 L439.141,1310.16 L457.036,1285.73 L466.523,1272.78 L474.772,1269.26 L507.942,1255.11 L513.03,1252.94 L526.211,1247.31 L525.709,1244.61 L517.11,1198.31 L538.899,1179.94 L544.08,1150.7 L557.505,1149.51 L614.281,1144.44 L619.76,1134.61 L622.937,1128.91 L620.074,1005.77 L638.081,1003.93 L701.304,997.467 L705.709,987.558 L711.898,973.633 L728.082,937.223 L738.358,936.42 L796.036,931.856 L825.055,913.658 L825.161,912.561 L831.398,848.399 L823.091,845.323 L802.674,837.76 L803.606,810.13 L791.325,803.761 L791.621,739.279 L771.884,694.74 L796.178,686.114 L915.981,643.547 L957.108,670.35 L969.785,674.742 L992.18,682.487"/>
  </g>
  <g stroke-width="1" transform="matrix(0.999744,0,0,0.999744,0,0)" stroke-opacity="1" font-size="34.5833" fill="none" stroke-linejoin="bevel" font-style="normal" stroke-linecap="square" stroke="#000000" font-family="MS Shell Dlg 2" font-weight="400"/>
  <g stroke-width="1" transform="matrix(11.808,0,0,11.808,0,0)" stroke-opacity="1" font-size="34.5833" fill="none" stroke-linejoin="bevel" font-style="normal" stroke-linecap="square" stroke="#000000" font-family="MS Shell Dlg 2" font-weight="400"/>
  <g stroke-width="1" transform="matrix(11.808,0,0,11.808,0,0)" stroke-opacity="1" font-size="34.5833" fill="none" stroke-linejoin="bevel" font-style="normal" stroke-linecap="square" stroke="#000000" font-family="MS Shell Dlg 2" font-weight="400"/>
  <g stroke-width="1" transform="matrix(11.808,0,0,11.808,0,0)" stroke-opacity="1" font-size="34.5833" fill="none" stroke-linejoin="bevel" font-style="normal" stroke-linecap="square" stroke="#000000" font-family="MS Shell Dlg 2" font-weight="400"/>
  <g stroke-width="1" transform="matrix(1,0,0,1,0,0)" stroke-opacity="1" font-size="34.5833" fill="none" stroke-linejoin="bevel" font-style="normal" stroke-linecap="square" stroke="#000000" font-family="MS Shell Dlg 2" font-weight="400"/>
  <g stroke-width="1" transform="matrix(11.808,0,0,11.808,0,0)" stroke-opacity="1" font-size="34.5833" fill="none" stroke-linejoin="bevel" font-style="normal" stroke-linecap="square" stroke="#000000" font-family="MS Shell Dlg 2" font-weight="400"/>
  <g stroke-width="1" transform="matrix(11.808,0,0,11.808,0,0)" stroke-opacity="1" font-size="34.5833" fill="none" stroke-linejoin="bevel" font-style="normal" stroke-linecap="square" stroke="#000000" font-family="MS Shell Dlg 2" font-weight="400"/>
  <g stroke-width="1" transform="matrix(11.808,0,0,11.808,0,0)" stroke-opacity="1" font-size="34.5833" fill="none" stroke-linejoin="bevel" font-style="normal" stroke-linecap="square" stroke="#000000" font-family="MS Shell Dlg 2" font-weight="400"/>
  <g stroke-width="1" transform="matrix(11.808,0,0,11.808,0,0)" stroke-opacity="1" font-size="34.5833" fill="none" stroke-linejoin="bevel" font-style="normal" stroke-linecap="square" stroke="#000000" font-family="MS Shell Dlg 2" font-weight="400"/>
  <g stroke-width="1" transform="matrix(1,0,0,1,0,0)" stroke-opacity="1" font-size="34.5833" fill="none" stroke-linejoin="bevel" font-style="normal" stroke-linecap="square" stroke="#000000" font-family="MS Shell Dlg 2" font-weight="400"/>
 </g>
</svg>
