<?xml version='1.0' encoding='UTF-8' standalone='no'?>
<svg xmlns:xlink="http://www.w3.org/1999/xlink" baseProfile="tiny" xmlns="http://www.w3.org/2000/svg" height="249.936mm" viewBox="0 0 2952 2952" width="249.936mm" version="1.2">
 <title>Qt SVG Document</title>
 <desc>Generated with Qt</desc>
 <defs/>
 <g stroke-width="1" fill-rule="evenodd" fill="none" stroke-linejoin="bevel" stroke-linecap="square" stroke="black">
  <g stroke-width="1" transform="matrix(1,0,0,1,0,0)" stroke-opacity="1" font-size="34.5833" fill="none" stroke-linejoin="bevel" font-style="normal" stroke-linecap="square" stroke="#000000" font-family="MS Shell Dlg 2" font-weight="400"/>
  <g stroke-width="1" transform="matrix(1,0,0,1,0,0)" stroke-opacity="1" font-size="34.5833" fill="none" stroke-linejoin="bevel" font-style="normal" stroke-linecap="square" stroke="#000000" font-family="MS Shell Dlg 2" font-weight="400"/>
  <g stroke-width="1" transform="matrix(11.808,0,0,11.808,0,0)" stroke-opacity="1" font-size="34.5833" fill="none" stroke-linejoin="bevel" font-style="normal" stroke-linecap="square" stroke="#000000" font-family="MS Shell Dlg 2" font-weight="400"/>
  <g stroke-width="1" transform="matrix(0.999744,0,0,0.999744,0,0)" stroke-opacity="1" font-size="34.5833" fill="none" stroke-linejoin="bevel" font-style="normal" stroke-linecap="square" stroke="#000000" font-family="MS Shell Dlg 2" font-weight="400"/>
  <g transform="matrix(0.999744,0,0,0.999744,0,0)" font-size="34.5833" fill-opacity="0" fill="#ffffff" font-style="normal" stroke="none" font-family="MS Shell Dlg 2" font-weight="400">
   <path fill-rule="evenodd" vector-effect="none" d="M-2,-2 L2955,-2 L2955,2955 L-2,2955 L-2,-2"/>
  </g>
  <g stroke-width="1" transform="matrix(0.999744,0,0,0.999744,0,0)" stroke-opacity="1" font-size="34.5833" fill="none" stroke-linejoin="bevel" font-style="normal" stroke-linecap="square" stroke="#000000" font-family="MS Shell Dlg 2" font-weight="400"/>
  <g stroke-width="1" transform="matrix(11.808,0,0,11.808,0,0)" stroke-opacity="1" font-size="34.5833" fill="none" stroke-linejoin="bevel" font-style="normal" stroke-linecap="square" stroke="#000000" font-family="MS Shell Dlg 2" font-weight="400"/>
  <g stroke-width="1" transform="matrix(11.808,0,0,11.808,0,0)" stroke-opacity="1" font-size="34.5833" fill="none" stroke-linejoin="bevel" font-style="normal" stroke-linecap="square" stroke="#000000" font-family="MS Shell Dlg 2" font-weight="400"/>
  <g stroke-width="1" transform="matrix(11.808,0,0,11.808,0,0)" stroke-opacity="1" font-size="34.5833" fill="none" stroke-linejoin="bevel" font-style="normal" stroke-linecap="square" stroke="#000000" font-family="MS Shell Dlg 2" font-weight="400"/>
  <g stroke-width="1" transform="matrix(11.808,0,0,11.808,0,0)" stroke-opacity="1" font-size="34.5833" fill="none" stroke-linejoin="bevel" font-style="normal" stroke-linecap="square" stroke="#000000" font-family="MS Shell Dlg 2" font-weight="400"/>
  <g stroke-width="1" transform="matrix(11.808,0,0,11.808,0,0)" stroke-opacity="1" font-size="34.5833" fill="none" stroke-linejoin="bevel" font-style="normal" stroke-linecap="square" stroke="#000000" font-family="MS Shell Dlg 2" font-weight="400"/>
  <g transform="matrix(11.808,0,0,11.808,0,0)" font-size="34.5833" fill-opacity="0" fill="#ffffff" font-style="normal" stroke="none" font-family="MS Shell Dlg 2" font-weight="400">
   <path fill-rule="evenodd" vector-effect="none" d="M0,0 L250,0 L250,250 L0,250 L0,0"/>
  </g>
  <g stroke-width="1" transform="matrix(11.808,0,0,11.808,0,0)" stroke-opacity="1" font-size="34.5833" fill="none" stroke-linejoin="bevel" font-style="normal" stroke-linecap="square" stroke="#000000" font-family="MS Shell Dlg 2" font-weight="400"/>
  <g stroke-width="1" transform="matrix(11.808,0,0,11.808,0,0)" stroke-opacity="1" font-size="34.5833" fill="none" stroke-linejoin="bevel" font-style="normal" stroke-linecap="square" stroke="#000000" font-family="MS Shell Dlg 2" font-weight="400"/>
  <g transform="matrix(0.999744,0,0,0.999744,0,0)" font-size="34.5833" fill-opacity="0" fill="#000000" font-style="normal" stroke="none" font-family="MS Shell Dlg 2" font-weight="400">
   <rect x="0" height="2953" width="2953" y="0"/>
  </g>
  <g stroke-width="1" transform="matrix(0.999744,0,0,0.999744,0,0)" stroke-opacity="1" font-size="34.5833" fill="none" stroke-linejoin="bevel" font-style="normal" stroke-linecap="square" stroke="#000000" font-family="MS Shell Dlg 2" font-weight="400"/>
  <g stroke-width="3.07087" transform="matrix(0.999744,0,0,0.999744,0,0)" stroke-opacity="1" font-size="34.5833" fill-opacity="1" fill="#c5c5c5" stroke-linejoin="bevel" font-style="normal" stroke-linecap="square" stroke="#5c5c5c" font-family="MS Shell Dlg 2" font-weight="400">
   <path fill-rule="evenodd" vector-effect="none" d="M1894.16,949.816 L1892.62,963.415 L1905.92,956.465 L1910.79,952.755 L1918.97,948.658 L1923.66,944.775 L1931.6,939.627 L1944.77,932.27 L1951.98,928.773 L1963.1,921.759 L1964.29,920.064 L1965.4,919.12 L1972.04,915.773 L1976.35,912.041 L1988.94,903.803 L1993.31,900.091 L2001.67,896.058 L2006.03,892.347 L2019.57,883.422 L2023,880.397 L2025.34,879.152 L2030.3,877.157 L2035.96,873.166 L2040.91,871.193 L2043.24,869.97 L2047.61,866.236 L2052.1,863.318 L2057.76,859.113 L2069.16,851.818 L2073.25,850.144 L2077.67,846.625 L2082.24,843.922 L2091.7,837.699 L2095.15,834.33 L2099.23,831.326 L2101.52,829.266 L2103.56,826.905 L2107.15,821.39 L2112.6,815.511 L2114.52,814.03 L2117.92,812.614 L2120.18,812.099 L2122.58,812.077 L2127.16,813.365 L2129.32,814.502 L2133.77,818.236 L2142.71,823.451 L2145.71,824.76 L2154.83,827.764 L2174.1,814.416 L2188.32,807.313 L2194,805.983 L2207.92,804.566 L2219.92,802.957 L2234.13,799.437 L2247.97,796.54 L2263.64,794.308 L2285.25,790.381 L2298.5,787.483 L2316.15,780.358 L2326.42,774.907 L2340.54,775.014 L2348.27,774.628 L2353.86,773.662 L2360.57,771.366 L2364.73,769.455 L2373.56,764.09 L2379.34,759.668 L2385.77,757.007 L2391.78,753.015 L2398.24,750.417 L2404.22,746.382 L2410.66,743.785 L2415.6,740.587 L2418.7,739.406 L2424.11,738.59 L2429.95,738.333 L2486.21,737.904 L2490.25,733.074 L2495.82,727.793 L2499.99,724.96 L2505.27,722.77 L2509.06,721.783 L2526.34,719.143 L2531.51,722.298 L2541.01,727.021 L2548.67,731.464 L2541.27,739.878 L2538.76,742.239 L2534.41,745.652 L2531.29,749.13 L2527.91,752.113 L2524.98,755.504 L2521.53,758.466 L2518.27,761.793 L2506.49,769.649 L2503.58,772.138 L2502.08,774.585 L2499.23,780.959 L2493.42,787.805 L2489.37,791.647 L2484.4,797.849 L2483.76,799.18 L2482.95,802.184 L2482.56,805.446 L2482.33,811.991 L2486.58,819.91 L2492.37,833.858 L2495.36,844.265 L2496.9,846.475 L2498.93,847.784 L2501.19,848.191 L2503.65,848.084 L2507.91,847.398 L2510.66,846.475 L2516.6,842.355 L2522.97,839.544 L2528.67,834.952 L2536.12,830.467 L2539.11,829.03 L2542.54,828.086 L2546.05,827.721 L2549.5,827.764 L2552.74,828.322 L2554.23,828.815 L2556.54,830.231 L2565.71,838.257 L2568.15,839.501 L2573.79,841.497 L2577.82,843.943 L2580.07,846.11 L2583.91,851.367 L2587.16,854.65 L2589.95,858.212 L2593.16,861.259 L2595.96,864.691 L2602.56,870.849 L2604.73,872.179 L2609.64,874.153 L2612.82,874.969 L2616.7,875.462 L2632.87,876.406 L2645.95,879.345 L2649.08,880.568 L2654.43,883.744 L2664.43,887.176 L2673.52,891.939 L2676.48,893.849 L2678.88,895.994 L2683.83,902.408 L2687.07,905.691 L2689.92,909.188 L2693.15,912.234 L2699.18,919.098 L2705.11,928.988 L2708.68,936.024 L2712.59,941.815 L2716.96,947.392 L2720.56,953.548 L2725.17,969.227 L2712.34,982.161 L2707.66,986.064 L2702.2,989.624 L2695.85,996.315 L2694.62,998.524 L2693.38,1001.7 L2690.87,1009.68 L2693.57,1016.45 L2696.28,1026.62 L2696.96,1033.91 L2697.53,1051.21 L2698.13,1056.04 L2699.23,1060.41 L2701.37,1066.01 L2703.35,1069.52 L2705.9,1072.74 L2713.54,1080.61 L2717.08,1085.73 L2720.11,1093.09 L2722.17,1100.87 L2709.65,1107.37 L2709.63,1117.01 L2703.37,1120.25 L2698.67,1127.88 L2689.44,1138.45 L2683.79,1145.55 L2678.92,1149.55 L2671.35,1153.91 L2664.23,1158.36 L2659.47,1161.99 L2651.62,1170.28 L2641.41,1182.63 L2636.7,1186.27 L2633.14,1187.68 L2621.57,1190.36 L2615.05,1191.16 L2603.96,1191.82 L2597.48,1192.81 L2587.82,1195.87 L2581.13,1198.89 L2575.88,1204.85 L2570.36,1209.16 L2566.88,1212.25 L2564.43,1213.49 L2559.26,1215.44 L2557.22,1216.87 L2551.41,1222.1 L2548.53,1225.53 L2545.22,1228.53 L2542.36,1232 L2538.96,1234.98 L2535.75,1238.37 L2529.83,1242.33 L2524.93,1246.49 L2520.15,1253.52 L2514.54,1264.4 L2512.93,1268.2 L2510.51,1276.06 L2509.68,1280.84 L2509.17,1288.23 L2509.2,1310.94 L2509.16,1330.24 L2508.86,1356.87 L2508.22,1364.77 L2506.63,1374.65 L2498.61,1383.19 L2495.48,1387.11 L2491.67,1392.68 L2488.42,1396.02 L2482.56,1403.09 L2480.95,1406.11 L2479.36,1410.25 L2477.72,1417.27 L2484.23,1420.76 L2487.19,1423.33 L2490.19,1426.86 L2494.68,1427.31 L2497.6,1427.89 L2501.51,1429.46 L2509.52,1433.95 L2513.05,1436.95 L2514.95,1438.24 L2520.66,1440.23 L2522.78,1441.32 L2528.5,1446.74 L2530.07,1448.62 L2535.32,1458 L2538.16,1464.75 L2541.93,1472.13 L2544.3,1478.45 L2554.48,1492.54 L2556.32,1499.69 L2557.35,1502 L2560.32,1505.56 L2562.92,1510.03 L2565.29,1513.41 L2573.21,1522.56 L2561.86,1526.82 L2557.4,1529.43 L2553.13,1532.87 L2549.24,1536.81 L2544.3,1543.28 L2534.72,1559.55 L2522.08,1554.94 L2514.72,1552.7 L2505.06,1550.15 L2493.52,1547.8 L2480.04,1543.92 L2468.53,1541.5 L2455.05,1537.63 L2443.56,1535.19 L2409.5,1524.25 L2395.91,1521.53 L2391.99,1521.14 L2386.08,1521.42 L2378.38,1523.63 L2374.73,1525.02 L2362.27,1531.5 L2352.45,1537.46 L2347.39,1541.29 L2338.71,1545.46 L2335.02,1548.35 L2321.28,1556.96 L2316.2,1560.77 L2307.43,1564.9 L2303.7,1567.81 L2290.05,1576.52 L2278.58,1586.8 L2269.96,1590.86 L2259.87,1599.75 L2251.23,1603.79 L2241.11,1612.74 L2232.48,1616.78 L2222.35,1625.71 L2213.74,1629.73 L2202.75,1639.79 L2189.6,1648.11 L2184.01,1652.82 L2170.81,1661.1 L2165.26,1665.81 L2152.07,1674.09 L2146.52,1678.8 L2133.33,1687.1 L2127.79,1691.79 L2114.65,1700.02 L2110.13,1704.09 L2102.64,1709.72 L2096.64,1715.34 L2095.5,1716.41 L2091.51,1723.3 L2088.25,1726.62 L2085.38,1730.15 L2082,1733.12 L2079.09,1736.55 L2075.74,1739.52 L2069.94,1746.45 L2068.73,1748.95 L2066.85,1754.3 L2065.48,1756.42 L2063.17,1758.88 L2060.39,1762.45 L2057.04,1765.45 L2054.14,1768.89 L2050.75,1771.84 L2047.85,1775.27 L2044.48,1778.24 L2041.62,1781.79 L2038.35,1785.1 L2028.96,1800.83 L2025.69,1804.14 L2022.82,1807.67 L2019.46,1810.64 L2016.57,1814.04 L2013.21,1817 L2010.34,1820.52 L2007.07,1823.84 L1997.69,1839.56 L1994.44,1842.87 L1991.6,1846.45 L1988.28,1849.42 L1985.41,1852.86 L1981.98,1855.77 L1978.72,1859.04 L1976.61,1860.35 L1970.46,1863.23 L1965.09,1870.76 L1960.22,1878.44 L1953.61,1884.77 L1951.21,1886.03 L1947.32,1887.42 L1944.94,1888.66 L1934.89,1897.55 L1932.5,1898.79 L1928.58,1900.23 L1926.19,1901.51 L1922.97,1904.65 L1919.53,1907.54 L1916.64,1910.96 L1913.22,1913.87 L1909.99,1917.01 L1907.6,1918.27 L1903.69,1919.7 L1901.31,1920.96 L1891.25,1929.88 L1888.87,1931.12 L1884.97,1932.55 L1882.58,1933.81 L1875.97,1939.84 L1873.11,1943.29 L1866.45,1949.31 L1863.94,1950.6 L1856.87,1952.93 L1853.87,1954.51 L1848.11,1962.42 L1844.8,1965.63 L1841.93,1969.11 L1838.59,1972.08 L1835.71,1975.5 L1832.38,1978.47 L1829.48,1981.91 L1826.15,1984.89 L1823.26,1988.33 L1819.93,1991.32 L1817.05,1994.74 L1813.72,1997.73 L1810.83,2001.17 L1807.5,2004.14 L1804.61,2007.59 L1801.28,2010.56 L1798.4,2014 L1795.08,2016.99 L1792.21,2020.41 L1788.91,2023.38 L1786.03,2026.78 L1782.64,2029.71 L1779.47,2033.06 L1773.91,2036.93 L1771.21,2039.15 L1755.17,2054.75 L1751.12,2058.17 L1745.56,2062.04 L1742.38,2065.4 L1738.98,2068.33 L1736.1,2071.72 L1732.79,2074.67 L1729.92,2078.09 L1726.59,2081.06 L1723.7,2084.5 L1720.36,2087.47 L1717.46,2090.91 L1714.13,2093.86 L1711.23,2097.3 L1707.88,2100.27 L1704.99,2103.69 L1701.66,2106.66 L1698.79,2110.08 L1695.47,2113.05 L1692.58,2116.49 L1689.16,2119.42 L1685.93,2122.75 L1671.77,2131.59 L1669.91,2133.15 L1667.55,2135.65 L1664.13,2138.58 L1661.25,2141.98 L1657.92,2144.95 L1655.05,2148.39 L1651.7,2151.34 L1648.81,2154.78 L1645.45,2157.7 L1642.55,2161.14 L1639.18,2164.09 L1636.27,2167.51 L1632.94,2170.46 L1630.03,2173.87 L1626.68,2176.82 L1623.77,2180.24 L1620.41,2183.19 L1617.51,2186.61 L1614.17,2189.55 L1611.28,2192.97 L1607.96,2195.92 L1605.05,2199.34 L1597.39,2206.3 L1583.18,2215.06 L1579.93,2218.37 L1576.5,2221.27 L1573.59,2224.67 L1570.26,2227.57 L1567.38,2230.99 L1564.05,2233.94 L1561.17,2237.42 L1557.85,2240.62 L1554.05,2245.98 L1551.93,2248.25 L1545.5,2253.08 L1542.33,2256.43 L1538.91,2259.29 L1535.99,2262.64 L1532.58,2265.53 L1529.41,2268.86 L1523.51,2272.89 L1516.73,2278.36 L1514.78,2273.51 L1511.59,2266.64 L1510.1,2264.69 L1507.69,2262.32 L1504.92,2258.82 L1501.61,2255.94 L1498.82,2252.52 L1495.43,2249.66 L1492.36,2246.28 L1486.85,2242.52 L1484.29,2240.41 L1468.02,2224.2 L1464.2,2220.93 L1458.7,2217.17 L1455.65,2213.75 L1452.28,2210.85 L1449.51,2207.41 L1446.21,2204.48 L1443.45,2201.02 L1440.14,2198.12 L1437.39,2194.59 L1434.17,2191.35 L1427.37,2179.68 L1407.14,2175.9 L1397.51,2173.72 L1387.62,2172.38 L1377.92,2170.46 L1372.13,2170.33 L1367.1,2171.31 L1361.55,2173.64 L1355.22,2178.57 L1347.57,2183.25 L1344.84,2184.08 L1342.01,2183.96 L1340.64,2183.4 L1339.43,2182.35 L1338.73,2181.18 L1338.33,2178.83 L1338.63,2176.8 L1339.78,2172.21 L1340.94,2169.07 L1345.07,2163.13 L1346.76,2159.6 L1349.61,2157.98 L1351.26,2156.06 L1352.32,2153.3 L1353.33,2147.04 L1356.84,2141.85 L1358.57,2138.18 L1366.41,2113.09 L1370.95,2096.87 L1363.32,2084.54 L1365.91,2070.21 L1370,2054.78 L1372.22,2049.09 L1370.88,2045.39 L1369,2038.56 L1367.46,2035.67 L1366.35,2034.58 L1360.22,2030.88 L1351.37,2022.42 L1344.08,2018.34 L1338.52,2012.37 L1336.1,2009 L1330.61,2002.58 L1318.3,1992.15 L1315.63,1988.71 L1310.01,1982.28 L1301.02,1975.65 L1298.66,1973.43 L1296.07,1969.37 L1294.92,1965.84 L1294.4,1961.84 L1294.32,1957.76 L1294.97,1947.5 L1296.07,1939.48 L1298.14,1929.73 L1299.85,1911.34 L1300.71,1905.4 L1305.46,1888.57 L1310.48,1865.71 L1311.39,1862.59 L1313.61,1856.6 L1315.12,1853.48 L1322.56,1842.68 L1317.93,1833.89 L1315.63,1828.61 L1314.2,1823.97 L1312.3,1815.41 L1306.1,1819.5 L1301.63,1821.64 L1297.38,1824.29 L1296.12,1824.78 L1288.98,1825.98 L1282.84,1827.88 L1275.68,1828.99 L1269.9,1831.65 L1262.78,1832.89 L1245.95,1838.68 L1236.62,1839.9 L1225.95,1843.47 L1219.8,1845.95 L1201.32,1850.19 L1192.15,1853.31 L1173.68,1857.52 L1163.15,1861.46 L1157.06,1864.09 L1147.68,1867.3 L1144.88,1867.92 L1138.7,1868.51 L1135.95,1869.2 L1128.78,1872.36 L1123.4,1876.23 L1108.65,1884.94 L1107.41,1886.8 L1102.55,1892.16 L1100.61,1893.62 L1096.93,1895.67 L1094.62,1897.27 L1085.09,1907.07 L1082.89,1908.63 L1077.03,1912.18 L1072.67,1916.2 L1059.71,1925.6 L1056.22,1928.81 L1054.25,1931.53 L1053.45,1933.02 L1052.24,1936.49 L1051.29,1941.87 L1049.64,1955.58 L1044.27,1961.88 L1040.97,1965.3 L1037.16,1970.78 L1035.95,1973 L1035.13,1977.34 L1031.04,1983.54 L1027.89,1987.73 L1022.88,1992.67 L1019.9,1996.34 L1016.74,1999.53 L1011.79,2005.94 L1010.39,2008.23 L1008.04,2013.98 L1006.66,2016.67 L1000.83,2024.13 L997.645,2027.36 L991.734,2034.82 L986.887,2044.52 L980.848,2052.08 L977.518,2055.67 L973.241,2061.85 L968.687,2067.6 L961.503,2067.45 L952.985,2064.84 L946.435,2063.54 L937.401,2065.44 L914.201,2071.79 L871.208,2086.25 L863.214,2090.83 L855.227,2096.3 L847.253,2099.82 L838.907,2104.99 L829.632,2108.67 L824.332,2109.95 L815.957,2110.96 L795.371,2110.68 L787.986,2111.19 L766.153,2115.93 L760.693,2117.3 L755.476,2119.03 L729.871,2131.49 L722.878,2134.5 L712.728,2139.5 L703.365,2142.96 L696.986,2147.15 L689.642,2150.65 L679.041,2156.38 L676.469,2157.19 L671.891,2160.01 L665.394,2162.38 L663.161,2163.75 L659.036,2166.91 L650.41,2171.93 L636.129,2179.17 L622.922,2184.92 L611.165,2187.48 L605.296,2189.4 L601.656,2190.98 L598.662,2193.04 L595.059,2196.99 L593.29,2200.45 L592.445,2204.38 L570.803,2216.85 L561.002,2220.1 L550.761,2222.36 L547.281,2223.84 L543.919,2226.04 L540.826,2228.6 L536.608,2232.85 L534.165,2235.84 L530.198,2241.67 L526.826,2245 L523.851,2248.5 L520.399,2251.47 L517.367,2254.85 L513.885,2257.79 L510.839,2261.17 L507.377,2264.16 L504.404,2267.62 L502.691,2269.18 L490.418,2276.55 L476.088,2283.44 L451.805,2292.41 L444.213,2295.7 L433.053,2299.16 L423.758,2303.15 L407.009,2309.2 L332.27,2334.78 L324.109,2337.21 L316.637,2338.51 L308.161,2338.85 L279.017,2338.79 L309.267,2285.45 L315.229,2226.19 L321.473,2147.53 L327.557,2070.87 L262.116,1952.14 L206.87,1858.44 L251.796,1827.11 L330.571,1729.66 L358.101,1695.6 L365.409,1687.76 L406.943,1643.23 L430.193,1618.3 L450.629,1598.38 L464.021,1615.43 L486.13,1643.6 L702.404,1569.63 L785.777,1523.13 L801.11,1513.84 L831.078,1495.69 L831.353,1495.51 L832.399,1495.69 L889.056,1504.08 L975.98,1461.56 L1053.61,1327.91 L1144.51,1255.75 L1221.14,1238.09 L1234.03,1224.8 L1290.15,1166.94 L1287.22,1163.55 L1230.85,1098.3 L1215,1079.94 L1270.73,975.855 L1395.8,926.993 L1393.68,913.285 L1384.23,852.075 L1397.52,838.085 L1397.95,837.634 L1474.83,780.208 L1620.05,725.926 L1626.03,721.311 L1678.71,680.673 L1713.19,643.142 L1814.57,554.408 L1822.41,536.731 L1813.86,530.631 L1809.32,527.388 L1821.59,515.38 L1823.36,507.733 L1831.82,505.391 L1847.09,502.663 L1850.48,502.384 L1853.73,502.663 L1856.69,503.544 L1861.65,506.379 L1869.86,509.58 L1878.21,515.015 L1884.68,526.099 L1887.69,533.037 L1892.88,543.54 L1896,548.244 L1899.34,557.2 L1902.45,561.904 L1907.62,572.428 L1910.39,579.214 L1914.89,588.256 L1918.57,594.183 L1920.7,600.776 L1924.04,606.853 L1925.69,612.179 L1926.75,614.691 L1929.3,618.363 L1936.88,632.879 L1940.03,637.603 L1941.1,640.115 L1942.79,645.44 L1946.19,651.538 L1947.91,656.884 L1949,659.396 L1952.23,664.098 L1959.56,677.56 L1962.9,682.218 L1964.07,684.709 L1965.95,689.99 L1968.87,694.992 L1969.47,696.431 L1970.25,699.715 L1970.77,705.189 L1970.78,710.921 L1970.31,716.653 L1966.44,732.559 L1964.19,743.785 L1962.34,750.224 L1960.59,758.445 L1954.58,790.617 L1952.61,806.97 L1951.06,815.146 L1949.67,825.06 L1947.99,830.532 L1945.89,833.643 L1936.54,843.213 L1933.7,846.518 L1927.34,852.783 L1919.36,859.242 L1914.17,864.842 L1911.81,867.953 L1909.8,871.3 L1905.96,881.04 L1903.11,890.695 L1896.43,918.927 L1895.54,926.692 L1894.16,949.816"/>
  </g>
  <g stroke-width="1" transform="matrix(0.999744,0,0,0.999744,0,0)" stroke-opacity="1" font-size="34.5833" fill="none" stroke-linejoin="bevel" font-style="normal" stroke-linecap="square" stroke="#000000" font-family="MS Shell Dlg 2" font-weight="400"/>
  <g stroke-width="1" transform="matrix(11.808,0,0,11.808,0,0)" stroke-opacity="1" font-size="34.5833" fill="none" stroke-linejoin="bevel" font-style="normal" stroke-linecap="square" stroke="#000000" font-family="MS Shell Dlg 2" font-weight="400"/>
  <g stroke-width="1" transform="matrix(11.808,0,0,11.808,0,0)" stroke-opacity="1" font-size="34.5833" fill="none" stroke-linejoin="bevel" font-style="normal" stroke-linecap="square" stroke="#000000" font-family="MS Shell Dlg 2" font-weight="400"/>
  <g stroke-width="1" transform="matrix(11.808,0,0,11.808,0,0)" stroke-opacity="1" font-size="34.5833" fill="none" stroke-linejoin="bevel" font-style="normal" stroke-linecap="square" stroke="#000000" font-family="MS Shell Dlg 2" font-weight="400"/>
  <g stroke-width="1" transform="matrix(1,0,0,1,0,0)" stroke-opacity="1" font-size="34.5833" fill="none" stroke-linejoin="bevel" font-style="normal" stroke-linecap="square" stroke="#000000" font-family="MS Shell Dlg 2" font-weight="400"/>
  <g stroke-width="1" transform="matrix(11.808,0,0,11.808,0,0)" stroke-opacity="1" font-size="34.5833" fill="none" stroke-linejoin="bevel" font-style="normal" stroke-linecap="square" stroke="#000000" font-family="MS Shell Dlg 2" font-weight="400"/>
  <g stroke-width="1" transform="matrix(11.808,0,0,11.808,0,0)" stroke-opacity="1" font-size="34.5833" fill="none" stroke-linejoin="bevel" font-style="normal" stroke-linecap="square" stroke="#000000" font-family="MS Shell Dlg 2" font-weight="400"/>
  <g stroke-width="1" transform="matrix(11.808,0,0,11.808,0,0)" stroke-opacity="1" font-size="34.5833" fill="none" stroke-linejoin="bevel" font-style="normal" stroke-linecap="square" stroke="#000000" font-family="MS Shell Dlg 2" font-weight="400"/>
  <g stroke-width="1" transform="matrix(11.808,0,0,11.808,0,0)" stroke-opacity="1" font-size="34.5833" fill="none" stroke-linejoin="bevel" font-style="normal" stroke-linecap="square" stroke="#000000" font-family="MS Shell Dlg 2" font-weight="400"/>
  <g stroke-width="1" transform="matrix(1,0,0,1,0,0)" stroke-opacity="1" font-size="34.5833" fill="none" stroke-linejoin="bevel" font-style="normal" stroke-linecap="square" stroke="#000000" font-family="MS Shell Dlg 2" font-weight="400"/>
 </g>
</svg>
