<?xml version='1.0' encoding='UTF-8' standalone='no'?>
<svg xmlns:xlink="http://www.w3.org/1999/xlink" baseProfile="tiny" xmlns="http://www.w3.org/2000/svg" height="249.936mm" viewBox="0 0 2952 2952" width="249.936mm" version="1.2">
 <title>Qt SVG Document</title>
 <desc>Generated with Qt</desc>
 <defs/>
 <g stroke-width="1" fill-rule="evenodd" fill="none" stroke-linejoin="bevel" stroke-linecap="square" stroke="black">
  <g stroke-width="1" transform="matrix(1,0,0,1,0,0)" stroke-opacity="1" font-size="34.5833" fill="none" stroke-linejoin="bevel" font-style="normal" stroke-linecap="square" stroke="#000000" font-family="MS Shell Dlg 2" font-weight="400"/>
  <g stroke-width="1" transform="matrix(1,0,0,1,0,0)" stroke-opacity="1" font-size="34.5833" fill="none" stroke-linejoin="bevel" font-style="normal" stroke-linecap="square" stroke="#000000" font-family="MS Shell Dlg 2" font-weight="400"/>
  <g stroke-width="1" transform="matrix(11.808,0,0,11.808,0,0)" stroke-opacity="1" font-size="34.5833" fill="none" stroke-linejoin="bevel" font-style="normal" stroke-linecap="square" stroke="#000000" font-family="MS Shell Dlg 2" font-weight="400"/>
  <g stroke-width="1" transform="matrix(0.999744,0,0,0.999744,0,0)" stroke-opacity="1" font-size="34.5833" fill="none" stroke-linejoin="bevel" font-style="normal" stroke-linecap="square" stroke="#000000" font-family="MS Shell Dlg 2" font-weight="400"/>
  <g transform="matrix(0.999744,0,0,0.999744,0,0)" font-size="34.5833" fill-opacity="0" fill="#ffffff" font-style="normal" stroke="none" font-family="MS Shell Dlg 2" font-weight="400">
   <path fill-rule="evenodd" vector-effect="none" d="M-2,-2 L2955,-2 L2955,2955 L-2,2955 L-2,-2"/>
  </g>
  <g stroke-width="1" transform="matrix(0.999744,0,0,0.999744,0,0)" stroke-opacity="1" font-size="34.5833" fill="none" stroke-linejoin="bevel" font-style="normal" stroke-linecap="square" stroke="#000000" font-family="MS Shell Dlg 2" font-weight="400"/>
  <g stroke-width="1" transform="matrix(11.808,0,0,11.808,0,0)" stroke-opacity="1" font-size="34.5833" fill="none" stroke-linejoin="bevel" font-style="normal" stroke-linecap="square" stroke="#000000" font-family="MS Shell Dlg 2" font-weight="400"/>
  <g stroke-width="1" transform="matrix(11.808,0,0,11.808,0,0)" stroke-opacity="1" font-size="34.5833" fill="none" stroke-linejoin="bevel" font-style="normal" stroke-linecap="square" stroke="#000000" font-family="MS Shell Dlg 2" font-weight="400"/>
  <g stroke-width="1" transform="matrix(11.808,0,0,11.808,0,0)" stroke-opacity="1" font-size="34.5833" fill="none" stroke-linejoin="bevel" font-style="normal" stroke-linecap="square" stroke="#000000" font-family="MS Shell Dlg 2" font-weight="400"/>
  <g stroke-width="1" transform="matrix(11.808,0,0,11.808,0,0)" stroke-opacity="1" font-size="34.5833" fill="none" stroke-linejoin="bevel" font-style="normal" stroke-linecap="square" stroke="#000000" font-family="MS Shell Dlg 2" font-weight="400"/>
  <g stroke-width="1" transform="matrix(11.808,0,0,11.808,0,0)" stroke-opacity="1" font-size="34.5833" fill="none" stroke-linejoin="bevel" font-style="normal" stroke-linecap="square" stroke="#000000" font-family="MS Shell Dlg 2" font-weight="400"/>
  <g transform="matrix(11.808,0,0,11.808,0,0)" font-size="34.5833" fill-opacity="0" fill="#ffffff" font-style="normal" stroke="none" font-family="MS Shell Dlg 2" font-weight="400">
   <path fill-rule="evenodd" vector-effect="none" d="M0,0 L250,0 L250,250 L0,250 L0,0"/>
  </g>
  <g stroke-width="1" transform="matrix(11.808,0,0,11.808,0,0)" stroke-opacity="1" font-size="34.5833" fill="none" stroke-linejoin="bevel" font-style="normal" stroke-linecap="square" stroke="#000000" font-family="MS Shell Dlg 2" font-weight="400"/>
  <g stroke-width="1" transform="matrix(11.808,0,0,11.808,0,0)" stroke-opacity="1" font-size="34.5833" fill="none" stroke-linejoin="bevel" font-style="normal" stroke-linecap="square" stroke="#000000" font-family="MS Shell Dlg 2" font-weight="400"/>
  <g transform="matrix(0.999744,0,0,0.999744,0,0)" font-size="34.5833" fill-opacity="0" fill="#000000" font-style="normal" stroke="none" font-family="MS Shell Dlg 2" font-weight="400">
   <rect x="0" height="2953" width="2953" y="0"/>
  </g>
  <g stroke-width="1" transform="matrix(0.999744,0,0,0.999744,0,0)" stroke-opacity="1" font-size="34.5833" fill="none" stroke-linejoin="bevel" font-style="normal" stroke-linecap="square" stroke="#000000" font-family="MS Shell Dlg 2" font-weight="400"/>
  <g stroke-width="3.07087" transform="matrix(0.999744,0,0,0.999744,0,0)" stroke-opacity="1" font-size="34.5833" fill-opacity="1" fill="#c5c5c5" stroke-linejoin="bevel" font-style="normal" stroke-linecap="square" stroke="#5c5c5c" font-family="MS Shell Dlg 2" font-weight="400">
   <path fill-rule="evenodd" vector-effect="none" d="M1667.38,261.797 L1669.88,262.28 L1673.69,262.25 L1682.17,261.24 L1702.39,260.23 L1702.9,269.438 L1702.26,276.787 L1702.48,279.305 L1704.79,286.463 L1706.45,289.829 L1707.86,291.732 L1710.79,293.694 L1714.34,295.07 L1729.58,298.495 L1737.36,299.314 L1739.7,299.841 L1741.78,301.144 L1742.55,302.227 L1743.28,304.642 L1743.2,307.116 L1742.37,309.428 L1738.94,313.058 L1736.16,314.814 L1727.17,318.546 L1725.2,319.732 L1723.55,321.4 L1722.36,323.405 L1720.98,326.537 L1720.08,329.772 L1719.48,333.855 L1717.86,338.523 L1716.59,340.659 L1711.59,345.811 L1708.27,351.298 L1700.07,346.981 L1694.38,353.786 L1688.16,363.194 L1698.04,364.731 L1706.14,364.219 L1710.55,364.775 L1721.02,367.013 L1732.26,370.232 L1737.02,370.671 L1739.23,370.569 L1741.3,369.867 L1745.19,366.501 L1747.43,365.316 L1748.76,364.906 L1754.64,364.175 L1765.68,364.16 L1766.53,366.209 L1767.85,368.14 L1768.77,368.945 L1770.76,370.028 L1774.1,370.876 L1780.42,370.598 L1784.47,370.891 L1787.05,371.871 L1788.14,372.72 L1789.73,375.046 L1790.51,377.782 L1790.76,382.142 L1790.22,386.59 L1789.27,389.443 L1787.72,391.901 L1784.69,394.827 L1777.82,398.587 L1777.76,409.354 L1773.93,409.983 L1772.08,410.583 L1770.16,411.665 L1767.48,413.684 L1773.61,420.12 L1769.47,428.751 L1774.14,431.208 L1778.37,431.998 L1783.1,431.662 L1789.61,430.184 L1789.95,428.005 L1790.66,427.039 L1792.27,425.869 L1794.39,424.86 L1796.57,424.406 L1798.8,424.406 L1800.97,424.875 L1802.88,425.957 L1804.15,427.581 L1806.14,431.442 L1807.56,433.549 L1810.08,436.62 L1812.88,439.458 L1814.89,441.096 L1817.03,442.413 L1821.43,444.036 L1823.37,444.987 L1827.78,449.199 L1828.94,451.144 L1830.57,454.64 L1836.89,470.947 L1842.13,466.413 L1847.3,461.119 L1851.06,459.364 L1855.35,458.516 L1856.85,450.194 L1857.93,440.964 L1860.25,430.111 L1861.19,427.508 L1864.59,420.062 L1868.69,412.675 L1872.28,403.18 L1873.34,401.147 L1874.06,400.269 L1875.84,398.982 L1880.6,397.021 L1884.16,395.178 L1885.89,393.7 L1890.6,388.316 L1893.43,385.844 L1895.5,384.425 L1901.4,381.264 L1906.18,383.869 L1911.76,385.376 L1913.93,381.001 L1917.12,374.885 L1918.74,372.588 L1923.19,368.345 L1929.83,361.409 L1933.22,358.351 L1936.26,354.751 L1941.07,350.479 L1945.27,346.103 L2050.86,258.274 L2117.08,197.563 L2136.35,220.477 L1978.49,373.776 L1976.29,376.152 L1978.69,380.669 L1975.32,386.981 L1981.29,390.451 L1975.73,403.682 L1979.71,404.911 L1978.75,409.061 L1989.91,411.127 L1987.73,414.148 L1988.21,417.615 L1996.32,418.547 L2003.94,420.345 L2004.05,419.953 L2013.08,423.922 L2014.34,421.082 L2021.26,424.942 L2020.11,426.582 L2017.68,428.994 L2017.45,431.582 L2017.53,433.725 L2017.51,435.07 L2016.49,436.392 L2016.13,436.849 L2017.54,439.728 L2024.24,434.699 L2050.51,418.947 L2145.4,233.864 L2154.06,237.493 L2194.22,241.73 L2223.71,237.963 L2243.06,235.048 L2257.97,305.679 L2270.73,359.728 L2270.97,383.942 L2272.99,386.297 L2276.53,391.798 L2277.29,394.607 L2279.95,399.918 L2280.84,401.352 L2283.03,403.546 L2284.94,405.916 L2287.19,407.906 L2289.11,410.217 L2291.36,412.207 L2293.26,414.547 L2295.5,416.551 L2297.39,418.892 L2299.66,420.852 L2301.69,423.105 L2305.35,425.562 L2311.96,431.135 L2319.73,436.796 L2320.75,439.063 L2321.48,441.681 L2324.37,442.983 L2328.61,447.342 L2329.51,449.331 L2330.71,454.757 L2332.35,460.534 L2335.16,464.38 L2336.51,466.676 L2340.26,474.881 L2341.92,480.584 L2344.36,484.737 L2346.4,489.958 L2348.68,493.54 L2350.77,499.696 L2353.58,505.867 L2355.09,510.487 L2360.26,515.707 L2363.95,520.357 L2368.67,524.494 L2370.69,525.357 L2374.15,525.971 L2377.76,526.03 L2381.22,525.489 L2383.27,524.509 L2384.53,523.281 L2386.49,520.254 L2387.44,518.441 L2388.33,515.298 L2389,508.557 L2389.48,506.364 L2393.13,498.614 L2394.43,497.137 L2396.06,496.026 L2397.93,495.558 L2399.66,495.412 L2401.15,495.982 L2404.24,498.658 L2408.54,503.674 L2409.37,505.238 L2410.72,507.856 L2413.32,511.321 L2415.01,515.327 L2417.05,518.076 L2417.19,518.266 L2417.36,518.646 L2419.28,522.974 L2421.45,525.883 L2423.33,529.728 L2424.34,531.22 L2425.56,532.258 L2433.78,538.033 L2437.04,539.875 L2438.23,540.313 L2440.78,540.81 L2444.74,540.927 L2472.96,545.898 L2478.35,546.19 L2482.3,546.643 L2493.05,548.792 L2503.31,551.658 L2510.01,553.09 L2516.15,555.517 L2521.22,556.964 L2523.03,557.768 L2527.25,560.852 L2529.05,562.168 L2530.43,563.761 L2531.45,565.706 L2531.86,567.65 L2531.86,567.942 L2531.83,569.638 L2531.64,570.368 L2530.45,574.958 L2528.69,578.919 L2527.38,581.024 L2523.26,585.161 L2521.03,586.885 L2519.09,588.829 L2516.86,590.51 L2512.04,594.851 L2508.87,597.262 L2506.38,597.599 L2504.32,596.429 L2502.73,595.275 L2501.18,594.719 L2500.04,594.31 L2499.77,596.707 L2499.55,598.607 L2499.06,600.624 L2497.11,604.292 L2496.19,607.522 L2495.12,621.858 L2495.17,623.627 L2495.93,628.522 L2496.72,631.503 L2499.26,635.77 L2501.19,641.863 L2503.47,646.977 L2505.59,654.809 L2507.36,658.973 L2508.09,661.267 L2508.65,665.08 L2508.84,671.684 L2508.64,677.017 L2507.92,682.627 L2510.36,691.027 L2512.56,700.727 L2512.95,705.021 L2513.21,716.707 L2513.53,721.016 L2514.4,725.105 L2515.64,728.041 L2519.99,733.066 L2522.65,737.082 L2524.63,739.536 L2527.19,745.67 L2529.55,748.868 L2534.87,758.083 L2539.51,763.37 L2543.45,766.889 L2544.84,767.838 L2549.19,769.488 L2553.25,772.073 L2557.69,773.606 L2561.82,776.118 L2565.47,777.315 L2567.32,778.206 L2569.27,780.031 L2570.23,781.696 L2571.59,785.2 L2572.34,788.675 L2572.63,794.019 L2572.43,802.167 L2572.05,806.138 L2570.85,812.722 L2569.95,821.526 L2569.6,822.986 L2569.43,823.672 L2567.54,829.322 L2563.66,836.577 L2561.28,839.788 L2559.54,844.211 L2558.71,845.89 L2554.83,850.62 L2552.62,852.692 L2550.68,855.042 L2548.44,857.101 L2546.49,859.436 L2542.58,863.056 L2541.19,864.048 L2536.86,865.814 L2532.85,868.529 L2528.47,870.266 L2524.37,873.01 L2518.44,875.053 L2513.4,877.359 L2510.92,877.929 L2509.68,878.206 L2503.15,878.629 L2481.86,878.863 L2479.76,879.052 L2479.32,879.096 L2475.63,879.417 L2473.44,880.016 L2473.21,880.118 L2472.48,880.454 L2469.11,882.687 L2463.2,884.774 L2459.23,886.729 L2457.09,887.517 L2453.67,888.232 L2449.31,888.772 L2439.8,889.283 L2437.27,892.669 L2434.03,896.376 L2408.5,923.255 L2405.43,926.918 L2402.31,931.791 L2400.08,934.024 L2398.17,936.446 L2395.9,938.474 L2393.95,940.838 L2391.64,942.866 L2389.69,945.229 L2387.39,947.272 L2385.5,949.708 L2383.91,951.328 L2382.95,952.787 L2381.4,957.382 L2378.76,961.599 L2377.03,967.857 L2374.73,973.065 L2372.78,981.045 L2370.97,985.231 L2370.27,987.376 L2368.96,995.923 L2368.32,997.674 L2366.62,1000.24 L2365.97,1001.99 L2364.64,1010.51 L2361.88,1017.95 L2361.48,1020.21 L2360.81,1026.04 L2360.4,1028.19 L2359.74,1030.2 L2357.98,1034.35 L2355.95,1042.22 L2354.19,1046.42 L2353.47,1048.68 L2352.02,1058.53 L2349.35,1066.22 L2348.01,1074.37 L2347.67,1075.39 L2346.74,1076.98 L2345.24,1078.68 L2343.45,1081.16 L2341.44,1083.45 L2338.84,1089.5 L2334.93,1094.27 L2332.67,1096.34 L2330.69,1098.69 L2326.09,1102.77 L2320.17,1105.54 L2317.95,1107.65 L2315.55,1109.56 L2313.93,1111.18 L2312.54,1112.17 L2308.13,1113.97 L2304.17,1116.66 L2299.62,1118.38 L2295.51,1121.15 L2291.15,1123.06 L2289.78,1124.2 L2287.3,1127.49 L2282.14,1132.77 L2277.4,1136.53 L2275.26,1138.88 L2272.95,1140.9 L2270.97,1143.22 L2268.68,1145.23 L2266.7,1147.55 L2264.44,1149.58 L2260.56,1154.39 L2260.1,1155.3 L2259.51,1157.42 L2258.69,1163.28 L2258.15,1165.64 L2256.03,1170.93 L2254.02,1178.81 L2251.79,1184.06 L2249.77,1191.93 L2247.54,1197.12 L2245.73,1203.28 L2243.13,1207.53 L2241.87,1211.16 L2241.07,1212.9 L2239.12,1215.4 L2236.88,1219.37 L2233.59,1224.54 L2231.81,1226.53 L2227.34,1229.54 L2224.76,1230.7 L2220.9,1231.85 L2220.36,1233.43 L2219.62,1234.88 L2215.95,1238.85 L2214.54,1239.87 L2211.02,1241.25 L2209.38,1242.11 L2204.66,1246.12 L2202.47,1248.42 L2198.07,1251.83 L2197.38,1252.63 L2195.98,1254.26 L2194.01,1257.17 L2191.61,1259.79 L2189.35,1263.57 L2190.64,1271.07 L2190.78,1273.01 L2191.03,1276.2 L2191.12,1285.15 L2190.87,1288.91 L2190.47,1291.33 L2189.75,1293.57 L2187.97,1297.67 L2186.27,1304.32 L2183.64,1310.47 L2181.8,1316.53 L2179.17,1320.79 L2177.32,1326.88 L2175.02,1331.9 L2173.19,1338.01 L2170.65,1342.36 L2168.9,1350.81 L2166.37,1355.16 L2164.88,1360.2 L2164.04,1362.24 L2160.61,1368.34 L2158.58,1370.83 L2157.67,1372.27 L2156.01,1376.75 L2153.32,1380.81 L2151.65,1385.24 L2150.68,1386.64 L2149.07,1388.24 L2147.52,1390.2 L2147.18,1390.63 L2145.08,1392.84 L2144.23,1394.48 L2142.94,1398.08 L2140.26,1402.15 L2138.59,1406.59 L2137.63,1407.99 L2132.04,1414.16 L2131.18,1415.79 L2129.84,1419.33 L2128.92,1420.76 L2126.88,1423.22 L2123.28,1429.23 L2119.11,1437.85 L2118.09,1441.28 L2116.94,1449.85 L2114.21,1457.38 L2112.83,1467.16 L2110.06,1474.68 L2109.05,1481.75 L2108.49,1483.83 L2108.07,1484.75 L2106.27,1487.22 L2104.25,1492.49 L2102.03,1495.76 L2101.61,1496.67 L2101.08,1498.72 L2100.2,1504.22 L2099.48,1506.14 L2097.28,1509.43 L2096.02,1513.05 L2095.23,1514.72 L2092.93,1517.92 L2090.91,1523.22 L2088.61,1526.49 L2087.29,1530.3 L2086.41,1532.25 L2085.58,1533.43 L2085.01,1534.06 L2083.41,1535.8 L2083.26,1540.6 L2082.92,1544.02 L2082.89,1544.36 L2082.7,1545.11 L2080.18,1554.9 L2079.77,1557.38 L2079.47,1561.71 L2078.89,1570.29 L2077.71,1574.76 L2076.09,1580.84 L2075.51,1584.46 L2074.76,1595.61 L2075.87,1609.79 L2076.37,1613.68 L2080.06,1630.01 L2081.69,1639.94 L2084.69,1647.72 L2086.64,1658.9 L2091.13,1673.72 L2091.97,1675.59 L2094.32,1679.12 L2096.19,1683.7 L2099.06,1688 L2100.93,1692.56 L2103.79,1696.87 L2106.11,1702.3 L2108.48,1705.91 L2110.6,1712.14 L2113.08,1717.35 L2115.28,1723.6 L2118.56,1728.48 L2120.77,1734.12 L2123.18,1736.87 L2126.98,1740.18 L2131.65,1744.98 L2136.07,1751.79 L2139.31,1758.32 L2140.99,1761.69 L2143.4,1769.59 L2145.66,1774.94 L2146.38,1777.61 L2147.92,1785.85 L2150.89,1793.86 L2152.6,1803.53 L2153.14,1805.41 L2156.1,1815.75 L2157.62,1825.56 L2158.87,1831.11 L2159.47,1836.61 L2159.59,1843.67 L2159.04,1849.28 L2157.96,1853.48 L2157.88,1853.77 L2158.03,1854.07 L2160.94,1860.01 L2163.22,1866.05 L2165.45,1871.02 L2166.1,1873.56 L2167.49,1882.73 L2170.29,1892.86 L2170.7,1896.36 L2170.86,1900.06 L2170.81,1923.47 L2170.45,1929.5 L2169.68,1932.95 L2167.38,1938.05 L2165.6,1944.6 L2164.78,1946.7 L2162.85,1950.69 L2162.59,1951.52 L2160.96,1956.7 L2158.24,1960.83 L2156.95,1964.36 L2156.08,1966.01 L2151.97,1970.55 L2149.53,1972.5 L2147.24,1974.72 L2137.13,1980.66 L2135.82,1981.69 L2134.15,1983.34 L2131.64,1985.21 L2129.33,1987.25 L2123.15,1989.8 L2120.84,1991.83 L2118.32,1993.68 L2116.04,1995.88 L2105.23,2002.21 L2102.94,2004.4 L2100.44,2006.25 L2098.12,2008.26 L2096.39,2009.08 L2092.64,2010.25 L2088.38,2012.79 L2083.63,2014.24 L2079.35,2016.77 L2074.61,2018.21 L2070.31,2020.7 L2065.55,2022.07 L2061.26,2024.49 L2057.45,2025.53 L2055.64,2026.23 L2053.07,2028.09 L2047.63,2030.96 L2044.97,2032.96 L2041.99,2035.21 L2039.32,2043.85 L2038.69,2049.26 L2038.99,2054.8 L2040.09,2060.35 L2041.27,2068.6 L2041.97,2071.3 L2046.53,2082.63 L2048.12,2084.75 L2049.17,2085.62 L2052.48,2087.29 L2052.57,2100.2 L2056.3,2107.5 L2059.93,2113.5 L2062.91,2117.07 L2066.3,2122.02 L2073.11,2130.59 L2078.26,2140.11 L2081.14,2144.04 L2082.48,2147.47 L2083.34,2149.07 L2087.32,2153.64 L2089.53,2155.84 L2092.88,2161.38 L2096.05,2166.17 L2098.09,2168.53 L2100.73,2174.45 L2106.72,2181.31 L2109.38,2187.2 L2115.36,2194.08 L2118.01,2199.96 L2120.1,2202.17 L2122.01,2204.57 L2124.27,2206.77 L2127.71,2212.51 L2129.05,2215.5 L2130.51,2220.49 L2133.08,2224.76 L2134.94,2230.8 L2137.78,2236.96 L2141.41,2248.77 L2141.21,2251.53 L2141.41,2253.45 L2142.6,2256.58 L2147.18,2263.7 L2149.98,2266.57 L2153.96,2271.23 L2156.63,2277.11 L2160.62,2281.72 L2162.88,2283.76 L2166.86,2288.39 L2169.51,2294.3 L2173.47,2298.94 L2175.74,2300.95 L2177.73,2303.3 L2179.97,2305.55 L2186.43,2315.91 L2188.66,2318.15 L2190.64,2320.49 L2192.92,2322.5 L2194.9,2324.83 L2197.12,2327.05 L2203.52,2337.47 L2205.69,2339.95 L2208.27,2343.95 L2213.72,2350.86 L2216.35,2354.74 L2218.6,2356.96 L2220.57,2359.28 L2222.81,2361.28 L2226.9,2365.88 L2230.59,2372.53 L2234.14,2378.15 L2230.49,2379.89 L2227.66,2380.95 L2224.97,2381.53 L2222.2,2381.82 L2217.99,2381.88 L2213.82,2381.59 L2204.37,2379.63 L2201.82,2380.79 L2196.72,2382.56 L2191.43,2383.86 L2188.8,2384.86 L2186.55,2385.38 L2180.64,2385.95 L2174.07,2389.87 L2169.32,2394.77 L2167.85,2396.54 L2164.35,2401.88 L2162.4,2405.63 L2161.33,2410.36 L2161,2415.3 L2161.42,2443.86 L2160.8,2448.48 L2159.6,2451.27 L2157.66,2453.24 L2154.2,2454.75 L2146.32,2456.21 L2136.07,2456.93 L2133.33,2457.62 L2130.93,2458.96 L2129.15,2460.79 L2122.16,2471.34 L2117.22,2475.35 L2114.15,2478.25 L2106.04,2488.01 L2105.48,2493.77 L2104.41,2498.97 L2102.19,2505.38 L2098.43,2512.75 L2096.13,2516.31 L2092.15,2520.66 L2087.79,2524.47 L2082.65,2527.95 L2077.03,2533.22 L2076.36,2534.32 L2075.52,2536.68 L2074.07,2545.8 L2071.97,2552.23 L2068.18,2559 L2065.41,2562.41 L2064.18,2564.33 L2061.66,2568.88 L2060.3,2572.68 L2058.54,2580.71 L2057.95,2585.16 L2057.78,2594.29 L2058.42,2600.15 L2059.86,2604 L2061.09,2606.04 L2061.88,2606.89 L2063.76,2608.09 L2067.57,2609.89 L2071.36,2613.19 L2072.67,2614.94 L2073.49,2617.01 L2073.91,2619.37 L2073.56,2621.74 L2072.82,2623.8 L2071.61,2625.6 L2068.19,2629.21 L2063.28,2632.93 L2061.17,2633.81 L2056.42,2635.02 L2052.76,2636.35 L2050.54,2637.4 L2048.56,2638.96 L2044.15,2643.47 L2039.32,2649 L2033.27,2657.91 L2029.69,2664.68 L2032.04,2673.77 L2032.91,2684.15 L2032.59,2694.42 L2030.56,2704.95 L2028.94,2708.76 L2026.74,2711.56 L2024.14,2713 L2015.77,2715.43 L2013.21,2714.44 L2009.99,2713.69 L2005.05,2713.52 L2002.11,2714.11 L1999.73,2715.03 L1997.58,2716.38 L1996.59,2717.35 L1995.06,2719.97 L1994.31,2723.18 L1994.07,2728.31 L1994.43,2744.28 L1993.85,2748.99 L1992.95,2751.31 L1991.84,2752.82 L1987.37,2757.29 L1982.55,2761.14 L1979.73,2762.35 L1972.94,2764.35 L1969.24,2756.7 L1965.7,2750.38 L1961.09,2745.69 L1950.7,2738.97 L1947.13,2734.59 L1942.29,2730.15 L1941.34,2728.47 L1939.48,2724.12 L1935.5,2719.45 L1930.88,2715.38 L1924.9,2712.71 L1918,2706.66 L1916.36,2705.78 L1912.81,2704.43 L1909.49,2702.19 L1907.72,2701.4 L1902.58,2699.85 L1896.44,2697.16 L1889.84,2695.32 L1883.62,2692.4 L1878.25,2690.71 L1872.34,2689.9 L1853.7,2689.43 L1850.69,2689.04 L1846.53,2687.87 L1841.63,2685.85 L1836.14,2682.66 L1832.67,2680.12 L1827.79,2677.82 L1823.44,2675.05 L1818.56,2672.84 L1815.01,2670.5 L1811.64,2669.11 L1808.95,2668.34 L1804.46,2667.78 L1799.8,2667.6 L1761.97,2667.65 L1752.65,2667.37 L1748.14,2666.78 L1738.96,2664.83 L1727.38,2661.44 L1718.39,2660.17 L1714.72,2660.65 L1707.83,2663.84 L1705.5,2664.29 L1703.17,2664.2 L1701.01,2663.54 L1700.09,2662.99 L1696.22,2660.07 L1690.45,2656.42 L1687.62,2654.38 L1685.35,2653.34 L1682.8,2652.73 L1680.15,2652.44 L1673.44,2652.6 L1665.32,2654.06 L1658.07,2654.56 L1649.32,2654.48 L1643.79,2653.64 L1639.19,2651.82 L1635.74,2649.43 L1631.02,2647.16 L1622.49,2639.96 L1619.22,2638.47 L1616.72,2637.71 L1612.78,2637.27 L1608.71,2637.25 L1603.34,2637.76 L1596.73,2638.96 L1592.71,2639.12 L1590.05,2638.94 L1587.45,2638.51 L1578.46,2635.96 L1573.39,2635.11 L1568.44,2634.68 L1561.34,2635.4 L1558.9,2635.3 L1554.15,2634.07 L1548.05,2631.48 L1540.46,2629.76 L1537.85,2629.38 L1535.28,2629.45 L1530.15,2630.44 L1527.64,2631.07 L1525.19,2632.03 L1522.86,2633.58 L1520.81,2635.44 L1515.32,2642.13 L1513.42,2643.33 L1510.08,2644.3 L1507.65,2644.15 L1505.31,2643.68 L1500.49,2641.84 L1497.25,2640.13 L1492.97,2636.76 L1488.96,2632 L1486.25,2627.86 L1480.03,2621 L1477.48,2617.15 L1472.17,2610.27 L1469.55,2606.07 L1464.1,2599.02 L1463.08,2595.29 L1462.73,2590.47 L1464.47,2573.94 L1465.54,2569.18 L1470.28,2559.24 L1469.87,2550.65 L1468.24,2541.43 L1467.18,2537.61 L1465.06,2533.24 L1459.88,2528 L1450.29,2521.05 L1444.44,2517.47 L1441.97,2515.46 L1438.6,2512.02 L1436.67,2509.47 L1434.23,2504.46 L1431.77,2496.64 L1430.96,2492.11 L1430.68,2487.27 L1430.38,2465.9 L1429.9,2461.31 L1428.92,2455.99 L1437.7,2452.52 L1443.6,2449.78 L1448.2,2448.2 L1450.36,2447.07 L1451.38,2446.22 L1452.94,2444.15 L1453.9,2441.9 L1454.57,2439.34 L1454.52,2435.47 L1453.42,2431.66 L1451.83,2428.04 L1449.08,2423.22 L1447.65,2419 L1447.03,2414.34 L1446.84,2406.37 L1447.08,2401.62 L1447.78,2397.02 L1449.71,2390.47 L1454.14,2378.97 L1454.94,2374.45 L1454.92,2369.81 L1454.49,2366.8 L1452.49,2359.38 L1451.59,2357.38 L1449.94,2354.99 L1449.12,2353 L1449,2349.68 L1449.78,2345.25 L1452.45,2339.41 L1454.33,2330.54 L1454.27,2325.24 L1452.76,2316.33 L1453.06,2312.46 L1454.1,2308.84 L1457.31,2302.79 L1458.34,2300.27 L1460.36,2291.05 L1460.55,2288.39 L1460.4,2285.73 L1459.18,2281.07 L1456.06,2276.99 L1454.13,2273.83 L1451.92,2267.82 L1449.77,2264.27 L1447.81,2259.21 L1445.37,2254.6 L1444.64,2250.96 L1443.86,2241.44 L1442.77,2234.52 L1442.01,2223.39 L1441.22,2219.89 L1439.73,2216.05 L1436.95,2211.58 L1435.39,2207.48 L1433.25,2204.02 L1430.75,2198.04 L1426.86,2193 L1425.67,2191.81 L1423.98,2190.62 L1417.05,2186.73 L1412.03,2184.51 L1408.85,2180.51 L1406.06,2175.83 L1404.77,2174.1 L1403.32,2172.58 L1399.97,2169.9 L1397.85,2167.68 L1393.29,2163.6 L1388.22,2160.82 L1382.29,2158.32 L1370.94,2154.78 L1367.68,2153.35 L1364.19,2151.03 L1362.14,2150.13 L1354.83,2148.17 L1352.22,2147.72 L1348.18,2147.46 L1344.13,2147.53 L1340.18,2148.04 L1336.48,2149.3 L1333.42,2150.9 L1330.08,2153.57 L1321.1,2159.51 L1317.78,2162.3 L1308.74,2168.18 L1305.41,2170.98 L1298.92,2175.01 L1289.46,2179.81 L1284.43,2181.37 L1281.85,2181.67 L1277.99,2181.4 L1271.79,2179.31 L1268.03,2178.77 L1264.24,2179.05 L1256.9,2180.51 L1255.65,2180.58 L1253.17,2180.26 L1250.83,2179.67 L1248.46,2178.7 L1243.17,2175.58 L1238.98,2172.45 L1235.06,2170.75 L1231.59,2168.71 L1230.51,2168.29 L1228.08,2167.82 L1225.43,2167.72 L1219.32,2168.36 L1214.26,2163.85 L1211.09,2160.06 L1206.63,2155.63 L1201.82,2151.94 L1193.22,2144.36 L1190.85,2142.77 L1183.75,2139.31 L1176.69,2135.33 L1185.94,2127.76 L1192.48,2121.26 L1196.19,2118.58 L1202.8,2113.11 L1206.63,2110.54 L1209.04,2108.56 L1213.9,2106.34 L1218.1,2103.28 L1223.77,2100.09 L1226,2099.2 L1236.4,2097 L1246.98,2096.14 L1249.41,2095.54 L1250.53,2095.04 L1252.51,2093.51 L1258.73,2086.36 L1259.92,2085.27 L1261.64,2084.27 L1266.02,2082.63 L1268.39,2081.12 L1271.05,2078.12 L1273.27,2076.02 L1275.19,2073.7 L1277.37,2071.65 L1279.29,2069.37 L1285.64,2063.13 L1290.38,2057.66 L1293,2052.8 L1294.22,2049.57 L1294.81,2045.92 L1295.53,2035.17 L1306.58,2018.73 L1308.14,2014.62 L1310.69,2010.12 L1311.5,2006.62 L1312.1,2001.62 L1310.94,1988.22 L1309.85,1982.75 L1308.71,1973.14 L1307.29,1966.4 L1305.96,1957.13 L1306.18,1954.53 L1307.25,1950.67 L1308.09,1948.21 L1309.88,1944.23 L1310.56,1941.9 L1310.83,1939.24 L1310.63,1936.55 L1309.96,1934.17 L1306.47,1926.64 L1302.58,1919.99 L1300.16,1916.5 L1299.68,1915.44 L1299.08,1913.06 L1298.69,1909.1 L1298.74,1899.25 L1299.48,1893.69 L1300.19,1891.42 L1302.09,1887.18 L1304.47,1880.95 L1306.65,1874.55 L1308.4,1868 L1308.73,1865.33 L1308.73,1862.61 L1308.42,1859.94 L1304.38,1843.76 L1307.41,1836.26 L1308.23,1833.5 L1308.8,1830.19 L1309,1826.78 L1308.8,1821.62 L1307.4,1813.94 L1294.19,1811.86 L1278.32,1808.69 L1269.44,1807.59 L1253.43,1804.46 L1244.54,1803.36 L1228.52,1800.24 L1219.63,1799.12 L1203.6,1795.99 L1194.71,1794.89 L1178.68,1791.75 L1169.79,1790.65 L1153.76,1787.51 L1144.87,1786.37 L1128.8,1783.16 L1121.01,1782.65 L1113.2,1783.05 L1110.18,1783.58 L1097.38,1787.09 L1089.07,1782.8 L1089.07,1778.5 L1082.43,1779.23 L1076.6,1780.68 L1072.72,1782.25 L1065.87,1784.24 L1054.29,1786.78 L1043.94,1788.86 L1032.66,1790.05 L1011.65,1792.19 L1003.72,1793.33 L997.938,1791.23 L993.927,1789.31 L992.514,1788.41 L990.366,1786.2 L988.11,1784.24 L986.212,1781.93 L984.015,1779.94 L982.113,1777.61 L979.896,1775.62 L977.988,1773.31 L975.772,1771.34 L973.857,1769.05 L971.578,1767.11 L969.448,1764.86 L964.77,1761.53 L961.157,1758.16 L956.941,1753.52 L953.776,1749.26 L952.624,1747.95 L950.862,1746.82 L944.82,1744.09 L944.047,1741.44 L941.363,1736.2 L940.464,1734.77 L938.274,1732.61 L936.369,1730.27 L934.11,1728.31 L932.185,1726.01 L929.934,1724.06 L928.017,1721.75 L925.768,1719.79 L923.858,1717.49 L921.619,1715.52 L919.723,1713.18 L917.514,1711 L914.433,1706.24 L909.552,1699.96 L907.113,1696.11 L904.906,1693.93 L903.006,1691.58 L900.772,1689.61 L898.859,1687.32 L896.613,1685.35 L894.695,1683.04 L892.447,1681.07 L890.527,1678.75 L888.278,1676.79 L886.36,1674.5 L884.111,1672.52 L882.214,1670.15 L880.019,1667.97 L873.797,1657.43 L871.602,1655.23 L869.702,1652.86 L867.458,1650.9 L865.541,1648.6 L863.294,1646.64 L861.384,1644.33 L859.145,1642.36 L857.24,1640.07 L854.967,1638.12 L852.92,1635.82 L850.027,1633.6 L848.542,1632.19 L843.52,1626.18 L841.617,1621.06 L840.446,1618.74 L838.378,1616.34 L835.029,1611.39 L831.182,1606.94 L827.06,1605.88 L822.74,1604.14 L819.31,1601.72 L814.714,1599.34 L813.276,1597.8 L811.039,1593.08 L807.73,1589.26 L806.107,1587.79 L800.554,1584.33 L791.137,1579.79 L783.659,1577.59 L778.62,1575.48 L776.05,1574.92 L773.396,1574.67 L768.068,1574.93 L757.645,1577.13 L747.647,1579.79 L741.511,1580.82 L736.731,1581.14 L732.046,1580.85 L729.044,1580.15 L726.444,1578.86 L724.361,1577.17 L722.591,1575.15 L720.207,1571.4 L719.997,1563.35 L718.255,1549.97 L714.923,1533.3 L714.237,1528.54 L714.007,1522.2 L714.496,1517.76 L715.514,1515.14 L716.384,1514.05 L717.419,1513.28 L719.732,1512.41 L726.046,1511.64 L728.569,1511.01 L730.853,1509.72 L732.538,1507.8 L734.787,1503.16 L736.264,1498.05 L736.865,1495.15 L738.066,1484.34 L741.481,1471.36 L742.388,1469.05 L743.804,1467.01 L745.667,1465.56 L747.627,1464.58 L749.616,1461.36 L750.456,1458.91 L750.595,1456.29 L749.69,1452.63 L748.687,1450.58 L748.02,1449.72 L739.445,1440.01 L730.855,1442.47 L717.671,1445.12 L708.647,1446.48 L706.106,1446.37 L697.084,1444.76 L686.844,1441.76 L683.028,1441.03 L676.739,1440.32 L672.59,1440.96 L671.703,1443.62 L670.648,1446.05 L669.259,1448.34 L667.925,1449.5 L662.804,1452.63 L660.8,1453.43 L655.907,1454.86 L651.852,1457.48 L648.373,1458.72 L646.789,1459.49 L645.066,1460.88 L643.692,1461.73 L637.564,1463.58 L632.626,1465.98 L626.772,1467.77 L625.91,1468.2 L623.431,1469.94 L622.552,1470.36 L620.565,1470.91 L616.307,1471.62 L614.32,1472.16 L613.435,1472.57 L610.927,1474.24 L609.086,1474.93 L603.828,1475.86 L601.836,1476.43 L600.289,1477.31 L597.776,1479.26 L595.272,1480.65 L593.355,1481.93 L588.655,1485.81 L582.882,1484.55 L580.47,1484.36 L576.919,1484.4 L574.678,1484.65 L572.644,1485.19 L569.224,1487.21 L566.172,1488.17 L562.596,1488.58 L546.682,1489.38 L539.328,1488.71 L536.11,1488.08 L534.279,1487.25 L528.175,1481.85 L526.614,1480.86 L523.317,1480.05 L519.652,1479.8 L514.658,1479.96 L511.159,1480.54 L509.167,1481.33 L505.826,1483.51 L496.362,1486.39 L494.501,1486.38 L490.871,1485.33 L488.882,1485 L485.877,1485.08 L484.058,1485.61 L480.779,1487.54 L476.37,1489.27 L475.503,1489.83 L474.262,1491.06 L473.276,1492.84 L472.933,1493.93 L471.831,1500.93 L471.215,1503.26 L470.326,1505.24 L468.663,1508.06 L461.6,1503.96 L455.617,1499.1 L453.799,1498.03 L450.336,1497.13 L446.845,1496.94 L444.668,1497.25 L442.738,1498.21 L441.747,1499.55 L441.512,1500.36 L441.514,1501.38 L442.154,1503.1 L444.104,1506.63 L444.769,1508.82 L445.196,1512.44 L445.011,1516.16 L443.983,1519.76 L440.442,1526.09 L437.318,1532.73 L436.377,1534.17 L435.04,1535.41 L430.122,1537.75 L427.594,1539.48 L424.898,1540.49 L418.725,1541.75 L415.53,1541.08 L410.304,1540.28 L407.262,1539.28 L398.899,1535.06 L393.075,1531.42 L390.07,1528.95 L388.335,1528.25 L385.323,1527.86 L383.207,1527.92 L381.095,1528.19 L379.081,1528.75 L375.403,1530.44 L374.492,1530.73 L372.868,1530.87 L371.385,1530.57 L368.262,1528.78 L366.411,1528.33 L363.243,1528.05 L354.362,1527.82 L352.345,1527.48 L351.416,1527.18 L349.918,1526.23 L347.376,1523.54 L346.402,1522.29 L346.009,1521.44 L345.552,1519.57 L345.035,1514.33 L344.608,1512.21 L343.703,1510.18 L343.054,1509.27 L341.46,1507.72 L339.559,1506.65 L334.817,1505.13 L331.624,1503.08 L329.981,1502.57 L328.167,1502.46 L326.321,1502.68 L324.579,1503.29 L322.728,1504.54 L316.694,1501.19 L312.898,1498.6 L307.844,1493.95 L304.647,1490.69 L302.405,1488.14 L300.495,1485.38 L299.648,1483.4 L298.978,1480.43 L298.19,1474.83 L298.19,1473.08 L299.003,1467.69 L299.512,1465.93 L300.389,1464.35 L301.696,1463.17 L306.164,1460.4 L307.783,1459.55 L312.179,1457.73 L316.736,1455.03 L318.152,1454.03 L318.779,1453.37 L319.32,1452.52 L319.956,1450.55 L320.183,1448.43 L320.126,1446.23 L319.795,1444.03 L319.501,1442.94 L318.668,1441.02 L317.606,1439.42 L315.787,1437.19 L316.802,1433.3 L317.863,1430.71 L322.039,1428.55 L321.174,1422.43 L319.086,1415.93 L314.979,1407.25 L308.087,1393.61 L304.138,1384.92 L302.237,1379.05 L300.041,1375.47 L298.002,1370.39 L295.632,1365.85 L295.234,1363.63 L295.316,1360.04 L295.812,1357.65 L296.781,1355.1 L297.458,1352.25 L297.821,1350.75 L298.879,1348.65 L306.72,1339.84 L312.589,1330.94 L316.842,1323.6 L322.923,1324.65 L326.722,1324.67 L330.668,1324.26 L347.269,1319.72 L353.556,1317.18 L356.062,1316.45 L365.857,1314.36 L374.015,1313.79 L376.59,1315.96 L378.569,1317.11 L384.154,1319.07 L390.201,1321.7 L397.115,1326.47 L399.606,1327.83 L402.411,1328.67 L405.302,1329.05 L409.641,1329.01 L413.731,1328.15 L416.037,1326.91 L420.173,1323.14 L423.267,1321.35 L426.732,1319.95 L430.384,1319.1 L432.873,1319.26 L434.089,1319.64 L436.332,1321.11 L438.02,1323.17 L442.038,1331.88 L445.96,1337.07 L446.852,1337.98 L448.93,1339.4 L452.425,1340.87 L455.014,1341.56 L458.988,1341.92 L464.338,1341.56 L486.974,1336.4 L487.5,1333.43 L488.365,1330.68 L490.742,1326.62 L491.674,1324.16 L493.584,1314.17 L495.064,1311.73 L496.194,1310.82 L497.461,1310.18 L500.249,1309.46 L516.067,1308.65 L526.384,1306.89 L534.887,1305.4 L549.074,1302.12 L558.069,1299.34 L564.395,1297.74 L569.335,1295.82 L571.927,1295.09 L574.579,1294.85 L577.127,1295.06 L579.38,1295.71 L583.045,1297.52 L585.474,1297.97 L589.46,1297.94 L592.119,1297.43 L601.033,1294.94 L607.463,1293.51 L613.796,1291.46 L619.944,1288.96 L631.636,1282.59 L635.07,1281.25 L638.597,1281.21 L645.84,1282.18 L651.58,1283.93 L653.06,1277.2 L654.284,1273.33 L659.228,1263.16 L665.337,1254.05 L667.154,1252.26 L670.005,1250.28 L671.609,1248.85 L673.433,1246.26 L673.947,1244.24 L673.885,1243.22 L671.322,1236.44 L671.1,1234.07 L671.406,1231.76 L672.345,1229.83 L675.437,1226.04 L682.255,1219.86 L683.342,1218.56 L684.731,1215.34 L685.198,1212.69 L685.363,1209.95 L685.272,1207.2 L684.862,1204.5 L684.484,1203.21 L683.33,1200.99 L681.825,1199.37 L680.023,1198.22 L677.972,1197.61 L672.219,1197.13 L670.863,1196.42 L669.724,1195.35 L668.243,1193.41 L665.468,1188.56 L664.193,1186.86 L660.795,1183.02 L656.392,1178.91 L654.037,1177.01 L653.016,1175.78 L652.186,1173.93 L651.966,1172.76 L652.126,1170.39 L652.546,1169.25 L653.238,1168.22 L655.183,1166.95 L662.214,1165.64 L664.465,1165 L668.525,1163.34 L679.388,1159.78 L681.417,1158.6 L682.25,1157.78 L685.356,1153.41 L688.178,1148.7 L690.2,1146.14 L694.077,1139.29 L698.475,1129.61 L700.289,1123.69 L702.34,1120 L704.787,1113.95 L708.669,1108.88 L710.596,1107.2 L712.788,1106.06 L715.623,1105 L717.79,1104.45 L720.442,1104.11 L727.198,1104.04 L734.957,1104.58 L751.672,1103.35 L754.385,1097.38 L757.099,1093.28 L758.406,1089.71 L759.241,1088.07 L764.537,1081.78 L765.464,1080.38 L767.095,1075.96 L769.6,1071.73 L771.11,1066.7 L772.106,1064.31 L775.88,1058.23 L777.33,1056.03 L777.992,1054 L778.165,1051.91 L777.857,1049.93 L777.066,1048.37 L774.291,1045.03 L771.068,1042 L768.125,1038.61 L767.151,1037.17 L765.135,1031.07 L762.402,1024.76 L760.83,1019.52 L760.324,1016.55 L760.121,1013.5 L760.309,1007.34 L761.023,1002.88 L763.457,993.619 L763.719,990.979 L763.551,988.324 L762.866,985.771 L761.53,983.364 L759.827,981.307 L755.468,977.31 L754.195,975.326 L752.693,971.738 L752.092,968.966 L751.808,966.077 L751.694,952.51 L751.4,948.06 L749.806,939.875 L748.583,936.023 L747.125,933.586 L745.306,931.47 L739.378,926.801 L735.157,922.628 L734.043,921.971 L731.624,921.154 L721.428,919.928 L719.186,919.038 L717.422,917.331 L716.391,915.069 L714.429,908.897 L711.58,903.322 L705.857,895.982 L704.708,894.143 L702.664,888.422 L696.377,874.616 L694.072,866.719 L693.116,858.604 L692.604,856.006 L691.336,852.342 L690.286,850.269 L686.209,845.175 L684.303,843.496 L678.387,840.241 L669.921,836.051 L676.237,832.11 L681.153,828.227 L690.224,824.124 L694.524,821.701 L696.993,818.81 L700.858,811.496 L704.28,807.423 L706.02,805.831 L707.112,805.174 L709.717,804.313 L719.641,803.32 L722.33,802.575 L723.575,801.933 L725.493,800.108 L726.222,798.94 L729.758,789.113 L732.147,784.908 L732.97,784.09 L734.97,782.981 L739.504,782.032 L742.479,774.365 L744.721,766.553 L748.294,759.076 L749.441,754.841 L749.599,751.906 L749.332,749.087 L748.615,746.619 L746.784,742.909 L745.998,739.492 L745.642,735.884 L745.899,733.328 L748.553,725.996 L752.636,717.335 L755.88,711.463 L757.252,709.433 L759.226,707.709 L761.406,706.759 L763.699,706.292 L766.106,706.423 L770.873,707.855 L774.968,708.498 L779.117,708.542 L781.749,708.06 L784.118,706.832 L784.991,705.956 L786.261,703.94 L787.301,701.545 L788.962,693.89 L791.727,683.153 L793.445,673.671 L793.682,670.998 L793.435,667.009 L792.8,664.467 L791.507,661.063 L788.967,656.387 L788.248,652.91 L788.03,643.12 L788.453,640.665 L789.444,638.342 L790.272,637.275 L792.318,635.77 L801.763,632.57 L805.291,630.816 L809.544,627.236 L813.758,622.574 L814.373,622.121 L815.776,621.113 L817.022,620.587 L821.117,619.622 L831.083,618.132 L836.999,618.41 L844.417,620.046 L846.715,619.798 L849.77,618.746 L856.113,614.186 L859.081,611.278 L860.87,609.057 L862.981,605.432 L867.102,595.947 L870.962,590.247 L875.171,595.859 L881.544,603.561 L884.425,606.031 L886.736,607.069 L890.62,607.332 L895.108,606.864 L903.508,604.701 L909.416,602.758 L913.469,595.479 L917.84,589.794 L924.082,596.283 L928.805,593.989 L937.278,587.514 L939.777,586.184 L941.114,585.789 L945.962,585.833 L951.238,586.871 L957.569,587.689 L963.653,582.471 L968.072,576.888 L966.552,573.467 L965.044,571.26 L959.509,566.129 L957.799,564.112 L953.531,556.379 L951.292,553.412 L949.019,551.833 L942.265,549.143 L937.647,546.936 L923.749,542.915 L907.961,539.173 L888.834,533.53 L886.795,522.725 L888.762,520.708 L889.919,519.333 L890.796,517.842 L891.058,517.038 L891.154,516.19 L891.046,515.356 L890.779,514.581 L889.953,513.207 L888.945,511.906 L885.179,512.973 L882.658,514.07 L879.532,508.835 L875.46,504.2 L873.251,502.197 L871.331,499.886 L869.149,497.869 L867.261,495.5 L865.106,493.306 L862.546,489.768 L861.023,488.305 L858.233,486.638 L852.967,485.117 L850.914,484.328 L842.682,480.496 L838.491,478.2 L839.23,467.861 L838.991,465.272 L837.681,460.183 L835.899,450.954 L834.854,448.468 L831.468,442.807 L830.712,440.365 L830.682,439.092 L831.461,435.523 L832.677,433.256 L834.441,431.34 L839.403,427.785 L841.182,425.767 L841.902,424.582 L842.804,422.139 L843.298,419.521 L844.113,408.535 L852.075,408.037 L858.661,408.286 L862.138,409.017 L866.583,411.402 L868.62,411.899 L870.844,412.133 L874.331,412.148 L880.187,411.431 L882.041,411.431 L887.569,411.972 L890.593,411.534 L891.525,411.197 L893.037,410.217 L896.084,406.969 L898.578,405.068 L907.961,400.693 L910.852,398.557 L913.286,395.983 L915.905,392.164 L918.097,389.706 L921.631,384.483 L925.362,387.19 L932.803,394.066 L943.024,400.84 L944.828,402.712 L948.458,408.052 L951.478,410.992 L953.793,412.411 L957.362,413.83 L958.649,414.167 L961.135,414.401 L963.51,414.02 L965.586,412.953 L967.002,411.27 L969.238,407.408 L970.525,405.653 L973.382,403.853 L975.747,403.005 L978.164,402.712 L984.416,403.268 L988.263,402.976 L990.821,402.259 L994.582,400.664 L1000.86,398.528 L1009.84,396.348 L1013.58,394.959 L1016.03,393.774 L1028.91,385.39 L1030.25,391.959 L1033.05,402.347 L1034.34,408.871 L1035.1,411.417 L1037.01,415.849 L1039.44,419.433 L1044.94,429.424 L1046.76,431.501 L1047.87,432.364 L1050.03,433.476 L1053.72,434.236 L1060.89,434.397 L1066.18,431.106 L1070.05,427.156 L1072.03,426.059 L1073.15,425.869 L1076.52,426.074 L1091.99,429.336 L1101.91,430.404 L1104.38,431.121 L1105.47,431.691 L1107.03,433.051 L1109.68,435.977 L1111.41,439.692 L1112.56,441.55 L1114.3,443.012 L1116.44,444.182 L1118.92,445.045 L1121.51,445.469 L1125.5,445.499 L1129.42,444.797 L1134.13,442.676 L1136.09,441.067 L1136.88,440.072 L1139.39,435.055 L1140.85,433.388 L1143.81,431.457 L1150.79,428.078 L1154.63,426.732 L1161.29,425.913 L1171.65,425.46 L1180.08,426.542 L1186.3,425.855 L1190.06,424.933 L1195.06,422.68 L1200.5,420.823 L1203.99,420.077 L1210.57,419.331 L1213.09,418.833 L1216.63,417.502 L1218.62,416.39 L1222.32,412.704 L1223.61,410.875 L1225.48,406.209 L1226.88,399.83 L1227.8,396.904 L1228.99,393.891 L1231.58,389.136 L1232.14,386.751 L1232.43,384.161 L1232.54,372.31 L1234.13,366.106 L1234.87,361.336 L1239.49,359.58 L1243.16,358.966 L1246.68,359.566 L1249.77,361.102 L1252.51,363.224 L1255.38,367.072 L1256.36,369.706 L1257.14,376.026 L1258.08,379.362 L1259.62,382.259 L1262.37,385.303 L1265.19,387.117 L1269.99,388.448 L1274.13,388.287 L1278.46,387.336 L1281.85,388.96 L1284.04,390.54 L1286.86,393.408 L1290.61,398.28 L1293.76,400.415 L1297.21,401.001 L1304.05,400.313 L1307.44,400.708 L1310.41,401.878 L1319.68,409.047 L1323.29,410.919 L1328.53,412.762 L1334.98,414.43 L1347.58,415.527 L1350.37,416.346 L1351.61,417.078 L1353.24,418.979 L1353.82,420.603 L1354.23,428.692 L1354.66,431.559 L1356.23,438.741 L1358.41,445.543 L1359.23,450.062 L1361.59,450.866 L1363.97,451.217 L1366.38,451.115 L1368.67,450.428 L1370.71,449.009 L1373.65,445.66 L1378.51,441.301 L1381.26,439.37 L1384.63,437.688 L1391.94,434.967 L1397.12,433.461 L1401.47,432.832 L1407.36,432.89 L1410.23,433.359 L1412.97,434.295 L1415.34,435.743 L1417.42,437.527 L1423.33,443.802 L1425.8,444.987 L1430.12,445.718 L1436.3,445.894 L1442.65,446.683 L1448.77,448.073 L1452.88,453.982 L1453.98,456.439 L1455.59,461.177 L1456.8,463.342 L1458.38,465.082 L1462.21,468.431 L1464.1,469.338 L1466.14,469.894 L1466.72,469.923 L1468.34,470.025 L1472.75,469.718 L1484.32,471.751 L1490.2,472.029 L1496.04,471.854 L1500.18,471.108 L1503.68,469.689 L1505.62,468.548 L1512.41,462.435 L1514.32,461.309 L1517.76,459.861 L1525.16,457.901 L1533.72,454.201 L1538.29,451.832 L1540.27,450.296 L1541.12,449.316 L1543.87,445.235 L1545.67,443.246 L1547.8,441.608 L1549.01,441.008 L1551.48,440.453 L1554,440.599 L1556.37,441.111 L1558.66,441.754 L1560.81,442.72 L1562.59,444.197 L1567.47,450.047 L1569.57,451.876 L1571.94,453.338 L1574.41,454.201 L1583.23,455.971 L1587.69,457.741 L1591.02,459.803 L1593.01,460.344 L1595.11,460.329 L1597.1,459.686 L1597.93,459.145 L1604.66,453.236 L1613.63,447.225 L1618.44,442.807 L1620.01,440.891 L1623.46,434.573 L1624.79,432.817 L1626.51,431.53 L1629.28,429.965 L1630.93,428.575 L1634.07,425.006 L1638.5,421.013 L1641.96,415.922 L1645.22,410.393 L1646.89,408.447 L1648.21,407.306 L1648.46,392.471 L1648.13,386.678 L1647.57,383.883 L1646.78,381.718 L1644.37,376.436 L1643.09,374.432 L1641.55,372.925 L1639.72,371.842 L1638.54,371.476 L1636.19,371.33 L1634.05,371.842 L1633.13,372.325 L1630.54,374.724 L1629.28,375.485 L1628.35,375.807 L1626.34,375.997 L1624.3,375.558 L1622.84,374.724 L1621.57,373.554 L1616.97,368.008 L1612,362.887 L1616.66,356.859 L1618.92,353.405 L1620.23,350.23 L1620.54,347.406 L1628.92,345.137 L1631.01,344.069 L1632.8,342.313 L1633.77,340.001 L1633.74,338.23 L1633.35,337.425 L1632.78,336.196 L1630.16,334.03 L1625.33,330.694 L1620.99,326.391 L1619.11,324.108 L1614.87,320.127 L1611.95,318.956 L1609.62,318.795 L1608.42,319.088 L1606.19,320.244 L1598,326.42 L1596.24,328.323 L1593.58,332.303 L1591.56,334.396 L1589.46,335.552 L1584.05,337.747 L1579.09,341.523 L1574.97,345.167 L1573.88,345.752 L1571.4,346.484 L1560.07,347.83 L1551.52,350.069 L1543.02,348.957 L1532.28,346.835 L1527.5,345.108 L1525.4,343.82 L1524.43,342.855 L1523,340.352 L1522.42,337.484 L1522.51,334.572 L1523.23,331.747 L1523.89,330.415 L1525.67,328.367 L1532.14,324.459 L1536.59,327.664 L1538.82,328.85 L1541.06,329.45 L1543.02,329.186 L1544.65,327.971 L1545.64,326.025 L1547.02,317.595 L1549.67,316.102 L1551.14,314.492 L1555.04,307.306 L1556.71,304.657 L1557.64,301.349 L1558.19,295.421 L1558.83,293.562 L1560.26,290.869 L1564.42,288.717 L1568.12,287.107 L1573.18,285.467 L1582.13,284.048 L1586.26,282.891 L1591.99,279.173 L1598.2,277.226 L1600.53,276.216 L1604.52,272.82 L1606.49,271.824 L1607.61,271.634 L1609.84,271.751 L1612.13,272.234 L1616.74,274.225 L1618.91,275.66 L1620.86,277.475 L1624.43,282.159 L1625.98,283.535 L1628.78,284.516 L1629.91,284.428 L1631.01,283.974 L1632.58,282.335 L1633.19,280.154 L1631.96,269.716 L1632.11,267.33 L1632.94,264.988 L1634.35,263.056 L1636.66,260.596 L1639.45,256.79 L1641.31,254.887 L1643.61,253.393 L1646.4,252.559 L1650.76,252.442 L1655,253.554 L1657.37,254.945 L1664.95,260.772 L1667.38,261.797 M2219.83,491.771 L2212.13,492.005 L2205.66,491.888 L2194.7,493.496 L2192.04,497.079 L2188.99,503.03 L2187.27,514.333 L2185.44,517.052 L2184.61,519.099 L2184.42,520.079 L2184.37,521.073 L2184.61,523.047 L2185.55,525.62 L2186.56,531.454 L2187.44,534.217 L2191.03,540.649 L2192.55,544.304 L2193.07,546.643 L2192.95,548.748 L2192.03,550.4 L2191.31,551.014 L2184.09,554.362 L2179.59,555.195 L2173.72,555.531 L2163.83,559.625 L2157.75,562.446 L2151.43,564.171 L2143.62,565.033 L2141.11,565.764 L2139.92,566.349 L2137.72,567.869 L2135.68,569.681 L2127.08,578.817 L2123.23,582.471 L2119.49,585.219 L2116.27,588.069 L2110.72,591.372 L2108.56,592.308 L2102.12,594.076 L2089.9,594.661 L2085.91,595.45 L2080.96,597.16 L2074.36,600.872 L2070.87,603.284 L2067.5,604.321 L2056.71,605.067 L2051.08,605.841 L2041.03,606.251 L2036.88,606.733 L2034.3,607.507 L2031.1,609.086 L2030.1,609.933 L2028.99,611.512 L2015.45,619.549 L2012.59,620.675 L2005.41,622.618 L1995.75,626.944 L1991.99,629.326 L1987.75,632.774 L1981,631.182 L1975.16,628.39 L1972.97,627.674 L1969.23,627.192 L1960.4,626.973 L1956.99,626.359 L1952.7,623.948 L1948.11,622.18 L1944.47,629.267 L1942.26,634.06 L1940.09,637.713 L1939.68,638.795 L1939.23,641.206 L1939.24,645.122 L1939.64,647.766 L1940.36,650.09 L1942.05,654.21 L1942.96,658.228 L1943.47,663.912 L1943.6,669.668 L1943.24,675.278 L1942.64,677.923 L1942.16,679.164 L1940.35,681.823 L1935.79,685.797 L1934.95,687.229 L1934.59,688.397 L1934.49,690.837 L1935.05,693.349 L1936.26,696.899 L1938.09,700.697 L1938.77,702.932 L1938.94,705.43 L1938.49,707.84 L1937.29,709.842 L1933.07,713.669 L1930.53,716.4 L1928.31,719.424 L1925.8,723.689 L1923.73,726.099 L1920.53,729.093 L1918.93,731.605 L1906.44,735.607 L1898.79,737.213 L1888.72,739.696 L1884.29,741.785 L1880.15,745.494 L1878.13,746.823 L1873.54,748.897 L1867.95,750.679 L1863.3,753.162 L1860.89,753.731 L1856.89,754.14 L1842.62,754.432 L1838.42,754.228 L1835.71,753.79 L1834.42,753.41 L1832.24,752.285 L1830.62,750.84 L1829.35,749.131 L1826.19,742.544 L1824.91,740.646 L1822.12,738.601 L1818.71,736.951 L1813.84,735.183 L1807.55,733.299 L1795.87,730.889 L1790.51,730.466 L1783.77,730.714 L1780.29,731.371 L1772.8,733.533 L1768.38,736.527 L1762.73,739.74 L1754.74,742.793 L1752.23,744.574 L1749.33,747.481 L1747.48,748.649 L1744.07,749.292 L1736.67,748.474 L1734.1,748.488 L1731.55,748.853 L1726.5,750.387 L1719.12,753.571 L1703.93,757.66 L1698.45,758.39 L1689.49,759.792 L1686.96,759.821 L1684.84,759.47 L1680.76,758.185 L1674.83,755.411 L1672.49,754.71 L1668.9,754.184 L1664.63,754.943 L1650.54,760.23 L1643.56,762.026 L1633.57,763.764 L1619.01,768.262 L1610.25,772.628 L1604.06,774.658 L1601.01,774.993 L1597.98,774.818 L1589.29,772.467 L1575.16,767.78 L1568.76,765.954 L1562.81,765.239 L1550.56,764.83 L1546.14,764.071 L1543.47,763.034 L1536.39,759.032 L1531.52,757.061 L1526.59,755.761 L1522.84,755.542 L1516.87,757.119 L1513.46,757.382 L1511.36,757.061 L1507.28,754.929 L1505.23,754.593 L1500.85,755.454 L1493.82,758.331 L1491.36,758.989 L1488.83,759.31 L1486.37,759.105 L1481.39,757.543 L1478.56,756.988 L1474.16,756.783 L1471.28,757.061 L1465.93,758.813 L1461.8,761.252 L1459.73,761.953 L1457.46,762.274 L1451.97,762.347 L1445.78,763.501 L1443.74,764.304 L1440.24,766.582 L1436.52,768.13 L1434.37,768.729 L1428.81,769.313 L1421.54,769.342 L1420.32,773.431 L1419.89,776.366 L1419.54,791.639 L1419.1,796.093 L1418.25,798.94 L1417.58,800.225 L1415.82,802.473 L1413.62,804.269 L1412.37,804.955 L1409.66,805.802 L1395.9,806.868 L1389.41,808.897 L1386.88,809.043 L1382.85,808.853 L1384.81,816.11 L1386.79,825.088 L1388.94,831.497 L1390.61,835.467 L1391.32,838.986 L1391.03,842.547 L1390.69,843.598 L1389.28,846.27 L1388.51,848.503 L1385.61,862.019 L1383.48,865.245 L1381.46,867.654 L1378.14,870.894 L1374.15,874.148 L1372.47,876.177 L1370.27,880.745 L1368.07,887.722 L1366.12,891.122 L1361.96,895.836 L1358.32,899.47 L1355.45,901.673 L1351.09,902.928 L1343.01,903.337 L1327.87,903.03 L1314.25,901.936 L1322.18,923.547 L1324.26,928.289 L1327.49,934.389 L1335.34,930.609 L1338.79,928.158 L1341.69,926.801 L1345.83,931.12 L1345.44,935.614 L1344.96,937.628 L1344.59,938.532 L1342.53,941.874 L1341.31,945.477 L1340.47,947.141 L1336.35,951.722 L1332.67,954.508 L1330.34,956.697 L1332.7,959.235 L1336.24,962.241 L1340.36,966.953 L1341.46,968.937 L1344.44,976.041 L1346.38,979.309 L1351.57,985.756 L1352.9,986.923 L1354.42,987.74 L1356.19,988.105 L1357.85,988.047 L1364.8,986.763 L1367.04,985.917 L1370.98,984.035 L1377.21,982.11 L1383.47,979.426 L1386.04,978.754 L1390.02,978.331 L1393.91,978.404 L1396.33,978.813 L1398.47,979.717 L1402.84,984.064 L1403.92,986.034 L1406.87,993.079 L1408.22,995.355 L1409.84,997.528 L1418.31,1006.7 L1427.07,1015.21 L1421.34,1019.81 L1415.34,1023.46 L1408.97,1028.03 L1406.12,1029.47 L1401.47,1031.19 L1399.71,1032.23 L1398.46,1033.33 L1395.66,1036.54 L1394.35,1037.59 L1384.42,1042.8 L1381.74,1045.07 L1378.03,1049.51 L1376.38,1051.11 L1370.91,1054.81 L1365.28,1058.24 L1359.49,1063.8 L1365.14,1067.11 L1370.88,1069.35 L1372.74,1070.71 L1373.42,1071.71 L1374.21,1074.02 L1374.52,1077.88 L1374.13,1083.32 L1372.65,1091.41 L1372.62,1094.11 L1373,1096.73 L1374.31,1100.39 L1375.47,1102.46 L1378.73,1105.82 L1381.37,1109.1 L1380.64,1116.55 L1380.37,1123.5 L1380.46,1130.39 L1381.05,1135.69 L1382.82,1143.35 L1383.66,1145.5 L1385.33,1148.09 L1387.95,1153.93 L1392.97,1160.01 L1394.08,1161.94 L1394.7,1164.31 L1395.01,1168.28 L1394.82,1172.43 L1394.38,1175.17 L1393.64,1177.59 L1391.91,1181.67 L1390.41,1186.41 L1389.43,1188.47 L1388.8,1189.33 L1385.65,1193.28 L1383.5,1195.5 L1380.86,1198.97 L1379.36,1200.45 L1376.55,1202.38 L1366.22,1208.02 L1364.51,1209.31 L1363.01,1210.8 L1357.68,1217.81 L1354.08,1224.68 L1350.97,1232.71 L1355.44,1233.95 L1359.31,1236.37 L1363.59,1238.09 L1367.46,1240.96 L1373.34,1244.47 L1378.69,1247.15 L1385.15,1251.26 L1389.55,1255.5 L1391.47,1257.75 L1395.9,1261.75 L1401.65,1264.35 L1404.85,1266.52 L1409.11,1268.27 L1412.95,1271.13 L1417.91,1273.98 L1419.89,1274.9 L1422.15,1275.56 L1434.17,1277.2 L1436.08,1277.27 L1437.97,1277.13 L1446.06,1275.6 L1453.28,1274 L1456.92,1273.69 L1461.84,1273.73 L1465.61,1274.23 L1468.47,1275.18 L1471.33,1276.46 L1474.74,1278.85 L1476.77,1279.71 L1482.09,1280.71 L1484.49,1280.67 L1488.08,1279.59 L1491.42,1277.3 L1497.04,1274.49 L1504.55,1267.5 L1511.03,1263.41 L1517.16,1261.22 L1520.97,1260.99 L1523.39,1261.56 L1524.51,1262.1 L1525.84,1263.19 L1527.01,1264.82 L1529.64,1269.9 L1531.02,1271.62 L1531.97,1272.28 L1534.18,1273.08 L1536.63,1273.46 L1544.53,1273.73 L1548.44,1274.16 L1551.34,1275.03 L1554.24,1276.36 L1555.19,1277 L1558.12,1279.84 L1559.43,1280.83 L1567.18,1284.7 L1569.96,1286.61 L1571.43,1288.1 L1574,1291.62 L1576.1,1293.86 L1577.96,1296.24 L1582.25,1300.29 L1584.16,1301.26 L1586.7,1301.9 L1589.11,1301.82 L1592.2,1301.04 L1598.22,1298.42 L1600.82,1297.72 L1604.93,1297.19 L1618.7,1296.02 L1617.08,1302.94 L1616.42,1308.34 L1616.46,1310.92 L1616.78,1313.4 L1617.09,1314.56 L1617.98,1316.45 L1619.03,1317.78 L1623.76,1322.02 L1633.76,1328.29 L1638.19,1332.46 L1640.14,1334.71 L1642.35,1336.71 L1644.46,1338.98 L1648.36,1342.02 L1652.79,1346.07 L1658.05,1343.12 L1662.93,1341.09 L1672.16,1338.37 L1682,1337.73 L1702.87,1338.05 L1708.28,1341.15 L1712.75,1345.32 L1714.68,1347.57 L1718.29,1350.98 L1721.02,1352.81 L1724.52,1354.17 L1727.2,1354.71 L1731.45,1354.98 L1741.66,1355.01 L1745.97,1355.26 L1748.75,1355.74 L1753.8,1357.39 L1756.19,1358.49 L1762.43,1362.37 L1768.51,1367.75 L1771.78,1371.71 L1779.76,1375.18 L1786.26,1379.08 L1791.49,1384.02 L1793.41,1386.26 L1797.9,1390.19 L1801.03,1391.44 L1804.48,1392.04 L1808.23,1392.1 L1813.08,1390.96 L1819.18,1388.63 L1824.13,1386.24 L1831.54,1383.88 L1836.62,1381.82 L1839.31,1381.21 L1843.48,1380.83 L1849.1,1381 L1853.19,1381.7 L1857.13,1383.23 L1861.33,1376.84 L1864.47,1371.41 L1866.55,1368.87 L1869.79,1363.94 L1876.45,1355.23 L1878.55,1353.27 L1883.49,1349.86 L1887.25,1347.6 L1889.74,1345.69 L1892.49,1344.62 L1900.49,1342.85 L1911.75,1342.23 L1915.33,1341.62 L1918.59,1340.35 L1920.78,1339.11 L1926.87,1333.59 L1928.32,1332.65 L1930.18,1331.99 L1936.93,1330.35 L1943.54,1329.18 L1947.87,1327.64 L1950.09,1326.41 L1957.45,1319.66 L1966.21,1314.24 L1969.27,1311.59 L1972.82,1308.94 L1974.98,1306.58 L1977.48,1302.44 L1978.76,1300.72 L1980.23,1299.22 L1983.69,1296.54 L1985.85,1294.32 L1990.46,1290.46 L1996.22,1287.86 L2000.84,1284.03 L2003.05,1281.83 L2007.89,1278.35 L2013.7,1272.76 L2020.14,1265.23 L2021.76,1264.25 L2025.98,1262.37 L2028.39,1260.42 L2032.02,1258 L2033.55,1256.6 L2034.89,1255.03 L2036.83,1252.22 L2038.98,1249.79 L2039.9,1248.3 L2043.22,1241.95 L2044.8,1236.92 L2045.63,1235.2 L2049.49,1230.48 L2052.15,1227.61 L2059.31,1215.29 L2067.96,1205.55 L2071.54,1203.69 L2072.88,1202.59 L2073.97,1200.89 L2074.91,1197.89 L2076,1192.19 L2075.88,1189.26 L2075.2,1184.32 L2075.21,1182.03 L2075.5,1179.76 L2076.16,1177.59 L2078.31,1172.46 L2080.23,1165.87 L2082.53,1160.74 L2083.35,1157.17 L2084.19,1146.94 L2083.75,1141.18 L2083.75,1137.71 L2084.37,1134.45 L2085.45,1132.62 L2087.01,1131.5 L2091.21,1129.77 L2094.53,1127.57 L2103.85,1122.93 L2098.67,1115.67 L2094.09,1106.55 L2093.11,1104.02 L2092.53,1101.59 L2092.29,1099.07 L2092.46,1097.84 L2093.13,1095.64 L2094.16,1093.72 L2100.5,1087.16 L2102.87,1083.06 L2105.83,1075.64 L2110.1,1062.73 L2112.56,1050.72 L2113.53,1041.12 L2114.37,1037.11 L2115.48,1034.53 L2120.05,1027.41 L2121.16,1024.73 L2121.85,1021.67 L2122.49,1013.66 L2122.62,995.632 L2122.76,963.539 L2121.31,954.552 L2121.24,949.533 L2121.61,945.492 L2117.68,929.661 L2116.01,921.694 L2113.46,914.092 L2110.05,906.956 L2109.66,905.657 L2109.42,902.826 L2109.86,899.893 L2114.03,888.67 L2115.91,877.535 L2116.7,874.586 L2117.92,872.164 L2120.78,868.792 L2121.95,866.909 L2123.52,863.654 L2124.44,860.764 L2124.76,858.239 L2124.54,840.985 L2124.93,832.854 L2125.78,828.227 L2127.54,823.059 L2128.17,820.168 L2129.53,806.474 L2132.83,790.793 L2137.99,786.266 L2139.69,785.113 L2142.95,783.623 L2150.14,781.068 L2154.5,781.608 L2158.6,781.404 L2170.21,778.177 L2182.16,776.41 L2184.71,775.709 L2191.03,773.139 L2200.15,771.299 L2211.71,767.458 L2221.92,765.107 L2224.41,765.195 L2226.81,765.852 L2228.83,766.772 L2230.27,768.043 L2231.17,770.204 L2230.72,779.082 L2231.23,781.331 L2232.19,782.63 L2233.09,783.331 L2235.11,784.324 L2237.53,785.156 L2240.09,785.551 L2244.09,785.521 L2248.1,784.894 L2250.3,784.193 L2254.4,782.353 L2256.91,780.717 L2258.91,778.994 L2262.71,775.139 L2263.87,772.964 L2265.49,770.729 L2266.89,769.517 L2272.07,766.042 L2274.85,764.684 L2288.23,759.281 L2291.59,757.514 L2292.68,755.659 L2294.16,754.038 L2297.11,752.052 L2302.57,748.912 L2308.36,743.946 L2309.76,742.515 L2311.03,740.543 L2312.54,735.198 L2316.34,733.621 L2324.01,731.284 L2328.96,729.268 L2331.44,727.954 L2331.43,723.689 L2329.45,721.585 L2328.52,719.935 L2328.34,718.226 L2328.56,717.349 L2329.01,716.517 L2329.76,715.816 L2331.51,715.085 L2333.46,714.852 L2337.73,714.852 L2341.34,715.787 L2344.79,715.845 L2351.24,714.75 L2360.8,713.683 L2364.8,712.851 L2371.1,710.572 L2375.6,708.279 L2379.03,705.445 L2385.21,700.858 L2383.92,699.032 L2382.14,697.133 L2376.4,692.999 L2374.67,692.283 L2370.8,691.231 L2369.84,690.851 L2368.09,689.756 L2366.59,688.383 L2364.02,685.023 L2359.4,681.239 L2358.52,680.859 L2356.56,680.435 L2351.39,679.953 L2350.42,679.69 L2348.86,678.784 L2347.91,677.499 L2347.49,675.234 L2347.7,665.679 L2347.96,663.166 L2348.52,660.712 L2348.99,659.528 L2350.26,657.614 L2351.91,656.066 L2352.83,655.452 L2354.81,654.59 L2358.57,653.304 L2361.86,651.069 L2367.11,648.921 L2370.4,646.671 L2371.29,646.232 L2379.65,644.099 L2380.55,643.66 L2383.85,641.41 L2387.35,639.993 L2388.98,639.087 L2391.16,636.954 L2393.5,634.981 L2395.64,632.672 L2399.33,629.998 L2401.88,627.748 L2406.37,623.13 L2413.58,615.194 L2417.3,614.566 L2423.7,612.579 L2435.33,607.829 L2441,604.672 L2450.84,602.509 L2456.79,600.902 L2455.83,590.817 L2455.15,587.104 L2454.74,585.964 L2453.66,584.196 L2451.44,582.398 L2444.64,579.212 L2436.06,576.128 L2433.56,575.499 L2428.28,574.534 L2416.05,574.213 L2412.33,573.277 L2410.23,572.254 L2403.52,568.307 L2395.75,561.949 L2386.4,556.628 L2382.49,553.69 L2377.64,551.292 L2372.58,546.629 L2367.99,543.179 L2362.19,539.027 L2360.36,538.281 L2357.19,537.667 L2345.44,536.103 L2338.9,534.217 L2332.58,532.74 L2330.45,531.79 L2325.66,527.711 L2322.32,523.983 L2316.85,520.342 L2313.38,517.579 L2289.29,516.965 L2275.03,515.663 L2264.52,512.169 L2259.7,511.365 L2253.19,510.941 L2248.38,511.072 L2245.28,511.482 L2234.3,514.552 L2232.06,512.154 L2231.8,503.761 L2230.69,499.112 L2229.91,497.722 L2228.13,495.792 L2223.68,492.853 L2219.83,491.771"/>
  </g>
  <g stroke-width="1" transform="matrix(0.999744,0,0,0.999744,0,0)" stroke-opacity="1" font-size="34.5833" fill="none" stroke-linejoin="bevel" font-style="normal" stroke-linecap="square" stroke="#000000" font-family="MS Shell Dlg 2" font-weight="400"/>
  <g stroke-width="1" transform="matrix(11.808,0,0,11.808,0,0)" stroke-opacity="1" font-size="34.5833" fill="none" stroke-linejoin="bevel" font-style="normal" stroke-linecap="square" stroke="#000000" font-family="MS Shell Dlg 2" font-weight="400"/>
  <g stroke-width="1" transform="matrix(11.808,0,0,11.808,0,0)" stroke-opacity="1" font-size="34.5833" fill="none" stroke-linejoin="bevel" font-style="normal" stroke-linecap="square" stroke="#000000" font-family="MS Shell Dlg 2" font-weight="400"/>
  <g stroke-width="1" transform="matrix(11.808,0,0,11.808,0,0)" stroke-opacity="1" font-size="34.5833" fill="none" stroke-linejoin="bevel" font-style="normal" stroke-linecap="square" stroke="#000000" font-family="MS Shell Dlg 2" font-weight="400"/>
  <g stroke-width="1" transform="matrix(1,0,0,1,0,0)" stroke-opacity="1" font-size="34.5833" fill="none" stroke-linejoin="bevel" font-style="normal" stroke-linecap="square" stroke="#000000" font-family="MS Shell Dlg 2" font-weight="400"/>
  <g stroke-width="1" transform="matrix(11.808,0,0,11.808,0,0)" stroke-opacity="1" font-size="34.5833" fill="none" stroke-linejoin="bevel" font-style="normal" stroke-linecap="square" stroke="#000000" font-family="MS Shell Dlg 2" font-weight="400"/>
  <g stroke-width="1" transform="matrix(11.808,0,0,11.808,0,0)" stroke-opacity="1" font-size="34.5833" fill="none" stroke-linejoin="bevel" font-style="normal" stroke-linecap="square" stroke="#000000" font-family="MS Shell Dlg 2" font-weight="400"/>
  <g stroke-width="1" transform="matrix(11.808,0,0,11.808,0,0)" stroke-opacity="1" font-size="34.5833" fill="none" stroke-linejoin="bevel" font-style="normal" stroke-linecap="square" stroke="#000000" font-family="MS Shell Dlg 2" font-weight="400"/>
  <g stroke-width="1" transform="matrix(11.808,0,0,11.808,0,0)" stroke-opacity="1" font-size="34.5833" fill="none" stroke-linejoin="bevel" font-style="normal" stroke-linecap="square" stroke="#000000" font-family="MS Shell Dlg 2" font-weight="400"/>
  <g stroke-width="1" transform="matrix(1,0,0,1,0,0)" stroke-opacity="1" font-size="34.5833" fill="none" stroke-linejoin="bevel" font-style="normal" stroke-linecap="square" stroke="#000000" font-family="MS Shell Dlg 2" font-weight="400"/>
 </g>
</svg>
