<?xml version='1.0' encoding='UTF-8' standalone='no'?>
<svg xmlns:xlink="http://www.w3.org/1999/xlink" baseProfile="tiny" xmlns="http://www.w3.org/2000/svg" height="249.936mm" viewBox="0 0 2952 2952" width="249.936mm" version="1.2">
 <title>Qt SVG Document</title>
 <desc>Generated with Qt</desc>
 <defs/>
 <g stroke-width="1" fill-rule="evenodd" fill="none" stroke-linejoin="bevel" stroke-linecap="square" stroke="black">
  <g stroke-width="1" transform="matrix(1,0,0,1,0,0)" stroke-opacity="1" font-size="34.5833" fill="none" stroke-linejoin="bevel" font-style="normal" stroke-linecap="square" stroke="#000000" font-family="MS Shell Dlg 2" font-weight="400"/>
  <g stroke-width="1" transform="matrix(1,0,0,1,0,0)" stroke-opacity="1" font-size="34.5833" fill="none" stroke-linejoin="bevel" font-style="normal" stroke-linecap="square" stroke="#000000" font-family="MS Shell Dlg 2" font-weight="400"/>
  <g stroke-width="1" transform="matrix(11.808,0,0,11.808,0,0)" stroke-opacity="1" font-size="34.5833" fill="none" stroke-linejoin="bevel" font-style="normal" stroke-linecap="square" stroke="#000000" font-family="MS Shell Dlg 2" font-weight="400"/>
  <g stroke-width="1" transform="matrix(0.999744,0,0,0.999744,0,0)" stroke-opacity="1" font-size="34.5833" fill="none" stroke-linejoin="bevel" font-style="normal" stroke-linecap="square" stroke="#000000" font-family="MS Shell Dlg 2" font-weight="400"/>
  <g transform="matrix(0.999744,0,0,0.999744,0,0)" font-size="34.5833" fill-opacity="0" fill="#ffffff" font-style="normal" stroke="none" font-family="MS Shell Dlg 2" font-weight="400">
   <path fill-rule="evenodd" vector-effect="none" d="M-2,-2 L2955,-2 L2955,2955 L-2,2955 L-2,-2"/>
  </g>
  <g stroke-width="1" transform="matrix(0.999744,0,0,0.999744,0,0)" stroke-opacity="1" font-size="34.5833" fill="none" stroke-linejoin="bevel" font-style="normal" stroke-linecap="square" stroke="#000000" font-family="MS Shell Dlg 2" font-weight="400"/>
  <g stroke-width="1" transform="matrix(11.808,0,0,11.808,0,0)" stroke-opacity="1" font-size="34.5833" fill="none" stroke-linejoin="bevel" font-style="normal" stroke-linecap="square" stroke="#000000" font-family="MS Shell Dlg 2" font-weight="400"/>
  <g stroke-width="1" transform="matrix(11.808,0,0,11.808,0,0)" stroke-opacity="1" font-size="34.5833" fill="none" stroke-linejoin="bevel" font-style="normal" stroke-linecap="square" stroke="#000000" font-family="MS Shell Dlg 2" font-weight="400"/>
  <g stroke-width="1" transform="matrix(11.808,0,0,11.808,0,0)" stroke-opacity="1" font-size="34.5833" fill="none" stroke-linejoin="bevel" font-style="normal" stroke-linecap="square" stroke="#000000" font-family="MS Shell Dlg 2" font-weight="400"/>
  <g stroke-width="1" transform="matrix(11.808,0,0,11.808,0,0)" stroke-opacity="1" font-size="34.5833" fill="none" stroke-linejoin="bevel" font-style="normal" stroke-linecap="square" stroke="#000000" font-family="MS Shell Dlg 2" font-weight="400"/>
  <g stroke-width="1" transform="matrix(11.808,0,0,11.808,0,0)" stroke-opacity="1" font-size="34.5833" fill="none" stroke-linejoin="bevel" font-style="normal" stroke-linecap="square" stroke="#000000" font-family="MS Shell Dlg 2" font-weight="400"/>
  <g transform="matrix(11.808,0,0,11.808,0,0)" font-size="34.5833" fill-opacity="0" fill="#ffffff" font-style="normal" stroke="none" font-family="MS Shell Dlg 2" font-weight="400">
   <path fill-rule="evenodd" vector-effect="none" d="M0,0 L250,0 L250,250 L0,250 L0,0"/>
  </g>
  <g stroke-width="1" transform="matrix(11.808,0,0,11.808,0,0)" stroke-opacity="1" font-size="34.5833" fill="none" stroke-linejoin="bevel" font-style="normal" stroke-linecap="square" stroke="#000000" font-family="MS Shell Dlg 2" font-weight="400"/>
  <g stroke-width="1" transform="matrix(11.808,0,0,11.808,0,0)" stroke-opacity="1" font-size="34.5833" fill="none" stroke-linejoin="bevel" font-style="normal" stroke-linecap="square" stroke="#000000" font-family="MS Shell Dlg 2" font-weight="400"/>
  <g transform="matrix(0.999744,0,0,0.999744,0,0)" font-size="34.5833" fill-opacity="0" fill="#000000" font-style="normal" stroke="none" font-family="MS Shell Dlg 2" font-weight="400">
   <rect x="0" height="2953" width="2953" y="0"/>
  </g>
  <g stroke-width="1" transform="matrix(0.999744,0,0,0.999744,0,0)" stroke-opacity="1" font-size="34.5833" fill="none" stroke-linejoin="bevel" font-style="normal" stroke-linecap="square" stroke="#000000" font-family="MS Shell Dlg 2" font-weight="400"/>
  <g stroke-width="3.07087" transform="matrix(0.999744,0,0,0.999744,0,0)" stroke-opacity="1" font-size="34.5833" fill-opacity="1" fill="#c5c5c5" stroke-linejoin="bevel" font-style="normal" stroke-linecap="square" stroke="#5c5c5c" font-family="MS Shell Dlg 2" font-weight="400">
   <path fill-rule="evenodd" vector-effect="none" d="M1814.28,175.015 L1814.55,178.335 L1814.05,181.605 L1813.52,183.743 L1810.94,191.464 L1809.29,197.07 L1808.91,199.383 L1808.75,202.951 L1809.17,207.662 L1811.12,217.681 L1812.86,223.026 L1814.01,225.214 L1815.32,226.78 L1817.16,227.749 L1819.22,228.209 L1827.07,228.855 L1831.64,229.601 L1835.03,229.614 L1837.23,229.216 L1840.25,228.047 L1841.93,227.066 L1845.72,223.473 L1847.38,221.509 L1851.19,218.079 L1856.04,215.68 L1862.64,209.85 L1867.46,207.015 L1869.28,206.22 L1873.14,204.94 L1877.08,202.689 L1884.39,200.738 L1888.98,200.141 L1902.1,199.905 L1905.6,200.166 L1907.86,200.626 L1908.96,201.011 L1910.97,202.13 L1913.69,204.33 L1929.64,220.764 L1934.78,225.586 L1939.01,228.483 L1941.11,230.16 L1946.02,232.472 L1951.91,237.419 L1954.67,238.463 L1960,239.408 L1962.13,239.433 L1966.38,238.737 L1968.48,238.699 L1970.55,239.097 L1972.17,240.017 L1973.21,241.197 L1973.7,242.192 L1974.23,244.342 L1974.42,247.772 L1974.36,257.341 L1974.64,259.616 L1975.32,261.703 L1976.58,263.505 L1980.41,267.209 L1984.42,270.402 L1989.32,272.602 L1992.39,275.634 L1993.44,277.212 L1995.36,283.263 L1997.41,287.923 L1984.68,293.825 L1981.81,295.862 L1980.21,297.676 L1979,299.813 L1978.32,302.211 L1978.03,304.696 L1977.62,313.38 L1976.7,316.747 L1976.15,317.704 L1974.83,319.219 L1971.57,322.337 L1968.5,324.785 L1967,326.474 L1965.83,328.4 L1964.04,332.598 L1960.67,343.766 L1959.31,350.56 L1957.16,358.534 L1956.03,364.198 L1953.6,373.289 L1952.19,380.045 L1948.15,393.519 L1946.81,399.094 L1944.84,404.67 L1944.31,407.153 L1944.01,411.015 L1944.09,414.913 L1945.37,423.667 L1945.86,432.929 L1945.88,443.618 L1945.3,448.695 L1944.55,450.954 L1943.09,453.648 L1941.77,454.939 L1938.86,456.69 L1937.82,457.844 L1936.89,460.078 L1936.52,462.611 L1936.69,464.547 L1937.07,465.466 L1938.2,466.819 L1943.93,472.218 L1944.95,474.117 L1945.5,476.252 L1946.38,485.548 L1948.73,498.332 L1949.19,501.968 L1949.39,508.247 L1949.29,522.282 L1949.48,527.283 L1950.06,530.819 L1951.57,534.864 L1953.54,537.904 L1955.86,542.892 L1958.63,546.168 L1966.41,554.021 L1970.25,557.594 L1973.33,560.063 L1974.84,561.763 L1976.04,563.673 L1978.7,568.809 L1981.12,573.982 L1984.1,578.56 L1984.79,579.304 L1986.44,580.433 L1990.77,582.38 L1989.54,587.516 L1988.95,593.395 L1991.1,594.003 L1993.07,594.834 L1999.87,598.989 L2004.01,602.611 L2005.57,604.434 L2006.3,606.121 L2006.77,609.42 L2006.61,612.831 L2005.78,617.246 L2005.6,619.355 L2005.85,621.376 L2006.68,623.162 L2008.11,624.353 L2011.19,625.841 L2013.28,627.267 L2017.57,628.929 L2021.45,631.124 L2034.18,634.832 L2037.61,635.278 L2041.09,635.167 L2043.36,634.782 L2045.36,634.1 L2055.13,629.214 L2057.08,628.445 L2063.29,627.044 L2065.91,626.697 L2068.89,627.007 L2073.49,628.47 L2077.03,630.38 L2079.48,632.166 L2082.74,634.596 L2085.67,637.659 L2088.81,639.916 L2090.18,641.231 L2091.31,642.768 L2091.73,643.624 L2092.12,645.248 L2091.71,657.933 L2091.96,660.897 L2092.43,662.67 L2093.21,664.009 L2097.74,669.328 L2099.98,674.349 L2103.37,678.279 L2105.28,679.99 L2108.62,683.833 L2110.92,688.817 L2112.8,691.768 L2113.7,694.954 L2113.77,697.098 L2112.99,703.346 L2111.91,707.945 L2111.08,712.531 L2110,717.155 L2109.22,721.766 L2107.01,731.954 L2105.43,735.945 L2103.37,738.932 L2101.43,743.319 L2096.47,749.243 L2095.73,750.557 L2095.32,752.242 L2095.23,754.076 L2095.44,755.947 L2097.87,764.659 L2098.97,769.467 L2099.64,771.289 L2101.42,775.056 L2102.45,777.881 L2102.01,782.502 L2101.91,787.05 L2102.18,790.358 L2102.66,792.464 L2104.47,796.788 L2106.04,801.868 L2108.17,805.523 L2110.1,811.506 L2119.2,830.584 L2120.77,834.919 L2125.29,849.126 L2129.46,861.4 L2129.9,863.134 L2130.17,865.76 L2129.97,867.11 L2129.69,867.754 L2128.85,868.869 L2128.11,869.475 L2123.51,872.249 L2120.15,874.02 L2117.88,875.556 L2112.07,877.624 L2110.22,878.702 L2108.5,880.076 L2106.96,881.674 L2105.66,883.482 L2105.15,884.485 L2104.48,886.739 L2104.26,889.029 L2104.39,891.234 L2104.91,893.264 L2105.93,894.887 L2108.19,897.375 L2110.71,899.58 L2113.43,902.601 L2114.3,904.161 L2114.5,905.077 L2114.5,906.972 L2113.96,908.779 L2111.91,911.64 L2108.94,916.518 L2104.64,924.664 L2101.13,932.08 L2099.52,937.218 L2097.84,939.917 L2097.3,941.316 L2100.57,955.836 L2102.64,961.332 L2104.39,967.855 L2106.47,973.351 L2107.72,978.896 L2110.24,987.683 L2110.92,991.99 L2110.06,1002.16 L2108.93,1008.04 L2108.63,1010.53 L2108.01,1024.55 L2106.73,1032.96 L2106.22,1041.2 L2105.83,1044.53 L2104.88,1047.45 L2102.82,1050.49 L2100.11,1055.22 L2099.14,1057.3 L2097.64,1061.71 L2096.35,1068.49 L2095.03,1073.97 L2094.29,1075.99 L2093.74,1076.93 L2092.97,1077.81 L2091.09,1079.03 L2089.03,1079.64 L2083.63,1080.43 L2081.49,1080.99 L2078.56,1082.08 L2075.48,1083.99 L2071.26,1085.85 L2069.77,1086.91 L2066.6,1090.05 L2063.84,1094.41 L2052.9,1099.94 L2051.4,1104.98 L2049.65,1112.97 L2049.13,1116.77 L2049,1120.65 L2049.22,1124.52 L2049.66,1127.05 L2053.03,1137.82 L2049.52,1142.58 L2047.63,1144.48 L2043.66,1149.33 L2041.91,1153.25 L2040.18,1159.28 L2038.01,1164.7 L2042.37,1165.42 L2045.24,1166.44 L2049.95,1169.94 L2051.24,1171.15 L2052.78,1173.37 L2054.47,1178.27 L2056.78,1181.72 L2059.11,1186.09 L2059.91,1187.82 L2060.41,1189.46 L2062.12,1197.71 L2062.26,1200.95 L2062.02,1203.05 L2060.83,1208.04 L2060.25,1209.82 L2058.43,1212.54 L2056.79,1216.46 L2055.07,1219.15 L2054.57,1220.46 L2054.1,1223.15 L2050.79,1225.53 L2048.57,1227.4 L2044.86,1231.69 L2044.12,1232.79 L2043.06,1235.49 L2042.39,1236.73 L2037.09,1242.49 L2032.4,1250.41 L2031.27,1251.74 L2029.87,1252.84 L2028.26,1253.63 L2022.89,1255.12 L2017.16,1257.08 L2018.57,1261.96 L2021.67,1275.54 L2025.85,1287.94 L2026.98,1291.77 L2027.72,1293.45 L2029.56,1296.3 L2030.94,1299.54 L2033.28,1303.03 L2034.66,1306.26 L2036.48,1309.11 L2037.18,1310.84 L2038.86,1320.07 L2039.02,1321.97 L2038.81,1324.83 L2038.07,1327.78 L2042.96,1331.31 L2045.89,1334.21 L2049.89,1337.44 L2054.75,1339.72 L2059.14,1342.9 L2060.71,1344.34 L2061.99,1346.07 L2063.85,1350.43 L2066.08,1354.06 L2067.47,1357.27 L2069.83,1360.85 L2071.35,1364.56 L2072.02,1368 L2072.28,1372.85 L2072.92,1422.06 L2072.79,1426.85 L2072.19,1430.22 L2070.62,1433.74 L2069.56,1435.06 L2065.03,1439.58 L2064.1,1441.06 L2063.08,1443.74 L2062.92,1445.68 L2063.04,1446.67 L2063.67,1448.62 L2064.55,1450.28 L2065.99,1451.77 L2066.93,1452.28 L2068.83,1452.72 L2074.14,1452.16 L2075.92,1452.33 L2077.58,1453.3 L2079.14,1455.49 L2080.38,1458.25 L2081.65,1462.21 L2082.98,1468.33 L2085.4,1476.51 L2089.93,1497 L2091.52,1501.92 L2092.76,1504.7 L2094.11,1507.09 L2095.81,1509.08 L2098.16,1512.35 L2101.58,1516.29 L2104.28,1518.3 L2106.59,1519.77 L2108.44,1520.62 L2111.66,1521.63 L2113.07,1522.26 L2115.62,1524.09 L2122.74,1528.21 L2125.22,1530.06 L2130,1532.12 L2131.94,1533.62 L2139.68,1538.12 L2142.18,1539.97 L2146.9,1542.04 L2150.58,1544.99 L2152.34,1546.62 L2159.32,1550.92 L2160.42,1551.75 L2161.29,1552.77 L2163.81,1556.57 L2166.04,1560.62 L2170.21,1565.7 L2172.22,1568.5 L2174.29,1570.72 L2178.5,1576.98 L2180.91,1579.63 L2183.1,1583.14 L2184.07,1585.23 L2185.06,1589.69 L2186.88,1595.75 L2187.56,1598.49 L2188.37,1600.27 L2191.34,1603.23 L2193.06,1604.46 L2194.56,1605.84 L2196.33,1607.01 L2197.95,1608.35 L2201.55,1610.5 L2204.74,1612.95 L2208.08,1617.25 L2211.47,1621.13 L2212.92,1623.03 L2216.17,1628.23 L2218.32,1631.08 L2220.23,1633.94 L2222.36,1636.61 L2224.27,1639.4 L2229.44,1645.79 L2234.82,1650.86 L2236.89,1652.55 L2241.66,1655.95 L2247.16,1659.31 L2251.56,1662.29 L2251.41,1672.65 L2251.18,1674.74 L2250.69,1676.66 L2249.93,1678.24 L2247.54,1682.04 L2243.37,1685.68 L2242.24,1686.31 L2240.74,1686.68 L2235.11,1686.5 L2229.54,1686.97 L2223.5,1689.17 L2219.2,1692.73 L2217.6,1694.59 L2215.77,1696.17 L2214.17,1698.03 L2210.93,1700.8 L2209.78,1701.53 L2205.5,1703.03 L2199.94,1707.45 L2198.8,1708.79 L2196.78,1712.01 L2195.03,1713.95 L2191.97,1718.16 L2189.97,1723.51 L2185.35,1729.58 L2183.32,1734.93 L2181.84,1737.12 L2181.21,1738.46 L2179.65,1742.97 L2178.39,1747.86 L2177.19,1753.4 L2175.23,1757.11 L2174.95,1758.05 L2174.04,1761.08 L2172.08,1764.67 L2171.84,1765.41 L2170.77,1768.63 L2170.35,1769.4 L2169.39,1770.47 L2167.96,1771.28 L2167.08,1771.53 L2165.21,1771.78 L2161.68,1771.94 L2160.34,1771.99 L2157.9,1772.44 L2154.05,1773.43 L2153.1,1773.81 L2149.86,1775.09 L2144.46,1776.21 L2142.76,1776.8 L2137.77,1779.32 L2135.19,1781.23 L2130.36,1783.16 L2127.15,1785.97 L2123.65,1790.31 L2121.61,1795.64 L2121.29,1796.06 L2120.72,1796.76 L2119.54,1797.64 L2118.35,1798.11 L2116.77,1798.73 L2114.38,1799.31 L2108.39,1799.65 L2105.48,1800.09 L2101.29,1801.68 L2097.17,1802.84 L2095.26,1803.95 L2089.79,1809.12 L2085.64,1811.62 L2083.95,1812.46 L2082.18,1813.03 L2076.34,1814.11 L2067.25,1820.74 L2061.57,1824.94 L2063.8,1833.89 L2064.49,1835.78 L2067.62,1840.81 L2070.24,1844.05 L2071.69,1847.08 L2073.98,1850.5 L2077.88,1863.06 L2081.19,1872.76 L2082.58,1877.98 L2084.65,1881.89 L2086.15,1887.07 L2091.34,1899.16 L2093.01,1905.81 L2094.79,1910.35 L2096.51,1916.9 L2098.33,1921.31 L2098.82,1923.34 L2098.97,1924.52 L2099.07,1925.4 L2099.15,1928.46 L2099.01,1930.42 L2098.68,1932.23 L2098.05,1933.77 L2096.24,1936.21 L2094.45,1940.15 L2092.59,1942.5 L2091.23,1945.86 L2089.01,1948.79 L2087.41,1952.01 L2086.42,1952.99 L2086.17,1953.11 L2082.83,1954.83 L2079.32,1956.53 L2078.32,1957.48 L2077.6,1958.83 L2076.46,1961.87 L2074.63,1965.75 L2074.02,1968.57 L2073.78,1971.55 L2073.87,1981.93 L2073.52,1985.96 L2073.06,1988 L2072.82,1989.09 L2071.86,1991.15 L2069.64,1994.54 L2068.2,1995.78 L2064.21,1997.79 L2062.09,1999.27 L2060.38,2000.11 L2057.38,2001.24 L2055.28,2001.75 L2048.7,2002.72 L2036.84,2005.13 L2032.64,2005.34 L2030.58,2005.1 L2022.45,2003.2 L2011.68,1998.93 L2008.6,2004.76 L2007.81,2005.94 L2004.09,2009.8 L2002.96,2010.62 L2000.51,2011.49 L1993.57,2012.13 L1991.1,2012.69 L1988.23,2013.64 L1984.69,2015.64 L1980.92,2016.91 L1979.72,2017.65 L1976.3,2020.34 L1974.57,2022.11 L1970.63,2025.39 L1969.41,2026.11 L1964.76,2028.29 L1962.94,2028.87 L1957.16,2029.82 L1949.18,2031.66 L1944.57,2032.55 L1940.41,2035.92 L1939.23,2037.46 L1938.52,2039.33 L1937.45,2043.88 L1937.92,2049.34 L1938.03,2053.63 L1937.75,2056.69 L1936.93,2059.6 L1935.25,2062.29 L1931.92,2066.27 L1930.04,2068.8 L1927.61,2071.05 L1923.51,2075.24 L1920.98,2079.33 L1919.86,2081.96 L1919.31,2085.01 L1918.73,2092.32 L1917.72,2098.51 L1917.73,2105.46 L1918.98,2109.38 L1919.71,2110.95 L1922.86,2114.77 L1924.67,2116.41 L1926.23,2118.31 L1928,2120.14 L1933.03,2128.58 L1936.53,2132.34 L1938.93,2134.22 L1939.36,2134.55 L1941.11,2136.51 L1943.65,2141.03 L1946.86,2145.45 L1947.67,2167.27 L1950.52,2187.6 L1950.52,2190 L1950.49,2198.38 L1953.22,2205.37 L1953.94,2206.48 L1954.5,2207.37 L1955.22,2208.5 L1956.25,2211.36 L1957.18,2215.89 L1957.27,2217.67 L1956.8,2219.64 L1956.06,2220.8 L1953.54,2222.71 L1951.75,2224.33 L1949.76,2225.71 L1948.05,2227.37 L1946.13,2228.82 L1944.49,2230.59 L1942.63,2232.2 L1940.41,2234.83 L1938.29,2236.34 L1936.49,2236.99 L1934.48,2237.26 L1928.36,2237.25 L1926.47,2237.38 L1924.81,2237.89 L1923.74,2238.61 L1921.54,2240.6 L1920.76,2241.86 L1920.21,2244.45 L1919.81,2250.05 L1919.39,2251.72 L1919.02,2252.45 L1915.85,2255.99 L1911.91,2258.73 L1909.52,2259.34 L1904.41,2259.44 L1902.88,2259.26 L1898.64,2258.41 L1895.87,2257.87 L1890.26,2257.38 L1888.13,2257.6 L1887.11,2257.89 L1885.47,2258.79 L1884.19,2260.04 L1883.73,2260.78 L1883.41,2261.58 L1883.17,2263.18 L1883.57,2265.39 L1885.66,2268.61 L1886.2,2270.93 L1886.04,2273.44 L1884.8,2276.74 L1883.49,2278.75 L1881.39,2280.48 L1878.88,2281.71 L1874.1,2283.54 L1873.31,2284.59 L1872.78,2285.93 L1872.79,2287.49 L1873.05,2288.24 L1876.07,2292.44 L1878.05,2294.46 L1880.51,2297.67 L1882.69,2299.74 L1884.53,2300.98 L1890.12,2304.23 L1896.24,2306.77 L1900.42,2309.39 L1905.64,2311.45 L1907.39,2312.33 L1910.02,2313.67 L1914.03,2315.11 L1915.79,2315.93 L1921.87,2320.38 L1924.05,2322.58 L1925.87,2325.13 L1926.73,2327.11 L1927.28,2329.26 L1928.51,2334.75 L1929.43,2340.29 L1930.39,2344.77 L1931.4,2351.53 L1931.95,2353.64 L1933.4,2357.47 L1933.5,2357.74 L1933.6,2358.44 L1933.91,2360.84 L1933.71,2362.85 L1933.44,2363.79 L1930.38,2370.23 L1928.77,2373.41 L1927.91,2374.83 L1927.8,2375.01 L1925.79,2376.59 L1925.67,2378.99 L1925.8,2380.51 L1926.27,2381.91 L1926.99,2382.89 L1928.94,2385.04 L1929.92,2385.82 L1931.78,2386.64 L1935.05,2388.09 L1936.56,2389.08 L1938.46,2391.28 L1940.05,2392.75 L1942.4,2395.71 L1943.02,2396.93 L1943.23,2397.73 L1943.46,2400.38 L1943.08,2404.15 L1941.88,2407.89 L1940.21,2413.12 L1938.95,2419.63 L1937.44,2425.93 L1941.84,2424.43 L1944.03,2423.85 L1947.13,2423.48 L1949.15,2423.53 L1951.15,2423.89 L1954.89,2424.98 L1962.49,2428.6 L1968.2,2428.67 L1972.98,2428.42 L1976.46,2427.97 L1981.13,2426.86 L1983.39,2426.49 L1986.57,2426.17 L1988.57,2426.27 L1990.26,2427.09 L1993.75,2430.26 L1997.15,2433.87 L2001.95,2440.75 L2003.99,2444 L2005.9,2445.67 L2007.49,2446.31 L2008.92,2446.44 L2019.43,2445.58 L2022.87,2445.3 L2024.18,2445.37 L2025.45,2445.84 L2026.43,2446.76 L2027.15,2448.45 L2027.35,2451.29 L2027.1,2456.43 L2027.27,2457.16 L2027.45,2457.89 L2028.39,2459.4 L2030.48,2461.28 L2032.28,2462.25 L2042.35,2466.8 L2044.75,2468.49 L2047.98,2471.17 L2049.18,2471.85 L2051.31,2472.3 L2056.09,2472 L2056.61,2471.97 L2059.93,2472.29 L2061.68,2472.87 L2064.03,2473.98 L2065.68,2474.98 L2066.39,2475.67 L2066.92,2476.51 L2067.34,2478.01 L2067.44,2478.37 L2067.38,2481.26 L2066.89,2483.08 L2066.51,2483.89 L2065.09,2485.94 L2064.41,2487.64 L2064.05,2489.62 L2064.01,2491.37 L2063.97,2492.77 L2064.21,2494.9 L2065.65,2502.16 L2066.51,2504.42 L2067.87,2506.53 L2068.63,2507.18 L2069.07,2507.4 L2069.55,2507.63 L2070.55,2507.88 L2070.8,2507.88 L2072.63,2507.92 L2074.71,2507.46 L2078.83,2505.55 L2080.93,2504.82 L2085.85,2503.73 L2087.98,2503.63 L2090.2,2504.16 L2090.94,2504.7 L2091.77,2505.29 L2092.25,2506.22 L2092.5,2507.2 L2092.56,2509.27 L2091.91,2512.42 L2091.53,2513.41 L2090.47,2516.21 L2089.41,2518.26 L2084.14,2525.95 L2082.24,2528 L2079.89,2531.23 L2077.76,2533.29 L2076.18,2534.38 L2071.61,2536.31 L2070.81,2536.65 L2069.34,2537.6 L2068.74,2538.31 L2068.32,2539.2 L2068.08,2541.24 L2069.18,2546.76 L2069.12,2550.18 L2068.61,2552.21 L2067.98,2553.48 L2067.05,2555.39 L2066.57,2557.42 L2065.67,2561.21 L2065.04,2563.04 L2064.02,2564.53 L2060.94,2567.31 L2057.16,2568.59 L2056.91,2568.67 L2056.2,2568.9 L2052.53,2572.25 L2052.05,2573.12 L2051.63,2573.9 L2050.11,2577.45 L2048.5,2579.59 L2042.97,2588.81 L2041.91,2589.86 L2040.42,2590.71 L2036.42,2591.76 L2030.92,2591.9 L2023.67,2592.1 L2020.95,2592.52 L2018,2593.83 L2016.69,2595.31 L2015.94,2597.21 L2014.7,2602.21 L2012.65,2606.2 L2010.81,2613.32 L2008.53,2617.07 L2006.67,2621.36 L2005.2,2623.46 L2004.45,2625.3 L2003.94,2627.44 L2003.09,2632.09 L2001.98,2636.84 L2001.56,2640.55 L2001.6,2643.56 L2001.63,2645.64 L2003.37,2654.22 L2003.64,2655.56 L2003.89,2657.99 L2003.65,2661.54 L2002.7,2664.36 L2002.07,2665.72 L1999.95,2670.27 L1998.8,2672.34 L1997.7,2673.82 L1993.69,2676.82 L1990.9,2680.41 L1989.8,2681.45 L1989.09,2682.12 L1987.68,2682.97 L1984.34,2684.47 L1982.43,2685.94 L1978.7,2690.41 L1977.91,2692.01 L1976.56,2695.69 L1975.53,2697.3 L1972.88,2700.2 L1966.03,2706.74 L1969.12,2710.12 L1971.91,2713.16 L1972.89,2714.23 L1973.87,2716.38 L1974.24,2717.77 L1974.4,2719.16 L1974.07,2721.02 L1973.39,2722.76 L1971.6,2724.88 L1970.94,2726.14 L1969.75,2730.11 L1968.01,2734.97 L1966.02,2739.75 L1964.04,2743.62 L1963.36,2746.35 L1962.86,2750.63 L1962.99,2752.65 L1963.58,2754.54 L1964.13,2755.7 L1965.96,2757.92 L1966.46,2759.08 L1966.48,2759.89 L1966.49,2760.58 L1966.23,2761.36 L1965.27,2763.48 L1963.23,2766.84 L1958.73,2772.39 L1957.17,2773.37 L1955.55,2773.65 L1954,2773.34 L1952.78,2772.45 L1951.31,2770.86 L1948.92,2769.79 L1948.4,2769.77 L1944.24,2769.6 L1941.8,2769.84 L1940.5,2770.31 L1938.79,2772.01 L1936.96,2775.22 L1934.06,2779.36 L1929.72,2787.6 L1928.92,2788.48 L1927.13,2789.64 L1925.21,2790.23 L1923.22,2790.37 L1920.29,2789.72 L1916.11,2787.11 L1909.76,2784.79 L1905.54,2782.34 L1903.64,2781.78 L1898.9,2781.04 L1897.2,2780.43 L1895.91,2779.39 L1893.84,2777.13 L1889.66,2774.07 L1888.02,2773.18 L1885.4,2772.7 L1880.86,2772.93 L1879.67,2772.38 L1878.7,2771.12 L1877.8,2768.32 L1877.44,2765.25 L1877.33,2764.33 L1878.57,2751.52 L1879.36,2747.57 L1881.3,2742.08 L1883.19,2734.37 L1884.99,2729.42 L1885.6,2726.25 L1885.8,2724.11 L1885.99,2722.01 L1882.72,2721.38 L1878.46,2720.08 L1873.47,2717.91 L1871.85,2716.84 L1870.58,2715.64 L1867.94,2712.01 L1866.92,2711.12 L1865.35,2710.37 L1864.35,2710.15 L1862.25,2710.1 L1861.21,2710.28 L1859.25,2711.01 L1854.24,2714.28 L1852.45,2715.09 L1850.42,2715.47 L1846.27,2715.22 L1844.16,2715.27 L1842.05,2715.65 L1841.04,2716.02 L1839.48,2716.95 L1838.19,2718.17 L1835.04,2723.12 L1833.03,2725.47 L1831.47,2726.82 L1830.94,2727.14 L1829.63,2727.91 L1828.52,2728.4 L1827.39,2728.74 L1825.21,2728.9 L1823.25,2728.33 L1818.78,2724.07 L1815.76,2722.2 L1814.02,2720.91 L1813.67,2720.65 L1810.34,2719.35 L1808.75,2718.43 L1807.6,2716.96 L1806.58,2714.88 L1806.36,2714.08 L1805.82,2712.16 L1805.01,2709.24 L1804.61,2708.29 L1803.57,2706.67 L1802.23,2705.25 L1800.71,2704.03 L1795.92,2701.21 L1791.72,2697.4 L1787.73,2697.07 L1784.2,2697.22 L1765.4,2700.29 L1764.44,2700.45 L1760.36,2701.69 L1758.52,2702.45 L1754.98,2704.25 L1750.91,2706.1 L1745.02,2709.59 L1743.1,2711.49 L1741.71,2712.61 L1741.06,2713.15 L1739.35,2715.17 L1737.4,2717.07 L1734.86,2721.03 L1730.22,2727.19 L1728.95,2728.88 L1727.84,2730.03 L1727,2730.56 L1725.11,2731.18 L1723.06,2731.44 L1710.88,2731.13 L1707.36,2731.36 L1706.68,2731.41 L1705.52,2731.72 L1704.83,2731.9 L1704.04,2732.3 L1701.94,2733.95 L1700.06,2734.96 L1698.13,2735.75 L1696.54,2736.06 L1696.38,2736.05 L1694.72,2735.89 L1693.83,2735.59 L1693.02,2735.16 L1692.38,2734.54 L1691.98,2733.8 L1691.51,2731.19 L1691.67,2724.05 L1692.05,2718.78 L1692.38,2716.72 L1692.93,2714.71 L1694.89,2710.44 L1696.53,2705.15 L1697.29,2703.43 L1699.34,2699.64 L1701.1,2696.41 L1704.27,2691.41 L1706.04,2689.31 L1706.85,2688.12 L1708.09,2685.27 L1708.87,2683.93 L1714.1,2678.11 L1716.52,2673.25 L1717.46,2672.21 L1721.74,2667.37 L1724.16,2662.48 L1729.35,2656.6 L1731.73,2651.71 L1735.22,2647.82 L1737.19,2646.11 L1738.9,2644.16 L1740.86,2642.32 L1743.21,2639.38 L1745.29,2637.5 L1746.82,2636.54 L1752.5,2633.49 L1758.73,2630.49 L1763.1,2627.41 L1769.87,2619.53 L1766.31,2612.73 L1763.37,2612.47 L1761.43,2612.92 L1759.63,2613.94 L1756.3,2617.02 L1755.78,2617.23 L1754.57,2617.72 L1752.66,2617.83 L1750.81,2617.25 L1749.47,2616.01 L1747.9,2613.55 L1746.19,2610.3 L1744.96,2607.09 L1743.29,2596.78 L1742.62,2589.05 L1741.84,2583.56 L1741.68,2573.64 L1741.39,2566.86 L1741.19,2562.21 L1739.58,2557.55 L1738.23,2553.02 L1735.94,2549.52 L1734.1,2545.94 L1733.45,2544.86 L1730.96,2540.73 L1728.32,2541.06 L1727.27,2540.89 L1726.58,2540.74 L1725.67,2540.36 L1724.76,2539.74 L1723.6,2538.3 L1723.16,2537.18 L1722.54,2535.61 L1722.34,2532.35 L1723.2,2526.55 L1723.77,2522.85 L1725.33,2515.55 L1726.15,2511.7 L1726.4,2508.39 L1726.24,2506.21 L1725.06,2501.94 L1724.69,2501.11 L1723.73,2498.95 L1720.22,2493.57 L1718.12,2491.45 L1715.26,2487.12 L1711.59,2479.92 L1710.59,2477.59 L1708.63,2473.36 L1705.5,2466.6 L1698.24,2467.39 L1690.03,2466.49 L1686.83,2461.56 L1675.82,2448.09 L1669.35,2442.71 L1664.6,2437.27 L1663.12,2432.12 L1657.19,2420.72 L1658.32,2405.69 L1659.42,2401.74 L1666.31,2387.89 L1666.53,2371.82 L1665.61,2347.31 L1659.65,2333.82 L1643.08,2338.49 L1635.59,2340.14 L1629.28,2341.2 L1624.79,2341.67 L1622.99,2340.57 L1620.27,2338.52 L1617.36,2333.94 L1612.49,2332.62 L1601.52,2328.11 L1597.96,2324.18 L1594.01,2323.97 L1592.09,2323.64 L1589.45,2322.58 L1587.06,2321.09 L1585.47,2320.85 L1583.93,2320.38 L1583.24,2320.04 L1582.03,2319.1 L1581.05,2317.92 L1580.68,2317.25 L1580.15,2315.71 L1579.84,2314.13 L1578.21,2311.93 L1577.43,2310.28 L1577.26,2309.5 L1577.19,2308.7 L1577.35,2307.1 L1578.09,2305.02 L1578.13,2301.36 L1576.37,2300.13 L1574.01,2298.46 L1572.42,2295.97 L1570.92,2292.53 L1567.26,2292.44 L1566.74,2292.43 L1564.85,2292.09 L1563.28,2291.3 L1562.43,2290.32 L1561.84,2289.23 L1559.96,2288.34 L1558.87,2287.46 L1554.16,2281.69 L1552.9,2280.15 L1550.06,2276.1 L1546.4,2272.36 L1544.35,2270.61 L1543.45,2269.54 L1542.42,2267.26 L1542.32,2266.8 L1541.39,2262.66 L1539.65,2257.24 L1538.81,2255.57 L1536.58,2251.98 L1535.26,2250.66 L1535,2250.39 L1531.64,2248.71 L1527.23,2247.17 L1523.91,2245.63 L1522.82,2244.79 L1519.57,2241.59 L1517.97,2239.33 L1516.81,2238.03 L1515.37,2236.92 L1513.82,2236.2 L1513.51,2236.06 L1510.19,2235.47 L1504.34,2235.44 L1500.5,2235.86 L1499.6,2235.96 L1495.18,2236.82 L1492.45,2237.36 L1483.75,2234.83 L1482.51,2233.97 L1477.73,2229.89 L1476.37,2229.12 L1475.47,2228.85 L1472.45,2228.44 L1464.68,2228.28 L1461.38,2227.99 L1451.45,2225.56 L1443.29,2224.27 L1438.07,2222.25 L1436.19,2221.89 L1434.28,2221.85 L1434.09,2221.89 L1432.39,2222.17 L1431.48,2222.5 L1429.89,2223.48 L1428.08,2225.47 L1426.61,2228.14 L1425.5,2229.7 L1424.14,2231.18 L1422.55,2232.33 L1421.64,2232.73 L1420.62,2232.86 L1420.2,2232.92 L1416.96,2232.73 L1416.12,2232.47 L1414.51,2231.96 L1414.11,2231.64 L1413.25,2230.98 L1412.61,2229.76 L1412.53,2229.1 L1412.7,2227.93 L1413.38,2226.19 L1415.27,2223.83 L1416,2222.46 L1416.22,2221.84 L1418.52,2215 L1420.09,2209.68 L1421.56,2200.84 L1422.38,2198.16 L1423.85,2193.31 L1425.37,2186.9 L1427.73,2179.43 L1429,2174.47 L1429.08,2174.17 L1429.22,2173.81 L1430.33,2171.06 L1433.07,2166.79 L1434.46,2165.34 L1435.31,2164.23 L1437.21,2160.52 L1438.63,2157.39 L1442.24,2154.08 L1443.11,2152.92 L1447.49,2146.02 L1449.56,2143.41 L1450.27,2142 L1451.39,2139 L1453.61,2135.61 L1454.7,2132.61 L1455.39,2131.18 L1457.09,2129.14 L1458.72,2126.82 L1460.64,2124.92 L1462.23,2123.93 L1463.1,2123.56 L1467.7,2122.33 L1469.49,2121.68 L1480.41,2116.7 L1486.14,2115.26 L1488.37,2114.51 L1493.96,2111.7 L1494.87,2108.2 L1495.84,2105.97 L1499.18,2101.96 L1500.93,2100.09 L1501.66,2098.7 L1502.78,2095.7 L1505.05,2092.21 L1506.58,2088.32 L1507.74,2086.69 L1509.04,2085.42 L1510.43,2079.76 L1511.4,2070.24 L1512.44,2067.17 L1513.94,2065.57 L1518.06,2063.57 L1520.91,2061.9 L1523.01,2060.26 L1529.73,2055.01 L1525.56,2052.15 L1524.49,2051.41 L1518.73,2049.07 L1517.32,2047.79 L1516.49,2046.19 L1516.08,2044.33 L1516.39,2042.48 L1516.56,2042.12 L1517.5,2040.1 L1520.85,2036.58 L1523.79,2034.01 L1524.93,2033.16 L1526.13,2032.74 L1527.43,2032.72 L1529.98,2033.31 L1536.06,2036.11 L1541.35,2037.37 L1542.75,2037.58 L1544.16,2037.54 L1545.46,2037.26 L1547.15,2036.57 L1548.47,2035.36 L1550.32,2031.7 L1555.03,2026.33 L1555.47,2025.62 L1557.27,2021.71 L1559.39,2019.06 L1562.03,2014.55 L1564,2009.23 L1566.19,2005.6 L1568.26,1997.64 L1568.56,1994.33 L1568.56,1993.31 L1568.56,1990.96 L1568.17,1986.49 L1567.09,1981 L1566.35,1972.09 L1565.17,1965.5 L1565.02,1962.12 L1564.81,1957.6 L1562.48,1955.93 L1560.81,1955.02 L1558.92,1954.38 L1557.77,1954.14 L1557.54,1954.17 L1557.34,1954.18 L1553.17,1953.2 L1550.82,1952.09 L1549.77,1951.16 L1548.09,1949.02 L1546.3,1947.05 L1544.29,1943.96 L1543.15,1942.63 L1538.13,1938.5 L1536.93,1937.7 L1532.6,1935.88 L1529.81,1934.04 L1525.02,1932.22 L1523.55,1931.2 L1521.76,1929.24 L1520.25,1926.86 L1518.67,1924.78 L1516.69,1919.74 L1515.1,1917.68 L1513.6,1915.76 L1513.26,1915.41 L1511.77,1913.95 L1510.1,1911.82 L1509.1,1910.85 L1507.88,1910.03 L1502.06,1907.05 L1497.76,1903.2 L1494.03,1898.77 L1489.35,1890.68 L1487.57,1888.78 L1486.39,1887.3 L1485.99,1886.81 L1484.17,1885.11 L1482.59,1883.2 L1480.76,1881.53 L1479.16,1879.65 L1477.99,1878.59 L1475.47,1876.31 L1474.15,1875.57 L1471.27,1874.36 L1467.66,1871.63 L1463.51,1869.62 L1460.29,1871.78 L1456.52,1875.79 L1454.24,1880.63 L1452.75,1882.71 L1451.93,1884.4 L1451.32,1886.33 L1450.37,1890.52 L1419.24,1888.79 L1415.6,1888.3 L1412.31,1887.3 L1409.66,1886.04 L1406.91,1883.98 L1402.45,1881.42 L1397.07,1876.41 L1392.73,1873.82 L1387.85,1869.23 L1386.7,1868.38 L1382.07,1866.54 L1378.16,1864.54 L1372.98,1862.9 L1371.43,1862.23 L1365.05,1858.62 L1363.19,1857.28 L1359.48,1854.18 L1356.41,1850.63 L1353.72,1846.62 L1352.07,1844.64 L1351.38,1843.33 L1350.23,1840.54 L1347.98,1837.35 L1346.51,1833.92 L1344.22,1830.75 L1342.68,1827.34 L1340.17,1824.26 L1337.07,1819.59 L1335.14,1816.06 L1332.75,1812.22 L1330.74,1808.64 L1323.68,1798.97 L1319.09,1804.64 L1316.54,1808.29 L1314.69,1809.98 L1313.1,1811.79 L1311.22,1813.32 L1309.61,1815.09 L1307.71,1816.62 L1306.09,1818.4 L1304.18,1819.94 L1302.56,1821.72 L1300.65,1823.26 L1299.02,1825.05 L1297.11,1826.59 L1295.47,1828.37 L1293.54,1829.9 L1291.9,1831.67 L1289.97,1833.21 L1288.34,1835.04 L1286.44,1836.76 L1281.55,1844.24 L1279.24,1846.44 L1277.66,1848.28 L1275.91,1849.95 L1275.25,1851.17 L1274.59,1853.13 L1274,1854.34 L1272.05,1856.62 L1268.61,1862.74 L1267.2,1864.71 L1266.74,1868.12 L1266.5,1868.46 L1265.3,1870.18 L1264.62,1870.73 L1262.66,1871.97 L1261.68,1872.63 L1259.9,1873.5 L1257.25,1874.29 L1252.95,1874.01 L1245.68,1875.94 L1239.71,1876.64 L1235.25,1877.49 L1229.24,1878.23 L1222.22,1879.66 L1220.65,1879.33 L1217.59,1878.22 L1214.92,1877.37 L1210.98,1877.79 L1196.36,1879.33 L1192.74,1879.23 L1188.78,1878.29 L1187.55,1877.56 L1184.62,1875.11 L1183.71,1874.08 L1180.92,1868.81 L1178.93,1863.71 L1175.82,1857.12 L1173.97,1855.02 L1172.37,1854.08 L1170.39,1853.62 L1169.92,1853.62 L1168.31,1853.61 L1162.96,1854.41 L1156.63,1856.05 L1149.75,1856.16 L1147.01,1855.57 L1136.32,1851.43 L1130.83,1850.57 L1129.15,1849.88 L1127.09,1848.17 L1123.38,1842.88 L1122.74,1841.32 L1121.79,1837.94 L1119.71,1834.29 L1118.72,1830.97 L1118.05,1829.48 L1114.83,1825.5 L1112.98,1823.66 L1110.25,1819.23 L1108.76,1817.18 L1106.23,1813.7 L1102.35,1814.4 L1081.96,1818.09 L1079.95,1818.45 L1071.89,1820.31 L1065.18,1822.84 L1056.47,1825.06 L1053.28,1826.17 L1046.5,1829.3 L1044.95,1830.3 L1042.64,1832.33 L1040.8,1833.4 L1036.49,1834.88 L1030.75,1836.12 L1027.44,1836.54 L1025.41,1836.47 L1024.46,1836.23 L1023.19,1835.44 L1022.26,1833.81 L1021.85,1831.86 L1021.04,1821.48 L1021.08,1816.33 L1022.06,1800.37 L1021.9,1796.87 L1021.35,1794.76 L1020.18,1792.99 L1018.23,1791.33 L1016.57,1789.52 L1014.7,1788.03 L1013.11,1786.19 L1011.31,1784.62 L1008.67,1781.18 L1007.99,1779.9 L1006.6,1774.66 L1005.21,1772.42 L1004.02,1771.27 L1001.88,1769.71 L996.704,1764.52 L993.483,1761.92 L992.411,1761.28 L989.696,1760.38 L988.443,1759.5 L987.621,1757.83 L987.326,1755.76 L987.48,1752.27 L988.163,1748.6 L989.006,1746.13 L990.259,1743.88 L991.807,1741.99 L993.555,1740.42 L998.568,1737 L1003.13,1733.26 L1004.31,1731.64 L1004.79,1730.68 L1006.73,1724.68 L1008.06,1722.18 L1011.63,1717.98 L1016.26,1714.47 L1013.8,1710.31 L1012.29,1709.26 L1009.42,1708.25 L1007.28,1708.03 L1005,1708.12 L996.663,1709.2 L993.163,1709.38 L989.837,1708.83 L986.966,1707.75 L985.091,1705.94 L984.304,1704.29 L983.919,1702.07 L983.815,1696.41 L983.441,1694.45 L980.991,1689.76 L979.949,1688.49 L978.6,1687.49 L976.79,1686.9 L974.616,1686.85 L972.369,1687.21 L969.288,1688.15 L968.881,1688.28 L966.622,1688.77 L959.898,1688.87 L957.052,1688.27 L953.327,1685.29 L950.962,1682.1 L950.174,1680.47 L948.697,1666.43 L948.804,1662.55 L949.239,1658.47 L949.811,1653.09 L949.848,1646.73 L949.852,1640.74 L946.96,1637.22 L945.647,1635.42 L944.505,1633.34 L943.113,1629.87 L942.265,1628.38 L936.83,1622.26 L934.672,1617.82 L933.227,1616.11 L930.659,1613.83 L929.269,1613 L928.407,1612.81 L923.67,1611.72 L918.935,1610.24 L915.161,1609.55 L913.439,1608.93 L912.055,1607.72 L910.915,1605.11 L909.515,1599.68 L908.548,1593.8 L908.461,1593.27 L906.785,1586.9 L906.127,1585.14 L905.079,1583.66 L903.606,1582.71 L899.723,1581.33 L897.375,1579.92 L897.074,1579.85 L893.247,1578.81 L891.688,1578.22 L885.069,1573.47 L879.527,1571.63 L875.732,1568.57 L874.252,1566.8 L871.012,1560.99 L869.306,1554.75 L866.862,1548.96 L864.809,1541.72 L862.659,1536.98 L860.567,1529.77 L858.091,1524.04 L857.544,1521.88 L856.494,1517.72 L853.623,1507.81 L853.085,1503.95 L851.966,1491.95 L849.422,1491.16 L847.439,1490.55 L844.249,1488.67 L842.247,1487.97 L839.384,1487.3 L832.906,1486.66 L829.456,1485.62 L827.736,1485.34 L825.985,1485.63 L824.412,1486.42 L821.024,1488.76 L818.358,1491.3 L816.708,1492.3 L814.836,1493.01 L812.889,1493.47 L810.086,1493.59 L809.26,1493.43 L806.276,1492.21 L802.064,1491.58 L800.401,1491.04 L798.281,1489.69 L795.715,1487.41 L794.298,1486.86 L791.275,1486.18 L790.071,1485.57 L786.598,1483.23 L784.841,1481.62 L780.8,1478.97 L779.355,1478.53 L775.508,1477.82 L772.569,1476.53 L768.613,1475.95 L765.691,1474.64 L761.044,1473.81 L757.293,1472.34 L755.564,1472.17 L749.309,1472.14 L747.004,1472.33 L743.407,1472.96 L729.912,1476.04 L727.666,1476.38 L722.701,1476.71 L714.819,1477.77 L711.703,1477.62 L706.037,1476.18 L703.173,1474.77 L698.745,1473.71 L698.09,1473.28 L697.151,1471.86 L696.679,1470.03 L696.118,1464.85 L695.274,1460.39 L694.632,1455.22 L693.748,1450.74 L692.971,1443.04 L692.506,1441 L690.796,1436.67 L690.414,1434.87 L690.19,1432.04 L687.005,1431.25 L682.189,1430.62 L677.52,1429.66 L671.868,1429.48 L667.88,1428.21 L662.163,1428.15 L657.311,1427.57 L649.767,1428.26 L644.791,1427.9 L643.357,1427.35 L642.277,1426.42 L641.44,1424.93 L640.323,1421.83 L638.391,1419.32 L637.772,1417.63 L637.557,1414.48 L638.016,1410.93 L638.81,1408.43 L640.108,1405.96 L642.575,1402.42 L643.549,1401.16 L647.011,1396.65 L649.4,1393.15 L652.401,1387.06 L656.039,1379.7 L657.86,1376.71 L659.388,1374.87 L662.996,1371.51 L665.355,1368.87 L668.898,1365.65 L670.358,1363.86 L671.5,1361.81 L671.885,1360.72 L672.128,1359.64 L672.275,1357.61 L671.996,1355.8 L671.688,1355.04 L670.416,1353.26 L669.82,1352.42 L668.215,1347.16 L666.044,1342.97 L662.701,1335.44 L661.109,1328.47 L658.278,1323 L657.49,1321.8 L655.198,1319.38 L650.115,1311.3 L648.13,1309.67 L646.403,1307.85 L644.345,1306.48 L642.584,1304.76 L640.52,1303.42 L638.784,1301.61 L636.786,1300.01 L631.684,1291.98 L625.974,1287.1 L625.082,1286.11 L623.464,1281.75 L623.188,1279.5 L623.037,1270.95 L622.663,1269.04 L621.658,1266.05 L620.968,1264.81 L618.836,1262.4 L617.713,1259.32 L616.932,1258.02 L611.059,1253.75 L610.624,1253.09 L610.107,1251.41 L609.876,1248.52 L610.086,1245.91 L610.794,1244.02 L612.028,1242.17 L613.642,1240.46 L620.247,1234.18 L623.101,1231.46 L626.706,1227.43 L632.536,1222.55 L637.036,1217.61 L640.964,1213.96 L644.033,1211.13 L641.105,1204.67 L641.075,1203.74 L640.979,1200.59 L641.438,1197.94 L643.173,1194.11 L644.708,1189.4 L644.971,1187.53 L645.208,1180.98 L646.134,1176.02 L647.069,1173.65 L648.651,1171.75 L651.458,1168.37 L654.009,1166.39 L655.366,1165.79 L657.375,1164.88 L663.551,1163.2 L665.95,1162.42 L667.938,1161.46 L670.083,1159.83 L671.635,1157.95 L674.532,1152.74 L676.094,1148.01 L676.835,1146.6 L680.607,1142.59 L684.501,1139.55 L685.837,1138.71 L689.101,1137.24 L690.569,1136.3 L691.598,1135.07 L693.424,1131.8 L695.742,1129.17 L699.371,1123.45 L700.906,1119.12 L701.183,1116.88 L701.025,1115.38 L699.872,1110.66 L698.575,1101.58 L699.373,1092.84 L701.273,1084.24 L700.607,1082.79 L699.39,1080.16 L697.787,1074.99 L694.305,1066.28 L693.85,1062.41 L694.301,1058.45 L694.551,1057.77 L694.986,1056.58 L696.717,1053.17 L698.707,1048.2 L699.689,1046.92 L703.179,1043.39 L705.444,1041.62 L710.204,1037.11 L713.041,1032.84 L713.874,1031.12 L714.309,1029.29 L714.35,1027.43 L713.735,1024.76 L711.056,1020.19 L709.427,1016.65 L708.838,1014.93 L708.435,1012.83 L708.072,1006.18 L708.087,978.933 L707.948,975.579 L707.474,972.373 L707.374,972.076 L706.885,970.677 L705.583,968.078 L704.765,966.939 L702.423,964.489 L700.541,961.184 L698.72,959.649 L694.002,955.65 L693.532,954.957 L692.967,953.323 L692.815,950.6 L693.419,947.901 L693.831,947.072 L696.017,944.076 L696.978,942.182 L698.331,939.508 L700.831,936.636 L706.509,928.701 L711.338,924.144 L713.462,922.424 L714.232,921.346 L714.563,920.108 L714.45,918.932 L713.812,917.137 L711.31,914.203 L710.281,912.296 L709.476,910.81 L708.49,909.745 L702.137,904.656 L698.831,900.001 L698.12,897.598 L698.261,895.196 L698.799,892.707 L699.638,888.844 L700.229,886.887 L701.949,882.937 L703.309,880.46 L707.013,875.16 L709.459,872.287 L710.266,870.578 L710.687,868.695 L710.811,866.726 L710.646,864.72 L710.132,862.775 L706.007,855.815 L703.708,853.325 L697.454,848.594 L697.016,848.272 L691.887,845.064 L686.571,842.351 L685.293,841.236 L680.434,832.578 L679.73,829.655 L679.806,826.62 L680.72,823.721 L681.839,822.222 L682.684,821.392 L688.076,816.09 L689.047,814.331 L689.558,812.386 L689.731,809.326 L689.491,807.294 L686.364,798.721 L685.709,795.537 L685.647,788.797 L686.123,785.501 L686.806,783.395 L687.323,782.403 L688.653,780.793 L692.768,777.323 L699.381,773.358 L701.593,771.747 L703.623,769.975 L705.183,768.203 L706.885,765.725 L708.366,763.346 L709.301,761.375 L710.529,757.546 L710.86,755.985 L710.849,754.646 L709.873,752.998 L706.682,750.928 L705.45,749.689 L704.69,748.128 L704.596,747.211 L705,745.265 L706.091,743.257 L707.809,741.373 L709.256,739.489 L698.182,737.643 L690.988,736.825 L688.586,736.552 L683.399,736.218 L678.453,735.734 L673.475,735.474 L671.345,734.259 L669.519,733.156 L666.552,730.318 L666.253,729.76 L665.976,728.422 L666.232,723.005 L666.172,721.493 L665.797,720.08 L664.979,718.903 L663.862,717.973 L661.098,716.547 L659.503,715.271 L657.719,714.168 L656.154,712.829 L655.13,712.308 L653.808,712.023 L651.503,712.135 L646.228,713.176 L642.048,713.548 L639.119,713.374 L634.976,712.147 L633.236,711.874 L631.078,712.135 L628.709,712.767 L623.479,715.072 L616.727,717.304 L612.124,719.324 L606.269,721.109 L600.674,723.414 L593.922,725.583 L587.533,728.88 L584.595,730.851 L582.992,731.582 L574.947,733.937 L566.177,735.35 L563.069,736.193 L561.436,737.048 L560.26,737.977 L558.369,740.084 L556.396,741.981 L554.686,744.112 L551.252,747.545 L549.836,748.574 L546.972,749.602 L544.914,749.987 L541.825,750.234 L539.891,750.098 L538.202,749.59 L534.347,746.777 L532.748,745.091 L530.908,743.641 L529.299,741.906 L527.262,740.159 L525.823,738.126 L523.845,732.078 L521.759,723.451 L520.154,713.845 L520.134,711.887 L520.408,710.027 L520.672,709.172 L521.437,707.796 L525.591,702.664 L526.389,701.363 L528.255,695.226 L529.531,692.189 L530.375,690.714 L532.02,689.003 L536.433,686.437 L540.486,683.747 L541.424,682.383 L541.844,680.684 L541.733,678.961 L541.106,677.387 L537.329,673.605 L535.946,671.088 L534.159,663.29 L532.138,659.31 L531.76,657.462 L531.647,655.491 L531.786,653.519 L532.208,651.671 L532.56,650.828 L534.413,647.865 L536.01,644.021 L536.877,642.781 L541.272,637.771 L542.13,636.543 L543.763,632.724 L546.178,629.214 L547.061,627.069 L547.708,624.861 L547.851,622.319 L547.386,619.913 L546.073,615.895 L544.032,611.479 L543.281,608.577 L542.401,602.425 L542.408,598.853 L541.968,593.569 L554.876,595.244 L568.812,598.047 L572.428,598.357 L577.335,598.307 L580.945,597.898 L587.693,596.149 L589.648,595.504 L592.716,593.755 L594.5,593.284 L596.394,593.284 L597.31,593.445 L598.155,593.73 L601.225,595.343 L603.244,595.814 L607.755,596.025 L611.078,595.603 L613.027,594.921 L616.148,592.974 L619.734,591.485 L622.721,589.389 L627.112,587.441 L630.22,585.506 L632.162,584.799 L634.363,584.415 L639.124,584.241 L642.746,584.539 L657.514,587.628 L659.819,587.615 L661.128,587.094 L662.178,586.164 L662.705,585.358 L664.364,581.152 L666.176,578.15 L667.545,574.131 L669.833,570.459 L671.637,565.807 L673.55,562.879 L674.986,558.947 L678.814,553.55 L680.767,551.49 L682.362,550.349 L690.911,546.515 L692.687,545.312 L695.001,543.103 L697.926,538.984 L699.823,536.999 L703.141,532.792 L705.354,527.568 L708.755,523.474 L710.691,521.662 L714.079,517.555 L714.787,516.115 L715.893,513.025 L716.679,511.784 L719.595,508.136 L721.507,506.163 L724.302,502.278 L725.615,501 L728.706,498.679 L736.96,490.463 L738.083,488.527 L738.657,486.69 L739.945,481.068 L740.688,479.07 L741.311,477.952 L744.846,473.67 L748.091,470.828 L749.741,469.798 L751.775,469.227 L754.014,468.941 L766.169,468.494 L771.004,468.06 L773.318,467.588 L782.367,464.758 L788.013,463.393 L793.581,461.469 L797.946,459.706 L803.242,457.049 L808.18,455.163 L811.975,452.394 L817.711,448.894 L823.076,446.51 L829.569,443.928 L829.941,438.925 L829.971,435.052 L829.736,431.265 L829.351,428.856 L827.851,424.623 L826.961,422.897 L825.413,420.662 L824.311,417.868 L822.879,412.393 L822.469,409.909 L821.805,399.529 L821.272,395.779 L820.574,393.531 L819.365,390.687 L817.559,387.757 L816.985,385.049 L817.188,383.162 L817.481,382.28 L823.66,371.935 L825.834,368.892 L827.684,364.508 L829.469,361.353 L830.175,359.49 L831.644,352.895 L831.977,350.336 L832.109,345.02 L831.796,331.592 L831.934,329.033 L832.344,326.598 L833.241,324.387 L834.731,322.723 L839.846,319.927 L841.306,318.337 L842.204,316.461 L843.784,311.343 L845.451,307.628 L848.76,303.429 L852.607,299.689 L857.077,296.918 L860.3,295.502 L873.418,292.669 L880.212,296.881 L888.331,301.006 L895.789,304.174 L899.38,304.82 L903.113,304.945 L915.759,304.783 L919.463,305.044 L925.344,305.963 L928.887,306.112 L932.435,305.963 L935.857,305.429 L938.363,304.559 L940.829,303.379 L943.651,301.217 L946.161,300.087 L948.112,299.689 L950.994,300.161 L952.715,300.907 L958.44,305.367 L960.177,307.367 L961.84,309.79 L963.708,311.852 L965.937,314.921 L968.501,317.306 L972.99,320.549 L978.034,322.797 L980.978,324.909 L985.979,327.443 L989.085,328.263 L993.709,328.362 L996.008,328.114 L1000.65,327.108 L1004.3,326.661 L1021.87,326.114 L1025.44,325.816 L1027.63,325.356 L1030.63,324.213 L1032.6,323.133 L1034.6,321.257 L1038.85,318.225 L1044.12,313.505 L1047.95,314.026 L1054.51,314.573 L1057.3,315.194 L1059.65,316.051 L1061.41,316.921 L1063.56,318.611 L1067.65,321.406 L1070.62,324.474 L1072.32,327.269 L1073.2,330.636 L1074.14,337.542 L1075.66,343.169 L1077.62,348.56 L1080.51,353.305 L1081.87,354.808 L1082.73,355.367 L1084.66,356.112 L1090.02,357.354 L1094.62,357.689 L1099.24,357.28 L1107.63,354.945 L1111.51,352.609 L1117.22,350.523 L1123.59,347.368 L1130.72,343.443 L1133.3,341.455 L1135.57,339.12 L1142.94,328.81 L1144.76,326.884 L1147.76,324.611 L1150.57,322.164 L1157.62,317.604 L1161.22,314.648 L1165.29,312.275 L1167.99,311.157 L1170.06,310.722 L1177.64,310.001 L1181.63,309.43 L1189.4,308.597 L1204.06,307.976 L1211.15,306.709 L1214.91,306.262 L1224.5,305.603 L1226.58,305.752 L1229.35,306.535 L1233.13,308.684 L1236.73,310.076 L1238.58,311.219 L1239.43,312.001 L1240.86,313.865 L1241.41,314.946 L1244.32,322.387 L1246.92,325.07 L1248.44,326.3 L1250.27,327.294 L1254.01,328.673 L1257.86,330.921 L1266.21,332.996 L1268.49,333.22 L1271.94,333.182 L1274.18,332.859 L1276,332.338 L1278.28,331.344 L1279.94,330.325 L1283.66,326.673 L1285.25,324.673 L1288.26,321.654 L1289.72,320.486 L1291.49,319.667 L1293.55,318.983 L1294.61,318.834 L1296.76,318.921 L1298.95,319.48 L1302.03,320.573 L1309.12,324.263 L1313.21,326.623 L1320.42,330.126 L1323.64,330.934 L1327.49,331.418 L1328.9,331.431 L1331.8,330.673 L1333.45,329.791 L1334.12,329.207 L1337.18,326.288 L1338.81,324.251 L1340.66,322.3 L1342.89,319.107 L1344.78,316.859 L1349.55,322.188 L1351.17,323.381 L1355.19,325.605 L1357.13,326.201 L1360.44,326.4 L1365.95,325.518 L1369.28,325.393 L1371.49,325.667 L1374.77,326.598 L1376.86,327.319 L1381.09,329.257 L1387.47,331.17 L1398.91,336.449 L1403.97,338.188 L1405.85,339.306 L1406.69,340.052 L1409.21,342.921 L1418.13,342.846 L1425.26,346.461 L1432.4,350.076 L1434.57,350.92 L1436.43,351.355 L1441.32,351.839 L1445.27,354.497 L1449.45,356.199 L1452.89,357.131 L1458.89,357.851 L1470.28,352.535 L1475.63,350.995 L1481.01,348.784 L1487.41,346.859 L1498.92,341.257 L1505.27,339.132 L1510.37,336.648 L1512.94,335.828 L1514.28,335.592 L1516.22,335.865 L1517.12,336.338 L1517.85,337.033 L1518.81,338.685 L1519.76,341.778 L1520.36,349.715 L1520.99,352.361 L1521.59,354.112 L1522.56,356.062 L1523.57,357.255 L1525.08,358.348 L1529.19,359.975 L1531.43,360.347 L1533.73,360.459 L1538.35,360.111 L1549.34,358.012 L1551.18,357.317 L1553.38,355.876 L1558.32,353.578 L1562.13,350.125 L1567.29,344.436 L1570.47,341.505 L1571.99,340.399 L1575.9,338.809 L1583.43,337.455 L1586.01,336.338 L1587.09,335.431 L1592.49,329.369 L1594.18,328.052 L1597.2,327.046 L1607.34,325.418 L1614.19,324.574 L1617.24,323.605 L1622.1,320.834 L1628.54,314.735 L1633.34,311.79 L1636.08,310.622 L1641.54,309.318 L1645.88,307.939 L1649.88,306.286 L1651.58,305.367 L1654.48,303.342 L1658.66,301.416 L1661.53,299.217 L1667.23,295.949 L1681.01,290.669 L1685.86,287.873 L1687.46,286.767 L1691.29,283.127 L1696.52,277.498 L1702.01,272.154 L1705.46,268.19 L1706.41,266.463 L1707.58,263.331 L1708.04,261.07 L1708.27,258.708 L1708.42,252.582 L1708.25,246.467 L1707.81,242.95 L1706.76,239.681 L1705.39,237.034 L1701.93,233.131 L1700.04,231.453 L1696.68,227.588 L1694.36,222.603 L1692.36,219.583 L1691.08,216.264 L1690.57,214.35 L1690.22,211.913 L1690,208.109 L1690.01,196.536 L1690.24,194.099 L1690.75,191.787 L1691.97,189.462 L1696.16,185.136 L1699.44,182.313 L1700.98,181.232 L1704.91,179.69 L1712.47,178.372 L1715.07,177.253 L1716.16,176.346 L1722.01,169.868 L1725.25,167.132 L1727.06,166.448 L1730.16,166.262 L1743.59,168.202 L1752.6,170.315 L1756.93,172.23 L1763.34,174.17 L1768.19,176.37 L1771,176.893 L1772.92,176.569 L1774.44,175.413 L1777.42,172.33 L1779.02,170.34 L1780.88,168.587 L1784.31,164.596 L1785.06,163.34 L1786.56,159.834 L1788.11,154.238 L1789.03,145.757 L1789.47,143.705 L1791.6,138.843 L1792.73,137.015 L1793.82,136.169 L1795.16,135.821 L1796.42,135.946 L1797.68,136.344 L1799.41,137.5 L1801.58,139.962 L1805.32,143.208 L1807.35,152.932 L1809.49,158.491 L1811.36,165.081 L1813.2,169.482 L1813.78,171.683 L1814.28,175.015"/>
  </g>
  <g stroke-width="1" transform="matrix(0.999744,0,0,0.999744,0,0)" stroke-opacity="1" font-size="34.5833" fill="none" stroke-linejoin="bevel" font-style="normal" stroke-linecap="square" stroke="#000000" font-family="MS Shell Dlg 2" font-weight="400"/>
  <g stroke-width="1" transform="matrix(11.808,0,0,11.808,0,0)" stroke-opacity="1" font-size="34.5833" fill="none" stroke-linejoin="bevel" font-style="normal" stroke-linecap="square" stroke="#000000" font-family="MS Shell Dlg 2" font-weight="400"/>
  <g stroke-width="1" transform="matrix(11.808,0,0,11.808,0,0)" stroke-opacity="1" font-size="34.5833" fill="none" stroke-linejoin="bevel" font-style="normal" stroke-linecap="square" stroke="#000000" font-family="MS Shell Dlg 2" font-weight="400"/>
  <g stroke-width="1" transform="matrix(11.808,0,0,11.808,0,0)" stroke-opacity="1" font-size="34.5833" fill="none" stroke-linejoin="bevel" font-style="normal" stroke-linecap="square" stroke="#000000" font-family="MS Shell Dlg 2" font-weight="400"/>
  <g stroke-width="1" transform="matrix(1,0,0,1,0,0)" stroke-opacity="1" font-size="34.5833" fill="none" stroke-linejoin="bevel" font-style="normal" stroke-linecap="square" stroke="#000000" font-family="MS Shell Dlg 2" font-weight="400"/>
  <g stroke-width="1" transform="matrix(11.808,0,0,11.808,0,0)" stroke-opacity="1" font-size="34.5833" fill="none" stroke-linejoin="bevel" font-style="normal" stroke-linecap="square" stroke="#000000" font-family="MS Shell Dlg 2" font-weight="400"/>
  <g stroke-width="1" transform="matrix(11.808,0,0,11.808,0,0)" stroke-opacity="1" font-size="34.5833" fill="none" stroke-linejoin="bevel" font-style="normal" stroke-linecap="square" stroke="#000000" font-family="MS Shell Dlg 2" font-weight="400"/>
  <g stroke-width="1" transform="matrix(11.808,0,0,11.808,0,0)" stroke-opacity="1" font-size="34.5833" fill="none" stroke-linejoin="bevel" font-style="normal" stroke-linecap="square" stroke="#000000" font-family="MS Shell Dlg 2" font-weight="400"/>
  <g stroke-width="1" transform="matrix(11.808,0,0,11.808,0,0)" stroke-opacity="1" font-size="34.5833" fill="none" stroke-linejoin="bevel" font-style="normal" stroke-linecap="square" stroke="#000000" font-family="MS Shell Dlg 2" font-weight="400"/>
  <g stroke-width="1" transform="matrix(1,0,0,1,0,0)" stroke-opacity="1" font-size="34.5833" fill="none" stroke-linejoin="bevel" font-style="normal" stroke-linecap="square" stroke="#000000" font-family="MS Shell Dlg 2" font-weight="400"/>
 </g>
</svg>
