<?xml version='1.0' encoding='UTF-8' standalone='no'?>
<svg xmlns:xlink="http://www.w3.org/1999/xlink" baseProfile="tiny" xmlns="http://www.w3.org/2000/svg" height="249.936mm" viewBox="0 0 2952 2952" width="249.936mm" version="1.2">
 <title>Qt SVG Document</title>
 <desc>Generated with Qt</desc>
 <defs/>
 <g stroke-width="1" fill-rule="evenodd" fill="none" stroke-linejoin="bevel" stroke-linecap="square" stroke="black">
  <g stroke-width="1" transform="matrix(1,0,0,1,0,0)" stroke-opacity="1" font-size="34.5833" fill="none" stroke-linejoin="bevel" font-style="normal" stroke-linecap="square" stroke="#000000" font-family="MS Shell Dlg 2" font-weight="400"/>
  <g stroke-width="1" transform="matrix(1,0,0,1,0,0)" stroke-opacity="1" font-size="34.5833" fill="none" stroke-linejoin="bevel" font-style="normal" stroke-linecap="square" stroke="#000000" font-family="MS Shell Dlg 2" font-weight="400"/>
  <g stroke-width="1" transform="matrix(11.808,0,0,11.808,0,0)" stroke-opacity="1" font-size="34.5833" fill="none" stroke-linejoin="bevel" font-style="normal" stroke-linecap="square" stroke="#000000" font-family="MS Shell Dlg 2" font-weight="400"/>
  <g stroke-width="1" transform="matrix(0.999744,0,0,0.999744,0,0)" stroke-opacity="1" font-size="34.5833" fill="none" stroke-linejoin="bevel" font-style="normal" stroke-linecap="square" stroke="#000000" font-family="MS Shell Dlg 2" font-weight="400"/>
  <g transform="matrix(0.999744,0,0,0.999744,0,0)" font-size="34.5833" fill-opacity="0" fill="#ffffff" font-style="normal" stroke="none" font-family="MS Shell Dlg 2" font-weight="400">
   <path fill-rule="evenodd" vector-effect="none" d="M-2,-2 L2955,-2 L2955,2955 L-2,2955 L-2,-2"/>
  </g>
  <g stroke-width="1" transform="matrix(0.999744,0,0,0.999744,0,0)" stroke-opacity="1" font-size="34.5833" fill="none" stroke-linejoin="bevel" font-style="normal" stroke-linecap="square" stroke="#000000" font-family="MS Shell Dlg 2" font-weight="400"/>
  <g stroke-width="1" transform="matrix(11.808,0,0,11.808,0,0)" stroke-opacity="1" font-size="34.5833" fill="none" stroke-linejoin="bevel" font-style="normal" stroke-linecap="square" stroke="#000000" font-family="MS Shell Dlg 2" font-weight="400"/>
  <g stroke-width="1" transform="matrix(11.808,0,0,11.808,0,0)" stroke-opacity="1" font-size="34.5833" fill="none" stroke-linejoin="bevel" font-style="normal" stroke-linecap="square" stroke="#000000" font-family="MS Shell Dlg 2" font-weight="400"/>
  <g stroke-width="1" transform="matrix(11.808,0,0,11.808,0,0)" stroke-opacity="1" font-size="34.5833" fill="none" stroke-linejoin="bevel" font-style="normal" stroke-linecap="square" stroke="#000000" font-family="MS Shell Dlg 2" font-weight="400"/>
  <g stroke-width="1" transform="matrix(11.808,0,0,11.808,0,0)" stroke-opacity="1" font-size="34.5833" fill="none" stroke-linejoin="bevel" font-style="normal" stroke-linecap="square" stroke="#000000" font-family="MS Shell Dlg 2" font-weight="400"/>
  <g stroke-width="1" transform="matrix(11.808,0,0,11.808,0,0)" stroke-opacity="1" font-size="34.5833" fill="none" stroke-linejoin="bevel" font-style="normal" stroke-linecap="square" stroke="#000000" font-family="MS Shell Dlg 2" font-weight="400"/>
  <g transform="matrix(11.808,0,0,11.808,0,0)" font-size="34.5833" fill-opacity="0" fill="#ffffff" font-style="normal" stroke="none" font-family="MS Shell Dlg 2" font-weight="400">
   <path fill-rule="evenodd" vector-effect="none" d="M0,0 L250,0 L250,250 L0,250 L0,0"/>
  </g>
  <g stroke-width="1" transform="matrix(11.808,0,0,11.808,0,0)" stroke-opacity="1" font-size="34.5833" fill="none" stroke-linejoin="bevel" font-style="normal" stroke-linecap="square" stroke="#000000" font-family="MS Shell Dlg 2" font-weight="400"/>
  <g stroke-width="1" transform="matrix(11.808,0,0,11.808,0,0)" stroke-opacity="1" font-size="34.5833" fill="none" stroke-linejoin="bevel" font-style="normal" stroke-linecap="square" stroke="#000000" font-family="MS Shell Dlg 2" font-weight="400"/>
  <g transform="matrix(0.999744,0,0,0.999744,0,0)" font-size="34.5833" fill-opacity="0" fill="#000000" font-style="normal" stroke="none" font-family="MS Shell Dlg 2" font-weight="400">
   <rect x="0" height="2953" width="2953" y="0"/>
  </g>
  <g stroke-width="1" transform="matrix(0.999744,0,0,0.999744,0,0)" stroke-opacity="1" font-size="34.5833" fill="none" stroke-linejoin="bevel" font-style="normal" stroke-linecap="square" stroke="#000000" font-family="MS Shell Dlg 2" font-weight="400"/>
  <g stroke-width="3.07087" transform="matrix(0.999744,0,0,0.999744,0,0)" stroke-opacity="1" font-size="34.5833" fill-opacity="1" fill="#c5c5c5" stroke-linejoin="bevel" font-style="normal" stroke-linecap="square" stroke="#5c5c5c" font-family="MS Shell Dlg 2" font-weight="400">
   <path fill-rule="evenodd" vector-effect="none" d="M1609.22,2820.88 L1607.77,2820.79 L1605.59,2820.04 L1600.02,2819.85 L1599.26,2819.46 L1598.84,2819.74 L1597.99,2819.7 L1595.13,2818.94 L1594.37,2818.42 L1593.53,2818.41 L1591.54,2817.81 L1589.91,2816.81 L1587.9,2816.31 L1584.27,2816.11 L1580.41,2815.38 L1576.23,2815.2 L1575.66,2814.97 L1574.23,2814.98 L1572.18,2814.59 L1569.8,2814.8 L1567.91,2814.18 L1566.89,2814.12 L1565.03,2813.62 L1564.13,2813.61 L1561.09,2812.45 L1559.9,2812.12 L1559.42,2812.2 L1556.35,2811.31 L1554.03,2810.33 L1553.6,2809.96 L1552.51,2809.79 L1551.26,2809.15 L1549.99,2808.89 L1546.17,2807.55 L1541.17,2805.39 L1540.24,2804.67 L1538,2804.37 L1536,2803.77 L1535.07,2803.04 L1532.65,2800.02 L1531.32,2799.14 L1527.95,2797.77 L1527.18,2797.09 L1525.06,2795.96 L1523.01,2796.16 L1521.01,2795.18 L1517.57,2792.6 L1515.22,2791.42 L1514.66,2790.4 L1511.47,2788.1 L1507.62,2786.83 L1505.33,2784.96 L1503.86,2782.16 L1502.26,2776.89 L1497.72,2769.05 L1496.5,2765.71 L1495.94,2762.6 L1492.22,2758.53 L1491.24,2755.52 L1490.09,2753.24 L1490,2752.06 L1488.95,2750.63 L1487.86,2748.21 L1485.2,2745.22 L1483.71,2744.15 L1480.94,2742.87 L1479.87,2742.03 L1478.67,2741.51 L1476.66,2741.08 L1475.74,2740.46 L1473.81,2739.8 L1471.45,2738.57 L1469.97,2738.09 L1468.22,2738.31 L1467.18,2738.03 L1463.28,2735.63 L1459.47,2734.57 L1456.41,2732.79 L1452.58,2731.76 L1452.14,2731.92 L1450.94,2731.02 L1449.66,2730.46 L1447.06,2730.18 L1445.97,2729.9 L1445.91,2729.55 L1445.69,2729.47 L1443.91,2729.21 L1443.04,2727.97 L1440.21,2725.27 L1437.67,2723.89 L1436.4,2721.73 L1435.38,2720.64 L1434.57,2719.39 L1433.34,2718.9 L1432.26,2718.76 L1431.17,2717.94 L1428.3,2716.45 L1427.64,2716.51 L1425.85,2717.53 L1423.07,2719.71 L1420.5,2722.23 L1420.32,2723.36 L1421.17,2725.21 L1421.72,2725.85 L1421.04,2726.41 L1419.14,2726.95 L1417.95,2726.72 L1417.48,2726.05 L1415.96,2726.1 L1415.97,2725.45 L1415.7,2725.43 L1414.57,2726.65 L1413.64,2725.38 L1414.36,2723.95 L1413.28,2723.3 L1413.51,2721.93 L1412.89,2721.46 L1410.54,2720.13 L1409.99,2720.45 L1409.57,2719.7 L1408.55,2718.58 L1408.1,2718.57 L1407.37,2718.94 L1406.63,2718.83 L1403.24,2716.41 L1401.07,2714.05 L1400.49,2713.98 L1399.83,2714.61 L1399.34,2714.21 L1399.26,2713.67 L1398.36,2713.65 L1397.62,2713.87 L1397.46,2714.26 L1397.8,2715.18 L1397.25,2715.95 L1396.55,2716.39 L1396.29,2716.88 L1396.2,2717.77 L1396.36,2717.99 L1396.71,2718.27 L1397.33,2718.12 L1397.76,2718.82 L1397.2,2719.25 L1397.45,2720.3 L1396.97,2721.02 L1396.77,2721.91 L1396.04,2722.64 L1394.55,2724.97 L1394.25,2724.32 L1394.45,2723.55 L1394.06,2723.44 L1393.73,2724.12 L1393.33,2723.15 L1393.07,2723.28 L1392.78,2723.86 L1393.21,2726.04 L1392.39,2726.5 L1392.36,2727.19 L1391.63,2728.79 L1391.22,2729.2 L1390.35,2729.55 L1389.48,2731.04 L1389.32,2731.78 L1389.6,2732.91 L1390.55,2733.61 L1390.54,2734.12 L1390.2,2734.55 L1388.86,2735.28 L1387.94,2736.22 L1386.21,2737.47 L1385.38,2737.07 L1384.6,2738.46 L1383.9,2738.74 L1383.68,2739.03 L1382.93,2741.13 L1381.28,2740.68 L1380.59,2739.89 L1380.58,2739.46 L1381.06,2738.68 L1380.84,2737.73 L1379.47,2737.14 L1379.19,2736.62 L1378.49,2736.51 L1377.85,2735.92 L1376.89,2736.69 L1376.75,2735.49 L1375.92,2735.8 L1374.84,2735.86 L1374.49,2735.69 L1373.95,2734.93 L1372.41,2735.93 L1370.84,2734.85 L1370.11,2735.17 L1370.02,2735.79 L1369.78,2736.09 L1368.5,2736.42 L1367.63,2736.03 L1366.49,2736.96 L1365.71,2736.6 L1364.9,2738.34 L1363.22,2738.44 L1362.33,2736.81 L1362.47,2736.5 L1362.31,2735.94 L1361.89,2735.97 L1361.17,2734.42 L1360.71,2734.13 L1359.5,2733.87 L1358.55,2731.87 L1357.26,2731.54 L1353.95,2731.88 L1353.7,2731.69 L1352.85,2732 L1351.21,2732.11 L1350.41,2732.82 L1347.71,2732.51 L1346.83,2733.09 L1345.17,2732.76 L1344.94,2732.52 L1344.1,2732.52 L1343.33,2731.56 L1340.81,2729.54 L1338.55,2728.5 L1338.79,2728.18 L1335.79,2727.72 L1334.21,2726.36 L1331.97,2725.09 L1330.35,2725 L1324.69,2722.56 L1322.86,2722.54 L1320.07,2721.56 L1317.15,2719.86 L1316.72,2719.07 L1315.94,2718.21 L1315.44,2717 L1313.13,2715.66 L1310.09,2712.03 L1308.93,2711.17 L1306.89,2710.37 L1306.16,2709.37 L1306,2707.68 L1305.41,2706.52 L1304.58,2703.95 L1303.23,2701.51 L1302,2700.16 L1300.01,2698.63 L1298.44,2696.87 L1296.73,2695.6 L1294.54,2693.28 L1291.58,2690.94 L1289.17,2687.5 L1287.9,2684.29 L1286.56,2682.63 L1283.13,2675.74 L1281.27,2673.01 L1279.01,2670.75 L1277.74,2668.46 L1274.92,2665.75 L1270.89,2660.25 L1268.23,2660.76 L1264.7,2660.37 L1263.32,2660.04 L1261.89,2659.34 L1255.64,2663.22 L1254.71,2663.42 L1250.64,2665.38 L1249.04,2665.94 L1247.69,2667.19 L1243.99,2669.22 L1243.23,2669.34 L1241.16,2668.82 L1239.75,2669.17 L1236.86,2671.14 L1236.05,2670.09 L1233.8,2668.74 L1233.6,2668.4 L1229.81,2667.04 L1227.74,2666.04 L1227.15,2665.53 L1226.72,2664.78 L1221.37,2660.8 L1220.5,2659.76 L1219.74,2659.37 L1218.33,2657.9 L1217.67,2657.74 L1215.37,2656.41 L1213.05,2655.92 L1211.8,2654.89 L1211.03,2655.03 L1210.22,2655.77 L1208.61,2655.64 L1205.79,2656.21 L1203.77,2656.05 L1203.06,2656.37 L1202.19,2656.34 L1198.24,2659.18 L1197.72,2659.17 L1196.81,2658.43 L1196.01,2658.17 L1193.05,2657.64 L1192.04,2657.72 L1190.92,2658.96 L1189.29,2659.48 L1187.17,2659.84 L1186.66,2660.17 L1185.44,2660.49 L1183.55,2660.38 L1182.16,2659.85 L1180.28,2660.34 L1177.98,2659.99 L1177.92,2659.73 L1176.84,2659.13 L1176.1,2658.01 L1175.84,2656.52 L1175.29,2655.09 L1175.34,2654.46 L1174.08,2652.53 L1172.82,2651.47 L1171.86,2650.95 L1171.03,2649.92 L1169.49,2649.74 L1169.2,2647.59 L1168.87,2646.53 L1168.8,2644.37 L1168.52,2642.9 L1166.38,2642.76 L1164.72,2641.87 L1162.95,2641.29 L1162.56,2640.82 L1161.83,2638.97 L1162.14,2637.7 L1161.58,2637.3 L1161.14,2637.77 L1160.36,2636.99 L1159.85,2637.3 L1159.32,2636.57 L1158.27,2637.14 L1157.26,2638.71 L1157.08,2640.99 L1156.8,2641.83 L1156.41,2642.3 L1155.4,2642.63 L1153.63,2644.42 L1152.56,2645.11 L1148.92,2646.97 L1147.99,2645.89 L1146.66,2644.79 L1146.52,2644.9 L1144.62,2643.42 L1144.14,2642.49 L1142.72,2641.38 L1141.94,2640.3 L1140.84,2637.85 L1140.87,2636.43 L1141.41,2634.83 L1141.3,2634 L1140.97,2633.61 L1139.52,2632.96 L1138.98,2632.51 L1139.05,2631.81 L1140.02,2630.43 L1139.16,2629.18 L1137.97,2628.48 L1136.69,2626.91 L1135.39,2623.38 L1132.85,2623.91 L1131.68,2625.4 L1131.16,2626.63 L1130.58,2627.33 L1129.04,2627.97 L1128.34,2628.63 L1126.22,2628.56 L1124.09,2627.14 L1123.51,2625.93 L1123.34,2624.52 L1121.79,2623.39 L1121.4,2622.78 L1121.08,2620.83 L1118.74,2619.39 L1117.76,2618.06 L1116.18,2616.61 L1115.82,2615.08 L1113.75,2612.9 L1113.05,2611.59 L1113.35,2610.57 L1113.09,2610.08 L1110.68,2609.08 L1109.3,2607.41 L1109.19,2606.44 L1109.88,2604.67 L1110.48,2603.98 L1109.78,2601.85 L1108.51,2600.84 L1105.47,2600.51 L1105.26,2600.23 L1103.95,2600.33 L1101.15,2600.88 L1099.74,2601.6 L1098.16,2601.98 L1094.13,2602.43 L1092.69,2602.33 L1090.67,2601.36 L1090.57,2600.4 L1088.39,2597.61 L1087.92,2597.4 L1087.75,2596.84 L1086.85,2596.11 L1082.88,2596.8 L1082.01,2593.3 L1081.79,2593.01 L1081.41,2588.77 L1080.62,2585.07 L1080.6,2584.04 L1081.17,2583.11 L1081.18,2582.08 L1081.93,2581.8 L1081.92,2579.68 L1080.92,2578.76 L1080.89,2576.89 L1079.94,2574.43 L1080.18,2573.5 L1080.11,2572.57 L1079.36,2571.09 L1079.74,2568.95 L1078.91,2566.45 L1078.72,2564.71 L1079.07,2563.92 L1079.09,2562.86 L1078.32,2561.38 L1078.01,2559.85 L1078.05,2558.71 L1078.46,2558.71 L1079.12,2558.33 L1079.39,2557.15 L1079.3,2555.92 L1080.54,2552.85 L1080.86,2552.86 L1081.35,2549.73 L1081.01,2548.9 L1080.25,2548.25 L1078.9,2547.88 L1077.5,2547.93 L1075.39,2545.62 L1074.89,2544.12 L1073.78,2541.89 L1075.15,2539.35 L1077.56,2538.19 L1077.89,2537.81 L1077.92,2536.98 L1078.26,2536.65 L1078.15,2534.9 L1078.36,2534.27 L1078.38,2532.76 L1078.87,2531.69 L1078.49,2530.94 L1078.1,2529.33 L1078.33,2528.86 L1078.08,2526.96 L1078.34,2524.69 L1078.55,2523.78 L1079.6,2521.83 L1082.67,2518.57 L1083,2517.36 L1082.79,2514.58 L1083.16,2512.91 L1085.05,2511.45 L1085.16,2511.02 L1085.47,2510.75 L1085.61,2508.31 L1086.49,2507.46 L1086.98,2505.97 L1087.85,2504.41 L1089.54,2502.75 L1090.24,2501.54 L1093.82,2496.95 L1094.52,2496.31 L1095.04,2493.2 L1096.52,2490.65 L1097.58,2489.92 L1098.66,2488.52 L1101.6,2485.97 L1103.01,2484.3 L1105.2,2482.43 L1108.04,2478.62 L1109.86,2477.09 L1110,2476.6 L1111.17,2475.72 L1112.36,2474.28 L1113.7,2471.91 L1114.29,2471.69 L1116.25,2469.56 L1119.86,2467.2 L1121.42,2465.7 L1124.64,2461.11 L1125.93,2457.77 L1128.69,2455.38 L1128.46,2454.92 L1128.49,2454.42 L1129.16,2453.89 L1130.17,2453.6 L1130.63,2452.9 L1130.5,2452.4 L1130.76,2452 L1131.43,2451.63 L1136.46,2450.63 L1136.65,2450.03 L1136.97,2449.88 L1137.9,2448.06 L1140.19,2442.65 L1141.25,2440.83 L1141.22,2439.38 L1142.17,2436.36 L1143.6,2435.25 L1147.06,2433.28 L1148.6,2431.71 L1150.5,2429.3 L1155.65,2423.98 L1156.47,2422.66 L1157.88,2421.43 L1158.96,2419.99 L1162.58,2417.22 L1167.14,2412.71 L1170.15,2410.35 L1171.39,2409.03 L1172.38,2407.13 L1173.08,2405.25 L1173.18,2401.28 L1173.52,2399.67 L1172.78,2398.56 L1172.47,2398.59 L1172.35,2398.33 L1173.27,2394.24 L1172.26,2387.22 L1172.26,2385.24 L1174.02,2382.95 L1175.07,2381.06 L1176.88,2379.01 L1178.62,2375.76 L1180.51,2373.23 L1184.4,2370.53 L1186.19,2369.77 L1188.65,2366.85 L1190.45,2365.59 L1191.38,2365.07 L1192.95,2364.6 L1195.16,2363.43 L1207.18,2369.01 L1209.79,2369.81 L1212.24,2371.79 L1213.89,2372.81 L1214.07,2373.14 L1214.45,2373.04 L1216.68,2373.58 L1220.76,2375.72 L1222.52,2376.91 L1223.28,2377.55 L1223.71,2378.44 L1225.09,2379.68 L1225.48,2380.78 L1225.7,2383.88 L1226.63,2386.63 L1228.09,2387.54 L1232.32,2388.71 L1237.52,2389.81 L1239.17,2389.78 L1245.36,2392.36 L1250.65,2394.04 L1252.26,2393.31 L1253.8,2392.96 L1255.21,2393.88 L1254.82,2392.61 L1254.54,2390.49 L1253.87,2389.42 L1253.19,2389.23 L1252.31,2388.16 L1253.2,2386.29 L1256.91,2385.17 L1258.64,2384.14 L1260.12,2382.87 L1264.94,2380.72 L1266.39,2380.26 L1268.29,2378.96 L1271.53,2375.5 L1273.15,2373.47 L1273.96,2371.96 L1274.51,2370.35 L1274.83,2370.59 L1283.65,2370.1 L1291.08,2370.19 L1296.11,2369.53 L1298.78,2370.05 L1304.93,2369.79 L1307.24,2370.04 L1310.74,2371.23 L1314.92,2374.02 L1316.41,2375.32 L1318.13,2377.33 L1319.04,2378.06 L1319.23,2378.5 L1321.24,2380.39 L1322.88,2381.74 L1324.16,2382.21 L1326.03,2383.45 L1327.32,2385.04 L1329.29,2386.87 L1330.47,2388.85 L1333.57,2396.33 L1337,2402.26 L1343.83,2398.76 L1347.41,2397.65 L1349.02,2396.91 L1350.56,2396.76 L1352.1,2396.24 L1353.74,2395.06 L1354.7,2393.89 L1356.9,2392.12 L1357.62,2391.22 L1360.88,2389.53 L1363.14,2386.94 L1367.18,2383.03 L1368.4,2382.23 L1370.59,2380.31 L1375.55,2376.95 L1376.72,2375.72 L1377.85,2374.05 L1381.79,2372.26 L1383.37,2371.92 L1385.39,2371.03 L1386.61,2370.85 L1393.23,2367.05 L1387.52,2361.64 L1385.68,2360.35 L1384.37,2359.07 L1381.51,2357.97 L1376.83,2356.53 L1374.35,2355.29 L1373.48,2354.63 L1373.54,2354.22 L1372.93,2353.46 L1371.88,2350.54 L1368.08,2344.78 L1367.79,2343.49 L1366.55,2340.16 L1365.28,2337.48 L1364.67,2335.21 L1363.64,2327.26 L1363.68,2326.33 L1366.62,2319.25 L1367.82,2315.92 L1368.41,2313.46 L1374.62,2308.18 L1392.6,2297.58 L1391.99,2295.14 L1391.1,2293.12 L1389.16,2291.05 L1389.61,2290.05 L1387.44,2288.72 L1385.92,2288.11 L1384.9,2287.87 L1383.45,2287.96 L1381.16,2288.8 L1380.25,2290.14 L1378.58,2291.77 L1373.14,2289.74 L1372.56,2289.8 L1371.22,2290.46 L1370.59,2290.5 L1367.59,2289.4 L1365.78,2289.78 L1366.16,2290.12 L1364.98,2292.04 L1364.21,2293.99 L1363.68,2294.53 L1363.21,2294.65 L1361.81,2294.49 L1359.92,2293.67 L1359.26,2293.22 L1358.2,2291.58 L1359.77,2285.03 L1357.69,2280.99 L1357.95,2278.7 L1356.89,2274.93 L1354.99,2271.76 L1356.27,2268.35 L1356.05,2266.04 L1356.11,2264.33 L1355.57,2263.03 L1355.47,2262.17 L1354.11,2260.26 L1353.43,2260.43 L1352.49,2259.45 L1351.95,2259.2 L1350.79,2257.86 L1348.38,2257.83 L1347.31,2258.02 L1344.93,2257.25 L1344.18,2257.27 L1343.05,2256.27 L1341.99,2255.84 L1340.97,2255.82 L1338.15,2253.82 L1336.68,2253.66 L1333.93,2254.07 L1332.56,2253.24 L1331.46,2251.89 L1328.69,2250.34 L1328.31,2249.77 L1327.83,2250.94 L1327.87,2252.16 L1326.43,2253.38 L1318.14,2248.84 L1313.64,2247.86 L1309.38,2249.76 L1308.22,2251.63 L1307.51,2253.43 L1272.31,2235.92 L1271.08,2247.1 L1267.67,2249.59 L1267.77,2250.24 L1266.67,2250.01 L1265.05,2250.07 L1262.86,2249.24 L1261.13,2247.77 L1260.73,2246.41 L1252.66,2230.86 L1242.21,2229.44 L1239.74,2231.75 L1238.86,2233.53 L1236.22,2233.67 L1232.68,2234.33 L1231.46,2233.96 L1227.26,2233.96 L1226.7,2233.75 L1224.65,2233.9 L1223.19,2233.45 L1221.23,2232.35 L1220.62,2231.72 L1220.42,2231.08 L1219.02,2229.14 L1218.61,2227.53 L1216.64,2224.6 L1213.21,2225.22 L1211.68,2225.03 L1208.63,2224.11 L1207.42,2224.2 L1201.8,2223.59 L1199.65,2222.02 L1197.25,2219.55 L1196.36,2217.93 L1195.56,2215.82 L1196.36,2210.08 L1197.59,2205.99 L1197.95,2203.49 L1198.03,2198.58 L1199.81,2190.06 L1199.86,2188.45 L1198.52,2185.21 L1196.61,2184.19 L1191.87,2185.58 L1190.5,2191.04 L1186.45,2193.86 L1184.36,2193.4 L1182.18,2191.26 L1179.81,2187.92 L1176.13,2184.7 L1173.82,2183.45 L1170.44,2182.26 L1168.41,2180.85 L1167.42,2179.51 L1166.68,2177.15 L1166.1,2177.06 L1165.04,2176.21 L1162.66,2173.17 L1159.64,2167.89 L1155.24,2165.53 L1153.34,2165.52 L1151.53,2166.47 L1150.7,2167.17 L1149.85,2168.76 L1149.07,2171.13 L1149.06,2172.53 L1150.76,2174.93 L1151.01,2176.06 L1150.91,2177.98 L1150.44,2180.09 L1150.03,2180.96 L1149.41,2181.63 L1148.31,2182.31 L1147.41,2182.34 L1145.96,2181.59 L1143.74,2182.12 L1142.69,2182.12 L1136.48,2181.64 L1132.96,2181.16 L1130.73,2180.55 L1124.48,2177.62 L1122.14,2175.09 L1120.66,2173.08 L1118.89,2168.17 L1118.99,2165.8 L1120.12,2164.02 L1120.8,2163.46 L1126.81,2154.69 L1129.49,2152.2 L1131.49,2145.17 L1132.97,2133.74 L1131.83,2131.38 L1130.17,2129.99 L1129.03,2127.76 L1129.66,2124.06 L1131.02,2120.69 L1131.16,2119.37 L1130.47,2116.62 L1129.18,2113 L1127.11,2110.27 L1125.91,2108.33 L1124.43,2106.97 L1124.06,2106.91 L1123.38,2108.43 L1121.1,2109.72 L1119.45,2112.95 L1114.8,2114.03 L1108.66,2112.59 L1094.29,2106.28 L1093,2105.13 L1092.46,2103.78 L1091.87,2103.01 L1088.87,2101.32 L1079.62,2096.84 L1071.31,2091.74 L1067.72,2089.16 L1064.94,2087.51 L1064.56,2087.19 L1064.6,2086.71 L1067.64,2083.13 L1068.07,2082.86 L1070,2082.46 L1073.28,2080.18 L1075.05,2077.95 L1076.1,2076.31 L1076.64,2072.09 L1076.59,2071.84 L1072.55,2067.48 L1070.67,2065.88 L1067.17,2063.56 L1066.65,2063.58 L1066.2,2063.95 L1065.03,2063.78 L1063.81,2062.71 L1060.81,2060.77 L1058.85,2057.62 L1058.39,2055.55 L1058.59,2053.25 L1059.54,2050.99 L1062.52,2047.34 L1063.08,2045.57 L1063.5,2041.95 L1063.12,2039.1 L1062.33,2038.55 L1058.47,2037.04 L1058.04,2036.43 L1054.1,2036.65 L1051.03,2036.47 L1049.39,2036.87 L1048.76,2037.39 L1048.34,2038.52 L1048.79,2044.01 L1048.21,2045.84 L1047.21,2047.43 L1045.84,2048.78 L1044.55,2049.49 L1043.52,2049.51 L1042.63,2049.15 L1041.21,2047.95 L1038.7,2045.18 L1037.35,2040.54 L1035.22,2037.39 L1029.38,2025.94 L1028.68,2023.51 L1027.59,2022.62 L1026.27,2022.22 L1019.81,2023.37 L1014.93,2021.92 L1013.59,2021.3 L1009.37,2021.24 L1007.08,2021.56 L1005.35,2022.39 L1002.17,2024.42 L999.796,2025.25 L997.907,2025.53 L996.731,2025.31 L995.435,2024.76 L994.077,2023.43 L993.147,2022.09 L990.833,2018.29 L990.346,2016.78 L990.34,2015.83 L990.678,2015.02 L994.623,2010.7 L996.033,2009.46 L996.311,2008.37 L996.042,2007.69 L993.595,2004.66 L990.578,2001.76 L988.882,1999.82 L988.797,1998.12 L989.005,1997.51 L991.144,1995.17 L991.842,1993.81 L991.58,1993.03 L989.509,1990.23 L988.449,1989.33 L986.354,1988.04 L984.649,1987.74 L982.973,1989.65 L980.582,1993.29 L978.41,1995.02 L977.856,1995.29 L977.006,1995.25 L975.673,1994.57 L974.949,1994 L974.653,1993.49 L973.613,1990.15 L973.596,1989.34 L974.704,1987.59 L974.616,1986.48 L972.409,1983.6 L971.038,1982.31 L969.208,1980.97 L968.443,1980.6 L966.577,1980.24 L964.805,1979.62 L962.079,1978.32 L959.789,1976.91 L958.515,1975.66 L957.38,1972.59 L956.613,1971.41 L955.655,1970.46 L952.953,1968.73 L951.542,1968.2 L949.788,1968.4 L947.717,1969.51 L943.517,1972.55 L939.501,1974.57 L938.148,1974.55 L936.378,1973.31 L934.281,1970.41 L933.508,1968.22 L932.098,1962.36 L931.088,1960.61 L930.046,1959.53 L928.342,1958.72 L925.486,1958.49 L917.89,1960.04 L915.849,1961.51 L914.641,1962.72 L912.805,1966.67 L910.091,1968.89 L908.558,1969.87 L907.175,1970.21 L902.784,1970.56 L901.299,1971.3 L897.254,1974.12 L885.786,1977.08 L883.852,1977.4 L883.942,1980.92 L884.222,1981.54 L879.939,1986.51 L879.883,1987.26 L877.704,1989.32 L873.885,1992.59 L868.383,1996.11 L865.668,1997.4 L863.956,1997.64 L860.942,1998.48 L859.996,1999.57 L857.958,2000.87 L857.069,2002.07 L855.215,2003.42 L851.754,2006.63 L849.46,2007.91 L848.217,2008.08 L846.888,2007.38 L843.479,2006.91 L839.342,2005.44 L837.281,2005.39 L832.083,2004.17 L829.461,2003.16 L828.335,2003.01 L826.843,2002.18 L821.769,2000.95 L821.889,1999.04 L822.298,1996.89 L822.321,1993.84 L822.009,1989.48 L821.831,1988.35 L821.275,1987.24 L821.096,1984.84 L822.073,1980.56 L825.923,1974.74 L826.35,1973.53 L827.155,1973.17 L828.436,1972.04 L829.392,1971.52 L830.656,1969.86 L833.504,1967.62 L834.188,1966.43 L835.828,1964.88 L836.78,1963.07 L837.35,1959.52 L836.685,1958.72 L822.064,1947.68 L817.841,1945.91 L825.164,1931.21 L824.474,1930.29 L822.153,1928.5 L821.503,1927.63 L817.52,1925.37 L815.003,1923.58 L813.659,1922.88 L810.724,1922.2 L806.678,1919.8 L801.671,1917.41 L798.272,1915.02 L796.021,1913.88 L794.09,1912.64 L793.538,1911.44 L793.595,1909.95 L792.071,1908.04 L791.212,1906.61 L785.677,1901.47 L785.955,1898.99 L790.583,1890.01 L791.426,1887.09 L792.823,1884.65 L793.09,1883.24 L794.074,1881.72 L798.16,1877.25 L799.779,1871.29 L800.482,1870.2 L801.792,1869.45 L799.525,1869.3 L798.03,1868.64 L798.02,1868 L797.702,1867.33 L792.988,1864.19 L792.222,1863.24 L790.075,1863.24 L788.711,1864.59 L787.278,1865.06 L786.877,1865.05 L785.601,1864.43 L783.229,1864.93 L779.424,1864.24 L778.215,1864.84 L777.223,1863.64 L773.226,1864.93 L766.67,1864.01 L763.532,1862.38 L762.543,1861.16 L761.987,1860.76 L761.899,1860.42 L757.088,1860.01 L756.055,1860.8 L755.486,1861.7 L754.369,1861.95 L753.741,1861.46 L752.398,1861.51 L751.571,1862 L750.891,1862.73 L748.005,1864.16 L747.254,1864.94 L744.398,1866.06 L740.925,1870.31 L739.624,1868.82 L739.031,1866.3 L738.33,1865.05 L737.287,1864.61 L735.233,1864.68 L733.486,1865.47 L731.667,1866.83 L729.291,1868.79 L728.661,1869.64 L728.016,1871.58 L728.575,1876.09 L728.322,1878.23 L727.688,1879.42 L726.627,1880.74 L724.358,1882.54 L722.363,1883.58 L720.623,1884.19 L716.442,1885.02 L707.916,1885.17 L704.062,1885.67 L702.092,1885.46 L700.987,1884.94 L700.178,1884.3 L698.666,1882.06 L697.77,1879.8 L696.516,1879 L695.788,1878.12 L695.07,1876.59 L694.528,1874.75 L693.799,1869.82 L691.997,1867.26 L689.683,1865.41 L688.348,1864.89 L686.975,1864.75 L686.109,1865.04 L684.121,1866.28 L681.924,1866.66 L679.733,1866.15 L675.656,1863.51 L671.544,1863.86 L670.221,1864.17 L667.297,1865.76 L665.67,1867.86 L663.024,1870.48 L661.748,1871.37 L660.157,1872.15 L656.5,1872.79 L655.311,1872.73 L654.793,1872.13 L654.434,1869.11 L653.166,1864.11 L653.244,1860.53 L652.93,1859.31 L652.372,1858.28 L651.034,1856.87 L647.19,1854 L644.311,1852.52 L642.093,1851.88 L636.783,1851.59 L633.849,1852.62 L631.626,1853.07 L629.394,1852.91 L625.873,1851.87 L623.368,1850.66 L620.855,1850.56 L619.864,1850.2 L619.548,1849.84 L619.335,1849.09 L619.627,1847.82 L619.061,1844.44 L619.18,1835.45 L618.206,1828.48 L617.925,1827.43 L616.688,1824.94 L615.631,1823.78 L614.194,1822.81 L608.075,1820.61 L604.519,1818.87 L600.658,1816.25 L597.567,1814.51 L591.006,1811.57 L587.442,1810.29 L583.571,1807.55 L581.802,1806.6 L580.363,1806.16 L578.951,1806.1 L578.089,1806.36 L577.326,1806.85 L576.35,1807.9 L574.014,1811.6 L573.981,1811.95 L574.358,1812.33 L573.706,1814.33 L572.914,1815.46 L572.083,1816.05 L571.186,1816.43 L569.09,1816.24 L566.325,1815.31 L564.55,1814.28 L562.888,1812.9 L561.881,1811.32 L560.852,1808.53 L560.753,1807.24 L560.982,1803.66 L560.725,1800.33 L560.251,1797.83 L559.301,1795.8 L557.645,1794.4 L553.744,1792.5 L549.368,1788.71 L548.087,1786.19 L548.019,1785.78 L548.441,1784.49 L548.284,1783.84 L547.899,1783.16 L546.16,1782 L547.276,1779.86 L546.253,1773.71 L535.689,1771.29 L534.442,1771.31 L533.063,1772.12 L532.746,1773.18 L533.361,1777.37 L535.378,1781.83 L538.53,1787.78 L536.275,1790.54 L535.038,1791.56 L533.482,1792.35 L531.878,1792.52 L530.469,1792.14 L528.766,1791.33 L527.339,1790.31 L523.22,1786.62 L519.525,1784.36 L518.41,1784.04 L516.513,1783.9 L511.209,1784.48 L509.841,1784.45 L507.704,1784.03 L504.886,1782.85 L502.24,1780.89 L495.95,1774.08 L492.936,1771.53 L491.257,1770.69 L490.043,1770.34 L488.715,1770.28 L487.131,1770.64 L485.306,1771.58 L483.217,1773.77 L479.048,1777.03 L478.291,1778.24 L478.283,1779.26 L478.761,1780.62 L479.977,1782.43 L482.583,1785.06 L483.427,1786.31 L485.407,1791.27 L485.665,1792.87 L485.44,1795.95 L485.115,1797.51 L484.443,1799.15 L482.759,1800.58 L480.908,1801.23 L478.324,1801.49 L473.71,1801.45 L469.467,1802.96 L466.53,1803.33 L465.227,1803.15 L464.063,1802.65 L462.905,1801.66 L462.272,1800.67 L462.259,1799.83 L463.126,1796.9 L462.954,1793.89 L461.986,1792.05 L459.757,1786.09 L458.826,1784.31 L458.708,1783.39 L458.361,1782.78 L457.939,1777.12 L457.381,1776.57 L452.893,1775.05 L450.395,1773.6 L449.563,1773.38 L448.935,1773.52 L447.948,1774.32 L446.192,1780.25 L444.914,1782.13 L443.426,1783.49 L442.559,1783.99 L441.244,1784.11 L439.661,1783.94 L437.721,1783.48 L435.249,1782.53 L433.374,1781.46 L430.922,1779.46 L430.111,1778.39 L429.536,1777.02 L429.331,1775.39 L429.498,1773.01 L428.82,1771.19 L427.108,1768.75 L425.331,1767.73 L422.267,1766.91 L419.836,1766.7 L415.215,1767.08 L409.012,1768.03 L406.69,1768.02 L405.342,1767.68 L403.693,1766.86 L401.52,1764.72 L399.199,1762.99 L397.062,1762.06 L395.585,1761.85 L393.542,1762.12 L391.585,1763.08 L390.174,1765.02 L382.716,1753.25 L382.105,1751.86 L380.07,1749.1 L378.135,1745.39 L376.608,1744.09 L373.642,1740.39 L372.517,1737.94 L370.874,1733.25 L368.932,1729.97 L366.937,1730.75 L366.836,1730.52 L366.28,1730.87 L365.457,1730.92 L361.733,1732.27 L357.67,1713.53 L358.039,1711.58 L358.826,1710.39 L358.963,1707.66 L357.741,1695.66 L357.365,1693.6 L357.678,1692.54 L359.4,1690.07 L370.02,1684.79 L375.718,1682.59 L385.267,1682.2 L389.486,1681.76 L394.431,1681.75 L400.932,1681.24 L401.023,1681.04 L400.838,1679.82 L401.263,1679.79 L400.629,1675.99 L399.737,1668.15 L399.224,1667.26 L398.121,1667.26 L396.665,1665.73 L395.795,1663.01 L394.677,1661.47 L394.168,1660.1 L392.731,1657.53 L392.737,1652.6 L392.235,1648.3 L392.32,1647.49 L391.279,1646.36 L391.261,1646.1 L391.088,1646.12 L390.758,1644.49 L390.474,1644.71 L389.726,1643.32 L388.596,1639.91 L389.85,1635.71 L389.969,1630.84 L389.756,1629.49 L391.009,1627.7 L396.409,1622.99 L398.434,1622.02 L404.857,1619.53 L404.123,1614.35 L403.219,1612.37 L403.284,1610.36 L402.432,1606.71 L402.813,1602.84 L403.411,1600.35 L403.672,1596.79 L401.778,1594.47 L399.315,1587.78 L399.338,1577.89 L398.676,1574.8 L396.848,1562.72 L394.033,1552.45 L393.486,1549.66 L393.007,1548.71 L392.062,1547.54 L390.889,1544.23 L390.969,1543.17 L391.858,1539.93 L392.033,1536.09 L392.404,1535.03 L393.967,1533.24 L394.737,1531.2 L394.8,1530.18 L395.465,1528.16 L395.287,1527.72 L395.497,1525.13 L391.878,1525.34 L388.577,1526.89 L384.22,1526.38 L382.016,1526.44 L378.551,1525.31 L377.944,1525.04 L371.712,1520.36 L370.193,1518.84 L369.163,1517.14 L366.783,1515.35 L365.387,1512.41 L364.961,1509.82 L360.896,1510.07 L357.602,1514.24 L356.183,1515.63 L356.638,1519.53 L356.528,1521.08 L356.118,1522.56 L355.746,1523.02 L353.628,1523.46 L351.791,1524.92 L350.16,1526.76 L349.784,1527.88 L348.844,1528.9 L347.746,1530.86 L347.007,1533.55 L346.466,1534.71 L346.031,1537.83 L344.405,1539.72 L343.308,1540.51 L343.193,1541.38 L342.85,1542.09 L341.131,1544.57 L338.246,1552.57 L336.05,1556.18 L335.995,1556.58 L335.443,1557 L334.793,1557.94 L334.525,1558.84 L334.607,1559.74 L333.603,1561.36 L331.796,1567.56 L330.242,1570.33 L326.702,1573.95 L325.367,1576.23 L324.799,1576.87 L322.46,1578.94 L321.44,1580.92 L319.613,1583.47 L317.252,1585.93 L316.821,1587.73 L315.295,1582.67 L315.04,1579.38 L312.157,1575.81 L311.087,1573.62 L311.476,1573.05 L311.494,1570.08 L309.36,1567.62 L307.16,1566.71 L307.507,1565.06 L307.023,1563.15 L307.366,1562.17 L307.33,1560.63 L307.65,1559.8 L307.762,1558.72 L307.569,1557.5 L307.136,1556.77 L307.331,1555.13 L306.451,1554.41 L305.099,1552.39 L304.397,1549.91 L303.994,1547.08 L298.119,1545.52 L296.012,1545.27 L292.318,1543.84 L289.861,1543.48 L283.688,1543.71 L280.057,1543.64 L276.479,1544.12 L273.542,1543.89 L267.31,1546.39 L266.213,1548.9 L265.408,1549.76 L264.5,1545.78 L262.823,1541.89 L262.446,1540.45 L260.031,1535.7 L259.522,1520.91 L258.837,1518.17 L257.259,1514.35 L256.334,1512.9 L256.059,1511.72 L255.198,1510.88 L254.073,1509.08 L252.539,1503.66 L253.652,1492.81 L259.551,1494.65 L261.083,1495.31 L264.62,1496.01 L267.061,1497.52 L270.692,1498.93 L273.096,1499.55 L279.838,1493.4 L280.587,1493.19 L285.286,1481.23 L285.823,1480.3 L289.487,1477.01 L290.085,1475.85 L289.83,1473.84 L291.202,1471.68 L298.184,1471.74 L301.02,1468.82 L300.804,1465.98 L302.61,1461.77 L305.131,1459.91 L305.626,1459.12 L306.025,1458.46 L307.511,1453.22 L310.703,1448.76 L312.057,1449.91 L313.411,1450.34 L317.515,1442.72 L318.389,1440.04 L319.021,1436.72 L320.416,1434.82 L320.842,1434.39 L326.832,1430.68 L329.692,1429.44 L336.257,1425.77 L338.991,1424.76 L343.332,1421.78 L348.221,1421.12 L347.587,1417.48 L348.829,1413.04 L353.488,1412.95 L354.958,1410.73 L355.336,1410.5 L356.824,1409.7 L363.262,1407.09 L366.761,1406.84 L380.743,1408.29 L383.088,1408.88 L385.421,1410.61 L388.186,1409.51 L392.91,1407.22 L395.709,1408.59 L397.446,1408.06 L401.199,1409.79 L405.313,1413.09 L405.666,1412.14 L407.457,1413.24 L407.379,1413.36 L409.799,1415.43 L415.553,1419.24 L419.408,1422.89 L420.115,1423.95 L422.067,1425.99 L422.582,1426.93 L422.343,1427.92 L421.826,1427.89 L420.936,1428.32 L417.987,1430.88 L415.786,1432.49 L415.041,1432.82 L416.27,1433.84 L417.213,1434.94 L419.156,1436.28 L421.036,1436.56 L422.007,1436.98 L424.133,1436.92 L425.975,1437.71 L430.143,1441.63 L425.845,1446.49 L422.934,1452.42 L422.983,1453.15 L427.646,1454.05 L432.824,1453.56 L434.809,1453.35 L435.296,1450.68 L441.867,1451.23 L449.279,1454.54 L451.576,1455.94 L454.035,1454.72 L456.568,1454.48 L458.842,1453.88 L460.096,1454.04 L461.471,1454.59 L463.254,1457.29 L465.004,1457.24 L467.291,1456.88 L471.18,1454.68 L473.51,1452.88 L476.316,1449.79 L479.618,1446.59 L479.785,1444.24 L479.626,1441.61 L480.598,1439.9 L484.381,1438.93 L485.086,1438.19 L485.947,1436.54 L487.429,1435.56 L488.241,1435.5 L491.166,1436.41 L493.179,1435.31 L495.391,1434.88 L497.712,1433.88 L499.524,1432.75 L503.608,1429 L505.745,1428.18 L507.567,1426.14 L508.606,1425.92 L511.43,1426.15 L512.32,1425.09 L513.355,1423.29 L515.107,1423.27 L519.958,1424.26 L527.774,1425.31 L529.105,1425.65 L532.122,1425.61 L532.642,1425.54 L530.67,1423 L534.578,1423.9 L537.054,1423.73 L540.081,1423.09 L541.095,1422.04 L543.452,1418.7 L544.711,1415.73 L544.75,1412.09 L544.431,1408.43 L544.517,1406.35 L544.032,1404.31 L544.568,1400.48 L544.608,1396.72 L541.666,1387.03 L539.872,1384.06 L538.594,1378.23 L537.487,1377.14 L535.428,1377.19 L535.293,1377.97 L534.085,1378.32 L532.792,1378.27 L531.623,1377.98 L528.957,1376.81 L527.502,1376.88 L524.882,1377.95 L522.282,1379.43 L520.169,1381.21 L518.663,1383.04 L515.055,1383.29 L514.934,1380.73 L513.874,1375.62 L513.286,1371.03 L511.567,1370.16 L508.957,1367.56 L506.009,1366.87 L506.595,1365.89 L506.43,1365.46 L509.986,1359.21 L510.854,1358.23 L512.581,1356.91 L511.462,1348.23 L511.285,1344.74 L512.604,1344.79 L513.59,1339.06 L513.378,1337.64 L512.022,1332.72 L511.306,1331.63 L510.854,1330.44 L509.467,1328.92 L509.227,1328.18 L509.894,1325.9 L511.128,1324.44 L511.26,1322.17 L513.615,1321.8 L513.509,1318.82 L513.765,1317.45 L514.191,1316.92 L512.994,1316.56 L512.125,1316.64 L512.038,1315.54 L512.425,1314.47 L512.285,1313.89 L509.531,1310.99 L508.248,1308.22 L506.448,1305.07 L505.167,1303.48 L503.76,1297.62 L500.773,1302.31 L498.86,1300.52 L497.313,1297.63 L497.351,1295.45 L496.681,1294.18 L496.178,1290.64 L496.849,1288.04 L497.492,1287.32 L498.748,1286.55 L498.941,1286.18 L499.517,1283.52 L500.219,1281.63 L500.899,1274.96 L501.531,1274.2 L501.279,1272.55 L501.682,1270.99 L503.403,1266.45 L507.194,1266.41 L507.982,1265.99 L510.019,1264.21 L511.959,1264.5 L512.56,1265.32 L515.493,1264.05 L517.612,1264.39 L519.013,1265 L522.413,1264.25 L524.149,1263.05 L528.533,1262.85 L534.588,1261.38 L540.174,1259.08 L544.024,1258 L545.492,1257.4 L549.343,1253.97 L551.743,1252.21 L558.339,1251.9 L563.07,1251.14 L567.459,1251.47 L574.189,1246.03 L571.66,1243.01 L571.286,1238.5 L569.108,1232.93 L567.447,1227.22 L565.368,1221.41 L562.64,1219.43 L563.376,1218.09 L563.426,1217.57 L562.801,1214.74 L562.851,1213.87 L563.345,1213 L563.991,1212.41 L564.922,1212 L565.558,1211.03 L567.05,1205.71 L567.891,1200.95 L567.604,1200.58 L566.049,1199.7 L565.442,1194.95 L563.935,1190.54 L563.381,1188.31 L563.114,1184.63 L561.052,1181.83 L560.533,1180.49 L557.315,1175.18 L555.561,1172.99 L554.725,1172.31 L555.555,1171.83 L557.212,1170.34 L557.942,1169.03 L558.211,1167.33 L558.919,1165.94 L561.035,1164.62 L566.504,1160.64 L568.767,1155.81 L571.183,1149.37 L573.558,1135.45 L573.76,1125.19 L575.178,1122 L575.924,1119.59 L581.091,1114.06 L586.715,1110.76 L594.838,1108.19 L601.221,1102.72 L607.311,1095.69 L612.916,1088.56 L617.203,1084.87 L619.49,1079.76 L623.239,1074.61 L627.405,1064.03 L620.263,1051.3 L620.079,1048.1 L616.591,1038.11 L612.677,1028.57 L611.571,1024.55 L611.224,1022.32 L611.12,1019.72 L611.588,1013.04 L611.011,1008.63 L610.188,1004.89 L609.805,1002.07 L609.786,996.846 L609.367,991.757 L609.427,985.217 L608.848,982.084 L607.916,978.787 L602.543,974.528 L600.23,973.005 L594.553,968.427 L594.877,967.697 L598.167,963.009 L601.313,959.86 L603.159,960.273 L606.528,961.836 L610.435,962.997 L611.657,963.249 L615.153,963.085 L615.276,958.784 L615.087,952.954 L615.729,940.495 L615.814,932.481 L616.588,923.258 L614.763,914.953 L618.756,901.985 L622.6,893.725 L624.499,892.824 L626.211,892.411 L629.027,891.213 L632.694,890.451 L635.381,889.986 L639.71,890.21 L643.772,886.269 L646.304,882.926 L646.156,872.579 L653.154,867.87 L653.918,864.448 L654.429,859.64 L661.187,860.38 L663.472,860.402 L666.103,859.896 L669.351,857.428 L669.899,857.211 L674.439,858.693 L676.646,859.707 L679.326,861.29 L682.237,863.629 L681.221,864.681 L681.717,866.278 L683.608,868.264 L684.778,869.046 L687.209,869.84 L689.221,873.437 L691.729,876.885 L696.502,882.323 L695.188,887.718 L696.432,887.747 L697.851,887.368 L699.981,887.56 L701.778,886.944 L705.963,887.644 L707.225,887.139 L708.738,886.85 L710.677,886.697 L712.304,886.831 L715.665,886.344 L720.268,882.93 L720.797,883.155 L722.125,882.374 L725.215,878.476 L726.612,877.812 L727.803,875.983 L730.266,873.724 L733.74,873.174 L736.358,872.491 L737.691,873.919 L739.428,874.47 L742.174,874.522 L743.423,874.027 L744.405,873.939 L749.848,874.198 L752.742,875.748 L756.468,878.196 L757.941,878.349 L759.193,877.956 L760.231,877.888 L763.294,879.332 L763.583,878.923 L765.77,877.716 L767.811,878.647 L769.638,879.783 L771.143,876.638 L774.304,875.521 L775.769,872.782 L777.06,871.769 L778.239,872.069 L779.845,872.128 L783.561,871.681 L786.538,869.91 L789.972,868.869 L799.91,862.922 L801.542,862.241 L803.387,861.762 L803.664,859.465 L803.559,857.776 L802.959,856.33 L801.263,853.76 L801.368,851.768 L802.019,849.851 L803.039,847.94 L803.766,847.262 L806.167,845.952 L809.411,841.274 L811.19,837.64 L812.289,833.979 L813.042,827.419 L813.358,821.907 L814.344,817.169 L818.487,817.078 L820.956,815.644 L824.391,812.674 L826.378,812.872 L829.455,812.338 L837.358,809.794 L845.31,809.684 L849.272,810.143 L854.05,810.382 L860.219,810.33 L865.286,810.014 L867.848,810.35 L873.071,810.2 L875.98,806.035 L888.629,804.865 L890.737,804.161 L895.656,795.264 L900.107,786.366 L905.026,778.169 L905.962,774.89 L904.323,771.142 L905.026,763.178 L905.495,761.538 L906.036,757.189 L904.538,756.878 L902.514,755.915 L902.618,754.602 L903.125,753.691 L902.886,753.484 L902.203,753.431 L901.102,752.368 L900.286,749.253 L899.143,747.669 L898.281,745.845 L896.058,739.495 L893.008,735.479 L892.364,732.749 L892.553,732.18 L893.511,731.095 L893.26,728.966 L891.314,725.941 L890.867,724.486 L890.12,723.735 L889.765,722.566 L890.054,721.551 L890.347,721.27 L890.125,719.201 L890.692,717.281 L889.725,715.392 L887.745,713.77 L890.673,713.34 L891.778,712.229 L896.136,709.061 L899.377,707.174 L900.137,704.523 L902.713,697.688 L903.349,695.067 L906.641,691.637 L908.701,687.766 L911.187,684.346 L914.052,679.287 L915.648,677.037 L917.986,674.526 L918.632,670.775 L921.185,665.899 L921.392,662.877 L920.587,660.567 L919.623,654.059 L920.359,652.21 L918.856,650.276 L918.465,649.144 L918.377,643.1 L917.652,641.284 L917.187,639.449 L915.335,636.492 L919.036,635.018 L920.076,635.002 L923.462,634.142 L929.922,625.304 L932.838,625.168 L939.28,621.698 L940.746,619.944 L942.322,618.884 L949.73,617.189 L960.424,611.257 L962.626,614.629 L965.218,611.893 L965.894,611.498 L966.875,611.273 L967.661,610.519 L968.365,610.478 L969.381,609.874 L970.792,609.672 L973.944,608.631 L974.66,608.563 L975.962,608.912 L976.723,608.752 L984.846,604.393 L988.991,600.64 L989.218,599.638 L988.305,593.084 L986.196,590.592 L990.888,585.225 L993.688,583.425 L994.172,582.833 L998.534,582.464 L999.448,582.974 L1001.96,581.732 L1002.25,581.671 L1002.69,581.935 L1002.69,581.561 L1003.19,581.337 L1004,581.314 L1004.43,581.02 L1005.88,581.068 L1006.3,580.517 L1006.9,581.063 L1007.46,580.986 L1007.86,580.439 L1008.67,580.81 L1009.76,580.522 L1010.61,579.765 L1011.02,580.076 L1011.19,579.802 L1011.57,579.942 L1013.54,579.271 L1014.78,579.451 L1015.72,580.02 L1015.98,579.886 L1015.9,579.333 L1016.65,579.16 L1017.14,579.885 L1018.03,579.651 L1018.23,579.125 L1018.76,578.824 L1019.06,578.92 L1020.15,578.514 L1019.71,577.165 L1018.33,575.346 L1018.24,574.786 L1018.45,574.328 L1018.74,574.119 L1020.16,574.288 L1020.64,574.049 L1020.76,573.69 L1020.49,572.835 L1020.54,572.358 L1020.85,571.99 L1022.42,571.207 L1023.46,569.758 L1024.36,567.923 L1024.86,567.398 L1027.91,566.972 L1030.35,565.959 L1031.91,564.843 L1033.65,561.581 L1033.41,561.003 L1032.35,560.403 L1031.77,559.763 L1031.56,559.053 L1031.65,558.147 L1031.9,557.746 L1033.08,557.018 L1033.52,555.998 L1033.81,556.057 L1034.16,556.654 L1034.35,556.26 L1034.73,556.317 L1040.1,554.51 L1042.35,551.681 L1044.77,549.381 L1045.46,549.026 L1049.61,548.115 L1052.08,545.194 L1054.79,540.775 L1056.76,536.289 L1056.14,534.588 L1055.81,532.54 L1056.3,530.852 L1057.42,529.475 L1058.37,527.901 L1059.69,526.655 L1060.43,525.567 L1062.25,522.763 L1063.06,520.828 L1065.18,519.222 L1067.03,519.086 L1071.85,513.858 L1076.27,510.302 L1077.81,509.436 L1079.7,507.907 L1080.54,508.293 L1083.34,505.82 L1083.46,503.697 L1083.32,501.883 L1082.78,499.627 L1082.72,497.444 L1082.44,497.098 L1082.69,496.657 L1081.52,493.324 L1079.89,490.403 L1078.27,488.525 L1074.6,486.19 L1070.03,486.2 L1056.17,478.815 L1058.05,463.12 L1059.45,461.257 L1061.15,459.6 L1061.5,458.96 L1063.04,454.068 L1064.2,452.039 L1064.23,450.776 L1064.18,449.653 L1063.88,448.8 L1063.9,446.931 L1063.12,444.704 L1062.5,441.763 L1056.95,435.462 L1057.42,433.177 L1056.81,429.875 L1054.93,427.484 L1054.22,422.269 L1055.6,416.136 L1055.17,409.316 L1055.58,407.685 L1057.02,406.252 L1058.57,404.068 L1059.15,402.474 L1060.91,402.5 L1064.29,397.587 L1065.34,395.704 L1065.62,394.112 L1066.09,393.052 L1066.01,391.029 L1066.18,389.764 L1071.13,377.685 L1070.6,373.11 L1070.18,371.158 L1069.18,366.99 L1068.36,365.543 L1067.76,362.984 L1067.96,360.708 L1068.86,357.053 L1069.15,353.843 L1068.67,351.248 L1067.7,348.693 L1067.08,344.798 L1067.04,343.343 L1067.65,343.16 L1067.96,342.443 L1067.42,341.664 L1064.59,340.491 L1063.82,339.641 L1064.08,338.806 L1065.3,338.139 L1065.72,336.143 L1066.15,335.39 L1068.33,334.132 L1070.1,331.388 L1071.01,331.032 L1071.82,331.314 L1072.52,332.079 L1073.51,334.043 L1074.09,335.685 L1074.35,337.58 L1074.15,338.364 L1073.68,338.908 L1072.83,339.36 L1071.55,339.6 L1071.06,339.965 L1070.76,341.431 L1071.28,342.987 L1072.43,343.859 L1074.74,344.747 L1076.36,345.023 L1078.7,345.024 L1079.45,345.231 L1080.45,345.981 L1081.32,347.266 L1081.71,348.412 L1081.17,349.768 L1080.21,349.992 L1077.99,349.658 L1076.28,349.927 L1075.29,350.256 L1074.66,351.333 L1075.04,351.905 L1078.24,353.572 L1079.26,354.544 L1079.96,355.827 L1080.22,356.887 L1080.26,358.65 L1079.99,359.876 L1080.31,360.584 L1080.88,361.226 L1081.78,361.87 L1082.58,362.139 L1084.66,361.629 L1085.14,361.741 L1093.05,365.001 L1096.02,363.596 L1096.91,363.655 L1097.16,363.972 L1096.95,365.925 L1097.28,367.292 L1098.52,369.077 L1099.31,369.48 L1100.48,368.252 L1100.68,366.068 L1101.64,364.145 L1102.46,361.661 L1102.12,359.505 L1100.63,357.346 L1100.71,356.146 L1101.08,355.63 L1101.59,355.361 L1102.34,355.238 L1103.47,355.407 L1104.71,356.19 L1106.27,357.86 L1108.82,361.613 L1109.06,363.165 L1108.54,366.084 L1108.59,366.978 L1110.24,369.867 L1110.55,370.161 L1111.08,370.241 L1111.97,369.518 L1112.29,368.293 L1112.13,367.626 L1110.58,364.497 L1110.94,361.161 L1111.85,360.043 L1112.53,359.776 L1113.44,359.966 L1116.91,362.555 L1118.56,363.347 L1119.78,363.575 L1120.28,363.411 L1120.62,363.028 L1120.4,358.644 L1119.96,358.027 L1118.64,357.12 L1118.15,355.901 L1118.55,354.725 L1120.3,351.903 L1120.36,351.448 L1119.75,350.916 L1119.07,350.88 L1117.01,353.386 L1116.15,353.709 L1115.33,353.65 L1114.88,353.037 L1114.69,351.301 L1114.26,349.73 L1114.21,348.414 L1114.58,347.841 L1115.8,347.457 L1119.77,347.698 L1120.81,347.516 L1121.32,346.957 L1121.62,345.424 L1121.36,344.339 L1120.83,344.006 L1118.1,344.205 L1114.37,344.106 L1113.6,344.032 L1113.37,343.81 L1113.27,343.122 L1113.61,342.159 L1114.76,340.792 L1116.29,339.526 L1116.57,338.647 L1114.28,335.171 L1114.16,334.649 L1116,331.859 L1116.19,331.021 L1115.79,330.6 L1113.22,329.426 L1112.82,328.805 L1112.89,327.889 L1113.9,326.636 L1116.53,324.45 L1117.59,323.224 L1118.36,322.756 L1118.82,322.725 L1119.85,323.887 L1121.79,325.013 L1122.44,325.769 L1123.12,327.477 L1122.76,329.953 L1122.92,331.884 L1123.27,332.471 L1124.44,332.654 L1125.04,332.153 L1125.59,330.699 L1127.73,328.395 L1129.39,325.874 L1130.2,325.385 L1131.19,325.409 L1131.58,326.378 L1131.54,327.412 L1132.39,329.292 L1132.31,330.328 L1131.8,332.217 L1131.79,333.245 L1132.65,334.694 L1134.78,336.425 L1134.87,336.671 L1134.59,337.012 L1133.45,336.848 L1133.21,337.058 L1133.16,337.654 L1134.2,340.228 L1135.11,340.755 L1135.31,341.138 L1135.16,341.721 L1133.41,344.493 L1132.79,346.076 L1132.47,348.732 L1133,349.682 L1135.4,350.886 L1136.68,352.016 L1137.05,352.677 L1137.39,354.834 L1137.88,356.263 L1136.23,358.275 L1136.53,359.108 L1137.13,359.667 L1138.13,360.184 L1139.3,360.348 L1140.23,360.252 L1140.98,359.643 L1141.45,358.77 L1140.67,355.879 L1141.02,352.682 L1140.57,350.496 L1140.74,349.666 L1141.49,349.286 L1143.2,349.738 L1145.01,349.165 L1145.2,349.396 L1144.97,349.665 L1143.07,350.664 L1142.81,351.266 L1145.54,351.754 L1147.77,352.907 L1148.69,352.937 L1149.13,352.757 L1149.91,351.729 L1149.94,350.684 L1149.32,349.777 L1147.47,348.595 L1145.2,347.632 L1147.56,345.896 L1148.53,346.432 L1149.92,348.356 L1150.88,347.664 L1151.55,346.676 L1151.62,345.544 L1150.94,343.821 L1150.96,343.157 L1151.35,342.664 L1153.11,341.501 L1154.45,340.262 L1154.79,339.666 L1154.9,338.895 L1154.67,337.989 L1154.36,337.594 L1152.06,335.934 L1151.73,335.064 L1151.8,333.377 L1152.55,332.036 L1155.21,329.988 L1156.02,328.796 L1156.3,328.762 L1157.2,329.747 L1157.53,330.72 L1155.72,332.821 L1155.86,335.481 L1156.7,336.327 L1159.69,338.091 L1160.73,337.446 L1162.24,335.045 L1162.58,334.825 L1163.57,335.067 L1165.46,336.107 L1166.87,336.126 L1167.48,336.975 L1168.17,337.231 L1169.89,336.57 L1175.05,333.587 L1175.33,333.655 L1175.61,334.074 L1175.79,335.57 L1176.18,336.243 L1176.65,336.541 L1177.51,336.372 L1177.97,335.998 L1178.06,335.522 L1176.61,332.611 L1177.07,331.062 L1176.32,329.333 L1176.53,328.526 L1177.39,328.049 L1178.04,328.288 L1178.86,329.268 L1179.53,330.689 L1180,330.884 L1180.56,330.633 L1182.32,328.553 L1182.76,327.728 L1183.07,327.607 L1184.75,328.809 L1186.4,329.532 L1187.7,329.619 L1189.45,329.228 L1190.32,327.619 L1191.44,326.693 L1192.23,325.276 L1193.33,324.361 L1193.64,323.776 L1193.71,322.785 L1193.25,320.61 L1194.45,319.91 L1194.81,318.78 L1194.65,317.896 L1193.88,316.804 L1193.98,314.836 L1195.62,313.217 L1196.13,312.038 L1197.75,311.583 L1198.67,309.249 L1199.06,308.735 L1200.02,308.669 L1201.36,309.934 L1201.75,310.054 L1202.2,309.864 L1202.65,308.999 L1203.09,308.741 L1204.72,309.186 L1207.54,308.373 L1208.92,308.539 L1211.82,308.221 L1213.63,308.326 L1214.74,308.864 L1215.12,308.862 L1216.19,307.574 L1217.45,307.001 L1217.66,305.921 L1218.7,303.939 L1219.12,302.36 L1218.94,301.277 L1219.54,298.879 L1219.95,298.185 L1223.11,297.293 L1224.3,297.89 L1228.24,297.076 L1228.93,296.823 L1229.99,295.896 L1231.32,295.446 L1232.4,294.395 L1232.65,293.975 L1232.41,293.653 L1231.79,291.182 L1231.64,289.3 L1232.17,285.107 L1231.22,279.805 L1234.87,274.784 L1233.39,269.034 L1233.62,266.954 L1231.95,263.596 L1232.04,259.533 L1237.42,250.83 L1235.69,247.438 L1234.74,246.061 L1234.53,244.92 L1234.61,243.946 L1233.18,237.614 L1237.38,233.027 L1240.04,233.219 L1243.81,229.697 L1246.08,226.301 L1253.98,215.725 L1255.18,215.195 L1258.13,214.98 L1264.03,214.133 L1265.8,215.23 L1270.59,216.548 L1271.14,218.475 L1273.99,219.414 L1275.25,218.351 L1275.31,217.075 L1275.71,216.496 L1277.22,215.575 L1278.39,215.844 L1278.93,215.443 L1279.66,214.28 L1279.42,212.885 L1279.65,212.523 L1280.44,212.191 L1281.81,212.047 L1283.19,210.999 L1283.97,210.666 L1286.49,210.347 L1287.45,210.694 L1287.85,211.586 L1289.25,213.019 L1292.87,210.321 L1293.04,210.031 L1293.05,208.43 L1293.95,207.888 L1295.01,205.963 L1296.18,205.273 L1298.71,205.103 L1299.84,204.706 L1301.47,205.313 L1302.55,204.697 L1303.87,202.887 L1304.76,202.46 L1305.46,202.651 L1307.01,204.357 L1307.42,204.449 L1309.97,200.151 L1311.87,199.659 L1312.55,200.938 L1314.12,202.394 L1315.66,201.324 L1316.69,201.043 L1317.39,201.069 L1319.19,202.747 L1321.55,203.321 L1322.85,204.191 L1323.53,204.363 L1323.61,202.239 L1322.43,200.333 L1329.4,195.367 L1331.49,192.432 L1331.91,192.27 L1333.24,192.353 L1333.99,192.006 L1334.48,191.375 L1336.21,190.877 L1339.24,191.232 L1345.39,192.403 L1345.66,192.3 L1345.9,191.621 L1346.62,191.185 L1346.71,190.814 L1347.14,190.544 L1347.35,190.121 L1350.65,187.2 L1352.29,181.413 L1356.32,177.204 L1357.26,176.856 L1359.58,174.698 L1362.29,174.755 L1364.2,174.347 L1364.64,173.709 L1368.72,170.455 L1368.89,169.855 L1369.77,169.461 L1370.3,168.978 L1371.19,168.77 L1373.78,169.163 L1375.16,169.486 L1376.32,170.073 L1378.05,170.254 L1379.22,171.353 L1381.21,172.69 L1382.02,173.731 L1383.03,174.119 L1384.44,174.226 L1386.1,173.713 L1388.15,171.963 L1388.89,171.664 L1390.71,172.575 L1392.13,172.632 L1395.42,170.963 L1400.19,169.528 L1405.87,164.822 L1408.35,163.82 L1412.5,165.045 L1413.45,165.848 L1416.92,166.034 L1418.6,165.915 L1419.79,166.396 L1421.42,166.203 L1423.97,166.846 L1424.67,167.394 L1425.37,167.482 L1425.87,167.835 L1427.39,168.305 L1427.6,168.654 L1427.9,168.632 L1427.97,168.977 L1428.55,169.613 L1429.11,171.634 L1429.79,172.581 L1430.56,173.021 L1430.87,173.901 L1433.17,174.716 L1435.57,176.385 L1436.22,176.565 L1437.8,177.936 L1440.9,179.29 L1442.14,179.534 L1443.45,179.218 L1445.03,178.631 L1445.74,178.054 L1447.77,177.607 L1451.44,175.562 L1454.04,174.932 L1455.51,175.412 L1456.8,176.47 L1457.28,177.424 L1457.72,177.699 L1457.68,178.196 L1458.07,178.402 L1458.92,178.223 L1461.51,178.544 L1462.48,179.366 L1463.77,178.83 L1465.64,179.205 L1466.69,178.963 L1468.94,179.782 L1470.09,180.684 L1471.68,188.026 L1472.04,190.855 L1472.85,192.022 L1472.77,192.489 L1471.94,193.935 L1469.15,196.948 L1468.68,197.78 L1468.44,197.834 L1468.48,198.107 L1466.93,201.224 L1465.91,202.009 L1464.87,203.908 L1463.76,207.012 L1463.88,207.791 L1464.48,208.565 L1464.34,209.721 L1463.64,211.105 L1463.02,211.46 L1462.55,212.423 L1462.56,213.057 L1462.2,213.113 L1462.05,214.515 L1462.39,216.641 L1462.16,217.36 L1461.43,218.216 L1461.04,219.087 L1460.86,220.837 L1463.4,225.801 L1464.45,229.093 L1468.08,248.495 L1470.86,248.349 L1471.62,251.916 L1472.2,256.828 L1473.29,261.717 L1474.42,262.712 L1475.43,264.859 L1476.94,267.147 L1477.38,268.009 L1477.37,268.421 L1478.03,268.861 L1479.45,270.871 L1479.49,271.108 L1478.69,272.333 L1479,272.822 L1481.19,275.045 L1481.91,276.065 L1482.87,276.425 L1483.64,277.39 L1487.71,278.453 L1488.97,278.51 L1489.36,279.919 L1490.74,282.329 L1490.89,283.322 L1491.33,284.13 L1492.53,284.216 L1494.49,283.294 L1495.85,283.493 L1496.25,282.771 L1497.33,281.991 L1499.7,281.536 L1501.28,280.818 L1503.53,279.21 L1503.85,279.441 L1505.55,279.517 L1505.74,279.693 L1506.66,279.075 L1506.95,278.66 L1507.39,278.681 L1507.82,279.081 L1509.14,279.172 L1509.88,279.721 L1510.28,279.789 L1513.19,279.312 L1513.65,280.482 L1515.39,280.203 L1515.81,280.478 L1516.61,280.616 L1517.27,281.247 L1521.97,281.169 L1522.46,281.396 L1523.32,282.816 L1523.29,283.057 L1523.7,283.435 L1524.39,283.382 L1524.54,283.062 L1525.03,282.955 L1526.32,282.146 L1527.6,282.044 L1529.24,282.282 L1529.57,281.712 L1529.66,281.028 L1529.33,280.653 L1530,280.891 L1530.07,281.188 L1531.41,282.546 L1532.56,283.269 L1532.97,283.796 L1533.34,283.845 L1533.91,284.54 L1534.59,286.003 L1535.01,286.264 L1535.39,286.912 L1536.2,287.273 L1536.65,288.058 L1538.12,287.906 L1541.68,282.814 L1547.26,273.634 L1553.11,255.498 L1553.2,254.088 L1554.13,253.009 L1554.35,252.453 L1554.22,251.334 L1554.51,249.621 L1555.33,249.277 L1555.55,248.872 L1556.06,248.797 L1557.18,245.664 L1557.9,245.462 L1558.29,244.558 L1558.11,242.783 L1558.35,242.001 L1557.79,241.052 L1558.13,239.921 L1558.56,239.215 L1559.52,238.868 L1559.68,238.395 L1560.53,238.234 L1560.8,238.075 L1560.83,237.797 L1561.44,237.527 L1561.33,236.996 L1561.71,236.866 L1561.93,236.381 L1561.93,235.563 L1561.55,234.567 L1561.9,233.818 L1562.31,233.512 L1563.27,231.417 L1563.16,230.64 L1562.33,229.903 L1561.72,228.981 L1561.18,227.268 L1560.47,226.289 L1559.78,223.93 L1559.07,222.372 L1555.78,222.561 L1554.62,221.986 L1554.11,221.488 L1554.01,220.581 L1552.95,218.758 L1552.81,216.46 L1552.22,215.126 L1563.53,209.531 L1567.57,208.556 L1570.12,207.685 L1575.87,207.907 L1581.24,206.823 L1585.08,207.635 L1587.33,208.348 L1593.54,202.398 L1596.89,204.178 L1602.03,204.739 L1613.3,205.051 L1623.06,203.364 L1628.81,204.71 L1634.4,204.59 L1634.32,204.968 L1637.06,207.492 L1637.4,209.314 L1638.68,211.383 L1638.23,211.962 L1638.18,212.487 L1639.42,214.519 L1641.2,216.02 L1642.12,215.88 L1643.67,216.225 L1644.51,216.829 L1644.93,218.19 L1644.71,219.875 L1647.49,222.031 L1647.41,223.205 L1647.63,224.184 L1647.85,224.328 L1648.28,224.087 L1648.7,224.124 L1649.33,224.528 L1650.42,225.805 L1652.97,227.273 L1653.2,227.957 L1653.11,229.106 L1653.25,229.542 L1654.38,228.414 L1657.2,228.414 L1658.27,227.955 L1659.58,227.89 L1659.93,227.585 L1660.25,227.639 L1660.69,226.215 L1661.06,225.864 L1661.95,225.971 L1662.7,225.374 L1662.87,224.865 L1664.76,224.676 L1665.13,224.181 L1667.06,224.395 L1666.99,226.485 L1667.49,228.324 L1668.03,228.567 L1668.28,229.359 L1668.85,229.771 L1668.96,230.384 L1669.35,230.705 L1669.58,231.298 L1670.63,232.275 L1670.73,232.631 L1671.13,232.806 L1671.76,233.814 L1672.87,234.587 L1673.15,235.35 L1674.02,235.429 L1674.27,235.661 L1674.41,236.364 L1675.62,236.599 L1675.88,237.434 L1676.3,237.627 L1677.04,237.286 L1678.05,237.883 L1679.49,238.05 L1680.05,238.375 L1680.33,238.84 L1681.22,239.362 L1682.38,239.587 L1683.46,240.53 L1683.92,241.702 L1684.69,241.846 L1685.29,242.221 L1686.34,243.318 L1686.91,243.244 L1687.42,242.91 L1687.57,243.226 L1688.93,243.898 L1689.82,244.717 L1691.8,245.329 L1692.75,245.385 L1693.24,245.728 L1693.72,245.756 L1694.01,246.111 L1694.83,246.305 L1695.41,246.793 L1697.24,246.861 L1697.78,246.448 L1698.7,246.713 L1699.23,246.406 L1701.36,246.832 L1702.06,246.453 L1702.45,246.891 L1703.08,246.807 L1704.38,247.105 L1706.24,246.752 L1706.8,246.891 L1707.97,247.584 L1708.98,248.735 L1710.53,249.616 L1712.8,249.729 L1713.89,250.203 L1714.55,250.914 L1715.98,250.818 L1717.64,251.302 L1728.32,256.086 L1734.56,255.52 L1742.24,255.363 L1744.09,255.127 L1753.14,250.984 L1758.76,244.511 L1763.53,242.874 L1767.29,245.959 L1768.09,245.795 L1768.95,245.93 L1769.68,245.73 L1770.12,246.069 L1770.86,246.213 L1772.18,246.029 L1772.3,246.461 L1773.45,247.103 L1774.64,248.792 L1775.78,249.241 L1776.63,250.447 L1777.65,250.989 L1777.69,251.321 L1777.33,251.637 L1777.41,252.073 L1777.99,252.91 L1778.14,253.683 L1778.55,253.891 L1777.88,255.344 L1777.9,256.5 L1779.13,256.591 L1780.94,256.195 L1781.53,256.312 L1782.34,257.06 L1783.04,257.215 L1783.85,257.926 L1786.33,260.316 L1786.75,261.038 L1788.12,262.526 L1788.63,262.714 L1789.91,263.831 L1790.93,265.404 L1792.91,267.145 L1794.09,268.599 L1794.88,268.824 L1796.08,270.187 L1797.92,271.575 L1798.5,273.694 L1801.9,278.48 L1806.12,281.832 L1807.48,298.228 L1811.98,314.756 L1812.34,322.1 L1811.91,322.816 L1812.09,324.182 L1812.29,324.324 L1812.83,326.384 L1811.95,329.338 L1811.11,330.272 L1810.84,330.968 L1810.49,331.058 L1810.08,331.571 L1810.19,332.414 L1809.84,333.451 L1808.06,334.036 L1807.03,334.017 L1806.68,335.069 L1806.33,335.214 L1806.03,336.528 L1805.5,337.096 L1805.42,338.153 L1805.23,337.999 L1804.98,338.159 L1804.09,339.834 L1804.2,340.481 L1803.52,342.326 L1803.65,344.116 L1804.06,345.074 L1803.8,345.384 L1804.61,348.743 L1804.86,348.941 L1805.32,350.078 L1806.16,350.864 L1805.93,351.341 L1806.47,352.92 L1807.77,353.756 L1808.8,355.23 L1808.61,355.723 L1806.15,358.842 L1805.93,359.937 L1804.06,361.304 L1803.42,364.702 L1802.91,366 L1802.39,366.677 L1802.74,368.018 L1802.49,369.375 L1802.77,370.481 L1803.55,371.994 L1803.7,373.234 L1804.34,373.893 L1804.37,374.72 L1804.63,375.137 L1805.04,375.268 L1805.54,376.68 L1805.52,377.024 L1804.92,377.288 L1804.55,378.022 L1804.43,379.135 L1804.79,379.637 L1804.56,380.154 L1805.12,382.97 L1805.36,383.855 L1805.63,384.025 L1804.71,384.668 L1803.73,385.983 L1803.76,386.533 L1802.58,387.033 L1801.82,388.064 L1800.41,393.22 L1800.42,394.237 L1803.16,400.011 L1806.07,401.788 L1807.47,403.017 L1806.88,403.314 L1806.77,404.41 L1806.17,406.077 L1806.28,406.465 L1805.68,407.139 L1802.24,407.142 L1799,408.372 L1798.38,408.236 L1796.6,408.696 L1795.81,408.708 L1795.51,409.129 L1794.53,409.371 L1793.68,409.85 L1792.05,411.632 L1791.59,411.858 L1789.51,413.811 L1789.07,413.982 L1788.66,414.607 L1786.01,416.947 L1784,418.393 L1783.24,420.041 L1782.67,420.498 L1781.64,422.266 L1779.66,423.74 L1778.95,424.825 L1778.69,426.168 L1778.88,430.492 L1778.19,433.056 L1777.74,433.736 L1777.14,435.435 L1777.12,436.138 L1777.86,437.423 L1778.12,437.469 L1778.24,438.5 L1777.85,439.064 L1777.87,439.407 L1777.51,439.675 L1777.31,441.185 L1777.4,441.971 L1777.64,442.222 L1777.53,442.964 L1777.7,443.365 L1777.74,444.851 L1777.97,445.131 L1777.59,445.949 L1777.84,446.641 L1777.46,447.513 L1776.93,450.169 L1776.92,452.584 L1775.89,453.044 L1775.64,454.935 L1776.4,459.113 L1777.33,460.911 L1777.88,462.791 L1778.65,462.977 L1778.81,467.749 L1777.69,468.124 L1776.46,468.862 L1775.09,468.279 L1773.98,468.397 L1773.38,467.904 L1772.18,467.881 L1770.85,468.295 L1770.18,469.374 L1769.31,470.036 L1768.53,471.615 L1767.29,472.286 L1766.87,472.27 L1766.84,472.579 L1766.55,472.697 L1766.35,473.148 L1765.9,473.173 L1765.53,473.503 L1764.5,475.028 L1763.76,475.613 L1763.51,476.177 L1763.68,477.658 L1763.14,477.723 L1762.19,478.544 L1761.48,478.366 L1760.65,478.569 L1758.95,479.986 L1758.96,480.712 L1759.86,482.325 L1760.61,482.768 L1761.08,483.428 L1761.28,484.215 L1762.05,484.739 L1762.36,485.694 L1763.18,486.904 L1764.66,488.102 L1764.81,488.724 L1765.88,489.887 L1766.03,490.364 L1766.84,491.172 L1766.91,491.503 L1768.39,492.576 L1767.35,493.315 L1766.51,494.618 L1766.29,496.365 L1765.9,497.6 L1765.9,498.828 L1765.09,501.182 L1763.46,503.345 L1762.7,503.939 L1762.52,504.305 L1761.85,504.714 L1761.74,505.361 L1761.01,506.418 L1761.29,506.887 L1761.52,506.943 L1761.35,507.311 L1761.85,509.597 L1761.51,511.129 L1761.58,512.417 L1761.34,513.166 L1761.5,513.539 L1761.12,514.305 L1760.96,515.269 L1761.25,515.629 L1761.32,516.234 L1762.13,517.039 L1762.38,517.573 L1762.04,519.749 L1761.71,520.072 L1761.28,521.475 L1760.66,521.999 L1760.01,521.915 L1759.38,522.212 L1758.96,522.06 L1758.53,522.565 L1757.66,522.612 L1757.31,522.388 L1756.24,522.244 L1754.39,523.306 L1754.24,523.624 L1753.73,523.727 L1752.91,525.083 L1752.37,526.464 L1751.23,526.38 L1750.95,526.076 L1750.56,526.522 L1747.92,526.339 L1747.42,527.822 L1745.78,530.463 L1744.66,533.129 L1744.33,536.028 L1744.56,539.224 L1743.94,542.019 L1741.67,542.688 L1739.58,543.992 L1733.02,545.892 L1732.4,546.734 L1731.45,548.822 L1730.05,549.934 L1725.64,551.206 L1721.5,551.804 L1723.27,555.028 L1725.12,559.411 L1722.38,560.136 L1720.58,561.021 L1718.48,562.809 L1717.74,562.741 L1716.37,563.263 L1714.47,564.469 L1712.1,565.298 L1710.95,566.687 L1709.99,567.034 L1709.63,568.705 L1709.85,570.622 L1707.36,572.731 L1704.52,573.505 L1702.29,574.659 L1701.27,576.14 L1700,576.75 L1698.95,576.485 L1696.66,576.876 L1693.66,577.743 L1692.03,578.96 L1691.61,580.177 L1688.57,583.254 L1687.4,584.945 L1684.48,586.731 L1684.68,587.993 L1684.48,588.586 L1683.29,589.569 L1682.65,591.1 L1682.8,592.333 L1682.66,594.222 L1679.96,599.238 L1681.29,603.409 L1681.65,604.009 L1681.14,605.828 L1682.19,610.552 L1691.38,625.232 L1694.31,629.477 L1698.58,636.574 L1702.85,642.872 L1705.17,645.548 L1713.97,660.212 L1716.95,663.469 L1724.44,676.292 L1739.72,680.777 L1776.44,690.926 L1814,701.806 L1830.1,705.972 L1845.99,710.511 L1845.89,708.887 L1848.92,702.626 L1848.91,699.845 L1849.23,698.52 L1851.2,693.071 L1852.25,691.108 L1853.12,690.093 L1853.07,687.087 L1853.51,684.949 L1853.65,683.123 L1854.7,679.846 L1854.62,678.571 L1855.36,677.21 L1855.81,674.63 L1857.25,670.799 L1857.33,669.548 L1858.09,668.482 L1859.09,665.758 L1860.14,663.762 L1860.78,663.023 L1861.2,660.873 L1858.03,656.975 L1858.26,653.76 L1858.93,649.096 L1860.21,645.802 L1859.88,641.904 L1860.1,640.283 L1859.82,637.778 L1859.96,634.02 L1859.41,625.071 L1862.6,619.99 L1863.01,617.677 L1862.62,614.612 L1863.06,612.57 L1864.99,609.95 L1861.28,604.547 L1858.96,599.205 L1858.24,595.294 L1856.81,592.107 L1857.05,590.218 L1858.59,584.541 L1863.33,580.302 L1865.85,576.034 L1867.08,573.253 L1867.65,572.402 L1868.37,571.831 L1869.91,571.342 L1872.14,570.295 L1873.58,568.884 L1874.19,566.264 L1874.34,562.832 L1875.19,560.44 L1875.93,559.003 L1880.97,557.818 L1885.13,554.387 L1886.39,553.772 L1887.61,552.703 L1888.39,552.551 L1888.76,552.04 L1889.29,551.773 L1889.73,550.747 L1891.58,549.699 L1894.73,549.029 L1896.83,549.139 L1899.66,548.427 L1901.49,548.875 L1903.27,548.371 L1904.7,548.602 L1909.26,546.244 L1912.71,545.131 L1915.67,544.444 L1918.46,545.153 L1925.9,543.525 L1927.06,543.716 L1929.33,543.185 L1930.21,543.382 L1931.55,544.357 L1932.25,544.395 L1935.06,543.712 L1937.6,542.601 L1939.42,542.761 L1940.12,541.981 L1940.24,541.195 L1941.24,540.605 L1942.57,540.656 L1943.65,540.414 L1944.65,540.634 L1945.86,540.573 L1948.1,539.211 L1949.86,538.923 L1950.7,538.295 L1951.48,538.705 L1951.69,539.122 L1952.07,539.335 L1952.59,538.884 L1957.94,538.512 L1962.5,539.043 L1962.74,539.129 L1962.18,540.731 L1962.05,541.887 L1961.82,542.163 L1959.23,543.147 L1958.65,543.587 L1957.87,545.668 L1957.17,546.705 L1956.98,547.781 L1954.3,548.758 L1953.23,549.342 L1951.49,551.203 L1950.42,551.874 L1950.36,552.166 L1950.63,552.706 L1950.45,553.15 L1947.91,554.181 L1945.14,557.226 L1945.31,559.595 L1943.2,560.71 L1941.44,561.969 L1940.92,562.96 L1940.27,565.524 L1936.58,565.962 L1936.3,566.158 L1935.73,568.069 L1935.11,569.126 L1935.38,570.755 L1933.8,571.691 L1933.25,572.453 L1931.34,573.127 L1931.15,573.636 L1931.36,574.394 L1931.3,575.099 L1928.91,577.717 L1928.41,579.342 L1927.61,580.315 L1927.38,582.414 L1926.97,582.6 L1926.1,581.87 L1925.53,582.155 L1924.99,582.811 L1923.81,585.417 L1922.39,587.733 L1921.31,588.7 L1921.35,589.184 L1922.22,589.9 L1922.27,590.424 L1920.24,593.223 L1919.47,594.603 L1919.39,595.031 L1919.66,596.156 L1919.52,596.907 L1918.32,597.452 L1918.11,597.727 L1918.55,600.52 L1918.45,601.706 L1918.07,602.126 L1917.16,602.31 L1916.75,602.631 L1916.45,603.451 L1916.59,604.515 L1915.5,605.251 L1914.88,606.188 L1915.29,608.506 L1915.11,608.715 L1914.17,608.698 L1913.85,608.985 L1913.81,610.523 L1912.84,611.566 L1912.94,613.046 L1913.87,614.207 L1913.58,616.778 L1912.97,618.594 L1912.13,619.388 L1912.26,620.735 L1911.09,621.233 L1910.98,622.375 L1910.47,623.528 L1909.85,624.659 L1908.86,625.431 L1908.94,627.327 L1908.45,628.7 L1909.02,630.428 L1907.58,631.818 L1907.27,632.488 L1907.55,632.898 L1908.19,633.24 L1909.18,633.231 L1910.73,633.634 L1911.38,633.983 L1912.91,635.474 L1915.15,635.381 L1915.46,634.976 L1915.7,633.728 L1916.5,633.384 L1917.15,633.978 L1917.73,635.559 L1918.03,635.753 L1918.74,635.917 L1920.19,635.817 L1921.09,636.346 L1921.96,636.353 L1922.6,636.704 L1923.79,636.682 L1925.27,637.975 L1926.5,639.776 L1926.97,641.66 L1928.28,643.065 L1928.81,643.112 L1929.87,642.385 L1930.73,642.176 L1932.05,643.079 L1932.74,643.28 L1934.57,643.382 L1935.24,643.042 L1936.99,642.835 L1938.24,643.3 L1939.15,644.789 L1940.89,645.744 L1941.75,647.456 L1943.57,647.549 L1944.25,647.795 L1949.45,653.115 L1951.13,654.111 L1952.16,654.357 L1953.35,655.455 L1954.66,657.175 L1957.86,659.03 L1960.34,659.013 L1961.16,659.341 L1962.13,660.398 L1962.83,661.619 L1963.11,663.227 L1963.69,663.978 L1963.79,664.791 L1964.29,665.393 L1964.78,667.498 L1964.72,668.115 L1965.21,669.084 L1967.15,670.661 L1968.67,672.273 L1969.82,674.321 L1970.77,677.216 L1971.02,679.287 L1971.62,680.587 L1973.21,680.981 L1974.91,680.695 L1977.55,681.305 L1979.16,681.391 L1980.26,681.112 L1981.68,681.228 L1983.02,681.863 L1983.9,682.644 L1990.53,683.777 L1993.84,683.255 L2003.81,674.849 L2018.72,658.707 L2033.44,663.109 L2042.61,666.426 L2043.64,669.813 L2052.44,675.978 L2060.23,681.747 L2071.95,690.903 L2084.56,700.364 L2086.6,702.28 L2095.94,698.434 L2096.34,692.741 L2100.98,695.115 L2103.47,695.612 L2104.86,696.107 L2107.08,697.346 L2108.89,697.318 L2110.25,697.805 L2111.48,698.616 L2111.82,699.666 L2112.97,700.058 L2114.28,701.052 L2114.47,701.923 L2114.9,702.682 L2114.86,704.047 L2115.29,704.415 L2117.21,704.442 L2117.71,704.92 L2117.72,705.588 L2117.91,705.853 L2118.83,706.198 L2119.55,705.924 L2120.19,706.194 L2120.54,706.851 L2121.27,707.154 L2121.48,707.962 L2122.42,708.504 L2123.48,708.641 L2124.46,709.148 L2125.13,708.892 L2125.63,709.028 L2126.83,712.241 L2127.42,712.235 L2128.45,711.852 L2129.77,713.107 L2130.62,713.271 L2131.27,713.83 L2132.56,713.582 L2132.61,714.891 L2133.91,715.16 L2134.44,716.409 L2135,716.191 L2135.54,715.161 L2136.01,715.329 L2136.17,715.625 L2135.84,717.021 L2137.44,718.7 L2137.53,719.241 L2137.45,722.798 L2137.01,723.923 L2137.47,727.714 L2137.16,730.267 L2137.99,731.865 L2138.02,732.455 L2137.57,733.814 L2137.82,736.73 L2137.32,738.694 L2138.74,740.839 L2139.41,742.322 L2139.62,743.786 L2140.05,744.395 L2140.77,747.001 L2140.94,749.91 L2141.65,749.66 L2142.18,749.161 L2143.23,746.878 L2143.86,746.207 L2145.62,746.102 L2147.03,746.8 L2148.23,746.63 L2149.42,747.39 L2150.59,747.782 L2151.22,748.613 L2151.87,748.591 L2152.59,745.551 L2154.74,742.279 L2155.74,741.54 L2156.87,741.024 L2157.47,739.934 L2159.3,737.848 L2159.92,737.737 L2160.43,737.106 L2162.12,736.147 L2162.65,736.133 L2163.98,736.768 L2165.45,737.014 L2165.78,736.906 L2166.6,735.938 L2168.09,735.399 L2168.18,735.025 L2167.83,733.77 L2168.3,731.919 L2168.44,731.692 L2169.57,731.491 L2169.64,730.548 L2172.01,727.328 L2173.95,726.054 L2174.83,725.134 L2175.05,724.538 L2176.59,722.714 L2177.32,721.519 L2178.44,718.764 L2184.62,726.424 L2185.17,726.718 L2187.6,729.566 L2191.23,732.806 L2195.83,735.481 L2199.73,737.356 L2202.47,738.962 L2208.45,741.838 L2210.03,742.334 L2215,743.235 L2222.35,742.813 L2222.59,743.52 L2222.54,744.241 L2221.11,746.183 L2220.3,749.512 L2219.03,751.677 L2220.11,752.316 L2220.34,752.666 L2220.58,756.377 L2219.98,757.34 L2218.23,758.965 L2218.38,759.464 L2218.8,759.841 L2220.35,759.886 L2222.91,761.209 L2224.26,761.175 L2225.01,762.93 L2225.47,763.225 L2226.02,763.152 L2227.19,762.166 L2227.95,762.053 L2229.36,764.14 L2231.07,764.103 L2232.1,764.832 L2233.42,765.064 L2233.83,765.342 L2234.76,766.829 L2236.47,766.614 L2237.74,768.194 L2240,768.585 L2241.56,768.031 L2243.98,769.129 L2245.61,768.811 L2248.3,769.513 L2249.01,769.245 L2249.64,769.268 L2250.34,770.14 L2251.31,770.855 L2256.27,771.97 L2258.12,771.461 L2259.43,771.32 L2261.17,770.524 L2263.85,770.027 L2265.6,770.95 L2269.22,771.309 L2269.86,771.14 L2270.55,771.887 L2270.92,772.009 L2274.06,772.043 L2275.1,772.323 L2276.18,772.293 L2277.45,772.797 L2279.96,772.753 L2280.86,772.481 L2282.04,773.138 L2283.66,772.855 L2284.49,773.316 L2285.74,773.417 L2286.38,773.701 L2286.65,774.558 L2286.68,775.885 L2287.81,775.216 L2288.4,774.499 L2289.05,774.784 L2292.2,774.456 L2292.68,774.688 L2293.26,775.373 L2294.34,775.885 L2295.49,777.208 L2298.24,778.691 L2301.53,779.744 L2305.55,778.728 L2307.54,777.961 L2308.12,777.187 L2311.55,776.269 L2314.21,774.86 L2315.16,773.926 L2315.46,774.877 L2315.52,776.161 L2315.95,777.126 L2316.76,777.463 L2317.82,777.52 L2318.13,777.362 L2321.63,778.903 L2322.62,779.043 L2324.27,779.753 L2327.08,782.255 L2329.62,785.312 L2330.27,788.474 L2331.02,789.877 L2330.7,790.758 L2330.73,791.248 L2331.81,792.491 L2334.5,796.575 L2335.24,797.539 L2336.08,798.233 L2336.03,799.862 L2336.93,802.319 L2336.87,803.516 L2337.21,804.934 L2337.76,806.077 L2338.29,806.937 L2340.13,808.997 L2341.77,809.831 L2341.78,810.183 L2342.49,811.078 L2345.18,812.378 L2346.14,813.071 L2346.59,813.045 L2350.66,814.773 L2352.86,816.422 L2356.68,817.014 L2359.62,817.848 L2360.35,818.086 L2361.56,819.215 L2364.29,820.08 L2365.13,820.904 L2365.56,821.72 L2367.23,823.343 L2369.08,824.3 L2370.51,826.051 L2371.11,827.382 L2372.01,830.599 L2372.71,831.652 L2373.09,833.684 L2374.14,834.628 L2382.8,838.335 L2387.13,839.058 L2389.92,838.595 L2391.79,838.602 L2393.5,839.218 L2394.47,839.178 L2396.79,839.929 L2398.27,840.717 L2399.2,841.703 L2402.4,843.337 L2403.57,844.279 L2405.33,845.083 L2406.36,846.254 L2408.09,847.716 L2410.77,849.167 L2412.16,850.15 L2414.07,852.422 L2414.86,852.972 L2417.41,853.077 L2420.49,852.452 L2422.67,852.351 L2424.46,852.926 L2426,852.94 L2430.16,854.364 L2432.11,853.176 L2434.72,852.387 L2435.79,852.33 L2436.81,852.58 L2437.48,851.942 L2438.35,851.998 L2439.74,851.73 L2441.8,852.002 L2444.13,850.739 L2447.99,849.333 L2449.65,847.536 L2449.97,847.012 L2450.02,846.112 L2449.21,844.922 L2449.17,844.407 L2454.71,836.593 L2457.18,833.524 L2457.94,832.984 L2459.59,833.217 L2462.27,833.039 L2465.16,831.988 L2465.92,831.884 L2467.97,832.434 L2471.32,833.646 L2471.72,833.946 L2473.93,834.365 L2475.48,835.646 L2475.93,836.259 L2477.92,836.715 L2478.14,837.488 L2479.26,838.066 L2479.73,838.606 L2480,839.397 L2481.21,841.412 L2481.56,844.512 L2481.23,847.488 L2481.56,847.588 L2482.19,848.274 L2483.5,848.985 L2484.88,849.084 L2486.46,848.506 L2489.01,848.787 L2489.88,848.436 L2493.74,848.301 L2495.66,848.727 L2496.4,849.282 L2498.52,848.319 L2499.45,847.635 L2499.74,847.883 L2499.92,848.64 L2500.94,849.541 L2504.06,850.546 L2507.66,851.222 L2510.11,850.466 L2511.52,849.739 L2511.6,850.283 L2513.12,851.141 L2514.87,851.181 L2516.84,852.182 L2517.24,852.855 L2518.32,853.465 L2520.89,854.146 L2521.21,854.389 L2521.28,854.931 L2521.93,855.555 L2525.48,857.369 L2526.74,857.548 L2527.83,857.944 L2530.14,857.676 L2532.76,858.047 L2535.45,856.96 L2539.24,856.086 L2540.43,855.533 L2542.08,855.935 L2544.73,855.526 L2547.52,855.593 L2548.6,855.699 L2550.45,856.247 L2553,856.524 L2554.01,855.303 L2554.47,855.054 L2555.47,855.209 L2557,854.655 L2558.15,854.695 L2558.94,854.337 L2561.97,854.212 L2562.76,853.076 L2564.73,851.331 L2565.27,850.374 L2566.6,852.385 L2567.97,852.971 L2571.2,853.561 L2571.69,853.938 L2572.09,854.735 L2574.51,854.538 L2575.57,854.149 L2576.96,854.542 L2577.27,854.397 L2578.5,854.508 L2580.38,855.108 L2580.58,855.475 L2581.1,855.568 L2581.61,855.983 L2583.53,856.417 L2585.25,857.257 L2589.71,857.499 L2590.68,857.44 L2591.36,857.136 L2593.09,857.094 L2593.48,857.297 L2595.66,856.57 L2597.07,856.358 L2600.04,857.01 L2602.07,856.973 L2602.94,854.899 L2605.2,854.156 L2605.73,852.636 L2606.45,851.535 L2608.14,850.596 L2609.3,849.384 L2609.41,848.766 L2609.1,847.675 L2609.42,847.028 L2610.63,846.17 L2612.25,845.369 L2614.43,844.704 L2614.84,844.395 L2614.87,843.94 L2616.74,842.42 L2624.98,837.772 L2625.34,837.416 L2625.16,837.2 L2625.19,836.206 L2626.09,834.661 L2627.53,834.198 L2628.38,834.348 L2628.92,833.987 L2630.13,833.909 L2630.57,832.854 L2631.18,833.231 L2631.99,833.31 L2632.61,832.602 L2633.96,832.326 L2636.27,832.48 L2639.19,831.946 L2641.22,831.354 L2642.39,831.354 L2643.15,830.968 L2644.29,831.394 L2645.85,831.465 L2648.17,830.811 L2648.42,831.163 L2649.02,830.948 L2649.89,831.043 L2651.17,830.357 L2651.21,830.571 L2651.99,830.687 L2652.78,830.304 L2655.32,829.778 L2658.37,827.378 L2660.28,824.58 L2662.07,822.948 L2663.03,823.385 L2664.27,823.324 L2665.05,823.502 L2667.44,825.107 L2668.28,825.21 L2668.91,825.031 L2670.85,825.224 L2671.8,825.982 L2672.55,826.244 L2674.04,826.017 L2675.79,825.154 L2676.2,824.443 L2676.56,824.354 L2680.27,825.264 L2682.26,825.415 L2683.84,826.348 L2684.48,829.617 L2684.99,830.898 L2685.75,832.085 L2686.34,833.748 L2686.66,834.102 L2686.84,835.58 L2687.86,836.283 L2688.22,836.757 L2688.82,836.918 L2689.08,837.618 L2689.47,837.748 L2689.27,838.677 L2689.35,839.245 L2689.73,839.675 L2691.63,840.721 L2691.44,841.27 L2690.51,841.529 L2690.33,842.613 L2690.48,843.564 L2690.7,844.494 L2691.04,844.895 L2692.33,845.529 L2693,845.605 L2692.83,847.001 L2692.98,847.345 L2693.67,847.726 L2693.57,848.4 L2693.74,849.432 L2694.96,850.302 L2694.64,850.654 L2693.73,850.975 L2693.16,852.546 L2693.62,853.245 L2693.52,855.069 L2693.99,855.718 L2694.92,856.209 L2694.82,856.524 L2695.16,857.057 L2695.02,857.382 L2695.41,858.125 L2697.85,858.765 L2698.11,859.297 L2699.26,860.329 L2699.19,860.873 L2698.95,861.058 L2699.75,862.207 L2701.57,862.629 L2703.1,863.775 L2705.23,864.488 L2705.51,865.07 L2706.07,864.729 L2706.7,864.853 L2707.06,865.161 L2708.27,864.556 L2710.38,865.142 L2711.07,864.69 L2711.26,863.349 L2712.28,863.64 L2712.45,864.607 L2713.08,865.461 L2712.8,866.23 L2712.82,866.946 L2713.39,867.739 L2713.49,868.381 L2712.14,871.43 L2709.58,875.59 L2709.68,875.893 L2709.46,876.703 L2708.41,878.784 L2710.79,879.369 L2712.31,880.192 L2713.01,880.843 L2713.23,881.931 L2712.95,883.799 L2713.06,885.666 L2711.3,888.912 L2710.91,889.996 L2709.63,891.328 L2709.38,891.861 L2709.52,892.729 L2710.84,893.077 L2710.97,893.376 L2711.44,893.482 L2711.45,894.131 L2711.63,894.311 L2711.56,895.072 L2711.2,895.592 L2711.48,896.178 L2710.65,896.604 L2710.39,897.35 L2710.76,898.036 L2710.46,899.222 L2710.85,899.715 L2710.58,900.512 L2710.94,901.008 L2711.96,901.062 L2711.88,901.793 L2713.41,903.234 L2713.45,903.859 L2714.28,904.52 L2714.87,904.749 L2715.54,904.249 L2716.03,904.236 L2717.46,905.093 L2717.47,905.471 L2716.89,906.462 L2716.89,906.915 L2717.14,907.211 L2718.06,907.258 L2719.22,907.648 L2719.87,908.772 L2720.38,910.648 L2721.99,911.355 L2722.33,911.89 L2721.58,913.082 L2720.66,913.423 L2721.35,915.418 L2721.02,916.398 L2720.44,917.13 L2716.9,918.017 L2715.38,918.809 L2709.92,919.483 L2707.58,917.246 L2703.52,917.992 L2701.85,918.033 L2700.32,917.564 L2697.46,918.291 L2694.43,917.97 L2694.05,917.72 L2694.7,917.002 L2693.25,914.465 L2692.03,912.858 L2690.06,911.949 L2688.68,910.526 L2687.48,910.22 L2685.17,908.738 L2683.34,908.587 L2681.42,907.919 L2665.81,910.889 L2662.18,911.374 L2651.01,912.326 L2648.32,911.913 L2645.88,912.652 L2644.81,912.487 L2641.69,913.277 L2640.04,913.182 L2635.84,916.031 L2633.76,916.746 L2630.8,919.08 L2631.97,921.951 L2627.84,925.384 L2618.45,933.759 L2617.83,934.564 L2617.15,937.283 L2616.67,937.989 L2615.58,938.61 L2615.11,939.556 L2611.8,940.256 L2611.79,941.299 L2611.22,942.191 L2609.37,942.69 L2608.25,943.208 L2606.89,944.985 L2605.95,945.046 L2605.31,945.303 L2604.04,946.296 L2602.05,946.398 L2600.64,946.156 L2598.13,946.861 L2593.5,949.853 L2590.11,953.185 L2588.89,964.356 L2588.88,966.614 L2588.22,967.178 L2588.89,968.085 L2588.93,969.881 L2590.61,971.481 L2590.09,972.323 L2590.03,973.347 L2590.44,974.23 L2589.91,974.952 L2590.17,975.266 L2592.51,975.054 L2593.48,975.814 L2596.14,975.815 L2597.71,976.865 L2596.77,978.414 L2595.94,980.974 L2594.57,982.426 L2593.81,984.219 L2593.98,984.822 L2594.72,985.884 L2594.21,987.888 L2594.22,989.257 L2593.73,990.492 L2593.95,995.132 L2594.17,995.975 L2594.63,996.722 L2596.2,998.302 L2593.77,1001.64 L2591.87,1003.23 L2591.05,1003.14 L2590.84,1004.11 L2589.85,1004.84 L2589.61,1005.79 L2588.85,1006.54 L2589.33,1008.67 L2590.4,1010.53 L2590.89,1012.63 L2590.05,1013.05 L2588.64,1015.41 L2587.46,1016.2 L2586.14,1016.59 L2579.22,1016.85 L2564.71,1027.51 L2563.75,1031.09 L2560.19,1040.21 L2559.23,1043.81 L2551.39,1049.43 L2545.55,1052.91 L2541.28,1054.51 L2539.16,1055.05 L2537.99,1054.97 L2537.6,1055.3 L2537.76,1056.33 L2537.47,1057.31 L2537.27,1061.73 L2537.84,1064.18 L2537.15,1070.3 L2537.12,1073.42 L2536.73,1075.53 L2537.13,1077.2 L2537.02,1080.93 L2537.47,1081.25 L2539.11,1084.35 L2539.01,1085.65 L2539.45,1087.68 L2540.55,1089.36 L2540.98,1090.53 L2540.39,1099.62 L2539.54,1102.37 L2541.29,1110.7 L2542.1,1112.94 L2545.11,1129.86 L2537.58,1136.79 L2532.65,1139.92 L2533.19,1146.97 L2540.09,1151.91 L2547.24,1159.1 L2547.78,1165.12 L2550.6,1169.24 L2550.54,1170.94 L2548.56,1174.09 L2543.97,1180.03 L2541.29,1188.34 L2539.43,1193.26 L2538.58,1193.92 L2536.75,1196.32 L2536.26,1197.53 L2536,1199.13 L2533.83,1203.48 L2532.54,1203.45 L2529.46,1202.82 L2529.1,1203.05 L2526.46,1213.72 L2525.47,1214.67 L2520.8,1217.21 L2514.68,1222.01 L2510.99,1222.51 L2509.46,1221.75 L2503.79,1219.63 L2500.41,1216.68 L2496.38,1216.39 L2492.56,1215.1 L2490.78,1214.76 L2484.93,1214.93 L2481.69,1218.56 L2480.64,1218.9 L2476.79,1219.19 L2476.2,1221.19 L2476.24,1224.28 L2475.7,1228.4 L2475.92,1233.88 L2476.33,1235.89 L2478.19,1239.02 L2478.35,1244.84 L2477.32,1251.3 L2476.84,1252.13 L2476.03,1252.82 L2475.18,1252.72 L2473.83,1252.89 L2473.2,1252.3 L2470.48,1252.12 L2469.9,1252.53 L2464.87,1250.33 L2456.51,1250.77 L2451.21,1250.74 L2444.28,1250.18 L2444.82,1253.96 L2443.08,1260.09 L2439.58,1263.31 L2435.42,1266.45 L2434.26,1266.06 L2430.98,1266.67 L2427.62,1268.82 L2427.54,1270.43 L2426.73,1271.85 L2425.19,1279.07 L2424.4,1283.84 L2423.85,1284.73 L2424.03,1285.54 L2420.29,1287.37 L2418.97,1287.56 L2418.38,1289.15 L2417.73,1289.59 L2417.21,1290.45 L2416.12,1290.74 L2415.83,1292.33 L2415.76,1295.06 L2414.95,1298.33 L2414.85,1299.92 L2414.03,1300.98 L2411.82,1305.47 L2413.11,1306.75 L2413.24,1307.22 L2411.21,1311.05 L2409.9,1312.14 L2407.18,1311.39 L2404.25,1310 L2401.13,1309.96 L2399.81,1310.19 L2395.89,1312.39 L2393.31,1312.55 L2390.62,1314.74 L2388.04,1318.74 L2386.28,1320.36 L2381.98,1323.6 L2381.24,1326.72 L2375.43,1325.28 L2372.47,1325.52 L2367.87,1325.16 L2367.42,1324.92 L2365.98,1326.37 L2362.54,1328.13 L2360.78,1329.27 L2359.74,1329.28 L2358.23,1328.29 L2354.94,1328.49 L2352.39,1330.67 L2348.37,1330.93 L2345.25,1332.23 L2336.32,1333.82 L2334.54,1333.83 L2326.95,1332.87 L2315,1329.45 L2309.4,1331.6 L2305.14,1332.69 L2301.92,1333.3 L2299.93,1333.02 L2298.31,1337.61 L2298.01,1339.66 L2298.62,1341.6 L2297.41,1342.09 L2297.98,1343.45 L2291.88,1347.25 L2283.88,1349.57 L2284.54,1351.66 L2285.39,1355.77 L2285.22,1357.26 L2285.41,1359.53 L2285.88,1362.76 L2287.01,1367.01 L2287.16,1368.53 L2291.54,1377.24 L2292.27,1381.82 L2289.95,1387.12 L2285.34,1396.47 L2283.27,1401.49 L2283.38,1405.68 L2283.81,1409.83 L2283.5,1413.66 L2284.9,1419.84 L2285.12,1421.82 L2285.36,1422.61 L2287.18,1425.26 L2288.32,1424.47 L2288.58,1425.37 L2287.24,1431.01 L2277.79,1435.69 L2275.43,1436.26 L2273.63,1438.69 L2269.22,1442.78 L2266.49,1445.03 L2262.09,1444.62 L2260.77,1445.53 L2259.67,1445.01 L2257.11,1444.88 L2255.98,1444.26 L2252.81,1444.55 L2250.58,1443.61 L2249.66,1443.59 L2248.92,1443.7 L2246.36,1444.73 L2244,1444.66 L2242.9,1444.23 L2241.71,1444.31 L2239.9,1446 L2236.52,1444.2 L2230.9,1442.28 L2229.31,1440.95 L2228.12,1440.74 L2227.25,1440.03 L2226.15,1439.75 L2225.54,1439.1 L2223.7,1438.06 L2223.29,1438.03 L2223.03,1437.59 L2221.28,1436.36 L2219.66,1435.92 L2215.02,1436.04 L2208.82,1436.91 L2200.37,1436.47 L2199.03,1435.47 L2194.11,1436.04 L2192.55,1436.63 L2189.32,1436.82 L2188.19,1437.45 L2186.81,1437.3 L2183.65,1437.52 L2182.11,1437.19 L2180.64,1437.89 L2176.4,1437.81 L2174.49,1438.04 L2172.09,1437.72 L2170.99,1437.95 L2167.35,1436.51 L2165.6,1436.03 L2160.19,1435.83 L2159.37,1436.05 L2156.76,1435.66 L2155.47,1434.45 L2153.86,1434.46 L2152.11,1433.88 L2146.17,1433.49 L2143.97,1433.53 L2143.41,1433.34 L2141.69,1433.41 L2139.27,1432.9 L2138.23,1433.41 L2135.48,1432.3 L2133.53,1431.96 L2129.22,1432.29 L2127.45,1432.95 L2126.45,1432.89 L2125.84,1433.81 L2125.16,1433.99 L2122.69,1433.88 L2123.33,1438.11 L2122.38,1439.57 L2123.19,1443.65 L2122.57,1447.46 L2122.65,1451.69 L2122.46,1454.33 L2123.86,1455.75 L2123.29,1462.48 L2121.89,1465.89 L2120.33,1476.73 L2119.78,1479.32 L2119.65,1487.07 L2119.92,1488.14 L2119.92,1490.26 L2120.34,1491.38 L2120.54,1501.27 L2120.36,1502.37 L2119.84,1502.7 L2119.17,1502.49 L2117.58,1500.29 L2115.99,1499.11 L2114.81,1497.7 L2112.73,1496.24 L2111.06,1495.76 L2108.06,1494.51 L2103.38,1491.54 L2101.97,1490.95 L2100.65,1490.67 L2099.19,1490.65 L2097.57,1491.13 L2096.55,1491.87 L2095.29,1493.65 L2093.06,1494.93 L2091.79,1494.95 L2089.64,1494.31 L2089.39,1495.88 L2088.67,1497.78 L2088.01,1500.68 L2087.77,1505.25 L2087.97,1507.04 L2087.85,1508.19 L2090.86,1509.61 L2094.09,1511.63 L2097.13,1512.85 L2099.15,1512.63 L2102.5,1513.18 L2103.34,1514.05 L2104.63,1514.73 L2105.66,1516.6 L2110.26,1517.98 L2112.6,1519.85 L2117.45,1523.03 L2118.92,1525.13 L2115.23,1526.6 L2113.65,1530.27 L2113.36,1530.44 L2107.77,1529.44 L2103.14,1527.78 L2102.58,1527.88 L2100.73,1528.81 L2095.25,1535.77 L2093.32,1537.18 L2092.01,1537.76 L2088.41,1540.37 L2086.87,1540.86 L2083.72,1543.29 L2082.15,1544.08 L2079.1,1546.2 L2077.87,1546.75 L2077.04,1547.94 L2076.38,1550.31 L2075.4,1550.89 L2073.55,1552.47 L2069.99,1553.94 L2068.11,1556.31 L2067.76,1557.9 L2066.83,1559.56 L2065.34,1560.63 L2064.78,1561.9 L2063.43,1563.18 L2058.1,1563.98 L2057.77,1565.37 L2057.74,1567.05 L2057.09,1569.16 L2055.2,1573.71 L2054.83,1574.91 L2054.65,1577.1 L2054.11,1578.51 L2055.05,1587.68 L2054.97,1590.85 L2054.5,1592.96 L2054.3,1595.54 L2054.61,1601.68 L2056.09,1605.92 L2058.79,1611.86 L2059.13,1613.14 L2056.32,1618.61 L2051.4,1616.23 L2050.49,1616.03 L2049.99,1616.41 L2050.39,1617.17 L2050.38,1617.66 L2049.52,1618.22 L2043.95,1617.94 L2041.47,1618.59 L2033.85,1620.04 L2030.84,1623.72 L2029.09,1625.34 L2023.09,1632.5 L2022.68,1632.16 L2020.88,1632.69 L2020.24,1632.49 L2019.81,1632.07 L2020.17,1631.14 L2019.16,1630.47 L2018.85,1630.75 L2019.03,1631.27 L2018.75,1631.82 L2017.6,1632.62 L2016.97,1632.71 L2015.82,1632.2 L2014.85,1631.06 L2014.27,1627.84 L2012.93,1627 L2012.35,1627.67 L2012.2,1628.64 L2011.68,1628.85 L2011.04,1628.64 L2009.17,1626.97 L2008.1,1625.03 L2007.18,1624.94 L2006.01,1624.36 L2005.96,1623.84 L2006.57,1623.01 L2006.5,1622.62 L2006.1,1622.27 L2005.44,1622.07 L2003.53,1621.74 L2002.88,1620.45 L2001.45,1621.45 L2000.82,1621.64 L1998.17,1620.44 L1997.16,1620.58 L1996.46,1620.45 L1995.56,1619.85 L1995.14,1619.25 L1992.64,1617.99 L1990.48,1618.15 L1990.51,1616.15 L1990.28,1615.74 L1989.83,1615.79 L1988.9,1616.4 L1987.83,1616.49 L1987.01,1616.25 L1985.3,1614.94 L1984.57,1614.8 L1981.57,1612.57 L1981.04,1611.74 L1981,1611.04 L1981.19,1610.56 L1982.18,1609.49 L1980.63,1607.93 L1980.2,1607.92 L1979.66,1608.33 L1978.98,1608.32 L1976.78,1608.87 L1975.69,1608.2 L1972.9,1607.39 L1970.34,1605.17 L1969.99,1605.27 L1969.01,1606.39 L1967.42,1609.75 L1962.02,1618.58 L1961.79,1619.84 L1961.02,1620.68 L1960.05,1626.62 L1958.12,1632.78 L1957.64,1633.36 L1956.36,1634.23 L1955.7,1636.67 L1951.76,1642.76 L1950.85,1645.77 L1949.84,1647.92 L1948.1,1649.58 L1947.68,1650.54 L1946.28,1652.12 L1944.04,1655.39 L1940.86,1662.7 L1939.06,1665.67 L1938.22,1666.3 L1937.94,1667.44 L1936.73,1669.48 L1937.49,1671.2 L1937.56,1671.89 L1936.56,1673.82 L1936.36,1675.44 L1936.42,1678.96 L1935.32,1683.05 L1935.25,1684.26 L1932.9,1687.31 L1931.69,1688.51 L1930.68,1689.1 L1930.03,1690.46 L1929.33,1691.11 L1928.56,1691.31 L1928.99,1691.64 L1930.74,1691.89 L1932.41,1692.6 L1936.56,1695.46 L1938.47,1696.49 L1938.48,1698.09 L1938.17,1699.84 L1939.04,1711.48 L1938.74,1712.78 L1939.44,1714.57 L1945.7,1713.83 L1948.45,1715.48 L1952.62,1716.67 L1952.88,1717.44 L1955.34,1719.19 L1955.55,1719.51 L1955.61,1720.77 L1954.83,1723.16 L1955.32,1732.69 L1955.75,1734.14 L1955.83,1739.15 L1956.38,1741.21 L1958.85,1745.94 L1956.14,1750.01 L1955.37,1752.21 L1954.43,1757.66 L1952.45,1760.22 L1950.44,1767.38 L1946.3,1772.76 L1946.45,1774.29 L1946.09,1776.45 L1946.76,1779.14 L1946.24,1779.95 L1943.15,1781.66 L1941.21,1783.3 L1939.49,1785.83 L1936.16,1789.96 L1934.48,1792.55 L1931.06,1794.77 L1927.68,1796.66 L1925.54,1797.38 L1923.81,1798.53 L1919.64,1798.17 L1916.55,1799.41 L1915.8,1800.08 L1913.38,1800.48 L1912.86,1800.86 L1911.1,1801.54 L1910.51,1802.07 L1908.05,1803.18 L1907.57,1804 L1904.05,1805.25 L1904.01,1806.84 L1902.59,1807.44 L1902.04,1807.33 L1900.38,1808.03 L1897.94,1808.62 L1896.72,1809.99 L1895.57,1812.09 L1894.12,1813.9 L1893.38,1815.16 L1887.95,1820.36 L1884.89,1824.56 L1883.16,1828.76 L1881.09,1832.61 L1875.45,1838.59 L1872.16,1842.78 L1869.75,1844.92 L1868.99,1846.69 L1862.97,1855.15 L1863.29,1855.88 L1864.72,1856.98 L1864.84,1859.08 L1864.08,1860.92 L1864,1864.82 L1863.61,1868.79 L1863.07,1871.76 L1862.54,1878.19 L1860.65,1883.55 L1860.66,1885.44 L1858.46,1889.28 L1855.13,1896.72 L1853.63,1899.62 L1853.26,1902.02 L1852.67,1903.32 L1852.19,1905.2 L1851.25,1912.43 L1850.75,1914.76 L1850.47,1915.21 L1850.14,1917.7 L1849.47,1918.48 L1848.48,1920.97 L1845.59,1926.45 L1844.09,1928.3 L1841.41,1935.6 L1839.92,1938.23 L1838.25,1940.36 L1838.02,1941.68 L1842.3,1948.73 L1844.62,1951.23 L1846.41,1952.59 L1848.83,1954.98 L1851.38,1956.93 L1856.14,1953.1 L1859.84,1952.58 L1861.84,1951.48 L1861.87,1951.12 L1868.74,1952.6 L1871,1952.71 L1871.39,1953.01 L1874.14,1957.41 L1875.05,1959.89 L1875.13,1963.65 L1874.78,1965.52 L1875.12,1967.76 L1875.5,1968.42 L1879.88,1973.62 L1879.93,1974.34 L1879.35,1975.04 L1877.06,1977.32 L1876.22,1977.84 L1880.91,1984.77 L1879.66,1987.4 L1876.99,1991.18 L1875.69,1994.86 L1872.49,1998.86 L1869,2000.65 L1867.86,2003.47 L1866.25,2005.62 L1864.96,2006.89 L1864.56,2006.82 L1862.57,2008.36 L1860.84,2009.18 L1850.4,2013.62 L1848.17,2014.83 L1842.25,2021.91 L1837.15,2028.86 L1826.74,2044 L1819.47,2055.33 L1816.34,2059.72 L1809.87,2071.43 L1808.8,2074.26 L1808.09,2074.95 L1807.94,2076.25 L1807.62,2076.4 L1807.12,2077.89 L1805.82,2079.91 L1805.37,2081.07 L1802.09,2084.14 L1799.38,2089.31 L1796.71,2091.67 L1795.35,2092.19 L1787.59,2099.16 L1785.78,2100.83 L1785.75,2101.22 L1785.02,2102.52 L1784,2103.43 L1784.42,2104.63 L1783.14,2105.72 L1783.8,2106.98 L1786.84,2109.97 L1787.14,2111.19 L1786.99,2112.09 L1787.5,2113.42 L1788.28,2114.89 L1789.56,2116.05 L1790.33,2121.01 L1792.56,2124.76 L1794.9,2126.88 L1795.83,2128.3 L1796.86,2132.38 L1795.9,2134.14 L1794.1,2138.69 L1793.83,2141.17 L1791.76,2142.3 L1787.96,2146.78 L1788.16,2148.06 L1789.65,2150.23 L1790.04,2155.02 L1787.99,2158.73 L1787.48,2159.07 L1787.24,2160.52 L1784.82,2164.97 L1783.99,2165.92 L1782.7,2168.98 L1782.78,2171.79 L1783.8,2176.2 L1783.65,2180.5 L1784.09,2184.76 L1783.35,2188.28 L1781.09,2194.07 L1780.98,2195.29 L1780.27,2196.33 L1778.92,2199.28 L1778.25,2200.18 L1777.94,2201.12 L1777.44,2201.62 L1775.4,2208.01 L1772.58,2214.07 L1770.49,2217.98 L1770.21,2219.03 L1768.05,2224 L1764.18,2228.37 L1760.58,2231.59 L1759.76,2232.89 L1759.17,2237.3 L1757.55,2244.71 L1757.37,2252.35 L1758.25,2258.36 L1760.17,2261.21 L1760.98,2266.27 L1761.94,2269.27 L1762.76,2270.81 L1763.22,2272.24 L1763.92,2273.23 L1767.66,2275.35 L1769.68,2276.27 L1771.14,2277.3 L1772.02,2278.68 L1772.15,2280.19 L1773.16,2281.93 L1776.81,2284.45 L1778.86,2285.53 L1788.13,2294.45 L1789.47,2298.55 L1791.39,2302.54 L1792.14,2308.64 L1793.27,2312.88 L1793.33,2315.9 L1792.91,2318.5 L1792.2,2320.86 L1790.64,2324.25 L1790.09,2326.11 L1789.91,2329.07 L1790.3,2333.11 L1790.5,2339.07 L1788.99,2342.7 L1787.24,2345.56 L1786.3,2349.8 L1785.89,2350.4 L1785.66,2351.93 L1784.59,2354.72 L1784.46,2356.48 L1783.97,2357.8 L1785.93,2360 L1788.18,2360.13 L1790.03,2360.5 L1789.96,2363.55 L1789.39,2365.55 L1790.36,2367.7 L1791.48,2371.54 L1790.93,2372.52 L1790.2,2376.25 L1789.37,2379.28 L1787.27,2382.66 L1785.93,2391.7 L1783.99,2396.43 L1780.52,2408.02 L1781.59,2409.66 L1781.47,2411.84 L1781.95,2413.87 L1783.46,2416.74 L1786.75,2419.21 L1787.92,2418.9 L1789.32,2418.95 L1790.36,2419.58 L1791.59,2420.95 L1794.27,2421.85 L1796.04,2423.13 L1803.13,2430.14 L1804.73,2431.46 L1806.15,2433.31 L1814.61,2440.1 L1819.27,2445.56 L1823.42,2448.74 L1824.96,2449.28 L1826.49,2450.49 L1827.28,2451.5 L1828.35,2454.85 L1828.16,2460.35 L1829.5,2470.43 L1829.37,2474.21 L1829.6,2477.73 L1830.56,2480.06 L1832.09,2482.59 L1838.02,2490.58 L1840.31,2495.35 L1845.15,2506.67 L1846.45,2510.78 L1846.59,2513.45 L1846.89,2514.99 L1847.91,2514.93 L1848.43,2515.41 L1849.84,2515.88 L1851.4,2517.47 L1852.28,2517.85 L1852.86,2518.57 L1853.33,2518.79 L1858.26,2519.22 L1861.93,2518.93 L1864.72,2518.05 L1866.02,2517.31 L1869.43,2516.46 L1870.81,2515.74 L1872.98,2515.66 L1875.83,2515.08 L1877.17,2515.39 L1880.87,2515.58 L1883.47,2515.36 L1886.39,2514.78 L1888.56,2515.21 L1890.47,2516.5 L1891.35,2516.82 L1892.29,2516.9 L1897.17,2516.59 L1898.9,2516.11 L1900.52,2515.24 L1901.68,2514.97 L1904.31,2515.32 L1906.22,2516.28 L1906.23,2516.65 L1903.24,2521.65 L1903.58,2526.71 L1904.16,2528.21 L1904.05,2528.66 L1903.44,2529.44 L1903.34,2529.98 L1904.02,2531.54 L1904.08,2532.88 L1904.66,2533.87 L1905.62,2534.78 L1907.47,2535.35 L1908.61,2535.48 L1909.47,2535.92 L1909.16,2536.95 L1909.1,2538.01 L1908.76,2538.25 L1909.82,2540.94 L1910.36,2540.93 L1910.61,2541.24 L1910.23,2542.44 L1910.25,2543.29 L1911.52,2545.66 L1912.21,2548.43 L1913.21,2550.12 L1913.45,2550.97 L1913.9,2551.27 L1914.21,2552.13 L1914.78,2552.69 L1915.95,2554.8 L1916.39,2555.12 L1915.6,2556.17 L1915.16,2557.7 L1914.83,2558.13 L1911.71,2560.74 L1910.24,2562.44 L1909.85,2563.1 L1909.37,2565.03 L1909.38,2566.4 L1910.11,2568.16 L1912.87,2570.96 L1913.14,2571.49 L1907.95,2575.54 L1903.37,2579.43 L1901.61,2581.48 L1900.73,2582.92 L1891.43,2591.08 L1890.6,2592.19 L1888.67,2593.1 L1885.65,2595.9 L1881.52,2601.31 L1879.99,2603.72 L1878.21,2605.42 L1876.08,2608.77 L1875,2610.09 L1874.44,2611.24 L1871.77,2614.14 L1870.99,2614.71 L1869.16,2617.01 L1868.05,2618.07 L1865.77,2619.74 L1863.04,2626.19 L1862.01,2629.53 L1859.23,2633.34 L1857.68,2634.92 L1855.27,2638.07 L1853.5,2640.92 L1852.66,2642.74 L1849.67,2646.63 L1846.45,2651.53 L1841.34,2661.41 L1832.77,2677.01 L1829.51,2683.62 L1828.74,2685.78 L1827.22,2693.03 L1822.99,2702.67 L1822.18,2706.66 L1820.08,2710.98 L1818.74,2714.48 L1818.49,2717.63 L1817.4,2723.24 L1814.63,2725.36 L1809.66,2727.65 L1801.49,2731.94 L1800.62,2733.61 L1803.69,2735.07 L1805.38,2736.84 L1809.25,2743.51 L1809.68,2744.85 L1807.99,2747.79 L1809.87,2749.01 L1806.38,2758.65 L1788.39,2766.15 L1787.23,2766.91 L1786.2,2766 L1784.28,2768.41 L1783.15,2768.47 L1779.57,2770.74 L1776.63,2772.96 L1776.39,2773.28 L1778.15,2775.3 L1778.21,2775.61 L1775.37,2778.91 L1775.41,2779.67 L1774.18,2781.87 L1773.75,2781.98 L1771.99,2784.35 L1771.07,2783.83 L1771.36,2788.97 L1770.18,2791.48 L1769.59,2793.87 L1770.47,2794.36 L1770.55,2794.73 L1767.61,2800.9 L1767.16,2801.68 L1766.23,2802.48 L1766.09,2803.26 L1766.27,2804.26 L1766.03,2805.13 L1763.71,2805.02 L1761.98,2805.88 L1760.71,2807.13 L1760.03,2807.42 L1758.82,2808.43 L1758.46,2809.05 L1757.93,2811.58 L1756.73,2813.25 L1751.48,2814.77 L1749.64,2817.06 L1748.3,2816.25 L1746.47,2815.84 L1744.88,2814.79 L1744.06,2815.22 L1743.29,2815.27 L1741.7,2814.9 L1737.63,2814.6 L1737.27,2813.93 L1734.41,2812.1 L1730.37,2811.97 L1728,2809.4 L1724.95,2808.55 L1724.14,2808.64 L1722.47,2809.69 L1720.68,2810.08 L1718.3,2809.67 L1714.86,2809.95 L1710.59,2809.27 L1708.78,2810.03 L1707.73,2809.93 L1702.66,2807.47 L1701.63,2807.43 L1689.9,2797.74 L1686.21,2795.92 L1683.79,2795.31 L1678.59,2792.86 L1677.6,2792.62 L1673.12,2792.46 L1671.29,2792.64 L1663.45,2793.74 L1659.68,2794.64 L1647.78,2793.33 L1640.92,2793.76 L1640.3,2794 L1639.72,2796.03 L1639.64,2797.84 L1638.93,2801.59 L1637.79,2803.41 L1637.11,2804.01 L1636.5,2806.42 L1635.32,2808.43 L1634.13,2809.99 L1630.94,2811.23 L1628.77,2809.96 L1623.46,2812.55 L1619.46,2815.74 L1613.7,2817.54 L1609.22,2820.88"/>
   <path fill-rule="evenodd" vector-effect="none" d="M2204.51,1738.83 L2205.38,1739.02 L2210.86,1738.71 L2216.84,1741.46 L2219.93,1743.18 L2218.93,1746.99 L2218.65,1750.45 L2217.43,1753.57 L2215.48,1757.33 L2215.62,1757.86 L2216.69,1759.53 L2218.64,1762.11 L2220.51,1763.24 L2227.54,1766.22 L2228.98,1768.12 L2229.62,1768.66 L2232.42,1770.25 L2233.15,1771.66 L2233.57,1771.93 L2236.26,1772.62 L2241.62,1775.03 L2241.4,1775.59 L2241.49,1777.56 L2241.84,1778.81 L2241.41,1781.52 L2241.31,1784.24 L2242.85,1785.42 L2244.31,1787.29 L2245.94,1792.32 L2246.19,1794.18 L2246.1,1796.43 L2246.86,1798.97 L2247.14,1799.22 L2251.48,1800.77 L2251.47,1801.34 L2252.57,1801.85 L2253.35,1803.37 L2259.76,1809.24 L2262.76,1808.36 L2265.09,1815.09 L2264.94,1817.24 L2265.19,1818.1 L2266.12,1819.87 L2267.49,1821.34 L2267.42,1822.21 L2267.1,1823.61 L2264.85,1828.89 L2262.61,1831.93 L2261.99,1832.49 L2259.85,1835.67 L2259.39,1836.05 L2258.16,1836.39 L2257.13,1836.32 L2252.63,1835.52 L2251.3,1834.71 L2248.61,1832.45 L2247.2,1834.21 L2246.43,1834.76 L2245.6,1835.19 L2244.05,1835.15 L2240.43,1833.56 L2235.52,1830.17 L2230.18,1829.22 L2226.35,1827.96 L2225.5,1827.95 L2224.8,1828.3 L2223.14,1829.97 L2222.33,1830.38 L2220.9,1830.09 L2211.48,1825.58 L2208.47,1824.63 L2199.48,1823.43 L2193.31,1823.2 L2188.1,1822.48 L2186.71,1822.07 L2181.71,1819.48 L2180.21,1818.39 L2177.32,1815.7 L2176.59,1815.39 L2172.89,1814.8 L2170.87,1814.74 L2165.29,1815.29 L2164.32,1815.21 L2160.66,1813.54 L2158.4,1812.29 L2158.8,1807.7 L2160.24,1802.4 L2163.67,1795.05 L2165.89,1792.31 L2166.21,1790.89 L2169.05,1788.75 L2169.69,1786.79 L2170.19,1786.23 L2173.46,1784.75 L2173.82,1784.37 L2174.5,1782.76 L2175.28,1781.92 L2176.9,1777.53 L2182.18,1769.95 L2182.26,1767.23 L2183.88,1764.28 L2185.12,1760.77 L2186.01,1759.1 L2189.24,1753.65 L2189.59,1752.7 L2192.92,1748.92 L2194,1748.32 L2193.14,1746.87 L2195.57,1745.36 L2196.36,1744.24 L2196.54,1743.16 L2195.71,1742.34 L2195.29,1741.35 L2196.18,1740.87 L2197.44,1740.53 L2198.67,1739.38 L2199.83,1738.98 L2202.93,1738.19 L2204.51,1738.83"/>
   <path fill-rule="evenodd" vector-effect="none" d="M2132.97,1823.07 L2136.68,1821.44 L2137.05,1829.94 L2136.86,1830.76 L2136.3,1831.79 L2131.1,1838.45 L2129.53,1839.8 L2128.06,1840.66 L2127.88,1843.33 L2127.35,1846.68 L2125.56,1847.29 L2125.27,1848.91 L2125.19,1852.05 L2125.65,1854.69 L2126.31,1856.47 L2124.47,1862.29 L2123.88,1865.33 L2123.64,1867.8 L2123.65,1873.1 L2118.06,1881.48 L2117.48,1882.15 L2113.95,1882.73 L2113.05,1883.05 L2112.11,1883.76 L2109.37,1885.21 L2107.53,1885.92 L2104.23,1886.49 L2099.66,1887.82 L2096.24,1892.79 L2095.76,1893.2 L2083.24,1898.27 L2081.81,1898.43 L2081.21,1898.08 L2077.09,1894.65 L2076.85,1891.72 L2077.1,1890.32 L2077.49,1889.5 L2079.68,1886.83 L2080.92,1884.87 L2083.4,1877.05 L2084.89,1873.04 L2087.35,1867.34 L2085.71,1864.64 L2084.13,1860.46 L2084.01,1854.01 L2085.39,1852.95 L2089.35,1850.56 L2100.46,1842.75 L2102.72,1841.94 L2104.24,1840.61 L2106.57,1839.08 L2108.5,1838.53 L2110.32,1838.84 L2111.66,1839.4 L2113.78,1837.66 L2116.65,1834.62 L2117.45,1832.14 L2118.34,1830.61 L2118.93,1830.03 L2120.28,1829.53 L2120.69,1829.09 L2122.29,1824.23 L2124.08,1822.16 L2126.16,1821.43 L2130.5,1821.47 L2131.19,1822.68 L2131.65,1823.01 L2132.97,1823.07"/>
  </g>
  <g stroke-width="1" transform="matrix(0.999744,0,0,0.999744,0,0)" stroke-opacity="1" font-size="34.5833" fill="none" stroke-linejoin="bevel" font-style="normal" stroke-linecap="square" stroke="#000000" font-family="MS Shell Dlg 2" font-weight="400"/>
  <g stroke-width="1" transform="matrix(11.808,0,0,11.808,0,0)" stroke-opacity="1" font-size="34.5833" fill="none" stroke-linejoin="bevel" font-style="normal" stroke-linecap="square" stroke="#000000" font-family="MS Shell Dlg 2" font-weight="400"/>
  <g stroke-width="1" transform="matrix(11.808,0,0,11.808,0,0)" stroke-opacity="1" font-size="34.5833" fill="none" stroke-linejoin="bevel" font-style="normal" stroke-linecap="square" stroke="#000000" font-family="MS Shell Dlg 2" font-weight="400"/>
  <g stroke-width="1" transform="matrix(11.808,0,0,11.808,0,0)" stroke-opacity="1" font-size="34.5833" fill="none" stroke-linejoin="bevel" font-style="normal" stroke-linecap="square" stroke="#000000" font-family="MS Shell Dlg 2" font-weight="400"/>
  <g stroke-width="1" transform="matrix(1,0,0,1,0,0)" stroke-opacity="1" font-size="34.5833" fill="none" stroke-linejoin="bevel" font-style="normal" stroke-linecap="square" stroke="#000000" font-family="MS Shell Dlg 2" font-weight="400"/>
  <g stroke-width="1" transform="matrix(11.808,0,0,11.808,0,0)" stroke-opacity="1" font-size="34.5833" fill="none" stroke-linejoin="bevel" font-style="normal" stroke-linecap="square" stroke="#000000" font-family="MS Shell Dlg 2" font-weight="400"/>
  <g stroke-width="1" transform="matrix(11.808,0,0,11.808,0,0)" stroke-opacity="1" font-size="34.5833" fill="none" stroke-linejoin="bevel" font-style="normal" stroke-linecap="square" stroke="#000000" font-family="MS Shell Dlg 2" font-weight="400"/>
  <g stroke-width="1" transform="matrix(11.808,0,0,11.808,0,0)" stroke-opacity="1" font-size="34.5833" fill="none" stroke-linejoin="bevel" font-style="normal" stroke-linecap="square" stroke="#000000" font-family="MS Shell Dlg 2" font-weight="400"/>
  <g stroke-width="1" transform="matrix(11.808,0,0,11.808,0,0)" stroke-opacity="1" font-size="34.5833" fill="none" stroke-linejoin="bevel" font-style="normal" stroke-linecap="square" stroke="#000000" font-family="MS Shell Dlg 2" font-weight="400"/>
  <g stroke-width="1" transform="matrix(1,0,0,1,0,0)" stroke-opacity="1" font-size="34.5833" fill="none" stroke-linejoin="bevel" font-style="normal" stroke-linecap="square" stroke="#000000" font-family="MS Shell Dlg 2" font-weight="400"/>
 </g>
</svg>
