<?xml version='1.0' encoding='UTF-8' standalone='no'?>
<svg width="249.936mm" version="1.2" viewBox="0 0 2952 2952" baseProfile="tiny" xmlns="http://www.w3.org/2000/svg" height="249.936mm" xmlns:xlink="http://www.w3.org/1999/xlink">
 <title>Qt SVG Document</title>
 <desc>Generated with Qt</desc>
 <defs/>
 <g fill="none" stroke="black" fill-rule="evenodd" stroke-width="1" stroke-linecap="square" stroke-linejoin="bevel">
  <g font-size="34.5833" font-style="normal" fill="none" stroke="#000000" transform="matrix(1,0,0,1,0,0)" font-family="MS Shell Dlg 2" stroke-opacity="1" stroke-width="1" stroke-linecap="square" font-weight="400" stroke-linejoin="bevel"/>
  <g font-size="34.5833" font-style="normal" fill="none" stroke="#000000" transform="matrix(1,0,0,1,0,0)" font-family="MS Shell Dlg 2" stroke-opacity="1" stroke-width="1" stroke-linecap="square" font-weight="400" stroke-linejoin="bevel"/>
  <g font-size="34.5833" font-style="normal" fill="none" stroke="#000000" transform="matrix(11.808,0,0,11.808,0,0)" font-family="MS Shell Dlg 2" stroke-opacity="1" stroke-width="1" stroke-linecap="square" font-weight="400" stroke-linejoin="bevel"/>
  <g font-size="34.5833" font-style="normal" fill="none" stroke="#000000" transform="matrix(0.999744,0,0,0.999744,0,0)" font-family="MS Shell Dlg 2" stroke-opacity="1" stroke-width="1" stroke-linecap="square" font-weight="400" stroke-linejoin="bevel"/>
  <g font-size="34.5833" font-style="normal" fill="#ffffff" stroke="none" transform="matrix(0.999744,0,0,0.999744,0,0)" font-family="MS Shell Dlg 2" fill-opacity="0" font-weight="400">
   <path vector-effect="none" d="M-2,-2 L2955,-2 L2955,2955 L-2,2955 L-2,-2" fill-rule="evenodd"/>
  </g>
  <g font-size="34.5833" font-style="normal" fill="none" stroke="#000000" transform="matrix(0.999744,0,0,0.999744,0,0)" font-family="MS Shell Dlg 2" stroke-opacity="1" stroke-width="1" stroke-linecap="square" font-weight="400" stroke-linejoin="bevel"/>
  <g font-size="34.5833" font-style="normal" fill="none" stroke="#000000" transform="matrix(11.808,0,0,11.808,0,0)" font-family="MS Shell Dlg 2" stroke-opacity="1" stroke-width="1" stroke-linecap="square" font-weight="400" stroke-linejoin="bevel"/>
  <g font-size="34.5833" font-style="normal" fill="none" stroke="#000000" transform="matrix(11.808,0,0,11.808,0,0)" font-family="MS Shell Dlg 2" stroke-opacity="1" stroke-width="1" stroke-linecap="square" font-weight="400" stroke-linejoin="bevel"/>
  <g font-size="34.5833" font-style="normal" fill="none" stroke="#000000" transform="matrix(11.808,0,0,11.808,0,0)" font-family="MS Shell Dlg 2" stroke-opacity="1" stroke-width="1" stroke-linecap="square" font-weight="400" stroke-linejoin="bevel"/>
  <g font-size="34.5833" font-style="normal" fill="none" stroke="#000000" transform="matrix(11.808,0,0,11.808,0,0)" font-family="MS Shell Dlg 2" stroke-opacity="1" stroke-width="1" stroke-linecap="square" font-weight="400" stroke-linejoin="bevel"/>
  <g font-size="34.5833" font-style="normal" fill="none" stroke="#000000" transform="matrix(11.808,0,0,11.808,0,0)" font-family="MS Shell Dlg 2" stroke-opacity="1" stroke-width="1" stroke-linecap="square" font-weight="400" stroke-linejoin="bevel"/>
  <g font-size="34.5833" font-style="normal" fill="#ffffff" stroke="none" transform="matrix(11.808,0,0,11.808,0,0)" font-family="MS Shell Dlg 2" fill-opacity="0" font-weight="400">
   <path vector-effect="none" d="M0,0 L250,0 L250,250 L0,250 L0,0" fill-rule="evenodd"/>
  </g>
  <g font-size="34.5833" font-style="normal" fill="none" stroke="#000000" transform="matrix(11.808,0,0,11.808,0,0)" font-family="MS Shell Dlg 2" stroke-opacity="1" stroke-width="1" stroke-linecap="square" font-weight="400" stroke-linejoin="bevel"/>
  <g font-size="34.5833" font-style="normal" fill="none" stroke="#000000" transform="matrix(11.808,0,0,11.808,0,0)" font-family="MS Shell Dlg 2" stroke-opacity="1" stroke-width="1" stroke-linecap="square" font-weight="400" stroke-linejoin="bevel"/>
  <g font-size="34.5833" font-style="normal" fill="#000000" stroke="none" transform="matrix(0.999744,0,0,0.999744,0,0)" font-family="MS Shell Dlg 2" fill-opacity="0" font-weight="400">
   <rect width="2953" x="0" y="0" height="2953"/>
  </g>
  <g font-size="34.5833" font-style="normal" fill="none" stroke="#000000" transform="matrix(0.999744,0,0,0.999744,0,0)" font-family="MS Shell Dlg 2" stroke-opacity="1" stroke-width="1" stroke-linecap="square" font-weight="400" stroke-linejoin="bevel"/>
  <g font-size="34.5833" font-style="normal" fill="#c5c5c5" stroke="#5c5c5c" transform="matrix(0.999744,0,0,0.999744,0,0)" font-family="MS Shell Dlg 2" fill-opacity="1" stroke-opacity="1" stroke-width="3.07087" stroke-linecap="square" font-weight="400" stroke-linejoin="bevel">
   <path vector-effect="none" d="M1610.96,337.592 L1613.18,334.954 L1615.94,331.068 L1617.15,330.032 L1626.83,334.551 L1630.56,336.291 L1633.11,337.871 L1633.78,338.284 L1635.08,339.079 L1638.59,341.222 L1639.81,342.091 L1645.41,346.093 L1648.42,348.572 L1651.08,350.764 L1655.58,355.027 L1657.7,357.034 L1658.48,357.845 L1659.16,358.545 L1661.66,361.095 L1663.83,363.306 L1665.3,365.962 L1665.98,367.19 L1675.13,375.907 L1675.57,376.331 L1681.44,383.759 L1682.19,384.939 L1685.98,390.958 L1686.77,392.218 L1686.89,392.557 L1687.53,394.344 L1688.35,396.65 L1689.3,399.322 L1690.33,405.132 L1690.63,406.861 L1691.1,411.98 L1691.13,412.322 L1691.28,416.212 L1691.36,418.305 L1691.49,421.636 L1689.89,429.843 L1689.29,432.309 L1688.98,433.547 L1687.66,436.494 L1685.44,441.477 L1682.93,445.065 L1682.84,445.187 L1679.59,449.661 L1677.09,453.109 L1675.97,454.532 L1674.87,455.926 L1669.79,461.499 L1664.89,465.948 L1661.12,467.722 L1658.81,468.599 L1654.74,470.148 L1649.07,471.602 L1647.07,472.09 L1643.83,471.808 L1640.26,471.497 L1635.3,471.023 L1634.28,471.123 L1633.29,471.223 L1615.93,472.937 L1612.08,472.864 L1609.06,472.808 L1608.62,472.803 L1608.23,472.798 L1603.15,473.05 L1596.61,473.374 L1591.77,474.167 L1586.14,475.089 L1575.81,476.771 L1575.66,476.795 L1575.57,476.811 L1573.82,477.197 L1571.23,477.769 L1570.67,477.892 L1570.19,477.999 L1565.97,478.932 L1560.69,480.368 L1558.16,481.055 L1554.73,481.353 L1553.58,482.608 L1553.26,482.964 L1551.84,484.507 L1550.7,485.368 L1549.68,486.141 L1547.44,487.835 L1546.32,488.615 L1542.93,490.974 L1541.27,492.026 L1537.04,494.695 L1535.47,495.691 L1534.03,496.905 L1534,496.932 L1530.76,499.679 L1530.32,500.055 L1525.29,505.182 L1523.73,507.21 L1523.37,507.747 L1520.37,511.946 L1520.03,512.483 L1519.48,513.358 L1518.81,514.544 L1517.26,517.356 L1517.21,517.433 L1517.06,517.858 L1515.36,522.527 L1514.3,526.485 L1513.86,528.299 L1513.54,529.916 L1512.69,534.214 L1512.2,540.785 L1512.02,544.83 L1512.03,545.14 L1512.04,545.324 L1512,548.155 L1512.14,550.291 L1512.64,553.655 L1512.93,555.571 L1514.23,561.196 L1515.28,564.775 L1515.52,565.58 L1515.77,566.066 L1516.79,568.053 L1518.14,570.705 L1520.56,575.402 L1522.55,579.087 L1523.55,580.946 L1523.97,581.724 L1524.68,583.186 L1524.75,583.313 L1525.06,583.956 L1525.76,585.053 L1526.3,585.888 L1528.85,588.293 L1530.5,589.849 L1543.02,601.628 L1546.63,604.921 L1552.15,609.456 L1555.77,612.605 L1555.95,612.764 L1558.01,614.553 L1559.45,615.534 L1568.04,621.387 L1573.85,625.031 L1574.32,625.318 L1574.88,625.662 L1575.34,625.939 L1575.47,626.015 L1580.29,629.561 L1583.35,631.809 L1584.1,632.359 L1586.14,633.728 L1592.42,637.925 L1592.87,638.238 L1596.73,640.893 L1605.44,646.302 L1605.7,646.467 L1610.26,649.46 L1610.84,649.907 L1613.55,652.017 L1616.89,654.608 L1617.03,654.718 L1629.14,648.076 L1629.25,648.017 L1629.59,647.929 L1629.9,647.845 L1630.05,647.796 L1630.17,647.76 L1630.75,647.855 L1631.56,647.987 L1631.68,648.03 L1632.52,648.347 L1633.5,648.719 L1642.72,652.893 L1644.52,654.021 L1644.69,654.148 L1645.46,654.717 L1646.45,655.455 L1648.22,657.099 L1649.64,658.407 L1651.51,660.144 L1653.49,661.997 L1654.96,663.367 L1659.82,668.139 L1664.43,672.663 L1666.24,673.975 L1669.21,676.122 L1672,677.7 L1673.12,678.18 L1673.84,678.489 L1674.85,678.779 L1675.48,678.96 L1676.2,679.184 L1676.64,679.319 L1676.72,679.36 L1676.8,679.408 L1677.68,679.553 L1677.83,679.576 L1679.4,679.836 L1679.92,679.993 L1680.61,680.206 L1681.34,680.392 L1682.17,680.606 L1685.58,681.487 L1685.83,681.482 L1686.55,681.621 L1689.78,682.241 L1691.15,682.574 L1692.26,682.844 L1695.99,683.444 L1698.43,683.838 L1704.46,684.807 L1706.7,685.285 L1708.9,685.754 L1711.92,686.396 L1714.63,686.842 L1717.97,687.392 L1720.78,687.666 L1725.9,688.164 L1736.24,689.169 L1739.85,689.793 L1739.91,689.804 L1740.16,689.861 L1742.06,690.289 L1742.21,690.322 L1742.6,690.406 L1744.19,691.038 L1745.45,691.8 L1745.91,692.146 L1747.73,693.528 L1749.59,694.943 L1751.8,697.045 L1753.54,698.707 L1754.06,699.166 L1755.36,700.33 L1755.51,700.465 L1756.59,701.428 L1757.12,703.732 L1759.43,713.699 L1773.71,716.716 L1784.33,718.96 L1789.56,719.194 L1798.01,719.572 L1802.37,719.756 L1816.74,719.621 L1832.43,723.928 L1842.99,728.115 L1847.12,729.745 L1847.37,729.843 L1851.66,731.476 L1857.77,733.804 L1867.84,739.652 L1875.05,747.326 L1878.79,754.514 L1884.86,766.142 L1890.65,785.157 L1890.68,785.458 L1893.14,805.892 L1892.55,815.464 L1892.15,822.033 L1891.13,829.761 L1890.48,834.629 L1891.32,840.873 L1892.76,851.567 L1895.95,863.679 L1904.66,886.29 L1905.01,887.205 L1905.43,888.287 L1909.46,894.266 L1913.32,900.004 L1929.22,914.86 L1941.91,925.13 L1948.41,928.639 L1953.41,931.338 L1970.15,941.631 L1978.61,946.827 L2004.3,963.338 L2011.42,967.626 L2017.55,971.326 L2019.62,972.572 L2020.01,972.804 L2037.83,981.701 L2040.77,983.071 L2041.27,983.305 L2043.85,984.509 L2048.34,986.601 L2055.82,989.231 L2057.78,989.919 L2059.63,990.57 L2075.69,996.179 L2080.75,997.656 L2092.16,1000.99 L2095.22,1001.88 L2096.93,1002.38 L2099.77,1003.98 L2101.06,1004.71 L2102.05,1005.26 L2102.61,1005.66 L2108.36,1009.69 L2119.66,1017.62 L2119.8,1017.72 L2122.99,1019.97 L2127.91,1023.43 L2131.53,1025.98 L2134.32,1027.13 L2140.04,1029.49 L2145.15,1031.6 L2147.23,1032.46 L2147.28,1032.45 L2154.92,1031.72 L2156.89,1031.53 L2157.56,1031.64 L2158.01,1031.71 L2158.26,1031.75 L2159.01,1031.87 L2162.25,1032.4 L2166.67,1033.69 L2167,1033.79 L2170.48,1035.79 L2180.51,1041.54 L2180.77,1041.38 L2187.55,1037.13 L2189.61,1036.07 L2190.56,1035.58 L2193.06,1034.3 L2198.11,1032.89 L2202.95,1031.54 L2212.56,1030.04 L2220.41,1030.31 L2222.11,1030.11 L2223.57,1029.94 L2243.55,1025.2 L2254.47,1022.46 L2258.73,1020.99 L2268.8,1016.06 L2272.42,1014.52 L2280.12,1011.23 L2288.73,1009.76 L2292.93,1009.16 L2296.72,1008.61 L2301.21,1006.76 L2306.02,1005.49 L2309.2,1004.65 L2311.31,1003.59 L2316.59,1000.93 L2321.89,999.299 L2322.79,998.216 L2323.68,997.239 L2324.33,996.532 L2325.3,995.304 L2325.43,995.14 L2326.27,993.808 L2327.6,992.488 L2327.9,992.241 L2329.02,991.321 L2330.58,990.275 L2331.87,989.415 L2333.46,988.483 L2334.04,988.186 L2334.98,987.706 L2338.73,985.983 L2339.42,985.607 L2344.04,983.106 L2344.91,982.3 L2345.62,981.907 L2350.46,979.004 L2353.16,977.615 L2354.88,976.657 L2356.66,976.186 L2357.39,975.925 L2361.62,974.986 L2365.02,974.262 L2366.98,973.836 L2368.54,973.708 L2370.58,973.912 L2374.44,973.876 L2376.42,974.191 L2377.48,974.458 L2378.47,974.708 L2380.48,975.04 L2383.71,975.577 L2385.11,975.74 L2387.91,976.265 L2389.2,976.782 L2389.47,977.043 L2389.89,977.449 L2390.18,977.559 L2390.43,977.657 L2390.73,977.711 L2390.85,977.961 L2391.06,977.977 L2391.28,977.994 L2391.67,978.624 L2392.42,978.967 L2393.43,979.755 L2394.12,980.394 L2395.01,981.221 L2395.45,981.582 L2395.89,981.938 L2396.66,982.621 L2396.71,982.702 L2397.22,983.44 L2398.06,983.855 L2398.48,984.057 L2398.67,984.065 L2399.13,984.086 L2399.77,984.661 L2400.58,985.393 L2401.1,986.176 L2401.16,986.493 L2401.14,986.836 L2401.3,987.106 L2401.39,987.098 L2401.6,987.079 L2402.55,988.157 L2403.76,989.535 L2405.61,991.74 L2407.08,994.013 L2407.09,994.042 L2408.64,998.354 L2408.77,998.983 L2409.1,999.222 L2409.14,999.431 L2409.03,999.745 L2409.11,1000.03 L2409.37,1001.96 L2409.63,1003.37 L2409.59,1003.66 L2409.56,1003.86 L2409.66,1005.19 L2409.77,1005.29 L2409.9,1005.42 L2409.92,1005.69 L2409.79,1005.96 L2409.97,1007.07 L2409.97,1007.25 L2409.96,1007.51 L2410.02,1009.17 L2409.91,1010.06 L2410.06,1010.48 L2410.05,1010.96 L2410.09,1011.18 L2410.14,1011.4 L2409.96,1011.84 L2409.96,1012.29 L2409.85,1013.34 L2409.66,1014.03 L2409.56,1014.96 L2409.05,1016.82 L2409,1017.23 L2408.71,1017.76 L2408.66,1018.06 L2408.59,1018.41 L2408.41,1018.67 L2408.37,1018.91 L2408.31,1019.24 L2407.92,1020.24 L2407.71,1021.04 L2406.59,1023.76 L2406.25,1024.4 L2406.23,1024.47 L2406.03,1025.12 L2405.81,1025.48 L2405.67,1025.71 L2405.3,1026.47 L2405.01,1027.06 L2404.75,1027.32 L2404.37,1027.71 L2403.93,1028.19 L2403.64,1028.49 L2403.3,1029.09 L2402.86,1029.92 L2402.29,1030.99 L2402.25,1031.15 L2402.21,1031.34 L2401.08,1033.67 L2400.39,1035.11 L2399.84,1036.29 L2399.7,1036.6 L2399.31,1037.49 L2398.89,1038.29 L2397.63,1041.09 L2397.09,1042.39 L2396.3,1044.29 L2395.74,1046.14 L2394.35,1048.99 L2392.09,1054.22 L2391.56,1054.86 L2391.01,1056.02 L2384.99,1063.07 L2382.2,1066.28 L2381.4,1067.46 L2380.27,1069.12 L2378.31,1072.36 L2377.58,1073.47 L2376.44,1074.98 L2372.05,1080.93 L2371.86,1081.23 L2371.22,1082.3 L2370.63,1083.43 L2369.98,1084.56 L2369.45,1085.84 L2368.25,1088.51 L2367.59,1090 L2366.42,1093.08 L2366.04,1094.1 L2365.11,1096.63 L2364.35,1098.69 L2362.75,1103.4 L2362.71,1103.51 L2362.67,1103.63 L2361.42,1107.59 L2360.7,1109.9 L2359.91,1113.78 L2359.69,1116.24 L2359.74,1116.67 L2360,1119.09 L2360.42,1121.04 L2360.79,1122.71 L2361.78,1124.19 L2362.81,1125.58 L2364.31,1127.62 L2364.98,1128.63 L2365.83,1129.92 L2368.57,1132.78 L2369.33,1133.57 L2370.29,1134.3 L2372.95,1136.36 L2377.37,1137.19 L2380.73,1138.48 L2381.67,1138.61 L2382.1,1138.67 L2382.58,1138.74 L2385.96,1139.83 L2387.07,1140.19 L2390.8,1141.57 L2392.75,1142.29 L2393.34,1142.54 L2396.51,1143.85 L2414.75,1151.28 L2417.44,1152.37 L2421.47,1153.81 L2429.42,1156.64 L2437.19,1158.41 L2439.15,1158.86 L2444.68,1160.12 L2448.52,1161.01 L2466.91,1161.61 L2472.7,1161.36 L2478.93,1161.09 L2480.95,1161.18 L2483.61,1161.29 L2491,1162.21 L2492.59,1162.49 L2495.31,1162.96 L2497.95,1163.46 L2500.64,1163.97 L2505.95,1164.11 L2510.64,1165.09 L2514.86,1166.18 L2522.15,1167.61 L2523.07,1167.73 L2524.41,1167.94 L2529,1168.26 L2529.91,1168.32 L2533.44,1168.85 L2539.61,1169.77 L2543.5,1170.19 L2547.63,1170.65 L2556.21,1171.62 L2560.32,1172.24 L2564.23,1172.82 L2564.48,1172.86 L2564.67,1172.84 L2566.96,1172.6 L2568.63,1172.43 L2569.19,1172.38 L2572,1172.81 L2574.87,1173.2 L2577.81,1173.57 L2579.78,1173.67 L2581.22,1173.74 L2582.33,1173.8 L2583.65,1173.87 L2584.77,1173.96 L2585.17,1174 L2585.3,1174.01 L2586.78,1174.14 L2587.92,1174.42 L2589.59,1174.85 L2592.4,1175.66 L2592.63,1175.73 L2595.17,1176.54 L2595.81,1176.64 L2596.76,1176.9 L2598.12,1177.28 L2601.07,1178.07 L2604.6,1178.85 L2606.52,1179.28 L2607.2,1179.55 L2608.42,1180.08 L2610.63,1180.26 L2613.5,1180.66 L2615.24,1180.86 L2615.65,1180.92 L2616.22,1181.01 L2617.07,1181.04 L2618.15,1181.07 L2619.09,1181.2 L2620.71,1181.12 L2621.11,1181.11 L2623.97,1181.36 L2626.97,1181.58 L2628.53,1181.77 L2629.95,1181.94 L2632.83,1182.28 L2635.66,1182.34 L2638.43,1182.14 L2640.78,1181.97 L2644.25,1181.91 L2646.78,1181.62 L2646.93,1181.6 L2647.08,1181.59 L2649.84,1181.42 L2652.64,1181.29 L2653.64,1181.2 L2655.57,1181.04 L2655.84,1180.99 L2656.9,1180.81 L2658.33,1180.56 L2660.25,1180.04 L2661.05,1179.83 L2663.82,1179.38 L2664.8,1178.83 L2665.29,1178.56 L2665.94,1178.74 L2666.53,1178.9 L2676.7,1178.64 L2692.33,1178.24 L2696.86,1178.13 L2701.18,1178.02 L2705.47,1177.91 L2723.19,1176.99 L2744.89,1175.88 L2778.93,1172.69 L2784.35,1172.61 L2787.3,1172.56 L2815.57,1173.01 L2824.24,1172.53 L2841.14,1171.22 L2841.27,1172.76 L2841.35,1173.5 L2841.32,1175.86 L2841.29,1178.48 L2841.29,1178.86 L2841.49,1181.54 L2841.89,1184.59 L2842,1185.5 L2842.17,1186.93 L2844.02,1199.02 L2844.13,1199.43 L2844.53,1201 L2844.7,1202.18 L2845.16,1205.34 L2845.26,1206.03 L2845.29,1206.27 L2845.4,1206.88 L2845.61,1208.01 L2846.08,1209.04 L2848.62,1214.58 L2848.86,1215.1 L2848.91,1215.25 L2849.43,1216.63 L2849.64,1216.98 L2849.76,1217.17 L2850.27,1217.98 L2851.52,1220.89 L2852.59,1223.35 L2854.64,1228.03 L2856.41,1232.08 L2858.06,1234.83 L2858.1,1234.95 L2858.75,1236.96 L2859.18,1237.98 L2859.08,1239.12 L2859.15,1239.25 L2860.26,1240.59 L2860.8,1241.32 L2862.7,1243.95 L2863.05,1245.47 L2863.74,1245.45 L2864.57,1246.6 L2867.03,1250.02 L2867.99,1251.22 L2869,1252.66 L2869.93,1253.97 L2869.86,1254.18 L2870.61,1255.06 L2870.48,1255.28 L2870.55,1255.39 L2870.59,1255.45 L2872.61,1257.58 L2873.41,1259.03 L2873.71,1259.59 L2875.27,1262.42 L2875.84,1263.55 L2877.36,1265.99 L2879.18,1268.92 L2881.2,1272.19 L2882.1,1273.55 L2882.74,1274.53 L2883.64,1275.9 L2884.45,1277.13 L2884.99,1278.02 L2885.52,1279.03 L2885.73,1279.43 L2885.98,1279.92 L2886.68,1280.74 L2886.7,1280.76 L2887.49,1282.01 L2887.62,1282.2 L2887.8,1282.48 L2888.3,1283.35 L2888.7,1284.05 L2889.5,1285.45 L2890,1286.43 L2890.05,1286.5 L2892.26,1289.81 L2892.63,1290.28 L2892.83,1290.54 L2893.98,1292.33 L2897.22,1297.37 L2897.62,1298.26 L2897.81,1298.68 L2898.03,1299.15 L2898.17,1299.35 L2898.57,1299.95 L2898.8,1300.2 L2899.28,1300.71 L2900.21,1301.98 L2902.05,1304.78 L2902.5,1305.58 L2903.15,1306.71 L2904.35,1308.45 L2904.73,1309.06 L2905.56,1310.38 L2906.67,1311.87 L2907.97,1313.59 L2910.84,1318.45 L2911.07,1318.81 L2911.41,1319.33 L2912.73,1321.32 L2913.56,1322.35 L2914.2,1323.14 L2916.62,1326.76 L2918,1329.18 L2916.25,1330.41 L2916.24,1330.41 L2910.38,1334.51 L2903.58,1338.68 L2902.14,1339.41 L2894.76,1339.68 L2890.11,1339.86 L2886.86,1339.85 L2885.45,1340.72 L2885.13,1340.87 L2884.86,1340.99 L2884.6,1341.05 L2884.25,1341.12 L2884.07,1341.1 L2883.84,1341.07 L2883.62,1340.96 L2883.22,1340.76 L2883.04,1341.03 L2882.72,1341.52 L2882.67,1341.58 L2882.14,1343 L2881.94,1343.81 L2881.73,1344.63 L2881.7,1344.93 L2881.51,1346.76 L2881.5,1347.48 L2881.5,1347.67 L2881.27,1348.83 L2881.18,1349.28 L2881.31,1350.21 L2881.35,1350.53 L2881.53,1351.8 L2881.65,1352.69 L2881.66,1352.77 L2881.64,1352.83 L2881.5,1353.27 L2881.47,1353.35 L2881.28,1353.95 L2881.11,1353.91 L2880.74,1353.85 L2880.15,1354.41 L2878.58,1355.34 L2878.26,1355.68 L2877.92,1356.3 L2876.21,1359.42 L2867.14,1362.51 L2866.9,1362.08 L2866.78,1361.87 L2866.67,1361.86 L2866.46,1361.85 L2861.6,1364.17 L2862.19,1367.13 L2863.03,1371.26 L2863.94,1375.22 L2865.3,1381.19 L2867.19,1385.67 L2867.9,1387.35 L2871.36,1395.45 L2872.01,1397.66 L2872.13,1398.09 L2872.28,1398.13 L2872.51,1398.21 L2872.86,1399.27 L2872.92,1399.76 L2872.95,1400 L2873.16,1401.66 L2873.38,1402.79 L2873.95,1404.03 L2874.44,1404.6 L2875.09,1405.37 L2876.07,1406.21 L2877.54,1410.74 L2878.06,1412.32 L2878.76,1413.1 L2879.26,1413.65 L2880.08,1415.54 L2883.73,1423.94 L2883.87,1424.37 L2884.1,1425.09 L2883.22,1426.53 L2881.95,1427.35 L2881.1,1427.23 L2880.33,1427.58 L2879.74,1428.02 L2877.03,1429.39 L2875.22,1430.11 L2870.08,1433.42 L2869.11,1434.24 L2867.81,1435.31 L2862.71,1441.37 L2862.16,1441.64 L2861.21,1441.83 L2860.56,1441.96 L2859.43,1442.43 L2858.49,1443.07 L2857.96,1443.51 L2857.3,1444.04 L2856.8,1444.28 L2856.34,1444.5 L2855.52,1445.12 L2855.41,1445.22 L2854.11,1446.29 L2853.5,1446.8 L2853.24,1446.89 L2850.88,1447.78 L2849.48,1448.31 L2848.72,1448.21 L2847.13,1447.96 L2846.62,1448.02 L2842.27,1448.52 L2842.24,1448.52 L2841.25,1449.06 L2840.7,1449.35 L2840.21,1449.93 L2839.48,1450.79 L2838.89,1451.33 L2838.56,1451.47 L2837.99,1451.7 L2837.63,1451.84 L2836.33,1452.99 L2835.7,1453.35 L2835.53,1453.44 L2834.7,1454.71 L2834.58,1454.83 L2834.08,1455.3 L2833.49,1455.36 L2832.33,1453.15 L2830.58,1452.26 L2828.25,1451.44 L2826.84,1451.08 L2824.89,1450.95 L2822.16,1450.58 L2820.72,1450.23 L2820.53,1450.19 L2818.75,1449.46 L2818.66,1449.42 L2818.28,1449.26 L2812.53,1445.57 L2812.35,1445.29 L2812.01,1444.78 L2811.15,1444.45 L2810.6,1444.24 L2810.08,1444.04 L2808.53,1443.75 L2807.8,1443.44 L2807.4,1443.27 L2806.9,1443.18 L2806.65,1443.14 L2806.3,1443.08 L2805.81,1442.81 L2805.74,1442.74 L2805.66,1442.67 L2805.42,1442.45 L2805.34,1442.17 L2805.23,1441.76 L2803.01,1441.64 L2801.97,1441.24 L2801.44,1441.17 L2800.94,1441.28 L2800.31,1441.41 L2799.67,1441.38 L2797.82,1440.41 L2797.52,1440.25 L2797.4,1440.22 L2795.4,1439.7 L2794.68,1439.18 L2793.78,1438.86 L2792.87,1438.53 L2792.1,1438.16 L2791.43,1437.62 L2791.31,1437.52 L2790.64,1437.28 L2789.22,1436.77 L2789.1,1436.72 L2788.07,1436.63 L2786.72,1436.28 L2785.41,1435.94 L2784.93,1436.32 L2784.81,1436.42 L2784.11,1436.98 L2783.89,1437.06 L2782.39,1437.63 L2781.69,1437.35 L2781.4,1437.34 L2781.24,1437.33 L2780.57,1437.82 L2780.42,1437.79 L2779.84,1437.69 L2775.49,1435.44 L2774.56,1435.26 L2773.78,1435.11 L2773.28,1434.98 L2772.81,1434.86 L2771.94,1434.63 L2771.69,1434.63 L2771.47,1434.63 L2771.39,1434.62 L2771.11,1434.59 L2770.91,1434.54 L2770.91,1434.54 L2770.82,1434.52 L2770.19,1434.36 L2769.92,1434.25 L2769.7,1434.16 L2769.2,1433.79 L2768.82,1433.51 L2768.18,1433.32 L2768.17,1433.32 L2767.91,1433.32 L2767.4,1433.31 L2766.01,1432.76 L2764.96,1432.14 L2763.25,1431.15 L2761.69,1430.26 L2760.29,1429.17 L2758.94,1428.68 L2758.84,1428.64 L2758.73,1428.62 L2757.56,1428.39 L2756.62,1428.21 L2753.69,1427.67 L2751.75,1427.13 L2751.06,1426.94 L2749.52,1426.5 L2747.74,1425.54 L2747.14,1425.25 L2745.33,1424.65 L2744.58,1424.41 L2744.09,1424.29 L2742.62,1423.95 L2742.39,1423.9 L2742.06,1423.89 L2741.6,1423.87 L2741.56,1423.88 L2739.28,1424.5 L2738.94,1424.57 L2737.44,1424.91 L2736.76,1425.75 L2736.27,1427.13 L2735.76,1427.94 L2735.71,1428.01 L2734.83,1429.15 L2734.08,1429.77 L2733.25,1429.97 L2731.19,1430.1 L2731.06,1430.1 L2729.76,1430.11 L2729.48,1430.12 L2729.16,1430.13 L2726.74,1430.27 L2725.81,1430.32 L2722.16,1430.4 L2720.13,1430.61 L2718.93,1430.73 L2717.85,1431.25 L2716.72,1430.96 L2715.94,1430.13 L2715.55,1429.71 L2715.45,1429.6 L2715.28,1429.62 L2714.3,1429.67 L2712.72,1429.77 L2711.47,1430.46 L2709.95,1430.51 L2709.23,1430.75 L2707.89,1430.9 L2707.07,1430.82 L2700.45,1430.54 L2699.05,1430.5 L2698.66,1430.49 L2698.47,1430.33 L2698.03,1429.96 L2697.58,1432.41 L2697.09,1435 L2696.93,1435.84 L2695.71,1435.3 L2693.14,1434.15 L2690.98,1433.37 L2689.76,1432.93 L2687.27,1432.02 L2686.74,1431.8 L2686.52,1431.71 L2682.16,1429.63 L2679.97,1426.77 L2671.9,1415.29 L2671.79,1415.13 L2671.68,1415.29 L2670.77,1418.96 L2669.62,1423.6 L2658.04,1425.77 L2659.53,1431.01 L2659.62,1431.35 L2661.11,1436.62 L2650.49,1439.57 L2645.78,1440.88 L2645.71,1440.88 L2644.68,1440.97 L2644.69,1441.16 L2644.74,1443.09 L2644.93,1444.74 L2645.73,1458.42 L2645.79,1459.57 L2645.44,1459.56 L2639.42,1459.38 L2630.17,1459.12 L2628.62,1453.14 L2626.93,1446.64 L2622.85,1430.94 L2625.43,1428.13 L2624.26,1427.3 L2624.1,1427.47 L2624.04,1427.53 L2623.05,1427.16 L2620.93,1426.36 L2620.84,1426.41 L2620.1,1426.79 L2618.36,1427.53 L2617.84,1427.42 L2616.84,1426.74 L2615.94,1425.22 L2615.93,1425.2 L2615.45,1424.38 L2613.23,1423.53 L2613,1423.43 L2603.22,1419.67 L2601.83,1419.13 L2584.85,1413.29 L2579.87,1411.33 L2572.33,1408.36 L2574.52,1403.46 L2575.25,1401.46 L2576.19,1398.89 L2577.79,1395.12 L2580.18,1389.48 L2580.02,1389.46 L2580,1389.46 L2579.74,1387.43 L2579.68,1386.9 L2578.34,1385.3 L2577.73,1384.11 L2577.02,1383.81 L2576.06,1383.98 L2574.9,1381.31 L2573.78,1378.72 L2573.39,1377.68 L2572.73,1375.94 L2572.62,1375.66 L2572.44,1375.75 L2572.07,1375.94 L2571.04,1376.45 L2570.46,1376.74 L2569.96,1376.06 L2568.86,1374.55 L2568.54,1373.9 L2568.27,1373.36 L2568.34,1372.94 L2568.36,1372.82 L2568.28,1370.75 L2568.17,1370.59 L2568.01,1370.38 L2568.04,1368.49 L2568.08,1366.06 L2567.87,1365.16 L2564.77,1359.75 L2564.63,1359.2 L2564.48,1358.63 L2562.88,1355.48 L2562.59,1354.91 L2562.54,1354.47 L2562.51,1354.16 L2562.46,1353.75 L2562.56,1353.23 L2562.56,1353.22 L2562.5,1352.94 L2562.32,1352.21 L2562.3,1352.11 L2562.26,1351.98 L2562.03,1351.64 L2561.48,1350.84 L2560.24,1347.66 L2560.19,1347.32 L2559.75,1344.29 L2559.64,1343.99 L2559.48,1343.58 L2559.17,1342.8 L2559.04,1342.34 L2558.7,1341.2 L2558.06,1340.13 L2557.91,1339.37 L2557.52,1338.3 L2556.45,1335.22 L2555.88,1333.19 L2555.89,1332.07 L2555.57,1331.06 L2554.01,1327.91 L2552.81,1325.14 L2552.04,1322.81 L2549.58,1319.03 L2549.36,1318.69 L2548.68,1317.6 L2548.07,1315.43 L2547.82,1314.77 L2547.55,1314.04 L2547.45,1313.54 L2547.35,1313.04 L2547.29,1311.69 L2547.77,1310.55 L2547.59,1309.61 L2547.44,1308.89 L2547.42,1307.2 L2547.13,1304.3 L2546.99,1300.26 L2547.21,1298.86 L2547.59,1296.48 L2547.71,1295.64 L2547.79,1295.03 L2547.7,1293.91 L2547.66,1293.34 L2547.47,1292.29 L2546.65,1289.73 L2544.17,1284.08 L2543.71,1281.62 L2543.51,1281.39 L2543.4,1281.26 L2542.9,1280.9 L2542.46,1280.58 L2542.29,1280.17 L2542.13,1279.81 L2541.02,1280.07 L2540.84,1280 L2539.13,1279.4 L2537.34,1279.48 L2535.9,1279.55 L2534.62,1279.45 L2534.58,1279.45 L2534.41,1279.43 L2533.57,1279.69 L2533.47,1279.72 L2532.66,1279.96 L2532.47,1280.01 L2531.9,1280.18 L2530.72,1280.95 L2530.38,1281.08 L2529.17,1281.52 L2528.31,1281.76 L2527.1,1282.09 L2526.23,1282.15 L2524.43,1282.4 L2522.93,1282.62 L2521.17,1282.87 L2517.65,1282.8 L2516.29,1282.91 L2515.08,1282.77 L2514.91,1282.81 L2514.38,1282.92 L2513.68,1282.81 L2511.65,1283.62 L2510.79,1283.97 L2510.11,1284.38 L2507.77,1285.67 L2504.14,1285.65 L2503.4,1285.87 L2502.75,1286 L2501.18,1286.3 L2500.83,1286.29 L2499.81,1286.26 L2498.89,1286.17 L2498.08,1286.1 L2495.55,1286.47 L2494.82,1286.56 L2494.29,1286.62 L2492.99,1286.4 L2492.69,1286.26 L2492.14,1286.01 L2492.04,1285.96 L2491.51,1286.02 L2491.13,1286.06 L2491.06,1286.07 L2489,1286.74 L2486.38,1287.59 L2485.69,1287.67 L2484.11,1287.86 L2483.78,1287.9 L2483.13,1287.98 L2482.67,1288.08 L2481.61,1288.31 L2481.28,1288.28 L2480.98,1288.26 L2480.69,1288.25 L2480.64,1288.24 L2480.24,1288.24 L2477.62,1288.66 L2476.12,1288.58 L2475.19,1288.57 L2474.84,1288.57 L2472.39,1288.79 L2470.74,1288.98 L2468.23,1289.26 L2466.04,1289.51 L2464.71,1289.42 L2463.61,1289.34 L2461.52,1289.71 L2460.11,1289.96 L2459.77,1290.09 L2459.33,1290.26 L2456.91,1290.31 L2455.15,1290.35 L2454.86,1290.31 L2454.23,1290.23 L2452.99,1290.54 L2452.2,1290.74 L2450.12,1291.06 L2448.34,1291.15 L2447.81,1290.95 L2446.94,1290.63 L2446.67,1290.48 L2446.58,1290.43 L2446.01,1290.11 L2444.68,1288.01 L2444.45,1287.94 L2444.11,1287.83 L2443.17,1288.27 L2442.04,1288.81 L2441.63,1288.2 L2441.49,1287.99 L2441.45,1287.93 L2439.87,1286.82 L2439.14,1286.31 L2438.41,1285.57 L2437.41,1284.65 L2436.87,1284.15 L2436.32,1283.54 L2436.27,1283.48 L2434.21,1282.15 L2434.21,1282.3 L2434.35,1286.65 L2434.41,1288.56 L2435.57,1292.67 L2435.53,1292.87 L2435.33,1293.77 L2435.4,1293.98 L2436.63,1297.54 L2437.3,1299.63 L2436.7,1301.32 L2436.92,1302.21 L2437.03,1302.67 L2438.66,1304.53 L2439.03,1306.53 L2439.41,1308.54 L2439.7,1310.87 L2439.76,1311.31 L2440.17,1314.23 L2440.22,1314.43 L2441.16,1318.46 L2441.83,1321.31 L2442.5,1322.14 L2443.32,1323.37 L2443.8,1324.09 L2443.95,1324.21 L2447.71,1327.45 L2449.75,1329.21 L2450.6,1329.95 L2452.37,1331.48 L2448.53,1339.11 L2448.49,1339.18 L2448.14,1339.09 L2443.16,1337.94 L2441.19,1337.48 L2440.85,1337.4 L2440.68,1337.47 L2440.32,1337.62 L2439.03,1338.15 L2438.53,1337.74 L2438.13,1337.41 L2438.03,1337.51 L2437.93,1337.6 L2436.68,1336.92 L2436.45,1336.8 L2436.05,1336.85 L2435.77,1336.9 L2435.54,1336.93 L2434.09,1337.66 L2433.81,1337.94 L2433.6,1338.15 L2432.75,1339 L2431.98,1339.42 L2430.14,1340.42 L2429.98,1340.5 L2429.55,1340.64 L2429.48,1340.67 L2429.76,1341.23 L2429.94,1341.6 L2430.33,1342.6 L2430.8,1343.41 L2432.11,1346.38 L2433.26,1348.67 L2433.32,1348.79 L2433.49,1349.13 L2434.44,1350.99 L2434.98,1351.96 L2435.33,1352.59 L2436.9,1355.45 L2437.8,1356.9 L2438.65,1358.43 L2439.37,1359.4 L2439.94,1360.43 L2442.47,1364 L2442.88,1364.72 L2443.1,1365.09 L2445.57,1368.5 L2446.21,1369.45 L2447.03,1370.59 L2447.06,1370.65 L2447.51,1371.43 L2448.54,1372.82 L2449.5,1374.22 L2449.67,1374.48 L2451.39,1377.01 L2452.02,1377.88 L2452.82,1379.02 L2453.78,1380.67 L2454,1381.07 L2454.94,1382.8 L2455.36,1383.57 L2455.95,1384.68 L2457.52,1386.77 L2457.76,1387.06 L2458.14,1387.53 L2458.78,1388.44 L2459.66,1389.87 L2459.93,1390.24 L2460.06,1390.42 L2461.54,1392.48 L2462.93,1394.57 L2463.19,1394.91 L2463.7,1395.86 L2464.52,1397.1 L2464.93,1397.72 L2465.54,1398.64 L2465.78,1399.1 L2466.27,1400.06 L2466.97,1400.78 L2467.12,1400.94 L2467.33,1401.05 L2467.49,1401.13 L2467.36,1402.14 L2466.91,1402.38 L2466.49,1402.6 L2466.19,1403 L2466.16,1403.15 L2465.85,1404.46 L2465.53,1405.86 L2465.53,1406.95 L2465.45,1410.21 L2465.49,1410.65 L2465.56,1411.37 L2466.14,1412.82 L2466.07,1414.06 L2466.06,1414.27 L2466.15,1414.62 L2466.2,1414.82 L2466.28,1415.15 L2466.25,1415.2 L2465.97,1415.65 L2466.37,1416.87 L2466.43,1417.09 L2466.64,1417.8 L2467.38,1418.9 L2467.42,1418.95 L2467.44,1419 L2468.37,1421.5 L2470.4,1424.54 L2472.2,1427.71 L2472.69,1428.53 L2473.78,1430.38 L2474.14,1431.83 L2474.21,1432.1 L2474.25,1432.22 L2474.27,1432.27 L2474.28,1432.3 L2474.15,1432.31 L2474.07,1432.42 L2472.96,1432.26 L2471.76,1432.1 L2471.3,1432.03 L2470.95,1432.11 L2470.68,1432.16 L2470.41,1432.14 L2470.01,1432.11 L2467.88,1431.57 L2466.68,1430.78 L2466.3,1430.45 L2465.99,1429.98 L2465.69,1429.72 L2465.24,1429.45 L2464.84,1429.16 L2464.62,1429.01 L2464.43,1428.86 L2464.23,1428.7 L2463.89,1428.56 L2463.38,1428.34 L2462.66,1428.19 L2462.45,1428.16 L2462.37,1428.15 L2462.26,1428.1 L2462.02,1427.97 L2461.83,1427.95 L2461.59,1427.92 L2460.15,1427.19 L2459.52,1426.69 L2459.11,1426.58 L2458.98,1426.55 L2458.78,1426.49 L2458.53,1426.52 L2457.4,1426.65 L2457.11,1426.65 L2456.89,1426.66 L2456.45,1426.77 L2456.21,1426.93 L2456.15,1426.99 L2455.84,1427.28 L2455.63,1427.4 L2455.41,1427.52 L2455.35,1427.61 L2455.19,1427.86 L2455.03,1427.96 L2454.89,1428.05 L2454.46,1428.28 L2454.31,1428.37 L2453.76,1428.67 L2453.54,1428.96 L2453.27,1429.48 L2453.08,1430.19 L2452.92,1430.52 L2452.77,1430.85 L2452.54,1431.11 L2452.25,1431.44 L2451.99,1431.97 L2451.77,1432.28 L2451.62,1432.64 L2451.21,1433.27 L2450.94,1433.55 L2450.46,1434.04 L2450.24,1434.13 L2449.81,1434.3 L2449.36,1434.54 L2447.99,1434.83 L2447.54,1434.89 L2446.68,1434.79 L2444.48,1434.28 L2443.03,1433.17 L2442.1,1432.83 L2441.69,1432.69 L2440.76,1432.36 L2440.16,1432.64 L2440.03,1432.72 L2439.89,1432.81 L2439.54,1432.84 L2439.16,1432.87 L2436.58,1432.51 L2435.34,1432.28 L2434.47,1432.13 L2433.18,1431.89 L2432.61,1431.91 L2430.8,1431.99 L2430.45,1432.01 L2429.63,1432.19 L2428.23,1432.23 L2427.38,1432.19 L2426.56,1431.89 L2425.99,1431.73 L2425.59,1431.62 L2425.28,1431.59 L2424.5,1431.5 L2423.29,1431.4 L2422.68,1431.33 L2422.22,1431.28 L2421.85,1431.23 L2421.4,1431.24 L2421.35,1431.25 L2420.93,1431.26 L2420.58,1431.2 L2419.88,1431.07 L2419.51,1431.05 L2418.98,1430.9 L2418.3,1430.71 L2418.02,1430.5 L2418.02,1430.5 L2417.77,1430.32 L2417.49,1429.95 L2417.17,1429.54 L2416.74,1428.84 L2416.22,1427.38 L2415.58,1426.46 L2415.36,1425.97 L2415.3,1425.9 L2414.98,1425.53 L2414.7,1425.33 L2413.89,1424.74 L2413.8,1424.69 L2413.73,1424.66 L2413.63,1424.62 L2413.08,1424.22 L2412.98,1424.15 L2412.3,1423.96 L2411.73,1423.61 L2411.56,1423.5 L2410.87,1423.38 L2410.4,1423.08 L2410.08,1422.83 L2409.77,1422.59 L2409.7,1422.44 L2409.56,1422.12 L2409.5,1421.28 L2409.72,1420.73 L2409.91,1419.66 L2409.78,1419.23 L2409.67,1418.83 L2409.47,1418.68 L2409.42,1418.64 L2409.13,1418.12 L2409.01,1417.88 L2408.92,1417.69 L2408.87,1417.63 L2408.61,1417.34 L2408.16,1416.83 L2407.92,1416.5 L2406.94,1415.15 L2406.7,1414.93 L2405.88,1414.25 L2405.05,1413.41 L2403.66,1412.49 L2402.68,1412.53 L2402.5,1412.56 L2402.03,1413.15 L2401.86,1413.43 L2401.42,1413.63 L2401.26,1413.68 L2401.07,1413.73 L2400.86,1413.76 L2400.72,1413.78 L2400.72,1413.78 L2400.35,1413.74 L2400.32,1413.73 L2400.13,1413.68 L2399.66,1413.54 L2398.79,1413.38 L2397.63,1413.52 L2396.8,1413.62 L2396.47,1413.65 L2395.81,1413.68 L2395.6,1413.65 L2395.32,1413.62 L2394.82,1413.63 L2394.68,1413.63 L2394.3,1413.74 L2394.2,1413.84 L2394.11,1413.94 L2393.7,1414.16 L2393.31,1414.39 L2392.63,1415.06 L2392.21,1415.59 L2392.19,1415.62 L2392.12,1415.65 L2392.01,1415.69 L2391.75,1415.6 L2391.65,1415.58 L2391.51,1415.55 L2391.5,1415.55 L2391.13,1415.62 L2390.76,1415.54 L2390.48,1415.33 L2390.39,1415.1 L2390.19,1414.96 L2389.63,1414.72 L2389.44,1414.7 L2388.08,1414.56 L2387.63,1414.58 L2387.61,1414.58 L2386.81,1414.62 L2386.39,1414.73 L2385.71,1414.9 L2385.28,1415.1 L2384.92,1415.4 L2384.72,1415.57 L2384.15,1415.91 L2383.56,1416.21 L2383.13,1416.51 L2382.97,1416.57 L2382.54,1416.75 L2382.19,1416.9 L2382.1,1416.93 L2381.96,1416.99 L2381.1,1417.46 L2380.57,1417.75 L2380.43,1417.84 L2378.23,1419.2 L2377.74,1419.3 L2377.7,1419.31 L2377.22,1419.4 L2376.96,1419.45 L2371.91,1419.37 L2371.75,1419.2 L2371.61,1419.04 L2371.47,1418.88 L2370.98,1418.9 L2368.48,1418.99 L2366.46,1419 L2361.9,1419.01 L2360.16,1419.2 L2358.77,1419.35 L2358.66,1419.38 L2358.54,1419.41 L2355.87,1420.11 L2354.86,1420.37 L2353.63,1420.68 L2352.19,1420.94 L2351.55,1421.01 L2351.07,1421.06 L2350.61,1421.12 L2350.44,1421.13 L2349.71,1421.2 L2349.45,1421.41 L2349.33,1421.52 L2349.29,1421.55 L2347.28,1422.23 L2346.97,1422.34 L2346.3,1422.56 L2344.53,1423.19 L2343.01,1423.72 L2339.89,1424.8 L2337.56,1425.6 L2337.34,1425.68 L2336.69,1423.18 L2336.56,1422.67 L2336.5,1422.44 L2336.34,1422 L2336.08,1421.36 L2335.94,1421.07 L2335.75,1420.66 L2335.59,1420.34 L2335.24,1419.68 L2334.67,1418.45 L2334.61,1418.35 L2333.68,1416.46 L2333.5,1415.95 L2333.38,1415.7 L2333.09,1414.87 L2332.95,1414.47 L2332.9,1414.32 L2332.41,1412.92 L2332.02,1411.76 L2331.62,1410.38 L2331.48,1409.98 L2331.32,1409.53 L2331.14,1409.08 L2330.86,1408.41 L2330.51,1406.21 L2330.31,1405.47 L2330.08,1404.96 L2330.07,1404.92 L2329.99,1404.76 L2329.96,1404.68 L2316.06,1409.64 L2310.11,1411.8 L2306.34,1413.16 L2302.29,1414.64 L2301.35,1414.99 L2300.59,1413.97 L2298.53,1411.21 L2297.97,1410.13 L2297.5,1409.23 L2297.16,1408.56 L2297,1408.26 L2295.69,1405.49 L2294.56,1403.09 L2294.27,1402.55 L2293.6,1401.78 L2293.39,1401.55 L2293,1401.11 L2291.02,1398.92 L2289.94,1398.18 L2289.66,1397.99 L2289.03,1397.71 L2288.8,1397.6 L2288.45,1397.4 L2287.78,1397.02 L2286.97,1396.3 L2286.82,1396.17 L2285.84,1393.99 L2285.81,1393.93 L2285.13,1392.53 L2285.08,1392.42 L2284.99,1392.34 L2284.59,1392 L2284.09,1391.59 L2282.77,1389.7 L2282.23,1388.94 L2280.57,1387.06 L2280.31,1386.67 L2280.15,1386.24 L2280.01,1385.85 L2279.86,1385.18 L2279.79,1384.91 L2279.69,1384.55 L2279.57,1384.24 L2279.48,1384.02 L2279.46,1383.96 L2279.14,1383.28 L2279.02,1383 L2278.89,1382.72 L2278.32,1382.05 L2277.02,1381.07 L2275.17,1379.95 L2274.69,1379.61 L2274.12,1379.38 L2273.95,1379.31 L2273.34,1378.54 L2273.27,1378.44 L2272.95,1377.95 L2272.71,1377.59 L2272.27,1377.13 L2271.65,1376.69 L2271.35,1376.31 L2271.34,1376.3 L2270.58,1375.84 L2270.56,1375.82 L2270.3,1375.67 L2269.52,1375.21 L2268.43,1374.89 L2265.43,1374.26 L2264.49,1373.95 L2264.17,1373.78 L2261.62,1373.37 L2255.67,1372.2 L2253.43,1371.93 L2251.69,1371.72 L2250.56,1371.45 L2247.95,1370.9 L2247.69,1370.79 L2247.2,1370.57 L2246.24,1370.32 L2245.41,1370.12 L2245.13,1370.01 L2244.81,1369.89 L2244.19,1369.46 L2243.37,1368.89 L2242.49,1368.28 L2242.02,1368.01 L2241.34,1367.69 L2240.29,1366.96 L2239.18,1366.19 L2239.06,1366.1 L2238.94,1366 L2237.77,1365.31 L2237.15,1364.94 L2235.37,1364.45 L2235.21,1364.4 L2233.93,1363.94 L2233.55,1363.69 L2233.49,1363.63 L2233.13,1363.26 L2232.95,1363.19 L2232.83,1363.26 L2232.77,1363.3 L2232.39,1363.08 L2231.45,1362.55 L2229.44,1360.3 L2228.58,1359.46 L2228.16,1358.59 L2227.68,1357.6 L2227.35,1356.8 L2227.25,1356.58 L2226.94,1356.09 L2225.97,1354.6 L2225.53,1354.11 L2225.21,1353.75 L2224.6,1353.28 L2223.79,1352.75 L2222.99,1352.23 L2222.21,1351.92 L2221.25,1351.02 L2220.59,1350.09 L2220.34,1349.88 L2220.02,1349.6 L2219.51,1349.31 L2218.81,1348.91 L2216.57,1348 L2215.39,1347.32 L2214.06,1346.78 L2213.66,1346.7 L2212.86,1346.8 L2211.82,1346.92 L2209.76,1346.1 L2209.3,1345.81 L2208.51,1345.32 L2207.94,1344.98 L2207.72,1344.84 L2207.7,1344.83 L2207.37,1344.34 L2207.09,1343.91 L2206.86,1343.59 L2206.77,1343.67 L2206.75,1343.68 L2206.69,1343.73 L2204.12,1342.56 L2201.71,1340.36 L2198.18,1338 L2197.58,1337.17 L2197.1,1336.51 L2196.53,1336.04 L2196.45,1335.96 L2195.36,1335.05 L2194.84,1334.77 L2194.83,1334.76 L2194.37,1334.5 L2192.61,1333.47 L2190.11,1330.67 L2189.41,1329.75 L2186.79,1325.77 L2185.97,1325.28 L2185.53,1325.03 L2185.19,1324.91 L2183.38,1324.28 L2181.41,1323.61 L2180.68,1323.37 L2180.21,1323.02 L2180.04,1322.87 L2179.78,1322.63 L2176.84,1320.79 L2175.81,1320.14 L2175.67,1320.05 L2174.74,1319.41 L2173.55,1318.76 L2173.24,1318.64 L2172.75,1318.45 L2172.33,1318.28 L2172.04,1318.05 L2171.37,1317.52 L2171.13,1316.81 L2171.12,1316.39 L2171.12,1316.25 L2171.11,1315.72 L2169.05,1313.53 L2168.35,1312.92 L2165.88,1310.78 L2165.48,1310.24 L2164.84,1309.21 L2164.22,1308.2 L2163.74,1307.61 L2163.41,1307.5 L2162.95,1307.35 L2162.78,1307.36 L2162.61,1307.38 L2162.27,1307.41 L2161.7,1307.47 L2161.04,1307.68 L2160.27,1307.92 L2159.38,1308.51 L2158.61,1308.44 L2157.84,1308.38 L2156.52,1307.95 L2156.32,1307.88 L2156.25,1307.88 L2154.7,1307.74 L2154.17,1307.53 L2152.72,1306.97 L2151.6,1306.47 L2151.28,1306.32 L2150.77,1306.04 L2150.2,1305.72 L2150.1,1305.54 L2149.53,1304.52 L2148.99,1304.44 L2148.03,1304.31 L2147.71,1304.42 L2147.03,1304.64 L2145.69,1305.3 L2145.1,1305.54 L2144.35,1305.85 L2142.86,1306.73 L2142.39,1306.85 L2141.93,1306.96 L2141.47,1307.2 L2141.21,1307.36 L2140.02,1308.08 L2139.18,1308.63 L2138.67,1308.96 L2138.59,1309.01 L2138.55,1309.02 L2138.36,1309.07 L2137.79,1309.22 L2137.33,1309.39 L2137.2,1309.44 L2136.27,1309.64 L2136.07,1309.65 L2135.77,1309.67 L2135.72,1309.65 L2135.55,1309.58 L2135.11,1309.43 L2134.9,1309.3 L2134.52,1309.06 L2134.11,1309.05 L2133.84,1309.04 L2133.51,1309.02 L2132.98,1309.14 L2131.64,1309.87 L2130.99,1310.34 L2130.91,1310.4 L2129.68,1311.29 L2129.08,1311.28 L2128.79,1310.88 L2128.69,1310.75 L2128.56,1310.57 L2127.13,1309.46 L2126.49,1309.04 L2125.89,1308.65 L2125.63,1308.3 L2125.61,1308.27 L2125.41,1308 L2124.78,1307.11 L2124.29,1306.42 L2123.02,1304.53 L2122.42,1303.6 L2121.86,1302.97 L2121.64,1302.68 L2121.01,1301.82 L2119.36,1302.57 L2117.51,1303.65 L2114.73,1305.54 L2113.22,1306.52 L2113,1306.66 L2111.78,1307.48 L2110.62,1308.32 L2106.92,1310.98 L2106.57,1311.14 L2105.77,1311.49 L2104.59,1313.6 L2103.85,1314.92 L2103.77,1315.28 L2103.68,1315.68 L2102.69,1317.06 L2102.11,1317.86 L2101.63,1318.75 L2100.4,1321.06 L2100.19,1321.74 L2100.11,1322 L2099.9,1322.67 L2099.83,1322.87 L2099.58,1323.74 L2099.07,1325.5 L2098.92,1325.93 L2098.75,1326.46 L2098.43,1327.28 L2098.09,1328.16 L2097.6,1330.15 L2096.65,1332.73 L2096.47,1333.22 L2095.99,1334.08 L2095.81,1334.94 L2095.22,1335.86 L2095.14,1336.01 L2094.71,1336.81 L2094.48,1337.25 L2093.73,1339.11 L2092.61,1342 L2092.02,1343.2 L2091.99,1343.34 L2091.93,1343.69 L2091.39,1344.81 L2090.92,1345.33 L2090.8,1345.46 L2090.48,1346.2 L2090.34,1346.8 L2090.28,1347.03 L2090.16,1347.65 L2090.25,1348.76 L2090.6,1349.66 L2090.59,1350.64 L2090.32,1352.13 L2090.54,1353.98 L2090.49,1354.42 L2090.45,1354.85 L2090.45,1354.86 L2093.18,1355.92 L2097.02,1357.41 L2101.18,1358.94 L2103.7,1360.09 L2110.5,1363.17 L2114.97,1364.83 L2119.68,1366.86 L2120.54,1367.23 L2121.11,1367.54 L2124.12,1368.54 L2127.33,1369.95 L2129.11,1370.92 L2129.93,1371.38 L2131.85,1371.91 L2134.36,1373.08 L2135.25,1373.52 L2136.64,1374.04 L2138.54,1374.75 L2139.11,1375 L2139.89,1375.34 L2140.67,1375.57 L2141.22,1375.74 L2143.73,1376.87 L2146.02,1377.87 L2146.46,1378.31 L2147.72,1379.2 L2148.04,1379.49 L2149.62,1380.91 L2151.82,1382.55 L2152.65,1383.22 L2155.05,1385.18 L2160.78,1389.69 L2161.58,1390.34 L2165.8,1393.73 L2169.28,1396.53 L2174.2,1400.15 L2174.54,1400.4 L2166.93,1419.84 L2164.68,1425.68 L2164.43,1426.27 L2162.73,1430.4 L2159.6,1438.48 L2159.17,1439.74 L2158.5,1441.74 L2158.59,1441.89 L2158.72,1442.09 L2158.36,1442.51 L2157.9,1443.06 L2156.81,1444.32 L2156.62,1444.77 L2155.93,1446.41 L2154.29,1449.2 L2153.47,1451.45 L2152.83,1453.23 L2152.57,1453.68 L2152.1,1454.49 L2140.43,1468.18 L2132.11,1477.86 L2125.89,1485.11 L2123.81,1487.44 L2120.66,1490.99 L2119.28,1492.59 L2117.82,1494.29 L2116.49,1495.89 L2114.44,1498.36 L2113.75,1499.09 L2107.12,1506.82 L2103.64,1510.99 L2099.12,1516.06 L2096.26,1519.53 L2095.71,1520.16 L2095.01,1521.21 L2094.89,1521.12 L2086.04,1531.34 L2081.26,1536.95 L2075.58,1543.31 L2069.29,1550.5 L2065.58,1554.7 L2059.34,1561.77 L2048.96,1572.7 L2043.56,1578.32 L2040.18,1581.87 L2034.07,1588.27 L2030.84,1591.65 L2025.36,1597.88 L2022.38,1601.5 L2019.77,1604.69 L2019.55,1604.63 L2018.88,1604.46 L2016.97,1603.98 L2010.89,1602.45 L1993.33,1598.09 L1978.76,1594.47 L1960.4,1589.9 L1956.46,1588.92 L1955.13,1588.59 L1954.93,1588.54 L1954.65,1588.26 L1954.06,1587.66 L1950.62,1584.24 L1949.47,1583.09 L1938.51,1572.15 L1931.94,1569.46 L1927.19,1567.52 L1919.64,1564.54 L1903.12,1558.01 L1855.84,1539.79 L1856.89,1547.49 L1858.58,1559.91 L1858.85,1562.48 L1859.58,1569.54 L1855.5,1572.22 L1852.91,1575.63 L1851.78,1577.12 L1850.4,1578.94 L1846.69,1582.63 L1845.69,1583.62 L1845.5,1583.73 L1842.71,1585.29 L1842.68,1585.31 L1842.15,1585.66 L1841.78,1585.95 L1841.34,1586.3 L1840.6,1586.89 L1840.19,1587.22 L1840.39,1588.39 L1840.94,1591.54 L1841.07,1592.29 L1841.08,1595.71 L1838.6,1599.58 L1837.45,1601.69 L1836.84,1603.17 L1835.8,1605.63 L1834.28,1608.49 L1833.5,1609.67 L1832.88,1610.59 L1831.78,1611.75 L1831.26,1612.45 L1830.96,1612.85 L1830.85,1613.36 L1829.92,1617.92 L1829.87,1619.01 L1829.76,1622.02 L1829.84,1623.94 L1829.64,1625.34 L1828.98,1629.94 L1829.74,1634.71 L1828.92,1640.23 L1829.09,1640.39 L1829.39,1640.91 L1829.6,1641.27 L1829.58,1641.79 L1829.46,1644.12 L1829.62,1644.8 L1829.63,1644.84 L1829.79,1645.54 L1829.51,1646.26 L1828.74,1648.17 L1828.51,1649.12 L1828.07,1650.9 L1828.16,1653.13 L1827.46,1657.06 L1827.28,1660.15 L1827.36,1660.54 L1827.46,1661.08 L1828.07,1662.61 L1828.24,1663.49 L1828.34,1664.05 L1828.32,1664.09 L1827.97,1664.89 L1827.82,1665.46 L1826.85,1666.43 L1826.46,1666.83 L1826.06,1667.37 L1825.5,1668.14 L1826.82,1670.12 L1827.79,1671.59 L1834.31,1674.36 L1841.52,1677.42 L1846.09,1679.35 L1847.92,1680.4 L1848.96,1681.22 L1850.12,1682.14 L1850.33,1682.31 L1849.85,1682.37 L1848.96,1682.47 L1848.79,1682.83 L1848.45,1683.54 L1848.14,1684.2 L1847.52,1684.92 L1845.08,1685.84 L1844.42,1686.55 L1843.33,1687.75 L1843.86,1688.9 L1847.3,1696.37 L1848.13,1697 L1848.56,1697.33 L1848.42,1698.55 L1848.36,1699.08 L1853.26,1699.69 L1854.97,1700.81 L1856.78,1702.64 L1857.99,1702.41 L1860.34,1700.39 L1860.48,1700.27 L1860.8,1701 L1861.87,1703.42 L1862.89,1705.74 L1864.04,1707.63 L1864.07,1707.67 L1865.53,1710.06 L1867.22,1712.82 L1867.63,1712.67 L1867.68,1712.65 L1868.29,1712.41 L1868.64,1712.95 L1869.39,1714.15 L1871.83,1718.01 L1874.36,1720.36 L1875.63,1721.54 L1875.65,1721.99 L1875.72,1723.86 L1873.79,1727.22 L1875.18,1731.63 L1876.56,1733.12 L1876.8,1733.39 L1878.54,1735.27 L1878.73,1736.72 L1878.98,1738.6 L1877.6,1746.16 L1877.23,1746.42 L1876.81,1746.73 L1876.33,1747.07 L1875.96,1747.34 L1873.27,1753.6 L1870.95,1759.26 L1874.51,1767.84 L1878.53,1773.74 L1880.88,1776.9 L1882.22,1778.19 L1883.17,1779.11 L1883.85,1779.72 L1885.33,1780.87 L1885.83,1781.66 L1886.06,1781.87 L1886.71,1782.46 L1889.18,1786.76 L1889.22,1786.83 L1892.69,1791.72 L1893.13,1792.68 L1894.41,1795.47 L1896.81,1800.68 L1897.11,1801.34 L1897.85,1801.42 L1902.02,1801.84 L1911.35,1807.31 L1911.23,1812.41 L1913.29,1815.6 L1913.48,1815.84 L1913.63,1816.03 L1909.84,1829.06 L1904.42,1846.48 L1899.06,1857.81 L1898.21,1859.68 L1895.19,1866.4 L1892.57,1871.96 L1890.65,1876.31 L1888.28,1881.94 L1884.85,1892.82 L1882.66,1899.94 L1881.99,1902.15 L1883.65,1902.44 L1885.23,1902.72 L1886.18,1902.83 L1887.71,1903.02 L1889.28,1903.65 L1889.76,1903.84 L1891.52,1904.84 L1892.85,1906.63 L1894.3,1908.82 L1895.08,1909.95 L1895.56,1910.38 L1896.51,1911.24 L1897.1,1911.64 L1898.39,1912.5 L1899.05,1912.82 L1900.05,1913.31 L1900.06,1914.02 L1900.09,1915.28 L1900.16,1916.66 L1900.1,1918.59 L1900.04,1920.47 L1900.01,1921.46 L1908.53,1923.98 L1908.48,1924.34 L1908.2,1926.07 L1907.73,1928.38 L1908.19,1928.61 L1908.93,1929 L1912.74,1930.97 L1913.01,1931.11 L1912.93,1931.44 L1912.52,1933.26 L1911.68,1937.01 L1911.2,1939.15 L1909.43,1942.3 L1908.32,1944.19 L1906.49,1946.82 L1905.47,1947.89 L1905.15,1948.09 L1905.1,1948.12 L1904.58,1948.44 L1903.34,1948.6 L1903.31,1948.6 L1902.57,1949.79 L1902.54,1950.02 L1902.39,1951.01 L1902.23,1952.09 L1901.37,1952.5 L1900.9,1952.63 L1900.74,1952.68 L1900.83,1953.16 L1901.95,1959.43 L1898.61,1965.7 L1895.42,1971.57 L1895.32,1971.75 L1888.8,1978.76 L1888.11,1979.5 L1884.64,1983.31 L1882.44,1985.72 L1879.57,1988.86 L1878.85,1989.65 L1881.62,2000.67 L1882.98,2006.02 L1887.92,2007.63 L1892.56,2009.14 L1889.91,2021.05 L1891.66,2024.36 L1892.41,2026.03 L1893.75,2029.02 L1892.65,2032.51 L1890.56,2032.53 L1889.93,2032.54 L1889.91,2032.89 L1889.11,2036.07 L1888.79,2036.9 L1888.33,2038.06 L1888.07,2039.76 L1887.95,2040.53 L1887.92,2043.51 L1888.24,2052.26 L1888.83,2052.62 L1889.29,2052.91 L1890.5,2055.29 L1891.25,2058.13 L1891.74,2061.31 L1891.77,2063.25 L1892.33,2066.25 L1892.61,2067.17 L1892.79,2067.8 L1892.84,2068.17 L1892.96,2069.02 L1893.88,2073.36 L1894.06,2074.19 L1894.06,2074.28 L1894.06,2074.48 L1894.05,2075.04 L1894.24,2075.9 L1894.25,2075.96 L1894.37,2076.49 L1894.38,2077.49 L1894.33,2077.75 L1894.25,2078.18 L1894.36,2078.41 L1894.4,2078.52 L1894.61,2078.96 L1894.66,2079.51 L1894.69,2079.83 L1894.61,2080.26 L1894.53,2080.75 L1894.53,2081.52 L1894.59,2082.87 L1894.55,2083.05 L1894.39,2083.82 L1894.43,2084.57 L1894.51,2085.98 L1894.71,2085.95 L1894.88,2085.93 L1895.11,2085.9 L1895.67,2086.75 L1896.21,2087.56 L1898.72,2091.35 L1899.62,2092.74 L1899.87,2092.69 L1900.45,2092.57 L1901.41,2096 L1901.46,2096.35 L1901.71,2098.32 L1903.5,2101.22 L1900.28,2105.14 L1894.84,2111.57 L1885.66,2122.41 L1884.51,2123.76 L1880.92,2138.81 L1879.33,2145.47 L1879.17,2146.15 L1877.22,2154.27 L1874.27,2167.87 L1855.07,2173.02 L1853.48,2177.15 L1851.85,2181.42 L1851.18,2181.9 L1848.35,2183.95 L1842.98,2192.41 L1835.91,2200.99 L1834.52,2201.41 L1831.13,2202.57 L1816.65,2205.39 L1814.58,2206.47 L1812.38,2207.62 L1807.62,2208.47 L1804.94,2208.94 L1803.13,2209.52 L1800.5,2210.37 L1795.84,2213.82 L1794.88,2214.24 L1791.88,2215.57 L1784.34,2218.07 L1781.93,2217.91 L1780.6,2218.72 L1778.96,2219.71 L1778,2220.46 L1775.03,2222.75 L1774.04,2223.24 L1772.17,2224.16 L1769.21,2226.5 L1766.05,2227.3 L1764.53,2228.17 L1761.95,2229.66 L1761.61,2229.85 L1761.27,2230.33 L1758.37,2234.44 L1757.46,2234.11 L1757.15,2234 L1755.79,2235.91 L1755.26,2236.66 L1754.99,2237.04 L1754.58,2237.62 L1754.51,2238.07 L1754.35,2239.26 L1754.32,2239.5 L1754.41,2241.03 L1754.98,2242.65 L1755.81,2243.13 L1756.69,2243.62 L1758.82,2243.81 L1760.22,2243.37 L1761.92,2243.9 L1762.86,2244.19 L1764.99,2245.09 L1767.17,2246.15 L1770.67,2247.13 L1773.75,2247.7 L1774.54,2247.91 L1775.29,2248.11 L1776.12,2248.32 L1777.44,2248.95 L1780.55,2250.42 L1786.49,2253.75 L1787.33,2254.36 L1789.13,2255.68 L1791,2256.63 L1793.07,2257.17 L1794.84,2257.52 L1795.73,2257.5 L1796.58,2257.48 L1799.01,2257.68 L1799.35,2257.66 L1801.38,2257.57 L1801.42,2257.57 L1801.8,2257.58 L1803.79,2257.62 L1803.88,2257.62 L1804.07,2257.62 L1804.23,2257.62 L1805.12,2257.77 L1807.18,2258.1 L1808.07,2258.25 L1809.44,2258.61 L1810.44,2258.87 L1814.55,2261.42 L1817.46,2263.31 L1819.01,2263.89 L1820.76,2264.65 L1821.3,2264.88 L1822.57,2264.99 L1823.73,2265.08 L1826.57,2263.07 L1828.73,2261.91 L1832.06,2260.12 L1833.79,2259.03 L1838.97,2255.91 L1845.8,2252.93 L1847.32,2252.66 L1848.19,2252.51 L1848.75,2252.6 L1850.76,2252.93 L1851.91,2253.12 L1853.12,2253.21 L1855.03,2253.36 L1858.2,2253.03 L1860.25,2253.82 L1865,2257.21 L1866.83,2259.07 L1869.65,2261.93 L1871.09,2263.46 L1872.58,2265.06 L1873.56,2266.11 L1878.37,2266.93 L1881.39,2266.54 L1886.51,2265.87 L1891.15,2265.52 L1895.81,2265.17 L1897.05,2265.29 L1898.3,2265.42 L1899.74,2265.72 L1903.87,2266.61 L1911.97,2269.28 L1913.71,2269.85 L1917.57,2270.45 L1919.33,2270.71 L1921.75,2271.07 L1923.84,2271.38 L1924.27,2271.33 L1930.58,2270.62 L1932.87,2269.44 L1933.2,2269.27 L1935.59,2267.67 L1936.75,2265.73 L1937.35,2264.73 L1938.13,2262.69 L1939.6,2258.85 L1941.28,2254.75 L1951.09,2246.34 L1951.85,2246.25 L1954.1,2245.97 L1959.73,2245.25 L1971.64,2241.08 L1977.93,2238.54 L1986.02,2233.16 L1988.51,2231.5 L1990.1,2230.5 L1993.48,2228.35 L1996.75,2226.75 L1999.03,2225.64 L2002.14,2225.52 L2002.76,2225.39 L2003.03,2225.33 L2004.48,2225.53 L2006.25,2225.78 L2006.56,2225.82 L2007.91,2226 L2009.17,2226.17 L2009.61,2226.39 L2014.31,2228.69 L2014.86,2228.88 L2016.27,2229.38 L2017.02,2229.87 L2018.44,2230.79 L2022.68,2234.12 L2026.96,2239.39 L2028.35,2241.02 L2028.93,2241.7 L2030.99,2243.47 L2035.9,2247.69 L2037.64,2248.4 L2036.6,2249.82 L2036,2251.25 L2035.61,2252.7 L2035.27,2254.68 L2035.1,2255.71 L2035.09,2257.42 L2034.82,2258.68 L2034.93,2259.97 L2035.05,2261.35 L2035.16,2263.31 L2036.13,2267.58 L2036.32,2269.45 L2036.11,2270.09 L2035.41,2272.29 L2035.34,2275.01 L2035.32,2275.91 L2035.22,2276.73 L2034.89,2279.54 L2035.24,2281.41 L2036.38,2283.85 L2036.63,2284.41 L2036.79,2284.76 L2036.73,2285.06 L2036.54,2286.08 L2036.66,2288.39 L2036.84,2291.62 L2036.51,2296.32 L2036.78,2299 L2036.63,2301.75 L2035.96,2303.93 L2036.4,2305.15 L2036.79,2306.24 L2037.02,2308.28 L2036.96,2309.82 L2036.8,2313.85 L2036.64,2315.16 L2036.5,2316.27 L2036.32,2317.05 L2036.12,2317.97 L2035.9,2318.96 L2035.77,2319.56 L2035.63,2320.26 L2035.5,2320.91 L2035.49,2320.93 L2034.68,2322.2 L2034.66,2322.82 L2034.64,2323.14 L2034.72,2323.21 L2035.05,2323.51 L2036.47,2323.55 L2038.76,2323.12 L2039.49,2323.28 L2041.1,2323.63 L2043.19,2322.55 L2045.41,2321.58 L2047.21,2321.6 L2049.38,2321.66 L2050.59,2321.6 L2052.24,2320.93 L2053.43,2320.4 L2053.95,2320.39 L2054.74,2320.39 L2054.86,2320.45 L2055.32,2320.68 L2055.46,2322.48 L2055.56,2323.81 L2055.67,2325.22 L2055.62,2325.86 L2055.54,2326.89 L2056.18,2328.34 L2056.26,2329.32 L2055.3,2330.34 L2054.95,2330.72 L2054.94,2330.9 L2054.93,2330.92 L2054.89,2331.37 L2055.33,2332.3 L2055.64,2332.95 L2055.99,2333.36 L2056.56,2334.03 L2057.65,2334.69 L2057.91,2334.98 L2059.88,2335.9 L2060.07,2336.17 L2060.54,2336.8 L2061.12,2338.44 L2061.81,2339.62 L2061.82,2340.76 L2060.99,2341.14 L2060.9,2341.19 L2057.05,2343.09 L2055.89,2343.64 L2054.75,2344.18 L2052.39,2345.3 L2051.58,2345.44 L2050.92,2345.55 L2050.28,2345.84 L2050.02,2346.22 L2049.91,2346.39 L2049.97,2347.31 L2050.18,2347.85 L2050.72,2348.85 L2049.9,2350.08 L2048.58,2350.66 L2047.17,2351.27 L2046.01,2352.02 L2045.28,2352.5 L2044.56,2352.77 L2043.19,2353.27 L2041.82,2353.78 L2040.89,2354.36 L2038.87,2355.6 L2031.62,2361.4 L2024.37,2364.91 L2023.3,2367.31 L2022.61,2368.85 L2022.95,2370.18 L2027.2,2372.55 L2026.95,2374.07 L2025.35,2374.66 L2024.23,2375.08 L2024.21,2375.12 L2024.1,2375.42 L2023.67,2376.56 L2022.94,2378.54 L2022.38,2380.79 L2022.36,2382.56 L2022.44,2382.9 L2022.82,2384.41 L2022.98,2385.33 L2023.13,2386.18 L2023.75,2388.07 L2024.11,2389.15 L2024.61,2390.19 L2024.73,2391.1 L2023.91,2391.22 L2022.81,2391.52 L2020.89,2392.53 L2020.5,2392.91 L2019.78,2393.36 L2018.54,2394.13 L2015.41,2395.94 L2014.53,2396.27 L2012.07,2397.16 L2011.01,2397.38 L2004.35,2398.8 L2004.12,2398.85 L2002.83,2399.1 L1999.73,2399.58 L1993.55,2400.08 L1974.32,2400.84 L1971.41,2400.81 L1970.18,2400.79 L1960.15,2405.95 L1957.3,2407.42 L1954.1,2410.97 L1950.66,2414.8 L1945.92,2418.64 L1940.11,2422.37 L1929.91,2427 L1928.78,2426.98 L1928.14,2426.97 L1925.88,2424.09 L1921.28,2422.17 L1920.5,2422.01 L1919.76,2421.87 L1919.54,2421.82 L1919.44,2421.86 L1919.09,2422 L1918.5,2422.23 L1917.66,2422.48 L1915.96,2422.99 L1915.47,2423.21 L1911.79,2424.85 L1907.75,2427.69 L1907.91,2429.1 L1908.21,2431.78 L1908.29,2432.47 L1898.42,2438.83 L1894.65,2437.8 L1892.45,2439.27 L1888.8,2441.71 L1886.98,2442.6 L1884.5,2443.8 L1865.94,2452.66 L1865.9,2453.05 L1860.72,2455.42 L1860.51,2455.52 L1858.67,2456.36 L1858.48,2456.61 L1855.96,2459.84 L1851.59,2465.47 L1850.62,2472.05 L1849.51,2479.61 L1849.44,2480.07 L1849.42,2480.23 L1849.65,2480.48 L1852.17,2483.22 L1852.66,2483.74 L1861.15,2486.42 L1861.03,2487.21 L1860.39,2491.48 L1859.07,2493.92 L1850.37,2492.4 L1848.99,2493.78 L1847.72,2495.07 L1847.38,2495.4 L1846.5,2496.4 L1845.53,2497.49 L1845.59,2497.83 L1843.02,2501.02 L1838.75,2506.31 L1842.3,2508.6 L1857.78,2518.59 L1858.01,2518.74 L1855.81,2521.39 L1853.46,2523.98 L1848.59,2529.31 L1845.54,2532.77 L1844.4,2534.06 L1843.88,2534.64 L1843.31,2535.27 L1842.78,2535.77 L1842.83,2536.41 L1842.14,2536.4 L1839.39,2536.23 L1838.89,2536.2 L1836.66,2536.02 L1836.59,2536.02 L1835.56,2535.99 L1834.97,2535.97 L1833.7,2535.95 L1831.07,2536.08 L1830.69,2536.13 L1830.07,2536.22 L1829.11,2536.34 L1828.68,2536.48 L1828.26,2536.63 L1828.02,2536.74 L1827.21,2537.11 L1826.96,2537.21 L1826.51,2537.38 L1825.33,2537.65 L1825.04,2537.72 L1823.67,2538.26 L1822.7,2538.65 L1821.79,2539.14 L1821.24,2539.54 L1820.5,2540.09 L1819.62,2540.7 L1818.62,2541.39 L1818.06,2541.87 L1817.44,2542.4 L1817.19,2542.64 L1816.02,2543.75 L1815.28,2544.7 L1814.34,2545.93 L1813.54,2547.28 L1813.29,2547.7 L1813.12,2547.97 L1812.33,2549.21 L1811.51,2550.27 L1810.58,2551.51 L1809.88,2552.27 L1809.7,2552.46 L1808.85,2553.39 L1808.19,2554.11 L1807.76,2554.58 L1806.72,2555.35 L1805.36,2556.06 L1805.01,2556.25 L1804.16,2556.56 L1803.37,2556.85 L1803.15,2556.94 L1802.92,2556.98 L1802.15,2557.11 L1801.89,2557.16 L1801.67,2557.2 L1799.48,2557.24 L1798.07,2557.11 L1796.42,2556.61 L1794.4,2555.67 L1791.32,2553.98 L1783.95,2548.13 L1782.51,2546.95 L1781.08,2545.79 L1778.48,2543.66 L1773.96,2540.34 L1772.32,2539.01 L1771.35,2538.07 L1770.97,2537.76 L1769.34,2536.43 L1768.47,2535.32 L1768.14,2534.99 L1767.64,2534.48 L1766.63,2533.46 L1765.75,2532.74 L1764.93,2532.08 L1764.44,2531.69 L1764.3,2531.6 L1760.93,2529.31 L1758.17,2527.5 L1756.29,2526.21 L1755.14,2525.45 L1754.71,2525.24 L1753.38,2524.57 L1752.18,2523.82 L1750.57,2523.01 L1750.15,2522.81 L1749.02,2522.18 L1748.26,2521.79 L1747.06,2521.15 L1746.44,2520.77 L1742.71,2518.6 L1741.4,2517.77 L1740.85,2517.42 L1738.55,2515.9 L1733.72,2512.09 L1733.02,2511.32 L1732.6,2510.86 L1732.48,2510.73 L1731.05,2509.17 L1730.17,2508.17 L1729.83,2507.79 L1728.16,2505.45 L1727.63,2504.54 L1727.58,2504.46 L1726.69,2502.91 L1725.9,2501.78 L1724.13,2499.23 L1723.08,2497.73 L1722.9,2497.4 L1722.77,2497.15 L1722.4,2496.46 L1720.53,2493.62 L1719.41,2492.32 L1718.31,2491.05 L1717.59,2490.22 L1716.16,2488.57 L1715.32,2487.42 L1713.15,2484.45 L1712.09,2483.06 L1710.88,2481.39 L1709.64,2479.82 L1708.91,2478.66 L1708.44,2477.91 L1707.41,2475.83 L1706.95,2475.4 L1706.88,2475.34 L1706.9,2475.31 L1707.05,2475.11 L1706.71,2474.59 L1706.56,2474.37 L1705.76,2473.47 L1705.02,2472.63 L1704.61,2472.17 L1704.46,2472.01 L1703.32,2470.75 L1699.84,2469.49 L1697.28,2468.96 L1696,2468.69 L1695.79,2468.65 L1694.53,2468.38 L1694.25,2468.32 L1694,2468.26 L1691.47,2468.24 L1691.29,2468.24 L1691.28,2468.24 L1689.67,2468.16 L1689.67,2468.16 L1686.24,2468.16 L1684.35,2468.33 L1672.23,2469.4 L1672.09,2469.29 L1671.74,2469.04 L1667.27,2470.26 L1661.74,2471.19 L1660.03,2471.57 L1657.51,2472.14 L1655.57,2472.34 L1655.22,2472.36 L1653.82,2472.45 L1651.41,2472.79 L1650.26,2473.1 L1643.75,2474.82 L1640.48,2476.2 L1636.05,2478.19 L1631.81,2480.2 L1631.71,2480.34 L1631.18,2481.06 L1630.09,2483.28 L1630.09,2483.29 L1630.03,2483.31 L1628.43,2483.82 L1626.34,2484.78 L1623.8,2485.96 L1619.19,2487.83 L1615.1,2489.37 L1614.45,2489.62 L1613.35,2490.13 L1611.63,2490.95 L1607.23,2493.02 L1604.15,2494.29 L1596.75,2497.45 L1595.53,2497.97 L1595.48,2498.06 L1595.29,2498.42 L1595.85,2500.65 L1596.55,2502.97 L1595.84,2504.07 L1595.08,2504.97 L1595.97,2505.93 L1595.64,2506.55 L1590.43,2514.65 L1588.89,2515.79 L1587.13,2516.91 L1585.61,2517.67 L1584.65,2518.91 L1583.27,2521.36 L1583.01,2521.76 L1582.28,2522.85 L1582.02,2523.24 L1581.53,2523.84 L1578.78,2527.16 L1576.15,2530.34 L1573.04,2534.09 L1571.75,2535.37 L1570.35,2536.48 L1569.45,2536.96 L1569.49,2537.19 L1569.67,2538.03 L1570.86,2540.04 L1572.85,2543.61 L1575.35,2547.47 L1575.45,2548.06 L1575.54,2548.58 L1576.63,2564.13 L1578.55,2580.51 L1579.59,2585.07 L1580.11,2585.99 L1595.5,2613.43 L1598.25,2618.33 L1600.71,2622.72 L1609.94,2624.26 L1610.44,2624.61 L1611.08,2625.05 L1612.16,2627.35 L1613.77,2630.77 L1613.86,2631.76 L1613.87,2631.88 L1614.12,2633.49 L1615.76,2636.69 L1622.1,2649.07 L1623.28,2651.55 L1631.26,2669.24 L1636.23,2679.56 L1637.84,2682.3 L1639.27,2685.26 L1642.58,2693.24 L1642.85,2694.23 L1644.64,2698.38 L1645.15,2699.69 L1647.69,2706.27 L1650.02,2711.66 L1650.24,2712.12 L1652.33,2716.57 L1655.1,2722.33 L1660.01,2731.33 L1660.52,2732.27 L1663.14,2737.83 L1663.23,2738.35 L1663.52,2740.25 L1663.42,2747.16 L1663.41,2747.65 L1663.38,2747.65 L1657.77,2748 L1656.78,2748 L1655.35,2747.98 L1652.65,2747.88 L1650.5,2747.72 L1649.7,2747.68 L1649.02,2747.64 L1648.13,2747.65 L1647.4,2747.66 L1646.92,2747.59 L1644.13,2747.22 L1643.8,2747.24 L1643.02,2747.32 L1642.7,2747.35 L1640.82,2747.16 L1640.05,2747.19 L1639.04,2747.24 L1637.78,2747.4 L1635.99,2747.16 L1635.48,2747.22 L1634.52,2747.33 L1632.1,2747.19 L1630.37,2747.09 L1628.98,2747.2 L1627.59,2747.3 L1626.81,2747.23 L1625.99,2747.16 L1624.42,2747.37 L1623.79,2747.45 L1622.15,2747.78 L1618.21,2748.45 L1616.33,2748.93 L1612.99,2749.82 L1612.34,2749.99 L1609.31,2750.66 L1608.49,2750.81 L1607.56,2750.98 L1606.4,2751.37 L1604.82,2751.89 L1602.55,2752.66 L1601.43,2753.03 L1597.51,2754.07 L1594.78,2754.93 L1593.77,2755.37 L1591.8,2755.74 L1590.94,2755.9 L1589.69,2756.13 L1587.9,2756.6 L1587.46,2756.72 L1587.03,2756.81 L1586.31,2756.97 L1586.25,2756.99 L1586.24,2756.99 L1583.06,2757.77 L1575.12,2760.25 L1567.75,2762.77 L1561.75,2764.67 L1557.22,2766.04 L1551.26,2767.82 L1550.87,2767.93 L1548.69,2768.53 L1546.21,2769.21 L1541.08,2769.59 L1534.86,2769.94 L1525.01,2770.32 L1518.32,2770.08 L1510.42,2769.87 L1509.82,2769.85 L1503.64,2769.64 L1501.22,2769.56 L1493.97,2769.39 L1489.84,2769.4 L1484.28,2769.41 L1481.64,2769.44 L1480.51,2769.46 L1477.28,2769.5 L1469.89,2769.47 L1469.15,2769.46 L1461.67,2769.46 L1455.75,2769.68 L1454.32,2769.73 L1449.19,2769.8 L1441.29,2769.9 L1431.73,2770.07 L1423.44,2770.22 L1422.34,2770.29 L1417.27,2770.63 L1416.44,2770.68 L1415.79,2770.65 L1405.18,2770.12 L1403.32,2770.06 L1399.65,2769.94 L1396.82,2769.85 L1392.15,2769.55 L1389.17,2769.35 L1386.51,2768.88 L1378.07,2767.38 L1369.18,2765.75 L1358.91,2763.82 L1348.38,2762.86 L1342.88,2762.4 L1342.84,2762.39 L1338.29,2762.01 L1336.1,2761.84 L1334.64,2761.72 L1329,2761.3 L1324.38,2760.95 L1313.27,2760.48 L1308.16,2760.27 L1301.64,2760 L1289.31,2759.48 L1279.9,2759.03 L1272.32,2758.77 L1268.7,2758.69 L1267.52,2758.67 L1262.74,2758.57 L1253.26,2758.49 L1250.38,2758.47 L1238.85,2758.32 L1229.46,2758.36 L1227.38,2758.35 L1222.58,2758.32 L1221.96,2758.31 L1220.06,2758.28 L1218.45,2758.24 L1216.69,2758.34 L1215.25,2758.42 L1212.2,2758.62 L1211.11,2758.69 L1206.83,2758.65 L1205.95,2758.64 L1197.55,2758.49 L1195.78,2758.32 L1192.21,2757.98 L1189.91,2757.71 L1187.02,2757.37 L1185.26,2757.12 L1183.38,2756.85 L1177.33,2755.96 L1172.26,2754.85 L1170.17,2754.22 L1168.52,2753.73 L1163.42,2752.08 L1159.5,2750.66 L1157.46,2749.66 L1156.83,2749.36 L1155.83,2748.81 L1153.27,2747.42 L1152.65,2746.98 L1150.23,2745.29 L1146.69,2742.52 L1141.72,2737.69 L1133.48,2730.05 L1128.29,2724.35 L1125.08,2720.7 L1122.38,2717.81 L1119.96,2715.21 L1118.09,2712.62 L1116.88,2710.95 L1115.16,2708.57 L1112.95,2705.72 L1111.48,2703.82 L1110.69,2702.81 L1110.37,2702.37 L1106.37,2696.94 L1104.1,2693.83 L1103.68,2693.24 L1103.08,2692.4 L1099.29,2685.93 L1095.28,2679.3 L1092.4,2674.49 L1089.88,2670.57 L1089.08,2669.31 L1088.91,2669.12 L1086.37,2666.38 L1086.15,2666.19 L1085.07,2665.28 L1083.72,2664.14 L1081.27,2661.56 L1078.21,2658.5 L1074.58,2655.28 L1072.34,2653.51 L1069.73,2651.53 L1069.71,2651.51 L1069.69,2651.51 L1066.37,2649.87 L1063.57,2648.45 L1062.9,2648.11 L1061.64,2647.56 L1061.11,2647.34 L1058.63,2646.27 L1058.56,2646.24 L1055.25,2644.9 L1052.21,2643.68 L1051.41,2643.35 L1050.58,2643.01 L1046.3,2641.46 L1044.23,2640.69 L1043.26,2640.4 L1042.53,2640.18 L1039.31,2639.22 L1034.52,2637.61 L1029.81,2635.67 L1028.37,2634.96 L1028.28,2634.92 L1027.04,2634.31 L1026.5,2634.05 L1021.79,2631.39 L1013.68,2626.89 L1008.76,2624.07 L1007.61,2623.32 L1004.12,2621.04 L1002.41,2619.76 L1000.62,2618.43 L998.672,2617.27 L994.464,2614.75 L991.479,2612.46 L991.262,2612.29 L990.982,2612.13 L986.551,2609.51 L985.383,2608.54 L984.139,2607.5 L982.029,2605.74 L976.835,2600.85 L970.003,2594.28 L969.106,2593.4 L964.306,2588.68 L958.448,2583.23 L955.052,2579.93 L953.865,2578.78 L951.848,2576.81 L950,2574.99 L948.235,2573.63 L946.664,2572.42 L944.162,2570.29 L942.729,2569.07 L939.854,2567.02 L939.384,2566.69 L938.152,2565.81 L937.097,2565.06 L934.557,2563.37 L931.405,2561.28 L929.658,2560.07 L926.38,2557.79 L924.709,2556.64 L924.587,2556.57 L923.673,2556.05 L922.507,2555.38 L919.894,2553.1 L919.516,2552.77 L918.284,2551.6 L915.782,2549.22 L915.112,2548.58 L911.877,2545.53 L909.469,2542.84 L908.71,2541.69 L907.437,2539.77 L906.809,2538.83 L906.49,2538.07 L906.246,2537.5 L904.89,2534.31 L903.599,2530.77 L903.031,2528.16 L902.851,2523.95 L903.096,2520.31 L903.986,2517.18 L904.75,2515.81 L905.857,2513.83 L906.816,2512.23 L907.993,2510.28 L910.662,2506.62 L913.589,2503.86 L915.495,2502.43 L916.845,2501.41 L919.883,2499.03 L923.585,2496.06 L927.445,2492.38 L929.534,2489.85 L931.167,2486.81 L931.46,2485.95 L932.211,2483.77 L932.958,2480.84 L932.399,2477.7 L931.779,2476.2 L931.389,2475.26 L931.041,2474.62 L930.575,2473.77 L930.534,2473.7 L930.245,2473.44 L927.826,2471.23 L926.175,2469.96 L925.369,2469.34 L925.125,2469.15 L924.968,2469.03 L922.901,2467.42 L919.906,2465.74 L917.903,2464.59 L916.394,2463.73 L912.267,2461.95 L912.143,2461.9 L908.258,2459.87 L906.576,2458.89 L905.194,2458.09 L903.591,2457.18 L902.456,2456.53 L901.74,2455.99 L900.034,2454.7 L898.435,2453.11 L895.46,2450.63 L893.018,2448.62 L892.281,2448.01 L889.251,2445.23 L888.773,2444.58 L887.099,2442.31 L884.935,2439.12 L883.646,2437.45 L882.43,2435.88 L879.539,2431.88 L877.997,2429.68 L876.958,2428.2 L875.652,2426.1 L874.92,2424.92 L874.16,2423.29 L873.094,2421 L871.69,2417.15 L870.264,2412.4 L869.212,2409.38 L868.58,2404.5 L868.475,2401.08 L868.557,2397.59 L869.391,2393.73 L871.325,2390.67 L873.086,2388.41 L873.729,2387.59 L874.55,2386.53 L876.262,2384.48 L876.965,2383.64 L880.218,2381.04 L882.869,2379.35 L884.987,2378.64 L886.184,2378.23 L888.766,2377.51 L888.956,2377.46 L890.905,2376.69 L892.362,2376.12 L892.988,2376.19 L893.3,2376.23 L895.043,2376.43 L899.043,2377.27 L899.169,2377.3 L899.256,2377.35 L899.314,2377.38 L901.934,2378.74 L902.888,2379.51 L905.115,2381.32 L907.263,2383.14 L909.207,2384.79 L910.605,2386.01 L913.386,2388.44 L917.442,2391.7 L921.29,2394.48 L924.255,2396.45 L925.351,2397.18 L927.379,2398.52 L929.527,2400.23 L932.093,2402.26 L932.858,2402.87 L934.903,2404.5 L938.519,2406.65 L940.864,2408.04 L944.907,2410.56 L947.887,2412.11 L948.638,2412.5 L950.191,2413.08 L952.961,2414.12 L956.167,2415.38 L956.885,2415.66 L958.5,2416.06 L961.802,2416.88 L966.153,2418.04 L970.03,2418.55 L973.368,2419.05 L973.728,2419.1 L974.215,2419.1 L977.925,2419.06 L982.243,2418.81 L987.308,2418.56 L993.527,2417.84 L998.316,2417.23 L999.968,2416.82 L1001.56,2416.42 L1003.75,2415.66 L1005.86,2414.93 L1008.1,2413.9 L1009.84,2413.11 L1012.47,2411.72 L1012.65,2411.63 L1013.19,2411.34 L1013.48,2411.13 L1015.78,2409.44 L1016.94,2408.6 L1020.32,2405.64 L1022.38,2403.73 L1023.57,2402.63 L1024.2,2401.43 L1025.05,2399.86 L1027.17,2395.89 L1027.57,2393.76 L1028.11,2390.83 L1028.27,2389.16 L1028.54,2386.19 L1028.66,2383.08 L1028.09,2378.81 L1027.5,2376.72 L1026.95,2374.78 L1024.95,2370.47 L1022.47,2366.84 L1019.85,2363.4 L1016.76,2360.03 L1013.6,2357.32 L1010.59,2354.74 L1005.81,2350.85 L1004.9,2350.11 L1002.75,2348.57 L1001.29,2347.53 L1000.4,2346.89 L997.412,2344.27 L993.907,2340.65 L989.508,2336.24 L985.726,2332.53 L983.017,2327.78 L979.933,2321.14 L978.308,2316.79 L976.009,2310.49 L974.092,2303.65 L972.902,2298.76 L972.838,2298.49 L972.75,2298.1 L972.459,2296.79 L971.975,2294.62 L971.514,2291.45 L971.146,2288.91 L970.236,2282.01 L968.79,2273.06 L967.648,2266.25 L967.35,2261.89 L967.111,2258.21 L967.268,2257.16 L967.671,2254.47 L968.325,2250.03 L968.471,2249.04 L969.327,2245.43 L969.944,2244.05 L970.851,2242.03 L974.836,2236.2 L979.04,2230.3 L981.681,2226.15 L986.316,2221.33 L989.218,2217.93 L991.655,2214.5 L994.113,2210.2 L996.238,2207.04 L997.392,2205.33 L997.554,2205.09 L998.407,2203.63 L999.059,2202.52 L1000.6,2198.28 L1000.91,2197.29 L1001.35,2195.85 L1001.97,2193.84 L1002.61,2190.44 L1002.85,2186.93 L1002.7,2185.54 L1002.57,2184.42 L1002.27,2182.73 L1001.93,2180.78 L1000.98,2177.42 L999.893,2175.13 L999.488,2174.55 L997.586,2171.85 L996.091,2170.27 L995.109,2169.23 L995.072,2169.19 L995.035,2169.16 L993.968,2168.14 L993.307,2167.51 L992.25,2166.93 L990.682,2166.08 L988.516,2165.43 L987.503,2165.12 L985.374,2164.6 L982.518,2163.9 L977.269,2162.79 L976.186,2162.75 L974.707,2162.71 L971.696,2162.61 L968.77,2162.52 L965.98,2162.43 L964.038,2162.43 L960.491,2162.43 L960.057,2162.43 L958.28,2162.35 L955.575,2162.23 L953.484,2162.09 L952.41,2162.01 L948.772,2161.06 L945.256,2159.73 L944.303,2159.37 L943.179,2158.88 L939.942,2157.48 L935.844,2155.86 L931.533,2154.61 L924.928,2152.58 L917.401,2150.21 L911.848,2148.54 L911.05,2148.3 L907.636,2147.61 L905.985,2147.27 L901.278,2147.19 L896.492,2147.33 L892.563,2147.69 L891.019,2147.83 L890.725,2147.88 L888.599,2148.19 L885.911,2148.58 L884.979,2148.89 L882.77,2149.61 L882.595,2149.67 L878.656,2151.36 L875.793,2152.84 L873.932,2153.81 L871.989,2155.67 L870.473,2157.12 L869.636,2157.91 L867.114,2160.27 L863.112,2163.72 L861.667,2165.05 L858.703,2167.78 L856.3,2169.45 L855.406,2170.07 L852.535,2172.03 L850.724,2173.21 L848.564,2174.51 L845.523,2175.73 L842.166,2176.68 L837.293,2178.12 L836.165,2178.39 L833.378,2179.06 L831.148,2179.14 L830.852,2179.15 L829.89,2179.19 L829.696,2179.2 L828.477,2179.29 L826.145,2179.46 L822.607,2179.18 L818.952,2178.68 L816.019,2178.07 L813.979,2177.32 L813.295,2176.81 L811.939,2175.79 L811.618,2175.55 L808.202,2172.73 L805.37,2170.11 L804.176,2168.69 L803.321,2167.67 L800.937,2163.8 L799.689,2161.01 L799.583,2160.77 L798.951,2157.85 L798.979,2155.62 L799.27,2154.31 L799.857,2151.66 L800.584,2149.29 L800.949,2148.1 L801.574,2146.28 L802.166,2145.11 L802.772,2143.9 L802.952,2143.54 L805.309,2139.82 L808.736,2134.7 L810.737,2131.55 L813.559,2127.11 L818.578,2119.91 L820.082,2117.25 L821.97,2113.62 L825.451,2106.46 L827.106,2103.02 L828.557,2099.41 L829.799,2095.48 L830.095,2094.31 L830.334,2093.35 L830.738,2089.4 L830.844,2086.35 L831.323,2083.66 L831.258,2081.46 L831.212,2079.89 L830.452,2077.28 L829.314,2074.83 L828.077,2072.9 L826.306,2070.52 L824.36,2069.06 L821.766,2067.34 L821.026,2066.89 L820.606,2066.64 L819.763,2066.13 L818.802,2065.54 L815.484,2063.74 L811.621,2062.17 L808.322,2060.82 L805.186,2059.49 L804.044,2058.76 L802.888,2058.02 L801.601,2057.35 L799.803,2056.42 L796.847,2055.02 L793.97,2052.76 L793.262,2052.2 L790.699,2050.13 L787.215,2046.69 L786.47,2045.66 L783.988,2042.24 L783.533,2041.61 L782.032,2038.59 L781.96,2038.44 L780.705,2034.42 L779.728,2030.46 L779.207,2025.18 L778.746,2021.19 L778.618,2020.08 L777.868,2016.51 L777.54,2015.4 L776.664,2012.44 L775.198,2008.18 L774.543,2006.23 L774.087,2004.88 L772.681,2001.7 L771.187,1999.29 L769.534,1997.02 L769.531,1997.02 L767.825,1995.06 L767.758,1994.98 L767.237,1994.38 L764.18,1991.6 L761.127,1989.55 L760.699,1989.31 L759.015,1988.39 L757.589,1988.07 L756.575,1987.85 L756.119,1987.75 L753.793,1987.13 L753.513,1987.06 L750.325,1986.74 L749.475,1986.65 L749.161,1986.66 L746.881,1986.65 L745.99,1986.93 L744.489,1987.41 L743.159,1987.43 L741.303,1987.44 L736.321,1988.04 L733.951,1988.23 L732.82,1988.32 L731.805,1988.41 L730.56,1988.46 L728.736,1988.55 L726.659,1988.64 L725.14,1988.53 L724.162,1988.46 L723.624,1988.42 L718.881,1988.06 L716.829,1987.69 L716.725,1987.67 L714.759,1987.32 L714.046,1987.15 L710.372,1986.22 L708.337,1985.43 L707.119,1984.95 L706.166,1984.46 L703.195,1982.94 L701.688,1982.1 L700.336,1981.36 L697.775,1978.92 L696.967,1978.15 L693.949,1974.66 L690.824,1971.1 L690.348,1970.56 L684.383,1963.31 L679.154,1957.03 L674.204,1950.87 L669.918,1945.71 L668.278,1943.89 L666.755,1942.2 L663.655,1939.34 L662.142,1938.05 L660.255,1936.44 L659.055,1935.32 L656.58,1933 L655.764,1932.24 L654.803,1931.35 L650.971,1926.94 L647.376,1922.87 L643.937,1918.91 L642.012,1916.48 L639.726,1913.6 L635.301,1908.17 L631.129,1902.99 L629.361,1900.32 L629.147,1899.96 L628.162,1898.29 L627.484,1897.15 L625.756,1893.21 L623.701,1888.73 L623.841,1884.81 L624.312,1880.95 L624.918,1876.73 L625.268,1875.53 L625.799,1873.71 L626.933,1872.32 L629.165,1869.6 L632.556,1866.03 L635.931,1863.35 L636.889,1862.77 L639.953,1860.91 L643.091,1859.13 L644.36,1858.41 L645.41,1858.03 L647.464,1857.3 L649.664,1856.52 L653.281,1855.31 L655.278,1854.65 L658.806,1853.07 L663.084,1851.1 L664.887,1850.14 L667.487,1848.76 L669.724,1847.2 L670.862,1846.41 L672.048,1845.01 L674.679,1840.5 L675.727,1838.53 L675.995,1838.02 L676.59,1836.91 L677.621,1834.99 L679.474,1831.3 L679.68,1830.89 L680.561,1827.23 L681.685,1821.43 L681.611,1818.93 L681.557,1817.11 L681.078,1813.71 L680.909,1812.51 L679.323,1807.98 L678.042,1804.26 L677.091,1801.49 L674.735,1795.27 L673.357,1792.99 L673.332,1792.95 L671.472,1788.22 L669.971,1784.94 L667.615,1780.47 L664.915,1775.35 L662.998,1771.42 L661.51,1768.61 L660.503,1766.7 L657.784,1763.5 L655.59,1761.19 L653.661,1759.47 L652.414,1758.36 L651.341,1757.66 L648.258,1755.64 L645.266,1754.02 L643.75,1753.21 L640.939,1751.95 L636.877,1750.92 L635.438,1750.59 L634.565,1750.38 L634.101,1750.27 L631.56,1750.73 L630.674,1750.9 L630.523,1750.95 L626.072,1752.53 L622.126,1754.13 L617.366,1756.56 L616.256,1757.42 L614.959,1758.43 L614.535,1758.75 L612.623,1760.45 L609.49,1764.02 L608.747,1764.93 L606.707,1767.41 L605.35,1769.2 L604.915,1769.78 L603.816,1771.23 L602.36,1773.42 L601.796,1774.27 L601.715,1774.4 L600.652,1776.46 L599.274,1779.13 L597.193,1783.01 L594.951,1788.75 L593.813,1791.68 L592.73,1794.47 L589.598,1802.51 L587.303,1808.33 L587.262,1808.45 L586.071,1811.93 L584.802,1816.45 L583.645,1821.05 L583.366,1822.31 L582.586,1825.82 L582.426,1828.39 L582.384,1829.06 L583.474,1833.86 L584.414,1836.13 L585.335,1838.34 L587.969,1843.28 L590.895,1848.87 L594.265,1854.89 L597.349,1860.75 L597.986,1862.2 L599.603,1865.9 L600.912,1869.97 L601.112,1870.75 L602.12,1874.7 L603.13,1880.08 L603.43,1884.31 L603.472,1884.9 L603.232,1889.35 L603.109,1890.35 L602.694,1893.73 L602.369,1894.71 L601.483,1897.38 L599.962,1900.95 L597.451,1905.66 L595.643,1908.45 L593.283,1909.93 L591.069,1911.38 L590.136,1911.68 L589.973,1911.73 L588.656,1912.14 L586.921,1912.41 L585.234,1912.67 L582.878,1912.29 L579.188,1911.69 L577.154,1910.74 L576.189,1910.28 L571.944,1907.75 L569.735,1906.29 L568.115,1905.22 L565.002,1903.1 L560.812,1899.48 L558.067,1897.32 L554.379,1894.41 L550.684,1891.98 L548.525,1890.56 L544.433,1888.8 L541.263,1887.83 L538.385,1887.34 L537.224,1887.15 L536.135,1887.13 L535.561,1887.13 L535.531,1887.13 L531.264,1887.08 L529.8,1887.12 L527.854,1887.17 L522.537,1887.38 L521.813,1887.41 L521.674,1887.43 L518.761,1887.95 L516.476,1888.36 L514.455,1888.75 L511.525,1889.31 L507.284,1890.13 L503.236,1890.41 L501.918,1890.45 L497.622,1890.59 L491.33,1890.87 L491.266,1890.86 L487.897,1890.81 L486.471,1890.78 L483.258,1890.51 L480.372,1890.16 L476.595,1889.74 L475.398,1889.57 L473.402,1889.29 L468.214,1888.82 L468.081,1888.81 L462.514,1887.9 L457.966,1886.43 L453.7,1884.85 L450.565,1883.04 L449.172,1881.68 L449.141,1881.65 L447.657,1880.14 L445.318,1877.22 L443.605,1874.53 L443.254,1873.41 L442.103,1869.73 L441.738,1868.12 L441.572,1867.39 L441.596,1867.09 L441.815,1864.29 L441.874,1863.53 L442.2,1861.79 L442.679,1859.23 L442.905,1858.31 L443.314,1856.63 L443.564,1855.61 L444.271,1854.15 L445.302,1852.02 L446.051,1850.89 L447.055,1849.39 L448.53,1847.61 L449.671,1846.23 L451.504,1844.22 L451.885,1843.8 L455.413,1840.97 L459.367,1837.85 L462.913,1835.38 L464.904,1834.07 L465.066,1833.96 L466.424,1833.07 L468.286,1831.83 L469.753,1830.85 L471.95,1829.38 L474.148,1827.9 L477.486,1825.16 L481.094,1822.79 L482.643,1821.78 L484.28,1820.9 L486.643,1819.64 L491.183,1817.56 L494.011,1815.99 L495.303,1815.28 L497.274,1814.42 L499.04,1813.66 L503.942,1811.98 L510.407,1809.45 L513.625,1808.19 L515.008,1807.4 L516.594,1806.5 L517.807,1805.59 L518.579,1805.02 L518.806,1804.85 L521.646,1801.98 L523.449,1799.7 L523.563,1799.53 L525.879,1796.25 L527.383,1793.59 L528.893,1790.34 L529.464,1788.78 L530.104,1787.02 L530.385,1785.89 L530.956,1783.59 L531.259,1781.2 L531.582,1778.64 L531.683,1775.99 L531.383,1774.62 L531.144,1773.52 L530.78,1770.44 L529.758,1767.76 L529.553,1767.21 L529.49,1767.04 L529.018,1766.03 L528.211,1764.31 L526.938,1762.61 L526.371,1761.85 L523.346,1758.45 L520.499,1755.69 L517.207,1753.15 L514.167,1750.91 L513.193,1750.26 L511.754,1749.31 L509.726,1747.97 L507.664,1746.75 L507.407,1746.6 L507.25,1746.58 L505.465,1746.27 L502.267,1745.79 L501.033,1745.85 L499.644,1745.92 L498.291,1746.03 L496.675,1746.15 L494.086,1746.94 L493.277,1747.39 L492.983,1747.56 L492.066,1748.07 L491.737,1748.45 L491.678,1748.52 L490.526,1749.86 L490.002,1750.66 L489.21,1751.88 L488.134,1754.1 L487.172,1756.39 L486.734,1757.57 L486.449,1758.34 L486.252,1758.94 L485.694,1760.65 L485.161,1762.5 L484.851,1764.87 L484.695,1766.64 L484.615,1767.54 L484.475,1768.27 L484.086,1770.3 L484.257,1772.29 L484.34,1773.26 L483.909,1776.19 L483.723,1778.28 L483.241,1779.45 L482.987,1781.07 L482.619,1783.44 L482.087,1785.66 L481.532,1787.97 L481.176,1789.8 L480.885,1791.31 L480.127,1794.79 L479.456,1796.44 L479.162,1796.9 L478.313,1798.21 L477.058,1799.9 L475.623,1801.13 L474.607,1802.35 L473.68,1803.46 L470.056,1806.18 L469.103,1806.89 L466.492,1808.45 L465.553,1808.99 L464.338,1809.7 L461.221,1810.86 L458.907,1811.72 L457.763,1811.84 L456.309,1811.99 L454.661,1811.98 L453.547,1811.97 L452.613,1811.86 L450.887,1811.67 L448.864,1811.22 L446,1810.6 L439.808,1809.16 L436.973,1808.37 L433.983,1807.54 L429.618,1805.86 L424.796,1804.1 L419.531,1802.22 L417.23,1800.59 L415.03,1799.63 L414.026,1798.65 L410.336,1796.31 L408.41,1793.73 L406.936,1792.17 L405.646,1790.81 L403.915,1787.96 L400.784,1783.66 L398.312,1780.34 L395.461,1776.27 L394.938,1775.52 L392.672,1772.28 L390.628,1769.81 L387.926,1767.16 L386.613,1765.92 L386.175,1765.51 L385.662,1765.02 L383.757,1763.66 L383.178,1763.25 L382.477,1762.84 L380.266,1761.54 L378.129,1760.45 L377.214,1759.98 L377.033,1759.9 L375.654,1759.27 L372.17,1757.69 L367.322,1755.77 L365.014,1754.95 L362.548,1754.08 L358.425,1752.61 L356.84,1752.04 L356.466,1751.96 L354.362,1751.49 L353.438,1751.29 L349.269,1750.44 L344.677,1749.79 L341.854,1749.52 L341.425,1749.48 L341.083,1749.45 L340.3,1749.46 L338.11,1749.48 L335.156,1749.89 L334.402,1750 L332.4,1751.46 L330.652,1753.29 L330.608,1753.34 L329.351,1756.03 L328.611,1758.53 L328.29,1761.17 L328.408,1762.85 L328.47,1763.73 L328.962,1765.42 L329.484,1767.21 L329.838,1767.86 L331.573,1771.06 L333.99,1773.89 L335.346,1775.73 L335.361,1775.75 L337.164,1778.2 L339.898,1780.31 L343.593,1784.28 L346.736,1787.12 L350.644,1790.96 L355.131,1795.24 L358.387,1798.07 L362.339,1802.15 L365.208,1805.64 L366.699,1807.88 L367.047,1808.5 L368.255,1810.66 L368.538,1811.87 L368.716,1812.63 L369.327,1814.2 L369.868,1815.61 L371.88,1819.57 L372.344,1821.02 L372.705,1822.15 L372.752,1822.8 L372.886,1824.69 L372.557,1827.59 L372.019,1830.51 L371.02,1835.32 L369.679,1842.77 L368.681,1846.39 L368.035,1848.31 L367.579,1849.67 L366.98,1850.49 L365.814,1852.07 L365.068,1853.03 L363.671,1854.82 L361.127,1858.65 L360.309,1859.74 L358.709,1861.88 L356.219,1865.39 L353.472,1867.03 L350.327,1868.44 L349.554,1868.6 L347.294,1869.08 L344.792,1868.1 L343.607,1867.44 L342.234,1866.68 L341.579,1865.09 L341.191,1864.14 L340.505,1862.98 L339.681,1861.58 L339.353,1860.25 L339.233,1859.77 L338.914,1858.49 L337.912,1854.19 L336.95,1849.27 L336.503,1846.3 L336.075,1842.46 L335.647,1836.85 L335.251,1830.61 L334.804,1827.63 L334.028,1824.84 L333.327,1822.97 L332.487,1820.74 L332.356,1820.46 L330.437,1816.33 L328.091,1812.4 L325.883,1809.86 L322.556,1806.04 L318.565,1802.47 L317.136,1801.26 L315.728,1800.08 L311.329,1796.92 L308.92,1795.25 L307.505,1794.28 L304.887,1792.15 L302.14,1789.55 L300.404,1787.77 L298.17,1786.25 L295.269,1783.29 L293.452,1780.86 L290.833,1777.84 L290.03,1776.88 L288.009,1774.49 L285.571,1771.62 L284.815,1770.73 L281.205,1767.17 L280.097,1766.18 L279.049,1765.25 L274.764,1762.33 L273.474,1761.46 L271.459,1760.1 L270.803,1759.66 L269.476,1758.84 L269.418,1758.8 L267.689,1757.73 L265.117,1756.81 L264.97,1756.75 L260.56,1755.34 L258.806,1754.71 L257.842,1754.36 L257.569,1754.34 L251.488,1753.86 L250.571,1753.93 L247.954,1754.15 L246.24,1754.19 L245.235,1754.53 L242.8,1755.38 L238.243,1757.06 L234.5,1759.24 L231.015,1762.34 L226.526,1766.3 L226.204,1766.6 L224.244,1768.47 L223.176,1769.51 L222.629,1770.12 L221.689,1771.17 L221.38,1771.51 L220.682,1772.61 L220.382,1773.08 L219.218,1774.91 L218.901,1775.41 L218.205,1776.53 L217.289,1778.71 L217.287,1779.24 L217.28,1781.09 L217.015,1781.23 L216.541,1780.9 L216.773,1779.83 L216.976,1777.87 L218.001,1774.12 L220.497,1766.14 L223.34,1763.11 L222.662,1760.18 L222.377,1756.34 L220.915,1756.36 L218.038,1757.13 L217.98,1756.59 L216.613,1756.22 L214.811,1757.11 L214.248,1756.54 L213.026,1757.02 L212.497,1757.84 L210.209,1758.08 L208.503,1758.52 L206.255,1755.57 L205.305,1754.54 L204.571,1754.3 L204.686,1753.75 L205.168,1753.46 L204.934,1752.57 L204.35,1752.53 L203.729,1751.59 L201.39,1752.4 L199.25,1752.84 L197.788,1753.35 L196.462,1754.86 L196.001,1754.83 L194.417,1752.33 L192.823,1751.49 L189.414,1751.33 L186.236,1751.44 L184.444,1750.66 L180.409,1747.52 L176.054,1744.8 L167.886,1742.59 L165.915,1739.85 L158.341,1733.91 L161.054,1725.57 L151.217,1722.66 L152.744,1718.43 L152.721,1716.98 L148.961,1716.12 L150.083,1704.85 L149.104,1704.55 L148.554,1704.76 L143.914,1699.55 L145.057,1697.1 L146.146,1692.16 L142.452,1692.51 L138.251,1693.28 L138.372,1684.8 L136.209,1684.25 L136.256,1683.3 L135.607,1683.07 L126.458,1682.25 L126.079,1685.23 L123.932,1683.44 L121.128,1682.18 L119.536,1680.71 L119.536,1677.15 L119.096,1672.88 L118.225,1668.88 L119.65,1667.95 L119.984,1661.97 L118.635,1661.58 L119.128,1659.49 L114.979,1658.19 L115.153,1653.99 L115.965,1650.89 L112.599,1649.25 L115.588,1642.34 L115.573,1642.07 L107.277,1637.65 L102.167,1633.36 L100.264,1632.26 L106.245,1622.8 L108.941,1623.94 L113.174,1619.72 L117.748,1618.01 L129.588,1610.4 L134.87,1607.38 L129.939,1593.68 L132.551,1592.49 L132.336,1589.67 L132.944,1588.51 L133.755,1587.91 L137.174,1587.86 L136.199,1584.68 L137.769,1583.69 L140.722,1581.24 L142.324,1582.87 L146.369,1578.57 L144.043,1576.39 L141.515,1575.14 L139.092,1574.43 L136.045,1573.78 L135.959,1569.66 L136.234,1568.44 L136.974,1567.63 L140.224,1566.13 L142.952,1565.61 L141.719,1565.13 L140.67,1562.22 L142.761,1551.69 L149.482,1548.2 L150.578,1531.75 L150.656,1530.5 L151.312,1529.38 L152.993,1527.48 L152.591,1526.93 L158.678,1521.18 L162.329,1518.46 L164.043,1514.8 L164.962,1511.79 L166.346,1508.59 L168.564,1505.72 L169.999,1503.35 L171.077,1499.92 L171.408,1499.35 L173.653,1498.36 L172.811,1496.07 L178.493,1490.28 L180.302,1486.91 L182.007,1485.17 L184.321,1481 L186.528,1481.73 L190.956,1468.82 L194.666,1469.63 L194.574,1463.86 L196.346,1463.28 L198.492,1462.4 L200.397,1461.34 L202.664,1459.26 L203.73,1457.41 L206.612,1448.12 L208.042,1443.94 L208.744,1440.82 L210.348,1437.79 L210.537,1435.42 L210.39,1433.41 L209.692,1430.73 L209.183,1428.65 L212.355,1425.92 L216.111,1424.8 L229.525,1412.43 L224.583,1404.12 L233.078,1395.6 L236.101,1391.61 L238.387,1386.1 L242.052,1381.99 L253.822,1383.6 L263.111,1368.5 L267.98,1351.63 L268.019,1350.7 L286.42,1349.84 L320.858,1338.14 L322.731,1338.12 L322.904,1338.08 L323.118,1334.31 L323.423,1332.54 L325.38,1325.74 L329.047,1315.6 L329.719,1311.75 L329.977,1306.01 L331.136,1287.33 L331.793,1282.55 L333.133,1277.09 L333.801,1275.97 L335.719,1273.92 L337.043,1272.9 L338.417,1272.22 L339.999,1271.89 L346.956,1271.57 L348.223,1271.33 L349.244,1270.55 L349.914,1269.38 L350.355,1267.93 L350.161,1266.49 L349.574,1265.54 L348.209,1263.55 L346.744,1262.18 L331.621,1249.42 L330.752,1248.06 L330.18,1246.6 L330.039,1244.68 L330.581,1242.91 L331.495,1241.63 L332.888,1240.89 L338.639,1240.61 L340.223,1239.67 L341.748,1238.29 L347.45,1229.02 L347.35,1226.89 L343.489,1221.58 L341.409,1218.99 L341.201,1217.7 L344.274,1213.19 L344.213,1210.5 L333.689,1195.17 L334.649,1194.55 L332.934,1190.78 L332.528,1189.95 L331.404,1191.33 L329.339,1192.73 L328.25,1192.69 L325.371,1191.47 L321.82,1191.39 L320.919,1193.16 L320.367,1196.94 L317.406,1198.93 L314.953,1203.3 L311.928,1205.08 L310.578,1206.9 L309.159,1207.59 L303.514,1213.73 L300.758,1213.45 L299.045,1214.1 L297.299,1213.63 L295.034,1211.5 L292.975,1208.8 L292.416,1207.34 L292.299,1205.26 L293.682,1202.44 L294.075,1200.67 L293.604,1198.19 L293.615,1196.25 L295.467,1192.07 L296.177,1189.75 L296.149,1185.37 L295.451,1183.67 L293.934,1182.9 L290.455,1177.46 L288.981,1176.01 L287.283,1175.14 L285.93,1175.08 L284.598,1175.41 L275.27,1188.11 L274.44,1188.42 L273.804,1188.18 L272.985,1187.4 L270.824,1187.35 L268.345,1188.07 L267.729,1187.78 L267.135,1184.99 L265.93,1184.11 L261.02,1183.63 L258.596,1181.63 L253.551,1179.19 L250.71,1178.29 L249.137,1177.48 L248.336,1175.93 L245.533,1173.76 L240.69,1173.05 L234.581,1171.34 L231.319,1169.73 L224.316,1169.43 L220.893,1169.72 L216.889,1168.59 L215.55,1168.34 L208.41,1167.43 L204.038,1167.86 L200.721,1169.16 L196.325,1172.31 L192.202,1176.28 L154.24,1145.73 L148.114,1131.2 L147.948,1130.44 L148.101,1129.62 L152.149,1111.57 L162.941,1109.8 L169.046,1108.79 L169.225,1107.34 L170.429,1084.98 L170.416,1083.63 L169.615,1073.51 L169.122,1067.2 L168.924,1066.81 L168.946,1065.36 L167.597,1048 L166.865,1038.6 L165.81,1026.76 L164.594,1015.61 L163.58,999.612 L161.842,978.455 L161.924,977.296 L159.093,947.941 L159.328,948.011 L159.309,947.407 L160.841,933.426 L166.89,932.06 L174.237,930.708 L175.658,925.19 L176.271,921.714 L183.824,917.428 L197.287,910.234 L209.886,902.808 L213.022,901.366 L217.018,899.305 L216.952,899.146 L219.648,897.907 L241.031,890.541 L246.033,888.566 L256.433,885.015 L261.149,883.739 L261.447,883.706 L261.506,884.026 L266.522,889.693 L269.84,892.14 L270.301,892.296 L272.612,892.508 L277.22,892.226 L288.577,890.906 L294.708,894.866 L308.233,911.197 L308.323,911.083 L308.897,911.19 L319.015,916.21 L319.286,915.788 L323.381,913.47 L328.318,910.403 L361.344,889.88 L362.21,888.796 L373.412,867.668 L374.016,865.669 L374.565,865.582 L375.793,865.622 L378.261,829.479 L378.303,828.858 L379.579,828.444 L382.779,827.943 L408.008,822.173 L408.529,821.988 L418.703,819.544 L422.699,828.905 L426.883,828.006 L437.488,825.121 L441.198,825.342 L456.372,829.189 L456.26,829.382 L468.262,832.4 L468.488,832.481 L468.489,832.246 L473.446,833.534 L492.968,831.061 L494.916,830.91 L497.212,830.956 L514.15,832.934 L517.582,833.425 L517.358,833.212 L525.866,816.346 L525.914,815.888 L523.476,788.724 L522.816,783.855 L522.831,778.228 L522.04,767.833 L522.096,767.511 L521.48,767.514 L502.924,730.31 L486.58,704.858 L486.578,703.854 L486.994,702.512 L491.74,700.661 L508.632,694.342 L519.552,690.336 L528.09,687.063 L534.924,683.242 L541.684,679.232 L542.735,678.711 L543.553,678.447 L545.014,678.194 L550.873,677.378 L554.805,676.829 L556.075,676.53 L576.926,668.881 L564.382,634.023 L557.542,615.341 L568.813,584.11 L568.482,583.704 L555.665,540.672 L554.707,533.171 L555.003,533.122 L554.933,530.858 L554.308,528.014 L552.928,528.31 L551.48,526.354 L550.699,526.551 L550.171,524.45 L550.391,519.777 L549.712,519.681 L550.568,515.822 L550.74,514.418 L553.41,508.95 L553.822,506.778 L554.744,504.656 L555.492,503.953 L557.261,504.255 L561.833,506.032 L563.541,505.953 L565.397,506.221 L567.784,506.659 L571.806,507.025 L572.543,507.378 L573.126,508.406 L573.342,509.986 L578.696,505.303 L581.714,506.112 L583.213,507.283 L585.365,509.885 L592.237,516.988 L636.374,504.814 L686.003,491.508 L686.199,490.696 L687.713,488.35 L688.265,487.578 L688.485,487.416 L690.529,484.406 L691.746,485.488 L694.274,487.302 L695.339,487.831 L696.765,487.92 L698.868,487.817 L700.904,487.06 L702.175,486.648 L705.02,485.398 L711.033,481.569 L712.231,480.327 L713.723,478.555 L714.958,476.144 L715.634,473.241 L715.59,471.896 L716.656,469.308 L718.052,465.582 L719.471,462.796 L720.867,459.591 L723.348,455.521 L724.822,453.167 L726.762,450.411 L729.453,448.507 L733.079,446.841 L738.189,444.569 L740.036,444.392 L741.995,444.776 L742.123,443.918 L742.623,443.6 L743.397,443.17 L741.668,437.849 L741.634,436.994 L742.138,436.608 L755.576,435.304 L755.895,435.184 L773.944,439.684 L805.911,436.388 L807.098,436.54 L807.16,435.525 L810.043,421.158 L854.724,411.485 L879.079,406.212 L880.98,417.38 L881.576,417.945 L923.353,422.325 L919.571,461.749 L928.772,467.666 L969.692,444.546 L970.25,444.306 L984.705,446.32 L987.806,452.091 L995.656,448.829 L1021.18,438.414 L1023.64,424.43 L1011.51,422.149 L1012.87,413.216 L1017.97,385.058 L1011.95,383.748 L999.553,366.871 L987.039,349.681 L973.126,331.046 L979.656,319.158 L1002.99,276.937 L1021.26,274.983 L1022.08,274.908 L1044.11,281.55 L1043.71,279.548 L1043.47,278.73 L1043.02,277.934 L1022.96,249.883 L1006.93,245.185 L997.413,237.835 L1000.82,231.357 L1008.95,218.08 L1020.61,206.533 L1061.46,232.551 L1094.93,209.385 L1102.23,204.799 L1110.31,196.889 L1111.79,195.149 L1115.12,191.311 L1117.21,188.603 L1139.23,206.944 L1139.27,203.467 L1142.29,196.234 L1144.01,194.063 L1155.2,178.947 L1158.96,175.804 L1159.19,175.531 L1165.73,158.234 L1160.58,148.454 L1158.99,144.702 L1157.34,145.156 L1155.28,132.713 L1173.24,130.29 L1181.04,126.677 L1182.61,126.002 L1185.61,125.036 L1190.4,123.977 L1208.81,120.132 L1217.14,118.591 L1220.47,118.25 L1223.88,118.028 L1249.06,119.701 L1257.82,117.717 L1266.84,115.672 L1269.81,119.583 L1272.13,122.211 L1288.2,128.502 L1293.87,131.63 L1298.66,134.544 L1302.34,137.814 L1305.45,140.363 L1308.41,143.303 L1329.43,165.055 L1343.48,168.61 L1356.36,172.125 L1348.73,200.572 L1356.5,207.851 L1364.61,211.625 L1379.2,215.698 L1379.28,216.334 L1378.93,216.57 L1362.3,238.046 L1396.23,253.739 L1401.15,257.374 L1401.77,258.951 L1414.06,259.316 L1415.37,259.864 L1417.68,263.019 L1427.98,276.159 L1427.18,276.958 L1423.08,297.869 L1438.63,298.35 L1441.91,315.942 L1442.34,316.491 L1442.7,318.525 L1442.9,320.047 L1442.48,321.937 L1441.92,323.746 L1438.22,328.386 L1442.75,339.447 L1444.24,339.269 L1454.77,339.933 L1456.91,346.391 L1465,346.568 L1480.95,338.219 L1495.14,331.199 L1495.09,329.422 L1496.92,329.354 L1497.86,330.023 L1515.68,329.452 L1518.31,327.955 L1536.1,328.002 L1537.5,327.874 L1537.51,327.526 L1538.89,327.481 L1539.93,327.361 L1539.88,324.628 L1539.78,323.098 L1539.63,320.684 L1539.52,318.811 L1540.92,318.873 L1541.31,320.278 L1541.47,321.779 L1542.91,325.207 L1544.15,327.382 L1545.17,328.887 L1547.49,331.686 L1549.1,333.641 L1552.47,337.09 L1554.6,339.262 L1555.92,339.26 L1555.92,338.789 L1556.48,338.512 L1557.41,338.479 L1558.42,338.489 L1559.61,338.605 L1562.02,339.147 L1562.87,339.444 L1563.37,339.601 L1564.35,339.734 L1565.51,340.238 L1566.5,340.404 L1568.25,340.858 L1569.42,341.355 L1571.27,341.809 L1573.89,342.181 L1577.83,342.694 L1579.78,342.763 L1581.63,342.781 L1582.13,342.984 L1584.32,342.967 L1587.6,342.698 L1588.95,342.52 L1590.42,342.161 L1595.07,341.509 L1596.04,341.445 L1598.97,341.565 L1601.77,341.483 L1605.27,341.173 L1607.37,340.49 L1608.87,339.09 L1610.96,337.592" fill-rule="evenodd"/>
  </g>
  <g font-size="34.5833" font-style="normal" fill="none" stroke="#000000" transform="matrix(0.999744,0,0,0.999744,0,0)" font-family="MS Shell Dlg 2" stroke-opacity="1" stroke-width="1" stroke-linecap="square" font-weight="400" stroke-linejoin="bevel"/>
  <g font-size="34.5833" font-style="normal" fill="none" stroke="#000000" transform="matrix(11.808,0,0,11.808,0,0)" font-family="MS Shell Dlg 2" stroke-opacity="1" stroke-width="1" stroke-linecap="square" font-weight="400" stroke-linejoin="bevel"/>
  <g font-size="34.5833" font-style="normal" fill="none" stroke="#000000" transform="matrix(11.808,0,0,11.808,0,0)" font-family="MS Shell Dlg 2" stroke-opacity="1" stroke-width="1" stroke-linecap="square" font-weight="400" stroke-linejoin="bevel"/>
  <g font-size="34.5833" font-style="normal" fill="none" stroke="#000000" transform="matrix(11.808,0,0,11.808,0,0)" font-family="MS Shell Dlg 2" stroke-opacity="1" stroke-width="1" stroke-linecap="square" font-weight="400" stroke-linejoin="bevel"/>
  <g font-size="34.5833" font-style="normal" fill="none" stroke="#000000" transform="matrix(1,0,0,1,0,0)" font-family="MS Shell Dlg 2" stroke-opacity="1" stroke-width="1" stroke-linecap="square" font-weight="400" stroke-linejoin="bevel"/>
  <g font-size="34.5833" font-style="normal" fill="none" stroke="#000000" transform="matrix(11.808,0,0,11.808,0,0)" font-family="MS Shell Dlg 2" stroke-opacity="1" stroke-width="1" stroke-linecap="square" font-weight="400" stroke-linejoin="bevel"/>
  <g font-size="34.5833" font-style="normal" fill="none" stroke="#000000" transform="matrix(11.808,0,0,11.808,0,0)" font-family="MS Shell Dlg 2" stroke-opacity="1" stroke-width="1" stroke-linecap="square" font-weight="400" stroke-linejoin="bevel"/>
  <g font-size="34.5833" font-style="normal" fill="none" stroke="#000000" transform="matrix(11.808,0,0,11.808,0,0)" font-family="MS Shell Dlg 2" stroke-opacity="1" stroke-width="1" stroke-linecap="square" font-weight="400" stroke-linejoin="bevel"/>
  <g font-size="34.5833" font-style="normal" fill="none" stroke="#000000" transform="matrix(11.808,0,0,11.808,0,0)" font-family="MS Shell Dlg 2" stroke-opacity="1" stroke-width="1" stroke-linecap="square" font-weight="400" stroke-linejoin="bevel"/>
  <g font-size="34.5833" font-style="normal" fill="none" stroke="#000000" transform="matrix(1,0,0,1,0,0)" font-family="MS Shell Dlg 2" stroke-opacity="1" stroke-width="1" stroke-linecap="square" font-weight="400" stroke-linejoin="bevel"/>
 </g>
</svg>
