<?xml version='1.0' encoding='UTF-8' standalone='no'?>
<svg xmlns:xlink="http://www.w3.org/1999/xlink" height="249.936mm" width="249.936mm" viewBox="0 0 2952 2952" version="1.2" baseProfile="tiny" xmlns="http://www.w3.org/2000/svg">
 <title>Qt SVG Document</title>
 <desc>Generated with Qt</desc>
 <defs/>
 <g stroke-linejoin="bevel" stroke-width="1" fill="none" stroke-linecap="square" stroke="black" fill-rule="evenodd">
  <g stroke-linejoin="bevel" stroke-width="1" font-size="34.5833" fill="none" stroke-linecap="square" stroke="#000000" font-weight="400" font-style="normal" stroke-opacity="1" transform="matrix(1,0,0,1,0,0)" font-family="MS Shell Dlg 2"/>
  <g stroke-linejoin="bevel" stroke-width="1" font-size="34.5833" fill="none" stroke-linecap="square" stroke="#000000" font-weight="400" font-style="normal" stroke-opacity="1" transform="matrix(1,0,0,1,0,0)" font-family="MS Shell Dlg 2"/>
  <g stroke-linejoin="bevel" stroke-width="1" font-size="34.5833" fill="none" stroke-linecap="square" stroke="#000000" font-weight="400" font-style="normal" stroke-opacity="1" transform="matrix(11.808,0,0,11.808,0,0)" font-family="MS Shell Dlg 2"/>
  <g stroke-linejoin="bevel" stroke-width="1" font-size="34.5833" fill="none" stroke-linecap="square" stroke="#000000" font-weight="400" font-style="normal" stroke-opacity="1" transform="matrix(0.999744,0,0,0.999744,0,0)" font-family="MS Shell Dlg 2"/>
  <g fill-opacity="0" font-size="34.5833" fill="#ffffff" stroke="none" font-weight="400" font-style="normal" transform="matrix(0.999744,0,0,0.999744,0,0)" font-family="MS Shell Dlg 2">
   <path d="M-2,-2 L2955,-2 L2955,2955 L-2,2955 L-2,-2" vector-effect="none" fill-rule="evenodd"/>
  </g>
  <g stroke-linejoin="bevel" stroke-width="1" font-size="34.5833" fill="none" stroke-linecap="square" stroke="#000000" font-weight="400" font-style="normal" stroke-opacity="1" transform="matrix(0.999744,0,0,0.999744,0,0)" font-family="MS Shell Dlg 2"/>
  <g stroke-linejoin="bevel" stroke-width="1" font-size="34.5833" fill="none" stroke-linecap="square" stroke="#000000" font-weight="400" font-style="normal" stroke-opacity="1" transform="matrix(11.808,0,0,11.808,0,0)" font-family="MS Shell Dlg 2"/>
  <g stroke-linejoin="bevel" stroke-width="1" font-size="34.5833" fill="none" stroke-linecap="square" stroke="#000000" font-weight="400" font-style="normal" stroke-opacity="1" transform="matrix(11.808,0,0,11.808,0,0)" font-family="MS Shell Dlg 2"/>
  <g stroke-linejoin="bevel" stroke-width="1" font-size="34.5833" fill="none" stroke-linecap="square" stroke="#000000" font-weight="400" font-style="normal" stroke-opacity="1" transform="matrix(11.808,0,0,11.808,0,0)" font-family="MS Shell Dlg 2"/>
  <g stroke-linejoin="bevel" stroke-width="1" font-size="34.5833" fill="none" stroke-linecap="square" stroke="#000000" font-weight="400" font-style="normal" stroke-opacity="1" transform="matrix(11.808,0,0,11.808,0,0)" font-family="MS Shell Dlg 2"/>
  <g stroke-linejoin="bevel" stroke-width="1" font-size="34.5833" fill="none" stroke-linecap="square" stroke="#000000" font-weight="400" font-style="normal" stroke-opacity="1" transform="matrix(11.808,0,0,11.808,0,0)" font-family="MS Shell Dlg 2"/>
  <g fill-opacity="0" font-size="34.5833" fill="#ffffff" stroke="none" font-weight="400" font-style="normal" transform="matrix(11.808,0,0,11.808,0,0)" font-family="MS Shell Dlg 2">
   <path d="M0,0 L250,0 L250,250 L0,250 L0,0" vector-effect="none" fill-rule="evenodd"/>
  </g>
  <g stroke-linejoin="bevel" stroke-width="1" font-size="34.5833" fill="none" stroke-linecap="square" stroke="#000000" font-weight="400" font-style="normal" stroke-opacity="1" transform="matrix(11.808,0,0,11.808,0,0)" font-family="MS Shell Dlg 2"/>
  <g stroke-linejoin="bevel" stroke-width="1" font-size="34.5833" fill="none" stroke-linecap="square" stroke="#000000" font-weight="400" font-style="normal" stroke-opacity="1" transform="matrix(11.808,0,0,11.808,0,0)" font-family="MS Shell Dlg 2"/>
  <g fill-opacity="0" font-size="34.5833" fill="#000000" stroke="none" font-weight="400" font-style="normal" transform="matrix(0.999744,0,0,0.999744,0,0)" font-family="MS Shell Dlg 2">
   <rect y="0" height="2953" x="0" width="2953"/>
  </g>
  <g stroke-linejoin="bevel" stroke-width="1" font-size="34.5833" fill="none" stroke-linecap="square" stroke="#000000" font-weight="400" font-style="normal" stroke-opacity="1" transform="matrix(0.999744,0,0,0.999744,0,0)" font-family="MS Shell Dlg 2"/>
  <g stroke-linejoin="bevel" fill-opacity="1" stroke-width="3.07087" font-size="34.5833" fill="#c5c5c5" stroke-linecap="square" stroke="#5c5c5c" font-weight="400" font-style="normal" stroke-opacity="1" transform="matrix(0.999744,0,0,0.999744,0,0)" font-family="MS Shell Dlg 2">
   <path d="M2764.85,2035.75 L2763.72,2040.8 L2763.26,2042.89 L2761.69,2048.65 L2760.12,2056.08 L2757.7,2063.03 L2754.28,2064.05 L2752.07,2064.31 L2747.9,2064.81 L2742.17,2065.16 L2736.25,2065.74 L2731.9,2066.07 L2722.94,2066.74 L2720.67,2067.02 L2719.24,2067.2 L2717.28,2066.85 L2715.64,2066.55 L2712.92,2065.43 L2712.31,2065.18 L2711.15,2064.58 L2708.32,2063.12 L2704.44,2060.45 L2702.32,2058.65 L2700.83,2057.39 L2698.33,2054.41 L2694.06,2047.83 L2691.67,2045.06 L2688.7,2042.64 L2688.25,2042.44 L2684.77,2040.93 L2684.63,2040.88 L2684.59,2040.83 L2682.59,2038.93 L2682.43,2038.84 L2675.55,2035.03 L2671.12,2033.09 L2666.48,2031.5 L2663.17,2030.68 L2661.03,2031.05 L2660.48,2031.14 L2658.36,2031.51 L2653.55,2032.16 L2647.71,2033.48 L2647.38,2032.64 L2647.16,2032.09 L2646.04,2029.28 L2646.03,2026.98 L2646.54,2025.46 L2647.23,2023.37 L2648.26,2018.62 L2646.1,2016.57 L2644.66,2015.2 L2643.22,2013.41 L2642.33,2012.31 L2640.95,2009.99 L2639.93,2007.12 L2639.7,2007.11 L2638.69,2007.04 L2637.14,2006.95 L2628.54,2005.26 L2625.76,2003.34 L2625.16,2002.42 L2623.73,2000.25 L2623.43,1997.47 L2624.09,1996.28 L2624.82,1994.97 L2624.15,1995.28 L2622.54,1996.03 L2621.6,1996.46 L2612.32,1995.5 L2612.27,1995.5 L2612.24,1995.5 L2608.13,1995.61 L2602.67,1994.8 L2596.56,1993.69 L2593.38,1992.34 L2591.75,1991.66 L2591.68,1991.63 L2591.56,1991.58 L2586.91,1989.8 L2586.01,1989.38 L2582.09,1987.51 L2578.05,1986.25 L2577.66,1986.12 L2577.1,1985.88 L2572.9,1983.98 L2568.37,1982.33 L2566.29,1981.63 L2563.73,1980.77 L2562.58,1980.18 L2561.92,1979.84 L2559.55,1978.62 L2558.2,1977.81 L2556.92,1977.05 L2555.09,1975.96 L2551.39,1973.18 L2550.64,1972.62 L2547.68,1969.65 L2546.92,1968.9 L2544.88,1967.31 L2542.64,1965.56 L2539.58,1962.52 L2535.86,1958.61 L2531.59,1953.89 L2528.42,1949.8 L2525.18,1944.99 L2524.28,1942.28 L2523.67,1940.44 L2523.06,1939.98 L2522.55,1939.61 L2522.28,1939.41 L2522.08,1938.96 L2521.85,1938.41 L2521.36,1937.31 L2521.34,1937.26 L2519.22,1937.67 L2515.85,1938.3 L2511.02,1939.22 L2506.9,1940 L2497.16,1941.52 L2497.14,1941.53 L2489.66,1943.12 L2486.88,1944.01 L2484.58,1944.75 L2483.87,1943.33 L2483.84,1943.25 L2482.45,1943.56 L2481.35,1943.8 L2480.31,1944.03 L2478.73,1944.37 L2476.03,1944.9 L2469.93,1946.07 L2463.54,1947.13 L2462.46,1947.28 L2456.78,1948.07 L2454.01,1950.79 L2446.8,1957.21 L2442.28,1961.5 L2440.25,1960.69 L2438.92,1959.21 L2438.74,1959.02 L2435.86,1956.05 L2433.26,1952.89 L2430.64,1949.28 L2427.48,1944.55 L2427.28,1943.46 L2427.05,1942.26 L2426.92,1941.57 L2422.73,1941.04 L2421.14,1940.89 L2420.18,1940.8 L2418.95,1940.68 L2418.97,1940.89 L2419.14,1942.73 L2419.36,1954.24 L2419.56,1958.25 L2419.42,1960.71 L2419.29,1963.09 L2419.51,1967.83 L2420.57,1980.83 L2421.5,1980.44 L2421.94,1980.26 L2422.27,1981.17 L2423.11,1983.5 L2423.25,1983.89 L2425.25,1992.44 L2425.42,1993.17 L2427.09,1994.67 L2427.41,1994.53 L2429.32,1993.64 L2429.41,1993.92 L2429.66,1994.72 L2429.88,1995.4 L2428.96,1995.62 L2428.69,1995.68 L2430.19,1996.53 L2432.48,1997.81 L2432.3,1998.63 L2431.23,1998.74 L2430.09,1998.84 L2425.55,1998.28 L2425.67,1999.22 L2425.72,1999.65 L2425.76,1999.97 L2425.8,2000.3 L2425.82,2000.44 L2425.8,2000.44 L2424.42,2000.43 L2425.36,2003.6 L2425.48,2005.89 L2425.58,2007.95 L2425.1,2008.03 L2423.34,2008.34 L2422.99,2011.7 L2417.43,2011.42 L2416.77,2011.53 L2414.2,2012 L2412.24,2012.83 L2411.34,2013.21 L2410.32,2011.68 L2409.73,2010.8 L2408.64,2011.2 L2406.69,2011.94 L2404.19,2015.01 L2402.24,2014.35 L2400.92,2015.71 L2399.48,2017.16 L2393.65,2022.2 L2393.83,2021.33 L2393.96,2020.71 L2394.02,2020.45 L2393.92,2020.47 L2391.51,2020.85 L2389.76,2021.12 L2388.48,2021.57 L2384.52,2025.78 L2380.81,2029.51 L2378.28,2031.82 L2377.76,2032.29 L2378.45,2039.65 L2379.11,2046.7 L2380.49,2047.79 L2381.91,2048.91 L2385.05,2052.36 L2387.02,2053.54 L2395.03,2063.94 L2397.26,2066.28 L2399.68,2068.82 L2401.79,2071.53 L2403.3,2073.46 L2407.11,2077.35 L2407.13,2077.36 L2409.75,2079.33 L2408.54,2081.25 L2405.67,2082.91 L2402.7,2082.84 L2401.89,2082.82 L2400.02,2083.14 L2397.11,2083.63 L2392.3,2088.7 L2391.07,2089.21 L2388.97,2090.07 L2384.73,2092.58 L2383.43,2093.28 L2379.94,2095.17 L2374.77,2097.93 L2370.62,2099.94 L2370.24,2099.28 L2368.22,2095.76 L2366.32,2092.46 L2364.52,2089.24 L2362.81,2086.16 L2360.5,2081.12 L2359.7,2079.39 L2358.2,2077.36 L2356.58,2074.31 L2355.97,2073.15 L2355.59,2072.44 L2355.08,2074.1 L2354.87,2074.77 L2354.6,2075.38 L2353.74,2077.27 L2353.09,2079.29 L2353.06,2079.39 L2352.68,2079.71 L2350.84,2081.24 L2350.53,2081.44 L2347.71,2083.26 L2347.53,2087.23 L2347.52,2089 L2347.5,2090.94 L2347.13,2093.4 L2346.67,2096.39 L2346.1,2102.95 L2345.69,2105.64 L2345.36,2107.76 L2345.32,2108.6 L2345.26,2109.92 L2345.22,2110.63 L2345.09,2113.02 L2344.57,2114.72 L2343.5,2118.2 L2343.26,2120.17 L2342.85,2123.57 L2343.03,2125.91 L2343.3,2129.37 L2342.63,2130.2 L2340.89,2132.34 L2339.97,2135.61 L2339.51,2137.23 L2338.86,2139.12 L2338.19,2141.06 L2337.85,2142.03 L2338.14,2144.07 L2338.29,2145.18 L2336.77,2145.49 L2334.62,2145.92 L2330.32,2146.08 L2330.28,2146.09 L2324.03,2147.03 L2322.44,2147.16 L2318.41,2147.48 L2318.73,2148.22 L2321.15,2153.75 L2330.41,2174.48 L2333.44,2181.51 L2335,2185.48 L2336.67,2189.73 L2338.13,2192.51 L2331.66,2194.84 L2330.19,2195.37 L2327.48,2196.22 L2325.86,2196.72 L2320.98,2198.24 L2314.36,2200.92 L2311.56,2202.05 L2309.23,2202.99 L2305.89,2204.08 L2304.88,2204.4 L2298.59,2206.45 L2294.23,2208.09 L2287.63,2210.58 L2287.46,2210.65 L2286.71,2210.93 L2286.99,2211.76 L2289.5,2219.41 L2289.93,2220.89 L2291.31,2225.67 L2291.76,2226.59 L2293.35,2229.85 L2288.56,2235.2 L2282.74,2241.68 L2272.71,2252.63 L2268.71,2255.98 L2261.9,2260.05 L2255.86,2263.44 L2253.15,2264.69 L2248.94,2266.62 L2247.81,2267.14 L2242.73,2268.84 L2240.99,2269.43 L2239.99,2269.8 L2233.65,2272.2 L2228.2,2273.72 L2228.14,2273.74 L2228.2,2274.27 L2228.24,2274.69 L2228.25,2274.76 L2227.43,2274.94 L2223.91,2275.72 L2223.94,2276 L2224.83,2285.87 L2225.01,2287.95 L2225.41,2292.44 L2225.5,2293.37 L2226.96,2307.96 L2227.16,2309.51 L2228.3,2318.73 L2228.39,2319.43 L2217.92,2316.58 L2209.69,2313.61 L2202.12,2311.49 L2193.04,2308.44 L2192.09,2311.95 L2190.47,2317.92 L2190.12,2319.21 L2188.34,2324.51 L2187.8,2325.65 L2186.45,2328.49 L2184.85,2333.52 L2182.79,2338.32 L2182.34,2339.36 L2177.57,2340.06 L2175.35,2340.18 L2172.86,2340.32 L2167.45,2341.39 L2164.55,2338.55 L2164.36,2338.37 L2161.67,2336.02 L2159.73,2335.57 L2158.51,2335.29 L2157.29,2335.67 L2156.69,2335.86 L2156.21,2336.01 L2155.13,2336.34 L2153.26,2337.21 L2152.01,2337.79 L2147.93,2341.22 L2146.55,2342.38 L2144.84,2342.16 L2143.21,2341.95 L2139.51,2342.12 L2139.36,2342.13 L2137.78,2342.2 L2135.83,2342.08 L2135.34,2342.05 L2134.18,2341.98 L2133.09,2342.11 L2131.97,2342.25 L2127.67,2345.28 L2119.43,2351.71 L2117.92,2352.89 L2115.8,2354.3 L2113.43,2355.89 L2107.39,2360.48 L2107.23,2360.6 L2107.71,2361.88 L2107.83,2362.18 L2108.74,2364.63 L2109.32,2366.41 L2110.37,2369.71 L2109.57,2373.79 L2109.17,2375.84 L2108.9,2377.23 L2099.94,2369.18 L2095.79,2368.95 L2094.79,2369.08 L2089.28,2369.78 L2082.74,2370.41 L2078.83,2367.29 L2076.7,2365.59 L2070.08,2359.92 L2070.22,2358.11 L2070.64,2352.9 L2071.32,2347.42 L2071.13,2347.27 L2064.79,2341.87 L2062.1,2339.23 L2058.95,2337.52 L2055.9,2336.94 L2054.89,2336.74 L2052.09,2336.49 L2050.91,2336.7 L2050.78,2336.72 L2049.88,2336.89 L2049.24,2337.12 L2048.73,2337.31 L2047.3,2337.83 L2046.29,2338.4 L2045.31,2338.96 L2044.12,2338.4 L2043.48,2338.1 L2039.68,2337.67 L2039.27,2337.59 L2038.8,2337.5 L2037.96,2337.35 L2037.56,2337.28 L2035.08,2339.88 L2034.32,2341.54 L2034.19,2341.84 L2033.9,2342.47 L2033.81,2343.69 L2033.61,2346.17 L2033.44,2347.04 L2032.62,2351.26 L2032.5,2352.55 L2032.44,2353.13 L2032.29,2353.69 L2031.44,2356.98 L2031.07,2358.4 L2029.96,2359.15 L2029.96,2359.14 L2029.45,2358.19 L2029.12,2357.57 L2028.73,2357.65 L2028.38,2357.73 L2028.2,2357.77 L2028.09,2358.03 L2027.46,2359.51 L2026.83,2362.19 L2026.93,2367.5 L2027.01,2371.44 L2027.03,2372.74 L2026,2376.83 L2025.93,2377.11 L2025.47,2381.27 L2024.46,2384.88 L2024.36,2385.44 L2023.86,2388.31 L2023.83,2388.49 L2023.81,2388.52 L2022.71,2390.15 L2020.6,2392.75 L2019.73,2395.74 L2018.41,2400.23 L2019.48,2404.32 L2019.52,2404.49 L2019.47,2404.6 L2018.42,2406.85 L2018.33,2407.02 L2017.87,2408.01 L2018.35,2415.88 L2018.17,2420.6 L2018.16,2421.04 L2018.1,2424.3 L2018.34,2431.62 L2018.36,2432.43 L2016.96,2431.14 L2014.95,2429.29 L2000.11,2429.7 L1996.72,2429.73 L1988.41,2429.81 L1980.43,2430.22 L1977.34,2430.38 L1966.08,2423.47 L1962.69,2421.1 L1960.27,2419.41 L1956.82,2423.82 L1955.97,2424.91 L1955.44,2425.59 L1955.1,2426.04 L1954.91,2426.29 L1951.98,2430.35 L1948.92,2432.81 L1948.75,2432.95 L1948.4,2433.38 L1947.52,2434.48 L1944.89,2437.77 L1942.35,2440.25 L1940.4,2442.15 L1938.63,2443.88 L1936.62,2446.3 L1935.11,2448.11 L1934.31,2449.07 L1937.02,2451.72 L1938.84,2453.5 L1942.03,2455.88 L1943.56,2457.02 L1943.1,2461.65 L1942.57,2472.11 L1941.71,2481.77 L1941.7,2481.93 L1941.63,2484.33 L1941.6,2485.47 L1944.18,2488.02 L1944.71,2488.54 L1945.56,2490.84 L1946.15,2492.46 L1947.31,2497.27 L1945.05,2501.94 L1942.89,2504.37 L1941.51,2505.92 L1941.95,2506.42 L1942.78,2507.38 L1941.98,2510.73 L1941.24,2513.86 L1939.12,2524.02 L1938.32,2523.77 L1937.82,2523.62 L1936.91,2523.33 L1935.48,2521.03 L1933.16,2520.26 L1930.88,2520.13 L1929.61,2520.06 L1928.92,2520.03 L1927.02,2520.18 L1924.77,2520.36 L1922.97,2520.02 L1920.55,2519.57 L1919.67,2519.4 L1919.64,2519.39 L1919.61,2519.41 L1918.85,2519.7 L1917.14,2520.37 L1915.4,2519.62 L1913.46,2518.78 L1912.32,2518.77 L1910.49,2518.76 L1909.22,2517.32 L1909.07,2517.15 L1908.51,2516.51 L1906.46,2516.08 L1906.21,2516.03 L1900.17,2512.23 L1898.18,2510.98 L1895.75,2509.45 L1895.62,2509.79 L1895.31,2510.66 L1894.8,2512.12 L1894.64,2512.13 L1890.3,2512.45 L1889.67,2512.68 L1889.45,2512.76 L1888.71,2513.03 L1887.8,2513.37 L1885.76,2513.53 L1884.96,2513.61 L1884.84,2513.62 L1884.03,2513.7 L1881.89,2512.19 L1881.36,2511.82 L1881.02,2511.77 L1879.07,2511.5 L1878.16,2511.38 L1878.13,2511.37 L1875,2510.94 L1872.4,2511.27 L1871.03,2511.45 L1869.48,2511.94 L1866.69,2512.82 L1866.55,2512.92 L1862.6,2515.58 L1861.04,2516.64 L1859.99,2518.2 L1857.7,2519.12 L1853.63,2517.33 L1849.52,2515.53 L1846.57,2513.56 L1844.59,2510.96 L1839.56,2506.74 L1835.7,2505.7 L1834.87,2503.66 L1835.26,2501.25 L1832.26,2499.84 L1832.04,2499.74 L1831.7,2499.73 L1831.01,2499.7 L1828.73,2499.6 L1828.7,2499.43 L1828.03,2495.97 L1827.15,2491.39 L1826.49,2489.26 L1826.19,2488.26 L1825.95,2487.5 L1825.89,2487.3 L1825.93,2486.76 L1826.06,2485.09 L1826.17,2483.66 L1827.98,2482.99 L1828.89,2482.66 L1829.51,2482.42 L1832.72,2480.23 L1832.65,2479.08 L1832.61,2478.48 L1832.24,2476.99 L1832.81,2474.58 L1833.35,2470.71 L1833.33,2470.37 L1833.29,2469.51 L1833.14,2466.31 L1833.13,2466.28 L1832.38,2466.41 L1831.82,2466.51 L1831.57,2466.56 L1830.66,2468.77 L1828.28,2473.39 L1826.98,2473.79 L1825.42,2471.83 L1824.39,2469.45 L1823.84,2468.15 L1823.33,2465.89 L1822.16,2460.66 L1820.84,2457.33 L1820.03,2457.2 L1815.29,2456.43 L1815.24,2456.42 L1815.04,2451.24 L1815.42,2449.49 L1815.83,2447.63 L1815,2444.95 L1814.02,2443.92 L1813.53,2443.4 L1810.49,2441.84 L1808.7,2441.24 L1806.9,2440.63 L1800.68,2434.83 L1800.36,2434.71 L1799.66,2434.44 L1798.47,2435.84 L1798.03,2436.13 L1797.48,2436.5 L1796.29,2435.88 L1795.16,2435.29 L1794.26,2435.47 L1793.13,2435.7 L1792.4,2436.51 L1792.3,2437.07 L1792.04,2438.45 L1789.63,2438.53 L1788.81,2438.56 L1787.6,2436.63 L1786.02,2433.39 L1785.19,2433.01 L1783.82,2432.39 L1780.03,2429.51 L1778.92,2428.74 L1776.62,2427.13 L1774.67,2425.92 L1773.37,2425.11 L1771.68,2424.3 L1770.5,2423.72 L1770.38,2423.3 L1770.06,2422.18 L1769.95,2421.82 L1769.76,2421.13 L1768.13,2421.54 L1768.02,2421.57 L1767.58,2421.68 L1767.17,2421.79 L1765.69,2421.14 L1766.06,2419.03 L1766.17,2418.46 L1765.85,2418.29 L1765.43,2418.08 L1764.93,2417.82 L1758.15,2413.32 L1754.47,2410.48 L1754.39,2410.41 L1753.14,2409.29 L1752.68,2408.87 L1751.9,2408.17 L1752.51,2410.62 L1753.64,2415.11 L1755.12,2420.27 L1756.73,2425.53 L1757.73,2428.06 L1758.11,2429.03 L1757.44,2429.56 L1756.1,2430.62 L1756.03,2430.71 L1755.42,2431.58 L1754.98,2432.19 L1754.25,2432.74 L1751.12,2431.91 L1749.82,2431.27 L1749.57,2431.15 L1747.96,2430.36 L1746.79,2432.01 L1741.26,2429.07 L1740.77,2428.78 L1738.3,2427.34 L1736.49,2427.82 L1735.72,2428.03 L1734.85,2428.26 L1733.8,2428.54 L1734.18,2429.09 L1734.52,2429.56 L1735,2432.25 L1735.19,2435.57 L1735.15,2436.64 L1735.09,2438.13 L1732.88,2437.78 L1731.27,2436.72 L1731.03,2436.56 L1730.77,2436.4 L1730.59,2437.13 L1730.53,2437.36 L1730.33,2438.17 L1730.03,2438.85 L1729.39,2440.3 L1728.51,2441.34 L1727.93,2442.03 L1724.81,2445.11 L1724.22,2446.03 L1723.35,2447.4 L1723.77,2448.8 L1723.97,2449.45 L1720.71,2453.06 L1720.46,2453.34 L1719.31,2454.61 L1719.13,2454.81 L1719.24,2456.07 L1719.3,2456.77 L1718.68,2458.77 L1717.3,2461.48 L1716.54,2462.07 L1713.89,2464.15 L1714.09,2465.37 L1712.61,2465.62 L1711.71,2466.77 L1711.15,2467.48 L1711.11,2467.78 L1710.97,2468.88 L1710.98,2473.06 L1710.98,2473.13 L1710.52,2478.2 L1709.69,2479.49 L1707.6,2482.76 L1707.41,2482.97 L1705.09,2485.6 L1704.69,2485.95 L1704.56,2486.06 L1701.59,2488.61 L1701.46,2488.73 L1701.39,2488.79 L1699.67,2489.84 L1696.47,2491.8 L1695.92,2491.8 L1694.86,2491.79 L1694.54,2491.79 L1693.86,2491.78 L1693.86,2491.7 L1693.61,2488.09 L1692.28,2484.57 L1691.14,2481.58 L1690,2477.73 L1687.8,2474.66 L1686.21,2472.95 L1685.06,2471.71 L1683.4,2470.43 L1682.34,2469.6 L1679.23,2468.42 L1676.04,2468.06 L1666.4,2467.67 L1665.67,2467.52 L1665.42,2467.46 L1665.37,2467.46 L1665.22,2467.43 L1662.19,2467.21 L1661.52,2467.06 L1660.86,2466.92 L1659.89,2466.65 L1656.89,2465.82 L1656.16,2465.62 L1654.5,2464.51 L1652.17,2462.95 L1652.05,2462.92 L1647.68,2461.83 L1644.36,2460.99 L1643.6,2461.11 L1640.56,2461.56 L1639.89,2461.64 L1635.92,2462.08 L1635.5,2462.13 L1635.44,2462.11 L1631.25,2461.25 L1628.33,2460.64 L1623.84,2458.62 L1621.95,2456.74 L1620.26,2455.06 L1619.39,2454.2 L1617.89,2456.63 L1617.52,2457.22 L1616.71,2457.58 L1616.68,2457.6 L1614.13,2455.06 L1612.05,2452.98 L1605.47,2448.73 L1601.15,2447.46 L1599.76,2447.26 L1596.54,2446.81 L1595.84,2446.71 L1595.25,2446.72 L1594.1,2446.74 L1593,2446.76 L1592.65,2446.76 L1590.38,2446.81 L1589.5,2447.14 L1584.86,2448.91 L1583.8,2449.32 L1569.19,2458.88 L1567.54,2459.53 L1563.52,2461.1 L1558.57,2462.58 L1552.88,2464.27 L1552.66,2464.15 L1529.78,2452.13 L1521.35,2447.97 L1518.96,2446.86 L1518.24,2446.53 L1518.04,2446.44 L1517.35,2446.3 L1517.32,2446.29 L1515.58,2445.94 L1500.61,2444.25 L1494.04,2443.5 L1493.19,2443.52 L1493.02,2443.53 L1491.54,2443.56 L1490.05,2444.14 L1488.57,2444.71 L1482.64,2446.7 L1482.55,2446.73 L1482.37,2446.7 L1480.07,2446.36 L1479.16,2446.23 L1478.55,2445.57 L1476.96,2443.83 L1474.12,2438.64 L1473.06,2436.73 L1472.48,2435.66 L1470.08,2430.93 L1468.05,2428.19 L1464.88,2423.93 L1463.75,2422.41 L1462.1,2418.52 L1461.61,2416.53 L1461.28,2415.2 L1461.14,2413.67 L1461.07,2412.75 L1460.57,2406.95 L1459.86,2403.25 L1459.01,2401.53 L1456.81,2397.09 L1456.65,2396.77 L1456.5,2396.57 L1453.61,2392.77 L1449.56,2388.79 L1444.22,2386.27 L1441.13,2385.57 L1439.74,2385.25 L1436.44,2384.5 L1435.91,2384.38 L1434.97,2384.38 L1424.67,2384.35 L1417.76,2383.52 L1413.34,2382.41 L1409.84,2381.54 L1407.57,2381.31 L1405.69,2381.13 L1403.57,2380.92 L1402.29,2380.79 L1399.72,2381.1 L1399.54,2381.12 L1398.71,2381.22 L1397.03,2381.42 L1395.08,2381.12 L1393.98,2380.95 L1393.69,2380.91 L1392.58,2380.74 L1386.87,2378.04 L1378.62,2369.94 L1375.65,2367.03 L1374.08,2366.23 L1367.73,2363.01 L1364.5,2361.92 L1361.9,2361.04 L1361.11,2360.78 L1360.1,2360.92 L1357.95,2361.21 L1354.9,2361.63 L1353.82,2361.78 L1351.52,2362.76 L1348.64,2363.99 L1342.44,2369.05 L1340.38,2372.03 L1338.1,2375.33 L1332.83,2380.76 L1329.57,2383.84 L1326.54,2386.7 L1322.76,2391.53 L1319.69,2395.45 L1315.91,2398.04 L1314.46,2398.1 L1310.95,2398.26 L1309.81,2398.32 L1303.19,2395.51 L1297.02,2391.41 L1291.68,2386.6 L1286.44,2379.56 L1283.4,2373.26 L1281.57,2370.86 L1277.25,2366.31 L1269.13,2361.75 L1260.01,2358.87 L1255.9,2358.09 L1255.8,2358.07 L1252.54,2357.44 L1252.17,2357.37 L1251.73,2357.41 L1248,2357.74 L1245.96,2357.92 L1242.75,2358.2 L1239.3,2359.53 L1237.23,2360.32 L1231.42,2360.75 L1226.37,2360.07 L1225.23,2359.92 L1219.51,2357.87 L1214.37,2355.53 L1212.88,2355.26 L1210.03,2354.74 L1209.37,2354.62 L1204.96,2356.45 L1201.26,2359.33 L1200.83,2359.93 L1200.07,2360.99 L1198.99,2363.44 L1197.45,2366.93 L1195.49,2371.36 L1194.68,2373.08 L1194.01,2374.5 L1191.18,2381.87 L1189.06,2386.6 L1186.69,2391.92 L1182.41,2398.35 L1180.86,2401.09 L1176.82,2408.23 L1170.68,2415.3 L1168.82,2416.5 L1162.16,2420.8 L1158.61,2423.46 L1153.49,2427.3 L1153.36,2427.39 L1153.18,2427.46 L1149.12,2428.99 L1145.47,2430.36 L1144.38,2430.77 L1142.43,2431 L1137.03,2431.63 L1131.22,2433.73 L1123.43,2435.46 L1122.24,2435.72 L1119.23,2435.81 L1114.78,2435.95 L1111.99,2435.14 L1104.59,2433 L1098.12,2429.69 L1097.87,2429.57 L1093.27,2427.22 L1084.35,2422.43 L1078.66,2420.36 L1070.39,2415.31 L1057.06,2409.66 L1055.58,2409.03 L1053.98,2408.59 L1045.27,2406.2 L1036.94,2404.42 L1035.51,2404.12 L1035.14,2403.82 L1034.79,2403.54 L1033.4,2403.83 L1032.2,2404.09 L1029.67,2404.03 L1027.41,2403.97 L1023.13,2403.07 L1021.98,2402.83 L1015.36,2402.33 L1011.12,2401.16 L1007.58,2400.19 L1006.79,2399.97 L1000.16,2396.79 L997.834,2395.74 L996.568,2395.17 L996.391,2395.09 L994.238,2394.36 L991.687,2393.5 L988.901,2393 L986.232,2391.66 L980.009,2388.54 L977.275,2386.71 L976.542,2386.22 L975.655,2385.63 L973.971,2384.51 L973.151,2383.79 L962.365,2374.32 L962.119,2374.1 L958.259,2369.64 L954.54,2362.77 L953.169,2361.24 L952.417,2360.41 L949.891,2357.6 L949.865,2357.58 L949.796,2357.51 L949.218,2356.97 L946.461,2354.4 L946.027,2353.81 L941.872,2348.18 L936.297,2342.88 L935.667,2342.46 L932.644,2340.41 L930.222,2338.77 L924.263,2336.36 L923.948,2336.23 L921.295,2335.53 L920.748,2335.39 L917.96,2335.28 L918.003,2335.18 L918.05,2335.07 L915.101,2334.87 L911.6,2334.63 L908.047,2335.45 L906.487,2335.8 L904.479,2336.26 L903.176,2336.95 L897.188,2340.08 L888.472,2346.68 L888.048,2346.92 L887.915,2346.99 L878.912,2352.27 L868.915,2355.89 L865.854,2356.07 L860.174,2356.39 L854.966,2355.03 L849.57,2353.62 L844.23,2351.21 L837.358,2348.09 L829.163,2344.6 L827.839,2344.27 L824.571,2343.47 L819.612,2344.16 L814.579,2344.87 L808.649,2347.03 L803.597,2348.87 L800.087,2350.59 L795.989,2352.61 L790.155,2357.1 L782.485,2361.95 L774.92,2364.97 L774.24,2365.25 L773.965,2365.27 L772.562,2365.37 L766.306,2365.83 L765.901,2365.72 L754.073,2362.61 L738.617,2354.52 L730.611,2350.34 L730.03,2349.49 L729.388,2348.87 L729.159,2348.65 L728.758,2348.52 L724.392,2347.13 L722.593,2346.64 L719.222,2345.71 L718.546,2345.64 L717.621,2345.54 L713.871,2346.18 L709.752,2346.89 L705.507,2347.86 L704.349,2348.44 L699.527,2350.46 L696.595,2352.36 L694.818,2353.66 L693.689,2354.49 L688.795,2358.52 L686.172,2360.68 L682.664,2363.19 L677.985,2366.23 L674.332,2368.3 L672.733,2369.2 L672.414,2369.63 L671.544,2370.78 L669.889,2371.83 L669.25,2372.24 L668.37,2372.79 L666.747,2373.82 L666.608,2373.91 L662.11,2377.06 L654.163,2383.4 L651.058,2385.73 L649.787,2386.89 L649.16,2387.46 L644.677,2391.55 L640.499,2395.93 L640.089,2396.61 L638.323,2399.57 L636.965,2402.57 L635.55,2408.4 L635.81,2414.24 L635.912,2416.53 L635.163,2421.28 L633.964,2423.11 L633.916,2423.18 L633.883,2423.23 L633.343,2424.05 L631.688,2425.3 L629.887,2426.65 L629.221,2426.84 L629.175,2426.85 L628.706,2426.99 L626.868,2427.5 L624.484,2427.35 L622.892,2427.25 L618.128,2426.03 L613.832,2423.9 L613.211,2423.59 L611.853,2422.53 L609.054,2420.33 L608.065,2419.55 L605.474,2416.47 L603.165,2411.79 L603.058,2411.57 L603.044,2411.44 L602.787,2409.02 L602.639,2407.64 L601.851,2406.13 L600.92,2404.92 L598.682,2402 L597.139,2398.8 L597.159,2398.65 L597.164,2398.62 L597.291,2397.28 L597.306,2397.13 L597.734,2395.01 L598.058,2393.4 L598.779,2391.09 L599.44,2388.97 L599.561,2387.06 L599.584,2386.69 L599.689,2385.03 L599.698,2384.89 L599.024,2381.8 L597.912,2377.52 L596.847,2375.5 L596.513,2374.87 L592.645,2372.48 L590.046,2371.62 L588.282,2371.04 L585.399,2370.61 L583.429,2370.31 L577.938,2369.83 L574.483,2368.87 L568.287,2365.83 L562.234,2360.33 L555.474,2351.89 L552.675,2347.29 L550.917,2341.64 L550.769,2340.48 L550.564,2324.88 L549.884,2319.46 L549.484,2313.12 L549.373,2311.35 L548.447,2307.42 L547.377,2302.87 L545.772,2299.69 L545.477,2299.11 L544.494,2297.16 L542.512,2294.37 L540.587,2292.73 L538.779,2291.2 L531.014,2287.54 L527.354,2287.4 L522.443,2289.57 L519.037,2292.19 L516.467,2294.16 L516.003,2294.52 L515.339,2297.34 L514.215,2301.16 L513.788,2302.13 L512.947,2304.03 L512.749,2304.2 L511.783,2305.02 L508.853,2306.43 L505.252,2307.66 L501.008,2308.13 L495.281,2307.36 L493.412,2306.17 L492.283,2305.45 L479.515,2301.98 L475.47,2299.6 L468.86,2294.92 L466.649,2293.35 L461.67,2288.9 L457.035,2283.93 L456.146,2282.28 L453.379,2277.17 L452.067,2275.42 L451.722,2274.96 L450.502,2273.59 L447.639,2270.39 L441.816,2266.91 L440.067,2265.86 L436.432,2265.06 L433.496,2264.57 L429.545,2264.37 L428.756,2264.22 L427.48,2263.97 L424.524,2263.88 L422.215,2263.81 L419.887,2263.93 L417.683,2264.35 L413.588,2265.21 L410.826,2266.09 L409.291,2266.71 L405.396,2268.56 L404.559,2269.08 L403.164,2269.96 L402.324,2270.67 L402.045,2270.97 L401.77,2271.28 L399.568,2274.03 L398.854,2275.45 L398.127,2276.89 L397.463,2278.46 L396.565,2279.64 L396.038,2280.22 L395.663,2280.63 L395.31,2280.94 L394.359,2281.77 L393.202,2282.29 L392.241,2282.47 L391.402,2282.62 L391.079,2282.62 L390.036,2282.62 L387.609,2282.3 L386.396,2282.14 L383.924,2281.36 L382.82,2280.78 L381.392,2278.72 L378.73,2273.74 L376.736,2269.34 L374.776,2264.56 L372.058,2260.4 L365.205,2252.96 L362.809,2249.06 L360.24,2244.63 L358.127,2239.39 L354.823,2232.6 L353.683,2231.21 L351.556,2228.61 L349.226,2227.46 L345.943,2226.36 L339.645,2224.25 L338.406,2224.04 L335.578,2223.56 L330.569,2222.21 L329.08,2222.16 L327.314,2222.1 L324.115,2221.75 L321.668,2221.48 L317.023,2221.25 L314.485,2221.12 L314.333,2221.11 L314.165,2221.1 L309.475,2222.02 L308.296,2222.25 L305.116,2222.19 L299.634,2222.08 L296.114,2221.32 L295.092,2221.1 L293.271,2220.22 L287.55,2217.45 L284.113,2216.47 L282.552,2216.37 L281.992,2216.34 L281.492,2216.42 L280.25,2216.63 L279.125,2216.76 L277.811,2216.91 L276.277,2217.26 L275.25,2217.5 L273.553,2217.63 L270.891,2217.84 L269.233,2217.79 L267.868,2217.76 L265.421,2216.77 L265.306,2216.72 L265.018,2216.58 L258.721,2213.56 L258.369,2212.81 L260.319,2212.62 L256.306,2206.22 L253.675,2202.03 L248.981,2198.98 L236.882,2197.08 L224.826,2194.29 L224.379,2194.24 L224.029,2194.2 L222.186,2193.98 L217.936,2196.53 L216.552,2197.36 L214.295,2198.45 L213.824,2198.68 L209.734,2200.65 L205.015,2202.19 L200.15,2203.78 L194.87,2206.93 L189.551,2207.77 L186.792,2207.11 L182.393,2206.07 L175.053,2202.45 L166.914,2196.71 L164.193,2194.24 L163.176,2193.32 L160.551,2191.29 L155.005,2186.2 L152.734,2183.11 L151.376,2181.26 L144.309,2168.1 L141.352,2163.39 L138.639,2154.38 L138.049,2152.43 L135.916,2143.98 L136.054,2135.92 L136.088,2135.51 L136.006,2139.06 L137.737,2147.56 L142.218,2162.01 L143.808,2163.5 L151.111,2158.42 L156.082,2160.81 L159.789,2161.99 L162.253,2161.94 L173.263,2158.03 L173.285,2159.27 L175.748,2159.23 L180.523,2150.5 L177.973,2145.6 L176.709,2144.4 L177.951,2144.38 L180.328,2139.39 L181.506,2136.89 L181.419,2131.95 L182.466,2120.81 L184.607,2103.48 L185.849,2103.46 L193.285,2105.8 L198.107,2100.77 L200.55,2099.5 L202.971,2096.99 L206.614,2094.45 L210.299,2093.14 L213.965,2091.85 L216.45,2093.03 L218.915,2092.99 L220.116,2091.74 L222.559,2090.47 L226.16,2085.46 L227.338,2081.74 L239.961,2100.04 L241.267,2103.72 L238.973,2113.65 L236.615,2119.86 L236.722,2126.03 L236.807,2130.98 L246.515,2123.39 L246.473,2120.94 L248.873,2117.18 L252.495,2112.19 L254.854,2107.2 L259.634,2098.47 L265.912,2105.76 L270.883,2108.15 L273.368,2109.36 L284.447,2109.17 L288.154,2110.33 L289.376,2109.08 L288.092,2106.63 L288.07,2105.38 L288.028,2102.91 L291.735,2102.85 L292.978,2104.07 L301.635,2106.4 L302.814,2102.66 L310.292,2108.73 L311.534,2108.7 L314.019,2109.89 L315.241,2109.87 L316.442,2108.62 L317.622,2104.88 L322.509,2102.33 L321.246,2101.12 L317.477,2096.24 L317.456,2095.01 L313.748,2093.83 L312.464,2091.38 L312.423,2088.92 L313.603,2085.18 L314.804,2083.94 L320.935,2082.59 L323.379,2081.32 L325.802,2078.8 L329.427,2075.04 L330.649,2073.77 L330.628,2072.55 L329.324,2068.87 L330.546,2067.6 L330.525,2066.37 L330.484,2063.9 L329.2,2061.45 L327.977,2061.47 L326.714,2060.24 L322.965,2056.61 L321.742,2056.63 L320.479,2055.42 L319.256,2055.44 L315.528,2054.26 L314.222,2049.33 L315.299,2040.67 L312.584,2024.66 L312.563,2023.41 L311.258,2019.73 L316.043,2011 L317.245,2009.73 L318.467,2008.49 L320.912,2007.22 L323.358,2007.18 L328.31,2008.32 L329.47,2003.35 L320.643,1991.15 L298.24,1977.92 L306.673,1966.65 L307.605,1949.33 L307.584,1948.08 L307.521,1944.38 L285.069,1928.68 L265.25,1922.84 L249.16,1918.17 L249.139,1916.94 L240.472,1914.62 L229.381,1914.81 L223.246,1917.39 L214.601,1916.29 L210.846,1912.66 L210.803,1910.18 L210.717,1905.23 L208.185,1901.57 L204.322,1891.75 L200.46,1883.16 L197.926,1878.26 L201.617,1878.19 L209.02,1878.06 L211.467,1878.02 L218.804,1874.17 L223.697,1871.62 L227.324,1867.84 L226.079,1866.63 L223.611,1866.67 L218.461,1854.38 L209.855,1855.78 L201.228,1855.93 L199.941,1853.48 L186.485,1858.67 L185.242,1858.69 L185.263,1859.92 L182.817,1861.21 L181.507,1856.28 L183.952,1854.99 L181.332,1846.37 L167.835,1850.34 L160.037,1828.2 L147.783,1832.13 L160.891,1876.44 L132.59,1879.42 L131.432,1883.14 L127.741,1883.21 L126.365,1875.81 L127.409,1864.65 L127.343,1860.95 L125.967,1853.56 L125.9,1849.84 L125.834,1846.14 L124.499,1839.98 L124.366,1832.55 L123.056,1828.87 L122.967,1823.91 L122.901,1820.21 L120.299,1812.82 L118.987,1807.89 L115.205,1803.01 L113.894,1799.32 L112.626,1796.87 L110.024,1789.5 L106.219,1783.37 L104.908,1779.69 L104.841,1775.98 L101.014,1768.62 L99.6354,1761.21 L99.5017,1753.79 L98.1655,1747.63 L98.0982,1743.91 L96.8088,1741.45 L95.5174,1737.77 L95.4505,1734.06 L95.383,1730.34 L93.8231,1711.8 L93.7561,1708.1 L83.9215,1710.74 L82.6745,1709.53 L88.8166,1708.19 L92.4886,1706.87 L113.405,1702.78 L114.652,1703.99 L119.57,1702.67 L135.572,1701.13 L146.654,1699.71 L146.588,1696 L146.5,1691.04 L145.055,1678.67 L146.236,1676.17 L144.901,1670.01 L146.104,1668.76 L146.06,1666.28 L145.972,1661.32 L147.195,1660.07 L145.884,1656.36 L145.84,1653.91 L154.387,1647.54 L155.59,1646.29 L146.755,1635.3 L136.717,1626.81 L119.308,1619.68 L114.188,1609.88 L112.962,1609.9 L110.268,1597.55 L111.403,1591.34 L110.09,1587.65 L107.596,1586.44 L103.832,1582.8 L102.606,1582.82 L102.584,1581.59 L102.54,1579.11 L103.765,1579.09 L102.472,1575.38 L101.204,1574.18 L101.182,1572.93 L101.16,1571.7 L101.137,1570.47 L102.316,1566.71 L103.52,1565.46 L103.497,1564.21 L103.475,1562.98 L102.205,1560.52 L102.182,1559.29 L100.869,1555.59 L98.2855,1549.44 L99.5094,1548.19 L99.4868,1546.94 L99.4647,1545.71 L99.4421,1544.46 L99.3973,1541.98 L99.3752,1540.75 L99.3528,1539.52 L98.0395,1535.81 L93.0729,1534.67 L93.0504,1533.42 L91.8021,1532.21 L90.5533,1530.98 L90.5309,1529.75 L91.735,1528.5 L91.7124,1527.25 L90.4413,1524.79 L92.8936,1524.75 L92.8486,1522.27 L100.244,1520.9 L98.9279,1515.96 L97.6146,1512.27 L105.032,1512.14 L112.385,1509.52 L124.681,1505.59 L135.754,1502.91 L152.933,1496.41 L151.288,1472.87 L164.816,1470.15 L172.214,1468.78 L184.537,1467.31 L185.697,1462.35 L184.32,1454.93 L184.254,1451.21 L184.189,1447.48 L182.897,1443.79 L184.037,1438.81 L183.971,1435.09 L199.975,1431.1 L197.263,1417.5 L202.188,1416.16 L202.124,1412.45 L202.08,1409.97 L201.994,1405 L201.929,1401.29 L201.886,1398.81 L201.777,1392.61 L200.42,1385.19 L199.108,1381.49 L202.766,1378.95 L203.97,1376.44 L207.65,1375.15 L208.854,1372.64 L201.344,1367.81 L193.877,1365.45 L187.635,1361.85 L182.577,1355.74 L178.744,1348.36 L176.226,1345.92 L173.642,1339.76 L206.764,1324.29 L223.898,1314.06 L220.151,1311.64 L217.612,1307.97 L207.298,1283.32 L214.662,1280.71 L214.597,1276.99 L215.78,1273.25 L215.737,1270.77 L211.84,1260.9 L211.754,1255.95 L210.267,1241.07 L210.158,1234.86 L211.3,1229.87 L212.44,1223.65 L216.016,1216.13 L215.973,1213.67 L215.865,1207.44 L222.865,1182.5 L225.191,1173.75 L222.563,1165.1 L221.206,1158.92 L222.326,1151.44 L226.054,1152.63 L227.281,1151.36 L228.488,1150.1 L230.945,1148.83 L233.358,1145.04 L234.565,1143.79 L236.957,1138.77 L236.936,1137.54 L236.914,1136.29 L235.685,1136.31 L235.241,1135.89 L234.415,1135.1 L234.329,1130.13 L237.95,1125.09 L240.364,1121.33 L241.549,1117.59 L241.527,1116.33 L242.735,1115.08 L243.984,1115.06 L245.213,1115.04 L246.441,1113.76 L246.377,1110.04 L246.334,1107.56 L247.477,1102.56 L247.392,1097.61 L244.785,1090.19 L244.764,1088.94 L247.264,1090.15 L248.493,1090.13 L249.806,1093.83 L249.87,1097.57 L251.142,1100.01 L249.913,1100.03 L251.185,1102.5 L249.998,1105 L253.706,1104.94 L254.891,1101.2 L256.12,1101.18 L257.285,1097.44 L264.423,1079.9 L265.502,1069.95 L262.96,1066.28 L264.167,1065 L265.417,1064.98 L266.646,1064.96 L267.876,1064.94 L266.561,1059.98 L264.083,1060.03 L264.04,1057.54 L262.768,1055.09 L262.747,1053.84 L261.476,1052.63 L261.433,1050.14 L261.391,1047.65 L260.14,1046.42 L260.098,1043.95 L260.076,1042.7 L258.763,1039 L258.699,1035.26 L274.804,1034.98 L272.282,1032.56 L269.76,1030.11 L273.49,1030.05 L278.322,1023.76 L279.551,1022.48 L280.802,1023.71 L282.03,1022.44 L290.782,1027.27 L290.761,1026.01 L291.949,1023.52 L299.261,1015.93 L304.24,1017.08 L304.136,1010.87 L307.803,1008.32 L308.991,1005.81 L314.97,992.056 L314.928,989.568 L313.553,982.125 L309.675,972.235 L307.048,963.577 L304.463,957.409 L301.941,954.962 L300.69,953.749 L296.917,951.324 L295.687,951.345 L291.997,952.642 L290.769,953.918 L289.538,953.939 L289.517,952.685 L287.016,951.493 L288.246,951.472 L286.889,944.027 L286.868,942.793 L289.285,939.027 L292.891,932.732 L295.329,930.201 L297.768,927.69 L298.998,927.669 L312.444,916.247 L314.883,913.715 L316.05,909.951 L323.535,912.314 L329.811,917.188 L332.354,920.87 L333.646,923.338 L334.959,928.295 L342.754,949.315 L353.027,971.505 L356.943,983.884 L358.276,988.839 L364.63,998.668 L364.651,999.922 L365.901,999.901 L367.151,1001.11 L368.401,1002.33 L369.651,1002.31 L369.672,1003.56 L370.901,1003.54 L372.151,1003.52 L373.401,1004.73 L374.651,1004.71 L378.361,1004.65 L382.091,1005.84 L383.382,1008.31 L383.39,1008.85 L383.484,1014.52 L390.882,1013.14 L397.111,1014.3 L402.07,1015.45 L408.279,1016.6 L412.009,1016.54 L416.947,1015.2 L420.596,1011.42 L425.535,1010.11 L424.225,1006.39 L424.124,1000.18 L426.463,991.437 L427.673,988.929 L430.032,982.679 L431.262,981.404 L438.622,977.561 L439.852,976.307 L443.442,968.782 L443.402,966.294 L443.362,963.805 L443.282,958.828 L443.202,953.871 L441.932,951.402 L441.911,950.148 L441.892,948.914 L441.872,947.68 L443.082,946.405 L451.693,942.542 L457.805,937.465 L465.167,932.367 L467.708,936.071 L471.577,945.946 L471.637,949.669 L475.427,953.352 L480.387,954.507 L484.157,956.936 L489.039,953.135 L492.71,949.332 L496.382,946.804 L506.304,946.647 L507.573,949.096 L510.113,952.8 L510.269,962.734 L510.366,968.945 L511.674,973.902 L511.753,978.879 L511.831,983.855 L518.002,981.269 L526.633,978.644 L531.612,981.055 L534.15,984.738 L539.11,984.66 L549.011,983.271 L552.759,985.701 L555.297,989.385 L556.603,994.342 L561.582,995.499 L565.273,994.207 L566.504,992.934 L570.194,991.642 L575.021,982.867 L581.211,982.772 L579.847,974.091 L581.058,972.818 L584.655,965.316 L587.135,965.278 L589.653,967.708 L592.19,971.413 L595.919,972.59 L599.63,971.299 L600.804,967.537 L604.419,961.269 L606.843,957.509 L610.536,954.963 L615.439,952.399 L617.976,956.084 L622.975,958.497 L626.704,959.696 L629.222,962.146 L631.758,965.831 L634.276,968.282 L638.004,969.46 L639.199,965.719 L648.988,958.104 L650.201,955.597 L650.146,951.874 L650.09,948.151 L651.265,944.41 L653.69,940.629 L654.92,940.611 L658.669,941.809 L663.61,941.735 L668.516,937.918 L671.016,939.135 L673.551,942.822 L676.087,946.508 L678.604,948.96 L687.331,952.574 L691.023,951.265 L692.253,951.246 L698.465,951.155 L700.927,949.884 L704.619,948.575 L708.258,943.563 L709.472,941.056 L710.63,936.06 L713.02,929.811 L714.232,928.539 L714.214,927.304 L715.446,926.031 L717.927,925.995 L722.886,927.177 L724.155,928.393 L727.866,928.339 L731.597,928.285 L732.846,929.521 L735.38,933.209 L736.629,934.425 L739.127,935.644 L745.355,938.043 L747.853,939.241 L751.549,936.698 L751.531,935.464 L752.761,935.446 L753.974,934.174 L755.189,931.687 L756.365,927.926 L757.58,925.419 L760.025,922.894 L761.238,921.642 L762.489,921.624 L764.914,919.099 L766.147,917.847 L768.557,912.833 L768.521,910.343 L769.734,909.091 L772.126,902.822 L774.502,895.339 L776.93,891.559 L779.393,890.289 L781.822,886.529 L781.769,882.784 L780.483,880.313 L777.966,877.879 L775.414,872.934 L774.13,869.228 L772.808,864.266 L774.006,860.503 L773.935,855.543 L773.917,854.288 L772.595,849.326 L770.098,846.891 L766.259,839.474 L766.206,835.749 L766.17,833.258 L767.35,828.259 L768.564,827.007 L771.01,824.481 L774.468,819.473 L777.082,815.685 L778.28,811.921 L779.458,808.178 L780.674,805.669 L779.335,799.47 L780.498,793.235 L781.676,789.471 L786.483,778.201 L788.896,773.203 L787.591,769.474 L782.554,764.563 L781.235,758.362 L781.147,752.143 L781.058,745.925 L780.97,739.706 L782.166,737.197 L784.614,734.669 L789.458,725.888 L794.285,715.849 L794.267,714.613 L799.165,709.559 L813.647,680.717 L816.166,683.175 L817.416,684.393 L818.685,685.632 L821.149,685.598 L823.651,686.799 L823.668,688.055 L824.938,689.274 L829.872,686.712 L837.269,684.115 L839.667,677.86 L871.788,667.462 L874.255,666.171 L875.507,666.154 L876.757,667.394 L878.009,667.377 L880.51,668.579 L884.21,667.292 L885.442,667.275 L886.678,666.001 L887.91,665.984 L891.626,665.933 L933.79,662.87 L933.807,664.126 L935.059,664.109 L935.075,665.346 L935.092,666.602 L935.109,667.838 L933.873,669.091 L933.889,670.348 L933.923,672.84 L933.939,674.077 L933.956,675.333 L932.74,676.586 L932.757,677.842 L932.774,679.078 L932.807,681.571 L932.823,682.807 L932.84,684.063 L934.089,685.283 L932.856,685.299 L934.105,686.539 L935.358,686.522 L936.59,686.506 L937.842,686.489 L940.326,686.456 L940.342,687.692 L941.574,687.675 L942.84,690.151 L942.873,692.644 L945.423,697.595 L945.456,700.067 L946.724,701.307 L949.176,698.781 L950.358,695.037 L952.809,692.511 L955.294,692.478 L956.526,692.462 L957.81,694.937 L959.059,696.157 L961.576,698.617 L962.861,701.092 L966.577,701.043 L969.061,701.01 L972.76,699.705 L976.444,697.184 L980.131,693.386 L982.583,690.861 L985.014,688.336 L987.515,689.56 L988.783,690.78 L991.316,694.496 L992.581,696.972 L1000.05,698.111 L1001.3,699.331 L1005.11,706.759 L1007.63,709.219 L1010.13,710.422 L1012.61,710.39 L1016.34,711.598 L1018.84,712.802 L1022.58,712.754 L1028.81,715.166 L1038.74,716.295 L1041.18,712.515 L1046.1,708.723 L1049.78,706.183 L1053.56,709.864 L1062.36,718.486 L1062.33,715.994 L1064.72,708.486 L1065.96,709.706 L1070.96,712.136 L1072.21,713.376 L1074.69,713.345 L1077.21,715.806 L1078.44,715.79 L1078.43,714.534 L1079.69,715.774 L1079.68,714.518 L1080.91,714.503 L1080.89,713.267 L1092.06,713.127 L1092.08,714.362 L1095.81,715.572 L1095.82,716.808 L1097.09,718.049 L1098.31,716.777 L1098.32,718.033 L1099.57,718.018 L1099.59,719.254 L1102.07,719.222 L1103.26,715.479 L1103.24,714.223 L1101.95,709.254 L1103.15,706.767 L1104.34,701.767 L1107.98,695.5 L1115.42,694.152 L1121.54,687.854 L1124.04,689.059 L1124.03,687.823 L1127.74,687.777 L1127.77,690.27 L1128.99,688.998 L1130.26,690.239 L1133.97,690.194 L1135.26,692.671 L1147.61,688.77 L1158.74,684.906 L1168.8,697.227 L1176.39,708.343 L1180.19,715.774 L1181.49,719.487 L1188,745.567 L1190.46,743.045 L1194.18,744.237 L1199.21,749.161 L1206.72,754.056 L1228.64,720.184 L1221.15,715.287 L1215.07,725.328 L1213.8,724.087 L1211.36,727.844 L1203.9,725.46 L1203.88,724.204 L1197.65,721.786 L1190.56,717.183 L1190.14,716.911 L1188.83,711.942 L1192.48,704.421 L1197.32,693.156 L1179.47,654.759 L1180.66,649.778 L1184.26,639.761 L1184.24,638.525 L1185.49,638.51 L1186.68,634.745 L1187.92,634.73 L1187.9,633.494 L1189.14,632.243 L1187.89,632.257 L1187.87,631.001 L1190.36,630.971 L1192.83,629.705 L1194.05,627.196 L1196.55,628.403 L1195.31,629.675 L1200.31,632.109 L1204.03,632.065 L1205.3,633.287 L1206.53,633.272 L1211.47,630.72 L1211.45,629.483 L1212.67,628.212 L1212.64,625.719 L1211.41,625.733 L1215.05,619.466 L1216.29,618.215 L1217.54,619.437 L1226.23,619.334 L1226.24,620.591 L1227.48,620.577 L1229.95,619.291 L1229.96,620.548 L1233.7,620.504 L1236.21,622.948 L1237.44,622.933 L1239.94,624.161 L1243.65,622.861 L1245.06,636.549 L1259.98,638.869 L1262.42,635.111 L1263.65,635.097 L1271.12,636.248 L1274.84,636.205 L1274.81,633.712 L1277.25,629.953 L1278.49,629.939 L1278.47,628.703 L1273.35,613.799 L1276.98,606.296 L1283.43,627.389 L1298.35,628.476 L1300.82,628.448 L1303.29,627.163 L1304.51,624.656 L1304.5,623.419 L1305.39,621.478 L1305.7,620.912 L1306.23,619.096 L1307.13,617.368 L1308.66,616.137 L1310.6,614.632 L1311.24,614.085 L1313.89,611.391 L1316.77,610.812 L1318.23,609.097 L1319.21,607.054 L1319.37,605.563 L1319.59,602.686 L1319.77,601.696 L1320.45,600.764 L1324.35,597.805 L1325.44,596.612 L1328,594.85 L1329.2,593.572 L1333,589.4 L1334.63,587.35 L1335.81,586.103 L1337.27,585.381 L1339.2,584.717 L1340.06,584.395 L1345.03,584.34 L1345.85,584.377 L1347.14,584.624 L1348.74,585.071 L1350.01,585.542 L1356.25,587.967 L1365.53,590.915 L1369.52,590.504 L1372.1,589.148 L1376.12,588.986 L1379.84,588.946 L1383.49,588.102 L1381.07,586.438 L1380.99,578.956 L1382.19,576.469 L1380.95,575.225 L1382.15,572.718 L1382.13,570.224 L1383.38,570.21 L1383.37,568.973 L1384.6,568.96 L1384.59,567.703 L1387.03,563.945 L1386.95,556.482 L1388.18,553.974 L1388.15,551.48 L1386.87,548.999 L1386.84,546.504 L1388.06,542.759 L1388,537.77 L1386.7,532.795 L1386.58,521.578 L1387.68,507.853 L1386.79,508.885 L1385.22,510.375 L1380.25,510.429 L1377.73,507.961 L1376.46,504.242 L1371.43,499.306 L1372.65,498.055 L1372.64,496.797 L1367.63,491.882 L1361.38,489.455 L1358.87,488.224 L1357.63,487 L1356.37,484.519 L1356.35,483.281 L1354.94,468.322 L1348.91,372.364 L1394.76,356.899 L1416.76,350.092 L1428.2,346.551 L1448.18,352.595 L1464.38,357.4 L1465.64,357.387 L1470.57,354.859 L1475.46,346.057 L1477.91,342.295 L1480.37,339.772 L1487.91,347.187 L1494.18,352.118 L1496.68,353.331 L1499.17,353.306 L1500.41,354.552 L1506.64,355.727 L1510.38,356.928 L1516.61,356.864 L1520.33,356.827 L1522.83,358.06 L1530.3,360.483 L1532.79,360.458 L1535.27,359.174 L1536.52,359.162 L1537.75,357.911 L1538.98,355.402 L1540.2,354.151 L1545.1,346.609 L1552.53,344.038 L1555,342.775 L1556.26,342.763 L1559.99,344.024 L1566.21,343.903 L1569.94,342.628 L1573.64,340.094 L1577.35,338.799 L1583.55,337.5 L1592.23,334.918 L1594.69,332.397 L1595.94,331.146 L1599.65,329.851 L1602.11,327.33 L1608.33,327.27 L1612.05,327.234 L1612.04,325.996 L1615.78,325.96 L1619.47,322.188 L1624.39,315.887 L1629.29,312.305 L1633.04,309.57 L1636.75,308.296 L1638,308.284 L1639.24,308.273 L1648.01,315.664 L1650.51,316.9 L1656.75,319.339 L1659.25,320.555 L1661.76,323.03 L1665.51,325.493 L1668.02,327.967 L1675.57,336.629 L1680.57,339.081 L1686.8,340.263 L1689.27,339.002 L1692.98,336.47 L1700.58,351.366 L1705.59,357.554 L1708.1,360.029 L1710.63,363.762 L1714.46,376.193 L1710.76,378.724 L1707.07,382.492 L1707.14,389.983 L1703.46,395.01 L1702.22,396.259 L1702.26,401.252 L1701.09,408.732 L1701.16,416.222 L1702.42,418.707 L1700,426.218 L1701.27,428.683 L1701.43,446.155 L1703.99,453.6 L1705.26,458.58 L1707.76,459.795 L1709.02,462.28 L1714.04,467.226 L1719.04,469.677 L1721.55,472.151 L1721.59,477.142 L1721.71,490.836 L1722.99,495.815 L1729.17,493.265 L1731.66,493.243 L1737.89,495.683 L1745.36,496.875 L1752.85,499.305 L1762.81,502.951 L1769.07,509.124 L1779.01,509.038 L1779.02,510.296 L1779.09,517.761 L1784.08,520.213 L1786.59,522.686 L1792.81,523.87 L1797.77,525.086 L1797.78,526.323 L1799.04,526.312 L1802.78,528.776 L1805.33,536.239 L1807.93,549.928 L1810.47,556.133 L1811.76,563.585 L1811.77,564.842 L1810.55,566.089 L1810.56,567.347 L1809.33,569.852 L1809.36,573.583 L1800.72,579.881 L1795.8,583.675 L1785.9,588.727 L1785.91,589.985 L1778.51,596.273 L1772.34,600.057 L1772.4,607.538 L1773.7,612.515 L1773.75,618.738 L1776.26,621.211 L1778.77,627.413 L1778.86,637.386 L1780.18,644.834 L1780.27,656.043 L1776.61,662.297 L1771.65,663.597 L1778.01,682.209 L1774.32,684.733 L1770.61,688.515 L1773.13,692.222 L1773.14,693.458 L1778.28,713.333 L1783.23,712.055 L1785.72,712.033 L1789.47,715.73 L1794.43,715.687 L1794.44,716.943 L1796.92,715.666 L1801.9,719.372 L1803.14,718.105 L1805.65,721.812 L1809.4,725.529 L1814.33,720.503 L1815.57,721.729 L1823.09,730.399 L1824.29,726.64 L1824.32,729.132 L1829.33,735.31 L1866.44,721.309 L1877.85,751.101 L1879.14,756.074 L1882.94,767.246 L1870.55,771.073 L1864.52,791.033 L1863.3,792.298 L1860.84,796.045 L1859.62,797.291 L1858.41,802.283 L1859.67,803.528 L1858.42,803.538 L1858.43,804.774 L1857.21,806.019 L1855.99,809.776 L1856.05,817.228 L1853.57,817.248 L1856.08,820.974 L1856.1,823.465 L1855.07,826.828 L1854.9,827.201 L1853.7,833.427 L1851.26,838.428 L1850.06,842.164 L1850.08,844.654 L1847.62,847.165 L1845.16,850.911 L1845.17,852.166 L1843.97,855.901 L1843.99,858.392 L1845.23,859.617 L1845.28,864.597 L1844.05,865.862 L1841.58,867.117 L1841.66,877.077 L1831.78,882.119 L1831.79,883.374 L1830.57,884.619 L1829.34,884.629 L1828.1,885.895 L1826.91,890.864 L1824.46,894.629 L1822,897.14 L1814.57,899.692 L1814.58,900.927 L1813.35,900.937 L1810.88,902.193 L1809.65,902.203 L1803.46,904.745 L1797.27,904.797 L1791.15,913.553 L1788.69,916.064 L1782.49,916.117 L1778.79,917.404 L1775.06,917.436 L1773.84,918.681 L1770.12,919.968 L1756.5,920.087 L1754.03,921.343 L1752.79,922.588 L1749.09,923.876 L1746.62,925.132 L1744.19,930.132 L1742.97,931.398 L1741.73,932.643 L1741.76,936.367 L1743.03,938.845 L1745.53,941.312 L1746.76,941.301 L1748.06,946.268 L1749.31,948.746 L1751.84,954.936 L1754.34,956.149 L1758.07,958.605 L1761.81,962.316 L1765.55,963.518 L1770.49,963.475 L1772.99,964.688 L1779.21,965.889 L1781.67,965.867 L1785.43,969.558 L1787.91,969.537 L1790.38,968.282 L1791.61,968.271 L1792.83,967.006 L1796.55,965.74 L1799.01,963.23 L1803.91,958.211 L1810.09,954.435 L1813.75,948.192 L1817.43,944.417 L1818.68,944.407 L1819.89,941.907 L1824.83,939.397 L1826.05,938.132 L1826.03,935.643 L1830.97,933.113 L1837.14,930.592 L1840.87,930.562 L1847.06,929.256 L1851.97,925.492 L1854.45,925.471 L1858.17,924.186 L1859.38,921.687 L1861.83,917.943 L1865.51,914.189 L1869.22,911.669 L1871.65,907.925 L1871.64,906.67 L1886.5,902.826 L1891.43,897.807 L1892.66,897.798 L1893.87,895.298 L1893.85,892.809 L1897.58,892.779 L1898.79,890.279 L1902.5,890.25 L1906.23,888.986 L1908.7,887.731 L1909.93,887.722 L1911.17,886.457 L1912.4,886.447 L1913.62,885.203 L1913.61,883.948 L1916.09,883.928 L1918.57,882.674 L1919.82,882.664 L1923.5,878.891 L1923.48,876.421 L1924.71,876.411 L1924.7,875.156 L1925.95,875.146 L1925.96,876.401 L1927.18,875.137 L1930.92,875.108 L1930.91,873.873 L1932.14,873.863 L1933.38,875.089 L1933.37,873.854 L1934.62,873.844 L1934.61,872.589 L1933.36,872.599 L1933.35,871.364 L1934.59,870.099 L1934.56,866.374 L1935.78,865.13 L1937.03,865.12 L1935.75,860.15 L1933.22,853.953 L1933.15,845.247 L1936.88,845.219 L1956.72,845.067 L1956.73,846.302 L1957.96,846.292 L1964.18,849.971 L1969.14,848.698 L1967.89,846.217 L1967.87,843.727 L1981.51,843.625 L1981.52,844.88 L1982.75,844.871 L1983.97,843.606 L1986.43,839.862 L1985.19,838.616 L1980.18,832.437 L1978.95,832.446 L1976.44,828.739 L1972.66,822.551 L1970.17,818.823 L1970.16,817.587 L1972.62,817.569 L1975.09,816.295 L1978.77,808.815 L1983.7,806.287 L1987.41,803.768 L1996.08,802.469 L2001.05,802.432 L2004.75,801.149 L2008.46,799.887 L2009.7,798.622 L2010.91,796.122 L2012.15,793.622 L2012.14,792.386 L2014.59,791.133 L2014.52,781.168 L2014.5,778.677 L2015.74,776.176 L2015.67,767.467 L2014.39,762.493 L2015.57,753.773 L2015.57,752.538 L2015.51,745.063 L2015.49,742.571 L2015.44,735.116 L2015.43,733.859 L2014.15,730.141 L2012.88,725.165 L2010.36,718.964 L2009.08,712.752 L2006.52,702.801 L2003.96,691.614 L2008.92,690.341 L2011.39,689.067 L2017.68,701.484 L2025.19,711.379 L2026.45,712.626 L2025.47,715.051 L2032.65,712.582 L2040.11,713.765 L2055,714.915 L2058.1,715.585 L2066.19,717.329 L2076.13,722.224 L2078.62,722.207 L2079.96,734.658 L2080.25,734.789 L2101.68,744.574 L2101.93,746.479 L2102.39,749.436 L2103.74,757.31 L2103.7,760.63 L2100,763.147 L2096.31,770.647 L2095.08,770.655 L2095.09,771.891 L2093.88,774.39 L2092.65,778.126 L2097.66,784.31 L2101.39,786.776 L2102.64,786.767 L2115.07,791.666 L2116.29,790.423 L2116.31,792.893 L2117.56,792.885 L2122.54,795.343 L2127.49,795.31 L2128.28,794.518 L2128.73,794.067 L2129.95,791.567 L2129.94,790.332 L2131.19,790.324 L2130.25,788.476 L2129.92,787.841 L2131.17,786.577 L2131.14,782.85 L2129.84,775.385 L2129.83,774.149 L2128.51,764.027 L2128.52,761.7 L2129.74,760.456 L2129.76,762.947 L2136,769.125 L2137.25,769.117 L2136.01,771.617 L2137.28,774.1 L2137.29,775.335 L2138.52,775.327 L2141.01,776.567 L2142.26,775.302 L2143.5,776.55 L2144.74,775.286 L2147.2,775.27 L2153.44,777.721 L2154.68,778.969 L2154.7,782.696 L2154.72,786.423 L2152.27,790.185 L2151.03,790.194 L2148.58,793.936 L2148.6,797.663 L2147.36,800.162 L2148.63,802.645 L2148.8,828.768 L2151.34,837.458 L2151.4,846.165 L2150.15,847.428 L2150.18,851.154 L2149,859.867 L2147.76,861.131 L2146.56,866.099 L2146.62,876.059 L2145.42,879.791 L2144.2,884.779 L2142.98,887.277 L2140.53,891.018 L2138.05,892.289 L2135.61,898.52 L2130.67,901.042 L2123.29,908.54 L2124.56,914.765 L2128.31,919.699 L2132.08,925.908 L2133.33,928.389 L2134.57,927.126 L2138.3,929.591 L2140.79,930.809 L2143.27,930.793 L2144.51,932.039 L2145.76,932.031 L2145.76,933.266 L2148.23,934.504 L2153.2,934.472 L2155.69,936.945 L2160.68,940.637 L2161.91,940.628 L2164.4,941.847 L2165.64,940.605 L2166.89,943.086 L2166.89,944.32 L2168.14,946.801 L2164.44,949.314 L2166.93,950.532 L2168.16,950.525 L2169.43,953.005 L2176.9,956.701 L2180.61,956.678 L2183.09,957.896 L2183.09,956.662 L2185.57,956.647 L2190.5,955.361 L2195.44,951.607 L2199.13,949.094 L2201.6,946.59 L2201.62,949.079 L2202.87,949.071 L2205.33,946.567 L2206.56,946.56 L2212.75,945.287 L2213.99,944.025 L2219.07,966.374 L2217.84,966.381 L2212.9,970.155 L2210.42,971.404 L2207.94,971.42 L2206.73,973.916 L2206.74,976.404 L2206.78,982.616 L2208.05,988.819 L2208.07,991.307 L2209.32,992.534 L2211.83,996.261 L2211.83,997.495 L2214.32,998.734 L2216.82,1001.21 L2219.29,1002.43 L2221.79,1006.13 L2219.37,1016.1 L2219.38,1017.33 L2216.94,1021.09 L2218.18,1022.32 L2223.14,1023.52 L2226.87,1025.99 L2234.33,1029.68 L2238.04,1029.66 L2243.01,1032.12 L2245.52,1037.06 L2250.5,1044.49 L2254.24,1045.7 L2256.74,1049.43 L2260.49,1055.62 L2264.22,1059.32 L2265.52,1068.01 L2269.29,1079.17 L2274.24,1077.9 L2275.46,1075.41 L2281.64,1075.37 L2284.12,1074.13 L2285.37,1074.12 L2289.06,1071.61 L2292.75,1067.85 L2296.43,1060.39 L2303.82,1054.12 L2309.99,1051.61 L2313.71,1050.34 L2314.94,1050.33 L2316.2,1051.58 L2323.75,1076.37 L2332.48,1087.5 L2342.44,1094.91 L2362.31,1107.22 L2367.3,1113.42 L2374.73,1117.1 L2379.71,1120.79 L2380.97,1123.27 L2383.46,1129.47 L2387.23,1136.91 L2389.72,1139.38 L2397.18,1148.04 L2402.16,1154.22 L2403.41,1156.7 L2407.18,1165.37 L2409.67,1167.84 L2412.15,1172.8 L2414.64,1176.51 L2414.65,1177.76 L2417.13,1177.75 L2420.87,1181.45 L2425.83,1185.14 L2429.56,1187.61 L2432.05,1188.85 L2437.01,1193.78 L2443.23,1201.2 L2449.46,1207.38 L2453.18,1209.84 L2456.89,1211.06 L2460.63,1213.53 L2463.09,1216 L2466.85,1222.18 L2469.36,1229.63 L2470.6,1232.11 L2474.33,1238.29 L2475.6,1243.26 L2478.09,1245.73 L2479.33,1248.21 L2480.6,1251.92 L2480.62,1255.64 L2479.39,1260.61 L2481.88,1263.09 L2482.59,1264.49 L2490.52,1260.56 L2494.22,1258.06 L2495.46,1256.82 L2495.42,1248.14 L2494.17,1246.89 L2491.7,1245.67 L2490.46,1245.67 L2489.22,1244.43 L2487.96,1241.95 L2487.94,1237 L2489.18,1235.74 L2491.65,1234.5 L2492.88,1233.24 L2494.1,1233.23 L2495.35,1231.99 L2496.58,1231.99 L2497.84,1235.7 L2499.07,1235.69 L2499.06,1234.46 L2502.79,1235.68 L2502.8,1236.93 L2504.03,1238.16 L2513.98,1250.54 L2515.23,1251.76 L2516.46,1251.76 L2520.19,1254.23 L2527.62,1257.91 L2535.06,1261.62 L2538.78,1265.32 L2548.71,1268.99 L2552.42,1271.46 L2558.66,1285.09 L2568.55,1281.33 L2572.23,1276.35 L2575.92,1273.85 L2578.42,1278.81 L2592.07,1288.67 L2598.26,1291.13 L2604.49,1298.56 L2606.95,1299.78 L2610.7,1307.22 L2616.9,1313.39 L2621.85,1312.14 L2626.76,1305.9 L2628.02,1308.38 L2629.25,1309.63 L2635.45,1310.84 L2636.68,1312.08 L2640.39,1313.3 L2641.64,1313.3 L2641.64,1312.07 L2642.86,1310.81 L2642.85,1308.32 L2646.54,1304.6 L2649,1300.87 L2652.73,1302.09 L2656.43,1299.59 L2663.85,1298.33 L2681.16,1298.27 L2682.4,1300.75 L2684.88,1303.23 L2688.61,1309.41 L2689.87,1315.61 L2691.11,1316.84 L2692.35,1316.83 L2692.35,1315.6 L2710.89,1315.54 L2723.26,1314.25 L2743.05,1316.67 L2731.98,1332.84 L2713.45,1341.58 L2692.46,1347.85 L2669.01,1362.83 L2664.11,1371.53 L2660.46,1392.62 L2651.88,1411.26 L2648.23,1426.14 L2638.43,1450.98 L2631.08,1464.65 L2605.27,1500.7 L2597.9,1511.89 L2585.6,1523.09 L2589.32,1529.27 L2595.54,1540.4 L2596.78,1544.1 L2599.26,1546.57 L2599.27,1547.8 L2600.52,1549.05 L2604.25,1558.94 L2606.76,1567.6 L2606.77,1568.85 L2605.55,1571.33 L2605.56,1573.81 L2608.02,1575.03 L2608.02,1576.26 L2608.03,1577.51 L2614.21,1575.01 L2617.9,1575 L2621.6,1574.98 L2623.93,1575.55 L2626.55,1576.19 L2629.03,1577.43 L2631.49,1576.17 L2632.72,1576.17 L2636.42,1572.45 L2640.11,1569.95 L2648.75,1568.69 L2656.17,1568.66 L2661.1,1572.35 L2663.59,1576.06 L2664.84,1576.05 L2667.32,1578.52 L2669.78,1580.99 L2672.25,1582.24 L2675.99,1587.16 L2679.7,1592.11 L2679.71,1593.36 L2684.64,1590.86 L2685.87,1590.86 L2685.86,1589.61 L2687.1,1587.12 L2688.33,1587.12 L2689.55,1585.89 L2693.26,1583.39 L2694.48,1582.16 L2695.73,1582.15 L2699.44,1585.85 L2700.66,1584.62 L2701.9,1583.36 L2703.12,1582.13 L2705.59,1580.87 L2706.84,1580.87 L2708.06,1580.86 L2710.53,1578.37 L2711.75,1578.37 L2713,1578.37 L2715.48,1582.09 L2716.72,1584.56 L2720.42,1585.78 L2724.14,1588.25 L2727.84,1588.24 L2730.31,1588.23 L2731.54,1588.23 L2732.78,1586.97 L2734.01,1588.22 L2736.49,1589.44 L2745.14,1593.14 L2746.39,1593.14 L2750.08,1593.13 L2755.02,1591.86 L2757.49,1590.63 L2764.87,1585.64 L2766.11,1584.41 L2771.02,1579.43 L2778.42,1571.97 L2779.64,1570.74 L2788.29,1565.75 L2789.51,1563.27 L2796.9,1554.58 L2803.06,1549.6 L2822.78,1534.68 L2837.62,1545.79 L2838.88,1549.5 L2842.59,1555.68 L2843.82,1556.93 L2837.68,1569.33 L2835.22,1573.06 L2840.17,1576.76 L2841.4,1576.76 L2843.87,1576.75 L2859.95,1586.61 L2888.38,1602.65 L2890.86,1602.65 L2892.08,1602.65 L2825.74,1721.68 L2824.5,1722.94 L2817.15,1736.58 L2818.37,1736.57 L2818.37,1735.32 L2820.84,1735.32 L2820.84,1736.57 L2823.32,1740.27 L2824.55,1741.51 L2825.81,1745.22 L2825.82,1748.92 L2825.82,1750.17 L2827.04,1750.17 L2828.29,1750.16 L2820.92,1763.78 L2798.82,1802.21 L2793.87,1799.75 L2793.91,1810.88 L2797.62,1812.12 L2800.08,1814.59 L2802.54,1813.34 L2803.78,1812.11 L2805.01,1813.33 L2807.48,1813.32 L2809.95,1813.32 L2812.42,1814.56 L2814.89,1815.78 L2819.83,1815.77 L2822.29,1818.24 L2824.76,1819.46 L2828.48,1821.93 L2829.7,1823.17 L2829.71,1824.4 L2828.49,1828.11 L2828.5,1829.36 L2829.72,1829.35 L2832.19,1829.35 L2833.42,1833.05 L2834.67,1834.29 L2835.9,1835.52 L2837.14,1835.51 L2840.83,1835.51 L2842.06,1835.5 L2845.78,1840.45 L2848.26,1841.67 L2851.95,1844.13 L2854.43,1845.38 L2860.6,1850.29 L2864.3,1855.24 L2860.63,1861.43 L2859.4,1860.2 L2856.93,1858.96 L2855.68,1858.96 L2854.46,1858.97 L2848.3,1860.23 L2843.37,1860.24 L2843.37,1861.47 L2842.13,1862.72 L2840.9,1862.73 L2839.68,1861.48 L2840.89,1857.77 L2842.11,1854.07 L2842.09,1849.11 L2840.86,1846.64 L2839.63,1844.17 L2839.63,1842.94 L2837.15,1840.47 L2835.91,1840.47 L2832.23,1844.19 L2830.98,1844.19 L2829.76,1844.19 L2828.53,1842.97 L2823.6,1842.98 L2823.61,1846.69 L2824.84,1850.39 L2823.63,1854.11 L2822.38,1854.12 L2822.37,1851.64 L2822.37,1850.39 L2822.36,1847.92 L2821.14,1847.92 L2818.67,1847.93 L2818.67,1846.7 L2817.45,1847.93 L2816.21,1849.18 L2816.22,1852.89 L2815.3,1854.06 L2815.02,1854.24 L2815,1855.37 L2815.01,1860.32 L2816.24,1861.54 L2816.24,1862.79 L2815.02,1862.79 L2813.77,1861.55 L2812.55,1861.55 L2812.55,1860.32 L2811.3,1860.33 L2807.61,1861.57 L2806.39,1862.82 L2805.15,1862.82 L2802.68,1864.06 L2800.22,1865.31 L2800.23,1867.79 L2800.23,1869.02 L2801.47,1869.01 L2802.7,1870.24 L2799.01,1871.5 L2799.02,1872.72 L2796.55,1872.73 L2795.32,1872.73 L2791.62,1873.99 L2790.39,1874 L2790.4,1875.22 L2786.7,1875.23 L2785.46,1876.49 L2783,1876.49 L2781.78,1878.95 L2774.38,1878.97 L2768.22,1878.99 L2762.07,1882.74 L2760.83,1885.22 L2753.44,1883.99 L2743.61,1896.4 L2747.34,1902.57 L2747.35,1905.04 L2744.89,1907.53 L2744.89,1908.75 L2746.12,1908.75 L2747.36,1908.75 L2764.65,1921.05 L2769.6,1925.99 L2767.14,1928.47 L2772.06,1932.16 L2777.01,1937.09 L2785.67,1948.29 L2785.67,1948.31 L2782.25,1952.34 L2775.19,1960.65 L2770.83,1965.54 L2767.36,1969.43 L2766.5,1970.4 L2754,1985.05 L2754.15,1985.58 L2754.82,1987.93 L2757.23,1991.75 L2759.33,1995.46 L2760.49,1997.5 L2762.96,2002.96 L2764.26,2007.07 L2764.54,2011.42 L2765.95,2023.87 L2765.66,2029.33 L2765.38,2031.57 L2764.85,2035.75" vector-effect="none" fill-rule="evenodd"/>
  </g>
  <g stroke-linejoin="bevel" stroke-width="1" font-size="34.5833" fill="none" stroke-linecap="square" stroke="#000000" font-weight="400" font-style="normal" stroke-opacity="1" transform="matrix(0.999744,0,0,0.999744,0,0)" font-family="MS Shell Dlg 2"/>
  <g stroke-linejoin="bevel" stroke-width="1" font-size="34.5833" fill="none" stroke-linecap="square" stroke="#000000" font-weight="400" font-style="normal" stroke-opacity="1" transform="matrix(11.808,0,0,11.808,0,0)" font-family="MS Shell Dlg 2"/>
  <g stroke-linejoin="bevel" stroke-width="1" font-size="34.5833" fill="none" stroke-linecap="square" stroke="#000000" font-weight="400" font-style="normal" stroke-opacity="1" transform="matrix(11.808,0,0,11.808,0,0)" font-family="MS Shell Dlg 2"/>
  <g stroke-linejoin="bevel" stroke-width="1" font-size="34.5833" fill="none" stroke-linecap="square" stroke="#000000" font-weight="400" font-style="normal" stroke-opacity="1" transform="matrix(11.808,0,0,11.808,0,0)" font-family="MS Shell Dlg 2"/>
  <g stroke-linejoin="bevel" stroke-width="1" font-size="34.5833" fill="none" stroke-linecap="square" stroke="#000000" font-weight="400" font-style="normal" stroke-opacity="1" transform="matrix(1,0,0,1,0,0)" font-family="MS Shell Dlg 2"/>
  <g stroke-linejoin="bevel" stroke-width="1" font-size="34.5833" fill="none" stroke-linecap="square" stroke="#000000" font-weight="400" font-style="normal" stroke-opacity="1" transform="matrix(11.808,0,0,11.808,0,0)" font-family="MS Shell Dlg 2"/>
  <g stroke-linejoin="bevel" stroke-width="1" font-size="34.5833" fill="none" stroke-linecap="square" stroke="#000000" font-weight="400" font-style="normal" stroke-opacity="1" transform="matrix(11.808,0,0,11.808,0,0)" font-family="MS Shell Dlg 2"/>
  <g stroke-linejoin="bevel" stroke-width="1" font-size="34.5833" fill="none" stroke-linecap="square" stroke="#000000" font-weight="400" font-style="normal" stroke-opacity="1" transform="matrix(11.808,0,0,11.808,0,0)" font-family="MS Shell Dlg 2"/>
  <g stroke-linejoin="bevel" stroke-width="1" font-size="34.5833" fill="none" stroke-linecap="square" stroke="#000000" font-weight="400" font-style="normal" stroke-opacity="1" transform="matrix(11.808,0,0,11.808,0,0)" font-family="MS Shell Dlg 2"/>
  <g stroke-linejoin="bevel" stroke-width="1" font-size="34.5833" fill="none" stroke-linecap="square" stroke="#000000" font-weight="400" font-style="normal" stroke-opacity="1" transform="matrix(1,0,0,1,0,0)" font-family="MS Shell Dlg 2"/>
 </g>
</svg>
