<?xml version='1.0' encoding='UTF-8' standalone='no'?>
<svg xmlns:xlink="http://www.w3.org/1999/xlink" height="249.936mm" width="249.936mm" viewBox="0 0 2952 2952" version="1.2" baseProfile="tiny" xmlns="http://www.w3.org/2000/svg">
 <title>Qt SVG Document</title>
 <desc>Generated with Qt</desc>
 <defs/>
 <g stroke-linejoin="bevel" stroke-width="1" fill="none" stroke-linecap="square" stroke="black" fill-rule="evenodd">
  <g stroke-linejoin="bevel" stroke-width="1" font-size="34.5833" fill="none" stroke-linecap="square" stroke="#000000" font-weight="400" font-style="normal" stroke-opacity="1" transform="matrix(1,0,0,1,0,0)" font-family="MS Shell Dlg 2"/>
  <g stroke-linejoin="bevel" stroke-width="1" font-size="34.5833" fill="none" stroke-linecap="square" stroke="#000000" font-weight="400" font-style="normal" stroke-opacity="1" transform="matrix(1,0,0,1,0,0)" font-family="MS Shell Dlg 2"/>
  <g stroke-linejoin="bevel" stroke-width="1" font-size="34.5833" fill="none" stroke-linecap="square" stroke="#000000" font-weight="400" font-style="normal" stroke-opacity="1" transform="matrix(11.808,0,0,11.808,0,0)" font-family="MS Shell Dlg 2"/>
  <g stroke-linejoin="bevel" stroke-width="1" font-size="34.5833" fill="none" stroke-linecap="square" stroke="#000000" font-weight="400" font-style="normal" stroke-opacity="1" transform="matrix(0.999744,0,0,0.999744,0,0)" font-family="MS Shell Dlg 2"/>
  <g fill-opacity="0" font-size="34.5833" fill="#ffffff" stroke="none" font-weight="400" font-style="normal" transform="matrix(0.999744,0,0,0.999744,0,0)" font-family="MS Shell Dlg 2">
   <path d="M-2,-2 L2955,-2 L2955,2955 L-2,2955 L-2,-2" vector-effect="none" fill-rule="evenodd"/>
  </g>
  <g stroke-linejoin="bevel" stroke-width="1" font-size="34.5833" fill="none" stroke-linecap="square" stroke="#000000" font-weight="400" font-style="normal" stroke-opacity="1" transform="matrix(0.999744,0,0,0.999744,0,0)" font-family="MS Shell Dlg 2"/>
  <g stroke-linejoin="bevel" stroke-width="1" font-size="34.5833" fill="none" stroke-linecap="square" stroke="#000000" font-weight="400" font-style="normal" stroke-opacity="1" transform="matrix(11.808,0,0,11.808,0,0)" font-family="MS Shell Dlg 2"/>
  <g stroke-linejoin="bevel" stroke-width="1" font-size="34.5833" fill="none" stroke-linecap="square" stroke="#000000" font-weight="400" font-style="normal" stroke-opacity="1" transform="matrix(11.808,0,0,11.808,0,0)" font-family="MS Shell Dlg 2"/>
  <g stroke-linejoin="bevel" stroke-width="1" font-size="34.5833" fill="none" stroke-linecap="square" stroke="#000000" font-weight="400" font-style="normal" stroke-opacity="1" transform="matrix(11.808,0,0,11.808,0,0)" font-family="MS Shell Dlg 2"/>
  <g stroke-linejoin="bevel" stroke-width="1" font-size="34.5833" fill="none" stroke-linecap="square" stroke="#000000" font-weight="400" font-style="normal" stroke-opacity="1" transform="matrix(11.808,0,0,11.808,0,0)" font-family="MS Shell Dlg 2"/>
  <g stroke-linejoin="bevel" stroke-width="1" font-size="34.5833" fill="none" stroke-linecap="square" stroke="#000000" font-weight="400" font-style="normal" stroke-opacity="1" transform="matrix(11.808,0,0,11.808,0,0)" font-family="MS Shell Dlg 2"/>
  <g fill-opacity="0" font-size="34.5833" fill="#ffffff" stroke="none" font-weight="400" font-style="normal" transform="matrix(11.808,0,0,11.808,0,0)" font-family="MS Shell Dlg 2">
   <path d="M0,0 L250,0 L250,250 L0,250 L0,0" vector-effect="none" fill-rule="evenodd"/>
  </g>
  <g stroke-linejoin="bevel" stroke-width="1" font-size="34.5833" fill="none" stroke-linecap="square" stroke="#000000" font-weight="400" font-style="normal" stroke-opacity="1" transform="matrix(11.808,0,0,11.808,0,0)" font-family="MS Shell Dlg 2"/>
  <g stroke-linejoin="bevel" stroke-width="1" font-size="34.5833" fill="none" stroke-linecap="square" stroke="#000000" font-weight="400" font-style="normal" stroke-opacity="1" transform="matrix(11.808,0,0,11.808,0,0)" font-family="MS Shell Dlg 2"/>
  <g fill-opacity="0" font-size="34.5833" fill="#000000" stroke="none" font-weight="400" font-style="normal" transform="matrix(0.999744,0,0,0.999744,0,0)" font-family="MS Shell Dlg 2">
   <rect y="0" height="2953" x="0" width="2953"/>
  </g>
  <g stroke-linejoin="bevel" stroke-width="1" font-size="34.5833" fill="none" stroke-linecap="square" stroke="#000000" font-weight="400" font-style="normal" stroke-opacity="1" transform="matrix(0.999744,0,0,0.999744,0,0)" font-family="MS Shell Dlg 2"/>
  <g stroke-linejoin="bevel" fill-opacity="1" stroke-width="3.07087" font-size="34.5833" fill="#c5c5c5" stroke-linecap="square" stroke="#5c5c5c" font-weight="400" font-style="normal" stroke-opacity="1" transform="matrix(0.999744,0,0,0.999744,0,0)" font-family="MS Shell Dlg 2">
   <path d="M90.7116,1601.16 L109.316,1578.76 L114.73,1576.01 L120.011,1572.04 L122.709,1569.44 L125.381,1568.13 L126.788,1568.15 L129.416,1566.75 L134.683,1562.84 L137.278,1561.61 L138.666,1560.3 L141.279,1560.27 L142.647,1558.94 L145.327,1552.41 L146.692,1549.68 L148.012,1545.74 L150.688,1544.39 L157.365,1540.47 L161.361,1537.84 L164.091,1533.81 L169.429,1531.19 L170.653,1529.93 L172.067,1521.9 L174.757,1520.6 L177.362,1521.92 L185.277,1524.66 L194.613,1530.08 L197.181,1531.44 L203.741,1538.12 L205.062,1543.5 L207.622,1546.05 L212.975,1550.14 L217.094,1546.04 L225.059,1531.57 L226.396,1530.28 L235.753,1518.47 L238.474,1510.45 L239.855,1507.69 L243.756,1501.21 L234.62,1497.06 L235.929,1490.54 L240.132,1483.57 L242.767,1471.91 L244.123,1466.54 L250.782,1458.67 L244.162,1450.59 L245.609,1449.21 L244.261,1449.27 L244.235,1445.35 L242.888,1443.95 L240.44,1430.64 L240.453,1420.03 L236.591,1411.95 L228.661,1398.61 L227.437,1386.61 L227.469,1383.96 L220.124,1369.5 L258.256,1348.26 L268.844,1343.01 L275.455,1350.5 L270.012,1352.73 L267.552,1360.83 L276.676,1365.24 L277.497,1372.1 L281.495,1371.9 L279.24,1379.9 L290.928,1379.28 L288.906,1384.55 L290.326,1389.01 L293.672,1389.33 L298.036,1388.42 L302.923,1380.2 L300.465,1353.82 L321.423,1352.04 L322.666,1351.94 L341.182,1350.37 L346.827,1319.06 L356.488,1320.02 L370.367,1323.55 L388.381,1334.52 L393.416,1333.02 L395.919,1332.92 L399.076,1335.42 L401.906,1334.77 L418.125,1325.62 L425.964,1326.94 L426.251,1326.24 L418.704,1315.04 L415.295,1307.66 L417.076,1300.34 L421.952,1296.78 L423.845,1293.86 L423.903,1287.66 L430.737,1283.24 L429.99,1269.02 L439.834,1249.97 L437.001,1247.26 L438.291,1245.93 L443.668,1245.93 L448.933,1240.66 L452.965,1230.09 L463.846,1214.17 L477.194,1203.59 L481.21,1198.31 L482.636,1196.92 L486.393,1194.42 L493.163,1187.82 L497.309,1179.72 L497.716,1179.45 L513.408,1169.23 L519.995,1164.14 L525.514,1155.91 L526.672,1152.23 L529.413,1146.86 L526.96,1137.51 L527.012,1125.34 L528.469,1120.13 L525.869,1109.55 L535.229,1094.84 L532.669,1086.95 L532.824,1078.89 L528.868,1077.52 L518.012,1081.32 L518.273,1070.6 L523.555,1064.1 L527.477,1062.87 L533.081,1055.02 L536.964,1052.42 L537.082,1036.9 L538.541,1029.53 L546.649,1026.92 L553.191,1025.69 L554.525,1024.36 L557.179,1024.4 L558.548,1023.09 L559.898,1023.12 L563.781,1027.12 L567.798,1028.52 L567.798,1029.87 L570.323,1031.13 L573.077,1033.92 L575.716,1035.27 L575.659,1036.59 L576.95,1037.99 L576.979,1040.66 L580.938,1043.3 L586.332,1048.78 L586.102,1050.1 L588.856,1050.07 L588.827,1051.5 L591.438,1054.06 L599.328,1060.8 L606.013,1067.66 L607.304,1071.59 L608.589,1073.04 L607.133,1075.55 L611.148,1079.53 L613.816,1083.67 L619.083,1087.67 L621.678,1086.36 L624.346,1087.68 L629.624,1089.15 L637.629,1089.17 L640.467,1089.74 L644.199,1090.49 L645.669,1090.59 L650.912,1094.68 L652.089,1097.24 L657.569,1101.45 L660.102,1104.12 L658.831,1106.76 L658.759,1108.08 L661.355,1109.31 L667.989,1116.2 L670.622,1121.54 L673.334,1125.56 L675.817,1122.95 L681.111,1126.92 L682.505,1126.94 L685.077,1128.31 L686.451,1130.99 L687.735,1129.66 L698.324,1129.79 L703.726,1125.85 L709.085,1124.52 L710.303,1124.59 L715.709,1121.92 L717.022,1119.33 L718.442,1115.31 L719.808,1112.68 L725.194,1103.36 L726.587,1099.36 L726.606,1095.4 L726.638,1090.12 L725.356,1088.72 L724.07,1086.02 L724.071,1084.74 L725.429,1083.39 L725.429,1082.05 L728.132,1078.11 L729.468,1075.46 L729.49,1074.08 L732.152,1072.77 L736.089,1072.82 L738.805,1074.17 L741.459,1072.9 L742.796,1071.57 L736.152,1063.33 L710.026,1035.39 L708.627,1035.23 L705.949,1035.21 L703.49,1036.71 L703.267,1039.18 L701.936,1039.14 L701.95,1037.82 L700.633,1039.12 L700.606,1041.78 L696.582,1041.77 L695.266,1043.09 L693.924,1040.4 L692.621,1040.37 L688.643,1044.36 L687.888,1045.04 L695.127,1052.42 L689.865,1053.69 L684.541,1053.65 L684.513,1052.33 L680.931,1051.96 L674.192,1051.15 L665.92,1050.79 L663.29,1048.05 L663.29,1046.85 L661.967,1042.76 L650.638,1033.69 L650.189,1033.33 L644.88,1033.28 L640.874,1030.55 L635.619,1023.81 L636.24,1023.23 L638.322,1021.18 L645.017,1014.58 L646.371,1014.62 L643.686,1011.93 L641.093,1011.88 L641.079,1010.56 L635.742,1009.14 L635.798,1007.82 L641.217,993.302 L639.941,991.858 L638.603,989.217 L638.623,987.673 L638.689,982.495 L637.386,979.837 L636.117,974.469 L637.437,973.149 L634.923,959.805 L636.234,959.811 L637.573,961.127 L640.243,958.543 L644.326,958.149 L648.237,957.281 L650.853,959.96 L652.235,959.98 L652.205,958.652 L654.882,957.411 L656.252,954.667 L656.276,953.35 L658.925,950.726 L661.576,950.735 L665.635,946.756 L668.214,948.139 L670.81,948.166 L672.306,949.41 L676.251,948.221 L677.582,948.179 L677.636,946.876 L680.243,946.89 L681.56,945.587 L684.263,945.628 L684.263,944.283 L685.621,944.311 L688.866,943.525 L690.944,943.021 L692.24,941.751 L693.646,940.374 L697.636,939.081 L709.601,939.207 L709.574,937.863 L714.924,937.89 L717.627,939.29 L721.55,939.331 L724.184,942.02 L729.521,942.088 L730.88,939.442 L733.57,938.098 L734.881,938.119 L737.539,936.824 L738.891,936.824 L742.883,938.171 L746.793,942.257 L750.812,943.603 L753.5,942.35 L757.47,942.373 L762.775,943.749 L765.409,942.454 L766.738,941.115 L769.415,939.809 L770.765,938.492 L776.114,935.904 L780.149,933.278 L782.75,934.617 L790.795,934.705 L794.735,936.12 L798.764,933.458 L802.758,933.52 L804.029,934.847 L809.284,945.597 L809.276,946.902 L813.186,955.013 L815.861,956.334 L819.848,957.734 L821.064,960.353 L823.663,964.443 L830.287,971.153 L832.356,974.758 L834.188,977.948 L836.795,980.572 L839.502,979.271 L840.819,979.279 L844.841,980.641 L848.764,980.707 L855.514,976.772 L856.822,975.441 L867.457,975.556 L872.791,972.971 L876.705,975.659 L876.946,980.59 L881.987,983.736 L884.679,982.433 L886.116,971.813 L887.431,971.768 L895.604,957.208 L896.908,957.225 L895.621,958.528 L900.869,958.614 L899.377,975.882 L902.042,974.62 L902.121,964.007 L907.507,958.756 L912.893,956.049 L919.516,956.172 L920.877,953.45 L926.119,950.817 L924.951,948.082 L926.423,944.266 L930.522,936.199 L930.423,934.92 L933.213,930.925 L933.021,925.505 L930.489,922.886 L930.585,920.203 L934.555,916.196 L934.588,913.605 L937.375,902.981 L940.032,901.735 L941.394,900.338 L941.453,895 L940.196,894.947 L940.217,892.334 L941.547,892.347 L941.553,891.018 L942.885,889.722 L942.913,888.354 L944.25,887.014 L944.264,885.699 L949.69,885.882 L952.332,886.843 L957.856,884.361 L958.737,882.04 L963.06,880.518 L965.942,876.516 L971.226,875.395 L977.631,875.395 L985.717,876.595 L992.316,874.242 L996.217,871.664 L1000.21,870.351 L1008.53,863.866 L1008.36,861.16 L1009.95,854.448 L1011.28,852.034 L1011.18,843.637 L1007.38,834.418 L1007.61,819.48 L1006.26,815.529 L1000.88,810.085 L999.754,807.522 L999.795,799.652 L998.607,796.742 L998.603,788.818 L1001.49,784.914 L1005.27,783.585 L1008.01,782.328 L1013.36,782.515 L1021.34,781.164 L1026.49,782.354 L1029.32,778.361 L1029.52,774.503 L1032.14,767.806 L1033.77,766.359 L1044.23,762.798 L1049.55,762.8 L1050.98,758.908 L1051.02,752.174 L1039.23,745.186 L1039.12,739.8 L1036.54,737.015 L1031.37,734.41 L1028.64,733.343 L1028.63,730.454 L1026.12,727.948 L1026.11,721.078 L1029.06,716.87 L1036.88,709.346 L1037.04,702.692 L1035.69,699.922 L1035.82,698.571 L1037.17,695.768 L1041.01,693.405 L1054.41,692.108 L1061,692.153 L1069.34,673.513 L1074.78,664.008 L1078.7,665.682 L1078.57,668.526 L1083.27,671.205 L1089.17,672.54 L1091.51,673.727 L1095.72,673.755 L1111.95,667.431 L1113.24,668.681 L1119.9,668.797 L1123.85,670.082 L1127.87,670.062 L1129.35,667.613 L1130.57,667.571 L1131.84,666.347 L1134.54,667.592 L1134.52,666.284 L1135.87,665.018 L1137.27,665.068 L1139.92,662.443 L1145.21,659.798 L1150.62,661.128 L1153.28,662.526 L1157.3,662.607 L1157.37,659.888 L1158.76,655.96 L1154.68,651.949 L1154.79,649.256 L1152.16,647.825 L1150.86,645.11 L1149.64,643.745 L1145.62,643.805 L1145.64,635.638 L1139.34,636.927 L1136.18,635.482 L1129.79,635.194 L1126.91,634.122 L1125.51,629.836 L1120.53,627.529 L1119.16,625.014 L1119.41,613.886 L1114.17,604.448 L1115.37,601.975 L1115.37,597.977 L1114.27,594.007 L1114.29,588.361 L1118.28,584.487 L1119.54,582.105 L1119.7,579.359 L1118.38,576.557 L1117.05,576.608 L1115.73,575.215 L1115.83,569.842 L1114.51,567.21 L1113.17,565.794 L1113.21,563.147 L1114.58,560.484 L1113.25,560.443 L1114.62,556.569 L1112.01,553.729 L1112.01,549.876 L1110.69,549.671 L1109.39,548.331 L1109.43,545.708 L1108.08,544.343 L1108.12,541.693 L1113.48,536.444 L1114.95,533.788 L1112.28,530.961 L1109.61,529.707 L1109.65,528.338 L1108.35,525.616 L1109.74,521.736 L1108.35,517.525 L1107.04,514.934 L1103.2,509.556 L1101.93,506.847 L1103.2,505.589 L1104.66,501.502 L1111.44,498.999 L1115.26,503.076 L1118.08,503.011 L1125.97,501.805 L1124.62,501.789 L1120.68,497.735 L1119.36,497.718 L1116.7,496.336 L1115.39,493.642 L1112.74,492.281 L1111.43,490.916 L1110.13,489.572 L1108.8,488.228 L1106.13,488.195 L1106.11,489.522 L1103.44,489.489 L1102.12,489.473 L1102.19,484.119 L1099.53,482.758 L1098.21,482.742 L1098.19,484.07 L1096.83,485.402 L1092.89,481.327 L1091.56,479.983 L1091.58,478.633 L1092.94,477.322 L1095.61,477.355 L1095.64,474.678 L1091.66,471.952 L1088.98,474.596 L1088.96,475.945 L1087.62,475.929 L1087.65,473.252 L1085,471.87 L1081,471.821 L1077.06,467.767 L1071.75,465.025 L1071.77,463.697 L1069.15,459.638 L1070.49,458.326 L1069.2,455.632 L1067.91,452.939 L1067.92,451.611 L1066.59,450.245 L1065.27,450.229 L1063.92,450.212 L1058.6,448.82 L1055.97,447.438 L1053.33,444.729 L1050.68,443.368 L1050.71,440.691 L1052.04,440.707 L1053.4,439.395 L1053.41,438.045 L1053.43,436.717 L1052.12,434.023 L1053.48,432.69 L1053.51,430.034 L1052.2,427.34 L1052.24,424.742 L1049.56,424.71 L1044.22,426.009 L1041.58,425.969 L1035.01,419.152 L1032.41,417.881 L1031.05,415.133 L1025.67,417.753 L1020.32,417.639 L1019,416.349 L1017.73,410.955 L1017.9,397.445 L1020.55,394.826 L1023.26,393.549 L1023.34,390.859 L1020.63,390.831 L1020.65,388.159 L1019.38,382.779 L1018.07,381.442 L1015.41,381.405 L1012.73,379.99 L1008.8,375.971 L1008.86,373.3 L1010.22,370.617 L1012.9,369.337 L1016.84,369.383 L1020.96,362.691 L1022.29,361.446 L1023.7,357.422 L1027.79,353.429 L1029.08,353.429 L1031.67,357.471 L1030.31,360.189 L1032.98,362.873 L1036.96,362.934 L1038.28,364.276 L1042.3,362.978 L1045.02,360.357 L1046.3,360.356 L1049,361.694 L1057.04,359.108 L1061.12,349.848 L1062.46,349.843 L1062.46,351.179 L1066.49,348.544 L1073.16,348.669 L1079.9,343.375 L1082.54,340.753 L1086.65,340.756 L1090.63,339.496 L1090.63,338.118 L1092.02,334.209 L1092.05,332.803 L1096.08,330.19 L1097.44,330.202 L1102.73,332.95 L1106.72,333.007 L1109.41,330.366 L1118.77,330.475 L1121.46,329.15 L1121.45,327.814 L1122.81,327.841 L1126.8,329.21 L1128.17,327.861 L1129.52,325.242 L1132.19,322.613 L1133.53,323.972 L1136.18,325.293 L1137.51,324.042 L1144.21,320.123 L1146.89,317.445 L1152.34,314.767 L1152.37,313.477 L1153.66,313.477 L1159.03,310.892 L1163.03,312.287 L1165.66,313.676 L1167.07,313.651 L1168.24,314.965 L1175,316.415 L1177.62,316.471 L1180.49,315.089 L1181.67,313.894 L1181.71,312.485 L1183.05,308.443 L1183.12,307.161 L1185.85,301.822 L1187.14,301.846 L1187.19,300.557 L1189.89,297.903 L1189.96,295.2 L1191.28,295.25 L1191.28,293.96 L1193.96,291.257 L1195.27,291.257 L1198.1,287.19 L1199.41,284.602 L1196.76,281.908 L1194.16,277.844 L1194.08,276.551 L1195.52,275.262 L1195.54,273.898 L1192.93,271.239 L1192.97,265.798 L1194.29,265.813 L1194.44,256.512 L1195.78,256.465 L1201.15,253.879 L1206.45,256.64 L1214.42,256.734 L1217.16,254.092 L1221.12,254.112 L1223.82,256.856 L1233.13,256.962 L1234.46,258.291 L1238.45,257.041 L1241.15,257.054 L1245.13,259.797 L1247.76,262.503 L1249.1,262.524 L1250.39,263.866 L1255.76,258.592 L1255.85,257.246 L1257.16,254.58 L1257.2,253.285 L1258.6,246.579 L1262.69,243.938 L1266.7,243.999 L1266.8,238.709 L1262.84,234.581 L1262.83,233.274 L1264.13,230.591 L1268.23,227.969 L1268.3,223.938 L1266.97,221.241 L1268.43,218.544 L1268.37,214.576 L1267.11,210.504 L1268.52,207.85 L1272.53,206.581 L1277.78,209.332 L1281.91,206.703 L1281.91,204.13 L1290.07,196.098 L1291.37,193.457 L1295.48,189.449 L1298.14,188.181 L1299.48,186.791 L1302.15,185.534 L1304.82,185.57 L1307.48,186.936 L1308.83,186.954 L1310.17,185.642 L1312.84,185.678 L1314.13,188.377 L1313.97,200.431 L1319.26,204.514 L1320.61,204.533 L1325.97,201.924 L1331.94,202.005 L1332.66,202.015 L1334.01,200.703 L1336.26,200.734 L1338,200.757 L1340.69,199.442 L1342.04,199.461 L1343.39,198.149 L1344.72,199.497 L1346.04,199.515 L1347.38,198.204 L1352.73,198.277 L1356.75,197.002 L1360.77,197.057 L1362.11,195.724 L1362.2,189.032 L1364.88,189.069 L1366.26,186.406 L1368.93,185.113 L1374.28,185.187 L1379.7,179.898 L1381.02,179.917 L1383.68,181.284 L1386.33,182.672 L1387.66,184.021 L1390.31,184.058 L1391.64,185.428 L1398.29,186.851 L1402.29,186.906 L1403.66,185.596 L1406.35,184.281 L1408.03,185.249 L1411.58,186.01 L1413.37,187.353 L1415.64,188.423 L1418.6,190.236 L1422.27,191.199 L1423.58,192.569 L1424.93,192.588 L1427.56,195.306 L1429.5,195.848 L1431.78,197.556 L1432.52,198.391 L1432.81,202.074 L1434.1,204.774 L1435.41,206.122 L1435.33,211.484 L1436.68,211.503 L1437.99,212.851 L1440.64,214.24 L1444.62,215.627 L1447.27,217.016 L1448.64,215.684 L1451.33,214.392 L1453.98,215.76 L1455.29,217.13 L1460.64,217.207 L1463.35,214.564 L1466.02,213.251 L1467.36,213.27 L1467.34,214.622 L1470.02,214.66 L1469.96,218.67 L1473.9,222.738 L1473.86,225.418 L1475.13,230.799 L1476.44,232.17 L1476.36,237.509 L1472.33,240.132 L1470.94,242.793 L1474.92,245.531 L1476.23,246.879 L1477.52,249.579 L1477.5,250.93 L1480.11,254.978 L1480.05,258.987 L1478.71,260.319 L1478.69,261.648 L1480,263.019 L1482.61,267.066 L1482.59,268.396 L1483.94,268.415 L1483.88,272.446 L1485.19,273.794 L1485.13,277.825 L1482.44,279.116 L1482.38,283.125 L1490.34,287.271 L1494.31,288.658 L1495.66,288.677 L1498.29,290.066 L1499.62,291.415 L1500.94,291.434 L1505,288.813 L1507.69,287.522 L1512.93,292.938 L1514.28,292.957 L1522.22,297.105 L1526.23,297.163 L1528.89,298.532 L1531.52,299.921 L1534.13,303.969 L1536.78,305.337 L1542.12,305.416 L1542.1,306.766 L1544.77,306.806 L1546.12,305.475 L1550.12,306.885 L1551.44,306.904 L1559.4,311.031 L1562.03,313.75 L1562.01,315.079 L1560.64,316.41 L1555.26,319.01 L1553.86,324.349 L1552.47,326.986 L1552.45,328.337 L1559.04,335.123 L1561.69,336.513 L1560.27,341.829 L1560.25,343.18 L1561.55,345.878 L1562.82,349.906 L1568.16,349.985 L1569.46,351.333 L1572.08,355.402 L1574.77,354.092 L1577.42,355.482 L1581.39,356.87 L1584.02,359.589 L1588.02,359.649 L1589.34,360.997 L1593.3,363.736 L1594.64,363.756 L1595.99,362.448 L1598.66,362.488 L1601.31,363.857 L1602.61,365.227 L1609.32,362.649 L1611.99,362.689 L1611.97,364.018 L1613.3,365.388 L1615.97,365.428 L1617.31,364.099 L1618.64,364.119 L1621.31,364.159 L1625.3,365.57 L1626.63,365.59 L1629.34,362.952 L1632.01,362.993 L1634.7,361.683 L1636,363.054 L1638.67,363.095 L1644.05,360.498 L1646.72,360.538 L1647.17,360.998 L1648.03,361.887 L1650.64,365.957 L1650.62,367.286 L1649.27,368.615 L1649.25,369.944 L1651.9,369.984 L1654.59,368.697 L1655.92,370.046 L1657.24,370.066 L1658.61,368.759 L1661.22,371.478 L1662.56,371.499 L1665.19,374.197 L1666.47,376.896 L1667.82,376.916 L1670.57,371.622 L1673.24,370.313 L1675.95,367.676 L1676.02,363.669 L1682.4,357.456 L1682.78,357.086 L1685.43,358.456 L1688.1,358.497 L1692.14,357.231 L1693.47,357.252 L1693.59,349.216 L1714.93,349.55 L1720.23,352.312 L1724.19,355.054 L1728.18,355.117 L1736.32,347.207 L1740.36,344.591 L1741.72,343.284 L1739.11,339.234 L1737.81,336.534 L1740.52,333.897 L1741.98,327.231 L1748.64,327.337 L1749.99,326.007 L1750.05,321.999 L1748.75,320.628 L1747.49,316.599 L1747.53,313.92 L1744.9,311.198 L1739.56,311.113 L1736.91,309.742 L1735.6,308.371 L1739.66,304.426 L1739.77,297.738 L1741.09,297.758 L1745.13,296.472 L1746.46,296.492 L1750.56,289.868 L1749.28,287.167 L1753.34,283.222 L1754.72,280.563 L1754.81,275.203 L1753.87,272.252 L1753.53,271.193 L1756.2,271.216 L1758.91,268.578 L1758.97,264.569 L1757.73,259.188 L1757.78,256.508 L1760.45,256.55 L1761.75,257.922 L1764.4,259.294 L1767.1,258.007 L1769.77,258.05 L1775.05,260.815 L1779.07,260.88 L1780.37,262.23 L1781.65,266.261 L1786.98,266.347 L1788.53,267.953 L1789.6,269.07 L1793.58,270.485 L1794.97,267.827 L1796.32,266.497 L1801.66,266.584 L1805.68,265.319 L1809.7,265.384 L1812.39,264.076 L1819.17,257.495 L1824.51,257.582 L1829.88,254.989 L1831.22,255.011 L1833.39,255.046 L1833.89,255.055 L1835.2,256.427 L1835.15,259.107 L1839.09,263.182 L1840.39,265.884 L1839.02,267.191 L1838.93,272.551 L1842.91,275.297 L1842.89,276.626 L1841.52,277.955 L1838.82,279.24 L1836.13,281.876 L1836.07,285.885 L1845.3,292.748 L1847.97,292.792 L1849.27,294.143 L1850.55,296.844 L1847.86,299.48 L1847.79,303.488 L1850.42,304.882 L1854.39,307.628 L1857.07,307.672 L1862.36,309.088 L1863.71,309.111 L1866.34,311.834 L1864.97,313.141 L1867.51,321.223 L1876.85,321.377 L1878.24,318.72 L1883.51,321.488 L1888.77,326.935 L1892.76,327.001 L1892.67,332.338 L1893.95,336.39 L1895.28,336.412 L1899.27,337.807 L1901.9,340.531 L1904.46,345.933 L1904.41,348.612 L1907.04,351.335 L1911.01,354.059 L1912.36,352.753 L1915.01,354.127 L1916.31,355.499 L1914.92,359.484 L1916.22,360.856 L1917.5,364.886 L1920.12,367.609 L1925.44,367.699 L1927.72,366.642 L1929.91,365.289 L1931.49,365.286 L1933.39,363.704 L1933.52,362.483 L1933.72,360.601 L1933.44,359.588 L1931.24,357.011 L1929.66,354.356 L1929.99,349.123 L1930.11,347.129 L1932.48,345.29 L1933.15,340.948 L1935.41,339.359 L1936.98,339.469 L1938,336.229 L1938.37,332.082 L1938.19,331.707 L1937.72,330.759 L1935.48,326.367 L1935.54,322.359 L1934.22,322.337 L1927.57,320.874 L1928.94,318.239 L1930.31,316.911 L1934.35,314.299 L1935.68,314.322 L1937.07,311.665 L1935.81,306.305 L1935.83,304.955 L1937.23,302.298 L1937.27,299.618 L1935.92,299.596 L1933.34,295.543 L1933.36,294.214 L1936.01,294.259 L1938.71,292.953 L1940.15,287.616 L1944.19,285.026 L1945.58,282.369 L1948.27,279.735 L1949.66,277.077 L1949.71,274.398 L1951.08,271.74 L1961.86,266.562 L1961.93,262.553 L1963.32,258.566 L1960.67,257.17 L1960.74,253.16 L1962.11,251.854 L1962.15,249.174 L1963.5,247.846 L1963.55,245.165 L1964.96,241.179 L1965.05,235.818 L1969.07,234.557 L1973.09,233.274 L1977.16,230.662 L1982.52,228.095 L1989.29,224.178 L1997.28,224.316 L2000,221.681 L2001.41,217.694 L2004.11,215.059 L2006.81,213.776 L2010.92,208.484 L2009.73,199.088 L2008.45,196.385 L2005.85,192.328 L2004.53,190.953 L2000.73,178.829 L1994.2,170.693 L1994.29,165.33 L1990.32,163.909 L1991.66,162.602 L1992.99,162.625 L1997.06,160.013 L1999.71,161.411 L2003.71,161.48 L2005.05,160.151 L2009.41,160.137 L2009.97,160.153 L2010.4,160.243 L2013.05,161.641 L2015.72,161.688 L2017,164.37 L2027.79,159.215 L2033.21,155.275 L2035.9,153.991 L2041.32,148.721 L2042.64,150.096 L2049.15,159.588 L2059.76,163.786 L2065.15,161.199 L2070.52,159.963 L2087.88,160.27 L2089.19,161.624 L2094.58,159.037 L2102.58,159.179 L2102.55,160.531 L2103.88,161.885 L2106.65,156.569 L2107.97,156.593 L2108,155.263 L2110.72,152.629 L2110.69,153.959 L2114.67,155.382 L2115.99,156.736 L2118.67,156.784 L2123.99,158.231 L2125.29,159.585 L2126.62,159.609 L2130.61,161.033 L2131.94,161.057 L2133.31,159.729 L2134.64,159.753 L2135.98,158.447 L2137.33,158.471 L2137.31,159.801 L2140.01,158.519 L2141.28,161.225 L2142.66,159.897 L2143.94,159.921 L2143.98,159.921 L2145.35,158.616 L2148,158.663 L2149.33,160.018 L2153.23,165.453 L2151.88,166.759 L2150.53,166.734 L2149.18,168.062 L2149.21,166.71 L2146.49,169.343 L2143.81,169.295 L2143.79,170.647 L2142.46,170.623 L2146.39,174.706 L2147.72,174.73 L2151.87,178.259 L2158.34,178.934 L2160.98,180.334 L2163.58,184.394 L2167.51,188.499 L2171.41,193.912 L2171.36,196.593 L2176.32,218.114 L2178.72,221.883 L2178.92,222.195 L2181.57,223.573 L2181.54,224.902 L2182.85,226.278 L2182.8,228.958 L2184.14,228.983 L2186.84,227.68 L2193.51,227.802 L2196.21,226.522 L2197.51,227.876 L2197.46,230.556 L2200.1,233.298 L2198.71,235.941 L2197.34,237.246 L2195.96,239.902 L2197.24,242.607 L2202.58,242.704 L2203.88,244.08 L2205.16,248.114 L2202.41,252.074 L2202.36,254.754 L2203.64,257.459 L2203.59,260.139 L2204.91,261.493 L2204.74,270.862 L2205.97,276.246 L2208.59,278.974 L2213.91,280.402 L2216.53,283.131 L2217.86,283.155 L2217.71,291.194 L2220.33,293.923 L2218.96,296.578 L2218.91,299.257 L2217.44,305.92 L2213.37,309.855 L2213.3,313.884 L2211.9,316.517 L2211.83,320.547 L2213.13,323.25 L2215.8,323.3 L2218.44,324.678 L2218.42,326.006 L2221.04,327.405 L2220.9,335.442 L2219.55,336.746 L2219.53,337.742 L2219.52,338.075 L2218.93,338.65 L2217.71,339.834 L2216.53,340.988 L2215.45,342.031 L2214.06,344.685 L2213.91,352.699 L2226.9,373.024 L2228.17,375.726 L2232.09,379.807 L2237.38,382.584 L2237.31,386.59 L2241.2,392.021 L2241.15,394.699 L2243.72,400.105 L2246.35,402.832 L2246.1,416.2 L2249.84,430.99 L2256.28,443.152 L2257.58,444.504 L2258.87,447.207 L2258.85,448.556 L2261.45,451.261 L2262.77,452.636 L2262.74,453.964 L2261.25,461.97 L2257.06,472.604 L2255.73,472.579 L2241.02,474.961 L2237,476.236 L2235.66,476.211 L2232.76,477.082 L2206.18,483.679 L2212.74,490.504 L2211.27,497.16 L2213.69,510.57 L2217.59,515.996 L2217.49,521.349 L2224.05,528.152 L2226.42,529.402 L2229.31,530.926 L2230.61,533.627 L2235.89,536.402 L2241.94,540.667 L2240.17,544.761 L2239.71,545.831 L2238.24,552.485 L2236.85,556.463 L2234.11,560.438 L2234.01,565.767 L2237.85,573.868 L2237.75,579.219 L2236.33,584.545 L2236.15,585.067 L2234.93,588.522 L2232.24,589.8 L2230.82,593.799 L2234.74,599.201 L2234.61,605.9 L2233.22,608.528 L2230.48,612.502 L2230.41,616.504 L2229.03,619.154 L2225.04,619.08 L2220.96,623.007 L2223.41,635.082 L2218.05,636.332 L2217.93,643.007 L2216.56,645.657 L2215.14,649.633 L2215.09,652.307 L2213.72,654.957 L2213.64,658.958 L2212.3,660.282 L2210.83,666.931 L2209.34,676.256 L2209.24,681.603 L2211.81,686.978 L2213.13,687.003 L2215.7,692.4 L2215.65,695.073 L2214.23,699.048 L2214.21,700.396 L2212.86,701.698 L2212.76,707.045 L2211.42,708.368 L2207.26,716.293 L2206.43,717.115 L2205.92,717.616 L2204.57,717.592 L2196.55,720.097 L2193.56,719.526 L2192.45,718.912 L2188.58,718.625 L2167.64,773.003 L2166.29,772.979 L2166.24,775.652 L2164.85,779.626 L2166.15,780.997 L2163.46,782.274 L2163.44,783.621 L2160.77,783.572 L2159.43,784.874 L2148.77,784.681 L2148.72,787.354 L2144.66,791.279 L2143.3,793.928 L2143.18,800.648 L2145.82,800.645 L2148.43,803.366 L2149.78,803.39 L2151.05,806.086 L2152.52,807.612 L2153.67,808.806 L2157.6,811.55 L2158.95,811.575 L2160.24,812.924 L2164.22,814.343 L2165.52,815.692 L2166.86,815.717 L2166.84,817.064 L2168.14,818.413 L2170.73,822.458 L2173.37,823.854 L2177.33,825.251 L2178.63,826.622 L2181.26,827.996 L2183.88,830.716 L2183.86,832.063 L2185.17,833.412 L2187.81,834.786 L2189.11,836.157 L2193.07,837.555 L2194.41,837.579 L2194.39,838.926 L2197,841.646 L2198.25,845.667 L2200.82,851.059 L2207.34,857.849 L2212.6,861.943 L2217.9,863.388 L2223.15,866.157 L2227.13,867.555 L2228.45,867.58 L2234.98,874.37 L2238.93,877.115 L2244.14,882.556 L2248.04,887.972 L2253.2,896.062 L2258.6,892.166 L2259.94,892.191 L2262.53,896.236 L2265.17,896.285 L2265.15,897.631 L2269.2,895.036 L2282.49,895.285 L2285.08,899.33 L2287.64,904.722 L2291.38,918.128 L2298.96,939.619 L2289.63,940.79 L2284.26,943.36 L2282.84,948.654 L2282.76,952.669 L2280.08,953.944 L2276.05,955.214 L2274.7,956.514 L2273.38,956.489 L2270.67,959.109 L2266.67,959.034 L2263.96,961.654 L2262.59,964.299 L2261.27,964.275 L2258.63,962.879 L2254.63,962.805 L2250.62,964.076 L2249.3,964.052 L2245.22,967.971 L2242.54,969.246 L2243.88,969.271 L2250.4,976.079 L2247.66,980.023 L2244.98,981.298 L2240.92,985.239 L2240.9,986.563 L2246.07,994.67 L2248.68,997.389 L2251.25,1001.43 L2255.08,1010.84 L2256.32,1014.85 L2253.64,1016.15 L2250.93,1018.77 L2248.31,1017.38 L2246.97,1017.35 L2244.36,1014.63 L2241.73,1013.26 L2239.14,1010.54 L2236.45,1011.84 L2231.03,1017.05 L2228.37,1017.01 L2224.32,1020.95 L2221.65,1020.9 L2218.97,1022.17 L2216.31,1022.12 L2212.26,1026.04 L2212.28,1024.72 L2210.96,1023.37 L2195.34,1005.74 L2194.04,1004.37 L2188.72,1004.27 L2183.42,1002.85 L2182.1,1002.83 L2178.07,1004.08 L2176.71,1006.72 L2175.37,1006.7 L2170.02,1009.27 L2167.26,1014.56 L2167.11,1022.57 L2164.41,1025.17 L2159.06,1026.42 L2148.34,1031.56 L2145.66,1032.84 L2142.9,1038.13 L2141.54,1039.43 L2137.51,1042.02 L2134.83,1043.32 L2136.1,1047.34 L2138.68,1051.38 L2138.61,1055.39 L2139.86,1059.41 L2139.57,1075.4 L2144.75,1083.5 L2147.31,1088.88 L2151.17,1095.61 L2153.74,1101 L2154.96,1106.33 L2158.84,1113.09 L2162.8,1114.48 L2164.02,1119.84 L2165.29,1123.85 L2169.19,1127.92 L2173.12,1130.66 L2179.78,1130.78 L2183.74,1132.2 L2195.64,1135.08 L2196.96,1135.11 L2199.6,1136.48 L2207.52,1139.29 L2210.18,1139.34 L2219.41,1143.5 L2233.99,1145.12 L2235.29,1146.46 L2240.58,1147.91 L2244.54,1149.3 L2248.46,1152.04 L2256.32,1158.85 L2262.83,1165.63 L2264.12,1168.32 L2266.58,1179.04 L2270.38,1188.44 L2271.6,1193.79 L2271.53,1197.78 L2272.74,1204.46 L2275.28,1211.17 L2276.42,1220.51 L2277.74,1221.88 L2285.42,1236.68 L2286.61,1244.69 L2286.51,1250.02 L2287.72,1255.37 L2284.4,1291.27 L2278.93,1299.15 L2270.74,1312.32 L2265.32,1317.55 L2266.56,1322.88 L2265.23,1322.86 L2261.28,1321.46 L2261.1,1330.78 L2263.56,1341.46 L2262.17,1344.1 L2260.83,1345.42 L2260.78,1348.09 L2260.76,1349.41 L2261.95,1356.08 L2263.09,1366.76 L2264.36,1369.45 L2270.84,1377.55 L2272.15,1378.91 L2273.47,1378.94 L2272.08,1382.9 L2275.93,1389.62 L2275.9,1390.97 L2274.56,1392.26 L2274.54,1393.6 L2275.83,1394.95 L2281.14,1395.05 L2282.43,1396.42 L2286.4,1397.81 L2287.69,1399.16 L2286.35,1400.48 L2286.33,1401.8 L2287.64,1401.82 L2290.27,1403.22 L2291.56,1404.56 L2292.9,1404.59 L2294.14,1408.6 L2294.61,1409.04 L2300.65,1415.39 L2302.35,1418.06 L2303.23,1419.42 L2303.76,1419.2 L2304.54,1420.77 L2305.73,1427.46 L2307.02,1430.15 L2308.31,1431.5 L2306.97,1432.79 L2304.24,1436.75 L2313.35,1446.23 L2314.54,1452.9 L2318.43,1458.31 L2323.57,1466.37 L2324.85,1469.06 L2329.89,1482.47 L2335.15,1485.24 L2337.8,1485.29 L2343.16,1482.73 L2353.75,1482.93 L2353.73,1484.25 L2355.07,1484.28 L2356.36,1485.64 L2356.18,1494.95 L2357.49,1496.3 L2363.96,1504.41 L2361.31,1504.36 L2365.2,1508.42 L2366.54,1508.44 L2373.19,1507.25 L2374.5,1507.28 L2386.2,1519.47 L2387.54,1519.5 L2387.57,1518.16 L2388.88,1518.18 L2388.83,1520.85 L2390.14,1522.21 L2388.81,1522.19 L2391.19,1524.31 L2390.12,1523.53 L2420.06,1552.04 L2422.66,1554.75 L2427.89,1557.52 L2429.23,1557.54 L2430.52,1558.89 L2435.83,1558.99 L2457.92,1582.05 L2465.73,1588.84 L2482.77,1598.49 L2478.75,1601.07 L2476.02,1605 L2470.59,1611.55 L2467.83,1616.8 L2463.81,1619.38 L2453.02,1628.47 L2448.95,1633.71 L2447.61,1633.69 L2439.44,1645.49 L2440.71,1648.18 L2440.63,1652.16 L2439.24,1656.13 L2432.52,1661.3 L2424.33,1673.1 L2422.99,1674.42 L2420.34,1674.36 L2418.97,1675.66 L2418.95,1677 L2420.26,1678.34 L2421.52,1681.03 L2422.83,1682.37 L2425.44,1683.77 L2426.77,1683.79 L2429.4,1685.16 L2429.35,1687.82 L2435.83,1694.59 L2437.15,1694.61 L2439.72,1698.67 L2442.4,1697.38 L2443.68,1700.06 L2445,1700.09 L2446.34,1698.8 L2447.67,1698.82 L2449.02,1697.51 L2449.04,1696.19 L2453.03,1696.27 L2453.05,1694.93 L2454.4,1693.63 L2466.21,1699.19 L2467.45,1703.19 L2466,1709.8 L2469.89,1713.88 L2475.16,1715.31 L2479.1,1716.7 L2481.67,1720.75 L2482.9,1724.04 L2488.03,1734.16 L2498.42,1745 L2511.51,1751.9 L2531.33,1754.96 L2570.71,1771.69 L2581.07,1783.86 L2588.94,1786.68 L2607.41,1789.72 L2616.83,1783.28 L2641.97,1783.8 L2663.09,1786.87 L2672.94,1759.19 L2680.66,1769.99 L2689.73,1779.48 L2697.55,1784.96 L2710.85,1782.58 L2724.19,1777.54 L2736.24,1771.16 L2737.53,1772.51 L2741.49,1773.93 L2746.82,1772.71 L2748.1,1774.07 L2749.42,1774.1 L2752.01,1776.82 L2751.98,1778.14 L2755.94,1779.54 L2762.5,1782.34 L2770.34,1786.51 L2783.3,1800.06 L2785.78,1808.09 L2785.75,1809.41 L2787.07,1809.43 L2789.69,1810.83 L2790.97,1812.18 L2792.31,1812.21 L2798.78,1818.98 L2823.45,1840.76 L2824.7,1844.79 L2826.01,1844.82 L2827.32,1846.16 L2829.85,1851.53 L2833.79,1852.94 L2836.46,1851.68 L2837.78,1851.71 L2845.72,1851.88 L2847.04,1851.91 L2849.66,1853.28 L2852.25,1856 L2857.43,1861.43 L2858.71,1862.78 L2858.66,1865.43 L2861.22,1869.46 L2866.28,1880.21 L2868.87,1882.92 L2872.75,1886.98 L2876.62,1891.07 L2883.19,1893.85 L2895.01,1898.11 L2893.79,1900.05 L2878.8,1918.24 L2870.59,1936.75 L2864.32,1943.59 L2855.63,1946.67 L2849.72,1946.62 L2842.47,1946.56 L2830.54,1942.72 L2820.42,1939.47 L2803.59,1938.03 L2798.07,1939.95 L2787.68,1949.15 L2771.63,1958.5 L2769.89,1959.51 L2767.31,1961.57 L2765.26,1964.07 L2762.73,1967.33 L2761.48,1970.67 L2760.64,1975.69 L2760.51,1981.16 L2762.54,1989.78 L2771.7,2008.23 L2774.75,2013.85 L2775.29,2016.51 L2775,2019.53 L2773.98,2023.16 L2769.74,2031.03 L2765.43,2036.52 L2763.89,2041.38 L2763.8,2041.66 L2764.11,2046.74 L2766.72,2055.81 L2766.6,2057.8 L2766.5,2059.57 L2765.23,2063.13 L2764.17,2064.62 L2762.49,2065.92 L2758.96,2067.72 L2748.75,2069.57 L2733.82,2074 L2725.63,2079.55 L2719.91,2086.29 L2719.59,2087.15 L2716.69,2095 L2716.98,2103.2 L2720.19,2112.12 L2721.93,2113.53 L2725.12,2117.33 L2731.07,2119.8 L2743.97,2124.52 L2746.66,2128 L2748.3,2132.57 L2747.88,2141.79 L2743.78,2159.26 L2738.68,2167.97 L2730.79,2175.8 L2721.58,2182.15 L2704.14,2192.12 L2698.88,2193.81 L2691.52,2195.29 L2680.65,2195.9 L2669.78,2195.49 L2650.29,2190.2 L2643.21,2189.83 L2641.61,2190.06 L2640.5,2190.93 L2639.83,2192.12 L2639.64,2193.33 L2639.86,2194.59 L2650.61,2210.58 L2652.88,2223.06 L2653,2239.52 L2651.24,2245.09 L2649.77,2248.96 L2643.75,2254.11 L2636.73,2256.91 L2626.72,2260.09 L2624.82,2260.72 L2622.95,2261.63 L2594.67,2282.39 L2572.36,2293.21 L2554.6,2298.65 L2539.18,2305.39 L2521.08,2315.72 L2516.58,2319.65 L2491.27,2345.19 L2487.16,2348.43 L2482.84,2351.5 L2477,2354.21 L2462.75,2359.99 L2454.89,2366.1 L2448.38,2373.81 L2445.14,2379.17 L2442.25,2382.91 L2431.97,2388.69 L2423.95,2390.94 L2406.44,2398.25 L2392.74,2404.13 L2368.09,2409.12 L2352.13,2418.19 L2317.86,2429.57 L2307.38,2432.92 L2300.59,2467.7 L2293.23,2485.85 L2293.41,2494.02 L2290.77,2505.31 L2285.41,2518.17 L2282.92,2522.17 L2272.98,2538.12 L2256.78,2552.45 L2248.89,2557.13 L2233.06,2563.54 L2226.14,2564.75 L2219.77,2564.68 L2213.68,2562.34 L2201.74,2557.74 L2194.93,2555.68 L2190.4,2555.82 L2187.87,2556.3 L2185.28,2557.47 L2180.69,2561.55 L2171.32,2571.17 L2161.09,2579.01 L2142.18,2597.53 L2137.74,2605.91 L2135.8,2609.92 L2134.28,2614.12 L2133.42,2619.66 L2133.11,2625.4 L2135.56,2644.2 L2135.52,2645.04 L2135.39,2645.9 L2135.14,2646.76 L2134.79,2647.6 L2113.06,2672 L2100.3,2682.81 L2085.44,2694.33 L2073.54,2700.46 L2070.6,2701.98 L2055.04,2705.38 L2039.1,2706.64 L2029.16,2709.87 L2017.61,2711.87 L2004.32,2711.81 L1996.51,2709.66 L1988.57,2705.82 L1978.71,2698.5 L1976.58,2691.41 L1977.87,2668.05 L1967.63,2657.7 L1969.09,2655.42 L1976.98,2655.91 L1978.39,2654.29 L1978.2,2647.7 L1979.5,2646.32 L1980.07,2643.47 L1975.57,2638.18 L1975.96,2636.58 L1978.89,2633.83 L1979.9,2629.7 L1977.06,2626.22 L1976.04,2622.5 L1936.12,2641.32 L1909.49,2642.64 L1873.86,2635.01 L1783.82,2520.46 L1782.16,2514.12 L1757.79,2481.81 L1792.29,2402.88 L1790.74,2374.49 L1795.3,2372.46 L1780.44,2337.66 L1771.79,2317.41 L1754.93,2285.12 L1705.99,2278.87 L1682.24,2270.73 L1694.16,2241.47 L1666.58,2236.83 L1652.38,2231.36 L1637.52,2220.37 L1634.99,2218.51 L1625.68,2220.89 L1620.07,2205.25 L1619.34,2203.2 L1626.98,2190.44 L1614.86,2178.87 L1613.9,2157.91 L1585.94,2145.23 L1575.65,2099.86 L1572.82,2060.99 L1492.69,2061.97 L1475.25,2066.49 L1453.36,2080.17 L1408.83,2087.77 L1402.36,2092.48 L1366.41,2103.17 L1346.66,2114.4 L1337.96,2119.34 L1336.26,2120.28 L1333.8,2120.96 L1324.73,2123.36 L1336.37,2135.7 L1337.39,2147.29 L1341.49,2158.02 L1342.09,2159.61 L1357.16,2185.55 L1392.42,2208.87 L1368.03,2222.89 L1355.67,2234.46 L1346.64,2250.19 L1320.22,2236.24 L1277.9,2219.27 L1262.4,2215.63 L1205.56,2192.23 L1188.81,2191.54 L1167.24,2170.25 L1127.75,2153.93 L1121.84,2141.33 L1109.78,2122.5 L1095.33,2107.97 L1102.14,2101.54 L1104.83,2087.66 L1122.89,2045.11 L1127.75,2033.35 L1114.53,2017.29 L1099.17,1988.85 L1091.1,1899.34 L1085.1,1896.72 L1091.64,1883.5 L1089.94,1874.67 L1082.97,1867.44 L1082.67,1852.32 L1076.53,1840.23 L1067.45,1832.64 L1058.67,1829.71 L1053.7,1830 L1047.65,1831.78 L1043.31,1831.6 L1041.18,1832.91 L1037.61,1833.16 L1032.34,1829.85 L1029.31,1829.15 L1029.14,1829.19 L1027,1829.68 L1025.58,1831.67 L1022.74,1831.9 L1021.7,1830.23 L1021.61,1826.32 L1020.42,1822.22 L1017.48,1820.13 L1014.16,1820.51 L1010.89,1823.08 L993.321,1853.1 L981.599,1856.77 L963.087,1858.72 L943.655,1866.5 L921.293,1872.94 L889.839,1888.38 L874.914,1897.97 L857.364,1889.81 L847.925,1883.65 L823.707,1873.72 L815.998,1867.91 L812.741,1859 L793.227,1850.28 L789.099,1858.25 L775.755,1948.03 L782.41,1980.12 L746.993,1994.51 L740.146,1998.68 L719.105,2013.84 L698.838,2067.4 L683.614,2075.03 L656.898,2108.83 L637.022,2092.77 L549.441,2031.29 L538.835,2031.65 L515.573,2014.33 L477.145,2017.47 L439.475,2040.81 L408.975,2047.76 L383.722,2064.78 L389.712,2137.07 L374.588,2136.54 L368.79,2139.78 L359.39,2129.32 L342.236,2119.69 L329.661,2116.41 L321.381,2118.44 L299.449,2127.53 L293.028,2120.37 L282.939,2108.94 L279.667,2105.47 L276.893,2102.62 L273.282,2098.38 L269.681,2092.86 L273.209,2076.79 L274.393,2070.68 L274.813,2060.99 L275.458,2058.94 L276.542,2054.67 L278.366,2045.69 L277.213,2038.53 L276.418,2030.21 L271.941,2023.53 L264.034,2010.95 L257.069,1995.54 L254.406,1990.76 L249.835,1987.06 L247.574,1984.51 L245.424,1982.63 L244.938,1980.43 L244.785,1977.59 L245.183,1973.66 L244.161,1965.94 L240.827,1964.77 L235.671,1961.47 L232.154,1959.61 L230.437,1958.61 L245.097,1934.7 L247.971,1927.14 L244.447,1924.04 L240.167,1922.35 L234.305,1921.96 L228.151,1922.61 L222.388,1921.79 L217.495,1918.55 L211.942,1916.18 L206.265,1914.64 L200.387,1912.66 L198.774,1911.93 L188.892,1905.34 L186.538,1903.49 L184.264,1901.24 L181.764,1899.11 L177.315,1895.48 L174.619,1891.65 L172.504,1889.69 L171.924,1888.91 L170.981,1885.29 L169.229,1882.13 L167.632,1879.83 L165.361,1877.6 L161,1873.75 L160.424,1870.41 L161.377,1865.04 L162.294,1861.61 L162.049,1858.14 L160.552,1852.88 L152.637,1834.1 L141.887,1814.67 L135.787,1806.76 L132.219,1801.46 L128.256,1793.58 L123.601,1781.29 L136.622,1771.37 L142.483,1766.35 L146.409,1762.61 L146.599,1762.35 L142.44,1758.33 L138.335,1756.23 L133.429,1753.38 L132.887,1752.99 L132.001,1751.89 L131.531,1750.03 L131.718,1749.09 L142.075,1729.97 L145.591,1730.3 L146.348,1730.7 L148.103,1732.04 L150.233,1733.37 L152.316,1733.84 L154.174,1721.75 L154.53,1717.23 L154.675,1716.38 L154.91,1715.72 L155.554,1714.2 L153.586,1713.1 L159.502,1697.56 L155.828,1695.03 L145.893,1685.54 L142.431,1682.5 L140.025,1681 L134.647,1675.76 L122.626,1664.78 L117.538,1660.27 L114.689,1657.43 L110.805,1652.44 L107.071,1648.08 L104.35,1643.64 L98.6228,1635.49 L96.0575,1633.07 L94.8051,1632.13 L85.2785,1625.51 L79.2626,1620.62 L77.4403,1618.91 L75.4731,1617.31 L90.7116,1601.16" vector-effect="none" fill-rule="evenodd"/>
  </g>
  <g stroke-linejoin="bevel" stroke-width="1" font-size="34.5833" fill="none" stroke-linecap="square" stroke="#000000" font-weight="400" font-style="normal" stroke-opacity="1" transform="matrix(0.999744,0,0,0.999744,0,0)" font-family="MS Shell Dlg 2"/>
  <g stroke-linejoin="bevel" stroke-width="1" font-size="34.5833" fill="none" stroke-linecap="square" stroke="#000000" font-weight="400" font-style="normal" stroke-opacity="1" transform="matrix(11.808,0,0,11.808,0,0)" font-family="MS Shell Dlg 2"/>
  <g stroke-linejoin="bevel" stroke-width="1" font-size="34.5833" fill="none" stroke-linecap="square" stroke="#000000" font-weight="400" font-style="normal" stroke-opacity="1" transform="matrix(11.808,0,0,11.808,0,0)" font-family="MS Shell Dlg 2"/>
  <g stroke-linejoin="bevel" stroke-width="1" font-size="34.5833" fill="none" stroke-linecap="square" stroke="#000000" font-weight="400" font-style="normal" stroke-opacity="1" transform="matrix(11.808,0,0,11.808,0,0)" font-family="MS Shell Dlg 2"/>
  <g stroke-linejoin="bevel" stroke-width="1" font-size="34.5833" fill="none" stroke-linecap="square" stroke="#000000" font-weight="400" font-style="normal" stroke-opacity="1" transform="matrix(1,0,0,1,0,0)" font-family="MS Shell Dlg 2"/>
  <g stroke-linejoin="bevel" stroke-width="1" font-size="34.5833" fill="none" stroke-linecap="square" stroke="#000000" font-weight="400" font-style="normal" stroke-opacity="1" transform="matrix(11.808,0,0,11.808,0,0)" font-family="MS Shell Dlg 2"/>
  <g stroke-linejoin="bevel" stroke-width="1" font-size="34.5833" fill="none" stroke-linecap="square" stroke="#000000" font-weight="400" font-style="normal" stroke-opacity="1" transform="matrix(11.808,0,0,11.808,0,0)" font-family="MS Shell Dlg 2"/>
  <g stroke-linejoin="bevel" stroke-width="1" font-size="34.5833" fill="none" stroke-linecap="square" stroke="#000000" font-weight="400" font-style="normal" stroke-opacity="1" transform="matrix(11.808,0,0,11.808,0,0)" font-family="MS Shell Dlg 2"/>
  <g stroke-linejoin="bevel" stroke-width="1" font-size="34.5833" fill="none" stroke-linecap="square" stroke="#000000" font-weight="400" font-style="normal" stroke-opacity="1" transform="matrix(11.808,0,0,11.808,0,0)" font-family="MS Shell Dlg 2"/>
  <g stroke-linejoin="bevel" stroke-width="1" font-size="34.5833" fill="none" stroke-linecap="square" stroke="#000000" font-weight="400" font-style="normal" stroke-opacity="1" transform="matrix(1,0,0,1,0,0)" font-family="MS Shell Dlg 2"/>
 </g>
</svg>
