<?xml version='1.0' encoding='UTF-8' standalone='no'?>
<svg xmlns:xlink="http://www.w3.org/1999/xlink" height="249.936mm" width="249.936mm" viewBox="0 0 2952 2952" version="1.2" baseProfile="tiny" xmlns="http://www.w3.org/2000/svg">
 <title>Qt SVG Document</title>
 <desc>Generated with Qt</desc>
 <defs/>
 <g stroke-linejoin="bevel" stroke-width="1" fill="none" stroke-linecap="square" stroke="black" fill-rule="evenodd">
  <g stroke-linejoin="bevel" stroke-width="1" font-size="34.5833" fill="none" stroke-linecap="square" stroke="#000000" font-weight="400" font-style="normal" stroke-opacity="1" transform="matrix(1,0,0,1,0,0)" font-family="MS Shell Dlg 2"/>
  <g stroke-linejoin="bevel" stroke-width="1" font-size="34.5833" fill="none" stroke-linecap="square" stroke="#000000" font-weight="400" font-style="normal" stroke-opacity="1" transform="matrix(1,0,0,1,0,0)" font-family="MS Shell Dlg 2"/>
  <g stroke-linejoin="bevel" stroke-width="1" font-size="34.5833" fill="none" stroke-linecap="square" stroke="#000000" font-weight="400" font-style="normal" stroke-opacity="1" transform="matrix(11.808,0,0,11.808,0,0)" font-family="MS Shell Dlg 2"/>
  <g stroke-linejoin="bevel" stroke-width="1" font-size="34.5833" fill="none" stroke-linecap="square" stroke="#000000" font-weight="400" font-style="normal" stroke-opacity="1" transform="matrix(0.999744,0,0,0.999744,0,0)" font-family="MS Shell Dlg 2"/>
  <g fill-opacity="0" font-size="34.5833" fill="#ffffff" stroke="none" font-weight="400" font-style="normal" transform="matrix(0.999744,0,0,0.999744,0,0)" font-family="MS Shell Dlg 2">
   <path d="M-2,-2 L2955,-2 L2955,2955 L-2,2955 L-2,-2" vector-effect="none" fill-rule="evenodd"/>
  </g>
  <g stroke-linejoin="bevel" stroke-width="1" font-size="34.5833" fill="none" stroke-linecap="square" stroke="#000000" font-weight="400" font-style="normal" stroke-opacity="1" transform="matrix(0.999744,0,0,0.999744,0,0)" font-family="MS Shell Dlg 2"/>
  <g stroke-linejoin="bevel" stroke-width="1" font-size="34.5833" fill="none" stroke-linecap="square" stroke="#000000" font-weight="400" font-style="normal" stroke-opacity="1" transform="matrix(11.808,0,0,11.808,0,0)" font-family="MS Shell Dlg 2"/>
  <g stroke-linejoin="bevel" stroke-width="1" font-size="34.5833" fill="none" stroke-linecap="square" stroke="#000000" font-weight="400" font-style="normal" stroke-opacity="1" transform="matrix(11.808,0,0,11.808,0,0)" font-family="MS Shell Dlg 2"/>
  <g stroke-linejoin="bevel" stroke-width="1" font-size="34.5833" fill="none" stroke-linecap="square" stroke="#000000" font-weight="400" font-style="normal" stroke-opacity="1" transform="matrix(11.808,0,0,11.808,0,0)" font-family="MS Shell Dlg 2"/>
  <g stroke-linejoin="bevel" stroke-width="1" font-size="34.5833" fill="none" stroke-linecap="square" stroke="#000000" font-weight="400" font-style="normal" stroke-opacity="1" transform="matrix(11.808,0,0,11.808,0,0)" font-family="MS Shell Dlg 2"/>
  <g stroke-linejoin="bevel" stroke-width="1" font-size="34.5833" fill="none" stroke-linecap="square" stroke="#000000" font-weight="400" font-style="normal" stroke-opacity="1" transform="matrix(11.808,0,0,11.808,0,0)" font-family="MS Shell Dlg 2"/>
  <g fill-opacity="0" font-size="34.5833" fill="#ffffff" stroke="none" font-weight="400" font-style="normal" transform="matrix(11.808,0,0,11.808,0,0)" font-family="MS Shell Dlg 2">
   <path d="M0,0 L250,0 L250,250 L0,250 L0,0" vector-effect="none" fill-rule="evenodd"/>
  </g>
  <g stroke-linejoin="bevel" stroke-width="1" font-size="34.5833" fill="none" stroke-linecap="square" stroke="#000000" font-weight="400" font-style="normal" stroke-opacity="1" transform="matrix(11.808,0,0,11.808,0,0)" font-family="MS Shell Dlg 2"/>
  <g stroke-linejoin="bevel" stroke-width="1" font-size="34.5833" fill="none" stroke-linecap="square" stroke="#000000" font-weight="400" font-style="normal" stroke-opacity="1" transform="matrix(11.808,0,0,11.808,0,0)" font-family="MS Shell Dlg 2"/>
  <g fill-opacity="0" font-size="34.5833" fill="#000000" stroke="none" font-weight="400" font-style="normal" transform="matrix(0.999744,0,0,0.999744,0,0)" font-family="MS Shell Dlg 2">
   <rect y="0" height="2953" x="0" width="2953"/>
  </g>
  <g stroke-linejoin="bevel" stroke-width="1" font-size="34.5833" fill="none" stroke-linecap="square" stroke="#000000" font-weight="400" font-style="normal" stroke-opacity="1" transform="matrix(0.999744,0,0,0.999744,0,0)" font-family="MS Shell Dlg 2"/>
  <g stroke-linejoin="bevel" fill-opacity="1" stroke-width="3.07087" font-size="34.5833" fill="#c5c5c5" stroke-linecap="square" stroke="#5c5c5c" font-weight="400" font-style="normal" stroke-opacity="1" transform="matrix(0.999744,0,0,0.999744,0,0)" font-family="MS Shell Dlg 2">
   <path d="M2710.58,1090.33 L2710.72,1091.22 L2711.61,1096.64 L2711.62,1096.69 L2709.41,1105.47 L2709.42,1105.52 L2710.53,1111.46 L2710.6,1111.82 L2710.07,1112.43 L2708.84,1113.84 L2708.15,1114.63 L2703.04,1116.5 L2702.25,1117.74 L2700.35,1120.74 L2697.3,1125.54 L2696.44,1131.16 L2691.94,1139.4 L2689.53,1141.15 L2688.04,1142.22 L2686.24,1143.53 L2685.15,1146.49 L2684.49,1148.3 L2684.17,1149.17 L2680.98,1150.76 L2676.24,1150.47 L2672.76,1153.57 L2672.18,1153.74 L2670.32,1154.26 L2669.25,1154.57 L2666.41,1156.38 L2664.15,1160 L2664.05,1160.52 L2663.9,1161.34 L2662.2,1170.57 L2661.89,1171.27 L2661.27,1172.65 L2658.23,1179.46 L2655.86,1182.93 L2654.06,1185.56 L2652.38,1188.02 L2646.04,1195.46 L2642.68,1196.65 L2640.4,1197.46 L2638.05,1193.2 L2638.03,1192.94 L2637.92,1191.15 L2636.07,1190.36 L2635.9,1190.28 L2633.38,1187.64 L2631.67,1188.07 L2625.62,1186.97 L2619.61,1184.41 L2611.74,1188.54 L2610.74,1188.34 L2610.52,1189.19 L2609.52,1193.07 L2609.34,1193.77 L2608.88,1194.41 L2607.54,1196.29 L2606.8,1197.31 L2603.76,1199.68 L2601.16,1200.8 L2598.84,1201.8 L2598.33,1202.02 L2598.46,1203.4 L2596.51,1204.8 L2590.45,1206.95 L2580.98,1214.99 L2580.89,1215.15 L2579.97,1216.98 L2579.52,1217.87 L2575.98,1221.56 L2574.79,1225.7 L2574.75,1225.84 L2588.46,1236.68 L2598.26,1244.41 L2605.2,1249.9 L2605.33,1250 L2587.37,1274.18 L2558.13,1245.1 L2555.48,1248.3 L2555.36,1248.44 L2554.5,1251.2 L2554.09,1252.5 L2548.08,1262.8 L2547.66,1263.22 L2546.02,1264.88 L2545.94,1265.93 L2545.93,1266.11 L2540.63,1273.7 L2532.85,1281.85 L2531.59,1284.04 L2529.9,1286.97 L2529.45,1287.76 L2524.45,1292.71 L2523.99,1293.47 L2522.44,1295.99 L2522.01,1296.68 L2519.39,1298.57 L2517.11,1304.29 L2515.23,1308.41 L2514.21,1310.63 L2509.52,1320.91 L2505.02,1338.75 L2498.46,1348.6 L2497.5,1352.39 L2497.5,1352.52 L2497.6,1359.6 L2497.61,1360.16 L2495.11,1377.31 L2494.78,1378.28 L2493.51,1382.01 L2488.24,1397.44 L2488.4,1399.28 L2489.19,1408.3 L2489.28,1409.33 L2488.87,1417.37 L2488.86,1417.52 L2489.49,1418.42 L2494.4,1425.42 L2498.59,1431.4 L2498.61,1431.42 L2499.93,1436.91 L2499.96,1437.02 L2500,1437.19 L2499.37,1439.98 L2499.32,1440.18 L2500.67,1445.46 L2502.04,1447.07 L2513.39,1474.96 L2535.03,1484.42 L2535.14,1484.47 L2527.54,1502.41 L2522.61,1507.68 L2522.6,1507.69 L2522.63,1507.73 L2523.85,1510.22 L2525.61,1513.8 L2526.17,1517.8 L2526.37,1519.27 L2526.4,1519.45 L2531.28,1525.63 L2539.49,1547.74 L2539.56,1547.95 L2533.55,1550.98 L2533.48,1551.02 L2536.9,1556.56 L2537.01,1556.75 L2529.52,1560.53 L2529.44,1560.57 L2536.62,1572.17 L2539.16,1578.17 L2539.18,1578.23 L2539.99,1585.69 L2539.98,1585.69 L2526.04,1620.73 L2521.66,1631.46 L2521.11,1633.4 L2520.53,1635.44 L2517.62,1645.63 L2517.48,1646.13 L2517.09,1646.87 L2515.72,1649.49 L2515.62,1649.68 L2510.72,1654.93 L2509.09,1657.71 L2508.7,1658.38 L2504.66,1667.02 L2503.32,1669.89 L2500.75,1677.79 L2500.36,1678.37 L2499.38,1679.81 L2498.68,1680.86 L2497.06,1687.05 L2490.73,1684.25 L2490.75,1684.04 L2490.79,1683.47 L2490.73,1683.47 L2476.45,1683.88 L2472.99,1683.02 L2471.46,1682.09 L2469.86,1681.12 L2469.29,1680.78 L2469.21,1680.27 L2468.44,1675.62 L2468.32,1675.48 L2466.25,1673.06 L2464.22,1672.72 L2460.56,1672.1 L2457.87,1671.64 L2455.49,1673.23 L2454.19,1672.78 L2452.5,1672.19 L2450.99,1671.67 L2448.36,1675.46 L2436.18,1680.43 L2430.42,1680.3 L2430.4,1680.06 L2430.02,1674.68 L2417.8,1673.76 L2404.83,1671.91 L2405.05,1675.26 L2405.06,1675.44 L2404.23,1676.83 L2400.88,1680.17 L2397.54,1683.5 L2395.03,1686.01 L2392.4,1687.76 L2389.45,1689.73 L2388.94,1690.07 L2386.59,1690.09 L2385.03,1688.31 L2380.62,1688.94 L2375.57,1688.56 L2363.33,1694.39 L2363.31,1694.4 L2363,1698.88 L2364.9,1703.43 L2365.45,1708.66 L2365.46,1708.84 L2361.8,1712.85 L2358.14,1725.05 L2356.34,1728.6 L2348.07,1738.9 L2339.16,1746.73 L2336.26,1756.42 L2336.17,1756.71 L2336.07,1759.45 L2335.57,1771.98 L2334.08,1773.69 L2332.49,1779.23 L2330.84,1781.35 L2327.16,1789.64 L2321.82,1795.36 L2317.83,1803.45 L2312.66,1809.84 L2307.77,1813.23 L2307.69,1813.29 L2306.77,1819.31 L2306.65,1820.12 L2302.96,1827.71 L2301.88,1829.93 L2301.4,1830.91 L2297.23,1835.08 L2292.84,1841.61 L2291.28,1842.84 L2290.07,1843.78 L2286.14,1846.87 L2284.68,1850.88 L2280.88,1873.61 L2273.03,1900.04 L2272.05,1903.34 L2271.64,1904.7 L2267.34,1908.25 L2265.58,1914.17 L2265.52,1914.36 L2267.87,1918.12 L2267.95,1918.25 L2267.32,1919.24 L2260.78,1920.69 L2254.54,1924.5 L2253.35,1929.53 L2254.02,1932.52 L2254.14,1933.01 L2255,1934.18 L2256.95,1936.84 L2259.31,1940.05 L2266.62,1946.83 L2271.54,1949.93 L2271.66,1950.01 L2268.35,1956.99 L2268.29,1957.12 L2270.99,1965.37 L2271.04,1965.53 L2270.33,1966.73 L2268.62,1969.6 L2267.95,1970.74 L2259.15,1980.64 L2256.73,1985.06 L2250.41,1984.75 L2247.02,1987.4 L2242.17,1988.75 L2235.47,1997.38 L2233.63,1999.75 L2233.24,2000.44 L2229.91,2006.37 L2229.75,2006.65 L2228.5,2014.95 L2228.15,2017.27 L2225.43,2022.35 L2220.26,2028.17 L2219.65,2029.17 L2216.84,2033.82 L2216.72,2034.01 L2216.62,2034.18 L2216.6,2034.25 L2216.41,2035.29 L2216.27,2036.01 L2217.25,2038.47 L2217.27,2038.52 L2217.11,2039.04 L2216.58,2040.67 L2216.27,2041.62 L2205.36,2053.92 L2205.14,2054.17 L2201.04,2077.25 L2200.99,2077.54 L2199.64,2078.2 L2199.51,2078.26 L2197.38,2089.75 L2196.42,2094.88 L2196.36,2095.21 L2199.35,2100.15 L2204.91,2101.56 L2206.16,2101.88 L2208.62,2102.5 L2209.79,2104.38 L2216.84,2104.98 L2218.02,2118.74 L2219.08,2131.17 L2218.87,2137.37 L2218.79,2139.69 L2220.11,2149.55 L2220.14,2149.75 L2219.85,2153.48 L2216.95,2191 L2216.73,2193.79 L2213.67,2193.42 L2212.64,2194.14 L2212.58,2194.19 L2212.2,2194.45 L2207.53,2197.71 L2197.61,2200.71 L2181.58,2220.12 L2176.35,2219.49 L2167.55,2215.61 L2167.13,2217.02 L2164.43,2226.08 L2164.29,2226.55 L2158.3,2228.69 L2156.49,2230.48 L2151.65,2229.44 L2147,2232.89 L2142.98,2231.88 L2137.01,2244.69 L2134.16,2250.82 L2134.05,2251.06 L2132.87,2250.45 L2116.93,2308.6 L2111.87,2327.03 L2111.79,2327.29 L2116.02,2329.36 L2116.33,2329.52 L2113.18,2336.67 L2111.72,2344.86 L2108.35,2352.16 L2105,2351.52 L2103.27,2352.7 L2098.97,2356.69 L2096.17,2360.86 L2095.05,2365.76 L2095.02,2365.88 L2095.09,2366.19 L2096.56,2372.85 L2096.73,2373.61 L2096.77,2373.8 L2095.98,2375.05 L2093.54,2378.91 L2091.47,2382.19 L2091.34,2382.39 L2096.4,2384.95 L2096.59,2385.04 L2091.49,2391.98 L2091.34,2392.18 L2097.73,2396.36 L2097.9,2396.47 L2095.16,2401.57 L2095.1,2401.68 L2096.23,2404.77 L2097.85,2405.7 L2097.51,2407.38 L2097.11,2409.43 L2097.03,2409.85 L2094.31,2410.86 L2080.81,2407.12 L2073.16,2405.5 L2067.63,2404.33 L2060.67,2402.86 L2057.95,2403.05 L2055.95,2404.41 L2047.92,2405.43 L2028.01,2411.67 L2023.03,2411.69 L2022.17,2413.25 L1976.46,2430.78 L1975.87,2432.48 L1972.19,2443.08 L1967.37,2445.79 L1966.74,2448.76 L1964.96,2449.96 L1964.53,2450.56 L1963.96,2451.35 L1961.77,2454.38 L1961.39,2458.61 L1952.26,2473.29 L1951.87,2478.91 L1951.85,2479.26 L1954.29,2481.67 L1958.6,2493.77 L1958.7,2494.04 L1944,2503.25 L1941.32,2501.56 L1938.6,2502.93 L1938.44,2503 L1940.22,2506.81 L1940.35,2507.1 L1931.39,2511.41 L1931.25,2511.48 L1937.45,2524.43 L1937.58,2524.72 L1921.14,2532.61 L1920.97,2532.69 L1924.08,2538.94 L1924.21,2539.22 L1908.21,2545.63 L1908.09,2545.68 L1909.96,2550.77 L1910.06,2551.06 L1901.24,2554.4 L1901.17,2554.42 L1900.84,2554.84 L1898.84,2557.37 L1899.05,2559.44 L1899.1,2559.93 L1899.11,2560.07 L1897.26,2572.01 L1893.23,2574.61 L1888.2,2572.77 L1886.16,2574.8 L1883.84,2574.34 L1883.4,2574.25 L1882.01,2573.97 L1880.94,2574.93 L1874.6,2575.33 L1873.36,2576.61 L1870.35,2576.08 L1864.01,2578.57 L1860.41,2582.87 L1855.91,2583.22 L1851.65,2585.09 L1849.04,2585.03 L1848.76,2585.02 L1838.62,2584.79 L1835.54,2586.11 L1835.44,2589.05 L1835.41,2589.98 L1836.03,2596.51 L1836.85,2596.59 L1837.96,2603.86 L1841.45,2609.97 L1843.28,2611.44 L1845.16,2615.13 L1850.17,2624.98 L1854.53,2633.55 L1852.86,2636.22 L1851.71,2637.09 L1844.3,2641.51 L1841.68,2643.17 L1838.11,2644.35 L1830.98,2645.14 L1825.89,2645.98 L1823.26,2646.44 L1822.16,2635.69 L1819.43,2626.43 L1810.21,2629.18 L1806.02,2633.11 L1798.79,2636.95 L1796.69,2638.92 L1796.53,2644 L1794.33,2649.01 L1795.32,2650.07 L1798.35,2650.17 L1798.32,2651.18 L1795.15,2655.15 L1793.06,2657.12 L1793.02,2658.13 L1790.99,2658.06 L1790.02,2657.02 L1788.03,2655.92 L1781.91,2656.75 L1783.8,2660.87 L1782.66,2664.91 L1788.63,2668.15 L1788.6,2669.18 L1789.59,2670.22 L1790.53,2672.29 L1789.49,2673.28 L1785.43,2673.15 L1785.4,2674.16 L1784.34,2675.15 L1784.27,2677.17 L1781.24,2677.07 L1781.17,2679.1 L1780.13,2680.09 L1767.83,2683.75 L1758.41,2692.59 L1753.15,2698.53 L1745.02,2699.29 L1738.87,2701.11 L1730.78,2700.85 L1724.73,2699.64 L1701.49,2696.85 L1695.6,2690.54 L1693.4,2689.49 L1690.67,2686.33 L1688.55,2689.3 L1688.48,2691.34 L1687.48,2691.31 L1687.44,2692.32 L1686.32,2695.34 L1682.73,2712.51 L1669.2,2723.27 L1669.17,2724.28 L1662.23,2751.52 L1679.05,2795.79 L1669.88,2797.53 L1668.82,2798.52 L1667.82,2798.49 L1664.74,2799.4 L1664.7,2800.42 L1662.69,2800.36 L1660.63,2801.3 L1654.52,2802.11 L1653.52,2802.08 L1652.46,2803.07 L1651.49,2802.02 L1646.51,2798.81 L1645.51,2798.78 L1643.51,2797.71 L1643.38,2801.76 L1641.36,2801.69 L1636.46,2796.45 L1634.37,2798.42 L1634.3,2800.46 L1632.21,2802.42 L1632.18,2803.43 L1629.05,2806.39 L1628.99,2808.41 L1627.85,2812.44 L1627.76,2815.5 L1628.76,2815.53 L1628.6,2820.61 L1626.51,2822.58 L1622.46,2822.45 L1618.35,2824.35 L1617.37,2823.29 L1617.4,2822.29 L1618.45,2821.29 L1617.46,2820.25 L1611.4,2820.06 L1608.54,2813.86 L1608.7,2808.79 L1603.65,2808.63 L1603.61,2809.64 L1601.52,2811.61 L1600.45,2813.61 L1603.42,2815.74 L1603.36,2817.77 L1602.32,2818.75 L1599.3,2817.64 L1598.27,2818.62 L1597.25,2818.58 L1597.15,2821.64 L1596.11,2822.62 L1596.08,2823.64 L1595.08,2823.61 L1592.06,2822.49 L1591.09,2821.45 L1591.25,2816.36 L1590.26,2815.32 L1588.23,2815.25 L1586.16,2817.22 L1572.71,2825.95 L1571.65,2826.92 L1569.64,2826.86 L1567.71,2823.76 L1566.72,2822.71 L1565.69,2823.69 L1563.53,2827.69 L1563.5,2828.7 L1562.48,2828.67 L1559.64,2822.49 L1558.63,2822.46 L1558.6,2823.47 L1556.48,2826.45 L1554.39,2828.41 L1554.23,2833.49 L1553.2,2834.48 L1551.17,2834.42 L1547.05,2836.32 L1546.99,2838.36 L1544.9,2840.31 L1543.8,2843.34 L1544.77,2844.37 L1539.56,2849.29 L1536.5,2850.22 L1534.47,2850.16 L1532.51,2848.06 L1532.6,2845.02 L1531.61,2843.96 L1530.58,2844.96 L1528.46,2847.93 L1527.39,2849.93 L1526.37,2849.9 L1522.38,2847.74 L1513.83,2829.18 L1461.74,2810.3 L1425.19,2845.75 L1428.89,2824.53 L1440.07,2822.83 L1438.29,2814.66 L1439.31,2814.69 L1437.5,2807.52 L1459.9,2804.13 L1453.4,2784.62 L1452.79,2771.38 L1428.31,2776.72 L1420.66,2761.25 L1417.63,2761.16 L1414.69,2758.02 L1409.88,2756.42 L1406.61,2756.75 L1404.58,2756.69 L1403.21,2756.37 L1401.66,2756.35 L1397.52,2755.46 L1395.5,2755.4 L1391.38,2757.31 L1388.1,2757.37 L1386.32,2757.16 L1373.28,2755.05 L1371.2,2754.67 L1368.21,2752.54 L1365.18,2752.45 L1363.12,2753.4 L1344.92,2751.84 L1340.58,2751.15 L1331.2,2750.3 L1325.26,2749.91 L1302.48,2747.52 L1301.54,2747.61 L1300.48,2747.74 L1300.48,2746.45 L1300.51,2745.44 L1277.52,2734.58 L1269.49,2731.3 L1237.46,2717.13 L1185.34,2696.3 L1154.29,2683.19 L1150.23,2683.07 L1144.2,2680.88 L1141.22,2678.76 L1135.22,2675.52 L1127.21,2672.25 L1126.19,2672.22 L1123.18,2671.12 L1118.2,2667.92 L1116.18,2667.86 L1115.17,2667.83 L1114.12,2668.83 L1113.05,2670.84 L1111,2671.79 L1107.88,2674.75 L1106.83,2675.74 L1104.8,2675.69 L1104.02,2667.52 L1097.18,2658.17 L1088.32,2648.76 L1085.41,2643.59 L1078.62,2632.2 L1079.87,2624.11 L1082.24,2611.95 L1089.65,2600.97 L1091.88,2593.91 L1091,2588.78 L1089.37,2574.48 L1085.67,2562.17 L1082.7,2559.03 L1080.78,2554.9 L1077.91,2548.71 L1076.14,2539.49 L1076.25,2535.42 L1076.28,2534.41 L1077.33,2533.43 L1093.85,2523.69 L1179.49,2475.2 L1192.04,2462.31 L1192.25,2455.19 L1192.39,2450.1 L1192.51,2446.02 L1191.65,2440.9 L1189.94,2429.64 L1187.16,2420.39 L1185.24,2416.27 L1187.34,2414.29 L1194.56,2410.41 L1207,2401.6 L1210.1,2399.65 L1214.22,2397.73 L1210.33,2391.49 L1208.41,2388.38 L1201.46,2382.08 L1200.51,2380.01 L1202.57,2379.04 L1202.83,2369.87 L1201.9,2366.79 L1202.07,2360.67 L1203.21,2356.64 L1202.25,2354.57 L1199.38,2348.36 L1195.35,2347.23 L1194.37,2346.17 L1192.33,2346.11 L1189.38,2342.98 L1202.08,2290.3 L1189.64,2298.09 L1150.95,2300.05 L1150.93,2301.07 L1142.79,2300.83 L1129.61,2299.45 L1117.39,2300.11 L1096.43,2286.25 L1092.42,2284.11 L1087.28,2286 L1084.18,2287.95 L1081.07,2289.91 L1074.92,2291.78 L1073.9,2291.75 L1072.89,2291.72 L1051.18,2267.65 L1050.17,2267.62 L1048.19,2265.52 L1043.25,2260.29 L1044.26,2260.32 L1038.36,2253.01 L1037.35,2252.98 L1036.37,2251.93 L1020.16,2249.43 L1019.16,2248.39 L961.476,2237.62 L915.894,2230.26 L915.866,2231.29 L882.463,2225.3 L875.456,2221.02 L861.442,2212.48 L848.515,2200.9 L840.532,2194.58 L777.877,2138.82 L764.753,2134.41 L773.868,2175.47 L748.209,2184 L695.441,2097.91 L690.536,2090.63 L680.299,2092.42 L671.626,2072.78 L659.392,2073.5 L639.623,2072.36 L639.944,2072.24 L640.227,2072.08 L640.551,2071.85 L640.833,2071.62 L642.981,2069.2 L644.946,2067.26 L651.305,2060.63 L657.652,2054.59 L674.306,2037.45 L684.59,2027.23 L684.754,2027.01 L684.817,2026.9 L684.875,2026.78 L684.924,2026.64 L684.955,2026.52 L685.014,2026.23 L686.713,2006.77 L688.699,1986.65 L689.604,1977.49 L692.554,1942.04 L696.47,1897.43 L697.313,1887.07 L700.338,1850.9 L703.142,1817.69 L709.672,1740.18 L709.694,1739.28 L709.582,1738.46 L709.296,1737.31 L694.658,1693.68 L694.455,1692.86 L694.402,1692.31 L694.395,1692.23 L689.693,1678.35 L661.094,1538.37 L639.498,1423.12 L650.711,1393.38 L668.443,1377.39 L650.522,1364.75 L642.082,1363.86 L639.809,1357.21 L641.992,1344.52 L635.643,1336.98 L633.064,1328.25 L636.437,1319.92 L630.287,1312.18 L628.104,1305.44 L623.456,1299.66 L639.124,1286.25 L647.629,1246.02 L647.196,1241.76 L646.133,1231.28 L644.782,1217.97 L644.028,1210.54 L643.768,1207.97 L643.682,1205.49 L643.997,1171.33 L636.341,1162.44 L628.892,1155.13 L628.208,1154.28 L624.597,1149.65 L621.715,1144.74 L615.423,1134.31 L613.506,1131.47 L612.334,1129.58 L611.621,1128.63 L610.331,1126.71 L606.853,1121.44 L602.033,1120.15 L592.577,1115.24 L588.553,1112.9 L581.878,1109.17 L574.345,1103.49 L567.447,1100.06 L564.399,1099.1 L557.171,1094.9 L554.995,1092.98 L548.169,1097.83 L545.351,1100 L542.67,1101.83 L539.817,1103.54 L537.849,1104.63 L533.818,1106.47 L525.416,1110.78 L524.527,1111.31 L518.113,1114.38 L514.51,1115.76 L500.708,1121.59 L474.207,1127.1 L463.951,1130.3 L450.87,1129.87 L440.806,1130.96 L411.008,1117.95 L389.993,1095.86 L389.876,1095.66 L379.089,1096.3 L366.916,1091.28 L357.38,1063.96 L350.951,1052.59 L338.702,1012.24 L335.304,991.225 L335.208,988.506 L335.291,986.662 L335.698,986.013 L336.064,985.584 L337.266,984.804 L337.529,984.451 L337.702,983.249 L337.612,982.655 L337.278,981.733 L336.838,980.698 L336.472,980.082 L334.513,977.581 L333.443,975.959 L333.175,975.085 L332.735,974.069 L332.139,972.183 L332.032,971.633 L332.107,971.208 L332.535,970.654 L332.874,970.422 L333.177,970.373 L333.592,970.476 L334.12,970.52 L334.455,970.439 L334.884,970.192 L336.316,963.087 L337.205,951.968 L340.396,928.326 L340.714,922.896 L342.489,924.928 L345.315,927.919 L346.489,928.817 L349.266,929.598 L350.558,929.162 L351.539,928.679 L352.348,928.085 L353.177,927.297 L353.771,925.812 L354.489,921.604 L355.215,917.936 L355.636,916.734 L356.396,914.026 L357.888,913.611 L358.662,915.898 L360.458,919.102 L362.656,921.925 L368.01,927.025 L372.407,928.96 L377.282,929.087 L382.04,928.256 L386.012,924.694 L387.388,926.061 L387.837,926.25 L388.735,925.988 L389.146,926.302 L389.336,926.634 L389.26,926.934 L388.427,928.848 L388.286,929.57 L389.098,930.503 L388.949,931.48 L388.8,931.946 L388.68,932.741 L388.68,933.864 L388.869,935.042 L388.759,935.798 L388.652,936.157 L388.635,937.442 L388.275,938.465 L388.016,938.668 L387.629,939.359 L387.281,939.611 L387.094,939.919 L387.118,940.136 L387.07,940.748 L387.325,941.073 L387.857,941.487 L388.237,941.601 L388.932,942.009 L389.291,942.544 L389.319,944.675 L389.212,944.948 L388.818,945.214 L388.797,945.397 L388.918,946.9 L389.294,947.432 L390.538,948.116 L391.381,948.91 L391.529,949.18 L391.509,949.487 L392.227,950.579 L392.859,950.862 L393.281,950.962 L393.64,951.235 L393.999,952.337 L394.047,952.931 L394.234,953.549 L394.949,953.674 L395.609,953.964 L395.889,955.128 L396.123,955.684 L396.745,956.213 L396.983,957.059 L397.633,958.216 L398.048,958.649 L399.415,959.636 L400.265,960.126 L401.965,961.439 L403.319,962.738 L406.725,964.03 L413.239,966.047 L417.302,966.904 L419.602,967.083 L422.835,966.869 L427.084,966.233 L429.17,965.439 L430.801,964.347 L432.48,962.075 L434.818,958.14 L435.726,950.834 L434.588,948.131 L432.03,943.888 L428.839,941.591 L423.274,938.637 L414.137,935.031 L405.616,931.038 L401.859,927.988 L398.774,924.448 L399.124,923.068 L393.946,917.66 L392.617,917.054 L392.219,917.104 L390.042,916.034 L390.557,911.79 L389.416,906.137 L386.632,901.096 L384.963,896.969 L383.974,891.052 L384.434,878.81 L386.41,877.944 L389.525,876.976 L392.598,877.048 L394.653,877.096 L426.331,884.022 L429.381,885.116 L430.4,885.14 L432.478,884.166 L433.465,886.252 L438.642,884.311 L443.697,887.515 L446.722,889.649 L452.861,890.833 L453.88,890.857 L459.025,890.979 L461.063,891.027 L460.092,888.942 L463.19,887.976 L468.408,885.015 L470.494,883.003 L472.597,880.991 L473.682,878.954 L475.809,875.92 L474.871,871.773 L473.901,869.688 L472.938,866.579 L469.888,865.484 L467.834,865.435 L463.724,865.338 L464.736,866.384 L460.577,868.348 L459.558,868.324 L456.444,869.273 L453.346,870.239 L452.31,870.215 L449.188,872.203 L445.441,856.655 L445.489,854.594 L444.639,847.363 L442.656,844.23 L441.709,841.106 L441.806,836.999 L441.927,831.837 L441.975,829.792 L444.175,823.655 L445.267,820.594 L447.37,818.581 L448.414,817.565 L450.494,816.591 L452.549,816.64 L456.636,817.76 L457.535,822.931 L457.486,824.992 L459.396,831.227 L462.324,837.484 L468.32,844.838 L476.492,847.095 L477.438,850.203 L481.621,847.217 L491.081,838.169 L498.413,832.156 L504.661,828.18 L508.796,827.257 L512.956,825.294 L517.091,824.354 L520.215,822.383 L521.21,823.43 L525.321,823.529 L526.332,824.577 L528.388,824.626 L531.438,825.74 L535.499,827.901 L536.568,825.864 L535.648,821.716 L533.716,816.52 L533.79,813.435 L531.809,810.284 L531.933,805.137 L534.138,799.001 L537.337,793.928 L538.381,792.93 L544.648,788.955 L547.798,785.945 L550.991,781.895 L555.053,784.058 L558.328,775.883 L561.504,771.85 L563.685,766.735 L566.711,768.873 L568.817,766.86 L579.199,763.004 L585.401,761.092 L589.539,760.154 L594.696,759.257 L598.809,759.359 L609.023,761.675 L609.539,761.753 L613.847,762.402 L625.405,764.145 L630.554,764.274 L640.896,761.427 L644.023,759.441 L644.577,758.917 L645.295,758.237 L646.13,757.447 L648.212,756.458 L650.32,754.447 L651.417,751.387 L653.55,748.352 L654.638,746.316 L654.715,743.213 L655.915,736.026 L654.998,731.875 L655.049,729.828 L653.069,726.674 L650.027,724.533 L646.007,721.344 L648.166,717.269 L647.155,716.219 L647.181,715.18 L648.243,714.182 L649.263,714.208 L646.314,708.98 L657.877,698.946 L657.928,696.899 L656.891,696.873 L652.828,694.707 L651.859,692.617 L649.853,690.502 L648.91,687.39 L647.899,686.323 L647.976,683.236 L647.033,680.106 L647.109,677.019 L648.181,674.981 L651.387,669.906 L653.496,667.894 L661.907,660.884 L668.183,656.911 L671.287,655.965 L678.533,654.082 L693.941,654.472 L700.036,657.717 L703.062,659.859 L709.026,668.272 L709.001,669.296 L710.875,676.564 L712.802,681.767 L714.807,683.883 L714.781,684.924 L717.833,686.026 L719.89,686.078 L724.319,673.817 L733.217,652.621 L734.173,650.342 L733.163,649.275 L730.084,649.196 L730.11,648.172 L729.099,647.105 L730.241,643.02 L731.288,642.006 L733.478,636.906 L734.568,634.868 L738.667,634.973 L739.652,637.064 L750.559,612.57 L750.585,611.546 L749.59,610.495 L746.521,609.375 L742.473,607.205 L741.489,605.113 L741.515,604.089 L743.652,601.053 L743.679,600.012 L744.742,599.015 L751.939,599.2 L754.966,601.344 L763.766,578.857 L762.877,573.676 L762.93,571.61 L764.004,569.572 L765.069,568.574 L772.267,568.76 L774.379,566.748 L774.406,565.707 L773.501,560.525 L772.533,558.433 L773.607,556.394 L776.837,551.318 L776.89,549.253 L775.932,546.136 L772.958,541.924 L772.984,540.9 L776.171,536.848 L776.331,530.65 L777.422,528.611 L778.47,527.613 L781.578,526.652 L783.744,522.59 L783.771,521.549 L782.776,520.497 L780.743,519.402 L780.77,518.378 L781.844,516.338 L801.196,484.817 L802.234,484.844 L798.274,478.553 L797.359,474.393 L796.428,470.232 L795.433,469.181 L793.533,462.926 L792.628,457.74 L791.659,455.647 L791.713,453.58 L792.868,448.447 L790.851,447.368 L788.764,448.34 L785.691,447.234 L784.696,446.166 L783.71,444.072 L781.693,442.993 L778.593,442.913 L765.675,425.003 L762.707,419.762 L760.725,416.616 L763.852,415.654 L765.967,413.639 L765.993,412.614 L765.033,409.494 L761.977,408.372 L758.999,404.157 L748.771,400.798 L749.916,396.689 L756.137,394.78 L758.384,387.604 L759.476,385.579 L763.715,380.507 L765.803,379.535 L766.843,379.561 L774.024,380.774 L781.178,383.029 L784.262,383.109 L785.338,381.067 L784.342,380.015 L783.426,375.852 L782.387,375.825 L781.391,374.773 L783.506,372.758 L789.782,368.782 L792.91,367.837 L794.982,366.848 L804.252,367.09 L807.917,345.477 L808.427,325.849 L810.839,312.464 L811.97,308.352 L809.907,308.298 L808.992,304.133 L806.05,297.861 L806.104,295.792 L808.248,292.733 L813.531,287.703 L815.621,286.731 L815.648,285.688 L816.688,285.715 L817.765,283.672 L819.882,281.674 L820.949,280.658 L822.026,278.615 L825.301,271.461 L830.694,262.291 L832.758,262.345 L834.876,260.33 L838.033,258.342 L843.184,258.478 L846.297,257.533 L850.479,255.572 L862.843,255.899 L866.011,252.885 L875.371,250.018 L874.402,247.938 L874.457,245.868 L879.881,235.655 L879.936,233.585 L881.019,229.2 L881.021,227.638 L880.798,225.694 L880.903,225.51 L880.21,223.25 L879.242,221.153 L877.232,219.027 L873.104,218.917 L865.861,219.769 L863.77,220.741 L860.683,220.659 L854.463,221.539 L853.467,220.468 L850.363,220.386 L846.387,215.109 L844.378,212.984 L843.392,210.886 L842.477,206.718 L842.503,205.691 L841.463,205.664 L841.192,216 L840.168,215.973 L838.05,217.989 L830.699,222.966 L825.683,217.663 L824.615,218.679 L819.436,219.571 L820.639,213.387 L820.746,209.263 L821.797,208.246 L823.997,203.132 L824.023,202.105 L826.169,199.045 L828.287,197.028 L831.429,195.056 L842.856,192.24 L845.999,190.251 L850.182,188.289 L857.59,181.241 L859.818,175.099 L860.869,174.082 L863.48,153.442 L869.29,128.754 L873.859,112.307 L876.226,100.974 L878.263,104.176 L881.329,106.263 L886.259,113.702 L898.988,102.613 L919.98,124.977 L922.067,121.97 L924.343,116.755 L929.937,101.3 L928.894,100.321 L929.126,94.1109 L930.126,93.1467 L973.411,98.3959 L988.408,113.307 L989.426,113.346 L993.65,112.456 L995.575,114.543 L996.692,113.572 L1000.81,114.732 L1002.86,113.702 L1008.06,112.841 L1011.14,114.972 L1014.09,118.133 L1018.29,121.47 L1038.43,134.37 L1045.55,139.826 L1050.68,144.023 L1052.58,145.085 L1057.73,150.47 L1066.81,153.852 L1071.91,155.988 L1075.93,159.176 L1076.27,160.598 L1079.63,174.894 L1084.15,179.475 L1091.67,186.641 L1105.02,192.218 L1108.06,192.276 L1112.05,193.35 L1115.22,194.52 L1118.24,196.69 L1127.39,201.092 L1130.45,203.282 L1130.18,211.479 L1132.13,217.798 L1133.1,218.797 L1130.53,237.486 L1136.52,243.774 L1147.5,256.504 L1196.41,241.5 L1208,234.423 L1208.22,226.197 L1237.56,215.608 L1273.6,211.494 L1289.13,210.941 L1302.56,211.337 L1302.48,213.431 L1304.53,215.554 L1306.52,216.637 L1307.52,217.663 L1312.61,218.889 L1329.1,220.387 L1338.49,217.592 L1341.62,215.597 L1347.92,212.683 L1360.22,215.133 L1369.5,214.355 L1372.6,215.488 L1383.06,213.743 L1387.11,213.868 L1391.32,211.924 L1395.36,212.072 L1400.55,213.201 L1407.72,213.435 L1413.01,209.486 L1416.12,208.53 L1420.22,209.669 L1429.46,209.001 L1436.76,208.08 L1439.33,191.647 L1448.59,195.029 L1456.79,195.25 L1465.14,194.587 L1479.69,192.925 L1485.74,194.104 L1493.99,194.324 L1514.39,200.147 L1533.16,198.725 L1554.81,199.393 L1558.75,200.53 L1559.92,197.472 L1560.1,192.309 L1561.11,191.261 L1561.25,187.146 L1563.49,182 L1563.47,180.915 L1563.64,176.875 L1564.03,176.889 L1570.72,177.137 L1580.19,175.318 L1582.24,176.405 L1582.18,177.471 L1585.31,177.55 L1589.68,169.388 L1594.21,157.126 L1600.42,157.355 L1602.45,158.426 L1607.56,159.64 L1617.66,164.094 L1624.92,166.405 L1647.37,174.329 L1657.5,178.805 L1665.64,182.18 L1671.66,185.445 L1679.02,187.844 L1684.02,188.99 L1683.94,191.052 L1679.55,199.055 L1674.08,210.393 L1669.53,222.676 L1669.43,225.766 L1668.27,230.769 L1666.03,242.174 L1665.81,243.27 L1662.32,253.577 L1666.66,279.456 L1665.31,289.866 L1664.02,298.052 L1672.25,300.415 L1678.3,301.602 L1684.56,300.769 L1679.13,308.857 L1679.1,309.929 L1676.83,316.049 L1671.33,326.233 L1666.88,337.397 L1666.35,353.966 L1663.02,361.096 L1663.93,365.271 L1662.66,372.467 L1662.55,377.619 L1658.98,392.024 L1659.91,394.116 L1659.67,401.404 L1658.52,405.427 L1657.16,415.622 L1653.6,430.885 L1651.08,443.482 L1649.76,453.732 L1646.08,471.328 L1646.98,478.596 L1645.71,484.789 L1645.41,492.73 L1646.28,499.098 L1647.02,508.564 L1645.84,510.309 L1645.45,525.925 L1645.98,540.3 L1645.8,546.339 L1639.94,567.005 L1649.24,570.462 L1658.26,575.948 L1670.98,582.804 L1674.54,584.725 L1684.58,589.088 L1684.85,589.238 L1694.85,594.752 L1699.69,597.779 L1707,599.12 L1709.79,602.261 L1724.01,609.938 L1729.06,612.221 L1729.9,612.679 L1739.12,617.686 L1766.87,652.682 L1768.89,653.786 L1771.87,657.128 L1772.69,659.95 L1776.78,664.441 L1776.71,667.556 L1775.48,673.491 L1785.64,678.136 L1785.51,680.191 L1790.66,682.43 L1790.57,683.441 L1795.62,685.67 L1794.47,688.702 L1795.48,689.796 L1796.42,692.891 L1796.37,695.985 L1798.17,701.176 L1795.73,712.534 L1797.69,715.609 L1803.72,720.995 L1805.68,723.083 L1811.62,731.547 L1812.54,732.599 L1815.67,733.783 L1817.72,733.808 L1818.74,732.819 L1823.87,732.985 L1835.2,735.46 L1836.08,737.545 L1840.12,738.7 L1850.45,739.053 L1858.69,737.264 L1859.66,739.413 L1862.74,740.513 L1865.72,740.591 L1868.88,741.738 L1878.13,742.043 L1881.22,741.125 L1888.42,741.357 L1891.54,740.45 L1891.63,736.32 L1892.88,729.134 L1902.18,729.492 L1907.36,728.569 L1908.3,728.656 L1909.37,727.627 L1913.53,726.744 L1916.75,724.781 L1918.65,725.88 L1929.15,722.085 L1933.25,724.369 L1936.18,726.48 L1940.98,733.785 L1942.03,735.944 L1942.91,742.323 L1943.82,744.246 L1945.76,747.426 L1946.69,751.597 L1952.63,759.125 L1954.45,765.262 L1958.19,774.794 L1963.72,793.42 L1966.92,791.424 L1969.01,790.477 L1970.02,789.476 L1974.04,789.677 L1978.28,788.761 L1981.39,787.845 L1985.46,787.975 L1991.63,790.262 L1993.61,791.37 L1994.56,792.388 L2001.76,792.639 L2005.83,793.836 L2008.9,794.979 L2012.92,796.147 L2016,796.248 L2020.12,797.463 L2026.3,796.624 L2033.56,794.818 L2040.76,795.068 L2042.78,794.086 L2050.07,793.326 L2053.11,796.569 L2055.04,797.605 L2059.14,797.766 L2057.95,802.854 L2057.39,819.353 L2056.11,825.476 L2052.69,835.668 L2052.66,836.679 L2047.32,842.664 L2045.11,846.754 L2052.42,848.007 L2063.64,847.419 L2067.76,845.493 L2072.05,846.716 L2094.26,851.564 L2103.6,851.91 L2105.28,858.152 L2107.39,859.295 L2108.36,860.338 L2110.17,866.52 L2112.14,869.688 L2112.03,871.775 L2114.83,880.116 L2115.78,882.216 L2119.91,882.372 L2123.01,881.449 L2127.09,881.57 L2132.22,882.787 L2134.23,883.887 L2146.55,885.374 L2152.61,886.606 L2155.67,886.717 L2157.71,887.825 L2158.66,889.935 L2160.64,892.048 L2166.68,895.354 L2176.95,895.736 L2184.16,894.922 L2186.22,894.05 L2188.4,891.991 L2191.58,888.001 L2197.88,884.116 L2203.22,879.132 L2206.33,878.248 L2212.5,878.456 L2212.89,867.134 L2213.97,866.148 L2215.12,862.989 L2216.19,861.074 L2216.33,857.01 L2217.53,852.855 L2219.65,850.882 L2226.85,851.111 L2228.95,850.153 L2229.97,849.196 L2231.05,847.166 L2232.1,847.223 L2233.14,846.223 L2234.27,844.179 L2235.3,844.233 L2237.36,843.264 L2239.39,843.35 L2241.57,840.362 L2243.71,839.357 L2244.82,836.268 L2244.86,834.267 L2245.91,834.313 L2247.06,831.248 L2247.08,830.196 L2248.17,829.224 L2249.16,829.282 L2250.25,828.302 L2251.34,826.263 L2253.45,825.262 L2254.46,824.318 L2257.61,823.392 L2258.66,822.418 L2260.79,821.417 L2262.94,819.387 L2264.03,817.428 L2264.1,814.37 L2265.17,813.384 L2265.49,805.082 L2264.48,804.021 L2264.5,803.035 L2266.75,797.996 L2266.83,795.874 L2265.9,793.788 L2266.94,792.811 L2268.03,790.773 L2268.14,787.702 L2269.33,783.651 L2269.94,767.08 L2268.97,765.061 L2269.07,761.943 L2267.48,749.494 L2269.66,746.523 L2269.66,745.501 L2270.87,741.38 L2275.15,740.475 L2278.17,739.537 L2282.23,738.755 L2287.5,735.829 L2290.98,735.051 L2307.17,732.409 L2308.14,734.489 L2309.15,735.556 L2325.85,727.95 L2329.06,724.931 L2337.39,722.144 L2341.11,733.662 L2351.39,732.013 L2355.24,740.384 L2357.2,743.534 L2359.28,742.581 L2362.39,740.667 L2365.27,746.87 L2369.23,750.143 L2372.33,751.319 L2375.45,751.426 L2378.45,752.569 L2380.41,754.73 L2381.28,757.733 L2382.2,761.981 L2382.19,762.28 L2382.15,763.022 L2381.03,765.046 L2381.94,768.149 L2381.92,769.221 L2382.94,770.293 L2385.96,770.413 L2389.12,768.489 L2391.19,770.615 L2392.05,772.626 L2393.12,772.688 L2394.07,773.742 L2395.14,773.867 L2398.16,774.957 L2399.67,776.653 L2400.98,781.139 L2402.8,787.528 L2407.95,788.726 L2409.99,789.84 L2410.86,791.877 L2412.9,793.038 L2412.87,794.056 L2415.96,794.181 L2419.08,793.252 L2424.13,794.533 L2430.27,794.753 L2441.45,798.223 L2448.67,798.505 L2449.69,799.613 L2451.66,800.624 L2451.34,809.935 L2450.11,815.156 L2445.93,818.027 L2445.72,823.094 L2444.63,823.134 L2444.61,825.152 L2442.39,829.207 L2442.31,831.245 L2443.22,834.43 L2442.16,835.399 L2441.84,843.55 L2442.69,848.792 L2441.66,849.761 L2442.51,852.986 L2442.51,853.975 L2443.42,854.964 L2442.41,856.052 L2442.31,858.05 L2441.29,858.05 L2440.26,859.038 L2439.11,862.02 L2438.79,870.211 L2440.63,877.61 L2441.6,878.626 L2446.76,878.802 L2452.81,878.068 L2454.94,878.135 L2458.02,879.293 L2460.02,878.311 L2463.18,877.45 L2463.07,878.451 L2464.09,880.556 L2463.99,883.678 L2466.83,889.889 L2469.67,895.081 L2471.63,897.291 L2474.56,901.476 L2475.63,900.554 L2479.6,902.694 L2482.76,902.939 L2484.86,901.951 L2486.68,908.184 L2490.71,910.382 L2492.86,908.447 L2495.94,907.611 L2495.81,911.605 L2494.68,914.552 L2494.63,915.622 L2490.25,924.79 L2485.67,936.97 L2482.16,947.075 L2481,949.144 L2480.75,955.445 L2481.46,964.686 L2481.28,969.914 L2482.14,972.971 L2483.07,977.071 L2483.98,979.176 L2484.83,982.193 L2486.86,983.386 L2486.85,984.377 L2491.77,991.911 L2496.64,997.133 L2499.21,998.773 L2501.6,1000.44 L2506.75,1001.63 L2507.77,1001.73 L2510.86,1002.81 L2509.71,1004.9 L2508.57,1007.93 L2508.46,1010.04 L2510.31,1015.08 L2511.2,1019.35 L2512.95,1024.45 L2515,1027.7 L2518.18,1027.8 L2524.27,1026.02 L2524.41,1022.94 L2522.5,1018.62 L2521.61,1015.61 L2521.66,1014.61 L2523.74,1011.67 L2525,1008.48 L2526.06,1007.5 L2528.04,1007.64 L2529.28,1005.53 L2533.39,1003.64 L2533.42,1001.64 L2536.51,1001.81 L2540.79,999.885 L2542.83,997.92 L2544.88,996.932 L2552.4,989.956 L2556.65,985.009 L2557.84,981.957 L2558.96,977.958 L2561.26,973.633 L2562.44,969.818 L2563.6,966.731 L2565.67,963.784 L2567.91,959.679 L2572.26,953.715 L2574.51,948.627 L2575.77,942.523 L2575.8,940.348 L2580.4,931.226 L2583.51,927.407 L2587.9,920.277 L2588.01,916.151 L2590.37,909.107 L2590.49,905.976 L2592.62,903.998 L2593.85,898.89 L2594.09,892.689 L2595.17,891.677 L2597.22,890.835 L2609.62,888.225 L2612.74,888.303 L2614.63,892.502 L2616.64,894.624 L2617.48,897.816 L2619.41,899.851 L2623.48,902.062 L2627.36,907.381 L2632.5,908.689 L2635.53,910.867 L2640.58,913.067 L2644.53,915.223 L2650.64,917.603 L2653.65,917.738 L2656.81,919.893 L2659.73,921.061 L2664.81,924.362 L2665.76,925.436 L2665.61,929.503 L2663.28,935.633 L2662.18,937.631 L2661.98,942.773 L2660.88,944.749 L2660.67,949.894 L2661.62,951.979 L2664.42,959.319 L2665.32,962.497 L2665.2,965.55 L2666.12,967.638 L2666.98,972.735 L2667.9,974.891 L2667.76,977.954 L2668.75,980.033 L2669.65,983.176 L2670.68,984.321 L2669.53,986.3 L2669.36,990.406 L2667.14,995.507 L2664.98,998.534 L2670.84,1005.9 L2671.74,1008.02 L2672.8,1008.08 L2674.41,1019.48 L2676.23,1024.65 L2677.15,1026.8 L2678.59,1028.33 L2679.15,1028.94 L2680.09,1032.04 L2683.08,1034.24 L2685.84,1041.58 L2689.69,1047.88 L2691.62,1052.06 L2691.37,1058.25 L2692.33,1059.25 L2692.16,1063.4 L2688.98,1066.37 L2688.94,1067.42 L2690.86,1071.62 L2691.81,1072.62 L2695.79,1074.86 L2696.82,1074.89 L2698.86,1076.04 L2699.94,1075.05 L2700.91,1076.13 L2702.93,1077.21 L2703.76,1081.34 L2704.72,1083.43 L2704.71,1084.5 L2705.64,1085.58 L2708.73,1087.74 L2710.21,1089.7 L2710.55,1090.27 L2710.58,1090.33" vector-effect="none" fill-rule="evenodd"/>
  </g>
  <g stroke-linejoin="bevel" stroke-width="1" font-size="34.5833" fill="none" stroke-linecap="square" stroke="#000000" font-weight="400" font-style="normal" stroke-opacity="1" transform="matrix(0.999744,0,0,0.999744,0,0)" font-family="MS Shell Dlg 2"/>
  <g stroke-linejoin="bevel" stroke-width="1" font-size="34.5833" fill="none" stroke-linecap="square" stroke="#000000" font-weight="400" font-style="normal" stroke-opacity="1" transform="matrix(11.808,0,0,11.808,0,0)" font-family="MS Shell Dlg 2"/>
  <g stroke-linejoin="bevel" stroke-width="1" font-size="34.5833" fill="none" stroke-linecap="square" stroke="#000000" font-weight="400" font-style="normal" stroke-opacity="1" transform="matrix(11.808,0,0,11.808,0,0)" font-family="MS Shell Dlg 2"/>
  <g stroke-linejoin="bevel" stroke-width="1" font-size="34.5833" fill="none" stroke-linecap="square" stroke="#000000" font-weight="400" font-style="normal" stroke-opacity="1" transform="matrix(11.808,0,0,11.808,0,0)" font-family="MS Shell Dlg 2"/>
  <g stroke-linejoin="bevel" stroke-width="1" font-size="34.5833" fill="none" stroke-linecap="square" stroke="#000000" font-weight="400" font-style="normal" stroke-opacity="1" transform="matrix(1,0,0,1,0,0)" font-family="MS Shell Dlg 2"/>
  <g stroke-linejoin="bevel" stroke-width="1" font-size="34.5833" fill="none" stroke-linecap="square" stroke="#000000" font-weight="400" font-style="normal" stroke-opacity="1" transform="matrix(11.808,0,0,11.808,0,0)" font-family="MS Shell Dlg 2"/>
  <g stroke-linejoin="bevel" stroke-width="1" font-size="34.5833" fill="none" stroke-linecap="square" stroke="#000000" font-weight="400" font-style="normal" stroke-opacity="1" transform="matrix(11.808,0,0,11.808,0,0)" font-family="MS Shell Dlg 2"/>
  <g stroke-linejoin="bevel" stroke-width="1" font-size="34.5833" fill="none" stroke-linecap="square" stroke="#000000" font-weight="400" font-style="normal" stroke-opacity="1" transform="matrix(11.808,0,0,11.808,0,0)" font-family="MS Shell Dlg 2"/>
  <g stroke-linejoin="bevel" stroke-width="1" font-size="34.5833" fill="none" stroke-linecap="square" stroke="#000000" font-weight="400" font-style="normal" stroke-opacity="1" transform="matrix(11.808,0,0,11.808,0,0)" font-family="MS Shell Dlg 2"/>
  <g stroke-linejoin="bevel" stroke-width="1" font-size="34.5833" fill="none" stroke-linecap="square" stroke="#000000" font-weight="400" font-style="normal" stroke-opacity="1" transform="matrix(1,0,0,1,0,0)" font-family="MS Shell Dlg 2"/>
 </g>
</svg>
