<?xml version='1.0' encoding='UTF-8' standalone='no'?>
<svg xmlns:xlink="http://www.w3.org/1999/xlink" height="249.936mm" width="249.936mm" viewBox="0 0 2952 2952" version="1.2" baseProfile="tiny" xmlns="http://www.w3.org/2000/svg">
 <title>Qt SVG Document</title>
 <desc>Generated with Qt</desc>
 <defs/>
 <g stroke-linejoin="bevel" stroke-width="1" fill="none" stroke-linecap="square" stroke="black" fill-rule="evenodd">
  <g stroke-linejoin="bevel" stroke-width="1" font-size="34.5833" fill="none" stroke-linecap="square" stroke="#000000" font-weight="400" font-style="normal" stroke-opacity="1" transform="matrix(1,0,0,1,0,0)" font-family="MS Shell Dlg 2"/>
  <g stroke-linejoin="bevel" stroke-width="1" font-size="34.5833" fill="none" stroke-linecap="square" stroke="#000000" font-weight="400" font-style="normal" stroke-opacity="1" transform="matrix(1,0,0,1,0,0)" font-family="MS Shell Dlg 2"/>
  <g stroke-linejoin="bevel" stroke-width="1" font-size="34.5833" fill="none" stroke-linecap="square" stroke="#000000" font-weight="400" font-style="normal" stroke-opacity="1" transform="matrix(11.808,0,0,11.808,0,0)" font-family="MS Shell Dlg 2"/>
  <g stroke-linejoin="bevel" stroke-width="1" font-size="34.5833" fill="none" stroke-linecap="square" stroke="#000000" font-weight="400" font-style="normal" stroke-opacity="1" transform="matrix(0.999744,0,0,0.999744,0,0)" font-family="MS Shell Dlg 2"/>
  <g fill-opacity="0" font-size="34.5833" fill="#ffffff" stroke="none" font-weight="400" font-style="normal" transform="matrix(0.999744,0,0,0.999744,0,0)" font-family="MS Shell Dlg 2">
   <path d="M-2,-2 L2955,-2 L2955,2955 L-2,2955 L-2,-2" vector-effect="none" fill-rule="evenodd"/>
  </g>
  <g stroke-linejoin="bevel" stroke-width="1" font-size="34.5833" fill="none" stroke-linecap="square" stroke="#000000" font-weight="400" font-style="normal" stroke-opacity="1" transform="matrix(0.999744,0,0,0.999744,0,0)" font-family="MS Shell Dlg 2"/>
  <g stroke-linejoin="bevel" stroke-width="1" font-size="34.5833" fill="none" stroke-linecap="square" stroke="#000000" font-weight="400" font-style="normal" stroke-opacity="1" transform="matrix(11.808,0,0,11.808,0,0)" font-family="MS Shell Dlg 2"/>
  <g stroke-linejoin="bevel" stroke-width="1" font-size="34.5833" fill="none" stroke-linecap="square" stroke="#000000" font-weight="400" font-style="normal" stroke-opacity="1" transform="matrix(11.808,0,0,11.808,0,0)" font-family="MS Shell Dlg 2"/>
  <g stroke-linejoin="bevel" stroke-width="1" font-size="34.5833" fill="none" stroke-linecap="square" stroke="#000000" font-weight="400" font-style="normal" stroke-opacity="1" transform="matrix(11.808,0,0,11.808,0,0)" font-family="MS Shell Dlg 2"/>
  <g stroke-linejoin="bevel" stroke-width="1" font-size="34.5833" fill="none" stroke-linecap="square" stroke="#000000" font-weight="400" font-style="normal" stroke-opacity="1" transform="matrix(11.808,0,0,11.808,0,0)" font-family="MS Shell Dlg 2"/>
  <g stroke-linejoin="bevel" stroke-width="1" font-size="34.5833" fill="none" stroke-linecap="square" stroke="#000000" font-weight="400" font-style="normal" stroke-opacity="1" transform="matrix(11.808,0,0,11.808,0,0)" font-family="MS Shell Dlg 2"/>
  <g fill-opacity="0" font-size="34.5833" fill="#ffffff" stroke="none" font-weight="400" font-style="normal" transform="matrix(11.808,0,0,11.808,0,0)" font-family="MS Shell Dlg 2">
   <path d="M0,0 L250,0 L250,250 L0,250 L0,0" vector-effect="none" fill-rule="evenodd"/>
  </g>
  <g stroke-linejoin="bevel" stroke-width="1" font-size="34.5833" fill="none" stroke-linecap="square" stroke="#000000" font-weight="400" font-style="normal" stroke-opacity="1" transform="matrix(11.808,0,0,11.808,0,0)" font-family="MS Shell Dlg 2"/>
  <g stroke-linejoin="bevel" stroke-width="1" font-size="34.5833" fill="none" stroke-linecap="square" stroke="#000000" font-weight="400" font-style="normal" stroke-opacity="1" transform="matrix(11.808,0,0,11.808,0,0)" font-family="MS Shell Dlg 2"/>
  <g fill-opacity="0" font-size="34.5833" fill="#000000" stroke="none" font-weight="400" font-style="normal" transform="matrix(0.999744,0,0,0.999744,0,0)" font-family="MS Shell Dlg 2">
   <rect y="0" height="2953" x="0" width="2953"/>
  </g>
  <g stroke-linejoin="bevel" stroke-width="1" font-size="34.5833" fill="none" stroke-linecap="square" stroke="#000000" font-weight="400" font-style="normal" stroke-opacity="1" transform="matrix(0.999744,0,0,0.999744,0,0)" font-family="MS Shell Dlg 2"/>
  <g stroke-linejoin="bevel" fill-opacity="1" stroke-width="3.07087" font-size="34.5833" fill="#c5c5c5" stroke-linecap="square" stroke="#5c5c5c" font-weight="400" font-style="normal" stroke-opacity="1" transform="matrix(0.999744,0,0,0.999744,0,0)" font-family="MS Shell Dlg 2">
   <path d="M775.008,928.739 L780.165,929.303 L785.285,930.142 L790.353,931.252 L796.191,933.339 L802.132,935.103 L808.161,936.541 L816.013,938.28 L824.641,940.387 L833.245,942.582 L839.11,944.76 L854.75,950.567 L865.37,954.38 L875.86,958.54 L886.208,963.041 L892.347,965.023 L898.581,966.674 L904.895,967.988 L911.269,968.963 L946.563,970.966 L954.309,971.405 L959.438,971.326 L964.554,970.941 L969.638,970.252 L974.673,969.261 L983.243,966.838 L988.244,965.401 L993.303,964.181 L994.835,963.956 L1001.46,962.985 L1005.79,962.647 L1010.14,962.571 L1014.48,962.758 L1016.24,962.879 L1019.16,962.938 L1021.82,963.098 L1024.46,963.382 L1027.27,963.621 L1030.09,963.689 L1033.65,963.801 L1037.2,964.214 L1040.7,964.924 L1044.13,965.909 L1046.37,966.358 L1048.28,966.604 L1051.14,967.039 L1055.4,967.789 L1059.67,968.463 L1063.95,969.06 L1068.24,969.58 L1072.54,970.022 L1076.84,970.387 L1081.16,970.674 L1086.26,971.067 L1091.34,971.751 L1096.37,972.725 L1099.09,973.092 L1101.84,973.186 L1103.9,973.057 L1106.49,973.168 L1109.06,973.522 L1111.58,974.115 L1113.54,974.693 L1115.58,975.098 L1117.39,975.392 L1119.77,975.967 L1122.09,976.751 L1124.8,977.543 L1127.57,978.053 L1130.69,978.615 L1133.82,979.421 L1136.05,980.278 L1138.71,981.473 L1141.22,982.942 L1143,984.212 L1146.46,986.522 L1150.01,988.676 L1153.66,990.667 L1161.91,995.396 L1164.75,996.861 L1167.74,997.987 L1169.66,998.504 L1171.82,999.215 L1173.67,999.96 L1177.08,1001.03 L1180.61,1001.64 L1184.18,1001.79 L1187.1,1002.02 L1189.98,1002.56 L1192.79,1003.41 L1195.93,1004.28 L1199.15,1004.8 L1202.4,1004.95 L1205.65,1004.74 L1211.5,1003.92 L1212.14,1003.83 L1217.32,1003.12 L1222.47,1002.22 L1228.52,1001.07 L1234.61,1000.07 L1237.92,999.36 L1241.18,998.409 L1251.49,995.316 L1254.43,994.516 L1257.42,993.908 L1263.9,992.914 L1268.37,991.986 L1272.81,990.923 L1276.21,990.043 L1279.68,989.495 L1283.19,989.283 L1286.07,989.004 L1288.9,988.483 L1291.69,987.723 L1294.18,986.851 L1296.58,985.744 L1300.05,984.127 L1303.72,983.009 L1307.51,982.412 L1312,981.922 L1316.45,981.133 L1319.88,980.287 L1320.84,980.051 L1329.37,977.627 L1330.87,977.176 L1332.1,976.808 L1334.77,975.793 L1336.74,974.973 L1339.44,974.06 L1342.2,973.336 L1345,972.806 L1348.26,972.02 L1351.43,970.919 L1353.36,970.259 L1355.34,969.743 L1357.29,969.368 L1360.63,968.486 L1363.91,967.437 L1366.7,966.375 L1372.11,964.312 L1377.62,962.526 L1383.21,961.021 L1397.62,957.573 L1412.04,954.125 L1415.11,953.411 L1418.12,952.439 L1421.03,951.215 L1423.82,949.748 L1432.83,944.045 L1438.17,940.967 L1443.51,937.88 L1449.74,934.532 L1454.41,932.358 L1459.19,930.421 L1464.06,928.726 L1465.07,928.428 L1469,927.276 L1474.02,926.075 L1478.28,925.335 L1483.47,924.718 L1488.69,924.272 L1493.92,923.996 L1499.67,923.622 L1500.05,923.57 L1504.86,922.918 L1510.02,921.988 L1515.13,920.834 L1520.19,919.458 L1527.63,917.194 L1532.87,915.55 L1538.06,913.791 L1539.83,913.145 L1541.84,912.58 L1543.88,912.164 L1545.94,911.9 L1548.02,911.789 L1559.57,911.301 L1561.75,911.036 L1564.41,910.253 L1567,909.255 L1569.5,908.05 L1571.89,906.647 L1580.16,900.182 L1583.35,897.664 L1586.4,894.96 L1590.01,891.446 L1593.21,888.755 L1596.62,886.346 L1605.87,880.364 L1608.7,878.819 L1611.62,877.475 L1614.63,876.337 L1617.71,875.412 L1620.43,874.799 L1620.85,874.705 L1624.03,874.218 L1627.24,873.953 L1630.85,873.909 L1634.45,874.241 L1637.99,874.943 L1640.61,875.654 L1645.17,876.85 L1649.77,877.901 L1650.06,877.962 L1653.17,878.63 L1655.31,879.304 L1657.39,880.151 L1661.76,882.008 L1666.14,883.865 L1670.51,885.723 L1674.44,887.447 L1678.25,889.41 L1681.94,891.604 L1685.48,894.022 L1687.95,895.848 L1689.76,897.331 L1691.46,898.947 L1693.02,900.686 L1696.14,904.543 L1698.39,907.086 L1700.78,909.504 L1703.3,911.79 L1705.94,913.939 L1708.68,915.944 L1711.53,917.798 L1713.76,919.146 L1716.11,920.277 L1718.56,921.181 L1721.08,921.849 L1723.66,922.276 L1726.26,922.457 L1728.86,922.392 L1731.45,922.08 L1734.04,921.484 L1738.16,920.532 L1742.38,920.17 L1746.45,919.869 L1750.47,919.174 L1760.51,916.739 L1770.55,914.305 L1777.65,912.6 L1778.41,912.417 L1786.21,910.303 L1787.89,909.817 L1793.2,908.281 L1796.09,907.327 L1798.95,906.296 L1801.79,905.188 L1804.59,904.005 L1807.36,902.747 L1812.44,900.065 L1814.88,898.728 L1817.24,897.266 L1819.53,895.683 L1821.63,894.076 L1823.6,892.315 L1825.43,890.409 L1826.97,888.536 L1828.56,886.59 L1830.48,884.584 L1832.59,882.78 L1834.87,881.199 L1837.3,879.854 L1840.39,878.533 L1843.62,877.385 L1846.95,876.581 L1850.35,876.131 L1853.35,876.109 L1857,876.187 L1860.64,876.064 L1863.52,875.939 L1866.4,875.96 L1870.65,876.029 L1873.49,876.066 L1876.33,875.853 L1879.51,875.367 L1882.67,874.771 L1886.27,874.033 L1889.89,873.372 L1893.52,872.79 L1897.17,872.287 L1900.82,871.863 L1904.49,871.518 L1907.2,871.31 L1910.35,871.055 L1913.5,870.799 L1916.65,870.539 L1919.66,870.446 L1921.13,870.586 L1922.6,870.806 L1924.05,871.103 L1926.22,871.638 L1928.39,872.15 L1931.95,873.154 L1934.06,873.838 L1936.17,874.521 L1938.28,875.201 L1940.65,875.832 L1943.03,876.404 L1945.42,876.917 L1957.02,879.478 L1968.52,882.454 L1979.9,885.843 L1993.89,890.347 L2007.88,894.851 L2016.41,897.598 L2021.87,899.356 L2022.69,899.579 L2024.75,900.137 L2027.67,900.704 L2044.49,903.743 L2048.27,904.219 L2052.07,904.42 L2055.88,904.343 L2058.73,903.996 L2065.9,902.709 L2072,901.644 L2078.14,900.818 L2084.31,900.231 L2087.69,899.943 L2091.05,899.458 L2094.38,898.775 L2104.84,896.824 L2107.94,896.407 L2111.05,896.22 L2114.17,896.261 L2119.74,896.533 L2122.55,896.527 L2125.36,896.364 L2128.15,896.042 L2130.47,895.59 L2134.29,894.946 L2138.13,894.539 L2141.99,894.373 L2144.59,894.214 L2147.17,893.92 L2148.91,893.629 L2149.73,893.493 L2156.76,892.19 L2162.11,891.028 L2167.41,889.639 L2172.65,888.024 L2177.82,886.186 L2182.9,884.13 L2188.12,881.491 L2199.11,875.421 L2209.79,868.811 L2217.57,863.9 L2225.36,858.989 L2227.12,857.719 L2228.78,856.315 L2235.43,849.761 L2237.26,848.251 L2239.21,846.904 L2242.96,844.622 L2246.72,842.34 L2249.81,840.64 L2253.09,839.35 L2254.5,838.902 L2258.29,837.696 L2263.49,836.041 L2265.72,835.16 L2267.88,834.088 L2275.01,829.737 L2276.56,828.679 L2278.04,827.518 L2285.09,820.255 L2288.35,816.935 L2291.72,813.727 L2295.19,810.633 L2298.77,807.657 L2302.65,804.032 L2307.26,800.325 L2312.07,796.889 L2317.07,793.735 L2319.39,792.245 L2321.62,790.604 L2325.01,787.408 L2328.19,783.999 L2331.14,780.392 L2333.86,776.602 L2336.33,772.643 L2337.49,770.192 L2338.65,767.092 L2339.48,763.875 L2340.08,760.56 L2340.62,758.195 L2341.32,755.105 L2342.13,749.828 L2342.46,744.438 L2342.2,735.386 L2342.26,733.239 L2342.49,731.102 L2343.26,726.669 L2343.77,724.025 L2344.42,721.412 L2345.19,718.99 L2345.93,716.817 L2346.73,714.663 L2347.58,712.531 L2348.48,710.422 L2349.76,708.098 L2351.14,705.839 L2352.63,703.648 L2354.23,701.533 L2355.92,699.497 L2357.72,697.545 L2361.97,693.14 L2363.19,691.911 L2364.45,690.71 L2365.98,689.284 L2367.5,688.203 L2369.09,687.227 L2370.74,686.361 L2372.45,685.609 L2374.2,684.973 L2380.38,683.413 L2385.83,681.975 L2386.55,681.783 L2401.12,678.158 L2404.65,677.318 L2408.12,676.285 L2411.53,675.061 L2414,673.904 L2415.93,673.014 L2417.91,672.235 L2419.93,671.571 L2422.8,670.943 L2425.77,670.297 L2428.71,669.559 L2431.63,668.731 L2435.14,667.681 L2439.18,666.405 L2443.2,665.063 L2444.79,664.584 L2446.39,664.151 L2447.99,663.764 L2450.62,663.105 L2452.47,662.705 L2454.33,662.387 L2457.62,661.894 L2460.91,661.383 L2464.2,660.856 L2467.48,660.313 L2470.77,659.753 L2474.05,659.177 L2476.15,658.759 L2478.25,658.276 L2480.32,657.728 L2482.38,657.116 L2484.42,656.44 L2488.21,655.094 L2492.08,653.988 L2496.01,653.125 L2499.98,652.508 L2502.46,652.254 L2504.95,652.119 L2507.44,652.102 L2509.93,652.204 L2516.69,652.818 L2519.21,653.096 L2521.75,653.334 L2527.37,654.007 L2530.87,654.604 L2534.28,655.588 L2539.73,657.734 L2542.82,658.96 L2545.87,660.301 L2548.86,661.755 L2551.8,663.321 L2553.41,664.236 L2555.07,665.044 L2556.79,665.741 L2558.85,666.352 L2561.61,666.882 L2564.4,667.252 L2567.2,667.463 L2570.02,667.513 L2575.75,667.412 L2577.81,667.458 L2581.48,667.54 L2584.72,667.735 L2587.96,667.895 L2590.85,668.042 L2593.73,668.322 L2596.6,668.734 L2599.44,669.276 L2602.16,669.783 L2604.89,670.241 L2607.63,670.653 L2610.37,671.016 L2613.85,671.601 L2617.29,672.355 L2620.7,673.275 L2623.58,673.967 L2626.48,674.562 L2629.4,675.058 L2632.32,675.459 L2634.8,675.75 L2637.28,675.999 L2639.23,676.252 L2641.16,676.637 L2643.06,677.152 L2644.92,677.795 L2646.66,678.531 L2647.94,669.085 L2649.49,669.574 L2653.91,684.229 L2658.32,684.616 L2664.26,685.739 L2670.02,687.128 L2683.19,688.553 L2700.74,689.993 L2705.15,691.44 L2710.99,692.908 L2716.85,694.352 L2724.16,695.817 L2727.09,697.267 L2734.41,698.733 L2740.27,701.634 L2747.58,704.557 L2753.44,706.026 L2757.83,708.954 L2765.17,713.335 L2771.01,716.261 L2773.95,719.193 L2776.88,720.644 L2782.74,726.508 L2784.2,727.962 L2787.13,730.894 L2788.61,733.828 L2790.08,741.157 L2793.02,745.569 L2794.48,751.417 L2795.64,753.768 L2795.97,760.225 L2796,777.822 L2796.01,782.239 L2796.02,786.632 L2801.91,807.153 L2807.8,842.351 L2809.28,845.284 L2816.61,856.99 L2819.54,858.465 L2835.64,868.7 L2851.7,874.522 L2844.42,887.73 L2842.97,890.667 L2841.5,892.149 L2840.57,893.886 L2840.26,896.06 L2840.25,897.716 L2840.91,900.455 L2840.93,902.209 L2840.07,903.867 L2840.08,909.737 L2843.01,917.057 L2843.02,919.992 L2845.97,933.181 L2843.04,936.12 L2838.68,944.93 L2837.22,950.777 L2831.38,961.044 L2832.87,969.843 L2834.33,972.775 L2835.8,972.773 L2837.26,975.704 L2840.19,978.633 L2841.64,983.02 L2843.12,985.951 L2844.58,987.404 L2846.05,987.401 L2848.97,987.397 L2851.88,987.393 L2854.8,988.867 L2856.28,991.798 L2859.21,996.182 L2860.66,996.18 L2862.13,994.723 L2863.53,1001.73 L2863.59,1002.04 L2867.97,1004.97 L2870.9,1009.35 L2869.46,1016.68 L2872.39,1019.61 L2879.7,1025.46 L2882.63,1026.91 L2887,1028.39 L2889.93,1029.84 L2885.56,1032.77 L2882.64,1037.17 L2881.17,1041.58 L2876.81,1047.43 L2872.45,1059.16 L2870.98,1062.1 L2869.53,1063.56 L2869.53,1065.03 L2868.06,1066.49 L2866.62,1069.43 L2865.15,1070.91 L2863.7,1070.91 L2863.7,1072.36 L2859.33,1072.37 L2856.41,1075.31 L2853.48,1075.31 L2853.48,1076.76 L2852.01,1076.77 L2847.65,1081.18 L2846.2,1081.19 L2835.99,1087.04 L2835.98,1084.11 L2831.57,1078.28 L2830.12,1076.8 L2822.82,1073.88 L2818.42,1069.5 L2812.59,1066.58 L2809.66,1063.65 L2805.26,1059.27 L2800.55,1057.39 L2797.95,1056.35 L2797.95,1054.9 L2793.57,1051.97 L2790.65,1051.98 L2787.72,1049.05 L2784.79,1047.58 L2783.35,1049.06 L2780.42,1049.07 L2778.97,1047.59 L2776.05,1047.6 L2771.65,1049.08 L2764.35,1044.71 L2759.98,1046.17 L2757.05,1046.18 L2755.57,1044.73 L2754.12,1044.73 L2750.94,1045.82 L2749.75,1046.19 L2746.83,1046.2 L2743.92,1050.59 L2741,1053.53 L2741,1056.46 L2739.56,1057.94 L2736.65,1063.79 L2732.25,1063.8 L2729.34,1060.88 L2727.88,1063.81 L2719.14,1066.76 L2716.21,1066.77 L2711.81,1063.85 L2707.43,1060.92 L2700.13,1058.03 L2697.22,1063.88 L2694.3,1065.36 L2691.37,1063.89 L2682.62,1063.91 L2676.78,1066.86 L2676.49,1066.96 L2672.39,1068.35 L2669.5,1072.74 L2663.64,1068.37 L2660.73,1071.31 L2657.81,1075.7 L2656.38,1080.09 L2657.84,1084.48 L2659.33,1091.82 L2665.16,1096.19 L2665.17,1099.12 L2663.73,1103.51 L2660.82,1109.38 L2660.83,1113.77 L2659.39,1118.18 L2657.92,1119.64 L2656.48,1122.57 L2657.94,1125.5 L2656.5,1128.44 L2662.33,1134.26 L2666.73,1137.18 L2662.35,1143.06 L2643.42,1153.35 L2647.81,1159.2 L2653.66,1165.05 L2660.98,1175.28 L2662.44,1179.66 L2662.46,1185.52 L2663.95,1194.31 L2671.26,1201.61 L2677.12,1208.91 L2677.15,1219.15 L2680.08,1226.46 L2683.02,1230.86 L2685.94,1242.55 L2687.42,1245.48 L2687.45,1260.1 L2687.5,1279.13 L2686.04,1286.45 L2683.16,1292.31 L2688.99,1296.68 L2690.47,1299.61 L2691.88,1304.65 L2691.93,1308.39 L2690.5,1312.78 L2674.44,1306.96 L2670.12,1304.82 L2669.68,1304.6 L2668.59,1304.06 L2664.22,1302.6 L2659.85,1301.16 L2651.09,1301.18 L2639.39,1293.9 L2635.01,1290.98 L2626.27,1296.84 L2614.62,1299.8 L2598.58,1302.77 L2595.65,1301.33 L2586.9,1296.95 L2579.58,1294.06 L2578.13,1292.59 L2576.66,1292.59 L2575.21,1291.14 L2572.29,1291.15 L2563.55,1289.7 L2553.31,1289.73 L2541.62,1276.6 L2532.83,1267.86 L2529.9,1266.39 L2526.99,1262.02 L2521.14,1259.11 L2506.51,1248.91 L2499.21,1246.01 L2471.46,1235.85 L2469.99,1235.86 L2474.43,1251.95 L2471.54,1259.27 L2468.64,1265.14 L2467.22,1273.91 L2467.22,1275.39 L2462.83,1275.4 L2459.91,1275.41 L2455.54,1275.43 L2449.71,1276.9 L2443.89,1276.92 L2435.13,1276.95 L2432.22,1279.89 L2419.1,1282.87 L2414.72,1279.96 L2408.88,1278.53 L2405.95,1278.54 L2403.02,1275.62 L2400.1,1275.63 L2398.65,1275.63 L2391.36,1274.19 L2388.44,1274.2 L2389.9,1277.12 L2397.21,1281.5 L2398.69,1284.4 L2401.61,1285.86 L2403.07,1287.31 L2407.48,1291.7 L2410.38,1294.62 L2425.02,1304.81 L2429.39,1306.24 L2433.77,1307.68 L2436.7,1310.6 L2439.62,1312.06 L2441.09,1312.06 L2444.02,1314.98 L2446.94,1319.35 L2451.34,1322.26 L2454.26,1323.7 L2455.71,1323.7 L2457.17,1328.1 L2457.19,1333.93 L2460.12,1336.85 L2460.13,1338.33 L2460.14,1341.26 L2461.62,1342.7 L2463.07,1345.63 L2466.01,1350 L2470.38,1349.98 L2476.24,1357.27 L2467.51,1360.23 L2461.68,1361.73 L2451.49,1366.14 L2447.09,1361.78 L2438.38,1369.12 L2432.56,1373.52 L2426.74,1379.4 L2422.39,1383.79 L2419.48,1385.28 L2418.03,1385.28 L2415.11,1386.75 L2415.12,1389.68 L2410.75,1394.07 L2397.66,1401.45 L2387.48,1407.32 L2381.69,1413.2 L2377.32,1419.07 L2375.87,1419.08 L2370.09,1432.26 L2368.66,1438.12 L2368.68,1443.95 L2364.33,1452.75 L2349.8,1461.59 L2345.45,1464.53 L2335.26,1467.5 L2317.79,1476.33 L2316.34,1476.34 L2316.39,1486.57 L2314.94,1493.88 L2313.53,1501.21 L2313.55,1507.04 L2314.71,1509.1 L2316.51,1515.81 L2317.97,1518.73 L2319.44,1520.17 L2319.45,1521.65 L2317.99,1524.58 L2318.01,1528.96 L2312.2,1530.43 L2309.31,1534.84 L2294.75,1540.76 L2291.84,1542.22 L2285.03,1547.14 L2271.51,1556.92 L2258.44,1567.2 L2257.01,1570.13 L2252.64,1574.57 L2252.25,1574.96 L2249.76,1577.49 L2249.09,1578.3 L2233.83,1596.54 L2233.13,1597.24 L2225.11,1603.9 L2222.2,1603.92 L2216.39,1603.95 L2210.57,1606.87 L2206.2,1603.99 L2196.02,1612.79 L2196.03,1614.27 L2191.69,1618.66 L2187.33,1618.82 L2178.59,1620.18 L2174.23,1621.67 L2171.41,1622.82 L2162.61,1622.43 L2148.72,1620.42 L2139.95,1618.38 L2133.28,1616.55 L2131.96,1614.58 L2121.76,1613.16 L2118.84,1611.73 L2105.75,1616.17 L2101.4,1617.64 L2092.66,1619.16 L2088.3,1620.64 L2083.94,1620.66 L2082.48,1622.14 L2078.11,1620.69 L2069.35,1617.81 L2063.52,1617.85 L2062.11,1623.7 L2060.67,1625.18 L2062.14,1629.55 L2062.15,1632.48 L2059.25,1635.42 L2057.82,1636.87 L2054.91,1638.36 L2052,1639.83 L2049.11,1644.22 L2043.27,1642.8 L2037.44,1638.46 L2033.04,1635.56 L2031.6,1635.57 L2028.68,1635.59 L2024.32,1635.61 L2021.56,1634.05 L2014.09,1629.82 L2011.17,1628.39 L2006.78,1626.94 L1996.58,1625.54 L1986.37,1622.68 L1977.62,1618.33 L1974.69,1615.45 L1970.27,1609.62 L1965.9,1608.18 L1960.07,1608.21 L1954.26,1608.24 L1949.87,1606.82 L1946.95,1606.84 L1944.04,1606.86 L1939.69,1609.81 L1936.79,1612.75 L1931,1614.23 L1928.09,1615.73 L1926.64,1618.64 L1923.73,1620.13 L1922.29,1621.59 L1919.41,1626 L1916.51,1628.95 L1910.7,1631.88 L1907.81,1633.38 L1903.44,1634.85 L1900.52,1634.87 L1896.16,1634.9 L1893.25,1634.92 L1883.04,1632.06 L1880.1,1629.18 L1875.73,1627.73 L1872.81,1626.3 L1840.84,1683.92 L1835.4,1693.72 L1832.46,1690.82 L1830.99,1690.83 L1828.06,1687.92 L1825.14,1686.49 L1825.13,1685.02 L1822.22,1682.11 L1819.32,1685.06 L1817.85,1685.07 L1816.4,1683.63 L1814.93,1683.64 L1814.94,1685.09 L1802.03,1677.96 L1717.39,1682.84 L1715.97,1685.77 L1710.19,1693.13 L1708.75,1697.52 L1708.77,1700.44 L1707.36,1704.83 L1713.25,1713.55 L1714.71,1716.47 L1716.23,1722.28 L1717.72,1729.59 L1720.66,1732.47 L1725.02,1732.43 L1726.49,1733.9 L1725.04,1735.36 L1726.52,1736.82 L1726.53,1738.27 L1729.46,1741.17 L1730.93,1744.08 L1732.38,1745.52 L1733.88,1749.91 L1733.89,1751.36 L1735.34,1751.35 L1736.81,1752.81 L1735.36,1754.27 L1729.56,1755.76 L1728.07,1752.87 L1726.63,1752.88 L1731.08,1765.99 L1731.1,1768.89 L1729.66,1768.9 L1729.77,1784.96 L1732.66,1784.94 L1734.14,1786.4 L1735.58,1786.39 L1735.56,1783.47 L1737.02,1781.99 L1738.5,1787.82 L1738.57,1796.59 L1740.05,1799.5 L1740.08,1802.42 L1741.55,1806.78 L1744.51,1814.05 L1745.98,1816.97 L1747.47,1819.88 L1750.41,1824.23 L1751.87,1827.14 L1751.89,1828.61 L1754.81,1830.04 L1760.65,1832.92 L1763.58,1835.82 L1766.51,1841.62 L1768,1844.53 L1772.38,1847.42 L1778.24,1853.23 L1784.14,1863.4 L1788.52,1867.74 L1791.24,1870.82 L1798.78,1879.35 L1804.62,1882.24 L1813.37,1883.63 L1820.66,1887.97 L1825.02,1887.94 L1825.18,1912.73 L1834.01,1927.25 L1848.67,1947.59 L1857.47,1957.75 L1860.4,1960.65 L1853.11,1960.69 L1850.23,1960.71 L1847.31,1960.73 L1841.47,1957.85 L1838.56,1957.87 L1824.33,1953.61 L1818.15,1950.92 L1816.95,1950.37 L1813.58,1947.99 L1809.4,1944.93 L1802.07,1936.22 L1799.13,1931.87 L1797.67,1928.96 L1796.3,1927.51 L1794.17,1923.04 L1787.44,1921.74 L1783.05,1920.3 L1780.13,1918.87 L1778.68,1917.41 L1777.24,1917.42 L1777.22,1914.53 L1772.81,1910.16 L1768.42,1905.82 L1762.56,1900.02 L1758.21,1901.53 L1756.76,1902.98 L1756.78,1905.91 L1755.34,1907.36 L1753.92,1910.29 L1753.93,1911.77 L1751.02,1911.79 L1746.67,1916.19 L1740.87,1916.23 L1733.56,1913.36 L1729.19,1910.47 L1727.72,1907.56 L1724.82,1909.05 L1723.35,1909.06 L1723.36,1910.51 L1727.76,1913.4 L1727.78,1916.32 L1726.33,1917.78 L1721.98,1919.28 L1720.53,1920.74 L1719.09,1922.22 L1719.1,1923.67 L1719.15,1930.96 L1719.16,1932.43 L1711.95,1939.77 L1710.48,1939.78 L1709.05,1941.24 L1707.58,1941.25 L1697.36,1934.04 L1695.91,1934.05 L1694.47,1934.06 L1694.48,1935.53 L1694.49,1936.98 L1700.33,1942.77 L1701.84,1948.6 L1701.86,1951.52 L1700.39,1951.53 L1700.4,1952.98 L1696.05,1953.01 L1694.62,1954.47 L1693.18,1958.87 L1694.66,1960.31 L1697.56,1961.76 L1697.57,1963.21 L1697.58,1964.68 L1696.13,1964.69 L1693.22,1964.71 L1693.23,1966.16 L1696.16,1969.06 L1697.62,1970.5 L1697.64,1973.42 L1697.7,1982.18 L1697.71,1983.62 L1694.83,1983.64 L1691.91,1982.22 L1690.44,1982.23 L1686.12,1986.63 L1683.23,1989.57 L1681.8,1991.03 L1681.81,1992.5 L1681.82,1993.95 L1680.37,1996.87 L1681.9,2005.62 L1680.44,2005.63 L1678.97,2002.72 L1677.49,2001.29 L1670.2,1996.95 L1667.26,1992.6 L1662.88,1989.72 L1662.86,1986.8 L1658.47,1982.46 L1657.01,1982.47 L1652.63,1979.59 L1649.72,1979.61 L1646.79,1976.71 L1645.31,1972.36 L1643.79,1965.08 L1640.84,1959.26 L1639.37,1956.35 L1637.88,1953.44 L1636.43,1952.01 L1634.98,1950.55 L1632.03,1946.2 L1630.55,1944.74 L1629.11,1944.75 L1624.74,1946.26 L1620.42,1950.66 L1617.5,1949.23 L1614.58,1947.78 L1613.11,1944.87 L1610.18,1941.98 L1605.82,1940.56 L1601.4,1936.23 L1594.07,1927.52 L1589.67,1921.72 L1582.56,1942.19 L1576.73,1940.79 L1570.93,1943.75 L1566.6,1946.71 L1563.7,1948.18 L1559.34,1946.77 L1553.6,1957.02 L1553.63,1961.39 L1550.76,1965.8 L1546.49,1977.49 L1545.06,1981.87 L1546.58,1987.7 L1546.6,1990.62 L1545.65,1992.07 L1543.72,1995.01 L1539.39,1997.96 L1539.45,2005.25 L1538.01,2008.18 L1532.2,2009.69 L1520.7,2024.36 L1516.37,2027.31 L1509.18,2039.05 L1507.8,2046.34 L1504.94,2052.2 L1491.49,2066.18 L1487.91,2068.36 L1489.75,2075.04 L1485.82,2079.12 L1478.74,2077.41 L1467.3,2088.13 L1429.89,2044.98 L1416.27,2050.03 L1410.47,2053 L1394.65,2069.16 L1393.2,2070.64 L1393.23,2075 L1375.46,2101.68 L1370.62,2107.48 L1363.7,2112.58 L1361.8,2114.65 L1359.04,2119.82 L1358.16,2129.82 L1359.91,2136.68 L1370.4,2149.05 L1375.24,2157.02 L1383.48,2167.2 L1388.86,2172.22 L1399.01,2174.17 L1404.55,2180.98 L1410.35,2191.72 L1411.83,2194.83 L1417.51,2201.26 L1428.35,2205.92 L1426.95,2206.43 L1387.61,2217.09 L1351.04,2227.2 L1343.87,2233.26 L1338.53,2236.54 L1331.5,2236.37 L1327.15,2233.08 L1324.45,2230.51 L1321.26,2224.87 L1309.7,2217.37 L1307.31,2214.31 L1305.72,2217.11 L1303.9,2221.07 L1302.37,2230.37 L1299.74,2238.42 L1295.04,2250.73 L1288.81,2258.3 L1284.12,2261.53 L1282.26,2262.8 L1272.29,2263.23 L1267.2,2269.94 L1263.09,2274.28 L1258.18,2279.14 L1257.85,2276.92 L1256.49,2275.28 L1255.28,2274.23 L1254.36,2273.1 L1253.31,2272.35 L1252.79,2272.18 L1252.11,2272.26 L1251.32,2272.58 L1251.08,2272.61 L1250.56,2272.21 L1249.87,2270.8 L1245.89,2267.5 L1244.2,2266.62 L1241.89,2265.75 L1239.54,2262.92 L1236.63,2262.95 L1233.71,2261.51 L1229.32,2257.19 L1227.85,2254.29 L1223.47,2252.86 L1223.45,2251.42 L1220.56,2250 L1202.99,2237.06 L1202.98,2235.59 L1201.54,2235.6 L1200.06,2234.17 L1197.14,2232.73 L1195.68,2231.3 L1189.84,2228.44 L1189.81,2225.52 L1188.37,2225.54 L1186.89,2224.1 L1186.88,2222.64 L1185.43,2222.65 L1182.5,2219.76 L1182.49,2218.32 L1181.03,2216.86 L1181.02,2215.41 L1179.54,2213.98 L1179.52,2212.51 L1178.07,2211.08 L1178.04,2208.16 L1176.56,2206.71 L1176.49,2199.43 L1177.94,2197.97 L1176.46,2196.51 L1176.44,2195.07 L1173.54,2195.1 L1173.48,2189.26 L1172.02,2187.83 L1172,2184.92 L1170.54,2183.46 L1169.07,2183.47 L1166.15,2182.06 L1164.71,2182.07 L1163.23,2180.62 L1163.22,2179.17 L1160.28,2176.28 L1158.85,2177.77 L1157.4,2176.31 L1155.93,2176.32 L1154.46,2173.42 L1151.55,2173.45 L1150.07,2172.02 L1148.65,2173.48 L1145.71,2170.59 L1142.8,2170.62 L1141.35,2169.19 L1135.53,2169.25 L1129.7,2167.84 L1128.26,2167.85 L1128.24,2166.4 L1126.77,2164.97 L1123.88,2165 L1123.87,2163.53 L1122.4,2163.55 L1119.48,2162.13 L1118.04,2162.14 L1115.1,2159.26 L1106.33,2154.96 L1101.94,2150.64 L1094.62,2144.88 L1093.14,2143.45 L1091.67,2140.55 L1090.19,2139.11 L1087.26,2134.76 L1084.29,2128.98 L1084.26,2126.06 L1081.31,2121.7 L1079.78,2115.91 L1075.39,2111.56 L1075.37,2110.12 L1073.93,2110.13 L1075.36,2108.64 L1076.8,2108.63 L1076.77,2105.71 L1078.24,2105.7 L1079.66,2104.24 L1079.65,2102.79 L1078.21,2102.8 L1079.64,2101.32 L1079.62,2099.87 L1081.09,2099.86 L1081.07,2098.39 L1079.61,2098.4 L1079.56,2094.04 L1078.12,2094.05 L1078.09,2091.13 L1079.53,2091.12 L1079.52,2089.67 L1078.07,2089.69 L1078.06,2088.22 L1076.58,2086.78 L1076.56,2085.31 L1075.12,2085.33 L1077.94,2076.57 L1072.09,2073.71 L1073.53,2070.78 L1073.75,2070.7 L1074.95,2069.29 L1077.7,2053.25 L1076.22,2051.79 L1068.93,2048.95 L1061.62,2044.66 L1055.77,2041.8 L1045.56,2037.54 L1041.17,2034.67 L1029.49,2030.42 L1019.32,2030.53 L1016.38,2027.64 L1009.07,2023.33 L1007.61,2021.9 L1007.6,2020.43 L1003.21,2017.58 L1000.04,2012.91 L997.301,2008.89 L995.395,2007.39 L989.976,2003.13 L989.688,2002.8 L989,2001.76 L986.043,1997.27 L981.457,1993.6 L979.655,1991.58 L976.279,1988.33 L975.254,1987.24 L973.884,1986.17 L971.224,1984.08 L967.928,1981.5 L965.002,1980.06 L962.108,1981.57 L957.755,1981.62 L950.507,1983.14 L943.228,1981.77 L940.334,1983.25 L938.899,1986.19 L941.857,1990.52 L950.777,2007.94 L956.668,2016.61 L953.877,2025.4 L955.399,2032.67 L955.495,2041.42 L954.083,2044.36 L952.68,2050.19 L948.408,2057.54 L955.732,2063.28 L955.891,2077.87 L954.48,2080.8 L948.726,2086.67 L945.834,2088.18 L944.439,2092.56 L942.989,2094.04 L930.008,2102.92 L921.283,2103.01 L916.949,2104.53 L913.992,2100.18 L905.21,2092.99 L902.301,2093.03 L899.377,2091.61 L896.435,2088.73 L867.571,2106.54 L861.887,2118.27 L859.019,2119.75 L847.403,2121.33 L843.053,2121.38 L840.079,2115.6 L835.644,2108.35 L829.761,2102.6 L825.31,2093.9 L822.351,2089.57 L807.656,2076.62 L801.89,2081.05 L797.573,2084.02 L790.347,2087.03 L784.598,2092.93 L775.948,2097.4 L770.131,2097.47 L765.797,2098.97 L758.549,2101.97 L751.325,2104.97 L748.503,2112.29 L747.165,2121.06 L748.729,2131.24 L753.189,2138.47 L762.199,2164.59 L759.377,2171.91 L758.022,2179.23 L750.835,2185.12 L747.945,2186.63 L743.607,2189.6 L734.927,2191.15 L727.724,2195.62 L723.404,2200.04 L729.305,2207.24 L732.299,2214.49 L733.845,2223.22 L738.339,2233.36 L739.934,2249.35 L737.192,2253.68 L735.711,2256.69 L735.798,2263.97 L734.385,2268.37 L732.979,2271.28 L725.883,2284.47 L722.724,2287.36 L712.96,2296.29 L704.331,2303.67 L702.908,2305.16 L691.788,2310.27 L689.925,2311.13 L684.213,2319.94 L675.675,2334.59 L674.342,2343.35 L674.467,2353.54 L668.818,2366.71 L663.063,2371.14 L658.754,2374.11 L658.879,2384.29 L660.433,2391.57 L657.601,2397.41 L660.612,2406.11 L673.9,2424.88 L675.376,2427.77 L679.791,2433.52 L674.061,2437.97 L665.422,2443.88 L655.29,2445.47 L643.694,2447.06 L629.201,2447.24 L623.413,2448.79 L607.529,2454.81 L598.88,2457.81 L590.226,2462.3 L581.627,2471.13 L558.669,2490.34 L550.078,2497.72 L540.006,2503.68 L543.078,2516.73 L544.63,2525.45 L527.259,2527.12 L524.3,2522.8 L519.883,2517.03 L513.983,2509.84 L509.58,2506.99 L508.14,2507.01 L503.779,2505.62 L497.974,2505.7 L495.072,2505.73 L492.188,2507.22 L489.459,2508.62 L489.305,2508.7 L486.441,2511.65 L483.184,2512.52 L480.679,2513.19 L477.777,2513.23 L474.874,2513.27 L466.167,2513.39 L460.366,2512 L458.923,2513.48 L454.6,2514.99 L451.718,2516.49 L443.108,2523.88 L437.386,2528.31 L435.884,2525.42 L431.464,2519.65 L422.698,2515.42 L419.796,2515.46 L416.874,2514.05 L409.65,2515.59 L408.21,2515.61 L400.907,2511.36 L387.898,2514.45 L383.473,2510.13 L379.091,2507.3 L371.886,2510.29 L367.561,2513.26 L360.457,2523.54 L356.177,2527.98 L356.217,2530.89 L351.855,2529.48 L354.633,2522.18 L356.016,2516.33 L354.492,2512 L355.915,2509.07 L355.875,2506.15 L352.912,2501.84 L351.412,2497.48 L354.13,2485.82 L351.171,2480.03 L351.13,2477.12 L352.529,2474.19 L342.22,2462.7 L339.215,2455.48 L334.811,2451.16 L330.384,2446.86 L324.54,2442.58 L321.596,2439.71 L318.652,2436.84 L309.86,2431.14 L306.936,2429.74 L299.648,2426.93 L295.283,2425.52 L292.339,2422.67 L285.009,2416.95 L282.126,2418.43 L277.761,2417.05 L274.858,2417.09 L273.394,2417.11 L269.092,2420.09 L266.188,2420.13 L263.305,2421.62 L263.243,2417.26 L266.126,2415.75 L270.428,2412.77 L271.871,2411.31 L280.521,2406.83 L281.961,2406.81 L292.071,2403.75 L297.087,2403.63 L299.319,2403.65 L310.914,2402.01 L313.798,2400.53 L318.101,2397.55 L323.828,2391.64 L325.207,2387.27 L322.16,2377.12 L322.12,2374.21 L322.038,2368.38 L320.537,2364.04 L319.032,2361.15 L318.971,2356.79 L320.414,2355.3 L314.626,2356.85 L314.564,2352.47 L310.138,2346.73 L305.748,2345.32 L301.403,2345.38 L296.955,2338.17 L292.442,2328.04 L288.055,2325.19 L280.721,2319.47 L276.396,2321 L270.628,2323.99 L266.282,2324.06 L253.116,2316.95 L248.726,2315.57 L244.38,2315.63 L240.034,2315.69 L235.665,2315.75 L232.76,2315.8 L227.015,2318.79 L224.131,2320.28 L219.849,2324.73 L217.028,2330.58 L215.627,2334.98 L207.021,2340.91 L199.726,2339.57 L192.475,2339.68 L182.235,2334 L171.994,2328.32 L157.32,2316.91 L151.467,2314.08 L150.722,2313.54 L145.592,2309.81 L138.297,2307 L130.98,2302.72 L130.894,2296.92 L133.777,2295.41 L135.132,2289.58 L133.582,2282.3 L133.386,2269.2 L133.365,2267.75 L133.278,2261.92 L137.494,2253.11 L137.408,2247.3 L140.27,2244.34 L143.112,2239.94 L144.488,2235.53 L144.423,2231.17 L152.861,2212.1 L155.747,2210.61 L160.008,2204.72 L161.407,2201.78 L162.872,2201.76 L165.757,2200.27 L168.621,2197.31 L168.557,2192.92 L167.027,2188.58 L166.941,2182.75 L176.89,2168.04 L178.334,2166.55 L178.227,2159.27 L176.718,2156.37 L173.746,2152.05 L173.725,2150.61 L170.71,2143.35 L169.226,2140.48 L163.302,2133.26 L160.33,2128.94 L165.952,2115.74 L163.001,2112.86 L155.397,2089.65 L150.874,2078.07 L147.9,2073.73 L140.684,2076.75 L136.331,2078.29 L130.559,2079.82 L123.058,2065.37 L118.597,2058.13 L117.089,2053.78 L117.067,2052.34 L118.466,2049.4 L119.911,2047.9 L134.323,2040.4 L138.653,2038.89 L141.541,2037.37 L144.45,2037.33 L153.112,2032.83 L154.533,2031.34 L150.16,2029.96 L141.345,2024.25 L135.483,2021.42 L133.997,2018.55 L132.554,2018.57 L131.044,2015.67 L123.673,2008.47 L133.649,1995.2 L132.141,1990.85 L129.144,1985.06 L127.655,1983.63 L126.147,1979.29 L126.125,1977.82 L136.298,1977.66 L149.273,1970.18 L158.044,1974.42 L162.44,1977.33 L165.389,1975.86 L157.871,1962.77 L154.92,1958.42 L153.388,1954.07 L151.902,1951.17 L151.707,1938.05 L157.418,1932.15 L158.842,1929.2 L161.71,1926.24 L168.91,1921.74 L187.626,1908.33 L196.229,1900.92 L197.696,1900.89 L200.565,1897.93 L203.388,1893.52 L212.249,1902.15 L218.05,1900.6 L216.477,1893.33 L214.991,1890.43 L216.435,1890.41 L213.462,1884.61 L210.487,1880.28 L221.94,1868.46 L219.008,1867.03 L217.5,1862.68 L216.011,1861.23 L211.613,1858.37 L205.726,1854.08 L198.288,1842.53 L195.312,1838.18 L193.868,1838.2 L195.269,1835.26 L193.783,1832.38 L187.766,1819.33 L183.345,1815 L180.347,1809.2 L181.791,1809.18 L174.286,1793.26 L172.755,1787.43 L171.244,1784.53 L164.039,1789.01 L164.017,1787.56 L161.062,1784.69 L161.018,1781.76 L162.465,1780.29 L155.063,1773.08 L156.488,1770.16 L154.998,1768.71 L153.575,1770.21 L153.532,1767.29 L154.977,1767.26 L154.955,1765.79 L156.423,1765.77 L156.402,1764.32 L154.912,1762.87 L153.467,1762.89 L156.25,1754.1 L156.185,1749.71 L159.056,1746.77 L157.587,1746.79 L157.414,1735.1 L154.458,1732.22 L154.436,1730.77 L151.503,1727.89 L151.459,1724.97 L151.79,1719.98 L152.558,1701.59 L154.003,1701.56 L159.766,1697.1 L161.278,1699.98 L161.321,1702.9 L162.766,1702.88 L162.788,1704.36 L161.408,1708.75 L161.451,1711.67 L162.961,1716.03 L164.384,1714.55 L168.788,1715.94 L189.225,1720.03 L192.16,1721.44 L202.389,1724.21 L205.323,1725.62 L209.724,1728.48 L212.68,1731.36 L217.081,1734.22 L229.856,1730.81 L240.281,1728.03 L251.894,1724.94 L253.318,1723.47 L256.211,1721.96 L263.421,1717.48 L270.675,1714.45 L282.224,1708.46 L286.603,1709.85 L288.052,1708.38 L288.01,1705.46 L286.459,1699.63 L279.123,1695.36 L273.191,1688.13 L271.725,1686.7 L267.987,1679.44 L267.241,1677.99 L260.194,1695.63 L254.347,1692.79 L251.412,1691.36 L245.563,1690 L242.628,1688.57 L239.672,1685.69 L233.783,1679.95 L227.912,1677.11 L223.507,1675.7 L219.106,1672.86 L217.639,1671.41 L211.747,1667.12 L205.875,1664.28 L213.001,1653.95 L214.428,1651.01 L220.13,1642.15 L230.046,1623.03 L234.259,1612.72 L237.111,1608.31 L241.346,1599.47 L244.178,1593.6 L245.023,1592.43 L248.455,1587.69 L252.757,1581.78 L251.245,1578.87 L246.862,1577.48 L224.837,1566.1 L229.138,1560.21 L232.391,1558.93 L240.716,1555.64 L242.535,1551.86 L243.547,1549.75 L250.679,1539.42 L252.604,1532.87 L256.097,1520.98 L263.186,1496.86 L264.017,1492.85 L265.194,1487.16 L267.258,1477.18 L268.645,1470.47 L275.588,1453.57 L277.105,1449.88 L279.958,1446.91 L275.552,1444.05 L266.759,1439.77 L260.903,1438.4 L250.64,1434.17 L243.358,1434.28 L240.398,1431.39 L233.049,1428.57 L225.745,1427.2 L218.42,1424.4 L215.502,1424.45 L215.459,1421.52 L213.991,1420.07 L211.052,1418.66 L209.538,1415.75 L208.091,1415.77 L200.765,1412.95 L194.886,1410.11 L193.46,1411.61 L189.05,1410.2 L187.603,1410.22 L180.276,1407.4 L179.964,1405.96 L178.698,1400.11 L177.192,1397.68 L174.225,1392.87 L172.744,1389.96 L166.725,1378.34 L165.21,1375.46 L160.693,1365.29 L160.671,1363.81 L162.097,1362.34 L174.919,1341.65 L174.876,1338.74 L176.121,1332.8 L178.554,1321.2 L179.319,1317.55 L184.416,1293.23 L184.352,1288.85 L187.164,1281.47 L188.529,1274.14 L189.891,1268.26 L189.72,1256.57 L192.426,1241.88 L195.239,1234.52 L195.197,1231.59 L190.678,1221.41 L184.643,1208.32 L181.678,1205.44 L178.693,1201.1 L172.764,1195.32 L169.8,1192.44 L166.859,1189.57 L166.816,1186.64 L168.243,1185.14 L169.649,1182.19 L175.406,1176.27 L176.835,1173.31 L179.499,1155.69 L185.147,1143.9 L188.004,1139.47 L192.29,1133.55 L197.963,1121.73 L199.222,1107.08 L197.599,1096.85 L194.334,1073.46 L190.897,1038.34 L190.746,1028.09 L189.146,1017.86 L186.051,1006.19 L179.019,973.455 L183.515,973.703 L188.017,973.559 L192.489,973.023 L196.897,972.099 L201.209,970.794 L205.392,969.119 L222.332,959.717 L226.333,958.047 L230.459,956.72 L234.681,955.743 L238.97,955.123 L287.74,956.224 L292.766,956.243 L297.77,955.774 L302.705,954.822 L307.525,953.393 L312.184,951.502 L316.639,949.168 L320.847,946.411 L324.769,943.258 L328.368,939.738 L329.879,937.947 L331.61,935.885 L339.042,927.544 L344.023,923.02 L349.176,918.695 L354.493,914.575 L359.967,910.665 L363.483,908.972 L367.379,907.598 L371.395,906.625 L375.487,906.064 L379.616,905.921 L383.738,906.196 L387.81,906.887 L391.793,907.987 L395.644,909.485 L399.325,911.365 L402.799,913.608 L406.028,916.191 L433.953,937.313 L438.325,939.472 L442.891,941.178 L447.606,942.414 L452.42,943.168 L457.285,943.432 L462.152,943.203 L466.972,942.484 L471.695,941.282 L476.274,939.609 L480.661,937.482 L484.812,934.923 L496.044,928.123 L503.1,923.852 L509.93,919.717 L515.055,916.71 L520.383,914.079 L525.884,911.837 L531.532,909.997 L537.297,908.567 L543.149,907.556 L549.058,906.967 L554.994,906.805 L560.927,907.069 L613.603,907.237 L670.485,907.329 L673.499,907.429 L676.337,907.553 L677.343,907.596 L678.528,907.648 L683.524,908.275 L688.452,909.306 L693.281,910.734 L697.979,912.549 L705.283,915.52 L712.715,918.154 L720.259,920.446 L727.899,922.39 L735.619,923.981 L743.404,925.219 L764.31,927.548 L775.008,928.739" vector-effect="none" fill-rule="evenodd"/>
  </g>
  <g stroke-linejoin="bevel" stroke-width="1" font-size="34.5833" fill="none" stroke-linecap="square" stroke="#000000" font-weight="400" font-style="normal" stroke-opacity="1" transform="matrix(0.999744,0,0,0.999744,0,0)" font-family="MS Shell Dlg 2"/>
  <g stroke-linejoin="bevel" stroke-width="1" font-size="34.5833" fill="none" stroke-linecap="square" stroke="#000000" font-weight="400" font-style="normal" stroke-opacity="1" transform="matrix(11.808,0,0,11.808,0,0)" font-family="MS Shell Dlg 2"/>
  <g stroke-linejoin="bevel" stroke-width="1" font-size="34.5833" fill="none" stroke-linecap="square" stroke="#000000" font-weight="400" font-style="normal" stroke-opacity="1" transform="matrix(11.808,0,0,11.808,0,0)" font-family="MS Shell Dlg 2"/>
  <g stroke-linejoin="bevel" stroke-width="1" font-size="34.5833" fill="none" stroke-linecap="square" stroke="#000000" font-weight="400" font-style="normal" stroke-opacity="1" transform="matrix(11.808,0,0,11.808,0,0)" font-family="MS Shell Dlg 2"/>
  <g stroke-linejoin="bevel" stroke-width="1" font-size="34.5833" fill="none" stroke-linecap="square" stroke="#000000" font-weight="400" font-style="normal" stroke-opacity="1" transform="matrix(1,0,0,1,0,0)" font-family="MS Shell Dlg 2"/>
  <g stroke-linejoin="bevel" stroke-width="1" font-size="34.5833" fill="none" stroke-linecap="square" stroke="#000000" font-weight="400" font-style="normal" stroke-opacity="1" transform="matrix(11.808,0,0,11.808,0,0)" font-family="MS Shell Dlg 2"/>
  <g stroke-linejoin="bevel" stroke-width="1" font-size="34.5833" fill="none" stroke-linecap="square" stroke="#000000" font-weight="400" font-style="normal" stroke-opacity="1" transform="matrix(11.808,0,0,11.808,0,0)" font-family="MS Shell Dlg 2"/>
  <g stroke-linejoin="bevel" stroke-width="1" font-size="34.5833" fill="none" stroke-linecap="square" stroke="#000000" font-weight="400" font-style="normal" stroke-opacity="1" transform="matrix(11.808,0,0,11.808,0,0)" font-family="MS Shell Dlg 2"/>
  <g stroke-linejoin="bevel" stroke-width="1" font-size="34.5833" fill="none" stroke-linecap="square" stroke="#000000" font-weight="400" font-style="normal" stroke-opacity="1" transform="matrix(11.808,0,0,11.808,0,0)" font-family="MS Shell Dlg 2"/>
  <g stroke-linejoin="bevel" stroke-width="1" font-size="34.5833" fill="none" stroke-linecap="square" stroke="#000000" font-weight="400" font-style="normal" stroke-opacity="1" transform="matrix(1,0,0,1,0,0)" font-family="MS Shell Dlg 2"/>
 </g>
</svg>
