<?xml version='1.0' encoding='UTF-8' standalone='no'?>
<svg xmlns:xlink="http://www.w3.org/1999/xlink" height="249.936mm" width="249.936mm" viewBox="0 0 2952 2952" version="1.2" baseProfile="tiny" xmlns="http://www.w3.org/2000/svg">
 <title>Qt SVG Document</title>
 <desc>Generated with Qt</desc>
 <defs/>
 <g stroke-linejoin="bevel" stroke-width="1" fill="none" stroke-linecap="square" stroke="black" fill-rule="evenodd">
  <g stroke-linejoin="bevel" stroke-width="1" font-size="34.5833" fill="none" stroke-linecap="square" stroke="#000000" font-weight="400" font-style="normal" stroke-opacity="1" transform="matrix(1,0,0,1,0,0)" font-family="MS Shell Dlg 2"/>
  <g stroke-linejoin="bevel" stroke-width="1" font-size="34.5833" fill="none" stroke-linecap="square" stroke="#000000" font-weight="400" font-style="normal" stroke-opacity="1" transform="matrix(1,0,0,1,0,0)" font-family="MS Shell Dlg 2"/>
  <g stroke-linejoin="bevel" stroke-width="1" font-size="34.5833" fill="none" stroke-linecap="square" stroke="#000000" font-weight="400" font-style="normal" stroke-opacity="1" transform="matrix(11.808,0,0,11.808,0,0)" font-family="MS Shell Dlg 2"/>
  <g stroke-linejoin="bevel" stroke-width="1" font-size="34.5833" fill="none" stroke-linecap="square" stroke="#000000" font-weight="400" font-style="normal" stroke-opacity="1" transform="matrix(0.999744,0,0,0.999744,0,0)" font-family="MS Shell Dlg 2"/>
  <g fill-opacity="0" font-size="34.5833" fill="#ffffff" stroke="none" font-weight="400" font-style="normal" transform="matrix(0.999744,0,0,0.999744,0,0)" font-family="MS Shell Dlg 2">
   <path d="M-2,-2 L2955,-2 L2955,2955 L-2,2955 L-2,-2" vector-effect="none" fill-rule="evenodd"/>
  </g>
  <g stroke-linejoin="bevel" stroke-width="1" font-size="34.5833" fill="none" stroke-linecap="square" stroke="#000000" font-weight="400" font-style="normal" stroke-opacity="1" transform="matrix(0.999744,0,0,0.999744,0,0)" font-family="MS Shell Dlg 2"/>
  <g stroke-linejoin="bevel" stroke-width="1" font-size="34.5833" fill="none" stroke-linecap="square" stroke="#000000" font-weight="400" font-style="normal" stroke-opacity="1" transform="matrix(11.808,0,0,11.808,0,0)" font-family="MS Shell Dlg 2"/>
  <g stroke-linejoin="bevel" stroke-width="1" font-size="34.5833" fill="none" stroke-linecap="square" stroke="#000000" font-weight="400" font-style="normal" stroke-opacity="1" transform="matrix(11.808,0,0,11.808,0,0)" font-family="MS Shell Dlg 2"/>
  <g stroke-linejoin="bevel" stroke-width="1" font-size="34.5833" fill="none" stroke-linecap="square" stroke="#000000" font-weight="400" font-style="normal" stroke-opacity="1" transform="matrix(11.808,0,0,11.808,0,0)" font-family="MS Shell Dlg 2"/>
  <g stroke-linejoin="bevel" stroke-width="1" font-size="34.5833" fill="none" stroke-linecap="square" stroke="#000000" font-weight="400" font-style="normal" stroke-opacity="1" transform="matrix(11.808,0,0,11.808,0,0)" font-family="MS Shell Dlg 2"/>
  <g stroke-linejoin="bevel" stroke-width="1" font-size="34.5833" fill="none" stroke-linecap="square" stroke="#000000" font-weight="400" font-style="normal" stroke-opacity="1" transform="matrix(11.808,0,0,11.808,0,0)" font-family="MS Shell Dlg 2"/>
  <g fill-opacity="0" font-size="34.5833" fill="#ffffff" stroke="none" font-weight="400" font-style="normal" transform="matrix(11.808,0,0,11.808,0,0)" font-family="MS Shell Dlg 2">
   <path d="M0,0 L250,0 L250,250 L0,250 L0,0" vector-effect="none" fill-rule="evenodd"/>
  </g>
  <g stroke-linejoin="bevel" stroke-width="1" font-size="34.5833" fill="none" stroke-linecap="square" stroke="#000000" font-weight="400" font-style="normal" stroke-opacity="1" transform="matrix(11.808,0,0,11.808,0,0)" font-family="MS Shell Dlg 2"/>
  <g stroke-linejoin="bevel" stroke-width="1" font-size="34.5833" fill="none" stroke-linecap="square" stroke="#000000" font-weight="400" font-style="normal" stroke-opacity="1" transform="matrix(11.808,0,0,11.808,0,0)" font-family="MS Shell Dlg 2"/>
  <g fill-opacity="0" font-size="34.5833" fill="#000000" stroke="none" font-weight="400" font-style="normal" transform="matrix(0.999744,0,0,0.999744,0,0)" font-family="MS Shell Dlg 2">
   <rect y="0" height="2953" x="0" width="2953"/>
  </g>
  <g stroke-linejoin="bevel" stroke-width="1" font-size="34.5833" fill="none" stroke-linecap="square" stroke="#000000" font-weight="400" font-style="normal" stroke-opacity="1" transform="matrix(0.999744,0,0,0.999744,0,0)" font-family="MS Shell Dlg 2"/>
  <g stroke-linejoin="bevel" fill-opacity="1" stroke-width="3.07087" font-size="34.5833" fill="#c5c5c5" stroke-linecap="square" stroke="#5c5c5c" font-weight="400" font-style="normal" stroke-opacity="1" transform="matrix(0.999744,0,0,0.999744,0,0)" font-family="MS Shell Dlg 2">
   <path d="M622.313,654.138 L621.622,653.636 L619.263,651.542 L618.852,650.51 L618.967,649.58 L619.823,647.978 L620.152,646.578 L620.094,645.889 L619.463,644.292 L619.037,643.62 L618.026,642.429 L615.644,640.169 L614.923,639.293 L612.343,635.577 L611.942,635.284 L611.145,634.376 L610.156,632.202 L609.171,626.167 L609.346,624.968 L609.46,622.578 L609.883,620.422 L610.668,617.658 L610.518,616.924 L610.179,616.171 L610.187,614.785 L609.766,612.936 L608.907,611.637 L603.804,607.284 L603.16,606.46 L602.246,605.561 L601.356,604.985 L599.816,603.631 L599.015,603.104 L597.998,601.981 L596.99,601.088 L596.645,600.327 L596.043,599.941 L595.829,599.564 L595.411,599.214 L593.792,598.744 L593.354,598.791 L591.593,598.663 L590.415,598.451 L587.993,598.412 L586.924,598.289 L579.9,596.745 L578.078,596.523 L574.649,595.388 L574.133,595.083 L573.393,595.105 L572.06,594.335 L570.526,593.933 L567.241,592.84 L566.24,592.18 L565.892,591.769 L565.454,591.048 L565.01,589.937 L564.598,588.359 L563.98,586.606 L563.802,585.449 L563.746,583.6 L563.032,581.349 L562.746,579.867 L562.761,579.099 L561.486,575.474 L561.033,575.065 L560.341,574.965 L556.674,574.374 L554.526,573.738 L553.094,573.43 L552.072,573.625 L551.082,573.411 L550.737,573.219 L550.474,573.186 L549.024,573.434 L547.447,574.676 L545.594,574.999 L544.752,574.972 L543.913,575.363 L543.599,575.368 L542.596,574.861 L542.289,574.418 L542.262,573.438 L541.958,572.421 L541.914,571.453 L541.433,570.013 L538.618,567.306 L537.842,565.462 L537.367,564.967 L536.776,564.642 L536.276,564.514 L535.233,564.639 L533.322,566.245 L531.974,566.833 L531.229,566.954 L530.619,566.836 L529.478,566.393 L528.211,566.309 L524.847,567.405 L523.184,567.572 L522.933,567.434 L522.407,567.407 L521.643,567.178 L521.362,566.917 L521.158,566.528 L521.091,566.009 L521.114,565.179 L522.186,563.738 L522.64,562.356 L522.71,561.669 L522.582,560.807 L522.346,560.113 L521.748,559.16 L521.263,558.783 L520.537,558.429 L520.063,558.313 L519.201,558.396 L516.996,559.579 L516.599,559.985 L515.456,560.716 L514.944,560.876 L514.072,560.635 L513.251,560.172 L513.145,560.303 L512.738,559.682 L512.397,559.177 L512.185,558.52 L512.116,555.887 L512.469,554.72 L513.341,552.55 L513.398,551.486 L513.399,550.767 L512.99,548.267 L512.798,544.013 L513.024,542.752 L514.27,537.895 L514.532,535.831 L514.399,534.925 L514.146,533.814 L512.801,529.506 L510.137,515.018 L509.755,513.922 L509.084,513.363 L509.025,513.124 L509.02,512.513 L509.36,511.249 L509.408,510.259 L508.987,509.436 L509.01,509.081 L508.696,508.906 L508.782,507.034 L508.604,506.97 L507.804,504.213 L507.801,503.486 L508.257,502.257 L508.306,501.48 L507.591,500.372 L505.197,499.539 L503.582,499.246 L502.554,498.866 L502.333,498.686 L501.717,497.526 L501.622,495.722 L501.71,494.557 L502.11,493.308 L502.462,492.566 L503.231,491.58 L505.31,489.742 L506.354,488.436 L506.689,487.185 L506.877,485.117 L507.125,484.358 L507.827,483.434 L508.447,482.823 L509.44,482.291 L509.99,482.121 L510.69,481.692 L511.635,480.637 L511.726,480.061 L511.41,479.644 L511.019,479.418 L509.582,479.45 L509.355,479.233 L507.812,479.43 L507.044,479.272 L506.539,479.285 L505.07,477.858 L504.788,477.091 L504.738,476.502 L504.938,475.512 L505.576,473.902 L505.658,472.68 L505.293,471.182 L505.321,470.509 L505.562,469.969 L505.936,469.425 L508.065,468.402 L508.855,467.791 L510.389,467.894 L510.959,467.49 L511.217,466.98 L511.324,466.186 L511.083,465.06 L510.933,464.868 L510.284,463.995 L509.568,462.295 L509.54,461.385 L509.9,460.787 L510.064,460.158 L509.772,458.554 L509.377,457.558 L508.668,456.587 L507.766,454.894 L507.404,453.602 L506.869,452.934 L506.335,452.838 L504.419,451.12 L503.932,450.304 L503.071,448.342 L502.562,446.057 L502.64,445.106 L503.033,444.544 L502.85,443.353 L503.207,441.13 L503.696,439.555 L504.383,438.071 L505.549,436.422 L506.177,435.793 L508.179,434.186 L510.999,432.63 L512.435,431.373 L514.219,429.182 L517.504,424.564 L522.419,419.412 L523.463,417.858 L524.368,416.088 L524.938,413.798 L525.559,412.161 L526.076,411.31 L526.077,411.276 L526.394,411.014 L526.732,410.888 L528.356,410.874 L528.898,410.755 L530.114,410.006 L530.319,409.283 L529.902,408.857 L529.119,408.64 L528.599,408.906 L527.71,408.98 L526.823,408.416 L526.08,407.582 L525.89,407.037 L525.815,406.288 L525.957,405.642 L526.531,404.261 L528.267,401.425 L529.053,399.795 L529.468,398.168 L529.688,395.453 L529.684,395.12 L529.522,393.897 L529.213,392.765 L527.809,389.185 L527.33,387.375 L527.276,386.413 L527.393,384.122 L528.187,379.564 L528.214,378.147 L528.032,376.393 L527.746,375.125 L526.605,371.377 L526.306,369.892 L526.233,368.844 L526.503,366.861 L527.287,364.658 L527.993,363.42 L528.795,362.295 L529.24,361.782 L531.212,360.256 L532.54,359.035 L533.381,358.092 L533.735,357.508 L534.434,355.209 L534.571,353.914 L534.505,352.639 L534.115,351.467 L533.257,349.634 L532.557,348.707 L531.095,347.229 L530.244,345.845 L529.696,344.4 L529.45,344.067 L528.602,339.382 L528.277,338.232 L527.51,336.772 L527.034,336.126 L526.043,335.05 L525.267,334.386 L523.456,333.735 L519.042,332.583 L518.309,332.215 L517.266,331.433 L516.579,330.681 L516.016,329.694 L514.463,324.513 L513.794,323.41 L513.109,322.611 L512.116,321.801 L510.34,320.691 L510.095,320.652 L507.969,319.494 L503.899,317.118 L501.997,315.603 L500.572,313.77 L499.434,311.804 L498.923,310.513 L498.391,308.509 L498.183,306.567 L498.241,304.709 L498.451,303.434 L499.06,301.474 L499.852,299.695 L500.306,299.248 L501.105,297.775 L502.131,296.66 L504.089,294.885 L505.356,293.846 L510.508,290.238 L511.683,289.192 L514.004,286.46 L516.419,283.057 L517.131,282.326 L518.248,281.381 L519.711,280.421 L521.429,279.666 L522.736,279.313 L524.865,279.009 L527.652,279.179 L528.353,279.367 L528.835,279.693 L529.068,280.125 L529.313,281.109 L529.79,281.887 L530.728,282.139 L532.144,282.074 L533.046,281.763 L533.284,281.581 L533.789,281.485 L534.232,281.544 L535.042,282.055 L535.407,282.097 L536.621,281.647 L539.274,279.7 L540.336,279.369 L541.914,278.577 L542.708,278.283 L543.275,278.353 L543.876,278.18 L546.661,276.817 L548.393,276.144 L549.863,275.803 L552.326,275.504 L554.146,275.645 L556.487,276.326 L557.772,276.748 L561.238,278.155 L566.582,279.794 L568.698,280.159 L571.195,280.048 L574.241,279.278 L575.564,278.654 L578.197,277.17 L585.52,272.309 L588.406,270.393 L590.859,268.457 L592.693,266.433 L592.957,266.118 L594.874,263.543 L596.199,262.02 L597.751,260.43 L598.444,259.524 L598.992,259.282 L599.393,258.695 L599.653,257.416 L600.155,256.088 L600.959,254.975 L601.427,253.913 L602.015,252.005 L602.258,251.521 L602.121,251.42 L602.255,251.104 L602.045,250.623 L601.688,250.445 L600.91,250.413 L599.393,250.672 L598.734,250.457 L598.513,250.02 L598.835,249.299 L600.533,247.885 L602.139,245.991 L603.745,242.814 L604.085,241.972 L604.034,241.789 L604.176,241.209 L604.432,241.012 L604.339,240.666 L603.992,240.55 L602.985,240.787 L601.949,240.767 L601.701,240.538 L601.648,239.945 L602.174,238.597 L603.717,236.338 L604.458,235.694 L605.013,234.474 L604.896,233.704 L604.123,231.731 L604.255,231.074 L604.88,230.225 L605.393,230.017 L607.592,228.25 L608.131,227.541 L607.926,224.158 L607.823,223.936 L607.376,223.232 L606.441,222.178 L604.764,219.61 L604.285,219.185 L603.218,218.627 L602.402,217.807 L601.855,217.002 L601.349,215.817 L601.07,212.943 L601.021,210.812 L601.665,206.327 L601.685,204.107 L601.516,201.126 L600.398,196.775 L599.02,193.376 L598.612,191.163 L598.701,190.193 L599.023,188.889 L599.524,187.913 L600.041,187.207 L600.682,186.436 L602.823,185.283 L603.617,184.401 L604.647,183.68 L604.906,183.25 L606.089,181.825 L608.704,179.774 L610.846,177.705 L611.849,176.509 L613.519,174.123 L614.829,171.902 L615.974,169.434 L616.554,167.451 L616.85,165.66 L616.96,164.02 L616.863,162.211 L616.233,159.627 L615.825,158.375 L615.267,157.154 L614.053,155.222 L612.86,154.032 L610.344,152.231 L608.116,151.205 L609.056,149.019 L607.174,147.917 L608.111,146.237 L606.021,145.103 L609.323,137.95 L610.779,136.581 L615.437,138.254 L621.099,140.491 L627.943,123.944 L635.632,127.775 L639.594,118.11 L648.29,113.237 L655.507,116.943 L658.624,118.397 L658.36,119.763 L660.785,121.231 L660.651,121.972 L662.26,122.704 L662.12,123.606 L662.046,124.054 L664.713,124.111 L665.603,123.782 L667.298,123.007 L669.669,121.508 L672.366,119.238 L681.536,122.047 L696.777,126.831 L697.645,122.615 L698.137,122.647 L698.828,123.042 L699.893,123.917 L702.289,121.068 L703.295,120.618 L704.345,121.019 L705.236,121.12 L706.914,120.416 L707.547,119.627 L708.555,117.653 L709.921,118.127 L710.111,116.981 L711.234,117.21 L711.224,117.576 L712.181,117.779 L712.278,117.309 L712.932,118.738 L713.8,118.822 L713.876,118.668 L713.479,118.236 L713.218,117.255 L713.34,116.753 L712.514,116.501 L711.71,115.77 L710.681,115.13 L710.616,114.67 L711.92,111.049 L712.177,108.593 L712.316,108.237 L713.131,107.718 L714.541,108.131 L714.74,107.938 L714.5,107.258 L714.523,106.682 L714.675,106.015 L714.992,105.583 L715.214,105.044 L715.103,102.355 L714.892,101.554 L716.235,99.0602 L716.167,98.1358 L716.844,98.8032 L717.115,99.2233 L719.344,100.825 L721.385,102.842 L721.278,103.294 L723.27,105.736 L723.845,106.917 L724.007,108.343 L724.218,108.741 L724.164,108.998 L724.405,109.426 L725.195,109.735 L726.753,107.142 L746.573,113.039 L750.732,115.372 L753.019,116.778 L754.061,115.943 L757.011,114.277 L759.482,113.504 L763.081,112.521 L764.359,112.171 L765.197,112.063 L767.386,111.351 L771.304,109.702 L776.577,107.248 L784.31,102.135 L784.536,101.992 L793.902,118.11 L807.833,138.125 L816.008,143.314 L827.785,168.942 L835.302,176.822 L839.479,175.82 L841.149,172.112 L845.76,172.774 L850.712,172.885 L862.807,182.73 L871.999,173.692 L887.323,170.694 L895.91,175.488 L904.594,197.037 L912.456,200.871 L910.662,201.696 L904.047,218.648 L905.627,218.341 L908.764,218.658 L909.653,219.588 L910.604,218.658 L910.617,219.584 L911.561,218.644 L912.498,218.637 L913.435,217.714 L915.297,217.713 L915.332,223.34 L907.77,230.899 L906.898,232.674 L906.82,237.454 L910.616,239.374 L910.607,258.161 L911.586,263.711 L897.507,268.508 L885.369,273.203 L890.979,290.086 L892.857,292.902 L893.795,293.832 L890.475,296.357 L890.042,296.685 L887.245,298.55 L883.474,300.456 L873.221,308.928 L865.658,313.611 L861.189,317.28 L848.936,323.972 L844.256,326.734 L837.748,331.429 L820.848,345.48 L805.834,355.912 L805.859,359.688 L807.738,360.655 L813.333,366.251 L815.162,366.223 L817.114,368.128 L818.022,368.128 L818.973,369.078 L818.008,371.91 L817.122,372.804 L815.263,373.747 L813.388,376.505 L809.611,381.268 L812.442,386.894 L814.304,389.703 L817.123,390.647 L821.805,395.332 L823.678,395.329 L826.483,397.205 L829.289,400.013 L830.233,400.012 L830.234,400.959 L831.164,401.89 L831.165,402.822 L832.11,402.821 L832.111,403.768 L833.04,403.767 L833.985,404.698 L833.988,407.524 L835.848,408.454 L836.793,409.4 L837.724,411.263 L837.732,418.779 L838.677,419.71 L838.679,421.589 L839.611,423.467 L839.611,424.414 L842.432,427.221 L842.433,428.153 L843.363,429.099 L846.167,431.907 L847.113,433.784 L849.918,436.592 L851.792,437.537 L854.596,440.345 L856.47,441.29 L859.273,443.15 L860.218,444.096 L860.22,445.975 L863.965,445.972 L865.839,446.902 L865.84,447.848 L867.699,449.71 L869.571,448.777 L879.86,450.629 L881.738,452.524 L883.613,455.332 L884.545,459.088 L886.42,462.844 L889.238,465.651 L892.972,471.284 L894.847,475.97 L898.595,480.655 L900.468,482.532 L902.343,487.218 L905.146,490.972 L908.893,494.726 L912.638,497.533 L921.987,505.971 L925.732,509.724 L932.277,512.53 L935.077,512.529 L937.877,514.406 L939.749,514.405 L942.565,515.336 L945.364,514.404 L948.165,515.334 L949.108,514.403 L950.036,514.402 L953.78,518.157 L954.709,518.157 L955.652,520.034 L956.581,520.034 L957.524,521.896 L957.525,522.842 L956.581,523.773 L957.525,523.773 L957.525,524.719 L960.325,525.65 L960.325,526.596 L962.197,527.527 L962.197,531.282 L965.941,535.036 L968.741,536.898 L974.34,538.775 L978.083,543.475 L979.026,543.475 L979.954,545.337 L979.954,548.16 L979.026,550.037 L977.155,550.968 L976.211,551.914 L976.211,552.845 L975.284,553.776 L976.212,558.476 L977.155,559.407 L977.155,560.338 L978.083,561.284 L978.083,563.161 L979.026,563.161 L979.954,563.161 L979.954,564.091 L979.954,565.038 L979.026,565.968 L979.026,566.914 L978.083,567.845 L978.083,568.776 L977.155,569.722 L977.155,570.653 L978.083,572.529 L978.083,575.352 L979.026,575.352 L979.026,577.213 L980.897,579.09 L980.897,580.967 L981.825,580.967 L981.825,581.912 L982.753,583.789 L982.753,584.72 L983.696,585.65 L984.623,585.651 L986.494,586.597 L986.494,587.527 L987.437,587.527 L989.307,589.404 L990.235,589.404 L990.235,590.35 L991.163,590.35 L991.163,591.28 L992.106,591.281 L993.034,590.35 L994.904,590.35 L994.904,591.281 L995.847,591.281 L995.847,592.211 L996.775,591.281 L996.775,592.211 L998.645,591.281 L999.573,591.281 L999.573,590.351 L1000.52,590.351 L999.573,589.405 L1000.52,589.405 L1000.52,588.474 L1010.72,591.263 L1010.8,591.283 L1011.02,591.618 L1012.65,594.091 L1018.26,598.791 L1019.2,600.652 L1022,601.599 L1024.8,603.476 L1026.68,605.381 L1026.67,607.229 L1025.74,610.966 L1025.74,611.912 L1025.74,612.842 L1026.67,614.719 L1025.74,617.525 L1025.74,622.223 L1025.74,623.153 L1026.66,625.029 L1028.53,625.961 L1029.46,626.906 L1031.33,627.838 L1032.27,628.784 L1034.14,629.715 L1036,630.661 L1036.94,631.592 L1037.87,631.592 L1039.73,632.523 L1041.6,634.4 L1042.55,635.346 L1045.34,636.278 L1047.21,637.224 L1047.21,639.1 L1046.27,640.03 L1045.68,641.985 L1049.58,640.555 L1054.84,636.347 L1062.74,635.268 L1066.57,632.929 L1070.02,619.759 L1083.31,611.483 L1139.36,614.968 L1163.2,620.75 L1173.97,626.308 L1179.32,624.542 L1180.66,621.756 L1180.87,621.322 L1181.3,619.487 L1180.01,617.715 L1181.66,615.78 L1184.42,615.62 L1187.35,617.683 L1189.21,617.685 L1189.2,616.772 L1192.01,616.753 L1193.84,617.68 L1195.79,619.593 L1197.62,620.514 L1198.57,618.656 L1200.42,618.653 L1201.36,614.899 L1203.26,615.817 L1205.11,617.721 L1206.97,617.727 L1209.8,618.685 L1210.72,618.668 L1213.51,620.539 L1228.43,627.128 L1232.22,628.09 L1235.08,628.102 L1243.49,630.939 L1247.11,632.785 L1247.18,635.682 L1247.98,640.244 L1249.87,640.245 L1250.76,641.205 L1260.14,644.965 L1267.6,648.755 L1269.46,653.466 L1270.37,658.106 L1277.84,666.559 L1285.31,674.102 L1289.73,669.474 L1296.24,672.809 L1321.06,673.396 L1333.15,668.037 L1336.6,668.617 L1339.86,669.577 L1341.71,670.551 L1352.84,673.29 L1355.15,674.094 L1357.82,674.931 L1358.32,675.004 L1362.07,674.114 L1366.1,672.691 L1370.3,671.66 L1372.52,670.992 L1384.6,667.97 L1387.39,666.854 L1402.63,662.238 L1405.15,661.891 L1409.44,661.12 L1413.38,660.475 L1416.21,660.177 L1421.15,659.357 L1426.92,658.541 L1431.1,658.076 L1435.61,656.827 L1438.94,655.945 L1439.5,655.782 L1439.72,655.799 L1440.28,656.415 L1440.82,657.044 L1442.61,658.077 L1443.29,658.287 L1443.81,658.152 L1444.69,657.972 L1445.62,657.844 L1448.11,658.207 L1449.8,658.79 L1451.13,659.742 L1452.45,661.506 L1453.98,662.576 L1456.39,664.785 L1459.39,668.179 L1461.24,669.933 L1464.75,673.017 L1467.25,675.442 L1468.71,676.617 L1468.57,676.852 L1469.1,676.905 L1470.05,677.497 L1470.89,677.767 L1471.3,678.102 L1474.08,679.189 L1474.62,679.302 L1475.4,679.721 L1475.84,680.049 L1476.04,680.328 L1476.44,680.678 L1477.81,681.423 L1478.91,681.589 L1479.16,681.736 L1479.76,682.294 L1480.57,682.752 L1480.83,682.921 L1481.56,683.951 L1482.42,684.857 L1483.05,685.34 L1486.84,687.671 L1489.1,689.265 L1490.49,690.149 L1493.1,690.406 L1494.43,689.712 L1496.37,689.049 L1524.48,690.001 L1528.91,689.234 L1530.4,686.176 L1532.35,683.425 L1544.17,682.233 L1554.02,681.681 L1554.41,681.822 L1555.94,682.786 L1560.54,686.92 L1562.52,688.27 L1563.87,689.375 L1570.1,691.132 L1575.44,690.222 L1578.17,692.247 L1581.82,695.58 L1583.72,696.59 L1587.83,697.007 L1589.55,696.649 L1592.77,696.481 L1594.96,695.82 L1597.82,695.507 L1599.93,695.422 L1602.11,694.928 L1605.33,694.995 L1605.47,694.97 L1606.04,695.12 L1607.39,698.915 L1608.02,699.448 L1609.32,700.84 L1611.78,703.719 L1613.93,706.586 L1615.35,708.133 L1616.94,709.579 L1618.05,710.164 L1620.14,710.54 L1621.13,710.904 L1623.02,712.041 L1623.64,712.5 L1624.84,713.708 L1625.64,714.799 L1627.47,718.214 L1629.68,721.006 L1632,722.728 L1635.59,726.498 L1638.1,728.279 L1640.45,730.382 L1635.23,732.387 L1635.04,732.937 L1634.54,733.351 L1634.02,733.581 L1633.55,734.166 L1632.51,734.639 L1632.22,734.923 L1631.91,735.089 L1631.74,734.97 L1629.42,736.058 L1620.95,739.232 L1609,744.186 L1609.47,745.078 L1607.56,753.5 L1605.46,756.079 L1604.5,758.219 L1603.96,764.267 L1603.16,768.94 L1602.04,773.753 L1598.92,782.833 L1597.16,785.065 L1596.21,785.784 L1595.24,786.21 L1593.53,786.52 L1593.09,787.105 L1592.5,787.407 L1591.82,787.39 L1591.5,787.786 L1590.83,787.798 L1590.72,788.867 L1589.85,789.583 L1589.56,790.659 L1589.33,791.078 L1589.64,791.752 L1589.82,792.877 L1589.5,793.458 L1590.19,794.332 L1590.46,794.729 L1590.03,795.899 L1590.37,797.061 L1590.19,799.316 L1590.38,799.416 L1590.29,800.676 L1589.37,802.449 L1589.26,803.485 L1588.88,805.061 L1589.78,806.776 L1593.44,806.954 L1596.86,805.377 L1600.55,804.213 L1604.01,802.549 L1604.71,803.524 L1607.91,806.255 L1611.44,808.95 L1616.53,811.473 L1619.17,812.618 L1623.92,812.748 L1627.38,812.455 L1631.17,813.028 L1634.77,813.469 L1636.48,812.745 L1637.95,814.01 L1639.47,820.297 L1640.76,822.621 L1641.5,826.205 L1641.59,829.047 L1641.09,832.947 L1639.98,835.896 L1637.93,839.422 L1637.82,841.718 L1637.01,844.739 L1634.7,847.37 L1631.08,850.358 L1628.57,852.133 L1624.09,855.769 L1621.36,860 L1620.69,865.158 L1619.79,869.487 L1619.55,871.373 L1618.27,876.236 L1619.16,881.89 L1620.13,886.809 L1621.78,891.431 L1623.33,896.203 L1625,899.922 L1625.44,901.674 L1628.4,903.082 L1631.41,907.421 L1635.64,911.016 L1636.6,912.199 L1638.23,917.982 L1640.21,921.615 L1643.64,927.966 L1645.37,932.311 L1646.76,936.767 L1649.04,940.404 L1650.78,944.323 L1652.76,945.551 L1653.59,945.738 L1656.01,946.269 L1657.91,946.505 L1660.19,947.009 L1660.96,946.997 L1663.37,947.142 L1664.69,947.547 L1665.13,947.625 L1665.75,947.832 L1666.23,948.026 L1667.27,948.762 L1667.5,949.007 L1668.84,949.991 L1669.21,950.131 L1670.24,950.743 L1670.42,950.925 L1670.72,951.103 L1671.15,951.293 L1672.02,951.876 L1672.32,952.319 L1672.55,952.583 L1672.32,954.284 L1672.08,958.582 L1672.39,959.209 L1673.06,961.064 L1673.37,964.06 L1673.52,964.036 L1674.56,970.244 L1676.24,976.207 L1678.11,981.274 L1681.76,990.246 L1685.42,996.586 L1686.5,998.927 L1687.75,1002.02 L1688.98,1004.09 L1690.88,1008.12 L1691.77,1011.55 L1691.9,1011.58 L1696.25,1009.9 L1697.68,1009.45 L1698.93,1008.83 L1700.44,1008.28 L1703.82,1007.32 L1705.49,1006.61 L1706.26,1006.23 L1707.89,1005.12 L1712.29,1001.77 L1715.21,999.811 L1718.94,998.06 L1721.28,997.337 L1721.84,997.021 L1724.15,995.931 L1727.63,993.919 L1728.99,993.23 L1731.02,992.408 L1733.29,991.765 L1736.3,991.048 L1739.96,990.623 L1741.01,990.669 L1742.91,991.15 L1744.13,991.545 L1745.7,989.288 L1746.92,987.401 L1747.9,985.433 L1745.98,981.937 L1745.53,980.608 L1743.88,971.619 L1741.77,970.788 L1739.98,969.447 L1737.97,967.34 L1736.15,966.314 L1734.06,965.834 L1730.67,965.267 L1727.94,965.073 L1725.8,965.05 L1723.93,964.726 L1721.37,964.739 L1718.43,964.636 L1715.91,964.312 L1713.93,964.37 L1712.11,963.911 L1712.48,960.978 L1713.99,953.681 L1714.52,950.077 L1715.69,948.071 L1718.5,943.848 L1718.92,940.582 L1719.11,940.316 L1720.17,939.559 L1720.91,939.159 L1722.96,937.793 L1725.21,936.825 L1726.87,936.013 L1728.39,935.191 L1729.66,934.939 L1734.81,932.375 L1737.62,930.549 L1739.95,929.315 L1741.39,929.137 L1743.67,928.106 L1749.09,927.659 L1750.83,927.575 L1752.34,927.571 L1756.28,926.301 L1758.78,925.005 L1759.77,924.411 L1760.51,922.343 L1761.75,915.503 L1761.83,914.88 L1762.58,912.341 L1764.46,912.361 L1764.91,911.283 L1765.88,911.638 L1766.67,910.189 L1767.59,910.284 L1768.82,909.056 L1770.41,906.724 L1773.2,907.22 L1773.73,906.791 L1776.79,900.74 L1777.95,897.847 L1778.8,895.057 L1780.87,889.659 L1783.8,884.143 L1785.64,881.347 L1786.11,880.436 L1788.15,877.386 L1789.5,875.742 L1790.39,876.104 L1791.98,874.458 L1797.31,867.641 L1807.23,872.764 L1809.66,874.114 L1812.35,874.947 L1817.08,877.205 L1819.86,879.081 L1823.1,880.453 L1825.55,881.283 L1828.14,883.132 L1828.35,883.355 L1829.88,884.469 L1836.63,887.067 L1840.11,889.416 L1841.99,891.16 L1844.53,894.125 L1844.91,894.814 L1846.54,895.893 L1847.93,897.019 L1849.21,898.224 L1853.44,901.662 L1860.14,906.322 L1861.02,906.983 L1862.83,908.682 L1866.86,914.418 L1868.77,917.545 L1871.4,920.612 L1874.13,924.12 L1876.14,926.116 L1879.72,929.293 L1888.17,937.017 L1891.96,940.703 L1893.65,941.761 L1896.08,943.9 L1903.08,950.577 L1905.66,952.354 L1901.5,963.291 L1902.88,964.06 L1902.43,965.13 L1902.26,965.598 L1902.16,966.196 L1901.91,969.37 L1900.6,977.882 L1899.14,977.55 L1897.64,976.614 L1896.41,975.67 L1895.87,975.39 L1893.4,975.158 L1886.11,988.606 L1885.98,989.271 L1886.31,990.582 L1886.93,991.352 L1887.32,991.627 L1890.77,993.63 L1893.66,995.111 L1896.58,997.938 L1896.45,998.122 L1893.69,1000.75 L1889.56,1004.29 L1880.4,1011.26 L1883.68,1019.91 L1886.46,1025.45 L1888.98,1029.18 L1893.27,1034.75 L1900.83,1048.42 L1906.4,1061.63 L1907.45,1065.33 L1907.62,1067.77 L1906.98,1070.19 L1906.31,1073.96 L1906.71,1076.31 L1909.78,1079.02 L1911.38,1080.59 L1912.5,1082.21 L1913.74,1084.43 L1914.4,1086.98 L1914.81,1087.53 L1916.3,1088.91 L1918.19,1091.6 L1921.32,1094.15 L1923.08,1095.65 L1924.68,1097.24 L1926.34,1098.54 L1933.29,1103.18 L1934.42,1103.69 L1938.56,1105.08 L1942.55,1106.17 L1946.46,1107.83 L1949.9,1110.11 L1953.96,1110.69 L1958.29,1110.23 L1962.41,1110.5 L1965.42,1111.69 L1967.9,1113.88 L1965.88,1119.19 L1955.57,1136.02 L1956.77,1136.72 L1959.25,1138.03 L1962.88,1140.35 L1965.22,1141.17 L1965.94,1146.61 L1965.66,1149.37 L1965.77,1151.37 L1966.11,1152.92 L1967.62,1154.24 L1969.21,1156.04 L1972.43,1158.63 L1974.3,1162 L1979.2,1172.84 L1984.77,1181.69 L1987.92,1186.39 L1988.48,1192.25 L1989.29,1197.28 L1988,1203.6 L1987.24,1206.61 L1986.79,1208.05 L1986.49,1214.86 L1985.66,1219.16 L1983.18,1230.47 L1985.71,1234.35 L1988.25,1237.34 L1990.2,1239.34 L1992.5,1241.78 L1999.6,1249.82 L2004.12,1254.86 L2000.6,1259.08 L1998.69,1264.7 L1998.71,1267.94 L1996.18,1273.75 L1992.37,1280.11 L1989.84,1285.39 L1988.92,1288.72 L1986.44,1308.36 L1985.82,1309.69 L1978.87,1320.13 L1980.36,1321.13 L1991.31,1326.81 L1989.95,1331.41 L1984.8,1346.76 L1984.18,1348.54 L1981.57,1354.54 L1986.82,1359.12 L1994.56,1365.22 L2002.62,1369.03 L2012.56,1374.25 L2017.35,1379.24 L2020.73,1383.11 L2027.24,1387.58 L2030.56,1389.65 L2034.4,1393.44 L2045.36,1405.85 L2048.65,1411.01 L2055.16,1416.72 L2056.75,1420.48 L2060.45,1425.2 L2064.22,1429.41 L2077.5,1426.58 L2078.96,1422.85 L2082.77,1415.22 L2085.96,1409.69 L2089.22,1404.57 L2091.1,1404.18 L2093.08,1403.24 L2098.92,1399.24 L2104.23,1396.28 L2107.59,1393.62 L2109.78,1391.27 L2115.37,1385.84 L2117.44,1382.15 L2119.62,1376.46 L2119.88,1377.37 L2120.58,1377.85 L2120.98,1377.99 L2121.81,1377.35 L2122.21,1376.77 L2125.04,1379.66 L2126.22,1383.36 L2133.12,1389.34 L2135.88,1393.19 L2139.83,1390.93 L2144.92,1388.63 L2145.91,1387.36 L2148.85,1388.52 L2150.25,1388.85 L2154.17,1384.01 L2167.42,1393.8 L2171.85,1397.33 L2181.57,1383.74 L2187.36,1376.57 L2210.21,1392.14 L2208.97,1393.74 L2208.31,1394.84 L2202.82,1404.43 L2198.83,1406.24 L2192.93,1412.27 L2190.71,1415.09 L2188.9,1417.94 L2184.61,1424.04 L2179.51,1428.44 L2177.66,1429.58 L2175.27,1431.37 L2174.66,1434.9 L2174.61,1437.39 L2173.67,1439.66 L2173.81,1443.5 L2170.88,1451.27 L2170.79,1452.42 L2169.93,1456.25 L2168.95,1458.79 L2168.21,1460.98 L2166.79,1464.55 L2165.19,1468.11 L2164.61,1468.91 L2162.35,1471.1 L2161.67,1472.58 L2160.71,1473.56 L2156.72,1476.58 L2150.14,1482.89 L2146.87,1487.19 L2143.3,1492.25 L2138.71,1497.55 L2137.33,1498.62 L2142.32,1503.16 L2144.23,1505.24 L2145.19,1506.56 L2146.24,1508.21 L2148,1510.1 L2148.56,1510.58 L2149.23,1511.24 L2149.91,1511.79 L2151.29,1512.73 L2153.18,1514.2 L2153.72,1514.57 L2154.76,1515.54 L2155.31,1516.13 L2156.08,1516.86 L2156.82,1517.71 L2169.94,1526 L2176.19,1530.79 L2187.63,1539.28 L2207.84,1552.2 L2221.71,1562.42 L2231.17,1570.09 L2233.36,1574.25 L2236.64,1578.78 L2240.73,1582.4 L2242.5,1584.72 L2245.92,1589.41 L2246.68,1590.45 L2248.38,1592.75 L2248.87,1593.58 L2250,1595.48 L2254.07,1602.35 L2255.34,1605.18 L2256.57,1607.47 L2257.91,1611.03 L2258.63,1612.96 L2262.83,1622.95 L2263.87,1625.64 L2264.44,1627.16 L2265,1628.13 L2267.88,1634.63 L2268.82,1636.85 L2265.6,1645.49 L2282.92,1651.64 L2287.63,1653.82 L2290.14,1656.65 L2295.6,1662 L2309.33,1676.88 L2312.49,1679.82 L2313.83,1681.02 L2315,1682.3 L2315.86,1682.47 L2321.43,1686.28 L2335.11,1695.45 L2353.21,1705.38 L2378.22,1724.58 L2384.92,1729.72 L2392.29,1733.55 L2405.36,1743.82 L2410.15,1746.35 L2415.22,1749.09 L2426.73,1758.05 L2433.16,1762.04 L2437.49,1762.78 L2440.73,1764.48 L2442.67,1766.16 L2443.36,1766.6 L2446.08,1767.56 L2451.35,1769.74 L2452.69,1770.29 L2457.49,1772.22 L2464.83,1775.23 L2473.09,1779.1 L2479.66,1784.02 L2490.93,1790.81 L2497.65,1795.82 L2500.39,1799.12 L2500.62,1799.16 L2503.71,1802.78 L2507.09,1808.31 L2510.25,1812.94 L2514.27,1818.35 L2516.64,1822.15 L2519.97,1826.42 L2522.66,1828.57 L2524.71,1832.7 L2534.33,1841.02 L2539.59,1846.04 L2542.59,1856.39 L2541.74,1859.23 L2539.24,1868.19 L2538.22,1872.69 L2537.55,1876.87 L2542.16,1889.54 L2545.14,1893.03 L2555.16,1905.38 L2560.31,1915.14 L2561.62,1917.58 L2575.43,1942.61 L2584.4,1950.21 L2582.7,1960.89 L2577.3,1971.77 L2574.81,1976.23 L2570.55,1983.09 L2564.78,1993.97 L2561,2000.16 L2556.28,2014.22 L2545.07,2046.99 L2539.75,2060.84 L2538.67,2065.77 L2535.95,2073.97 L2541.13,2075.41 L2551.22,2077.5 L2561.29,2081.53 L2568.48,2085.01 L2572.98,2086.35 L2593.91,2093.42 L2606.81,2097.57 L2607.6,2097.88 L2611.1,2098.96 L2625.8,2107.87 L2629.12,2110.06 L2638.81,2118.09 L2645.23,2126.91 L2652.56,2132.36 L2663.97,2142.95 L2681.38,2150.96 L2686.76,2153.43 L2687.14,2163.82 L2687.13,2166.33 L2687.76,2178.36 L2695.22,2183.48 L2695.69,2183.65 L2695.73,2184.3 L2703.3,2209.96 L2713.18,2231.11 L2718.12,2247.15 L2718.12,2248.03 L2718.33,2248.05 L2718.6,2247.98 L2718.79,2248.11 L2718.41,2249.16 L2710.95,2261.08 L2699.41,2281.68 L2695.16,2288.48 L2680.55,2302.57 L2672.66,2309.49 L2660.35,2326.8 L2647.57,2335.13 L2646.9,2344.33 L2634.14,2385.12 L2647.76,2410.02 L2652.15,2425.34 L2643.32,2432.28 L2664.62,2461.22 L2662.38,2472.29 L2679.75,2484.89 L2681.71,2493.24 L2686.93,2505.29 L2690.14,2516.8 L2707.1,2581.56 L2725.06,2586.53 L2733.75,2592.41 L2741.43,2608.56 L2711.46,2670.11 L2701.4,2666.28 L2673.21,2640.99 L2670.46,2640.95 L2655.54,2656.45 L2609.4,2668.77 L2599.26,2670.49 L2554.86,2692.07 L2535.27,2715.82 L2532.45,2721.31 L2526.84,2729.55 L2526.73,2738.78 L2527.51,2750.77 L2528.09,2778.44 L2518.96,2773.72 L2486.95,2760.42 L2480.56,2756.67 L2478.73,2755.72 L2467.72,2754.68 L2454.86,2754.53 L2452.11,2754.5 L2446.59,2754.43 L2434.7,2748.76 L2430.14,2745.95 L2424.66,2742.2 L2416.43,2738.41 L2408.19,2735.56 L2403.63,2732.75 L2379,2714.95 L2374.44,2712.14 L2358.05,2697.2 L2356.22,2696.25 L2355.32,2695.33 L2351.66,2693.44 L2349.74,2700.81 L2347.84,2706.31 L2337.51,2728.34 L2334.65,2733.98 L2329.99,2743.93 L2327.16,2751.28 L2326.21,2753.12 L2326.14,2759.57 L2322.44,2763.22 L2320.56,2766.88 L2311.15,2787.98 L2302.71,2804.49 L2298.02,2814.58 L2291.51,2822.8 L2279.56,2823.61 L2273.14,2822.62 L2271.31,2821.69 L2228.39,2796.38 L2204.4,2806.29 L2191.49,2812.62 L2170.51,2796.75 L2158.65,2787.43 L2141.32,2773.44 L2128.57,2761.35 L2121.25,2756.66 L2118.52,2753.88 L2102.08,2741.74 L2092.94,2737.06 L2076.47,2727.7 L2064.58,2720.22 L2058.18,2716.47 L2053.64,2710.91 L2042.68,2702.52 L2033.56,2692.29 L2030.83,2689.51 L2020.82,2676.5 L2017.19,2670.02 L2012.63,2665.37 L2005.32,2659.79 L1999.85,2653.27 L1996.22,2646.78 L1988.94,2637.51 L1955.23,2595.71 L1942.77,2536.53 L1940.97,2532.82 L1939.2,2523.58 L1937.41,2516.17 L1934.71,2506.92 L1928.4,2488.4 L1908.77,2451.67 L1901.14,2437.38 L1890.2,2421.59 L1889.29,2418.81 L1886.55,2416.03 L1873.35,2395.16 L1872.51,2396.19 L1866.12,2404.92 L1861.81,2410.06 L1858.11,2415.23 L1844.56,2425.28 L1831.86,2428.03 L1830.8,2428.18 L1783.45,2418.56 L1746.77,2403.1 L1741.15,2400.65 L1739.65,2399.97 L1739.31,2400.03 L1733.87,2414.48 L1733.18,2416.55 L1728.73,2427.2 L1726.95,2433.65 L1722.33,2443.6 L1720.43,2448.45 L1717.97,2454.71 L1717.43,2457.69 L1714.71,2474.38 L1713.44,2481.05 L1710.97,2492.98 L1710.59,2494.13 L1710.65,2494.22 L1708.44,2504.34 L1706.08,2513.06 L1701.34,2526.08 L1697.39,2533.68 L1696.36,2536.55 L1694.73,2540.33 L1688.05,2553.09 L1687.14,2555.1 L1683.74,2555.69 L1668.15,2559.06 L1665.99,2558.99 L1654.06,2553.76 L1630.29,2544.87 L1623.91,2540.83 L1614.17,2534.93 L1612.45,2534.17 L1604.35,2541.37 L1587.2,2556.38 L1557.02,2582.48 L1546.84,2591.28 L1541.2,2596.01 L1536.59,2598.77 L1528.28,2605.19 L1521.82,2608.86 L1495.14,2608.75 L1490.92,2610.2 L1453.69,2623.36 L1440.77,2633.46 L1430.57,2657.41 L1391.21,2600.99 L1422.74,2526.3 L1430.14,2518.95 L1446.76,2504.23 L1450.45,2499.63 L1477.92,2462.4 L1461.84,2447.41 L1455.86,2439.57 L1449.99,2431.86 L1442.86,2422.35 L1437.63,2415.66 L1418.7,2396.42 L1416.83,2395.18 L1413.25,2393.37 L1412.47,2392.8 L1409.02,2390.67 L1396.05,2383.44 L1369.03,2377.78 L1347.72,2362.5 L1337.6,2364.32 L1324.67,2364.29 L1318.22,2365.21 L1312.7,2366.11 L1305.31,2367.94 L1295.16,2370.69 L1271.17,2423.25 L1248.87,2472.26 L1241.54,2459.31 L1237.87,2451.9 L1174.31,2456.41 L1166,2468.41 L1140.2,2487.78 L1133.72,2501.63 L1133.01,2502.52 L1126.35,2510.85 L1121.75,2514.54 L1116.72,2515.86 L1104.24,2519.14 L1088.59,2523.76 L1079.32,2524.74 L1074.78,2527.43 L1065.57,2535.73 L1066.48,2544.98 L1066.47,2556.97 L1065.56,2561.6 L1063.71,2566.21 L1061.86,2572.67 L1060.95,2578.21 L1058.18,2579.13 L1048.06,2582.82 L1032.41,2592.97 L1024.13,2596.64 L1021.37,2598.49 L1018.61,2604.95 L1014.93,2602.18 L1009.41,2594.79 L1002.97,2593.87 L992.846,2588.33 L979.967,2583.72 L968.001,2581.87 L960.647,2577.26 L952.364,2573.56 L943.167,2569.88 L940.394,2564.34 L937.638,2564.34 L938.551,2561.58 L936.707,2556.95 L923.824,2555.11 L919.224,2554.19 L910.026,2552.35 L898.97,2550.51 L892.528,2549.59 L887.927,2546.83 L870.441,2542.22 L856.625,2538.55 L847.424,2536.71 L840.05,2533.93 L839.136,2533.93 L835.45,2533.02 L831.764,2533.03 L831.767,2535.79 L831.775,2542.25 L832.709,2546.88 L833.629,2552.41 L836.404,2556.11 L838.234,2557.95 L841.923,2561.64 L849.298,2567.17 L852.057,2570.86 L859.307,2576.48 L862.192,2581.01 L864.036,2583.77 L865.882,2588.38 L865.883,2589.31 L864.956,2590.23 L864.043,2591.16 L863.115,2592.08 L862.204,2594.84 L861.281,2600.39 L858.53,2605 L854.852,2610.55 L852.384,2612.61 L849.203,2613.69 L848.302,2614.29 L842.512,2603.81 L830.424,2587.01 L824.736,2580.63 L815.801,2570.61 L814.495,2571.42 L813.715,2570.57 L811.017,2568.28 L809.98,2567.22 L809.065,2566.34 L807.152,2564.63 L805.946,2563.7 L805.648,2563.68 L805.244,2563.41 L805.122,2563.06 L804.745,2562.52 L800.853,2559.52 L797.668,2556.99 L796.475,2556.18 L792.166,2552.22 L789.739,2549.31 L788.206,2547.86 L786.215,2546.05 L786.304,2545.66 L785.97,2545.22 L785.541,2544.88 L784.761,2544.4 L782.849,2542.68 L782.528,2542.6 L781.673,2541.9 L781.073,2541.6 L779.966,2540.74 L778.995,2540.09 L777.877,2539.36 L776.778,2538.39 L775.82,2537.74 L772.701,2535.48 L769.779,2533.26 L767.511,2531.7 L765.994,2530.55 L765.106,2530.02 L764.32,2529.46 L763.598,2529.05 L763.077,2528.84 L762.624,2528.37 L761.415,2527.55 L758.992,2526.25 L757.895,2525.25 L757.511,2524.77 L756.525,2523.83 L755.813,2523.53 L754.374,2522.32 L754.285,2522.17 L752.475,2520.81 L751.769,2520.02 L751.485,2519.51 L750.23,2518.58 L749.055,2517.46 L747.736,2516.05 L747.043,2515.54 L746.205,2514.78 L745.058,2513.62 L742.57,2515.48 L739.483,2511.05 L734.973,2503.93 L727.297,2475.88 L723.006,2456.52 L715.4,2425.38 L713.874,2419.13 L708.771,2384.54 L704.498,2367.78 L693.623,2339.83 L692.068,2322.49 L692.364,2319.18 L693.087,2315.67 L693.636,2311.36 L693.674,2311.12 L693.978,2308.5 L693.994,2306.72 L693.918,2304.96 L694.084,2294.85 L694.554,2289.67 L694.843,2288.63 L702.156,2262.3 L704.535,2238.78 L705.367,2230.55 L706.565,2221 L707.633,2212.49 L716.323,2191.43 L732.743,2166.96 L748.244,2141.84 L749.228,2139.55 L754.936,2127.05 L756.946,2112.84 L757.277,2095.05 L759.217,2089.45 L767.919,2064.32 L770.674,2051.43 L772.008,2045.19 L769.675,2021.82 L751.472,2020.72 L739.199,2019.92 L722.844,2016.19 L715.62,2014.46 L706.304,2012.23 L705.384,2015 L701.477,2005.39 L697.758,1998.7 L694.129,1992.18 L697.412,1979.52 L702.356,1968.88 L707.018,1956.27 L691.839,1949.29 L685.347,1946.37 L679.806,1944.96 L672.764,1948.38 L669.322,1946.52 L674.195,1944.32 L679.085,1931.53 L684.694,1924.29 L682.789,1922.24 L678.15,1913.06 L670.23,1902.75 L662.392,1893.62 L652.167,1881.51 L646.805,1876.6 L642.022,1872.23 L629.41,1862.6 L629.126,1862.42 L628.938,1862.25 L625.628,1864.85 L616.407,1856.41 L614.916,1855.04 L605.985,1845.06 L591.966,1828.72 L589.183,1824.82 L587.644,1822.73 L584.905,1817.41 L586.087,1816.2 L585.495,1814.85 L584.878,1813.47 L583.322,1811.03 L581.624,1808.83 L580.532,1805.55 L578.937,1803.35 L574.658,1799.36 L573.674,1797.68 L571.504,1795.64 L567.041,1791.65 L563.882,1788.68 L561.12,1785.63 L559.61,1786.75 L558.821,1785.92 L557.799,1784.51 L557.474,1783.85 L557.111,1782.76 L556.086,1780.12 L553.098,1775.17 L552.822,1774.71 L550.912,1769.94 L549.111,1766.43 L547.023,1763.43 L545.449,1759.58 L543.373,1755.46 L539.817,1746.71 L535.56,1741.44 L533.606,1739.44 L523.605,1730.51 L519.2,1726.67 L515.365,1722.87 L510.554,1715.95 L502.194,1707.75 L505.623,1700.05 L506.53,1698.22 L506.571,1697.19 L507.484,1694.5 L511.16,1687.01 L513.009,1684.24 L516.686,1681.45 L520.339,1677.71 L525.025,1673.94 L525.913,1673.04 L533.783,1670.97 L555.687,1653.21 L554.637,1649.14 L554.489,1648.56 L554.375,1648.07 L554.042,1646.64 L552.786,1642.17 L552.565,1641.38 L551.63,1636.92 L557.63,1629.59 L557.066,1628.61 L556.443,1627.52 L553.819,1623.15 L553.216,1621.01 L553.107,1620.62 L553.064,1620.47 L553.025,1620.31 L552.692,1618.94 L552.447,1617.94 L552.083,1616.44 L551.608,1614.53 L550.706,1610.91 L549.98,1607.99 L549.891,1603.85 L550.349,1597.74 L550.64,1595.43 L551.115,1593.95 L551.137,1591.73 L550.937,1590.94 L550.773,1590.15 L550.703,1589.77 L550.592,1589.09 L550.461,1588.28 L550.098,1585.81 L549.971,1584.91 L549.863,1584.18 L549.762,1583.38 L549.626,1582.25 L549.314,1577.9 L549.17,1577.01 L548.704,1575.89 L547.911,1574.38 L547.142,1572.91 L546.114,1570.65 L545.081,1568.39 L542.673,1563.18 L542.251,1561.64 L541.598,1559.27 L541.25,1558 L540.915,1556.79 L540.564,1555.53 L540.157,1554.29 L539.388,1553.49 L538.141,1552.26 L537.007,1551.14 L536.006,1550.15 L534.016,1547.82 L533.271,1546.95 L530.711,1543.97 L530.151,1543.33 L527.749,1541.04 L527.148,1540.58 L525.609,1539.1 L523.624,1536.58 L521.724,1534.05 L519.4,1530.96 L519.031,1530.66 L518.243,1530.2 L516.518,1529.19 L514.825,1527.93 L514.528,1527.62 L512.278,1526.09 L511.655,1525.74 L510.838,1525.2 L501.081,1504.91 L501.941,1501.3 L491.251,1490.02 L484.081,1493.7 L477.638,1498.25 L469.848,1495.29 L464.478,1490.48 L457.028,1492.99 L449.144,1479.81 L445.274,1472.07 L426.751,1435.04 L399.131,1391.4 L398.067,1361.72 L394.791,1352.61 L397.863,1340.24 L398.601,1337.27 L400.373,1334.33 L408.124,1322.91 L408.401,1321.56 L407.291,1316.85 L405.946,1311.06 L399.142,1300.49 L396.789,1296.66 L393.351,1290.87 L388.852,1282.55 L398.592,1270.91 L399.023,1270.4 L400.61,1268.78 L400.856,1268.53 L403.647,1265.7 L404.562,1263.83 L412.899,1257.27 L421.527,1251.03 L425.872,1247.89 L427.729,1246.96 L437.019,1243.18 L438.868,1240.37 L442.572,1239.42 L442.56,1236.63 L443.491,1234.76 L443.487,1233.82 L442.545,1232.9 L441.614,1231.03 L440.468,1226.75 L439.729,1225.44 L439.714,1221.72 L440.617,1217.04 L441.536,1212.38 L441.509,1205.85 L442.432,1205.84 L453.58,1200.21 L460.082,1198.31 L462.859,1196.44 L472.132,1190.79 L474.91,1185.18 L474.896,1181.46 L475.805,1177.72 L479.497,1169.31 L480.42,1169.3 L483.207,1165.56 L486.902,1161.81 L493.399,1158.06 L501.755,1153.35 L504.546,1150.54 L504.539,1148.68 L506.398,1147.74 L507.322,1147.74 L509.181,1146.79 L511.958,1143.98 L515.67,1140.23 L519.385,1137.42 L524.942,1132.74 L527.753,1135.53 L534.256,1132.71 L537.978,1131.75 L543.545,1129.87 L539.804,1125.21 L537.017,1125.22 L535.144,1122.43 L534.214,1120.57 L533.272,1119.65 L533.265,1117.78 L533.262,1116.83 L531.392,1114.97 L531.379,1111.25 L530.446,1108.44 L529.522,1108.44 L527.655,1107.52 L524.846,1105.67 L522.988,1102.88 L521.119,1101.01 L520.179,1101.02 L518.313,1100.08 L516.443,1098.22 L513.652,1097.3 L510.861,1096.39 L501.52,1089.89 L499.665,1088.02 L496.852,1085.22 L495.924,1084.3 L494.057,1083.36 L493.111,1081.51 L488.449,1078.72 L487.517,1076.85 L489.381,1076.84 L494.036,1077.77 L494.96,1077.77 L496.824,1077.76 L498.694,1079.62 L500.558,1079.61 L504.289,1080.53 L507.083,1082.39 L515.455,1080.49 L517.312,1078.61 L522.902,1078.59 L526.615,1078.58 L530.339,1077.64 L533.126,1077.63 L534.99,1077.62 L537.793,1077.61 L537.79,1076.67 L538.695,1071.07 L540.546,1067.33 L542.394,1062.65 L539.555,1052.39 L540.495,1052.38 L558.201,1058.86 L562.86,1060.72 L572.2,1067.22 L575.933,1069.08 L577.79,1071.87 L579.657,1072.81 L585.265,1078.38 L592.729,1086.77 L599.259,1086.75 L604.837,1087.67 L606.701,1087.67 L607.627,1088.59 L608.567,1088.59 L609.494,1089.53 L614.165,1091.37 L619.748,1094.16 L621.614,1095.09 L631.85,1093.19 L639.283,1091.3 L644.864,1087.56 L647.656,1089.42 L655.122,1094.07 L660.712,1094.06 L663.502,1094.98 L666.292,1095.91 L666.986,1096.25 L667.268,1096.39 L670.023,1097.76 L680.272,1101.47 L681.19,1098.67 L681.157,1096.28 L680.253,1093.07 L679.309,1091.2 L675.591,1088.41 L677.43,1084.67 L678.359,1080 L678.33,1067.86 L678.309,1058.52 L677.365,1056.66 L675.498,1049.2 L673.628,1046.39 L671.752,1041.73 L671.737,1035.19 L667.997,1030.53 L663.333,1025.87 L662.379,1020.26 L662.37,1016.52 L661.438,1013.73 L656.768,1007.2 L653.029,1003.47 L650.23,999.736 L662.312,993.166 L665.108,989.417 L662.299,987.553 L658.575,983.836 L659.495,981.963 L658.565,980.095 L659.485,978.221 L660.423,977.291 L661.341,974.475 L661.334,971.676 L663.19,967.929 L664.109,965.128 L664.104,963.257 L660.382,960.467 L659.43,955.784 L658.498,952.987 L659.416,950.186 L661.275,947.382 L663.135,945.506 L666.873,948.296 L668.717,945.492 L671.336,944.605 L671.52,944.542 L675.247,942.662 L680.829,942.649 L682.696,943.588 L684.56,942.64 L686.417,938.908 L691.077,940.754 L693.872,942.619 L696.682,944.484 L698.548,944.48 L704.125,942.596 L705.062,940.723 L706.916,942.59 L709.722,942.585 L711.58,938.853 L712.503,937.908 L712.499,936.036 L714.361,934.161 L716.221,931.357 L718.087,931.353 L718.844,931.117 L720.876,930.42 L721.801,930.418 L722.743,931.344 L724.609,931.34 L727.398,930.407 L732.06,933.197 L734.865,932.248 L736.731,932.245 L737.658,933.186 L739.523,933.183 L740.447,932.238 L742.314,933.178 L744.183,935.046 L746.049,935.042 L748.843,936.909 L748.845,937.837 L750.505,938.501 L753.505,939.7 L756.316,942.495 L758.184,944.363 L761.904,946.228 L764.714,949.022 L769.373,950.886 L770.3,951.828 L773.112,955.55 L773.115,957.422 L779.63,953.684 L780.555,953.683 L783.341,950.864 L784.282,950.862 L784.28,949.934 L786.146,949.932 L788.008,948.058 L790.799,948.053 L790.798,947.125 L791.723,947.124 L792.662,946.179 L793.584,944.306 L794.523,943.377 L794.522,942.434 L795.446,941.504 L796.383,939.632 L799.164,932.142 L801.95,928.41 L802.886,925.593 L804.748,922.791 L807.537,920.916 L805.67,919.99 L802.877,919.05 L801.01,918.124 L796.347,914.388 L794.479,912.518 L795.398,907.845 L793.527,905.047 L790.733,903.179 L790.693,902.98 L789.801,898.508 L788.861,899.438 L787.936,899.44 L786.066,896.642 L785.122,894.771 L783.254,893.831 L781.403,893.833 L779.537,893.836 L778.596,893.838 L777.669,892.911 L776.726,891.04 L775.795,888.241 L773.926,886.372 L772.998,884.501 L772.057,884.503 L771.128,882.632 L770.178,877.016 L773.901,870.465 L774.836,866.734 L777.619,861.111 L779.483,859.236 L777.603,850.82 L777.6,848.947 L775.726,844.275 L775.72,840.53 L776.27,839.472 L776.26,838.352 L775.834,836.605 L775.844,835.547 L776.038,834.16 L776.634,833.052 L777.574,832.106 L778.497,830.232 L783.144,821.803 L772.891,818.088 L762.617,811.557 L760.748,810.615 L756.074,803.145 L755.129,801.274 L751.37,778.812 L747.61,765.717 L747.605,762.914 L747.6,760.095 L747.58,748.866 L747.371,744.745 L746.628,743.245 L745.694,739.513 L743.821,736.698 L742.885,732.021 L741.94,730.148 L740.068,728.277 L739.139,727.349 L735.395,723.607 L733.525,722.681 L731.652,720.81 L727.926,718.943 L723.241,716.148 L720.442,714.279 L716.702,713.342 L712.033,711.477 L708.292,709.625 L703.625,708.69 L701.754,707.764 L697.087,706.829 L693.347,705.908 L689.622,704.971 L686.809,704.048 L675.608,703.129 L667.203,702.219 L663.527,701.333 L659.74,700.617 L656.926,700.37 L654.107,691.017 L653.116,690.705 L652.844,689.473 L652.836,688.871 L653.921,685.308 L655.535,682.973 L659.067,679.413 L660.225,677.949 L660.295,677.843 L660.359,677.755 L663.593,674.064 L665.29,671.754 L665.577,670.935 L665.721,669.985 L665.634,669.37 L665.392,668.809 L664.877,668.314 L662.214,667.947 L661.603,667.802 L660.41,667.3 L660.071,667.096 L659.564,666.432 L658.922,665.007 L658.953,663.417 L658.2,662.541 L657.744,662.249 L656.244,661.84 L654.802,661.958 L653.355,662.295 L650.85,663.041 L649.076,663.75 L647.374,664.266 L645.967,664.549 L642.324,665.083 L640.382,665.061 L639.483,664.859 L637.732,664.119 L635.888,662.893 L634.758,661.956 L633.158,660.337 L631.225,658.88 L629.586,657.96 L626.401,656.685 L625.405,656.175 L623.976,655.349 L622.387,654.192 L622.313,654.138 M788.631,1368.29 L790.159,1367.19 L791.468,1367 L792.364,1367.04 L793.983,1366.24 L795.308,1365.93 L795.501,1365.71 L796.661,1365.38 L797.54,1365.44 L797.052,1369.77 L796.816,1375.76 L795.639,1380.14 L794.346,1384.97 L794.323,1386.63 L795.053,1389.92 L795.041,1391.04 L793.783,1394.45 L795.133,1397.1 L796.216,1410.87 L796.528,1416.39 L793.131,1414.72 L792.362,1413.47 L789.346,1411.74 L788.308,1411.54 L786.076,1412.78 L783.668,1412.11 L782.393,1417.07 L784.034,1417.5 L786.135,1418.06 L789.833,1419.48 L793.919,1421.05 L796.183,1417.56 L802.204,1421.4 L802.491,1421.65 L803.01,1421.97 L803.236,1422.11 L804.18,1422.68 L806.26,1423.99 L807.749,1424.96 L808.553,1425.51 L809.151,1425.92 L812.167,1428.73 L810.145,1429.24 L809.093,1429.63 L806.952,1435.63 L804.562,1440.07 L804.215,1440.71 L804.151,1440.82 L804.016,1441.05 L803.93,1441.17 L803.82,1441.25 L803.682,1441.29 L803.578,1441.31 L803.466,1441.3 L803.292,1441.27 L802.962,1441.23 L801.885,1441.22 L801.373,1441.24 L801.492,1441.85 L800.958,1442.17 L799.592,1443.9 L799.737,1444.03 L799.439,1444.56 L799.154,1445.06 L799.152,1445.06 L799.022,1445.32 L798.852,1445.6 L798.415,1446.17 L798.101,1446.56 L797.786,1447.05 L797.267,1447.9 L796.706,1448.69 L796.3,1449.46 L795.742,1450.51 L795.547,1450.88 L794.354,1453.63 L794.11,1454.21 L794.275,1454.28 L794.674,1454.43 L796.142,1455.07 L797.702,1455.75 L803.372,1458.23 L804.821,1458.93 L806.177,1459.59 L806.58,1459.84 L807.671,1460.55 L809.987,1462.04 L810.422,1462.41 L810.962,1462.97 L811.288,1463.47 L811.298,1463.94 L811.095,1464.31 L810.296,1465.92 L810.245,1466.25 L810.483,1467.13 L810.651,1468.82 L811.502,1469.7 L811.937,1470.37 L812.398,1471.33 L812.972,1472.37 L813.146,1472.75 L813.28,1473.55 L813.175,1473.78 L812.713,1474.78 L811.742,1475.58 L811.667,1475.84 L812.174,1476.14 L812.519,1476.82 L811.974,1478.75 L811.856,1478.97 L806.6,1477.6 L804.018,1476.79 L804.024,1476.91 L803.975,1477.11 L803.931,1477.24 L803.863,1477.4 L803.56,1477.95 L803.376,1478.33 L803.095,1479 L802.646,1480.07 L802.071,1481.44 L801.262,1483.37 L801.205,1483.51 L800.248,1485.79 L800.15,1486.09 L800.074,1486.36 L799.877,1486.89 L799.847,1486.94 L799.748,1487.06 L799.726,1487.1 L799.711,1487.15 L799.697,1487.19 L798.997,1489.09 L798.691,1489.67 L798.604,1489.73 L798.547,1489.82 L798.471,1489.99 L798.408,1490.15 L798.059,1490.99 L797.964,1491.18 L797.735,1491.81 L797.6,1492.17 L797.533,1492.25 L797.879,1492.79 L798.073,1492.98 L799.788,1494.25 L800.812,1495.02 L801.632,1495.59 L802.415,1496.18 L802.462,1496.15 L805.929,1498.92 L807.064,1499.89 L806.894,1503.09 L806.776,1503.31 L815.948,1514.56 L824.601,1510.01 L829.163,1505.11 L833.889,1507.83 L838.366,1511.03 L843.423,1514.96 L849.377,1521.3 L851.658,1525.32 L854.185,1529.76 L856.169,1532.32 L857.585,1534.09 L858.548,1535.32 L860.915,1538.44 L864.088,1542.29 L864.385,1542.65 L864.732,1543.02 L865.067,1543.42 L865.533,1543.96 L866.316,1544.9 L867.834,1546.81 L868.195,1547.36 L868.254,1547.45 L868.479,1547.81 L868.688,1548.28 L869.567,1551.14 L870.127,1552.92 L870.198,1553.14 L870.415,1553.83 L870.545,1554.24 L870.762,1554.94 L870.804,1555.07 L870.895,1555.36 L870.97,1555.59 L871.209,1556.36 L871.573,1557.51 L871.862,1558.43 L871.948,1558.7 L872.07,1559.1 L872.591,1560.77 L872.75,1561.28 L872.789,1561.41 L873.168,1561.52 L874.699,1567.27 L874.745,1567.44 L873.326,1574.64 L873.03,1576.16 L872.08,1581.04 L866.661,1581.11 L866.096,1581.39 L853.647,1591.09 L855.422,1593.22 L856.359,1593.98 L856.687,1594.2 L859.158,1595.83 L859.56,1596.09 L862.022,1597.78 L862.698,1598.25 L863.122,1598.54 L863.937,1599.06 L866.066,1600.43 L867.884,1600.58 L867.821,1600.91 L867.517,1602.52 L867.221,1604.19 L866.954,1605.16 L867.57,1607.28 L867.814,1608.19 L868.036,1609.52 L868.262,1611.28 L868.337,1611.87 L868.296,1613.25 L868.399,1613.97 L868.716,1615.06 L869.026,1618.24 L868.997,1620.77 L869,1622.94 L868.897,1623.68 L868.26,1625.32 L867.873,1627.29 L867.605,1630.03 L867.365,1632.84 L867.188,1633.75 L866.109,1637.96 L864.137,1642.49 L861.071,1643.92 L853.36,1650.23 L851.684,1651.9 L849.074,1654.58 L847.117,1656.45 L832.421,1670.47 L832.471,1671.64 L832.469,1677.59 L832.344,1677.65 L832.373,1677.77 L832.344,1679.22 L832.305,1680.28 L832.076,1680.92 L832.202,1681.09 L834.106,1686.91 L834.363,1687.65 L834.44,1687.93 L834.492,1688.09 L834.635,1688.52 L834.793,1688.91 L834.893,1689.21 L835.004,1689.54 L835.163,1690.01 L835.307,1690.44 L835.313,1690.46 L835.422,1690.79 L835.541,1691.13 L835.679,1691.52 L835.776,1691.81 L836.031,1692.61 L836.079,1692.74 L836.245,1693.26 L836.299,1693.43 L836.661,1694.6 L836.74,1694.81 L837.041,1695.58 L837.647,1697.35 L837.917,1698.11 L838.058,1698.51 L838.29,1699.09 L838.405,1699.43 L838.417,1699.51 L838.393,1699.63 L838.395,1699.7 L838.501,1700.12 L838.649,1700.54 L838.77,1700.99 L838.813,1701.2 L838.864,1701.5 L838.909,1701.66 L839.005,1701.97 L839.227,1702.47 L839.33,1702.74 L839.391,1702.99 L839.671,1704.02 L839.705,1704.04 L839.699,1704.21 L839.69,1704.4 L839.683,1704.72 L839.687,1704.84 L839.709,1704.98 L839.748,1705.24 L839.792,1705.52 L839.831,1705.77 L839.897,1706.21 L839.881,1706.26 L839.866,1706.28 L839.903,1706.46 L839.91,1706.5 L839.944,1706.67 L839.96,1706.74 L839.97,1706.84 L839.988,1707 L840.004,1707.15 L840.007,1707.18 L840.016,1707.26 L840.04,1707.49 L840.082,1707.88 L840.093,1707.98 L840.102,1708.06 L840.12,1708.24 L840.167,1708.67 L840.213,1709.1 L840.262,1709.55 L840.324,1710.12 L840.343,1710.3 L840.375,1710.59 L840.401,1710.84 L840.438,1711.16 L840.44,1711.18 L840.478,1711.55 L840.505,1711.82 L840.519,1711.96 L840.543,1712.21 L840.559,1712.37 L840.594,1712.85 L840.601,1713.07 L840.605,1713.15 L840.607,1713.27 L840.608,1713.31 L840.648,1713.55 L840.66,1713.61 L840.701,1713.88 L840.742,1714.15 L840.783,1714.42 L840.804,1714.56 L840.838,1714.74 L840.862,1714.89 L840.865,1714.91 L840.889,1715.05 L840.933,1715.3 L840.94,1715.34 L840.982,1715.6 L841.05,1715.98 L841.118,1716.4 L841.273,1717.34 L841.333,1717.68 L834.059,1720.39 L833.926,1720.55 L833.145,1720.75 L829.266,1722.26 L827.531,1722.99 L826.47,1724.32 L825.019,1726.23 L824.622,1726.54 L824.411,1726.7 L824.098,1727.78 L823.953,1728.29 L823.723,1729.08 L823.56,1729.64 L823.429,1730.08 L823.307,1730.5 L823.364,1730.6 L823.158,1733.41 L822.992,1734.02 L823.199,1736.53 L823.468,1738.33 L823.999,1740.94 L825.07,1745.26 L825.373,1746.43 L825.509,1746.58 L825.945,1747.84 L827.17,1750.69 L827.539,1751.79 L827.93,1752.81 L827.982,1753.27 L828.139,1753.77 L828.341,1754.1 L828.84,1755.77 L828.634,1755.79 L828.186,1756.02 L827.817,1756.2 L827.437,1756.39 L827.084,1756.57 L826.731,1756.75 L826.523,1757.62 L826.649,1758.31 L827.035,1759.32 L827.502,1760.11 L827.899,1760.83 L828.274,1761.7 L828.431,1763.92 L829.577,1768.96 L830.925,1772.01 L832.712,1774.83 L835.773,1777.45 L836.667,1778.21 L836.939,1778.48 L841.232,1782.71 L843.737,1779.68 L848.355,1775.03 L859.073,1762.68 L865.276,1758.35 L869.555,1755.72 L871.232,1754.97 L875.626,1754.31 L883.959,1751.17 L889.991,1749.11 L896.713,1747.09 L918.358,1743.55 L924.549,1741.02 L928.666,1738.18 L934.555,1744.98 L935.151,1744.68 L940.471,1742.55 L943.142,1747.25 L944.084,1746.75 L948.638,1744.28 L949.077,1744.07 L949.222,1744.3 L953.239,1751.67 L953.847,1751.35 L954.534,1750.91 L956.58,1749.75 L956.826,1749.63 L957.15,1749.51 L957.553,1749.31 L958.537,1748.77 L961.541,1747.08 L965.154,1745.11 L965.827,1744.74 L966.197,1744.51 L966.533,1744.23 L967.758,1745.36 L968.959,1746.51 L969.698,1747.57 L970.551,1748.68 L971.318,1749.75 L972.018,1750.9 L972.212,1750.82 L972.761,1750.53 L972.883,1750.44 L972.917,1750.39 L973.059,1750.55 L974.385,1751.55 L976.005,1752.41 L976.71,1750.48 L976.965,1749.91 L977.564,1748.8 L977.785,1748.56 L977.916,1748.55 L978.118,1748.42 L978.897,1747.6 L980.246,1746.34 L981.398,1744.69 L982.103,1743.85 L982.639,1743.17 L983.468,1743.85 L984.172,1744.44 L984.274,1744.57 L984.516,1744.88 L984.664,1744.99 L985.301,1745.39 L985.901,1745.77 L986.676,1746.23 L987.415,1746.66 L987.832,1745.02 L987.979,1744.49 L988.145,1743.97 L989.288,1740.44 L989.555,1739.63 L991.333,1734.11 L992.006,1732.02 L1001.23,1734.96 L1005.5,1736.26 L1005.97,1736.15 L1006.17,1736.06 L1006.53,1735.76 L1006.67,1735.65 L1006.81,1735.57 L1007.16,1735.29 L1007.34,1735.07 L1007.66,1734.6 L1007.82,1734.39 L1009.04,1733.05 L1009.28,1732.73 L1009.91,1732.04 L1010.04,1731.82 L1006.48,1726.48 L1005.21,1724.72 L1005.17,1724.59 L1005.18,1724.39 L1005.1,1724.21 L1004.7,1723.61 L1004.47,1723.32 L1004.22,1722.86 L1003.97,1722.46 L1003.51,1721.76 L1003.34,1721.56 L1007.3,1718.98 L1007.79,1718.77 L1009.97,1717.18 L1011.59,1716.12 L1011.77,1715.98 L1012.12,1715.67 L1012.36,1715.5 L1013.19,1714.97 L1014.57,1714.07 L1014.78,1713.95 L1014.96,1713.83 L1015.15,1713.63 L1017.5,1711.57 L1018.28,1710.94 L1019.08,1710.36 L1020.07,1709.63 L1020.17,1709.52 L1020.24,1709.37 L1020.34,1709.21 L1020.44,1709.11 L1021.96,1708.7 L1023.83,1708.21 L1024.03,1708.14 L1024.15,1708.06 L1024.24,1707.93 L1024.29,1707.83 L1024.47,1707.89 L1024.65,1707.9 L1024.83,1707.88 L1024.97,1707.82 L1025.58,1707.37 L1026.21,1706.91 L1027.11,1706.24 L1027.32,1706.1 L1027.51,1706 L1027.71,1705.92 L1029.15,1705.68 L1032.89,1705.1 L1034.69,1704.84 L1036.52,1704.55 L1037.6,1704.39 L1039.43,1704.16 L1040.58,1704.01 L1041.51,1703.91 L1041.56,1704.17 L1042.36,1706.48 L1043.1,1708.61 L1043.34,1709.29 L1043.71,1710.3 L1043.83,1710.62 L1044.39,1711.89 L1044.46,1712.06 L1045.08,1713.21 L1046.21,1715.21 L1046.32,1715.4 L1047.7,1717.84 L1048.1,1718.56 L1048.88,1719.97 L1048.97,1720.14 L1049.55,1721.2 L1049.87,1721.77 L1050.34,1722.61 L1050.64,1723.15 L1051.15,1724.12 L1051.84,1725.37 L1052.37,1726.3 L1052.53,1726.57 L1053.26,1727.89 L1053.69,1728.69 L1054.7,1730.59 L1055.18,1731.54 L1055.53,1732.21 L1056.81,1734.52 L1057.35,1735.51 L1057.48,1735.73 L1058.58,1737.65 L1058.66,1737.76 L1058.87,1737.87 L1060.57,1738.66 L1062.61,1739.61 L1062.94,1739.77 L1063.27,1739.94 L1065.49,1740.95 L1067.7,1741.83 L1068.05,1741.96 L1068.39,1742.09 L1068.92,1742.28 L1069.11,1742.37 L1069.71,1742.78 L1071.74,1744.12 L1072.61,1744.71 L1072.78,1744.85 L1072.98,1744.99 L1073.21,1745.13 L1073.45,1745.26 L1073.54,1745.3 L1073.68,1745.32 L1073.78,1745.3 L1073.75,1745.48 L1073.9,1745.71 L1074.07,1745.83 L1074.12,1745.86 L1074.29,1745.97 L1074.47,1746.09 L1075.89,1747 L1077.2,1747.66 L1077.1,1747.82 L1072.82,1754.98 L1065.55,1767.89 L1066.24,1768.46 L1066.44,1768.55 L1067.21,1768.95 L1067.35,1769.03 L1067.51,1769.13 L1067.9,1769.44 L1068.66,1770.12 L1068.67,1770.18 L1070.24,1771.59 L1070.34,1771.55 L1070.43,1771.59 L1071.59,1772.61 L1071.68,1772.69 L1071.7,1772.84 L1071.98,1773.1 L1075.58,1776.37 L1076.43,1777.17 L1092.34,1792.24 L1114.92,1813.62 L1115.14,1813.84 L1124.15,1823.12 L1135.44,1838.58 L1142.98,1830.31 L1148.2,1825.36 L1151.76,1821.99 L1152.4,1821.38 L1161.34,1819.2 L1164.84,1819.13 L1169.47,1817.91 L1175.18,1816.41 L1177.96,1815.67 L1182.68,1814.43 L1197.56,1811.38 L1200.27,1810.83 L1202.93,1806.95 L1208.67,1798.59 L1213.31,1791.72 L1213.8,1790.99 L1214.91,1789.32 L1215.07,1789.06 L1221.5,1779.34 L1224.43,1771.32 L1225.03,1769.7 L1226.6,1765.63 L1229.21,1758.79 L1230.44,1755.69 L1232.11,1751.57 L1233.04,1749.28 L1233.94,1747.07 L1233.99,1746.92 L1234.88,1744.58 L1235.8,1742.33 L1235.92,1742.28 L1236.02,1742.06 L1236.92,1740.22 L1237.36,1739.33 L1237.47,1739.1 L1237.87,1738.3 L1238.4,1737.18 L1238.52,1736.86 L1238.58,1736.7 L1238.65,1736.46 L1239.01,1735.73 L1239.33,1735.12 L1239.85,1734.11 L1240.2,1733.34 L1240.99,1731.8 L1242.16,1729.46 L1242.29,1729.21 L1242.67,1728.4 L1242.89,1727.92 L1243.62,1726.83 L1247.62,1723.3 L1247.89,1722.89 L1250.21,1720.93 L1256.45,1715.05 L1256.49,1715 L1256.54,1714.94 L1258.43,1712.72 L1259.46,1708.23 L1259.8,1708.86 L1260.17,1709.36 L1261.79,1711.43 L1262.25,1712.09 L1263.23,1713.51 L1263.37,1713.72 L1263.71,1713.33 L1264.16,1712.85 L1264.59,1712.37 L1264.97,1711.95 L1265.08,1712.04 L1265.09,1712.01 L1265.3,1711.56 L1277.37,1697.66 L1262.55,1684.63 L1271.74,1673.49 L1276.95,1667.19 L1279.99,1663.49 L1280.26,1663.17 L1284.04,1659.08 L1286.12,1656.83 L1288.24,1657.82 L1288.29,1657.84 L1288.92,1658.17 L1291.21,1659.34 L1291.3,1659.09 L1291.46,1658.69 L1292.31,1656.48 L1292.43,1656.16 L1293.26,1653.98 L1293.91,1652.3 L1297.32,1656.81 L1297.74,1657.51 L1296.41,1661.53 L1302.79,1664.77 L1303.01,1664.97 L1303.1,1665.25 L1303.98,1666.31 L1304.95,1667.58 L1305.54,1667.05 L1306.17,1666.43 L1308.68,1667.56 L1311.39,1668.97 L1311.49,1668.8 L1311.57,1668.65 L1318.47,1656.45 L1324.14,1645.22 L1333.12,1649.52 L1342.42,1622.51 L1367.41,1627.21 L1367.86,1626.25 L1374.57,1613.64 L1377.69,1607.77 L1380.68,1601.25 L1386.21,1592.21 L1392.63,1584.64 L1396.27,1581 L1396.79,1580.49 L1399.08,1578.2 L1401.05,1576.23 L1403.73,1576.26 L1408.64,1578.01 L1410.46,1578.03 L1411.54,1578.03 L1413.35,1577.48 L1415.08,1577.32 L1419.56,1576.67 L1421.11,1576.49 L1433.81,1571.49 L1435.34,1571.26 L1449.2,1569.84 L1456.66,1561.5 L1455.65,1559.92 L1454.23,1557.69 L1450.28,1551.06 L1449.24,1544.71 L1449.33,1538.1 L1448.23,1526.15 L1443.9,1517.7 L1441.98,1516.43 L1436.4,1510.23 L1429.16,1499.84 L1429.02,1498.08 L1426.03,1494.98 L1424.16,1492.53 L1422.45,1488.6 L1422.29,1486.44 L1421.54,1482.98 L1421.63,1482.45 L1421.41,1481.19 L1421.39,1481.09 L1421.01,1478.43 L1420.89,1474.55 L1421.16,1469.08 L1421.92,1463.89 L1427.04,1455.44 L1428.86,1453.25 L1433.81,1446.02 L1432.14,1441.89 L1431.93,1441.53 L1431.1,1439.2 L1430.19,1436.9 L1429.72,1435.04 L1429.63,1434.53 L1429.69,1434.18 L1429.85,1433.85 L1414.9,1436.99 L1413.75,1437.23 L1412.89,1437.68 L1409.81,1438.65 L1405.94,1439.87 L1405.42,1440.01 L1405,1440.06 L1404.57,1440.13 L1403.94,1440.37 L1401.36,1441.28 L1401.1,1441.33 L1400.78,1441.41 L1400.26,1441.57 L1399.71,1441.78 L1399.03,1442.01 L1398.84,1442.05 L1398.59,1442.09 L1398.29,1442.21 L1398.05,1442.33 L1397.83,1442.44 L1393.02,1444 L1384.43,1445.59 L1382.33,1445.73 L1375.21,1445.12 L1372.55,1444.89 L1366.15,1445.76 L1350.36,1449.45 L1344.89,1449.47 L1339.19,1451.29 L1338.42,1446.11 L1338.21,1444.71 L1334.02,1431.3 L1333.27,1429.35 L1330.91,1421.46 L1329.99,1420.53 L1328.98,1417.58 L1317.96,1398.11 L1309.14,1382.87 L1307.92,1381.27 L1292.52,1385.28 L1290.5,1385.62 L1287.49,1386.45 L1287.27,1386.51 L1284.59,1387.21 L1284.26,1387.29 L1268.7,1391.48 L1257.56,1381.15 L1251.08,1373.69 L1249.32,1372.94 L1248.57,1373.73 L1247.15,1375.05 L1246.1,1375.85 L1242.27,1378.59 L1242.22,1378.61 L1241.59,1379.03 L1240.18,1379.79 L1239.49,1380.15 L1239.38,1380.04 L1239.23,1379.92 L1237.98,1379.05 L1236.19,1377.69 L1236.03,1377.57 L1234.23,1376.27 L1233.46,1375.72 L1231.63,1374.4 L1231.34,1374.19 L1229.95,1375.48 L1228.52,1376.83 L1227.09,1378.18 L1226.83,1378.42 L1225.71,1379.38 L1225.4,1379.67 L1224.44,1378.89 L1219.64,1375.13 L1217.94,1376.18 L1217.75,1376.19 L1215.68,1374.47 L1211.69,1371.25 L1209.47,1369.56 L1208.24,1368.66 L1207.68,1368.25 L1196.37,1358.72 L1202.02,1353.57 L1187.1,1341.91 L1169.54,1325.94 L1172.57,1323.14 L1189.04,1315.47 L1191.46,1314.27 L1179.48,1301.58 L1167.14,1288.39 L1164,1285.04 L1153.74,1290.62 L1143.49,1280.35 L1150.43,1271.8 L1154.73,1266.38 L1157.51,1263.58 L1131.53,1237.48 L1135.25,1235.63 L1131.52,1227.2 L1127.75,1229.07 L1120.32,1230.91 L1118.5,1230.95 L1114.78,1231.83 L1113.89,1230.92 L1108.28,1228.11 L1107.79,1227.63 L1107.33,1227.19 L1105.66,1225.46 L1098.83,1218.83 L1097.91,1218.37 L1095.67,1217.28 L1082.83,1212.52 L1081.52,1210.51 L1080.57,1209.06 L1083.13,1201.72 L1076.99,1198.97 L1076.65,1199.15 L1073.83,1198.56 L1073.32,1199.17 L1072.84,1198.73 L1066.88,1194.94 L1063.04,1200.62 L1060.27,1203.77 L1053.7,1211.81 L1047.53,1220.11 L1037.54,1237.61 L1030.92,1251.42 L1024.93,1262.59 L1016.29,1259.23 L1020.5,1253.76 L1020.95,1251.19 L1021.12,1249.51 L1021.12,1248.6 L1020.78,1245.71 L1020.66,1243.16 L1021.81,1231.13 L1022.55,1227.6 L1023.14,1224.48 L1024.42,1220.86 L1026.19,1216.55 L1027.98,1213.41 L1029.07,1211.68 L1029.34,1211.06 L1030.13,1210.08 L1026.91,1208.59 L1027.03,1208.32 L1025.93,1208.23 L1025.34,1208.4 L1023.34,1208.34 L1022.17,1208.15 L1017.99,1206.89 L1013.32,1205.68 L1013.12,1206.41 L1006.54,1204.84 L1004.44,1204.36 L1003.2,1204.21 L1002.84,1203.65 L996.487,1204.1 L992.167,1204.75 L979.7,1202.12 L978.324,1202.36 L975.253,1202.69 L972.465,1202.71 L967.995,1203.03 L966.435,1203.29 L966.072,1203.54 L965.064,1204.9 L960.29,1207.51 L954.696,1210.43 L951.647,1212.02 L945.515,1215.1 L944.905,1215.62 L945.38,1216.51 L946.164,1217.81 L947.334,1219.35 L948.049,1220.46 L949.384,1222.77 L951.077,1225.39 L951.54,1226.02 L952.438,1227.6 L953.266,1230.33 L953.48,1230.83 L953.771,1231.77 L954.722,1235.12 L955.228,1237.25 L957.643,1245.96 L956.992,1247.12 L958.112,1247.79 L958.485,1249.83 L959.603,1255.45 L960.206,1258.28 L956.069,1257.54 L949.152,1256.31 L946.153,1255.66 L938.509,1256.68 L931.064,1258.31 L925.986,1259.47 L924.493,1260.04 L920.397,1262.05 L918.803,1262.46 L911.421,1265.47 L906.148,1267.45 L903.095,1267.01 L902.63,1266.1 L902.245,1265.51 L900.602,1263.56 L899.812,1263.06 L898.93,1262.36 L898.488,1261.76 L893.275,1265.98 L886.638,1263.06 L886.948,1262.72 L882.76,1259.51 L882.642,1259.63 L879.726,1257.81 L877.517,1256.03 L875.894,1254.92 L866.465,1263 L878.057,1267.77 L876.342,1269.83 L876.331,1270.33 L876.21,1270.54 L876.285,1271.04 L876.411,1271.29 L876.808,1273.28 L874.085,1276.27 L871.644,1279.59 L869.204,1282.61 L867.729,1284.39 L866.227,1286.2 L865.114,1288.44 L865.635,1290.77 L866.68,1292.66 L865.997,1292.78 L865.276,1293 L863.679,1292.3 L862.544,1291.66 L860.02,1289.59 L853.718,1287.16 L850.582,1285.53 L849.14,1285.64 L846.65,1285 L844.611,1285.36 L842.758,1285.14 L836.034,1283.28 L832.453,1282.65 L831.381,1281.64 L828.719,1281.28 L826.912,1281.96 L825.941,1282.23 L825.229,1282.24 L824.336,1281.94 L823.796,1281.79 L819.379,1281.93 L817.894,1281.73 L816.929,1281.51 L816.279,1281.12 L809.559,1279.2 L806.961,1283.19 L805.206,1285.19 L803.224,1286.79 L799.219,1288.76 L795.708,1290.83 L791.319,1293.42 L786.734,1295.93 L787.958,1299.04 L788.254,1299.76 L788.937,1301.45 L788.986,1301.57 L789.538,1302.92 L789.605,1303.09 L790.066,1304.14 L790.838,1305.89 L791.804,1307.83 L798.757,1324.2 L799.61,1327.3 L800.885,1330.95 L801.222,1331.72 L793.612,1334.75 L795.133,1336.37 L795.498,1336.55 L796.612,1337.72 L798.807,1338.79 L799.171,1339.03 L799.783,1339.35 L800.237,1339.72 L801.627,1341.59 L802.391,1341.98 L802.621,1341.98 L802.948,1342.1 L803.27,1342.28 L803.865,1342.35 L804.258,1341.95 L804.54,1342.22 L805.085,1342.46 L805.763,1344.27 L805.499,1344.54 L805.273,1344.84 L805.058,1345.31 L805.442,1346.31 L805.365,1346.58 L805.766,1347.3 L804.755,1348.48 L803.638,1349.32 L798.141,1353.71 L798.122,1353.74 L798.022,1353.89 L797.913,1354.03 L795.119,1356.71 L794.088,1357.66 L792.982,1358.51 L792.606,1358.66 L792.048,1359.08 L791.741,1358.72 L790.905,1359.3 L790.644,1359.04 L789.8,1359.59 L789.524,1359.38 L789.326,1359.28 L789.038,1359.53 L788.906,1359.42 L788.246,1359.88 L787.907,1360 L787.298,1360.42 L787.347,1360.6 L787.12,1360.8 L786.677,1361.52 L786.195,1362.03 L785.652,1362.48 L785.029,1362.88 L784.79,1363.26 L784.434,1363.57 L783.412,1364.14 L782.993,1364.15 L782.938,1364.07 L781.763,1364.58 L781.298,1365.13 L781.378,1365.3 L781.453,1365.87 L781.726,1366.68 L781.987,1367.03 L782.507,1367.39 L783.963,1368.14 L784.799,1368.36 L785.218,1368.62 L785.741,1369.09 L786.962,1369.01 L787.961,1368.72 L788.631,1368.29" vector-effect="none" fill-rule="evenodd"/>
  </g>
  <g stroke-linejoin="bevel" stroke-width="1" font-size="34.5833" fill="none" stroke-linecap="square" stroke="#000000" font-weight="400" font-style="normal" stroke-opacity="1" transform="matrix(0.999744,0,0,0.999744,0,0)" font-family="MS Shell Dlg 2"/>
  <g stroke-linejoin="bevel" stroke-width="1" font-size="34.5833" fill="none" stroke-linecap="square" stroke="#000000" font-weight="400" font-style="normal" stroke-opacity="1" transform="matrix(11.808,0,0,11.808,0,0)" font-family="MS Shell Dlg 2"/>
  <g stroke-linejoin="bevel" stroke-width="1" font-size="34.5833" fill="none" stroke-linecap="square" stroke="#000000" font-weight="400" font-style="normal" stroke-opacity="1" transform="matrix(11.808,0,0,11.808,0,0)" font-family="MS Shell Dlg 2"/>
  <g stroke-linejoin="bevel" stroke-width="1" font-size="34.5833" fill="none" stroke-linecap="square" stroke="#000000" font-weight="400" font-style="normal" stroke-opacity="1" transform="matrix(11.808,0,0,11.808,0,0)" font-family="MS Shell Dlg 2"/>
  <g stroke-linejoin="bevel" stroke-width="1" font-size="34.5833" fill="none" stroke-linecap="square" stroke="#000000" font-weight="400" font-style="normal" stroke-opacity="1" transform="matrix(1,0,0,1,0,0)" font-family="MS Shell Dlg 2"/>
  <g stroke-linejoin="bevel" stroke-width="1" font-size="34.5833" fill="none" stroke-linecap="square" stroke="#000000" font-weight="400" font-style="normal" stroke-opacity="1" transform="matrix(11.808,0,0,11.808,0,0)" font-family="MS Shell Dlg 2"/>
  <g stroke-linejoin="bevel" stroke-width="1" font-size="34.5833" fill="none" stroke-linecap="square" stroke="#000000" font-weight="400" font-style="normal" stroke-opacity="1" transform="matrix(11.808,0,0,11.808,0,0)" font-family="MS Shell Dlg 2"/>
  <g stroke-linejoin="bevel" stroke-width="1" font-size="34.5833" fill="none" stroke-linecap="square" stroke="#000000" font-weight="400" font-style="normal" stroke-opacity="1" transform="matrix(11.808,0,0,11.808,0,0)" font-family="MS Shell Dlg 2"/>
  <g stroke-linejoin="bevel" stroke-width="1" font-size="34.5833" fill="none" stroke-linecap="square" stroke="#000000" font-weight="400" font-style="normal" stroke-opacity="1" transform="matrix(11.808,0,0,11.808,0,0)" font-family="MS Shell Dlg 2"/>
  <g stroke-linejoin="bevel" stroke-width="1" font-size="34.5833" fill="none" stroke-linecap="square" stroke="#000000" font-weight="400" font-style="normal" stroke-opacity="1" transform="matrix(1,0,0,1,0,0)" font-family="MS Shell Dlg 2"/>
 </g>
</svg>
