<?xml version='1.0' encoding='UTF-8' standalone='no'?>
<svg xmlns:xlink="http://www.w3.org/1999/xlink" height="249.936mm" width="249.936mm" viewBox="0 0 2952 2952" version="1.2" baseProfile="tiny" xmlns="http://www.w3.org/2000/svg">
 <title>Qt SVG Document</title>
 <desc>Generated with Qt</desc>
 <defs/>
 <g stroke-linejoin="bevel" stroke-width="1" fill="none" stroke-linecap="square" stroke="black" fill-rule="evenodd">
  <g stroke-linejoin="bevel" stroke-width="1" font-size="34.5833" fill="none" stroke-linecap="square" stroke="#000000" font-weight="400" font-style="normal" stroke-opacity="1" transform="matrix(1,0,0,1,0,0)" font-family="MS Shell Dlg 2"/>
  <g stroke-linejoin="bevel" stroke-width="1" font-size="34.5833" fill="none" stroke-linecap="square" stroke="#000000" font-weight="400" font-style="normal" stroke-opacity="1" transform="matrix(1,0,0,1,0,0)" font-family="MS Shell Dlg 2"/>
  <g stroke-linejoin="bevel" stroke-width="1" font-size="34.5833" fill="none" stroke-linecap="square" stroke="#000000" font-weight="400" font-style="normal" stroke-opacity="1" transform="matrix(11.808,0,0,11.808,0,0)" font-family="MS Shell Dlg 2"/>
  <g stroke-linejoin="bevel" stroke-width="1" font-size="34.5833" fill="none" stroke-linecap="square" stroke="#000000" font-weight="400" font-style="normal" stroke-opacity="1" transform="matrix(0.999744,0,0,0.999744,0,0)" font-family="MS Shell Dlg 2"/>
  <g fill-opacity="0" font-size="34.5833" fill="#ffffff" stroke="none" font-weight="400" font-style="normal" transform="matrix(0.999744,0,0,0.999744,0,0)" font-family="MS Shell Dlg 2">
   <path d="M-2,-2 L2955,-2 L2955,2955 L-2,2955 L-2,-2" vector-effect="none" fill-rule="evenodd"/>
  </g>
  <g stroke-linejoin="bevel" stroke-width="1" font-size="34.5833" fill="none" stroke-linecap="square" stroke="#000000" font-weight="400" font-style="normal" stroke-opacity="1" transform="matrix(0.999744,0,0,0.999744,0,0)" font-family="MS Shell Dlg 2"/>
  <g stroke-linejoin="bevel" stroke-width="1" font-size="34.5833" fill="none" stroke-linecap="square" stroke="#000000" font-weight="400" font-style="normal" stroke-opacity="1" transform="matrix(11.808,0,0,11.808,0,0)" font-family="MS Shell Dlg 2"/>
  <g stroke-linejoin="bevel" stroke-width="1" font-size="34.5833" fill="none" stroke-linecap="square" stroke="#000000" font-weight="400" font-style="normal" stroke-opacity="1" transform="matrix(11.808,0,0,11.808,0,0)" font-family="MS Shell Dlg 2"/>
  <g stroke-linejoin="bevel" stroke-width="1" font-size="34.5833" fill="none" stroke-linecap="square" stroke="#000000" font-weight="400" font-style="normal" stroke-opacity="1" transform="matrix(11.808,0,0,11.808,0,0)" font-family="MS Shell Dlg 2"/>
  <g stroke-linejoin="bevel" stroke-width="1" font-size="34.5833" fill="none" stroke-linecap="square" stroke="#000000" font-weight="400" font-style="normal" stroke-opacity="1" transform="matrix(11.808,0,0,11.808,0,0)" font-family="MS Shell Dlg 2"/>
  <g stroke-linejoin="bevel" stroke-width="1" font-size="34.5833" fill="none" stroke-linecap="square" stroke="#000000" font-weight="400" font-style="normal" stroke-opacity="1" transform="matrix(11.808,0,0,11.808,0,0)" font-family="MS Shell Dlg 2"/>
  <g fill-opacity="0" font-size="34.5833" fill="#ffffff" stroke="none" font-weight="400" font-style="normal" transform="matrix(11.808,0,0,11.808,0,0)" font-family="MS Shell Dlg 2">
   <path d="M0,0 L250,0 L250,250 L0,250 L0,0" vector-effect="none" fill-rule="evenodd"/>
  </g>
  <g stroke-linejoin="bevel" stroke-width="1" font-size="34.5833" fill="none" stroke-linecap="square" stroke="#000000" font-weight="400" font-style="normal" stroke-opacity="1" transform="matrix(11.808,0,0,11.808,0,0)" font-family="MS Shell Dlg 2"/>
  <g stroke-linejoin="bevel" stroke-width="1" font-size="34.5833" fill="none" stroke-linecap="square" stroke="#000000" font-weight="400" font-style="normal" stroke-opacity="1" transform="matrix(11.808,0,0,11.808,0,0)" font-family="MS Shell Dlg 2"/>
  <g fill-opacity="0" font-size="34.5833" fill="#000000" stroke="none" font-weight="400" font-style="normal" transform="matrix(0.999744,0,0,0.999744,0,0)" font-family="MS Shell Dlg 2">
   <rect y="0" height="2953" x="0" width="2953"/>
  </g>
  <g stroke-linejoin="bevel" stroke-width="1" font-size="34.5833" fill="none" stroke-linecap="square" stroke="#000000" font-weight="400" font-style="normal" stroke-opacity="1" transform="matrix(0.999744,0,0,0.999744,0,0)" font-family="MS Shell Dlg 2"/>
  <g stroke-linejoin="bevel" fill-opacity="1" stroke-width="3.07087" font-size="34.5833" fill="#c5c5c5" stroke-linecap="square" stroke="#5c5c5c" font-weight="400" font-style="normal" stroke-opacity="1" transform="matrix(0.999744,0,0,0.999744,0,0)" font-family="MS Shell Dlg 2">
   <path d="M1444.65,2746.63 L1443.9,2748.13 L1444.62,2744.73 L1444.21,2741.35 L1443.54,2737.74 L1441.91,2734.58 L1439.21,2731.88 L1437.55,2729.98 L1436.4,2728.67 L1434.74,2725.7 L1434.37,2723.91 L1434.15,2722.84 L1434.19,2721.44 L1434.23,2719.65 L1435.2,2714.95 L1436.85,2711.8 L1437.77,2710.4 L1439.36,2708.02 L1439.49,2707.82 L1439.88,2707.33 L1441.53,2705.24 L1444.02,2702.1 L1444.51,2701.48 L1446.14,2699.42 L1448.35,2696.63 L1448.83,2695.91 L1450.96,2692.75 L1451.5,2691.24 L1452.03,2689.76 L1452.11,2689.54 L1452.14,2689.03 L1452.27,2686.85 L1452.43,2684.2 L1452.11,2680.32 L1451.46,2678.64 L1451.33,2678.3 L1451.2,2677.96 L1449.76,2676.88 L1449.26,2676.88 L1448.88,2676.89 L1448.19,2676.9 L1447.39,2676.91 L1442.33,2679.06 L1441.71,2679.27 L1440.04,2679.81 L1438.74,2680.23 L1437.7,2680.21 L1436.82,2680.19 L1436.25,2680.18 L1435.39,2680.17 L1434.42,2679.7 L1432.62,2678.81 L1430.61,2677.12 L1429.86,2674.39 L1430.38,2672.2 L1431.65,2669.97 L1434.04,2667.24 L1434.66,2666.68 L1436.38,2665.12 L1438.03,2662.42 L1438.17,2661.49 L1438.3,2660.57 L1437.73,2657.32 L1437.14,2656.33 L1435.81,2654.08 L1433.28,2652.16 L1433.24,2652.13 L1433.22,2652.12 L1431.73,2651.32 L1430.73,2650.78 L1430.53,2650.68 L1428.52,2650.74 L1427.43,2650.78 L1427.22,2650.79 L1423.69,2650.82 L1422.35,2650.83 L1421.85,2650.78 L1421.48,2650.74 L1421.48,2650.74 L1419.07,2650.51 L1414.93,2649.4 L1413.84,2648.81 L1412.83,2648.25 L1412.74,2648.2 L1412.08,2647.85 L1410.68,2646.71 L1409.26,2645.57 L1407.19,2643.32 L1406.88,2642.42 L1406.49,2641.24 L1406.17,2640.28 L1406.22,2640.14 L1406.86,2638.28 L1406.98,2637.93 L1409.28,2635.12 L1412.74,2632.27 L1413.48,2631.71 L1416.13,2629.7 L1417.07,2628.98 L1417.2,2628.82 L1418.48,2627.14 L1419.18,2626.22 L1419.28,2625.32 L1419.48,2623.5 L1419.72,2621.29 L1419.42,2619.13 L1419.33,2618.55 L1419.15,2617.23 L1419.08,2617.11 L1418.47,2616.06 L1417.01,2613.55 L1414.16,2611.31 L1411.68,2610.53 L1409.19,2611.26 L1405.65,2613.09 L1402.44,2615.61 L1397.17,2621.49 L1394.52,2624.46 L1393.23,2625.36 L1392.11,2626.15 L1389.12,2627.75 L1390.57,2624.62 L1392.13,2621.27 L1387.49,2619.02 L1384.84,2617.51 L1381.59,2615.66 L1377.85,2612.42 L1377.26,2609.73 L1376.76,2606.73 L1377.42,2605.04 L1377.87,2601.83 L1378.48,2597.46 L1378.7,2595.9 L1378.8,2595.21 L1379.1,2592.36 L1379.29,2590.61 L1374.72,2587.09 L1363.62,2580.22 L1360.25,2578.58 L1359.47,2578.47 L1358.74,2578.38 L1358.26,2578.32 L1356.97,2578.62 L1354.25,2579.25 L1352.86,2579.26 L1349.9,2579.28 L1349.35,2579.29 L1347.83,2578.5 L1344.16,2576.61 L1343.46,2576.25 L1343.06,2575.6 L1342.14,2574.09 L1340.83,2571.95 L1341.06,2568.88 L1341.34,2564.94 L1342.93,2561.33 L1344.08,2558.72 L1345.4,2556.38 L1347.62,2552.47 L1348.02,2548.04 L1348.26,2545.41 L1348.27,2545.36 L1348.22,2545.31 L1345.04,2542.34 L1340.95,2539.99 L1340.52,2539.74 L1336.32,2538.82 L1333.13,2542.68 L1331.95,2545.1 L1331.37,2546.27 L1330.39,2548.3 L1330.25,2554.75 L1327.76,2562.02 L1325.27,2564.03 L1323.2,2565.7 L1318.7,2565.65 L1318.1,2565.64 L1317.52,2565.02 L1316.71,2564.16 L1315.12,2562.47 L1314.57,2561.89 L1314.51,2560.9 L1314.14,2555.02 L1313.92,2553.9 L1313.32,2550.93 L1313.02,2549.41 L1312.71,2547.87 L1311.52,2546.92 L1310.13,2545.82 L1309.29,2545.15 L1308.54,2544.97 L1308.23,2544.89 L1307.09,2544.61 L1305.53,2544.22 L1304.47,2543.95 L1301.3,2544.98 L1299.67,2547.53 L1298.06,2550.04 L1297.62,2550.74 L1297.52,2550.8 L1293.86,2553.22 L1292.54,2554.1 L1291.95,2554.01 L1288.15,2553.39 L1285.56,2551.11 L1284.72,2550.37 L1282.71,2543.7 L1282.67,2543.56 L1282.67,2543.5 L1282.39,2540.21 L1282.28,2539.47 L1281.73,2535.91 L1281.53,2534.59 L1280.6,2533.71 L1278.1,2531.35 L1275.57,2531.17 L1273.26,2531 L1266.29,2532.18 L1264.77,2531.93 L1261.02,2531.32 L1259.68,2529.41 L1258.73,2528.06 L1258.72,2525.3 L1258.7,2519.65 L1258.74,2517.09 L1258.89,2508.51 L1257.74,2505.33 L1257.16,2503.71 L1255.29,2502.65 L1253.72,2501.76 L1252.48,2501.06 L1252.11,2500.85 L1251.16,2500.7 L1247.32,2500.1 L1243.81,2499.55 L1241.88,2498.74 L1239.27,2497.66 L1235.64,2495.96 L1233.72,2495.98 L1231.66,2496.01 L1230.34,2496.03 L1223.88,2498.67 L1218.97,2502.57 L1215.96,2504.96 L1212.63,2508.27 L1208.86,2515.8 L1207.59,2518.35 L1206.13,2520.33 L1204.63,2522.37 L1199.24,2524.83 L1194.15,2525.21 L1189.3,2518.5 L1188.1,2514.17 L1187.42,2511.72 L1186.59,2508.7 L1183.43,2503.54 L1181.55,2500.47 L1176.07,2500.62 L1174.09,2501.49 L1171.16,2502.78 L1169.27,2505.94 L1167.27,2509.29 L1164.92,2519.27 L1164.21,2520.66 L1161.99,2524.99 L1156.06,2526 L1149.67,2522.32 L1145.05,2513.23 L1144.95,2512.2 L1144.07,2503.02 L1142.85,2497.56 L1142.09,2494.15 L1140.9,2493.35 L1136.9,2490.67 L1131.15,2491.12 L1130.05,2491.2 L1129.43,2491.25 L1123.51,2496.43 L1119.83,2500.23 L1114.26,2501.4 L1109.18,2500.57 L1106.64,2498.58 L1104.94,2497.25 L1101.91,2492.99 L1098.66,2484.18 L1100.16,2468.44 L1100.73,2455.04 L1099.36,2452.65 L1092.51,2446.83 L1087.2,2444.27 L1083.11,2444.28 L1079.21,2444.29 L1078.17,2444.29 L1069.46,2446.22 L1068.58,2447.01 L1062.64,2452.36 L1061.69,2455.9 L1061.43,2456.9 L1060.19,2461.52 L1060.35,2469.54 L1057.99,2476.82 L1057.78,2477.47 L1053.86,2479.98 L1052.9,2479.74 L1049.05,2478.76 L1046.58,2478.14 L1042.41,2469.12 L1042.2,2463.4 L1042.05,2459.54 L1039.86,2454.23 L1034.84,2449.07 L1025.79,2442.43 L1019.44,2435.27 L1016.71,2431.14 L1011.81,2423.72 L1010.88,2422.3 L1010.65,2421.6 L1009.96,2419.46 L1009.77,2418.87 L1008.34,2414.42 L1002.93,2401.82 L1002.8,2401.53 L998.935,2395.63 L992.367,2387.72 L986.611,2375.68 L982.731,2370.69 L979.243,2363.4 L977.565,2359.89 L976.124,2356.88 L972.776,2346.93 L972.674,2346.72 L972.411,2346.2 L965.099,2331.63 L959.299,2320.08 L954.969,2307.95 L952.537,2303.76 L950.88,2300.91 L946.974,2297.9 L942.44,2294.41 L942.123,2294.17 L941.989,2293.75 L939.52,2286.12 L938.862,2284.08 L938.397,2273.88 L936.322,2271.86 L934.763,2270.35 L929.941,2268.5 L928.313,2267.88 L925.099,2269.01 L921.404,2270.32 L920.904,2270.5 L920.844,2270.52 L920.691,2270.64 L913.814,2275.98 L910.569,2280.23 L909.999,2280.98 L903.162,2284.68 L900.619,2284.17 L898.466,2283.75 L897.531,2281.44 L896.16,2278.05 L897.662,2272.49 L897.994,2271.26 L899.812,2270.57 L906.074,2268.19 L908.602,2266.9 L910.559,2265.9 L912.272,2264.16 L912.602,2263.82 L915.195,2261.18 L917.103,2256.42 L918.375,2253.24 L918.476,2250.61 L918.65,2246.05 L913.489,2233.18 L911.227,2232.28 L910.089,2231.83 L905.169,2229.86 L901.223,2227.79 L897.354,2225.76 L889.471,2222.99 L885.599,2219.04 L875.219,2216.9 L866.464,2214.67 L865.769,2214.89 L863.876,2215.49 L861.739,2216.16 L861.102,2216.36 L858.775,2217.1 L858.18,2217.29 L857.531,2217.17 L856.416,2216.96 L851.326,2215.97 L849.242,2214.98 L845.713,2213.29 L844.599,2213.66 L842.94,2214.2 L841.155,2214.78 L840.167,2216.83 L837.947,2221.45 L835.139,2223.56 L834.697,2223.9 L832.076,2225.87 L830.799,2225.21 L827.282,2223.4 L823.39,2216.65 L822.949,2207.78 L819.484,2203.11 L818.036,2202.03 L816.875,2201.17 L814.199,2200.63 L811.362,2200.05 L810.774,2200.46 L810.243,2200.83 L809.207,2201.55 L806.413,2203.5 L803.209,2206.7 L803.181,2206.73 L803.109,2206.81 L803.095,2206.83 L799.039,2211.76 L795.069,2213.42 L794.812,2213.38 L792.914,2213.07 L792.49,2213.03 L792.392,2213.02 L791.435,2212.09 L789.25,2204.36 L788.514,2201.37 L787.061,2200.32 L782.717,2199.24 L779.863,2198.53 L779.076,2198.33 L778.55,2198.12 L778.499,2198.16 L777.97,2195.24 L777.375,2193.73 L775.666,2191.37 L772.917,2188.42 L772.292,2186.87 L770.925,2185.7 L769.677,2184.54 L769.141,2183.5 L769.014,2183.01 L767.893,2178.67 L767.99,2176.85 L768.005,2176.56 L768.004,2176.53 L767.96,2174.73 L767.78,2173.66 L767.739,2173.48 L767.239,2172.25 L766.449,2171.65 L765.218,2171.35 L764.351,2171.45 L763.618,2171.32 L762.806,2171.17 L762.42,2171.1 L759.592,2171.07 L759.076,2171.2 L758.701,2171.4 L757.465,2172.06 L757.265,2172.17 L755.879,2172.93 L754.82,2172.59 L754.046,2172.15 L753.552,2171.36 L753.226,2170.85 L751.447,2169.21 L750.73,2168.34 L750.487,2167.48 L750.205,2166.99 L749.496,2166.36 L748.925,2165.88 L748.428,2165.95 L747.893,2166.44 L747.541,2167.59 L747.132,2168.61 L746.551,2169.26 L745.989,2169.73 L745.905,2170.31 L746.24,2170.8 L746.554,2170.89 L746.719,2170.94 L747.357,2171.1 L747.602,2171.3 L747.677,2171.9 L747.416,2172.38 L746.723,2172.88 L745.972,2173.2 L745.082,2173.36 L744.386,2173.39 L743.773,2172.88 L742.121,2171.5 L741.615,2171.34 L740.553,2171.01 L713.47,2168.58 L706.518,2165.98 L703.892,2165.94 L702.971,2162.97 L702.24,2160.62 L700.457,2154.88 L685.978,2145.63 L675.293,2140.43 L673.903,2135.86 L674.489,2134.67 L677.501,2133.43 L677.067,2131.05 L664.386,2123.79 L660.2,2123.55 L659.93,2123.54 L657.78,2124.44 L656.508,2124.98 L643.69,2116.85 L636.28,2114.31 L635.135,2113.92 L629.493,2109.72 L628.921,2109.46 L624.124,2107.25 L618.961,2104.87 L618.821,2104.76 L595.906,2086.61 L594.843,2085.77 L594.636,2085.73 L590.817,2084.93 L581.404,2082.96 L561.808,2066.37 L565.962,2054.48 L565.963,2054.47 L577.573,2058.25 L577.597,2058.25 L585.808,2033.52 L582.395,2030.58 L582.029,2030.27 L581.738,2030.02 L581.1,2030.11 L573.436,2031.29 L573.164,2031.33 L572.763,2031.1 L570.999,2030.11 L570.567,2029.86 L570.462,2029.86 L567.345,2029.76 L567.225,2029.75 L566.702,2028.7 L565.911,2027.44 L565.919,2027.42 L566.368,2026.16 L567.213,2023.8 L566.345,2023.22 L566.983,2020.3 L567.203,2019.29 L567.279,2018.95 L566.177,2017.67 L564.004,2015.15 L563.7,2014.79 L572.972,2000.75 L572.998,2000.71 L573.19,2000.11 L574.365,1996.45 L579.62,1994.38 L579.66,1994.36 L579.688,1994.35 L579.672,1994.29 L577.602,1986.48 L577.482,1986.02 L577.806,1981.56 L579.092,1977.69 L579.102,1977.66 L581.073,1978.34 L581.099,1978.35 L581.733,1976.62 L582.444,1974.69 L583.07,1972.99 L583.749,1971.14 L583.773,1971.07 L583.351,1970.87 L579.974,1969.23 L576.622,1967.61 L574.841,1966.74 L574.827,1966.74 L574.617,1966.08 L574.255,1964.95 L573.574,1962.82 L572.44,1959.28 L572.345,1958.98 L571.355,1958.84 L563.567,1957.78 L563.419,1957.76 L563.351,1957.72 L561.315,1956.36 L561.174,1956.26 L561.152,1956.32 L560.461,1957.91 L560.44,1957.92 L560.348,1957.93 L554.718,1958.57 L553.988,1958.65 L549.046,1957.3 L549.208,1955.79 L549.019,1955.64 L548.29,1955.05 L546.73,1953.78 L547.47,1950.24 L547.718,1949.05 L547.754,1948.88 L547.527,1948.73 L545.711,1947.55 L544.509,1946.78 L545.511,1944.7 L545.529,1944.67 L547.016,1945.57 L547.036,1945.58 L547.492,1944.68 L547.371,1944.58 L545.379,1942.85 L544.995,1942.52 L546.548,1939.59 L546.862,1938.99 L547.155,1938.44 L546.955,1938.34 L542.995,1936.33 L542.88,1936.27 L542.898,1936.18 L543.142,1934.97 L543.552,1932.95 L543.627,1932.79 L545.553,1928.81 L546.463,1926.93 L549.282,1921.11 L551.014,1917.54 L550.988,1917.5 L549.579,1915.28 L548.303,1913.28 L548.272,1912.57 L548.065,1907.69 L548.012,1906.45 L549.325,1901.16 L549.922,1898.76 L549.981,1898.52 L549.361,1894.31 L546.026,1888.4 L546.003,1888.36 L538.79,1875.59 L535.449,1869.67 L523.717,1848.9 L523.691,1848.92 L523.251,1849.29 L518.98,1852.91 L518.491,1852.82 L517.339,1852.62 L516.571,1852.49 L514.405,1852.11 L514.334,1852.1 L514.322,1852.13 L513.804,1853.3 L513.214,1854.64 L513.195,1854.68 L513.181,1854.68 L510.102,1854.54 L510.071,1854.57 L510.066,1854.58 L508.781,1855.85 L506.379,1858.24 L505.666,1858.95 L505.461,1858.97 L504.428,1859.08 L502.682,1859.27 L502.265,1859.06 L499.896,1857.9 L495.558,1855.76 L495.514,1855.79 L491.472,1858.69 L491.226,1858.87 L491.073,1858.86 L485.762,1858.61 L485.503,1858.6 L485.471,1853.89 L485.465,1852.99 L485.455,1851.57 L485.096,1851.38 L477.17,1847.12 L477.024,1847.04 L473.707,1849.25 L468.334,1847.36 L467.427,1847.05 L466.068,1846.57 L460.1,1845.6 L459.954,1845.57 L459.802,1845.29 L457.581,1841.1 L457.462,1840.87 L459.145,1834.1 L459.521,1832.6 L459.52,1832.59 L459.295,1830.49 L458.355,1821.73 L458.033,1818.73 L457.529,1814.03 L457.509,1813.85 L457.586,1813.56 L458.778,1809.1 L458.796,1809.04 L458.852,1808.97 L462.804,1804 L462.855,1803.93 L462.876,1803.91 L461.155,1800.4 L456.17,1796.69 L452.716,1787.6 L451.042,1785.37 L447.519,1780.69 L447.308,1780.41 L447.204,1780.29 L442.344,1774.56 L436.432,1767.61 L425.657,1774.62 L419.447,1761.66 L414.902,1752.17 L410.308,1742.57 L411.098,1740.67 L406.723,1733.51 L406.127,1733.38 L405.737,1733.29 L398.296,1731.6 L397.442,1731.41 L392.031,1730.18 L391.879,1726.74 L391.869,1726.73 L386.97,1719.84 L384.858,1719.81 L383.325,1719.79 L374.157,1700.64 L373.724,1699.99 L369.771,1694.1 L366.255,1682.43 L337.023,1674.54 L335.245,1674.53 L318.572,1674.49 L315.121,1674.48 L315.109,1674.47 L314.37,1673.33 L312.166,1669.92 L306.404,1661.02 L306.395,1661.01 L306.029,1660.56 L298.122,1650.88 L296.221,1648.55 L296.189,1648.46 L293.144,1639.91 L291.984,1636.66 L291.143,1636.14 L289.974,1635.43 L289.663,1635.24 L287.495,1631.22 L284.13,1621.92 L283.12,1621.55 L274.822,1618.55 L274.651,1618.49 L271.836,1613.84 L271.836,1613.59 L271.833,1612.67 L271.825,1610.12 L270.04,1608.92 L267.732,1607.37 L263.991,1604.86 L263.946,1604.91 L263.004,1605.9 L262.604,1605.86 L260.586,1605.65 L259.836,1605.57 L259.32,1605.51 L259.032,1605.29 L257.563,1604.16 L255.561,1602.63 L255.302,1602.28 L253.686,1600.12 L253.365,1599.7 L253.259,1599.55 L252.492,1598.53 L249.842,1597.64 L245.144,1597.7 L243.87,1598 L241.188,1598.62 L240.281,1598.84 L239.716,1598.97 L235.396,1599.98 L235.268,1600.01 L234.95,1600.09 L234.722,1600.05 L232.35,1599.64 L232.258,1599.63 L232.877,1591.6 L232.89,1591.44 L230.642,1589.85 L230.589,1589.82 L230.585,1589.81 L230.573,1589.77 L228.649,1583.43 L228.641,1583.4 L228.621,1583.4 L227.358,1583.13 L226.872,1583.03 L226.968,1581.76 L227.083,1580.25 L227.362,1576.58 L227.363,1576.56 L227.384,1576.55 L231.597,1574.6 L233.252,1573.83 L233.268,1573.82 L233.217,1573.77 L231.024,1571.56 L222.007,1562.47 L217.694,1561.34 L217.503,1557.11 L217.077,1547.66 L216.112,1526.27 L216.107,1526.16 L221.454,1527.3 L225.28,1523.97 L228.017,1521.59 L228.069,1521.55 L230.645,1521.67 L230.672,1521.67 L229.909,1519.22 L229.906,1519.22 L231.511,1509.93 L231.627,1509.25 L231.662,1509.05 L231.702,1508.99 L232.753,1507.45 L232.777,1507.41 L235.835,1507.08 L235.85,1507.08 L235.895,1506.47 L236.368,1500.09 L236.561,1497.48 L236.836,1496.91 L237.086,1496.39 L237.146,1496.26 L232.377,1494.09 L232.334,1494.07 L232.296,1493.87 L231.703,1490.84 L231.695,1490.8 L231.712,1490.8 L235.034,1489.6 L242.641,1486.84 L242.699,1486.95 L244.22,1489.7 L244.274,1489.8 L244.29,1489.83 L248.056,1491.71 L248.076,1491.7 L248.618,1491.49 L251.591,1490.33 L251.809,1491.09 L253.446,1496.77 L255.405,1497 L257.944,1497.29 L257.958,1497.29 L261.509,1499.59 L260.769,1508.31 L273.291,1505.47 L273.704,1505.38 L273.794,1505.36 L275.071,1505.67 L279.698,1506.79 L279.908,1506.79 L279.937,1506.79 L284.508,1506.86 L284.934,1506.87 L289.411,1506.94 L289.496,1506.94 L291.573,1506.97 L292.557,1507.2 L296.079,1508.05 L302.353,1509.57 L302.349,1509.55 L301.186,1504.9 L301.188,1504.89 L301.882,1501.55 L302.144,1501.34 L303.04,1500.62 L302.803,1498.04 L302.734,1497.3 L303.769,1496.58 L303.792,1496.57 L303.812,1496.55 L303.818,1496.51 L304.116,1494.17 L304.117,1494.16 L304.103,1494.15 L302.564,1492.03 L300.297,1488.92 L299.61,1487.97 L299.084,1487.25 L301.183,1485.74 L301.885,1485.24 L311.26,1478.5 L311.527,1477.84 L313.684,1472.55 L315.458,1468.2 L316.207,1466.36 L316.179,1465.71 L316.002,1461.69 L315.999,1461.61 L315.998,1461.58 L314.363,1460.4 L311.077,1458.02 L304.41,1453.2 L303.721,1452.7 L303.738,1452.64 L303.78,1452.48 L304.311,1450.45 L305.027,1447.71 L305.138,1447.29 L305.18,1447.13 L305.149,1447.12 L303.989,1446.72 L304.031,1446.65 L305.458,1444.29 L305.594,1444.06 L305.746,1443.93 L308.49,1441.53 L308.496,1441.52 L308.499,1441.52 L311.498,1441.05 L312.069,1440.96 L314.058,1440.65 L314.232,1440.31 L316.715,1435.42 L316.941,1434.98 L316.812,1434.96 L315.77,1434.8 L307.428,1433.54 L307.319,1433.52 L307.303,1433.46 L307.007,1432.34 L306.688,1431.13 L306.295,1429.64 L306.437,1429.31 L309.123,1422.94 L309.412,1422.25 L309.558,1420.92 L310.231,1414.77 L310.903,1408.64 L316.574,1396.65 L319.352,1387.92 L324.414,1380.4 L324.387,1380.39 L323.824,1380.04 L319.124,1377.1 L313.678,1373.69 L312.881,1373.19 L303.555,1373.23 L301.419,1372.94 L296.09,1372.2 L295.801,1372.16 L295.721,1372.21 L294.491,1372.9 L291.6,1374.52 L290.983,1374.86 L290.84,1374.82 L290.48,1374.72 L288.879,1374.25 L274.857,1370.19 L262.339,1368.16 L258.673,1367.56 L257.042,1367.65 L251.546,1367.95 L251.114,1367.98 L249.078,1368.09 L245.227,1368.3 L244.812,1368.32 L244.648,1368.33 L244.488,1368.28 L238.959,1366.46 L238.01,1366.15 L237.704,1366.05 L236.871,1366.52 L235.539,1367.27 L234.577,1367.82 L234.283,1367.98 L229.518,1366.35 L229.147,1366.34 L227.212,1366.25 L225.76,1366.19 L218.117,1365.85 L214.409,1365.69 L212.632,1365.61 L207.527,1365.38 L206.989,1365.36 L206.271,1365.33 L203.712,1363.66 L201.134,1359.74 L193.535,1355.92 L191.266,1354.78 L191.231,1354.76 L191.196,1354.73 L185.033,1348.93 L184.832,1348.74 L184.297,1348.23 L174.463,1342.92 L174.332,1342.85 L177.492,1340 L178.911,1338.71 L183.618,1334.46 L186.014,1332.29 L186.752,1331.62 L193.728,1325.32 L200.971,1318.77 L202.435,1314.6 L201.74,1303.53 L201.792,1303.46 L202.597,1302.3 L202.428,1302.24 L197.026,1300.63 L196.974,1300.56 L196.845,1300.39 L195.403,1298.51 L195.383,1298.49 L195.338,1298.46 L192.743,1297.09 L190.411,1295.86 L190.359,1295.83 L191.336,1290.55 L190.876,1290.42 L185.517,1288.95 L185.014,1287.92 L179.889,1277.45 L179.792,1277.56 L179.83,1277.49 L179.934,1277.35 L181.875,1272.9 L184.5,1268.63 L187.174,1265.78 L189.8,1261.51 L191.126,1260.08 L192.426,1257.26 L193.61,1251.66 L194.958,1250.23 L196.189,1246.01 L197.49,1243.2 L200.094,1238.93 L205.442,1233.19 L206.696,1228.99 L208.069,1228.94 L209.37,1226.11 L212.069,1224.64 L220.092,1216.03 L222.814,1214.55 L229.677,1212.92 L235.121,1209.95 L239.076,1204.28 L239.028,1202.88 L237.608,1201.55 L234.557,1193.31 L233.067,1190.58 L232.833,1183.64 L238.277,1180.67 L235.32,1175.21 L231.177,1175.35 L229.616,1169.87 L228.126,1167.14 L226.611,1163 L226.47,1158.85 L223.56,1154.79 L216.411,1148.09 L213.547,1145.4 L216.175,1141.13 L218.851,1138.28 L220.272,1139.61 L222.947,1136.74 L221.457,1134 L220.083,1134.05 L217.172,1129.99 L219.894,1128.49 L221.268,1128.45 L229.485,1125.41 L235.025,1125.22 L239.027,1120.9 L238.98,1119.52 L244.192,1109.61 L244.144,1108.21 L245.378,1104.01 L248.195,1105.29 L251.059,1107.98 L253.876,1109.29 L255.25,1109.24 L259.323,1106.32 L261.459,1104.03 L268.681,1096.27 L269.914,1092.05 L268.4,1087.93 L264.092,1083.92 L261.297,1082.61 L251.448,1078.78 L248.747,1080.25 L245.976,1080.35 L245.929,1078.97 L243.206,1080.44 L241.809,1080.49 L239.108,1081.98 L237.712,1082.03 L236.384,1083.46 L234.894,1080.73 L232.123,1080.82 L230.656,1078.11 L229.259,1078.16 L223.881,1082.5 L219.714,1082.65 L218.246,1079.91 L212.704,1080.1 L210.075,1084.36 L208.843,1088.58 L207.447,1088.63 L204.746,1090.1 L202.07,1092.98 L199.346,1094.45 L192.621,1100.25 L191.272,1101.7 L190.04,1105.9 L187.27,1106 L180.308,1104.83 L174.673,1102.27 L170.434,1099.63 L170.386,1098.23 L166.077,1094.21 L164.561,1090.1 L163.99,1073.43 L162.546,1072.1 L159.608,1066.63 L159.561,1065.25 L162.214,1062.38 L166.381,1062.23 L167.708,1060.79 L170.526,1062.09 L173.249,1060.59 L178.839,1061.81 L181.657,1063.09 L184.358,1061.62 L187.176,1062.9 L191.343,1062.76 L192.765,1064.11 L195.489,1062.61 L199.681,1063.87 L200.747,1054.11 L202.074,1052.66 L202.121,1054.06 L203.518,1054.01 L206.172,1051.14 L206.03,1046.96 L210.104,1044.06 L223.748,1038.02 L231.921,1033.56 L240.165,1031.9 L240.119,1030.52 L242.936,1031.8 L242.983,1033.18 L245.802,1034.49 L258.261,1034.07 L266.669,1036.56 L267.996,1035.12 L274.913,1034.88 L281.899,1036.05 L283.32,1037.38 L283.367,1038.78 L283.461,1041.56 L283.507,1042.94 L289.049,1042.75 L294.778,1048.13 L294.872,1050.91 L296.292,1052.24 L297.806,1056.35 L299.25,1057.71 L302.067,1058.99 L303.488,1060.35 L317.11,1052.92 L319.859,1052.82 L321.348,1055.56 L322.722,1055.51 L323.294,1056.56 L324.212,1058.24 L325.633,1059.6 L327.076,1060.93 L328.45,1060.89 L329.894,1062.24 L331.314,1063.57 L332.688,1063.53 L334.131,1064.86 L335.551,1066.21 L339.765,1067.45 L341.139,1067.41 L342.513,1067.36 L343.957,1068.71 L345.331,1068.67 L346.774,1070 L346.82,1071.4 L348.24,1072.73 L349.683,1074.09 L351.103,1075.42 L353.966,1078.11 L354.169,1079.02 L354.981,1078.01 L355.814,1076.77 L356.24,1074.66 L356.721,1071.98 L357.262,1071.44 L358.055,1070.47 L359.422,1068.41 L361.552,1066.03 L362.63,1065.52 L372.832,1062.18 L381.1,1060.53 L385.153,1057.61 L390.603,1054.64 L404.161,1045.84 L412.337,1041.41 L417.788,1038.45 L419.163,1038.4 L419.891,1038.52 L420.537,1038.35 L421.934,1038.31 L422.34,1038.26 L422.682,1038.22 L423.308,1038.26 L431.485,1033.83 L435.54,1030.91 L436.937,1030.86 L440.992,1027.95 L440.946,1026.55 L443.672,1025.08 L447.773,1023.56 L449.033,1019.33 L451.264,1016.39 L451.72,1016.79 L453.121,1016.23 L454.519,1014.16 L455.048,1012.09 L456.966,1011.6 L458.905,1010.88 L461.221,1010.6 L466.696,1009.02 L473.546,1006.01 L474.876,1004.59 L477.602,1003.09 L493.804,990.046 L493.759,988.667 L496.44,985.795 L499.077,981.544 L511.405,976.953 L512.735,975.529 L519.407,966.959 L516.499,962.889 L515.012,960.153 L514.921,957.372 L516.229,954.544 L517.559,953.12 L518.867,950.293 L518.822,948.913 L520.107,946.087 L520.061,944.685 L519.926,940.524 L521.257,939.099 L521.167,936.317 L515.598,935.095 L519.251,919.671 L518.936,909.945 L518.576,898.839 L518.53,897.436 L518.351,891.895 L515.577,891.985 L514.156,890.627 L512.623,886.511 L513.886,882.28 L513.449,881.876 L512.443,880.946 L510.887,875.426 L509.398,872.688 L507.978,871.353 L507.843,867.191 L509.218,867.146 L513.345,865.607 L516.118,865.516 L517.54,866.874 L518.915,866.829 L520.313,866.783 L521.689,866.739 L523.087,866.693 L524.417,865.245 L525.815,865.2 L528.522,863.731 L529.92,863.685 L532.649,862.192 L533.934,859.364 L536.708,859.274 L538.107,859.229 L538.152,860.631 L539.528,860.587 L540.903,860.542 L540.858,859.139 L542.256,859.094 L545.03,859.004 L546.406,858.959 L547.804,858.913 L549.18,858.869 L550.578,858.824 L551.909,857.399 L553.24,855.974 L554.593,854.526 L555.924,853.101 L557.277,851.653 L558.653,851.608 L561.427,851.518 L562.803,851.474 L564.201,851.428 L565.532,850.004 L566.931,849.959 L568.307,849.914 L569.66,848.466 L572.39,846.996 L576.45,844.079 L579.224,843.989 L580.6,843.945 L581.998,843.9 L583.374,843.855 L584.772,843.81 L588.922,843.676 L590.254,842.252 L591.652,842.206 L594.382,840.714 L595.757,840.67 L597.133,840.626 L598.576,841.984 L620.835,844.031 L620.88,845.434 L620.924,846.814 L620.969,848.217 L622.388,849.553 L623.831,850.911 L625.296,853.65 L626.738,854.985 L628.114,854.941 L630.888,854.852 L632.307,856.188 L635.082,856.1 L636.48,856.055 L639.254,855.966 L640.585,854.542 L644.692,853.029 L644.603,850.246 L644.558,848.843 L647.332,848.754 L647.289,847.375 L645.692,840.472 L645.604,837.689 L646.935,836.242 L648.223,833.694 L653.728,831.857 L656.502,831.769 L657.9,831.724 L657.547,820.59 L660.322,820.502 L660.278,819.121 L657.415,816.427 L657.019,803.912 L658.351,802.487 L658.307,801.084 L658.263,799.703 L659.573,796.875 L659.441,792.711 L660.773,791.264 L666.323,791.087 L664.792,786.967 L668.966,786.834 L669.054,789.618 L673.161,788.083 L673.073,785.298 L672.941,781.134 L672.545,768.616 L674.749,750.441 L671.798,744.983 L673.174,744.94 L675.95,744.851 L678.681,743.359 L680.037,741.934 L681.369,740.487 L686.92,740.31 L691.117,741.582 L700.82,741.275 L700.776,739.871 L704.907,738.358 L707.573,735.486 L710.305,734.017 L702.895,718.931 L704.25,717.483 L706.873,713.23 L708.184,710.401 L710.96,710.313 L714.851,701.826 L719.048,703.099 L718.742,693.362 L722.918,693.23 L724.033,684.831 L726.679,680.576 L727.925,676.343 L729.106,669.347 L731.752,665.092 L731.708,663.688 L733.042,661.902 L741.198,656.068 L743.932,654.6 L753.423,647.341 L761.514,640.104 L761.384,635.936 L762.784,635.892 L789.582,600.519 L813.527,570.583 L817.468,563.497 L824.101,553.538 L826.708,547.877 L830.478,535.216 L836.078,536.426 L843.056,537.616 L845.92,540.318 L861.447,548.186 L868.382,547.972 L876.76,549.12 L879.581,550.417 L881.002,551.78 L882.402,551.737 L890.587,547.289 L891.86,543.076 L894.1,539.451 L894.489,538.822 L894.404,536.034 L897.14,534.544 L901.234,531.628 L906.727,530.076 L910.864,528.565 L916.252,522.82 L917.63,522.778 L917.503,518.585 L918.67,511.584 L919.986,508.754 L921.322,507.329 L922.723,507.286 L926.838,505.754 L936.553,505.458 L947.628,503.736 L954.564,503.526 L958.721,503.399 L960.122,503.357 L964.154,499.06 L968.144,493.358 L969.461,490.527 L973.702,493.189 L975.08,493.148 L975.122,494.53 L976.565,495.893 L978.111,501.428 L980.973,504.109 L985.131,503.984 L987.952,505.305 L992.257,509.35 L995.078,510.671 L997.835,510.588 L1002.06,511.845 L1004.96,515.931 L1005.17,522.912 L1018.92,518.302 L1025.85,518.094 L1029.99,516.586 L1030.03,517.968 L1045.28,517.512 L1046.72,518.875 L1056.44,518.585 L1060.44,517.65 L1063.33,516.973 L1070.19,513.978 L1072.97,513.895 L1073.01,515.301 L1074.41,515.259 L1079.9,513.689 L1084.08,513.565 L1086.86,513.482 L1086.78,510.717 L1092.27,509.147 L1093.63,507.723 L1096.41,507.641 L1107.63,511.483 L1121.57,512.455 L1129.96,514.998 L1137.02,518.987 L1139.8,518.905 L1145.4,520.124 L1153.82,522.667 L1160.75,522.464 L1166.35,523.684 L1173.29,523.48 L1187.24,525.863 L1191.44,527.147 L1195.86,535.366 L1199.97,533.862 L1202.71,532.376 L1209.45,525.217 L1210.81,523.793 L1216.14,516.674 L1220.16,510.976 L1220.08,508.188 L1219.64,492.865 L1222.14,483.036 L1219.28,480.328 L1220.58,477.5 L1218.88,466.408 L1218.52,453.87 L1248.93,448.791 L1269.65,444.019 L1272.43,443.939 L1275.17,442.476 L1279.37,443.739 L1282.19,445.065 L1286.43,447.713 L1286.47,449.119 L1287.87,449.078 L1287.75,444.906 L1296.07,444.668 L1295.75,433.511 L1294.37,433.551 L1294.09,423.8 L1292.65,422.456 L1294.05,422.417 L1294.01,421.011 L1293.97,419.627 L1292.49,416.878 L1292.33,411.299 L1293.7,409.875 L1293.5,402.89 L1294.76,398.677 L1295.96,391.674 L1295.8,386.095 L1297.14,384.672 L1295.68,381.921 L1296.9,376.302 L1295.33,369.377 L1296.55,363.758 L1296.51,362.374 L1297.87,360.927 L1296.39,358.177 L1297.75,356.753 L1301.83,353.844 L1300.35,351.094 L1303.17,352.398 L1305.92,350.935 L1307.36,352.279 L1307.48,356.475 L1311.64,356.356 L1311.83,363.321 L1313.09,359.108 L1315.84,357.622 L1317.24,357.582 L1319.94,354.712 L1322.62,351.843 L1323.9,347.629 L1330.77,344.641 L1332.13,343.217 L1332.09,341.811 L1333.47,341.772 L1340.26,336.016 L1348.52,332.988 L1354.28,339.796 L1358.48,341.062 L1361.34,343.774 L1371.85,371.379 L1378.75,369.8 L1400.9,366.384 L1416.07,361.759 L1424.41,361.526 L1421.79,367.184 L1421.83,368.59 L1432.93,368.28 L1435.67,366.796 L1437.13,369.548 L1438.57,370.915 L1444.13,370.76 L1448.33,372.028 L1448.37,373.412 L1449.75,373.373 L1467.66,367.314 L1470.36,364.446 L1480.01,361.387 L1489.62,356.944 L1495.11,354 L1500.67,353.846 L1502.09,355.192 L1511.92,359.099 L1520.31,360.276 L1524.54,362.952 L1531.49,362.762 L1534.3,364.069 L1537.09,363.993 L1539.83,362.533 L1543.99,362.419 L1546.81,363.727 L1546.92,367.924 L1548.44,372.059 L1549.89,374.812 L1552.79,378.91 L1554.28,383.046 L1554.32,384.452 L1555.83,388.588 L1557.29,391.34 L1561.55,394.016 L1561.58,395.399 L1561.77,402.385 L1563.15,402.347 L1568.68,400.79 L1576.96,399.18 L1595.13,402.863 L1599.29,402.751 L1606.3,403.946 L1611.8,402.413 L1615.94,400.916 L1620.14,402.188 L1622.96,403.496 L1627.19,406.174 L1636.84,403.123 L1638.24,403.085 L1639.58,401.665 L1640.98,401.627 L1645.11,400.132 L1656.21,399.834 L1660.43,401.106 L1663.25,402.415 L1668.82,403.673 L1670.22,403.636 L1675.75,402.081 L1677.13,402.045 L1699.39,402.86 L1709.04,399.812 L1711.63,392.775 L1717.01,385.664 L1719.9,389.764 L1722.72,391.075 L1731.19,396.435 L1737.84,385.115 L1733.6,382.434 L1729.08,368.593 L1722.17,370.183 L1719.13,360.502 L1717.29,343.796 L1715.62,332.692 L1723.94,332.472 L1726.69,330.992 L1730.84,329.497 L1734.92,326.596 L1737.63,323.732 L1741.72,320.832 L1741.69,319.448 L1743.05,318.004 L1745.67,312.372 L1745.63,310.965 L1751.08,306.643 L1755.14,302.358 L1760.59,298.014 L1761.99,297.977 L1764.74,296.52 L1768.87,295.004 L1771.65,294.931 L1778.52,291.981 L1781.27,290.501 L1782.61,289.081 L1785.29,284.81 L1787.89,277.769 L1789.16,273.557 L1790.42,267.937 L1791.8,267.901 L1794.44,262.245 L1794.4,260.861 L1795.95,266.408 L1797.43,270.548 L1798.84,270.512 L1798.98,276.095 L1800.47,280.235 L1803.25,280.163 L1797.11,257.996 L1795.69,256.625 L1795.66,255.24 L1794.25,255.277 L1794.22,253.892 L1792.8,252.521 L1791.33,249.766 L1788.4,244.277 L1786.95,241.521 L1785.46,237.357 L1783.98,234.602 L1782.53,231.868 L1779.64,227.741 L1778.09,222.193 L1776.57,216.667 L1777.73,208.254 L1777.66,205.461 L1778.84,197.069 L1780.15,194.24 L1778.7,191.483 L1780,188.654 L1772.44,165.107 L1772.4,163.722 L1770.91,159.579 L1767.98,154.066 L1760.85,147.276 L1755.1,140.427 L1760.56,136.102 L1756.3,133.418 L1775.41,118.962 L1791.83,107.35 L1791.86,108.758 L1800.38,115.515 L1806.13,122.343 L1806.16,123.751 L1821.43,121.946 L1824.18,120.488 L1826.93,119.008 L1831.06,117.514 L1837.94,114.541 L1846.22,111.531 L1850.5,115.603 L1850.6,119.805 L1853.5,123.913 L1856.46,130.815 L1857.98,136.366 L1859.46,139.124 L1858.2,144.747 L1858.38,151.719 L1858.55,158.691 L1860.1,164.242 L1867.09,165.448 L1864.48,172.491 L1867.23,171.035 L1876.85,166.607 L1884.99,158.013 L1889.02,152.319 L1894.48,147.998 L1900.17,153.444 L1905.84,157.48 L1911.48,160.132 L1912.9,161.482 L1918.54,164.134 L1925.59,168.158 L1929.89,172.231 L1934.12,174.918 L1939.62,171.984 L1940.93,169.156 L1940.79,163.569 L1937.87,158.076 L1936.31,151.116 L1935.68,125.996 L1934.1,119.058 L1936.64,109.22 L1937.86,102.211 L1937.69,95.237 L1940.16,82.6032 L1950.07,89.3318 L1951.49,90.6826 L1960.09,100.24 L1964.39,105.723 L1967.32,111.242 L1980.15,123.488 L1997.12,134.222 L2004.21,139.636 L2008.5,143.733 L2014.15,147.774 L2017.04,151.883 L2033.99,161.233 L2036.85,165.366 L2038.36,169.51 L2041.25,173.619 L2042.7,176.378 L2045.55,179.102 L2047.02,181.861 L2052.74,188.694 L2057.06,194.177 L2064.11,198.183 L2068.38,202.258 L2074.02,204.914 L2083.75,204.674 L2092.13,205.877 L2094.96,208.602 L2096.43,211.36 L2097.85,212.712 L2106.13,209.715 L2108.88,208.262 L2110.43,215.198 L2110.46,216.583 L2109.32,226.379 L2108.05,231.998 L2109.56,236.164 L2109.69,241.725 L2108.36,244.552 L2107.08,248.763 L2108.53,251.521 L2110.07,257.071 L2110.17,261.248 L2111.58,262.621 L2112.99,262.587 L2115.73,261.112 L2123.99,258.139 L2128.21,259.422 L2133.82,262.079 L2135.26,263.43 L2140.83,263.294 L2143.62,264.635 L2151.97,264.432 L2158.98,267.056 L2167.33,266.854 L2181.19,265.112 L2186.76,264.978 L2188.17,266.352 L2188.3,271.913 L2189.7,271.88 L2192.59,276.012 L2198.15,275.878 L2199.4,270.262 L2199.33,267.47 L2202.05,264.611 L2203.5,267.37 L2203.56,270.162 L2207.78,271.446 L2210.7,276.963 L2212.08,276.93 L2223.02,269.697 L2224.39,268.279 L2229.92,266.739 L2238.25,266.541 L2243.88,269.2 L2250.8,267.651 L2261.63,254.835 L2264.32,250.569 L2264.19,244.985 L2266.9,242.15 L2268.28,242.117 L2271.17,246.228 L2274.11,253.132 L2274.15,254.539 L2269.99,256.023 L2277.22,267.026 L2282.83,269.665 L2292.69,275.019 L2295.54,277.746 L2297.01,280.505 L2302.55,280.375 L2305.3,278.925 L2306.73,280.276 L2312.49,288.521 L2315.29,289.841 L2315.35,292.633 L2319.6,295.327 L2322.42,296.646 L2323.83,298.021 L2323.93,302.197 L2325.43,306.34 L2329.65,309.034 L2332.53,313.168 L2331.16,314.585 L2328.38,314.649 L2330.01,324.375 L2327.39,331.406 L2338.85,346.486 L2344.31,342.182 L2354.3,353.096 L2358.74,364.162 L2367.25,372.319 L2364.6,377.964 L2360.53,382.257 L2364.76,384.928 L2366.19,386.302 L2372.2,405.682 L2376.71,420.919 L2347.71,428.556 L2356.64,454.83 L2353.86,454.894 L2356.83,463.197 L2354.08,464.668 L2351.33,464.731 L2351.49,471.693 L2348.77,474.546 L2343.21,474.676 L2340.46,476.123 L2340.5,477.529 L2336.34,477.626 L2335,480.425 L2335.03,481.831 L2331.29,500.043 L2324.35,500.205 L2324.52,507.165 L2323.21,511.369 L2321.83,511.401 L2319.12,514.254 L2317.74,514.287 L2316.37,515.702 L2316.4,517.108 L2317.87,519.864 L2317.9,521.246 L2319.38,525.408 L2320.79,526.759 L2320.85,529.547 L2322.35,533.685 L2322.51,540.644 L2323.95,543.4 L2325.36,543.367 L2326.77,544.74 L2326.89,550.294 L2328.3,550.261 L2328.36,553.049 L2329.77,554.422 L2331.2,555.772 L2339.55,556.984 L2347.98,560.96 L2352.14,560.864 L2356.33,562.15 L2361.82,559.256 L2363.26,560.606 L2364.6,559.192 L2370.16,559.064 L2370.13,557.658 L2372.91,557.594 L2374.25,556.18 L2381.19,556.02 L2386.81,558.68 L2392.59,568.298 L2396.72,566.797 L2403.56,562.467 L2406.3,560.999 L2414.7,563.595 L2417.54,566.32 L2420.36,567.662 L2421.73,567.63 L2424.39,561.991 L2428.51,560.491 L2432.66,559.013 L2435.35,556.163 L2439.5,554.685 L2442.22,551.834 L2447.78,553.091 L2454.74,552.933 L2457.5,552.87 L2461.68,552.776 L2463.09,554.15 L2468.77,559.577 L2470.18,560.952 L2473.02,563.677 L2477.29,567.753 L2485.76,574.523 L2492.76,577.155 L2495.6,579.88 L2495.66,582.667 L2501.35,588.118 L2502.84,592.256 L2505.63,593.577 L2508.53,599.089 L2511.34,600.432 L2514.24,605.922 L2514.27,607.327 L2511.59,611.558 L2510.27,614.376 L2511.71,617.132 L2511.77,619.92 L2513.23,622.675 L2511.83,622.706 L2511.9,625.493 L2513.39,629.631 L2513.45,632.418 L2514.86,633.769 L2517.67,635.112 L2521.82,635.019 L2521.85,636.401 L2526.12,640.476 L2526.18,643.228 L2526.19,643.263 L2527.56,643.233 L2540.17,648.528 L2540.14,647.146 L2541.52,647.115 L2542.95,648.466 L2547.11,648.374 L2549.92,649.717 L2556.91,652.327 L2556.94,653.732 L2562.71,663.35 L2564.12,664.702 L2564.18,667.488 L2567.02,670.213 L2567.05,671.617 L2568.48,672.969 L2568.69,682.709 L2570.13,685.465 L2568.85,689.663 L2568.91,692.449 L2567.57,695.265 L2567.6,696.647 L2567.63,698.052 L2564.91,700.899 L2559.44,703.807 L2555.36,708.067 L2552.61,709.51 L2548.49,711.006 L2547.14,712.418 L2547.17,713.822 L2545.8,715.235 L2546.59,717.449 L2548.76,723.53 L2550.23,726.285 L2550.32,730.452 L2558.81,738.624 L2569.91,738.378 L2572.78,742.483 L2575.57,743.804 L2578.43,747.932 L2579.83,747.901 L2581.3,752.038 L2581.36,754.823 L2582.79,756.173 L2582.82,757.577 L2584.29,761.713 L2585.69,761.682 L2585.72,763.086 L2583,765.932 L2581.61,765.963 L2581.7,770.129 L2583.13,771.479 L2583.16,772.883 L2587.49,781.124 L2590.27,781.063 L2588.93,783.878 L2587.61,786.693 L2586.3,789.508 L2583.58,792.353 L2580.84,793.795 L2578.09,795.26 L2578.15,798.045 L2578.21,800.829 L2576.88,803.622 L2576.92,805.546 L2577.03,810.594 L2571.68,819.046 L2570.34,821.861 L2566.28,826.118 L2565.03,831.716 L2565.06,833.12 L2563.78,838.696 L2563.88,842.883 L2565.4,848.42 L2568.18,853.715 L2568.92,855.134 L2571.17,859.41 L2567.08,862.285 L2567.14,865.069 L2566.04,877.613 L2566.25,887.344 L2570.43,888.632 L2574.58,888.541 L2578.79,891.233 L2587.18,893.833 L2594.22,899.247 L2600.01,910.234 L2607.09,917.051 L2617,926.568 L2621.17,926.477 L2622.54,926.447 L2623.03,927.361 L2624,929.199 L2628.24,933.271 L2636.81,945.601 L2638.36,952.515 L2638.51,959.46 L2641.34,962.181 L2642.87,969.096 L2645.91,981.543 L2647.4,985.697 L2648.92,992.611 L2651.84,999.494 L2652.08,1010.62 L2650.71,1012.03 L2655.03,1018.88 L2660.62,1021.54 L2667.68,1026.96 L2670.45,1026.9 L2671.88,1029.65 L2673.29,1031 L2679.01,1039.22 L2681.84,1041.94 L2684.7,1046.04 L2690.34,1050.09 L2697.37,1055.5 L2704.38,1059.51 L2796.27,1147.89 L2800.93,1172.69 L2774.67,1174.72 L2745.71,1180.89 L2715.64,1198.19 L2698.12,1220.81 L2682.12,1234.83 L2655.67,1242.53 L2627.94,1241.92 L2604.44,1240.87 L2588.16,1239.7 L2564.26,1238.97 L2529.61,1236.99 L2497.97,1230.64 L2475.92,1233.04 L2445.24,1234.45 L2424.15,1234.95 L2406.45,1336.92 L2399.98,1352.03 L2397.68,1392.52 L2393.69,1404.84 L2376.07,1417.75 L2363.85,1433.58 L2363.11,1433.86 L2305.42,1461.53 L2301.56,1489.97 L2305.05,1518.22 L2305.14,1522.39 L2297.36,1543.36 L2297.39,1544.76 L2306.3,1592.83 L2306.85,1595.82 L2305.61,1601.39 L2300.12,1627.21 L2294.17,1659.77 L2289.54,1683.48 L2293.3,1724.99 L2300.05,1777.46 L2301.81,1794.03 L2301.97,1800.95 L2301.96,1830.92 L2301.95,1859.1 L2303.58,1870.13 L2308.56,1965.5 L2308.62,1968.25 L2317.32,1986.03 L2318.63,2042.7 L2317.75,2043.87 L2306.85,2069.27 L2300.36,2087.38 L2298.96,2086.04 L2288.35,2104.26 L2287.02,2105.67 L2282.93,2107.16 L2263.68,2108.99 L2261.15,2118.72 L2259.86,2122.89 L2260.02,2129.82 L2258.69,2131.22 L2257.43,2136.79 L2254.79,2140.99 L2242.33,2138.52 L2244.97,2134.31 L2236.66,2131.74 L2233.9,2131.81 L2232.54,2133.21 L2229.84,2134.67 L2227.15,2137.5 L2228.52,2137.47 L2238.11,2145.04 L2229.17,2165.1 L2223.92,2176.27 L2224.08,2183.17 L2225.54,2185.9 L2226.94,2187.27 L2231.28,2195.44 L2234.18,2202.3 L2239.88,2210.44 L2238.81,2222.9 L2236.07,2282.37 L2237.52,2285.1 L2235.95,2290.61 L2236.3,2292.03 L2235,2294.82 L2233.63,2294.85 L2233.66,2296.25 L2232.28,2296.28 L2232.31,2297.65 L2230.94,2297.68 L2229.55,2297.72 L2229.59,2299.09 L2222.16,2333.79 L2223.63,2337.91 L2222.48,2342.33 L2212.64,2338.17 L2208.46,2336.88 L2205.71,2336.95 L2204.31,2335.61 L2202.86,2332.88 L2202.79,2330.12 L2163.08,2338.9 L2105.14,2349.06 L2102.87,2364.4 L2100.72,2376.77 L2099.57,2386.46 L2100.11,2408.53 L2100.37,2419.58 L2098.8,2422.13 L2092.15,2421.15 L2090.79,2421.18 L2088.1,2424.01 L2083.98,2424.11 L2082.6,2424.15 L2081.23,2424.18 L2071.68,2427.18 L2067.56,2427.28 L2064.81,2427.35 L2060.67,2427.45 L2048.19,2423.63 L2046.82,2423.66 L2038.6,2425.23 L2037.13,2421.14 L2035.41,2407.36 L2036.56,2397.67 L2036.52,2396.3 L2036.49,2394.91 L2030.95,2393.68 L2030.98,2395.05 L2029.58,2393.71 L2028.2,2393.75 L2026.83,2393.78 L2025.44,2393.82 L2024.08,2393.85 L2021.32,2393.92 L2018.54,2392.62 L2018.5,2391.22 L2017.14,2391.26 L2007.45,2388.74 L2004.66,2387.44 L2001.73,2380.61 L1998.91,2377.92 L1991.97,2375.33 L1987.89,2376.8 L1983.71,2375.53 L1978.17,2374.28 L1971.3,2374.45 L1970.51,2373.77 L1967.18,2374.56 L1964.46,2376.02 L1961.78,2378.85 L1960.48,2381.65 L1959.13,2383.05 L1956.45,2385.88 L1955.22,2386.86 L1953.8,2387.62 L1952.03,2389.33 L1951.58,2390.33 L1951.61,2392.4 L1951.7,2393.51 L1951.73,2394.97 L1950.94,2397.1 L1950.22,2398.23 L1949.92,2399.84 L1949.68,2401.38 L1950.14,2403.48 L1950.46,2405.08 L1949.84,2406.33 L1949.17,2407.66 L1948.97,2409.28 L1949.05,2410.18 L1948.83,2410.92 L1948.26,2412.29 L1947.41,2414.01 L1947.54,2415.43 L1947.92,2417.04 L1947.65,2419.24 L1946.86,2420.81 L1946.35,2422.29 L1946.31,2424.13 L1946.55,2425.91 L1946.48,2427.07 L1946.46,2428.35 L1946.15,2430.12 L1942.48,2431.77 L1941.13,2432.29 L1939.77,2433.24 L1937.05,2434.03 L1934.23,2436.01 L1931.61,2437.58 L1927.57,2440.44 L1923.46,2441.94 L1920.63,2437.86 L1920.56,2435.09 L1913.67,2435.27 L1912.3,2435.3 L1912.27,2433.93 L1909.51,2434 L1909.48,2432.61 L1908.08,2431.28 L1905.33,2431.35 L1903.91,2430.01 L1901.05,2425.93 L1900.94,2421.8 L1899.54,2420.47 L1889.89,2419.32 L1888.49,2417.98 L1888.42,2415.22 L1889.57,2406.9 L1886.68,2401.45 L1887.85,2393.15 L1887.71,2387.63 L1879.39,2385.08 L1878.07,2387.88 L1872.76,2394.91 L1867.15,2390.92 L1864.36,2389.6 L1861.57,2388.3 L1845.11,2390.09 L1845.29,2397.01 L1844.04,2402.55 L1844.15,2406.7 L1844.22,2409.46 L1844.29,2412.2 L1844.33,2413.59 L1844.36,2414.96 L1843.03,2416.39 L1841.74,2419.19 L1840.39,2420.59 L1839.06,2422.02 L1837.74,2424.79 L1836.41,2426.22 L1835.02,2426.26 L1835.09,2429.02 L1833.73,2429.05 L1833.76,2430.42 L1832.44,2431.85 L1831.15,2436.02 L1831.19,2437.39 L1829.86,2438.81 L1831.26,2440.15 L1829.93,2441.57 L1829.97,2442.94 L1828.58,2442.98 L1830.04,2445.7 L1828.65,2445.74 L1828.72,2448.5 L1830.21,2452.6 L1830.25,2453.99 L1828.86,2454.02 L1828.93,2456.78 L1829,2459.52 L1827.68,2460.95 L1826.29,2460.99 L1829.08,2462.28 L1837.79,2480 L1851.7,2486.54 L1857.24,2487.79 L1857.31,2490.55 L1858.68,2490.51 L1858.75,2493.25 L1860.13,2493.22 L1860.2,2495.98 L1861.6,2497.33 L1860.28,2498.74 L1861.64,2498.7 L1861.78,2504.22 L1869.11,2521.98 L1867.74,2522.01 L1867.81,2524.77 L1866.45,2524.81 L1866.55,2528.94 L1863.8,2529.01 L1865.2,2530.34 L1863.87,2531.77 L1863.94,2534.53 L1862.56,2534.56 L1863.98,2535.89 L1862.63,2537.32 L1862.66,2538.69 L1861.33,2540.09 L1861.37,2541.48 L1862.77,2542.82 L1861.44,2544.24 L1862.8,2544.21 L1861.47,2545.61 L1862.87,2546.97 L1862.91,2548.34 L1865.73,2551.03 L1865.8,2553.79 L1867.22,2555.12 L1867.26,2556.51 L1868.69,2559.23 L1868.73,2560.6 L1870.09,2560.57 L1870.12,2561.94 L1871.51,2561.9 L1874.3,2563.22 L1878.41,2563.12 L1879.76,2561.69 L1881.13,2561.65 L1882.46,2560.25 L1883.88,2561.58 L1888.06,2564.24 L1889.45,2564.2 L1885.49,2571.22 L1890.15,2591.77 L1896.22,2615.07 L1899.39,2631.53 L1897.51,2666.05 L1876.9,2665.21 L1871.43,2666.71 L1870.07,2666.75 L1867.39,2669.58 L1862.1,2677.99 L1862.17,2680.73 L1862.31,2686.24 L1859.74,2693.2 L1858.45,2695.99 L1855.74,2697.45 L1854.39,2698.85 L1851.67,2700.31 L1844.92,2704.62 L1846.48,2711.46 L1845.31,2719.77 L1846.76,2722.49 L1846.83,2725.23 L1845.48,2726.65 L1845.52,2728.02 L1845.55,2729.41 L1845.59,2730.78 L1845.63,2732.17 L1845.7,2734.92 L1847.08,2734.89 L1847.15,2737.62 L1848.51,2737.59 L1848.62,2741.73 L1850.04,2743.07 L1850.08,2744.46 L1851.47,2745.79 L1850.11,2745.82 L1852.91,2748.51 L1852.94,2749.88 L1854.33,2749.84 L1852.98,2751.27 L1848.97,2755.5 L1843.51,2757.03 L1840.82,2758.47 L1832.65,2761.43 L1828.54,2761.54 L1825.79,2761.61 L1825.83,2762.98 L1824.44,2763.02 L1820.47,2768.63 L1820.51,2770.02 L1817.76,2770.1 L1817.87,2774.22 L1819.27,2775.55 L1807.08,2781.38 L1802.95,2781.49 L1796.09,2781.67 L1794.76,2783.09 L1794.83,2785.83 L1786.77,2792.95 L1785.41,2792.98 L1785.37,2791.59 L1783.95,2790.26 L1782.59,2790.3 L1781.13,2787.58 L1778.39,2787.65 L1776.95,2784.93 L1772.84,2785.03 L1771.28,2778.19 L1771.17,2774.05 L1769.81,2774.08 L1768.28,2768.63 L1761.39,2767.42 L1754.57,2768.99 L1754.53,2767.6 L1753.14,2767.63 L1753.07,2764.88 L1752.86,2763.63 L1752.64,2762.18 L1752.46,2761.25 L1752.36,2760.87 L1744.78,2762.36 L1740.68,2763.83 L1737.99,2765.27 L1735.25,2765.35 L1733.83,2764.02 L1732.46,2764.05 L1731.04,2762.72 L1729.68,2762.76 L1728.25,2760.04 L1725.43,2757.35 L1725.39,2755.96 L1724,2756 L1721.22,2754.7 L1718.47,2754.78 L1715.71,2753.46 L1714.44,2757.64 L1711.8,2761.84 L1707.76,2764.7 L1705.12,2768.9 L1705.16,2770.29 L1703.98,2777.21 L1702.63,2778.61 L1700.1,2786.95 L1698.81,2789.75 L1697.46,2791.15 L1696.1,2791.18 L1693.39,2792.65 L1689.24,2791.37 L1686.53,2792.83 L1683.75,2791.51 L1681,2791.59 L1675.47,2790.37 L1672.72,2790.44 L1670.93,2791.59 L1670.03,2791.88 L1664.57,2793.41 L1660.5,2794.89 L1659.15,2796.32 L1656.48,2799.15 L1655.23,2803.31 L1651.21,2807.54 L1651.24,2808.93 L1649.92,2810.33 L1649.95,2811.72 L1648.63,2813.13 L1648.66,2814.49 L1648.7,2815.88 L1646.06,2820.08 L1643.39,2822.91 L1643.43,2824.27 L1641.63,2825.89 L1640.72,2825.74 L1639.36,2825.77 L1632.66,2832.84 L1631.34,2834.26 L1619.14,2840.08 L1617.75,2840.12 L1617.57,2833.24 L1616.17,2831.91 L1612.06,2832.02 L1610.71,2833.43 L1606.68,2836.29 L1604,2839.12 L1599.97,2841.99 L1597.15,2839.31 L1598.36,2833.76 L1598.22,2828.25 L1599.27,2815.82 L1596.52,2815.9 L1597.81,2813.13 L1597.73,2810.37 L1599.04,2807.58 L1598.93,2803.43 L1600.26,2802.03 L1594.76,2802.18 L1587.87,2801 L1589.07,2794.06 L1594.22,2778.78 L1594.96,2758.08 L1590.82,2756.81 L1591.99,2749.89 L1591.96,2748.52 L1585.06,2747.32 L1579.53,2746.1 L1578.13,2744.75 L1574,2744.86 L1567.21,2747.8 L1564.5,2749.27 L1553.65,2753.69 L1544.08,2755.34 L1539.98,2756.82 L1533.09,2755.64 L1522.23,2760.07 L1515.39,2761.62 L1512.66,2761.7 L1511.28,2761.74 L1509.92,2761.77 L1508.49,2760.44 L1505.75,2760.52 L1504.42,2761.93 L1501.71,2763.39 L1498.97,2763.47 L1497.64,2764.87 L1494.89,2764.95 L1493.47,2763.62 L1493.43,2762.23 L1490.67,2760.94 L1490.52,2755.42 L1486.16,2747.27 L1477.94,2747.49 L1475.15,2746.2 L1475.11,2744.84 L1473.73,2744.87 L1473.65,2742.12 L1472.29,2742.16 L1472.25,2740.77 L1470.87,2740.8 L1469.47,2739.48 L1469.43,2738.09 L1467.99,2735.37 L1467.72,2725.73 L1466.26,2723.03 L1464.9,2723.07 L1463.48,2721.72 L1459.37,2721.83 L1458.02,2723.26 L1455.29,2723.34 L1452.51,2722.02 L1451.08,2720.69 L1449.72,2720.48 L1448.73,2719.59 L1442.82,2719.53 L1441.48,2720.96 L1441.59,2725.09 L1444.34,2725.01 L1445.82,2729.1 L1445.93,2733.24 L1447.39,2735.94 L1443.03,2734.19 L1443.58,2736.09 L1444.59,2739.97 L1444.99,2742.31 L1445.04,2744.05 L1444.71,2746.21 L1444.65,2746.63" vector-effect="none" fill-rule="evenodd"/>
  </g>
  <g stroke-linejoin="bevel" stroke-width="1" font-size="34.5833" fill="none" stroke-linecap="square" stroke="#000000" font-weight="400" font-style="normal" stroke-opacity="1" transform="matrix(0.999744,0,0,0.999744,0,0)" font-family="MS Shell Dlg 2"/>
  <g stroke-linejoin="bevel" stroke-width="1" font-size="34.5833" fill="none" stroke-linecap="square" stroke="#000000" font-weight="400" font-style="normal" stroke-opacity="1" transform="matrix(11.808,0,0,11.808,0,0)" font-family="MS Shell Dlg 2"/>
  <g stroke-linejoin="bevel" stroke-width="1" font-size="34.5833" fill="none" stroke-linecap="square" stroke="#000000" font-weight="400" font-style="normal" stroke-opacity="1" transform="matrix(11.808,0,0,11.808,0,0)" font-family="MS Shell Dlg 2"/>
  <g stroke-linejoin="bevel" stroke-width="1" font-size="34.5833" fill="none" stroke-linecap="square" stroke="#000000" font-weight="400" font-style="normal" stroke-opacity="1" transform="matrix(11.808,0,0,11.808,0,0)" font-family="MS Shell Dlg 2"/>
  <g stroke-linejoin="bevel" stroke-width="1" font-size="34.5833" fill="none" stroke-linecap="square" stroke="#000000" font-weight="400" font-style="normal" stroke-opacity="1" transform="matrix(1,0,0,1,0,0)" font-family="MS Shell Dlg 2"/>
  <g stroke-linejoin="bevel" stroke-width="1" font-size="34.5833" fill="none" stroke-linecap="square" stroke="#000000" font-weight="400" font-style="normal" stroke-opacity="1" transform="matrix(11.808,0,0,11.808,0,0)" font-family="MS Shell Dlg 2"/>
  <g stroke-linejoin="bevel" stroke-width="1" font-size="34.5833" fill="none" stroke-linecap="square" stroke="#000000" font-weight="400" font-style="normal" stroke-opacity="1" transform="matrix(11.808,0,0,11.808,0,0)" font-family="MS Shell Dlg 2"/>
  <g stroke-linejoin="bevel" stroke-width="1" font-size="34.5833" fill="none" stroke-linecap="square" stroke="#000000" font-weight="400" font-style="normal" stroke-opacity="1" transform="matrix(11.808,0,0,11.808,0,0)" font-family="MS Shell Dlg 2"/>
  <g stroke-linejoin="bevel" stroke-width="1" font-size="34.5833" fill="none" stroke-linecap="square" stroke="#000000" font-weight="400" font-style="normal" stroke-opacity="1" transform="matrix(11.808,0,0,11.808,0,0)" font-family="MS Shell Dlg 2"/>
  <g stroke-linejoin="bevel" stroke-width="1" font-size="34.5833" fill="none" stroke-linecap="square" stroke="#000000" font-weight="400" font-style="normal" stroke-opacity="1" transform="matrix(1,0,0,1,0,0)" font-family="MS Shell Dlg 2"/>
 </g>
</svg>
