<?xml version='1.0' encoding='UTF-8' standalone='no'?>
<svg xmlns:xlink="http://www.w3.org/1999/xlink" baseProfile="tiny" xmlns="http://www.w3.org/2000/svg" height="249.936mm" viewBox="0 0 2952 2952" width="249.936mm" version="1.2">
 <title>Qt SVG Document</title>
 <desc>Generated with Qt</desc>
 <defs/>
 <g stroke-width="1" fill-rule="evenodd" fill="none" stroke-linejoin="bevel" stroke-linecap="square" stroke="black">
  <g stroke-width="1" transform="matrix(1,0,0,1,0,0)" stroke-opacity="1" font-size="34.5833" fill="none" stroke-linejoin="bevel" font-style="normal" stroke-linecap="square" stroke="#000000" font-family="MS Shell Dlg 2" font-weight="400"/>
  <g stroke-width="1" transform="matrix(1,0,0,1,0,0)" stroke-opacity="1" font-size="34.5833" fill="none" stroke-linejoin="bevel" font-style="normal" stroke-linecap="square" stroke="#000000" font-family="MS Shell Dlg 2" font-weight="400"/>
  <g stroke-width="1" transform="matrix(11.808,0,0,11.808,0,0)" stroke-opacity="1" font-size="34.5833" fill="none" stroke-linejoin="bevel" font-style="normal" stroke-linecap="square" stroke="#000000" font-family="MS Shell Dlg 2" font-weight="400"/>
  <g stroke-width="1" transform="matrix(0.999744,0,0,0.999744,0,0)" stroke-opacity="1" font-size="34.5833" fill="none" stroke-linejoin="bevel" font-style="normal" stroke-linecap="square" stroke="#000000" font-family="MS Shell Dlg 2" font-weight="400"/>
  <g transform="matrix(0.999744,0,0,0.999744,0,0)" font-size="34.5833" fill-opacity="0" fill="#ffffff" font-style="normal" stroke="none" font-family="MS Shell Dlg 2" font-weight="400">
   <path fill-rule="evenodd" vector-effect="none" d="M-2,-2 L2955,-2 L2955,2955 L-2,2955 L-2,-2"/>
  </g>
  <g stroke-width="1" transform="matrix(0.999744,0,0,0.999744,0,0)" stroke-opacity="1" font-size="34.5833" fill="none" stroke-linejoin="bevel" font-style="normal" stroke-linecap="square" stroke="#000000" font-family="MS Shell Dlg 2" font-weight="400"/>
  <g stroke-width="1" transform="matrix(11.808,0,0,11.808,0,0)" stroke-opacity="1" font-size="34.5833" fill="none" stroke-linejoin="bevel" font-style="normal" stroke-linecap="square" stroke="#000000" font-family="MS Shell Dlg 2" font-weight="400"/>
  <g stroke-width="1" transform="matrix(11.808,0,0,11.808,0,0)" stroke-opacity="1" font-size="34.5833" fill="none" stroke-linejoin="bevel" font-style="normal" stroke-linecap="square" stroke="#000000" font-family="MS Shell Dlg 2" font-weight="400"/>
  <g stroke-width="1" transform="matrix(11.808,0,0,11.808,0,0)" stroke-opacity="1" font-size="34.5833" fill="none" stroke-linejoin="bevel" font-style="normal" stroke-linecap="square" stroke="#000000" font-family="MS Shell Dlg 2" font-weight="400"/>
  <g stroke-width="1" transform="matrix(11.808,0,0,11.808,0,0)" stroke-opacity="1" font-size="34.5833" fill="none" stroke-linejoin="bevel" font-style="normal" stroke-linecap="square" stroke="#000000" font-family="MS Shell Dlg 2" font-weight="400"/>
  <g stroke-width="1" transform="matrix(11.808,0,0,11.808,0,0)" stroke-opacity="1" font-size="34.5833" fill="none" stroke-linejoin="bevel" font-style="normal" stroke-linecap="square" stroke="#000000" font-family="MS Shell Dlg 2" font-weight="400"/>
  <g transform="matrix(11.808,0,0,11.808,0,0)" font-size="34.5833" fill-opacity="0" fill="#ffffff" font-style="normal" stroke="none" font-family="MS Shell Dlg 2" font-weight="400">
   <path fill-rule="evenodd" vector-effect="none" d="M0,0 L250,0 L250,250 L0,250 L0,0"/>
  </g>
  <g stroke-width="1" transform="matrix(11.808,0,0,11.808,0,0)" stroke-opacity="1" font-size="34.5833" fill="none" stroke-linejoin="bevel" font-style="normal" stroke-linecap="square" stroke="#000000" font-family="MS Shell Dlg 2" font-weight="400"/>
  <g stroke-width="1" transform="matrix(11.808,0,0,11.808,0,0)" stroke-opacity="1" font-size="34.5833" fill="none" stroke-linejoin="bevel" font-style="normal" stroke-linecap="square" stroke="#000000" font-family="MS Shell Dlg 2" font-weight="400"/>
  <g transform="matrix(0.999744,0,0,0.999744,0,0)" font-size="34.5833" fill-opacity="0" fill="#000000" font-style="normal" stroke="none" font-family="MS Shell Dlg 2" font-weight="400">
   <rect x="0" height="2953" width="2953" y="0"/>
  </g>
  <g stroke-width="1" transform="matrix(0.999744,0,0,0.999744,0,0)" stroke-opacity="1" font-size="34.5833" fill="none" stroke-linejoin="bevel" font-style="normal" stroke-linecap="square" stroke="#000000" font-family="MS Shell Dlg 2" font-weight="400"/>
  <g stroke-width="3.07087" transform="matrix(0.999744,0,0,0.999744,0,0)" stroke-opacity="1" font-size="34.5833" fill-opacity="1" fill="#c5c5c5" stroke-linejoin="bevel" font-style="normal" stroke-linecap="square" stroke="#5c5c5c" font-family="MS Shell Dlg 2" font-weight="400">
   <path fill-rule="evenodd" vector-effect="none" d="M873.453,2346.91 L872.904,2346.15 L864.579,2344.89 L863.931,2345.16 L861.42,2342.87 L856.085,2343.79 L852.792,2343.4 L848.247,2339.2 L846.397,2339.05 L843.229,2339.68 L842.584,2339.27 L838.043,2339.24 L836.066,2338.36 L834.561,2335.89 L832.04,2333.61 L831.377,2332.42 L825.648,2335.7 L821.936,2335.27 L818.842,2334.64 L818.694,2333.73 L817.118,2332.22 L814.743,2331.8 L813.952,2330.95 L811.867,2330.76 L810.028,2329.07 L808.522,2328.92 L802.036,2331.03 L800.912,2330.79 L798.766,2328.78 L793.178,2326.88 L784.944,2328.52 L781.174,2328.33 L777.057,2330.09 L775.612,2330.06 L774.182,2329.34 L773.438,2335.99 L771.813,2336.52 L771.441,2337.84 L770.232,2336.74 L766.403,2335.37 L761.971,2335.54 L756.365,2334.55 L753.279,2333.49 L751.004,2334.39 L747.916,2334.08 L744.405,2333.05 L742.091,2329.9 L741.715,2327.38 L742.023,2327.01 L740.872,2325.64 L741.402,2321.9 L740.487,2319.57 L741.341,2317.61 L740.544,2316.16 L738.796,2315.49 L737.027,2313.51 L737.815,2310.56 L738.246,2310.07 L739.187,2310.25 L739.789,2308.76 L740.976,2307.65 L741.855,2304.86 L741.906,2302.09 L743.17,2300.81 L744.275,2297.78 L745.326,2297.15 L745.296,2295.53 L746.261,2291.91 L749.309,2288.47 L751.173,2289.12 L753.572,2288.21 L754.133,2287.18 L754.964,2287.44 L755.473,2285.9 L758.674,2283.89 L763.386,2283.92 L765.496,2285 L765.8,2284.67 L767.014,2285.16 L768.549,2284.85 L770.257,2285.63 L772.71,2283.78 L775.009,2283.06 L775.437,2282.58 L775.344,2281.42 L776.506,2281.22 L777.146,2279.74 L773.355,2277.59 L766.532,2269.75 L761.552,2265.53 L756.645,2259.14 L752.235,2257.07 L749.521,2256.88 L746.217,2254.66 L743.394,2255.11 L741.167,2254.41 L738.98,2252.6 L735.522,2251.97 L733.527,2253.95 L726.771,2255.02 L721.335,2257 L714.095,2253.56 L709.435,2255.2 L704.699,2254.07 L703.92,2254.85 L701.99,2255.09 L701.865,2256.28 L699.991,2257.16 L698.635,2257.15 L696.72,2256.34 L695.524,2255.05 L694.645,2254.86 L690.904,2254.44 L683.584,2255.05 L681.959,2254.08 L681.429,2254.25 L679.751,2252.66 L674.495,2250.2 L670.912,2249.43 L666.952,2247.7 L662.806,2246.92 L660.399,2245.32 L654.708,2243.3 L654.527,2242.56 L655.282,2241.9 L653.831,2241.24 L652.631,2239.99 L648.757,2238.34 L647.81,2236.77 L646.115,2235.5 L645.364,2233.41 L639.386,2233.13 L637.987,2231.54 L635.386,2230.31 L634.622,2228.49 L633.212,2227.64 L634.15,2223.99 L635.289,2222.12 L635.216,2212 L636.394,2209.1 L636.288,2205.7 L637.308,2202.82 L639.3,2201.87 L640.422,2197.26 L641.732,2195.23 L643.632,2190.17 L645.48,2187.51 L645.347,2185.97 L643.277,2182.1 L642.732,2180.54 L642.669,2177.64 L641.34,2174.94 L638.424,2172.3 L638.3,2171.69 L634.934,2169.14 L633.375,2166.61 L632.498,2166.02 L631.905,2165.2 L632.039,2163.24 L631.357,2162.97 L631.027,2161.4 L629.758,2160.47 L629.067,2158.87 L628.584,2158.82 L627.251,2156.08 L621.947,2150.8 L616.403,2146.21 L613.619,2144.57 L613.298,2143.56 L613.77,2142.68 L614.86,2134.17 L615.439,2132.91 L614.999,2131.71 L615.555,2131.07 L615.218,2129.5 L615.633,2128.01 L614.498,2119.9 L614.927,2119.04 L620.977,2113.69 L622.166,2111.39 L621.774,2108.49 L623.237,2105.19 L624.576,2098.82 L623.973,2097.84 L624.213,2095.99 L623.539,2094.17 L622.248,2093.08 L621.417,2091.33 L618.852,2088.26 L619.026,2087.58 L617.876,2085.11 L617.516,2082.96 L616.501,2081.27 L616.761,2079.14 L614.882,2075.33 L615.665,2074.82 L614.333,2071.54 L614.369,2069.76 L612.753,2067.06 L613.838,2062.89 L610.288,2059.25 L610.794,2058.96 L610.603,2057.14 L612.179,2049.25 L611.956,2045.44 L610.47,2038.7 L611.13,2035.58 L612.097,2033.7 L613.559,2033.5 L614.385,2032.2 L616.068,2032.07 L620.123,2029.61 L620.875,2028.91 L622.096,2026.06 L623.362,2025.33 L625.534,2021.84 L626.264,2018.62 L624.078,2016.08 L622.902,2016.05 L622.199,2015.49 L622.027,2012.7 L621.245,2012.19 L619.455,2009.32 L619.554,2007.7 L620.705,2006.59 L620.727,2005.05 L622.231,2001.75 L622.966,1996.93 L620.515,1995.57 L619.269,1993.46 L615.74,1990.37 L613.209,1986.92 L607.317,1984.71 L605.932,1983.44 L605.269,1982.01 L601.618,1978.49 L594.938,1975.63 L589.561,1972.26 L590.095,1968.97 L588.318,1967.69 L585.91,1964 L584.513,1960.97 L584.497,1959.83 L583.557,1958.4 L584.373,1953.29 L583.353,1949.1 L583.713,1948.35 L584.252,1948.63 L584.773,1948.29 L585.877,1943.91 L588.594,1938.04 L589.394,1937.27 L589.802,1935.45 L589.151,1929.98 L587.081,1927.43 L587.808,1926.88 L587.7,1926 L588.943,1924.28 L589.992,1921.36 L591.694,1920.12 L592.275,1916.25 L592.028,1912.19 L592.86,1910.91 L592.983,1908.59 L594.225,1906.65 L594.189,1904.23 L597.097,1901.15 L596.842,1897.94 L597.553,1896.38 L598.023,1892.81 L599.38,1893.14 L599.051,1891.12 L599.627,1888.99 L599.308,1887.64 L599.813,1887.27 L599.573,1884.48 L600.226,1881.52 L601.219,1880.34 L601.044,1879.22 L601.558,1878.85 L600.493,1877.26 L601.908,1876.84 L602.802,1875.42 L601.838,1873.29 L599.456,1871.49 L598.977,1871.59 L596.827,1869.33 L597.357,1866.65 L595.568,1862.62 L596.549,1859.37 L597.616,1857.66 L598.44,1852.3 L599.657,1849.89 L602.686,1847.43 L602.479,1845.62 L603.81,1840.93 L603.595,1839.38 L604.786,1838.26 L604.747,1836.7 L606.426,1833.73 L607.221,1833.24 L607.825,1831.3 L610.857,1829.58 L611.897,1829.52 L615.386,1827.2 L616.472,1827.22 L617.081,1826.47 L619.783,1825.47 L622.322,1822.75 L623.831,1822.24 L625.7,1820.79 L625.997,1819.36 L628.532,1814.95 L628.936,1812.12 L630.395,1809.73 L631.524,1808.91 L632.996,1806.69 L636.17,1804.47 L637.449,1801.94 L637.661,1799.77 L638.832,1798.76 L635.541,1794.76 L635.499,1792.99 L636.605,1791.33 L636.17,1788 L634.767,1787.01 L632.773,1786.63 L627.014,1786.75 L624.657,1787.24 L620.448,1789.18 L617.49,1789.32 L612.024,1782.71 L613.908,1781.14 L612.573,1778.26 L611.183,1776.54 L608.949,1775 L607.742,1774.52 L603.969,1774.71 L601.476,1774.01 L597.706,1771.35 L596.228,1771.19 L595.394,1770.53 L592.876,1771.13 L588.909,1771.16 L587.356,1769.94 L582.653,1769.46 L581.8,1768.76 L580.342,1768.56 L578.636,1766.88 L575.708,1765.95 L575.165,1765.32 L574.938,1763.48 L572.576,1761.97 L571.3,1759.76 L572.195,1757.53 L571.882,1756.23 L570.365,1754.45 L570.181,1752.34 L568.973,1751.29 L567.876,1751.07 L568.055,1749.55 L567.576,1749 L567.4,1746.49 L566.686,1745.88 L566.298,1744.62 L566.769,1743.69 L566.283,1743.69 L565.925,1742.94 L565.631,1741.15 L563.372,1741.07 L562.081,1742.21 L560.026,1740.74 L556.632,1741.26 L553.348,1740.48 L552.422,1740.76 L551.584,1740.06 L545.964,1739.08 L544.832,1738.45 L542.84,1739.96 L540.216,1743.49 L539.596,1743.51 L537.979,1745.02 L536.738,1744.63 L534.124,1746.45 L532.498,1746.19 L530.992,1746.77 L530.227,1747.65 L528.967,1747.23 L527.317,1747.41 L526.384,1748.49 L521.376,1750.99 L516.146,1752.13 L514.305,1753.96 L513.18,1753.95 L512.117,1754.58 L510.563,1754.35 L508.052,1755.88 L506,1755.89 L502.217,1757.81 L499.799,1758.11 L497.288,1761.05 L492.474,1760.31 L490.998,1760.88 L490.233,1760.59 L489.135,1761.33 L488.541,1762.5 L485.78,1763.86 L484.407,1763.89 L482.88,1764.89 L480.861,1767.78 L479.691,1767.49 L476.173,1768.59 L474.991,1768.37 L473.738,1764.34 L472.58,1764.4 L471.65,1763.65 L466.251,1763.91 L463.051,1758.18 L461.728,1758.13 L460.785,1757.17 L458.708,1756.74 L458.141,1756.12 L456.867,1756.11 L454.978,1757.08 L454.524,1754.29 L453.214,1752.64 L451.387,1752.19 L449.292,1752.12 L448.192,1752.61 L444.908,1752.29 L439.588,1749.28 L439.058,1748.86 L440.394,1747.56 L440.701,1745.8 L441.796,1744.82 L442.238,1741.44 L442.753,1740.86 L441.715,1737.92 L443.343,1735.22 L443.366,1733.51 L445.254,1730.26 L443.674,1726.35 L443.216,1723.99 L443.701,1722.9 L439.523,1718.53 L437.85,1718.1 L436.921,1718.44 L436.648,1717.63 L435.252,1717.75 L430.145,1715.21 L425.801,1716.11 L421.782,1715.69 L419.261,1713.79 L416.072,1713.01 L415.343,1711.98 L410.543,1709.81 L411.65,1706.97 L413.611,1705.49 L415.028,1702.44 L415.907,1701.69 L416.041,1700.62 L419.609,1696.58 L419.798,1693.7 L420.84,1692.14 L421.103,1688.42 L420.916,1687.62 L419.234,1686 L417.395,1684.96 L417.11,1682.59 L419.859,1675 L420.698,1674.03 L421.347,1670.76 L418.418,1664.69 L416.283,1662.97 L414.99,1661.13 L412.932,1655.06 L411.425,1653.98 L406.32,1654.03 L405.073,1654.71 L402.686,1656.78 L402.319,1659.36 L399.288,1664.17 L397.067,1664.08 L393.434,1668.66 L392.306,1668.64 L391.646,1670.44 L390.011,1671.72 L389.31,1670.23 L387.486,1669.16 L384.867,1665.9 L378.502,1662.02 L377.74,1659.79 L375.049,1658.88 L371.523,1656.45 L369.926,1656.2 L367.516,1654.59 L366.763,1654.39 L364.434,1659.72 L362.746,1659.53 L359.933,1660.74 L356.553,1661.38 L354.894,1660.6 L352.135,1661.55 L349.182,1658.85 L343.872,1657.48 L342.429,1656.34 L341.541,1656.4 L340.787,1655.8 L337.147,1655.89 L336.002,1654.17 L334.278,1653.92 L333.649,1651.32 L331.275,1647.83 L331.194,1645.15 L330.633,1643.85 L329.518,1643.98 L326.762,1641.75 L323.525,1642.41 L322.682,1642.24 L321.994,1641.45 L316.995,1641.79 L309.325,1640.25 L307.839,1640.78 L305.884,1639.01 L304.394,1636.43 L302.587,1635.83 L301.074,1634.64 L298.928,1631.61 L293.758,1629.56 L293.361,1628.8 L292.372,1628.69 L290.115,1626.98 L286.305,1626.57 L286.265,1625.69 L284.548,1625.3 L284.103,1624.37 L283.368,1624.49 L283,1623.25 L282.922,1622.07 L284.731,1620.58 L284.854,1619.85 L284.599,1618.09 L283.602,1617.79 L283.042,1616.63 L283.605,1613.99 L282.679,1612.7 L280.635,1611.62 L280.705,1610.1 L279.676,1608.65 L279.323,1606.85 L278.051,1605.16 L277.322,1601.92 L274.99,1599.28 L275.229,1598.33 L273.659,1597.5 L273.916,1596.13 L272.49,1594.99 L272.842,1592.16 L272.507,1591.08 L270.413,1590.42 L269.135,1589.17 L265.599,1588 L264.498,1586.52 L263.023,1586.8 L261.313,1586.01 L259.152,1584.72 L258.409,1583.66 L247.066,1585.27 L245.927,1583.35 L244.438,1582.85 L244.024,1581.53 L242.929,1580.93 L242.324,1579.75 L239.651,1578.42 L237.341,1567.28 L232.412,1560.07 L232.725,1558.87 L231.588,1558.11 L230.276,1555.81 L227.572,1554.64 L227.055,1553.39 L227.234,1551.85 L225.784,1549.94 L225.085,1547.44 L223.006,1544.01 L222.433,1541.49 L222.458,1536.96 L222.003,1536.54 L221.582,1531.26 L220.925,1529.8 L216.377,1525.43 L212.435,1523.25 L210.775,1523.06 L208.9,1519.4 L205.534,1516.9 L204.736,1515.14 L202.794,1512.93 L197.164,1509.79 L197.197,1506.74 L195.915,1502.34 L196.784,1501.97 L197.705,1500.01 L197.501,1498.77 L198.959,1496.7 L201.102,1494.5 L202.422,1494.28 L203.596,1493.11 L203.199,1492.52 L203.564,1490.49 L205.317,1487.65 L208.026,1485.28 L209.021,1482.9 L209.913,1481.99 L210.478,1478.49 L212.741,1474.85 L213.023,1473.26 L212.685,1472.76 L213.829,1470.72 L213.466,1469.36 L214.792,1466.93 L213.986,1464.91 L214.797,1462.82 L216.318,1460.97 L210.533,1455.6 L207.844,1450.54 L200.219,1448.38 L197.491,1446.03 L195.528,1443.88 L194.216,1439.47 L191.434,1437.56 L190.313,1436.02 L190.572,1433.51 L191.694,1430.62 L193.98,1426.79 L193.241,1425.2 L193.854,1424.34 L191.115,1422.51 L189.974,1419.12 L189.627,1417.02 L190.188,1414.8 L188.412,1409.96 L189.743,1404.09 L189.834,1400.6 L188.995,1399.07 L188.948,1393.94 L190.518,1390.96 L190.893,1387.37 L190.535,1384.62 L191.308,1382.77 L189.797,1380.07 L188.513,1375.8 L188.774,1373.48 L190.069,1372.15 L188.98,1370.73 L189.322,1368.26 L191.439,1364.54 L192.501,1363.83 L191.642,1361.91 L189.803,1360.13 L187.017,1358.96 L187.372,1356.69 L187.15,1355.33 L185.835,1353.91 L186.037,1352.52 L183.477,1350.84 L183.01,1348.53 L182.036,1347.57 L182.274,1346.78 L181.376,1345.05 L182.01,1343.11 L181.842,1340.85 L182.446,1339.91 L182.134,1338.64 L183.751,1336.46 L182.934,1335.13 L183.555,1334.49 L183.45,1333.73 L182.738,1332.54 L182.855,1330.54 L182.206,1329.91 L180.887,1330.23 L179.435,1328.7 L180.018,1327.08 L182.973,1323.05 L182.117,1320.81 L182.398,1315.88 L185.542,1307.81 L185.886,1302.77 L186.91,1298.84 L186.333,1297.09 L186.961,1296.07 L187.247,1293.35 L188.99,1291.26 L189.56,1289.05 L190.364,1287.73 L193.4,1286.8 L194.226,1285.51 L198.437,1284.52 L198.87,1282.67 L200.067,1281.67 L203.759,1280.84 L206.578,1279.28 L207.688,1279.18 L206.23,1277.29 L206.398,1275.64 L205.423,1275.02 L205.358,1273.99 L203.58,1271.98 L204.774,1268.97 L203.843,1265.61 L204.373,1263.99 L203.844,1261.68 L204.714,1259.49 L202.981,1258.18 L202.331,1256.42 L203.335,1251.5 L203.06,1250.08 L204.715,1246.4 L207.221,1243.86 L207.899,1242.53 L207.177,1239.39 L205.464,1237.07 L205.506,1234.68 L204.408,1234.21 L203.195,1231.58 L203.576,1229.65 L202.428,1228.59 L202.05,1226.43 L202.617,1224.83 L199.836,1223.69 L198.422,1223.76 L196.697,1221.44 L193.57,1220.02 L191.647,1218.26 L190.162,1215.95 L188.498,1214.92 L187.772,1213.75 L185.223,1213.09 L189.999,1210.23 L192.481,1209.53 L193.34,1205.55 L196.541,1202.61 L197.882,1200.4 L198.604,1200.24 L199.601,1195.78 L202.206,1192.96 L202.757,1191.28 L202.781,1185.9 L203.544,1184.94 L203.805,1181.91 L206.59,1181.65 L207.349,1180.36 L208.62,1179.67 L209.316,1178.15 L211.979,1174.92 L212.663,1170.01 L214.42,1166.86 L216.669,1165.11 L218.711,1159.89 L218.789,1157.66 L218.086,1155.47 L218.906,1150.29 L219.509,1149.51 L218.924,1147.43 L220.583,1147 L224.92,1144.18 L225.821,1143.12 L234.97,1140.78 L238.069,1140.49 L242.063,1141.04 L248.103,1143.45 L254.009,1142.46 L254.701,1141.65 L259.222,1140.23 L260.79,1138.21 L262.989,1137.3 L264.708,1134.73 L267.511,1134.04 L269.923,1131.86 L271.072,1132.11 L272.178,1131.2 L272.764,1131.9 L278.504,1132.63 L281.432,1134.79 L283.877,1135.53 L284.759,1137.11 L288.375,1138.46 L292.32,1142.19 L293.086,1142.26 L295.271,1141.11 L296.391,1142.69 L300.574,1143.95 L302.281,1148.14 L304.188,1148.58 L305.746,1151.2 L308.088,1151.7 L308.77,1152.86 L310.174,1153.49 L313.794,1157.99 L315.528,1157.9 L317.623,1158.53 L317.357,1162.11 L316.048,1163.4 L317.371,1164.05 L317.472,1164.65 L318.311,1164.81 L318.572,1165.48 L320.2,1165.91 L318.671,1168.51 L317.94,1171.2 L319.49,1172.09 L321.223,1172.19 L322.021,1171.86 L322.812,1170.53 L324.066,1170.98 L324.705,1172.82 L324.739,1176.05 L326.35,1177.55 L326.493,1178.53 L329.453,1180.84 L327.338,1181.59 L327.315,1182.91 L328.214,1184.01 L327.113,1184.87 L328.526,1184.95 L331.24,1186.27 L334.506,1184.77 L337.679,1181.07 L337.732,1180 L336.68,1178.9 L336.409,1177.11 L337.672,1173.78 L337.041,1172.06 L338.745,1171.42 L339.404,1169.19 L341.564,1168.01 L342.379,1163.79 L341.739,1162.51 L339.7,1161.83 L339.648,1161.31 L336.43,1160.56 L334.252,1157.49 L334.766,1156.17 L336.588,1155.95 L339.294,1153.72 L339.935,1152.87 L340.654,1149.66 L341.935,1148.83 L342.045,1147.37 L343.222,1146.08 L341.018,1144.97 L340.084,1143.26 L338.519,1143.16 L336.118,1140.07 L336.201,1138.3 L337.367,1136.71 L339.459,1136.67 L343.356,1135.35 L344.27,1132.6 L348.124,1126.74 L348.291,1124.35 L347.218,1121.16 L347.93,1120.01 L345.807,1117.89 L344.87,1115.94 L346.769,1114.59 L348.015,1112.57 L349.495,1111.95 L350.027,1110.58 L353.666,1107.55 L354.369,1106.36 L356.839,1104.68 L358.324,1104.44 L360.336,1102.76 L363.539,1102.7 L364.203,1102.12 L365.52,1103.69 L368.271,1104.69 L369.842,1106.97 L372.948,1108.28 L373.112,1110.22 L376.126,1111.67 L378.225,1113.6 L379.127,1116.07 L380.427,1116.67 L383.494,1119.67 L384.305,1119.52 L385.213,1120.59 L386.174,1120.68 L386.975,1121.91 L387.484,1121.78 L387.969,1122.57 L389.294,1123.01 L389.728,1124.29 L390.621,1124.87 L395.62,1126.3 L397.869,1125.48 L399.57,1125.46 L401.291,1126.1 L404.188,1125.39 L407.974,1125.54 L409.192,1126.55 L412.65,1127.03 L414.112,1126.5 L414.697,1125.73 L415.907,1125.88 L417.393,1125.15 L418.603,1123.82 L421.636,1123.14 L422.476,1121.26 L423.841,1123.45 L423.847,1124.51 L424.77,1124.46 L426.074,1126.34 L426.598,1126.41 L429.487,1129.54 L434.132,1131.53 L435.257,1131.02 L437.006,1131.63 L438.346,1130.82 L441.324,1126.33 L441.689,1122.93 L443.57,1119.27 L444.922,1118.04 L446.319,1118.11 L447.05,1117.41 L448.059,1117.3 L452.931,1114.3 L455.211,1110.41 L454.941,1109.52 L455.523,1108.34 L459.137,1109.37 L462.896,1108.95 L468.388,1109.29 L470.611,1112.98 L471.529,1112.55 L473.098,1113.18 L475.416,1113.28 L477.307,1114.24 L477.5,1114.91 L478.777,1112.23 L480.008,1110.91 L482.49,1109.61 L487.441,1109.3 L489.301,1109.57 L491.215,1110.53 L494.815,1111.01 L500.318,1109.82 L502.677,1108.41 L501.878,1107.32 L501.8,1104.35 L499.464,1097.62 L500.535,1096.62 L501.498,1096.58 L505.229,1094.44 L508.418,1092.08 L511.863,1086.4 L512.527,1084.18 L513.866,1082.68 L513.956,1081.53 L518.778,1078.1 L519.236,1076.29 L519.036,1074.76 L520.586,1073.3 L520.51,1072.69 L522.098,1071.46 L521.921,1070.13 L522.763,1068.4 L522.204,1066.99 L522.24,1065.03 L524.158,1064.97 L524.771,1064.13 L526.119,1064.88 L529.082,1064.82 L530.733,1063.98 L532.988,1065.2 L536.723,1065.45 L537.232,1064.57 L541.207,1062.45 L542.222,1061.27 L544.705,1061.21 L548.618,1059.67 L549.221,1059.21 L548.928,1058.13 L549.939,1056.63 L550.855,1056.67 L554.215,1055.08 L556.206,1054.93 L557.035,1054.41 L559.234,1055.02 L560.337,1054.33 L560.282,1053.55 L561.731,1051.99 L562.738,1051.51 L563.699,1048.31 L564.491,1047.37 L565.798,1046.46 L567.254,1046.41 L568.322,1045.25 L569.983,1044.98 L570.601,1045.33 L571.423,1043.73 L572.589,1043.42 L573.31,1043.65 L574.032,1045.09 L575.029,1044.69 L580.788,1040.04 L583.304,1040.75 L585.742,1039.79 L586.26,1040.25 L587.934,1040.37 L592.925,1038.55 L597.269,1039.88 L598.413,1039.42 L599.507,1040.13 L601.958,1040.37 L605.618,1039.5 L607.209,1041.38 L611.01,1043.44 L612.698,1041.13 L613.947,1040.51 L614.894,1038.84 L616.86,1037.54 L618.081,1031.54 L621.597,1030.03 L622.089,1030.55 L623.142,1030.37 L623.958,1029.48 L624.749,1029.84 L626.515,1029.08 L627.671,1027.81 L627.304,1026.63 L628.525,1026.51 L629.761,1024.3 L631.545,1023.83 L632.453,1020.25 L634.174,1018.62 L633.33,1016.57 L631.038,1014.34 L630.615,1013.11 L630.898,1011.34 L630.29,1009.64 L630.555,1008.93 L629.992,1007.96 L632.121,1007.05 L635.331,1000.51 L637.933,998.102 L639.254,998.116 L641.25,994.849 L641.34,993.832 L644.824,990.929 L646.351,987.756 L647.326,987.035 L647.344,986.616 L646.381,986.233 L646.178,984.776 L648.946,979.799 L647.663,978.278 L646.919,975.659 L645.899,975.908 L645.356,975.361 L644.48,973.648 L644.613,972.125 L644.084,971.07 L642.387,969.646 L642.581,967.659 L641.477,961.088 L640.238,960.157 L641.541,957.786 L642.544,953.895 L642.027,952.318 L640.379,950.668 L639.694,948.253 L640.267,947.231 L639.949,946.715 L640.43,945.239 L642.375,941.761 L642.657,939.687 L642.233,938.927 L642.861,937.81 L645.187,937.158 L645.622,935.434 L646.418,934.53 L647.403,934.612 L648.207,933.675 L648.725,930.263 L650.205,927.081 L651.462,924.991 L652.248,924.881 L654.102,923.265 L655.649,921.031 L657.54,920.208 L659.438,917.726 L663.675,916.752 L664.634,917.17 L665.293,916.09 L666.144,916.196 L666.876,913.949 L666.69,911.417 L667.611,909.984 L666.712,906.154 L667.743,904.655 L667.672,904.069 L669.803,901.83 L671.922,900.526 L672.514,899.232 L674.77,898.189 L674.962,897.026 L675.758,896.538 L675.907,895.798 L675.389,890.749 L680.15,886.829 L683.094,883.091 L685.759,883.553 L687.548,883.239 L688.124,884.247 L689.049,884.244 L689.71,883.232 L689.728,881.15 L690.588,880.328 L692.451,879.664 L693.269,878.175 L694.34,878.721 L695.339,877.608 L695.869,875.699 L697.84,874.878 L698.902,873.742 L703.624,872.566 L704.752,870.998 L706.375,871.123 L707.62,869.866 L711.834,868.903 L712.965,868.21 L714.485,868.084 L718.012,869.908 L719.888,869.854 L722.168,866.331 L725.178,864.03 L727.842,863.188 L732.14,864.624 L733.055,864.124 L736.416,864.415 L738.782,865.825 L741.752,868.976 L741.938,871.76 L746.228,875.801 L746.14,876.533 L747.836,879.651 L749.793,880.474 L754.281,885.691 L754.573,886.649 L756.636,887.851 L757.482,887.844 L757.931,888.691 L761.433,891.234 L764.249,891.661 L766.248,893.195 L768.114,893.065 L769.169,893.687 L771.424,893.77 L774.649,899.777 L776.934,901.211 L777.049,903.394 L780.538,907.38 L780.287,912.658 L778.843,918.245 L780.078,924.35 L779.413,928.177 L779.82,929.57 L779.908,937.519 L788.19,941.291 L789.674,943.641 L792.665,944.249 L792.34,946.347 L794.249,947.724 L794.952,949.448 L796.613,950.946 L802.698,954.224 L808.18,953.556 L808.364,959.846 L807.466,965.242 L808.114,967.343 L807.77,969.558 L810.418,973.394 L811.856,974.179 L812.296,975.877 L813.217,976.801 L814.157,979.249 L814.148,982.835 L816.121,986.456 L817.278,986.511 L818.219,988.613 L820.051,990.192 L824.531,991.348 L828.229,993.336 L832.597,999.434 L836.706,1001.12 L837.825,1003.37 L841.799,1007.37 L844.296,1009.14 L844.298,1009.8 L846.474,1011.43 L847.993,1014.31 L851.101,1016.83 L850.367,1017.09 L846.762,1021.41 L843.465,1029.27 L847.338,1031.61 L847.502,1033.06 L849.219,1034.32 L849.058,1035.52 L849.696,1037.63 L850.595,1038.3 L851.677,1040.65 L853.251,1041.99 L852.868,1043.03 L853.493,1045.06 L853.306,1046.53 L854.844,1048.98 L854.656,1050.81 L855.478,1052.4 L855.274,1053.83 L856.975,1056.29 L855.877,1058.41 L855.733,1060.91 L858.842,1064.93 L861.345,1065.42 L861.875,1067.08 L862.672,1067.58 L863.174,1069.97 L864.114,1071.13 L867.592,1071.24 L868.886,1070.51 L869.941,1071.08 L870.333,1070.63 L874.613,1072.67 L876.96,1072.9 L878.462,1073.89 L881.59,1074.71 L886.675,1072.61 L888.919,1070.67 L890.617,1070.13 L892.373,1070.68 L894.937,1069.93 L896.069,1070.89 L897.389,1071.14 L900.494,1070.82 L902.279,1071.17 L903.586,1070.59 L908.159,1063.91 L913.976,1057.98 L915.921,1057.18 L917.142,1055.72 L917.975,1055.46 L920.21,1056.07 L922.092,1055.82 L922.38,1054.12 L926.838,1051.2 L929.285,1047.73 L931.805,1046.57 L932.63,1046.62 L933.846,1045.03 L935.109,1044.41 L936.453,1041.87 L937.856,1040.56 L938.761,1038.45 L938.811,1036.44 L937.869,1034.43 L937.814,1032.67 L939.49,1031.17 L941.757,1027.27 L943.984,1025.94 L945.486,1025.39 L947.141,1025.47 L948.977,1024.2 L951.906,1023.32 L952.539,1022.75 L953.286,1019.84 L954.527,1018.55 L957.271,1018.48 L958.929,1017.76 L960.075,1018.49 L961.892,1017.99 L962.867,1017 L964.575,1016.29 L968.542,1015.9 L968.769,1014.69 L970.612,1013.99 L970.446,1012.98 L971.972,1012.59 L972.483,1011.66 L976.718,1011.02 L980.952,1009.15 L982.853,1007.69 L983.58,1005.73 L990.619,1006.03 L991.759,1006.75 L993.358,1006.73 L996.128,1007.83 L998.926,1007.66 L1001.99,1009.43 L1001.94,1009.91 L1004.57,1012.33 L1004.92,1013.48 L1007.76,1013.73 L1007.5,1014.92 L1008.77,1017.22 L1008.07,1019.05 L1008.47,1020.94 L1007.9,1024.16 L1006.59,1026.1 L1003.72,1026.95 L1001.37,1028.4 L1001.93,1030.69 L1002.74,1031.88 L1033.24,1059.26 L1035.95,1057.74 L1041.57,1056.76 L1044.68,1059.23 L1046.94,1062.26 L1049.2,1063.46 L1050.02,1065.4 L1053.99,1068.64 L1055.58,1068.92 L1056.86,1067.89 L1058.56,1068.22 L1062.85,1071.89 L1067.34,1072.55 L1068.07,1073.09 L1070.14,1071.45 L1071.65,1071.45 L1072.43,1070.54 L1075.54,1068.99 L1081.49,1067.92 L1083.54,1066.14 L1087.89,1060.45 L1091.34,1058.68 L1090.02,1057.41 L1087.83,1051.69 L1085.93,1049.36 L1085.37,1047.46 L1085.33,1044.05 L1086.11,1042.66 L1086.11,1040.85 L1084.65,1037.88 L1084.55,1035.57 L1084.12,1034.97 L1088.66,1024.83 L1089.5,1019.83 L1090.19,1018.85 L1089.76,1017.97 L1091.52,1018.36 L1093.11,1017.98 L1095.13,1016.09 L1097.49,1015.18 L1099.16,1011.87 L1100.41,1007.61 L1101.7,1006.5 L1102.4,1004.07 L1103.32,1002.75 L1107.55,1002.75 L1111.01,1001.35 L1112,1001.43 L1113.63,999.625 L1114.69,996.431 L1118.95,994.297 L1120.42,992.865 L1122.07,992.492 L1122.52,991.815 L1125.29,990.602 L1124.75,990.066 L1125.33,986.372 L1124.94,985.07 L1125.73,983.74 L1125.59,982.106 L1126.32,979.888 L1126.84,974.458 L1134.8,973.005 L1142.02,969.507 L1143.31,970.387 L1145.09,970.761 L1145.69,971.451 L1148.35,971.345 L1150.55,967.117 L1154.03,963.987 L1161.03,964.946 L1165.1,966.534 L1166.87,967.518 L1166.69,968.094 L1167.05,968.259 L1169.29,968.691 L1170.04,969.744 L1170.97,970.111 L1173.75,970.547 L1178.08,970 L1179.34,970.805 L1180.31,970.676 L1183.37,969.707 L1184.04,968.782 L1185.66,967.965 L1185.64,967.532 L1186.83,967.108 L1189.31,967.169 L1192.19,966.537 L1193.55,964.771 L1194.75,964.023 L1194.41,963.593 L1194.75,963 L1197.56,960.728 L1202.31,960.267 L1204.45,961.019 L1207.39,964.814 L1208.95,971.548 L1209.87,972.865 L1210.54,975.427 L1213.87,977.289 L1216.48,977.441 L1217.75,976.289 L1219.06,976.571 L1220.96,974.246 L1223.91,973.239 L1224.3,971.359 L1227.08,966.283 L1233.68,959.271 L1235.38,958.543 L1237.19,958.559 L1238.48,955.945 L1240.35,954.66 L1241.5,953.087 L1241.36,949.098 L1243.99,948.378 L1245.46,947.163 L1245.71,946.003 L1246.69,945.383 L1247.21,944.223 L1249.15,943.853 L1252.44,937.878 L1255.7,937.911 L1258.92,936.627 L1262.58,936.952 L1264.79,935.365 L1265.9,931.653 L1267.95,927.89 L1268.54,925.12 L1268.24,924.152 L1270.09,920.645 L1269.9,919.122 L1271.88,916.566 L1271.8,914.452 L1272.86,912.826 L1272.6,912.233 L1273.85,911.228 L1274.78,908.248 L1276.32,906.468 L1276.86,904.247 L1278.36,902.187 L1278.67,900.752 L1279.93,900.04 L1279.88,898.475 L1282.6,895.69 L1282.37,894.73 L1283.28,891.974 L1282.67,891.177 L1282.76,889.126 L1283.18,887.849 L1283.84,887.94 L1284.04,887.488 L1283.91,886.422 L1285.08,885.701 L1285.11,884.595 L1287.29,883.08 L1290.8,881.062 L1292.13,881.26 L1293.44,880.221 L1295.34,872.076 L1297.35,870.025 L1300.6,869.297 L1300.85,869.58 L1302.2,868.659 L1302.11,868.195 L1303.1,867.086 L1304.79,866.279 L1305.31,867.175 L1307.4,868.25 L1310.46,868.743 L1314.03,874.407 L1316.64,875.564 L1319.21,880.278 L1321.62,881.575 L1325.09,881.446 L1326.78,880.548 L1332.8,880.19 L1337.89,882.624 L1343.67,883.393 L1345.86,884.33 L1351.25,882.705 L1354.64,883.638 L1357.24,890.239 L1357.12,892.482 L1358.14,895.433 L1358.1,898.366 L1358.71,899.622 L1360.14,900.239 L1367.27,901.128 L1368.58,902.724 L1371.97,904.322 L1376.48,904.254 L1378.4,904.023 L1379.35,903.378 L1383.99,902.937 L1387.52,903.321 L1390.48,902.017 L1391.67,900.128 L1393,899.937 L1395.84,898.443 L1397.58,898.203 L1400.48,896.105 L1402.94,896.193 L1403.85,894.613 L1404.46,894.643 L1405.12,893.919 L1407.12,893.524 L1407.48,893.924 L1409.06,892.719 L1411.74,892.427 L1414.92,890.71 L1418.48,887.841 L1424.03,893.949 L1432.69,899.804 L1438.73,902.018 L1443.31,900.89 L1446.2,902.907 L1445.55,906.093 L1446.18,914.182 L1448.26,915.224 L1450.14,918.041 L1452.87,919.294 L1454.31,924.495 L1454.85,925.442 L1455.8,925.484 L1457.03,926.946 L1460.6,927.295 L1462.92,926.929 L1468.1,924.219 L1472.89,928.068 L1478.28,930.011 L1480.61,931.4 L1483.12,933.752 L1485.72,935.295 L1486.29,936.943 L1487.74,934.933 L1490.11,935.293 L1492.38,937.899 L1494.18,938.959 L1496.09,941.68 L1497.57,941.856 L1499.53,943.104 L1501.57,946.458 L1503.64,947.566 L1505.3,949.396 L1514.3,947.124 L1515.81,945.849 L1520.06,943.927 L1524.82,939.976 L1525.53,937.64 L1527.51,936.008 L1535.71,926.089 L1536.83,923.894 L1538.83,922.174 L1540.34,919.463 L1540.72,915.922 L1540.5,910.101 L1543.48,908.105 L1543.93,906.929 L1545.62,905.543 L1548.41,902.041 L1549.45,900.054 L1550.89,900.999 L1553.17,903.942 L1556.68,907.321 L1558.03,908 L1560.57,908.257 L1562.81,909.861 L1567.31,909.16 L1570.15,909.472 L1571.11,908.474 L1573.68,907.579 L1574,906.249 L1575.34,905.013 L1577.56,904.014 L1577.71,902.824 L1580.34,901.69 L1581.84,900.352 L1586.74,900.486 L1589.88,898.695 L1592.09,898.509 L1593.19,897.903 L1594.22,893.193 L1596.28,889.653 L1598.56,890.578 L1603.37,889.334 L1607.32,887.146 L1607.82,885.751 L1610.63,884.291 L1612.76,881.675 L1615.3,879.95 L1616.23,878.395 L1618.03,877.93 L1620.28,873.952 L1623.97,871.382 L1623.66,869.401 L1625.44,867.663 L1625.43,865.328 L1626.03,865.127 L1628.95,859.645 L1632.41,856.24 L1634.41,855.829 L1635.34,854.048 L1635.19,853.133 L1640.08,848.845 L1639.78,848.031 L1640.57,846.229 L1640.05,845.589 L1640.93,842.91 L1640.86,841.267 L1642.53,839.288 L1644.93,838.289 L1645,836.883 L1646.61,834.219 L1647.12,833.938 L1652.32,835.342 L1654.3,833.852 L1658.65,832.663 L1661.1,831.235 L1665.31,830.985 L1668.66,830.184 L1674.05,831.548 L1674.9,828.229 L1676.09,827.115 L1676.24,826.132 L1675.83,825.581 L1676.68,823.61 L1678.03,822.063 L1679.34,821.366 L1681.78,821.046 L1686.89,821.841 L1692.17,821.914 L1696.77,825.089 L1704.03,827.036 L1708.36,826.383 L1712.23,822.822 L1715.82,820.339 L1716.33,815.984 L1715.28,812.732 L1714.99,809.575 L1715.32,808.148 L1714.6,806.032 L1714.78,804.783 L1712.88,799.329 L1710.75,795.339 L1710.51,790.664 L1710,790.129 L1709.44,787.292 L1708.11,785.367 L1708.19,783.1 L1711.16,780.07 L1715.31,776.903 L1717.74,772.572 L1720.76,768.84 L1721.65,766.981 L1722.52,766.455 L1726.21,764.998 L1730.26,764.167 L1734.62,760.661 L1737.78,760.453 L1744.81,754.85 L1754.68,756.661 L1756.55,756.301 L1758.48,755.249 L1760.87,751.963 L1763.77,749.883 L1764.24,741.01 L1764.79,740.244 L1767.09,739.073 L1767.76,738.086 L1768.01,736.021 L1771.58,733.178 L1780.33,739.91 L1784.56,744.023 L1788.71,745.622 L1789.91,747.521 L1790.6,747.774 L1793.92,746.6 L1800.48,743.266 L1801.01,739.554 L1804.85,737.352 L1807.25,734.638 L1810.01,733.251 L1811.85,733.082 L1813.59,733.558 L1814.61,732.285 L1814.65,735.388 L1817.07,737.3 L1817.98,740.089 L1821.61,743.003 L1829.77,747.233 L1831.41,749.152 L1835.55,751.074 L1837.22,752.61 L1840.53,752.828 L1842.95,751.905 L1844.18,752.172 L1849.91,751.325 L1854.29,751.402 L1856.97,753.333 L1861.06,757.685 L1864.06,754.376 L1865.98,753.423 L1867.07,752.174 L1868.35,752.62 L1870.82,751.069 L1874.25,744.853 L1876.65,742.106 L1876.81,740.183 L1878.57,736.478 L1878.95,732.75 L1879.63,731.153 L1877.13,729.194 L1876.78,723.599 L1875.27,717.487 L1875.74,716.78 L1875.45,714.686 L1874.68,713.422 L1875.19,712.952 L1872.19,709.244 L1870.34,700.48 L1870.94,698.027 L1869.93,695.085 L1869.52,691.908 L1868,688.085 L1870.07,682.129 L1872.53,678.479 L1874.65,676.708 L1876.13,674.643 L1877.42,671.03 L1877.18,670.48 L1877.8,669.944 L1877.19,668.15 L1877.9,666.621 L1877.32,664.947 L1877.62,663.15 L1881.45,660.123 L1883.73,657.534 L1885.06,655.161 L1887.73,653.997 L1912.03,655.255 L1914.77,656.847 L1917.9,654.25 L1921.06,654.451 L1924.38,653.634 L1929.54,650.206 L1935.8,651.77 L1943.74,650.659 L1946.02,652.598 L1948.05,653.191 L1952.64,655.781 L1961.01,682.468 L1960.67,686.204 L1958.65,690.086 L1958.67,691.458 L1959.7,693.954 L1961.65,695.843 L1963.84,700.688 L1965.79,701.541 L1967.32,703.102 L1969,703.377 L1972.51,705.534 L1975.5,706.655 L1980.37,705.666 L1983.47,706.188 L1983.86,705.776 L1989.88,705.88 L1995.12,706.993 L1996.51,706.848 L2002.25,708.283 L2007.7,707.919 L2010.54,706.978 L2012.89,708.505 L2016.72,708.563 L2020.03,710.216 L2025.01,710.459 L2028.34,707.272 L2032.17,706.432 L2035.45,703.768 L2038.53,703.549 L2040.35,704.117 L2041.43,702.607 L2042.18,702.652 L2044.31,700.656 L2046.06,700.513 L2054.41,703.436 L2058.84,703.709 L2062.23,705.243 L2069.12,705.206 L2075.05,707.328 L2075.51,706.756 L2077.33,706.738 L2086.28,708.204 L2088.94,707.558 L2091.55,707.944 L2093.65,706.733 L2100.28,704.403 L2101.99,702.845 L2103.69,702.819 L2106.59,699.655 L2110.79,698.031 L2111.96,696.443 L2112.31,696.628 L2114.37,695.078 L2117.13,694.42 L2121.49,694.805 L2123.85,694.269 L2126.6,690.461 L2126.89,689.139 L2130.31,687.694 L2131.36,686.782 L2133.19,686.427 L2134.83,687.249 L2147.95,689.75 L2148.63,691.809 L2149.15,691.648 L2151.25,694.591 L2157.06,695.789 L2158.4,700.529 L2161.55,705.635 L2162.27,708.674 L2165.94,710.461 L2167.08,710.513 L2169.07,713.213 L2169.74,716.426 L2169.42,718.621 L2170.77,720.74 L2171.85,722.135 L2173.93,723.505 L2177.08,724.452 L2177.7,725.676 L2177.21,728.097 L2178.72,732.702 L2178.42,734.395 L2179.44,736.095 L2178.91,738.003 L2180.03,740.864 L2179.56,742.365 L2179.97,744.924 L2186.11,750.951 L2188.81,752.059 L2189.44,751.685 L2193.02,752.418 L2194.79,754.331 L2199.82,757.366 L2203.79,757.754 L2207.37,759.143 L2213.34,758.168 L2216.59,758.847 L2218.43,758.613 L2220.4,757.682 L2223.04,758.576 L2223.82,758.153 L2226.71,759.15 L2228.66,760.575 L2228.05,761.128 L2228.87,761.634 L2228.71,762.782 L2230.81,765.784 L2235.56,768.313 L2236.09,769.503 L2238.64,772.064 L2240.33,772.27 L2242.41,775.177 L2246.4,776.329 L2248.52,776.198 L2248.93,777.191 L2251.92,780.147 L2251.98,783.071 L2251.19,785.015 L2251.23,787.664 L2250.31,789.267 L2249.58,789.57 L2248.92,792.246 L2250.26,801.309 L2246.09,823.426 L2248.44,828.075 L2249,827.128 L2250.58,826.791 L2254.32,828.817 L2255.1,829.934 L2258.52,840.162 L2258.29,845.278 L2260.12,846.324 L2266.63,846.895 L2268.87,853.479 L2271.28,857.292 L2272.49,858.45 L2276.09,859.823 L2280.3,860.796 L2309.4,859.224 L2308.56,856.576 L2311.81,847.586 L2313.45,845.045 L2317.61,840.398 L2325.28,834.295 L2328.68,830.863 L2333.88,823.479 L2337.07,815.249 L2338.3,809.269 L2338.26,803.383 L2343.52,806.509 L2351.06,806.536 L2353.31,808.218 L2359.53,810.906 L2367.66,811.05 L2370.54,812.51 L2376.92,814.246 L2381.09,814.435 L2387.31,816.138 L2387.82,817.966 L2390.19,820.773 L2391.03,823.935 L2393.02,826.506 L2397.27,830.034 L2399.24,830.57 L2400.9,830.368 L2403.01,835.073 L2403.94,835.973 L2409.78,839.5 L2416.17,842.446 L2422.74,846.546 L2425.91,847.395 L2432.57,853.932 L2436.43,856.026 L2438.54,858.515 L2438.47,861.377 L2439.88,864.226 L2441.94,866.269 L2441.85,869.572 L2443.66,872.242 L2455.36,880.317 L2456.28,881.661 L2460.73,880.595 L2469.66,874.973 L2477.17,864.724 L2479.95,862.26 L2484.27,860.761 L2487.34,861.163 L2489.73,860.596 L2491.27,858.522 L2501.07,850.732 L2503.86,849.435 L2507,849.432 L2512.22,851.56 L2518.01,852.221 L2523.41,854.743 L2529.07,855.977 L2532.24,857.615 L2534.61,862.264 L2538.61,864.527 L2541.09,866.592 L2550.1,865.56 L2555.23,865.813 L2565.71,869.674 L2573.03,870.306 L2584.9,868.414 L2590.74,869.395 L2593.41,871.159 L2595.02,874.658 L2596.33,879.227 L2603.46,882.893 L2604.03,882.611 L2603.44,883.918 L2599.14,888.897 L2598.49,890.499 L2599.27,895.708 L2599.16,898.482 L2597.3,903.669 L2597.51,906.438 L2599.46,911.276 L2601.37,913.048 L2611.35,918.42 L2612.05,919.796 L2610.54,925.195 L2610.7,927.003 L2608.2,928.697 L2606.12,932.914 L2603.38,936.58 L2602.22,943.997 L2602.28,952.163 L2603.61,960.93 L2604.58,965.604 L2607.72,973.401 L2608.13,975.723 L2606.5,999.299 L2606.95,1006.43 L2613.51,1017.41 L2613.95,1019.03 L2613.19,1025.47 L2613.22,1028.15 L2614.42,1033.85 L2613.92,1041.81 L2614.26,1043.49 L2616.67,1047.25 L2619.69,1049.51 L2621.87,1054.16 L2629.97,1062.09 L2630.47,1063.59 L2630.11,1065.68 L2627.09,1072.15 L2626.71,1074.16 L2627.31,1083.76 L2625.95,1091.14 L2621.88,1096.47 L2613.14,1103.19 L2609.47,1107.14 L2607.89,1114.08 L2608.02,1120.88 L2604.95,1128.35 L2602.97,1135.59 L2604.81,1139.34 L2609.75,1145.78 L2619.22,1153.48 L2620.22,1155.38 L2624.9,1167.18 L2625.81,1170.93 L2626.17,1180.09 L2618.96,1180.43 L2614.75,1181.99 L2611.94,1184.41 L2606.01,1193.04 L2599.48,1199.98 L2603.03,1212.51 L2603.77,1220.68 L2604.17,1237.05 L2605.02,1245.25 L2605.78,1249.27 L2609.25,1259.7 L2607.8,1271.85 L2601.32,1286.12 L2600.18,1290.7 L2601.23,1294.54 L2614.77,1314.3 L2614.95,1321.12 L2622.56,1330.26 L2624.75,1336.05 L2630.56,1342.09 L2641.21,1351.06 L2644.79,1355.36 L2646.17,1359.49 L2644.91,1364.21 L2643,1368.24 L2641.71,1372.44 L2642.29,1374.14 L2647.87,1380.76 L2648.99,1383.04 L2649.4,1389.77 L2651,1395.19 L2652.25,1396.79 L2655.41,1397.89 L2659.93,1398.68 L2662.81,1400.94 L2664.37,1404 L2666.09,1411.51 L2667.56,1413.75 L2683.37,1427.59 L2684.19,1429.52 L2685.73,1430.97 L2689.2,1431.63 L2700.57,1435.65 L2711.85,1437.29 L2715.76,1438.76 L2718.61,1441.28 L2724.76,1449.73 L2733.38,1452.08 L2736.83,1453.74 L2740.89,1454.95 L2744.26,1454.78 L2749.37,1453.13 L2751.48,1453.2 L2755.75,1456.83 L2755.74,1458.51 L2754.42,1460.85 L2749.9,1464.7 L2747.93,1467.97 L2747.12,1471.3 L2747.51,1478.49 L2751.07,1481.62 L2755.47,1484.12 L2758.62,1487.7 L2760.3,1490.41 L2759.94,1496.26 L2763.3,1500.04 L2766.09,1505 L2767.59,1507.95 L2768.85,1512.32 L2766.86,1514.45 L2764.53,1515.98 L2762.86,1518.09 L2758.99,1528.43 L2754.86,1533.07 L2751.17,1535.44 L2753.5,1538.94 L2753.59,1545.7 L2750.46,1552.38 L2745.88,1558.29 L2741.9,1564.81 L2740.56,1567.56 L2739.26,1573.72 L2738.12,1576 L2731.63,1585.61 L2727.37,1589.13 L2724.64,1590.28 L2721.06,1590.27 L2717.64,1588.58 L2714.5,1588.07 L2712.27,1589.22 L2711.52,1590.49 L2709.37,1595.95 L2706.81,1599.51 L2704.33,1606.83 L2703.12,1612.37 L2700.89,1616.52 L2700.08,1619.38 L2700.62,1622.01 L2698.13,1628.95 L2696.22,1638.55 L2697.23,1650.67 L2699.63,1650.78 L2706.23,1653.75 L2710.76,1657.83 L2713.02,1677.03 L2712.4,1687.46 L2714.14,1689.68 L2723.16,1692.66 L2731.02,1698.15 L2734.64,1701.38 L2735.83,1704.66 L2735.52,1708.15 L2733.23,1716.14 L2732.9,1720.33 L2736.85,1728.63 L2739.74,1733.14 L2746.46,1740.42 L2747.47,1743.9 L2747.36,1754.36 L2749.3,1756.46 L2752.9,1758.24 L2756.83,1759.36 L2760.87,1759.77 L2763.36,1762.12 L2765.48,1765.38 L2768.82,1767.97 L2772.39,1769.83 L2774.33,1773.01 L2775.42,1775.5 L2774.7,1779.17 L2773.32,1782.76 L2772.84,1790.41 L2771.16,1796.74 L2769.83,1799.71 L2767.68,1801.58 L2763.46,1802.32 L2757.93,1800.17 L2753.1,1800.06 L2748.14,1800.95 L2742.75,1802.49 L2729.99,1808.85 L2721.62,1810.08 L2719.64,1811.23 L2714.88,1817.92 L2714.79,1826.2 L2713.86,1829.31 L2707.47,1836.5 L2704.8,1838.53 L2701.55,1839.85 L2700.75,1840.91 L2699.01,1847.09 L2695.43,1850.17 L2693.85,1852.51 L2690.95,1860.93 L2687.06,1864.89 L2682.79,1873.72 L2677.56,1879.51 L2678.05,1883.7 L2676.97,1886.18 L2673.79,1890.09 L2679.15,1896.27 L2679.42,1897.4 L2677.55,1902.22 L2675.84,1912.65 L2675.98,1915.73 L2678.05,1921.8 L2685.68,1939.15 L2687.1,1944.91 L2685.68,1945.86 L2683.19,1945.52 L2682.18,1945.83 L2678.83,1949.36 L2675.73,1950.41 L2670.51,1945.55 L2664.83,1938.44 L2663.71,1936.02 L2663.89,1927.72 L2660.64,1925.62 L2648.29,1922.08 L2640.93,1918.22 L2637.88,1917.41 L2633.84,1917.17 L2630.81,1917.86 L2625.76,1920.16 L2617.91,1921.24 L2608.46,1924.66 L2604.91,1926.7 L2599.35,1927.74 L2595.43,1927.63 L2583.95,1921.54 L2571.34,1911.14 L2570.16,1910.36 L2568.79,1910.56 L2565.04,1916.24 L2562.4,1919.18 L2557.79,1922.27 L2553.52,1926.14 L2551.84,1926.96 L2538.34,1925.34 L2529.66,1925.18 L2520.72,1927.48 L2519.73,1927.91 L2519.06,1928.89 L2514.69,1931.29 L2501.28,1937.91 L2489.59,1941.54 L2487.53,1942.9 L2485.78,1944.86 L2483.15,1949.2 L2481.54,1950.96 L2479.81,1952.15 L2474.24,1952.95 L2471.23,1954.87 L2469.67,1958.03 L2469.2,1960.72 L2461.37,1960.44 L2458.55,1961.12 L2451.01,1961.68 L2446.06,1962.75 L2445.38,1963.44 L2445.38,1966.19 L2448.2,1972.83 L2450.11,1974.24 L2446.84,1975.58 L2444.5,1977.58 L2434.77,1989.16 L2431.74,1991.81 L2427.73,1994.36 L2428.29,1997.71 L2426.82,1999.1 L2423.92,2000.06 L2417.7,2004.23 L2405.97,2013.31 L2393.78,2020.62 L2385.52,2024.62 L2375.77,2027.3 L2370.42,2030.89 L2363.91,2030.82 L2362.1,2031.29 L2349.99,2041.26 L2347.32,2042.74 L2344.29,2043.24 L2340.71,2047.82 L2334.79,2049.8 L2331.67,2058.49 L2327.07,2062.81 L2323.58,2067.29 L2321.42,2067.83 L2311.55,2077.15 L2309.17,2078.15 L2306.55,2078.38 L2303.92,2079.69 L2298.48,2078.36 L2296.5,2075.87 L2295.96,2072.51 L2293.37,2069.73 L2289.98,2068.68 L2287.76,2067.36 L2286.66,2063.52 L2280.54,2055.39 L2276.18,2053.09 L2272.56,2051.84 L2266.66,2051.62 L2264.07,2053.89 L2261.04,2058.08 L2257.33,2058.56 L2251.74,2061.23 L2243.65,2063 L2237.41,2063.14 L2233.85,2059.31 L2230.35,2058.91 L2227.53,2059.66 L2221.88,2062.18 L2219.95,2062.13 L2216.86,2060.71 L2212.64,2061.6 L2208.67,2061.67 L2206.93,2060.7 L2202.65,2056.86 L2200.04,2057.68 L2197.9,2059.12 L2188.64,2067.56 L2183.81,2069.05 L2179.68,2071.93 L2178.19,2073.56 L2176.77,2074.02 L2173.54,2073.15 L2167.81,2069.11 L2152.99,2056.22 L2145.98,2050.74 L2135.85,2041.5 L2131.64,2038.81 L2126.64,2036.91 L2124.36,2036.96 L2117.55,2035.49 L2115.41,2033.26 L2112.84,2025.94 L2108.55,2020.7 L2106.15,2018.93 L2103.08,2018.7 L2096.35,2020.01 L2093.36,2019.3 L2080.89,2014.44 L2079.02,2013.09 L2073.87,2015.27 L2069.67,2018.52 L2059.74,2024.89 L2057.21,2025.6 L2054.62,2025.5 L2050.3,2024.26 L2048.88,2024.9 L2044.28,2031.54 L2041.78,2033.17 L2033.07,2035.23 L2024.6,2039 L2022.09,2038.86 L2019.18,2036.38 L2017.79,2033.7 L2017.52,2031.5 L2018.39,2025.81 L2018.44,2020.39 L2015.57,2006.39 L2014.75,2004.8 L2010.86,2001.35 L2000.72,1989.3 L1997.21,1987.19 L1989.89,1984.66 L1985.44,1981.06 L1978.58,1976.72 L1972.9,1974.57 L1969.24,1975.4 L1962.02,1979.92 L1957.71,1971.26 L1954.37,1967.69 L1948.24,1964.72 L1947.75,1963.49 L1947.59,1957.6 L1946.34,1956.07 L1942.07,1952.78 L1935.16,1950.5 L1929.83,1946.59 L1924.98,1945.22 L1922.73,1945.41 L1916.7,1948.07 L1903.28,1949.34 L1895,1952.13 L1893.18,1953.42 L1890.86,1954.14 L1888.38,1954.59 L1883.82,1954.47 L1882.69,1955.08 L1879.28,1960.18 L1871.47,1964.58 L1866.03,1969.11 L1862.6,1977.23 L1861.46,1978.8 L1853.91,1984.54 L1851.76,1986.72 L1847.92,1992.3 L1845.87,1993.54 L1838.19,1994.15 L1825.07,1994.1 L1819.23,1992.63 L1816.32,1989.95 L1801.86,1982.28 L1795.68,1981.37 L1787.94,1977.14 L1778.98,1974.39 L1767.61,1972.7 L1764.08,1973.32 L1754.56,1972.36 L1749.08,1972.96 L1739.84,1976.89 L1731.86,1984.87 L1729.14,1986.24 L1724.51,1986.97 L1721.05,1986.54 L1718.58,1987.06 L1717.24,1989.01 L1714.48,1989.65 L1702.87,1990.99 L1695.59,1990.75 L1693.65,1991.46 L1690.16,1998.97 L1690.62,2002.66 L1690.21,2006.16 L1683.42,2014.44 L1673.38,2023.78 L1669.69,2031.44 L1663.69,2041.75 L1660.46,2042.73 L1656.34,2045.53 L1655.25,2048.54 L1655.68,2059.53 L1654.63,2063.09 L1648.01,2064.86 L1644.07,2066.64 L1639.78,2069.59 L1633.81,2075.1 L1629.06,2077.33 L1624.12,2078.4 L1621.7,2079.82 L1619.93,2082.31 L1617.27,2083.34 L1612.77,2086.12 L1609.84,2089.05 L1602.44,2094.06 L1599.79,2094.55 L1596.01,2093.77 L1589.52,2090.65 L1585.82,2090.64 L1583.69,2092.17 L1581.82,2095.37 L1581.1,2097.79 L1582.02,2103.92 L1582.38,2111.66 L1583.92,2118.74 L1583.1,2121.72 L1579.86,2125.03 L1577.39,2126.84 L1573.97,2127.9 L1569.88,2127.99 L1565.7,2128.92 L1561.96,2130.46 L1551.43,2132.4 L1541.41,2136.38 L1539.35,2138.67 L1535.86,2140.52 L1535.7,2142.88 L1537.19,2145.95 L1538.04,2150.71 L1534.23,2152.08 L1529.89,2158.55 L1527.58,2160.23 L1525.69,2160.36 L1523.18,2161.91 L1519.24,2165.91 L1517.84,2169.45 L1516.17,2171.88 L1514.26,2172.31 L1512.56,2173.6 L1510.96,2177.03 L1507.72,2179.82 L1493.57,2188.51 L1489.69,2189.93 L1486.54,2190.09 L1480.79,2188.88 L1478.13,2187.18 L1476.42,2183.38 L1474.87,2176 L1472.57,2170.66 L1470.11,2167.34 L1463.44,2161.97 L1456.18,2159.69 L1452.67,2159.33 L1449.43,2160.8 L1446.37,2163.82 L1443.55,2165.72 L1430.63,2171.79 L1425.93,2171.71 L1417.69,2174.34 L1408.49,2175.55 L1401.78,2173.97 L1397.91,2174.54 L1394.44,2176.08 L1388.02,2180.55 L1382.16,2183.1 L1378.98,2185.98 L1375.26,2191.15 L1371.06,2195.87 L1368.41,2197.15 L1365.59,2197.82 L1363.63,2197.63 L1355.57,2194.41 L1352.23,2193.92 L1346.84,2194.56 L1331.06,2191.86 L1328.74,2191.3 L1322.18,2187.59 L1320.13,2187.46 L1318.51,2187.99 L1315.05,2190.98 L1310.7,2189.65 L1308.39,2189.7 L1301.92,2191.24 L1293.82,2195.83 L1290.59,2199.24 L1287.56,2200.8 L1278.95,2202.48 L1272.61,2202.02 L1269.5,2199.75 L1267.02,2198.75 L1255.8,2196.5 L1250.02,2196.27 L1247.94,2195.74 L1246.34,2200.22 L1244.94,2201.86 L1241.38,2204.43 L1240.6,2206.52 L1240.6,2209.31 L1241.36,2213.04 L1240.85,2231.15 L1237.33,2240.06 L1236.84,2242.82 L1234.79,2246.65 L1233.7,2247.81 L1226.46,2248.73 L1218.3,2250.67 L1210.85,2254.08 L1202.44,2259.3 L1199.33,2262.46 L1197.91,2262.77 L1195.58,2267.38 L1191.36,2269.99 L1189.39,2272.14 L1185.23,2278.35 L1171.16,2290.87 L1170.25,2295.19 L1168.38,2297.45 L1166.08,2302.98 L1164.44,2305.09 L1162.54,2310.61 L1158.76,2315.02 L1158.76,2323.28 L1151.37,2327.83 L1148.86,2330.2 L1145.08,2336.45 L1142.89,2339.02 L1141.16,2339.49 L1138.88,2339.19 L1133.79,2337.18 L1123.53,2337.63 L1120.84,2336.93 L1116.32,2333.35 L1111.93,2332.71 L1109.96,2331.32 L1106.43,2322.68 L1097.03,2313.94 L1088.27,2304.8 L1075.07,2303.95 L1071.84,2302.83 L1068.89,2302.89 L1064.44,2302.17 L1052.23,2298.59 L1044.24,2298.89 L1027.5,2302.49 L1023.72,2301.93 L1019.28,2297.82 L1011.14,2292.33 L1002.76,2288.27 L999.056,2287.1 L995.166,2286.66 L992.086,2287.06 L982.005,2292.68 L978.08,2297.1 L970.982,2314.65 L969.73,2316.02 L968.136,2316.26 L965.188,2313.76 L962.627,2315.42 L960.876,2315.57 L960.026,2314.93 L956.566,2309.13 L955.297,2305.88 L952.796,2297.54 L952.95,2291.21 L946.7,2277.1 L945.672,2273.21 L945.723,2270.18 L947.084,2268.4 L950.82,2266.03 L953.879,2263.3 L959.594,2256.89 L960.684,2254.82 L961.065,2253.26 L960.599,2251.07 L955.695,2239.39 L954.761,2234.56 L954.84,2231.56 L957.839,2226.02 L962.202,2221.85 L962.915,2219.55 L962.746,2216.03 L961.065,2211.77 L957.999,2209.09 L955.114,2207.96 L949.552,2207.03 L949.099,2200.25 L947.062,2190.58 L939.717,2193.2 L928.077,2202.35 L921.556,2205.43 L920.204,2207.57 L919.053,2211.02 L910.377,2221.8 L910.911,2223.18 L911.421,2230.18 L910.648,2240.21 L910.628,2247.3 L909.972,2250.65 L908.904,2253.8 L907.497,2256.06 L904.166,2258.14 L904.605,2263.16 L904.053,2266.07 L900.681,2270.1 L899.765,2272.14 L895.433,2285.47 L894.976,2300.62 L893.911,2309.1 L895.356,2319.42 L894.585,2324.13 L893.471,2326.23 L891.952,2331.33 L888.769,2334.71 L885.197,2340.58 L880.715,2342.04 L873.453,2346.91"/>
  </g>
  <g stroke-width="1" transform="matrix(0.999744,0,0,0.999744,0,0)" stroke-opacity="1" font-size="34.5833" fill="none" stroke-linejoin="bevel" font-style="normal" stroke-linecap="square" stroke="#000000" font-family="MS Shell Dlg 2" font-weight="400"/>
  <g stroke-width="1" transform="matrix(11.808,0,0,11.808,0,0)" stroke-opacity="1" font-size="34.5833" fill="none" stroke-linejoin="bevel" font-style="normal" stroke-linecap="square" stroke="#000000" font-family="MS Shell Dlg 2" font-weight="400"/>
  <g stroke-width="1" transform="matrix(11.808,0,0,11.808,0,0)" stroke-opacity="1" font-size="34.5833" fill="none" stroke-linejoin="bevel" font-style="normal" stroke-linecap="square" stroke="#000000" font-family="MS Shell Dlg 2" font-weight="400"/>
  <g stroke-width="1" transform="matrix(11.808,0,0,11.808,0,0)" stroke-opacity="1" font-size="34.5833" fill="none" stroke-linejoin="bevel" font-style="normal" stroke-linecap="square" stroke="#000000" font-family="MS Shell Dlg 2" font-weight="400"/>
  <g stroke-width="1" transform="matrix(1,0,0,1,0,0)" stroke-opacity="1" font-size="34.5833" fill="none" stroke-linejoin="bevel" font-style="normal" stroke-linecap="square" stroke="#000000" font-family="MS Shell Dlg 2" font-weight="400"/>
  <g stroke-width="1" transform="matrix(11.808,0,0,11.808,0,0)" stroke-opacity="1" font-size="34.5833" fill="none" stroke-linejoin="bevel" font-style="normal" stroke-linecap="square" stroke="#000000" font-family="MS Shell Dlg 2" font-weight="400"/>
  <g stroke-width="1" transform="matrix(11.808,0,0,11.808,0,0)" stroke-opacity="1" font-size="34.5833" fill="none" stroke-linejoin="bevel" font-style="normal" stroke-linecap="square" stroke="#000000" font-family="MS Shell Dlg 2" font-weight="400"/>
  <g stroke-width="1" transform="matrix(11.808,0,0,11.808,0,0)" stroke-opacity="1" font-size="34.5833" fill="none" stroke-linejoin="bevel" font-style="normal" stroke-linecap="square" stroke="#000000" font-family="MS Shell Dlg 2" font-weight="400"/>
  <g stroke-width="1" transform="matrix(11.808,0,0,11.808,0,0)" stroke-opacity="1" font-size="34.5833" fill="none" stroke-linejoin="bevel" font-style="normal" stroke-linecap="square" stroke="#000000" font-family="MS Shell Dlg 2" font-weight="400"/>
  <g stroke-width="1" transform="matrix(1,0,0,1,0,0)" stroke-opacity="1" font-size="34.5833" fill="none" stroke-linejoin="bevel" font-style="normal" stroke-linecap="square" stroke="#000000" font-family="MS Shell Dlg 2" font-weight="400"/>
 </g>
</svg>
