<?xml version='1.0' encoding='UTF-8' standalone='no'?>
<svg xmlns:xlink="http://www.w3.org/1999/xlink" baseProfile="tiny" xmlns="http://www.w3.org/2000/svg" height="249.936mm" viewBox="0 0 2952 2952" width="249.936mm" version="1.2">
 <title>Qt SVG Document</title>
 <desc>Generated with Qt</desc>
 <defs/>
 <g stroke-width="1" fill-rule="evenodd" fill="none" stroke-linejoin="bevel" stroke-linecap="square" stroke="black">
  <g stroke-width="1" transform="matrix(1,0,0,1,0,0)" stroke-opacity="1" font-size="34.5833" fill="none" stroke-linejoin="bevel" font-style="normal" stroke-linecap="square" stroke="#000000" font-family="MS Shell Dlg 2" font-weight="400"/>
  <g stroke-width="1" transform="matrix(1,0,0,1,0,0)" stroke-opacity="1" font-size="34.5833" fill="none" stroke-linejoin="bevel" font-style="normal" stroke-linecap="square" stroke="#000000" font-family="MS Shell Dlg 2" font-weight="400"/>
  <g stroke-width="1" transform="matrix(11.808,0,0,11.808,0,0)" stroke-opacity="1" font-size="34.5833" fill="none" stroke-linejoin="bevel" font-style="normal" stroke-linecap="square" stroke="#000000" font-family="MS Shell Dlg 2" font-weight="400"/>
  <g stroke-width="1" transform="matrix(0.999744,0,0,0.999744,0,0)" stroke-opacity="1" font-size="34.5833" fill="none" stroke-linejoin="bevel" font-style="normal" stroke-linecap="square" stroke="#000000" font-family="MS Shell Dlg 2" font-weight="400"/>
  <g transform="matrix(0.999744,0,0,0.999744,0,0)" font-size="34.5833" fill-opacity="0" fill="#ffffff" font-style="normal" stroke="none" font-family="MS Shell Dlg 2" font-weight="400">
   <path fill-rule="evenodd" vector-effect="none" d="M-2,-2 L2955,-2 L2955,2955 L-2,2955 L-2,-2"/>
  </g>
  <g stroke-width="1" transform="matrix(0.999744,0,0,0.999744,0,0)" stroke-opacity="1" font-size="34.5833" fill="none" stroke-linejoin="bevel" font-style="normal" stroke-linecap="square" stroke="#000000" font-family="MS Shell Dlg 2" font-weight="400"/>
  <g stroke-width="1" transform="matrix(11.808,0,0,11.808,0,0)" stroke-opacity="1" font-size="34.5833" fill="none" stroke-linejoin="bevel" font-style="normal" stroke-linecap="square" stroke="#000000" font-family="MS Shell Dlg 2" font-weight="400"/>
  <g stroke-width="1" transform="matrix(11.808,0,0,11.808,0,0)" stroke-opacity="1" font-size="34.5833" fill="none" stroke-linejoin="bevel" font-style="normal" stroke-linecap="square" stroke="#000000" font-family="MS Shell Dlg 2" font-weight="400"/>
  <g stroke-width="1" transform="matrix(11.808,0,0,11.808,0,0)" stroke-opacity="1" font-size="34.5833" fill="none" stroke-linejoin="bevel" font-style="normal" stroke-linecap="square" stroke="#000000" font-family="MS Shell Dlg 2" font-weight="400"/>
  <g stroke-width="1" transform="matrix(11.808,0,0,11.808,0,0)" stroke-opacity="1" font-size="34.5833" fill="none" stroke-linejoin="bevel" font-style="normal" stroke-linecap="square" stroke="#000000" font-family="MS Shell Dlg 2" font-weight="400"/>
  <g stroke-width="1" transform="matrix(11.808,0,0,11.808,0,0)" stroke-opacity="1" font-size="34.5833" fill="none" stroke-linejoin="bevel" font-style="normal" stroke-linecap="square" stroke="#000000" font-family="MS Shell Dlg 2" font-weight="400"/>
  <g transform="matrix(11.808,0,0,11.808,0,0)" font-size="34.5833" fill-opacity="0" fill="#ffffff" font-style="normal" stroke="none" font-family="MS Shell Dlg 2" font-weight="400">
   <path fill-rule="evenodd" vector-effect="none" d="M0,0 L250,0 L250,250 L0,250 L0,0"/>
  </g>
  <g stroke-width="1" transform="matrix(11.808,0,0,11.808,0,0)" stroke-opacity="1" font-size="34.5833" fill="none" stroke-linejoin="bevel" font-style="normal" stroke-linecap="square" stroke="#000000" font-family="MS Shell Dlg 2" font-weight="400"/>
  <g stroke-width="1" transform="matrix(11.808,0,0,11.808,0,0)" stroke-opacity="1" font-size="34.5833" fill="none" stroke-linejoin="bevel" font-style="normal" stroke-linecap="square" stroke="#000000" font-family="MS Shell Dlg 2" font-weight="400"/>
  <g transform="matrix(0.999744,0,0,0.999744,0,0)" font-size="34.5833" fill-opacity="0" fill="#000000" font-style="normal" stroke="none" font-family="MS Shell Dlg 2" font-weight="400">
   <rect x="0" height="2953" width="2953" y="0"/>
  </g>
  <g stroke-width="1" transform="matrix(0.999744,0,0,0.999744,0,0)" stroke-opacity="1" font-size="34.5833" fill="none" stroke-linejoin="bevel" font-style="normal" stroke-linecap="square" stroke="#000000" font-family="MS Shell Dlg 2" font-weight="400"/>
  <g stroke-width="3.07087" transform="matrix(0.999744,0,0,0.999744,0,0)" stroke-opacity="1" font-size="34.5833" fill-opacity="1" fill="#c5c5c5" stroke-linejoin="bevel" font-style="normal" stroke-linecap="square" stroke="#5c5c5c" font-family="MS Shell Dlg 2" font-weight="400">
   <path fill-rule="evenodd" vector-effect="none" d="M963.815,2728.63 L956.221,2728.03 L953.045,2724.06 L951.1,2723.21 L948.86,2720.82 L945.436,2721.3 L940.116,2717.14 L938.71,2717.22 L936.769,2716.48 L935.775,2713.29 L934.166,2710.66 L932.242,2709.68 L928.079,2703.79 L927.094,2702.86 L927.29,2698.81 L928.565,2696.86 L931.756,2694.01 L940.848,2688.28 L943.669,2684.58 L942.866,2684.27 L940.953,2682.78 L940.363,2682 L934.908,2682 L934.561,2681.69 L934.831,2681.27 L934.578,2681 L932.067,2679.21 L933.37,2676.18 L933.672,2675.97 L933.374,2675.74 L931.09,2677.25 L930.17,2678.67 L925.847,2674.23 L924.709,2673.37 L918.33,2669.94 L915.607,2669.18 L912.509,2667.9 L910.767,2667.54 L907.337,2667.43 L905.596,2662.94 L905.601,2661.63 L902.593,2658.94 L900.534,2657.46 L896.504,2655.92 L895.04,2655.02 L890.929,2653.72 L886.703,2653.89 L881.922,2653.48 L880.826,2656.33 L871.54,2654.84 L866.742,2653.31 L862.282,2652.73 L848.791,2652.49 L846.33,2651.49 L845.664,2648.11 L847.386,2644.26 L847.002,2640.82 L850.893,2635.71 L852.552,2628.97 L852.675,2626.54 L853.356,2622.61 L853.878,2621.91 L856.988,2620.06 L859.337,2612.54 L860.383,2611.09 L862.746,2609.69 L863.432,2608.71 L863.826,2608.58 L868.6,2608.93 L869.906,2599.71 L869.83,2597.96 L870.257,2596.74 L870.258,2594.9 L870.581,2594.27 L870.621,2592.88 L871.255,2589.86 L871.27,2588.3 L871.024,2587.41 L871.695,2583.12 L871.562,2579.27 L873.157,2576.28 L873.706,2573.99 L874.501,2572.66 L875.275,2572.08 L884.965,2573.64 L884.27,2568.48 L884.057,2564.69 L885.857,2560.21 L886.434,2559.51 L891.004,2560.74 L892.747,2560.77 L894.451,2557.87 L895.576,2554.74 L895.132,2553.1 L894.846,2550.21 L893.717,2548.34 L892.586,2546.58 L891.951,2546.03 L889.513,2544.86 L889.823,2543.7 L889.309,2541.51 L887.192,2539.07 L887.068,2536.56 L885.832,2535.25 L885.788,2533.68 L885.545,2533.15 L882.135,2532.95 L881.22,2533.73 L880.356,2533.69 L882.21,2520.81 L884.031,2519.09 L883.934,2516.63 L884.594,2515.93 L884.69,2514.78 L885.349,2513.43 L885.261,2507.75 L887.97,2505.32 L888.149,2504.74 L888.929,2504.16 L889.189,2503.57 L890.46,2502.75 L893.042,2499.72 L895.682,2497.69 L897.124,2496.18 L898.154,2494.26 L898.174,2493.44 L897.072,2491.27 L894.797,2488.64 L892.777,2488.26 L892.159,2487.5 L893.151,2485.23 L893.219,2484.38 L887.971,2481.85 L877.409,2475.61 L862.002,2467.21 L824.472,2449.06 L816.776,2451.07 L813.732,2453.79 L809.412,2452.28 L807.843,2452.39 L806.76,2451 L801.886,2452.59 L801.532,2453.45 L798.639,2454.72 L795.464,2454.15 L792.44,2451.45 L790.706,2451.54 L789.682,2451.98 L788.663,2453.19 L785.56,2455.43 L784.541,2456.96 L783.984,2456.35 L780.264,2454.56 L779.79,2453.84 L780.036,2452.84 L778.454,2451.67 L777.739,2451.34 L776.872,2451.46 L774.335,2451.13 L773.032,2451.3 L772.753,2449.22 L773.392,2447.92 L771.993,2445.91 L770.106,2444.21 L768.681,2442.45 L769.09,2441.25 L768.757,2440.82 L767.979,2440.85 L767.074,2439.93 L765.981,2440.57 L764.335,2439.99 L759.502,2440.76 L753.431,2443.4 L750.63,2445.29 L749.612,2446.68 L749.331,2447.61 L747.002,2449.46 L747.136,2450.62 L746.7,2451.14 L746.55,2452.34 L746.691,2452.85 L747.621,2453.55 L747.676,2454.41 L746.47,2455.03 L745.879,2455.96 L745.187,2455.79 L744.87,2456.08 L743.841,2458.23 L744.064,2459.01 L743.525,2461.01 L742.675,2462.19 L741.613,2460.98 L741.04,2459.9 L740.187,2459.59 L739.54,2458.83 L739.08,2458.03 L739.077,2456.68 L738.513,2455.31 L736.865,2454.61 L736.69,2454.3 L736.352,2452.35 L736.713,2450.64 L733.4,2448.79 L729.494,2446.99 L729.226,2447.12 L728.806,2446.53 L729.409,2445.32 L729.483,2444.48 L727.162,2443.52 L725.879,2443.45 L725.135,2443 L723.918,2443.45 L722.993,2444.31 L722.204,2444.26 L721.529,2443.2 L720.396,2442.79 L719.597,2441.53 L718.032,2440.6 L711.82,2440.87 L711.304,2441.04 L710.844,2441.84 L708.681,2442.17 L707.171,2441.19 L705.797,2441.97 L702.571,2443.2 L701.327,2445.19 L696.192,2450.7 L693.445,2450.84 L688.955,2451.92 L683.968,2451.18 L683.803,2448.27 L682.253,2446.99 L680.271,2446.38 L678.09,2443.47 L676.194,2442.55 L675.324,2442.39 L672.083,2443.76 L670.081,2446.23 L668.409,2447.09 L667.54,2448.99 L665.931,2449.97 L664.471,2451.6 L662.363,2452.03 L659.553,2454.76 L655.333,2457.82 L652.34,2458.75 L647.135,2461.45 L644.298,2460.07 L640.161,2458.65 L636.949,2458.4 L635.183,2459.15 L633.233,2459.25 L630.018,2460.18 L620.923,2457.23 L620.835,2459.65 L622.268,2462.21 L621.651,2464.01 L622.468,2464.99 L622.551,2465.65 L621.447,2467.25 L623.069,2469.4 L622.861,2470.11 L623.79,2471.23 L625.224,2472.3 L625.452,2474.95 L622.289,2477.08 L620.27,2479.26 L617.48,2481.58 L617.423,2482.98 L617.541,2483.68 L617.944,2484.18 L617.996,2485.02 L617.47,2486.64 L617.833,2489.21 L617.893,2492.01 L614.592,2497.4 L614.76,2500.19 L612.06,2504.38 L612.123,2505.05 L611.125,2506.22 L610.416,2507.9 L609.769,2508.34 L607.733,2508.39 L606.49,2510.03 L605.96,2508.84 L604.954,2508.28 L603.381,2505.65 L601.457,2504.01 L600.741,2502.96 L599.045,2501.89 L596.161,2502.21 L594.895,2503.54 L590.69,2502.73 L586.753,2502.69 L584.609,2503.1 L581.618,2503.2 L578.916,2502.58 L578.232,2503.4 L576.056,2503.1 L574.673,2503.65 L571.298,2504.19 L568.545,2506.67 L567.206,2507.35 L566.147,2507.52 L563.64,2507.35 L558.166,2508.29 L556.896,2510.56 L556.318,2511.03 L556.757,2512.06 L553.508,2514.46 L551.777,2515.16 L545.953,2516.13 L544.481,2516.85 L542.407,2518.52 L540.426,2519.72 L538.293,2521.94 L536.303,2523.1 L536.108,2527.08 L535.147,2528.12 L535.023,2531.32 L534.25,2532.11 L530.676,2532.47 L529.66,2533.79 L528.194,2534.29 L527.188,2535.56 L522.049,2537.21 L518.68,2537.61 L516.018,2538.67 L514.131,2540.23 L511.291,2540.57 L509.574,2539.72 L506.707,2539.71 L498.386,2541.39 L498.711,2539.98 L496.904,2539.39 L495.624,2539.64 L493.418,2539.17 L491.897,2539.2 L488.023,2537.92 L483.714,2537.65 L477.737,2533.52 L477.666,2533.15 L479.384,2529.47 L480.346,2528.06 L482.675,2527.77 L480.297,2523.67 L479.73,2523.09 L474.375,2519.62 L475.346,2517.37 L476.624,2515.82 L477.889,2512.84 L478.586,2512.23 L479.476,2512.03 L480.466,2510.9 L480.531,2510.34 L480.406,2510 L479.576,2509.64 L478.926,2508.92 L479.141,2508.28 L478.846,2506.71 L478.969,2505.87 L478.258,2504.61 L477.412,2504.49 L475.775,2505.69 L474.272,2506.24 L472.284,2506.19 L471.45,2506 L470.674,2505.37 L469.75,2503.55 L470.152,2502.39 L473.993,2497.65 L474.13,2496.96 L477.39,2497.34 L479.102,2497.29 L481.773,2495.95 L483.107,2494.95 L484.103,2491.92 L484.427,2491.55 L485.377,2490.79 L488.846,2488.96 L490.02,2487.9 L490.832,2484.24 L490.194,2482.02 L487.342,2479.8 L486.766,2478.53 L486.842,2478.18 L483.268,2475.83 L482.492,2474.86 L482.605,2474.43 L482.124,2474.15 L481.907,2474.54 L481.152,2473.94 L477.596,2472.62 L473.146,2468.09 L471.89,2468.19 L470.377,2467.66 L468.581,2467.72 L467.3,2466.86 L463.914,2468.48 L462.805,2468.12 L461.776,2468.6 L460.374,2468.33 L457.516,2469.08 L456.054,2469.05 L455.288,2469.39 L454.415,2470.87 L453.004,2471.15 L451.858,2472.27 L449.4,2473.1 L448.802,2473.04 L447.256,2469.7 L446.432,2468.87 L445.84,2467.7 L445.046,2465.61 L443.858,2464.11 L442.279,2462.69 L441.725,2461.6 L441.249,2458.54 L441.48,2457.28 L441.381,2456.16 L441.833,2455.11 L441.859,2453.87 L442.443,2451.76 L443.143,2450.31 L444.892,2449.57 L445.387,2449.01 L447.576,2445.21 L448.233,2443.6 L447.533,2442.67 L447.112,2441.48 L446.364,2440.65 L444.533,2436.7 L445.003,2435.28 L444.52,2432.63 L445.2,2431.09 L444.186,2430.07 L444.675,2428.24 L445.827,2427.2 L446.12,2426.4 L446.84,2425.62 L446.464,2424.98 L445.848,2421.05 L444.235,2418.87 L442.998,2418.27 L442.082,2417.36 L441.85,2416.22 L440.734,2413.67 L441.078,2412.89 L440.726,2411.85 L440.864,2409.59 L441.522,2407.85 L441.986,2407.57 L441.812,2405.61 L442.216,2404.61 L441.583,2403.76 L440.96,2402.11 L440.946,2398.45 L441.528,2396.67 L441.415,2395.55 L441.821,2394.42 L441.667,2392.04 L442.964,2388.69 L443.793,2387.3 L443.461,2384.72 L440.705,2381.15 L439.593,2381.08 L437.507,2380.27 L436.711,2380.96 L436.183,2380.73 L435.345,2379.29 L432.788,2377.51 L431.382,2375.75 L430.6,2374.31 L428.253,2373.23 L427.133,2369.33 L427.213,2365.12 L428.305,2362.59 L432.002,2359.25 L431.982,2358.41 L435.211,2355.31 L433.669,2354.2 L431.29,2351.64 L429.452,2348.5 L429.575,2348.02 L431.128,2346.12 L431.594,2343.36 L432.106,2343 L433.49,2343.51 L437.698,2343.97 L438.637,2343.79 L441.241,2342.53 L446.151,2337.76 L446.227,2336.57 L447.248,2335.61 L448.041,2334.29 L447.902,2331.44 L446.511,2329.19 L446.883,2326.59 L446.785,2325.72 L447.934,2321.35 L449.164,2319.26 L451.784,2316.59 L451.571,2314.93 L450.781,2313.75 L450.936,2311.47 L450.316,2310.59 L449.148,2306.21 L449.281,2304.73 L449.08,2302.99 L447.651,2300.59 L446.384,2300.09 L442.518,2297.29 L441.757,2295.34 L439.534,2296.33 L437.693,2294.01 L436.504,2294.05 L434.688,2292.93 L432.42,2290.3 L430.959,2289.28 L428.745,2286.9 L428.544,2286.53 L429.467,2283.79 L429.1,2281.92 L429.713,2278.77 L429.748,2277.21 L428.78,2271.67 L427.521,2271.47 L425.457,2270.69 L422.518,2270.17 L420.81,2266.28 L420.789,2260.79 L420.197,2258.94 L419.048,2256.98 L418.811,2254.67 L420.764,2251.93 L420.183,2249.95 L421.741,2246.67 L423.483,2241.77 L425.264,2240.08 L426.931,2237.01 L426.962,2236.12 L425.825,2233.14 L425.488,2231.24 L425.612,2229.26 L425.295,2224.98 L425.997,2222.21 L425.529,2220.83 L425.14,2220.42 L422.727,2222.06 L419.082,2223.16 L415.429,2223.94 L413.979,2223.77 L410.621,2223 L408.655,2219.35 L404.72,2219.87 L400.694,2221.18 L398.967,2220.06 L396.784,2217.12 L396.298,2216.83 L383.921,2212.92 L382.632,2210.06 L382.21,2207.36 L382.366,2202.4 L383.351,2194.15 L383.215,2189.86 L383.575,2188.02 L384.737,2187.06 L386.136,2185.34 L387.163,2181.65 L388.21,2180.07 L388.269,2177.16 L389.095,2173.29 L388.585,2171.58 L388.733,2168.7 L388.01,2166.25 L388.117,2165.13 L388.669,2163.75 L388.086,2158.97 L388.34,2157.24 L389.509,2154.92 L392.858,2151.02 L394.487,2147.31 L397.101,2143.68 L398.879,2141.87 L400.396,2140.94 L404.347,2136.74 L406.087,2136.07 L410.15,2136.54 L412.984,2136.22 L416.148,2136.76 L417.65,2136.46 L418.838,2135.87 L419.132,2135.41 L420.806,2130.71 L420.712,2128.98 L422.612,2122.29 L421.624,2119.49 L421.843,2114.79 L420.974,2110.37 L421.526,2106.93 L420.932,2105.8 L418.221,2102.46 L418.048,2101.79 L419.161,2098.41 L420.361,2097.24 L420.746,2096.48 L420.98,2094.02 L418.959,2088.25 L414.115,2086.57 L412.074,2085.13 L414.957,2082.4 L416.352,2076.64 L418.28,2075.12 L419.627,2074.91 L420.795,2073.66 L422.617,2072.7 L424.984,2070.25 L425.785,2068.24 L426.376,2061.67 L428.169,2058.68 L431.903,2055.88 L433.159,2054.21 L436.746,2053.53 L438.72,2050.95 L440.483,2049.26 L442.416,2049.4 L444.711,2049.15 L446.973,2047.3 L448.101,2047.14 L449.811,2044.29 L452.839,2040.32 L456.464,2038.16 L459.288,2036.02 L459.256,2033.08 L461.02,2029.92 L461.374,2028.11 L462.534,2026.68 L462.667,2025.39 L463.761,2021.8 L466.925,2020.76 L468.229,2019.68 L469.368,2018.08 L470.442,2015.87 L471.936,2014.9 L472.804,2013.99 L473.816,2012.53 L474.409,2011.09 L479.399,2007.77 L480.768,2006.48 L487.985,1996.81 L488.34,1995.32 L488.242,1993.49 L489.223,1989.98 L488.96,1988.38 L490.397,1986.62 L493.056,1982.16 L493.392,1981.41 L493.568,1979.31 L493.99,1978.53 L494.107,1977.6 L495.168,1975.84 L496.265,1974.61 L497.583,1972.25 L497.406,1970.98 L496.888,1969.84 L498.354,1966.26 L498.612,1964.7 L498.3,1962.96 L499.346,1960.72 L499.555,1959.17 L498.017,1955.63 L498.42,1950.91 L497.852,1949.2 L497.543,1947.15 L497.803,1943.86 L498.482,1942.46 L499.003,1937.66 L498.591,1936.85 L497.06,1936.1 L495.925,1934.86 L493.758,1931.64 L493.343,1930.49 L494.164,1928.38 L494.304,1925.13 L495.454,1923.2 L500.801,1921.34 L502.391,1919.89 L503.293,1918.6 L503.66,1916.72 L503.526,1915.97 L504.077,1914.1 L503.872,1913.41 L504.006,1912.16 L504.654,1909.05 L504.561,1907.27 L506.863,1904.59 L506.816,1900.08 L510.544,1895.08 L510.642,1893.25 L511.528,1891.63 L514.935,1889.69 L516.378,1888.08 L516.38,1887.8 L507.675,1871.27 L503.567,1864.72 L490.751,1852.44 L487.972,1850.47 L487.889,1848.07 L488.228,1847.41 L490.121,1846.27 L490.359,1845.63 L490.311,1843.87 L493.84,1839.09 L496.049,1836.71 L496.929,1833.4 L496.283,1831.85 L496.585,1829.69 L497.332,1827.21 L497.191,1824.98 L497.411,1823.03 L497.838,1821.49 L499.124,1819.3 L501.517,1816.28 L504.081,1813.81 L506.131,1813.05 L507.882,1810.91 L509.095,1810.09 L511.095,1809.69 L511.489,1809.39 L512.172,1808.07 L513.156,1804.34 L515.429,1801.02 L516.204,1798.84 L517.046,1798.06 L521.371,1795.38 L522.299,1794.14 L522.35,1791.21 L521.713,1790.43 L522.762,1789.47 L522.603,1788.04 L523.128,1787.24 L523.149,1786.79 L522.781,1785.17 L522.006,1783.45 L520.593,1781.98 L520.582,1779.48 L519.083,1775.69 L519.761,1773.2 L520.841,1772.15 L521.503,1770.88 L522.686,1769.47 L526.201,1767.4 L527.845,1767.73 L529.095,1767.35 L531.319,1765.92 L534.604,1763.09 L535.6,1761.51 L536.087,1756.03 L539.518,1754.21 L540.514,1753.3 L540.467,1748.84 L539.299,1746.84 L536.68,1733.55 L531.363,1715.99 L529.628,1711.78 L529.177,1703.94 L528.584,1701.29 L527.705,1700.29 L526.437,1699.83 L525.447,1699.72 L522.5,1700.6 L519.72,1698.22 L518.145,1696.55 L517.064,1694.84 L515.781,1693.62 L512.786,1691.4 L509.691,1688.66 L510.365,1686.42 L512.058,1685 L513.474,1683.06 L513.73,1680.67 L514.789,1678.67 L515.502,1678.22 L518.091,1677.94 L520.235,1676.75 L520.801,1673.63 L521.115,1673.19 L526.884,1668.22 L529.025,1665.48 L529.731,1664.87 L531.418,1664.19 L532.941,1662.47 L533.219,1661.61 L533.002,1660.85 L532.081,1659.79 L532.778,1658.15 L532.393,1656.26 L530.373,1654.23 L528.106,1648.68 L524.733,1647.75 L523.517,1647 L522.33,1644.58 L517.651,1639.66 L517.122,1638.58 L515.78,1637.28 L515.37,1636.23 L514.888,1634.16 L515.124,1629.84 L514.35,1623.62 L515.84,1621.13 L516.474,1619.03 L516.235,1617.26 L516.682,1614.41 L514.808,1613.64 L512.092,1611.87 L510.507,1611.58 L509.85,1611.16 L507.317,1608.9 L505.018,1607.96 L502.981,1606.17 L499.218,1603.98 L496.178,1600.88 L494.781,1600.03 L491.379,1599.32 L489.14,1598.52 L483.228,1594.3 L481.458,1593.83 L477.924,1591.71 L476.88,1590.79 L475.498,1590.44 L472.874,1589.17 L471.721,1587.39 L471.248,1587.15 L464.622,1584.7 L460.773,1585.92 L457.548,1585.45 L457.775,1585.01 L457.632,1581.01 L457.779,1580.09 L459.582,1576.99 L460.422,1575.98 L460.447,1574.29 L461.304,1572.33 L461.445,1566.57 L462.025,1563.92 L463.096,1563.28 L464.967,1563.2 L466.341,1562.84 L477.823,1562.86 L478.977,1564.52 L479.611,1566.6 L483.599,1566.73 L486.309,1565.65 L490.071,1562.6 L490.287,1559.88 L490.968,1558.6 L487.552,1553.36 L487.137,1551.55 L487.209,1550.09 L487.457,1549.57 L490.468,1546.06 L493.374,1545.86 L496.375,1544.59 L499.523,1544.45 L501.798,1543.28 L503.127,1540.7 L504.739,1539.04 L506.965,1535.99 L508.071,1535.37 L510.124,1534.81 L510.912,1533.82 L511.824,1531.4 L512.568,1530.28 L513.661,1529.63 L515.677,1529.22 L517.694,1526.4 L518.352,1525.87 L522.122,1527.34 L524.047,1528.61 L529.933,1529.28 L530.803,1529 L533.385,1526.65 L534.925,1525.98 L538.766,1525.88 L542.685,1526.9 L545.201,1527.08 L548.775,1527.19 L550.103,1526.56 L555.112,1526.79 L556.401,1527.17 L558.226,1523.91 L558.561,1523.71 L566.147,1523.52 L568.251,1518.49 L566.671,1512.13 L566.706,1511.54 L567.974,1511.24 L570.493,1509.66 L576.706,1507.74 L576.821,1504.98 L577.39,1501.77 L577.708,1501.15 L582.786,1496.23 L584.197,1492.07 L585.476,1491.05 L588.666,1489.63 L589.727,1486.7 L594.477,1485.95 L595.619,1485.56 L595.654,1484.96 L593.495,1483.57 L591.705,1481.37 L591.986,1479.19 L593.485,1474.44 L591.124,1474.85 L586.776,1474.12 L586.465,1473.44 L586.356,1472.15 L585.137,1468.63 L583.867,1466.38 L581.771,1463.87 L578.573,1462.45 L578.117,1460.17 L578.15,1458.64 L579.988,1456.78 L580.15,1456.12 L578.336,1449.73 L578.067,1444.64 L576.872,1440.21 L576.638,1436.94 L577.911,1435.51 L578.315,1432.62 L580.63,1428.65 L580.741,1427.05 L580.525,1425.57 L578.882,1422.01 L578.424,1418.74 L577.099,1415.71 L577.094,1412.95 L579.353,1409.78 L583.309,1405.49 L557.966,1370.2 L557.999,1369.89 L555.688,1369.27 L552.616,1367.58 L549.681,1366.94 L546.998,1365.38 L545.08,1363.87 L543.728,1363.71 L540.289,1364.38 L537.946,1364.53 L530.259,1361.8 L529.567,1361.2 L527.742,1358.1 L525.556,1357.14 L522.799,1355.28 L521.152,1353.6 L518.985,1352.14 L514.764,1348.01 L512.715,1347.32 L510.342,1345.94 L506.827,1341 L503.502,1333.29 L500.498,1330.67 L496.751,1329.3 L494.095,1328.8 L484.974,1330.31 L481.15,1329.91 L477.599,1328.48 L473.449,1325.59 L471.762,1324.82 L469.122,1324.12 L465.192,1323.86 L460.184,1324.44 L452.499,1323.81 L449.626,1322.55 L447.057,1322.92 L438.548,1321.54 L432.1,1319.22 L429.356,1319.14 L426.253,1320.19 L424.415,1321.81 L422.968,1324.09 L420.596,1326.98 L414.411,1324.57 L410.639,1323.72 L410.603,1321.38 L410.326,1320.66 L408.996,1317.8 L406.91,1314.93 L405.408,1314.17 L402.829,1311.92 L393.496,1302.14 L390.608,1299.54 L389.092,1297.73 L388.12,1294.11 L387.35,1288.67 L383.588,1270.39 L383.257,1267.73 L383.414,1263.03 L383.144,1263.07 L384.406,1259.29 L387.022,1255.29 L389.847,1253.03 L390.647,1250.81 L390.781,1249.52 L390.845,1248.39 L390.163,1246.29 L390.712,1245.56 L390.48,1244.81 L392.227,1245.27 L393.129,1244.89 L395.087,1244.7 L396.939,1244.76 L397.255,1245.04 L398.388,1244.92 L399.135,1244.08 L400.831,1243.24 L404,1243.2 L405.117,1242.44 L406.099,1241 L404.682,1232.64 L405.786,1231.42 L405.841,1230.85 L406.788,1230.13 L407.493,1228.5 L408.706,1227.4 L409.059,1225.77 L409.632,1224.89 L410.12,1222.83 L410.401,1222.5 L410.299,1221.62 L410.658,1220.46 L412.639,1217.72 L412.764,1217.08 L412.072,1215.5 L412.192,1215.2 L410.425,1212.82 L410.15,1211.49 L409.442,1210.23 L409.612,1210.01 L409.171,1208.7 L408.199,1207.95 L408.619,1205.79 L408.352,1205.14 L409.518,1204.01 L409.454,1202.23 L408.923,1201.12 L411.28,1199.42 L412.111,1196.96 L412.106,1193.38 L412.783,1192.3 L414.32,1191.48 L414.423,1190.33 L415.175,1189.18 L415.291,1188.32 L415.741,1187.88 L415.866,1187.13 L418.111,1185.16 L418.975,1184.91 L418.962,1184.55 L419.918,1183.97 L420.906,1182.4 L420.325,1180.55 L420.014,1177.78 L419.449,1177.23 L419.249,1176.55 L420.447,1173.32 L421.949,1171.73 L421.512,1170.16 L422.027,1169.61 L422.177,1168.83 L422.534,1168.42 L423.421,1165.85 L423.129,1165.18 L423.245,1164.04 L424.158,1161.85 L424.457,1161.68 L423.811,1161.56 L422.479,1159.78 L422.108,1159.68 L421.138,1160.21 L420.516,1158.03 L419.993,1157.23 L419.714,1157.2 L419.958,1155.45 L420.524,1155.23 L421.059,1154.62 L420.652,1152.76 L421.099,1152.08 L422.434,1151.01 L423.735,1149.07 L423.954,1146.48 L423.343,1144.09 L423.308,1143.16 L423.577,1142.71 L421.695,1140.82 L421.43,1138.96 L420.44,1137.12 L420.488,1134.91 L421.265,1133.96 L421.52,1133.22 L423.103,1131.37 L423.764,1129.75 L423.825,1128.96 L426.369,1127.07 L426.988,1125.71 L428.436,1124.57 L428.823,1122.97 L429.632,1121.49 L429.352,1120.78 L429.524,1117.13 L428.601,1117.59 L425.584,1117.55 L420.284,1113.63 L417.472,1109.4 L415.34,1107.52 L400.58,1092.68 L397.736,1090.57 L394.571,1086.66 L389.4,1082.2 L385.303,1079.1 L375.033,1072.47 L371.917,1075.74 L368.69,1075.93 L361.634,1075.79 L356.535,1076.9 L351.842,1077.54 L350.6,1077.35 L346.62,1077.84 L344.385,1077.58 L336.832,1081.22 L332.919,1082.84 L331.254,1083.19 L328.314,1082.69 L323.15,1080.17 L320.271,1077.11 L321.846,1075.41 L322.52,1073.44 L321.995,1072.14 L322.356,1070.87 L321.935,1070.42 L321.88,1069.95 L321.312,1069.65 L321.432,1068.89 L321.124,1067.95 L320.911,1064.72 L319.086,1061.05 L318.009,1059.93 L317.571,1059.07 L316.294,1058.26 L315.902,1056.45 L316.457,1054.04 L316.297,1053.22 L315.981,1053.11 L315.96,1052.34 L313.682,1051.26 L313.434,1049.4 L311.787,1049.07 L310.955,1048.43 L311.166,1047.4 L310.824,1046.22 L310.971,1045.74 L310.692,1045.57 L311.028,1045.21 L309.75,1041.88 L310.44,1041.34 L310.482,1040.94 L311.648,1039.28 L311.87,1036.82 L311.705,1035.03 L311.23,1034.81 L310.865,1033.67 L311.022,1032.6 L310.805,1031.18 L311.191,1029.72 L309.652,1026.14 L310.456,1024.44 L310.628,1023.21 L311.075,1022.6 L311.059,1021.67 L311.565,1020.12 L310.079,1019.64 L310.288,1018.46 L309.843,1017.54 L309.109,1016.76 L308.24,1013.31 L308.24,1011.78 L307.646,1011.23 L307.33,1010.46 L306.21,1009.8 L305.837,1009.24 L305.58,1008.03 L305.73,1007.67 L305.066,1007.25 L304.349,1006.22 L303.504,1002.78 L303.084,1002 L302.307,1001.06 L302.323,1000.73 L301.49,1000.28 L300.93,999.563 L299.49,998.808 L299.528,998.536 L298.9,998.172 L298.922,997.573 L300.157,993.985 L300.971,993.032 L303.922,993.132 L304.689,993.406 L305.028,993.107 L305.792,993.435 L306.294,993.008 L306.128,991.883 L306.604,991.4 L307.804,990.793 L308.723,991.328 L309.488,991.424 L310.842,990.912 L310.862,990.239 L311.204,989.905 L311.75,990.079 L312.706,989.54 L312.43,989.156 L313.234,988.588 L312.873,988.43 L313.105,987.248 L315.427,983.219 L315.48,982.223 L316.445,981.117 L316.092,980.643 L316.382,978.355 L316.699,977.876 L317.083,978.059 L318.305,974.194 L324.381,961.557 L325.492,962.517 L326.269,962.292 L326.905,962.49 L327.919,962.167 L329.522,962.442 L332.297,961.598 L333.578,960.901 L336.455,958.365 L337.212,958.038 L337.232,957.176 L337.655,956.427 L338.306,956.591 L338.901,956.378 L339.096,955.738 L339.444,955.476 L338.549,954.854 L338.496,954.164 L338.94,952.774 L338.611,951.812 L338.598,949.93 L339.501,947.755 L340.948,946.922 L341.816,945.981 L341.146,943.992 L341.697,941.977 L341.29,941.216 L342.83,939.054 L342.509,937.782 L338.545,936.411 L337.591,935.52 L336.989,933.85 L335.519,932.033 L335.456,931.651 L334.903,930.977 L333.524,930.042 L333.267,929.423 L333.362,928.761 L332.2,928.22 L331.907,927.212 L331.497,926.935 L331.444,926.112 L331.737,925.67 L331.396,924.758 L331.708,923.698 L331.137,922.319 L330.518,921.674 L329.797,921.378 L329.637,920.622 L327.651,919.325 L326.231,918.921 L324.565,917.933 L323.63,916.781 L321.715,915.593 L321.263,914.927 L320.639,914.565 L320.528,914.132 L321.955,911.719 L322.837,911.16 L324.435,910.753 L325.825,909.547 L328.123,908.993 L329.329,907.524 L329.245,907.173 L330.334,906.4 L331.392,906.335 L331.675,906.039 L332.007,906.155 L333.222,905.365 L333.556,904.688 L334.216,904.622 L334.152,904.333 L334.63,903.97 L334.252,903.088 L334.7,902.711 L334.969,901.82 L335.634,901.325 L335.749,900.564 L347.781,892.81 L362.554,880.01 L365.401,879.806 L366.029,879.976 L366.843,879.761 L369.874,881.106 L370.394,879.917 L371.013,877.936 L371.494,873.981 L372.031,873.059 L372.221,871.272 L372.62,870.698 L372.369,870.03 L372.497,867.167 L372.166,865.079 L372.596,863.237 L372.204,861.162 L370.659,858.635 L370.905,857.82 L369.847,855.048 L370.187,853.303 L369.583,851.394 L369.83,849.885 L369.637,849.328 L369.988,848.015 L369.854,846.946 L368.98,845.593 L368.407,843.107 L367.519,842.713 L367.221,842.025 L367.258,841.225 L366.884,840.656 L365.588,839.608 L364.337,839.063 L362.318,837.25 L361.207,835.794 L360.482,832.881 L360.842,832.154 L360.581,831.308 L360.735,830.097 L360.373,829.414 L359.311,828.696 L358.264,828.528 L357.354,828.062 L355.687,825.96 L355.186,823.953 L354.731,823.52 L352.385,822.735 L349.392,820.905 L348.281,820.798 L348.067,819.362 L347.359,818.481 L350.284,816.736 L351.072,816.428 L352.008,816.467 L351.969,815.829 L353.549,813.302 L352.83,811.909 L352.121,808.108 L352.621,808.487 L352.984,808.174 L353.281,808.742 L355.372,806.334 L355.461,803.705 L356.263,803.356 L358.748,802.989 L366.64,802.219 L371.015,799.902 L374.054,797.069 L374.552,797.186 L375.686,796.586 L376.733,796.849 L378.241,793.584 L377.597,792.406 L379.127,792.347 L380.377,791.129 L380.818,789.41 L380.762,787.98 L382.11,786.976 L383.879,783.098 L384.063,781.742 L384.705,780.275 L384.783,778.02 L384.533,777.42 L384.856,776.675 L387.257,774.062 L387.392,773.215 L388.172,771.674 L388.072,771.286 L388.795,770.349 L388.921,769.166 L387.794,768.236 L386.841,766.239 L386.889,764.581 L387.351,763.438 L386.599,761.803 L386.561,760.384 L387.338,759.244 L390.638,756.826 L391.352,755.94 L392.041,755.646 L391.312,754.686 L390.561,752.511 L390.405,751.177 L388.951,749.535 L388.498,747.888 L387.756,747.201 L387.507,745.861 L389.014,744.956 L390.373,743.482 L391.449,740.773 L391.87,738.792 L391.513,738.226 L391.642,737.983 L393.614,738.309 L395.174,739.116 L395.193,738.515 L396.254,738.343 L397.058,737.599 L398.036,737.307 L399.244,736.043 L399.312,735.614 L398.743,733.821 L399.197,729.975 L398.796,729.508 L397.116,728.983 L396.392,727.833 L396.091,726.796 L396.808,725.004 L398.029,724.041 L398.559,722.984 L399.088,722.648 L399.269,722.145 L399.09,721.289 L399.304,720.776 L399.738,720.582 L399.843,719.719 L400.226,719.529 L401.508,717.247 L401.777,717.175 L401.703,716.041 L401.905,715.574 L402.637,715.302 L403.89,714.279 L405.543,713.796 L405.21,713.131 L402.971,703.043 L406.111,700.835 L412.052,697.478 L413.725,695.832 L416.358,696.567 L417.248,697.473 L418.64,700.101 L418.542,700.545 L416.999,700.073 L415.547,701.38 L416.571,702.348 L417.976,703.077 L418.981,704.266 L421.022,703.79 L422.057,703.218 L423.447,703.007 L423.834,704.414 L424.535,704.804 L425.507,706.785 L426.246,707.216 L428.363,707.665 L427.778,709.832 L427.888,711.559 L428.982,711.063 L429.939,711.411 L432.288,707.111 L433.535,707.85 L433.846,709.768 L434.618,711.391 L433.317,712.718 L431.977,713.337 L431.871,713.839 L432.739,713.456 L435.1,713.83 L437.533,715.889 L438.727,715.863 L439.667,715.199 L440.313,715.52 L441.951,715.727 L444.606,715.053 L444.834,714.503 L445.096,714.573 L445.333,715.458 L445.968,715.687 L449.094,715.859 L452.109,716.913 L452.008,716.563 L455.36,716.582 L458.552,717.116 L463.814,719.495 L466.094,719.132 L470.079,717.395 L473.295,716.437 L483.973,713.828 L501.087,711.497 L501.438,712.194 L502.288,712.894 L503.086,713.083 L503.508,713.705 L504.435,713.998 L504.65,715.8 L505.72,716.973 L498.011,729.179 L493.45,732.465 L493.636,733.615 L494.157,733.047 L496.407,732.176 L498.109,730.732 L499.496,729.953 L501.278,729.359 L505.073,729.174 L506.339,728.476 L507.911,726.96 L508.731,727.352 L510.932,727.273 L511.309,727.724 L512.588,727.624 L515.366,727.044 L517.144,725.963 L519.28,725.97 L520.673,725.093 L522.156,724.896 L522.566,724.62 L522.645,724.106 L523.492,723.03 L524.55,720.193 L525.371,719.296 L525.829,718.317 L526.44,717.971 L527.899,717.92 L528.66,717.556 L530.108,715.91 L531.385,715.176 L531.692,714.66 L533.658,714.868 L534.817,715.293 L536.33,713.833 L538.255,712.816 L540.25,712.372 L542.061,711.56 L543.548,711.616 L545.234,710.969 L545.731,710.995 L546.165,709.932 L546.021,709.292 L546.24,708.66 L546.939,707.952 L547.068,707.002 L548.275,704.853 L550.669,702.275 L550.955,701.215 L551.637,700.303 L552.113,698.954 L555.474,698.755 L559.366,697.663 L560.063,698.097 L561.822,697.836 L563.445,698.22 L565.337,697.54 L566.703,697.348 L567.996,696.674 L569.142,696.504 L571.561,695.062 L575.192,693.934 L576.534,692.149 L576.696,691.255 L578.009,689.838 L579.77,689.729 L581.725,688.649 L585.063,687.87 L586.215,686.567 L586.821,686.367 L588.252,686.429 L588.958,686.783 L590.964,686.229 L593.622,685.991 L594.542,686.319 L595.908,685.736 L599.425,685.979 L600.761,685.334 L602.793,685.45 L605.039,684.948 L607.227,685.195 L609.158,684.957 L609.753,684.631 L610.947,684.611 L611.783,685.103 L613,685.18 L615.682,684.643 L616.975,683.648 L621.207,682.455 L623.667,680.195 L623.76,679.767 L623.383,678.703 L623.773,677.795 L626.505,675.156 L627.609,674.728 L627.757,673.881 L628.908,673.132 L630.335,670.873 L631.593,669.513 L633.294,668.608 L635.952,668.03 L636.283,667.518 L637.242,667.383 L638.415,668.873 L639.223,670.953 L639.966,671.622 L640.979,673.136 L641.398,674.716 L641.794,674.931 L642.257,675.813 L643.525,676.417 L645.523,676.669 L646.657,677.088 L647.401,676.842 L648.429,675.929 L649.236,675.923 L649.967,675.601 L650.521,676.081 L652.581,676.793 L653.453,679.119 L654.768,679.8 L655.857,679.572 L657.179,679.839 L658.854,679.269 L659.807,680.415 L660.521,680.929 L661.603,681.085 L661.924,681.585 L662.75,681.065 L664.551,680.975 L665.228,682.593 L666.329,683.523 L666.933,684.449 L668.382,687.44 L669.386,688.258 L670.646,688.275 L671.001,689.047 L672.06,689.685 L672.167,690.603 L670.826,695.315 L669.37,696.725 L668.207,697.254 L667.897,697.782 L668.166,698.867 L669.526,700.495 L668.572,701.128 L668.657,702.06 L668.242,703.7 L667.474,705.095 L667.797,705.863 L667.655,706.523 L668.926,707.832 L670.439,708.587 L672.265,708.8 L675.392,710.414 L676.49,710.714 L677.197,711.724 L678.12,712.188 L678.309,712.651 L678.041,713.542 L678.38,714.543 L679.477,715.305 L680.142,716.336 L681.156,716.404 L682.73,717.129 L684.466,716.918 L686.601,717.177 L688.268,717.062 L688.714,717.28 L689.827,717.004 L690.554,717.174 L692.218,716.408 L695.708,716.639 L695.966,717.131 L695.967,718.342 L695.489,719.085 L695.371,721.652 L694.651,722.703 L694.676,723.507 L695.198,724.02 L697.955,725.241 L699.719,728.223 L701.503,730.573 L702.092,732.537 L706.798,732.662 L710.597,732.127 L713.631,732.417 L714.521,732.787 L715.276,735.36 L716.208,736.851 L719.529,738.525 L728.665,739.95 L731.242,740.031 L733.146,739.509 L734.183,739.574 L737.92,740.59 L740.494,740.732 L741.338,741.056 L742.47,742.154 L743.306,744.07 L743.714,749.15 L744.28,750.493 L745.889,752.14 L748.937,754.125 L751.16,757.517 L751.559,758.964 L750.64,760.864 L750.343,762.631 L747.676,764.826 L745.36,767.658 L743.266,769.11 L742.493,770.338 L741.789,770.791 L738.297,772.223 L736.716,772.037 L735.973,773.784 L735.924,775.125 L735.031,776.05 L733.769,778.548 L731.944,781.101 L731.466,783.608 L730.482,786.262 L730.53,787.478 L730.193,788.218 L730.525,789.682 L727.966,792.971 L725.316,794.898 L723.166,795.822 L720.983,797.581 L718.65,798.782 L718.263,799.25 L712.498,801.202 L708.345,801.275 L706.818,801.855 L706.739,803.878 L707.404,804.498 L707.588,805.647 L709.881,810.16 L709.31,814.324 L710.745,816.999 L711.839,818.323 L713.307,818.808 L717.375,818.472 L718.83,818.981 L720.574,820.386 L721.978,820.7 L722.695,820.508 L725.53,821.261 L728.523,820.243 L732.685,820.196 L736.038,819.794 L736.249,819.962 L736.381,821.216 L737.156,821.383 L740.724,823.957 L742.098,823.603 L744.141,823.765 L747.354,822.237 L748.057,820.644 L749.68,819.781 L750.533,819.983 L751.856,819.683 L754.936,819.614 L758.436,817.973 L760.196,817.429 L761.805,816.021 L762.357,814.896 L763.648,814.478 L767.429,814.353 L768.951,813.888 L770.985,812.381 L771.667,811.188 L772.337,810.6 L772.501,810.028 L773.317,809.436 L773.928,808.094 L774.124,806.145 L774.405,805.715 L776.942,804.699 L778.187,804.534 L778.699,804.742 L786.918,813.699 L788.471,812.887 L789.571,813.172 L811.097,841.184 L811.991,841.151 L812.609,840.037 L815.207,841.806 L817.196,841.519 L819.164,842.835 L821.266,843.377 L821.796,842.941 L822.245,842.966 L822.616,843.706 L824.556,844.687 L825.152,843.106 L826.661,842.892 L827.491,841.997 L828.646,841.556 L828.817,840.713 L829.41,839.959 L829.59,838.721 L830.68,836.995 L830.642,835.736 L830.931,834.929 L832.389,831.995 L833.213,831.757 L835.563,830.015 L836.92,829.404 L838.486,829.345 L839.232,829.751 L840.412,830.939 L841.781,830.361 L842.564,829.647 L844.377,835.662 L848.917,835.598 L854.452,841.523 L857.187,843.081 L874.197,845.974 L875.616,857.293 L876.74,857.17 L877.4,857.599 L877.941,857.444 L880.051,858.14 L884.003,858.147 L886.313,858.981 L888.676,859.35 L889.495,859.788 L890.132,861.045 L890.934,861.887 L892.355,862.411 L894.706,862.307 L898.267,861.734 L901.439,859.913 L903.598,857.208 L905.68,851.839 L906.219,851.19 L908.102,850.03 L909.405,850.23 L911.551,851.953 L915.899,853.288 L918.438,853.548 L919.811,853.344 L921.824,851.935 L924.115,848.642 L925.717,848.054 L927.928,846.75 L928.895,845.228 L931.069,843.261 L934.338,841.443 L937.546,841.99 L940.426,840.813 L942.087,841.43 L943.949,843.702 L946.324,845.129 L946.868,845.026 L948.294,843.813 L949.891,843.388 L953.051,843.763 L954.665,843.287 L957.939,843.532 L959.071,842.937 L960.193,842.75 L961.509,842.953 L963.129,842.141 L964.704,840.705 L965.656,841.769 L966.261,841.415 L967.717,841.659 L970.337,841.202 L972.45,841.419 L999.716,846.432 L1001.56,845.606 L1002.35,846.186 L1003.44,848.532 L1004.45,849.188 L1005.02,850.05 L1005.13,851.698 L1006.47,851.872 L1007.7,851.722 L1008.59,850.919 L1009.19,850.771 L1011.27,851.73 L1012.67,852.969 L1015,854.393 L1015.59,854.536 L1016.84,853.874 L1017.06,853.603 L1016.87,852.822 L1017.24,852.769 L1018.7,853.394 L1021.42,853.277 L1023.22,855.221 L1023.83,855.054 L1025.17,855.317 L1026.85,855.211 L1037.76,851.714 L1047.78,846.373 L1049.45,848.073 L1050.28,849.641 L1052.77,851.78 L1053.17,852.97 L1056.28,856.25 L1057.42,857.13 L1057.73,857.979 L1058.22,857.065 L1060.36,856.481 L1061.39,855.299 L1061.38,852.237 L1061.12,850.728 L1061.22,846.374 L1061.98,843.975 L1062.67,843.024 L1063,841.489 L1064.27,839.445 L1064.16,837.617 L1065.41,835.31 L1065.49,833.323 L1066.02,832.732 L1066.13,832.078 L1067.68,830.139 L1067.93,829.357 L1069.43,827.693 L1070.98,824.783 L1070.95,823.147 L1071.62,821.21 L1071.7,819.152 L1072.3,818.378 L1073.14,815.508 L1073.22,814.367 L1072.76,812.83 L1074.1,808.715 L1075.47,808.339 L1076.2,807.685 L1077.11,806.083 L1077.5,804.493 L1080.01,799.295 L1082.01,798.419 L1082.91,797.751 L1083.74,796.575 L1083.96,795.199 L1082.91,795.158 L1082.18,793.681 L1079.91,791.081 L1079.23,790.726 L1078.82,790.055 L1077.87,789.632 L1077.9,789.43 L1079.35,788.678 L1081.95,788.148 L1087.62,785.588 L1091.29,783.231 L1092.45,783.336 L1093.64,783.82 L1098.92,784.073 L1101.16,781.657 L1101.95,779.171 L1101.84,778.132 L1102.97,776.082 L1103.84,775.726 L1105.02,775.886 L1105.55,775.614 L1108.27,772.206 L1110.79,771.377 L1112.75,769.625 L1115.59,767.743 L1116.66,766.472 L1117.59,766.003 L1118.22,764.937 L1118.68,763.451 L1121.07,762.814 L1123.7,762.719 L1124.82,762.916 L1127.65,762.324 L1129.11,761.41 L1130.1,759.56 L1130.23,759.131 L1129.28,755.908 L1127.11,752.023 L1127.83,749.807 L1124.85,743.819 L1124.15,740.633 L1123.4,738.828 L1122.3,737.067 L1120.78,736.134 L1120.52,735.562 L1118.18,735.001 L1116.57,733.734 L1114.69,731.697 L1120.05,722.963 L1118.39,720.066 L1118.09,718.687 L1118.6,717.621 L1119.74,716.849 L1120.02,716.377 L1119.16,714.816 L1119.11,713.953 L1117.31,711.981 L1116.88,710.784 L1116.17,709.748 L1116.34,708.2 L1116.01,705.899 L1116.88,701.921 L1116.57,700.792 L1117.81,697.526 L1119.63,698.385 L1120.25,698.204 L1123.62,696.165 L1124.37,694.899 L1125.68,691.676 L1126.34,689.049 L1128.18,685.934 L1128.54,683.636 L1127.88,682.363 L1127.85,681.722 L1128.51,680.887 L1128.61,678.978 L1130.73,676.595 L1131.45,674.261 L1133.93,671.368 L1134.09,668.405 L1134.82,666.808 L1136.39,664.507 L1136.87,662.407 L1136.61,661.698 L1138.05,661.122 L1138.29,660.569 L1139.17,660.334 L1139.6,658.764 L1140.84,657.039 L1142.24,656.523 L1142.78,655.736 L1144.42,654.709 L1145.72,653.345 L1147.37,650.768 L1147.71,649.034 L1148.21,648.013 L1148.85,647.109 L1150.57,645.685 L1151.76,642.843 L1151.88,642.417 L1147.06,640.811 L1146.38,639.887 L1146.24,638.629 L1146.6,637.831 L1146.03,636.493 L1147.67,631.751 L1149.02,630.001 L1149.33,627.386 L1148.99,626.393 L1148.92,622.387 L1147.63,621.944 L1147.4,620.706 L1147.64,619.798 L1146.77,617.895 L1147.13,616.616 L1146.9,615.801 L1145.76,615.037 L1145.02,614.792 L1144.71,615.007 L1145.01,613.868 L1144.32,613.184 L1144.57,612.778 L1143.91,611.881 L1143.8,611.14 L1144.59,609.528 L1144.58,607.73 L1144.34,606.908 L1144.9,606.097 L1145.05,604.243 L1147.06,600.678 L1154.77,598.254 L1156.98,597.915 L1158.03,597.234 L1159.03,597.134 L1160.21,597.368 L1160.85,597.152 L1161.06,595.693 L1162.98,591.806 L1163.1,589.858 L1162.68,585.964 L1162.76,584.722 L1162.08,582.469 L1162.08,580.95 L1161.18,579.779 L1161.96,577.369 L1163.22,576.121 L1164.21,574.123 L1166.14,572.869 L1167.55,570.439 L1168.63,570.288 L1170.34,570.881 L1172.4,571.162 L1175.55,572.354 L1177.55,573.782 L1179.11,574.353 L1180.31,574.465 L1182.57,574.056 L1183.48,574.701 L1184.46,576.469 L1184.93,576.787 L1185.39,576.753 L1186.8,575.615 L1188.12,575.943 L1189.82,575.227 L1193.44,576.917 L1194.18,576.679 L1195.84,577.178 L1197.17,576.297 L1198.91,574.535 L1202.51,572.109 L1203.74,572.049 L1204.38,572.297 L1207.4,570.107 L1208.99,570.019 L1209.99,569.083 L1210.73,567.399 L1212.19,566.166 L1213.63,565.764 L1215.18,565.774 L1216.77,563.713 L1218.06,563.09 L1218.35,562.078 L1219.12,561.052 L1220.83,559.54 L1222.78,557 L1224.07,556.471 L1224.79,555.822 L1225.51,555.856 L1225.85,555.604 L1226.68,554.533 L1227.2,552.588 L1228.34,551.755 L1228.98,550.103 L1229.97,548.636 L1230.58,546.741 L1229.37,545.189 L1226.32,542.668 L1225.04,540.428 L1224.81,539.377 L1224.16,538.26 L1224.25,536.845 L1225.88,533.039 L1226.34,530.87 L1227.92,528.966 L1225.64,526.301 L1225.47,525.764 L1225.76,523.84 L1225.53,522.886 L1225.48,520.185 L1226.53,515.182 L1226.02,512.573 L1226.03,510.84 L1226.21,510.681 L1227.32,510.985 L1230.77,512.744 L1232.21,512.945 L1234.33,514.411 L1238.1,516.148 L1240.47,516.215 L1241.4,515.635 L1242.05,514.111 L1242.73,513.338 L1244.42,512.358 L1245.99,511.911 L1247.71,510.607 L1252.77,504.321 L1256.41,502.484 L1259.2,505.462 L1262.77,502.629 L1263.28,504.009 L1266.63,504.461 L1270.96,506.597 L1272,506.875 L1272.49,508.492 L1272.51,509.442 L1273.99,512.222 L1274.97,515.067 L1276.68,516.468 L1278.49,514.412 L1280.96,513.289 L1281.4,512.777 L1282.35,512.358 L1284.79,509.963 L1287.92,508.253 L1290.24,506.252 L1292.86,504.855 L1295.19,504.963 L1296.24,504.412 L1297.07,504.467 L1298.85,503.955 L1301.62,504.777 L1302.57,504.758 L1303.86,505.34 L1304.86,505.078 L1305.52,505.458 L1306.58,505.504 L1309.37,504.816 L1311.26,504.946 L1312.21,503.923 L1313.17,504.225 L1314.49,503.66 L1315.57,503.508 L1317.7,503.989 L1318.95,503.122 L1319.75,501.437 L1320.67,500.748 L1320.99,499.957 L1321.81,499.23 L1323.13,498.789 L1326.75,496.156 L1327.01,496.397 L1327.96,496.291 L1329.11,496.626 L1331,496.069 L1331.81,496.304 L1333.47,495.986 L1335.46,496.178 L1336.1,495.311 L1338.27,488.781 L1340.26,487.396 L1341.21,486.35 L1341.26,485.987 L1343.09,485.276 L1343.63,484.714 L1345.69,484.842 L1348.07,485.671 L1349.75,485.717 L1352.9,486.678 L1354.73,485.501 L1359.77,484.929 L1360.49,484.628 L1360.84,483.959 L1362.16,483.003 L1369.22,480.503 L1371.01,478.65 L1371.55,477.353 L1372.71,475.706 L1374.56,476.451 L1377.7,475.593 L1380.92,475.966 L1383,477.05 L1384.24,477.141 L1386.69,479.559 L1389.01,480.681 L1390.9,479.676 L1391.52,479.798 L1392.19,479.139 L1393.19,478.725 L1396.12,478.973 L1397.23,477.196 L1398.5,476.752 L1399.11,475.366 L1401.86,471.222 L1402.32,471.103 L1403.33,470.041 L1406.06,467.965 L1406.92,466.592 L1409.07,465.349 L1409.57,464.799 L1410.94,464.547 L1415.11,466.674 L1417.34,467.383 L1417.62,467.847 L1418.39,468.277 L1420.01,470.655 L1420.88,471.212 L1422.18,471.471 L1425.74,470.92 L1426.86,471.317 L1427.62,472.645 L1427.82,474.372 L1428.42,474.997 L1428.79,476.138 L1429.2,476.578 L1429.99,476.652 L1430.24,477.359 L1430.68,477.582 L1432.17,477.325 L1433.38,476.685 L1433.55,477.109 L1433.88,477.209 L1434.41,477.167 L1434.89,476.708 L1435.24,476.986 L1435.99,475.05 L1436.99,473.705 L1436.68,472.618 L1436.79,471.878 L1437.58,470.798 L1439.68,469.607 L1441.03,467.491 L1442.87,467.919 L1444.11,469.576 L1444.75,469.409 L1446.99,469.903 L1450.15,468.498 L1451.31,468.337 L1452.38,467.706 L1454.05,467.406 L1454.55,467.851 L1456.35,467.711 L1457.21,469.126 L1458.99,470.844 L1459.48,471.896 L1459.89,471.719 L1460.25,471.028 L1460.6,472.132 L1461.2,472.051 L1461.41,472.545 L1462.39,473.107 L1462.81,473.095 L1463.65,473.815 L1463.62,474.365 L1464.82,476.838 L1464.97,479.372 L1466.59,481.037 L1467.73,481.936 L1468.89,482.156 L1472.04,484.374 L1473.68,484.994 L1474.05,484.854 L1476.74,486.957 L1477.06,487.796 L1478.78,490.268 L1479.1,492.439 L1480.49,492.855 L1481.43,494.121 L1482.39,494.763 L1483.05,498.378 L1482.46,499.935 L1483.68,501.197 L1484.3,502.402 L1485.9,502.357 L1490.57,503.429 L1492.8,504.563 L1496.84,504.336 L1497.76,505.235 L1499.59,505.98 L1501.27,507.458 L1501.56,508.006 L1503.7,508.79 L1504.54,509.641 L1505.21,509.879 L1507.14,512.131 L1509.2,511.761 L1511.97,512.414 L1512.4,511.226 L1513.15,510.472 L1515.28,509.801 L1515.59,509.924 L1517.01,508.638 L1518.58,509.001 L1523.19,508.35 L1525.53,509.086 L1526.01,509.602 L1527.47,507.886 L1527.92,506.614 L1527.92,505.457 L1528.88,504.858 L1530.34,504.723 L1530.31,505.493 L1530.72,505.537 L1531.42,505.131 L1531.42,504.581 L1534.4,504.442 L1536.45,504.885 L1537.63,503.667 L1538.76,502.01 L1539.95,500.837 L1541.66,499.76 L1542.46,498.635 L1543.66,498.719 L1545.91,496.715 L1547.79,495.625 L1550.48,495.266 L1550.94,494.786 L1552.26,494.95 L1553.08,494.419 L1554.69,492.399 L1555.83,491.711 L1556.16,491.126 L1556.24,488.528 L1556.67,486.97 L1556.57,485.425 L1557.15,484.184 L1557.33,483.11 L1558.1,482.288 L1558.88,480.644 L1559.42,478.392 L1560.79,476.469 L1562.44,475.019 L1562.66,473.873 L1563.17,473.012 L1565.81,469.563 L1567.67,464.655 L1570.02,463.608 L1571.26,464.079 L1571.94,464.035 L1575.63,464.97 L1576.98,466.221 L1577.62,465.85 L1578.19,465.056 L1578.78,463.188 L1579.48,462.892 L1580.64,463.377 L1582.73,461.232 L1584.12,461.402 L1585.04,460.598 L1586.35,460.532 L1588.1,459.598 L1587.55,457.2 L1587.04,456.837 L1586.54,453.863 L1587.53,450.61 L1587.79,448.678 L1588.13,448.525 L1588.09,447.435 L1588.32,446.815 L1588.96,446.287 L1589.29,445.359 L1590.03,444.668 L1590.19,444.154 L1592.37,443.193 L1593.2,442.567 L1594.2,440.793 L1594.28,439.903 L1594.96,438.101 L1595.53,437.545 L1595.36,436.761 L1596.55,435.898 L1596.85,434.032 L1598.25,433.296 L1598.67,432.225 L1610.78,432.754 L1615.18,433.468 L1619.3,435.159 L1620.7,435.018 L1622.45,435.305 L1622.97,434.906 L1622.72,434.045 L1626.23,434.483 L1626.17,434.802 L1626.46,434.896 L1626.27,435.818 L1625.17,437.29 L1624.79,438.604 L1626.41,439.424 L1626.63,439.082 L1627.1,439.055 L1629.53,439.542 L1631.09,440.177 L1631.51,438.984 L1632.87,438.738 L1633.21,439.083 L1632.54,442.609 L1633.03,443.073 L1633.97,442.443 L1635.04,442.813 L1637.47,442.885 L1638.78,442.374 L1638.95,443.315 L1639.58,443.827 L1639.99,444.741 L1641.02,445.243 L1641.05,446.356 L1642.24,446.749 L1641.38,449.532 L1642.12,450.809 L1643.29,451.838 L1646.89,452.436 L1647.48,452.864 L1647.12,454.147 L1648.25,454.034 L1649.75,454.726 L1649.52,456.614 L1649.73,457.019 L1650.68,457.15 L1650.71,457.532 L1651.7,457.004 L1653.67,457.662 L1653.87,458.245 L1654.94,458.802 L1656.31,460.121 L1657.01,460.984 L1657.23,462.026 L1662.42,465.771 L1662.89,467.186 L1664.3,469.347 L1663.91,470.174 L1663.46,473.386 L1663.65,474.132 L1664.67,474.642 L1665.98,477.031 L1667.21,477.385 L1668.4,478.675 L1669.47,478.953 L1670.48,478.614 L1672.56,478.441 L1674.58,477.465 L1673.91,475.178 L1677.15,473.793 L1678.66,472.941 L1679.49,471.901 L1680.41,471.746 L1682.2,470.331 L1682.96,470.194 L1687.22,467.839 L1688.11,468.004 L1688.82,467.684 L1691.76,467.575 L1693.06,468.11 L1693.79,467.915 L1694.65,468.236 L1696.66,467.79 L1697.81,466.879 L1699.37,464.696 L1700.28,464.47 L1700.97,463.725 L1702.59,463.459 L1704.65,463.855 L1705.98,463.398 L1706.41,462.934 L1708.05,462.577 L1708.29,462.193 L1710.72,460.744 L1715.33,459.023 L1718.43,456.454 L1719.32,456.146 L1719.45,456.352 L1720.26,456.288 L1720.41,455.858 L1719.8,454.372 L1719.67,451.859 L1719.16,450.106 L1719.38,449.083 L1720,448.486 L1720.04,447.718 L1721.45,447.441 L1724.15,446.208 L1724.57,445.548 L1728.82,443.195 L1729.91,441.813 L1730.56,441.939 L1732.55,441.328 L1734.42,441.307 L1736.01,441.558 L1738.19,441.314 L1741.52,441.741 L1744.84,440.046 L1745.56,439.972 L1746.46,439.382 L1747.12,439.265 L1747.77,438.488 L1748.01,437.491 L1748.83,436.557 L1749.6,436.376 L1749.98,435.822 L1751.34,435.544 L1752.04,434.446 L1752.78,433.911 L1753.34,432.422 L1753.94,432.158 L1758.68,430.824 L1761.54,429.414 L1762.79,429.545 L1763.63,430.161 L1764.66,430.119 L1765.9,430.977 L1767.91,431.486 L1769.35,430.663 L1771.17,429.129 L1772.41,428.572 L1774.54,428.191 L1775.38,430.009 L1775.74,433.239 L1777.2,435.409 L1777.74,437.414 L1780.52,439.515 L1781.45,439.665 L1782.98,442.786 L1783.7,445.91 L1785.74,446.973 L1787.74,447.524 L1788.63,448.225 L1790.71,447.854 L1793.75,449.177 L1795.19,449.982 L1796.84,451.486 L1797.32,452.338 L1798.17,452.768 L1798.98,453.881 L1799.36,453.517 L1801.02,453.778 L1803.65,455.466 L1804.07,455.508 L1804.51,455.996 L1806.32,456.338 L1808,457.211 L1808.7,458.133 L1810.08,458.473 L1810.63,458.88 L1811.48,458.827 L1811.62,459.257 L1811.84,459.073 L1812.96,459.387 L1813.05,460.343 L1814.73,460.641 L1817.12,463.469 L1818.03,463.929 L1818.94,465.641 L1820.17,465.324 L1824.22,463.182 L1825.3,462.967 L1826.16,463.374 L1826.85,463.295 L1830.44,462.24 L1831.29,463.665 L1832.2,464.127 L1832.24,464.372 L1834.14,464.304 L1838.37,462.948 L1840.1,462.104 L1841.36,461.018 L1845.37,460.094 L1847.31,459.109 L1848.37,459.835 L1851.01,460.015 L1851.64,460.746 L1852.74,460.773 L1854.65,462.464 L1856.33,462.909 L1857.22,462.73 L1860.94,464.2 L1861.9,464.021 L1861.94,463.512 L1864.38,463.74 L1865.05,463.57 L1868.35,464.566 L1869.2,464.252 L1870.32,464.262 L1871.07,463.77 L1874.37,463.056 L1875.92,465.284 L1876.38,466.432 L1876.89,466.808 L1877.39,468.863 L1877.94,470.029 L1878.94,471.16 L1879.7,471.567 L1879.98,472.168 L1880.73,472.633 L1880.69,473.542 L1881.2,475.017 L1881.01,476.163 L1881.19,477.215 L1882.3,479.348 L1883.36,480.165 L1884.6,482.233 L1886.2,483.07 L1889.41,485.983 L1890.17,488.716 L1890.26,490.509 L1891.01,491.227 L1891.53,492.388 L1891.9,492.659 L1891.87,493.335 L1892.34,494.352 L1893.58,499.286 L1895.99,500.141 L1897.04,499.917 L1903.38,500.36 L1904.24,501.471 L1905.32,501.857 L1906.32,502.797 L1911.62,503.496 L1912.35,504.016 L1915.58,504.815 L1916.51,505.367 L1917.19,504.888 L1919.15,504.432 L1920.07,503.536 L1921.06,503.127 L1921.62,501.625 L1922.56,500.533 L1925.91,499.906 L1929.57,498.527 L1930.47,498.853 L1932.56,498.828 L1933.42,498.562 L1936.72,498.753 L1938.5,497.281 L1939.12,493.701 L1940.72,488.15 L1941.96,486.619 L1943.11,484.171 L1944.08,483.19 L1945.27,480.925 L1945.38,480.089 L1946.15,478.415 L1947.51,476.711 L1949.89,475.224 L1952.85,471.768 L1954.54,470.913 L1956.38,470.706 L1957.11,468.738 L1956.99,467.049 L1957.69,464.396 L1958.69,464.916 L1959.61,464.722 L1960.55,465.29 L1963.48,466.097 L1965.43,467.918 L1966.73,468.447 L1968.14,468.377 L1969.26,468.656 L1972.02,467.691 L1972.87,467.071 L1974.97,466.866 L1976.47,466.428 L1978.18,466.935 L1980.51,467.189 L1982.99,466.196 L1983.79,465.626 L1985.51,466.728 L1989.22,467.624 L1990.67,468.328 L1993.4,468.045 L1995.63,468.683 L1997.43,468.823 L2000.67,468.063 L2003.89,466.762 L2004.5,466.791 L2006.15,465.597 L2006.69,465.669 L2007.36,465.223 L2009.47,464.645 L2011.89,463.149 L2012.79,463.188 L2014.92,464.248 L2016.78,464.553 L2019.54,463.544 L2021.38,463.281 L2022.17,463.452 L2023.33,462.151 L2024.2,459.623 L2026.42,457.2 L2026.92,455.723 L2026.85,453.708 L2027.76,453.198 L2028.64,452.142 L2030.65,451.085 L2032.37,449.268 L2032.57,448.397 L2033.11,448.439 L2035.54,449.898 L2037.42,449.969 L2039.3,450.699 L2040.36,450.686 L2041.32,451.103 L2042.84,449.595 L2043.24,448.783 L2043.07,448.103 L2044.31,446.686 L2044.73,445.642 L2045.99,445.136 L2046.57,443.94 L2047.97,442.488 L2050.57,437.548 L2056.19,434.819 L2056.8,433.871 L2059.84,431.175 L2061.92,430.671 L2066.93,433.815 L2068.11,432.992 L2069.92,431.167 L2071.7,425.571 L2072.43,424.476 L2074.18,423.213 L2087.24,423.259 L2089.12,422.865 L2089.83,419.849 L2091.69,417.152 L2092.15,415.716 L2094.05,414.922 L2094.96,413.868 L2095.06,413.358 L2097.2,412.681 L2099.09,411.211 L2100.39,409.701 L2100.5,409.242 L2102.31,407.781 L2104.72,407.137 L2105.36,406.354 L2107.67,405.304 L2107.7,404.476 L2109.01,403.415 L2112.12,402.013 L2114.83,401.475 L2115.28,400.81 L2115.58,399.543 L2115.57,397.129 L2116.12,395.023 L2117.16,394.261 L2117.54,393.647 L2119.18,393.819 L2120.41,393.044 L2122.73,392.281 L2129.07,390.652 L2130.72,389.404 L2133.88,387.66 L2134.93,386.637 L2136.91,386.016 L2138.92,386.005 L2140.36,386.272 L2141.21,386.856 L2143.36,386.79 L2146.1,388.04 L2146.63,388.071 L2148.91,389.384 L2152.11,392.731 L2152.78,393.104 L2153.68,393.145 L2155.04,392.219 L2156.57,390.132 L2156.42,389.153 L2157.16,387.617 L2157.18,386.925 L2157.76,385.553 L2158.78,384.313 L2158.9,383.637 L2160.95,381.967 L2161.62,380.506 L2162.1,380.212 L2162.03,379.67 L2162.78,378.506 L2162.81,377.891 L2163.57,377.453 L2163.76,376.609 L2164.93,375.798 L2166.74,376.507 L2169.58,378.969 L2170.42,380.55 L2171.74,381.102 L2173.17,381.261 L2175.05,380.789 L2178.89,380.859 L2180,379.381 L2180.09,378.478 L2181.37,375.237 L2182.51,373.349 L2183.49,372.247 L2184.91,369.113 L2186.36,368.184 L2187.53,367 L2188.54,366.51 L2189.24,366.507 L2191.2,364.486 L2192.74,364.367 L2193.34,364.889 L2194.19,365.069 L2195.57,366.203 L2195.75,366.999 L2196.56,367.73 L2198.88,369.417 L2199.85,369.564 L2200.74,369.439 L2201.88,368.738 L2203.6,368.123 L2204.29,367.577 L2204.96,366.548 L2206.16,365.903 L2207.32,365.532 L2208.57,365.58 L2209.22,365.873 L2209.63,365.204 L2210.5,365.158 L2214.23,365.579 L2214.61,365.868 L2215.45,365.929 L2216.07,366.429 L2217.67,366.736 L2219.55,366.65 L2221.87,367.298 L2223.98,367.108 L2227.73,368.51 L2230.52,368.545 L2235.01,369.46 L2240.89,369.323 L2241.58,369.103 L2242.54,368.105 L2247.1,365.788 L2249.1,364.498 L2250.42,364.596 L2251.46,364.328 L2253.03,363.297 L2253.34,360.79 L2254.31,358.528 L2254.57,356.183 L2255.72,354.857 L2257.63,350.909 L2258.53,349.951 L2261.26,348.321 L2263.5,346.375 L2264.87,346.198 L2266.85,345.494 L2267.58,344.795 L2268.22,344.579 L2269.31,344.404 L2270.43,344.871 L2273.84,345.258 L2275.08,344.846 L2276.62,343.671 L2278.99,345.423 L2282.75,345.08 L2284.79,346.907 L2286.75,349.577 L2288.46,348.577 L2290.35,347.986 L2291.31,348.301 L2292.4,347.979 L2294.7,348.076 L2296.84,347.497 L2298.39,347.622 L2302.15,346.973 L2303.08,347.041 L2304.51,347.886 L2305.06,347.943 L2305.74,348.773 L2307.14,348.916 L2307.33,348.742 L2307.04,347.818 L2307.95,345.533 L2308.09,344.465 L2308.83,343.046 L2309.07,339.991 L2310.92,334.842 L2311.88,333.732 L2313.05,331.427 L2314.91,329.699 L2317.36,328.842 L2319.69,328.384 L2320.75,326.317 L2322.22,326.116 L2322.59,325.826 L2325.4,322.97 L2325.59,321.629 L2325.25,319.035 L2326.13,318.709 L2327.43,317.51 L2329.22,317.242 L2331.6,315.904 L2334.5,315.188 L2338.3,315.256 L2340.81,316.562 L2342.86,316.445 L2344.88,317.921 L2348.01,318.746 L2351.17,321.084 L2352.89,321.732 L2354.11,322.703 L2357.17,323.997 L2360.77,321.13 L2362.89,320.626 L2363.91,320.051 L2365.8,318.256 L2366.24,318.292 L2367.93,317.564 L2370.69,315.856 L2372.71,315.975 L2374.66,316.706 L2376.7,313.582 L2377.42,311.048 L2378.94,310.829 L2381.04,312.05 L2382.92,312.513 L2386.08,311.888 L2389.21,311.627 L2392.1,312.964 L2395.43,313.234 L2395.82,313.465 L2397.91,311.694 L2399.11,311.035 L2402.29,309.934 L2403.29,309.773 L2404.26,309.94 L2406.71,309.228 L2411.78,306.196 L2415.14,302.709 L2416.86,301.588 L2417.54,300.14 L2418.48,299.843 L2422.37,299.871 L2426.78,298.318 L2427.73,295.902 L2429.69,294.061 L2430.21,292.778 L2431.93,293.255 L2433.25,293.092 L2435.6,292.094 L2436.6,291.075 L2439.47,292.776 L2441.32,292.97 L2441.96,293.579 L2443.14,293.936 L2446.24,295.636 L2447.05,296.68 L2448.87,297.077 L2449.29,297.505 L2450.9,297.017 L2454.26,299.466 L2455.92,300.035 L2457.55,299.727 L2461.43,301.235 L2462.87,301.175 L2464.28,300.733 L2466.99,301.443 L2469.29,301.206 L2471.51,301.625 L2472.85,303.393 L2473.65,305.084 L2475.3,305.147 L2481.08,306.335 L2482.8,307.483 L2485.17,308.534 L2486.03,310.076 L2486.58,313.299 L2489.28,318.898 L2489.96,319.565 L2490.93,319.97 L2491.2,320.599 L2491.74,320.733 L2492.78,321.843 L2493.63,323.44 L2495.23,324.853 L2497.55,329.066 L2498.94,329.715 L2499.83,329.79 L2501.51,331.056 L2501.14,332.483 L2500.9,332.982 L2499.7,334.04 L2499.2,335.879 L2496.93,337.878 L2495.2,338.011 L2492.02,339.2 L2491.32,340.042 L2488.05,341.846 L2487.03,343.399 L2485.2,344.552 L2484.35,345.48 L2481.74,345.792 L2480.03,346.36 L2477.74,347.84 L2476.07,348.033 L2472.86,349.293 L2473,350.123 L2472.69,352.206 L2472.92,353.344 L2471.86,354.559 L2471.59,355.304 L2471.96,355.745 L2472.06,358.642 L2471.86,359.299 L2472.16,360.292 L2472.46,360.272 L2473.71,362.918 L2472.82,364.423 L2473.35,366.816 L2473.11,367.366 L2473.35,368.14 L2472.37,370.335 L2472.7,371.019 L2472.99,372.939 L2472.35,373.188 L2470.41,375.102 L2469.31,377.147 L2468.03,378.005 L2468.22,380.475 L2468.06,380.882 L2468.55,382.291 L2467.22,384.031 L2467.04,385.228 L2467.48,386.142 L2466.01,389.69 L2464.19,391.082 L2464.61,393.431 L2464.24,394.869 L2463.21,396.407 L2462.34,396.405 L2462.37,396.893 L2461.76,397.682 L2461.76,398.837 L2461.42,399.954 L2459.06,402.118 L2459.01,404.423 L2458.43,404.738 L2457.67,404.641 L2455.88,404.26 L2455.23,403.826 L2453.82,403.992 L2452.42,404.555 L2450.75,404.595 L2449.41,404.289 L2448.08,404.669 L2445.84,404.656 L2442.09,405.95 L2441.59,405.932 L2440.36,406.831 L2436.06,407.354 L2433.21,407.385 L2431.68,407.985 L2430.28,407.054 L2429.81,406.995 L2429.05,407.426 L2427.2,410.007 L2426.34,410.484 L2425.34,410.686 L2422.07,410.111 L2419.43,411.289 L2416.52,413.533 L2415.17,415 L2413.38,415.864 L2413.5,416.439 L2413.07,417.141 L2411.78,418.266 L2411.01,418.47 L2409.95,417.699 L2407.33,416.639 L2405.27,414.165 L2403.54,412.79 L2401.55,411.861 L2400.5,411.932 L2399.09,411.072 L2397.94,409.857 L2394.62,409.861 L2393.16,409.383 L2392.69,408.846 L2390.92,408.033 L2390.1,409.058 L2388.22,410.252 L2387.08,411.363 L2385.57,411.94 L2384.37,412.841 L2383.57,414.776 L2382.45,416.443 L2382.32,417.376 L2381.49,418.627 L2378.58,420.22 L2375.41,421.487 L2372.73,423.391 L2371.59,423.465 L2371.4,424.372 L2370.32,425.939 L2367.97,426.667 L2366.61,428.297 L2365.62,428.538 L2365.55,429.007 L2365.12,429.422 L2365.12,430.175 L2363.94,430.773 L2363.77,431.385 L2363.93,431.977 L2363,432.37 L2363.17,433.062 L2363,434.115 L2362.19,436.653 L2361.1,437.456 L2360.03,439.134 L2359.94,441.295 L2360.62,441.901 L2361.01,443.18 L2361.66,443.955 L2362.55,444.356 L2362.78,444.829 L2363.33,445.149 L2363.89,446.289 L2364.51,446.916 L2364.43,447.733 L2364.92,448.157 L2365.36,449.938 L2366.21,451.306 L2366.34,453.203 L2365.96,455.375 L2365.43,456.264 L2366.31,457.336 L2368.75,459.384 L2370.42,462.503 L2371.06,463.065 L2370.18,463.872 L2370.16,464.378 L2369.43,464.179 L2369.33,464.432 L2368.59,464.601 L2370.33,471.925 L2369.84,472.064 L2369.01,473.18 L2368.06,475.225 L2368.13,475.717 L2367.56,475.989 L2367.34,476.468 L2368.07,477.303 L2372.77,477.952 L2374.32,480.287 L2374.05,480.903 L2375.88,480.836 L2377.54,481.27 L2377.93,480.754 L2379.54,480.946 L2379.7,481.616 L2379.47,482.191 L2380,482.597 L2380,484.759 L2379.81,484.75 L2379.74,485.874 L2379.98,486.245 L2379,486.842 L2378.3,493.102 L2377.36,494.249 L2378.37,495.261 L2378.65,497.187 L2377.94,497.426 L2377.79,497.907 L2376.87,498.84 L2377.41,501.696 L2376.97,503.183 L2377.21,503.535 L2377.14,505.047 L2377.75,506.188 L2377.92,507.828 L2378.31,508.486 L2377.93,510.308 L2378.1,511.236 L2377.65,512.211 L2376.95,512.752 L2374.96,513.122 L2372.84,513.104 L2371.62,513.636 L2372.57,516.745 L2374.1,518.065 L2375.78,518.815 L2377.06,520.482 L2377.61,522.712 L2378.04,523.165 L2379.09,525.863 L2379.76,526.845 L2381.2,526.763 L2381.67,527.462 L2382.1,527.578 L2383.05,527.239 L2383.49,527.725 L2385.31,528.476 L2385.66,528.389 L2386.41,529.267 L2387.85,530.02 L2388.86,531.051 L2389.52,531.275 L2391.22,532.619 L2394.06,532.443 L2395.57,533.005 L2396.66,533.606 L2399.04,536.306 L2403.07,536.689 L2403.72,537.211 L2404.25,538.405 L2405.43,539.656 L2405.74,540.59 L2406.65,541.493 L2407.44,544.794 L2408.73,548.052 L2409.55,549.029 L2411.77,550.738 L2412.09,552.324 L2412.5,553.035 L2412.95,553.283 L2412.98,554.593 L2413.75,556.379 L2415.74,558.464 L2416.12,560.175 L2415.96,561.026 L2415.06,562.359 L2415.32,563.064 L2415.36,564.763 L2414.81,566.448 L2415.11,567.194 L2413.88,568.548 L2413.32,568.44 L2412.72,569.138 L2411.16,569.974 L2409.65,571.803 L2407.3,573.534 L2406.94,575.096 L2404.19,579.291 L2403.09,583.308 L2402.27,584.871 L2401.24,585.98 L2400.18,587.692 L2399.21,590.87 L2398.07,592.962 L2397.28,595.24 L2395.7,596.327 L2395.09,597.138 L2393.39,597.923 L2393.07,597.905 L2392.65,597.216 L2390.52,597.67 L2390.05,598.095 L2389.1,598.357 L2388.17,599.864 L2386.65,600.977 L2405.49,609.114 L2406.7,612.275 L2407.65,612.874 L2408.95,612.868 L2412.9,610.323 L2413.76,609.087 L2414.87,608.866 L2415.2,608.381 L2417.37,607.3 L2417.87,607.557 L2418.54,608.904 L2419.19,609.347 L2419.88,609.338 L2421.61,610.181 L2423.08,610.377 L2424.33,612.078 L2425.62,613.168 L2427.47,611.986 L2427.71,611.601 L2430.22,611.009 L2432.13,611.712 L2432.81,612.275 L2434.35,612.479 L2435.39,613.388 L2437.11,613.904 L2438.34,613.675 L2439.07,613.97 L2439.9,613.898 L2441.8,614.275 L2442.06,615.688 L2441.82,616.923 L2442.76,618.072 L2442.69,620.068 L2445.71,618.933 L2446.12,618.519 L2446.71,619.141 L2447.5,620.86 L2446.44,623.174 L2446.61,624.119 L2447.69,624.593 L2447.57,625.348 L2448.83,625.493 L2449.43,626.087 L2449.26,626.183 L2450.1,626.667 L2451.98,629.755 L2452.75,631.655 L2452.64,632.536 L2452.24,632.762 L2450.7,634.877 L2449.59,637.149 L2451.89,639.553 L2453.07,640.116 L2453.52,640.63 L2453.46,641.612 L2454.13,641.589 L2454.58,642.216 L2454.3,642.95 L2454.95,643.151 L2454.53,644.262 L2453.5,644.155 L2452.46,644.669 L2452.53,645.842 L2452.87,646.166 L2452.74,646.775 L2454.21,646.882 L2454.53,647.348 L2456.92,647.563 L2457.06,648.124 L2456.66,648.852 L2457.45,650.895 L2458.68,652.792 L2460.49,655.495 L2461.86,656.454 L2463.15,659.589 L2464.46,661.012 L2466.09,663.413 L2466.99,664.257 L2468.08,664.708 L2470.43,666.959 L2471.34,668.923 L2471.5,669.952 L2472.96,669.789 L2474.72,670.388 L2475.16,670.04 L2476.24,667.125 L2476.18,666.418 L2477.36,663.384 L2477.39,662.582 L2477.95,662.255 L2478.14,661.002 L2478.98,660.491 L2479.44,659.813 L2480.06,659.807 L2480.84,660.627 L2482.68,661.617 L2483.98,661.753 L2485.34,661.544 L2486.24,661.935 L2488.27,660.292 L2491.59,658.374 L2492.1,657.581 L2493.08,654.232 L2494.6,653.754 L2495.91,652.006 L2496.54,650.214 L2495.95,648.42 L2495.94,646.741 L2495.62,646.34 L2495.79,644.457 L2497.74,643.338 L2498.96,643.523 L2499.99,643.266 L2502.77,640.748 L2504.34,641.07 L2504.78,642.124 L2505.54,642.705 L2505.69,643.29 L2506.56,644.288 L2508.03,644.357 L2510.37,643.882 L2513.73,645.543 L2514.48,645.412 L2516.02,644.604 L2517.6,645.292 L2518.21,645.318 L2518.41,645.636 L2520.65,645.404 L2520.91,645.844 L2523.23,647.07 L2523.97,647.181 L2524.54,647.997 L2524.96,648.045 L2526.31,647.424 L2526.78,646.818 L2527.8,647.714 L2528.87,647.837 L2529.82,646.932 L2531.08,647.027 L2531.61,646.672 L2535.49,649.82 L2538.1,650.527 L2540.56,651.945 L2542.44,657.363 L2543.71,658.069 L2545.03,659.398 L2545.33,660.421 L2545.91,661.161 L2545.26,663.828 L2544.53,664.823 L2544.47,665.502 L2543.89,665.96 L2543.23,667.206 L2542.68,668.98 L2542.57,670.33 L2542.94,670.962 L2543.14,672.25 L2543.64,672.93 L2544.75,673.497 L2545.36,673.474 L2546.35,674.491 L2546.9,674.509 L2547.86,675.565 L2548.22,675.571 L2548.17,677.21 L2549.11,678.374 L2549.99,678.926 L2551.21,679.167 L2552.4,680.174 L2553.97,680.805 L2555.97,680.292 L2559.09,682.722 L2560.64,684.887 L2562.06,685.219 L2562.03,686.432 L2561.28,686.539 L2560.81,687.186 L2560.16,686.938 L2559.88,688.651 L2560.2,689.146 L2559.92,689.406 L2559.89,689.976 L2560.92,691.524 L2561.11,693.537 L2560.91,694.713 L2560.4,695.232 L2560.65,695.511 L2560.61,696.244 L2559.61,697.175 L2559.45,699.259 L2559,699.435 L2559.72,700.296 L2559.59,700.682 L2560.69,703.257 L2561.1,703.433 L2561.76,704.458 L2561.09,707.813 L2562.06,709.605 L2562.28,711.912 L2563.16,711.854 L2564.77,712.333 L2565.43,712.818 L2565.49,713.37 L2566.34,714.572 L2567.82,715.492 L2567.82,716.116 L2566.88,717.05 L2566.46,718.198 L2566.32,720.017 L2566.71,721.094 L2566.55,722.357 L2566.92,722.839 L2571.75,723.336 L2572.68,723.687 L2575.48,723.574 L2577.66,724.494 L2579.27,725.539 L2579.74,726.717 L2578.87,729.604 L2577.38,732.192 L2578.24,734.557 L2578.08,737.485 L2578.78,739.167 L2578.71,740.582 L2575.28,743.13 L2574.58,743.942 L2573.62,745.097 L2571.92,748.039 L2570.3,749.648 L2570.06,750.61 L2568.86,751.043 L2568.12,751.706 L2566.58,752.504 L2566.04,753.966 L2563.52,755.746 L2562.81,757.535 L2560.96,759.242 L2560.39,759.611 L2558.91,759.908 L2558.45,760.289 L2557.76,761.708 L2557.67,763.425 L2557.21,764.92 L2556.4,765.972 L2555.74,766.344 L2553.74,768.407 L2552.9,769.57 L2552.98,770.337 L2551.49,772.27 L2552.84,773.707 L2554.01,775.647 L2554.24,776.887 L2554.97,777.53 L2555.55,778.57 L2556.42,779.265 L2557.09,781.113 L2557.88,782.18 L2558.37,782.446 L2558.87,783.55 L2558.61,785.897 L2558.87,786.472 L2558.93,788.032 L2560.13,790.614 L2561.21,792.001 L2561.16,792.27 L2561.68,792.538 L2562.55,793.57 L2561.87,795.133 L2560.5,796.046 L2560.16,796.563 L2559.02,797.123 L2558.46,796.851 L2557.1,797.054 L2556.79,801.091 L2557.69,803.492 L2557.14,806.846 L2555.96,807.854 L2553.9,808.357 L2553.82,808.582 L2552.55,809.091 L2551.55,808.824 L2550.74,809.142 L2549.81,809.868 L2549.61,811.36 L2548.3,812.081 L2548.86,812.378 L2548.92,812.934 L2548.92,815.228 L2548.55,815.808 L2548.59,816.179 L2549.79,819.158 L2550.41,820.096 L2551,820.4 L2551.4,821.205 L2551.12,821.974 L2551.56,823.204 L2551.53,823.995 L2552.49,825.234 L2552.21,826.008 L2552.65,826.565 L2552.41,826.749 L2552.49,827.417 L2553.78,828.072 L2556.64,827.631 L2559.29,826.646 L2560.32,827.093 L2562.84,826.703 L2563.39,826.338 L2563.98,826.55 L2564.15,826.962 L2566.74,825.681 L2569.02,825.112 L2571.46,825.591 L2572.49,826.273 L2572.72,826.758 L2573.06,826.778 L2573.42,827.215 L2573.57,827.996 L2573.28,828.13 L2576.62,827.75 L2579.09,827.177 L2579.83,825.343 L2582.64,824.154 L2586.07,825.395 L2586.9,826.049 L2588,825.945 L2589.84,826.635 L2591.56,826.861 L2594.16,828.071 L2595.34,827.895 L2596.74,828.237 L2597.46,828.942 L2599,829.424 L2601.1,829.344 L2602.02,829.847 L2603.07,829.88 L2604.55,831.472 L2605.41,831.557 L2606.73,832.19 L2607.27,832.916 L2608.51,833.827 L2610.44,834.326 L2611.12,834.138 L2613.41,834.393 L2614.44,834.223 L2615.98,834.712 L2615.97,835.091 L2616.47,835.464 L2619.82,836.855 L2620.47,837.636 L2620.57,838.146 L2621.23,838.457 L2621.44,839.046 L2622.2,839.42 L2623.96,839.277 L2624.25,838.839 L2625.76,838.794 L2627.61,838.153 L2629.51,838.286 L2630.28,838.602 L2632.64,837.867 L2633.76,839.886 L2634.56,840.534 L2636.23,841.316 L2639.77,841.449 L2639.96,842.194 L2640.83,843.037 L2641.16,842.994 L2641.75,844.283 L2641.51,844.584 L2641.94,845.919 L2641.64,846.526 L2641.38,848.582 L2640.49,851.038 L2641.86,854.045 L2642.24,858.791 L2643.58,863.291 L2644.68,865.019 L2644.75,866.129 L2645.27,866.794 L2646.93,870.59 L2647.85,871.793 L2647.72,872.645 L2648.35,874.497 L2648.21,874.965 L2648.96,876.627 L2649.88,877.609 L2650.26,878.8 L2650.91,882.661 L2650.57,884.431 L2651.51,889.143 L2651.04,890.327 L2652.9,892.839 L2653.12,894.214 L2652.76,897.555 L2653.66,901.252 L2654.71,900.921 L2654.8,901.317 L2656.15,901.345 L2657.54,909.628 L2658.76,913.503 L2658.66,914.254 L2659.03,914.466 L2659.83,915.771 L2660.92,915.721 L2661.46,914.999 L2663.9,925.18 L2663.69,932.523 L2664.6,933.632 L2665.44,935.73 L2666.34,936.403 L2671.32,942.835 L2672.65,942.838 L2674.49,942.399 L2676.15,944.163 L2675.13,944.974 L2675.22,945.196 L2675.97,945.219 L2678.06,946.374 L2679.59,947.972 L2682.92,949.477 L2683.58,950.564 L2683.69,951.237 L2684.44,951.806 L2686.23,952.265 L2687.34,952.93 L2688.72,953.074 L2689.4,953.473 L2691.29,955.445 L2691.06,957.025 L2692.68,958.77 L2693.43,959.079 L2693.97,958.85 L2695.47,960.164 L2697.05,960.518 L2698.9,961.598 L2699.84,961.005 L2701.33,960.846 L2702.11,960.405 L2702.11,961.505 L2702.75,963.322 L2702.54,964.257 L2703.24,966.025 L2703.86,966.732 L2705.01,967.168 L2706.28,968.206 L2706.6,969.634 L2710.04,970.9 L2710.78,971.446 L2712.17,971.645 L2712.9,972.262 L2717.3,971.5 L2718.63,971.729 L2719.44,971.505 L2721.31,971.929 L2722.87,972.958 L2723.29,973.579 L2723.57,976.262 L2723.39,976.325 L2723.53,977.093 L2723.08,978.644 L2723.21,979.389 L2724.04,980.352 L2726.41,980.441 L2729.09,981.887 L2730.67,982.362 L2733.64,984.653 L2736.82,988.532 L2738.71,989.208 L2740.7,991.02 L2741.19,991.087 L2742.99,989.036 L2743.72,988.82 L2744.88,988.004 L2747.32,989.043 L2750.5,988.647 L2753.32,989.035 L2754.91,991.79 L2756.85,991.621 L2760.71,992.711 L2761.72,992.755 L2764.41,994.289 L2767.3,994.156 L2767.45,994.376 L2767.83,994.336 L2768.31,993.647 L2769.39,993.439 L2769.97,992.997 L2771.84,993.027 L2771.97,992.836 L2772.55,993.331 L2774.42,994.058 L2775.29,993.854 L2777.6,993.918 L2778.27,994.231 L2780.31,995.955 L2780.85,997.358 L2780.86,998.793 L2782.08,1000.73 L2781.83,1002.9 L2782.31,1004.2 L2782.15,1004.37 L2782.52,1005.81 L2782.04,1005.84 L2780.84,1006.73 L2775.9,1009.16 L2771.47,1010.94 L2765.35,1013.13 L2764,1013.85 L2761.87,1014.08 L2759.84,1015.66 L2755.78,1016.04 L2753.18,1017.6 L2751.87,1018.08 L2749.39,1018.46 L2747.19,1020.17 L2741.89,1021.97 L2737.55,1023.9 L2736.26,1024.34 L2733.04,1024.69 L2730.66,1025.67 L2729.42,1027.22 L2724.25,1035.24 L2707.94,1056.42 L2700.98,1063.53 L2696.67,1069.32 L2689.95,1069.82 L2679.64,1071.88 L2672.54,1068.79 L2670.1,1068.25 L2668.41,1068.46 L2666.25,1069.63 L2664.26,1076.95 L2664.09,1078.23 L2664.55,1080.3 L2665.61,1081.8 L2668.42,1083.71 L2668.99,1085.15 L2669.46,1085.71 L2669.86,1088.29 L2670.63,1089.46 L2675.68,1092.43 L2677.25,1094.36 L2678.17,1096.17 L2677.33,1100.1 L2676.78,1101.32 L2675.7,1102.13 L2673.26,1103.06 L2672.51,1104.15 L2671.01,1104.58 L2664.33,1104.85 L2662.29,1105.46 L2661.21,1106.46 L2659.37,1107.58 L2655.19,1109.18 L2650.63,1109.82 L2642.85,1109.88 L2641.74,1109.24 L2640.5,1107.91 L2638.91,1106.95 L2634.94,1105.53 L2633.94,1104.96 L2633.2,1103.69 L2630.76,1101.86 L2628.52,1102.12 L2627.09,1101.91 L2620.73,1091.85 L2621.51,1090.41 L2620.92,1089.14 L2618.01,1086.95 L2617.53,1087.04 L2618.68,1089.34 L2617.17,1091.97 L2615.85,1093.57 L2614.02,1094.39 L2612.71,1094.59 L2609.71,1093.26 L2607.51,1092.7 L2605.52,1092.72 L2603.94,1093.24 L2601.31,1092.76 L2598.81,1092.77 L2596.11,1093.2 L2594.1,1092.92 L2590.56,1091.93 L2589.73,1095.55 L2589.27,1099.12 L2590.95,1102.01 L2587.91,1103.3 L2585.86,1104.58 L2582.09,1107.78 L2578.19,1110.44 L2575.99,1110.56 L2573.29,1111.09 L2568.4,1111.02 L2565.39,1112.22 L2563.24,1112.36 L2559.34,1111.48 L2554.79,1112.7 L2552.53,1112.58 L2548.85,1110.31 L2546.95,1109.78 L2545.44,1108.79 L2544.68,1107.53 L2543.42,1107 L2540.16,1107.4 L2537.86,1108.05 L2536.26,1107.4 L2532.46,1098.2 L2532.32,1098.02 L2530.92,1098.49 L2528.93,1099.48 L2529.37,1095.92 L2528.36,1095.37 L2526.54,1095.17 L2525.77,1093.43 L2519.24,1096.83 L2515.83,1098.92 L2509.65,1103.84 L2506.14,1102.11 L2502.81,1115.53 L2491.37,1119.45 L2485.81,1121.61 L2478.22,1124.06 L2470.13,1127.16 L2467.95,1128.22 L2466.14,1130.13 L2465.22,1134.58 L2464.46,1135.68 L2460.56,1139.85 L2457.73,1144.91 L2454.21,1147.4 L2452.82,1147.59 L2451.77,1148.03 L2448.11,1151.98 L2447.28,1152.52 L2445.73,1152.97 L2444.04,1153.05 L2443.38,1149.65 L2444.86,1143.63 L2445.51,1139.05 L2446.86,1135.02 L2448.89,1130.82 L2449.2,1129.34 L2448.25,1126.32 L2445.66,1123.13 L2445.19,1120.36 L2445.25,1116.76 L2446.43,1110.76 L2447.02,1108.46 L2448.11,1105.99 L2447.76,1106 L2447.83,1105.8 L2444.33,1106.08 L2435.63,1108.07 L2433.61,1107.94 L2432.15,1107.42 L2429.41,1102.55 L2425.53,1094.62 L2420.12,1085.58 L2419.26,1084.85 L2417.69,1085.09 L2414.67,1084.8 L2412.7,1084.08 L2411.28,1083.11 L2409.55,1081.15 L2408.21,1080.25 L2407.13,1080.15 L2401.75,1082.15 L2398.14,1084.2 L2395.69,1084.78 L2393.36,1085.17 L2391.35,1084.51 L2388.22,1084.9 L2386.86,1083.2 L2385.87,1081.27 L2382.64,1078.86 L2382.3,1078.31 L2381.71,1077.09 L2381.52,1072.22 L2381.1,1069.97 L2380.26,1068.96 L2378.92,1068.13 L2376.82,1067.59 L2370.28,1067.55 L2366.84,1066.48 L2354.34,1056.93 L2349.93,1054.05 L2347.78,1052.26 L2346.59,1050.82 L2346.19,1049.93 L2345.34,1046.18 L2344.65,1044.88 L2343.58,1043.29 L2341.9,1042 L2339.91,1041.41 L2334.66,1037.91 L2332.59,1037.2 L2329.27,1036.61 L2327.49,1035.9 L2326.14,1034.57 L2324.19,1031.75 L2321.79,1027.24 L2313.49,1027.24 L2310.93,1024.38 L2309.89,1021.62 L2308.43,1018.83 L2307.52,1017.64 L2306.95,1016.26 L2305.72,1015.23 L2297.14,1013.99 L2297.9,1029.06 L2298.66,1033.06 L2300.45,1038.35 L2300.56,1040.58 L2300.15,1042.61 L2297.68,1047.5 L2295.01,1051.82 L2295.1,1052.7 L2304.15,1070.17 L2300.82,1071.9 L2298.91,1073.35 L2298.29,1074.54 L2296.24,1084.21 L2293.03,1103.65 L2292.17,1106.26 L2290.58,1108.06 L2288.68,1108.87 L2284.57,1109.69 L2279.07,1112.61 L2277.57,1118.59 L2277.97,1122.03 L2277.67,1123.64 L2277.8,1125.11 L2277.46,1125.99 L2275.84,1127.84 L2274.15,1128.8 L2271.89,1129.67 L2270.11,1129.96 L2269,1130.54 L2268.79,1131.5 L2269.04,1133.12 L2271.02,1136.91 L2273.87,1140.75 L2274.71,1142.61 L2275.05,1144.57 L2274.9,1151.08 L2275.18,1152.21 L2275.23,1154.43 L2274.75,1157.24 L2271.58,1170.01 L2269.44,1173.43 L2268.12,1174.84 L2264.71,1177.36 L2259.76,1180.29 L2257.89,1182.11 L2256.75,1183.7 L2255.62,1185.79 L2255.21,1187.59 L2255.31,1191.47 L2254.57,1192.48 L2253.26,1193.63 L2250.24,1198.71 L2249.33,1201.71 L2249.24,1207.4 L2248.47,1209.76 L2247.18,1212.04 L2245.76,1213.49 L2244.41,1214.07 L2241.83,1213.21 L2237.63,1220.26 L2235.18,1224.99 L2233.8,1227.23 L2232.56,1228.54 L2226.42,1239.53 L2224.44,1242.38 L2218.32,1254.1 L2214.38,1259.39 L2212.87,1257.92 L2211.85,1256.2 L2209.91,1251.18 L2205.01,1242.57 L2203.14,1239.61 L2201.52,1237.96 L2181.51,1239.31 L2176.15,1239.03 L2173.81,1239.88 L2164.86,1244.18 L2159.41,1246.15 L2156.46,1248.41 L2152.29,1263.8 L2151.59,1265.33 L2148.34,1265.95 L2145.71,1267.29 L2142.43,1266.36 L2137.92,1267.93 L2134.2,1266.63 L2132.55,1266.82 L2130.44,1266.19 L2124.05,1262.31 L2118.71,1260.02 L2113.3,1258.95 L2111.85,1259.21 L2110.53,1260.17 L2108.57,1261.01 L2107.2,1261.26 L2104.5,1263.76 L2100.34,1264.68 L2098.83,1265.3 L2097.74,1266.55 L2096.28,1267.36 L2094.32,1270.27 L2092.81,1271.06 L2090.91,1272.84 L2088.32,1273.56 L2085.25,1276.43 L2073.92,1277.33 L2068.94,1278.01 L2065.94,1280.96 L2063.72,1281.54 L2060.84,1281.44 L2055.42,1282.31 L2052.17,1283.21 L2042.31,1284.62 L2040.12,1285.26 L2036.18,1287.16 L2024.65,1293.76 L2017.25,1298.42 L2012.63,1300.74 L2012.13,1302.01 L2011.19,1303.4 L2008.76,1305.37 L2006.65,1313.06 L1997.59,1315.41 L1995.74,1323.16 L1996.77,1328.24 L1996.73,1329.95 L1996.41,1331.13 L1995.67,1331.54 L1994.66,1333.69 L1993.82,1336.84 L1993.86,1339.2 L1992.75,1340.25 L1991.59,1342.01 L1993.94,1349.77 L1995.32,1351.65 L1994.87,1353.58 L1995.17,1353.94 L1998.5,1355.77 L1999.79,1356.21 L2001.08,1356.37 L2003.26,1355.89 L2004.23,1356.01 L2008.09,1358.09 L2009.13,1358.03 L2013.04,1356.92 L2014.68,1356.88 L2016.65,1357.59 L2021.11,1356.36 L2022.62,1356.87 L2024.07,1356.75 L2025.13,1355.76 L2028.8,1355.59 L2031.06,1357.43 L2034.43,1358.94 L2038.3,1359.01 L2039.7,1358.65 L2040.33,1358.98 L2043.19,1358.48 L2043.91,1358 L2045.28,1358.36 L2046.26,1359.13 L2047.42,1359.48 L2049.06,1360.59 L2049.75,1360.43 L2050.13,1361.09 L2051.62,1361.55 L2053.11,1361.32 L2054.84,1361.48 L2056.12,1362.3 L2056.5,1362.07 L2057.42,1362.19 L2059.1,1361.84 L2061.57,1361.89 L2062.25,1362.18 L2063.97,1362.02 L2067.28,1362.66 L2070.7,1364.52 L2072.37,1366.31 L2072.47,1367.09 L2074.6,1370.03 L2075.02,1371.06 L2076.24,1372.19 L2077.24,1373.92 L2078.55,1374.74 L2080.64,1375.55 L2082.17,1376.63 L2082.79,1379.38 L2082.13,1383.68 L2082.39,1385.56 L2083.33,1387.01 L2083.74,1388.63 L2083.22,1390.25 L2081.82,1392.23 L2081.89,1393.59 L2081.43,1395.98 L2081.9,1399.31 L2083.7,1406.12 L2084.55,1410.51 L2084.87,1414.47 L2084.49,1415.75 L2077.34,1419.22 L2074.68,1421.48 L2072.11,1424.67 L2065.78,1429.59 L2063.27,1430.85 L2054.16,1431.02 L2050.07,1429.3 L2047.72,1429.17 L2044.24,1429.39 L2039.14,1428.97 L2038.88,1429.18 L2036.36,1438.02 L2034.42,1446.32 L2034.89,1447.96 L2030.89,1450.62 L2032.56,1451.57 L2032.21,1452.07 L2027.3,1455.36 L2024.57,1461.76 L2024.94,1462.92 L2027.54,1466.35 L2029.02,1467.92 L2030.79,1469.27 L2031.05,1470.9 L2029.02,1473.95 L2027.19,1477.67 L2026.92,1477.83 L2026.14,1480.82 L2025.49,1482.18 L2022.84,1485.66 L2021.61,1486.71 L2022.08,1488.84 L2022.11,1490.67 L2020.47,1496.76 L2020.09,1496.96 L2020.47,1497.75 L2020.09,1500.43 L2019.55,1501.42 L2019.15,1503.36 L2019.11,1505.63 L2017.24,1509.95 L2017.29,1510.87 L2021.38,1516.67 L2020.94,1517.41 L2019.95,1518.06 L2019.45,1520.09 L2017.51,1522.61 L2016.97,1522.97 L2018.96,1527.14 L2018.22,1528.16 L2018.46,1530.54 L2018.67,1530.81 L2018.58,1531.96 L2019.64,1534.06 L2019.98,1535.63 L2019.79,1539.74 L2021.12,1542.69 L2020.94,1545.43 L2022.07,1547.05 L2021.44,1546.85 L2020.72,1546.07 L2018.65,1546.07 L2015.88,1544.74 L2014.2,1542.01 L2012.26,1540.64 L2010.66,1538.6 L2009.12,1537.32 L2008.63,1536.06 L2007.86,1535.25 L2006.76,1533.13 L2006.4,1531.99 L2005.22,1530.3 L2005.12,1528.67 L2003.63,1528.03 L2003.18,1528.1 L2003.01,1528.42 L2001.94,1528.5 L2000.34,1529.1 L1999.52,1529.72 L1998.16,1531.56 L1996.96,1534.66 L1996.72,1536.41 L1998.27,1540.82 L1997.51,1542.17 L1996.08,1543.33 L1995.24,1543.59 L1994.11,1540.79 L1993.6,1540.12 L1990.44,1545.25 L1985.21,1547.35 L1984.03,1548.09 L1982.8,1547.97 L1981.32,1548.2 L1978.92,1548.01 L1977.52,1546.71 L1976.59,1545.43 L1973.44,1543.36 L1970.01,1543.22 L1969.58,1543.37 L1968.95,1544.12 L1968.55,1545.2 L1968.89,1545.75 L1968.84,1546.18 L1966.25,1550.26 L1963.12,1549.63 L1960,1548.6 L1955.09,1552.27 L1948.92,1559.65 L1952.3,1564.96 L1956.36,1574.31 L1959.42,1575.53 L1963.3,1575.5 L1965.21,1575.86 L1967.94,1577.2 L1969.05,1578.84 L1971.42,1580.31 L1975.6,1582.59 L1979.77,1583.93 L1980.44,1584.83 L1982.05,1586.05 L1981.5,1588.63 L1981.79,1594.07 L1981.55,1594.33 L1981.89,1595.61 L1982.69,1597.1 L1982.62,1602.6 L1983.67,1603.16 L1986.71,1603.75 L1991.54,1605.19 L1993.65,1604.45 L1995.09,1605.45 L1996.8,1607.69 L1999.34,1609.82 L2006.41,1611.36 L2009.33,1612.74 L2014.85,1614.19 L2017.02,1616.46 L2016.41,1618.5 L2017.07,1620.72 L2017.61,1621.44 L2016.98,1623.84 L2017.01,1624.23 L2017.69,1625.17 L2017.87,1626.31 L2017.27,1628.78 L2016.5,1630.22 L2017.08,1631.64 L2019.46,1634.4 L2019.32,1634.72 L2018.36,1635.04 L2017.54,1636.23 L2016.45,1636.65 L2016.8,1637.41 L2018.93,1639.14 L2019.61,1640.47 L2020.02,1642.09 L2022.86,1645.56 L2025.59,1646.55 L2027.37,1646.79 L2028.24,1647.85 L2028.39,1648.73 L2027.27,1650.85 L2027.28,1651.46 L2026.85,1652.34 L2024.73,1653.95 L2023.29,1654.68 L2022.5,1655.63 L2022.7,1656.62 L2022.29,1657.95 L2022.54,1659.39 L2022.38,1659.9 L2020.04,1660.37 L2019.01,1661.1 L2017.87,1663.6 L2018.29,1665.58 L2017.58,1666.22 L2015.33,1669.36 L2014.93,1669.52 L2015.55,1673.36 L2014.52,1675.06 L2014.58,1678.31 L2014.01,1681.16 L2011.78,1684.17 L2010.4,1685.37 L2011.09,1687.02 L2015.73,1695.3 L2016.76,1696.55 L2018.3,1697.59 L2018.98,1698.74 L2020.57,1703.21 L2024.33,1710.44 L2025.29,1711.05 L2027,1711.12 L2027.68,1710.9 L2030.79,1708.25 L2032.26,1708.02 L2035.73,1708.78 L2041.77,1709.09 L2042.88,1709.59 L2046.73,1709.97 L2047.79,1709.78 L2049.61,1708.52 L2053.81,1708.77 L2059.79,1703.31 L2061.3,1702.47 L2063.27,1701.96 L2066.06,1700.33 L2069.22,1699.79 L2070.65,1699 L2071.45,1698.17 L2074.27,1696.84 L2077.63,1695.88 L2080.23,1695.91 L2081.82,1698.96 L2083.59,1703.76 L2083.89,1704.8 L2083.98,1706.73 L2082.78,1720.61 L2082.6,1721.19 L2081.18,1722.54 L2080.36,1723.93 L2079.83,1725.63 L2079.93,1726.92 L2081.49,1731.28 L2083.82,1734.44 L2085.34,1737.03 L2088.27,1740.81 L2091.03,1743.51 L2091.55,1743.71 L2093.06,1742.62 L2094.74,1742.09 L2098.14,1738.97 L2098.33,1738.63 L2098.15,1737.91 L2099.73,1735.8 L2103.02,1734.73 L2104.44,1735.43 L2105.09,1736.46 L2105.78,1736.84 L2107.9,1737.33 L2111.26,1739.23 L2116.6,1744.44 L2119.8,1746.25 L2123.05,1748.91 L2124.83,1748.93 L2132.25,1747.32 L2127.72,1756.46 L2125.93,1759.1 L2125.42,1759.73 L2121.35,1762.36 L2119.31,1764.21 L2118.34,1769.63 L2114.81,1775.52 L2109.1,1789.11 L2115.52,1794.2 L2116.36,1795.11 L2116.8,1794.94 L2117.15,1793.87 L2118.15,1794.56 L2119.78,1794.79 L2120.76,1795.28 L2121.39,1796.01 L2121.8,1797.37 L2122.42,1798.31 L2126.49,1801.55 L2127.53,1803.54 L2128.16,1804.1 L2129.01,1806.26 L2129.04,1807.51 L2130.67,1815.45 L2130.55,1815.85 L2131.68,1816.91 L2132.77,1818.32 L2133.52,1819.87 L2135.31,1821.79 L2136.23,1822.64 L2137.7,1823.39 L2138.01,1824.02 L2138.01,1824.87 L2137.36,1826.96 L2138.24,1827.12 L2139.78,1828.02 L2144.4,1832.96 L2144.64,1833.05 L2145.76,1832.09 L2146.43,1832.1 L2148.78,1833.61 L2149.47,1833.27 L2150.74,1831.99 L2152.55,1832.33 L2153.86,1831.81 L2157.06,1831.45 L2158.64,1832.05 L2161.42,1831.84 L2162.46,1832.43 L2163.53,1832.64 L2165.11,1832.5 L2167.41,1833.67 L2167.78,1833.6 L2168.39,1832.87 L2169.03,1832.75 L2170.31,1831.53 L2171.54,1831.24 L2171.94,1831.52 L2171.75,1832.44 L2171.24,1833.26 L2171.56,1836.29 L2170.64,1838.95 L2171.17,1840.78 L2170.89,1843.82 L2171.33,1844.66 L2170.76,1845.86 L2171.22,1846.63 L2172.04,1847.14 L2171.55,1851.73 L2170.46,1853.2 L2170.13,1854.16 L2168.57,1855.21 L2167.19,1857.78 L2165.14,1858.1 L2162.08,1859.26 L2160.29,1859.62 L2157.02,1861.59 L2156.38,1862.4 L2159.54,1877.67 L2157.99,1882.1 L2155.05,1881.35 L2150.77,1879.29 L2141.91,1875.65 L2139.97,1873.62 L2131.68,1872.36 L2131.34,1877.43 L2132.79,1880.89 L2131.34,1888.16 L2124.98,1894.64 L2123.67,1895.48 L2119.48,1907.49 L2121.26,1913.57 L2123.56,1917.63 L2115.82,1921.39 L2115.01,1922.65 L2114.54,1924.92 L2113.81,1925.88 L2113.53,1927 L2111.85,1929.97 L2111.06,1930.65 L2109.48,1931.14 L2108.59,1932.81 L2106.71,1933.07 L2105.68,1934.11 L2104.27,1934.2 L2103.16,1935.87 L2100.39,1937.44 L2099.98,1938.53 L2099.24,1939.37 L2101.21,1941.06 L2104.38,1943.01 L2103.39,1945.58 L2099.77,1949.81 L2096.79,1951.03 L2094.72,1952.17 L2095.62,1956.7 L2089.96,1965.83 L2080.35,1971.66 L2079.02,1972.92 L2072.15,1971.44 L2069.1,1971.78 L2068.39,1972.58 L2066.87,1975.36 L2062.28,1973.99 L2058.76,1975.82 L2057.01,1975.39 L2051.87,1977.53 L2049.32,1977.76 L2045.93,1979.86 L2044.33,1980.35 L2038.36,1979.76 L2034.19,1980.81 L2028.54,1982.86 L2024.72,1982.74 L2020.17,1983.3 L2017.01,1985.04 L2016.53,1985.75 L2016.23,1987.96 L2014.45,1988.66 L2010.18,1989.43 L2008.09,1989.29 L2006,1988.5 L2002.6,1988.37 L2001.74,1988.67 L2000.35,1989.66 L1998.78,1991.4 L1997.21,1994.44 L1996.68,1996.99 L1995.48,1998.11 L1991.08,1998.51 L1987.08,1997.32 L1985.75,1995.43 L1984.18,1995.2 L1980.73,1995.83 L1979.23,1995.72 L1977.01,1996.01 L1974.63,1995.83 L1973.29,1996.47 L1972.16,1996.65 L1966.56,1996.5 L1963.68,1997.1 L1961.49,1997.16 L1960.52,1997.74 L1959.36,1997.16 L1955.7,1997.37 L1952.21,1996.55 L1950.24,1994.94 L1949.72,1994.5 L1949,1992.73 L1947.55,1990.54 L1947.52,1992.03 L1945.53,1993.5 L1945.34,1994.23 L1945.91,1994.97 L1945.89,1995.98 L1944.8,1996.99 L1943.37,1997.8 L1942.88,1998.89 L1938.32,2004.24 L1936.34,2005.61 L1931.92,2007.54 L1930.85,2008.47 L1930.33,2009.5 L1929.34,2009.37 L1927.69,2008.61 L1925.9,2006.05 L1924.43,2002.62 L1923.99,2000.67 L1922.45,1997.66 L1921.8,1993.1 L1921.33,1992.83 L1919.99,1993.82 L1917.77,1994.63 L1912.68,1994.24 L1910.02,1993.19 L1908.71,1993.18 L1907.53,1993.33 L1904.08,1994.84 L1901.51,1994.85 L1900.47,1995.66 L1899.05,1996.09 L1898.06,1996.08 L1896.24,1995.29 L1895.48,1995.65 L1885.86,1997.04 L1882.15,1996.29 L1880.85,1996.81 L1874.38,2003.49 L1868.85,2011.65 L1864.88,2018.23 L1862.73,2017.34 L1861.24,2015.9 L1859.7,2015.47 L1856.94,2013.41 L1856.2,2012.39 L1854.98,2011.45 L1852.54,2011.01 L1851.14,2010.48 L1846.76,2010.89 L1845.65,2011.86 L1843.36,2012.97 L1840.88,2016.55 L1839.98,2018.65 L1839.65,2021.41 L1840.06,2022.71 L1839.46,2024.31 L1839.6,2025.35 L1840.22,2026.53 L1840.81,2029.84 L1840.65,2030.92 L1841.24,2031.89 L1841.45,2033.77 L1842.95,2035.24 L1843.36,2036.23 L1842.15,2037.17 L1840.55,2037.79 L1839.97,2038.3 L1840.29,2039.46 L1839.92,2040.51 L1840.17,2041.13 L1840.88,2041.59 L1841.24,2042.5 L1842.53,2043.38 L1842.16,2044.99 L1842.43,2046.26 L1842.02,2047.5 L1842.7,2048.08 L1842.86,2049.18 L1843.51,2050.63 L1843.48,2052.04 L1846,2054.96 L1845.92,2056.75 L1844.77,2058.27 L1844.79,2060.06 L1846.21,2062.98 L1847.56,2064.03 L1849.05,2065.7 L1851.22,2066.01 L1852.38,2066.81 L1854.42,2066.55 L1856.75,2068.57 L1858.91,2074.16 L1860.3,2075.85 L1860.75,2077.4 L1861.35,2078.28 L1861.95,2078.63 L1864.25,2078.32 L1865.4,2078.63 L1865.93,2079.6 L1865.95,2080.96 L1866.31,2082.4 L1865.7,2084.16 L1866.16,2085.28 L1866.08,2085.71 L1865.17,2086.86 L1866.05,2089.51 L1865.66,2091.75 L1866,2092.19 L1866.99,2092.49 L1868.43,2094.23 L1867.99,2094.96 L1865.28,2096.11 L1861.83,2096.74 L1859.52,2096.15 L1856.38,2096.24 L1853.73,2096.47 L1851.07,2097.14 L1850.56,2096.98 L1850.26,2096.48 L1848.96,2096.27 L1847.93,2097.04 L1847.37,2097.17 L1842.47,2097.38 L1841.05,2097.21 L1839.76,2095.92 L1838.05,2095.32 L1836.79,2094.33 L1835.71,2094.13 L1833.2,2098.57 L1828.44,2102.68 L1825.39,2104.27 L1823.62,2106.24 L1821.57,2107.76 L1821.31,2108.23 L1821.49,2109.29 L1820.68,2111.01 L1821.23,2112.4 L1821.99,2112.95 L1822.73,2114.18 L1823.56,2114.48 L1824.22,2115.15 L1825.46,2117.93 L1826.31,2118.3 L1827.43,2119.35 L1827.94,2121.3 L1828.84,2122.39 L1829.33,2122.74 L1831.22,2123.14 L1832.52,2123.97 L1834.57,2123.83 L1835.6,2124.31 L1837.26,2124.62 L1839.3,2124.22 L1839.31,2127.17 L1837.79,2129.09 L1835.74,2130.59 L1834.09,2132.48 L1831.76,2134.04 L1829.34,2136.33 L1828.11,2138.97 L1825,2141.93 L1824.27,2142.49 L1821.31,2143.6 L1821.99,2144.59 L1823.75,2146.1 L1826.82,2148.14 L1829.2,2149.18 L1829.02,2150.14 L1827.19,2152 L1826.43,2154.54 L1830.89,2155.48 L1832.03,2161.09 L1834.13,2164.25 L1833.4,2166.29 L1832.79,2169.46 L1833.16,2169.51 L1834.31,2168.12 L1835.36,2167.82 L1843.37,2181.03 L1844.84,2182.34 L1845.9,2185.4 L1846.48,2188.2 L1848.95,2191.8 L1841.82,2200.39 L1841.65,2205.45 L1843.2,2207 L1843.61,2210.49 L1839.83,2213.82 L1841.34,2215.76 L1842.45,2219.08 L1843.69,2221.3 L1844.16,2223.28 L1843.97,2225.09 L1840.25,2225.7 L1836.53,2227.78 L1830.47,2232.73 L1829.07,2233.5 L1827.12,2233.47 L1822.82,2234.37 L1821.15,2233.92 L1820.19,2233.24 L1818.72,2232.69 L1816.69,2232.51 L1812.78,2233.1 L1809.9,2232.76 L1808.55,2232.91 L1804.3,2231.65 L1803.31,2232.25 L1800.73,2232.85 L1799.03,2233.69 L1796.78,2234.33 L1794.57,2234.55 L1792.22,2235.38 L1788.31,2237.38 L1786.45,2238.05 L1784.13,2238.6 L1775.02,2239.81 L1778.65,2224.93 L1769.94,2224.44 L1767.1,2221.21 L1764.41,2221.16 L1761.98,2224.74 L1761.22,2225.39 L1759.11,2229.13 L1756.3,2229.99 L1755.32,2228.11 L1753.07,2224.86 L1745.73,2222.94 L1745.03,2222.31 L1740.78,2220.97 L1739.78,2220.34 L1735.48,2221.61 L1732.52,2224.76 L1727.6,2225.57 L1720.96,2185.38 L1718.4,2171.4 L1715.32,2161.58 L1713.91,2161.59 L1712.92,2162.75 L1711.93,2162.93 L1709.32,2160.73 L1707.87,2159.91 L1706.08,2162.68 L1703.2,2162.91 L1701.82,2162.08 L1700.83,2160.21 L1698.55,2160.2 L1697.43,2159.88 L1696.08,2158.32 L1692.96,2156.83 L1688.09,2152.4 L1687.45,2152.1 L1686.72,2152.09 L1686.07,2152.48 L1685.22,2153.5 L1682.69,2152.83 L1681.15,2151.81 L1678.33,2152.7 L1670.49,2152.45 L1669.92,2150.01 L1668.75,2150.72 L1667.24,2151.07 L1664.91,2151 L1663.11,2152.55 L1661.01,2152.32 L1659.63,2153.1 L1655.52,2152.64 L1654.37,2152.68 L1652.54,2153.33 L1650.66,2152.84 L1649.43,2153.54 L1646.67,2154.48 L1645.56,2156.58 L1644.2,2157.04 L1642.14,2155.61 L1638.91,2155.18 L1637.26,2154.53 L1637.39,2152.77 L1636.5,2152.24 L1634.47,2153.99 L1633.48,2154.43 L1628.08,2154 L1626.66,2154.29 L1624.1,2154.07 L1621.89,2155.08 L1616.93,2156.24 L1614.21,2157.47 L1613.39,2158.12 L1612.93,2159.94 L1610.44,2158.79 L1610.84,2160.26 L1609.57,2162.17 L1607.76,2165.79 L1606.32,2166.87 L1605.85,2169.15 L1604.76,2170.41 L1604.06,2172.01 L1603.81,2174.22 L1603.18,2175.82 L1585.95,2176.87 L1585.29,2179.36 L1584.28,2181.08 L1579.91,2183.7 L1579.18,2184.45 L1578.82,2187.52 L1575.56,2189.57 L1575.32,2190.42 L1574.55,2190.38 L1574.27,2190.99 L1573.46,2191.16 L1572.85,2192.18 L1572.21,2192.24 L1571.53,2195.89 L1570.9,2196.41 L1570.59,2197.52 L1569.78,2198.62 L1569.1,2199.34 L1567.35,2200.33 L1564.95,2199.56 L1564.39,2201.41 L1563.42,2202.62 L1563.65,2203.83 L1563.42,2204.01 L1562.24,2203.79 L1560.75,2205.29 L1557.69,2204.28 L1555.93,2204.02 L1555,2203.45 L1552.28,2202.93 L1548.36,2204.08 L1548,2204.53 L1547.28,2204.6 L1546.21,2205.34 L1542.28,2204.46 L1540.28,2205.68 L1537.32,2205.66 L1532.38,2206.25 L1531.88,2206.51 L1528.85,2204.06 L1526.28,2206.17 L1524.81,2205.66 L1523.86,2205.53 L1523.08,2205.72 L1521.31,2205.31 L1519.6,2203.49 L1516.27,2203 L1514.08,2204.16 L1513.19,2203.61 L1512.58,2204.02 L1511.77,2203.8 L1510.19,2205.52 L1508.36,2205.57 L1506.36,2206.62 L1505.5,2206.64 L1501.6,2205.89 L1497.94,2205.8 L1496.73,2205.18 L1495.49,2204.09 L1491.2,2203.05 L1490.3,2202.27 L1489.06,2202.53 L1488.14,2202.39 L1486.76,2203.06 L1483.54,2200.97 L1481.29,2200.89 L1479.48,2199.58 L1478.62,2199.52 L1475.98,2200.48 L1474.21,2200.84 L1473.77,2201.34 L1473.68,2202.14 L1472.62,2218.46 L1473.77,2222.18 L1473.96,2224.05 L1474.87,2227 L1475.61,2228.51 L1477.22,2229.84 L1477.24,2230.65 L1476.35,2233.87 L1476.57,2235.51 L1477.06,2235.87 L1477.01,2236.59 L1477.37,2237.77 L1477.02,2239.36 L1478.32,2241.73 L1478.9,2242.35 L1479.26,2244.28 L1479.36,2247.11 L1481.1,2249.97 L1483.14,2251.26 L1484.54,2252.65 L1485.55,2256.19 L1485.02,2257.07 L1484.44,2260.81 L1483.77,2270.8 L1479.38,2269.2 L1477.75,2269.01 L1471.51,2271.22 L1466.43,2271.32 L1462.99,2270.85 L1455.91,2268.75 L1455.84,2270.45 L1456.24,2274.74 L1457.91,2275.61 L1458.69,2276.7 L1458.1,2278.25 L1458.52,2280.53 L1458.23,2281.97 L1458.72,2283.91 L1458.63,2284.47 L1457.44,2285.66 L1456.86,2286.82 L1456.31,2288.55 L1456.28,2291.53 L1455.28,2293.77 L1454.66,2294.34 L1454.38,2295.3 L1454.44,2296.87 L1455.71,2300.2 L1452.73,2301.56 L1450.34,2302.26 L1440.2,2307.46 L1441.68,2310.97 L1443.67,2314.65 L1446.9,2319.34 L1446.08,2322.55 L1446.32,2324.76 L1445.27,2326.89 L1443.78,2326.62 L1442.31,2327.49 L1440.8,2327.62 L1439.22,2325.62 L1438.67,2323.3 L1437.53,2323.19 L1436.49,2322.27 L1435.7,2322.09 L1433.86,2323.82 L1432.89,2321.24 L1431.12,2320.6 L1430.19,2319.08 L1430.15,2318.69 L1430.89,2317.84 L1430.83,2317.04 L1429,2315.84 L1428.49,2314.31 L1426.61,2313.62 L1425.52,2312.72 L1424.01,2314.25 L1423.23,2313.52 L1422.58,2313.55 L1421.49,2314.07 L1420.09,2313.9 L1418.97,2314.31 L1417.47,2313.22 L1415.69,2313.47 L1415.01,2312.65 L1415.01,2311.19 L1414.04,2310.47 L1411.11,2310.21 L1410.85,2306.83 L1408.43,2306.88 L1407.6,2305.37 L1405.57,2303.19 L1403.64,2299.22 L1401.18,2296.31 L1402.26,2293.27 L1402.27,2292.33 L1395.18,2295.07 L1394.05,2295.9 L1392.99,2297.3 L1392.29,2297.42 L1389.23,2292.27 L1388.06,2287.97 L1387.59,2282.74 L1388.33,2280.37 L1387.7,2279.27 L1387.69,2278.46 L1386.83,2279.87 L1385.06,2281.66 L1385.72,2286.48 L1384.98,2288.36 L1385.06,2290.12 L1385.22,2291.12 L1385.69,2291.72 L1387.47,2296.17 L1388.73,2299.98 L1391.31,2312.07 L1390.26,2312.43 L1388.99,2311.78 L1387.63,2312.64 L1386.45,2311.49 L1384.92,2311.19 L1383,2309.62 L1381.52,2308.93 L1380.01,2309.89 L1379,2309.5 L1378.57,2311.16 L1377.55,2312.48 L1376.72,2312.38 L1375.99,2313.38 L1375.51,2313.34 L1374.83,2314.17 L1374.27,2314.45 L1372.46,2313.98 L1371.38,2314.8 L1370.48,2314.25 L1369.72,2314.88 L1368.7,2314.96 L1367.79,2314.64 L1367.53,2313.37 L1365.15,2311.47 L1360.05,2311.49 L1357.56,2309.59 L1353.35,2310.17 L1352.26,2310.57 L1352.07,2311.88 L1352.67,2314.55 L1351.85,2314.93 L1350.28,2314.71 L1348.1,2313.59 L1346.03,2312.85 L1344.5,2312.63 L1342.97,2311.47 L1340.88,2310.85 L1338.38,2308.35 L1337.45,2307.91 L1337.26,2308.68 L1337.43,2309.15 L1338.65,2310.65 L1342.7,2313.2 L1341.9,2313.8 L1341.02,2315.35 L1340.75,2321.03 L1340.03,2323.88 L1339.85,2325.69 L1340.23,2329.1 L1340.09,2331.57 L1339.28,2335.88 L1338.79,2336.91 L1334.39,2338.9 L1326.28,2344.53 L1333.08,2358.04 L1333.61,2370.35 L1328.12,2369.52 L1323.37,2366.21 L1319.97,2369.1 L1316.53,2372.82 L1313,2375.54 L1311.26,2375.91 L1311.39,2376.42 L1309.64,2377.76 L1310.03,2379.06 L1309.64,2380.22 L1309.78,2380.37 L1310.04,2380.51 L1312.29,2379.9 L1314.42,2380.35 L1315.32,2381.6 L1315.65,2384.01 L1316.51,2384.74 L1318.18,2383.91 L1320.47,2382.21 L1320.91,2382.37 L1314.94,2418.04 L1313.81,2418.22 L1311.03,2419.27 L1309.7,2420.39 L1308.51,2421.99 L1308.02,2423.1 L1306.78,2424.36 L1302.51,2427.67 L1301.72,2428.65 L1301.06,2430.22 L1299.91,2429.92 L1295.14,2430.14 L1294.27,2429.99 L1292.67,2432.06 L1290.21,2438.49 L1290.57,2440.4 L1290.01,2442.75 L1292.01,2447.32 L1291.79,2448.76 L1290.22,2451.83 L1290.13,2452.57 L1290.94,2457.62 L1288.14,2459.31 L1285.96,2461.06 L1277.9,2464.69 L1276.19,2466.3 L1271.56,2467.4 L1266.76,2472.12 L1266.39,2472.99 L1266.4,2474.42 L1266.82,2476.17 L1266.68,2476.74 L1265.89,2476.25 L1265.53,2477.04 L1265.96,2481.81 L1261.89,2484.64 L1259.34,2483.83 L1258.66,2484 L1257.79,2484.77 L1256.55,2487.72 L1255.1,2490.16 L1254.72,2493.07 L1255.61,2494.16 L1255.73,2495.65 L1256.91,2498.22 L1256.3,2500.59 L1255.82,2504.11 L1256.03,2505.83 L1257.08,2509 L1257.6,2509.65 L1261.85,2509.73 L1263.55,2509.34 L1265.16,2509.39 L1266.42,2511.44 L1266.54,2512.29 L1267.35,2513.35 L1266.76,2514.77 L1263.52,2517.94 L1263.2,2519.32 L1259.89,2520.94 L1260.66,2523.68 L1263.45,2529.81 L1267.89,2536.04 L1270.23,2538.93 L1273.22,2540.3 L1273.53,2540.76 L1270.42,2542.14 L1269.57,2543.45 L1266.85,2544.51 L1261.67,2544.03 L1260.08,2544.59 L1256.58,2544.47 L1254.9,2543.6 L1252.16,2540.48 L1250.62,2539.76 L1248.96,2537.53 L1247.07,2537.32 L1244.15,2534.3 L1242.74,2533.43 L1241.13,2533.28 L1239.84,2533.68 L1237.5,2535.19 L1237.01,2535.89 L1238.65,2540.7 L1239,2544.66 L1241.37,2546.45 L1241.89,2550.02 L1242.68,2551.73 L1242.82,2553.44 L1243.37,2554.53 L1244.43,2559.87 L1243.66,2564.31 L1244.23,2566.82 L1243.98,2568.37 L1245.34,2571.35 L1245.03,2575.45 L1245.43,2576.25 L1244.94,2578.05 L1243.02,2581.71 L1242.42,2583.43 L1241.14,2592.33 L1238.8,2599.72 L1238.85,2600.28 L1240.12,2601.92 L1240.04,2602.92 L1241.17,2606.58 L1241.25,2607.14 L1240.88,2608.42 L1241.59,2609.62 L1241.58,2610.1 L1241.14,2611.32 L1240.96,2613.18 L1241.43,2615.37 L1243.45,2619.61 L1242.6,2621.13 L1241.2,2621.98 L1240.51,2623.02 L1239.71,2623.22 L1238.99,2624.21 L1238.36,2625.5 L1238.31,2626.86 L1237.26,2628.46 L1235.26,2629.94 L1229.12,2636.18 L1227.64,2637.21 L1223.21,2641.19 L1219.9,2641.99 L1218.35,2642.8 L1216.19,2644.36 L1213.59,2646.84 L1213.2,2647.57 L1213.1,2651.51 L1212.88,2651.96 L1208.51,2653.52 L1204.25,2654.28 L1204.04,2657.76 L1202.44,2660.81 L1201.54,2661.66 L1199.78,2662.51 L1195.67,2667.23 L1193.51,2676.98 L1192.34,2683.75 L1192.51,2684.59 L1195.49,2688.39 L1193.58,2689.9 L1192.51,2690.37 L1186.67,2696.05 L1183.2,2697.46 L1181.68,2697.64 L1178.22,2700.63 L1176.59,2701.54 L1176.49,2700.71 L1177.11,2700.11 L1177.75,2695.02 L1177.56,2693.52 L1176.59,2692.21 L1176.52,2691.2 L1174.41,2690.39 L1168.33,2689.28 L1166.85,2688.61 L1166.14,2688.6 L1159.8,2691.66 L1158.82,2690.39 L1152.07,2689.9 L1150.05,2691.49 L1149.56,2693.28 L1148.96,2693.53 L1147.6,2695.16 L1146.93,2694.94 L1145.42,2695.24 L1142.9,2695.29 L1140.45,2690.86 L1139.24,2690.07 L1137.37,2689.4 L1136.26,2689.28 L1135.62,2688.84 L1135.13,2687.06 L1134.68,2686.44 L1134.24,2686.39 L1133.37,2686.99 L1132.73,2686.7 L1130.79,2684.59 L1128.9,2683.08 L1127.99,2681.84 L1126.25,2680.56 L1122.9,2677.23 L1122.61,2677.1 L1119.69,2678 L1118.86,2677.85 L1117.14,2676.54 L1115.32,2673 L1114.33,2672.43 L1112.23,2669.86 L1108.92,2668.64 L1108.24,2667.79 L1107.04,2663.92 L1105.32,2662.85 L1103.76,2660.69 L1101.88,2658.96 L1100.37,2655.6 L1099.77,2653.18 L1098.21,2651.7 L1097.07,2652.56 L1097.19,2653.25 L1096.91,2653.71 L1093.89,2654.93 L1086.22,2665.74 L1080.88,2672.49 L1077.23,2671.04 L1071.69,2670.75 L1068.45,2673.15 L1065.82,2673.79 L1064.15,2675.03 L1063.59,2675.08 L1061.56,2674.87 L1059.86,2674.1 L1053.46,2672.96 L1052.56,2672.25 L1051.73,2672.58 L1050.88,2673.32 L1050.48,2670.88 L1050.39,2667.74 L1049.1,2662.64 L1049.77,2660.13 L1050.63,2659.24 L1051.09,2658.35 L1052.14,2652.64 L1051.96,2650.93 L1051.54,2650.02 L1049.2,2650.8 L1044.96,2650.89 L1045.48,2657.77 L1043.9,2660.62 L1042.18,2662.4 L1040.78,2663.37 L1040.33,2665.36 L1036.5,2665.14 L1035.73,2664.76 L1033.04,2664.5 L1033.17,2668.88 L1027.69,2671.07 L1026.77,2669.5 L1023.01,2669.03 L1022.72,2669.49 L1022.63,2670.37 L1023.31,2671.31 L1023.52,2672.74 L1024.5,2675.51 L1026.25,2676.1 L1028.67,2678.33 L1029.01,2684.6 L1028.57,2688.08 L1026.01,2688.98 L1022.59,2689.1 L1018.14,2691.54 L1017.95,2692.23 L1018.07,2694.65 L1018.46,2696.3 L1019.67,2698.43 L1017.03,2699.62 L1015.18,2702.03 L1011.24,2703.76 L1006.66,2707.32 L1000.35,2710.98 L998.109,2711.8 L996.553,2712.89 L995.374,2714.13 L993.83,2716.84 L994.146,2710.91 L993.966,2708.99 L995.093,2704.36 L996.254,2701.16 L1001.66,2690.06 L1001.48,2688.62 L999.339,2686.68 L999.764,2684.58 L998.434,2679.96 L994.19,2689.19 L993.666,2691.57 L993.83,2692.48 L992.062,2693.37 L991.453,2693.92 L990.298,2696.06 L989.598,2700.98 L989.6,2702.83 L988.827,2704.16 L986.982,2706.1 L986.343,2707.33 L985.207,2707.74 L974.733,2709.31 L973.699,2709.33 L972.115,2708.71 L971.68,2709.1 L969.33,2712.36 L966.851,2716.93 L967.533,2718.33 L967.558,2719.15 L967.44,2719.99 L966.116,2722.08 L966.094,2722.53 L966.826,2723.57 L966.837,2723.96 L965.838,2725.18 L965.607,2727.03 L963.815,2728.63"/>
  </g>
  <g stroke-width="1" transform="matrix(0.999744,0,0,0.999744,0,0)" stroke-opacity="1" font-size="34.5833" fill="none" stroke-linejoin="bevel" font-style="normal" stroke-linecap="square" stroke="#000000" font-family="MS Shell Dlg 2" font-weight="400"/>
  <g stroke-width="1" transform="matrix(11.808,0,0,11.808,0,0)" stroke-opacity="1" font-size="34.5833" fill="none" stroke-linejoin="bevel" font-style="normal" stroke-linecap="square" stroke="#000000" font-family="MS Shell Dlg 2" font-weight="400"/>
  <g stroke-width="1" transform="matrix(11.808,0,0,11.808,0,0)" stroke-opacity="1" font-size="34.5833" fill="none" stroke-linejoin="bevel" font-style="normal" stroke-linecap="square" stroke="#000000" font-family="MS Shell Dlg 2" font-weight="400"/>
  <g stroke-width="1" transform="matrix(11.808,0,0,11.808,0,0)" stroke-opacity="1" font-size="34.5833" fill="none" stroke-linejoin="bevel" font-style="normal" stroke-linecap="square" stroke="#000000" font-family="MS Shell Dlg 2" font-weight="400"/>
  <g stroke-width="1" transform="matrix(1,0,0,1,0,0)" stroke-opacity="1" font-size="34.5833" fill="none" stroke-linejoin="bevel" font-style="normal" stroke-linecap="square" stroke="#000000" font-family="MS Shell Dlg 2" font-weight="400"/>
  <g stroke-width="1" transform="matrix(11.808,0,0,11.808,0,0)" stroke-opacity="1" font-size="34.5833" fill="none" stroke-linejoin="bevel" font-style="normal" stroke-linecap="square" stroke="#000000" font-family="MS Shell Dlg 2" font-weight="400"/>
  <g stroke-width="1" transform="matrix(11.808,0,0,11.808,0,0)" stroke-opacity="1" font-size="34.5833" fill="none" stroke-linejoin="bevel" font-style="normal" stroke-linecap="square" stroke="#000000" font-family="MS Shell Dlg 2" font-weight="400"/>
  <g stroke-width="1" transform="matrix(11.808,0,0,11.808,0,0)" stroke-opacity="1" font-size="34.5833" fill="none" stroke-linejoin="bevel" font-style="normal" stroke-linecap="square" stroke="#000000" font-family="MS Shell Dlg 2" font-weight="400"/>
  <g stroke-width="1" transform="matrix(11.808,0,0,11.808,0,0)" stroke-opacity="1" font-size="34.5833" fill="none" stroke-linejoin="bevel" font-style="normal" stroke-linecap="square" stroke="#000000" font-family="MS Shell Dlg 2" font-weight="400"/>
  <g stroke-width="1" transform="matrix(1,0,0,1,0,0)" stroke-opacity="1" font-size="34.5833" fill="none" stroke-linejoin="bevel" font-style="normal" stroke-linecap="square" stroke="#000000" font-family="MS Shell Dlg 2" font-weight="400"/>
 </g>
</svg>
