<?xml version='1.0' encoding='UTF-8' standalone='no'?>
<svg xmlns:xlink="http://www.w3.org/1999/xlink" baseProfile="tiny" xmlns="http://www.w3.org/2000/svg" height="249.936mm" viewBox="0 0 2952 2952" width="249.936mm" version="1.2">
 <title>Qt SVG Document</title>
 <desc>Generated with Qt</desc>
 <defs/>
 <g stroke-width="1" fill-rule="evenodd" fill="none" stroke-linejoin="bevel" stroke-linecap="square" stroke="black">
  <g stroke-width="1" transform="matrix(1,0,0,1,0,0)" stroke-opacity="1" font-size="34.5833" fill="none" stroke-linejoin="bevel" font-style="normal" stroke-linecap="square" stroke="#000000" font-family="MS Shell Dlg 2" font-weight="400"/>
  <g stroke-width="1" transform="matrix(1,0,0,1,0,0)" stroke-opacity="1" font-size="34.5833" fill="none" stroke-linejoin="bevel" font-style="normal" stroke-linecap="square" stroke="#000000" font-family="MS Shell Dlg 2" font-weight="400"/>
  <g stroke-width="1" transform="matrix(11.808,0,0,11.808,0,0)" stroke-opacity="1" font-size="34.5833" fill="none" stroke-linejoin="bevel" font-style="normal" stroke-linecap="square" stroke="#000000" font-family="MS Shell Dlg 2" font-weight="400"/>
  <g stroke-width="1" transform="matrix(0.999744,0,0,0.999744,0,0)" stroke-opacity="1" font-size="34.5833" fill="none" stroke-linejoin="bevel" font-style="normal" stroke-linecap="square" stroke="#000000" font-family="MS Shell Dlg 2" font-weight="400"/>
  <g transform="matrix(0.999744,0,0,0.999744,0,0)" font-size="34.5833" fill-opacity="0" fill="#ffffff" font-style="normal" stroke="none" font-family="MS Shell Dlg 2" font-weight="400">
   <path fill-rule="evenodd" vector-effect="none" d="M-2,-2 L2955,-2 L2955,2955 L-2,2955 L-2,-2"/>
  </g>
  <g stroke-width="1" transform="matrix(0.999744,0,0,0.999744,0,0)" stroke-opacity="1" font-size="34.5833" fill="none" stroke-linejoin="bevel" font-style="normal" stroke-linecap="square" stroke="#000000" font-family="MS Shell Dlg 2" font-weight="400"/>
  <g stroke-width="1" transform="matrix(11.808,0,0,11.808,0,0)" stroke-opacity="1" font-size="34.5833" fill="none" stroke-linejoin="bevel" font-style="normal" stroke-linecap="square" stroke="#000000" font-family="MS Shell Dlg 2" font-weight="400"/>
  <g stroke-width="1" transform="matrix(11.808,0,0,11.808,0,0)" stroke-opacity="1" font-size="34.5833" fill="none" stroke-linejoin="bevel" font-style="normal" stroke-linecap="square" stroke="#000000" font-family="MS Shell Dlg 2" font-weight="400"/>
  <g stroke-width="1" transform="matrix(11.808,0,0,11.808,0,0)" stroke-opacity="1" font-size="34.5833" fill="none" stroke-linejoin="bevel" font-style="normal" stroke-linecap="square" stroke="#000000" font-family="MS Shell Dlg 2" font-weight="400"/>
  <g stroke-width="1" transform="matrix(11.808,0,0,11.808,0,0)" stroke-opacity="1" font-size="34.5833" fill="none" stroke-linejoin="bevel" font-style="normal" stroke-linecap="square" stroke="#000000" font-family="MS Shell Dlg 2" font-weight="400"/>
  <g stroke-width="1" transform="matrix(11.808,0,0,11.808,0,0)" stroke-opacity="1" font-size="34.5833" fill="none" stroke-linejoin="bevel" font-style="normal" stroke-linecap="square" stroke="#000000" font-family="MS Shell Dlg 2" font-weight="400"/>
  <g transform="matrix(11.808,0,0,11.808,0,0)" font-size="34.5833" fill-opacity="0" fill="#ffffff" font-style="normal" stroke="none" font-family="MS Shell Dlg 2" font-weight="400">
   <path fill-rule="evenodd" vector-effect="none" d="M0,0 L250,0 L250,250 L0,250 L0,0"/>
  </g>
  <g stroke-width="1" transform="matrix(11.808,0,0,11.808,0,0)" stroke-opacity="1" font-size="34.5833" fill="none" stroke-linejoin="bevel" font-style="normal" stroke-linecap="square" stroke="#000000" font-family="MS Shell Dlg 2" font-weight="400"/>
  <g stroke-width="1" transform="matrix(11.808,0,0,11.808,0,0)" stroke-opacity="1" font-size="34.5833" fill="none" stroke-linejoin="bevel" font-style="normal" stroke-linecap="square" stroke="#000000" font-family="MS Shell Dlg 2" font-weight="400"/>
  <g transform="matrix(0.999744,0,0,0.999744,0,0)" font-size="34.5833" fill-opacity="0" fill="#000000" font-style="normal" stroke="none" font-family="MS Shell Dlg 2" font-weight="400">
   <rect x="0" height="2953" width="2953" y="0"/>
  </g>
  <g stroke-width="1" transform="matrix(0.999744,0,0,0.999744,0,0)" stroke-opacity="1" font-size="34.5833" fill="none" stroke-linejoin="bevel" font-style="normal" stroke-linecap="square" stroke="#000000" font-family="MS Shell Dlg 2" font-weight="400"/>
  <g stroke-width="3.07087" transform="matrix(0.999744,0,0,0.999744,0,0)" stroke-opacity="1" font-size="34.5833" fill-opacity="1" fill="#c5c5c5" stroke-linejoin="bevel" font-style="normal" stroke-linecap="square" stroke="#5c5c5c" font-family="MS Shell Dlg 2" font-weight="400">
   <path fill-rule="evenodd" vector-effect="none" d="M1571.32,2509.87 L1565.87,2505.99 L1559.3,2499.56 L1557.46,2498.89 L1551.72,2497.99 L1550.26,2497.32 L1546.8,2494.14 L1544.71,2492.92 L1534.19,2489.66 L1532.21,2487.34 L1531.9,2485.96 L1532.32,2485.36 L1539.1,2482.42 L1541.14,2480.54 L1541.56,2478.6 L1540.83,2474.23 L1535.85,2463.56 L1532.98,2460.41 L1529.13,2460.45 L1528.16,2458.98 L1525.4,2456.91 L1520.53,2447.5 L1517.04,2441.97 L1511.91,2436.65 L1510.72,2436 L1507.92,2435.78 L1499.37,2433.01 L1495.09,2430.58 L1493.8,2430.61 L1491.96,2432.11 L1487.02,2437.5 L1484.06,2441.76 L1482.26,2445.59 L1480.78,2447.63 L1474.89,2450.83 L1464.51,2465.46 L1463.18,2466.35 L1462.06,2466.25 L1459.98,2464 L1455.96,2462.12 L1450.88,2460.76 L1442.92,2460.19 L1426.24,2457.55 L1421.28,2456.13 L1413.69,2452.55 L1403.4,2449.89 L1400.85,2450.06 L1394.95,2453.19 L1392.61,2453.88 L1388.7,2454.56 L1382.31,2454.52 L1376.76,2458.94 L1374.14,2459.97 L1371.28,2460.16 L1364.47,2457.72 L1361.06,2450.64 L1358.03,2448.45 L1353.58,2442.09 L1350.69,2441.32 L1347.82,2441.61 L1336.21,2437.81 L1329.71,2434.61 L1320.94,2413.78 L1320.94,2412.58 L1321.78,2411.06 L1321.71,2409.69 L1318.98,2406.85 L1317.21,2402.88 L1318.36,2394.98 L1317.66,2393.44 L1316.97,2392.98 L1309.27,2389.25 L1308.74,2386.63 L1307.67,2384.27 L1307.03,2379.97 L1312.53,2376.55 L1316.54,2370.13 L1316.63,2369.1 L1309.49,2359 L1305.94,2355.03 L1299.59,2354.41 L1296.15,2352.94 L1293.95,2352.9 L1290.27,2350.69 L1287.19,2351.19 L1283.06,2352.84 L1281.69,2352.69 L1270.08,2341.51 L1267.88,2338.51 L1262.04,2334.98 L1260.91,2331.56 L1259.38,2330.09 L1256.58,2329.88 L1255.06,2330.72 L1253.3,2330.94 L1244.12,2330.46 L1240.18,2330.77 L1234.99,2332.73 L1231.38,2332.92 L1224.17,2331.66 L1211.61,2327.89 L1203.09,2327.18 L1200.94,2326.52 L1199.71,2320.86 L1198.21,2319.06 L1187.75,2319.37 L1184.25,2310.64 L1182.34,2308.77 L1180.68,2306.05 L1177.29,2296.63 L1175.5,2294.49 L1173.01,2292.85 L1169.06,2292.39 L1165.85,2293.26 L1154.82,2299.89 L1144.62,2303.73 L1142.29,2302.65 L1132.51,2295.04 L1121.13,2287.55 L1117.06,2286.67 L1113.19,2287.67 L1106.84,2287.03 L1096.04,2283.46 L1089.68,2280.84 L1082.14,2279.54 L1071.29,2275.92 L1058.28,2272.71 L1056.39,2271.77 L1047.45,2269.45 L1039.46,2266.2 L1031.82,2261.37 L1020.56,2256.18 L1016.22,2255.38 L1010.13,2255.39 L1003.57,2256.29 L994.964,2258.15 L988.85,2257.99 L986.136,2254.46 L981.169,2252.83 L965.808,2241 L958.29,2236.57 L956.754,2234.34 L950.711,2227.82 L941.458,2221.38 L936.672,2220.4 L927.07,2215.05 L920.794,2214.23 L915.475,2212.98 L910.976,2213.19 L908.974,2212.68 L898.317,2205.4 L904.58,2204.26 L908.862,2202.22 L910.115,2200.63 L910.722,2197.49 L914.91,2193.47 L913.589,2191.19 L908.348,2185.91 L905.279,2184.43 L900.638,2183.03 L897.068,2179.29 L892.617,2176.22 L890.634,2168.94 L888.05,2165.43 L887.44,2165.17 L884.114,2166.66 L874.373,2166.09 L872.63,2166.35 L871.725,2167.22 L864.59,2166.68 L861.102,2167.01 L857.801,2168.18 L854.054,2171.01 L850.917,2170.6 L849.128,2171.46 L845.825,2169.66 L842.488,2169.78 L836.691,2171.86 L830.788,2170.63 L824.715,2170.32 L819.95,2166.35 L817.403,2158.23 L815.149,2155.07 L813.795,2150.61 L809.897,2147.55 L808.515,2145.63 L807.966,2143.65 L808.254,2136.19 L806.398,2134.68 L780.974,2131.58 L779.283,2132.39 L778.233,2133.53 L776.718,2133.91 L771.802,2133.17 L769.054,2133.87 L763.368,2134.46 L758.801,2135.89 L756.427,2136.04 L754.245,2135.68 L751.196,2133.93 L742.363,2130.69 L735.539,2131.43 L733.321,2132.26 L731.695,2131.54 L731.394,2128.96 L730.617,2126.96 L727.992,2127.6 L724.958,2127.72 L723.698,2128.19 L722.497,2129.96 L721.944,2130.14 L715.198,2131.01 L710.217,2131.21 L701.484,2130.54 L700.625,2133.05 L700.931,2136.74 L700.616,2138.06 L699.816,2138.85 L694.358,2136.59 L689.706,2134.04 L687.592,2135.49 L686.673,2134.61 L684.035,2136.52 L671.668,2133.82 L669.06,2131.17 L667.186,2128.27 L666.867,2126.83 L665.029,2124.79 L659.441,2132.94 L653.205,2139.44 L651.335,2142.52 L650.713,2145.92 L650.308,2153.77 L649.526,2156.62 L651.749,2161.5 L651.16,2163.45 L649.362,2166.12 L647.629,2169.86 L647.847,2184.84 L647.055,2186.6 L646.399,2186.59 L643.867,2185.49 L636.134,2184.32 L630.402,2182.38 L618.273,2175.66 L615.377,2171.76 L609.146,2157.94 L606.263,2155.16 L600.625,2152.73 L598.967,2151.38 L594.276,2145.59 L587.4,2140.64 L584.744,2138.02 L579.535,2130.57 L573.253,2119.55 L567.7,2113.46 L562.591,2106 L557.002,2106.22 L553.065,2107.05 L550.423,2108.4 L548.539,2112.28 L548.37,2115.68 L548.957,2121.01 L547.064,2131.44 L548.386,2134.55 L548.026,2136.33 L546.675,2138.14 L539.409,2140.01 L536.898,2141.54 L533.751,2145.47 L531.315,2149.62 L531.059,2151.79 L532.022,2154.78 L533.364,2156.94 L536.885,2160.06 L537.582,2161.44 L537.129,2164.04 L535.467,2164.92 L532.261,2165.36 L528.381,2167.1 L523.542,2168.32 L518.024,2170.4 L517.273,2171.09 L515.912,2174.26 L517.327,2176.45 L516.435,2178.26 L515.282,2179.17 L511.202,2178.6 L508.884,2179.57 L507.462,2183.64 L502.749,2189.93 L500.27,2194.84 L498.986,2197.84 L501.466,2200.37 L502.243,2202.09 L499.745,2202.88 L498.244,2204.09 L496.251,2202.11 L494.753,2204.19 L494.363,2207.77 L493.745,2209.29 L491.068,2209.47 L487.504,2212.05 L483.624,2213.49 L481.029,2213.84 L479.517,2214.68 L478.394,2216.21 L479.298,2217.95 L481.47,2220.23 L481.52,2222.16 L480.52,2223.47 L477.446,2224.41 L472.105,2224.14 L470.925,2224.43 L470.252,2225.48 L471.155,2227.4 L472.205,2228.47 L473.438,2232.86 L475.093,2233.96 L479.172,2232.59 L480.795,2232.67 L481.366,2236.52 L481.372,2242.04 L479.864,2245.32 L477.63,2246.89 L475.085,2247.55 L469.83,2247.61 L467.212,2248.99 L466.224,2251.05 L466.716,2259.27 L466.46,2261.7 L463.577,2275.52 L463.624,2277.54 L465.589,2282.07 L467.57,2284.76 L468.896,2285.43 L470.932,2287.62 L473.004,2291.32 L474.513,2292.93 L477.204,2298.6 L483.769,2304.45 L488.29,2309.97 L490.5,2315.33 L491.744,2320.9 L494.188,2324.48 L496.845,2326.02 L500.951,2325.65 L505.389,2327.9 L508.468,2331.79 L508.894,2336.6 L509.947,2338.09 L512.454,2338.56 L512.971,2339.5 L517.582,2341.1 L520.28,2343 L521.317,2345.4 L522.703,2352.53 L522.22,2357.21 L523.042,2358.5 L524.01,2359.06 L525.051,2362.2 L522.428,2365.27 L518.989,2371.85 L518.708,2374.16 L520.771,2383.44 L519.594,2389.04 L518.829,2390.89 L517.457,2392.63 L516.21,2396.45 L515.979,2398.81 L516.494,2402.04 L517.34,2403.44 L522.162,2405.58 L524.481,2407.34 L526.344,2409.58 L527.112,2412.71 L527.471,2418.52 L531.987,2425.08 L532.972,2427.99 L536.662,2432.95 L537.489,2434.86 L538.103,2440.38 L534.657,2444.37 L533.393,2446.64 L532.42,2445.62 L527.85,2443.18 L523.831,2440.13 L520.228,2440.92 L519.364,2440.45 L518.26,2438.86 L517.355,2439 L518.143,2432.26 L517.043,2431.03 L516.161,2430.85 L515.003,2431.35 L510.451,2435.58 L508.16,2436.57 L503.744,2436.76 L501.009,2436.06 L498.544,2434.28 L496.24,2431.62 L493.409,2426.29 L490.52,2418.32 L486.962,2413.53 L484.774,2411.91 L477.081,2408.36 L474.323,2408.05 L471.4,2408.46 L466.397,2410.74 L462.553,2410.09 L461.016,2410.46 L459.893,2411.72 L458.809,2412.06 L452.557,2413.19 L448.133,2417.38 L445.072,2419.34 L442.754,2420.02 L438.532,2419.51 L436.177,2418.75 L428.647,2413.76 L426.097,2413.98 L424.84,2414.69 L410.769,2418.66 L403.083,2422.76 L400.079,2425.02 L392.812,2428.01 L387.601,2428.77 L384.569,2426.01 L380.398,2420.8 L377.972,2416.27 L377.273,2414.55 L377.792,2411.42 L377.303,2406.39 L376.551,2404.47 L372.37,2398.79 L370.756,2397.97 L369.463,2398.52 L367.999,2398.4 L366.73,2397.71 L365.061,2395.65 L361.724,2395.15 L359.085,2393.99 L356.733,2391.23 L357.059,2388.85 L360.39,2379.75 L361.401,2374.96 L361.021,2373.1 L358.835,2369.68 L354.321,2365.16 L353.97,2363.76 L354.442,2362.59 L354.218,2361.49 L352.533,2359.58 L341.52,2354.83 L340.83,2353.97 L340.07,2349.97 L337.233,2344.77 L335.464,2342.53 L333.136,2340.55 L330.64,2340.25 L323.731,2341.7 L318.196,2341.55 L310.088,2339.29 L308.711,2338.07 L306.905,2332.91 L302.997,2328.95 L300.693,2322.48 L299.601,2321.37 L302.451,2318.86 L308.349,2311.09 L310.823,2304.39 L314.11,2299.92 L316.253,2290.57 L316.197,2288.45 L317.604,2280.15 L316.457,2273.04 L314.294,2265.37 L312.968,2262.39 L310.313,2259.69 L301.124,2256.08 L295.017,2254.94 L281.411,2247.86 L278.799,2247.24 L272.147,2246.78 L267.093,2244.94 L259.558,2238.55 L257.805,2237.49 L255.394,2236.8 L251.452,2232.49 L253.38,2227.81 L256.099,2218.26 L259.259,2211.44 L256.97,2206.34 L266.529,2199.99 L271.224,2192.73 L272.591,2188.42 L274.089,2186.96 L275.428,2182.24 L277.985,2180.21 L281.711,2178.84 L282.855,2177.28 L280.206,2173.37 L277.274,2171.53 L271.564,2169.7 L269.899,2169.94 L268.028,2167.98 L265.094,2170 L264.054,2169.73 L263.5,2167.86 L263.92,2165.17 L263.703,2163.65 L259.047,2159.13 L256.823,2154.91 L254.642,2152.32 L250.834,2151.03 L249.91,2145.53 L245.93,2149.03 L241.996,2148.34 L240.872,2147.11 L240.447,2145.36 L240.904,2143.59 L244.372,2139.17 L246.245,2135.39 L247.396,2135.31 L249.555,2136.09 L250.561,2135.31 L251.225,2131.59 L251.013,2128.77 L251.997,2124.41 L258.039,2121.57 L268.817,2113.44 L277.116,2108.9 L279.652,2105.01 L283.857,2094.83 L286.971,2090.34 L289.155,2089.05 L293.847,2087.67 L305.226,2087.27 L308.329,2086.65 L312.636,2084.77 L314.973,2085.58 L317.008,2084.13 L317.39,2084.64 L320.356,2085.06 L324.871,2083.74 L327.886,2081.92 L330.333,2078.87 L331.386,2076.2 L332.464,2070.56 L336.866,2065.95 L339.206,2065 L342.177,2065.89 L343.822,2065.85 L346.639,2064.16 L350.596,2062.76 L354.065,2062.9 L356.168,2061.34 L356.213,2058.15 L354.013,2056.17 L353.128,2054.13 L351.041,2053.17 L349.202,2051.59 L344.891,2050.61 L342.923,2048.76 L334.847,2044.2 L329.707,2039.59 L324.692,2036.82 L321.477,2032.4 L316.023,2029.19 L313.304,2025.77 L311.466,2019.93 L309.394,2018.26 L309.205,2017.5 L311.973,2013.47 L312.674,2013.11 L313.315,2013.69 L314.122,2017.66 L315.389,2020.12 L320.543,2012.74 L328.007,2008.16 L335.452,2008.38 L341.815,2007.31 L341.802,2005.64 L345.015,1998.66 L346.939,1992 L346.806,1987.24 L347.532,1979.52 L349.023,1976.91 L351.672,1973.93 L353.027,1970.75 L351.09,1962.83 L347.864,1957.46 L348.302,1955.57 L348.06,1954.64 L342.252,1953.63 L339.287,1951.23 L336.06,1947.8 L331.751,1945.44 L323.777,1945.59 L320.744,1941.57 L307.604,1939.55 L306.789,1939.07 L304.471,1935.75 L304.075,1934.25 L301.551,1930.88 L301.609,1930.21 L306.826,1925.8 L307.019,1924.96 L305.555,1923.15 L299.461,1919.77 L296.244,1917.36 L293.251,1903.82 L294.215,1901.78 L304.184,1889.74 L305.028,1886.19 L306.932,1882.33 L306.96,1880.19 L307.804,1878.83 L309.02,1878.57 L313.988,1879.07 L315.906,1878.52 L320.294,1876.51 L323.152,1874.16 L322.649,1872 L319.587,1865.66 L317.475,1858.2 L317.198,1856.33 L318.427,1852.9 L316.324,1846.16 L318.039,1841.14 L318.397,1836.81 L320.005,1831.28 L320.387,1826.99 L321.31,1823.37 L323.052,1821.08 L319.742,1819.43 L316.567,1816.76 L309.125,1808.46 L308.019,1802.67 L306.373,1798.15 L304.799,1795.81 L302.228,1794.95 L299.692,1792.23 L297.328,1785.27 L295.355,1781.07 L291.068,1776.49 L290.457,1774.02 L289.912,1761.85 L286.706,1745.68 L286.144,1738.74 L284.517,1731.82 L282.424,1726.52 L277.281,1722.33 L274.48,1718.95 L274.32,1713.91 L271.502,1709.31 L271.404,1703.08 L273.434,1694.37 L273.381,1692.26 L272.347,1690.49 L272.21,1687.27 L271.891,1686.35 L268.031,1683.73 L265.126,1680.04 L261.006,1677.11 L261.56,1674.39 L261.02,1671.82 L262.449,1668.45 L262.088,1667.81 L258.887,1667.13 L256.901,1668.61 L254.697,1668.9 L252.199,1667.72 L246.803,1661.73 L245.246,1660.93 L243.272,1657.17 L242.171,1653.9 L236.958,1646.52 L231.879,1643.81 L230.618,1640.03 L230.198,1636.9 L229.193,1635.52 L227.075,1634.19 L226.134,1634.24 L223.136,1631.75 L218.928,1633.88 L217.151,1633.96 L215.267,1633.21 L213.595,1631.32 L213.072,1629.93 L212.782,1627.01 L213.22,1623.26 L212.704,1622.76 L203.323,1619.13 L195.814,1618.74 L194.157,1617.89 L191.034,1615.53 L190.154,1614.2 L185.027,1609.85 L180.783,1607.28 L178.366,1606.63 L177.062,1605.81 L176.198,1603.67 L175.733,1598.82 L173.57,1596.11 L178.063,1594.27 L183.086,1588.04 L184.967,1586.42 L186.306,1583.75 L188.482,1581.12 L193.904,1578.41 L203.375,1574.91 L211.758,1573.66 L219.595,1573.39 L228.437,1574.38 L230.718,1574.24 L240.252,1575.81 L249.381,1575.35 L258.671,1575.6 L261.189,1576.13 L267.033,1579.01 L271.129,1579.95 L274.207,1580.15 L282.174,1578.57 L286.299,1579.93 L288.494,1583.24 L298.391,1587.35 L306.568,1592.39 L308.954,1594.66 L314.574,1598.42 L320.088,1603.47 L334.111,1612.13 L335.566,1612.67 L337.644,1612.69 L338.602,1611.97 L342.966,1598.37 L342.026,1594.35 L352.155,1576.72 L351.597,1574.44 L349.189,1570.21 L348.422,1567.44 L349.424,1564.23 L354.225,1557.9 L354.949,1554.46 L356.619,1554.14 L370.255,1557.14 L385.496,1558.55 L410.526,1557.29 L410.97,1553.47 L410.167,1508.26 L418.591,1496.51 L424.436,1490.09 L438.21,1472.78 L441.25,1467.47 L443.421,1459.14 L444.993,1456.8 L446.863,1456.87 L450.562,1458.66 L451.501,1458.7 L455.246,1457.28 L461.018,1457.62 L461.903,1457.44 L462.681,1454.75 L464.121,1453.74 L467.138,1453.74 L468.473,1455.27 L472.475,1454.04 L479.093,1451.02 L487.895,1452.38 L492.15,1453.75 L496.752,1454.47 L497.745,1455.09 L498.099,1455.53 L497.847,1457.23 L498.766,1458.05 L499.206,1460.82 L498.452,1461.62 L498.673,1463.22 L497.822,1466.31 L499.349,1472.56 L497.333,1479.27 L503.013,1477.64 L503.468,1478.21 L510.165,1496.55 L511.579,1503.16 L522.01,1517.94 L521.271,1527.33 L524.432,1541.29 L526.993,1540.63 L531.795,1536.53 L536.899,1526.92 L539.537,1524.25 L541.707,1523.11 L548.205,1515.73 L551.696,1507.1 L553.076,1501.05 L552.969,1498.03 L553.507,1495.62 L555.576,1491.7 L558.385,1488.36 L558.672,1487.03 L557.339,1478.23 L555.831,1474.52 L552.58,1469.47 L550.135,1467.77 L544.891,1465.46 L542.523,1463.49 L541.844,1461.97 L541.998,1459.89 L541.467,1457.63 L545.446,1451.9 L547.352,1447.11 L553.088,1441.98 L552.538,1437.63 L552.74,1435.03 L553.954,1432.11 L555.541,1430.61 L557.424,1430.75 L564.749,1434.86 L568.487,1435.48 L575.698,1437.83 L578.858,1439.48 L583.391,1443.44 L588.689,1439.66 L589.894,1438.11 L591.604,1434.03 L594.341,1431.07 L595.485,1430.97 L599.788,1432.19 L606.476,1430.64 L616.855,1432.37 L619.131,1431.71 L624.579,1427.93 L626.735,1427.71 L630.688,1429.22 L633.125,1429.07 L637.408,1423.24 L642.022,1418.67 L639.096,1413.68 L638.497,1411.92 L638.255,1408.42 L638.763,1405.62 L643.473,1393.85 L644.549,1392.26 L647.746,1391.87 L649.363,1390.98 L651.264,1387.81 L652.92,1383.22 L654.694,1380.09 L657.128,1377.61 L660.903,1376.01 L664.308,1376.23 L665.887,1376.78 L668.639,1380.66 L669.267,1384.77 L669.049,1388.58 L668.025,1393.05 L668.948,1399.7 L668.165,1407.62 L668.472,1410.56 L670.359,1416.63 L675.413,1422.88 L678.727,1423.62 L685.614,1424.21 L692.212,1423.55 L701.453,1426.05 L706.306,1426.38 L708.077,1425.91 L708.358,1423.51 L706.924,1421.27 L707.104,1418.65 L706.598,1414.76 L707.92,1408.83 L707.605,1405.01 L708.764,1398.57 L709.901,1395.51 L714.136,1389.01 L718.167,1388.26 L719.7,1386.37 L721.093,1385.89 L721.973,1385.04 L722.816,1382.34 L722.504,1380.07 L724.502,1378.08 L724.421,1372.56 L720.652,1368.82 L713.885,1359.37 L711.283,1357.99 L708.298,1354.39 L697.847,1352.66 L696.158,1351.73 L693.768,1351.32 L679.417,1354.38 L671.38,1353.5 L669.392,1352.34 L665.932,1346.82 L663.756,1344.97 L660.102,1340.16 L658.491,1336.56 L657.019,1323.7 L654.687,1313.36 L654.793,1311.25 L657.897,1303.77 L658.174,1298.38 L655.097,1290.1 L649.197,1284.34 L647.96,1282.19 L646.556,1271.37 L645.731,1252.28 L645.314,1251.12 L640.465,1243.77 L637.904,1241 L637.278,1237.8 L636.507,1236.59 L633.822,1234.72 L632.503,1235.04 L631.289,1241.15 L630.213,1242.77 L627.253,1244.43 L625.221,1244.32 L624.706,1243.74 L623.265,1241.79 L624.694,1237.6 L624.464,1234.89 L620.194,1223.86 L618.917,1218.72 L615.437,1211.1 L612.112,1206.54 L610.088,1204.56 L608.805,1201.77 L616.701,1192.09 L621.824,1188.19 L626.043,1185.76 L627.304,1184.34 L627.781,1182.7 L626.363,1179.09 L627.065,1175.25 L626.983,1169.94 L626.269,1164.96 L624.842,1163.7 L625.467,1163.09 L631.008,1162.83 L633.901,1163.98 L636.912,1165.94 L638.947,1168.14 L641.06,1168.58 L642.345,1167.44 L648.242,1159.19 L671.159,1151.67 L679.839,1147.3 L687.098,1142.97 L690.368,1142.07 L691.773,1142.82 L693.585,1146.58 L693.645,1149.31 L692.713,1152.89 L693.233,1156.58 L694.678,1159.18 L696.217,1160.54 L698.125,1161.12 L709.85,1161.44 L710.85,1159.17 L712.849,1157.96 L714.19,1157.59 L715.878,1158.91 L716.438,1158.67 L717.337,1156.72 L717.42,1155.4 L714.642,1151.41 L712.459,1149.28 L709.02,1147.76 L708.888,1145.88 L709.517,1144.33 L711.403,1142.2 L716.32,1140.34 L720.392,1137.8 L722.384,1133.21 L725.241,1135.2 L723.868,1139.09 L724.126,1140.04 L725.457,1140.74 L726.841,1139.66 L728.917,1135.6 L732.792,1134.01 L735.804,1129.51 L739.477,1127.95 L742.082,1126.18 L745.608,1125.32 L747.594,1125.68 L752.173,1128.34 L753.75,1128.51 L755.474,1127.69 L755.976,1126.75 L756.747,1121.91 L762.653,1111.36 L762.539,1104.45 L764.471,1098.92 L765.199,1097.87 L766.9,1097.13 L771.378,1097.4 L771.689,1095.77 L770.983,1093.78 L772.902,1091.2 L775.598,1085.82 L778.985,1083.13 L778.887,1081.3 L777.549,1079.34 L771.835,1076.99 L771.621,1076.28 L772.021,1075.22 L774.083,1073.14 L773.493,1069.01 L773.934,1067.86 L777.719,1066.98 L778.833,1066.23 L783.141,1060.65 L784.675,1059.62 L785.462,1059.27 L787.607,1059.44 L793.073,1056.46 L795.128,1056.16 L798.364,1056.77 L800.171,1056.42 L808.367,1051.21 L810.838,1048.57 L815.403,1046.78 L818.284,1044.94 L819.125,1038.35 L820.24,1035.61 L821.484,1035.03 L827.256,1034.5 L828.673,1033.74 L828.869,1032.88 L828.091,1031.8 L828.171,1030.96 L830.553,1028.18 L831.124,1023.17 L831.938,1019.94 L832.567,1019 L833.75,1017.97 L835.352,1017.64 L837.086,1017.78 L839.943,1018.93 L845.389,1018.55 L849.831,1014.14 L851.904,1009.4 L853.66,1006.91 L856.38,1006.5 L860.494,1007.58 L863.638,1006.69 L865.281,1005.71 L866.838,1003.22 L866.311,998.438 L867.815,994.708 L869.044,992.831 L870.712,991.411 L873.8,986.523 L877.407,982.073 L881.971,977.744 L883.4,975.484 L884.072,972.513 L887.273,969.135 L889.322,967.768 L891.934,966.757 L894.131,966.861 L898.146,965.088 L899.578,967.126 L899.242,970.242 L899.537,971.312 L904.17,977.871 L906.062,978.709 L907.047,980.685 L908.608,981.529 L909.845,983.112 L912.348,984.217 L912.599,987.812 L913.437,990.026 L916.247,991.383 L917.84,992.808 L919.774,993.312 L921.828,994.99 L925.539,994.95 L926.621,995.748 L929.375,996.474 L932.446,999.098 L934.884,1003.62 L935.677,1008.16 L936.802,1011.47 L939.908,1014.42 L942.126,1015.29 L944.085,1015.47 L950.982,1015.11 L958.112,1015.82 L963.341,1014.35 L968.942,1011.42 L975.419,1009.58 L981.529,1005.84 L981.935,1006.18 L983.223,1007.98 L984.397,1011.61 L985.772,1018.05 L985.796,1024.68 L986.959,1029.87 L988.813,1029.19 L991.234,1033.14 L990.961,1035.12 L989.552,1036.21 L989.97,1037.92 L990.844,1038.52 L993.07,1038.31 L993.328,1040.79 L996.507,1043.36 L997.638,1045.66 L998.864,1046.02 L999.886,1049.75 L1002.15,1050.03 L1002.89,1053.3 L1002.61,1054.6 L1002.96,1056.23 L1006.05,1059.63 L1007.09,1063.41 L1008.11,1064.21 L1011.01,1064.49 L1011.94,1065.1 L1014.09,1069.88 L1017.59,1075.71 L1018.89,1079.71 L1019.69,1080.61 L1022.11,1081.18 L1022.66,1081.89 L1023.27,1084.32 L1022.92,1084.83 L1021.33,1085.31 L1021.26,1086.76 L1021.49,1088.93 L1022.84,1090.36 L1022.3,1101.95 L1026.39,1101.69 L1030.01,1102.63 L1034.31,1103.03 L1040,1102.2 L1042.88,1103.38 L1051.03,1108.21 L1054.25,1109.23 L1055.1,1107.99 L1055.17,1106.16 L1057.32,1101.89 L1059.57,1099.7 L1062.41,1095.9 L1067.62,1084.04 L1067.52,1081.45 L1066.14,1080.6 L1067.53,1078.73 L1067.42,1077.51 L1065.8,1076.2 L1065.59,1073.49 L1063.69,1072.4 L1062.02,1070.24 L1062.02,1069.63 L1060.5,1068.56 L1060.75,1068.19 L1062.71,1066.86 L1067.26,1062.39 L1071.77,1059.67 L1073.47,1059.51 L1086.36,1054.2 L1093.39,1052.58 L1093.46,1053.4 L1091.9,1055.67 L1091.73,1056.72 L1091.48,1067.86 L1094.22,1077.54 L1094.62,1086.16 L1095.42,1088.46 L1098.02,1092.44 L1098.76,1092.69 L1109.87,1091.69 L1110.35,1091.38 L1110.09,1089.91 L1110.79,1088.78 L1113.33,1088.84 L1121.77,1087.47 L1129.32,1078.94 L1130.42,1079.8 L1133.09,1079.76 L1133.83,1080.63 L1137.25,1081.47 L1138.71,1083.17 L1140.6,1084.49 L1144.32,1085.27 L1146.5,1088.37 L1152.42,1094.28 L1158.95,1095.9 L1162.17,1098.42 L1163.12,1100.16 L1163.37,1103.71 L1164.38,1105.84 L1166.07,1107.87 L1168.88,1109.95 L1174.55,1112.4 L1176.24,1113.72 L1179.3,1117.73 L1181.18,1121.35 L1183.24,1122.26 L1188.44,1122.96 L1191.93,1125.18 L1193.53,1127.24 L1196.31,1128.65 L1198.7,1133.77 L1198.02,1137.86 L1199.73,1142.09 L1198.95,1144.46 L1203.02,1151.61 L1205.22,1157.03 L1206.81,1158.52 L1205.85,1161.04 L1206.68,1163.3 L1208.93,1163.87 L1210.98,1162.51 L1213.77,1161.47 L1216.64,1161.55 L1219.03,1160.82 L1221.17,1162.08 L1232,1162.22 L1232.86,1164.12 L1236.05,1166.3 L1236.94,1170 L1239.11,1171.95 L1240.14,1177.06 L1240.21,1180.23 L1241.51,1181.58 L1241.4,1182.68 L1242.93,1185.39 L1243.29,1188.3 L1244.02,1189.24 L1243.09,1192.33 L1243.98,1194.43 L1243.91,1196.51 L1242.32,1202.82 L1243.4,1204.91 L1245.71,1207.69 L1246.52,1214.24 L1247.82,1216.22 L1248.11,1217.88 L1249.24,1218.53 L1249.65,1219.53 L1250.21,1223.16 L1249.68,1224.44 L1250.47,1227.28 L1249.6,1230.67 L1250.14,1236.96 L1249.04,1239.69 L1249.06,1243.62 L1252.74,1251.04 L1254.21,1257.77 L1257.37,1262.83 L1257.61,1268.47 L1255.58,1272.5 L1257.31,1278.19 L1256.69,1279.94 L1256.62,1284.16 L1257.83,1287.72 L1258.21,1290.98 L1259.5,1292.83 L1261.27,1301.8 L1263.75,1305.61 L1265.76,1311.56 L1268.49,1316.53 L1272.79,1326.16 L1275.29,1328.63 L1278.56,1334.8 L1280.05,1336.75 L1282.26,1341.48 L1284.13,1344.06 L1280.17,1343.74 L1277.51,1344.8 L1274.3,1348.01 L1272.51,1350.75 L1269.83,1352.58 L1264.86,1360.44 L1264.49,1365.08 L1263.29,1366.89 L1262.22,1370.33 L1261.44,1371.23 L1260.43,1375.04 L1258.86,1376.43 L1257.75,1378.17 L1257.61,1380.69 L1258.31,1382.86 L1261.5,1385.48 L1263.52,1386.42 L1264.71,1386.46 L1266.91,1385.76 L1270.1,1383.27 L1271.64,1382.83 L1274.69,1382.88 L1277.54,1383.86 L1280.72,1384.22 L1285.54,1383.58 L1289.11,1382.2 L1294.45,1384.64 L1298.81,1384.72 L1303.75,1386.58 L1308.07,1387.14 L1317.18,1390.17 L1322.79,1393.34 L1326.37,1392.35 L1331.69,1389.61 L1334.24,1385.86 L1335.59,1385.39 L1336.91,1384.2 L1342.47,1377.4 L1344.88,1373.79 L1345.93,1370.6 L1346.39,1368.13 L1346.18,1367.01 L1347.33,1363.58 L1350.58,1359.02 L1351.86,1356.19 L1357.41,1354.23 L1360.67,1351.67 L1365.36,1344.73 L1368.69,1341.82 L1378.52,1337.57 L1387.79,1334.59 L1389.14,1332.83 L1391.33,1328.36 L1394.84,1324.73 L1400.18,1322.39 L1405.66,1319.01 L1413.32,1316.96 L1414.71,1315.92 L1420.8,1305.33 L1424.17,1302.93 L1424.79,1301.69 L1424.46,1295.3 L1422.9,1289.84 L1423.4,1287.64 L1423.23,1284.72 L1419.14,1277.16 L1422.98,1278.41 L1425.13,1280.51 L1427.01,1281.22 L1427.8,1280.77 L1429.11,1278.34 L1429.89,1272.62 L1429.72,1270.66 L1430.17,1269.64 L1431.37,1269.68 L1433.85,1271.54 L1436.14,1272.49 L1437.05,1272.08 L1437.45,1270.09 L1439.04,1268.14 L1439.99,1265.93 L1443.48,1256.1 L1447.83,1249.8 L1453.6,1243.47 L1455.09,1240.98 L1456.98,1238.99 L1460.96,1232.12 L1465.23,1230.32 L1477.56,1226.73 L1481.44,1224.49 L1485.27,1223.8 L1489.62,1223.96 L1491.95,1225.71 L1497.29,1227.77 L1502.87,1219.17 L1503.54,1215.52 L1508.54,1210.54 L1510.69,1207.27 L1516.4,1200.94 L1517.59,1198.18 L1517.92,1192.36 L1519.68,1184.69 L1524.6,1182.2 L1529.23,1178.09 L1530.38,1173.96 L1529.56,1166.37 L1530.41,1163.56 L1532.68,1159.71 L1539.96,1150.11 L1543.43,1146.54 L1546.69,1143.89 L1556.21,1138.65 L1558.41,1136.77 L1560.05,1134.49 L1561.32,1131.47 L1562.03,1127.61 L1562.19,1118.81 L1561.56,1107.35 L1562.77,1100.52 L1568.79,1087.75 L1572.3,1082.53 L1588.83,1051.93 L1591.18,1043.08 L1594.32,1028.05 L1595.23,1025.98 L1606.66,1016.47 L1613.01,1012.13 L1621.59,1007.9 L1627.76,1005.48 L1635.34,1003.65 L1644.01,1000.91 L1652.14,997.527 L1652.8,996.473 L1652.55,992.026 L1653.21,985.635 L1653.99,983.822 L1655.13,982.544 L1656.89,982.635 L1659.32,985.082 L1664.72,987.1 L1669.58,986.004 L1672.07,984.689 L1673.64,982.775 L1677.03,971.93 L1680.67,964.624 L1687.14,958.873 L1693.92,953.922 L1696.38,952.936 L1698.39,951.397 L1700.83,946.374 L1700.47,943.668 L1700.76,941.006 L1703.88,929.067 L1704.19,925.742 L1703.79,919.149 L1705.04,913.676 L1706.6,903.038 L1706.35,896.417 L1703.03,887.56 L1702.81,885.054 L1703.27,879.016 L1705.16,873.073 L1709.81,863.341 L1713.21,858.878 L1723.08,850.132 L1730.89,841.146 L1738.07,830.941 L1740.95,825.434 L1746.61,818.694 L1750.56,813.067 L1758.03,800.977 L1761.44,798.355 L1770.32,793.952 L1775.84,790.806 L1778.15,788.929 L1778.29,786.318 L1775.96,783.669 L1775.63,782.113 L1775.9,781.262 L1780.88,774.399 L1783.21,769.582 L1787.82,764.063 L1793.72,759.204 L1798.31,753.21 L1799.81,750.792 L1802.31,744.337 L1805.33,740.743 L1810.17,732.924 L1811.48,728.396 L1813.72,727.242 L1817,723.435 L1820.56,718.483 L1825.53,712.667 L1827.33,709.77 L1833.38,702.556 L1840.7,697.384 L1845.99,694.531 L1851.55,692.489 L1856.8,691.27 L1868.9,689.785 L1871.24,688.754 L1875.6,686.299 L1885.15,674.449 L1889.12,670.664 L1892.73,668.017 L1897.95,665.749 L1909.47,664.036 L1911.82,662.826 L1914.99,660.381 L1917.84,655.457 L1921.27,651.482 L1925.98,648.348 L1936.43,638.21 L1941.67,632.285 L1945.26,627.463 L1949.63,620.788 L1951.1,617.485 L1950.96,614.264 L1949.68,612.015 L1943.63,609.953 L1937.22,606.075 L1934.04,601.215 L1932.48,599.279 L1931.28,598.621 L1917.75,594.35 L1912.14,593.521 L1906.32,593.305 L1904.4,591.832 L1904.53,590.65 L1906.35,586.602 L1909.76,582.751 L1912.9,575.21 L1913.51,572.909 L1913.11,566.842 L1916.29,562.834 L1920.02,555.856 L1922.61,552.808 L1926.52,543.064 L1928.1,533.994 L1929.47,531.272 L1934.48,524.418 L1944.4,512.74 L1950.59,515.428 L1953.71,517.663 L1957.16,517.985 L1958,513.186 L1957.62,513.186 L1957.55,512.062 L1963.21,512.487 L1967.36,514.735 L1968.94,516.224 L1968.73,516.801 L1964.2,513.763 L1961.56,513.125 L1961.18,513.641 L1960.43,513.459 L1960.3,513.945 L1959.46,513.945 L1957.32,519.869 L1959.89,520.719 L1960.12,520.324 L1961.89,520.783 L1964.2,514.613 L1965.28,515.859 L1965.33,516.679 L1964.16,518.198 L1964.69,521.033 L1965.36,521.973 L1968.94,522.456 L1969.94,522.129 L1970.96,522.813 L1971.3,522.062 L1971.25,522.871 L1971.96,523.47 L1973.19,524.041 L1973.79,523.435 L1973.39,524.297 L1973.94,524.84 L1975.05,525.3 L1975.94,524.318 L1975.74,525.874 L1977.63,528.133 L1978.47,528.119 L1979.61,526.659 L1980.2,526.554 L1978.63,529.286 L1982.21,532.659 L1984.77,530.24 L1982.99,534.387 L1984.42,537.245 L1986.8,539.907 L1988.25,540.956 L1989.81,541.321 L1992.17,543.441 L1994.45,544.148 L1994.21,545.494 L1995.52,546.588 L1996.96,546.862 L2000.21,549.051 L2001.58,549.302 L2003.34,550.51 L2003.72,550.184 L2007.71,552.713 L2009.46,552.361 L2011.35,553.707 L2012.23,553.562 L2010.77,555.13 L2011.3,558.192 L2013.78,560.419 L2023,566.263 L2029.9,570.327 L2083.94,598.659 L2088.81,601.848 L2094.24,604.249 L2095.94,605.511 L2106.72,610.17 L2110.66,613 L2115.58,615.553 L2119.59,617.448 L2123.54,618.335 L2123.91,619.083 L2129.34,622.292 L2138.72,626.247 L2143.73,627.866 L2152.45,632.595 L2159.07,634.697 L2159.47,635.23 L2163.09,636.613 L2165.93,637.283 L2175.48,642.448 L2180.98,644.633 L2189.88,647.597 L2191.27,648.589 L2193.86,649.498 L2198.73,651.051 L2198.76,650.714 L2200.33,651.118 L2205.3,653.183 L2229.06,660.284 L2233.25,662.009 L2265.14,669.61 L2269.75,670.13 L2272.14,670.873 L2277.25,670.865 L2285.39,674.427 L2294.49,676.445 L2294.75,676.917 L2301.67,678.75 L2311.08,680.234 L2314.27,681.698 L2324.03,684.844 L2325.35,685.679 L2332.5,687.204 L2339.74,686.631 L2341.61,687.043 L2344.26,688.413 L2350.83,690.14 L2358.65,691.042 L2397.73,698.378 L2400.06,698.421 L2401.62,697.713 L2401.7,695.366 L2403.67,693.778 L2405.14,694.266 L2408.52,693.999 L2409.83,694.699 L2419.26,692.961 L2427.92,702.8 L2429.28,703.516 L2429.29,704.45 L2428.96,704.605 L2427.43,703.251 L2425.47,704.986 L2424.6,703.62 L2425.86,702.315 L2419.49,695.356 L2414.48,698.893 L2410.89,695.859 L2408.33,696.094 L2407.86,696.844 L2407.82,703.233 L2408.12,703.456 L2415.93,701.811 L2416.21,702.144 L2416.04,702.529 L2410.12,703.923 L2409.67,704.847 L2409.68,707.297 L2410.04,707.622 L2413.05,707.115 L2412.68,704.397 L2413.25,704.357 L2413.51,706.993 L2417.35,706.588 L2417.09,703.322 L2417.65,703.403 L2418.3,704.418 L2417.7,707.845 L2417.29,708.271 L2416.39,707.987 L2416.16,707.48 L2411.95,707.927 L2409.3,715.831 L2409.89,719.843 L2412.04,727.193 L2416.55,735.413 L2418.17,737.215 L2418.79,737.073 L2421.8,739.843 L2429.14,745.06 L2434.25,747.505 L2434.93,748.333 L2438.72,750.412 L2438.61,751.053 L2439.9,753.021 L2441.63,753.123 L2443.15,752.452 L2442.14,751.228 L2444.1,752.336 L2448.05,753.477 L2450.85,755.329 L2454.66,756.927 L2457.98,760.857 L2459.83,760.652 L2460.79,761.042 L2460.49,761.712 L2461.34,762.367 L2467.36,765.814 L2466.82,766.922 L2467.24,768.537 L2466.62,772.468 L2466.57,773.785 L2467.15,774.264 L2466.84,776.603 L2470.56,776.596 L2471.33,776.098 L2471.73,775.386 L2470.91,773.963 L2472.89,770.832 L2474.8,768.874 L2475.03,769.195 L2472.42,772.255 L2474.35,774.781 L2477.63,776.988 L2479.68,776.274 L2478.77,777.319 L2480.31,779.651 L2481.27,779.957 L2482.02,779.054 L2480.67,780.934 L2481.47,782.972 L2480.93,784.002 L2481.93,785.003 L2483.5,788.394 L2486.89,792.063 L2491.23,795.399 L2497.22,798.679 L2503.71,803.515 L2507.22,804.195 L2512.76,809.186 L2519.13,812.611 L2520.03,814.285 L2525.8,818.933 L2528.58,820.523 L2532.77,824.521 L2533.12,824.265 L2533.59,824.643 L2533.59,825.634 L2534.44,825.63 L2534.83,827.332 L2535.94,827.245 L2535.92,828.445 L2537.09,828.618 L2537.99,831.583 L2538.63,831.418 L2538.89,832.617 L2540.38,833.28 L2539.25,833.557 L2538.97,835.537 L2536.96,836.314 L2537,837.429 L2540.55,841.834 L2544.79,844.851 L2548.93,849.254 L2554.07,851.665 L2557.34,853.751 L2559.9,854.758 L2563.7,854.448 L2567.42,855.869 L2567.2,856.327 L2564.16,855.1 L2561.6,854.956 L2560.5,855.459 L2557.75,858.207 L2563.24,862.95 L2564.79,863.009 L2565.28,861.824 L2565.52,860.742 L2565.05,858.199 L2567.77,860.028 L2566.2,860.925 L2565.11,863.364 L2566.8,865.932 L2569.2,868.051 L2570.3,868.187 L2571.65,866.105 L2570.37,868.518 L2570.43,869.289 L2573,871.867 L2575.17,873.07 L2576.51,874.648 L2587.9,881.07 L2595.21,884.308 L2598.18,886.564 L2604.56,889.103 L2607.58,891.082 L2617.68,895.236 L2626.97,898.418 L2630.84,899.277 L2632.85,901.203 L2635.76,901.201 L2638.38,901.849 L2649.94,906.269 L2657.77,907.725 L2675.32,912.359 L2690.2,915.041 L2699.78,915.859 L2700.36,914.943 L2701.56,914.084 L2701.84,914.373 L2700.7,915.172 L2699.36,918.632 L2699.22,919.599 L2699.6,920.086 L2700.89,920.064 L2699.28,921.57 L2696.85,925.878 L2695.14,931.399 L2694.28,938.4 L2695.72,949.498 L2695.61,952.938 L2694.31,958.616 L2691.8,963.799 L2691.54,966.078 L2692.4,970.928 L2689.52,976.517 L2688.87,984.259 L2686.93,987.094 L2686.59,995.674 L2687.75,998.72 L2687.01,1002.44 L2689.04,1005.64 L2690.08,1010.17 L2693.32,1013.16 L2695.94,1018.46 L2696.7,1021.22 L2700.19,1021.19 L2700.92,1021.91 L2699.74,1028.7 L2701.26,1032.49 L2699.25,1033.68 L2699.37,1034.25 L2701.13,1035.58 L2701.74,1039.74 L2699.8,1041.58 L2699.52,1042.65 L2699.9,1044.26 L2701.04,1045.51 L2701.67,1045.51 L2703.15,1044.42 L2703.64,1044.83 L2704.39,1048.92 L2706.25,1048.23 L2707.08,1049.41 L2707.95,1049.71 L2708.84,1052.14 L2708.81,1053.77 L2707.84,1055 L2702.48,1054.42 L2700.92,1056.49 L2698.83,1057.47 L2697.91,1059.17 L2698.75,1060.6 L2698.26,1061.09 L2694.72,1063.13 L2691.98,1064.07 L2691.72,1064.96 L2689.66,1065.88 L2689.43,1066.62 L2689.91,1067.05 L2689.55,1067.79 L2686.29,1069.89 L2687.92,1071.24 L2687.82,1071.85 L2685.02,1072.41 L2683.87,1071.49 L2682.81,1069.34 L2682.27,1068.96 L2681.41,1069.25 L2680.55,1069.79 L2679.55,1071.53 L2679.09,1072.88 L2679.31,1075.71 L2678.91,1076.46 L2677.76,1076.64 L2677.23,1077.25 L2677.51,1078.14 L2675.36,1078.42 L2674.25,1077.34 L2673.28,1077.78 L2673.68,1079.16 L2675.36,1081.27 L2674.47,1081.94 L2673.76,1081.53 L2673.02,1081.81 L2673.78,1084.77 L2675.61,1087.76 L2674.54,1088.71 L2673.08,1092.19 L2674.91,1094.38 L2674.78,1096.14 L2672.87,1098.39 L2674.39,1101.84 L2671.51,1105.46 L2670.26,1105.64 L2668.89,1105.07 L2668.63,1107.65 L2669.7,1109.1 L2669.95,1110.44 L2669.37,1111.1 L2664.79,1112.13 L2662.62,1116.21 L2661.98,1116.83 L2660.43,1117.24 L2659.97,1119.63 L2662.71,1121.91 L2663.67,1123.96 L2662.98,1126.56 L2661.48,1126.71 L2659.68,1125.51 L2658.81,1126.09 L2653.16,1130.27 L2652.39,1133.64 L2651.52,1135.23 L2647.12,1137.54 L2642.7,1138.6 L2639.08,1140.05 L2637.96,1139.7 L2636.77,1138.47 L2633.14,1137.21 L2632.95,1140.33 L2632.26,1141.83 L2628.29,1146.68 L2629,1153.3 L2626.78,1157.32 L2625.63,1163.3 L2627.23,1166.46 L2627.38,1167.63 L2626.76,1168.3 L2624.68,1168.22 L2623.56,1169.14 L2622.43,1174.62 L2622.84,1180.32 L2620.34,1182.66 L2622.73,1186.01 L2623.89,1188.62 L2623.64,1190.17 L2624.47,1191.04 L2625.31,1191.22 L2627.35,1190.08 L2629.56,1190.32 L2630.17,1190.89 L2629.26,1193.31 L2629.51,1194.34 L2630.9,1194.92 L2631.61,1195.76 L2631.38,1198.04 L2634.25,1198.65 L2634.23,1200.44 L2632.95,1202.5 L2633.01,1203.3 L2634.6,1205.46 L2635.82,1206.27 L2635.23,1209.7 L2635.46,1210.32 L2637.16,1210.86 L2637.44,1211.78 L2636.65,1212.69 L2636.65,1213.49 L2637.56,1215.58 L2639.6,1215.91 L2638.71,1217.74 L2639.13,1218.77 L2640.36,1219.89 L2643.68,1220.38 L2644.4,1220.05 L2645.6,1217.91 L2646.05,1218.5 L2645.8,1220.56 L2647.32,1223.22 L2647.77,1225.78 L2648.51,1226.19 L2649.8,1228.15 L2652.19,1229.84 L2653.3,1234.15 L2655.28,1237.93 L2655.05,1239.3 L2655.45,1241.5 L2654.33,1242.59 L2653.84,1244.92 L2651.35,1246.09 L2651.79,1248.18 L2650.91,1249.51 L2650.63,1252.31 L2649.54,1255.83 L2650.55,1259.94 L2652.7,1264.84 L2653.84,1266.65 L2656.13,1267.78 L2657.37,1269.06 L2658.13,1271.74 L2658.28,1275.84 L2657.36,1280.21 L2656.64,1281.38 L2654.33,1281.75 L2653.41,1285.66 L2653.78,1290.23 L2653.4,1292.8 L2654.56,1297.17 L2654.1,1298.76 L2653.14,1298.93 L2652.22,1300.17 L2652.17,1301.42 L2651.1,1304.2 L2651.96,1305 L2651.93,1306.57 L2652.57,1307.84 L2652.13,1309.3 L2651.55,1309.78 L2650.38,1309.45 L2649.77,1309.84 L2647.96,1314.01 L2644.98,1318.07 L2641.63,1318.06 L2640.51,1319.1 L2635.81,1321.06 L2632.04,1324.24 L2630.08,1326.94 L2628.07,1328.79 L2625.68,1328.91 L2622.68,1330.05 L2622.7,1336.07 L2623.49,1337.57 L2623.1,1342.42 L2623.61,1346.12 L2622.97,1348.06 L2621.16,1349.64 L2621.01,1350.99 L2621.56,1352.62 L2620.59,1357.64 L2615.66,1361.72 L2614.31,1367.54 L2614.28,1371.4 L2614.76,1374.76 L2615.95,1376.91 L2620.29,1378.88 L2623.98,1379.29 L2627.53,1382.02 L2628.08,1384.26 L2629.63,1385.54 L2631.05,1388.07 L2630.49,1391.91 L2631.75,1398.19 L2633.73,1400.23 L2635.02,1402.91 L2638.83,1405.9 L2641.76,1409.95 L2643.31,1411.08 L2647.53,1412.17 L2651.36,1414.93 L2653.74,1421.22 L2655.81,1423.47 L2649.34,1426.35 L2646.34,1427.12 L2642.71,1426.6 L2634.81,1424.52 L2627.48,1423.37 L2625.64,1427.4 L2624.65,1431.07 L2624.53,1441.13 L2626.56,1445.34 L2629.76,1448.04 L2634.66,1453.35 L2641.24,1465.34 L2653.86,1480.03 L2660.19,1492.86 L2660.95,1495.84 L2664.72,1501.63 L2664.69,1504.43 L2665.2,1504.87 L2668.25,1504.95 L2670.63,1506.1 L2673.75,1506.53 L2678.21,1508.53 L2679.56,1508.84 L2681.87,1508.41 L2685.55,1509.71 L2686.41,1510.4 L2686.23,1511.47 L2684.38,1514.01 L2684.25,1515.13 L2684.73,1515.79 L2687.88,1513.1 L2690.52,1515.11 L2688.36,1517.66 L2688.2,1518.45 L2689.01,1519.8 L2690.15,1519.68 L2692.26,1516.85 L2693.91,1518.92 L2696.63,1518.34 L2697.34,1519.89 L2699.19,1521.02 L2700.81,1520.71 L2702.41,1519.49 L2704.19,1519.49 L2704.7,1519.9 L2704.74,1520.89 L2703.45,1522.62 L2703.98,1523.53 L2706.37,1522.14 L2707.2,1522.36 L2708.24,1523.3 L2708.83,1525.87 L2710.52,1526.59 L2712.84,1531.43 L2714.27,1532.2 L2714.25,1529.88 L2714.68,1528.94 L2716.1,1528.71 L2717.85,1529.6 L2720.11,1529.56 L2722.12,1528.85 L2724.93,1529.41 L2728.08,1531.53 L2730.03,1530.77 L2732.31,1533.1 L2733.37,1532.95 L2734.47,1531.52 L2735.29,1529.15 L2737.09,1529.18 L2738.46,1531.43 L2739.07,1530.76 L2739.73,1528.5 L2741.21,1527.88 L2750.53,1534.63 L2750.4,1535.55 L2745.67,1539.74 L2742.83,1540.45 L2728.58,1547.05 L2720.46,1549.1 L2718.32,1550.9 L2712.28,1554.68 L2703.24,1559.09 L2699.53,1561.52 L2693.15,1566.74 L2689.42,1568.81 L2686.09,1569.65 L2679.54,1569.67 L2677.52,1570.14 L2673.2,1572.79 L2665.71,1574.96 L2656.59,1579.77 L2654.23,1582.95 L2650.83,1585.11 L2649.58,1587.86 L2643.23,1594.24 L2641.58,1597.17 L2637.34,1598.48 L2636,1599.66 L2634.62,1602.15 L2633.38,1602.78 L2632.2,1606.55 L2628.59,1613.6 L2627.83,1618.34 L2628.28,1621.87 L2629.47,1625.06 L2630.61,1626.52 L2631.54,1630.01 L2629.1,1638.23 L2625.75,1641.09 L2624.25,1641.7 L2622.27,1641.72 L2618.01,1637.88 L2616.44,1637.01 L2612.92,1637.21 L2610.36,1636.11 L2609.29,1635.1 L2608.13,1630.94 L2607.75,1624.63 L2606.85,1620.32 L2602.49,1614.16 L2601.71,1613.62 L2599.3,1613.49 L2598.11,1614.05 L2596.27,1617.02 L2593.4,1623.85 L2592.51,1628.1 L2591.28,1629.91 L2590.67,1632.6 L2598.15,1637.73 L2601.27,1639 L2600.18,1640.91 L2595.05,1644.2 L2593.4,1645.75 L2589.32,1647.67 L2586.07,1647.84 L2582.21,1646.63 L2579.64,1654.38 L2575.91,1657.87 L2572.8,1659.29 L2570.5,1661.35 L2561,1660.27 L2558.01,1660.91 L2556.71,1662.61 L2555.92,1664.69 L2555.16,1671.72 L2556.29,1674.98 L2554.8,1680.19 L2554.09,1680.5 L2552.87,1680.1 L2551.27,1678.98 L2549.29,1680.3 L2542.45,1679.54 L2540.9,1678.92 L2537.68,1676.07 L2534.03,1675.12 L2527.03,1675.87 L2523.66,1676.67 L2515.52,1682.77 L2511.43,1687.83 L2509.95,1693.6 L2509.12,1694.63 L2508.38,1696.81 L2508.1,1699.26 L2508.51,1703.59 L2508.17,1704.81 L2506.12,1708.26 L2502.32,1712.28 L2500.33,1716.79 L2500.56,1721.27 L2504.89,1734.83 L2505.39,1738.6 L2504.81,1740.3 L2498.01,1741.22 L2494.74,1740.94 L2482.71,1737.88 L2480.19,1736.02 L2476.27,1734.74 L2474.98,1735.58 L2475.35,1741.54 L2474.57,1742.76 L2471.83,1744.46 L2464.29,1747.03 L2463.18,1748.35 L2459.81,1759.95 L2458.99,1764.81 L2459.17,1767 L2460.03,1770.11 L2462.34,1773.57 L2464.54,1780.25 L2463.25,1781.62 L2456.26,1782.87 L2454.21,1782.41 L2450.08,1779.62 L2445.57,1779.21 L2442.18,1779.82 L2436.27,1782.99 L2427.02,1781.7 L2422.81,1779.53 L2421.75,1778.42 L2420.94,1776.5 L2421.06,1772.25 L2420.23,1766.82 L2418.86,1763.96 L2414.75,1760.72 L2410.72,1760.61 L2405.12,1762.59 L2404.95,1764.07 L2408.47,1769.52 L2408.33,1770.89 L2406.39,1770.9 L2403.96,1769.95 L2395.84,1764.2 L2392.96,1763.35 L2389.3,1760.86 L2387.7,1758.78 L2386.85,1755.77 L2387.37,1750.63 L2387.4,1742.4 L2385.58,1737.88 L2378.25,1734.26 L2374.6,1733.14 L2368.29,1732.21 L2365.02,1732.52 L2360.94,1733.79 L2358.48,1733.8 L2351.93,1731.61 L2350,1730.04 L2346.53,1729.35 L2343.97,1729.46 L2336.77,1725.25 L2333.48,1722.1 L2332.39,1720.48 L2327.16,1715.67 L2324.95,1714.65 L2323.99,1714.64 L2318.94,1717.84 L2316.99,1720.76 L2315.37,1725.32 L2313.88,1732.92 L2312.34,1735.04 L2311.12,1738.02 L2306.22,1743.31 L2301.62,1755.65 L2300.07,1757.92 L2296.93,1761.05 L2292.55,1764.38 L2289.48,1769.4 L2278.54,1776.83 L2273.65,1781.39 L2271.93,1783.61 L2270.58,1787.86 L2270.5,1789.84 L2272.76,1797.57 L2281.03,1805.76 L2283.3,1809.85 L2286.23,1810.08 L2288.14,1812.74 L2289.03,1812.97 L2290.96,1813.08 L2294.89,1811.74 L2296.06,1812.87 L2296.45,1816.77 L2297.57,1817.31 L2301.27,1816.78 L2303.42,1816.93 L2305.75,1817.92 L2309.51,1815.64 L2309.69,1818.1 L2310.96,1820.37 L2310.81,1821.61 L2309.72,1822 L2304.15,1820.69 L2299.44,1820.39 L2298.49,1823.05 L2298.3,1829.25 L2294.1,1840.09 L2294.39,1845.75 L2295.43,1850.76 L2296.64,1853.17 L2303.31,1861.82 L2304.73,1865.5 L2304.43,1866.75 L2301.97,1868.59 L2298.65,1873.47 L2298.94,1877.36 L2300.23,1881.2 L2300.05,1882.65 L2299.37,1886.51 L2297,1889.75 L2296.43,1902.05 L2293.44,1904.95 L2292.94,1906.93 L2295.75,1911.3 L2297.96,1913.33 L2299.73,1917.94 L2300.77,1918.75 L2303.03,1919.32 L2304.09,1920.83 L2303.41,1922.77 L2300.32,1927.24 L2293.31,1933.37 L2291.82,1935.86 L2291.44,1938.88 L2293.12,1941.47 L2294.89,1945.98 L2294.46,1948.31 L2291.02,1956.72 L2287.91,1959.5 L2286.52,1962.51 L2282.65,1975.52 L2281.42,1981.44 L2280.2,1983.16 L2277.67,1985.18 L2277.29,1986.2 L2276.98,2001.11 L2276.45,2002.99 L2272.33,2010.71 L2272.3,2012.26 L2273.47,2016.76 L2275.95,2020.12 L2276.89,2023.06 L2276.74,2028.5 L2275.86,2033.88 L2277.08,2043.21 L2277.16,2045.11 L2276.48,2048.23 L2276.73,2049.3 L2279.72,2055.73 L2282.39,2058.95 L2283.73,2060.2 L2289.39,2061.44 L2291.02,2063.77 L2293.55,2065.22 L2296.99,2065.37 L2301.83,2066.7 L2303.25,2067.6 L2305.28,2067.78 L2306.04,2067.06 L2307.45,2063.2 L2309.25,2061.17 L2308.82,2059.16 L2309.37,2058.97 L2312.3,2060.4 L2312.49,2061.96 L2310.27,2063.22 L2310.18,2064.03 L2310.92,2065.2 L2313.3,2066.72 L2320.05,2068.18 L2321.91,2069.16 L2329.57,2069.42 L2330.58,2069.69 L2334.33,2072.46 L2338.48,2073.19 L2343.2,2079.79 L2347.08,2086.96 L2361.7,2103.49 L2362.97,2105.45 L2363.37,2108.27 L2364.13,2109.69 L2367.32,2111.41 L2381.85,2124.81 L2384.04,2126.11 L2388.12,2127.02 L2396.22,2134.31 L2398.62,2135.83 L2401.1,2136.69 L2402.71,2138.78 L2405.35,2140.22 L2409.52,2146.44 L2415.01,2149.87 L2419.99,2156.24 L2425.51,2165.14 L2420.33,2165.5 L2412.29,2169.1 L2408.82,2174.06 L2405.23,2177.87 L2401.72,2183.57 L2397.74,2182.73 L2390.79,2182.62 L2388.49,2183.01 L2384.7,2185.12 L2381.96,2185.73 L2376.81,2185.61 L2374.35,2184.79 L2373.85,2185.99 L2374.76,2189.26 L2374.79,2191.7 L2372.99,2193.73 L2372.99,2194.44 L2374.64,2196.21 L2376.64,2199.8 L2376.84,2203.03 L2374.08,2210.58 L2371.99,2213.96 L2363.96,2214.5 L2360.22,2215.25 L2355.69,2218.69 L2348.08,2221.39 L2341.53,2222.14 L2337.99,2223.09 L2330.84,2223.16 L2326.06,2224.17 L2324.24,2225.49 L2320.5,2232.04 L2318.3,2234.46 L2311.12,2239.48 L2308.47,2244.8 L2305.34,2245.48 L2297.3,2250.54 L2292.02,2251.95 L2280.09,2253.82 L2273.64,2256.69 L2267.35,2258.2 L2262.98,2260.13 L2260.33,2260.78 L2255.37,2261.53 L2250.95,2260.97 L2248.98,2260.17 L2245.82,2260.39 L2238.57,2264.2 L2235.3,2264.35 L2227.49,2262.34 L2221.18,2262.37 L2217.33,2263.89 L2212.33,2267.61 L2204.32,2269.08 L2195.5,2269.96 L2192.8,2271.31 L2188.27,2274.54 L2184.35,2273.83 L2181.34,2275.63 L2176.04,2280.92 L2173.39,2282.54 L2170.83,2282.72 L2167.07,2281.79 L2165.4,2282.38 L2160.73,2286.47 L2157.8,2289.74 L2156.47,2293.83 L2156.62,2296.87 L2156.02,2298.23 L2153.12,2300.28 L2150.72,2301.17 L2145.06,2306.07 L2144.23,2308 L2145.47,2310 L2144.67,2314.14 L2143.28,2315.76 L2137.9,2319.45 L2135.05,2322.81 L2130.09,2330.13 L2125.82,2333.24 L2122.59,2334.36 L2119.79,2334.31 L2117.99,2333.78 L2114.55,2334.13 L2112.51,2333.85 L2110.34,2335.37 L2107.86,2338.12 L2105.54,2338.96 L2099.96,2337.72 L2095.61,2335.98 L2091.47,2336.37 L2084.89,2335.85 L2078.19,2333.55 L2072.38,2329.25 L2065.8,2326.12 L2062.53,2322.65 L2062.1,2318.49 L2061.64,2317.63 L2054.05,2315.87 L2051.65,2314.81 L2047.58,2314.69 L2044.55,2314.01 L2038.76,2310.83 L2034.25,2305.39 L2028.78,2300.48 L2023.36,2298.2 L2019.27,2297.78 L2014.31,2296.29 L2011.8,2293.51 L2011.01,2288.26 L2007.44,2282.73 L2006.82,2280.52 L2005.86,2279.17 L1999.68,2274.62 L1995.51,2273.98 L1993.36,2271.96 L1987.84,2269.76 L1975.82,2263.09 L1969.19,2262.02 L1966.62,2262.08 L1966.43,2260.48 L1963.68,2259.82 L1956.45,2261.34 L1948.43,2265.89 L1944.59,2269.32 L1941.61,2271.3 L1931.6,2281.12 L1929.57,2286.96 L1926.57,2290.62 L1925.7,2294.58 L1926.44,2296.99 L1927.94,2299.27 L1929.32,2305.5 L1928.73,2314.1 L1921.06,2327.31 L1917.71,2331.99 L1916.08,2337.12 L1915.3,2337.88 L1912.47,2339.01 L1910.46,2341.7 L1910.45,2344.61 L1914.58,2351 L1914.77,2354.98 L1914.14,2357.21 L1912.63,2359.57 L1908.17,2360.78 L1899.59,2365.19 L1898.05,2366.77 L1896.64,2369.13 L1892.5,2377.74 L1889.78,2380.3 L1884.43,2383.46 L1881.71,2384.34 L1878.88,2384.67 L1872.23,2384.44 L1863.5,2386.11 L1857.46,2386.23 L1850.07,2389.04 L1842.22,2392.74 L1830.47,2399.34 L1821.44,2401.81 L1816.67,2404.42 L1812.51,2406.13 L1811.02,2406.31 L1807.31,2405.63 L1801.24,2403.53 L1797.67,2400.43 L1795.33,2397.32 L1793.89,2396.59 L1790.76,2396.04 L1789.08,2395.06 L1785.46,2390.97 L1784.01,2387.08 L1783.66,2383.21 L1780.63,2380.23 L1772.88,2376.86 L1759.9,2378.66 L1756.41,2378.24 L1747.91,2374.9 L1740.48,2379.89 L1738.92,2380.27 L1736.85,2382.47 L1735.61,2382.12 L1734.88,2382.37 L1732.51,2384.21 L1729.01,2385.38 L1726.18,2387.07 L1718.91,2388.64 L1715.74,2389.77 L1710.33,2390.37 L1702.7,2389.95 L1699.26,2388.9 L1698.76,2390.04 L1697.83,2390.6 L1694.72,2391.57 L1694.79,2394.16 L1692.88,2398.36 L1694.98,2403.61 L1696.02,2404.84 L1697.21,2405.76 L1702.52,2407.54 L1703.74,2409.94 L1703.9,2412.23 L1703.36,2415.83 L1700.44,2418.35 L1699.61,2419.81 L1698.44,2424.16 L1697.66,2425.01 L1696.05,2425.33 L1693.38,2427.73 L1692.29,2427.37 L1690.8,2426.31 L1689.04,2421.83 L1686.91,2420.45 L1685.31,2417.69 L1679.79,2415.32 L1675.77,2414.77 L1671.71,2415.84 L1666.75,2419.66 L1661.31,2422.68 L1658.84,2424.66 L1656.54,2425.29 L1654.87,2428.56 L1653.08,2430.39 L1645.1,2435.19 L1643.56,2436.47 L1641.75,2439.16 L1636.22,2443.83 L1631.1,2450.94 L1629.04,2454.71 L1626.69,2463.64 L1626.39,2466.53 L1625.69,2467.75 L1622.04,2470.9 L1617.16,2476.35 L1601.92,2489.68 L1598.81,2493.11 L1595.8,2497.83 L1590.12,2498.1 L1586.73,2497.21 L1584.26,2497.46 L1582.67,2497.15 L1575.88,2503.31 L1573.47,2506.16 L1571.32,2509.87"/>
  </g>
  <g stroke-width="1" transform="matrix(0.999744,0,0,0.999744,0,0)" stroke-opacity="1" font-size="34.5833" fill="none" stroke-linejoin="bevel" font-style="normal" stroke-linecap="square" stroke="#000000" font-family="MS Shell Dlg 2" font-weight="400"/>
  <g stroke-width="1" transform="matrix(11.808,0,0,11.808,0,0)" stroke-opacity="1" font-size="34.5833" fill="none" stroke-linejoin="bevel" font-style="normal" stroke-linecap="square" stroke="#000000" font-family="MS Shell Dlg 2" font-weight="400"/>
  <g stroke-width="1" transform="matrix(11.808,0,0,11.808,0,0)" stroke-opacity="1" font-size="34.5833" fill="none" stroke-linejoin="bevel" font-style="normal" stroke-linecap="square" stroke="#000000" font-family="MS Shell Dlg 2" font-weight="400"/>
  <g stroke-width="1" transform="matrix(11.808,0,0,11.808,0,0)" stroke-opacity="1" font-size="34.5833" fill="none" stroke-linejoin="bevel" font-style="normal" stroke-linecap="square" stroke="#000000" font-family="MS Shell Dlg 2" font-weight="400"/>
  <g stroke-width="1" transform="matrix(1,0,0,1,0,0)" stroke-opacity="1" font-size="34.5833" fill="none" stroke-linejoin="bevel" font-style="normal" stroke-linecap="square" stroke="#000000" font-family="MS Shell Dlg 2" font-weight="400"/>
  <g stroke-width="1" transform="matrix(11.808,0,0,11.808,0,0)" stroke-opacity="1" font-size="34.5833" fill="none" stroke-linejoin="bevel" font-style="normal" stroke-linecap="square" stroke="#000000" font-family="MS Shell Dlg 2" font-weight="400"/>
  <g stroke-width="1" transform="matrix(11.808,0,0,11.808,0,0)" stroke-opacity="1" font-size="34.5833" fill="none" stroke-linejoin="bevel" font-style="normal" stroke-linecap="square" stroke="#000000" font-family="MS Shell Dlg 2" font-weight="400"/>
  <g stroke-width="1" transform="matrix(11.808,0,0,11.808,0,0)" stroke-opacity="1" font-size="34.5833" fill="none" stroke-linejoin="bevel" font-style="normal" stroke-linecap="square" stroke="#000000" font-family="MS Shell Dlg 2" font-weight="400"/>
  <g stroke-width="1" transform="matrix(11.808,0,0,11.808,0,0)" stroke-opacity="1" font-size="34.5833" fill="none" stroke-linejoin="bevel" font-style="normal" stroke-linecap="square" stroke="#000000" font-family="MS Shell Dlg 2" font-weight="400"/>
  <g stroke-width="1" transform="matrix(1,0,0,1,0,0)" stroke-opacity="1" font-size="34.5833" fill="none" stroke-linejoin="bevel" font-style="normal" stroke-linecap="square" stroke="#000000" font-family="MS Shell Dlg 2" font-weight="400"/>
 </g>
</svg>
