<?xml version='1.0' encoding='UTF-8' standalone='no'?>
<svg width="249.936mm" version="1.2" viewBox="0 0 2952 2952" baseProfile="tiny" xmlns="http://www.w3.org/2000/svg" height="249.936mm" xmlns:xlink="http://www.w3.org/1999/xlink">
 <title>Qt SVG Document</title>
 <desc>Generated with Qt</desc>
 <defs/>
 <g fill="none" stroke="black" fill-rule="evenodd" stroke-width="1" stroke-linecap="square" stroke-linejoin="bevel">
  <g font-size="34.5833" font-style="normal" fill="none" stroke="#000000" transform="matrix(1,0,0,1,0,0)" font-family="MS Shell Dlg 2" stroke-opacity="1" stroke-width="1" stroke-linecap="square" font-weight="400" stroke-linejoin="bevel"/>
  <g font-size="34.5833" font-style="normal" fill="none" stroke="#000000" transform="matrix(1,0,0,1,0,0)" font-family="MS Shell Dlg 2" stroke-opacity="1" stroke-width="1" stroke-linecap="square" font-weight="400" stroke-linejoin="bevel"/>
  <g font-size="34.5833" font-style="normal" fill="none" stroke="#000000" transform="matrix(11.808,0,0,11.808,0,0)" font-family="MS Shell Dlg 2" stroke-opacity="1" stroke-width="1" stroke-linecap="square" font-weight="400" stroke-linejoin="bevel"/>
  <g font-size="34.5833" font-style="normal" fill="none" stroke="#000000" transform="matrix(0.999744,0,0,0.999744,0,0)" font-family="MS Shell Dlg 2" stroke-opacity="1" stroke-width="1" stroke-linecap="square" font-weight="400" stroke-linejoin="bevel"/>
  <g font-size="34.5833" font-style="normal" fill="#ffffff" stroke="none" transform="matrix(0.999744,0,0,0.999744,0,0)" font-family="MS Shell Dlg 2" fill-opacity="0" font-weight="400">
   <path vector-effect="none" d="M-2,-2 L2955,-2 L2955,2955 L-2,2955 L-2,-2" fill-rule="evenodd"/>
  </g>
  <g font-size="34.5833" font-style="normal" fill="none" stroke="#000000" transform="matrix(0.999744,0,0,0.999744,0,0)" font-family="MS Shell Dlg 2" stroke-opacity="1" stroke-width="1" stroke-linecap="square" font-weight="400" stroke-linejoin="bevel"/>
  <g font-size="34.5833" font-style="normal" fill="none" stroke="#000000" transform="matrix(11.808,0,0,11.808,0,0)" font-family="MS Shell Dlg 2" stroke-opacity="1" stroke-width="1" stroke-linecap="square" font-weight="400" stroke-linejoin="bevel"/>
  <g font-size="34.5833" font-style="normal" fill="none" stroke="#000000" transform="matrix(11.808,0,0,11.808,0,0)" font-family="MS Shell Dlg 2" stroke-opacity="1" stroke-width="1" stroke-linecap="square" font-weight="400" stroke-linejoin="bevel"/>
  <g font-size="34.5833" font-style="normal" fill="none" stroke="#000000" transform="matrix(11.808,0,0,11.808,0,0)" font-family="MS Shell Dlg 2" stroke-opacity="1" stroke-width="1" stroke-linecap="square" font-weight="400" stroke-linejoin="bevel"/>
  <g font-size="34.5833" font-style="normal" fill="none" stroke="#000000" transform="matrix(11.808,0,0,11.808,0,0)" font-family="MS Shell Dlg 2" stroke-opacity="1" stroke-width="1" stroke-linecap="square" font-weight="400" stroke-linejoin="bevel"/>
  <g font-size="34.5833" font-style="normal" fill="none" stroke="#000000" transform="matrix(11.808,0,0,11.808,0,0)" font-family="MS Shell Dlg 2" stroke-opacity="1" stroke-width="1" stroke-linecap="square" font-weight="400" stroke-linejoin="bevel"/>
  <g font-size="34.5833" font-style="normal" fill="#ffffff" stroke="none" transform="matrix(11.808,0,0,11.808,0,0)" font-family="MS Shell Dlg 2" fill-opacity="0" font-weight="400">
   <path vector-effect="none" d="M0,0 L250,0 L250,250 L0,250 L0,0" fill-rule="evenodd"/>
  </g>
  <g font-size="34.5833" font-style="normal" fill="none" stroke="#000000" transform="matrix(11.808,0,0,11.808,0,0)" font-family="MS Shell Dlg 2" stroke-opacity="1" stroke-width="1" stroke-linecap="square" font-weight="400" stroke-linejoin="bevel"/>
  <g font-size="34.5833" font-style="normal" fill="none" stroke="#000000" transform="matrix(11.808,0,0,11.808,0,0)" font-family="MS Shell Dlg 2" stroke-opacity="1" stroke-width="1" stroke-linecap="square" font-weight="400" stroke-linejoin="bevel"/>
  <g font-size="34.5833" font-style="normal" fill="#000000" stroke="none" transform="matrix(0.999744,0,0,0.999744,0,0)" font-family="MS Shell Dlg 2" fill-opacity="0" font-weight="400">
   <rect width="2953" x="0" y="0" height="2953"/>
  </g>
  <g font-size="34.5833" font-style="normal" fill="none" stroke="#000000" transform="matrix(0.999744,0,0,0.999744,0,0)" font-family="MS Shell Dlg 2" stroke-opacity="1" stroke-width="1" stroke-linecap="square" font-weight="400" stroke-linejoin="bevel"/>
  <g font-size="34.5833" font-style="normal" fill="#c5c5c5" stroke="#5c5c5c" transform="matrix(0.999744,0,0,0.999744,0,0)" font-family="MS Shell Dlg 2" fill-opacity="1" stroke-opacity="1" stroke-width="3.07087" stroke-linecap="square" font-weight="400" stroke-linejoin="bevel">
   <path vector-effect="none" d="M320.361,1148.42 L325.625,969.048 L389.517,744.838 L373.888,502.689 L349.29,349.644 L304.369,276.906 L280.778,208.198 L295.817,153.546 L341.426,109.51 L447.617,60.0019 L454.957,66.2272 L488.205,95.2569 L639.185,274.94 L660.614,327.036 L666.364,353.674 L782.745,353.575 L912.199,351.708 L1004.15,359.277 L1058.22,389.06 L1123.09,444.99 L1181.87,504.949 L1248.09,534.962 L1360.18,553.703 L1518.99,632.274 L1623.41,714.481 L1738.02,834.237 L1818.82,947.603 L1871.23,1019.22 L1898.14,1256.36 L1924.09,1366.06 L2007.64,1572.09 L2111.25,1700.26 L2451.94,2170.55 L2484.72,2194.98 L2550.13,2225.6 L2602.92,2261.77 L2742.2,2528 L2600.02,2644.28 L2391.24,2815.12 L2388.55,2817.23 L2382.33,2809.56 L2388.44,2805.72 L2392.01,2800.96 L2393.98,2794.05 L2389.52,2786.91 L2386.12,2786.36 L2380.23,2793.37 L2377.44,2789.7 L2377.77,2786.66 L2379.42,2785.62 L2378.25,2784.14 L2377.25,2784.23 L2375.85,2783 L2373.74,2781.49 L2369.73,2779.89 L2364.17,2779.21 L2360.7,2779.98 L2347.94,2774.06 L2325.2,2766.7 L2314.06,2765.41 L2298.06,2752.26 L2301.57,2750.24 L2299.15,2747.55 L2298.14,2743.35 L2294.07,2741.41 L2289.67,2744.84 L2287.15,2740.43 L2285.13,2740.28 L2283.69,2742.94 L2281.59,2736.54 L2275.01,2737.52 L2271.16,2731.17 L2265.77,2729.37 L2262.11,2725.52 L2257.32,2721.33 L2255.91,2717.62 L2252.87,2712.43 L2250.24,2708.71 L2248.8,2706.13 L2245.91,2704.53 L2244.71,2704.49 L2239.36,2699.64 L2237.85,2697.77 L2236.15,2697.86 L2235.98,2695.64 L2231.82,2692.1 L2226.83,2689.2 L2223.57,2687.85 L2218.61,2686.46 L2216.26,2685.7 L2213.37,2683.56 L2211.02,2680.69 L2209.01,2679.42 L2206.77,2677.35 L2204.65,2674.65 L2202.52,2673.37 L2196.86,2669.45 L2193.97,2666.67 L2191.8,2661.08 L2190.39,2655.58 L2190.69,2648.83 L2190.32,2638.65 L2190.59,2631.62 L2189.39,2627.92 L2191.14,2622.45 L2191.71,2617.6 L2192.56,2611.66 L2192.18,2607.45 L2192.85,2603.96 L2193.69,2600.27 L2195.42,2598.32 L2196.46,2595.49 L2198.25,2591.99 L2200.06,2589.15 L2204.17,2581.75 L2204.79,2578.21 L2207.37,2572.87 L2211.43,2571.98 L2214.28,2569.02 L2217.32,2565.95 L2220.14,2563.75 L2222.56,2561.9 L2224.61,2558.42 L2226.98,2553.01 L2228.97,2549.67 L2231.23,2544.55 L2232.99,2542.64 L2235.27,2535.16 L2236.64,2531.49 L2241.34,2521.52 L2241.69,2519.38 L2241.71,2519.21 L2242.31,2515.79 L2241.97,2512.69 L2241.14,2509.06 L2241.11,2508.95 L2240.93,2508.09 L2240.9,2507.98 L2241.26,2507.1 L2240.71,2504.59 L2240.63,2503.08 L2241.71,2495.39 L2241.56,2493.19 L2241.11,2491.05 L2241.09,2490.94 L2241.04,2489.67 L2239.63,2487.81 L2237.98,2484.82 L2236.44,2480.97 L2235.61,2479.6 L2236.78,2478.48 L2238.81,2478.35 L2238.76,2477.66 L2238.26,2477.14 L2237.58,2477.72 L2236.07,2478.12 L2234.02,2476.78 L2233.62,2473.39 L2232.68,2470.63 L2229.54,2465.09 L2226.24,2459.54 L2224.22,2455.86 L2221.54,2450.22 L2217.69,2442.31 L2214.38,2436.4 L2211.99,2432.58 L2209.57,2428.82 L2207.34,2425.88 L2206.34,2423.96 L2206.29,2423.86 L2204.21,2421.64 L2202.59,2418.5 L2201.5,2414.97 L2197.2,2407.25 L2195.21,2404.65 L2190.68,2400.38 L2186.88,2396.21 L2184.86,2394.88 L2177.17,2387.41 L2174.63,2385.42 L2172.69,2382.66 L2165.37,2376.19 L2158.33,2370.03 L2152.72,2365.81 L2147.76,2362.31 L2140.21,2357.72 L2132.91,2354.64 L2125.53,2351.68 L2120.29,2350.17 L2116.07,2349.83 L2111.28,2349.96 L2106.67,2351.94 L2105.27,2353.97 L2103.79,2356.04 L2100.82,2357.12 L2097.62,2360.11 L2094.5,2361.77 L2089.16,2363.72 L2080.63,2363.72 L2075.11,2359.4 L2069.51,2354.48 L2067.02,2354.48 L2063.69,2353.77 L2057.3,2354.33 L2053.42,2352.49 L2050.8,2350.38 L2048.03,2346.29 L2045.88,2344.58 L2040.96,2343.45 L2039.28,2342.52 L2037.6,2340.94 L2035.57,2340.1 L2033.78,2337.11 L2032.48,2332.38 L2033.32,2326.28 L2029.3,2321.45 L2026.27,2320.73 L2025.8,2318.03 L2023.69,2313.54 L2021.42,2310.48 L2021.15,2306.16 L2022.37,2304.34 L2024.34,2303.06 L2028.64,2301.81 L2031.46,2299.69 L2030.69,2293.43 L2028.06,2287.66 L2026.92,2285.31 L2024.14,2282 L2020.73,2278.61 L2016.74,2276.61 L2014.28,2275.9 L2013.89,2276.3 L2013.02,2276.57 L2012.73,2275.62 L2006.74,2278.74 L2004.33,2279.46 L2001.77,2278.93 L2000.3,2279.99 L2000.02,2281.43 L1996.35,2282.6 L1993.93,2282.43 L1988.32,2279.23 L1982.33,2277.04 L1983.22,2279.45 L1978.37,2277.79 L1974.73,2275 L1969.36,2274.77 L1966.73,2271.09 L1962.64,2268.96 L1960.22,2266.55 L1953.81,2263.29 L1949.01,2256.89 L1948.74,2255.76 L1948.14,2255.2 L1947.87,2255.44 L1947.51,2255.75 L1945.81,2256.71 L1945.31,2254.64 L1944.45,2251.33 L1942.29,2249.55 L1939.58,2249.94 L1939.44,2244.73 L1939.77,2244.29 L1940.08,2244.39 L1940.14,2243.94 L1939.64,2243.49 L1940.06,2242.77 L1941.78,2241.03 L1942.89,2240.19 L1942.95,2236.24 L1942.25,2233.07 L1940.67,2230.2 L1939.04,2228.14 L1937.02,2225.12 L1935.63,2222.9 L1930.87,2218.22 L1926.81,2215.29 L1922.45,2213.01 L1916.3,2210.15 L1912.33,2208.39 L1909.14,2207.18 L1903.43,2205.11 L1899.39,2203.71 L1895.96,2202.98 L1892.15,2202.58 L1888.56,2202.46 L1885.81,2202.54 L1883.98,2203.87 L1883.15,2204.94 L1881.47,2207.12 L1881.23,2207.61 L1881.27,2208.19 L1881.42,2208.83 L1881.88,2210.54 L1882.44,2212.62 L1882.9,2214.36 L1882.94,2216.44 L1882.96,2217.17 L1883.81,2217.29 L1884.6,2217.39 L1884.75,2215.05 L1884.07,2214.48 L1883.92,2214.24 L1884.12,2214.06 L1885.63,2215.15 L1885.19,2221.19 L1883.72,2221.18 L1882.44,2218.27 L1880.23,2218.2 L1878.59,2217.59 L1877.6,2216.62 L1877.79,2216.08 L1877.97,2216.05 L1880.08,2215.9 L1879,2213.16 L1877.43,2208.95 L1875.14,2209.44 L1874.28,2207.99 L1872.89,2208.98 L1872.12,2210.53 L1870.39,2210.61 L1867.74,2208.77 L1865.34,2209.26 L1862.01,2207.33 L1861.25,2208.79 L1858.43,2209.39 L1856.35,2208.73 L1855.01,2210.07 L1853.3,2209.22 L1851.68,2208.02 L1849.99,2207.11 L1849.08,2207.42 L1844.18,2204.83 L1843.84,2203.63 L1839.51,2202.32 L1839.03,2202.05 L1837.57,2200.1 L1835.97,2201.01 L1834.09,2200.38 L1834.81,2198.99 L1831.98,2194.97 L1830.47,2197.59 L1827.88,2196.94 L1828.45,2194.54 L1827.11,2193.91 L1827.37,2193.06 L1826.43,2192.43 L1826.1,2192.72 L1826.81,2193.27 L1824.21,2193.55 L1823.96,2193.23 L1823.25,2193.19 L1823.11,2193.56 L1822.3,2193.65 L1821.9,2192.7 L1820.93,2192.29 L1820.3,2192.68 L1820.02,2194.15 L1819.55,2194.2 L1819.02,2193.84 L1818.8,2194.31 L1817.34,2194.56 L1817.47,2195.07 L1816.13,2196.02 L1817.69,2196.48 L1817.69,2197.36 L1815.91,2196.99 L1815.78,2197.68 L1815.43,2198.03 L1814.74,2197.35 L1810.53,2196.35 L1808.99,2197.08 L1806.39,2196.44 L1805.74,2195.48 L1807.88,2195.05 L1805.97,2194.21 L1804.74,2194.9 L1804.6,2196.05 L1798.37,2194.7 L1800.3,2193.19 L1801.98,2193.65 L1803.5,2193.33 L1802.39,2192.12 L1800.61,2191.99 L1799.75,2191.7 L1798.86,2191.39 L1797.66,2190.72 L1797.24,2191.25 L1795.61,2190.63 L1796.91,2188.67 L1793.28,2187.06 L1790.98,2186.26 L1789.28,2185.53 L1781.49,2183.88 L1778.13,2183.71 L1776.45,2185.06 L1773.94,2182.91 L1771.22,2179.76 L1768.89,2176.36 L1766.36,2174.74 L1763.73,2172.51 L1763.05,2171.2 L1764.31,2170.64 L1764.94,2169.16 L1764.67,2165.92 L1763.19,2160.72 L1761.57,2156 L1759.91,2152.14 L1757.81,2145.25 L1756.81,2142.54 L1756.28,2139.82 L1755.21,2135.41 L1753.97,2134.15 L1754,2133.49 L1754.58,2133.17 L1755.23,2133.08 L1755.13,2130.45 L1754.29,2126.91 L1752.62,2123.24 L1751.22,2121.96 L1749.8,2121.62 L1748.64,2119.97 L1747.49,2118.86 L1743.92,2117 L1740.67,2115.63 L1736.7,2114.61 L1732.73,2113.79 L1728.44,2112.97 L1725.71,2112.38 L1722.76,2111.74 L1718.83,2110.6 L1715.99,2110.18 L1715.26,2111.35 L1714.24,2111.62 L1713.47,2111.77 L1712.74,2110.99 L1711.66,2110.36 L1710.62,2110.68 L1709.83,2110.42 L1709.31,2109.71 L1707.62,2109.75 L1704.78,2108.14 L1701.14,2105.49 L1696.1,2107.62 L1689.06,2106.06 L1682.34,2105.21 L1680.56,2101.95 L1676.25,2099.54 L1673.52,2097.41 L1669.98,2094.54 L1667.51,2091.95 L1666,2089.17 L1665.87,2082.88 L1662.99,2083.25 L1658.46,2082.51 L1659.28,2076.4 L1662.3,2074.36 L1661.2,2071.59 L1657.64,2068.25 L1651.61,2066.59 L1642.69,2063.44 L1635.97,2062.7 L1634.74,2057.7 L1629.53,2054.74 L1626.51,2052.49 L1625.55,2051.78 L1619.79,2048.63 L1618.56,2043.26 L1613.9,2042.89 L1612.8,2039 L1607.32,2039.19 L1602.79,2036.78 L1599.77,2034.37 L1600.19,2027.89 L1597.44,2026.41 L1597.03,2022.89 L1592.93,2022.35 L1592.45,2022.83 L1591.93,2022.05 L1590.93,2021.79 L1590.43,2021.87 L1590.1,2022.17 L1589.8,2022.55 L1589.91,2023.04 L1586.73,2023.8 L1585.32,2023.88 L1584.37,2024.2 L1582.38,2021.73 L1581.55,2022.04 L1580.77,2020.57 L1580.1,2021.24 L1578.19,2018.72 L1576.48,2019.15 L1574.85,2018.62 L1575.08,2017.26 L1574.23,2016.92 L1573.88,2017.63 L1573.4,2017.48 L1572.91,2018.04 L1570.93,2015.91 L1571.53,2015.42 L1570.34,2013.79 L1571.42,2012.16 L1571.45,2010.9 L1571.05,2011.74 L1570.2,2012.22 L1566.21,2010.26 L1565.82,2006.06 L1565.66,2005.44 L1564.81,2004.94 L1564.33,2004.25 L1563.1,2003.14 L1562.99,2002.41 L1561.19,2000.9 L1560.04,2000.11 L1559.36,1998.47 L1557.66,1996.4 L1556.58,1996.21 L1551.05,1987.96 L1547.75,1982.36 L1545.35,1980.8 L1544.79,1976.84 L1545.68,1973.17 L1543.01,1970.17 L1543.68,1965.86 L1544.66,1961.39 L1542.33,1957.25 L1540.41,1953.91 L1540.99,1949.38 L1546.69,1946.77 L1547.54,1941.79 L1551.41,1943.95 L1552.52,1942.07 L1553.65,1940.15 L1554.76,1938.26 L1554.58,1933.73 L1552.99,1928.74 L1549.65,1925.83 L1550.75,1923.68 L1549.27,1917.07 L1546.74,1909.45 L1545.8,1904.57 L1546.13,1898.45 L1543.41,1893.37 L1541.57,1893.11 L1539.63,1887.88 L1538.21,1880.73 L1537.33,1873.7 L1538.27,1868.06 L1540.35,1863.61 L1540.91,1855.65 L1539.98,1849.78 L1538.76,1845 L1537.78,1844.34 L1536.42,1844.69 L1535.99,1844.1 L1535.32,1843.54 L1535.25,1842.76 L1535.58,1842.26 L1537,1841.89 L1534.86,1837.18 L1534.57,1833.54 L1531.39,1828.14 L1528.66,1821.18 L1526.54,1818.57 L1524.44,1818.63 L1522.02,1812.28 L1522.11,1809.16 L1520.92,1804.69 L1520.63,1803.57 L1515.39,1798.93 L1510.4,1795.97 L1499.85,1792.08 L1497.78,1792.23 L1496.82,1792.62 L1496.83,1793.57 L1494.87,1794.7 L1492.92,1796.46 L1491.67,1797.99 L1491.28,1799.24 L1490.58,1799.86 L1490.58,1800.96 L1489.73,1801.59 L1488.8,1802.22 L1487.33,1802.87 L1486.43,1802.13 L1486.88,1801.36 L1485.35,1800.7 L1483.01,1800.16 L1481.79,1796.86 L1480.51,1795.08 L1478.45,1793.21 L1480.19,1788.34 L1480.02,1785.96 L1489.43,1771.22 L1487.53,1763.49 L1478.36,1758.04 L1466.99,1757.05 L1457,1758.6 L1451.95,1757.05 L1451.95,1750.61 L1450.21,1748.52 L1446.34,1747.68 L1445.11,1744.86 L1445.34,1740 L1449.91,1733.3 L1450.97,1727.82 L1457.22,1721.11 L1464.54,1715.43 L1476.55,1710.49 L1477.75,1706.01 L1476.95,1703.99 L1476.37,1700 L1469.46,1699.65 L1469.59,1691.12 L1471.5,1687.27 L1470.2,1678.97 L1472.18,1671.46 L1472.27,1669.88 L1472.27,1666.06 L1471.68,1663.49 L1471.33,1661.93 L1470.7,1661.36 L1469.91,1661.11 L1468.81,1658.98 L1467.08,1657.03 L1467.36,1656.01 L1467.09,1653.71 L1466.38,1651.22 L1465.8,1649.54 L1465.63,1649.07 L1465.18,1647.76 L1462.26,1646.76 L1459.64,1643.65 L1458.44,1644.98 L1458.52,1642.22 L1455.83,1641.48 L1454.43,1641.41 L1453.14,1641.61 L1452.71,1641.68 L1452.36,1641.96 L1452.48,1642.55 L1452.77,1642.78 L1452.12,1643.56 L1451.12,1643.22 L1449.82,1641.81 L1448.9,1639.73 L1448.29,1638.13 L1447.89,1635.48 L1447.39,1634.92 L1447.36,1634.41 L1448.25,1634.08 L1450.08,1634.01 L1450.07,1633.5 L1449.87,1631.64 L1448.64,1629.66 L1447.69,1628.84 L1446.27,1628.37 L1445.17,1628.37 L1443.42,1628.7 L1443.09,1628.4 L1443.04,1627.9 L1443.06,1626.97 L1442.27,1625.31 L1440.75,1621.83 L1440.72,1620.16 L1439.17,1619.13 L1437.19,1620.43 L1436.73,1620.86 L1436.02,1620.76 L1435.9,1621.37 L1435.48,1621.74 L1434.39,1621.64 L1432.89,1618.96 L1433.22,1618.58 L1433.37,1617.84 L1433.64,1617.45 L1433.68,1617.06 L1433.92,1616.19 L1434.28,1616.26 L1435.7,1615.72 L1436.32,1615.23 L1436.58,1614.39 L1438.58,1615.63 L1439.03,1615.45 L1440.13,1615.23 L1441.95,1610.15 L1449.31,1606.85 L1451.81,1598.36 L1455.25,1596.02 L1455.62,1590.07 L1455.25,1580.16 L1452.72,1571.06 L1451.63,1567.6 L1451.45,1564.13 L1450.45,1556.29 L1450.45,1555.28 L1452.27,1553.32 L1451.86,1550.95 L1451.27,1547.48 L1447.73,1540.64 L1446.07,1538.69 L1443.97,1538.23 L1443.06,1537.68 L1443.24,1537.14 L1444.15,1536.96 L1443.79,1536.32 L1443.61,1534.22 L1445.96,1531.31 L1445.85,1529.43 L1445.71,1527.98 L1446.28,1527.13 L1446.57,1525.96 L1445.77,1523.28 L1444.18,1518.27 L1440.81,1510.68 L1438.33,1505.15 L1435.48,1500.26 L1431.92,1495.63 L1429.87,1493.39 L1426.68,1490.44 L1423.8,1488.38 L1419.82,1485.75 L1414.9,1483.77 L1412.24,1483.35 L1409.07,1483.27 L1407.2,1483.62 L1405.12,1484.16 L1402.57,1485.43 L1400.24,1487.12 L1401,1488.13 L1401.39,1488.53 L1402.3,1489.99 L1402.39,1490.54 L1403.21,1492.82 L1403.03,1494.28 L1402.57,1494.73 L1402.21,1496.1 L1402.48,1497.29 L1401.84,1498.29 L1400.47,1498.56 L1399.2,1498.75 L1397.83,1497.93 L1397.74,1498.84 L1397.1,1499.2 L1395.82,1499.2 L1395.91,1499.66 L1394.91,1500.75 L1394.73,1501.48 L1394.09,1501.85 L1393.18,1501.57 L1392.54,1501.39 L1392.17,1500.75 L1391.44,1500.48 L1391.63,1501.94 L1390.9,1502.39 L1389.8,1502.21 L1389.35,1500.75 L1389.35,1499.11 L1387.8,1497.83 L1387.52,1496.38 L1386.7,1496.56 L1385.82,1496.43 L1385.06,1495.65 L1383.82,1493.89 L1382.87,1493 L1382.33,1492 L1382.42,1490.36 L1382.33,1489.17 L1382.69,1489.17 L1383.42,1489.44 L1383.88,1487.53 L1382.87,1487.17 L1382.42,1487.71 L1381.6,1486.62 L1383.6,1485.8 L1383.33,1485.43 L1382.87,1484.25 L1382.87,1483.24 L1382.33,1481.79 L1381.87,1481.15 L1382.23,1480.42 L1382.05,1479.41 L1383.83,1476.42 L1384.15,1477.41 L1386.06,1477.77 L1386.61,1478.23 L1387.34,1478.32 L1388.34,1478.78 L1388.62,1479.69 L1389.16,1479.69 L1389.53,1480.51 L1390.08,1480.51 L1390.62,1481.33 L1390.99,1481.33 L1392.03,1481.93 L1392.72,1482.88 L1393.14,1483.1 L1394,1484.34 L1394.47,1484.5 L1395.18,1485.25 L1396,1484.7 L1397.58,1485.09 L1398.21,1485.88 L1406.2,1480.13 L1406.07,1479.2 L1408.01,1475.49 L1409.03,1471.81 L1409.42,1469.13 L1409.44,1469.02 L1409.41,1466 L1409.17,1459.8 L1408.29,1459.38 L1407.38,1458.47 L1406.9,1458.6 L1406.8,1459.27 L1405.8,1458.9 L1405.49,1458.51 L1405.8,1458.21 L1405.49,1457.71 L1405.66,1457.3 L1405.03,1456.73 L1405.03,1456.25 L1404.5,1455.8 L1404.05,1455.42 L1403.76,1454.88 L1403.94,1454.61 L1404.12,1453.97 L1403.57,1452.7 L1402.21,1450.6 L1402.57,1449.32 L1401.66,1447.23 L1401.93,1446.59 L1401.75,1446.22 L1401.93,1445.77 L1401.66,1444.76 L1401.84,1442.85 L1402.46,1442.89 L1403.11,1441.64 L1404.1,1441.92 L1404.28,1443.15 L1405.5,1441.43 L1407.16,1441.75 L1407.84,1441.26 L1411.52,1441.52 L1414.81,1440.87 L1416.13,1435.99 L1416.45,1433.42 L1416.43,1430.8 L1416.05,1427.78 L1415.3,1423.79 L1413.94,1420.29 L1412.63,1417.36 L1410.86,1414.27 L1408.98,1412.39 L1405.76,1410.19 L1404.38,1411.64 L1403.04,1412.9 L1402.34,1413.4 L1402.21,1413.24 L1401.99,1413.08 L1401.35,1413.41 L1401.29,1413.92 L1400.66,1414.99 L1400.75,1415.42 L1400.02,1416.33 L1399.26,1415.9 L1399.39,1414.79 L1397.97,1414.47 L1397.43,1413.48 L1396.81,1413.94 L1394.99,1412.2 L1395.1,1411.43 L1394.67,1411.37 L1394.11,1410.93 L1394.05,1410.03 L1392.53,1408.66 L1392.28,1407.84 L1391.4,1406.93 L1390.84,1405.62 L1390.77,1404.82 L1391.8,1403.94 L1391.45,1403.42 L1390.86,1401.53 L1390.59,1400.39 L1390.08,1399.74 L1390.33,1399.27 L1390.12,1397.04 L1388.89,1392.19 L1389.83,1391.74 L1390.46,1390.46 L1391.23,1390.31 L1392.57,1390.91 L1393.02,1390.42 L1393.2,1389.26 L1394.02,1388.58 L1394.81,1389.23 L1396.21,1389.51 L1397.46,1389.03 L1397.84,1388.4 L1397.18,1387.92 L1397.41,1387.55 L1398.55,1387.58 L1399.49,1387.29 L1399.81,1387.69 L1400.6,1386.91 L1401.77,1387.04 L1402.68,1389.17 L1403.68,1388.7 L1404.83,1387.76 L1405.47,1386.5 L1405.93,1385.18 L1405.94,1383.53 L1405.73,1381.77 L1405.3,1380.56 L1404.81,1379.44 L1404.11,1378.21 L1403.2,1376.94 L1402.41,1376.3 L1401.6,1376.29 L1400.75,1377.32 L1400.05,1377.64 L1400.48,1378.34 L1399.72,1378.86 L1398.95,1378.24 L1398.49,1379.22 L1397.98,1379.15 L1397.18,1380.28 L1395.87,1381.22 L1393.93,1381.16 L1392.97,1381.62 L1392.51,1380.65 L1392.62,1380.08 L1393.17,1379.37 L1392.93,1378.77 L1393.53,1378.06 L1393.99,1378.12 L1394.45,1377.58 L1393.7,1377.26 L1392.87,1376.15 L1393.32,1374.69 L1394.32,1374.27 L1393.45,1373.56 L1393.45,1373.05 L1394.01,1372.73 L1394.12,1372.11 L1393.64,1371.25 L1394.56,1370.5 L1395.1,1369.53 L1395.38,1368.88 L1394.64,1368.34 L1394.01,1368.74 L1393.57,1368.03 L1392.24,1366.83 L1392.08,1364.05 L1393.35,1362.45 L1391.31,1360.68 L1390.65,1358.72 L1389.53,1358.56 L1388.65,1357.02 L1386.88,1354.98 L1387.84,1353.52 L1387.73,1351.06 L1386.3,1347.13 L1388.38,1345.71 L1389.77,1345.01 L1388.84,1343.4 L1387.88,1342.59 L1388.5,1341.28 L1389.23,1340.09 L1388.15,1338.74 L1388.53,1336.04 L1388.77,1334.54 L1388.96,1332.79 L1387.73,1332.39 L1387.96,1331.04 L1391.31,1328.58 L1389.65,1325.79 L1392.17,1323.81 L1394.54,1325.97 L1398.54,1323.81 L1404.05,1316.77 L1405.08,1312.85 L1405.89,1309.73 L1403.16,1297.85 L1399.85,1295.75 L1398.31,1292.35 L1396.71,1285.19 L1393.34,1288.06 L1390.28,1288.66 L1386.35,1285.29 L1385.52,1279.59 L1380.18,1279.86 L1375.62,1274.68 L1362.86,1276.3 L1363.36,1275.04 L1362.47,1273.81 L1361.45,1274.04 L1360.08,1274.21 L1359.39,1269.72 L1362.22,1265.31 L1365.32,1259.17 L1364.46,1257.36 L1363.13,1254.57 L1362.29,1252.81 L1362.13,1249.27 L1361.66,1245.53 L1361.75,1243.59 L1360.71,1241.36 L1361.11,1235.91 L1361.86,1232.34 L1362.12,1227.19 L1361.34,1225.89 L1354.26,1218.75 L1347.21,1212.88 L1340.02,1207.25 L1331.18,1201.57 L1318.79,1203.17 L1306.44,1204.76 L1297.27,1199.83 L1297.29,1197.56 L1297.31,1194.53 L1296.55,1193.3 L1293.3,1191.25 L1289.48,1190.05 L1288.69,1193.31 L1286.73,1191.97 L1285.27,1190.65 L1286.64,1189.43 L1287.06,1187.81 L1285.82,1186.14 L1284.18,1184.78 L1282.08,1183.77 L1280.28,1184.48 L1278.98,1184.47 L1280.06,1182.9 L1279.4,1181.62 L1277.58,1178.19 L1277.62,1177.29 L1276.84,1176.14 L1276.67,1174.4 L1278.46,1172.71 L1279.91,1173.04 L1281.71,1174.99 L1287.3,1168.76 L1292.6,1162.1 L1293.28,1161.95 L1293.84,1162.36 L1294.58,1161.11 L1294.92,1158.47 L1293.68,1154.65 L1292.93,1155.14 L1292.59,1154.59 L1293.08,1154.23 L1292.67,1153.66 L1293.63,1153.16 L1291.18,1150.31 L1287.84,1147.77 L1282.26,1143.05 L1276.89,1139.93 L1270.92,1137.45 L1266.64,1136.17 L1262.28,1135.15 L1258.81,1134.38 L1255.89,1133.78 L1255.73,1133.92 L1255.52,1133.96 L1255.28,1133.9 L1255.12,1133.75 L1254.99,1133.59 L1254.77,1133.52 L1238.91,1132.43 L1225,1131.16 L1216.97,1130.52 L1178.82,1129.92 L1173.11,1129.89 L1159.89,1130.24 L1147.4,1130.92 L1144.66,1131.07 L1132.9,1131.98 L1130.7,1132.33 L1115.84,1134.71 L1108.82,1136.08 L1107.63,1136.26 L1085.02,1140.16 L1077.45,1142.37 L1071.53,1144.38 L1067.27,1146.96 L1067.4,1148.45 L1067.02,1149.15 L1067.26,1150.21 L1067.87,1151.2 L1067.68,1152.07 L1068.03,1153.19 L1068.52,1153.78 L1068.53,1154.33 L1068.25,1157.31 L1068.67,1158.01 L1068.8,1160.51 L1069.71,1162.78 L1069.86,1163.88 L1069.43,1165.05 L1069.25,1168.54 L1069.85,1169.82 L1070.61,1173.29 L1070.34,1174.19 L1070.49,1175.56 L1071.34,1178.39 L1072.44,1188.06 L1072.18,1190.61 L1071.53,1193.9 L1072.44,1196.9 L1071.53,1197.91 L1071.89,1198.93 L1071.98,1201.01 L1071.25,1201.28 L1071.25,1203.84 L1070.8,1204.47 L1069.56,1202.41 L1068.7,1202.1 L1066.65,1197.57 L1063.87,1193.9 L1063.5,1193.8 L1059.23,1186.13 L1057.57,1183.96 L1056.65,1181.5 L1054.84,1180.31 L1054.76,1178.69 L1053.2,1177.66 L1052.65,1175.93 L1051.74,1174.2 L1050.19,1173.56 L1048.64,1174.75 L1048.57,1176.45 L1048.91,1178.03 L1049.15,1178.62 L1049.57,1179.69 L1049.09,1179.94 L1048.45,1179.51 L1047.52,1179.54 L1047.42,1176.81 L1046.39,1175.41 L1046.74,1173.89 L1044.74,1172.28 L1042.93,1167.8 L1041.52,1165.99 L1040.79,1163.35 L1038.7,1159.88 L1037.6,1157.88 L1037.37,1155.37 L1037.48,1153.86 L1037.52,1152.91 L1036.7,1151.98 L1037.29,1151.72 L1038.01,1152.47 L1039.34,1153.37 L1041.22,1152.55 L1041.39,1151 L1040.04,1149.02 L1040.16,1148.21 L1041.95,1146.25 L1040.78,1144.68 L1039.18,1144.77 L1037.68,1143.88 L1037.19,1143.25 L1037.93,1142.63 L1036.03,1141.77 L1036.45,1140.82 L1036.12,1139.82 L1036.71,1139.14 L1036.26,1138.72 L1035.96,1136.98 L1035.27,1134.92 L1035.42,1134.27 L1034.74,1132 L1033.94,1131.6 L1033.48,1130.31 L1034.06,1129.44 L1032.97,1126.53 L1032.47,1125.54 L1032.95,1125.15 L1032.37,1124 L1031.57,1123.32 L1031.2,1122.13 L1031.11,1120.78 L1031.58,1120.99 L1032.23,1121.94 L1032.8,1122.63 L1033,1122.38 L1034.03,1120.3 L1035.55,1119.12 L1036.04,1118.04 L1037.28,1116.91 L1039.21,1116.25 L1039.39,1115 L1038.34,1110.81 L1036.85,1107.38 L1035.72,1105.82 L1033.73,1104.4 L1032.03,1103.88 L1030.45,1103.88 L1029.19,1103.06 L1026.96,1100 L1026.51,1100.55 L1025.83,1099.65 L1025.86,1099.12 L1025.06,1097.61 L1024.57,1097.55 L1023.97,1096.76 L1023.16,1095.17 L1022.81,1093.59 L1020.89,1094.11 L1020.67,1093.26 L1020.5,1091.87 L1018.84,1088.41 L1017.82,1086.89 L1017.75,1085.93 L1016.4,1083.99 L1015.45,1083.31 L1014.69,1083.17 L1014.14,1081.88 L1013.1,1080.5 L1012.16,1079.91 L1001.7,1076.02 L996.5,1073.92 L991.246,1072.46 L986.714,1071.57 L980.46,1071.16 L976.63,1071.15 L973.989,1071.32 L968.514,1071.98 L964.776,1072.71 L961.4,1073.44 L957.218,1074.4 L954.708,1075.24 L954.418,1075.33 L953.274,1075.63 L950.563,1076.87 L947.085,1076.63 L940.612,1075.19 L934.592,1074.17 L928.299,1073.53 L922.281,1073.71 L917.105,1075.43 L916.584,1075.49 L913.445,1075.81 L911.152,1076.05 L910.058,1076.46 L909.742,1076.58 L909.501,1076.57 L909.331,1076.56 L908.944,1076.62 L907.422,1076.7 L904.695,1076.69 L900.236,1077.15 L894.747,1078.26 L886.412,1080.12 L883.44,1080.99 L876.096,1082.63 L869.67,1083.82 L865.931,1085.09 L862.284,1087.83 L860.494,1090.03 L857.736,1092.66 L855.125,1095.24 L855.956,1096.48 L855.72,1096.66 L855.218,1096.95 L855.487,1097.31 L856.771,1099.32 L856.799,1099.51 L856.763,1099.65 L856.681,1099.75 L856.547,1099.8 L856.409,1099.78 L856.317,1099.74 L856.193,1099.65 L855.029,1097.95 L853.841,1098.75 L853.052,1099.23 L851.978,1099.88 L850.863,1100.67 L849.249,1101.63 L847.73,1102.8 L847.657,1103.68 L848.722,1105.06 L848.349,1105.41 L847.339,1104.27 L846.958,1104.66 L846.429,1104.03 L844.621,1102.55 L840.99,1107.18 L838.579,1110.25 L835.751,1114.24 L834.487,1116.69 L834.65,1117.87 L832.072,1122.34 L831.918,1122.9 L831.033,1122.86 L830.714,1123.84 L828.023,1130.52 L825.965,1135.17 L824.839,1138.16 L824.396,1138.36 L824.147,1138.47 L824.069,1138.94 L823.37,1152.99 L830.18,1155.69 L837.911,1158.31 L841.867,1153.38 L841.567,1152.96 L842.476,1151.97 L844.327,1152.91 L844.549,1153.41 L844.695,1153.73 L845.091,1156.93 L851.566,1156.14 L851.778,1155.53 L854.886,1155.23 L855.989,1155.44 L858.554,1154.39 L860.563,1153.66 L861.468,1153.05 L864.061,1151.73 L864.81,1153.13 L860.442,1155.3 L856.891,1157.38 L852.043,1158.33 L849.289,1159.34 L849.372,1159.37 L847.598,1160.24 L844.171,1161.8 L840.885,1163.86 L840.953,1164.21 L840.958,1165.29 L839.817,1166.79 L838.045,1171.3 L836.527,1178.26 L835.945,1180.98 L836.036,1181.85 L836.344,1182.68 L836.211,1184.02 L837.025,1184.41 L836.73,1186.91 L836.333,1187.46 L834.212,1187.64 L833.869,1188.17 L831.425,1188.5 L830.33,1187.87 L829.558,1188.18 L829.414,1189 L828.775,1189.56 L827.418,1189.31 L825.447,1187.39 L824.495,1185.75 L821.655,1183.06 L820.011,1182.67 L819.058,1182.24 L818.966,1181.5 L819.221,1180.55 L819.273,1180.03 L820.308,1177.37 L818.019,1175.45 L814.558,1174.54 L811.909,1173.77 L808.44,1173.71 L806.578,1173.09 L804.6,1172.86 L802.716,1172.57 L802.011,1173.1 L801.903,1173.53 L802.072,1173.88 L802.189,1174.4 L802.141,1174.83 L802.036,1175.2 L801.846,1175.52 L801.598,1175.78 L801.087,1176.07 L800.519,1176.19 L800.015,1176.14 L799.547,1175.96 L799.199,1175.62 L798.886,1175.09 L798.483,1175.62 L797.812,1176.3 L797.113,1176.57 L796.478,1177.37 L795.163,1178.08 L792.993,1178.67 L792.21,1178.88 L791.275,1179.57 L790.771,1179.98 L790.33,1180.5 L790.349,1181.84 L790.822,1183 L791.3,1182.77 L791.771,1183.59 L790.844,1184.78 L789.245,1185.88 L788.382,1186.78 L786.467,1189.97 L783.64,1190.34 L781.947,1189.08 L779.616,1188.89 L779.096,1187.97 L779.217,1186.23 L777.401,1184.67 L774.347,1184.15 L771.466,1184.77 L766.373,1186.08 L761.317,1188.68 L760.312,1189.13 L759.206,1189.57 L758.49,1190.11 L758.343,1190.52 L757.938,1190.45 L757.637,1190.94 L757.433,1191.52 L757.039,1191.43 L756.716,1191.36 L756.596,1190.63 L756.477,1190.63 L756.408,1191.32 L755.951,1191.31 L755.347,1191.31 L753.525,1192.44 L751.276,1193.46 L749.539,1194.79 L747.803,1196.63 L746.435,1198.9 L745.523,1201.28 L745.45,1203.43 L745.165,1205.26 L744.855,1206.86 L744.87,1208.05 L745.864,1210.01 L746.963,1210.66 L748.609,1212.7 L750.188,1214.9 L751.268,1216.6 L752.839,1218.7 L753.823,1220.75 L754.179,1220.82 L754.542,1220.95 L754.845,1221.17 L755.02,1221.47 L754.952,1221.7 L754.769,1221.9 L754.718,1222.17 L754.579,1222.48 L754.246,1222.57 L753.905,1222.5 L753.56,1222.25 L753.301,1222.42 L753.055,1222.39 L752.678,1222.21 L752.368,1222.33 L752.101,1222.59 L752.114,1222.93 L752.397,1223.22 L752.764,1223.41 L752.742,1223.8 L752.949,1223.97 L753.107,1224.13 L753.145,1224.46 L752.968,1224.63 L752.94,1224.76 L753,1225.01 L752.34,1224.95 L752.077,1224.83 L751.529,1224.6 L750.634,1224.49 L750.492,1224.71 L750.133,1225.06 L750.022,1225.55 L749.439,1225.44 L749.214,1225.69 L749.109,1226.02 L748.941,1226.35 L748.673,1226.58 L748.296,1226.92 L747.485,1226.94 L747.071,1226.61 L746.803,1226.55 L746.57,1226.73 L746.265,1226.71 L745.927,1226.32 L746.187,1225.75 L746.385,1225.61 L746.332,1225.22 L746.086,1224.77 L745.794,1223.62 L745.638,1223.24 L745.079,1222.76 L744.334,1222.16 L744.07,1221.97 L743.805,1222 L743.396,1222.11 L743.078,1222.35 L742.878,1222.37 L742.741,1222.57 L742.505,1223.09 L742.116,1223.47 L742.108,1223.57 L742.208,1223.74 L742.018,1223.86 L741.417,1224.01 L741.115,1224.45 L740.271,1224.84 L738.866,1224.99 L737.461,1224.37 L735.275,1223.83 L733.202,1223.74 L732.346,1224.48 L732.403,1225.88 L732.868,1226.34 L733.285,1226.6 L733.37,1227.09 L733.235,1227.47 L733.042,1227.72 L733.043,1228.22 L733.748,1228.92 L734.024,1229.62 L734.254,1230.01 L735.061,1230.33 L735.431,1230.78 L735.249,1231.93 L734.445,1232.25 L732.943,1233.35 L732.295,1233.37 L731.863,1233.56 L731.564,1233.96 L730.833,1234.18 L730.331,1234.7 L729.627,1235.37 L729.302,1235.86 L729.003,1236.18 L728.38,1236.21 L728.053,1235.96 L728.198,1235.58 L728.739,1235.02 L728.522,1234.8 L728.206,1234.84 L727.775,1235.3 L726.447,1235.21 L725.835,1234.63 L725.953,1234.24 L726.365,1234.18 L726.598,1233.94 L726.805,1233.71 L726.728,1233.45 L726.378,1233.4 L725.424,1233.51 L724.181,1233.29 L721.964,1230.22 L721.579,1229.79 L721.366,1229.73 L720.418,1230.18 L719.948,1230.01 L719.661,1229.69 L719.409,1228.72 L719.048,1228.02 L718.588,1227.25 L718.018,1226.33 L718.067,1226.12 L718.245,1225.81 L718.322,1225.43 L718.078,1225.19 L717.632,1225.17 L717.38,1225.41 L717.26,1225.78 L717.156,1226.14 L717.992,1228.22 L717.516,1228.9 L716.49,1229.01 L713.46,1228.05 L712.504,1227.42 L711.326,1226.82 L710.862,1225.54 L710.605,1223.79 L709.45,1222.49 L708.302,1219.44 L707.596,1218.47 L706.955,1216.95 L706.015,1215.91 L705.274,1214.53 L704.505,1213.11 L704.228,1211.47 L703.293,1209.73 L702.19,1208.3 L701.604,1207.47 L700.773,1205.91 L699.805,1204.28 L699.833,1203.56 L699.533,1202.76 L699.193,1202.38 L699.175,1201.96 L699.027,1201.56 L698.781,1201.25 L698.301,1200.82 L697.984,1200.14 L697.725,1199.14 L697.164,1198.93 L696.781,1199.57 L695.691,1199.74 L694.75,1198.9 L693.836,1198 L693.294,1199.01 L692.699,1199.2 L691.89,1199.15 L690.994,1198.39 L690.179,1197.24 L689.803,1196.28 L690.094,1194.92 L689.677,1192.21 L687.532,1191.69 L684.506,1189.97 L680.539,1187.18 L675.655,1184.29 L673.281,1182.49 L669.542,1180.86 L666.226,1179.83 L664.303,1179.8 L662.461,1179.84 L659.966,1180.16 L659.406,1181.05 L657.455,1181.83 L655.924,1181.46 L654.06,1180.03 L654.56,1178.15 L656.685,1177.05 L656.953,1173.53 L655.34,1171.26 L652.815,1165.7 L649.188,1160.25 L644.177,1155.1 L637.948,1150.81 L630.6,1144.95 L623.415,1140.37 L618.471,1133.83 L606.263,1121.03 L595.172,1106.59 L586.554,1099.73 L585.697,1099.05 L580.926,1096.16 L577.131,1094.93 L576.442,1094.71 L571.632,1092.54 L569.441,1090.18 L569.307,1087.71 L568.477,1085.88 L566.972,1084.5 L566.846,1084.32 L566.691,1084.11 L562.539,1081.54 L553.817,1080.07 L543.216,1079.82 L533.49,1080.88 L526.619,1081.52 L522.079,1081.29 L519.257,1081.41 L517.688,1081.83 L516.629,1082.84 L514.961,1083.69 L512.202,1083.56 L511.18,1083.26 L508.355,1083.56 L505.937,1083.93 L502.827,1084.63 L499.759,1085.45 L491.973,1088.48 L486.644,1090.3 L481.088,1092.54 L473.427,1096.43 L469.07,1099.03 L466.01,1100.99 L464.243,1102.16 L458.273,1106.13 L449.7,1112.7 L441.03,1121.11 L437.3,1124.66 L432.468,1129.17 L429.59,1132.89 L427.206,1137.52 L425.188,1143.24 L424.425,1148.24 L425.774,1150.59 L426.168,1151.68 L426.751,1152.65 L428.641,1156.73 L434.658,1162.31 L440.247,1167.21 L443.706,1170.66 L448.341,1179.46 L450.28,1181.94 L455.133,1190.8 L456.505,1195.05 L458.369,1202.88 L457.303,1209.3 L458.265,1213.37 L464.243,1219.29 L467.491,1226.08 L470.126,1228.9 L470.985,1230.71 L472.644,1231.45 L476.398,1235.2 L478.222,1240.82 L478.469,1243.76 L475.447,1246.42 L472.748,1247.94 L470.411,1247.71 L467.709,1247.12 L464.391,1245.48 L464.243,1245.34 L460.99,1242.38 L459.725,1239.88 L458.785,1239.1 L457.797,1239.5 L452.208,1236.37 L446.966,1232.75 L444.251,1230.56 L442.655,1230.67 L437.598,1226.48 L435.483,1222.22 L433.992,1220.07 L429.968,1217.06 L422.213,1212.02 L418.875,1212.25 L416.108,1212.77 L414.581,1212.47 L410.101,1210.85 L404.379,1209.75 L398.751,1208.27 L397.344,1204.05 L394.999,1202.15 L389.373,1202.36 L383.589,1201.51 L380.463,1197.29 L378.118,1194.12 L376.398,1195.39 L377.334,1188.47 L373.998,1185.69 L372.169,1181.38 L368.551,1178.96 L366.445,1173.6 L364.34,1172.33 L362.865,1166.06 L360.583,1163.11 L357.16,1161.08 L350.295,1158.63 L345.792,1153.57 L344.039,1151.51 L341.601,1150.36 L339.236,1150.57 L335.602,1152.71 L328.323,1151.99 L321.847,1149.55 L320.361,1148.42 L320.361,1148.42" fill-rule="evenodd"/>
   <path vector-effect="none" d="M923.488,1259.18 L926.886,1269.53 L928.701,1268.08 L929.464,1268.87 L925.81,1271.98 L928.311,1275.1 L929.664,1276.62 L930.602,1277.2 L931.474,1277.39 L932.609,1277.31 L933.884,1276.66 L933.588,1276.32 L933.493,1275.81 L934.457,1275.11 L935.623,1276.59 L938.921,1280.77 L939.644,1280.44 L941.484,1280.86 L942.077,1278.76 L942.134,1278.59 L949.163,1280.67 L949.459,1280.75 L948.199,1284.62 L951.837,1288.42 L953.261,1290.3 L954.869,1291.77 L955.241,1292.42 L955.683,1293.19 L957.452,1296.28 L957.485,1296.32 L958.267,1297.42 L958.481,1297.72 L959.261,1298.39 L960.032,1299.06 L960.72,1299.66 L963,1301.86 L965.404,1305.23 L967.377,1307.24 L969.163,1308.15 L971.39,1308.54 L972.82,1308.34 L976.248,1308.34 L977.564,1308.62 L978.957,1308.53 L979.323,1307.82 L979.621,1308.22 L979.979,1309.6 L980.73,1310.11 L981.623,1311.73 L985.295,1314.87 L987.893,1321.59 L988.997,1322.52 L990.916,1326.71 L998.943,1334.77 L1001.87,1336.49 L1001.98,1337.44 L1004.65,1341.12 L1005.1,1342.51 L1008.52,1346.4 L1010.58,1347.62 L1010.91,1348.17 L1012.52,1348.74 L1014.63,1348.73 L1015.94,1350.57 L1017.74,1349.87 L1018.55,1350.48 L1018.62,1351.4 L1022.43,1354.97 L1026.41,1361.03 L1029.69,1365.13 L1029.94,1366.36 L1031.39,1367.27 L1031.75,1368.2 L1032.5,1369.98 L1032.5,1370.76 L1032.95,1371.47 L1032.78,1371.7 L1032.35,1371.63 L1032.53,1372.55 L1032.05,1372.95 L1031.59,1372.91 L1031.26,1373.79 L1030.97,1373.73 L1030.23,1373.26 L1029.48,1373.31 L1028.9,1373.82 L1029.46,1374.24 L1029.46,1375.94 L1029.24,1376.16 L1028.84,1376.18 L1029.14,1377.21 L1028.05,1378.36 L1026.6,1379.06 L1026.65,1380 L1025.95,1381.22 L1026.13,1382.1 L1028.29,1384.77 L1028.38,1385.89 L1029.35,1386.66 L1029.68,1387.52 L1031.66,1389.83 L1031.69,1390.71 L1031.27,1391.44 L1030.4,1391.78 L1030.2,1392.13 L1029.76,1392.56 L1030.39,1393.39 L1030.27,1394.11 L1029.92,1394.14 L1030.71,1395.12 L1030.52,1395.63 L1030.2,1395.81 L1030.91,1396.27 L1031.45,1397.16 L1032.52,1397.49 L1033.98,1398.88 L1033.64,1399.98 L1034.08,1400.77 L1034.58,1401.12 L1035.39,1402.5 L1035.37,1403.14 L1036.23,1404.4 L1037.59,1404.69 L1037.98,1405.33 L1037.23,1405.14 L1037.78,1405.68 L1037.82,1405.96 L1037.04,1405.88 L1037.53,1406.35 L1037.99,1407.16 L1037.35,1408.16 L1037.99,1409.17 L1037.09,1410.43 L1037.62,1411.81 L1037.34,1412.7 L1037.49,1413.38 L1037.02,1414.64 L1037.38,1416.2 L1036.85,1418.25 L1035.78,1418.71 L1035.17,1419.29 L1035.8,1419.79 L1036.77,1419.66 L1037.59,1420.32 L1039.89,1421.44 L1040.37,1422.18 L1041.25,1422.05 L1042.59,1422.76 L1043.62,1424.56 L1044.57,1425.07 L1045.51,1426.28 L1044.82,1426.86 L1045.53,1427.33 L1045.67,1428.13 L1045.34,1428.64 L1045.76,1429.27 L1046.41,1432.48 L1046.5,1434.56 L1046.04,1437.05 L1045.82,1437.3 L1045.91,1437.45 L1046.17,1437.91 L1046.32,1438.15 L1046.92,1438.18 L1047.16,1438.64 L1047.07,1439.1 L1047.26,1439.44 L1047.3,1439.84 L1047.66,1440.4 L1047.66,1440.78 L1047.39,1441.27 L1047.42,1441.68 L1047.65,1442.09 L1048.09,1442.4 L1048.46,1442.93 L1048.23,1443.32 L1047.97,1443.42 L1047.6,1443.55 L1047.64,1443.75 L1047.75,1443.95 L1047.75,1444.42 L1047.84,1444.99 L1047.29,1445.16 L1047.04,1445.1 L1046.79,1445.15 L1046.63,1445.33 L1046.41,1445.52 L1046.26,1445.7 L1045.9,1445.76 L1045.87,1445.98 L1045.91,1446.32 L1045.9,1446.77 L1045.53,1447.03 L1045.48,1447.41 L1045.46,1447.56 L1045.2,1448.04 L1043.81,1448.12 L1043.39,1448.32 L1042.76,1448.31 L1042.48,1448.03 L1042.16,1447.64 L1042.01,1447.39 L1041.74,1447.19 L1041.35,1447.02 L1041.04,1447.04 L1040.85,1447.33 L1040.72,1447.54 L1040.3,1447.44 L1040.15,1447.71 L1039.72,1447.93 L1039.26,1447.71 L1038.89,1447.44 L1038.77,1447.21 L1038.53,1446.99 L1038.23,1446.87 L1038.09,1446.49 L1037.29,1446.18 L1036.71,1445.7 L1036.9,1445.25 L1037.08,1444.94 L1036.97,1444.44 L1037.1,1444.17 L1037.21,1443.87 L1036.88,1443.59 L1036.75,1442.88 L1037.17,1442.29 L1037.27,1441.42 L1037.49,1440.61 L1037.49,1439.91 L1037.49,1439.48 L1037.6,1438.72 L1037.15,1438.21 L1037.27,1437.53 L1037.67,1437.03 L1037.68,1435.49 L1037.65,1435.02 L1037.91,1434.55 L1037.44,1433.8 L1037.48,1433.24 L1037.3,1432.85 L1036.8,1433.07 L1036.54,1433.77 L1036.03,1433.92 L1035.89,1434.26 L1035.4,1433.65 L1035.12,1433.02 L1035.21,1432.33 L1036.38,1430.94 L1036.59,1429.85 L1036.54,1429.32 L1036.36,1428.96 L1035.87,1428.89 L1035.3,1429.03 L1035.42,1428.31 L1035.19,1428.05 L1034.76,1427.92 L1034.4,1427.3 L1033.94,1426.79 L1033.35,1426.17 L1033.32,1425.83 L1032.59,1425.49 L1032.1,1425.42 L1032.05,1424.95 L1031.57,1425.22 L1031.38,1425.87 L1030.67,1425.97 L1030.14,1425.24 L1029.52,1424.73 L1029.08,1424.06 L1028.76,1423.01 L1028.56,1422.77 L1028.56,1422.15 L1028.43,1421.28 L1028.77,1420.95 L1028.62,1420.34 L1028.19,1419.36 L1027.69,1418.88 L1027.23,1418.41 L1027,1417.94 L1026.89,1417.87 L1026.52,1417.74 L1025.98,1417.48 L1025.46,1417.51 L1024.92,1415.72 L1023.39,1415.19 L1023.22,1414.91 L1023.22,1414.03 L1022.31,1413.4 L1021.22,1412.48 L1020.95,1411.34 L1020.74,1409.14 L1019.96,1408.77 L1019.79,1408.14 L1018.8,1407.58 L1018.09,1407.5 L1017.2,1405.18 L1016.15,1404.13 L1016.33,1403.43 L1015.42,1402.85 L1014.96,1402.77 L1014.39,1402.16 L1013.67,1401.97 L1013.08,1401.97 L1011.64,1402.75 L1010.99,1402.82 L1010.2,1402.42 L1009.48,1402.75 L1008.37,1403.34 L1006.93,1402.95 L1004.77,1403.41 L1002.59,1401.96 L1001.76,1401.44 L1001.04,1401.2 L1000.67,1401.18 L1000.6,1400.81 L1000.2,1400.48 L998.971,1400.81 L997.651,1400.25 L995.777,1399.41 L992.508,1398.87 L989.849,1398.09 L986.98,1395.25 L983.381,1392.07 L980.303,1390.62 L978.935,1389.57 L978.121,1388.08 L977.499,1385.74 L977.023,1384.56 L974.416,1382.01 L970.786,1378.27 L967.524,1374.41 L965.546,1371.44 L964.117,1369.48 L962.104,1367.21 L959.114,1362.95 L958.396,1361.06 L956.836,1355.74 L955.41,1353.06 L954.419,1351.18 L953.146,1349.19 L951.198,1346.04 L949.197,1343.64 L947.675,1342.55 L945.715,1340.6 L941.148,1337.3 L939.496,1335.31 L937.9,1333.48 L936.413,1331.9 L935.307,1330.61 L934.72,1331.15 L933.796,1331.06 L933.255,1330.32 L933.876,1328.79 L935.585,1326.63 L937.159,1324.88 L937.456,1322.56 L936.447,1320.66 L935.192,1319.86 L934.736,1318.55 L934.309,1317.95 L933.569,1318.07 L932.571,1318.18 L931.687,1318.07 L931.118,1317.47 L931.317,1311.88 L929.778,1312.45 L927.84,1311.14 L929.493,1307.21 L928.445,1300.65 L927.826,1300 L926.507,1299.07 L926.046,1297.76 L925.868,1296.93 L925.261,1296.62 L923.808,1295.29 L921.97,1293.89 L920.996,1292.87 L920.83,1292.69 L920.645,1291.95 L919.49,1288.66 L919.028,1287.88 L918.479,1287.5 L918.208,1287.31 L917.952,1287.05 L917.909,1286.59 L917.879,1285.75 L916.664,1284.71 L915.207,1283.93 L913.73,1283.48 L912.64,1283.27 L912.011,1283.43 L911.241,1284.34 L911.001,1284.69 L910.935,1285.28 L910.345,1285.97 L910.336,1286.15 L910.471,1286.39 L910.87,1286.77 L911.205,1286.96 L911.034,1287.83 L910.45,1288.5 L909.923,1288.78 L909.239,1288.78 L908.669,1288.77 L908.626,1288.7 L908.548,1288.2 L908.064,1287.93 L907.878,1287.61 L907.729,1287.17 L906.98,1286.31 L906.895,1285.76 L906.939,1285.27 L907.095,1284.47 L907.608,1284.71 L908.049,1284.46 L908.206,1284.19 L908.028,1283.95 L907.785,1283.79 L907.124,1283.35 L906.553,1282.9 L906.286,1282.5 L906.233,1281.83 L906.682,1281.05 L907.277,1280.3 L907.726,1279.89 L908.621,1279.6 L909.844,1278.56 L910.5,1277.62 L910.956,1276.46 L911.281,1275.1 L911.298,1273.84 L911.149,1272.54 L910.8,1272.17 L910.728,1271.7 L910.529,1271.18 L910.486,1270.65 L911.455,1271.01 L911.967,1270.95 L912.509,1271.5 L912.88,1271.92 L913.73,1271.9 L914.476,1271.79 L915.43,1271.16 L916.071,1269.58 L916.415,1267.71 L916.241,1264.43 L915.359,1263.33 L915.06,1262.69 L914.264,1261.64 L914.504,1261.02 L915.059,1260.76 L915.601,1260.89 L916.185,1261.53 L916.717,1261.51 L917.325,1261.22 L918,1260.62 L918.265,1259.69 L918.255,1258.91 L917.917,1258.12 L916.712,1256.64 L916.114,1255.78 L916.285,1255.38 L916.585,1255.23 L918.038,1255.43 L919.092,1255.46 L921.926,1254.12 L922.668,1253.17 L923.181,1251.36 L923.08,1249.35 L922.968,1247.03 L922.651,1244.96 L922.214,1244.31 L920.969,1243.73 L920.809,1243.5 L920.745,1243.19 L920.916,1242.92 L921.291,1242.93 L922.772,1243.22 L924.435,1243.33 L925.441,1242.28 L926.039,1242.69 L925.66,1243.53 L926.123,1244.16 L926.677,1244.38 L927.502,1244.69 L927.335,1245.36 L927.535,1245.43 L927.923,1245.57 L923.488,1259.18" fill-rule="evenodd"/>
   <path vector-effect="none" d="M1869.28,2314.26 L1869.18,2315.32 L1869.29,2315.46 L1871.13,2314.64 L1870.84,2313.91 L1870.33,2313.74 L1870.3,2313.35 L1870.48,2313.15 L1870.93,2313.29 L1871.02,2313 L1870.3,2312.38 L1870.38,2312.01 L1870.98,2311.28 L1871.53,2311.33 L1871.58,2310.36 L1873.93,2308.86 L1873.51,2310.51 L1873.35,2311.35 L1873.54,2312.24 L1874.4,2312.37 L1874.38,2312.01 L1875.04,2311.73 L1875.15,2311.45 L1875.72,2311.46 L1875.75,2311.16 L1875.82,2310.66 L1874.88,2310.6 L1874.65,2310.12 L1875.18,2309.59 L1874.72,2309.5 L1874.62,2309.06 L1874.27,2308.13 L1874.27,2307.71 L1874.52,2307.09 L1873.66,2306.21 L1873.68,2305.42 L1874.29,2305 L1877.15,2308.1 L1877.5,2309.65 L1877.75,2310.2 L1877.64,2310.42 L1877.93,2310.71 L1878.39,2310.75 L1878.74,2310.52 L1879.09,2310.81 L1879.35,2311.48 L1879.18,2312 L1879.02,2312.1 L1878.6,2312.08 L1878.22,2312.34 L1878.51,2312.9 L1878.48,2313.1 L1878.39,2313.77 L1878.49,2314.68 L1877.8,2315.01 L1878.13,2315.53 L1877.71,2315.8 L1878.42,2316.39 L1879.39,2317.29 L1879.14,2317.62 L1878.51,2317.02 L1878.13,2316.75 L1877.73,2316.61 L1877.58,2316.2 L1876.83,2316.03 L1876.07,2316.18 L1876.43,2316.99 L1876.17,2317.15 L1875.81,2317.17 L1875.59,2316.97 L1875.44,2317.27 L1872.24,2318.16 L1873.72,2321.17 L1873.27,2325.99 L1871.11,2326.6 L1869.66,2329.11 L1867.78,2328.65 L1867.62,2326.94 L1866.82,2325.71 L1868.61,2324.5 L1867.72,2322.47 L1868.13,2322.03 L1869.92,2322.61 L1870.5,2319.23 L1869,2316.91 L1868.96,2315.38 L1867.88,2314.85 L1868.09,2314.1 L1868.71,2314.54 L1868.35,2313.42 L1869.27,2313.47 L1869.28,2314.26" fill-rule="evenodd"/>
   <path vector-effect="none" d="M1867.56,2340.63 L1867.16,2341.12 L1868.06,2341.61 L1867.92,2341.96 L1867.92,2342.68 L1868.45,2343.61 L1868.4,2344.93 L1869.64,2345.78 L1869.98,2346.41 L1869.44,2347.05 L1870.96,2348.24 L1870.29,2348.92 L1870.72,2349.44 L1870.91,2350.11 L1871.2,2350.3 L1871.24,2350.7 L1870.46,2350.91 L1869.69,2350.78 L1869.52,2351.23 L1870.37,2351.62 L1871.08,2351.47 L1871.77,2351.33 L1872.55,2352.24 L1873.52,2353.2 L1874.68,2354.38 L1874.82,2355.06 L1872.9,2354.56 L1873.9,2355.96 L1873.7,2356.35 L1874.35,2357.35 L1874.93,2357.6 L1875.25,2359.28 L1875.25,2359.82 L1874.78,2359.98 L1870.85,2359.39 L1870.04,2360.32 L1868.47,2360.69 L1862.24,2352.7 L1862.78,2346.16 L1864.11,2343.98 L1864.9,2340.22 L1864.45,2339.02 L1864.75,2338.3 L1865.39,2338.23 L1865.49,2337.51 L1866.03,2337.71 L1866.82,2339.6 L1867.56,2340.63" fill-rule="evenodd"/>
   <path vector-effect="none" d="M896.636,1291 L896.181,1289.97 L896.836,1289.2 L897.577,1288.23 L898.545,1287.38 L900.17,1287.06 L900.541,1286.27 L901.139,1285.07 L902.05,1284.64 L902.763,1284.16 L902.621,1282.79 L903.248,1281.48 L904.502,1282.79 L905.186,1285.27 L904.615,1285.98 L904.957,1287.18 L904.701,1287.32 L903.846,1286.75 L903.162,1286.66 L902.564,1287.21 L901.794,1288.8 L901.879,1289.71 L901.965,1290.71 L901.11,1292.08 L899.486,1293.79 L898.176,1294.22 L897.092,1294.13 L896.209,1294.13 L895.867,1293.62 L895.952,1292.93 L896.807,1291.62 L896.636,1291" fill-rule="evenodd"/>
   <path vector-effect="none" d="M1415.25,1534.13 L1416.16,1535.04 L1417.43,1536.59 L1417.8,1538.32 L1417.07,1538.69 L1418.07,1541.06 L1417.89,1545.62 L1417.34,1547.62 L1416.61,1548.17 L1415.7,1548.17 L1415.52,1547.17 L1414.79,1545.44 L1413.42,1544.43 L1413.06,1543.16 L1412.97,1541.97 L1411.32,1540.51 L1411.78,1539.14 L1411.01,1538.68 L1410.87,1537.87 L1412.15,1538.05 L1412.15,1537.32 L1413.06,1537.05 L1412.97,1536.23 L1413.24,1535.59 L1411.87,1533.03 L1413.42,1533.03 L1415.25,1534.13" fill-rule="evenodd"/>
   <path vector-effect="none" d="M1670.92,2108.71 L1668.76,2109.51 L1665.68,2108.14 L1663.63,2107.91 L1662.94,2102.55 L1665.56,2102.1 L1666.36,2104.49 L1668.76,2104.49 L1669.67,2105.97 L1671.38,2106.2 L1670.92,2108.71" fill-rule="evenodd"/>
   <path vector-effect="none" d="M1388.09,1319.18 L1388.2,1318.67 L1389.46,1319.41 L1389.28,1319.92 L1390.37,1321.52 L1390.31,1322.14 L1390.94,1322.49 L1390.88,1323.17 L1390.08,1323.46 L1389.63,1323.97 L1389.11,1323.68 L1387.97,1323.11 L1388.49,1322.6 L1387.29,1321.8 L1387.86,1321.18 L1387.8,1320.21 L1387.4,1319.41 L1388.09,1319.18" fill-rule="evenodd"/>
   <path vector-effect="none" d="M2171.54,2671.27 L2171.03,2671.15 L2170.78,2670.93 L2170.7,2670.47 L2170.78,2670.25 L2171.12,2670.25 L2171.37,2670.02 L2171.45,2669.68 L2171.71,2669.45 L2171.79,2669.11 L2171.87,2668.77 L2172.13,2668.54 L2172.38,2668.32 L2172.71,2668.2 L2173.05,2668.32 L2173.3,2668.43 L2173.56,2668.77 L2173.64,2669.23 L2173.81,2669.68 L2173.22,2670.81 L2172.29,2671.5 L2172.04,2671.61 L2171.79,2671.5 L2171.54,2671.27 L2171.54,2671.27" fill-rule="evenodd"/>
   <path vector-effect="none" d="M916.534,1298.34 L916.1,1297.96 L915.813,1297.68 L915.912,1296.1 L916.182,1294.9 L916.563,1294.65 L916.933,1294.94 L917.102,1295.5 L917.832,1296.29 L918.121,1297.07 L918.087,1297.56 L917.927,1298.02 L917.22,1298.47 L916.534,1298.34" fill-rule="evenodd"/>
   <path vector-effect="none" d="M958.013,1391.03 L959.045,1390.08 L959.711,1389.22 L960.028,1389.42 L959.892,1390.34 L960.427,1391.16 L960.272,1392.46 L959.055,1392.69 L958.318,1392.2 L958.013,1391.03" fill-rule="evenodd"/>
   <path vector-effect="none" d="M1431.72,1635.72 L1431.04,1635.27 L1430.07,1634.53 L1430.52,1633.95 L1432.06,1634.01 L1433.71,1633.67 L1434,1634.64 L1432.86,1635.04 L1431.72,1635.72" fill-rule="evenodd"/>
   <path vector-effect="none" d="M920.595,1293.55 L919.784,1294.2 L920.284,1294.48 L919.566,1294.59 L919.331,1294.91 L919.41,1295.19 L918.972,1295.49 L917.769,1294.74 L917.535,1294.04 L918.41,1293.84 L918.988,1293.9 L920.018,1292.96 L920.595,1293.55" fill-rule="evenodd"/>
   <path vector-effect="none" d="M2209.4,2565.69 L2209.73,2565.8 L2209.9,2566.03 L2209.9,2566.25 L2209.9,2566.59 L2209.73,2566.82 L2209.57,2567.05 L2209.4,2567.28 L2209.14,2567.28 L2208.89,2567.16 L2208.81,2566.94 L2208.64,2566.71 L2208.47,2566.48 L2208.3,2566.48 L2208.22,2566.71 L2208.3,2566.94 L2208.14,2567.16 L2207.88,2567.16 L2207.71,2567.05 L2207.63,2566.94 L2207.71,2566.71 L2207.63,2566.48 L2207.46,2566.25 L2207.46,2565.91 L2207.71,2565.91 L2207.8,2565.8 L2207.8,2565.57 L2208.05,2565.35 L2208.14,2565.12 L2208.39,2565.12 L2208.81,2565.46 L2208.81,2565.8 L2209.14,2565.91 L2209.4,2565.69 L2209.4,2565.69" fill-rule="evenodd"/>
   <path vector-effect="none" d="M1467.4,1688.36 L1467.92,1689.61 L1467.26,1690.13 L1466.78,1689.78 L1465.91,1688.64 L1466.57,1687.63 L1467.4,1688.36" fill-rule="evenodd"/>
   <path vector-effect="none" d="M2052.61,2363.93 L2051.58,2362.67 L2052.09,2362.16 L2054.09,2362.96 L2052.61,2363.93" fill-rule="evenodd"/>
   <path vector-effect="none" d="M2168.42,2669.34 L2168.17,2669.68 L2168.26,2670.02 L2168.17,2670.25 L2168.17,2670.47 L2168,2670.47 L2167.75,2670.25 L2167.5,2669.57 L2167.33,2669.34 L2167.16,2668.77 L2167.41,2668.32 L2167.75,2668.2 L2168.42,2668.43 L2168.34,2668.88 L2168.42,2669.34 L2168.42,2669.34" fill-rule="evenodd"/>
  </g>
  <g font-size="34.5833" font-style="normal" fill="none" stroke="#000000" transform="matrix(0.999744,0,0,0.999744,0,0)" font-family="MS Shell Dlg 2" stroke-opacity="1" stroke-width="1" stroke-linecap="square" font-weight="400" stroke-linejoin="bevel"/>
  <g font-size="34.5833" font-style="normal" fill="none" stroke="#000000" transform="matrix(11.808,0,0,11.808,0,0)" font-family="MS Shell Dlg 2" stroke-opacity="1" stroke-width="1" stroke-linecap="square" font-weight="400" stroke-linejoin="bevel"/>
  <g font-size="34.5833" font-style="normal" fill="none" stroke="#000000" transform="matrix(11.808,0,0,11.808,0,0)" font-family="MS Shell Dlg 2" stroke-opacity="1" stroke-width="1" stroke-linecap="square" font-weight="400" stroke-linejoin="bevel"/>
  <g font-size="34.5833" font-style="normal" fill="none" stroke="#000000" transform="matrix(11.808,0,0,11.808,0,0)" font-family="MS Shell Dlg 2" stroke-opacity="1" stroke-width="1" stroke-linecap="square" font-weight="400" stroke-linejoin="bevel"/>
  <g font-size="34.5833" font-style="normal" fill="none" stroke="#000000" transform="matrix(1,0,0,1,0,0)" font-family="MS Shell Dlg 2" stroke-opacity="1" stroke-width="1" stroke-linecap="square" font-weight="400" stroke-linejoin="bevel"/>
  <g font-size="34.5833" font-style="normal" fill="none" stroke="#000000" transform="matrix(11.808,0,0,11.808,0,0)" font-family="MS Shell Dlg 2" stroke-opacity="1" stroke-width="1" stroke-linecap="square" font-weight="400" stroke-linejoin="bevel"/>
  <g font-size="34.5833" font-style="normal" fill="none" stroke="#000000" transform="matrix(11.808,0,0,11.808,0,0)" font-family="MS Shell Dlg 2" stroke-opacity="1" stroke-width="1" stroke-linecap="square" font-weight="400" stroke-linejoin="bevel"/>
  <g font-size="34.5833" font-style="normal" fill="none" stroke="#000000" transform="matrix(11.808,0,0,11.808,0,0)" font-family="MS Shell Dlg 2" stroke-opacity="1" stroke-width="1" stroke-linecap="square" font-weight="400" stroke-linejoin="bevel"/>
  <g font-size="34.5833" font-style="normal" fill="none" stroke="#000000" transform="matrix(11.808,0,0,11.808,0,0)" font-family="MS Shell Dlg 2" stroke-opacity="1" stroke-width="1" stroke-linecap="square" font-weight="400" stroke-linejoin="bevel"/>
  <g font-size="34.5833" font-style="normal" fill="none" stroke="#000000" transform="matrix(1,0,0,1,0,0)" font-family="MS Shell Dlg 2" stroke-opacity="1" stroke-width="1" stroke-linecap="square" font-weight="400" stroke-linejoin="bevel"/>
 </g>
</svg>
