<?xml version='1.0' encoding='UTF-8' standalone='no'?>
<svg width="249.936mm" version="1.2" viewBox="0 0 2952 2952" baseProfile="tiny" xmlns="http://www.w3.org/2000/svg" height="249.936mm" xmlns:xlink="http://www.w3.org/1999/xlink">
 <title>Qt SVG Document</title>
 <desc>Generated with Qt</desc>
 <defs/>
 <g fill="none" stroke="black" fill-rule="evenodd" stroke-width="1" stroke-linecap="square" stroke-linejoin="bevel">
  <g font-size="34.5833" font-style="normal" fill="none" stroke="#000000" transform="matrix(1,0,0,1,0,0)" font-family="MS Shell Dlg 2" stroke-opacity="1" stroke-width="1" stroke-linecap="square" font-weight="400" stroke-linejoin="bevel"/>
  <g font-size="34.5833" font-style="normal" fill="none" stroke="#000000" transform="matrix(1,0,0,1,0,0)" font-family="MS Shell Dlg 2" stroke-opacity="1" stroke-width="1" stroke-linecap="square" font-weight="400" stroke-linejoin="bevel"/>
  <g font-size="34.5833" font-style="normal" fill="none" stroke="#000000" transform="matrix(11.808,0,0,11.808,0,0)" font-family="MS Shell Dlg 2" stroke-opacity="1" stroke-width="1" stroke-linecap="square" font-weight="400" stroke-linejoin="bevel"/>
  <g font-size="34.5833" font-style="normal" fill="none" stroke="#000000" transform="matrix(0.999744,0,0,0.999744,0,0)" font-family="MS Shell Dlg 2" stroke-opacity="1" stroke-width="1" stroke-linecap="square" font-weight="400" stroke-linejoin="bevel"/>
  <g font-size="34.5833" font-style="normal" fill="#ffffff" stroke="none" transform="matrix(0.999744,0,0,0.999744,0,0)" font-family="MS Shell Dlg 2" fill-opacity="0" font-weight="400">
   <path vector-effect="none" d="M-2,-2 L2955,-2 L2955,2955 L-2,2955 L-2,-2" fill-rule="evenodd"/>
  </g>
  <g font-size="34.5833" font-style="normal" fill="none" stroke="#000000" transform="matrix(0.999744,0,0,0.999744,0,0)" font-family="MS Shell Dlg 2" stroke-opacity="1" stroke-width="1" stroke-linecap="square" font-weight="400" stroke-linejoin="bevel"/>
  <g font-size="34.5833" font-style="normal" fill="none" stroke="#000000" transform="matrix(11.808,0,0,11.808,0,0)" font-family="MS Shell Dlg 2" stroke-opacity="1" stroke-width="1" stroke-linecap="square" font-weight="400" stroke-linejoin="bevel"/>
  <g font-size="34.5833" font-style="normal" fill="none" stroke="#000000" transform="matrix(11.808,0,0,11.808,0,0)" font-family="MS Shell Dlg 2" stroke-opacity="1" stroke-width="1" stroke-linecap="square" font-weight="400" stroke-linejoin="bevel"/>
  <g font-size="34.5833" font-style="normal" fill="none" stroke="#000000" transform="matrix(11.808,0,0,11.808,0,0)" font-family="MS Shell Dlg 2" stroke-opacity="1" stroke-width="1" stroke-linecap="square" font-weight="400" stroke-linejoin="bevel"/>
  <g font-size="34.5833" font-style="normal" fill="none" stroke="#000000" transform="matrix(11.808,0,0,11.808,0,0)" font-family="MS Shell Dlg 2" stroke-opacity="1" stroke-width="1" stroke-linecap="square" font-weight="400" stroke-linejoin="bevel"/>
  <g font-size="34.5833" font-style="normal" fill="none" stroke="#000000" transform="matrix(11.808,0,0,11.808,0,0)" font-family="MS Shell Dlg 2" stroke-opacity="1" stroke-width="1" stroke-linecap="square" font-weight="400" stroke-linejoin="bevel"/>
  <g font-size="34.5833" font-style="normal" fill="#ffffff" stroke="none" transform="matrix(11.808,0,0,11.808,0,0)" font-family="MS Shell Dlg 2" fill-opacity="0" font-weight="400">
   <path vector-effect="none" d="M0,0 L250,0 L250,250 L0,250 L0,0" fill-rule="evenodd"/>
  </g>
  <g font-size="34.5833" font-style="normal" fill="none" stroke="#000000" transform="matrix(11.808,0,0,11.808,0,0)" font-family="MS Shell Dlg 2" stroke-opacity="1" stroke-width="1" stroke-linecap="square" font-weight="400" stroke-linejoin="bevel"/>
  <g font-size="34.5833" font-style="normal" fill="none" stroke="#000000" transform="matrix(11.808,0,0,11.808,0,0)" font-family="MS Shell Dlg 2" stroke-opacity="1" stroke-width="1" stroke-linecap="square" font-weight="400" stroke-linejoin="bevel"/>
  <g font-size="34.5833" font-style="normal" fill="#000000" stroke="none" transform="matrix(0.999744,0,0,0.999744,0,0)" font-family="MS Shell Dlg 2" fill-opacity="0" font-weight="400">
   <rect width="2953" x="0" y="0" height="2953"/>
  </g>
  <g font-size="34.5833" font-style="normal" fill="none" stroke="#000000" transform="matrix(0.999744,0,0,0.999744,0,0)" font-family="MS Shell Dlg 2" stroke-opacity="1" stroke-width="1" stroke-linecap="square" font-weight="400" stroke-linejoin="bevel"/>
  <g font-size="34.5833" font-style="normal" fill="#c5c5c5" stroke="#5c5c5c" transform="matrix(0.999744,0,0,0.999744,0,0)" font-family="MS Shell Dlg 2" fill-opacity="1" stroke-opacity="1" stroke-width="3.07087" stroke-linecap="square" font-weight="400" stroke-linejoin="bevel">
   <path vector-effect="none" d="M166.935,1380.15 L151.695,1234.67 L104.857,1182.07 L120.781,1070.1 L152.364,996.798 L240.155,942.249 L331.545,872.222 L382.412,792.1 L377.114,729.073 L394.655,664.275 L450.878,601.136 L670.092,401.723 L803.703,305.997 L965.273,244.211 L1157.31,225.875 L1285.2,215.5 L1940.97,117.885 L1940.78,119.046 L1940.39,121.426 L1940.2,122.841 L1939.91,125.098 L1939.33,128.77 L1938.75,132.442 L1938.75,132.449 L1938.08,135.721 L1938.25,135.763 L1939.14,135.983 L1939.71,136.114 L1941.35,136.245 L1942.7,136.639 L1945.01,136.901 L1948,136.508 L1950.41,135.721 L1953.59,134.016 L1956.67,134.147 L1959.37,135.327 L1962.17,133.885 L1964.58,133.622 L1965.12,133.877 L1968.24,135.327 L1970.65,136.901 L1972.86,137.688 L1976.14,138.081 L1978.07,137.95 L1980.67,138.212 L1984.04,138.081 L1987.51,138.212 L1990.5,138.737 L1991.85,138.805 L1993.1,138.868 L1995.99,138.745 L1996.18,138.737 L1996.36,138.625 L1998.4,137.294 L2000.6,137.794 L2000.71,137.819 L2002.64,138.212 L2005.44,138.344 L2008.33,138.212 L2008.54,138.169 L2008.93,138.091 L2010.93,137.688 L2013.53,137.557 L2016.23,136.508 L2017.77,136.114 L2021.72,134.672 L2022.12,134.215 L2022.88,133.36 L2025.77,133.622 L2027.89,134.278 L2029.87,134.855 L2030.59,135.065 L2031.87,134.409 L2032.9,133.885 L2035.69,133.098 L2038.49,133.753 L2039.95,134.214 L2040.99,134.54 L2043.4,135.065 L2043.98,134.938 L2046.39,134.409 L2048.65,133.849 L2050.63,133.36 L2051.07,133.219 L2052.65,132.704 L2053.88,133.353 L2054.39,133.622 L2055.13,133.496 L2055.96,133.356 L2057.47,133.098 L2058.61,129.881 L2058.63,129.819 L2060.17,128.901 L2062.97,128.114 L2063.48,127.997 L2064.7,127.721 L2066.82,126.934 L2068.46,126.147 L2071.54,124.704 L2073.04,123.86 L2075.49,122.475 L2078.58,121.557 L2080.99,120.77 L2084.36,118.803 L2086.96,117.885 L2088.31,116.573 L2091.68,114.344 L2094.28,113.557 L2096.89,113.95 L2099.3,114.212 L2101.9,114.344 L2104.6,114.344 L2107.01,114.081 L2109.08,114.299 L2109.51,114.344 L2108.07,119.065 L2106.81,122.737 L2105.46,126.672 L2103.92,131.262 L2102.67,134.934 L2102.17,136.526 L2101.51,138.606 L2100.26,142.278 L2099.01,145.95 L2098.77,146.63 L2097.75,149.491 L2097.04,151.758 L2096.6,153.163 L2095.34,156.835 L2093.61,161.949 L2093.55,162.125 L2092.36,165.621 L2091.1,169.293 L2090.63,170.798 L2089.95,172.965 L2088.98,175.7 L2088.7,176.506 L2088.12,179.129 L2088.02,181.621 L2087.92,185.161 L2089.36,189.184 L2089.37,189.227 L2089.66,194.079 L2089.85,197.75 L2090.04,201.422 L2090.11,204.041 L2090.14,205.094 L2090.33,208.635 L2090.53,212.306 L2090.72,215.978 L2090.85,218.421 L2090.91,219.65 L2091.1,223.19 L2091.3,226.862 L2091.49,230.534 L2091.68,234.205 L2091.88,237.877 L2093.03,243.253 L2093.45,245.246 L2093.8,246.925 L2094.57,250.465 L2094.71,251.032 L2095.44,254.137 L2096.21,257.808 L2096.98,261.48 L2097.12,262.154 L2097.75,265.152 L2098.52,268.692 L2098.78,269.769 L2099.39,272.363 L2100.16,276.035 L2100.8,279.061 L2100.93,279.706 L2101.7,283.247 L2102.48,286.918 L2102.85,288.506 L2103.34,290.589 L2104.11,294.261 L2104.47,295.968 L2104.89,297.932 L2107.28,298.776 L2107.49,298.85 L2109.9,299.637 L2111.07,300.037 L2112.59,300.555 L2113.14,300.719 L2115.2,301.341 L2117.89,302.259 L2120.59,303.177 L2120.94,303.297 L2123.29,304.095 L2124.13,304.349 L2125.89,304.882 L2128.59,305.799 L2129.84,306.848 L2129.84,306.848 L2129.94,306.853 L2132.35,306.979 L2135.05,307.111 L2137.26,307.111 L2139.96,307.111 L2142.66,307.111 L2143.72,307.17 L2144.97,307.242 L2146.8,307.635 L2146.99,307.66 L2149.7,308.028 L2152.29,308.256 L2152.68,308.291 L2153.22,308.203 L2155.09,307.897 L2156.26,308.03 L2157.4,308.159 L2159.62,308.684 L2162.42,309.208 L2165.21,309.602 L2168.53,309.343 L2168.58,309.34 L2168.68,309.374 L2169.46,309.667 L2171.38,310.388 L2172.03,310.914 L2174.46,312.88 L2176,313.929 L2177.2,314.014 L2177.83,314.06 L2179.86,313.273 L2182.85,313.273 L2182.93,313.289 L2185.06,313.666 L2187.47,314.06 L2188.6,314.296 L2189.98,314.584 L2192.39,314.715 L2195.08,314.453 L2195.75,314.344 L2197.49,314.06 L2198.86,313.982 L2199.81,313.929 L2202.21,314.715 L2205.01,315.502 L2208,316.551 L2211.37,318.363 L2211.66,318.518 L2213.59,319.829 L2216.13,321.559 L2216.28,321.665 L2218.98,323.5 L2220.71,326.886 L2220.72,326.909 L2222.22,328.104 L2224.19,329.663 L2227.56,331.629 L2231.03,335.825 L2230.06,338.709 L2230.12,339.801 L2230.26,342.25 L2231.19,343.46 L2232.38,345.003 L2232.76,349.33 L2235.27,354.836 L2238.35,357.852 L2239.37,358.015 L2239.99,358.114 L2241.1,358.222 L2242.69,358.376 L2245.1,360.343 L2247.25,361.807 L2248.57,362.703 L2251.26,364.538 L2252.97,365.614 L2253.96,366.243 L2254.04,366.996 L2254.16,368.078 L2254.17,368.094 L2256.47,370.045 L2256.47,370.09 L2256.85,373.192 L2257.16,373.762 L2257.72,374.799 L2257.91,375.158 L2257.8,376.016 L2257.54,378.042 L2257.43,378.829 L2258.37,381.388 L2258.59,381.976 L2260.23,383.68 L2260.42,386.564 L2260.29,387.338 L2260.23,387.744 L2260.28,387.789 L2261.29,388.662 L2263.12,389.449 L2265.14,390.366 L2265.94,391.869 L2266.3,392.552 L2266.39,392.726 L2266.68,393.906 L2268.42,394.824 L2269.96,396.168 L2271.12,397.184 L2271.92,397.522 L2273.62,398.233 L2277.38,399.413 L2281.33,402.297 L2282.78,406.754 L2285.67,408.721 L2287.59,410.688 L2287.6,410.693 L2290.5,412.55 L2290.87,412.785 L2293.09,415.407 L2294.22,418.612 L2294.34,418.947 L2295.02,422.487 L2294.63,426.551 L2293.28,430.484 L2293.42,430.836 L2294.53,433.63 L2295.5,437.17 L2296.56,440.054 L2297.42,443.724 L2297.23,446.609 L2299.26,449.099 L2299.42,450.106 L2299.5,450.602 L2299.93,453.294 L2302.05,455.523 L2303.85,457.519 L2304.65,458.407 L2305.62,460.505 L2306.48,461.684 L2307.06,463.258 L2308.46,462.759 L2309.28,462.471 L2311.78,461.816 L2313.42,461.684 L2316.6,462.209 L2318.62,462.471 L2320.07,462.209 L2323.44,461.947 L2325.95,461.553 L2326.66,461.674 L2328.26,461.947 L2329.28,462.08 L2331.25,462.34 L2333.75,462.471 L2336.45,462.602 L2339.25,462.733 L2342.14,463.651 L2346.47,466.404 L2349.17,468.895 L2352.06,470.074 L2355.05,469.55 L2358.04,469.55 L2360.93,469.681 L2364.3,467.977 L2367.19,466.535 L2368.83,465.879 L2370.95,465.355 L2372.98,464.7 L2375.67,463.651 L2378.28,463.52 L2381.26,464.044 L2383.67,463.782 L2387.62,462.471 L2391.38,462.602 L2394.08,462.471 L2396.1,461.947 L2398.51,461.16 L2398.61,463.782 L2399.76,466.404 L2402.46,469.943 L2402.99,470.662 L2405.06,473.483 L2406.92,475.832 L2407.76,476.891 L2410.46,480.431 L2413.16,483.97 L2414.4,485.663 L2415.76,487.51 L2418.46,491.049 L2421.16,494.588 L2422.1,495.776 L2423.86,497.997 L2425.82,500.663 L2426.46,501.536 L2429.16,505.075 L2431.85,508.615 L2434.55,512.154 L2437.25,515.693 L2437.49,516 L2439.85,519.101 L2442.55,522.641 L2445.52,522.742 L2446.41,522.772 L2446.85,522.772 L2449.1,522.772 L2451.06,522.867 L2451.8,522.903 L2452.65,522.903 L2454.4,522.903 L2455.93,522.977 L2457.1,523.034 L2458.45,523.034 L2459.8,523.034 L2460.98,523.091 L2462.5,523.165 L2464.24,523.165 L2465.2,523.165 L2465.97,523.204 L2467.8,523.296 L2470.04,523.296 L2470.5,523.296 L2473.2,523.296 L2475.89,523.427 L2478.5,523.427 L2480.81,523.54 L2481.19,523.558 L2481.63,523.558 L2483.89,523.558 L2485.86,523.654 L2486.59,523.689 L2487.43,523.689 L2489.29,523.689 L2490.8,523.766 L2491.89,523.82 L2493.23,523.82 L2494.59,523.82 L2495.78,523.878 L2497.29,523.952 L2499.02,523.952 L2499.99,523.952 L2500.77,523.991 L2502.59,524.083 L2504.82,524.083 L2505.29,524.083 L2507.98,524.083 L2510.68,524.214 L2513.38,524.214 L2515.63,524.327 L2515.98,524.345 L2516.41,524.345 L2518.68,524.345 L2520.66,524.441 L2521.38,524.476 L2522.21,524.476 L2524.08,524.476 L2525.6,524.553 L2526.68,524.607 L2528,524.607 L2529.38,524.607 L2530.57,524.665 L2532.08,524.738 L2533.8,524.738 L2534.77,524.738 L2535.62,524.779 L2537.47,524.869 L2539.6,524.869 L2540.07,524.869 L2542.77,524.869 L2545.47,525 L2548.17,525 L2550.43,525.114 L2550.77,525.131 L2551.19,525.131 L2553.47,525.131 L2555.45,525.228 L2556.17,525.262 L2556.99,525.262 L2558.86,525.262 L2560.5,525.342 L2561.56,525.393 L2562.78,525.393 L2564.17,525.393 L2565.37,525.452 L2566.86,525.525 L2568.58,525.525 L2569.56,525.525 L2570.42,525.566 L2572.26,525.656 L2574.38,525.656 L2574.86,525.656 L2577.56,525.656 L2580.26,525.787 L2582.96,525.787 L2585.38,525.905 L2585.65,525.918 L2585.97,525.918 L2588.26,525.918 L2588.27,525.97 L2588.72,527.258 L2589.7,530.112 L2590.16,531.554 L2590.86,533.783 L2592.11,537.453 L2592.47,538.46 L2593.36,540.992 L2594.15,543.479 L2594.52,544.662 L2595.72,548.166 L2595.77,548.333 L2597.03,552.003 L2597.43,553.299 L2598.18,555.673 L2599.04,558.091 L2599.43,559.212 L2600.69,562.882 L2601.43,565.224 L2601.84,566.553 L2603.1,570.223 L2603.13,570.313 L2604.35,573.762 L2605.42,577.148 L2605.51,577.432 L2605.79,578.272 L2606.76,581.102 L2608.01,584.772 L2608.7,586.968 L2609.17,588.442 L2609.7,589.943 L2610.42,591.981 L2611.19,594.209 L2611.99,596.74 L2612.35,597.879 L2613.6,601.549 L2614.85,605.219 L2614.86,605.228 L2616.11,608.758 L2616.9,611.264 L2617.26,612.428 L2618.52,616.098 L2619.77,619.768 L2619.78,619.812 L2621.02,623.307 L2621.8,625.788 L2622.18,626.977 L2623.43,630.647 L2624.68,634.316 L2624.81,634.681 L2625.94,637.986 L2626.28,639.033 L2627.09,641.525 L2628.34,645.195 L2629.6,648.865 L2629.78,649.391 L2630.85,652.534 L2632.1,656.073 L2633.05,659.071 L2633.26,659.743 L2634.51,663.412 L2634.75,664.1 L2635.76,667.082 L2637.02,670.752 L2637.71,672.859 L2638.17,674.29 L2638.19,674.302 L2639.13,674.845 L2639.52,675.077 L2640.24,675.457 L2642.22,676.518 L2643.33,677.165 L2644.92,678.091 L2647.62,679.533 L2647.76,679.61 L2650.32,680.974 L2652.92,682.416 L2654.15,683.133 L2655.62,683.989 L2658.24,685.393 L2658.31,685.43 L2661.01,686.872 L2663.61,688.314 L2664.96,689.1 L2666.31,689.886 L2668.73,691.177 L2669.01,691.328 L2671.71,692.77 L2673.38,693.741 L2674.41,694.342 L2677.01,695.784 L2679.21,696.96 L2679.71,697.226 L2682.41,698.667 L2684.19,699.708 L2685.1,700.24 L2687.71,701.681 L2689.69,702.743 L2690.4,703.123 L2693.1,704.565 L2695.01,705.675 L2695.8,706.137 L2696.3,706.541 L2699.17,708.889 L2701.01,710.559 L2701.78,711.248 L2703.41,712.602 L2704.47,713.476 L2705.66,714.513 L2707.17,715.835 L2708.52,716.95 L2709.87,718.063 L2712.47,720.291 L2713.42,721.122 L2715.17,722.65 L2716.73,723.939 L2717.87,724.878 L2720.57,727.106 L2723.27,729.465 L2725.87,731.692 L2726.91,732.6 L2728.57,734.051 L2730.05,735.275 L2731.26,736.279 L2733.96,738.507 L2735.78,740.154 L2736.56,740.866 L2738.26,742.264 L2739.26,743.094 L2740.39,744.078 L2741.96,745.453 L2743.36,746.612 L2744.66,747.68 L2748.32,750.826 L2751.02,753.053 L2753.72,755.412 L2756.32,757.64 L2759.02,759.868 L2761.72,762.227 L2764.41,764.454 L2765.8,765.712 L2767.02,766.813 L2769.63,768.974 L2769.71,769.041 L2772.41,771.269 L2775.11,773.627 L2777.81,775.855 L2779.23,777.146 L2780.41,778.214 L2782.95,780.31 L2783.11,780.442 L2785.81,782.669 L2788.5,785.028 L2790.84,787.026 L2791.11,787.256 L2793.81,789.615 L2796.27,791.646 L2796.5,791.842 L2799.2,794.07 L2801.9,796.429 L2804.5,798.656 L2804.53,798.683 L2807.2,801.015 L2809.58,802.982 L2809.9,803.243 L2812.6,805.47 L2813.99,806.738 L2815.2,807.829 L2817.79,809.97 L2817.9,810.057 L2820.59,812.284 L2823.29,814.643 L2825.99,816.871 L2827.43,818.171 L2828.59,819.229 L2831.11,821.305 L2831.29,821.457 L2833.99,823.684 L2836.69,826.043 L2839.15,828.15 L2839.29,828.271 L2841.99,830.629 L2844.42,832.641 L2844.69,832.857 L2847.38,835.084 L2850.08,837.443 L2852.68,839.671 L2852.74,839.721 L2855.38,842.029 L2857.74,843.976 L2858.08,844.257 L2860.78,846.484 L2863.48,848.319 L2863.39,848.786 L2863.38,848.843 L2863.37,848.889 L2857.12,872.035 L2851.82,891.427 L2846.13,912.259 L2842.28,926.541 L2842.27,926.554 L2841.54,928.122 L2835.82,940.298 L2834.09,944.752 L2832.83,948.158 L2831.32,948.333 L2827.15,948.814 L2820.11,952.482 L2816.12,954.557 L2812.31,956.543 L2810.11,957.022 L2809.9,957.067 L2807.59,957.854 L2804.79,959.164 L2801.8,960.343 L2801.38,960.598 L2798.53,962.308 L2795.54,964.011 L2794.48,964.797 L2792.26,966.5 L2789.28,968.859 L2786.1,971.217 L2782.72,972.92 L2780.51,974.23 L2777.9,976.064 L2775.88,978.16 L2774.05,980.388 L2770.97,983.008 L2768.85,985.497 L2764.61,986.938 L2762.29,987.724 L2760.27,988.641 L2758.05,989.427 L2756.22,990.344 L2754.1,991.523 L2751.89,992.702 L2747.55,994.406 L2744.47,996.895 L2741.77,998.991 L2738.78,1001.09 L2735.12,1003.05 L2732.32,1004.89 L2730.11,1006.46 L2727.6,1008.29 L2724.9,1011.04 L2724.01,1011.91 L2722.21,1013.66 L2719.6,1015.89 L2717,1018.9 L2716.62,1020.48 L2716.62,1020.55 L2716.62,1024.14 L2714.5,1028.07 L2709.97,1032.92 L2707.85,1036.33 L2704.76,1038.69 L2700.04,1042.09 L2696.57,1045.76 L2694.55,1050.21 L2692.83,1051.51 L2690.21,1053.49 L2688.48,1056.63 L2687.59,1059.85 L2687.32,1060.82 L2687.22,1063.71 L2686.84,1066.85 L2686.74,1068.42 L2686.65,1071.96 L2685.78,1074.45 L2684.8,1076.03 L2683.76,1077.72 L2683.06,1078.91 L2682.21,1080.34 L2680.48,1083.36 L2680.12,1084.18 L2679.13,1086.5 L2678.17,1089.25 L2677.64,1090.44 L2676.72,1092.52 L2675.66,1095.14 L2674.6,1098.16 L2673.73,1103.13 L2672.91,1106.86 L2672.87,1107.06 L2672.88,1107.18 L2673.15,1109.29 L2672.96,1113.35 L2673.83,1115.84 L2673.93,1120.16 L2673.06,1124.88 L2672.48,1127.24 L2669.49,1130.64 L2667.66,1133.13 L2664.77,1136.67 L2661.69,1139.42 L2658.8,1140.73 L2657.83,1143.87 L2656.48,1147.54 L2653.88,1151.73 L2652.44,1155.79 L2651.18,1160.38 L2650.99,1163 L2650.91,1164.16 L2650.8,1165.75 L2649.26,1168.76 L2646.94,1171.25 L2643.67,1174.39 L2640.87,1177.01 L2639.43,1179.63 L2638.74,1181.38 L2637.98,1183.3 L2636.05,1186.44 L2635.19,1191.02 L2634.22,1193.78 L2631.81,1195.61 L2628.54,1197.31 L2625.94,1199.41 L2623.04,1203.47 L2621.21,1207.4 L2618.8,1210.15 L2615.82,1212.11 L2612.54,1213.29 L2609.46,1214.6 L2606.18,1215.52 L2603.39,1216.17 L2601.56,1216.56 L2598.47,1216.04 L2596.06,1216.04 L2593.27,1216.43 L2590.38,1217.35 L2588.16,1218.66 L2585.37,1220.23 L2583.73,1221.41 L2581.99,1223.24 L2579.87,1224.55 L2578.56,1225.19 L2577.17,1225.86 L2576.99,1226.35 L2576.11,1228.61 L2572.93,1230.58 L2569.47,1235.29 L2565.77,1238.69 L2563.49,1240.79 L2562.53,1243.03 L2561.47,1245.51 L2559.92,1248.52 L2556.46,1252.58 L2553.56,1254.94 L2550.19,1256.64 L2548.36,1257.82 L2546.14,1258.87 L2543.93,1260.05 L2541.81,1261.88 L2539.4,1263.58 L2538.15,1265.81 L2536.41,1269.08 L2534.58,1273.54 L2531.59,1277.99 L2530.05,1280.74 L2528.8,1284.93 L2527.45,1288.73 L2525.91,1292.66 L2523.79,1296.45 L2520.32,1299.73 L2517.43,1301.17 L2514.92,1302.48 L2515.02,1305.88 L2515.69,1309.68 L2516.37,1312.43 L2515.89,1316.23 L2515.98,1319.63 L2515.6,1323.56 L2515.69,1326.44 L2515.79,1329.32 L2515.89,1332.47 L2516.46,1336.4 L2516.17,1340.32 L2516.46,1343.6 L2516.27,1347 L2516.56,1351.32 L2516.46,1354.07 L2516.75,1357.61 L2516.08,1360.1 L2515.02,1363.11 L2513.57,1366.91 L2514.04,1371.38 L2514.05,1371.49 L2514.11,1371.63 L2515.6,1375.68 L2516.17,1377.56 L2516.56,1378.82 L2518.1,1382.4 L2518.2,1382.62 L2519.26,1386.42 L2517.52,1390.61 L2515.6,1393.62 L2515.11,1396.89 L2513.77,1400.82 L2511.74,1403.7 L2510.59,1407.11 L2509.85,1409.1 L2509.33,1410.51 L2509.33,1411.91 L2509.33,1412.87 L2509.62,1415.75 L2509.62,1418.11 L2508.92,1420.86 L2508.75,1421.51 L2508.9,1422.5 L2509.53,1426.75 L2507.31,1430.68 L2506.44,1433.03 L2504.71,1435.65 L2502.01,1439.84 L2499.02,1446.91 L2496.81,1450.45 L2495.36,1454.11 L2493.34,1456.34 L2491.6,1459.22 L2489.39,1461.97 L2487.51,1464.94 L2487.07,1465.64 L2486.78,1468.39 L2486.11,1471.27 L2485.63,1474.02 L2485.75,1475.58 L2485.92,1477.81 L2485.82,1480.56 L2486.49,1484.23 L2486.51,1484.4 L2486.88,1487.63 L2487.94,1490.77 L2490.35,1496.67 L2492.37,1499.94 L2494.59,1502.95 L2498.35,1505.83 L2498.46,1505.96 L2500.27,1508.06 L2501.78,1509.93 L2502.59,1510.94 L2502.2,1513.42 L2502.64,1514.85 L2502.97,1515.91 L2503.36,1518.53 L2504.32,1522.72 L2504.61,1527.56 L2504.32,1530.44 L2505.38,1535.03 L2505.09,1539.22 L2505.48,1543.67 L2506.73,1547.73 L2506.48,1549.89 L2506.44,1550.21 L2506.62,1550.6 L2509.14,1555.97 L2511.26,1559.64 L2512.16,1561.35 L2513.48,1563.83 L2514.54,1565.92 L2516.37,1568.67 L2518.29,1571.55 L2520.7,1576.27 L2522.25,1579.02 L2523.53,1580.3 L2524.08,1580.85 L2525.04,1582.68 L2526.97,1585.43 L2528.61,1588.18 L2529.86,1590.54 L2531.3,1592.76 L2533.52,1596.16 L2534.97,1598.26 L2535.28,1598.53 L2536.8,1599.83 L2538.63,1600.88 L2541.13,1602.06 L2543.15,1603.02 L2544.7,1603.76 L2546.72,1606.51 L2547.88,1609.65 L2549.04,1612.66 L2550.38,1615.93 L2551.83,1619.47 L2552.79,1623.79 L2553.56,1627.45 L2553.95,1630.86 L2553.94,1631.06 L2553.76,1635.83 L2556.21,1637.67 L2559.35,1640.02 L2561.47,1642.51 L2562.72,1644.73 L2563.39,1647.22 L2563.59,1650.62 L2565.51,1654.68 L2565.71,1656.25 L2565.71,1658.82 L2565.71,1662.4 L2565.71,1666.72 L2566,1675.1 L2566.09,1677.98 L2567.83,1682.69 L2568.5,1689.24 L2571.2,1689.37 L2575.44,1691.33 L2579.58,1693.95 L2584.5,1696.44 L2588.16,1699.05 L2590.57,1701.41 L2593.3,1704.99 L2593.36,1705.08 L2594.24,1706.46 L2595.68,1708.74 L2597.99,1712.41 L2600.67,1716.49 L2601.17,1717.25 L2601.17,1717.27 L2602.71,1723.27 L2605.45,1723.89 L2607.34,1724.32 L2609.17,1727.59 L2610.58,1731.83 L2611.48,1734.53 L2613.12,1735.77 L2613.22,1735.83 L2613.28,1736.01 L2614.76,1739.89 L2615.28,1740.75 L2616.59,1742.9 L2616.97,1746.57 L2616.3,1749.05 L2615.53,1752.2 L2615.24,1754.68 L2614.47,1757.82 L2613.5,1761.75 L2611.1,1765.15 L2608.61,1768.03 L2608.49,1768.16 L2609.94,1771.44 L2609.98,1771.58 L2610.9,1774.84 L2611.58,1778.63 L2611.96,1782.82 L2611.96,1786.23 L2611.77,1789.76 L2611.38,1793.95 L2611.29,1797.35 L2610.81,1801.15 L2611.19,1803.89 L2614.28,1807.43 L2617.55,1809.91 L2620.92,1813.32 L2623.82,1817.11 L2625.16,1820.65 L2625.65,1824.18 L2625.65,1824.19 L2626.04,1827.71 L2626.13,1828.5 L2626.16,1828.78 L2626.51,1832.16 L2626.9,1835.83 L2627.1,1837.36 L2627.38,1839.49 L2627.77,1843.16 L2628.15,1846.69 L2627.77,1851.4 L2629.4,1853.63 L2633.36,1857.42 L2635.38,1861.61 L2636.44,1865.54 L2636.54,1870.51 L2636.15,1874.17 L2636.17,1874.8 L2636.25,1877.97 L2635.96,1881.89 L2635.76,1885.43 L2634.32,1889.61 L2633.93,1891.84 L2634.03,1895.24 L2633.26,1898.78 L2633.26,1902.44 L2633.74,1904.53 L2634.8,1906.5 L2634.74,1910 L2634.7,1911.73 L2633.93,1915.26 L2630.95,1920.11 L2628.25,1923.12 L2623.91,1927.96 L2622.27,1929.79 L2620.35,1932.28 L2618.03,1935.15 L2613.89,1937.12 L2613.89,1937.12 L2613.89,1937.12 L2613.74,1937.29 L2613.22,1937.9 L2612.69,1938.44 L2610.9,1940.26 L2608.2,1942.87 L2607.51,1943.51 L2604.64,1946.15 L2602.81,1947.72 L2601.63,1948.92 L2600.88,1949.68 L2598.18,1952.3 L2595.97,1954.65 L2594.5,1957.96 L2593.94,1959.23 L2593.65,1960.31 L2592.69,1963.81 L2592.63,1965.44 L2592.59,1966.69 L2593.2,1969.15 L2593.56,1970.62 L2594.52,1974.93 L2595.19,1976.9 L2595.32,1979.5 L2595.39,1980.82 L2593.46,1985.93 L2594.81,1988.8 L2597.3,1989.43 L2598.47,1989.72 L2597.03,1993.25 L2595.39,1995.35 L2593.36,1999.66 L2591.15,2003.33 L2591.73,2007.91 L2589.32,2010.92 L2587,2013.8 L2583.72,2015.49 L2582.96,2015.89 L2582.63,2017.45 L2582.38,2018.64 L2582.57,2024.13 L2581.7,2028.32 L2579.97,2032.24 L2578.23,2035.78 L2576.11,2040.09 L2573.71,2042.97 L2571.49,2046.24 L2569.66,2050.17 L2569.37,2055.01 L2567.54,2057.5 L2565.32,2062.34 L2563.49,2064.43 L2562.24,2068.36 L2560.98,2071.76 L2560.31,2074.5 L2559.25,2077.78 L2558.97,2079.48 L2558.67,2081.31 L2558.67,2081.39 L2558.58,2083.92 L2554.57,2086.77 L2554.53,2086.8 L2552.12,2088.9 L2550.96,2091.51 L2548.17,2097.01 L2547.75,2099.34 L2547.2,2102.37 L2546.63,2104.47 L2545.76,2107.34 L2545.28,2110.75 L2545.09,2111.76 L2544.7,2113.89 L2544.71,2114.3 L2544.77,2117.13 L2544.8,2118.07 L2544.22,2121.73 L2543.45,2123.7 L2544.02,2127.88 L2545.08,2131.81 L2545.08,2138.09 L2545.24,2141.85 L2545.24,2141.88 L2545.22,2142.13 L2544.83,2147.18 L2544.76,2149.08 L2544.56,2154.15 L2541.25,2154.08 L2540.21,2153.31 L2538.41,2151.79 L2536.9,2151.49 L2534.96,2151.66 L2533.3,2152.36 L2524.99,2152.54 L2522.61,2153.46 L2520.08,2155.5 L2518.84,2156.08 L2516.61,2156.91 L2515.29,2157.1 L2509.23,2155.23 L2507.87,2155.12 L2506.01,2154.98 L2505.15,2154.59 L2504.64,2154.16 L2503.41,2153.83 L2501.78,2154.04 L2497.49,2156.31 L2495.03,2157.01 L2493.27,2157.52 L2490.41,2159.06 L2489.92,2158.81 L2489.13,2158.71 L2487.39,2159.07 L2486.46,2158.92 L2485.2,2159.33 L2483.93,2159.22 L2482.25,2159.45 L2479.96,2158.56 L2478.69,2157.46 L2476.23,2157.77 L2473.86,2157.26 L2472.97,2156.34 L2472.48,2155.05 L2471.04,2154.19 L2467.61,2152.87 L2462.18,2150.65 L2460.11,2150.62 L2456.64,2149.31 L2454.33,2148.98 L2453.65,2147.95 L2451.81,2147.02 L2449.07,2146.32 L2447.31,2146.49 L2444.96,2146.1 L2437.81,2144.68 L2436.23,2143.45 L2434.16,2142.43 L2431.39,2142.52 L2430.2,2141.78 L2428.15,2141.48 L2427.16,2141.6 L2424.1,2139.5 L2420.92,2139.08 L2417.8,2138.42 L2415.32,2137.49 L2413.64,2136.84 L2410.97,2135.72 L2410.16,2135.37 L2410.15,2135.37 L2408.31,2134.85 L2406.95,2134.19 L2403.76,2134.09 L2399.2,2131.64 L2397.92,2131.16 L2396.66,2129.83 L2395.55,2128.92 L2394.24,2126.67 L2393.13,2125.66 L2392.7,2124.5 L2391.53,2123.47 L2390.97,2121.9 L2390.28,2119.97 L2388.61,2120.3 L2386.75,2120.86 L2386.54,2121.02 L2386.2,2121.28 L2384.53,2121.31 L2383.16,2121.08 L2381.22,2120.22 L2380.45,2120.65 L2379.19,2120.89 L2370.05,2118.6 L2368.88,2117.88 L2366.84,2116.62 L2359.78,2115.4 L2354.88,2114.69 L2351.82,2113.96 L2349.83,2113.02 L2344.91,2112.6 L2343.25,2112.46 L2341.05,2112.06 L2340.24,2111.74 L2336.34,2110.23 L2330.54,2108.91 L2327.62,2107.97 L2326.35,2111.37 L2326.48,2116.28 L2326.55,2118.89 L2326.31,2121.53 L2325.75,2123.31 L2324.65,2125.18 L2322.3,2127.6 L2322.23,2127.66 L2319.72,2129.94 L2318.74,2131.3 L2313.23,2136.72 L2310.69,2138.71 L2309.61,2140.74 L2308.35,2143.73 L2306.89,2148.54 L2305.69,2151.4 L2303.51,2155.16 L2301.08,2156.97 L2300.73,2157.23 L2298.82,2158.4 L2298.2,2158.79 L2296.94,2160.19 L2296.4,2161.46 L2295.84,2162.76 L2294.35,2166.82 L2292.67,2170.67 L2291.71,2171.76 L2289.69,2176.62 L2288.38,2177.76 L2283.02,2182.41 L2280.76,2184.91 L2278.76,2187.49 L2276.04,2194.09 L2275.08,2195.81 L2273.63,2197.38 L2273.29,2198.6 L2272.93,2200.95 L2272.87,2203.58 L2272.62,2206.67 L2272.43,2209.17 L2271.88,2213.34 L2271.01,2216.18 L2269.94,2218.71 L2269.43,2219.17 L2266.23,2222.13 L2263.01,2224.65 L2259.38,2226.75 L2256.31,2228.77 L2239.62,2233.41 L2234.97,2234.25 L2230.42,2234.81 L2227.1,2235.8 L2224.97,2237.04 L2221.4,2241.41 L2218.87,2243.03 L2216.47,2243.95 L2213.95,2244.68 L2209.59,2245.02 L2197.46,2244.07 L2193.01,2244.41 L2189.08,2245.37 L2184.53,2247.2 L2181.3,2248.9 L2174.58,2251.36 L2171.06,2253.18 L2159.58,2261.23 L2144.4,2268.52 L2136.35,2273.98 L2128.32,2278.32 L2123.72,2279.44 L2119.22,2280.68 L2116.54,2281.88 L2112.49,2282.2 L2109.09,2283.2 L2104.12,2285.15 L2098.98,2286.24 L2097.02,2286.76 L2094.42,2287.45 L2089.33,2289.66 L2081.63,2291.66 L2079.83,2292.16 L2073.88,2293.8 L2070.99,2295.32 L2066.56,2298.31 L2056.67,2305.93 L2053.94,2308.34 L2051.9,2310.78 L2050.59,2311.89 L2049.16,2312.55 L2038.12,2314.45 L2028.4,2316.44 L2025.38,2316.86 L2018.87,2315.82 L2015.01,2314.46 L2010.87,2313.88 L2008.19,2314.01 L2004.92,2314.94 L2002.79,2315.25 L2000.2,2315.85 L1999.78,2315.94 L1995.84,2316.1 L1990.83,2314.95 L1988.95,2315.08 L1987.8,2314.92 L1986.37,2314.11 L1983.42,2312.9 L1982.04,2312.33 L1978.74,2311.81 L1975.25,2312.09 L1971.53,2311.75 L1969.58,2311.34 L1967.6,2311.27 L1966.03,2311.41 L1965.06,2311.65 L1962.45,2312.31 L1961.52,2312.5 L1960.04,2312.29 L1958.37,2312.39 L1957.53,2312.23 L1956.87,2311.71 L1956.81,2311.65 L1956.23,2311.43 L1955.76,2311.45 L1955.27,2311.82 L1954.96,2312.2 L1954.35,2312.92 L1952.67,2313.92 L1952.39,2313.97 L1952.04,2314.03 L1951.33,2314.54 L1950.36,2314.86 L1948.84,2315.18 L1947.75,2315.25 L1947.02,2315.43 L1946.26,2315.9 L1942.5,2319.26 L1940.19,2321.56 L1938.41,2323.75 L1936.22,2325.9 L1935.64,2326.73 L1934.47,2327.92 L1933.58,2329.58 L1930.96,2336.19 L1929.06,2338.1 L1927.96,2340.46 L1926.8,2342.49 L1924.72,2348.87 L1924.59,2351.59 L1924.56,2357.96 L1923.94,2362.1 L1923.84,2364.9 L1923.98,2370.51 L1923.72,2371.97 L1921.95,2376.77 L1920.6,2381.3 L1919.58,2384.09 L1918.63,2388.44 L1918.25,2394.13 L1917.42,2401.46 L1916.51,2405.18 L1916.34,2406.81 L1916.82,2410.57 L1919.19,2416.53 L1923.64,2425.14 L1929.75,2436.33 L1931.05,2439.78 L1931.14,2441.78 L1930.98,2444.76 L1930.15,2448.47 L1928.27,2454.7 L1927.97,2456.38 L1927.8,2463.36 L1927.91,2465.28 L1928.32,2468.88 L1928.8,2471.39 L1929.47,2473.22 L1930.98,2475.9 L1932.58,2477.55 L1938.12,2481.22 L1938.36,2481.9 L1938.26,2482.67 L1936.98,2484.59 L1933.88,2487.95 L1933.25,2489.51 L1932.27,2495.69 L1931.18,2499.97 L1928.99,2506.07 L1924.83,2515 L1921.02,2524.35 L1920.15,2527.1 L1918.8,2530.24 L1916.24,2534.76 L1914.57,2536.79 L1910.76,2540.57 L1909.57,2541.44 L1907.96,2542.15 L1905.53,2542.92 L1903.27,2543.31 L1899.35,2544.83 L1896.75,2546.91 L1896.69,2548.81 L1896.95,2551.98 L1896.47,2555.86 L1896.4,2558.4 L1897.32,2562.54 L1897.49,2565.12 L1896.95,2568.52 L1897.02,2569.98 L1896.31,2576.14 L1896.33,2577.7 L1897.18,2579.84 L1899.77,2583.72 L1900.39,2585.32 L1901.05,2587.92 L1901.04,2589.69 L1899.78,2593.13 L1898.14,2596.06 L1896.34,2598.68 L1893.76,2601.86 L1887.34,2608.26 L1883.95,2611.16 L1879.47,2615.28 L1876.88,2618.88 L1874.8,2623.03 L1874.32,2625.09 L1874.15,2630.86 L1873.86,2633.95 L1872.95,2637.6 L1871.05,2642.56 L1870.77,2645.02 L1870.16,2648.02 L1869.05,2650.77 L1867.63,2655.25 L1866.04,2658.03 L1864.73,2661.77 L1864.64,2664.12 L1866.08,2674.89 L1867.78,2686.57 L1867.29,2690.12 L1863.56,2698.46 L1861.35,2701.6 L1859.95,2703.95 L1859.14,2706 L1858.47,2709.31 L1857.23,2713.72 L1856.51,2714.97 L1853.73,2717.64 L1847.29,2721.43 L1841.61,2726.28 L1839.41,2730.57 L1837.62,2733.56 L1835.97,2737.1 L1834.56,2738.46 L1832.86,2739.39 L1830.39,2739.98 L1827.98,2739.95 L1824.48,2739.18 L1820.48,2738.06 L1818.15,2737.91 L1818.52,2745.33 L1818.52,2748.13 L1818.32,2749.16 L1817.03,2751.32 L1813.75,2758.85 L1813.03,2760.82 L1811.17,2765.05 L1803.51,2763.48 L1798.82,2762.89 L1796.37,2762.58 L1792.4,2761.54 L1786.81,2759.46 L1785.67,2758.63 L1784.32,2757.65 L1783.23,2755.39 L1780,2753.27 L1774.32,2750.24 L1770.1,2748.63 L1766.8,2746.01 L1765.12,2745.3 L1764.5,2745.04 L1764.26,2744.94 L1763.98,2744.88 L1758.85,2743.83 L1754.42,2742.83 L1753.16,2742.54 L1752.67,2742.43 L1752.21,2742.26 L1749.85,2741.39 L1746.26,2739.77 L1746.13,2739.71 L1743.82,2737.88 L1741.19,2734.59 L1740.52,2733.84 L1738.11,2731.16 L1736.29,2726.43 L1735.96,2724.65 L1735.34,2722.77 L1734.56,2722.38 L1730.69,2721.3 L1722.59,2722.08 L1714.67,2724.01 L1710.46,2724.82 L1704.6,2724.38 L1693.42,2721.66 L1687.08,2721.24 L1682.3,2721.74 L1675.91,2723.6 L1667.67,2724.77 L1662.29,2724.46 L1656.01,2723.16 L1651.7,2722.59 L1647.22,2723.21 L1634.49,2725.7 L1632.26,2725.61 L1630.27,2725.04 L1626.59,2723.25 L1619.01,2715.86 L1615.59,2712.95 L1612.34,2710.72 L1609.97,2709.58 L1607.53,2708.1 L1605.9,2707.58 L1602.93,2707.34 L1597.45,2707.98 L1589.28,2710.49 L1575.59,2714.29 L1568.5,2715.84 L1558.79,2719.35 L1552.89,2721.02 L1548.46,2722.81 L1544.14,2723.85 L1539.23,2724.48 L1532.46,2723.79 L1526.65,2722.72 L1520.74,2720.67 L1517.43,2720.7 L1512.6,2722.72 L1508.88,2724.06 L1506.57,2725.73 L1503.72,2728.04 L1496,2731.11 L1488.01,2736.67 L1483.88,2739.26 L1481.45,2739.89 L1477.71,2740.47 L1475.89,2741.35 L1472.95,2742.19 L1467.76,2745.28 L1460.83,2747 L1452.17,2748.16 L1447.09,2748.64 L1439.64,2748.59 L1435.44,2747.89 L1430.43,2744.95 L1425.99,2742.02 L1417.66,2736.11 L1413.79,2733.74 L1411.26,2733.46 L1408.64,2733.71 L1403.7,2735.08 L1395.68,2735.06 L1392.51,2735.96 L1388.26,2736.94 L1384.39,2736.91 L1381.13,2736.28 L1376.73,2735.06 L1370.04,2732.35 L1365.96,2730.94 L1363.43,2729.9 L1361.57,2729.37 L1357.46,2730.08 L1353.38,2730.4 L1350.66,2730.92 L1347.63,2731.77 L1344.8,2731.88 L1340.79,2732.25 L1336.44,2732.26 L1330.12,2732.81 L1328.44,2732.51 L1323.9,2730.47 L1321.47,2728.94 L1318.4,2724.07 L1317.38,2721.98 L1311.11,2709.63 L1307.48,2703.6 L1305.71,2701.43 L1301.11,2698.66 L1295.82,2697.81 L1288.25,2694.67 L1285.54,2693.36 L1281.21,2692.65 L1279.01,2692.09 L1277.4,2691.43 L1275.35,2689.86 L1267.58,2679.93 L1265.29,2675.31 L1253.54,2662.02 L1245.52,2651.84 L1239.81,2645.9 L1235.73,2639.2 L1228.5,2641.63 L1226.01,2641.84 L1223.26,2642.3 L1212.98,2642.19 L1208.61,2641.53 L1202.9,2640.44 L1200.87,2641.8 L1198.3,2644.96 L1195.65,2646.99 L1194.32,2647.57 L1190.93,2650.56 L1188.86,2653.2 L1187.71,2654.4 L1185.94,2655.92 L1183,2659.57 L1181.27,2661.33 L1178.77,2664.42 L1177.4,2665.18 L1174.78,2665.43 L1165.34,2667.11 L1160.95,2668.49 L1154.98,2670.07 L1148.66,2671.43 L1138.7,2674.87 L1135.95,2676.84 L1134.69,2677.31 L1132.61,2677.78 L1130.81,2678.43 L1129.49,2679.16 L1128.51,2679.16 L1126.93,2678.79 L1126.04,2679.39 L1124.48,2680.84 L1122.02,2683.38 L1119.81,2685.19 L1115.97,2687.42 L1114.11,2689.02 L1112.57,2689.99 L1108.31,2691.95 L1106.42,2693.54 L1103.82,2694.95 L1098.39,2696.31 L1094.68,2697.78 L1091.26,2699.54 L1084.2,2704.22 L1080.37,2706.56 L1070.79,2710.77 L1068.49,2712.22 L1065.81,2714.85 L1063.39,2717.46 L1061.67,2718.9 L1058.76,2720.13 L1052.98,2723.16 L1043.92,2726.83 L1041.5,2727.52 L1034.6,2727.61 L1033.63,2728.43 L1030.34,2733.59 L1028.06,2736.11 L1024.48,2740.72 L1022.25,2742.97 L1019.15,2745.28 L1016.88,2747.93 L1015.58,2749.93 L1014.92,2752 L1012.31,2756.93 L1008.94,2761.29 L1001.87,2769.02 L999.37,2772.41 L997.208,2774.19 L995.521,2775.02 L992.809,2775.66 L990.285,2776.02 L988.747,2776.5 L987.498,2777.28 L986.21,2778.77 L985.248,2779.31 L983.311,2779.63 L977.687,2779.8 L975.95,2780.37 L972.788,2781.11 L970.589,2781.35 L967.927,2781.3 L965.852,2781.07 L964.89,2781.32 L963.065,2782.25 L959.616,2783.7 L958.041,2784.02 L956.716,2783.96 L954.367,2783.51 L952.63,2784.75 L947.593,2786.27 L945.344,2787.37 L942.782,2788.28 L939.695,2788.82 L936.945,2789.07 L934.596,2789.08 L928.385,2790.39 L923.686,2791.13 L922.536,2791.06 L918.437,2793.46 L917.012,2793.64 L915.575,2794.36 L914.321,2794.56 L914.313,2794.56 L912.875,2794.06 L911.701,2794.06 L909.439,2793.11 L906.902,2791.68 L905.414,2791.67 L902.253,2790.89 L899.628,2789.58 L896.941,2789.14 L892.942,2787.1 L890.155,2786.37 L888.58,2786.41 L886.381,2785.85 L884.556,2784.98 L885.072,2782.5 L903.058,2773.72 L888.492,2740.84 L854.627,2698.19 L833.116,2637.9 L803.964,2611.94 L795.077,2563.75 L847.234,2473.61 L907.406,2467.25 L947.168,2434.06 L972.123,2375 L1020.65,2330.82 L965.867,2311.39 L916.9,2257.4 L897.135,2220.13 L894.821,2183.6 L889.687,2133.57 L899.889,2084.85 L899.817,2066.26 L907.976,2048.23 L888.177,2019.15 L884.277,2001.61 L863.961,1981.18 L884.63,1951.67 L886.69,1924.33 L873.028,1923.16 L871.877,1907.85 L860.336,1888.6 L841.078,1864.99 L829.509,1859.96 L816.453,1859.35 L817.919,1828.7 L806.402,1805.7 L776.772,1788.56 L761.884,1769.24 L731.02,1701.21 L732.558,1664.61 L633.136,1620.3 L610.807,1621.87 L591.142,1589.51 L533.655,1606.28 L508.662,1634.03 L475.815,1638.83 L420.542,1625.47 L384.32,1587.51 L301.76,1604.7 L211.835,1399.89 L166.935,1380.15" fill-rule="evenodd"/>
  </g>
  <g font-size="34.5833" font-style="normal" fill="none" stroke="#000000" transform="matrix(0.999744,0,0,0.999744,0,0)" font-family="MS Shell Dlg 2" stroke-opacity="1" stroke-width="1" stroke-linecap="square" font-weight="400" stroke-linejoin="bevel"/>
  <g font-size="34.5833" font-style="normal" fill="none" stroke="#000000" transform="matrix(11.808,0,0,11.808,0,0)" font-family="MS Shell Dlg 2" stroke-opacity="1" stroke-width="1" stroke-linecap="square" font-weight="400" stroke-linejoin="bevel"/>
  <g font-size="34.5833" font-style="normal" fill="none" stroke="#000000" transform="matrix(11.808,0,0,11.808,0,0)" font-family="MS Shell Dlg 2" stroke-opacity="1" stroke-width="1" stroke-linecap="square" font-weight="400" stroke-linejoin="bevel"/>
  <g font-size="34.5833" font-style="normal" fill="none" stroke="#000000" transform="matrix(11.808,0,0,11.808,0,0)" font-family="MS Shell Dlg 2" stroke-opacity="1" stroke-width="1" stroke-linecap="square" font-weight="400" stroke-linejoin="bevel"/>
  <g font-size="34.5833" font-style="normal" fill="none" stroke="#000000" transform="matrix(1,0,0,1,0,0)" font-family="MS Shell Dlg 2" stroke-opacity="1" stroke-width="1" stroke-linecap="square" font-weight="400" stroke-linejoin="bevel"/>
  <g font-size="34.5833" font-style="normal" fill="none" stroke="#000000" transform="matrix(11.808,0,0,11.808,0,0)" font-family="MS Shell Dlg 2" stroke-opacity="1" stroke-width="1" stroke-linecap="square" font-weight="400" stroke-linejoin="bevel"/>
  <g font-size="34.5833" font-style="normal" fill="none" stroke="#000000" transform="matrix(11.808,0,0,11.808,0,0)" font-family="MS Shell Dlg 2" stroke-opacity="1" stroke-width="1" stroke-linecap="square" font-weight="400" stroke-linejoin="bevel"/>
  <g font-size="34.5833" font-style="normal" fill="none" stroke="#000000" transform="matrix(11.808,0,0,11.808,0,0)" font-family="MS Shell Dlg 2" stroke-opacity="1" stroke-width="1" stroke-linecap="square" font-weight="400" stroke-linejoin="bevel"/>
  <g font-size="34.5833" font-style="normal" fill="none" stroke="#000000" transform="matrix(11.808,0,0,11.808,0,0)" font-family="MS Shell Dlg 2" stroke-opacity="1" stroke-width="1" stroke-linecap="square" font-weight="400" stroke-linejoin="bevel"/>
  <g font-size="34.5833" font-style="normal" fill="none" stroke="#000000" transform="matrix(1,0,0,1,0,0)" font-family="MS Shell Dlg 2" stroke-opacity="1" stroke-width="1" stroke-linecap="square" font-weight="400" stroke-linejoin="bevel"/>
 </g>
</svg>
