<?xml version='1.0' encoding='UTF-8' standalone='no'?>
<svg width="249.936mm" version="1.2" viewBox="0 0 2952 2952" baseProfile="tiny" xmlns="http://www.w3.org/2000/svg" height="249.936mm" xmlns:xlink="http://www.w3.org/1999/xlink">
 <title>Qt SVG Document</title>
 <desc>Generated with Qt</desc>
 <defs/>
 <g fill="none" stroke="black" fill-rule="evenodd" stroke-width="1" stroke-linecap="square" stroke-linejoin="bevel">
  <g font-size="34.5833" font-style="normal" fill="none" stroke="#000000" transform="matrix(1,0,0,1,0,0)" font-family="MS Shell Dlg 2" stroke-opacity="1" stroke-width="1" stroke-linecap="square" font-weight="400" stroke-linejoin="bevel"/>
  <g font-size="34.5833" font-style="normal" fill="none" stroke="#000000" transform="matrix(1,0,0,1,0,0)" font-family="MS Shell Dlg 2" stroke-opacity="1" stroke-width="1" stroke-linecap="square" font-weight="400" stroke-linejoin="bevel"/>
  <g font-size="34.5833" font-style="normal" fill="none" stroke="#000000" transform="matrix(11.808,0,0,11.808,0,0)" font-family="MS Shell Dlg 2" stroke-opacity="1" stroke-width="1" stroke-linecap="square" font-weight="400" stroke-linejoin="bevel"/>
  <g font-size="34.5833" font-style="normal" fill="none" stroke="#000000" transform="matrix(0.999744,0,0,0.999744,0,0)" font-family="MS Shell Dlg 2" stroke-opacity="1" stroke-width="1" stroke-linecap="square" font-weight="400" stroke-linejoin="bevel"/>
  <g font-size="34.5833" font-style="normal" fill="#ffffff" stroke="none" transform="matrix(0.999744,0,0,0.999744,0,0)" font-family="MS Shell Dlg 2" fill-opacity="0" font-weight="400">
   <path vector-effect="none" d="M-2,-2 L2955,-2 L2955,2955 L-2,2955 L-2,-2" fill-rule="evenodd"/>
  </g>
  <g font-size="34.5833" font-style="normal" fill="none" stroke="#000000" transform="matrix(0.999744,0,0,0.999744,0,0)" font-family="MS Shell Dlg 2" stroke-opacity="1" stroke-width="1" stroke-linecap="square" font-weight="400" stroke-linejoin="bevel"/>
  <g font-size="34.5833" font-style="normal" fill="none" stroke="#000000" transform="matrix(11.808,0,0,11.808,0,0)" font-family="MS Shell Dlg 2" stroke-opacity="1" stroke-width="1" stroke-linecap="square" font-weight="400" stroke-linejoin="bevel"/>
  <g font-size="34.5833" font-style="normal" fill="none" stroke="#000000" transform="matrix(11.808,0,0,11.808,0,0)" font-family="MS Shell Dlg 2" stroke-opacity="1" stroke-width="1" stroke-linecap="square" font-weight="400" stroke-linejoin="bevel"/>
  <g font-size="34.5833" font-style="normal" fill="none" stroke="#000000" transform="matrix(11.808,0,0,11.808,0,0)" font-family="MS Shell Dlg 2" stroke-opacity="1" stroke-width="1" stroke-linecap="square" font-weight="400" stroke-linejoin="bevel"/>
  <g font-size="34.5833" font-style="normal" fill="none" stroke="#000000" transform="matrix(11.808,0,0,11.808,0,0)" font-family="MS Shell Dlg 2" stroke-opacity="1" stroke-width="1" stroke-linecap="square" font-weight="400" stroke-linejoin="bevel"/>
  <g font-size="34.5833" font-style="normal" fill="none" stroke="#000000" transform="matrix(11.808,0,0,11.808,0,0)" font-family="MS Shell Dlg 2" stroke-opacity="1" stroke-width="1" stroke-linecap="square" font-weight="400" stroke-linejoin="bevel"/>
  <g font-size="34.5833" font-style="normal" fill="#ffffff" stroke="none" transform="matrix(11.808,0,0,11.808,0,0)" font-family="MS Shell Dlg 2" fill-opacity="0" font-weight="400">
   <path vector-effect="none" d="M0,0 L250,0 L250,250 L0,250 L0,0" fill-rule="evenodd"/>
  </g>
  <g font-size="34.5833" font-style="normal" fill="none" stroke="#000000" transform="matrix(11.808,0,0,11.808,0,0)" font-family="MS Shell Dlg 2" stroke-opacity="1" stroke-width="1" stroke-linecap="square" font-weight="400" stroke-linejoin="bevel"/>
  <g font-size="34.5833" font-style="normal" fill="none" stroke="#000000" transform="matrix(11.808,0,0,11.808,0,0)" font-family="MS Shell Dlg 2" stroke-opacity="1" stroke-width="1" stroke-linecap="square" font-weight="400" stroke-linejoin="bevel"/>
  <g font-size="34.5833" font-style="normal" fill="#000000" stroke="none" transform="matrix(0.999744,0,0,0.999744,0,0)" font-family="MS Shell Dlg 2" fill-opacity="0" font-weight="400">
   <rect width="2953" x="0" y="0" height="2953"/>
  </g>
  <g font-size="34.5833" font-style="normal" fill="none" stroke="#000000" transform="matrix(0.999744,0,0,0.999744,0,0)" font-family="MS Shell Dlg 2" stroke-opacity="1" stroke-width="1" stroke-linecap="square" font-weight="400" stroke-linejoin="bevel"/>
  <g font-size="34.5833" font-style="normal" fill="#c5c5c5" stroke="#5c5c5c" transform="matrix(0.999744,0,0,0.999744,0,0)" font-family="MS Shell Dlg 2" fill-opacity="1" stroke-opacity="1" stroke-width="3.07087" stroke-linecap="square" font-weight="400" stroke-linejoin="bevel">
   <path vector-effect="none" d="M1472.97,88.0024 L1515.25,166.519 L1669.53,361.199 L1766.48,447.601 L1882.28,496.202 L2161.79,571.497 L2243.23,631.511 L2270.17,736.261 L2342.82,850.83 L2452.3,1054.81 L2502.74,1220.18 L2525.57,1399.62 L2444.44,1586.72 L2301.22,1740.5 L2243.23,1848.93 L2246.91,1945.52 L2262.62,2036.46 L2285.81,2301.68 L2320.67,2455.58 L2309.13,2523.08 L2254.39,2564.08 L2037.41,2630.47 L1480.61,2821.51 L1478.65,2789.67 L1483.36,2765.52 L1502.99,2745.31 L1544.4,2731.96 L1549.89,2716.85 L1533.01,2702.32 L1503.38,2675.04 L1502.99,2674.68 L1465.69,2640.69 L1459.41,2621.07 L1463.41,2604.97 L1430.4,2582.36 L1420.32,2580.56 L1414.18,2576.47 L1407.96,2578.92 L1400.58,2575.81 L1396.49,2571.23 L1386.66,2559.68 L1390.92,2555.42 L1389.45,2547.23 L1398.29,2538.38 L1410.74,2531.34 L1419.1,2516.84 L1418.93,2505.29 L1417.21,2494.89 L1415.9,2485.8 L1414.84,2476.95 L1415.25,2472.66 L1415.7,2470.3 L1414.14,2466.41 L1411.89,2464.08 L1408.31,2461.43 L1403.31,2458.55 L1398.18,2455.97 L1392.17,2453.35 L1389.14,2452.27 L1385.69,2451.34 L1381.61,2450.61 L1376.88,2450.28 L1373.58,2450.25 L1369.56,2450.43 L1365,2451.12 L1360.24,2452.52 L1354.33,2454.67 L1349.23,2456.97 L1344.68,2459.8 L1339.7,2463.66 L1337.17,2467.04 L1336.92,2470.38 L1337.87,2475.36 L1341.85,2492.43 L1346.7,2502.85 L1349.79,2514.67 L1331.55,2533.49 L1325.99,2541.19 L1318.46,2542.41 L1310.99,2540.85 L1306.47,2541.25 L1298.48,2538.07 L1290.6,2537.37 L1281.97,2534.42 L1270.5,2534.3 L1257.18,2531.58 L1237.37,2535.34 L1219.24,2529.73 L1216.46,2526.08 L1212.47,2526.02 L1211.83,2528.05 L1209.57,2527.18 L1209.98,2524.86 L1207.31,2522.89 L1203.95,2523.41 L1201.29,2520.17 L1201.64,2516.29 L1196.36,2515.01 L1192.89,2515.94 L1191.85,2512.35 L1189.36,2511.13 L1187.39,2511.83 L1182.64,2507.25 L1181.19,2504.13 L1178,2505.86 L1168.68,2496.77 L1161.38,2492.89 L1151.88,2485.88 L1145.34,2485.94 L1132.94,2480.73 L1129.99,2476.56 L1121.42,2474.82 L1118.17,2471.46 L1112.27,2471.35 L1109.6,2468.8 L1107.28,2465.03 L1101.03,2465.49 L1083.83,2455.82 L1077.63,2449.91 L1067.47,2447.25 L1066.16,2446.65 L1065.16,2445.8 L1064.36,2444.44 L1063.61,2443.28 L1062.37,2442.55 L1060.34,2441.65 L1057.32,2440.66 L1052.93,2441.12 L1049.02,2441.74 L1045.39,2442.5 L1040.39,2443.66 L1036.16,2444.84 L1032.31,2445.38 L1025.11,2446.06 L1018.47,2446.48 L1012.63,2446.8 L1009.65,2447.44 L1008.09,2447.76 L1006.63,2448.33 L1005.38,2449.06 L1004.36,2449.91 L1002.57,2452.08 L997.223,2459.84 L988.798,2471.31 L986.131,2474.33 L983.789,2476.69 L981.975,2478.32 L980.458,2479.31 L978.809,2480.2 L977.175,2480.97 L975.409,2481.58 L974.215,2481.58 L972.698,2481.25 L971.433,2480.5 L970.643,2479.66 L970.182,2478.6 L970.018,2477.33 L970.093,2476.06 L970.335,2474.82 L970.59,2474.15 L970.964,2473.48 L971.622,2472.63 L972.717,2471.69 L975.39,2469.79 L976.962,2468.82 L978.671,2467.9 L980.224,2467.38 L982.196,2466.92 L983.318,2466.56 L984.661,2465.99 L985.509,2465.48 L986.31,2464.88 L986.864,2464.37 L987.897,2462.82 L985.661,2461.56 L986.807,2459.53 L989.04,2460.8 L989.463,2460.11 L989.537,2459.81 L989.52,2459.37 L988.505,2455.24 L988.256,2454.52 L987.873,2453.85 L987.4,2453.18 L986.199,2451.96 L982.984,2448.99 L973.896,2441.18 L969.557,2437.44 L969.1,2437.1 L968.565,2436.74 L968.108,2436.55 L967.534,2436.43 L966.827,2436.35 L956.315,2436.14 L955.799,2436.18 L955.359,2436.29 L954.97,2436.47 L926.824,2455.91 L915.641,2463.55 L913.892,2453.5 L911.748,2452.17 L909.432,2452 L907.173,2453.04 L906.816,2453.8 L906.026,2455.47 L906.213,2457.73 L911.922,2466.52 L907.426,2474.75 L923.42,2483.68 L939.669,2492.79 L943.26,2494.68 L945.166,2495.65 L946.432,2496.22 L947.699,2496.75 L948.872,2497.2 L950.125,2497.59 L951.262,2497.88 L952.752,2498.16 L955.433,2498.55 L957.987,2498.76 L960.193,2498.79 L962.012,2498.63 L963.765,2498.26 L965.715,2497.67 L967.725,2496.88 L969.748,2495.88 L979.606,2489.76 L981.267,2488.86 L982.929,2488.4 L984.542,2488.28 L986.018,2488.63 L987.351,2489.46 L988.245,2490.56 L988.872,2491.89 L989.197,2493.4 L989.106,2495.05 L988.851,2496.33 L988.468,2497.28 L987.769,2498.13 L986.813,2498.84 L985.583,2499.52 L981.189,2501.48 L976.11,2503.52 L973.558,2504.34 L968.031,2505.78 L965.293,2506.2 L962.809,2506.26 L960.463,2506.12 L957.303,2505.73 L954.745,2505.27 L952.628,2504.81 L950.363,2504.21 L947.794,2503.37 L944.998,2502.07 L943.81,2501.8 L942.495,2501.52 L941.201,2501.15 L903.695,2479.75 L891.086,2472.42 L888.848,2471.37 L886.483,2470.46 L884.384,2469.87 L865.6,2470.88 L860.53,2468.66 L842.18,2467.4 L827.496,2471.95 L826.049,2469.05 L562.81,2167.05 L461.557,2000.75 L361.84,1822.91 L330.912,1687.54 L335.322,1603.16 L339.517,1604.64 L345.861,1608.01 L354.537,1613.36 L365.89,1620.86 L381.313,1629.59 L417.867,1643.35 L428.47,1642.46 L440.69,1645.62 L451.302,1650.8 L452.009,1649.29 L451.633,1649.03 L452.982,1648.47 L454.106,1648.31 L455.485,1648.72 L456.637,1649.48 L457.394,1650.44 L457.914,1651.41 L458.222,1651.83 L458.673,1652.19 L459.136,1652.46 L459.544,1652.81 L459.737,1653.28 L459.731,1653.84 L459.455,1654.35 L459.064,1654.77 L542.303,1694.53 L567.251,1703.43 L576.121,1711.3 L595.094,1722.55 L599.103,1724.56 L617.118,1733.33 L651.105,1754.36 L654.513,1752.6 L664.262,1752.51 L672.959,1760.59 L687.806,1775.29 L689.363,1772.85 L702.858,1776.89 L704.631,1776.95 L706.838,1776.21 L708.638,1776.43 L709.101,1776.81 L708.938,1777.3 L708.039,1777.55 L706.974,1777.06 L704.903,1778.1 L703.048,1778.07 L702.994,1779.29 L704.658,1779.43 L708.203,1778.26 L708.857,1779.67 L710.737,1779.51 L712.025,1780.15 L714.445,1780.41 L715.482,1780.79 L716.791,1781.69 L716.846,1782.48 L719.49,1783.47 L719.936,1782.33 L722.327,1782.98 L728.905,1786.23 L728.933,1787.02 L732.896,1788.58 L733.023,1789.15 L732.696,1789.72 L729.942,1789.12 L729.67,1789.8 L731.878,1790.56 L732.205,1791.63 L735.885,1792.5 L736.323,1791.9 L736.567,1790.81 L734.714,1790.26 L734.079,1790.45 L733.869,1789.99 L734.765,1789.45 L734.959,1788.68 L736.34,1785.41 L734.375,1784.48 L733.79,1785.73 L733.418,1785.62 L734.583,1782.87 L735.046,1783.09 L735.401,1782.18 L734.94,1782.02 L735.509,1780.56 L729.016,1778.12 L729.674,1776.42 L738.72,1779.99 L747.164,1780.19 L754.051,1784.26 L766.592,1784.75 L789.215,1789.05 L801.176,1791.52 L803.482,1792.23 L802.995,1794.27 L806.503,1796.36 L810.734,1796.64 L819.246,1796.55 L837.953,1800.26 L863.584,1809.56 L926.397,1812.39 L967.961,1827.92 L1000.3,1852.22 L992.591,1859.42 L976.144,1859.42 L968.854,1860.37 L968.082,1869.25 L973.492,1876.5 L977.576,1884.56 L975.872,1886.48 L978.456,1888.71 L985.791,1888.32 L995.744,1889.31 L997.214,1889.73 L997.93,1886.39 L999.148,1886.35 L999.45,1887.19 L1000.39,1888.04 L1001.43,1888.08 L1001.9,1890.66 L1002.29,1890.38 L1002.21,1887.8 L1000.29,1886.18 L998.432,1884.99 L999.397,1882.69 L1001.67,1880.07 L1005.45,1878.51 L1005.07,1876.95 L1003.45,1877.2 L1000.23,1876.36 L999.112,1875.13 L1001.28,1874.3 L1000.6,1873.29 L998.132,1873.71 L998.198,1871.61 L998.018,1869.63 L1001.84,1865.58 L1006.87,1864.62 L1009.34,1865.73 L1010.53,1863.92 L1013.23,1864.89 L1013.1,1865.16 L1012.88,1865.65 L1013.83,1866.46 L1015.56,1862.92 L1020.13,1865.57 L1019.26,1868.97 L1020.38,1870.03 L1020.21,1872.51 L1019.76,1872.73 L1021.82,1875.41 L1019.19,1877.21 L1016.71,1878.88 L1015.56,1881.55 L1014.22,1882.08 L1015.25,1884.23 L1017.08,1883.31 L1016.76,1882.42 L1017.18,1879.8 L1017.62,1879.22 L1018.48,1878.46 L1021.12,1876.54 L1023.43,1876.39 L1023.21,1877.13 L1026.95,1878.36 L1028.48,1878.1 L1028.82,1878.92 L1024.49,1881.39 L1024.87,1882.2 L1028.77,1879.64 L1032.02,1879.82 L1032.76,1878.97 L1031.39,1877.49 L1031.76,1874.93 L1033.19,1874.61 L1033.83,1873.93 L1035.05,1874.54 L1034.98,1874.96 L1038.83,1877.07 L1043.16,1878.87 L1042.69,1881.7 L1041,1882.46 L1038.53,1881.89 L1037.22,1881.24 L1035.28,1879.06 L1033.06,1879.21 L1032.26,1880.31 L1035.18,1882.5 L1033.65,1884.47 L1033.6,1886.56 L1039.01,1887.88 L1037.99,1891.23 L1034.89,1893.29 L1036.38,1895.38 L1041.36,1896.81 L1045.57,1895.28 L1047.79,1896.93 L1051.35,1894.75 L1056.62,1896.31 L1063.82,1894.94 L1067.6,1897.56 L1068.65,1895.14 L1070.85,1895.7 L1070.48,1897.53 L1076.27,1898.93 L1075.94,1895.19 L1080,1893.62 L1079.81,1890.61 L1085.96,1877.34 L1089.33,1877.99 L1095.28,1877.3 L1101.85,1879.14 L1103.71,1881.13 L1103.49,1883.5 L1104.08,1886.38 L1104.26,1889.3 L1104.08,1890.04 L1102.46,1890.32 L1101.98,1891.77 L1100.35,1891.31 L1099.88,1892.86 L1098.08,1892.17 L1096.87,1892.17 L1095.84,1892.63 L1095.05,1893.86 L1096.11,1894.14 L1098.73,1896.05 L1098.03,1899.09 L1098.7,1899.92 L1098.46,1900.81 L1099.03,1901.1 L1099.56,1900.05 L1101.37,1900.19 L1102.47,1899.06 L1101.83,1893.72 L1102.87,1893.54 L1103.91,1898.61 L1107.81,1899.43 L1107.61,1900.53 L1108.73,1901.16 L1108.51,1902.14 L1109.24,1902.89 L1109.08,1905.79 L1114.45,1907.65 L1129.66,1910.6 L1136.34,1915 L1146.7,1915.43 L1152.46,1918.77 L1161.24,1920.48 L1168.49,1922.92 L1172.91,1923.19 L1176.1,1924.82 L1176.35,1926.95 L1177.8,1926.19 L1181.38,1927.89 L1182.39,1926.23 L1177.36,1924.75 L1176.13,1923.62 L1177.03,1921.55 L1183.62,1923.12 L1184.13,1921.63 L1185.79,1922.25 L1187.93,1923.11 L1187.03,1925.21 L1192.7,1925.4 L1200.54,1927.11 L1200.11,1929.28 L1207.17,1930.71 L1210.07,1928.12 L1216.28,1927.47 L1219.24,1922.12 L1226.17,1916.94 L1234.98,1918.02 L1236.17,1916.83 L1234.47,1914.22 L1235.41,1913.57 L1237.11,1916.1 L1242.69,1913 L1249.04,1914.77 L1250.18,1913.54 L1245.42,1910.79 L1247.5,1907.53 L1257.87,1907.16 L1261.68,1906.74 L1265.01,1904.49 L1268.24,1900.24 L1263.54,1900.58 L1262.05,1900.31 L1267.38,1898.98 L1271.59,1897.17 L1272.77,1895.42 L1274.91,1896.03 L1275.74,1894.64 L1276.45,1894.97 L1276.92,1893.72 L1280.43,1893.38 L1280.37,1894.01 L1277.34,1894.24 L1276.27,1896.52 L1277.79,1897.15 L1278.04,1896.64 L1280.19,1895.44 L1282.41,1895.6 L1284.68,1895.58 L1284.64,1896.26 L1282.65,1896.25 L1280.74,1899.66 L1283.85,1900.93 L1284.33,1897.58 L1284.71,1897.64 L1284.65,1898.1 L1286.81,1898.5 L1286.69,1898.94 L1284.69,1898.53 L1284.58,1899.7 L1286.31,1900.01 L1287.1,1902.02 L1287.42,1901.98 L1287.4,1903.17 L1294.1,1906.86 L1293.81,1907.32 L1294.92,1908.04 L1294.42,1908.68 L1294.44,1909.15 L1294.35,1909.51 L1293.22,1909.27 L1293.05,1909.76 L1294.76,1910.46 L1295.56,1908.54 L1300.33,1911.07 L1300.67,1910.19 L1303.39,1911.61 L1304.41,1908.49 L1309.02,1907.7 L1309.13,1908.34 L1304.79,1909.02 L1303.97,1911.89 L1307.05,1913.01 L1308.17,1912.58 L1308.77,1909.77 L1309.6,1909.7 L1308.94,1912.9 L1311.94,1914.04 L1317.57,1916.49 L1320.08,1918.96 L1323.41,1919.3 L1324.09,1915.78 L1330.35,1915.73 L1329.78,1918.35 L1339.11,1917.42 L1343.66,1917.18 L1346.88,1915.8 L1346.81,1914.43 L1349.45,1914.26 L1349.85,1913.05 L1360.62,1915.34 L1368.8,1917.22 L1369.51,1914.71 L1373.86,1916.1 L1373.54,1919 L1377.55,1919.54 L1377.95,1917.26 L1382.02,1918.11 L1381.09,1920.92 L1379.61,1920.66 L1379.3,1922.05 L1381.53,1922.58 L1381.89,1920.33 L1382.37,1919.85 L1384.02,1919.72 L1384.07,1920.27 L1382.61,1920.3 L1382.16,1920.72 L1381.98,1922 L1384.58,1922.29 L1385.23,1919.37 L1386.75,1919.52 L1386.68,1920.67 L1391.34,1921.32 L1391.61,1920.78 L1396.12,1920.75 L1396.52,1917.89 L1398.4,1918.07 L1398.4,1918.69 L1397.06,1918.5 L1396.84,1920.64 L1403.91,1922.46 L1416.5,1926.59 L1421.38,1925.69 L1424.78,1924.78 L1428.51,1926.7 L1429.81,1928.58 L1431.44,1923.52 L1435.31,1923.77 L1435.31,1924.6 L1432.02,1924.24 L1431.44,1926.3 L1433.25,1927.21 L1433.96,1929.9 L1435.13,1930.24 L1436.25,1926.23 L1437.05,1926.34 L1436.79,1927.31 L1439.61,1929.05 L1440.7,1924.93 L1447.19,1926.53 L1446.99,1927.6 L1442.33,1926.37 L1441.68,1929.74 L1443.74,1931.11 L1443.88,1930.53 L1447.06,1931.58 L1451.19,1931.22 L1456.39,1933.93 L1457.03,1938.34 L1464.35,1940.77 L1465.47,1936.81 L1480.02,1938.91 L1495.23,1943.7 L1503.02,1942.32 L1505.76,1943.23 L1506.44,1941.41 L1519.45,1946 L1525.01,1951.06 L1536.72,1955.87 L1538.03,1952.87 L1542.03,1954.39 L1540.74,1957.44 L1542.83,1958.35 L1543.59,1956.67 L1544.7,1957.13 L1545.35,1955.61 L1550.4,1957.75 L1548.28,1963.03 L1548.92,1963.3 L1549.46,1962.27 L1551.66,1963.56 L1556.43,1964.15 L1557.49,1964.59 L1558.02,1963.68 L1558.44,1963.9 L1558.18,1964.36 L1558.6,1964.64 L1559.09,1963.93 L1559.61,1964.25 L1559.24,1964.94 L1559.85,1965.28 L1561.3,1962.76 L1563.46,1964.18 L1561.39,1968.04 L1562.89,1970.34 L1574.65,1979.18 L1578.33,1979.41 L1579.29,1978.12 L1578.98,1977.39 L1580.8,1973.58 L1581.87,1974.19 L1581.09,1975.73 L1583.97,1977.32 L1583.04,1979.18 L1583.51,1979.34 L1586.26,1974.9 L1588.96,1976.5 L1588.27,1977.16 L1587.28,1976.63 L1585.14,1980.21 L1588.34,1982.19 L1591.32,1977.51 L1592.18,1978.21 L1593.37,1976 L1597.19,1978.15 L1594.44,1983.16 L1596.33,1984.77 L1598.48,1981.87 L1597.73,1981.44 L1598.21,1980.74 L1599.45,1981.98 L1596.38,1986.77 L1598,1988.92 L1599.45,1987.25 L1600.1,1987.9 L1598.7,1989.73 L1605.38,1995.11 L1611.26,1999.85 L1613.4,1997.49 L1615.37,1999.47 L1613.32,2002.14 L1630.03,2014.46 L1636.62,2013.75 L1639.56,2015.98 L1643.44,2027.38 L1646.51,2023.64 L1648.38,2025.24 L1646.15,2027.64 L1674.73,2058.44 L1725.02,2147.06 L1720.12,2151.05 L1723.1,2160.51 L1732.44,2169.54 L1734.09,2167.78 L1736.2,2169.97 L1734.66,2171.49 L1735.26,2173.53 L1736.02,2172.9 L1736.84,2174.19 L1735.8,2175.08 L1737.04,2177.36 L1737.45,2176.97 L1738.46,2177.98 L1738.04,2178.47 L1739.87,2181.1 L1742.45,2178.15 L1743.86,2179.3 L1741.34,2182.25 L1744.51,2184.97 L1745.44,2183.95 L1745.85,2184.21 L1744.95,2185.33 L1745.51,2187.16 L1747.75,2185.25 L1751.64,2190.57 L1759.88,2195.73 L1776.44,2211.94 L1796.66,2234.68 L1797.26,2234.09 L1800.81,2237.74 L1810.59,2238.89 L1810.49,2239.39 L1817.8,2240.28 L1824.19,2234.1 L1819.95,2228.07 L1820.53,2227.68 L1821.49,2227.02 L1821.95,2227.59 L1823.22,2226.93 L1825.66,2225.91 L1829.85,2225.52 L1833.13,2225.99 L1836.74,2227.44 L1840.34,2228.73 L1844.45,2230.87 L1848.88,2235.48 L1852.97,2240.76 L1855.25,2244.89 L1855.13,2247.52 L1858.34,2258.6 L1864.02,2265.56 L1875.21,2271.84 L1885.33,2271.46 L1897.66,2271.82 L1910.16,2273.14 L1925.27,2277.24 L1931.21,2278.33 L1932.38,2277.54 L1933.03,2276.42 L1876.01,2253.99 L1854.91,2236.71 L1851.33,2227.68 L1861.66,2208.69 L1942.86,2070.95 L1951.03,2063.47 L1955.88,2062.37 L1968.38,2064.81 L1973.24,2066.46 L2009.87,2097.78 L2012.25,2095.07 L2014.89,2092.07 L1993.91,2071.61 L1974.68,2062.92 L1968.49,2054.02 L1967.77,2052.28 L1967.52,2050.92 L1966.73,2048.28 L1965.62,2046.52 L1963.41,2044.11 L1961.31,2041.46 L1955.02,2031.67 L1950.28,2025.59 L1946.4,2021.88 L1938.57,2014.76 L1931.59,2008.85 L1920.92,2000.92 L1913.67,1996.73 L1896.76,1988.24 L1893.82,1987.15 L1891.78,1986.92 L1889.2,1987.12 L1886.94,1986.43 L1885.75,1985.47 L1884.55,1983.84 L1882.89,1982.05 L1881.02,1981.02 L1878.87,1980.56 L1876.91,1980.47 L1874.67,1979.8 L1873.08,1978.96 L1871.79,1977.26 L1870.57,1974.95 L1869.65,1972.69 L1869.87,1970.61 L1870.99,1969.12 L1872.86,1967.48 L1875.45,1966.57 L1878.04,1966.46 L1881.1,1966.95 L1884.42,1967.91 L1889.77,1969.21 L1898.92,1970.35 L1904.91,1970.51 L1911.03,1971.02 L1913.6,1971.14 L1915.45,1970.98 L1917.3,1970.4 L1920.27,1969.49 L1925.84,1968.74 L1930.84,1968.46 L1934.82,1968.59 L1938.99,1969.42 L1945.49,1970.24 L1950.93,1969.79 L1955.93,1968.3 L1959.73,1966.79 L1962.05,1965.2 L1964.03,1962.88 L1965.21,1959.22 L1965.41,1956.15 L1965.44,1952.64 L1964.45,1949.31 L1961.41,1943 L1956.9,1939.26 L1952.04,1935.96 L1947.17,1932.46 L1947.11,1931.15 L1947.07,1930.03 L1946.99,1928.03 L1948.03,1924.39 L1949.73,1921.83 L1951.09,1920.17 L1951.34,1918.16 L1951.06,1914.67 L1950.68,1911.06 L1950.01,1905.74 L1948.88,1902.45 L1946.95,1900.01 L1944.4,1897.64 L1941.3,1895.29 L1937.41,1893.84 L1934.12,1892.78 L1930.71,1892.5 L1927.27,1892.95 L1924.05,1894.08 L1920.32,1895.95 L1916.93,1898.39 L1914.08,1901.85 L1912.6,1903.44 L1910.66,1904.35 L1908.12,1904.26 L1906.15,1903.84 L1893.65,1896.19 L1887.84,1896.38 L1881.53,1904.44 L1875.46,1904.95 L1872.02,1901.46 L1867.66,1897.21 L1865.38,1897.51 L1865.24,1896.56 L1869.31,1893.35 L1870.08,1888.5 L1869.91,1884.35 L1867.17,1879.98 L1869.1,1874.62 L1870.83,1870.36 L1872.55,1867.96 L1875.04,1866.08 L1878.08,1864.52 L1881.71,1863.23 L1889.16,1861.93 L1907.73,1859.06 L1922.27,1855.85 L1934.59,1854.87 L1947.04,1854.74 L1951.81,1855.65 L1954.27,1856.44 L1963.16,1861.57 L1968.23,1864.28 L1972.48,1865.3 L1977.21,1865.76 L1984.19,1866.07 L1991.48,1864 L1998.19,1861.29 L2001.7,1859.48 L2005.32,1856.88 L2008.2,1854.31 L2010.21,1852.24 L2012.07,1850.1 L2014.13,1847.13 L2017.01,1841.64 L2019.37,1836.82 L2021.55,1832.5 L2023.06,1829.34 L2023.9,1824.97 L2026.37,1818.73 L2029.79,1810.09 L2033.6,1791.4 L2040.18,1781.7 L2043.55,1775.12 L2044.16,1769.6 L2043.32,1763.01 L2027.29,1742.2 L2016.39,1720.7 L2014.75,1706.57 L2007.19,1702.62 L2006.93,1695.16 L2006.82,1691.68 L2007.45,1689.15 L2007.08,1686.27 L2005.59,1683.68 L2004.17,1681.48 L2003.23,1679.32 L2001.72,1677.84 L2000.78,1676.84 L1999.18,1676.5 L1997.19,1676.21 L1993.29,1676.41 L1991.66,1674.81 L1991.37,1670.14 L1990.32,1665 L1988.35,1661.31 L1981.56,1655.75 L1983.44,1654.6 L1994.42,1663.54 L1997.97,1664.12 L1998.31,1662.8 L1994.15,1661.07 L1989.81,1657.39 L1988.31,1653.63 L1996.15,1650.37 L1996.35,1643.85 L2004.79,1639.12 L2007.6,1632.09 L2011.72,1628.58 L2014.99,1620.59 L2012.46,1617.12 L2009.45,1613 L2013.65,1610.86 L2017.34,1596.37 L2017.27,1591.76 L2018.69,1585.86 L2017.12,1580.35 L2009.03,1571.58 L2003.42,1571.23 L2001.78,1566.75 L1998.23,1561.99 L1995.36,1547.82 L1990.42,1541.04 L1980.05,1536.78 L1974.22,1536.21 L1971.66,1538.91 L1968.97,1535 L1962.29,1529.96 L1955.12,1526.34 L1952.7,1528.89 L1945.6,1517.46 L1940.98,1515.04 L1939.91,1517.39 L1938.07,1516.89 L1937.22,1519.23 L1933.23,1522.79 L1925.35,1529.82 L1924.57,1529.74 L1922.11,1529.49 L1920.45,1529.32 L1910.15,1515.33 L1910.51,1513.98 L1908.38,1510.64 L1913.28,1509.22 L1914.77,1504.39 L1912.92,1502.4 L1906.18,1481.52 L1911.36,1480.1 L1903.05,1472.25 L1895.77,1465.21 L1892.7,1460.99 L1889.49,1445.43 L1887.73,1444.52 L1884.84,1440.43 L1879.84,1438.79 L1873.37,1440.53 L1869.6,1443.36 L1863.67,1445.07 L1861.51,1447.54 L1858.4,1447.13 L1858.1,1448.19 L1851.27,1445.18 L1851.37,1441.86 L1843.83,1432.57 L1843.68,1425.89 L1841.77,1412.33 L1834.49,1402.33 L1823.49,1398.81 L1809.68,1394.85 L1801.19,1390.23 L1792.6,1388.27 L1781.1,1379.38 L1779.04,1376.26 L1781,1371.84 L1785.82,1370.89 L1788.84,1368.18 L1789.94,1364.26 L1791.35,1363.56 L1794.46,1363.31 L1802.6,1362.35 L1811.29,1361.7 L1815.61,1357.63 L1817.66,1349.49 L1817.35,1345.08 L1816.21,1337.94 L1814.06,1332.04 L1811.17,1330.61 L1799.57,1328.6 L1795.42,1329.93 L1789.32,1326.73 L1782.87,1324.13 L1777.84,1317.22 L1775.95,1315.13 L1774.47,1309.89 L1771.92,1308.07 L1769.98,1304.66 L1767.91,1303.33 L1766.24,1301.17 L1766.52,1296.64 L1762.07,1289.17 L1759.41,1285.62 L1755.65,1282.92 L1752.81,1281.97 L1751.1,1281.38 L1748.66,1279.43 L1745.49,1280.23 L1745.15,1279.69 L1748.25,1278.4 L1754.26,1264.54 L1755.24,1264.54 L1762.86,1264.77 L1763.79,1264.72 L1764.75,1264.45 L1765.63,1263.98 L1766.48,1263.36 L1767.18,1262.67 L1767.77,1261.79 L1768.33,1260.78 L1768.95,1259.07 L1769.78,1256.57 L1771.09,1252.63 L1771.65,1250.65 L1772.12,1248.61 L1772.29,1247.2 L1772.44,1245.72 L1772.5,1243.47 L1772.54,1236.97 L1772.39,1233.78 L1772.28,1232.05 L1772.11,1230.19 L1771.4,1223.44 L1770.6,1220.05 L1769.84,1218.7 L1768.9,1217.6 L1767.68,1216.32 L1766.64,1215.58 L1765.68,1215.05 L1764.08,1214.37 L1762.89,1214.1 L1761.6,1213.87 L1760.42,1213.83 L1759.19,1213.93 L1757.49,1214.39 L1756,1214.93 L1754.92,1215.79 L1750.7,1221.2 L1749.99,1222.71 L1749.8,1224.01 L1749.11,1230.68 L1748.37,1238.92 L1750.53,1239.85 L1746.31,1250.78 L1745.12,1250.36 L1734.72,1270.23 L1734.73,1271.71 L1732.75,1271.79 L1731.28,1269.56 L1727.08,1263.54 L1725.92,1262.35 L1725.39,1261.05 L1722.85,1259.66 L1721.13,1258.22 L1719.09,1256.05 L1718.06,1253.58 L1717.24,1253.68 L1716.62,1251.21 L1715.93,1247.88 L1716.44,1244.57 L1717.51,1244.27 L1717.88,1242.13 L1716.89,1238.56 L1714.75,1235.59 L1711.45,1232.61 L1709.64,1231.12 L1706.45,1230.47 L1705.95,1231.1 L1705.84,1232.46 L1705.12,1233.3 L1703.99,1233.82 L1702.69,1233.86 L1701.51,1233.48 L1700.14,1231.79 L1700.34,1229.15 L1699.93,1226.62 L1700.18,1223.57 L1700.29,1221.46 L1699.56,1219.85 L1698.51,1217.67 L1697.24,1214.84 L1683.2,1204.01 L1679.95,1202.26 L1677.42,1202.2 L1674.26,1202.51 L1667.76,1203.36 L1667.02,1204.16 L1667.57,1205.34 L1667.7,1207.25 L1666.79,1208.94 L1664.68,1210.06 L1662.92,1209.69 L1661.67,1208.65 L1661.14,1207.1 L1660.36,1204.66 L1659.04,1204.78 L1658.56,1203.36 L1657.53,1202.87 L1655.67,1201.07 L1654.78,1199.53 L1648,1202.57 L1634.8,1171.73 L1639.06,1169.8 L1638.7,1165.38 L1635.35,1161.65 L1633.81,1161.27 L1631.81,1159.23 L1631.86,1158.17 L1626.04,1154.33 L1623.18,1153.44 L1618.97,1153.21 L1608.09,1153.08 L1606.04,1141.13 L1603.53,1141.09 L1602.57,1135.85 L1604.91,1135.55 L1604.11,1128.2 L1602.65,1126.67 L1600.4,1125.91 L1483.33,1148.58 L1473,1079.03 L1476.53,1078.76 L1486.85,1142.12 L1601.23,1120.04 L1602.36,1117.76 L1600.5,1106.24 L1599.53,1104.62 L1599.11,1101.44 L1599.62,1101.39 L1597.61,1089.68 L1599.21,1089.45 L1600.91,1099.42 L1616.08,1096.62 L1613.55,1081.9 L1597.86,1084.7 L1596.97,1084.42 L1595.97,1078.87 L1592.63,1079.45 L1570.69,1083.28 L1570.09,1079.34 L1591.3,1075.78 L1579.18,1002.22 L1572.84,1003.29 L1561.22,1005.04 L1543,1008.3 L1553.72,1073.92 L1549.4,1074.6 L1548.69,1070.3 L1545.6,1051.62 L1543.13,1036.67 L1540.75,1022.31 L1538.34,1007.77 L1490.74,1017.53 L1502.35,1083.03 L1498.45,1084.02 L1483.01,991.073 L1487.65,990.802 L1490.86,1012.37 L1538.48,1004.31 L1572.12,998.927 L1569.62,985.133 L1549.38,988.225 L1548.16,979.982 L1568.61,976.942 L1567.23,967.294 L1566.92,965.097 L1563.93,963.554 L1561.68,963.128 L1560.97,962.227 L1558.36,964.346 L1554.78,965.327 L1554.42,965.425 L1552.83,964.386 L1549.39,964.455 L1543.87,963.096 L1543.03,961.153 L1538.47,959.796 L1537.82,957.87 L1541.02,956.687 L1540.73,952.086 L1542.46,950.246 L1545.08,948.976 L1549.22,950.292 L1553.34,950.43 L1554.79,945.982 L1547.61,937.385 L1544.29,939.93 L1542.15,937.327 L1545.12,935.162 L1539.7,928.929 L1535.49,925.522 L1518.49,915.684 L1517.65,917.083 L1513.66,915.825 L1513.34,916.444 L1509.84,915.091 L1508.17,919.128 L1511.51,920.412 L1510.97,921.612 L1506.44,919.663 L1508.8,914.331 L1506.63,913.314 L1504.94,911.449 L1501.99,910.294 L1501.02,912.347 L1505.63,914.826 L1505.3,915.367 L1500.02,912.566 L1498.78,914.935 L1497.71,914.354 L1499.29,911.748 L1494.45,908.417 L1491.48,907.262 L1480.62,904.478 L1475.27,904.239 L1472.35,904.608 L1472.91,907.904 L1472.14,908.129 L1471.47,904.942 L1465.83,906.05 L1466.42,909.33 L1468.43,908.811 L1468.63,909.439 L1465.9,910.058 L1465.12,906.407 L1461.02,906.807 L1455.27,907.645 L1455.9,911.535 L1455.51,911.535 L1455.01,908.584 L1447.02,910.13 L1445.51,911.025 L1446.61,913.864 L1446.11,913.971 L1445.13,911.578 L1439.15,912.871 L1440.09,916.395 L1438.78,916.795 L1438.06,914.325 L1430.95,915.416 L1429.19,916.182 L1424.03,916.631 L1420.33,917.772 L1417.93,917.331 L1413.36,917.547 L1412.26,918.189 L1409.45,917.878 L1409.22,917.852 L1407.82,916.778 L1406.97,915.894 L1408.21,914.345 L1413.33,911.564 L1416.68,907.542 L1418.33,904.613 L1424.26,900.433 L1436.96,887.758 L1439.57,884.553 L1439.07,881.418 L1437.14,878.697 L1436.43,877.395 L1436.1,876.624 L1435.72,875.227 L1436.18,873.701 L1438.81,870.845 L1436.98,869.437 L1437.44,868.455 L1440.98,870.675 L1443.78,867.352 L1445.56,865.256 L1446.54,863.197 L1444.59,862.679 L1445.19,861.355 L1448.8,862.126 L1455.78,854.729 L1455.15,854.056 L1457.31,851.464 L1457.84,849.788 L1458.73,846.474 L1461.26,846.84 L1461.57,843.932 L1459.14,843.566 L1460.44,832.44 L1460.5,821.948 L1459.98,810.093 L1459.24,805.336 L1458.28,804.714 L1457.61,803.917 L1457.42,802.491 L1458.83,802.178 L1458.47,803.088 L1458.77,803.684 L1459.56,804.213 L1460.61,803.992 L1459.92,800.329 L1458.01,800.729 L1456.91,800.329 L1456.15,799.31 L1455.84,798.198 L1456.41,796.856 L1458.25,796.258 L1458.42,796.926 L1457.16,797.668 L1457.14,798.719 L1457.79,799.649 L1459.79,799.183 L1456.59,783.781 L1456.6,779.479 L1457.13,739.172 L1454.71,739.428 L1454.07,738.959 L1453.39,738.103 L1454.04,737.988 L1454.51,738.656 L1455.1,738.849 L1457.13,738.607 L1457.41,736.502 L1455.13,736.62 L1455.22,737.957 L1454.72,737.959 L1454.66,736.117 L1457.54,736.033 L1457.84,716.608 L1455.64,716.507 L1455.71,715.153 L1457.69,715.269 L1458,711.208 L1456.5,711.079 L1456.66,708.899 L1457.38,708.885 L1457.27,710.359 L1459.98,710.431 L1460.05,708.528 L1456.65,708.228 L1456.72,707.188 L1458.29,706.572 L1458.67,704.271 L1460.35,704.318 L1459.68,691.472 L1458.53,688.558 L1453.54,679.15 L1449.2,674.997 L1448.48,675.087 L1448.89,679.311 L1447.77,679.579 L1447.05,671.772 L1448.48,671.677 L1448.87,668.933 L1449.81,669.013 L1450.78,665.918 L1451.69,665.374 L1453.41,662.897 L1455.01,660.853 L1457.56,658.75 L1457.2,658.126 L1456.04,658.54 L1453.82,652.052 L1454.7,651.024 L1453.15,645.294 L1451.59,642.083 L1451.62,640.747 L1447.78,634.633 L1443.96,628.111 L1442.66,626.509 L1439.99,623.25 L1432.8,613.721 L1430.36,616.03 L1429.54,615.06 L1431.85,613.119 L1427.66,608.281 L1421.91,601.701 L1420.25,603.008 L1418.03,599.93 L1417.05,597.502 L1420.61,596.275 L1419.47,593.882 L1417.64,587.123 L1415.86,574.17 L1415.64,572.048 L1414.38,568.289 L1413.35,568.287 L1412.92,565.844 L1415.52,565.349 L1414.14,557.194 L1410.89,546.599 L1409.4,544.387 L1408.48,541.185 L1405.16,533.734 L1407.28,533.539 L1398.12,500.639 L1394.57,489.128 L1392.64,484.716 L1388.85,478.216 L1385.45,473.976 L1382.18,470.621 L1379.43,467.859 L1364.25,455.236 L1359.94,454.715 L1355.17,452.348 L1355.69,451.331 L1352.64,447.875 L1350.77,441.925 L1347.94,438.599 L1349.6,438.043 L1350.08,437.588 L1348.9,433.227 L1348.44,431.07 L1348,428.832 L1347.8,426.819 L1347.6,424.348 L1347.7,419.323 L1347.21,418.807 L1346.74,417.903 L1346.39,416.5 L1346.28,414.029 L1344.76,412.796 L1346.97,405.737 L1350.89,404.726 L1352.73,397.656 L1353.47,394.033 L1353.71,392.411 L1353.78,390.459 L1353.51,388.175 L1353.22,386.844 L1352.63,385.182 L1351.92,383.477 L1350.99,382.196 L1349.84,381.193 L1348.42,380.053 L1347.05,379.284 L1345.51,378.495 L1344.05,377.42 L1343.09,376.265 L1342.29,374.903 L1341.45,373.273 L1340.95,371.977 L1340.63,370.609 L1340.6,369.284 L1340.78,367.547 L1341.15,366.401 L1341.72,365.448 L1342.83,364.823 L1343.77,364.163 L1344.55,363.38 L1345.52,361.562 L1346.01,360.508 L1347.06,353.328 L1347.31,351.476 L1346.68,349.526 L1345.54,347.205 L1344.94,345.468 L1344.73,342.911 L1345,339.659 L1345.35,336.615 L1344.93,334.884 L1344.62,333.141 L1344.28,331.439 L1344.51,329.345 L1344.98,327.793 L1345.84,327.317 L1347.34,327.049 L1349.89,326.076 L1352.53,324.27 L1358.17,321.096 L1361.76,319.161 L1366.65,316.151 L1368.83,314.633 L1370.39,312.991 L1375.17,308.046 L1374.59,307.625 L1380.86,301.099 L1383.07,298.901 L1384.38,296.776 L1385.62,294.892 L1386.42,292.789 L1387.35,290.266 L1387.62,288.359 L1387.65,287.035 L1387.12,285.157 L1386.4,283.403 L1384.96,280.957 L1382.22,282.527 L1380.45,279.606 L1383.79,277.872 L1379.19,270.335 L1376.24,266.282 L1374.13,263.232 L1372.64,262.215 L1370.81,260.856 L1368.65,258.998 L1365.89,256.613 L1364.27,254.654 L1363.39,252.468 L1363,250.377 L1362.89,248.229 L1363.17,246.541 L1363.83,245.466 L1367.25,244.003 L1369.4,243.401 L1370.78,241.589 L1373.51,239.76 L1377.59,234.979 L1379.77,231.808 L1381.63,228.533 L1382.6,225.364 L1383.14,222.409 L1383.68,216.608 L1384.34,208.402 L1384.76,204.614 L1385.12,202.316 L1385.76,199.974 L1386.56,197.842 L1387.61,195.195 L1388.75,192.88 L1389.99,190.875 L1391.57,188.498 L1393.6,186.171 L1395.68,184.414 L1396.97,183.484 L1398.9,183.037 L1407.95,176.473 L1409.25,175.208 L1410.24,173.477 L1410.82,171.717 L1411.01,169.335 L1411,166.331 L1411,164.297 L1411.66,159.887 L1412.3,158.087 L1415.07,156.056 L1413.52,154.04 L1413.62,152.421 L1425,153.222 L1430.68,150.73 L1435.12,148.924 L1440.21,146.847 L1441.87,146.216 L1449.71,143.085 L1446.3,140.827 L1444.8,141.89 L1444.55,140.954 L1446.11,139.897 L1447.34,140.173 L1449.74,137.725 L1449.74,122.942 L1449.99,109.409 L1448.13,107.223 L1445.94,104.671 L1446.25,104.147 L1445.37,103.375 L1444.62,103.988 L1440.88,100.353 L1441.69,99.5895 L1436.15,94.8741 L1432.22,92.5379 L1429.48,88.3265 L1427.07,88.2027 L1426.1,82.8419 L1429.78,82.142 L1430.87,78.2778 L1472.97,88.0024" fill-rule="evenodd"/>
   <path vector-effect="none" d="M1407.65,1698.53 L1409.16,1696.37 L1410.08,1694.01 L1409.85,1689.86 L1409.73,1684.75 L1408.58,1682.37 L1407.21,1680.93 L1409.03,1680.38 L1411.12,1679.99 L1415.95,1680.1 L1419.83,1680.94 L1425.04,1682.28 L1426.48,1681.89 L1428,1683.33 L1432.63,1685.3 L1441.03,1688.88 L1446.93,1690.53 L1452.72,1691.03 L1456.46,1690.23 L1459.16,1689.51 L1463.15,1687.81 L1466.22,1687.3 L1469.17,1687.66 L1477.29,1686.77 L1478.98,1687.63 L1480.31,1688.62 L1481.64,1690.22 L1483.42,1693.41 L1485.44,1694.15 L1487.86,1694.68 L1493.23,1697.17 L1495.14,1698.61 L1496.64,1698.91 L1498.36,1698.45 L1501.05,1698.38 L1504.82,1696.15 L1509.62,1693.95 L1511.94,1693.39 L1514.38,1694.12 L1518.5,1692.25 L1524.79,1690.55 L1531.32,1688.88 L1535.09,1683.53 L1536.26,1680.55 L1537.24,1677.77 L1537.63,1674.6 L1537.76,1671.35 L1534.96,1669.2 L1533.72,1668.25 L1526.49,1663.2 L1522.68,1661.47 L1516.91,1658.27 L1514.24,1657.7 L1510.39,1656.05 L1514.04,1656.35 L1515.5,1656.12 L1523.65,1657.4 L1528.21,1658.72 L1531.67,1660.08 L1546.12,1666.59 L1559.16,1671.65 L1565.52,1675.45 L1578,1685.72 L1585.05,1693.02 L1589.09,1697.69 L1595,1694.67 L1595.63,1695.64 L1591.38,1697.84 L1592.46,1699.88 L1594.02,1700.28 L1594.02,1701.01 L1592.36,1700.57 L1590.85,1703.4 L1594.24,1708.48 L1595.92,1712.83 L1598.07,1715.42 L1603.37,1718.84 L1610.39,1723.69 L1612.44,1724.37 L1622.79,1733.27 L1634.35,1740.08 L1645.43,1745.78 L1655.41,1749.71 L1667.23,1756.97 L1675.5,1763.15 L1682.67,1769.29 L1686.34,1772 L1688.76,1773.05 L1690.61,1775.25 L1700.23,1780.79 L1707.59,1783.41 L1715.19,1785.9 L1725.63,1789.36 L1738.73,1794.81 L1744.14,1797.64 L1750.14,1802.26 L1753.84,1805.36 L1757.06,1808.78 L1760.06,1812.65 L1762.61,1815.71 L1763.64,1819.4 L1764.7,1825.8 L1764.85,1828.68 L1764.27,1829.96 L1762.43,1832.41 L1761.36,1833.95 L1759.96,1835.33 L1758.68,1835.46 L1757.44,1835.07 L1753.49,1832.11 L1751.23,1831.23 L1746.29,1830.78 L1740.32,1828.2 L1737.75,1825.73 L1736.24,1823.29 L1733.63,1821.3 L1729.76,1819.79 L1722.06,1820.51 L1717.07,1822 L1711.67,1824.77 L1709.09,1828.12 L1705.41,1831.4 L1703.11,1831.89 L1700.54,1831.52 L1694.81,1826.64 L1689.9,1821.34 L1687.26,1820.74 L1684.04,1820.67 L1680.14,1822.12 L1677.21,1823.83 L1675.53,1825.78 L1672.35,1826.82 L1671.45,1827.69 L1668.14,1824.96 L1662.23,1819.99 L1658.7,1817.5 L1656.26,1816.68 L1654.49,1815.3 L1653.26,1812.06 L1651.63,1806.98 L1650.79,1805.83 L1650.09,1803.42 L1647.96,1798.57 L1645.58,1794.69 L1644.45,1793.93 L1642.85,1792 L1640.19,1788.33 L1638.3,1787.47 L1634.98,1787.47 L1629.12,1788.14 L1626.44,1788.52 L1625.25,1789.41 L1620.75,1790.88 L1613.29,1794.72 L1608.68,1797.77 L1605.67,1800.65 L1602.25,1802.81 L1601.18,1803.5 L1599.38,1803.21 L1598.32,1809.37 L1596.4,1808.99 L1596.8,1806.91 L1597.95,1807.11 L1598.94,1800.9 L1599.94,1795.74 L1600.64,1793.9 L1603.25,1788.62 L1605.06,1784.22 L1605.07,1782.69 L1604.49,1781.08 L1604.44,1779.57 L1604.8,1778 L1603.61,1773.64 L1600.9,1770.3 L1598.97,1768.89 L1596.36,1768.17 L1590.06,1766.36 L1579.57,1762.46 L1569.59,1758.01 L1558.88,1753.2 L1553.62,1750.83 L1548.28,1748.43 L1545.41,1747.58 L1542.98,1747.38 L1540.86,1747.42 L1539.17,1747.79 L1537.13,1748.5 L1535.11,1749.79 L1533.26,1751.42 L1531.89,1753.28 L1530.69,1755.61 L1529.91,1758.92 L1529.59,1766.04 L1529.53,1770.53 L1529.63,1773.43 L1533.18,1775.67 L1533.99,1774.45 L1535.45,1775.27 L1534.36,1777.17 L1529.57,1774.37 L1528.61,1775.86 L1527.48,1776.99 L1524.73,1779.26 L1522.7,1780.72 L1522.21,1781.1 L1521.56,1782.31 L1522.51,1782.98 L1521.63,1784.61 L1519.85,1783.66 L1520.78,1781.97 L1521.01,1781.82 L1521.57,1780.81 L1521.55,1780.26 L1519.56,1778.07 L1519.13,1776.81 L1508.28,1771.5 L1499.43,1765.32 L1491.97,1760.37 L1489.41,1759.32 L1488.24,1758.79 L1486.74,1758.83 L1485.71,1758.65 L1482.87,1758.63 L1479.97,1759.09 L1479.23,1759.71 L1475.92,1758.99 L1474.13,1758.62 L1473.55,1757.55 L1472.98,1756.25 L1473.12,1755.12 L1473.82,1754.08 L1472.94,1749.55 L1471.42,1746.58 L1469.27,1744.29 L1466.65,1741.59 L1464.36,1739.32 L1462.59,1738.93 L1460.99,1738.34 L1459.26,1736.87 L1457.44,1736.21 L1455.26,1735.94 L1452.13,1734.52 L1450.26,1732.83 L1447.45,1730.22 L1445.21,1728.8 L1442.78,1727.8 L1440.45,1726.8 L1437.39,1726.17 L1434.66,1726.05 L1432.17,1726.63 L1428.4,1728.28 L1425.08,1729.82 L1422.89,1731.35 L1416.41,1735.68 L1414.38,1737.59 L1412.9,1739.36 L1410.92,1740.31 L1408.68,1740.38 L1407.12,1739.72 L1404.92,1738.37 L1399.92,1736.01 L1396.74,1734.64 L1393.79,1733.72 L1391.8,1733.75 L1390.46,1734.09 L1388.32,1735.4 L1387.1,1736.04 L1385.58,1736.52 L1384.42,1736.38 L1381.73,1735.01 L1378.96,1732.68 L1376.91,1729.92 L1374.01,1727.13 L1372.2,1724.02 L1370.96,1721.58 L1370.67,1720.05 L1371.11,1718.67 L1371.9,1717 L1373.12,1715.89 L1375.92,1713.2 L1379.17,1710.66 L1382.02,1708.9 L1385.45,1707.15 L1388.63,1705.92 L1392.19,1705.17 L1398,1704.3 L1401.36,1702.71 L1404.19,1701.22 L1406.05,1699.89 L1407.65,1698.53" fill-rule="evenodd"/>
   <path vector-effect="none" d="M1821.58,1895.38 L1820.35,1895.61 L1818.36,1898.56 L1818.07,1898.16 L1819.45,1895.09 L1816.5,1893.38 L1815.39,1893.64 L1813.64,1894.92 L1813.11,1894.59 L1814.3,1893.41 L1814.35,1892.5 L1811.1,1891.02 L1806.38,1887.87 L1806.24,1887.32 L1802.15,1883.48 L1801.25,1883.61 L1800.82,1884.14 L1799.04,1882.86 L1799.68,1882.07 L1797.43,1880.79 L1795.13,1880.11 L1793.53,1880.17 L1793.5,1884.04 L1791.63,1884.04 L1791.84,1880.43 L1787.97,1880.14 L1783,1878.56 L1781.77,1877.06 L1781.19,1875.81 L1778.19,1874.86 L1776.47,1874.79 L1774.88,1876.71 L1775.94,1877.42 L1775.16,1878.44 L1772.01,1876.25 L1772.67,1875.29 L1773.87,1876.05 L1775.02,1874.11 L1775.31,1873.02 L1773.83,1870.93 L1773.1,1869.16 L1774.13,1864.46 L1781.96,1854.37 L1790.19,1847.1 L1796.69,1838.94 L1803.6,1837.99 L1808.75,1839 L1810.96,1835.33 L1811.54,1835.76 L1810.69,1838.25 L1818.31,1841.88 L1830.34,1846.47 L1837.12,1848.44 L1839.93,1847.98 L1852.06,1851.69 L1857.11,1854.48 L1860.43,1857.25 L1864.2,1861.52 L1867.01,1866.29 L1866.54,1873.64 L1864.48,1879.3 L1861.33,1884.19 L1859.45,1885.45 L1856.08,1888.09 L1852.79,1893.18 L1848.79,1898.3 L1845.45,1900.9 L1842.27,1902.33 L1839.44,1903.05 L1833.88,1903.51 L1831.41,1903.38 L1829.25,1904.26 L1828.07,1903.08 L1827.39,1900.89 L1824.58,1898.82 L1821.58,1895.38" fill-rule="evenodd"/>
   <path vector-effect="none" d="M1290.34,1739.61 L1288.25,1740.33 L1285.08,1742.5 L1280.78,1745.63 L1272.33,1741.74 L1272.07,1742.12 L1270.74,1741.69 L1268.18,1739.59 L1263.54,1736.16 L1263.9,1735.75 L1266.84,1737.38 L1267.52,1735.81 L1264.66,1734.81 L1263.26,1734.71 L1262.59,1735.57 L1261.48,1734.83 L1261.72,1734.21 L1262.79,1733.39 L1264.67,1728.3 L1265.28,1726.38 L1264.65,1726.22 L1260.73,1725.79 L1258.21,1732.21 L1260.91,1733.68 L1260.32,1734.32 L1257.16,1732.54 L1260.21,1725.06 L1265.37,1725.5 L1282.14,1728.33 L1282.81,1728.58 L1297.01,1731.8 L1297.04,1732.24 L1296.34,1732.32 L1296.39,1735.09 L1296.08,1735.88 L1293.89,1738.01 L1295.21,1738.98 L1292.29,1739.99 L1292.06,1738.98 L1291.33,1739.08 L1291.39,1740.26 L1290.82,1740.32 L1290.34,1739.61" fill-rule="evenodd"/>
   <path vector-effect="none" d="M1062.04,1873.82 L1063.13,1872.26 L1064.63,1871.85 L1067.07,1871.82 L1070.29,1872.1 L1070.19,1875.08 L1070.99,1876.64 L1073.47,1878.43 L1075.6,1880.98 L1074.62,1882.69 L1072.82,1883.4 L1065.11,1880.66 L1064.3,1877.18 L1061.37,1874.44 L1062.04,1873.82" fill-rule="evenodd"/>
  </g>
  <g font-size="34.5833" font-style="normal" fill="none" stroke="#000000" transform="matrix(0.999744,0,0,0.999744,0,0)" font-family="MS Shell Dlg 2" stroke-opacity="1" stroke-width="1" stroke-linecap="square" font-weight="400" stroke-linejoin="bevel"/>
  <g font-size="34.5833" font-style="normal" fill="none" stroke="#000000" transform="matrix(11.808,0,0,11.808,0,0)" font-family="MS Shell Dlg 2" stroke-opacity="1" stroke-width="1" stroke-linecap="square" font-weight="400" stroke-linejoin="bevel"/>
  <g font-size="34.5833" font-style="normal" fill="none" stroke="#000000" transform="matrix(11.808,0,0,11.808,0,0)" font-family="MS Shell Dlg 2" stroke-opacity="1" stroke-width="1" stroke-linecap="square" font-weight="400" stroke-linejoin="bevel"/>
  <g font-size="34.5833" font-style="normal" fill="none" stroke="#000000" transform="matrix(11.808,0,0,11.808,0,0)" font-family="MS Shell Dlg 2" stroke-opacity="1" stroke-width="1" stroke-linecap="square" font-weight="400" stroke-linejoin="bevel"/>
  <g font-size="34.5833" font-style="normal" fill="none" stroke="#000000" transform="matrix(1,0,0,1,0,0)" font-family="MS Shell Dlg 2" stroke-opacity="1" stroke-width="1" stroke-linecap="square" font-weight="400" stroke-linejoin="bevel"/>
  <g font-size="34.5833" font-style="normal" fill="none" stroke="#000000" transform="matrix(11.808,0,0,11.808,0,0)" font-family="MS Shell Dlg 2" stroke-opacity="1" stroke-width="1" stroke-linecap="square" font-weight="400" stroke-linejoin="bevel"/>
  <g font-size="34.5833" font-style="normal" fill="none" stroke="#000000" transform="matrix(11.808,0,0,11.808,0,0)" font-family="MS Shell Dlg 2" stroke-opacity="1" stroke-width="1" stroke-linecap="square" font-weight="400" stroke-linejoin="bevel"/>
  <g font-size="34.5833" font-style="normal" fill="none" stroke="#000000" transform="matrix(11.808,0,0,11.808,0,0)" font-family="MS Shell Dlg 2" stroke-opacity="1" stroke-width="1" stroke-linecap="square" font-weight="400" stroke-linejoin="bevel"/>
  <g font-size="34.5833" font-style="normal" fill="none" stroke="#000000" transform="matrix(11.808,0,0,11.808,0,0)" font-family="MS Shell Dlg 2" stroke-opacity="1" stroke-width="1" stroke-linecap="square" font-weight="400" stroke-linejoin="bevel"/>
  <g font-size="34.5833" font-style="normal" fill="none" stroke="#000000" transform="matrix(1,0,0,1,0,0)" font-family="MS Shell Dlg 2" stroke-opacity="1" stroke-width="1" stroke-linecap="square" font-weight="400" stroke-linejoin="bevel"/>
 </g>
</svg>
