<?xml version='1.0' encoding='UTF-8' standalone='no'?>
<svg width="249.936mm" version="1.2" viewBox="0 0 2952 2952" baseProfile="tiny" xmlns="http://www.w3.org/2000/svg" height="249.936mm" xmlns:xlink="http://www.w3.org/1999/xlink">
 <title>Qt SVG Document</title>
 <desc>Generated with Qt</desc>
 <defs/>
 <g fill="none" stroke="black" fill-rule="evenodd" stroke-width="1" stroke-linecap="square" stroke-linejoin="bevel">
  <g font-size="34.5833" font-style="normal" fill="none" stroke="#000000" transform="matrix(1,0,0,1,0,0)" font-family="MS Shell Dlg 2" stroke-opacity="1" stroke-width="1" stroke-linecap="square" font-weight="400" stroke-linejoin="bevel"/>
  <g font-size="34.5833" font-style="normal" fill="none" stroke="#000000" transform="matrix(1,0,0,1,0,0)" font-family="MS Shell Dlg 2" stroke-opacity="1" stroke-width="1" stroke-linecap="square" font-weight="400" stroke-linejoin="bevel"/>
  <g font-size="34.5833" font-style="normal" fill="none" stroke="#000000" transform="matrix(11.808,0,0,11.808,0,0)" font-family="MS Shell Dlg 2" stroke-opacity="1" stroke-width="1" stroke-linecap="square" font-weight="400" stroke-linejoin="bevel"/>
  <g font-size="34.5833" font-style="normal" fill="none" stroke="#000000" transform="matrix(0.999744,0,0,0.999744,0,0)" font-family="MS Shell Dlg 2" stroke-opacity="1" stroke-width="1" stroke-linecap="square" font-weight="400" stroke-linejoin="bevel"/>
  <g font-size="34.5833" font-style="normal" fill="#ffffff" stroke="none" transform="matrix(0.999744,0,0,0.999744,0,0)" font-family="MS Shell Dlg 2" fill-opacity="0" font-weight="400">
   <path vector-effect="none" d="M-2,-2 L2955,-2 L2955,2955 L-2,2955 L-2,-2" fill-rule="evenodd"/>
  </g>
  <g font-size="34.5833" font-style="normal" fill="none" stroke="#000000" transform="matrix(0.999744,0,0,0.999744,0,0)" font-family="MS Shell Dlg 2" stroke-opacity="1" stroke-width="1" stroke-linecap="square" font-weight="400" stroke-linejoin="bevel"/>
  <g font-size="34.5833" font-style="normal" fill="none" stroke="#000000" transform="matrix(11.808,0,0,11.808,0,0)" font-family="MS Shell Dlg 2" stroke-opacity="1" stroke-width="1" stroke-linecap="square" font-weight="400" stroke-linejoin="bevel"/>
  <g font-size="34.5833" font-style="normal" fill="none" stroke="#000000" transform="matrix(11.808,0,0,11.808,0,0)" font-family="MS Shell Dlg 2" stroke-opacity="1" stroke-width="1" stroke-linecap="square" font-weight="400" stroke-linejoin="bevel"/>
  <g font-size="34.5833" font-style="normal" fill="none" stroke="#000000" transform="matrix(11.808,0,0,11.808,0,0)" font-family="MS Shell Dlg 2" stroke-opacity="1" stroke-width="1" stroke-linecap="square" font-weight="400" stroke-linejoin="bevel"/>
  <g font-size="34.5833" font-style="normal" fill="none" stroke="#000000" transform="matrix(11.808,0,0,11.808,0,0)" font-family="MS Shell Dlg 2" stroke-opacity="1" stroke-width="1" stroke-linecap="square" font-weight="400" stroke-linejoin="bevel"/>
  <g font-size="34.5833" font-style="normal" fill="none" stroke="#000000" transform="matrix(11.808,0,0,11.808,0,0)" font-family="MS Shell Dlg 2" stroke-opacity="1" stroke-width="1" stroke-linecap="square" font-weight="400" stroke-linejoin="bevel"/>
  <g font-size="34.5833" font-style="normal" fill="#ffffff" stroke="none" transform="matrix(11.808,0,0,11.808,0,0)" font-family="MS Shell Dlg 2" fill-opacity="0" font-weight="400">
   <path vector-effect="none" d="M0,0 L250,0 L250,250 L0,250 L0,0" fill-rule="evenodd"/>
  </g>
  <g font-size="34.5833" font-style="normal" fill="none" stroke="#000000" transform="matrix(11.808,0,0,11.808,0,0)" font-family="MS Shell Dlg 2" stroke-opacity="1" stroke-width="1" stroke-linecap="square" font-weight="400" stroke-linejoin="bevel"/>
  <g font-size="34.5833" font-style="normal" fill="none" stroke="#000000" transform="matrix(11.808,0,0,11.808,0,0)" font-family="MS Shell Dlg 2" stroke-opacity="1" stroke-width="1" stroke-linecap="square" font-weight="400" stroke-linejoin="bevel"/>
  <g font-size="34.5833" font-style="normal" fill="#000000" stroke="none" transform="matrix(0.999744,0,0,0.999744,0,0)" font-family="MS Shell Dlg 2" fill-opacity="0" font-weight="400">
   <rect width="2953" x="0" y="0" height="2953"/>
  </g>
  <g font-size="34.5833" font-style="normal" fill="none" stroke="#000000" transform="matrix(0.999744,0,0,0.999744,0,0)" font-family="MS Shell Dlg 2" stroke-opacity="1" stroke-width="1" stroke-linecap="square" font-weight="400" stroke-linejoin="bevel"/>
  <g font-size="34.5833" font-style="normal" fill="#c5c5c5" stroke="#5c5c5c" transform="matrix(0.999744,0,0,0.999744,0,0)" font-family="MS Shell Dlg 2" fill-opacity="1" stroke-opacity="1" stroke-width="3.07087" stroke-linecap="square" font-weight="400" stroke-linejoin="bevel">
   <path vector-effect="none" d="M2077.83,761.871 L2062.88,778.584 L2052.81,804.037 L2051.49,860.168 L2054.12,986.113 L2059.36,1034.1 L2094.77,1230.35 L2101.66,1267.07 L2124.31,1391.06 L2149.04,1446.36 L2162.06,1471.88 L2176.53,1488.23 L2197.9,1504.44 L2210.95,1514.79 L2237.17,1535.98 L2260.56,1562.35 L2275.11,1580.51 L2287.18,1597.41 L2287.6,1621.04 L2295.49,1645.87 L2309.11,1675.57 L2288.01,1697.1 L2263.91,1730.98 L2241.07,1723.23 L2218.66,1708.16 L2200.23,1697.41 L2173.14,1664.92 L2162.56,1655.4 L2153.76,1652.8 L2144.09,1654.53 L2130.6,1668.63 L2100.83,1691.77 L2089.85,1700.34 L2058.51,1725.68 L2059.4,1850.35 L2055.87,1888.63 L2046.68,1935.39 L2029.6,1987.53 L2012.89,2032.73 L1993.97,2073.56 L1958.8,2125.59 L1939.61,2160.12 L1919.51,2203.29 L1901.47,2236.86 L1880.43,2270.73 L1861.47,2296.59 L1853.12,2318.92 L1852.67,2344.59 L1858.37,2370.33 L1871.92,2398.1 L1882.51,2414.06 L1892.16,2419.66 L1909.75,2424.38 L1931.18,2432.68 L1961.58,2446.26 L2027.37,2491.69 L2058.03,2503.24 L2095.29,2512.22 L2130.22,2522.15 L2154.54,2529.75 L2185.81,2551.68 L2260.66,2615.77 L2279.7,2633.53 L2256.92,2695.58 L2242.01,2724.3 L2220.45,2744.52 L2206.42,2764.64 L2198.94,2788.19 L2198.09,2821.58 L2184.08,2843.81 L2138.27,2886.23 L2106.13,2880.21 L2066.74,2861.41 L2037.77,2841.69 L2008.85,2830.59 L1978.1,2821.14 L1907.9,2817.73 L1872.98,2812.64 L1834.13,2801.44 L1806.95,2802.31 L1766.62,2811.74 L1704.44,2812.59 L1597.11,2812.59 L1555.89,2800.6 L1497.88,2774.01 L1461.03,2747.42 L1420.76,2702.97 L1375.67,2664.51 L1312.08,2614.5 L1249.91,2570.05 L1225.09,2543.98 L1193.75,2501.5 L1167.51,2473.27 L1127.09,2441.5 L1106.89,2411.47 L1074.81,2333.64 L969.478,2046.82 L929.135,1963.66 L901.127,1909.67 L860.683,1859.8 L823.841,1826.32 L810.647,1819.43 L790.422,1822.88 L761.479,1843.47 L731.705,1866.63 L713.242,1877.83 L695.657,1876.96 L683.353,1871.8 L666.702,1846.08 L656.272,1832.4 L606.157,1791.97 L564.91,1764.5 L543.214,1757.71 L535.93,1758.36 L536.42,1756.69 L537.337,1754.8 L537.375,1753.7 L537.428,1752.16 L534.695,1751.8 L532.751,1751.54 L531.834,1750.03 L528.376,1723.98 L527.373,1713.18 L523.647,1680.79 L524.077,1659.98 L528.949,1656.44 L525.94,1627.58 L522.93,1601.66 L522.833,1601.03 L519.634,1580.06 L513.185,1550.21 L512.468,1542.55 L512.038,1517.8 L511.035,1510.54 L506.306,1482.84 L506.306,1480.68 L509.965,1471.94 L511.322,1468.7 L512.351,1465.39 L518.774,1444.73 L525.08,1422.34 L525.563,1419.93 L527.803,1408.78 L528.089,1398.76 L531.815,1396.41 L530.955,1393.26 L530.942,1393.04 L530.941,1392.84 L530.955,1392.64 L530.982,1392.46 L531.022,1392.28 L531.077,1392.12 L531.147,1391.95 L531.232,1391.79 L531.317,1391.66 L531.415,1391.53 L531.661,1391.24 L531.694,1391.21 L531.878,1391.03 L532.498,1390.44 L532.819,1390.12 L532.952,1389.97 L533.07,1389.81 L533.171,1389.64 L533.257,1389.46 L533.328,1389.27 L533.377,1389.1 L533.384,1389.07 L533.426,1388.86 L533.454,1388.63 L533.47,1388.25 L533.456,1387.82 L533.421,1387.37 L533.284,1386.03 L533.257,1385.6 L533.248,1385.21 L533.261,1384.8 L533.299,1384.3 L533.361,1383.72 L533.447,1383.05 L533.555,1382.32 L533.684,1381.52 L533.832,1380.68 L533.996,1379.82 L534.171,1378.94 L534.357,1378.06 L534.55,1377.2 L534.748,1376.36 L534.947,1375.55 L535.147,1374.79 L535.346,1374.08 L535.541,1373.42 L535.704,1372.87 L535.862,1372.3 L536.016,1371.7 L536.17,1371.06 L536.44,1369.84 L536.993,1367.19 L537.137,1366.55 L537.273,1366 L537.442,1365.39 L537.614,1364.86 L537.791,1364.39 L537.978,1363.99 L538.073,1363.79 L538.17,1363.55 L538.268,1363.29 L538.367,1363 L538.571,1362.31 L538.783,1361.48 L538.98,1360.64 L539.193,1359.64 L539.875,1356.24 L540.111,1355.12 L540.235,1354.57 L540.35,1354.1 L540.457,1353.71 L540.557,1353.38 L541.003,1352.01 L541.446,1350.61 L541.847,1349.3 L542.197,1348.12 L542.485,1347.09 L542.715,1346.22 L542.885,1345.49 L542.994,1344.93 L543.22,1343.6 L543.577,1341.57 L544.335,1337.39 L544.627,1335.83 L544.861,1334.63 L545.034,1333.79 L545.143,1333.33 L545.962,1330.41 L546.501,1328.56 L546.764,1327.7 L547.007,1326.93 L547.231,1326.25 L547.436,1325.67 L547.595,1325.19 L547.79,1324.52 L548.02,1323.66 L548.28,1322.64 L548.568,1321.45 L548.878,1320.13 L549.532,1317.22 L550.177,1314.2 L550.466,1312.77 L550.722,1311.47 L550.937,1310.32 L551.108,1309.35 L551.231,1308.56 L551.306,1307.99 L551.42,1307.02 L551.642,1305.32 L553.277,1293.21 L553.706,1289.96 L554.054,1287.26 L554.358,1284.81 L554.573,1282.93 L554.702,1281.62 L554.735,1281.17 L554.745,1280.87 L554.751,1280.68 L554.767,1280.48 L554.795,1280.28 L554.833,1280.07 L554.943,1279.62 L555.096,1279.15 L555.292,1278.64 L555.53,1278.11 L555.809,1277.56 L556.128,1276.99 L556.492,1276.38 L556.891,1275.77 L557.323,1275.15 L557.782,1274.53 L558.263,1273.92 L558.759,1273.32 L559.262,1272.75 L559.761,1272.22 L560.053,1271.9 L560.321,1271.57 L560.566,1271.22 L560.787,1270.86 L560.985,1270.49 L561.159,1270.1 L561.311,1269.69 L561.441,1269.27 L561.544,1268.85 L561.627,1268.42 L561.691,1267.97 L561.738,1267.49 L561.764,1267.02 L561.777,1266.51 L561.768,1264.95 L561.759,1263.49 L561.767,1262.78 L561.799,1262.08 L561.859,1261.47 L561.903,1261.15 L561.957,1260.85 L562.02,1260.56 L562.093,1260.28 L562.175,1260.01 L562.268,1259.75 L562.371,1259.5 L562.484,1259.25 L562.697,1258.83 L562.957,1258.34 L563.609,1257.19 L564.438,1255.8 L565.35,1254.33 L566.783,1242.54 L568.933,1235.27 L571.513,1222.49 L575.278,1219.05 L575.382,1218.96 L575.391,1218.87 L576.529,1206.77 L578.822,1192.22 L581.115,1182 L584.984,1164.51 L589.139,1151.27 L589.857,1148.98 L591.023,1144.1 L592.866,1136.4 L595.016,1125.19 L596.019,1120.47 L599.172,1107.3 L617.516,1094.72 L633.71,1083.9 L647.181,1076.04 L657.162,1070.49 L669.108,1063.85 L669.21,1063.57 L671.688,1056.77 L677.134,1041.63 L690.032,1004.46 L694.044,991.087 L722.42,978.107 L734.382,972.836 L769.283,957.456 L787.627,948.212 L802.818,940.148 L827.898,926.182 L835.4,922.277 L836.21,921.855 L835.639,921.495 L834.277,920.601 L833.686,920.231 L833.33,920.021 L833.003,919.842 L832.701,919.689 L832.42,919.563 L831.99,919.396 L831.546,919.253 L831.087,919.133 L830.61,919.035 L830.116,918.96 L829.601,918.907 L829.064,918.875 L828.501,918.865 L828.021,918.873 L827.516,918.895 L826.982,918.931 L826.409,918.983 L825.331,919.104 L824.238,919.245 L822.692,919.444 L821.969,919.522 L821.322,919.578 L820.626,919.618 L819.981,919.631 L819.373,919.618 L818.799,919.579 L818.167,919.499 L817.568,919.383 L816.999,919.23 L816.456,919.039 L815.938,918.808 L815.688,918.678 L815.443,918.538 L815.204,918.388 L814.971,918.228 L814.743,918.057 L814.52,917.877 L814.283,917.666 L814.041,917.43 L813.791,917.165 L813.527,916.866 L813.055,916.29 L811.971,914.905 L811.695,914.569 L811.44,914.275 L811.195,914.008 L810.958,913.768 L810.726,913.553 L810.713,913.541 L810.499,913.36 L810.28,913.192 L810.054,913.033 L809.818,912.881 L809.573,912.737 L809.052,912.471 L808.481,912.229 L808.183,912.123 L807.938,912.036 L807.325,911.848 L806.703,911.68 L805.041,911.256 L804.548,911.117 L804.109,910.981 L803.617,910.808 L803.164,910.625 L802.742,910.428 L802.346,910.215 L801.84,909.901 L801.286,909.514 L800.764,909.12 L799.531,908.156 L798.906,907.697 L798.597,907.487 L798.304,907.301 L798.021,907.136 L797.746,906.991 L797.284,906.782 L796.794,906.603 L796.271,906.454 L795.707,906.331 L795.127,906.238 L794.478,906.162 L793.801,906.106 L791.935,905.979 L791.369,905.925 L790.866,905.86 L790.294,905.761 L789.768,905.64 L789.278,905.492 L788.819,905.318 L788.484,905.169 L788.151,905.006 L787.819,904.827 L787.488,904.634 L787.157,904.426 L786.828,904.202 L786.499,903.963 L786.17,903.709 L785.841,903.44 L785.512,903.155 L785.183,902.853 L784.852,902.535 L784.519,902.2 L784.184,901.848 L783.507,901.088 L782.945,900.414 L782.367,899.683 L781.767,898.886 L781.134,898.009 L780.578,897.211 L779.964,896.31 L777.863,893.157 L777.041,891.94 L776.197,890.731 L775.425,889.673 L774.988,889.099 L774.563,888.559 L774.145,888.048 L773.734,887.565 L773.327,887.108 L772.924,886.676 L772.524,886.267 L772.125,885.881 L771.812,885.601 L771.454,885.31 L771.05,885.006 L769.861,884.142 L769.499,883.857 L769.185,883.589 L768.839,883.257 L768.537,882.923 L768.273,882.579 L768.045,882.223 L767.919,881.986 L767.801,881.724 L767.69,881.436 L767.584,881.116 L767.486,880.776 L767.387,880.388 L767.037,878.816 L766.871,878.158 L766.768,877.813 L766.662,877.504 L766.549,877.224 L766.429,876.969 L766.311,876.753 L766.182,876.542 L766.043,876.337 L765.892,876.136 L765.73,875.94 L765.556,875.748 L765.369,875.559 L765.168,875.371 L764.764,875.033 L764.296,874.684 L763.8,874.346 L762.424,873.448 L762.016,873.161 L761.661,872.89 L761.272,872.559 L760.929,872.225 L760.625,871.882 L760.357,871.525 L760.034,871.035 L759.716,870.516 L759.406,869.971 L759.104,869.4 L758.812,868.805 L758.529,868.19 L758.258,867.555 L757.999,866.903 L757.753,866.236 L757.521,865.557 L757.305,864.87 L757.105,864.178 L756.922,863.484 L756.757,862.79 L756.611,862.1 L756.485,861.417 L756.429,861.045 L756.387,860.66 L756.358,860.26 L756.343,859.844 L756.341,859.412 L756.353,858.961 L756.378,858.49 L756.416,857.995 L756.507,857.139 L756.638,856.174 L756.778,855.271 L756.782,855.248 L757.139,853.081 L757.295,852.031 L757.413,851.06 L757.454,850.62 L757.484,850.203 L757.503,849.799 L757.51,849.413 L757.506,849.044 L757.491,848.691 L757.465,848.352 L757.427,848.027 L757.378,847.714 L757.317,847.414 L757.251,847.147 L757.175,846.886 L757.088,846.629 L756.992,846.377 L756.885,846.129 L756.768,845.886 L756.641,845.647 L756.503,845.412 L756.355,845.181 L756.196,844.954 L756.026,844.73 L755.845,844.51 L755.654,844.293 L755.45,844.078 L755.009,843.657 L754.559,843.275 L754.063,842.896 L753.517,842.517 L752.912,842.13 L752.314,841.775 L751.633,841.392 L748.969,839.971 L748.375,839.64 L747.853,839.349 L747.266,838.998 L746.73,838.658 L746.234,838.322 L745.775,837.987 L745.251,837.568 L744.771,837.142 L744.334,836.707 L743.937,836.261 L743.578,835.801 L743.412,835.565 L743.256,835.326 L743.109,835.082 L742.971,834.835 L742.843,834.584 L742.723,834.328 L742.587,834.011 L742.457,833.68 L742.332,833.334 L742.211,832.973 L741.984,832.202 L741.771,831.354 L741.59,830.519 L741.41,829.573 L741.241,828.599 L740.8,825.926 L740.694,825.335 L740.656,825.123 L740.517,824.411 L740.343,823.611 L740.161,822.88 L739.97,822.202 L739.766,821.572 L739.437,820.661 L739.078,819.748 L738.689,818.83 L738.269,817.906 L737.818,816.974 L737.334,816.029 L736.814,815.07 L736.257,814.09 L735.711,813.172 L735.127,812.224 L734.498,811.237 L733.814,810.194 L732.478,808.223 L729.467,803.879 L729.119,803.392 L728.653,802.777 L728.43,802.492 L728.08,802.046 L727.293,801.064 L716.258,789.849 L696.911,770.959 L706.942,763.482 L734.315,741.246 L748.128,730.254 L762.261,719.008 L798.232,689.881 L812.563,678.466 L848.965,649.139 L878.773,625.715 L914.171,597.172 L924.029,591.563 L953.654,576.57 L993.644,555.78 L1022.72,541.542 L1041.98,531.461 L1064.27,520.498 L1081.88,511.047 L1088.02,508.149 L1093.16,504.872 L1106.37,496.051 L1144.25,470.342 L1162.04,458.369 L1181.76,445.262 L1191.94,442.489 L1201.04,440.334 L1205.24,439.338 L1226.23,433.644 L1247.98,427.742 L1266.97,422.701 L1285.04,409.592 L1310.44,391.441 L1310.96,391.117 L1311.64,390.66 L1312.49,390.067 L1313.51,389.333 L1315.82,387.646 L1320.35,384.295 L1321.45,383.499 L1321.61,383.379 L1321.78,383.239 L1321.95,383.078 L1322.12,382.896 L1322.3,382.692 L1322.48,382.467 L1322.86,381.947 L1323.2,381.444 L1323.57,380.852 L1324.69,378.96 L1325.02,378.406 L1325.32,377.949 L1325.58,377.575 L1325.72,377.387 L1325.9,377.187 L1326.1,376.975 L1326.33,376.75 L1326.86,376.265 L1327.51,375.735 L1328.27,375.153 L1329.12,374.536 L1330.07,373.891 L1330.99,373.289 L1331.96,373.379 L1338.72,374.009 L1339.31,374.064 L1376.94,377.575 L1391.78,363.071 L1393.45,361.439 L1405.19,350.597 L1413.72,342.151 L1416.2,338.243 L1450.04,324.879 L1468.02,318.954 L1486.64,312.65 L1486.91,312.634 L1494.22,312.21 L1494.22,311.121 L1494.21,310.237 L1494.19,309.519 L1494.16,308.979 L1494.14,308.795 L1494.1,308.574 L1494.03,308.32 L1493.95,308.038 L1493.84,307.735 L1493.72,307.418 L1493.59,307.093 L1493.45,306.769 L1493.16,306.161 L1493,305.878 L1492.85,305.615 L1492.7,305.375 L1492.55,305.158 L1492.41,304.967 L1492.27,304.803 L1492.07,304.562 L1491.88,304.275 L1491.68,303.94 L1491.48,303.552 L1491.32,303.208 L1491.15,302.816 L1490.55,301.315 L1490.32,300.784 L1489.85,299.787 L1489.59,299.228 L1489.36,298.682 L1489.17,298.193 L1489.01,297.726 L1488.89,297.308 L1488.81,296.935 L1488.79,296.766 L1488.77,296.608 L1488.78,296.303 L1488.81,296.013 L1488.87,295.734 L1488.96,295.501 L1488.97,295.457 L1489.08,295.227 L1489.22,294.976 L1489.76,294.133 L1489.98,293.771 L1490.05,293.622 L1490.12,293.446 L1490.19,293.243 L1490.25,293.013 L1490.3,292.756 L1490.35,292.473 L1490.43,291.828 L1490.47,291.416 L1490.49,291.089 L1490.53,290.25 L1490.55,289.337 L1490.55,288.176 L1490.54,287.93 L1490.5,287.679 L1490.42,287.421 L1490.32,287.153 L1490.22,286.923 L1490.09,286.675 L1489.62,285.863 L1489.46,285.575 L1489.41,285.452 L1489.37,285.293 L1489.33,285.097 L1489.3,284.857 L1489.25,284.387 L1489.11,282.766 L1489.04,282.244 L1488.98,281.772 L1488.9,281.338 L1488.81,280.935 L1488.71,280.562 L1488.6,280.217 L1488.52,280.013 L1488.43,279.81 L1488.32,279.608 L1488.19,279.406 L1488.05,279.206 L1487.89,279.006 L1487.72,278.805 L1487.52,278.605 L1487.14,278.246 L1486.91,278.053 L1486.7,277.874 L1486.48,277.708 L1486.31,277.582 L1485.83,277.231 L1485.43,276.943 L1485.11,276.698 L1484.9,276.512 L1484.76,276.355 L1484.56,276.062 L1484.34,275.701 L1484.09,275.288 L1483.85,274.84 L1483.61,274.382 L1483.39,273.931 L1483.2,273.507 L1483.04,273.124 L1482.96,272.954 L1482.86,272.783 L1482.72,272.609 L1482.56,272.429 L1482.38,272.259 L1482.17,272.073 L1481.23,271.321 L1480.83,270.971 L1480.63,270.775 L1480.46,270.584 L1480.3,270.396 L1480.18,270.208 L1480.07,270.022 L1479.97,269.797 L1479.88,269.536 L1479.78,269.238 L1479.7,268.904 L1479.61,268.535 L1479.54,268.132 L1479.52,268.023 L1479.46,267.697 L1479.4,267.217 L1479.33,266.71 L1479.28,266.18 L1479.23,265.633 L1479.22,265.407 L1479.2,265.074 L1479.17,264.521 L1479.15,263.992 L1479.14,263.51 L1479.14,257.205 L1479.13,256.01 L1479.08,254.605 L1479.01,253.226 L1478.82,249.836 L1478.74,248.142 L1478.71,247.47 L1478.65,246.759 L1478.57,246.006 L1478.47,245.204 L1478.27,243.865 L1477.78,241.064 L1477.7,240.566 L1477.65,240.182 L1477.56,239.5 L1477.43,238.675 L1477.26,237.765 L1477.06,236.833 L1476.86,235.949 L1476.66,235.133 L1476.47,234.41 L1476.28,233.798 L1476,233.006 L1475.66,232.123 L1475.29,231.223 L1474.92,230.368 L1474.57,229.622 L1474.24,228.99 L1473.95,228.487 L1473.82,228.288 L1473.7,228.123 L1473.56,227.959 L1473.37,227.763 L1472.86,227.271 L1472.15,226.632 L1470.54,225.235 L1469.91,224.679 L1469.38,224.19 L1469.35,224.161 L1469.15,223.958 L1469,223.789 L1468.73,223.507 L1468.39,223.184 L1468.02,222.87 L1466.93,221.96 L1466.31,221.408 L1466.24,221.339 L1466.02,221.125 L1465.76,220.851 L1465.53,220.584 L1465.33,220.321 L1465.14,220.032 L1464.98,219.724 L1464.85,219.39 L1464.75,219.025 L1464.68,218.701 L1464.62,218.334 L1464.47,217.012 L1464.39,216.472 L1464.35,216.252 L1464.34,216.19 L1464.28,215.926 L1464.21,215.675 L1464.12,215.434 L1464.04,215.223 L1463.92,214.991 L1463.78,214.736 L1463.6,214.46 L1463.56,214.402 L1463.4,214.162 L1463.17,213.842 L1462.62,213.137 L1461.99,212.384 L1461.25,211.549 L1460.51,210.746 L1459.66,209.842 L1459.14,209.286 L1459,209.143 L1458.83,208.991 L1458.62,208.829 L1458.48,208.731 L1458.37,208.654 L1457.86,208.322 L1456.54,207.502 L1456.2,207.278 L1455.93,207.079 L1454.06,205.647 L1452.9,204.738 L1451.95,203.961 L1451.58,203.644 L1451.28,203.375 L1451.11,203.224 L1450.87,203.029 L1450.16,202.502 L1449.16,201.799 L1447.9,200.93 L1446.25,199.823 L1444.41,198.604 L1442.52,197.371 L1441.31,196.596 L1441.12,196.466 L1440.92,196.302 L1440.71,196.1 L1440.48,195.856 L1440.03,195.331 L1439.08,194.121 L1438.64,193.592 L1438.18,193.077 L1437.97,192.856 L1437.76,192.655 L1437.38,192.298 L1436.98,191.877 L1436.58,191.439 L1435.53,190.262 L1434.93,189.626 L1434.6,189.306 L1434.29,189.024 L1433.98,188.775 L1433.69,188.556 L1432.96,188.04 L1431.99,187.31 L1430.88,186.448 L1429.75,185.56 L1428.79,184.774 L1428,184.111 L1427.43,183.607 L1427.23,183.419 L1427.09,183.275 L1426.95,183.097 L1426.79,182.881 L1426.62,182.633 L1426.44,182.357 L1426.09,181.75 L1425.78,181.154 L1425.76,181.109 L1425.48,180.494 L1425.25,179.915 L1425.15,179.647 L1425.08,179.394 L1425.02,179.158 L1424.97,178.94 L1424.9,178.447 L1424.84,177.977 L1424.81,177.527 L1424.8,177.097 L1424.81,176.686 L1424.84,176.292 L1424.9,175.914 L1424.97,175.55 L1425.03,175.319 L1425.13,175.017 L1425.71,173.264 L1425.85,172.8 L1425.96,172.374 L1426.09,171.869 L1426.18,171.405 L1426.25,170.977 L1426.29,170.584 L1426.32,170.245 L1426.36,169.897 L1426.4,169.649 L1426.41,169.537 L1426.48,169.16 L1426.63,168.443 L1427.01,166.854 L1427.09,166.446 L1427.15,166.091 L1427.37,164.391 L1427.53,162.921 L1427.59,162.308 L1427.63,161.776 L1427.66,161.329 L1427.67,160.967 L1427.65,160.397 L1427.61,159.504 L1427.34,155.142 L1427.27,153.715 L1427.24,153.329 L1427.19,152.902 L1427.11,152.435 L1427.01,151.933 L1426.87,151.388 L1426.72,150.816 L1426.54,150.224 L1426.36,149.677 L1426.65,149.788 L1426.99,149.876 L1427.38,149.941 L1427.82,149.986 L1428.26,150.009 L1428.78,150.018 L1430.66,149.992 L1440.46,149.914 L1441.31,149.886 L1442.62,149.804 L1444.34,149.672 L1446.32,149.5 L1448.38,149.304 L1450.25,149.111 L1451.69,148.942 L1452.62,148.81 L1453.45,148.652 L1454.42,148.44 L1455.39,148.211 L1456.56,147.921 L1457.28,147.745 L1457.38,147.721 L1458.12,147.549 L1461.32,146.801 L1462.37,146.571 L1463.32,146.381 L1464.24,146.216 L1465.06,146.093 L1465.77,146.012 L1466.21,145.982 L1466.37,145.972 L1467.08,145.929 L1467.86,145.846 L1468.68,145.723 L1469.55,145.563 L1470.47,145.362 L1471.39,145.13 L1472.27,144.878 L1472.96,144.654 L1473.02,144.632 L1473.75,144.345 L1475.78,143.459 L1476.73,143.066 L1477.2,142.89 L1477.62,142.752 L1477.98,142.65 L1478.3,142.582 L1478.72,142.488 L1479.29,142.323 L1480.04,142.085 L1480.94,141.774 L1483.12,140.983 L1486.34,139.767 L1486.61,139.666 L1486.71,139.626 L1486.91,139.55 L1489.54,138.542 L1490.81,138.069 L1492.12,137.602 L1493.26,137.222 L1494.16,136.919 L1495.04,136.592 L1495.87,136.251 L1496.62,135.906 L1497.27,135.566 L1497.56,135.399 L1497.66,135.339 L1497.82,135.236 L1498.06,135.075 L1498.26,134.919 L1498.44,134.767 L1498.59,134.62 L1498.61,134.597 L1498.78,134.429 L1499,134.231 L1499.24,134.032 L1499.51,133.836 L1499.79,133.646 L1500.08,133.465 L1500.38,133.295 L1500.68,133.139 L1500.97,133 L1501.26,132.877 L1501.55,132.771 L1501.83,132.68 L1502.11,132.607 L1502.38,132.551 L1502.64,132.513 L1502.89,132.492 L1503.49,132.457 L1507.4,132.234 L1508.37,132.179 L1509.71,132.118 L1510.57,132.098 L1510.85,132.085 L1511.16,132.049 L1511.51,131.987 L1511.89,131.899 L1512.62,131.692 L1514.17,131.204 L1514.85,130.999 L1515.55,130.815 L1516.19,130.679 L1516.49,130.615 L1516.81,130.537 L1517.13,130.443 L1517.46,130.335 L1518.13,130.076 L1518.82,129.761 L1519.54,129.386 L1520.25,128.966 L1520.93,128.516 L1521.24,128.292 L1521.52,128.077 L1521.64,127.996 L1521.77,127.918 L1521.94,127.845 L1522.13,127.776 L1522.58,127.648 L1523.14,127.532 L1523.69,127.445 L1524.34,127.361 L1524.89,127.303 L1527.02,127.075 L1527.14,127.062 L1527.72,126.98 L1528.17,126.894 L1528.73,126.782 L1529.35,126.675 L1531.39,126.39 L1532.04,126.287 L1532.66,126.163 L1533.16,126.027 L1533.31,125.969 L1533.46,125.894 L1533.61,125.8 L1533.76,125.687 L1533.92,125.557 L1534.07,125.407 L1534.23,125.239 L1534.39,125.05 L1534.68,124.674 L1534.99,124.223 L1535.28,123.767 L1535.89,122.785 L1536.14,122.401 L1536.44,121.911 L1536.8,121.272 L1537.19,120.513 L1537.27,120.357 L1537.59,119.685 L1537.97,118.848 L1538.18,118.341 L1538.3,118.07 L1538.55,117.403 L1538.65,117.123 L1538.72,116.882 L1538.78,116.711 L1538.87,116.534 L1538.98,116.351 L1539.13,116.163 L1539.3,115.971 L1539.5,115.774 L1539.72,115.575 L1539.97,115.373 L1540.26,115.159 L1540.58,114.946 L1540.91,114.738 L1541.25,114.538 L1541.61,114.349 L1541.95,114.184 L1542.26,114.052 L1542.5,113.965 L1542.82,113.903 L1543.34,113.841 L1544.07,113.781 L1544.98,113.724 L1546.13,113.668 L1547.4,113.619 L1547.95,113.604 L1548.67,113.584 L1549.61,113.571 L1550.92,113.571 L1558.72,113.571 L1559.91,113.556 L1560.43,113.55 L1564.04,113.478 L1566.16,113.436 L1568.3,113.414 L1569.51,113.426 L1570.86,113.463 L1575,113.65 L1575.79,113.665 L1576.61,113.644 L1577.44,113.59 L1578.26,113.503 L1579.06,113.385 L1579.84,113.238 L1580.57,113.063 L1581.25,112.862 L1581.75,112.706 L1582.27,112.56 L1582.79,112.424 L1583.32,112.297 L1584.39,112.076 L1585.78,111.837 L1585.96,111.791 L1586.19,111.703 L1586.48,111.575 L1586.82,111.408 L1587.65,110.965 L1588.59,110.41 L1589.59,109.786 L1590.49,109.183 L1590.87,108.912 L1591.19,108.67 L1591.44,108.461 L1591.63,108.289 L1591.73,108.194 L1591.86,108.095 L1592.18,107.888 L1592.59,107.666 L1593.09,107.427 L1594.03,107.031 L1596.34,106.154 L1596.77,105.983 L1597.07,105.845 L1597.51,105.622 L1597.93,105.375 L1598.35,105.097 L1598.78,104.783 L1599.23,104.426 L1599.71,104.017 L1600.23,103.548 L1600.8,103.007 L1601,102.821 L1601.22,102.641 L1601.45,102.469 L1601.7,102.303 L1601.96,102.143 L1602.24,101.988 L1602.53,101.839 L1602.84,101.693 L1603.43,101.45 L1604.1,101.206 L1604.75,100.991 L1606.2,100.536 L1606.82,100.326 L1608,99.902 L1609.17,99.4681 L1610.27,99.0501 L1611.26,98.6559 L1612.14,98.2952 L1612.89,97.966 L1613.53,97.6703 L1614.04,97.4092 L1614.26,97.3135 L1614.53,97.2275 L1614.86,97.1512 L1615.24,97.0846 L1615.69,97.0276 L1616.19,96.9804 L1616.75,96.9427 L1617.36,96.9147 L1618.66,96.888 L1620.16,96.8933 L1621.53,96.9201 L1624.24,97.0014 L1624.99,97.015 L1625.74,97.0315 L1626.65,97.0805 L1627.69,97.1598 L1628.79,97.2648 L1629.88,97.3886 L1630.91,97.5242 L1631.81,97.6644 L1632.56,97.8034 L1632.83,97.8675 L1633.14,97.9558 L1633.88,98.204 L1634.79,98.5462 L1635.83,98.9778 L1637.06,99.5189 L1638.38,100.126 L1639.69,100.759 L1640.7,101.272 L1640.96,101.404 L1641.31,101.562 L1641.86,101.789 L1642.25,101.947 L1643.46,102.406 L1644.82,102.895 L1646.21,103.365 L1647.14,103.661 L1647.45,103.759 L1648.42,104.04 L1648.79,104.132 L1649.07,104.189 L1649.89,104.305 L1651.2,104.454 L1652.78,104.614 L1654.42,104.761 L1655.81,104.87 L1656.97,104.945 L1657.65,104.973 L1657.85,104.981 L1658.41,104.978 L1658.67,104.947 L1658.96,104.881 L1659.28,104.78 L1659.38,104.741 L1659.63,104.643 L1659.98,104.487 L1660.38,104.294 L1661.76,103.571 L1662.25,103.324 L1662.73,103.12 L1662.93,103.052 L1663.11,103.007 L1663.76,102.854 L1665.49,102.405 L1666.18,102.244 L1666.58,102.163 L1666.92,102.106 L1667.22,102.072 L1667.47,102.061 L1668.01,102.041 L1668.79,101.984 L1669.72,101.896 L1670.69,101.787 L1671.57,101.675 L1672.33,101.561 L1672.93,101.452 L1673.37,101.351 L1673.76,101.261 L1674.17,101.196 L1674.61,101.156 L1675.06,101.143 L1675.52,101.157 L1675.99,101.197 L1676.44,101.262 L1676.87,101.351 L1677.07,101.414 L1677.3,101.511 L1677.53,101.628 L1677.56,101.643 L1677.85,101.805 L1678.15,101.995 L1678.46,102.209 L1678.77,102.441 L1679.08,102.686 L1679.38,102.934 L1679.66,103.185 L1679.91,103.436 L1680.15,103.683 L1680.36,103.923 L1680.55,104.154 L1680.7,104.375 L1680.83,104.584 L1681.11,105.094 L1681.51,105.761 L1682.51,107.408 L1683.53,109.016 L1683.93,109.616 L1684.21,110.023 L1684.31,110.129 L1684.47,110.234 L1684.67,110.336 L1684.93,110.438 L1685.24,110.537 L1685.6,110.635 L1686.01,110.731 L1686.47,110.826 L1687.53,111.006 L1688.78,111.179 L1690.18,111.341 L1691.32,111.453 L1692,111.521 L1693,111.645 L1694.7,111.912 L1695.27,111.994 L1695.84,112.054 L1696.3,112.073 L1702.13,112.007 L1703.24,111.994 L1703.45,111.985 L1703.7,111.955 L1703.98,111.907 L1704.3,111.839 L1705.05,111.645 L1705.41,111.538 L1705.94,111.376 L1707,111.017 L1708.17,110.591 L1709.4,110.11 L1710.35,109.708 L1711.19,109.285 L1714.57,107.514 L1715.88,106.84 L1716.18,106.688 L1717.37,106.102 L1717.74,105.933 L1717.97,105.845 L1718.14,105.776 L1718.41,105.643 L1718.87,105.377 L1719.2,105.191 L1720.31,104.507 L1721.66,103.651 L1723.12,102.688 L1724.43,101.8 L1725.38,101.122 L1725.69,100.884 L1725.88,100.72 L1726.1,100.491 L1726.33,100.197 L1726.57,99.8361 L1726.83,99.4062 L1727.1,98.9231 L1727.4,98.3597 L1727.72,97.7192 L1727.91,97.3202 L1728.18,96.7784 L1728.4,96.2895 L1728.67,95.6567 L1729.64,93.2796 L1730,92.4314 L1730.02,92.3736 L1730.32,91.7118 L1730.58,91.1807 L1730.67,91.0351 L1730.77,90.8844 L1731.02,90.5667 L1731.34,90.226 L1731.73,89.8585 L1732.09,89.5446 L1732.5,89.2018 L1734.09,87.9704 L1734.6,87.554 L1734.84,87.3598 L1735.12,87.162 L1735.45,86.9597 L1735.83,86.7513 L1736.57,86.3933 L1737.98,85.7756 L1738.38,85.5829 L1738.66,85.4195 L1739.04,85.186 L1739.87,84.6283 L1740.63,84.0689 L1740.88,83.8718 L1740.97,83.7983 L1741.28,83.538 L1741.55,83.3031 L1741.78,83.0803 L1741.98,82.8705 L1742.15,82.6744 L1742.29,82.4926 L1742.4,82.3253 L1742.47,82.1726 L1742.51,82.035 L1742.54,81.9153 L1742.6,81.7889 L1742.69,81.6558 L1742.8,81.5159 L1742.94,81.369 L1743.11,81.2151 L1743.31,81.054 L1743.53,80.8851 L1743.98,80.5755 L1744.53,80.236 L1745.13,79.8863 L1746.34,79.2091 L1746.61,79.0423 L1746.75,78.96 L1747.02,78.8102 L1747.46,78.6091 L1748.08,78.3563 L1748.88,78.0503 L1750.69,77.3977 L1754.77,75.964 L1755.02,75.862 L1755.27,75.7316 L1755.53,75.5713 L1755.81,75.3776 L1756.32,74.9837 L1757.09,74.3427 L1757.58,73.9357 L1757.93,73.6674 L1758.25,73.4393 L1758.57,73.2381 L1758.88,73.0674 L1759.18,72.9251 L1759.48,72.8101 L1759.82,72.6804 L1760.07,72.5849 L1760.88,72.2408 L1764.42,70.6461 L1765.81,70.042 L1766.44,69.7902 L1766.96,69.6041 L1767.37,69.4809 L1767.67,69.4198 L1768,69.389 L1768.36,69.3712 L1768.75,69.3667 L1769.15,69.3757 L1769.56,69.3979 L1769.97,69.4328 L1770.37,69.4801 L1770.76,69.5394 L1771.01,69.5848 L1771.14,69.6083 L1771.5,69.6877 L1771.85,69.7773 L1772.19,69.8767 L1772.5,69.9855 L1772.8,70.1035 L1773.08,70.2303 L1773.35,70.3659 L1773.74,70.5577 L1774.15,70.7152 L1774.58,70.8401 L1775.04,70.9349 L1775.45,70.9908 L1775.69,71.0129 L1775.9,71.032 L1777.31,71.0999 L1777.78,71.1314 L1778.19,71.175 L1778.56,71.2332 L1779.75,71.4552 L1780.31,71.5607 L1781.86,71.8649 L1782.2,71.9363 L1783.1,72.1252 L1784.01,72.3371 L1784.28,72.4315 L1784.63,72.5956 L1785.04,72.826 L1785.5,73.117 L1785.54,73.1429 L1786,73.4618 L1786.53,73.8489 L1787.07,74.2661 L1787.61,74.7011 L1788.1,75.1248 L1788.56,75.5443 L1788.98,75.9514 L1789.36,76.34 L1789.68,76.7034 L1789.95,77.0396 L1790.16,77.3457 L1790.32,77.6197 L1790.43,77.8768 L1790.54,78.202 L1790.66,78.5945 L1790.79,79.0529 L1790.92,79.5765 L1791.05,80.162 L1791.19,80.8058 L1791.33,81.5024 L1791.48,82.3091 L1791.63,83.1556 L1791.77,84.0238 L1791.9,84.8847 L1792.02,85.7181 L1792.11,86.4589 L1792.18,87.0585 L1792.21,87.4751 L1792.23,87.684 L1792.27,87.9039 L1792.33,88.1344 L1792.41,88.3754 L1792.51,88.6266 L1792.63,88.8877 L1792.77,89.1582 L1792.93,89.4375 L1793.11,89.7275 L1793.2,89.8678 L1793.31,90.0251 L1793.52,90.3292 L1793.76,90.6385 L1794.01,90.9523 L1794.28,91.2674 L1794.84,91.8903 L1795.45,92.4963 L1796.36,93.3702 L1800.11,96.8702 L1800.26,97.0075 L1801.09,97.8034 L1803.03,99.7197 L1804.47,101.119 L1805.81,102.405 L1806.43,102.978 L1807,103.503 L1808.04,104.427 L1808.9,105.153 L1809.16,105.362 L1809.26,105.441 L1809.58,105.678 L1809.64,105.716 L1809.86,105.866 L1810.09,106.003 L1810.45,106.182 L1810.84,106.36 L1811.27,106.537 L1811.75,106.718 L1812.71,107.048 L1815.07,107.798 L1815.67,108.012 L1816.17,108.21 L1816.63,108.428 L1817.1,108.695 L1817.57,109.01 L1818.06,109.378 L1818.2,109.486 L1818.55,109.78 L1819.07,110.246 L1819.62,110.761 L1820.47,111.6 L1820.61,111.755 L1820.75,111.952 L1820.87,112.13 L1820.9,112.189 L1821.06,112.468 L1821.22,112.789 L1821.39,113.152 L1821.57,113.558 L1821.75,114.008 L1822.07,114.863 L1822.27,115.428 L1822.42,115.865 L1822.79,116.959 L1823.54,119.291 L1823.71,119.807 L1823.85,120.193 L1823.98,120.517 L1824.15,120.878 L1824.34,121.276 L1824.57,121.706 L1824.82,122.165 L1825.1,122.646 L1825.71,123.648 L1826.38,124.658 L1826.71,125.138 L1827.03,125.591 L1827.34,126.006 L1827.64,126.378 L1827.73,126.49 L1827.91,126.702 L1828.15,126.973 L1828.52,127.344 L1828.94,127.734 L1829.42,128.142 L1829.95,128.568 L1830.54,129.01 L1831.18,129.468 L1831.86,129.94 L1832.62,130.442 L1832.94,130.641 L1833.37,130.884 L1834.51,131.502 L1836,132.269 L1838.18,133.359 L1838.54,133.556 L1839.03,133.85 L1839.06,133.868 L1842.25,135.884 L1843.13,136.419 L1843.89,136.871 L1844.64,137.299 L1845.3,137.643 L1845.86,137.906 L1846.32,138.089 L1846.82,138.277 L1847.35,138.507 L1847.91,138.78 L1848.51,139.097 L1849.08,139.424 L1849.7,139.794 L1851.6,141.006 L1851.75,141.122 L1851.94,141.293 L1852.14,141.519 L1852.36,141.797 L1852.6,142.124 L1852.85,142.496 L1853.11,142.907 L1853.37,143.347 L1853.64,143.82 L1853.9,144.302 L1854.15,144.779 L1854.37,145.238 L1854.56,145.666 L1854.72,146.054 L1854.84,146.394 L1854.92,146.682 L1855.53,149.209 L1856.12,151.734 L1856.55,153.599 L1856.81,154.801 L1856.86,155.026 L1856.93,155.267 L1857.1,155.798 L1857.33,156.394 L1857.62,157.052 L1857.96,157.771 L1858.35,158.546 L1858.79,159.369 L1859.28,160.24 L1859.44,160.541 L1859.63,160.94 L1859.85,161.418 L1860.08,161.953 L1860.54,163.09 L1860.57,163.165 L1860.76,163.66 L1860.96,164.212 L1861.29,165.172 L1861.42,165.604 L1861.53,165.999 L1861.62,166.355 L1861.68,166.671 L1861.71,166.884 L1861.72,166.945 L1861.74,167.177 L1861.76,167.513 L1861.8,167.891 L1861.86,168.301 L1861.93,168.733 L1862.02,169.175 L1862.11,169.618 L1862.22,170.055 L1862.33,170.476 L1862.45,170.864 L1862.57,171.229 L1862.7,171.566 L1862.83,171.873 L1862.95,172.149 L1863.09,172.392 L1863.22,172.6 L1863.35,172.774 L1864.85,174.628 L1865.69,175.642 L1866.54,176.632 L1867.29,177.467 L1867.96,178.179 L1868.26,178.472 L1868.54,178.725 L1868.78,178.935 L1869.01,179.104 L1869.2,179.231 L1869.37,179.316 L1869.98,179.587 L1870.8,179.967 L1873.74,181.387 L1873.94,181.483 L1874.53,181.76 L1874.74,181.883 L1874.97,182.062 L1875.21,182.301 L1875.48,182.603 L1875.72,182.909 L1876,183.278 L1876.6,184.141 L1877.23,185.039 L1877.55,185.474 L1877.84,185.858 L1878.17,186.272 L1878.49,186.644 L1878.81,186.978 L1879.11,187.277 L1879.57,187.694 L1880.14,188.187 L1882.19,189.898 L1882.95,190.546 L1883.55,191.074 L1883.6,191.117 L1884.17,191.635 L1884.83,192.274 L1885.39,192.859 L1885.63,193.134 L1885.71,193.224 L1885.85,193.399 L1886.05,193.654 L1886.22,193.899 L1886.43,194.191 L1886.67,194.518 L1887.28,195.271 L1888.04,196.151 L1888.94,197.146 L1890.03,198.305 L1891.21,199.513 L1892.38,200.675 L1892.86,201.142 L1893.21,201.465 L1893.47,201.714 L1893.82,202.091 L1894.25,202.583 L1894.74,203.169 L1895.28,203.82 L1895.83,204.513 L1896.38,205.223 L1896.92,205.929 L1897.85,207.186 L1898.26,207.765 L1898.63,208.304 L1898.95,208.796 L1899.22,209.241 L1899.45,209.635 L1899.63,209.978 L1899.78,210.281 L1899.91,210.614 L1900.05,210.976 L1900.18,211.368 L1900.31,211.79 L1900.44,212.242 L1900.56,212.724 L1900.69,213.237 L1900.92,214.319 L1901.01,214.798 L1901.14,215.534 L1901.33,216.66 L1901.36,216.845 L1901.64,218.727 L1901.69,219.024 L1901.77,219.33 L1901.86,219.646 L1901.97,219.97 L1902.1,220.304 L1902.25,220.646 L1902.42,220.997 L1902.6,221.356 L1902.81,221.719 L1903.03,222.091 L1903.27,222.47 L1903.53,222.858 L1903.55,222.891 L1904.09,223.648 L1904.79,224.559 L1904.9,224.681 L1905.01,224.798 L1905.07,224.849 L1905.13,224.91 L1905.27,225.017 L1905.57,225.218 L1905.93,225.405 L1906.26,225.549 L1906.64,225.691 L1907.29,225.9 L1907.98,226.121 L1908.46,226.293 L1908.81,226.442 L1909.23,226.646 L1909.72,226.903 L1910.21,227.178 L1910.28,227.215 L1911.53,227.947 L1911.6,227.986 L1913.33,229.051 L1913.49,229.158 L1913.65,229.289 L1913.82,229.445 L1913.99,229.626 L1914.17,229.832 L1914.35,230.062 L1914.73,230.594 L1915.14,231.227 L1915.56,231.946 L1915.98,232.74 L1916.37,233.544 L1916.49,233.831 L1916.62,234.173 L1916.74,234.577 L1916.88,235.053 L1917.08,235.855 L1917.6,238.069 L1917.86,239.14 L1917.94,239.388 L1917.98,239.546 L1918.13,239.965 L1918.31,240.391 L1918.52,240.822 L1918.75,241.253 L1919.01,241.678 L1919.29,242.093 L1919.58,242.493 L1919.89,242.872 L1920.08,243.086 L1920.2,243.226 L1920.52,243.552 L1920.84,243.846 L1921.17,244.106 L1921.49,244.328 L1921.8,244.512 L1922.11,244.657 L1922.69,244.883 L1923.41,245.14 L1924.27,245.424 L1925.25,245.73 L1926.32,246.051 L1926.35,246.06 L1927.49,246.387 L1928.6,246.692 L1929.56,246.942 L1930.62,247.218 L1931.55,247.484 L1932.4,247.754 L1933.17,248.029 L1933.88,248.315 L1934.51,248.61 L1935.08,248.914 L1935.34,249.07 L1935.58,249.228 L1935.82,249.405 L1936.05,249.605 L1936.27,249.829 L1936.49,250.076 L1936.71,250.347 L1936.92,250.642 L1937.12,250.961 L1937.32,251.306 L1937.51,251.67 L1937.7,252.062 L1937.89,252.481 L1938.08,252.931 L1938.26,253.41 L1938.45,253.93 L1938.64,254.497 L1938.84,255.138 L1939.05,255.854 L1939.29,256.752 L1939.53,257.713 L1940.13,260.262 L1940.46,261.548 L1940.63,262.153 L1940.79,262.646 L1940.94,263.039 L1941.08,263.334 L1941.22,263.57 L1941.43,263.861 L1941.7,264.204 L1942.02,264.595 L1942.4,265.029 L1942.82,265.497 L1943.75,266.486 L1944.73,267.465 L1945.19,267.908 L1945.62,268.303 L1946,268.639 L1946.33,268.911 L1946.6,269.114 L1946.81,269.245 L1947.82,269.753 L1948.94,270.274 L1949.99,270.727 L1950.97,271.104 L1951.82,271.393 L1952.21,271.507 L1952.57,271.6 L1952.91,271.673 L1953.22,271.725 L1953.5,271.756 L1953.75,271.767 L1953.98,271.755 L1954.24,271.721 L1954.53,271.663 L1954.85,271.582 L1955.19,271.478 L1955.56,271.351 L1955.95,271.201 L1956.07,271.153 L1956.38,271.027 L1957.21,270.654 L1958.16,270.198 L1959.11,269.712 L1960.85,268.799 L1961.37,268.536 L1962.07,268.23 L1963.17,267.788 L1964.61,267.231 L1966.24,266.62 L1966.27,266.609 L1966.88,266.385 L1967.99,265.979 L1969.55,265.424 L1970.77,265.006 L1971.58,264.753 L1972.03,264.637 L1972.64,264.505 L1973.03,264.427 L1973.39,264.357 L1974.3,264.191 L1976.25,263.862 L1979.35,263.365 L1980.52,263.177 L1980.85,263.129 L1981,263.113 L1981.27,263.084 L1982.37,263.004 L1983.78,262.938 L1985.42,262.891 L1987.25,262.865 L1989.02,262.865 L1990.51,262.891 L1991.58,262.94 L1991.87,262.973 L1992.16,263.031 L1992.46,263.113 L1992.77,263.22 L1993.09,263.353 L1993.42,263.51 L1993.77,263.694 L1994.12,263.904 L1994.45,264.118 L1994.8,264.357 L1995.55,264.914 L1996.24,265.464 L1997.95,266.881 L1998.26,267.143 L1998.57,267.435 L1998.88,267.755 L1999.19,268.101 L1999.49,268.471 L1999.79,268.862 L2000.07,269.271 L2000.35,269.694 L2000.61,270.129 L2000.86,270.57 L2001.08,271.013 L2001.28,271.454 L2001.46,271.887 L2001.62,272.309 L2001.75,272.717 L2001.84,273.107 L2002.02,273.97 L2002.21,275.077 L2002.41,276.367 L2002.61,277.741 L2002.78,279.082 L2002.91,280.3 L2003,281.317 L2003.05,282.09 L2003.07,282.465 L2003.12,282.893 L2003.19,283.379 L2003.28,283.929 L2003.48,284.869 L2003.52,285.074 L2004.02,287.314 L2004.21,288.185 L2004.37,289.035 L2004.48,289.734 L2004.57,290.477 L2004.62,291.019 L2004.63,291.443 L2004.63,291.625 L2004.61,291.795 L2004.56,292.094 L2004.47,292.399 L2004.35,292.733 L2004.08,293.359 L2004,293.565 L2003.94,293.776 L2003.89,293.993 L2003.86,294.217 L2003.85,294.447 L2003.85,294.685 L2003.86,294.932 L2003.9,295.187 L2003.94,295.446 L2004.01,295.716 L2004.09,295.999 L2004.18,296.298 L2004.29,296.611 L2004.42,296.95 L2004.77,297.772 L2005.31,298.977 L2005.8,300.025 L2005.96,300.335 L2006.28,300.966 L2006.73,301.792 L2006.95,302.162 L2007.17,302.503 L2007.38,302.815 L2007.58,303.096 L2007.77,303.347 L2007.96,303.568 L2008.15,303.758 L2008.32,303.919 L2010.16,305.453 L2010.76,305.974 L2011.26,306.426 L2011.27,306.438 L2011.73,306.883 L2012.11,307.279 L2012.4,307.631 L2012.62,307.937 L2012.78,308.212 L2012.95,308.544 L2013.11,308.893 L2013.13,308.923 L2013.3,309.337 L2013.47,309.773 L2013.64,310.224 L2013.79,310.682 L2013.93,311.14 L2014.05,311.577 L2014.16,312.004 L2014.22,312.314 L2014.25,312.42 L2014.32,312.82 L2014.38,313.204 L2014.42,313.569 L2014.45,313.916 L2014.46,314.241 L2014.44,314.716 L2014.39,315.196 L2014.31,315.686 L2014.2,316.194 L2014.09,316.579 L2013.96,316.989 L2013.8,317.464 L2013.35,318.731 L2013.23,319.11 L2013.14,319.442 L2013.07,319.644 L2012.97,319.871 L2012.82,320.124 L2012.63,320.401 L2012.56,320.498 L2012.41,320.703 L2012.31,320.826 L2012.14,321.028 L2011.84,321.373 L2011.51,321.738 L2011.11,322.147 L2010.68,322.569 L2010.23,322.997 L2009.76,323.42 L2009.29,323.834 L2008.98,324.092 L2008.84,324.206 L2008.45,324.51 L2008.15,324.721 L2007.99,324.844 L2007.81,325.013 L2007.62,325.228 L2007.41,325.487 L2007.18,325.789 L2006.95,326.128 L2006.71,326.501 L2006.48,326.9 L2006.23,327.332 L2005.99,327.773 L2005.77,328.209 L2005.58,328.628 L2005.41,329.018 L2005.27,329.369 L2005.17,329.672 L2005.11,329.922 L2005.09,330.08 L2005.08,330.274 L2005.08,330.505 L2005.09,330.774 L2005.15,331.426 L2005.17,331.559 L2005.25,332.238 L2005.37,333.011 L2005.52,333.922 L2006.12,337.331 L2006.32,338.51 L2006.49,339.591 L2007.06,342.914 L2007.21,343.912 L2007.35,344.801 L2007.48,345.775 L2007.58,346.647 L2007.65,347.428 L2007.69,348.123 L2007.71,349.073 L2007.71,350.281 L2007.68,351.717 L2007.63,353.313 L2007.55,355.06 L2007.46,356.656 L2007.37,357.868 L2007.33,358.272 L2007.29,358.523 L2007.23,358.742 L2007.13,359.021 L2006.98,359.351 L2006.81,359.718 L2006.6,360.107 L2006.38,360.507 L2006.14,360.906 L2005.89,361.295 L2005.65,361.647 L2005.41,361.979 L2005.18,362.288 L2004.94,362.57 L2004.72,362.825 L2004.5,363.05 L2004.28,363.244 L2004.08,363.408 L2003.67,363.703 L2003.06,364.143 L2001.79,365.012 L2000.55,365.837 L1999.39,366.578 L1998.39,367.182 L1997.52,367.673 L1996.8,368.044 L1996.5,368.184 L1996.23,368.293 L1995.6,368.553 L1994.88,368.895 L1994.09,369.314 L1993.22,369.806 L1992.29,370.369 L1991.34,370.98 L1990.39,371.614 L1989.52,372.233 L1989.09,372.576 L1988.59,373.019 L1988.03,373.566 L1987.4,374.225 L1986.82,374.86 L1986.15,375.604 L1983.5,378.636 L1983.01,379.185 L1982.58,379.638 L1982.29,379.958 L1981.98,380.31 L1981.67,380.696 L1981.33,381.122 L1980.71,381.958 L1979.35,383.847 L1979.02,384.289 L1978.73,384.659 L1978.41,385.039 L1978.11,385.349 L1977.85,385.596 L1977.6,385.784 L1977.45,385.894 L1977.27,386.044 L1977.07,386.232 L1976.85,386.459 L1976.34,387.031 L1975.72,387.765 L1975.18,388.436 L1974.57,389.218 L1973.78,390.255 L1971.94,392.694 L1971.52,393.241 L1971.23,393.583 L1971.07,393.78 L1970.91,394.001 L1970.75,394.246 L1970.6,394.512 L1970.45,394.799 L1970.31,395.103 L1970.17,395.422 L1970.05,395.752 L1969.93,396.094 L1969.82,396.439 L1969.79,396.574 L1969.73,396.782 L1969.65,397.119 L1969.59,397.444 L1969.55,397.754 L1969.52,398.044 L1969.51,398.31 L1969.5,398.559 L1969.48,398.888 L1969.36,399.798 L1969.17,401.101 L1968.7,403.967 L1968.56,404.866 L1968.53,405.04 L1968.41,405.964 L1968.38,406.279 L1968.37,406.503 L1968.37,406.592 L1968.35,407.853 L1968.27,412.661 L1968.25,414.145 L1968.24,414.709 L1968.21,415.347 L1968.16,416.031 L1968.1,416.727 L1968.02,417.4 L1967.93,418.023 L1967.83,418.572 L1967.74,419.029 L1967.61,419.461 L1967.4,420.037 L1967.38,420.1 L1967.11,420.769 L1966.39,422.521 L1966.08,423.289 L1965.81,424.033 L1965.61,424.622 L1965.54,424.894 L1965.48,425.19 L1965.42,425.514 L1965.37,425.87 L1965.3,426.556 L1965.19,428.012 L1965.13,428.568 L1965.08,428.812 L1965.04,429.021 L1964.99,429.199 L1964.93,429.349 L1964.79,429.63 L1964.58,430.025 L1963.53,431.896 L1963.07,432.734 L1962.7,433.459 L1962.57,433.75 L1962.46,433.997 L1962.35,434.331 L1962.26,434.712 L1962.18,435.141 L1962.13,435.619 L1962.1,435.93 L1962.09,436.125 L1962.07,436.691 L1962.06,437.291 L1962.06,438.25 L1962.06,439.042 L1962.05,439.518 L1962.02,439.966 L1961.98,440.377 L1961.92,440.693 L1961.91,440.79 L1961.81,441.187 L1961.69,441.573 L1961.54,441.953 L1961.26,442.579 L1960.85,443.457 L1960.06,445.105 L1959.77,445.691 L1959.39,446.459 L1958.67,447.889 L1958.2,448.794 L1957.82,449.515 L1957.62,449.89 L1957.43,450.274 L1957.24,450.664 L1957.07,451.06 L1956.9,451.458 L1956.74,451.858 L1956.6,452.259 L1956.46,452.658 L1956.34,453.054 L1956.22,453.446 L1956.12,453.833 L1956.04,454.214 L1955.96,454.588 L1955.9,454.954 L1955.88,455.054 L1955.85,455.311 L1955.81,455.659 L1955.75,456.474 L1955.69,457.47 L1955.63,458.587 L1955.58,459.738 L1955.54,460.82 L1955.52,461.768 L1955.51,462.526 L1955.53,463.064 L1955.54,463.229 L1955.59,463.435 L1955.66,463.683 L1955.75,463.971 L1956.01,464.672 L1956.37,465.544 L1956.76,466.433 L1957.23,467.474 L1958.13,469.386 L1958.82,470.829 L1959.19,471.649 L1959.59,472.512 L1960.17,473.755 L1961.67,476.909 L1963.05,479.745 L1963.26,480.158 L1963.55,480.754 L1963.9,481.416 L1964.23,482.075 L1964.39,482.385 L1965.07,483.785 L1965.62,484.941 L1965.81,485.345 L1966.52,486.885 L1967.02,487.995 L1967.11,488.206 L1967.6,489.354 L1967.98,490.298 L1968.25,491.026 L1968.43,491.584 L1968.6,492.203 L1968.78,492.89 L1968.95,493.658 L1969.24,495.054 L1969.6,496.954 L1969.79,497.942 L1970.03,499.138 L1970.2,500.054 L1970.39,501.263 L1970.57,502.553 L1971.05,506.091 L1971.2,507.075 L1971.33,507.918 L1971.47,508.756 L1971.6,509.469 L1971.74,510.069 L1971.86,510.558 L1972.02,511.052 L1972.2,511.597 L1972.41,512.186 L1972.65,512.807 L1972.91,513.451 L1973.19,514.107 L1973.48,514.764 L1973.78,515.413 L1974.08,516.034 L1974.38,516.631 L1974.67,517.199 L1974.97,517.732 L1975.25,518.228 L1975.53,518.682 L1975.79,519.093 L1976.05,519.458 L1976.25,519.761 L1976.45,520.088 L1976.63,520.441 L1976.8,520.817 L1976.96,521.218 L1977.11,521.643 L1977.25,522.092 L1977.38,522.563 L1977.49,523.059 L1977.59,523.577 L1977.64,523.851 L1977.68,524.117 L1977.76,524.677 L1977.82,525.257 L1977.88,525.855 L1977.91,526.469 L1977.94,527.098 L1977.96,528.155 L1977.97,528.568 L1978.02,531.993 L1978.05,533.241 L1978.08,533.522 L1978.13,533.821 L1978.2,534.136 L1978.3,534.465 L1978.43,534.807 L1978.58,535.16 L1978.75,535.521 L1978.95,535.889 L1979.17,536.264 L1979.41,536.64 L1979.66,537.011 L1979.93,537.375 L1980.21,537.727 L1980.5,538.064 L1980.8,538.381 L1981.09,538.675 L1981.31,538.891 L1981.52,539.127 L1981.72,539.38 L1981.91,539.652 L1982.1,539.94 L1982.28,540.244 L1982.45,540.562 L1982.47,540.599 L1982.61,540.892 L1982.76,541.244 L1982.9,541.603 L1983.02,541.964 L1983.13,542.321 L1983.21,542.67 L1983.28,542.999 L1983.32,543.299 L1983.33,543.557 L1983.33,544.814 L1983.33,545.437 L1983.34,546.885 L1983.36,547.892 L1983.39,548.44 L1983.41,548.544 L1983.45,548.671 L1983.53,548.821 L1983.62,548.993 L1983.89,549.4 L1984.24,549.88 L1984.7,550.438 L1985.19,551.006 L1985.68,551.52 L1986.08,551.905 L1986.2,551.995 L1986.35,552.079 L1986.53,552.157 L1986.74,552.229 L1986.98,552.295 L1987.24,552.354 L1987.87,552.454 L1988.6,552.529 L1989.44,552.58 L1990.4,552.607 L1991.58,552.614 L1991.95,552.607 L1992.39,552.584 L1993.46,552.496 L1994.56,552.379 L1997.26,552.063 L1997.46,552.037 L1997.68,551.993 L1997.93,551.93 L1998.19,551.848 L1998.68,551.672 L1999.94,551.183 L2000.58,550.96 L2000.9,550.85 L2001.31,550.688 L2003.52,549.76 L2004.04,549.558 L2004.51,549.391 L2005.07,549.215 L2005.56,549.091 L2006,549.016 L2006.37,548.991 L2006.82,549 L2007.33,549.026 L2008.51,549.125 L2008.58,549.131 L2010.03,549.291 L2012.68,549.621 L2012.96,549.667 L2013.26,549.739 L2013.58,549.837 L2013.93,549.961 L2014.3,550.11 L2014.69,550.285 L2015.09,550.485 L2015.52,550.709 L2015.97,550.966 L2016.44,551.245 L2016.92,551.544 L2017.39,551.857 L2017.87,552.183 L2018.31,552.507 L2018.71,552.815 L2019.04,553.086 L2019.25,553.253 L2019.38,553.354 L2019.51,553.445 L2020.18,553.898 L2021.04,554.428 L2022.03,554.999 L2023.09,555.578 L2024.11,556.099 L2024.97,556.512 L2025.33,556.669 L2025.63,556.788 L2025.92,556.886 L2026.24,556.983 L2027,557.172 L2027.87,557.349 L2028.82,557.506 L2029.81,557.636 L2030.79,557.732 L2031.72,557.791 L2032.57,557.811 L2033.6,557.831 L2034.06,557.856 L2034.49,557.891 L2035.17,557.974 L2036.64,558.205 L2037.13,558.279 L2037.83,558.401 L2041.4,559.075 L2042.32,559.229 L2042.49,559.262 L2042.76,559.332 L2043.56,559.576 L2044.64,559.938 L2045.84,560.366 L2046.95,560.781 L2047.9,561.153 L2048.43,561.384 L2048.6,561.454 L2048.84,561.573 L2049.02,561.67 L2049.35,561.836 L2049.9,562.08 L2053.41,563.515 L2054.33,563.905 L2055.1,564.249 L2055.82,564.59 L2056.39,564.889 L2056.82,565.149 L2056.98,565.265 L2057.11,565.371 L2057.68,565.923 L2058.48,566.728 L2058.73,566.983 L2060.38,568.662 L2061.2,569.511 L2061.87,570.224 L2062.36,570.765 L2062.67,571.12 L2062.81,571.282 L2063.01,571.472 L2063.27,571.688 L2063.58,571.93 L2064.34,572.479 L2065.27,573.097 L2066.03,573.567 L2066.33,573.757 L2067.46,574.419 L2068.58,575.047 L2069.66,575.609 L2070.62,576.111 L2071.66,576.689 L2072.64,577.263 L2074.53,578.392 L2075.2,578.775 L2075.79,579.092 L2076.25,579.31 L2076.71,579.482 L2077.31,579.674 L2078.05,579.882 L2078.91,580.104 L2079.9,580.341 L2080.95,580.575 L2081.99,580.79 L2082.9,580.963 L2083.52,581.09 L2084.28,581.273 L2085.18,581.509 L2086.17,581.793 L2087.25,582.121 L2088.33,582.465 L2089.32,582.799 L2090.12,583.09 L2090.36,583.187 L2090.63,583.312 L2091.27,583.643 L2092.03,584.079 L2092.91,584.618 L2093.92,585.273 L2095.02,586.009 L2096.14,586.794 L2097.12,587.499 L2097.81,588.01 L2100.49,590.005 L2102.45,591.437 L2102.74,591.671 L2103.11,592.007 L2104.57,593.463 L2105.25,594.115 L2105.84,594.647 L2106.35,595.079 L2106.4,595.123 L2106.76,595.402 L2107.11,595.663 L2107.46,595.907 L2107.8,596.133 L2108.14,596.342 L2108.48,596.535 L2108.82,596.71 L2109.16,596.87 L2110.13,597.324 L2110.95,597.737 L2111.63,598.122 L2111.91,598.297 L2111.93,598.307 L2112.2,598.491 L2112.44,598.669 L2112.67,598.848 L2112.87,599.032 L2113.07,599.224 L2113.26,599.423 L2113.45,599.64 L2113.64,599.883 L2113.86,600.177 L2114.09,600.512 L2114.34,600.926 L2114.63,601.417 L2114.95,601.987 L2115.28,602.623 L2115.31,602.678 L2115.65,603.334 L2116.49,605.059 L2116.57,605.19 L2116.66,605.311 L2116.76,605.424 L2116.89,605.532 L2117.13,605.697 L2117.72,606.036 L2118,606.217 L2118.3,606.432 L2118.57,606.665 L2118.83,606.927 L2119.07,607.219 L2119.31,607.54 L2119.53,607.894 L2120,608.655 L2120.26,609.047 L2120.74,609.761 L2120.97,610.141 L2121.12,610.432 L2121.27,610.767 L2121.42,611.172 L2121.6,611.673 L2121.7,611.997 L2121.8,612.356 L2121.89,612.747 L2121.99,613.171 L2122.08,613.626 L2122.17,614.108 L2122.33,615.145 L2122.47,616.285 L2122.59,617.432 L2122.63,617.985 L2122.66,618.505 L2122.68,618.978 L2122.68,619.39 L2122.7,620.168 L2122.73,620.92 L2122.79,621.639 L2122.87,622.322 L2122.98,622.968 L2123.11,623.574 L2123.26,624.14 L2123.43,624.665 L2123.59,625.039 L2123.81,625.492 L2124.11,626.027 L2124.48,626.651 L2124.86,627.255 L2125.3,627.95 L2127.08,630.655 L2127.39,631.136 L2127.61,631.515 L2127.82,631.881 L2128.08,632.365 L2128.76,633.699 L2129.59,635.359 L2131.09,638.405 L2131.33,638.904 L2131.86,639.94 L2131.99,640.171 L2132.19,640.464 L2132.45,640.817 L2132.77,641.224 L2133.55,642.173 L2134.45,643.215 L2135.37,644.23 L2136.2,645.095 L2136.56,645.442 L2136.86,645.725 L2137.11,645.939 L2137.3,646.081 L2137.37,646.131 L2137.44,646.187 L2137.57,646.323 L2137.7,646.491 L2137.83,646.69 L2137.95,646.919 L2138.06,647.179 L2138.17,647.471 L2138.28,647.794 L2138.39,648.145 L2138.48,648.528 L2138.58,648.943 L2138.67,649.391 L2138.85,650.391 L2139.02,651.592 L2139.07,651.991 L2139.11,652.44 L2139.15,652.943 L2139.18,653.504 L2139.22,654.741 L2139.29,657.781 L2139.32,658.522 L2139.37,659.072 L2139.39,659.386 L2139.4,659.782 L2139.39,660.254 L2139.36,660.795 L2139.32,661.399 L2139.27,662.05 L2139.2,662.733 L2139.12,663.432 L2139.04,664.125 L2138.94,664.798 L2138.84,665.437 L2138.74,666.028 L2138.64,666.558 L2138.53,667.023 L2138.43,667.415 L2138.33,667.732 L2138.14,668.353 L2138.06,668.634 L2137.92,669.168 L2137.7,670.019 L2137.68,670.118 L2137.19,672.146 L2136.94,673.148 L2136.71,673.952 L2136.5,674.581 L2136.2,675.358 L2135.86,676.178 L2135.5,676.997 L2135.13,677.782 L2134.76,678.498 L2134.41,679.142 L2134.31,679.302 L2134.07,679.702 L2133.75,680.171 L2133.56,680.468 L2133.39,680.788 L2133.25,681.14 L2133.13,681.538 L2133.06,681.856 L2132.98,682.227 L2132.72,683.818 L2132.56,684.631 L2132.37,685.479 L2132.14,686.312 L2131.81,687.482 L2131.55,688.462 L2131.35,689.314 L2131.19,690.075 L2131.08,690.781 L2131,691.457 L2130.95,692.134 L2130.94,692.846 L2130.93,693.083 L2130.92,693.36 L2130.85,694.038 L2130.73,694.881 L2130.6,695.681 L2130.57,695.898 L2130.4,696.884 L2130.18,698.023 L2129.42,701.91 L2129.22,703.001 L2129.11,703.562 L2128.96,704.249 L2128.76,705.062 L2128.62,705.613 L2128.51,706.007 L2128,707.907 L2127.03,711.329 L2126.81,712.133 L2126.77,712.322 L2126.75,712.544 L2126.74,712.797 L2126.74,713.083 L2126.76,713.399 L2126.79,713.746 L2126.84,714.122 L2126.89,714.527 L2126.97,714.977 L2127.06,715.452 L2127.27,716.466 L2127.53,717.531 L2127.67,718.025 L2077.83,761.871" fill-rule="evenodd"/>
  </g>
  <g font-size="34.5833" font-style="normal" fill="none" stroke="#000000" transform="matrix(0.999744,0,0,0.999744,0,0)" font-family="MS Shell Dlg 2" stroke-opacity="1" stroke-width="1" stroke-linecap="square" font-weight="400" stroke-linejoin="bevel"/>
  <g font-size="34.5833" font-style="normal" fill="none" stroke="#000000" transform="matrix(11.808,0,0,11.808,0,0)" font-family="MS Shell Dlg 2" stroke-opacity="1" stroke-width="1" stroke-linecap="square" font-weight="400" stroke-linejoin="bevel"/>
  <g font-size="34.5833" font-style="normal" fill="none" stroke="#000000" transform="matrix(11.808,0,0,11.808,0,0)" font-family="MS Shell Dlg 2" stroke-opacity="1" stroke-width="1" stroke-linecap="square" font-weight="400" stroke-linejoin="bevel"/>
  <g font-size="34.5833" font-style="normal" fill="none" stroke="#000000" transform="matrix(11.808,0,0,11.808,0,0)" font-family="MS Shell Dlg 2" stroke-opacity="1" stroke-width="1" stroke-linecap="square" font-weight="400" stroke-linejoin="bevel"/>
  <g font-size="34.5833" font-style="normal" fill="none" stroke="#000000" transform="matrix(1,0,0,1,0,0)" font-family="MS Shell Dlg 2" stroke-opacity="1" stroke-width="1" stroke-linecap="square" font-weight="400" stroke-linejoin="bevel"/>
  <g font-size="34.5833" font-style="normal" fill="none" stroke="#000000" transform="matrix(11.808,0,0,11.808,0,0)" font-family="MS Shell Dlg 2" stroke-opacity="1" stroke-width="1" stroke-linecap="square" font-weight="400" stroke-linejoin="bevel"/>
  <g font-size="34.5833" font-style="normal" fill="none" stroke="#000000" transform="matrix(11.808,0,0,11.808,0,0)" font-family="MS Shell Dlg 2" stroke-opacity="1" stroke-width="1" stroke-linecap="square" font-weight="400" stroke-linejoin="bevel"/>
  <g font-size="34.5833" font-style="normal" fill="none" stroke="#000000" transform="matrix(11.808,0,0,11.808,0,0)" font-family="MS Shell Dlg 2" stroke-opacity="1" stroke-width="1" stroke-linecap="square" font-weight="400" stroke-linejoin="bevel"/>
  <g font-size="34.5833" font-style="normal" fill="none" stroke="#000000" transform="matrix(11.808,0,0,11.808,0,0)" font-family="MS Shell Dlg 2" stroke-opacity="1" stroke-width="1" stroke-linecap="square" font-weight="400" stroke-linejoin="bevel"/>
  <g font-size="34.5833" font-style="normal" fill="none" stroke="#000000" transform="matrix(1,0,0,1,0,0)" font-family="MS Shell Dlg 2" stroke-opacity="1" stroke-width="1" stroke-linecap="square" font-weight="400" stroke-linejoin="bevel"/>
 </g>
</svg>
