<?xml version='1.0' encoding='UTF-8' standalone='no'?>
<svg width="249.936mm" version="1.2" viewBox="0 0 2952 2952" baseProfile="tiny" xmlns="http://www.w3.org/2000/svg" height="249.936mm" xmlns:xlink="http://www.w3.org/1999/xlink">
 <title>Qt SVG Document</title>
 <desc>Generated with Qt</desc>
 <defs/>
 <g fill="none" stroke="black" fill-rule="evenodd" stroke-width="1" stroke-linecap="square" stroke-linejoin="bevel">
  <g font-size="34.5833" font-style="normal" fill="none" stroke="#000000" transform="matrix(1,0,0,1,0,0)" font-family="MS Shell Dlg 2" stroke-opacity="1" stroke-width="1" stroke-linecap="square" font-weight="400" stroke-linejoin="bevel"/>
  <g font-size="34.5833" font-style="normal" fill="none" stroke="#000000" transform="matrix(1,0,0,1,0,0)" font-family="MS Shell Dlg 2" stroke-opacity="1" stroke-width="1" stroke-linecap="square" font-weight="400" stroke-linejoin="bevel"/>
  <g font-size="34.5833" font-style="normal" fill="none" stroke="#000000" transform="matrix(11.808,0,0,11.808,0,0)" font-family="MS Shell Dlg 2" stroke-opacity="1" stroke-width="1" stroke-linecap="square" font-weight="400" stroke-linejoin="bevel"/>
  <g font-size="34.5833" font-style="normal" fill="none" stroke="#000000" transform="matrix(0.999744,0,0,0.999744,0,0)" font-family="MS Shell Dlg 2" stroke-opacity="1" stroke-width="1" stroke-linecap="square" font-weight="400" stroke-linejoin="bevel"/>
  <g font-size="34.5833" font-style="normal" fill="#ffffff" stroke="none" transform="matrix(0.999744,0,0,0.999744,0,0)" font-family="MS Shell Dlg 2" fill-opacity="0" font-weight="400">
   <path vector-effect="none" d="M-2,-2 L2955,-2 L2955,2955 L-2,2955 L-2,-2" fill-rule="evenodd"/>
  </g>
  <g font-size="34.5833" font-style="normal" fill="none" stroke="#000000" transform="matrix(0.999744,0,0,0.999744,0,0)" font-family="MS Shell Dlg 2" stroke-opacity="1" stroke-width="1" stroke-linecap="square" font-weight="400" stroke-linejoin="bevel"/>
  <g font-size="34.5833" font-style="normal" fill="none" stroke="#000000" transform="matrix(11.808,0,0,11.808,0,0)" font-family="MS Shell Dlg 2" stroke-opacity="1" stroke-width="1" stroke-linecap="square" font-weight="400" stroke-linejoin="bevel"/>
  <g font-size="34.5833" font-style="normal" fill="none" stroke="#000000" transform="matrix(11.808,0,0,11.808,0,0)" font-family="MS Shell Dlg 2" stroke-opacity="1" stroke-width="1" stroke-linecap="square" font-weight="400" stroke-linejoin="bevel"/>
  <g font-size="34.5833" font-style="normal" fill="none" stroke="#000000" transform="matrix(11.808,0,0,11.808,0,0)" font-family="MS Shell Dlg 2" stroke-opacity="1" stroke-width="1" stroke-linecap="square" font-weight="400" stroke-linejoin="bevel"/>
  <g font-size="34.5833" font-style="normal" fill="none" stroke="#000000" transform="matrix(11.808,0,0,11.808,0,0)" font-family="MS Shell Dlg 2" stroke-opacity="1" stroke-width="1" stroke-linecap="square" font-weight="400" stroke-linejoin="bevel"/>
  <g font-size="34.5833" font-style="normal" fill="none" stroke="#000000" transform="matrix(11.808,0,0,11.808,0,0)" font-family="MS Shell Dlg 2" stroke-opacity="1" stroke-width="1" stroke-linecap="square" font-weight="400" stroke-linejoin="bevel"/>
  <g font-size="34.5833" font-style="normal" fill="#ffffff" stroke="none" transform="matrix(11.808,0,0,11.808,0,0)" font-family="MS Shell Dlg 2" fill-opacity="0" font-weight="400">
   <path vector-effect="none" d="M0,0 L250,0 L250,250 L0,250 L0,0" fill-rule="evenodd"/>
  </g>
  <g font-size="34.5833" font-style="normal" fill="none" stroke="#000000" transform="matrix(11.808,0,0,11.808,0,0)" font-family="MS Shell Dlg 2" stroke-opacity="1" stroke-width="1" stroke-linecap="square" font-weight="400" stroke-linejoin="bevel"/>
  <g font-size="34.5833" font-style="normal" fill="none" stroke="#000000" transform="matrix(11.808,0,0,11.808,0,0)" font-family="MS Shell Dlg 2" stroke-opacity="1" stroke-width="1" stroke-linecap="square" font-weight="400" stroke-linejoin="bevel"/>
  <g font-size="34.5833" font-style="normal" fill="#000000" stroke="none" transform="matrix(0.999744,0,0,0.999744,0,0)" font-family="MS Shell Dlg 2" fill-opacity="0" font-weight="400">
   <rect width="2953" x="0" y="0" height="2953"/>
  </g>
  <g font-size="34.5833" font-style="normal" fill="none" stroke="#000000" transform="matrix(0.999744,0,0,0.999744,0,0)" font-family="MS Shell Dlg 2" stroke-opacity="1" stroke-width="1" stroke-linecap="square" font-weight="400" stroke-linejoin="bevel"/>
  <g font-size="34.5833" font-style="normal" fill="#c5c5c5" stroke="#5c5c5c" transform="matrix(0.999744,0,0,0.999744,0,0)" font-family="MS Shell Dlg 2" fill-opacity="1" stroke-opacity="1" stroke-width="3.07087" stroke-linecap="square" font-weight="400" stroke-linejoin="bevel">
   <path vector-effect="none" d="M2835.35,546.63 L2832.43,555.102 L2831.43,564.509 L2680.96,1093.55 L2577.94,1415.07 L2445.65,1922.35 L2379.65,2131.66 L2325.99,2235.24 L2217.46,2385.85 L2140.16,2469.02 L2043.48,2560.17 L1870.82,2650.54 L1745.61,2708.31 L1740,2779.08 L1636.26,2746.14 L1554.57,2710.35 L1479.49,2662.33 L1459.22,2603.97 L1448.18,2562.94 L1434.77,2534.62 L1357.56,2481.17 L1077.33,2328.16 L1029.11,2249.38 L987.686,2189.46 L892.937,2111.93 L762.576,2013.66 L749.189,1908.28 L725.6,1785.37 L689.693,1744.83 L613.451,1683.61 L563.043,1655.24 L490.08,1630.12 L424.149,1607.24 L304.544,1564.75 L111.687,1494.65 L170.212,1437.52 L237.587,1361.14 L304.461,1280.23 L463.41,1078.07 L532.824,996.107 L583.261,945.844 L624.64,913.107 L673.935,892.158 L737.819,888.909 L823.965,900.99 L879.967,902.131 L930.438,897.741 L970.711,880.318 L1122.19,781.762 L1165.82,710.757 L1206.23,668.03 L1269.87,623.332 L1302.47,602.383 L1336.14,599.116 L1366.39,608.986 L1397.59,653.562 L1423.55,682.289 L1464.96,691.035 L1529.9,686.697 L1605.19,647.184 L1671.15,602.383 L1712.48,567.434 L1777.4,536.866 L1828.99,513.48 L2018.15,427.766 L2415.74,235.198 L2430.41,255.483 L2437.39,265.133 L2508.83,312.88 L2514.38,316.59 L2571.69,303.81 L2578.83,319.113 L2576.37,335.087 L2579.13,339.45 L2590.73,357.715 L2590.88,357.956 L2591.5,358.23 L2603.79,363.673 L2604.16,363.722 L2622.73,366.196 L2622.94,366.026 L2636.26,354.966 L2639.95,351.903 L2649.45,346.032 L2655.85,342.081 L2668.38,334.342 L2673.16,331.388 L2687.06,350.894 L2686.93,356.107 L2679.55,374.603 L2679.18,385.701 L2690.12,391.357 L2692.84,392.763 L2702.43,400.329 L2713.62,402.683 L2752.46,446.032 L2756.96,451.052 L2757.16,451.276 L2790.74,474.647 L2791.35,475.607 L2802.75,493.617 L2813.74,510.963 L2823.31,519.233 L2835.19,529.496 L2835.35,546.63" fill-rule="evenodd"/>
  </g>
  <g font-size="34.5833" font-style="normal" fill="none" stroke="#000000" transform="matrix(0.999744,0,0,0.999744,0,0)" font-family="MS Shell Dlg 2" stroke-opacity="1" stroke-width="1" stroke-linecap="square" font-weight="400" stroke-linejoin="bevel"/>
  <g font-size="34.5833" font-style="normal" fill="none" stroke="#000000" transform="matrix(11.808,0,0,11.808,0,0)" font-family="MS Shell Dlg 2" stroke-opacity="1" stroke-width="1" stroke-linecap="square" font-weight="400" stroke-linejoin="bevel"/>
  <g font-size="34.5833" font-style="normal" fill="none" stroke="#000000" transform="matrix(11.808,0,0,11.808,0,0)" font-family="MS Shell Dlg 2" stroke-opacity="1" stroke-width="1" stroke-linecap="square" font-weight="400" stroke-linejoin="bevel"/>
  <g font-size="34.5833" font-style="normal" fill="none" stroke="#000000" transform="matrix(11.808,0,0,11.808,0,0)" font-family="MS Shell Dlg 2" stroke-opacity="1" stroke-width="1" stroke-linecap="square" font-weight="400" stroke-linejoin="bevel"/>
  <g font-size="34.5833" font-style="normal" fill="none" stroke="#000000" transform="matrix(1,0,0,1,0,0)" font-family="MS Shell Dlg 2" stroke-opacity="1" stroke-width="1" stroke-linecap="square" font-weight="400" stroke-linejoin="bevel"/>
  <g font-size="34.5833" font-style="normal" fill="none" stroke="#000000" transform="matrix(11.808,0,0,11.808,0,0)" font-family="MS Shell Dlg 2" stroke-opacity="1" stroke-width="1" stroke-linecap="square" font-weight="400" stroke-linejoin="bevel"/>
  <g font-size="34.5833" font-style="normal" fill="none" stroke="#000000" transform="matrix(11.808,0,0,11.808,0,0)" font-family="MS Shell Dlg 2" stroke-opacity="1" stroke-width="1" stroke-linecap="square" font-weight="400" stroke-linejoin="bevel"/>
  <g font-size="34.5833" font-style="normal" fill="none" stroke="#000000" transform="matrix(11.808,0,0,11.808,0,0)" font-family="MS Shell Dlg 2" stroke-opacity="1" stroke-width="1" stroke-linecap="square" font-weight="400" stroke-linejoin="bevel"/>
  <g font-size="34.5833" font-style="normal" fill="none" stroke="#000000" transform="matrix(11.808,0,0,11.808,0,0)" font-family="MS Shell Dlg 2" stroke-opacity="1" stroke-width="1" stroke-linecap="square" font-weight="400" stroke-linejoin="bevel"/>
  <g font-size="34.5833" font-style="normal" fill="none" stroke="#000000" transform="matrix(1,0,0,1,0,0)" font-family="MS Shell Dlg 2" stroke-opacity="1" stroke-width="1" stroke-linecap="square" font-weight="400" stroke-linejoin="bevel"/>
 </g>
</svg>
