<?xml version='1.0' encoding='UTF-8' standalone='no'?>
<svg width="249.936mm" version="1.2" viewBox="0 0 2952 2952" baseProfile="tiny" xmlns="http://www.w3.org/2000/svg" height="249.936mm" xmlns:xlink="http://www.w3.org/1999/xlink">
 <title>Qt SVG Document</title>
 <desc>Generated with Qt</desc>
 <defs/>
 <g fill="none" stroke="black" fill-rule="evenodd" stroke-width="1" stroke-linecap="square" stroke-linejoin="bevel">
  <g font-size="34.5833" font-style="normal" fill="none" stroke="#000000" transform="matrix(1,0,0,1,0,0)" font-family="MS Shell Dlg 2" stroke-opacity="1" stroke-width="1" stroke-linecap="square" font-weight="400" stroke-linejoin="bevel"/>
  <g font-size="34.5833" font-style="normal" fill="none" stroke="#000000" transform="matrix(1,0,0,1,0,0)" font-family="MS Shell Dlg 2" stroke-opacity="1" stroke-width="1" stroke-linecap="square" font-weight="400" stroke-linejoin="bevel"/>
  <g font-size="34.5833" font-style="normal" fill="none" stroke="#000000" transform="matrix(11.808,0,0,11.808,0,0)" font-family="MS Shell Dlg 2" stroke-opacity="1" stroke-width="1" stroke-linecap="square" font-weight="400" stroke-linejoin="bevel"/>
  <g font-size="34.5833" font-style="normal" fill="none" stroke="#000000" transform="matrix(0.999744,0,0,0.999744,0,0)" font-family="MS Shell Dlg 2" stroke-opacity="1" stroke-width="1" stroke-linecap="square" font-weight="400" stroke-linejoin="bevel"/>
  <g font-size="34.5833" font-style="normal" fill="#ffffff" stroke="none" transform="matrix(0.999744,0,0,0.999744,0,0)" font-family="MS Shell Dlg 2" fill-opacity="0" font-weight="400">
   <path vector-effect="none" d="M-2,-2 L2955,-2 L2955,2955 L-2,2955 L-2,-2" fill-rule="evenodd"/>
  </g>
  <g font-size="34.5833" font-style="normal" fill="none" stroke="#000000" transform="matrix(0.999744,0,0,0.999744,0,0)" font-family="MS Shell Dlg 2" stroke-opacity="1" stroke-width="1" stroke-linecap="square" font-weight="400" stroke-linejoin="bevel"/>
  <g font-size="34.5833" font-style="normal" fill="none" stroke="#000000" transform="matrix(11.808,0,0,11.808,0,0)" font-family="MS Shell Dlg 2" stroke-opacity="1" stroke-width="1" stroke-linecap="square" font-weight="400" stroke-linejoin="bevel"/>
  <g font-size="34.5833" font-style="normal" fill="none" stroke="#000000" transform="matrix(11.808,0,0,11.808,0,0)" font-family="MS Shell Dlg 2" stroke-opacity="1" stroke-width="1" stroke-linecap="square" font-weight="400" stroke-linejoin="bevel"/>
  <g font-size="34.5833" font-style="normal" fill="none" stroke="#000000" transform="matrix(11.808,0,0,11.808,0,0)" font-family="MS Shell Dlg 2" stroke-opacity="1" stroke-width="1" stroke-linecap="square" font-weight="400" stroke-linejoin="bevel"/>
  <g font-size="34.5833" font-style="normal" fill="none" stroke="#000000" transform="matrix(11.808,0,0,11.808,0,0)" font-family="MS Shell Dlg 2" stroke-opacity="1" stroke-width="1" stroke-linecap="square" font-weight="400" stroke-linejoin="bevel"/>
  <g font-size="34.5833" font-style="normal" fill="none" stroke="#000000" transform="matrix(11.808,0,0,11.808,0,0)" font-family="MS Shell Dlg 2" stroke-opacity="1" stroke-width="1" stroke-linecap="square" font-weight="400" stroke-linejoin="bevel"/>
  <g font-size="34.5833" font-style="normal" fill="#ffffff" stroke="none" transform="matrix(11.808,0,0,11.808,0,0)" font-family="MS Shell Dlg 2" fill-opacity="0" font-weight="400">
   <path vector-effect="none" d="M0,0 L250,0 L250,250 L0,250 L0,0" fill-rule="evenodd"/>
  </g>
  <g font-size="34.5833" font-style="normal" fill="none" stroke="#000000" transform="matrix(11.808,0,0,11.808,0,0)" font-family="MS Shell Dlg 2" stroke-opacity="1" stroke-width="1" stroke-linecap="square" font-weight="400" stroke-linejoin="bevel"/>
  <g font-size="34.5833" font-style="normal" fill="none" stroke="#000000" transform="matrix(11.808,0,0,11.808,0,0)" font-family="MS Shell Dlg 2" stroke-opacity="1" stroke-width="1" stroke-linecap="square" font-weight="400" stroke-linejoin="bevel"/>
  <g font-size="34.5833" font-style="normal" fill="#000000" stroke="none" transform="matrix(0.999744,0,0,0.999744,0,0)" font-family="MS Shell Dlg 2" fill-opacity="0" font-weight="400">
   <rect width="2953" x="0" y="0" height="2953"/>
  </g>
  <g font-size="34.5833" font-style="normal" fill="none" stroke="#000000" transform="matrix(0.999744,0,0,0.999744,0,0)" font-family="MS Shell Dlg 2" stroke-opacity="1" stroke-width="1" stroke-linecap="square" font-weight="400" stroke-linejoin="bevel"/>
  <g font-size="34.5833" font-style="normal" fill="#c5c5c5" stroke="#5c5c5c" transform="matrix(0.999744,0,0,0.999744,0,0)" font-family="MS Shell Dlg 2" fill-opacity="1" stroke-opacity="1" stroke-width="3.07087" stroke-linecap="square" font-weight="400" stroke-linejoin="bevel">
   <path vector-effect="none" d="M2651.05,206.958 L2652.02,211.902 L2652.73,213.854 L2653.74,215.647 L2655.21,217.483 L2656.21,219.075 L2656.34,219.209 L2657.02,219.923 L2657.62,221.653 L2658.01,224.273 L2658.2,226.47 L2657.75,228.284 L2656.31,231.181 L2655.36,232.118 L2654.91,232.571 L2653.48,233.759 L2652.77,234.534 L2652.16,236.465 L2652.49,237.536 L2652.81,239.701 L2652.91,242.014 L2652.73,244.189 L2652.65,245.651 L2652.59,246.714 L2652.18,248.677 L2651.33,251.998 L2649.9,254.746 L2649.27,255.479 L2648.87,255.945 L2646.6,259.213 L2645.56,259.775 L2644.57,261.154 L2643.58,263.34 L2642.57,264.284 L2641.97,265.674 L2642.01,267.51 L2641.82,268.2 L2641.1,269.356 L2640.31,270.162 L2640,271.064 L2639.47,275.669 L2639.63,277.42 L2640.79,282.025 L2641.2,285.717 L2641.52,287.192 L2643.38,291.393 L2645.43,294.619 L2646.59,297.367 L2646.56,299.468 L2644.4,302.502 L2645.25,305.027 L2646.48,307.691 L2648.14,309.183 L2650.62,309.737 L2653.62,309.793 L2656.25,310.359 L2657.37,311.057 L2658.61,311.83 L2661.13,313.627 L2662.26,315.537 L2663.7,319.413 L2664.33,322.483 L2664.06,323.558 L2660.62,326.298 L2660.31,326.627 L2658.17,328.947 L2657.06,330.984 L2656.24,333.089 L2656.14,335.239 L2656.2,337.48 L2657.3,342.03 L2658.06,348.831 L2658.09,352.227 L2658.58,356.143 L2659.19,357.41 L2659.72,359.56 L2661.44,362.786 L2662.64,363.725 L2663.93,364.235 L2665.75,365.208 L2667.08,365.593 L2669.5,366.906 L2670.5,369.475 L2670.66,371.138 L2670.99,372.745 L2672.82,378.286 L2673.11,379.174 L2673.45,384.787 L2673.13,386.858 L2673.5,389.393 L2674.16,395.527 L2674.71,397.067 L2676.03,399.092 L2679.64,408.803 L2680.51,412.9 L2681.04,416.499 L2681.06,416.869 L2681.14,418.378 L2680.83,420.188 L2680.42,421.139 L2679.79,422.259 L2678.18,423.561 L2676.07,424.681 L2674.55,425.768 L2673.67,426.866 L2673.15,427.941 L2672.47,430.951 L2672.31,432.966 L2672.41,436.293 L2672.99,437.968 L2674.27,440.854 L2675.32,443.831 L2677.24,447.701 L2678.97,453.315 L2679.46,454.401 L2680.15,456.212 L2680.57,458.498 L2680.66,459.132 L2680.54,460.784 L2680.19,462.57 L2679.8,464.553 L2679.43,465.662 L2677.55,467.948 L2677.26,468.26 L2675.01,470.744 L2675.14,472.52 L2674.28,473.392 L2672.56,473.799 L2671.37,474.15 L2669.7,474.863 L2667.88,475.95 L2665.49,478.236 L2664.23,479.164 L2662.99,480.296 L2661.84,481.178 L2660.83,482.412 L2659.45,482.661 L2658.19,483.204 L2656.45,483.815 L2653.61,484.517 L2652.29,484.381 L2650.7,484.755 L2649.85,485.513 L2649.37,485.785 L2648.7,485.762 L2646.73,486.215 L2644.81,486.362 L2643.19,486.554 L2639.82,487.109 L2638.07,488.586 L2637.72,488.886 L2634.89,490.323 L2633.84,492.326 L2633.18,492.858 L2631.75,493.164 L2630.56,494.284 L2629.25,494.518 L2626.82,494.782 L2625.97,494.722 L2624.86,494.495 L2624.02,494.522 L2623.47,494.541 L2622.19,494.707 L2620.36,494.737 L2619.21,494.691 L2617.98,494.797 L2616.65,495.054 L2615.41,496.125 L2614.25,498.041 L2611.25,505.466 L2610.3,509.178 L2609.86,512.452 L2609.1,526.147 L2603.18,535.802 L2590.23,562.984 L2567.77,574.744 L2563.38,577.045 L2504.79,607.731 L2479.74,620.778 L2457.7,634.794 L2420.88,658.147 L2406.24,667.385 L2393.38,674.455 L2388.2,676.785 L2374.08,684.437 L2331.86,707.861 L2332.55,717.314 L2332.83,724.731 L2333.81,743.336 L2335.13,774.124 L2335.76,779.54 L2336.21,793.725 L2337.82,805.173 L2338.94,818.988 L2330.98,841.101 L2327.08,846.4 L2326.54,847.622 L2323.01,855.709 L2317.53,869.751 L2313.5,875.609 L2311.29,879.11 L2310.61,880.194 L2305.09,888.945 L2302.15,893.97 L2298.52,899.697 L2296.56,905.132 L2293.3,913.798 L2289.6,919.367 L2285.93,926.012 L2283.02,930.601 L2279.5,936.804 L2277.03,940.917 L2276.91,941.155 L2274.03,946.868 L2272.03,946.854 L2257.89,946.758 L2252.27,961.895 L2244.64,983.768 L2243.68,986.521 L2237.49,1003.28 L2235.85,1007.18 L2233.65,1010.35 L2226.23,1018.58 L2220.48,1025.59 L2203.47,1046.34 L2197.94,1054.59 L2196.86,1056.7 L2196.41,1058.69 L2196.38,1062.87 L2196.13,1064.79 L2196.07,1065.3 L2195.51,1065.83 L2192.92,1068.3 L2191.05,1071.4 L2187.79,1077.6 L2187.21,1079.19 L2186.77,1081.41 L2183.88,1084.74 L2183.08,1086.72 L2182.55,1088.69 L2182.39,1089.84 L2182.56,1093 L2182.16,1093.73 L2182.05,1094.52 L2181.7,1095.41 L2180.23,1098.29 L2180,1099.05 L2179.96,1099.73 L2180.21,1101.72 L2180.71,1103.7 L2180.75,1105.15 L2180.55,1107.06 L2180.07,1109.48 L2180.21,1109.88 L2183.19,1113.65 L2181.94,1117.86 L2181.57,1119.68 L2181.41,1122.67 L2181.36,1126.37 L2181.06,1130.76 L2181.05,1130.94 L2180.84,1132.66 L2180.58,1133.79 L2179.73,1135.58 L2178,1136.99 L2175.62,1138.2 L2153.3,1149.54 L2147.89,1169.85 L2147.18,1172.54 L2144.24,1184.13 L2142.26,1184.92 L2141.08,1185.97 L2139.89,1188.63 L2140.07,1190.42 L2139.97,1192.5 L2139.6,1194.32 L2137.04,1197.46 L2132.85,1201.98 L2117.77,1214.76 L2102.54,1228.07 L2100.94,1229.03 L2095.51,1231.04 L2088.52,1233.62 L2087.12,1234.31 L2085.85,1235.39 L2084.56,1236.8 L2083.55,1238.12 L2082.93,1239.36 L2081.93,1242.15 L2079.58,1246.38 L2076.92,1250.95 L2070.22,1259.51 L2068.11,1262.79 L2067.67,1269.61 L2067.55,1271.48 L2067.21,1276.02 L2066.05,1293.05 L2065.93,1294.81 L2065.36,1303.19 L2064.98,1308.71 L2064.83,1311.02 L2064.49,1316.02 L2064.44,1316.69 L2060.21,1334.59 L2058.12,1338.27 L2051.28,1341.16 L2051.26,1341.17 L2046.24,1342.96 L2043.17,1343.86 L2040.91,1345.32 L2039.46,1346.68 L2038.45,1347.88 L2038.2,1348.18 L2036.3,1350.02 L2034.45,1351.53 L2031.89,1353.14 L2029.69,1354.01 L2026.59,1354.94 L2023.76,1355.62 L2020.41,1356.57 L2018.12,1357.4 L2014.34,1359.21 L2013.88,1359.26 L2011.7,1360.35 L2010.36,1360.91 L2008.73,1361.39 L2006.13,1361.54 L2001.13,1361.43 L2000.05,1361.67 L1998.08,1362.39 L1996.11,1362.82 L1994.74,1363.45 L1991.61,1364.45 L1989.88,1365.09 L1989.34,1365.34 L1988.18,1365.88 L1987.43,1366.3 L1985.59,1367.84 L1982.94,1369.8 L1981.33,1371.33 L1980.84,1371.65 L1980.66,1371.76 L1979.71,1372.22 L1975.3,1373.86 L1972.38,1374.15 L1970.36,1374.23 L1969.05,1374.41 L1967.88,1374.61 L1965.58,1375.29 L1962.44,1376.57 L1961.36,1377.09 L1958,1378.71 L1955.34,1379.84 L1955.62,1381.2 L1956.35,1384.77 L1956.36,1387.82 L1956.28,1388.75 L1956.21,1389.54 L1956.71,1392.37 L1956.94,1394.97 L1956.94,1397.33 L1956.78,1398.46 L1956.27,1400.01 L1955.27,1402.31 L1953.66,1405.5 L1950.56,1409.39 L1944.78,1412.68 L1939.26,1414.89 L1935.59,1415.81 L1933.59,1416.62 L1932.12,1418.34 L1932.01,1418.66 L1931.84,1419.09 L1931.42,1422.03 L1929.87,1424.06 L1929.14,1425.6 L1927.5,1427.87 L1926.54,1429.49 L1925.13,1433.72 L1922.68,1436.73 L1922.6,1438.06 L1922.21,1440.88 L1921.81,1445.44 L1921.38,1449.71 L1920.96,1457.29 L1920.45,1471.75 L1920.23,1479.73 L1920.22,1487.16 L1920.43,1498.84 L1919.84,1499.13 L1917.36,1500.34 L1915.96,1501.02 L1912.46,1502.22 L1909.2,1503.69 L1908.09,1504.05 L1906.89,1504.11 L1905.92,1504 L1904.73,1502.81 L1902.2,1501.65 L1899.29,1500.5 L1895.72,1499.44 L1894.65,1498.87 L1894.52,1498.8 L1893.28,1497.56 L1890.49,1494.02 L1888.89,1492.23 L1887.12,1493.57 L1886.98,1493.89 L1886.58,1495.32 L1886.1,1495.73 L1885.64,1496.32 L1885.52,1496.59 L1885.54,1497.68 L1885.65,1498.05 L1885.61,1498.51 L1885.27,1499.21 L1884.2,1500.17 L1883.74,1500.95 L1883.7,1501.44 L1883.98,1502 L1884.07,1502.77 L1884.01,1503.64 L1883.73,1504.51 L1883.17,1505.01 L1882.96,1505.58 L1882.59,1505.96 L1882.55,1506.33 L1882.55,1507.18 L1882.39,1507.86 L1882.42,1508.76 L1882.34,1509.39 L1882.1,1510.04 L1881.4,1511.21 L1881.01,1511.58 L1880.71,1512.23 L1880.61,1512.89 L1880.36,1513.5 L1879.95,1514.16 L1879.06,1515.21 L1876.75,1517.58 L1876.26,1518.38 L1876.03,1518.94 L1875.88,1519.83 L1875.79,1521.55 L1875.56,1523.89 L1875.28,1524.84 L1874.55,1526.07 L1874.22,1526.77 L1874.16,1527.66 L1874.53,1530 L1875.33,1533.48 L1875.35,1533.99 L1874.89,1535.29 L1873.37,1537.62 L1872.83,1539.07 L1872.23,1541.57 L1871.88,1543.46 L1871.12,1545.04 L1869.15,1548.47 L1868.43,1550.41 L1867.2,1553.5 L1865.39,1557.58 L1864.7,1559.37 L1863.46,1563.42 L1862.86,1565.83 L1862.65,1567.41 L1862.72,1568.67 L1863.04,1570.84 L1862.9,1571.35 L1862.59,1571.87 L1862.1,1572.14 L1861.34,1572.95 L1860.74,1573.69 L1860.52,1574.8 L1860.32,1576.23 L1859.72,1578.09 L1858.31,1580.99 L1857.08,1582.43 L1856.6,1583.96 L1856.09,1589.36 L1855.63,1591.47 L1855.14,1593.25 L1854.84,1596.06 L1851.39,1605.13 L1849.75,1608.91 L1842.06,1623.52 L1834.47,1629.78 L1832.65,1631.73 L1831.18,1634.11 L1827.33,1643.43 L1820.97,1649.82 L1814.57,1658.38 L1812.22,1659.08 L1809.9,1660.1 L1807.69,1661.49 L1806.2,1662.67 L1804.82,1664.09 L1801.58,1667.81 L1797.97,1672.42 L1796.27,1675.5 L1794.21,1685.76 L1793.37,1693 L1793.21,1694.39 L1792.55,1696.32 L1792.55,1696.33 L1789.31,1705.4 L1786.03,1718.4 L1778.91,1728.39 L1777.91,1730.14 L1774.56,1747.68 L1772.35,1747.72 L1770.41,1748.18 L1768.2,1749.63 L1765.26,1752.83 L1763.94,1753.58 L1761.68,1754.21 L1759.4,1755.27 L1758.18,1756.01 L1756.89,1756.58 L1756.29,1757 L1755.77,1757.78 L1755.46,1758.9 L1753.19,1777.49 L1738.22,1783.57 L1731.18,1787.68 L1729.33,1789.43 L1728.03,1792.24 L1726.07,1797.55 L1719.62,1798.63 L1711.86,1800.36 L1699.29,1804.67 L1697.19,1805.81 L1694.64,1807.47 L1691.75,1808.23 L1689.03,1809.69 L1683.09,1813.4 L1670.85,1823.16 L1654.57,1831.84 L1643.7,1835.95 L1640.98,1837.49 L1634.87,1843.87 L1634.75,1843.99 L1633.69,1845.07 L1627.56,1843.25 L1621.55,1840.64 L1619.9,1840.04 L1617.28,1839.09 L1614.26,1837.63 L1613.36,1837.52 L1611.96,1837.71 L1608.75,1838.76 L1606.86,1839.03 L1583.21,1842.42 L1581.87,1842.61 L1573.22,1846.79 L1561.19,1854.19 L1555.8,1854.61 L1553.06,1855.7 L1542.74,1862.47 L1537,1867.08 L1535.78,1867.22 L1534,1867.72 L1532.85,1868.23 L1531.72,1868.86 L1530.62,1869.81 L1528.55,1872 L1525.25,1874.74 L1522.24,1877.14 L1516.51,1879.72 L1512.98,1881.47 L1510.77,1882.93 L1509.12,1884.33 L1507.5,1886.29 L1501.69,1894.49 L1499.03,1898.59 L1494.74,1906.56 L1492.13,1911.51 L1489.74,1916.22 L1483.72,1924.67 L1480.06,1929.87 L1478.31,1932.37 L1475.11,1937.76 L1473.81,1939.42 L1466.8,1944.05 L1455.85,1953.1 L1453.98,1954.63 L1452.73,1956.07 L1451.55,1958.49 L1449.23,1963.26 L1446.66,1968.67 L1444.92,1972.32 L1444.15,1974.82 L1443.51,1979.94 L1441.74,1983.31 L1441.59,1983.59 L1437.5,1991.33 L1434.88,1996.49 L1432.81,2000.85 L1432.73,2001.11 L1431.12,2006.39 L1430.19,2012.98 L1430.06,2020.99 L1430.62,2028.34 L1432.49,2038.22 L1433.55,2044.93 L1435.2,2051.19 L1441.18,2061.92 L1442.1,2063.77 L1439.64,2071.05 L1438.57,2075.59 L1437.38,2081.6 L1437.08,2083.82 L1436.73,2088.92 L1436.65,2090.06 L1436.11,2090.94 L1435.09,2092.05 L1429.13,2098.48 L1427.68,2100.19 L1427.52,2100.37 L1424.65,2103.07 L1420.85,2105.53 L1417.78,2107.79 L1411.81,2111.38 L1411.8,2111.38 L1411.77,2111.41 L1408.32,2114.34 L1403.53,2119.49 L1397.34,2126.98 L1390.68,2126.9 L1387.42,2127.78 L1383.08,2130.17 L1375.27,2134.47 L1374.84,2140.78 L1374.77,2148.97 L1375.01,2153.95 L1379.7,2182.26 L1381.22,2188.29 L1387.19,2220.36 L1387.99,2227.05 L1388.72,2236.17 L1390.18,2258.26 L1390.92,2264.59 L1392.02,2269.39 L1393.89,2275.02 L1396.17,2280.52 L1396.36,2280.96 L1402.93,2294.51 L1415.15,2315.99 L1418.55,2321.63 L1430.83,2341.81 L1312.69,2478.54 L1254.38,2554.04 L1188.31,2639.54 L1188.49,2658.07 L1189.99,2727.91 L1103.28,2841.65 L1076.79,2890.42 L1073.7,2888.62 L865.376,2732.37 L843.214,2711.29 L838.803,2675.88 L814.436,2661.43 L778.943,2647.06 L756.766,2628.2 L735.685,2613.76 L724.636,2599.38 L740.139,2571.67 L567.249,2526.21 L568.881,2483.59 L574.441,2454.21 L566.684,2426.48 L557.803,2409.26 L557.792,2385.94 L557.541,2368.12 L560.402,2351.49 L561.967,2342.23 L542.373,2339.7 L532.883,2336.68 L544.798,2237.51 L527.249,2236.09 L481.074,2233.89 L334.753,2199.8 L358.276,1931.31 L330.522,1931.53 L309.253,1924.35 L271.301,1947.35 L244.427,1937.68 L245.721,1934.04 L255.778,1905.8 L318.766,1891.68 L332.809,1889.17 L348.87,1837.61 L359.972,1808.79 L374.755,1796.72 L391.846,1788.58 L459.655,1782.48 L468.318,1778.58 L469.134,1750.9 L511.956,1746.2 L538.603,1740.6 L548.403,1738.93 L557.176,1737.61 L566.904,1736.37 L574.102,1735.68 L621.179,1727.9 L632.351,1728.46 L635.956,1737.31 L689.693,1698.8 L705.736,1698.78 L722.399,1705.47 L738.441,1697.69 L765.012,1701.02 L784.504,1698.78 L793.945,1688.84 L800.522,1678.33 L811.718,1669.91 L825.511,1656.66 L834.917,1643.94 L841.009,1631.17 L837.714,1622.92 L834.371,1607.94 L829.389,1593.52 L805.016,1574.66 L786.633,1568.53 L752.78,1556.34 L728.058,1546.44 L708.56,1541.98 L691.332,1531.4 L656.512,1493.75 L704.677,1471.01 L692.5,1451.63 L698.039,1392.9 L746.26,1370.7 L756.896,1354.48 L774.52,1331.9 L791.077,1331.37 L832.705,1322.48 L845.479,1311.94 L854.872,1299.22 L889.162,1302.52 L924.129,1309.18 L944.695,1326.95 L955.738,1348.53 L982.341,1361.29 L1008.41,1364.05 L1043.44,1355.71 L1057.16,1352.97 L1053.82,1342.38 L1051.62,1326.37 L1064.93,1333 L1079.9,1328.02 L1098.7,1333.57 L1105.43,1341.91 L1118.72,1349.1 L1136.41,1348.54 L1158.01,1339.11 L1195.65,1344.63 L1221.26,1351.34 L1257.77,1365.17 L1310.43,1351.87 L1366.41,1359.08 L1416.32,1348 L1485.55,1344.66 L1646.27,1270.95 L1724.98,1278.72 L1826.94,1261.52 L1926.16,1185.61 L2033.12,1076.97 L2056.95,960.544 L2060.25,921.273 L2103.46,891.892 L2116.77,855.318 L2148.4,812.622 L2139.48,800.398 L2136.75,789.347 L2144.53,777.722 L2141.75,766.072 L2137.17,753.465 L2132.87,738.383 L2136.2,720.044 L2133.98,702.32 L2127.37,693.487 L2127.9,681.901 L2132.35,665.662 L2133.95,651.953 L2139.53,638.043 L2148.4,631.925 L2155.03,618.665 L2166.2,609.703 L2177.23,598.116 L2178.88,587.025 L2187.17,589.276 L2188.84,599.787 L2194.95,604.232 L2197.16,583.167 L2179.41,497.251 L2182.74,480.638 L2208.24,440.759 L2222.64,406.951 L2268.67,381.457 L2276.95,359.853 L2306.32,314.981 L2346.8,284.455 L2377.9,266.125 L2403.3,245.125 L2427.71,250.666 L2454.86,239.575 L2472.6,251.211 L2471.5,263.947 L2477.59,267.827 L2490.92,266.165 L2510.26,253.994 L2528.03,231.812 L2530.23,154.296 L2559.05,83.2863 L2659.71,137.822 L2659.06,138.649 L2649.01,157.286 L2645.52,165.392 L2639.62,180.475 L2642.88,187.679 L2645.95,192.814 L2647.27,195.272 L2648.21,197.037 L2650.11,200.899 L2650.23,201.672 L2651.05,206.958" fill-rule="evenodd"/>
  </g>
  <g font-size="34.5833" font-style="normal" fill="none" stroke="#000000" transform="matrix(0.999744,0,0,0.999744,0,0)" font-family="MS Shell Dlg 2" stroke-opacity="1" stroke-width="1" stroke-linecap="square" font-weight="400" stroke-linejoin="bevel"/>
  <g font-size="34.5833" font-style="normal" fill="none" stroke="#000000" transform="matrix(11.808,0,0,11.808,0,0)" font-family="MS Shell Dlg 2" stroke-opacity="1" stroke-width="1" stroke-linecap="square" font-weight="400" stroke-linejoin="bevel"/>
  <g font-size="34.5833" font-style="normal" fill="none" stroke="#000000" transform="matrix(11.808,0,0,11.808,0,0)" font-family="MS Shell Dlg 2" stroke-opacity="1" stroke-width="1" stroke-linecap="square" font-weight="400" stroke-linejoin="bevel"/>
  <g font-size="34.5833" font-style="normal" fill="none" stroke="#000000" transform="matrix(11.808,0,0,11.808,0,0)" font-family="MS Shell Dlg 2" stroke-opacity="1" stroke-width="1" stroke-linecap="square" font-weight="400" stroke-linejoin="bevel"/>
  <g font-size="34.5833" font-style="normal" fill="none" stroke="#000000" transform="matrix(1,0,0,1,0,0)" font-family="MS Shell Dlg 2" stroke-opacity="1" stroke-width="1" stroke-linecap="square" font-weight="400" stroke-linejoin="bevel"/>
  <g font-size="34.5833" font-style="normal" fill="none" stroke="#000000" transform="matrix(11.808,0,0,11.808,0,0)" font-family="MS Shell Dlg 2" stroke-opacity="1" stroke-width="1" stroke-linecap="square" font-weight="400" stroke-linejoin="bevel"/>
  <g font-size="34.5833" font-style="normal" fill="none" stroke="#000000" transform="matrix(11.808,0,0,11.808,0,0)" font-family="MS Shell Dlg 2" stroke-opacity="1" stroke-width="1" stroke-linecap="square" font-weight="400" stroke-linejoin="bevel"/>
  <g font-size="34.5833" font-style="normal" fill="none" stroke="#000000" transform="matrix(11.808,0,0,11.808,0,0)" font-family="MS Shell Dlg 2" stroke-opacity="1" stroke-width="1" stroke-linecap="square" font-weight="400" stroke-linejoin="bevel"/>
  <g font-size="34.5833" font-style="normal" fill="none" stroke="#000000" transform="matrix(11.808,0,0,11.808,0,0)" font-family="MS Shell Dlg 2" stroke-opacity="1" stroke-width="1" stroke-linecap="square" font-weight="400" stroke-linejoin="bevel"/>
  <g font-size="34.5833" font-style="normal" fill="none" stroke="#000000" transform="matrix(1,0,0,1,0,0)" font-family="MS Shell Dlg 2" stroke-opacity="1" stroke-width="1" stroke-linecap="square" font-weight="400" stroke-linejoin="bevel"/>
 </g>
</svg>
