<?xml version='1.0' encoding='UTF-8' standalone='no'?>
<svg xmlns:xlink="http://www.w3.org/1999/xlink" baseProfile="tiny" xmlns="http://www.w3.org/2000/svg" height="249.936mm" viewBox="0 0 2952 2952" width="249.936mm" version="1.2">
 <title>Qt SVG Document</title>
 <desc>Generated with Qt</desc>
 <defs/>
 <g stroke-width="1" fill-rule="evenodd" fill="none" stroke-linejoin="bevel" stroke-linecap="square" stroke="black">
  <g stroke-width="1" transform="matrix(1,0,0,1,0,0)" stroke-opacity="1" font-size="34.5833" fill="none" stroke-linejoin="bevel" font-style="normal" stroke-linecap="square" stroke="#000000" font-family="MS Shell Dlg 2" font-weight="400"/>
  <g stroke-width="1" transform="matrix(1,0,0,1,0,0)" stroke-opacity="1" font-size="34.5833" fill="none" stroke-linejoin="bevel" font-style="normal" stroke-linecap="square" stroke="#000000" font-family="MS Shell Dlg 2" font-weight="400"/>
  <g stroke-width="1" transform="matrix(11.808,0,0,11.808,0,0)" stroke-opacity="1" font-size="34.5833" fill="none" stroke-linejoin="bevel" font-style="normal" stroke-linecap="square" stroke="#000000" font-family="MS Shell Dlg 2" font-weight="400"/>
  <g stroke-width="1" transform="matrix(0.999744,0,0,0.999744,0,0)" stroke-opacity="1" font-size="34.5833" fill="none" stroke-linejoin="bevel" font-style="normal" stroke-linecap="square" stroke="#000000" font-family="MS Shell Dlg 2" font-weight="400"/>
  <g transform="matrix(0.999744,0,0,0.999744,0,0)" font-size="34.5833" fill-opacity="0" fill="#ffffff" font-style="normal" stroke="none" font-family="MS Shell Dlg 2" font-weight="400">
   <path fill-rule="evenodd" vector-effect="none" d="M-2,-2 L2955,-2 L2955,2955 L-2,2955 L-2,-2"/>
  </g>
  <g stroke-width="1" transform="matrix(0.999744,0,0,0.999744,0,0)" stroke-opacity="1" font-size="34.5833" fill="none" stroke-linejoin="bevel" font-style="normal" stroke-linecap="square" stroke="#000000" font-family="MS Shell Dlg 2" font-weight="400"/>
  <g stroke-width="1" transform="matrix(11.808,0,0,11.808,0,0)" stroke-opacity="1" font-size="34.5833" fill="none" stroke-linejoin="bevel" font-style="normal" stroke-linecap="square" stroke="#000000" font-family="MS Shell Dlg 2" font-weight="400"/>
  <g stroke-width="1" transform="matrix(11.808,0,0,11.808,0,0)" stroke-opacity="1" font-size="34.5833" fill="none" stroke-linejoin="bevel" font-style="normal" stroke-linecap="square" stroke="#000000" font-family="MS Shell Dlg 2" font-weight="400"/>
  <g stroke-width="1" transform="matrix(11.808,0,0,11.808,0,0)" stroke-opacity="1" font-size="34.5833" fill="none" stroke-linejoin="bevel" font-style="normal" stroke-linecap="square" stroke="#000000" font-family="MS Shell Dlg 2" font-weight="400"/>
  <g stroke-width="1" transform="matrix(11.808,0,0,11.808,0,0)" stroke-opacity="1" font-size="34.5833" fill="none" stroke-linejoin="bevel" font-style="normal" stroke-linecap="square" stroke="#000000" font-family="MS Shell Dlg 2" font-weight="400"/>
  <g stroke-width="1" transform="matrix(11.808,0,0,11.808,0,0)" stroke-opacity="1" font-size="34.5833" fill="none" stroke-linejoin="bevel" font-style="normal" stroke-linecap="square" stroke="#000000" font-family="MS Shell Dlg 2" font-weight="400"/>
  <g transform="matrix(11.808,0,0,11.808,0,0)" font-size="34.5833" fill-opacity="0" fill="#ffffff" font-style="normal" stroke="none" font-family="MS Shell Dlg 2" font-weight="400">
   <path fill-rule="evenodd" vector-effect="none" d="M0,0 L250,0 L250,250 L0,250 L0,0"/>
  </g>
  <g stroke-width="1" transform="matrix(11.808,0,0,11.808,0,0)" stroke-opacity="1" font-size="34.5833" fill="none" stroke-linejoin="bevel" font-style="normal" stroke-linecap="square" stroke="#000000" font-family="MS Shell Dlg 2" font-weight="400"/>
  <g stroke-width="1" transform="matrix(11.808,0,0,11.808,0,0)" stroke-opacity="1" font-size="34.5833" fill="none" stroke-linejoin="bevel" font-style="normal" stroke-linecap="square" stroke="#000000" font-family="MS Shell Dlg 2" font-weight="400"/>
  <g transform="matrix(0.999744,0,0,0.999744,0,0)" font-size="34.5833" fill-opacity="0" fill="#000000" font-style="normal" stroke="none" font-family="MS Shell Dlg 2" font-weight="400">
   <rect x="0" height="2953" width="2953" y="0"/>
  </g>
  <g stroke-width="1" transform="matrix(0.999744,0,0,0.999744,0,0)" stroke-opacity="1" font-size="34.5833" fill="none" stroke-linejoin="bevel" font-style="normal" stroke-linecap="square" stroke="#000000" font-family="MS Shell Dlg 2" font-weight="400"/>
  <g stroke-width="3.07087" transform="matrix(0.999744,0,0,0.999744,0,0)" stroke-opacity="1" font-size="34.5833" fill-opacity="1" fill="#c5c5c5" stroke-linejoin="bevel" font-style="normal" stroke-linecap="square" stroke="#5c5c5c" font-family="MS Shell Dlg 2" font-weight="400">
   <path fill-rule="evenodd" vector-effect="none" d="M1145.32,2780.23 L1145.14,2778.77 L1144.48,2779.59 L1143.72,2779.76 L1137.05,2779.92 L1134.14,2778.17 L1118.52,2776.13 L1115.3,2776.84 L1112.69,2772.37 L1112.16,2770.18 L1111.12,2769.39 L1110.94,2768.79 L1109.5,2767.81 L1108.49,2767.73 L1106.15,2765.6 L1100.69,2763.97 L1100.68,2763.47 L1101.83,2762.29 L1101.91,2761.03 L1101.25,2760.81 L1099.34,2758.88 L1098.34,2759.47 L1097.04,2758.18 L1096.62,2758.27 L1094.39,2760.73 L1099.09,2765.27 L1099.95,2765.4 L1100.31,2765.85 L1099.89,2766.14 L1098.85,2765.67 L1090.63,2757.88 L1090.65,2757.23 L1092.72,2759.3 L1095.77,2756.39 L1092.1,2752.75 L1091.57,2752.98 L1089.52,2756.11 L1088.46,2755.16 L1088,2753.27 L1088.15,2752.93 L1088.79,2753.76 L1090.04,2753.06 L1090.01,2751.14 L1088,2749.88 L1086.3,2746.93 L1085,2745.95 L1083.89,2746.32 L1083.67,2743.71 L1083,2742.23 L1081.75,2741.53 L1080.05,2741.64 L1078.75,2740.99 L1077.16,2737.93 L1075.67,2736.41 L1075.26,2736.42 L1075.07,2735.61 L1074.53,2735.48 L1074.39,2734.87 L1072.55,2733.33 L1072.67,2731.56 L1072.03,2730.47 L922.056,2585.87 L905.335,2570.65 L884.126,2552.96 L870.748,2542.63 L853.077,2529.75 L821.804,2509.28 L805.205,2499.52 L791.272,2491.85 L776.129,2483.97 L748.075,2470.75 L721.879,2460.03 L701.338,2452.59 L674.765,2444.18 L644.459,2435.43 L643.756,2436.38 L642.897,2436.14 L638.126,2438.95 L636.092,2441.36 L637.203,2437.55 L635.318,2434.01 L638.116,2434.67 L638.987,2431.43 L638.582,2430.75 L639.888,2429.87 L638.338,2430.27 L637.211,2428.29 L635.152,2427.63 L633.051,2428.79 L632.208,2431.52 L634.791,2435.71 L635.121,2436.92 L632.895,2438.59 L632.294,2440.26 L631.819,2440.12 L632.07,2438.25 L630.272,2435.16 L623.452,2439.23 L626.254,2443.74 L626.209,2444.16 L629.193,2442.55 L631.631,2443.37 L633.73,2442.31 L634.057,2442.68 L626.272,2447.21 L625.171,2447.48 L616.109,2445.03 L615.522,2444.84 L615.275,2444.31 L615.945,2438.47 L617.156,2437.21 L617.549,2435.64 L616.471,2433.31 L614.75,2431.71 L613.773,2431.37 L612.889,2432.91 L612.602,2432.71 L613.029,2431.8 L611.033,2429.25 L609.224,2428.57 L607.065,2429.03 L606.515,2430.67 L607.09,2432.11 L604.016,2433.85 L598.179,2430.22 L597.635,2424.93 L594.441,2420.95 L580.806,2417.68 L575.81,2417.01 L567.509,2416.66 L558.964,2417.18 L550.82,2418.58 L529.639,2425.06 L526.44,2426.12 L526.055,2426.94 L524.657,2427.39 L524.203,2426.86 L494.034,2436.76 L469.202,2448.15 L464.672,2449.12 L457.221,2448.63 L455.067,2449.53 L452.46,2453.68 L452.687,2452.91 L451.133,2451.91 L449.571,2451.43 L447.485,2451.91 L443.843,2454.66 L442.183,2458.27 L440.799,2459.31 L439.234,2458.93 L438.132,2460.17 L436.921,2462.92 L436.714,2465.58 L435.391,2471.18 L434.639,2471.27 L429.209,2466.42 L424.146,2460.63 L418.086,2452.99 L414.84,2447.65 L415.573,2447.25 L416.747,2449.3 L417.628,2449.32 L418.459,2450.34 L419.025,2452.02 L420.822,2453.35 L422.75,2453.04 L423.683,2453.44 L425.565,2452.26 L426.4,2452.35 L432.465,2446.4 L435.935,2438.76 L435.955,2437.37 L435.604,2436.67 L433.841,2435.29 L432.789,2432.17 L431.036,2430.44 L424.057,2426.95 L420.453,2422.98 L416.98,2416.82 L414.657,2414.32 L409.824,2410.88 L408.287,2410.28 L407.429,2410.66 L408.479,2409.86 L410.164,2407.64 L412.366,2406.9 L412.613,2405.96 L411.463,2404.76 L411.016,2404.73 L408.917,2407.2 L407.295,2408.42 L403.437,2410.45 L404.027,2411.29 L402.78,2411.58 L402.107,2412.15 L402.204,2414.11 L398.972,2411.69 L399.058,2409.09 L402.124,2409.69 L404.712,2404.17 L406.944,2400.4 L408.659,2396.87 L408.518,2395.5 L407.324,2394.83 L407.51,2394.45 L406.489,2394.39 L406.55,2394.14 L403.763,2392.71 L403.933,2392.35 L401.051,2390.83 L399.967,2392.97 L400.209,2393.14 L395.546,2402.27 L394.71,2407.08 L396.759,2409.28 L396.631,2410.93 L396.196,2410.87 L396.291,2409.55 L394.19,2407.18 L395.095,2402.04 L399.611,2393.16 L398.911,2385.13 L399.744,2386.47 L400.695,2385.96 L401.781,2385.98 L402.103,2385.46 L401.694,2385.3 L403.233,2384.48 L403.61,2384.53 L402.336,2385.18 L402.566,2385.51 L404.416,2385.4 L404.645,2384.83 L404.209,2384.78 L405.29,2384.13 L404.913,2384.71 L405.162,2384.94 L406.641,2384.69 L406.892,2384.27 L405.286,2383.01 L405.172,2381.73 L405.965,2383.25 L407.16,2381.8 L407.359,2380.95 L406.938,2379.44 L406.092,2378.61 L405.49,2378.59 L405.118,2379.01 L405.209,2380.26 L404.882,2380.31 L404.855,2378.95 L406.12,2377.48 L406.007,2376.34 L404.535,2375.14 L404.465,2373.97 L405.281,2375.46 L406.324,2374.52 L406.675,2373.28 L406.387,2371.95 L405.52,2371.14 L404.465,2371.22 L404.417,2372.61 L404.192,2370.87 L405.829,2369.16 L407.645,2368.9 L401.051,2298.34 L400.083,2292.38 L396.792,2284.36 L377.942,2252.71 L376.624,2249.38 L375.752,2244.8 L375.911,2238.44 L376.493,2235.37 L377.917,2231.51 L381.318,2225.69 L384.887,2222.25 L391.635,2217.61 L392.61,2215.87 L389.097,2209.41 L392.928,2215.55 L393.613,2215.5 L394.154,2215.17 L392.062,2211.46 L393.763,2210.47 L395.855,2214.15 L425.832,2196.12 L425.761,2195.39 L422.409,2189.45 L426.572,2195.64 L466.713,2171.58 L469.371,2167.87 L480.82,2143.25 L384.355,2201.18 L373.494,2207.55 L373.127,2207.59 L373.192,2207.27 L479.713,2143.3 L480.12,2142.09 L497.363,2131.62 L603.246,2068.24 L604.026,2067.7 L603.643,2066.6 L604.817,2066.07 L605.408,2066.87 L610.166,2064.07 L610.55,2063.29 L610.414,2062.7 L611.298,2062.14 L612.08,2062.94 L648.574,2041.07 L652.475,2038.78 L653.495,2038.55 L654.091,2039.22 L653.78,2039.9 L603.672,2070.17 L626.744,2069.89 L636.122,2064.31 L634.874,2061.87 L635.233,2061.48 L636.205,2061.63 L640.035,2063.73 L640.379,2063.52 L642.184,2066.51 L642.508,2066.32 L640.741,2063.32 L641.192,2063.04 L640.929,2061.74 L639.479,2058.83 L640.103,2058.69 L641.888,2061.48 L645.227,2063.96 L646.943,2062.97 L646.43,2059.39 L646.881,2057.98 L657.217,2051.66 L668.537,2031.32 L661.839,2035.07 L660.837,2034.71 L660.779,2034.09 L661.196,2033.55 L728.261,1993.25 L1066.28,1754.23 L1075.08,1747.16 L1082.3,1740.21 L1083.24,1740.16 L1083.58,1741.29 L1075.78,1748.56 L1075.77,1749.12 L1079.24,1748.09 L1082.84,1747.73 L1090.74,1748.29 L1093.23,1748.05 L1097.72,1746.81 L1101.14,1744.88 L1128.04,1718.79 L1120.63,1710.77 L1120.73,1710.32 L1128.58,1718.11 L1129.07,1718.17 L1140.63,1706.92 L1156.19,1693.09 L1156.71,1691.64 L1150.65,1684.5 L1150.65,1684.09 L1157.66,1692.03 L1161,1693.05 L1161.92,1692.04 L1160.47,1689.95 L1160.7,1689.61 L1163.64,1692.06 L1164.86,1691.18 L1163.51,1686.52 L1166.06,1684.35 L1165.14,1683.33 L1165.37,1683.13 L1166.29,1684.15 L1175.63,1676.2 L1175.96,1676.53 L1185.96,1668.69 L1181.79,1663.11 L1181.91,1662.66 L1182.4,1662.8 L1186.56,1668.43 L1195.74,1662.28 L1203.32,1657.82 L1210.57,1646.22 L1216.47,1633.49 L1217.85,1632.45 L1218.49,1631.32 L1218.97,1628.77 L1218.49,1627.1 L1217.6,1625.85 L1214.97,1624.53 L1212.55,1624.79 L1208.42,1627.11 L1208.71,1628.25 L1213.89,1633.82 L1213.25,1634.65 L1212.74,1634.03 L1213.01,1633.33 L1209.05,1628.87 L1208.36,1628.89 L1209.52,1632.46 L1211.05,1634.79 L1212.57,1636.06 L1212.16,1636.83 L1211.71,1636.96 L1209.37,1634.03 L1207.7,1630.35 L1206.77,1625.46 L1207.31,1625.34 L1208.43,1625.89 L1210.39,1623.98 L1207.99,1619.36 L1207.07,1616.7 L1206.13,1610.59 L1204.47,1610.58 L1204.36,1608 L1204.7,1607.96 L1204.75,1610.29 L1206.1,1610.25 L1205.47,1600.17 L1204.89,1597.91 L1203.76,1597.8 L1203.37,1591.88 L1204.08,1580.64 L1205.18,1575.22 L1205.86,1575.24 L1206.64,1572.71 L1207.56,1571.54 L1215.53,1563.98 L1216.72,1563.86 L1219.99,1560.91 L1220.22,1561.25 L1219.93,1561.6 L1208.96,1571.75 L1213.65,1576.64 L1221.62,1569.24 L1219.05,1566.26 L1219.01,1565.75 L1222.24,1562.44 L1225.21,1565.68 L1232.16,1559.21 L1231.6,1557.69 L1234.18,1555.1 L1232.16,1552.93 L1229.9,1554.96 L1228.8,1554.95 L1228.24,1554.36 L1228.3,1553.22 L1230.42,1551.07 L1228.08,1548.92 L1225.73,1551.3 L1225.13,1551.34 L1225.37,1552.53 L1225.95,1553.1 L1219.71,1558.83 L1223.66,1554.7 L1223.72,1553.9 L1222.91,1552.65 L1223.16,1550.04 L1226.96,1546.47 L1228.49,1546.18 L1229.99,1546.76 L1236.58,1553.62 L1237.06,1553.68 L1237.96,1552.89 L1239.57,1549.47 L1256.31,1505.25 L1255.9,1504.24 L1256.16,1503.68 L1253.33,1502.19 L1251.86,1502.49 L1251.49,1502.19 L1251.75,1501.78 L1251.93,1502.18 L1254.25,1501.99 L1255.66,1498.86 L1258.73,1493.93 L1259.82,1489.08 L1259.66,1487.59 L1257.47,1484.59 L1256.23,1483.84 L1255.31,1484.02 L1262.25,1473.59 L1267.46,1470.69 L1276,1469.67 L1278.96,1469.99 L1281.81,1472.12 L1281.55,1472.28 L1278.48,1470.22 L1272.86,1470.46 L1267.58,1471.16 L1262.31,1474.16 L1256.29,1483.24 L1264.92,1488.59 L1265.56,1488.42 L1267.75,1485.57 L1267.96,1483 L1270.63,1481.06 L1272.19,1481.07 L1273.47,1480.5 L1274.36,1480.88 L1274.69,1480.04 L1275.96,1479.65 L1276.55,1480.72 L1279.18,1479.88 L1279.06,1474.12 L1279.9,1480.16 L1353.68,1475.7 L1358.66,1474.78 L1362.34,1473.65 L1369.59,1470 L1374.18,1466.47 L1427.13,1413.42 L1423.4,1409.45 L1434.55,1398.21 L1438.42,1402.19 L1459,1381.52 L1456.14,1378.77 L1454.38,1379.8 L1439.73,1365.85 L1439.81,1364.85 L1449.32,1354.55 L1450.2,1354.52 L1450.09,1355.31 L1447.44,1358.24 L1447.32,1358.88 L1446.81,1358.92 L1440.94,1365.3 L1440.98,1365.66 L1444.87,1369.34 L1449.2,1364.72 L1448.95,1364.5 L1448.51,1364.96 L1448.16,1364.63 L1448.92,1363.91 L1449.44,1364.41 L1450.82,1362.9 L1450.99,1362.11 L1450.29,1361.35 L1449.78,1361.57 L1450.16,1361.04 L1449.42,1360.76 L1450.74,1359.99 L1452.13,1361.31 L1454.28,1359.2 L1455,1359.03 L1464.45,1367.74 L1464.58,1368.2 L1463.07,1370.68 L1466.27,1373.97 L1525.89,1310.15 L1531.83,1304.86 L1537.99,1300.47 L1543.37,1297.19 L1548.82,1294.5 L1554.32,1292.2 L1565.93,1288.79 L1713.99,1248.56 L1721.91,1245.2 L1730.81,1240.13 L1737.94,1234.72 L1748.94,1224.87 L1750.37,1224.5 L1752.38,1226.45 L1752.64,1227.6 L1751.66,1228.98 L1747.58,1232.39 L1747.22,1237.14 L1753.54,1244.33 L1754.17,1245.89 L1756.96,1250.07 L1777.15,1275.62 L1783.7,1281.1 L1787.48,1283.42 L1792.44,1285.57 L1929.34,1319.38 L1932.42,1320.12 L1932.56,1319.59 L1936.38,1320.51 L1936.27,1321.08 L1937.98,1321.53 L2053.58,1350.05 L2055.46,1351.26 L2056.37,1352.71 L2056.64,1354.98 L2056.41,1356.16 L2055.96,1356.35 L2056.37,1356.37 L2056.22,1357.77 L2056.84,1360.22 L2057.56,1360.49 L2058.79,1360.2 L2060.65,1352.48 L2061.28,1351.47 L2069.52,1346.48 L2069.61,1347.08 L2062.59,1351.49 L2061.6,1352.51 L2059.31,1360.61 L2060.01,1360.8 L2059.49,1363.12 L2059.75,1363.18 L2060.3,1360.9 L2060.83,1361 L2061.76,1359.55 L2064.62,1360 L2066.18,1353.8 L2066.81,1351.84 L2067.26,1351.54 L2068.77,1352.02 L2068.94,1352.73 L2074.96,1352.78 L2075.43,1353.05 L2074.89,1353.62 L2068.73,1353.59 L2067.2,1360.17 L2067.4,1361.02 L2068.09,1361.29 L2074.24,1361.34 L2074.77,1361 L2074.9,1354.97 L2075.34,1355.26 L2075.39,1361.32 L2103.32,1361.4 L2129.45,1358.96 L2178.85,1359.53 L2184.03,1359.92 L2191.64,1361.77 L2197.18,1364.09 L2202.49,1367.41 L2205.69,1370.16 L2209.14,1373.83 L2300.87,1474.74 L2306.63,1481.81 L2309.9,1487.57 L2311.72,1492.33 L2314.19,1505.62 L2314.88,1505.9 L2315.27,1509.35 L2315.87,1510.49 L2316.52,1510.53 L2317.31,1515.52 L2317.06,1515.61 L2317.35,1515.77 L2316.88,1516.12 L2316.68,1517.61 L2317.08,1517.85 L2317.28,1518.84 L2317.34,1521.12 L2317.31,1521.48 L2316.66,1521.66 L2317.18,1526.65 L2316.96,1530.04 L2317.45,1529.91 L2317.16,1534.05 L2317.83,1534.88 L2317.27,1535.81 L2317.58,1535.95 L2317.38,1536.48 L2318.16,1538.27 L2318.21,1539.12 L2317.73,1539.7 L2318.45,1541.43 L2318.32,1544.27 L2318.79,1548.1 L2318.46,1549.51 L2319.01,1551.37 L2318.55,1552.91 L2318.86,1553.01 L2318.82,1553.89 L2318.48,1554.13 L2318.97,1556.67 L2318.46,1556.98 L2318.98,1557.22 L2319.45,1558.26 L2319.21,1558.71 L2317.79,1558.56 L2317.8,1559.23 L2319.22,1559.5 L2319.55,1559.1 L2319.02,1561.08 L2319.74,1566.77 L2319.56,1568.73 L2320,1569.81 L2318.72,1572.53 L2318.82,1575.51 L2320.21,1578.64 L2320.08,1579.48 L2320.72,1581.74 L2320.48,1583.06 L2319.86,1583.75 L2321.03,1588.29 L2320.76,1589.09 L2321.07,1589.69 L2320.41,1590.77 L2321.08,1592.8 L2320.48,1594.92 L2321.3,1601.51 L2321.23,1602.61 L2320.46,1604 L2320.47,1606.4 L2319.06,1606.46 L2319.12,1608.33 L2320.33,1608.32 L2320.05,1607.14 L2320.59,1606.99 L2321.04,1607.55 L2320.93,1608.37 L2321.93,1609.55 L2321.61,1618.97 L2322.16,1620.43 L2322.87,1620.46 L2323.09,1622.02 L2323.44,1622.04 L2323.66,1620.5 L2324.39,1620.48 L2324.62,1622.23 L2324.36,1623.24 L2324.09,1623.23 L2324.07,1627.72 L2321.49,1628.24 L2320.49,1629.15 L2318.88,1629.37 L2318.53,1630.39 L2316.75,1638.92 L2316.87,1639.77 L2316.47,1640.22 L2316.09,1642.25 L2316.34,1643.04 L2315.85,1643.65 L2315.99,1644.77 L2315.56,1645.67 L2315.8,1646.35 L2315.35,1646.84 L2315.36,1648.76 L2314.91,1649.12 L2314.03,1651.99 L2313.71,1654.8 L2311.59,1662.07 L2310.58,1669.4 L2312.07,1675.31 L2311.9,1676.88 L2312.6,1679.13 L2312.29,1680.07 L2311.19,1680.65 L2310.59,1681.87 L2308.57,1691.61 L2307.92,1692.04 L2307.48,1693.13 L2307.14,1695.28 L2307.31,1696.99 L2305.68,1700.45 L2305.36,1703.48 L2304.56,1705 L2303.65,1709.35 L2302.87,1711.17 L2302.78,1713.1 L2303.28,1714.61 L2302.35,1716.92 L2302.24,1719.5 L2302.99,1720.63 L2302.98,1721.75 L2303.71,1722.75 L2303.19,1725.62 L2301.12,1727.57 L2300.55,1729.34 L2300.01,1729.59 L2300.18,1731.44 L2299.07,1731.77 L2296.58,1735.49 L2293.2,1741.92 L2292.98,1743.02 L2291.86,1744.16 L2291.61,1745.32 L2290.55,1746.78 L2289.55,1750.6 L2287.51,1752.69 L2287.46,1753.4 L2281.64,1763.98 L2281.58,1764.63 L2280.76,1765.01 L2280.99,1765.65 L2278.82,1769.84 L2276.15,1773.93 L2273.44,1779.73 L2266.3,1789.77 L2222.5,1873.95 L2218.03,1879.28 L2217.74,1880.3 L2213.55,1885.61 L2214.78,1887.51 L2214.91,1889.17 L2212.92,1893.31 L2212.22,1893.99 L2210.73,1894.3 L2210.54,1894.96 L2211.12,1896.35 L2210.25,1895.08 L2208.01,1894.38 L2206.49,1894.3 L2204.27,1894.8 L2203.54,1895.29 L2204.03,1896.79 L2203.74,1897.43 L2201.21,1897.82 L2199.62,1899.2 L2199.34,1900.43 L2200.15,1901.99 L2199.96,1902.75 L2197.43,1903.19 L2196.33,1904.24 L2195.95,1905.32 L2197.34,1906.62 L2197.19,1907.07 L2195.23,1907.98 L2194.67,1908.83 L2194.23,1910.95 L2195.17,1911.83 L2195.24,1912.53 L2193.41,1913.4 L2193.01,1914.22 L2193.51,1915.32 L2194.72,1916.1 L2194.47,1917.28 L2194.06,1917.95 L2192.08,1918.25 L2190.85,1919.34 L2190.53,1920.27 L2191.2,1921.02 L2191.08,1922.6 L2186.95,1929.36 L2181.96,1939.98 L2184.37,1941.32 L2183.78,1942.26 L2183.76,1941.77 L2181.68,1940.63 L2180.89,1942.08 L2178.11,1940.51 L2175.15,1945.82 L2179.92,1948.52 L2183.16,1942.73 L2183.49,1942.92 L2179.68,1949.81 L2179.35,1949.68 L2179.77,1948.89 L2179.04,1948.48 L2177.29,1948.33 L2176.06,1948.84 L2174.37,1952.61 L2170.74,1959.02 L2170.44,1961.24 L2166.59,1964.76 L2164.41,1967.77 L2162.83,1971.07 L2162.75,1971.95 L2163.78,1973.32 L2164.86,1973.55 L2164.42,1974.45 L2163.7,1974.66 L2162.9,1975.71 L2162.7,1975.55 L2163.44,1974.64 L2161.53,1973.97 L2159.02,1974.28 L2157.85,1975.19 L2156.88,1976.2 L2156.61,1977.05 L2157.13,1977.9 L2158.37,1978.24 L2157.22,1978.15 L2156.06,1977.48 L2155.19,1977.61 L2153.39,1980.05 L2152.27,1980.23 L2150.47,1981.37 L2148.17,1984.34 L2142.39,1988.77 L2141.46,1989.14 L2139.59,1991.88 L2140.1,1993.55 L2140.71,1993.05 L2139.76,1994.46 L2139.51,1994.54 L2139.77,1993.94 L2139.26,1993.53 L2138.38,1993.49 L2136.52,1994.5 L2136.11,1996.15 L2136.38,1997.05 L2137.32,1996.96 L2137.2,1997.25 L2135.46,1997.38 L2136.19,1997.05 L2135.66,1996.54 L2134.43,1996.45 L2133.11,1997.45 L2132.52,1998.62 L2132.9,2000.18 L2133.96,1999.53 L2132.08,2001.18 L2132.51,2000.43 L2132.31,2000.19 L2130.41,1999.74 L2129.35,2000.15 L2128.62,2001.17 L2128.91,2002.56 L2129.91,2002.72 L2128.06,2003.12 L2128.42,2002.87 L2127.93,2002.32 L2127.01,2002.22 L2126.01,2002.65 L2125.81,2003.49 L2126.07,2004.37 L2126.61,2004.15 L2126.34,2004.47 L2124.42,2006.31 L2124.66,2005.78 L2123.86,2005.5 L2122.19,2006.2 L2121.36,2007.29 L2121.4,2008.39 L2122.54,2008.23 L2122.77,2008.52 L2120.59,2009.4 L2120.22,2009.19 L2119.71,2011.59 L2115.43,2015.14 L2114.73,2014.87 L2115.91,2013.91 L2114.79,2012.6 L2111.72,2014.76 L2113.32,2017.14 L2113,2017.87 L2112.42,2018.21 L2111.54,2018.09 L2110.01,2019.08 L2110.11,2018.64 L2109.27,2018.2 L2108.15,2018.22 L2107.49,2018.63 L2106.74,2020.05 L2107.1,2020.58 L2107.71,2020.45 L2106.34,2021.46 L2106.54,2021.09 L2105.72,2020.79 L2104.37,2021.55 L2104.01,2023.21 L2105.21,2023.32 L2103.87,2023.54 L2102.6,2024.7 L2101.96,2024.28 L2100.24,2025.12 L2099.61,2027.13 L2100.84,2027.18 L2099.72,2027.57 L2098.53,2028.68 L2098.85,2028.01 L2098.58,2027.75 L2096.99,2028.05 L2096.98,2028.78 L2095.8,2029.52 L2095.3,2030.74 L2095.53,2031.08 L2096.4,2031.01 L2095.52,2031.33 L2094.97,2030.82 L2094.15,2030.95 L2090.51,2033.81 L2090.1,2034.62 L2090.36,2035.15 L2089.22,2034.65 L2087.31,2035.53 L2086.45,2036.15 L2086.13,2036.99 L2086.56,2037.49 L2087.74,2037.77 L2086.7,2037.76 L2085.67,2037.02 L2085.07,2037.22 L2080.66,2040.9 L2079.69,2041.33 L2079.48,2042.65 L2078.17,2042.84 L2073.28,2046.44 L2068.36,2050.38 L2067.13,2052.04 L2065.13,2053.1 L2064.52,2054.32 L2062.89,2054.86 L2059.68,2058.06 L2058.5,2058.19 L2057.67,2058.81 L2057.09,2059.93 L2056,2059.69 L2055.83,2061.78 L2056.07,2062.07 L2056.49,2061.71 L2056.9,2062.29 L2056.66,2063.14 L2055.93,2063.67 L2055.27,2064.02 L2052.08,2063.39 L2051.49,2063.6 L2042.67,2069.47 L2036.15,2072.58 L2036.77,2074.37 L2034.01,2075.54 L2034.36,2076.37 L2034.12,2076.76 L2032.99,2076.42 L2031.47,2077.16 L2030.76,2080.04 L2028.89,2081.88 L2026.67,2081.97 L2028.89,2081.58 L2029.67,2080.8 L2030.66,2079.55 L2030.63,2077.93 L2026.06,2077.43 L2025.89,2078.33 L2026.34,2078.73 L2025.83,2078.38 L2025.53,2079.15 L2025.64,2077.91 L2024.63,2080.28 L2021.96,2080.02 L2022,2079.73 L2024.35,2079.58 L2024.73,2075.9 L2024.2,2075.83 L2024.24,2075.42 L2018.17,2074.79 L2017.24,2078.05 L2020.25,2081.37 L2022.48,2081.6 L2022.72,2081.92 L2022.63,2082.26 L2018.39,2081.98 L2016.84,2081.82 L2016.07,2081.2 L2014,2077.55 L2013.31,2076.78 L2013.18,2077.02 L2011.38,2074.77 L2010.96,2074.89 L2008.75,2073.81 L2006.55,2073.55 L2006.16,2073.86 L2004.89,2073.63 L2004.87,2073.35 L2004.37,2073.76 L2003.62,2073.74 L2002.73,2073.53 L2002.34,2072.99 L2001.93,2073.51 L2000.56,2073.16 L2000.15,2072.7 L1999.85,2072.94 L1998.86,2072.63 L1998.62,2072.09 L1997.97,2072.47 L1997.16,2072.23 L1996.49,2071.58 L1996.08,2072.07 L1990.77,2071.22 L1988.09,2069.63 L1985.59,2070.27 L1984.93,2069.79 L1983.72,2070.15 L1981.14,2068.37 L1979.42,2068.08 L1977.94,2069.44 L1976.61,2067.52 L1969.79,2068.3 L1962.13,2070.18 L1957.77,2071.79 L1950.95,2075.14 L1919.44,2092.86 L1808.65,2147.71 L1795.72,2155.23 L1761.04,2181.46 L1760.66,2182.6 L1759.46,2183.37 L1759.05,2185.4 L1759.23,2186.89 L1760.82,2187.65 L1760.75,2189.02 L1759.95,2189.61 L1759.37,2188.88 L1760.03,2189.32 L1760.57,2188.95 L1760.61,2187.92 L1758.56,2186.95 L1757.29,2187.9 L1758.68,2189.69 L1759.2,2189.39 L1759.16,2190.16 L1759.73,2190.97 L1756.65,2190.54 L1753.88,2190.66 L1752.84,2191.64 L1753.2,2193.58 L1752.64,2192.92 L1750.13,2193.24 L1748.88,2194.18 L1748.89,2195.23 L1749.39,2196.1 L1748.34,2195.27 L1746.5,2195.59 L1744.26,2197.22 L1744.05,2197.97 L1744.77,2199.42 L1744.04,2198.34 L1741.95,2199.28 L1740.72,2201.19 L1740.12,2203.11 L1743.74,2208.19 L1737.62,2212.7 L1737.45,2212.46 L1743.06,2208.35 L1743.2,2207.93 L1738.41,2201.18 L1736.69,2202.37 L1737.37,2203.34 L1734.43,2205.55 L1735,2206.29 L1733.69,2207.31 L1733.89,2207.84 L1734.81,2207.47 L1734.87,2206.94 L1735.38,2207.15 L1736.08,2208.57 L1736.38,2208.37 L1736.79,2208.85 L1736.56,2209.2 L1737.12,2209.99 L1736.85,2210.4 L1735.55,2210.9 L1735.08,2210.46 L1735.1,2209.68 L1734.38,2209.58 L1732.68,2207.27 L1731.92,2207.22 L1730.5,2207.9 L1731.36,2209.14 L1730.89,2209.47 L1730.01,2208.23 L1727.63,2210.08 L1729.96,2213.07 L1730.99,2215.27 L1732.5,2216.64 L1733.84,2216.93 L1735.53,2216.52 L1736.54,2215.67 L1737.29,2213.74 L1737.59,2213.74 L1737.03,2215.58 L1736.16,2216.5 L1734.4,2217.22 L1732.28,2216.88 L1731.07,2215.89 L1730.04,2213.89 L1728.23,2211.8 L1726.75,2211.02 L1721.52,2214.62 L1714.69,2220.24 L1714.73,2221.1 L1715.42,2221.71 L1714.87,2222.35 L1715.11,2221.67 L1714.21,2221.46 L1712.22,2222.62 L1711.64,2223.36 L1711.2,2225.16 L1711.46,2225.63 L1712.4,2225.69 L1711.52,2225.8 L1710.49,2227.09 L1710.66,2226.32 L1709.82,2225.88 L1708.71,2226.03 L1707.93,2226.65 L1707.04,2229.05 L1707.26,2230.36 L1707.96,2231.01 L1708.31,2230.39 L1708.97,2230.26 L1709.06,2230.54 L1708.42,2230.68 L1707.83,2231.78 L1707.59,2231.64 L1707.83,2231.19 L1706.64,2230.59 L1704.56,2231.48 L1703.79,2233.06 L1703.89,2235.66 L1704.54,2236.36 L1704.9,2235.77 L1705.84,2235.9 L1705.05,2236 L1704.57,2236.73 L1703.11,2236.55 L1702.32,2237.12 L1701.79,2238.43 L1702.19,2242.48 L1702.63,2243.06 L1703.7,2242.06 L1703.85,2242.25 L1702.4,2243.64 L1700.33,2243.45 L1699.42,2243.72 L1697.58,2244.7 L1696.99,2245.41 L1695.61,2245.86 L1689.9,2256.73 L1687.78,2259.68 L1683.92,2263.94 L1683.98,2264.71 L1685.85,2266.62 L1686,2267.62 L1685.44,2268 L1682.77,2267.09 L1681.72,2268.14 L1684.28,2272.77 L1684.71,2275.14 L1684.26,2276.67 L1683.27,2277.89 L1682.63,2278.12 L1684.25,2275.61 L1684.34,2274.38 L1683.94,2273.14 L1682.31,2270.16 L1678.81,2268 L1681.87,2270.79 L1682.26,2271.55 L1682.07,2272.17 L1674.79,2277.17 L1667.95,2286.58 L1671,2289.1 L1671.51,2289.17 L1679.88,2280.65 L1680.66,2280.53 L1681.1,2281.1 L1681.05,2281.72 L1674.48,2288.71 L1675.88,2290.69 L1677.88,2289.27 L1678.12,2289.47 L1669.14,2296.59 L1668.28,2296.56 L1665.18,2293.11 L1663.07,2291.41 L1660.89,2294.57 L1659.43,2295.25 L1658.53,2295.11 L1654.68,2292.77 L1645.46,2292.46 L1644.12,2290.67 L1610.98,2300.87 L1603.15,2302.01 L1596.91,2301.82 L1591.24,2300.68 L1585.97,2298.79 L1552.96,2286.1 L1545.63,2281.97 L1545.1,2282.07 L1482.71,2350.63 L1479.59,2354.64 L1477.32,2359.03 L1478.76,2358.83 L1481.23,2359.17 L1483.75,2359.92 L1485.05,2360.97 L1485,2360.04 L1486,2360.85 L1487.26,2360.29 L1488.12,2360.44 L1487.26,2362.48 L1486.6,2361.68 L1486.07,2362.02 L1484.9,2365.36 L1485.39,2366.82 L1486.41,2367.38 L1488.1,2366.66 L1488.47,2365.95 L1488.15,2361.74 L1489.34,2360.78 L1489.68,2360.91 L1488.85,2362.52 L1489.48,2365.36 L1488.83,2367.75 L1488.23,2368.27 L1486.39,2368.49 L1485.88,2369.85 L1485.43,2369.88 L1485.52,2368.37 L1484.54,2367.53 L1483.8,2365.83 L1483.84,2364.96 L1484.73,2363.54 L1484.77,2362.42 L1483.52,2360.85 L1482.41,2360.44 L1478.27,2360.2 L1476.47,2361.22 L1475.47,2364.67 L1474.92,2370.15 L1475.42,2376.19 L1488.07,2416.19 L1495.94,2422.8 L1503.52,2420.66 L1516.28,2426.84 L1514.71,2437.33 L1514.41,2437.47 L1514.13,2437.06 L1514.55,2433.51 L1508.06,2430.59 L1508.41,2430.35 L1512.17,2431.99 L1512.72,2431.93 L1514.59,2428.16 L1514.45,2427.74 L1506.81,2424.33 L1505.23,2427.79 L1506.5,2428.86 L1505.75,2430.07 L1503.59,2428.96 L1504.74,2426.1 L1504.15,2423.59 L1503.66,2423.73 L1503.86,2424.53 L1502.41,2427.03 L1501.45,2424.45 L1500.93,2424.62 L1501.14,2425.45 L1499.66,2428.03 L1498.75,2425.24 L1498.2,2425.44 L1498.45,2426.24 L1496.96,2428.9 L1496.95,2428.06 L1496.58,2428.02 L1496.05,2426.19 L1495.29,2426.45 L1498.37,2435.15 L1496.61,2435.72 L1498.21,2440.67 L1498.35,2441.48 L1497.81,2441.84 L1499.9,2447.93 L1501.94,2447.62 L1501.86,2446.43 L1506.79,2444.87 L1508.24,2440.9 L1508.16,2440.04 L1508.73,2438.41 L1511.24,2438.29 L1511.74,2438.69 L1511.72,2439.69 L1508.04,2449.07 L1508.15,2449.53 L1509.72,2450.51 L1508.92,2450.77 L1507.01,2450.41 L1506.25,2450.85 L1504.91,2452.91 L1504.47,2455.74 L1504.91,2457.56 L1507.38,2461.57 L1506.54,2463.31 L1506.67,2464.86 L1509.96,2469.32 L1509.45,2471.98 L1509.81,2473.26 L1510.76,2474.49 L1512.74,2475.7 L1513.04,2477.34 L1511.87,2478.1 L1511.97,2479.46 L1512.75,2479.92 L1513.37,2478.94 L1514.55,2478.63 L1516.46,2479.5 L1516.38,2479.79 L1515.1,2479.01 L1513.96,2478.99 L1513.18,2479.51 L1512.88,2480.72 L1513.42,2482.32 L1516.25,2484.29 L1515.44,2484.15 L1515.33,2489.55 L1511.63,2491.04 L1510.43,2492.64 L1508.18,2499.84 L1508.33,2500.92 L1507.71,2502.39 L1507.9,2503.12 L1506.85,2503.91 L1505.96,2506.64 L1506.1,2507.22 L1505.33,2509.14 L1505.66,2509.8 L1505.2,2512 L1505.49,2514.28 L1506.26,2515.56 L1505.82,2517.7 L1505.08,2518.27 L1505.02,2520.31 L1506.23,2521.61 L1506.45,2522.48 L1506.08,2522.59 L1505.76,2522.05 L1504.63,2521.6 L1503.78,2521.7 L1500.11,2522.95 L1499.76,2523.74 L1501.19,2527.81 L1505.51,2526.59 L1506.5,2524.39 L1506.79,2525.08 L1506.15,2526.92 L1502.4,2528.29 L1500.47,2529.76 L1497.94,2534.71 L1496.91,2538.72 L1496.91,2539.88 L1497.5,2541.39 L1496.87,2542.38 L1497.42,2543.66 L1496,2546.41 L1495.53,2549.69 L1492.82,2559.69 L1492.56,2562.66 L1491.75,2563.66 L1489.77,2564.13 L1489.48,2564.7 L1489.42,2565.89 L1490.12,2568.61 L1489.21,2570.95 L1488.96,2574.4 L1488.61,2575.3 L1487.46,2575.91 L1486.98,2579.15 L1486.46,2579.55 L1485.62,2581.85 L1484.66,2581.88 L1484.7,2582.82 L1483.28,2585.13 L1482.72,2587.64 L1483.05,2588.42 L1480.17,2596.11 L1480.45,2596.63 L1479.8,2597.5 L1479.84,2598.28 L1477.18,2600.24 L1476.62,2601.46 L1476.68,2602.64 L1475.47,2604.3 L1477.08,2605.18 L1478.57,2608.49 L1479.67,2612.56 L1479.48,2613.82 L1477.4,2616.18 L1476.55,2618.8 L1475.76,2619.43 L1476.66,2616.58 L1477.77,2614.6 L1478.51,2611.54 L1477.75,2609.45 L1477.78,2608.11 L1477.08,2607.73 L1476.74,2606 L1474.9,2604.92 L1474.37,2606.92 L1474.73,2609.91 L1474.31,2610.69 L1476.5,2612.1 L1476.88,2615.24 L1476.41,2615.57 L1475.99,2615.06 L1475.85,2612.74 L1474.39,2611.99 L1473.46,2610.56 L1473.01,2611.48 L1472.04,2611.47 L1470.52,2615.89 L1472.26,2618.91 L1477.11,2621.39 L1477.4,2621.91 L1472.73,2621.42 L1471.65,2621.73 L1469.26,2626.39 L1468.26,2626.93 L1468.39,2627.68 L1467.81,2628.33 L1467.93,2629.17 L1467.39,2629.66 L1466.99,2631.28 L1467.06,2634.12 L1466.04,2635.58 L1465.41,2635.82 L1464.83,2638.23 L1465.1,2639.84 L1464.34,2642.1 L1463.85,2642.5 L1463.71,2645.03 L1462.21,2647.29 L1462.05,2648.42 L1461.41,2649.46 L1461.6,2650.08 L1460.73,2651.71 L1460.64,2653.76 L1459.52,2655.91 L1459.65,2656.69 L1458.5,2657.74 L1458.11,2659.41 L1458.3,2660.34 L1456.71,2664.14 L1456.72,2665.7 L1453.87,2672.67 L1453.86,2675.05 L1453.42,2675.93 L1454.05,2678.2 L1453.16,2681.03 L1452.45,2681.76 L1452.36,2683.36 L1445.38,2689.98 L1441.33,2688.9 L1440.12,2688.87 L1438.27,2689.65 L1434.39,2689.65 L1432.91,2691.23 L1430.31,2691.4 L1428.52,2692.38 L1427.65,2692.14 L1426.09,2692.65 L1425.63,2693.18 L1424.89,2693 L1421.56,2694.66 L1420.13,2694.72 L1419.25,2695.76 L1418.3,2695.35 L1416.45,2695.8 L1415.24,2696.57 L1413.68,2696.75 L1412.78,2698.13 L1410.75,2698.19 L1409.95,2698.89 L1408.61,2698.67 L1406.04,2699.16 L1405.39,2699.61 L1404.09,2699.32 L1401.63,2700.85 L1399.79,2700.52 L1398.89,2700.97 L1397.02,2701.05 L1396.43,2701.31 L1395.91,2702.24 L1391.7,2702.85 L1389.99,2703.59 L1389.73,2704.23 L1388.81,2704.31 L1388.47,2703.8 L1387.62,2703.64 L1386.95,2704.04 L1386.63,2704.9 L1385.96,2704.17 L1385.48,2704.23 L1385,2704.55 L1384.84,2705.61 L1383.7,2705.12 L1382.06,2705.05 L1380.24,2705.82 L1379.82,2706.9 L1378.55,2706.8 L1377.09,2707.45 L1376.14,2707.12 L1373.17,2707.61 L1372.15,2708.99 L1371.44,2708.57 L1370.78,2708.65 L1369.32,2710.12 L1368.43,2710.16 L1367.08,2709.47 L1366.32,2709.59 L1365.61,2710.15 L1365.32,2711.61 L1362.48,2711.89 L1361.8,2713.14 L1360.22,2712.12 L1358.58,2712.1 L1357.13,2714.38 L1356.45,2714.43 L1356.08,2713.38 L1354.48,2713.33 L1353.66,2713.86 L1353.64,2714.67 L1352.96,2715.45 L1351.85,2715.33 L1350.64,2715.76 L1350.38,2716.24 L1349.41,2716.1 L1346.57,2717.41 L1346.18,2718.07 L1346.89,2718.81 L1344.42,2720.7 L1344.24,2720.5 L1346.43,2718.81 L1344.71,2716.77 L1343.36,2717.76 L1342.66,2719.48 L1342.6,2718.27 L1341.14,2718.04 L1338.48,2719.05 L1338.95,2720.54 L1342.29,2719.48 L1342.69,2719.85 L1342.87,2722.33 L1342.52,2722.38 L1342.34,2720.4 L1338.63,2721.41 L1337.41,2721.14 L1313.46,2728.22 L1312.72,2728.98 L1311.06,2729.53 L1308.93,2730.12 L1308.8,2729.62 L1305.48,2730.57 L1300.76,2732.42 L1300.52,2732.95 L1298.54,2733.75 L1296.64,2734.09 L1296.2,2733.69 L1290.76,2734.86 L1276.93,2738.91 L1255.56,2746.61 L1255.91,2747.99 L1255.35,2746.7 L1250.93,2748.3 L1249.86,2749.46 L1250.56,2750.33 L1251.12,2750.22 L1251.58,2751.8 L1250.96,2750.46 L1249.05,2750.46 L1246.43,2751.22 L1246.02,2752.34 L1245.68,2752.15 L1245.11,2752.52 L1244.68,2752.29 L1244.26,2751.1 L1243.59,2750.98 L1242.91,2751.76 L1239.72,2752.49 L1238.12,2753.38 L1235.59,2752.98 L1235.35,2753.51 L1234.26,2754.09 L1231.79,2754.82 L1231.05,2754.56 L1227,2756.57 L1225.6,2756.05 L1225.06,2756.78 L1220.57,2757.97 L1219.93,2757.84 L1219.9,2757.08 L1219.34,2756.87 L1218.02,2757.72 L1217.96,2758.51 L1217.42,2758.68 L1216.99,2758.19 L1216.34,2758.23 L1213.66,2759.6 L1213.73,2760.35 L1213.31,2760.69 L1209.48,2760.8 L1200.31,2763.53 L1199.02,2766.06 L1186.57,2768.83 L1185.52,2768.71 L1183.47,2767.32 L1181.51,2768.11 L1180.91,2769.32 L1179.63,2769.09 L1178.43,2770.11 L1174.45,2770.33 L1172.8,2771.18 L1168.85,2772 L1168.62,2772.39 L1169.11,2774.12 L1168.5,2772.61 L1165.94,2773.96 L1164.48,2773.91 L1163.77,2774.53 L1157.46,2776.26 L1157.91,2777.99 L1157.27,2776.44 L1156.92,2777.44 L1155.51,2777.01 L1153.6,2777.04 L1153.43,2777.8 L1152.38,2778.46 L1150.89,2778.06 L1146.21,2778.33 L1145.32,2778.68 L1145.32,2780.23"/>
   <path fill-rule="evenodd" vector-effect="none" d="M2051.66,1235.3 L2045.19,1235.12 L2042.85,1234.38 L2041.1,1233.22 L2038.94,1229.99 L2038.29,1225.92 L2037.53,1224.13 L2027.08,1224.04 L2025.87,1223.61 L2025.07,1222.37 L2021.31,1223.46 L2021.27,1223.05 L2024.42,1221.79 L2023.8,1219.71 L2022.78,1218.37 L2021.36,1217.3 L2019.41,1216.68 L2017.24,1217.36 L2016.2,1218.27 L2017.9,1221.44 L2014.39,1216.19 L2013,1216.12 L2012,1215.11 L1808.91,1214.22 L1802.39,1213.39 L1795.6,1211.28 L1787.67,1207.13 L1785.58,1206.73 L1786.99,1206.8 L1784.04,1204.21 L1782.4,1203.57 L1780.01,1203.83 L1774.68,1208.53 L1773.7,1208.6 L1772.59,1208.11 L1771.49,1206.52 L1771.56,1205.04 L1778.78,1199.17 L1778.86,1198.37 L1686.96,1054.39 L1683.34,1050.23 L1679.38,1046.89 L1647.04,1024.65 L1645.19,1022.81 L1645.14,1022.02 L1645.72,1021.71 L1647.08,1022.15 L1648.23,1021.47 L1648.08,1020.41 L1637.87,1020.01 L1637.83,1019.64 L1638.86,1019.46 L1645.07,1019.49 L1648.41,1019.13 L1648.45,1018.69 L1650.38,1018.99 L1650.43,1018.65 L1648.64,1018.42 L1648.7,1017.84 L1646.85,1016.7 L1646.73,1014.32 L1646.43,1014.02 L1645.05,1013.99 L1644.53,1014.54 L1644.31,1014.32 L1644.93,1013.59 L1646.73,1013.57 L1646.76,1011.35 L1647.27,1011.31 L1647.24,1009.71 L1646.77,1009.63 L1646.66,1008.33 L1641.52,1008.64 L1641.66,1014.11 L1634.18,1014.55 L1632.78,1012.72 L1632.18,1012.53 L1632.37,1012.23 L1636.95,1011.94 L1636.81,1008.24 L1631.9,1008.46 L1631.9,1007.81 L1638.81,1007.5 L1639.24,1005.79 L1638.79,1004.81 L1631.42,1006.37 L1623.24,1005.67 L1623.16,1006.56 L1626.21,1008.03 L1629.72,1008.02 L1631.16,1013.82 L1632.62,1016.52 L1635.43,1023.49 L1635.82,1024.64 L1635.55,1024.84 L1631.82,1016.14 L1630.51,1014.99 L1629.94,1014.89 L1628.66,1015.51 L1629.78,1014.39 L1628.62,1012.14 L1626.12,1009.75 L1625.32,1009.58 L1624.55,1010.59 L1624.86,1009.28 L1624.49,1008.15 L1623.89,1007.52 L1619.08,1005.67 L1618.51,1004.17 L1620.12,998.71 L1619.43,996.211 L1619.54,995.274 L1619.77,997.072 L1620.77,997.018 L1622.26,995.347 L1622.64,993.61 L1622.44,992.375 L1621.57,991.647 L1620.72,992.643 L1622.66,989.74 L1622.94,981.214 L1622.75,965.705 L1623.02,964.812 L1623.46,944.622 L1628.38,561.814 L1628.74,557.412 L1629.56,553.17 L1632.14,545.65 L1636.11,538.776 L1799.36,275.786 L1805.07,268.708 L1809.11,265.184 L1814.33,261.842 L1818.16,260.1 L1824.46,258.137 L1915.22,247.112 L1915.5,246.506 L1914.73,239.438 L1914.94,239.006 L1915.38,239.319 L1916.45,246.857 L1918.31,246.976 L1918.64,246.681 L1932.03,245.117 L1935.22,243.69 L1937.89,240.604 L1938.64,238.941 L1938.76,236.859 L1940.31,232.4 L1938.14,231.8 L1937.9,231.372 L1938.4,231 L1940.66,231.5 L1940.77,231.152 L1942.72,231.712 L1942.79,231.438 L1940.85,230.895 L1941.05,229.665 L1945.33,230.969 L1945.02,233.233 L1953.09,234.759 L1964.78,238.431 L1966.98,239.347 L1968.38,239.934 L1969.07,240.221 L1969.89,240.758 L1976.21,244.9 L1981.95,250.669 L1984.36,249.228 L1983.35,247.503 L1983.57,247.04 L1983.08,246.18 L1982.57,246.046 L1981.06,243.221 L1978.8,237.452 L1972.15,210.677 L1972.26,207.848 L1971.4,204.263 L2035.3,223.129 L2115.42,305.742 L2129.52,320.457 L2135.68,347.599 L2138.77,365.342 L2139.72,369.15 L2143.88,380.854 L2158.11,368.454 L2168.92,391.39 L2180.08,410.785 L2186.57,419.543 L2215.52,445.406 L2220.29,451.18 L2219.21,454.17 L2220.65,464.05 L2245.42,460.334 L2266.9,459.931 L2269.69,462.617 L2281.1,462.116 L2283.57,463.61 L2283.54,464.708 L2286.04,465.121 L2302.5,463.866 L2309.79,468.058 L2330.47,476.662 L2352.88,492.774 L2371.09,508.068 L2381.91,514.166 L2389.91,522.374 L2396.36,531.456 L2420.85,549.696 L2425.36,559.814 L2435.87,566.934 L2451.64,566.364 L2495.51,612.899 L2515.58,661.484 L2529.9,702.313 L2546.65,764.854 L2548.43,768.995 L2571.22,782.473 L2582.22,802.832 L2580.96,818.105 L2592.01,817.687 L2607.41,842.857 L2608.28,862.674 L2600.21,876.74 L2593.04,878.489 L2575.4,899.07 L2572.14,900.328 L2566.87,897.001 L2554.13,910.112 L2555.9,911.908 L2525.43,941.573 L2522.46,951.714 L2523.35,960.123 L2528.81,968.988 L2540.94,970.729 L2541.93,963.779 L2545.88,963.385 L2556.89,967.902 L2578.79,975.8 L2589.79,975.208 L2599.66,978.563 L2602.72,981.371 L2607.79,982.436 L2612.78,980.577 L2615.64,983.432 L2623.27,986.653 L2633.16,997.212 L2646.4,1007.15 L2653.4,1016.52 L2653.37,1016.6 L2653.16,1017.16 L2651.93,1016.63 L2650.88,1017.64 L2651.18,1017.94 L2650.89,1018.23 L2657.41,1024.89 L2658.02,1026.38 L2657.97,1027.41 L2657,1029.27 L2654.57,1032.31 L2616.5,1091.29 L2612.59,1095.76 L2608.87,1099.17 L2604.51,1102.12 L2598.95,1104.77 L2430.22,1160.26 L2428.55,1161.46 L2425.93,1162.25 L2424.63,1162.17 L2306.63,1200.82 L2306.54,1200.54 L2306.08,1200.69 L2305.92,1201.08 L2294.94,1204.64 L2294.57,1205.31 L2291.04,1206.62 L2290.68,1206.38 L2285.74,1208.02 L2284.68,1208.84 L2283.51,1209.01 L2282.85,1208.52 L2276.07,1210.68 L2275.28,1211.54 L2275.33,1212.04 L2274.91,1212.17 L2274.62,1211.52 L2273.84,1211.52 L2259.96,1215.94 L2255.06,1216.44 L2039.33,1215.16 L2034.94,1217.25 L2032.76,1217.24 L2032.76,1217.58 L2028.94,1217.54 L2028.92,1217.15 L2027.06,1217.3 L2026.97,1221.43 L2027.37,1222.23 L2037.31,1222.32 L2038.37,1222.75 L2038.97,1223.9 L2039.46,1229.86 L2040.66,1232.02 L2042.4,1233.58 L2045.26,1234.62 L2052.15,1234.82 L2052.18,1235.19 L2051.66,1235.3"/>
   <path fill-rule="evenodd" vector-effect="none" d="M1181.1,1577.84 L1181.04,1584.68 L1183,1584.92 L1183.35,1585.36 L1183.03,1589.95 L1182.58,1590.29 L1181.28,1590.24 L1179.11,1615.82 L1178.61,1616.52 L1178.19,1616.55 L1177.47,1615.76 L1178.5,1598.91 L1178.03,1588.38 L1171.64,1587.96 L1172.18,1581.75 L1173.07,1579.82 L1174.74,1578.36 L1178.94,1577.67 L1179.16,1577.32 L1180.39,1557.69 L1181.1,1552.09 L1183.49,1541.48 L1206.54,1484.24 L1213.44,1467.58 L1215.64,1463.25 L1218.94,1457.63 L1224.67,1450.1 L1231.02,1443.29 L1236,1439.04 L1243.79,1433.65 L1252.58,1429.08 L1259.24,1426.45 L1276.89,1420.81 L1282.04,1418.4 L1285.14,1415.59 L1286.78,1413.57 L1288.51,1410.49 L1289.7,1407.16 L1290.28,1401.62 L1289.71,1397.92 L1263.17,1309.58 L1260.15,1302.68 L1256.44,1295.95 L1142.61,1111.81 L1130.6,1092.94 L1128.12,1093.93 L1126.54,1092.34 L1122.9,1084.55 L1123.33,1084.4 L1121.5,1082.86 L1121.4,1082.08 L1120.7,1081.27 L1119.99,1078.4 L1121.24,1078.57 L1122.71,1081.16 L1122.25,1081.52 L1123.26,1081.99 L1123.38,1082.67 L1124.23,1083.33 L1124.34,1084.43 L1125.01,1084.91 L1128.64,1090.79 L1129.02,1091.26 L1129.46,1091.1 L1108.78,1058.06 L1101.14,1048.95 L1044.93,988.511 L1008.35,949.353 L1002.3,943.637 L994.307,937.782 L986.047,933.188 L866.46,880.003 L862.644,878.71 L858.86,878.782 L857.772,878.495 L857.258,878.085 L857.903,876.782 L852.91,875.158 L849.471,875.27 L845.711,875.993 L838.708,878.647 L839.698,880.569 L841.857,880.362 L842.741,880.872 L844.656,879.783 L846.308,880.504 L847.02,881.503 L846.452,884.811 L845.488,886.643 L843.949,887.902 L842.591,890.31 L841.59,891.442 L839.801,892.594 L838.813,895.767 L835.366,897.628 L832.789,898.529 L831.832,899.386 L832.074,901.017 L831.402,902.799 L829.805,903.191 L829.519,903.587 L828.479,902.654 L826.974,902.046 L825.721,902.155 L823.468,904.528 L823.827,905.497 L821.804,906.568 L820.821,908.518 L819.499,909.202 L814.04,908.671 L812.907,907.38 L811.082,908.172 L810.365,909.035 L808.434,909.649 L810.257,911.363 L810.365,912.301 L811.181,913.194 L812.556,912.911 L818.753,914.087 L820.48,913.339 L823.629,913.986 L824.767,913.784 L825.602,912.793 L826.256,912.642 L828.192,913.033 L829.516,912.816 L833.399,911.018 L836.27,912.951 L838.883,911.978 L839.313,911.619 L838.561,911.512 L838.023,910.615 L838.126,907.785 L843.172,904.977 L844.205,902.61 L845.489,901.609 L844.919,900.346 L846.487,897.37 L848.527,896.48 L852.354,892.85 L853.894,892.415 L854.251,891.445 L853.604,888.788 L853.852,886.742 L854.268,886.113 L855.069,885.806 L856.967,885.875 L858.399,883.756 L854.86,891.588 L847.641,904.434 L844.549,907.902 L839.464,912.005 L833.603,914.881 L828.745,916.254 L825.471,916.759 L818.504,916.483 L812.572,915.065 L808.989,913.454 L803.002,909.26 L799.775,905.926 L797.551,903.146 L797.478,902.787 L798.524,901.635 L812.872,903.699 L818.637,903.116 L821.372,902.394 L826.562,899.801 L831.094,895.931 L833.025,893.558 L835.633,888.562 L837.024,883.424 L837.518,879.021 L834.762,878.919 L835.79,871.633 L836.681,869.225 L837.794,869.073 L837.865,868.724 L839.169,868.722 L839.793,854.169 L838.908,841.544 L839.928,838.499 L841.368,836.683 L867.028,816.813 L867.19,817.123 L842.335,836.418 L841.169,837.452 L840.093,839.26 L839.456,841.335 L840.32,854.512 L839.673,868.727 L847.865,869.927 L854.989,872.328 L988.775,931.844 L992.604,933.837 L999.914,938.736 L1008.77,946.341 L1105.67,1050.02 L1110.3,1055.66 L1116.27,1064.82 L1142.68,1107.84 L1144.85,1108.25 L1144.56,1109.98 L1146.68,1113.41 L1152.94,1109.37 L1153.4,1109.31 L1154.07,1109.96 L1157.61,1115.29 L1160.74,1121.06 L1160.23,1121.27 L1159.44,1120.33 L1158.06,1118.18 L1156.65,1116.8 L1154.15,1112.75 L1149.18,1115.63 L1153.13,1121.83 L1155.99,1120.1 L1156.69,1120.31 L1156.84,1121.41 L1153.63,1123.46 L1153.39,1123.96 L1157.5,1131.81 L1255.8,1290.25 L1260.98,1298.85 L1264.68,1306.86 L1291.95,1398.11 L1292.29,1404.23 L1291.4,1408.74 L1290.37,1411.54 L1288.09,1415.11 L1285.23,1418.18 L1282.01,1420.54 L1279.04,1421.92 L1259.53,1428.29 L1252.5,1431.04 L1247.56,1433.51 L1239.77,1438.5 L1230.32,1446.68 L1225.27,1452.45 L1219.96,1459.85 L1217,1465.01 L1211.69,1477.09 L1185.78,1540.87 L1183.82,1547.7 L1182.72,1554.19 L1181.1,1577.84"/>
   <path fill-rule="evenodd" vector-effect="none" d="M1124.51,1367.42 L1126.4,1375.82 L1127.72,1386.39 L1126.21,1395.1 L1121.86,1403.81 L1116.38,1408.48 L1110.9,1414.08 L1104.09,1417.5 L1101.82,1421.23 L1101.26,1426.52 L1100.17,1427.84 L1095.02,1426.83 L1065.52,1395.1 L1038.87,1367.73 L1025.45,1357.46 L1016.94,1346.57 L1009.38,1338.79 L1006.35,1337.24 L1004.84,1338.79 L1002.95,1338.79 L1000.87,1335.06 L997.654,1323.86 L994.629,1309.54 L992.36,1284.95 L993.116,1278.42 L994.531,1273.47 L995.624,1273.13 L996.141,1273.9 L996.141,1276.24 L998.788,1277.17 L1002.03,1276.82 L1040.02,1261.92 L1040.87,1260.68 L1041.06,1259.43 L1040.59,1258.65 L1038.79,1257.56 L1037.73,1255.7 L1038.05,1254.53 L1039.44,1252.35 L1042.27,1250.71 L1055.32,1244.8 L1062.69,1239.82 L1065.56,1239.51 L1066.42,1240.35 L1067.07,1242.02 L1067.58,1245.03 L1067.23,1246.98 L1065.15,1246.67 L1061.93,1245.42 L1047.94,1252.89 L1045.11,1255.07 L1045.34,1258.42 L1046.81,1259.74 L1048.32,1264.1 L1054.37,1270.01 L1056.26,1269.39 L1060.04,1270.64 L1062.69,1274.06 L1069.12,1285.58 L1071.39,1293.05 L1071.95,1298.34 L1071.95,1302.38 L1072.71,1305.18 L1073.65,1306.74 L1077.62,1306.74 L1079.7,1305.18 L1081.03,1303.01 L1082.54,1302.07 L1085.94,1305.18 L1091.24,1317.94 L1095.96,1331.95 L1097.1,1337.24 L1099.74,1337.55 L1102.39,1336.93 L1104.85,1335.37 L1109.95,1334.75 L1112.98,1337.86 L1119.03,1348.13 L1124.51,1367.42"/>
   <path fill-rule="evenodd" vector-effect="none" d="M2053.03,1224.76 L2051.46,1226.1 L2050.51,1228.94 L2050.14,1228.95 L2050.46,1226.99 L2051.99,1224.92 L2060.56,1220.25 L2255.95,1221.15 L2263.57,1219.77 L2275.7,1215.83 L2275.73,1214.69 L2276.24,1214.51 L2276.78,1215.47 L2283.79,1213.17 L2285.69,1211.94 L2287.9,1211.85 L2301.98,1206.8 L2303.24,1206.8 L2329.85,1198.28 L2320.47,1201.84 L2318.32,1203.24 L2316.02,1203.31 L2314.74,1204.73 L2312.92,1204.8 L2312.21,1205.53 L2311.13,1205.81 L2309.88,1205.59 L2306.83,1207.53 L2305.78,1207.41 L2304.92,1206.82 L2299.79,1208.55 L2298.91,1209.4 L2297.35,1209.34 L2291.77,1211.37 L2289.02,1211.87 L2289.27,1212.58 L2288.48,1213.25 L2288.29,1214.48 L2286.72,1215.26 L2284.23,1215.54 L2283.3,1215.26 L2282.14,1214.18 L2276.92,1215.87 L2277.8,1218.38 L2277.33,1219.16 L2276.74,1218.69 L2275.87,1216.22 L2263.12,1220.33 L2256.94,1221.47 L2060.8,1220.62 L2053.03,1224.76"/>
   <path fill-rule="evenodd" vector-effect="none" d="M1162.55,1665.67 L1158.46,1670.14 L1143.42,1684.34 L1128.58,1697.32 L1097.05,1728.03 L1096.59,1727.94 L1096.55,1727.44 L1126.85,1697.52 L1150.2,1676.75 L1159.83,1667.31 L1159.45,1664.27 L1160.05,1664.3 L1160.81,1666 L1163.41,1663.07 L1178.58,1658.26 L1179.17,1658.4 L1178.55,1659.04 L1164.42,1663.47 L1162.55,1665.67"/>
   <path fill-rule="evenodd" vector-effect="none" d="M2010.64,1252.67 L2006.68,1254.92 L2003.34,1257.49 L2003.15,1258.1 L2003.45,1258.9 L2002.66,1258.9 L2003.71,1260.42 L2000.16,1265.51 L1998.04,1269.99 L1998.57,1270.05 L2001.25,1264.54 L2004.33,1260.42 L2003.73,1259.44 L2004.71,1259.92 L2006.56,1257.82 L2011.41,1255.06 L2017.03,1253.54 L2022.94,1253.76 L2029.34,1255.47 L2032.87,1257.9 L2036.23,1260.89 L2039.31,1265.46 L2041.11,1270.14 L2041.72,1275.31 L2041.03,1280.6 L2040.16,1283.68 L2038.11,1287.35 L2036.27,1289.8 L2032.78,1293.24 L2030.29,1294.55 L2028.64,1297.15 L2028.79,1298.92 L2030.16,1300.81 L2030.48,1300.54 L2029.18,1298.67 L2029.09,1297.33 L2030.23,1295.01 L2031.84,1294.53 L2032.61,1295.34 L2035.18,1296.24 L2034.96,1301.82 L2032.57,1301.97 L2031.92,1302.39 L2034.76,1306.5 L2036.32,1309.68 L2038.04,1317.19 L2038.78,1317.88 L2042.12,1318.44 L2042.4,1319.2 L2042.09,1319.66 L2037.26,1318.77 L2036.01,1318.14 L2035.09,1310.63 L2033.84,1307.62 L2030.24,1302.73 L2025.66,1299.36 L2023.21,1298.27 L2019.59,1297.41 L2018.35,1299.11 L2018.78,1299.38 L2017.66,1301.01 L2017.21,1300.69 L2013.92,1305.38 L2012.39,1305.43 L2011.29,1306.96 L2011.71,1307.2 L2011.42,1307.57 L2011.06,1307.32 L2010.87,1307.76 L2015.58,1311.04 L2018.55,1312.45 L2026.9,1314.95 L2028.84,1315.04 L2029.44,1315.88 L2028.92,1316.71 L2018.74,1314.23 L2014.89,1312.6 L2010.89,1310.23 L2007.82,1307.83 L2004.53,1304.6 L2002.8,1302.5 L1999.83,1297.46 L1997.41,1290.93 L1996.42,1285.3 L1996.55,1277.8 L1997.58,1273.09 L1996.72,1267.88 L1997.07,1264.12 L1998.3,1261.17 L1999.77,1259.79 L2001.92,1258.91 L2003.3,1257 L2006.5,1254.64 L2009.75,1252.71 L2013.84,1250.97 L2018.5,1249.95 L2013.99,1251.19 L2010.64,1252.67"/>
   <path fill-rule="evenodd" vector-effect="none" d="M1208.9,1542.63 L1209.14,1543.1 L1199.56,1564.49 L1198.68,1568.1 L1198.34,1573.51 L1200.39,1573.65 L1200.71,1574.88 L1201.43,1574.91 L1201.71,1580.64 L1200.98,1591.9 L1199.9,1597.57 L1199.05,1597.52 L1198.83,1599.11 L1196.6,1599.06 L1195.16,1619.08 L1194.92,1618.88 L1196.09,1599.03 L1190.43,1598.47 L1189.95,1590.82 L1188.59,1590.56 L1188.27,1589.9 L1188.61,1585.68 L1189,1585.29 L1190.28,1585.33 L1191.51,1578.79 L1197.3,1578.92 L1197.82,1569.87 L1198.55,1564.97 L1208.36,1542.85 L1208.9,1542.63"/>
   <path fill-rule="evenodd" vector-effect="none" d="M2713.22,1059.82 L2714.84,1059.44 L2717.34,1060.71 L2721.32,1061.59 L2725.81,1065.09 L2726.36,1066.26 L2727.6,1067.48 L2728.85,1070.56 L2729.46,1070.75 L2729.14,1071.11 L2730.01,1072.3 L2730.6,1074.85 L2731.32,1074.7 L2731.86,1075.35 L2731.25,1076.16 L2731.57,1078.13 L2731.44,1079.17 L2730.8,1079.8 L2730.84,1083.11 L2730.37,1084 L2726.32,1086.39 L2723.61,1086.87 L2723.09,1085.91 L2722.28,1085.78 L2721.7,1085.15 L2721.74,1083.94 L2720.64,1084.9 L2718.38,1083.92 L2716.06,1083.59 L2714.01,1080.94 L2711.95,1081.57 L2709.95,1081.25 L2707.73,1079.2 L2707.53,1078.37 L2704.41,1077.13 L2702.14,1074.97 L2701.81,1073.98 L2700.72,1073.94 L2700.53,1072.76 L2699.25,1072.44 L2698.63,1071.74 L2697.93,1068.1 L2698.23,1066.17 L2697.76,1064.29 L2698.16,1062.95 L2699.18,1061.63 L2704.2,1059.79 L2705.81,1059.75 L2706.04,1059.07 L2706.7,1058.66 L2710.34,1058.77 L2713.22,1059.82"/>
   <path fill-rule="evenodd" vector-effect="none" d="M1174.54,1644.51 L1181.19,1646.63 L1181.38,1647.24 L1172.69,1644.83 L1170.85,1650.39 L1169.72,1652.1 L1156.62,1655.91 L1156.67,1655.37 L1169.03,1651.61 L1169.81,1651 L1179.08,1621.23 L1179.72,1620.88 L1179.93,1621.57 L1172.94,1644.03 L1174.54,1644.51"/>
   <path fill-rule="evenodd" vector-effect="none" d="M2026.58,1251.21 L2028.66,1251.77 L2029.08,1251.45 L2029.79,1252.03 L2032.09,1251.74 L2037.67,1254.32 L2038.72,1253.4 L2039.22,1253.94 L2040,1253.95 L2039.63,1254.68 L2039.94,1255.29 L2042.88,1257.74 L2046.67,1261.97 L2047.88,1261.94 L2048.77,1263.59 L2049.31,1263.8 L2048.95,1264.24 L2048.85,1265.97 L2049.52,1267.34 L2049.99,1267.52 L2049.76,1267.94 L2050.61,1270.58 L2051.83,1269.98 L2051.72,1269.46 L2050.36,1269.14 L2051.05,1268.77 L2051.88,1267.4 L2051.64,1267.02 L2051.88,1265.83 L2051.33,1265.88 L2050.91,1265.31 L2051.3,1264.7 L2052.78,1266.92 L2054.78,1271.72 L2054.75,1272.74 L2053.61,1273.37 L2051.61,1276.13 L2051.75,1276.69 L2054.18,1274.17 L2054.37,1274.34 L2051.78,1277.19 L2051.49,1277.09 L2051.27,1279.48 L2047.86,1279.74 L2046.57,1278.7 L2046.1,1277.77 L2045.77,1274.66 L2046.92,1272.25 L2046.25,1269.05 L2046.52,1265.68 L2045.91,1263.33 L2044.58,1261.37 L2041.52,1258.38 L2038.89,1257.31 L2038.02,1256.31 L2037.79,1254.89 L2037.18,1254.54 L2036.92,1254.72 L2037.36,1255.82 L2035.96,1256.56 L2036.16,1257.34 L2033.73,1257.66 L2032.33,1256.38 L2032.03,1255.33 L2031.24,1255.23 L2031.1,1254.66 L2028.72,1254.39 L2030.95,1254.05 L2031.65,1253.51 L2034.42,1254.66 L2034.84,1254.42 L2030.48,1252.53 L2029.72,1253.87 L2028.94,1253.9 L2029.31,1252.95 L2028.88,1252.05 L2028.3,1252.24 L2028.59,1252.82 L2028.32,1253.35 L2026.98,1253.26 L2025.38,1252.16 L2025.64,1251.32 L2026.58,1251.21"/>
   <path fill-rule="evenodd" vector-effect="none" d="M2039.2,1258.2 L2040.49,1258.33 L2041.96,1259.36 L2044.49,1262.09 L2045.6,1264.36 L2046.41,1272.66 L2045.21,1274.51 L2045.32,1276.55 L2046.12,1279.03 L2048.1,1281.06 L2043.72,1289.88 L2043.18,1290.17 L2043.24,1292.14 L2041.27,1297.56 L2040.51,1297.52 L2040.45,1296.48 L2040.03,1296.12 L2038.38,1296.27 L2036.13,1295.7 L2035.89,1296.16 L2032.28,1294.52 L2032.29,1294.2 L2033.22,1293.81 L2034.57,1295.21 L2035.56,1295.04 L2034.37,1294.57 L2033.44,1293.68 L2038.29,1287.59 L2038.92,1288.03 L2041.46,1280.71 L2042.07,1275.1 L2041.33,1269.39 L2040.18,1266.43 L2036.85,1261.16 L2036.67,1260.36 L2035.18,1259.03 L2036.29,1257.52 L2037.19,1256.99 L2037.94,1257.04 L2039.2,1258.2"/>
   <path fill-rule="evenodd" vector-effect="none" d="M2056.45,1287.45 L2056.33,1288.1 L2055.41,1289.1 L2054.12,1289.39 L2053.93,1290.65 L2055.72,1292.34 L2055.78,1292.78 L2056.78,1293.19 L2056.48,1288.83 L2057.15,1288.51 L2057.62,1289.55 L2056.71,1289.54 L2057,1291.46 L2058.24,1291.23 L2058.49,1291.6 L2058.17,1294.04 L2058.61,1294.47 L2058.57,1295.23 L2058.26,1295.72 L2057.42,1295.89 L2057.28,1296.51 L2057.74,1297.69 L2058.91,1298.22 L2058.59,1298.72 L2058.85,1299.24 L2058.56,1303.89 L2058.86,1304.41 L2058.53,1305.27 L2059.23,1307.51 L2059.25,1309.02 L2058.82,1309.88 L2059.54,1311.29 L2058.94,1311.49 L2058.89,1312.21 L2058.17,1313.16 L2058.94,1313.66 L2058.85,1315.17 L2058.27,1317.2 L2056.84,1319.28 L2056.13,1319.29 L2055.89,1320 L2055.26,1319.58 L2054.19,1320.54 L2053.63,1320.7 L2053.6,1320.32 L2053.09,1320.28 L2052,1320.91 L2051.68,1320.61 L2050.43,1321.01 L2049.32,1320.09 L2047.63,1319.61 L2047.13,1318.87 L2047.63,1318.08 L2052.64,1319.39 L2054.2,1319.36 L2054.86,1318.97 L2052.3,1318.95 L2050.49,1317.97 L2049.35,1318.26 L2048.28,1317.81 L2047.45,1315.88 L2045.19,1314.39 L2044.68,1313.44 L2044.3,1310.83 L2044.36,1304.41 L2044.9,1299.21 L2046.03,1295.21 L2045.9,1293.44 L2048.09,1290.65 L2049.76,1290.07 L2049.66,1289.17 L2050.49,1290.07 L2053.37,1289.34 L2054.34,1285.92 L2053.53,1284.77 L2054.86,1285.62 L2056.24,1285.97 L2056.25,1286.68 L2056.72,1287.1 L2056.45,1287.45"/>
   <path fill-rule="evenodd" vector-effect="none" d="M931.739,1847.45 L931.329,1843.75 L952.549,1828.78 L958.776,1828.33 L952.729,1829.03 L940.023,1837.98 L931.501,1844.03 L931.739,1847.45"/>
   <path fill-rule="evenodd" vector-effect="none" d="M2335.9,1599.7 L2337.72,1602.38 L2338.25,1604.29 L2336.51,1608.42 L2336.27,1609.86 L2334.68,1612.29 L2333.45,1613.32 L2332.24,1613.43 L2329.19,1612.23 L2329.78,1613.48 L2329.06,1615.39 L2329.47,1617.67 L2329.25,1618.63 L2328.34,1618.5 L2327.69,1617.85 L2326.9,1614.28 L2327.26,1608.86 L2326.46,1602.71 L2325.81,1600.47 L2326.92,1599.06 L2327.02,1597.9 L2327.54,1597.28 L2327.65,1599.55 L2328.13,1599.67 L2328.24,1596.5 L2330.18,1594.25 L2331.12,1593.88 L2332.6,1594.45 L2335.05,1597.23 L2335.9,1599.7"/>
   <path fill-rule="evenodd" vector-effect="none" d="M2289.25,1762.24 L2290.66,1764.34 L2291.62,1765.01 L2292.73,1767.28 L2292.34,1770.56 L2289.98,1775.37 L2289.59,1779.61 L2288.54,1782.43 L2287.09,1784.6 L2286.32,1784.98 L2285.62,1786.51 L2284.49,1787.06 L2283.56,1786.22 L2281.29,1785.32 L2280.95,1783.14 L2281.46,1782.32 L2281.1,1780.77 L2281.3,1780.25 L2280.83,1780.06 L2280.85,1779.28 L2281.66,1777.72 L2282.29,1775.44 L2282.27,1774 L2282.82,1772.62 L2283.69,1772.13 L2284.43,1770.36 L2284.81,1770.03 L2285.12,1770.23 L2285.71,1767.96 L2287.52,1765.34 L2286.91,1764.88 L2286.54,1763.93 L2287.28,1762.75 L2289.33,1765.56 L2290.37,1765.22 L2289.73,1764.3 L2289.53,1764.44 L2289.75,1764.03 L2288.56,1762.36 L2288.2,1762.61 L2288.03,1762.3 L2288.38,1761.98 L2289.25,1762.24"/>
   <path fill-rule="evenodd" vector-effect="none" d="M833.343,869.125 L834.607,869.293 L834.645,871.376 L833.222,878.67 L831.82,878.32 L831.483,878.72 L824.119,878.53 L817.875,879.803 L814.84,879.581 L811.916,878.731 L813.417,872.954 L815.604,873.973 L828.153,870.147 L833.343,869.125"/>
   <path fill-rule="evenodd" vector-effect="none" d="M1881.03,2185.79 L1878.2,2181.47 L1878.33,2176.96 L1877.1,2171.82 L1877.67,2171.97 L1880.31,2177.35 L1881.82,2176.67 L1882.21,2177.44 L1879.33,2178.89 L1881.53,2183.31 L1889.33,2179.45 L1887.54,2175.59 L1885.81,2174.93 L1885.36,2174.39 L1885.49,2173.27 L1886.72,2172.39 L1887.92,2172.14 L1889.17,2173.21 L1891.46,2174.07 L1892.71,2177.36 L1891.34,2180.71 L1885.85,2184.08 L1882.29,2185.83 L1881.21,2186.05 L1881.03,2185.79"/>
   <path fill-rule="evenodd" vector-effect="none" d="M2038.33,1299.1 L2038.74,1299.16 L2038.82,1298.47 L2039.56,1298.32 L2039.43,1300.19 L2038.82,1301.94 L2039.25,1302.36 L2039.66,1301.81 L2040.3,1297.73 L2041.41,1297.97 L2040.31,1303.5 L2040.3,1310.66 L2041.22,1317.46 L2040.16,1317.84 L2039.13,1317.62 L2038.12,1316.64 L2036.63,1309.44 L2036.01,1308.61 L2035.32,1306.4 L2032.6,1302.5 L2035.12,1302.3 L2035.41,1302 L2035.66,1296.41 L2036.56,1296.5 L2038.02,1297.57 L2038.33,1299.1"/>
   <path fill-rule="evenodd" vector-effect="none" d="M1740.94,2255.05 L1740.88,2255.55 L1739.61,2255.09 L1737.97,2256.03 L1737.48,2257.89 L1738.59,2258.12 L1741.58,2256.01 L1741.16,2257.1 L1739.16,2258.61 L1738.85,2260.9 L1734.7,2264.45 L1734.09,2264.85 L1732.11,2264.85 L1730.27,2264.36 L1728.23,2265.4 L1727.18,2264.92 L1726.77,2263.94 L1727.05,2262.96 L1730.3,2260.35 L1739.44,2254.69 L1740.94,2255.05"/>
   <path fill-rule="evenodd" vector-effect="none" d="M1527.9,2434.82 L1527.33,2434.01 L1530.11,2431.69 L1530.57,2431.79 L1541.21,2439.09 L1540.23,2442.79 L1539.39,2442.82 L1538.99,2442.32 L1539.69,2440.91 L1539.58,2440.31 L1538.95,2439.98 L1537.4,2440.37 L1536.98,2440.14 L1536.55,2439.34 L1537.38,2438.55 L1537.29,2437.78 L1536.28,2437.41 L1535.71,2438.51 L1535.15,2438.14 L1535.68,2436.67 L1535.43,2436.08 L1534.22,2435.99 L1533.74,2436.67 L1534.29,2438.74 L1535.6,2439.1 L1537.08,2441.05 L1537.61,2441.26 L1537.64,2442.02 L1536.06,2440.27 L1534.34,2439.69 L1533.87,2439.19 L1533.71,2438.12 L1529.44,2434.91 L1527.9,2434.82"/>
   <path fill-rule="evenodd" vector-effect="none" d="M2021.41,1250.89 L2021.54,1251.32 L2023.64,1251.33 L2024.01,1252.14 L2025.05,1252.59 L2025.15,1253.09 L2024.54,1252.64 L2020.02,1252.36 L2015.53,1252.98 L2012.7,1253.86 L2006.1,1257.87 L2005.04,1257.64 L2005.06,1257.24 L2006.2,1256.39 L2011.7,1253.12 L2017.48,1251.43 L2019.43,1251.44 L2021.41,1250.89"/>
   <path fill-rule="evenodd" vector-effect="none" d="M1687.67,2293.18 L1688.75,2293.05 L1689.26,2293.48 L1688.43,2295.79 L1689.84,2295.63 L1690.28,2296.11 L1690.01,2297.21 L1689.37,2297.48 L1688.67,2298.83 L1687.63,2298.38 L1686.67,2296.55 L1685.2,2295.88 L1685.01,2294.33 L1684.21,2293.59 L1682.72,2293.39 L1681.73,2293.7 L1681.16,2294.11 L1680.67,2295.26 L1678.99,2294.24 L1686.88,2287.79 L1687.76,2287.56 L1688.85,2288.16 L1689.14,2289.09 L1687.7,2291.59 L1687.35,2292.75 L1687.67,2293.18"/>
   <path fill-rule="evenodd" vector-effect="none" d="M2318.66,1690.58 L2319.15,1690.35 L2319.85,1690.85 L2320.47,1690.25 L2320.81,1690.73 L2320.72,1691.55 L2321.23,1691.73 L2321.15,1695.68 L2321.39,1695.96 L2322.12,1695.78 L2322.38,1696.25 L2321.97,1697.15 L2321.93,1699.43 L2320.65,1701.41 L2319.46,1701.38 L2317.84,1702.78 L2317.74,1703.37 L2316.82,1703.65 L2316.24,1704.46 L2315.47,1704.42 L2314.13,1702.67 L2314.79,1700.52 L2314.13,1697.78 L2314.93,1697.2 L2315.48,1694.26 L2316.3,1692.49 L2317.89,1691.07 L2318.44,1691.14 L2318.18,1690.27 L2318.66,1690.58"/>
   <path fill-rule="evenodd" vector-effect="none" d="M1679.63,2296.63 L1679.28,2297.06 L1678.39,2296.74 L1678.24,2297.73 L1678.83,2299.09 L1680.93,2300.9 L1681.76,2303.44 L1678.36,2305.02 L1676.7,2302.85 L1672.09,2299.86 L1671.41,2299 L1671.59,2298.36 L1672.98,2297.24 L1674.57,2297.35 L1677.82,2295.04 L1679.11,2295.53 L1679.63,2296.63"/>
   <path fill-rule="evenodd" vector-effect="none" d="M1985.91,2102.45 L1985.96,2103.54 L1990.92,2103.21 L1990.97,2101.27 L1990.08,2100.27 L1990.79,2100.23 L1995.05,2104.4 L1995.21,2105.92 L1994.4,2107.97 L1993.15,2108.88 L1989.13,2108.53 L1986.01,2107.59 L1984.94,2106.59 L1984.02,2104.69 L1985.07,2103.45 L1985.08,2099.73 L1985.8,2100.14 L1985.91,2102.45"/>
   <path fill-rule="evenodd" vector-effect="none" d="M2009.2,2133.98 L2009.7,2134.69 L2007.2,2134.15 L2007.01,2135.89 L2005.9,2137.97 L2005.97,2141.52 L2006.68,2142.23 L2006.41,2143.13 L2006.68,2143.52 L2006.55,2145.65 L2006.7,2146.51 L2007.28,2146.55 L2005.91,2147.86 L2005.6,2148.89 L2004.73,2143.53 L2004.63,2140.26 L2006.37,2135.79 L2006.72,2132.37 L2007.86,2133.51 L2009.2,2133.98"/>
   <path fill-rule="evenodd" vector-effect="none" d="M2321.44,1506.83 L2322.67,1507.2 L2323.42,1507.87 L2324.14,1512.52 L2321.77,1515.26 L2321.72,1515.25 L2321.03,1515.09 L2320.87,1514.31 L2321.24,1513.76 L2320.7,1512.07 L2319.6,1512.04 L2320.02,1515.2 L2319.04,1515.9 L2319.04,1517.23 L2318.25,1515.91 L2317.77,1515.95 L2317.96,1515.41 L2317.71,1515.44 L2317.01,1510.29 L2317.4,1510.23 L2318,1507.16 L2318.99,1507.27 L2318.58,1509.43 L2319.5,1510.24 L2320.64,1509.31 L2320.38,1505.65 L2321.63,1506.11 L2320.96,1506.53 L2321.44,1506.83"/>
   <path fill-rule="evenodd" vector-effect="none" d="M1551.33,2300.22 L1552.48,2300.28 L1554.03,2303.21 L1553.04,2305.46 L1552.49,2305.77 L1552.69,2304.35 L1552.02,2303.11 L1550.56,2302.61 L1549.14,2302.83 L1548.43,2303.44 L1547.76,2305.33 L1548.59,2306.95 L1552.16,2307.33 L1552.31,2307.76 L1546.56,2307.16 L1544.95,2304.42 L1545.07,2303.49 L1545.72,2303.47 L1548.13,2299.25 L1549.1,2299.91 L1551.33,2300.22"/>
   <path fill-rule="evenodd" vector-effect="none" d="M2021.11,2098.03 L2021.49,2098.64 L2021.54,2100.34 L2020.97,2101.43 L2020.16,2101.96 L2012.45,2102.33 L2011.3,2102.09 L2008.57,2102.59 L2007.46,2100.82 L2008.19,2099.19 L2009.14,2099.39 L2011,2098.46 L2014.71,2098.45 L2016.14,2097.89 L2017.16,2098.03 L2019.33,2097.48 L2020.35,2097.53 L2021.11,2098.03"/>
   <path fill-rule="evenodd" vector-effect="none" d="M1482.51,2603.86 L1480.5,2603.71 L1479.56,2602.49 L1480.19,2601.66 L1482.66,2600.32 L1482.95,2596.63 L1482.08,2595.71 L1482.12,2594.53 L1482.98,2594.35 L1484.5,2594.57 L1486.21,2596.35 L1486.45,2599.31 L1485.52,2601.69 L1483.67,2603.39 L1482.51,2603.86"/>
   <path fill-rule="evenodd" vector-effect="none" d="M1498.44,2440.75 L1497.39,2437.34 L1499.14,2436.82 L1502.72,2437.09 L1502.97,2435.42 L1503.8,2434.92 L1506.16,2436.33 L1506.69,2437.86 L1506.22,2438.97 L1498.64,2441.41 L1498.44,2440.75"/>
   <path fill-rule="evenodd" vector-effect="none" d="M1489.48,2584.89 L1487.8,2584.89 L1487.38,2583.52 L1488.32,2582.4 L1489.76,2581.63 L1490.56,2580.47 L1490.6,2579.36 L1489.51,2577.07 L1490.26,2576.33 L1491.07,2576.4 L1491.92,2576.93 L1492.83,2578.54 L1492.96,2581.28 L1491.28,2583.79 L1489.48,2584.89"/>
   <path fill-rule="evenodd" vector-effect="none" d="M1501.63,2434.12 L1498.57,2435.09 L1497.17,2430.58 L1500.12,2429.6 L1504.78,2432.05 L1505.43,2433.77 L1504.94,2434.37 L1503.41,2433.55 L1501.63,2434.12"/>
   <path fill-rule="evenodd" vector-effect="none" d="M611.105,2437.96 L612.13,2437.79 L613.561,2438.48 L613.99,2438.97 L613.942,2439.91 L611.403,2441.02 L607.794,2438.57 L607.018,2437.27 L607.721,2434.76 L609.072,2434.8 L609.428,2436.82 L611.105,2437.96"/>
   <path fill-rule="evenodd" vector-effect="none" d="M1201.98,1595.5 L1201.68,1591.64 L1202.37,1580.84 L1203.15,1577.05 L1203.43,1580.91 L1202.71,1591.84 L1201.98,1595.5"/>
   <path fill-rule="evenodd" vector-effect="none" d="M1746.43,2237.13 L1745.43,2237.26 L1745.51,2238.24 L1744.6,2238.72 L1743.29,2238.38 L1742.71,2237.74 L1742.68,2235.17 L1744.33,2232.88 L1745.43,2232.91 L1747.39,2234.64 L1747.48,2235.62 L1746.43,2237.13"/>
   <path fill-rule="evenodd" vector-effect="none" d="M1959.41,2108.67 L1965.07,2108.57 L1966.11,2109.25 L1966.9,2111 L1965.27,2111.3 L1963.45,2110.9 L1959.25,2111.08 L1958.49,2110.22 L1958.41,2109.13 L1958.87,2108.01 L1959.41,2108.67"/>
   <path fill-rule="evenodd" vector-effect="none" d="M834.035,878.202 L835.172,871.258 L835.29,871.603 L834.035,878.202"/>
   <path fill-rule="evenodd" vector-effect="none" d="M2008.03,2138.48 L2007.18,2138.19 L2006.9,2136.91 L2007.14,2136.39 L2008.1,2136.22 L2008.5,2136.64 L2008.68,2137.67 L2008.03,2138.48"/>
   <path fill-rule="evenodd" vector-effect="none" d="M2010.11,2137.26 L2009.98,2137.77 L2009.71,2136.68 L2010.57,2135.56 L2010.11,2137.26"/>
   <path fill-rule="evenodd" vector-effect="none" d="M2008.45,2135.6 L2007.87,2135.52 L2007.85,2134.96 L2008.64,2135.05 L2008.45,2135.6"/>
  </g>
  <g stroke-width="1" transform="matrix(0.999744,0,0,0.999744,0,0)" stroke-opacity="1" font-size="34.5833" fill="none" stroke-linejoin="bevel" font-style="normal" stroke-linecap="square" stroke="#000000" font-family="MS Shell Dlg 2" font-weight="400"/>
  <g stroke-width="1" transform="matrix(11.808,0,0,11.808,0,0)" stroke-opacity="1" font-size="34.5833" fill="none" stroke-linejoin="bevel" font-style="normal" stroke-linecap="square" stroke="#000000" font-family="MS Shell Dlg 2" font-weight="400"/>
  <g stroke-width="1" transform="matrix(11.808,0,0,11.808,0,0)" stroke-opacity="1" font-size="34.5833" fill="none" stroke-linejoin="bevel" font-style="normal" stroke-linecap="square" stroke="#000000" font-family="MS Shell Dlg 2" font-weight="400"/>
  <g stroke-width="1" transform="matrix(11.808,0,0,11.808,0,0)" stroke-opacity="1" font-size="34.5833" fill="none" stroke-linejoin="bevel" font-style="normal" stroke-linecap="square" stroke="#000000" font-family="MS Shell Dlg 2" font-weight="400"/>
  <g stroke-width="1" transform="matrix(1,0,0,1,0,0)" stroke-opacity="1" font-size="34.5833" fill="none" stroke-linejoin="bevel" font-style="normal" stroke-linecap="square" stroke="#000000" font-family="MS Shell Dlg 2" font-weight="400"/>
  <g stroke-width="1" transform="matrix(11.808,0,0,11.808,0,0)" stroke-opacity="1" font-size="34.5833" fill="none" stroke-linejoin="bevel" font-style="normal" stroke-linecap="square" stroke="#000000" font-family="MS Shell Dlg 2" font-weight="400"/>
  <g stroke-width="1" transform="matrix(11.808,0,0,11.808,0,0)" stroke-opacity="1" font-size="34.5833" fill="none" stroke-linejoin="bevel" font-style="normal" stroke-linecap="square" stroke="#000000" font-family="MS Shell Dlg 2" font-weight="400"/>
  <g stroke-width="1" transform="matrix(11.808,0,0,11.808,0,0)" stroke-opacity="1" font-size="34.5833" fill="none" stroke-linejoin="bevel" font-style="normal" stroke-linecap="square" stroke="#000000" font-family="MS Shell Dlg 2" font-weight="400"/>
  <g stroke-width="1" transform="matrix(11.808,0,0,11.808,0,0)" stroke-opacity="1" font-size="34.5833" fill="none" stroke-linejoin="bevel" font-style="normal" stroke-linecap="square" stroke="#000000" font-family="MS Shell Dlg 2" font-weight="400"/>
  <g stroke-width="1" transform="matrix(1,0,0,1,0,0)" stroke-opacity="1" font-size="34.5833" fill="none" stroke-linejoin="bevel" font-style="normal" stroke-linecap="square" stroke="#000000" font-family="MS Shell Dlg 2" font-weight="400"/>
 </g>
</svg>
