<?xml version='1.0' encoding='UTF-8' standalone='no'?>
<svg xmlns:xlink="http://www.w3.org/1999/xlink" baseProfile="tiny" xmlns="http://www.w3.org/2000/svg" height="249.936mm" viewBox="0 0 2952 2952" width="249.936mm" version="1.2">
 <title>Qt SVG Document</title>
 <desc>Generated with Qt</desc>
 <defs/>
 <g stroke-width="1" fill-rule="evenodd" fill="none" stroke-linejoin="bevel" stroke-linecap="square" stroke="black">
  <g stroke-width="1" transform="matrix(1,0,0,1,0,0)" stroke-opacity="1" font-size="34.5833" fill="none" stroke-linejoin="bevel" font-style="normal" stroke-linecap="square" stroke="#000000" font-family="MS Shell Dlg 2" font-weight="400"/>
  <g stroke-width="1" transform="matrix(1,0,0,1,0,0)" stroke-opacity="1" font-size="34.5833" fill="none" stroke-linejoin="bevel" font-style="normal" stroke-linecap="square" stroke="#000000" font-family="MS Shell Dlg 2" font-weight="400"/>
  <g stroke-width="1" transform="matrix(11.808,0,0,11.808,0,0)" stroke-opacity="1" font-size="34.5833" fill="none" stroke-linejoin="bevel" font-style="normal" stroke-linecap="square" stroke="#000000" font-family="MS Shell Dlg 2" font-weight="400"/>
  <g stroke-width="1" transform="matrix(0.999744,0,0,0.999744,0,0)" stroke-opacity="1" font-size="34.5833" fill="none" stroke-linejoin="bevel" font-style="normal" stroke-linecap="square" stroke="#000000" font-family="MS Shell Dlg 2" font-weight="400"/>
  <g transform="matrix(0.999744,0,0,0.999744,0,0)" font-size="34.5833" fill-opacity="0" fill="#ffffff" font-style="normal" stroke="none" font-family="MS Shell Dlg 2" font-weight="400">
   <path fill-rule="evenodd" vector-effect="none" d="M-2,-2 L2955,-2 L2955,2955 L-2,2955 L-2,-2"/>
  </g>
  <g stroke-width="1" transform="matrix(0.999744,0,0,0.999744,0,0)" stroke-opacity="1" font-size="34.5833" fill="none" stroke-linejoin="bevel" font-style="normal" stroke-linecap="square" stroke="#000000" font-family="MS Shell Dlg 2" font-weight="400"/>
  <g stroke-width="1" transform="matrix(11.808,0,0,11.808,0,0)" stroke-opacity="1" font-size="34.5833" fill="none" stroke-linejoin="bevel" font-style="normal" stroke-linecap="square" stroke="#000000" font-family="MS Shell Dlg 2" font-weight="400"/>
  <g stroke-width="1" transform="matrix(11.808,0,0,11.808,0,0)" stroke-opacity="1" font-size="34.5833" fill="none" stroke-linejoin="bevel" font-style="normal" stroke-linecap="square" stroke="#000000" font-family="MS Shell Dlg 2" font-weight="400"/>
  <g stroke-width="1" transform="matrix(11.808,0,0,11.808,0,0)" stroke-opacity="1" font-size="34.5833" fill="none" stroke-linejoin="bevel" font-style="normal" stroke-linecap="square" stroke="#000000" font-family="MS Shell Dlg 2" font-weight="400"/>
  <g stroke-width="1" transform="matrix(11.808,0,0,11.808,0,0)" stroke-opacity="1" font-size="34.5833" fill="none" stroke-linejoin="bevel" font-style="normal" stroke-linecap="square" stroke="#000000" font-family="MS Shell Dlg 2" font-weight="400"/>
  <g stroke-width="1" transform="matrix(11.808,0,0,11.808,0,0)" stroke-opacity="1" font-size="34.5833" fill="none" stroke-linejoin="bevel" font-style="normal" stroke-linecap="square" stroke="#000000" font-family="MS Shell Dlg 2" font-weight="400"/>
  <g transform="matrix(11.808,0,0,11.808,0,0)" font-size="34.5833" fill-opacity="0" fill="#ffffff" font-style="normal" stroke="none" font-family="MS Shell Dlg 2" font-weight="400">
   <path fill-rule="evenodd" vector-effect="none" d="M0,0 L250,0 L250,250 L0,250 L0,0"/>
  </g>
  <g stroke-width="1" transform="matrix(11.808,0,0,11.808,0,0)" stroke-opacity="1" font-size="34.5833" fill="none" stroke-linejoin="bevel" font-style="normal" stroke-linecap="square" stroke="#000000" font-family="MS Shell Dlg 2" font-weight="400"/>
  <g stroke-width="1" transform="matrix(11.808,0,0,11.808,0,0)" stroke-opacity="1" font-size="34.5833" fill="none" stroke-linejoin="bevel" font-style="normal" stroke-linecap="square" stroke="#000000" font-family="MS Shell Dlg 2" font-weight="400"/>
  <g transform="matrix(0.999744,0,0,0.999744,0,0)" font-size="34.5833" fill-opacity="0" fill="#000000" font-style="normal" stroke="none" font-family="MS Shell Dlg 2" font-weight="400">
   <rect x="0" height="2953" width="2953" y="0"/>
  </g>
  <g stroke-width="1" transform="matrix(0.999744,0,0,0.999744,0,0)" stroke-opacity="1" font-size="34.5833" fill="none" stroke-linejoin="bevel" font-style="normal" stroke-linecap="square" stroke="#000000" font-family="MS Shell Dlg 2" font-weight="400"/>
  <g stroke-width="3.07087" transform="matrix(0.999744,0,0,0.999744,0,0)" stroke-opacity="1" font-size="34.5833" fill-opacity="1" fill="#c5c5c5" stroke-linejoin="bevel" font-style="normal" stroke-linecap="square" stroke="#5c5c5c" font-family="MS Shell Dlg 2" font-weight="400">
   <path fill-rule="evenodd" vector-effect="none" d="M2276.57,2710.96 L2234.42,2709.87 L2233.95,2710.24 L2233.75,2709.96 L2234.14,2708.69 L2232.79,2707.17 L2233.34,2704.95 L2234.04,2686.91 L2242.49,2675 L2242.72,2674.08 L2242.46,2670.39 L2241.04,2670.91 L2229.64,2678.06 L2228.58,2678.22 L2227.51,2677.58 L2221.04,2664.87 L2217.64,2666.92 L2216.53,2664.28 L2214.48,2665.53 L2210.37,2658.67 L2208.93,2657.01 L2203.49,2648.64 L2192.86,2631.08 L2191.12,2632.15 L2180.71,2616.13 L2174.61,2618.31 L2170.55,2604.82 L2171.84,2604.56 L2167.89,2591.95 L2115.21,2591.67 L2178.92,2444.36 L2138.64,2433.2 L2129.13,2425.36 L2118.11,2415.12 L1953.33,2180.25 L1780.77,1996.98 L1570.99,1775.2 L1570.72,1775.19 L1570.96,1774 L1570.26,1773.91 L1569.77,1771.48 L1565,1770.97 L1564.28,1768.68 L1562.64,1765.02 L1562.34,1764.34 L1562.32,1764.31 L1554.07,1756.63 L1553,1753.77 L1551.22,1754.45 L1540.98,1743.79 L1507.12,1741.29 L1489.87,1740.53 L1487.21,1741.18 L1483.88,1741.06 L1453.85,1737.88 L1449.92,1738.91 L1424.54,1747.21 L1412.52,1750.04 L1408.8,1752.26 L1408.49,1751.84 L1402.58,1753.95 L1403.17,1754.89 L1391.29,1759.6 L1391.58,1760.44 L1383.65,1763.6 L1363.88,1772.43 L1335.21,1786.6 L1334.4,1786.22 L1333.68,1787.35 L1329.43,1789.43 L1328.52,1789.53 L1328.92,1787.95 L1330.27,1787.89 L1330.89,1786.66 L1330.26,1783.85 L1333.19,1782.29 L1332.71,1775.52 L1331.72,1774.32 L1329.44,1772.47 L1329.1,1771.39 L1329.25,1770.58 L1330.24,1768.91 L1330.5,1767.51 L1331.75,1767.3 L1332.17,1766.62 L1330.87,1764.87 L1328.77,1764.18 L1327.15,1763.23 L1326.04,1761.43 L1324.09,1761.12 L1321.27,1761.14 L1318.16,1760.27 L1317.69,1759.98 L1317.3,1758.68 L1316.65,1757.74 L1315.08,1757.37 L1314.49,1756.95 L1314.45,1756.29 L1315.06,1755.11 L1315.21,1753.92 L1313.86,1753.13 L1313.64,1752.09 L1316.2,1750.13 L1317.74,1746.98 L1319.92,1745.47 L1320.23,1744.66 L1317.25,1742.49 L1316.41,1743.78 L1316.06,1743.93 L1315.72,1743.68 L1315.15,1742.51 L1314.5,1739.82 L1313.23,1737.86 L1314.3,1735.79 L1313.63,1732.58 L1311.17,1730.65 L1310.33,1729 L1308.16,1728.16 L1306.61,1725.92 L1304.22,1724.12 L1301.75,1720.56 L1301.3,1719.13 L1301.23,1717.43 L1300.48,1715.58 L1300.45,1712.92 L1296.47,1709.1 L1294.99,1706.12 L1294.87,1704.95 L1295.78,1702.07 L1294.31,1700.82 L1292.74,1700.59 L1291.91,1700.13 L1291.54,1699.49 L1291.48,1698.07 L1290.63,1697.14 L1287.8,1697.76 L1285.64,1698.71 L1284.65,1698.13 L1284.4,1697.35 L1284.75,1694.46 L1285.01,1693.18 L1285.82,1692.18 L1285.68,1691.31 L1286.22,1688.25 L1278.72,1680.15 L1277.55,1680.18 L1271.82,1675.52 L1269.9,1675.29 L1256.37,1656.62 L1250.81,1659.06 L1248.91,1658.74 L1247.9,1657.96 L1248.37,1654.81 L1248.04,1654.26 L1247.46,1654 L1236.82,1655.84 L1234.58,1655.59 L1232.6,1654.94 L1231.48,1654.16 L1231.04,1653.01 L1231.36,1649.01 L1231.03,1645.99 L1229.98,1640.88 L1227.85,1636.07 L1227.75,1634.47 L1226.75,1631.6 L1227.45,1630.84 L1224.84,1626.24 L1224.38,1626.52 L1224.36,1626.28 L1224.34,1623.81 L1228.75,1618.75 L1229.75,1617.45 L1229.67,1616.91 L1229.3,1616 L1226.51,1614.36 L1224.97,1612.03 L1222.39,1611.24 L1221.73,1605.65 L1219.22,1601.44 L1218.51,1599.55 L1219.18,1596.67 L1218.65,1596.24 L1216.51,1596.26 L1216.63,1595.36 L1217.78,1593.78 L1218.13,1591.5 L1181.22,1612.03 L1180.13,1608.28 L1179.5,1603.15 L1175.93,1588.68 L1172.54,1572.43 L1169.45,1566.41 L1165.95,1560.43 L1161.46,1551.08 L1160.25,1551.6 L1149.13,1531 L1142.55,1535.54 L1138.65,1538.91 L1137.79,1539.38 L1135.79,1539.6 L1134.52,1535.91 L1131.47,1530.58 L1127.79,1526.51 L1122.93,1523.41 L1121.03,1521.7 L1120.34,1520.68 L1112.91,1492.76 L1110.42,1482.32 L1112.49,1481.03 L1105.9,1479.64 L1105.12,1480.17 L1104.98,1479.79 L1090.92,1475.58 L1082.02,1472.13 L1081.9,1471.53 L1080.38,1473.18 L1080.14,1473.81 L1077.08,1476.27 L1076.57,1475.06 L1075.79,1474.94 L1069.99,1470.25 L1069.68,1469.11 L1067.64,1468.47 L1065.12,1466.03 L1063.56,1465.19 L1048.25,1469.89 L1042.36,1472.04 L1037.41,1471.85 L1035.91,1470.88 L1035.21,1469.91 L1034.27,1464.53 L1034.62,1462.26 L1034.03,1460.9 L1032.12,1461.59 L1027.58,1457.59 L1026.87,1456.52 L1026.43,1454.86 L1020.37,1454.21 L1019.87,1453.79 L1019.79,1452.48 L1016.16,1452.52 L1015.75,1452.57 L1014.41,1452.76 L1012.62,1453.01 L1011.92,1453.24 L994.539,1458.94 L991.353,1459.98 L990.293,1460.33 L977.976,1463.93 L977.366,1464.11 L947.272,1476.12 L947.363,1476.57 L941.104,1477.99 L938.184,1491.81 L936.859,1496.74 L935.008,1501.97 L933.189,1505.3 L931.072,1508.05 L927.555,1509.47 L921.033,1515.27 L918.36,1516.12 L916.969,1515.48 L916.38,1514.36 L913.619,1514.94 L913.618,1515.42 L909.513,1519.32 L909.135,1520.2 L903.899,1523.88 L898.015,1525.84 L892.113,1529.57 L886.682,1531.38 L884.868,1530.97 L880.058,1534.61 L876.018,1536.04 L874.338,1535.37 L865.753,1538.75 L866.144,1539.75 L859.167,1541.04 L856.782,1542.9 L854.558,1545.65 L853.941,1546.87 L852.662,1550.29 L851.511,1555.13 L850.83,1559.61 L850.985,1573.9 L848.369,1578.99 L846.923,1580.61 L839.289,1587.19 L832.31,1591.52 L829.334,1595.63 L829.525,1596.07 L827.623,1597.63 L827.765,1598.31 L827.239,1598.95 L827.282,1599.43 L823.952,1605.88 L821.589,1605.02 L821.283,1609.13 L820.424,1608.76 L819.956,1610.09 L819.227,1610.32 L818.955,1610.78 L818.515,1610.45 L817.123,1613.31 L815.516,1614.39 L809.769,1620.7 L804.722,1625.75 L803.84,1626.3 L804.364,1628.88 L804.113,1639.81 L806.32,1639.89 L771.626,1734.25 L771.191,1736.84 L766.871,1784.87 L752.507,1786.49 L727.274,1855.27 L666.636,1831.48 L615.744,1811.51 L611.987,1803.77 L600.184,1787.25 L596.398,1784.82 L590.918,1779.91 L581.247,1772.11 L575.387,1769.58 L561.425,1764.25 L557.948,1762.21 L554.72,1761.46 L549.09,1761.35 L518.496,1764.5 L503.391,1764.75 L503.317,1764.75 L499.761,1764.48 L485.14,1762.36 L475.04,1759.48 L438.686,1757.51 L406.634,1722.81 L407.399,1722.1 L402.982,1717.17 L401.921,1715.14 L394.939,1704.44 L384.362,1693.14 L382.458,1692.13 L379.548,1691.49 L377.876,1689.91 L377.13,1688.52 L376.959,1687.06 L377.656,1662.94 L377.687,1661.85 L380.986,1581.77 L381.312,1579.76 L381.912,1577.85 L382.395,1576.31 L382.464,1576.09 L389.059,1568.6 L389.673,1567.42 L395.431,1547.33 L396.258,1546.93 L396.573,1546.39 L396.123,1545.73 L402.493,1529.33 L403.667,1525.3 L405.215,1523.94 L406.908,1521.48 L409.909,1513.02 L411.898,1508.57 L413.439,1503.47 L415.7,1501.26 L416.562,1498.14 L418.012,1496.67 L418.578,1494.93 L421.445,1493.4 L423.071,1493.36 L423.586,1493.08 L424.318,1492.2 L425.395,1489.92 L426.642,1489.48 L427.058,1489 L427.133,1486.02 L427.981,1484.55 L428.065,1482.56 L427.272,1480.94 L426.765,1478.96 L428.258,1475.97 L427.344,1472.43 L427.45,1471.37 L432.214,1469.79 L433.484,1468.44 L435.132,1467.91 L436.753,1466.52 L439.159,1465.93 L441.22,1465.86 L445.337,1466.84 L447.75,1466.09 L449.127,1463.78 L451.79,1461.71 L452.111,1459.6 L452.732,1458.01 L455.768,1455.24 L457.563,1452.24 L458.655,1451.42 L462.159,1450.09 L464.384,1448 L465.526,1446.43 L467.691,1444.97 L468.615,1443.65 L468.823,1441.51 L469.788,1439.19 L471.837,1437.88 L473.959,1435.3 L473.476,1431.77 L474.394,1429.32 L476.51,1428.21 L479.587,1424.39 L479.825,1422.11 L480.655,1419.67 L479.313,1416.35 L479.477,1415.29 L480.686,1413.21 L482.094,1412.11 L483.368,1410.22 L483.412,1410.21 L485.875,1409.39 L486.017,1409.29 L486.67,1408.85 L487.394,1408.35 L487.614,1408.09 L489.279,1406.15 L490.233,1404.45 L490.226,1404.35 L490.167,1403.49 L488.81,1401.45 L488.717,1401.13 L488.244,1399.49 L488.48,1398.69 L489.767,1397.54 L490.496,1395.92 L490.946,1390.28 L490.706,1388.11 L490.398,1387.52 L483.084,1381.33 L480.699,1377.68 L482.18,1375.3 L482.557,1372.93 L482.414,1372.35 L480.962,1370.78 L480.077,1369.08 L480.123,1363.88 L479.557,1362.28 L479.466,1362.15 L479.279,1361.88 L478.674,1360.99 L475.166,1357.67 L470.829,1354.95 L468.06,1356.09 L465.756,1356.31 L465.276,1355.59 L465.409,1353.92 L465.415,1353.85 L465.268,1353.32 L465.173,1352.98 L465.141,1352.86 L464.597,1351.94 L463.47,1350.02 L463.427,1349.94 L462.735,1349.5 L460.504,1349.74 L460.194,1349.78 L459.864,1349.66 L458.429,1349.13 L457.753,1347.56 L462.921,1346.94 L462.285,1346.3 L460.957,1345.78 L459.242,1344.25 L459.151,1344.03 L459.036,1343.75 L458.967,1343.58 L458.859,1341.24 L460.402,1341.21 L460.414,1337.8 L470.138,1336.55 L474.988,1334.75 L479.937,1332.24 L479.2,1328.4 L475.488,1329.11 L465.457,1320.69 L467.506,1318.32 L467.711,1318.08 L468.075,1317.87 L470.166,1316.65 L470.251,1316.6 L470.28,1316.6 L472.574,1316.73 L476.3,1315.95 L476.785,1315.53 L477.735,1313.5 L478.967,1312.26 L480.999,1311.22 L483.659,1311.03 L485.675,1309.24 L486.717,1309.31 L488.203,1310.45 L489.651,1310.9 L489.741,1310.93 L490.199,1310.88 L491.112,1310.78 L491.235,1310.76 L491.964,1310.2 L492.546,1309.76 L492.614,1309.71 L493.325,1308.15 L493.62,1305.46 L494.417,1303.39 L494.38,1302.47 L493.696,1301.66 L492.328,1301.41 L490.518,1299.41 L489.223,1295.75 L489.272,1293.37 L489.838,1291.98 L490.455,1291.36 L491.142,1291.32 L492.673,1292.08 L493.711,1292.18 L495.91,1291.64 L498.017,1290 L498.875,1288.92 L499.148,1285.58 L500.481,1283.26 L500.908,1281.16 L500.1,1279.05 L497.741,1278.68 L495.982,1277.15 L495.782,1276.98 L495.575,1276.58 L493.976,1273.5 L494.01,1271.91 L494.394,1271.4 L494.815,1269.56 L494.846,1269.42 L495.101,1269.45 L498.667,1269.83 L498.774,1269.81 L501.982,1269.18 L504.855,1267.78 L506.46,1266.06 L506.503,1266.01 L508.277,1262.82 L508.797,1260.26 L508.305,1259.03 L506.376,1257.37 L506.059,1255.15 L506.616,1253.2 L508.747,1248.35 L508.795,1248.24 L509.189,1247.88 L509.802,1247.32 L509.841,1247.28 L510.133,1247.15 L512.77,1245.98 L513.129,1245.65 L513.586,1245.24 L514.413,1244.49 L516.003,1242.46 L517.686,1240.32 L518.074,1239.83 L518.211,1239.33 L518.272,1239.11 L518.32,1238.94 L518.232,1237.14 L518.218,1236.86 L518.353,1236.41 L518.501,1235.91 L518.525,1235.83 L521.512,1232.06 L521.735,1231.9 L524.782,1229.69 L526.526,1229.07 L526.692,1229.11 L527.066,1229.19 L527.697,1229.33 L528.126,1229.69 L528.367,1229.9 L528.489,1230 L529.594,1231.92 L529.758,1232.21 L530.679,1233 L531.708,1233.17 L535.864,1232.53 L539.096,1231.36 L539.719,1230.93 L540.064,1230.69 L540.473,1230.41 L543.204,1227.07 L543.686,1224.92 L543.559,1220.14 L539.602,1214.74 L537.894,1211.54 L534.672,1198.43 L535.039,1195.38 L536.546,1192.34 L536.913,1190.86 L537.04,1188.93 L536.111,1185.13 L535.887,1181.8 L536.273,1179.09 L537.861,1173.43 L538.742,1167.95 L538.438,1161.47 L541.518,1157.86 L543.345,1156.48 L546.784,1153.12 L548.091,1152.16 L552.26,1150.57 L557.368,1150.68 L564.114,1150.08 L566.221,1151.18 L567.898,1151.33 L568.781,1152.18 L569.271,1154.52 L569.688,1155.02 L570.507,1155.08 L570.854,1154.16 L573.689,1150.93 L574.583,1148.88 L574.66,1141.67 L575.294,1139.76 L576.612,1137.67 L580.449,1134.56 L582.295,1131.76 L582.155,1123.92 L582.579,1122.27 L585.502,1117.58 L586.84,1116.45 L586.673,1116.28 L587.106,1115.03 L590.613,1109.85 L592.276,1108.39 L596.907,1106.11 L611.468,1103.02 L613.849,1102.08 L615.099,1101.01 L623.601,1091.34 L622.565,1090.35 L622.426,1090.49 L621.982,1089.8 L619.792,1084.11 L615.424,1081.09 L610.635,1079.39 L607.724,1077.99 L602.207,1078.79 L595.16,1076.31 L595,1076.09 L594.92,1075.98 L594.913,1075.97 L608.156,977.451 L610.209,978.881 L611.065,978.922 L612.195,979.554 L615.624,982.957 L616.012,984.481 L615.807,986.264 L616.278,986.656 L616.793,986.504 L617.312,986.82 L617.855,988.082 L618.205,990.283 L619.245,993.648 L619.227,996.567 L619.913,998.443 L620.687,998.666 L620.899,998.42 L622.116,998.786 L622.264,998.616 L621.757,997.534 L621.909,997.018 L621.649,996.371 L620.767,995.803 L620.43,993.528 L619.087,988.922 L618.924,987.354 L619.207,986.313 L619.605,986.211 L622.083,987.048 L624.971,987.357 L625.113,988.257 L627.633,990.479 L628.473,990.581 L628.947,991.026 L629.774,990.064 L629.05,988.897 L628.222,988.298 L628.411,987.917 L626.93,985.728 L626.981,984.535 L628.307,983.893 L631.971,982.912 L633.607,982.823 L633.979,982.179 L634.962,982.021 L634.933,981.74 L633.973,981.836 L633.348,981.491 L624.61,983.646 L621.299,983.52 L620.632,982.978 L620.552,982.429 L620.84,982.156 L621.977,982.775 L629.909,980.013 L628.891,976.846 L620.669,979.556 L620.507,979.865 L619.884,980.04 L619.744,979.845 L619.157,980.441 L619.532,981.64 L619.319,981.916 L616.889,978.894 L616.805,978.396 L616.008,978.484 L612.735,976.035 L610.803,975.212 L610.497,974.632 L606.989,973.896 L606.524,973.528 L605.848,973.689 L600.102,972.28 L593.072,969.486 L588.796,966.578 L586.604,964.325 L584.576,962.843 L581.328,961.166 L577.775,959.755 L577.337,959.9 L576.968,959.103 L576.395,959.516 L576.065,959.216 L570.98,958.026 L569.584,957.933 L568.799,958.182 L565.536,957.804 L564.019,957.34 L562.848,956.522 L560.516,956.408 L557.422,954.675 L555.509,954.562 L552.526,952.853 L552.309,952.381 L552.689,951.934 L552.447,951.517 L552.697,950.274 L551.658,950.321 L550.778,950.759 L550.249,950.465 L550.392,949.847 L549.662,950.508 L547.266,951.127 L543.735,949.822 L543.103,950.004 L542.702,949.359 L540.968,949.515 L539.927,948.871 L538.15,948.871 L538.149,948.45 L537.492,948.658 L536.327,948.423 L536.112,948.673 L535.323,948.421 L535.026,948.714 L534.801,948.399 L533.323,948.799 L533.084,949.136 L532.342,948.798 L531.18,948.762 L529.453,949.68 L522.72,955.54 L522.523,956.384 L521.584,956.488 L520.579,957.134 L519.68,958.296 L519.731,959.071 L517.981,960.265 L515.035,963.03 L514.789,963.596 L513.458,964.132 L513.651,964.33 L513.107,964.488 L513.187,964.703 L512.457,964.7 L511.699,965.204 L511.633,965.672 L510.786,965.7 L510.656,966.351 L509.717,966.078 L509.15,966.594 L503.762,967.863 L502.731,967.436 L501.814,967.759 L500.621,967.429 L500.378,967.959 L498.448,967.693 L496.467,966.478 L496.055,965.431 L495.612,965.149 L495.559,964.276 L494.966,964.162 L494.665,962.669 L495.238,960.757 L496.14,960.707 L496.497,960.272 L497.738,956.482 L497.385,955.824 L497.08,953.685 L496.035,953.251 L495.777,952.808 L496.801,951.732 L496.632,950.148 L495.952,949.308 L496.841,947.62 L496.034,946.028 L496.603,945.418 L496.329,944.401 L496.47,943.504 L495.737,942.193 L495.716,941.317 L494.96,940.066 L494.971,939.13 L495.43,938.007 L494.459,938.966 L494.36,941.527 L493.999,941.205 L494.214,939.141 L495.715,937 L496.313,936.642 L497.002,936.728 L497.54,937.071 L497.225,937.139 L497.303,937.646 L498.195,938.098 L498.45,938.973 L499.306,938.987 L499.933,939.385 L500.179,939.051 L501.16,939.09 L501.571,938.434 L501.947,938.466 L502.75,937.845 L507.283,936.618 L507.33,936.306 L508.157,935.986 L509.041,935.944 L509.211,935.538 L509.691,935.631 L510.232,935.272 L510.853,935.575 L511.17,935.135 L512.152,934.939 L512.747,935.137 L513.12,934.538 L514.022,934.38 L515.948,934.491 L517.584,933.621 L519.881,931.667 L522.498,931.443 L522.651,931.146 L523.882,931.268 L524.532,931.987 L525.465,932.371 L525.156,929.807 L525.624,929.527 L525.684,928.852 L526.593,928.829 L526.913,928.533 L526.85,927.659 L527.912,927.242 L527.956,926.437 L528.895,925.857 L529.129,925.016 L530.036,924.833 L529.989,924.421 L530.393,924.255 L531.125,923.009 L531.504,922.905 L531.877,921.727 L532.597,921.581 L533.104,920.679 L533.707,920.292 L533.936,919.199 L534.315,918.828 L535.228,918.497 L535.64,917.857 L538.051,917.08 L539.456,917.549 L539.336,918.211 L538.612,918.33 L540.86,918.677 L545.375,921.275 L546.059,921.214 L546.367,920.649 L545.77,919.791 L545.894,919.563 L545.092,919.739 L544.71,918.771 L545.202,918.347 L545.174,917.79 L546.174,917.638 L546.309,916.876 L546.941,917.307 L547.511,916.917 L546.91,916.435 L547.578,916.012 L546.877,916.102 L546.794,915.436 L546.435,916.069 L545.837,916.118 L545.418,914.854 L545.344,915.991 L544.865,916.192 L544.476,915.493 L543.935,915.537 L543.845,915.162 L542.769,914.64 L542.544,914.01 L541.898,913.691 L541.554,913.814 L541.178,913.126 L541.346,912.35 L542.408,911.204 L542.609,910.511 L543.72,909.451 L544.418,907.611 L543.905,908.005 L543.664,909.007 L542.584,909.902 L539.938,910.601 L539.782,909.868 L538.764,910.339 L538.306,909.224 L537.528,908.342 L535.366,907.713 L534.751,906.569 L534.28,906.381 L532.67,907.698 L531.98,907.771 L530.842,907.494 L530.565,907.167 L530.637,906.54 L529.921,907.037 L528.975,906.844 L528.426,905.967 L528.841,905.445 L528.245,904.891 L527.796,906.425 L525.207,909.793 L524.313,910.032 L523.088,911.303 L522.228,911.721 L521.179,913.101 L519.028,914.182 L517.525,914.132 L517.312,914.619 L515.371,915.163 L514.73,915.473 L514.37,916.031 L512.935,916.707 L510.849,916.777 L506.898,916.184 L504.138,914.283 L503.636,913.461 L502.328,912.968 L502.13,912.409 L500.367,911.725 L499.897,911.095 L499.254,911.195 L498.266,910.754 L498.153,910.067 L496.807,910.091 L496.957,909.17 L497.724,909.072 L498.183,908.011 L499.322,907.086 L499.268,906.339 L500.323,905.556 L501.277,905.254 L501.19,905.027 L501.834,904.541 L501.845,904.028 L502.767,903.556 L502.996,902.931 L504.177,902.437 L504.484,901.76 L505.471,901.392 L505.668,900.87 L506.703,900.133 L505.578,899.678 L505.601,899.291 L513.206,895.469 L513.557,894.967 L515.199,894.541 L517.33,895.131 L518.95,896.135 L520.272,897.539 L522.184,898.468 L521.961,899.029 L522.617,898.636 L526.123,898.119 L526.256,897.62 L527.983,896.982 L527.705,896.363 L523.521,897.676 L521.142,897.48 L520.974,896.566 L519.89,895.377 L519.693,894.75 L518.503,893.883 L510.873,891.691 L509.677,890.584 L508.248,885.297 L507.266,883.794 L507.876,881.139 L507.44,880.105 L508.187,879.283 L508.79,879.543 L509.311,881.669 L509.746,887.132 L510.525,888.996 L512.286,890.174 L512.457,889.682 L514.853,890.507 L516.487,890.636 L517.272,890.254 L513.945,887.563 L511.237,883.995 L509.188,879.512 L508.628,877.683 L508.33,874.773 L507.849,873.847 L507.326,874.084 L506.422,875.771 L506.802,876.01 L507.71,879.126 L506.893,879.784 L505.011,879.193 L504.668,879.403 L504.588,878.975 L504.111,879.737 L504.122,880.654 L503.03,881.196 L502.143,882.465 L501.788,883.719 L500.585,884.254 L499.165,885.602 L498.708,886.535 L498.089,886.634 L496.583,888.13 L495.904,888.499 L495.096,888.378 L495.248,887.577 L494.94,887.427 L491.173,888.534 L490.665,888.364 L490.058,888.886 L487.922,889.281 L485.049,890.508 L484.973,890.315 L484.784,890.743 L483.319,891.328 L482.941,890.977 L481.611,891.391 L481.603,892.067 L480.299,892.983 L478.195,892.284 L476.9,892.268 L475.686,891.669 L474.508,892.002 L472.707,891.689 L472.358,892.014 L470.753,892.123 L468.956,893.564 L468.16,894.632 L468.179,895.683 L466.613,896.063 L465.975,897.222 L465.576,897.427 L462.9,897.695 L462.962,898.207 L463.425,898.27 L465.983,897.638 L466.141,897.801 L463.487,898.458 L462.866,898.415 L462.135,897.729 L461.673,894.652 L462.196,894.801 L462.453,894.591 L462.61,893.848 L462.424,893.399 L461.976,893.242 L461.887,891.971 L460.587,891.428 L460.732,890.543 L460.509,890.269 L459.458,889.841 L458.496,890.207 L455.918,888.049 L454.547,888.254 L456.665,889.604 L456.62,889.9 L456.104,889.886 L455.685,889.486 L455.368,889.743 L454.918,889.272 L454.292,889.992 L453.681,889.757 L453.385,889.275 L453.492,888.877 L452.824,888.474 L452.877,888.247 L450.662,888.281 L448.557,887.103 L448.001,886.115 L447.733,883.329 L448.628,880.457 L449.813,879.491 L451.462,879.116 L454.113,877.705 L454.181,876.334 L455.399,872.57 L455.538,871.378 L455.246,870.302 L455.535,869.896 L456.34,870.337 L457.611,870.469 L461.26,870.156 L463.343,869.376 L465.666,869.923 L464.193,869.67 L464.19,870.065 L467.332,870.348 L470.199,871.265 L471.414,871.308 L472.795,870.869 L473.973,870.971 L476.531,870.076 L477.287,869.389 L479.85,868.752 L487.365,868.216 L490.499,868.407 L490.73,868.101 L494.448,868.089 L498.102,866.63 L498.023,865.774 L497.329,865.658 L496.337,866.11 L496.508,865.577 L496.242,865.586 L496.159,866.203 L495.777,866.413 L495.478,866.088 L495.648,865.603 L495.203,865.776 L495.081,865.382 L494.568,865.982 L494.512,865.454 L493.912,866.448 L492.627,867.018 L492.367,866.515 L492.788,866.185 L492.704,865.782 L492.134,865.93 L491.987,865.453 L489.248,865.183 L488.771,864.726 L488.831,863.918 L486.816,862.73 L484.918,862.635 L483.979,862.004 L481.978,861.699 L478.045,862.482 L477.981,862.219 L477.555,862.277 L472.871,863.543 L469.871,863.114 L468.67,862.358 L467.326,861.956 L467.055,861.245 L468.34,857.937 L469.844,856.925 L469.771,856.627 L468.639,857.513 L468.515,857.169 L468.3,857.33 L466.6,861.595 L464.844,861.3 L462.913,860.233 L461.49,860.25 L460.207,858.91 L459.465,858.968 L459.437,858.507 L458.593,857.846 L455.26,857.48 L455.027,856.986 L454.487,857.018 L454.335,856.689 L453.474,857.208 L453.06,856.611 L452.271,856.39 L451.518,857.812 L450.308,857.808 L450.001,857.495 L449.329,857.783 L448.276,857.022 L448.611,855.69 L448.168,855.397 L446.839,855.885 L446.772,856.766 L446.037,857.059 L445.078,856.697 L444.906,855.989 L444.477,855.922 L444.163,855.436 L442.086,850.315 L442.941,853.517 L444.061,855.868 L443.947,856.588 L442.963,856.533 L442.673,856.077 L442.528,856.393 L442.171,856.14 L441.932,856.78 L441.196,856.516 L439.792,856.818 L435.837,856.855 L435.527,856.556 L435.594,856.153 L434.859,855.924 L434.486,855.393 L433.048,855.997 L433.012,857.272 L431.372,857.584 L430.852,857.29 L429.482,857.363 L429.492,856.735 L429.033,856.482 L428.574,857.04 L428.118,857.04 L428.011,856.695 L426.401,855.906 L426.095,855.385 L425.284,855.423 L424.871,854.613 L423.758,854.618 L421.672,853.142 L421.356,852.597 L420.797,853.013 L418.406,852.863 L415.985,852.039 L415.265,851.296 L413.868,851.01 L413.234,850.232 L412.801,848.505 L412.433,848.612 L412.956,849.524 L413.02,850.54 L411.444,849.782 L410.771,848.677 L409.582,849.691 L407.686,848.943 L407.361,849.346 L404.491,849.293 L403.979,849.169 L403.873,848.676 L402.921,848.453 L403.186,848.952 L398.95,849.18 L397.646,848.782 L396.017,847.306 L395.88,846.085 L394.978,844.358 L395.031,842.967 L394.339,840.259 L393.832,839.523 L394.094,837.439 L395.523,834.955 L395.514,834.277 L396.513,833.805 L396.278,833.432 L396.426,832.944 L397.374,832.172 L397.754,832.027 L398.365,832.327 L400.239,831.877 L402.384,832.197 L404.33,832.06 L405.177,832.247 L405.755,832.957 L406.738,833.204 L407.275,833.146 L407.302,832.652 L408.813,832.927 L409.243,833.677 L410.267,834.035 L410.414,834.522 L409.633,835.104 L410.083,836.089 L410.139,835.184 L411.167,833.966 L412.233,834.024 L412.763,833.642 L414.071,833.528 L416.779,834.187 L417.33,833.499 L417.928,833.386 L418.592,833.788 L418.966,832.612 L419.531,832.323 L420.945,832.775 L422.005,832.634 L421.69,833.252 L424.354,833.052 L424.442,833.788 L424.781,833.976 L425.215,831.871 L426.511,832.116 L427.091,832.673 L429.419,832.393 L430.013,831.779 L429.835,831.2 L428.933,831.168 L428.233,831.65 L427.745,831.503 L427.335,830.322 L427.763,829.957 L429.773,829.903 L429.756,828.834 L428.643,828.419 L429.339,827.714 L429.691,827.669 L429.648,828.001 L430.008,827.748 L430.329,826.996 L430.145,827.571 L430.614,827.383 L430.39,827.654 L432.149,827.049 L430.772,825.969 L431.44,825.186 L432.413,824.752 L431.693,824.709 L431.111,825.292 L430.875,825.103 L431.541,824.255 L431.524,824.525 L431.708,824.435 L431.931,823.596 L432.717,822.901 L431.732,822.716 L431.657,823.099 L431.243,822.959 L430.66,823.326 L430.67,822.99 L429.647,822.557 L429.304,823.028 L429.214,822.512 L427.707,823.066 L428.063,823.512 L427.871,823.51 L427.455,822.661 L427.686,822.068 L427.202,822.304 L426.348,820.254 L425.108,819.158 L423.599,818.722 L423.182,818.328 L422.844,817.824 L422.512,814.872 L423.11,814.251 L423.259,813.433 L422.753,811.971 L422.889,810.734 L420.595,807.852 L421.15,806.463 L421.021,806.21 L420.216,805.999 L418.768,806.384 L417.873,806.029 L415.939,807.099 L415.436,806.697 L414.968,806.806 L414.739,806.253 L415.201,805.921 L414.541,805.217 L414.057,805.224 L412.858,806.429 L411.909,806.368 L411.225,806.076 L411.048,805.635 L410.537,805.558 L410.576,803.949 L411.245,803.438 L411.332,803.87 L411.815,803.66 L413.14,802.287 L411.497,801.478 L411.36,800.801 L410.778,800.419 L410.691,799.717 L407.326,799.627 L405.482,798.227 L401.882,796.887 L401.018,795.402 L399.384,795.103 L399.122,794.687 L395.317,794.208 L393.406,794.403 L393.111,794.047 L388.208,793.689 L387.456,793.113 L387.04,792.259 L385.566,791.623 L385.562,790.637 L386.998,790.352 L387.48,789.721 L387.971,789.643 L388.284,788.793 L388.069,787.481 L387.693,787.002 L385.135,786.759 L384.643,786.919 L384.354,786.618 L384.066,785.587 L384.347,786.408 L386.996,785.494 L387.549,783.254 L388.867,782.611 L388.908,782.256 L389.435,782.421 L389.576,782.018 L389.912,782.092 L391.346,780.647 L392.2,779.027 L392.099,775.424 L390.606,774.209 L390.659,773.055 L389.436,772.608 L389.223,771.996 L389.402,771.001 L389.971,770.428 L391.165,770.527 L391.563,770.309 L392.221,769.062 L392.319,766.948 L391.315,766.024 L391.239,765.177 L392.441,764.527 L393.183,764.446 L393.198,764.669 L394.169,764.854 L394.856,764.553 L396.617,761.992 L396.819,761.126 L397.497,760.617 L398.357,760.906 L398.614,761.53 L400.038,761.914 L400.473,762.311 L402.099,761.976 L404.817,762.379 L405.76,761.833 L406.309,761.035 L411.355,761.732 L414.768,761.422 L416.648,761.606 L416.546,761.029 L416.763,760.978 L417.246,761.24 L417.526,762.265 L418.267,762.218 L419.558,762.709 L420.375,762.414 L421.163,762.834 L423.098,762.359 L422.017,761.926 L422.396,761.473 L424.709,761.961 L425.234,762.868 L425.143,763.237 L426.026,764.063 L425.965,764.827 L426.671,765.798 L427.215,766.255 L428.49,766.627 L428.466,767.541 L429.073,767.817 L430.061,769.077 L430.611,770.68 L430.322,771.122 L430.456,772.002 L432.942,774.374 L433.193,775.375 L433.579,775.743 L434.496,775.592 L434.629,776.127 L436.03,777.353 L436.615,777.81 L437.53,777.99 L437.467,778.393 L438.055,779.423 L438.339,779.21 L439.424,779.772 L440.716,780.96 L440.635,782.787 L441.185,781.464 L443.245,782.303 L444.047,783.321 L445.71,784.264 L447.136,785.686 L447.712,786.672 L448.66,787.372 L448.001,788.407 L448.297,788.454 L449.247,787.699 L450.393,788.378 L450.96,788.351 L451.015,787.907 L452.138,789.058 L455.691,795.682 L457.03,797.762 L457.445,797.828 L457.217,798.711 L458.084,801.101 L458.729,801.425 L459.149,801.144 L459.523,802.182 L459.484,802.572 L459.06,802.733 L459.926,803.02 L459.961,803.579 L461.572,805.422 L461.325,806.095 L461.829,807.187 L463.676,807.806 L464.459,808.787 L464.988,808.845 L466.451,809.86 L468.876,812.001 L469.916,812.182 L472,813.252 L471.681,813.649 L471.805,814.473 L474.385,819.854 L475.641,821.347 L477.199,822.145 L485.583,824.222 L487.048,824.34 L488.136,824.032 L484.918,823.827 L477.343,821.943 L476.43,821.492 L474.939,820.206 L472.363,814.835 L472.031,814.006 L472.171,813.47 L473.727,814.149 L478.616,815.427 L478.538,814.936 L478.869,814.369 L480.574,813.269 L480.993,812.417 L482.133,812.098 L482.008,811.594 L482.253,811.382 L483.164,812.095 L483.881,812.224 L484.626,811.647 L492.727,811.375 L496.525,810.608 L497.245,810.77 L497.855,811.779 L498.288,811.859 L497.986,810.769 L499.092,809.06 L500.818,807.916 L501.35,806.31 L504.387,803.337 L504.014,802.636 L501.49,800.535 L500.485,798.953 L500.914,799.121 L501.533,798.504 L501.065,796.031 L500.746,796.224 L501.267,798.266 L501.079,798.541 L500.511,798.501 L499.998,799.349 L498.786,799.193 L497.594,798.302 L497.434,797.972 L497.673,797.838 L499.34,798.13 L499.797,795.627 L499.327,794.535 L498.593,794.038 L498.172,794.034 L498.326,794.347 L497.286,794.335 L496.998,794.618 L496.868,791.421 L495.991,788.36 L493.493,787.642 L493.505,787.369 L492.658,786.726 L491.739,786.31 L489.171,786.421 L488.41,787.461 L487.646,787.579 L478.943,785.436 L477.615,784.778 L477.828,783.511 L476.697,782.645 L474.705,782.021 L473.277,782.608 L471.874,784.196 L472.928,786.87 L471.593,784.961 L468.631,783.67 L467.713,782.877 L467.075,781.081 L467.487,779.723 L466.358,778.022 L465.758,778.477 L467.182,776.778 L470.851,773.908 L470.712,773.71 L467.907,775.825 L467.754,775.69 L470.011,772.071 L468.933,770.908 L468.59,770.683 L465.768,773.393 L465.337,774.127 L466.779,774.822 L466.947,776.336 L466.284,776.984 L465.624,776.524 L464.607,777.171 L464.211,777.822 L463.133,777.763 L457.362,774.566 L455.728,773.254 L456.659,771.711 L455.357,769.938 L453.95,769.335 L452.255,769.485 L452.331,770.755 L452.095,770.93 L450.871,767.897 L451.308,766.702 L450.504,766.02 L448.163,765.354 L447.229,766.729 L447.656,768.131 L447.374,768.212 L446.98,767.437 L447.064,766.087 L448.367,763.917 L447.741,763.027 L447.772,762.644 L449.111,760.667 L449.128,759.457 L450.31,757.802 L448.898,755.353 L448.301,754.93 L445.72,755.145 L444.902,756.001 L445.05,756.993 L444.28,757.406 L443.051,757.194 L442.202,757.524 L441.541,757.133 L441.212,757.409 L441.294,757.709 L440.486,758.069 L439.082,757.511 L438.575,757.771 L438.042,757.601 L436.32,758.855 L434.687,758.174 L433.104,756.853 L433.153,754.751 L434.518,755.132 L442.702,754.475 L443.15,754.167 L442.808,750.159 L442.258,749.884 L432.212,750.665 L430.69,752.579 L430.979,752.787 L429.941,754.2 L429.7,754.053 L429.652,755.06 L429.28,754.48 L427.608,753.641 L427.447,752.924 L428.397,751.534 L428.136,751.369 L427.791,751.843 L427.222,751.527 L426.833,752.137 L427.294,752.52 L427.075,752.858 L420.512,748.621 L419.868,747.473 L420.631,745.524 L420.356,745.315 L421.382,743.694 L421.235,743.478 L420.068,745.118 L419.311,744.878 L417.56,746.055 L416.457,747.34 L417.068,746.286 L416.876,745.884 L413.142,743.301 L412.08,741.746 L411.95,740.508 L412.204,739.172 L411.723,738.262 L412.959,736.126 L414.515,736.863 L415.759,736.79 L420.438,733.249 L422.965,732.253 L425.632,732.092 L428.334,732.748 L428.53,733.126 L428.032,732.831 L426.661,734.22 L425.867,734.237 L425.825,734.684 L425.332,734.632 L425.368,734.103 L423.475,734.184 L423.034,734.476 L422.501,735.512 L423.146,736.006 L422.573,736.019 L422.403,739.427 L421.518,741.814 L421.984,742.241 L421.378,743.247 L421.568,743.379 L422.214,742.457 L423.135,743.001 L424.666,741.462 L425.193,741.428 L426.349,742.443 L426.335,745.445 L434.557,745.199 L441.085,743.029 L441.395,743.766 L453.646,739.465 L453.782,739.027 L452.234,734.382 L451.478,733.966 L433.826,740.017 L427.792,740.231 L427.834,739.804 L430.689,739.599 L431.794,738.57 L431.843,737.188 L430.657,734.192 L430.94,734.195 L431.982,735.556 L433.569,738.493 L438.931,736.81 L440.116,736.695 L452.921,732.307 L454.603,732.261 L455.715,732.837 L456.263,733.514 L458.625,740.871 L519.964,720.33 L526.12,719.217 L530.379,718.92 L535.003,719.088 L541.055,719.892 L547.87,721.786 L553.823,724.47 L619.132,761.979 L623.798,765.177 L627.926,768.733 L632.942,774.379 L635.776,778.639 L636.517,778.697 L637.678,780.479 L637.95,780.609 L639.713,779.567 L642.718,784.401 L645.716,786.51 L649.968,784.132 L651.708,784.484 L653.726,785.34 L654.857,785.398 L656.11,785.129 L658.684,783.79 L659.894,783.705 L661.267,784.051 L661.95,783.807 L662.751,780.261 L663.867,779.669 L665.552,780.242 L666.515,780.156 L666.858,778.608 L667.661,777.227 L668.947,776.139 L669.773,775.919 L671.31,776.283 L672.6,775.367 L674.533,774.605 L676.414,774.629 L676.578,774.041 L675.902,771.752 L676.232,770.538 L676.624,770.543 L678.25,772.097 L678.957,771.949 L684.327,768.256 L684.381,766.302 L684.826,765.467 L685.596,765.374 L687.246,766.604 L687.81,766.56 L691.193,764.658 L691.688,763.996 L691.534,760.062 L692.604,758.636 L694.455,758.223 L697.022,757.039 L697.58,758.381 L699.819,757.076 L700.493,754.54 L701.304,753.316 L717.266,746.392 L712.948,734.01 L713.876,734.621 L715.473,735.097 L717.127,736.586 L718.512,737.303 L720.466,739.775 L721.712,740.421 L724.531,740.808 L729.775,739.7 L732.358,737.925 L733.841,737.658 L736.755,735.927 L738.277,734.31 L739.592,731.761 L740.526,731.243 L743.001,730.966 L746.106,731.495 L748.498,730.885 L749.876,730.196 L751.353,730.371 L755.439,729.642 L760.078,727.671 L761.741,726.355 L762.367,726.53 L763.934,725.771 L765.451,724.299 L766.765,723.629 L766.634,722.831 L765.788,722.598 L769.118,720.065 L770.06,719.633 L771.729,719.422 L773.307,719.549 L772.597,717.743 L774.799,716.047 L775.689,715.706 L778.319,717.158 L778.968,717.049 L779.326,716.7 L779.479,714.164 L779.898,713.637 L780.607,713.648 L782.447,714.795 L788.224,712.726 L789.534,713.396 L790.685,713.163 L791.454,713.368 L792.232,712.153 L792.882,712.043 L794.091,713.23 L797.086,711.985 L797.032,710.607 L797.625,709.294 L798.629,709.404 L799.4,710.62 L799.871,710.859 L802.55,709.72 L801.959,708.214 L802.354,706.762 L802.789,706.48 L803.293,706.439 L804.791,707.228 L805.607,708.496 L810.296,706.527 L810.844,707.034 L811.341,707.04 L811.63,706.859 L811.316,706.069 L812.639,705.532 L813.266,706.224 L814.58,706.606 L815.135,705.252 L815.039,704.558 L816.79,703.847 L817.564,704.423 L819.503,703.971 L820.54,705.04 L820.829,704.91 L820.934,704.183 L821.839,703.793 L823.125,704.865 L824.866,704.832 L826.028,705.232 L826.509,704.97 L826.965,703.865 L827.871,703.359 L829.074,703.53 L830.017,704.483 L830.456,704.565 L830.75,704.033 L831.361,704.118 L831.29,702.41 L832.453,702.657 L832.672,703.389 L833.043,701.495 L834.429,702.263 L834.878,702.998 L835.462,703.145 L837.23,702.307 L839.403,702.697 L839.865,702.454 L841.154,700.555 L841.653,700.485 L842.53,701.535 L843.992,701.477 L845.364,701.88 L846.577,701.264 L848.825,701.967 L849.361,701.112 L851.234,701.254 L851.612,701.604 L852.843,701.123 L853.855,701.31 L854.934,702.073 L855.275,701.998 L855.518,699.968 L856.953,699.95 L857.322,699.572 L858.466,699.857 L859.721,699.587 L861.469,700.456 L861.971,700.117 L862.215,699.066 L864.175,698.5 L865.678,699.096 L867.534,700.408 L868.14,700.414 L868.285,698.588 L868.752,697.564 L869.051,697.487 L869.707,694.264 L870.173,693.734 L871.567,693.965 L872.993,693.237 L875.343,694.805 L878.862,696.198 L879.334,696.665 L879.62,698.069 L882.532,699.108 L882.525,700.335 L882.958,700.635 L883.241,700.597 L883.715,694.601 L883.963,694.103 L884.656,693.75 L885.381,694.267 L886.231,695.959 L886.913,696.41 L890.002,695.783 L893.15,695.618 L894.325,696.363 L895.43,695.401 L897.494,695.546 L898.787,694.721 L899.945,695.409 L903.564,695.174 L903.845,695.562 L905.295,695.916 L906.152,693.428 L908.512,693.054 L909.962,693.656 L911.429,692.757 L913.224,693.033 L914.298,692.837 L915.602,693.969 L916.37,693.75 L917.417,694.149 L918.397,695.122 L918.826,694.863 L919.332,693.349 L920.393,692.063 L921.386,692.231 L921.799,693.56 L922.572,693.553 L923.269,692.949 L924.751,693.143 L925.776,691.203 L926.577,691.349 L927.446,692.167 L928.492,692.547 L930.369,692.421 L931.005,690.819 L931.792,690.601 L932.697,691.535 L933.578,691.471 L935.291,692.052 L935.368,692.735 L935.719,692.627 L936.655,690.883 L938.137,690.33 L938.947,691.166 L939.793,690.853 L940.178,692.009 L941.157,692.245 L940.39,694.077 L940.756,694.025 L943.087,689.329 L944.179,689.249 L944.777,690.236 L945.255,690.263 L947.493,689.011 L948.083,689.192 L950.518,688.806 L952.388,689.16 L954.646,689.117 L955.691,687.56 L956.788,687.154 L958.433,687.141 L959.434,687.807 L962.199,686.075 L964.531,686.244 L966.449,685.294 L967.996,685.452 L968.815,686.347 L969.435,686.451 L970.19,685.907 L970.876,686.089 L971.301,685.808 L972.389,684.655 L972.869,684.585 L973.362,683.557 L973.804,683.468 L974.316,683.782 L974.569,684.783 L976.237,683.849 L978.636,684.652 L979.734,684.151 L980.63,684.413 L980.705,683.188 L981.016,682.866 L981.801,682.84 L983.976,683.372 L985.585,684.393 L986.679,682.932 L988.248,681.652 L990.061,681.768 L992.177,682.588 L991.788,680.344 L992.045,679.868 L993.11,680.249 L993.665,681.485 L994.558,680.597 L997.067,680.443 L997.495,681.274 L998.213,680.614 L1000.67,680.057 L1001.17,680.566 L1000.86,681.356 L1009.24,678.973 L1012.31,678.389 L1020.96,678.341 L1033.33,676.504 L1035.48,670.592 L1036.91,668.828 L1038.3,669.435 L1038.88,668.586 L1039.58,668.637 L1040.12,669.463 L1039.95,670.238 L1040.34,671.163 L1040.83,670.564 L1041.32,668.422 L1041.85,668.168 L1041.69,669.599 L1041.93,670.097 L1042.38,670.665 L1043.82,670.85 L1043.82,670.195 L1044.59,668.639 L1045.47,668.116 L1046.32,668.447 L1047.68,667.595 L1048.41,667.864 L1049.07,668.589 L1051.28,669.49 L1051.86,667.945 L1052.92,667.061 L1053.65,667.33 L1053.36,668.934 L1053.66,669.181 L1055.22,668.985 L1057.36,667.07 L1058.67,668.521 L1065.93,667.613 L1066.89,664.717 L1068.41,666.508 L1070.27,667.623 L1071.42,667.769 L1072.5,667.314 L1075.73,667.634 L1077.95,667.13 L1080.1,667.905 L1081.17,667.72 L1083.15,666.275 L1085.08,665.676 L1085.58,666.697 L1086.48,667.095 L1087.09,666.232 L1088.1,668.239 L1088.86,668.67 L1089.94,668.791 L1091.45,667.802 L1092.24,666.278 L1094.24,665.786 L1094.98,664.994 L1095.74,665.74 L1096.07,666.548 L1097.18,666.839 L1097.14,669.356 L1101.12,668.886 L1103.95,668.105 L1105.96,666.862 L1106.22,665.078 L1110.75,665.707 L1110.97,664.219 L1112.55,664.315 L1113.03,663.528 L1113.46,663.32 L1114.29,663.582 L1114.35,663.197 L1115.25,662.843 L1115.33,663.367 L1115.74,663.432 L1117.34,662.066 L1117.66,662.53 L1117.45,664.442 L1117.77,664.19 L1118.04,662.382 L1119.15,662.486 L1118.97,665.154 L1122.36,666.132 L1124.34,666.223 L1124.72,663.659 L1127.52,662.86 L1128.18,662.417 L1133.82,660.851 L1133.94,661.057 L1143.28,658.285 L1143.97,661.135 L1184.07,649.671 L1187.37,647.791 L1188.48,651.129 L1188.96,650.367 L1190.71,649.424 L1194.18,648.622 L1195.28,647.194 L1196.61,647.329 L1197.43,647.975 L1197.62,647.752 L1196.59,644.3 L1197.07,644.059 L1197.89,644.592 L1198.26,646 L1198.99,646.26 L1203.16,645.111 L1205.93,645.011 L1207.13,645.235 L1209.26,643.886 L1210.37,644.107 L1210.14,643.163 L1211.34,643.28 L1212.77,642.805 L1214.11,642.862 L1214.3,642.472 L1215.35,642.756 L1215.87,644.307 L1216.72,644.019 L1217.79,649.113 L1218.92,655.418 L1218.93,656.646 L1218.23,657.198 L1218.36,657.75 L1218.45,657.235 L1220.07,656.582 L1218.56,649.41 L1217.93,648.178 L1216.45,641.331 L1219.85,640.243 L1219.98,640.919 L1221.28,641.267 L1221.88,640.494 L1221.9,639.904 L1227.34,638.196 L1228.58,637.332 L1230.78,636.997 L1231.9,635.374 L1232.46,635.807 L1233.06,635.153 L1233.86,635.43 L1234.62,635.137 L1237.65,634.985 L1238.73,635.637 L1239.51,635.57 L1239.41,634.476 L1241.15,632.158 L1243.22,631.084 L1244.56,631.423 L1245.73,632.393 L1247.91,632.33 L1247.76,630.425 L1247.32,629.72 L1246.46,629.751 L1247.17,628.791 L1247.44,627.809 L1247.75,627.806 L1248.19,628.396 L1249.32,628.152 L1249.94,628.312 L1250.06,628.497 L1249.14,628.904 L1248.82,630.397 L1249.15,631.215 L1250.67,631.263 L1250.75,632.014 L1251.19,631.931 L1256.21,629.323 L1258.21,627.931 L1260.94,625.443 L1262.92,625.081 L1268.17,623.19 L1274.79,619.421 L1276.96,619.264 L1277.58,618.502 L1278.39,618.13 L1278.59,617.424 L1280.03,619.421 L1282.73,618.354 L1283.46,616.337 L1285.15,614.661 L1286.02,614.815 L1286.42,614.354 L1287.81,615.964 L1288.3,615.733 L1289.9,612.93 L1291,612.685 L1291.72,611.925 L1293.56,612.119 L1294,611.72 L1295.44,612.741 L1299.96,613.082 L1300.7,612.709 L1301.44,611.096 L1301.81,610.919 L1302.78,611.159 L1304.68,612.31 L1306.48,611.804 L1307.26,611.457 L1309.08,609.255 L1308.77,607.061 L1308.91,606.041 L1309.35,605.317 L1311.96,603.058 L1312.77,602.756 L1312.29,600.793 L1316.03,598.422 L1323,595.966 L1323.55,598.406 L1325.02,596.356 L1326.43,595.448 L1326.76,594.52 L1328.43,594.083 L1329,594.715 L1328.9,593.576 L1334.23,591.617 L1334.57,593.241 L1335.13,592.566 L1335.07,591.515 L1336.47,591.267 L1338.47,589.98 L1339.21,589.838 L1340.33,590.129 L1340.85,589.438 L1344.45,587.829 L1346.55,588.132 L1351.09,584.726 L1353.18,585.19 L1354.5,585.097 L1355.88,583.837 L1358.06,583.331 L1358.07,582.593 L1358.97,581.948 L1359.5,580.557 L1360.02,580.099 L1360.64,580.071 L1361.21,580.82 L1362.67,581.313 L1367.26,578.593 L1367.92,578.45 L1369.78,578.832 L1371.7,577.505 L1372.59,577.404 L1373.39,576.446 L1374.56,575.922 L1375.26,575.818 L1375.9,576.394 L1380.01,574.72 L1380.36,574.337 L1381.68,574.206 L1383.4,575.503 L1385.23,573.533 L1387.11,573.067 L1387.69,571.799 L1388.08,571.565 L1388.89,571.659 L1390.38,571.149 L1392.78,573.867 L1395.64,572.579 L1395.11,568.505 L1404.94,566.241 L1409.14,565.759 L1412.16,564.809 L1416.02,564.049 L1419.53,563.905 L1424.98,562.708 L1427.29,562.666 L1428.78,563.334 L1431.03,563.724 L1431.06,564.028 L1443.47,560.303 L1454.74,557.354 L1528.07,546.818 L1551.68,543.654 L1558.67,543.397 L1564.44,543.539 L1573.43,544.597 L1584.63,547.24 L1625.64,561.346 L1630.79,563.745 L1661.78,582.738 L1665.89,582.911 L1696.66,554.142 L1698.11,553.151 L1699.52,552.96 L1700.87,553.327 L1730.32,565.509 L1732.85,565.448 L1735.94,557.818 L1737.18,556.416 L1739.26,555.436 L1741.8,555.423 L1742.96,555.936 L1742.92,556.723 L1739.29,556.814 L1737.36,558.188 L1734.07,565.965 L1735.1,567.482 L1738.27,568.866 L1739.91,570.251 L1740.92,572.825 L1741.87,577.099 L1741.19,577.911 L1738.12,577.116 L1737.83,577.969 L1736.88,577.744 L1736.85,578.069 L1736.06,577.844 L1735.98,576.467 L1727.24,574.252 L1726.27,573.353 L1717.47,571.138 L1714.28,566.472 L1708.28,564.982 L1706.09,573.471 L1741.83,583.031 L1741.45,584.579 L1741.89,584.78 L1741.73,585.74 L1740.66,589.089 L1738.6,594.203 L1738.3,594.603 L1737.86,594.584 L1737.05,596.545 L1701.08,586.912 L1699.33,587.412 L1698.49,589.365 L1700.59,589.787 L1700.44,590.446 L1698.38,589.761 L1696.86,595.544 L1698.5,596.128 L1698.42,596.48 L1697.16,596.273 L1731.37,605.319 L1730.82,607.375 L1731.15,607.784 L1729.71,613.179 L1729.25,613.604 L1711.47,609.019 L1709.79,614.917 L1710.45,615.035 L1710.41,615.272 L1709.68,615.336 L1709.7,615.662 L1710.35,615.78 L1710.31,616.02 L1709.74,615.918 L1710.38,616.995 L1711.28,617.363 L1720.69,618.953 L1739.8,623.729 L1742.8,623.412 L1746.28,621.71 L1747.66,621.562 L1756.04,623.755 L1756.44,622.733 L1757.54,623.017 L1757.39,624.105 L1766.25,626.498 L1767.12,626.54 L1767.81,626.17 L1769.46,626.402 L1769.78,625.33 L1780.83,628.175 L1782.23,627.54 L1783.78,628.167 L1784.34,627.881 L1785.37,628.154 L1787.25,621.02 L1771.42,616.684 L1768.14,616.181 L1768.29,615.631 L1751.68,611.204 L1750.55,610.657 L1749.72,609.534 L1749.68,607.786 L1758.65,574.006 L1758.55,569.815 L1757.3,566.421 L1755.53,564.008 L1755.37,563.136 L1755.85,562.754 L1756.56,562.971 L1757.88,565.048 L1758.96,566.971 L1759.71,569.15 L1760.05,572.007 L1759.35,576.125 L1759.4,577.573 L1789.81,590.262 L1796.61,593.924 L1801.25,596.921 L1812.14,605.952 L1830.24,623.518 L1829.92,623.78 L1835.29,628.786 L1837.21,626.513 L1839.08,628.012 L1839.03,628.405 L1838.4,629.015 L1838,629.025 L1836.83,630.269 L1839.24,632.86 L1842.03,629.776 L1843.01,630.733 L1844.76,628.943 L1845.45,627.499 L1845.17,625.504 L1845.54,625.853 L1845.67,627.462 L1845.31,628.444 L1843.54,630.438 L1842.95,631.847 L1841.21,633.749 L1841.35,635.717 L1842.41,638.25 L1842.89,640.688 L1843.41,646.439 L1843.15,648.055 L1843.43,648.572 L1843.04,648.596 L1842.84,649.032 L1843.32,649.378 L1842.41,649.403 L1841.73,651.608 L1840.24,654.039 L1844.52,655.232 L1841.45,654.751 L1840.25,655.636 L1841.02,656.863 L1843.71,658.001 L1843.67,658.218 L1839.57,656.569 L1839.31,656.845 L1826.44,696.722 L1826.12,701.594 L1826.89,701.861 L1826.1,701.765 L1824.11,745.364 L1825.99,747.487 L1831.76,752.724 L1832.54,752.01 L1831.9,752.852 L1833.82,754.746 L1834.78,754.265 L1833.97,754.903 L1839.59,763.911 L1840.53,763.2 L1844.21,761.546 L1846.75,760.759 L1840.96,763.183 L1839.67,764.045 L1840.75,766.599 L1851,782.881 L1852.87,787.04 L1852.96,788.052 L1852.01,790 L1847.2,795.543 L1847,799.022 L1848.01,800.124 L1849.34,800.017 L1851.58,800.556 L1854.18,802.131 L1855.62,803.997 L1857.74,810.042 L1860.72,811.109 L1857.84,810.4 L1857.97,811.987 L1854.32,827.531 L1854.02,830.405 L1854.75,841.265 L1855.69,844.612 L1860.24,857.022 L1864.99,858.762 L1860.34,857.263 L1860.69,858.938 L1860.32,862.982 L1863.33,872.158 L1865.91,876.653 L1867.91,877.462 L1868.43,878.391 L1872.09,879.634 L1868.43,878.595 L1867.57,882.383 L1866.17,893.808 L1867.14,899.651 L1869.96,904.58 L1870.24,905.544 L1871.7,906.233 L1870.23,905.724 L1869.75,914.924 L1871.29,921.353 L1871.22,924.739 L1871.73,927.556 L1872.65,930.893 L1873.43,931.253 L1873.26,931.399 L1874.66,936.611 L1876.75,940.193 L1876.81,941.24 L1876.15,942.414 L1876.1,943.38 L1878.05,945.913 L1881.93,955.121 L1882.81,955.535 L1894.21,955.758 L1895.76,954.542 L1894.44,955.768 L1895.59,956.136 L1904.52,965.05 L1913.61,971.571 L1915.71,970.72 L1913.83,971.715 L1915.73,972.587 L1919.64,976.396 L1921.34,976.488 L1919.68,976.607 L1925.92,982.291 L1926.53,982.248 L1926.18,982.514 L1930.86,987.298 L1932.82,987.154 L1931.15,987.459 L1937.14,994.068 L1937.43,993.427 L1938.11,994.085 L1937.8,994.475 L1938.12,994.476 L1939.66,993.542 L1938.3,994.824 L1940.64,998.823 L1944.15,999.808 L1948.94,1000.62 L1949.36,1000.39 L1950.92,997.352 L1951.04,997.741 L1949.8,1000.68 L1953.17,1001.75 L1954.44,999.319 L1954.81,999.075 L1953.51,1002.33 L1953.93,1003.56 L1956.11,1006.95 L1965.38,1014.23 L1969.28,1016.74 L1969.43,1017.62 L1967.71,1025.11 L1973.92,1029.03 L1974.97,1028.27 L1974.09,1029.13 L1974.59,1029.4 L1987.58,1034.63 L1988.32,1033.81 L1987.72,1034.86 L1991.46,1036.32 L1997.47,1037.52 L1997.55,1036.92 L1999.45,1038.02 L2023.02,1044.18 L2023.42,1043.56 L2023.27,1044.3 L2046.18,1054.34 L2050.48,1055.81 L2053.04,1055.62 L2053.12,1056.73 L2053.39,1056.94 L2057.63,1058.83 L2065.61,1060.47 L2074.23,1061.57 L2077.43,1061.74 L2080.73,1061.23 L2091.45,1060.84 L2093.94,1060.14 L2094.87,1060.34 L2095.07,1061.27 L2094.99,1061.53 L2089.37,1062.81 L2087.62,1063.96 L2086.29,1064.29 L2084.04,1063.7 L2076.84,1064.07 L2070.68,1063.71 L2061.67,1062.07 L2055.2,1059.97 L2046.35,1056.2 L2045.53,1056.42 L2045.02,1057.31 L2044.57,1056.92 L2044.85,1056.38 L2044.53,1055.44 L2022.09,1045.75 L1991.85,1037.97 L1975.25,1031.11 L1973.18,1030.01 L1972.25,1030.68 L1972.09,1030.28 L1972.68,1029.71 L1970.45,1028.35 L1969.31,1029.98 L1968.77,1029.37 L1969.31,1028.3 L1967.96,1027.9 L1967.53,1028.07 L1965.87,1027.39 L1962.49,1022.27 L1960.93,1021.27 L1959.69,1022.03 L1948.57,1005.02 L1942.19,1008.16 L1944.8,1012.23 L1942.12,1019.83 L1941.89,1019.71 L1944.57,1012.28 L1942.05,1008.32 L1937.89,1019.17 L1936.93,1018.83 L1935.75,1023.69 L1939.25,1025.03 L1939.46,1026.03 L1939.1,1026.99 L1936.67,1030.02 L1937.07,1030.94 L1938.08,1029.46 L1940.04,1028.21 L1939.7,1027.84 L1939.26,1027.9 L1939.67,1026.11 L1940.23,1025.45 L1940.65,1025.56 L1941.28,1026.5 L1940.88,1027.2 L1941.08,1027.47 L1942.76,1028.44 L1943.81,1028.87 L1946.3,1028.64 L1946.33,1026.19 L1945.07,1025.84 L1944.66,1025.32 L1945.09,1019.94 L1946.4,1020 L1946.12,1024.8 L1947.13,1024.91 L1947.43,1022.14 L1948.74,1022.08 L1948.59,1025.55 L1947.78,1025.67 L1947.47,1026.01 L1947.38,1028.69 L1947.79,1028.72 L1948.6,1028.1 L1948.66,1027.56 L1951.93,1028.07 L1951.71,1029.85 L1954.26,1029.83 L1956.43,1030.6 L1956.85,1030.19 L1962.15,1033.18 L1964.64,1034.99 L1965.4,1037.34 L1965.2,1038.97 L1961.1,1045.94 L1961.28,1046.38 L1961.86,1046.41 L1961.15,1047.74 L1961.35,1047.87 L1962.02,1046.81 L1962.24,1046.95 L1961.6,1048.03 L1962.05,1048.31 L1962.9,1046.95 L1963.6,1047.32 L1965.28,1045.36 L1968.82,1039.88 L1969.99,1038.95 L1971.63,1038.41 L1978.46,1042.67 L1979.55,1041.08 L1979.53,1041.57 L1978.66,1042.75 L1980.42,1043.45 L1980.89,1042.13 L1981.39,1042.38 L1980.68,1043.55 L1983.59,1044.7 L1987.13,1045.57 L1990.3,1045.55 L1994.99,1047.23 L1995.53,1046.09 L1995.86,1046.13 L1996.06,1046.23 L1995.6,1047.45 L1997.87,1048.25 L2003.37,1051.4 L2007.65,1054.27 L2009.11,1054.51 L2014.33,1053.65 L2014.34,1051.78 L2011.1,1051.74 L2018.2,1051.56 L2014.49,1051.95 L2014.55,1053.62 L2016.81,1053.45 L2018.97,1053.79 L2026.63,1056.98 L2028.54,1058.11 L2030.65,1059.87 L2033.42,1061.19 L2041.82,1063.05 L2046.01,1064.8 L2046.48,1063.73 L2043.88,1062.54 L2044.13,1062.04 L2046.9,1063.27 L2046.18,1064.91 L2062.15,1071.92 L2063.54,1073.76 L2070.54,1077 L2071.18,1076.86 L2073.71,1078.08 L2076.27,1076.71 L2076.62,1076.85 L2073.76,1078.43 L2076.86,1079.23 L2078.84,1079.37 L2082.46,1082.42 L2082.92,1082.34 L2082.75,1081.83 L2083.19,1082.22 L2083.95,1081.85 L2084.12,1082.09 L2082.95,1082.84 L2085.79,1086.99 L2090.33,1083.63 L2090.48,1083.14 L2090.79,1083.3 L2106.78,1071.8 L2106.92,1071.54 L2105.87,1069.18 L2105.33,1069.31 L2105.19,1068.92 L2104.65,1068.72 L2104.12,1066.3 L2103.43,1066.03 L2103.54,1065.65 L2104.77,1064.92 L2105.56,1064.85 L2106.36,1065.69 L2107.48,1069.38 L2110.66,1077.4 L2111.31,1080.69 L2110.95,1083.62 L2110.63,1083.61 L2104.83,1097.04 L2105.3,1097.67 L2105.1,1098.13 L2125.97,1106.57 L2138.69,1110.97 L2147.07,1111.08 L2149.88,1110.26 L2158.55,1105.29 L2163.37,1103.23 L2164.66,1100.35 L2165.66,1096.53 L2165.86,1092.64 L2165.49,1088.96 L2166,1090.98 L2166.05,1094.58 L2165.17,1099.51 L2164.04,1102.38 L2162.79,1104.52 L2160.43,1106.26 L2160.2,1106.79 L2160.72,1107.67 L2160.27,1108.47 L2160.7,1108.79 L2161.31,1108.14 L2161.73,1108.37 L2162.64,1106.91 L2162.91,1107.03 L2163.33,1108 L2164.75,1109.17 L2164.48,1110.52 L2165.15,1110.77 L2165.64,1108.91 L2163.99,1107.02 L2163.89,1106.46 L2165.9,1100.36 L2166.88,1096.15 L2166.73,1089.14 L2167.14,1092.18 L2167.13,1095.96 L2164.23,1106.75 L2165.97,1108.61 L2166.04,1109.42 L2165.5,1111.09 L2166.44,1111.83 L2177.29,1114.97 L2180.79,1118.07 L2180.81,1120.13 L2181.83,1120.86 L2182.92,1121.15 L2225.76,1120.49 L2228.65,1119.21 L2228.54,1117.24 L2229.02,1119.06 L2230.56,1118.76 L2239.62,1119.23 L2240.08,1118.95 L2242.69,1118.93 L2243.53,1118.59 L2247.2,1113.17 L2248.16,1110.29 L2251.65,1106.71 L2252.7,1106.42 L2253.12,1101.91 L2253.65,1100.1 L2253.98,1100.18 L2253.16,1106.28 L2254.23,1106.09 L2254.44,1106.37 L2254.06,1106.96 L2254.18,1109.41 L2254.04,1109.69 L2253.34,1109.42 L2252.45,1110.27 L2252.38,1112.53 L2252.52,1113.22 L2252.92,1113.6 L2255.61,1113.88 L2256.2,1113.37 L2256.59,1112.35 L2256.92,1110.09 L2256.47,1109.62 L2255.42,1109.74 L2255.07,1109.37 L2255.42,1107.65 L2254.98,1105.93 L2259.74,1105.36 L2259.55,1102.69 L2264,1095.74 L2264.23,1095.94 L2259.81,1102.64 L2259.99,1105.36 L2263.42,1105.19 L2264.29,1104.56 L2266.31,1104.04 L2268.41,1102.68 L2268.2,1101.11 L2268.52,1102.36 L2269.48,1102.54 L2272.6,1102.06 L2275.53,1100.64 L2278.18,1096.3 L2279.58,1094.89 L2282.29,1093.85 L2284.3,1092.52 L2286.87,1092.31 L2287.89,1091.33 L2288.69,1091 L2290.26,1092.37 L2290.45,1092.84 L2289.44,1095.81 L2289.02,1100.52 L2288.25,1102.15 L2290.35,1103.82 L2291.26,1103.6 L2290.32,1104.14 L2289.16,1106 L2287.56,1105.58 L2289,1105.57 L2290.14,1103.99 L2288.07,1102.29 L2285.51,1102.23 L2282.56,1103.24 L2282.24,1104.3 L2279.72,1106.32 L2277.53,1109.52 L2274.23,1112.51 L2273.91,1113.44 L2273.48,1113.59 L2272.75,1114.92 L2272.07,1117.24 L2271.35,1118.07 L2271.78,1118.51 L2271.22,1118.21 L2266.95,1122.02 L2266.7,1121.88 L2266.8,1122.19 L2261.51,1127.58 L2260.61,1126.68 L2259.74,1126.45 L2259.05,1127.49 L2258.69,1129.14 L2258.31,1129.65 L2258.22,1130.28 L2258.58,1130.44 L2258.59,1129.75 L2258.85,1129.72 L2259.03,1130.72 L2257.99,1130.87 L2258.54,1131.06 L2258.84,1131.56 L2258.21,1132.12 L2257.09,1135.97 L2255.31,1150.11 L2256.09,1156.7 L2258.26,1166.12 L2258.77,1170.08 L2259.6,1172.97 L2259.87,1175.06 L2261.01,1177.39 L2261.06,1180.23 L2259.92,1184.17 L2255.07,1190.02 L2254.2,1191.64 L2255.08,1196.03 L2254.68,1195.4 L2254.44,1195.44 L2254.37,1196.1 L2252.39,1197.9 L2251.92,1198.91 L2250.85,1205.42 L2249.98,1207.66 L2249.16,1211.38 L2248.46,1212.37 L2248.81,1213.09 L2248.72,1215.87 L2247.42,1218.52 L2246.53,1222.39 L2246.6,1225.12 L2247.57,1227.65 L2246.5,1231.02 L2246.62,1234.7 L2247.02,1235.74 L2248.08,1236.44 L2248.34,1237.79 L2247.98,1239.51 L2248.52,1240.06 L2248.65,1241.23 L2250.08,1243.58 L2250.88,1243.7 L2251.24,1244.32 L2251.91,1243.55 L2252.3,1243.7 L2252.67,1245.79 L2254.13,1248.29 L2254.66,1248.63 L2255.56,1248.16 L2255.56,1248.77 L2256.07,1248.93 L2257.15,1250.61 L2259.76,1252.74 L2259.5,1253.55 L2254.51,1260.94 L2251.83,1264.43 L2252.28,1265.06 L2252.55,1264.88 L2252.18,1264.42 L2257.71,1256.99 L2259.65,1253.94 L2261.41,1251.99 L2262.51,1253.74 L2262.55,1254.7 L2263.5,1256.21 L2265.34,1256.47 L2263.98,1257.58 L2264.64,1257.67 L2264.49,1258.33 L2265.64,1260.66 L2266.43,1261.06 L2266.57,1261.56 L2267.28,1261.64 L2267.96,1262.44 L2268.34,1262.35 L2268.56,1262.74 L2269.14,1262.3 L2269.46,1263.38 L2269.44,1266.1 L2270.48,1265.91 L2270.73,1267.58 L2271.34,1268.63 L2272.47,1268.44 L2273.1,1267.64 L2273.23,1268.27 L2272.73,1269.8 L2273.95,1269.98 L2274.52,1271.51 L2275.51,1271.66 L2275.71,1272.02 L2275.45,1272.76 L2275.76,1272.79 L2276.44,1272.05 L2277.16,1272.04 L2278.56,1270.65 L2280.59,1273.55 L2281.72,1273.74 L2283.06,1271.79 L2283.37,1272.64 L2284.18,1273.15 L2285.76,1271.63 L2286.88,1271.11 L2287.09,1272.35 L2287.48,1272.62 L2288.55,1274.68 L2288.64,1275.63 L2289.01,1275.95 L2290.11,1276.02 L2292.07,1278.79 L2292.57,1278.8 L2292.91,1280.18 L2293.47,1280.51 L2293.62,1280.27 L2294.43,1280.24 L2294.42,1280.6 L2295.66,1281.26 L2296.91,1283.21 L2298.08,1282.51 L2297.55,1283.42 L2298.01,1283.71 L2298.62,1284.93 L2291.83,1295.04 L2299.77,1283.93 L2301.69,1283.17 L2302.54,1283.27 L2304.14,1284.68 L2304.76,1285.95 L2305.6,1286.16 L2306.42,1285.13 L2307.33,1284.76 L2307.13,1284.26 L2307.44,1283.69 L2309.68,1280.93 L2309.85,1281.05 L2309.05,1283.67 L2309.54,1284.57 L2309.55,1285.43 L2310.39,1285.02 L2309.92,1285.65 L2310.52,1286.27 L2310.44,1286.79 L2310.8,1286.74 L2310.95,1287.09 L2311.61,1287.17 L2312.06,1287.58 L2313.53,1286.91 L2314.23,1287.8 L2314.52,1289.19 L2315.56,1289.67 L2316.47,1290.64 L2316.72,1290.09 L2318.42,1289.75 L2323.03,1284.79 L2323.61,1285.27 L2323.6,1288.65 L2326.35,1289.77 L2324.91,1291.86 L2326.53,1289.85 L2327.96,1289.85 L2329.43,1288.76 L2331.35,1288.33 L2333.13,1290.13 L2333.54,1291.02 L2334.07,1291.41 L2334.83,1291.42 L2334.94,1291.84 L2335.85,1292.63 L2337.51,1292.32 L2338.35,1291.69 L2339.87,1291.62 L2340.52,1291.26 L2342.09,1291.77 L2343,1291.41 L2344.55,1291.94 L2345.4,1292.44 L2346.01,1293.26 L2347.01,1299.32 L2345.56,1311.78 L2346.82,1303.11 L2347.25,1301.86 L2348.1,1306.19 L2346.58,1292.99 L2347.79,1291.8 L2348.34,1291.67 L2350.07,1292.2 L2351.92,1293.2 L2353.02,1293.4 L2354.08,1294.84 L2357.92,1321.14 L2354.43,1294.15 L2355.02,1292.61 L2356.42,1292.42 L2359.22,1294.41 L2360.13,1294.61 L2360.48,1292.47 L2360.92,1292.17 L2362.02,1292.23 L2362.92,1293.1 L2363.7,1293.31 L2364.17,1293.98 L2365.01,1298.3 L2366.86,1299.45 L2367.17,1300.2 L2367.57,1300.3 L2367.58,1302.28 L2368.07,1304.16 L2369.25,1314.14 L2370.67,1322.64 L2368.4,1304.12 L2367.78,1301.97 L2368.09,1299.2 L2369.32,1298.99 L2371.38,1300.52 L2372.21,1300.62 L2373.41,1301.34 L2374.4,1301.19 L2375.11,1301.56 L2375.36,1302.51 L2377.16,1304.46 L2377.61,1305.42 L2378,1305.27 L2379.36,1306.89 L2380.73,1307.65 L2381.1,1308.75 L2383.33,1325.43 L2384.21,1329.8 L2381.37,1307.43 L2382.67,1306.48 L2383.96,1306.75 L2384.67,1306.39 L2385.5,1306.55 L2387.86,1305.37 L2389.1,1305.4 L2390.35,1306.08 L2391.02,1307.18 L2392.9,1308.71 L2393.28,1310.56 L2394.1,1311.11 L2394.55,1313.3 L2396.3,1326.73 L2395.79,1319.63 L2394.55,1311.14 L2394.53,1310.7 L2395.15,1310.13 L2395.36,1309.41 L2396.06,1309.18 L2397.23,1309.41 L2398.24,1310.68 L2399.93,1311.89 L2400.31,1311.48 L2400.69,1311.55 L2403.34,1312.57 L2404.09,1313.21 L2404.19,1314.14 L2404.71,1314.74 L2405.2,1314.75 L2405.57,1314.17 L2405.87,1314.31 L2407.26,1315.58 L2407.37,1316.06 L2407.35,1312.97 L2407.81,1311.91 L2407.66,1310.45 L2408.89,1310.11 L2409.42,1309.32 L2410.08,1309.08 L2411.16,1309.34 L2412.06,1310.2 L2413.02,1309.98 L2413.32,1309.65 L2413.37,1306.94 L2413.77,1306.36 L2414.73,1306.34 L2415.1,1307.13 L2416.62,1307.33 L2418.35,1308.39 L2418.82,1309.02 L2419.71,1308.09 L2420.75,1308.11 L2422.33,1308.77 L2423.75,1310.27 L2424.4,1311.4 L2426.34,1311.78 L2427.15,1313.07 L2427.84,1313.27 L2428.23,1313.79 L2428.76,1313.61 L2429.39,1313.94 L2429.75,1314.81 L2430.56,1315.53 L2431.44,1317.64 L2431.53,1318.78 L2431.95,1319.16 L2432.52,1318.99 L2434.4,1329.84 L2433.18,1320.52 L2432.62,1318.46 L2433.01,1318.14 L2434.25,1317.91 L2434.75,1318.53 L2436.17,1317.96 L2437.34,1318.19 L2437.59,1319.09 L2437.22,1320.65 L2437.69,1320.95 L2438.91,1320.78 L2439.72,1321.11 L2439.59,1322.07 L2439.91,1322.96 L2440.7,1322.44 L2441.09,1322.65 L2440.93,1323.57 L2440.03,1323.66 L2439.91,1324.12 L2441.49,1323.98 L2441.99,1327.84 L2442.08,1326.05 L2442.23,1325.69 L2442.89,1325.64 L2443.87,1330.78 L2444.02,1337.34 L2443.03,1340.66 L2442.23,1341.35 L2441.48,1343.12 L2439.86,1345.41 L2441.16,1343.97 L2441.41,1344.22 L2441.23,1344.66 L2440.21,1346.35 L2438.65,1347.97 L2441.06,1345.7 L2442.7,1342.78 L2443.63,1342.01 L2444.74,1339.97 L2445.1,1338.24 L2445.48,1333.15 L2443.94,1321.28 L2444.12,1321.08 L2445.31,1323.3 L2447.11,1323.43 L2447.21,1325.76 L2447.69,1325.67 L2447.84,1325.1 L2448.34,1324.78 L2448.18,1323.82 L2447.42,1322.51 L2447.48,1322.07 L2447.98,1321.91 L2448.28,1322.06 L2449.09,1324.14 L2450.39,1324.11 L2450.31,1323.48 L2451.1,1322.93 L2452.03,1323.1 L2454.1,1324.18 L2456.04,1326.53 L2456.72,1326.94 L2459.25,1327.52 L2460.22,1328.96 L2460.75,1328.39 L2461.14,1328.38 L2461.51,1328.81 L2461.47,1329.52 L2462.7,1331.06 L2463.29,1330.45 L2463.95,1330.39 L2465.56,1339.78 L2465.49,1337.22 L2465.27,1337.13 L2464.12,1329.58 L2464.84,1328.93 L2464.43,1328.37 L2464.62,1327.52 L2466.04,1327.93 L2466.25,1329.22 L2468.39,1330.6 L2468.85,1331.3 L2469.44,1331.43 L2470.78,1333.07 L2471.02,1332.48 L2472.21,1332.2 L2472.34,1331.78 L2471.72,1331.08 L2472.44,1330.33 L2475.04,1331.96 L2475.34,1332.19 L2475.22,1332.88 L2476.01,1333.96 L2477.11,1334.39 L2477.26,1334.94 L2478.32,1342.4 L2478.62,1343.01 L2479.08,1347.52 L2479.4,1348.29 L2479.64,1348.08 L2478.59,1342.63 L2477.66,1333.34 L2481.71,1333.4 L2484.24,1334.32 L2484.33,1335.06 L2486.96,1333.85 L2489.32,1334.73 L2489.76,1335.1 L2490.23,1336.89 L2490.67,1340.1 L2490.39,1336.08 L2491.31,1335.42 L2495.95,1336.72 L2502.32,1337.97 L2502.89,1338.48 L2503.49,1341.12 L2503.43,1339.77 L2503.78,1338.38 L2505.61,1338.48 L2506.07,1338.79 L2507.22,1338.34 L2508.76,1338.59 L2509.42,1339.07 L2509.91,1340.75 L2510.89,1341.95 L2510.63,1342.37 L2511.2,1343.09 L2513.2,1353.71 L2514.5,1353.52 L2515.31,1356.06 L2515.53,1356.01 L2515.48,1353.43 L2515.92,1355.68 L2517.18,1355.69 L2517.1,1354.41 L2517.56,1354.33 L2517.7,1353.59 L2517.52,1352.41 L2516.39,1349.87 L2514.48,1346.81 L2513.18,1343.53 L2513.33,1343.04 L2515.34,1342.2 L2513.97,1342.27 L2512.89,1341.67 L2512.56,1339.99 L2512.74,1339.64 L2512.22,1339.29 L2512.01,1338.34 L2513.02,1337.67 L2513.71,1336.35 L2515.04,1335.82 L2514.73,1335.17 L2514.21,1335.6 L2514.02,1335.44 L2514.48,1333.91 L2515.41,1332.98 L2515.3,1331.06 L2516.43,1330 L2517.97,1329.96 L2518.47,1329.67 L2518.68,1328.66 L2518.4,1329.31 L2516.5,1329.43 L2515.33,1330.14 L2514.77,1331.4 L2514.14,1331.82 L2513.48,1332.97 L2512.75,1333.38 L2510.75,1333.04 L2510.47,1332.72 L2510.51,1332.06 L2511.18,1331.6 L2511.38,1330.91 L2511.14,1330.63 L2509.89,1330.51 L2509.29,1329.4 L2509.92,1328.71 L2510.82,1328.43 L2511.5,1329.09 L2512.82,1329.1 L2513,1328.47 L2512.68,1327.47 L2511.85,1326.42 L2512.23,1325.85 L2513.59,1325.94 L2513.41,1324.35 L2513.89,1323.31 L2513.89,1323.01 L2513.09,1322.59 L2512.88,1321.85 L2513.77,1320.82 L2515,1318.07 L2515.86,1317.71 L2516.73,1318.07 L2517.32,1317.96 L2524.52,1368.16 L2521.93,1367.55 L2520.37,1367.48 L2523.36,1380.51 L2532.78,1408.48 L2533.9,1414.44 L2535.09,1462.13 L2535.12,1473.15 L2532.9,1481.04 L2530.54,1484.07 L2524.78,1488.68 L2522.24,1491.58 L2515.3,1505.49 L2555.08,1532.96 L2555.61,1533.78 L2530.4,1543.49 L2524.51,1545.3 L2515.36,1546.76 L2506.15,1546.68 L2479.64,1597.76 L2479.23,1600.23 L2480.3,1605.22 L2476.98,1611.83 L2476.46,1613.49 L2476.21,1621.13 L2477.1,1645.31 L2469.26,1657.04 L2465.39,1665.09 L2464.28,1671.11 L2463.74,1672.25 L2457.67,1679.69 L2455.07,1677.88 L2456.66,1696.73 L2458.26,1710.27 L2459.06,1714.36 L2461.08,1719.01 L2464.75,1725.06 L2465.63,1724.94 L2469.43,1727.29 L2466.37,1731.82 L2464.84,1733.23 L2464.6,1734.06 L2463.21,1735.82 L2504.39,1764.65 L2497.03,1875.37 L2511.95,2004.58 L2525.4,2117.5 L2534.76,2131.21 L2531.93,2134.99 L2532.75,2135.91 L2529.96,2137.77 L2518.45,2153.6 L2460.37,2356.17 L2350.07,2540.72 L2318.29,2593.29 L2316.17,2596.33 L2314.38,2599.83 L2300.7,2622.7 L2290.77,2636.22 L2288.97,2637.1 L2288.87,2638.84 L2265.28,2670.89 L2276.57,2710.96"/>
   <path fill-rule="evenodd" vector-effect="none" d="M990.001,398.161 L988.685,395.036 L986.124,351.026 L982.181,332.952 L981.083,331.817 L979.792,326.952 L978.903,320.104 L976.96,310.514 L971.826,298.85 L964.774,289.647 L962.023,283.924 L962.95,277.08 L967.7,267.1 L985.329,247.97 L993.347,240.521 L1002.13,235.423 L1005.24,234.492 L1015.3,233.527 L1020.63,233.733 L1024.83,234.792 L1027.76,237.821 L1034.95,246.385 L1047.6,254.537 L1051.5,258.576 L1053.18,262.456 L1060.35,272.014 L1063.77,275.304 L1067.77,281.328 L1064.07,279.654 L1056.86,272.83 L1051.87,266.91 L1047.11,261.864 L1042.99,255.958 L1035.01,250.365 L1030.24,246.064 L1028.54,244.049 L1025.72,241.892 L1020.42,239.697 L1019.66,240.804 L1021.87,242.081 L1032.78,250.458 L1037.41,255.371 L1039.39,258.689 L1047.32,266.357 L1074.86,294.465 L1076.5,296.977 L1076.88,298.144 L1076.96,300.459 L1075.27,298.592 L1074.48,298.14 L1072.13,297.782 L1070.63,297.078 L1055.31,285.286 L1049.42,279.673 L1042.98,275.331 L1039.83,271.881 L1032.61,266.046 L1030.85,262.825 L1028.11,259.812 L1026.24,258.282 L1025.43,258.329 L1025.33,259.734 L1024.91,260.162 L1024.38,258.985 L1024.52,256.138 L1023.79,254.959 L1022.16,254.38 L1019.61,254.677 L1018.79,255.061 L1017.11,256.697 L1015.11,257.775 L1012.41,256.586 L1009.96,256.647 L1009.33,256.321 L1008.36,255 L1006.12,254.233 L1003.02,252.564 L1001.66,252.642 L1001.53,253.194 L1002.42,256.107 L1001.67,257.046 L1000.34,256.65 L999.8,256.841 L999.24,257.424 L999.126,258.471 L1000.91,260.498 L1002.93,261.696 L1014.99,266.73 L1017.06,266.544 L1018.67,267.918 L1023.71,273.475 L1024.81,274.323 L1026.88,275.285 L1027.54,274.757 L1024.86,270.743 L1024.72,269.995 L1024.86,268.956 L1026.89,267.083 L1029,271.128 L1030.56,272.634 L1034.01,275.089 L1035.14,276.384 L1038.24,278.656 L1039.87,281.019 L1041.18,282.343 L1042.36,283.333 L1045.6,284.917 L1048.78,287.947 L1052.34,290.047 L1053.39,291.137 L1055.73,291.684 L1057.78,293.769 L1061.38,298.222 L1063.59,299.892 L1065.87,302.791 L1071.05,307.417 L1071.29,308.372 L1070.95,309.196 L1069.71,310.353 L1064.95,311.699 L1063.91,311.55 L1062.66,310.074 L1060.24,309.857 L1059.58,309.152 L1059.11,307.416 L1058.03,305.244 L1057.44,305.667 L1057.8,305.009 L1057.24,303.583 L1056.33,304.368 L1057.13,303.29 L1056.74,302.247 L1055.99,301.374 L1055.65,301.077 L1055.52,303.758 L1055.3,300.764 L1054.16,299.802 L1054.11,302.149 L1053.85,302.339 L1053.79,299.506 L1052.81,298.597 L1052.56,298.427 L1052.5,300.31 L1052.28,300.492 L1052.23,298.086 L1050.41,297.746 L1046.85,295.927 L1047.25,297.165 L1047.02,297.284 L1046.28,295.19 L1045.12,294.302 L1041.81,294.338 L1037.92,295.263 L1035.79,296.088 L1031.38,298.565 L1028.99,299.256 L1022.98,299.645 L1020.34,300.578 L1016.82,300.77 L1012.61,301.716 L1007.66,300.409 L1006.81,300.427 L1004.59,299.662 L1002.67,299.444 L1003.47,300.435 L1005,301.343 L1003.8,301.893 L1003.79,302.461 L1006.99,303.616 L1009.25,304.904 L1011.21,306.552 L1014.66,308.469 L1017.69,312.865 L1021.71,317.276 L1026.22,330.267 L1026.01,335.979 L1023.23,339.664 L1020.68,344.222 L1019.21,351.41 L1014.7,362.889 L1014.15,366.233 L1010.9,367.8 L1007.55,367.872 L1002.12,367.045 L994.962,364.949 L990.235,374.318 L990.273,380.032 L991.411,386.756 L992.817,392.118 L992.769,395.346 L992.356,398.072 L990.001,398.161"/>
   <path fill-rule="evenodd" vector-effect="none" d="M1206.69,326.233 L1206.44,325.878 L1206.66,324.731 L1206.33,323.759 L1203.63,322.234 L1189.94,318.705 L1187.72,315.024 L1188.26,313.328 L1188.78,305.816 L1187.46,303.516 L1187.36,302.375 L1189.47,298.424 L1189.58,291.698 L1190.57,286.823 L1190.73,284.2 L1191.46,281.261 L1192.05,280.012 L1192.23,277.238 L1197.37,273.423 L1198.07,272.512 L1198.02,271.981 L1199.15,270.712 L1203.03,269.62 L1205.65,269.587 L1206.17,269.96 L1205.96,270.298 L1204.31,269.994 L1203.55,270.157 L1202.39,270.567 L1202.1,271.116 L1200.61,271.477 L1201.3,271.912 L1202.39,272.006 L1212.49,272.352 L1220.44,273.654 L1238.1,273.884 L1243.94,273.181 L1246.53,274.229 L1251.91,275.446 L1259.38,278.042 L1264.99,280.822 L1270.74,285.302 L1276.36,291.465 L1281.44,296.047 L1286.55,298.381 L1288.98,300.329 L1290.08,302.037 L1290.27,303.614 L1288.7,303.698 L1282.28,302.452 L1275.44,299.373 L1272.66,298.831 L1265.34,294.592 L1259.12,293.5 L1253.57,291.43 L1249.81,290.543 L1247.18,290.334 L1246.54,289.5 L1245.44,286.757 L1244.67,287.436 L1242.64,288.096 L1240,291.584 L1235.43,294.055 L1233.48,296.962 L1232.41,298.044 L1227.3,299.16 L1222.08,301.024 L1218.06,308.412 L1212.84,313.028 L1212.8,315.678 L1211.74,317.189 L1208.51,319.061 L1206.69,326.233"/>
   <path fill-rule="evenodd" vector-effect="none" d="M445.67,900.105 L443.993,899.508 L434.132,899.632 L434.315,899.174 L432.229,898.137 L427.776,897.142 L427.051,898.355 L425.657,898.451 L425.444,898.721 L424.328,898.388 L423.046,898.437 L422.656,897.621 L420.582,897.705 L418.91,895.784 L417.141,894.993 L414.948,893.533 L413.137,890.501 L411.513,888.701 L409.3,887.742 L408.173,888.187 L408.047,887.556 L407.278,887.314 L407.66,886.386 L407.508,885.746 L406.8,885.02 L405.745,884.369 L404.521,884.701 L404.074,884.35 L403.74,883.309 L402.707,883.138 L402.553,882.657 L401.707,882.381 L401.474,881.846 L400.678,881.864 L400.124,881.539 L400.197,879.703 L396.791,878.335 L396.418,878.753 L395.785,878.869 L401.827,882.841 L405.565,885.952 L407.951,888.494 L414.57,894.066 L420.03,897.911 L420.656,898.032 L420.672,898.299 L419.953,898.1 L415.104,894.806 L407.411,888.326 L405.647,886.305 L402.794,883.919 L393.217,877.319 L390.865,875.296 L390.11,875.475 L390.737,874.961 L391.355,873.224 L392.351,864.913 L393.25,863.486 L395.118,863.529 L396.429,864.573 L397.774,864.973 L397.034,865.289 L399.82,865.669 L402.695,867.099 L402.813,868.574 L403.695,870.447 L405.319,872.328 L405.748,874.303 L406.37,875.72 L407.129,876.607 L408.159,879.485 L408.67,879.397 L408.877,878.418 L409.903,876.498 L409.722,875.208 L409.978,874.819 L409.646,874.479 L409.273,870.076 L409.416,869.092 L409.086,867.766 L408.314,867.276 L408.203,866.851 L409.006,862.764 L409.266,863.356 L408.991,864.536 L409.142,865.263 L410.292,864.234 L411.304,862.618 L411.916,860.096 L412.987,859.204 L414.915,859.279 L417.062,860.249 L417.656,861.053 L417.374,861.283 L417.614,861.754 L419.724,863.05 L420.358,864.033 L421.696,865.162 L424.11,866.192 L427.075,866.362 L435.284,868.734 L435.942,868.563 L439.215,869.054 L439.838,870.332 L441.374,871.695 L442.068,873.285 L443.05,874.394 L443.069,875.154 L442.379,877.213 L442.115,879.607 L442.459,881.44 L441.268,885.067 L440.724,889.562 L442.297,891.496 L444.505,893.368 L445.806,894.095 L445.494,896.851 L445.044,897.842 L442.989,899.283 L444.397,899.309 L445.67,900.105"/>
   <path fill-rule="evenodd" vector-effect="none" d="M1026.29,310.689 L1024.97,310.515 L1021.48,309.34 L1020.62,308.495 L1013.37,304.535 L1012.01,303.226 L1013.59,302.945 L1017.36,301.609 L1020.95,301.48 L1024.07,300.87 L1026.22,301.194 L1029.67,300.787 L1032.43,299.911 L1037.3,297.414 L1042.6,296.057 L1044.18,296.218 L1046.02,296.871 L1050.67,301.703 L1052.23,304.904 L1052.27,305.723 L1051.7,306.225 L1047.6,307.491 L1040.26,310.444 L1038.43,310.676 L1031.3,310.204 L1028.14,310.257 L1026.29,310.689"/>
   <path fill-rule="evenodd" vector-effect="none" d="M1245.6,356.763 L1244.13,356.739 L1240.31,356.263 L1235.51,353.897 L1232.31,351.663 L1229.5,349.186 L1226.12,345.618 L1223.77,343.971 L1223.44,342.6 L1224.05,341.9 L1225.12,339.349 L1228.65,335.422 L1232.35,334.2 L1234.2,334.231 L1239.92,336.167 L1240.41,336.493 L1240.4,337.148 L1241.85,337.965 L1245.88,338.704 L1248.91,339.996 L1249.3,340.855 L1249.46,343.176 L1249.26,343.818 L1247.33,343.976 L1246.8,346.825 L1247.59,347.722 L1243.92,346.579 L1242.25,345.216 L1242.7,346.015 L1243.98,347 L1247.05,348.092 L1246.69,349.941 L1247.53,350.837 L1247.62,351.455 L1247.23,352.247 L1247.66,353.302 L1247.41,354.224 L1247.73,354.587 L1247.43,355.019 L1248.82,354.633 L1247.76,356.172 L1245.6,356.763"/>
   <path fill-rule="evenodd" vector-effect="none" d="M476.556,808.234 L472.779,807.286 L469.497,805.683 L467.714,804.442 L468.082,802.834 L468.831,802.037 L473.772,799.657 L474.382,798.775 L475.229,798.369 L477.592,797.616 L479.112,797.474 L480.157,796.937 L481.84,796.945 L486.249,795.562 L489.125,796.882 L491.066,798.369 L492.967,802.184 L488.807,803.811 L487.29,805.315 L485.925,805.888 L484.885,806.963 L479.785,808.234 L476.556,808.234"/>
   <path fill-rule="evenodd" vector-effect="none" d="M395.569,829.009 L396.93,828.563 L395.972,827.34 L395.315,825.546 L395.139,824.178 L395.375,823.757 L395.094,823.103 L394.984,823.39 L394.714,822.292 L394.921,820.225 L394.142,818.907 L394.705,818.362 L395.465,818.324 L395.694,817.325 L396.601,816.541 L399.424,815.765 L400.063,815.898 L400.923,815.929 L403.358,817.548 L404.072,818.423 L404.358,820.129 L404.887,820.481 L405.479,821.737 L404.619,823.134 L403.599,823.869 L402.878,825.123 L401.825,825.229 L400.953,826.261 L399.17,827.218 L398.113,828.506 L395.569,829.009"/>
   <path fill-rule="evenodd" vector-effect="none" d="M1253.81,298.701 L1250.15,298.204 L1247.48,298.416 L1245.66,298.188 L1243.94,297.445 L1242.59,296.432 L1241.88,295.33 L1242.11,294.946 L1243.08,294.701 L1245.99,294.897 L1248.57,294.63 L1252.11,293.499 L1254.45,293.668 L1255.58,294.283 L1255.53,294.709 L1254.86,295.306 L1251.96,296.61 L1252.24,296.885 L1256.68,297.406 L1258.41,298.006 L1258.2,298.181 L1253.81,298.701"/>
   <path fill-rule="evenodd" vector-effect="none" d="M398.423,755.652 L398.003,755.421 L398.114,754.838 L399.399,753.635 L401.054,753.607 L403.343,752.446 L404.811,753.536 L405.254,753.528 L405.872,753.035 L405.666,752.259 L406.02,751.222 L407.167,751.171 L407.49,750.722 L408.822,750.619 L410.16,750.112 L411.132,750.527 L411.002,751.276 L409.325,752.881 L408.674,753.143 L405.975,754.052 L398.423,755.652"/>
   <path fill-rule="evenodd" vector-effect="none" d="M448.069,875.863 L446.062,875.711 L444.901,875.077 L444.447,873.889 L443.684,873.236 L442.997,871.999 L442.111,869.788 L442.941,867.945 L445.795,866.99 L447.594,868.02 L448.255,868.757 L448.594,869.768 L448.426,870.211 L447.451,870.749 L447.49,871.076 L448.164,872.632 L449.367,873.688 L449.605,874.37 L448.681,875.495 L448.069,875.863"/>
   <path fill-rule="evenodd" vector-effect="none" d="M454.25,902.41 L451.545,900.82 L450.69,899.966 L448.758,899.341 L447.812,898.585 L448.328,898.683 L449.386,895.397 L450.584,894.41 L451.02,894.488 L451.04,895.164 L451.612,895.268 L451.578,896.074 L452.319,896.851 L453.316,897.063 L453.838,897.114 L454.225,897.702 L454.348,897.019 L454.507,897.614 L453.447,901.481 L454.25,902.41"/>
   <path fill-rule="evenodd" vector-effect="none" d="M388.007,810.932 L387.207,810.91 L386.918,810.479 L386.469,806.894 L387.352,804.444 L389.493,804.968 L390.985,805.91 L391.883,806.999 L391.22,808.681 L389.433,810.068 L388.007,810.932"/>
   <path fill-rule="evenodd" vector-effect="none" d="M415.535,824.404 L414.581,823.387 L414.428,821.603 L414.848,821.209 L415.494,821.253 L416.073,820.901 L416.882,821.24 L418.917,822.241 L419.046,822.759 L418.34,823.486 L417.776,823.467 L417.429,823.791 L416.383,823.68 L416.005,824.319 L415.535,824.404"/>
   <path fill-rule="evenodd" vector-effect="none" d="M419.912,820.723 L418.511,820.386 L418.24,820.013 L418.163,819.385 L418.595,818.749 L417.864,817.914 L417.724,817.196 L417.91,816.833 L418.567,816.717 L419.424,816.815 L419.126,816.96 L421.305,818.234 L421.5,819.323 L420.975,819.035 L420.305,817.943 L420.306,818.579 L421.283,819.761 L420.906,820.374 L419.912,820.723"/>
   <path fill-rule="evenodd" vector-effect="none" d="M384.798,787.081 L384.625,786.925 L384.643,786.919 L384.798,787.081"/>
  </g>
  <g stroke-width="1" transform="matrix(0.999744,0,0,0.999744,0,0)" stroke-opacity="1" font-size="34.5833" fill="none" stroke-linejoin="bevel" font-style="normal" stroke-linecap="square" stroke="#000000" font-family="MS Shell Dlg 2" font-weight="400"/>
  <g stroke-width="1" transform="matrix(11.808,0,0,11.808,0,0)" stroke-opacity="1" font-size="34.5833" fill="none" stroke-linejoin="bevel" font-style="normal" stroke-linecap="square" stroke="#000000" font-family="MS Shell Dlg 2" font-weight="400"/>
  <g stroke-width="1" transform="matrix(11.808,0,0,11.808,0,0)" stroke-opacity="1" font-size="34.5833" fill="none" stroke-linejoin="bevel" font-style="normal" stroke-linecap="square" stroke="#000000" font-family="MS Shell Dlg 2" font-weight="400"/>
  <g stroke-width="1" transform="matrix(11.808,0,0,11.808,0,0)" stroke-opacity="1" font-size="34.5833" fill="none" stroke-linejoin="bevel" font-style="normal" stroke-linecap="square" stroke="#000000" font-family="MS Shell Dlg 2" font-weight="400"/>
  <g stroke-width="1" transform="matrix(1,0,0,1,0,0)" stroke-opacity="1" font-size="34.5833" fill="none" stroke-linejoin="bevel" font-style="normal" stroke-linecap="square" stroke="#000000" font-family="MS Shell Dlg 2" font-weight="400"/>
  <g stroke-width="1" transform="matrix(11.808,0,0,11.808,0,0)" stroke-opacity="1" font-size="34.5833" fill="none" stroke-linejoin="bevel" font-style="normal" stroke-linecap="square" stroke="#000000" font-family="MS Shell Dlg 2" font-weight="400"/>
  <g stroke-width="1" transform="matrix(11.808,0,0,11.808,0,0)" stroke-opacity="1" font-size="34.5833" fill="none" stroke-linejoin="bevel" font-style="normal" stroke-linecap="square" stroke="#000000" font-family="MS Shell Dlg 2" font-weight="400"/>
  <g stroke-width="1" transform="matrix(11.808,0,0,11.808,0,0)" stroke-opacity="1" font-size="34.5833" fill="none" stroke-linejoin="bevel" font-style="normal" stroke-linecap="square" stroke="#000000" font-family="MS Shell Dlg 2" font-weight="400"/>
  <g stroke-width="1" transform="matrix(11.808,0,0,11.808,0,0)" stroke-opacity="1" font-size="34.5833" fill="none" stroke-linejoin="bevel" font-style="normal" stroke-linecap="square" stroke="#000000" font-family="MS Shell Dlg 2" font-weight="400"/>
  <g stroke-width="1" transform="matrix(1,0,0,1,0,0)" stroke-opacity="1" font-size="34.5833" fill="none" stroke-linejoin="bevel" font-style="normal" stroke-linecap="square" stroke="#000000" font-family="MS Shell Dlg 2" font-weight="400"/>
 </g>
</svg>
