<?xml version='1.0' encoding='UTF-8' standalone='no'?>
<svg xmlns="http://www.w3.org/2000/svg" width="249.936mm" baseProfile="tiny" xmlns:xlink="http://www.w3.org/1999/xlink" version="1.2" viewBox="0 0 2952 2952" height="249.936mm">
 <title>Qt SVG Document</title>
 <desc>Generated with Qt</desc>
 <defs/>
 <g fill="none" fill-rule="evenodd" stroke-linecap="square" stroke-linejoin="bevel" stroke-width="1" stroke="black">
  <g fill="none" transform="matrix(1,0,0,1,0,0)" font-weight="400" stroke-opacity="1" stroke-linecap="square" stroke-linejoin="bevel" stroke-width="1" font-family="MS Shell Dlg 2" stroke="#000000" font-size="34.5833" font-style="normal"/>
  <g fill="none" transform="matrix(1,0,0,1,0,0)" font-weight="400" stroke-opacity="1" stroke-linecap="square" stroke-linejoin="bevel" stroke-width="1" font-family="MS Shell Dlg 2" stroke="#000000" font-size="34.5833" font-style="normal"/>
  <g fill="none" transform="matrix(11.808,0,0,11.808,0,0)" font-weight="400" stroke-opacity="1" stroke-linecap="square" stroke-linejoin="bevel" stroke-width="1" font-family="MS Shell Dlg 2" stroke="#000000" font-size="34.5833" font-style="normal"/>
  <g fill="none" transform="matrix(0.999744,0,0,0.999744,0,0)" font-weight="400" stroke-opacity="1" stroke-linecap="square" stroke-linejoin="bevel" stroke-width="1" font-family="MS Shell Dlg 2" stroke="#000000" font-size="34.5833" font-style="normal"/>
  <g fill="#ffffff" transform="matrix(0.999744,0,0,0.999744,0,0)" font-weight="400" fill-opacity="0" font-family="MS Shell Dlg 2" stroke="none" font-size="34.5833" font-style="normal">
   <path d="M-2,-2 L2955,-2 L2955,2955 L-2,2955 L-2,-2" fill-rule="evenodd" vector-effect="none"/>
  </g>
  <g fill="none" transform="matrix(0.999744,0,0,0.999744,0,0)" font-weight="400" stroke-opacity="1" stroke-linecap="square" stroke-linejoin="bevel" stroke-width="1" font-family="MS Shell Dlg 2" stroke="#000000" font-size="34.5833" font-style="normal"/>
  <g fill="none" transform="matrix(11.808,0,0,11.808,0,0)" font-weight="400" stroke-opacity="1" stroke-linecap="square" stroke-linejoin="bevel" stroke-width="1" font-family="MS Shell Dlg 2" stroke="#000000" font-size="34.5833" font-style="normal"/>
  <g fill="none" transform="matrix(11.808,0,0,11.808,0,0)" font-weight="400" stroke-opacity="1" stroke-linecap="square" stroke-linejoin="bevel" stroke-width="1" font-family="MS Shell Dlg 2" stroke="#000000" font-size="34.5833" font-style="normal"/>
  <g fill="none" transform="matrix(11.808,0,0,11.808,0,0)" font-weight="400" stroke-opacity="1" stroke-linecap="square" stroke-linejoin="bevel" stroke-width="1" font-family="MS Shell Dlg 2" stroke="#000000" font-size="34.5833" font-style="normal"/>
  <g fill="none" transform="matrix(11.808,0,0,11.808,0,0)" font-weight="400" stroke-opacity="1" stroke-linecap="square" stroke-linejoin="bevel" stroke-width="1" font-family="MS Shell Dlg 2" stroke="#000000" font-size="34.5833" font-style="normal"/>
  <g fill="none" transform="matrix(11.808,0,0,11.808,0,0)" font-weight="400" stroke-opacity="1" stroke-linecap="square" stroke-linejoin="bevel" stroke-width="1" font-family="MS Shell Dlg 2" stroke="#000000" font-size="34.5833" font-style="normal"/>
  <g fill="#ffffff" transform="matrix(11.808,0,0,11.808,0,0)" font-weight="400" fill-opacity="0" font-family="MS Shell Dlg 2" stroke="none" font-size="34.5833" font-style="normal">
   <path d="M0,0 L250,0 L250,250 L0,250 L0,0" fill-rule="evenodd" vector-effect="none"/>
  </g>
  <g fill="none" transform="matrix(11.808,0,0,11.808,0,0)" font-weight="400" stroke-opacity="1" stroke-linecap="square" stroke-linejoin="bevel" stroke-width="1" font-family="MS Shell Dlg 2" stroke="#000000" font-size="34.5833" font-style="normal"/>
  <g fill="none" transform="matrix(11.808,0,0,11.808,0,0)" font-weight="400" stroke-opacity="1" stroke-linecap="square" stroke-linejoin="bevel" stroke-width="1" font-family="MS Shell Dlg 2" stroke="#000000" font-size="34.5833" font-style="normal"/>
  <g fill="#000000" transform="matrix(0.999744,0,0,0.999744,0,0)" font-weight="400" fill-opacity="0" font-family="MS Shell Dlg 2" stroke="none" font-size="34.5833" font-style="normal">
   <rect x="0" y="0" width="2953" height="2953"/>
  </g>
  <g fill="none" transform="matrix(0.999744,0,0,0.999744,0,0)" font-weight="400" stroke-opacity="1" stroke-linecap="square" stroke-linejoin="bevel" stroke-width="1" font-family="MS Shell Dlg 2" stroke="#000000" font-size="34.5833" font-style="normal"/>
  <g fill="#c5c5c5" transform="matrix(0.999744,0,0,0.999744,0,0)" font-weight="400" fill-opacity="1" stroke-opacity="1" stroke-linecap="square" stroke-linejoin="bevel" stroke-width="1.1811" font-family="MS Shell Dlg 2" stroke="#5c5c5c" font-size="34.5833" font-style="normal">
   <path d="M1024.99,370.417 L1025.87,370.994 L1028.94,372.097 L1029.2,372.026 L1030.21,371.783 L1031.01,371.715 L1033,371.781 L1033.57,371.676 L1034.25,371.182 L1034.67,370.526 L1034.86,369.942 L1035.21,367.326 L1035.49,366.983 L1035.95,366.74 L1038.69,366.724 L1041.06,366.864 L1042.13,365.259 L1043.08,363.048 L1044.02,361.767 L1044.26,361.581 L1045.4,361.387 L1047.13,360.792 L1049.94,360.109 L1052.7,359.24 L1054.85,358.92 L1056.66,358.789 L1057.63,358.894 L1060.89,359.702 L1063.76,360.655 L1064.05,358.486 L1064.13,356.959 L1066.81,356.828 L1067.68,356.916 L1068.24,356.422 L1068.81,356.096 L1069.5,356.091 L1070.11,356.277 L1071.3,356.394 L1073.55,356.016 L1074.81,355.928 L1075.22,355.79 L1075.01,355.017 L1076.69,354.781 L1077.65,354.396 L1078.41,354.28 L1079,353.984 L1080.84,352.654 L1083.01,350.908 L1083.3,349.647 L1083.83,349.363 L1084.46,348.839 L1085.29,348.787 L1085.27,349.347 L1085.74,350.067 L1086.81,349.432 L1088.32,348.537 L1104.86,338.061 L1105.35,337.829 L1105.66,338.56 L1106.12,339.197 L1109.78,343.515 L1114.55,350.088 L1117.82,353.593 L1120.99,356.095 L1121.87,357.047 L1122.42,358.234 L1122.67,359.714 L1123.34,361.913 L1123.21,362.214 L1122.95,362.433 L1122.89,362.69 L1123,363.023 L1123.5,363.345 L1123.76,364.076 L1124.45,364.835 L1125.39,365.463 L1126.29,366.741 L1126.63,366.697 L1129.25,371.095 L1131.84,373.888 L1135.06,375.351 L1146.71,376.653 L1159.42,375.861 L1183.92,377.214 L1184.94,375.845 L1186.25,375.501 L1188.24,375.45 L1193.61,375.825 L1194.34,375.67 L1194.92,375.344 L1194.88,375.263 L1195.09,375.146 L1195.31,375.164 L1195.97,375.946 L1201.93,376.312 L1203.54,373.377 L1204.88,372.753 L1205.31,373.076 L1207.84,374.294 L1216.11,372.068 L1218.31,370.856 L1220.31,371.04 L1221.71,370.938 L1223.5,370.66 L1222.36,364.535 L1222.44,362.793 L1222.75,361.699 L1223.95,359.233 L1224.22,359.413 L1224.83,358.681 L1225.88,357.324 L1228.08,354.004 L1231.08,346.499 L1231.1,340.754 L1230.77,339.218 L1230.29,337.848 L1228.9,335.482 L1229.1,335.354 L1232.13,332.834 L1232.83,332.451 L1234.41,330.496 L1236.07,328.118 L1242.35,321.575 L1246.17,321.133 L1251.66,312.287 L1251.91,312.242 L1252.15,312.047 L1253.61,310.521 L1254.56,309.961 L1255.32,309.324 L1256.68,307.585 L1259.87,305.391 L1261.24,305.07 L1263.17,304.11 L1264.05,303.858 L1271.99,304.309 L1273.9,304.602 L1274.53,304.544 L1275.53,303.665 L1276.88,301.562 L1277.36,300.529 L1277.67,300.08 L1278.01,299.782 L1279.16,299.235 L1280.2,298.308 L1280.76,298.139 L1281.41,298.069 L1281.61,297.926 L1282.61,296.951 L1284.52,294.768 L1286.28,294.184 L1288.96,292.436 L1290.26,291.709 L1291.46,291.11 L1292.39,290.78 L1293.31,290.306 L1293.62,293.676 L1294.14,298.226 L1294.31,300.856 L1294.26,301.145 L1294.57,304.01 L1294.79,305.09 L1295.17,306.137 L1296.95,309.797 L1297.91,312.489 L1300.74,317.567 L1301.45,319.361 L1302.63,322.81 L1303.52,324.657 L1304.62,328.011 L1307.5,332.821 L1307.7,333.172 L1307.9,333.082 L1309.06,334.975 L1309.63,335.443 L1309.81,335.815 L1310.69,336.783 L1313.01,339.044 L1317.39,353.135 L1325.05,369.48 L1325.3,369.496 L1325.25,370.917 L1325.36,371.225 L1327.47,373.526 L1328.48,374.321 L1330.19,375.317 L1330.99,376.395 L1331.64,376.647 L1333.79,376.738 L1334.45,377.055 L1335.07,377.504 L1335.94,378.626 L1336.92,379.628 L1337.03,379.52 L1348.67,390.802 L1349.39,390.473 L1351.49,390.096 L1351.92,390.097 L1352.57,390.33 L1352.73,390.23 L1355.52,390.582 L1359.49,390.458 L1360.09,390.23 L1360.32,390.038 L1360.41,389.485 L1360.34,387.296 L1363.74,385.766 L1368.05,383.081 L1370.06,384.137 L1374.16,386.009 L1384.37,383.076 L1388.66,377.619 L1384.79,361.394 L1381.95,349.467 L1382.58,348.982 L1385.11,348.124 L1386.18,346.91 L1387,346.495 L1388.61,345.351 L1391.4,344.178 L1394.98,343.964 L1417.03,340.943 L1420.86,334.43 L1421.66,330.096 L1423.1,329.674 L1423.01,329.053 L1423.21,328.941 L1424.33,329.108 L1425.05,329.042 L1425.7,328.285 L1427.5,327.245 L1429.54,326.649 L1433.39,325.262 L1433.54,325.927 L1433.65,325.656 L1433.84,325.558 L1433.86,325.927 L1434.24,326.028 L1434.09,324.954 L1436.33,324.165 L1440.15,323.867 L1443.41,323.39 L1442.04,322.147 L1439.87,319.843 L1438.83,318.989 L1438.87,318.763 L1438.75,318.573 L1437.52,317.917 L1436.16,316.819 L1434.55,316.702 L1433.07,316.474 L1432.55,317.446 L1432.54,317.97 L1432.27,318.428 L1431.45,319.048 L1430.9,320.459 L1430.42,320.154 L1430.63,319.607 L1429.84,319.326 L1428.65,318.907 L1428.59,318.336 L1428.57,318.15 L1427.63,318.279 L1425.47,317.944 L1423.51,317.804 L1423.21,317.703 L1422.56,317.871 L1422.16,318.138 L1421.29,319.097 L1420.93,319.331 L1420.72,318.793 L1420.43,317.907 L1420.37,316.701 L1420.29,315.07 L1420.28,314.838 L1420.49,314.259 L1421.02,312.699 L1421.35,311.187 L1414.38,310.869 L1411.59,307.715 L1409.48,308.927 L1409.37,308.637 L1409.08,308.535 L1408.59,308.512 L1407.97,308.751 L1406.84,308.466 L1406.31,308.102 L1406.11,307.336 L1405.98,306.499 L1406.12,305.679 L1405.03,304.708 L1404.15,303.579 L1403.6,304.016 L1403.5,303.83 L1403.15,303.177 L1403,303.127 L1401.72,303.691 L1401.14,303.835 L1401.19,302.538 L1400.6,302.124 L1398.83,301.172 L1396.16,300.289 L1393.22,298.99 L1390.48,297.956 L1388.17,296.812 L1388,296.083 L1387.42,296.486 L1382.08,294.243 L1380.37,293.308 L1381.32,291.199 L1382.39,288.082 L1382.49,288.142 L1382.63,287.96 L1384.48,283.623 L1385.18,282.268 L1382.67,277.519 L1383.54,274.877 L1386.64,269.953 L1387.46,267.469 L1387.6,267.04 L1386.75,266.819 L1387.1,265.427 L1387.44,263.453 L1387.72,262.495 L1394.15,253.58 L1394.23,253.58 L1395.7,251.466 L1395.81,251.125 L1396.82,251.086 L1401.19,250.425 L1401.78,250.623 L1403.28,250.714 L1403.77,250.873 L1404.02,251.055 L1404.6,251.747 L1405.57,252.611 L1406.88,253.491 L1407.17,254.04 L1407.81,253.666 L1408.71,253.349 L1409.03,253.269 L1409.86,253.366 L1411.87,252.77 L1415.23,251.978 L1415.77,251.689 L1417.47,251.065 L1418.5,250.533 L1418.56,250.65 L1417.32,253.659 L1417.77,254.35 L1418.21,254.37 L1425.86,256.181 L1436.03,260.777 L1437.66,261.764 L1444.77,265.352 L1453.17,270.891 L1459.59,275.435 L1458.77,276.117 L1467.28,284.362 L1468.78,281.687 L1469.49,280.779 L1469.99,279.76 L1470.51,276.932 L1470.58,276.03 L1471.65,275.709 L1472.27,275.155 L1472.71,274.968 L1473.93,274.59 L1475.19,274.199 L1476.1,273.805 L1477.19,273.244 L1477.42,273.008 L1477.67,272.475 L1477.89,271.433 L1478.02,271.041 L1478.05,270.64 L1478.24,270.223 L1478.81,269.611 L1480.02,268.52 L1480.25,268.194 L1480.33,267.887 L1480.28,267.176 L1480.31,266.374 L1480.25,266.021 L1480.36,265.696 L1480.42,265.153 L1480.21,264.525 L1479.58,263.724 L1479.1,262.901 L1479.33,262.116 L1479.8,261.726 L1479.84,261.504 L1479.72,261.196 L1479.73,260.918 L1479.96,259.862 L1480.14,259.481 L1480.86,258.951 L1481.22,258.43 L1481.6,256.854 L1482.2,255.842 L1482.26,255.58 L1482.86,254.162 L1483.22,253.767 L1483.72,253.485 L1483.83,253.35 L1486.81,248.682 L1492.16,252.604 L1494.37,255.156 L1497.64,258.375 L1500.61,261.674 L1503.49,265.449 L1505.97,269.322 L1507.02,270.583 L1509.89,273.417 L1510.99,275.075 L1512.05,277.441 L1512.48,278.159 L1514.9,281.284 L1516.77,284.209 L1520,288.852 L1522.32,291.942 L1524.78,295.517 L1526.92,298.258 L1528.03,299.403 L1528.5,299.763 L1531.23,301.365 L1534.38,302.582 L1536.26,302.981 L1535.58,308.932 L1535.3,309.198 L1534.85,309.322 L1534.71,309.795 L1534.72,310.976 L1534.21,314.023 L1533.91,314.474 L1533.57,315.271 L1533.12,315.681 L1532.08,316.277 L1531.28,316.531 L1530.48,317.078 L1529.76,318.237 L1529.57,319.044 L1529.65,319.744 L1529.98,320.327 L1530.54,320.925 L1529.84,321.314 L1527.92,322.035 L1527.23,322.986 L1526.66,323.418 L1525.46,324.653 L1525.42,325.184 L1525.12,325.969 L1525.02,326.783 L1525.76,328.883 L1526.4,329.471 L1526.87,330.221 L1527.5,331.586 L1527.86,332.061 L1528.7,335.195 L1529.33,336.814 L1530.69,338.555 L1531.59,339.41 L1532.42,340.043 L1532.87,340.541 L1533.2,341.044 L1533.36,342.806 L1533.59,343.539 L1533.96,343.968 L1534.63,344.396 L1535.57,345.19 L1535.69,345.849 L1535.23,346.474 L1534.74,346.76 L1533.7,347.131 L1533.4,347.572 L1533.06,347.777 L1532.35,348.481 L1532.71,348.637 L1534.32,349.731 L1536.2,351.101 L1538.55,352.474 L1539.43,353.385 L1540.39,354.053 L1542.24,354.263 L1543.15,354.785 L1543.83,354.959 L1544.97,354.754 L1546.13,355.115 L1548.07,355.491 L1548.87,356.33 L1549.61,357.094 L1550.18,357.587 L1550.49,357.848 L1550.69,358.204 L1550.86,358.509 L1551.35,359.173 L1551.52,359.413 L1551.73,359.481 L1551.96,359.557 L1552.54,359.356 L1553.57,359.041 L1554.33,358.953 L1554.95,359.256 L1555.72,359.86 L1556.87,361.012 L1557.98,360.947 L1559,361.447 L1559.4,361.853 L1559.35,361.957 L1560.98,364.183 L1563,365.832 L1563.65,367.016 L1564.54,368.252 L1564.65,368.157 L1566.06,369.754 L1566.51,370.801 L1567.1,371.736 L1567.26,371.636 L1568.21,372.253 L1570.31,373.003 L1571.12,373.06 L1574.51,374.091 L1575.68,374.568 L1578.5,375.437 L1580.79,376.359 L1585.03,377.846 L1591.61,378.047 L1592.75,377.964 L1597.35,378.345 L1599.82,380.247 L1602.52,381.698 L1603.46,381.556 L1604.25,381.213 L1606.74,381.443 L1608.65,381.508 L1611.38,381.079 L1613,380.687 L1613.83,382.386 L1614.87,384.182 L1616.63,385.69 L1618.05,388.429 L1618.44,387.707 L1618.85,387.363 L1620.79,394.32 L1621.94,395.258 L1622.71,396.046 L1623.58,397.431 L1625.1,399.112 L1626.5,401.07 L1626.61,401.043 L1629.17,403.302 L1629.17,404.373 L1630.79,404.253 L1631.51,405.399 L1632.21,406.161 L1628.4,414.01 L1628.72,414.317 L1629.16,414.746 L1630.76,415.764 L1631.1,416.083 L1631.32,416.295 L1635.3,414.533 L1639.05,411.797 L1643.54,408.983 L1644.05,407.54 L1644.21,405.438 L1644.17,404.478 L1643.83,403.738 L1643.36,403.087 L1641.86,401.397 L1641.69,401.079 L1641.55,400.402 L1641.51,399.011 L1641.27,397.57 L1640.66,396.099 L1640.56,395.291 L1640.47,391.399 L1640.77,391.235 L1640.91,391.025 L1640.81,387.85 L1640.94,387.513 L1641.55,386.715 L1641.55,385.797 L1641.43,385.574 L1640.76,384.89 L1640.17,383.319 L1639.55,382.594 L1638.47,381.56 L1635.98,379.744 L1634.82,378.667 L1634.75,378.485 L1634.76,377.68 L1635.19,376.916 L1635.95,376.013 L1636.44,374.952 L1638.41,373.417 L1638.9,372.569 L1640.52,370.581 L1640.6,368.092 L1639.69,366.703 L1639.65,365.259 L1639.93,364.922 L1640.94,364.755 L1640.98,364.119 L1639.26,361.684 L1639.11,361.171 L1639.08,358.955 L1639.26,358.253 L1639.61,357.561 L1640,357.063 L1642.82,355.804 L1644.63,354.457 L1645.63,354 L1646,353.619 L1646.04,352.576 L1645.87,351.823 L1645.15,350.511 L1645.06,350.014 L1645.15,349.514 L1645.79,348.5 L1645.6,346.245 L1645.38,345.258 L1644.75,344.387 L1644,343.914 L1643.4,342.634 L1643.03,342.394 L1640.4,342.353 L1639.46,341.976 L1638.78,341.825 L1638.1,341.846 L1637.28,342.124 L1636.55,342.173 L1636.3,341.923 L1636.13,340.871 L1635.87,340.766 L1635.11,340.765 L1634.25,340.619 L1633.66,339.899 L1633.51,338.944 L1632.25,338.354 L1631.72,337.754 L1631.12,336.62 L1629.81,336.025 L1629.42,336.03 L1629.18,337.115 L1628.91,337.833 L1628.5,338.5 L1627.91,339.015 L1627.56,339.114 L1626.81,339.092 L1626.06,338.924 L1625.5,338.668 L1624.24,337.631 L1622.85,337.493 L1622.05,337.041 L1621.17,335.849 L1620.31,335.51 L1619.4,335.501 L1618.68,335.601 L1616.95,336.388 L1615.75,336.364 L1615.6,336.289 L1615.39,336.012 L1615.13,335.312 L1614.97,334.608 L1614.91,333.387 L1614.79,333.127 L1614.08,332.438 L1613.19,331.844 L1612.1,330.648 L1610.41,329.081 L1609.93,328.439 L1609.59,327.729 L1609.24,326.212 L1609.12,325.462 L1609.09,322.866 L1609,322.633 L1607.69,321.493 L1604.77,319.416 L1604.57,319.127 L1604.11,317.745 L1603.53,316.546 L1603.47,314.724 L1602.91,313.763 L1602.97,312.074 L1603.2,310.628 L1603.56,309.171 L1603.61,307.676 L1603.8,306.198 L1603.83,304.097 L1603.99,303.64 L1604.39,303.01 L1604.62,302.161 L1604.81,300.628 L1604.96,298.253 L1605.19,297.482 L1606.11,295.45 L1607,294.106 L1607.46,293.606 L1608.03,293.248 L1609.29,293.179 L1609.51,293.092 L1609.52,292.995 L1609.46,292.643 L1608.82,291.751 L1608.51,290.987 L1608.4,290.128 L1607.65,287.696 L1607.71,285.216 L1608.29,283.609 L1609.29,282.331 L1609.32,281.191 L1608.64,280.556 L1607.36,279.683 L1607.38,279.57 L1614.02,272.521 L1613.61,272.304 L1613.24,271.973 L1612.39,270.754 L1608.63,264.194 L1607.4,260.438 L1607.31,257.431 L1607.83,253.868 L1608.39,252.204 L1618.75,257.399 L1630.29,260.015 L1640.8,261.212 L1650.29,262.019 L1657.52,261.016 L1665.29,259.43 L1673.15,257.635 L1676.71,257.526 L1681.63,259.35 L1686.4,262.661 L1691.91,267.831 L1697.55,273.865 L1699.04,276.156 L1702.4,281.364 L1706.18,285.076 L1711.09,288.187 L1716.19,290.501 L1721.29,291.684 L1727.05,291.337 L1733.13,290.059 L1739.08,286.655 L1744.03,282.72 L1748.75,277.324 L1752.05,272.049 L1758.86,262.387 L1763.4,253.495 L1766.37,249.163 L1768.55,247.176 L1772.12,244.269 L1775.91,240.206 L1779.16,236.984 L1782.36,234.372 L1785.33,232.868 L1789.18,232.323 L1796.26,232.123 L1801.27,232.301 L1812.23,232.796 L1815.37,230.954 L1823.72,219.21 L1838.85,205.92 L1842.37,201.866 L1846.23,196.329 L1848.08,190.751 L1849.29,184.921 L1850.54,177.593 L1850.62,177.105 L1852.1,172.993 L1854.25,169.842 L1855.86,167.813 L1857.12,166.434 L1859.66,164.027 L1860.96,163.238 L1862.31,162.816 L1865.03,162.748 L1870.09,162.723 L1872.25,163.142 L1873.98,163.706 L1875.91,164.606 L1878.95,166.646 L1880.63,168.312 L1882.94,171.456 L1884.42,174.296 L1885.68,176.695 L1886.65,180.343 L1887.3,182.766 L1888.63,186.94 L1889.33,189.765 L1889.56,193.13 L1889.86,194.143 L1892.55,199.012 L1896.66,203.806 L1900.87,206.43 L1907.73,209.269 L1912.8,211.173 L1915.87,212.326 L1924.13,214.157 L1931.95,212.179 L1935.36,208.768 L1941.96,209.801 L1944.3,211.181 L1946.56,213.824 L1947.3,214.692 L1950.75,219.34 L1953.37,222.875 L1956.08,225.506 L1961.21,228.732 L1964.19,231.342 L1966.13,231.728 L1967.93,231.969 L1969.41,232.065 L1970.15,232.001 L1976.46,230.254 L1980.2,228.786 L1982.7,229.134 L1984.58,228.666 L1986.04,228.097 L1987.72,227.6 L1989.15,227.29 L1992.55,227.641 L1994.06,228.32 L1997.17,230.681 L1998.44,231.982 L1999.56,233.283 L2000.7,235.19 L2001.17,236.532 L2001.56,239.113 L2001.45,240.407 L2000.91,241.882 L2000.1,243.486 L1999.37,245.573 L1999.31,248.571 L1999.47,250.985 L2000.28,256.15 L1998.23,258.738 L1997.88,259.921 L1997.98,262.141 L1998.19,263.095 L1999.25,265.637 L1999.89,266.549 L2002.52,267 L2006.92,266.283 L2009.55,266.365 L2010.62,266.537 L2012.51,267.265 L2014.27,268.696 L2015.43,270.809 L2016.22,272.466 L2017.12,277.054 L2015.35,283.124 L2015.68,286.675 L2015.87,290.831 L2017.25,301.44 L2018,305.209 L2017.07,306.986 L2016.44,308.717 L2016.59,313.212 L2016.5,314.62 L2015.58,316.576 L2012.92,319.307 L2010.54,321.504 L2008.53,323.065 L2008.08,323.747 L2008.04,324.099 L2007.99,324.552 L2009.27,325.534 L2011.01,326.094 L2012.57,327.449 L2012.9,327.737 L2014.06,330.329 L2015.36,331.57 L2015.94,332.763 L2015.72,333.465 L2014.04,336.368 L2012.76,337.393 L2011.34,337.844 L2010.62,337.825 L2009.74,336.191 L2009.96,335.408 L2009.51,331.343 L2008.88,330.721 L2008.6,330.447 L2006.81,329.938 L2005.88,329.672 L2003.96,329.863 L1993.91,334.78 L1993.46,335.067 L1992.11,336.602 L1991.27,338.26 L1991.13,339.044 L1991.22,339.523 L1992.79,340.695 L1995.72,340.849 L1997.01,340.713 L1998.59,340.546 L2001.57,340.671 L2004.25,341.845 L2006.54,343.936 L2008.01,344.741 L2009.17,345.583 L2009.4,346.46 L2009.47,347.383 L2008.19,352.386 L2007.42,354.088 L2005.78,356.732 L2002.66,358.609 L2001.59,358.349 L2000.49,358.222 L1999.69,358.378 L1998.55,359.458 L1998.2,360.585 L1998.12,361.117 L1998.33,361.889 L1998.59,362.306 L1999.38,362.954 L2000.29,363.363 L2004.47,364.31 L2005.79,364.929 L2006.9,365.573 L2007.46,366.142 L2008.08,367.071 L2008.93,369.17 L2009.04,369.952 L2008.81,371.666 L2008.52,372.613 L2008.33,372.976 L2005.92,377.003 L2005.5,378.048 L2005.41,378.912 L2005.53,379.825 L2006.45,382.794 L2006.74,382.694 L2009.13,381.288 L2010.07,380.399 L2011.22,378.793 L2013.07,377.539 L2013.75,377.177 L2016.63,376.022 L2017.81,375.729 L2019.63,376.04 L2020.51,376.096 L2024.05,372.722 L2025.83,371.026 L2028.15,370.033 L2029.27,369.703 L2031.81,369.061 L2033.08,369.076 L2035.96,369.46 L2036.73,369.853 L2037.33,370.473 L2038.71,371.431 L2041.18,371.439 L2041.98,372.151 L2043.31,373.325 L2045.24,374.505 L2048.31,376.572 L2048.82,376.714 L2049.94,376.588 L2051.68,376.393 L2051.72,379.941 L2051.82,381.054 L2052.26,382.222 L2052.61,382.667 L2053.33,382.873 L2053.81,382.794 L2054.49,380.795 L2055.55,381.055 L2058.11,381.218 L2059.82,381.161 L2060.59,381.057 L2061.52,380.766 L2063.72,380.468 L2064.24,380.174 L2065.78,378.357 L2066.74,376.886 L2069.24,377.256 L2071.23,377.218 L2072.53,378.509 L2073.12,379.343 L2073.23,380.522 L2075.36,381.324 L2075.56,384.951 L2078.68,387.084 L2079.64,387.383 L2080.45,387.981 L2080.61,388.262 L2080.86,389.118 L2081.32,389.753 L2081.61,390.388 L2080.43,391.229 L2078.96,391.928 L2077.03,392.996 L2074.73,394.925 L2073.3,396.497 L2073.69,397.547 L2070.08,401.741 L2068.66,402.62 L2065.39,405.85 L2065.44,406.705 L2065.22,407.563 L2064.78,408.467 L2064.31,409.13 L2062.07,410.63 L2063.86,414.017 L2068.41,418.966 L2069.39,420.031 L2069.01,421.001 L2069.28,421.809 L2069.94,423.143 L2070.24,423.988 L2070.06,424.728 L2069.2,425.851 L2069.05,426.229 L2069.05,426.627 L2070.31,428.995 L2067.32,431.093 L2065.71,432.682 L2065.41,433.18 L2065.22,433.831 L2065.24,434.273 L2064.93,435.139 L2063.22,435.778 L2061.86,435.83 L2059.48,436.418 L2059.11,436.673 L2058.86,437.457 L2058.66,438.794 L2058.31,439.16 L2059.27,439.901 L2060.38,439.106 L2066.61,439.419 L2068.89,438.906 L2070.04,438.414 L2071.04,438.477 L2071.94,438.689 L2073.85,439.138 L2075.45,438.602 L2078.67,437.528 L2079.32,437.13 L2079.74,436.07 L2080.67,435.197 L2081.72,434.418 L2083.3,434.076 L2085.1,432.669 L2085.66,432.361 L2086.12,432.377 L2089.45,433.756 L2090.71,433.521 L2093.31,433.579 L2094.81,433.054 L2097.19,431.117 L2097.83,430.189 L2099.79,427.792 L2100.88,428.222 L2101.7,428.176 L2102.35,427.918 L2103.26,427.127 L2104.11,426.549 L2104.5,426.464 L2104.93,426.629 L2106.35,428.154 L2106.86,428.605 L2107.45,428.96 L2110.06,429.688 L2111.98,431.809 L2118.02,436.25 L2131.05,447.16 L2138.72,453.887 L2140.15,455.438 L2143.95,458.684 L2145.82,457.073 L2148.46,454.444 L2157.36,457.044 L2160.84,457.988 L2162.61,457.988 L2162.9,458.944 L2163.19,459.879 L2164.65,461.815 L2167.46,462.894 L2169.3,463.599 L2176.11,465.521 L2179.12,464.859 L2180.7,460.799 L2181.45,458.553 L2181.99,456.946 L2184.7,454.654 L2186.2,454.76 L2187.85,455.594 L2189.91,456.785 L2191.99,456.425 L2193.8,457.295 L2194.6,459.967 L2195.45,461.203 L2196.58,462.468 L2199.7,462.3 L2200.43,463.201 L2201.04,463.94 L2201.86,465.982 L2201.72,467.304 L2204,470.41 L2205.74,469.612 L2206.15,473.274 L2207.36,473.255 L2209.93,474.507 L2211.39,475.165 L2212.17,475.741 L2212.71,477.159 L2212.9,478.234 L2213.72,478.986 L2214.86,476.8 L2216.68,477.536 L2217.94,478.59 L2218.32,478.907 L2219.36,479.956 L2220.24,480.849 L2220.88,481.731 L2221.31,482.162 L2221.68,482.881 L2222.56,483.382 L2223.09,483.938 L2223.62,484.619 L2224.08,485.765 L2226.59,487.91 L2226.91,488.025 L2228.17,488.751 L2229.31,489.707 L2230.69,488.485 L2232.03,487.971 L2235.23,488.031 L2237.82,487.757 L2238.76,487.839 L2239.48,487.902 L2239.49,489.276 L2241.11,488.862 L2243.31,488.303 L2247.68,489.553 L2250.7,489.97 L2251.14,489.86 L2252.37,489.609 L2253.2,489.336 L2254.76,487.651 L2255.91,486.413 L2256.71,486.018 L2258.62,485.073 L2258.98,483.694 L2259.35,482.26 L2263.07,478.766 L2267.76,474.215 L2270.04,473.281 L2275.37,470.049 L2281.9,460.488 L2283.12,458.677 L2283.1,457.826 L2283.09,457.262 L2285.76,450.938 L2287.24,447.43 L2287.99,443.771 L2287.35,442.666 L2286.51,441.223 L2286.84,438.74 L2288.72,430.129 L2291.24,429.484 L2296.43,428.151 L2299.34,426.825 L2304.4,424.052 L2305.97,423.199 L2308.99,421.439 L2315.35,415.993 L2316.66,414.296 L2320.32,409.6 L2322.07,411.976 L2324.35,413.963 L2326.77,409.776 L2327.85,408.074 L2328.26,402.605 L2327.93,399.571 L2327.61,396.529 L2328.25,395.887 L2330.23,392.907 L2331.75,388.502 L2334.41,381.36 L2335.61,378.929 L2335.78,377.48 L2338.94,376.7 L2341.73,377.53 L2342.17,378.381 L2342.87,378.624 L2342.2,380.387 L2346.83,386.012 L2355.16,391.876 L2355.98,396.947 L2356.37,398.565 L2357.02,406.389 L2356.69,412.477 L2356.73,418.722 L2356.32,420.533 L2352.76,427.985 L2353.99,432.144 L2354.17,435.681 L2354.68,438.846 L2356.66,444.618 L2356.38,448.198 L2356.95,450.72 L2359.8,460.766 L2355.85,463.258 L2352.17,466.478 L2342.73,476.876 L2341.64,477.797 L2338.93,479.306 L2337.67,480.165 L2335.49,482.473 L2333.75,484.062 L2332.95,484.991 L2330.93,488.397 L2330.08,490.503 L2330.23,491.18 L2330.81,492.084 L2331.86,494.365 L2332.59,495.7 L2332.79,497.132 L2332.81,498.433 L2332.39,500.578 L2331.57,502.849 L2330.76,504.536 L2329.88,505.903 L2329.07,506.725 L2326.79,506.835 L2323.32,505.132 L2322.56,505.734 L2322.09,505.765 L2321.62,505.976 L2320.75,506.654 L2320.16,507.432 L2318.81,509.723 L2318.33,510.283 L2318.16,510.693 L2317.97,511.592 L2316.83,513.056 L2313.77,515.181 L2313.36,515.355 L2312.55,515.515 L2312.12,515.78 L2309.91,515.756 L2307.42,518.293 L2307.02,519.056 L2306.13,519.682 L2304.75,521.259 L2302.97,522.662 L2302.55,523.124 L2302.44,524.077 L2301.61,525.441 L2301.28,526.248 L2299.62,527.781 L2298.76,528.999 L2297.79,529.831 L2296.8,531.154 L2296.43,531.448 L2294.86,531.815 L2292.95,532.942 L2292.47,533.496 L2291.8,535.095 L2291.62,535.818 L2291.47,539.802 L2291.39,540.351 L2291.05,541.39 L2289.71,544.733 L2287.74,548.028 L2286.76,550.195 L2285.98,552.268 L2285.55,553.166 L2285.18,553.537 L2284.28,555.827 L2283.55,556.661 L2282.98,557.708 L2282.3,558.328 L2281.74,560.008 L2281.22,562.24 L2280.61,563.691 L2280.22,565.368 L2279.68,566.365 L2278.94,566.976 L2277.17,568.153 L2276.03,569.506 L2275.39,569.962 L2275.4,569.904 L2275.04,569.967 L2274.65,569.881 L2274.27,569.495 L2273.05,569.625 L2272.19,569.971 L2265.39,575.205 L2264.94,575.361 L2264.33,575.363 L2263.75,575.215 L2262.05,575.581 L2260.81,575.48 L2260.36,575.655 L2258.28,577.765 L2257.67,578.776 L2256.99,579.566 L2255.47,586.067 L2254.66,587.235 L2254.35,588.125 L2254.48,590.006 L2254.76,591.152 L2254.92,598.432 L2255.33,602.255 L2255.49,605.546 L2255.73,607.225 L2255.95,607.553 L2256.76,607.877 L2257.33,608.516 L2259.19,612.516 L2259.13,613.006 L2258.46,614.219 L2258.4,614.751 L2258.56,615.35 L2258.94,616.012 L2259.07,616.474 L2259.13,619.424 L2259.36,620.442 L2259.25,621.891 L2259.32,623.525 L2259.57,625.47 L2259.53,625.765 L2259.37,625.982 L2259.36,626.395 L2259.48,627.212 L2260.36,630.184 L2260.8,631.249 L2261.84,631.534 L2262.35,631.791 L2265.22,633.915 L2266.47,635.992 L2267.43,637.256 L2267.93,638.069 L2267.68,639.056 L2267.1,640.274 L2266.75,640.761 L2265.54,641.845 L2265.46,642.122 L2265.53,643.053 L2265.67,643.434 L2266.26,643.968 L2266.89,644.285 L2267.17,644.324 L2267.49,647.5 L2267.29,648.557 L2267.34,649.488 L2267.56,650.84 L2267.79,651.315 L2267.96,651.444 L2268.25,651.663 L2268.87,651.969 L2271.83,654.358 L2273.6,655.588 L2274.16,656.239 L2274.69,657.16 L2275.38,658.762 L2276.64,660.717 L2277.48,661.342 L2277.91,662.155 L2281.35,674.909 L2281.52,675.55 L2283.95,684.567 L2283.46,684.816 L2280.76,687.288 L2279.87,688.283 L2278.33,689.619 L2278.13,691.489 L2273.96,706.765 L2274.5,708.057 L2275.34,711.48 L2275.32,712.776 L2275.99,714.978 L2275.84,716.228 L2275.44,717.365 L2274.83,718.535 L2274.46,719.616 L2273.97,721.622 L2272.85,724.969 L2272.98,726.986 L2272.94,728.752 L2273.25,730.675 L2272.03,733.293 L2270.81,734.043 L2268.22,734.65 L2266.8,741.232 L2265.82,743.427 L2265.32,745.997 L2265.63,748.131 L2268.99,753.146 L2270.64,754.842 L2271.8,757.862 L2272.08,758.192 L2273.82,760.283 L2277.41,762.041 L2281.67,763.507 L2284.23,764.121 L2285.57,768.043 L2288.35,770.133 L2290.96,771.382 L2293.67,771.907 L2295.19,772.65 L2295.66,773.258 L2295.66,774.004 L2295.25,777.079 L2295.32,778.094 L2295.69,779.378 L2295.76,780.224 L2295.69,781.272 L2295.59,782.151 L2295.08,783.436 L2294.85,784.316 L2294.95,784.991 L2295.38,786.107 L2297.37,790.063 L2300.2,792.869 L2302.45,794.966 L2303.93,796.183 L2306.49,799.971 L2306.76,801.255 L2306.69,802.608 L2306.42,803.926 L2306.35,806.698 L2304.84,809.841 L2304.4,811.464 L2304.9,813.12 L2305.54,814.574 L2307.53,820.187 L2307.73,822.688 L2308.91,826.947 L2309.58,827.624 L2312.41,829.348 L2314,830.464 L2314.98,831.479 L2316.5,834.04 L2318.64,836.302 L2319.97,838.829 L2322.64,842.944 L2326.13,848.576 L2317.92,886.154 L2313.38,887.072 L2310.33,887.461 L2310.19,887.479 L2309.37,887.752 L2306.05,890.068 L2303.4,892.18 L2301.23,894.155 L2298.19,894.614 L2293.67,894.798 L2292.12,895.173 L2290.18,896.314 L2288.84,896.97 L2285.09,898.172 L2283.19,899.125 L2279.8,901.033 L2276.27,903.212 L2273.11,904.493 L2269.03,904.536 L2268.26,905.001 L2266.39,905.325 L2265.74,905.686 L2264.46,906.142 L2261.55,906.414 L2257.83,906.478 L2251.6,905.293 L2247.61,903.461 L2237.1,896.593 L2229.71,888.923 L2223.41,886.825 L2213.97,886.167 L2207.6,881.077 L2203.21,876.713 L2199.68,873.857 L2193.1,866.661 L2189.77,863.281 L2179.91,855.995 L2173.43,851.764 L2171.71,851.205 L2169.78,850.793 L2167.42,851.526 L2165.74,853.201 L2164.82,854.093 L2161.22,860.84 L2159.09,863.047 L2156.1,865.254 L2154.69,866.78 L2152.67,868.254 L2150.57,870.418 L2147.91,872.147 L2147.03,874.071 L2144.27,878.384 L2140.33,882.924 L2134.62,890.424 L2134.39,890.556 L2128.01,898.319 L2121.49,904.723 L2117.98,908.476 L2113.76,915.178 L2107.39,914.247 L2100.5,913.426 L2093.52,912.362 L2087.31,910.951 L2079.42,909.389 L2077.78,908.893 L2075.34,907.44 L2071.72,904.917 L2070.8,903.578 L2070.25,901.659 L2069.64,900.626 L2058.35,891.182 L2056.1,888.581 L2055.3,887.395 L2037.6,878.403 L2036.53,877.409 L2034.09,874.847 L2031.46,871.901 L2028.98,869.302 L2020.73,860.983 L2017.49,857.311 L2016.84,856.456 L2016.33,856.08 L2015.35,855.602 L2014.2,855.564 L2010.34,857.394 L2000.74,862.604 L1995.74,864.94 L1989.41,867.607 L1986.62,869.22 L1979.14,873.554 L1966.76,878.93 L1966.51,878.906 L1956.98,883.982 L1958.24,886.11 L1959.26,888.065 L1960.21,890.355 L1961.73,893.322 L1963.44,895.301 L1965.33,897.108 L1967.29,899.89 L1970.58,904.3 L1971.87,907.502 L1973.81,919.778 L1975.86,924.602 L1983.54,935.322 L1984.91,940.353 L1987.5,944.601 L1992.25,958.289 L1994.01,961.27 L1997.16,967.335 L2001.47,974.967 L2001.11,981.71 L2000.03,988.703 L1994.82,1004.86 L1991.54,1012.82 L1990.26,1013.32 L1990.17,1014.03 L1989.82,1015.01 L1988.9,1015.73 L1987.86,1017.78 L1987.66,1018.74 L1987.27,1019.44 L1986.64,1021.28 L1986.65,1022.88 L1986.51,1023.68 L1985.65,1024.41 L1983.72,1025.81 L1983.21,1026.42 L1983.06,1027.79 L1982.82,1028.64 L1982.8,1029.43 L1982.55,1030.02 L1982.59,1030.7 L1983,1031.69 L1983.01,1033.77 L1983.82,1035.31 L1985.06,1036.77 L1985.45,1038.22 L1985.3,1039.87 L1984.64,1040.72 L1983.22,1041.72 L1979.47,1043.65 L1978.83,1044.16 L1978.52,1044.53 L1978.27,1045.1 L1978.16,1046.98 L1977.8,1047.65 L1976.5,1049.23 L1975.86,1049.78 L1972.7,1051.39 L1971.03,1051.89 L1969.44,1052.21 L1968.7,1052.13 L1965.77,1050.72 L1964.86,1050.56 L1964.41,1050.98 L1964.33,1051.68 L1964.32,1054.58 L1964.01,1056.12 L1963.72,1056.52 L1963,1057.09 L1961.06,1058.3 L1957.39,1061 L1955.29,1062.4 L1954.13,1063.59 L1953.72,1064.18 L1953.35,1064.95 L1952.02,1068.36 L1951.83,1069.07 L1951.52,1071.01 L1951.58,1072.94 L1951.86,1073.87 L1952.51,1074.94 L1953.94,1076.67 L1954.18,1077.25 L1954.12,1077.94 L1953.29,1078.78 L1953.18,1079.28 L1953.18,1082.24 L1953.31,1083.46 L1953.63,1084.76 L1954.22,1085.98 L1954.64,1086.56 L1955.21,1087.01 L1957.07,1088.2 L1957.31,1088.75 L1957.43,1089.73 L1957.21,1090.82 L1956.84,1091.45 L1956.19,1091.95 L1954.62,1093.67 L1953.67,1095.03 L1953.54,1095.54 L1953.55,1096.04 L1953.93,1097.51 L1953.38,1100.28 L1952.86,1100.79 L1951.61,1101.43 L1950.87,1101.52 L1949.08,1101.43 L1948.46,1101.57 L1948.02,1101.92 L1947.68,1102.39 L1946.35,1104.53 L1946.17,1105.74 L1946.47,1106.19 L1947.09,1106.42 L1947.91,1106.34 L1948.29,1106.43 L1948.67,1106.72 L1948.93,1107.2 L1949.05,1107.59 L1949.06,1108.14 L1949.07,1108.62 L1948.93,1109.26 L1947.74,1109.95 L1947.04,1110.24 L1946.38,1110.15 L1943.7,1109.05 L1943.04,1109.01 L1942.54,1109.1 L1941.91,1109.43 L1941.59,1109.8 L1941.08,1110.98 L1939.2,1114.32 L1938.5,1115.43 L1937.39,1116.82 L1935.96,1118.04 L1932.6,1120.56 L1929.49,1122.05 L1927.56,1123.2 L1926.23,1124.38 L1925.3,1125.55 L1925.12,1126.17 L1925.34,1127.09 L1926.09,1128.25 L1926.3,1128.75 L1926.67,1129.31 L1927.37,1130 L1927.98,1130.36 L1928.63,1130.53 L1929.28,1130.55 L1930.87,1130.22 L1931.63,1130.33 L1932.1,1130.5 L1932.61,1131.69 L1932.75,1132.29 L1932.85,1135 L1932.78,1135.62 L1932.59,1136.22 L1932.04,1137.43 L1931.51,1139.29 L1931.01,1143.33 L1930.63,1144.87 L1930.52,1145.32 L1930.25,1145.77 L1929.59,1146.44 L1928.06,1147.51 L1927.05,1148.08 L1926.08,1149.07 L1924.71,1151.77 L1924.01,1153.71 L1923.93,1154.5 L1924.06,1155.24 L1924.36,1155.69 L1925.01,1156.19 L1926.44,1156.93 L1926.85,1157.42 L1926.96,1157.82 L1926.97,1158.76 L1926.73,1159.44 L1926.31,1159.84 L1925.55,1160.26 L1924.81,1160.97 L1924.16,1161.72 L1923.68,1162.53 L1923.12,1164.14 L1922.96,1166.2 L1923.01,1167.22 L1922.87,1168.08 L1922.43,1168.97 L1921.45,1170.36 L1919.21,1172.28 L1918.74,1173.02 L1917.99,1174.99 L1917.55,1175.71 L1914.17,1179.99 L1913.36,1180.78 L1912.59,1181.24 L1911.94,1181.59 L1911.6,1181.67 L1911.2,1181.36 L1910.39,1179.56 L1910.22,1178.35 L1910.34,1177.38 L1910.26,1176.76 L1909.93,1175.94 L1908.89,1174.8 L1907.83,1174.77 L1907.3,1175.02 L1905.09,1176.65 L1904.63,1177.19 L1904.39,1177.87 L1904.23,1178.85 L1903.97,1182.33 L1904.1,1183.5 L1904.27,1184.13 L1904.63,1184.78 L1905.05,1184.91 L1906.54,1184.55 L1908.04,1184.43 L1908.95,1184.64 L1910.04,1185.04 L1911.78,1186.16 L1913.54,1187.5 L1914.52,1188.53 L1915.71,1190.33 L1916.05,1191.21 L1916.08,1192.23 L1915.93,1192.75 L1914.9,1194.36 L1914.26,1196.16 L1914.11,1196.9 L1914.21,1198.49 L1914.41,1200.13 L1914.15,1201.45 L1913.7,1202.08 L1913.03,1202.64 L1912.15,1202.92 L1911.27,1203.06 L1909.31,1202.98 L1907.94,1203.07 L1906.87,1202.92 L1905.8,1202.62 L1905.11,1202.29 L1904.29,1201.54 L1903.93,1200.98 L1903.49,1198.75 L1902.96,1197.54 L1902,1196.59 L1901.23,1196.5 L1899.73,1196.73 L1898.67,1197.06 L1896.98,1198.01 L1895.92,1198.93 L1892.3,1202.77 L1888.06,1206.33 L1887.22,1207.14 L1886.23,1208.8 L1885.12,1210.29 L1883.53,1211.27 L1882.38,1212.16 L1881.71,1212.9 L1880.06,1215.86 L1879.14,1216.9 L1877.56,1218.01 L1875.04,1219.19 L1873.84,1219.54 L1872.91,1219.64 L1871.58,1219.39 L1870.31,1219.33 L1869.48,1219.36 L1865.21,1220.02 L1864.01,1220.4 L1863.01,1220.92 L1862.28,1221.59 L1861.4,1223.5 L1859.93,1228.17 L1859.28,1229.25 L1858.03,1230.57 L1856.34,1231.63 L1854.45,1232.67 L1850.84,1233.9 L1849.74,1234.06 L1847.32,1234.2 L1846.34,1234.4 L1843.6,1235.5 L1842.42,1235.67 L1841.2,1235.69 L1840.34,1235.84 L1839.77,1236.05 L1836.74,1237.64 L1836.31,1237.94 L1834.31,1239.9 L1833.79,1241.2 L1833.51,1241.54 L1832.22,1242.09 L1828.03,1246.16 L1827.12,1246.88 L1826.48,1247.25 L1825.54,1247.61 L1824.55,1247.85 L1823.4,1247.88 L1821.34,1247.55 L1819.55,1247.41 L1818.62,1247.62 L1817.75,1247.97 L1813.08,1250.52 L1812.21,1250.67 L1810.19,1250.77 L1809.53,1250.74 L1809.16,1250.56 L1808.78,1250.3 L1807.91,1249.43 L1805.4,1248.22 L1801.8,1247.06 L1800.03,1246.2 L1799.62,1246.19 L1798.75,1246.59 L1797.3,1246.59 L1795.32,1247.23 L1793.89,1247.92 L1793.08,1248.34 L1791.42,1249.88 L1790.85,1250.76 L1789.97,1252.46 L1789.47,1254.27 L1789.12,1254.86 L1786.86,1257.11 L1786.23,1257.5 L1785.14,1257.84 L1783.55,1257.88 L1781.62,1257.35 L1779.4,1256.03 L1778.06,1255.33 L1777,1254.92 L1772.3,1254.83 L1771.09,1254.98 L1770.26,1255.31 L1769.56,1255.81 L1769.33,1256.2 L1769.05,1257.12 L1768.57,1259.72 L1768.54,1260.86 L1768.13,1262.53 L1767.42,1264.13 L1767.05,1264.67 L1766.39,1265.12 L1766.8,1269.66 L1767.04,1270.96 L1766.96,1273.87 L1768.07,1276.76 L1769.14,1279.01 L1769.56,1280.58 L1770.05,1283.08 L1769.9,1283.61 L1770.67,1284.51 L1770.72,1285.49 L1770.91,1286.11 L1771,1287.3 L1771.3,1288.21 L1771.79,1288.84 L1772.34,1289.35 L1774.32,1290.7 L1775.21,1292.04 L1775.69,1292.36 L1776.59,1292.65 L1779.66,1295.39 L1781.58,1297.83 L1782.82,1302.28 L1784.45,1306.82 L1785.94,1309.75 L1788.01,1313.13 L1789.27,1315.46 L1789.65,1317.97 L1790.37,1319.82 L1790.76,1321.3 L1790.04,1329.62 L1788.6,1335.42 L1785.31,1344.55 L1784.01,1347.8 L1785.25,1349.81 L1789.63,1355.81 L1793.06,1360.26 L1795.62,1364.68 L1796.47,1365.58 L1799.27,1366.36 L1802.68,1367.54 L1805.4,1368.27 L1806.68,1369.17 L1808.93,1370.47 L1811.73,1371.1 L1814.34,1371.32 L1814.5,1371.47 L1815.76,1373.8 L1816.24,1375.24 L1816.7,1378.59 L1817.48,1380.86 L1818.09,1383.64 L1818.72,1385.67 L1820.43,1390.1 L1821.18,1392.82 L1823.45,1398.54 L1826.51,1402.55 L1828.24,1405.07 L1828.37,1405.08 L1830.74,1407.19 L1831.61,1407.56 L1836.78,1406.07 L1839.01,1405.28 L1842.84,1403.7 L1845.38,1402.82 L1850.85,1401.24 L1852.09,1401.14 L1853.66,1401.77 L1853.96,1402.42 L1854.66,1404.84 L1855.23,1406.39 L1855.85,1408.94 L1855.97,1410.9 L1855.99,1411.09 L1856.2,1413.21 L1856.17,1415.15 L1855.53,1418.9 L1854.95,1421.29 L1850.48,1442.33 L1852.45,1461.29 L1853.45,1464.16 L1854.94,1466.43 L1863.01,1474.61 L1864.84,1478.13 L1868.08,1483.3 L1872.38,1482.75 L1875.05,1482.82 L1872.57,1492.39 L1870.37,1503.48 L1870,1503.81 L1869.8,1504.5 L1869.77,1505.6 L1869.45,1506.74 L1869.14,1507.37 L1869.23,1507.91 L1869.43,1508.16 L1869.01,1509 L1868.64,1510.03 L1868.38,1510.28 L1867.99,1512.46 L1868.1,1514.71 L1867.52,1516.91 L1867.57,1517.54 L1867.85,1518.29 L1867.97,1519.44 L1867.16,1522.84 L1867.32,1524.43 L1866.84,1525.66 L1866.47,1528.69 L1865.86,1529.81 L1865.6,1530.56 L1865.36,1532.02 L1865.31,1534.36 L1865.22,1534.74 L1864.86,1535.75 L1864.64,1535.85 L1864.35,1535.84 L1863.9,1535.55 L1862.91,1535.46 L1861.65,1535.1 L1861.64,1535.43 L1861.32,1535.27 L1860.39,1535.28 L1859.44,1535.43 L1858.5,1535.81 L1857.55,1536.62 L1856.66,1537.85 L1856.15,1539.24 L1855.96,1541.35 L1856.22,1543.04 L1856.54,1544.38 L1857.55,1547.53 L1858.84,1552.2 L1860.57,1557.53 L1860.8,1563.76 L1859.93,1567.94 L1859.38,1575.64 L1859,1579.59 L1858.84,1582.6 L1858.99,1583.96 L1859.17,1585.02 L1859.75,1586.93 L1861.25,1590.71 L1861.29,1591.24 L1861.7,1591.69 L1862.78,1591.99 L1863.16,1592.25 L1863.42,1592.58 L1863.87,1593.22 L1864.08,1593.89 L1864.11,1594.81 L1864.33,1595.6 L1864.65,1595.92 L1865.21,1596.15 L1866.01,1596.17 L1867.01,1596.79 L1868.23,1597.17 L1868.44,1597.62 L1868.73,1597.92 L1869.5,1598.27 L1870.65,1599.07 L1871.58,1600.18 L1872.28,1600.72 L1872.58,1600.85 L1873.36,1600.86 L1873.89,1600.92 L1875.82,1602.2 L1878.32,1602.87 L1879.18,1603.42 L1880.03,1604.18 L1881.35,1604.95 L1884.15,1605.96 L1885.97,1606.46 L1887.05,1606.47 L1888.77,1603.56 L1891.17,1601.01 L1891.97,1600.35 L1893.3,1599.94 L1894.07,1599.59 L1895.74,1598.33 L1896.81,1597.78 L1898.81,1598.36 L1900.69,1599.39 L1903.9,1601.41 L1905.59,1602.6 L1908.44,1604.31 L1910.39,1605.32 L1915.67,1608.05 L1916.12,1608.5 L1920.65,1611.65 L1922.13,1613 L1929.88,1616.39 L1931.66,1617.56 L1936.63,1619.25 L1937.81,1619.84 L1940.65,1621.61 L1942.8,1622.41 L1944.37,1622.71 L1944.99,1623.01 L1946.16,1624.3 L1947.72,1626.74 L1948.95,1628.08 L1950.42,1629.22 L1951.74,1630.41 L1954.94,1633.76 L1958.06,1636.42 L1959.05,1637.06 L1960.58,1637.78 L1963.47,1639.39 L1966.51,1640.8 L1967.91,1641.73 L1968.5,1642.4 L1969.78,1643.14 L1971.29,1644.53 L1972.11,1645.1 L1974.17,1646.69 L1974.74,1647.41 L1975.73,1648.23 L1977.04,1648.92 L1980.54,1651.18 L1980.51,1651.49 L1979.13,1653.81 L1977.5,1655.54 L1976.05,1657.23 L1975.63,1657.86 L1975.46,1658.19 L1975.3,1659.33 L1974.81,1660.48 L1973.95,1661.8 L1971.16,1665.24 L1969.89,1666 L1968.2,1666.11 L1966.57,1666.51 L1957.13,1668.04 L1956.1,1668.64 L1954.28,1668.68 L1953.38,1669.07 L1952.55,1669.16 L1951.28,1669.96 L1949.36,1670.28 L1948.93,1670.27 L1948.54,1670.09 L1947.59,1669.24 L1947.23,1669.16 L1946.71,1669.23 L1946.38,1669.37 L1945.06,1670.31 L1944.76,1670.4 L1943.02,1670.51 L1942.31,1670.75 L1940.2,1671.96 L1938.88,1671.92 L1938.18,1672.2 L1937.56,1672.6 L1936.78,1672.87 L1935.63,1672.86 L1933.07,1671.99 L1932.11,1672.68 L1931.57,1673.23 L1930.93,1674.45 L1928.83,1676.02 L1928.45,1676.09 L1928.21,1676.25 L1927.98,1676.65 L1927.65,1677.79 L1926.67,1678.22 L1925.52,1679.03 L1924.65,1679.28 L1923.67,1680.23 L1923.08,1680.99 L1922.48,1681.13 L1921.25,1681.14 L1919.66,1680.93 L1918.28,1680.59 L1917.99,1680.62 L1917.26,1681.2 L1916.6,1682 L1916.12,1682.37 L1915.6,1682.39 L1914.03,1682.16 L1912.74,1681.85 L1912.39,1681.88 L1912.14,1682.02 L1911.92,1682.24 L1911.36,1683.46 L1910.71,1684.03 L1909.26,1684.64 L1909.17,1684.76 L1909.27,1685.7 L1909.43,1686.2 L1909.36,1687.57 L1909.17,1687.89 L1906.01,1689.12 L1905.9,1689.26 L1904.66,1689.13 L1903.66,1689.71 L1903.12,1689.82 L1902.72,1689.75 L1902.32,1689.38 L1902.21,1689.08 L1902.21,1688.54 L1902.41,1687.95 L1902.98,1687.2 L1903.08,1686.52 L1902.87,1686.4 L1902.01,1686.53 L1901.65,1686.24 L1901.3,1685.47 L1901.06,1684.02 L1900.86,1683.54 L1900.66,1683.27 L1900.38,1683.21 L1899.97,1683.43 L1899.07,1683.8 L1898.72,1683.58 L1898.42,1682.33 L1898.02,1681.82 L1897.82,1681.91 L1897.48,1682.06 L1896.97,1682.75 L1896.54,1684.71 L1895.92,1685.23 L1895.48,1685.39 L1894.57,1685.3 L1893.07,1684.91 L1892.43,1684.64 L1891.77,1684.2 L1891,1683.69 L1890.34,1683.63 L1889.15,1683.6 L1888.48,1683.78 L1887.48,1684.48 L1886.87,1685.17 L1886.31,1686.59 L1885.82,1686.87 L1884.5,1686.75 L1884.14,1686.93 L1883.33,1687.51 L1882.08,1689.09 L1881.61,1689.46 L1880.05,1689.52 L1878.99,1689.25 L1877.66,1688.54 L1877.17,1688.08 L1876.09,1686.79 L1875.61,1686.53 L1871.44,1685.29 L1870.91,1685.4 L1870.47,1685.62 L1868.88,1686.84 L1866.63,1687.63 L1864.55,1687.91 L1863.29,1688.09 L1861.89,1688.58 L1861.21,1689.21 L1861.02,1689.58 L1861.18,1691.17 L1861.08,1692.68 L1860.87,1693.93 L1860.27,1695.37 L1859.02,1697.8 L1858.58,1698.22 L1857.89,1698.52 L1857.11,1699.32 L1855.65,1701.29 L1854.04,1702.65 L1853.05,1703.03 L1852.52,1702.82 L1852.18,1702.51 L1851.98,1700.45 L1852.02,1697.55 L1851.89,1696.52 L1851.44,1695.41 L1850.3,1694.62 L1849.47,1694.4 L1847.42,1694.33 L1846.96,1694.47 L1844.91,1695.58 L1843.72,1697.42 L1843.29,1697.52 L1841.67,1697.48 L1840.49,1697.73 L1840.13,1697.93 L1839.98,1698.47 L1841.43,1701.56 L1841.64,1702.71 L1841.46,1703.79 L1841.21,1704.26 L1840.03,1705.52 L1839.56,1705.86 L1838.81,1706.16 L1837.48,1706.24 L1836.07,1706.11 L1835.63,1705.89 L1835.26,1705.58 L1834.5,1704.68 L1834.09,1704.37 L1833.65,1704.15 L1833.28,1704.12 L1832.82,1704.24 L1832.4,1704.47 L1831.89,1705.34 L1831.69,1706.35 L1831.81,1706.86 L1832.6,1708.39 L1834.11,1713.38 L1834.33,1714.2 L1834.16,1715 L1833.8,1715.14 L1833.37,1715.11 L1832.76,1714.87 L1831.29,1713.81 L1830.66,1713.67 L1830.15,1713.67 L1827.5,1715.13 L1830.13,1722.67 L1838.94,1741.94 L1844.66,1754.46 L1846.26,1760.16 L1846.56,1765.07 L1846.83,1767.05 L1847.66,1770.53 L1849.04,1774.56 L1850.6,1776.1 L1853,1778.96 L1855.66,1782.33 L1860.18,1788.46 L1863.19,1793.28 L1864.15,1794.22 L1869.59,1798.54 L1871.88,1801.56 L1873.32,1802.5 L1874.18,1803.44 L1877.05,1814.42 L1876.06,1822.47 L1876.48,1826.93 L1876.52,1829.01 L1875.93,1830.06 L1875.56,1830.1 L1875.32,1830.23 L1874.7,1831.14 L1874.66,1831.7 L1874.39,1832.52 L1874.38,1833.16 L1875.87,1838.18 L1876.4,1839.62 L1876.63,1840.62 L1877.11,1845.04 L1877.74,1846.92 L1878.56,1848.89 L1879.04,1850.97 L1879.16,1853.95 L1879.5,1856.11 L1880.91,1862.85 L1880.64,1866.52 L1879.47,1872.53 L1880.78,1876.58 L1881.66,1880.55 L1881.85,1884.92 L1882.15,1888.55 L1883.23,1893.37 L1883.67,1896.54 L1884.49,1898.37 L1886.27,1900.38 L1889.3,1901.05 L1892.31,1901.89 L1892.54,1902.11 L1895.35,1903.78 L1896.65,1904.67 L1897.52,1905.53 L1898.73,1907.19 L1899.34,1907.76 L1900.2,1908.24 L1902.28,1908.25 L1907.75,1906.86 L1907.93,1907.02 L1908.25,1907.03 L1909.68,1905.93 L1910.37,1905.56 L1911.55,1905.12 L1912.71,1905.01 L1913.17,1905.03 L1913.51,1905.22 L1916.25,1907.56 L1919.28,1910.85 L1919.54,1911.02 L1919.86,1911.07 L1924.39,1917.87 L1928.47,1922.56 L1935.49,1929.87 L1938.83,1939.82 L1941.27,1946.57 L1942.17,1948.42 L1943.39,1951.67 L1949.92,1955.04 L1962.81,1972.11 L1967.73,1975.62 L1968.28,1976.02 L1969.43,1977.91 L1969.45,1978.5 L1969.24,1978.93 L1969.17,1979.56 L1968.24,1980.83 L1968.07,1981.21 L1968.06,1981.84 L1968.3,1982.47 L1968.35,1984.85 L1968.81,1986.61 L1969.11,1987.35 L1969.11,1987.73 L1968.76,1987.89 L1968.01,1987.65 L1967.17,1987.73 L1966.37,1987.95 L1964.44,1988.21 L1963.85,1988.39 L1963.45,1988.62 L1962.39,1989.64 L1961.94,1990.29 L1961.47,1991.22 L1960.87,1993.88 L1960.28,1995.32 L1960.03,1995.69 L1957.58,1996.3 L1957.23,1996.61 L1956.1,1998.26 L1955.34,1998.74 L1953.67,1999.47 L1952.52,1999.53 L1951.21,1999.35 L1950.58,1999.37 L1949.29,1999.85 L1945.19,2000.65 L1944.5,2001.12 L1943.44,2002.16 L1943.08,2002.64 L1941.19,2005.94 L1939.79,2007.7 L1938.47,2009.67 L1938.08,2010.12 L1936.07,2011.87 L1935.74,2012.06 L1931.76,2012.11 L1930.81,2012.23 L1930.4,2011.94 L1928.75,2009.2 L1927.79,2008.28 L1924.98,2006.04 L1923.04,2004.75 L1919.86,2003.07 L1919.66,2002.98 L1918.63,2003.01 L1917.87,2002.48 L1916.83,2002.27 L1916.2,2002.03 L1913.12,1999.51 L1912.28,1998.71 L1911.93,1998.63 L1911.5,1998.71 L1911.23,1998.17 L1910.98,1997.89 L1910.59,1997.9 L1910.23,1998.04 L1909.42,1998.03 L1908.22,1997.82 L1907.07,1997.77 L1905.85,1997.9 L1904.59,1998.17 L1903.27,1998.02 L1889.58,1993.89 L1888.33,1994.58 L1887.79,1995.53 L1882.61,1998.02 L1881.53,1998.76 L1880.69,1999.74 L1880.09,2000.94 L1879.69,2001.25 L1878.99,2001.32 L1877.62,2001.04 L1874.66,2001.07 L1873.53,2001.7 L1872.9,2002.41 L1872.33,2004.34 L1871.59,2005.72 L1868.92,2007.67 L1862.59,2014 L1860.85,2016.96 L1859.48,2018.28 L1859.01,2018.6 L1854.92,2019.73 L1853.96,2020.21 L1853.12,2021.16 L1851.28,2024.21 L1850.82,2024.79 L1849.33,2026.03 L1847.88,2026.4 L1845.11,2026.64 L1843.69,2026.9 L1840.74,2026.86 L1839.99,2026.91 L1838.48,2027.6 L1837.07,2028.41 L1836.69,2028.93 L1836.31,2029.95 L1835.47,2030.57 L1832.69,2031.42 L1831.39,2031.91 L1828.02,2033.28 L1825.47,2034.51 L1825.17,2034.54 L1823.67,2035.13 L1822.99,2035.31 L1821.9,2035.77 L1820.48,2036.19 L1820.03,2036.24 L1817.29,2036.46 L1816.42,2036.71 L1815.73,2037.08 L1815.15,2037.59 L1814.65,2038.23 L1813.91,2039.47 L1812.91,2040.07 L1811.85,2040.35 L1810.35,2040.51 L1808.68,2041.25 L1806.14,2042.07 L1804.11,2042.37 L1802.51,2042.94 L1801.02,2043.27 L1798.58,2043.64 L1798.54,2044.27 L1794.79,2045.85 L1793.72,2046.12 L1791.82,2046.28 L1790.76,2046.53 L1789.81,2047.18 L1787.87,2049.03 L1787.3,2049.37 L1786.42,2049.61 L1785.19,2049.54 L1779.92,2047.99 L1779.58,2047.81 L1779.29,2047.51 L1778.2,2045.38 L1777.77,2045 L1777.18,2044.73 L1776.91,2044.65 L1776.55,2044.68 L1774.46,2045.57 L1773.95,2048.78 L1772.83,2051.15 L1772.49,2052.17 L1772.33,2054.66 L1772.04,2057.21 L1771.39,2058.04 L1769.73,2059.49 L1768.45,2060.3 L1767.95,2060.35 L1766.9,2061.41 L1766.59,2061.87 L1766.66,2063.82 L1766.48,2064.23 L1766.25,2064.47 L1765.12,2064.98 L1763.03,2066.31 L1761.89,2067.44 L1761.54,2067.97 L1761.55,2068.34 L1761.64,2068.54 L1763.33,2069.3 L1765.82,2070.18 L1766.16,2070.43 L1766.2,2070.65 L1764.7,2073.73 L1764.64,2074.3 L1764.71,2075.4 L1763.65,2076.81 L1763.46,2077.55 L1763.49,2077.87 L1763.62,2078.11 L1765.93,2080.11 L1766.36,2080.28 L1767.8,2080.36 L1768.27,2080.51 L1768.6,2080.78 L1768.45,2081.02 L1767.3,2081.48 L1765.58,2082.34 L1761.5,2083.65 L1761.2,2083.81 L1761.06,2084 L1761.44,2085.12 L1761.84,2085.85 L1762.87,2087.2 L1763.45,2089.05 L1763.84,2091 L1763.89,2092.43 L1764.37,2095.62 L1764.41,2097.3 L1764.04,2100.48 L1763.9,2100.78 L1763.23,2101.5 L1763.86,2101.89 L1764.05,2102.94 L1764.73,2104.41 L1767.08,2107.99 L1767.82,2109.53 L1769.32,2112.15 L1770.57,2113.9 L1771.13,2114.43 L1771.91,2114.96 L1773.26,2116.11 L1773.78,2116.42 L1776.17,2116.86 L1777.1,2117.12 L1777.45,2117.3 L1779.26,2118.78 L1779.52,2119.39 L1779.6,2120.37 L1779.51,2120.75 L1778.55,2122.29 L1778.19,2123.82 L1778.54,2125.66 L1779,2126.79 L1779.69,2127.63 L1781.73,2129.44 L1782.67,2130.52 L1787.14,2134.6 L1790.12,2137.47 L1791.69,2139.13 L1792.24,2140.07 L1792.46,2141.68 L1792.94,2143.93 L1793.99,2145.08 L1794.27,2145.65 L1794.62,2146.65 L1795.14,2148.93 L1796.02,2150.8 L1798.11,2153.13 L1798.62,2153.83 L1799.58,2155.66 L1800.1,2156.93 L1801,2157.97 L1801.71,2159 L1802.29,2160.17 L1802.51,2161.29 L1802.57,2164.15 L1803.54,2167.11 L1803.91,2169.15 L1804.11,2171.83 L1803.7,2175.27 L1803.38,2176.55 L1802.47,2177.85 L1801.19,2179.13 L1799.95,2180.63 L1799.68,2181.12 L1799.66,2182.03 L1799.86,2183.31 L1799.86,2183.81 L1799.62,2185.36 L1799.74,2188.48 L1799.52,2189.83 L1799.72,2190.77 L1800.48,2193.05 L1800.67,2194.03 L1801.23,2199.72 L1801.66,2201.44 L1802.37,2203.48 L1804.7,2208.29 L1805.26,2210.84 L1804.58,2211.88 L1804.09,2212.43 L1802.51,2214 L1801.34,2215.03 L1800.84,2215.39 L1799.39,2216.17 L1798.69,2216.38 L1797.09,2216.5 L1794.89,2215.96 L1791.2,2214.8 L1790.55,2214.51 L1790.08,2214.48 L1789.13,2214.19 L1787.04,2214.4 L1783.85,2214.51 L1782.94,2214.8 L1782.26,2215.19 L1781.65,2215.75 L1779.54,2218.91 L1778.89,2219.61 L1777.57,2220.5 L1775.5,2221.36 L1774.72,2221.51 L1773.58,2222.2 L1770.63,2223.59 L1770.93,2224.82 L1771.03,2225.54 L1770.98,2225.75 L1767.64,2229.24 L1766.45,2230.7 L1764.78,2232.11 L1762.98,2233.46 L1760.65,2239.31 L1759.97,2240.01 L1759.2,2241.31 L1757.14,2246.36 L1756.61,2246.93 L1756.19,2247.22 L1754.32,2247.87 L1752.89,2248.65 L1751.4,2249.03 L1750.68,2249.33 L1748.74,2250.77 L1748.37,2251.53 L1747.91,2252.92 L1747.48,2253.72 L1747.13,2254.07 L1745.86,2254.87 L1745.3,2255.5 L1743.76,2258.06 L1742.36,2259.74 L1741.44,2261.19 L1739.83,2262.44 L1739.94,2263.11 L1739.11,2267.79 L1739.09,2268.76 L1740.72,2269.37 L1744,2270.82 L1747.45,2271.65 L1749.72,2272.44 L1751.69,2277.66 L1753.57,2279.33 L1755.03,2281.07 L1755.55,2282.24 L1753.36,2285.15 L1752.37,2286.22 L1746.07,2295.8 L1744.98,2297.27 L1744.13,2297.74 L1743.59,2298.31 L1742.98,2299.72 L1742.91,2300.96 L1742.37,2302.31 L1741.4,2303.47 L1740.54,2304.78 L1737.93,2306.79 L1737.55,2307.18 L1737.36,2308.08 L1736.78,2308.66 L1735.16,2309.17 L1734.46,2309.39 L1733.85,2309.4 L1734.01,2309.6 L1733.78,2309.72 L1732.46,2310 L1728.27,2311.2 L1726.44,2311.62 L1724.24,2312.04 L1720.94,2312.57 L1714.71,2313.98 L1715.07,2314.27 L1715.29,2314.94 L1715.32,2315.75 L1715.19,2317.23 L1715.22,2318.32 L1715.45,2319.6 L1715.64,2320.33 L1716.01,2322.57 L1716.22,2323.31 L1716.71,2324.59 L1716.81,2325.04 L1717.14,2325.82 L1717.4,2326.16 L1718.83,2328.73 L1719.24,2329.9 L1719.77,2329.95 L1720.17,2330.14 L1721.79,2331.87 L1721.83,2333.04 L1721.71,2334.95 L1721.59,2335.27 L1720.95,2335.93 L1720.68,2336.52 L1720.67,2336.92 L1720.74,2337.34 L1721.39,2339.03 L1721.31,2341.16 L1721.37,2342.43 L1721.69,2343.19 L1722.43,2344.6 L1722.66,2345.35 L1723.31,2346.69 L1723.37,2347.83 L1723.44,2347.99 L1723.76,2348.36 L1724.3,2348.65 L1725.21,2349.52 L1725.96,2350.35 L1726.2,2350.79 L1726.18,2351.37 L1726.03,2351.98 L1725.69,2352.1 L1725.09,2352.47 L1723.74,2352.99 L1722.91,2353.49 L1722.53,2353.6 L1722.08,2354.14 L1721.48,2354.61 L1720.81,2354.92 L1716.87,2356.29 L1716.47,2356.23 L1716.18,2356.56 L1715.84,2356.82 L1715.61,2357.15 L1715.56,2357.4 L1715.34,2359.23 L1715.38,2361.91 L1715.53,2362.6 L1715.72,2363.05 L1715.94,2364.78 L1716.61,2366.43 L1717.38,2367.58 L1717.41,2367.98 L1717.23,2368.26 L1717.21,2368.31 L1716.04,2369.58 L1714.07,2370.35 L1713.77,2370.77 L1713.53,2371.34 L1713.45,2372.05 L1713.52,2372.86 L1713.98,2374.46 L1714,2375.72 L1713.86,2376.37 L1713.84,2376.98 L1713.99,2377.75 L1714.36,2378.54 L1714.73,2379.88 L1714.81,2382.52 L1714.91,2383.19 L1715.18,2384.09 L1715.51,2386.87 L1716.26,2389.32 L1716.27,2390.06 L1716.08,2391.2 L1715.39,2392.63 L1715.18,2393.36 L1715.01,2395.81 L1714.46,2396.35 L1713.79,2396.64 L1713.6,2396.85 L1713.15,2397.85 L1713.1,2398.78 L1712.68,2399.33 L1712.66,2400.6 L1712.41,2401.42 L1712.31,2402.46 L1712,2403.12 L1711.96,2403.44 L1711.99,2403.67 L1712.41,2404.44 L1714.07,2406.89 L1714.35,2408.13 L1714.79,2409.15 L1715.27,2411.02 L1715.84,2412.42 L1714.77,2413.67 L1712.82,2415.64 L1711.18,2415.69 L1710.48,2415.9 L1710.56,2416.5 L1710.18,2417.26 L1708.76,2418.35 L1708.41,2418.77 L1706.67,2419.54 L1706.15,2419.99 L1704.98,2423.09 L1704.78,2424.48 L1704.45,2425.56 L1704.22,2426.99 L1704.06,2427.96 L1703.61,2432.8 L1704.15,2437.18 L1704.28,2438.87 L1704.27,2441.12 L1704.72,2441.29 L1705.46,2441.93 L1706.67,2442.96 L1709.6,2445.49 L1711.29,2446.62 L1711.45,2446.67 L1713.92,2457.49 L1715.01,2462.94 L1715.18,2463.78 L1714.13,2471.61 L1713.1,2477.73 L1712.46,2482.33 L1711.89,2485.21 L1711.07,2490.1 L1710.03,2494.99 L1709.63,2502.86 L1709.21,2506.48 L1709.07,2507.22 L1708.99,2507.65 L1707.46,2509.84 L1704.97,2510.65 L1701.84,2511.82 L1693.61,2513.7 L1688.29,2515.65 L1685.61,2516.57 L1683.49,2517.21 L1678.82,2518.24 L1678.26,2518.79 L1677.31,2520.94 L1677.06,2521.29 L1675.03,2523.29 L1673.69,2524.27 L1673,2524.67 L1672.06,2524.91 L1670.97,2526.14 L1669.84,2527.09 L1668.17,2527.83 L1667.44,2528.02 L1665.05,2529.28 L1661.55,2527.72 L1652,2521.79 L1651.55,2521.78 L1651.02,2521.56 L1650.54,2521.52 L1649.28,2520.47 L1649.04,2520.17 L1648.69,2518 L1646.87,2516.38 L1646.18,2516.26 L1645.96,2516.33 L1645.25,2516.98 L1644.47,2517.3 L1643.94,2517.24 L1643.2,2516.56 L1642.31,2516.34 L1640.94,2516.37 L1640.18,2516.56 L1639.46,2516.95 L1638.05,2518.32 L1636.86,2518.98 L1634.45,2516.84 L1630.71,2513.81 L1630.71,2513.81 L1626.01,2509.64 L1623.43,2507.59 L1622.6,2506.73 L1622.2,2506.94 L1620.31,2508.87 L1619.86,2509.1 L1619.22,2509.06 L1614.64,2507.59 L1613.58,2506.82 L1612.53,2506.84 L1611,2506.56 L1608.49,2506.39 L1608.17,2506.37 L1599.77,2503.03 L1598.74,2502.92 L1595.54,2502.13 L1595.08,2501.37 L1594.22,2499.57 L1593.69,2498.27 L1593.29,2496.95 L1592.65,2495.15 L1592.34,2496.32 L1591.62,2497.83 L1591.74,2502.43 L1591.61,2506.17 L1591.91,2509.34 L1593.39,2515.66 L1594.37,2518.72 L1595.5,2520.19 L1601.9,2527.42 L1599.9,2531.84 L1597.91,2535.72 L1593.39,2543.69 L1591.66,2546.25 L1589.72,2549.62 L1586.51,2555.71 L1584.62,2559.1 L1583.03,2562.37 L1582.35,2570.33 L1582.38,2574.42 L1581.87,2584.83 L1569.72,2585.6 L1556.47,2585.37 L1553.24,2586.83 L1545.84,2590.29 L1544.42,2589.48 L1542.19,2588.45 L1533.88,2585.19 L1531.12,2586.49 L1515.91,2592.14 L1506.31,2596.45 L1503.72,2597.74 L1501.37,2598.91 L1496.91,2600.8 L1490.95,2603.22 L1487.19,2604.72 L1486.38,2605.7 L1485.79,2606.79 L1485.56,2607.75 L1485.13,2611.35 L1486.57,2619.13 L1486.58,2619.96 L1486.48,2620.35 L1486.98,2621.14 L1487.47,2622.59 L1487.55,2623.16 L1487.42,2626.97 L1487.16,2628.43 L1486.9,2629.3 L1486.68,2629.71 L1486.47,2630.93 L1486.09,2631.39 L1485.27,2632.02 L1486.8,2638.82 L1487.62,2643.43 L1487.75,2644.21 L1488.1,2646.43 L1488.36,2647.43 L1490.27,2652.99 L1490.86,2655.27 L1492.53,2665.04 L1492.62,2665.48 L1492.4,2668.1 L1492.12,2669.95 L1491.15,2676.2 L1490.56,2680.91 L1489.71,2687.75 L1489.67,2689.01 L1489.92,2690.66 L1489.67,2691.63 L1489.86,2693.34 L1490.21,2693.47 L1490.09,2693.89 L1489.59,2694.88 L1488.4,2696.3 L1485.25,2700.46 L1483.66,2703.5 L1483.54,2703.73 L1482.78,2704.89 L1481.61,2706.66 L1481.23,2707.68 L1480.44,2710.78 L1479.72,2713.05 L1479.39,2714.65 L1479.2,2716.5 L1478.81,2717.47 L1478.39,2717.94 L1477.16,2718.57 L1475.47,2719.27 L1474.94,2719.6 L1474.67,2720.07 L1474.09,2722.85 L1473.78,2724.33 L1473.26,2726.22 L1473.19,2726.82 L1473.16,2727.09 L1471.75,2726.93 L1469.14,2726.88 L1467.91,2726.92 L1465.12,2727 L1464.33,2727.33 L1463.12,2728.04 L1461.59,2728.25 L1461.07,2728.23 L1459.92,2728 L1459.53,2727.81 L1458.41,2726.2 L1458.12,2726.08 L1457.73,2726.09 L1456.39,2726.49 L1455.05,2726.38 L1454.29,2726.13 L1452.72,2725.28 L1452,2725.07 L1451.39,2725.05 L1450.93,2724.86 L1450.74,2724.64 L1450.35,2724.42 L1448.86,2723.52 L1447.34,2722.6 L1446.78,2722.08 L1446.63,2721.73 L1446.16,2721.36 L1445.63,2721.2 L1444.07,2719.59 L1443.15,2718.32 L1442.49,2717.84 L1442.34,2717.56 L1442.25,2717.07 L1441.16,2715.42 L1440.98,2714.88 L1441.03,2714.29 L1441.87,2712.76 L1441.96,2712.09 L1442.7,2709.47 L1440.78,2707.07 L1441.36,2701.5 L1441.39,2698.99 L1439.89,2697.57 L1438.88,2696.36 L1437.71,2696.29 L1434.96,2697.08 L1433.34,2696.88 L1432.31,2696.84 L1431.57,2696.68 L1430.75,2696.74 L1429.45,2696.49 L1416.79,2697.71 L1408.66,2693.08 L1408.63,2693 L1397.54,2688.19 L1391.1,2685.68 L1387.86,2687.53 L1383.82,2689.49 L1379.84,2691.43 L1375.47,2692.32 L1375.25,2691.8 L1374.69,2691.04 L1374.65,2690.79 L1363.49,2693.44 L1356.15,2694.2 L1353.52,2694.37 L1353.21,2694.37 L1352.69,2694.13 L1350.47,2694.13 L1348.65,2694 L1347.72,2694.21 L1343.98,2694.44 L1343.78,2694.53 L1339.43,2694.77 L1337.2,2693.47 L1336.15,2692.49 L1336.11,2691.46 L1335.84,2691.09 L1335.41,2690.77 L1334.15,2690.28 L1333.36,2689.69 L1332.46,2689.79 L1331.51,2689.58 L1324.74,2689.04 L1322.4,2688.71 L1317.99,2687.43 L1317.44,2687.46 L1315,2687.98 L1314.1,2687.78 L1313.03,2687.38 L1311.75,2686.72 L1310.32,2687.52 L1309.38,2688.37 L1307.69,2689.23 L1306.92,2690.27 L1306.27,2690.84 L1305.84,2691.04 L1305.53,2691.05 L1304.71,2690.78 L1303.9,2689.64 L1303.44,2689.24 L1302.76,2688.91 L1302.1,2688.33 L1302,2688.07 L1301.05,2686.14 L1300.75,2685.09 L1300.5,2683.38 L1300.03,2681.55 L1299.71,2680.79 L1299.57,2679.85 L1299.8,2676.09 L1299.73,2674.01 L1300.22,2672.57 L1300.41,2671.49 L1300.38,2670.74 L1299.81,2669.12 L1299.85,2668.76 L1300.64,2666.2 L1300.65,2665.1 L1300.35,2663.86 L1300.43,2662.36 L1300.02,2661.24 L1298.4,2658.23 L1297.52,2655.65 L1296.22,2652.62 L1295.89,2651.56 L1295.74,2649.1 L1295.67,2645.91 L1295.91,2644.38 L1295.79,2641.3 L1295.31,2638.97 L1293.75,2634.46 L1293.11,2631.45 L1292.76,2630.19 L1292.27,2627.08 L1291.92,2623.99 L1291.01,2619.07 L1289.84,2615.41 L1289.65,2614.59 L1289.64,2613.92 L1289.85,2611.29 L1289.88,2610.97 L1290,2610.95 L1290.84,2611.45 L1292.09,2611.69 L1296.3,2612.96 L1298.05,2613.01 L1299.26,2612.78 L1300.44,2612.33 L1301.57,2612.17 L1302.33,2612.16 L1303.17,2612.42 L1304.88,2613.3 L1306.31,2613.64 L1309.13,2614.58 L1309.85,2614.75 L1310.56,2614.76 L1311.82,2614.95 L1312.42,2615.17 L1314.78,2615.68 L1315.09,2615.81 L1316.14,2616.64 L1318.93,2617.47 L1320.41,2618.02 L1321.29,2618.65 L1321.95,2618.85 L1322.47,2619.33 L1323.03,2620.3 L1323.61,2620.93 L1326.75,2621.21 L1328.88,2621.77 L1333.49,2621.82 L1337.37,2621.58 L1344.17,2620.69 L1349.86,2619.62 L1364.57,2616.5 L1366.76,2615.46 L1371.37,2612.96 L1373.22,2612.15 L1374.7,2611.7 L1377.88,2611.29 L1379.57,2611.2 L1381.76,2611.24 L1386.04,2611.96 L1391.67,2612.54 L1395.43,2613.21 L1396.98,2612.56 L1398.79,2611.95 L1398.56,2609.98 L1398.41,2606.98 L1398.39,2596.73 L1398.2,2590.76 L1397.58,2583.53 L1397.94,2581.87 L1397.86,2578.51 L1397.44,2576.15 L1397.45,2575.05 L1397.97,2571.91 L1397.96,2571.32 L1396.57,2558.81 L1396.16,2556.94 L1394.04,2551.21 L1393.09,2549.63 L1391.09,2546.84 L1390.19,2544.24 L1388.9,2542.52 L1387.19,2540.81 L1385.59,2538.91 L1384.83,2536.86 L1384.68,2536.22 L1384.66,2534.88 L1384.72,2534.22 L1384.71,2532.67 L1383.97,2525.72 L1383.73,2524.11 L1382.11,2515.6 L1382.26,2515.13 L1382.81,2514.03 L1384.15,2511.89 L1385.17,2509.84 L1387.71,2505.77 L1387.97,2505.2 L1388.45,2502.87 L1388.85,2499.07 L1389.06,2497.09 L1389.44,2495.78 L1390.22,2493.59 L1393.02,2484.2 L1393.79,2481.96 L1399.47,2469.13 L1400.86,2465.71 L1401.49,2464.67 L1402.78,2461.68 L1403.01,2460.89 L1403.21,2454.34 L1403.21,2452.49 L1403.14,2451.96 L1402.84,2451.23 L1401.92,2450.63 L1400.52,2450.16 L1399.69,2450.03 L1398.31,2449.35 L1397.59,2448.89 L1396.91,2447.89 L1396.88,2447.13 L1396.8,2446.97 L1395.19,2445.39 L1394.37,2444.13 L1393.18,2442.75 L1392.48,2442.75 L1392.44,2442.68 L1393.17,2442.13 L1396.9,2438.39 L1401.2,2434.34 L1401.57,2433.72 L1401.69,2433.43 L1401.98,2432.55 L1401.97,2428.36 L1402.49,2426.55 L1403.23,2424.71 L1405.51,2420.8 L1407.61,2421 L1408.17,2420.06 L1408.51,2419.33 L1408.34,2419 L1406.5,2416.91 L1400.82,2411.33 L1400.72,2405.8 L1401.09,2405.42 L1401.17,2404.48 L1401.6,2402.81 L1401.94,2401.01 L1403.61,2396.45 L1405.33,2392.28 L1406.48,2390.16 L1407.41,2389.12 L1407.81,2388.55 L1407.86,2387.94 L1406.71,2384.69 L1404.73,2380.01 L1403.69,2378.01 L1402.89,2376.92 L1402.65,2376.7 L1402.14,2376.22 L1400.57,2375.35 L1397.86,2372.07 L1396.04,2370.46 L1387.44,2363.84 L1384.79,2361.38 L1381.98,2358.61 L1380.65,2357.03 L1378.47,2354.93 L1378.38,2354.85 L1377.3,2354.86 L1375.66,2354.65 L1369.97,2354.88 L1369.86,2352.3 L1369.66,2350.69 L1369.42,2349.79 L1368.41,2347.04 L1366.82,2343.95 L1365.68,2342.05 L1365.22,2341.55 L1364.61,2341.18 L1363.88,2341 L1362.48,2340.9 L1361.87,2341.01 L1361.33,2341.34 L1359.93,2342.62 L1357.74,2344.31 L1357.01,2344.68 L1355.6,2344.92 L1354.36,2344.78 L1353.44,2344.34 L1350.81,2342.03 L1351.34,2341.05 L1351.51,2339.25 L1350.76,2338.52 L1350.6,2336.87 L1350.34,2336.33 L1350.37,2336.21 L1350.69,2334.65 L1350.67,2333.29 L1350.52,2332.67 L1350.52,2331.09 L1350.11,2329.63 L1348.97,2326.64 L1348.54,2326 L1348.19,2325.21 L1347.17,2324.09 L1345.87,2321.98 L1344.91,2320.66 L1342.61,2318.39 L1344.12,2312.29 L1344.77,2310.01 L1345.54,2308.73 L1346.06,2307.32 L1346.32,2306.32 L1347.58,2300.84 L1347.53,2299.33 L1347.68,2298.41 L1347.67,2297.66 L1347.53,2296.28 L1348.22,2294.78 L1348.41,2293.61 L1349.12,2292.17 L1349.49,2290.76 L1350.29,2286.28 L1350.4,2282.64 L1350.88,2281.18 L1350.93,2276.86 L1350.69,2271.31 L1347.55,2273.06 L1346.89,2273.53 L1345.79,2274.55 L1345.34,2275.12 L1343.8,2275.34 L1340.9,2275.58 L1338.86,2275.76 L1337.47,2276.05 L1336.02,2276.59 L1335.16,2276.78 L1330.73,2276.98 L1328.89,2276.98 L1325.16,2277.62 L1324.44,2277.59 L1323,2277.14 L1321.77,2276.9 L1320.78,2276.82 L1319.42,2276.9 L1318.41,2279.24 L1316.04,2280.48 L1312.85,2282.64 L1312.27,2282.94 L1312.16,2283.43 L1312.09,2284.58 L1310.64,2284.71 L1309.1,2287.54 L1307.03,2289.83 L1306.54,2290.11 L1305.33,2290.81 L1301.41,2292.65 L1297.5,2294.84 L1292.05,2297.36 L1290.76,2298.38 L1289.75,2299.6 L1289.04,2301.56 L1286.3,2300.41 L1285.18,2299.74 L1283.65,2298.55 L1282.46,2297.33 L1281.99,2297.71 L1281.29,2299.11 L1280.48,2300.48 L1280.15,2301.5 L1278.01,2305.24 L1277.71,2305.56 L1275.73,2306.56 L1273.8,2308.06 L1273.87,2308.16 L1273.3,2308.87 L1272.98,2309.44 L1270.12,2313.15 L1269.84,2313.4 L1267.53,2316.5 L1266.7,2317.16 L1265.38,2318 L1263.82,2318.67 L1263.22,2319.17 L1262.23,2320.3 L1260.94,2321.52 L1260.82,2321.51 L1255.59,2323.63 L1254.97,2323.87 L1252.04,2324.56 L1233.08,2326.74 L1213.34,2332.2 L1200.04,2338.19 L1193.55,2340.2 L1186.48,2341.3 L1182.79,2336.74 L1180.53,2333.94 L1178.22,2328.95 L1175.04,2316.8 L1169.66,2302.75 L1169.51,2299.66 L1169.25,2294.32 L1169.04,2288.57 L1168.7,2278.86 L1168.59,2275.82 L1168.58,2270.59 L1168.58,2268.25 L1168.57,2262.15 L1168.66,2259.59 L1168.68,2258.94 L1169.31,2255.62 L1169.33,2255.27 L1170.05,2239.79 L1170.41,2232.35 L1172.59,2215.85 L1172.55,2213.08 L1172.5,2208.86 L1172.47,2205.83 L1180.09,2195.82 L1186.43,2187.76 L1188.58,2184.19 L1189.8,2180.88 L1189.78,2175.83 L1189.51,2174.1 L1189.16,2172.83 L1188.25,2169.57 L1187.72,2166.7 L1188.47,2160.12 L1188,2159.25 L1187.13,2157.99 L1186.04,2156.02 L1185.39,2154.57 L1184.81,2152.45 L1184.29,2149.14 L1180.81,2135.36 L1180.13,2135.07 L1177.98,2133.29 L1177.48,2132.95 L1177.21,2132.49 L1176.7,2130.88 L1176.6,2130.58 L1176.5,2129.49 L1176.05,2124.51 L1175.78,2123.26 L1175.19,2122.3 L1173.43,2119.42 L1171.99,2117.67 L1169.2,2115.5 L1167,2113.99 L1165.34,2112.99 L1164.95,2112.52 L1164.95,2111.9 L1165.55,2110.12 L1165.86,2108.68 L1164.15,2100.93 L1163.17,2096.11 L1162.92,2094.38 L1162.53,2093.57 L1161.83,2092.83 L1160.59,2091.82 L1158.64,2090.23 L1155.17,2088.37 L1154.72,2088.27 L1153.19,2087.95 L1148.55,2087.32 L1146.31,2087.25 L1144.38,2087.8 L1143.72,2087.69 L1143.52,2087.4 L1142.83,2086.44 L1141.22,2084.79 L1139.54,2083.48 L1139.21,2082.89 L1138.34,2083.4 L1135.88,2085.49 L1134.46,2085.85 L1134.04,2086.12 L1133.34,2086.34 L1132.63,2086.4 L1131.63,2086.31 L1129.34,2086.39 L1128.57,2085.97 L1127.86,2085.75 L1127.47,2085.67 L1126.73,2085.7 L1126.29,2086.06 L1124.73,2086.33 L1124.42,2086.5 L1124.29,2086.64 L1124,2087.59 L1123.74,2087.89 L1122.97,2088.18 L1121.22,2089.36 L1120.57,2089.04 L1120.06,2088.83 L1119.58,2088.5 L1118.96,2087.84 L1118.57,2087.19 L1118.16,2085.71 L1117.67,2084.45 L1116.55,2084.63 L1115.88,2084.93 L1115.25,2085.35 L1114.11,2086.31 L1113.5,2086.68 L1112.52,2087.06 L1112.06,2087.05 L1111.05,2086.63 L1109.22,2085.5 L1106.44,2084.24 L1105.68,2084.24 L1104.94,2084.42 L1103.9,2084.88 L1103.52,2084.88 L1102.09,2084 L1101.31,2082.28 L1101.2,2081.67 L1101.22,2081.15 L1101.6,2080.51 L1101.97,2080.18 L1102.07,2079.95 L1101.8,2078.83 L1101.79,2078.31 L1101.92,2077.28 L1101.87,2076.49 L1101.68,2075.97 L1101.02,2075.34 L1100.33,2074.93 L1097.39,2074.09 L1095.35,2073.36 L1094.59,2073.27 L1092.34,2073.28 L1091.66,2073.01 L1091.05,2072.63 L1090.44,2072.14 L1089.92,2071.53 L1088.22,2070.26 L1087.54,2070 L1085.29,2069.96 L1084.16,2069.66 L1083.56,2069.2 L1082.83,2069.63 L1079.38,2073.27 L1076.59,2075.01 L1069.47,2080.27 L1067.76,2083.92 L1067.08,2086.04 L1065.62,2089.57 L1064.38,2092.35 L1062.87,2095.98 L1061.68,2097.92 L1060.36,2099.78 L1059.59,2100.66 L1059.8,2101.95 L1060.11,2105.82 L1059.6,2108.15 L1059.09,2109.28 L1059.04,2109.67 L1056.67,2113.24 L1055.14,2114.4 L1053.12,2116.16 L1051.54,2117.62 L1049.99,2119.32 L1048.97,2121.29 L1048.54,2122.76 L1048.41,2123.53 L1047.5,2126.3 L1046.15,2129 L1045.5,2130.08 L1044.84,2130.54 L1044.16,2131.29 L1043.43,2131.91 L1043.01,2132.11 L1042.93,2132.28 L1042.94,2135.32 L1042.83,2135.81 L1042.22,2137.23 L1042.21,2137.46 L1042.35,2138 L1043.11,2139.06 L1043.18,2139.61 L1042.74,2140.69 L1041.96,2142.04 L1041.66,2142.78 L1041.66,2143.51 L1041.81,2143.97 L1042.92,2145.33 L1044.81,2149.49 L1045.51,2150.33 L1045.52,2151.48 L1045.37,2152.05 L1045.02,2152.73 L1043.68,2154.52 L1043.38,2155.24 L1043.11,2155.99 L1042.99,2157.82 L1042.79,2158.34 L1040.21,2161.39 L1038.87,2162.56 L1038.71,2162.91 L1038.69,2163.71 L1038.78,2164.05 L1039.18,2165.19 L1039.95,2166.57 L1040.44,2167.66 L1040.51,2168.35 L1040.36,2168.91 L1038.95,2170.72 L1038.54,2171.36 L1038.16,2172.19 L1038.17,2173.16 L1038.45,2173.8 L1039.93,2175.77 L1040.09,2176.11 L1040.12,2176.64 L1039.83,2177.48 L1039.8,2178.22 L1040.18,2179.45 L1040.32,2180.43 L1039.82,2181.37 L1039.2,2182.01 L1038.98,2182.59 L1039.03,2183.31 L1039.28,2184.2 L1039.34,2185.57 L1040.12,2187.01 L1040.2,2187.62 L1040.08,2189.1 L1039.59,2190.51 L1038.96,2191.92 L1038.84,2192.68 L1038.85,2195.6 L1039,2197.88 L1039.2,2198.77 L1039.24,2199.38 L1039.83,2201.27 L1039.96,2202.06 L1039.85,2205.11 L1040.05,2205.87 L1040.72,2206.84 L1041.38,2208.27 L1041.46,2209.2 L1040.97,2210.03 L1040.79,2210.57 L1040.77,2212.09 L1041.23,2214.03 L1041.23,2214.82 L1040.95,2216.29 L1041.26,2217.28 L1041.92,2218.61 L1042.28,2219.64 L1042.35,2222.57 L1042.76,2225.57 L1043.11,2226.43 L1043.63,2227.17 L1043.83,2227.92 L1043.78,2228.45 L1043.52,2229.17 L1043.49,2229.72 L1043.57,2230.92 L1043.91,2232.54 L1043.25,2234.76 L1041.46,2241.96 L1041.26,2242.45 L1039.59,2245.12 L1038.54,2246.45 L1036.61,2253.48 L1035.62,2256.64 L1034.7,2258.3 L1032.92,2260.47 L1031.5,2260.86 L1030.63,2261.22 L1028.6,2262.05 L1028.13,2262.38 L1027.83,2262.25 L1026.07,2262.25 L1021.76,2260.84 L1020.01,2260.93 L1017.17,2261.62 L1006.83,2264.17 L1003.89,2265.36 L1003.5,2265.46 L1003.21,2265.53 L1001.75,2264.96 L1001.44,2264.91 L1001.23,2264.75 L998.735,2263.74 L994.011,2261.98 L989.979,2260.25 L977.919,2255.1 L974.204,2254.13 L971.733,2253.09 L970.787,2252.76 L969.766,2252.25 L967.241,2251.34 L965.983,2250.66 L958.554,2246.53 L939.301,2235.85 L939.25,2235.72 L938.391,2235.26 L937.704,2234.69 L936.886,2234.19 L935.745,2233.41 L930.757,2230.89 L925.498,2227.25 L918.202,2221.89 L918.386,2221.6 L916.545,2221.05 L916.044,2220.65 L909.027,2213.59 L911.092,2213.03 L910.802,2212.35 L912.623,2211.48 L915.934,2209.21 L915.947,2209.08 L914.124,2206.4 L911.829,2203.85 L910.434,2201.8 L909.479,2201.04 L908.058,2199.73 L907.004,2198.45 L901.113,2190.64 L900.952,2190.14 L901.031,2189.61 L894.619,2181.42 L892.331,2178.85 L891.816,2178.18 L882.618,2166.53 L882.574,2166.31 L881.533,2164.76 L877.422,2159.7 L876.027,2158.23 L874.265,2156.3 L872.439,2153.46 L871.643,2152.83 L869.328,2150.65 L868.285,2149.42 L864.558,2145.44 L863.101,2144.09 L861.96,2142.65 L860.314,2140.98 L858.973,2139.98 L855.998,2137.46 L853.95,2136.07 L850.803,2133.73 L850.407,2133.53 L846.859,2130.84 L842.904,2127.57 L841.23,2125.59 L840.294,2124.78 L837.83,2121.63 L837.441,2121.02 L831.148,2113.7 L830.956,2113.75 L830.601,2114.06 L829.972,2112.5 L829.05,2110.92 L828.443,2110.11 L827.699,2109.49 L826.788,2109.12 L826.51,2108.22 L826.429,2107.64 L826.486,2107.01 L826.823,2105.77 L826.79,2105.2 L826.623,2104.63 L821.383,2101.55 L814.491,2097.26 L812.788,2096.34 L811.198,2095.35 L810.794,2095.11 L804.65,2091.48 L798.208,2081.86 L789.46,2067.16 L769.816,2047.31 L764.058,2041.32 L761.274,2038.61 L754.577,2031.72 L738.287,2015.39 L736.157,2013.16 L715.823,1992.72 L714.252,1991.08 L688.919,1972.48 L680.035,1964.74 L672.772,1958.14 L676.563,1956.15 L677.242,1954.33 L677.912,1951.82 L679.278,1948.26 L679.725,1947.77 L680.034,1947.1 L680.275,1946.17 L680.438,1945.23 L680.73,1943.62 L681.306,1941.38 L682.2,1939.5 L682.939,1937.51 L682.939,1935.81 L683.153,1933.98 L683.686,1932.55 L684.803,1928.56 L685.413,1926.11 L685.878,1923.72 L686.178,1922.42 L686.634,1921.05 L687.046,1919.32 L688,1918.01 L688.404,1917.17 L689.014,1916.39 L689.186,1915.86 L689.512,1915.24 L689.83,1914.07 L690.294,1912.31 L690.517,1911.29 L690.44,1910.64 L689.899,1910.54 L689.435,1910.35 L689.074,1909.64 L688.807,1908.78 L688.85,1907.65 L689.108,1906.54 L689.933,1903.79 L690.784,1901.94 L691.683,1900.14 L692.784,1897.76 L693.389,1896.08 L694.04,1894.43 L694.757,1892.51 L695.2,1890.45 L695.382,1889.07 L695.44,1887.69 L695.649,1886.05 L695.989,1884.3 L696.255,1883.23 L696.743,1881.6 L696.925,1881.39 L697.03,1881.19 L696.984,1880.75 L698.019,1877.12 L698.879,1874.23 L699.504,1871.73 L699.693,1870.19 L699.719,1868.41 L698.898,1867.64 L698.169,1866.83 L698.026,1866.74 L697.85,1866.67 L696.593,1866.48 L695.343,1866.12 L694.516,1865.96 L694.34,1865.85 L694.242,1865.67 L694.249,1865.47 L694.333,1865.33 L694.496,1865.24 L694.75,1865.29 L695.095,1865.43 L695.558,1865.58 L695.779,1865.13 L697.042,1862.29 L697.738,1858.82 L698.537,1856.08 L699.37,1854.12 L700.404,1852.26 L702.304,1848.21 L703.411,1845.88 L703.972,1843.17 L704.426,1841.64 L704.675,1840.08 L704.777,1839.36 L704.585,1839.02 L704.295,1838.67 L704.148,1838.15 L704.114,1837.41 L704.199,1835.39 L704.142,1834.96 L704.018,1834.66 L703.797,1834.48 L703.473,1834.32 L702.169,1833.94 L701.087,1833.61 L700.979,1833.49 L700.99,1833.34 L701.132,1833.24 L701.268,1833.24 L702.057,1833.47 L704.187,1834.12 L704.354,1833.39 L704.445,1833.41 L705.028,1831.05 L705.956,1828.16 L706.477,1825.59 L707.001,1823.38 L707.406,1821.13 L707.722,1819.76 L708.314,1818.59 L709.558,1816.28 L709.592,1815.36 L709.762,1814.44 L710.895,1811.83 L711.213,1810.61 L711.848,1809.38 L712.211,1807.84 L712.29,1806.49 L712.454,1805.45 L712.938,1803.09 L713.935,1800.86 L714.764,1798.43 L715.228,1796.52 L715.331,1794.6 L715.658,1792.6 L715.799,1790.55 L716.185,1788.11 L716.452,1785.68 L717.165,1782.93 L718.101,1780.25 L719.7,1777.28 L721.024,1774.08 L721.547,1771.83 L721.703,1769.06 L722.275,1767.37 L722.928,1764.54 L724.161,1762.43 L725.188,1760.02 L725.306,1759.36 L725.435,1757.27 L725.74,1756.26 L726.54,1754.81 L727.211,1752 L727.567,1750.3 L727.725,1748.56 L727.695,1746.79 L727.873,1744.99 L728.1,1743.7 L728.475,1742.33 L729.225,1740.76 L730.281,1738.95 L731.831,1735.4 L732.829,1732.43 L732.997,1731.32 L733.343,1730.2 L734.443,1726.53 L735.071,1724.68 L735.509,1722.79 L735.44,1721.93 L735.199,1721.17 L735.362,1720.21 L735.792,1719.22 L736.325,1717.44 L736.66,1716.12 L736.72,1714.04 L736.875,1711.9 L737.006,1709.21 L737.051,1707.72 L736.984,1706.34 L736.864,1705.17 L736.721,1704.59 L736.355,1704.49 L734.979,1704.22 L734.432,1703.99 L734.245,1703.83 L734.238,1703.53 L734.511,1703.3 L734.941,1703.35 L735.158,1703.44 L735.405,1703.49 L735.741,1703.39 L736.332,1702.46 L737.492,1699.01 L738.345,1695.91 L738.604,1695.31 L739.482,1693.28 L740.494,1689.94 L741.685,1687.91 L741.991,1685.89 L741.234,1685.23 L740.972,1685.02 L740.594,1684.61 L740.37,1684.01 L740.216,1682.39 L740.243,1680.83 L740.771,1677.34 L740.753,1676.97 L740.685,1676.73 L740.504,1676.54 L738.759,1676.19 L739.558,1673.92 L739.834,1672.45 L740.278,1671.13 L740.335,1670.91 L740.649,1669.99 L741.119,1668.21 L741.393,1667.46 L741.778,1665.87 L742.064,1664.58 L742.508,1663.27 L744.095,1659.39 L744.577,1657.76 L744.625,1657.14 L744.943,1656.45 L745.308,1655.36 L745.358,1654.32 L744.688,1652.83 L744.656,1652.31 L747.359,1645 L747.44,1644.43 L747.204,1643.51 L747.37,1642.64 L747.909,1641.72 L748.867,1639.29 L750.095,1634.73 L750.57,1632.48 L750.416,1631.01 L750.269,1630.47 L750.265,1629.95 L750.52,1627.97 L750.703,1627.4 L751.339,1625.41 L752.035,1623.54 L752.524,1622.34 L752.928,1620.99 L753.023,1619.47 L753.308,1618.2 L753.323,1616.93 L753.324,1616.88 L753.281,1615.94 L753.057,1615.24 L752.47,1614.72 L751.982,1614.52 L751.933,1614.5 L752.612,1612.71 L753.132,1610.28 L753.408,1607.15 L754.28,1605.52 L755.307,1602.46 L755.477,1601.99 L756.478,1599.23 L756.864,1596.82 L756.864,1594.52 L756.787,1590.99 L757.14,1587.21 L757.15,1584.5 L756.861,1580.12 L756.47,1577.64 L756.503,1576.06 L756.46,1574.97 L756.323,1574.46 L755.977,1574.37 L745.712,1571.57 L742.202,1570.8 L739.252,1570.05 L737.422,1569.72 L736.465,1569.63 L735.58,1569.2 L735.563,1569.19 L735.43,1568.97 L735.427,1568.54 L735.833,1568 L736.071,1567.95 L755.408,1573.42 L755.666,1573.39 L755.923,1573.21 L756.235,1572.72 L756.745,1571.65 L757.334,1569.75 L758.127,1568.24 L758.493,1567.2 L758.567,1565.39 L758.446,1564.64 L758.27,1564.03 L757.98,1563.58 L757.4,1562.97 L757.299,1562.54 L757.331,1562.14 L757.627,1562.02 L765.278,1561.91 L765.032,1557.2 L749.952,1559.69 L747.963,1555.37 L744.856,1555.78 L741.423,1556.25 L740.554,1556.43 L739.659,1556.68 L738.815,1556.99 L727.392,1561.92 L726.276,1562.47 L725.628,1562.85 L725.264,1563.14 L725.165,1563.27 L720.069,1567.38 L719.706,1567.65 L719.455,1567.96 L719.289,1568.27 L719.02,1568.56 L718.768,1568.7 L718.498,1568.78 L718.162,1568.82 L717.935,1568.84 L717.762,1568.74 L717.675,1568.55 L717.629,1568.08 L717.76,1567.87 L718.28,1567.42 L724.989,1562.58 L726.847,1561.48 L735.275,1557.84 L735.842,1557.4 L736.008,1557.34 L736.204,1557.19 L736.312,1556.96 L736.522,1556.38 L736.589,1556.02 L736.606,1555.66 L736.605,1555.05 L736.83,1553.91 L737.261,1552.46 L737.804,1550.82 L738.386,1549.62 L738.885,1548.26 L739.258,1546.75 L739.438,1545.47 L739.63,1544.61 L739.972,1543.4 L740.385,1542.23 L740.682,1540.88 L741.021,1539.67 L741.42,1538.29 L741.861,1536.58 L742.267,1534.58 L742.564,1533.24 L743.026,1532.04 L743.875,1530 L744.474,1528.07 L744.995,1524.82 L745.686,1522.34 L746.786,1520.07 L748.056,1517.38 L748.916,1514.44 L749.343,1513.37 L749.853,1512.54 L750.25,1511.99 L750.593,1511.15 L750.66,1510.6 L750.726,1510.04 L751.182,1508.07 L751.657,1506.89 L752.515,1504.47 L753.172,1502.15 L753.66,1500.52 L753.91,1499.02 L754.468,1496.96 L755.18,1494.93 L756.339,1492.17 L757.088,1490.6 L757.857,1488.19 L758.469,1486.38 L758.968,1485.13 L759.348,1483.82 L759.469,1482.53 L759.706,1481.19 L760.283,1479.22 L760.885,1476.43 L761.256,1473.66 L761.516,1471.94 L762.295,1469.79 L763.151,1468 L763.874,1465.68 L764.518,1463.57 L765.241,1461.8 L765.788,1459.87 L766.342,1457.31 L766.954,1453.35 L767.479,1451.78 L768.426,1449.02 L769.185,1447.24 L769.767,1445.32 L770.286,1443.86 L770.855,1442.03 L771.252,1440.38 L771.784,1438.78 L772.031,1437.43 L772.17,1435.87 L772.533,1434.5 L772.819,1432.62 L773.216,1431.27 L773.331,1430.17 L773.654,1428.44 L774.083,1426.88 L774.448,1425.27 L775.508,1423.02 L776.238,1421.68 L776.929,1419.81 L777.466,1417.85 L777.919,1416.02 L778.1,1415.11 L778.146,1413.96 L778.224,1413.18 L778.42,1412.51 L778.928,1410.85 L779.234,1409.47 L779.51,1407.98 L779.684,1406.7 L779.849,1405.78 L780.487,1403.83 L781.262,1402.01 L781.981,1400.11 L782.559,1397.95 L783.532,1394.93 L783.903,1394.13 L784.521,1393.15 L784.906,1391.81 L785.2,1390.53 L785.693,1388.12 L785.928,1386.28 L786.132,1384.15 L786.044,1383.04 L785.59,1380.45 L785.622,1378.85 L786,1377.27 L786.8,1374.87 L787.775,1372.4 L788.767,1369.8 L789.646,1367.11 L790.229,1364.79 L791.12,1361.58 L792.009,1359.34 L792.797,1356.1 L793.486,1354.29 L793.903,1353.02 L794.563,1351.41 L795.071,1349.76 L795.475,1348.11 L795.969,1346.4 L796.339,1344.88 L797.223,1341.06 L797.929,1339.02 L798.51,1336.58 L799.08,1334.79 L799.873,1332.68 L800.412,1330.54 L801.114,1328.32 L801.824,1326.39 L802.108,1325.35 L802.703,1323.3 L803.362,1321.43 L803.764,1319.71 L804.702,1316.74 L806.022,1313.63 L806.782,1310.93 L807.147,1309.33 L808.058,1307 L808.492,1305.65 L808.773,1304.21 L809.513,1302.24 L810.048,1300.28 L810.645,1298.05 L811.347,1296.38 L812.557,1292.96 L813.116,1291.34 L813.546,1289.65 L814.308,1287.94 L814.816,1286.19 L815.304,1284.55 L815.959,1283.08 L816.592,1281.46 L817.222,1279.86 L817.694,1278.7 L818.04,1277.46 L818.762,1274.65 L819.063,1272.38 L819.268,1270.5 L819.342,1269.2 L819.617,1267.72 L819.782,1266.4 L820.064,1265.41 L820.416,1264.18 L820.738,1262.68 L821.191,1261.19 L821.77,1259.97 L822.11,1259.25 L822.663,1258.55 L823.268,1257.11 L823.853,1255.63 L824.583,1253.27 L824.726,1251.32 L824.681,1249.73 L824.864,1248.22 L825.168,1247.17 L825.938,1245.04 L826.509,1243.49 L827.139,1241.65 L827.743,1239.98 L828.13,1238.72 L828.474,1237.35 L828.936,1236.43 L829.086,1235.46 L829.429,1234.34 L829.999,1233.14 L830.379,1232.25 L830.516,1231.59 L830.599,1230.49 L830.684,1229.39 L830.92,1228.11 L831.354,1226.23 L832.121,1222.59 L832.386,1221.11 L833.375,1217.32 L834.203,1214.09 L834.332,1213.09 L834.619,1212.18 L835.388,1210.75 L836.358,1208.68 L837.108,1206.77 L837.578,1205.1 L837.632,1204.38 L837.416,1203.64 L837.046,1202.99 L836.676,1202.04 L836.484,1201.42 L836.348,1200.77 L836.299,1200.16 L836.248,1200.06 L836.271,1199.91 L836.343,1199.77 L836.69,1199.15 L837.461,1197.31 L838.083,1196.29 L838.483,1195.4 L839.093,1193.18 L839.399,1191.82 L839.785,1190.56 L841.753,1184.39 L842.72,1181.54 L843.797,1178.85 L844.074,1178 L844.247,1176.95 L844.563,1175.84 L844.66,1174.89 L844.677,1173.54 L844.826,1172.01 L845.142,1170.54 L845.605,1168.9 L846.334,1167.62 L847.037,1166.57 L847.488,1165.39 L848.647,1162.7 L849.063,1161.26 L849.328,1159.92 L849.408,1158.76 L849.372,1157.61 L849.46,1156.69 L849.802,1155.49 L850.437,1153.33 L850.814,1152.48 L851.364,1151.47 L851.772,1150.68 L852.006,1149.67 L852.188,1148.34 L852.254,1146.81 L852.313,1145.72 L852.449,1144.62 L852.755,1143.3 L853.335,1141.9 L855.051,1136.41 L855.464,1134.93 L855.778,1133.29 L855.994,1131.92 L856.305,1130.76 L857.118,1128.68 L857.849,1126.65 L859.148,1122.76 L859.358,1121.48 L859.492,1120.08 L859.814,1118.58 L860.448,1116.99 L860.856,1115.94 L861.167,1114.77 L861.397,1113.65 L861.506,1112.5 L861.704,1110.19 L861.976,1108.47 L862.526,1106.89 L863.161,1105.27 L863.985,1102.42 L865.017,1099.34 L865.323,1097.82 L865.843,1095.4 L866.098,1093.82 L866.098,1093.82 L866.072,1093.12 L865.942,1092.35 L866.118,1090.9 L866.722,1088.49 L867.362,1086.54 L868.189,1084.3 L868.475,1083.29 L868.469,1082.44 L868.391,1081.35 L868.456,1080.43 L868.69,1079.61 L869.856,1076.93 L870.489,1075.52 L871.013,1074.08 L871.217,1072.8 L871.373,1071.36 L871.803,1069.96 L872.665,1068.37 L873.307,1067.65 L873.815,1066.69 L874.269,1065.66 L874.551,1064.62 L874.759,1063.37 L874.632,1062.18 L874.264,1061.25 L874.069,1060.27 L874.102,1059.77 L874.277,1059.29 L874.766,1058.66 L875.266,1058.35 L875.625,1057.9 L875.905,1057.34 L876.589,1055.72 L877.018,1054.42 L877.293,1052.66 L877.742,1050.94 L878.628,1048.88 L879.492,1046.84 L880.413,1043.37 L880.699,1041.16 L880.881,1039.79 L881.469,1038.1 L881.923,1037.36 L882.868,1036.43 L883.427,1035.16 L883.893,1033.41 L884.242,1031.1 L884.242,1031.1 L884.242,1031.1 L884.059,1029.45 L883.779,1027.87 L883.844,1027.11 L884.083,1026.49 L885.029,1025.42 L885.718,1023.55 L886.206,1021.86 L886.778,1020.45 L887.081,1019.29 L887.485,1017.78 L888.112,1016.34 L888.383,1015.72 L888.534,1014.94 L888.663,1013.54 L888.559,1012.04 L888.59,1011.52 L888.65,1010.52 L889.219,1008.66 L889.848,1006.24 L890.678,1004.23 L893.319,999.749 L893.421,998.502 L893.41,997.255 L893.874,994.59 L894.645,991.677 L894.804,989.987 L895.178,986.824 L895.655,983.604 L897.242,978.354 L898.262,973.808 L898.988,970.859 L900.303,966.585 L900.983,963.683 L901.256,960.814 L902.639,956.267 L903.773,952.356 L904.786,948.456 L905.398,946.857 L905.951,944.972 L906.326,943.077 L907.076,940.827 L907.846,938.823 L908.466,936.699 L907.752,933.662 L907.579,932.581 L908.641,929.096 L908.973,927.657 L909.487,926.96 L909.608,926.307 L909.96,926.118 L910.149,925.628 L910.175,924.932 L911.017,922.921 L911.352,919.982 L911.936,918.35 L912.357,916.502 L913.242,911.922 L913.895,910.161 L914.694,908.374 L915.399,906.44 L915.657,903.622 L916.671,899.042 L917.642,895.081 L918.028,893.456 L918.467,892.107 L918.948,889.736 L920.038,887.526 L921.251,883.85 L921.827,882.08 L922.514,880.585 L922.746,879.132 L923.502,876.116 L923.94,874.81 L924.275,873.461 L924.86,872.207 L925.314,870.777 L925.547,868.22 L925.932,866.277 L926.356,864.18 L926.942,862.148 L927.499,859.063 L927.828,857.577 L928.225,856.126 L928.91,852.976 L929.36,851.226 L929.434,850.648 L929.236,850.222 L929.064,850.033 L928.978,849.991 L928.91,850.278 L928.845,850.626 L928.824,850.695 L928.742,850.729 L928.682,850.691 L928.646,850.625 L928.506,849.957 L928.597,849.405 L928.537,848.848 L928.409,848.04 L928.145,847.382 L928.034,846.448 L928.025,845.559 L928.051,845.024 L927.988,844.86 L927.875,844.735 L927.468,844.573 L924.869,844.022 L925.1,843.662 L926.102,843.864 L926.502,843.123 L926.869,842.465 L927.916,840.228 L928.754,838.597 L929.674,836.196 L930.185,834.693 L930.537,833.237 L930.605,832.16 L930.726,830.268 L930.65,830.248 L930.709,829.402 L930.564,829.163 L930.503,829.145 L930.504,829.05 L930.055,828.861 L928.342,828.282 L927.326,827.871 L927.268,827.791 L927.385,827.601 L927.538,827.552 L928.1,827.767 L928.229,827.577 L928.941,827.798 L929.306,827.91 L929.729,827.454 L930.205,826.803 L930.787,825.769 L932.437,821.834 L933.889,818.629 L934.602,816.833 L935.796,815.466 L936.553,814.461 L937.317,811.84 L938.881,806.642 L941.158,800.129 L941.923,796.545 L942.439,794.543 L943.169,792.704 L943.53,790.84 L943.779,788.949 L944.149,786.913 L944.415,784.859 L944.518,784.043 L944.681,783.235 L944.965,782.505 L945.352,781.774 L946.073,780.571 L946.563,779.351 L946.933,778.415 L947.242,778.071 L947.534,777.667 L947.457,777.117 L947.491,776.43 L947.835,776.052 L947.981,775.295 L948.582,773.474 L948.866,772.571 L949.107,771.626 L949.21,770.75 L949.278,769.83 L949.158,768.103 L949.072,765.946 L949.313,763.944 L949.88,762.114 L951.263,757.671 L951.848,754.982 L952.467,752.232 L952.569,751.158 L952.776,750.162 L954.099,745.805 L954.924,743.657 L955.672,741.56 L956.565,737.96 L957.046,736.593 L957.837,734.884 L957.656,733.423 L957.545,732.366 L957.304,731.3 L957.244,729.84 L957.282,728.361 L957.519,726.755 L957.865,725.174 L959.454,719.419 L959.957,717.08 L960.688,714.869 L961.616,711.306 L962.602,708.207 L962.948,707.457 L963.155,706.558 L963.372,705.621 L964.123,703.538 L964.211,702.028 L963.974,700.379 L963.905,698.504 L963.965,697.625 L964.172,696.707 L965.05,693.924 L965.751,691.466 L966.699,688.86 L966.817,687.419 L966.758,685.948 L966.827,683.274 L966.995,680.569 L967.242,679.256 L967.597,678.112 L968.09,676.443 L968.367,674.765 L969.068,673.087 L969.719,670.679 L970.163,669.149 L970.282,667.51 L970.844,665.991 L971.328,664.342 L972.094,662.166 L972.627,660.086 L973.21,657.789 L973.676,655.225 L973.904,653.655 L974.21,652.118 L974.666,650.106 L974.939,649.11 L975.122,648.081 L975.252,646.987 L975.246,645.834 L975.18,644.883 L975.018,643.913 L974.712,643.255 L974.2,642.755 L973.536,642.545 L972.731,642.409 L972.227,642.324 L969.545,641.922 L968.229,641.682 L968.091,641.612 L968.027,641.455 L968.136,641.363 L968.288,641.357 L970.951,641.708 L971.687,639.234 L972.599,636.355 L973.244,634.988 L973.621,633.601 L974.578,631.439 L975.093,629.707 L975.725,627.942 L976.513,624.679 L977.052,622.352 L977.496,620.596 L977.824,618.746 L977.892,617.891 L977.914,617.046 L977.841,616.173 L977.696,615.339 L977.556,614.801 L977.267,614.352 L976.654,614.018 L976.048,613.898 L975.426,613.809 L974.643,613.734 L971.61,613.577 L971.465,613.551 L971.4,613.443 L971.451,613.344 L971.593,613.296 L974.763,613.304 L975.451,613.227 L975.88,612.987 L976.19,612.591 L976.336,612.17 L976.319,611.706 L976.044,611.346 L975.614,611.113 L975.399,610.727 L975.184,610.237 L975.047,609.18 L974.995,608.124 L975.242,607.391 L975.548,606.606 L975.937,604.743 L976.438,603.022 L976.663,602.529 L976.858,602.267 L977.119,602.058 L977.366,601.938 L978.036,601.567 L978.347,601.241 L978.589,600.966 L978.759,600.663 L979.117,599.491 L979.175,599.087 L979.217,599.081 L979.266,599.074 L979.306,599.263 L979.332,599.204 L979.404,598.338 L979.362,598.102 L979.445,595.56 L979.765,592.479 L979.981,591.778 L979.903,591.014 L980.308,590.12 L980.22,590.077 L980.068,590.002 L980.193,589.58 L980.827,587.363 L981.37,584.221 L981.331,583.607 L981.228,583.134 L981.109,582.878 L980.914,582.674 L980.761,582.517 L980.602,582.429 L978.407,581.967 L976.264,581.609 L976.01,581.518 L975.932,581.42 L975.965,581.303 L976.063,581.257 L976.262,581.264 L978.441,581.438 L978.605,581.147 L978.958,581.037 L979.388,580.584 L979.683,580.005 L980.524,577.844 L981.066,576.825 L981.336,575.825 L981.497,573.382 L981.863,571.205 L981.933,571.107 L982.17,569.944 L982.104,569.769 L982.228,569.036 L982.63,567.66 L982.953,567.326 L983.167,566.798 L983.351,566.082 L983.53,564.991 L984.264,561.981 L984.437,560.294 L984.404,559.575 L984.74,558.489 L984.651,558.052 L984.607,557.834 L984.175,557.601 L984.078,557.462 L980.197,556.889 L980.001,556.739 L979.971,556.593 L979.986,556.557 L980.053,556.453 L980.229,556.414 L981.456,556.515 L981.467,556.491 L982.832,556.656 L983.046,556.443 L983.207,556.077 L983.707,553.685 L984.004,552.781 L984.71,551.199 L985.602,549.681 L985.92,548.878 L986.678,545.85 L988.365,542.064 L988.881,539.823 L989.148,539.281 L990.3,536.369 L990.468,534.634 L990.38,534.504 L990.605,534.012 L990.749,533.545 L990.643,533.355 L990.672,532.974 L991.156,531.479 L991.638,531.061 L992.595,529.539 L992.937,528.492 L993.286,527.855 L993.414,526.639 L993.821,525.375 L993.715,524.775 L993.811,523.725 L993.667,523.049 L993.758,522.777 L994.223,521.121 L994.395,520.793 L994.776,519.528 L995.365,518.199 L995.432,517.763 L996.484,514.668 L996.391,514.15 L996.552,513.1 L996.735,512.913 L996.787,512.579 L996.815,511.71 L996.974,511.118 L997.346,509.852 L997.483,508.998 L997.45,507.423 L997.454,507.406 L997.441,506.969 L997.654,506.644 L997.488,505.984 L996.666,505.841 L996.376,505.877 L995.901,505.65 L995.242,505.624 L995.218,505.618 L993.857,505.371 L993.741,505.353 L992.367,505.007 L992.052,505.071 L991.769,504.845 L991.592,504.938 L991.493,504.889 L991.421,504.602 L991.49,504.418 L991.748,504.526 L991.953,504.33 L992.056,504.441 L992.306,504.343 L992.932,504.576 L993.234,504.578 L993.383,504.667 L993.487,504.639 L993.733,504.706 L994.365,504.791 L995.124,505.084 L995.963,504.018 L996.802,502.35 L997.039,501.437 L997.611,499.231 L998.164,497.435 L998.974,495.729 L999.102,495.46 L999.585,493.733 L999.635,492.687 L999.487,492.223 L999.21,491.927 L999.072,491.887 L998.944,491.927 L998.885,492.197 L998.755,492.21 L998.677,492.145 L998.619,491.155 L998.592,490.621 L998.685,490.18 L998.814,489.888 L999.046,489.604 L999.179,489.385 L999.415,488.994 L999.997,486.483 L1000.04,486.287 L1000.27,485.102 L1000.39,483.898 L1000.45,482.695 L1000.33,481.57 L1000.18,481.063 L999.996,480.717 L997.338,480.215 L994.734,479.916 L994.48,479.721 L994.441,479.401 L994.584,479.193 L994.857,479.056 L996.466,479.401 L998.446,479.915 L998.619,479.798 L998.897,479.812 L999.062,479.702 L999.404,479.348 L999.451,479.199 L999.823,478.898 L1000.54,477.761 L1000.94,476.496 L1001.33,474.858 L1001.83,473.093 L1002.42,471.544 L1003.11,469.973 L1003.53,469.233 L1003.88,468.343 L1004.3,466.151 L1004.92,463.841 L1004.96,463.697 L1005.47,461.274 L1005.66,460.219 L1005.76,459.166 L1005.76,457.76 L1005.71,457.289 L1005.64,456.938 L1005.43,456.609 L1004.96,456.269 L1003.03,455.849 L1001.22,455.492 L1000.63,455.464 L999.943,455.351 L999.287,455.137 L998.947,455.074 L998.881,455.005 L998.932,454.704 L999.052,454.466 L999.278,454.381 L1000.03,454.614 L1001.14,454.976 L1001.72,455.112 L1002.93,455.396 L1004.19,452.498 L1004.64,451.159 L1004.84,450.721 L1005.22,449.329 L1005.79,447.444 L1006.67,444.53 L1006.95,442.72 L1006.91,442.241 L1006.99,441.366 L1007.17,440.559 L1007.5,438.995 L1007.65,437.424 L1007.65,434.933 L1007.47,433.632 L1007.23,433.31 L1006.81,433.101 L1006.13,433.033 L1006.05,432.777 L1006.02,432.653 L1005.92,432.36 L1005.77,430.888 L1005.63,429.355 L1005.48,428.591 L1005.26,427.873 L1004.88,427.103 L1004.39,426.385 L1003.76,425.544 L1003.1,424.791 L1002.08,425.175 L1001.55,425.429 L1000.57,426.008 L999.376,426.933 L999.103,427.063 L998.842,427.096 L997.761,426.816 L996.55,426.315 L996.42,426.119 L996.433,425.826 L996.556,425.67 L996.791,425.566 L997.722,425.787 L998.764,426.152 L998.953,426.152 L999.174,426.054 L1001.27,424.792 L1001.35,424.603 L1001.53,424.475 L1002.19,424.358 L1003.15,423.923 L1003.28,423.505 L1003.28,422.866 L1003.48,421.989 L1003.65,421.792 L1004.25,420.17 L1004.46,419.165 L1005.72,415.233 L1005.92,413.598 L1005.9,411.929 L1006.4,408.125 L1006.34,407.963 L1006.22,407.954 L1006.24,407.778 L1005.7,407.647 L1005.62,407.598 L1005.6,407.509 L1005.64,407.455 L1005.72,407.426 L1006.23,407.574 L1006.25,407.343 L1006.38,407.342 L1006.71,406.506 L1006.87,405.237 L1007.09,404.695 L1007.09,403.877 L1007.27,403.302 L1007.2,403.043 L1007.22,402.893 L1007.31,402.748 L1007.28,402.569 L1007.44,401.661 L1007.55,399.075 L1007.37,396.728 L1006.91,394.958 L1006.33,393.222 L1005.91,392.5 L1005.35,391.753 L1004.71,391.125 L1003.96,390.574 L1003.47,390.902 L1002.32,391.202 L1001.89,391.306 L1001.63,391.503 L1000.67,392.414 L999.726,393.394 L999.434,393.548 L999.134,393.42 L999.065,393.188 L999.073,392.913 L1000.12,391.839 L1000.76,391.194 L1001.16,390.842 L1001.52,390.618 L1002.03,390.515 L1002.81,390.481 L1002.59,390.276 L1003.5,390.054 L1003.88,389.856 L1005.26,388.62 L1005.51,388.671 L1005.74,388.57 L1006.01,385.78 L1006.7,383.5 L1006.94,382.156 L1007.46,377.715 L1007.97,375.845 L1008.1,375.002 L1008.02,373.273 L1008.24,371.315 L1008.65,369.542 L1010.38,369.357 L1024.99,370.417" fill-rule="evenodd" vector-effect="none"/>
  </g>
  <g fill="none" transform="matrix(0.999744,0,0,0.999744,0,0)" font-weight="400" stroke-opacity="1" stroke-linecap="square" stroke-linejoin="bevel" stroke-width="1" font-family="MS Shell Dlg 2" stroke="#000000" font-size="34.5833" font-style="normal"/>
  <g fill="none" transform="matrix(11.808,0,0,11.808,0,0)" font-weight="400" stroke-opacity="1" stroke-linecap="square" stroke-linejoin="bevel" stroke-width="1" font-family="MS Shell Dlg 2" stroke="#000000" font-size="34.5833" font-style="normal"/>
  <g fill="none" transform="matrix(11.808,0,0,11.808,0,0)" font-weight="400" stroke-opacity="1" stroke-linecap="square" stroke-linejoin="bevel" stroke-width="1" font-family="MS Shell Dlg 2" stroke="#000000" font-size="34.5833" font-style="normal"/>
  <g fill="none" transform="matrix(11.808,0,0,11.808,0,0)" font-weight="400" stroke-opacity="1" stroke-linecap="square" stroke-linejoin="bevel" stroke-width="1" font-family="MS Shell Dlg 2" stroke="#000000" font-size="34.5833" font-style="normal"/>
  <g fill="none" transform="matrix(1,0,0,1,0,0)" font-weight="400" stroke-opacity="1" stroke-linecap="square" stroke-linejoin="bevel" stroke-width="1" font-family="MS Shell Dlg 2" stroke="#000000" font-size="34.5833" font-style="normal"/>
  <g fill="none" transform="matrix(11.808,0,0,11.808,0,0)" font-weight="400" stroke-opacity="1" stroke-linecap="square" stroke-linejoin="bevel" stroke-width="1" font-family="MS Shell Dlg 2" stroke="#000000" font-size="34.5833" font-style="normal"/>
  <g fill="none" transform="matrix(11.808,0,0,11.808,0,0)" font-weight="400" stroke-opacity="1" stroke-linecap="square" stroke-linejoin="bevel" stroke-width="1" font-family="MS Shell Dlg 2" stroke="#000000" font-size="34.5833" font-style="normal"/>
  <g fill="none" transform="matrix(11.808,0,0,11.808,0,0)" font-weight="400" stroke-opacity="1" stroke-linecap="square" stroke-linejoin="bevel" stroke-width="1" font-family="MS Shell Dlg 2" stroke="#000000" font-size="34.5833" font-style="normal"/>
  <g fill="none" transform="matrix(11.808,0,0,11.808,0,0)" font-weight="400" stroke-opacity="1" stroke-linecap="square" stroke-linejoin="bevel" stroke-width="1" font-family="MS Shell Dlg 2" stroke="#000000" font-size="34.5833" font-style="normal"/>
  <g fill="none" transform="matrix(1,0,0,1,0,0)" font-weight="400" stroke-opacity="1" stroke-linecap="square" stroke-linejoin="bevel" stroke-width="1" font-family="MS Shell Dlg 2" stroke="#000000" font-size="34.5833" font-style="normal"/>
 </g>
</svg>
