<?xml version='1.0' encoding='UTF-8' standalone='no'?>
<svg xmlns="http://www.w3.org/2000/svg" height="249.936mm" viewBox="0 0 2952 2952" xmlns:xlink="http://www.w3.org/1999/xlink" width="249.936mm" baseProfile="tiny" version="1.2">
 <title>Qt SVG Document</title>
 <desc>Generated with Qt</desc>
 <defs/>
 <g stroke-linecap="square" stroke="black" fill-rule="evenodd" stroke-linejoin="bevel" stroke-width="1" fill="none">
  <g stroke-linecap="square" font-size="34.5833" transform="matrix(1,0,0,1,0,0)" stroke="#000000" stroke-linejoin="bevel" font-weight="400" font-family="MS Shell Dlg 2" stroke-width="1" font-style="normal" fill="none" stroke-opacity="1"/>
  <g stroke-linecap="square" font-size="34.5833" transform="matrix(1,0,0,1,0,0)" stroke="#000000" stroke-linejoin="bevel" font-weight="400" font-family="MS Shell Dlg 2" stroke-width="1" font-style="normal" fill="none" stroke-opacity="1"/>
  <g stroke-linecap="square" font-size="34.5833" transform="matrix(11.808,0,0,11.808,0,0)" stroke="#000000" stroke-linejoin="bevel" font-weight="400" font-family="MS Shell Dlg 2" stroke-width="1" font-style="normal" fill="none" stroke-opacity="1"/>
  <g stroke-linecap="square" font-size="34.5833" transform="matrix(0.999744,0,0,0.999744,0,0)" stroke="#000000" stroke-linejoin="bevel" font-weight="400" font-family="MS Shell Dlg 2" stroke-width="1" font-style="normal" fill="none" stroke-opacity="1"/>
  <g font-size="34.5833" transform="matrix(0.999744,0,0,0.999744,0,0)" stroke="none" font-weight="400" font-family="MS Shell Dlg 2" font-style="normal" fill="#ffffff" fill-opacity="0">
   <path d="M-2,-2 L2955,-2 L2955,2955 L-2,2955 L-2,-2" vector-effect="none" fill-rule="evenodd"/>
  </g>
  <g stroke-linecap="square" font-size="34.5833" transform="matrix(0.999744,0,0,0.999744,0,0)" stroke="#000000" stroke-linejoin="bevel" font-weight="400" font-family="MS Shell Dlg 2" stroke-width="1" font-style="normal" fill="none" stroke-opacity="1"/>
  <g stroke-linecap="square" font-size="34.5833" transform="matrix(11.808,0,0,11.808,0,0)" stroke="#000000" stroke-linejoin="bevel" font-weight="400" font-family="MS Shell Dlg 2" stroke-width="1" font-style="normal" fill="none" stroke-opacity="1"/>
  <g stroke-linecap="square" font-size="34.5833" transform="matrix(11.808,0,0,11.808,0,0)" stroke="#000000" stroke-linejoin="bevel" font-weight="400" font-family="MS Shell Dlg 2" stroke-width="1" font-style="normal" fill="none" stroke-opacity="1"/>
  <g stroke-linecap="square" font-size="34.5833" transform="matrix(11.808,0,0,11.808,0,0)" stroke="#000000" stroke-linejoin="bevel" font-weight="400" font-family="MS Shell Dlg 2" stroke-width="1" font-style="normal" fill="none" stroke-opacity="1"/>
  <g stroke-linecap="square" font-size="34.5833" transform="matrix(11.808,0,0,11.808,0,0)" stroke="#000000" stroke-linejoin="bevel" font-weight="400" font-family="MS Shell Dlg 2" stroke-width="1" font-style="normal" fill="none" stroke-opacity="1"/>
  <g stroke-linecap="square" font-size="34.5833" transform="matrix(11.808,0,0,11.808,0,0)" stroke="#000000" stroke-linejoin="bevel" font-weight="400" font-family="MS Shell Dlg 2" stroke-width="1" font-style="normal" fill="none" stroke-opacity="1"/>
  <g font-size="34.5833" transform="matrix(11.808,0,0,11.808,0,0)" stroke="none" font-weight="400" font-family="MS Shell Dlg 2" font-style="normal" fill="#ffffff" fill-opacity="0">
   <path d="M0,0 L250,0 L250,250 L0,250 L0,0" vector-effect="none" fill-rule="evenodd"/>
  </g>
  <g stroke-linecap="square" font-size="34.5833" transform="matrix(11.808,0,0,11.808,0,0)" stroke="#000000" stroke-linejoin="bevel" font-weight="400" font-family="MS Shell Dlg 2" stroke-width="1" font-style="normal" fill="none" stroke-opacity="1"/>
  <g stroke-linecap="square" font-size="34.5833" transform="matrix(11.808,0,0,11.808,0,0)" stroke="#000000" stroke-linejoin="bevel" font-weight="400" font-family="MS Shell Dlg 2" stroke-width="1" font-style="normal" fill="none" stroke-opacity="1"/>
  <g font-size="34.5833" transform="matrix(0.999744,0,0,0.999744,0,0)" stroke="none" font-weight="400" font-family="MS Shell Dlg 2" font-style="normal" fill="#000000" fill-opacity="0">
   <rect x="0" height="2953" y="0" width="2953"/>
  </g>
  <g stroke-linecap="square" font-size="34.5833" transform="matrix(0.999744,0,0,0.999744,0,0)" stroke="#000000" stroke-linejoin="bevel" font-weight="400" font-family="MS Shell Dlg 2" stroke-width="1" font-style="normal" fill="none" stroke-opacity="1"/>
  <g stroke-linecap="square" font-size="34.5833" transform="matrix(0.999744,0,0,0.999744,0,0)" stroke="#5c5c5c" stroke-linejoin="bevel" font-weight="400" font-family="MS Shell Dlg 2" stroke-width="3.07087" font-style="normal" fill="#c5c5c5" stroke-opacity="1" fill-opacity="1">
   <path d="M1050.48,1955.45 L1049.83,1955.09 L1049.16,1954.98 L1048.61,1954.76 L1048.37,1954.69 L1047.85,1954.82 L1047.64,1954.75 L1046.93,1954.4 L1046.52,1954.37 L1046.02,1954.01 L1045.84,1953.97 L1044.77,1953.98 L1044.37,1953.89 L1043.67,1953.86 L1042.7,1953.59 L1042.3,1953.6 L1041.89,1953.85 L1041.71,1953.86 L1041.58,1953.82 L1041.24,1953.53 L1041.05,1953.45 L1040.81,1953.51 L1040.62,1953.48 L1040.17,1953.38 L1039.68,1953.12 L1039.53,1953.1 L1038.67,1953.28 L1038.49,1953.28 L1038.35,1953.23 L1038.06,1952.99 L1037.97,1952.92 L1037.7,1952.94 L1037.54,1952.88 L1036.85,1952.28 L1036.7,1952.24 L1036.35,1952.16 L1035.89,1952.18 L1035.56,1952.1 L1035.04,1951.91 L1034.67,1951.85 L1034.43,1951.85 L1034.04,1951.93 L1033.38,1952.22 L1032.92,1952.36 L1032.23,1952.49 L1031.76,1952.52 L1031.02,1952.48 L1030.12,1952.34 L1029.32,1952.03 L1029.02,1951.98 L1027.83,1952.11 L1027.14,1952.04 L1026.51,1951.87 L1026.14,1951.81 L1025.54,1951.78 L1024.82,1951.64 L1023.18,1951.54 L1022.35,1951.38 L1021.4,1951.26 L1020.71,1951.12 L1020.1,1950.96 L1019.43,1950.69 L1018.17,1950.01 L1018.03,1950.55 L1017.68,1951.53 L1017,1953.39 L1016.76,1954.25 L1016.67,1955.05 L1016.71,1955.77 L1016.78,1956.29 L1016.92,1956.86 L1016.94,1957.35 L1016.87,1958.04 L1016.77,1958.57 L1016.56,1960.14 L1016.64,1960.55 L1016.89,1960.98 L1017.17,1961.38 L1017.5,1961.75 L1017.77,1962.21 L1017.87,1962.6 L1017.9,1963.14 L1017.89,1963.78 L1017.91,1964.66 L1017.91,1965.3 L1017.94,1965.82 L1018.03,1966.32 L1018.19,1966.82 L1018.21,1967.18 L1018.18,1967.4 L1018.01,1967.61 L1017.85,1967.75 L1017.32,1968.39 L1016.99,1969.02 L1016.85,1969.46 L1016.87,1970.31 L1016.69,1970.63 L1016.18,1971.26 L1015.64,1971.64 L1015.14,1972.05 L1014.45,1972.72 L1014.17,1973.05 L1013.93,1973.39 L1013.59,1974 L1013.33,1974.58 L1013.15,1975.13 L1013.08,1975.55 L1013.06,1975.86 L1013.13,1976.49 L1013.1,1977.09 L1012.93,1978.02 L1013.01,1978.47 L1012.99,1978.65 L1012.73,1979.04 L1012.66,1979.35 L1012.82,1979.72 L1012.84,1979.82 L1012.81,1979.89 L1012.28,1980.26 L1012.13,1980.41 L1012.08,1980.48 L1012.07,1980.59 L1012.02,1980.96 L1011.98,1981.07 L1011.9,1981.13 L1011.76,1981.17 L1011.56,1981.2 L1011.48,1981.26 L1011.4,1981.73 L1011.41,1982 L1011.46,1982.09 L1011.53,1982.19 L1011.62,1982.21 L1011.97,1982.22 L1012.07,1982.29 L1012.13,1982.4 L1012.15,1982.51 L1012.14,1982.69 L1011.96,1982.98 L1011.94,1983.1 L1012.04,1983.45 L1011.99,1983.53 L1011.84,1983.67 L1011.76,1983.81 L1011.74,1983.95 L1011.64,1984.13 L1011.31,1984.28 L1011.31,1984.49 L1011.54,1984.73 L1011.5,1984.84 L1011.22,1985.05 L1011.21,1985.12 L1011.26,1985.41 L1011.19,1985.53 L1002.09,1986.43 L1000.47,1986.61 L994.618,1986.79 L973.891,1987.16 L973.26,1985.78 L968.725,1985.7 L967.887,1996.67 L968.017,1999.58 L957.947,1997.84 L956.92,1998.27 L956,1998.95 L954.112,1998.76 L935.735,1997.86 L932.676,1997.71 L931.18,1997.41 L930.87,1997.03 L930.701,1996.39 L929.694,1997.41 L929.199,1997.43 L929.082,1996.89 L928.841,1995.55 L928.019,1994.63 L925.156,1993.43 L921.458,1992.46 L918.23,1990.73 L911.455,1986.57 L908.086,1985.09 L906.772,1983.85 L905.984,1983.11 L903.956,1982.69 L901.757,1982.82 L899.499,1983.37 L898.755,1983.87 L897.484,1984.17 L892.598,1983.06 L888.266,1981.76 L884.934,1981.26 L883.295,1980.35 L880.663,1979.32 L878.728,1978.51 L876.525,1977.87 L875.38,1977.61 L873.173,1976.91 L871.901,1975.93 L871.228,1975.83 L870.27,1976.09 L869.82,1975.47 L867.061,1973.42 L864.001,1970.99 L860.465,1968.87 L859.038,1967.13 L848.828,1967.21 L824.507,1967.15 L816.679,1966.94 L810.195,1966.25 L802.161,1966.63 L802.37,1963.42 L799.327,1963.43 L786.3,1963.3 L778.673,1963.29 L768.288,1963.3 L759.156,1963.2 L749.087,1963.55 L747.667,1962.17 L747.182,1961.54 L745.03,1961.18 L744.215,1959.17 L743.807,1957.39 L743.35,1955.35 L743.593,1954.06 L743.755,1953.68 L744.003,1952.35 L743.246,1951.26 L741.775,1949.66 L740.234,1947.57 L738.393,1947.68 L736.28,1947.37 L734.696,1946.69 L733.904,1945.38 L732.964,1944.5 L730.359,1942.42 L729.423,1942.26 L728.164,1941.88 L727.164,1941.7 L725.468,1941.19 L724.511,1939.38 L723.617,1938.6 L722.934,1938.13 L721.86,1937.21 L721.674,1936.87 L721.42,1936.7 L720.765,1936.29 L719.709,1935.23 L718.884,1934.61 L717.52,1933.98 L713.673,1932.29 L712.052,1932.38 L710.187,1932.72 L708.883,1932.36 L707.851,1931.3 L706.207,1930.48 L704.501,1929.96 L703.838,1929.58 L703.168,1928.99 L702.743,1928.54 L702.203,1928.13 L701.891,1927.75 L700.765,1926.87 L699.881,1926.54 L698.164,1925.98 L696.456,1925.47 L694.828,1925.32 L694.35,1925.15 L693.759,1924.85 L693.34,1924.44 L692.546,1923.76 L690.629,1922.55 L689.535,1921.56 L688.766,1920.58 L687.947,1919.33 L686.841,1918.05 L685.877,1916.38 L685.38,1914.97 L685.658,1913.1 L685.88,1912.66 L687.308,1908.69 L687.943,1905.54 L687.565,1903.5 L688.076,1901.28 L688.715,1899.21 L689.221,1896.91 L688.966,1894.21 L688.29,1890.8 L687.65,1890.04 L686.588,1888.6 L686.537,1887.1 L687.144,1886.36 L687.535,1885.98 L687.966,1885.1 L687.512,1884.22 L686.766,1883.38 L686.558,1882.76 L687.444,1880.45 L688.193,1877.8 L688.284,1876.48 L687.898,1875.75 L687.081,1875.03 L686.923,1873.6 L687.83,1872.49 L688.034,1870.24 L689.509,1867.82 L690.622,1865.92 L690.633,1865.46 L688.783,1863.78 L687.807,1862.39 L687.303,1859.33 L686.055,1854.92 L687.067,1853.06 L688.35,1852.26 L689.246,1851.13 L691.718,1849.58 L692.911,1848.81 L693.177,1847.96 L692.941,1847.09 L692.31,1846.4 L690.545,1846.69 L686.295,1846.44 L682.518,1846.29 L675.922,1845.69 L671.672,1845.56 L667.353,1845.35 L667.323,1846.39 L663.813,1846.23 L653.844,1845.74 L654.081,1853.84 L646.035,1854.74 L642.682,1854.66 L637.634,1855.97 L628.405,1857.35 L626.275,1855.97 L622.291,1855.81 L620.082,1857.03 L618.663,1856.36 L617.696,1857.01 L616.769,1859.48 L615.389,1860.92 L614.068,1861.78 L612.727,1862.47 L611.918,1863.44 L611.928,1863.8 L612.529,1864.58 L612.589,1865.05 L612.342,1865.46 L611.228,1866.63 L610.883,1867.22 L610.819,1867.73 L608.556,1867.69 L605.272,1868 L599.637,1867.32 L597.586,1867.08 L597.305,1867.1 L596.911,1867.07 L596.191,1866.93 L594.855,1866.98 L594.367,1867.16 L593.657,1867.48 L592.853,1867.53 L589.91,1867.36 L587.726,1867.47 L586.51,1867.42 L585.443,1867.31 L584.073,1867.1 L582.531,1866.84 L580.646,1866.54 L579.601,1866.07 L579.621,1865.57 L579.577,1864.38 L579.552,1863.48 L579.523,1862.49 L579.478,1861.1 L579.447,1860.1 L579.413,1858.87 L579.38,1857.85 L574.678,1856.74 L571.181,1855.91 L568.21,1854.78 L566.074,1854.09 L563.093,1853.28 L560.115,1852.67 L557.859,1844.44 L554.247,1845.45 L529.592,1852.02 L522.185,1823.77 L494.033,1831.25 L491.19,1820.44 L488.43,1809.95 L482.651,1789.11 L483.512,1788.95 L482.548,1785.22 L479.57,1776.18 L472.184,1748.18 L457.992,1751.61 L460.422,1760.84 L439.166,1766.45 L438.018,1761.52 L435.372,1751.64 L433.906,1745.81 L430.044,1731.46 L428.472,1725.76 L428.27,1724.3 L427.415,1723.55 L426.12,1723.55 L423.017,1721.76 L422.591,1721.71 L421.893,1722.23 L420.94,1722.23 L419.914,1721.52 L419.116,1721.48 L418.178,1721.87 L417.142,1721.78 L416.388,1719.37 L411.866,1716.42 L412.221,1715.37 L409.778,1711.8 L399.892,1674.66 L407.063,1672.72 L452.634,1659.98 L455.625,1659.35 L456.018,1655.75 L456.495,1655.21 L461.479,1654.08 L462.265,1653.7 L470.184,1651.67 L476.22,1650 L473.735,1639.55 L480.78,1637.72 L479.369,1632.08 L487.719,1635.69 L487.277,1633.89 L488.15,1634.32 L490.681,1626.75 L490.706,1626.68 L491.926,1623.06 L492.953,1623.67 L493.257,1623.54 L493.983,1624.14 L494.425,1624.23 L494.706,1624.39 L494.994,1625.04 L495.148,1625.25 L495.807,1625.18 L496.23,1625.55 L496.392,1626.6 L496.645,1626.92 L497.261,1627.04 L497.509,1626.75 L495.78,1620.31 L491.602,1604.57 L508.423,1600.54 L504.79,1585.19 L503.306,1579.23 L506.702,1578.08 L505.146,1572.08 L509.197,1570.52 L508.755,1568.13 L511.006,1562.35 L511.843,1561.57 L512.919,1561.23 L514.638,1561.89 L515.207,1562.05 L516.391,1561.57 L517.661,1558.72 L518.608,1556.17 L520.853,1548.04 L522.591,1547.06 L522.443,1538.33 L522.812,1513.11 L529.809,1513.22 L531.238,1447.85 L486.49,1447.17 L467.336,1446.84 L458.623,1446.69 L416.904,1446.2 L416.371,1445.23 L415.35,1444.52 L414.95,1444.08 L414.976,1443.56 L414.73,1442.94 L414.007,1442.37 L413.27,1442.45 L412.702,1441.57 L411.72,1440.73 L410.983,1440.56 L410.57,1439.52 L410.128,1438.81 L410.122,1437.59 L409.902,1436.69 L409.889,1435.72 L409.967,1434.83 L409.166,1434 L409.243,1433.27 L408.894,1432.36 L408.558,1432.24 L408.016,1431.39 L408.145,1430.73 L407.564,1430.36 L407.986,1429.92 L407.578,1429.53 L406.883,1429.33 L406.867,1428.7 L406.625,1427.9 L406.813,1426.43 L406.173,1425.49 L406.076,1425.17 L405.511,1424.6 L405.139,1423.92 L404.428,1423.73 L403.799,1423.41 L403.374,1422.51 L402.197,1422.01 L401.148,1420.75 L401.018,1420.27 L400.179,1419.33 L400.421,1418.52 L400.114,1418.14 L399.888,1416.62 L398.944,1416.67 L398.605,1415.98 L398.314,1415.91 L398.379,1415.35 L398.04,1414.93 L397.523,1415.02 L397.265,1414.8 L397.216,1413.51 L396.635,1412.78 L396.199,1411.94 L396.893,1411.6 L396.053,1410.45 L396.184,1409.74 L395.696,1409.39 L395.011,1408.49 L394.753,1407.46 L394.223,1406.53 L394.262,1406.21 L393.848,1405.19 L394.418,1404.41 L393.98,1403.82 L394.029,1403.22 L394.17,1403 L394.038,1402.77 L393.649,1402.55 L393.467,1402.32 L393.5,1401.59 L394.004,1401.16 L393.608,1400.66 L393.781,1400.28 L393.77,1399.8 L392.905,1399.49 L392.45,1399.21 L392.384,1398.96 L393.045,1398.55 L393.037,1398.15 L392.185,1397.71 L391.879,1397.28 L391.334,1397.21 L391.226,1395.73 L390.309,1395.19 L390.317,1394.9 L390.664,1394.45 L390.648,1394.09 L390.25,1394.05 L390.051,1393.79 L390.083,1393.32 L389.534,1393.29 L389.566,1392.9 L390.067,1392.33 L389.944,1391.9 L390.274,1391.35 L389.935,1390.93 L389.999,1390.56 L390.597,1389.96 L391.162,1389.76 L391.259,1389.15 L390.597,1388.29 L390.015,1388.13 L389.595,1388.88 L389.321,1388.8 L389.111,1388.25 L389.072,1387.06 L388.206,1385.32 L388.636,1385.05 L387.883,1384.06 L387.245,1383.9 L386.811,1383.31 L386.431,1383.29 L386.113,1383.11 L385.703,1382 L384.948,1381.86 L384.615,1381.42 L384.395,1381.33 L384.234,1381.28 L384.302,1380.97 L384.201,1380.86 L383.977,1380.84 L383.69,1381.05 L383.453,1380.93 L383.389,1380.79 L383.363,1379.99 L383.244,1379.84 L383.009,1379.77 L382.43,1379.98 L382.268,1379.88 L382.276,1379.67 L382.387,1379.1 L382.321,1378.65 L382.004,1378.45 L381.505,1378.36 L381.415,1378.26 L381.356,1377.76 L381.371,1377.41 L381.455,1377.23 L381.421,1377.11 L381.339,1377.05 L380.874,1376.94 L380.694,1376.86 L380.614,1376.75 L380.433,1375.79 L379.672,1375.2 L378.968,1374.36 L378.379,1373.29 L378.242,1373.3 L378.087,1373.41 L377.636,1373.4 L377.345,1373.18 L377.125,1372.47 L376.682,1372.27 L376.163,1372.32 L375.232,1372.61 L374.731,1372.45 L374.518,1372.04 L374.367,1371.6 L374.238,1371.33 L374.069,1371.25 L373.726,1371.41 L373.535,1371.35 L373.134,1371.19 L372.847,1371.02 L372.703,1370.75 L372.373,1370.04 L372.28,1369.88 L372.099,1369.81 L371.453,1369.94 L371.128,1369.84 L370.96,1369.55 L370.747,1369.45 L370.349,1369.28 L370.193,1368.79 L370.003,1368.55 L369.697,1368.48 L369.395,1368.57 L369.17,1368.74 L369.002,1368.67 L369.002,1368.54 L369.057,1368.35 L369.072,1368.18 L368.879,1368.05 L368.484,1367.98 L368.297,1367.74 L368.085,1367.25 L367.703,1366.94 L367.333,1366.84 L367.026,1366.75 L366.222,1366.09 L365.717,1365.92 L365.596,1365.8 L365.346,1365.75 L364.973,1365.83 L364.934,1365.34 L364.666,1365.17 L364.269,1365.15 L363.442,1365.59 L362.964,1365.44 L362.174,1365.2 L361.788,1364.83 L361.452,1364.89 L361.465,1364.12 L361.08,1364.12 L360.665,1364.28 L360.345,1364.51 L359.982,1364.77 L359.742,1365 L359.541,1365.03 L359.472,1364.87 L359.392,1364.54 L359.259,1364.15 L358.962,1363.96 L358.512,1364 L358.179,1363.82 L358.032,1363.48 L357.619,1363.01 L357.95,1361.95 L357.777,1359.19 L355.755,1357.25 L356.513,1312.62 L356.56,1304.21 L356.387,1291.29 L364.548,1291.42 L364.667,1283.3 L356.766,1283.21 L357.038,1253.01 L351.269,1253.45 L330.255,1253.37 L329.837,1253.24 L324.35,1253.34 L323.469,1251.59 L322.94,1250.73 L322.484,1249.33 L322.482,1248.63 L322.468,1248.49 L322.472,1247.89 L322.715,1247.17 L322.798,1246.35 L322.685,1245.71 L322.372,1245.23 L321.72,1244.64 L321.536,1244.4 L320.896,1243.28 L320.889,1243.12 L320.881,1242.94 L320.86,1242.43 L320.896,1241.3 L320.75,1240.94 L320.725,1240.88 L320.425,1240.14 L320.316,1239.21 L320.682,1238.23 L320.795,1238.04 L320.705,1237.1 L319.58,1235.94 L319.459,1234.95 L319.833,1233.33 L319.741,1232.07 L319.096,1230.49 L318.359,1229.14 L318.332,1229.04 L318.07,1228.79 L316.995,1227.08 L316.662,1226.19 L316.712,1225.56 L316.686,1225.43 L316.596,1225.28 L316.367,1224.62 L315.88,1223.92 L315.244,1223.32 L314.724,1222.41 L314.434,1221.47 L314.156,1220.08 L306.118,1224.92 L305.955,1230.91 L302.308,1230.85 L302.571,1246.47 L287.598,1246.32 L287.526,1252.83 L231.96,1252.33 L187.518,1251.9 L173.561,1251.78 L173.137,1251.49 L174.09,1249.84 L174.284,1249.31 L174.027,1248.29 L170.5,1243.9 L168.534,1240.28 L168.758,1238.26 L169.782,1236.67 L171.18,1234.36 L172.993,1232.55 L172.993,1230.96 L174.089,1229.53 L174.316,1227.87 L174.845,1226.77 L175.128,1226.84 L172.88,1224.54 L171.78,1224.51 L170.764,1224.05 L169.933,1224.16 L168.611,1225.07 L167.062,1225.03 L165.316,1226.54 L164.304,1225.03 L163.171,1224.62 L162.755,1223.86 L162.755,1222.61 L162.872,1220.75 L162.413,1220.44 L163.386,1220.15 L164.528,1219.18 L165.437,1218.97 L166.486,1219.92 L167.081,1219.67 L168.625,1217.8 L168.435,1215.84 L168.679,1213.78 L168.264,1211.64 L169.927,1210.61 L172.132,1209.57 L172.848,1208.41 L172.655,1207.55 L171.784,1206.65 L170.914,1207.01 L169.54,1207.42 L168.496,1207.61 L167.838,1207.07 L166.011,1207.01 L164.971,1206.26 L164.401,1205.38 L164.469,1203.53 L166.175,1201.27 L167.081,1199.87 L167.028,1197.86 L166.015,1196.96 L165.482,1195.71 L166.263,1194.79 L166.246,1194.18 L166.69,1193.65 L166.672,1193.06 L168.378,1190.67 L170.83,1189.81 L170.244,1187.72 L168.893,1186.51 L167.738,1184.78 L167.88,1182.88 L167.365,1181.98 L165.517,1182.56 L164.433,1182.65 L163.598,1182.23 L163.083,1181.11 L161.892,1175.83 L161.519,1175.12 L160.862,1174.73 L157.93,1174.66 L156.335,1175.83 L154.304,1175.98 L154.152,1174.25 L156.356,1172.46 L160.187,1170.6 L157.237,1167.8 L152.605,1172.07 L150.525,1173.1 L149.23,1172.4 L148.863,1171.56 L151.281,1168.02 L154.127,1165.83 L154.437,1162.71 L151.795,1160.62 L149.429,1158.25 L149.467,1156.96 L152.49,1155.96 L153.841,1154.7 L153.165,1151.97 L156.805,1149.57 L155.546,1146.87 L152.923,1143.93 L151.579,1138.1 L148.405,1139.16 L146.554,1137.76 L147.99,1134.97 L151.719,1134.97 L153.336,1134.4 L153.435,1131.4 L152.378,1128.19 L156.804,1130.01 L156.782,1126.02 L155.417,1124.74 L150.123,1126.65 L147.451,1126.68 L147.693,1124.81 L149.411,1122.06 L149.314,1116.61 L149.93,1113.71 L149.318,1113.3 L146.594,1111.48 L143.875,1112.14 L140.565,1115.8 L137.606,1114.11 L139.76,1109.94 L138.601,1106.51 L141.997,1106.3 L140.582,1102.15 L137.288,1098.44 L137.327,1096.11 L138.056,1095.96 L138.177,1098.12 L139.29,1097.75 L140.087,1097.66 L140.644,1096.62 L140.393,1095.04 L140.716,1093.5 L141.412,1090.97 L141.296,1089.44 L140.136,1087.82 L138.906,1086.87 L136.993,1086.66 L136.775,1085.95 L136.122,1085.45 L133.824,1084.83 L130.462,1084.69 L128.596,1082.47 L127.931,1082.17 L126.178,1081.26 L124.364,1081.32 L124.334,1080.17 L123.669,1079.27 L122.349,1078.71 L120.375,1078.54 L118.273,1078.38 L117.685,1076.06 L115.841,1074.64 L115.388,1073.74 L114.662,1073.16 L114.541,1072.5 L113.453,1071.89 L113.091,1071.26 L112.899,1069.89 L111.489,1069.41 L110.733,1069.02 L109.706,1069.2 L107.767,1069.1 L107.994,1050.91 L108.092,1036.38 L108.111,1033.28 L108.164,1011.5 L101.25,1011.59 L98.8889,1011.74 L97.0943,1011.41 L93.8831,1012.26 L89.4911,1012.49 L84.4948,1013.24 L80.2298,1011.69 L78.1519,1011.69 L73.6183,1010.94 L71.8578,1011.58 L70.2654,1011.13 L68.3034,1011.54 L66.1515,1011.27 L64.2848,1011.44 L63.5103,1011.45 L63.6912,981.317 L63.8048,967.13 L64.6246,864.729 L101.48,864.959 L116.859,865.053 L131.239,865.14 L131.484,855.012 L132.188,853.923 L133.801,853.724 L135.513,852.509 L137.199,851.839 L138.092,851.144 L138.365,850.003 L140.524,848.664 L141.692,848.726 L141.913,848.738 L143.178,848.936 L144.939,849.929 L145.744,850.143 L146.936,849.27 L148.077,849.295 L149.342,850.094 L152.146,851.751 L153.014,851.801 L153.833,851.28 L154.626,849.494 L155.724,849.019 L157.122,849.121 L158.025,849.965 L158.174,850.809 L157.951,852.545 L158.321,853.713 L161.374,854.033 L162.614,854.629 L163.507,855.547 L164.549,857.134 L165.015,857.498 L166.137,858.375 L167.526,858.871 L169.457,859.273 L171.52,861.203 L171.843,862.17 L171.678,863.04 L170.14,864.553 L169.491,865.583 L170.487,865.67 L183.47,865.638 L183.4,880.662 L189.299,880.641 L223.64,880.919 L227.903,880.834 L249.456,881.129 L250.693,810.475 L292.918,810.955 L295.93,811.067 L302.093,811.104 L308.715,811.838 L308.795,809.199 L309.705,781.562 L303.133,781.6 L302.993,774.05 L301.927,774.064 L301.739,772.118 L302.421,771.56 L303.041,770.351 L303.041,768.924 L302.7,767.25 L301.207,764.924 L301.261,764.141 L301.733,762.677 L301.385,761.982 L299.525,760.668 L295.754,758.46 L293.348,757.988 L291.934,758.385 L291.122,758.085 L290.427,755.792 L288.641,753.634 L287.797,750.905 L287.946,750.012 L288.79,749.168 L291.27,748.3 L291.776,747.719 L291.767,746.812 L291.097,745.546 L291.022,744.951 L291.419,744.405 L292.734,743.661 L293.305,742.966 L293.62,742.306 L293.246,741.309 L291.857,739.97 L291.063,739.201 L290.79,738.233 L291.237,737.688 L292.105,737.241 L294.164,736.894 L295.677,736.546 L297.141,736.149 L297.793,735.867 L299.746,733.049 L303.69,730.717 L304.781,729.402 L304.186,728.038 L303.367,727.194 L302.772,726.227 L302.723,724.614 L302.007,723.861 L300.494,723.497 L300.119,722.864 L300.674,721.181 L300.722,720.323 L300.389,719.498 L299.642,719.069 L298.674,718.974 L297.848,719.212 L297.515,719.831 L297.563,720.958 L297.785,722.149 L297.424,722.753 L296.736,722.881 L296.796,710.459 L245.948,710.634 L245.984,701.659 L245.84,670.651 L245.826,665.482 L245.786,650.848 L267.915,650.588 L301.648,650.644 L314.847,650.727 L316.108,650.574 L319.829,650.571 L325.44,650.574 L327.727,650.421 L330.685,650.371 L331.176,650.468 L333.63,650.481 L334.625,650.544 L337.998,650.524 L338.86,650.434 L380.202,650.233 L380.055,616.235 L379.951,616.142 L379.958,614.184 L379.997,613.522 L380.043,612.933 L380.114,612.817 L380.1,612.669 L380.32,612.508 L380.681,612.515 L380.849,612.456 L381.254,612.491 L382.714,612.668 L384.072,612.239 L385.406,611.715 L386.764,611.501 L388.217,611.632 L389.884,612.049 L391.909,612.62 L393.481,612.716 L394.633,612.352 L395.608,611.821 L395.859,611.684 L397.384,611.436 L399.118,611.303 L400.589,611.459 L402.091,611.494 L403.692,611.684 L405.045,612.103 L406.788,612.51 L407.599,612.542 L408.314,612.498 L410.048,612.46 L412.182,612.745 L413.478,612.517 L414.736,612.545 L416.319,612.561 L417.873,612.121 L420.264,611.627 L421.579,611.551 L422.829,611.763 L423.694,611.892 L424.563,612.091 L425.554,612.365 L425.57,605.608 L439.928,605.435 L439.816,611.8 L439.612,612.652 L439.864,613.014 L439.246,614.704 L441.86,616.278 L443.716,617.27 L444.723,617.648 L445.699,617.968 L446.167,618.062 L446.651,618.086 L447.151,618.007 L447.606,618.068 L448.158,618.226 L448.62,618.403 L449.116,618.561 L449.527,618.739 L449.984,618.873 L450.473,618.903 L450.98,619.083 L451.219,619.214 L451.468,619.263 L451.709,619.219 L451.905,619.105 L452.423,618.709 L453.39,618.154 L454.802,617.824 L455.86,617.516 L456.437,617.577 L457.062,617.79 L457.992,618.4 L459.09,618.873 L461.166,619.694 L463.596,620.885 L464.187,621.274 L464.448,621.419 L464.835,621.695 L465.417,622.09 L465.987,622.333 L469.004,622.606 L471.267,622.785 L474.096,623.291 L475.757,624.164 L475.906,624.232 L476.954,624.482 L478.116,624.304 L479.581,623.863 L481.106,623.653 L482.937,623.853 L485.118,624.49 L487.62,624.728 L488.62,624.466 L489.875,624.475 L492.742,625.252 L495.063,625.954 L495.892,626.074 L496.94,626.036 L497.912,625.769 L498.922,625.883 L500.027,626.55 L500.809,626.951 L501.495,627.055 L502.276,627.084 L502.962,626.913 L504.903,626.913 L505.909,627.389 L506.409,627.817 L507.243,628.032 L507.743,627.722 L508.771,627.865 L509.304,628.131 L509.696,628.093 L510.728,627.935 L511.39,628.155 L511.916,628.522 L513.231,629.713 L513.931,629.999 L515.099,629.866 L516.109,629.651 L516.776,629.308 L517.848,628.736 L518.586,628.165 L519.611,627.664 L520.94,627.59 L522.822,628.111 L523.806,627.987 L524.598,627.508 L525.102,627.462 L525.745,627.796 L526.698,628.225 L527.341,628.677 L527.936,628.772 L528.622,628.528 L529.369,628.33 L530.223,628.131 L530.68,627.903 L531.235,627.92 L531.926,628.182 L532.664,628.301 L533.295,628.232 L533.935,628.367 L534.421,628.653 L535.482,630.075 L535.993,630.391 L537.022,630.99 L538.737,631.514 L540.095,631.372 L541.453,630.967 L543.978,629.275 L545.399,627.854 L546.574,627.32 L547.864,627.223 L550.058,627.528 L551.249,626.843 L552.258,626.051 L552.936,625.464 L553.562,625.298 L554.218,625.336 L555.039,625.524 L556.049,625.963 L557.511,627.063 L558.351,627.627 L558.916,627.811 L559.52,627.855 L560.485,627.855 L561.731,627.653 L563.485,627.084 L566.098,625.537 L566.056,625.26 L566.791,625.152 L567.228,625.118 L568.421,625.186 L570.493,625.607 L571.824,625.59 L572.885,625.338 L574.182,625.355 L575.227,625.776 L576.861,626.5 L577.054,626.498 L578.418,625.988 L578.582,625.926 L579.203,626.026 L579.464,626.225 L579.811,626.709 L580.122,626.759 L580.507,626.548 L580.842,626.1 L581.488,625.852 L583.277,626.374 L585.201,626.047 L587.119,625.995 L589.512,626.433 L595.492,627.999 L596.822,628.454 L598.642,628.488 L600.933,628.067 L602.718,627.831 L604.925,628.185 L606.34,628.488 L607.351,628.993 L608.564,629.414 L609.339,629.229 L610.097,629.263 L611.461,629.785 L612.724,629.903 L613.046,629.834 L613.173,629.807 L613.752,629.684 L614.51,629.061 L615.273,628.823 L617.674,628.622 L618.855,628.075 L619.227,628.051 L619.799,628.498 L620.209,628.56 L621.501,628.138 L621.911,628.249 L622.271,628.572 L622.445,629.131 L622.842,629.479 L623.525,629.926 L624.718,630.162 L626.296,629.79 L626.855,630.013 L626.917,630.349 L627.178,631.131 L631.423,630.998 L635.808,631.604 L639.93,632.194 L644.76,633.424 L646.769,633.744 L648.661,633.235 L654.176,634.32 L659.771,634.599 L663.042,635.347 L664.912,635.237 L669.934,635.575 L670.928,635.635 L671.124,635.648 L675.29,637.291 L676.396,637.416 L681.109,635.329 L686.188,633.173 L689.444,632.827 L693.182,632.97 L711.247,634.1 L730.706,635.314 L738.966,636.271 L739.011,635.683 L755.712,636.822 L757.816,636.997 L774.044,638.22 L779.58,638.637 L779.22,644.66 L779.083,646.947 L777.928,665.779 L779.784,667.05 L791.456,664.637 L819.307,658.015 L819.878,651.63 L822.054,626.712 L823.29,615.134 L826.073,581.31 L826.079,581.218 L826.291,578.283 L833.583,576.731 L834.157,571.613 L835.925,551.085 L831.084,552.696 L828.57,552.293 L830.737,516.17 L836.118,514.859 L846.518,513.321 L851.952,511.983 L859.045,510.467 L862.478,509.733 L877.596,506.227 L890.746,503.197 L914.321,497.794 L917.559,497.078 L923.783,497.639 L920.022,536.56 L919.705,539.704 L916.952,571.32 L916.552,575.904 L916.412,583.323 L916.273,590.656 L916.531,604.371 L916.541,604.906 L916.578,610.806 L915.793,636.791 L933.917,631.533 L952.121,627.367 L955.626,626.565 L961.454,625.198 L972.164,622.687 L990.964,618.777 L1013.12,613.203 L1016.71,612.35 L1022.39,611.227 L1035.3,608.087 L1037.77,607.488 L1038.66,607.339 L1039.21,607.317 L1049.39,604.885 L1051.27,604.464 L1051.82,604.336 L1052.49,604.245 L1053.9,603.901 L1054.23,603.661 L1062.52,595.16 L1068.29,589.435 L1068.4,589.329 L1076.09,581.529 L1077.28,580.322 L1079.39,578.184 L1082.22,575.252 L1103.75,552.78 L1117.93,538.463 L1120.62,535.628 L1142.24,535.24 L1152.94,535.142 L1157.95,535 L1158.19,534.922 L1158.64,534.621 L1159.09,534.245 L1164.22,528.69 L1166.34,526.754 L1178.42,514.263 L1186.05,506.062 L1194.86,497.118 L1197.72,494.236 L1199.84,491.739 L1207.34,484.112 L1225.42,467.59 L1231.15,462.15 L1230.91,462.095 L1229.58,461.988 L1228.76,462.182 L1228.43,462.575 L1228.21,462.526 L1228.1,462.402 L1228.09,461.905 L1228.06,461.731 L1227.89,461.631 L1227.68,461.65 L1227.31,461.976 L1226.88,462.07 L1226.57,461.932 L1226.43,461.48 L1226.3,460.917 L1226,460.681 L1225.92,460.363 L1225.95,460.111 L1226.04,459.956 L1226.21,459.941 L1226.37,460.057 L1226.51,460.075 L1226.7,460.003 L1227.17,459.478 L1227.38,459.296 L1227.94,459.097 L1228.16,459.035 L1228.13,458.675 L1227.72,458.141 L1227.82,457.172 L1227.72,456.874 L1227.43,456.65 L1227.04,456.762 L1226.79,456.7 L1226.47,456.004 L1225.5,454.836 L1224.64,454.017 L1223.59,453.93 L1223.1,453.805 L1222.84,453.072 L1222.59,452.836 L1222.12,453.06 L1221.81,456.108 L1220.99,456.38 L1220.67,455.848 L1221.08,455.295 L1220.94,453.802 L1220.57,453.011 L1219.32,452.344 L1218.91,451.806 L1218.55,451.471 L1218.17,451.629 L1217.77,451.66 L1217.49,451.482 L1217.47,451.18 L1217.88,450.75 L1218.24,450.696 L1218.31,450.686 L1219.08,450.39 L1219.71,450.679 L1220.17,450.67 L1220.77,450.175 L1221.14,449.584 L1221.17,449.521 L1221.2,449.061 L1220.9,448.431 L1220.7,447.879 L1220.69,447.538 L1220.91,447.115 L1220.95,447.101 L1221.55,446.884 L1222.08,446.846 L1222.19,446.744 L1222.22,446.576 L1222.18,446.529 L1221.73,445.954 L1221.73,445.52 L1221.76,445.467 L1221.97,445.102 L1222.86,444.505 L1223.42,444.131 L1223.21,443.917 L1222.89,443.735 L1222.77,443.221 L1222.89,442.803 L1223.52,442.198 L1224.07,441.889 L1224.39,441.707 L1224.82,441.719 L1225.24,442.157 L1225.37,442.568 L1225.41,442.7 L1225.54,442.728 L1226.09,442.789 L1226.64,443.191 L1227.15,444.213 L1227.48,444.364 L1227.52,444.329 L1227.88,443.998 L1228,443.675 L1228.01,443.225 L1228.4,442.315 L1228.45,442.297 L1228.84,442.146 L1229.55,442.338 L1229.98,442.269 L1230.38,442.104 L1230.66,441.314 L1231.57,440.4 L1232.97,439.298 L1232.99,439.28 L1233.39,439.257 L1233.75,439.102 L1233.86,439.179 L1233.94,439.236 L1233.66,439.93 L1233.76,440.283 L1234.21,440.281 L1234.45,440.031 L1234.46,440.003 L1234.57,439.69 L1234.38,438.899 L1234.6,437.773 L1234.97,437.304 L1235.44,437.002 L1236.32,436.775 L1236.72,436.886 L1237.09,437.275 L1237.25,437.873 L1237.3,438.068 L1237.9,439.369 L1238.37,439.528 L1238.43,439.547 L1238.7,439.473 L1239,438.995 L1239.15,438.749 L1238.42,437.59 L1237.99,436.699 L1238.19,436.076 L1238.67,435.733 L1239.65,435.626 L1240.67,435.978 L1241.94,436.716 L1260.56,413.316 L1268.1,413.07 L1270.96,413.446 L1270.99,413.451 L1277.42,425.563 L1280.18,430.835 L1288.4,446.55 L1291.72,450.563 L1298.08,458.251 L1311.49,469.276 L1316.33,469.679 L1329.74,473.981 L1350.97,484.195 L1377.13,494.005 L1396.59,500.588 L1405.68,503.167 L1411.6,506.022 L1413.25,506.767 L1422.01,512.543 L1429.08,513.483 L1432.71,515.766 L1436.9,516.975 L1459.53,518.451 L1462.6,519.257 L1473.58,523.823 L1483.45,529.596 L1490.16,535.637 L1496.55,546.423 L1509.98,567.856 L1522.22,584.576 L1525.26,587.594 L1531.43,593.614 L1537.72,599.176 L1542.75,603.326 L1544.52,604.878 L1547.51,606.887 L1549.2,607.803 L1550.55,608.693 L1553.94,611.173 L1555.25,611.881 L1556.88,612.602 L1559.2,613.365 L1562.89,614.17 L1567.47,615.663 L1571.07,616.951 L1576.66,619.529 L1580.32,619.881 L1585.74,619.745 L1599.17,618.795 L1609.35,620.084 L1622.1,624.222 L1640.89,628.427 L1646.31,625.782 L1651.28,625.193 L1651.88,624.285 L1651.78,621.605 L1652.72,619.997 L1654.48,619.863 L1657,621.605 L1657.44,623.98 L1660.07,628.17 L1661.75,628.17 L1661.93,626.697 L1661.93,625.759 L1666.31,625.089 L1666.49,622.811 L1667.71,622.543 L1668.08,620.801 L1669.01,618.523 L1670.96,617.987 L1672.17,619.059 L1671.34,619.595 L1670.31,621.203 L1671.24,622.275 L1673.38,623.749 L1674.59,623.615 L1675.15,621.873 L1676.74,621.739 L1678.69,620.801 L1678.32,622.945 L1678.23,625.357 L1679.25,625.223 L1680.65,624.017 L1680.09,626.562 L1681.95,626.562 L1684.09,627.768 L1684.09,627.232 L1684.09,626.428 L1685.21,626.696 L1686.14,626.964 L1689.4,626.83 L1691.35,626.16 L1693.68,625.222 L1695.92,624.82 L1697.31,624.82 L1698.71,625.758 L1700.1,625.758 L1701.5,624.954 L1702.53,624.552 L1704.57,626.294 L1707.18,626.16 L1709.14,626.83 L1711,627.902 L1712.67,626.562 L1715.37,626.562 L1718.82,625.356 L1722.54,625.222 L1725.89,625.088 L1729.15,625.088 L1732.32,627.633 L1734.83,628.705 L1737.9,627.633 L1740.42,628.437 L1742.28,628.169 L1743.86,628.169 L1747.96,630.312 L1751.22,632.992 L1754.1,634.465 L1756.34,633.527 L1756.8,632.584 L1757.23,632.419 L1757.74,632.456 L1757.94,632.704 L1758.33,632.921 L1759.6,633.011 L1759.95,633.156 L1760.68,634.048 L1761.3,634.109 L1761.66,634.402 L1761.94,634.951 L1762.08,635.457 L1761.92,635.795 L1761.59,636.062 L1761.44,636.276 L1761.45,636.765 L1761.72,636.975 L1762.43,636.768 L1763.14,636.991 L1763.96,637.433 L1764.2,637.498 L1764.73,637.478 L1764.99,637.262 L1765.3,637.421 L1765.36,637.718 L1765.33,637.981 L1765.12,638.215 L1764.53,638.362 L1764.4,638.522 L1764.41,638.617 L1764.54,638.808 L1764.89,639.256 L1765.22,640.234 L1765.9,641.309 L1766.17,641.514 L1766.44,641.54 L1766.79,641.429 L1767.51,640.957 L1767.95,640.854 L1768.37,640.912 L1768.68,641.066 L1768.85,641.315 L1768.96,642.064 L1769.15,642.504 L1769.84,642.903 L1772.82,643.573 L1775.43,645.18 L1778.31,645.314 L1779.43,646.921 L1780.17,645.984 L1781.94,644.51 L1783.99,646.653 L1786.32,646.653 L1786.88,645.448 L1787.81,644.644 L1788.55,645.314 L1788.83,645.849 L1790.14,645.849 L1792.74,645.983 L1793.83,646.321 L1794.46,646.303 L1795.46,646.284 L1796.04,646.017 L1796.48,645.825 L1797.03,645.715 L1800.28,646.787 L1800.84,646.117 L1805.03,647.322 L1810.43,649.063 L1814.25,651.206 L1816.11,653.08 L1816.86,653.348 L1818.72,652.946 L1821.33,652.946 L1822.44,653.482 L1823.65,655.223 L1825.89,655.758 L1827.56,657.097 L1828.49,656.16 L1829.61,655.222 L1830.82,654.955 L1832.03,654.419 L1833.34,653.616 L1835.38,654.687 L1836.41,654.955 L1840.32,655.088 L1841.99,656.427 L1842.72,657.289 L1842.29,658.383 L1842,659.496 L1842.18,662.452 L1843.2,664.46 L1843.48,667.941 L1845.81,670.35 L1847.21,672.893 L1848.33,679.987 L1849.72,685.072 L1849.72,687.079 L1847.12,688.952 L1844.79,691.36 L1848.14,693.367 L1851.49,695.909 L1853.45,696.845 L1857.54,698.183 L1860.89,699.119 L1864.9,699.788 L1868.9,700.858 L1871.79,701.795 L1874.12,702.998 L1878.03,701.928 L1879.42,702.062 L1882.4,705.005 L1885.38,706.476 L1890.41,709.953 L1899.16,718.11 L1904.47,725.597 L1905.68,728.004 L1906.33,731.346 L1908.01,733.752 L1909.96,735.891 L1924.21,766.457 L1927.84,769.428 L1928.02,771.431 L1929.23,774.904 L1931,776.373 L1936.59,776.907 L1940.96,778.776 L1942.17,779.978 L1942.27,782.382 L1941.8,784.518 L1940.87,785.72 L1940.75,787.396 L1940.69,788.257 L1949.03,793.859 L1953.68,830.622 L1954.36,831.334 L1955.61,830.656 L1957.81,828.112 L1959,828.35 L1958.09,831.606 L1959.07,834.692 L1958.7,837.269 L1959.26,840.254 L1958.98,841.695 L1959.1,843.543 L1959.37,846.167 L1959.13,848.223 L1959.61,855.114 L1959.74,855.46 L1960.17,856.471 L1960.34,856.857 L1960.59,857.847 L1960.98,859.432 L1961.22,860.059 L1961.58,861.06 L1961.81,861.709 L1962.43,864.191 L1962.86,866.31 L1967,876.772 L1969.94,881.677 L1973.07,886.166 L1975.9,890.272 L1980.03,893.382 L1983.33,895.875 L1988.73,903.067 L1988.82,904 L1988.64,906.131 L1994.31,913.454 L1997.01,914.919 L1998.32,916.517 L2004.28,922.508 L2005.58,923.706 L2005.77,925.569 L2009.3,929.43 L2011.17,929.296 L2013.4,930.628 L2015.64,933.023 L2016.37,934.079 L2018.43,937.016 L2022.34,939.811 L2025.23,943.403 L2033.79,947.661 L2041.29,949.154 L2049.09,951.595 L2050.83,958.57 L2050.83,959.767 L2050.27,961.895 L2050.27,961.97 L2050.36,963.492 L2052.6,965.62 L2055.67,965.62 L2061.54,968.147 L2063.49,970.407 L2065.82,973.732 L2068.78,976.786 L2071.5,979.583 L2072.34,981.843 L2074.1,983.039 L2075.41,982.109 L2076.99,981.983 L2077.08,981.976 L2079.04,982.64 L2083.14,984.236 L2085.93,983.704 L2088.63,983.97 L2091.05,983.438 L2093.75,981.577 L2095.61,981.709 L2097.19,981.709 L2100.27,982.507 L2101.2,983.571 L2101.1,985.964 L2101.2,988.49 L2102.87,989.952 L2104.91,990.57 L2108.65,992.743 L2110.51,992.61 L2111.16,994.338 L2117.77,998.857 L2126.55,1005.45 L2126.62,1005.5 L2128.76,1006.7 L2133.13,1009.22 L2136.02,1011.35 L2137.32,1011.75 L2138.35,1011.35 L2140.67,1013.34 L2143.28,1013.87 L2143.33,1013.92 L2144.6,1015.13 L2144.68,1015.2 L2147.38,1016.66 L2150.92,1019.59 L2153.62,1019.85 L2157.15,1020.91 L2160.41,1021.84 L2161.99,1022.64 L2164.79,1022.91 L2168.88,1024.1 L2171.68,1023.57 L2175.15,1023.57 L2175.21,1023.57 L2177.54,1023.97 L2177.59,1023.93 L2185.08,1018.39 L2186.11,1016.93 L2187.32,1016.8 L2188.86,1017.93 L2190.02,1018.79 L2195.7,1020.38 L2198.49,1021.44 L2199.76,1022.86 L2199.79,1022.91 L2199.42,1024.37 L2198.58,1026.23 L2200.17,1026.36 L2200.24,1026.33 L2202.7,1025.33 L2202.77,1025.3 L2204.82,1025.3 L2206.4,1024.5 L2206.4,1022.77 L2206.87,1022.77 L2207.34,1023.3 L2208.17,1024.77 L2209.29,1025.96 L2210.13,1025.96 L2211.25,1024.37 L2212.64,1024.1 L2215.9,1023.04 L2220.37,1020.12 L2222.23,1020.38 L2223.44,1021.18 L2226.42,1025.3 L2228.94,1029.41 L2230.43,1032.2 L2231.08,1036.05 L2233.13,1039.77 L2235.78,1043.3 L2235.83,1043.36 L2238.15,1043.76 L2241.78,1046.28 L2243.74,1046.81 L2245.25,1047.95 L2251.84,1052.92 L2255.75,1055.04 L2260.96,1056.1 L2266.08,1058.23 L2270.22,1059.77 L2273.53,1061.03 L2278,1062.74 L2290.29,1065.13 L2294.57,1066.32 L2294.85,1067.52 L2301.19,1067.21 L2303.34,1067.82 L2304.98,1069.07 L2306.36,1070.04 L2308.35,1070.7 L2309.94,1072.43 L2312.45,1073.09 L2313.38,1074.95 L2315.61,1076.01 L2317.29,1077.34 L2319.43,1079.19 L2323.81,1080.39 L2327.35,1080.65 L2330.14,1082.51 L2332.65,1082.78 L2336.94,1082.24 L2338.52,1081.85 L2340.57,1082.91 L2345.59,1083.04 L2348.67,1083.84 L2349.78,1085.83 L2350.81,1086.75 L2352.2,1085.96 L2353.51,1083.7 L2355.93,1082.11 L2359.65,1081.45 L2363.28,1079.72 L2366.77,1078.21 L2369.71,1076.94 L2370.27,1077.2 L2371.56,1081 L2374.18,1084.63 L2378.65,1087.99 L2391.49,1097.63 L2393.96,1098.29 L2394.18,1100.11 L2396.63,1101.84 L2397.45,1103.58 L2398.48,1104.12 L2402.21,1103.13 L2406.48,1105.06 L2407.6,1118.32 L2430.55,1129.62 L2434.79,1131.7 L2449.05,1138.45 L2500.98,1162.44 L2547.26,1185.34 L2580.49,1203.61 L2657.48,1247.69 L2672.37,1256.52 L2731.29,1290.21 L2736.82,1293.37 L2781.11,1316.79 L2809.9,1333.5 L2807.76,1337.32 L2812.14,1343.66 L2850.12,1396.4 L2879.15,1434.35 L2882.48,1439.12 L2879.23,1446.92 L2877.81,1450.32 L2877.08,1452.42 L2875.87,1454.72 L2875.69,1454.73 L2874.57,1455.36 L2869.31,1463.03 L2864.37,1473.29 L2823.48,1539.65 L2827.12,1547.13 L2847.71,1596.21 L2840.37,1607.09 L2821.01,1631.42 L2803.83,1654.11 L2800.67,1658.49 L2792.22,1669.84 L2770.47,1698.34 L2756.49,1712.16 L2707.03,1767.69 L2690.81,1757.4 L2669.5,1761.11 L2666.65,1768.16 L2662.34,1765.77 L2649.9,1769.52 L2619.26,1771.61 L2614.52,1781.6 L2612.11,1788.74 L2609.2,1794.63 L2605.34,1798.95 L2607.68,1804.45 L2616.81,1823.25 L2622.63,1832.45 L2620.02,1842.31 L2608.81,1841.32 L2599.89,1838.3 L2598.81,1870.9 L2619.42,1873.51 L2641.32,1875.03 L2672.11,1875.03 L2681.1,1882.91 L2685.6,1884.17 L2691.61,1884.29 L2696.91,1897.82 L2714.63,1904.31 L2716.37,1905.04 L2714.89,1930.09 L2683.4,2014.21 L2667.02,2017.17 L2646.75,2020.84 L2646.75,2020.26 L2645.88,2020.38 L2611.09,2026.24 L2594.34,2029.8 L2593.88,2035.4 L2547.44,2043.59 L2537.13,2070.57 L2528.2,2094.4 L2534.76,2092.95 L2553.76,2093.54 L2564.81,2093.72 L2576.95,2095.45 L2636.68,2099.92 L2636.59,2102.83 L2648.12,2102.74 L2648.24,2100.29 L2681.01,2102.55 L2686.07,2103.45 L2697,2105.68 L2735.29,2107.19 L2743.61,2106.85 L2751.3,2106.32 L2759.51,2106.69 L2759.31,2143.86 L2752,2143.91 L2752.6,2175.22 L2752.02,2233.86 L2752.07,2241.28 L2722.65,2241.28 L2722.73,2256.39 L2722.71,2257.49 L2722.56,2268.76 L2722.56,2268.81 L2722.31,2287.8 L2722.31,2287.84 L2722.22,2294.23 L2722.21,2295.35 L2722.18,2298.45 L2722.14,2304.57 L2722.1,2309.97 L2722.42,2317.27 L2722.33,2321.6 L2722.13,2324.69 L2722.12,2324.97 L2722,2335.09 L2721.87,2348.26 L2715.46,2348.33 L2692.84,2347.92 L2689.66,2347.86 L2685.94,2347.8 L2661.97,2347.65 L2599.38,2347.32 L2594.25,2347.27 L2592.7,2347.25 L2585.28,2347.22 L2585.13,2344.17 L2585.28,2338.89 L2585.31,2328.45 L2585.39,2317.34 L2585.32,2310.96 L2585.36,2304.13 L2585.35,2297.83 L2585.6,2283.08 L2585.62,2282.49 L2564.46,2282.64 L2552.88,2282.59 L2547.09,2282.57 L2540.13,2282.52 L2527.57,2282.4 L2511.14,2282.15 L2502,2282.15 L2499.18,2282.12 L2499.14,2285.83 L2499.12,2286.99 L2499.12,2288.27 L2499.1,2292.2 L2499.1,2295.17 L2499.09,2299.37 L2499.08,2300.35 L2498.95,2302.86 L2498.93,2304.42 L2498.91,2306.84 L2498.86,2311.26 L2498.83,2313.87 L2498.82,2315.42 L2498.79,2318.2 L2498.76,2320.88 L2498.76,2321.68 L2498.76,2321.7 L2498.73,2324.29 L2498.73,2326.05 L2498.69,2329.38 L2498.66,2335.22 L2498.69,2338 L2502.29,2338.05 L2502.81,2338.05 L2502.91,2338.05 L2504.87,2338.08 L2504.94,2338.08 L2505.43,2338.09 L2505.45,2338.09 L2505.9,2338.09 L2505.89,2340.87 L2505.88,2345.61 L2505.81,2352.49 L2505.81,2352.55 L2505.78,2355.26 L2505.78,2355.29 L2505.78,2355.45 L2505.76,2368.1 L2505.75,2370.39 L2505.75,2370.41 L2505.72,2376.77 L2505.71,2379.2 L2505.69,2383.03 L2505.67,2388.87 L2505.64,2395.4 L2505.59,2402.27 L2505.59,2402.29 L2505.58,2403.9 L2505.56,2407.01 L2505.55,2410.54 L2505.51,2416.25 L2505.51,2420.73 L2505.49,2426.28 L2505.46,2433.13 L2505.42,2437.98 L2505.42,2438 L2505.42,2438.4 L2505.41,2439.64 L2505.41,2439.83 L2505.41,2439.86 L2505.21,2452.56 L2505.01,2459.77 L2505.32,2462.91 L2505.4,2463.63 L2505.48,2464.46 L2505.6,2467.43 L2505.68,2470.44 L2505.18,2473.1 L2505.12,2473.33 L2505.1,2473.34 L2503.84,2474.52 L2501.78,2476.25 L2500.11,2478.07 L2498.02,2479.58 L2496.48,2481.75 L2494.43,2482.51 L2493.06,2482.21 L2492.02,2481.14 L2491.68,2479.52 L2491.99,2479.02 L2493.88,2476.82 L2494.54,2475.07 L2494.6,2473.35 L2493.87,2472.41 L2493.06,2472.17 L2491.62,2472 L2490.59,2472.55 L2488.84,2474.06 L2486.68,2474.52 L2484.71,2473.69 L2483.04,2468.73 L2481.29,2467.5 L2477.14,2467.31 L2473.78,2468.8 L2473.41,2468.97 L2470.83,2469.57 L2468.43,2471.05 L2465.88,2472.38 L2462.69,2473.11 L2460.26,2475.38 L2457.6,2478.81 L2456.64,2482.78 L2456.08,2488.24 L2453.64,2489.86 L2448.69,2490.92 L2446.97,2492.78 L2446.66,2495.32 L2446.85,2498.27 L2445.23,2501.83 L2441.88,2505.77 L2436.43,2511.89 L2433.49,2512.31 L2431.08,2512.03 L2430.01,2511.71 L2429.16,2511.48 L2428.08,2511.05 L2426.64,2509.26 L2425.47,2507.81 L2423.36,2505.77 L2422.59,2505.11 L2422.1,2504.73 L2421.07,2504.01 L2420.17,2503.3 L2419.01,2502.79 L2417.71,2503.1 L2417.31,2503.54 L2417.2,2503.83 L2416.9,2504.41 L2416.7,2505.28 L2416.74,2507.13 L2416.88,2507.75 L2416.93,2508.09 L2417.23,2508.86 L2417.23,2509.19 L2417.22,2509.67 L2417.14,2510.7 L2417.1,2511.06 L2416.96,2511.99 L2416.82,2512.49 L2416.68,2513.24 L2416.53,2513.88 L2416.27,2514.37 L2415.64,2515.72 L2414.38,2516.65 L2413.07,2516.94 L2411.74,2517.6 L2410.51,2517.6 L2409.38,2518.39 L2408.53,2519.9 L2406.31,2521.34 L2405.06,2522.3 L2404.11,2522.29 L2403.25,2522.3 L2401.27,2522.32 L2398.88,2522.4 L2398.17,2522.35 L2397.15,2521.78 L2395.27,2520.24 L2393.51,2519.66 L2391.98,2519.16 L2388.87,2518.47 L2386.83,2517.66 L2385.16,2516.35 L2383.3,2515.74 L2382.25,2514.37 L2382.24,2512.65 L2382.95,2510.59 L2384.03,2508.57 L2385.26,2507.07 L2385.57,2506.14 L2386.8,2504.18 L2387.61,2502.16 L2387.95,2501.33 L2387.75,2499.56 L2387.9,2498.13 L2388.3,2496.93 L2388.72,2495.54 L2388.55,2494.43 L2388.14,2493.65 L2387.49,2492.84 L2385.99,2492.01 L2384.67,2491.83 L2383.71,2492.3 L2382.95,2493.45 L2382.51,2494.5 L2382,2496.43 L2381.56,2498.06 L2380.99,2498.8 L2379.87,2499.43 L2379.23,2499.91 L2378.84,2500.43 L2378.64,2501.89 L2378.22,2502.53 L2377.99,2503.66 L2377.64,2504.21 L2376.84,2504.51 L2375.7,2504.47 L2374.65,2503.99 L2374.35,2503.86 L2371.71,2503.01 L2371.43,2502.98 L2370.77,2503.11 L2369.91,2503.32 L2369.08,2503.55 L2368.64,2503.7 L2368.18,2502.35 L2366.94,2500.37 L2367.11,2499.3 L2368.67,2498.8 L2373.66,2496.41 L2374.81,2493.91 L2374.88,2491.01 L2376.03,2489.3 L2378.5,2487.32 L2380.04,2485.33 L2380.63,2483.01 L2380.23,2481.03 L2378.9,2479.18 L2378.48,2478.4 L2377.06,2477.77 L2375.37,2477.56 L2373.12,2478.25 L2371.68,2480.68 L2370.48,2483.34 L2369.02,2483.83 L2368.46,2483.8 L2367.75,2483.71 L2366.61,2483.29 L2365.36,2482.63 L2364.37,2481.97 L2362.74,2479.45 L2361.85,2478.63 L2358.98,2477.54 L2354.24,2473.57 L2354.71,2465.48 L2354.77,2465.17 L2354.82,2454.71 L2354.82,2453.95 L2354.58,2429.58 L2354.65,2403.8 L2354.35,2403.43 L2351.54,2402.48 L2346.43,2402.24 L2346.42,2395.89 L2299.6,2395.61 L2296.32,2394.42 L2296.25,2388.98 L2296.2,2384.82 L2296.18,2383.03 L2296.09,2380.74 L2274.06,2380.76 L2273.9,2386.76 L2265.98,2387.25 L2260.51,2387.24 L2246.47,2387.05 L2246.29,2387.09 L2238.88,2386.98 L2236.53,2387.04 L2235.55,2386.54 L2235.18,2386.42 L2231.65,2388.36 L2227.76,2391.42 L2217.8,2393.54 L2217.16,2393.52 L2216.89,2393.51 L2212,2393.34 L2210.11,2393.28 L2210.15,2397.42 L2210.09,2397.78 L2209.72,2397.9 L2197.07,2397.56 L2181.65,2397.25 L2181.65,2397.54 L2181.73,2402.68 L2180.94,2402.67 L2178.12,2403.17 L2163.38,2403.19 L2162.86,2406.51 L2162.85,2407.25 L2109.65,2407.42 L2108.96,2406 L2109.07,2398.9 L2108.51,2398.79 L2108.51,2396.48 L2104.34,2397.2 L2094.85,2399.53 L2094.27,2400.69 L2094.41,2401.7 L2089.2,2402.3 L2086.64,2402.44 L2083.59,2399.54 L2081.23,2399.24 L2080.07,2399.74 L2079.15,2399.85 L2077.72,2400.29 L2076.3,2400.43 L2074.84,2400.44 L2073.99,2400.3 L2072.11,2400.3 L2070.59,2400.64 L2066.64,2401.47 L2065.51,2401.47 L2063.9,2401.34 L2060.73,2400.91 L2059.35,2400.6 L2059.4,2400.45 L2059.78,2393.73 L2058.94,2365.57 L2059.01,2352.05 L2059.09,2343.34 L2059.09,2335.24 L2061.79,2335.47 L2062.86,2334.89 L2065.52,2335.23 L2066.66,2334.98 L2070.47,2334.29 L2074.08,2333.99 L2075.33,2333.26 L2077.3,2332.8 L2079.54,2330.8 L2083.81,2327.06 L2085.43,2326.12 L2086.75,2325.86 L2087.73,2325.4 L2088.59,2324.84 L2088.67,2324.82 L2088.72,2307.71 L2088.78,2291.88 L2089.61,2291.69 L2131.92,2292.13 L2131.93,2277.7 L2131.67,2234.72 L2131.03,2234.97 L2130.4,2234.95 L2129.94,2234.77 L2129.69,2234.2 L2128.65,2233.97 L2129.62,2235.7 L2129.17,2236.51 L2128.85,2237.41 L2128.31,2237.74 L2128.61,2238.41 L2128.79,2238.95 L2128.47,2239.36 L2127.73,2239.54 L2126.88,2239.31 L2126.02,2238.71 L2125.63,2238.77 L2125.12,2239.46 L2124.56,2240.1 L2124.12,2240.17 L2123.71,2239.85 L2123.58,2239.41 L2123.3,2239.17 L2123.15,2239.43 L2123.27,2240.18 L2123.28,2240.6 L2123.12,2240.81 L2122.14,2240.92 L2121.55,2241.13 L2121.18,2241.04 L2120.59,2240.71 L2120.27,2240.23 L2119.04,2239.84 L2118.58,2239.63 L2118.31,2239.7 L2118.28,2240.19 L2117.84,2240.66 L2116.67,2240.71 L2116.39,2240.49 L2116.22,2240.12 L2116.02,2240.06 L2115.44,2240.45 L2114.97,2240.59 L2113.77,2240.56 L2112.88,2240 L2112.67,2240.08 L2112.38,2240.82 L2112.15,2241.06 L2111.83,2241.07 L2110.87,2240.38 L2110.64,2240.42 L2110.5,2240.76 L2110.7,2241.93 L2111.02,2242.92 L2110.93,2243.64 L2110.39,2243.9 L2109.94,2243.81 L2109.45,2242.85 L2109.25,2242.76 L2108.98,2243.42 L2108.82,2243.75 L2108.34,2243.8 L2107.46,2243.41 L2107.29,2243.52 L2107.04,2244.29 L2106.34,2244.81 L2105.69,2245.05 L2105.12,2244.92 L2104.64,2244.6 L2104.42,2244.06 L2104.03,2243.79 L2103.92,2244.13 L2103.09,2245.22 L2102.93,2248.32 L2103.21,2254.42 L2103.19,2261.77 L2103.26,2270.7 L2088.81,2270.24 L2088.25,2270.23 L2074.17,2270.04 L2074.21,2277.09 L2073.84,2277.32 L2072.91,2277.37 L2068.95,2277.43 L2059.7,2277.41 L2052.79,2277.29 L2050.65,2277.64 L2045.45,2277.74 L2045.53,2303.89 L2045.27,2314.45 L2027.94,2314.61 L2026.93,2314.09 L2020.14,2314.1 L2019.55,2314.04 L2019.44,2306.36 L1993.94,2306.24 L1994.08,2305.47 L1972.56,2305.58 L1972.03,2305.05 L1972.01,2292.67 L1972.05,2272.45 L1954.58,2272.18 L1943.75,2272.13 L1915.08,2272.02 L1898.94,2271.96 L1896.74,2271.97 L1882.07,2271.88 L1881.97,2259.34 L1857.38,2259.19 L1857.7,2248.15 L1857.98,2246.88 L1857.9,2240.65 L1849.99,2240.76 L1849.88,2239.1 L1849.85,2233.8 L1849.29,2232.63 L1849,2232.81 L1848.92,2233.38 L1848.52,2233.79 L1848.06,2234.04 L1847.31,2234.03 L1846.54,2233.28 L1846.26,2232.36 L1844.31,2232.16 L1843.5,2232.83 L1843.19,2233.9 L1842.54,2234.23 L1841.76,2234 L1841.62,2233.03 L1841.07,2233.24 L1840.74,2233.97 L1841.35,2234.74 L1841.47,2235.74 L1840.73,2236.38 L1839.55,2236.01 L1839.28,2236.15 L1839.08,2237.24 L1838.29,2237.74 L1837.29,2237.5 L1836.82,2237.8 L1836.46,2239.35 L1835.92,2239.71 L1834.69,2239.8 L1833.96,2240.11 L1832.85,2239.43 L1830.91,2239.73 L1830.15,2240.26 L1829.26,2240.03 L1828.69,2240.94 L1828.55,2243.39 L1828.05,2243.7 L1827.24,2245.68 L1825.77,2246.39 L1823.96,2248.45 L1823.2,2248.52 L1822.47,2248.91 L1822.74,2250.08 L1821.76,2250.89 L1819.96,2252.85 L1818.78,2253.69 L1818.02,2254.45 L1817.97,2255.18 L1817.32,2255.21 L1816.43,2255.82 L1814.31,2257 L1813.03,2257.79 L1811.53,2258.25 L1810.07,2258.3 L1810.48,2265.37 L1810.36,2266.25 L1810.03,2266.88 L1807.6,2268.21 L1807.4,2268.62 L1807.49,2271.84 L1806.38,2273.99 L1806.56,2277.1 L1806.9,2278.92 L1807.15,2280.29 L1799,2280.37 L1785.01,2280.66 L1783.31,2282.19 L1781.17,2284.26 L1779.1,2285.04 L1777.28,2286.97 L1776.25,2287.86 L1775.36,2288.32 L1774.68,2288.34 L1773.08,2289.32 L1772.48,2290.9 L1771.55,2291.72 L1770.98,2292.2 L1770.17,2293.45 L1769.64,2294.86 L1767.4,2296.15 L1767.05,2296.64 L1766.48,2297.08 L1766.38,2297 L1765.6,2296.34 L1764.83,2296.24 L1763.86,2297.11 L1762.77,2298.53 L1762.75,2299.55 L1762.45,2302.44 L1761.35,2303.64 L1760.32,2305.67 L1758.79,2306.15 L1758.14,2306.65 L1756.82,2307.05 L1756.65,2324.31 L1756.64,2327.26 L1756.35,2349.08 L1755.71,2349.77 L1755.99,2349.95 L1754.35,2351.73 L1753.63,2353.13 L1753.38,2353.06 L1749.82,2362.53 L1750.14,2362.65 L1748.52,2367.58 L1745.79,2365.8 L1745.57,2365.72 L1745.4,2365.8 L1745.3,2366.03 L1745.16,2366.46 L1745.06,2367.46 L1745.07,2368.03 L1745.15,2368.61 L1745.67,2369.88 L1746.95,2372.91 L1747.39,2374.19 L1747.45,2374.78 L1747.45,2375.37 L1747.34,2375.9 L1745.83,2379.52 L1745.58,2380.52 L1745.31,2381.19 L1744.57,2382.3 L1743.24,2383.43 L1742.99,2383.72 L1741.44,2384.56 L1741.53,2385.45 L1741.77,2390.2 L1741.91,2392.71 L1741.89,2394.65 L1741.69,2395.05 L1741.36,2395.22 L1740.89,2395.1 L1740.49,2394.68 L1740.46,2394.02 L1740.59,2393.23 L1740.6,2392.92 L1740.45,2392.91 L1740.17,2393.18 L1739.62,2393.4 L1739.17,2393.47 L1738.85,2393.45 L1738.04,2392.78 L1738.43,2392.4 L1737.9,2391.78 L1737.4,2391.37 L1736.91,2391.12 L1736.62,2391.06 L1736.53,2390.93 L1736.49,2390.76 L1736.34,2390.52 L1736.07,2390.32 L1735.66,2390.21 L1735.43,2390.25 L1735.19,2390.38 L1734.92,2391.04 L1734.93,2391.39 L1735.09,2391.89 L1735.14,2392.3 L1735.09,2392.67 L1735.06,2393.51 L1734.66,2393.76 L1734.04,2393.89 L1733.72,2393.85 L1733.23,2393.67 L1731.91,2392.59 L1731.23,2392.12 L1729.48,2391.39 L1728.72,2390.73 L1728.24,2390.1 L1728.08,2389.67 L1728.12,2389.3 L1728.34,2388.82 L1728.44,2388.42 L1728.39,2388.23 L1728.25,2388.16 L1727.08,2388.16 L1726.37,2388.06 L1725.92,2387.84 L1724.9,2387.11 L1723.34,2385.57 L1723.05,2385.4 L1722.55,2385.39 L1721.06,2385.6 L1720.5,2385.76 L1719.91,2385.84 L1719.33,2385.85 L1718.67,2385.57 L1718.06,2385.15 L1717.48,2384.79 L1717.16,2384.85 L1716.63,2385.09 L1716.34,2385.42 L1715.43,2385.96 L1713.77,2386.68 L1712.99,2386.78 L1709.9,2386.54 L1707.13,2385.45 L1706.89,2383.91 L1706.49,2383.63 L1705.6,2383.83 L1702.97,2384.34 L1701.4,2384.38 L1696.97,2383.52 L1695.27,2383.34 L1693.25,2383.72 L1692.21,2382.79 L1691.69,2382.92 L1690.01,2383.94 L1688.19,2382.73 L1686.09,2382.45 L1685.27,2381.28 L1684.4,2380.8 L1682.68,2380.68 L1681.53,2380.86 L1679.78,2380.87 L1679.33,2380.48 L1678.78,2380.56 L1678.06,2380.97 L1677.34,2381.02 L1677.3,2380.53 L1676.46,2380.35 L1674.04,2380.01 L1673.51,2379.81 L1672.81,2379.1 L1672.03,2378.73 L1671.81,2378.43 L1670.8,2378.4 L1670.25,2378.31 L1669.79,2378.04 L1668.03,2376.68 L1667.19,2376.28 L1666.55,2376.11 L1666.09,2376.2 L1665.22,2376.71 L1664.63,2377.79 L1664.36,2378.11 L1664.1,2378.17 L1663.73,2378 L1660.93,2375 L1658.76,2373.37 L1658.35,2373.31 L1658.25,2373.02 L1657.85,2373.02 L1657.77,2372.69 L1656.75,2372.17 L1655.75,2371.99 L1654.29,2372.21 L1649.94,2371.37 L1649.31,2371.63 L1648.79,2371.53 L1648.49,2371.01 L1648.05,2371 L1648.15,2370.58 L1647.11,2370.12 L1646.15,2370.53 L1645.88,2370.82 L1645.39,2370.58 L1644.65,2369.8 L1644.1,2369.72 L1643.03,2370.47 L1642.1,2370.29 L1641.74,2369.94 L1640.85,2369.78 L1639.51,2371.44 L1637.92,2372.1 L1637.12,2372.09 L1631.75,2373.55 L1629.44,2375.08 L1627.47,2374.9 L1626.29,2374.36 L1622.47,2371.26 L1620.27,2370.5 L1617.28,2369.46 L1615.11,2368.71 L1612.55,2367.98 L1607.09,2365.06 L1602.56,2360.6 L1599.21,2359.69 L1597.56,2359.78 L1591.91,2358.68 L1584.81,2356.31 L1582.78,2356.77 L1577.78,2356.95 L1573.03,2358.37 L1571.75,2358.47 L1569.48,2358.2 L1566.55,2356.89 L1562.01,2358.78 L1558.98,2360.09 L1557.38,2361.14 L1556.06,2362.15 L1555.09,2362.05 L1554.3,2361.61 L1550.93,2360.96 L1549.87,2361.23 L1548.83,2362.33 L1546.53,2365.61 L1543.38,2369.99 L1542.18,2372.3 L1539.56,2373.29 L1537.53,2373.72 L1535.46,2375.19 L1533.78,2375.85 L1527.89,2377.33 L1526.88,2378.6 L1526.09,2379.93 L1525.51,2381.39 L1523.9,2383.01 L1520.7,2385.11 L1518.57,2388.98 L1517.06,2391.24 L1514.64,2393.63 L1511.87,2396.2 L1510.24,2397.15 L1505.12,2399.11 L1495.25,2405.64 L1494.6,2403.87 L1489.55,2399.46 L1484.64,2387.91 L1484.19,2387.99 L1480.47,2378.9 L1480.09,2377.97 L1479.41,2376.54 L1478.71,2374.95 L1474.72,2365.73 L1472.26,2360 L1469.89,2354.35 L1469.65,2353.95 L1469.31,2352.97 L1461.92,2333.41 L1460.67,2331.25 L1460.46,2330.01 L1460.45,2329.39 L1460.21,2328.58 L1459.26,2326.93 L1458.89,2325.97 L1455.43,2317.81 L1453.37,2313.02 L1449.54,2303.38 L1447.54,2297.99 L1445.63,2293.53 L1444.45,2290.8 L1444,2290.99 L1443.09,2289.7 L1442.29,2287.79 L1441.81,2286.71 L1440.72,2283.48 L1440.36,2280.65 L1437.44,2280.97 L1431.32,2281.71 L1419.97,2283.03 L1419.98,2283.6 L1412.55,2280.11 L1403.89,2280.29 L1396.07,2280.38 L1395.48,2280.58 L1394.99,2282.93 L1394.21,2286.77 L1394.07,2287.19 L1394.02,2288.27 L1394.15,2289.18 L1394.56,2290.12 L1400.32,2296.64 L1403.03,2295.13 L1403.6,2295.64 L1404.19,2295.99 L1405.36,2295.99 L1405.44,2296.06 L1405.53,2297.26 L1405.43,2298.61 L1400.73,2298.97 L1398.78,2300.47 L1395.49,2306.52 L1392.44,2311.61 L1393.61,2316.45 L1393.43,2316.88 L1393.42,2317.55 L1394.34,2322.07 L1396.53,2332.6 L1396.12,2332.58 L1395.4,2332.74 L1394.69,2332.68 L1394.47,2332.73 L1394.29,2332.73 L1394.08,2332.66 L1393.72,2332.67 L1393.06,2332.73 L1392.35,2332.83 L1392.09,2332.93 L1391.8,2332.93 L1391.54,2332.84 L1391.31,2332.72 L1390.86,2332.62 L1390.49,2332.64 L1389.91,2332.72 L1389.54,2332.73 L1389.19,2332.65 L1388.75,2332.59 L1388.49,2332.53 L1388.42,2332.46 L1388.09,2332.62 L1387.82,2332.95 L1387.61,2333.27 L1387.08,2333.55 L1386.57,2333.66 L1386.02,2333.63 L1384.44,2333.1 L1382.29,2332.3 L1381.9,2332.12 L1380.91,2332.14 L1379.89,2331.73 L1377.5,2331.67 L1375.89,2332.09 L1374.63,2332.52 L1373.02,2333.04 L1372.06,2333.13 L1370.62,2332.79 L1369.31,2332.75 L1368.64,2332.26 L1368.18,2332.52 L1367.43,2332.43 L1366.68,2332.01 L1365.63,2331.84 L1364.07,2331.72 L1363.3,2331.04 L1361.95,2330.47 L1359.64,2330.47 L1358.84,2330.56 L1358.27,2330.82 L1357.14,2331.09 L1356.06,2331.71 L1355.37,2331.67 L1354.39,2331 L1353.94,2331.46 L1352.19,2331.21 L1351.65,2330.05 L1350.75,2329.49 L1349.89,2329.51 L1348.7,2329.23 L1345.36,2329.03 L1343.85,2329.09 L1341.25,2330.83 L1338.55,2331.47 L1335.92,2330.29 L1334.35,2330.74 L1331.97,2331.07 L1329.75,2330.63 L1327.2,2330.62 L1326.06,2329.92 L1325.47,2329.16 L1324.09,2329.1 L1323.6,2328.58 L1321.79,2328.59 L1318.96,2329.44 L1315.18,2330.72 L1309.77,2330.81 L1308.47,2331.39 L1306.15,2330.67 L1304.44,2330.84 L1302.6,2329.86 L1299.74,2329.6 L1297.21,2330.36 L1294.99,2330.45 L1292.45,2331.48 L1291.13,2332.66 L1289.69,2333.57 L1286.8,2334.94 L1284.1,2336.85 L1281.67,2339.86 L1279.37,2342.69 L1277.73,2344.06 L1275.89,2345.15 L1275.2,2346.11 L1274.08,2348.57 L1272.83,2350.12 L1266.98,2352.31 L1265.73,2353.49 L1263.3,2356.59 L1252.9,2355.95 L1232.97,2354.65 L1233.53,2358.6 L1234.71,2360.24 L1235.17,2361.52 L1235.24,2363.61 L1236.55,2366.07 L1236.22,2366.83 L1236.29,2370.65 L1235.24,2372.48 L1232.74,2374.02 L1229.39,2375.03 L1226.17,2376.49 L1226.55,2393.06 L1226.96,2399.35 L1226.5,2401.26 L1226.76,2402.54 L1226.37,2407.46 L1222.23,2408.18 L1220.84,2407.82 L1219.4,2407.91 L1217.69,2408.18 L1217.1,2407 L1215.98,2406.91 L1215.59,2407.82 L1215.13,2408.09 L1214.4,2407.64 L1213.02,2407.73 L1208.75,2408.46 L1207.57,2407.64 L1204.68,2407.82 L1202.18,2406.82 L1199.62,2404.63 L1196.66,2404.09 L1195.41,2403.27 L1194.36,2403.18 L1193.77,2403.72 L1190.22,2403.72 L1186.67,2403.18 L1183.91,2401.26 L1181.74,2401.08 L1178.98,2400.35 L1176.09,2400.26 L1173.39,2400.72 L1171.49,2400.08 L1168.92,2398.62 L1166.76,2398.35 L1164.39,2396.98 L1161.79,2396.16 L1155.42,2393.52 L1153.18,2394.16 L1151.47,2394.34 L1148.71,2394.71 L1148.06,2394.07 L1146.15,2393.98 L1140.37,2396.8 L1137.61,2396.98 L1135.37,2398.26 L1132.55,2398.62 L1129.19,2399.46 L1126.47,2400.01 L1125.95,2400.18 L1125.53,2400.41 L1125.29,2400.56 L1125.1,2400.73 L1124.7,2401.16 L1124.53,2401.14 L1124.43,2401.1 L1124.35,2401.03 L1123.94,2400.56 L1123.39,2399.87 L1123.06,2399.43 L1122.74,2399.04 L1122.59,2398.79 L1122.32,2398.15 L1121.97,2397.47 L1121.43,2396.72 L1121.33,2396.62 L1120.67,2396.14 L1120.33,2396.07 L1120.2,2395.95 L1120.08,2395.92 L1119.85,2395.9 L1119.4,2395.92 L1118.58,2396.05 L1118.31,2396.07 L1116.83,2396.08 L1116.46,2396.03 L1115.87,2395.82 L1115.54,2395.81 L1115.37,2395.86 L1113.72,2395.59 L1113.58,2395.53 L1113.01,2395.4 L1112.35,2395.1 L1112.04,2394.85 L1111.66,2394.49 L1111.53,2394.32 L1111.1,2393.5 L1110.58,2392.82 L1110.12,2392.26 L1109.98,2392.01 L1109.84,2391.81 L1109.26,2391.18 L1108.55,2390.75 L1108.13,2390.41 L1107.68,2389.98 L1107.31,2389.72 L1106.69,2389.1 L1106.34,2388.69 L1106.26,2388.55 L1106.06,2388.01 L1105.45,2386.79 L1105.4,2386.6 L1105.35,2386.29 L1105.28,2385.66 L1105.28,2384.79 L1105.31,2384.67 L1105.38,2384.48 L1105.54,2383.74 L1105.56,2383.4 L1105.54,2383.02 L1105.49,2382.63 L1105.34,2382.27 L1104.64,2381.12 L1103.95,2380.05 L1103.44,2379.29 L1103.24,2378.71 L1103.06,2377.7 L1103.13,2376.88 L1103.12,2376.24 L1102.93,2375.26 L1102.71,2374.6 L1102.21,2373.45 L1101.76,2372.6 L1101.68,2372.35 L1101.68,2371.77 L1101.8,2371.76 L1101.9,2371.71 L1102.09,2371.57 L1102.52,2371.08 L1103.27,2370.2 L1103.51,2370.08 L1104.09,2369.95 L1104.38,2369.84 L1104.71,2369.6 L1105.04,2369.2 L1105.32,2368.96 L1105.82,2368.71 L1106.25,2368.35 L1106.52,2367.95 L1107.18,2367.16 L1107.53,2366.91 L1108.09,2366.36 L1108.72,2365.87 L1109.86,2365.07 L1110.36,2364.65 L1110.64,2364.36 L1110.81,2364.07 L1110.97,2363.82 L1111.32,2363.48 L1109.57,2360.67 L1108.59,2359.09 L1108.33,2358.66 L1107.98,2358.11 L1107.57,2357.45 L1107.06,2356.63 L1106.64,2355.95 L1104.82,2353.01 L1103.52,2350.93 L1102.13,2348.67 L1097.12,2340.6 L1096.56,2339.33 L1095.37,2337.6 L1094.54,2335.67 L1094.97,2335.72 L1096.01,2335.81 L1096.18,2335.84 L1096.54,2335.98 L1097,2336.06 L1097.29,2336.05 L1098.05,2335.8 L1098.59,2335.72 L1099.17,2335.61 L1099.56,2335.44 L1100.01,2335.16 L1100.98,2334.66 L1101.39,2334.51 L1102.04,2334.35 L1101.86,2329.18 L1101.75,2325.9 L1101.63,2322.41 L1102.01,2318.44 L1102.14,2317.13 L1102.35,2314.9 L1104.09,2315.04 L1107.54,2315.34 L1109.02,2306.37 L1110.92,2305.35 L1111.94,2304.43 L1112.94,2303.39 L1113.77,2301.79 L1113.68,2298.45 L1113.35,2298.47 L1111.94,2298.38 L1110.35,2298.26 L1109.88,2298.15 L1109.06,2297.84 L1107.88,2297.63 L1107.51,2297.48 L1106.83,2297.1 L1106.5,2296.86 L1105.6,2296.08 L1105.44,2296.02 L1104.28,2295.89 L1103.84,2295.78 L1103.53,2295.64 L1103.19,2295.33 L1102.91,2294.97 L1102.66,2294.76 L1102.31,2294.58 L1101.87,2294.4 L1101.48,2294.31 L1101.15,2294.28 L1100.51,2294.3 L1099.59,2294.24 L1098.87,2294.25 L1098.23,2294.14 L1097.28,2294 L1096.81,2293.79 L1095.74,2293.1 L1094.58,2292.72 L1094.41,2292.64 L1093.5,2292.61 L1092.96,2292.4 L1092.42,2292.6 L1091.1,2292.77 L1090.75,2292.76 L1090.3,2292.67 L1090.28,2290.59 L1090.43,2290.63 L1090.57,2289.92 L1090.27,2289.74 L1090.28,2287.63 L1090.28,2285.82 L1094.03,2286.1 L1093.57,2282.26 L1093.01,2277.48 L1092.61,2270.76 L1091.18,2269.59 L1083.11,2270.93 L1078.86,2271.19 L1072.26,2271.4 L1070.42,2271.69 L1069.13,2271.65 L1066.12,2269.51 L1065.83,2268.83 L1065.83,2267.92 L1066.32,2265.78 L1066.28,2264.88 L1066.29,2250.51 L1066.26,2246.57 L1066.69,2237.44 L1067.03,2234.8 L1066.27,2232.8 L1067.71,2231.41 L1068.3,2231.57 L1068.59,2230.96 L1068.46,2229.88 L1069.16,2229.4 L1069.26,2228.02 L1066.99,2226.99 L1042.47,2226.82 L1040.38,2227.01 L1031.47,2226.93 L1022.45,2226.86 L1021.89,2227.43 L1021.61,2227.94 L1021.54,2228.46 L1021.41,2229.73 L1021.25,2229.95 L1020.26,2230.36 L1020.05,2230.5 L1019.89,2231.02 L1019.43,2231.61 L1019.11,2231.78 L1018.79,2231.85 L1018.47,2232.09 L1017.03,2232.68 L1014.16,2233.34 L1013.61,2233.72 L1013.32,2234.12 L1012.74,2234.47 L1011.58,2234.9 L1011.11,2235.29 L1009.94,2236.22 L1009.69,2236.54 L1009.51,2237.56 L1008.99,2239.62 L1008.87,2240.29 L1008.88,2240.71 L1009.19,2241.45 L1009.17,2241.61 L1008.84,2241.97 L1008.74,2242.19 L1008.89,2242.59 L1009.63,2243.85 L1009.75,2244.35 L1010.08,2244.83 L1010.11,2245.04 L1010.04,2245.21 L1009.83,2245.63 L1009.77,2245.97 L1009.94,2247.53 L1009.88,2248 L1009.75,2248.25 L1009.56,2248.35 L1009.29,2249.48 L1007.68,2252.89 L1007.4,2253.86 L1007.31,2254.59 L1007.4,2255.35 L1007.99,2257.07 L1008.02,2257.64 L1009.05,2260.05 L1009.32,2262.06 L1010.09,2263.28 L1010.21,2264.06 L1012.85,2264.72 L1018.02,2264.86 L1018.54,2265.74 L1018.33,2267.03 L1017.75,2269.02 L1016.55,2271.58 L1016.5,2273.02 L1016.18,2274.06 L1015.74,2274.77 L1015.07,2274.74 L1012.88,2274.02 L1011.41,2274.21 L1010.2,2274.79 L1009.57,2275.3 L1009.03,2275.22 L1008.62,2274.74 L1008.55,2274.2 L1008.85,2272.71 L1008.86,2271.42 L1008.6,2270.74 L1006.44,2269.47 L1003.03,2267.4 L1002.09,2267.43 L1001.66,2267.84 L1001.58,2268.63 L1002.22,2271.72 L1002.05,2272.52 L1001.48,2273.38 L1000.71,2273.8 L999.78,2274.02 L999.337,2274.04 L998.681,2273.51 L998.613,2272.92 L998.686,2272.08 L998.857,2271.24 L998.488,2270.46 L997.624,2269.59 L996.189,2267.76 L994.938,2267.15 L994.6,2267.36 L994.278,2268.11 L994.206,2268.96 L994.299,2270.39 L994.656,2271.59 L994.6,2272.16 L994.241,2272.49 L993.898,2272.55 L993.596,2272.36 L991.76,2269.53 L990.649,2268.65 L989.71,2268.53 L988.852,2268.65 L988.348,2269.09 L988.191,2269.59 L988.328,2270.05 L988.587,2270.47 L988.581,2271.06 L988.243,2271.29 L987.825,2271.31 L987.297,2270.95 L985.966,2269.34 L985.513,2269 L985.17,2269.06 L984.548,2269.68 L983.944,2270.04 L983.257,2270.14 L981.83,2270.18 L981.039,2270.08 L979.243,2270.16 L978.005,2269.96 L977.551,2269.6 L977.542,2269.33 L977.778,2268.97 L979.085,2268.24 L979.634,2267.68 L979.666,2267.14 L979.405,2266.65 L978.83,2266.4 L977.792,2266.26 L976.737,2266.41 L975.967,2266.98 L975.334,2268.01 L975.201,2268.49 L974.982,2268.57 L974.655,2268.36 L974.332,2267.48 L973.736,2266.53 L973.411,2266.37 L972.918,2266.36 L971.937,2266.51 L971.394,2266.48 L971.04,2266.17 L970.574,2265.44 L970.345,2265.23 L969.362,2265.31 L967.86,2265.31 L966.909,2265.63 L965.745,2266.21 L964.854,2266.86 L964.138,2267.6 L963.503,2268.56 L963.219,2268.91 L962.017,2269.87 L961.139,2270.14 L959.225,2270.35 L957.821,2270.35 L956.781,2270.18 L955.992,2270.16 L953.691,2270.6 L951.648,2270.64 L950.489,2270.6 L949.987,2270.53 L949.376,2270.44 L948.066,2269.52 L947.126,2268.63 L946.35,2267.45 L945.966,2266.22 L945.996,2265.63 L946.154,2264.39 L946.242,2263.27 L945.847,2262.47 L945.586,2262.01 L944.938,2261.78 L944.509,2261.45 L944.375,2261.13 L944.461,2260.71 L944.889,2260.23 L945.752,2259.48 L946.155,2259 L946.266,2258.6 L946.205,2258.26 L945.746,2257.75 L945.486,2257.32 L945.399,2256.9 L945.536,2256.57 L946.043,2256.26 L947.655,2255.81 L948.722,2255.26 L950.143,2254.23 L950.449,2253.77 L950.606,2253.3 L950.6,2252.33 L950.885,2252 L951.911,2251.72 L952.319,2251.36 L952.353,2250.89 L952.067,2250.43 L951.54,2250.1 L950.223,2249.77 L948.865,2249.69 L947.453,2249.44 L946.084,2249.01 L944.964,2248.65 L944.503,2248.1 L944.431,2247.41 L944.709,2246.83 L945.522,2246.06 L945.927,2245.63 L945.982,2245.01 L942.334,2230.31 L938.978,2217.85 L936.623,2217.79 L934.514,2218.59 L934.447,2219.58 L934.644,2221.11 L934.371,2223.35 L933.357,2225.56 L931.75,2227.74 L930.413,2229.07 L927.411,2229.26 L925.354,2228.14 L922.735,2226.44 L922.441,2226.5 L921.592,2226.93 L919.733,2227.36 L918.224,2227.21 L917.372,2226.79 L916.587,2226.13 L915.894,2224.54 L914.925,2223.53 L914.13,2223.36 L911.396,2224.19 L908.455,2224.73 L907.209,2224.83 L906.655,2224.58 L906.525,2224.5 L905.248,2223.16 L903.073,2219.96 L901.345,2216.9 L901.171,2216.12 L901.288,2215.17 L902.547,2209.93 L904.079,2208.5 L904.539,2207.49 L904.505,2206.45 L904.477,2205.61 L904.601,2204.87 L905.025,2204.26 L905.791,2203.54 L909.068,2201.16 L914.153,2198.27 L916.035,2196.97 L916.941,2196 L918.765,2189.85 L919.004,2188.11 L918.549,2186.24 L918.024,2183.73 L918.069,2182.1 L918.585,2178.22 L919.213,2176.27 L919.366,2174.47 L918.906,2172.7 L918.79,2172.06 L918.828,2171.16 L919.287,2170.78 L920.031,2170.56 L920.367,2170.34 L921.213,2169.9 L921.796,2169.84 L922.07,2169.39 L922.489,2168.52 L923.594,2168.26 L923.83,2167.55 L925.461,2166.92 L928.195,2164.23 L928.642,2163.31 L930.194,2163.21 L931.876,2161.58 L934.348,2160.71 L934.48,2158.34 L935.426,2158.13 L934.927,2156.79 L925.986,2142.54 L926.355,2141.33 L927.932,2139.81 L940.604,2131.39 L949.257,2125.69 L950.125,2124.82 L950.552,2116.61 L950.808,2113.12 L985.753,2112.57 L986.2,2111.65 L986.358,2094.45 L985.937,2085.4 L989.4,2086.97 L991.801,2089.27 L993.589,2088.93 L999.058,2090.24 L1000.08,2090.9 L1004.53,2092.45 L1003.55,2091.32 L1003.48,2090.73 L1003.63,2089.98 L1003.6,2089.51 L1003.31,2089.14 L1002.8,2088.69 L1002.59,2088.25 L1002.6,2086.88 L1002.43,2086.19 L1002.05,2085.19 L1002.03,2084.54 L1002.15,2083.62 L1002.52,2082.72 L1002.95,2082.18 L1004.77,2081.16 L1005.42,2080.45 L1006.19,2078.93 L1007.01,2076.82 L1007.53,2075.74 L1008.15,2075.05 L1009.41,2074.42 L1010.05,2074.25 L1011.31,2074.28 L1012.91,2074.63 L1014.32,2074.71 L1020.67,2075.01 L1023.3,2074.36 L1023.3,2067.71 L1026.29,2067.32 L1036.76,2067.21 L1037.42,2067.5 L1051.54,2067.47 L1052.86,2066.97 L1052.25,2054.72 L1051.95,2053.41 L1051.89,2049.61 L1051.81,2045.17 L1051.65,2043.35 L1051.85,2036.75 L1051.97,2032.34 L1053.54,2031.18 L1084.74,2030.95 L1084.53,2017.27 L1084.53,2014.3 L1083.87,1996.65 L1067.96,1990.27 L1067.33,1988.5 L1067.43,1977.62 L1067.91,1975.12 L1068.02,1972.28 L1068.34,1971.32 L1067.63,1970.65 L1066.03,1970.2 L1063.94,1968.32 L1061.21,1966.66 L1055.6,1964.74 L1051.13,1962.89 L1051.39,1955.42 L1050.76,1955.53 L1050.48,1955.45" vector-effect="none" fill-rule="evenodd"/>
  </g>
  <g stroke-linecap="square" font-size="34.5833" transform="matrix(0.999744,0,0,0.999744,0,0)" stroke="#000000" stroke-linejoin="bevel" font-weight="400" font-family="MS Shell Dlg 2" stroke-width="1" font-style="normal" fill="none" stroke-opacity="1"/>
  <g stroke-linecap="square" font-size="34.5833" transform="matrix(11.808,0,0,11.808,0,0)" stroke="#000000" stroke-linejoin="bevel" font-weight="400" font-family="MS Shell Dlg 2" stroke-width="1" font-style="normal" fill="none" stroke-opacity="1"/>
  <g stroke-linecap="square" font-size="34.5833" transform="matrix(11.808,0,0,11.808,0,0)" stroke="#000000" stroke-linejoin="bevel" font-weight="400" font-family="MS Shell Dlg 2" stroke-width="1" font-style="normal" fill="none" stroke-opacity="1"/>
  <g stroke-linecap="square" font-size="34.5833" transform="matrix(11.808,0,0,11.808,0,0)" stroke="#000000" stroke-linejoin="bevel" font-weight="400" font-family="MS Shell Dlg 2" stroke-width="1" font-style="normal" fill="none" stroke-opacity="1"/>
  <g stroke-linecap="square" font-size="34.5833" transform="matrix(1,0,0,1,0,0)" stroke="#000000" stroke-linejoin="bevel" font-weight="400" font-family="MS Shell Dlg 2" stroke-width="1" font-style="normal" fill="none" stroke-opacity="1"/>
  <g stroke-linecap="square" font-size="34.5833" transform="matrix(11.808,0,0,11.808,0,0)" stroke="#000000" stroke-linejoin="bevel" font-weight="400" font-family="MS Shell Dlg 2" stroke-width="1" font-style="normal" fill="none" stroke-opacity="1"/>
  <g stroke-linecap="square" font-size="34.5833" transform="matrix(11.808,0,0,11.808,0,0)" stroke="#000000" stroke-linejoin="bevel" font-weight="400" font-family="MS Shell Dlg 2" stroke-width="1" font-style="normal" fill="none" stroke-opacity="1"/>
  <g stroke-linecap="square" font-size="34.5833" transform="matrix(11.808,0,0,11.808,0,0)" stroke="#000000" stroke-linejoin="bevel" font-weight="400" font-family="MS Shell Dlg 2" stroke-width="1" font-style="normal" fill="none" stroke-opacity="1"/>
  <g stroke-linecap="square" font-size="34.5833" transform="matrix(11.808,0,0,11.808,0,0)" stroke="#000000" stroke-linejoin="bevel" font-weight="400" font-family="MS Shell Dlg 2" stroke-width="1" font-style="normal" fill="none" stroke-opacity="1"/>
  <g stroke-linecap="square" font-size="34.5833" transform="matrix(1,0,0,1,0,0)" stroke="#000000" stroke-linejoin="bevel" font-weight="400" font-family="MS Shell Dlg 2" stroke-width="1" font-style="normal" fill="none" stroke-opacity="1"/>
 </g>
</svg>
