<?xml version='1.0' encoding='UTF-8' standalone='no'?>
<svg baseProfile="tiny" version="1.2" xmlns:xlink="http://www.w3.org/1999/xlink" viewBox="0 0 2952 2952" width="249.936mm" height="249.936mm" xmlns="http://www.w3.org/2000/svg">
 <title>Qt SVG Document</title>
 <desc>Generated with Qt</desc>
 <defs/>
 <g stroke="black" stroke-linejoin="bevel" fill-rule="evenodd" stroke-linecap="square" stroke-width="1" fill="none">
  <g stroke="#000000" stroke-linejoin="bevel" stroke-linecap="square" font-style="normal" font-size="34.5833" font-family="MS Shell Dlg 2" font-weight="400" stroke-width="1" stroke-opacity="1" transform="matrix(1,0,0,1,0,0)" fill="none"/>
  <g stroke="#000000" stroke-linejoin="bevel" stroke-linecap="square" font-style="normal" font-size="34.5833" font-family="MS Shell Dlg 2" font-weight="400" stroke-width="1" stroke-opacity="1" transform="matrix(1,0,0,1,0,0)" fill="none"/>
  <g stroke="#000000" stroke-linejoin="bevel" stroke-linecap="square" font-style="normal" font-size="34.5833" font-family="MS Shell Dlg 2" font-weight="400" stroke-width="1" stroke-opacity="1" transform="matrix(11.808,0,0,11.808,0,0)" fill="none"/>
  <g stroke="#000000" stroke-linejoin="bevel" stroke-linecap="square" font-style="normal" font-size="34.5833" font-family="MS Shell Dlg 2" font-weight="400" stroke-width="1" stroke-opacity="1" transform="matrix(0.999744,0,0,0.999744,0,0)" fill="none"/>
  <g stroke="none" font-style="normal" font-size="34.5833" font-family="MS Shell Dlg 2" font-weight="400" fill-opacity="0" transform="matrix(0.999744,0,0,0.999744,0,0)" fill="#ffffff">
   <path fill-rule="evenodd" d="M-2,-2 L2955,-2 L2955,2955 L-2,2955 L-2,-2" vector-effect="none"/>
  </g>
  <g stroke="#000000" stroke-linejoin="bevel" stroke-linecap="square" font-style="normal" font-size="34.5833" font-family="MS Shell Dlg 2" font-weight="400" stroke-width="1" stroke-opacity="1" transform="matrix(0.999744,0,0,0.999744,0,0)" fill="none"/>
  <g stroke="#000000" stroke-linejoin="bevel" stroke-linecap="square" font-style="normal" font-size="34.5833" font-family="MS Shell Dlg 2" font-weight="400" stroke-width="1" stroke-opacity="1" transform="matrix(11.808,0,0,11.808,0,0)" fill="none"/>
  <g stroke="#000000" stroke-linejoin="bevel" stroke-linecap="square" font-style="normal" font-size="34.5833" font-family="MS Shell Dlg 2" font-weight="400" stroke-width="1" stroke-opacity="1" transform="matrix(11.808,0,0,11.808,0,0)" fill="none"/>
  <g stroke="#000000" stroke-linejoin="bevel" stroke-linecap="square" font-style="normal" font-size="34.5833" font-family="MS Shell Dlg 2" font-weight="400" stroke-width="1" stroke-opacity="1" transform="matrix(11.808,0,0,11.808,0,0)" fill="none"/>
  <g stroke="#000000" stroke-linejoin="bevel" stroke-linecap="square" font-style="normal" font-size="34.5833" font-family="MS Shell Dlg 2" font-weight="400" stroke-width="1" stroke-opacity="1" transform="matrix(11.808,0,0,11.808,0,0)" fill="none"/>
  <g stroke="#000000" stroke-linejoin="bevel" stroke-linecap="square" font-style="normal" font-size="34.5833" font-family="MS Shell Dlg 2" font-weight="400" stroke-width="1" stroke-opacity="1" transform="matrix(11.808,0,0,11.808,0,0)" fill="none"/>
  <g stroke="none" font-style="normal" font-size="34.5833" font-family="MS Shell Dlg 2" font-weight="400" fill-opacity="0" transform="matrix(11.808,0,0,11.808,0,0)" fill="#ffffff">
   <path fill-rule="evenodd" d="M0,0 L250,0 L250,250 L0,250 L0,0" vector-effect="none"/>
  </g>
  <g stroke="#000000" stroke-linejoin="bevel" stroke-linecap="square" font-style="normal" font-size="34.5833" font-family="MS Shell Dlg 2" font-weight="400" stroke-width="1" stroke-opacity="1" transform="matrix(11.808,0,0,11.808,0,0)" fill="none"/>
  <g stroke="#000000" stroke-linejoin="bevel" stroke-linecap="square" font-style="normal" font-size="34.5833" font-family="MS Shell Dlg 2" font-weight="400" stroke-width="1" stroke-opacity="1" transform="matrix(11.808,0,0,11.808,0,0)" fill="none"/>
  <g stroke="none" font-style="normal" font-size="34.5833" font-family="MS Shell Dlg 2" font-weight="400" fill-opacity="0" transform="matrix(0.999744,0,0,0.999744,0,0)" fill="#000000">
   <rect y="0" x="0" width="2953" height="2953"/>
  </g>
  <g stroke="#000000" stroke-linejoin="bevel" stroke-linecap="square" font-style="normal" font-size="34.5833" font-family="MS Shell Dlg 2" font-weight="400" stroke-width="1" stroke-opacity="1" transform="matrix(0.999744,0,0,0.999744,0,0)" fill="none"/>
  <g stroke="#5c5c5c" stroke-linejoin="bevel" stroke-linecap="square" font-style="normal" font-size="34.5833" font-family="MS Shell Dlg 2" font-weight="400" stroke-width="3.07087" fill-opacity="1" stroke-opacity="1" transform="matrix(0.999744,0,0,0.999744,0,0)" fill="#c5c5c5">
   <path fill-rule="evenodd" d="M2475.57,1675.64 L2462.91,1689.72 L2442.16,1687.89 L2418.73,1711.19 L2404.34,1730.22 L2394.7,1741.94 L2392.91,1744.15 L2388.11,1750 L2372.07,1759.25 L2351.41,1781.97 L2347.45,1787.08 L2345.99,1790.84 L2345.63,1795.32 L2345.97,1803.18 L2347.64,1811.15 L2350.02,1818.19 L2359.44,1845.23 L2359.77,1851.46 L2359.04,1854.43 L2356.34,1857.05 L2352.19,1859.52 L2341.68,1864.56 L2334.25,1868.87 L2328.42,1873.68 L2321.88,1880.29 L2303.2,1900.32 L2300.64,1902.24 L2297.54,1903.75 L2292.8,1905.15 L2285.49,1905.76 L2280.38,1906.79 L2276.17,1908.46 L2235.79,1933.76 L2226.43,1939.63 L2222.1,1943.77 L2219.24,1949.66 L2218.65,1959.31 L2218.26,1969.25 L2217.48,1973.16 L2215.6,1976.23 L2202.91,1985.39 L2189.23,1994.44 L2180.37,2004.57 L2170.8,2015.49 L2166.4,2020.52 L2163.36,2021.87 L2159.75,2022.77 L2153.8,2023.07 L2133.93,2021.2 L2116.81,2025.94 L2104.03,2028.34 L2099.86,2028.94 L2082.26,2029.77 L2066.69,2029.62 L2060.91,2029.57 L2054.32,2030.25 L2047.61,2031.81 L2040.05,2034.59 L2032.27,2041.65 L2022.63,2053.68 L2017.54,2061.07 L2011.8,2067.06 L2009.39,2068.43 L2005.26,2069.84 L1997.24,2071.78 L1992.36,2072.36 L1986.89,2074.36 L1981.1,2077.98 L1970.97,2089.69 L1968.57,2090.61 L1958.66,2094.32 L1938.89,2093.43 L1925.99,2089.3 L1914.09,2089.6 L1908.33,2089.72 L1904.05,2088.61 L1877.44,2073.97 L1873.51,2072.04 L1868.57,2067.81 L1864.94,2065.09 L1861.53,2062.43 L1852.46,2057.75 L1848.04,2056.52 L1847.24,2056.32 L1842.59,2055.96 L1839.58,2055.7 L1832.59,2056.18 L1825.49,2057.13 L1818.55,2059.27 L1807.56,2062.13 L1802.98,2062.98 L1798.29,2063.2 L1792.36,2062.36 L1778.99,2059.49 L1771.64,2055.19 L1764.58,2051.83 L1757.03,2047.91 L1756.23,2047.62 L1747.74,2044.64 L1734.51,2042.66 L1724.42,2043.12 L1715.49,2044.97 L1709.69,2046.69 L1700.11,2050.53 L1689.96,2053.65 L1680.72,2057.73 L1656.42,2066.95 L1638.56,2073.78 L1628.95,2079.01 L1611.82,2090.21 L1604.78,2096.35 L1594.17,2105.48 L1580.27,2120.56 L1571.12,2133.07 L1563.77,2143.84 L1553.63,2158.72 L1545.64,2169.66 L1535.11,2185.51 L1529.63,2193.58 L1526.16,2198.64 L1521.16,2205.98 L1511.47,2219.69 L1503.45,2231.35 L1496.85,2240.98 L1484.85,2256.88 L1474.92,2270.92 L1459.76,2293.51 L1441.27,2319.12 L1429.59,2337.93 L1429.8,2340.96 L1426.54,2348.02 L1421.62,2354.2 L1410.8,2366.14 L1386.84,2398.06 L1354.21,2445.68 L1315.22,2500.44 L1307.71,2511.97 L1284.54,2546.87 L1282.18,2550.43 L1231.83,2621.94 L1202.53,2663.16 L1197.41,2669.79 L1192.08,2676.68 L1189.36,2674.72 L1179.55,2667.64 L1169.74,2660.25 L1163.9,2650.69 L1162.33,2647.93 L1160.95,2645.89 L1159.56,2644.11 L1158.07,2642.59 L1141.96,2628.11 L1138.42,2624.88 L1135.42,2622.13 L1134.35,2621.2 L1128.63,2615.94 L1127.35,2614.79 L1113.87,2602.37 L1096.83,2586.65 L1091.01,2581.09 L1089.25,2579.29 L1087.05,2577.32 L1084.09,2574.79 L1082.11,2572.96 L1074.31,2565.81 L1058.6,2551.66 L1057.24,2550.42 L1054.69,2547.91 L1054.27,2547.53 L1052.73,2546.12 L1032.21,2527.44 L1030.61,2525.96 L1030.39,2525.74 L1026.36,2522 L1019.53,2515.67 L1017.5,2513.79 L1014.49,2510.99 L1009.11,2506.01 L1006.24,2503.34 L998.247,2495.93 L993.027,2491.09 L991.604,2489.59 L990.437,2488.34 L988.078,2486.08 L983.29,2481.9 L976.534,2476.01 L973.593,2473.45 L970.876,2470.86 L961.743,2462.15 L959.196,2460.1 L957.565,2458.95 L955.017,2457.32 L952.828,2456.13 L947.356,2453.4 L944.765,2452.52 L940.953,2451.23 L930.744,2448.6 L926.054,2447.36 L921.152,2446.06 L917.087,2444.5 L915.018,2443.12 L911.708,2440.91 L909.27,2438.65 L907.37,2436.73 L904.418,2432.48 L903.356,2430.63 L902.608,2428.84 L901.168,2424.72 L899.007,2418.3 L898.25,2415.19 L897.459,2412.75 L896.403,2410.08 L895.65,2408.27 L894.367,2405.8 L893.268,2403.82 L891.868,2401.61 L889.974,2399.06 L887.523,2396.25 L883.192,2392.36 L881.578,2390.91 L873.991,2384.08 L872.683,2382.9 L868.437,2378.93 L867.969,2378.5 L867.416,2378.01 L866.207,2377.2 L863.078,2375.08 L862.535,2374.71 L856.287,2369.12 L853.17,2365.97 L849.683,2362.57 L844.293,2357.89 L832.203,2346.89 L830.782,2345.56 L829.104,2344 L827.298,2342.32 L827.096,2342.14 L823.172,2338.51 L820.885,2336.37 L814.292,2330.23 L805.358,2322.12 L799.97,2317.19 L796.084,2313.55 L794.738,2312.31 L783.364,2301.8 L775.701,2294.72 L774.299,2293.48 L772.55,2291.9 L771.587,2291.03 L759.971,2280.48 L738.461,2259.41 L733.852,2254.86 L731.203,2252.5 L728.878,2250.24 L724.174,2246.04 L717.302,2239.95 L708.758,2232.05 L708.36,2231.65 L708.006,2231.35 L702.062,2225.86 L694.881,2219.22 L690.23,2214.91 L685.747,2210.77 L675.47,2201.36 L670.748,2196.89 L665.082,2191.72 L662.987,2189.89 L660.88,2187.96 L655.773,2183.42 L646.589,2174.91 L637.23,2166.24 L628.08,2157.4 L627.295,2156.72 L617.431,2147.54 L615.367,2145.76 L612.372,2143.13 L607.059,2138.11 L596.956,2128.69 L595.777,2127.57 L593.635,2125.59 L591.82,2123.92 L586.654,2119.38 L576.398,2109.88 L571.263,2105.12 L566.272,2100.57 L559.397,2094.24 L558.184,2093.18 L557.166,2092.34 L552.687,2088.12 L552.253,2087.71 L542.092,2078.27 L532.403,2069.29 L531.578,2068.52 L521.918,2059.47 L521.316,2058.92 L520.079,2057.77 L509.858,2048.32 L498.611,2037.92 L496.977,2036.41 L488.056,2028.16 L482.203,2022.75 L475.559,2016.71 L473.506,2014.95 L467.817,2009.86 L467.247,2009.35 L459.233,2002.74 L446.64,1991.65 L445.632,1990.73 L442.976,1988.31 L441.186,1983.54 L440.569,1981.64 L439.872,1979.77 L437.901,1975.07 L437.87,1974.3 L437.469,1966.7 L436.942,1955.89 L436.428,1944.61 L435.998,1934.44 L435.811,1929.23 L435.659,1925.67 L435.594,1923.3 L435.544,1921.07 L435.128,1915.61 L434.576,1902 L434.515,1900.44 L434.44,1899.03 L434.252,1895.14 L433.411,1882.7 L433.316,1880.95 L433.074,1876.45 L433.013,1875.35 L432.957,1874.31 L432.839,1872.12 L432.51,1866.45 L432.011,1858.57 L431.822,1853.83 L431.447,1844.39 L431.389,1842.25 L431.361,1841.23 L431.251,1837.18 L431.194,1835.11 L431.039,1829.43 L430.86,1822.83 L430.672,1815.94 L430.442,1812.57 L429.481,1796.2 L429.451,1794.91 L429.406,1793.01 L429.38,1791.95 L429.084,1786.86 L428.88,1783.35 L428.274,1773.9 L427.9,1767.29 L427.816,1765.53 L427.74,1764.07 L427.712,1763.47 L427.569,1760.91 L427.46,1758.09 L427.303,1754.73 L426.495,1741.37 L425.949,1738.92 L423.178,1732.09 L422.95,1730.69 L419.476,1719.54 L419.283,1716.28 L424.201,1696.82 L424.27,1694.32 L424.256,1693.71 L424.125,1690.94 L424.111,1690.65 L423.958,1687.67 L423.305,1675.6 L423.206,1673.71 L422.696,1663.42 L422.533,1660.12 L422.356,1656.74 L422.186,1653.11 L421.872,1646.75 L421.656,1641.94 L421.625,1641.33 L421.195,1633.07 L421.081,1630.76 L420.844,1625.97 L420.685,1622.77 L420.353,1616.04 L420.199,1612.92 L419.424,1594.59 L419.402,1593.73 L419.364,1592.64 L419.263,1590.13 L419.216,1588.99 L418.965,1584.49 L418.308,1577.22 L418.215,1575.26 L418.171,1574.21 L418.08,1572.02 L417.6,1560.48 L417.486,1557.47 L417.23,1552.97 L417.104,1549.83 L417.007,1546.86 L416.837,1542.4 L416.448,1535.33 L416.084,1528.62 L415.73,1519.13 L415.47,1510.18 L415.396,1509.19 L415.266,1507.09 L415.179,1505.13 L415.102,1503.4 L414.926,1499.42 L414.814,1497.25 L414.598,1493.3 L414.444,1490.74 L414.354,1489.7 L414.263,1488.32 L413.998,1483.37 L413.719,1478.46 L413.618,1476.69 L412.881,1463.82 L412.704,1459.04 L412.763,1457.65 L412.815,1457.18 L412.955,1456.53 L416.932,1445.9 L417.941,1443.33 L419.41,1439.55 L421.581,1433.81 L424.502,1425.98 L424.926,1424.98 L430.319,1410.78 L431.183,1408.56 L434.646,1400.43 L435.934,1397.99 L436.796,1396.19 L438.076,1392.76 L438.401,1391.75 L438.601,1391.22 L442.714,1380.17 L449.029,1364.01 L449.651,1362.4 L450.414,1360.34 L456.67,1344.02 L459.896,1335.69 L460.134,1335.07 L460.395,1334.4 L464.582,1323.58 L464.87,1322.85 L465.43,1321.44 L466.677,1318.3 L467.057,1317.34 L469.585,1310.31 L470.074,1309.06 L470.696,1307.43 L471.273,1305.92 L475.885,1294.05 L477.856,1288.76 L477.964,1288.47 L478.196,1287.85 L478.236,1287.74 L478.382,1287.35 L479.395,1285.01 L479.911,1283.83 L481.899,1277.83 L483.367,1273.81 L485.405,1268.56 L486.15,1266.62 L489.582,1257.71 L490.885,1254.3 L493.425,1247.68 L495.313,1243.41 L495.983,1242.72 L496.333,1242.03 L498.21,1236.41 L499.187,1233.23 L499.856,1231.31 L500.281,1229.68 L500.626,1227.74 L500.867,1225.52 L501.209,1223.24 L501.542,1222.23 L502.227,1220.82 L503.425,1219.3 L504.615,1218.02 L505.554,1217.24 L506.802,1216.37 L507.674,1215.86 L508.555,1211.79 L511.717,1200.59 L513.403,1196.1 L518.731,1181.75 L520.362,1178.68 L521.285,1176.39 L521.772,1175.15 L522.659,1172.81 L523.287,1171.18 L525.302,1165.9 L528.478,1157.48 L529.439,1155.01 L534.607,1141.9 L536.028,1137.72 L537.074,1135.12 L541.312,1124.4 L542.458,1121.45 L548.816,1105.08 L549.585,1103.15 L550.122,1101.77 L551.077,1099.23 L552.993,1094.23 L553.667,1092.31 L567.336,1056.75 L567.633,1055.98 L569.936,1049.72 L574.453,1038.48 L575.287,1036.44 L575.849,1035.07 L581.935,1018.9 L585.346,1010.23 L589.607,998.934 L590.897,995.232 L592.408,990.674 L598.428,974.77 L600.266,970.149 L601.969,965.867 L603.16,962.595 L604.047,960.16 L604.91,957.778 L605.192,957.002 L606.308,953.934 L608.355,947.508 L610.679,939.809 L614.08,930.921 L615.899,926.168 L616.366,924.947 L616.632,924.251 L616.764,923.913 L618.297,920.017 L618.868,918.562 L619.993,915.585 L621.842,910.729 L630.725,887.981 L631.038,887.187 L631.144,886.919 L632.795,882.715 L634.741,877.763 L635.974,874.57 L637.588,870.392 L640.291,863.921 L643.311,856.049 L644.585,852.548 L646.847,846.387 L648.46,842.08 L649.395,839.582 L650.79,835.947 L651.445,834.237 L652.264,831.991 L653.024,830.293 L655.783,824.131 L658.71,817.513 L665.924,801.91 L667.409,798.206 L670.152,791.607 L684.44,753.765 L689.171,741.495 L690.983,736.796 L694.589,727.295 L695.344,725.39 L695.881,723.898 L696.457,722.064 L696.662,721.313 L698.205,715.729 L698.822,713.821 L703.59,701.583 L706.195,694.902 L707.045,692.717 L708.627,688.661 L710.205,685.11 L712.807,679.779 L715.579,673.368 L716.189,671.959 L717.054,669.817 L717.395,668.794 L717.925,667.278 L720.542,660.153 L723.726,651.629 L725.791,646.334 L726.612,644.339 L728.876,638.705 L729.838,636.41 L729.995,636.063 L731.964,631.061 L737.437,616.241 L739.342,611.037 L739.729,609.694 L740.103,607.933 L740.899,602.353 L741.261,599.89 L741.431,598.949 L741.749,597.905 L744.348,591.158 L749.107,580.288 L749.742,578.761 L753.326,570.483 L754.41,569.021 L755.376,567.578 L757.225,564.796 L758.185,564.342 L762.58,561.86 L772.067,556.446 L780.849,551.137 L789.865,545.931 L797.438,541.282 L803.601,537.676 L811.323,533.248 L828.666,523.658 L845.114,514.563 L853.049,509.876 L854.591,508.984 L856.737,507.744 L860.916,505.328 L862.361,504.542 L868.963,500.951 L877.11,496.427 L880.035,494.836 L885.113,492.339 L893.14,488.257 L901.43,484.265 L905.521,482.424 L907.754,481.417 L910.864,480.02 L913.749,478.46 L914.646,477.973 L915.693,477.383 L919.721,475.475 L928.021,471.794 L935.986,467.541 L936.992,466.973 L943.985,463.184 L952.087,459.039 L968.617,449.864 L970.205,448.97 L972.992,447.381 L975.704,445.726 L976.146,445.452 L976.872,444.999 L977.709,444.479 L978.837,443.779 L981.261,442.273 L981.594,442.066 L983.304,441.003 L984.202,440.445 L985.804,439.446 L999.386,431.312 L1006.99,426.515 L1014.82,421.573 L1016.56,420.585 L1018.28,419.648 L1021.79,417.728 L1024.51,416.186 L1024.71,416.073 L1026.99,414.749 L1027.79,414.268 L1028.61,413.782 L1030.95,412.642 L1037.43,409.502 L1041.95,407.117 L1049.07,403.797 L1057.36,400.233 L1059.24,399.424 L1062.29,398.235 L1076.2,392.953 L1078.01,392.199 L1087.28,388.287 L1092.28,385.904 L1094.04,385.044 L1099.77,382.056 L1111.22,376.086 L1112.39,375.477 L1113.28,375.026 L1113.75,374.768 L1114.86,374.218 L1116.39,373.302 L1118.77,371.37 L1120.47,369.664 L1121.63,368.709 L1123.15,367.777 L1124.63,366.929 L1125.69,366.456 L1130.71,364.921 L1139.15,360.959 L1143.08,358.799 L1149.14,354.695 L1165.05,345.68 L1191.1,319.384 L1190.94,318.718 L1191.18,318.121 L1191.57,317.541 L1192.28,316.987 L1192.83,315.693 L1193.5,314.482 L1193.76,311.467 L1193.22,308.602 L1193.91,306.154 L1193.64,303.467 L1193.87,302.08 L1194.69,300.99 L1195.25,299.095 L1195.99,297.848 L1196.54,296.482 L1198.22,294.814 L1199.48,292.787 L1200.31,290.62 L1202.69,286.304 L1204.84,282.872 L1206.42,280.335 L1210,275.679 L1211.46,274.126 L1213.13,271.679 L1213.29,266.508 L1213.63,265.413 L1214.09,264.794 L1215.24,263.319 L1216.67,262.619 L1217.19,261.203 L1219.14,260.609 L1219.84,259.893 L1220.52,259.924 L1221.02,259.537 L1221.62,259.718 L1223.41,258.765 L1225.3,257.625 L1227.29,256.57 L1229.61,255.726 L1233.33,255.064 L1236.82,255.218 L1240.17,255.869 L1242.44,256.75 L1245.22,258.282 L1246.88,259.516 L1256.59,266.705 L1257.35,267.421 L1258.13,268.465 L1263.49,276.385 L1272.65,289.923 L1274.33,292.4 L1292.24,299.374 L1296.27,300.851 L1297.85,301.846 L1299.01,303.319 L1299.75,304.706 L1300.18,306.196 L1300.27,308.174 L1299.85,309.991 L1295.03,319.128 L1297.09,322.806 L1299.47,325.143 L1300.28,324.781 L1300.97,324.732 L1305.98,327.063 L1309.19,329.442 L1310.6,335.408 L1311.46,342.456 L1313.25,347.884 L1317.79,360.683 L1318.8,366.575 L1318.56,372.933 L1315.07,376.815 L1311.68,377.031 L1285.65,378.686 L1281.57,382.864 L1279.53,384.955 L1275.82,388.61 L1272.32,392.292 L1269.59,395.118 L1268.63,396.132 L1267.73,397.08 L1265.91,400.523 L1265.42,402.245 L1265.01,403.101 L1265.3,403.423 L1265.98,406.138 L1266.31,406.145 L1266.51,407.151 L1267.66,411.424 L1269.29,414.571 L1269.89,415.724 L1271.7,419.226 L1276.63,423.002 L1279.53,424.573 L1283.19,426.558 L1283.62,426.788 L1287.44,428.857 L1288.17,429.164 L1294.7,431.929 L1300.37,419.654 L1303.15,416.305 L1304.82,414.301 L1311.77,408.871 L1314.85,406.469 L1318.16,403.485 L1319.64,401.977 L1320.47,401.127 L1319.16,387.026 L1318.85,383.726 L1320.87,383.264 L1324.66,380.353 L1325.21,379.333 L1326.2,378.64 L1327.1,378.333 L1329.13,376.812 L1329.79,376.473 L1330.92,376.596 L1331.49,377.058 L1332.77,378.653 L1332.7,379.888 L1332.06,380.862 L1326.98,384.647 L1326.15,385.94 L1326.07,387.238 L1326.71,388.897 L1333.68,399.56 L1333.76,400.917 L1335.1,401.676 L1341.76,398.286 L1342.59,397.16 L1341.63,396.261 L1339.91,395.722 L1339.91,395.074 L1340.45,393.646 L1344.87,389.658 L1348.11,387.761 L1353.85,384.578 L1356.12,383.912 L1357.77,382.805 L1359.58,382.155 L1360.98,381.762 L1362.39,381.683 L1364.32,381.891 L1366.4,381.694 L1370.24,381.985 L1374.24,383.187 L1384.71,385.379 L1386.38,385.912 L1389.42,387.725 L1389.88,387.148 L1390.13,386.784 L1399.06,392.954 L1404.95,400.19 L1405.99,399.864 L1406.47,399.644 L1410.83,408.414 L1413.07,407.892 L1413.47,407.811 L1413.66,407.763 L1415.55,417.581 L1417.88,417.623 L1418.32,417.636 L1418.44,417.639 L1418.29,425.26 L1421.18,425.246 L1420.74,434.831 L1421.52,434.856 L1421.5,435.399 L1426.25,435.546 L1426.27,435.095 L1426.95,435.111 L1426.96,434.696 L1428.07,434.702 L1428.1,432.581 L1429.5,433.472 L1431.34,434.795 L1432.44,435.349 L1433.64,436.466 L1434.47,436.851 L1435.24,437.132 L1435.91,437.454 L1436.95,437.851 L1437.44,437.952 L1437.93,438.095 L1438.99,438.525 L1440.56,437.925 L1442.51,437.308 L1444.85,436.723 L1448.18,436.063 L1452.17,435.908 L1455.93,436.262 L1458.05,436.552 L1459.38,436.767 L1459.96,436.862 L1460.5,436.952 L1462.51,437.409 L1464.4,437.906 L1467.1,438.907 L1469.5,440.102 L1472.28,441.958 L1475.43,444.434 L1479.24,448.178 L1482.01,451.847 L1484.61,456.89 L1487.05,462.453 L1487.32,463.76 L1487.87,466.331 L1488.87,469.424 L1490.89,472.3 L1492.76,474.201 L1495.13,476.137 L1496.38,476.745 L1496.78,476.942 L1498.12,477.644 L1502.15,479.688 L1505.76,481.776 L1508.63,483.583 L1512,486.028 L1515.56,488.734 L1519.29,491.912 L1522.19,494.97 L1523.88,497 L1525.4,499.09 L1527.16,501.641 L1528.68,504.327 L1531.11,509.461 L1532.18,512.477 L1533.34,515.515 L1535.39,519.786 L1538.67,524.996 L1539.6,526.386 L1541.22,528.438 L1542.88,530.471 L1543.82,532.227 L1544.28,533.323 L1544.74,534.874 L1544.87,535.826 L1545,537.286 L1544.79,538.927 L1544.3,540.813 L1543.36,542.687 L1542.36,544.149 L1541.17,545.41 L1543.51,548.386 L1545.18,551.886 L1545.85,554.185 L1550.26,552.469 L1555.48,550.228 L1559.32,548.181 L1562.85,546.757 L1566.86,545.56 L1570.59,545.267 L1574.3,545.518 L1576.91,546.507 L1581.41,548.766 L1585.31,551.613 L1585.23,551.899 L1586.89,552.977 L1586.41,554.131 L1586.76,554.287 L1586.64,554.473 L1588.03,555.258 L1588.3,555.412 L1589.07,554.342 L1591.26,556.281 L1592.23,559.362 L1593.13,560.213 L1590.83,566.288 L1591.12,567.091 L1585.78,580.08 L1585.82,580.788 L1583.67,586.566 L1580.06,594.784 L1580.64,595.074 L1581.06,595.288 L1580.45,596.5 L1584.91,598.898 L1585.91,596.587 L1590.04,598.379 L1589.04,600.69 L1589.3,600.818 L1589.67,601.002 L1601.57,605.969 L1602.02,604.755 L1603.03,605.155 L1602.58,606.396 L1610.72,609.349 L1620.74,612.415 L1621.31,610.499 L1627.18,612.211 L1626.72,614.16 L1645.73,619.767 L1648.19,620.491 L1648.67,620.255 L1652.96,621.183 L1660.61,622.118 L1667.88,623.334 L1676.02,625.148 L1683.1,626.565 L1689.5,628.234 L1696.67,630.365 L1696.73,630.197 L1697.04,629.658 L1697.45,629.182 L1697.93,628.783 L1698.12,629.377 L1698.21,629.995 L1698.2,630.617 L1698.2,630.724 L1708.51,634.2 L1717.74,637.857 L1717.85,637.648 L1718.21,637.207 L1718.66,636.774 L1719.18,636.425 L1719.31,637.03 L1719.34,637.649 L1719.26,638.264 L1719.22,638.368 L1726.76,641.596 L1736.62,646.95 L1745.32,652.728 L1752.2,656.873 L1752.35,656.657 L1752.77,656.244 L1753.25,655.914 L1753.79,655.678 L1753.83,656.261 L1753.76,656.842 L1753.6,657.404 L1753.49,657.638 L1754.85,658.438 L1762.25,662.545 L1763.29,661.531 L1763.77,662 L1764.13,661.66 L1764.7,661.226 L1765.33,660.895 L1766,660.675 L1766.71,660.572 L1767.42,660.589 L1768.12,660.726 L1768.78,660.98 L1769.39,661.342 L1769.94,661.801 L1770.39,662.347 L1770.75,662.962 L1771,663.628 L1771.13,664.327 L1771.15,665.039 L1771.04,665.742 L1770.81,666.417 L1770.48,667.044 L1770.04,667.605 L1770.52,668.058 L1769.6,669.067 L1770.23,670.59 L1771.61,674.46 L1771.82,675.734 L1772.03,677.467 L1772.09,678.711 L1772.17,679.691 L1772.26,680.419 L1772.47,681.806 L1772.69,682.803 L1773.33,684.51 L1773.33,684.96 L1773.09,685.377 L1772.59,685.67 L1772.9,686.142 L1773.39,686.85 L1773.8,687.319 L1775.35,689.116 L1776.24,689.078 L1777,689.227 L1777.68,689.6 L1778.49,690.347 L1779.64,692.117 L1789.77,704.091 L1794.07,709.861 L1796.87,713.786 L1799.95,717.818 L1802.58,721.317 L1806.03,725.188 L1821.87,743.019 L1822.15,743.454 L1822.44,744.058 L1822.57,744.684 L1822.59,745.373 L1822.48,745.979 L1822.26,746.613 L1825.83,750.679 L1826.19,750.357 L1823.82,746.558 L1826.43,744.975 L1832,754.253 L1832.38,754.978 L1831.82,755.342 L1832.58,756.105 L1833.85,757.044 L1834.98,757.715 L1836.11,758.283 L1837.2,758.775 L1838.35,759.209 L1839.5,759.582 L1840.7,759.88 L1841.85,760.103 L1843.38,760.268 L1845.01,760.342 L1846.22,760.283 L1847.43,760.164 L1848.67,759.955 L1849.85,759.671 L1850.99,759.357 L1851.99,758.984 L1852.99,758.463 L1853.99,757.851 L1854.98,757.059 L1855.87,756.179 L1856.71,755.253 L1857.47,754.448 L1857.8,754.149 L1858.44,753.686 L1858.95,753.388 L1860.22,752.671 L1861.29,752.253 L1861.77,752.134 L1862.23,752.06 L1862.77,752.015 L1863.25,752.09 L1863.8,752.268 L1864.34,752.537 L1864.93,752.955 L1865.16,753.209 L1865.44,753.537 L1865.71,754.075 L1865.84,754.641 L1865.87,755.044 L1865.9,755.463 L1865.78,755.851 L1865.56,756.313 L1865.37,756.611 L1864.87,757.313 L1865.61,757.842 L1865.4,758.156 L1865.37,758.486 L1863.28,761.524 L1864.78,762.763 L1864.39,763.387 L1864.81,763.597 L1865.16,763.828 L1865.46,764.141 L1865.66,764.439 L1866.21,763.956 L1867.72,765.156 L1872.09,760.786 L1872.73,761.337 L1878.85,756.369 L1880.61,756.096 L1884.06,757.117 L1885.73,757.94 L1889.18,759.97 L1891.8,762.59 L1899.81,770.291 L1902.57,772.205 L1904.25,774.117 L1905.74,774.848 L1907.53,775.008 L1909.37,776.551 L1910.23,778.431 L1910.82,780.001 L1910.94,781.631 L1910.4,784.046 L1909.42,786.272 L1907.8,788.079 L1904.8,789.6 L1902.54,790.275 L1902.01,791.368 L1901.39,792.634 L1900.96,794.994 L1900.32,797.155 L1899.48,798.355 L1898.32,799.663 L1897.22,801.1 L1894.31,802.883 L1880.48,819.966 L1875.1,826.912 L1873.47,828.999 L1874.81,829.869 L1876.3,830.927 L1887.95,816.211 L1898.72,803.458 L1903.24,797.622 L1904.77,796.567 L1906.99,796.315 L1908.45,796.807 L1914.93,800.136 L1917.63,804.146 L1925.45,818.118 L1928.44,823.389 L1928.43,824.392 L1928.67,826.413 L1928.51,827.816 L1930.3,830.211 L1932.06,832.188 L1933.17,831.026 L1934.56,830.866 L1935.73,831.685 L1940.54,841.175 L1945.15,851.232 L1947.44,855.973 L1953.26,868.584 L1953.93,868.788 L1962.55,874.649 L1965.02,876.367 L1968.68,878.911 L1984.82,890.141 L1986.8,891.514 L1990.83,894.322 L1998.01,899.314 L2000.21,900.845 L2004.27,903.668 L2007.48,905.9 L2009.74,907.494 L2016.83,896.55 L2024.11,885.756 L1980.04,855.004 L1973.38,849.987 L1972.88,848.555 L1973.03,847.181 L1973.82,845.127 L1975.17,843.031 L1978.58,840.04 L1979.99,836.783 L1981.33,834.04 L1983.51,833.259 L2027.65,828.91 L2053.92,826.322 L2055.56,825.742 L2055.86,824.432 L2056.93,822.158 L2058.01,821.563 L2059.4,821.039 L2062.62,820.03 L2063.82,819.925 L2081.85,820.212 L2084.39,820.721 L2085.97,821.552 L2087.23,822.429 L2088.27,823.896 L2089.82,833.894 L2090.41,844.001 L2090.04,845.143 L2090.07,847.711 L2090.49,847.771 L2090.55,848.218 L2090.52,848.645 L2085.18,849.124 L2085.41,850.695 L2085.63,850.725 L2085.7,851.89 L2086.11,851.927 L2086.21,851.763 L2088.04,853.001 L2088.29,852.479 L2089.28,853.19 L2089.02,853.709 L2117.13,873.075 L2117.26,873.306 L2117.65,878.935 L2117.63,879.146 L2117.52,879.272 L2057.91,884.971 L2058.01,886.171 L2057.86,886.216 L2057.97,887.067 L2058.09,887.067 L2058.16,888.038 L2077.59,901.457 L2148.16,894.651 L2148.37,894.714 L2181.08,917.369 L2201.12,931.252 L2201.69,936.81 L2201.49,937.201 L2201.24,937.433 L2142.1,943.061 L2142.13,943.586 L2141.92,943.571 L2141.96,944.332 L2141.78,944.332 L2141.87,945.078 L2142.04,945.063 L2142.13,946.079 L2161.44,959.555 L2232.26,952.781 L2261.65,973.21 L2261.79,973.358 L2262.28,978.912 L2262.13,979.317 L2202.84,985.022 L2202.6,985.151 L2202.5,985.329 L2202.57,986.285 L2202.41,986.285 L2202.5,987.061 L2202.62,987.061 L2202.77,988.001 L2202.9,988.187 L2220.7,1000.44 L2302.54,992.593 L2302.73,992.762 L2305.04,1016.96 L2304.86,1017.26 L2251.87,1022.53 L2252.14,1025.11 L2265.01,1038.19 L2322.12,1032.64 L2322.26,1032.82 L2324.55,1057.22 L2279.9,1061.29 L2279.67,1061.7 L2281.49,1078.15 L2281.61,1078.29 L2281.86,1078.41 L2325.19,1074.26 L2325.42,1074.34 L2325.59,1074.57 L2326.75,1086.62 L2325.07,1086.77 L2325,1087.8 L2324.56,1089.31 L2323.79,1090.08 L2322.72,1090.63 L2262.97,1105.31 L2232.86,1112.57 L2232.24,1113.56 L2231.82,1114.32 L2232.67,1117.39 L2232.81,1117.95 L2236.01,1120.25 L2237.54,1121.23 L2239.81,1121.2 L2240.01,1121.23 L2241.96,1121.55 L2243.61,1122.05 L2245.52,1122.94 L2246.81,1123.84 L2248.19,1125.4 L2249.88,1128.22 L2271.93,1169.09 L2272.1,1169.65 L2272.12,1170.2 L2271.99,1170.76 L2276.68,1184.16 L2277.11,1184.47 L2277.54,1185.06 L2277.85,1185.75 L2286.95,1183.04 L2304.36,1181.69 L2306.57,1183.57 L2308.52,1181.26 L2316.58,1180.61 L2317.07,1181.06 L2317.23,1181.03 L2318.43,1180.35 L2319.82,1179.86 L2333.56,1178.79 L2334.49,1178.79 L2334.8,1178.98 L2334.96,1179.18 L2335.37,1179.63 L2335.73,1179.78 L2337.4,1179.03 L2352.95,1177.75 L2354.03,1178.1 L2357.5,1179.19 L2359.58,1179.89 L2362.05,1180.69 L2363.04,1180.8 L2364.61,1181.23 L2366.22,1181.92 L2367.47,1182.21 L2368.41,1182.21 L2369.56,1182.53 L2370.65,1183.38 L2371.47,1184.24 L2371.98,1185.05 L2372.93,1185.84 L2374.02,1186.44 L2374.68,1187.51 L2374.77,1188.44 L2375.56,1188.84 L2376.37,1189.99 L2377.22,1190.96 L2378.56,1192.27 L2380.87,1193.92 L2383.07,1195.39 L2384.58,1196.51 L2386.41,1197.72 L2387.9,1198.91 L2389.38,1199.72 L2390.89,1200.91 L2391.89,1201.68 L2393.5,1202.91 L2394.4,1203.87 L2395.56,1205.03 L2396.2,1205.66 L2396.87,1206.36 L2397.77,1207.51 L2398.45,1208.93 L2399.25,1210.87 L2400.04,1212.35 L2400.47,1213.7 L2400.89,1214.87 L2401.68,1215.91 L2402.56,1216.84 L2403.22,1218.05 L2403.98,1219.21 L2404.4,1220.09 L2405.24,1221.54 L2407.75,1224.05 L2413.86,1230.93 L2418.13,1234.29 L2420.64,1235.74 L2423.77,1236.06 L2425.54,1237.84 L2427.08,1240.33 L2432.35,1245.99 L2434.44,1248.39 L2436.04,1249.89 L2438.87,1251.76 L2442.33,1254.94 L2444.75,1257.5 L2446.28,1258.83 L2447.51,1259.41 L2449.56,1260.42 L2451.31,1261.48 L2452.96,1263.16 L2454.61,1265.85 L2455.64,1267.49 L2457.3,1268.32 L2459.86,1269.04 L2462.18,1270.49 L2463.68,1272.44 L2466.12,1276.12 L2466.94,1278.22 L2467.98,1279.9 L2468.41,1281.74 L2468.32,1287.56 L2468.33,1290.4 L2468.54,1291.69 L2469.84,1294.08 L2470.55,1296.8 L2471.28,1299.16 L2471.77,1304.41 L2472.58,1309.47 L2473.56,1311.54 L2474.72,1313.66 L2475.21,1316.31 L2475.28,1319.07 L2475.65,1321.91 L2475.94,1323.68 L2475.04,1324.76 L2475.31,1328.31 L2475.49,1331.4 L2477.06,1335.16 L2478.05,1337.98 L2479.4,1340.6 L2480.93,1342.51 L2485.19,1345.62 L2494.23,1352.36 L2496.38,1353.32 L2498.88,1354.86 L2502.49,1358.47 L2507.32,1362.82 L2509.63,1364.78 L2511.76,1367.26 L2523.76,1378.01 L2527.07,1381.41 L2528.79,1383.66 L2530.02,1385.97 L2532.77,1389.82 L2534.07,1392.39 L2539.2,1413.02 L2541.63,1424.68 L2542.92,1431.47 L2544.14,1439.01 L2545.46,1450.6 L2546.07,1455.62 L2545.81,1462.77 L2545.56,1464.48 L2544.9,1466.72 L2542.35,1469.7 L2539.67,1472.63 L2536.7,1475.07 L2533.42,1477.14 L2527.79,1478.03 L2522.45,1478.48 L2515.61,1478.31 L2511.79,1479.16 L2505.33,1482.38 L2493.03,1486.44 L2489.66,1487.2 L2485.54,1486.15 L2491.78,1489.79 L2498.64,1489.06 L2504.35,1490.93 L2500.3,1493.22 L2499.88,1494.78 L2504.87,1496.75 L2523.7,1497.53 L2528.16,1497.59 L2541.03,1499.68 L2544.18,1497.94 L2552.14,1498.14 L2561.34,1500.37 L2567.06,1510.45 L2570.21,1517.41 L2571.51,1526.26 L2571.81,1532.12 L2575.07,1537.57 L2575.99,1543.18 L2575.84,1546.48 L2575.81,1547.32 L2576.82,1549.73 L2573.98,1550.66 L2571.6,1553.71 L2567.8,1554.98 L2564.09,1555.03 L2554.6,1553.41 L2547.44,1553.26 L2542.52,1554.44 L2538.61,1555.22 L2532.1,1554.2 L2530.22,1554.45 L2527.15,1556.06 L2524.1,1556.77 L2521.69,1556.39 L2520.73,1555.07 L2520.76,1554.42 L2520.46,1553.52 L2520.46,1552.92 L2521.33,1552.09 L2521.84,1550.86 L2521.75,1549.52 L2520.87,1548.81 L2518.54,1548.7 L2513.8,1550.15 L2509.29,1554.01 L2516.73,1563.23 L2516.77,1561.9 L2518.05,1561.34 L2518.51,1560.84 L2519.06,1560.37 L2519.21,1560.24 L2519.5,1559.99 L2519.86,1560.02 L2520.79,1559.4 L2522.25,1559.06 L2535.8,1558.98 L2542.89,1561.92 L2560.7,1579.85 L2563,1580.47 L2563.16,1580.7 L2563.01,1581.28 L2565.21,1581.9 L2565.34,1581.25 L2565.56,1581.14 L2565.65,1581.18 L2565.77,1581.36 L2565.64,1582.03 L2567.82,1582.69 L2567.98,1581.93 L2568.19,1581.98 L2567.99,1582.8 L2568.01,1583.15 L2568.33,1583.27 L2569.17,1582.29 L2569.34,1582.16 L2576.37,1584.06 L2597.28,1605.05 L2597.31,1614.22 L2600.01,1630.7 L2475.57,1675.64" vector-effect="none"/>
   <path fill-rule="evenodd" d="M2207.35,811.445 L2204.42,813.833 L2199.65,814.608 L2195.88,816.1 L2191.17,817.533 L2186.03,817.713 L2182.39,817.592 L2178.57,817.653 L2173.26,818.011 L2168.3,818.906 L2164.51,819.644 L2158.61,818.795 L2155.68,820.651 L2153.53,823.331 L2153.53,824.842 L2153.1,826.761 L2152.67,829.064 L2153.07,831.326 L2155.3,833.528 L2160.63,837.481 L2164.78,838.547 L2172.13,837.608 L2178.56,838.821 L2183.92,840.885 L2188.84,844.277 L2191.17,848.695 L2190.99,853.293 L2189.24,855.631 L2191.47,855.978 L2193.66,854.847 L2195.94,854.277 L2197.97,853.292 L2202.12,852.725 L2205.94,852.128 L2209.59,851.681 L2214.69,851.56 L2218.9,851.114 L2222.81,851.918 L2232.18,852.337 L2240.3,851.502 L2245.2,851.502 L2247.58,853.233 L2248.66,855.592 L2218.75,858.487 L2215.54,858.727 L2161.33,864.079 L2153.04,866.698 L2150.96,868.191 L2150.04,868.278 L2150.04,866.292 L2149.78,865.713 L2147.73,865.773 L2147.49,866.696 L2146.77,868.442 L2146.01,868.376 L2146.39,866.396 L2145.74,865.82 L2139.5,866.401 L2143.25,868.709 L2161.3,882.044 L2169.86,888.236 L2196.47,906.758 L2197.33,908.258 L2195.56,907.738 L2155.59,880.068 L2144.72,871.322 L2138.25,866.711 L2130.67,861.319 L2111.77,847.86 L2110.22,847.203 L2108.72,846.906 L2093.86,848.337 L2093.79,847.907 L2093.68,847.292 L2094.5,847.161 L2093.94,843.85 L2093.51,821.701 L2094.16,820.013 L2094.86,819.113 L2095.3,818.699 L2096.65,817.986 L2229.26,804.021 L2229.59,804.044 L2229.91,804.169 L2230.17,804.382 L2230.35,804.666 L2230.44,804.992 L2230.42,805.358 L2230.28,805.697 L2230.04,805.971 L2229.72,806.15 L2229.36,806.213 L2228.99,806.153 L2228.67,805.973 L2228.29,805.773 L2227.78,805.636 L2208.09,807.795 L2208.6,810.31 L2207.35,811.445" vector-effect="none"/>
  </g>
  <g stroke="#000000" stroke-linejoin="bevel" stroke-linecap="square" font-style="normal" font-size="34.5833" font-family="MS Shell Dlg 2" font-weight="400" stroke-width="1" stroke-opacity="1" transform="matrix(0.999744,0,0,0.999744,0,0)" fill="none"/>
  <g stroke="#000000" stroke-linejoin="bevel" stroke-linecap="square" font-style="normal" font-size="34.5833" font-family="MS Shell Dlg 2" font-weight="400" stroke-width="1" stroke-opacity="1" transform="matrix(11.808,0,0,11.808,0,0)" fill="none"/>
  <g stroke="#000000" stroke-linejoin="bevel" stroke-linecap="square" font-style="normal" font-size="34.5833" font-family="MS Shell Dlg 2" font-weight="400" stroke-width="1" stroke-opacity="1" transform="matrix(11.808,0,0,11.808,0,0)" fill="none"/>
  <g stroke="#000000" stroke-linejoin="bevel" stroke-linecap="square" font-style="normal" font-size="34.5833" font-family="MS Shell Dlg 2" font-weight="400" stroke-width="1" stroke-opacity="1" transform="matrix(11.808,0,0,11.808,0,0)" fill="none"/>
  <g stroke="#000000" stroke-linejoin="bevel" stroke-linecap="square" font-style="normal" font-size="34.5833" font-family="MS Shell Dlg 2" font-weight="400" stroke-width="1" stroke-opacity="1" transform="matrix(1,0,0,1,0,0)" fill="none"/>
  <g stroke="#000000" stroke-linejoin="bevel" stroke-linecap="square" font-style="normal" font-size="34.5833" font-family="MS Shell Dlg 2" font-weight="400" stroke-width="1" stroke-opacity="1" transform="matrix(11.808,0,0,11.808,0,0)" fill="none"/>
  <g stroke="#000000" stroke-linejoin="bevel" stroke-linecap="square" font-style="normal" font-size="34.5833" font-family="MS Shell Dlg 2" font-weight="400" stroke-width="1" stroke-opacity="1" transform="matrix(11.808,0,0,11.808,0,0)" fill="none"/>
  <g stroke="#000000" stroke-linejoin="bevel" stroke-linecap="square" font-style="normal" font-size="34.5833" font-family="MS Shell Dlg 2" font-weight="400" stroke-width="1" stroke-opacity="1" transform="matrix(11.808,0,0,11.808,0,0)" fill="none"/>
  <g stroke="#000000" stroke-linejoin="bevel" stroke-linecap="square" font-style="normal" font-size="34.5833" font-family="MS Shell Dlg 2" font-weight="400" stroke-width="1" stroke-opacity="1" transform="matrix(11.808,0,0,11.808,0,0)" fill="none"/>
  <g stroke="#000000" stroke-linejoin="bevel" stroke-linecap="square" font-style="normal" font-size="34.5833" font-family="MS Shell Dlg 2" font-weight="400" stroke-width="1" stroke-opacity="1" transform="matrix(1,0,0,1,0,0)" fill="none"/>
 </g>
</svg>
