<?xml version='1.0' encoding='UTF-8' standalone='no'?>
<svg baseProfile="tiny" version="1.2" xmlns:xlink="http://www.w3.org/1999/xlink" viewBox="0 0 2952 2952" width="249.936mm" height="249.936mm" xmlns="http://www.w3.org/2000/svg">
 <title>Qt SVG Document</title>
 <desc>Generated with Qt</desc>
 <defs/>
 <g stroke="black" stroke-linejoin="bevel" fill-rule="evenodd" stroke-linecap="square" stroke-width="1" fill="none">
  <g stroke="#000000" stroke-linejoin="bevel" stroke-linecap="square" font-style="normal" font-size="34.5833" font-family="MS Shell Dlg 2" font-weight="400" stroke-width="1" stroke-opacity="1" transform="matrix(1,0,0,1,0,0)" fill="none"/>
  <g stroke="#000000" stroke-linejoin="bevel" stroke-linecap="square" font-style="normal" font-size="34.5833" font-family="MS Shell Dlg 2" font-weight="400" stroke-width="1" stroke-opacity="1" transform="matrix(1,0,0,1,0,0)" fill="none"/>
  <g stroke="#000000" stroke-linejoin="bevel" stroke-linecap="square" font-style="normal" font-size="34.5833" font-family="MS Shell Dlg 2" font-weight="400" stroke-width="1" stroke-opacity="1" transform="matrix(11.808,0,0,11.808,0,0)" fill="none"/>
  <g stroke="#000000" stroke-linejoin="bevel" stroke-linecap="square" font-style="normal" font-size="34.5833" font-family="MS Shell Dlg 2" font-weight="400" stroke-width="1" stroke-opacity="1" transform="matrix(0.999744,0,0,0.999744,0,0)" fill="none"/>
  <g stroke="none" font-style="normal" font-size="34.5833" font-family="MS Shell Dlg 2" font-weight="400" fill-opacity="0" transform="matrix(0.999744,0,0,0.999744,0,0)" fill="#ffffff">
   <path fill-rule="evenodd" d="M-2,-2 L2955,-2 L2955,2955 L-2,2955 L-2,-2" vector-effect="none"/>
  </g>
  <g stroke="#000000" stroke-linejoin="bevel" stroke-linecap="square" font-style="normal" font-size="34.5833" font-family="MS Shell Dlg 2" font-weight="400" stroke-width="1" stroke-opacity="1" transform="matrix(0.999744,0,0,0.999744,0,0)" fill="none"/>
  <g stroke="#000000" stroke-linejoin="bevel" stroke-linecap="square" font-style="normal" font-size="34.5833" font-family="MS Shell Dlg 2" font-weight="400" stroke-width="1" stroke-opacity="1" transform="matrix(11.808,0,0,11.808,0,0)" fill="none"/>
  <g stroke="#000000" stroke-linejoin="bevel" stroke-linecap="square" font-style="normal" font-size="34.5833" font-family="MS Shell Dlg 2" font-weight="400" stroke-width="1" stroke-opacity="1" transform="matrix(11.808,0,0,11.808,0,0)" fill="none"/>
  <g stroke="#000000" stroke-linejoin="bevel" stroke-linecap="square" font-style="normal" font-size="34.5833" font-family="MS Shell Dlg 2" font-weight="400" stroke-width="1" stroke-opacity="1" transform="matrix(11.808,0,0,11.808,0,0)" fill="none"/>
  <g stroke="#000000" stroke-linejoin="bevel" stroke-linecap="square" font-style="normal" font-size="34.5833" font-family="MS Shell Dlg 2" font-weight="400" stroke-width="1" stroke-opacity="1" transform="matrix(11.808,0,0,11.808,0,0)" fill="none"/>
  <g stroke="#000000" stroke-linejoin="bevel" stroke-linecap="square" font-style="normal" font-size="34.5833" font-family="MS Shell Dlg 2" font-weight="400" stroke-width="1" stroke-opacity="1" transform="matrix(11.808,0,0,11.808,0,0)" fill="none"/>
  <g stroke="none" font-style="normal" font-size="34.5833" font-family="MS Shell Dlg 2" font-weight="400" fill-opacity="0" transform="matrix(11.808,0,0,11.808,0,0)" fill="#ffffff">
   <path fill-rule="evenodd" d="M0,0 L250,0 L250,250 L0,250 L0,0" vector-effect="none"/>
  </g>
  <g stroke="#000000" stroke-linejoin="bevel" stroke-linecap="square" font-style="normal" font-size="34.5833" font-family="MS Shell Dlg 2" font-weight="400" stroke-width="1" stroke-opacity="1" transform="matrix(11.808,0,0,11.808,0,0)" fill="none"/>
  <g stroke="#000000" stroke-linejoin="bevel" stroke-linecap="square" font-style="normal" font-size="34.5833" font-family="MS Shell Dlg 2" font-weight="400" stroke-width="1" stroke-opacity="1" transform="matrix(11.808,0,0,11.808,0,0)" fill="none"/>
  <g stroke="none" font-style="normal" font-size="34.5833" font-family="MS Shell Dlg 2" font-weight="400" fill-opacity="0" transform="matrix(0.999744,0,0,0.999744,0,0)" fill="#000000">
   <rect y="0" x="0" width="2953" height="2953"/>
  </g>
  <g stroke="#000000" stroke-linejoin="bevel" stroke-linecap="square" font-style="normal" font-size="34.5833" font-family="MS Shell Dlg 2" font-weight="400" stroke-width="1" stroke-opacity="1" transform="matrix(0.999744,0,0,0.999744,0,0)" fill="none"/>
  <g stroke="#5c5c5c" stroke-linejoin="bevel" stroke-linecap="square" font-style="normal" font-size="34.5833" font-family="MS Shell Dlg 2" font-weight="400" stroke-width="3.07087" fill-opacity="1" stroke-opacity="1" transform="matrix(0.999744,0,0,0.999744,0,0)" fill="#c5c5c5">
   <path fill-rule="evenodd" d="M584.404,1769.14 L584.434,1769.34 L593.342,1771.11 L613.149,1775.38 L623.833,1716.01 L626.174,1702.67 L627.082,1697.5 L626.777,1690.05 L625.866,1671.86 L625.61,1666.3 L625.345,1661.13 L625.333,1660.17 L625.307,1659.71 L625.27,1658.94 L625.226,1658.01 L624.526,1638.51 L623.836,1619.29 L623.681,1614.99 L622.49,1598.88 L621.6,1579.3 L620.695,1559.4 L619.978,1548.33 L619.896,1546.01 L619.846,1544.71 L619.843,1544.62 L619.768,1543.29 L619.621,1540.54 L619.578,1539.81 L619.285,1538.24 L617.932,1532.58 L614.703,1517.56 L613.104,1509.66 L609.636,1493.49 L601.043,1453.6 L592.514,1413.72 L592.101,1412.08 L591.841,1410.73 L591.118,1407.3 L587.494,1390.5 L591.781,1391.3 L596.844,1369.13 L605.053,1371.27 L604.614,1373.2 L622.403,1377.94 L629.596,1377.64 L646.267,1372.86 L655.39,1370.23 L658.839,1353.77 L659.805,1349.12 L670.764,1305.44 L662.654,1276.62 L680.123,1290.13 L673.946,1265.25 L673.58,1263.79 L659.862,1209.21 L670.965,1206.91 L668.459,1200.46 L680.243,1197.8 L684.725,1194.23 L684.476,1192.79 L687.292,1190.61 L689.878,1188.62 L695.943,1186.81 L679.927,1157.61 L668.417,1142.95 L692.048,1100.7 L705.055,1083.59 L707.218,1076.38 L745.265,1061.79 L747.129,1052.23 L764.304,979.507 L765.477,973.291 L766.438,968.803 L772.634,969.797 L780.401,933.043 L781.094,928.94 L786.171,929.896 L796.549,889.895 L791.156,888.917 L790.949,888.818 L790.966,888.702 L794.662,868.793 L804.328,870.746 L815.29,872.961 L817.006,864.425 L825.816,820.612 L834.156,778.292 L858.574,783.053 L871.11,717.774 L874.149,701.949 L882.345,703.681 L915.862,710.762 L915.565,670.131 L914.744,655.87 L914.316,650.237 L913.843,641.225 L907.926,640.665 L907.57,639.239 L907.911,635.913 L907.697,634.052 L907.747,629.869 L910.064,620.457 L909.27,618.777 L909.805,616.49 L910.01,608.569 L908.944,603.668 L905.395,594.023 L906.704,585.406 L904.963,577.425 L904.051,571.128 L901.448,565.122 L903.212,559.411 L901.91,553.741 L904.182,543.783 L907.294,535.822 L909.503,531.651 L911.365,531.024 L913.067,529.794 L915.171,527.585 L918.899,522.511 L921.856,517.319 L927.006,509.689 L916.849,472.575 L920.381,461.761 L954.392,405.62 L960.901,404.299 L968.498,367.513 L965.036,359.653 L998.192,269.693 L1031.01,180.66 L1057.2,184.415 L1065.56,185.613 L1066.23,195.084 L1083.21,197.958 L1149.38,209.161 L1157.98,165.836 L1201.29,170.668 L1204.47,170.616 L1221.4,171.906 L1223.24,171.9 L1327.28,172.341 L1372.57,185.385 L1417.12,185.591 L1443.25,152.713 L1485.42,152.863 L1505.89,152.941 L1526.36,153.02 L1534.06,153.047 L1547.1,153.093 L1567.77,153.161 L1588.32,153.239 L1609.08,153.319 L1665.14,153.527 L1719.35,153.726 L1774.61,153.93 L1828.38,154.101 L1868.02,154.27 L1875.26,153.925 L1908.22,154.036 L1970.26,154.393 L1974.39,154.259 L1977.69,154.27 L2002.73,154.488 L2027.2,154.68 L2031.41,154.713 L2031.46,154.713 L2049.21,154.818 L2081.62,155.258 L2100.46,155.53 L2118.05,155.756 L2130.27,155.946 L2137.33,155.906 L2154.77,155.953 L2179.27,155.943 L2195.78,155.953 L2203.93,155.946 L2216.03,155.935 L2228.24,155.912 L2235.3,155.896 L2277.01,155.838 L2276.98,176.661 L2276.96,197.222 L2276.98,201.632 L2276.97,230.09 L2276.97,251.062 L2276.96,274.513 L2276.93,300.638 L2276.93,301.948 L2276.87,319.254 L2276.9,324.347 L2276.9,328.948 L2276.9,331.393 L2276.66,332.47 L2276.67,348.956 L2276.72,360.019 L2276.74,395.178 L2276.76,415.634 L2276.79,444.097 L2276.79,473.362 L2276.8,496.287 L2276.79,496.505 L2276.79,496.704 L2276.77,496.929 L2276.75,497.012 L2276.84,513.522 L2276.75,549.351 L2276.75,693.549 L2276.68,698.82 L2276.67,755.064 L2276.72,781.867 L2276.59,849.477 L2276.51,919.865 L2276.98,1280.3 L2276.99,1323.78 L2276.9,1436.05 L2276.88,1436.36 L2275.74,1444.41 L2272.26,1468.77 L2266.5,1509.43 L2265.96,1513.27 L2265.6,1515.75 L2265.59,1515.82 L2263.68,1529.25 L2263.21,1532.52 L2262.41,1537.97 L2262.31,1538.65 L2262.26,1539.01 L2262.07,1540.28 L2261.67,1542.97 L2260.36,1551.97 L2259.86,1555.28 L2258.96,1561.44 L2258.83,1562.29 L2257.31,1572.46 L2254.79,1589.49 L2254.2,1593.14 L2250.49,1618.14 L2249.92,1621.96 L2248.58,1630.61 L2246.94,1642.54 L2246.8,1643.5 L2245.78,1650.11 L2243.16,1667.27 L2242.62,1670.9 L2240.46,1685.37 L2240.04,1688.11 L2239.9,1689.03 L2239.43,1692.06 L2236.52,1711.98 L2235.77,1717.1 L2235.45,1719.24 L2233.15,1734.92 L2232.04,1742.55 L2230.34,1753.76 L2229.61,1758.6 L2229.03,1762.49 L2226.96,1776.25 L2226.32,1781 L2225.43,1786.63 L2224.16,1795.32 L2217.77,1838.22 L2217.65,1839.06 L2216.18,1849.17 L2214.68,1859.43 L2213.32,1868.71 L2213.06,1870.48 L2212.98,1871.01 L2212.97,1871.04 L2212.74,1872.56 L2211.82,1878.94 L2211.03,1884.18 L2210.97,1884.61 L2210.64,1886.94 L2210.09,1890.61 L2209.6,1893.94 L2209.59,1893.99 L2209.03,1897.88 L2207.61,1907.48 L2207.21,1910.25 L2206.59,1914.59 L2206.5,1915.12 L2206.42,1915.7 L2206.33,1916.28 L2206.3,1916.55 L2205.47,1922.42 L2205.06,1924.93 L2203.95,1932.69 L2203.93,1932.81 L2203.06,1938.71 L2202.37,1943.45 L2202.23,1944.36 L2200.77,1954.34 L2199.58,1962.44 L2199.45,1963.32 L2197.95,1973.57 L2197.11,1979.31 L2196.86,1980.99 L2196.27,1985.01 L2195.18,1992.62 L2194.22,1999.3 L2192.51,2010.79 L2191.72,2016.19 L2191.12,2020.39 L2190.4,2025.07 L2189.12,2033.7 L2187.61,2043.98 L2186.14,2053.92 L2185.21,2060.36 L2185.16,2060.68 L2184.59,2064.68 L2184.57,2064.82 L2184.52,2065.04 L2184.51,2065.08 L2184.48,2065.13 L2184.47,2065.33 L2177.78,2110.78 L2175.58,2125.75 L2175.57,2125.78 L2172.98,2143.5 L2171.69,2152.3 L2170.29,2161.82 L2168.14,2176.51 L2168.12,2176.57 L2165.76,2192.49 L2162.88,2211.68 L2161.36,2221.77 L2153.14,2277.45 L2153.12,2277.63 L2149,2305.25 L2147.25,2316.97 L2145.82,2326.59 L2143.08,2345.19 L2142.16,2351.5 L2140.93,2359.64 L2140.7,2361.4 L2138.35,2377.14 L2136.45,2389.8 L2128.88,2440.57 L2128.59,2442.5 L2128.5,2443.11 L2128.15,2445.33 L2124.86,2467.19 L2123.89,2473.67 L2122.92,2480.11 L2121.94,2486.64 L2120.95,2493.17 L2119,2506.17 L2118.37,2510.32 L2117.05,2519.12 L2116.54,2522.54 L2115.05,2532.45 L2113.16,2544.98 L2111.3,2557.38 L2110.51,2562.59 L2107.6,2584.48 L2105.95,2595.93 L2104.4,2606.71 L2097.54,2650.77 L2092.28,2686.4 L2087.22,2722.06 L2086.53,2727.14 L2086.4,2728.02 L2086.03,2730.51 L2085.16,2736.25 L2084.72,2739.09 L2083.7,2746.02 L2083.43,2747.86 L2083.23,2749.24 L2082.9,2751.48 L2082.16,2756.48 L2081.93,2758.09 L2081.12,2763.59 L2072.88,2822.55 L2059.81,2774.9 L2055.09,2757.84 L2051.85,2746.15 L1883.1,2744.22 L1882.49,2742.25 L1882.52,2740.27 L1882.1,2737.92 L1881.17,2735.42 L1879.27,2732.87 L1878.23,2730.99 L1876.12,2727.5 L1874.77,2725.91 L1873.69,2724.97 L1871.85,2724.28 L1871.1,2723.26 L1870.64,2722.01 L1869.62,2721.38 L1868.31,2720.96 L1867.13,2720.2 L1865.29,2718.48 L1864.21,2717.25 L1862.26,2714.1 L1861.44,2713.36 L1860.56,2712.71 L1859.27,2712.02 L1857.92,2710.71 L1857.24,2709.87 L1856.71,2708.72 L1855.41,2707.91 L1854.43,2706.98 L1853.77,2705.97 L1852.68,2705.02 L1851.51,2704.75 L1850.81,2704.45 L1850.38,2704.21 L1849.79,2703.76 L1849.22,2703.14 L1848.84,2702.61 L1848.49,2701.86 L1848.27,2701.14 L1848.13,2700.46 L1848.11,2700.27 L1848.16,2700.12 L1848.24,2699.91 L1848.25,2699.81 L1848.24,2699.58 L1848.28,2699.39 L1848.33,2699.24 L1848.27,2699.03 L1848.16,2698.89 L1847.97,2698.63 L1847.78,2698.44 L1847.67,2698.34 L1847.6,2698.22 L1847.54,2698.11 L1847.53,2698 L1847.54,2697.78 L1847.53,2697.56 L1847.53,2697.42 L1847.48,2697.19 L1847.45,2697.1 L1847.42,2696.81 L1847.42,2696.67 L1847.51,2696.49 L1847.62,2696.26 L1847.67,2695.97 L1847.69,2695.73 L1847.67,2695.54 L1847.61,2695.4 L1847.56,2695.27 L1847.56,2695.16 L1847.58,2695.05 L1847.55,2694.92 L1847.49,2694.75 L1847.42,2694.57 L1847.39,2694.47 L1847.4,2694.36 L1847.42,2694.18 L1847.44,2694.05 L1847.41,2693.95 L1847.28,2693.71 L1847.25,2693.42 L1847.25,2693.11 L1847.28,2693.01 L1847.38,2692.91 L1847.47,2692.78 L1847.48,2692.71 L1847.48,2692.64 L1847.46,2692.51 L1847.44,2692.4 L1847.46,2692.33 L1847.5,2692.28 L1847.62,2692.23 L1847.77,2692.19 L1847.89,2692.11 L1848.08,2691.91 L1848.21,2691.67 L1848.29,2691.44 L1848.35,2691.27 L1848.42,2690.9 L1848.53,2690.49 L1848.6,2690.32 L1848.66,2690.09 L1848.62,2689.78 L1848.5,2689.57 L1848.18,2689.09 L1847.9,2688.72 L1847.68,2688.45 L1847.6,2688.29 L1847.57,2688.12 L1847.65,2687.89 L1847.81,2687.73 L1847.96,2687.6 L1848.27,2687.29 L1848.4,2687.14 L1848.62,2686.68 L1848.79,2686.3 L1849.02,2685.83 L1849.12,2685.46 L1849.04,2685.14 L1848.91,2684.82 L1848.8,2684.66 L1848.64,2684.55 L1848.29,2684.36 L1848.04,2684.18 L1847.85,2683.79 L1847.73,2682.96 L1847.55,2682.43 L1847.48,2682.12 L1847.34,2681.9 L1847.07,2681.58 L1846.91,2681.28 L1846.9,2681.06 L1846.95,2680.71 L1846.99,2680.09 L1846.91,2679.58 L1846.83,2679.35 L1846.77,2679.17 L1846.76,2679 L1846.75,2678.86 L1846.71,2678.72 L1846.63,2678.63 L1846.36,2677.94 L1846.24,2677.81 L1846.09,2677.69 L1845.85,2677.52 L1845.71,2677.37 L1845.67,2677.1 L1845.64,2676.77 L1845.63,2676.15 L1845.61,2674.92 L1845.58,2674.58 L1845.64,2673.92 L1845.7,2673.74 L1845.78,2673.57 L1845.88,2673.39 L1845.98,2673.2 L1846,2673.09 L1846.02,2673.05 L1846,2672.95 L1845.98,2672.9 L1845.93,2672.85 L1845.85,2672.81 L1845.77,2672.79 L1845.67,2672.78 L1845.6,2672.74 L1845.45,2672.6 L1845.36,2672.49 L1845.32,2672.4 L1845.28,2672.2 L1845.29,2671.84 L1845.25,2671.65 L1845.16,2671.48 L1845.07,2671.31 L1845.03,2671.25 L1844.86,2671.18 L1844.73,2670.9 L1844.69,2670.67 L1844.67,2670.46 L1844.69,2670.2 L1845.09,2669.09 L1845.25,2668.66 L1845.28,2668.47 L1845.27,2668.27 L1845.2,2667.85 L1845.1,2667.58 L1845.03,2667.25 L1844.97,2666.65 L1844.96,2666.28 L1844.98,2665.7 L1845.05,2665.34 L1845.13,2664.93 L1845.23,2664.65 L1845.53,2663.93 L1845.76,2663.46 L1845.83,2663.18 L1845.83,2662.92 L1845.8,2662.65 L1845.73,2662.34 L1845.68,2662.25 L1845.63,2662.18 L1845.58,2662.14 L1845.53,2662.11 L1845.45,2662.07 L1845.35,2662.04 L1845.18,2661.99 L1845.05,2661.93 L1844.94,2661.87 L1844.81,2661.77 L1844.71,2661.65 L1844.59,2661.53 L1844.53,2661.46 L1844.47,2661.39 L1844.44,2661.34 L1844.42,2661.28 L1844.42,2661.23 L1844.43,2661.06 L1844.42,2660.97 L1844.4,2660.87 L1844.36,2660.79 L1844.32,2660.72 L1844.2,2660.57 L1844.15,2660.5 L1844.1,2660.46 L1844.05,2660.44 L1843.98,2660.42 L1843.9,2660.42 L1843.76,2660.4 L1843.64,2660.37 L1843.57,2660.35 L1843.52,2660.31 L1843.45,2660.22 L1843.43,2660.16 L1843.42,2660.1 L1843.43,2660.05 L1843.48,2659.97 L1843.51,2659.93 L1843.52,2659.9 L1843.52,2659.86 L1843.46,2659.72 L1843.44,2659.62 L1843.45,2659.55 L1843.47,2659.48 L1843.51,2659.37 L1843.58,2659.3 L1843.64,2659.24 L1843.73,2659.2 L1843.79,2659.16 L1843.85,2659.1 L1843.94,2658.96 L1843.97,2658.9 L1844,2658.86 L1844.06,2658.82 L1844.11,2658.78 L1844.16,2658.75 L1844.22,2658.73 L1844.27,2658.72 L1844.33,2658.71 L1844.4,2658.71 L1844.5,2658.72 L1844.59,2658.73 L1844.62,2658.73 L1844.66,2658.72 L1844.7,2658.7 L1844.74,2658.69 L1844.78,2658.65 L1844.82,2658.59 L1844.85,2658.55 L1844.88,2658.52 L1844.94,2658.49 L1844.99,2658.47 L1845.06,2658.45 L1845.13,2658.42 L1845.16,2658.38 L1845.19,2658.32 L1845.24,2658.17 L1845.27,2658.08 L1845.34,2657.93 L1845.36,2657.83 L1845.36,2657.66 L1845.37,2657.53 L1845.39,2657.44 L1845.42,2657.37 L1845.49,2657.27 L1845.5,2657.21 L1845.49,2657.1 L1845.46,2656.95 L1845.43,2656.83 L1845.43,2656.68 L1845.43,2656.49 L1845.43,2656.41 L1845.44,2656.35 L1845.47,2656.27 L1845.54,2656.2 L1845.62,2656.13 L1845.97,2655.98 L1846.06,2655.95 L1846.13,2655.94 L1846.23,2655.95 L1846.42,2655.99 L1846.49,2656 L1846.6,2656 L1846.68,2655.99 L1846.74,2655.97 L1846.83,2655.9 L1846.85,2655.87 L1846.86,2655.84 L1846.86,2655.8 L1846.82,2655.71 L1846.79,2655.64 L1846.73,2655.55 L1846.68,2655.47 L1846.65,2655.4 L1846.63,2655.31 L1846.62,2655.22 L1846.63,2655.05 L1846.62,2654.99 L1846.54,2654.79 L1846.34,2654.38 L1846.3,2654.27 L1846.24,2654.07 L1846.22,2653.97 L1846.22,2653.93 L1846.27,2653.86 L1846.3,2653.84 L1846.36,2653.81 L1846.42,2653.78 L1846.5,2653.77 L1846.61,2653.76 L1846.76,2653.74 L1846.93,2653.74 L1847.19,2653.76 L1847.34,2653.77 L1847.49,2653.81 L1847.59,2653.83 L1847.63,2653.83 L1847.66,2653.82 L1847.69,2653.8 L1847.72,2653.76 L1847.73,2653.66 L1847.72,2653.55 L1847.7,2653.48 L1847.67,2653.42 L1847.65,2653.37 L1847.57,2653.24 L1847.52,2653.12 L1847.5,2653.05 L1847.5,2652.99 L1847.5,2652.93 L1847.51,2652.89 L1847.58,2652.81 L1847.62,2652.74 L1847.62,2652.68 L1847.57,2652.55 L1847.55,2652.43 L1847.55,2652.37 L1847.56,2652.33 L1847.59,2652.3 L1847.64,2652.29 L1847.69,2652.28 L1847.78,2652.29 L1847.84,2652.27 L1847.87,2652.24 L1847.93,2652.07 L1847.98,2651.96 L1848,2651.77 L1847.98,2651.64 L1847.96,2651.57 L1847.89,2651.45 L1847.93,2651.39 L1847.96,2651.28 L1847.98,2651.16 L1847.98,2651.14 L1848.17,2650.34 L1848.24,2649.77 L1848.29,2649.37 L1848.39,2649.12 L1848.6,2649 L1848.74,2648.92 L1848.79,2648.89 L1848.82,2648.85 L1848.83,2648.81 L1848.83,2648.79 L1848.83,2648.75 L1848.81,2648.71 L1848.79,2648.65 L1848.8,2648.6 L1848.84,2648.48 L1848.85,2648.41 L1848.84,2648.31 L1848.81,2648.23 L1848.75,2648.16 L1848.7,2648.12 L1848.64,2648.1 L1848.58,2648.1 L1848.52,2648.11 L1848.43,2648.15 L1848.36,2648.16 L1848.32,2648.17 L1848.25,2648.13 L1848.2,2648.08 L1848.17,2648.03 L1848.16,2647.96 L1848.17,2647.79 L1848.15,2647.68 L1848.13,2647.59 L1848.09,2647.5 L1848.04,2647.44 L1848,2647.41 L1847.93,2647.36 L1847.88,2647.29 L1847.84,2647.21 L1847.79,2647.02 L1847.75,2646.9 L1847.68,2646.82 L1847.55,2646.72 L1847.44,2646.62 L1847.31,2646.47 L1847.21,2646.39 L1847.15,2646.33 L1847.09,2646.3 L1847.04,2646.27 L1846.91,2646.24 L1846.85,2646.21 L1846.8,2646.15 L1846.78,2646.09 L1846.75,2645.93 L1846.73,2645.88 L1846.68,2645.82 L1846.64,2645.8 L1846.57,2645.79 L1846.47,2645.8 L1846.41,2645.78 L1846.36,2645.77 L1846.31,2645.75 L1846.26,2645.69 L1846.22,2645.65 L1846.19,2645.57 L1846.16,2645.41 L1846.15,2645.24 L1846.14,2645.14 L1846.2,2644.97 L1846.26,2644.86 L1846.3,2644.79 L1846.32,2644.7 L1846.31,2644.63 L1846.3,2644.57 L1846.25,2644.47 L1846.2,2644.36 L1846.18,2644.3 L1846.17,2644.22 L1846.16,2644.16 L1846.16,2644.1 L1846.16,2644.04 L1846.18,2643.97 L1846.22,2643.91 L1846.3,2643.82 L1846.54,2643.55 L1846.68,2643.41 L1846.87,2643.21 L1847.03,2643.05 L1847.24,2642.86 L1847.35,2642.73 L1847.43,2642.62 L1847.51,2642.46 L1847.69,2641.92 L1847.79,2641.6 L1847.88,2641.36 L1847.95,2641.19 L1847.99,2640.87 L1847.92,2640.56 L1847.86,2640.43 L1847.81,2640.34 L1847.75,2640.26 L1847.61,2640.12 L1847.46,2639.96 L1847.38,2639.85 L1847.33,2639.71 L1847.3,2639.54 L1847.32,2639.44 L1847.35,2639.34 L1847.42,2639.24 L1847.5,2639.13 L1847.64,2639 L1847.8,2638.81 L1847.95,2638.65 L1848.14,2638.5 L1848.35,2638.33 L1848.52,2638.21 L1848.61,2638.13 L1848.72,2637.96 L1848.76,2637.89 L1848.79,2637.72 L1848.84,2637.54 L1848.95,2637.3 L1849.01,2637.21 L1849.08,2637.16 L1849.16,2637.1 L1849.45,2636.88 L1849.63,2636.73 L1849.72,2636.66 L1849.84,2636.61 L1849.98,2636.57 L1850.3,2636.52 L1850.37,2636.49 L1850.46,2636.44 L1850.55,2636.37 L1850.65,2636.24 L1850.73,2636.1 L1850.83,2635.98 L1850.92,2635.89 L1851.01,2635.82 L1851.15,2635.78 L1851.44,2635.74 L1851.55,2635.72 L1851.69,2635.67 L1851.84,2635.59 L1851.94,2635.51 L1852.04,2635.44 L1852.11,2635.34 L1852.19,2635.14 L1852.22,2634.98 L1852.2,2634.8 L1852.11,2634.54 L1852.03,2634.36 L1851.95,2634.21 L1851.74,2634 L1851.59,2633.75 L1851.57,2633.7 L1851.56,2633.65 L1851.57,2633.61 L1851.63,2633.51 L1851.75,2633.34 L1851.8,2633.28 L1851.84,2633.25 L1851.9,2633.23 L1852.01,2633.21 L1852.06,2633.17 L1852.1,2633.12 L1852.12,2633.08 L1852.12,2633.03 L1852.11,2632.99 L1852.1,2632.94 L1852.07,2632.87 L1851.91,2632.53 L1851.89,2632.47 L1851.88,2632.4 L1851.89,2632.35 L1851.92,2632.31 L1852.1,2632.17 L1852.19,2632.1 L1852.33,2631.89 L1852.4,2631.79 L1852.46,2631.67 L1852.5,2631.58 L1852.54,2631.46 L1852.62,2631.24 L1852.66,2631.15 L1852.74,2631.07 L1852.8,2631.02 L1852.87,2630.97 L1852.96,2630.93 L1853.05,2630.91 L1853.12,2630.9 L1853.21,2630.9 L1853.31,2630.91 L1853.41,2630.93 L1853.46,2630.92 L1853.51,2630.91 L1853.56,2630.88 L1853.61,2630.83 L1853.64,2630.77 L1853.68,2630.69 L1853.71,2630.59 L1853.74,2630.38 L1853.76,2630.14 L1853.77,2629.95 L1853.79,2629.88 L1853.81,2629.84 L1853.88,2629.78 L1853.99,2629.71 L1854.11,2629.6 L1854.24,2629.45 L1854.35,2629.37 L1854.43,2629.33 L1854.5,2629.3 L1854.57,2629.3 L1854.65,2629.32 L1854.71,2629.35 L1854.78,2629.42 L1854.83,2629.46 L1854.91,2629.48 L1854.98,2629.48 L1855.03,2629.47 L1855.1,2629.45 L1855.18,2629.41 L1855.34,2629.28 L1855.47,2629.17 L1855.57,2629.06 L1855.65,2628.89 L1855.68,2628.81 L1855.7,2628.65 L1855.72,2628.49 L1855.75,2628.23 L1855.77,2628.08 L1855.79,2627.98 L1855.84,2627.88 L1855.93,2627.73 L1856.18,2627.47 L1856.37,2627.32 L1856.45,2627.24 L1856.49,2627.14 L1856.48,2627.04 L1856.47,2626.95 L1856.42,2626.87 L1856.33,2626.74 L1856.26,2626.6 L1856.23,2626.42 L1856.21,2626.24 L1856.24,2625.89 L1856.27,2625.8 L1856.32,2625.7 L1856.39,2625.6 L1856.45,2625.57 L1856.52,2625.55 L1856.59,2625.56 L1856.69,2625.6 L1856.82,2625.72 L1856.93,2625.77 L1857.02,2625.8 L1857.12,2625.81 L1857.18,2625.8 L1857.26,2625.77 L1857.36,2625.7 L1857.44,2625.63 L1857.56,2625.49 L1857.61,2625.4 L1857.66,2625.26 L1857.73,2624.99 L1857.8,2624.85 L1857.88,2624.78 L1858.01,2624.71 L1858.17,2624.63 L1858.24,2624.56 L1858.35,2624.42 L1858.49,2624.2 L1858.59,2624.05 L1858.6,2624.02 L1858.6,2623.95 L1858.59,2623.88 L1858.56,2623.81 L1858.45,2623.67 L1858.43,2623.56 L1858.42,2623.4 L1858.44,2623.14 L1858.58,2622.34 L1858.64,2622.2 L1858.71,2622.11 L1858.91,2621.9 L1859.01,2621.75 L1859.11,2621.55 L1859.19,2621.42 L1859.33,2621.22 L1859.57,2620.92 L1859.69,2620.72 L1859.79,2620.59 L1859.86,2620.54 L1859.99,2620.48 L1860.11,2620.42 L1860.2,2620.33 L1860.3,2620.16 L1860.45,2619.93 L1860.52,2619.73 L1860.53,2619.61 L1860.51,2619.47 L1860.44,2619.22 L1860.23,2618.5 L1860.21,2618.29 L1860.21,2618.15 L1860.26,2617.86 L1860.29,2617.68 L1860.34,2617.51 L1860.39,2617.34 L1860.48,2617.07 L1860.53,2616.78 L1860.58,2616.63 L1860.63,2616.59 L1860.71,2616.54 L1860.87,2616.5 L1861.08,2616.44 L1861.18,2616.38 L1861.28,2616.29 L1861.39,2616.1 L1861.44,2615.99 L1861.52,2615.84 L1861.55,2615.66 L1861.55,2615.54 L1861.53,2615.43 L1861.53,2615.36 L1861.54,2615.29 L1861.58,2615.22 L1861.67,2615.15 L1861.77,2615.06 L1861.82,2614.97 L1861.82,2614.9 L1861.79,2614.82 L1861.63,2614.66 L1861.59,2614.58 L1861.56,2614.47 L1861.58,2614.36 L1861.66,2614.23 L1861.73,2614.12 L1861.74,2613.84 L1861.85,2613.43 L1861.89,2612.88 L1861.91,2612.6 L1861.87,2612.31 L1861.69,2611.95 L1861.62,2611.65 L1861.56,2611.45 L1861.56,2611.25 L1861.61,2611.04 L1861.68,2610.91 L1861.81,2610.73 L1862.03,2610.51 L1862.24,2610.25 L1862.5,2609.86 L1862.62,2609.72 L1862.86,2609.57 L1863.08,2609.49 L1863.19,2609.44 L1863.26,2609.39 L1863.31,2609.31 L1863.35,2609.22 L1863.38,2609.09 L1863.38,2609.06 L1863.39,2608.7 L1863.37,2608.49 L1863.35,2608.36 L1863.27,2608.2 L1863.17,2608.06 L1863.04,2607.91 L1862.94,2607.77 L1862.86,2607.61 L1862.8,2607.43 L1862.79,2607.24 L1862.79,2606.95 L1862.81,2606.71 L1862.82,2606.64 L1862.78,2606.54 L1862.73,2606.46 L1862.67,2606.39 L1862.53,2606.34 L1862.39,2606.25 L1862.11,2606 L1861.87,2605.72 L1861.8,2605.59 L1861.71,2605.39 L1861.68,2605.21 L1861.67,2604.97 L1861.63,2604.71 L1861.62,2604.45 L1861.61,2604.4 L1861.6,2604.36 L1861.56,2604.32 L1861.52,2604.29 L1861.41,2604.25 L1861.33,2604.22 L1861.26,2604.18 L1861.2,2604.11 L1861.17,2604.03 L1861.15,2603.91 L1861.14,2603.78 L1861.15,2603.71 L1861.17,2603.64 L1861.23,2603.55 L1861.29,2603.46 L1861.53,2603.16 L1861.61,2603.07 L1861.68,2602.9 L1861.74,2602.68 L1861.82,2602.45 L1862,2602.05 L1862.01,2601.98 L1861.99,2601.87 L1861.97,2601.81 L1861.91,2601.73 L1861.83,2601.66 L1861.72,2601.61 L1861.58,2601.58 L1861.34,2601.6 L1861.21,2601.59 L1861.09,2601.58 L1861.02,2601.55 L1860.97,2601.51 L1860.92,2601.44 L1860.89,2601.33 L1860.88,2601.2 L1860.91,2601.08 L1860.97,2600.92 L1861.03,2600.77 L1861.12,2600.65 L1861.2,2600.57 L1861.32,2600.49 L1861.53,2600.38 L1861.64,2600.3 L1861.7,2600.16 L1861.92,2599.92 L1862.06,2599.79 L1862.11,2599.71 L1862.12,2599.63 L1862.11,2599.54 L1862.09,2599.47 L1862.05,2599.38 L1861.94,2599.13 L1861.91,2599.02 L1861.91,2598.83 L1861.95,2598.66 L1862.13,2598.5 L1862.38,2598.38 L1862.51,2598.27 L1862.62,2598.11 L1862.76,2597.78 L1862.97,2597.13 L1863.05,2596.89 L1863,2596.51 L1862.95,2596.35 L1862.77,2596.03 L1862.59,2595.64 L1862.4,2595.28 L1862.16,2594.93 L1862.1,2594.54 L1862.11,2594.09 L1862.1,2593.95 L1862.1,2593.79 L1862.18,2593.52 L1862.34,2593.24 L1862.48,2593.08 L1862.64,2592.82 L1862.84,2592.45 L1863.03,2592.05 L1863.22,2591.68 L1863.39,2591.38 L1863.62,2591.08 L1864.12,2590.61 L1864.25,2590.43 L1864.36,2590.14 L1864.35,2589.54 L1864.35,2589.13 L1864.28,2588.77 L1864.12,2588.39 L1863.82,2587.85 L1863.49,2587.45 L1862.91,2586.93 L1862.26,2586.47 L1861.47,2586.04 L1858.74,2584.94 L1858.51,2584.89 L1858.26,2584.8 L1858.09,2584.74 L1857.97,2584.69 L1857.83,2584.59 L1857.71,2584.5 L1857.58,2584.38 L1857.41,2584.23 L1857.36,2584.19 L1857.24,2584.15 L1857.03,2584.12 L1856.91,2584.12 L1856.72,2584.14 L1856.45,2584.21 L1856.36,2584.22 L1856.27,2584.23 L1856.21,2584.23 L1856.14,2584.22 L1856,2584.18 L1855.87,2584.19 L1855.78,2584.22 L1855.68,2584.28 L1855.61,2584.36 L1855.5,2584.5 L1855.48,2584.52 L1855.41,2584.6 L1855.3,2584.71 L1855.01,2584.91 L1854.51,2585.35 L1854.33,2585.5 L1854.22,2585.61 L1854.07,2585.79 L1854.04,2585.85 L1853.97,2586.09 L1853.95,2586.21 L1853.87,2586.34 L1853.81,2586.4 L1853.68,2586.49 L1853.55,2586.58 L1853.43,2586.65 L1853.29,2586.72 L1853.2,2586.75 L1853.11,2586.78 L1853.02,2586.79 L1852.74,2586.81 L1852.66,2586.82 L1852.58,2586.83 L1852.52,2586.85 L1852.47,2586.87 L1852.35,2586.94 L1852.27,2587 L1852.22,2587.07 L1852.01,2587.42 L1851.97,2587.48 L1851.93,2587.51 L1851.9,2587.53 L1851.86,2587.54 L1851.81,2587.54 L1851.77,2587.53 L1851.74,2587.52 L1851.71,2587.5 L1851.68,2587.47 L1851.67,2587.44 L1851.66,2587.42 L1851.66,2587.39 L1851.67,2587.35 L1851.7,2587.28 L1851.78,2587.12 L1851.79,2587.06 L1851.79,2587.01 L1851.78,2586.95 L1851.76,2586.9 L1851.72,2586.85 L1851.66,2586.8 L1851.58,2586.75 L1851.47,2586.68 L1851.35,2586.63 L1851.26,2586.6 L1851.16,2586.6 L1851.1,2586.6 L1851.04,2586.62 L1850.88,2586.7 L1850.82,2586.72 L1850.78,2586.74 L1850.71,2586.74 L1850.65,2586.74 L1850.51,2586.71 L1850.44,2586.69 L1850.38,2586.7 L1850.32,2586.72 L1850.26,2586.74 L1850.22,2586.78 L1850.16,2586.85 L1850.05,2587.01 L1849.96,2587.15 L1849.88,2587.24 L1849.82,2587.29 L1849.75,2587.32 L1849.64,2587.37 L1849.43,2587.43 L1849.26,2587.48 L1849.21,2587.48 L1849.16,2587.46 L1849.09,2587.43 L1849.06,2587.4 L1849.03,2587.34 L1849.02,2587.3 L1849.01,2587.23 L1849,2587.17 L1849.01,2587.11 L1849.08,2586.8 L1849.09,2586.75 L1849.09,2586.71 L1849.07,2586.67 L1849.04,2586.63 L1848.99,2586.58 L1848.95,2586.56 L1848.85,2586.51 L1848.81,2586.49 L1848.73,2586.49 L1848.67,2586.52 L1848.5,2586.6 L1848.41,2586.62 L1848.37,2586.62 L1848.34,2586.6 L1848.3,2586.57 L1848.28,2586.54 L1848.15,2586.36 L1848.11,2586.31 L1848.06,2586.27 L1847.95,2586.22 L1847.66,2586.08 L1847.37,2585.94 L1847.18,2585.81 L1847.13,2585.76 L1847.11,2585.69 L1847.1,2585.58 L1847.11,2585.52 L1847.14,2585.47 L1847.25,2585.39 L1847.33,2585.34 L1847.29,2585.21 L1847.17,2585.04 L1847.03,2584.94 L1846.89,2584.91 L1846.81,2584.92 L1846.7,2584.95 L1846.55,2585.06 L1846.24,2585.4 L1846.1,2585.63 L1846.04,2585.69 L1845.98,2585.71 L1845.94,2585.72 L1845.89,2585.73 L1845.82,2585.73 L1845.76,2585.69 L1845.73,2585.66 L1845.69,2585.65 L1845.66,2585.65 L1845.61,2585.65 L1845.53,2585.69 L1845.47,2585.73 L1845.41,2585.79 L1845.36,2585.83 L1845.32,2585.84 L1845.22,2585.87 L1845.17,2585.86 L1845.13,2585.85 L1844.99,2585.77 L1844.89,2585.77 L1844.83,2585.78 L1844.74,2585.8 L1844.69,2585.8 L1844.62,2585.79 L1844.56,2585.77 L1844.42,2585.69 L1844.36,2585.68 L1844.31,2585.69 L1844.25,2585.71 L1844.21,2585.73 L1844.18,2585.74 L1844.15,2585.73 L1844.1,2585.72 L1844.03,2585.69 L1843.95,2585.62 L1843.9,2585.55 L1843.86,2585.49 L1843.82,2585.48 L1843.78,2585.48 L1843.72,2585.49 L1843.66,2585.49 L1843.6,2585.49 L1843.41,2585.38 L1843.39,2585.37 L1843.32,2585.37 L1843.29,2585.36 L1843.26,2585.34 L1843.25,2585.28 L1843.23,2585.24 L1843.18,2585.22 L1843.14,2585.21 L1843.09,2585.2 L1843.03,2585.18 L1843,2585.16 L1842.97,2585.14 L1842.96,2585.12 L1842.92,2585.07 L1842.88,2585.05 L1842.85,2585.05 L1842.81,2585.04 L1842.76,2585.06 L1842.73,2585.08 L1842.71,2585.12 L1842.7,2585.16 L1842.69,2585.21 L1842.68,2585.22 L1842.64,2585.23 L1842.52,2585.24 L1842.46,2585.24 L1842.42,2585.21 L1842.39,2585.18 L1842.35,2585.14 L1842.32,2585.11 L1842.29,2585.1 L1842.27,2585.09 L1842.22,2585.11 L1842.17,2585.15 L1842.15,2585.17 L1842.13,2585.22 L1842.11,2585.23 L1842.09,2585.23 L1842.06,2585.23 L1842.05,2585.23 L1842.03,2585.22 L1842.02,2585.2 L1842.01,2585.18 L1842,2585.16 L1842.01,2585.05 L1841.99,2585.02 L1841.94,2585 L1841.91,2585 L1841.88,2585 L1841.85,2585.02 L1841.77,2585.05 L1841.64,2585.08 L1841.56,2585.1 L1841.52,2585.11 L1841.49,2585.14 L1841.41,2585.2 L1841.34,2585.28 L1841.3,2585.35 L1841.28,2585.38 L1841.22,2585.41 L1841.17,2585.43 L1841.03,2585.46 L1840.94,2585.48 L1840.9,2585.48 L1840.88,2585.48 L1840.85,2585.46 L1840.82,2585.44 L1840.79,2585.4 L1840.76,2585.31 L1840.72,2585.25 L1840.67,2585.22 L1840.64,2585.21 L1840.6,2585.22 L1840.58,2585.22 L1840.56,2585.24 L1840.54,2585.27 L1840.53,2585.3 L1840.53,2585.32 L1840.55,2585.4 L1840.54,2585.42 L1840.53,2585.45 L1840.49,2585.49 L1840.44,2585.52 L1840.38,2585.55 L1840.34,2585.55 L1840.29,2585.55 L1840.2,2585.55 L1840.15,2585.55 L1840.11,2585.56 L1840.07,2585.58 L1840,2585.63 L1839.95,2585.67 L1839.92,2585.69 L1839.89,2585.7 L1839.86,2585.7 L1839.78,2585.7 L1839.74,2585.71 L1839.71,2585.73 L1839.7,2585.74 L1839.69,2585.76 L1839.69,2585.82 L1839.69,2585.84 L1839.68,2585.84 L1839.65,2585.85 L1839.64,2585.85 L1839.63,2585.85 L1839.62,2585.84 L1839.62,2585.81 L1839.59,2585.72 L1839.55,2585.59 L1839.47,2585.48 L1839.38,2585.37 L1839.3,2585.28 L1839.25,2585.22 L1839.24,2585.19 L1839.23,2585.14 L1839.23,2585.08 L1839.25,2585.01 L1839.35,2584.84 L1839.36,2584.79 L1839.36,2584.72 L1839.36,2584.62 L1839.33,2584.53 L1839.28,2584.47 L1839.23,2584.44 L1839.24,2584.39 L1839.25,2584.3 L1839.25,2584.22 L1839.27,2584.16 L1839.3,2584.09 L1839.39,2583.95 L1839.42,2583.88 L1839.44,2583.81 L1839.46,2583.69 L1839.46,2583.62 L1839.46,2583.54 L1839.44,2583.46 L1839.43,2583.41 L1839.4,2583.35 L1839.4,2583.31 L1839.4,2583.28 L1839.41,2583.23 L1839.43,2583.2 L1839.47,2583.14 L1839.51,2583.1 L1839.6,2583.02 L1839.64,2582.97 L1839.71,2582.85 L1839.72,2582.81 L1839.72,2582.78 L1839.71,2582.75 L1839.69,2582.73 L1839.59,2582.62 L1839.53,2582.53 L1839.49,2582.5 L1839.47,2582.48 L1839.44,2582.48 L1839.41,2582.47 L1839.38,2582.48 L1839.36,2582.49 L1839.26,2582.56 L1839.23,2582.58 L1839.2,2582.58 L1839.17,2582.58 L1839.14,2582.58 L1839.11,2582.56 L1839.09,2582.54 L1839.03,2582.44 L1838.93,2582.3 L1838.9,2582.25 L1838.84,2582.21 L1838.74,2582.14 L1838.67,2582.1 L1838.61,2582.04 L1838.55,2581.95 L1838.51,2581.88 L1838.47,2581.74 L1838.45,2581.72 L1838.42,2581.7 L1838.36,2581.68 L1838.3,2581.67 L1838.18,2581.66 L1838.05,2581.63 L1837.97,2581.59 L1837.89,2581.54 L1837.82,2581.46 L1837.75,2581.36 L1837.66,2581.18 L1837.63,2581.16 L1837.6,2581.16 L1837.56,2581.17 L1837.54,2581.19 L1837.45,2581.3 L1837.38,2581.37 L1836.94,2581.66 L1836.86,2581.7 L1836.79,2581.7 L1836.73,2581.67 L1836.66,2581.59 L1836.51,2581.52 L1836.45,2581.45 L1836.4,2581.33 L1836.4,2581.25 L1836.44,2581.13 L1836.45,2581 L1836.46,2580.9 L1836.47,2580.81 L1836.42,2580.64 L1836.11,2580.69 L1835.67,2580.84 L1835.49,2580.9 L1835.24,2581.12 L1835.17,2581.16 L1835.08,2581.22 L1835,2581.28 L1834.9,2581.29 L1834.81,2581.28 L1834.71,2581.25 L1834.63,2581.22 L1834.48,2581.11 L1834.34,2580.95 L1834.25,2580.77 L1834.13,2580.4 L1833.95,2579.78 L1833.91,2579.71 L1833.86,2579.65 L1833.8,2579.62 L1833.73,2579.61 L1833.66,2579.61 L1833.51,2579.66 L1833.39,2579.69 L1833.3,2579.7 L1833.1,2579.65 L1833.02,2579.64 L1832.94,2579.58 L1832.61,2579.29 L1832.39,2579.02 L1832.36,2578.93 L1832.35,2578.82 L1832.38,2578.7 L1832.45,2578.48 L1832.47,2578.37 L1832.46,2578.28 L1832.43,2578.19 L1832.37,2578.1 L1832.3,2578.02 L1832.21,2577.95 L1831.94,2577.76 L1831.7,2577.62 L1831.52,2577.53 L1831.32,2577.47 L1830.97,2577.41 L1830.73,2577.32 L1830.42,2577.15 L1830.22,2577.1 L1829.87,2577.1 L1829.64,2577.04 L1829.5,2576.97 L1829.41,2576.88 L1829.33,2576.73 L1829.15,2576.39 L1829,2576.24 L1828.87,2576.14 L1828.69,2576.05 L1828.52,2576.02 L1828.4,2576.04 L1828.29,2576.1 L1828.06,2576.32 L1827.82,2576.55 L1827.61,2576.76 L1827.49,2576.85 L1826.94,2577.04 L1826.62,2577.23 L1826.34,2577.45 L1826.1,2577.8 L1825.99,2578.08 L1825.86,2578.75 L1825.77,2578.97 L1825.62,2579.21 L1825.47,2579.35 L1825.2,2579.53 L1824.71,2579.8 L1824.37,2580.09 L1824.28,2580.13 L1824.17,2580.15 L1824.05,2580.15 L1823.94,2580.14 L1823.84,2580.1 L1823.78,2580.04 L1823.61,2579.8 L1823.49,2579.7 L1823.25,2579.61 L1823.07,2579.47 L1822.88,2579.32 L1822.79,2579.23 L1822.74,2579.11 L1822.62,2578.7 L1822.56,2578.55 L1822.46,2578.36 L1822.32,2578.16 L1822.05,2577.95 L1821.82,2577.78 L1821.6,2577.72 L1821.34,2577.66 L1821.18,2577.67 L1820.89,2577.75 L1820.61,2577.77 L1820.35,2577.79 L1820.14,2577.85 L1819.98,2577.95 L1819.78,2578.07 L1819.68,2578.08 L1819.43,2578.22 L1819.2,2578.45 L1818.95,2578.93 L1818.83,2579.54 L1818.79,2580.71 L1818.76,2581.31 L1818.62,2581.9 L1818.52,2582.09 L1818.38,2582.23 L1817.49,2582.58 L1816.91,2582.69 L1816.66,2582.68 L1816.44,2582.6 L1816.26,2582.51 L1816.03,2582.32 L1815.73,2581.96 L1815.33,2581.62 L1815.1,2581.37 L1815.02,2581.23 L1814.85,2580.95 L1814.74,2580.75 L1814.68,2580.59 L1814.65,2580.53 L1814.6,2580.37 L1814.54,2580.22 L1814.49,2580.13 L1814.41,2580.01 L1814.32,2579.86 L1814.25,2579.82 L1814.18,2579.77 L1814.06,2579.75 L1813.99,2579.75 L1813.85,2579.78 L1813.79,2579.78 L1813.76,2579.77 L1813.72,2579.75 L1813.67,2579.71 L1813.64,2579.67 L1813.63,2579.6 L1813.59,2579.22 L1813.57,2579.16 L1813.53,2579.08 L1813.46,2579.01 L1813.42,2578.98 L1813.31,2578.92 L1813.16,2578.87 L1813.01,2578.83 L1812.88,2578.86 L1812.78,2578.89 L1812.66,2578.91 L1812.58,2578.91 L1812.46,2578.88 L1812.34,2578.82 L1812.25,2578.73 L1812.15,2578.56 L1812.09,2578.27 L1812.06,2578.02 L1812.06,2577.78 L1812.07,2577.67 L1812.1,2577.57 L1812.14,2577.5 L1812.27,2577.41 L1812.35,2577.34 L1812.37,2577.25 L1812.36,2577.18 L1812.34,2577.13 L1812.27,2577.1 L1812.21,2577.06 L1812.19,2577.03 L1812.18,2576.96 L1812.16,2576.88 L1812.15,2576.85 L1812.11,2576.8 L1812.04,2576.75 L1811.92,2576.62 L1811.8,2576.45 L1811.75,2576.39 L1811.58,2576.29 L1811.44,2576.17 L1811.32,2576.01 L1811.18,2575.67 L1811.12,2575.57 L1811.04,2575.48 L1810.94,2575.44 L1810.84,2575.44 L1810.75,2575.43 L1810.65,2575.39 L1810.59,2575.34 L1810.5,2575.22 L1810.41,2575.1 L1810.32,2575.05 L1810.22,2575.01 L1810.05,2574.96 L1809.99,2574.94 L1809.94,2574.92 L1809.9,2574.89 L1809.88,2574.85 L1809.87,2574.81 L1809.85,2574.7 L1809.82,2574.64 L1809.75,2574.57 L1809.67,2574.51 L1809.57,2574.41 L1809.44,2574.23 L1809.33,2574.08 L1809.24,2573.9 L1809.17,2573.74 L1809.13,2573.66 L1809.09,2573.59 L1809.02,2573.52 L1808.91,2573.41 L1808.8,2573.33 L1808.69,2573.23 L1808.6,2573.06 L1808.52,2572.84 L1808.49,2572.75 L1808.43,2572.27 L1808.4,2572.07 L1808.36,2571.97 L1808.29,2571.87 L1808.19,2571.77 L1808.07,2571.7 L1807.91,2571.62 L1807.83,2571.6 L1807.74,2571.58 L1807.58,2571.59 L1807.4,2571.57 L1807.27,2571.55 L1807.2,2571.5 L1807.17,2571.45 L1807.16,2571.35 L1807.13,2571.27 L1807.14,2571.21 L1807.15,2571.12 L1807.17,2571.06 L1807.21,2570.99 L1807.28,2570.9 L1807.39,2570.76 L1807.48,2570.57 L1807.51,2570.5 L1807.53,2570.27 L1807.57,2570.14 L1807.65,2569.96 L1807.72,2569.85 L1807.94,2569.63 L1808.13,2569.47 L1808.18,2569.41 L1808.28,2569.14 L1808.31,2569.05 L1808.32,2568.95 L1808.34,2568.88 L1808.4,2568.81 L1808.49,2568.71 L1808.52,2568.61 L1808.57,2568.5 L1808.66,2568.36 L1808.73,2568.28 L1808.8,2568.21 L1809.01,2568.07 L1809.11,2568.01 L1809.16,2567.96 L1809.2,2567.91 L1809.23,2567.84 L1809.24,2567.75 L1809.26,2567.46 L1809.29,2567.35 L1809.33,2567.28 L1809.39,2567.24 L1809.55,2567.13 L1809.62,2567.09 L1809.74,2566.96 L1809.87,2566.85 L1809.95,2566.8 L1810.28,2566.59 L1810.58,2566.41 L1810.78,2566.27 L1810.99,2566.14 L1811.16,2566.06 L1811.25,2566.01 L1811.29,2565.97 L1811.32,2565.91 L1811.32,2565.81 L1811.32,2565.54 L1811.31,2565.33 L1811.27,2565.1 L1811.27,2565.04 L1811.27,2565 L1811.28,2564.95 L1811.3,2564.89 L1811.31,2564.84 L1811.34,2564.8 L1811.38,2564.77 L1811.45,2564.74 L1811.49,2564.73 L1811.64,2564.75 L1811.73,2564.75 L1811.86,2564.7 L1811.97,2564.66 L1812.07,2564.62 L1812.1,2564.57 L1812.1,2564.49 L1812.08,2564.43 L1812.05,2564.37 L1812,2564.34 L1811.93,2564.29 L1811.87,2564.24 L1811.82,2564.19 L1811.79,2564.11 L1811.77,2564.06 L1811.77,2563.98 L1811.78,2563.92 L1811.8,2563.86 L1811.84,2563.8 L1811.94,2563.74 L1812.03,2563.7 L1812.13,2563.66 L1812.38,2563.64 L1812.46,2563.63 L1812.49,2563.6 L1812.55,2563.53 L1812.57,2563.42 L1812.66,2563.23 L1812.71,2563.15 L1812.77,2563.11 L1813.02,2562.89 L1813.27,2562.51 L1813.87,2562.08 L1814.43,2561.87 L1814.52,2561.78 L1814.57,2561.67 L1814.56,2561.08 L1814.56,2560.79 L1814.54,2560.62 L1814.56,2560.5 L1814.61,2560.32 L1814.64,2560.24 L1814.68,2560.19 L1814.86,2560.04 L1814.96,2559.93 L1815.02,2559.85 L1815.22,2559.32 L1815.3,2559.04 L1815.35,2558.55 L1815.41,2558.25 L1815.48,2557.96 L1815.6,2557.7 L1815.74,2557.44 L1815.79,2557.33 L1815.81,2557.23 L1815.8,2557.08 L1815.78,2556.78 L1815.77,2556.62 L1815.74,2556.49 L1815.73,2556.36 L1815.76,2556.29 L1815.82,2556.22 L1815.9,2556.17 L1816.04,2556.13 L1816.2,2556.08 L1816.31,2556.06 L1816.45,2556.07 L1816.61,2556.08 L1816.73,2556.1 L1816.85,2556.14 L1816.96,2556.18 L1817.01,2556.19 L1817.04,2556.2 L1817.07,2556.19 L1817.1,2556.14 L1817.14,2556.03 L1817.18,2555.93 L1817.22,2555.82 L1817.22,2555.76 L1817.19,2555.65 L1817.13,2555.55 L1817.09,2555.49 L1817.04,2555.42 L1816.97,2555.34 L1816.9,2555.28 L1816.79,2555.23 L1816.68,2555.22 L1816.51,2555.2 L1816.35,2555.18 L1816.23,2555.15 L1816.12,2555.09 L1815.96,2555.04 L1815.8,2555.01 L1815.64,2555.01 L1815.4,2555 L1815.27,2554.96 L1815.14,2554.88 L1815.1,2554.85 L1815,2554.75 L1814.93,2554.64 L1814.8,2554.42 L1814.71,2554.28 L1814.5,2554.06 L1814.37,2553.89 L1814.29,2553.72 L1814.23,2553.54 L1814.24,2553.32 L1814.28,2553.15 L1814.33,2552.94 L1814.47,2552.62 L1814.49,2552.56 L1814.5,2552.47 L1814.49,2552.38 L1814.48,2552.33 L1814.46,2552.26 L1814.42,2552.2 L1814.37,2552.15 L1814.26,2552.07 L1814.09,2551.96 L1813.9,2551.73 L1813.78,2551.5 L1813.75,2551.42 L1813.71,2551.3 L1813.7,2551.19 L1813.7,2551.1 L1813.72,2551.02 L1813.81,2550.81 L1813.83,2550.68 L1813.85,2550.5 L1813.85,2550.37 L1813.84,2550.27 L1813.8,2550.18 L1813.76,2550.13 L1813.65,2550.1 L1813.53,2550.11 L1813.44,2550.15 L1813.25,2550.29 L1813.16,2550.34 L1813.07,2550.36 L1812.94,2550.33 L1812.71,2550.22 L1812.62,2550.2 L1812.55,2550.2 L1812.5,2550.22 L1812.34,2550.31 L1812.28,2550.34 L1812.22,2550.34 L1812.16,2550.33 L1812.14,2550.32 L1812.1,2550.28 L1812.03,2550.2 L1811.95,2550.11 L1811.81,2549.99 L1811.56,2549.84 L1811.44,2549.79 L1811.32,2549.74 L1811.23,2549.73 L1811.1,2549.75 L1811.04,2549.77 L1810.97,2549.83 L1810.87,2550.12 L1810.86,2550.31 L1810.81,2550.42 L1810.73,2550.51 L1810.58,2550.66 L1810.43,2550.78 L1810.28,2550.88 L1810.24,2550.89 L1810.21,2550.9 L1810.17,2550.89 L1810.12,2550.86 L1810.1,2550.82 L1810.08,2550.54 L1810.08,2550.51 L1810.05,2550.47 L1810.04,2550.46 L1810,2550.44 L1809.96,2550.42 L1809.9,2550.4 L1809.77,2550.38 L1809.46,2550.36 L1809.2,2550.33 L1809.01,2550.31 L1808.78,2550.24 L1808.59,2550.16 L1808.46,2550.05 L1808.33,2549.91 L1808.26,2549.84 L1808.18,2549.8 L1808.09,2549.76 L1808,2549.72 L1807.87,2549.71 L1807.76,2549.73 L1807.67,2549.78 L1807.59,2549.85 L1807.55,2549.95 L1807.46,2550.2 L1807.39,2550.34 L1807.32,2550.41 L1807.22,2550.45 L1807.12,2550.45 L1807.05,2550.43 L1806.81,2550.27 L1806.71,2550.21 L1806.61,2550.17 L1806.5,2550.15 L1806.08,2550.14 L1805.95,2550.13 L1805.87,2550.11 L1805.81,2550.08 L1805.73,2550.04 L1805.49,2549.89 L1805.43,2549.86 L1805.36,2549.85 L1805.3,2549.85 L1805.15,2549.85 L1804.85,2549.84 L1804.74,2549.84 L1804.67,2549.82 L1804.61,2549.8 L1804.56,2549.77 L1804.52,2549.72 L1804.47,2549.64 L1804.27,2549.18 L1804.23,2549.1 L1804.17,2549.05 L1804.07,2549.01 L1803.93,2549.01 L1803.69,2549.07 L1803.5,2549.1 L1803.4,2549.1 L1803.32,2549.08 L1803.16,2549.01 L1802.97,2548.9 L1802.9,2548.89 L1802.82,2548.89 L1802.73,2548.92 L1802.64,2549 L1802.53,2549.14 L1802.46,2549.16 L1802.33,2549.15 L1802.2,2549.15 L1802.06,2549.2 L1801.92,2549.28 L1801.69,2549.44 L1801.6,2549.46 L1801.4,2549.45 L1801.25,2549.44 L1801.12,2549.4 L1800.91,2549.27 L1800.77,2549.18 L1800.68,2549.16 L1800.59,2549.16 L1800.44,2549.2 L1800.27,2549.2 L1800.16,2549.13 L1799.87,2548.94 L1799.75,2548.91 L1799.55,2548.88 L1799.35,2548.85 L1799.23,2548.78 L1799.18,2548.72 L1799.16,2548.62 L1799.18,2548.46 L1799.18,2548.35 L1799.11,2548.2 L1799.01,2548.05 L1798.8,2547.82 L1798.51,2547.51 L1798.34,2547.36 L1798.23,2547.32 L1797.34,2547.37 L1797.19,2547.31 L1797.01,2547.13 L1796.81,2546.82 L1796.75,2546.69 L1796.58,2546.48 L1796.36,2545.96 L1796.09,2545.77 L1795.9,2545.64 L1795.61,2545.55 L1795.31,2545.24 L1795.24,2545.07 L1795.18,2544.97 L1795.05,2544.85 L1794.82,2544.82 L1794.65,2544.82 L1794.42,2544.89 L1794.11,2545 L1793.19,2545.27 L1792.51,2545.45 L1792.08,2545.49 L1791.96,2545.46 L1791.86,2545.46 L1791.79,2545.46 L1791.67,2545.52 L1791.61,2545.52 L1791.52,2545.52 L1791.32,2545.46 L1790.33,2545.14 L1790.15,2545.15 L1790.05,2545.15 L1789.95,2545.14 L1789.75,2545.06 L1789.66,2545.04 L1789.56,2545.08 L1789.39,2545.2 L1789.33,2545.22 L1788.84,2545.2 L1788.71,2545.23 L1788.59,2545.3 L1788.46,2545.41 L1788.35,2545.43 L1788.15,2545.47 L1788.01,2545.67 L1787.95,2545.75 L1787.81,2545.81 L1787.74,2545.85 L1787.64,2545.92 L1787.59,2546.09 L1787.57,2546.21 L1787.45,2546.28 L1787.17,2546.38 L1786.86,2546.51 L1786.65,2546.59 L1786.53,2546.61 L1786.36,2546.62 L1786.18,2546.66 L1786.08,2546.7 L1786,2546.7 L1785.88,2546.63 L1785.73,2546.44 L1785.64,2546.21 L1785.58,2546.09 L1785.49,2545.99 L1785.24,2545.85 L1785.13,2545.8 L1784.93,2545.75 L1784.74,2545.7 L1784.64,2545.67 L1784.51,2545.66 L1784.42,2545.72 L1784.36,2545.8 L1784.14,2546.16 L1784.02,2546.23 L1783.87,2546.26 L1783.72,2546.25 L1783.31,2546.18 L1783.04,2546.11 L1782.69,2545.99 L1782.59,2545.95 L1782.51,2545.83 L1782.47,2545.7 L1782.43,2545.6 L1782.33,2545.53 L1782.25,2545.44 L1782.15,2545.29 L1781.83,2545.06 L1781.45,2544.8 L1781.22,2544.64 L1781.08,2544.52 L1780.92,2544.29 L1780.77,2544.05 L1780.75,2543.9 L1780.78,2543.75 L1780.75,2543.39 L1780.72,2543.27 L1780.65,2543.15 L1780.62,2543 L1780.58,2542.87 L1780.4,2542.6 L1780.33,2542.53 L1780.2,2542.38 L1780,2542.25 L1779.9,2542.18 L1779.77,2542.08 L1779.66,2542.03 L1779.6,2541.98 L1779.41,2541.9 L1779.38,2541.88 L1779.35,2541.83 L1779.33,2541.66 L1779.33,2541.59 L1779.35,2541.49 L1779.35,2541.43 L1779.34,2541.37 L1779.33,2541.28 L1779.35,2541.18 L1779.34,2541.06 L1779.31,2541.03 L1779.29,2541.01 L1779.23,2541.01 L1779.2,2541.02 L1779.15,2541 L1779.08,2541.01 L1779.01,2541.05 L1778.92,2541.06 L1778.79,2541.12 L1778.76,2541.21 L1778.58,2541.31 L1778.46,2541.35 L1778.34,2541.46 L1778.23,2541.69 L1778.14,2541.77 L1778.06,2541.79 L1777.98,2541.79 L1777.83,2541.78 L1777.67,2541.75 L1777.5,2541.55 L1777.45,2541.45 L1777.42,2541.3 L1777.45,2541.19 L1777.5,2541.15 L1777.53,2541.09 L1777.53,2541.04 L1777.49,2540.99 L1777.34,2540.95 L1777.2,2540.99 L1776.82,2541.16 L1776.65,2541.14 L1776.44,2541.08 L1776.05,2541.15 L1775.81,2541.23 L1775.69,2541.24 L1775.57,2541.17 L1775.48,2541.06 L1775.36,2540.64 L1774.8,2539.97 L1774.63,2539.64 L1774.37,2538.75 L1773.89,2538.02 L1772.29,2536.24 L1771.71,2535.09 L1771.33,2534.26 L1771.25,2534.09 L1771.19,2534.03 L1771.12,2533.93 L1771.04,2533.86 L1770.96,2533.85 L1770.82,2533.87 L1770.67,2533.89 L1770.6,2533.86 L1770.47,2533.65 L1770.43,2533.53 L1770.25,2533.46 L1770.2,2533.44 L1770.16,2533.42 L1770.15,2533.41 L1770.13,2533.4 L1770.1,2533.41 L1770.08,2533.4 L1770.07,2533.38 L1770.04,2533.37 L1769.97,2533.36 L1769.89,2533.36 L1769.86,2533.36 L1769.82,2533.39 L1769.8,2533.4 L1769.75,2533.41 L1769.66,2533.43 L1769.53,2533.49 L1769.5,2533.5 L1769.48,2533.49 L1769.4,2533.48 L1769.33,2533.48 L1769.28,2533.46 L1769.25,2533.44 L1769.24,2533.42 L1769.22,2533.38 L1769.21,2533.33 L1769.21,2533.3 L1769.22,2533.24 L1769.22,2533.2 L1769.22,2533.18 L1769.21,2533.15 L1769.14,2533.09 L1769.11,2533.06 L1769.1,2533.04 L1769.1,2533.01 L1769.1,2532.99 L1769.08,2532.97 L1769.06,2532.95 L1769.02,2532.93 L1768.94,2532.84 L1768.88,2532.79 L1768.86,2532.73 L1768.85,2532.7 L1768.83,2532.67 L1768.8,2532.66 L1768.77,2532.67 L1768.71,2532.7 L1768.67,2532.71 L1768.63,2532.71 L1768.58,2532.69 L1768.49,2532.61 L1768.4,2532.49 L1768.26,2532.17 L1768.24,2532.13 L1768.19,2532.12 L1768.15,2532.1 L1768.09,2532.11 L1768.04,2532.12 L1767.86,2532.19 L1767.78,2532.21 L1767.73,2532.22 L1767.67,2532.22 L1767.62,2532.21 L1767.48,2532.17 L1767.26,2532.14 L1767.19,2532.14 L1767.15,2532.13 L1767.11,2532.11 L1767.06,2532.05 L1767.03,2531.99 L1767.01,2531.96 L1766.97,2531.94 L1766.92,2531.92 L1766.83,2531.92 L1766.73,2531.91 L1766.67,2531.89 L1766.63,2531.85 L1766.59,2531.81 L1766.56,2531.79 L1766.53,2531.78 L1766.49,2531.78 L1766.46,2531.8 L1766.27,2531.93 L1766.17,2532.01 L1766.14,2532.06 L1765.99,2532.32 L1765.95,2532.38 L1765.9,2532.41 L1765.85,2532.43 L1765.78,2532.43 L1765.71,2532.41 L1765.67,2532.41 L1765.61,2532.44 L1765.57,2532.48 L1765.53,2532.56 L1765.5,2532.61 L1765.47,2532.65 L1765.42,2532.67 L1765.3,2532.67 L1765.25,2532.68 L1765.2,2532.71 L1765.17,2532.76 L1765.14,2532.88 L1765.1,2532.92 L1765.07,2532.93 L1765.03,2532.93 L1764.97,2532.91 L1764.89,2532.86 L1764.82,2532.85 L1764.76,2532.84 L1764.69,2532.81 L1764.66,2532.79 L1764.47,2532.64 L1764.4,2532.6 L1764.29,2532.57 L1764.05,2532.56 L1763.83,2532.55 L1763.72,2532.56 L1763.63,2532.57 L1763.5,2532.61 L1763.13,2532.73 L1763,2532.76 L1762.93,2532.77 L1762.85,2532.77 L1762.77,2532.75 L1762.68,2532.71 L1762.53,2532.62 L1762.47,2532.59 L1762.38,2532.57 L1762.31,2532.54 L1762.28,2532.54 L1762.25,2532.55 L1762.21,2532.58 L1762.17,2532.62 L1762.08,2532.82 L1762.03,2532.91 L1761.98,2533.01 L1761.88,2533.11 L1761.74,2533.2 L1761.67,2533.23 L1761.61,2533.26 L1761.56,2533.28 L1761.52,2533.3 L1761.48,2533.34 L1761.44,2533.39 L1761.4,2533.44 L1761.37,2533.54 L1761.34,2533.61 L1761.32,2533.64 L1761.29,2533.66 L1761.26,2533.67 L1761.23,2533.67 L1761.2,2533.67 L1761.18,2533.66 L1761.03,2533.52 L1761.02,2533.5 L1760.99,2533.49 L1760.96,2533.5 L1760.91,2533.52 L1760.51,2533.8 L1760.46,2533.83 L1760.42,2533.9 L1760.34,2534.17 L1760.32,2534.23 L1760.29,2534.28 L1760.25,2534.3 L1760.19,2534.33 L1759.81,2534.4 L1759.71,2534.41 L1759.63,2534.42 L1759.57,2534.41 L1759.51,2534.39 L1759.44,2534.36 L1759.39,2534.32 L1759.34,2534.27 L1759.32,2534.21 L1759.3,2534.11 L1759.3,2533.74 L1759.3,2533.56 L1759.33,2533.45 L1759.38,2533.34 L1759.48,2533.2 L1759.52,2533.1 L1759.54,2533.01 L1759.54,2532.97 L1759.52,2532.93 L1759.49,2532.91 L1759.45,2532.89 L1759.37,2532.89 L1759.17,2532.89 L1759.06,2532.88 L1759,2532.85 L1758.98,2532.84 L1758.97,2532.81 L1758.98,2532.78 L1759.03,2532.75 L1759.09,2532.71 L1759.12,2532.65 L1759.19,2532.53 L1759.23,2532.41 L1759.22,2532.3 L1759.2,2532.17 L1759.18,2532.09 L1759.11,2532 L1759.01,2531.92 L1758.9,2531.78 L1758.88,2531.71 L1758.86,2531.68 L1758.82,2531.66 L1758.79,2531.66 L1758.75,2531.67 L1758.65,2531.75 L1758.49,2531.85 L1758.27,2531.97 L1757.73,2532.07 L1757.4,2532.12 L1757.21,2532.12 L1757.08,2532.12 L1757.04,2532.08 L1757.02,2531.94 L1757,2531.82 L1756.95,2531.74 L1756.84,2531.69 L1756.75,2531.64 L1756.72,2531.57 L1756.71,2531.49 L1756.73,2531.22 L1756.71,2531.13 L1756.69,2531.1 L1756.63,2531.08 L1756.56,2531.08 L1756.35,2531.09 L1756.14,2531.06 L1756.06,2531.06 L1756.02,2531.08 L1756,2531.12 L1755.95,2531.19 L1755.67,2531.49 L1755.5,2531.75 L1755.43,2531.83 L1755.33,2531.87 L1755.23,2531.9 L1755.03,2531.9 L1754.71,2531.81 L1754.63,2531.8 L1754.47,2531.81 L1754.21,2531.84 L1754.13,2531.84 L1754.08,2531.82 L1754.02,2531.77 L1753.88,2531.6 L1753.81,2531.56 L1753.77,2531.54 L1753.71,2531.55 L1753.53,2531.7 L1753.5,2531.73 L1753.45,2531.73 L1753.42,2531.7 L1753.29,2531.5 L1753.24,2531.42 L1753.16,2531.37 L1752.6,2531.05 L1752.47,2531.02 L1752.31,2531.04 L1751.92,2531.27 L1751.7,2531.36 L1751.57,2531.34 L1751.51,2531.28 L1751.49,2531.21 L1751.49,2531.1 L1751.6,2530.73 L1751.59,2530.65 L1751.55,2530.59 L1751.51,2530.54 L1751.36,2530.52 L1751.28,2530.49 L1751.2,2530.44 L1750.99,2530.25 L1750.91,2530.18 L1750.85,2530.09 L1750.83,2529.97 L1750.84,2529.91 L1750.89,2529.79 L1751.04,2529.66 L1751.21,2529.51 L1751.3,2529.37 L1751.27,2529.27 L1751.2,2529.2 L1751.11,2529.16 L1750.89,2529.08 L1750.79,2528.97 L1750.68,2528.84 L1750.57,2528.59 L1750.55,2528.37 L1750.48,2528.21 L1750.44,2527.96 L1750.38,2527.74 L1750.39,2527.53 L1750.44,2527.41 L1750.58,2527.25 L1750.72,2527.12 L1751.17,2526.77 L1751.4,2526.6 L1751.47,2526.41 L1751.43,2526.27 L1751.34,2526.14 L1751.2,2525.97 L1751.13,2525.85 L1751.14,2525.74 L1751.25,2525.51 L1751.43,2525.31 L1751.78,2525.03 L1752.17,2524.74 L1752.34,2524.51 L1752.41,2524.27 L1752.41,2524.02 L1752.45,2523.67 L1752.52,2523.38 L1752.72,2522.86 L1752.77,2522.7 L1752.77,2522.37 L1752.77,2522.12 L1752.77,2521.56 L1752.76,2521.45 L1752.81,2521.31 L1752.87,2521.22 L1752.97,2521.12 L1753.14,2521.05 L1753.34,2521.02 L1753.53,2521.04 L1753.77,2521.11 L1753.96,2521.17 L1754.08,2521.16 L1754.16,2521.12 L1754.24,2521.04 L1754.29,2520.92 L1754.36,2520.36 L1754.41,2520.14 L1754.41,2519.98 L1754.34,2519.71 L1754.29,2519.56 L1754.17,2519.35 L1753.93,2518.98 L1753.69,2518.76 L1753.63,2518.63 L1753.58,2518.46 L1753.53,2518.31 L1753.49,2518.01 L1753.37,2517.68 L1753.14,2517.6 L1752.94,2517.46 L1752.86,2517.41 L1752.74,2517.3 L1752.68,2517.21 L1752.62,2517.09 L1752.52,2516.76 L1752.48,2516.62 L1752.43,2516.52 L1752.34,2516.4 L1751.9,2515.94 L1751.52,2515.61 L1751.41,2515.49 L1751.35,2515.41 L1751.31,2515.31 L1751.26,2515.09 L1751.2,2514.86 L1751.15,2514.74 L1751.06,2514.54 L1751,2514.4 L1750.93,2514.09 L1750.91,2513.89 L1750.91,2513.82 L1750.92,2513.75 L1750.95,2513.67 L1751.18,2513.07 L1751.23,2512.93 L1751.25,2512.81 L1751.25,2512.69 L1751.22,2512.61 L1751.09,2512.34 L1751.03,2512.23 L1750.94,2512.14 L1750.9,2512.09 L1750.89,2512.03 L1750.88,2511.95 L1750.89,2511.87 L1750.97,2511.61 L1750.98,2511.53 L1750.98,2511.46 L1750.95,2511.39 L1750.91,2511.34 L1750.83,2511.28 L1750.69,2511.23 L1750.48,2511.16 L1750.34,2511.1 L1750.05,2510.95 L1749.95,2510.88 L1749.84,2510.8 L1749.74,2510.69 L1749.67,2510.59 L1749.6,2510.44 L1749.58,2510.24 L1749.55,2510.15 L1749.48,2510.09 L1749.18,2509.88 L1748.7,2509.56 L1748.61,2509.5 L1748.48,2509.46 L1748.32,2509.42 L1747.88,2509.38 L1747.81,2509.35 L1747.73,2509.31 L1747.65,2509.27 L1747.58,2509.19 L1747.34,2508.88 L1747.23,2508.7 L1747.14,2508.49 L1747.08,2508.3 L1747.06,2508.2 L1747.07,2508.12 L1747.11,2507.99 L1747.32,2507.63 L1747.38,2507.54 L1747.42,2507.5 L1747.43,2507.47 L1747.43,2507.45 L1747.43,2507.42 L1747.4,2507.37 L1747.36,2507.31 L1746.99,2506.88 L1746.87,2506.71 L1746.8,2506.6 L1746.75,2506.46 L1746.73,2506.34 L1746.72,2506.18 L1746.73,2506.07 L1746.78,2505.7 L1746.79,2505.57 L1746.79,2505.48 L1746.78,2505.41 L1746.76,2505.35 L1746.72,2505.3 L1746.49,2505.04 L1746.41,2504.95 L1746.31,2504.78 L1746.25,2504.68 L1746.17,2504.47 L1746.15,2504.37 L1746.16,2504.28 L1746.18,2504.22 L1746.24,2504.11 L1746.37,2503.94 L1746.45,2503.79 L1746.51,2503.63 L1746.54,2503.44 L1746.57,2503.25 L1746.58,2502.93 L1746.57,2502.82 L1746.53,2502.69 L1746.36,2502.35 L1746.25,2502.12 L1746.21,2501.97 L1746.2,2501.82 L1746.21,2501.72 L1746.22,2501.64 L1746.27,2501.55 L1746.58,2501.18 L1746.74,2500.99 L1746.8,2500.85 L1746.84,2500.72 L1746.87,2500.49 L1746.86,2500.33 L1746.89,2500.28 L1746.89,2500.24 L1746.88,2500.19 L1746.84,2500.15 L1746.77,2500.06 L1746.7,2500.02 L1746.61,2499.96 L1746.49,2499.92 L1746.41,2499.89 L1746.31,2499.88 L1746.21,2499.89 L1746.07,2499.93 L1745.61,2500.16 L1745.52,2500.19 L1745.45,2500.21 L1745.38,2500.21 L1745.28,2500.21 L1745.23,2500.2 L1745.1,2500.15 L1744.86,2500.04 L1744.57,2499.87 L1744.19,2499.59 L1743.99,2499.46 L1743.91,2499.31 L1743.28,2498.69 L1743.22,2498.65 L1743.13,2498.62 L1743.03,2498.6 L1742.78,2498.63 L1742.53,2498.63 L1742.11,2498.57 L1741.91,2498.54 L1741.71,2498.46 L1741.49,2498.29 L1741.4,2498.21 L1741.34,2498.1 L1741.15,2497.56 L1741.05,2497.35 L1740.99,2497.25 L1740.93,2497.18 L1740.86,2497.13 L1740.78,2497.09 L1740.68,2497.07 L1740.62,2497.08 L1740.56,2497.1 L1740.12,2497.3 L1739.92,2497.4 L1739.77,2497.44 L1739.5,2497.47 L1739.25,2497.5 L1739.1,2497.56 L1738.66,2497.78 L1738.34,2497.91 L1738.26,2497.92 L1738.19,2497.92 L1738.1,2497.9 L1737.73,2497.79 L1737.46,2497.76 L1737.29,2497.73 L1737.01,2497.64 L1736.91,2497.57 L1736.83,2497.49 L1736.8,2497.41 L1736.81,2497.14 L1736.85,2496.93 L1736.87,2496.74 L1736.85,2496.59 L1736.82,2496.42 L1736.78,2496.32 L1736.7,2496.18 L1736.59,2495.95 L1736.54,2495.8 L1736.51,2495.67 L1736.49,2495.39 L1736.46,2495.16 L1736.39,2494.83 L1736.36,2494.7 L1736.3,2494.52 L1736.17,2494.18 L1736.07,2493.88 L1736.02,2493.75 L1735.97,2493.64 L1735.88,2493.52 L1735.75,2493.39 L1735.59,2493.24 L1735.51,2493.13 L1735.42,2492.93 L1735.38,2492.81 L1735.36,2492.6 L1735.36,2492.51 L1735.4,2492.4 L1735.43,2492.35 L1735.5,2492.27 L1735.62,2492.11 L1735.7,2491.96 L1735.75,2491.82 L1735.78,2491.71 L1735.77,2491.64 L1735.76,2491.57 L1735.72,2491.5 L1735.66,2491.41 L1735.5,2491.2 L1735.35,2491.02 L1735.26,2490.87 L1735.22,2490.77 L1735.21,2490.64 L1735.21,2490.49 L1735.26,2490.39 L1735.35,2490.29 L1735.49,2490.18 L1735.64,2490.06 L1735.68,2489.98 L1735.72,2489.89 L1735.81,2489.64 L1735.9,2489.4 L1735.92,2489.25 L1735.93,2489.09 L1735.93,2489 L1735.92,2488.92 L1735.9,2488.85 L1735.88,2488.78 L1735.84,2488.74 L1735.79,2488.7 L1735.73,2488.66 L1735.31,2488.49 L1735.16,2488.44 L1735.07,2488.4 L1734.98,2488.33 L1734.93,2488.28 L1734.78,2488.06 L1734.63,2487.82 L1734.56,2487.71 L1734.48,2487.57 L1734.39,2487.43 L1734.32,2487.32 L1734.27,2487.22 L1734.21,2487.14 L1734.1,2487.01 L1734.03,2486.95 L1733.93,2486.87 L1733.8,2486.79 L1733.68,2486.71 L1733.61,2486.66 L1733.54,2486.6 L1733.49,2486.54 L1733.44,2486.45 L1733.42,2486.37 L1733.4,2486.18 L1733.41,2486.07 L1733.41,2485.95 L1733.44,2485.82 L1733.46,2485.75 L1733.56,2485.54 L1733.59,2485.49 L1733.65,2485.42 L1733.78,2485.25 L1734.18,2484.91 L1734.35,2484.74 L1734.39,2484.68 L1734.42,2484.63 L1734.43,2484.58 L1734.43,2484.56 L1734.43,2484.53 L1734.41,2484.47 L1734.33,2484.29 L1734.25,2484.14 L1734.13,2483.96 L1734.08,2483.87 L1734.03,2483.78 L1733.94,2483.66 L1733.78,2483.45 L1733.66,2483.31 L1733.63,2483.25 L1733.61,2483.2 L1733.61,2483.14 L1733.62,2483.1 L1733.65,2483.05 L1733.68,2483.01 L1733.76,2482.97 L1733.85,2482.93 L1733.99,2482.85 L1734.17,2482.75 L1734.28,2482.68 L1734.37,2482.58 L1734.43,2482.48 L1734.5,2482.35 L1734.53,2482.16 L1734.54,2481.98 L1734.54,2481.85 L1734.51,2481.76 L1734.46,2481.7 L1734.37,2481.63 L1734.27,2481.56 L1734.13,2481.51 L1733.88,2481.42 L1733.66,2481.35 L1733.44,2481.28 L1733.22,2481.2 L1733.12,2481.16 L1733.03,2481.13 L1732.88,2481.03 L1732.81,2480.98 L1732.75,2480.9 L1732.63,2480.74 L1732.57,2480.66 L1732.51,2480.6 L1732.47,2480.58 L1732.42,2480.55 L1732.37,2480.55 L1732.31,2480.54 L1732.22,2480.56 L1732.07,2480.6 L1731.93,2480.67 L1731.84,2480.73 L1731.45,2481.12 L1731.43,2481.13 L1731.4,2481.14 L1731.36,2481.14 L1731.32,2481.11 L1730.93,2480.82 L1730.75,2480.7 L1730.56,2480.61 L1730.41,2480.53 L1730.11,2480.4 L1729.94,2480.37 L1729.64,2480.36 L1729.06,2480.34 L1728.94,2480.33 L1728.87,2480.3 L1728.83,2480.28 L1728.79,2480.26 L1728.75,2480.2 L1728.65,2480.06 L1728.59,2479.92 L1728.44,2479.54 L1728.39,2479.43 L1728.29,2479.22 L1728.23,2479.05 L1728.18,2478.87 L1728.16,2478.72 L1728.16,2478.67 L1728.18,2478.61 L1728.24,2478.5 L1728.29,2478.4 L1728.35,2478.32 L1728.4,2478.27 L1728.48,2478.21 L1728.57,2478.15 L1728.81,2477.93 L1728.85,2477.89 L1728.87,2477.84 L1728.89,2477.79 L1728.89,2477.75 L1728.88,2477.7 L1728.86,2477.63 L1728.83,2477.59 L1728.78,2477.53 L1728.66,2477.4 L1728.6,2477.32 L1728.54,2477.23 L1728.5,2477.14 L1728.46,2477 L1728.45,2476.87 L1728.44,2476.64 L1728.44,2476.5 L1728.42,2476.44 L1728.37,2476.37 L1728.27,2476.3 L1728.08,2476.25 L1728.01,2476.22 L1727.99,2476.18 L1727.98,2476.15 L1727.95,2476.05 L1727.94,2475.94 L1727.92,2475.83 L1727.92,2475.73 L1727.97,2475.6 L1728.07,2475.45 L1728.19,2475.3 L1728.33,2475.2 L1728.47,2475.13 L1728.67,2475.06 L1728.8,2474.99 L1728.88,2474.89 L1728.95,2474.78 L1729,2474.63 L1729.02,2474.46 L1729.06,2474.14 L1729.09,2473.92 L1729.2,2473.62 L1729.24,2473.5 L1729.32,2473.37 L1729.42,2473.31 L1729.57,2473.26 L1729.83,2473.23 L1729.99,2473.16 L1730.2,2473.06 L1730.3,2472.99 L1730.41,2472.9 L1730.48,2472.83 L1730.52,2472.75 L1730.54,2472.67 L1730.55,2472.58 L1730.52,2472.45 L1730.45,2472.27 L1730.34,2472.17 L1730.19,2472.05 L1730.06,2471.94 L1729.97,2471.85 L1729.91,2471.73 L1729.85,2471.58 L1729.73,2471.27 L1729.67,2471.03 L1729.66,2470.84 L1729.7,2470.65 L1729.79,2470.4 L1729.82,2470.3 L1729.86,2470.17 L1729.88,2469.96 L1729.87,2469.71 L1729.85,2469.54 L1729.79,2469.39 L1729.72,2469.25 L1729.67,2469.12 L1729.65,2469.01 L1729.67,2468.88 L1729.75,2468.76 L1729.94,2468.42 L1730.12,2468.24 L1730.24,2468.16 L1730.42,2468.07 L1730.54,2467.98 L1730.69,2467.86 L1730.86,2467.65 L1730.91,2467.56 L1730.97,2467.41 L1731.02,2467.01 L1731.09,2466.87 L1731.2,2466.77 L1731.32,2466.71 L1731.48,2466.65 L1731.57,2466.58 L1731.67,2466.49 L1731.85,2466.28 L1731.96,2466.2 L1732.17,2466.1 L1732.5,2465.95 L1732.67,2465.79 L1732.83,2465.6 L1733.02,2465.31 L1733.13,2465.16 L1733.3,2465.01 L1733.38,2464.91 L1733.44,2464.71 L1733.43,2464.54 L1733.4,2464.37 L1733.34,2464.18 L1733.26,2463.97 L1733.17,2463.78 L1733.08,2463.66 L1732.95,2463.51 L1732.64,2463.25 L1732.49,2463.04 L1732.44,2462.89 L1732.38,2462.71 L1732.38,2462.63 L1732.39,2462.53 L1732.44,2462.46 L1732.49,2462.41 L1732.57,2462.34 L1732.65,2462.31 L1732.72,2462.28 L1732.82,2462.27 L1732.94,2462.28 L1733.27,2462.37 L1733.37,2462.4 L1733.48,2462.39 L1733.59,2462.34 L1733.65,2462.29 L1733.71,2462.23 L1733.83,2462.09 L1734.01,2461.94 L1734.18,2461.83 L1734.34,2461.77 L1734.49,2461.73 L1734.73,2461.7 L1734.89,2461.68 L1734.99,2461.65 L1735.09,2461.58 L1735.13,2461.54 L1735.15,2461.48 L1735.13,2461.39 L1735.09,2461.3 L1734.91,2460.98 L1734.87,2460.89 L1734.85,2460.81 L1734.89,2460.72 L1734.93,2460.65 L1735.02,2460.56 L1735.11,2460.49 L1735.24,2460.43 L1735.37,2460.38 L1735.6,2460.32 L1735.74,2460.32 L1735.91,2460.36 L1736.1,2460.41 L1736.25,2460.47 L1736.37,2460.54 L1736.53,2460.75 L1736.63,2460.82 L1736.72,2460.85 L1736.79,2460.85 L1736.87,2460.84 L1736.97,2460.77 L1737.02,2460.73 L1737.23,2460.44 L1737.28,2460.39 L1737.38,2460.37 L1737.51,2460.36 L1737.67,2460.37 L1737.76,2460.4 L1738.19,2460.6 L1738.28,2460.62 L1738.36,2460.64 L1738.44,2460.65 L1738.53,2460.64 L1738.59,2460.6 L1738.64,2460.55 L1738.78,2460.39 L1738.86,2460.33 L1738.92,2460.31 L1738.99,2460.31 L1739.07,2460.3 L1739.13,2460.31 L1739.24,2460.37 L1739.57,2460.67 L1739.61,2460.71 L1739.67,2460.74 L1739.74,2460.76 L1739.79,2460.76 L1739.85,2460.74 L1739.93,2460.7 L1740.01,2460.65 L1740.06,2460.59 L1740.25,2460.18 L1740.35,2460.02 L1740.58,2459.83 L1740.74,2459.73 L1740.88,2459.65 L1740.99,2459.6 L1741.18,2459.54 L1741.37,2459.53 L1741.49,2459.53 L1741.6,2459.54 L1741.75,2459.61 L1741.9,2459.71 L1742.02,2459.81 L1742.13,2459.85 L1742.21,2459.86 L1742.28,2459.86 L1742.37,2459.85 L1742.44,2459.8 L1742.53,2459.74 L1742.6,2459.65 L1742.68,2459.38 L1742.75,2459.03 L1742.82,2458.84 L1742.97,2458.67 L1743.06,2458.6 L1743.4,2458.36 L1743.48,2458.25 L1743.53,2458.11 L1743.55,2457.99 L1743.48,2457.81 L1743.4,2457.73 L1743.28,2457.58 L1743.18,2457.46 L1743.1,2457.3 L1743.08,2457.15 L1743.11,2456.95 L1743.14,2456.77 L1743.23,2456.6 L1743.28,2456.4 L1743.24,2456.22 L1743.12,2456.09 L1742.98,2455.98 L1742.82,2455.87 L1742.71,2455.75 L1742.64,2455.61 L1742.62,2455.43 L1742.66,2455.2 L1742.68,2454.95 L1742.65,2454.75 L1742.59,2454.57 L1742.49,2454.39 L1742.38,2454.16 L1742.3,2453.98 L1742.27,2453.75 L1742.33,2453.57 L1742.33,2453.4 L1742.3,2453.2 L1742.24,2453.06 L1742.14,2452.87 L1742.05,2452.7 L1741.96,2452.51 L1741.9,2452.35 L1741.89,2452.2 L1741.98,2452.02 L1742.14,2451.87 L1742.33,2451.7 L1742.51,2451.55 L1742.65,2451.38 L1742.83,2451.16 L1742.98,2450.92 L1743.11,2450.72 L1743.2,2450.58 L1743.33,2450.49 L1743.46,2450.45 L1743.63,2450.44 L1743.81,2450.41 L1744.02,2450.35 L1744.2,2450.29 L1744.33,2450.19 L1744.42,2450.09 L1744.46,2449.93 L1744.43,2449.75 L1744.38,2449.61 L1744.25,2449.45 L1744.13,2449.39 L1743.97,2449.4 L1743.8,2449.42 L1743.62,2449.48 L1743.52,2449.51 L1743.38,2449.52 L1743.28,2449.48 L1743.21,2449.38 L1743.12,2449.09 L1743.05,2448.94 L1742.94,2448.77 L1742.81,2448.61 L1742.66,2448.47 L1742.61,2448.34 L1742.66,2448.13 L1742.73,2447.98 L1742.8,2447.88 L1517.36,2424.52 L1484.64,2421.09 L1425.13,2414.81 L1425.14,2407.29 L1425.15,2397.41 L1425.13,2397.34 L1425.09,2397.29 L1425.04,2397.23 L1424.98,2397.19 L1424.9,2397.17 L1420.85,2397.19 L1420.12,2397.19 L1415.05,2397.21 L1420.49,2371.71 L1421.2,2368.36 L1421.23,2368.21 L1422.37,2362.93 L1416.31,2362.93 L1416.16,2362.93 L1407.11,2362.88 L1406.93,2362.87 L1406.69,2362.87 L1406.2,2362.87 L1406.01,2362.79 L1405.73,2362.71 L1405.58,2362.66 L1405.41,2362.57 L1405.21,2362.47 L1405.02,2362.39 L1404.9,2362.34 L1404.77,2362.31 L1404.45,2362.26 L1404.23,2362.23 L1403.95,2362.18 L1403.84,2362.16 L1403.78,2362.16 L1403.75,2362.16 L1403.72,2362.14 L1403.7,2362.09 L1403.64,2362.04 L1403.58,2362.01 L1403.5,2361.99 L1403.38,2361.98 L1403.32,2361.99 L1403.25,2362.04 L1403.18,2362.06 L1403.14,2362.06 L1403.08,2362.06 L1403.03,2362.07 L1402.98,2362.07 L1402.95,2362.05 L1402.89,2362 L1402.78,2361.91 L1402.66,2361.8 L1402.61,2361.73 L1402.6,2361.7 L1402.61,2361.66 L1402.6,2361.57 L1402.57,2361.54 L1402.5,2361.52 L1402.43,2361.5 L1402.34,2361.44 L1402.27,2361.43 L1402.22,2361.45 L1402.17,2361.5 L1402.09,2361.63 L1402.03,2361.78 L1401.98,2361.92 L1401.94,2361.98 L1401.88,2361.99 L1401.82,2361.98 L1401.73,2361.93 L1401.64,2361.88 L1401.4,2361.79 L1401.16,2361.6 L1401.08,2361.56 L1401,2361.56 L1400.92,2361.56 L1400.83,2361.62 L1400.75,2361.7 L1400.69,2361.84 L1400.64,2361.98 L1400.64,2362.09 L1400.61,2362.15 L1400.53,2362.26 L1400.4,2362.35 L1400.3,2362.39 L1400.2,2362.4 L1400.07,2362.4 L1399.99,2362.39 L1399.89,2362.4 L1399.77,2362.45 L1399.68,2362.46 L1399.52,2362.41 L1399.41,2362.43 L1399.32,2362.48 L1399.24,2362.52 L1399.18,2362.57 L1399.1,2362.61 L1399.01,2362.63 L1398.88,2362.62 L1398.74,2362.54 L1398.38,2362.44 L1397.87,2362.32 L1397.77,2362.3 L1397.62,2362.32 L1397.42,2362.34 L1397.29,2362.35 L1397.09,2362.29 L1396.84,2362.15 L1396.62,2362.04 L1396.4,2361.88 L1396.17,2361.69 L1396.06,2361.62 L1395.93,2361.52 L1395.76,2361.27 L1395.72,2361.15 L1395.67,2360.95 L1395.65,2360.88 L1395.56,2360.83 L1395.47,2360.79 L1395.32,2360.75 L1395.2,2360.74 L1395.08,2360.74 L1394.93,2360.76 L1394.73,2360.81 L1394.53,2360.9 L1394.41,2361.01 L1394.38,2361.07 L1394.16,2361.12 L1393.87,2361.19 L1393.75,2361.21 L1393.68,2361.21 L1393.56,2361.18 L1393.46,2361.2 L1393.3,2361.18 L1393.12,2361.2 L1393.07,2361.19 L1393.02,2361.16 L1392.99,2361.14 L1392.98,2361.03 L1393.03,2360.88 L1393.12,2360.77 L1393.23,2360.68 L1393.3,2360.61 L1393.39,2360.43 L1393.37,2360.36 L1393.31,2360.24 L1393.27,2360.17 L1393.21,2360.1 L1393.13,2360.03 L1393.06,2359.92 L1392.93,2359.83 L1392.74,2359.73 L1392.58,2359.63 L1392.43,2359.55 L1392.29,2359.47 L1392.16,2359.44 L1391.96,2359.32 L1391.75,2359.21 L1391.6,2359.12 L1391.49,2359.08 L1391.19,2359.09 L1391,2359.13 L1390.92,2359.14 L1390.65,2359.12 L1390.48,2359.1 L1390.34,2359.08 L1390.17,2359.12 L1390.09,2359.19 L1390.07,2359.32 L1390.15,2359.45 L1390.16,2359.57 L1390.19,2359.67 L1390.18,2359.84 L1390.16,2359.98 L1390.16,2360.22 L1390.14,2360.27 L1390.12,2360.3 L1389.96,2360.38 L1389.81,2360.5 L1389.52,2360.66 L1389.25,2360.84 L1389.18,2360.87 L1389.08,2360.88 L1388.91,2360.9 L1388.71,2360.99 L1388.49,2361.06 L1388.24,2361.11 L1388.05,2361.12 L1387.87,2361.11 L1387.6,2361.16 L1387.23,2361.18 L1387.19,2361.18 L1387.13,2361.17 L1387.11,2361.16 L1387.1,2361.15 L1386.93,2361.07 L1386.7,2361 L1386.46,2360.9 L1386.3,2360.84 L1386.19,2360.84 L1385.93,2360.86 L1385.68,2360.85 L1385.46,2360.82 L1385.1,2360.71 L1384.99,2360.68 L1384.9,2360.66 L1384.81,2360.69 L1384.74,2360.72 L1384.69,2360.8 L1384.62,2360.84 L1384.58,2360.85 L1384.51,2360.83 L1384.43,2360.84 L1384.32,2360.94 L1384.25,2361 L1384.03,2361.15 L1383.98,2361.23 L1383.97,2361.31 L1383.86,2361.49 L1383.8,2361.57 L1383.74,2361.61 L1383.64,2361.64 L1383.53,2361.64 L1383.37,2361.63 L1383.19,2361.62 L1382.78,2361.6 L1382.28,2361.51 L1382.18,2361.51 L1382.06,2361.53 L1381.73,2361.62 L1381.35,2361.74 L1381.22,2361.81 L1381.12,2361.9 L1380.98,2362.05 L1380.88,2362.12 L1380.82,2362.16 L1380.77,2362.17 L1380.63,2362.17 L1380.53,2362.14 L1380.41,2362.11 L1380.31,2362.11 L1380.13,2362.13 L1380.03,2362.16 L1379.68,2362.36 L1379.44,2362.51 L1379.31,2362.57 L1379.2,2362.65 L1379.09,2362.72 L1378.98,2362.82 L1378.93,2362.87 L1378.89,2362.89 L1378.84,2362.89 L1378.78,2362.87 L1378.7,2362.83 L1378.64,2362.77 L1378.54,2362.64 L1378.48,2362.59 L1378.32,2362.48 L1378.15,2362.35 L1378.04,2362.27 L1377.93,2362.22 L1377.84,2362.2 L1377.68,2362.21 L1377.54,2362.21 L1377.35,2362.23 L1377.24,2362.26 L1377.13,2362.29 L1377,2362.34 L1376.79,2362.43 L1376.61,2362.5 L1376.5,2362.53 L1376.37,2362.55 L1376.28,2362.55 L1376.08,2362.52 L1375.93,2362.48 L1375.79,2362.44 L1375.61,2362.38 L1375.48,2362.33 L1375.36,2362.29 L1375.26,2362.25 L1375.23,2362.23 L1375.22,2362.21 L1375.25,2362.15 L1375.3,2362.12 L1375.31,2362.11 L1375.31,2362.09 L1375.29,2362.05 L1375.23,2361.99 L1375.16,2361.95 L1375.06,2361.93 L1374.83,2361.92 L1374.71,2361.93 L1374.54,2361.95 L1374.39,2361.99 L1374.29,2362.02 L1374.17,2362.07 L1373.99,2362.12 L1373.91,2362.16 L1373.77,2362.22 L1373.58,2362.3 L1373.41,2362.39 L1373.21,2362.53 L1372.91,2362.71 L1372.81,2362.76 L1372.7,2362.78 L1372.54,2362.82 L1372.45,2362.84 L1372.29,2362.82 L1372.14,2362.84 L1372,2362.85 L1371.88,2362.85 L1371.66,2362.86 L1371.57,2362.87 L1371.47,2362.87 L1371.37,2362.86 L1371.32,2362.83 L1371.26,2362.8 L1371.21,2362.75 L1371.16,2362.69 L1371.09,2362.55 L1370.97,2362.35 L1370.84,2362.17 L1370.71,2362.01 L1370.58,2361.94 L1370.41,2361.82 L1370.25,2361.68 L1370.15,2361.61 L1370.07,2361.56 L1369.98,2361.52 L1369.84,2361.48 L1369.69,2361.46 L1369.57,2361.43 L1369.41,2361.37 L1369.37,2361.36 L1369.33,2361.33 L1369.23,2361.22 L1369.19,2361.18 L1369.14,2361.16 L1369.05,2361.14 L1368.97,2361.13 L1368.91,2361.13 L1368.7,2361.16 L1368.44,2361.21 L1368.28,2361.22 L1368.15,2361.23 L1368.06,2361.24 L1367.97,2361.23 L1367.88,2361.2 L1367.8,2361.18 L1367.67,2361.1 L1367.5,2360.98 L1367.28,2360.82 L1367.06,2360.67 L1367.05,2360.65 L1367.04,2360.62 L1367.07,2360.57 L1367.08,2360.53 L1367.08,2360.51 L1367.04,2360.46 L1366.91,2360.32 L1366.8,2360.23 L1366.73,2360.18 L1366.65,2360.14 L1366.6,2360.13 L1366.53,2360.15 L1366.46,2360.17 L1366.37,2360.2 L1366.27,2360.2 L1366.21,2360.2 L1366.13,2360.17 L1365.88,2360.04 L1365.86,2360.02 L1365.86,2359.99 L1365.86,2359.97 L1365.87,2359.94 L1365.9,2359.85 L1365.91,2359.77 L1365.9,2359.72 L1365.89,2359.67 L1365.87,2359.61 L1365.83,2359.56 L1365.7,2359.49 L1365.59,2359.43 L1365.49,2359.41 L1365.37,2359.39 L1365.29,2359.38 L1365.17,2359.37 L1364.87,2359.33 L1364.7,2359.31 L1364.59,2359.31 L1364.41,2359.34 L1364.28,2359.37 L1364.14,2359.39 L1363.84,2359.39 L1363.82,2359.4 L1363.8,2359.4 L1363.79,2359.39 L1363.79,2359.37 L1363.8,2359.33 L1363.79,2359.24 L1363.77,2359.16 L1363.76,2359.13 L1363.75,2359.11 L1363.73,2359.1 L1363.67,2359.09 L1363.61,2359.08 L1363.55,2359.09 L1363.47,2359.11 L1363.41,2359.13 L1363.13,2359.26 L1362.99,2359.33 L1362.94,2359.35 L1362.87,2359.36 L1362.83,2359.35 L1362.81,2359.34 L1362.78,2359.33 L1362.69,2359.29 L1362.62,2359.26 L1362.56,2359.25 L1362.46,2359.24 L1362.34,2359.27 L1362.27,2359.29 L1362.09,2359.35 L1362.05,2359.36 L1361.98,2359.37 L1361.93,2359.4 L1361.77,2359.52 L1361.74,2359.55 L1361.71,2359.57 L1361.68,2359.57 L1361.66,2359.54 L1361.63,2359.51 L1361.59,2359.51 L1361.55,2359.52 L1361.51,2359.55 L1361.49,2359.59 L1361.36,2359.78 L1361.29,2359.85 L1361.2,2359.93 L1361.12,2359.95 L1361.09,2359.95 L1360.98,2359.91 L1360.91,2359.86 L1360.87,2359.81 L1360.84,2359.71 L1360.79,2359.57 L1360.77,2359.51 L1360.74,2359.49 L1360.7,2359.47 L1360.62,2359.45 L1360.57,2359.43 L1360.53,2359.4 L1360.5,2359.38 L1360.41,2359.4 L1360.32,2359.47 L1360.27,2359.55 L1360.26,2359.6 L1360.27,2359.66 L1360.27,2359.7 L1360.24,2359.74 L1360.22,2359.79 L1360.18,2359.81 L1360.12,2359.82 L1360.07,2359.83 L1359.99,2359.83 L1359.8,2359.8 L1359.62,2359.79 L1359.52,2359.79 L1359.42,2359.79 L1359.28,2359.78 L1359.17,2359.76 L1359.11,2359.75 L1359.04,2359.72 L1358.96,2359.7 L1358.89,2359.7 L1358.76,2359.73 L1358.7,2359.74 L1358.64,2359.74 L1358.57,2359.73 L1358.45,2359.73 L1358.39,2359.75 L1358.23,2359.85 L1358.18,2359.88 L1358.15,2359.88 L1358.04,2359.86 L1357.99,2359.87 L1357.96,2359.9 L1357.93,2359.96 L1357.91,2359.99 L1357.89,2360.01 L1357.85,2360.02 L1357.83,2360.02 L1357.72,2359.99 L1357.69,2359.98 L1357.64,2359.99 L1357.56,2360.04 L1357.54,2360.05 L1357.5,2360.05 L1357.46,2360.04 L1357.45,2360.01 L1357.44,2360 L1357.46,2359.95 L1357.45,2359.92 L1357.44,2359.91 L1357.41,2359.9 L1357.38,2359.91 L1357.32,2359.93 L1357.22,2359.92 L1357.16,2359.92 L1357.11,2359.92 L1356.99,2359.94 L1356.87,2359.95 L1356.8,2359.96 L1356.76,2359.96 L1356.73,2359.93 L1356.68,2359.92 L1356.58,2359.91 L1356.43,2359.88 L1356.37,2359.87 L1356.32,2359.86 L1356.27,2359.88 L1356.23,2359.92 L1356.19,2360 L1356.11,2360.16 L1356.05,2360.23 L1356,2360.34 L1355.96,2360.46 L1355.89,2360.57 L1355.85,2360.63 L1355.78,2360.71 L1355.66,2360.78 L1355.6,2360.81 L1355.54,2360.82 L1355.4,2360.84 L1355.37,2360.86 L1355.33,2360.88 L1355.27,2360.87 L1355.18,2360.83 L1355.11,2360.82 L1355.04,2360.82 L1354.98,2360.84 L1354.92,2360.86 L1354.74,2361.01 L1354.5,2361.25 L1354.45,2361.3 L1354.4,2361.32 L1354.36,2361.31 L1354.23,2361.29 L1354.16,2361.28 L1354.12,2361.29 L1354.04,2361.33 L1353.97,2361.39 L1353.89,2361.5 L1353.85,2361.54 L1353.8,2361.56 L1353.75,2361.57 L1353.71,2361.56 L1353.63,2361.51 L1353.59,2361.44 L1353.52,2361.27 L1353.43,2361.11 L1353.33,2360.99 L1353.26,2360.91 L1353.2,2360.85 L1353.11,2360.82 L1353.01,2360.79 L1352.9,2360.8 L1352.79,2360.83 L1352.74,2360.85 L1352.65,2360.87 L1352.5,2360.94 L1352.43,2360.97 L1352.37,2360.97 L1352.28,2360.94 L1352.21,2360.9 L1352.14,2360.8 L1352.1,2360.72 L1352.08,2360.6 L1352.06,2360.49 L1352.08,2360.38 L1352.11,2360.29 L1352.21,2360.11 L1352.23,2360.03 L1352.23,2359.92 L1352.22,2359.74 L1352.2,2359.62 L1352.16,2359.5 L1352.09,2359.36 L1351.99,2359.25 L1351.89,2359.17 L1351.67,2359.02 L1351.48,2358.85 L1351.41,2358.79 L1351.31,2358.74 L1351.21,2358.72 L1351.08,2358.68 L1350.89,2358.61 L1350.74,2358.54 L1350.64,2358.48 L1350.56,2358.43 L1350.45,2358.42 L1350.18,2358.41 L1350.13,2358.4 L1350.1,2358.39 L1349.98,2358.32 L1349.88,2358.27 L1349.78,2358.24 L1349.7,2358.24 L1349.54,2358.24 L1349.39,2358.26 L1349.32,2358.27 L1349.24,2358.27 L1349,2358.28 L1348.92,2358.29 L1348.86,2358.3 L1348.76,2358.34 L1348.51,2358.43 L1348.37,2358.48 L1348.33,2358.5 L1348.27,2358.52 L1348.23,2358.52 L1348.19,2358.52 L1348.15,2358.52 L1348.11,2358.54 L1348.06,2358.57 L1348.01,2358.59 L1347.97,2358.59 L1347.92,2358.57 L1347.86,2358.59 L1347.76,2358.61 L1347.59,2358.63 L1347.49,2358.64 L1347.35,2358.68 L1347.29,2358.69 L1347.21,2358.69 L1347.14,2358.7 L1347.08,2358.7 L1346.89,2358.67 L1346.66,2358.61 L1346.53,2358.58 L1346.43,2358.54 L1346.37,2358.53 L1346.33,2358.53 L1346.26,2358.54 L1346.18,2358.56 L1346.15,2358.56 L1346.1,2358.55 L1346,2358.49 L1345.84,2358.38 L1345.77,2358.35 L1345.67,2358.31 L1345.48,2358.27 L1345.39,2358.24 L1345.13,2358.11 L1345.09,2358.09 L1345.05,2358.09 L1345.01,2358.09 L1344.94,2358.1 L1344.72,2358.17 L1344.64,2358.19 L1344.56,2358.2 L1344.47,2358.22 L1344.43,2358.22 L1344.34,2358.2 L1344.26,2358.19 L1344.2,2358.18 L1344.09,2358.19 L1344.04,2358.2 L1343.97,2358.17 L1343.93,2358.15 L1343.83,2358.07 L1343.69,2357.95 L1343.62,2357.91 L1343.54,2357.86 L1343.48,2357.82 L1343.41,2357.8 L1343.33,2357.71 L1343.29,2357.68 L1343.25,2357.67 L1343.22,2357.66 L1343.18,2357.67 L1343.15,2357.69 L1343.12,2357.73 L1343.1,2357.81 L1343.05,2357.9 L1342.99,2358.04 L1342.95,2358.27 L1342.85,2358.65 L1342.8,2358.87 L1342.77,2359.01 L1342.72,2359.15 L1342.66,2359.3 L1342.63,2359.39 L1342.57,2359.48 L1342.45,2359.6 L1342.36,2359.71 L1342.29,2359.83 L1342.15,2359.93 L1341.92,2360.11 L1341.77,2360.23 L1341.6,2360.34 L1341.54,2360.39 L1341.51,2360.46 L1341.5,2360.52 L1341.49,2360.64 L1341.48,2360.69 L1341.45,2360.72 L1341.41,2360.73 L1341.37,2360.72 L1341.34,2360.7 L1341.29,2360.63 L1341.21,2360.48 L1341.1,2360.26 L1341.01,2360.03 L1340.95,2359.85 L1340.95,2359.75 L1340.95,2359.64 L1340.98,2359.44 L1341.01,2359.28 L1341.02,2359.21 L1341.01,2359.14 L1340.99,2359.09 L1340.93,2358.99 L1340.84,2358.88 L1340.64,2358.74 L1340.55,2358.68 L1340.42,2358.63 L1340.33,2358.6 L1340.2,2358.55 L1340.13,2358.54 L1340.03,2358.56 L1339.97,2358.59 L1339.89,2358.64 L1339.83,2358.68 L1339.77,2358.7 L1339.68,2358.71 L1339.6,2358.7 L1339.49,2358.68 L1339.37,2358.65 L1339.26,2358.62 L1339.19,2358.57 L1339.11,2358.53 L1339.04,2358.46 L1338.97,2358.37 L1338.91,2358.31 L1338.8,2358.27 L1338.73,2358.22 L1338.62,2358.14 L1338.52,2358.08 L1338.42,2358.04 L1338.33,2358.04 L1338.21,2358.04 L1338.12,2358.05 L1338.01,2358.12 L1337.96,2358.17 L1337.92,2358.28 L1337.94,2358.42 L1337.95,2358.47 L1337.97,2358.52 L1338.01,2358.57 L1338.06,2358.62 L1338.12,2358.65 L1338.14,2358.67 L1338.16,2358.72 L1338.15,2358.77 L1338.12,2358.8 L1338.07,2358.85 L1337.99,2358.89 L1337.84,2358.99 L1337.7,2359.08 L1337.56,2359.18 L1337.42,2359.28 L1337.37,2359.35 L1337.31,2359.47 L1337.24,2359.62 L1337.06,2359.89 L1336.99,2360 L1336.89,2360.14 L1336.84,2360.22 L1336.77,2360.3 L1336.62,2360.4 L1336.55,2360.5 L1336.45,2360.6 L1336.42,2360.7 L1336.41,2360.79 L1336.44,2360.87 L1336.49,2360.92 L1336.58,2360.96 L1336.69,2360.98 L1336.82,2360.99 L1336.99,2361.07 L1337.09,2361.1 L1337.26,2361.21 L1337.43,2361.36 L1337.47,2361.4 L1337.49,2361.46 L1337.49,2361.5 L1337.46,2361.58 L1337.43,2361.7 L1337.4,2361.78 L1337.33,2361.87 L1337.25,2361.94 L1337.11,2362.01 L1336.98,2362.04 L1336.87,2362.06 L1336.77,2362.07 L1336.69,2362.06 L1336.55,2362.02 L1336.48,2361.99 L1336.4,2361.95 L1336.28,2361.83 L1335.95,2361.55 L1335.82,2361.44 L1335.72,2361.38 L1335.65,2361.34 L1335.6,2361.28 L1335.57,2361.22 L1335.55,2361.14 L1335.47,2360.99 L1335.4,2360.89 L1335.32,2360.73 L1335.26,2360.65 L1335.21,2360.56 L1335.17,2360.43 L1335.1,2360.24 L1335.07,2360.09 L1335.04,2360.03 L1334.98,2360.01 L1334.91,2360.01 L1334.75,2360.04 L1334.66,2360.05 L1334.59,2360.12 L1334.51,2360.22 L1334.45,2360.3 L1334.43,2360.43 L1334.38,2360.55 L1334.26,2360.72 L1334.13,2360.84 L1334.05,2360.95 L1333.95,2361.03 L1333.86,2361.08 L1333.73,2361.1 L1333.57,2361.13 L1333.33,2361.24 L1333.14,2361.32 L1332.97,2361.47 L1332.85,2361.59 L1332.81,2361.68 L1332.78,2361.8 L1332.72,2361.89 L1332.59,2361.93 L1332.51,2361.98 L1332.31,2362.01 L1332.14,2361.99 L1331.9,2361.94 L1331.68,2361.9 L1331.54,2361.88 L1331.39,2361.87 L1331.28,2361.83 L1331.21,2361.79 L1331.15,2361.74 L1331.1,2361.63 L1331.04,2361.57 L1330.93,2361.54 L1330.8,2361.56 L1330.68,2361.61 L1330.57,2361.72 L1330.44,2361.85 L1330.34,2361.96 L1330.27,2362.02 L1330.19,2362.04 L1330.11,2362.05 L1329.99,2362.06 L1329.87,2362.03 L1329.76,2361.96 L1329.62,2361.88 L1329.53,2361.78 L1329.45,2361.64 L1329.34,2361.51 L1329.23,2361.4 L1329.11,2361.32 L1329.02,2361.3 L1328.93,2361.29 L1328.82,2361.31 L1328.69,2361.43 L1328.59,2361.64 L1328.53,2361.73 L1328.48,2361.83 L1328.41,2361.9 L1328.16,2361.93 L1328.03,2361.92 L1327.89,2361.9 L1327.82,2361.84 L1327.78,2361.78 L1327.77,2361.71 L1327.74,2361.64 L1327.59,2361.41 L1327.49,2361.18 L1327.45,2361.08 L1327.38,2361.01 L1327.19,2360.93 L1327.08,2360.91 L1326.96,2360.89 L1326.69,2360.96 L1326.56,2361 L1326.4,2360.96 L1326.27,2360.95 L1326.16,2360.87 L1326,2360.78 L1325.81,2360.75 L1325.69,2360.73 L1325.61,2360.73 L1325.49,2360.73 L1325.36,2360.76 L1325.28,2360.74 L1325.24,2360.69 L1325.17,2360.62 L1325.07,2360.56 L1324.99,2360.51 L1324.85,2360.46 L1324.78,2360.47 L1324.65,2360.51 L1324.58,2360.51 L1324.5,2360.56 L1324.37,2360.67 L1324.15,2360.79 L1323.91,2360.83 L1323.77,2360.83 L1323.49,2360.77 L1322.9,2360.61 L1322.84,2360.61 L1322.75,2360.62 L1322.67,2360.65 L1322.58,2360.8 L1322.49,2360.91 L1322.41,2361.09 L1322.34,2361.32 L1322.26,2361.58 L1322.26,2361.95 L1322.23,2362.06 L1322.15,2362.21 L1322.05,2362.29 L1321.89,2362.41 L1321.66,2362.56 L1321.5,2362.67 L1321.29,2362.79 L1320.98,2362.97 L1320.72,2363.07 L1320.35,2363.18 L1320.17,2363.21 L1320.05,2363.26 L1319.92,2363.28 L1319.78,2363.37 L1319.63,2363.42 L1319.52,2363.42 L1319.38,2363.36 L1319.22,2363.3 L1319.07,2363.19 L1318.93,2363.01 L1318.8,2362.87 L1318.7,2362.74 L1318.61,2362.68 L1318.46,2362.62 L1318.28,2362.56 L1318.25,2362.57 L1318.21,2362.57 L1318.17,2362.55 L1318.15,2362.54 L1318.11,2362.56 L1318.06,2362.55 L1318.03,2362.54 L1318.01,2362.5 L1317.99,2362.47 L1317.88,2362.42 L1317.67,2362.31 L1317.58,2362.26 L1317.42,2362.24 L1317.21,2362.26 L1317.02,2362.31 L1316.89,2362.35 L1316.49,2362.58 L1316.22,2362.73 L1316.1,2362.83 L1316.03,2362.83 L1315.98,2362.82 L1315.84,2362.77 L1315.77,2362.78 L1315.63,2362.77 L1315.53,2362.69 L1315.3,2362.53 L1315.2,2362.39 L1315.09,2362.25 L1314.98,2362.12 L1314.87,2362.03 L1314.7,2361.91 L1314.62,2361.87 L1314.45,2361.86 L1314.35,2361.83 L1314.29,2361.78 L1314.18,2361.75 L1314.1,2361.74 L1313.96,2361.7 L1313.85,2361.72 L1313.81,2361.72 L1313.74,2361.7 L1313.6,2361.63 L1313.55,2361.58 L1313.51,2361.54 L1313.25,2361.28 L1313.16,2361.17 L1313.13,2361.04 L1313,2360.97 L1312.93,2360.9 L1312.88,2360.88 L1312.85,2360.88 L1312.78,2360.91 L1312.62,2360.98 L1312.37,2361.13 L1312.18,2361.17 L1312.07,2361.23 L1311.85,2361.36 L1311.74,2361.4 L1311.64,2361.42 L1311.54,2361.43 L1311.44,2361.48 L1311.26,2361.68 L1311.18,2361.71 L1311.1,2361.73 L1310.99,2361.7 L1310.72,2361.68 L1310.65,2361.67 L1310.55,2361.67 L1310.43,2361.66 L1310.26,2361.55 L1310.11,2361.47 L1309.91,2361.33 L1309.81,2361.25 L1309.77,2361.24 L1309.52,2361.19 L1309.37,2361.2 L1309.22,2361.17 L1309.06,2361.17 L1308.93,2361.15 L1308.73,2361.14 L1308.52,2361.18 L1308.46,2361.2 L1308.21,2361.3 L1308.03,2361.32 L1307.88,2361.32 L1307.71,2361.24 L1307.48,2361.18 L1307.36,2361.2 L1307.26,2361.24 L1307.18,2361.34 L1307.09,2361.4 L1306.89,2361.59 L1306.74,2361.7 L1306.6,2361.83 L1306.35,2361.89 L1306.21,2361.9 L1306.11,2361.88 L1306.05,2361.9 L1305.93,2361.88 L1305.77,2361.9 L1305.58,2361.96 L1305.48,2361.97 L1305.33,2361.93 L1305.09,2361.76 L1305.03,2361.74 L1304.92,2361.77 L1304.75,2361.76 L1304.6,2361.7 L1304.36,2361.66 L1303.98,2361.64 L1303.74,2361.71 L1303.64,2361.72 L1303.57,2361.73 L1303.51,2361.63 L1303.44,2361.6 L1303.33,2361.61 L1303.18,2361.61 L1302.95,2361.5 L1302.72,2361.37 L1302.47,2361.26 L1302.33,2361.22 L1302.21,2361.27 L1302.02,2361.32 L1301.83,2361.26 L1301.62,2361.26 L1301.44,2361.33 L1301.29,2361.4 L1301.16,2361.39 L1301.02,2361.39 L1300.88,2361.46 L1300.66,2361.63 L1300.51,2361.68 L1300.4,2361.81 L1300.16,2361.92 L1299.89,2362.11 L1299.72,2362.32 L1299.54,2362.56 L1299.4,2362.78 L1299.23,2362.98 L1299.11,2363.22 L1298.97,2363.45 L1298.77,2363.69 L1298.71,2363.82 L1298.7,2363.99 L1297.93,2363.97 L1297.35,2363.39 L1284.33,2356.71 L1286.14,2342.9 L1281.74,2339.05 L1276.77,2336.35 L1269.14,2335.37 L1268.63,2334.9 L1266.89,2336.02 L1265.44,2335.79 L1264.01,2335.65 L1263.26,2335.61 L1262.32,2335.37 L1261.23,2335.13 L1260.99,2334.31 L1261,2332.99 L1261.16,2332.39 L1261.43,2331.6 L1261.92,2330.61 L1261.94,2329.07 L1263.31,2329.07 L1267.01,2325.44 L1266.89,2321.09 L1266.8,2319.13 L1267.21,2317.92 L1253.43,2315.06 L1245.91,2315.4 L1238.72,2316.02 L1238.53,2316.27 L1236.03,2319.54 L1235.91,2319.71 L1230.19,2328.98 L1229.33,2330.36 L1225.78,2335.96 L1225.71,2336.09 L1225.67,2336.2 L1225.24,2337.97 L1225.22,2338.27 L1224.74,2340.42 L1224.68,2340.68 L1224.62,2340.86 L1224.5,2341.14 L1223.57,2343.34 L1223.48,2343.53 L1223.33,2343.83 L1222.55,2343.5 L1207.04,2342.01 L1197.68,2341.5 L1195.49,2340.57 L1193.19,2340.12 L1180.14,2340.02 L1180.15,2339.52 L1179.72,2337.94 L1178.52,2336.27 L1177.85,2334.28 L1176.63,2333.29 L1176.67,2332.23 L1176.71,2330.49 L1176.32,2328.96 L1176.18,2328.4 L1175.28,2328.22 L1174.16,2324.18 L1173.31,2320.81 L1173.33,2318.56 L1173.39,2316.7 L1173.04,2315.11 L1172.5,2313.92 L1171.87,2312.12 L1171.88,2310.43 L1171.27,2308.07 L1171.41,2306.38 L1171.45,2301.19 L1170.84,2299.25 L1121.8,2287.58 L994.903,2271.01 L923.28,2283.61 L874.957,2292.13 L759.851,2312.37 L759.817,2310.93 L759.804,2309.06 L760.013,2308.38 L760.035,2307.32 L758.517,2303.42 L757.953,2301.46 L757.62,2299.19 L757.377,2294.44 L757.138,2292.17 L757.137,2289.68 L757.482,2286.25 L757.362,2283.43 L756.784,2281.44 L756.686,2277.7 L757.216,2274.71 L758.272,2272.15 L758.64,2269.11 L758.77,2263.74 L758.167,2261.6 L758.868,2258.24 L759.206,2256.07 L760.269,2252.65 L760.599,2250.17 L761.053,2249.36 L761.501,2246.61 L763.145,2244.99 L763.696,2244.32 L771.452,2238.05 L773.688,2234.19 L775.683,2224.55 L778.654,2217.84 L777.902,2214.64 L775.13,2212.83 L771.897,2208.74 L767.682,2206.16 L764.939,2202.69 L764.163,2196.5 L758.768,2190.51 L754.342,2185.12 L751.169,2178.02 L751.457,2165.47 L755.381,2151.41 L756.989,2146.93 L759.829,2144.36 L768.829,2144.03 L772.986,2143.34 L776.335,2143.64 L779.743,2142.23 L781.262,2140.89 L781.029,2139.6 L779.444,2138.91 L779.026,2137.87 L767.308,2131.15 L763.232,2128.04 L758.961,2122.42 L753.929,2118.99 L751.705,2116.67 L749.362,2109.86 L745.308,2101.99 L744.81,2090.29 L746.046,2078.61 L743.574,2073.36 L745.49,2066.38 L745.86,2059.21 L744.933,2057.6 L744.45,2049.51 L745.778,2030.79 L740.616,2025.17 L741.597,2016.2 L742.956,2014.47 L742.647,2010.95 L739.428,2009.03 L739.063,2004.15 L740.929,2000.41 L735.334,1988.24 L719.81,1953.38 L721.598,1942.79 L717.256,1928.74 L723.641,1909.33 L722.492,1901.53 L711.185,1890.01 L705.634,1883.66 L684.818,1873.82 L681.625,1868.2 L673.835,1861.43 L673.068,1857.22 L666.175,1846.05 L615.219,1834.15 L612.599,1833.62 L611.658,1828.38 L609.816,1818.37 L608.281,1810.32 L606.841,1802.14 L606.549,1800.77 L606.482,1799.97 L606.536,1799.14 L606.697,1798.41 L606.925,1797.75 L607.391,1796.87 L607.871,1795.88 L608.021,1795.52 L607.952,1795.33 L607.947,1795.25 L607.924,1795.05 L607.719,1794.86 L607.543,1794.79 L607.337,1794.67 L607.125,1794.67 L606.824,1794.61 L606.633,1794.61 L606.418,1794.56 L606.189,1794.56 L605.954,1794.61 L605.721,1794.77 L605.539,1794.83 L605.303,1794.84 L605.079,1794.76 L604.873,1794.6 L604.792,1794.41 L604.765,1794.17 L604.736,1793.83 L604.611,1793.69 L604.442,1793.59 L604.008,1793.58 L603.584,1793.6 L603.16,1793.57 L602.712,1793.52 L602.215,1793.36 L601.948,1793.33 L601.528,1793.34 L601.328,1793.21 L601.116,1792.94 L600.805,1792.83 L600.516,1793.02 L600.273,1793.25 L600.161,1793.47 L599.903,1793.53 L599.606,1793.66 L599.401,1793.57 L599.374,1793.39 L599.339,1793.18 L599.493,1792.82 L599.681,1792.41 L599.582,1791.98 L599.207,1791.64 L598.808,1791.48 L598.412,1791.36 L598.072,1791.44 L597.692,1791.64 L596.916,1791.85 L596.054,1791.74 L595.761,1791.49 L595.655,1791.11 L595.605,1790.66 L595.578,1790.29 L595.582,1789.88 L595.489,1789.37 L595.464,1788.85 L595.251,1788.32 L595.037,1787.89 L594.714,1787.16 L594.468,1786.86 L594.229,1786.74 L593.894,1786.73 L593.568,1786.79 L593.408,1786.97 L593.191,1787.26 L592.852,1787.66 L592.551,1787.92 L592.081,1788.16 L591.54,1788.25 L591.11,1788.25 L590.602,1788 L590.268,1787.72 L589.681,1787.17 L589.347,1786.66 L589.255,1786.29 L589.251,1785.75 L589.212,1785.31 L589.364,1784.99 L589.653,1784.81 L590.043,1784.81 L590.512,1784.93 L591.116,1785.11 L591.675,1784.98 L592.014,1784.67 L592.13,1784.27 L591.921,1783.77 L591.469,1783.23 L591.098,1782.73 L590.998,1782.17 L590.977,1781.78 L590.959,1781.63 L591.045,1781.23 L591.583,1780.77 L591.769,1780.11 L591.588,1779.42 L591.243,1779.15 L590.729,1778.96 L590.265,1778.91 L589.996,1778.95 L589.722,1778.95 L589.179,1778.91 L588.639,1778.83 L588.134,1778.72 L587.826,1778.72 L587.566,1778.92 L587.512,1779.21 L587.58,1779.48 L587.851,1779.9 L588.078,1780.43 L588.187,1780.77 L588.212,1781.19 L588.057,1781.58 L587.657,1781.9 L587.245,1782.15 L586.474,1782.44 L585.703,1782.61 L585.426,1782.52 L584.974,1782.28 L584.597,1782.25 L584.232,1782.42 L583.888,1782.57 L583.545,1782.63 L583.082,1782.34 L583.022,1782.09 L582.997,1781.88 L583.17,1781.64 L583.729,1781.33 L583.958,1780.94 L583.896,1780.46 L583.5,1780.35 L583.312,1780.13 L582.789,1779.89 L582.666,1779.68 L582.58,1779.49 L584.404,1769.14" vector-effect="none"/>
  </g>
  <g stroke="#000000" stroke-linejoin="bevel" stroke-linecap="square" font-style="normal" font-size="34.5833" font-family="MS Shell Dlg 2" font-weight="400" stroke-width="1" stroke-opacity="1" transform="matrix(0.999744,0,0,0.999744,0,0)" fill="none"/>
  <g stroke="#000000" stroke-linejoin="bevel" stroke-linecap="square" font-style="normal" font-size="34.5833" font-family="MS Shell Dlg 2" font-weight="400" stroke-width="1" stroke-opacity="1" transform="matrix(11.808,0,0,11.808,0,0)" fill="none"/>
  <g stroke="#000000" stroke-linejoin="bevel" stroke-linecap="square" font-style="normal" font-size="34.5833" font-family="MS Shell Dlg 2" font-weight="400" stroke-width="1" stroke-opacity="1" transform="matrix(11.808,0,0,11.808,0,0)" fill="none"/>
  <g stroke="#000000" stroke-linejoin="bevel" stroke-linecap="square" font-style="normal" font-size="34.5833" font-family="MS Shell Dlg 2" font-weight="400" stroke-width="1" stroke-opacity="1" transform="matrix(11.808,0,0,11.808,0,0)" fill="none"/>
  <g stroke="#000000" stroke-linejoin="bevel" stroke-linecap="square" font-style="normal" font-size="34.5833" font-family="MS Shell Dlg 2" font-weight="400" stroke-width="1" stroke-opacity="1" transform="matrix(1,0,0,1,0,0)" fill="none"/>
  <g stroke="#000000" stroke-linejoin="bevel" stroke-linecap="square" font-style="normal" font-size="34.5833" font-family="MS Shell Dlg 2" font-weight="400" stroke-width="1" stroke-opacity="1" transform="matrix(11.808,0,0,11.808,0,0)" fill="none"/>
  <g stroke="#000000" stroke-linejoin="bevel" stroke-linecap="square" font-style="normal" font-size="34.5833" font-family="MS Shell Dlg 2" font-weight="400" stroke-width="1" stroke-opacity="1" transform="matrix(11.808,0,0,11.808,0,0)" fill="none"/>
  <g stroke="#000000" stroke-linejoin="bevel" stroke-linecap="square" font-style="normal" font-size="34.5833" font-family="MS Shell Dlg 2" font-weight="400" stroke-width="1" stroke-opacity="1" transform="matrix(11.808,0,0,11.808,0,0)" fill="none"/>
  <g stroke="#000000" stroke-linejoin="bevel" stroke-linecap="square" font-style="normal" font-size="34.5833" font-family="MS Shell Dlg 2" font-weight="400" stroke-width="1" stroke-opacity="1" transform="matrix(11.808,0,0,11.808,0,0)" fill="none"/>
  <g stroke="#000000" stroke-linejoin="bevel" stroke-linecap="square" font-style="normal" font-size="34.5833" font-family="MS Shell Dlg 2" font-weight="400" stroke-width="1" stroke-opacity="1" transform="matrix(1,0,0,1,0,0)" fill="none"/>
 </g>
</svg>
