<?xml version='1.0' encoding='UTF-8' standalone='no'?>
<svg xmlns="http://www.w3.org/2000/svg" height="249.936mm" version="1.2" baseProfile="tiny" viewBox="0 0 2952 2952" width="249.936mm" xmlns:xlink="http://www.w3.org/1999/xlink">
 <title>Qt SVG Document</title>
 <desc>Generated with Qt</desc>
 <defs/>
 <g stroke-width="1" stroke-linecap="square" stroke-linejoin="bevel" fill-rule="evenodd" fill="none" stroke="black">
  <g stroke-width="1" font-family="MS Shell Dlg 2" transform="matrix(1,0,0,1,0,0)" stroke-opacity="1" stroke-linecap="square" font-weight="400" font-style="normal" stroke-linejoin="bevel" font-size="34.5833" fill="none" stroke="#000000"/>
  <g stroke-width="1" font-family="MS Shell Dlg 2" transform="matrix(1,0,0,1,0,0)" stroke-opacity="1" stroke-linecap="square" font-weight="400" font-style="normal" stroke-linejoin="bevel" font-size="34.5833" fill="none" stroke="#000000"/>
  <g stroke-width="1" font-family="MS Shell Dlg 2" transform="matrix(11.808,0,0,11.808,0,0)" stroke-opacity="1" stroke-linecap="square" font-weight="400" font-style="normal" stroke-linejoin="bevel" font-size="34.5833" fill="none" stroke="#000000"/>
  <g stroke-width="1" font-family="MS Shell Dlg 2" transform="matrix(0.999744,0,0,0.999744,0,0)" stroke-opacity="1" stroke-linecap="square" font-weight="400" font-style="normal" stroke-linejoin="bevel" font-size="34.5833" fill="none" stroke="#000000"/>
  <g font-family="MS Shell Dlg 2" transform="matrix(0.999744,0,0,0.999744,0,0)" fill-opacity="0" font-weight="400" font-style="normal" font-size="34.5833" fill="#ffffff" stroke="none">
   <path d="M-2,-2 L2955,-2 L2955,2955 L-2,2955 L-2,-2" fill-rule="evenodd" vector-effect="none"/>
  </g>
  <g stroke-width="1" font-family="MS Shell Dlg 2" transform="matrix(0.999744,0,0,0.999744,0,0)" stroke-opacity="1" stroke-linecap="square" font-weight="400" font-style="normal" stroke-linejoin="bevel" font-size="34.5833" fill="none" stroke="#000000"/>
  <g stroke-width="1" font-family="MS Shell Dlg 2" transform="matrix(11.808,0,0,11.808,0,0)" stroke-opacity="1" stroke-linecap="square" font-weight="400" font-style="normal" stroke-linejoin="bevel" font-size="34.5833" fill="none" stroke="#000000"/>
  <g stroke-width="1" font-family="MS Shell Dlg 2" transform="matrix(11.808,0,0,11.808,0,0)" stroke-opacity="1" stroke-linecap="square" font-weight="400" font-style="normal" stroke-linejoin="bevel" font-size="34.5833" fill="none" stroke="#000000"/>
  <g stroke-width="1" font-family="MS Shell Dlg 2" transform="matrix(11.808,0,0,11.808,0,0)" stroke-opacity="1" stroke-linecap="square" font-weight="400" font-style="normal" stroke-linejoin="bevel" font-size="34.5833" fill="none" stroke="#000000"/>
  <g stroke-width="1" font-family="MS Shell Dlg 2" transform="matrix(11.808,0,0,11.808,0,0)" stroke-opacity="1" stroke-linecap="square" font-weight="400" font-style="normal" stroke-linejoin="bevel" font-size="34.5833" fill="none" stroke="#000000"/>
  <g stroke-width="1" font-family="MS Shell Dlg 2" transform="matrix(11.808,0,0,11.808,0,0)" stroke-opacity="1" stroke-linecap="square" font-weight="400" font-style="normal" stroke-linejoin="bevel" font-size="34.5833" fill="none" stroke="#000000"/>
  <g font-family="MS Shell Dlg 2" transform="matrix(11.808,0,0,11.808,0,0)" fill-opacity="0" font-weight="400" font-style="normal" font-size="34.5833" fill="#ffffff" stroke="none">
   <path d="M0,0 L250,0 L250,250 L0,250 L0,0" fill-rule="evenodd" vector-effect="none"/>
  </g>
  <g stroke-width="1" font-family="MS Shell Dlg 2" transform="matrix(11.808,0,0,11.808,0,0)" stroke-opacity="1" stroke-linecap="square" font-weight="400" font-style="normal" stroke-linejoin="bevel" font-size="34.5833" fill="none" stroke="#000000"/>
  <g stroke-width="1" font-family="MS Shell Dlg 2" transform="matrix(11.808,0,0,11.808,0,0)" stroke-opacity="1" stroke-linecap="square" font-weight="400" font-style="normal" stroke-linejoin="bevel" font-size="34.5833" fill="none" stroke="#000000"/>
  <g font-family="MS Shell Dlg 2" transform="matrix(0.999744,0,0,0.999744,0,0)" fill-opacity="0" font-weight="400" font-style="normal" font-size="34.5833" fill="#000000" stroke="none">
   <rect height="2953" y="0" x="0" width="2953"/>
  </g>
  <g stroke-width="1" font-family="MS Shell Dlg 2" transform="matrix(0.999744,0,0,0.999744,0,0)" stroke-opacity="1" stroke-linecap="square" font-weight="400" font-style="normal" stroke-linejoin="bevel" font-size="34.5833" fill="none" stroke="#000000"/>
  <g stroke-width="3.07087" font-family="MS Shell Dlg 2" transform="matrix(0.999744,0,0,0.999744,0,0)" fill-opacity="1" stroke-opacity="1" stroke-linecap="square" font-weight="400" font-style="normal" stroke-linejoin="bevel" font-size="34.5833" fill="#c5c5c5" stroke="#5c5c5c">
   <path d="M2334.59,1714.54 L2332.72,1721.5 L2332.72,1729.49 L2334.96,1737.99 L2336.59,1746.62 L2340.45,1753.96 L2341.32,1762.21 L2343.94,1769.55 L2353.17,1772.39 L2355.66,1778.05 L2352.17,1790.04 L2352.79,1797.51 L2360.52,1796.87 L2364.76,1805.5 L2364.39,1815.42 L2358.9,1822.63 L2352.92,1824.95 L2347.43,1830.36 L2343.94,1836.68 L2349.05,1844.15 L2348.68,1853.43 L2347.06,1860.39 L2344.56,1870.05 L2338.7,1874.05 L2340.95,1879.85 L2334.96,1886.16 L2336.46,1897.76 L2330.48,1900.08 L2333.59,1905.49 L2331.47,1911.94 L2333.09,1919.93 L2339.08,1924.57 L2335.96,1930.88 L2336.21,1938.1 L2345.19,1954.6 L2347.81,1964 L2349.92,1971.22 L2357.65,1970.96 L2362.39,1977.92 L2368.63,1980.12 L2376.6,1982.82 L2390.69,1980.24 L2395.18,1984.76 L2400.54,1990.43 L2409.14,1992.1 L2411.01,1998.29 L2408.77,2005.9 L2414.63,2003.96 L2419.74,2009.25 L2425.72,2012.86 L2439.19,2028.46 L2442.18,2022.14 L2450.16,2031.42 L2457.14,2042.38 L2468.36,2042.76 L2467.74,2052.95 L2472.85,2057.85 L2472.85,2069.19 L2465.49,2071.51 L2455.27,2071.51 L2255.3,2071.13 L2180.75,2071.51 L2060.69,2071.13 L2031.39,2071.13 L2006.58,2071.13 L1968.93,2071.13 L1884.15,2071.13 L1842.51,2071.13 L1819.2,2071.13 L1727.94,2071.13 L1705.63,2071.77 L1630.95,2071.13 L1594.79,2071.13 L1583.07,2071.13 L1441.32,2071.38 L1425.86,2071.38 L1406.42,2071.51 L1380.86,2071.38 L1290.6,2071.13 L1277.88,2071.13 L1243.85,2071.13 L1225.64,2071.13 L1217.91,2071.13 L1187.24,2071.38 L1167.05,2071.13 L1155.83,2071.13 L1148.22,2071.13 L1139.25,2071.13 L1130.27,2071.13 L1118.43,2071.13 L1107.21,2071.13 L1097.73,2071.13 L1091.62,2071.38 L1083.52,2071.13 L1075.29,2071.13 L1067.31,2071.13 L1059.33,2071.38 L1046.12,2071.38 L1038.39,2071.38 L1031.16,2071.38 L1021.56,2074.09 L1015.7,2070.87 L1002.61,2070.87 L993.007,2070.87 L986.026,2070.87 L975.678,2070.87 L969.32,2070.87 L963.211,2070.87 L953.362,2070.87 L944.012,2070.87 L935.16,2070.87 L927.804,2070.87 L916.584,2070.87 L885.167,2071.51 L855.121,2070.87 L837.543,2070.87 L806.5,2070.87 L775.207,2070.87 L768.35,2070.74 L761.369,2070.48 L734.44,2070.48 L667.616,2070.48 L533.346,2070.74 L494.823,2067.9 L494.199,2056.82 L497.067,2046.63 L501.929,2040.44 L504.796,2030.52 L506.666,2020.85 L509.534,2012.6 L509.908,2004.61 L507.913,1997.78 L506.043,1991.72 L506.666,1985.4 L510.905,1974.83 L516.017,1968.9 L519.881,1960.27 L524.37,1952.66 L526.24,1944.03 L527.112,1936.81 L533.221,1930.88 L531.974,1922.63 L533.845,1916.96 L533.221,1910.39 L531.102,1897.11 L535.59,1890.16 L538.956,1883.33 L541.948,1876.88 L546.935,1871.6 L547.06,1862.71 L548.057,1852.4 L546.062,1842.22 L544.816,1831.91 L537.46,1823.41 L530.354,1815.8 L521.377,1818.12 L511.528,1823.02 L499.934,1817.09 L498.438,1806.53 L505.794,1799.18 L509.658,1792.36 L510.282,1781.02 L503.425,1775.35 L498.438,1767.75 L499.435,1760.28 L500.308,1753.32 L500.557,1745.59 L497.69,1739.02 L502.178,1730.78 L505.42,1723.17 L504.173,1717.25 L500.931,1711.97 L498.687,1705.4 L495.571,1693.81 L490.708,1686.85 L491.581,1678.86 L489.836,1672.55 L487.592,1666.63 L483.727,1659.03 L482.729,1649.11 L480.236,1642.8 L480.236,1633.91 L480.859,1620.13 L485.223,1613.05 L487.218,1604.16 L490.334,1593.6 L497.69,1582.79 L505.17,1577.12 L511.902,1569.14 L519.757,1560.51 L528.11,1555.87 L534.842,1550.08 L545.065,1548.02 L552.794,1546.99 L558.779,1540.42 L568.752,1537.72 L571.37,1529.48 L577.105,1522.91 L576.482,1515.06 L583.838,1511.07 L586.705,1503.73 L589.572,1497.55 L595.058,1493.43 L602.289,1488.28 L609.769,1482.23 L616.751,1476.56 L622.485,1470 L628.968,1458.8 L632.708,1449.27 L634.953,1440.39 L635.95,1431.38 L636.947,1421.46 L637.197,1412.2 L636.947,1404.6 L636.698,1396.75 L637.197,1387.74 L637.197,1377.96 L636.698,1369.2 L634.329,1363.67 L627.348,1357.75 L617.499,1353.5 L607.899,1351.06 L599.795,1352.09 L590.196,1352.73 L583.214,1351.06 L574.487,1348.74 L569.75,1340.89 L572.368,1328.92 L569.75,1316.82 L569.5,1305.5 L572.368,1295.2 L574.238,1287.1 L576.482,1279.76 L578.352,1273.46 L581.219,1265.86 L582.466,1255.31 L582.217,1247.08 L582.591,1240.39 L579.349,1231.64 L580.97,1223.66 L582.84,1213.37 L587.079,1206.8 L592.814,1199.6 L596.928,1192.52 L600.793,1186.73 L609.395,1180.69 L615.753,1172.2 L621.239,1170.14 L627.348,1169.88 L634.08,1170.78 L640.438,1171.42 L650.038,1171.17 L653.903,1155.21 L653.903,1147.75 L653.903,1140.03 L653.653,1131.93 L653.653,1109.03 L653.279,948.403 L653.529,918.573 L772.589,916.002 L909.852,916.002 L953.736,914.973 L990.763,916.002 L1110.45,916.002 L1360.04,916.002 L1529.22,915.745 L1698.27,915.745 L1754.25,915.745 L1847,915.745 L1854.98,915.745 L1862.96,915.745 L1889.27,915.745 L1902.73,915.745 L1924.17,915.745 L1954.22,915.745 L2016.93,915.616 L2032.26,915.616 L2040.62,915.359 L2059.07,915.359 L2091.48,913.945 L2098.09,915.359 L2127.64,915.359 L2249.81,914.973 L2253.31,1008.97 L2261.03,1012.31 L2270.01,1012.06 L2276.74,1010.38 L2282.23,1013.73 L2286.97,1019 L2289.46,1027.62 L2296.82,1034.05 L2300.68,1040.09 L2305.79,1046.65 L2310.03,1052.57 L2319.26,1052.57 L2326.99,1054.24 L2330.85,1066.84 L2338.08,1073.66 L2344.19,1074.82 L2349.92,1077.01 L2359.9,1076.1 L2368.63,1079.32 L2378.72,1079.06 L2387.45,1080.35 L2396.05,1079.32 L2404.03,1084.98 L2414.01,1090.51 L2422.36,1095.27 L2431.34,1094.5 L2437.69,1098.87 L2446.3,1095.14 L2454.9,1099.51 L2457.52,1107.49 L2457.52,1115.59 L2448.91,1118.68 L2444.43,1125.88 L2443.68,1132.44 L2439.81,1141.06 L2435.32,1149.43 L2433.21,1157.66 L2431.58,1164.48 L2428.97,1172.71 L2425.1,1182.74 L2424.85,1191.62 L2427.72,1197.8 L2429.59,1203.84 L2431.21,1210.02 L2430.59,1217.61 L2435.45,1223.27 L2434.7,1229.83 L2433.83,1239.74 L2435.08,1250.29 L2435.7,1257.37 L2435.7,1264.96 L2436.07,1274.74 L2435.45,1280.79 L2433.45,1286.97 L2428.72,1291.34 L2429.96,1297.91 L2433.83,1306.53 L2440.56,1309.23 L2447.54,1307.81 L2453.28,1310.52 L2455.9,1316.69 L2459.76,1321.33 L2464.87,1326.35 L2463.62,1334.2 L2462.88,1341.79 L2463.87,1348.23 L2462,1354.15 L2460.13,1360.32 L2457.14,1367.27 L2451.16,1372.16 L2450.41,1380.14 L2454.27,1390.7 L2455.27,1399.97 L2456.14,1407.56 L2462.63,1415.54 L2462.63,1421.72 L2460.01,1431.76 L2454.03,1440 L2449.54,1447.85 L2445.3,1455.19 L2440.93,1461.5 L2435.08,1472.31 L2432.46,1479.01 L2433.21,1485.96 L2428.72,1490.21 L2427.47,1499.86 L2419.99,1505.14 L2417.5,1511.71 L2413.38,1517.63 L2411.14,1525.49 L2407.65,1532.83 L2401.16,1538.75 L2398.92,1547.12 L2393.19,1553.56 L2390.94,1561.15 L2387.45,1566.82 L2383.84,1573.39 L2381.09,1579.44 L2377.48,1585.11 L2379.1,1591.03 L2371.74,1591.93 L2364.14,1598.24 L2358.28,1601.98 L2356.03,1608.41 L2357.28,1615.75 L2354.41,1623.35 L2350.55,1632.37 L2349.05,1643.44 L2352.29,1654.39 L2349.05,1663.28 L2348.43,1671.65 L2344.56,1679.51 L2344.81,1689.55 L2343.19,1698.06 L2339.83,1707.07 L2334.59,1714.54" fill-rule="evenodd" vector-effect="none"/>
  </g>
  <g stroke-width="1" font-family="MS Shell Dlg 2" transform="matrix(0.999744,0,0,0.999744,0,0)" stroke-opacity="1" stroke-linecap="square" font-weight="400" font-style="normal" stroke-linejoin="bevel" font-size="34.5833" fill="none" stroke="#000000"/>
  <g stroke-width="1" font-family="MS Shell Dlg 2" transform="matrix(11.808,0,0,11.808,0,0)" stroke-opacity="1" stroke-linecap="square" font-weight="400" font-style="normal" stroke-linejoin="bevel" font-size="34.5833" fill="none" stroke="#000000"/>
  <g stroke-width="1" font-family="MS Shell Dlg 2" transform="matrix(11.808,0,0,11.808,0,0)" stroke-opacity="1" stroke-linecap="square" font-weight="400" font-style="normal" stroke-linejoin="bevel" font-size="34.5833" fill="none" stroke="#000000"/>
  <g stroke-width="1" font-family="MS Shell Dlg 2" transform="matrix(11.808,0,0,11.808,0,0)" stroke-opacity="1" stroke-linecap="square" font-weight="400" font-style="normal" stroke-linejoin="bevel" font-size="34.5833" fill="none" stroke="#000000"/>
  <g stroke-width="1" font-family="MS Shell Dlg 2" transform="matrix(1,0,0,1,0,0)" stroke-opacity="1" stroke-linecap="square" font-weight="400" font-style="normal" stroke-linejoin="bevel" font-size="34.5833" fill="none" stroke="#000000"/>
  <g stroke-width="1" font-family="MS Shell Dlg 2" transform="matrix(11.808,0,0,11.808,0,0)" stroke-opacity="1" stroke-linecap="square" font-weight="400" font-style="normal" stroke-linejoin="bevel" font-size="34.5833" fill="none" stroke="#000000"/>
  <g stroke-width="1" font-family="MS Shell Dlg 2" transform="matrix(11.808,0,0,11.808,0,0)" stroke-opacity="1" stroke-linecap="square" font-weight="400" font-style="normal" stroke-linejoin="bevel" font-size="34.5833" fill="none" stroke="#000000"/>
  <g stroke-width="1" font-family="MS Shell Dlg 2" transform="matrix(11.808,0,0,11.808,0,0)" stroke-opacity="1" stroke-linecap="square" font-weight="400" font-style="normal" stroke-linejoin="bevel" font-size="34.5833" fill="none" stroke="#000000"/>
  <g stroke-width="1" font-family="MS Shell Dlg 2" transform="matrix(11.808,0,0,11.808,0,0)" stroke-opacity="1" stroke-linecap="square" font-weight="400" font-style="normal" stroke-linejoin="bevel" font-size="34.5833" fill="none" stroke="#000000"/>
  <g stroke-width="1" font-family="MS Shell Dlg 2" transform="matrix(1,0,0,1,0,0)" stroke-opacity="1" stroke-linecap="square" font-weight="400" font-style="normal" stroke-linejoin="bevel" font-size="34.5833" fill="none" stroke="#000000"/>
 </g>
</svg>
