<?xml version='1.0' encoding='UTF-8' standalone='no'?>
<svg xmlns="http://www.w3.org/2000/svg" height="249.936mm" version="1.2" baseProfile="tiny" viewBox="0 0 2952 2952" width="249.936mm" xmlns:xlink="http://www.w3.org/1999/xlink">
 <title>Qt SVG Document</title>
 <desc>Generated with Qt</desc>
 <defs/>
 <g stroke-width="1" stroke-linecap="square" stroke-linejoin="bevel" fill-rule="evenodd" fill="none" stroke="black">
  <g stroke-width="1" font-family="MS Shell Dlg 2" transform="matrix(1,0,0,1,0,0)" stroke-opacity="1" stroke-linecap="square" font-weight="400" font-style="normal" stroke-linejoin="bevel" font-size="34.5833" fill="none" stroke="#000000"/>
  <g stroke-width="1" font-family="MS Shell Dlg 2" transform="matrix(1,0,0,1,0,0)" stroke-opacity="1" stroke-linecap="square" font-weight="400" font-style="normal" stroke-linejoin="bevel" font-size="34.5833" fill="none" stroke="#000000"/>
  <g stroke-width="1" font-family="MS Shell Dlg 2" transform="matrix(11.808,0,0,11.808,0,0)" stroke-opacity="1" stroke-linecap="square" font-weight="400" font-style="normal" stroke-linejoin="bevel" font-size="34.5833" fill="none" stroke="#000000"/>
  <g stroke-width="1" font-family="MS Shell Dlg 2" transform="matrix(0.999744,0,0,0.999744,0,0)" stroke-opacity="1" stroke-linecap="square" font-weight="400" font-style="normal" stroke-linejoin="bevel" font-size="34.5833" fill="none" stroke="#000000"/>
  <g font-family="MS Shell Dlg 2" transform="matrix(0.999744,0,0,0.999744,0,0)" fill-opacity="0" font-weight="400" font-style="normal" font-size="34.5833" fill="#ffffff" stroke="none">
   <path d="M-2,-2 L2955,-2 L2955,2955 L-2,2955 L-2,-2" fill-rule="evenodd" vector-effect="none"/>
  </g>
  <g stroke-width="1" font-family="MS Shell Dlg 2" transform="matrix(0.999744,0,0,0.999744,0,0)" stroke-opacity="1" stroke-linecap="square" font-weight="400" font-style="normal" stroke-linejoin="bevel" font-size="34.5833" fill="none" stroke="#000000"/>
  <g stroke-width="1" font-family="MS Shell Dlg 2" transform="matrix(11.808,0,0,11.808,0,0)" stroke-opacity="1" stroke-linecap="square" font-weight="400" font-style="normal" stroke-linejoin="bevel" font-size="34.5833" fill="none" stroke="#000000"/>
  <g stroke-width="1" font-family="MS Shell Dlg 2" transform="matrix(11.808,0,0,11.808,0,0)" stroke-opacity="1" stroke-linecap="square" font-weight="400" font-style="normal" stroke-linejoin="bevel" font-size="34.5833" fill="none" stroke="#000000"/>
  <g stroke-width="1" font-family="MS Shell Dlg 2" transform="matrix(11.808,0,0,11.808,0,0)" stroke-opacity="1" stroke-linecap="square" font-weight="400" font-style="normal" stroke-linejoin="bevel" font-size="34.5833" fill="none" stroke="#000000"/>
  <g stroke-width="1" font-family="MS Shell Dlg 2" transform="matrix(11.808,0,0,11.808,0,0)" stroke-opacity="1" stroke-linecap="square" font-weight="400" font-style="normal" stroke-linejoin="bevel" font-size="34.5833" fill="none" stroke="#000000"/>
  <g stroke-width="1" font-family="MS Shell Dlg 2" transform="matrix(11.808,0,0,11.808,0,0)" stroke-opacity="1" stroke-linecap="square" font-weight="400" font-style="normal" stroke-linejoin="bevel" font-size="34.5833" fill="none" stroke="#000000"/>
  <g font-family="MS Shell Dlg 2" transform="matrix(11.808,0,0,11.808,0,0)" fill-opacity="0" font-weight="400" font-style="normal" font-size="34.5833" fill="#ffffff" stroke="none">
   <path d="M0,0 L250,0 L250,250 L0,250 L0,0" fill-rule="evenodd" vector-effect="none"/>
  </g>
  <g stroke-width="1" font-family="MS Shell Dlg 2" transform="matrix(11.808,0,0,11.808,0,0)" stroke-opacity="1" stroke-linecap="square" font-weight="400" font-style="normal" stroke-linejoin="bevel" font-size="34.5833" fill="none" stroke="#000000"/>
  <g stroke-width="1" font-family="MS Shell Dlg 2" transform="matrix(11.808,0,0,11.808,0,0)" stroke-opacity="1" stroke-linecap="square" font-weight="400" font-style="normal" stroke-linejoin="bevel" font-size="34.5833" fill="none" stroke="#000000"/>
  <g font-family="MS Shell Dlg 2" transform="matrix(0.999744,0,0,0.999744,0,0)" fill-opacity="0" font-weight="400" font-style="normal" font-size="34.5833" fill="#000000" stroke="none">
   <rect height="2953" y="0" x="0" width="2953"/>
  </g>
  <g stroke-width="1" font-family="MS Shell Dlg 2" transform="matrix(0.999744,0,0,0.999744,0,0)" stroke-opacity="1" stroke-linecap="square" font-weight="400" font-style="normal" stroke-linejoin="bevel" font-size="34.5833" fill="none" stroke="#000000"/>
  <g stroke-width="3.07087" font-family="MS Shell Dlg 2" transform="matrix(0.999744,0,0,0.999744,0,0)" fill-opacity="1" stroke-opacity="1" stroke-linecap="square" font-weight="400" font-style="normal" stroke-linejoin="bevel" font-size="34.5833" fill="#c5c5c5" stroke="#5c5c5c">
   <path d="M2688.38,1514.41 L2687.59,1512.98 L2686.32,1513.38 L2686.88,1514.69 L2687.75,1516 L2686.88,1517.27 L2685.85,1517.99 L2682.84,1518.47 L2684.74,1519.58 L2686.52,1521.29 L2690.04,1523.6 L2690.32,1525.19 L2689.37,1526.46 L2688.58,1528.33 L2687.87,1529.76 L2686.72,1532.31 L2686.08,1533.62 L2685.21,1535.49 L2684.46,1537.04 L2683.71,1538.79 L2683.15,1539.83 L2682.72,1540.98 L2682.28,1542.1 L2681.57,1544.2 L2681.17,1545.76 L2681.17,1547.19 L2681.17,1548.7 L2680.18,1549.93 L2679.19,1551.33 L2678.2,1553.12 L2677.57,1554.19 L2676.89,1555.22 L2676.14,1556.86 L2675.43,1558.61 L2674.83,1560.04 L2674.28,1561.79 L2674.04,1563.14 L2673.84,1564.53 L2674.12,1565.97 L2674.68,1567.16 L2674.72,1568.87 L2673.73,1570.06 L2672.85,1571.18 L2672.62,1572.37 L2672.42,1573.57 L2672.26,1575.24 L2672.3,1577.35 L2672.74,1579.18 L2673.41,1581.17 L2673.17,1582.4 L2673.41,1584.39 L2672.42,1585.86 L2671.43,1586.9 L2671.39,1588.57 L2671.75,1590.44 L2670.64,1590.2 L2668.97,1589.32 L2667.39,1589.16 L2665.96,1589.56 L2664.18,1591.15 L2663.07,1592.27 L2661.64,1593.66 L2660.54,1595.17 L2660.14,1596.45 L2659.66,1597.68 L2659.39,1599.23 L2658.59,1600.43 L2657.53,1601.5 L2656.73,1603.05 L2656.54,1604.8 L2656.93,1606.12 L2656.54,1607.39 L2655.27,1608.11 L2655.74,1610.1 L2654.24,1611.33 L2653.13,1612.72 L2651.82,1615.27 L2650.95,1617.02 L2650.28,1618.26 L2649.72,1619.45 L2648.81,1621.12 L2647.98,1622.63 L2646.99,1624.74 L2646.24,1626.49 L2645.88,1628.17 L2645.8,1629.92 L2646.55,1632.15 L2646,1634.1 L2643.9,1635.29 L2642.63,1636.41 L2641.64,1637.6 L2641.36,1638.75 L2641.09,1640.15 L2640.06,1641.26 L2639.34,1643.17 L2640.93,1644.37 L2642.2,1645.36 L2643.35,1646.32 L2643.38,1647.51 L2643.23,1649.07 L2641.84,1650.38 L2641.17,1651.49 L2640.49,1652.57 L2639.98,1653.84 L2639.42,1655.99 L2639.5,1657.66 L2640.18,1659.3 L2640.53,1661.76 L2640.65,1663.4 L2639.94,1664.71 L2638.35,1666.26 L2637.64,1667.9 L2636.37,1668.65 L2635.19,1669.25 L2633.92,1670.76 L2633.17,1672.32 L2632.85,1673.63 L2632.85,1675.1 L2633.36,1677.01 L2633.84,1678.69 L2633.48,1680.8 L2632.53,1682.35 L2631.46,1682.87 L2629.88,1683.46 L2628.81,1684.74 L2628.06,1685.65 L2627.62,1687.21 L2626.91,1689.04 L2625.96,1690.35 L2625.16,1691.83 L2624.21,1693.1 L2623.46,1694.26 L2622.75,1695.65 L2621.8,1697.44 L2621.56,1698.72 L2621.64,1700.15 L2621.6,1701.7 L2621.8,1703.34 L2622.07,1704.65 L2622.43,1706.48 L2622.63,1708.35 L2623.34,1709.95 L2623.54,1711.3 L2622.79,1712.18 L2621.48,1713.37 L2620.89,1714.61 L2620.33,1716.12 L2619.5,1717.16 L2618.75,1718.75 L2618.47,1720.18 L2618.19,1721.54 L2618.03,1723.17 L2617.52,1724.48 L2616.29,1725.6 L2615.06,1727.07 L2614.03,1729.06 L2613.32,1728.03 L2613.12,1726.59 L2612.61,1725.36 L2611.58,1724.6 L2610.59,1723.77 L2609.28,1722.77 L2608.17,1721.54 L2606.98,1720.78 L2605.8,1720.74 L2604.45,1720.1 L2602.86,1719.78 L2600.73,1720.46 L2599.1,1719.98 L2596.8,1719.7 L2595.38,1719.86 L2593.99,1720.14 L2592.41,1721.02 L2591.02,1720.46 L2589.79,1720.1 L2588.13,1720.18 L2586.82,1719.54 L2585.52,1719.43 L2584.33,1718.67 L2582.98,1718.23 L2581.71,1717.87 L2580.68,1717.31 L2579.06,1717.99 L2576.88,1718.55 L2574.66,1719.47 L2573.36,1718.67 L2571.49,1717.91 L2570.66,1717.16 L2568.88,1716.68 L2566.98,1715.8 L2565.83,1715.56 L2564.36,1714.69 L2562.62,1714.96 L2560.88,1715.24 L2555.93,1713.97 L2553.31,1713.29 L2538.74,1709.63 L2535.88,1708.91 L2518.5,1704.57 L2516.75,1704.81 L2515.64,1704.13 L2513.74,1701.74 L2514.18,1699.59 L2512.32,1699.47 L2510.73,1699.27 L2510.02,1700.15 L2508.87,1699.63 L2507.33,1699.63 L2505.31,1699.51 L2503.72,1699.07 L2502.38,1700.87 L2500.28,1701.03 L2498.89,1701.19 L2497.7,1701.19 L2496.04,1701.19 L2494.26,1701.03 L2492.83,1699.99 L2492.43,1698 L2492,1696.84 L2490.77,1695.97 L2491.32,1694.57 L2491.28,1692.58 L2489.98,1691.03 L2488.59,1689.96 L2488.08,1691.35 L2486.53,1691.79 L2484.87,1692.7 L2484.39,1694.14 L2483.84,1695.13 L2482.25,1695.21 L2481.14,1695.57 L2479.16,1694.89 L2478.37,1695.97 L2476.99,1694.97 L2476.51,1692.78 L2475.36,1693.66 L2474.21,1692.66 L2472.19,1691.71 L2470.93,1691.91 L2469.66,1691.79 L2468.63,1692.82 L2466.05,1694.3 L2464.94,1695.73 L2463.76,1695.53 L2463.28,1693.82 L2462.61,1692.58 L2461.1,1692.98 L2459.36,1694.42 L2457.93,1695.57 L2455.72,1696.25 L2454.09,1697.28 L2451.91,1697.4 L2450.37,1698.72 L2449.69,1700.91 L2448.59,1701.74 L2446.41,1702.02 L2444.47,1702.9 L2442.33,1703.89 L2441.26,1705.33 L2439.32,1706.8 L2438.41,1709.07 L2436.86,1709.51 L2435,1710.62 L2433.26,1710.07 L2431.71,1710.38 L2428.98,1712.54 L2428.23,1713.81 L2427.12,1715.28 L2425.61,1716.28 L2424.42,1717.12 L2422.13,1717.59 L2419.16,1717.67 L2416.38,1717.35 L2414.72,1716.8 L2413.02,1717.71 L2411.83,1720.74 L2409.17,1722.89 L2407.55,1723.33 L2406.12,1723.93 L2405.09,1723.33 L2403.67,1723.61 L2402.16,1724.17 L2400.66,1724.84 L2397.45,1727.19 L2394.36,1727.19 L2392.54,1726.52 L2390.12,1727.03 L2388.54,1728.15 L2383.11,1729.34 L2380.22,1730.9 L2378.36,1731.41 L2376.93,1730.38 L2375.94,1729.38 L2374.24,1728.51 L2372.93,1727.79 L2370.63,1727.47 L2368.85,1727.03 L2366.55,1724.09 L2365.05,1723.73 L2365.88,1720.62 L2364.69,1717.67 L2365.13,1716.04 L2366.32,1713.53 L2367.11,1712.26 L2367.54,1710.07 L2367.23,1708.63 L2365.88,1708.75 L2364.14,1706.68 L2362.59,1705.05 L2361.76,1705.92 L2360.45,1704.77 L2359.46,1703.69 L2358.43,1704.89 L2357.17,1706.32 L2355.86,1707.36 L2355.07,1708.63 L2353.64,1708.75 L2351.66,1707.64 L2349.48,1707.36 L2347.82,1710.11 L2347.82,1712.38 L2345.21,1712.3 L2343.58,1712.1 L2342.04,1712.69 L2340.69,1713.69 L2338.83,1713.29 L2338,1712.18 L2336.85,1711.1 L2335.98,1709.67 L2334.47,1708.79 L2333.12,1707.92 L2331.42,1708.11 L2329.44,1708.19 L2328.29,1708.23 L2326.35,1708.67 L2324.29,1709.67 L2323.14,1709.75 L2321.56,1708.79 L2320.13,1706.48 L2318.71,1708.07 L2318.15,1709.35 L2315.62,1709.87 L2314.07,1709.11 L2311.66,1712.1 L2310.27,1715.6 L2309.83,1717.27 L2308.72,1718.43 L2305.12,1718.43 L2303.93,1718.55 L2301.08,1718.99 L2298.35,1721.02 L2296.64,1722.17 L2294.39,1722.05 L2293.51,1723.93 L2292.92,1725.52 L2291.38,1726.04 L2290.62,1724.84 L2288.76,1725.28 L2287.06,1725.6 L2286.03,1726.36 L2284.88,1727.07 L2283.65,1726.63 L2281.79,1726.52 L2280.44,1727.51 L2278.82,1728.07 L2276.6,1729.78 L2272.8,1729.5 L2271.61,1729.02 L2268.2,1727.71 L2265.55,1727.91 L2260.28,1729.34 L2256.04,1729.78 L2253.39,1730.66 L2252.28,1731.65 L2249.59,1734.76 L2248.87,1736.15 L2248.48,1737.51 L2247.57,1739.02 L2246.1,1740.85 L2244.52,1742.05 L2242.7,1743.01 L2238.73,1744.2 L2233.82,1744.76 L2229.86,1745.75 L2228.12,1747.19 L2227.64,1748.66 L2227.25,1750.81 L2227.37,1753.04 L2227.8,1755.28 L2228.52,1756.91 L2229.39,1757.79 L2232.71,1758.78 L2234.58,1759.86 L2236.64,1762.21 L2237.39,1763.96 L2236.52,1764.8 L2235.21,1767.15 L2233.66,1768.06 L2233.27,1769.98 L2234.46,1771.33 L2233.15,1772.09 L2233.11,1773.2 L2231.96,1773.88 L2230.81,1775.44 L2229.86,1776.43 L2228,1777.91 L2225.7,1778.46 L2223.52,1778.86 L2222.49,1780.3 L2220.55,1780.58 L2218.34,1781.25 L2216.51,1780.62 L2214.49,1780.7 L2211.8,1781.05 L2209.19,1781.77 L2207.4,1780.81 L2206.06,1782.05 L2203.88,1782.81 L2202.57,1782.65 L2201.22,1782.17 L2199.96,1783.44 L2199.4,1785.68 L2198.17,1788.94 L2198.06,1791.37 L2196.79,1792.69 L2195.36,1793.57 L2192.59,1793.69 L2191.08,1793.57 L2190.97,1794.88 L2190.21,1797.31 L2190.61,1798.87 L2188.31,1802.21 L2186.77,1803.77 L2185.06,1805.64 L2183.64,1804.09 L2181.46,1803.85 L2179,1804.09 L2177.42,1805.28 L2172.75,1805.48 L2172.59,1807.23 L2173.3,1808.95 L2174.84,1810.58 L2175.44,1811.58 L2174.33,1814.13 L2175.6,1816.16 L2176.51,1817.6 L2176.71,1819.71 L2174.45,1831.15 L2174.61,1832.62 L2172.55,1832.42 L2171.12,1831.71 L2169.85,1830.83 L2167.99,1831.07 L2165.1,1833.06 L2163.48,1833.74 L2162.17,1833.14 L2161.18,1834.5 L2159.44,1834.58 L2158.29,1834.78 L2157.1,1835.45 L2156.15,1833.14 L2155.24,1833.94 L2155.12,1835.73 L2152.98,1837.21 L2151.4,1838.24 L2150.84,1840.32 L2150.01,1841.11 L2149.46,1843.23 L2148.58,1844.74 L2147.28,1845.62 L2145.93,1845.98 L2143.99,1846.85 L2142.25,1845.98 L2140.66,1845.42 L2139.04,1844.54 L2138.29,1845.82 L2139.59,1847.69 L2140.35,1850.12 L2139.24,1850.88 L2138.52,1852.44 L2137.26,1851.44 L2135.99,1852.68 L2133.81,1853.11 L2132.03,1852.36 L2130.21,1850.8 L2127.67,1852 L2125.89,1852.32 L2125.25,1853.47 L2123.91,1854.03 L2120.42,1853.87 L2119,1852.99 L2117.05,1852.6 L2116.02,1853.47 L2114.48,1855.67 L2111.91,1855.67 L2110.6,1854.47 L2110.32,1852.75 L2110.64,1850.96 L2108.62,1849.57 L2107.63,1848.93 L2105.61,1848.93 L2104.66,1849.57 L2104.34,1851.16 L2102.6,1852.12 L2101.25,1853.91 L2098.76,1854.55 L2098.87,1856.62 L2097.17,1857.38 L2095.71,1859.53 L2093.13,1860.29 L2091.74,1861.29 L2089.88,1861.25 L2088.02,1859.93 L2086.16,1860.29 L2085.25,1862.04 L2084.69,1864.44 L2083.55,1865.67 L2083.86,1867.15 L2084.02,1868.74 L2082.55,1868.86 L2080.89,1869.54 L2079.98,1870.34 L2078.71,1870.78 L2059.86,1876.92 L2052.21,1881.54 L2051.74,1883.42 L2051.5,1884.85 L2051.34,1888.28 L2052.1,1890.03 L2051.98,1891.79 L2054.04,1891.95 L2055.26,1893.07 L2054.27,1894.54 L2053.68,1896.57 L2052.25,1896.65 L2050.99,1897.01 L2049.88,1897.77 L2048.13,1897.97 L2046.95,1898.69 L2043.94,1897.97 L2042.63,1898.77 L2040.21,1899.33 L2038.94,1900.28 L2037.95,1899.21 L2037.92,1897.41 L2036.41,1897.41 L2035.06,1895.98 L2034.87,1894.78 L2035.46,1893.54 L2033.48,1894.94 L2031.58,1894.78 L2031.14,1896.65 L2029.91,1896.69 L2029.76,1895.38 L2027.97,1895.1 L2027.02,1892.63 L2025,1892.07 L2024.33,1890.63 L2023.06,1889.72 L2021.6,1890.15 L2020.41,1889.16 L2019.18,1889.48 L2017.6,1890.19 L2016.33,1889.72 L2014.51,1889.48 L2012.88,1888.96 L2011.77,1887.92 L2010.03,1886.61 L2008.72,1885.89 L2007.49,1885.01 L2006.31,1883.85 L2005.71,1882.54 L2001.59,1881.22 L1989.67,1877.04 L1977.15,1872.65 L1971.53,1873.97 L1963.09,1876.16 L1951.76,1878.55 L1947.17,1879.39 L1946.02,1879.15 L1945.63,1878.03 L1944.28,1876.8 L1942.97,1874.84 L1941.31,1874.4 L1939.17,1873.17 L1935.6,1871.65 L1933.31,1871.33 L1932.2,1874.2 L1930.26,1875.52 L1928.28,1876.48 L1926.3,1877.39 L1923.05,1876.48 L1921.9,1877.16 L1916.79,1882.42 L1916,1883.57 L1915.05,1885.89 L1913.74,1887.76 L1913.62,1889.08 L1913.38,1891.23 L1911.64,1893.11 L1911.52,1894.46 L1912.75,1895.66 L1913.94,1896.89 L1913.86,1898.13 L1913.42,1899.84 L1912.19,1901.4 L1910.33,1902.72 L1908.04,1903.63 L1907.24,1905.03 L1907.01,1906.15 L1907.68,1908.38 L1910.02,1912.21 L1909.03,1913.64 L1907.6,1914.84 L1906.29,1916 L1904.31,1916.95 L1901.46,1916.87 L1900.27,1916.4 L1899.04,1915.4 L1897.94,1914.12 L1894.77,1911.53 L1891.95,1908.66 L1890.81,1907.66 L1889.54,1907.22 L1887.56,1906.82 L1886.09,1906.5 L1881.3,1904.95 L1879.91,1902.64 L1877.54,1899.65 L1875.95,1895.9 L1875.36,1893.5 L1874.49,1891.91 L1872.98,1890.19 L1871.32,1889.6 L1869.81,1889.6 L1866.84,1890.47 L1865.06,1890.35 L1863.79,1889.92 L1862.48,1888.6 L1861.26,1887.04 L1859.51,1889.16 L1858.52,1887.16 L1858.21,1885.85 L1858.09,1882.9 L1859.51,1880.54 L1859.95,1876.72 L1857.61,1873.65 L1855.91,1870.9 L1853.89,1869.02 L1851.63,1866.55 L1850.76,1865.79 L1846.68,1862.56 L1843.59,1861.69 L1840.18,1859.73 L1836.5,1860.41 L1834.08,1863.36 L1832.58,1865.23 L1831.27,1867.86 L1826.08,1871.29 L1822.48,1872.17 L1820.62,1873.37 L1817.53,1874.28 L1815.55,1872.97 L1815.71,1869.74 L1815.39,1867.15 L1815.98,1864.72 L1817.57,1862.8 L1818.95,1861.61 L1819.55,1859.69 L1810.64,1854.19 L1804.06,1850.24 L1802.83,1851.12 L1800.22,1851.68 L1798.59,1852.48 L1796.97,1854.55 L1795.35,1855.31 L1794.36,1856.34 L1791.35,1859.09 L1789.8,1860.09 L1789.92,1858.81 L1789.92,1857.3 L1791.23,1856.3 L1791.82,1854.67 L1790.95,1853.23 L1790.36,1851.12 L1790.28,1848.69 L1790.08,1846.74 L1789.25,1845.7 L1787.86,1845.42 L1787.23,1843.75 L1786.36,1842.67 L1785.68,1841.39 L1784.89,1840.24 L1785.88,1838.8 L1785.48,1837.57 L1784.22,1835.14 L1782.39,1833.5 L1781.52,1832.27 L1779.23,1829.95 L1778.67,1828.08 L1776.77,1827.64 L1775.26,1826.53 L1772.61,1825.25 L1771.07,1823.97 L1768.57,1818.71 L1765.05,1812.54 L1762.35,1811.02 L1759.38,1806.72 L1759.58,1804.8 L1758.27,1803.17 L1757.76,1802.09 L1756.89,1801.3 L1754.71,1801.74 L1752.81,1801.54 L1751.26,1800.22 L1750.59,1799.07 L1750.27,1797.59 L1749.4,1796.16 L1748.41,1795 L1740.57,1785.88 L1727.14,1775.12 L1725.87,1776.31 L1725.63,1774.08 L1725.44,1772.29 L1723.53,1771.57 L1722.66,1770.53 L1721.4,1769.22 L1719.97,1768.34 L1718.66,1767.79 L1716.96,1767.07 L1714.7,1767.15 L1713.36,1767.35 L1712.09,1767.47 L1710.38,1767.11 L1708.8,1766.79 L1707.22,1766.15 L1705.16,1765.59 L1703.73,1765.36 L1702.34,1765.04 L1699.93,1764.64 L1697.59,1763.88 L1692.8,1761.41 L1691.06,1760.22 L1689.63,1760.73 L1687.97,1761.05 L1687.33,1758.98 L1686.34,1756.59 L1685.91,1754.84 L1685.79,1753.4 L1684.92,1752.25 L1683.01,1750.93 L1681.07,1751.37 L1679.61,1750.93 L1678.22,1750.81 L1676.8,1751.53 L1675.33,1750.38 L1674.18,1749.5 L1673.31,1748.66 L1671.77,1748.42 L1669.67,1748.5 L1668.44,1748.62 L1666.18,1748.98 L1665.07,1749.86 L1663.88,1751.05 L1662.58,1752.29 L1660.91,1753.24 L1659.61,1753.24 L1657.27,1753.24 L1655.88,1753.24 L1653.98,1752.97 L1652.83,1752.81 L1651.17,1752.41 L1649.39,1752.25 L1647.76,1752.13 L1646.42,1751.97 L1645.27,1753.01 L1644.28,1754.36 L1643.09,1756.11 L1641.66,1758.58 L1640.63,1759.78 L1639.36,1760.61 L1637.15,1761.85 L1635.68,1762.77 L1633.86,1763.92 L1632.24,1765.2 L1631.09,1765.59 L1629.66,1765.71 L1628.83,1764.72 L1629.07,1763.6 L1628.71,1762.21 L1627.05,1761.65 L1625.3,1762.29 L1623.8,1762.29 L1622.21,1761.09 L1621.94,1759.18 L1620.67,1759.3 L1618.09,1760.3 L1615.44,1761.61 L1614.09,1762.45 L1612.39,1763.2 L1611.64,1761.73 L1610.65,1760.1 L1609.1,1760.22 L1606.77,1760.57 L1605.93,1758.78 L1607.2,1757.31 L1608.75,1756.83 L1610.49,1756.03 L1611.48,1755.12 L1612.63,1755.24 L1614.13,1755.24 L1615.8,1754.56 L1613.9,1751.41 L1609.54,1746.67 L1609.34,1745.2 L1608.19,1743.6 L1606.65,1742.61 L1605.74,1741.13 L1605.74,1739.86 L1605.62,1738.43 L1605.14,1736.71 L1604.47,1735.32 L1603.76,1733.65 L1602.61,1732.21 L1601.62,1730.9 L1600.47,1730.34 L1599.56,1729.46 L1598.73,1728.59 L1597.7,1727.63 L1597.26,1726.16 L1596.9,1724.72 L1596.27,1723.33 L1594.88,1722.29 L1593.89,1721.02 L1593.34,1719.58 L1593.46,1717.87 L1592.47,1716.6 L1591.12,1716.68 L1590.05,1716.24 L1589.18,1715.04 L1588.47,1713.41 L1588.07,1711.7 L1587.64,1710.07 L1587.08,1708.51 L1585.58,1707.64 L1584.55,1705.76 L1583.79,1704.49 L1583.16,1703.34 L1581.57,1703.89 L1580.15,1705.17 L1579.16,1706.32 L1577.53,1705.88 L1576.03,1706 L1575,1707.12 L1574.05,1708.07 L1572.98,1708.43 L1571.43,1708.87 L1571,1710.66 L1569.89,1711.38 L1568.98,1712.54 L1568.54,1714.17 L1567.47,1714.73 L1566.36,1715.04 L1564.7,1715.12 L1563.28,1715.48 L1561.69,1715.68 L1560.26,1716.72 L1558.68,1717.71 L1556.42,1718.59 L1555.83,1720.66 L1556.38,1722.65 L1557.18,1723.77 L1557.61,1725.16 L1557.61,1727.03 L1557.53,1728.23 L1556.38,1729.66 L1555.12,1730.9 L1554.01,1732.65 L1552.7,1734.68 L1553.02,1735.84 L1555.51,1737.71 L1554.96,1739.62 L1553.25,1745.64 L1552.14,1748.38 L1550.24,1755.79 L1547.51,1758.3 L1546.68,1759.74 L1545.81,1761.17 L1545.13,1763.16 L1544.7,1764.48 L1540.5,1767.83 L1539.11,1769.02 L1536.66,1769.02 L1534.95,1769.7 L1534.24,1770.81 L1534.64,1771.97 L1535.83,1773.84 L1535.15,1776.83 L1534.91,1778.74 L1533.33,1780.34 L1531.86,1779.26 L1530.44,1778.3 L1528.93,1779.06 L1527.59,1779.46 L1526.04,1779.62 L1523.78,1781.01 L1523.19,1784.96 L1521.25,1786.67 L1519.07,1788.74 L1518.08,1789.82 L1514.16,1793.01 L1511.58,1796 L1510.52,1797.87 L1509.33,1800.02 L1508.85,1801.22 L1506.79,1802.61 L1505.6,1803.73 L1505.05,1806.12 L1504.49,1808.39 L1503.31,1810.46 L1501.6,1812.34 L1498.71,1813.41 L1497.88,1814.17 L1497.88,1816.04 L1496.14,1818.39 L1495.42,1821.02 L1495.03,1822.94 L1493.88,1823.89 L1492.45,1824.45 L1491.46,1825.65 L1489.6,1826.25 L1486.71,1825.09 L1484.14,1825.89 L1482.59,1826.45 L1480.61,1826.57 L1478.27,1826.25 L1476.02,1826.57 L1474.95,1827.64 L1474.27,1829.99 L1468.57,1831.71 L1465.52,1831.27 L1463.54,1831.51 L1462.55,1832.74 L1460.77,1833.7 L1456.84,1832.7 L1455.1,1832.3 L1453.79,1832.38 L1449.95,1833.26 L1448.84,1834.14 L1447.5,1835.81 L1445.87,1836.25 L1445.04,1837.93 L1441.2,1841.99 L1440.84,1843.43 L1439.61,1844.42 L1438.07,1845.54 L1436.92,1846.62 L1435.61,1847.73 L1434.5,1848.57 L1432.96,1849.69 L1430.9,1850.48 L1429.47,1851.36 L1428.88,1852.79 L1428.25,1854.43 L1427.34,1856.74 L1426.07,1858.22 L1425.43,1859.41 L1424.6,1860.97 L1424.6,1863.84 L1424.6,1866.11 L1424.21,1868.54 L1423.77,1869.86 L1422.86,1871.01 L1420.88,1872.53 L1417.75,1878.03 L1416.4,1879.39 L1415.22,1880.54 L1410.58,1882.3 L1406.34,1882.74 L1399.13,1888.92 L1395.49,1892.67 L1392.56,1896.02 L1391.65,1894.78 L1391.13,1893.46 L1388.52,1885.09 L1387.92,1883.14 L1387.29,1880.15 L1386.26,1878.35 L1384.44,1874.72 L1383.77,1873.29 L1379.49,1864.68 L1378.54,1862.8 L1373.94,1853.59 L1373.11,1851.44 L1373.23,1849.57 L1373.94,1848.69 L1375.57,1846.62 L1375.57,1844.74 L1374.81,1841.67 L1374.22,1839.88 L1373.94,1838.24 L1373.7,1837.01 L1373.39,1835.81 L1372.4,1833.3 L1368.24,1829.71 L1367.21,1828.44 L1365.78,1825.97 L1362.61,1823.54 L1361.31,1822.02 L1360.32,1820.59 L1359.92,1819.47 L1359.76,1817.6 L1359.33,1815.72 L1359.37,1810.7 L1360.67,1808.95 L1361.5,1807.39 L1365.27,1804.92 L1365.78,1803.21 L1364.24,1801.89 L1361.78,1801.89 L1360.08,1801.06 L1358.45,1799.3 L1357.5,1797.03 L1357.46,1795.48 L1357.94,1794 L1359.37,1792.29 L1361.31,1791.29 L1362.77,1790.82 L1366.22,1788.94 L1368.87,1786.63 L1371.64,1783.21 L1372.08,1780.46 L1371.8,1778.86 L1371.21,1777.71 L1369.11,1773.52 L1366.81,1770.26 L1360.99,1764.92 L1360.91,1762.77 L1359.76,1760.89 L1358.38,1760.42 L1355.37,1760.42 L1351.76,1760.57 L1350.18,1760.97 L1348.59,1761.65 L1345.46,1763.2 L1342.93,1764.76 L1337.46,1770.69 L1333.62,1774.28 L1329.42,1777.59 L1326.69,1779.18 L1324.75,1779.74 L1322.29,1779.74 L1320.43,1779.46 L1318.92,1778.9 L1316.19,1778.15 L1311.79,1776.43 L1308.63,1774.88 L1307.75,1774.12 L1305.85,1773.01 L1303.36,1771.25 L1301.06,1769.66 L1294.8,1764.8 L1294.29,1763.52 L1293.1,1761.97 L1289.1,1758.42 L1287.08,1756.99 L1285.38,1754.12 L1283.79,1749.5 L1282.92,1748.42 L1281.81,1747.11 L1280.62,1743.48 L1280.58,1741.89 L1280.82,1740.18 L1281.81,1737.83 L1283.2,1735.64 L1284.11,1734.56 L1286.41,1732.53 L1287.63,1731.22 L1291.55,1729.58 L1292.62,1728.94 L1294.64,1727.35 L1296.66,1725.2 L1297.69,1722.49 L1299.08,1720.42 L1300.43,1714.49 L1300.51,1710.62 L1300.07,1709.23 L1299.08,1708.11 L1298.53,1707 L1296.27,1704.49 L1290.21,1700.59 L1289.02,1699.87 L1287.51,1698.84 L1285.93,1697.96 L1283.55,1696.88 L1281.81,1696.41 L1276.23,1695.25 L1272.19,1694.1 L1269.37,1693.78 L1267.91,1693.7 L1266.68,1694.02 L1263.71,1695.21 L1260.62,1696.84 L1259.63,1697.6 L1258.01,1699.51 L1256.7,1701.74 L1252.86,1707.24 L1251.87,1709.23 L1249.93,1712.1 L1248.14,1715.68 L1247.31,1716.84 L1246.2,1720.46 L1245.85,1721.86 L1245.77,1726.28 L1246,1728.67 L1246.08,1731.53 L1245.33,1738.31 L1245.57,1742.61 L1245.57,1744.44 L1245.01,1746.95 L1242.76,1750.06 L1240.26,1755.04 L1239.31,1756.43 L1237.88,1757.71 L1236.7,1758.46 L1234.83,1759.1 L1232.73,1759.3 L1231.07,1759.1 L1227.59,1757.98 L1226.04,1757.43 L1223.15,1755.83 L1221.53,1755 L1220.14,1754.04 L1219.39,1753.12 L1218.4,1750.97 L1216.81,1748.94 L1213.37,1743.01 L1212.1,1738.98 L1211.7,1737.27 L1211.58,1734.4 L1211.78,1732.01 L1211.98,1729.94 L1211.78,1725.72 L1210.91,1721.3 L1209.8,1716.84 L1208.3,1714.13 L1207.27,1710.78 L1206.67,1709.51 L1205.8,1708.67 L1204.69,1708 L1202.47,1705.88 L1199.3,1704.77 L1197.32,1703.61 L1193.52,1702.58 L1191.22,1700.27 L1189.24,1699.19 L1186.51,1696.96 L1184.49,1695.09 L1183.22,1693.38 L1180.93,1691.67 L1179.62,1689.52 L1177.08,1687.53 L1175.78,1686.41 L1174.43,1685.06 L1170.82,1682.11 L1168.01,1680.44 L1166.75,1679.88 L1163.18,1679.24 L1160.76,1679.16 L1157.67,1679.32 L1154.98,1678.93 L1150.15,1678.69 L1149,1678.61 L1147.61,1678.57 L1142.78,1678.33 L1139.38,1679.24 L1136.09,1680.6 L1130.26,1681.16 L1128.68,1681.47 L1125.99,1682.15 L1123.61,1682.03 L1120.12,1682.63 L1118.94,1683.07 L1115.37,1685.38 L1113.99,1685.89 L1112.44,1686.49 L1111.25,1686.61 L1108.92,1686.81 L1107.65,1685.65 L1105.19,1683.19 L1103.89,1682.31 L1100.52,1682.43 L1099.37,1681.99 L1097.31,1678.49 L1096.08,1676.82 L1094.81,1673.43 L1093.63,1671.84 L1090.66,1669.25 L1088.04,1667.94 L1086.18,1667.26 L1084.63,1666.34 L1081.03,1663.64 L1080.24,1661.96 L1078.81,1660.53 L1077.15,1659.42 L1075.52,1658.74 L1073.47,1658.18 L1069.58,1658.3 L1068.16,1658.1 L1066.85,1657.86 L1064.67,1658.22 L1062.61,1656.99 L1055.05,1654.56 L1052.31,1653.68 L1049.98,1652.85 L1047.56,1652.49 L1045.22,1652.09 L1043.76,1651.73 L1042.13,1651.29 L1040.47,1651.18 L1039.16,1651.06 L1036.87,1650.38 L1033.38,1649.94 L1031.08,1648.99 L1028.79,1647.87 L1026.45,1645.64 L1023.64,1641.9 L1022.53,1643.05 L1021.22,1645.76 L1019.68,1646.64 L1018.76,1647.43 L1017.18,1647.23 L1014.76,1647.67 L1013.1,1648.67 L1011.24,1649.18 L1004.03,1648.31 L1002.05,1649.5 L999.514,1648.67 L997.336,1646.36 L995.038,1641.46 L993.335,1638.95 L993.137,1635.45 L992.186,1632.23 L993.137,1630.24 L992.622,1626.73 L992.939,1623.63 L994.88,1621.36 L994.603,1619.65 L994.167,1618.45 L993.494,1617.14 L992.583,1615.47 L990.325,1613.28 L985.73,1610.85 L984.859,1609.46 L984.304,1608.23 L983.868,1606.55 L982.403,1603.73 L982.759,1601.06 L982.443,1598.68 L981.452,1595.89 L978.997,1593.38 L977.848,1591.51 L976.976,1590.72 L974.283,1589.44 L970.599,1589.44 L966.678,1588.53 L963.549,1589.2 L961.925,1589.2 L958.796,1588.53 L956.894,1588.77 L954.28,1588.85 L951.666,1586.46 L950.24,1585.03 L949.171,1583.79 L947.665,1581.64 L946.081,1580.37 L942.358,1578.94 L939.942,1578.38 L937.407,1578.66 L931.901,1580.65 L928.613,1580.65 L926.118,1581.96 L924.573,1583.67 L922.078,1585.98 L921.325,1588.21 L919.305,1589.44 L917.919,1590.52 L916.453,1590.56 L914.394,1589.96 L911.344,1590.44 L909.363,1592.75 L908.729,1594.14 L908.373,1596.8 L907.739,1597.92 L903.976,1600.78 L901.877,1602.22 L899.184,1602.81 L898.035,1603.69 L891.182,1605.36 L886.469,1606.12 L884.726,1606.95 L883.973,1608.47 L882.983,1609.42 L881.993,1610.1 L880.448,1610.34 L878.547,1611.41 L876.289,1612.45 L874.388,1613.32 L872.328,1613.44 L870.229,1614.28 L869.595,1616.58 L868.288,1616.39 L867.1,1617.02 L865.634,1618.77 L865.001,1619.77 L861.713,1621.04 L860.366,1621.2 L856.999,1623.63 L855.574,1624.66 L854.663,1625.5 L852.722,1625.94 L850.543,1627.17 L848.8,1627.93 L847.018,1627.97 L843.849,1627.21 L841.195,1627.41 L839.492,1628.13 L835.848,1628.72 L834.541,1628.84 L832.362,1629.08 L828.639,1627.93 L824.441,1628.8 L818.895,1629.12 L817.588,1629.36 L816.479,1630.28 L815.885,1635.45 L815.924,1637.16 L817.905,1642.34 L818.737,1645.36 L819.212,1646.68 L820.163,1649.5 L821.193,1653.84 L821.47,1656.59 L821.866,1657.9 L823.054,1659.54 L823.015,1661.05 L823.49,1663.04 L821.945,1667.26 L822.064,1669.13 L822.381,1671.12 L823.054,1673.87 L824.361,1675.82 L824.322,1677.05 L823.45,1679.16 L822.579,1680.04 L821.153,1680.56 L819.885,1681.19 L818.024,1682.31 L816.875,1682.99 L815.489,1684.34 L812.954,1684.74 L811.211,1684.62 L809.151,1683.86 L807.725,1683.66 L806.497,1683.78 L804.557,1684.34 L801.15,1683.35 L797.823,1682.67 L793.981,1682.47 L793.228,1683.42 L790.06,1684.54 L788.673,1685.1 L787.96,1686.37 L783.247,1688.36 L780.831,1690.23 L777.939,1692.34 L776.474,1692.66 L774.176,1692.54 L772.116,1692.15 L767.641,1690.55 L765.106,1690.11 L761.501,1690.47 L755.797,1691.99 L748.628,1692.54 L739.161,1694.69 L737.735,1695.41 L736.745,1696.21 L735.517,1697.84 L733.735,1701.46 L732.864,1705.05 L732.705,1706.2 L732.784,1708.11 L733.458,1710.27 L740.191,1722.85 L740.904,1723.85 L742.093,1725.32 L742.647,1728.51 L742.885,1733.13 L744.469,1736.59 L744.271,1738.66 L741.894,1742.93 L740.785,1745.32 L739.439,1748.94 L737.815,1751.25 L736.824,1752.05 L734.21,1753.4 L731.24,1757.03 L729.14,1761.09 L728.586,1762.17 L727.714,1763.48 L726.566,1765.08 L723.159,1768.02 L722.565,1769.54 L720.703,1771.21 L718.089,1774.72 L714.485,1778.58 L713.098,1780.46 L711.95,1782.81 L710.96,1783.76 L706.959,1785.64 L704.384,1785.92 L702.562,1786.31 L698.364,1788.07 L695.551,1788.66 L692.818,1788.27 L684.896,1787.87 L679.668,1789.1 L677.49,1788.23 L675.945,1788.31 L674.321,1788.74 L668.379,1789.5 L666.874,1790.74 L665.884,1793.45 L665.211,1794.44 L663.666,1795.56 L660.576,1797.31 L657.328,1798.91 L654.912,1800.98 L653.803,1802.05 L651.743,1803.21 L650.278,1803.49 L646.871,1805.08 L645.168,1807.16 L643.505,1808.23 L640.692,1807.91 L639.148,1807.35 L637.167,1806.84 L634.276,1807.08 L631.028,1807.35 L629.721,1807.16 L628.73,1806.6 L627.938,1805.48 L626.552,1801.62 L625.403,1800.5 L622.789,1799.34 L621.403,1798.35 L617.362,1794 L616.531,1793.05 L614.669,1791.69 L611.817,1789.38 L609.797,1788.66 L607.777,1787.83 L605.796,1786.95 L602.628,1786.19 L599.657,1786.07 L597.914,1786.55 L596.171,1787.39 L593.003,1789.54 L589.636,1792.69 L588.844,1793.57 L587.22,1795.6 L586.111,1797.23 L584.764,1799.9 L583.892,1802.05 L582.268,1807.35 L580.763,1811.26 L579.892,1815.6 L578.189,1822.9 L577.872,1824.97 L578.189,1826.8 L579.654,1830.27 L580.526,1832.58 L581.08,1836.89 L580.961,1838.36 L579.417,1842.43 L577.198,1849.49 L576.367,1853.75 L575.297,1856.54 L574.941,1858.22 L574.584,1861.25 L574.624,1864.72 L573.396,1867.59 L573.396,1869.18 L572.406,1872.53 L571.732,1874.2 L570.782,1875.6 L569.871,1876.96 L568.009,1878.91 L565.316,1886.29 L562.86,1890.63 L561.157,1894.78 L560.8,1896.53 L560.721,1897.97 L560.998,1900.64 L561.909,1902.76 L562.147,1904.15 L561.592,1905.47 L560.127,1907.82 L556.205,1911.33 L555.215,1912.53 L554.304,1913.52 L553.156,1914.68 L551.69,1915.2 L550.264,1915.56 L547.214,1915.4 L539.332,1912.77 L535.094,1909.93 L533.985,1909.06 L531.648,1905.91 L530.261,1905.07 L528.717,1904.71 L527.093,1905.15 L523.686,1906.58 L522.537,1907.58 L521.666,1908.78 L520.359,1911.21 L519.804,1912.45 L517.071,1918.83 L516.477,1919.87 L515.804,1921.14 L515.21,1922.5 L514.774,1924.81 L513.705,1926.37 L512.397,1927.44 L510.219,1929.56 L509.664,1930.99 L509.07,1932.07 L507.882,1932.31 L506.337,1932.07 L505.07,1931.55 L503.485,1930.32 L502.654,1929.4 L501.346,1928.68 L497.623,1927.4 L495.603,1927.52 L494.098,1927.25 L491.404,1926.93 L489.028,1928.24 L487.958,1928.8 L486.731,1929.2 L484.75,1929.4 L483.601,1929.96 L482.492,1930.87 L481.146,1932.07 L479.957,1933.83 L479.403,1935.38 L478.967,1936.82 L478.452,1940.49 L477.7,1942.32 L477.145,1943.4 L476.313,1944.64 L475.442,1945.67 L474.174,1946.95 L470.451,1949.38 L467.48,1950.5 L466.292,1950.82 L463.559,1950.74 L461.658,1950.06 L458.925,1950.62 L457.261,1951.38 L453.261,1954.49 L450.131,1956.13 L447.992,1956.89 L445.537,1956.81 L442.487,1956.17 L439.001,1954.77 L437.14,1953.73 L435.714,1953.17 L434.208,1952.94 L431.792,1952.5 L424.504,1950.7 L416.543,1946.83 L413.81,1945.08 L411.354,1943.64 L410.086,1942.92 L408.304,1942.2 L405.135,1941.69 L399.114,1941.13 L397.332,1941.33 L395.272,1942.36 L394.084,1943.32 L392.222,1943.92 L390.361,1944.84 L386.717,1945.55 L389.45,1942.64 L390.44,1941.92 L391.47,1939.77 L393.015,1936.7 L393.45,1935.46 L393.292,1934.15 L391.43,1930.2 L391.707,1928.76 L392.975,1928.08 L394.599,1927.96 L397.015,1926.45 L398.718,1925.93 L400.025,1924.57 L399.748,1922.78 L399.827,1919.71 L400.144,1916.99 L399.867,1915.64 L398.916,1913.8 L398.679,1912.25 L399.431,1909.82 L401.333,1907.22 L401.966,1905.59 L400.778,1902.96 L400.976,1901.16 L402.204,1899.01 L401.451,1896.46 L400.303,1894.82 L396.619,1891.27 L395.272,1890.79 L394.876,1889.52 L395.748,1888.04 L396.619,1887.16 L397.926,1886.73 L399.867,1886.05 L400.342,1884.01 L401.848,1882.58 L403.59,1883.89 L405.373,1884.85 L407.472,1885.97 L409.096,1886.33 L410.403,1885.53 L411.512,1884.09 L413.928,1882.1 L414.206,1880.86 L414.008,1878.35 L416.543,1876.92 L420.147,1876.48 L422.128,1875.36 L422.682,1873.97 L423.039,1872.41 L423.672,1870.9 L424.544,1869.42 L424.346,1867.15 L421.811,1866.99 L420.939,1864.83 L422.048,1862.72 L422.326,1861.17 L421.256,1860.49 L420.82,1859.37 L420.622,1857.66 L419.474,1856.98 L421.058,1854.43 L424.544,1848.69 L424.108,1847.29 L424.187,1845.98 L424.781,1844.22 L425.653,1842.63 L426.485,1841.55 L427.633,1841.23 L428.703,1839.64 L428.94,1838.2 L428.346,1836.49 L428.782,1834.26 L428.069,1833.06 L429.059,1830.15 L430.01,1828.08 L428.029,1826.76 L425.93,1824.65 L423.672,1820.35 L422.484,1819.07 L420.9,1819.35 L419.157,1820.39 L417.058,1821.06 L414.602,1821.02 L413.136,1820.51 L408.225,1817.72 L405.294,1815.29 L404.184,1813.85 L403.036,1813.53 L399.59,1813.01 L397.134,1811.42 L394.718,1811.98 L394.203,1810.26 L394.757,1808.91 L394.322,1807.39 L394.559,1806.24 L392.024,1806.96 L390.678,1806.36 L389.569,1805.48 L388.38,1805.04 L386.875,1804.52 L385.449,1804.8 L383.904,1805.96 L382.716,1806.04 L382.003,1804.09 L379.943,1803.73 L377.884,1803.93 L375.824,1803.61 L373.725,1801.46 L372.853,1798.19 L369.764,1796.79 L369.091,1795.12 L369.883,1791.93 L369.091,1790.42 L368.1,1789.1 L367.823,1787.23 L368.338,1785.12 L367.427,1782.57 L367.427,1779.82 L365.605,1777.95 L364.813,1776.55 L365.486,1775 L364.694,1773.76 L363.862,1772.77 L363.624,1770.22 L363.743,1768.22 L362.872,1766.63 L360.971,1764.92 L359.228,1762.93 L358.515,1761.05 L357.802,1759.9 L357.287,1758.54 L356.851,1757.03 L357.247,1747.51 L357.049,1745.68 L355.425,1744.24 L354.197,1744.2 L353.128,1743.68 L352.375,1741.57 L351.504,1737.39 L351.544,1735.28 L351.227,1733.88 L350.157,1732.97 L348.731,1732.13 L346.434,1731.53 L345.127,1730.34 L344.889,1728.35 L344.374,1726.48 L343.622,1725.52 L342.275,1724.17 L340.215,1720.62 L339.502,1717.67 L339.225,1714.92 L339.185,1712.81 L337.561,1711.42 L336.769,1708.51 L335.066,1707.36 L334.036,1706.36 L331.897,1704.45 L331.184,1702.46 L330.352,1699.83 L328.808,1698.84 L327.025,1699.03 L325.599,1699.59 L319.064,1702.58 L317.4,1702.06 L316.172,1702.18 L314.429,1701.34 L314.152,1698.52 L313.439,1696.84 L311.261,1696.57 L309.439,1696.01 L307.735,1694.53 L306.547,1694.1 L305.319,1694.22 L304.289,1694.77 L302.547,1696.41 L299.893,1696.45 L298.11,1696.21 L295.853,1697.6 L294.308,1698.12 L292.842,1699.83 L291.416,1701.58 L290.109,1702.14 L288.485,1700.71 L286.703,1699.87 L285.831,1698.64 L286.426,1696.88 L286.663,1694.89 L287.693,1692.9 L287.693,1690.39 L288.366,1688.04 L287.574,1686.61 L286.861,1685.61 L285.554,1682.31 L284.564,1681.63 L283.415,1678.85 L281.158,1678.45 L279.058,1679.48 L276.523,1679.56 L275.018,1679.12 L272.285,1677.25 L270.305,1677.73 L267.532,1680.04 L265.71,1678.49 L263.967,1678.01 L261.551,1677.85 L260.085,1677.37 L257.788,1677.25 L257.233,1675.58 L256.639,1674.51 L256.283,1672.99 L254.659,1672.95 L253.431,1672.28 L252.362,1670.52 L253.074,1667.94 L251.569,1666.9 L249.351,1666.18 L248.044,1663.52 L247.173,1662.2 L247.093,1660.97 L248.321,1658.98 L248.282,1656.11 L249.51,1655.24 L250.064,1654.24 L249.708,1652.25 L251.371,1650.94 L252.797,1649.82 L254.065,1648.11 L253.629,1646.68 L252.084,1646.92 L250.143,1647.19 L248.203,1647.23 L245.905,1646.64 L244.44,1647.19 L241.944,1647.75 L237.785,1647.99 L233.151,1648.87 L231.606,1648.39 L229.903,1647.79 L228.041,1649.38 L226.18,1648.07 L224.16,1649.07 L222.456,1647.67 L219.565,1647.63 L218.179,1648.31 L217.07,1648.67 L215.208,1647.83 L213.029,1647.39 L210.97,1647.39 L208.712,1646.76 L207.286,1647.23 L205.702,1648.55 L203.167,1649.5 L203.84,1651.37 L203.483,1652.73 L200.948,1652.81 L199.087,1653.36 L196.156,1652.93 L194.532,1653.36 L193.264,1654.44 L191.64,1656.99 L189.818,1657.54 L188.036,1658.98 L186.253,1659.3 L183.679,1658.78 L180.946,1658.86 L179.639,1658.02 L177.381,1655.79 L175.48,1655.28 L173.776,1655.16 L171.598,1655.91 L167.637,1656.23 L165.815,1655.91 L162.21,1653.68 L157.893,1649.86 L156.309,1647.95 L158.646,1648.43 L161.418,1648.83 L162.607,1648.67 L165.062,1647.95 L166.488,1646.64 L167.677,1645.96 L170.964,1644.77 L172.39,1644.21 L173.776,1643.37 L176.193,1641.26 L179.361,1637.84 L180.272,1636.09 L181.104,1633.46 L182.807,1631.55 L184.075,1629.52 L188.234,1629.36 L190.531,1629.8 L191.799,1630.28 L193.106,1629.8 L195.482,1629.96 L198.334,1629.72 L199.839,1628.56 L202.176,1627.65 L203.404,1626.93 L204.038,1625.66 L206.137,1623.95 L208.316,1624.11 L209.425,1623.67 L210.574,1623.51 L212,1623.43 L213.425,1622.87 L214.97,1621.08 L216.436,1618.38 L216.317,1613.64 L215.723,1611.89 L216,1609.54 L215.089,1607.83 L214.099,1606.28 L215.644,1605.52 L217.584,1605.04 L219.05,1602.54 L224.873,1602.22 L226.734,1602.42 L227.922,1600.23 L230.022,1599.51 L231.289,1598.48 L232.2,1597.44 L232.755,1596.33 L233.587,1593.58 L236.122,1589 L236.003,1587.77 L236.676,1585.86 L237.904,1584.83 L237.785,1583.16 L238.102,1581.52 L239.33,1580.21 L239.29,1578.54 L241.588,1578.98 L242.934,1578.34 L244.915,1578.66 L245.984,1579.73 L247.608,1581.84 L251.649,1580.21 L252.916,1579.22 L254.104,1578.66 L255.293,1577.54 L257.352,1574.04 L259.056,1573.76 L260.679,1572.25 L262.383,1570.3 L264.165,1566.72 L264.72,1565.73 L265.274,1563.98 L265.631,1561.79 L265.829,1559.24 L265.67,1557.41 L266.779,1554.55 L267.928,1554.35 L272.285,1555.42 L275.771,1556.74 L277.553,1557.73 L278.425,1556.06 L278.385,1554.35 L277.87,1551.05 L278.543,1549.34 L279.296,1544.32 L280.722,1540.66 L282.782,1538.24 L284.762,1537.52 L289.159,1536.65 L290.149,1535.37 L291.654,1535.09 L293.872,1534.5 L295.298,1533.86 L295.813,1532.19 L297.16,1530.48 L297.12,1528.57 L297.001,1527.34 L298.15,1525.75 L303.418,1525.31 L305.161,1524.75 L306.587,1524.91 L308.963,1528.33 L310.389,1529.65 L311.855,1530.48 L312.132,1532.23 L313.558,1532.79 L314.984,1533.3 L315.024,1534.66 L316.885,1535.81 L318.074,1537.24 L321.797,1538.79 L322.985,1539.83 L323.658,1541.02 L325.758,1542.89 L327.936,1543.69 L329.917,1541.1 L332.214,1539.83 L334.076,1536.73 L337.046,1534.38 L336.888,1532.23 L337.205,1529.13 L336.492,1527.82 L334.947,1526.26 L335.066,1524.83 L336.888,1524.39 L338.037,1523.6 L340.096,1522.01 L341.641,1520.54 L341.8,1518.15 L340.809,1516.56 L340.849,1514.81 L338.789,1512.74 L340.176,1508.8 L341.641,1508.09 L345.206,1508.68 L349.246,1508.8 L351.147,1510.83 L352.692,1511.63 L352.969,1513.85 L353.682,1515.13 L354.752,1515.84 L354.197,1517.23 L356.059,1517.43 L357.525,1517.79 L359.703,1517.23 L362.832,1517.99 L364.694,1516.12 L366.12,1515.13 L367.387,1512.98 L368.14,1511.79 L369.685,1510.51 L369.249,1508.33 L369.803,1506.5 L369.803,1504.83 L368.774,1502.16 L368.576,1500.45 L370.2,1497.55 L369.566,1495.72 L370.081,1494.25 L376.458,1494.49 L378.121,1494.41 L380.736,1493.13 L380.934,1491.07 L382.835,1488.32 L383.904,1487.33 L385.291,1486.69 L385.449,1484.66 L384.697,1483.03 L385.568,1481.96 L385.885,1479.93 L384.895,1477.43 L385.291,1476.15 L384.697,1473.61 L383.786,1470.59 L383.984,1468 L384.697,1467.09 L388.182,1466.29 L389.608,1465.66 L390.598,1465.1 L391.787,1463.35 L393.45,1463.11 L395.193,1462.59 L396.896,1462.36 L399.748,1461.72 L400.303,1459.93 L401.649,1458.5 L402.442,1457.23 L403.709,1457.07 L405.135,1456.23 L407.749,1455.32 L409.888,1455.88 L411.195,1455.76 L412.7,1455.95 L414.166,1455.36 L414.919,1454.21 L415.75,1452.81 L415.632,1449.43 L416.622,1447.33 L419.276,1446.33 L420.345,1444.43 L421.929,1443.31 L423.237,1441.17 L426.524,1440.25 L427.792,1438.38 L429.099,1437.39 L429.812,1436.2 L430.208,1431.39 L433.495,1428.72 L435.793,1429.2 L437.06,1428.84 L439.12,1429.2 L439.754,1428.17 L439.754,1426.18 L441.417,1425.03 L441.853,1423.44 L443.477,1421.89 L445.259,1422.56 L447.438,1422.44 L449.616,1423.59 L450.963,1424.75 L452.548,1424.79 L454.805,1425.98 L456.271,1426.06 L456.073,1424.19 L457.697,1422.6 L460.588,1421.61 L460.271,1417.71 L460.153,1415.57 L459.004,1414.21 L457.974,1413.42 L456.944,1412.46 L455.994,1408.81 L455.122,1407.73 L456.073,1406.11 L455.439,1404.4 L456.271,1402.77 L457.182,1398.63 L459.836,1392.79 L463.717,1384.29 L464.43,1382.7 L466.292,1378.6 L471.6,1366.76 L472.273,1365.45 L474.848,1360.13 L476.709,1356.59 L478.769,1352.46 L478.888,1351.23 L479.007,1349.95 L478.848,1347.85 L478.294,1344.23 L478.096,1341.45 L479.007,1331.44 L479.838,1321.59 L481.146,1316.42 L481.264,1314.56 L481.185,1312.65 L481.185,1311.38 L481.185,1309.63 L480.274,1305.34 L479.64,1302.36 L478.452,1299.62 L477.462,1297.95 L475.996,1295.97 L474.57,1294.42 L472.867,1292.99 L469.302,1290.61 L465.262,1289.14 L454.964,1286.55 L445.339,1284.09 L441.219,1282.78 L438.803,1281.83 L435.397,1279.96 L431.079,1276.67 L428.94,1274.32 L428.148,1273.05 L427.514,1271.82 L426.722,1268.29 L426.841,1265.86 L427.198,1264.31 L427.594,1263 L428.227,1261.42 L429.138,1259.75 L430.327,1257.84 L432.505,1255.54 L433.654,1254.59 L435.238,1253.67 L436.387,1252.96 L437.377,1252.24 L439.318,1250.61 L441.1,1248.99 L442.526,1247.32 L443.279,1246.09 L444.467,1244.06 L445.695,1241.4 L446.527,1238.46 L446.963,1237.04 L447.319,1235.45 L447.834,1232.43 L447.992,1230.84 L448.072,1229.29 L447.953,1228.02 L447.636,1225.96 L447.121,1223.85 L446.844,1222.62 L446.091,1220.08 L443.952,1214.8 L442.091,1211.07 L438.882,1205.95 L437.219,1203.96 L436.387,1203.09 L435.357,1202.18 L433.297,1200.43 L431.871,1199.56 L430.683,1198.17 L429.812,1197.26 L426.049,1192.97 L424.504,1190.87 L419.196,1182.97 L416.622,1178.16 L415.354,1175.39 L413.493,1169.91 L412.938,1168.4 L411.591,1165.54 L411.037,1163.2 L410.918,1161.77 L411.077,1160.3 L411.829,1157.29 L414.998,1151.73 L416.463,1150.74 L427.594,1149.27 L430.208,1148.56 L431.792,1147.53 L432.505,1146.26 L433.179,1145.26 L434.367,1143.91 L435.951,1141.49 L440.982,1139.51 L457.538,1133.04 L461.341,1131.53 L477.105,1125.38 L479.403,1112.53 L480.195,1106.38 L480.274,1104.99 L479.72,1102.81 L480.155,1101.1 L481.938,1099.36 L487.008,1095.87 L489.701,1096.62 L492.197,1097.65 L493.583,1098.48 L496.078,1099.71 L501.465,1103.09 L503.089,1104.2 L505.783,1106.38 L509.466,1108.6 L512.477,1110.43 L516.675,1112.96 L522.498,1115.27 L531.529,1115.74 L535.727,1115.74 L538.342,1115.62 L540.877,1115.19 L546.343,1113.44 L551.373,1110.66 L552.443,1109.43 L553.71,1106.85 L554.78,1103.56 L555.413,1102.13 L557.315,1100.35 L560.444,1098.05 L563.85,1095.94 L565.197,1093.96 L567.019,1090.95 L568.445,1089.95 L571.653,1088.96 L574.624,1088.92 L577.357,1088.76 L581.872,1088.29 L583.813,1088.37 L588.17,1088.92 L590.151,1089.04 L591.26,1089.64 L593.042,1091.07 L596.29,1094.08 L598.073,1095.39 L602.311,1100.39 L603.499,1101.9 L606.906,1104.95 L609.559,1106.81 L616.808,1111.66 L619.977,1112.89 L622.829,1113.6 L626.552,1114.95 L630.235,1116.18 L632.097,1116.93 L634.553,1117.92 L639.861,1120.11 L643.742,1121.1 L650.753,1121.34 L659.705,1121.57 L664.022,1121.46 L670.439,1121.02 L671.667,1120.9 L674.083,1120.86 L676.46,1120.62 L688.541,1119 L690.719,1118.56 L691.907,1118.36 L694.086,1118.12 L696.423,1116.93 L703.869,1113.76 L709.652,1111.22 L712.98,1109.99 L716.426,1108.12 L718.723,1107.37 L721.416,1105.82 L723.555,1104.87 L727.833,1103.68 L729.814,1103.4 L732.151,1103.8 L734.884,1104.32 L737.934,1104.2 L739.359,1104.2 L740.469,1103.68 L743.915,1101.46 L747.163,1100.15 L748.232,1099.59 L750.648,1098.68 L753.183,1098.6 L754.49,1098.52 L757.778,1100.15 L762.214,1101.46 L763.997,1101.22 L766.294,1100.15 L767.482,1099.95 L768.789,1100.55 L771.562,1100.59 L773.226,1100.67 L775.285,1101.26 L777.82,1101.26 L781.306,1100.39 L782.969,1099.71 L785.148,1099.4 L789.228,1098.96 L792.159,1099.16 L796.674,1099.24 L798.853,1099.83 L802.22,1100.98 L807.012,1102.45 L810.696,1103.56 L814.142,1105.31 L819.133,1108.6 L824.48,1111.85 L831.729,1117.25 L834.66,1120.66 L835.333,1122.45 L837.155,1126.77 L837.63,1127.8 L839.254,1130.98 L840.364,1134.35 L840.799,1136.97 L841.789,1138.68 L843.532,1138.95 L846.622,1138.44 L849.315,1137.68 L850.543,1137.8 L852.959,1139.51 L855.494,1141.1 L857.554,1141.1 L859.376,1140.18 L862.268,1139.31 L863.773,1139.95 L864.565,1141.61 L865.08,1143.36 L866.228,1147.68 L866.743,1149.55 L867.615,1152.25 L869.674,1157.01 L871.457,1160.26 L873.675,1161.45 L875.18,1161.89 L877.953,1161.02 L880.25,1159.59 L883.815,1157.09 L887.578,1154.91 L889.321,1154.23 L891.42,1153.72 L893.044,1154.87 L895.421,1156.53 L896.886,1157.01 L902.035,1157.09 L903.422,1156.41 L905.165,1155.9 L907.937,1156.53 L908.927,1157.96 L909.482,1160.18 L909.918,1168.64 L909.284,1170.38 L904.412,1176.1 L901.6,1178.68 L899.58,1179.71 L898.312,1181.26 L898.312,1183.2 L898.827,1184.55 L899.817,1185.94 L901.679,1189.12 L902.115,1193.09 L902.55,1195.31 L903.303,1197.57 L905.878,1197.57 L908.175,1198.13 L911.859,1196.9 L913.641,1196.7 L915.74,1196.94 L918.196,1197.26 L919.622,1198.92 L920.612,1200 L922.395,1202.02 L922.91,1204.6 L924.137,1209.2 L925.484,1209.64 L928.178,1209.56 L929.406,1209.68 L931.03,1210 L932.257,1210.2 L934.99,1210.91 L937.525,1210.87 L938.714,1211.31 L939.585,1212.06 L941.447,1212.3 L942.992,1213.41 L943.982,1215.04 L944.616,1217.1 L946.596,1217.78 L948.101,1218.26 L949.765,1219.57 L951.745,1220.08 L954.914,1221.99 L956.38,1225.36 L958.439,1226.55 L961.846,1228.1 L963.113,1229.17 L965.688,1229.33 L967.074,1229.57 L967.866,1230.76 L968.183,1231.95 L969.134,1233.7 L971.114,1232.95 L972.857,1232.71 L975.867,1233.38 L977.808,1233.14 L982.878,1231.44 L984.859,1233.38 L985.572,1235.49 L990.444,1238.66 L991.275,1240.29 L991.394,1242.59 L992.424,1243.63 L991.394,1244.46 L991.632,1246.37 L990.404,1249.3 L993.89,1249.38 L995.355,1248.07 L996.147,1246.76 L997.969,1246.09 L999.435,1245.65 L1001.93,1246.01 L1003.04,1245.37 L1005.3,1244.62 L1007.91,1243.15 L1009.38,1244.22 L1010.88,1245.57 L1012.78,1246.21 L1014.92,1246.76 L1016.07,1248.23 L1017.77,1249.54 L1018.88,1251.09 L1020.07,1251.17 L1021.34,1252.4 L1022.65,1253.39 L1024.35,1253.35 L1025.89,1254.03 L1027.68,1254.15 L1029.1,1254.11 L1030.41,1254.11 L1032.51,1254.55 L1033.82,1254.78 L1036.35,1256.41 L1037.5,1257.52 L1038.65,1259.75 L1039.8,1261.42 L1040.39,1262.92 L1041.38,1264.55 L1043.2,1266.3 L1047.09,1269.91 L1048.27,1271.26 L1048.91,1273.45 L1049.66,1275.32 L1050.69,1277.42 L1050.57,1279.09 L1049.98,1281.03 L1050.14,1282.23 L1051.64,1284.09 L1052.23,1285.12 L1052.99,1287.98 L1053.7,1289.06 L1054.53,1291.24 L1054.06,1293.7 L1053.7,1295.53 L1053.98,1296.64 L1055.05,1298.95 L1055.6,1300.02 L1055.44,1301.93 L1053.42,1304.03 L1052.43,1305.62 L1052.19,1306.97 L1052.63,1308.2 L1054.41,1309.95 L1055.72,1308.48 L1056.59,1307.61 L1061.98,1304.75 L1063.6,1303.67 L1064.71,1302.76 L1065.54,1301.69 L1066.14,1300.38 L1066.57,1299.07 L1067.88,1295.77 L1069.15,1294.74 L1070.3,1294.78 L1071.44,1294.97 L1072.79,1295.09 L1074.85,1295.21 L1077.15,1295.77 L1079.01,1296.96 L1080.24,1296.56 L1081.23,1294.58 L1081.66,1293.35 L1083.53,1292.04 L1085.47,1292.43 L1086.26,1293.54 L1087.45,1296.44 L1088.48,1301.01 L1089.03,1302.16 L1090.22,1303 L1092.52,1303.04 L1094.34,1304.55 L1097.47,1305.34 L1098.97,1305.22 L1100.32,1304.15 L1102.18,1305.3 L1103.92,1305.18 L1105.35,1304.75 L1106.5,1303.43 L1106.38,1302.04 L1104.24,1300.06 L1104.32,1298.87 L1107.05,1297.28 L1108.8,1295.13 L1109.39,1290.92 L1111.09,1289.93 L1112.32,1288.62 L1114.22,1285.12 L1114.1,1283.38 L1112.12,1281.35 L1111.69,1279.92 L1112.32,1277.86 L1113.79,1275.75 L1113.75,1274.36 L1113.43,1272.46 L1114.82,1270.59 L1116.36,1270.71 L1119.1,1268.72 L1120.76,1268.64 L1121.99,1269.04 L1123.65,1270.27 L1123.97,1268.72 L1122.82,1266.1 L1123.61,1265.15 L1125.51,1265.31 L1127.25,1265.86 L1129.63,1265.23 L1131.18,1266.66 L1132.92,1267.17 L1135.45,1266.46 L1137.55,1265.31 L1137.55,1263.16 L1137.87,1261.61 L1138.19,1260.26 L1137.55,1258 L1137.99,1256.65 L1140.4,1254.55 L1140.68,1253.24 L1142.82,1251.85 L1144.13,1252.8 L1145.51,1253.16 L1146.82,1253.24 L1148.05,1253.71 L1149.59,1253.91 L1151.42,1255.46 L1154.51,1255.26 L1156.72,1255.26 L1158.47,1255.14 L1159.89,1253.67 L1160.96,1253.24 L1162.07,1251.09 L1162.74,1249.66 L1162.71,1247.88 L1163.7,1246.33 L1163.5,1243.9 L1163.58,1242.48 L1162.31,1241.52 L1161.87,1240.29 L1160.01,1238.46 L1161.28,1236.36 L1162.74,1233.14 L1165.16,1234.85 L1167.02,1234.45 L1168.65,1234.69 L1169.76,1235.13 L1172.13,1234.73 L1173.68,1235.69 L1175.78,1234.57 L1177.28,1232.15 L1178.94,1232.51 L1180.33,1231.87 L1181.48,1230.88 L1183.94,1230.01 L1185.72,1230.09 L1187.38,1231.16 L1189.01,1231.4 L1190.31,1231.64 L1191.74,1231.52 L1192.41,1229.73 L1192.37,1228.42 L1192.65,1226.87 L1193.96,1224.81 L1195.07,1223.7 L1194.83,1221.83 L1196.02,1221.11 L1198,1219.84 L1199.54,1218.77 L1201.09,1217.82 L1202.51,1217.94 L1203.34,1216.47 L1205.68,1216.79 L1206.95,1216.35 L1208.81,1218.1 L1209.84,1219.69 L1211.03,1220.76 L1213.09,1221.07 L1214.51,1221.55 L1215.98,1224.81 L1217.41,1225.96 L1218.83,1228.42 L1219.7,1230.64 L1221.29,1231.52 L1223.27,1230.52 L1225.72,1232.47 L1227.27,1234.3 L1228.77,1234.89 L1228.46,1238.23 L1229.68,1238.86 L1232.18,1238.46 L1232.38,1241.88 L1233.72,1242.59 L1235.35,1243.71 L1238.12,1245.06 L1238.76,1246.96 L1238.44,1249.38 L1239.19,1250.93 L1240.62,1251.41 L1242.24,1252.72 L1243.27,1253.55 L1244.14,1255.54 L1245.57,1257.41 L1245.21,1259.55 L1245.33,1261.57 L1246.64,1263.24 L1248.7,1263.56 L1249.89,1264.16 L1249.93,1265.55 L1250.36,1267.85 L1251.35,1268.88 L1252.86,1269.48 L1254.76,1268.88 L1256.14,1266.54 L1257.37,1265.86 L1258.48,1267.85 L1259.75,1267.85 L1261.65,1268.84 L1263.47,1269.83 L1265.06,1269.91 L1267.55,1268.72 L1269.33,1267.89 L1270.17,1266.98 L1271.39,1266.86 L1272.15,1267.89 L1273.22,1268.44 L1274.92,1268.96 L1276.66,1269.2 L1278.6,1269.04 L1281.57,1267.02 L1285.53,1267.17 L1288.27,1267.77 L1289.81,1267.21 L1290.13,1265.03 L1290.13,1262.73 L1292.23,1261.14 L1296.11,1260.38 L1297.89,1260.62 L1299.75,1260.54 L1301.1,1260.26 L1302.72,1259.63 L1303.68,1258.87 L1305.22,1256.65 L1305.7,1253.83 L1308.31,1254.23 L1310.41,1254.7 L1312.23,1255.78 L1313.97,1255.7 L1317.14,1259.27 L1320.67,1259.71 L1322.85,1259.27 L1324.31,1259.43 L1325.7,1258 L1327.76,1255.26 L1327,1252.84 L1332.71,1250.85 L1335.12,1250.3 L1336.23,1248.95 L1337.66,1247.64 L1339.32,1246.8 L1340.08,1244.18 L1341.07,1243.35 L1343.05,1242.2 L1345.42,1238.54 L1346.73,1241.28 L1347.64,1241.96 L1348.16,1243.03 L1350.02,1245.37 L1351.36,1245.77 L1352.75,1244.94 L1354.61,1244.78 L1355.64,1245.81 L1357.15,1244.9 L1358.26,1245.65 L1359.45,1246.53 L1359.37,1248.39 L1360.32,1249.98 L1361.23,1250.97 L1361.07,1252.36 L1361.11,1253.67 L1362.93,1253.83 L1361.43,1258.64 L1362.61,1259.87 L1363.52,1262.57 L1364.16,1264.12 L1366.81,1265.31 L1366.14,1267.02 L1365.39,1268.29 L1361.78,1273.25 L1363.49,1273.33 L1366.38,1272.02 L1367.64,1272.46 L1367.25,1274.32 L1367.76,1275.87 L1369.39,1277.22 L1369.66,1278.61 L1367.64,1280.48 L1366.69,1282.46 L1366.69,1283.69 L1368.08,1286.08 L1368.4,1287.27 L1368.56,1288.82 L1368.56,1292.59 L1370.38,1296.21 L1371.41,1296.72 L1372.48,1297.44 L1373.11,1298.75 L1375.09,1299.42 L1377.43,1300.57 L1378.81,1300.46 L1380.52,1298.71 L1381.94,1298.19 L1384.28,1299.26 L1389.39,1299.46 L1392,1299.26 L1393.07,1297.56 L1396.12,1296.64 L1398.42,1295.29 L1399.89,1294.42 L1401.27,1293.23 L1402.3,1291.36 L1404.16,1290.49 L1405.47,1290.09 L1413.59,1285.32 L1414.3,1284.37 L1415.45,1283.38 L1416.28,1282.5 L1417.31,1283.06 L1418.58,1281.79 L1420.6,1280.36 L1421.87,1279.21 L1425.32,1279.29 L1427.45,1280.48 L1429.04,1280.64 L1430.46,1280.91 L1431.61,1282.07 L1434.47,1285.32 L1434.58,1286.67 L1434.62,1288.18 L1435.26,1289.41 L1436.76,1289.18 L1438.03,1289.97 L1437.36,1292.23 L1439.22,1294.97 L1440.53,1296.01 L1444.33,1296.13 L1446.31,1297.2 L1448.41,1297.87 L1450.59,1297.87 L1453.52,1298.27 L1454.63,1298.63 L1455.97,1299.18 L1457.4,1298.27 L1459.02,1297.44 L1460.45,1294.54 L1459.38,1292.15 L1456.53,1289.18 L1456.69,1286.55 L1457.4,1284.49 L1456.65,1282.46 L1456.73,1280.08 L1458.67,1276.43 L1460.53,1275.2 L1462.39,1273.93 L1465.95,1270.39 L1467.9,1268.96 L1470.83,1266.46 L1474.67,1267.13 L1475.98,1268.72 L1477.44,1269.08 L1479.26,1270.59 L1480.37,1272.18 L1481.6,1273.49 L1483.03,1273.81 L1483.78,1274.88 L1483.82,1276.51 L1484.85,1278.61 L1486.55,1278.65 L1490.71,1278.41 L1492.89,1276.23 L1495.86,1277.06 L1497.72,1278.17 L1499.42,1277.18 L1500.45,1276.23 L1501.76,1275.32 L1502.71,1274.64 L1503.62,1273.89 L1503.5,1272.46 L1504.06,1271.46 L1505.17,1270.31 L1507.31,1269.72 L1507.98,1267.41 L1508.34,1266.02 L1509.05,1263.68 L1512.69,1261.42 L1515.47,1259.27 L1517.29,1256.69 L1517.09,1253.24 L1519.15,1251.97 L1520.7,1251.21 L1524.18,1251.37 L1528.38,1252.8 L1529.21,1251.69 L1527.35,1250.65 L1526.48,1249.74 L1525.09,1246.8 L1525.09,1245.33 L1527.19,1243.71 L1529.49,1243.19 L1533.17,1241.32 L1535.35,1239.22 L1536.9,1237.63 L1538.12,1234.45 L1538.92,1232.87 L1543.07,1228.3 L1547.99,1226.47 L1549.85,1226.12 L1551.51,1225.36 L1552.9,1226.16 L1554.13,1226.55 L1555.31,1226.28 L1556.82,1225.84 L1558.36,1226 L1559.79,1225.16 L1561.57,1224.97 L1562.52,1223.81 L1563.55,1222.5 L1564.31,1221.39 L1564.27,1219.69 L1565.1,1218.26 L1566.4,1218.22 L1567.87,1218.26 L1569.89,1217.82 L1571.75,1218.1 L1572.98,1218.77 L1573.61,1220.24 L1574.37,1221.71 L1574.29,1222.98 L1574.6,1224.81 L1575.71,1225.72 L1577.3,1226.71 L1578.29,1228.54 L1578.45,1230.21 L1579.4,1231.2 L1580.15,1232.47 L1581.14,1234.02 L1582.49,1234.06 L1585.3,1232.63 L1587.83,1229.29 L1588.27,1225.16 L1588.74,1223.85 L1589.34,1222.15 L1588.86,1220.64 L1586.96,1218.89 L1585.3,1218.45 L1584.03,1218.69 L1583.59,1216.95 L1583.32,1215.72 L1587.2,1211.35 L1587.87,1209.32 L1588.94,1206.62 L1591.48,1206.58 L1592.23,1204.48 L1592.67,1202.5 L1593.22,1200.87 L1594.05,1199.6 L1597.02,1200.47 L1598.88,1199.56 L1601.1,1197.14 L1602.61,1195.95 L1602.33,1193.84 L1601.34,1191.98 L1602.21,1190.55 L1602.09,1189.04 L1602.88,1188.01 L1604.94,1187.69 L1608.63,1187.81 L1612.39,1187.17 L1613.34,1185.82 L1613.9,1184.51 L1614.33,1182.41 L1619.08,1179.67 L1619.96,1178.36 L1621.38,1177.09 L1622.81,1177.25 L1623.52,1178.28 L1625.18,1179.95 L1627.36,1179.83 L1628.59,1179.59 L1629.9,1180.15 L1632.95,1180.82 L1634.29,1179.12 L1637.11,1178.24 L1638.65,1177.85 L1640.43,1175.31 L1640.75,1172.65 L1641.11,1171.14 L1642.3,1170.5 L1644.95,1169.75 L1650.26,1167.61 L1652.79,1166.18 L1655.84,1163.88 L1662.02,1159.91 L1663.96,1159.87 L1665.27,1159.83 L1667.69,1159.31 L1671.45,1157.21 L1673.51,1154.15 L1673.19,1151.69 L1673.15,1149.95 L1673.75,1147.41 L1675.49,1145.54 L1675.92,1143.91 L1676.76,1142.8 L1678.97,1141.37 L1678.66,1139.51 L1680.32,1136.37 L1682.06,1135.94 L1683.81,1133.08 L1684.56,1131.49 L1685.75,1129.63 L1686.66,1128 L1689.75,1126.34 L1689.47,1124.07 L1687.77,1122.84 L1687.61,1121.34 L1685.31,1116.81 L1685.35,1115.15 L1686.18,1114.31 L1690.22,1113.2 L1691.37,1112.96 L1692.92,1112.41 L1698.07,1111.58 L1703.49,1112.53 L1704.92,1112.57 L1706.78,1112.57 L1708.76,1112.41 L1711.1,1111.54 L1712.6,1109.67 L1714.07,1109.59 L1718.07,1113.08 L1719.65,1112.96 L1721.28,1111.66 L1723.42,1112.01 L1725.99,1111.85 L1730.03,1110.66 L1735.1,1108.68 L1738.15,1106.85 L1740.88,1104.71 L1743.38,1103.88 L1744.17,1102.89 L1741.72,1098.8 L1741.16,1097.37 L1741.83,1096.18 L1743.18,1095.19 L1745.6,1091.94 L1749.84,1086.62 L1750.87,1084.48 L1752.17,1083.88 L1754.71,1084.32 L1755.9,1084.76 L1758.31,1083.45 L1761.01,1084.32 L1762.55,1084.12 L1765.05,1084 L1768.73,1083.45 L1770.91,1080.2 L1772.77,1078.73 L1773.88,1078.41 L1779.34,1078.33 L1781.96,1078.61 L1783.78,1078.33 L1786.79,1077.86 L1790.2,1078.61 L1792.34,1080.47 L1794.4,1083.05 L1796.73,1084.48 L1798.16,1085.19 L1801.09,1085.31 L1802.64,1085.75 L1804.73,1086.5 L1806.95,1088.65 L1810.64,1091.26 L1812.54,1092.37 L1813.69,1094.4 L1815.82,1096.5 L1816.22,1098.17 L1816.02,1101.26 L1817.13,1103.13 L1820.42,1103.76 L1822.92,1102.25 L1825.21,1102.53 L1826.84,1105.11 L1829.01,1107.13 L1831.91,1106.06 L1834.44,1108.8 L1837.57,1108.96 L1840.34,1109.99 L1842.28,1111.1 L1844.07,1109.99 L1846.13,1111.34 L1848.74,1111.73 L1850.09,1113.56 L1851.2,1114.51 L1853.73,1115.7 L1854.6,1118.04 L1854.76,1120.42 L1855.47,1121.46 L1861.57,1120.03 L1863.2,1119.55 L1866.53,1120.9 L1870.33,1122.61 L1872.07,1122.73 L1873.65,1125.38 L1874.92,1126.02 L1875.95,1128.91 L1877.34,1129.87 L1875.36,1132.61 L1873.22,1134.51 L1872.31,1137.21 L1873.93,1137.57 L1875.64,1138 L1876.82,1140.3 L1873.42,1142.09 L1874.21,1144.23 L1877.38,1146.14 L1878.33,1149.39 L1881.3,1150.07 L1883.68,1151.85 L1884.94,1153.99 L1884.39,1157.09 L1885.38,1157.72 L1887.99,1157.61 L1888.67,1159.27 L1888.86,1160.9 L1885.14,1163.36 L1883.52,1164.99 L1881.38,1166.53 L1879.75,1165.74 L1878.45,1163.8 L1877.1,1164.87 L1874.05,1166.65 L1872.55,1167.17 L1870.6,1166.97 L1868.27,1168.16 L1865.06,1169.59 L1861.34,1169.79 L1859.47,1171.02 L1857.18,1173.88 L1855.24,1174.79 L1850.84,1174.67 L1849.41,1175.19 L1848.46,1176.06 L1845.18,1176.74 L1840.58,1180.35 L1838.8,1180.98 L1835.75,1181.66 L1834.44,1182.25 L1831.59,1184.95 L1829.45,1188.13 L1828.3,1189.87 L1826.44,1191.34 L1821.85,1194.16 L1820.93,1194.87 L1819.51,1196.03 L1817.85,1197.61 L1814,1202.85 L1812.38,1205.35 L1811.75,1206.51 L1811.19,1208.13 L1810.08,1212.82 L1809.69,1213.93 L1808.89,1214.96 L1806.28,1217.1 L1805.37,1218.34 L1804.73,1219.41 L1804.3,1221.31 L1804.62,1226.12 L1805.17,1227.78 L1806.28,1229.41 L1807.98,1230.33 L1809.37,1231.75 L1811.27,1234.3 L1812.7,1236.88 L1812.85,1239.54 L1813.69,1241.09 L1817.13,1245.02 L1818.84,1246.53 L1821.57,1250.22 L1822.4,1251.93 L1823.03,1253.79 L1823.11,1255.22 L1822.84,1256.89 L1822.99,1258.87 L1823.71,1260.74 L1824.66,1261.85 L1826.12,1262.85 L1827.15,1264 L1827.55,1265.55 L1826.88,1267.21 L1825.77,1268.88 L1823.59,1270.75 L1822.56,1272.14 L1821.69,1274.44 L1820.42,1276.35 L1820.42,1277.62 L1822.4,1279.05 L1820.3,1283.34 L1819.55,1284.21 L1817.77,1285.4 L1815.98,1285.12 L1814.83,1285.96 L1813.53,1286.95 L1812.85,1286 L1810.12,1283.38 L1808.1,1283.46 L1806.71,1283.58 L1804.22,1286.63 L1796.5,1289.73 L1794.24,1288.7 L1791.27,1289.73 L1791.47,1292.23 L1786.12,1294.58 L1787.35,1296.29 L1790.79,1295.29 L1792.26,1295.53 L1792.89,1298.39 L1793.52,1300.06 L1794.52,1301.93 L1794.55,1303.91 L1792.81,1304.79 L1791.7,1304.59 L1788.22,1304.47 L1784.61,1305.86 L1784.22,1307.45 L1783.5,1308.6 L1784.93,1310.03 L1785.64,1311.5 L1785.44,1312.89 L1784.81,1314.36 L1785.8,1316.62 L1784.02,1317.1 L1782.47,1318.49 L1781.96,1319.68 L1779.34,1320.16 L1778.24,1321.83 L1775.34,1323.46 L1774.08,1324.96 L1772.85,1325.96 L1770.79,1326.75 L1769.05,1328.02 L1767.46,1328.74 L1765.48,1329.14 L1762.35,1328.46 L1760.77,1329.81 L1759.5,1329.57 L1757.6,1329.73 L1754.91,1331.44 L1756.61,1331.56 L1758.59,1331.32 L1760.02,1331.8 L1760.61,1332.99 L1759.82,1334.3 L1759.38,1335.53 L1760.37,1336.76 L1760.69,1338.91 L1759.74,1340.5 L1757.76,1341.25 L1756.89,1343.48 L1754.87,1343.36 L1753.36,1344.19 L1751.74,1344.55 L1750.43,1343.95 L1748.53,1344.67 L1746.15,1345.5 L1744.13,1345.66 L1744.88,1348.52 L1743.93,1349.95 L1743.5,1351.03 L1743.3,1353.65 L1741.32,1356.43 L1742.43,1356.63 L1746.03,1356.59 L1747.58,1356.51 L1748.33,1358.3 L1750.43,1357.11 L1753.04,1356.39 L1755.66,1354.44 L1757.04,1353.85 L1758.87,1353.69 L1760.05,1353.97 L1761.92,1354.64 L1763.9,1352.89 L1765.52,1352.58 L1767.03,1352.7 L1770.47,1354.84 L1773.09,1355.32 L1777.05,1354.4 L1778.24,1353.89 L1780.89,1354.68 L1783.58,1354.32 L1784.77,1354.32 L1785.76,1355.08 L1787.11,1355.72 L1789.09,1355.83 L1791.39,1354.44 L1792.02,1355.56 L1793.25,1355.32 L1795.82,1355.28 L1794.91,1352.1 L1795.11,1350.55 L1796.54,1349.16 L1797.8,1348.8 L1798.83,1348.25 L1800.89,1347.81 L1802.64,1349.28 L1805.96,1350.59 L1806.68,1352.58 L1806.56,1354.32 L1806.36,1357.7 L1806.16,1359.85 L1807.55,1359.73 L1808.34,1361.56 L1809.33,1362.87 L1811.82,1362.75 L1812.97,1365.17 L1816.14,1364.66 L1817.96,1364.97 L1819.07,1365.33 L1819.87,1366.32 L1821.17,1369.07 L1822.44,1370.14 L1823.03,1372.56 L1823.39,1375.94 L1823.83,1380.47 L1821.73,1384.52 L1819.98,1386.87 L1820.42,1389.69 L1820.5,1392.16 L1822.56,1394.86 L1824.54,1397.72 L1824.97,1399.19 L1825.69,1401.46 L1824.86,1404.36 L1824.02,1406.3 L1824.46,1409.84 L1826.12,1413.42 L1825.53,1416.2 L1821.92,1417.16 L1821.29,1419.06 L1819.83,1421.69 L1822.24,1424.11 L1822.8,1426.18 L1820.26,1428.64 L1817.88,1429.6 L1817.85,1432.38 L1819.15,1434.25 L1823.35,1436.08 L1826.72,1436.95 L1829.85,1436.43 L1832.54,1435.56 L1835.75,1436.2 L1835.63,1438.26 L1835.31,1439.81 L1832.98,1442.16 L1833.02,1445.58 L1833.85,1449.28 L1835.71,1451.94 L1837.25,1454.01 L1837.93,1455.2 L1839.23,1456.35 L1841.02,1457.31 L1841.97,1458.38 L1842.84,1459.41 L1844.07,1458.86 L1847,1458.38 L1850.17,1454.8 L1854.36,1457.66 L1855.91,1457.98 L1856.23,1459.1 L1853.26,1460.49 L1850.64,1462.36 L1850.32,1464.15 L1850.05,1470.63 L1850.92,1472.57 L1852.62,1473.05 L1860.07,1471.62 L1863.12,1471.94 L1865.5,1471.7 L1866.64,1472.3 L1870.01,1476.35 L1871.63,1479.18 L1873.97,1481.4 L1876.63,1482.64 L1877.89,1483.39 L1881.06,1484.15 L1883.52,1485.66 L1886.33,1486.93 L1887.99,1486.57 L1889.82,1485.38 L1891.28,1484.78 L1892.47,1484.78 L1898.37,1485.98 L1899.96,1485.46 L1901.9,1484.58 L1902.85,1483.51 L1903.44,1482.24 L1903.44,1480.77 L1903.08,1479.22 L1903.44,1477.11 L1904.27,1476.11 L1905.54,1475.36 L1909.14,1475.12 L1913.15,1473.77 L1915.44,1471.74 L1916.87,1470.27 L1918.89,1467.13 L1920.99,1465.22 L1922.18,1463.35 L1923.88,1462.24 L1925.66,1461.56 L1927.64,1461.04 L1929.31,1460.69 L1930.45,1460.17 L1933.35,1457.98 L1934.65,1456.75 L1937.39,1454.92 L1941.11,1453.61 L1944.75,1452.77 L1946.5,1451.82 L1948.67,1451.02 L1952.2,1449.28 L1953.47,1448.96 L1955.01,1448.72 L1956.68,1448.2 L1959.53,1444.15 L1960.52,1443.43 L1962.82,1442.24 L1964.32,1441.8 L1965.51,1441.88 L1966.66,1442 L1969.39,1442.16 L1971.57,1442.28 L1973.39,1443.11 L1975.29,1444.58 L1977.04,1444.54 L1979.97,1442.8 L1981.31,1440.29 L1981.55,1436.39 L1984.72,1435.2 L1989.27,1435.2 L1991.93,1435.08 L1992.8,1433.33 L1995.22,1433.02 L1994.27,1431.11 L1991.26,1428.64 L1992.4,1426.5 L1998.19,1428.72 L2000.01,1429.36 L2002.66,1428.05 L2006.62,1428.72 L2006.43,1426.97 L2005.28,1425.62 L2003.77,1422.88 L2005.59,1421.45 L2006.82,1420.61 L2012.45,1417.16 L2014.7,1415.68 L2018.35,1415.01 L2019.77,1414.53 L2023.58,1414.33 L2025.16,1414.09 L2026.43,1413.26 L2027.34,1412.27 L2029.72,1410.68 L2030.19,1408.93 L2029.91,1407.18 L2027.66,1404.67 L2026.43,1403.56 L2025.04,1403.12 L2022.74,1403.2 L2022.47,1400.78 L2021.44,1399.07 L2019.77,1399.35 L2018.35,1399.15 L2017.87,1398.04 L2018.19,1396.65 L2018.66,1395.53 L2019.73,1394.46 L2022.59,1392.55 L2024.76,1391.24 L2027.5,1390.13 L2029.83,1388.86 L2030.07,1386.99 L2029.91,1385.16 L2029.52,1381.7 L2029.48,1377.09 L2029.95,1371.77 L2030.47,1368.15 L2030.07,1361 L2031.93,1359.01 L2031.82,1356.99 L2032.13,1354.32 L2032.57,1353.01 L2033.8,1351.03 L2035.78,1348.92 L2036.49,1346.06 L2039.26,1347.61 L2040.81,1347.73 L2043.42,1349.12 L2046.27,1350.11 L2048.57,1350.55 L2050.23,1350.47 L2051.66,1348.8 L2050.99,1347.09 L2049.12,1346.26 L2049.36,1344.95 L2051.18,1342.68 L2051.94,1341.05 L2051.94,1338.91 L2049.92,1335.21 L2049.68,1332.87 L2050.79,1330.13 L2052.25,1328.58 L2053.36,1328.06 L2055.34,1327.19 L2060.53,1326.39 L2063.58,1327.71 L2066.24,1327.43 L2067.82,1327.75 L2070.28,1329.49 L2075.54,1332.67 L2081.21,1334.78 L2082.28,1334.02 L2084.14,1332.71 L2085.6,1333.11 L2087.47,1334.86 L2089.09,1336.6 L2092.38,1333.86 L2093.45,1333.31 L2094.87,1332.87 L2096.02,1332.59 L2099.39,1332.67 L2102.48,1332.99 L2102.56,1331.28 L2102.16,1330.01 L2103.03,1329.02 L2104.54,1328.14 L2105.65,1326.87 L2106.64,1325.32 L2108.26,1322.42 L2108.5,1321.11 L2107.63,1319.24 L2106.28,1318.53 L2104.46,1317.81 L2106.16,1316.5 L2107.47,1315.87 L2108.38,1313.92 L2108.9,1312.65 L2108.82,1310.35 L2108.02,1306.85 L2109.05,1300.3 L2108.74,1299.15 L2108.38,1297.83 L2109.17,1294.86 L2110.76,1293.35 L2117.33,1292.67 L2120.5,1291.24 L2121.65,1290.53 L2122.84,1290.09 L2130.8,1292.11 L2132.82,1291.68 L2133.57,1290.68 L2135.35,1289.41 L2137.1,1289.81 L2138.84,1290.09 L2140.66,1290.05 L2143.67,1290.57 L2145.26,1290.8 L2148.23,1290.84 L2151.67,1290.72 L2154.41,1289.69 L2156.27,1289.73 L2159.08,1290.37 L2162.13,1291.8 L2165.73,1294.14 L2168.07,1297 L2171.28,1299.18 L2172.59,1299.38 L2174.73,1299.74 L2178.01,1299.03 L2180.67,1297.44 L2182.29,1295.89 L2183.64,1294.1 L2183.84,1291.52 L2182.73,1289.97 L2179.16,1288.86 L2177.93,1287.31 L2178.01,1285.64 L2178.89,1283.93 L2181.14,1281.23 L2184.15,1279.05 L2186.05,1277.66 L2188.75,1275.12 L2191.4,1273.45 L2192.91,1272.81 L2195.01,1273.89 L2196.91,1275.32 L2197.66,1276.55 L2197.78,1280.28 L2199.09,1283.06 L2200.31,1283.26 L2202.45,1282.34 L2203.8,1281.47 L2206.22,1280.68 L2207.84,1280.52 L2209.07,1280.64 L2210.49,1280.8 L2214.41,1280.6 L2217.27,1280.08 L2221.94,1279.72 L2228.52,1280.8 L2232.04,1281.39 L2233.47,1280.95 L2235.96,1279.72 L2237.71,1278.93 L2238.85,1278.61 L2241.39,1278.49 L2246.7,1278.73 L2250.26,1279.21 L2251.41,1279.49 L2253.31,1281.15 L2255.17,1283.97 L2256.48,1286.67 L2257.35,1287.55 L2258.58,1287.51 L2259.97,1286.44 L2260.72,1285.12 L2261.83,1284.53 L2265,1285.64 L2266.78,1286.87 L2267.77,1288.06 L2268.44,1289.53 L2269.95,1290.61 L2271.29,1291.56 L2272.8,1292.23 L2275.06,1291.72 L2277.39,1292.15 L2279.61,1292.43 L2280.21,1291 L2280.05,1288.98 L2281.91,1287.11 L2285.71,1288.1 L2287.14,1287.55 L2288.25,1285.2 L2289,1283.89 L2290.62,1282.9 L2292.21,1282.7 L2294.5,1282.11 L2297.08,1282.78 L2300.84,1282.94 L2303.02,1282.66 L2303.93,1281.35 L2305.32,1280.91 L2307.5,1281.35 L2309.79,1282.27 L2312.45,1283.14 L2314.98,1284.13 L2316.25,1284.09 L2319.02,1282.66 L2320.57,1280.91 L2321.95,1278.77 L2324.73,1277.06 L2325.12,1275.91 L2325.72,1273.61 L2325,1272.34 L2325.92,1269.08 L2327.82,1267.97 L2329.99,1267.13 L2331.3,1267.13 L2333.24,1267.61 L2337.88,1266.22 L2341.28,1266.02 L2343.98,1266.42 L2345.01,1267.41 L2346.39,1267.85 L2347.19,1266.3 L2349.88,1266.74 L2351.34,1265.98 L2353.21,1265.47 L2355.15,1265.9 L2356.26,1265.47 L2357.8,1264 L2359.54,1263.28 L2361.76,1263.4 L2363.27,1262.85 L2365.6,1262.57 L2368.3,1260.38 L2370.75,1257.96 L2371.9,1257.25 L2374.2,1256.25 L2377.05,1256.77 L2378.64,1256.57 L2379.39,1255.34 L2380.81,1252.48 L2383.07,1251.17 L2384.77,1250.73 L2386.36,1250.54 L2389.05,1251.09 L2390.4,1250.77 L2392.1,1250.3 L2392.93,1249.42 L2393.81,1246.96 L2394.52,1245.93 L2397.53,1244.06 L2398.99,1244.5 L2399.39,1246.13 L2399.98,1247.24 L2401.53,1247.64 L2403.11,1249.54 L2403.83,1250.42 L2405.41,1249.38 L2406.64,1248.07 L2407.87,1247.36 L2409.73,1246.8 L2411.39,1246.33 L2412.78,1246.21 L2414.72,1246.33 L2416.7,1245.49 L2419.24,1244.34 L2421.53,1241.92 L2422.76,1240.93 L2424.31,1240.17 L2425.85,1238.43 L2427,1237.04 L2428.03,1234.57 L2428.98,1232.63 L2430.84,1231.16 L2431.32,1230.01 L2432.86,1229.13 L2434.37,1228.9 L2436.19,1229.21 L2438.17,1229.21 L2440.15,1228.74 L2441.73,1227.86 L2443.75,1227.98 L2446.17,1229.41 L2447.63,1229.41 L2448.15,1230.44 L2449.93,1230.44 L2451.16,1230.76 L2451.99,1231.64 L2453.62,1231.64 L2455.2,1231.4 L2456.47,1231.95 L2457.81,1230.64 L2463.48,1229.41 L2464.27,1227.31 L2464.94,1226.12 L2466.05,1225.56 L2468.51,1224.85 L2470.53,1224.37 L2468.98,1223.54 L2464.71,1218.02 L2464.35,1215.79 L2465.26,1213.85 L2466.69,1210.48 L2468.23,1210.04 L2469.62,1209.64 L2468.11,1207.5 L2468.35,1206.23 L2469.66,1203.61 L2470.73,1201.9 L2469.54,1201.66 L2467.24,1203.33 L2465.78,1203.77 L2464.51,1203.73 L2462.09,1202.65 L2461.78,1201.23 L2461.97,1200.03 L2463.48,1197.57 L2465.7,1196.07 L2466.77,1193.29 L2467.2,1191.26 L2468.67,1187.29 L2468.35,1183.88 L2468.94,1182.01 L2470.17,1180.35 L2472.03,1180.23 L2472.51,1178.72 L2473.26,1176.97 L2473.14,1174.91 L2474.37,1173.76 L2475.8,1172.69 L2475.12,1171.14 L2475.76,1169.51 L2476.39,1168.4 L2476.99,1167.33 L2477.3,1166.18 L2477.78,1164.91 L2478.97,1164.23 L2479.48,1163.2 L2478.81,1161.77 L2479.48,1160.62 L2480.83,1159.51 L2482.13,1158.99 L2483.24,1159.27 L2484.51,1159.19 L2486.65,1158 L2488.04,1155.9 L2491.21,1153 L2493.3,1153.72 L2495.05,1153.12 L2496.83,1149.55 L2499.88,1150.86 L2501.19,1151.97 L2501.7,1153.12 L2501.5,1154.75 L2502.73,1156.41 L2503.56,1157.17 L2504.99,1157.17 L2506.65,1157.76 L2508,1157.45 L2510.81,1156.57 L2512.79,1152.84 L2514.69,1152.01 L2516.4,1151.06 L2517.47,1150.7 L2519.45,1150.5 L2520.32,1149.39 L2522.1,1147.96 L2523.65,1147.68 L2525.86,1147.68 L2526.93,1145.58 L2528.48,1144.55 L2529.98,1144.51 L2531.53,1144.79 L2532.95,1144.79 L2534.5,1144.71 L2536.04,1143.95 L2536.76,1142.13 L2535.57,1139.83 L2535.37,1137.33 L2537.31,1137.21 L2538.93,1137.09 L2540.2,1136.77 L2542.7,1137.33 L2543.33,1135.9 L2543.37,1134.15 L2542.06,1132.61 L2542.06,1130.98 L2543.77,1130.9 L2545.07,1132.29 L2546.42,1132.76 L2547.97,1132.41 L2548.92,1131.06 L2550.03,1130.54 L2551.37,1131.22 L2552.88,1131.65 L2555.21,1129.79 L2556.36,1129.51 L2557.59,1128.8 L2559.65,1127.33 L2561.99,1124.75 L2563.41,1122.76 L2565.24,1122.29 L2566.7,1121.57 L2570.07,1120.3 L2572.84,1119.59 L2576.25,1118.28 L2577.44,1118.68 L2579.93,1118.76 L2581.79,1119.31 L2584.29,1119.75 L2586.39,1120.23 L2588.49,1120.62 L2591.89,1122.53 L2595.7,1123.32 L2597,1125.07 L2597.72,1126.77 L2599.58,1127.25 L2601.32,1126.26 L2603.18,1126.61 L2605.91,1125.15 L2606.67,1123.52 L2612.01,1125.15 L2613.88,1125.3 L2615.62,1125.94 L2617.72,1126.61 L2621.36,1127.01 L2622.23,1127.76 L2623.9,1128.64 L2626.04,1128.95 L2627.9,1129.75 L2629.24,1129.87 L2631.46,1130.3 L2632.97,1130.34 L2634.63,1130.07 L2638.51,1128.8 L2639.74,1128.88 L2641.96,1128.8 L2644.02,1128.6 L2646.95,1127.76 L2648.53,1128.88 L2649.84,1130.94 L2653.21,1133.16 L2655.74,1135.34 L2658.79,1136.89 L2661.01,1137.57 L2663.11,1138.52 L2666.71,1142.53 L2667.55,1143.8 L2668.7,1145.22 L2670.56,1146.41 L2672.1,1147.57 L2673.73,1149.51 L2676.34,1151.02 L2677.65,1151.61 L2679.55,1152.25 L2680.74,1153.12 L2681.13,1155.26 L2679.43,1158.44 L2678.72,1163.56 L2680.02,1164.87 L2680.74,1167.92 L2680.62,1169.51 L2681.17,1171.18 L2683.11,1171.81 L2684.1,1173 L2685.61,1174.75 L2686.88,1176.3 L2688.26,1178.8 L2689.57,1182.09 L2690.6,1183.4 L2692.78,1183.44 L2694.32,1182.89 L2698.76,1179.91 L2700.3,1179.35 L2701.45,1179.28 L2703.75,1180.27 L2705.06,1181.22 L2706.68,1183.32 L2707.55,1184.51 L2708.9,1185.39 L2710.29,1184.95 L2710.32,1183.13 L2712.23,1183.01 L2714.36,1183.09 L2713.77,1185.23 L2715.67,1185.94 L2716.78,1185.11 L2717.85,1182.69 L2719.24,1182.33 L2720.7,1183.64 L2721.77,1184.12 L2724.5,1184.83 L2725.81,1187.37 L2727.67,1186.58 L2728.23,1185.55 L2731.08,1183.01 L2732.86,1183.36 L2734.49,1184.44 L2738.41,1185.43 L2739.79,1186.1 L2740.74,1187.41 L2739.12,1189.16 L2739.12,1190.43 L2739.36,1192.1 L2740.55,1193.41 L2741.22,1194.83 L2741.42,1196.3 L2741.74,1198.17 L2742.41,1200 L2742.8,1201.15 L2743.48,1202.77 L2744.11,1204.48 L2744.94,1205.51 L2745.7,1206.74 L2746.21,1207.89 L2747,1209.36 L2747.95,1211.07 L2748.67,1212.3 L2749.54,1213.65 L2750.69,1214.37 L2751.28,1215.48 L2751.12,1217.14 L2750.69,1219.01 L2749.38,1220.76 L2748.39,1221.99 L2747.68,1223.1 L2746.96,1224.25 L2746.25,1225.48 L2745.34,1227.03 L2744.82,1228.34 L2744.35,1229.77 L2743.68,1231.4 L2743.12,1232.95 L2742.61,1234.45 L2742.29,1235.76 L2742.05,1237.43 L2741.38,1239.34 L2740.39,1240.77 L2738.96,1240.41 L2736.82,1240.73 L2735.24,1242.59 L2736.67,1243.19 L2737.38,1244.26 L2738.25,1245.21 L2740.07,1246.09 L2741.38,1247.44 L2741.18,1249.19 L2740.86,1250.77 L2740.94,1252.16 L2741.3,1253.83 L2741.81,1255.34 L2741.85,1256.53 L2743.24,1257.41 L2743.99,1258.68 L2744.27,1260.26 L2744.71,1261.85 L2744.82,1263.36 L2744.82,1264.59 L2744.82,1265.98 L2744.78,1267.13 L2744.71,1268.33 L2744.27,1270.03 L2743.79,1271.26 L2743.04,1272.61 L2742.25,1274.48 L2741.66,1276.35 L2740.98,1278.17 L2740.23,1280.36 L2739.68,1282.58 L2739.52,1284.33 L2739.36,1285.68 L2739.4,1287.27 L2739.56,1288.94 L2739.4,1290.53 L2738.53,1291.48 L2736.7,1292.04 L2735.67,1293.47 L2736.39,1295.25 L2736.82,1297.72 L2736.9,1299.46 L2736.39,1300.81 L2736.27,1302.6 L2737.58,1304.59 L2738.53,1303.12 L2739.68,1305.18 L2739.99,1307.21 L2740.43,1309.39 L2740.43,1311.38 L2740.43,1313.33 L2740.67,1314.8 L2741.22,1316.23 L2742.25,1317.81 L2743.28,1318.97 L2744.27,1320.67 L2744.67,1322.98 L2744.59,1324.96 L2744.39,1326.28 L2744.15,1327.51 L2744.27,1328.86 L2744.71,1330.13 L2745.46,1331.48 L2745.97,1333.43 L2746.09,1335.33 L2745.89,1337.64 L2745.46,1339.58 L2744.98,1341.49 L2744.78,1343.76 L2744.19,1345.86 L2743.28,1347.49 L2742.8,1348.52 L2742.8,1349.91 L2742.29,1351.42 L2741.81,1353.65 L2741.1,1355.99 L2740.51,1357.82 L2740.11,1359.29 L2739.52,1360.72 L2738.88,1362.59 L2738.88,1363.74 L2739.2,1364.89 L2738.69,1366.48 L2738.41,1367.95 L2738.09,1369.46 L2737.54,1370.78 L2736.78,1371.93 L2735.52,1373.36 L2734.49,1374.55 L2733.38,1375.5 L2731.44,1376.74 L2730.64,1377.65 L2729.89,1378.92 L2729.34,1380.11 L2728.82,1381.66 L2728.66,1382.82 L2729.97,1384.09 L2730.64,1385.28 L2729.54,1385.64 L2728.94,1386.75 L2727.91,1389.02 L2727.04,1391.12 L2726.41,1392.43 L2725.77,1394.06 L2724.66,1396.73 L2724.07,1398.2 L2723.51,1399.59 L2723.08,1401.02 L2722.64,1402.37 L2722.21,1403.68 L2721.81,1404.95 L2721.38,1406.07 L2720.66,1407.5 L2719.83,1409.17 L2719.28,1410.24 L2718.76,1411.39 L2717.93,1412.82 L2716.86,1414.57 L2715.91,1416.4 L2715.24,1418.15 L2714.36,1420.18 L2713.57,1422.12 L2712.74,1423.87 L2712.23,1425.03 L2711.59,1426.62 L2710.92,1428.17 L2710.48,1429.48 L2709.73,1431.39 L2709.06,1433.57 L2708.66,1435.2 L2708.23,1436.63 L2707.91,1438.54 L2707.47,1440.37 L2707.63,1442.56 L2707.75,1444.11 L2708.03,1446.21 L2707.79,1448.48 L2707.43,1450.47 L2706.76,1452.34 L2705.49,1453.89 L2704.46,1454.92 L2703.08,1456.07 L2704.15,1456.79 L2704.62,1458.5 L2703.71,1459.81 L2702.88,1460.65 L2701.89,1461.6 L2701.02,1462.48 L2700.22,1463.39 L2699.59,1464.34 L2698.92,1465.46 L2698.05,1467.09 L2697.45,1468.52 L2696.74,1470.39 L2696.58,1472.69 L2696.46,1474.56 L2696.07,1476.23 L2695.71,1477.9 L2695.04,1479.29 L2694.32,1480.73 L2693.89,1482.79 L2693.85,1484.15 L2694.16,1485.34 L2695.08,1486.21 L2696.03,1486.81 L2697.33,1487.25 L2696.7,1489.2 L2696.03,1490.83 L2695.31,1492.5 L2694.76,1494.17 L2694.6,1495.6 L2694.48,1497.31 L2694.52,1499.22 L2694.6,1500.65 L2695.51,1502.48 L2697.02,1503.35 L2698.24,1503.91 L2698.68,1505.46 L2698.16,1506.93 L2697.45,1508.25 L2696.38,1509.2 L2694.84,1508.96 L2693.17,1508.01 L2691.99,1508.92 L2691.59,1510.35 L2691.15,1511.51 L2690.16,1512.1 L2689.37,1513.26 L2688.38,1514.41" fill-rule="evenodd" vector-effect="none"/>
   <path d="" fill-rule="evenodd" vector-effect="none"/>
   <path d="M2687.75,1516 L2688.38,1514.41 L2690.68,1515.17 L2691.87,1516.28 L2691.91,1517.59 L2691.71,1519.22 L2690.16,1520.74 L2688.5,1520.54 L2687.75,1519.3 L2688.18,1517.59 L2687.75,1516" fill-rule="evenodd" vector-effect="none"/>
   <path d="" fill-rule="evenodd" vector-effect="none"/>
  </g>
  <g stroke-width="1" font-family="MS Shell Dlg 2" transform="matrix(0.999744,0,0,0.999744,0,0)" stroke-opacity="1" stroke-linecap="square" font-weight="400" font-style="normal" stroke-linejoin="bevel" font-size="34.5833" fill="none" stroke="#000000"/>
  <g stroke-width="1" font-family="MS Shell Dlg 2" transform="matrix(11.808,0,0,11.808,0,0)" stroke-opacity="1" stroke-linecap="square" font-weight="400" font-style="normal" stroke-linejoin="bevel" font-size="34.5833" fill="none" stroke="#000000"/>
  <g stroke-width="1" font-family="MS Shell Dlg 2" transform="matrix(11.808,0,0,11.808,0,0)" stroke-opacity="1" stroke-linecap="square" font-weight="400" font-style="normal" stroke-linejoin="bevel" font-size="34.5833" fill="none" stroke="#000000"/>
  <g stroke-width="1" font-family="MS Shell Dlg 2" transform="matrix(11.808,0,0,11.808,0,0)" stroke-opacity="1" stroke-linecap="square" font-weight="400" font-style="normal" stroke-linejoin="bevel" font-size="34.5833" fill="none" stroke="#000000"/>
  <g stroke-width="1" font-family="MS Shell Dlg 2" transform="matrix(1,0,0,1,0,0)" stroke-opacity="1" stroke-linecap="square" font-weight="400" font-style="normal" stroke-linejoin="bevel" font-size="34.5833" fill="none" stroke="#000000"/>
  <g stroke-width="1" font-family="MS Shell Dlg 2" transform="matrix(11.808,0,0,11.808,0,0)" stroke-opacity="1" stroke-linecap="square" font-weight="400" font-style="normal" stroke-linejoin="bevel" font-size="34.5833" fill="none" stroke="#000000"/>
  <g stroke-width="1" font-family="MS Shell Dlg 2" transform="matrix(11.808,0,0,11.808,0,0)" stroke-opacity="1" stroke-linecap="square" font-weight="400" font-style="normal" stroke-linejoin="bevel" font-size="34.5833" fill="none" stroke="#000000"/>
  <g stroke-width="1" font-family="MS Shell Dlg 2" transform="matrix(11.808,0,0,11.808,0,0)" stroke-opacity="1" stroke-linecap="square" font-weight="400" font-style="normal" stroke-linejoin="bevel" font-size="34.5833" fill="none" stroke="#000000"/>
  <g stroke-width="1" font-family="MS Shell Dlg 2" transform="matrix(11.808,0,0,11.808,0,0)" stroke-opacity="1" stroke-linecap="square" font-weight="400" font-style="normal" stroke-linejoin="bevel" font-size="34.5833" fill="none" stroke="#000000"/>
  <g stroke-width="1" font-family="MS Shell Dlg 2" transform="matrix(1,0,0,1,0,0)" stroke-opacity="1" stroke-linecap="square" font-weight="400" font-style="normal" stroke-linejoin="bevel" font-size="34.5833" fill="none" stroke="#000000"/>
 </g>
</svg>
