<?xml version='1.0' encoding='UTF-8' standalone='no'?>
<svg xmlns="http://www.w3.org/2000/svg" height="249.936mm" version="1.2" baseProfile="tiny" viewBox="0 0 2952 2952" width="249.936mm" xmlns:xlink="http://www.w3.org/1999/xlink">
 <title>Qt SVG Document</title>
 <desc>Generated with Qt</desc>
 <defs/>
 <g stroke-width="1" stroke-linecap="square" stroke-linejoin="bevel" fill-rule="evenodd" fill="none" stroke="black">
  <g stroke-width="1" font-family="MS Shell Dlg 2" transform="matrix(1,0,0,1,0,0)" stroke-opacity="1" stroke-linecap="square" font-weight="400" font-style="normal" stroke-linejoin="bevel" font-size="34.5833" fill="none" stroke="#000000"/>
  <g stroke-width="1" font-family="MS Shell Dlg 2" transform="matrix(1,0,0,1,0,0)" stroke-opacity="1" stroke-linecap="square" font-weight="400" font-style="normal" stroke-linejoin="bevel" font-size="34.5833" fill="none" stroke="#000000"/>
  <g stroke-width="1" font-family="MS Shell Dlg 2" transform="matrix(11.808,0,0,11.808,0,0)" stroke-opacity="1" stroke-linecap="square" font-weight="400" font-style="normal" stroke-linejoin="bevel" font-size="34.5833" fill="none" stroke="#000000"/>
  <g stroke-width="1" font-family="MS Shell Dlg 2" transform="matrix(0.999744,0,0,0.999744,0,0)" stroke-opacity="1" stroke-linecap="square" font-weight="400" font-style="normal" stroke-linejoin="bevel" font-size="34.5833" fill="none" stroke="#000000"/>
  <g font-family="MS Shell Dlg 2" transform="matrix(0.999744,0,0,0.999744,0,0)" fill-opacity="0" font-weight="400" font-style="normal" font-size="34.5833" fill="#ffffff" stroke="none">
   <path d="M-2,-2 L2955,-2 L2955,2955 L-2,2955 L-2,-2" fill-rule="evenodd" vector-effect="none"/>
  </g>
  <g stroke-width="1" font-family="MS Shell Dlg 2" transform="matrix(0.999744,0,0,0.999744,0,0)" stroke-opacity="1" stroke-linecap="square" font-weight="400" font-style="normal" stroke-linejoin="bevel" font-size="34.5833" fill="none" stroke="#000000"/>
  <g stroke-width="1" font-family="MS Shell Dlg 2" transform="matrix(11.808,0,0,11.808,0,0)" stroke-opacity="1" stroke-linecap="square" font-weight="400" font-style="normal" stroke-linejoin="bevel" font-size="34.5833" fill="none" stroke="#000000"/>
  <g stroke-width="1" font-family="MS Shell Dlg 2" transform="matrix(11.808,0,0,11.808,0,0)" stroke-opacity="1" stroke-linecap="square" font-weight="400" font-style="normal" stroke-linejoin="bevel" font-size="34.5833" fill="none" stroke="#000000"/>
  <g stroke-width="1" font-family="MS Shell Dlg 2" transform="matrix(11.808,0,0,11.808,0,0)" stroke-opacity="1" stroke-linecap="square" font-weight="400" font-style="normal" stroke-linejoin="bevel" font-size="34.5833" fill="none" stroke="#000000"/>
  <g stroke-width="1" font-family="MS Shell Dlg 2" transform="matrix(11.808,0,0,11.808,0,0)" stroke-opacity="1" stroke-linecap="square" font-weight="400" font-style="normal" stroke-linejoin="bevel" font-size="34.5833" fill="none" stroke="#000000"/>
  <g stroke-width="1" font-family="MS Shell Dlg 2" transform="matrix(11.808,0,0,11.808,0,0)" stroke-opacity="1" stroke-linecap="square" font-weight="400" font-style="normal" stroke-linejoin="bevel" font-size="34.5833" fill="none" stroke="#000000"/>
  <g font-family="MS Shell Dlg 2" transform="matrix(11.808,0,0,11.808,0,0)" fill-opacity="0" font-weight="400" font-style="normal" font-size="34.5833" fill="#ffffff" stroke="none">
   <path d="M0,0 L250,0 L250,250 L0,250 L0,0" fill-rule="evenodd" vector-effect="none"/>
  </g>
  <g stroke-width="1" font-family="MS Shell Dlg 2" transform="matrix(11.808,0,0,11.808,0,0)" stroke-opacity="1" stroke-linecap="square" font-weight="400" font-style="normal" stroke-linejoin="bevel" font-size="34.5833" fill="none" stroke="#000000"/>
  <g stroke-width="1" font-family="MS Shell Dlg 2" transform="matrix(11.808,0,0,11.808,0,0)" stroke-opacity="1" stroke-linecap="square" font-weight="400" font-style="normal" stroke-linejoin="bevel" font-size="34.5833" fill="none" stroke="#000000"/>
  <g font-family="MS Shell Dlg 2" transform="matrix(0.999744,0,0,0.999744,0,0)" fill-opacity="0" font-weight="400" font-style="normal" font-size="34.5833" fill="#000000" stroke="none">
   <rect height="2953" y="0" x="0" width="2953"/>
  </g>
  <g stroke-width="1" font-family="MS Shell Dlg 2" transform="matrix(0.999744,0,0,0.999744,0,0)" stroke-opacity="1" stroke-linecap="square" font-weight="400" font-style="normal" stroke-linejoin="bevel" font-size="34.5833" fill="none" stroke="#000000"/>
  <g stroke-width="3.07087" font-family="MS Shell Dlg 2" transform="matrix(0.999744,0,0,0.999744,0,0)" fill-opacity="1" stroke-opacity="1" stroke-linecap="square" font-weight="400" font-style="normal" stroke-linejoin="bevel" font-size="34.5833" fill="#c5c5c5" stroke="#5c5c5c">
   <path d="M1904.12,172.755 L1904.56,173.774 L1905.09,174.946 L1905.64,176.057 L1906.2,176.922 L1906.64,177.755 L1907.23,178.743 L1907.97,179.73 L1908.78,180.687 L1909.46,181.52 L1910.3,182.323 L1911.01,183.002 L1912.04,183.928 L1913.22,185.039 L1913.93,185.564 L1914.77,186.15 L1915.7,186.736 L1916.51,187.169 L1917.5,187.446 L1918.62,187.508 L1919.39,187.076 L1919.83,185.996 L1920.76,186.49 L1921.78,187.57 L1923.12,188.774 L1924.67,190.255 L1926.19,191.613 L1927.06,192.447 L1927.74,193.126 L1928.61,193.99 L1929.64,194.854 L1930.81,195.903 L1931.68,196.644 L1932.8,197.57 L1934.23,198.774 L1935.13,199.546 L1936.25,200.317 L1937.11,200.842 L1938.48,201.706 L1939.85,202.354 L1941.65,202.941 L1943.07,203.404 L1943.97,203.713 L1944.75,204.515 L1945.25,205.842 L1946.55,207.324 L1947.32,208.157 L1948.26,209.083 L1949.09,209.886 L1950.03,210.719 L1951.27,211.645 L1952.26,212.201 L1953.16,212.849 L1954.28,213.405 L1955.18,213.899 L1956.33,214.639 L1958.28,215.442 L1959.34,215.874 L1960.86,216.522 L1962.25,217.109 L1963.28,217.387 L1964.27,217.572 L1965.26,217.726 L1966.72,217.726 L1967.87,217.294 L1969.02,216.553 L1970.32,216.553 L1971.32,216.214 L1972.43,215.936 L1973.15,215.01 L1974.14,215.411 L1975.04,215.843 L1976.5,216.43 L1977.68,217.016 L1978.83,217.664 L1979.97,218.313 L1980.87,218.683 L1981.87,218.93 L1982.74,219.115 L1984.13,219.115 L1985.31,219.177 L1986.34,219.331 L1987.79,219.331 L1988.94,218.899 L1989.97,218.004 L1990.74,217.572 L1991.77,217.016 L1992.85,216.09 L1993.97,215.596 L1995.27,215.318 L1996.55,215.071 L1997.76,214.485 L1999.06,214.917 L2000.18,215.442 L2001.73,215.751 L2005.08,216.028 L2006.2,216.769 L2007.56,217.633 L2009.36,217.973 L2010.2,217.633 L2011.23,217.633 L2012.47,218.066 L2013.74,218.467 L2014.83,218.652 L2015.79,218.745 L2017.15,218.683 L2018.77,218.313 L2020.01,217.757 L2021.22,217.633 L2022.55,217.109 L2024.2,217.633 L2025.25,218.096 L2026.34,218.837 L2027.3,219.671 L2028.17,220.103 L2029.51,220.72 L2030.56,221.245 L2032.08,221.214 L2033.54,221.307 L2034.56,222.017 L2035.71,222.264 L2037.95,222.788 L2038.82,223.097 L2040.49,224.023 L2041.98,223.714 L2043.1,223.437 L2044.28,223.128 L2046.23,222.325 L2046.42,223.467 L2046.79,226.894 L2046.85,228.129 L2046.61,229.271 L2046.54,231.709 L2047.04,233.345 L2048.5,234.734 L2050.05,235.414 L2052.84,236.525 L2054.15,236.71 L2055.95,236.772 L2059.55,236.618 L2061.1,237.111 L2062.37,237.698 L2062.46,239.828 L2062.65,240.847 L2063.27,242.483 L2064.11,243.995 L2064.95,245.323 L2065.85,246.743 L2066.41,247.422 L2066.44,248.471 L2066.53,249.83 L2066.72,251.342 L2067.31,253.164 L2067.99,253.936 L2069.32,254.707 L2068.86,255.911 L2067.55,256.127 L2067.71,257.239 L2067.65,258.258 L2067.03,259.492 L2066.75,260.419 L2065.97,261.036 L2065.41,261.808 L2065.48,263.259 L2066.06,265.08 L2065.82,266.408 L2065.91,267.612 L2066.84,268.847 L2066.5,269.896 L2067.12,270.73 L2067.06,272.273 L2067.06,273.323 L2066.31,273.848 L2065.51,274.496 L2064.2,274.898 L2063.18,276.102 L2062.31,277.336 L2061.04,277.583 L2059.58,277.985 L2058.21,278.232 L2058.43,279.621 L2058.03,280.486 L2057.65,281.659 L2056.48,282.678 L2055.51,283.017 L2055.17,284.067 L2054.15,284.684 L2053.87,285.58 L2053.15,286.444 L2052.01,286.969 L2051.17,287.741 L2049.93,288.605 L2049.09,289.933 L2047.79,291.075 L2047.44,292.526 L2046.36,294.039 L2045.99,295.058 L2044.99,296.046 L2045.24,297.405 L2045.43,299.01 L2045.33,300.461 L2046.26,301.634 L2034.5,322.044 L2026.37,335.723 L2025.32,337.545 L2023.76,340.849 L2023.7,342.485 L2022.83,344.122 L2022.15,345.203 L2022.9,346.839 L2022.93,347.735 L2022.12,348.692 L2019.64,350.391 L2018.46,351.78 L2017.87,354.405 L2017.53,355.455 L2016.81,356.906 L2015.04,359.099 L2014.95,360.211 L2016.04,360.983 L2017.87,360.334 L2021.1,358.45 L2022.21,359.531 L2022.06,360.859 L2022.68,362.527 L2022.58,364.009 L2022.68,365.893 L2024.23,365.43 L2025.13,365.924 L2025.94,366.634 L2026.37,367.684 L2026.53,368.858 L2026.46,370.711 L2026.18,372.008 L2026.37,372.872 L2027.15,372.286 L2027.8,371.421 L2028.95,370.556 L2030.31,369.784 L2031.65,369.475 L2032.55,369.197 L2033.66,369.352 L2034.01,368.24 L2034.78,367.406 L2035.62,367.036 L2036.49,366.634 L2037.42,366.387 L2038.6,365.8 L2039.41,366.233 L2045.86,365.769 L2045.64,378.246 L2044.96,384.392 L2047.23,396.004 L2050.11,397.456 L2052.04,398.506 L2050.64,399.278 L2049.71,399.494 L2048.78,399.865 L2046.67,400.699 L2046.02,401.903 L2045.3,403.726 L2044.99,407.123 L2045.12,408.39 L2045.12,409.409 L2044.9,410.521 L2045.33,411.88 L2044.9,412.868 L2043.63,413.764 L2043.5,415.215 L2041.52,417.717 L2039.84,417.872 L2038.69,417.717 L2037.76,417.625 L2036.83,418.212 L2035.9,418.582 L2034.44,418.675 L2033.32,418.891 L2032.45,419.91 L2031.74,420.713 L2031.21,421.918 L2031.31,423.71 L2032.21,425.223 L2034.07,426.675 L2035.81,427.354 L2038.38,427.694 L2039.56,428.621 L2043.6,439.494 L2043.53,441.811 L2043.1,444.344 L2042.63,446.938 L2041.73,449.163 L2041.36,451.479 L2040.93,452.653 L2041.02,453.858 L2040.83,454.816 L2039.93,455.557 L2040.37,456.824 L2042.51,457.627 L2043.44,458.368 L2044.71,458.708 L2046.61,458.801 L2048.06,458.615 L2051.26,458.183 L2053.37,458.893 L2056.2,459.573 L2057.41,460.16 L2058.55,461.797 L2059.73,462.971 L2062.06,463.774 L2066.28,463.836 L2067.18,463.744 L2068.77,464.794 L2069.98,465.968 L2071.4,466.122 L2072.12,466.678 L2072.52,467.914 L2072.27,469.026 L2069.7,469.582 L2068.08,470.077 L2066.53,472.023 L2066.19,472.888 L2065.72,474.927 L2065.32,477.028 L2065.26,478.789 L2065.38,480.519 L2065.57,482.033 L2067.31,484.442 L2067.55,485.555 L2064.95,490.189 L2064.26,491.023 L2062.4,492.691 L2060.91,494.36 L2059.39,495.349 L2056.48,498.253 L2055.08,499.365 L2053.71,500.817 L2053.37,501.713 L2054.74,502.826 L2055.64,501.621 L2056.63,501.528 L2057.22,500.57 L2058.03,501.497 L2058.9,501.93 L2060.17,501.342 L2061.01,502.98 L2061.25,504.401 L2062.22,505.112 L2062.22,506.626 L2063.02,507.615 L2063.24,508.603 L2062.5,510.086 L2063.52,512.404 L2065.57,513.547 L2065.97,515.123 L2067.18,516.143 L2067.74,517.1 L2069.76,519.387 L2070.47,522.477 L2070.29,523.682 L2071.4,524.702 L2072.24,525.629 L2073.3,526.37 L2074.13,527.823 L2075.28,528.255 L2075.72,529.368 L2078.08,537.402 L2075.78,545.529 L2074.51,545.158 L2073.82,545.9 L2072.43,547.229 L2072.21,548.156 L2071.68,549.114 L2070.72,549.114 L2070.57,550.381 L2070.22,551.493 L2069.26,552.173 L2069.63,553.378 L2069.67,554.398 L2069.76,555.542 L2070.13,556.654 L2070.32,557.519 L2071.12,558.508 L2072.18,560.301 L2070.66,561.877 L2068.83,563.638 L2067.71,563.793 L2067.12,564.596 L2066.93,565.864 L2067.37,566.914 L2068.52,567.131 L2071.84,564.998 L2074.75,564.349 L2076.06,563.886 L2077.39,563.978 L2080,562.897 L2081.3,563.329 L2082.48,562.958 L2083.57,562.124 L2084.78,561.104 L2085.65,561.691 L2086.92,561.444 L2087.88,560.888 L2088.84,560.764 L2089.87,560.981 L2089.37,562.989 L2090.18,563.824 L2091.76,564.318 L2093.1,565.462 L2094,565.678 L2095.67,565.276 L2096.79,565.245 L2098.87,566.234 L2101.97,566.822 L2104.89,566.296 L2106.01,566.389 L2108.68,566.791 L2111.16,568.151 L2111.5,569.109 L2111.31,569.974 L2111.16,571.148 L2110.29,572.168 L2107.19,574.239 L2106.78,575.506 L2108.65,578.071 L2108.49,579.308 L2106.78,583.294 L2106.69,584.562 L2106.41,585.52 L2104.7,587.9 L2103.87,591.578 L2103.68,592.567 L2102.41,593.803 L2104.73,596.121 L2106.66,598.501 L2107.53,600.232 L2107.22,601.685 L2107.43,602.952 L2108.15,604.065 L2108.89,605.085 L2109.79,606.569 L2111.9,607.001 L2113.61,607.867 L2116.31,608.207 L2117.3,607.99 L2118.2,608.083 L2115.72,611.36 L2104.21,627.65 L2109.33,650.434 L2109.36,652.196 L2109.76,653.649 L2109.27,656.123 L2109.11,657.606 L2107.19,659.214 L2104.98,660.822 L2104.3,661.595 L2104.05,663.172 L2102.5,664.779 L2102.31,666.418 L2101.35,667.345 L2100.92,668.118 L2100.17,669.139 L2099.58,670.004 L2099.15,671.21 L2097.16,672.787 L2096.48,675.57 L2097.07,676.652 L2097.22,679.991 L2096.91,681.29 L2096.88,682.372 L2096.39,683.733 L2095.55,684.969 L2095.18,686.083 L2093.28,688.896 L2091.95,691.37 L2091.42,692.205 L2091.61,693.442 L2091.95,694.771 L2091.42,696.503 L2091.05,697.462 L2091.3,698.884 L2091.33,700.337 L2090.27,702.749 L2089.09,704.512 L2088.07,705.718 L2087.7,706.862 L2087.98,709.862 L2087.73,712.397 L2087.2,714.81 L2086.45,716.016 L2085.59,716.696 L2085,717.469 L2083.41,718.551 L2082.42,721.458 L2082.2,723.252 L2081.89,724.798 L2080.53,725.603 L2079.84,726.778 L2079.32,728.417 L2077.61,730.891 L2076.15,731.324 L2074.51,731.386 L2073.02,731.633 L2071.43,731.417 L2071.84,732.654 L2072.92,732.839 L2073.58,733.52 L2076.21,733.427 L2077.61,734.664 L2077.67,735.994 L2077.18,737.788 L2076.03,740.138 L2074.69,742.056 L2074.01,744.035 L2075.03,746.788 L2076.4,747.468 L2077.08,748.272 L2078.98,749.881 L2082.05,751.489 L2083.44,752.757 L2084.56,754.582 L2085.83,756.036 L2087.36,758.325 L2088.38,759.16 L2088.81,760.119 L2090.74,761.17 L2091.82,761.016 L2092.44,761.913 L2091.73,762.964 L2090.12,763.707 L2088.72,765.501 L2088.07,766.955 L2087.14,767.604 L2086.33,768.501 L2085.31,770.295 L2083.57,772.461 L2079.81,775.801 L2078.79,777.317 L2078.04,777.812 L2076.96,778.338 L2076.31,780.07 L2075.72,780.751 L2074.69,781.431 L2073.79,782.297 L2073.02,784.184 L2073.58,785.948 L2072.33,786.968 L2070.78,787.587 L2070.1,788.391 L2068.83,789.722 L2069.45,790.99 L2071.34,791.98 L2072.46,792.227 L2073.82,793.156 L2076.03,793.743 L2077.7,793.589 L2079.07,793.774 L2080.4,794.115 L2081.77,795.352 L2081.86,796.682 L2081.27,797.672 L2080.06,798.384 L2077.92,799.033 L2077.05,799.745 L2076.55,801.972 L2075.03,803.055 L2074.26,804.2 L2073.92,805.654 L2074.23,806.737 L2073.92,807.881 L2071.56,809.428 L2071.15,810.604 L2070.97,811.563 L2071.74,814.688 L2071.99,818.029 L2072.02,819.948 L2071.34,821.464 L2070.53,822.516 L2068.98,823.97 L2071.68,827.652 L2073.89,829.663 L2075.53,831.303 L2074.17,833.283 L2073.58,834.242 L2073.48,835.511 L2073.79,836.346 L2076.03,839.719 L2077.24,841.947 L2077.42,843.216 L2077.61,845.289 L2078.79,845.877 L2080.87,845.598 L2081.52,846.279 L2081.37,847.857 L2082.54,848.878 L2083.44,849.002 L2084.28,847.548 L2084.69,846.279 L2085.15,845.32 L2086.36,846.001 L2087.45,846.186 L2088.91,847.146 L2089.43,847.981 L2090.52,848.786 L2091.39,850.395 L2092.07,851.849 L2093.07,852.87 L2093.9,853.489 L2094.52,854.232 L2095.36,856.367 L2097.44,858.935 L2098.56,860.947 L2099.92,862.309 L2101.29,861.968 L2103.28,859.957 L2104.02,862.711 L2104.39,864.011 L2105.67,865.62 L2108.12,866.889 L2108.77,868.622 L2108.55,869.55 L2108.58,870.51 L2108.99,871.686 L2108.65,872.892 L2107.99,873.728 L2107.62,874.718 L2106.75,876.08 L2106.19,877.07 L2105.48,879.639 L2107.56,879.515 L2110.45,880.073 L2111.72,880.444 L2113.3,881.31 L2114.95,881.094 L2116.4,881.187 L2116.62,883.601 L2118.55,884.313 L2119.1,885.086 L2119.41,886.015 L2119.32,887.377 L2120.44,888.243 L2121.52,889.326 L2121,891.803 L2121.43,892.762 L2123.48,893.288 L2125.16,894.495 L2128.23,895.176 L2130.37,896.507 L2133.01,893.721 L2134.31,892.824 L2136.05,893.102 L2137.17,896.352 L2138.38,898.674 L2139.37,898.333 L2140.15,897.559 L2141.64,897.281 L2142.32,898.302 L2142.75,902.945 L2143.59,903.905 L2144.8,904.648 L2146.41,905.019 L2147.97,906.969 L2149.61,907.464 L2150.6,908.424 L2151.26,911.519 L2152.06,912.2 L2153.89,911.086 L2156.22,910.9 L2157.84,911.272 L2159.48,912.695 L2162.3,916.379 L2165.75,916.224 L2166.77,916.472 L2167.55,916.998 L2168.48,917.834 L2169.5,919.444 L2169.6,921.022 L2169.01,922.384 L2168.05,924.335 L2167.52,926.563 L2168.14,928.266 L2169.54,930.433 L2169.78,931.362 L2169.69,932.755 L2170.53,934.426 L2170.25,935.634 L2169.19,936.501 L2167.77,937.522 L2166.87,938.018 L2164.73,938.389 L2164.88,939.566 L2166.31,939.999 L2167.21,940.587 L2168.2,941.702 L2170.62,943.807 L2171.58,945.819 L2173.91,947.398 L2173.73,948.482 L2171.12,948.729 L2169.91,949.968 L2170.65,952.692 L2170.28,953.9 L2169.26,954.798 L2169.1,956.624 L2170.19,957.894 L2173.45,960.154 L2173.69,961.95 L2173.14,963.962 L2171.74,969.381 L2170.13,970.496 L2167.89,971.672 L2166.87,973.158 L2166.25,976.998 L2166.25,977.958 L2166.77,978.949 L2168.45,981.023 L2170.56,983.315 L2172.17,985.235 L2172.83,986.411 L2173.45,987.898 L2173.88,990.778 L2172.7,992.914 L2171.93,993.596 L2170.81,993.936 L2168.98,994.029 L2167.98,993.936 L2166.59,993.596 L2165.31,993.72 L2164.17,994.896 L2163.86,995.825 L2164.51,998.086 L2165.66,1000.53 L2167.52,1001.93 L2169.66,1002.95 L2170.44,1003.44 L2170.87,1004.25 L2172.42,1008.27 L2172.52,1009.36 L2171.55,1011.4 L2169.69,1013.23 L2168.57,1014.07 L2168.23,1016.05 L2168.42,1017.35 L2167.52,1018.71 L2167.27,1019.89 L2168.39,1021.28 L2168.57,1023.7 L2168.48,1025.03 L2167.64,1025.8 L2166.53,1026.49 L2166.15,1027.45 L2167.12,1029.18 L2167.61,1031.1 L2167.27,1033.95 L2168.57,1036.09 L2169.54,1036.61 L2171.15,1037.88 L2172.61,1039.43 L2173.04,1040.83 L2173.01,1043.83 L2173.45,1045.01 L2173.6,1047.67 L2173.73,1048.85 L2176.21,1052.01 L2176.74,1052.91 L2177.05,1054.15 L2177.14,1055.39 L2176.3,1057.68 L2176.61,1059.38 L2176.52,1060.31 L2175.71,1062.2 L2175.03,1063.53 L2174.56,1064.62 L2174.16,1067.56 L2172.92,1069.02 L2169.78,1069.67 L2168.42,1070.01 L2167.33,1070.72 L2165.75,1071.9 L2165.41,1073.17 L2166.93,1075 L2168.05,1077.16 L2168.57,1079.98 L2168.64,1081.35 L2168.88,1083.02 L2169.85,1084.48 L2171.46,1086.4 L2173.2,1089.4 L2172.95,1091.85 L2172.24,1093.4 L2171.93,1094.98 L2172.02,1096 L2172.36,1097.37 L2174.07,1099.57 L2174.56,1101.39 L2174.5,1106.76 L2175.43,1110.72 L2175.62,1112.86 L2174.66,1120.33 L2175.18,1121.88 L2175.68,1124.98 L2175.71,1127.7 L2176.39,1129.78 L2177.57,1132.17 L2178.88,1135.85 L2179.44,1138.52 L2179.19,1140.1 L2178.19,1141.99 L2178.41,1144.13 L2179.19,1145.28 L2180.99,1147.32 L2182.88,1148.19 L2183.59,1148.87 L2183.78,1150.2 L2183.81,1154.45 L2184.68,1157.86 L2184.71,1160.93 L2185.49,1162.42 L2185.64,1164.09 L2185.58,1166.29 L2185.05,1167.53 L2184.25,1168.83 L2181.95,1170.38 L2181.36,1171.13 L2181.17,1173.3 L2180.65,1175.62 L2179.99,1176.61 L2178.54,1178.5 L2177.51,1179.37 L2176.27,1180.86 L2175.15,1184.67 L2174.94,1185.64 L2175.37,1188.61 L2176.46,1189.57 L2181.98,1189.14 L2183.44,1189.76 L2184.53,1190.38 L2185.74,1191.74 L2187.47,1197.32 L2188.37,1201.76 L2189.49,1204.83 L2190.61,1207.06 L2193.28,1212.67 L2193.99,1214.87 L2194.3,1216.27 L2194.24,1217.29 L2193.18,1220.42 L2192.84,1221.76 L2191.91,1224.58 L2191.91,1226.13 L2192.16,1227.37 L2192.1,1228.67 L2192.16,1229.82 L2192.35,1232.02 L2192.84,1234.41 L2193.81,1237.35 L2192.35,1242.35 L2192.25,1243.71 L2197.75,1250.04 L2198.77,1251.22 L2199.05,1252.08 L2200.07,1253.02 L2201.19,1254.47 L2202.22,1256.21 L2203.18,1258.19 L2204.76,1261.89 L2205.23,1263.41 L2207.34,1265.33 L2210.28,1267.22 L2211.74,1268.4 L2212.52,1268.9 L2212.95,1270.51 L2213.82,1271.56 L2214.07,1272.59 L2214.66,1276.03 L2214.94,1280.56 L2214.82,1281.92 L2214.38,1283.47 L2213.3,1285.21 L2212.05,1288.65 L2211.5,1289.74 L2210.91,1290.67 L2209.91,1291.73 L2208.64,1292.5 L2207.71,1294.11 L2206.87,1296.35 L2208.02,1301.44 L2209.14,1305.13 L2209.57,1306.55 L2209.7,1312.42 L2210.16,1315.4 L2210.38,1316.7 L2209.91,1318.56 L2209.57,1320.39 L2210.16,1323.56 L2211.59,1329.3 L2211.4,1331.13 L2211.03,1332.56 L2210.94,1333.49 L2211.4,1335.29 L2211.93,1336.19 L2212.58,1337.12 L2213.54,1338.3 L2215.41,1340.03 L2222.7,1346.46 L2225.31,1349.81 L2226.42,1351.73 L2227.07,1353.6 L2227.39,1355.67 L2227.45,1357.35 L2228.22,1360.61 L2229,1362.41 L2229.59,1363.19 L2232.69,1366.1 L2232.41,1367.16 L2229.65,1377.77 L2231.45,1380.13 L2234.03,1382.68 L2236.39,1384.14 L2239.36,1384.51 L2247.28,1384.76 L2250.41,1385.04 L2252.28,1384.85 L2254.98,1384.85 L2256.53,1386.28 L2258.23,1388.73 L2260.5,1391.21 L2264.6,1394.26 L2265.47,1394.78 L2267.45,1395.81 L2269.9,1396.52 L2271.02,1396.52 L2272.94,1396.96 L2276.98,1397.2 L2281.45,1397.73 L2282.88,1397.95 L2286.07,1398.57 L2291.13,1399.6 L2296.19,1400.99 L2299.2,1401.33 L2303.86,1401.43 L2308.73,1401.74 L2309.69,1402.36 L2310.28,1405.46 L2311.3,1406.64 L2313.45,1407.73 L2314.1,1408.38 L2314.56,1409.47 L2314.97,1411.11 L2315.83,1416.02 L2316.46,1417.54 L2317.57,1418.47 L2319.53,1419.84 L2320.55,1424.68 L2321.51,1425.89 L2322.6,1426.57 L2324.06,1426.89 L2326.08,1426.82 L2327.41,1426.48 L2331.35,1423.38 L2334.15,1422.01 L2336.1,1421.67 L2338.24,1422.1 L2340.54,1422.72 L2341.78,1423.56 L2341.75,1425.08 L2339.2,1427.41 L2338.34,1428.62 L2337.65,1429.65 L2336.81,1431.7 L2333.59,1433.59 L2331.91,1434.99 L2331.35,1435.98 L2330.33,1438.5 L2329.3,1439.86 L2327.75,1441.04 L2326.29,1441.42 L2323.75,1442.53 L2323.25,1443.65 L2323.31,1446.08 L2323.56,1449.34 L2322.38,1451.39 L2322.13,1452.35 L2322.1,1454.3 L2322.48,1456.29 L2323.13,1457.38 L2324.09,1458.87 L2324.25,1460.64 L2324.93,1464.8 L2323.59,1468.71 L2323.66,1471.88 L2324.15,1474.24 L2323.22,1477.16 L2323.62,1483.19 L2325.27,1483.9 L2327.75,1484 L2329.21,1484.43 L2330.45,1486.14 L2328.56,1487.29 L2324.77,1489.59 L2323.84,1490.02 L2322.04,1489.43 L2320.8,1490.02 L2321.79,1491.82 L2322.72,1492.72 L2323.38,1493.38 L2324.34,1494.15 L2324.06,1495.24 L2323.03,1496.11 L2321.58,1497.17 L2319.19,1499.65 L2318.88,1502.08 L2317.54,1504.13 L2316.08,1506.86 L2314.56,1508.66 L2311.06,1511.92 L2310.78,1513.48 L2306.15,1519.22 L2304.79,1521.59 L2304.94,1522.49 L2306.15,1524.16 L2306.43,1526.09 L2305.56,1529.7 L2302.89,1537.4 L2303.14,1541.47 L2301.19,1543.31 L2300.72,1546.48 L2300.29,1548.31 L2299.7,1550.24 L2298.36,1554.8 L2298.14,1557.48 L2297.4,1559.19 L2296.69,1566.86 L2296.78,1568.54 L2296.87,1570.19 L2297.74,1573.39 L2297.83,1575.01 L2297.93,1578.11 L2297.15,1580.35 L2295.94,1582.15 L2294.33,1583.62 L2290.36,1586.35 L2288.96,1587.72 L2288.62,1589.06 L2289.05,1590.76 L2288.99,1591.85 L2288.37,1596.67 L2286.57,1606.74 L2274.22,1611.56 L2271.24,1612.74 L2258.26,1617.81 L2254.32,1619.37 L2253.08,1621.26 L2252.15,1622.32 L2251.62,1623.1 L2251.06,1624.09 L2249.82,1624.9 L2247.78,1625.46 L2239.05,1626.61 L2237.91,1627.39 L2235.42,1631.74 L2234.83,1634.1 L2234.71,1635.26 L2234.8,1636.37 L2235.24,1638.21 L2236.29,1640.45 L2236.73,1641.63 L2238.19,1645.92 L2239.18,1648.1 L2241.2,1651.86 L2245.35,1658.05 L2246.56,1659.7 L2249.51,1663.06 L2250.2,1663.77 L2251.13,1664.86 L2252.24,1665.55 L2253.86,1666.91 L2254.66,1667.63 L2255.32,1668.31 L2256.62,1669.87 L2259.13,1673.88 L2260.59,1676.81 L2262.27,1680.94 L2262.86,1682.93 L2263.08,1683.9 L2263.48,1685.55 L2263.73,1687.16 L2263.82,1688.16 L2263.76,1689.37 L2263.63,1690.62 L2263.23,1692.98 L2262.95,1694.23 L2262.61,1695.35 L2261.96,1697.65 L2261,1699.73 L2260.06,1701.32 L2259.48,1702.28 L2258.36,1703.59 L2256.96,1704.87 L2255.44,1706.14 L2254.66,1706.7 L2253.76,1707.26 L2252.52,1707.98 L2251.62,1708.72 L2249.92,1710.53 L2248.99,1712.02 L2248.27,1713.33 L2247.78,1714.57 L2247.46,1715.6 L2247.19,1716.81 L2247.09,1718.71 L2247.71,1721.48 L2248.21,1722.45 L2248.83,1723.44 L2250.51,1725.28 L2253.89,1727.86 L2256.56,1729.32 L2258.45,1730.07 L2261.68,1731.1 L2269.22,1733.03 L2277.29,1735.05 L2280.45,1736.2 L2283.25,1738.07 L2284.58,1739.19 L2285.7,1740.4 L2286.85,1741.96 L2287.62,1743.26 L2288.56,1745.41 L2289.05,1747.75 L2289.77,1751.11 L2289.77,1752.48 L2289.77,1753.47 L2289.83,1754.97 L2289.73,1756.43 L2288.71,1760.48 L2288.06,1768.19 L2287.34,1776.04 L2287.5,1778.22 L2287.93,1781.05 L2288.06,1782.7 L2287.97,1783.7 L2287.87,1784.66 L2286.26,1787.9 L2284.8,1790.67 L2282.78,1794.84 L2282.25,1795.87 L2278.1,1805.15 L2276.64,1808.36 L2276.08,1809.6 L2273.04,1816.26 L2270.96,1820.84 L2270.24,1824.08 L2269.59,1825.36 L2270.09,1826.7 L2269.34,1827.97 L2270.03,1828.81 L2270.77,1831.68 L2271.58,1832.43 L2272.39,1833.05 L2273.29,1834.11 L2273.38,1835.79 L2273.63,1838.84 L2271.36,1839.62 L2270.09,1840.87 L2270.24,1842.33 L2269.1,1842.27 L2267.33,1841.33 L2266.09,1841.3 L2265.03,1840.4 L2263.32,1839.5 L2261.62,1839.59 L2260.22,1839.06 L2258.95,1840.28 L2258.61,1841.52 L2257.3,1842.42 L2257.3,1843.98 L2256.81,1844.79 L2255.19,1844.51 L2254.2,1844.79 L2252.4,1844.42 L2249.82,1846.5 L2249.51,1850.27 L2248.95,1851.21 L2247.93,1851.99 L2246.94,1853.45 L2244.36,1854.17 L2243.34,1855.85 L2242.1,1856.72 L2241.26,1858.22 L2239.18,1859 L2238.4,1860.65 L2238.5,1863.29 L2237.84,1864.38 L2237.25,1865.29 L2236.11,1865.75 L2234.93,1865.6 L2233.9,1865.69 L2232.23,1865.26 L2230.18,1865.97 L2229.06,1866.63 L2228.07,1866.75 L2227.45,1867.75 L2226.39,1868.87 L2225.96,1870.27 L2223.72,1870.77 L2222.39,1870.96 L2221.02,1871.36 L2219.72,1871.55 L2218.79,1872.92 L2218.01,1873.36 L2216.9,1873.85 L2214.16,1874.48 L2213.61,1875.19 L2213.45,1877.22 L2214.16,1879.59 L2214.63,1881.58 L2214.32,1882.58 L2215.1,1884.54 L2214.85,1886.13 L2214.16,1886.97 L2214.75,1888.25 L2214.63,1889.84 L2213.54,1890.34 L2212.71,1891.12 L2211.22,1893.27 L2211.06,1894.89 L2209.01,1895.88 L2207.71,1895.94 L2202.71,1895.76 L2202.31,1896.91 L2202.81,1898.34 L2201.53,1900.62 L2201.69,1901.96 L2202.49,1904.05 L2202.49,1905.36 L2202.06,1906.79 L2202.4,1908.5 L2201.19,1909.5 L2200.6,1910.44 L2199.61,1912.12 L2198.49,1912.9 L2197.03,1914.36 L2194.58,1913.77 L2192.87,1914.21 L2191.73,1913.93 L2190.27,1913.77 L2190.7,1912.68 L2189.86,1912.12 L2189.31,1911.12 L2189.09,1909.38 L2187.88,1908.75 L2186.39,1907.16 L2183.22,1907.07 L2180.43,1906.6 L2179.28,1907.16 L2178.19,1910.25 L2179.81,1911.87 L2179.78,1913.24 L2180.55,1914.49 L2180.43,1916.36 L2179.22,1917.51 L2177.6,1918.76 L2176.7,1919.38 L2175.28,1919.72 L2175.18,1920.84 L2176.39,1922.06 L2176.95,1923.09 L2176.7,1925.52 L2176.83,1927.2 L2174.5,1929.04 L2173.04,1931.47 L2171.24,1932.47 L2169.69,1934.5 L2167.98,1933.87 L2166.34,1932.41 L2165.81,1931.47 L2164.88,1930.66 L2161.96,1929.45 L2161.03,1928.32 L2159.57,1927.42 L2159.54,1926.36 L2158.43,1925.96 L2157.31,1925.52 L2157.09,1924.15 L2155.94,1923.49 L2154.83,1922.46 L2152.96,1919.78 L2151.85,1919.66 L2150.48,1920.1 L2146.35,1920.44 L2145.45,1921.69 L2145.55,1922.65 L2145.58,1924.15 L2144.52,1925.49 L2144.12,1926.8 L2143,1927.3 L2141.26,1927.76 L2140.08,1927.98 L2139.31,1928.98 L2135.86,1929.66 L2134.31,1930.23 L2132.7,1932.13 L2131.58,1934.99 L2130.99,1938.92 L2130.46,1940.26 L2130.87,1942.85 L2130.9,1944.19 L2130.21,1945.5 L2128.82,1944.72 L2126.09,1943.69 L2122.67,1942.85 L2121.77,1943.01 L2120.9,1945.25 L2121.03,1946.68 L2120.87,1948.68 L2120.59,1950.39 L2120.16,1951.76 L2119.72,1952.54 L2118.33,1955.35 L2116.99,1956.88 L2115.72,1958.06 L2114.39,1958.28 L2112.77,1961.02 L2111.84,1961.9 L2110.91,1962.33 L2109.92,1963.11 L2106.75,1964.39 L2105.48,1962.74 L2104.64,1961.9 L2103.09,1961.65 L2102.03,1962.15 L2100.23,1961.8 L2100.27,1963.11 L2099.3,1964.14 L2099.06,1965.42 L2099.15,1966.73 L2098.19,1967.54 L2097.66,1969.04 L2097.75,1970 L2095.77,1973.59 L2095.11,1975.74 L2094.68,1976.61 L2093.97,1977.42 L2092.97,1978.23 L2091.33,1978.8 L2090.4,1980.51 L2088.94,1980.36 L2084.38,1980.6 L2083.23,1982.57 L2081.71,1982.94 L2080.5,1983.54 L2081.27,1984.75 L2081.99,1986.09 L2081.77,1987.93 L2082.23,1989.3 L2082.33,1993.02 L2081.18,1995.14 L2079.97,1996.54 L2078.85,1996.98 L2077.73,1997.04 L2076.83,1997.16 L2075.97,1997.51 L2074.26,1997.38 L2072.61,1998.72 L2072.12,1999.72 L2071.15,2000.28 L2069.32,2001 L2068.14,2001.9 L2065.91,2002.09 L2064.05,2001.97 L2063.02,2002.34 L2062.03,2001.97 L2060.23,2001.62 L2056.97,2001.75 L2055.98,2003.34 L2054.64,2004.84 L2053.99,2006.89 L2053.28,2008.27 L2050.8,2010.95 L2048.9,2012.6 L2047.82,2013.26 L2046.7,2013.69 L2044.12,2014.63 L2043.19,2015.16 L2042.07,2016.19 L2040.15,2016.75 L2039.22,2016.87 L2037.05,2016.56 L2035.22,2016.19 L2033.04,2015.53 L2030.22,2015.5 L2028.17,2016.06 L2027.05,2017.09 L2025.25,2020.03 L2024.14,2021.4 L2023.33,2023.08 L2022.77,2024.55 L2022.15,2028.29 L2019.98,2033.63 L2019.54,2035.78 L2018.77,2037.03 L2015.6,2044.26 L2014.76,2045.79 L2013.93,2045.51 L2012.72,2044.01 L2011.51,2044.7 L2009.67,2047.17 L2008.4,2048.48 L2006.97,2049.79 L2004.74,2051.57 L2003.93,2052.78 L2002.85,2053.94 L2002.13,2054.78 L2001.39,2055.87 L1999.99,2057.21 L1999.93,2058.3 L1999.12,2058.84 L1998.19,2059.02 L1995.55,2058.84 L1994.5,2061.08 L1993.51,2062.27 L1992.79,2064.2 L1990.49,2064.89 L1989.78,2066.61 L1987.92,2069.01 L1987.98,2070.23 L1988.85,2071.5 L1989.13,2072.57 L1989.04,2073.56 L1987.89,2074.69 L1985.75,2075.75 L1984.54,2076.78 L1984.13,2077.71 L1984.29,2078.93 L1983.98,2080.06 L1982.67,2082.24 L1981.53,2084.83 L1980.87,2085.52 L1980,2085.86 L1978.39,2086.64 L1977.34,2088.08 L1977.09,2089.2 L1977.96,2091.7 L1977.03,2093.16 L1977.18,2094.23 L1977.24,2095.26 L1974.45,2096.13 L1972.46,2097.25 L1970.66,2098.03 L1970.2,2097.25 L1970.14,2095.6 L1969.89,2094.29 L1969.52,2093.38 L1968.18,2093.26 L1966.94,2093.29 L1963.18,2093.45 L1961.48,2094.51 L1958.87,2094.07 L1957.01,2097.32 L1954.43,2097.75 L1953.63,2098.72 L1953.38,2100.28 L1952.73,2101.72 L1951.36,2102.65 L1950.12,2103.03 L1948.69,2102.87 L1947.14,2102.84 L1945.34,2103.71 L1941.27,2103.56 L1940.16,2103.78 L1938.54,2104.65 L1938.39,2105.87 L1938.82,2107.15 L1938.48,2108.52 L1937.46,2109.86 L1936.46,2110.61 L1935.22,2111.24 L1933.98,2111.55 L1932.65,2111.8 L1927.06,2111.05 L1923.71,2111.24 L1921.88,2111.64 L1920.95,2112.52 L1920.2,2113.92 L1919.64,2116.14 L1918.96,2121.85 L1918.83,2122.94 L1918.99,2125.22 L1919.52,2129.25 L1919.05,2134.81 L1918.28,2137.03 L1917.53,2138.09 L1915.82,2139.87 L1913.12,2141.9 L1910.89,2143.83 L1910.08,2144.36 L1905.58,2146.64 L1904.22,2147.67 L1901.8,2149.99 L1900.8,2151.11 L1898.91,2152.58 L1898.13,2153.64 L1897.76,2155.42 L1898.1,2158.98 L1897.45,2160.39 L1894.01,2163.23 L1892.73,2164.91 L1891.96,2166.48 L1891.34,2168.1 L1890.93,2170.1 L1889.26,2174.97 L1888.76,2176.94 L1888.45,2178.91 L1887.58,2181.19 L1886.37,2183 L1884.76,2183.69 L1883.3,2183.59 L1881.97,2183.06 L1881.16,2182.56 L1879.61,2181.62 L1878.02,2181.28 L1876.25,2181.59 L1875.54,2182.12 L1873.65,2184.22 L1871.79,2186.59 L1870.17,2187.31 L1866.6,2187.81 L1865.67,2188.5 L1865.27,2189.47 L1864.8,2191.9 L1864.12,2192.93 L1862.79,2193.96 L1861.54,2194.37 L1860.43,2194.46 L1859.43,2194.15 L1858.56,2193.46 L1857.98,2192.75 L1855.49,2190.87 L1853.13,2189.75 L1852.02,2189.75 L1849.91,2189.75 L1849.01,2189.28 L1846.52,2186.53 L1844.66,2185.06 L1843.61,2185.06 L1842.71,2185.65 L1839.42,2188.5 L1837.12,2190.06 L1836.1,2190.5 L1833.3,2188.53 L1831.07,2186.25 L1830.26,2185.65 L1828.86,2185.4 L1825.54,2187.28 L1822.6,2187.47 L1819.83,2187.15 L1818.03,2187.03 L1815.8,2187.25 L1814.59,2187.84 L1813.69,2188.37 L1810.65,2191.09 L1809.03,2192.46 L1807.61,2193.34 L1806.61,2194.4 L1804.94,2195.25 L1802.45,2195.75 L1799.78,2195.84 L1798.39,2196.12 L1794.29,2197.09 L1792.03,2197.4 L1788.55,2197.34 L1782.72,2196.56 L1780.36,2196.53 L1778.4,2197.21 L1775.79,2198.53 L1774.12,2198.81 L1771.98,2198.87 L1770.39,2198.34 L1767.76,2196.81 L1767.04,2196.18 L1765.8,2195.87 L1764.47,2195.93 L1763.29,2196.21 L1762.08,2196.65 L1760.46,2197.65 L1758.76,2198.9 L1755.84,2201.65 L1754.97,2202.52 L1752.8,2204.21 L1751.12,2204.74 L1748.08,2204.24 L1747.15,2204.06 L1745.88,2204.09 L1743.3,2204.84 L1740.35,2205.99 L1738.92,2206.21 L1737.81,2206.34 L1736.66,2207.68 L1735.57,2210.52 L1734.95,2211.52 L1733.77,2212.27 L1729.3,2214.37 L1727.44,2215.46 L1725.86,2216.68 L1725.27,2217.52 L1724.99,2219.21 L1725.02,2221.71 L1725.36,2223.34 L1724.49,2225.4 L1722.76,2226.8 L1718.75,2229.12 L1715.15,2230.05 L1712.3,2231.46 L1708.7,2233.87 L1707.61,2234.3 L1706.15,2235.27 L1704.82,2236.65 L1704.26,2237.43 L1703.73,2238.99 L1703.14,2244.77 L1702.71,2245.71 L1701.65,2247.43 L1700.97,2248.31 L1699.32,2249.93 L1698.24,2250.74 L1696.87,2251.49 L1695.48,2251.78 L1689.92,2250.74 L1688.09,2250.71 L1686.23,2250.84 L1684.43,2251.62 L1683.65,2253.15 L1683.62,2254.12 L1683.99,2255.31 L1685.02,2257.31 L1685.2,2258.53 L1684.43,2259.81 L1683.81,2261.19 L1683.03,2262 L1680.8,2262.84 L1678.69,2263.28 L1676.33,2264.16 L1675.33,2264.31 L1674.03,2264.56 L1672.29,2264.47 L1670.83,2264.25 L1668.82,2263.03 L1665.68,2262.31 L1663.88,2262.47 L1662.18,2263.12 L1661,2263.78 L1659.07,2264.12 L1655.75,2262.69 L1654.04,2262.59 L1653.14,2262.94 L1652.21,2264.03 L1651.22,2265.28 L1648.86,2269 L1647.74,2270.81 L1645.45,2272.94 L1643.99,2275.5 L1642.81,2276.57 L1640.57,2275.66 L1639.46,2275.82 L1637.38,2277.35 L1635.3,2277.22 L1633.62,2276.6 L1632.57,2276.66 L1629,2278.66 L1626.92,2278.91 L1625.09,2278.94 L1622.11,2278.32 L1620.5,2277.25 L1618.35,2275.38 L1617.21,2274.63 L1616.18,2273.63 L1615,2273.07 L1613.79,2273.03 L1612.3,2273.63 L1611.99,2275.22 L1612.83,2278.16 L1613.79,2279.6 L1613.45,2281.32 L1612.49,2282.54 L1608.98,2284.98 L1606.56,2288.42 L1605.72,2289.29 L1604.42,2290.07 L1602,2290.92 L1600.76,2291.79 L1600.2,2293.61 L1599.79,2298.24 L1598.58,2300.11 L1597.13,2300.89 L1593.96,2301.14 L1592.41,2301.43 L1590.86,2301.43 L1587.85,2301.93 L1586.33,2301.89 L1582.97,2301.77 L1581.67,2301.14 L1581.24,2299.86 L1581.27,2295.7 L1581.14,2294.55 L1580.49,2293.05 L1579.28,2291.14 L1578.57,2289.01 L1578.35,2287.39 L1578.57,2285.57 L1579.03,2282.54 L1578.47,2281.54 L1575.9,2279.19 L1574.1,2278.85 L1572.92,2279.16 L1571.96,2279.6 L1570.53,2280.57 L1568.01,2282.76 L1566.9,2283.48 L1566.03,2283.7 L1565.04,2283.57 L1564.26,2283.01 L1562.86,2280.73 L1561.62,2278.94 L1559.17,2276.22 L1558.61,2275.32 L1556.72,2273.07 L1555.51,2271.94 L1554.33,2271.47 L1552.68,2271.31 L1547.94,2272.16 L1545.79,2271.47 L1543.16,2270.1 L1542.38,2269.34 L1540.83,2266.88 L1540.55,2265.41 L1540.67,2264.16 L1540.55,2262.47 L1539.99,2261.03 L1539.56,2259.84 L1538.31,2257.28 L1537.48,2254.18 L1537.32,2253.09 L1537.2,2251.78 L1537.23,2250.12 L1537.91,2247.56 L1539.21,2243.99 L1539.09,2242.71 L1538.69,2241.31 L1538.16,2240.56 L1537.38,2239.4 L1536.64,2237.84 L1535.18,2235.55 L1534.22,2234.74 L1533.38,2234.34 L1531.15,2233.62 L1529.22,2232.87 L1527.61,2233.34 L1526.43,2233.77 L1525.09,2234.05 L1523.42,2235.34 L1522.05,2234.8 L1520.81,2235.46 L1518.7,2235.43 L1515.32,2236.24 L1513.21,2236.93 L1512,2236.8 L1510.51,2236.46 L1509.27,2236.55 L1508.02,2238.21 L1507.71,2236.93 L1508.06,2234.8 L1508.02,2232.87 L1507.43,2231.49 L1506.69,2230.84 L1505.39,2230.49 L1502.66,2232.34 L1500.98,2232.09 L1499.99,2231.52 L1499.61,2230.49 L1499.27,2229.65 L1498.43,2228.55 L1497.41,2228.62 L1496.26,2227.9 L1494.93,2228.34 L1494.15,2227.84 L1493.22,2227.99 L1492.26,2225.74 L1490.8,2225.93 L1489.87,2224.27 L1488.19,2223.71 L1486.86,2225.84 L1485.55,2225.99 L1484.93,2228.02 L1483.48,2228.24 L1481.46,2226.21 L1479.72,2224.87 L1478.2,2224.74 L1476.87,2225.05 L1475.59,2225.87 L1475.31,2226.87 L1474.97,2229.46 L1474.63,2230.59 L1473.82,2232.34 L1471.84,2235.68 L1471.03,2236.46 L1468.89,2237.71 L1465.91,2238.74 L1464.89,2238.62 L1464.08,2237.96 L1463.52,2236.37 L1463.15,2234.68 L1461.41,2232.87 L1460.48,2232.4 L1459.21,2232.24 L1457.84,2232.52 L1454.64,2233.27 L1453.43,2233.99 L1452.19,2235.37 L1451.32,2235.77 L1450.39,2236.12 L1448.96,2236.12 L1447.94,2236.05 L1446.42,2235.9 L1442.57,2236.46 L1441.7,2237.96 L1441.11,2239.24 L1439.53,2239.99 L1438.07,2239.49 L1437.39,2238.74 L1436.71,2237.59 L1435.87,2234.99 L1435.18,2233.43 L1434.5,2232.34 L1433.7,2231.4 L1432.58,2230.62 L1428.23,2229.21 L1426.87,2227.68 L1425.07,2225.09 L1423.42,2223.59 L1422.55,2222.99 L1421.37,2222.49 L1418.86,2222.21 L1417.15,2222.59 L1416.19,2222.65 L1415.26,2222.3 L1414.48,2221.8 L1413.55,2221.24 L1410.79,2218.18 L1408.9,2216.4 L1407.1,2213.68 L1405.98,2212.21 L1404.89,2210.21 L1404.03,2208.37 L1403.06,2205.56 L1401.79,2203.62 L1400.15,2201.65 L1394.5,2194.12 L1392.95,2192.56 L1389.75,2190.53 L1387.98,2189.9 L1385.5,2189.31 L1383.36,2189.03 L1380.16,2188.87 L1378.17,2189.18 L1375.07,2190.25 L1371.31,2192.56 L1368.74,2195.06 L1364.64,2199.31 L1362.66,2201.06 L1360.83,2202.49 L1359.12,2203.4 L1357.85,2203.71 L1356.88,2203.87 L1354.4,2204.06 L1350.4,2205.18 L1347.95,2206.21 L1346.02,2207.46 L1338.73,2215.71 L1337.77,2217.02 L1335.25,2220.68 L1332.8,2223.49 L1330.97,2225.05 L1329.01,2226.52 L1327.71,2227.12 L1325.07,2228.71 L1321.78,2231.18 L1319.3,2233.21 L1317.75,2234.77 L1315.02,2236.37 L1313.96,2237.15 L1312.88,2237.93 L1311.85,2238.52 L1310.39,2238.96 L1308.25,2239.09 L1301.95,2241.06 L1299.38,2241.49 L1297.39,2241.81 L1292.52,2243.02 L1289.44,2244.18 L1286.84,2245.52 L1284.14,2247.56 L1282.99,2248.81 L1282.34,2249.46 L1281.72,2250.37 L1279.48,2253.78 L1277.62,2257.28 L1275.79,2259.03 L1272.38,2261.09 L1271.69,2261.81 L1270.92,2263.59 L1270.48,2264.47 L1268.9,2267.06 L1268,2268.66 L1267.04,2270 L1265.67,2271.5 L1264.28,2275.38 L1261.92,2278.91 L1261.48,2279.94 L1261.11,2283.01 L1261.92,2284.79 L1262.07,2285.67 L1263.87,2288.89 L1264.49,2290.32 L1264.9,2293.64 L1264.74,2295.3 L1264.18,2297.92 L1264.21,2298.83 L1266.42,2300.05 L1266.88,2301.52 L1266.29,2302.43 L1265.21,2302.9 L1264.4,2305.55 L1264.52,2306.84 L1265.86,2308.18 L1267.44,2309.21 L1268.87,2310.03 L1271.16,2313.72 L1273.06,2317.35 L1274.27,2319.28 L1275.88,2321.44 L1277.53,2323.79 L1278.3,2325.04 L1279.14,2327.73 L1279.48,2329.92 L1279.48,2330.92 L1279.3,2331.86 L1278.21,2334.36 L1279.14,2337.11 L1280.35,2341.43 L1281.22,2343.12 L1282.4,2345.94 L1284.29,2347 L1287.83,2348.53 L1289.07,2350.35 L1292.98,2352.19 L1297.85,2354.07 L1300.59,2355.1 L1302.08,2355.48 L1302.67,2357.7 L1303.88,2358.39 L1304.87,2358.92 L1306.2,2359.27 L1307.91,2358.92 L1309.34,2358.83 L1310.49,2359.08 L1312.29,2360.3 L1313.16,2361.61 L1313.81,2362.33 L1315.42,2363.02 L1317.34,2363.52 L1319.39,2364.84 L1321.13,2367.31 L1322.47,2368.72 L1322.99,2369.65 L1323.09,2371.38 L1321.72,2372.75 L1319.92,2374.07 L1319.24,2374.94 L1319.05,2376.35 L1318.9,2379.07 L1317.9,2380.64 L1317.1,2381.55 L1316.41,2382.14 L1315.89,2383.71 L1315.11,2384.65 L1313.74,2384.83 L1311.67,2385.24 L1310.36,2385.87 L1309.93,2388.12 L1309.34,2389.34 L1306.76,2390.72 L1306.11,2391.41 L1305.68,2393.28 L1305.92,2394.94 L1306.54,2395.63 L1307.48,2396.16 L1310.95,2396.91 L1311.42,2397.98 L1311.57,2401.36 L1307.57,2408.18 L1307.57,2409.47 L1308.07,2410.28 L1309.43,2411.97 L1311.82,2413.04 L1312.44,2413.91 L1313.22,2414.66 L1316.38,2415.35 L1317.84,2416.04 L1319.11,2416.95 L1320.11,2419.42 L1320.17,2421.33 L1320.23,2423.06 L1319.89,2423.96 L1319.11,2425 L1318.46,2427.13 L1318.34,2428.72 L1317.93,2429.66 L1316.72,2430.66 L1315.79,2431.23 L1313.03,2432.57 L1311.48,2434.01 L1310.73,2436.21 L1310.64,2437.18 L1310.64,2438.65 L1310.8,2439.59 L1311.26,2441.62 L1311.26,2442.81 L1310.89,2444.04 L1309.15,2444.44 L1302.29,2442.72 L1299.16,2442.66 L1294.25,2442.88 L1292.95,2443.06 L1289.6,2443.6 L1287.99,2445.13 L1287.18,2446.89 L1286.34,2448.76 L1285.94,2449.86 L1285.81,2450.96 L1286.03,2452.08 L1287.15,2453.9 L1287.64,2455.97 L1287.99,2457.82 L1288.08,2460.04 L1287.74,2462.39 L1287.46,2463.77 L1287.27,2464.93 L1286.71,2467.4 L1285.25,2472.73 L1283.92,2476.58 L1282.15,2480.06 L1278.12,2485.44 L1274.61,2489.39 L1269.02,2494.53 L1266.76,2496.97 L1265.76,2498.7 L1265.42,2500.61 L1265.58,2503.21 L1266.26,2504.65 L1266.79,2505.91 L1266.88,2507 L1266.45,2512.74 L1265.76,2515.09 L1264.21,2517.31 L1262.63,2519.13 L1261.79,2519.76 L1259.74,2520.95 L1257.07,2522.3 L1255.18,2523.55 L1254.31,2524.46 L1253.2,2525.62 L1252.54,2526.5 L1251.4,2527.62 L1250.5,2528.44 L1249.38,2529.57 L1247.92,2531.1 L1247.24,2533.96 L1246.8,2535.11 L1245.9,2536.37 L1243.11,2538.63 L1241.81,2540.38 L1241.46,2543.23 L1241.56,2547.69 L1241.9,2550.88 L1241.9,2551.85 L1241.53,2553.33 L1240.75,2554.46 L1240.01,2555.02 L1239.07,2555.55 L1238.02,2556.06 L1237.03,2556.34 L1236.06,2556.49 L1234.92,2556.68 L1233.92,2556.62 L1232.46,2556.53 L1230.48,2555.9 L1227.41,2555.65 L1226.16,2555.65 L1224.74,2555.55 L1223.59,2555.49 L1222.5,2555.21 L1221.79,2554.43 L1220.45,2553.05 L1218.99,2551.54 L1218.31,2550.95 L1217.88,2550.07 L1216.98,2549.41 L1215.95,2548.47 L1214.62,2547.69 L1212.97,2547 L1210.99,2546.87 L1209.59,2547 L1208.1,2547.9 L1206.77,2549.28 L1206.08,2550.69 L1205.53,2552.54 L1204.56,2554.83 L1204.22,2556.49 L1204.28,2559.38 L1204.56,2560.73 L1205.99,2565.02 L1207.33,2568.63 L1206.77,2570.82 L1206.18,2571.7 L1203.63,2573.43 L1202.48,2574.62 L1200.59,2577.47 L1199.5,2578.7 L1198.95,2580.61 L1198.14,2584.28 L1197.77,2585.47 L1197.15,2588.61 L1196.4,2590.58 L1195.97,2592.78 L1194.1,2597.17 L1192.89,2601.97 L1191.5,2603.69 L1189.64,2604.66 L1188.43,2604.92 L1185.14,2605.26 L1184.11,2605.48 L1181.91,2606.45 L1181.04,2607.17 L1179.83,2608.84 L1178.62,2610.91 L1177.16,2614.51 L1176.29,2616.68 L1175.55,2617.93 L1174.61,2619.03 L1173.65,2619.72 L1172.13,2620.6 L1169.09,2621.64 L1167.91,2621.92 L1165.77,2621.92 L1164.06,2621.67 L1162.91,2620.76 L1161.46,2619.38 L1160.71,2618.37 L1159.9,2617.9 L1158.48,2617.34 L1156.55,2617.34 L1155.47,2617.06 L1152.74,2614.86 L1151.59,2613.67 L1150.59,2612.88 L1148.92,2612.6 L1147.58,2612.82 L1146.47,2613.48 L1143.55,2615.64 L1141.72,2616.43 L1140.38,2616.68 L1139.05,2616.77 L1137.93,2616.81 L1135.48,2616.46 L1133.12,2615.64 L1130.51,2613.13 L1129.55,2612.38 L1128.53,2611.5 L1127.57,2610.31 L1125.33,2607.05 L1124.4,2604.98 L1122.57,2601.18 L1121.73,2599.33 L1120.37,2597.26 L1117.73,2594.69 L1115.21,2593.12 L1111.92,2591.99 L1110.84,2591.96 L1108.11,2592.49 L1106.96,2593.18 L1105.28,2594.91 L1102.27,2598.67 L1100.38,2600.84 L1099.76,2601.78 L1098.49,2602.94 L1093.64,2608.3 L1091.75,2609.97 L1089.64,2611.13 L1086.01,2612.04 L1083.9,2612.26 L1082.44,2612.01 L1078.13,2610.22 L1075.15,2610.19 L1073.75,2610.62 L1072.91,2611.22 L1071.45,2612.82 L1070.31,2615.14 L1069.53,2617.31 L1068.6,2619.06 L1067.42,2620.41 L1066.3,2621.1 L1060.03,2623.71 L1058.79,2623.99 L1057.09,2624.08 L1055.66,2624.15 L1054.39,2624.05 L1053.27,2623.71 L1051.69,2622.8 L1050.85,2622.17 L1049.54,2620.85 L1045.66,2617.56 L1044.33,2617.06 L1042.59,2616.68 L1041.29,2616.59 L1039.18,2616.33 L1037.47,2616.33 L1036.07,2616.46 L1033.84,2617.24 L1032.41,2618.25 L1030.61,2620.88 L1029.31,2623.93 L1028.87,2624.87 L1028.1,2625.56 L1026.64,2627.44 L1025.15,2629.04 L1023.44,2630.39 L1022.36,2631.02 L1020.77,2631.8 L1019.84,2632.12 L1017.89,2632.4 L1015.22,2632.43 L1012.02,2632.15 L1010.47,2632.56 L1008.95,2633.43 L1007.77,2635.38 L1007.58,2636.98 L1007.58,2640.02 L1008.89,2644.45 L1009.48,2645.92 L1010.1,2649.34 L1010.07,2651.82 L1009.57,2655.68 L1008.95,2657.16 L1008.33,2658.07 L1006.9,2659.23 L1004.14,2660.77 L1002.43,2661.14 L1000.29,2660.8 L994.767,2658.7 L993.588,2658.85 L991.974,2659.76 L990.608,2660.77 L988.591,2662.02 L985.86,2662.78 L983.812,2663.81 L981.981,2665.44 L980.18,2667.14 L979.746,2668.71 L979.963,2670.31 L979.622,2672.32 L977.449,2672.1 L975.805,2672.07 L973.849,2672.1 L971.863,2672.7 L970.777,2673.48 L969.132,2676.75 L967.766,2678.16 L966.618,2679.82 L965.718,2682.74 L964.508,2684.59 L963.825,2685.94 L964.508,2687.95 L964.725,2689.37 L964.725,2690.72 L964.508,2691.6 L963.639,2692.98 L962.615,2693.67 L959.884,2694.64 L957.432,2696.9 L954.452,2701.23 L953.335,2702.27 L952.156,2702.49 L951.349,2701.86 L950.666,2700.48 L949.797,2697.18 L948.556,2696.96 L947.314,2697.59 L945.763,2699.13 L942.721,2701.23 L940.487,2702.99 L938.594,2702.62 L937.104,2702.99 L936.514,2703.65 L935.769,2705.22 L934,2705.66 L932.976,2706.01 L932.045,2707.3 L931.052,2708.17 L929.562,2709.09 L928.538,2710.12 L927.235,2711 L926.024,2711.06 L923.666,2709.59 L921.928,2708.65 L920.842,2706.29 L919.538,2705.6 L918.917,2704.78 L917.986,2704.56 L914.821,2702.4 L914.231,2701.67 L913.331,2699.76 L912.214,2698.88 L910.321,2698 L906.193,2697.25 L904.362,2698.19 L903.027,2698.13 L899.614,2697.18 L899.024,2695.87 L898.217,2694.39 L896.789,2693.23 L895.486,2691.75 L893.593,2690.37 L891.141,2689.71 L890.148,2688.02 L889.248,2687.07 L885.772,2686.13 L883.817,2684.25 L882.296,2683.53 L881.334,2683.37 L879.534,2683.24 L878.075,2683.37 L876.461,2683.87 L875.437,2684.47 L873.327,2685.28 L872.148,2685.5 L870.348,2684.37 L868.858,2683.62 L866.468,2683.59 L865.537,2683.21 L863.799,2682.93 L861.44,2683.18 L858.43,2683.09 L857.282,2683.09 L855.73,2683.12 L853.713,2682.77 L851.975,2681.74 L850.951,2682.24 L849.337,2682.3 L847.009,2681.61 L845.054,2681.61 L843.564,2681.36 L842.509,2681.01 L841.361,2681.17 L839.468,2680.51 L837.761,2680.14 L836.985,2679.04 L836.892,2678.06 L837.109,2676.56 L835.309,2676.4 L831.957,2676.9 L830.84,2677.12 L828.388,2677.78 L827.271,2676.75 L825.129,2674.58 L824.509,2672.35 L823.205,2668.83 L822.367,2664.72 L821.871,2663.62 L820.319,2662.43 L818.612,2661.8 L816.471,2660.55 L815.229,2660.08 L813.46,2659.64 L810.078,2659.39 L807.688,2659.23 L804.957,2658.35 L802.536,2656.69 L798.688,2653.08 L794.157,2649.78 L793.257,2648.72 L792.605,2646.61 L792.605,2641.75 L791.705,2639.71 L790.96,2636.82 L790.898,2635.29 L790.463,2633.12 L789.75,2631.08 L787.981,2627.88 L785.467,2624.27 L783.915,2623.24 L781.339,2622.58 L776.808,2622.42 L775.349,2621.89 L773.022,2620.26 L771.625,2618.78 L770.849,2617.65 L769.763,2615.21 L769.297,2612.95 L769.484,2600.81 L769.049,2599.61 L768.273,2598.39 L766.566,2596.26 L766.225,2594.75 L766.473,2593.03 L768.149,2590.17 L768.832,2587.82 L769.08,2586.16 L769.08,2585.03 L768.739,2583.71 L768.149,2582.52 L767.342,2581.14 L766.473,2580.17 L766.163,2579.32 L766.597,2578.26 L767.808,2577 L768.491,2576 L771.222,2573.08 L774.201,2570.57 L777.832,2568.19 L779.694,2566.47 L780.811,2565.12 L781.339,2564.08 L782.053,2561.86 L782.301,2560.41 L782.115,2559.47 L781.277,2558.66 L780.408,2558.09 L779.694,2557.44 L778.142,2556.62 L775.101,2555.49 L774.387,2554.93 L773.27,2553.67 L772.587,2551.82 L771.966,2549.72 L771.625,2546.56 L771.656,2545.65 L771.749,2543.7 L772.742,2538.03 L772.867,2536.06 L772.618,2534.77 L771.47,2532.64 L768.584,2530.23 L765.822,2528.34 L763.246,2526.09 L760.98,2523.24 L758.156,2518.82 L754.587,2515.53 L752.756,2514.37 L751.67,2513.93 L750.645,2513.58 L749.156,2512.55 L745.401,2510.82 L744.5,2509.76 L743.259,2507.82 L742.918,2506.69 L742.731,2501.8 L742.825,2500.48 L742.731,2497.41 L742.576,2496.5 L741.521,2494 L740.249,2493.06 L736.649,2491.3 L735.097,2490.21 L733.731,2489.39 L732.242,2488.14 L730.442,2486.1 L728.921,2483.16 L727.711,2478.58 L727.617,2476.7 L728.362,2474.07 L729.138,2472.04 L729.511,2470.13 L729.604,2468.43 L729.48,2466.05 L728.921,2463.77 L725.228,2458.22 L723.831,2456.69 L720.914,2454.59 L719.3,2453.96 L717.469,2453.96 L715.762,2454.53 L712.69,2455.97 L709.648,2457.91 L706.607,2459.6 L705.552,2459.79 L703.907,2459.82 L703.038,2460.51 L700.989,2461.7 L700.245,2462.29 L697.296,2465.58 L694.379,2467.27 L692.517,2468.09 L690.81,2468.72 L689.165,2468.97 L687.893,2469.15 L686.589,2469.22 L685.068,2468.9 L684.013,2468 L682.617,2467.84 L681.282,2468.28 L680.413,2468.75 L679.482,2469.15 L678.334,2470.69 L676.906,2473.98 L676.906,2475.23 L676.875,2476.45 L677.154,2477.99 L677.589,2479.43 L679.358,2483.72 L679.451,2484.91 L679.11,2486.82 L677.341,2491.4 L675.789,2493.47 L674.082,2495.22 L668.93,2498.54 L658.44,2503.9 L651.582,2502.77 L649.161,2502.49 L644.257,2501.55 L643.016,2501.05 L635.847,2499.32 L634.761,2498.35 L631.036,2499.92 L626.692,2502.83 L624.954,2507.28 L623.495,2509.85 L622.936,2511.86 L621.167,2514.62 L620.857,2518 L622.564,2520.7 L629.702,2526.68 L629.112,2527.81 L623.433,2532.73 L622.316,2536.31 L618.809,2536.24 L615.364,2535.96 L614.091,2534.68 L611.733,2533.89 L607.015,2534.11 L603.664,2532.48 L600.25,2528.09 L601.553,2525.55 L600.343,2523.67 L600.25,2522.17 L598.17,2521.83 L595.501,2519.26 L594.415,2514.62 L594.694,2512.99 L590.877,2510.92 L587.649,2509.76 L585.912,2506.85 L587.867,2503.99 L587.991,2501.83 L588.518,2500.11 L590.567,2498.29 L592.708,2501.36 L593.577,2502.05 L595.16,2500.36 L595.439,2499.14 L596.06,2498.42 L598.015,2498.1 L599.226,2498.17 L601.088,2498.17 L602.764,2497.82 L603.695,2498.01 L605.308,2498.6 L606.364,2499.2 L611.422,2500.67 L610.212,2493.34 L608.567,2490.83 L608.412,2488.89 L609.436,2486.89 L610.522,2485.63 L611.546,2484.41 L612.074,2483.09 L611.671,2481.87 L612.85,2480.31 L613.812,2479.84 L615.333,2479.71 L616.636,2478.33 L617.35,2477.02 L617.94,2475.39 L618.126,2473.85 L620.919,2471.47 L621.509,2469.91 L622.16,2469.15 L624.364,2468.65 L625.667,2467.87 L626.195,2466.62 L626.195,2465.08 L626.412,2462.83 L628.026,2460.48 L628.585,2458.91 L629.143,2457.78 L630.012,2456.09 L631.067,2455.12 L632.34,2454.34 L632.712,2453.31 L632.805,2451.83 L632.961,2450.2 L633.271,2448.76 L633.985,2447.82 L634.047,2446.45 L634.854,2445.16 L634.73,2443.66 L634.823,2441.62 L633.985,2440.84 L633.054,2440.31 L631.843,2439.12 L632.092,2438.24 L632.961,2437.96 L633.395,2436.99 L632.836,2435.99 L633.116,2434.92 L633.519,2433.8 L633.302,2432.67 L634.047,2431.73 L634.295,2430.85 L634.419,2429.63 L634.512,2428.28 L635.257,2426.97 L635.878,2425.34 L635.94,2423.74 L636.561,2422.71 L637.647,2421.36 L638.547,2420.3 L639.478,2418.64 L639.881,2417.29 L639.447,2415.7 L640.347,2414.01 L640.999,2411.13 L641.557,2410.06 L641.712,2409.03 L642.147,2407.93 L641.526,2406.37 L642.054,2405.05 L642.644,2404.3 L642.644,2403.24 L642.675,2402.3 L643.513,2401.45 L643.016,2399.95 L642.799,2398.92 L642.147,2397.89 L642.24,2396.41 L640.564,2395.1 L640.44,2393.66 L639.54,2392.53 L638.764,2391.06 L638.888,2389.84 L638.206,2387.21 L638.206,2385.83 L638.112,2384.74 L638.112,2383.67 L637.057,2382.58 L637.43,2381.55 L637.399,2380.42 L636.312,2379.29 L636.747,2377.89 L636.747,2376.66 L637.678,2374.97 L638.019,2373.72 L638.64,2372.78 L639.478,2372.19 L639.664,2370.69 L640.502,2369.12 L641.03,2367.34 L641.557,2364.55 L641.681,2363.18 L642.116,2361.61 L642.55,2360.14 L643.575,2358.23 L644.599,2356.95 L646.275,2355.76 L647.733,2355.01 L648.168,2353.38 L648.664,2351.91 L649.751,2350.54 L650.092,2349 L649.626,2345.72 L650.278,2344.25 L649.875,2343.18 L649.192,2342.59 L648.385,2340.59 L649.751,2339.62 L650.278,2338.49 L649.099,2337.21 L648.82,2335.83 L647.857,2333.61 L648.726,2332.02 L648.323,2330.83 L646.957,2330.11 L647.609,2328.86 L647.795,2327.2 L645.84,2325.95 L644.94,2325.04 L645.499,2324.23 L646.616,2323.01 L646.492,2321.54 L646.957,2320.75 L647.547,2319.94 L646.74,2315.59 L646.864,2314.31 L647.361,2313.25 L646.771,2312.25 L646.616,2311.25 L646.957,2310.34 L648.075,2308.15 L648.633,2306.62 L648.975,2304.71 L648.882,2303.24 L650.309,2302.43 L650.557,2300.96 L649.595,2299.83 L649.192,2298.36 L648.571,2297.33 L646.926,2295.77 L645.468,2295.67 L645.25,2294.05 L645.25,2291.98 L646.399,2292.04 L646.399,2290.92 L645.375,2290.07 L644.257,2288.7 L643.699,2287.51 L643.513,2286.51 L644.04,2284.54 L644.04,2282.88 L645.313,2282.19 L646.399,2280.76 L647.206,2279.69 L648.292,2277.79 L647.857,2276.57 L646.864,2275.32 L648.323,2273.38 L649.006,2272.78 L650.123,2271.69 L649.688,2270.56 L649.999,2269.69 L650.899,2268.56 L652.575,2266.88 L653.568,2264.84 L655.337,2263.91 L656.268,2262.5 L657.416,2262.12 L657.323,2260.53 L657.82,2259.72 L659.061,2259.28 L660.147,2258.09 L661.109,2258.5 L661.978,2257.56 L661.42,2256.34 L659.961,2254.12 L660.178,2252.56 L659.123,2251.93 L658.72,2250.81 L660.054,2250.15 L659.309,2249.09 L658.347,2247.81 L658.875,2246.62 L657.509,2245.31 L658.502,2244.62 L657.944,2243.71 L656.392,2243.46 L655.927,2240.27 L656.827,2238.4 L657.416,2237.74 L656.64,2236.65 L655.275,2235.62 L654.158,2232.49 L653.661,2231.71 L652.668,2231.12 L652.264,2229.71 L651.147,2229.05 L650.433,2227.24 L649.626,2225.65 L649.316,2224.62 L647.857,2223.96 L644.785,2221.37 L642.116,2218.74 L641.185,2218.59 L639.012,2219.02 L637.088,2219.55 L633.271,2217.65 L632.247,2215.71 L630.943,2215.62 L629.609,2216.37 L628.678,2215.27 L627.778,2214.46 L627.778,2212.87 L628.398,2210.96 L627.002,2210.02 L626.505,2207.24 L624.985,2206.31 L625.574,2205.37 L624.612,2202.71 L624.271,2201.4 L623.526,2200.46 L623.743,2198.87 L624.643,2198.31 L625.636,2198.62 L626.505,2198.21 L626.785,2195.62 L626.785,2194.46 L625.543,2193.09 L624.612,2190.84 L625.45,2190.22 L626.195,2189.18 L625.202,2185.9 L626.35,2184.09 L626.071,2181.87 L626.661,2180.63 L624.767,2179.34 L625.419,2177.81 L625.202,2175.32 L625.326,2173.94 L626.071,2172.63 L625.14,2171 L624.954,2169.69 L624.395,2168.72 L624.209,2167.04 L625.916,2166.91 L626.536,2165.35 L625.574,2163.38 L624.457,2162.51 L623.743,2161.76 L622.067,2160.51 L621.602,2159.73 L621.043,2158.29 L620.36,2157.42 L619.926,2156.11 L619.491,2154.08 L619.119,2153.08 L618.281,2151.98 L617.598,2151.39 L616.978,2150.08 L616.822,2148.52 L616.791,2147.39 L617.133,2146.27 L617.257,2143.93 L617.909,2142.8 L618.25,2141.52 L618.033,2140.65 L617.319,2139.62 L618.591,2138.4 L618.467,2136.93 L618.281,2135.37 L615.891,2134.97 L615.674,2133.84 L617.009,2132.9 L616.388,2131.09 L616.636,2129.25 L616.109,2128.5 L613.967,2127.28 L613.378,2125.29 L613.284,2123.04 L614.246,2121.42 L614.588,2119.95 L614.153,2118.92 L612.85,2117.86 L612.322,2117.11 L611.577,2115.02 L612.012,2113.39 L611.981,2111.92 L610.646,2110.89 L609.405,2109.58 L607.822,2108.55 L607.295,2107.68 L606.705,2105.77 L606.581,2104.81 L605.588,2103.37 L604.595,2100.5 L602.577,2098.88 L600.653,2097.07 L599.567,2095.75 L598.636,2093.85 L598.357,2092.91 L597.643,2092.04 L597.86,2090.7 L597.736,2089.79 L596.619,2087.58 L596.494,2084.39 L597.177,2083.36 L598.077,2082.74 L599.132,2082.15 L599.101,2080.06 L600.219,2078.15 L600.963,2077.06 L600.746,2075.31 L600.001,2073.53 L600.87,2071.25 L602.298,2070.38 L604.222,2069.54 L604.719,2068.51 L603.788,2067.7 L603.105,2066.32 L603.353,2065.39 L603.508,2064.51 L604.626,2063.67 L606.177,2062.11 L607.264,2060.61 L607.264,2058.24 L608.133,2057.65 L610.615,2058.84 L611.577,2057.62 L611.857,2056.4 L611.329,2054.59 L607.264,2052.81 L606.86,2050.91 L607.171,2050.01 L609.095,2047.26 L610.553,2046.73 L613.564,2043.7 L614.091,2042.24 L613.781,2040.08 L614.588,2038.71 L616.015,2038.12 L617.226,2037.71 L617.94,2036.81 L618.281,2035.9 L619.212,2035.72 L620.236,2035.09 L622.316,2032.85 L623.34,2032.1 L624.457,2032.1 L626.257,2032.44 L627.219,2032.78 L628.15,2033.47 L628.74,2032.44 L628.585,2030.97 L629.174,2029.7 L628.926,2027.61 L629.019,2026.2 L630.447,2024.99 L632.526,2024.3 L633.643,2023.61 L635.723,2023.74 L637.243,2022.93 L637.15,2021.02 L636.654,2018.78 L638.547,2018.12 L640.223,2016.87 L642.147,2017 L644.04,2018.43 L644.971,2017.56 L645.033,2015.85 L646.957,2012.51 L647.547,2010.51 L647.733,2008.95 L649.595,2005.24 L650.216,2003.09 L650.775,2002.4 L652.947,1999.94 L651.551,1999.72 L650.713,1999.32 L650.216,1997.82 L650.713,1996.88 L650.899,1994.98 L651.923,1992.98 L653.04,1991.83 L654.158,1990.96 L655.927,1989.37 L657.323,1988.96 L657.571,1986.9 L659.992,1987.81 L663.871,1988.03 L665.92,1986.34 L667.378,1985.31 L666.509,1984.53 L665.02,1983.97 L663.53,1983.16 L662.32,1981.91 L659.371,1980.7 L658.533,1980.04 L658.875,1977.49 L659.713,1976.86 L662.134,1976.55 L662.878,1976.05 L664.089,1975.05 L665.237,1974.65 L667.13,1973.03 L667.472,1972.15 L668.744,1970.75 L669.023,1969.19 L668.837,1967.23 L669.768,1966.39 L670.451,1965.48 L671.165,1964.24 L670.854,1963.11 L670.854,1961.68 L670.265,1960.43 L670.73,1959.06 L671.599,1956.78 L673.523,1954.98 L674.051,1953.95 L675.603,1951.64 L674.33,1950.83 L673.554,1949.83 L673.865,1947.71 L674.392,1946.62 L675.106,1943.41 L674.858,1941.54 L674.92,1940.04 L674.641,1938.36 L674.299,1936.9 L674.579,1935.21 L675.354,1934.09 L676.534,1933.28 L677.123,1931.35 L678.892,1929.38 L677.496,1926.8 L678.117,1924.49 L678.458,1923.52 L679.358,1922.93 L680.382,1922.59 L681.282,1922.12 L681.81,1921.28 L681.499,1919.88 L681.003,1918.85 L682.058,1917.6 L683.424,1917.07 L684.51,1916.51 L685.751,1917.14 L686.682,1916.36 L687.52,1914.89 L686.837,1912.15 L686.682,1910.44 L688.327,1909.19 L690.375,1908.75 L690.996,1908 L691.648,1906.45 L691.989,1903.36 L692.269,1902.33 L691.648,1900.59 L694.286,1896.23 L694.596,1895.07 L694.41,1893.86 L694.938,1892.21 L695.031,1890.49 L695.682,1889.46 L696.365,1887.94 L698.01,1886.78 L698.786,1885.51 L699.034,1883.01 L699.531,1880.83 L699.655,1879.21 L699.313,1875.07 L699.717,1873.54 L701.548,1871.3 L703.689,1869.8 L706.762,1868.18 L707.258,1867.25 L708.5,1865.75 L712.938,1862.76 L714.117,1861.21 L715.669,1860.21 L716.383,1859.15 L715.234,1857.19 L714.831,1856.29 L714.8,1854.95 L715.514,1853.79 L716.724,1853.14 L717.997,1851.68 L718.772,1850.3 L721.286,1849.84 L722.279,1847.88 L724.079,1845.29 L724.545,1844.26 L724.266,1842.8 L723.304,1840.18 L722.962,1838.22 L723.335,1835.82 L725.724,1832.55 L726.5,1831.49 L726.221,1830.37 L723.986,1827.72 L723.521,1826.91 L723.645,1825.79 L725.228,1824.52 L725.383,1823.58 L725.569,1822.71 L726.407,1822.03 L727.431,1820.28 L728.548,1818.91 L728.921,1817.98 L728.921,1812.03 L730.69,1810.85 L730.597,1809.57 L729.852,1808.48 L728.58,1806.89 L726.873,1805.74 L726.252,1804.53 L727.431,1803.62 L728.704,1802.41 L730.007,1800.48 L731.218,1800.23 L732.738,1801.01 L733.731,1800.82 L734.383,1800.17 L734.507,1799.05 L733.949,1798.17 L730.721,1795.99 L729.79,1795.59 L729.014,1794.75 L728.983,1793.69 L730.038,1791.48 L731.311,1790.11 L732.49,1787.21 L734.724,1786.13 L735.314,1785 L735.78,1783.17 L734.724,1782.58 L733.731,1782.58 L732.676,1781.8 L733.731,1780.21 L735.097,1779.31 L736.028,1776.91 L736.99,1773.55 L736.183,1771.46 L737.238,1770.56 L740.125,1771.65 L741.676,1769.84 L742.483,1768.32 L742.142,1767.11 L736.866,1764.49 L736.556,1763.56 L737.766,1762.34 L739.535,1762 L740.683,1761.5 L743.166,1761 L743.228,1759.54 L742.049,1758.98 L740.59,1757.99 L739.287,1757.21 L738.356,1755.81 L737.425,1753.32 L738.449,1752.57 L740.342,1751.54 L741.956,1751.26 L742.266,1749.08 L741.676,1747.87 L741.583,1746.19 L742.39,1745.22 L744.625,1744.35 L745.183,1742.73 L746.425,1740.9 L746.735,1739.75 L746.766,1738.07 L746.983,1736.88 L746.518,1734.02 L749.932,1733.09 L750.366,1731.97 L749.497,1729.63 L749.994,1728.79 L751.049,1729.42 L752.104,1729.76 L753.035,1728.95 L752.228,1727.24 L752.073,1726.3 L752.414,1725.34 L754.556,1722.32 L751.67,1719.33 L750.987,1717.59 L751.794,1716.94 L752.818,1716.6 L753.377,1717.47 L754.308,1718.28 L755.487,1717.93 L755.58,1715.82 L755.021,1714.11 L754.37,1713.39 L753.904,1711.34 L755.052,1707.95 L756.014,1706.86 L759.708,1706.33 L759.366,1704.59 L759.459,1702.72 L759.087,1700.04 L759.894,1698.83 L761.942,1699.08 L763.059,1699.08 L764.859,1698.58 L765.635,1697.4 L763.246,1696.47 L762.035,1695.07 L762.718,1693.7 L763.339,1692.92 L767.528,1694.63 L768.832,1695.44 L769.918,1694.35 L769.391,1692.23 L770.725,1690.34 L771.966,1689.84 L774.387,1689.9 L775.349,1689.4 L776.467,1687.82 L775.784,1687.04 L775.66,1686.01 L776.373,1685.02 L779.632,1684.89 L780.936,1683.96 L781.277,1678.49 L781.929,1676 L782.705,1675.25 L784.256,1674.85 L786.429,1675.28 L787.794,1676.4 L789.067,1677.02 L789.905,1676.49 L793.381,1672.89 L797.757,1669.5 L798.657,1668.94 L798.998,1667.72 L799.339,1665.3 L802.008,1664.08 L804.771,1663.4 L807.098,1663.21 L809.146,1663.74 L812.343,1663.4 L814.484,1662.65 L815.229,1662.06 L815.695,1661.01 L816.595,1660.73 L818.24,1660.97 L819.605,1660.85 L822.554,1662.03 L824.167,1661.94 L825.688,1659.54 L826.557,1658.86 L827.457,1658.24 L828.947,1657.46 L829.94,1656.87 L831.368,1656 L832.423,1655.34 L833.447,1655.56 L835.93,1659.29 L836.116,1660.97 L837.73,1661.07 L840.306,1657.71 L841.609,1656.18 L842.54,1655.66 L844.309,1655.22 L846.14,1655 L848.033,1653.6 L849.213,1652.58 L850.175,1650.4 L850.889,1649.06 L851.882,1648.5 L856.847,1644.15 L857.809,1644.34 L859.547,1646.64 L861.161,1646.92 L862.465,1646.79 L863.489,1646.36 L864.575,1645.11 L865.723,1644.46 L870.161,1643.31 L871.092,1643.19 L871.961,1642.66 L872.83,1642.35 L875.437,1641.41 L876.803,1641.41 L878.696,1640.85 L881.148,1641.19 L883.475,1641.29 L884.841,1642.16 L887.448,1642.53 L888.472,1643.19 L889.31,1643.96 L890.365,1643.99 L894.896,1641.38 L898.093,1639.86 L898.993,1638.89 L900.327,1638.49 L901.662,1638.55 L903.4,1639.14 L905.852,1637.34 L907.279,1635.47 L908.521,1634.6 L909.855,1634.51 L911.283,1634.6 L912.493,1634.88 L914.945,1634.85 L916.497,1633.45 L918.638,1632.43 L921.897,1632.08 L924.504,1630.75 L926.055,1631.52 L928.104,1631.06 L928.818,1630.03 L928.942,1628.04 L929.749,1625.9 L930.4,1624.78 L931.207,1624.34 L931.983,1622.97 L933.162,1622.2 L934.559,1618.93 L935.645,1617.13 L937.104,1616.54 L940.363,1616.88 L941.418,1617.56 L944.676,1616.54 L945.887,1615.6 L946.663,1613.65 L947.532,1612.5 L949.145,1611.75 L950.573,1609.95 L950.325,1608.14 L951.473,1606.68 L952.156,1604.69 L955.073,1604.26 L957.649,1603.39 L960.101,1601.92 L960.628,1601.05 L961.094,1598.85 L961.684,1597.2 L964.135,1597.36 L965.16,1598.07 L967.829,1598.82 L969.566,1599.62 L971.429,1600.31 L972.98,1602.17 L974.253,1601.43 L975.494,1600.9 L977.201,1600.96 L978.66,1600.28 L979.839,1599.69 L980.894,1598.75 L983.656,1597.17 L985.022,1597.26 L985.55,1598.72 L986.139,1599.78 L986.822,1602.86 L987.784,1604.44 L988.188,1605.44 L988.808,1606.22 L989.925,1606.49 L992.222,1607.83 L994.301,1608.36 L995.977,1607.4 L996.784,1606.81 L997.684,1607.49 L999.764,1607.68 L1001.59,1607.4 L1002.71,1605.19 L1003.27,1601.92 L1003.89,1601.18 L1004.17,1600.03 L1004.17,1598.85 L1004.51,1597.95 L1004.64,1596.24 L1005.54,1595.12 L1006.81,1594.25 L1008.3,1590.05 L1009.54,1587.81 L1010.59,1586.94 L1011.68,1586.35 L1012.58,1586.35 L1013.67,1586.04 L1014.82,1585.95 L1015.99,1584.49 L1016.4,1582.78 L1018.66,1582.06 L1019.78,1581.19 L1022.08,1580.88 L1023.35,1580.85 L1025.09,1578.95 L1025.62,1577.86 L1026.05,1576.37 L1028.94,1572.08 L1030.4,1570.75 L1030.52,1568.29 L1031.45,1567.17 L1035.45,1564.78 L1037.56,1561.86 L1038.06,1559.65 L1039.08,1557.72 L1039.15,1556.54 L1040.61,1555.24 L1042.19,1555.08 L1044.3,1554.93 L1045.23,1554.93 L1047.93,1554.9 L1051.16,1554.28 L1052.27,1553.72 L1053.08,1552.94 L1053.61,1551.73 L1054.76,1548.28 L1054.97,1547.16 L1055.63,1545.7 L1056.34,1544.86 L1059.94,1542.09 L1061.93,1542 L1063.01,1541.5 L1063.7,1540.79 L1064.47,1539.51 L1067.73,1536.97 L1068.79,1536.31 L1069.87,1535.94 L1071.36,1534.95 L1072.29,1534.51 L1074.59,1534.7 L1076.51,1533.92 L1079.52,1533.08 L1081.2,1531.9 L1082.6,1531.34 L1083.9,1530.32 L1084.58,1529.04 L1085.61,1527.89 L1087.84,1526.56 L1089.11,1525.5 L1090.14,1524.91 L1092.71,1524.16 L1093.83,1523.36 L1095.23,1522.27 L1096.34,1521.83 L1097.43,1521.71 L1100.69,1522.52 L1102.43,1522.39 L1105.5,1520.72 L1107.33,1520.34 L1109.47,1520 L1110.59,1518.98 L1111.61,1518.54 L1113.69,1518.98 L1114.5,1519.44 L1116.42,1521.06 L1117.29,1521.37 L1118.97,1521.65 L1120.61,1520.78 L1121.39,1519.66 L1122.76,1516.4 L1124.56,1514.19 L1126.39,1511.52 L1127.16,1510.81 L1127.85,1510.03 L1129.55,1508.01 L1130.17,1506.77 L1130.39,1505.59 L1130.23,1504.56 L1128.62,1499.93 L1128.68,1499.03 L1128.71,1497.38 L1130.05,1494.43 L1130.89,1493.53 L1132.38,1492.41 L1133.21,1491.23 L1133.9,1489.28 L1133.49,1485.98 L1134.36,1484.09 L1135.79,1484.09 L1137.03,1484.46 L1138.12,1484.31 L1139.95,1484.52 L1142.34,1484.09 L1142.84,1482.88 L1143.52,1481.79 L1147.49,1477.6 L1149.01,1476.36 L1150.84,1474.31 L1151.43,1473.34 L1152.21,1471.14 L1152.89,1467.5 L1152.49,1465.58 L1152.86,1463.75 L1153.57,1462.97 L1155.53,1461.76 L1156.65,1461.45 L1158.29,1461.6 L1159.22,1462.13 L1160.46,1462.32 L1161.49,1461.2 L1161.39,1459.86 L1161.02,1458.53 L1160.53,1455.48 L1160.62,1454.46 L1160.8,1452.32 L1161.64,1450.08 L1162.17,1448.96 L1165.09,1445.45 L1167.76,1443.62 L1169.09,1443.65 L1172.01,1442.69 L1172.78,1441.26 L1173.13,1439.71 L1174.71,1436.54 L1176.51,1433.62 L1178.18,1432.75 L1179.64,1434.52 L1179.67,1435.67 L1179.95,1437.38 L1179.92,1438.99 L1181.82,1440.55 L1182.99,1440.14 L1183.96,1438.65 L1184.7,1436.85 L1184.79,1435.24 L1182.84,1431.98 L1180.29,1429.8 L1179.52,1428.13 L1179.3,1427.23 L1179.3,1424.4 L1180.11,1423.63 L1182.09,1423.31 L1186.04,1423.66 L1187.8,1423.63 L1188.61,1424.15 L1189.7,1425.61 L1191.5,1429.15 L1193.73,1429.21 L1195.9,1426.92 L1196.9,1424.84 L1196.49,1419.71 L1196.68,1417.88 L1197.58,1414.65 L1198.98,1412.76 L1202.05,1413.1 L1203.07,1412.42 L1203.6,1411.52 L1204.75,1410.4 L1208.13,1410.24 L1209.72,1409.59 L1213.72,1409.84 L1217.32,1409.28 L1219.21,1409.31 L1221.14,1408.47 L1224.46,1405.28 L1227.41,1404.56 L1228.77,1404.93 L1229.95,1406.02 L1231.1,1407.6 L1232.22,1411.52 L1233.24,1412.57 L1235.57,1413.69 L1236.72,1413.69 L1237.74,1413.32 L1240.53,1408.88 L1241.68,1408.07 L1245.59,1408.26 L1247.02,1408.44 L1251.33,1409.81 L1252.89,1409.37 L1254.59,1407.7 L1256.24,1406.21 L1257.88,1405.12 L1259.56,1403.48 L1261.11,1402.51 L1264.37,1402.02 L1269.24,1400.62 L1271.16,1400.03 L1274.92,1397.86 L1275.85,1396.93 L1276.75,1395.47 L1277.25,1393.95 L1277.53,1393.08 L1278.61,1392.36 L1280.1,1392.21 L1283.11,1395.22 L1284.01,1395.84 L1285.75,1395.99 L1287.46,1394.1 L1289.63,1392.3 L1290.56,1392.3 L1292.18,1392.73 L1297.7,1393.08 L1299.56,1393.01 L1302.91,1391.43 L1303.84,1391.12 L1306.79,1391.68 L1307.44,1393.32 L1308.07,1394.13 L1309.24,1394.47 L1310.64,1394.35 L1312.72,1394.01 L1314.49,1394.1 L1315.73,1393.91 L1317.31,1393.57 L1321.19,1394.78 L1323.49,1395.47 L1326.19,1396.68 L1327.87,1397.61 L1328.52,1398.23 L1329.67,1399.69 L1330.88,1400.87 L1332.8,1402.42 L1334.91,1403.2 L1336.99,1404.1 L1338.98,1404.75 L1339.85,1405.12 L1340.96,1405.87 L1341.86,1406.7 L1343.45,1408.63 L1344.35,1409.37 L1345.9,1409.62 L1346.95,1409.19 L1348.07,1408.16 L1348.41,1406.58 L1349.62,1406.3 L1351.73,1406.98 L1353.47,1408.63 L1354.59,1410.15 L1355.33,1411.73 L1355.7,1413.35 L1355.98,1415.24 L1356.23,1417.45 L1356.88,1418.56 L1357.94,1419.68 L1359.03,1420.18 L1360.42,1420.4 L1362.63,1421.17 L1366.5,1422.17 L1368.4,1422.72 L1372,1425.46 L1373.27,1427.32 L1373.8,1428.78 L1375.35,1432.57 L1376.19,1433.5 L1378.76,1434.87 L1380.22,1434.96 L1381.46,1435.42 L1382.7,1436.51 L1384.1,1437.04 L1385.4,1436.17 L1386.09,1435.49 L1386.96,1434.87 L1387.83,1434.62 L1389.94,1434.55 L1391.05,1434.74 L1393.13,1435.77 L1394.37,1436.11 L1395.37,1436.2 L1397.26,1435.98 L1398.72,1435.55 L1399.49,1435.05 L1400.39,1433.78 L1402.07,1432.91 L1404.12,1433.59 L1404.86,1432.75 L1405.11,1431.6 L1404.68,1429.59 L1405.11,1428.38 L1407.01,1427.66 L1408.74,1428.13 L1410.48,1428.28 L1412.44,1428.69 L1413.89,1427.26 L1415.32,1423.97 L1417.06,1422.26 L1418.77,1421.82 L1421.72,1422.29 L1423.92,1422.04 L1425.97,1422.72 L1428.76,1423.1 L1431.9,1422.97 L1433.97,1422.63 L1434.91,1422.29 L1437.42,1421.82 L1439.31,1421.48 L1441.42,1420.3 L1442.2,1419.87 L1443.81,1418.41 L1444.62,1417.69 L1445.71,1416.61 L1447.94,1413.07 L1449.77,1412.14 L1451.32,1412.04 L1454.12,1411.52 L1458.96,1411.11 L1460.39,1411.17 L1463.95,1411.76 L1466.13,1411.8 L1468.05,1412.2 L1470.35,1412.29 L1471.84,1412.85 L1473.36,1413.19 L1475.5,1414.78 L1478.08,1417.1 L1480.4,1417.35 L1481.61,1417.04 L1483.48,1417.1 L1485.12,1416.7 L1489.22,1414.78 L1491.58,1414.19 L1493.1,1413.5 L1494.46,1412.54 L1496.73,1409.19 L1498.09,1407.95 L1500.23,1406.49 L1501.88,1406.39 L1503.06,1406.67 L1504.89,1406.8 L1506.04,1407.26 L1507.19,1408.6 L1508.46,1409.5 L1509.58,1410.09 L1510.97,1410.59 L1513.21,1410.83 L1514.82,1410.96 L1515.75,1411.02 L1516.96,1411.05 L1518.23,1410.74 L1519.26,1410.59 L1520.59,1410.4 L1522.02,1409.96 L1523.67,1409.37 L1524.6,1408.97 L1525.47,1408.26 L1526.43,1407.57 L1528.45,1405.68 L1528.79,1404.69 L1529.41,1403.38 L1530.12,1401.21 L1530.8,1399.63 L1531.02,1398.73 L1532.23,1397.36 L1533.78,1396.09 L1536.11,1395.28 L1537.51,1394.54 L1539.9,1393.85 L1541.51,1392.89 L1544.15,1390.19 L1546.76,1386.56 L1547.97,1384.66 L1549.05,1383.64 L1549.95,1383.14 L1550.6,1382.34 L1551.75,1377.99 L1552.31,1376.97 L1552.4,1375.66 L1551.88,1374.55 L1551.38,1372.47 L1552,1370.48 L1552.78,1369.14 L1553.77,1366.38 L1554.79,1360.73 L1555.6,1359.59 L1556.87,1357.82 L1558.39,1356.17 L1559.2,1355.15 L1560.13,1354.43 L1561.34,1352.32 L1561.75,1350.86 L1561.65,1348.69 L1560.32,1345.81 L1560.07,1344.41 L1560.04,1341.43 L1560.85,1339.85 L1562.8,1338.2 L1563.98,1336.34 L1564.88,1335.22 L1565.63,1332.93 L1564.1,1332.25 L1561.65,1332.31 L1560.91,1331.35 L1561.09,1329.73 L1561.84,1327.84 L1563.24,1327.06 L1565.47,1326.54 L1566.56,1325.42 L1567.08,1324.05 L1566.9,1322.84 L1565.97,1320.24 L1565.72,1319 L1566,1316.86 L1566.31,1315.65 L1566.21,1314.06 L1565.1,1310.74 L1564.41,1308.94 L1563.86,1307.45 L1563.55,1305.62 L1563.73,1303.79 L1564.79,1302.03 L1565.44,1300.72 L1566.84,1298.61 L1569.26,1296.35 L1569.94,1295.26 L1570.53,1293.52 L1570.19,1289.65 L1571.55,1285.74 L1572.48,1284.5 L1573.26,1283.82 L1574.56,1282.98 L1577.23,1281.67 L1578.01,1280.59 L1578.69,1279.04 L1578.16,1277.74 L1577.11,1275.84 L1575.99,1275.32 L1571.18,1277.77 L1569.81,1277.58 L1569.07,1276.71 L1569.5,1275.01 L1571.3,1271.07 L1571.96,1270.04 L1572.24,1268.83 L1572.24,1267.13 L1572.42,1265.67 L1572.92,1263.87 L1573.2,1261.76 L1572.92,1260.83 L1570.96,1258.1 L1570.53,1257.02 L1570.34,1255.37 L1570.62,1252.86 L1570.37,1251.77 L1569.94,1250.81 L1568.48,1248.83 L1567.58,1247.53 L1566.68,1246.78 L1566.06,1246.04 L1565.31,1245.23 L1563.39,1244.39 L1560.16,1244.73 L1559.01,1244.49 L1557.65,1244.05 L1552.87,1241.48 L1551.57,1240.58 L1549.52,1238.53 L1548.65,1237.45 L1547.53,1235.99 L1546.51,1234.5 L1544.8,1233.57 L1542.35,1233.07 L1540.67,1232.61 L1535.49,1229.69 L1534.37,1228.27 L1533.35,1226.35 L1532.85,1223.99 L1532.6,1220.02 L1532.14,1217.26 L1531.8,1215.4 L1531.3,1214.44 L1530.34,1212.89 L1529.66,1212.11 L1528.79,1211.28 L1527.33,1210.35 L1525.56,1209.88 L1523.85,1209.2 L1522.21,1208.86 L1519.1,1209.14 L1516.43,1209.14 L1515.1,1208.95 L1513.95,1208.36 L1511.75,1207 L1510.2,1205.29 L1508.8,1200.98 L1508.06,1199.43 L1507.09,1196.55 L1505.39,1194.53 L1504.52,1193.94 L1503.15,1192.73 L1502.44,1191.37 L1501.94,1188.98 L1501.94,1188.05 L1502.31,1186.91 L1503.59,1185.57 L1504.61,1185.05 L1506.84,1184.18 L1508.27,1182.88 L1509.08,1181.45 L1510.1,1179.19 L1510.69,1176.8 L1510.69,1174.69 L1510.54,1173.14 L1510.29,1172.18 L1509.58,1170.97 L1508.15,1169.95 L1505.04,1168.06 L1503.68,1167.19 L1502.87,1166.35 L1501.32,1164.21 L1500.33,1162.39 L1498.84,1159.41 L1498.59,1157.8 L1498.62,1152.81 L1498.4,1149.83 L1497.16,1147.91 L1495.86,1146.61 L1494.83,1145.43 L1494.59,1144.13 L1494.83,1143.26 L1497.07,1139.67 L1498.19,1138.33 L1499.52,1137.31 L1500.98,1135.51 L1501.88,1133.53 L1501.85,1132.48 L1501.17,1131.3 L1500.3,1129.22 L1498.93,1127.27 L1497.16,1125.19 L1495.95,1123.09 L1495.52,1120.98 L1495.86,1119.18 L1497.07,1115.77 L1497.26,1114.41 L1496.88,1113.2 L1495.77,1111.43 L1495.27,1110.29 L1494.74,1107.1 L1494.65,1103.87 L1494.21,1102.01 L1494.15,1100.37 L1494.31,1098.82 L1495.49,1096 L1496.29,1094.27 L1498.53,1094.61 L1500.48,1094.55 L1501.54,1093.49 L1501.88,1092.32 L1501.88,1090.39 L1501.63,1089.19 L1500.64,1086.37 L1499.89,1082.56 L1499.61,1079.55 L1498.74,1077.32 L1498.34,1075.93 L1498.06,1074.81 L1498.16,1073.88 L1498.34,1072.27 L1499.21,1070.69 L1499.64,1068.83 L1500.3,1065.98 L1500.14,1064.62 L1499.55,1062.98 L1498.71,1061.95 L1497.16,1060.84 L1495.14,1060.84 L1494.93,1059.85 L1496.2,1055.26 L1496.73,1053.5 L1497.97,1051.95 L1499.18,1051.11 L1500.67,1050.4 L1502.87,1050.21 L1506.75,1049.56 L1508.89,1048.42 L1510.85,1047.98 L1513.95,1048.51 L1515.01,1047.98 L1515.85,1046.99 L1517.21,1043.99 L1517.49,1041.94 L1517.83,1039.43 L1518.14,1038.26 L1519.04,1037.05 L1522.46,1034.29 L1523.51,1033.27 L1524.1,1032.43 L1524.75,1030.54 L1524.88,1028.56 L1525.65,1024.69 L1527.2,1021.62 L1528.57,1019.33 L1530.37,1018 L1533.01,1016.2 L1533.72,1014.84 L1533.94,1013.66 L1534.06,1012.12 L1535.06,1005.46 L1535.74,1004.16 L1537.38,1002.89 L1539,1002.42 L1540.46,1002.08 L1541.79,1001.83 L1545.05,1001.43 L1546.6,1000.81 L1547.59,1000.1 L1548.99,998.179 L1549.64,997.188 L1550.2,995.33 L1550.88,993.72 L1551.22,991.49 L1552.09,988.827 L1552.75,987.65 L1554.24,986.164 L1555.01,985.73 L1557.03,985.297 L1559.29,985.73 L1560.23,985.823 L1562.18,985.482 L1563.55,984.337 L1565.04,983.16 L1566,981.798 L1566.9,979.382 L1567.67,978.608 L1568.7,978.268 L1569.6,977.772 L1571.37,977.401 L1574.75,975.821 L1577.23,974.273 L1578.13,973.654 L1579.34,972.632 L1580.15,971.672 L1580.65,969.876 L1580.99,968.359 L1582.01,965.015 L1583.07,962.848 L1583.75,959.782 L1584.28,955.231 L1584.28,952.847 L1583.84,951.144 L1582.45,948.915 L1580.8,945.386 L1579.72,942.352 L1578.91,938.977 L1579.34,936.903 L1581.14,934.643 L1584.09,931.702 L1586.29,928.947 L1587.78,926.378 L1588.22,924.366 L1588.44,921.363 L1587.5,918.422 L1587.19,916.193 L1587.16,915.017 L1586.98,912.695 L1586.67,910.838 L1585.74,909.631 L1585.02,908.61 L1584.28,907.557 L1583.9,906.195 L1583.72,905.019 L1583.32,903.781 L1582.97,901.676 L1582.82,900.748 L1582.69,899.293 L1582.63,897.621 L1582.6,895.857 L1582.29,894.65 L1582.01,893.691 L1581.39,892.576 L1580.49,891.617 L1579.56,890.719 L1578.5,889.481 L1577.39,888.367 L1576.64,887.624 L1575.99,886.417 L1575.59,885.055 L1575.31,883.879 L1574.81,881.403 L1574.81,879.98 L1574.81,876.297 L1574.84,875.275 L1574.9,874.254 L1574.66,873.233 L1574.28,872.366 L1573.69,870.943 L1572.92,869.457 L1572.27,868.281 L1571.18,864.846 L1569.75,861.349 L1569.35,859.369 L1568.79,856.615 L1568.57,855.593 L1568.82,853.211 L1569.16,851.88 L1569.72,850.487 L1570.28,849.126 L1570.78,847.207 L1570.84,845.01 L1569.75,843.865 L1567.86,842.937 L1566.93,842.442 L1566.31,841.39 L1565.72,839.255 L1564.6,837.894 L1562.46,836.161 L1560.63,833.221 L1559.73,832.169 L1558.15,829.694 L1558.27,828.487 L1558.7,824.217 L1558.7,820.814 L1558.24,817.72 L1557.93,816.854 L1557.49,816.018 L1556.9,815.121 L1554.3,813.11 L1549.18,809.892 L1547.94,808.779 L1547.25,807.943 L1545.89,806.922 L1544.61,805.716 L1541.79,801.941 L1541.14,799.59 L1540.92,798.043 L1540.83,796.404 L1540.98,794.95 L1541.32,793.558 L1541.7,792.537 L1542.47,791.454 L1543.71,790.402 L1544.92,789.722 L1546.85,788.886 L1548.62,787.525 L1549.67,785.793 L1550.08,784.617 L1550.42,783.133 L1550.2,780.225 L1549.64,778.585 L1548.74,777.657 L1546.23,775.987 L1543.5,774.44 L1541.17,771.966 L1540.21,770.295 L1539.8,768.594 L1540.11,767.419 L1540.74,765.872 L1541.95,764.14 L1544.58,761.913 L1545.45,761.511 L1546.63,760.49 L1550.6,757.737 L1552.68,755.603 L1555.41,751.211 L1557.99,746.107 L1559.6,743.602 L1561.4,740.788 L1562.21,739.674 L1563.24,738.035 L1563.83,737.045 L1564.45,735.932 L1565.53,733.891 L1566.46,732.159 L1566.9,730.891 L1566.77,728.633 L1566.06,726.747 L1564.69,722.417 L1564.69,720.623 L1565.38,719.17 L1568.05,716.17 L1569.04,714.717 L1569.26,713.542 L1569.04,712.397 L1569.63,709.954 L1571.49,708.625 L1572.39,706.398 L1572.48,704.636 L1572.05,703.584 L1571.4,702.842 L1570.03,701.822 L1566.99,700.77 L1565.38,699.997 L1564.07,698.884 L1563.33,696.936 L1563.39,695.112 L1563.67,693.689 L1565.44,689.175 L1565.31,687.629 L1562.96,684.382 L1558.86,681.012 L1555.76,678.693 L1551.91,676.683 L1547.25,673.56 L1546.32,673.313 L1545.3,673.344 L1542.44,674.797 L1540.98,675.013 L1538.84,674.117 L1537.57,672.725 L1537.1,671.798 L1537.04,670.499 L1536.64,667.995 L1536.86,665.707 L1536.89,664.501 L1537.29,662.955 L1537.41,658.812 L1536.76,657.174 L1535.74,655.381 L1534.06,653.216 L1531.92,649.723 L1531.11,647.528 L1530.87,646.137 L1530.03,641.592 L1529.9,639.923 L1529.84,638.934 L1529.66,634.698 L1529.47,633.214 L1529.25,631.669 L1529,629.289 L1529.07,627.774 L1530.25,623.662 L1531.3,621.777 L1532.82,619.829 L1537.29,614.853 L1539.31,612.102 L1541.54,609.474 L1542.47,608.609 L1543.81,606.97 L1545.64,605.363 L1546.76,604.529 L1547.69,604.189 L1548.52,603.879 L1551.13,603.663 L1553.71,603.787 L1556.35,603.972 L1558.7,604.065 L1559.79,603.849 L1560.63,603.292 L1560.91,601.963 L1560.63,601.067 L1559.17,599.552 L1556.35,597.512 L1555.41,596.121 L1555.35,595.194 L1555.79,593.896 L1556.63,592.721 L1558.05,591.578 L1560.13,590.589 L1562.99,589.909 L1563.98,589.445 L1566,587.343 L1568.26,584.16 L1569.81,581.347 L1570.37,579.647 L1570.78,577.979 L1571.99,574.486 L1572.42,572.199 L1573.88,568.151 L1574.47,566.976 L1575.99,564.226 L1577.88,560.919 L1578.69,556.809 L1579.44,555.294 L1579.68,554.305 L1580.74,552.729 L1583.04,551.617 L1584.09,552.389 L1584.84,553.502 L1585.86,554.398 L1587.44,554.738 L1588.47,554.305 L1589.21,553.038 L1590.24,550.133 L1590.76,548.712 L1591.23,544.169 L1591.91,542.81 L1592.69,542.099 L1596.19,539.101 L1598.09,537.773 L1602.22,535.764 L1605.82,533.57 L1607.27,532.118 L1608.83,530.325 L1610.69,527.606 L1611.31,525.196 L1611.56,523.033 L1611.62,522.106 L1611.74,520.592 L1611.87,519.665 L1612.21,517.317 L1613.45,515.895 L1613.7,514.845 L1615.93,511.199 L1617.92,506.842 L1619.19,503.567 L1622.17,498.284 L1623.23,495.874 L1626.08,493.433 L1627.26,492.444 L1628.44,491.178 L1627.88,489.633 L1627.07,488.768 L1625.31,487.007 L1624.1,484.319 L1623.85,483.176 L1623.97,481.971 L1624.34,480.673 L1625.46,479.407 L1626.58,478.541 L1627.45,477.244 L1628.44,474.247 L1628.47,471.807 L1627.66,469.891 L1624.75,464.856 L1624.06,463.435 L1623.97,462.322 L1624.19,461.025 L1624.5,459.326 L1625.99,455.495 L1626.92,454.013 L1628.28,452.283 L1630.67,449.997 L1631.73,449.41 L1632.75,448.051 L1633.5,447.34 L1634.83,445.116 L1636.94,442.737 L1637.91,442.12 L1638.93,441.872 L1642.47,439.648 L1643.49,438.104 L1643.99,436.992 L1644.7,435.756 L1645.11,434.459 L1645.6,430.073 L1645.94,429.146 L1647.19,427.354 L1648.52,426.582 L1649.89,425.934 L1651.65,424.945 L1652.59,424.636 L1654.57,424.266 L1656.71,423.432 L1658.05,422.937 L1659.26,422.134 L1659.88,421.455 L1660.87,419.571 L1661.4,418.335 L1662.45,416.667 L1664.75,413.609 L1665.59,412.652 L1667.36,410.953 L1669.41,408.39 L1670.52,406.876 L1670.86,405.517 L1670.37,403.17 L1670.37,400.915 L1671.02,399.711 L1671.73,398.66 L1673.84,397.116 L1675.09,396.468 L1677.79,395.325 L1678.9,394.46 L1679.37,392.422 L1679.52,390.877 L1679.52,387.449 L1679.96,386.43 L1681.26,385.164 L1682.53,384.577 L1683.65,384.639 L1684.86,385.504 L1685.08,386.986 L1684.74,390.785 L1684.95,391.835 L1685.85,393.379 L1689.11,396.004 L1691.19,396.468 L1692.59,396.622 L1693.71,396.529 L1695.17,395.695 L1696.97,394.244 L1698.49,392.175 L1699.17,390.877 L1699.98,388.777 L1700.66,387.665 L1701.93,386.955 L1703.48,386.77 L1704.76,386.862 L1705.87,387.449 L1706.56,388.067 L1706.4,391.155 L1706.74,392.329 L1708.29,393.132 L1710.84,393.348 L1712.2,392.7 L1713.35,391.063 L1714.28,388.685 L1714.28,386.955 L1714,385.071 L1715.12,384.546 L1716.49,384.762 L1718.32,385.596 L1720.06,386.43 L1721.08,386.554 L1723.07,386.183 L1724.93,385.658 L1726.48,384.917 L1728.19,383.867 L1731.38,381.334 L1732.5,380.747 L1733.4,380.531 L1735.48,380.747 L1736.5,381.18 L1737.62,381.859 L1738.74,382.755 L1741.16,385.226 L1741.9,385.751 L1743.36,386.43 L1744.39,386.554 L1745.29,386.523 L1751.43,383.959 L1752.92,383.187 L1755.71,381.921 L1758.97,380.717 L1760.65,380.284 L1770.61,381.303 L1772.63,380.964 L1773.68,380.13 L1774.43,378.678 L1774.77,377.721 L1774.8,375.93 L1774.55,372.872 L1774.68,371.483 L1775.24,370.371 L1775.89,369.599 L1778.03,367.808 L1782.16,367.808 L1787.06,366.912 L1788.8,366.202 L1789.82,364.936 L1790.6,362.774 L1790.75,361.168 L1790.85,360.118 L1791.28,359.099 L1791.87,357.648 L1792.96,356.814 L1794.38,356.381 L1797.21,355.764 L1797.55,354.59 L1797.21,353.293 L1796.18,352.46 L1796.43,350.483 L1796.96,348.26 L1797.64,346.376 L1798.33,345.388 L1799.26,344.493 L1800.81,343.69 L1803.69,343.257 L1805.28,342.454 L1806.18,341.188 L1806.3,340.108 L1806.05,338.965 L1805.49,338.008 L1803.73,337.112 L1801.68,336.649 L1798.57,336.433 L1796.09,336.464 L1794.94,336.124 L1794.35,335.476 L1794.11,334.333 L1794.11,333.314 L1794.54,332.295 L1795.22,331.616 L1796.65,330.165 L1798.67,328.528 L1800.13,327.602 L1803.11,326.922 L1804.32,326.83 L1807.33,326.675 L1808.97,326.614 L1809.9,326.675 L1811.17,326.521 L1812.38,326.181 L1813.69,325.626 L1814.96,324.885 L1818.31,324.545 L1819.52,324.36 L1821.85,324.02 L1822.94,323.742 L1823.9,323.155 L1825.61,322.476 L1826.63,322.476 L1828.15,322.507 L1829.27,322.908 L1832.87,322.63 L1836,321.025 L1837.12,319.852 L1838.8,317.906 L1840.29,316.671 L1841.15,315.652 L1842.24,314.448 L1843.2,314.232 L1843.17,313.182 L1843.89,312.595 L1844.32,311.484 L1844.51,310.125 L1844.63,307.624 L1844.91,306.081 L1845.34,305.093 L1846.03,302.931 L1847.08,301.82 L1848.57,301.418 L1849.69,301.665 L1850.56,302.437 L1852.48,304.629 L1853.94,305.062 L1854.93,304.568 L1855.37,302.592 L1854.84,298.67 L1854.81,297.065 L1855.31,295.768 L1855.52,294.749 L1855.96,293.144 L1856.83,291.662 L1858.56,290.303 L1859.5,289.099 L1859.34,285.58 L1859.06,283.974 L1859,282.245 L1859.31,281.257 L1860.02,279.899 L1861.39,278.232 L1863.22,277.306 L1865.36,277.059 L1866.94,276.812 L1867.97,276.318 L1868.74,275.855 L1869.86,274.928 L1870.92,273.755 L1872.9,271.255 L1874.42,268.939 L1875.79,266.994 L1876.69,265.204 L1877.09,264.061 L1878.15,262.024 L1879.05,261.159 L1880.04,260.388 L1881.65,259.894 L1883.11,258.628 L1884.32,258.35 L1886.09,257.517 L1887.8,256.93 L1888.61,256.405 L1889.57,255.14 L1890.5,254.244 L1891.49,252.207 L1891.93,250.262 L1892.52,247.237 L1892.52,245.323 L1892.73,244.273 L1893.82,242.051 L1894.88,240.631 L1895.81,239.735 L1898.91,237.204 L1899.34,236.062 L1899.25,234.457 L1898.48,231.833 L1898.1,230.876 L1897.42,229.487 L1896.52,228.129 L1895.96,227.449 L1894.78,226.03 L1890.5,222.665 L1887.05,220.566 L1884.91,219.084 L1883.73,217.88 L1880.17,213.219 L1877.96,208.929 L1877.81,207.972 L1878.02,206.274 L1879.08,204.145 L1879.23,201.614 L1879.27,198.867 L1878.64,195.471 L1878.89,194.329 L1879.85,193.496 L1883.73,192.724 L1884.91,191.891 L1885.32,190.162 L1883.86,187.446 L1883.61,186.551 L1883.55,184.854 L1883.55,183.403 L1882.96,181.397 L1882.74,179.576 L1882.77,177.199 L1884.11,175.718 L1885.75,174.823 L1886.53,174.267 L1890.07,171.706 L1891.62,172.755 L1892.55,172.416 L1893.42,172.076 L1894.44,171.397 L1895.53,170.471 L1896.55,169.823 L1897.54,169.483 L1898.91,169.36 L1900.03,169.483 L1901.02,170.255 L1902.14,170.934 L1903.29,171.613 L1904.12,172.755" fill-rule="evenodd" vector-effect="none"/>
  </g>
  <g stroke-width="1" font-family="MS Shell Dlg 2" transform="matrix(0.999744,0,0,0.999744,0,0)" stroke-opacity="1" stroke-linecap="square" font-weight="400" font-style="normal" stroke-linejoin="bevel" font-size="34.5833" fill="none" stroke="#000000"/>
  <g stroke-width="1" font-family="MS Shell Dlg 2" transform="matrix(11.808,0,0,11.808,0,0)" stroke-opacity="1" stroke-linecap="square" font-weight="400" font-style="normal" stroke-linejoin="bevel" font-size="34.5833" fill="none" stroke="#000000"/>
  <g stroke-width="1" font-family="MS Shell Dlg 2" transform="matrix(11.808,0,0,11.808,0,0)" stroke-opacity="1" stroke-linecap="square" font-weight="400" font-style="normal" stroke-linejoin="bevel" font-size="34.5833" fill="none" stroke="#000000"/>
  <g stroke-width="1" font-family="MS Shell Dlg 2" transform="matrix(11.808,0,0,11.808,0,0)" stroke-opacity="1" stroke-linecap="square" font-weight="400" font-style="normal" stroke-linejoin="bevel" font-size="34.5833" fill="none" stroke="#000000"/>
  <g stroke-width="1" font-family="MS Shell Dlg 2" transform="matrix(1,0,0,1,0,0)" stroke-opacity="1" stroke-linecap="square" font-weight="400" font-style="normal" stroke-linejoin="bevel" font-size="34.5833" fill="none" stroke="#000000"/>
  <g stroke-width="1" font-family="MS Shell Dlg 2" transform="matrix(11.808,0,0,11.808,0,0)" stroke-opacity="1" stroke-linecap="square" font-weight="400" font-style="normal" stroke-linejoin="bevel" font-size="34.5833" fill="none" stroke="#000000"/>
  <g stroke-width="1" font-family="MS Shell Dlg 2" transform="matrix(11.808,0,0,11.808,0,0)" stroke-opacity="1" stroke-linecap="square" font-weight="400" font-style="normal" stroke-linejoin="bevel" font-size="34.5833" fill="none" stroke="#000000"/>
  <g stroke-width="1" font-family="MS Shell Dlg 2" transform="matrix(11.808,0,0,11.808,0,0)" stroke-opacity="1" stroke-linecap="square" font-weight="400" font-style="normal" stroke-linejoin="bevel" font-size="34.5833" fill="none" stroke="#000000"/>
  <g stroke-width="1" font-family="MS Shell Dlg 2" transform="matrix(11.808,0,0,11.808,0,0)" stroke-opacity="1" stroke-linecap="square" font-weight="400" font-style="normal" stroke-linejoin="bevel" font-size="34.5833" fill="none" stroke="#000000"/>
  <g stroke-width="1" font-family="MS Shell Dlg 2" transform="matrix(1,0,0,1,0,0)" stroke-opacity="1" stroke-linecap="square" font-weight="400" font-style="normal" stroke-linejoin="bevel" font-size="34.5833" fill="none" stroke="#000000"/>
 </g>
</svg>
