<?xml version='1.0' encoding='UTF-8' standalone='no'?>
<svg xmlns="http://www.w3.org/2000/svg" height="249.936mm" version="1.2" baseProfile="tiny" viewBox="0 0 2952 2952" width="249.936mm" xmlns:xlink="http://www.w3.org/1999/xlink">
 <title>Qt SVG Document</title>
 <desc>Generated with Qt</desc>
 <defs/>
 <g stroke-width="1" stroke-linecap="square" stroke-linejoin="bevel" fill-rule="evenodd" fill="none" stroke="black">
  <g stroke-width="1" font-family="MS Shell Dlg 2" transform="matrix(1,0,0,1,0,0)" stroke-opacity="1" stroke-linecap="square" font-weight="400" font-style="normal" stroke-linejoin="bevel" font-size="34.5833" fill="none" stroke="#000000"/>
  <g stroke-width="1" font-family="MS Shell Dlg 2" transform="matrix(1,0,0,1,0,0)" stroke-opacity="1" stroke-linecap="square" font-weight="400" font-style="normal" stroke-linejoin="bevel" font-size="34.5833" fill="none" stroke="#000000"/>
  <g stroke-width="1" font-family="MS Shell Dlg 2" transform="matrix(11.808,0,0,11.808,0,0)" stroke-opacity="1" stroke-linecap="square" font-weight="400" font-style="normal" stroke-linejoin="bevel" font-size="34.5833" fill="none" stroke="#000000"/>
  <g stroke-width="1" font-family="MS Shell Dlg 2" transform="matrix(0.999744,0,0,0.999744,0,0)" stroke-opacity="1" stroke-linecap="square" font-weight="400" font-style="normal" stroke-linejoin="bevel" font-size="34.5833" fill="none" stroke="#000000"/>
  <g font-family="MS Shell Dlg 2" transform="matrix(0.999744,0,0,0.999744,0,0)" fill-opacity="0" font-weight="400" font-style="normal" font-size="34.5833" fill="#ffffff" stroke="none">
   <path d="M-2,-2 L2955,-2 L2955,2955 L-2,2955 L-2,-2" fill-rule="evenodd" vector-effect="none"/>
  </g>
  <g stroke-width="1" font-family="MS Shell Dlg 2" transform="matrix(0.999744,0,0,0.999744,0,0)" stroke-opacity="1" stroke-linecap="square" font-weight="400" font-style="normal" stroke-linejoin="bevel" font-size="34.5833" fill="none" stroke="#000000"/>
  <g stroke-width="1" font-family="MS Shell Dlg 2" transform="matrix(11.808,0,0,11.808,0,0)" stroke-opacity="1" stroke-linecap="square" font-weight="400" font-style="normal" stroke-linejoin="bevel" font-size="34.5833" fill="none" stroke="#000000"/>
  <g stroke-width="1" font-family="MS Shell Dlg 2" transform="matrix(11.808,0,0,11.808,0,0)" stroke-opacity="1" stroke-linecap="square" font-weight="400" font-style="normal" stroke-linejoin="bevel" font-size="34.5833" fill="none" stroke="#000000"/>
  <g stroke-width="1" font-family="MS Shell Dlg 2" transform="matrix(11.808,0,0,11.808,0,0)" stroke-opacity="1" stroke-linecap="square" font-weight="400" font-style="normal" stroke-linejoin="bevel" font-size="34.5833" fill="none" stroke="#000000"/>
  <g stroke-width="1" font-family="MS Shell Dlg 2" transform="matrix(11.808,0,0,11.808,0,0)" stroke-opacity="1" stroke-linecap="square" font-weight="400" font-style="normal" stroke-linejoin="bevel" font-size="34.5833" fill="none" stroke="#000000"/>
  <g stroke-width="1" font-family="MS Shell Dlg 2" transform="matrix(11.808,0,0,11.808,0,0)" stroke-opacity="1" stroke-linecap="square" font-weight="400" font-style="normal" stroke-linejoin="bevel" font-size="34.5833" fill="none" stroke="#000000"/>
  <g font-family="MS Shell Dlg 2" transform="matrix(11.808,0,0,11.808,0,0)" fill-opacity="0" font-weight="400" font-style="normal" font-size="34.5833" fill="#ffffff" stroke="none">
   <path d="M0,0 L250,0 L250,250 L0,250 L0,0" fill-rule="evenodd" vector-effect="none"/>
  </g>
  <g stroke-width="1" font-family="MS Shell Dlg 2" transform="matrix(11.808,0,0,11.808,0,0)" stroke-opacity="1" stroke-linecap="square" font-weight="400" font-style="normal" stroke-linejoin="bevel" font-size="34.5833" fill="none" stroke="#000000"/>
  <g stroke-width="1" font-family="MS Shell Dlg 2" transform="matrix(11.808,0,0,11.808,0,0)" stroke-opacity="1" stroke-linecap="square" font-weight="400" font-style="normal" stroke-linejoin="bevel" font-size="34.5833" fill="none" stroke="#000000"/>
  <g font-family="MS Shell Dlg 2" transform="matrix(0.999744,0,0,0.999744,0,0)" fill-opacity="0" font-weight="400" font-style="normal" font-size="34.5833" fill="#000000" stroke="none">
   <rect height="2953" y="0" x="0" width="2953"/>
  </g>
  <g stroke-width="1" font-family="MS Shell Dlg 2" transform="matrix(0.999744,0,0,0.999744,0,0)" stroke-opacity="1" stroke-linecap="square" font-weight="400" font-style="normal" stroke-linejoin="bevel" font-size="34.5833" fill="none" stroke="#000000"/>
  <g stroke-width="3.07087" font-family="MS Shell Dlg 2" transform="matrix(0.999744,0,0,0.999744,0,0)" fill-opacity="1" stroke-opacity="1" stroke-linecap="square" font-weight="400" font-style="normal" stroke-linejoin="bevel" font-size="34.5833" fill="#c5c5c5" stroke="#5c5c5c">
   <path d="M2475.96,1815.57 L2475.25,1816.25 L2475.15,1817.66 L2476.57,1816.9 L2476.81,1818.17 L2477.75,1818.93 L2478.53,1817.93 L2479.64,1817.83 L2480.66,1819.07 L2479.81,1820.23 L2478.8,1820.68 L2480.96,1821.95 L2481.98,1823.77 L2482.35,1824.8 L2481.71,1826.31 L2483.16,1826.72 L2484.75,1827.47 L2486,1828.71 L2487.42,1829.7 L2489.51,1830.49 L2491.3,1830.7 L2493.06,1829.63 L2494.48,1829.33 L2495.12,1830.18 L2496.27,1830.94 L2497.39,1830.46 L2498.5,1830.18 L2499.28,1830.94 L2501.41,1830.29 L2502.32,1829.7 L2503.57,1829.36 L2505.03,1829.91 L2506.48,1831.59 L2507.73,1833.07 L2508.68,1833.79 L2509.55,1834.85 L2510.64,1835.33 L2511.78,1835.71 L2512.93,1837.15 L2512.97,1838.63 L2511.99,1841.99 L2511.99,1843.88 L2513.07,1844.25 L2513.58,1845.21 L2513.95,1846.18 L2514.05,1847.93 L2513.2,1848.44 L2513.37,1850.29 L2512.73,1851.53 L2512.26,1852.7 L2514.05,1853.93 L2515.4,1854.1 L2516.28,1854.79 L2516.99,1855.62 L2517.12,1856.78 L2516.65,1857.71 L2517.6,1859.05 L2517.94,1860.49 L2517.67,1862.31 L2515.98,1862.07 L2514.79,1863.44 L2516.25,1864.37 L2517.23,1865.3 L2518.24,1866.46 L2518.92,1868.76 L2517.7,1870.72 L2516.25,1871.27 L2515.81,1872.92 L2515.77,1874.22 L2514.66,1875.97 L2517.94,1877.21 L2518.81,1879.65 L2519.56,1882.12 L2520.67,1883.39 L2520.27,1884.28 L2520.5,1885.45 L2521.99,1885.52 L2523.34,1886.38 L2523.95,1888.61 L2525.64,1888.88 L2527.2,1890.57 L2528.48,1891.53 L2530.54,1892.45 L2531.59,1892.97 L2531.99,1893.96 L2532.13,1895.72 L2533.58,1898.39 L2537.13,1900.08 L2537.94,1900.9 L2541.02,1904.85 L2541.52,1906.33 L2541.29,1907.6 L2541.52,1908.84 L2541.32,1910.55 L2541.49,1916.25 L2541.05,1920.96 L2541.39,1922.88 L2541.42,1924.77 L2540.58,1926.18 L2538.25,1928.31 L2537.77,1930.1 L2538.58,1933.02 L2538.79,1935.22 L2539.23,1936.52 L2541.05,1939.99 L2541.15,1941.78 L2541.22,1943.33 L2542,1944.7 L2543.55,1945.8 L2543.49,1947.31 L2544.47,1950.4 L2546.02,1950.33 L2583.53,1983.09 L2582.35,1983.33 L2580.19,1983.98 L2577.65,1984.84 L2577.28,1986.04 L2576.37,1987.01 L2575.79,1988.04 L2574.51,1989.14 L2573.66,1990.82 L2573.56,1992.37 L2572.45,1993.37 L2571.43,1994.47 L2570.59,1995.36 L2568.6,1996.67 L2569,1998.83 L2568.9,2000.04 L2567.21,2000.24 L2566.09,2001.82 L2565.25,2002.82 L2564.24,2004.02 L2564.24,2005.64 L2563.39,2008.05 L2560.86,2012.04 L2560.59,2015.16 L2560.75,2016.4 L2561.57,2017.47 L2560.82,2019.19 L2561.3,2023.9 L2560.32,2026.58 L2559.07,2028.27 L2556.43,2030.54 L2554.84,2030.95 L2553.76,2031.12 L2552.61,2031.77 L2551.49,2032.29 L2550.68,2033.01 L2549.64,2034.25 L2548.12,2034.84 L2547.03,2035.21 L2546.36,2036.11 L2545.58,2036.73 L2544.7,2037.21 L2543.86,2037.97 L2542.91,2038.28 L2541.96,2038.72 L2541.96,2039.86 L2542.13,2040.92 L2542.74,2043.09 L2543.01,2044.64 L2543.82,2045.7 L2543.62,2047.05 L2542.88,2048.04 L2542.74,2049.28 L2542.54,2050.66 L2541.63,2051.52 L2541.05,2052.76 L2540.31,2053.75 L2539.36,2054.37 L2538.11,2055.1 L2537.27,2056.16 L2536.35,2057.95 L2535.68,2059.78 L2534.97,2060.74 L2534.33,2061.56 L2533.18,2062.6 L2532.23,2064.04 L2531.39,2065.42 L2530.54,2066.24 L2529.83,2067 L2528.95,2067.69 L2527.94,2068.89 L2527.23,2069.86 L2526.45,2070.44 L2525.61,2071.78 L2524.69,2072.4 L2523.58,2072.88 L2522.46,2073.4 L2521.01,2073.88 L2519.9,2074.33 L2518.14,2074.78 L2516.45,2075.64 L2515.3,2074.54 L2515.03,2072.92 L2514.76,2070.79 L2514.05,2069.68 L2512.73,2069.37 L2511.48,2069.31 L2510.26,2069.17 L2508.91,2069.1 L2507.7,2069.31 L2506.55,2069.65 L2505.5,2070.89 L2505.26,2072.4 L2506.01,2073.37 L2504.96,2074.5 L2503.94,2075.29 L2502.63,2075.29 L2502.09,2076.12 L2501.41,2076.88 L2500.16,2077.5 L2498.81,2078.22 L2497.93,2078.7 L2497.22,2079.73 L2496.91,2081.28 L2495.9,2082.86 L2494.95,2083.96 L2493.64,2085.48 L2492.55,2086.34 L2491.98,2087.75 L2491.68,2088.82 L2491.61,2090.12 L2492.22,2091.64 L2492.32,2093.36 L2491.1,2093.84 L2489.88,2094.01 L2487.92,2094.15 L2486.71,2095.53 L2485.73,2096.66 L2485.32,2097.63 L2485.02,2098.97 L2484.98,2100.04 L2485.36,2101.48 L2485.36,2102.96 L2485.49,2104.41 L2485.9,2105.61 L2486.84,2106.23 L2488.67,2106.68 L2488.7,2108.4 L2487.92,2110.02 L2487.08,2110.95 L2486.71,2111.91 L2485.63,2112.77 L2484.48,2113.53 L2483.16,2115.84 L2482.55,2116.94 L2482.52,2118.83 L2483.63,2121.76 L2484.38,2123.76 L2485.49,2125.34 L2486.57,2126.61 L2485.8,2127.54 L2485.25,2128.75 L2485.05,2129.92 L2485.22,2130.88 L2485.49,2132.02 L2485.9,2133.05 L2486.84,2134.19 L2487.65,2135.43 L2487.42,2136.56 L2485.96,2136.67 L2484.68,2137.46 L2484.58,2139.18 L2484.78,2140.77 L2485.15,2141.94 L2485.53,2143.8 L2485.36,2145.24 L2484.95,2146.76 L2484.04,2148.69 L2483.36,2150 L2483.06,2151.17 L2483.19,2152.48 L2482.82,2153.75 L2482.21,2154.78 L2479.64,2159.26 L2479.98,2161.36 L2480.86,2166.67 L2480.93,2169.08 L2480.02,2172.32 L2479.24,2174.21 L2477.92,2176.41 L2474.64,2179.38 L2473.36,2180.2 L2472.82,2181.13 L2472.14,2182.31 L2471.97,2184.37 L2471.2,2186.82 L2470.35,2188.58 L2469.74,2189.96 L2469.17,2190.85 L2468.53,2192.33 L2468.15,2195.05 L2468.05,2196.05 L2466.36,2195.92 L2463.46,2196.81 L2462.54,2197.78 L2461.06,2198.54 L2460.45,2199.78 L2456.8,2197.64 L2454.77,2199.26 L2452.24,2199.57 L2451.05,2199.91 L2449.36,2199.53 L2447.57,2199.57 L2445.71,2198.88 L2443.72,2200.05 L2443.45,2201.53 L2442.37,2203.91 L2439.6,2205.94 L2438.51,2208.53 L2438.21,2210.01 L2436.66,2211.36 L2435.44,2212.49 L2434.97,2214.04 L2434.8,2216.42 L2435.61,2217.46 L2434.93,2219.35 L2433.48,2219.7 L2432.03,2221.39 L2430.2,2221.73 L2428.58,2222.32 L2427.36,2222.63 L2426.01,2223.45 L2425.54,2224.9 L2424.49,2226.07 L2423.91,2227.28 L2423.75,2228.62 L2422.36,2229.28 L2421.01,2230.69 L2420.91,2232.24 L2419.56,2233.04 L2418.47,2234.42 L2417.49,2235.48 L2416.99,2236.52 L2415.33,2236.55 L2413.57,2236.83 L2411.99,2237.79 L2411.58,2239.28 L2411.78,2240.24 L2411.61,2241.28 L2412.22,2242.24 L2411.85,2243.52 L2413.1,2245.03 L2412.59,2246.83 L2413.54,2247.96 L2414.01,2248.86 L2413.47,2249.96 L2412.69,2251.34 L2413.47,2252.1 L2414.01,2253.45 L2413.74,2255.83 L2412.83,2256.83 L2413.81,2257.21 L2415.63,2258.21 L2416.65,2259.83 L2415.77,2261.52 L2414.86,2262.1 L2414.18,2263.65 L2413.3,2265.03 L2412.22,2265.9 L2411.31,2266.66 L2409.55,2269.03 L2408.34,2269.66 L2407.83,2270.79 L2406.37,2270.52 L2405.12,2271.66 L2404.31,2273.28 L2403.54,2275.14 L2403.33,2276.14 L2403.64,2277.17 L2403.47,2278.8 L2402.15,2279.93 L2401.98,2280.97 L2401.47,2281.83 L2401.14,2283 L2399.89,2284.21 L2399.24,2285.18 L2398.23,2286.25 L2397.82,2288.73 L2396.71,2289.45 L2396.47,2290.87 L2396.91,2292.42 L2397.45,2293.87 L2397.76,2296.84 L2396.91,2298.25 L2394.78,2298.8 L2394.21,2299.98 L2394.38,2301.87 L2393.94,2302.81 L2393.09,2303.94 L2390.86,2303.6 L2388.77,2304.19 L2388.6,2305.7 L2388.87,2307.05 L2388.67,2308.26 L2388.77,2310.64 L2388.02,2311.64 L2386.71,2312.57 L2385.52,2313.4 L2384.88,2312.29 L2384.31,2313.5 L2385.52,2313.4 L2384.98,2315.02 L2385.49,2316.47 L2384.14,2316.85 L2384.31,2318.2 L2383.26,2318.4 L2382.18,2319.65 L2381.47,2321.92 L2382.58,2323.44 L2383.93,2324.61 L2384.1,2325.75 L2383.9,2327.38 L2383.06,2328.86 L2382.45,2330 L2382.51,2331.24 L2382.35,2332.35 L2382.72,2333.48 L2382.35,2335.11 L2381.81,2336.69 L2380.39,2337.21 L2380.01,2338.21 L2380.55,2339.08 L2379.37,2339.46 L2379.41,2340.91 L2380.08,2341.84 L2379.51,2343.22 L2379.54,2344.74 L2379.61,2346.08 L2380.35,2347.02 L2381.23,2349.43 L2381.5,2351.09 L2381.5,2352.26 L2380.45,2352.47 L2379.51,2353.3 L2379.27,2355.3 L2379.51,2356.75 L2378.9,2357.61 L2379.27,2358.55 L2378.29,2360 L2378.02,2361.41 L2378.32,2362.38 L2377.92,2363.45 L2377.58,2364.9 L2376.57,2366.9 L2375.49,2366.97 L2374.03,2366.87 L2372.51,2367.42 L2372.44,2368.53 L2371.33,2369.53 L2369.6,2369.56 L2368.59,2369.29 L2366.8,2371.18 L2366.26,2372.29 L2365.31,2372.77 L2364.2,2373.88 L2363.76,2375.12 L2362.17,2376.26 L2361.43,2378.51 L2359.09,2378.64 L2357.78,2379.02 L2356.26,2379.58 L2355.21,2380.06 L2353.25,2379.89 L2351.66,2379.3 L2350.07,2379.02 L2349.16,2379.85 L2345.78,2380.13 L2344.66,2381.13 L2343.51,2380.61 L2342.23,2381.37 L2340.47,2382.13 L2339.09,2382.24 L2337.94,2382.17 L2336.99,2382.99 L2334.96,2383.79 L2334.09,2385 L2332.53,2386.24 L2331.38,2387.1 L2330.06,2387.21 L2328.2,2388.59 L2327.97,2390.73 L2328.31,2392.49 L2327.66,2393.98 L2327.02,2395.22 L2324.96,2395.26 L2323.81,2395.15 L2323.34,2396.36 L2322.53,2398.95 L2320.16,2399.47 L2319.62,2400.58 L2318.84,2401.23 L2317.56,2401.85 L2316.27,2402.79 L2314.69,2403.68 L2312.46,2405.07 L2311.1,2405.45 L2310.02,2404.69 L2309.08,2405 L2308.7,2406.45 L2307.39,2407.21 L2306.27,2406.83 L2304.78,2407.66 L2302.99,2406.59 L2301.37,2405.72 L2300.19,2406.31 L2297.82,2406.48 L2296.74,2406.41 L2295.63,2406.72 L2294.95,2407.76 L2294,2407.31 L2293.56,2408.31 L2293.33,2409.59 L2292.21,2410.53 L2291.23,2411.84 L2291,2412.91 L2291.87,2414.08 L2291,2415.22 L2289.51,2414.57 L2286.97,2417.09 L2285.69,2417.88 L2284.37,2418.33 L2283.15,2419.06 L2282.61,2421.06 L2281.46,2419.96 L2280.76,2421.41 L2279.81,2422.96 L2278.52,2423.45 L2277.48,2424.45 L2276.46,2425.55 L2275.72,2426.97 L2275.48,2428.8 L2275.52,2430.32 L2274.27,2432.4 L2274,2433.78 L2273.29,2435.54 L2271.22,2435.82 L2271.87,2437.06 L2270.85,2436.82 L2270.58,2438.24 L2271.46,2438.79 L2271.66,2440.03 L2270.85,2441.42 L2269.91,2441.94 L2268.28,2441.97 L2267.85,2443.39 L2266.73,2443.28 L2266.43,2444.63 L2265.89,2445.63 L2266.53,2447.33 L2267.85,2447.64 L2267.95,2449.23 L2265.14,2449.5 L2263.05,2448.74 L2259.23,2446.95 L2257.67,2446.57 L2254.77,2446.64 L2253.72,2447.05 L2252.43,2447.26 L2249.8,2446.95 L2247.64,2446.19 L2246.99,2444.63 L2247.4,2442.25 L2247.26,2439.59 L2246.05,2438.24 L2244.09,2437.75 L2241.89,2436.54 L2240.37,2436.3 L2236.65,2436.54 L2233.81,2435.92 L2232.16,2432.16 L2230.91,2429.84 L2227.63,2427.28 L2225.5,2426.45 L2223.37,2426.66 L2222.12,2427.94 L2218.98,2427.25 L2216.54,2425.52 L2214.01,2424.76 L2211.88,2424.48 L2210.29,2423.14 L2209.07,2420.82 L2207.86,2417.78 L2205.49,2414.95 L2202.62,2413.43 L2200.49,2411.84 L2196.47,2406.34 L2195.89,2405 L2195.15,2402.23 L2197.08,2399.44 L2197.92,2398.68 L2197.18,2397.54 L2195.76,2396.6 L2191.77,2396.78 L2189.88,2398.19 L2188.49,2399.44 L2186.26,2400.47 L2183.9,2399.44 L2182.41,2396.57 L2180.72,2395.26 L2179.13,2395.33 L2176.83,2396.4 L2174.4,2395.91 L2174.26,2397.12 L2174.1,2399.16 L2172.61,2399.57 L2171.19,2400.2 L2169.53,2400.4 L2167.81,2399.92 L2167.3,2398.95 L2166.52,2395.98 L2165.51,2392.77 L2166.73,2390.59 L2168.38,2391.25 L2169.16,2392.87 L2170.38,2392.46 L2170.01,2390.66 L2168.59,2389.52 L2167.27,2388.49 L2166.73,2386.62 L2166.63,2385 L2167.54,2383.72 L2168.52,2383.13 L2170.01,2382.51 L2170.92,2383.24 L2171.76,2384.24 L2172.91,2384 L2173.55,2382.89 L2171.93,2381.27 L2170.72,2380.75 L2169.23,2380.75 L2167.27,2379.96 L2165.61,2378.89 L2164.67,2378.23 L2162.71,2378.51 L2161.08,2379.27 L2159.63,2379.09 L2155.81,2377.37 L2153.82,2377.26 L2152.5,2378.64 L2152.03,2379.96 L2152.5,2380.92 L2153.65,2380.89 L2156.42,2381.48 L2157.67,2381.51 L2157.67,2382.89 L2156.72,2384.55 L2155.81,2385.21 L2153.99,2385.76 L2153.01,2385.97 L2151.42,2386.48 L2149.32,2386.62 L2148.28,2385.24 L2148.21,2383.27 L2147.4,2382.75 L2145.67,2382.55 L2144.08,2382.37 L2142.97,2381.86 L2141.85,2380.89 L2139.62,2379.78 L2137.73,2379.85 L2136.65,2381.1 L2137.36,2382.51 L2137.66,2384.24 L2134.76,2387.97 L2134.49,2389.59 L2135.33,2391.15 L2135.6,2392.35 L2133.81,2393.49 L2131.68,2392.35 L2129.05,2389.97 L2127.12,2389.42 L2125.06,2390.63 L2124.45,2391.97 L2122.52,2392.56 L2122.15,2391.11 L2123.16,2388.66 L2123.1,2387 L2121,2387.21 L2119.89,2389.11 L2120.46,2390.56 L2120.93,2392.46 L2120.06,2393.6 L2117.93,2391.97 L2117.35,2389.32 L2116.74,2388.45 L2115.49,2387.76 L2111.84,2386.24 L2109.51,2387.62 L2108.02,2387.48 L2108.7,2385.59 L2107.48,2385.24 L2106.23,2388.35 L2107.75,2390.11 L2107.92,2392.08 L2107.11,2393.08 L2105.96,2393.7 L2104.54,2394.98 L2102.62,2394.08 L2100.66,2391.87 L2099.44,2391.32 L2097.85,2391.8 L2096.97,2392.46 L2094.37,2392.84 L2090.75,2391.21 L2090.35,2389.49 L2089.54,2388.38 L2088.12,2388.07 L2087.37,2386.48 L2088.02,2384.38 L2087.95,2383.13 L2087.48,2382.24 L2085.79,2381.27 L2083.42,2381.27 L2081.02,2381.65 L2079.53,2382.34 L2078.55,2382.99 L2077.68,2384 L2076.7,2384.62 L2074.94,2384.48 L2073.18,2383.27 L2073.05,2381.96 L2073.08,2379.89 L2072.71,2378.4 L2072.3,2376.61 L2071.09,2375.67 L2069.53,2374.88 L2067.47,2375.26 L2066.52,2376.33 L2066.45,2377.85 L2067.37,2379.13 L2067.94,2380.51 L2067.94,2381.96 L2066.62,2383.37 L2065.31,2383.96 L2063.75,2384.07 L2058.65,2383.79 L2056.05,2384.45 L2054.96,2385.34 L2054.83,2386.55 L2054.76,2388 L2054.02,2388.87 L2052.53,2389.52 L2051.21,2389.87 L2049.49,2389.97 L2047.77,2389.73 L2046.24,2389.83 L2044.76,2389.8 L2043.17,2389.83 L2041.65,2389.63 L2039.79,2389.25 L2038,2389.38 L2036.24,2389.97 L2034.08,2390.87 L2032.86,2392.35 L2033,2394.08 L2033.71,2395.6 L2032.79,2396.22 L2031.31,2395.53 L2030.06,2395.64 L2028.23,2396.22 L2026.41,2397.16 L2024.55,2398.23 L2022.76,2398.57 L2020.05,2398.95 L2015.9,2399.71 L2014.21,2400.33 L2012.31,2401.23 L2010.76,2401.44 L2009.17,2400.99 L2007.75,2401.09 L2004.41,2398.95 L2003.46,2398.57 L2002.24,2399.09 L2000.65,2399.33 L1999.67,2399.19 L1997.95,2399.09 L1995.96,2397.43 L1993.35,2394.77 L1992,2394.46 L1990.65,2394.46 L1989.6,2393.98 L1989.03,2392.56 L1986.16,2391.32 L1984.36,2390.73 L1982.61,2389.32 L1981.66,2388.83 L1980.55,2389.42 L1979.4,2389.97 L1977.84,2389.87 L1976.25,2388.94 L1974.83,2387.38 L1974.02,2385.97 L1974.16,2384.38 L1975,2382.61 L1975.98,2380.61 L1974.77,2378.61 L1972.23,2379.3 L1971.69,2380.34 L1972.23,2381.23 L1971.83,2382.75 L1969.87,2383.58 L1967.09,2383.13 L1965.37,2384.13 L1964.49,2386.17 L1961.55,2386.48 L1960.54,2384.51 L1960.47,2382.27 L1959.12,2381.41 L1958.04,2382.51 L1958.27,2384.24 L1959.15,2385.72 L1959.22,2387.59 L1957.16,2387.9 L1954.46,2385.79 L1951.68,2384.89 L1950.91,2386.28 L1951.45,2388.24 L1949.52,2389 L1947.16,2387.62 L1945.5,2386.24 L1943.64,2385.97 L1943.64,2384.27 L1942.12,2384.38 L1939.79,2384.86 L1937.83,2385.69 L1936.64,2384.38 L1934.95,2383.1 L1935.23,2385.31 L1933.43,2386.34 L1931.68,2386.62 L1932.12,2387.76 L1930.66,2388.38 L1928.5,2388.76 L1926.44,2389.32 L1924.65,2390.25 L1922.96,2389 L1921.4,2388.97 L1922.79,2391.25 L1920.69,2392.01 L1918.19,2391.49 L1916.98,2389.73 L1915.66,2389.59 L1913.6,2390.87 L1914.27,2392.6 L1915.02,2393.43 L1914.71,2395.33 L1913.73,2396.57 L1911.3,2396.09 L1910.79,2394.01 L1910.55,2391.21 L1909.71,2389.21 L1907.24,2388.66 L1906.77,2390.18 L1907.34,2392.18 L1906.74,2393.91 L1904.67,2395.33 L1902.71,2395.6 L1899.98,2394.46 L1898.35,2393.32 L1897.37,2392.73 L1893.55,2392.01 L1893.35,2393.11 L1894.94,2394.95 L1895.51,2396.47 L1893.08,2396.12 L1892.2,2394.22 L1890.51,2395.36 L1887.94,2396.12 L1886.63,2397.54 L1885.48,2399.44 L1884.67,2396.85 L1886.25,2394.57 L1885.75,2391.87 L1883.42,2392.01 L1882.94,2393.49 L1882.6,2394.98 L1881.46,2395.84 L1878.68,2394.77 L1876.99,2393.49 L1876.35,2392.49 L1875.88,2391.25 L1875,2387.14 L1873.62,2385.1 L1872.57,2383.2 L1871.22,2381.61 L1871.11,2379.89 L1871.55,2378.37 L1871.96,2375.5 L1871.38,2373.01 L1871.08,2370.11 L1871.18,2367.63 L1870.27,2365.66 L1869.8,2362.1 L1868.95,2360.27 L1867.9,2358.68 L1865.77,2357.3 L1864.25,2357.79 L1863.81,2358.79 L1862.97,2359.79 L1860.71,2359.65 L1859.39,2359.03 L1857.26,2358.2 L1855.84,2356.86 L1855.09,2354.06 L1853.41,2351.5 L1851.92,2350.71 L1850.7,2352.19 L1849.32,2353.33 L1847.93,2351.68 L1846.51,2350.85 L1844.65,2351.02 L1842.69,2350.74 L1841.68,2350.16 L1842.49,2348.85 L1844.48,2344.94 L1842.69,2343.46 L1840.43,2344.43 L1839.41,2343.87 L1840.46,2341.73 L1841.41,2339.11 L1839.68,2337.07 L1838.37,2336.11 L1836.07,2336.49 L1833.5,2336.04 L1832.22,2335.62 L1832.96,2336.97 L1833.63,2337.94 L1832.86,2339.18 L1831.47,2337.56 L1830.69,2336.07 L1829.31,2335.11 L1827.86,2333.66 L1826.98,2331.55 L1826.54,2330 L1826.77,2327.65 L1827.28,2325.06 L1827.15,2323.99 L1825.96,2322.89 L1823.26,2323.03 L1822.01,2324.51 L1820.69,2325.1 L1819.47,2323.89 L1819.07,2322.85 L1818.29,2322.03 L1817.14,2320.09 L1816.13,2319.13 L1813.86,2318.4 L1812.51,2317.54 L1812.24,2315.16 L1812.24,2313.54 L1812.78,2311.78 L1812.51,2309.43 L1810.72,2309.81 L1809.23,2311.33 L1808.02,2312.09 L1806.7,2311.05 L1805.01,2310.74 L1803.25,2310.16 L1803.05,2308.43 L1802.68,2307.29 L1800.89,2307.29 L1800.04,2306.08 L1799.23,2305.15 L1798.55,2304.08 L1797.61,2303.19 L1795.75,2302.46 L1794.77,2301.46 L1793.21,2300.05 L1792.88,2298.8 L1793.89,2297.7 L1794.57,2296.32 L1794.77,2294.8 L1794.43,2292.97 L1794.84,2290.83 L1794.57,2289.01 L1794.67,2287.45 L1794.9,2285.56 L1793.35,2283 L1793.35,2281.83 L1792.88,2280.31 L1793.05,2277.35 L1793.08,2274.97 L1792.84,2273.73 L1791.96,2271.14 L1791.93,2269.52 L1792.13,2268.14 L1793.15,2266.76 L1792.47,2265.03 L1791.29,2262.97 L1789.77,2261.69 L1788.21,2261.21 L1786.15,2261.55 L1785.27,2263.07 L1784.29,2264.48 L1783.45,2265.62 L1781.49,2266.38 L1780.37,2265.07 L1780.44,2263.21 L1780.44,2261.79 L1778.58,2260.79 L1777.63,2260.55 L1776.79,2259.21 L1774.46,2256.31 L1774.42,2254.55 L1774.76,2253.31 L1775.51,2251.48 L1775.3,2250.17 L1774.15,2249.31 L1772.6,2249.21 L1771.35,2249.72 L1770.44,2250.62 L1769.59,2252.48 L1769.66,2254.1 L1770.44,2255.9 L1771.72,2257.69 L1771.48,2259.34 L1770.13,2260.93 L1768.58,2262.1 L1767.19,2263.07 L1765.77,2263.14 L1764.08,2261.93 L1763.68,2258.93 L1763.91,2257.41 L1764.25,2255.34 L1763.81,2252.96 L1763.07,2251.83 L1762.02,2250.34 L1760.36,2249.1 L1759.15,2248.45 L1757.46,2248.48 L1756.34,2249.24 L1755.5,2250.72 L1754.18,2251.96 L1753.17,2251.69 L1752.05,2250.38 L1750.43,2249.96 L1749.48,2250.48 L1748.94,2251.69 L1748.77,2253.48 L1749.38,2255.1 L1749.14,2256.59 L1748.77,2257.79 L1748.84,2259.07 L1748.64,2260.07 L1745.46,2259.83 L1743.91,2260.55 L1742.15,2260.69 L1743.33,2262 L1742.32,2262.86 L1741.2,2261.45 L1739.51,2260.65 L1738.26,2260.45 L1738.63,2262.21 L1739.95,2263.55 L1737.62,2263.62 L1736.23,2261.72 L1735.56,2259.03 L1734.61,2258.48 L1732.79,2260 L1732.04,2261.72 L1730.56,2261.93 L1729.24,2260.41 L1728.63,2258.45 L1724.71,2256.38 L1724,2257.79 L1723.7,2260.79 L1723.12,2262.48 L1721.77,2261.79 L1721.53,2259.93 L1720.05,2258.28 L1719.1,2259.41 L1718.12,2261.07 L1716.5,2261.72 L1716.02,2260.31 L1717.71,2258.48 L1714.94,2257.31 L1713.59,2258 L1712.78,2259.45 L1711.19,2259.31 L1709.77,2258.28 L1708.69,2258.17 L1707,2258.59 L1705.85,2258.55 L1704.09,2257.79 L1703.49,2256.07 L1702.47,2255.14 L1700.71,2255.69 L1699.23,2256.48 L1697.44,2254.93 L1697.91,2253.03 L1698.28,2250.93 L1697.84,2249.48 L1696.79,2249.14 L1695.41,2250.83 L1694.09,2252.76 L1692.94,2253.83 L1691.83,2254.27 L1690.81,2253.03 L1690.44,2252.1 L1690.41,2250.65 L1687.8,2247.96 L1686.62,2247.1 L1684.93,2245.21 L1684.43,2243.97 L1684.66,2242.83 L1685.13,2240.03 L1684.76,2238.55 L1684.05,2237.79 L1683.07,2237.38 L1682.09,2237.59 L1681.25,2238.24 L1680.23,2239.48 L1679.02,2240.28 L1677.16,2239.9 L1676.58,2238 L1677.33,2236.24 L1678.44,2235.14 L1678.85,2234.24 L1678.54,2232.83 L1677.23,2232.07 L1675.87,2233 L1675.27,2235.38 L1674.39,2236.66 L1673.58,2237.28 L1672.02,2236.76 L1671.65,2235.21 L1672.19,2232.9 L1671.85,2231.28 L1670.91,2229.86 L1669.76,2229.86 L1668.64,2230.31 L1668.37,2231.86 L1668.85,2233.79 L1668.95,2234.83 L1668.54,2236.28 L1667.43,2236.9 L1665.87,2237.38 L1664.01,2238.07 L1662.22,2238.62 L1660.97,2238.24 L1659.75,2237.31 L1658.1,2236.17 L1656.61,2234.76 L1655.66,2233.21 L1654.72,2232.62 L1653.81,2233.17 L1652.66,2234.14 L1650.97,2235.31 L1648.84,2236.07 L1646.81,2235.55 L1645.22,2234.28 L1644.07,2233.28 L1643.16,2232.66 L1641.64,2232.04 L1639.95,2231.49 L1637.08,2229.97 L1635.12,2228.83 L1632.58,2227.69 L1630.45,2227.18 L1628.83,2226.83 L1625.92,2225.21 L1624.74,2224.32 L1623.96,2222.63 L1623.8,2221.39 L1624,2220.04 L1624.2,2219.08 L1625.35,2218.42 L1626.87,2217.59 L1628.86,2216.08 L1628.09,2214.42 L1626.67,2213.84 L1625.49,2213.97 L1624.34,2214.73 L1622.11,2215.94 L1620.35,2216.15 L1619.1,2215.59 L1617.91,2214.11 L1618.22,2211.46 L1618.86,2209.94 L1619.13,2208.6 L1618.35,2206.63 L1617.14,2206.12 L1615.82,2206.29 L1615.08,2206.91 L1613.25,2207.67 L1611.83,2207.25 L1611.36,2206.39 L1611.56,2204.53 L1612.37,2203.39 L1613.69,2201.29 L1613.62,2198.91 L1611.8,2198.19 L1610.24,2198.54 L1608.76,2199.26 L1607.61,2201.77 L1607.17,2203.36 L1606.26,2204.77 L1605.31,2205.63 L1603.25,2207.08 L1601.08,2207.63 L1599.46,2207.56 L1598.35,2207.15 L1597.06,2207.36 L1595.37,2210.98 L1592.84,2210.01 L1592.03,2210.91 L1590.71,2211.49 L1588.72,2211.22 L1586.69,2210.49 L1585.94,2211.11 L1585.4,2213.01 L1586.05,2215.11 L1585.3,2217.18 L1583.68,2217.56 L1582.83,2216.46 L1582.12,2215.01 L1581.38,2214.35 L1580.23,2213.08 L1580.16,2211.84 L1580.5,2210.49 L1579.32,2209.67 L1578.17,2210.01 L1577.53,2210.77 L1577.09,2211.67 L1576.72,2212.87 L1576.11,2215.97 L1574.99,2216.32 L1573.51,2215.46 L1572.29,2214.35 L1570.5,2213.49 L1568.1,2213.11 L1565.5,2210.8 L1563.3,2208.39 L1562.79,2207.29 L1562.39,2205.67 L1562.22,2204.5 L1560.16,2201.26 L1559.04,2199.05 L1558.37,2196.98 L1558.64,2195.68 L1558.81,2194.5 L1559.38,2193.71 L1560.26,2191.09 L1559.38,2189.58 L1557.89,2188.68 L1556.3,2188.23 L1555.29,2187.75 L1553.6,2187.23 L1550.53,2188.61 L1549.04,2190.47 L1548.19,2191.92 L1547.18,2192.23 L1545.86,2192.33 L1544.54,2190.89 L1544.37,2189.68 L1545.39,2188.03 L1546.67,2186.68 L1546.81,2184.96 L1545.96,2183.55 L1542.65,2181.86 L1541.47,2180.86 L1540.59,2179.89 L1539.03,2179.72 L1537.65,2179.24 L1536.77,2177.76 L1535.96,2175.14 L1535.76,2174.04 L1534.84,2172.21 L1534.17,2171.18 L1532.75,2169.94 L1531.46,2169.46 L1530.59,2168.66 L1529.88,2167.7 L1529.57,2166.29 L1529.71,2165.08 L1530.35,2163.32 L1530.72,2162.12 L1530.05,2161.22 L1528.73,2160.4 L1527.44,2160.12 L1525.58,2159.98 L1524.54,2159.33 L1523.96,2158.47 L1522.27,2156.37 L1520.35,2155.23 L1518.59,2155.44 L1516.8,2155.61 L1514.8,2155.95 L1513.49,2157.33 L1513.05,2159.95 L1511.53,2161.33 L1510.51,2160.09 L1510.24,2158.57 L1507.98,2157.43 L1506.22,2157.43 L1505.44,2158.47 L1504.36,2160.09 L1503.62,2161.43 L1501.83,2161.74 L1500.88,2161.26 L1499.87,2159.64 L1499.46,2158.19 L1499.39,2156.33 L1496.62,2155.37 L1493.44,2155.54 L1491.62,2154.78 L1490.67,2154.13 L1489.66,2152.89 L1489.22,2151.44 L1489.39,2149.51 L1489.69,2148.41 L1490.64,2146.69 L1490.77,2144.55 L1489.56,2143.9 L1488.48,2143.52 L1487.46,2143.56 L1486.62,2142.97 L1486.52,2140.94 L1487.06,2138.32 L1486.28,2136.94 L1485.03,2136.05 L1483.98,2135.26 L1482.6,2134.71 L1481.92,2133.47 L1481.72,2132.5 L1481.62,2131.06 L1480.16,2129.16 L1480.06,2128.09 L1480.23,2126.75 L1480.06,2125.72 L1479.66,2124 L1479.18,2123.14 L1478.44,2122 L1477.73,2120.52 L1477.05,2119.73 L1476.31,2118.56 L1475.5,2117.66 L1474.42,2116.8 L1473.07,2116.39 L1470.43,2117.35 L1468.81,2117.25 L1467.56,2116.66 L1466.51,2115.36 L1465.93,2113.81 L1465.77,2112.02 L1465.87,2110.43 L1466.1,2109.06 L1466.85,2107.82 L1467.73,2106.82 L1469.42,2106.3 L1470.43,2105.85 L1471.92,2105.37 L1473.07,2103.93 L1473.13,2102.41 L1472.29,2101.28 L1470.9,2100.76 L1469.69,2100.86 L1468.47,2101.55 L1467.22,2101.83 L1465.66,2101.62 L1464.04,2101.24 L1462.39,2101.17 L1461.2,2100.86 L1460.63,2099.87 L1460.49,2098.66 L1461.47,2097.49 L1462.35,2096.77 L1462.79,2095.53 L1462.96,2093.74 L1462.18,2092.29 L1460.73,2091.54 L1458.9,2091.29 L1457.82,2091.85 L1455.39,2092.6 L1453.43,2092.05 L1452.31,2090.81 L1451.23,2088.51 L1450.25,2088.03 L1448.16,2088.89 L1446.5,2087.96 L1446.94,2087.06 L1447.21,2086.03 L1444.64,2085.17 L1442.75,2084.14 L1442.01,2082.83 L1441.91,2080.73 L1441.84,2079.01 L1441.06,2077.74 L1440.08,2077.12 L1438.66,2077.46 L1437.31,2079.28 L1437.17,2080.9 L1437.82,2082.35 L1438.73,2083.65 L1439.1,2084.62 L1438.76,2085.86 L1436.67,2086.82 L1434.98,2086.2 L1434.27,2085.44 L1433.63,2084.58 L1433.02,2083.24 L1431.83,2081.49 L1430.99,2080.9 L1429.87,2080.59 L1428.25,2080.52 L1427.24,2081.49 L1427.14,2083.07 L1428.12,2084.69 L1428.93,2085.55 L1429.47,2086.44 L1429.6,2087.58 L1429.57,2088.68 L1428.62,2090.02 L1427.14,2091.26 L1425.18,2091.85 L1423.79,2091.64 L1422.3,2091.26 L1420.44,2091.36 L1419.36,2091.95 L1418.15,2092.91 L1417.07,2094.12 L1416.19,2094.6 L1414.97,2094.63 L1413.72,2093.95 L1412.77,2093.53 L1411.08,2093.53 L1410.88,2095.01 L1412.3,2096.29 L1412.67,2098.25 L1413.58,2099.62 L1415.44,2101.1 L1414.36,2102.62 L1412.74,2103.58 L1411.29,2103.44 L1410.14,2102.96 L1408.72,2102.21 L1407.43,2101.55 L1404.97,2100.97 L1403.51,2101 L1401.65,2101.28 L1399.56,2101.28 L1398.48,2101.07 L1397.02,2100.97 L1395.2,2100.62 L1393.95,2100.48 L1391.99,2099.73 L1390.54,2099.14 L1388.71,2098.52 L1387.8,2098.11 L1386.48,2097.52 L1384.62,2096.91 L1382.73,2096.29 L1381.48,2095.73 L1380.63,2095.25 L1379.89,2094.29 L1378.94,2093.57 L1377.83,2093.05 L1376.75,2092.43 L1375.39,2091.81 L1374.04,2091.67 L1372.93,2091.95 L1371.51,2092.12 L1370.53,2092.57 L1369.18,2092.77 L1367.15,2091.95 L1366,2091.36 L1363.67,2089.95 L1362.11,2088.51 L1360.8,2087.17 L1359.58,2086.06 L1358.06,2084.34 L1357.35,2082.52 L1357.04,2081.45 L1356.3,2078.6 L1355.76,2077.01 L1354.88,2075.88 L1353.87,2075.36 L1352.48,2074.91 L1351.1,2074.6 L1348.76,2074.91 L1347.24,2075.53 L1345.72,2075.16 L1344.81,2074.02 L1344.88,2072.54 L1346.4,2072.16 L1347.82,2071.78 L1349.61,2071.3 L1349.37,2070.13 L1348.66,2069.31 L1347.31,2068.27 L1346.23,2067.31 L1345.76,2065.93 L1345.72,2064.21 L1346.03,2062.84 L1346.87,2060.84 L1345.49,2060.05 L1344.44,2059.78 L1342.21,2059.71 L1341.19,2059.47 L1338.93,2059.19 L1337.54,2059.36 L1336.56,2059.36 L1334.7,2059.12 L1333.29,2059.22 L1332.03,2059.47 L1330.58,2059.98 L1328.18,2060.81 L1326.76,2061.12 L1325.28,2061.08 L1324.09,2060.94 L1322.94,2060.36 L1322.03,2059.5 L1320.71,2057.71 L1319.6,2056.54 L1317.71,2055.1 L1316.42,2054.24 L1315.58,2053.58 L1313.85,2051.28 L1312.37,2048.39 L1311.79,2047.53 L1311.25,2046.32 L1310.44,2044.91 L1309.59,2043.43 L1308.85,2042.37 L1307.74,2040.82 L1306.55,2040.17 L1304.42,2039.34 L1302.87,2038.96 L1301.38,2038.93 L1300.17,2038.72 L1298.81,2038.1 L1297.26,2036.86 L1296.04,2035.73 L1294.45,2034.87 L1293.14,2034.39 L1289.11,2033.43 L1287.25,2033.15 L1286.04,2032.63 L1285.16,2031.36 L1284.55,2030.54 L1284.04,2029.16 L1282.86,2028.37 L1280.8,2028.16 L1279.79,2027.89 L1277.83,2027.03 L1276.61,2026.65 L1274.82,2026.17 L1273.5,2025.55 L1272.11,2024.83 L1270.97,2024.83 L1268.36,2025.27 L1266.84,2025.27 L1265.25,2024.69 L1263.94,2023.42 L1262.35,2021.73 L1260.05,2020.49 L1258.56,2020.39 L1257.68,2019.94 L1255.45,2019.33 L1253.9,2018.95 L1252.75,2018.57 L1251.47,2018.4 L1250.11,2017.92 L1248.29,2017.54 L1247.34,2017.33 L1245.82,2016.78 L1243.02,2016.71 L1241.33,2017.06 L1237.34,2017.85 L1235.75,2017.95 L1234.06,2017.36 L1231.9,2016.13 L1230.24,2014.89 L1228.99,2013.55 L1227.71,2013.14 L1226.42,2014 L1225.34,2015.85 L1224.33,2017.71 L1223.62,2018.6 L1222.47,2019.6 L1221.35,2020.18 L1219.76,2020.39 L1218.38,2019.84 L1217.33,2019.7 L1216.28,2020.7 L1215.47,2021.9 L1214.12,2023.9 L1212.3,2025.17 L1210.91,2025.31 L1209.83,2025.14 L1208.75,2024.76 L1207.16,2024.28 L1205.94,2023.93 L1203.88,2022.87 L1202.63,2022.11 L1201.31,2021.25 L1199.22,2019.91 L1197.53,2019.43 L1196.28,2019.19 L1194.89,2019.43 L1193.5,2020.18 L1192.76,2022.49 L1193.23,2024.59 L1193.23,2025.79 L1192.76,2027.06 L1191.82,2028.37 L1191.04,2029.64 L1189.45,2031.64 L1189.31,2032.74 L1189.48,2033.98 L1190.33,2036.38 L1190.33,2037.97 L1189.48,2039.72 L1188.64,2040.55 L1186.75,2041.51 L1184.82,2041.68 L1182.72,2041.78 L1181.37,2042.82 L1180.19,2043.71 L1178.53,2045.02 L1177.59,2045.88 L1176.4,2046.91 L1175.15,2047.42 L1173.87,2048.15 L1171.88,2048.8 L1170.32,2048.66 L1169.17,2048.42 L1168.19,2048.15 L1167.08,2047.39 L1166.1,2046.67 L1163.87,2044.84 L1163.05,2043.81 L1162.11,2042.85 L1161.5,2041.96 L1160.38,2041.06 L1158.53,2039.58 L1157.41,2039.07 L1156.36,2038.96 L1155.45,2039.34 L1154.88,2042.3 L1153.86,2043.78 L1152.27,2043.92 L1151.33,2042.85 L1149.57,2040.92 L1148.62,2040.72 L1147.68,2041.23 L1146.87,2041.96 L1145.92,2042.71 L1144.91,2043.19 L1143.69,2043.43 L1142.47,2043.06 L1141.15,2041.51 L1140.24,2039.48 L1139.4,2038.17 L1138.72,2037.11 L1137.88,2036.18 L1136.56,2035.15 L1135.54,2034.77 L1133.99,2034.87 L1132.47,2035.87 L1130.95,2037.86 L1130,2038.34 L1127.81,2038.21 L1126.56,2037.52 L1125.74,2036.28 L1125.61,2034.39 L1125.58,2032.84 L1124.7,2032.36 L1123.24,2032.53 L1122.2,2033.12 L1121.69,2034.49 L1121.18,2035.49 L1120.24,2036.35 L1119.29,2036.76 L1118.44,2037.42 L1117.8,2038.28 L1116.96,2039.14 L1115.81,2039.48 L1114.25,2039.58 L1113.85,2038.17 L1114.22,2036.93 L1114.35,2035.8 L1114.52,2034.25 L1114.22,2032.77 L1113.61,2031.77 L1112.63,2030.64 L1111.82,2029.99 L1110.4,2029.78 L1109.29,2029.99 L1108.14,2030.54 L1107.05,2031.98 L1106.78,2034.46 L1106.78,2035.49 L1106.58,2037.24 L1106.28,2038.48 L1105.43,2039.79 L1104.62,2041.03 L1103.88,2041.85 L1102.93,2042.54 L1101.44,2042.92 L1099.86,2042.68 L1098.81,2042.06 L1097.96,2041.47 L1097.22,2040.34 L1097.05,2039.24 L1097.05,2038.07 L1097.42,2036.45 L1098,2034.77 L1097.86,2032.74 L1097.96,2031.71 L1097.9,2027.51 L1097.15,2026.31 L1094.58,2026.07 L1093.37,2026.44 L1091.88,2027.92 L1090.43,2028.51 L1089.31,2028.54 L1088.43,2027.92 L1087.35,2026.75 L1086.27,2025.62 L1085.09,2024.93 L1083.74,2024.69 L1082.15,2024.93 L1080.69,2024.31 L1079.85,2023.69 L1078.9,2022.76 L1077.72,2022.45 L1076.3,2022.83 L1075.15,2024 L1073.97,2025.52 L1072.65,2027.54 L1071.87,2028.27 L1070.69,2029.4 L1069.74,2030.26 L1068.19,2031.02 L1065.76,2032.88 L1064.34,2034.01 L1063.69,2035.39 L1062.85,2036.73 L1061.73,2037.83 L1060.75,2038.45 L1059.3,2038.93 L1057.51,2038.38 L1056.39,2037.72 L1055.38,2036.45 L1054.81,2034.73 L1055.04,2033.25 L1055.55,2031.98 L1056.02,2030.74 L1056.6,2029.26 L1057.14,2028.27 L1057.61,2026.79 L1057.21,2024.31 L1055.85,2023.42 L1054.77,2023.42 L1053.32,2023.52 L1051.9,2023.31 L1048.25,2023.18 L1046.83,2022.97 L1045.11,2023.21 L1042.07,2023.62 L1039.19,2024.07 L1037.6,2024 L1036.56,2023.8 L1034.22,2023.69 L1033.04,2023.07 L1031.82,2022.56 L1030.74,2022.21 L1028.75,2021.73 L1026.49,2021.53 L1025.27,2021.15 L1024.15,2020.7 L1022.73,2020.46 L1020.98,2020.39 L1019.66,2020.01 L1018.37,2019.57 L1017.23,2018.84 L1015.16,2017.74 L1013.95,2016.71 L1012.19,2014.68 L1010.87,2012.76 L1010.23,2011.52 L1009.65,2010.69 L1008.44,2009.83 L1006.85,2008.97 L1005.7,2007.87 L1004.52,2006.67 L1003.98,2005.85 L1003.27,2004.3 L1002.73,2003.2 L1002.08,2001.58 L1000.97,1999.76 L1000.02,1998.8 L998.604,1998.04 L996.779,1997.35 L995.089,1996.91 L993.838,1996.36 L993.027,1995.29 L992.25,1994.64 L991.067,1994.05 L990.053,1993.19 L988.803,1992.44 L987.383,1992.23 L986.572,1991.65 L985.558,1990.62 L984.206,1988.9 L982.956,1987.14 L982.449,1985.56 L982.652,1983.57 L983.497,1982.37 L984.206,1981.51 L985.423,1980.54 L986.674,1979.24 L987.045,1977.73 L987.485,1975.22 L987.958,1974.08 L988.363,1972.88 L988.735,1970.51 L989.073,1968.2 L989.276,1967.14 L989.208,1965.9 L989.005,1964.32 L988.701,1962.19 L988.634,1960.88 L988.431,1959.06 L988.228,1957.55 L987.856,1955.76 L987.417,1954.22 L987.045,1952.53 L986.268,1951.02 L985.93,1950.03 L985.626,1946.52 L985.153,1945.56 L984.815,1944.42 L983.835,1943.22 L982.855,1942.71 L981.537,1942.81 L978.833,1943.6 L977.954,1944.15 L976.771,1945.08 L975.284,1946.04 L974.169,1947.07 L973.088,1948.34 L971.263,1949.41 L968.897,1949.03 L967.241,1947.65 L966.396,1946.42 L965.416,1945.49 L964.503,1943.46 L963.659,1941.57 L962.07,1940.61 L960.853,1939.96 L959.772,1939.68 L958.353,1939.72 L956.494,1940.06 L955.176,1940.23 L953.824,1940.27 L952.337,1940.23 L950.579,1940.27 L948.923,1939.99 L947.572,1939.85 L946.592,1939.48 L945.375,1939 L943.651,1938.27 L942.468,1937.62 L941.117,1937.14 L939.494,1936.56 L937.805,1935.66 L936.487,1935.39 L935.236,1935.01 L933.58,1934.53 L932.465,1934.05 L931.113,1933.4 L930.133,1932.85 L928.882,1932.26 L927.801,1931.92 L925.807,1931.88 L923.881,1931.68 L922.089,1931.33 L920.94,1931.06 L919.555,1930.17 L918.068,1928.55 L917.324,1927.83 L916.108,1927.04 L915.161,1925.94 L914.384,1924.02 L914.114,1922.61 L913.877,1921.44 L913.607,1920.03 L913.303,1918.97 L913.404,1917.39 L913.303,1915.57 L913.573,1912.82 L913.877,1911.75 L914.147,1909.87 L914.587,1908.7 L915.364,1907.19 L916.479,1905.61 L917.527,1904.27 L918.169,1903.48 L919.014,1902.65 L919.825,1901.66 L920.129,1900.25 L919.927,1898.67 L919.251,1897.91 L918.135,1897.16 L916.581,1896.16 L914.891,1895.72 L913.471,1895.96 L911.984,1896.3 L911.14,1896.92 L909.855,1897.78 L908.74,1898.26 L906.307,1900.52 L906.172,1901.52 L906.374,1902.72 L907.05,1904.16 L907.321,1905.26 L907.625,1906.47 L907.692,1907.56 L907.523,1909.21 L907.287,1911.21 L906.78,1914.02 L906.172,1915.53 L905.631,1916.67 L905.191,1917.83 L904.482,1918.9 L903.4,1919.76 L902.386,1920.2 L901.305,1920.31 L899.818,1920.14 L897.993,1919 L897.047,1917.73 L896.303,1916.49 L895.898,1915.43 L895.999,1913.85 L896.269,1912.72 L896.675,1911.55 L897.283,1910.42 L897.858,1909.21 L898.365,1908.22 L899.21,1907.02 L899.649,1905.68 L899.818,1904.65 L899.717,1903.2 L899.277,1902.24 L898.872,1900.87 L898.162,1900.04 L896.675,1899.01 L895.458,1898.26 L894.208,1897.81 L893.025,1897.23 L891.268,1896.64 L889.848,1895.89 L888.631,1895.44 L885.286,1895.58 L884.204,1896.16 L882.92,1897.43 L882.244,1898.29 L881.534,1899.6 L880.96,1900.66 L880.284,1902.14 L879.811,1903.58 L879.371,1904.51 L878.729,1905.47 L878.222,1906.53 L877.141,1907.67 L875.282,1908.11 L873.964,1907.36 L872.849,1905.88 L871.395,1903.24 L870.855,1901.9 L870.686,1900.52 L871.024,1899.39 L871.26,1898.39 L872.24,1897.4 L873.288,1895.89 L873.964,1894.58 L874.944,1893.59 L876.161,1892.69 L877.851,1892.18 L880.487,1890.7 L881.872,1888.75 L882.278,1886.38 L882.143,1884.38 L881.061,1881.29 L879.912,1879.37 L879.067,1878.41 L877.513,1876.08 L876.837,1874.43 L876.397,1873.09 L875.721,1872.26 L874.91,1871.61 L873.592,1870.75 L872.071,1869.76 L870.686,1869.24 L869.199,1869.14 L867.306,1869.9 L866.022,1870.27 L864.062,1870.27 L862.102,1870.14 L860.04,1870.34 L858.823,1870.44 L857.472,1870.72 L856.018,1871.23 L854.802,1871.72 L853.078,1872.88 L851.49,1873.23 L850.239,1873.98 L849.056,1874.7 L847.705,1875.18 L845.542,1875.77 L843.919,1875.11 L842.804,1874.26 L841.587,1873.19 L840.236,1871.03 L838.782,1868.45 L837.701,1865.78 L836.484,1864.37 L835.335,1863.82 L833.882,1864.16 L831.584,1864.85 L829.657,1865.91 L829.083,1867.32 L828.61,1868.93 L828.17,1870.48 L827.427,1872.06 L826.109,1872.47 L824.622,1871.99 L823.202,1870.99 L822.459,1870.07 L821.411,1868.76 L820.465,1866.94 L819.857,1866.15 L818.437,1864.54 L817.288,1863.72 L815.362,1863.68 L813.74,1864.16 L812.557,1864.95 L811.779,1865.6 L810.597,1865.67 L809.076,1865.6 L807.859,1865.06 L807.048,1864.37 L806.473,1863.44 L806,1861.83 L806.203,1860.39 L806.778,1859.46 L807.96,1858.4 L808.873,1857.16 L809.143,1856.03 L808.265,1854.89 L807.014,1854.52 L805.629,1855.24 L804.615,1855.89 L803.871,1854.86 L803.736,1852.97 L804.479,1851.74 L805.831,1850.53 L807.656,1848.99 L808.603,1847.27 L809.11,1846.04 L809.481,1844.97 L809.921,1843.88 L810.833,1841.2 L811.441,1839.21 L811.813,1837.97 L811.982,1836.94 L812.354,1835.61 L812.793,1833.2 L812.827,1832.07 L812.658,1830.87 L812.253,1829.84 L811.509,1829.05 L810.225,1828.3 L809.278,1827.92 L807.149,1827.37 L800.931,1826.96 L799.849,1826.79 L798.227,1826.1 L797.281,1825.62 L795.929,1824.21 L794.577,1822.05 L793.969,1821.16 L793.732,1818.93 L793.935,1816.8 L794.341,1815.33 L794.577,1814.33 L794.949,1812.96 L795.693,1810.25 L796.098,1809.25 L796.537,1807.98 L797.146,1805.79 L797.315,1804.31 L797.315,1803.15 L797.517,1801.95 L797.619,1798.96 L797.788,1797.11 L797.686,1794.23 L797.484,1792.92 L796.909,1790.9 L796.47,1789.6 L795.895,1787.81 L795.355,1786.27 L794.712,1785.07 L793.732,1783.32 L792.989,1781.5 L792.414,1779.72 L791.975,1778.38 L791.299,1776.39 L790.927,1775.19 L790.826,1773.75 L790.792,1771.93 L790.556,1769.98 L790.116,1769.09 L789.474,1767.99 L788.832,1767.13 L788.122,1766.34 L787.277,1765.79 L785.925,1765.31 L784.844,1765.11 L783.492,1765.38 L781.904,1765.97 L779.065,1768.06 L777.274,1769.46 L776.294,1769.84 L774.57,1770.22 L769.534,1770.15 L768.047,1770.32 L763.755,1770.32 L761.491,1770.42 L759.734,1770.36 L758.314,1770.32 L757.098,1770.36 L755.881,1770.7 L755.07,1772.07 L755.171,1773.54 L755.881,1774.54 L757.402,1776.12 L758.449,1777.42 L758.889,1778.38 L759.159,1779.55 L759.091,1781.16 L757.503,1782.39 L756.557,1782.56 L754.867,1782.5 L753.008,1781.81 L751.116,1780.95 L749.933,1780.51 L748.344,1779.99 L747.33,1779.34 L745.269,1778.28 L744.289,1777.66 L743.207,1776.91 L741.315,1775.91 L739.895,1774.98 L738.814,1774.3 L737.969,1773.75 L736.82,1772.93 L735.502,1772.21 L734.015,1771.18 L733.035,1770.32 L731.582,1768.61 L730.5,1767.1 L729.757,1765.01 L730.095,1763.26 L731.244,1761.78 L732.088,1761.06 L733.373,1760 L735.705,1758.11 L736.854,1757.05 L738.07,1755.75 L739.422,1754.31 L740.368,1753.35 L740.977,1752.49 L741.788,1751.39 L742.836,1749.88 L743.849,1748.03 L744.289,1746.32 L744.323,1744.43 L744.052,1742.96 L743.106,1741.31 L741.957,1739.32 L741.146,1738.26 L740.267,1736.99 L739.659,1735.52 L739.557,1734.15 L740.132,1732.81 L741.484,1730.72 L741.889,1728.83 L741.72,1727.63 L741.247,1726.54 L740.571,1725.65 L738.983,1723.21 L738.544,1721.88 L738.442,1720.54 L738.611,1718.69 L739.524,1717.25 L740.74,1716.01 L741.484,1715.33 L742.599,1714.37 L744.12,1712.96 L745.505,1711.01 L746.114,1709.26 L746.283,1707.48 L746.35,1705.42 L746.012,1704.23 L745.505,1702.96 L744.187,1701.48 L741.822,1700.22 L740.504,1699.98 L736.752,1699.77 L733.305,1699.77 L730.5,1699.5 L728.81,1699.12 L727.425,1698.67 L726.005,1698.26 L724.383,1697.71 L723.166,1697.13 L721.612,1696.65 L720.361,1696.51 L719.381,1696.48 L716.813,1696.03 L714.853,1694.87 L714.008,1693.64 L713.399,1692.4 L713.163,1691.34 L712.926,1689.66 L712.723,1687.61 L712.081,1685 L711.203,1680.82 L710.831,1679.62 L710.459,1677.98 L710.087,1676.57 L709.716,1674.04 L709.513,1672.39 L709.006,1669.48 L708.499,1667.22 L708.364,1666.23 L708.262,1665.23 L708.026,1663.73 L707.789,1662.08 L707.519,1660.88 L707.519,1659.41 L707.654,1658.42 L707.654,1657.18 L707.316,1654.99 L706.742,1652.8 L706.437,1651.5 L705.085,1647.8 L704.511,1645.23 L704.781,1643.21 L705.559,1641.05 L706.573,1639.92 L707.958,1639.37 L711.811,1638.76 L713.771,1638.38 L716.846,1638.21 L718.536,1637.46 L719.246,1636.53 L719.28,1634.61 L718.773,1632.9 L717.793,1631.91 L716.542,1631.5 L714.21,1631.43 L712.926,1631.33 L710.865,1631.19 L705.525,1630.92 L704.511,1630.81 L703.396,1630.44 L702.517,1629.82 L701.807,1629.1 L700.793,1627.42 L700.084,1624.89 L699.712,1623.62 L699.34,1622.39 L698.495,1619.65 L698.056,1618.07 L697.65,1616.57 L697.312,1615.51 L696.265,1611.64 L695.724,1609.14 L695.555,1607.46 L695.555,1605.65 L695.724,1601.57 L696.096,1599.52 L696.535,1598.63 L697.515,1597.33 L698.428,1596.47 L699.644,1595.82 L701.064,1595.55 L703.092,1595.55 L704.612,1595.68 L706.066,1595.82 L708.33,1595.58 L709.175,1594.76 L709.749,1593.32 L710.189,1591.65 L710.121,1590.62 L709.851,1589.63 L709.242,1588.6 L708.161,1587.4 L705.998,1586.92 L705.052,1587.09 L703.294,1588.02 L701.503,1588.5 L700.388,1588.26 L699.475,1587.4 L698.867,1585.55 L698.124,1582.71 L697.684,1581.58 L697.177,1579.97 L696.4,1577.75 L696.096,1576.76 L695.521,1575.05 L694.947,1573.44 L694.879,1572.03 L695.251,1570.56 L695.69,1569.57 L696.772,1568.06 L697.414,1566.9 L698.428,1565.81 L699.374,1564.78 L700.455,1563.92 L701.672,1563.03 L703.294,1561.73 L704.477,1560.88 L705.626,1560.06 L706.742,1559.54 L707.755,1559.06 L709.344,1558.45 L710.391,1558.11 L711.338,1557.83 L712.554,1557.49 L713.94,1557.11 L715.224,1556.84 L718.638,1556.16 L720.767,1555.23 L721.781,1554.07 L722.93,1551.6 L723.302,1550.48 L723.403,1549.04 L723.369,1547.26 L722.93,1545.17 L722.626,1544.25 L722.186,1543.36 L721.24,1542.26 L719.854,1540.69 L719.009,1539.8 L718.029,1538.71 L717.015,1537.58 L716.204,1536.69 L715.9,1535.59 L716.204,1534.09 L717.421,1532.31 L718.232,1531.52 L718.976,1530.8 L720.226,1529.64 L721.308,1528.61 L722.828,1527.07 L724.146,1525.95 L725.6,1524.65 L726.816,1523.48 L728.033,1523.21 L729.182,1522.76 L730.77,1522.18 L731.683,1521.64 L732.426,1521.02 L733.035,1520.27 L733.271,1519.28 L733.17,1518.28 L732.359,1516.81 L731.582,1515.55 L730.669,1514.25 L729.385,1512.74 L728.641,1512.02 L727.594,1510.76 L726.749,1509.15 L725.971,1507.3 L725.6,1505.97 L724.991,1504.12 L723.741,1502.79 L723.031,1501.87 L721.916,1500.05 L721.24,1498.31 L721.206,1497.04 L721.713,1495.98 L723.166,1495.78 L724.011,1496.29 L725.228,1496.91 L727.458,1496.94 L727.796,1495.61 L727.763,1494.58 L727.56,1492.57 L727.222,1490.75 L726.951,1488.12 L726.107,1484.05 L725.431,1481.52 L724.518,1478.89 L723.639,1477.73 L722.524,1476.94 L721.679,1476.05 L720.125,1474.78 L718.908,1473.55 L716.846,1471.19 L715.968,1470.14 L715.055,1469.14 L714.041,1467.98 L712.892,1466.41 L711.608,1464.77 L710.493,1463.47 L709.378,1462.51 L708.499,1461.93 L707.586,1461.45 L706.099,1460.49 L704.714,1459.4 L703.734,1458.44 L702.923,1457.66 L701.672,1457.59 L700.084,1457.38 L698.157,1456.77 L696.839,1456.15 L695.352,1455.54 L694.474,1454.79 L693.764,1453.32 L693.595,1451.57 L693.73,1450.1 L694.372,1448.5 L696.569,1448.02 L698.157,1448.53 L699.374,1448.36 L700.219,1447.64 L700.827,1446.17 L701.334,1444.91 L701.436,1443.34 L701.334,1442.1 L701.064,1440.6 L700.658,1438.96 L700.117,1437.29 L699.746,1435.92 L699.847,1434.14 L700.185,1432.81 L700.591,1431.51 L701.436,1428.26 L701.807,1426.01 L701.807,1423.34 L701.706,1420.71 L701.402,1417.7 L701.131,1416.27 L700.929,1414.56 L700.658,1413.57 L700.286,1412.31 L699.847,1411.11 L698.968,1409.47 L697.786,1407.62 L696.535,1406.05 L695.589,1405.3 L693.595,1404 L692.412,1403.32 L691.229,1402.77 L689.708,1402.29 L687.376,1402.23 L684.031,1402.29 L682.51,1401.85 L681.395,1401.24 L680.921,1400.21 L680.685,1398.64 L679.265,1397.37 L678.522,1396.25 L678.049,1394.85 L677.204,1393.89 L677.102,1392.73 L679.434,1391.33 L679.333,1389.72 L679.096,1387.47 L679.806,1385.79 L681.901,1384.19 L683.22,1383.33 L683.659,1382.1 L683.625,1380.98 L683.388,1379.82 L682.983,1378.11 L681.969,1375.79 L681.766,1374.45 L681.496,1373.5 L681.158,1371.24 L680.752,1370.25 L679.84,1369.12 L677.508,1367.25 L676.629,1366.32 L675.92,1364.68 L675.886,1362.98 L676.089,1361.88 L676.663,1360.86 L677.88,1358.95 L678.623,1357.79 L679.096,1356.93 L679.096,1355.81 L678.116,1354.03 L677.508,1353.07 L676.156,1351.81 L674.331,1350.14 L673.486,1348.67 L672.81,1347.4 L672.641,1346.31 L672.979,1344.33 L674.027,1342.97 L674.331,1341.74 L674.602,1340.61 L675.683,1339.89 L677.035,1339.86 L678.995,1340.27 L680.752,1340.27 L681.699,1339.79 L682.375,1339.04 L684.098,1336.85 L685.078,1335.8 L685.923,1334.6 L687.309,1331.77 L687.985,1330.54 L688.39,1329.65 L689.37,1328.52 L689.37,1326.65 L689.472,1325.35 L689.742,1323.91 L689.742,1321.46 L689.337,1318.69 L688.999,1317.67 L688.12,1316.27 L687.512,1315.24 L686.667,1313.5 L686.16,1312.41 L685.45,1310.05 L686.261,1308.18 L687.883,1306.44 L688.863,1305.04 L690.012,1303.13 L691.162,1301.76 L692.277,1301.04 L694.136,1299.92 L694.879,1299.2 L695.623,1298.48 L696.805,1296.84 L697.481,1295.72 L698.394,1294.56 L699.34,1293.12 L700.32,1291.83 L701.773,1290.33 L703.936,1289.06 L704.781,1288.31 L705.964,1287.36 L707.553,1285.65 L708.364,1284.42 L709.378,1282.82 L709.952,1281.35 L710.391,1279.58 L710.459,1277.84 L710.696,1276.54 L711.304,1274.66 L711.878,1273.06 L712.284,1271.8 L712.791,1269.99 L713.264,1268.96 L713.94,1267.63 L715.055,1266.4 L716.306,1265.31 L717.759,1264.05 L718.334,1263.2 L718.435,1261.05 L718.773,1259.61 L720.091,1257.26 L720.226,1255.32 L719.99,1253.41 L719.55,1252.35 L718.638,1250.68 L718.029,1249.55 L717.083,1248.05 L716.542,1246.89 L716.069,1245.8 L715.326,1244.06 L714.886,1242.15 L714.515,1240.65 L714.143,1238.67 L714.143,1236.31 L714.515,1235.19 L715.528,1232.87 L716.069,1231.16 L716.373,1229.46 L716.34,1228.33 L716.103,1226.52 L715.9,1225.4 L715.731,1223.52 L716.272,1219.57 L716.373,1217.66 L716.272,1216.33 L715.9,1215.13 L715.123,1214.25 L713.366,1213.19 L712.419,1212.44 L711.304,1211.24 L710.324,1209.85 L709.749,1209.06 L708.499,1206.13 L707.755,1204.63 L707.181,1203.03 L706.674,1200.95 L706.471,1199.85 L706.471,1198.12 L706.573,1196.65 L707.046,1194.43 L707.417,1192.97 L707.688,1191.74 L708.33,1189.25 L708.735,1186.69 L709.073,1185.09 L709.614,1182.5 L709.276,1181.17 L709.276,1179.29 L709.073,1176.7 L708.972,1174.28 L708.533,1173.4 L707.857,1172.65 L706.066,1171.28 L705.254,1169.85 L705.457,1167.4 L705.728,1165.69 L705.626,1164.57 L705.356,1162.69 L705.221,1160.61 L705.728,1158.06 L706.843,1155.06 L709.276,1149.88 L710.865,1147.49 L712.352,1145.51 L714.109,1143.71 L716.678,1141.73 L717.894,1140.47 L719.381,1138.15 L720.361,1136.17 L720.97,1133.72 L721.206,1131.95 L721.206,1129.29 L720.868,1127.69 L719.922,1126.12 L718.874,1125.1 L717.117,1123.84 L716.069,1123.29 L714.008,1121.79 L710.493,1119.82 L709.547,1118.69 L709.006,1117.6 L708.06,1112.9 L707.417,1108.3 L707.012,1106.97 L705.728,1104.35 L704.004,1101.69 L703.024,1099.71 L701.909,1097.91 L700.185,1093.89 L699.104,1090.41 L698.022,1087.76 L697.279,1086.53 L694.947,1083.63 L693.392,1082 L690.012,1078.7 L685.518,1075.49 L684.402,1074.85 L682.645,1074.1 L678.049,1072.43 L675.311,1071.95 L672.168,1071.07 L668.89,1069.74 L667.978,1069.23 L666.997,1069.23 L666.896,1070.79 L668.248,1072.43 L668.687,1075.02 L667.978,1077.2 L666.761,1078.7 L665.612,1079.82 L663.753,1081.08 L662.266,1081.93 L661.32,1082.51 L660.542,1083.12 L658.413,1084.35 L657.332,1084.55 L654.797,1084.28 L653.749,1082.31 L652.736,1083.23 L652.33,1084.49 L653.006,1086.97 L654.763,1088.78 L653.547,1089.63 L651.62,1089.73 L648.781,1089.63 L648.41,1091.13 L648.443,1094.43 L647.497,1095.93 L647.599,1099.92 L647.565,1103.02 L648.714,1104.42 L649.255,1105.3 L649.457,1106.39 L649.187,1107.38 L647.937,1109.12 L646.145,1110 L644.658,1111.3 L642.698,1110.82 L641.481,1109.8 L639.927,1109.46 L639.15,1108.4 L638.44,1107.38 L637.494,1107.75 L636.75,1109.97 L636.277,1113.38 L635.601,1114.4 L634.283,1115.11 L632.559,1115.29 L630.633,1115.39 L629.72,1116.75 L628.808,1117.43 L627.321,1117.23 L626.713,1118.22 L626.746,1119.41 L627.22,1120.77 L630.599,1124.62 L630.971,1125.81 L630.87,1126.97 L630.396,1128.06 L628.909,1128.95 L627.558,1128.57 L625.597,1126.77 L623.57,1126.8 L619.886,1127.35 L617.926,1127.89 L616.472,1128.06 L615.492,1127.08 L615.357,1125.98 L615.797,1122.82 L614.884,1122.03 L612.789,1122.27 L610.592,1123.5 L609.815,1124.25 L608.767,1124.79 L607.043,1126.02 L606.097,1126.29 L604.779,1125.44 L604.205,1124.01 L603.867,1121.79 L603.731,1119.44 L603.934,1117.13 L603.393,1115.83 L602.346,1115.35 L601.129,1116.24 L598.763,1119.2 L597.648,1118.49 L596.938,1116.72 L597.479,1115.46 L599.642,1113.48 L600.217,1112.08 L599.372,1110.96 L597.412,1110.96 L595.181,1111.54 L593.728,1110.55 L593.288,1109.15 L592.646,1107.86 L591.43,1107.35 L590.314,1107.86 L588.118,1110.82 L587.408,1111.57 L584.603,1114.02 L584.299,1116 L584.975,1117.81 L583.352,1118.08 L581.223,1116.85 L577.742,1116.24 L577.776,1115.25 L578.52,1114.02 L580.953,1111.2 L581.291,1110.07 L580.818,1107.89 L580.176,1106.7 L578.046,1104.08 L578.52,1102.17 L579.601,1101.49 L581.223,1101.62 L583.082,1102.47 L584.941,1103.12 L586.293,1103.19 L587.847,1102.3 L588.354,1100.5 L587.104,1100.74 L586.09,1100.46 L586.36,1099.17 L586.529,1097.43 L585.921,1096.51 L583.724,1096.51 L582.372,1096.78 L579.533,1099.14 L576.289,1098.69 L574.937,1098.76 L573.585,1098.96 L571.49,1099.99 L569.733,1101.35 L569.057,1102.81 L568.854,1106.49 L567.941,1107.62 L566.083,1107.55 L563.954,1105.74 L562.162,1102.34 L559.188,1100.87 L557.025,1099.75 L556.992,1098.76 L557.093,1097.06 L557.769,1095.66 L558.107,1094.54 L558.783,1093.21 L558.58,1092.08 L557.363,1091.4 L555.91,1091.61 L554.964,1092.22 L554.322,1093.89 L554.423,1096.41 L555.065,1099.48 L555.809,1102.07 L554.186,1103.87 L553.95,1106.97 L553.646,1107.99 L552.699,1109.25 L550.638,1109.73 L549.083,1110.75 L548.441,1109.08 L546.616,1110.17 L545.535,1109.7 L544.791,1107.38 L543.744,1105.85 L543.068,1104.14 L543.676,1103.39 L545.264,1103.19 L546.65,1102.37 L547.698,1099.34 L546.751,1098.96 L544.791,1100.74 L543.27,1099.17 L542.054,1098.39 L540.837,1098.9 L540.837,1101.49 L540.263,1102.54 L537.593,1102.44 L535.869,1105.57 L532.726,1108.57 L533.402,1110.17 L531.712,1110.17 L530.259,1110.96 L529.549,1111.71 L527.015,1112.08 L525.527,1111.88 L524.311,1111.4 L523.196,1110.31 L523.466,1108.98 L524.412,1107.82 L524.108,1105.54 L524.412,1104.62 L525.494,1103.8 L526.474,1102.92 L525.629,1102 L524.209,1100.36 L523.534,1098.15 L521.506,1097.67 L520.019,1097.4 L518.87,1097.47 L517.788,1098.11 L517.045,1099.14 L513.766,1100.4 L512.888,1102.2 L510.691,1101.79 L509.272,1101.52 L508.427,1100.77 L508.663,1098.32 L507.311,1097.64 L506.095,1097.87 L505.993,1099.03 L505.149,1099.92 L506.095,1101.04 L504.506,1101.15 L503.29,1102.58 L501.566,1103.19 L500.654,1102.07 L500.181,1100.57 L498.896,1100.19 L498.051,1101.04 L497.105,1101.49 L495.956,1102.92 L494.334,1103.33 L492.813,1103.8 L491.191,1103.7 L489.839,1105.06 L489.062,1105.74 L488.893,1107.28 L488.42,1108.88 L488.352,1110.55 L488.622,1111.61 L488.791,1113.14 L490.008,1113.51 L492.069,1114.43 L491.427,1115.29 L488.42,1114.81 L486.189,1114.5 L486.29,1116.48 L484.972,1115.86 L483.587,1114.33 L482.505,1115.08 L481.289,1115.15 L480.207,1113.89 L480.207,1111.98 L479.159,1112.08 L476.523,1114.16 L475.307,1115.35 L473.38,1117.64 L471.42,1117.7 L470.406,1116.03 L469.697,1114.33 L468.683,1109.97 L467.838,1109.36 L466.148,1109.32 L464.695,1108.88 L461.89,1108.57 L459.828,1108.98 L456.28,1108.47 L453.103,1109.15 L450.399,1110.65 L451.21,1111.23 L453.103,1111.98 L451.616,1113.51 L450.636,1115.46 L448.98,1118.28 L446.986,1117.7 L445.87,1116.1 L445.634,1114.88 L446.006,1113.17 L446.85,1110.82 L446.85,1109.36 L446.006,1108.57 L444.316,1107.99 L442.592,1108.85 L442.626,1110.11 L441.139,1109.83 L440.024,1110.34 L438.232,1110.58 L437.928,1109.59 L436.745,1109.15 L435.901,1110 L434.887,1110.31 L433.67,1109.9 L431.879,1109.9 L430.764,1110.65 L429.919,1109.25 L428.702,1108.98 L427.316,1109.36 L425.863,1109.59 L424.782,1110.45 L423.092,1110.72 L421.368,1111.71 L420.253,1113.48 L420.084,1114.91 L418.698,1114.98 L416.738,1115.63 L414.373,1115.63 L413.392,1118.39 L414.947,1119.07 L415.691,1119.99 L417.076,1121.04 L416.231,1122.03 L414.001,1120.57 L413.19,1121.9 L414.271,1123.26 L413.257,1124.21 L412.311,1124.59 L410.655,1125.64 L408.695,1125.64 L407.478,1125.1 L405.619,1123.26 L402.814,1120.67 L400.55,1119.44 L399.739,1118.73 L398.894,1119.44 L397.779,1121.32 L395.886,1121.21 L395.481,1123.16 L394.095,1124.89 L392.811,1125.17 L391.29,1124.25 L386.795,1125.44 L386.829,1123.19 L385.714,1123.5 L384.497,1124.62 L384.497,1127.69 L383.01,1128.95 L381.658,1127.89 L380.103,1127.62 L377.974,1126.6 L377.028,1125.81 L376.183,1127.35 L374.696,1126.12 L373.378,1124.59 L372.634,1125.81 L371.519,1126.39 L368.985,1126.33 L366.923,1127.31 L365.808,1127.62 L364.692,1127.59 L362.901,1127.14 L361.279,1127.82 L361.042,1129.87 L359.724,1130.24 L359.454,1131.2 L359.454,1132.32 L359.15,1133.38 L358.44,1136.04 L356.987,1136.04 L355.973,1136.28 L354.216,1136.38 L350.735,1136.86 L346.341,1135.63 L343.367,1135.9 L343.807,1137.03 L342.117,1138.29 L341.508,1139.21 L340.663,1141.35 L338.703,1142.21 L337.115,1143.47 L336.743,1145.04 L338.129,1146.19 L340.157,1146.16 L337.96,1147.25 L335.527,1147.59 L334.039,1146.06 L333.837,1145.07 L335.155,1142.34 L336.338,1138.87 L335.628,1137.88 L334.31,1136.82 L332.958,1136.28 L331.978,1136.58 L331.133,1137.44 L329.443,1138.08 L328.227,1138.25 L326.469,1137.91 L324.881,1139.14 L325.996,1140.74 L324.205,1140.54 L322.785,1139.58 L321.772,1137.98 L320.487,1137.13 L318.662,1137.16 L316.939,1137.16 L314.945,1137.54 L314.573,1139.38 L313.897,1140.71 L313.931,1141.87 L312.173,1142.31 L310.484,1141.46 L311.092,1139.75 L307.307,1139.89 L306.259,1139.86 L305.583,1141.83 L304.13,1142.79 L301.46,1143.43 L299.534,1142.79 L297.912,1141.73 L296.323,1140.23 L295.613,1141.22 L294.938,1141.97 L295.343,1142.89 L294.397,1144.01 L292.91,1143.06 L290.476,1141.35 L289.091,1142.21 L288.618,1143.16 L289.868,1143.81 L289.091,1144.76 L288.145,1145.99 L286.928,1145.34 L285.813,1144.46 L285.069,1145.44 L284.292,1146.06 L284.123,1148.48 L283.447,1149.67 L281.318,1147.97 L279.932,1147.52 L276.992,1147.22 L276.046,1146.94 L274.085,1146.19 L271.652,1146.09 L270.266,1146.02 L269.219,1146.74 L268.137,1147.69 L261.412,1144.22 L242.419,1135.9 L231.469,1131.03 L206.426,1119.58 L211.968,1114.43 L214.402,1113.1 L216.092,1110.82 L216.463,1107.14 L217.072,1102.71 L215.585,1099.61 L217.849,1097.77 L220.282,1099.54 L223.56,1100.26 L227.481,1099.99 L228.664,1099.65 L231.84,1098.9 L234.747,1098.76 L236.977,1097.3 L239.512,1096.31 L242.892,1094.43 L246.136,1091.23 L247.116,1087.69 L248.434,1084.66 L251.206,1082.89 L254.923,1081.63 L257.221,1079.92 L262.054,1077.2 L265.129,1075.22 L268.982,1073.14 L271.585,1070.79 L273.95,1067.73 L276.519,1068.1 L278.851,1070.08 L281.757,1070.69 L284.359,1068.75 L286.353,1067.63 L289.598,1066.2 L293.451,1065.41 L296.526,1063.2 L298.486,1060.44 L301.933,1059.38 L305.212,1058.91 L310.72,1057.03 L311.937,1054.62 L312.241,1051.69 L312.14,1050.46 L311.971,1048.93 L312.68,1046.14 L314.776,1044.16 L317.108,1042.39 L319.642,1041.03 L321.941,1039.56 L325.59,1035.21 L327.28,1033.67 L331.099,1030.47 L333.059,1027.85 L335.02,1022.88 L336.743,1020.36 L338.906,1018.32 L343.57,1015.12 L347.288,1011.75 L347.186,1008.92 L347.288,1006.13 L347.862,1003.48 L348.437,999.425 L348.065,996.498 L347.592,993.843 L346.003,990.303 L344.077,988.499 L341.576,987.172 L339.785,984.993 L339.988,982.203 L341.711,979.922 L344.313,980.705 L346.375,982.271 L348.944,983.7 L351.275,984.823 L353.269,986.525 L355.905,986.082 L358.102,984.108 L360.536,983.224 L363.003,984.347 L364.456,986.729 L367.295,986.933 L369.458,985.198 L372.128,984.347 L373.919,986.423 L373.479,989.044 L375.98,990.099 L378.616,989.282 L381.32,989.622 L383.855,988.499 L383.28,985.674 L381.759,981.794 L386.896,981.352 L389.363,980.875 L392.169,981.284 L397.644,987.546 L400.381,988.023 L402.612,986.627 L405.349,986.151 L408.053,986.559 L410.723,986.355 L413.19,987.001 L415.724,988.125 L418.394,989.146 L421.233,989.248 L426.167,986.593 L427.756,984.483 L430.459,983.632 L432.724,982.475 L436.239,981.182 L438.03,980.501 L440.632,980.603 L443.167,981.352 L445.769,982.305 L448.439,982.271 L451.244,982.577 L456.989,983.632 L459.727,983.734 L461.991,982.475 L464.222,980.705 L465.54,978.323 L468.243,977.71 L470.913,977.812 L472.535,978.05 L479.058,978.969 L482.269,980.229 L484.499,981.998 L487.203,981.76 L489.94,981.998 L491.056,984.381 L493.658,985.572 L495.719,987.308 L496.26,989.895 L500.958,992.005 L502.918,993.707 L504.236,996.157 L504.98,999.323 L506.095,1001.67 L507.649,1004.12 L509.441,1006.03 L511.806,1007.49 L514.375,1007.87 L520.12,1007.32 L522.249,1008.96 L523.466,1011.37 L525.527,1013.25 L527.116,1015.22 L529.752,1015.22 L531.712,1017.16 L531.712,1019.92 L531.205,1022.57 L533.672,1023.22 L536.072,1022.2 L539.046,1021.82 L539.823,1024.28 L539.891,1027.14 L540.465,1030.3 L541.412,1032.75 L543.912,1033.5 L545.704,1035.58 L546.008,1038.34 L547.495,1040.55 L550.368,1040.69 L553.105,1039.7 L555.065,1037.83 L557.397,1033.81 L562.23,1035.04 L562.703,1032.07 L564.291,1029.83 L566.826,1029.62 L571.152,1033.03 L573.349,1031.7 L576.526,1026.9 L577.675,1024.28 L579.567,1019.03 L582.609,1014.2 L584.941,1012.87 L587.746,1011.75 L587.847,1008.92 L587.644,1000.28 L588.118,997.621 L588.253,995.034 L590.483,993.298 L593.018,993.877 L595.789,994.319 L598.223,993.605 L599.845,991.256 L601.028,988.907 L603.36,987.648 L606.266,987.206 L608.902,986.355 L611.234,985.095 L613.532,983.156 L616.168,982.271 L619.142,982.203 L624.651,983.394 L627.456,984.211 L630.092,985.198 L632.593,986.423 L636.649,990.371 L641.312,993.502 L643.915,994.421 L646.72,993.775 L647.7,996.532 L647.869,998.744 L647.835,1001.33 L651.316,1002.62 L654.054,1002.79 L655.405,1002.52 L656.656,1002.25 L658.346,1000.24 L659.731,997.723 L661.759,999.493 L663.55,1001.57 L664.767,1001.02 L668.248,999.595 L670.952,1000.11 L671.864,997.485 L670.377,994.047 L669.566,991.052 L668.687,988.533 L668.045,984.381 L664.226,980.433 L663.55,977.948 L664.801,975.702 L665.882,973.15 L666.727,970.529 L667.099,967.535 L666.761,964.676 L666.828,961.988 L666.558,959.062 L666.862,956.203 L667.944,953.856 L666.085,951.882 L666.761,949.092 L669.093,947.493 L671.864,948.412 L674.297,949.739 L677.001,950.181 L679.367,951.134 L682.645,955.557 L684.876,956.986 L687.681,956.442 L689.573,954.706 L690.283,951.814 L693.257,951.508 L696.197,951.542 L699.171,951.406 L701.064,949.33 L702.044,946.71 L706.674,943.886 L709.378,943.172 L711.338,941.369 L714.008,940.62 L716.069,939.293 L718.334,937.286 L720.463,935.619 L721.815,933.374 L724.417,932.727 L726.478,931.129 L731.987,930.244 L734.522,929.121 L736.752,930.38 L739.287,931.843 L741.213,933.544 L746.283,936.368 L747.567,938.613 L747.871,941.335 L746.553,943.886 L747.229,946.744 L749.933,951.542 L751.724,954.128 L753.448,956.067 L754.225,958.755 L752.941,964.03 L751.318,966.412 L751.589,969.1 L754.225,970.427 L756.76,971.38 L759.193,972.571 L758.821,975.43 L757.199,977.404 L755.543,979.922 L754.698,982.645 L755.34,986.729 L757.942,986.593 L760.105,988.227 L762.64,989.248 L765.445,990.133 L767.405,992.005 L769.568,993.468 L773.658,991.971 L774.908,991.46 L779.437,988.703 L782.242,988.499 L784.81,988.601 L787.784,986.082 L786.635,983.326 L786.669,980.705 L789.001,979.071 L791.536,977.88 L794.037,978.527 L797.416,978.357 L799.748,978.255 L801.776,976.247 L802.012,973.422 L804.378,971.346 L805.798,968.964 L804.581,963.758 L807.69,962.737 L809.616,961.852 L810.461,959.164 L812.996,958.211 L815.903,958.313 L815.328,955.591 L813.571,953.243 L815.531,951.542 L817.288,949.568 L817.694,945.111 L820.6,942.764 L822.527,940.722 L825.23,940.212 L827.799,941.165 L830.401,941.063 L832.091,938.749 L833.409,936.3 L833.544,933.748 L836.079,932.591 L837.937,930.72 L839.458,928.475 L840.574,923.304 L842.331,921.025 L844.393,919.086 L845.001,916.399 L843.683,913.916 L842.703,911.331 L843.649,908.882 L840.878,904.358 L841.858,901.876 L841.317,899.223 L840.269,896.672 L840.303,894.019 L838.411,891.911 L837.971,889.122 L838.039,886.504 L838.174,883.817 L840.371,882.389 L841.723,877.186 L843.21,874.602 L845.035,869.332 L846.353,866.85 L846.623,864.164 L846.116,861.41 L845.136,858.656 L845.846,856.14 L848.448,856.99 L851.152,857.364 L853.653,856.344 L855.985,851.414 L858.147,850.02 L858.79,849.204 L861.628,845.635 L864.129,844.785 L866.36,843.425 L869.773,840.842 L872.173,839.482 L877.479,837.544 L879.912,836.899 L882.819,836.525 L885.657,836.525 L888.26,836.865 L890.896,837.816 L892.924,839.618 L894.039,842.303 L896.911,846.383 L898.601,848.457 L901.17,848.525 L904.211,847.675 L906.408,847.097 L908.909,845.737 L912.762,842.134 L914.621,839.346 L916.817,838.02 L919.487,837.51 L922.258,837.918 L924.895,839.312 L925.739,841.964 L927.024,844.377 L928.916,846.485 L931.316,845.533 L933.546,844.275 L939.021,843.731 L944.158,845.363 L946.929,846.077 L949.295,847.097 L951.796,846.349 L952.945,845.703 L954.398,844.955 L957.136,844.751 L960.009,841.93 L960.211,837.544 L963.557,838.666 L965.146,836.593 L967.241,835.165 L969.911,834.077 L975.521,833.397 L980.928,834.213 L988.059,834.349 L990.763,833.431 L993.5,832.752 L996.576,832.548 L999.279,833.465 L1001.92,833.941 L1004.89,833.601 L1007.12,831.97 L1009.38,830.78 L1012.26,829.998 L1014.72,829.013 L1017.8,828.061 L1020.13,826.905 L1022.67,825.953 L1027.43,823.37 L1032.33,822.011 L1034.49,821.297 L1038.35,819.972 L1043.65,817.966 L1046.49,817.253 L1049.2,817.524 L1050.11,818.34 L1051.22,819.224 L1050.68,822.181 L1050.04,824.662 L1049.09,827.211 L1045.65,834.621 L1045.88,837.442 L1047.91,839.312 L1050.62,840.264 L1055.25,840.196 L1056.56,839.72 L1057.95,839.244 L1060.79,839.21 L1063.39,837.986 L1066.23,837.544 L1069.1,837.544 L1071.7,837.884 L1074.44,838.02 L1077.01,838.87 L1079.58,837.782 L1082.08,836.321 L1084.45,835.301 L1085.63,834.519 L1086.78,833.771 L1091.91,831.12 L1094.21,829.386 L1096.68,828.061 L1099.45,827.313 L1105.3,827.551 L1107.39,825.682 L1107.9,822.793 L1107.29,818.952 L1107.02,817.049 L1106.28,814.296 L1105.43,811.747 L1104.86,809.232 L1104.59,806.547 L1104.59,803.794 L1104.96,800.872 L1105.53,798.357 L1104.42,795.775 L1104.32,793.328 L1103.4,790.338 L1102.36,788.163 L1103.37,785.547 L1107.8,782.387 L1109.96,780.416 L1111.35,778.14 L1112.09,775.286 L1111.08,772.806 L1108.17,767.913 L1106.89,765.535 L1107.29,760.168 L1107.12,757.076 L1107.49,754.155 L1109.35,751.539 L1110.57,749.467 L1111.62,747.055 L1113.75,745.221 L1116.11,746.308 L1118.24,748.074 L1121.08,748.346 L1123.78,749.195 L1126.39,747.871 L1128.52,746.172 L1130.48,743.964 L1133.04,743.183 L1135.92,742.979 L1138.65,743.251 L1141.26,743.591 L1143.69,744.712 L1146.39,744.847 L1146.02,742.13 L1144.26,740.058 L1143.93,737.715 L1144.87,734.862 L1146.6,732.654 L1148.89,731.058 L1150.25,728.544 L1149.37,726.099 L1150.14,723.45 L1152.65,722.058 L1154.07,719.782 L1153.9,716.998 L1154.07,715.639 L1154.17,714.383 L1156.84,712.549 L1158.83,711.462 L1160.49,700.664 L1162.48,699.034 L1165.15,699.611 L1166.94,701.479 L1167.45,704.195 L1171.33,708.033 L1174.07,708.814 L1175.73,706.471 L1177.49,703.109 L1178.09,701.649 L1181.34,697.269 L1182.01,694.518 L1181.81,691.734 L1178.43,691.089 L1176.4,690.716 L1174.21,688.78 L1173.97,686.064 L1175.02,683.348 L1174.82,680.666 L1173.19,678.595 L1171.33,676.864 L1169.68,674.895 L1167.04,673.163 L1165.66,671.432 L1164.44,667.29 L1164.88,664.303 L1167.45,661.859 L1175.83,655.41 L1176.4,651.812 L1174.78,649.639 L1171.5,647.196 L1167.25,645.431 L1163.29,644.514 L1163.6,641.019 L1166.98,638.405 L1170.79,636.505 L1174.31,633.552 L1174.92,629.921 L1174.98,625.272 L1174.31,620.928 L1174.21,616.992 L1174.44,615.668 L1174.71,614.345 L1178.84,612.207 L1182.45,612.954 L1185.93,613.429 L1188.17,611.257 L1189.92,606.948 L1191.34,604.437 L1195.67,600.773 L1199.49,599.958 L1200.6,600.128 L1203.51,600.603 L1207.5,602.062 L1214.86,605.828 L1220.81,610.307 L1223.38,613.361 L1226.39,615.024 L1229.63,613.7 L1232.37,610.782 L1234.03,607.559 L1234.97,606.201 L1235.95,604.641 L1236.93,600.739 L1241.46,593.614 L1249.5,586.625 L1248.09,583.673 L1246.33,581.604 L1244.27,578.822 L1240.85,572.513 L1241.33,569.358 L1243.19,566.441 L1247.04,563.117 L1249.3,561.387 L1255.99,557.791 L1259.41,555.722 L1261.74,552.466 L1263.19,548.6 L1265.19,545.344 L1267.35,543.275 L1269.88,536.323 L1267.72,533.203 L1268.36,529.676 L1273.8,524.522 L1276.2,521.436 L1277.96,518.011 L1282.02,515.977 L1283.67,512.044 L1282.08,507.467 L1282.39,504.144 L1283.61,500.211 L1283.57,496.482 L1283.81,494.041 L1312.94,494.041 L1324.63,493.973 L1344.34,494.007 L1362.18,494.041 L1363.67,494.108 L1365.46,494.108 L1383.2,494.108 L1453.77,494.244 L1480.4,494.108 L1538.66,493.837 L1541.06,496.007 L1543.39,497.77 L1546.2,497.431 L1547.31,500.313 L1550.26,500.109 L1552.69,504.551 L1554.28,506.89 L1556.58,508.212 L1557.99,510.62 L1560.8,510.654 L1563.3,511.366 L1565.67,510.993 L1567.42,512.01 L1568.2,512.586 L1570.77,512.688 L1573.14,514.214 L1575.64,515.028 L1577.7,516.791 L1580.33,517.367 L1582.33,518.961 L1583.98,521.199 L1585.84,523.2 L1586.86,525.471 L1589.05,527.133 L1590.81,529.303 L1592.97,530.965 L1595.31,531.982 L1597.81,533.508 L1598.38,536.221 L1600.54,537.544 L1602.3,539.816 L1600.07,541.478 L1600.81,544.021 L1602.5,546.09 L1603.96,548.43 L1604.33,551.313 L1603.04,553.687 L1602.23,556.503 L1600.17,558.198 L1599.7,560.912 L1600.92,563.218 L1603.04,564.914 L1604.09,567.357 L1606.39,568.714 L1608.72,569.697 L1611.73,577.296 L1610.34,579.67 L1612.1,582.384 L1614.81,583.198 L1616.7,584.929 L1619.2,586.252 L1622.78,589.237 L1625.49,590.153 L1627.61,591.917 L1628.97,594.326 L1631.43,595.242 L1633.9,594.19 L1635.22,596.532 L1637.65,597.176 L1639.38,599.449 L1641.84,598.33 L1643.4,602.469 L1643.87,605.625 L1642.11,608.441 L1644.07,610.341 L1643.9,613.055 L1646.2,618.044 L1646.24,620.826 L1645.36,623.507 L1649.41,623.473 L1651.95,627.817 L1654.18,629.31 L1653.91,631.923 L1656.51,632.5 L1659.99,628.428 L1662.49,626.188 L1665.23,625.611 L1667.19,623.846 L1668.57,621.675 L1669.89,619.265 L1671.92,617.569 L1674.46,617.263 L1676.62,618.519 L1678.38,620.453 L1681.25,624.966 L1683.14,626.833 L1685.68,628.19 L1688.28,629.208 L1691.08,629.751 L1693.79,630.023 L1696.52,629.14 L1699.19,629.31 L1702,630.057 L1706.53,632.466 L1708.35,634.638 L1709.81,637.183 L1710.08,640.068 L1709.67,645.736 L1707.64,650.76 L1706.97,653.339 L1706.87,656.123 L1707.47,658.974 L1708.35,661.655 L1708.83,664.235 L1708.72,666.849 L1708.01,669.463 L1710.04,673.774 L1712.1,675.641 L1715.18,676.117 L1717.75,677.271 L1719.13,681.039 L1718.49,684.231 L1718.76,687.32 L1720.42,690.308 L1721.63,693.296 L1720.99,696.25 L1718.83,698.661 L1717.17,701.139 L1716.16,703.822 L1716.5,706.538 L1718.29,708.814 L1723.39,712.209 L1726.3,713.194 L1728.97,715.367 L1733.9,718.865 L1736.67,718.696 L1737.35,715.469 L1735.96,712.481 L1733.87,710.138 L1732.28,707.421 L1732.65,704.229 L1733.97,701.852 L1736.71,701.004 L1739.04,699.781 L1740.9,697.336 L1747.05,699.034 L1749.69,699.034 L1752.42,700.291 L1754.52,702.396 L1757.19,702.498 L1760.6,702.905 L1763.07,703.856 L1765.77,703.72 L1768.07,702.396 L1769.66,705.214 L1772.7,715.13 L1772.06,718.118 L1768.54,718.288 L1765.57,718.084 L1763.98,720.631 L1765.87,722.329 L1768.1,723.858 L1770.44,725.25 L1772.57,727.491 L1774.36,729.869 L1775.94,732.552 L1774.56,734.929 L1773.71,737.85 L1775.03,740.636 L1777.53,741.587 L1778.82,742.504 L1779.63,743.081 L1781.45,745.799 L1779.9,748.04 L1778.68,750.486 L1779.32,753.034 L1783.18,760.847 L1784.29,763.599 L1786.89,769.034 L1788.01,771.718 L1789.5,774.097 L1792.4,774.912 L1795.14,775.32 L1798.59,776.543 L1801.29,775.965 L1803.62,774.402 L1806.63,773.043 L1809.23,772.874 L1811.84,772.33 L1814.67,772.228 L1817.99,772.602 L1821.27,773.417 L1822.79,775.897 L1823.63,779.057 L1824.54,781.537 L1827.38,783.406 L1830.42,783.746 L1831,784.629 L1832.76,787.348 L1833.63,790.134 L1834.11,792.92 L1834.85,795.605 L1835.09,798.221 L1836.71,800.226 L1838.77,798.425 L1841.41,799.173 L1844.38,799.173 L1847.25,799.445 L1850.06,800.124 L1852.66,801.178 L1855.37,800.872 L1857.8,799.818 L1860.81,799.818 L1863.54,798.833 L1864.52,794.891 L1872.57,794.755 L1874.66,793.192 L1879.12,791.561 L1878.11,786.804 L1877.81,784.222 L1878.18,781.503 L1880.14,779.703 L1879.33,777.222 L1878.68,774.742 L1879.97,772.398 L1880.51,769.782 L1883.08,768.627 L1884.67,766.554 L1884.46,761.289 L1884.19,758.299 L1884.43,755.65 L1885.41,752.932 L1887,750.69 L1889.8,750.622 L1892.14,752.185 L1894.26,753.917 L1897.24,755.785 L1898.49,755.582 L1902.71,754.902 L1905.28,755.955 L1907.92,755.955 L1910.42,754.562 L1912.14,752.185 L1911.64,749.365 L1914.2,748.822 L1916.6,747.599 L1918.12,745.459 L1919.58,742.877 L1918.12,740.432 L1918.97,737.918 L1921.67,737.273 L1924.38,737.375 L1928.67,735.405 L1930.09,739.549 L1931.3,742.13 L1933.97,742.809 L1936.64,742.504 L1942.05,741.247 L1944.82,741.892 L1947.29,743.183 L1949.89,744.134 L1951.38,746.58 L1954.12,746.274 L1956.62,747.021 L1958,749.365 L1957.19,754.834 L1956.92,757.552 L1959.05,759.318 L1960.27,762.444 L1962.43,766.758 L1964.02,769.136 L1964.86,771.718 L1970.27,771.65 L1973.08,773.077 L1973.35,774.199 L1975.61,774.3 L1976.59,773.825 L1977.94,774.097 L1979.13,775.592 L1981.26,775.999 L1982.78,776.747 L1985.21,779.057 L1986.16,780.008 L1987.81,780.28 L1989.54,780.382 L1991.73,779.193 L1992.78,779.839 L1993.69,780.858 L1993.79,782.896 L1994.64,784.222 L1995.65,785.207 L1996.13,786.09 L1995.89,787.993 L1995.89,789.862 L1996.53,792.309 L1996.53,794.042 L1997.11,795.401 L1998.96,797.983 L2000.15,798.935 L2001.47,800.022 L2003.36,802.367 L2004.41,805.12 L2005.12,808.042 L2006.26,809.776 L2007.35,810.353 L2008.56,811.373 L2010.46,812.358 L2011.37,813.378 L2011.13,814.33 L2008.56,816.743 L2007.55,817.592 L2006.53,818.068 L2005.76,818.986 L2004.27,820.141 L2003.09,821.909 L2001.5,824.934 L2000.92,826.701 L2000.18,827.653 L1999.54,828.877 L1998.8,829.998 L1997.11,833.227 L1996.63,834.791 L1996.63,836.491 L1995.89,838.462 L1994.4,840.06 L1993.69,841.93 L1993.35,843.901 L1993.08,844.887 L1992.34,846.247 L1991.63,847.097 L1991.29,848.049 L1991.09,849.68 L1990.62,854.848 L1990.18,856.038 L1988.18,857.466 L1986.9,859.37 L1986.22,861.614 L1985.04,864.028 L1984.67,866.884 L1984.03,869.06 L1983.08,870.556 L1982.24,871.746 L1981.86,872.902 L1981.86,875.724 L1981.59,878.138 L1980.92,879.635 L1980.82,881.471 L1981.36,883.681 L1981.83,885.041 L1982.03,886.164 L1983.55,888.612 L1986.12,891.435 L1987.47,893.373 L1989.06,896.468 L1989.81,899.291 L1992.61,902.148 L1993.15,905.515 L1993.83,906.671 L1994.1,908.236 L1993.83,909.358 L1993.22,913.712 L1992.58,915.855 L1991.46,918.508 L1991.23,920.073 L1991.5,921.808 L1992.24,923.577 L1991.87,925.073 L1990.82,926.026 L1989.67,926.128 L1987.81,924.597 L1985.28,924.597 L1983.15,924.359 L1981.12,923.645 L1978.79,922.454 L1977.64,922.08 L1975.14,922.148 L1972.1,923.27 L1970.61,924.325 L1968.28,927.659 L1967.06,928.543 L1966.05,928.747 L1963.99,928.407 L1962.8,928.645 L1961.08,928.441 L1958.31,928.679 L1957.09,929.292 L1955.98,931.367 L1955.71,933.068 L1955.77,935.143 L1956.52,936.64 L1957.26,937.286 L1958,938.035 L1961.96,936.266 L1962.8,936.776 L1962.9,937.763 L1962.6,940.076 L1962.67,941.675 L1961.72,945.622 L1962.19,947.017 L1963.07,948.446 L1962.43,950.793 L1961.45,952.631 L1960.71,953.311 L1958.75,955.557 L1958.17,957.156 L1957.73,959.062 L1957.53,961.103 L1957.77,963.587 L1958.51,964.88 L1959.73,964.302 L1962.53,962.601 L1963.17,964.064 L1963.82,964.949 L1967.37,966.48 L1968.75,966.888 L1972.6,966.684 L1973.79,966.752 L1975.78,967.603 L1977.2,968.454 L1979.33,970.087 L1980.07,971.346 L1980.82,972.605 L1982.84,973.388 L1980.82,974.954 L1979.97,976.655 L1979.9,977.71 L1980.34,978.697 L1981.22,979.548 L1983.69,982.883 L1982.03,984.721 L1981.86,988.125 L1981.56,989.656 L1979.3,990.371 L1976.69,992.822 L1975.61,995.102 L1973.28,997.995 L1975.85,998.37 L1976.05,999.493 L1974.19,1001.57 L1974.73,1002.9 L1975.85,1002.9 L1977.27,1003.58 L1978.18,1005.25 L1979.9,1006.85 L1982.81,1008.07 L1983.89,1008 L1985.48,1008.85 L1986.6,1009.67 L1988.05,1010.62 L1989.43,1011.31 L1991.93,1012.39 L1991.09,1012.97 L1989.33,1013.28 L1986.63,1014.85 L1985.04,1015.22 L1984.03,1016.28 L1984.77,1017.77 L1985.61,1018.42 L1988.49,1019.88 L1990.01,1021.76 L1991.87,1022.95 L1993.22,1022.47 L1994.94,1021.72 L1996.02,1021.25 L1996.23,1025.13 L1997.85,1025.03 L1997.38,1028.06 L1997.58,1029.25 L1997.21,1033.4 L1997.85,1034.15 L1998.86,1034.46 L2000.42,1036.26 L2001.94,1036.91 L2002.34,1038.34 L2002.48,1040.04 L2001.36,1045.46 L2000.89,1046.51 L2000.35,1048.76 L1999.67,1049.54 L1999.71,1050.84 L2000.55,1052.44 L2002.01,1053.93 L2003.43,1054.58 L2004.95,1054.68 L2005.96,1054.34 L2006.91,1053.59 L2008.22,1054.24 L2008.49,1055.57 L2008.09,1056.66 L2007.24,1057.54 L2007.01,1059.42 L2005.66,1060.54 L2004.78,1062.31 L2003.83,1063.74 L2003.46,1064.7 L2002.58,1065.92 L2001.3,1065.82 L1998.46,1067.15 L1999.3,1068.61 L1999.51,1069.94 L1999.81,1071.82 L2000.01,1073.45 L1998.96,1076.75 L1997.75,1077.61 L1996.53,1077.78 L1994.1,1078.7 L1993.35,1079.31 L1992.48,1080.4 L1991.56,1082.2 L1990.72,1083.12 L1989.77,1083.7 L1986.22,1084.83 L1985.04,1084.83 L1984.3,1083.26 L1983.42,1082.27 L1980.65,1082.95 L1979.43,1083.87 L1977.81,1084.59 L1975.88,1085.58 L1975.61,1086.84 L1976.25,1088.13 L1977.84,1089.29 L1979.02,1089.8 L1980.85,1089.36 L1982.07,1089.56 L1982.88,1090.41 L1983.82,1090.75 L1987.44,1092.66 L1989.03,1093.14 L1990.18,1093.45 L1989.5,1095.69 L1989.77,1099.03 L1987.44,1103.8 L1986.36,1107.07 L1985.11,1108.57 L1984.87,1109.73 L1986.16,1109.9 L1988.08,1111.57 L1991.5,1111.67 L1992.31,1112.29 L1992.41,1114.5 L1992.21,1116.34 L1991.36,1117.81 L1990.28,1118.97 L1989.81,1120.26 L1990.75,1121.28 L1992.58,1121.04 L1994.3,1121.32 L1995.21,1123.26 L1995.31,1125.06 L1995.15,1126.77 L1995.48,1128.54 L1996.36,1131.51 L1997.44,1133.38 L1998.09,1134.57 L1998.12,1137.61 L1997.85,1138.56 L1997.38,1139.51 L1997.27,1140.64 L1997.75,1142.68 L1997.85,1144.01 L1997.61,1144.97 L1997,1146.3 L1994.54,1147.76 L1992.58,1149.67 L1991.93,1152.87 L1992.1,1154.2 L1992.95,1157.37 L1991.73,1158.43 L1991.02,1159.93 L1992.58,1161.57 L1992.78,1164.12 L1990.55,1165.11 L1989.77,1165.76 L1988.59,1168.08 L1988.12,1168.96 L1987.47,1169.78 L1988.86,1170.33 L1990.62,1170.77 L1991.23,1171.52 L1991.02,1174.73 L1989.97,1178.78 L1988.01,1180.15 L1986.63,1180.76 L1987.1,1182.02 L1986.7,1184.85 L1985.38,1186.18 L1985.38,1188.33 L1984.57,1189.83 L1983.18,1191.84 L1982.51,1193.96 L1981.59,1195.42 L1980.65,1196.04 L1978.11,1196.99 L1976.49,1197.77 L1975.37,1198.76 L1973.99,1200.2 L1973.25,1201.25 L1972.23,1202.65 L1972.67,1204.05 L1973.52,1205.31 L1974.26,1207.77 L1974.16,1208.96 L1972.81,1209.74 L1972.13,1212.92 L1972.57,1214.25 L1970.98,1217.11 L1969.9,1219.84 L1969.63,1221.89 L1970.24,1223.32 L1969.49,1226.32 L1968.41,1228.47 L1968.41,1231.06 L1967.84,1232.08 L1966.82,1232.77 L1966.35,1234.92 L1967.2,1236.45 L1968.01,1237.27 L1969.22,1237.44 L1971.22,1237.37 L1974.19,1237.58 L1975.04,1238.29 L1976.25,1239.52 L1979.9,1240.78 L1981.02,1242.49 L1981.22,1244.09 L1980.38,1246.79 L1980.55,1247.74 L1982.88,1249.24 L1981.66,1250.3 L1980.55,1251.05 L1979.5,1250.88 L1978.55,1251.15 L1977.94,1251.9 L1975.98,1252.93 L1975.95,1254.8 L1975.85,1256.71 L1974.73,1259.48 L1974.63,1262.38 L1975.14,1263.71 L1974.77,1266.3 L1976.42,1270.36 L1977.2,1271.05 L1979.02,1273.81 L1979.7,1274.66 L1982.3,1277.26 L1983.08,1278.86 L1983.18,1280.5 L1983.99,1282 L1985.38,1283.77 L1985.85,1284.76 L1985.31,1285.58 L1983.79,1286.03 L1982.88,1286.64 L1984.2,1288.24 L1984.3,1289.47 L1986.9,1291.15 L1988.01,1293.77 L1989.33,1295.14 L1990.55,1295.62 L1993.83,1294.87 L1995.15,1295.79 L1995.75,1296.81 L1996.5,1301.15 L1998.09,1302.17 L1999.2,1302.27 L2000.15,1302.58 L1999.78,1305.75 L1999.81,1307.36 L1999.67,1308.45 L1999.78,1310.43 L2001.4,1312.85 L2001.77,1314.59 L2004.27,1315.04 L2004.91,1315.86 L2005.39,1316.75 L2005.89,1318.14 L2007.55,1319.31 L2008.87,1319.65 L2010.29,1320.3 L2008.49,1322 L2008.29,1323.81 L2009.24,1324.6 L2011.47,1323.61 L2012.99,1324.26 L2013.53,1325.62 L2012.89,1327.57 L2012.14,1330.4 L2012.85,1331.15 L2012.14,1333.61 L2011.84,1334.94 L2009.31,1337.02 L2009.07,1338.39 L2010.73,1339.18 L2009.98,1340.51 L2009.68,1341.6 L2009.71,1343.55 L2008.6,1346.45 L2007.24,1348.29 L2007.24,1351.02 L2007.82,1352.73 L2007.45,1354.58 L2007.45,1356.39 L2007.18,1358.13 L2007.75,1361.2 L2008.02,1363.01 L2009.51,1364.04 L2010.66,1365.44 L2012.04,1366.43 L2011.4,1368.37 L2011.2,1370.35 L2010.83,1371.86 L2008.93,1373.67 L2007.92,1375.1 L2007.48,1376.13 L2007.11,1378.65 L2007.65,1381.63 L2008.29,1383.57 L2007.01,1385.32 L2008.46,1388.8 L2008.22,1390.68 L2006.97,1393.34 L2005.79,1394.81 L2005.05,1396.18 L2004.3,1397.27 L2005.12,1397.85 L2006.91,1400.38 L2007.85,1402.09 L2006.81,1404.55 L2007.11,1406.19 L2006.77,1410.77 L2005.66,1411.93 L2004.1,1411.66 L2002.85,1412.89 L2002.14,1415.24 L2001.3,1416.51 L2001.09,1418.76 L2001.03,1420.61 L2002.68,1422.62 L2004.07,1423.21 L2005.79,1423.82 L2006.97,1425.67 L2008.22,1426.04 L2009.81,1425.73 L2008.7,1428.5 L2007.75,1429.25 L2005.32,1430.35 L2004.68,1433.66 L2005.42,1434.82 L2006.97,1435.65 L2007.18,1437.25 L2006.77,1439.23 L2007.11,1441.73 L2008.49,1443.34 L2008.49,1445.8 L2008.09,1448.02 L2007.48,1450.48 L2009.04,1452.19 L2009.34,1454.38 L2007.01,1455.13 L2005.42,1455.23 L2004.2,1454.48 L2003.53,1453.62 L2003.36,1452.29 L2002.99,1450.96 L2002.99,1449.73 L2001.87,1448.97 L2000.52,1449.66 L1998.93,1449.83 L1998.93,1451.16 L1997,1453.04 L1998.46,1454.31 L1999.17,1456.84 L1999.54,1457.9 L1998.69,1459.3 L1997.11,1461.18 L1996.53,1462.85 L1997.11,1464.32 L1997.48,1465.45 L1997.75,1466.41 L1996.97,1467.98 L1995.28,1468.87 L1993.46,1469.62 L1992.95,1470.72 L1992.68,1472.8 L1992.24,1474.07 L1992.44,1477.18 L1992.81,1478.89 L1992.98,1482 L1992.61,1483.2 L1991.87,1484.46 L1994,1486.17 L1994.27,1487.3 L1993.93,1488.77 L1992.58,1490.79 L1993.93,1491.61 L1995.79,1491.54 L1995.75,1493.21 L1994.37,1495.1 L1993.73,1496.19 L1993.9,1497.49 L1993.83,1498.65 L1993.35,1500.05 L1993.42,1501.49 L1992.88,1502.96 L1993.15,1504.23 L1994.06,1505.94 L1993.52,1507.13 L1992.21,1507.89 L1991.36,1509.15 L1991.73,1511 L1991.12,1512.71 L1991.09,1514.59 L1990.38,1516.23 L1987.34,1515.1 L1985.99,1515.58 L1984.91,1515.75 L1983.82,1516.57 L1983.79,1518.66 L1995.96,1518.8 L2006.16,1518.93 L2025.09,1519.14 L2043.98,1519.34 L2169.5,1520.75 L2169.5,1519.41 L2185.01,1519.51 L2187.21,1519.51 L2211.37,1519.55 L2227.29,1519.65 L2233.85,1519.69 L2235.06,1519.69 L2238.88,1519.69 L2341.66,1519.99 L2352.5,1519.93 L2354.77,1521.12 L2355.21,1522.01 L2355.21,1523.89 L2355.51,1526.32 L2357.27,1527.21 L2358.22,1528.92 L2359.64,1529.09 L2359.53,1531.56 L2358.01,1532.58 L2356.53,1536.82 L2356.73,1537.85 L2360.01,1537.78 L2361.97,1536.24 L2366.33,1537.41 L2367.68,1538.26 L2368.59,1539.39 L2368.42,1540.9 L2367.48,1543.63 L2367.44,1545.38 L2367.64,1546.47 L2369.64,1547.81 L2371.09,1547.16 L2372.51,1549.62 L2373.73,1550.65 L2373.66,1552.53 L2375.25,1555.13 L2377.58,1556.26 L2379.54,1555.47 L2381.5,1555.61 L2382.51,1557.28 L2383.73,1557.87 L2385.12,1557.87 L2386.33,1558.69 L2387.48,1558.89 L2388.29,1559.44 L2389.75,1560.57 L2390.83,1560.33 L2391.23,1558.79 L2390.46,1557.35 L2390.76,1556.22 L2391.57,1554.75 L2392.08,1551.67 L2390.73,1550.78 L2389.88,1549.07 L2391.03,1548.97 L2392.72,1550.41 L2393.63,1551.43 L2394.65,1551.78 L2395.76,1551.23 L2396.91,1550.17 L2397.59,1549.07 L2398.91,1547.7 L2399.45,1546.47 L2400.36,1545.72 L2401.88,1545.62 L2403.16,1545.34 L2405.87,1542.98 L2407.12,1543.91 L2408.71,1544.8 L2409.18,1545.82 L2410.9,1545.82 L2412.26,1545.34 L2413,1546.57 L2412.9,1547.84 L2413.1,1549.41 L2413.71,1550.65 L2412.73,1554.72 L2416.07,1557.18 L2417.73,1555.74 L2419.99,1555.78 L2422.63,1555.95 L2423.58,1556.53 L2426.15,1556.53 L2426.99,1555.88 L2428.58,1557.35 L2429.63,1558.69 L2430.78,1559.47 L2436.52,1559.95 L2437.6,1561.63 L2438.95,1562.21 L2440.41,1562.45 L2441.79,1561.84 L2442.98,1562.45 L2444.23,1561.56 L2443.75,1560.4 L2444.94,1559.1 L2448.11,1557.28 L2449.8,1557.49 L2451.05,1557.35 L2453.39,1556.22 L2456.16,1557.93 L2458.02,1557.59 L2458.25,1559.06 L2459.5,1559.58 L2460.31,1558.52 L2461.6,1558.11 L2463.52,1557.93 L2464.67,1558.48 L2465.89,1559.44 L2466.94,1559.95 L2468.76,1559.37 L2469.61,1558.48 L2470.86,1558.96 L2472.24,1560.77 L2473.9,1561.19 L2475.15,1561.32 L2477.75,1560.33 L2477.55,1557.35 L2478.97,1556.53 L2480.66,1558.21 L2482.31,1559.34 L2483.36,1561.19 L2483.94,1562.66 L2485.25,1564.78 L2485.12,1566.35 L2486.64,1566.46 L2489.18,1566.39 L2491.24,1565.87 L2492.79,1565.91 L2493.26,1564.5 L2495.02,1563.55 L2496.2,1565.16 L2496.81,1566.76 L2498.44,1567.89 L2499.92,1568.06 L2501.11,1567.58 L2502.25,1565.74 L2501.71,1564.03 L2502.36,1563.17 L2502.93,1564.27 L2503.2,1565.33 L2505.13,1565.63 L2506.17,1565.39 L2507.32,1565.91 L2509.25,1566.25 L2510.64,1565.7 L2512.09,1562.59 L2513.1,1563.17 L2515.5,1565.29 L2515.03,1566.63 L2515.06,1568.34 L2514.52,1569.95 L2514.42,1571.21 L2512.83,1571.11 L2511.24,1571.08 L2512.53,1572.41 L2512.73,1573.68 L2509.35,1574.12 L2508.44,1575.18 L2509.05,1577.13 L2511.11,1578.23 L2511.51,1580.25 L2511.85,1581.96 L2512.73,1583.02 L2513.91,1583.4 L2514.29,1584.83 L2515.54,1584.53 L2517.39,1585.07 L2517.97,1586.41 L2519.19,1587.37 L2519.83,1588.12 L2519.66,1589.52 L2518.58,1591.13 L2516.99,1591.34 L2515.81,1591.37 L2515.43,1592.98 L2514.05,1593.08 L2513.37,1595.21 L2513.74,1596.54 L2513,1597.4 L2513.85,1599.31 L2513.47,1600.24 L2513.74,1603.35 L2514.52,1605.37 L2516.72,1607.43 L2517.5,1609.28 L2518.51,1609.99 L2518.34,1611.16 L2518.92,1613.35 L2518.31,1614.58 L2519.9,1617.18 L2521.04,1618.35 L2521.59,1620.4 L2521.75,1622.42 L2521.52,1624 L2524.22,1627.35 L2529.36,1628.76 L2531.15,1629.68 L2532.16,1629.79 L2532.97,1631.87 L2532.97,1633 L2533.95,1633.96 L2534.56,1635.3 L2535.64,1639.24 L2535.44,1640.23 L2535.44,1641.98 L2533.18,1644 L2533.85,1645.13 L2533.08,1647.05 L2534.7,1652.11 L2534.7,1653.96 L2534.23,1657.15 L2533.72,1658.31 L2534.5,1659.65 L2533.45,1661.23 L2533.01,1662.49 L2532.5,1665.03 L2529.83,1668.42 L2528.82,1668.83 L2527.74,1668.15 L2526.05,1671.5 L2524.56,1671.78 L2523.82,1672.8 L2521.79,1672.43 L2519.42,1673.52 L2516.18,1673.63 L2515.03,1676.47 L2514.42,1678.83 L2513.31,1682.57 L2512.6,1684.08 L2509.72,1685.24 L2508.68,1685.96 L2507.22,1687.09 L2505.97,1688.8 L2504.65,1690.14 L2502.36,1690.69 L2501.95,1691.58 L2501.75,1692.81 L2500.97,1693.57 L2499.42,1692.81 L2498.2,1692.95 L2497.12,1692.23 L2496.81,1694.05 L2496.95,1695.79 L2498.5,1696.21 L2498.23,1697.27 L2497.08,1698.57 L2495.49,1698.95 L2493.64,1700.28 L2491.03,1703.61 L2489.99,1704.7 L2488.4,1708.41 L2486.94,1709.57 L2485.8,1710.43 L2484.58,1710.6 L2483.84,1711.46 L2481.23,1712.96 L2479.75,1714.78 L2478.5,1715.23 L2477.92,1714.37 L2477.01,1713.38 L2475.96,1715.74 L2477.18,1717.32 L2478.16,1717.59 L2476.33,1718.38 L2474.37,1718.31 L2474.78,1719.31 L2475.86,1719.68 L2476.57,1720.37 L2476.23,1721.33 L2474.41,1720.54 L2473.39,1720.92 L2475.35,1722.94 L2475.72,1724.04 L2471.8,1723.01 L2470.18,1722.84 L2469.91,1723.9 L2469.1,1724.55 L2469.07,1726.06 L2469.84,1727.12 L2469.64,1728.35 L2469.54,1730.41 L2470.08,1731.95 L2470.08,1732.95 L2470.11,1734.32 L2469,1735.66 L2470.11,1736.27 L2469.44,1737.61 L2469.91,1738.95 L2469.27,1740.46 L2469.98,1741.72 L2469.98,1743.58 L2468.05,1744.16 L2467.85,1746.35 L2467.68,1747.59 L2468.69,1748.14 L2468.76,1750.4 L2468.42,1752.04 L2467.38,1753.96 L2467.65,1756.09 L2466.3,1757.08 L2467.17,1758.66 L2467.85,1759.69 L2467.95,1761.51 L2467.88,1762.57 L2467.78,1764.01 L2468.39,1765.11 L2467.41,1766.72 L2466.57,1767.3 L2467.58,1768.47 L2468.29,1769.6 L2469.64,1770.8 L2468.42,1773.44 L2468.69,1774.57 L2469.61,1775.57 L2469.44,1776.56 L2470.35,1778.48 L2470.08,1779.72 L2471.4,1779.92 L2470.35,1781.74 L2470.08,1783.22 L2470.22,1784.83 L2471.6,1784.69 L2471.7,1785.69 L2471.47,1787.19 L2472.82,1788.05 L2472.41,1789.01 L2470.86,1789.12 L2470.93,1790.52 L2472.55,1790.08 L2473.53,1791 L2471.97,1791.41 L2472.41,1792.79 L2472.92,1793.85 L2471.2,1794.71 L2472.28,1795.19 L2474.64,1795.67 L2475.15,1797.55 L2473.63,1796.73 L2472.65,1798.69 L2474.14,1799.37 L2473.76,1801.05 L2473.63,1802.56 L2475.35,1803.32 L2474.47,1803.9 L2473.02,1803.94 L2473.66,1805.07 L2474.1,1807.74 L2473.02,1808.57 L2471.2,1809.87 L2471.13,1811.11 L2472.65,1810.01 L2473.53,1809.6 L2474.58,1811.11 L2474.24,1812.1 L2474.51,1813.4 L2475.72,1814.06 L2475.96,1815.57" fill-rule="evenodd" vector-effect="none"/>
   <path d="M2476.57,1816.9 L2475.96,1815.57 L2477.21,1816.08 L2476.57,1816.9" fill-rule="evenodd" vector-effect="none"/>
  </g>
  <g stroke-width="1" font-family="MS Shell Dlg 2" transform="matrix(0.999744,0,0,0.999744,0,0)" stroke-opacity="1" stroke-linecap="square" font-weight="400" font-style="normal" stroke-linejoin="bevel" font-size="34.5833" fill="none" stroke="#000000"/>
  <g stroke-width="1" font-family="MS Shell Dlg 2" transform="matrix(11.808,0,0,11.808,0,0)" stroke-opacity="1" stroke-linecap="square" font-weight="400" font-style="normal" stroke-linejoin="bevel" font-size="34.5833" fill="none" stroke="#000000"/>
  <g stroke-width="1" font-family="MS Shell Dlg 2" transform="matrix(11.808,0,0,11.808,0,0)" stroke-opacity="1" stroke-linecap="square" font-weight="400" font-style="normal" stroke-linejoin="bevel" font-size="34.5833" fill="none" stroke="#000000"/>
  <g stroke-width="1" font-family="MS Shell Dlg 2" transform="matrix(11.808,0,0,11.808,0,0)" stroke-opacity="1" stroke-linecap="square" font-weight="400" font-style="normal" stroke-linejoin="bevel" font-size="34.5833" fill="none" stroke="#000000"/>
  <g stroke-width="1" font-family="MS Shell Dlg 2" transform="matrix(1,0,0,1,0,0)" stroke-opacity="1" stroke-linecap="square" font-weight="400" font-style="normal" stroke-linejoin="bevel" font-size="34.5833" fill="none" stroke="#000000"/>
  <g stroke-width="1" font-family="MS Shell Dlg 2" transform="matrix(11.808,0,0,11.808,0,0)" stroke-opacity="1" stroke-linecap="square" font-weight="400" font-style="normal" stroke-linejoin="bevel" font-size="34.5833" fill="none" stroke="#000000"/>
  <g stroke-width="1" font-family="MS Shell Dlg 2" transform="matrix(11.808,0,0,11.808,0,0)" stroke-opacity="1" stroke-linecap="square" font-weight="400" font-style="normal" stroke-linejoin="bevel" font-size="34.5833" fill="none" stroke="#000000"/>
  <g stroke-width="1" font-family="MS Shell Dlg 2" transform="matrix(11.808,0,0,11.808,0,0)" stroke-opacity="1" stroke-linecap="square" font-weight="400" font-style="normal" stroke-linejoin="bevel" font-size="34.5833" fill="none" stroke="#000000"/>
  <g stroke-width="1" font-family="MS Shell Dlg 2" transform="matrix(11.808,0,0,11.808,0,0)" stroke-opacity="1" stroke-linecap="square" font-weight="400" font-style="normal" stroke-linejoin="bevel" font-size="34.5833" fill="none" stroke="#000000"/>
  <g stroke-width="1" font-family="MS Shell Dlg 2" transform="matrix(1,0,0,1,0,0)" stroke-opacity="1" stroke-linecap="square" font-weight="400" font-style="normal" stroke-linejoin="bevel" font-size="34.5833" fill="none" stroke="#000000"/>
 </g>
</svg>
