<?xml version='1.0' encoding='UTF-8' standalone='no'?>
<svg width="249.936mm" viewBox="0 0 2952 2952" baseProfile="tiny" xmlns:xlink="http://www.w3.org/1999/xlink" xmlns="http://www.w3.org/2000/svg" version="1.2" height="249.936mm">
 <title>Qt SVG Document</title>
 <desc>Generated with Qt</desc>
 <defs/>
 <g fill="none" stroke-linejoin="bevel" stroke-width="1" stroke-linecap="square" fill-rule="evenodd" stroke="black">
  <g stroke-opacity="1" fill="none" font-size="34.5833" stroke-linejoin="bevel" stroke-width="1" stroke-linecap="square" font-family="MS Shell Dlg 2" font-style="normal" transform="matrix(1,0,0,1,0,0)" font-weight="400" stroke="#000000"/>
  <g stroke-opacity="1" fill="none" font-size="34.5833" stroke-linejoin="bevel" stroke-width="1" stroke-linecap="square" font-family="MS Shell Dlg 2" font-style="normal" transform="matrix(1,0,0,1,0,0)" font-weight="400" stroke="#000000"/>
  <g stroke-opacity="1" fill="none" font-size="34.5833" stroke-linejoin="bevel" stroke-width="1" stroke-linecap="square" font-family="MS Shell Dlg 2" font-style="normal" transform="matrix(11.808,0,0,11.808,0,0)" font-weight="400" stroke="#000000"/>
  <g stroke-opacity="1" fill="none" font-size="34.5833" stroke-linejoin="bevel" stroke-width="1" stroke-linecap="square" font-family="MS Shell Dlg 2" font-style="normal" transform="matrix(0.999744,0,0,0.999744,0,0)" font-weight="400" stroke="#000000"/>
  <g fill="#ffffff" font-size="34.5833" font-family="MS Shell Dlg 2" font-style="normal" transform="matrix(0.999744,0,0,0.999744,0,0)" font-weight="400" stroke="none" fill-opacity="0">
   <path d="M-2,-2 L2955,-2 L2955,2955 L-2,2955 L-2,-2" fill-rule="evenodd" vector-effect="none"/>
  </g>
  <g stroke-opacity="1" fill="none" font-size="34.5833" stroke-linejoin="bevel" stroke-width="1" stroke-linecap="square" font-family="MS Shell Dlg 2" font-style="normal" transform="matrix(0.999744,0,0,0.999744,0,0)" font-weight="400" stroke="#000000"/>
  <g stroke-opacity="1" fill="none" font-size="34.5833" stroke-linejoin="bevel" stroke-width="1" stroke-linecap="square" font-family="MS Shell Dlg 2" font-style="normal" transform="matrix(11.808,0,0,11.808,0,0)" font-weight="400" stroke="#000000"/>
  <g stroke-opacity="1" fill="none" font-size="34.5833" stroke-linejoin="bevel" stroke-width="1" stroke-linecap="square" font-family="MS Shell Dlg 2" font-style="normal" transform="matrix(11.808,0,0,11.808,0,0)" font-weight="400" stroke="#000000"/>
  <g stroke-opacity="1" fill="none" font-size="34.5833" stroke-linejoin="bevel" stroke-width="1" stroke-linecap="square" font-family="MS Shell Dlg 2" font-style="normal" transform="matrix(11.808,0,0,11.808,0,0)" font-weight="400" stroke="#000000"/>
  <g stroke-opacity="1" fill="none" font-size="34.5833" stroke-linejoin="bevel" stroke-width="1" stroke-linecap="square" font-family="MS Shell Dlg 2" font-style="normal" transform="matrix(11.808,0,0,11.808,0,0)" font-weight="400" stroke="#000000"/>
  <g stroke-opacity="1" fill="none" font-size="34.5833" stroke-linejoin="bevel" stroke-width="1" stroke-linecap="square" font-family="MS Shell Dlg 2" font-style="normal" transform="matrix(11.808,0,0,11.808,0,0)" font-weight="400" stroke="#000000"/>
  <g fill="#ffffff" font-size="34.5833" font-family="MS Shell Dlg 2" font-style="normal" transform="matrix(11.808,0,0,11.808,0,0)" font-weight="400" stroke="none" fill-opacity="0">
   <path d="M0,0 L250,0 L250,250 L0,250 L0,0" fill-rule="evenodd" vector-effect="none"/>
  </g>
  <g stroke-opacity="1" fill="none" font-size="34.5833" stroke-linejoin="bevel" stroke-width="1" stroke-linecap="square" font-family="MS Shell Dlg 2" font-style="normal" transform="matrix(11.808,0,0,11.808,0,0)" font-weight="400" stroke="#000000"/>
  <g stroke-opacity="1" fill="none" font-size="34.5833" stroke-linejoin="bevel" stroke-width="1" stroke-linecap="square" font-family="MS Shell Dlg 2" font-style="normal" transform="matrix(11.808,0,0,11.808,0,0)" font-weight="400" stroke="#000000"/>
  <g fill="#000000" font-size="34.5833" font-family="MS Shell Dlg 2" font-style="normal" transform="matrix(0.999744,0,0,0.999744,0,0)" font-weight="400" stroke="none" fill-opacity="0">
   <rect width="2953" y="0" x="0" height="2953"/>
  </g>
  <g stroke-opacity="1" fill="none" font-size="34.5833" stroke-linejoin="bevel" stroke-width="1" stroke-linecap="square" font-family="MS Shell Dlg 2" font-style="normal" transform="matrix(0.999744,0,0,0.999744,0,0)" font-weight="400" stroke="#000000"/>
  <g stroke-opacity="1" fill="#c5c5c5" font-size="34.5833" stroke-linejoin="bevel" stroke-width="1.1811" stroke-linecap="square" font-family="MS Shell Dlg 2" font-style="normal" transform="matrix(0.999744,0,0,0.999744,0,0)" font-weight="400" stroke="#5c5c5c" fill-opacity="1">
   <path d="M284.698,1735.07 L285.226,1735.41 L285.161,1736.03 L284.748,1735.87 L284.753,1736.56 L285.472,1736.83 L286.012,1736.83 L286.127,1737.33 L285.71,1738.13 L285.289,1737.85 L285.016,1738.51 L285.586,1739.36 L285.125,1739.77 L286.567,1740.94 L287.487,1740.87 L287.585,1740 L287.673,1739.4 L287.867,1738.7 L288.244,1738.34 L289.511,1738.19 L289.994,1738.34 L290.712,1738.16 L291.173,1737.37 L292.163,1736.54 L293.037,1736.34 L294.383,1736.32 L295.547,1736.52 L297.828,1737.54 L299.747,1738.84 L303.476,1741.44 L307.955,1746.78 L310.348,1750.55 L311.445,1753.32 L312.641,1759.02 L313.278,1760.45 L313.532,1762.2 L314.627,1762.46 L316.154,1762.53 L317.987,1762.74 L323.001,1765.33 L324.78,1766.69 L328.649,1771.75 L330.354,1775.39 L330.477,1778.08 L327.3,1779.7 L327.045,1781.04 L328.853,1780.38 L330.38,1781.81 L331.474,1781.88 L333.409,1780.87 L334.761,1781.42 L334.99,1782.39 L336.797,1783.51 L341.732,1785.4 L362.372,1803.68 L385.538,1824.8 L399.359,1838.16 L414.504,1854.27 L425.347,1865.55 L450.902,1891.89 L462.588,1903.95 L467.651,1909.05 L485.442,1926.51 L497.584,1937.94 L500.461,1940.6 L508.463,1948.29 L516.624,1956.27 L523.529,1964.01 L534.235,1974.93 L540.712,1982.16 L550.589,1994.61 L555.759,2001.47 L563.411,2012.26 L570.172,2023.74 L573.799,2031.97 L573.783,2036.87 L573.023,2038.1 L571.119,2041.08 L570.279,2043.9 L568.294,2045.07 L568.548,2046.24 L570.025,2047.24 L574.354,2048.76 L588.351,2064.14 L598.612,2076.07 L607.465,2086.68 L613.592,2094.03 L616.836,2098.75 L620.654,2103.15 L625.666,2111.28 L627.145,2115.32 L627.298,2121.43 L626.789,2124.63 L626.101,2126.54 L624.979,2128.61 L622.459,2131.77 L622.153,2136.81 L622.102,2140.27 L619.252,2144.65 L618.59,2147.88 L616.768,2148.85 L614.797,2151.14 L615.052,2155.54 L615.018,2158.84 L615.463,2159.95 L616.482,2161.92 L617.241,2164.93 L619.345,2165.2 L620.923,2167.06 L623.322,2167.59 L625.03,2166.87 L627.702,2166.74 L627.931,2168.52 L629.942,2168.04 L631.648,2168.14 L636.891,2173.66 L641.422,2179.21 L642.134,2180.89 L642.818,2181.15 L643.204,2180.9 L643.59,2180.23 L643.665,2179.29 L643.604,2178.44 L643.28,2177.99 L643.736,2175.84 L644.031,2174.44 L643.956,2174.03 L644.023,2173.3 L644.41,2172.29 L645.006,2171.1 L645.099,2170.51 L645.093,2170.07 L645.105,2169.32 L645.039,2167.89 L645.627,2166.3 L645.644,2165.16 L645.465,2164.78 L645.425,2164.26 L645.334,2163.65 L645.297,2163.32 L644.851,2162.03 L644.815,2161.05 L645.008,2156.41 L645.972,2154.13 L646.631,2152.55 L647.597,2151.58 L648.879,2151.24 L647.963,2150.27 L648.32,2148.62 L648.294,2146.71 L649.669,2145.21 L651.511,2143.65 L652.137,2143.12 L656.694,2140.12 L660.114,2138.87 L661.285,2138.59 L663.636,2136.97 L669.42,2135.31 L675.18,2134.89 L679.005,2134.86 L681.709,2134.16 L684.998,2133.8 L690.598,2134.36 L694.976,2135.59 L701.543,2137.93 L709.917,2142 L720.015,2148.29 L723.465,2150.44 L741.098,2161.42 L746.604,2165.21 L757.006,2172.37 L768.18,2180.51 L774.263,2186.37 L780.092,2191.05 L785.012,2194.57 L788.619,2197.16 L790.096,2198.63 L791.903,2199.42 L792.488,2201.03 L795.262,2201.59 L798.266,2203.73 L808.489,2212.35 L812.062,2216.71 L818.845,2221.42 L842.032,2241.88 L846.26,2246.44 L850.624,2251.15 L865.743,2263.77 L874.449,2271.28 L877.794,2274.94 L887.657,2283.33 L897.361,2291 L902.229,2297.4 L905.761,2299.43 L908.051,2299.31 L910.629,2298.96 L915.019,2298.32 L917.723,2298.52 L921.057,2300.7 L928,2305.35 L935.255,2307.83 L941.332,2308.5 L943.591,2309.03 L946.014,2309.9 L948.412,2311.34 L951.329,2313.23 L958.746,2317.92 L963.926,2320.66 L971.654,2324.76 L984.169,2331.15 L986.93,2331.2 L988.862,2328.92 L992.092,2326.28 L996.757,2326.76 L1001.24,2327.31 L1006.14,2328.9 L1010.12,2330.65 L1013.37,2330.46 L1014.83,2331.16 L1016.29,2330.58 L1017.25,2329.66 L1020.56,2330.42 L1022.69,2329.53 L1024.76,2329.31 L1029.44,2328.86 L1030.77,2328.26 L1033.19,2328.77 L1034.94,2328.77 L1038.2,2329.41 L1042.19,2330.65 L1046.71,2331 L1048.75,2329.85 L1050.59,2329.53 L1054.05,2331.16 L1059.33,2334.22 L1064.3,2336.53 L1069.97,2339.56 L1076.65,2343.58 L1079.25,2343.68 L1081.07,2343.85 L1081.96,2343.79 L1082.9,2343.78 L1083.68,2342.53 L1085.28,2341.9 L1089.33,2341.87 L1090.6,2341.16 L1091.09,2339.58 L1092.7,2338.97 L1094.75,2338.94 L1100.58,2338.01 L1104.14,2338.03 L1109.9,2338.7 L1114.16,2339.97 L1116.55,2340.76 L1120.3,2341.05 L1121.16,2341.21 L1127.05,2342.83 L1132.69,2345 L1134.7,2344.37 L1135.26,2342.34 L1135.22,2339.6 L1136.45,2337.53 L1138.36,2336.29 L1141.32,2335.85 L1147.09,2336.47 L1154.51,2338.79 L1163.78,2342.7 L1166.63,2344.2 L1172.24,2346.8 L1177.99,2349.51 L1181.77,2351.2 L1186.48,2353.52 L1190.49,2356.01 L1193.5,2357.52 L1201.5,2362.89 L1204.17,2364.75 L1206.06,2365.95 L1207.99,2367.46 L1213.09,2371.5 L1218.99,2375.89 L1220.88,2377.06 L1226.17,2381.12 L1227.89,2382.73 L1229.24,2384.46 L1230.17,2384.89 L1231,2384.5 L1230.71,2383.15 L1230.21,2381.33 L1230.01,2378.67 L1230.34,2377.77 L1231.37,2376.73 L1232.93,2375.48 L1235.94,2374.19 L1238.34,2372.55 L1240.3,2371.7 L1240,2370.91 L1241.67,2370.24 L1243.61,2369.73 L1244.82,2369.57 L1248.32,2369.62 L1251.05,2370.29 L1254.66,2371.02 L1258.64,2372.33 L1263.41,2375.22 L1269.51,2379.25 L1271.02,2379.93 L1272.05,2380.11 L1272.02,2380.15 L1275.35,2382.16 L1277.05,2382.95 L1280.6,2385.96 L1286.48,2390.81 L1290.19,2394.06 L1294.39,2397.72 L1300,2401.84 L1304.66,2405.13 L1308.05,2407.23 L1309.58,2407.31 L1310.92,2407.55 L1313.16,2408.18 L1316.72,2410.79 L1319.43,2412.93 L1324.66,2416.25 L1329.22,2419.88 L1334.48,2424.25 L1338.36,2427.15 L1339.9,2428.67 L1350.85,2439.49 L1363.83,2450.87 L1369.14,2456.21 L1374.93,2462.65 L1381.52,2468.95 L1393.8,2479.6 L1393.86,2479.93 L1394.07,2480.6 L1395.15,2481.08 L1398.8,2484.13 L1404.3,2489.02 L1410.66,2494.62 L1412.06,2495.08 L1412.87,2495.17 L1413.41,2495.44 L1416.1,2497.32 L1422.18,2501.15 L1426.81,2504.97 L1432.58,2510.73 L1436.78,2514.56 L1442.86,2519.94 L1446.31,2523.36 L1450.8,2527.83 L1455.14,2531.73 L1459.47,2535.61 L1467.04,2542.52 L1471.99,2546.78 L1478.08,2552.71 L1484.61,2559.09 L1489.57,2563.94 L1494.83,2568.48 L1498.86,2572.33 L1508.77,2582.03 L1517.42,2590.15 L1519.22,2591.42 L1520.03,2591.67 L1520.21,2592.13 L1520.72,2592.67 L1522.39,2594.66 L1529.9,2603.29 L1534.89,2607.6 L1540.09,2611.56 L1549.32,2620.31 L1563.46,2633.69 L1569.11,2639.56 L1575.66,2645.73 L1582.54,2652.22 L1587.06,2656.55 L1590.33,2659.73 L1596.51,2665.77 L1600.86,2670.29 L1603.72,2672.76 L1607.81,2677 L1610.7,2679.7 L1612.47,2681.91 L1613.46,2682.45 L1618.6,2677.18 L1621.93,2673.82 L1625.72,2670.44 L1627.2,2669 L1628.85,2667.72 L1630.73,2666.02 L1632.29,2664.17 L1632.99,2662.64 L1634.2,2661 L1634.92,2659.93 L1634.92,2658.7 L1635.09,2658 L1634.55,2657.27 L1634.2,2656.57 L1634.2,2655.66 L1634.73,2654.77 L1635.62,2654.77 L1636.36,2654.6 L1637.22,2654.37 L1638,2653.83 L1639.67,2653.04 L1640.73,2651.95 L1640.73,2650.15 L1641.95,2648.91 L1644.08,2648.37 L1645.85,2648.37 L1646.06,2648.32 L1647.09,2647.33 L1646.54,2645.53 L1646.72,2644.83 L1647.25,2643.94 L1648.31,2643.76 L1649.01,2643.76 L1649.38,2644.11 L1649.89,2644.3 L1650.96,2644.11 L1652.72,2644.11 L1653.09,2642.87 L1653.24,2641.83 L1654.49,2641.45 L1655,2641.45 L1655.55,2641.45 L1656.43,2641.28 L1657.5,2641.28 L1658.72,2640.56 L1658.9,2638.97 L1660.14,2637.9 L1661.03,2637.9 L1661.55,2638.44 L1663.67,2638.97 L1665.44,2638.08 L1665.6,2637.36 L1665.96,2634.7 L1667.54,2633.09 L1669.31,2633.09 L1670.55,2634.51 L1671.25,2635.77 L1672.31,2636.66 L1674.08,2636.28 L1674.78,2634.88 L1675.67,2633.62 L1676.19,2632.58 L1676.55,2631.66 L1677.25,2630.42 L1678.31,2630.26 L1680.78,2630.97 L1682.54,2630.61 L1684.83,2630.26 L1687.14,2631.85 L1686.59,2633.97 L1687.29,2636.11 L1690.82,2636.11 L1691.89,2636.47 L1693.84,2635.39 L1695.08,2635.39 L1695.6,2635.76 L1697.18,2635.38 L1698.61,2635.57 L1700.01,2636.11 L1700.37,2636.65 L1702.84,2634.88 L1703.72,2633.8 L1705.12,2632.72 L1706.18,2632.03 L1707.59,2631.14 L1708.29,2630.06 L1709.02,2628.65 L1709.72,2627.76 L1712,2627.41 L1712.54,2628.46 L1713.95,2629.52 L1715.53,2630.6 L1716.41,2632.18 L1717.66,2632.37 L1719.6,2631.84 L1720.49,2629.88 L1721.01,2629.71 L1722.41,2630.06 L1723.47,2631.3 L1725.42,2632.02 L1727,2631.83 L1728.95,2630.95 L1730.17,2630.41 L1734.42,2629.71 L1736.71,2629.33 L1738.47,2629.52 L1739.88,2630.59 L1742.7,2632.18 L1744.47,2633.06 L1746.23,2633.79 L1747.3,2634.13 L1749.06,2634.48 L1750.46,2635.37 L1751.19,2636.79 L1751.89,2638.21 L1752.41,2639.29 L1752.59,2640.36 L1752.77,2641.41 L1752.96,2642.13 L1753.83,2643.37 L1755.42,2644.6 L1758.25,2644.25 L1759.13,2643.56 L1760.9,2643.71 L1761.78,2644.79 L1763,2644.79 L1764.95,2644.06 L1766.71,2643.18 L1767.77,2643.18 L1770.06,2643.36 L1771.64,2643.18 L1773.41,2643.18 L1774.83,2643.71 L1776.75,2644.78 L1778.52,2645.49 L1779.24,2645.49 L1782.09,2645.27 L1782.46,2646.5 L1783.34,2647.04 L1784.4,2647.58 L1786.17,2647.22 L1788.64,2646.34 L1790.58,2645.98 L1792.87,2646.34 L1793.41,2646.87 L1796.21,2647.03 L1798.16,2647.03 L1800.11,2647.57 L1800.98,2648.99 L1801.17,2649.88 L1801.87,2651.11 L1803.11,2652 L1804,2652.72 L1804.86,2653.42 L1806.1,2653.95 L1807.16,2654.68 L1809.11,2655.92 L1809.99,2656.61 L1812.46,2657.15 L1814.22,2657.34 L1814.92,2658.22 L1815.1,2659.81 L1815.29,2661.07 L1817.39,2662.11 L1820.4,2662.65 L1823.04,2663.03 L1824.81,2663.72 L1826.4,2662.65 L1827.8,2659.99 L1827.8,2659.29 L1828.52,2658.22 L1829.74,2657.33 L1830.99,2656.98 L1832.58,2656.61 L1834.16,2655.72 L1835.4,2655.37 L1836.44,2655.21 L1838.39,2654.67 L1840.15,2654.29 L1841.21,2654.67 L1841.58,2654.83 L1843.86,2654.67 L1845.26,2653.94 L1848.09,2653.4 L1850.56,2652.89 L1851.44,2651.82 L1854.09,2650.93 L1855.67,2649.85 L1856.74,2648.27 L1859.04,2646.31 L1860.97,2644.7 L1862.55,2642.23 L1864.68,2641.15 L1866.45,2640.8 L1868.03,2640.61 L1870.49,2640.45 L1872.62,2639.73 L1873.14,2637.76 L1873.68,2635.99 L1876.67,2635.1 L1877.91,2634.92 L1881.6,2634.75 L1883.54,2634.75 L1886.01,2634.75 L1887.78,2634.21 L1890.42,2633.86 L1892.37,2633.52 L1893.07,2632.98 L1893.95,2631.9 L1895.72,2631.55 L1896.26,2632.79 L1898.21,2633.32 L1898.91,2633.86 L1899.25,2634.02 L1904.16,2627.83 L1912.24,2624.02 L1917.35,2619.51 L1917.06,2617.14 L1909.72,2608.13 L1901.9,2598.36 L1903.79,2595.16 L1906.46,2583.48 L1910.69,2575.23 L1911.49,2570.72 L1912.53,2565.14 L1915.17,2556.6 L1919.47,2549.61 L1933.23,2539.22 L1940.13,2536.37 L1935.45,2529.25 L1937.73,2519.9 L1940.9,2507.04 L1940.9,2500.39 L1941.68,2498.58 L1939.72,2493.45 L1939.4,2492.25 L1938.59,2490.36 L1938.43,2489.19 L1936.49,2483.01 L1935.35,2478.74 L1935.2,2477.53 L1934.88,2476.51 L1934.38,2474.63 L1934.09,2472.76 L1933.77,2471.06 L1933.45,2469 L1933.13,2467.81 L1932.8,2466.44 L1932.5,2463.54 L1932.19,2462.18 L1931.71,2460.46 L1930.87,2458.92 L1929.88,2457.02 L1929.07,2455.65 L1928.07,2454.44 L1927.37,2453.64 L1923.57,2449.96 L1922.73,2449.1 L1922.05,2448.24 L1921.39,2446.87 L1920.74,2445.82 L1920.24,2444.11 L1919.6,2441.72 L1919.29,2439.68 L1918.97,2437.63 L1918.66,2436.27 L1918.36,2433.69 L1918.39,2432.51 L1918.22,2430.46 L1917.75,2428.07 L1917.28,2426.52 L1916.44,2424.48 L1916.14,2422.6 L1915.49,2420.02 L1915.02,2418.65 L1914.51,2417.47 L1913.36,2415.57 L1912.03,2413.85 L1910.2,2412.13 L1909.02,2410.41 L1908.7,2409.04 L1908.45,2407.91 L1908.6,2407.4 L1911.65,2403.69 L1919.3,2392.78 L1926.31,2383.15 L1931.43,2377.34 L1951.68,2358.48 L1956.95,2353.56 L1967.15,2342.63 L1979.91,2329.12 L1986.32,2324.64 L1991.41,2323.99 L2002.27,2321.4 L2007.36,2318.18 L2017.56,2308.75 L2026.52,2309.82 L2030.98,2311.76 L2040.57,2314.33 L2045.66,2314.33 L2052.77,2310.83 L2066.84,2307.74 L2070.09,2298.96 L2072.18,2296.19 L2087.38,2290.6 L2096.39,2290.6 L2110.91,2292.68 L2122.68,2296.87 L2133.04,2298.93 L2148.27,2300.32 L2161.41,2298.92 L2173.16,2291.96 L2177.38,2277.27 L2184.27,2269.9 L2190.44,2267.57 L2193.91,2256.42 L2193.2,2248.77 L2197.89,2247 L2202.85,2249.41 L2207.11,2248.11 L2216.73,2248.26 L2223.64,2247.87 L2230.29,2244.29 L2235.49,2243.61 L2241.68,2242.47 L2244.7,2245.3 L2247.1,2245.14 L2248.63,2241.86 L2252.09,2240.86 L2255.18,2244.38 L2259.04,2244.65 L2260.72,2239.03 L2264.49,2236.67 L2273.22,2233.21 L2278.82,2232.36 L2286.23,2232.65 L2300.03,2230.39 L2306.74,2232.54 L2310.82,2231.31 L2314.67,2230.15 L2319.23,2229.1 L2328.15,2220.65 L2333.72,2215.23 L2339.27,2212.06 L2353.86,2218.59 L2364.36,2224.25 L2369,2227.32 L2373.42,2231.47 L2375.6,2229.53 L2377.44,2230.21 L2380.95,2229.6 L2386.21,2230.52 L2389.5,2232.02 L2390.77,2233.91 L2394.29,2236.99 L2398.11,2237.8 L2401.97,2238.91 L2404.86,2241.45 L2407.19,2241.79 L2411.35,2239.48 L2412.61,2237.69 L2413.38,2235.37 L2413.7,2233.01 L2415.04,2232.26 L2415.39,2232.34 L2416.06,2232.44 L2416.67,2232.68 L2417.44,2233.19 L2418.48,2234.35 L2419.57,2235.45 L2420.72,2235.69 L2422.06,2235.96 L2423.68,2236.01 L2424.98,2235.29 L2425.88,2234 L2428.17,2232.92 L2428.64,2231.68 L2430.36,2230.62 L2433.12,2229.59 L2433.82,2228.86 L2435.02,2228.3 L2435.93,2227.25 L2437.2,2226.93 L2438.08,2226.1 L2439.25,2225.42 L2438.73,2223.78 L2438.73,2221.72 L2438.55,2219.86 L2439.06,2218.62 L2439.48,2217.71 L2440.07,2217.19 L2440.73,2217.07 L2441.71,2217.12 L2442.43,2217.15 L2442.98,2217.02 L2444.58,2216.12 L2445.78,2215.32 L2447.44,2215.46 L2448.46,2214.22 L2449.46,2214.09 L2451.04,2213.42 L2451.95,2212.37 L2452.5,2210.68 L2454.8,2206.17 L2444.7,2176.96 L2434.79,2166.52 L2441.94,2157.67 L2442.68,2131.96 L2455.75,2128.35 L2456.08,2127.97 L2454.59,2126.64 L2454.44,2126.22 L2454.16,2125.23 L2453.21,2124.22 L2452.92,2123.45 L2451.88,2122.65 L2450.98,2122.36 L2450.15,2122.34 L2449.37,2122.47 L2448.15,2122.48 L2447.13,2122.26 L2444.62,2121.85 L2443.44,2121.55 L2442.08,2121.44 L2441.36,2121.09 L2440.82,2120.57 L2440.32,2119.7 L2439.5,2118.74 L2439.35,2117.97 L2439.7,2117.1 L2439.78,2115.79 L2440.05,2114.31 L2440.37,2110.47 L2439.9,2108.87 L2438.94,2107.14 L2437.7,2104.6 L2437.01,2104.28 L2436.14,2104.32 L2434.59,2105.19 L2433.99,2105.31 L2433.57,2105.2 L2433.24,2104.73 L2433.08,2104.12 L2432.91,2103.68 L2432.55,2103.34 L2432.11,2103.32 L2431.41,2103.12 L2431.06,2102.76 L2430.78,2102.02 L2430.73,2101.35 L2430.76,2100.88 L2430.66,2100.17 L2430.61,2099.54 L2431.07,2098.02 L2431.52,2097.25 L2431.96,2096.59 L2432.19,2095.92 L2432.44,2095.28 L2432.47,2094.87 L2432.2,2094.12 L2431.9,2093.7 L2431.26,2092.95 L2430.58,2092.11 L2430.44,2091.76 L2430.48,2091.23 L2431.03,2090.64 L2431.59,2090.22 L2432.17,2089.32 L2432.2,2088.95 L2431.38,2087.34 L2430.93,2086.47 L2430.85,2085.38 L2430.65,2084.9 L2430.52,2084.44 L2430.64,2083.59 L2430.63,2083.1 L2430.46,2082.75 L2429.9,2082.14 L2429.28,2082.09 L2428.54,2081.77 L2427.93,2080.94 L2427.85,2080.2 L2427.9,2079.6 L2428.08,2079.25 L2429.52,2078.48 L2431.13,2077.3 L2433.06,2076.05 L2433.53,2075.36 L2433.9,2073.3 L2434.12,2072.94 L2435.92,2072.04 L2436.8,2072.11 L2437.86,2072.46 L2438.97,2072.22 L2439.88,2071.96 L2441.21,2070.83 L2442.38,2069.36 L2443.82,2068.19 L2444.55,2068.01 L2445.61,2068.28 L2447.1,2068.66 L2448.05,2068.39 L2448.49,2067.9 L2448.49,2066.91 L2447.87,2065.8 L2447.54,2064.98 L2447.52,2064.25 L2448.34,2063.03 L2448.47,2062.54 L2448.03,2061.73 L2447.72,2060.49 L2447.5,2060.02 L2446.68,2059.87 L2446.15,2059.76 L2445.26,2058.89 L2443.93,2057.32 L2443.69,2056.79 L2443.67,2056.1 L2443.89,2055.75 L2444.29,2055.68 L2445.99,2055.77 L2446.7,2055.97 L2449.6,2058.07 L2450.18,2058.23 L2450.64,2058.29 L2450.99,2057.85 L2451.37,2055.33 L2451,2054.14 L2451.02,2053.16 L2451.25,2052.79 L2452.17,2051.89 L2453.26,2051.15 L2454.14,2050.51 L2454.53,2049.76 L2454.5,2049.16 L2454.03,2048.6 L2452.48,2047.92 L2451.7,2048 L2447.95,2049.78 L2447.12,2049.83 L2446.51,2049.8 L2446.04,2049.47 L2445.67,2048.68 L2445.6,2048.19 L2445.84,2046.66 L2446.06,2045.28 L2446.8,2044.28 L2449.01,2041.9 L2449.34,2041.31 L2449.31,2040.84 L2448.55,2040.09 L2448,2038.6 L2448.4,2037.36 L2449.42,2036.08 L2450.53,2034.58 L2451.44,2032.12 L2452.12,2028.14 L2452.35,2024.94 L2451.89,2024.21 L2451.31,2023.95 L2450.39,2023.61 L2449.05,2022.9 L2448.56,2022.97 L2447.61,2023.4 L2446.46,2024.16 L2446.17,2024.65 L2446.28,2025.75 L2446.33,2027.87 L2446.48,2028.95 L2446.27,2029.69 L2445.67,2030.31 L2445.34,2031.36 L2444.84,2031.99 L2444.47,2032.12 L2444.21,2032.09 L2443.77,2031.63 L2443,2030.32 L2442.51,2029.18 L2442.45,2028.19 L2442.42,2026.56 L2442.37,2026.14 L2441.8,2025.46 L2440.54,2024.41 L2439.83,2023.73 L2438.45,2022.68 L2438.21,2022.16 L2437.86,2021.24 L2437.92,2020.72 L2438.23,2020.43 L2438.84,2020.22 L2439.75,2020.02 L2441.14,2019.1 L2443.48,2018.34 L2446.93,2017.02 L2449.37,2016.09 L2450.6,2015.22 L2450.74,2014.85 L2450.65,2014.35 L2449.98,2013.41 L2448.01,2011.94 L2446.48,2011.28 L2445.39,2011.03 L2444.05,2011.15 L2443.74,2011.13 L2443.56,2010.74 L2443.16,2009.63 L2442.84,2008.35 L2442.74,2006.96 L2442.47,2006.47 L2441.06,2005.5 L2440.04,2004.81 L2439.85,2003.82 L2440.09,2003.01 L2440.88,2001.26 L2441.22,2000.68 L2441.24,2000.33 L2440.31,1998.66 L2440.09,1998.08 L2439.52,1997.56 L2439.31,1997.01 L2439.5,1996.59 L2439.88,1995.99 L2439.89,1995.63 L2438.61,1994.27 L2438.58,1993.89 L2439.15,1993.38 L2439.75,1993.06 L2440.51,1992.45 L2440.65,1991.94 L2440.47,1991.67 L2440.2,1991.7 L2439.79,1991.57 L2439.65,1991.3 L2439.76,1990.81 L2440.1,1990.51 L2440.54,1990.28 L2441.51,1990.18 L2441.96,1989.87 L2442.72,1989 L2443.48,1988.39 L2444.03,1988.16 L2444.58,1988.35 L2445.08,1988.39 L2446,1988.23 L2447.52,1986.95 L2448.33,1986.09 L2448.74,1985.65 L2449.16,1985.56 L2449.93,1985.72 L2450.87,1985.64 L2451.76,1985.27 L2452.42,1984.8 L2454.2,1983.2 L2454.93,1982.82 L2455.08,1982.18 L2455.46,1981.84 L2455.74,1981.87 L2455.92,1982.16 L2456.45,1983.02 L2456.98,1983.03 L2458.68,1982.21 L2460.48,1980.32 L2461.63,1979.36 L2462.06,1979.48 L2462.35,1979.64 L2462.52,1979.43 L2462.74,1979.15 L2463.21,1979.14 L2463.74,1979.36 L2464.55,1979.83 L2465.1,1979.99 L2465.56,1979.72 L2466.07,1979.15 L2466.53,1978.54 L2466.85,1978.18 L2467.16,1977.67 L2467.78,1977.38 L2468.55,1977.51 L2469.85,1977.6 L2470.79,1977.51 L2471.72,1976.86 L2472.18,1976.18 L2472.66,1975.76 L2473.73,1974.99 L2475.51,1974.24 L2476.19,1974.18 L2476.7,1973.72 L2477.45,1973.04 L2478.52,1972.92 L2478.97,1973.01 L2479.68,1973.34 L2480.91,1974.02 L2481.85,1974.47 L2482.62,1974.24 L2482.95,1973.82 L2483.37,1973.3 L2483.37,1971.35 L2484.38,1971.07 L2485.71,1971.03 L2486.3,1970.98 L2486.94,1970.57 L2487.81,1969.38 L2488.41,1969.02 L2489.78,1968.7 L2491.24,1968.15 L2492.43,1967.41 L2492.89,1966.91 L2494.47,1966.07 L2496.44,1964.56 L2499.45,1955.11 L2499.45,1941.65 L2503.29,1926.63 L2508.88,1922.21 L2510.15,1915.8 L2512.05,1910 L2515.24,1904.23 L2519.08,1899.07 L2528,1892.65 L2545.24,1888.77 L2551.62,1889.41 L2557.36,1893.28 L2560.56,1898.4 L2570.89,1919.59 L2580.32,1923.3 L2585.94,1927.61 L2588.5,1921.96 L2591.04,1910.48 L2596.12,1898.5 L2597.4,1892.48 L2596.9,1887.88 L2594.25,1884.14 L2592.35,1874.34 L2600.64,1867.82 L2626.46,1863.06 L2633.84,1867.32 L2637.47,1866.6 L2644.39,1861.3 L2651.16,1856.18 L2660.2,1845.19 L2660.24,1816.14 L2661.51,1816.39 L2666.35,1814.35 L2669.08,1809.15 L2670.87,1808.45 L2679.52,1804.25 L2680.98,1805.53 L2684.8,1804.44 L2690.21,1802.09 L2689.26,1799.16 L2691.16,1796.23 L2689.26,1795.22 L2685.06,1797.16 L2683.91,1794.99 L2678.69,1794.61 L2676.66,1790.28 L2671.82,1789.65 L2668.26,1786.21 L2662.02,1785.07 L2661.51,1781.89 L2651.08,1775.78 L2647.18,1776.83 L2636.63,1764.74 L2637.65,1760.41 L2625.15,1751.13 L2621.09,1751.55 L2613.87,1747.01 L2609.91,1749.82 L2607.87,1747.02 L2599.51,1753.41 L2594.35,1754.09 L2591.15,1751.75 L2584.03,1749.32 L2576.43,1746.47 L2577.07,1737.77 L2579.63,1733.25 L2581.98,1729.44 L2581.06,1727.34 L2580.4,1726.14 L2579.4,1723.92 L2579.09,1722.89 L2578.59,1721.68 L2578.09,1720.66 L2577.28,1718.44 L2576.8,1717.23 L2575.8,1714.67 L2575.33,1712.96 L2574.83,1711.75 L2574.51,1710.73 L2574.36,1709.55 L2574.04,1707.99 L2573.75,1705.28 L2573.43,1703.56 L2573.14,1699.99 L2572.98,1698.43 L2572.82,1697.26 L2572.36,1694.36 L2572.05,1692.64 L2571.89,1691.1 L2571.74,1689.58 L2571.6,1687.86 L2571.28,1685.98 L2570.96,1684.1 L2570.65,1682.41 L2570.51,1680.87 L2569.88,1676.77 L2569.4,1674.38 L2568.59,1671.48 L2567.96,1669.76 L2555.02,1650.75 L2544.87,1644.13 L2536.96,1625.08 L2540.02,1620.82 L2546.1,1610.45 L2548.84,1605.1 L2549.88,1603.06 L2550.4,1601.91 L2551.66,1599.04 L2552.66,1597.51 L2552.34,1594.77 L2552.21,1592.22 L2552.09,1589.66 L2551.77,1586.77 L2552.48,1584.54 L2553.02,1583.03 L2553.54,1580.99 L2554.24,1579.12 L2554.78,1577.42 L2556.17,1574.71 L2556.87,1572.35 L2558.25,1569.98 L2558.61,1568.45 L2559.13,1567.08 L2559.51,1564.53 L2560.04,1563.19 L2560.56,1561.5 L2560.76,1560.13 L2560.94,1558.54 L2560.33,1553.48 L2559.67,1551.25 L2559.04,1548.53 L2558.72,1547.48 L2557.75,1544.43 L2557.41,1543.38 L2556.93,1541.69 L2556.28,1539.62 L2555.8,1537.23 L2555.49,1535.7 L2555.37,1532.29 L2556.39,1530.44 L2557.28,1528.56 L2557.8,1526.52 L2558.34,1524.83 L2559.56,1522.11 L2560.42,1519.92 L2561.3,1517.04 L2561.51,1514.81 L2561.55,1512.1 L2561.75,1509.72 L2561.44,1507.49 L2560.96,1505.1 L2560.47,1503.22 L2557.16,1493.61 L2550.15,1494.9 L2545.04,1488.49 L2543.77,1483.97 L2541.64,1478.59 L2530.95,1474.29 L2526.78,1470.84 L2522.97,1461.16 L2514.42,1461.02 L2512.21,1457.04 L2506,1452.71 L2507.12,1439.34 L2505.13,1436.13 L2500.35,1428.74 L2499.31,1425.42 L2499.24,1421.51 L2478.09,1417.1 L2475.49,1417.77 L2469.6,1418.84 L2466.15,1419.69 L2464.02,1420.58 L2460.43,1423.65 L2458.05,1427.18 L2456.23,1431.39 L2451.04,1440.79 L2447.63,1446.23 L2443.49,1448.77 L2438.58,1449.93 L2432.39,1449.68 L2429.62,1448.54 L2411.33,1438.93 L2397.11,1428.88 L2382.96,1415.57 L2364.02,1392.35 L2361.22,1383.96 L2361.63,1381 L2363.12,1378.19 L2366.83,1375.56 L2370.77,1375.03 L2374.85,1375.69 L2377.36,1376.75 L2379.3,1376.92 L2381.38,1376.72 L2384.22,1375.93 L2385.35,1375.19 L2387.32,1371.98 L2387.75,1370.79 L2387.53,1366.55 L2386.18,1361.33 L2375.91,1353.94 L2357.8,1341.7 L2354.04,1337 L2352.31,1330.43 L2351.23,1328.57 L2344.13,1326.19 L2341.07,1324.43 L2338.93,1321.86 L2335.5,1319.14 L2333.31,1315.74 L2332.06,1313.5 L2330.34,1308.27 L2328.95,1306.99 L2328.15,1306.61 L2326.98,1306.72 L2325.4,1304.5 L2324.14,1303.55 L2323.38,1302.71 L2322.97,1301.62 L2322.58,1299.62 L2322.38,1299.07 L2322.09,1298.72 L2321.75,1298.51 L2321.27,1298.47 L2320.56,1298.72 L2319.62,1298.85 L2317.94,1297.83 L2316.2,1297.23 L2315.14,1297.28 L2313.8,1297.71 L2313.38,1297.55 L2313.04,1297.08 L2312.54,1295.56 L2309.53,1295.7 L2308.24,1294.69 L2307.73,1294.69 L2306.59,1295.13 L2305.38,1295.03 L2304.97,1294.74 L2304.71,1294.35 L2304.19,1291.77 L2304.1,1290.47 L2303.87,1289.86 L2303.56,1289.45 L2303.11,1289.01 L2301.59,1288.42 L2299.23,1288.15 L2298.7,1287.04 L2298.7,1283.95 L2298.56,1283.37 L2298.48,1281.39 L2298.53,1280.05 L2298.67,1279.57 L2298.59,1279.05 L2298.1,1277.07 L2297.48,1275.92 L2297.38,1275.48 L2297.59,1273.27 L2297.13,1272.21 L2296.2,1271.68 L2295.77,1271.13 L2295.65,1270.27 L2295.18,1269.27 L2295.02,1268.63 L2295.16,1266.42 L2295.03,1266.11 L2293.44,1265.4 L2291.1,1265.35 L2290.57,1265.2 L2290.1,1265.29 L2289.13,1266.04 L2287.93,1266.32 L2285.44,1266.41 L2283.39,1266.96 L2282.15,1266.95 L2281.39,1266.7 L2278.45,1264.69 L2276.8,1262.67 L2276.05,1262.09 L2275.7,1261.65 L2275.33,1260.76 L2275.25,1259.12 L2274.3,1255.83 L2274.24,1254.01 L2272.73,1252.35 L2272.37,1251.56 L2271.82,1251.39 L2270.43,1251.97 L2268.44,1252.05 L2267.98,1251.99 L2267.23,1251.76 L2267.13,1251.17 L2267.11,1247.44 L2267.24,1246 L2267.49,1244.97 L2267.34,1240.62 L2267.14,1239.93 L2266.52,1238.77 L2266.44,1237.81 L2265.41,1236.68 L2265.17,1236.24 L2265.06,1235.47 L2265.31,1231.15 L2265.61,1230.43 L2265.72,1229.68 L2265.5,1228.47 L2265.52,1227.31 L2265.41,1226.96 L2264.88,1226.46 L2263.68,1225.63 L2262.85,1224.11 L2262.59,1222.88 L2262.76,1221.01 L2262.98,1220.23 L2263.6,1218.99 L2264.73,1217.9 L2264.89,1217.1 L2264.58,1215.53 L2264.56,1214.32 L2264.23,1211.38 L2263.12,1208.07 L2263.12,1206.85 L2263.59,1204.98 L2264.26,1203.42 L2264.37,1202.65 L2263.74,1200.91 L2263.1,1197.95 L2263.14,1197.56 L2264.26,1195.57 L2264.29,1195.23 L2264.24,1194.77 L2263.42,1192.47 L2263.44,1192.07 L2264.68,1189.43 L2265.71,1187.86 L2265.87,1186.99 L2265.79,1185.82 L2266.16,1185.08 L2266.99,1183.94 L2266.79,1182 L2266.89,1181.19 L2267.48,1179.75 L2266.96,1179.59 L2266.4,1179.2 L2266.18,1178.77 L2265.27,1178.24 L2264.36,1178.03 L2263.24,1178.03 L2262.2,1177.5 L2261.05,1176.61 L2260.36,1175.49 L2260.19,1174.42 L2260.19,1170.67 L2259.91,1169.59 L2259.46,1169.02 L2258.05,1168.28 L2256.24,1167.71 L2254.6,1167.54 L2250.93,1167.66 L2248.34,1168.65 L2246.7,1168.88 L2244.01,1168.79 L2243.45,1169.31 L2240.86,1168.12 L2240.15,1167.49 L2239.43,1167.29 L2238.8,1166.89 L2237.23,1166.9 L2232.56,1165.55 L2229.59,1165.7 L2228.22,1164.82 L2227.52,1164.62 L2225.65,1164.56 L2225.26,1164.38 L2224.04,1163.27 L2223.6,1162.51 L2222.33,1161.28 L2221.7,1161.07 L2220.98,1161.49 L2219.55,1163.05 L2217.73,1163.04 L2217.2,1162.29 L2216.35,1161.74 L2215.31,1161.41 L2214.53,1161.33 L2212.23,1161.46 L2211.47,1161 L2210.11,1159.61 L2209.37,1159.54 L2208.65,1159.17 L2207.32,1159.09 L2205.79,1158.21 L2205.15,1158.17 L2204.46,1158.38 L2204.14,1159.07 L2204.03,1159.37 L2203.94,1161.14 L2201.72,1161.8 L2197.71,1162.42 L2193.02,1162.59 L2191.89,1162.4 L2191.56,1162.19 L2190.03,1160.84 L2189.25,1159.99 L2189.58,1159.59 L2189.63,1158.29 L2189.42,1157.14 L2189.86,1155.59 L2189.93,1153.3 L2189.83,1152.72 L2188.87,1151.21 L2188.64,1149.69 L2188.09,1148.6 L2187.36,1147.84 L2186.65,1147.64 L2185.1,1148.61 L2184.69,1148.72 L2183.64,1148.7 L2183.33,1148.55 L2182.94,1147.98 L2182.9,1147.63 L2182.8,1145.67 L2182.88,1144.16 L2182.38,1143.58 L2181.27,1142.89 L2180.69,1142.12 L2180.35,1141.34 L2179.85,1141.09 L2178.75,1141.23 L2178.06,1141.13 L2177.35,1140.83 L2174.82,1140.72 L2174.07,1140.55 L2173.08,1139.53 L2172.04,1137.58 L2171.65,1137.14 L2170.72,1135.58 L2169.87,1134.61 L2169.02,1134.02 L2166.86,1133.08 L2165.88,1132.47 L2160.82,1132.29 L2158.37,1133.01 L2157.85,1133.32 L2157.48,1134.2 L2156.83,1134.54 L2155.13,1135.08 L2151.3,1133.21 L2149.84,1132.13 L2148.88,1131.9 L2146.05,1132.58 L2144.47,1132.24 L2142.89,1131.05 L2141.82,1129.4 L2141.09,1129.18 L2139.28,1129.92 L2136.48,1129.51 L2135.4,1129.2 L2133.72,1128.39 L2131.91,1127.17 L2130.71,1126.53 L2129.27,1126.53 L2128.77,1126.42 L2128.16,1126.11 L2127.38,1125.47 L2126.34,1124.96 L2125.53,1124.19 L2124.52,1123.6 L2122.75,1121.96 L2120.95,1120.65 L2120.63,1120.56 L2119.19,1120.67 L2118.4,1121.85 L2118.02,1122.03 L2114.43,1122.22 L2114.05,1122.45 L2112.99,1123.66 L2112.92,1124.12 L2113.02,1124.42 L2112.7,1125.83 L2112.48,1126.3 L2111.86,1127.11 L2111.38,1127.42 L2109.92,1127.63 L2109.19,1127.88 L2108.35,1127.74 L2103.17,1124.25 L2102.86,1124.25 L2101.78,1124.81 L2101.47,1124.74 L2100.75,1123.6 L2099.36,1123.47 L2097.6,1124.09 L2096.36,1125.47 L2095.86,1125.88 L2095.21,1126.06 L2094.88,1126 L2093.85,1125.24 L2093.17,1125.71 L2092.89,1125.76 L2092.11,1125.43 L2090.42,1125.88 L2089.71,1126.63 L2088.32,1128.96 L2087.71,1129.57 L2087.41,1129.65 L2086.4,1129 L2085.25,1128.71 L2083.52,1126.91 L2083.15,1126.7 L2080.56,1126.44 L2079.15,1125.1 L2078.6,1124.84 L2077.57,1124.76 L2076.18,1125.67 L2075.67,1125.79 L2074.23,1125.25 L2072.41,1125.63 L2071.03,1125.13 L2070.43,1125.09 L2066.73,1125.74 L2066.21,1125.69 L2065.69,1125.43 L2065.21,1124.92 L2064.76,1123.55 L2064.19,1123.03 L2062.99,1122.51 L2061.99,1122.99 L2060.82,1123.93 L2059.96,1124.39 L2058.36,1124.82 L2057.54,1123.65 L2057.25,1122.94 L2057.19,1121.93 L2056.42,1121.82 L2055.74,1122.21 L2054.39,1122.19 L2051.99,1121.21 L2051.8,1120.86 L2051.84,1120.36 L2052.49,1119.17 L2052.53,1116.69 L2051.9,1114.91 L2051.92,1114.6 L2052.82,1113 L2052.49,1111.56 L2053.08,1110.4 L2054.87,1108.19 L2055.08,1107.74 L2054.87,1107.1 L2053.5,1106.04 L2051.27,1104.77 L2049.97,1103.34 L2049.7,1103.25 L2048.49,1103.86 L2047.11,1105.44 L2046.47,1105.49 L2045.35,1103.85 L2044.74,1102.28 L2044.31,1101.7 L2044.23,1101.04 L2045.22,1098.7 L2045.39,1098.02 L2045.48,1097.62 L2045.41,1097.22 L2044.47,1096.47 L2043.51,1096.43 L2043.19,1096.22 L2042.88,1095.78 L2041.82,1092.95 L2042.08,1091.91 L2042.31,1091 L2043.34,1091.24 L2044.13,1090.17 L2044.33,1088.74 L2045.07,1087.58 L2045.11,1086.89 L2044.66,1086.29 L2044,1086.06 L2042.22,1086.07 L2041.53,1085.65 L2039.93,1085.2 L2039.5,1084.9 L2038.44,1082.9 L2038.04,1080.32 L2037.85,1079.91 L2037,1079.11 L2036.6,1079.02 L2036.03,1079.17 L2035.55,1079.54 L2034.87,1079.48 L2032.77,1077.85 L2030.6,1076.71 L2030.3,1075.68 L2030.06,1075.45 L2029.28,1075.19 L2027.6,1075.24 L2026.88,1075.05 L2023.75,1073.65 L2023.01,1073.47 L2022.56,1073.16 L2021.44,1071.67 L2020.53,1070.87 L2020.01,1070.63 L2019.45,1069.51 L2018.97,1067.92 L2018.42,1066.12 L2017.04,1065.11 L2015.84,1064.96 L2015.34,1065.08 L2015.05,1065.35 L2014.82,1065.84 L2014.65,1066.6 L2014.27,1067 L2013.89,1067.02 L2012.84,1066.71 L2011.28,1065.62 L2010.15,1065.22 L2009.33,1065.08 L2008.54,1065.26 L2008.37,1064.91 L2008.46,1063.05 L2007.96,1062.42 L2007.55,1062.14 L2006.84,1061.94 L2006.43,1061.62 L2005.45,1060.36 L2005.12,1059.77 L2005.32,1058.72 L2004.71,1058.18 L2003.06,1057.53 L2001.9,1056.83 L2000.88,1056.72 L1999.83,1057.25 L1997.85,1056.59 L1996.16,1056.24 L1995.04,1056.42 L1994.27,1055.93 L1994.53,1052.06 L1995.32,1048.49 L1995.02,1047.36 L1994.15,1046.24 L1991.58,1046.69 L1990.25,1045.56 L1989.85,1045.53 L1986.47,1046.75 L1985.33,1047.53 L1984.13,1048.01 L1983.74,1048.02 L1981.43,1047.38 L1979.79,1047.26 L1977.99,1047.52 L1975.53,1046.45 L1975.16,1046.62 L1975.09,1046.95 L1974.33,1047.3 L1973.72,1047.25 L1973.13,1046.22 L1973.01,1044.6 L1973.67,1041.42 L1974.54,1039.95 L1974.57,1038.97 L1974.31,1036.54 L1972.96,1032.32 L1951.49,1017.82 L1948.74,1001.93 L1945.9,988.131 L1937.27,979.974 L1924.05,966.666 L1904.75,960.016 L1890.63,955.295 L1861.04,951.868 L1841.53,953.242 L1817.87,951.376 L1801.1,952.396 L1785.85,950.334 L1777.21,947.675 L1769.09,939.602 L1759.22,916.357 L1748.81,898.295 L1743.99,889.922 L1732.48,867.511 L1719.26,848.076 L1716.03,845.046 L1705.04,834.765 L1693.34,809.218 L1684.72,793.353 L1661.69,755.564 L1656.8,748.755 L1652.68,743.028 L1628.76,709.749 L1622.21,703.871 L1615.08,694.163 L1611.18,676.227 L1610.51,666.029 L1605.94,654.784 L1596.66,647.001 L1588.65,638.928 L1583.2,626.309 L1578.67,626.309 L1574.12,623.47 L1561.15,583.991 L1566.6,580.152 L1568.34,576.636 L1574.41,564.394 L1578.75,552.149 L1581.35,538.166 L1577,522.408 L1575.27,507.564 L1577,494.441 L1580.47,480.455 L1583.95,467.332 L1584.81,453.34 L1580.9,441.968 L1576.56,434.99 L1570.47,424.493 L1564.39,417.488 L1555.94,413.248 L1548.52,396.5 L1546.58,382.116 L1543.75,374.278 L1542.66,369.905 L1499.04,363.584 L1498.67,363.441 L1498.21,363.377 L1496.71,363.584 L1495.89,363.512 L1495.4,363.68 L1494.71,364.045 L1494.39,364.133 L1493.93,364.029 L1493.47,363.814 L1492.67,363.465 L1491.58,363.234 L1490.78,363.282 L1490.42,363.21 L1489.62,362.948 L1489.21,362.781 L1488.75,362.717 L1488.03,362.86 L1487.33,363.146 L1486.71,363.401 L1486.34,363.632 L1485.89,363.695 L1485.49,363.624 L1484.91,363.401 L1484.06,362.638 L1483.42,362.216 L1482.72,361.922 L1481.92,361.858 L1481.09,361.874 L1480.51,362.041 L1479.95,362.598 L1479.61,362.9 L1479.13,363.091 L1478.54,363.083 L1478.19,362.964 L1477.74,362.82 L1477.53,362.908 L1477.16,363.306 L1476.66,363.337 L1476.17,363.337 L1475.68,363.321 L1475.02,363.043 L1474.68,362.192 L1474.56,361.5 L1473.96,360.713 L1472.75,359.718 L1471.66,358.549 L1471.51,357.936 L1471.15,357.093 L1470.54,355.805 L1470.43,355.296 L1470.37,354.636 L1470.43,354.214 L1470.65,353.689 L1470.62,353.291 L1470.45,352.981 L1470.21,352.679 L1469.98,352.369 L1469.85,351.883 L1469.96,351.422 L1470.03,350.953 L1470.59,350.07 L1470.69,349.608 L1470.59,349.036 L1470.38,348.431 L1469.88,347.803 L1468.77,347.055 L1468.1,346.634 L1467.45,346.148 L1466.93,345.552 L1466.33,345.066 L1466.08,344.717 L1465.8,343.969 L1465.36,342.394 L1465.03,341.662 L1464.95,340.922 L1464.92,340.334 L1464.75,339.69 L1464.36,339.101 L1463.98,338.409 L1463.9,337.916 L1463.69,337.311 L1463.37,336.858 L1463.08,336.659 L1462.71,336.595 L1462.2,336.73 L1461.3,337.152 L1460.83,337.55 L1460.82,337.637 L1460.49,338.536 L1460.09,338.632 L1459.39,338.433 L1458.84,337.701 L1458.72,337.399 L1458.6,336.89 L1458.52,336.548 L1458.33,336.261 L1457.99,336.19 L1457.29,336.309 L1456.72,336.349 L1456.16,336.253 L1455.77,335.991 L1455.62,335.458 L1455.62,335.211 L1455.69,334.798 L1455.7,334.511 L1455.54,334.392 L1455.13,334.392 L1454.73,334.551 L1454.45,334.766 L1454.14,334.893 L1453.91,334.774 L1453.67,334.527 L1453.55,334.122 L1453.48,333.763 L1453.25,333.406 L1452.96,333.215 L1452.58,332.682 L1452.39,331.727 L1451.94,331.409 L1451.54,331.178 L1451.25,330.852 L1450.91,330.232 L1451.02,329.866 L1451.17,329.532 L1451.14,329.254 L1451.03,329.158 L1450.61,328.903 L1450.47,328.657 L1450.49,328.323 L1450.53,327.233 L1451.06,326.764 L1451.32,326.215 L1451.46,325.483 L1451.58,324.942 L1451.5,324.704 L1450.92,324.441 L1450.05,324.083 L1449.24,323.773 L1449.01,323.121 L1448.78,322.079 L1448.81,321.665 L1449.12,321.029 L1449.67,320.583 L1450.35,320.337 L1450.94,320.218 L1451.75,320.281 L1452.26,320.385 L1452.73,320.703 L1452.92,321.045 L1453.1,321.482 L1453.4,321.864 L1453.57,322.127 L1453.83,322.389 L1454.65,322.516 L1455.15,322.683 L1455.74,322.811 L1456.63,323.057 L1457.17,323.153 L1457.56,323.041 L1457.82,322.858 L1457.96,322.644 L1457.94,322.341 L1457.04,320.408 L1455.97,318.826 L1455.78,318.237 L1455.8,317.426 L1455.78,316.726 L1455.27,315.477 L1454.96,314.912 L1454.61,314.538 L1454.27,314.395 L1453.56,314.475 L1453.05,314.514 L1451.77,314.888 L1451.34,314.737 L1450.95,314.514 L1450.56,313.966 L1449.95,312.844 L1448.85,311.508 L1447.72,309.941 L1447.1,309.352 L1446.49,309.042 L1446.22,308.827 L1445.92,308.35 L1445.84,307.992 L1445.84,307.562 L1445.98,307.141 L1446.76,306.043 L1447.49,304.882 L1448.03,303.983 L1448.15,303.585 L1448.15,303.291 L1448.08,303.196 L1447.48,303.1 L1446.21,303.092 L1444.75,303.283 L1444.11,303.458 L1443.25,303.959 L1441.31,305.287 L1440.9,305.502 L1440.4,305.765 L1440.07,305.844 L1439.75,305.765 L1439.61,305.638 L1439.58,305.415 L1439.6,305.128 L1439.56,304.89 L1439.37,304.77 L1438.91,304.635 L1437.62,304.086 L1437.17,303.991 L1436.51,304.031 L1436.08,304.047 L1435.79,304.023 L1435.44,303.872 L1435.2,303.363 L1435.02,302.901 L1434.98,302.034 L1435,301.422 L1434.94,301.048 L1434.82,300.793 L1434.58,300.73 L1434.48,300.738 L1434.33,300.849 L1434.18,301.143 L1434.15,301.398 L1434.13,301.78 L1433.98,302.058 L1433.57,302.336 L1432.87,302.726 L1432.49,302.853 L1432.12,302.83 L1431.63,302.408 L1430.77,301.294 L1430.23,299.759 L1429.99,298.256 L1430.12,297.309 L1429.9,296.697 L1429.6,295.941 L1429.31,295.631 L1428.95,295.496 L1427.88,295.448 L1427.5,295.544 L1426.18,295.599 L1425.53,295.639 L1424.93,295.862 L1424.35,295.806 L1423.96,295.695 L1423.38,295.424 L1422.69,294.016 L1422.3,293.3 L1421.4,292.203 L1420.78,291.272 L1419.89,290.365 L1419.5,290.182 L1419.21,290.151 L1419.12,290.262 L1419.09,290.866 L1418.91,291.24 L1418.45,291.67 L1417.48,292.378 L1417.13,292.489 L1416.74,292.505 L1416,292.091 L1415.32,291.646 L1414.56,291.24 L1413.81,290.699 L1412.86,290.119 L1412.34,289.769 L1411.88,289.061 L1410.94,287.407 L1410.25,286.524 L1410.14,286.126 L1410.21,285.442 L1410.51,284.94 L1411.68,283.986 L1412.21,283.612 L1412.48,283.135 L1412.54,282.419 L1412.54,281.759 L1412.39,281.17 L1411.74,280.399 L1411,279.667 L1410.66,279.595 L1410.21,279.619 L1409.33,279.993 L1407.96,280.844 L1406.49,281.504 L1404.93,282.324 L1404.13,282.475 L1403.66,282.459 L1403.4,282.347 L1403.05,281.926 L1402.99,281.504 L1403.06,280.247 L1403.05,279.675 L1402.82,279.142 L1402.29,278.577 L1402.04,277.885 L1401.99,277.305 L1401.7,276.525 L1401.07,275.515 L1400.78,275.292 L1400.43,274.942 L1399.94,274.568 L1399.63,274.354 L1399.42,274.019 L1399.1,272.826 L1399.02,272.341 L1399.05,272.095 L1399.18,271.88 L1399.79,271.697 L1400.6,271.323 L1401.37,270.806 L1402.2,270.488 L1403.05,270.345 L1403.81,269.549 L1404.22,268.953 L1404.23,268.603 L1404.18,268.412 L1403.9,268.149 L1402.87,267.704 L1402.55,267.402 L1401.98,266.908 L1401.29,266.391 L1400.84,266.041 L1400.41,265.588 L1400.14,265.143 L1399.86,264.594 L1399.74,264.069 L1399.82,263.528 L1399.82,263.17 L1399.62,262.852 L1398.93,262.367 L1397.92,261.81 L1397.61,261.555 L1397.38,261.197 L1397.39,260.728 L1397.26,259.885 L1397.07,258.66 L1397,257.332 L1396.92,256.942 L1396.56,256.345 L1396.16,255.391 L1396.02,254.858 L1395.94,254.205 L1395.78,253.696 L1395.51,253.347 L1395.2,253.132 L1394.69,252.71 L1394.3,252.495 L1393.78,252.201 L1393.64,251.97 L1393.29,251.453 L1392.95,251.247 L1392.59,251.159 L1392.28,251.191 L1391.97,251.581 L1391.54,251.907 L1391.15,252.026 L1390.85,252.026 L1390.27,251.93 L1389.44,251.612 L1389.08,251.429 L1388.85,251.223 L1388.85,251.095 L1389.07,250.841 L1389.41,250.554 L1389.8,250.045 L1389.91,249.409 L1389.86,248.797 L1389.55,247.914 L1389.24,247.556 L1389.05,247.405 L1388.51,247.254 L1388.11,247.254 L1387.78,247.373 L1387.5,247.429 L1387.23,247.309 L1387,246.959 L1386.5,246.538 L1386.23,246.235 L1386.19,245.917 L1386.25,245.567 L1386.22,245.233 L1386.06,244.851 L1385.73,244.501 L1385.4,244.446 L1385.08,244.525 L1384.84,244.517 L1384.61,244.183 L1384.55,243.849 L1384.58,243.587 L1384.64,243.03 L1384.66,242.513 L1384.62,242.417 L1384.29,242.211 L1384.04,242.203 L1383.69,242.171 L1383.34,241.972 L1382.96,241.566 L1382.51,240.715 L1382.23,239.673 L1382.08,238.989 L1381.79,238.576 L1381.38,238.202 L1380.89,237.637 L1380.53,236.921 L1380.25,236.388 L1379.88,235.616 L1379.7,235.219 L1379.33,234.948 L1379.04,234.805 L1378.75,234.463 L1378.37,233.962 L1378.03,233.461 L1377.5,233.111 L1376.87,232.944 L1376.52,232.984 L1376,232.904 L1375.59,232.459 L1375.48,231.814 L1375.42,231.178 L1375.29,230.963 L1374.85,230.764 L1374.34,230.74 L1373.9,230.772 L1373.63,230.772 L1372.86,230.502 L1372.37,230.255 L1371.96,230.128 L1371.4,229.778 L1371.2,229.333 L1371.03,229.102 L1370.69,229.03 L1370.39,229.022 L1370.1,228.521 L1370,227.241 L1369.78,225.65 L1369.42,224.735 L1369.58,223.789 L1369.89,222.89 L1370.16,222.468 L1370.34,221.887 L1371.01,220.829 L1371.46,220.098 L1371.61,219.461 L1371.58,219.135 L1371.01,218.515 L1370.83,218.093 L1370.9,217.775 L1370.83,216.669 L1371.09,215.468 L1371.51,214.792 L1372.4,214.435 L1372.75,214.315 L1372.94,214.092 L1372.91,213.822 L1372.75,213.512 L1372.6,213.114 L1372.61,212.899 L1372.61,212.684 L1372.53,212.358 L1372.11,212.104 L1371.73,211.921 L1371.37,211.642 L1370.94,211.229 L1370.28,210.743 L1369.76,210.481 L1369.28,210.473 L1368.9,210.521 L1368.29,210.298 L1367.96,210.163 L1367.55,209.837 L1367.17,209.113 L1366.81,208.334 L1365.57,205.733 L1365.44,205.366 L1365.41,204.921 L1365.69,203.442 L1366.24,202.066 L1366.73,200.061 L1366.74,199.369 L1366.74,198.804 L1366.69,198.518 L1366.6,198.47 L1366.28,198.558 L1366.04,198.876 L1365.8,199.043 L1365.25,199.083 L1364.48,199.314 L1363.54,199.552 L1362.73,199.648 L1362.17,199.632 L1361.65,199.807 L1361.22,200.005 L1360.89,199.997 L1360.59,199.894 L1360.16,199.767 L1359.7,199.727 L1359.26,199.648 L1359.06,199.369 L1358.81,198.796 L1358.53,198.351 L1358.03,197.882 L1357.81,197.46 L1357.6,196.728 L1357.36,196.291 L1355.85,194.073 L1354.74,193.308 L1352.87,193.557 L1351.41,193.557 L1348.33,193.117 L1347.38,193.729 L1346.52,194.434 L1345.15,195.696 L1344.45,198.202 L1344.97,206.043 L1344.95,207.692 L1344.44,208.068 L1341.16,208.571 L1337.8,209.409 L1334.21,209.923 L1330.27,211.085 L1328.36,212.211 L1326.8,214.856 L1325.94,214.995 L1324.93,214.749 L1323.03,213.087 L1322.93,213.013 L1322.59,212.955 L1320.23,214.315 L1316.37,216.965 L1315.15,217.749 L1314.74,219.723 L1314.05,221.113 L1312.65,222.332 L1311.12,221.913 L1309.28,219.587 L1305.72,217.869 L1303.12,217.411 L1301.48,218.213 L1300.18,221.693 L1298.61,222.726 L1295.97,222.84 L1293.71,223.911 L1291.75,224.108 L1290.12,222.878 L1286.94,216.816 L1283.43,213.931 L1282.17,213.778 L1279.03,217.755 L1276.62,218.672 L1274.81,217.845 L1273.17,216.68 L1273.22,209.61 L1271.96,208.692 L1261.37,211.637 L1258.46,211.56 L1253.22,209.725 L1251.01,209.56 L1247.56,213.587 L1244.98,213.568 L1242.45,210.967 L1241.09,207.805 L1240.5,204.876 L1239.62,204.207 L1238.57,203.982 L1238.22,204.398 L1236.96,208.876 L1236.11,209.206 L1234.93,208.984 L1233.83,207.511 L1233.91,205.698 L1234.62,204.638 L1233.91,202.897 L1232.72,202.264 L1230.91,202.343 L1229.56,203.53 L1229.32,205.983 L1228.14,207.565 L1226.71,207.882 L1224.34,206.378 L1221.42,202.818 L1219.52,202.739 L1219.04,204.4 L1219.44,206.062 L1218.73,207.09 L1216.83,207.328 L1214.69,205.983 L1212.95,206.378 L1213.19,209.069 L1214.69,210.809 L1215.25,212.392 L1214.85,213.658 L1213.98,215.398 L1212.16,215.873 L1209.55,215.557 L1206.71,213.42 L1204.97,213.658 L1203.62,215.557 L1202.28,215.161 L1202.51,210.572 L1201.64,208.91 L1199.35,207.961 L1195,207.803 L1193.5,208.594 L1193.02,210.651 L1193.42,212.629 L1194.6,213.816 L1194.13,214.923 L1192.55,215.873 L1190.41,215.082 L1187.96,211.838 L1186.14,209.543 L1184.48,208.356 L1182.5,208.91 L1179.74,213.579 L1178.23,213.974 L1176.26,213.183 L1170.98,216.189 L1169.3,217.574 L1169.3,221.431 L1168.11,224.992 L1163.56,227.365 L1158.82,228.552 L1154.47,227.662 L1147.65,229.146 L1143.89,231.816 L1142.7,235.871 L1141.53,239.943 L1140.67,243.776 L1138.94,246.866 L1136.71,246.495 L1137.21,242.168 L1135.01,239.855 L1131.89,239.201 L1128.19,240.561 L1124.48,242.539 L1122.01,245.754 L1119.54,245.754 L1118.92,242.292 L1117.68,240.438 L1115.09,239.943 L1116.08,236.852 L1116.08,234.627 L1113.61,233.514 L1110.27,232.649 L1106.44,232.525 L1103.84,230.547 L1098.9,229.929 L1094.82,229.806 L1090.99,228.569 L1090.62,224.861 L1088.77,220.533 L1086.17,219.297 L1083.08,219.792 L1080.49,218.555 L1077.77,212.621 L1079.5,209.778 L1082.22,208.789 L1084.07,208.294 L1085.8,206.316 L1084.44,203.596 L1081.11,202.484 L1076.78,202.237 L1074.93,203.596 L1073.69,202.36 L1075.67,198.651 L1076.66,194.819 L1073.81,195.314 L1069.86,195.561 L1067.64,193.707 L1064.79,193.583 L1064.18,196.55 L1064.42,199.146 L1060.96,200.506 L1059.97,202.855 L1060.22,205.575 L1062.45,209.902 L1062.82,212.127 L1060.22,213.857 L1056.64,212.498 L1053.76,213.108 L1052.67,215.284 L1051.59,217.559 L1050.2,218.449 L1047.73,218.251 L1046.15,216.768 L1045.85,214.691 L1048.13,212.218 L1048.82,209.35 L1048.52,206.284 L1046.45,205.592 L1044.27,207.471 L1035.06,212.629 L1033.16,217.146 L1028.95,222.677 L1026,225.928 L1023.61,232.546 L1021.54,235.505 L1020.17,238.782 L1017.92,240.469 L1015.59,241.073 L1014.67,240.914 L1010.95,239.005 L1008.75,239.069 L1007,240.5 L1004.77,245.718 L1003.66,246.418 L1002.07,247.564 L1001.43,248.264 L1000.45,249.855 L999.748,250.586 L998.475,250.777 L996.948,250.873 L995.421,251.445 L994.434,251.445 L993.066,251.032 L992.08,250.873 L991.666,251.159 L991.825,251.605 L992.525,252.336 L993.352,253.004 L994.212,253.291 L994.721,253.577 L994.784,254.086 L994.434,254.277 L993.448,254.118 L992.239,253.8 L990.998,253.482 L990.139,253.514 L989.503,254.182 L988.866,254.786 L988.071,255.104 L986.894,256.95 L983.585,259.209 L983.298,260.004 L983.33,260.895 L983.966,261.627 L984.635,262.041 L984.73,262.518 L984.38,263.122 L983.458,264.236 L982.821,265.222 L982.089,265.89 L980.912,266.177 L979.703,266.622 L978.43,266.972 L977.571,267.577 L977.253,268.309 L977.126,269.104 L976.235,270.345 L975.662,270.663 L974.581,270.822 L973.34,270.949 L972.194,271.395 L971.812,272.127 L972.449,273.208 L973.404,273.94 L974.04,274.64 L974.199,275.499 L973.562,276.613 L972.926,277.535 L972.258,278.585 L971.685,279.667 L969.617,280.24 L968.472,280.144 L967.613,279.603 L966.563,279.094 L965.131,278.967 L963.381,279.413 L961.758,280.558 L960.804,281.672 L959.817,283.103 L958.258,284.694 L956.986,285.49 L955.14,285.903 L951.99,286.699 L949.763,286.953 L946.55,286.889 L945.373,286.953 L944.418,287.621 L943.973,288.226 L943.464,289.467 L943.018,290.644 L942.573,291.694 L941.332,292.712 L940.664,293.539 L940.441,294.685 L939.996,296.148 L939.2,297.803 L938.214,298.98 L937.291,299.839 L935.509,300.412 L933.823,301.175 L933.028,301.875 L929.369,304.93 L924.946,307.952 L922.973,309.67 L919.028,312.407 L904.3,319.66 L905.844,321.265 L906.275,322.307 L906.121,324.926 L906.275,325.363 L907.046,327.03 L908.234,326.52 L909.468,326.97 L910.273,327.355 L910.621,328.944 L911.622,329.966 L912.558,329.923 L912.928,330.532 L913.037,331.577 L912.384,333.405 L912.667,334.058 L913.145,334.166 L914.886,333.426 L915.757,332.795 L916.17,331.816 L916.214,330.793 L917.471,329.475 L918.08,328.539 L918.57,328.24 L919.103,328.254 L921.42,329.274 L922.386,329.731 L923.913,330.112 L925.285,331.475 L927.093,333.485 L927.114,334.608 L927.384,335.005 L928.119,335.018 L929.047,337.07 L930.028,339.101 L932.509,342.66 L935.73,347.226 L939.193,352.173 L939.836,353.178 L940.112,353.667 L943.241,359.605 L946.291,365.515 L949.634,369.626 L951.8,372.583 L956.399,377.871 L958.763,381.468 L962.875,385.87 L965.372,389.195 L971.751,399.313 L976.142,407.283 L980.912,417.355 L985.639,427.55 L990.203,438.608 L994.485,449.902 L998.777,462.217 L1001.97,472.335 L1002.82,475.021 L1005.67,485.123 L1007.83,492.045 L1009.84,498.995 L1016.53,526.471 L1019.87,540.407 L1021.84,547.883 L1023.55,554.104 L1024.42,558.097 L1026.54,566.194 L1028.92,574.721 L1030.42,581.466 L1032.09,587.511 L1033.59,593.557 L1035.64,603.627 L1037.45,613.156 L1038.63,619.137 L1039.04,624.148 L1038.83,625.771 L1037.37,627.08 L1035.19,628.886 L1032.95,632.283 L1031.12,634.374 L1031.14,636.462 L1030.96,637.676 L1028.99,639.173 L1028.3,639.838 L1029.15,640.1 L1030.84,639.53 L1032.48,639.553 L1033.88,640.218 L1034.52,640.049 L1034.76,639.731 L1035.56,639.834 L1036.53,640.375 L1037.96,641.695 L1040.9,646.579 L1043.54,651.766 L1045.01,655.409 L1047.33,662.679 L1050.86,674.005 L1053.38,682.007 L1054.85,685.714 L1055.47,687.615 L1056.35,691.632 L1058.29,699.459 L1064.24,720.372 L1066.34,727.601 L1068.09,733.932 L1068.22,735.11 L1068.9,736.478 L1069.22,736.971 L1071.35,744.146 L1075.14,756.571 L1082.72,773.841 L1083.76,776.492 L1090.74,794.448 L1094.66,806.555 L1097.12,813.411 L1099.21,819.52 L1100.65,822.845 L1102.45,828.302 L1103.76,832.024 L1105.22,836.637 L1106.63,841.624 L1106.79,842.099 L1108.1,847.582 L1109.92,856.629 L1113.13,874.134 L1115.66,886.845 L1118.01,895.976 L1118.89,898.346 L1120,905.091 L1120.59,909.466 L1120.8,914.334 L1121.4,917.818 L1122.35,921.127 L1122.59,922.861 L1123.23,926.902 L1123.18,928.127 L1123.98,931.738 L1124.45,934.363 L1125.27,938.547 L1127.84,949.452 L1128.16,950.588 L1128.62,952.221 L1128.74,952.647 L1128.64,953.364 L1128.33,955.65 L1128.66,971.856 L1126.45,1009.5 L1123.06,1024.71 L1118.46,1041.22 L1115.48,1048.11 L1111.42,1054.83 L1106.82,1061.69 L1103.38,1066.83 L1099.91,1070.92 L1098.16,1072.32 L1096.85,1072.62 L1096.33,1072.42 L1096.16,1071.76 L1095.61,1071.16 L1094.82,1071.02 L1093.94,1071.29 L1092.91,1071.48 L1093.02,1072.08 L1092.56,1072.53 L1091.89,1072.81 L1091.86,1073.55 L1091.44,1074.65 L1089.62,1077.73 L1087.37,1080.18 L1084.62,1083.1 L1081.61,1085.7 L1078.92,1087.39 L1077.71,1087.69 L1075.4,1087.75 L1073.82,1086.62 L1071.48,1084.48 L1067.94,1084.52 L1066.34,1083.83 L1065.97,1081.97 L1064.61,1081.39 L1063.32,1081.76 L1060.19,1083.55 L1059.07,1083.32 L1057.93,1082.43 L1057.16,1082.1 L1055.86,1082.43 L1053.8,1083.48 L1052.63,1085.22 L1051.42,1086.41 L1048.51,1088.08 L1047.52,1087.97 L1046.48,1086.36 L1044.87,1085.78 L1043.79,1086.17 L1042.58,1087.27 L1041.48,1089.87 L1040.36,1091.05 L1038.52,1091.93 L1037,1091.93 L1030.29,1092.68 L1028.96,1094.5 L1028.76,1096.41 L1028.73,1098.12 L1028.38,1100.26 L1027.49,1102.45 L1022.66,1103.88 L1021.83,1104.3 L1021.07,1104.48 L1020.77,1105.08 L1021.04,1105.28 L1021.4,1105.21 L1021.63,1105.33 L1021.7,1105.48 L1021.64,1105.64 L1021.34,1105.7 L1020.99,1105.7 L1020.24,1106.75 L1021,1107.19 L1021.79,1107.62 L1021.94,1108.19 L1021.69,1108.9 L1021.73,1109.48 L1023.66,1111.68 L1023.72,1112.3 L1024.07,1116.05 L1023.98,1116.78 L1024.11,1117.41 L1025.01,1117.98 L1025.53,1118.43 L1025.97,1119.49 L1026.43,1120.25 L1027.23,1120.52 L1027.42,1120.84 L1027.8,1120.98 L1029.24,1121.81 L1029.67,1122.62 L1031.07,1123.41 L1031.6,1124.67 L1031.84,1125.46 L1032.16,1125.44 L1032.67,1125.11 L1033.37,1125.03 L1033.92,1124.2 L1034.39,1124.22 L1034.93,1124.8 L1037.54,1123.14 L1038.39,1122.26 L1038.64,1122 L1038.84,1122.06 L1039.31,1121.77 L1039.54,1121.29 L1039.91,1121.05 L1040.51,1120.89 L1041.79,1121.26 L1041.9,1121.55 L1042.24,1121.57 L1042.54,1121.05 L1042.32,1120.13 L1041.57,1119.81 L1041.63,1118.88 L1043.77,1116.32 L1045.62,1116.19 L1048.49,1117.42 L1051.53,1119.83 L1054.29,1123.93 L1054.76,1125.57 L1054.64,1127.09 L1053.81,1127.33 L1052.71,1128.06 L1052.36,1129.88 L1051.61,1131.34 L1050.62,1132.88 L1049.66,1132.98 L1049.01,1132.24 L1047.77,1132.17 L1046.8,1131.68 L1046.23,1132.3 L1045.59,1133.37 L1045.87,1134.9 L1045.09,1136.06 L1043.13,1137.37 L1041.98,1137.92 L1041.77,1139.11 L1040.93,1140.03 L1039.08,1140.73 L1038.24,1140.7 L1038.32,1141.64 L1037.79,1142.17 L1037.6,1143.03 L1036.91,1143.47 L1036.97,1144.13 L1037.68,1144.35 L1038.92,1143.68 L1039.55,1143.81 L1040.36,1144.35 L1040.96,1145.6 L1040.78,1146.33 L1042.26,1151.27 L1041.81,1152.3 L1042.06,1154.13 L1040.99,1154.44 L1039.98,1155.22 L1039.51,1156.84 L1040.37,1158.58 L1040.64,1160.07 L1042.65,1161.03 L1044.34,1160.23 L1046.28,1160.17 L1047.73,1161.91 L1049.39,1167.34 L1050,1169.59 L1051.86,1169.47 L1052.74,1169.77 L1054.09,1170.13 L1055.08,1171.37 L1056.48,1176.06 L1057.03,1178.27 L1057.85,1182.5 L1057.88,1184.64 L1058.55,1185.86 L1059.42,1190.24 L1060.23,1197.74 L1059.86,1205.58 L1058.67,1206.44 L1057.9,1207.72 L1058.06,1209.24 L1059.98,1212.26 L1066,1215.86 L1068.45,1217.62 L1070.92,1219.68 L1070.67,1221.32 L1070.95,1223.16 L1072.43,1225.8 L1075.88,1228.11 L1076.55,1229.72 L1077.19,1231.82 L1081.77,1237.9 L1086.16,1239.68 L1091.05,1238.72 L1092.66,1234.34 L1093.56,1234.85 L1093.6,1234.94 L1094.31,1236.78 L1094.5,1237.28 L1095.07,1239.65 L1097.33,1244.16 L1099.72,1252.09 L1100.8,1261.54 L1100.93,1268.15 L1099.94,1278.27 L1100.43,1285.26 L1100.78,1287.18 L1100.67,1288.12 L1099.57,1288.46 L1099.32,1289.11 L1099.19,1289.69 L1099.29,1289.73 L1100.25,1289.69 L1100.42,1290.34 L1100.58,1300.78 L1101.5,1313.99 L1102.39,1329.11 L1102.23,1341.05 L1101.74,1348.45 L1099.94,1361.25 L1096.15,1377.09 L1091.86,1396.42 L1088.83,1407.14 L1084.29,1422.02 L1081.24,1433.16 L1070.95,1465.58 L1065,1483.24 L1058.89,1497.53 L1057,1501.62 L1051.47,1511.83 L1044.77,1521.92 L1041.71,1526.52 L1035.34,1535.53 L1034.12,1537.23 L1027.2,1545.2 L1022.58,1550.42 L1019.19,1554.41 L1011.4,1562.46 L1008.09,1565.46 L1006.03,1567.29 L1001.32,1571.72 L992.24,1580.05 L983.987,1587.15 L975.797,1593.75 L965.059,1602.83 L964.103,1603.64 L960.382,1607.16 L955.581,1611.58 L953.049,1614.48 L949.86,1617.88 L946.309,1620.8 L943.816,1623.24 L941.681,1625.07 L936.937,1627.68 L935.817,1627.74 L935.358,1626.13 L935.028,1626.01 L931.037,1627.1 L930.672,1627.76 L930.574,1628.21 L930.504,1628.55 L930.945,1629.2 L929.672,1630.8 L927.372,1633.45 L922.565,1636.91 L920.035,1638.03 L917.923,1639.34 L915.291,1639.96 L914.393,1639.03 L913.621,1638.22 L913.214,1639.34 L910.287,1640.52 L908.501,1641.48 L905.833,1642.85 L904.463,1643.3 L903.653,1643.21 L903.279,1642.73 L903.007,1642.76 L900.36,1644.79 L896.44,1646.55 L895.619,1646.93 L895.309,1646.97 L894.855,1646.97 L894.521,1647.2 L894.187,1647.47 L892.875,1647.75 L891.379,1648.06 L889.693,1648.04 L888.524,1648.11 L887.8,1648.1 L887.164,1648.02 L886.79,1647.76 L886.233,1647.42 L886.05,1647.09 L885.75,1646.42 L884.825,1646.23 L884.022,1645.99 L883.306,1645.64 L883.147,1645.41 L882.765,1644.24 L882.805,1643.58 L883.028,1642.65 L883.831,1641.91 L883.799,1641.37 L883.385,1640.94 L882.813,1640.82 L881.993,1638.61 L880.977,1638.43 L880.482,1638.03 L877.172,1639.9 L872.819,1641 L870.427,1642.73 L867.047,1643.51 L865.011,1643.79 L864.144,1643.71 L862.697,1643.06 L862.442,1642.18 L862.243,1641.79 L861.893,1641.54 L861.83,1640.42 L861.83,1640.15 L861.569,1639.68 L860.7,1639.37 L860.175,1639.78 L859.244,1641.73 L858.632,1642.92 L857.407,1645.14 L856.102,1647.26 L854.244,1650.82 L853.475,1652.33 L851.444,1655.3 L849.787,1657.17 L849.294,1657.97 L848.649,1658.71 L848.156,1659.22 L847.456,1659.82 L846.093,1660.8 L845.547,1661.55 L844.123,1663.46 L843.268,1664.29 L841.666,1665.67 L840.425,1667.46 L839.176,1669.45 L837.895,1670.6 L836.511,1671.9 L835.374,1672.38 L834.817,1672.36 L834.364,1672.08 L833.656,1672.28 L830.502,1672.95 L829.462,1672.59 L828.939,1671.66 L829.074,1671.11 L828.923,1670.84 L828.422,1670.89 L828.128,1671.04 L827.96,1671.6 L828.088,1672.1 L828.446,1672.32 L828.629,1672.54 L828.668,1672.94 L828.295,1673.31 L827.841,1673.59 L827.634,1674 L827.499,1674.3 L826.258,1675.55 L825.303,1676.43 L824.978,1677.68 L824.15,1679.78 L823.745,1681.37 L822.777,1682.11 L820.67,1686.84 L818.487,1690.44 L818.042,1691.13 L816.643,1694.78 L814.08,1698.21 L811.503,1701.99 L810.235,1703.28 L809.276,1704.09 L806.508,1708.56 L803.235,1713.69 L799.938,1718.76 L797.918,1721.66 L796.486,1723.2 L791.856,1728.04 L788.865,1730.9 L784.189,1735.29 L780.179,1738.74 L771.716,1745.61 L764.923,1750.42 L758.703,1754.28 L753.008,1757.51 L744.778,1761.15 L741.586,1762.37 L739.311,1762.83 L731.437,1763.16 L726.361,1763.69 L722.695,1763.74 L720.602,1764.51 L718.266,1763.97 L715.21,1764.77 L712.584,1764.62 L710.071,1764.66 L709.44,1765.28 L708.415,1765.77 L706.158,1765.5 L704.567,1766.06 L702.53,1767.69 L701.162,1768.12 L700.065,1768.44 L698.954,1769.13 L698.093,1770.79 L694.956,1776.87 L693.645,1779.07 L691.239,1782.57 L688.308,1785.18 L687.447,1785.75 L686.683,1786.16 L685.818,1786.82 L681.893,1789.09 L679.515,1789.81 L679.057,1789.51 L678.921,1789.25 L678.692,1788.92 L678.604,1788.87 L678.055,1789.07 L674.536,1789.72 L672.432,1789.68 L671.803,1789.19 L670.823,1788.75 L670.069,1788.24 L667.5,1788.38 L665.448,1790.05 L664.843,1791.72 L661.916,1794.98 L658.925,1796.63 L657.748,1796.89 L656.969,1796.58 L656.947,1795.97 L656.781,1795.75 L656.357,1795.11 L656.247,1795.04 L656.187,1794.94 L656.09,1794.81 L655.942,1794.8 L655.824,1794.83 L655.788,1794.95 L655.628,1795.07 L655.426,1795.19 L655.376,1795.25 L655.376,1795.36 L655.357,1795.54 L655.265,1795.67 L655.09,1795.99 L654.344,1796.33 L651.544,1798.91 L649.89,1800.95 L649.738,1801.17 L649.953,1801.67 L649.57,1802.02 L648.29,1803.46 L647.432,1804.05 L641.116,1807.41 L637.631,1808.74 L637.443,1808.81 L634.167,1810.06 L623.732,1814.54 L619.341,1816.42 L618.742,1816.68 L612.812,1819.43 L606.932,1822.28 L604.503,1823.66 L603.294,1824.25 L602.196,1824.66 L600.128,1825.39 L598.72,1825.85 L598.591,1825.94 L598.327,1826.07 L595.498,1827.57 L594.154,1828.06 L589.931,1829.53 L589.072,1827.74 L590.644,1827.3 L590.654,1827.18 L590.622,1827.07 L590.532,1826.93 L588.914,1827.33 L588.195,1827.56 L588.192,1827.82 L588.366,1827.96 L588.739,1827.8 L589.008,1830.09 L584.202,1831.37 L580.713,1831.38 L580.742,1829.21 L581.616,1829.1 L581.605,1828.72 L580.571,1828.68 L579.348,1828.67 L579.353,1828.96 L580.347,1829.07 L580.483,1829.18 L580.429,1830.73 L580.064,1830.93 L579.598,1831.06 L578.574,1831.09 L577.654,1830.97 L577.031,1830.63 L576.452,1830.14 L576.096,1829.45 L576.139,1828.62 L577.055,1828.65 L577.209,1828.58 L577.234,1828.37 L577.154,1828.18 L577,1828.12 L574.687,1827.95 L574.669,1828.51 L575.622,1828.61 L575.475,1830.23 L574.823,1830.59 L574.023,1830.74 L572.633,1830.62 L572.368,1830.42 L572.67,1828.53 L573.353,1828.56 L573.543,1828.49 L573.611,1828.32 L573.549,1828.13 L573.408,1828.03 L571.477,1827.89 L571.298,1827.97 L571.243,1828.11 L571.267,1828.25 L571.415,1828.4 L572.159,1828.44 L571.784,1830.44 L571.636,1830.72 L571.335,1830.96 L569.897,1830.37 L565.952,1828.46 L564.374,1827.45 L563.936,1827.09 L563.661,1826.5 L563.551,1826.12 L563.899,1825.77 L564.053,1825.39 L564.283,1825.11 L564.273,1824.82 L564.448,1824.49 L564.743,1824.26 L565.199,1824.39 L565.294,1824.72 L565.485,1825.07 L565.784,1824.88 L565.633,1824.45 L565.387,1823.99 L565.088,1823.67 L565.073,1823.3 L564.489,1823.6 L563.986,1823.95 L563.429,1824.01 L562.657,1824.1 L561.908,1824.18 L561.387,1824.12 L560.811,1824.11 L560.207,1823.92 L559.728,1824.27 L559.862,1824.53 L559.506,1824.77 L558.848,1824.79 L559.03,1825.31 L559.005,1825.65 L558.291,1825.84 L557.247,1826.71 L556.563,1826.78 L556.379,1826.94 L555.977,1827.3 L555.643,1827.6 L554.51,1827.99 L554.17,1828.08 L553.405,1828.27 L552.355,1828.25 L551.878,1828.12 L551.233,1828.05 L551.176,1827.65 L551.122,1827.36 L551.154,1827.11 L551.133,1826.94 L550.961,1826.65 L550.982,1826.22 L550.866,1825.83 L550.65,1825.52 L550.367,1825.27 L550.154,1825.19 L550.004,1825.16 L549.865,1825.21 L549.768,1825.37 L549.685,1825.59 L549.618,1825.96 L549.508,1826.06 L549.497,1826.26 L549.603,1826.37 L549.596,1827.62 L550.264,1829.46 L550.465,1829.39 L550.793,1830.27 L550.56,1830.57 L550.727,1831.03 L552.118,1831.17 L552.22,1831.42 L552.74,1831.23 L553.12,1832.05 L552.853,1832.19 L552.967,1832.42 L552.107,1832.79 L551.807,1832.07 L551.073,1831.79 L550.935,1832.03 L550.066,1831.63 L549.852,1830.74 L550.099,1830.65 L549.225,1828.12 L548.928,1827.26 L548.92,1824.75 L548.513,1823.56 L548.54,1821.93 L548.602,1821.86 L549.046,1821.68 L549.166,1821.61 L549.245,1821.5 L549.241,1821.39 L549.202,1821.28 L549.119,1821.2 L549.026,1821.16 L546.625,1822.02 L546.517,1822.02 L546.435,1821.93 L546.143,1821.08 L546.489,1820.96 L546.446,1820.84 L546.324,1820.88 L545.932,1819.68 L549.725,1818.3 L549.942,1818.36 L550.719,1818.46 L550.997,1819.17 L551.155,1819.11 L550.861,1818.13 L550.563,1817.26 L550.333,1817.09 L550.067,1817.07 L544.513,1819.08 L544.388,1819.13 L544.172,1819.4 L544.113,1819.71 L545.335,1823.02 L546.637,1824.68 L547.233,1826.15 L546.454,1827.37 L545.666,1828 L544.387,1828.73 L542.891,1829.41 L538.004,1830.22 L529.681,1831.37 L522.375,1830.93 L516.623,1829.71 L507.485,1829.28 L496.539,1827.48 L491.843,1825.77 L487.148,1823.3 L483.839,1820.24 L482.49,1818.41 L481.875,1816.7 L481.981,1815.2 L482.668,1814.24 L483.938,1813.43 L484.651,1812.87 L484.817,1812.55 L484.888,1812.16 L484.767,1811.35 L484.542,1810.68 L484.281,1809.99 L483.254,1809.3 L481.934,1808.81 L480.706,1808.21 L479.563,1807.57 L479.105,1806.29 L479.036,1805.09 L479.766,1803.55 L479.715,1802.35 L477.603,1802.17 L475.592,1801.66 L472.747,1800.69 L470.858,1800.36 L467.6,1798.4 L466.454,1796.93 L467.549,1791.94 L469.534,1788.27 L470.629,1786.24 L468.923,1783.84 L464.392,1782.37 L460.727,1781.86 L459.353,1780.82 L458.742,1779.11 L459.059,1777.94 L454.084,1775.34 L453.32,1775.75 L451.157,1775.9 L448.255,1774.68 L444.921,1777.12 L440.313,1779.49 L436.393,1780.84 L433.288,1781.04 L429.725,1781.02 L428.249,1782.62 L424.191,1784.06 L418.439,1785.56 L416.377,1785.64 L412.841,1785.77 L412.169,1785.78 L411.592,1785.79 L407.551,1785.9 L403.218,1785.84 L401.36,1785.54 L399.69,1784.79 L397.029,1783.18 L394.667,1781.28 L393.477,1779.26 L392.719,1777.27 L392.26,1775.47 L392.664,1774.35 L392.965,1774.36 L393.209,1774.61 L395.023,1773.02 L395.351,1772.74 L395.411,1772.66 L395.421,1772.59 L395.402,1772.5 L394.902,1771.51 L395,1771.47 L394.835,1770.86 L394.402,1770.6 L394.103,1770.19 L394.097,1769.22 L394.929,1768.52 L395.377,1768.46 L396.066,1769.05 L397.649,1769.43 L398.374,1769.22 L399.339,1769.54 L399.613,1769.84 L399.638,1771.17 L399.59,1771.31 L399.598,1771.46 L399.701,1771.57 L399.85,1771.61 L399.991,1771.56 L400.073,1771.41 L400.037,1771.18 L400.055,1769.61 L400.144,1769.43 L400.156,1769.22 L400.029,1768.97 L399.813,1768.85 L399.483,1768.87 L399.13,1768.97 L396.702,1768.5 L395.816,1768.12 L393.663,1767.34 L393.326,1767.35 L393.109,1767.46 L389.969,1770.17 L388.752,1770.14 L383.975,1768.57 L377.344,1765.54 L369.683,1761.29 L363.956,1757.44 L361.843,1755.56 L360.033,1753.25 L358.531,1749.41 L358.353,1747.55 L358.888,1745.74 L360.507,1744.72 L360.938,1745.52 L361.436,1745.6 L361.969,1745.96 L362.042,1745.88 L361.66,1745.6 L362.273,1743.39 L363.597,1742.3 L363.749,1740.9 L364.294,1740.29 L364.727,1739.18 L365.156,1738.77 L365.807,1738.5 L365.865,1738.41 L365.754,1738.33 L365.538,1738.2 L365.437,1738.05 L365.18,1738.08 L364.741,1738.17 L363.647,1737.67 L361.594,1736.48 L358.557,1735.58 L357.513,1734.74 L355.986,1733.9 L355.861,1733.12 L354.561,1731.94 L355.146,1730.7 L354.459,1728.36 L354.026,1725.33 L352.173,1724.78 L350.055,1725.15 L348.197,1724.31 L347.714,1723.04 L346.403,1722.83 L344.939,1722.93 L343.547,1722.37 L342.165,1722.4 L340.663,1721.92 L338.959,1721.8 L337.074,1722.6 L336.132,1722.35 L334.751,1722.27 L332.162,1721.81 L328.621,1722 L324.78,1721.84 L321.465,1722.44 L319.358,1723.49 L315.54,1723.93 L313.53,1723.39 L312.868,1724.51 L310.781,1725.58 L307.523,1727.06 L304.29,1728.71 L302.559,1729.12 L300.37,1730.9 L298.678,1732.57 L298.054,1732.59 L297.446,1732.06 L296.574,1732.53 L295.654,1732.8 L292.906,1732.33 L292.651,1732.85 L290.835,1733.15 L289.698,1733.57 L288.932,1733.58 L287.793,1733.8 L286.348,1734.59 L284.698,1735.07" fill-rule="evenodd" vector-effect="none"/>
  </g>
  <g stroke-opacity="1" fill="none" font-size="34.5833" stroke-linejoin="bevel" stroke-width="1" stroke-linecap="square" font-family="MS Shell Dlg 2" font-style="normal" transform="matrix(0.999744,0,0,0.999744,0,0)" font-weight="400" stroke="#000000"/>
  <g stroke-opacity="1" fill="none" font-size="34.5833" stroke-linejoin="bevel" stroke-width="1" stroke-linecap="square" font-family="MS Shell Dlg 2" font-style="normal" transform="matrix(11.808,0,0,11.808,0,0)" font-weight="400" stroke="#000000"/>
  <g stroke-opacity="1" fill="none" font-size="34.5833" stroke-linejoin="bevel" stroke-width="1" stroke-linecap="square" font-family="MS Shell Dlg 2" font-style="normal" transform="matrix(11.808,0,0,11.808,0,0)" font-weight="400" stroke="#000000"/>
  <g stroke-opacity="1" fill="none" font-size="34.5833" stroke-linejoin="bevel" stroke-width="1" stroke-linecap="square" font-family="MS Shell Dlg 2" font-style="normal" transform="matrix(11.808,0,0,11.808,0,0)" font-weight="400" stroke="#000000"/>
  <g stroke-opacity="1" fill="none" font-size="34.5833" stroke-linejoin="bevel" stroke-width="1" stroke-linecap="square" font-family="MS Shell Dlg 2" font-style="normal" transform="matrix(1,0,0,1,0,0)" font-weight="400" stroke="#000000"/>
  <g stroke-opacity="1" fill="none" font-size="34.5833" stroke-linejoin="bevel" stroke-width="1" stroke-linecap="square" font-family="MS Shell Dlg 2" font-style="normal" transform="matrix(11.808,0,0,11.808,0,0)" font-weight="400" stroke="#000000"/>
  <g stroke-opacity="1" fill="none" font-size="34.5833" stroke-linejoin="bevel" stroke-width="1" stroke-linecap="square" font-family="MS Shell Dlg 2" font-style="normal" transform="matrix(11.808,0,0,11.808,0,0)" font-weight="400" stroke="#000000"/>
  <g stroke-opacity="1" fill="none" font-size="34.5833" stroke-linejoin="bevel" stroke-width="1" stroke-linecap="square" font-family="MS Shell Dlg 2" font-style="normal" transform="matrix(11.808,0,0,11.808,0,0)" font-weight="400" stroke="#000000"/>
  <g stroke-opacity="1" fill="none" font-size="34.5833" stroke-linejoin="bevel" stroke-width="1" stroke-linecap="square" font-family="MS Shell Dlg 2" font-style="normal" transform="matrix(11.808,0,0,11.808,0,0)" font-weight="400" stroke="#000000"/>
  <g stroke-opacity="1" fill="none" font-size="34.5833" stroke-linejoin="bevel" stroke-width="1" stroke-linecap="square" font-family="MS Shell Dlg 2" font-style="normal" transform="matrix(1,0,0,1,0,0)" font-weight="400" stroke="#000000"/>
 </g>
</svg>
