<?xml version='1.0' encoding='UTF-8' standalone='no'?>
<svg baseProfile="tiny" version="1.2" xmlns:xlink="http://www.w3.org/1999/xlink" viewBox="0 0 2952 2952" width="249.936mm" height="249.936mm" xmlns="http://www.w3.org/2000/svg">
 <title>Qt SVG Document</title>
 <desc>Generated with Qt</desc>
 <defs/>
 <g stroke="black" stroke-linejoin="bevel" fill-rule="evenodd" stroke-linecap="square" stroke-width="1" fill="none">
  <g stroke="#000000" stroke-linejoin="bevel" stroke-linecap="square" font-style="normal" font-size="34.5833" font-family="MS Shell Dlg 2" font-weight="400" stroke-width="1" stroke-opacity="1" transform="matrix(1,0,0,1,0,0)" fill="none"/>
  <g stroke="#000000" stroke-linejoin="bevel" stroke-linecap="square" font-style="normal" font-size="34.5833" font-family="MS Shell Dlg 2" font-weight="400" stroke-width="1" stroke-opacity="1" transform="matrix(1,0,0,1,0,0)" fill="none"/>
  <g stroke="#000000" stroke-linejoin="bevel" stroke-linecap="square" font-style="normal" font-size="34.5833" font-family="MS Shell Dlg 2" font-weight="400" stroke-width="1" stroke-opacity="1" transform="matrix(11.808,0,0,11.808,0,0)" fill="none"/>
  <g stroke="#000000" stroke-linejoin="bevel" stroke-linecap="square" font-style="normal" font-size="34.5833" font-family="MS Shell Dlg 2" font-weight="400" stroke-width="1" stroke-opacity="1" transform="matrix(0.999744,0,0,0.999744,0,0)" fill="none"/>
  <g stroke="none" font-style="normal" font-size="34.5833" font-family="MS Shell Dlg 2" font-weight="400" fill-opacity="0" transform="matrix(0.999744,0,0,0.999744,0,0)" fill="#ffffff">
   <path fill-rule="evenodd" d="M-2,-2 L2955,-2 L2955,2955 L-2,2955 L-2,-2" vector-effect="none"/>
  </g>
  <g stroke="#000000" stroke-linejoin="bevel" stroke-linecap="square" font-style="normal" font-size="34.5833" font-family="MS Shell Dlg 2" font-weight="400" stroke-width="1" stroke-opacity="1" transform="matrix(0.999744,0,0,0.999744,0,0)" fill="none"/>
  <g stroke="#000000" stroke-linejoin="bevel" stroke-linecap="square" font-style="normal" font-size="34.5833" font-family="MS Shell Dlg 2" font-weight="400" stroke-width="1" stroke-opacity="1" transform="matrix(11.808,0,0,11.808,0,0)" fill="none"/>
  <g stroke="#000000" stroke-linejoin="bevel" stroke-linecap="square" font-style="normal" font-size="34.5833" font-family="MS Shell Dlg 2" font-weight="400" stroke-width="1" stroke-opacity="1" transform="matrix(11.808,0,0,11.808,0,0)" fill="none"/>
  <g stroke="#000000" stroke-linejoin="bevel" stroke-linecap="square" font-style="normal" font-size="34.5833" font-family="MS Shell Dlg 2" font-weight="400" stroke-width="1" stroke-opacity="1" transform="matrix(11.808,0,0,11.808,0,0)" fill="none"/>
  <g stroke="#000000" stroke-linejoin="bevel" stroke-linecap="square" font-style="normal" font-size="34.5833" font-family="MS Shell Dlg 2" font-weight="400" stroke-width="1" stroke-opacity="1" transform="matrix(11.808,0,0,11.808,0,0)" fill="none"/>
  <g stroke="#000000" stroke-linejoin="bevel" stroke-linecap="square" font-style="normal" font-size="34.5833" font-family="MS Shell Dlg 2" font-weight="400" stroke-width="1" stroke-opacity="1" transform="matrix(11.808,0,0,11.808,0,0)" fill="none"/>
  <g stroke="none" font-style="normal" font-size="34.5833" font-family="MS Shell Dlg 2" font-weight="400" fill-opacity="0" transform="matrix(11.808,0,0,11.808,0,0)" fill="#ffffff">
   <path fill-rule="evenodd" d="M0,0 L250,0 L250,250 L0,250 L0,0" vector-effect="none"/>
  </g>
  <g stroke="#000000" stroke-linejoin="bevel" stroke-linecap="square" font-style="normal" font-size="34.5833" font-family="MS Shell Dlg 2" font-weight="400" stroke-width="1" stroke-opacity="1" transform="matrix(11.808,0,0,11.808,0,0)" fill="none"/>
  <g stroke="#000000" stroke-linejoin="bevel" stroke-linecap="square" font-style="normal" font-size="34.5833" font-family="MS Shell Dlg 2" font-weight="400" stroke-width="1" stroke-opacity="1" transform="matrix(11.808,0,0,11.808,0,0)" fill="none"/>
  <g stroke="none" font-style="normal" font-size="34.5833" font-family="MS Shell Dlg 2" font-weight="400" fill-opacity="0" transform="matrix(0.999744,0,0,0.999744,0,0)" fill="#000000">
   <rect y="0" x="0" width="2953" height="2953"/>
  </g>
  <g stroke="#000000" stroke-linejoin="bevel" stroke-linecap="square" font-style="normal" font-size="34.5833" font-family="MS Shell Dlg 2" font-weight="400" stroke-width="1" stroke-opacity="1" transform="matrix(0.999744,0,0,0.999744,0,0)" fill="none"/>
  <g stroke="#5c5c5c" stroke-linejoin="bevel" stroke-linecap="square" font-style="normal" font-size="34.5833" font-family="MS Shell Dlg 2" font-weight="400" stroke-width="3.07087" fill-opacity="1" stroke-opacity="1" transform="matrix(0.999744,0,0,0.999744,0,0)" fill="#c5c5c5">
   <path fill-rule="evenodd" d="M73.9012,2299.51 L82.946,2304.68 L83.9845,2306.05 L87.301,2310.12 L88.4637,2312.7 L89.9569,2315.69 L90.2283,2316.3 L91.0308,2318.1 L91.5384,2319.84 L91.4442,2321.84 L92.412,2323.05 L93.5155,2323.55 L94.5189,2324.31 L95.6931,2325.33 L97.2039,2326 L98.2191,2328.45 L100.574,2329.71 L101.482,2331.07 L103.058,2332.24 L105.129,2334.48 L107.366,2336.81 L109.107,2339.47 L109.42,2339.94 L110.766,2341.96 L110.76,2344.06 L111.597,2347.18 L112.271,2349.71 L112.743,2351.42 L113.787,2352.92 L115.221,2354.35 L116.649,2355.61 L117.912,2356.28 L119.34,2357.39 L121.448,2358.06 L123.637,2358.9 L125.319,2359.5 L127.42,2359.58 L129.355,2360.42 L131.628,2360.84 L133.404,2361.58 L134.649,2361.92 L135.889,2362.67 L137.464,2363.99 L137.795,2364.49 L138.62,2365.74 L140.12,2367.73 L141.861,2370.89 L143.023,2372.64 L144.434,2375.05 L146.417,2378.42 L148.364,2380.42 L152.071,2382.13 L156.361,2383.64 L159.625,2383.89 L165.036,2384.72 L168.671,2384.87 L170.442,2384.71 L172.631,2384.03 L174.65,2383.19 L176.497,2382.51 L178.35,2382.17 L183.573,2380.01 L187.527,2377.79 L190.85,2376.72 L195.936,2375.97 L200.799,2375.73 L204.641,2375.52 L206.724,2376 L209.061,2377.11 L211.481,2379.26 L215.919,2382.43 L218.002,2384.39 L219.684,2386 L224.86,2393.01 L226.27,2394.97 L227.498,2395.84 L229.593,2396.2 L231.381,2396.11 L233.8,2395.24 L237.029,2394.97 L239.991,2393.89 L241.602,2393.69 L243.544,2393.49 L245.167,2394.7 L246.713,2396.59 L248.991,2400.4 L249.652,2403.33 L252.532,2405.49 L256.633,2407.24 L258.251,2407.92 L260.05,2409.04 L262.741,2410.52 L264.152,2412.47 L266.637,2415.57 L270.402,2422.65 L272.284,2424.2 L274.639,2424.88 L276.929,2424.81 L279.614,2423.73 L282.505,2422.72 L285.533,2422.05 L287.009,2421.98 L289.098,2422.05 L291.246,2422.65 L293.264,2423.73 L294.539,2425.41 L295.955,2430.61 L295.884,2433.8 L296.286,2434.94 L297.968,2439.06 L299.756,2443.31 L300.204,2443.96 L301.574,2445.96 L302.441,2447.32 L303.415,2449.37 L304.66,2452.47 L304.973,2453.75 L305.25,2454.8 L305.374,2455.95 L304.937,2457.53 L304.046,2459.76 L303.444,2461.38 L303.303,2461.76 L303.055,2462.79 L303.008,2463.87 L303.379,2465.63 L304.961,2467.22 L307.835,2467.63 L311.866,2469.96 L313.914,2472.71 L315.395,2474.99 L317.903,2479.22 L320.636,2482.99 L321.828,2485.77 L322.488,2487.71 L321.999,2492.82 L321.774,2494.54 L320.747,2497.39 L320.069,2499.2 L318.357,2502.63 L315.619,2506.62 L314.026,2510.97 L313.17,2515.88 L311.677,2519.04 L310.048,2522.03 L308.047,2526.91 L303.539,2530.97 L297.95,2538.4 L294.911,2544.29 L294.427,2546.54 L294.875,2550.06 L296.811,2552.8 L298.41,2555.09 L301.999,2558.86 L304.625,2561.52 L306.041,2562.02 L307.115,2562.35 L309.275,2562.43 L310.597,2562.6 L312.421,2562.68 L314.58,2562.77 L315.82,2563.1 L317.23,2563.68 L319.137,2564.58 L319.803,2564.84 L323.781,2566.09 L325.687,2566.59 L327.18,2566.59 L328.673,2566.51 L330.072,2566.37 L333.654,2566.34 L337.537,2565.47 L343.404,2564.09 L348.396,2561.67 L351.27,2559.15 L355.49,2557.63 L359.06,2555.16 L362.117,2553.35 L365.457,2551.96 L368.561,2550.52 L370.114,2550.23 L371.931,2549.4 L373.472,2549.14 L375.549,2549.05 L377.443,2549.65 L379.598,2550.61 L380.925,2552.89 L381.067,2554.32 L381.669,2555.62 L382.613,2557.52 L383.994,2559.33 L385.546,2562.1 L387.358,2564.35 L388.562,2567.64 L389.683,2570.14 L390.976,2572.65 L393.218,2575.15 L396.151,2577.23 L398.831,2578.62 L400.978,2579.13 L403.735,2578.7 L407.269,2578 L410.374,2576.54 L413.472,2574.03 L415.957,2569.44 L417.786,2564.17 L418.99,2559.16 L420.89,2554.67 L423.215,2550.7 L427.53,2550 L432.7,2551.04 L437.232,2552.07 L442.142,2553.55 L448.179,2555.71 L451.797,2558.39 L454.47,2561.41 L456.972,2564.35 L460.501,2568.75 L468.693,2570.57 L476.453,2571.09 L481.021,2572.65 L487.141,2573.99 L495.214,2576.7 L500.372,2579.05 L506.433,2582.18 L507.312,2584.06 L508.428,2586.22 L510.068,2588.98 L512.565,2592.52 L516.708,2597.19 L521.187,2598.48 L524.651,2598.94 L530.499,2599.44 L537.912,2602.03 L542.314,2603.98 L544.061,2605.7 L544.911,2606.81 L545.465,2607.8 L546.752,2610.61 L547.035,2611.23 L547.13,2612.75 L548.168,2615.25 L549.207,2616.55 L551.615,2619.32 L554.802,2620.77 L557.458,2621.63 L560.674,2622.73 L563.548,2622.73 L567.691,2622.55 L569.219,2622.11 L575.717,2620.83 L583.388,2619.58 L588.995,2618.97 L592.613,2619.75 L596.319,2620.18 L599.766,2619.92 L603.867,2617.5 L606.8,2614.59 L609.296,2612.58 L612.401,2610.84 L615.334,2611.89 L618.438,2613.96 L619.713,2615.34 L622.038,2616.38 L625.573,2616.81 L629.958,2616.46 L633.422,2614.13 L637.901,2612.32 L642.812,2612.4 L647.727,2613.44 L651.433,2614.39 L653.239,2615.51 L654.709,2616.29 L656.432,2616.81 L658.244,2617.24 L660.049,2616.55 L661.778,2615.6 L663.325,2614.31 L666.346,2611.71 L669.622,2610.07 L674.963,2610.24 L679.755,2609.95 L680.864,2610.51 L682.729,2611.21 L685.869,2611.79 L689.103,2612.38 L691.752,2612.77 L694.308,2612.77 L696.267,2612.58 L698.427,2612.29 L700.681,2611.5 L703.036,2610.71 L705.786,2610.22 L708.531,2609.63 L710.791,2608.84 L713.83,2606.87 L716.58,2604.32 L718.935,2602.74 L720.699,2601.26 L722.564,2600.68 L725.71,2600.77 L728.649,2601.26 L731.587,2601.47 L736.397,2601.47 L738.363,2600.97 L739.932,2599.89 L741.797,2598.71 L746.506,2596.35 L748.366,2595.26 L751.099,2593.68 L753.158,2592.31 L755.218,2591.81 L757.767,2591.22 L761.691,2590.44 L764.831,2588.96 L769.05,2584.83 L770.426,2583.65 L771.606,2582.97 L772.792,2582.39 L773.919,2581.77 L775.318,2581.13 L776.38,2580.72 L778.033,2580.1 L779.16,2579.53 L780.346,2578.81 L781.78,2578.15 L785.002,2576.84 L787.268,2576.04 L789.246,2575.46 L791.216,2575.16 L793.92,2574.51 L795.82,2573.62 L797.791,2572.67 L799.62,2571.87 L800.937,2571.73 L803.492,2572.9 L805.54,2574.36 L807.292,2575.83 L809.925,2578.17 L812.627,2579.78 L814.793,2580.04 L817.301,2579.76 L819.42,2579.86 L829.269,2581.91 L832.232,2582.97 L834.316,2583.83 L836.009,2584.35 L837.667,2584.58 L840.689,2584.67 L844.348,2584.28 L847.004,2583.58 L848.426,2582.76 L851.601,2580.28 L852.386,2579.94 L853.318,2579.86 L854.339,2580.16 L855.042,2580.61 L857.066,2583.37 L858.092,2584.35 L858.913,2584.91 L861.179,2585.67 L864.348,2585.52 L865.588,2585.19 L866.644,2583.73 L866.798,2583.03 L866.013,2579.73 L865.647,2578.8 L865.263,2578.34 L864.23,2576.07 L864.047,2574.25 L865.074,2573.13 L868.013,2571.86 L870.208,2571.01 L873.443,2571.01 L875.98,2571.61 L878.825,2572.67 L879.94,2573.01 L881.634,2572.49 L883.747,2571.28 L887.311,2570.16 L889.034,2570.04 L891.3,2570.37 L893.266,2569.86 L893.868,2569.49 L894.469,2569.44 L897.013,2567.55 L899.639,2566.52 L900.182,2566.44 L903.599,2566.58 L904.839,2566.92 L905.777,2567.52 L906.225,2567.61 L907.86,2567.52 L909.86,2566.83 L911.212,2566.98 L912.611,2567.58 L914.959,2569.37 L916.713,2571.8 L917.438,2572.19 L918.252,2572.4 L919.25,2572.4 L919.734,2572.1 L921.215,2569.22 L921.853,2568.64 L922.272,2568.49 L922.697,2568.52 L924.803,2569.64 L928.226,2571.1 L929.342,2572.34 L931.094,2575.64 L931.638,2578.52 L932.304,2580.61 L934.724,2581.34 L936.919,2582.27 L938.318,2582.4 L940.372,2582.25 L942.945,2582.34 L943.966,2582.55 L946.355,2583.67 L947.566,2583.79 L949.95,2583.4 L950.646,2583.03 L952.033,2581.79 L954.364,2578.92 L955.539,2578.04 L956.932,2577.25 L958.259,2576.86 L959.923,2576.97 L962.219,2576.86 L965.028,2576.13 L965.813,2576.07 L966.238,2576.31 L966.692,2576.89 L967.264,2578.7 L967.897,2579.73 L970.888,2581.7 L971.614,2582.37 L972.252,2583.37 L972.494,2584.67 L971.738,2586.64 L972.187,2587.71 L973.58,2588.43 L975.545,2588.85 L976.477,2589.61 L976.66,2590.94 L975.273,2592.92 L974.937,2593.97 L974.937,2595.15 L975.149,2595.76 L975.574,2596.15 L976.66,2596.73 L977.87,2596.94 L978.567,2596.79 L980.107,2596.25 L981.559,2596.18 L982.762,2595.88 L983.795,2594 L984.94,2589.94 L985.182,2589.58 L985.542,2589.33 L988.805,2588.97 L990.558,2588.55 L993.096,2587.49 L996.602,2587.76 L997.723,2587.61 L998.112,2587.4 L998.69,2586.55 L999.717,2585.79 L1000.93,2586 L1003.37,2587.16 L1004.13,2587.18 L1004.85,2586.94 L1005.16,2586.7 L1005.31,2586.28 L1005.31,2584.79 L1004.98,2583.19 L1003.8,2579.7 L1003.67,2578.86 L1004.13,2578.04 L1004.43,2577.83 L1006.91,2577.97 L1010.47,2579.76 L1011.59,2580.13 L1012.22,2580.58 L1013.07,2582 L1013.7,2583.86 L1014.28,2584.76 L1016.09,2586.4 L1018.72,2588.37 L1019.39,2588.58 L1020.53,2588.58 L1021.53,2587.4 L1022.35,2587.03 L1023.95,2587.03 L1025.03,2587.4 L1026.79,2588.4 L1027.88,2589.85 L1028.42,2591.97 L1028.45,2592.94 L1027.84,2594.55 L1027,2595.76 L1026.57,2596.94 L1026.82,2598.18 L1027.61,2599.49 L1027.84,2600.09 L1027.84,2600.61 L1027.4,2602.76 L1027.54,2603.52 L1027.84,2604.21 L1032.44,2608.34 L1033.95,2610.3 L1034.5,2610.81 L1036.15,2611.76 L1038.39,2612.76 L1039.45,2613.42 L1042.5,2616.21 L1042.99,2616.27 L1043.47,2616.06 L1044.29,2614.42 L1045.01,2613.7 L1045.58,2613.57 L1046.64,2613.97 L1050.42,2619.66 L1051.5,2621.51 L1051.9,2622.57 L1052.17,2625.24 L1052.32,2625.79 L1053.62,2626.93 L1054.52,2627.15 L1056.73,2627.12 L1057.91,2626.87 L1059.57,2626.09 L1060.69,2625.15 L1062.83,2624.6 L1065.19,2624.76 L1067.46,2625.21 L1068.64,2625.06 L1069.06,2624.69 L1070.03,2621.79 L1070.6,2620.84 L1071.45,2620.48 L1074.59,2620.39 L1076.14,2619.75 L1076.83,2619.15 L1077.07,2618.45 L1077.1,2617.97 L1076.25,2615.21 L1076.22,2613.09 L1077.04,2614.03 L1077.46,2614.3 L1078.45,2614.48 L1079.73,2614.36 L1081.45,2613.94 L1083.05,2612.76 L1085.59,2611.39 L1086.46,2611.12 L1087.16,2611.06 L1089,2611.61 L1092.42,2613.57 L1095.68,2613.88 L1097.43,2613.79 L1100.4,2613.06 L1102.66,2612.81 L1105.23,2612.21 L1106.59,2611.45 L1108.98,2609.27 L1112.12,2607.58 L1114.02,2607.34 L1115.14,2607.58 L1116.56,2608.27 L1117.77,2609.27 L1120.46,2611.85 L1121.67,2612.79 L1123.51,2613.51 L1125.29,2613.88 L1127.08,2614.12 L1128.49,2614.51 L1135.63,2620.57 L1138.41,2622.24 L1139.49,2624.12 L1139.64,2625.03 L1139.46,2626.6 L1139.71,2627.48 L1140.61,2628.51 L1143.76,2631.12 L1145.6,2633.6 L1146.26,2634.24 L1148.22,2635.12 L1153.06,2636.15 L1154.79,2636.9 L1157.05,2638.48 L1159.56,2639.12 L1161.01,2639.69 L1163.48,2641.35 L1164.97,2642.05 L1167.26,2643.96 L1169.77,2645.57 L1172.4,2646.89 L1174.03,2648.11 L1174.46,2648.75 L1175.36,2649.63 L1176.51,2653.93 L1179.8,2657.66 L1181.1,2659.87 L1180.01,2660.84 L1180.86,2664.96 L1181.94,2665.11 L1184.15,2664.53 L1186.51,2663.47 L1187.17,2663.44 L1187.75,2663.69 L1187.96,2663.95 L1188.27,2664.9 L1188.78,2665.5 L1190.8,2666.29 L1191.53,2666.96 L1191.83,2667.96 L1192.04,2670.23 L1192.83,2672.56 L1194.76,2675.08 L1196.06,2676.29 L1198.6,2677.71 L1198.96,2677.71 L1203.92,2680.05 L1206.75,2682.38 L1210.35,2686.04 L1211.98,2687.9 L1214.46,2690.16 L1214.46,2690.17 L1218.99,2693.04 L1223.59,2695.34 L1227.72,2697.64 L1231.65,2698.35 L1234.19,2698.68 L1236.61,2700.53 L1237.88,2702.1 L1239.66,2703.08 L1241.05,2705.22 L1241.83,2707.13 L1243.71,2709.92 L1247.49,2713.19 L1249.87,2714.28 L1253.5,2715.46 L1254.95,2716.71 L1256.73,2717.71 L1260.48,2719.04 L1264.86,2719.92 L1265.28,2720.25 L1266.94,2722.28 L1268.3,2723.5 L1269.12,2723.95 L1271.72,2724.74 L1272.96,2724.83 L1274.92,2726.19 L1275.38,2726.67 L1275.83,2727.5 L1276.28,2730.64 L1276.76,2732.29 L1277.46,2733.4 L1278.58,2734.1 L1284.29,2733.13 L1286.64,2733.28 L1289.36,2733.7 L1291.57,2733.8 L1293.62,2733.28 L1299.91,2730.67 L1302.84,2730.25 L1304.87,2730.34 L1305.23,2730.45 L1305.5,2730.53 L1306.07,2730.89 L1306.89,2731.97 L1307.4,2733.73 L1308.16,2734.98 L1308.67,2735.03 L1309.19,2734.89 L1309.58,2734.49 L1310.4,2732.07 L1310.85,2731.25 L1311.7,2730.61 L1312.24,2730.58 L1313.54,2730.92 L1313.96,2730.92 L1314.51,2730.58 L1315.32,2729.7 L1315.99,2729.43 L1316.56,2729.49 L1318.25,2730.34 L1320.92,2731.09 L1323.03,2732.1 L1324.08,2732.95 L1325.89,2734.03 L1327.4,2734.56 L1330.16,2734.86 L1337.22,2734.73 L1339.95,2735.37 L1341.3,2735.95 L1342.06,2736.55 L1343.57,2738.48 L1344.42,2739.95 L1345.08,2740.82 L1345.81,2741.19 L1346.69,2741.17 L1347.53,2740.73 L1348.53,2739.53 L1349.8,2736.49 L1350.67,2735.34 L1351.64,2734.46 L1352.6,2734 L1355.3,2733.22 L1356.32,2732.76 L1358.8,2730.49 L1359.95,2729.92 L1360.94,2729.95 L1361.79,2730.25 L1363.48,2731.34 L1364.12,2731.46 L1364.66,2731.28 L1365.42,2730.77 L1367.32,2728.86 L1368.83,2728.16 L1371.16,2727.74 L1372.27,2727.31 L1374.81,2724.64 L1376.08,2723.64 L1379.53,2722.47 L1380.34,2722.04 L1381.01,2721.47 L1381.7,2720.37 L1382.09,2719.01 L1382.22,2716.77 L1382.7,2714.44 L1382.61,2713.77 L1381.98,2712.16 L1381.92,2711.25 L1382.67,2708.98 L1384.63,2706.71 L1385.69,2705.25 L1386.78,2701.65 L1387.8,2699.56 L1388.59,2696.86 L1388.86,2696.26 L1390.13,2694.86 L1390.68,2694.41 L1393.01,2693.47 L1395.27,2692.26 L1395.87,2692.07 L1396.93,2692.05 L1397.78,2692.29 L1399.86,2694.23 L1400.65,2694.74 L1401.49,2694.81 L1401.98,2694.44 L1402.19,2692.05 L1403.31,2689.38 L1403.4,2688.92 L1403.25,2687.83 L1402.34,2685.23 L1401.98,2683.68 L1401.4,2678.32 L1401.53,2677.53 L1401.89,2677.08 L1402.76,2677.05 L1403.79,2677.62 L1405.85,2680.05 L1407.84,2683.08 L1409.65,2684.37 L1411.58,2684.44 L1413.89,2683.68 L1416,2683.35 L1418.57,2683.35 L1420.68,2684.29 L1424.67,2687.35 L1425.85,2687.92 L1426.69,2687.9 L1427.54,2687.71 L1428.51,2686.92 L1430.11,2685.29 L1430.81,2684.87 L1431.38,2684.71 L1432.22,2684.89 L1434.55,2686.26 L1436.15,2686.95 L1438.75,2687.87 L1442.53,2688.59 L1443.49,2688.56 L1444.97,2688.2 L1446,2687.32 L1446.27,2686.59 L1446.3,2684.98 L1445.7,2681.92 L1445.64,2679.32 L1446.49,2676.47 L1446.61,2674.14 L1446.24,2672.14 L1443.43,2665.66 L1443.35,2664.78 L1443.43,2663.8 L1444.22,2662.14 L1446.94,2659.84 L1447.54,2659.04 L1447.79,2658.05 L1447.33,2656.5 L1447.26,2655.63 L1447.57,2654.75 L1448.09,2653.99 L1449.32,2653.57 L1451.62,2653.66 L1453.92,2653.32 L1455.04,2652.63 L1455.52,2652.14 L1455.67,2651.35 L1454.46,2647.99 L1453.86,2644.93 L1453.83,2643.05 L1454.68,2641.35 L1455.25,2640.77 L1457.06,2640.17 L1459.81,2639.88 L1461.35,2639.24 L1463.89,2636.63 L1468.88,2633.09 L1469.96,2632.02 L1472.77,2628.6 L1474.19,2627.6 L1475.46,2627.45 L1476.49,2627.82 L1477.58,2629.03 L1479.21,2631.36 L1480.79,2632.3 L1482.02,2632.6 L1482.69,2632.54 L1483.71,2631.99 L1484.8,2630.85 L1485.89,2628.75 L1485.98,2628.18 L1485.85,2627.66 L1485.65,2627.39 L1485.34,2627.33 L1483.74,2627.45 L1482.99,2627.3 L1482.63,2627.09 L1482.44,2626.63 L1482.59,2625.69 L1483.93,2623.69 L1484.1,2623.24 L1484.29,2621.63 L1483.95,2619.6 L1484.26,2618.12 L1484.83,2617.12 L1485.89,2616.36 L1487.28,2615.64 L1490.69,2614.42 L1492.02,2613.6 L1493.44,2612.18 L1494.2,2611.18 L1494.86,2609.85 L1495.34,2608.48 L1495.5,2606.61 L1495.29,2605.31 L1494.89,2603.88 L1494.5,2602.61 L1494.35,2601.61 L1494.38,2600.52 L1494.59,2599.79 L1495.98,2597.52 L1496.28,2596.33 L1496.22,2595.03 L1495.95,2594.7 L1494.01,2594 L1493.53,2593.67 L1493.23,2593.22 L1493.08,2592.28 L1493.53,2591.22 L1494.41,2590.4 L1498.49,2587.49 L1499.55,2587.16 L1501.84,2586.43 L1505.83,2585.7 L1512.54,2582.83 L1512.84,2582.49 L1513.17,2582.13 L1514.2,2579.97 L1514.87,2579.37 L1516.83,2578.37 L1517.52,2578.28 L1518.31,2578.52 L1519.37,2579.13 L1519.91,2579.16 L1520.46,2578.97 L1520.99,2578.37 L1521.3,2576.77 L1521.48,2576.19 L1521.97,2575.67 L1522.45,2575.37 L1523.45,2575.16 L1525.02,2575.58 L1525.71,2575.58 L1527.4,2574.49 L1530.82,2574.25 L1531.87,2573.91 L1532.3,2573.58 L1532.54,2572.86 L1532.09,2571.34 L1532.06,2570.22 L1533.6,2567.89 L1533.81,2566.52 L1533.57,2565.34 L1532.33,2562.52 L1530.03,2559.89 L1529.4,2558.77 L1529.4,2555.04 L1528.61,2551.01 L1528.67,2548.38 L1528.91,2546.43 L1529.64,2545.26 L1530.33,2544.8 L1531.33,2544.56 L1533.51,2544.5 L1535.35,2544.99 L1537.73,2545.99 L1541.48,2547.95 L1542.49,2548.19 L1543.15,2548.19 L1544.36,2547.5 L1545.08,2546.5 L1545.68,2544.56 L1545.96,2543.04 L1545.75,2541.26 L1545.2,2540.38 L1544.81,2540.04 L1542.27,2538.71 L1540.46,2536.93 L1539.46,2535.38 L1539.25,2534.17 L1539.19,2530.92 L1538.92,2527.81 L1538.95,2527.17 L1539.19,2526.62 L1539.74,2525.99 L1542.85,2523.11 L1545.32,2521.32 L1546.29,2521.05 L1547.44,2520.99 L1551.64,2521.57 L1552.91,2521.75 L1555.2,2521.72 L1556.26,2521.38 L1557.17,2520.81 L1559.61,2518.51 L1560.34,2516.99 L1560.43,2515.6 L1560.01,2512.78 L1559.01,2509.93 L1558.59,2508.12 L1558.56,2506.12 L1559.16,2504.51 L1559.8,2503.66 L1561.22,2502.51 L1563.51,2501.51 L1564.06,2501.39 L1567.32,2500.66 L1568.23,2500.23 L1569.16,2499.51 L1570.37,2497.87 L1573.09,2493.39 L1573.6,2490.76 L1573.33,2487.7 L1573.6,2486.57 L1574.06,2485.51 L1575.48,2484.24 L1578.26,2483.03 L1578.95,2482.57 L1579.74,2481.58 L1579.94,2480.64 L1579.71,2478.67 L1579.49,2478.21 L1578.14,2476.48 L1577.95,2475.36 L1577.9,2473.21 L1577.68,2471.61 L1577.87,2470.52 L1578.26,2469.12 L1579.25,2467.46 L1580.49,2466.43 L1582.67,2465.52 L1585.15,2465.49 L1589.68,2466.67 L1591.52,2466.97 L1592.46,2466.92 L1593.24,2466.64 L1594.67,2465.37 L1595.12,2464.22 L1594.81,2462.4 L1594.57,2460.95 L1594.6,2459.76 L1594.91,2458.67 L1595.9,2456.89 L1599.41,2453.67 L1600.29,2452.16 L1600.82,2450.59 L1600.89,2449.28 L1600.59,2448.25 L1598.53,2444.56 L1598.5,2443.71 L1598.89,2442 L1599.74,2440.56 L1603.34,2436.83 L1603.76,2436.31 L1606.36,2433.47 L1609.98,2428.04 L1612.31,2422.62 L1614.09,2419.05 L1615.82,2414.23 L1616.39,2410.29 L1617.72,2407.32 L1619.41,2405.53 L1621.16,2404.29 L1622.52,2403.78 L1623.79,2403.57 L1625.91,2403.53 L1628.51,2403.94 L1630.17,2404.78 L1632.31,2406.29 L1633.95,2406.93 L1635.12,2406.93 L1636.03,2406.39 L1636.58,2405.75 L1637.21,2404.53 L1637.57,2403.26 L1637.72,2397.42 L1636.9,2391.39 L1636.63,2390.36 L1635.79,2388.14 L1635.55,2387.14 L1636.13,2383.86 L1637.12,2381.19 L1638.9,2378.2 L1639.35,2377.07 L1640.23,2374.89 L1640.64,2373.02 L1641.78,2368.78 L1643.84,2364.05 L1646.24,2360.96 L1647.41,2358.54 L1648.6,2356.3 L1650.77,2354.31 L1652.76,2353.13 L1656.69,2350.49 L1657.98,2349.35 L1659.14,2347.32 L1659.9,2344.59 L1660.81,2342.04 L1662.79,2338.53 L1665,2336.02 L1665.44,2335.63 L1666.64,2334.92 L1667.53,2334.5 L1668.37,2334.36 L1669.22,2334.47 L1670.93,2335.66 L1671.98,2336.1 L1672.82,2336.22 L1673.73,2336.17 L1674.38,2335.96 L1675.59,2335.22 L1676.53,2334.17 L1681.04,2325.74 L1683.21,2322.97 L1684.35,2322.13 L1686.44,2321.13 L1688.98,2320.2 L1690.79,2319.91 L1691.68,2319.76 L1693.42,2319.17 L1696.13,2317.12 L1697.67,2315.97 L1700.87,2313.91 L1702.79,2313.35 L1704.59,2312.98 L1706.39,2313.04 L1710.11,2313.94 L1712.63,2315.03 L1715.24,2315.87 L1716.69,2315.72 L1717.56,2314.88 L1718.35,2313 L1718.49,2312.67 L1720.17,2305.26 L1721.21,2304.3 L1722.22,2304.13 L1725.01,2303.66 L1727.89,2303.9 L1730.13,2303.06 L1733.29,2300.47 L1736.26,2297.63 L1737.32,2297.05 L1738.01,2296.68 L1739.68,2295.94 L1740.84,2295.43 L1742.05,2295.4 L1744.06,2295.77 L1744.43,2295.45 L1745.68,2294.67 L1747.88,2293.49 L1753.66,2292.26 L1757.91,2290.84 L1759.79,2289.73 L1761.18,2286.56 L1762.29,2279.46 L1765,2278.96 L1772.52,2281.07 L1776.37,2279.87 L1778.15,2279.83 L1782.09,2280.78 L1785.53,2281.9 L1786.65,2282.35 L1788.96,2283.08 L1790.59,2283.01 L1792.5,2282.25 L1794.5,2280.72 L1795.02,2280.02 L1797.63,2274.91 L1800.86,2268.52 L1802.25,2264.07 L1802.56,2262.3 L1802.18,2259.27 L1801.29,2257.84 L1800.59,2257.28 L1797.76,2256.04 L1796.31,2254.93 L1793.99,2252.7 L1792.19,2250.61 L1789.81,2245.7 L1788.78,2240.69 L1788.88,2236.45 L1789.88,2233.1 L1790.41,2231.33 L1792.8,2227.47 L1795.26,2224.38 L1796.72,2220.97 L1796.89,2219.71 L1796.76,2218.98 L1796.38,2218.36 L1795.75,2217.97 L1794.47,2217.8 L1791.91,2217.87 L1789.11,2217.38 L1787.72,2216.99 L1785.3,2215.91 L1781.15,2213.34 L1776.9,2210.06 L1772.74,2207.59 L1772.16,2207.1 L1771.91,2206.37 L1771.94,2205.83 L1771.99,2205.01 L1773.61,2202.68 L1775.24,2201.01 L1776.45,2200.08 L1779.09,2198.93 L1781.23,2198.23 L1785.39,2196.18 L1789.48,2192.12 L1793.87,2189.37 L1796.4,2188.43 L1797.72,2188.29 L1800.66,2187.46 L1807.03,2184.12 L1807.79,2183.46 L1808.35,2182.63 L1808.8,2180.99 L1809.05,2174.91 L1808.94,2173.48 L1809.33,2169.68 L1809.75,2166.57 L1810.13,2163.85 L1809.98,2159.86 L1810.87,2153.41 L1812.98,2147.77 L1815.11,2144.68 L1816.91,2143.55 L1819.59,2143.13 L1821.35,2143.34 L1823.13,2144.04 L1826.67,2145.23 L1828.75,2145.81 L1829.83,2146.12 L1835.11,2148.59 L1837.73,2150.24 L1838.33,2150.43 L1839.38,2150.76 L1841.25,2148.38 L1843.47,2145.46 L1846.45,2143.41 L1850.23,2139.7 L1851.05,2139.11 L1854.4,2136.72 L1858.15,2133.98 L1862.43,2132.79 L1864.35,2131.37 L1866.29,2129.86 L1866.56,2128.95 L1865.37,2123.9 L1864.92,2120.91 L1864.34,2119.06 L1863.92,2116.73 L1863.79,2110.29 L1862.98,2108.42 L1862.55,2107.4 L1861.09,2105.91 L1856.77,2103.4 L1853.1,2102.25 L1851.61,2101.03 L1850.89,2099.67 L1849.27,2094.63 L1848.99,2092.71 L1849.44,2091.04 L1850,2090.35 L1851.31,2089.41 L1854.05,2088.43 L1856.37,2088.61 L1860.03,2089.87 L1862.28,2090.35 L1864.46,2090.22 L1868.2,2089.91 L1879,2090.57 L1880.97,2090.05 L1882.12,2089.5 L1882.67,2088.87 L1883.23,2087.38 L1883.37,2085.6 L1883.4,2084.77 L1883.02,2083.1 L1882.09,2081.39 L1878.7,2076.41 L1876.77,2072.9 L1875.97,2070.5 L1875.7,2067.57 L1876.15,2067.16 L1876.88,2066.88 L1879.02,2066.7 L1879.75,2066.36 L1882.04,2063.33 L1882.76,2062.78 L1885.64,2061.52 L1888.41,2060.93 L1889.89,2060.38 L1892.66,2058.85 L1893.91,2057.6 L1894.29,2056.9 L1894.23,2055.44 L1892.01,2052.93 L1890.39,2052.03 L1888.55,2050.22 L1884.25,2047.51 L1883.45,2046.03 L1882.57,2041.24 L1882.12,2039.84 L1880.67,2036.78 L1879.13,2034.59 L1878.91,2033.92 L1879.44,2031.95 L1880.8,2030.21 L1885.66,2026.63 L1888.68,2024.93 L1896.22,2023.93 L1898.49,2024.26 L1899.95,2024.23 L1901.07,2023.52 L1904.31,2019.91 L1907.23,2017.83 L1908.67,2017.13 L1911.77,2016.16 L1918.42,2012.98 L1923,2011.21 L1926.75,2009.38 L1929.09,2008.54 L1932.1,2008.29 L1932.79,2008.49 L1934.7,2009.61 L1937.37,2012.18 L1938.49,2014.5 L1939.33,2023.99 L1940,2026.33 L1941.84,2028.88 L1942.31,2029.24 L1943.55,2029.62 L1945.49,2029.49 L1946.08,2029.23 L1947.11,2028.28 L1948.08,2026.98 L1948.76,2025.78 L1948.99,2024.95 L1950.25,2018.96 L1951.51,2017.11 L1953.31,2014.14 L1955.51,2012.1 L1956.92,2011.33 L1958.7,2010.49 L1960.51,2009.9 L1962.11,2009.74 L1964.02,2009.95 L1966.64,2010.35 L1970.08,2010.64 L1973.64,2011.39 L1977.59,2012.06 L1980.25,2012.44 L1982.22,2012.63 L1983.25,2012.35 L1984.18,2011.64 L1985.32,2010.4 L1986.7,2009.91 L1989.19,2008.83 L1991.4,2007.4 L1993.99,2006.03 L1995.98,2004.25 L1998.71,2001.79 L2000.82,1999.31 L2003.16,1995.95 L2005.38,1993.59 L2007.84,1991.21 L2010.78,1988.16 L2013.13,1985.83 L2015.13,1984.53 L2017.31,1983.46 L2020.44,1982.5 L2022.36,1981.92 L2024.35,1981.13 L2025.45,1980.45 L2025.59,1982.12 L2025.8,1983.8 L2026.57,1985.59 L2028.18,1987.49 L2030.12,1990.47 L2033.03,1993.11 L2035.52,1995.25 L2036.75,1995.46 L2038.98,1994.88 L2040.86,1995.28 L2042.08,1996.49 L2043.34,1998.3 L2044.37,2000.86 L2045.72,2002.73 L2048.58,2005.29 L2050.97,2006.57 L2053.26,2007.22 L2056.64,2007.42 L2057.92,2006.57 L2059.98,2004.22 L2062.53,2003.51 L2066.6,2002.89 L2069.31,2002.53 L2073.13,2002.77 L2077.13,2004.42 L2082.3,2005.95 L2084.08,2007.46 L2086.87,2008.84 L2089.39,2007.93 L2092.12,2007.62 L2095.11,2006.54 L2096.72,2005.28 L2096.9,2002.92 L2097.27,2000.63 L2102.31,1995.28 L2108.35,1990.87 L2113.73,1987.72 L2116.74,1986.03 L2120.15,1984.83 L2122.14,1984.56 L2125.92,1985.31 L2130.76,1986.94 L2137.07,1991.45 L2141.13,1994.77 L2144.58,1998.23 L2146.51,2000.4 L2149.44,2007.12 L2149.92,2010.81 L2153.95,2017 L2155.11,2019.03 L2157.83,2022.4 L2161.08,2024.15 L2163.78,2025.04 L2168.13,2025.93 L2170.93,2025.85 L2173.22,2026.2 L2177.1,2025.91 L2181.42,2024.96 L2185.01,2025.71 L2189.84,2026.25 L2192.28,2026.97 L2193.53,2027.03 L2194.66,2026.66 L2195.37,2025.49 L2195.89,2022.3 L2195.99,2020.18 L2196.69,2018.86 L2198.69,2017.79 L2200.16,2017.25 L2201.68,2016.81 L2203.53,2016.3 L2205,2016.47 L2205.68,2017.09 L2206.68,2018.57 L2209.01,2021.96 L2210.73,2024.15 L2212.97,2026.51 L2215.11,2029.15 L2217.45,2032.17 L2220.74,2035.79 L2223.56,2037.24 L2226.47,2039.11 L2230.75,2040.13 L2233.84,2041.27 L2235.46,2042.88 L2236.29,2045.46 L2236.13,2050.61 L2236.26,2055.8 L2238,2058.81 L2239.81,2061.37 L2243.97,2066.58 L2247.41,2071.6 L2249.58,2073.1 L2252.47,2073.62 L2255.43,2073.62 L2260.44,2073.01 L2266.29,2072.93 L2269.2,2073.41 L2272.23,2075.1 L2275.64,2075.72 L2277.36,2075.43 L2279.53,2074.45 L2281.01,2074.09 L2284.02,2075.21 L2296.35,2076.83 L2298.63,2077.7 L2301.88,2079.89 L2303.78,2081.46 L2305.34,2084.61 L2307.83,2086.06 L2311.7,2085.31 L2313.64,2087.31 L2315.76,2088.79 L2319.39,2090.62 L2324.06,2091.43 L2327.42,2090.76 L2329.53,2089.95 L2330.98,2089.42 L2332.46,2088.71 L2333.99,2087.98 L2334.86,2087.23 L2338.87,2083.33 L2345.41,2078.47 L2348.97,2075.62 L2352.58,2073.21 L2354.76,2072.76 L2357.57,2072.66 L2359.75,2073.46 L2361.44,2074.61 L2364,2075.93 L2366.47,2077.06 L2367.88,2077.09 L2368.68,2076.88 L2370.9,2075.83 L2372.63,2073.69 L2374.46,2070.18 L2377.85,2067.52 L2379.65,2066.75 L2391.91,2063.49 L2395.02,2063.21 L2401.53,2063.49 L2403.47,2063.32 L2404.23,2063 L2405.34,2062.17 L2408.69,2058.59 L2411.36,2057.87 L2413.5,2053.82 L2416.49,2051.04 L2418.39,2048.04 L2420.01,2046.37 L2421.68,2044.43 L2424.44,2043.32 L2431.57,2040.33 L2433.87,2038.28 L2436.38,2034.89 L2437.47,2032.61 L2439.08,2030.51 L2439.8,2027.84 L2441.14,2022.9 L2442.04,2021.11 L2444.09,2018.17 L2449.9,2012.6 L2452.08,2009.8 L2453.04,2007.52 L2451.51,2004.48 L2451.93,1999.12 L2454.24,1994.42 L2454.58,1991.28 L2455.8,1989.37 L2456.68,1987.99 L2457.09,1980.59 L2457.66,1978.62 L2458.48,1977.6 L2459.75,1976.69 L2461.82,1975.56 L2466.4,1974.33 L2467.79,1973.51 L2469.87,1972.71 L2471.31,1970.3 L2472.19,1968.93 L2473.08,1964.7 L2473.67,1962.89 L2474.66,1961.75 L2476.78,1960.39 L2478.4,1958.49 L2478.83,1957.09 L2478.81,1956.26 L2478.25,1951.99 L2478.59,1949.66 L2479.53,1947.41 L2480.77,1946.72 L2482.21,1946.42 L2487.43,1946.68 L2494.21,1944.74 L2495.58,1943.99 L2498.49,1941.02 L2498.57,1937.12 L2498.85,1935.72 L2499.46,1934.81 L2501.95,1932.61 L2506.47,1930.02 L2509.82,1927.84 L2511.6,1926.78 L2513.09,1925.52 L2513.42,1924.09 L2513.53,1922.56 L2513.29,1921.7 L2512.55,1921.07 L2510.99,1920.71 L2506.77,1921.92 L2503.8,1921.37 L2501.34,1919.9 L2500.28,1918.7 L2499.85,1917.91 L2499.47,1916.28 L2499.51,1912.5 L2500.15,1909.39 L2501.39,1905.54 L2502.63,1903.4 L2506.44,1900.88 L2511.5,1900.07 L2512.66,1899.49 L2513.45,1898.82 L2514.63,1897.41 L2514.75,1896.78 L2514.51,1891.08 L2515.24,1886.62 L2515.9,1884.84 L2517.04,1883.25 L2518.17,1882.29 L2520.24,1881.98 L2521.07,1882.03 L2523.07,1882.22 L2524.33,1883.38 L2526.87,1886.26 L2528.77,1891.6 L2529.87,1896.57 L2530.69,1897.7 L2532.98,1900.05 L2533.51,1900.46 L2534.83,1900.96 L2538.87,1900.5 L2542.16,1899.65 L2545.26,1897.88 L2549.16,1894.06 L2552.73,1892.76 L2556.47,1892.18 L2559.06,1892.2 L2563.58,1892.56 L2566.26,1894.01 L2567.35,1895.03 L2568.24,1896.34 L2569.61,1897.28 L2569.59,1898.11 L2569.24,1899.48 L2567.96,1900.51 L2567.01,1901.54 L2565.94,1903.02 L2565.65,1904.81 L2566.38,1906.45 L2567.1,1907.9 L2567.73,1908.34 L2569.26,1908.69 L2571.3,1908.62 L2574.04,1907.39 L2574.76,1906.99 L2576.22,1905.61 L2580.27,1899.94 L2584.36,1894.93 L2587.32,1891.66 L2589.21,1890.85 L2593.59,1891.02 L2596.6,1892.13 L2599.25,1891.56 L2603.43,1889.18 L2606.36,1887.04 L2608.77,1885.99 L2616.31,1881.87 L2620.96,1879.33 L2625.68,1876.15 L2629.41,1873.72 L2631.24,1871.56 L2636.68,1864.69 L2640.79,1860.4 L2643.24,1858.48 L2646.15,1856.55 L2656.93,1849.95 L2658.56,1848.57 L2660.19,1846.56 L2661.47,1844.55 L2662.75,1839.18 L2665.96,1834.91 L2667.83,1833.09 L2668,1831.25 L2667.75,1828.71 L2664.68,1826.51 L2664.61,1824.22 L2666.59,1821.48 L2668.53,1819.88 L2671.44,1818.23 L2674.31,1816.41 L2679.52,1813.72 L2681.19,1812.7 L2683.16,1811.95 L2685.54,1811.49 L2687.41,1811.2 L2690.16,1811.35 L2694.39,1814.09 L2699.92,1815.04 L2703.07,1815.82 L2706.78,1815.26 L2711.88,1813.1 L2715.68,1811.33 L2720.35,1807.88 L2723.93,1805.63 L2725.27,1803.82 L2728.55,1803.08 L2733.13,1801.83 L2740.15,1796.03 L2741.84,1794.43 L2742.71,1792.82 L2745.94,1782.01 L2746.61,1778.95 L2747.93,1777.26 L2750.12,1776.1 L2751.67,1775.69 L2753.47,1775.66 L2756.73,1775.95 L2761.03,1776.77 L2767.69,1777.55 L2776.83,1778.25 L2787.22,1777.08 L2790.82,1777.11 L2795.56,1776.85 L2796.8,1776.69 L2799.86,1775.83 L2805.01,1775.8 L2806.31,1775.02 L2806.71,1774.49 L2807.04,1773.75 L2807.28,1771.05 L2807.11,1768.96 L2807.77,1761.89 L2808.64,1760.2 L2810.16,1758.19 L2812.04,1757.43 L2813.47,1756.54 L2817.23,1755.11 L2819.67,1754.54 L2820.79,1753.58 L2823.65,1749.68 L2826.1,1748.76 L2826.64,1748.12 L2826.93,1746.83 L2825.35,1739.92 L2825.49,1738.46 L2826.16,1737.13 L2829.89,1734.22 L2832.98,1732.81 L2837.48,1728.84 L2840.16,1725.94 L2842.37,1724.09 L2845.44,1722.74 L2846.25,1721.58 L2846.05,1719.88 L2845.3,1718.78 L2841.42,1715.18 L2838.52,1711.68 L2837.58,1709.06 L2838,1707.42 L2838.94,1703.92 L2840.45,1702.67 L2841.11,1702.16 L2841.76,1701.65 L2843.19,1700.58 L2840.93,1700.33 L2840.46,1699.69 L2840.26,1699.46 L2839.88,1699.35 L2839.51,1698.79 L2838.9,1698.22 L2838.47,1698.3 L2837.27,1699.67 L2836.28,1701.42 L2835.42,1702.35 L2833.88,1702.52 L2833.1,1703.14 L2832.27,1703.98 L2829.2,1705.2 L2828.33,1705.69 L2827.15,1705.99 L2826.57,1705.94 L2825.58,1705.55 L2824.87,1704.49 L2824.45,1703.44 L2822.98,1702.48 L2822.29,1702.37 L2820.52,1703.22 L2820.02,1703.06 L2819.56,1702.68 L2819.17,1702.17 L2818.99,1701.55 L2819.02,1700.65 L2820.55,1698.65 L2820.6,1698.04 L2820.05,1697.31 L2819.6,1696.82 L2818.97,1696.31 L2818.3,1695.8 L2816.84,1696.05 L2815.59,1695.52 L2815.16,1694.77 L2811.48,1692.93 L2810.67,1691.72 L2809.86,1690.21 L2809.48,1689.86 L2808.41,1689.91 L2807.39,1690.16 L2806.67,1690.14 L2805.78,1690.03 L2804.45,1689.19 L2803.56,1689.17 L2803.1,1688.87 L2802.57,1688.11 L2802.18,1687.56 L2801.7,1686.59 L2801.21,1686.22 L2800.38,1686.03 L2799.55,1686.25 L2798.76,1687.25 L2798.11,1687.5 L2797.25,1687.66 L2796.56,1687.5 L2795.82,1687.13 L2795.33,1686.86 L2794.72,1686 L2794.1,1685.74 L2793.59,1685.3 L2792.78,1684.99 L2791.73,1684.52 L2791.35,1684.01 L2791.45,1683.13 L2791.27,1682.24 L2790.11,1680.94 L2789.21,1680.6 L2787.73,1679.45 L2787.01,1679.21 L2786.09,1679.02 L2785.29,1678.76 L2784.56,1678.42 L2783.68,1677.95 L2783.01,1677.92 L2781.86,1677.55 L2780.46,1676.33 L2779.13,1675.67 L2778.78,1675.06 L2778.62,1673.96 L2778.81,1672.59 L2778.32,1671.83 L2777.81,1671.09 L2776.46,1669.6 L2774.52,1669.5 L2773.62,1668.81 L2772.6,1667.74 L2771.88,1666.4 L2771.21,1665.59 L2769.74,1664.97 L2768.24,1663.97 L2766.96,1663.26 L2766.37,1662.65 L2765.43,1661.15 L2764.86,1660.07 L2763.8,1659.84 L2763.37,1659.26 L2763.48,1658.05 L2763.05,1657.4 L2762.46,1656.86 L2761.93,1656.48 L2760.32,1655.47 L2758.93,1655.08 L2758.64,1654.72 L2758.13,1652.54 L2757.59,1651.6 L2756.92,1651.36 L2756.18,1651.58 L2754.31,1652.98 L2753.81,1652.95 L2753.44,1652.2 L2753.43,1651.54 L2753.01,1650.38 L2752.6,1649.78 L2752.29,1649.07 L2751.83,1648.63 L2751.33,1648.12 L2750.11,1647.54 L2749.62,1647 L2748.98,1646.31 L2748.45,1645.59 L2748.19,1644.73 L2748.18,1644.17 L2748.4,1643.63 L2748.51,1642.83 L2748.11,1642.2 L2747.07,1641.59 L2745.8,1640.86 L2745.59,1640.52 L2745.76,1640.18 L2746.31,1639.72 L2747.18,1639.72 L2747.82,1639.74 L2748.27,1639.81 L2749.03,1639.58 L2750.19,1639.52 L2751.98,1639.21 L2752.74,1638.1 L2752.7,1636.98 L2752.66,1635.54 L2752.49,1634.45 L2751.57,1632.62 L2751.92,1631.6 L2752.26,1630.35 L2753.2,1629.22 L2754.06,1627.88 L2754.75,1626.88 L2755.34,1625.43 L2753.65,1623.46 L2753.47,1622.94 L2752.91,1622.57 L2752.29,1622.51 L2751.7,1621.45 L2750.34,1621.47 L2749.56,1620.99 L2749.17,1620.54 L2748.67,1620.21 L2748.62,1618.92 L2748.18,1616.5 L2749.27,1614.09 L2749.5,1613.06 L2749.24,1611.33 L2749.34,1610.32 L2750.05,1609.98 L2750.92,1609.94 L2751.36,1609.49 L2752.48,1608.25 L2753.52,1607.15 L2754.54,1607.41 L2755.19,1608.59 L2755.52,1609.29 L2756.14,1609.72 L2756.07,1610.12 L2755.9,1610.98 L2756.15,1611.35 L2756.79,1611.65 L2757.09,1610.85 L2757.15,1610.12 L2757.34,1609.56 L2757.82,1609.06 L2759.53,1608.09 L2760.18,1607.63 L2760.62,1606.78 L2761.64,1607.02 L2762.74,1606.46 L2762.6,1603.51 L2762.75,1602.68 L2763.03,1601.76 L2763.47,1601.05 L2764.44,1600.72 L2765.16,1600.95 L2765.85,1600.9 L2767.7,1600.1 L2768.01,1599.61 L2768.12,1599.3 L2767.72,1598.99 L2767.06,1598.72 L2766.35,1598.07 L2765.97,1597.28 L2765.62,1596.95 L2765.56,1596.49 L2765.62,1595.65 L2765.19,1595.35 L2764.63,1594.73 L2764.75,1594.22 L2765.02,1593.51 L2765.02,1591.67 L2764.24,1590.34 L2763.86,1588.6 L2763.11,1588.11 L2762.54,1586.61 L2762.48,1585.7 L2762.65,1584.94 L2763.09,1584.83 L2763.6,1584.87 L2763.88,1584.8 L2764.43,1584.22 L2764.94,1583.21 L2766.2,1582.15 L2766.35,1581.18 L2765.74,1579.63 L2763.63,1577.05 L2759.96,1573.29 L2758.54,1570.51 L2756.99,1568.39 L2754.6,1567.7 L2751.56,1565.89 L2746.66,1564.94 L2745.6,1562.68 L2745.54,1561.1 L2746.08,1559.39 L2746.43,1558 L2749,1550.94 L2750.26,1543.9 L2750.42,1540.8 L2748.91,1536.98 L2741.5,1528.62 L2741.41,1527.51 L2741.36,1526.5 L2741.76,1525.23 L2741.55,1524.54 L2739.67,1523.42 L2739.21,1522.91 L2737.93,1520.31 L2737.31,1518.77 L2736.79,1517.27 L2736.7,1516.02 L2737.13,1515 L2738.39,1513.76 L2740.52,1510.55 L2741.59,1508.92 L2741.92,1508.71 L2743.13,1508.53 L2743.72,1507.65 L2744.03,1506.99 L2744.51,1505.34 L2744.39,1504.4 L2743.95,1503.96 L2743.35,1503.19 L2743.16,1502.45 L2743.41,1501.82 L2743.91,1501.38 L2743.98,1500.74 L2743.69,1500.03 L2743.64,1499.4 L2744.15,1498.08 L2744.67,1497.53 L2744.77,1497.24 L2744.72,1496.18 L2744.12,1495.75 L2743.64,1495.56 L2742.96,1494.98 L2741.73,1493.73 L2741.01,1492.99 L2740.65,1492.56 L2739.43,1491.49 L2738.72,1490.71 L2738.36,1490.07 L2738.3,1489.47 L2738.58,1489.27 L2739.45,1489.7 L2740.15,1489.8 L2741.2,1488.93 L2741.7,1487.56 L2741.74,1486.19 L2741.51,1484.69 L2741.15,1483.42 L2740.49,1481.94 L2739.49,1478.86 L2739.9,1477.92 L2740.76,1477.42 L2741.62,1477.14 L2742.58,1476.6 L2743.46,1474.84 L2743.58,1473.92 L2743.52,1473.07 L2743.54,1471.94 L2744.47,1470.09 L2744.37,1469.1 L2743.77,1467.96 L2743.22,1466.82 L2743.33,1465.46 L2743.71,1464.89 L2745.8,1463.86 L2746.19,1463.08 L2746.43,1462.49 L2746.64,1461.63 L2747.1,1460 L2747.02,1459.9 L2746.52,1459.45 L2746,1458.89 L2744.71,1456.93 L2743.25,1454.63 L2742.24,1452.85 L2740.18,1449.47 L2739.55,1448.18 L2738.9,1446.4 L2738.64,1445.52 L2739.14,1444.75 L2740.04,1444.65 L2742.17,1444.64 L2744.03,1443.36 L2744.41,1441.95 L2743.77,1440.83 L2742.08,1439.98 L2740.92,1439.58 L2739.15,1439.02 L2736.96,1437.7 L2735.36,1436.54 L2732.49,1433.69 L2731.62,1433.45 L2730.34,1433.33 L2729.63,1433.5 L2728.41,1433.46 L2726.78,1432.6 L2725.83,1431.93 L2725.32,1430.73 L2725.37,1430.15 L2725.75,1429.56 L2726.08,1428.78 L2726.02,1427.97 L2723.5,1425.56 L2722.5,1424.5 L2721.45,1423.46 L2720.13,1421.5 L2719.68,1420.59 L2718.66,1419.5 L2717.02,1418.14 L2715.53,1416.53 L2714.39,1415.17 L2713.81,1414.43 L2713.39,1413.8 L2712.88,1412.98 L2711.65,1410.68 L2711.19,1409.76 L2710.58,1408.93 L2709.08,1407.02 L2708.21,1406.41 L2707.07,1406.04 L2705.69,1406.05 L2704.77,1406.91 L2704.26,1407.93 L2703.08,1410.07 L2702.34,1410.88 L2700.3,1411.88 L2697.68,1412.71 L2696.21,1412.68 L2695.93,1412.56 L2695.58,1411.7 L2695.31,1409.65 L2694.96,1409.06 L2694.1,1408.66 L2693.27,1408.51 L2692.4,1407.97 L2691.78,1406.1 L2691.99,1405.19 L2690.69,1402.53 L2689.36,1400.45 L2688.89,1399.57 L2687.75,1397.85 L2685.57,1394.47 L2684.61,1393.3 L2683.73,1392.41 L2683.1,1391.78 L2682.31,1391.31 L2681.23,1390.73 L2679.14,1389.74 L2678.32,1388.89 L2678.22,1388.02 L2678.49,1386.89 L2679.42,1385.2 L2679.47,1384.35 L2678.68,1382.87 L2678.33,1382.29 L2678.03,1380.87 L2678,1380.13 L2678.46,1376.21 L2678.2,1373.88 L2677.29,1372.31 L2675.85,1371.32 L2673.21,1370.05 L2672.07,1369.32 L2670.4,1367.78 L2668.92,1365.69 L2668.59,1365.05 L2668.53,1363.48 L2668.59,1363.19 L2668.65,1361.71 L2668.46,1359.29 L2668.19,1358.66 L2667.89,1358.49 L2667.68,1358.39 L2666.97,1358.17 L2665.82,1358.42 L2664.95,1358.63 L2664.21,1358.63 L2663.26,1358.18 L2660.89,1357.37 L2659.91,1357.21 L2657.85,1357.21 L2655.64,1357.27 L2653.58,1357.76 L2652.13,1358.07 L2651.53,1358.33 L2650.58,1359.03 L2649.82,1359.9 L2648.99,1360.35 L2648.14,1360.28 L2647.02,1359.33 L2645.49,1357.25 L2646.12,1353.38 L2646.04,1349.36 L2646.11,1347.62 L2646.02,1346.75 L2646.16,1346.06 L2646.99,1344.41 L2648.33,1342.61 L2649.02,1340.73 L2651.37,1335.01 L2654.6,1330.03 L2655.91,1327.45 L2656.56,1325.61 L2657.28,1323.89 L2657.89,1321.89 L2658.21,1320.59 L2657.75,1318.99 L2657.18,1317.81 L2656,1316.69 L2654.65,1315.52 L2653.23,1314.39 L2650.95,1312.76 L2649.9,1311.77 L2649.15,1310.66 L2648.81,1309.44 L2648.99,1307.72 L2649.01,1305.72 L2649.08,1303.89 L2648.82,1301.89 L2647.32,1295.04 L2647.36,1294.15 L2647.5,1293.63 L2647.81,1293.44 L2648.66,1293.57 L2650.87,1294.29 L2651.59,1294.57 L2652.52,1294.66 L2653.34,1294.63 L2654.48,1294.22 L2656.41,1292.98 L2656.96,1292.11 L2657.45,1291.36 L2657.63,1290.78 L2657.69,1290.29 L2657.7,1289.93 L2657.56,1289.14 L2657.38,1288.64 L2656.96,1288.02 L2654.67,1286.01 L2653.67,1285.26 L2653.12,1284.93 L2652.63,1284.54 L2652.08,1284.1 L2651.58,1283.67 L2651.12,1283.18 L2648.93,1280.11 L2648.68,1279.61 L2648.57,1279.12 L2648.53,1278.5 L2648.57,1277.74 L2648.77,1277.07 L2648.97,1276.45 L2649.32,1275.89 L2649.79,1275.33 L2650.37,1274.98 L2651.03,1274.71 L2651.92,1274.53 L2652.56,1274.44 L2653.11,1274.45 L2658.04,1274.52 L2658.66,1274.57 L2659.23,1274.59 L2659.92,1274.71 L2660.48,1274.9 L2661.14,1275.16 L2661.73,1275.56 L2662.22,1275.95 L2662.75,1276.35 L2663.28,1276.75 L2663.79,1277.26 L2667.21,1281.61 L2667.65,1282.12 L2670.03,1285.93 L2670.5,1286.49 L2671.03,1286.95 L2671.61,1287.4 L2672.16,1287.66 L2672.76,1287.78 L2673.34,1287.59 L2673.89,1287.28 L2674.31,1286.9 L2674.68,1286.46 L2674.93,1285.88 L2675.1,1285.14 L2675.21,1284.57 L2675.29,1283.81 L2675.36,1283.12 L2675.32,1282.53 L2675.23,1281.97 L2675.2,1281.24 L2675.11,1280.62 L2674.99,1280.08 L2674.92,1279.47 L2674.82,1278.9 L2674.65,1278.33 L2674.36,1277.7 L2674.03,1277.03 L2673.62,1276.57 L2673.16,1276.2 L2672.68,1275.87 L2672.2,1275.5 L2671.71,1275.2 L2671.14,1274.99 L2670.63,1274.76 L2670.14,1274.44 L2669.66,1273.92 L2669.38,1273.28 L2669.03,1272.76 L2668.79,1272.33 L2668.4,1271.5 L2668.36,1270.87 L2668.03,1270.31 L2667.47,1269.96 L2666.93,1269.7 L2666.4,1269.51 L2665.86,1269.37 L2665.2,1269.21 L2661.78,1267.97 L2661.31,1267.76 L2660.8,1267.49 L2660.18,1266.73 L2659.61,1266.17 L2659.23,1265.75 L2658.89,1265.24 L2658.65,1264.69 L2658.55,1264.01 L2658.51,1263.35 L2658.51,1262.76 L2659.21,1260.17 L2659.6,1259.8 L2660.26,1259.28 L2660.73,1259.05 L2661.28,1258.7 L2661.86,1258.4 L2662.42,1258.16 L2662.48,1258.18 L2663.29,1257.97 L2664.21,1258.22 L2664.97,1258.28 L2667.46,1258.88 L2668.02,1258.92 L2668.71,1258.88 L2669.25,1258.57 L2669.63,1258.04 L2670.81,1255.11 L2673.26,1252.81 L2673.93,1252.64 L2674.6,1252.6 L2675.22,1252.6 L2675.8,1252.79 L2676.43,1253.1 L2677,1253.59 L2677.42,1254.03 L2677.84,1254.53 L2679.65,1256.4 L2680.34,1256.82 L2681.47,1257.2 L2682.72,1255.89 L2683,1254.49 L2681.86,1249.34 L2681.41,1247.46 L2679.38,1245.05 L2678.86,1244.58 L2674.7,1241.76 L2672.25,1239.67 L2669.97,1235.8 L2669.94,1233.9 L2670.13,1233.35 L2670.75,1233.06 L2671.31,1233.25 L2672.23,1234.11 L2672.75,1234.47 L2673.23,1234.86 L2676.21,1237.38 L2676.77,1237.84 L2677.31,1238.17 L2677.93,1238.43 L2681.55,1239.45 L2682.11,1239.48 L2682.9,1239.57 L2683.5,1239.45 L2684.06,1239.05 L2684.31,1238.43 L2684.44,1237.87 L2684.51,1237.3 L2684.16,1234.4 L2683.98,1233.87 L2683.7,1233.3 L2683.37,1232.67 L2680.76,1228.55 L2680.32,1228.06 L2679.74,1227.5 L2679.34,1227.03 L2678.74,1226.63 L2678.22,1226.24 L2677.68,1225.77 L2677.31,1225.35 L2676.83,1224.78 L2676.48,1224.24 L2676.45,1223.61 L2676.38,1222.95 L2676.43,1222.29 L2676.57,1221.7 L2676.87,1221.01 L2677.15,1220.51 L2677.64,1219.96 L2680.96,1218.42 L2681.63,1218.19 L2682.26,1217.95 L2682.83,1217.41 L2683.23,1216.94 L2683.51,1216.47 L2683.7,1215.9 L2683.82,1215.31 L2683.58,1214.76 L2683,1214.36 L2682.44,1214.01 L2681.84,1213.7 L2678.27,1212.6 L2677.82,1212.28 L2677.34,1211.86 L2677.01,1211.23 L2676.97,1210.62 L2677.09,1204.56 L2676.8,1204.03 L2676.35,1203.45 L2675.81,1203.03 L2675.26,1202.81 L2674.77,1202.52 L2674.26,1202.19 L2673.79,1201.84 L2673.22,1201.46 L2672.71,1201.04 L2672.23,1200.51 L2671.8,1200.1 L2671.36,1199.6 L2670.93,1199.03 L2670.4,1198.28 L2668.7,1195.53 L2668.39,1195.02 L2668.12,1194.54 L2667.81,1193.91 L2667.55,1193.37 L2667.26,1192.74 L2667.14,1192.15 L2667.03,1191.54 L2666.97,1190.97 L2667.37,1186.54 L2667.53,1185.98 L2667.74,1185.38 L2667.96,1184.8 L2668.19,1184.19 L2668.4,1183.68 L2669.16,1181.27 L2669.24,1180.68 L2669.29,1180.05 L2669.33,1179.4 L2669.16,1178.87 L2668.78,1178.25 L2668.44,1177.78 L2664.64,1172.92 L2664.17,1172.4 L2663.66,1172.07 L2663.23,1171.83 L2662.53,1171.49 L2662.11,1171.32 L2660.1,1170.69 L2659.57,1170.59 L2659.03,1170.55 L2655.81,1170.47 L2655.06,1170.34 L2654.52,1170.19 L2653.73,1169.88 L2653.15,1169.47 L2652.66,1168.96 L2652.1,1168.49 L2651.7,1168 L2651.31,1167.42 L2650.89,1166.91 L2650.55,1166.45 L2650.14,1165.96 L2649.83,1165.48 L2648.18,1162.17 L2647.86,1161.48 L2647.37,1160.89 L2646.96,1160.43 L2646.55,1160.02 L2644.22,1158.04 L2643.76,1157.58 L2643.37,1157.16 L2643.01,1156.8 L2642.54,1156.07 L2642.31,1155.35 L2642.16,1154.76 L2641.7,1152.11 L2641.61,1151.5 L2641.56,1150.86 L2641.57,1150.1 L2641.64,1149.47 L2641.88,1146.24 L2641.84,1145.67 L2641.76,1145.11 L2641.64,1144.53 L2641.31,1143.94 L2640.92,1143.5 L2640.11,1142.53 L2639.61,1141.98 L2639.29,1141.46 L2637.92,1141.26 L2636.96,1137.8 L2638.71,1133.81 L2639.16,1131.97 L2639.18,1130.9 L2638.35,1129.56 L2638.28,1128.68 L2637.16,1127.8 L2636.94,1126.84 L2635.91,1126.17 L2635.96,1124.78 L2635.58,1123.68 L2634.68,1122.85 L2633.98,1121.18 L2633.4,1120.12 L2632.39,1118.88 L2632,1117.91 L2631.47,1116.91 L2630.99,1115.67 L2630.61,1114.76 L2630.2,1113.44 L2629.94,1112.46 L2629.59,1111.09 L2629.08,1109.65 L2628.65,1108.04 L2628.58,1106.98 L2627.41,1103 L2626.06,1099.87 L2625.63,1098.03 L2625.31,1096.18 L2625.77,1094.34 L2627.05,1092.67 L2629.24,1090.52 L2630.93,1088.76 L2631.4,1087.52 L2632.09,1086.31 L2633.15,1085.05 L2635.09,1082.74 L2637.13,1079.81 L2638.91,1077.37 L2639.95,1075.06 L2640.03,1072.88 L2639.97,1069.97 L2640.71,1068.57 L2644.3,1065.57 L2646.25,1063.77 L2647.39,1060.73 L2647.34,1057.01 L2646.7,1043.51 L2646.82,1039.19 L2647.39,1036.86 L2647.83,1034.23 L2648.92,1031.81 L2650.69,1029.47 L2651.85,1028.67 L2652.9,1028.75 L2653.71,1027.74 L2655.03,1026.49 L2655.6,1025.48 L2656.68,1023.42 L2658.54,1022.09 L2660.87,1021.61 L2662.44,1021.25 L2663.94,1020.07 L2664.86,1018.54 L2664.9,1016.32 L2664.33,1014.79 L2662.36,1013.3 L2660.27,1010.96 L2659.38,1009.79 L2657.31,1006.89 L2657.39,1004.15 L2659.23,1001.7 L2660.47,999.815 L2661.68,998.939 L2662.26,996.392 L2662.01,992.088 L2662.52,989.575 L2663.38,987.386 L2664.64,985.784 L2665.32,984.182 L2665.33,982.707 L2664.96,979.618 L2665.35,977.071 L2666.91,973.926 L2667.18,973.253 L2667.15,971.78 L2666.7,969.268 L2666.45,968.244 L2666.35,967.739 L2666.4,967.398 L2666.22,965.756 L2666.53,964.249 L2666.39,962.73 L2664.37,960.015 L2663.77,957.998 L2664.66,956.062 L2665.66,954.529 L2665.98,953.561 L2665.74,950.778 L2664.29,946.583 L2662.6,944.607 L2660.81,943.314 L2660.26,941.557 L2660.6,940.213 L2661.62,938.735 L2662.69,934.957 L2662.99,933.125 L2662.09,930.418 L2662.46,925.825 L2661.86,921.788 L2661.28,919.371 L2660.19,916.372 L2658.78,913.629 L2657.49,911.048 L2655.13,907.719 L2654.42,906.794 L2653.57,905.973 L2652.14,904.635 L2649.2,902.698 L2641.67,898.463 L2637.98,897.242 L2634.91,895.695 L2634.12,895.341 L2632.32,894.537 L2629.77,893.21 L2627.91,891.954 L2627.21,891.137 L2627.18,889.681 L2627.84,887.64 L2629.03,885.795 L2629.71,884.195 L2630.38,883.007 L2630.97,881.907 L2631.51,881.036 L2632.29,879.828 L2634,877.759 L2635.82,875.937 L2638.77,875.231 L2642.44,874.303 L2643.48,874.021 L2644,873.254 L2645.53,871.52 L2650.69,865.954 L2651.96,863.695 L2652.1,860.706 L2653.21,859.424 L2653.39,858.811 L2655.05,850.36 L2654.95,846.726 L2652.21,840.184 L2651.44,837.2 L2651.48,834.215 L2652.33,831.271 L2651.68,828.971 L2649.75,822.68 L2649.05,819.43 L2647.88,817.924 L2646.05,817.137 L2645.67,815.541 L2644.5,814.36 L2642.7,813.604 L2641.61,812.687 L2640.27,812.307 L2638.52,811.345 L2638.31,810.251 L2636.22,809.39 L2634.5,808.541 L2632.66,807.561 L2630.77,806.2 L2630.51,805.498 L2628.04,803.719 L2626.31,803.571 L2622.98,803.977 L2619.42,805.461 L2617.18,805.345 L2607.49,808.726 L2602.59,809.178 L2599.34,809.136 L2597.43,809.193 L2594.69,807.62 L2590.55,805.171 L2587.63,802.973 L2586.43,801.372 L2585.57,798.884 L2583.88,795.875 L2582.28,792.712 L2581.48,790.531 L2581.27,786.975 L2581.36,783.93 L2581.47,779.724 L2580.55,775.573 L2577.29,768.089 L2573.51,762.874 L2571.75,760.043 L2571.6,758.508 L2570.93,757.428 L2569.67,754.912 L2569.26,753.856 L2568.93,752.968 L2567.89,751.253 L2567.84,747.922 L2568.72,746.894 L2570.98,744.174 L2575.44,741.771 L2578.34,740.279 L2579.89,738.301 L2582.37,736.744 L2587.21,733.574 L2588.6,731.372 L2590.76,727.629 L2591.33,726.113 L2590.83,723.107 L2591.14,721.081 L2589.73,718.661 L2588.04,714.184 L2588.04,710.716 L2589.45,707.529 L2589.58,706.601 L2589.28,706.259 L2589.07,705.534 L2588.89,704.967 L2589.62,703.744 L2590.74,702.357 L2591.91,701.977 L2592.13,701.848 L2592.61,699.861 L2593.07,698.043 L2593.82,695.333 L2594.31,693.674 L2594.76,692.177 L2595.08,691.042 L2595.38,690.168 L2597.65,686.098 L2597.87,685.9 L2599.33,685.294 L2599.98,685.056 L2600.29,685.076 L2602.82,686.158 L2603.3,686.327 L2603.62,686.357 L2606.54,685.528 L2606.99,685.379 L2607.27,685.19 L2607.94,683.642 L2608.01,683.304 L2607.42,680.336 L2607.23,679.82 L2606.92,679.542 L2604.37,678.034 L2603.23,677.388 L2602.11,676.932 L2599.39,675.969 L2599.18,675.781 L2598.23,674.46 L2597.84,673.309 L2597.35,671.542 L2597.22,670.946 L2597.13,667.006 L2597.15,666.172 L2597.32,665.795 L2599.03,663.611 L2599.37,663.055 L2599.57,662.539 L2599.89,660.315 L2599.99,659.293 L2599.9,658.559 L2598.97,655.293 L2596.88,648.573 L2596.71,648.345 L2592.31,645.615 L2591.85,645.486 L2591.42,645.536 L2590.47,646.118 L2590.2,646.181 L2590,646.111 L2589.83,645.942 L2589.43,643.739 L2589.44,643.362 L2589.56,642.845 L2589.78,642.488 L2591.67,640.94 L2592.05,640.592 L2592.25,640.334 L2592.36,639.977 L2592.45,639.282 L2592.38,635.163 L2592.46,634.835 L2592.64,634.627 L2592.96,634.399 L2593.32,634.389 L2593.76,634.557 L2596.27,637.049 L2596.53,637.297 L2598.53,638.359 L2599.03,638.409 L2599.35,638.329 L2600.63,637.327 L2600.86,637.069 L2600.94,636.731 L2600.88,631.887 L2600.99,631.55 L2601.24,631.232 L2603.26,629.773 L2603.55,629.475 L2603.65,629.187 L2603.19,626.487 L2603.04,626.041 L2602.76,625.723 L2602.43,625.564 L2599.93,625.237 L2599.43,625.078 L2598.67,624.224 L2598.64,623.906 L2598.84,622.636 L2599.09,622.259 L2599.37,622.021 L2600.71,621.534 L2600.96,621.395 L2601.07,621.217 L2601.1,620.968 L2600.69,620.413 L2600.27,619.956 L2599.47,619.519 L2599.08,619.37 L2598.75,619.082 L2598.56,618.824 L2598.36,617.871 L2598.18,617.514 L2597.84,617.306 L2597.47,617.226 L2597,617.276 L2596.48,617.613 L2595.95,618.358 L2595.8,618.775 L2595.83,620.115 L2595.75,620.452 L2595.58,620.809 L2595.27,621.087 L2594.88,621.187 L2594.54,621.087 L2592.19,618.715 L2591.73,618.427 L2591.33,618.398 L2590.49,618.537 L2590.06,618.497 L2589.57,618.129 L2589.28,617.713 L2589.24,617.296 L2589.75,615.936 L2590.07,615.34 L2590.47,614.983 L2594.31,611.698 L2594.48,611.29 L2594.47,610.933 L2593.89,609.93 L2593.62,609.633 L2591.61,608.61 L2591.3,608.392 L2591.15,608.064 L2591.26,605.811 L2591.15,605.454 L2590.71,604.911 L2589.62,604.726 L2588.19,604.813 L2586.81,605.211 L2585.3,605.236 L2583.58,604.971 L2582.2,604.616 L2580.83,604.163 L2578.88,603.04 L2577.05,601.752 L2576.45,601.303 L2576.2,600.845 L2575.73,599.338 L2575.45,598.407 L2575.51,597.941 L2575.78,597.62 L2576.44,597.138 L2578.16,595.975 L2578.87,595.445 L2579.09,595.059 L2579.08,594.399 L2578.53,592.423 L2578.59,592.083 L2578.99,591.702 L2580.04,591.028 L2581.18,589.963 L2581.65,589.665 L2582.82,589.352 L2583.32,589.033 L2583.68,588.581 L2584,588.04 L2584.27,587.761 L2585.11,587.545 L2585.86,587.166 L2587.37,586.382 L2588.85,585.614 L2589.34,585.377 L2589.77,584.937 L2589.94,584.134 L2590.04,583.114 L2590.11,582.122 L2589.97,581.45 L2589.74,580.93 L2589.43,580.413 L2589.08,580.085 L2588.47,579.779 L2588,579.638 L2587.45,579.642 L2587.07,579.838 L2586.58,580.33 L2585.78,580.844 L2585.14,581.281 L2584.84,581.275 L2584.67,581.098 L2584.43,580.613 L2583.73,579.935 L2582.86,579.342 L2581.87,578.587 L2580.91,578.031 L2580.4,577.824 L2579.84,577.771 L2579.46,577.635 L2579.19,577.468 L2579.05,577.004 L2578.91,576.284 L2578.88,575.635 L2579.04,574.086 L2579.27,572.358 L2579.51,570.56 L2579.91,568.245 L2579.75,567.421 L2579.34,566.682 L2578.37,565.231 L2577.5,564.113 L2576.8,563.362 L2576.44,563.195 L2575.81,563.185 L2574.9,563.252 L2574.14,563.2 L2573.75,563.067 L2573.35,562.816 L2572.71,562.386 L2572.4,562.121 L2571.96,561.552 L2570.05,558.715 L2569.86,558.288 L2569.74,557.871 L2569.84,557.5 L2570.21,556.999 L2570.86,556.163 L2571.33,555.663 L2572.75,554.866 L2573.21,554.503 L2573.4,554.22 L2573.79,553.375 L2574.28,552.269 L2574.74,550.729 L2574.78,550.168 L2574.31,548.73 L2573.59,546.833 L2573.39,545.934 L2573.41,545.23 L2573.55,544.801 L2573.87,543.544 L2574.34,541.822 L2574.72,541.205 L2574.89,540.999 L2575.29,540.696 L2576.53,539.743 L2577.67,538.867 L2578.36,538.228 L2578.42,537.806 L2578.32,537.284 L2578.21,536.85 L2578.13,536.405 L2578.15,535.91 L2578.26,535.476 L2578.48,534.927 L2578.59,534.433 L2578.67,533.503 L2578.69,532.491 L2578.47,531.882 L2578.14,531.423 L2576.57,529.923 L2576.25,529.399 L2576.21,528.808 L2576.33,527.339 L2576.12,526.735 L2575.39,525.767 L2574.27,524.969 L2572.89,524.002 L2571.88,523.472 L2571.36,523.311 L2570.6,523.088 L2568.33,522.409 L2567.76,522.34 L2566.17,522.559 L2565.72,522.708 L2564.62,523.755 L2564.09,524.264 L2563.68,524.494 L2563.25,524.586 L2560.36,524.517 L2559.97,524.563 L2559.69,524.851 L2559.07,527.109 L2558.86,527.593 L2558.04,528.526 L2557.69,528.676 L2557.25,528.653 L2556.85,528.422 L2556.5,528.088 L2556.24,527.316 L2556.02,526.879 L2555.65,526.51 L2554.67,526.298 L2554.09,526.188 L2553.68,526.262 L2553.4,526.429 L2552.35,527.581 L2552.25,527.904 L2552.32,528.249 L2552.94,529.286 L2553,529.643 L2552.93,529.989 L2552.49,530.473 L2552.02,530.807 L2551.56,530.899 L2548.63,529.908 L2548.08,529.275 L2547.78,527.984 L2547.78,527.455 L2548.1,526.394 L2548.13,526.015 L2548.02,525.669 L2547.29,524.978 L2546.97,524.966 L2546.74,525.116 L2545.94,525.945 L2545.77,526.325 L2546.11,527.662 L2546,527.996 L2545.67,528.192 L2545.23,528.215 L2544.37,527.604 L2544.09,527.524 L2543.8,527.743 L2543.56,528.883 L2543.79,529.424 L2544.34,530.081 L2544.41,530.381 L2544.3,530.623 L2543.87,530.915 L2543.28,530.841 L2542.58,530.404 L2542.26,530.277 L2541.9,530.334 L2539.43,531.418 L2539.18,531.488 L2538.73,531.391 L2537.88,530.525 L2537.48,530.195 L2537.29,530.13 L2537.04,530.103 L2536.51,530.157 L2535.59,530.227 L2535.3,530.211 L2535.13,530.119 L2535.03,530.011 L2534.97,529.87 L2535.02,529.718 L2535.44,529.118 L2535.81,528.371 L2535.83,528.079 L2535.77,527.537 L2535.57,527.299 L2535.33,527.196 L2535.04,527.153 L2534.59,527.261 L2534.18,527.267 L2533.77,527.007 L2533.47,526.644 L2533.43,526.433 L2533.42,526.276 L2533.49,526.141 L2533.8,525.897 L2534.59,525.403 L2534.94,525.181 L2535.05,525.046 L2535.1,524.699 L2535.06,524.228 L2534.93,523.952 L2534.63,523.714 L2533.97,523.557 L2533.62,523.352 L2533.49,523.097 L2533.45,522.745 L2534.17,519.206 L2534.22,518.895 L2534.13,518.681 L2533.95,518.566 L2533.7,518.536 L2533.38,518.585 L2533.1,518.524 L2532.95,518.417 L2532.87,518.21 L2532.74,517.468 L2532.6,516.898 L2532.2,516.086 L2531.79,515.524 L2531.11,514.213 L2531.1,513.838 L2531.13,513.756 L2531.21,513.562 L2531.41,513.378 L2532.49,512.841 L2532.64,512.698 L2532.71,512.525 L2532.7,512.335 L2532.64,512.204 L2531.73,510.854 L2531.13,509.737 L2531.15,509.327 L2531.17,509.189 L2531.35,508.374 L2531.39,508.014 L2531.32,507.914 L2531.17,507.879 L2530.92,507.889 L2530.69,507.941 L2530.26,508.063 L2530,508.057 L2529.8,507.968 L2529.62,507.668 L2529.45,507.192 L2529.5,506.752 L2530.21,505.819 L2530.34,505.604 L2530.3,505.341 L2530.08,505.038 L2526.79,501.983 L2526.3,501.746 L2525.56,501.697 L2524.82,501.949 L2524.53,502.007 L2524.36,501.944 L2524.25,501.785 L2524.24,501.592 L2524.25,501.442 L2524.64,499.76 L2524.66,499.172 L2524.39,498.541 L2524.12,497.92 L2524.09,497.727 L2524.13,497.448 L2524.26,497.158 L2524.57,496.883 L2525.57,496.464 L2525.89,496.287 L2526.1,496.018 L2526.21,495.609 L2526.19,495.313 L2526.14,495.124 L2526.04,494.988 L2525.88,494.874 L2524.97,494.621 L2524.81,494.302 L2524.84,493.84 L2524.75,493.572 L2523.99,492.898 L2523.89,492.711 L2523.87,492.553 L2523.89,491.841 L2523.83,491.702 L2523.68,491.615 L2521.99,491.529 L2521.84,491.615 L2520.22,493.147 L2520,493.149 L2519.91,493.115 L2519.78,492.887 L2519.73,492.631 L2519.65,491.291 L2519.62,490.928 L2519.51,490.662 L2517.56,488.452 L2517.36,488.176 L2517.22,487.926 L2517.16,487.623 L2517.16,487.387 L2517.44,486.274 L2517.46,486.028 L2517.42,485.85 L2517.3,485.693 L2517.12,485.583 L2515.54,485.45 L2515.33,485.369 L2515.18,485.28 L2515.05,485.142 L2514.63,484.328 L2514.32,483.681 L2514.11,483.453 L2513.89,483.327 L2513.14,483.277 L2512.87,483.221 L2511.88,482.947 L2511.13,483.126 L2510.9,483.25 L2510.77,483.425 L2510.73,483.616 L2510.82,484.58 L2510.77,484.796 L2510.6,484.988 L2509.89,485.497 L2509.56,485.653 L2508.52,485.692 L2508.29,485.819 L2508.12,486.062 L2507.11,489.058 L2506.9,489.458 L2506.7,489.669 L2505.35,490.741 L2505.03,490.95 L2504.7,491.11 L2504.33,491.159 L2503.93,491.164 L2503.74,491.118 L2501.86,490.339 L2501.6,490.16 L2500.26,488.237 L2500.19,488.046 L2500.17,487.876 L2500.21,487.683 L2500.32,487.522 L2501.34,486.686 L2501.68,486.378 L2501.8,486.191 L2501.88,486.017 L2501.92,485.805 L2501.9,485.529 L2501.85,485.314 L2501.16,484.094 L2501.11,483.906 L2501.08,483.599 L2501.21,483.007 L2501.16,482.86 L2501.03,482.726 L2500.69,482.439 L2500.52,482.342 L2500.32,482.315 L2499.7,482.407 L2499.38,482.643 L2498.93,483.254 L2498.56,483.674 L2497.73,484.098 L2497.43,484.119 L2497.13,484.055 L2495.9,483.561 L2495.43,483.447 L2494.82,483.483 L2494.19,483.654 L2493.91,483.688 L2493.66,483.659 L2493.37,483.477 L2493.13,483.188 L2493.01,482.925 L2493.06,482.601 L2493.66,481.655 L2493.66,481.324 L2493.51,481.122 L2493.21,480.905 L2492.67,480.702 L2492.08,480.692 L2491.83,480.758 L2491.61,480.977 L2491.58,481.132 L2491.51,482.058 L2491.35,482.459 L2491.07,482.942 L2491.05,483.125 L2491.08,483.488 L2491.35,484.426 L2491.33,484.809 L2491.24,485.137 L2490.74,486.165 L2490.54,486.413 L2490.33,486.544 L2488.16,487.371 L2487.65,487.389 L2487.18,487.24 L2486.84,487.07 L2486.23,486.543 L2486.07,486.257 L2486.02,486.08 L2486.03,485.904 L2486.08,485.586 L2486.24,485.384 L2486.48,485.294 L2487.35,485.371 L2487.57,485.335 L2487.77,485.219 L2487.96,484.992 L2488.04,484.76 L2488.05,484.503 L2488.01,484.306 L2487.87,484.097 L2487.7,484.023 L2486.97,483.997 L2486.74,483.913 L2486.54,483.667 L2486.5,483.499 L2486.46,482.871 L2486.42,482.654 L2486.33,482.459 L2485.61,481.782 L2485.51,481.564 L2485.49,481.303 L2485.57,481.067 L2486.03,480.289 L2486.33,479.772 L2486.52,478.468 L2486.69,478.193 L2486.96,478.044 L2487.33,477.982 L2488.62,477.94 L2488.95,477.901 L2489.19,477.839 L2489.42,477.728 L2489.59,477.619 L2489.75,477.429 L2491.49,474.954 L2491.53,474.832 L2491.53,474.662 L2490.93,472.327 L2490.91,471.995 L2490.93,471.719 L2490.99,471.472 L2491.13,471.323 L2491.33,471.197 L2492.34,470.725 L2492.68,470.501 L2492.96,470.204 L2493.23,469.816 L2493.49,469.202 L2493.59,468.82 L2493.61,468.413 L2493.51,467.902 L2493.38,467.367 L2493.15,466.367 L2492.35,463.936 L2491.99,463.447 L2491.57,463.171 L2491.21,463.015 L2490.6,462.988 L2489.97,463.01 L2489.61,462.93 L2488.93,462.647 L2488.27,462.198 L2487.79,461.766 L2487.57,461.245 L2487.59,460.689 L2487.98,459.915 L2488.3,459.373 L2488.65,458.789 L2488.9,458.598 L2489.25,458.505 L2489.99,458.664 L2491.24,458.649 L2492.54,458.134 L2493.7,458.006 L2495.06,458.044 L2495.54,458.486 L2495.76,458.581 L2496.04,458.553 L2497.36,458.189 L2499.27,457.206 L2500.67,456.612 L2502.81,455.954 L2504.21,455.408 L2504.47,455.084 L2504.42,454.76 L2504.23,454.517 L2503.76,454.258 L2503.54,454.063 L2503.38,453.571 L2503.17,452.111 L2502.67,449.575 L2501.98,447.743 L2501.62,446.015 L2500.93,443.557 L2500.89,442.671 L2501.16,442.367 L2501.68,442.256 L2502.4,442.999 L2503.45,443.345 L2504.04,443.046 L2504.54,442.461 L2504.63,441.359 L2504.51,440.747 L2503.92,440.171 L2503.79,439.431 L2503.73,437.688 L2503.53,436.081 L2503.3,435.436 L2502.81,434.871 L2502.28,434.699 L2501.6,434.745 L2500.65,435.252 L2499.96,435.851 L2499.65,436.081 L2499.22,436.139 L2498.82,435.978 L2498.56,435.482 L2498.46,434.664 L2498.19,434.249 L2497.22,434.065 L2496.42,433.823 L2495.98,433.579 L2495.81,433.074 L2495.86,432.671 L2496.27,432.199 L2496.61,431.162 L2496.54,430.632 L2496.3,430.31 L2495.77,430.033 L2495.36,428.593 L2494.86,427.257 L2494.67,426.021 L2494.26,425.022 L2493.56,423.985 L2493.39,423.455 L2493.75,422.545 L2494.55,422.038 L2494.83,421.508 L2495.19,420.414 L2495.76,419.918 L2496.55,419.227 L2497.03,418.432 L2497.61,417.257 L2498.05,416.9 L2500.42,416.209 L2501.29,415.851 L2501.64,415.456 L2501.8,414.446 L2501.76,413.513 L2501.26,411.382 L2500.5,410.426 L2499.8,409.85 L2499.33,408.213 L2500.72,406.783 L2502.5,404.889 L2503.59,403.573 L2504.35,402.611 L2504.95,401.842 L2505.33,401.449 L2505.89,401.119 L2506.91,400.61 L2508.35,400.219 L2509.85,399.879 L2510.61,398.977 L2510.96,396.832 L2511.3,396.133 L2512.11,395.433 L2513.03,395.187 L2514.03,394.919 L2516.79,393.893 L2518.46,392.959 L2521.24,390.065 L2522.92,388.374 L2524.51,386.285 L2525.32,384.266 L2526.12,381.746 L2526.53,379.494 L2526.68,378.28 L2527.39,377.709 L2529.24,377.499 L2532.31,378.374 L2532.85,378.315 L2534.84,377.51 L2535.74,377.339 L2536.47,377.172 L2537.83,375.807 L2538.61,374.593 L2540.28,373.624 L2540.8,372.573 L2540.82,371.384 L2541.36,370.552 L2542.23,370.139 L2542.76,369.89 L2544.69,369.991 L2545.8,369.822 L2546.36,369.261 L2546.81,368.107 L2547.48,367.496 L2549.09,367.444 L2549.84,367.18 L2550.78,366.804 L2551.73,365.868 L2552.39,364.764 L2553.55,363.943 L2555.68,363.319 L2556.96,362.488 L2558.07,361.277 L2558.66,359.267 L2559.51,357.559 L2560.17,356.229 L2560.45,355.101 L2560.11,353.857 L2558.17,349.844 L2558.15,348.462 L2557.79,346.959 L2557.81,344.107 L2557.82,343.067 L2558.41,341.042 L2560.18,337.307 L2545.02,317.326 L2538.4,305.666 L2532.44,293.47 L2524.48,286.102 L2474.25,259.301 L2438.42,256.267 L2409.08,262.845 L2375.5,256.427 L2328.53,235.308 L2313.71,210.744 L2311.53,207.142 L2301.86,198.488 L2295.94,216.923 L2286.68,239.907 L2280.9,249.761 L2275.54,262.837 L2271.67,272.756 L2268.05,281.724 L2263.95,291.861 L2257,305.916 L2250.36,317.464 L2247.03,323.258 L2243.82,327.284 L2242.6,329.22 L2239.71,332.279 L2239.72,333.782 L2238.66,334.614 L2238.02,334.041 L2235.22,337.878 L2230.37,347.066 L2221.04,358.835 L2215.17,366.578 L2206.3,378.133 L2198.24,387.818 L2192.17,395.039 L2192.24,396.448 L2185.7,403.659 L2179.53,410.986 L2172.45,418.077 L2163.96,426.338 L2154.82,434.56 L2144.97,442.77 L2133.91,451.66 L2123.43,458.072 L2106.63,465.578 L2101.49,468.001 L2099.69,469.525 L2085.23,478.254 L2089.06,477.634 L2108.78,466.421 L2116.94,466.878 L2105.48,471.94 L2098.16,480.048 L2098.96,480.749 L2103.78,476.004 L2116.08,469.826 L2120.94,469.685 L2117.83,473.191 L2114.88,475.001 L2111.54,477.049 L2104.2,482.614 L2094.54,487.38 L2092.61,489.035 L2091.38,491.009 L2089.48,491.937 L2089.08,493.007 L2087.99,493.967 L2088.9,494.754 L2087.08,496.604 L2087.63,497.886 L2086,498.136 L2084.62,500.204 L2084.99,500.462 L2084.25,502.044 L2084.66,502.943 L2084,504.061 L2083.74,507.397 L2081.54,508.903 L2068.23,516.171 L2055.78,522.069 L2047.44,524.535 L2039.18,527.985 L2029.65,532.992 L2027.2,533.583 L2027.24,535.882 L2025.73,536.303 L2025.39,536.398 L2023.39,537.304 L2018.01,538.221 L2010.35,542.091 L2002.16,541.263 L1997.72,540.601 L1995.33,541.025 L1992.25,543.082 L1992.12,546.796 L1992.58,548.096 L1983.37,550.7 L1982.62,551.884 L1981.71,553.316 L1981.27,552.339 L1980.61,552.515 L1974.02,554.28 L1964.85,554.498 L1961.53,556.318 L1957.49,555.942 L1957.19,554.898 L1955.23,553.996 L1949.74,555.215 L1946.34,556.653 L1949.42,553.458 L1948.7,551.032 L1947.39,549.649 L1945.26,549.336 L1949.51,547.74 L1949.8,546.396 L1947.85,544.202 L1952.18,543.301 L1955.58,540.188 L1955.35,537.687 L1954.15,536.844 L1959.5,536.167 L1966.31,532.836 L1974.65,532.346 L1975.04,532.323 L1978.96,525.561 L1976.32,523.18 L1982.95,516.122 L1982.37,511.092 L1979.95,509.648 L1979.73,509.616 L1977.42,509.277 L1977.18,507.066 L1974.96,505.707 L1967.28,507.118 L1962.83,510.548 L1957.46,511.472 L1956.97,510.428 L1958.87,509.34 L1961.55,507.812 L1960.24,506.195 L1958.33,505.239 L1953.52,506.176 L1936.63,510.677 L1920.21,511.557 L1908.28,511.308 L1902.33,513.356 L1893.06,512.768 L1889.21,514.795 L1886.48,518.946 L1880.28,520.377 L1876.53,519.99 L1872.54,518.351 L1868.15,519.386 L1862.35,523.129 L1861.26,526.765 L1858.69,527.809 L1851.79,534.626 L1848.51,538.654 L1847.76,538.018 L1850.55,533.917 L1857.11,526.428 L1859.54,521.427 L1862.25,518.522 L1864.67,517.924 L1862.89,515.119 L1864.24,514.208 L1862.4,510.821 L1862.68,507.48 L1863.89,506.615 L1863.59,505.673 L1861.57,504.745 L1859.77,505.071 L1858.54,504.399 L1854.77,510.09 L1844.81,515.934 L1841.58,523.27 L1839.79,529.234 L1836.74,530.208 L1835.14,533.765 L1835.23,537.887 L1834.78,537.965 L1832.22,538.408 L1830.89,530.719 L1827.85,530.719 L1824.28,537.899 L1821.79,540.357 L1818.32,541.76 L1814.6,541.888 L1810.03,540.538 L1807.77,540.647 L1806.17,541.477 L1801.41,543.841 L1796.54,544.815 L1789.74,545.263 L1786.23,544.283 L1783.43,542.349 L1781.7,539.729 L1779.82,533.865 L1778.37,532.466 L1775.89,532.773 L1773.5,534.546 L1771.5,538.251 L1769.45,540.427 L1770.91,537.109 L1771.82,534.534 L1773.46,532.63 L1776.24,531.58 L1779.49,531.331 L1781.77,532.749 L1783.32,534.762 L1784.51,540.929 L1786.33,543.148 L1788.9,543.969 L1794.61,543.81 L1800.26,542.462 L1806.5,539.168 L1809.46,538.89 L1812.73,539.256 L1817.87,540.511 L1820.96,539.781 L1823.07,536.812 L1824.46,532.189 L1826.71,528.299 L1827.21,522.707 L1827.43,517.863 L1829.77,512.776 L1829.96,510.68 L1832.05,507.928 L1834.73,506.319 L1836.48,505.568 L1841.13,495.828 L1843.14,493.062 L1847.74,487.947 L1850.42,487.237 L1850.93,486.289 L1849.21,485.361 L1843.39,486.551 L1840.4,488.206 L1839.78,487.037 L1845.41,484.004 L1844.71,483.183 L1840.56,482.96 L1836.44,484.744 L1818.69,501.362 L1806,510.364 L1795.6,514.431 L1785.53,515.317 L1774.72,514.681 L1768.09,516.194 L1752.69,522.396 L1747.05,523.283 L1736.37,527.271 L1733.17,527.174 L1731.02,527.976 L1729.23,529.925 L1723.99,531.93 L1719.79,532.84 L1717.82,535.518 L1717.4,538.318 L1718.13,539.603 L1719.99,539.132 L1720.07,537.985 L1721.86,535.464 L1724.59,538.771 L1727.13,539.521 L1727.21,540.338 L1731.44,542.077 L1731.17,543.154 L1730.89,544.338 L1726.4,543.473 L1726.47,546.101 L1724.91,546.027 L1724.57,543.002 L1722.27,542.171 L1721.45,540.759 L1717.8,541.873 L1710.11,542.205 L1706.57,540.017 L1685.22,565.332 L1679.85,575.977 L1674.66,588.242 L1670.71,598.412 L1667.12,607.672 L1664.73,615.235 L1659.24,631.36 L1657.23,637.089 L1652.02,651.74 L1646.25,665.625 L1642.8,672.832 L1630.24,696.297 L1626.82,701.582 L1626.58,704.175 L1625.79,706.806 L1626.16,708.825 L1625.99,710.642 L1623.55,710.94 L1622.55,710.386 L1621.07,710.526 L1617.57,714.702 L1615.12,721.605 L1610.01,733.967 L1606.99,740.677 L1597.75,758.848 L1588.86,775.21 L1581.21,788.985 L1569.8,807.999 L1564.48,816.479 L1557.82,826.03 L1551.72,835.304 L1546.97,841.987 L1536.2,857.607 L1530.21,865.907 L1517.15,883.154 L1508.8,893.231 L1496.41,907.873 L1488.17,916.599 L1481.68,922.979 L1476.14,927.473 L1472.13,930.541 L1469.51,932.174 L1467.44,933.058 L1464.77,933.808 L1462.27,933.845 L1459.92,933.852 L1457.9,934.026 L1454.33,934.772 L1451.19,934.794 L1449.82,934.517 L1448.06,933.677 L1446.93,933.238 L1445.35,933.014 L1443.39,932.728 L1441.91,932.857 L1440.6,933.337 L1439.3,934.011 L1436.22,936.242 L1434.61,937.231 L1432.19,938.007 L1429.09,938.339 L1424.81,938.395 L1420.31,938.261 L1417.58,937.78 L1414.84,936.707 L1411.05,935.317 L1407.21,934.214 L1403.43,935.826 L1401.1,937.245 L1400.37,937.709 L1392.76,944.695 L1386.86,951.671 L1380.09,961.152 L1370.37,972.361 L1363.39,981.288 L1355.55,990.488 L1349.2,997.451 L1343.92,1003.03 L1339.88,1007.4 L1334.49,1012.52 L1329.25,1015.88 L1326.31,1016.85 L1323.64,1018.06 L1318.45,1021.66 L1312.02,1024.57 L1304.56,1027.93 L1294.37,1029.05 L1290.04,1028.41 L1284.21,1027.68 L1275.95,1029.1 L1268.93,1030.95 L1261.8,1031.41 L1258.65,1031.75 L1255.12,1032.14 L1253.2,1032.01 L1251.98,1031.82 L1250.94,1031.61 L1249.46,1031.02 L1247.61,1029.99 L1245.84,1029.42 L1244.03,1029.3 L1242,1029.27 L1241.46,1029.48 L1239.21,1030.32 L1236.15,1033.23 L1231.39,1038.98 L1215.82,1054.93 L1207.34,1059.93 L1201.96,1061.23 L1188.63,1061.43 L1182.94,1063.26 L1181.62,1063.14 L1178.91,1062.9 L1174.62,1062.05 L1172.35,1063.04 L1165.25,1064.88 L1145.28,1077.46 L1133.52,1085.88 L1123.19,1096.03 L1111.3,1104.77 L1103.81,1109.83 L1095.71,1114.9 L1082.2,1124.96 L1074.08,1130.71 L1064.79,1136.33 L1054.67,1142.65 L1047.31,1147 L1041.06,1150.5 L1033.15,1156.14 L1029.58,1158.88 L1022.49,1162.54 L1016.32,1165.69 L1013.43,1166.43 L1012.26,1166.4 L1011.17,1165.83 L1009.08,1164.35 L1007.42,1163.74 L1005.32,1163.31 L1004.15,1163.53 L1002.88,1164.17 L999.146,1166.58 L995.899,1168.62 L992.609,1170.83 L990.098,1172.47 L988.595,1172.74 L987.092,1172.9 L984.129,1174.2 L981.7,1175.8 L981.639,1175.84 L980.352,1176.56 L978.397,1177.24 L976.353,1178.4 L973.553,1180.07 L971.131,1181.38 L968.758,1183.11 L967.696,1183.6 L965.997,1183.78 L963.723,1184.77 L962.147,1184.76 L960.301,1184.6 L958.244,1184.15 L956.056,1183.39 L954.025,1183.07 L952.364,1183.31 L950.312,1184.15 L948.439,1185.44 L945.901,1187.87 L943.575,1190.36 L940.768,1193.05 L938.263,1195.77 L935.104,1199.41 L933.02,1202.1 L929.926,1205.25 L925.707,1209.47 L922.867,1211.88 L920.308,1214.18 L918.762,1215.62 L915.998,1218.3 L914.476,1220.03 L910.882,1224.69 L909.48,1227.14 L907.943,1229.84 L906.765,1231.76 L902.275,1240.09 L901.172,1241.7 L899.859,1244.35 L898.263,1246.25 L896.727,1248.05 L894.475,1250.56 L893.49,1251.11 L892.148,1252.53 L890.835,1254.14 L888.896,1255.23 L887.733,1255.81 L886.465,1256.24 L885.197,1255.72 L883.617,1255.81 L881.536,1256.68 L878.053,1260.67 L877.128,1261.37 L876.323,1261.91 L871.333,1265.07 L869.754,1264.97 L868.061,1264.41 L866.761,1264.05 L865.561,1264.21 L864.437,1264.73 L862.699,1265.4 L860.576,1267.53 L859.289,1269.01 L857.637,1271 L856.051,1272.38 L855.009,1272.96 L853.431,1273.74 L851.068,1275.49 L847.639,1278.63 L846.584,1280.06 L843.862,1286.47 L838.819,1295.5 L837.245,1297.71 L832.875,1302.76 L828.557,1309 L825.009,1316.38 L823.483,1319.53 L820.289,1327.33 L815.316,1338.95 L810.096,1349.41 L803.936,1362.07 L800.704,1369.11 L796.428,1377.24 L791.934,1386.63 L785.07,1400.78 L780.919,1409.89 L777.508,1416.8 L774.935,1421.81 L773.221,1426.9 L770.793,1432.27 L767.964,1438.32 L763.411,1448.78 L759.224,1458.3 L753.544,1470.91 L746.91,1487.23 L741.097,1501.57 L739.634,1505.15 L738.452,1507.97 L737.064,1512.48 L735.307,1516.57 L732.685,1522.59 L730.718,1527.79 L729.63,1530.69 L727.973,1534.43 L726.883,1536.95 L725.727,1539.88 L724.589,1542.68 L723.169,1544.89 L722.177,1544.45 L721.461,1544.96 L722.566,1545.63 L720.515,1554.58 L718.801,1563.54 L718.491,1565.12 L717.182,1571.79 L715.76,1577.62 L714.158,1582.72 L712.974,1588.48 L711.505,1591.96 L711.357,1593.58 L711.624,1596.36 L712.232,1600.63 L713.413,1614.75 L714.215,1624.01 L714.242,1628.77 L714.108,1634.9 L713.672,1640.82 L712.399,1646.05 L710.564,1651.48 L708.849,1655.5 L707.543,1658.48 L705.183,1661.94 L702.755,1664.77 L701.214,1666.32 L698.888,1668.68 L695.353,1672.24 L691.512,1675.54 L687.675,1678.31 L684.454,1680.72 L683.087,1681.54 L680.901,1682.48 L677.834,1683.53 L675.046,1684.61 L673.652,1685.81 L672.649,1686.74 L670.453,1688.77 L667.268,1691.19 L664.544,1693.32 L662.446,1695.29 L660.393,1697.45 L658.799,1699.05 L656.392,1701.84 L653.697,1705.4 L651.932,1707.8 L650.504,1709.43 L648.621,1712.11 L646.703,1714.74 L644.811,1716.67 L643.036,1717.93 L640.671,1720.07 L638.847,1721.43 L637.85,1721.89 L636.458,1722.12 L633.279,1722.68 L629.482,1724.04 L627.483,1724.81 L625.256,1725.71 L624.049,1725.89 L622.358,1725.87 L620.775,1725.91 L619.331,1726.26 L617.566,1726.94 L615.498,1728.02 L614.13,1728.74 L612.082,1729.35 L609.975,1729.94 L608.231,1729.86 L606.715,1730.07 L604.676,1730.89 L602.14,1731.98 L600.678,1732.11 L598.974,1731.95 L596.977,1732.49 L592.964,1734.46 L589.578,1736.16 L586.678,1737.23 L582.591,1739.63 L579.003,1742.36 L575.577,1745.11 L574.006,1746.66 L571.321,1750.07 L567.882,1753.23 L564.518,1754.65 L562.377,1756.05 L560.114,1757.99 L558.259,1759.73 L556.398,1762.41 L553.02,1766.97 L550.751,1769.96 L548.413,1772.46 L546.872,1773.98 L544.302,1776.84 L542.466,1778.46 L540.165,1779.54 L537.864,1779.95 L535.699,1781.05 L532.364,1783.08 L528.457,1784.93 L526.622,1786.5 L524.362,1788.82 L521.975,1790.74 L519.31,1792.55 L516.399,1794.55 L510.522,1797.67 L501.558,1802.26 L493.6,1807.02 L489.736,1809.37 L487.524,1810.64 L484.167,1812.79 L479.876,1816.23 L477.026,1818.43 L475.131,1819.66 L473.384,1820.37 L470.784,1821.3 L468.77,1822.85 L466.146,1825.33 L463.547,1827.96 L460.769,1830.36 L458.964,1831.6 L456.296,1833.31 L444.606,1838.67 L438.131,1842.86 L429.345,1848.28 L421.634,1853.18 L415.62,1856.68 L411.055,1860.28 L400.33,1866.86 L394.943,1870.19 L392.063,1871.32 L388.818,1872.08 L385.069,1872.89 L382.623,1872.48 L381.254,1872.79 L379.206,1874.15 L375.202,1877.62 L371.991,1880.23 L368.741,1882.84 L364.637,1885.92 L362.097,1888.03 L359.367,1890.41 L356.233,1893.31 L353.463,1895.45 L351.013,1897.5 L348.316,1899.4 L345.917,1901.25 L342.764,1902.75 L340.04,1904.2 L337.828,1905.58 L335.227,1906.53 L333.758,1906.75 L331.13,1907.32 L328.99,1907.65 L327.238,1907.72 L325.325,1908.14 L323.958,1908.55 L321.338,1909.62 L319.542,1910.22 L317.862,1910.88 L316.237,1911.94 L314.963,1913.01 L314.093,1913.86 L313.418,1914.8 L312.326,1916.93 L310.785,1919.49 L309.354,1922.61 L308.1,1926 L307.103,1929.71 L306.097,1932.92 L305.072,1936.53 L303.205,1941.37 L299.956,1947.38 L297.201,1952.18 L293.991,1958.08 L292.485,1960.15 L291.702,1960.89 L290.023,1962.89 L288.814,1964.58 L286.903,1967.35 L285.902,1968.71 L284.942,1969.94 L283.375,1971.3 L280.647,1973.64 L279.337,1974.8 L278.861,1975.05 L278.61,1975.25 L277.811,1975.6 L276.288,1976.35 L274.916,1976.82 L273.898,1977.2 L272.991,1977.57 L272.402,1977.7 L270.872,1978.02 L269.326,1978.11 L267.876,1978.5 L266.516,1978.57 L264.731,1978.93 L257.992,1982.57 L255.368,1984.25 L252.498,1985.79 L251.736,1986.53 L251.152,1987.32 L250.459,1988.15 L250.09,1988.91 L249.091,1989.96 L248.201,1990.84 L247.83,1991.13 L247.508,1991.21 L246.356,1992.43 L245.794,1993.24 L245.291,1994.19 L244.147,1996.28 L242.735,2001.1 L240.37,2008.05 L238.853,2012.74 L237.016,2017.68 L235.443,2021.56 L234.804,2022.73 L234.295,2023.76 L227.673,2037.97 L226.661,2041.78 L218.747,2058.1 L217.82,2060.4 L215.531,2064.51 L213.648,2067.27 L211.553,2074.79 L211.179,2076.03 L199.321,2105.4 L198.575,2107.48 L197.355,2111.2 L197.034,2112.15 L182.538,2142.45 L181.855,2143.89 L171.372,2163.2 L170.463,2164.96 L164.783,2173.93 L163.618,2175.24 L160.039,2180.13 L158.905,2181.26 L154.781,2185.84 L153.511,2186.65 L150.116,2190.08 L145.032,2195.72 L142.922,2198.07 L142.3,2198.75 L141.093,2200.34 L140.38,2201.2 L134.443,2210.72 L128.345,2221.25 L125.287,2226.8 L122.764,2230.7 L119.043,2236.75 L115.091,2242.42 L111.575,2248.08 L108.36,2254.07 L105.472,2259.1 L101.457,2265.94 L99.0894,2268.69 L97.5151,2267.42 L94.5975,2272.02 L90.6894,2277.06 L86.2746,2280.67 L83.6981,2278.05 L80.6321,2286.61 L76.8246,2294.88 L73.9012,2299.51" vector-effect="none"/>
  </g>
  <g stroke="#000000" stroke-linejoin="bevel" stroke-linecap="square" font-style="normal" font-size="34.5833" font-family="MS Shell Dlg 2" font-weight="400" stroke-width="1" stroke-opacity="1" transform="matrix(0.999744,0,0,0.999744,0,0)" fill="none"/>
  <g stroke="#000000" stroke-linejoin="bevel" stroke-linecap="square" font-style="normal" font-size="34.5833" font-family="MS Shell Dlg 2" font-weight="400" stroke-width="1" stroke-opacity="1" transform="matrix(11.808,0,0,11.808,0,0)" fill="none"/>
  <g stroke="#000000" stroke-linejoin="bevel" stroke-linecap="square" font-style="normal" font-size="34.5833" font-family="MS Shell Dlg 2" font-weight="400" stroke-width="1" stroke-opacity="1" transform="matrix(11.808,0,0,11.808,0,0)" fill="none"/>
  <g stroke="#000000" stroke-linejoin="bevel" stroke-linecap="square" font-style="normal" font-size="34.5833" font-family="MS Shell Dlg 2" font-weight="400" stroke-width="1" stroke-opacity="1" transform="matrix(11.808,0,0,11.808,0,0)" fill="none"/>
  <g stroke="#000000" stroke-linejoin="bevel" stroke-linecap="square" font-style="normal" font-size="34.5833" font-family="MS Shell Dlg 2" font-weight="400" stroke-width="1" stroke-opacity="1" transform="matrix(1,0,0,1,0,0)" fill="none"/>
  <g stroke="#000000" stroke-linejoin="bevel" stroke-linecap="square" font-style="normal" font-size="34.5833" font-family="MS Shell Dlg 2" font-weight="400" stroke-width="1" stroke-opacity="1" transform="matrix(11.808,0,0,11.808,0,0)" fill="none"/>
  <g stroke="#000000" stroke-linejoin="bevel" stroke-linecap="square" font-style="normal" font-size="34.5833" font-family="MS Shell Dlg 2" font-weight="400" stroke-width="1" stroke-opacity="1" transform="matrix(11.808,0,0,11.808,0,0)" fill="none"/>
  <g stroke="#000000" stroke-linejoin="bevel" stroke-linecap="square" font-style="normal" font-size="34.5833" font-family="MS Shell Dlg 2" font-weight="400" stroke-width="1" stroke-opacity="1" transform="matrix(11.808,0,0,11.808,0,0)" fill="none"/>
  <g stroke="#000000" stroke-linejoin="bevel" stroke-linecap="square" font-style="normal" font-size="34.5833" font-family="MS Shell Dlg 2" font-weight="400" stroke-width="1" stroke-opacity="1" transform="matrix(11.808,0,0,11.808,0,0)" fill="none"/>
  <g stroke="#000000" stroke-linejoin="bevel" stroke-linecap="square" font-style="normal" font-size="34.5833" font-family="MS Shell Dlg 2" font-weight="400" stroke-width="1" stroke-opacity="1" transform="matrix(1,0,0,1,0,0)" fill="none"/>
 </g>
</svg>
