<?xml version='1.0' encoding='UTF-8' standalone='no'?>
<svg baseProfile="tiny" version="1.2" xmlns:xlink="http://www.w3.org/1999/xlink" viewBox="0 0 2952 2952" width="249.936mm" height="249.936mm" xmlns="http://www.w3.org/2000/svg">
 <title>Qt SVG Document</title>
 <desc>Generated with Qt</desc>
 <defs/>
 <g stroke="black" stroke-linejoin="bevel" fill-rule="evenodd" stroke-linecap="square" stroke-width="1" fill="none">
  <g stroke="#000000" stroke-linejoin="bevel" stroke-linecap="square" font-style="normal" font-size="34.5833" font-family="MS Shell Dlg 2" font-weight="400" stroke-width="1" stroke-opacity="1" transform="matrix(1,0,0,1,0,0)" fill="none"/>
  <g stroke="#000000" stroke-linejoin="bevel" stroke-linecap="square" font-style="normal" font-size="34.5833" font-family="MS Shell Dlg 2" font-weight="400" stroke-width="1" stroke-opacity="1" transform="matrix(1,0,0,1,0,0)" fill="none"/>
  <g stroke="#000000" stroke-linejoin="bevel" stroke-linecap="square" font-style="normal" font-size="34.5833" font-family="MS Shell Dlg 2" font-weight="400" stroke-width="1" stroke-opacity="1" transform="matrix(11.808,0,0,11.808,0,0)" fill="none"/>
  <g stroke="#000000" stroke-linejoin="bevel" stroke-linecap="square" font-style="normal" font-size="34.5833" font-family="MS Shell Dlg 2" font-weight="400" stroke-width="1" stroke-opacity="1" transform="matrix(0.999744,0,0,0.999744,0,0)" fill="none"/>
  <g stroke="none" font-style="normal" font-size="34.5833" font-family="MS Shell Dlg 2" font-weight="400" fill-opacity="0" transform="matrix(0.999744,0,0,0.999744,0,0)" fill="#ffffff">
   <path fill-rule="evenodd" d="M-2,-2 L2955,-2 L2955,2955 L-2,2955 L-2,-2" vector-effect="none"/>
  </g>
  <g stroke="#000000" stroke-linejoin="bevel" stroke-linecap="square" font-style="normal" font-size="34.5833" font-family="MS Shell Dlg 2" font-weight="400" stroke-width="1" stroke-opacity="1" transform="matrix(0.999744,0,0,0.999744,0,0)" fill="none"/>
  <g stroke="#000000" stroke-linejoin="bevel" stroke-linecap="square" font-style="normal" font-size="34.5833" font-family="MS Shell Dlg 2" font-weight="400" stroke-width="1" stroke-opacity="1" transform="matrix(11.808,0,0,11.808,0,0)" fill="none"/>
  <g stroke="#000000" stroke-linejoin="bevel" stroke-linecap="square" font-style="normal" font-size="34.5833" font-family="MS Shell Dlg 2" font-weight="400" stroke-width="1" stroke-opacity="1" transform="matrix(11.808,0,0,11.808,0,0)" fill="none"/>
  <g stroke="#000000" stroke-linejoin="bevel" stroke-linecap="square" font-style="normal" font-size="34.5833" font-family="MS Shell Dlg 2" font-weight="400" stroke-width="1" stroke-opacity="1" transform="matrix(11.808,0,0,11.808,0,0)" fill="none"/>
  <g stroke="#000000" stroke-linejoin="bevel" stroke-linecap="square" font-style="normal" font-size="34.5833" font-family="MS Shell Dlg 2" font-weight="400" stroke-width="1" stroke-opacity="1" transform="matrix(11.808,0,0,11.808,0,0)" fill="none"/>
  <g stroke="#000000" stroke-linejoin="bevel" stroke-linecap="square" font-style="normal" font-size="34.5833" font-family="MS Shell Dlg 2" font-weight="400" stroke-width="1" stroke-opacity="1" transform="matrix(11.808,0,0,11.808,0,0)" fill="none"/>
  <g stroke="none" font-style="normal" font-size="34.5833" font-family="MS Shell Dlg 2" font-weight="400" fill-opacity="0" transform="matrix(11.808,0,0,11.808,0,0)" fill="#ffffff">
   <path fill-rule="evenodd" d="M0,0 L250,0 L250,250 L0,250 L0,0" vector-effect="none"/>
  </g>
  <g stroke="#000000" stroke-linejoin="bevel" stroke-linecap="square" font-style="normal" font-size="34.5833" font-family="MS Shell Dlg 2" font-weight="400" stroke-width="1" stroke-opacity="1" transform="matrix(11.808,0,0,11.808,0,0)" fill="none"/>
  <g stroke="#000000" stroke-linejoin="bevel" stroke-linecap="square" font-style="normal" font-size="34.5833" font-family="MS Shell Dlg 2" font-weight="400" stroke-width="1" stroke-opacity="1" transform="matrix(11.808,0,0,11.808,0,0)" fill="none"/>
  <g stroke="none" font-style="normal" font-size="34.5833" font-family="MS Shell Dlg 2" font-weight="400" fill-opacity="0" transform="matrix(0.999744,0,0,0.999744,0,0)" fill="#000000">
   <rect y="0" x="0" width="2953" height="2953"/>
  </g>
  <g stroke="#000000" stroke-linejoin="bevel" stroke-linecap="square" font-style="normal" font-size="34.5833" font-family="MS Shell Dlg 2" font-weight="400" stroke-width="1" stroke-opacity="1" transform="matrix(0.999744,0,0,0.999744,0,0)" fill="none"/>
  <g stroke="#000000" stroke-linejoin="bevel" stroke-linecap="square" font-style="normal" font-size="34.5833" font-family="MS Shell Dlg 2" font-weight="400" stroke-width="1" stroke-opacity="1" transform="matrix(0.999744,0,0,0.999744,0,0)" fill="none"/>
  <g stroke="#5c5c5c" stroke-linejoin="bevel" stroke-linecap="square" font-style="normal" font-size="34.5833" font-family="MS Shell Dlg 2" font-weight="400" stroke-width="3.07087" fill-opacity="1" stroke-opacity="1" transform="matrix(0.999744,0,0,0.999744,0,0)" fill="#c5c5c5">
   <path fill-rule="evenodd" d="M1989.95,2358.25 L2023.45,2389.89 L2049.93,2422.71 L2063.56,2437.55 L2074.59,2447.82 L2085.49,2449.76 L2099.55,2462.67 L2128.01,2471.25 L2158.82,2489.6 L2181.86,2509.17 L2207.99,2522.44 L2227.11,2528.68 L2263.72,2522.76 L2271.82,2517.1 L2283.13,2496.98 L2283.55,2493.83 L2291.83,2526.92 L2293.81,2530.79 L2295.7,2533.02 L2298.76,2535.33 L2303.45,2537.78 L2307.14,2540.02 L2307.99,2540.54 L2310.63,2543.61 L2313.05,2547.23 L2314.38,2549.71 L2315.35,2553.83 L2315.73,2565.97 L2315.74,2566.15 L2316.62,2570.17 L2320.26,2581.45 L2322.77,2586.92 L2322.81,2586.99 L2324.6,2592.57 L2328.23,2598.66 L2328.24,2598.67 L2328.3,2598.74 L2333.03,2604.6 L2336.33,2608.68 L2340.62,2612.85 L2341.16,2613.38 L2341.6,2613.81 L2347.36,2617.14 L2348.35,2618.42 L2349.85,2619.72 L2355.66,2624.73 L2358.15,2627.25 L2364.88,2634.07 L2365.19,2634.48 L2368.2,2638.5 L2369.08,2639.67 L2370.24,2643.76 L2369.88,2649.6 L2369.83,2650.32 L2368.48,2657.82 L2368.41,2658.19 L2368.57,2662.47 L2368.64,2664.49 L2367.65,2671.57 L2365.31,2679.44 L2360.78,2689.32 L2360.62,2689.6 L2359.73,2691.12 L2356.74,2696.2 L2354.07,2699.11 L2351.92,2701.44 L2348.64,2703.84 L2345.74,2705.96 L2343.57,2706.78 L2339.29,2708.39 L2332.85,2711.19 L2317.83,2714.28 L2314.19,2715.26 L2312.4,2715.73 L2308.96,2718.01 L2305.05,2720.6 L2299.83,2724.57 L2295.67,2727.73 L2291.05,2733.2 L2287.2,2737.76 L2286.95,2738.17 L2283.92,2743.12 L2282.21,2745.91 L2281.44,2746.62 L2279.17,2748.69 L2276.2,2750.69 L2272.44,2752.36 L2252.51,2759.9 L2246.1,2761.47 L2241.22,2762.66 L2236.72,2762.66 L2233.55,2762.66 L2226.26,2760 L2218.31,2758.12 L2210.24,2755.54 L2194.47,2749.55 L2189.15,2748.04 L2188.72,2747.91 L2179.05,2740.45 L2171.7,2734.26 L2164.31,2729.59 L2156.09,2725.62 L2149.28,2723.71 L2143.7,2723.14 L2143.6,2723.13 L2142.89,2723.05 L2139.36,2723.28 L2137.27,2724.61 L2123.82,2733.15 L2117.75,2736.3 L2116.59,2736.9 L2115.39,2737.64 L2107.6,2742.47 L2099.24,2750.3 L2091.58,2756.5 L2081.65,2761.06 L2075.97,2763.1 L2074.87,2763.49 L2071.68,2764.08 L2068.28,2764.72 L2068.25,2764.71 L2064.1,2764.25 L2063.4,2764.18 L2063.27,2764.16 L2057.62,2764.16 L2052.73,2764.56 L2051.4,2764.67 L2050.88,2764.71 L2046.98,2765.3 L2044.17,2765.72 L2036.29,2765.5 L2036.13,2765.49 L2036.13,2765.49 L2035.86,2765.41 L2028.37,2763.17 L2026.96,2762.28 L2024.52,2760.72 L2020.56,2757.62 L2018.43,2755.95 L2017.73,2755.56 L2017.08,2755.2 L2012.03,2752.4 L1998.27,2748.74 L1995,2747.87 L1990.18,2746.29 L1986.77,2744.81 L1979.19,2741.53 L1967.88,2736.64 L1955.13,2732 L1952.17,2730.68 L1946.68,2728.25 L1944.58,2727.32 L1937.82,2723.28 L1931.91,2719.34 L1926.02,2711.59 L1925.75,2711.24 L1925.4,2710.78 L1921.93,2704.87 L1918.35,2700.94 L1917.56,2700.08 L1912.14,2694.38 L1906.18,2690.77 L1905.56,2690.39 L1899.07,2689.32 L1893.85,2688.8 L1890.9,2688.5 L1884.62,2685.19 L1879.14,2681.03 L1876.29,2678.88 L1874.96,2677.67 L1856.83,2661.25 L1856.29,2660.76 L1852.74,2654.89 L1851.58,2652.97 L1850.4,2651.02 L1847.15,2643.69 L1846.69,2641.4 L1842.63,2621.4 L1842.63,2621.39 L1839.54,2615.23 L1838.81,2613.77 L1833.02,2606.3 L1832.41,2605.51 L1830.99,2603.44 L1826.59,2597 L1822.45,2587.27 L1819.35,2577.35 L1819.34,2577.3 L1819.22,2574.11 L1818.88,2564.46 L1817.95,2560.21 L1817.61,2558.65 L1816.48,2553.45 L1816.43,2553.3 L1811.81,2540.75 L1810.97,2538.04 L1803.55,2529.34 L1803.3,2529.06 L1803.3,2529.06 L1794.27,2523.19 L1783.38,2519.17 L1766.53,2517.43 L1761.34,2515 L1753.76,2512.33 L1749.32,2513.65 L1743.61,2513.55 L1738.81,2511.75 L1721.91,2505.44 L1710.99,2503.89 L1703.79,2504.21 L1700.74,2504.35 L1692.1,2502.35 L1686.89,2499.8 L1685.71,2498.87 L1680.97,2495.12 L1678.17,2493.93 L1674.02,2491.27 L1668.25,2491.45 L1661.97,2491.85 L1658.48,2492.08 L1652.21,2492.48 L1628.11,2492.73 L1623.28,2493.7 L1611.38,2494.49 L1604.79,2497.41 L1604.39,2497.44 L1577.36,2499.08 L1561.15,2498.47 L1547.68,2500.14 L1539.52,2503.46 L1534.79,2506.23 L1529.6,2512.27 L1526.59,2514.53 L1513.9,2519.2 L1511.37,2519.29 L1506.02,2517.96 L1500.19,2516.2 L1485.44,2515.65 L1474.03,2510.44 L1467.94,2505.89 L1464.67,2501.76 L1462.71,2497.31 L1462.24,2496.26 L1459.09,2493.15 L1455.35,2492.82 L1452.01,2493.6 L1450.61,2494.08 L1447.49,2495.15 L1440.48,2494.26 L1434.33,2493.71 L1425.25,2490.46 L1392.15,2482.29 L1384.03,2481.85 L1343.36,2474.41 L1330,2471.1 L1317.28,2469.54 L1308.56,2468.99 L1298.32,2465.56 L1291.24,2461.22 L1284.47,2455.36 L1281.28,2451.24 L1278.37,2447.48 L1275.23,2441.84 L1272.88,2436.21 L1268.64,2431.21 L1261.86,2426 L1232.15,2408.71 L1226.46,2404.62 L1212.13,2390.16 L1210.15,2386.01 L1203.66,2381.58 L1188.43,2376.6 L1172.81,2374.04 L1165.57,2372.47 L1160,2371.27 L1148.57,2363.62 L1140.18,2356.78 L1136.7,2353.02 L1135.98,2352.24 L1130.21,2346.35 L1121.75,2340.37 L1113.03,2337.05 L1100.71,2336.17 L1100.65,2336.18 L1089.83,2337.62 L1114.16,2286.75 L1114.4,2286.81 L1115.12,2284.66 L1388.06,1691.67 L1392.35,1682.38 L915.375,1576.22 L911.232,1570.29 L506.455,991.209 L308.05,149.538 L313.957,150.334 L325.578,149.67 L335.153,147.09 L337.951,144.727 L339.856,141.701 L341.516,134.396 L343.991,128.934 L348.489,125.1 L356.458,120.783 L361.106,122.111 L365.091,124.435 L369.075,131.076 L368.577,136.007 L361.106,143.029 L360.774,148.674 L363.592,152.949 L370.189,155.913 L381.029,156.643 L383.507,158.215 L384.545,161.722 L382.689,167.6 L371.239,187.389 L371.432,190.534 L372.283,194.868 L376.38,199.808 L384.379,203.767 L393.929,206.009 L395.956,205.468 L399.623,202.464 L402.943,193.499 L403.939,188.851 L409.584,185.862 L417.42,187.345 L421.117,191.954 L420.497,197.394 L416.622,205.551 L417.075,211.091 L423.529,217.738 L433.822,222.054 L443.451,221.722 L450.092,215.081 L455.143,213.267 L461.049,215.081 L462.568,217.319 L462.377,220.062 L458.927,223.166 L452.438,227.579 L451.907,230.82 L452.584,233.478 L455.737,235.668 L464.37,237.992 L466.03,241.976 L466.443,248.899 L461.049,255.922 L441.538,269.796 L435.59,273.901 L434.594,278.548 L435.537,283.879 L436.048,288.58 L438.57,293.761 L447.768,296.431 L453.412,296.762 L467.161,289.325 L470.704,288.901 L473.436,289.448 L477.547,292.912 L479.734,298.166 L479.723,300.65 L478.647,303.735 L467.026,312.7 L462.834,314.747 L461.049,318.013 L461.049,325.982 L463.248,330.475 L466.362,334.283 L470.229,338.318 L473.186,339.149 L476.338,337.867 L478.315,333.618 L478.647,324.654 L481.968,320.669 L488.276,314.028 L496.245,314.028 L501.544,314.785 L505.131,315.852 L509.195,320.337 L508.199,326.646 L500.23,339.263 L500.894,346.236 L501.572,351.761 L505.015,363.758 L506.977,363.473 L508.035,361.843 L512.43,350.436 L517.946,344.79 L523.697,343.162 L526.991,343.824 L532.419,345.111 L543.144,343.245 L545.566,343.599 L549.039,354.205 L552.249,357.435 L555.68,358.853 L559.285,362.347 L560.541,365.247 L560.057,368.525 L559.5,370.735 L559.693,373.48 L560.873,375.883 L562.321,377.115 L567.608,377.32 L571.95,378.776 L574.258,380.795 L574.601,383.133 L574.156,385.9 L573.121,389.14 L572.088,390.954 L567.633,398.698 L566.969,405.671 L567.575,409.473 L569.204,412.204 L574.938,414.968 L578.59,418.288 L588.219,431.569 L591.25,433.664 L595.524,434.89 L613.008,432.19 L622.482,434.78 L627.182,436.205 L631.384,435.222 L637.029,428.913 L639.78,425.545 L647.5,425.197 L652.635,420.28 L652.924,412.482 L654.96,409.948 L657.415,409.527 L662.282,411.038 L672.225,414.304 L681.571,414.125 L686.298,415.977 L687.166,419.948 L687.166,423.933 L681.522,440.202 L685.838,449.831 L689.99,454.19 L691.748,455.02 L694.803,454.148 L701.776,444.519 L705.428,443.191 L712.363,441.927 L718.73,442.715 L732.285,449.341 L738.706,448.09 L746.933,444.187 L757.4,444.518 L761.543,445.847 L761.666,448.645 L761.21,450.827 L755.566,456.804 L739.673,468.118 L738.186,471.05 L737.785,473.559 L738.964,476.726 L742.191,477.579 L749.458,474.726 L756.562,474.07 L769.556,474.437 L775.677,476.599 L779.671,479.085 L779.676,482.946 L772.5,487.02 L768.567,488.564 L760.764,496.159 L759.923,499.78 L760.879,502.625 L765.527,509.266 L771.504,509.598 L775.989,509.511 L785.921,508.443 L790.772,502.476 L793.85,495.257 L794.925,489.448 L795.653,488.599 L797.765,488.501 L801.67,493.467 L806.699,494.656 L825.376,493.974 L828.601,492.795 L832.598,492.664 L833.422,493.246 L834.214,494.365 L830.274,507.274 L828.951,522.706 L829.745,525.361 L833.059,527.592 L836.231,527.442 L839.239,525.536 L847.986,517.264 L852.011,513.604 L856.143,512.319 L861.722,513.223 L866.134,513.914 L873.236,514.714 L877.745,516.656 L880.868,519.341 L882.011,522.032 L882.404,524.872 L881.768,526.159 L879.083,528.192 L877.606,528.066 L873.34,526.644 L870.729,526.413 L869.37,527.865 L869.474,531.369 L877.091,534.501 L879.683,538.653 L881.656,545.458 L884.889,548.806 L889.045,550.438 L897.346,550.438 L902.684,550.3 L909.305,552.413 L913.561,556.286 L916.737,561.441 L917.005,567.349 L904.318,589.287 L901.848,594.204 L900.334,599.912 L900.344,605.859 L901.501,607.834 L903.551,608.425 L914.111,599.069 L921.769,593.494 L929.663,590.84 L936.858,590.947 L942.565,592.435 L944.465,593.98 L943.841,603.094 L948.643,620.26 L949.952,621.464 L951.968,621.472 L952.706,621.172 L954.862,618.624 L958.772,608.213 L965.745,603.564 L970.483,602.423 L975.042,602.568 L989.32,604.893 L992.819,603.173 L1000.27,594.863 L1004.46,590.318 L1007.04,589.765 L1009.24,590.283 L1011.51,592.123 L1012.04,595.824 L1012.56,601.24 L1013.89,610.537 L1018.87,618.174 L1022.19,618.174 L1023.46,616.816 L1022.47,614.042 L1021.53,611.201 L1018.9,608.736 L1017.43,606.131 L1016.43,601.463 L1018.32,595.601 L1021.15,593.129 L1023.96,592.637 L1025.96,593.212 L1027.81,594.6 L1028.33,604.922 L1030.33,609.14 L1033.19,610.123 L1035.02,609.893 L1037.88,606.9 L1039.11,603.891 L1041.16,596.978 L1044.74,588.62 L1044.77,584.638 L1041.3,576.808 L1040.53,572.908 L1041.72,570.239 L1043.81,566.634 L1048.14,565.41 L1052.83,565.817 L1057.06,572.353 L1058.72,579.658 L1057.99,596.131 L1059.05,601.572 L1062.37,604.228 L1070.67,608.545 L1072.2,608.042 L1073.66,606.221 L1070.74,598.757 L1069.64,594.065 L1070.6,590.601 L1073.63,588.915 L1077.31,589.287 L1086.94,595.263 L1097.56,599.248 L1100.48,600.297 L1102.55,599.68 L1104.43,594.209 L1107.86,590.615 L1118.9,586.381 L1121.56,584.568 L1123.06,582.421 L1123.39,576.86 L1118.48,564.384 L1117.49,553.427 L1119.27,548.761 L1122.79,545.87 L1126.12,544.13 L1132.76,544.13 L1134.85,544.791 L1137.08,546.786 L1137.28,550.726 L1137.08,555.087 L1139.41,560.168 L1146.37,563.056 L1161.65,563.056 L1172.72,566.564 L1174.24,566.549 L1175.75,566.341 L1177.02,565.221 L1177.3,561.936 L1175.92,558.407 L1168.95,550.438 L1167.57,549.191 L1166.47,546.811 L1167.51,543.399 L1169.2,540.988 L1171.8,540.156 L1173.19,540.538 L1173.93,541.142 L1176.26,542.802 L1193.35,570.955 L1194.83,572.445 L1196.45,573.329 L1198.07,573.555 L1199.01,572.913 L1199.5,572.149 L1199.78,568.849 L1195.71,563.316 L1194.76,559.717 L1195.14,556.083 L1196.16,553.63 L1198.42,551.254 L1201.26,549.832 L1204.23,550.005 L1210.46,551.767 L1225.21,555.815 L1229.44,554.532 L1232.08,552.616 L1233.72,549.607 L1234.36,545.79 L1233.74,543.694 L1232.37,541.196 L1230.06,540.85 L1228.05,541.474 L1225.23,544.881 L1221.1,547.197 L1217.43,547.45 L1214.53,546.728 L1211.78,544.462 L1210.9,542.827 L1210.97,540.284 L1212.69,537.833 L1214.44,536.825 L1224.07,533.837 L1227.92,530.95 L1228.26,529.544 L1228,528.32 L1225.37,522 L1225.8,519.139 L1226.66,516.487 L1228.88,513.585 L1243,507.274 L1244.26,507.032 L1248.17,505.088 L1253.55,505.152 L1254.86,504.345 L1255.28,503.983 L1255.95,501.961 L1254.13,493.502 L1254.2,491.654 L1256.02,490.397 L1262.64,491.249 L1265.39,491.169 L1265.6,491.074 L1267.45,490.268 L1268.61,488.273 L1268.65,486.249 L1268.14,484.232 L1266.24,482.039 L1256.94,477.391 L1254.69,475.597 L1252.96,472.41 L1251.96,463.469 L1252.43,462.071 L1253.59,460.996 L1254.58,460.666 L1255.63,461.061 L1259.18,463.874 L1260.39,464.464 L1262.14,464.589 L1264.71,463.112 L1267.33,456.192 L1269.23,451.492 L1272.19,449.395 L1274.49,448.441 L1276.84,448.927 L1278.27,450.504 L1279.19,452.82 L1279.69,458.764 L1282.51,462.117 L1285.81,462.412 L1287.7,461.704 L1289.27,460.978 L1290.54,459.425 L1292.49,454.248 L1293.33,452.863 L1294.09,451.513 L1295.69,449.616 L1296.48,447.782 L1296.68,446.295 L1295.13,443.923 L1294.01,442.932 L1291.86,441.657 L1288.68,440.728 L1282.62,439.209 L1279.88,438.695 L1276.46,436.77 L1273.54,431.569 L1273.05,428.241 L1273.48,425.915 L1277.22,423.063 L1279.12,421.164 L1280.85,417.292 L1281.18,408.659 L1281.7,406.077 L1283.84,403.014 L1287.01,400.246 L1289.77,397.22 L1291.82,394.317 L1293.15,391.408 L1293.64,389.247 L1293.49,387.506 L1292.27,386.514 L1289.84,386.504 L1287.34,387.348 L1281.18,389.733 L1276.2,389.401 L1270.89,383.092 L1259.93,364.166 L1258.27,358.189 L1259.27,339.927 L1262.59,336.607 L1265.92,336.283 L1269.89,337.603 L1275.2,342.916 L1275.87,357.857 L1277.74,361.011 L1279.78,361.728 L1282.48,360.7 L1284.26,358.088 L1286.49,352.005 L1288.77,347.697 L1291.35,343.368 L1292.78,341.451 L1294.62,340.062 L1296.26,339.278 L1298.05,339.402 L1299.3,339.975 L1300.32,341.266 L1300.4,343.142 L1298.89,349.15 L1298.51,352.671 L1298.59,355.211 L1299.21,357.872 L1300.75,360.29 L1302.59,362.236 L1305.02,363.218 L1308.46,363.541 L1313.25,362.83 L1317.06,361.759 L1321.49,359.414 L1322.65,358.003 L1323.02,355.998 L1321.98,353.555 L1320.68,351.933 L1318.7,350.884 L1313.75,346.02 L1311.33,342.472 L1308.81,337.549 L1307.08,332.954 L1304.75,321.997 L1304.26,318.205 L1305.67,314.172 L1308.25,311.338 L1311.13,310.456 L1316.19,313.748 L1319.01,315.904 L1321.2,318.621 L1322.37,320.69 L1323.37,323.282 L1325.91,330.647 L1327.37,333.249 L1329.26,335.752 L1332.35,337.91 L1336.63,339.595 L1339.29,339.734 L1341.3,338.809 L1342.66,336.698 L1343.68,333.438 L1344.12,329.952 L1343.86,326.708 L1342.94,323.325 L1340.75,319.017 L1336.3,307.388 L1337.29,298.755 L1344.27,293.774 L1351.24,293.774 L1359.55,295.867 L1364.89,296.318 L1370.17,295.434 L1382.12,293.442 L1385.44,287.465 L1386.1,277.504 L1379.79,256.918 L1382.12,249.945 L1386.77,245.297 L1394.4,238.988 L1394.4,232.347 L1388.43,225.375 L1387.1,218.402 L1391.08,213.089 L1399.39,208.773 L1405.03,202.796 L1407.35,188.851 L1409.68,174.241 L1420.3,168.928 L1434.25,161.624 L1447.2,173.577 L1455.17,171.585 L1462.47,160.628 L1472.43,155.315 L1481.07,153.655 L1487.13,153.156 L1496.32,152.922 L1498.79,152.15 L1500.99,150.666 L1501.53,148.269 L1501.69,146.113 L1501.32,144.026 L1498.35,136.761 L1497.9,134.409 L1497.94,131.128 L1499.23,125.589 L1501.49,117.929 L1503.13,114.05 L1505.15,110.852 L1507.29,109.18 L1509.95,108.014 L1512.9,107.675 L1516.13,109.017 L1519.82,110.387 L1528.31,112.898 L1534.17,113.969 L1538.07,114.535 L1541.9,114.221 L1544.52,113.338 L1547.11,111.591 L1549.06,109.21 L1552.78,103.491 L1554.66,99.5717 L1556.06,98.0736 L1556.67,97.7903 L1557.46,97.425 L1558.36,97.1933 L1559.6,96.8757 L1563.23,96.3271 L1567.97,95.8934 L1572.38,95.8802 L1575.65,96.181 L1578.99,97.316 L1581.69,98.5924 L1584.7,99.3569 L1588.4,99.7503 L1592.11,99.6642 L1599.6,98.5365 L1602.1,99.1309 L1603.72,99.7263 L1605.07,100.477 L1606.06,101.455 L1607.46,103.266 L1611.79,109.594 L1613.53,113.172 L1615.21,117.795 L1615.69,121.14 L1616.08,126.385 L1616.26,130.223 L1616.59,133.679 L1617.27,136.78 L1618.17,139.708 L1619.92,142.715 L1621.99,145.652 L1624.48,148.014 L1626.92,149.904 L1630.24,151.185 L1633.6,151.724 L1636.61,151.934 L1641.08,151.693 L1644.66,150.86 L1649.33,149.014 L1650.57,148.6 L1652.18,148.286 L1653.68,148.197 L1655.13,148.263 L1656.57,148.543 L1657.83,148.901 L1659.1,149.383 L1660.06,150.112 L1660.86,150.997 L1661.9,152.806 L1662.7,155.605 L1662.88,158.225 L1662.91,159.941 L1662.67,162.313 L1662.27,164.653 L1661.54,167.897 L1660.93,171.35 L1661.19,173.706 L1661.66,174.597 L1662.41,175.423 L1663.53,175.837 L1664.82,176.101 L1667.14,175.652 L1669.56,174.976 L1671.81,174.682 L1675.8,174.201 L1677.93,174.313 L1679.31,174.514 L1680.41,174.928 L1681.42,175.574 L1684.33,178.338 L1686.77,182.064 L1687.94,182.935 L1689.85,183.416 L1692.03,183.602 L1695.45,183.518 L1697.72,183.788 L1706.86,186.425 L1709.04,186.749 L1711.11,186.562 L1715.91,185.277 L1721.27,182.354 L1725.11,179.554 L1730.91,174.43 L1735.27,170.969 L1737.62,169.707 L1739.11,169.294 L1740.53,169.278 L1741.79,169.488 L1743.19,170.01 L1744.65,170.651 L1745.91,171.647 L1746.94,172.579 L1747.56,173.58 L1747.93,174.35 L1748.24,175.701 L1748.42,179.249 L1748.7,184.224 L1748.84,185.419 L1749.48,186.834 L1750.53,187.872 L1752.06,188.767 L1756.53,189.47 L1757.86,189.934 L1759.41,190.594 L1760.64,191.507 L1762.09,192.794 L1762.61,193.707 L1762.96,195.056 L1762.97,197.483 L1759.31,205.12 L1756.99,213.089 L1759.64,217.406 L1765.29,219.066 L1775.91,219.066 L1782.89,222.386 L1793.84,236 L1798.16,247.953 L1801.81,252.934 L1810.45,250.941 L1818.75,254.926 L1829.7,252.602 L1838.67,256.586 L1838.67,262.563 L1834.02,271.196 L1824.39,275.512 L1824.06,282.817 L1826.38,289.126 L1825.06,296.431 L1817.42,309.048 L1819.08,319.673 L1822.73,324.986 L1831.36,325.982 L1845.31,331.294 L1846.64,325.982 L1843.98,321.001 L1843.98,315.356 L1847.63,310.044 L1853.94,309.38 L1863.9,311.04 L1867.89,310.708 L1874.53,305.395 L1882.17,292.778 L1886.48,288.129 L1914.37,278.501 L1923.01,281.821 L1932.33,291.83 L1936.62,296.431 L1932.97,306.724 L1933.13,309.382 L1933.3,312.036 L1940.6,317.017 L1948.91,317.681 L1952.89,324.986 L1957.54,329.302 L1979.17,337.407 L1980.25,338.832 L1980.5,341.27 L1979.82,343.928 L1976.8,345.24 L1972.15,345.24 L1964.51,341.92 L1955.88,342.252 L1941.93,349.888 L1940.12,352.063 L1939.48,353.541 L1938.89,355.046 L1938.39,356.847 L1938.36,358.266 L1939.32,359.949 L1941.01,360.826 L1942.5,361.405 L1944.04,361.524 L1945.55,361.342 L1946.91,360.514 L1950.96,357.183 L1952.23,356.529 L1953.57,356.14 L1955.4,356.065 L1956.98,356.29 L1958.33,356.768 L1959.58,357.696 L1961.01,358.916 L1961.77,360.251 L1963.45,363.684 L1964.61,366.017 L1965.88,367.05 L1967.04,367.779 L1968.75,367.895 L1970.54,367.655 L1971.69,367.299 L1972.7,367.245 L1973.78,367.569 L1974.5,368.284 L1974.81,368.898 L1974.84,369.685 L1974.39,370.553 L1973.49,371.687 L1972.29,372.869 L1970.79,374.119 L1969.82,375.501 L1969.21,376.795 L1968.83,378.444 L1969.02,381.639 L1969.6,384.386 L1970.62,387.097 L1971.63,389.786 L1971.99,392.808 L1972.17,396.717 L1972.46,399.874 L1973.34,402.314 L1974.58,405.22 L1975.25,407.451 L1976.23,410.661 L1977.34,412.248 L1978.95,413.054 L1983.13,413.979 L1985.47,414.495 L1986.68,414.995 L1987.81,415.626 L1989.25,416.352 L1990.56,416.697 L1991.48,416.841 L1992.16,416.844 L1993.29,416.82 L1994.67,416.926 L1995.49,417.254 L1996.33,417.59 L1996.78,418.077 L1997.16,418.664 L1997.49,419.411 L1997.52,420.549 L1997.27,421.271 L1996.72,422.269 L1996.46,423.164 L1996.44,424.204 L1996.69,424.989 L1997.29,426.022 L1997.9,428.259 L2001.58,432.515 L2003.38,435.25 L2005.32,438.33 L2006.83,441.225 L2008.11,442.933 L2009.75,444.719 L2011.43,445.641 L2013.46,446.51 L2014.56,447.577 L2014.7,448.872 L2013.71,450.325 L2012.37,451.651 L2011.71,452.811 L2011.5,453.602 L2011.67,454.523 L2012.38,456.345 L2013.72,457.893 L2014.98,459.717 L2015.76,461.16 L2015.96,461.516 L2016.46,462.39 L2017.2,463.005 L2018.13,463.344 L2019.26,463.012 L2019.98,462.176 L2020.44,461.202 L2020.62,460.264 L2020.39,459.156 L2019.49,457.739 L2018.96,456.522 L2019.01,455.085 L2019.38,453.466 L2020.36,451.827 L2021.78,450.727 L2023.53,450.109 L2025.07,449.862 L2026.06,449.701 L2028.33,449.333 L2031.16,448.958 L2032.25,449.049 L2033.68,449.441 L2035.06,450.18 L2036.51,450.998 L2037.53,452.159 L2038.63,455.442 L2039.62,456.695 L2040.73,457.089 L2042.19,457.021 L2043.36,456.238 L2044.49,454.867 L2045.2,453.152 L2046.68,449.187 L2048.22,446.24 L2049.54,444.47 L2050.81,443.127 L2051.86,442.284 L2053.02,441.618 L2053.86,441.168 L2054.75,440.871 L2055.93,440.668 L2057.24,440.803 L2058.05,441.095 L2059.08,441.603 L2059.87,442.287 L2060.63,443.017 L2062.79,445.847 L2065.48,449.566 L2065.99,450.524 L2066.31,451.494 L2066.33,452.56 L2066.11,454.701 L2065.53,457.062 L2064.88,459.098 L2064.72,461.333 L2065.12,463.113 L2065.6,464.477 L2066.74,466.546 L2068.4,468.625 L2069.86,469.514 L2071.27,469.819 L2073.14,469.555 L2074.37,468.955 L2075.22,467.982 L2075.74,466.44 L2076.06,464.792 L2076.47,462.369 L2076.94,460.671 L2077.65,459.175 L2079,457.373 L2081,455.983 L2083.72,455.12 L2085.51,454.993 L2087.56,455.452 L2089.88,456.274 L2091.17,457.106 L2091.41,458.181 L2091.07,459.459 L2090.39,461.906 L2090,464.988 L2090.3,467.272 L2091.87,470.012 L2093.65,472.305 L2096.06,475.538 L2097.33,477.722 L2098.41,481.87 L2099.39,485.775 L2100.99,489.98 L2101.97,493.719 L2102.95,497.087 L2103.52,498.223 L2104.15,499.47 L2105.65,501.113 L2107.51,502.242 L2110.35,503.323 L2113.22,504.622 L2115.22,506.579 L2117.21,508.499 L2117.77,509.719 L2118.14,511.24 L2117.78,512.975 L2116.64,513.897 L2115.27,514.208 L2113.97,513.867 L2112.48,513.104 L2107.69,509.178 L2104.68,507.405 L2103.15,506.754 L2101.35,506.561 L2099.95,506.673 L2098.36,507.048 L2097.11,508.266 L2096.36,510.149 L2095.77,512.678 L2095.45,518.719 L2095.65,524.808 L2095.33,533.173 L2095.19,533.979 L2094.8,536.201 L2094.27,538.183 L2093.36,540 L2091.93,541.208 L2090.42,542.736 L2089.28,544.242 L2088.86,545.267 L2088.71,546.568 L2088.95,548.109 L2089.6,549.719 L2090.3,551.015 L2091.56,552.784 L2093.69,555.204 L2095.93,557.287 L2097.55,558.545 L2099.62,559.24 L2102.21,560.448 L2103.56,561.435 L2104.35,562.82 L2104.79,564.327 L2104.85,566.28 L2104.29,569.712 L2103.91,572.777 L2103.91,574.915 L2104.35,577.731 L2104.9,581.084 L2104.77,582.445 L2104.53,583.768 L2103.97,585.116 L2103.59,586.233 L2103.55,586.76 L2103.64,587.399 L2104.19,588.122 L2106.95,590.967 L2108.5,592.831 L2110.06,595.17 L2111.28,596.049 L2112.85,596.87 L2114.79,597.138 L2117.13,597.121 L2118.98,596.967 L2120.74,596.503 L2121.85,596.164 L2122.78,596.328 L2123.47,596.794 L2123.78,597.441 L2123.77,598.214 L2123.24,598.759 L2121.66,599.572 L2120.07,600.232 L2119.24,600.777 L2118.77,601.61 L2118.47,602.643 L2118.55,603.634 L2118.71,604.744 L2119.15,605.639 L2119.73,606.432 L2120.68,607.052 L2121.95,607.654 L2126.54,608.908 L2127.93,609.705 L2128.87,610.51 L2129.42,611.477 L2129.58,612.384 L2129.25,613.331 L2128.35,614.515 L2124.93,617.926 L2121.75,620.614 L2120.57,622.029 L2119.86,623.095 L2119.5,624.47 L2119.55,625.881 L2119.94,627.166 L2120.64,627.934 L2121.78,628.662 L2123.07,628.901 L2124.87,628.899 L2126.93,628.659 L2128.44,628.639 L2130.04,628.548 L2131.01,628.359 L2131.77,627.683 L2132.3,626.377 L2132.8,624.955 L2133.27,623.998 L2133.93,623.686 L2134.72,623.524 L2136.33,623.255 L2141.45,623.434 L2142.77,623.962 L2144.15,624.909 L2145.33,626.415 L2146.6,628.714 L2147.64,629.998 L2148.85,630.893 L2150.32,631.535 L2151.88,631.778 L2152.91,631.346 L2153.73,630.54 L2154.09,629.622 L2154.05,628.38 L2153.44,627.139 L2151.38,624.658 L2150.78,623.276 L2150.69,622.091 L2151.17,621.08 L2151.92,620.151 L2152.94,619.585 L2154.18,619.445 L2155.39,619.745 L2156.74,620.457 L2158.25,621.766 L2159.28,622.38 L2160.32,622.589 L2161.72,622.528 L2163.11,621.934 L2164.36,621.159 L2165.68,620.049 L2166.81,619.403 L2168.16,619.123 L2169.46,619.152 L2171.17,619.623 L2173.1,620.222 L2174.26,620.205 L2175.64,620.025 L2182.66,615.85 L2187.64,616.514 L2189.96,620.498 L2196.27,622.823 L2201.92,626.143 L2201.59,631.456 L2193.28,632.784 L2187.64,637.432 L2186.31,648.721 L2187.17,651.952 L2187.64,653.702 L2187.64,659.347 L2190.63,661.339 L2192.95,657.022 L2196.24,656.039 L2197.53,656.218 L2202.58,657.354 L2202.91,654.366 L2197.93,651.378 L2194.95,648.389 L2195.61,645.069 L2197.6,644.405 L2204.91,645.733 L2210.22,653.37 L2222.17,656.358 L2224.5,654.698 L2226.16,647.061 L2220.51,644.737 L2221.18,641.085 L2228.81,637.764 L2236.12,637.764 L2239.77,629.795 L2245.41,626.807 L2249.4,627.803 L2251.72,630.127 L2248.07,638.428 L2248.4,641.749 L2252.39,638.428 L2262.02,633.78 L2267.99,635.772 L2272.31,641.085 L2272.64,651.378 L2269.65,657.022 L2263.01,657.686 L2261.35,661.339 L2263.01,663.995 L2266.66,663.995 L2270.32,661.339 L2275.63,662.003 L2279.28,665.655 L2279.28,670.636 L2284.59,670.636 L2287.58,677.941 L2292.9,682.589 L2299.87,681.925 L2302.86,683.253 L2305.18,690.226 L2308.5,692.218 L2310.83,690.89 L2313.15,685.577 L2316.47,681.925 L2320.45,680.929 L2322.78,682.589 L2322.78,686.574 L2317.8,691.222 L2317.13,693.878 L2319.13,696.535 L2325.1,697.863 L2326.76,700.851 L2329.09,705.5 L2331.41,705.5 L2335.06,703.176 L2335.4,697.863 L2338.38,693.546 L2353.33,697.531 L2355.32,693.878 L2359.3,691.886 L2361.96,692.55 L2363.95,700.187 L2369.93,702.843 L2371.59,696.535 L2373.25,693.546 L2376.24,694.21 L2379.23,700.851 L2388.52,701.847 L2390.51,703.508 L2385.2,706.164 L2382.21,708.82 L2382.55,711.476 L2384.54,712.472 L2388.19,711.808 L2391.51,713.469 L2393.83,717.121 L2390.51,725.09 L2393.5,731.73 L2400.81,734.055 L2409.44,733.059 L2411.76,730.403 L2410.77,725.754 L2404.79,719.777 L2402.8,714.797 L2406.12,712.804 L2412.43,714.465 L2418.74,713.137 L2425.05,715.461 L2435.67,720.109 L2443.64,720.441 L2447.62,724.094 L2449.29,728.742 L2445.96,728.41 L2445.96,731.398 L2448.62,735.051 L2443.64,740.696 L2444.3,747.336 L2448.29,752.317 L2446.3,755.305 L2442.31,753.645 L2438.99,756.965 L2435.67,753.313 L2433.68,748.664 L2431.69,748.664 L2429.7,749.661 L2433.02,752.317 L2433.02,755.305 L2425.05,759.29 L2426.37,762.278 L2428.37,767.258 L2425.71,767.258 L2420.07,763.606 L2416.08,764.934 L2415.75,767.923 L2419.07,771.907 L2426.04,775.227 L2426.04,777.552 L2421.39,779.876 L2421.39,785.189 L2424.38,784.524 L2426.04,785.189 L2426.04,788.841 L2422.39,789.837 L2422.25,790.452 L2421.8,790.785 L2421.32,791.354 L2421.13,791.657 L2421.05,791.784 L2420.9,792.176 L2420.72,792.753 L2420.46,793.77 L2420.37,794.23 L2420.35,794.67 L2420.35,794.846 L2420.39,795.432 L2420.42,795.627 L2420.49,795.989 L2420.54,796.165 L2420.68,796.487 L2420.92,796.867 L2421.13,797.15 L2421.38,797.443 L2421.65,797.696 L2421.89,797.95 L2422.1,798.252 L2422.2,798.418 L2422.32,798.652 L2422.44,798.994 L2422.47,799.18 L2422.48,799.297 L2422.45,799.629 L2422.25,800.334 L2422.16,800.725 L2422.11,801.204 L2422.08,801.546 L2422.11,801.908 L2422.14,802.123 L2422.17,802.279 L2422.4,802.953 L2422.49,803.119 L2422.63,803.431 L2422.8,803.87 L2423.19,805.199 L2423.28,805.629 L2423.42,806.479 L2423.49,807.075 L2423.5,807.593 L2423.48,808.101 L2423.38,808.942 L2423.09,810.135 L2423.05,810.272 L2422.72,811.172 L2422.57,811.642 L2422.45,812.111 L2422.25,812.747 L2422.21,812.914 L2422.07,813.237 L2422.01,813.335 L2421.86,813.57 L2421.58,813.893 L2420.86,814.462 L2420.52,814.658 L2420.12,814.826 L2419.61,814.954 L2419.22,815.004 L2418.91,815.015 L2418.32,815.006 L2417.76,814.94 L2417.37,814.833 L2417.2,814.756 L2416.63,814.356 L2416.33,813.859 L2416.19,813.556 L2416.07,813.253 L2415.95,812.774 L2415.87,812.325 L2415.85,812.071 L2415.8,810.957 L2415.83,810.918 L2415.78,810.527 L2415.71,810.273 L2415.62,810.009 L2415.39,809.56 L2414.7,809.132 L2414.31,808.937 L2413.96,808.723 L2413.28,808.373 L2413.15,808.423 L2412.93,808.423 L2412.2,808.366 L2411.88,808.377 L2411.67,808.407 L2411.48,808.476 L2410.64,808.908 L2410.53,809.349 L2410.48,809.838 L2410.4,810.239 L2410.38,810.522 L2410.38,810.991 L2410.42,811.196 L2410.5,811.499 L2410.65,811.821 L2410.72,811.938 L2410.94,812.378 L2411.19,812.787 L2411.44,813.002 L2412.03,813.636 L2412.24,813.86 L2412.9,814.454 L2413.44,814.912 L2413.76,815.302 L2414.3,815.946 L2414.57,816.317 L2414.81,816.698 L2414.99,817.088 L2415.07,817.381 L2415.16,817.821 L2415.18,818.241 L2415.18,818.632 L2415.13,818.964 L2414.89,819.649 L2414.24,820.072 L2413.96,820.219 L2413.64,820.357 L2413.17,820.544 L2412.79,820.74 L2412.35,820.996 L2411.24,821.751 L2410.24,823.152 L2410,823.563 L2409.87,823.837 L2409.71,824.229 L2409.59,824.708 L2409.51,825.109 L2409.45,825.676 L2409.36,827.798 L2409.27,828.678 L2409.11,829.871 L2409.06,830.418 L2409.04,830.829 L2409.07,831.288 L2409.16,831.865 L2409.24,832.128 L2409.45,832.597 L2409.7,833.007 L2409.92,833.309 L2410.56,833.924 L2411.15,834.528 L2411.44,834.918 L2411.61,835.231 L2411.78,835.602 L2411.88,835.992 L2411.92,836.198 L2411.95,836.755 L2411.92,837.253 L2411.83,837.674 L2411.69,838.046 L2411.52,838.398 L2410.99,839.28 L2409.99,839.908 L2409.8,839.977 L2409.59,840.036 L2409.25,840.096 L2409.03,840.116 L2408.58,840.107 L2408.24,840.059 L2407.89,839.953 L2407.64,839.865 L2407.11,839.642 L2406.9,839.516 L2406.34,839.136 L2405.88,838.658 L2405.51,838.151 L2405.44,838.073 L2404.89,837.302 L2404.02,836.327 L2403.64,836.005 L2403.22,835.703 L2403,835.557 L2402.38,835.197 L2402.23,835.109 L2401.93,834.983 L2401.77,834.925 L2401.48,834.838 L2401.14,834.78 L2400.91,834.751 L2400.19,834.753 L2399.79,834.783 L2399.5,834.892 L2398.72,835.324 L2398.41,835.775 L2398.28,836.049 L2398.18,836.411 L2398.17,836.9 L2398.25,837.339 L2398.4,837.779 L2398.53,838.111 L2398.71,838.628 L2398.86,839.097 L2398.97,839.566 L2399,839.771 L2399.06,840.221 L2399.06,841.062 L2399.02,841.57 L2398.94,842.059 L2398.87,842.333 L2398.82,842.49 L2398.71,842.793 L2398.33,843.693 L2398.21,844.007 L2398.14,844.359 L2398.13,844.486 L2398.13,844.711 L2398.15,844.906 L2398.19,845.16 L2400.74,847.94 L2400.97,848.242 L2401.12,848.457 L2401.3,848.779 L2401.46,849.16 L2401.71,849.824 L2402.01,850.517 L2402.19,850.849 L2402.62,851.542 L2403.28,851.951 L2403.52,852.048 L2403.65,852.087 L2404.06,852.135 L2404.29,852.154 L2404.54,852.143 L2404.9,852.093 L2405.25,851.955 L2405.91,851.592 L2405.99,851.455 L2406.04,851.385 L2404.73,854.892 L2404.69,855.002 L2406.16,879.64 L2407.27,898.177 L2407.33,899.257 L2409.26,936.226 L2411.19,973.295 L2427.27,1281.84 L2433.07,1398.57 L2461.65,1439.72 L2467.78,1458.92 L2468.3,1481.32 L2439.44,1522.68 L2450.89,1746.86 L2451.01,1763.58 L2447.85,1766.08 L2441.1,1779.2 L2439.41,1785.73 L2441.23,1788.06 L2442.96,1791.33 L2442.54,1792.35 L2442.94,1794.56 L2443.88,1796.01 L2444.55,1797.94 L2444.55,1799.5 L2445.09,1800.85 L2443.86,1802.85 L2443.01,1803.42 L2442.22,1804.26 L2440.89,1805.06 L2439.99,1805.18 L2439.22,1804.82 L2438.1,1805.23 L2437.32,1806.48 L2437.07,1808.06 L2436.61,1809.44 L2431.22,1813.48 L2430.29,1813.5 L2428.8,1814.37 L2423.6,1815.13 L2422.3,1815.57 L2421.51,1816.83 L2398.44,1845.49 L2396.63,1853.2 L2396.28,1857.06 L2395.93,1858.36 L2396.42,1860.15 L2393.71,1861.97 L2389.82,1868.17 L2388.82,1868.45 L2387.62,1869.5 L2386.81,1869.98 L2386.22,1871.15 L2383.55,1872.95 L2382.72,1872.72 L2380.93,1871.27 L2380.15,1870.4 L2378.98,1870.79 L2378.2,1870.46 L2377.56,1870.44 L2377.13,1871.48 L2377.32,1872.37 L2377.22,1873.25 L2376.97,1874.02 L2375.65,1874.32 L2374.25,1873.98 L2373.65,1873.92 L2372.85,1874.05 L2371.67,1874.26 L2370.32,1874.81 L2369.85,1874.69 L2368.48,1874.94 L2368.02,1875.27 L2367.59,1875.18 L2367.3,1875.38 L2367.12,1875.63 L2366.85,1875.85 L2366.59,1876.31 L2366.19,1876.72 L2365.79,1876.67 L2364.79,1877.4 L2364.29,1878.37 L2364.26,1879.13 L2364.34,1880.02 L2363.92,1880.77 L2363.97,1881.01 L2363.83,1880.85 L2363.26,1880.54 L2362.18,1880.2 L2361.03,1879.7 L2360.09,1880.2 L2359.48,1880.83 L2359.11,1881.02 L2358.72,1880.92 L2358.21,1880.54 L2357.99,1880.54 L2357.78,1880.6 L2357.65,1880.77 L2357.44,1880.79 L2357.18,1880.45 L2356.59,1880.25 L2356.03,1880.49 L2355.56,1880.1 L2355.01,1880.48 L2354.94,1880.68 L2354.97,1881.53 L2354.88,1881.71 L2354.2,1881.59 L2353.42,1881.71 L2352.15,1881.98 L2351.42,1882.4 L2350.84,1881.74 L2350.41,1881.82 L2350.03,1882.05 L2349.74,1882.38 L2349.35,1882.59 L2348.93,1882.54 L2348.39,1881.9 L2348,1881.86 L2347.61,1882.01 L2347.5,1882.42 L2347.44,1883.73 L2346.48,1885.87 L2346.63,1886.28 L2347.04,1886.51 L2347.85,1886.76 L2348.58,1887.42 L2348.81,1887.8 L2348.83,1888.69 L2348.54,1890.06 L2347.92,1891.74 L2347.75,1893.07 L2347.25,1893.83 L2347.21,1894.68 L2347.09,1895.1 L2346.55,1895.43 L2345.07,1893.54 L2343.95,1893.36 L2342.73,1894.27 L2341.67,1895.62 L2339.57,1897.57 L2338.45,1899.54 L2337.39,1898.84 L2335.94,1900.02 L2335.55,1898.57 L2334.61,1898.52 L2334.28,1900.5 L2333.7,1901.16 L2333.14,1902.94 L2333.29,1905.12 L2337.39,1906.43 L2339.39,1910.52 L2339.97,1914.34 L2343.04,1917.99 L2342.94,1919.53 L2342.98,1921.41 L2342.71,1921.77 L2342.65,1922.18 L2342.73,1922.6 L2343.83,1923.36 L2344.16,1923.7 L2344.37,1924.09 L2344.39,1924.51 L2344.53,1924.9 L2344.8,1925.25 L2344.62,1925.65 L2344.22,1925.79 L2343.83,1925.73 L2343.43,1925.54 L2343.06,1925.75 L2343.06,1926.19 L2343.45,1928.45 L2342.77,1931.85 L2341.01,1933.14 L2339.84,1934.85 L2339.67,1935 L2337.55,1935.8 L2337.28,1936.38 L2337.26,1936.6 L2337.3,1936.83 L2338.02,1938.21 L2338.1,1938.68 L2338.04,1938.89 L2337.86,1939.03 L2336.8,1939.41 L2336.13,1939.54 L2334.53,1939.46 L2333.89,1939.3 L2333.3,1939.05 L2332.96,1938.79 L2332.31,1937.43 L2332.13,1937.3 L2331.69,1937.29 L2331.39,1937.63 L2331.19,1938.02 L2331.03,1938.67 L2330.61,1938.75 L2330.24,1938.53 L2329.64,1937.9 L2329.27,1937.35 L2329.24,1936.71 L2328.65,1935.52 L2328.72,1934.88 L2329.21,1933.7 L2329.09,1933.27 L2328.86,1932.91 L2328.37,1932.46 L2327.98,1932.31 L2327.58,1932.3 L2327.17,1932.38 L2326.54,1932.68 L2326.4,1932.86 L2325.96,1933.83 L2325.7,1934.93 L2325.59,1935.12 L2324.85,1935.57 L2324.46,1935.46 L2323.9,1935.18 L2323.42,1934.77 L2323.01,1934.26 L2322.64,1933 L2322.52,1932.81 L2322.31,1932.75 L2321.83,1933.21 L2321.29,1933.57 L2320.62,1935.5 L2320.55,1935.92 L2320.32,1936.26 L2320.11,1936.24 L2319.25,1935.31 L2319.05,1935.35 L2319.01,1935.8 L2319.76,1937.88 L2319.78,1938.51 L2319.2,1938.8 L2318.78,1938.82 L2318.57,1938.75 L2318.25,1938.21 L2317.98,1937.39 L2317.14,1937.31 L2315.87,1937.63 L2315.22,1937.89 L2313.8,1938.98 L2313.5,1939.3 L2313.15,1939.85 L2312.96,1939.97 L2312.54,1939.98 L2312.17,1940.16 L2311.6,1940.8 L2311.41,1941.41 L2311.95,1943.57 L2311.76,1944.43 L2311.42,1944.75 L2311.05,1944.94 L2310.03,1944.7 L2309.42,1944.7 L2309.22,1944.78 L2309.12,1944.96 L2309.58,1946.42 L2309.87,1946.77 L2309.75,1946.96 L2309.17,1947.26 L2309.18,1947.7 L2310.27,1949.38 L2311,1950.24 L2311,1950.66 L2310.81,1950.75 L2309.52,1950.68 L2309.32,1950.76 L2308.63,1951.32 L2308.2,1951.81 L2308.07,1952.01 L2308.08,1952.25 L2308.67,1952.53 L2308.68,1952.98 L2308.3,1953.51 L2307.82,1953.97 L2307.11,1955.09 L2306.96,1955.51 L2306.39,1956.42 L2306.38,1956.66 L2306.61,1957.06 L2306.62,1957.48 L2306.23,1957.6 L2305.91,1958.17 L2305.92,1958.61 L2306.09,1958.78 L2306.98,1958.73 L2307.16,1958.87 L2307.9,1959.82 L2308.41,1960.85 L2308.88,1961.34 L2311.16,1961.41 L2311.79,1961.7 L2312.69,1961.83 L2313.09,1962.04 L2313.71,1962.74 L2314.11,1962.9 L2315.76,1962.91 L2315.97,1962.79 L2316.36,1962.25 L2316.57,1962.1 L2316.79,1962.15 L2317.1,1962.52 L2317.65,1962.93 L2317.76,1963.14 L2317.72,1963.36 L2317.59,1963.52 L2316.96,1963.74 L2316.61,1964.28 L2316.4,1964.26 L2316.31,1964.06 L2316.1,1964.02 L2315.67,1964.12 L2315.13,1964.47 L2314.52,1964.46 L2314.34,1964.33 L2314.21,1963.73 L2313.8,1963.86 L2312.91,1965.2 L2312.99,1965.42 L2313.35,1965.66 L2313.6,1966.52 L2314.48,1966.9 L2315.3,1967.37 L2315.99,1967.37 L2317.45,1967.22 L2318,1967.09 L2318.23,1966.48 L2319.43,1965.87 L2320.31,1965.94 L2320.92,1966.21 L2321.21,1966.52 L2321.42,1966.92 L2321.65,1967.78 L2322.19,1968.79 L2322.44,1969.65 L2322.84,1970.48 L2322.96,1970.67 L2323.17,1970.78 L2323.89,1970.88 L2324.11,1970.97 L2324.18,1971.18 L2323.85,1971.46 L2322.88,1971.89 L2322.75,1972.3 L2322.83,1972.71 L2324.12,1972.31 L2324.53,1972.1 L2325.16,1971.46 L2325.84,1971.35 L2326.27,1971.18 L2326.47,1971.07 L2326.91,1970.57 L2327.3,1970.32 L2327.52,1970.28 L2327.72,1970.32 L2328.04,1970.65 L2328.24,1971.5 L2328.39,1971.66 L2328.79,1971.81 L2329.24,1971.31 L2329.59,1971.06 L2329.82,1971.05 L2330.08,1971.45 L2330.31,1972.08 L2330.36,1974.12 L2330.79,1974.94 L2330.8,1975.38 L2330.71,1975.58 L2330.46,1975.95 L2330.05,1975.94 L2329.86,1975.86 L2329.61,1975.49 L2329.26,1975.21 L2328.61,1975.23 L2328.5,1975.67 L2328.55,1975.89 L2328.92,1976.14 L2329.06,1977.03 L2329.43,1977.58 L2329.38,1978.04 L2328.44,1978.41 L2328.1,1978.71 L2328.08,1978.92 L2328.39,1979.5 L2328.37,1979.71 L2327.26,1979.6 L2326.77,1979.66 L2326.67,1979.85 L2326.14,1980.24 L2326.03,1980.41 L2326,1980.88 L2326.33,1981.46 L2326.53,1982.39 L2326.77,1983.01 L2326.59,1983.66 L2326.65,1983.91 L2326.83,1984.33 L2327.03,1984.49 L2328.37,1984.33 L2328.76,1984.1 L2329.19,1983.3 L2330.12,1982.61 L2330.53,1981.85 L2330.7,1981.74 L2331.87,1981.8 L2332.67,1982.15 L2333.02,1982.49 L2333.17,1982.9 L2333.16,1983.33 L2332.82,1983.87 L2332.82,1984.31 L2333.03,1984.63 L2333.95,1984.77 L2334.11,1984.93 L2334.11,1985.76 L2334.45,1986.37 L2334.45,1986.83 L2334.39,1987.03 L2334.22,1987.19 L2333.27,1987.6 L2333.1,1987.77 L2332.95,1988.19 L2332.97,1988.4 L2333.3,1989.49 L2333.13,1989.89 L2332.92,1989.96 L2332.51,1989.92 L2332.09,1989.77 L2331.66,1989.82 L2331.45,1990.21 L2330.48,1991.18 L2330.38,1991.37 L2330.26,1991.81 L2330.28,1992.01 L2330.4,1992.19 L2330.6,1992.27 L2331.27,1992.38 L2331.52,1992.76 L2331.48,1993.18 L2330.98,1993.57 L2329.8,1992.92 L2329.33,1992.91 L2329.16,1993.06 L2329.24,1993.48 L2329.6,1993.78 L2330.33,1994.93 L2331.14,1995.46 L2331.56,1995.53 L2331.73,1995.7 L2331.68,1995.91 L2331.38,1996.22 L2331.17,1996.27 L2330.79,1996.11 L2330.57,1996.17 L2330.53,1996.38 L2330.64,1997.45 L2330.48,1997.83 L2331.18,1998.77 L2331.23,1998.99 L2331.01,1999.59 L2330.6,1999.71 L2330.41,1999.87 L2330.51,2000.08 L2330.89,2000.28 L2330.96,2000.5 L2330.8,2001.13 L2330.88,2001.57 L2330.57,2001.85 L2329.75,2002.19 L2329.61,2002.37 L2329.61,2002.59 L2329.79,2002.98 L2330.18,2003.2 L2330.4,2003.2 L2331.25,2002.92 L2331.48,2002.93 L2331.67,2003.04 L2331.58,2003.24 L2330.88,2003.72 L2330.75,2004.32 L2331.18,2004.55 L2332.75,2005.01 L2333.88,2005.81 L2334.1,2006.2 L2333.83,2006.8 L2333.93,2007.23 L2334.15,2007.34 L2335.52,2007.19 L2335.61,2007.38 L2335.39,2007.76 L2335.07,2008.09 L2335.04,2008.29 L2335.12,2010.12 L2335.29,2010.26 L2335.72,2010.23 L2336.27,2009.86 L2336.39,2010.04 L2336.22,2010.69 L2336.25,2011.13 L2336.47,2011.93 L2336.96,2012.64 L2336.97,2012.87 L2336.95,2013.08 L2336.62,2013.33 L2336.2,2013.34 L2335.59,2013.18 L2335.41,2013.33 L2335.49,2013.75 L2335.76,2014.1 L2335.96,2014.18 L2337.05,2013.99 L2337.98,2014.18 L2338.18,2014.29 L2338.15,2014.51 L2337.75,2015.06 L2337.69,2015.27 L2337.76,2015.68 L2338.05,2016.53 L2338.48,2016.63 L2338.66,2016.74 L2338.69,2016.97 L2338.6,2017.18 L2338.65,2017.39 L2339.01,2017.64 L2339.23,2017.68 L2339.31,2018.52 L2339.52,2019.06 L2339.49,2019.29 L2339.36,2019.49 L2339.15,2019.58 L2338.95,2019.52 L2338.66,2018.95 L2338.48,2019.08 L2338.29,2019.46 L2338.25,2019.69 L2338.58,2020.31 L2338.53,2020.52 L2337.87,2021.07 L2337.81,2021.28 L2337.85,2021.5 L2338,2021.68 L2338.61,2021.95 L2338.75,2022.11 L2338.74,2022.33 L2338.67,2022.54 L2338.18,2022.97 L2337.14,2024.68 L2336.23,2025.43 L2336.14,2025.62 L2336.1,2026.07 L2335.94,2026.21 L2334.33,2026.85 L2334.13,2026.87 L2333.31,2026.8 L2330.98,2026.38 L2330.08,2027 L2328.69,2027.75 L2328,2028.36 L2327.81,2029.04 L2327.79,2029.51 L2327.88,2029.96 L2328.13,2030.42 L2328.7,2030.93 L2329.73,2031.43 L2330.65,2032.41 L2331.32,2032.41 L2331.58,2032.06 L2331.63,2031.84 L2331.5,2031.21 L2331.51,2030.36 L2331.9,2029.87 L2332.1,2029.89 L2332.27,2030.03 L2332.74,2031.05 L2333.01,2031.44 L2333.51,2031.92 L2333.51,2032.33 L2333.21,2033.15 L2332.64,2033.84 L2331.62,2034.72 L2331.36,2035.11 L2331.36,2036.26 L2331.77,2037.07 L2333.28,2038.43 L2333.9,2038.7 L2334.54,2038.62 L2334.72,2038.48 L2334.79,2037.84 L2334.44,2037.64 L2334.14,2037.25 L2334.03,2037.07 L2334.15,2036.67 L2334.34,2036.56 L2335,2036.5 L2335.02,2036.03 L2335.4,2035.48 L2335.57,2034.85 L2335.72,2034.68 L2336.17,2034.72 L2336.78,2035.35 L2336.78,2035.57 L2336.52,2036.14 L2336.55,2036.35 L2336.76,2036.42 L2337.65,2036.35 L2338.55,2038.12 L2338.89,2038.49 L2339.52,2038.84 L2339.61,2039.27 L2339.47,2039.94 L2339.52,2040.44 L2339.79,2040.82 L2340.37,2041.27 L2340.82,2041.23 L2341.03,2041.11 L2341.21,2040.74 L2341.22,2038.74 L2341.32,2038.32 L2341.56,2037.91 L2341.71,2037.71 L2341.92,2037.62 L2342.59,2037.63 L2343.06,2037.78 L2343.43,2038.07 L2344.7,2039.96 L2345.71,2041.19 L2345.83,2043.15 L2345.93,2043.57 L2346.38,2044.39 L2346.38,2044.83 L2346.48,2045.24 L2346.91,2045.7 L2347.55,2045.66 L2347.75,2045.73 L2348.06,2046.3 L2348.42,2047.66 L2348.64,2047.71 L2349.02,2047.47 L2349.49,2047.44 L2349.68,2047.58 L2349.7,2048 L2349.91,2048.15 L2350.84,2048.18 L2351.67,2048.56 L2353.04,2048.41 L2353.97,2048.66 L2354.39,2048.86 L2354.8,2049.14 L2354.9,2049.33 L2354.94,2050.01 L2355.55,2050.72 L2356.07,2052.42 L2356.35,2052.84 L2356.57,2052.94 L2357.02,2052.92 L2357.23,2052.82 L2357.33,2052.61 L2357.39,2051.69 L2358.77,2050.75 L2359.22,2050.58 L2359.45,2050.58 L2360.32,2050.67 L2360.51,2050.8 L2360.59,2051.47 L2360.91,2052.32 L2360.91,2052.77 L2360.54,2053.32 L2359.79,2055.62 L2360.12,2055.96 L2360.55,2056.14 L2361.07,2055.66 L2361.39,2055.81 L2361.13,2056.52 L2360.34,2057.34 L2360.27,2057.83 L2360.45,2058.19 L2360.67,2058.48 L2360.43,2058.92 L2359.23,2058.98 L2359.33,2059.39 L2360.35,2059.87 L2360.86,2060.04 L2361.06,2060.8 L2361.36,2061.09 L2361.54,2060.46 L2362.25,2060.01 L2363.64,2059.87 L2364.24,2059.95 L2365.1,2060.41 L2365.88,2061.09 L2366.5,2061.89 L2367.1,2062.03 L2368,2061.82 L2368.29,2062.32 L2367.28,2062.51 L2367.05,2062.78 L2367.16,2063.41 L2367.64,2063.99 L2368.06,2064.82 L2369.01,2065.87 L2369.8,2066.05 L2370.73,2067.04 L2370.8,2067.66 L2370.25,2067.77 L2369.57,2067.37 L2369.26,2067.53 L2369.24,2067.92 L2369.75,2068.29 L2370.18,2068.69 L2370.46,2069.38 L2371.35,2070.83 L2372.22,2072.21 L2372.88,2072.78 L2373.54,2072.72 L2373.91,2072.19 L2374.29,2071.83 L2375.43,2071.65 L2375.88,2071.36 L2376.37,2071.3 L2376.76,2071.46 L2376.94,2071.78 L2376.71,2072.49 L2376.44,2073.2 L2376.76,2074.36 L2376.93,2074.82 L2377.27,2075.06 L2378.05,2074.92 L2378.65,2075.01 L2379.08,2075.25 L2379.29,2075.69 L2378.96,2076.25 L2379.02,2076.7 L2379.54,2077.39 L2379.94,2077.82 L2379.94,2078.95 L2380.64,2079.57 L2380.69,2079.9 L2380.46,2080.67 L2380.44,2081.15 L2380.8,2081.56 L2381.46,2081.65 L2381.73,2081.29 L2381.82,2080.07 L2382.18,2079.93 L2382.6,2080.31 L2382.7,2081.28 L2382.54,2082.18 L2382.06,2083.08 L2381.43,2083.8 L2380.7,2084.43 L2379.17,2085.55 L2378.86,2085.9 L2378.75,2086.6 L2378.42,2086.93 L2378.13,2086.71 L2377.85,2085.9 L2377.57,2085.65 L2377.24,2085.88 L2376.64,2086.63 L2376.32,2086.89 L2375.89,2086.63 L2375.54,2086.46 L2375.29,2087.04 L2375.38,2087.39 L2375.85,2087.48 L2376.18,2087.78 L2376.27,2088.54 L2376.35,2089.41 L2376.67,2089.83 L2377.27,2090.07 L2378.18,2090.04 L2379.12,2090.88 L2379.71,2090.8 L2380.89,2090.86 L2381.3,2090.6 L2381.82,2089.56 L2382.77,2089.91 L2383.93,2090.43 L2384.73,2092.07 L2384.89,2093.04 L2384.56,2093.83 L2385.12,2094.31 L2385.41,2094.08 L2385.65,2093.04 L2386.14,2092.24 L2386.71,2092.22 L2388.11,2093.63 L2388.38,2094.55 L2388.29,2095.51 L2388.52,2096.41 L2388.88,2096.92 L2389.6,2097.29 L2389.7,2097.75 L2389.3,2098.18 L2388.67,2098.21 L2388.31,2098.57 L2388.29,2099.13 L2388.29,2099.79 L2387.93,2100.25 L2387.52,2100.43 L2386.79,2100.05 L2386.33,2100.13 L2386.05,2100.69 L2386.17,2101.22 L2386.79,2102.27 L2387.17,2104.48 L2387.1,2105.17 L2386.64,2105.47 L2386.18,2105.21 L2385.72,2104.68 L2385.25,2103.91 L2384.52,2103.14 L2384.33,2102.38 L2384.33,2101.49 L2384.02,2101.48 L2383.66,2101.6 L2383.31,2102.15 L2383,2102.7 L2382.35,2103.1 L2381.85,2103 L2381.3,2102.9 L2380.9,2102.36 L2380.41,2102.47 L2379.48,2103.12 L2378.33,2103.95 L2377.8,2104.72 L2377.37,2105.11 L2377.01,2105.1 L2376.77,2104.62 L2376.9,2103.91 L2376.91,2103.33 L2376.7,2103.13 L2376.4,2103.33 L2376.04,2103.79 L2375.89,2104.64 L2375.99,2105.33 L2375.95,2105.71 L2375.74,2105.84 L2375.13,2105.8 L2374.65,2105.71 L2374.23,2105.9 L2373.51,2106.88 L2373.37,2107.38 L2373.74,2107.99 L2374.37,2108.44 L2375.22,2109.09 L2375.43,2109.83 L2375.48,2110.75 L2375.18,2111.65 L2375.48,2112.43 L2375.85,2113.2 L2375.87,2113.88 L2375.26,2113.59 L2374.52,2113.35 L2373.67,2113.43 L2373.1,2113.58 L2373.1,2113.96 L2373.37,2114.37 L2374.09,2115.28 L2374.85,2115.93 L2375.69,2115.92 L2376.53,2115.87 L2377,2116.39 L2376.83,2117.38 L2376.25,2118.5 L2376.08,2119.19 L2376.57,2119.6 L2377.46,2120.32 L2377.96,2121.3 L2377.66,2122.27 L2377,2122.8 L2375.65,2123 L2374.98,2124.41 L2374.13,2125.57 L2373.43,2126.38 L2373.37,2127.27 L2374.32,2128.27 L2374.1,2129.2 L2374.42,2130.28 L2375.03,2130.72 L2375.58,2131.67 L2376.08,2131.96 L2376.91,2131.53 L2378.1,2131.04 L2378.92,2131.3 L2379.24,2131.77 L2379.04,2133.02 L2379.04,2133.97 L2379.41,2134.68 L2379.98,2136.62 L2379.84,2137.21 L2378.79,2138.19 L2377.92,2139.13 L2377.37,2139.68 L2376.74,2139.69 L2376.45,2139.22 L2376.25,2138.62 L2375.89,2138.3 L2375.61,2138.32 L2375.29,2138.72 L2375.03,2139.15 L2374.52,2139.31 L2373.81,2139.16 L2373.47,2139.52 L2373.67,2139.92 L2374.47,2140.21 L2375.21,2140.15 L2375.52,2140.3 L2375.71,2140.78 L2375.46,2141.29 L2374.63,2141.72 L2373.38,2141.56 L2373.01,2141.77 L2372.46,2142.45 L2371.7,2142.65 L2370.96,2143.09 L2370.41,2143.83 L2369.68,2144.2 L2367.92,2144.07 L2367.59,2144.38 L2367.54,2144.84 L2367.43,2145.82 L2367.28,2146.61 L2367.86,2147.1 L2368.81,2147.24 L2369.29,2147.41 L2369.7,2148.1 L2369.94,2148.49 L2370.63,2148.75 L2371.07,2148.36 L2371.29,2147.58 L2371.59,2147.08 L2371.95,2146.94 L2372.36,2147.15 L2373.2,2147.24 L2373.8,2146.91 L2374.27,2146.92 L2374.53,2147.41 L2374.65,2148.25 L2374.34,2149.51 L2374.65,2149.81 L2375.49,2150.04 L2375.88,2150.17 L2376.65,2151 L2377.04,2151.67 L2377.24,2152.65 L2377.11,2153.93 L2376.41,2154.99 L2375.98,2155.81 L2375.98,2156.45 L2376.3,2157.07 L2376.47,2157.64 L2376.42,2158.23 L2376.22,2158.75 L2375.82,2159.06 L2374.9,2158.73 L2374.16,2158.55 L2373.73,2158.76 L2373.74,2159.29 L2374,2159.64 L2374.65,2160.05 L2375.31,2160.51 L2375.55,2160.99 L2375.43,2161.29 L2374.95,2161.98 L2374.65,2162.59 L2374.63,2163.27 L2374.93,2163.7 L2375.33,2163.69 L2377.06,2163.2 L2377.97,2163.13 L2378.36,2163.43 L2378.79,2164.23 L2378.33,2165.21 L2378.03,2165.89 L2378.18,2166.43 L2378.88,2168.41 L2379.34,2170.19 L2379.54,2170.6 L2380.1,2170.95 L2381.33,2170.85 L2382.37,2170.86 L2383.4,2171.36 L2384.6,2172.34 L2387.04,2175.54 L2388.32,2177.52 L2388.68,2178.45 L2389.21,2179.31 L2390,2179.47 L2390.66,2179.66 L2391.58,2180.2 L2392.08,2180.65 L2392.55,2181.25 L2392.65,2181.74 L2392.53,2182.28 L2392.27,2182.65 L2391.78,2183.04 L2391.41,2183.14 L2390.77,2182.94 L2389.94,2182.71 L2388.75,2182.17 L2387.83,2181.48 L2387.12,2181.18 L2386.27,2181.28 L2385.49,2181.19 L2384.86,2180.92 L2384.35,2180.36 L2383.63,2180.13 L2383.14,2180.56 L2382.93,2181.68 L2382.45,2183.2 L2381.76,2184.46 L2380.76,2185.38 L2380.08,2186.47 L2379.61,2187.99 L2378.88,2189.53 L2378.25,2190.26 L2376.6,2190.85 L2376.07,2191.32 L2375.64,2192.51 L2374.59,2193.99 L2373.23,2195.01 L2371.39,2195.45 L2370.04,2195.48 L2368.7,2194.79 L2367.96,2194.61 L2367.05,2194.94 L2365.85,2195.54 L2365.09,2195.56 L2364.46,2195.07 L2364.18,2194.16 L2363.63,2193.19 L2363.25,2192.93 L2362.58,2193.43 L2362.32,2194.28 L2361.98,2195.07 L2359.41,2196.46 L2358.39,2197.19 L2357.58,2197.97 L2356.52,2198.5 L2355.47,2198.97 L2354.89,2199.72 L2354.57,2200.33 L2354.83,2200.86 L2355.73,2201.27 L2357.43,2201.64 L2357.97,2201.98 L2358.26,2202.49 L2358.12,2203.16 L2357.46,2203.48 L2355.6,2203.76 L2354.21,2204.12 L2353.39,2205.01 L2352.62,2206.49 L2352.83,2207.38 L2353.77,2209.4 L2355.83,2213.22 L2356.49,2215.62 L2356.38,2217.38 L2355.75,2219.06 L2354.96,2220.21 L2353.25,2221.8 L2351.79,2222.52 L2350.38,2222.59 L2348.37,2223.12 L2347.77,2223.75 L2347.3,2224.35 L2347.41,2225.11 L2348.39,2226.51 L2348.9,2228.09 L2348.83,2229.1 L2347.6,2231.2 L2346.68,2233.99 L2345.63,2236.26 L2344.08,2239.99 L2341.43,2244.1 L2334.46,2248.37 L2292.2,2258.96 L2283.59,2261.04 L2270.68,2264.8 L2251.59,2273.12 L2184.59,2289.9 L2169.4,2298.46 L2147.63,2315.33 L2121.16,2315.76 L2098.15,2309.54 L2070.5,2314.27 L2037.41,2337.81 L1998.47,2339.02 L1967.32,2342.97 L1989.95,2358.25 M1861.7,2620.61 L1861.63,2620.54 L1860.91,2619.82 L1860.5,2619.43 L1860.24,2619.17 L1859.91,2618.84 L1859.36,2618.3 L1859.31,2618.25 L1854.21,2613.8 L1852.59,2612.45 L1852.59,2612.46 L1852.68,2612.83 L1852.76,2613.16 L1852.35,2612.72 L1851.48,2611.76 L1851.56,2612.07 L1853.97,2620.88 L1854.08,2621.27 L1854.83,2625.91 L1855.2,2628.14 L1856.44,2630.25 L1856.44,2630.25 L1857.68,2634.17 L1857.68,2634.17 L1860.3,2636.98 L1860.56,2637.56 L1861.49,2639.59 L1862.16,2641.04 L1865.76,2645.52 L1867,2647.06 L1867,2647.06 L1867.59,2647.48 L1870.89,2649.81 L1870.96,2649.86 L1873.7,2652.62 L1874.57,2653.5 L1875.49,2654.54 L1875.6,2654.66 L1875.81,2654.9 L1875.83,2654.92 L1876.18,2655.16 L1877.44,2656.03 L1878.44,2658.56 L1878.44,2658.56 L1878.5,2658.54 L1879.93,2658.14 L1880.05,2655.22 L1880.11,2654.82 L1880.15,2654.56 L1880.14,2653.97 L1880.14,2653.21 L1880.36,2652.49 L1880.57,2651.79 L1880.68,2650.94 L1880.74,2650.44 L1881.19,2650.07 L1880.82,2647.68 L1880.42,2645.56 L1880.06,2643.67 L1880.06,2643.66 L1879.67,2642.95 L1878.95,2641.63 L1878.8,2641.35 L1878.62,2640.99 L1878.48,2640.7 L1878.02,2639.75 L1876.59,2638.12 L1876.59,2638.12 L1876.59,2637.95 L1876.6,2637.79 L1876.6,2637.79 L1876.18,2637.06 L1875.8,2636.58 L1875.64,2636.37 L1875.02,2635.59 L1875.01,2635.58 L1874.08,2634.39 L1872.86,2632.84 L1871.83,2631.4 L1870.7,2630.3 L1868.97,2628.62 L1868.96,2628.61 L1868.94,2628.59 L1868.76,2628.38 L1867.82,2627.3 L1867.32,2626.72 L1867.12,2626.49 L1866.23,2625.47 L1865.52,2624.65 L1864.49,2623.47 L1863.93,2622.82 L1863.79,2622.67 L1863.77,2622.64 L1863.24,2622.13 L1863.05,2621.94 L1861.7,2620.61 M1861.36,2611.29 L1861.02,2610.96 L1855.33,2607.42 L1852.34,2606.71 L1850.51,2606.09 L1848.98,2605.58 L1848.23,2605.23 L1847.5,2604.89 L1849.11,2608.11 L1849.12,2608.11 L1849.97,2608.44 L1850.13,2608.5 L1850.13,2608.5 L1850.85,2609.79 L1854.71,2613.86 L1857.68,2616.24 L1858.98,2616.99 L1860.98,2618.15 L1861.65,2618.78 L1861.89,2619.01 L1863.52,2621.28 L1863.84,2621.62 L1869.99,2628.14 L1870,2628.16 L1870.17,2628.28 L1870.57,2628.55 L1870.84,2628.84 L1871.23,2629.24 L1871.33,2629.22 L1871.42,2629.4 L1871.81,2629.81 L1871.86,2629.87 L1872.43,2629.73 L1872.33,2629.47 L1872.19,2629.1 L1872.13,2629 L1871.85,2628.53 L1871.86,2627.53 L1871.86,2627 L1871.38,2625.89 L1871.37,2625.86 L1870.45,2623.28 L1870.12,2622.95 L1870.01,2622.85 L1870.01,2622.84 L1869.26,2621.57 L1868.34,2620.39 L1867.64,2619.3 L1867.36,2618.84 L1866.27,2616.18 L1864.49,2613.89 L1862.79,2612.25 L1862.1,2611.8 L1861.4,2611.33 L1861.39,2611.32 L1861.36,2611.29 M1899.67,2601.44 L1893.8,2600.29 L1892.95,2600.25 L1888.4,2600.02 L1883.48,2600.01 L1879.51,2598.61 L1879.01,2599.26 L1878.63,2599.76 L1878.02,2600.55 L1881.64,2602.48 L1881.79,2603.31 L1882.82,2604.8 L1884.82,2605.45 L1886.09,2606.74 L1886.28,2606.72 L1888.3,2607.79 L1890.39,2609.2 L1892.79,2609.9 L1894.47,2610.74 L1894.57,2610.56 L1896.6,2611.43 L1904.99,2613.54 L1907.77,2613.58 L1908.99,2613.8 L1909.04,2613.86 L1911.84,2614.41 L1914.58,2615.49 L1919.19,2617.12 L1920.58,2617.67 L1921.48,2618.21 L1922.43,2618.24 L1922.53,2617.89 L1922.74,2617.87 L1922.86,2617.15 L1922.79,2613.82 L1922.67,2613.13 L1922.02,2611.93 L1921.34,2610.95 L1920.9,2610.31 L1919.53,2608.67 L1917.86,2607.28 L1915.82,2606.4 L1914.92,2605.47 L1914.8,2605.34 L1908.1,2602.68 L1903.54,2602.08 L1901.65,2601.83 L1899.85,2601.48 L1899.67,2601.44 M1854.59,2602.13 L1854.33,2602.11 L1853.11,2602.18 L1853.11,2602.18 L1850.53,2600.64 L1849.81,2601.02 L1849.63,2601.11 L1849.33,2601.4 L1848.55,2602.18 L1849.74,2603.29 L1850.84,2603.43 L1850.85,2603.44 L1851.2,2603.8 L1851.67,2603.9 L1852.16,2604 L1852.63,2604.22 L1855.09,2604.95 L1856.35,2605.36 L1856.71,2605.61 L1857.16,2605.92 L1857.45,2606.67 L1858.17,2606.95 L1858.64,2607.13 L1858.65,2607.14 L1859.96,2607.95 L1860.75,2608.44 L1860.76,2608.45 L1861.9,2608.92 L1862.58,2609.2 L1862.95,2608.77 L1863.02,2608.8 L1863.41,2608.96 L1863.48,2608.96 L1864.01,2609 L1864.69,2608.68 L1863.85,2606.88 L1863.52,2606.49 L1863.27,2605.94 L1863.01,2605.37 L1862.99,2605.35 L1862,2604.48 L1862,2604.48 L1860.67,2603.9 L1860.23,2603.71 L1860.2,2603.7 L1859.98,2603.63 L1858.72,2603.24 L1856.61,2602.29 L1854.59,2602.13 M1877.52,2593.55 L1877.03,2593.38 L1876,2593.03 L1874.15,2592.19 L1872.56,2592.72 L1872.36,2593.12 L1872.09,2593.65 L1872.62,2593.9 L1873.69,2594.39 L1873.69,2594.39 L1874.07,2594.52 L1874.12,2594.58 L1874.25,2594.73 L1874.32,2594.81 L1877.14,2596.08 L1879.74,2596.81 L1879.98,2596.83 L1880.21,2596.85 L1880.36,2596.86 L1881.26,2596.94 L1883.28,2597.12 L1883.3,2597.11 L1884.12,2596.8 L1884.12,2596.77 L1884.1,2596.57 L1884.1,2596.57 L1884.77,2596.28 L1884.53,2595.54 L1884.49,2595.44 L1882.85,2594.66 L1882.07,2594.28 L1882.06,2594.28 L1879.08,2593.96 L1879.07,2593.96 L1878.06,2593.44 L1878.06,2593.44 L1877.72,2593.81 L1877.71,2593.82 L1877.64,2593.71 L1877.52,2593.55 M1839.54,2569.85 L1837.97,2568.99 L1835.68,2567.75 L1831.98,2566.07 L1832.94,2568.57 L1834.68,2571.35 L1838.18,2575.88 L1845.49,2582.18 L1849.83,2583.99 L1851.39,2584.11 L1855.67,2586.19 L1859.37,2588.14 L1860.18,2588.12 L1861.21,2588.75 L1862.25,2588.53 L1862.94,2587.76 L1863.04,2587.34 L1862.48,2585.86 L1860.78,2583.65 L1860.46,2583.43 L1859.01,2582.22 L1858.04,2581.26 L1855.28,2578.14 L1854.04,2577.55 L1853.81,2577.44 L1851.78,2575.83 L1850.66,2574.97 L1849.96,2574.43 L1847.16,2572.92 L1847.11,2572.9 L1844.78,2571.93 L1844.63,2571.81 L1839.54,2569.85 M2007.75,2732.33 L2005.13,2732.33 L2004.17,2732.5 L2003.52,2732.61 L2003.51,2732.66 L2003.28,2734 L2005.76,2735.41 L2006.64,2736.42 L2009.11,2738.22 L2012.22,2739.47 L2014.83,2740.88 L2017.96,2741.16 L2021.3,2741.02 L2021.56,2740.47 L2023.65,2740.46 L2024.65,2736.26 L2021.05,2735.14 L2014.51,2735.69 L2014.45,2735.7 L2014.32,2735.63 L2007.75,2732.33 M2215.89,2733.31 L2215.76,2733.29 L2215.64,2733.26 L2215.41,2733.21 L2215.3,2733.19 L2215.2,2733.17 L2215.17,2733.17 L2215.1,2733.15 L2215.01,2733.13 L2210.55,2732.2 L2210.54,2732.2 L2209.81,2731.98 L2206.5,2730.99 L2202.78,2730.58 L2200.51,2731.39 L2199.43,2733.15 L2199.52,2733.2 L2200.12,2733.53 L2200.14,2733.54 L2200.15,2733.54 L2199.76,2734.51 L2199.55,2735.05 L2203.58,2735.04 L2204.7,2735.04 L2208.55,2736.94 L2210.45,2737.88 L2214.97,2739.63 L2218.05,2740.19 L2222.06,2740.72 L2225.09,2740.05 L2228.29,2739.35 L2228.29,2739.35 L2228.84,2738.11 L2229.29,2738.21 L2229.3,2738.22 L2229.84,2738.55 L2229.84,2738.56 L2229.84,2738.55 L2229.24,2737.48 L2221.56,2734.5 L2215.89,2733.31 M1988.24,2715.93 L1988.98,2718.45 L1989.98,2719.86 L1992.22,2722.38 L1994.48,2723.59 L1997.47,2725.05 L1999.83,2726.04 L2000.13,2726.12 L2000.7,2726.46 L2002.38,2727.88 L2004.1,2728.94 L2006.45,2729.62 L2007.94,2729.61 L2009.09,2729.24 L2009.63,2729.12 L2010.14,2728.49 L2010.43,2727.77 L2010.87,2727.52 L2011.03,2727.21 L2010.52,2726.48 L2010.24,2726.08 L2008.44,2724.73 L2007.09,2724.07 L2005.29,2723.04 L2003.65,2722.25 L2001.62,2721.81 L1998.69,2720.31 L1997.45,2719.73 L1996.04,2719.16 L1995.32,2718.73 L1994.57,2718.05 L1993.31,2717.02 L1993.3,2717 L1992.61,2716.32 L1992.13,2716.06 L1991.72,2715.89 L1991.28,2715.7 L1991.33,2715.59 L1991.41,2715.38 L1990.39,2714.82 L1990.29,2714.78 L1989.56,2714.46 L1988.58,2713.71 L1988.32,2713.72 L1988.33,2713.97 L1987.74,2713.55 L1987.67,2713.67 L1987.12,2714.53 L1988.24,2715.93 M2291.69,2706.85 L2289.45,2708.22 L2287.31,2710.95 L2286.82,2711.92 L2285.16,2715.17 L2283.58,2716.84 L2282.55,2718.64 L2280.87,2720.63 L2276.88,2724.2 L2276.52,2724.44 L2276.28,2724.6 L2275.62,2725.05 L2275.01,2725.46 L2274.94,2725.54 L2273.7,2727.05 L2272.11,2727.99 L2270.22,2728.84 L2268.42,2729.54 L2268.11,2729.66 L2265.31,2731.24 L2264.12,2732.15 L2262.99,2733.02 L2261.21,2734.82 L2261.21,2734.83 L2261.26,2734.99 L2260.81,2735.21 L2261.02,2735.75 L2261.99,2735.84 L2262.92,2735.45 L2264.23,2735.06 L2264.87,2735.18 L2265.67,2735.1 L2266.39,2735.45 L2269.12,2733.24 L2271.13,2732.15 L2272.24,2731.44 L2273.36,2730.49 L2274.81,2729.71 L2276.35,2729.24 L2278.24,2728.29 L2279.77,2726.96 L2280.05,2726.01 L2281.03,2725.29 L2282.4,2724.27 L2282.99,2723.72 L2283.55,2723.57 L2284.72,2723.18 L2285.5,2722.5 L2286.26,2721.84 L2287.08,2721.3 L2288.12,2720.35 L2289.04,2720.11 L2289.59,2719.02 L2290.3,2716.71 L2291.22,2714.93 L2291.48,2714.46 L2291.54,2713.74 L2290.74,2713.47 L2290.64,2713.43 L2290.75,2712.91 L2290.78,2712.8 L2291.49,2712.17 L2292.38,2710.92 L2293.08,2710.36 L2293.84,2709.34 L2294.12,2708.64 L2293.92,2707.69 L2293.69,2707.79 L2293.68,2707.73 L2293.37,2706.53 L2291.72,2706.84 L2291.69,2706.85 M2311.25,2705 L2311.37,2704.88 L2312.26,2704 L2313.11,2703.17 L2313.95,2700.06 L2312.64,2698.33 L2311.91,2697.36 L2309.39,2698.86 L2307.13,2702.36 L2305.09,2705.2 L2302.46,2710.59 L2301.98,2712.35 L2301.98,2712.35 L2304.86,2711 L2307.61,2708.02 L2309.47,2706.74 L2309.75,2706.54 L2310.04,2706.24 L2311.25,2705 M2193.89,2694.24 L2190.68,2696.1 L2187.18,2698.02 L2186.35,2698.34 L2184.95,2698.87 L2184.98,2699.1 L2185.04,2699.59 L2185.14,2700.33 L2185.81,2700.28 L2186.17,2700.64 L2188.05,2700.75 L2191.19,2699.92 L2192.78,2699.92 L2194.04,2699.86 L2197.46,2699.86 L2198.42,2700.17 L2199.79,2699.98 L2202.77,2699.63 L2204.08,2698.96 L2206.5,2697.79 L2207.71,2697.44 L2208.63,2697.44 L2210.78,2696.34 L2211.87,2695.49 L2213.39,2694.22 L2214.26,2693.42 L2215.27,2692.26 L2216.6,2691.77 L2217.95,2690.96 L2218.53,2690.16 L2220.09,2688.3 L2220.67,2687.95 L2221.08,2687.01 L2220.61,2687.01 L2220.41,2687.01 L2220.37,2686.86 L2220.08,2686.4 L2219.52,2685.51 L2217.86,2685.62 L2215.8,2686.67 L2215.66,2686.81 L2214.48,2688.05 L2212.91,2689.19 L2212.5,2689.37 L2211.95,2689.62 L2211.03,2690.04 L2208.6,2690.78 L2205.61,2691.4 L2203.32,2691.6 L2201.34,2692.46 L2199.51,2692.45 L2199.38,2692.45 L2197.79,2693.09 L2196.77,2693.5 L2194.93,2693.71 L2193.89,2694.24 M2180.09,2700.04 L2180.58,2699.85 L2180.65,2699.75 L2181.1,2699.45 L2182.81,2698.98 L2183.9,2698.53 L2184.64,2698.22 L2184.65,2698.21 L2184.84,2698.08 L2185.86,2697.39 L2188.11,2696.5 L2191.1,2694.87 L2192.05,2694.3 L2192.9,2693.79 L2193.45,2693.57 L2193.63,2693.5 L2194.53,2693.14 L2194.56,2693.13 L2194.73,2693.09 L2195.61,2692.85 L2195.62,2692.85 L2196.17,2692.85 L2197.42,2692.84 L2197.92,2692.6 L2198.76,2692.2 L2198.84,2692.12 L2199.8,2691.19 L2200.96,2690.78 L2201.93,2690.76 L2202.65,2690.74 L2203.28,2690.72 L2205.46,2690.38 L2205.57,2690.37 L2211.26,2689.25 L2212.46,2688.64 L2213.13,2688.31 L2213.89,2687.62 L2213.98,2687.54 L2214.08,2687.38 L2214.44,2686.82 L2214.97,2685.82 L2215.24,2685.8 L2215.54,2685.78 L2216.17,2685.6 L2216.17,2685.06 L2216.01,2684.86 L2215.59,2684.36 L2214.93,2684.32 L2214.81,2684.22 L2214.55,2684.02 L2214.47,2683.87 L2214.12,2683.2 L2214.12,2683.19 L2213.68,2682.99 L2212.72,2682.57 L2212.62,2682.57 L2210.29,2682.56 L2208.65,2683.39 L2207.97,2683.73 L2206.73,2684.08 L2205.08,2684.56 L2201.57,2685.81 L2197.06,2687.72 L2195.63,2687.85 L2193.61,2688.04 L2193.61,2688.04 L2189.77,2689.62 L2185.13,2691.08 L2181.78,2693.4 L2180.1,2695.39 L2178.52,2696.86 L2178.52,2699.07 L2179.34,2699.36 L2179.16,2699.74 L2179.42,2699.86 L2179.65,2699.96 L2179.95,2700.1 L2180.09,2700.04 M2340.25,2689.74 L2339.82,2690.37 L2339.66,2690.62 L2339.53,2690.81 L2338.68,2692.06 L2337.59,2693.36 L2337.33,2694.2 L2337,2695.25 L2337.36,2695.23 L2337.38,2695.23 L2337.05,2695.75 L2337.07,2695.92 L2337.38,2695.88 L2337.41,2695.83 L2338.39,2695.66 L2340.26,2693.54 L2341.24,2692.91 L2342.5,2691.79 L2343.61,2691.03 L2344.66,2689.15 L2344.8,2687.66 L2344.78,2687.31 L2344.96,2686.38 L2344.65,2686.31 L2344.55,2686.31 L2344.54,2685.83 L2344.34,2685.6 L2344.18,2685.43 L2343.86,2685.07 L2343.38,2685.37 L2343.31,2685.45 L2342.52,2686.35 L2341.43,2688.26 L2340.25,2689.74 M1907.02,2677.85 L1906.54,2677.54 L1906.37,2677.44 L1906.19,2677.32 L1903.72,2675.17 L1903.37,2674.87 L1899.53,2672.17 L1897.87,2671.41 L1897.2,2671.18 L1897.2,2671.18 L1897.2,2671.18 L1897.21,2671.24 L1897.22,2671.42 L1897.45,2673.69 L1897.56,2674.01 L1897.78,2674.64 L1898.1,2675.53 L1898.45,2676.51 L1898.5,2676.6 L1898.98,2677.32 L1899.08,2677.47 L1900.67,2679.86 L1900.79,2679.94 L1901.26,2680.22 L1901.93,2680.64 L1902.75,2681.14 L1902.98,2681.29 L1903.15,2681.4 L1903.49,2681.6 L1903.68,2681.72 L1903.95,2681.89 L1904.22,2682.06 L1904.54,2682.25 L1905.84,2682.77 L1905.86,2682.78 L1906.69,2683.11 L1907.77,2683.54 L1907.97,2683.62 L1908.35,2683.77 L1908.37,2683.79 L1908.95,2684.17 L1909.13,2684.29 L1910.01,2684.87 L1911.12,2685.61 L1911.56,2686.17 L1911.62,2686.25 L1911.84,2686.52 L1912.12,2686.88 L1912.82,2687.76 L1913.23,2688.28 L1913.29,2688.31 L1913.78,2688.54 L1916.14,2689.67 L1916.41,2689.79 L1918.16,2690.39 L1918.33,2690.45 L1920.2,2691.08 L1920.21,2691.08 L1920.24,2691.09 L1920.63,2691.2 L1921.06,2691.31 L1921.2,2691.34 L1923.6,2691.97 L1923.93,2692.06 L1924.06,2692.1 L1927.3,2692.83 L1927.3,2692.83 L1929.53,2693.33 L1929.92,2693.42 L1930.16,2693.47 L1931.1,2693.68 L1931.96,2693.88 L1932.74,2694.06 L1934.46,2694.44 L1934.46,2694.44 L1934.73,2694.44 L1936.13,2694.44 L1936.33,2694.44 L1937.78,2694.44 L1938.09,2694.44 L1938.23,2694.39 L1939.32,2694.03 L1939.32,2694.02 L1939.13,2693.54 L1939.13,2693.54 L1939.78,2693.12 L1939.77,2693.12 L1939.02,2691.21 L1939.01,2691.21 L1936.47,2688.91 L1933.76,2686.9 L1931.32,2685.95 L1929.93,2685.91 L1929.27,2685.39 L1928.45,2684.75 L1927.75,2684.21 L1927.4,2683.93 L1927.39,2683.93 L1927.27,2683.94 L1926.95,2683.96 L1926.3,2684.01 L1926.13,2684.03 L1924.53,2684.14 L1923.89,2684.19 L1923.65,2684.21 L1923.38,2684.11 L1922.35,2683.76 L1921.89,2683.6 L1920.53,2683.12 L1920.38,2683.07 L1919.34,2682.71 L1919.19,2682.66 L1918.99,2682.59 L1918.79,2682.52 L1918.71,2682.49 L1918.38,2682.4 L1917.74,2682.2 L1917.2,2682.04 L1914.58,2681.26 L1912.73,2680.71 L1908.74,2678.6 L1907.02,2677.85 M2201.91,2679.83 L2200.27,2680.7 L2198.47,2681.51 L2196.97,2682.35 L2194.84,2684.03 L2193.15,2684.24 L2193.47,2684.78 L2193.35,2684.94 L2193.16,2685.2 L2193.38,2686.11 L2193.53,2686.67 L2194.2,2686.26 L2194.33,2686.19 L2194.33,2686.19 L2194.35,2686.22 L2194.37,2686.24 L2194.37,2686.24 L2195.17,2686.09 L2195.19,2686.12 L2195.25,2686.18 L2195.36,2686.33 L2195.54,2686.32 L2195.86,2686.31 L2195.97,2686.42 L2195.98,2686.42 L2196.68,2686.32 L2197.31,2686 L2197.31,2685.99 L2197.69,2685.65 L2198.44,2685.28 L2199.53,2685.29 L2201.06,2684.97 L2201.31,2684.92 L2201.77,2684.69 L2201.84,2684.66 L2201.84,2684.65 L2201.84,2684.57 L2201.87,2684.55 L2203.32,2683.86 L2204.05,2683.66 L2204.11,2683.63 L2204.37,2683.44 L2205.06,2682.96 L2205.61,2682.67 L2205.62,2682.66 L2205.74,2682.56 L2206.25,2682.1 L2206.66,2681.78 L2206.66,2681.78 L2206.66,2681.78 L2206.75,2681.01 L2206.69,2680.93 L2206.59,2680.77 L2206.22,2680.43 L2206.17,2680.39 L2206.11,2680.35 L2206.03,2680.3 L2205.83,2679.31 L2204.8,2678.67 L2202.64,2679.63 L2202.64,2679.63 L2202.42,2679.69 L2201.91,2679.83 M2312.4,2707.14 L2311.9,2708.15 L2311.9,2709.53 L2311.9,2709.78 L2312.5,2709.67 L2312.46,2710.06 L2313.3,2709.88 L2314.9,2709.26 L2315.66,2708.64 L2316.96,2708.18 L2318.77,2707.3 L2319.76,2707 L2320.37,2705.91 L2320.66,2705.41 L2321.38,2704.62 L2322.34,2704.48 L2322.3,2704.67 L2321.97,2705.25 L2321.63,2705.85 L2321.49,2706.73 L2322.37,2706.19 L2322.96,2705.64 L2324.37,2704.86 L2325.61,2704.08 L2327.16,2703.46 L2327.57,2702.41 L2328.53,2701.22 L2329.41,2700.2 L2331.32,2698.78 L2332.99,2696.94 L2337.68,2692.1 L2340.8,2688.4 L2341.65,2686.69 L2343.5,2684.22 L2347.22,2678.9 L2348.84,2676.33 L2349.93,2672.71 L2351.52,2666.89 L2351.8,2666.4 L2351.83,2664.65 L2352.18,2663.74 L2352.18,2661.85 L2352,2660.57 L2351.96,2660.28 L2352.01,2659.9 L2352.11,2659.05 L2352.16,2658.02 L2351.82,2657.38 L2351.37,2655.05 L2351.25,2654.06 L2349.38,2649.22 L2347.84,2647.19 L2347.21,2646.35 L2344.93,2644.25 L2344.65,2644 L2344.59,2643.91 L2342.54,2641.15 L2340.63,2637.33 L2340,2636.06 L2338.67,2634.52 L2338.31,2634.1 L2338.26,2633.9 L2337.77,2631.87 L2336.31,2631.74 L2335.13,2632.66 L2334.65,2634.03 L2331.66,2639.81 L2330.94,2642.53 L2330.34,2645.51 L2329.98,2648.28 L2329.63,2653.32 L2329.01,2654.69 L2328.31,2656.83 L2327.48,2660.62 L2326.75,2669.81 L2325.69,2671.55 L2323.62,2674.57 L2321.75,2676.65 L2320.04,2678.86 L2319.45,2681.44 L2319.09,2684.39 L2317.44,2690.14 L2317.05,2691.73 L2315.13,2697.23 L2314.2,2703.04 L2313.33,2705.24 L2313.23,2705.48 L2312.67,2706.61 L2312.4,2707.14 M2251.97,2661.32 L2250.77,2662.6 L2248.96,2663.92 L2247.76,2665.19 L2245.12,2666.84 L2243.65,2668.11 L2243.86,2669.29 L2243.98,2669.28 L2244.6,2669.21 L2245.49,2669.12 L2245.83,2670 L2247.8,2669.52 L2250.36,2668.48 L2251.75,2667.67 L2252.59,2666.52 L2254.13,2665.02 L2254.67,2664.86 L2254.96,2664.6 L2255.02,2664.43 L2255.09,2663.67 L2254.98,2663.32 L2255.06,2663.2 L2254.7,2663.07 L2254.84,2662.5 L2254.7,2662.37 L2254.16,2661.87 L2253.58,2661.32 L2251.97,2661.32 M2317.04,2671.91 L2317.61,2672.23 L2318.45,2671.69 L2319.49,2670.27 L2320.03,2668.46 L2320.46,2667.6 L2321.25,2665.54 L2322.46,2660.95 L2322.42,2659.43 L2323.14,2657.01 L2323.38,2654.87 L2323.42,2652.58 L2323.61,2651.18 L2322.97,2649.58 L2322.59,2648.99 L2322.27,2648.5 L2322.24,2648.35 L2322.2,2648.19 L2321.87,2648.06 L2320.96,2647.69 L2320.49,2647.49 L2319.59,2647.8 L2318.33,2649.83 L2317.63,2652.96 L2316.09,2656.5 L2315.11,2660.91 L2314.48,2664.5 L2315.74,2670.06 L2316.68,2671.72 L2316.72,2671.79 L2316.9,2671.77 L2316.93,2671.85 L2317.04,2671.91 M2171.16,2705.9 L2170.6,2706.15 L2169.84,2706.2 L2167.8,2706.52 L2166.11,2707.76 L2164.21,2709.23 L2162.62,2710.87 L2162.35,2712.59 L2162.43,2712.69 L2162.81,2713.22 L2162.81,2713.24 L2162.56,2713.98 L2165.81,2715.65 L2168.55,2717.08 L2172.98,2718.43 L2176.87,2719.99 L2177.98,2721.3 L2179.12,2721.47 L2179.48,2721.89 L2181.16,2723.08 L2184.37,2724.18 L2185.15,2723.94 L2185.86,2724.18 L2187.95,2724.23 L2189.72,2724.35 L2191.58,2724.59 L2194.02,2724.59 L2196.47,2724.53 L2198.14,2724.41 L2198.67,2724.11 L2198.87,2723.66 L2199.05,2723.71 L2201.29,2724.97 L2203.59,2725.44 L2205.69,2726.47 L2207.51,2727.82 L2209.84,2728.69 L2211.23,2729.08 L2212.47,2729.23 L2213.8,2729.3 L2214.04,2728.87 L2215.47,2729.18 L2216.21,2729.13 L2217.52,2729.96 L2220.69,2731.22 L2222.77,2731.95 L2224.77,2732.55 L2225.53,2732.17 L2226.7,2732.33 L2229.27,2731.93 L2233.32,2731.94 L2233.82,2732.07 L2239.37,2734.91 L2241.69,2734.83 L2241.84,2734.52 L2242.65,2734.76 L2247.03,2734.61 L2251.66,2734.29 L2256.12,2733.43 L2258.62,2733.03 L2259.22,2732.45 L2259.69,2732.29 L2261.61,2730.96 L2262.73,2730.91 L2263.56,2730.99 L2264.22,2730.66 L2268.87,2727.77 L2271.79,2726.19 L2275.43,2723.35 L2278.58,2720.74 L2282.59,2716.75 L2284.89,2713.93 L2285.1,2713.44 L2285.87,2712.1 L2286.92,2710.38 L2289.13,2707.8 L2290.6,2706.93 L2291.58,2706.39 L2293.6,2704.58 L2294.44,2703.07 L2297.08,2700.56 L2298.28,2700.33 L2300.21,2698.89 L2302.66,2696.89 L2305.16,2694.51 L2307.76,2690.79 L2308.87,2687.61 L2310.54,2683.85 L2312.26,2681.36 L2313.39,2678.35 L2313.91,2675.31 L2314.67,2671.67 L2314.66,2668.48 L2313.3,2665.35 L2313.43,2661.84 L2313.69,2658.82 L2314.69,2655.84 L2315.55,2651.8 L2316.96,2649.81 L2318.22,2646.89 L2319.05,2644.56 L2321.01,2641.1 L2322.28,2639.04 L2323.71,2631.36 L2324.44,2629.3 L2324.7,2625.75 L2325.77,2622.29 L2325.29,2620.12 L2325.27,2618.56 L2325.17,2618.4 L2325.14,2618.29 L2325.73,2616.88 L2325.97,2615.28 L2325.48,2613.23 L2323.81,2611.35 L2322.5,2608.92 L2321.42,2607.99 L2319.51,2606.36 L2318.9,2606.25 L2318.19,2605.91 L2316.18,2604.5 L2314.15,2601.88 L2311.95,2599.5 L2309.33,2596.77 L2307.54,2595.06 L2306.15,2593.02 L2304.82,2591.68 L2303.61,2589.77 L2301.19,2585.78 L2299.96,2583.75 L2297.65,2580.92 L2296.68,2580.13 L2296.16,2578.95 L2294.6,2576.92 L2292.09,2577.06 L2291.01,2580.16 L2291,2582.23 L2290.29,2582.6 L2289.57,2585.03 L2287.78,2593.34 L2287.77,2593.4 L2287.67,2593.48 L2285.36,2595.16 L2284.76,2596.1 L2283.98,2597.3 L2283.1,2598.67 L2282.51,2601.9 L2282.4,2604.75 L2281.31,2613.23 L2279.4,2620.53 L2278.45,2622.55 L2275.92,2625.4 L2275.45,2630.25 L2275.88,2632.33 L2275.92,2632.52 L2275.71,2632.74 L2275.42,2633.06 L2274.47,2634.69 L2271.92,2636.83 L2270.16,2639.9 L2268.23,2644.8 L2266,2651.1 L2265.69,2651.96 L2258.99,2661.69 L2255.75,2664.97 L2254.78,2665.82 L2252.83,2667.52 L2250.53,2669.43 L2248.14,2670.86 L2248.04,2671.01 L2247.3,2672.07 L2246.23,2671.49 L2246.12,2671.43 L2243.61,2672.1 L2239.3,2676.28 L2236.55,2679.52 L2233.6,2682.15 L2230.69,2684.52 L2227.32,2687.91 L2220.02,2693.04 L2216.42,2696.69 L2209.49,2699.79 L2206.13,2702.63 L2201.92,2703.31 L2199.97,2703.51 L2199.51,2703.55 L2199.31,2703.41 L2198.91,2703.12 L2196.61,2702.5 L2194.35,2702.1 L2193.4,2702.3 L2192.01,2701.95 L2188.31,2702.49 L2185.89,2703.22 L2185.58,2703.31 L2185.43,2703.29 L2183.53,2703.05 L2181.4,2703.53 L2178.54,2703.92 L2175.92,2704.46 L2174.59,2705.12 L2172.48,2705.33 L2171.75,2705.65 L2171.46,2705.77 L2171.24,2705.87 L2171.16,2705.9 M1827.86,2568.59 L1826.92,2568.26 L1826.27,2568.03 L1827.11,2571.8 L1829.24,2575.46 L1831.36,2578.28 L1835.27,2582.41 L1835.48,2582.6 L1836.27,2583.35 L1837.41,2584.42 L1839.19,2585.54 L1839.24,2584.99 L1839.29,2584.51 L1839.3,2584.43 L1841.65,2583.69 L1844.01,2586.53 L1846.01,2588.34 L1847.97,2593.11 L1855.28,2596.45 L1859.65,2597.88 L1863.66,2599 L1869.61,2603.2 L1871.35,2605.87 L1872.41,2606.17 L1875.37,2610.17 L1877.94,2615.53 L1880.91,2619.87 L1881.9,2623.91 L1883.04,2627.03 L1888,2632.35 L1889.99,2636.41 L1892.1,2646.1 L1891.73,2649.47 L1891.85,2653.5 L1893.22,2657.86 L1893.9,2658 L1894,2658.02 L1894.01,2658.34 L1894.09,2659.85 L1895.21,2664.59 L1900.06,2670.06 L1908.87,2676.78 L1912.61,2678.74 L1915.09,2679.45 L1915.21,2679.32 L1918.02,2679.65 L1920.03,2680.03 L1920.29,2680.08 L1921.1,2680.45 L1922.04,2680.88 L1925.47,2682.17 L1925.74,2682 L1926.48,2682.07 L1928.95,2682.66 L1932.65,2683.25 L1934.93,2684.35 L1936.32,2685.02 L1937.53,2685.89 L1938.45,2686.56 L1939.67,2687.44 L1941.59,2690.46 L1941.73,2690.68 L1942.56,2691.84 L1943.3,2692.46 L1943.43,2692.91 L1946.28,2696.83 L1950.2,2699.04 L1954.49,2701.74 L1961.44,2705.52 L1966.93,2709.31 L1971.5,2711.96 L1973.86,2714.07 L1977.57,2715.32 L1978.21,2715.61 L1978.36,2715.36 L1981.08,2716.31 L1983.31,2715.89 L1984.43,2715.88 L1984.29,2714.99 L1984.89,2714.62 L1984.83,2712.97 L1984.07,2709.47 L1979.58,2702.01 L1974.77,2696.43 L1974.68,2696.33 L1974.66,2696.3 L1973.8,2694.53 L1973.67,2694.03 L1973.39,2692.88 L1972.27,2688.37 L1970.3,2684.62 L1969.62,2684.1 L1969.06,2683.68 L1967.73,2681.24 L1967.59,2680.86 L1966.44,2677.5 L1966.02,2675.03 L1965.21,2672.73 L1964.92,2670.84 L1964.2,2668.12 L1963.59,2665.14 L1960.26,2660.37 L1956.55,2655.31 L1955.83,2654.75 L1954.25,2653.52 L1952.71,2651.53 L1952.04,2650.66 L1951,2649.11 L1950.16,2647.41 L1949.34,2646.39 L1948.81,2646.11 L1947.76,2645.57 L1947.15,2644.67 L1946.4,2644.63 L1945.82,2644.42 L1945.17,2643.84 L1944.58,2643.31 L1943.37,2642.23 L1942.4,2641.36 L1941.35,2641.12 L1941.07,2641.05 L1940.13,2640.83 L1940.01,2640.8 L1939.31,2639.95 L1938.35,2638.76 L1936.53,2637.2 L1935.56,2636.37 L1932.9,2633.34 L1931.09,2631.28 L1927.83,2628.32 L1927.29,2627.82 L1926.42,2627.04 L1923.15,2624.24 L1919.7,2620.72 L1918.98,2619.99 L1917.24,2618.76 L1915.79,2618.41 L1914.45,2617.52 L1913.43,2616.83 L1909.88,2616.23 L1906.82,2615.62 L1897.42,2613.72 L1891.83,2612.21 L1887.86,2610.72 L1884,2607.46 L1881.15,2605.54 L1878.34,2603.07 L1874.82,2600.43 L1872.72,2599.79 L1870.66,2598.33 L1865.78,2595.58 L1863.74,2594.32 L1861.39,2593.13 L1861.32,2592.84 L1861.3,2592.75 L1861.03,2592.7 L1860.69,2592.64 L1858.48,2591.89 L1856.61,2591.73 L1855.23,2591.34 L1852.95,2590.92 L1851.48,2590.13 L1850.44,2589.39 L1849.51,2588.62 L1848.71,2588.25 L1844.95,2584.97 L1844.04,2584.3 L1843.78,2584.11 L1842.52,2583.19 L1842.19,2582.94 L1842.15,2582.91 L1841.94,2582.76 L1840.65,2581.67 L1840.38,2581.44 L1839.02,2580.31 L1838.57,2579.93 L1835.89,2577.17 L1835.25,2576.18 L1834.69,2575.32 L1834.27,2574.77 L1833.56,2574.06 L1832.7,2573.58 L1832.57,2573.15 L1832.21,2572.54 L1831.63,2572.35 L1831.6,2572.34 L1831.55,2572.26 L1831.41,2572 L1829.8,2570.08 L1829.41,2569.85 L1828.98,2569.6 L1828.73,2569.74 L1827.86,2568.59 M1931.2,2616.13 L1931.2,2616.12 L1928.22,2615.14 L1926.37,2613.45 L1925.76,2613.2 L1925.51,2613.1 L1923.82,2611.44 L1923.75,2611.37 L1923.75,2611.37 L1923,2613.45 L1924.25,2616.97 L1925.52,2619.07 L1926.61,2622.01 L1926.62,2622.03 L1930.07,2625.65 L1930.07,2625.65 L1930.99,2624.18 L1930.99,2624.18 L1930.91,2624.13 L1930.65,2623.97 L1930.6,2623.9 L1930.48,2623.74 L1930.59,2622.93 L1930.59,2622.92 L1931.1,2620.91 L1931.11,2620.89 L1931.41,2619.25 L1931.45,2619.05 L1931.94,2617.53 L1931.95,2617.52 L1931.6,2616.88 L1931.5,2616.69 L1931.44,2616.57 L1931.2,2616.13 M2268.52,2606.94 L2267.88,2606.39 L2267.61,2606.41 L2265.95,2606.52 L2265.09,2608.91 L2263.1,2613.41 L2262.74,2618.14 L2261.89,2624.37 L2262.61,2626.26 L2262.82,2626.82 L2262.85,2626.92 L2263.02,2626.85 L2263.05,2627.11 L2263.24,2627.38 L2263.59,2627.67 L2263.94,2627.26 L2264.47,2627.17 L2266.19,2625.23 L2266.81,2623.97 L2267.8,2622.87 L2268.05,2622.23 L2268.64,2621.39 L2269.04,2620.66 L2269.25,2619.98 L2269.34,2619.09 L2269.57,2618.23 L2270.24,2617.95 L2270.39,2617.57 L2270.74,2617.08 L2270.97,2616.14 L2271.44,2615.21 L2271.41,2612.66 L2271.05,2611.38 L2270.73,2610.93 L2270.61,2610.3 L2270.82,2608.85 L2270.8,2608.39 L2270.39,2607.83 L2269.9,2607.65 L2269.84,2607.65 L2269.28,2607.6 L2268.76,2607.15 L2268.52,2606.94 M2263.44,2599.26 L2262.61,2600.85 L2261.79,2602.99 L2261.79,2603 L2261.59,2603.98 L2261.41,2604.92 L2261.65,2606.62 L2261.66,2606.66 L2262.19,2605.88 L2262.33,2606.39 L2262.62,2606.2 L2262.67,2606.17 L2263.28,2605.52 L2263.52,2605.23 L2263.83,2604.85 L2264.86,2603.3 L2265.17,2602.99 L2265.6,2602.56 L2266.01,2601.94 L2266.21,2601.65 L2267.53,2599.75 L2267.57,2599.7 L2267.72,2599.44 L2268.19,2598.58 L2268.56,2598.07 L2268.96,2597.52 L2269.22,2597.07 L2269.74,2596.16 L2270.02,2595.9 L2271.04,2594.98 L2271.73,2593.87 L2272.39,2593.12 L2272.39,2593.12 L2273.02,2592.09 L2273.34,2591.56 L2273.56,2591.21 L2274.19,2589.97 L2274.85,2588.92 L2274.85,2588.92 L2274.91,2588.17 L2274.91,2588.17 L2274.91,2588.17 L2275.56,2587.04 L2275.72,2586.49 L2275.78,2586.28 L2275.71,2586.22 L2275.68,2586.19 L2275.47,2585.51 L2275.47,2585.5 L2275.54,2581.46 L2275.53,2581.19 L2275.53,2580.78 L2275.53,2580.77 L2275.57,2580.71 L2275.6,2580.67 L2275.76,2580.41 L2275.79,2580.36 L2275.84,2580.29 L2275.84,2580.28 L2275.84,2579.06 L2275.66,2578.34 L2275.38,2578.11 L2275.16,2577.31 L2275.07,2576.97 L2275.07,2576.96 L2274.34,2576.56 L2273.64,2577.25 L2273.39,2577.51 L2272.81,2578.8 L2272.78,2578.87 L2272.47,2579.42 L2272.38,2579.57 L2272.33,2579.65 L2271.48,2581.14 L2271.35,2581.95 L2269.19,2585.75 L2269.19,2585.76 L2269.15,2585.82 L2268.23,2587.23 L2267.03,2589.55 L2267.02,2589.56 L2264.59,2593.61 L2264.53,2593.7 L2263.81,2596.26 L2263.81,2597.44 L2263.81,2598.16 L2263.69,2598.52 L2263.44,2599.26 M1916.83,2603.16 L1918,2603.68 L1919.76,2604.49 L1921.07,2605.96 L1922.66,2607.37 L1923.09,2608.24 L1923.31,2608.39 L1923.35,2608.54 L1925.11,2610.95 L1925.89,2611.72 L1928.1,2613.89 L1932.07,2615.14 L1933.43,2618.37 L1933.06,2621.05 L1933.07,2621.31 L1933.12,2622.48 L1933.19,2624.26 L1936.29,2630.42 L1937.02,2630.53 L1939.53,2632.67 L1949.08,2643.03 L1952.19,2645.14 L1956.3,2646.96 L1961.4,2653.41 L1965.74,2663.92 L1969.22,2669.67 L1969.72,2674.02 L1971.58,2678.22 L1973.69,2681.86 L1975.5,2683.64 L1976.47,2686.16 L1978.67,2691.12 L1982.15,2700.81 L1984.65,2705.16 L1986.49,2708.91 L1988.6,2711.58 L1992.95,2715.64 L1997.31,2718.6 L2002.03,2720.56 L2008,2721.68 L2015.2,2725.88 L2017.93,2728.12 L2019.18,2729.67 L2024.74,2732.95 L2028.87,2735.28 L2029.76,2734.64 L2029.99,2734.85 L2033.6,2736.26 L2036.81,2736.52 L2040.67,2737.65 L2044.15,2738.91 L2046.88,2740.88 L2050,2741.72 L2053.24,2743.4 L2056.76,2743.83 L2060.85,2743.87 L2068.1,2743.96 L2072.26,2743.54 L2076.83,2741.44 L2079.08,2739.9 L2080.18,2739.07 L2082.06,2738.35 L2083.49,2734.78 L2084.6,2734 L2085.55,2732.79 L2086.03,2731.32 L2086.74,2730.11 L2087.92,2728.7 L2089.37,2725.81 L2089.85,2724.61 L2090.55,2723.41 L2092.7,2722.21 L2093.88,2720.25 L2094.85,2719.29 L2096.51,2718.13 L2097.71,2716.65 L2098.65,2716.44 L2101.07,2715.45 L2102,2714.72 L2103.71,2714.01 L2104.92,2713.02 L2105.68,2712.5 L2106.86,2711.82 L2107.5,2711.36 L2109.23,2710.85 L2111.1,2710.16 L2112.3,2709.12 L2113.42,2708.54 L2115.02,2707.44 L2117.81,2705.01 L2119.64,2702.94 L2122.1,2702.34 L2122.77,2701.94 L2123.71,2701.27 L2124.42,2701.08 L2125.78,2700.5 L2127.23,2700.06 L2128.36,2699.17 L2129.3,2697.82 L2130.09,2696.76 L2130.77,2696.1 L2131.01,2695.6 L2131.89,2694.97 L2134.02,2694 L2135.52,2693.58 L2135.65,2693.72 L2136.48,2693.71 L2137.55,2693.59 L2138.4,2693.44 L2139.69,2693.06 L2141.01,2692.87 L2142.08,2692.81 L2143.42,2692.35 L2143.78,2692.26 L2144.49,2692.06 L2145.28,2691.64 L2146.1,2691.41 L2146.98,2691 L2147.93,2690.97 L2148.35,2691.01 L2148.24,2691.36 L2147.35,2691.9 L2146.67,2692.22 L2145.68,2692.69 L2145.48,2693.16 L2147.96,2693.15 L2149.63,2692.75 L2150.4,2692.6 L2150.8,2692.03 L2150.79,2691.29 L2151.19,2690.82 L2152.2,2690.64 L2152.97,2690.17 L2153.92,2689.84 L2154.43,2689.61 L2155.23,2689.23 L2156.11,2688.69 L2156.62,2688.23 L2157.12,2687.69 L2157.7,2687.19 L2158.42,2686.82 L2159.11,2686.75 L2164.37,2686.74 L2164.62,2686.03 L2166.58,2685.81 L2166.75,2685.79 L2168.98,2685.79 L2169.08,2685.84 L2170.05,2686.39 L2172.71,2686.17 L2174.31,2685.64 L2175.58,2685.61 L2177.03,2684.97 L2177.89,2684.21 L2178.58,2683.78 L2179.53,2683.51 L2181.24,2683.52 L2182.27,2683.38 L2184.12,2683.21 L2185.09,2683.16 L2185.85,2682.83 L2187.15,2682.28 L2187.56,2682.28 L2187.86,2682.38 L2188.35,2682.98 L2189.11,2682.71 L2190.07,2682 L2191.72,2680.71 L2192.71,2679.82 L2193.49,2679.19 L2194.71,2678.79 L2195.32,2678.56 L2195.94,2678.22 L2196.84,2677.76 L2197.33,2677.42 L2198.25,2676.38 L2198.77,2675.86 L2199.65,2675.36 L2200.76,2674.85 L2201.76,2674.15 L2202.89,2673.93 L2203.62,2673.71 L2204.27,2673.15 L2204.46,2672.74 L2205.64,2672.24 L2207.9,2672.13 L2212.2,2671.98 L2213.27,2671.79 L2215.7,2671.62 L2216.79,2671.4 L2217.41,2670.99 L2217.99,2670.42 L2219.17,2670.25 L2220.15,2670.21 L2220.84,2670.03 L2222.55,2670.03 L2224.5,2670.17 L2226.92,2669.98 L2227.58,2669.76 L2227.8,2669.18 L2228.33,2669.02 L2229.04,2669.37 L2229.78,2669.19 L2230.88,2668.36 L2231.98,2667.03 L2232.45,2665.92 L2234.88,2662.73 L2235.83,2661.58 L2237.25,2660.06 L2238.37,2658.71 L2240.68,2656.29 L2241.43,2655.3 L2241.93,2654.85 L2243.2,2652.97 L2244.4,2651.5 L2246.01,2649.88 L2246.57,2648.79 L2247.16,2647.92 L2247.79,2647.12 L2248.58,2646.41 L2249.15,2645.85 L2250.74,2644.63 L2251.39,2643.9 L2251.9,2642.89 L2252.13,2641.33 L2252.64,2640.26 L2252.95,2639.28 L2253.21,2637.56 L2253.19,2636.32 L2253.44,2634.9 L2253.44,2634.16 L2253.66,2632.52 L2253.67,2630.11 L2253.92,2628.91 L2253.9,2627.7 L2254.13,2626.03 L2254.12,2625.31 L2254.6,2623.86 L2255.33,2622.9 L2255.52,2621.62 L2256.41,2621.04 L2256.88,2620.6 L2257.03,2619.77 L2257.25,2619.15 L2257.39,2618.42 L2257.59,2617.84 L2257.87,2616.75 L2258.13,2615.71 L2258.25,2614.12 L2258.25,2612.61 L2258.4,2611.03 L2259.25,2608.72 L2259.5,2607.87 L2259.61,2607.42 L2260.07,2606.78 L2260.55,2605.37 L2260.53,2603.44 L2261.27,2601.26 L2261.47,2600.11 L2261.66,2599.81 L2262.16,2598 L2262.49,2596.36 L2262.88,2594.56 L2263.18,2593.53 L2264.8,2590.22 L2265.03,2589.13 L2265.77,2588.02 L2266.31,2586.65 L2266.86,2585.81 L2267.59,2584.91 L2268.09,2584.04 L2268.8,2583.5 L2269.55,2582.57 L2270.29,2582.09 L2270.76,2580.53 L2271.03,2579.16 L2271.24,2577.44 L2271.43,2576.79 L2271.93,2574.81 L2272.13,2573.03 L2273.1,2571.41 L2273.52,2570.13 L2274.21,2568.32 L2274.78,2566.03 L2274.92,2565.81 L2275.27,2564.48 L2275.26,2562.31 L2275.51,2561.05 L2275.66,2560.45 L2275.65,2560.33 L2275.06,2559.17 L2274.12,2556.71 L2273.57,2554.74 L2273.59,2553.62 L2273.5,2552.71 L2273.51,2551.57 L2273.42,2550.32 L2273.14,2549.06 L2272.88,2547.53 L2270.94,2542.59 L2270.13,2540.99 L2270.12,2540.97 L2269.85,2539.75 L2269.39,2539.4 L2268.87,2539.39 L2268.28,2538.39 L2267.97,2537.86 L2266.99,2538.21 L2266.69,2538.32 L2263.94,2539.3 L2263.68,2539.39 L2261.38,2540.22 L2258.34,2541.3 L2258.2,2541.32 L2257.95,2541.35 L2254.99,2541.72 L2252.66,2542.13 L2252.43,2542.17 L2247.99,2542.95 L2246.95,2543.13 L2243.96,2543.56 L2242.83,2543.73 L2239.13,2544.85 L2228.98,2546.67 L2223.86,2547.07 L2222.5,2547.17 L2220.2,2546.97 L2217.97,2545.85 L2216.88,2546.05 L2216.48,2545.88 L2214.22,2544.74 L2214.24,2544.63 L2211.81,2542.93 L2211.22,2542.37 L2210.59,2542.05 L2210.43,2541.72 L2208,2540.79 L2205.02,2540.79 L2204.73,2540.67 L2200.97,2539.17 L2194.08,2535.64 L2191.87,2534.43 L2189.22,2532.89 L2184.42,2530.01 L2183.25,2529.32 L2181.61,2528.45 L2180.8,2528.78 L2178.83,2527.33 L2171.17,2524.39 L2166.41,2522.17 L2163.46,2520.95 L2160.85,2517.69 L2159.26,2515.71 L2158.49,2514.61 L2158.23,2514.24 L2157.55,2513.37 L2157.13,2512.85 L2156.83,2512.47 L2154.93,2510.62 L2152.96,2508.91 L2152.7,2508.85 L2151.77,2508.63 L2149.95,2506.94 L2148.14,2505.41 L2146.09,2504.08 L2144.53,2502.64 L2143.64,2501.76 L2141.16,2499.7 L2138.36,2497.94 L2136.58,2496.34 L2134.76,2494.36 L2132.75,2493.07 L2131.15,2492.32 L2129.61,2490.94 L2128.36,2490.01 L2126.61,2488.88 L2126.08,2488.67 L2125.32,2487.57 L2124.68,2486.64 L2120.29,2483.51 L2116.51,2481.99 L2111.82,2480.86 L2106,2479.16 L2105.42,2479.46 L2095.4,2476.22 L2094.81,2475.81 L2091.15,2473.25 L2086.6,2470.34 L2086.37,2470.15 L2083.47,2467.73 L2079.64,2465.43 L2077.93,2464.41 L2074.39,2462.56 L2071.87,2460.73 L2070.05,2459.08 L2069.26,2458.31 L2068.01,2457.08 L2066.41,2455.08 L2066.14,2454.4 L2065.97,2453.97 L2065.24,2453.35 L2064.52,2452.95 L2062.91,2451.43 L2060.47,2450.49 L2059.9,2450.26 L2059.64,2449.87 L2058.91,2449.49 L2058.44,2449.46 L2056.71,2448.58 L2055.61,2447.07 L2054,2445.27 L2053.72,2444.82 L2052.76,2443.24 L2051.93,2442.53 L2051.83,2442.51 L2051.38,2442.4 L2050.81,2442.04 L2050.32,2441.51 L2050.2,2440.94 L2050.06,2440.68 L2050.01,2440.36 L2049.81,2439.98 L2048.89,2438.26 L2048.77,2436.72 L2047.52,2434.9 L2046.27,2433.91 L2044.29,2432.93 L2044.16,2432.89 L2043.12,2432.57 L2042.63,2432.06 L2041.53,2430.74 L2041.38,2430.12 L2040.38,2429.12 L2040.2,2428.94 L2039.41,2428.03 L2038.91,2427.38 L2038.34,2426.92 L2037.18,2426 L2036.36,2425.52 L2035.22,2424.46 L2034.72,2423.5 L2033.94,2422.21 L2032.64,2420.67 L2031.53,2419.73 L2030.7,2419.2 L2029.69,2418.72 L2029.06,2417.25 L2028.91,2416.41 L2028.94,2415.71 L2028.56,2414.82 L2028.37,2414.4 L2027.49,2413.37 L2026.83,2412.25 L2025.62,2410.77 L2025.08,2410.36 L2025.07,2410.35 L2025.04,2410.31 L2024.03,2408.84 L2022.33,2407.56 L2020.2,2405.78 L2018.99,2404.01 L2017.59,2402.42 L2016.24,2401.35 L2015.88,2401.07 L2015.07,2400.42 L2013.33,2398.48 L2012.3,2397.23 L2012.01,2396.87 L2010.04,2395.19 L2008.65,2394.28 L2006.96,2393.18 L2003.63,2390.44 L2001.43,2388.47 L2000.71,2387.82 L1998.86,2386.46 L1998.24,2386.67 L1992.6,2381.94 L1982.45,2376.17 L1977.86,2374.91 L1977.76,2374.88 L1977.65,2374.81 L1970.15,2369.86 L1965.61,2368.19 L1964.66,2368.54 L1964.64,2368.55 L1964.58,2368.52 L1963.62,2368.08 L1962.32,2367.95 L1960.53,2367.77 L1959.15,2368.4 L1957.01,2369.98 L1953.26,2370.7 L1950.92,2369.87 L1942.53,2367.35 L1937.53,2364.57 L1937.45,2364.52 L1935.48,2363.8 L1934.84,2364.49 L1934.65,2364.7 L1933.72,2364.52 L1932.7,2364.65 L1930.32,2364.94 L1927.18,2364.61 L1921.88,2365.66 L1919.22,2366.63 L1916.92,2367.26 L1913.71,2367.24 L1911.23,2367.03 L1909.79,2367.03 L1905.79,2366.06 L1904.62,2365.77 L1903.87,2365.34 L1900.98,2363.68 L1895.46,2364.09 L1891.92,2364.94 L1885.52,2365.35 L1882.36,2366.3 L1881.7,2367.46 L1881.7,2369.05 L1881.05,2370.83 L1877.87,2371.85 L1873.11,2372.07 L1868.77,2374.26 L1867.82,2375.44 L1862.51,2377.74 L1861.01,2378.16 L1858.87,2379.32 L1856.91,2380.69 L1854.67,2380.89 L1853.12,2381.73 L1852.52,2382.06 L1851.56,2382.32 L1851.04,2382.47 L1848.97,2383.3 L1847.51,2384.8 L1846.33,2385.31 L1844.03,2385.61 L1842.01,2385.4 L1839.94,2386.36 L1840.33,2387.72 L1840.15,2389.41 L1838.73,2391.32 L1836.98,2392.55 L1835.64,2394.07 L1835.06,2394.84 L1833.15,2398.03 L1830.82,2398.97 L1830.35,2401.17 L1828.29,2404.54 L1825.87,2405.57 L1825.63,2406.37 L1823.72,2406.62 L1818.44,2409.28 L1810.02,2412.52 L1807.88,2414.1 L1806.15,2415.75 L1804.92,2416.92 L1803.63,2417.25 L1802.86,2417.45 L1800.1,2417.44 L1798.18,2417.54 L1796.83,2417.13 L1791.52,2417.45 L1788.31,2419.11 L1785.6,2420.4 L1784.14,2421.64 L1782.05,2422.68 L1778.92,2425.19 L1771.85,2433.7 L1768.84,2435.94 L1767.15,2438.27 L1766.16,2440.93 L1763.92,2444.19 L1762.68,2446.44 L1761.94,2450.24 L1760.72,2453.6 L1760.06,2454.44 L1759.44,2455.67 L1758.96,2455.98 L1757.72,2458.45 L1756.14,2460.19 L1753.46,2461.35 L1751.81,2463.02 L1751.48,2463.36 L1748.52,2465.03 L1746.23,2466 L1746.14,2466.03 L1733.52,2469.96 L1731.56,2470.28 L1728.2,2471.34 L1726.56,2471.53 L1722.96,2472.72 L1714.15,2474.67 L1709.77,2475.42 L1707.42,2477.1 L1703.15,2478.6 L1696.07,2482.13 L1694.24,2483.67 L1691.67,2486.14 L1688.6,2487.4 L1687.65,2488.24 L1683.93,2491.07 L1682.54,2491.38 L1683.44,2493.2 L1686.06,2494.43 L1688.16,2497.53 L1693.32,2499.14 L1696.06,2499.48 L1696.34,2499.43 L1696.77,2499.54 L1703.05,2500.6 L1704.65,2500.87 L1704.94,2500.92 L1708.24,2501.38 L1713.64,2501.7 L1720.02,2501.81 L1722.55,2501.79 L1726.26,2502.5 L1729.93,2503.97 L1733.81,2504.6 L1737.57,2505.4 L1741.09,2505.05 L1743.7,2504.21 L1744.76,2503.5 L1748.05,2502.6 L1750.22,2501.87 L1751.78,2501.39 L1753.02,2501.16 L1755.15,2500.94 L1757.38,2501.29 L1766.4,2504.79 L1769.65,2505.21 L1770.49,2505.76 L1771.04,2505.88 L1771.43,2506.66 L1774.77,2509.59 L1779.02,2511.43 L1785.49,2513.26 L1791.18,2514.09 L1798.19,2515.92 L1802.39,2517.75 L1809.7,2525.44 L1814.42,2534.75 L1816.56,2540.17 L1819.16,2545.46 L1821.52,2549.94 L1821.83,2549.9 L1822.4,2551.51 L1826.61,2555.84 L1826.93,2555.31 L1828.12,2558.11 L1834.27,2564.09 L1836.57,2565.79 L1840.16,2567.46 L1844.62,2569 L1848.72,2571.4 L1851.72,2571.81 L1853.58,2572.52 L1859.28,2580.21 L1874.57,2591.98 L1878.19,2592.83 L1878.32,2592.79 L1879.98,2593.36 L1882.07,2593.68 L1884.84,2594.01 L1889.12,2594.77 L1893.94,2595.7 L1896.25,2595.99 L1897.43,2596.44 L1897.48,2596.29 L1898.75,2596.69 L1901.1,2597.63 L1903.8,2599.05 L1906.5,2600.03 L1908.71,2600.34 L1909.85,2600.64 L1912.4,2601.34 L1913.57,2601.82 L1916.83,2603.16 M2163.65,2689.96 L2161.36,2689.88 L2159.52,2690.84 L2156.86,2691.95 L2153.73,2694.07 L2153.66,2694.77 L2153.53,2694.78 L2151.79,2698.65 L2152.78,2699.9 L2156.12,2698.4 L2160.5,2694.89 L2160.75,2694.93 L2161.22,2694.88 L2161.75,2694.78 L2162.3,2694.62 L2162.73,2694.27 L2163.21,2694.14 L2163.33,2694.13 L2163.85,2693.81 L2164.38,2693.29 L2164.88,2693.07 L2164.89,2692.99 L2165.77,2693.12 L2166.95,2692.8 L2167.24,2691.62 L2165.42,2690.67 L2163.65,2689.96 M1284.85,2444.1 L1285.68,2444.24 L1285.95,2444.28 L1285.98,2444.55 L1286.17,2445.91 L1290.6,2449.95 L1292.36,2452.47 L1295.1,2453.83 L1300.34,2455.77 L1301.64,2455.76 L1304.23,2457.15 L1308.63,2457.67 L1311.1,2457.78 L1313.3,2456.8 L1313.91,2456.92 L1315.14,2456.9 L1316.23,2456.16 L1316.12,2455.52 L1315.77,2455.16 L1315.72,2454.41 L1314.42,2453.58 L1311.71,2451.61 L1306.93,2448.79 L1304.24,2446.9 L1297.1,2442.5 L1293.92,2440.85 L1292.38,2440.49 L1286.99,2437.82 L1284.17,2437.18 L1283.91,2437.38 L1282.21,2438.68 L1281.7,2439.07 L1281.68,2441.63 L1284.85,2444.1" vector-effect="none"/>
  </g>
  <g stroke="#000000" stroke-linejoin="bevel" stroke-linecap="square" font-style="normal" font-size="34.5833" font-family="MS Shell Dlg 2" font-weight="400" stroke-width="1" stroke-opacity="1" transform="matrix(0.999744,0,0,0.999744,0,0)" fill="none"/>
  <g stroke="#000000" stroke-linejoin="bevel" stroke-linecap="square" font-style="normal" font-size="34.5833" font-family="MS Shell Dlg 2" font-weight="400" stroke-width="1" stroke-opacity="1" transform="matrix(11.808,0,0,11.808,0,0)" fill="none"/>
  <g stroke="#000000" stroke-linejoin="bevel" stroke-linecap="square" font-style="normal" font-size="34.5833" font-family="MS Shell Dlg 2" font-weight="400" stroke-width="1" stroke-opacity="1" transform="matrix(11.808,0,0,11.808,0,0)" fill="none"/>
  <g stroke="#000000" stroke-linejoin="bevel" stroke-linecap="square" font-style="normal" font-size="34.5833" font-family="MS Shell Dlg 2" font-weight="400" stroke-width="1" stroke-opacity="1" transform="matrix(11.808,0,0,11.808,0,0)" fill="none"/>
  <g stroke="#000000" stroke-linejoin="bevel" stroke-linecap="square" font-style="normal" font-size="34.5833" font-family="MS Shell Dlg 2" font-weight="400" stroke-width="1" stroke-opacity="1" transform="matrix(1,0,0,1,0,0)" fill="none"/>
  <g stroke="#000000" stroke-linejoin="bevel" stroke-linecap="square" font-style="normal" font-size="34.5833" font-family="MS Shell Dlg 2" font-weight="400" stroke-width="1" stroke-opacity="1" transform="matrix(11.808,0,0,11.808,0,0)" fill="none"/>
  <g stroke="#000000" stroke-linejoin="bevel" stroke-linecap="square" font-style="normal" font-size="34.5833" font-family="MS Shell Dlg 2" font-weight="400" stroke-width="1" stroke-opacity="1" transform="matrix(11.808,0,0,11.808,0,0)" fill="none"/>
  <g stroke="#000000" stroke-linejoin="bevel" stroke-linecap="square" font-style="normal" font-size="34.5833" font-family="MS Shell Dlg 2" font-weight="400" stroke-width="1" stroke-opacity="1" transform="matrix(11.808,0,0,11.808,0,0)" fill="none"/>
  <g stroke="#000000" stroke-linejoin="bevel" stroke-linecap="square" font-style="normal" font-size="34.5833" font-family="MS Shell Dlg 2" font-weight="400" stroke-width="1" stroke-opacity="1" transform="matrix(11.808,0,0,11.808,0,0)" fill="none"/>
  <g stroke="#000000" stroke-linejoin="bevel" stroke-linecap="square" font-style="normal" font-size="34.5833" font-family="MS Shell Dlg 2" font-weight="400" stroke-width="1" stroke-opacity="1" transform="matrix(1,0,0,1,0,0)" fill="none"/>
 </g>
</svg>
