<?xml version='1.0' encoding='UTF-8' standalone='no'?>
<svg xmlns:xlink="http://www.w3.org/1999/xlink" viewBox="0 0 2952 2952" xmlns="http://www.w3.org/2000/svg" height="249.936mm" version="1.2" baseProfile="tiny" width="249.936mm">
 <title>Qt SVG Document</title>
 <desc>Generated with Qt</desc>
 <defs/>
 <g fill-rule="evenodd" stroke-width="1" stroke="black" stroke-linejoin="bevel" stroke-linecap="square" fill="none">
  <g font-weight="400" transform="matrix(1,0,0,1,0,0)" font-size="34.5833" font-style="normal" stroke-width="1" stroke-opacity="1" stroke="#000000" stroke-linejoin="bevel" font-family="MS Shell Dlg 2" stroke-linecap="square" fill="none"/>
  <g font-weight="400" transform="matrix(1,0,0,1,0,0)" font-size="34.5833" font-style="normal" stroke-width="1" stroke-opacity="1" stroke="#000000" stroke-linejoin="bevel" font-family="MS Shell Dlg 2" stroke-linecap="square" fill="none"/>
  <g font-weight="400" transform="matrix(11.808,0,0,11.808,0,0)" font-size="34.5833" font-style="normal" stroke-width="1" stroke-opacity="1" stroke="#000000" stroke-linejoin="bevel" font-family="MS Shell Dlg 2" stroke-linecap="square" fill="none"/>
  <g font-weight="400" transform="matrix(0.999744,0,0,0.999744,0,0)" font-size="34.5833" font-style="normal" stroke-width="1" stroke-opacity="1" stroke="#000000" stroke-linejoin="bevel" font-family="MS Shell Dlg 2" stroke-linecap="square" fill="none"/>
  <g font-weight="400" transform="matrix(0.999744,0,0,0.999744,0,0)" font-size="34.5833" font-style="normal" stroke="none" font-family="MS Shell Dlg 2" fill-opacity="0" fill="#ffffff">
   <path fill-rule="evenodd" d="M-2,-2 L2955,-2 L2955,2955 L-2,2955 L-2,-2" vector-effect="none"/>
  </g>
  <g font-weight="400" transform="matrix(0.999744,0,0,0.999744,0,0)" font-size="34.5833" font-style="normal" stroke-width="1" stroke-opacity="1" stroke="#000000" stroke-linejoin="bevel" font-family="MS Shell Dlg 2" stroke-linecap="square" fill="none"/>
  <g font-weight="400" transform="matrix(11.808,0,0,11.808,0,0)" font-size="34.5833" font-style="normal" stroke-width="1" stroke-opacity="1" stroke="#000000" stroke-linejoin="bevel" font-family="MS Shell Dlg 2" stroke-linecap="square" fill="none"/>
  <g font-weight="400" transform="matrix(11.808,0,0,11.808,0,0)" font-size="34.5833" font-style="normal" stroke-width="1" stroke-opacity="1" stroke="#000000" stroke-linejoin="bevel" font-family="MS Shell Dlg 2" stroke-linecap="square" fill="none"/>
  <g font-weight="400" transform="matrix(11.808,0,0,11.808,0,0)" font-size="34.5833" font-style="normal" stroke-width="1" stroke-opacity="1" stroke="#000000" stroke-linejoin="bevel" font-family="MS Shell Dlg 2" stroke-linecap="square" fill="none"/>
  <g font-weight="400" transform="matrix(11.808,0,0,11.808,0,0)" font-size="34.5833" font-style="normal" stroke-width="1" stroke-opacity="1" stroke="#000000" stroke-linejoin="bevel" font-family="MS Shell Dlg 2" stroke-linecap="square" fill="none"/>
  <g font-weight="400" transform="matrix(11.808,0,0,11.808,0,0)" font-size="34.5833" font-style="normal" stroke-width="1" stroke-opacity="1" stroke="#000000" stroke-linejoin="bevel" font-family="MS Shell Dlg 2" stroke-linecap="square" fill="none"/>
  <g font-weight="400" transform="matrix(11.808,0,0,11.808,0,0)" font-size="34.5833" font-style="normal" stroke="none" font-family="MS Shell Dlg 2" fill-opacity="0" fill="#ffffff">
   <path fill-rule="evenodd" d="M0,0 L250,0 L250,250 L0,250 L0,0" vector-effect="none"/>
  </g>
  <g font-weight="400" transform="matrix(11.808,0,0,11.808,0,0)" font-size="34.5833" font-style="normal" stroke-width="1" stroke-opacity="1" stroke="#000000" stroke-linejoin="bevel" font-family="MS Shell Dlg 2" stroke-linecap="square" fill="none"/>
  <g font-weight="400" transform="matrix(11.808,0,0,11.808,0,0)" font-size="34.5833" font-style="normal" stroke-width="1" stroke-opacity="1" stroke="#000000" stroke-linejoin="bevel" font-family="MS Shell Dlg 2" stroke-linecap="square" fill="none"/>
  <g font-weight="400" transform="matrix(0.999744,0,0,0.999744,0,0)" font-size="34.5833" font-style="normal" stroke="none" font-family="MS Shell Dlg 2" fill-opacity="0" fill="#000000">
   <rect x="0" y="0" height="2953" width="2953"/>
  </g>
  <g font-weight="400" transform="matrix(0.999744,0,0,0.999744,0,0)" font-size="34.5833" font-style="normal" stroke-width="1" stroke-opacity="1" stroke="#000000" stroke-linejoin="bevel" font-family="MS Shell Dlg 2" stroke-linecap="square" fill="none"/>
  <g font-weight="400" transform="matrix(0.999744,0,0,0.999744,0,0)" font-size="34.5833" font-style="normal" stroke-width="1" stroke-opacity="1" stroke="#000000" stroke-linejoin="bevel" font-family="MS Shell Dlg 2" stroke-linecap="square" fill="none"/>
  <g font-weight="400" transform="matrix(0.999744,0,0,0.999744,0,0)" font-size="34.5833" font-style="normal" stroke-width="3.07087" stroke-opacity="1" stroke="#5c5c5c" stroke-linejoin="bevel" font-family="MS Shell Dlg 2" fill-opacity="1" stroke-linecap="square" fill="#c5c5c5">
   <path fill-rule="evenodd" d="M247.55,892.498 L248.337,895.963 L250.6,897.122 L250.903,899.108 L250.722,901.01 L254.736,906.563 L257.159,908.268 L259.311,910.303 L262.785,914.633 L265.857,918.683 L267.993,923.579 L275.939,929.759 L283.885,937.263 L291.831,942.56 L301.542,947.858 L307.281,952.272 L315.668,959.776 L323.173,966.398 L331.56,973.02 L339.947,978.758 L345.686,983.614 L352.749,987.146 L361.843,993.37 L370.406,997.299 L379.235,1003.48 L381.884,1009.66 L384.974,1015.84 L391.595,1021.58 L396.451,1025.55 L403.956,1029.97 L411.46,1033.94 L417.199,1036.59 L420.73,1039.68 L423.972,1046.17 L425.376,1050.74 L425.848,1054.53 L425.334,1057.53 L425.017,1058.91 L425.252,1060.44 L425.721,1061.32 L426.617,1062.39 L428.138,1062.69 L429.145,1062.27 L430.494,1062.52 L431.225,1063.01 L432.108,1064.06 L432.649,1065.57 L432.908,1066.77 L432.756,1067.99 L432.318,1069.63 L430.1,1073.63 L426.993,1076.9 L425.514,1080.22 L424.507,1083.69 L423.517,1085.34 L423.072,1087.07 L422.851,1089.26 L422.358,1091.12 L422.051,1092.54 L421.913,1093.59 L421.982,1094.58 L423.017,1095.41 L426.911,1096.62 L431.766,1099.89 L434.853,1101.14 L437.188,1102.9 L439.543,1105.33 L440.609,1107.01 L441.792,1110.52 L441.985,1112.12 L441.959,1113.85 L441.072,1117.8 L438.853,1122.42 L436.922,1126.08 L435.353,1128.27 L432.99,1130.84 L431.983,1132.16 L431.39,1133.29 L430.963,1134.51 L430.276,1136.09 L429.431,1137.71 L429.059,1139.21 L428.576,1140.59 L428.397,1141.93 L428.18,1143.46 L427.666,1145.14 L427.321,1146.34 L427.21,1147.17 L427.293,1147.89 L427.873,1148.56 L428.804,1149.59 L429.104,1150.48 L428.638,1152.15 L428.069,1154.12 L427.362,1156.87 L426.976,1158.91 L426.217,1160.87 L424.372,1164.21 L424.245,1166.59 L424.538,1168.55 L425.437,1173.89 L424.824,1175.85 L424.355,1177.95 L424.851,1180.32 L426.479,1182.31 L428.29,1183.67 L431.032,1185.53 L432.649,1186.62 L434.936,1186.4 L436.964,1187.01 L438.581,1188.39 L440.467,1190.72 L440.647,1191.42 L440.619,1192.28 L442.233,1194.67 L443.409,1194.76 L444.22,1196.38 L444.54,1197.9 L444.606,1199.4 L444.275,1201.31 L445.296,1203.08 L445.591,1204.74 L447.461,1207.15 L448.096,1209.69 L448.375,1211.12 L449.02,1214.36 L450.22,1215.21 L451.976,1216.32 L455.614,1217.4 L459.963,1218.42 L464.884,1220.32 L467.395,1221.07 L469.468,1221.31 L472.472,1222.86 L474.072,1223.3 L476.103,1223.18 L480.597,1224.01 L482.463,1223.66 L485.466,1223.12 L487.481,1222.05 L489.236,1220.83 L492.295,1218.74 L493.443,1217.48 L495.344,1216.39 L496.282,1215.45 L498.337,1215.12 L499.054,1215.41 L499.937,1215.48 L501.137,1215.9 L501.772,1216.74 L502.755,1217.36 L505.276,1218.34 L507.942,1219.95 L510.27,1222.94 L511.759,1223.39 L514.26,1226.14 L516.436,1227.08 L517.898,1229.04 L519.667,1230.79 L520.712,1231.64 L521.209,1232.31 L521.526,1233.24 L521.54,1234.33 L521.378,1235.63 L521.581,1236.89 L521.016,1238.89 L520.771,1240.92 L520.23,1242.77 L519.264,1244.19 L518.671,1245.47 L518.247,1246.99 L517.319,1250.67 L516.726,1252.16 L516.302,1253.46 L515.939,1255.45 L515.767,1256.1 L515.263,1258.27 L515.249,1259.85 L514.839,1261.69 L514.353,1263.78 L514.036,1265.61 L513.322,1269.02 L514.146,1272.08 L514.922,1274.07 L514.877,1277.63 L516.008,1280.01 L516.522,1283.35 L515.667,1290.25 L517.015,1295.13 L517.995,1295.77 L519.043,1297.05 L520.026,1298.84 L522.854,1302.36 L525.775,1307.36 L526.91,1310.21 L527.996,1311.54 L529.293,1313.14 L530.855,1314.53 L531.803,1318.05 L532.548,1322.06 L533.738,1322.87 L533.849,1327.22 L533.169,1329.83 L531.354,1334.6 L529.147,1340.34 L527.527,1342.78 L526.261,1345.68 L526.065,1347.49 L526.41,1349.91 L526.685,1352.37 L527.696,1353.86 L529.638,1356.66 L531.973,1358.84 L534.549,1360.67 L535.597,1361.71 L536.911,1362.39 L538.066,1362.76 L538.825,1364.16 L540.205,1365.13 L540.894,1365.87 L541.243,1366.81 L541.308,1369.89 L540.525,1373.6 L539.404,1377.09 L538.153,1381.35 L538.853,1383.48 L539.984,1384.64 L540.95,1386.64 L541.243,1389.3 L541.929,1393.96 L542.467,1394.87 L543.091,1399.67 L542.743,1401.84 L542.964,1404.4 L545.364,1406.44 L545.96,1408.14 L547.295,1409.87 L549.751,1412.49 L551.341,1415.37 L551.71,1416.76 L554.455,1418.23 L555.558,1417.78 L556.693,1418.9 L556.924,1420.18 L558.855,1421.25 L558.924,1422.24 L560,1423.04 L561.945,1422.81 L563.825,1422.65 L565.215,1422.36 L566.098,1421.52 L567.16,1421.32 L569.936,1421.33 L573.409,1421.99 L577.344,1423.02 L580.251,1423.29 L585.752,1424.96 L586.542,1424.97 L587.659,1425.21 L589.718,1426.76 L590.915,1427.97 L591.798,1429.19 L592.515,1430.74 L592.739,1432.05 L592.501,1436.38 L593.122,1437.95 L593.494,1440.02 L594.243,1441.48 L594.736,1444.08 L594.915,1447.26 L595.401,1450.88 L595.812,1453.09 L596.902,1454.84 L597.857,1458.17 L598.392,1459.35 L598.46,1460.04 L597.991,1461.28 L598.116,1462.84 L599.029,1464.02 L599.73,1465.93 L601.344,1467.64 L603.068,1468.56 L604.654,1468.84 L605.827,1468.76 L607.017,1469.18 L607.979,1469.49 L609.566,1469.81 L611.197,1469.71 L614.435,1470.23 L615.759,1470.49 L616.946,1470.04 L618.291,1470.49 L618.712,1470.36 L619.594,1470.54 L620.26,1470.35 L623.116,1471.61 L629.972,1475.38 L633.086,1478.52 L635.141,1480.56 L637.034,1482.82 L637.307,1484.63 L637.931,1487.98 L638.783,1488.57 L639.059,1490.07 L639.666,1492.21 L640.69,1493.61 L641.183,1498.22 L641.252,1500.48 L640.875,1501.26 L640.711,1501.59 L640.273,1502.75 L639.935,1503.65 L639.976,1504.46 L641.89,1508.48 L644.204,1512.97 L645.725,1517.59 L646.536,1520.51 L646.577,1525.58 L646.594,1529.27 L647.032,1530.89 L647.501,1533.23 L647.546,1537.49 L648.357,1539.68 L648.177,1542.23 L648.94,1545.38 L649.584,1548.11 L650.209,1550.23 L651.874,1552.7 L653.585,1554.26 L655.354,1555.63 L658.841,1556.7 L660.5,1557.8 L665.783,1560.24 L669.769,1561.12 L670.635,1562.45 L672.015,1563.21 L672.308,1564.5 L673.146,1565.03 L673.201,1566.05 L674.79,1566.4 L678.612,1566.61 L685.013,1565.79 L688.5,1564.96 L690.393,1565.37 L691.866,1565.51 L693.521,1564.91 L695.028,1564.13 L701.043,1564.1 L707.665,1563.22 L713.403,1563.22 L714.862,1562.89 L717.731,1561.42 L719.142,1560.13 L726.205,1556.16 L729.443,1555.76 L730.671,1555.25 L732.12,1555.25 L733.402,1555.51 L734.109,1555.84 L734.865,1556.45 L735.485,1558.24 L736.065,1560.05 L736.703,1561.51 L737.237,1563.75 L737.679,1567.62 L738.796,1568.09 L740.469,1571.07 L741.459,1573.36 L742.317,1575.94 L742.728,1579.01 L744.055,1579.95 L744.797,1582 L744.48,1585.27 L744.897,1587.2 L746.811,1591.2 L747.266,1593.27 L748.718,1595.89 L755.685,1604.47 L761.2,1608.97 L765.779,1612.64 L765.906,1614.78 L763.725,1616.1 L763.6,1617.05 L764.068,1618.53 L762.714,1623.61 L758.35,1628.59 L755.258,1634.38 L753.55,1640.96 L751.931,1644.16 L747.717,1651.82 L742.98,1659.45 L737.506,1666.56 L734.151,1673.58 L733.709,1680.64 L738.124,1685.5 L743.421,1686.82 L747.835,1689.47 L750.704,1694.22 L753.399,1701.37 L753.574,1701.83 L755.34,1711.99 L754.898,1720.37 L753.782,1725.39 L753.767,1732.9 L753.795,1738.91 L753.574,1745.07 L752.982,1749.42 L750.953,1752.69 L746.941,1757.69 L745.784,1759.3 L741.92,1760.59 L736.358,1760.96 L731.944,1763.61 L728.853,1768.03 L728.289,1774.36 L730.122,1778.4 L729.681,1783.31 L727.336,1788.5 L727.088,1795.84 L727.088,1802.9 L724.881,1811.29 L721.614,1820.62 L716.052,1828.06 L710.578,1832.98 L703.25,1834.68 L696.893,1837.4 L691.773,1840.86 L686.74,1845.79 L683.827,1851.46 L683.827,1858.08 L680.295,1864.26 L678.971,1874.41 L678.53,1883.24 L674.998,1889.42 L671.025,1896.93 L668.377,1904.87 L668.2,1911.56 L666.939,1918.37 L664.459,1922.67 L659.603,1928.24 L657.431,1932.03 L655.713,1936.21 L655.831,1941.99 L656.43,1946.39 L655.941,1949.44 L656.154,1954.84 L655.823,1961.16 L655.21,1966.29 L655.437,1970.95 L657.169,1974.65 L657.313,1978.65 L658.328,1983.47 L660.431,1987.42 L663.482,1996.67 L663.087,1999.16 L663.577,2002.38 L663.245,2004.88 L661.921,2010.82 L662.48,2012.36 L663.832,2014.53 L664.404,2016.39 L664.466,2020.07 L666.094,2022.97 L667.245,2027.09 L667.336,2029.92 L665.673,2031.66 L666.618,2035.09 L668.067,2037.23 L667.632,2040.05 L667.384,2044.52 L668.818,2046.57 L669.26,2049.41 L670.197,2052.48 L672.791,2057.61 L674.93,2059.41 L676.737,2060 L678.364,2060.55 L681.399,2064.78 L685.331,2067.56 L689.759,2071.91 L690.304,2073.47 L690.235,2076.07 L689.683,2077.49 L689.869,2080.47 L689.049,2082.34 L690.186,2087.78 L690.428,2090.03 L691.104,2091.01 L690.89,2092.92 L691.38,2096 L691.96,2097.01 L692.194,2098.25 L693.18,2099.35 L694.622,2101.14 L697.512,2103.08 L699.706,2104.82 L701.484,2107.05 L701.264,2109.53 L701.595,2112.13 L702.437,2112.82 L704.658,2113.55 L707.127,2115.02 L709.707,2115.37 L712.341,2116.5 L714.728,2118.58 L715.693,2120.09 L715.169,2124.85 L714.646,2128.22 L714.935,2130.85 L715.721,2131.88 L717.198,2132.58 L717.653,2134.1 L717.376,2137.07 L716.963,2141.08 L716.452,2144.83 L716.066,2147.52 L716.052,2150.31 L717.253,2154.26 L718.205,2156.05 L719.901,2157.65 L722.949,2159.4 L727.723,2158.89 L730.675,2159.43 L732.482,2161.32 L734.938,2161.77 L736.745,2161.39 L738.124,2160.91 L741.09,2161.4 L744.373,2162.74 L750.153,2166.22 L753.823,2169.36 L757.988,2172.38 L765.741,2178.45 L768.784,2180.36 L771.825,2182.67 L773.032,2184.68 L774.629,2187.01 L776.805,2190.26 L780.088,2193.71 L786.323,2198.1 L790.355,2202.28 L791.949,2203.73 L795.373,2203.89 L797.715,2206.33 L799.497,2210.02 L801.702,2213.38 L803.498,2216.98 L808.312,2226.24 L809.744,2230.88 L810.917,2234.28 L813.375,2237.52 L816.338,2241.44 L818.465,2245.66 L821.125,2249.64 L823.321,2253.61 L829.06,2261.11 L835.681,2269.5 L839.489,2273.75 L841.72,2274.94 L842.882,2277.8 L844.333,2285.9 L842.744,2292.21 L841.131,2296.29 L839.807,2297.58 L839.764,2300.58 L841.669,2303.14 L845.089,2304.74 L851.573,2309.67 L855.353,2313.45 L860.54,2320.14 L862.534,2323.7 L864.016,2326.73 L864.551,2329.74 L864.099,2333.62 L862.416,2339.55 L863.271,2346.06 L863.547,2349.84 L861.864,2358.34 L861.257,2364.38 L861.13,2368.59 L862.123,2372.92 L863.05,2375 L865.144,2376.85 L868.348,2378.09 L870.441,2379.08 L871.959,2380.75 L872.834,2382.57 L873.49,2386.44 L873.562,2390.16 L873.162,2396.92 L873.49,2401.33 L873.438,2404.5 L875.876,2408.54 L876.207,2410.62 L877.063,2411.85 L878.597,2413.3 L878.884,2414.39 L878.942,2415.61 L877.508,2419.39 L875.628,2424.12 L875.411,2427.53 L873.2,2428.83 L871.903,2429.78 L871.483,2430.45 L871.341,2431.31 L871.324,2432.12 L871.572,2432.81 L873.283,2435.96 L875.3,2439.29 L877.742,2442.47 L879.435,2443.8 L882.087,2448.2 L886.778,2452.31 L887.38,2453.64 L887.326,2454.86 L886.753,2456.67 L886.057,2459.84 L884.653,2462.32 L882.346,2464.42 L880.018,2466.17 L877.601,2468.03 L876,2469.03 L875.024,2470.44 L874.69,2471.65 L874.731,2473.66 L873.038,2480.51 L873.342,2483.83 L874.373,2486.67 L873.976,2490.18 L873.531,2493.72 L873.935,2495.65 L872.841,2498.37 L872.276,2500.05 L871.468,2501.28 L869.531,2503.54 L868.689,2504.89 L868.582,2506.22 L869.158,2510.12 L870.596,2512.14 L872.455,2514.87 L873.366,2518.69 L873.917,2519.82 L875.48,2520.76 L877.67,2523.5 L878.263,2523.98 L878.511,2525.42 L877.673,2526.9 L880.222,2530.04 L882.115,2531.51 L881.974,2533.85 L881.439,2536.32 L882.236,2539.75 L884.17,2542.06 L884.636,2544.73 L887.519,2546.14 L889.864,2550.65 L889.509,2553.04 L891.63,2554.95 L892.789,2557.27 L894.82,2558.35 L896.431,2558.67 L897.01,2559.11 L899.469,2559.51 L899.783,2560.84 L899.483,2563.39 L899.245,2568.14 L899.621,2570.61 L900.211,2572.03 L901.066,2572.63 L902.252,2572.4 L903.069,2571.72 L904.404,2569.09 L904.79,2568.46 L905.577,2568.2 L906.39,2568.38 L907.194,2568.79 L908.557,2569.92 L909.995,2570.13 L910.405,2572.23 L909.967,2572.96 L909.977,2574.98 L910.598,2576.5 L912.412,2577.4 L915.581,2584.69 L916.906,2591.31 L916.906,2597.93 L919.554,2605.87 L919.996,2611.17 L922.645,2617.13 L926.838,2625.55 L927.942,2630.59 L929.266,2636.77 L931.473,2643.4 L934.122,2650.02 L935.446,2657.96 L939.419,2662.82 L942.068,2669.44 L945.792,2679.35 L934.11,2682.15 L935.464,2692.24 L935.601,2693.22 L936.037,2696.31 L937.137,2703.7 L937.351,2705.35 L937.454,2706.93 L937.299,2709.72 L936.815,2711.55 L936.02,2713.19 L934.602,2715.45 L930.613,2720.24 L928.799,2722.54 L926.354,2725.65 L924.93,2728.11 L924.392,2730.14 L923.944,2733.38 L923.178,2739.22 L922.675,2742.8 L921.784,2746.09 L920.854,2747.93 L919.68,2749.52 L915.688,2753.3 L914.385,2754.69 L913.199,2756.24 L911.951,2758.52 L925.006,2768.23 L933.349,2767.73 L933.936,2767.23 L942.951,2759.52 L949.087,2750.2 L953.368,2737.93 L958.6,2720.89 L1587.4,2773.62 L1589.5,2771.16 L1592.82,2769.88 L1595.53,2769.48 L1598.74,2770.72 L1604.64,2772.74 L1610.23,2772.8 L1613.46,2771.84 L1616.56,2770.09 L1619.06,2767.06 L1618.65,2764.65 L1618.98,2762.21 L1620.09,2759.05 L1620.16,2756.79 L1621.54,2753.08 L1622.74,2748.9 L1624.33,2743.32 L1624.95,2738.31 L1624.45,2731.93 L1625.38,2730.58 L1629.34,2728.65 L1633.63,2727.85 L1635.27,2728.07 L1636.67,2728.08 L1639.8,2728.66 L1642.5,2729.5 L1645.1,2729.54 L1647.55,2729.74 L1652.13,2729.32 L1654.1,2728.78 L1656.25,2727.65 L1657.51,2726.44 L1658.49,2724.73 L1658.84,2723.27 L1660.33,2722.59 L1663.06,2719.8 L1663.5,2718.52 L1663.96,2716.76 L1664.1,2715.51 L1664.09,2714.21 L1663.75,2711.17 L1659.19,2706.22 L1657.97,2704.64 L1657.02,2703.09 L1656.66,2701.99 L1655.51,2700.24 L1653.3,2697.87 L1652.64,2696.9 L1652.14,2695.6 L1651.9,2694.35 L1651.8,2693 L1651.99,2691.95 L1652.6,2691.05 L1653.65,2689.63 L1658.42,2687.22 L1663.2,2684.07 L1663.95,2681.92 L1665.92,2679.58 L1671.3,2675.18 L1673.37,2673.99 L1675.71,2672.97 L1679.29,2672.16 L1684.1,2672.97 L1687.42,2674.49 L1689.84,2674.3 L1693.66,2674.8 L1695.97,2674.34 L1697.49,2673.41 L1698.75,2672.21 L1699.25,2671.05 L1699.49,2670.31 L1699.73,2668.13 L1699.44,2667.31 L1699.46,2665.49 L1699.36,2664.63 L1698.52,2661.37 L1696.9,2655.76 L1696.06,2652.09 L1696.11,2648.7 L1696.79,2644.52 L1698.07,2641.7 L1701.17,2637.24 L1705.22,2634.66 L1707.28,2633.5 L1710.59,2632.13 L1713.07,2632.12 L1715.44,2632.36 L1718.73,2634.06 L1724.66,2634.65 L1727.81,2634.39 L1730.09,2633.32 L1732.53,2631.96 L1736.03,2629.21 L1738.44,2626.74 L1739.33,2625.71 L1741.33,2624.04 L1745.66,2621.29 L1749.78,2618.33 L1752.66,2614.8 L1755.39,2610.52 L1756.81,2609.32 L1757.28,2608.66 L1757.19,2608.08 L1756.76,2605.83 L1756.68,2603.18 L1757.37,2601 L1760.15,2599.06 L1763.05,2597.51 L1766.28,2597.82 L1768.93,2597.25 L1773.72,2598.3 L1778.6,2600.48 L1781.19,2604.76 L1780.58,2606.74 L1781.71,2607.97 L1785.14,2609.21 L1788.37,2609.74 L1791.23,2608.88 L1794.63,2606.49 L1796.47,2604.25 L1799.64,2601.31 L1801.27,2600.74 L1801.88,2599.54 L1801.47,2598.14 L1800.88,2596.44 L1802.15,2594.88 L1804.97,2592.37 L1805.67,2592 L1806.06,2591.79 L1810.64,2590.49 L1814.17,2588.72 L1816.38,2584.75 L1815.68,2578.01 L1816.4,2575.58 L1819.03,2574.16 L1822.56,2572.83 L1826.09,2573.72 L1829.65,2571.18 L1832.08,2565.69 L1832.69,2562.88 L1834.58,2560.82 L1836.49,2560.28 L1838.35,2559.83 L1843.9,2559.96 L1850.08,2553.78 L1854.04,2550.95 L1856.37,2549.87 L1858.69,2549.97 L1860.32,2550.08 L1861.7,2550.66 L1862.39,2552.13 L1862.36,2553.81 L1863.22,2555.4 L1864.63,2556.66 L1865.97,2557.32 L1868.34,2557.4 L1870.66,2557.78 L1872.82,2557.86 L1876.85,2558.72 L1880.46,2558.86 L1885.26,2556.14 L1889.43,2550.92 L1892.8,2546.61 L1895.45,2545.13 L1899.08,2544.94 L1904.14,2544.88 L1912.65,2545.45 L1918.79,2544.58 L1922.41,2543.86 L1926.4,2542.36 L1933.96,2537.89 L1935.18,2535.76 L1937.23,2534.54 L1941.16,2532.26 L1946.32,2530.39 L1951.9,2530.45 L1957.2,2527.36 L1960.01,2527.88 L1961.98,2529.35 L1964.27,2530.3 L1966.95,2529.45 L1968.92,2526.97 L1971.28,2525.29 L1974.06,2525.16 L1976.44,2524.8 L1978.95,2523.59 L1981.9,2523.12 L1984.58,2523.1 L1987.66,2523.39 L1993.55,2518.91 L1997.37,2514.12 L1998.88,2512.41 L2000.56,2511.7 L2002.3,2511.3 L2006.64,2511.03 L2012.09,2510.96 L2014.74,2506.55 L2017.67,2501.32 L2022.22,2499.27 L2025.26,2498.89 L2026.64,2497.53 L2027.9,2494.45 L2029.46,2492.36 L2030.18,2490.57 L2031.74,2489.6 L2032.7,2489.14 L2035.66,2489.24 L2037.93,2488.24 L2039.38,2486.4 L2042.68,2483.24 L2045.75,2482.74 L2048.49,2483.47 L2051.2,2483.5 L2053.76,2483.4 L2056.16,2483.29 L2057.83,2483.03 L2058.11,2481.81 L2058.28,2480.1 L2058.84,2478.18 L2061.38,2473.07 L2062.8,2470.69 L2063.42,2468.83 L2064.83,2467.8 L2065.17,2467.25 L2065.23,2466.74 L2065.13,2465.68 L2064.74,2464.68 L2064.05,2463.97 L2064.54,2461.43 L2065.73,2459.39 L2066.79,2458.23 L2068.15,2457.55 L2069.24,2456.74 L2069.94,2455.52 L2070.91,2453.65 L2071.67,2451.83 L2073.27,2448.9 L2074.67,2446.25 L2076.25,2444.54 L2077.45,2443.6 L2077.74,2441.8 L2078.31,2440.96 L2078.95,2440.76 L2079.57,2440.91 L2080.25,2441.22 L2084.77,2439.96 L2086.13,2439.97 L2089.78,2440.34 L2091.09,2440.06 L2092.23,2439.34 L2093.16,2437.75 L2093.7,2435.78 L2094.11,2435.05 L2094.66,2434.57 L2095.67,2434.36 L2097.34,2434.59 L2099.31,2434.76 L2100.9,2434.85 L2102.71,2434.46 L2104.1,2434.5 L2105.53,2434.54 L2106.64,2433.95 L2107.08,2433.15 L2107.49,2431.92 L2108.23,2430.87 L2107.81,2429.62 L2107.07,2428.04 L2106.96,2427.41 L2107.22,2426.81 L2107.82,2426.18 L2109.03,2425.44 L2110.38,2424.51 L2113.31,2423.32 L2113.72,2422.6 L2114.14,2420.21 L2113.96,2419.08 L2113.56,2417.75 L2113.98,2416.03 L2114.59,2414.36 L2115.63,2413.57 L2116.55,2413.02 L2117.28,2412.33 L2117.69,2411.67 L2117.73,2410.81 L2117.42,2409.19 L2117.2,2407.4 L2117.88,2405.91 L2119.18,2404.41 L2121.91,2403.31 L2124.81,2402.72 L2127.67,2402.15 L2129.12,2401.76 L2130.23,2400.46 L2130.67,2399.26 L2130.34,2397.87 L2129.81,2396.53 L2128.5,2394.02 L2127.37,2391.08 L2127.53,2390.3 L2127.76,2389.56 L2128.61,2388.64 L2129.76,2387.95 L2131.56,2387.43 L2132.42,2386.8 L2132.76,2385.95 L2133.03,2384.49 L2133.15,2383.3 L2133.81,2382.44 L2134.72,2381.99 L2137.16,2381.57 L2138.89,2380.14 L2139.81,2379.45 L2140.28,2379.41 L2140.5,2379.15 L2140.55,2378.66 L2140.15,2377.5 L2139.85,2375.97 L2140.98,2373.03 L2142.41,2369.99 L2144.12,2368.36 L2145.49,2367.51 L2146.31,2366.53 L2146.67,2365.34 L2147.71,2364.2 L2150.04,2363.18 L2150.81,2362.28 L2151.28,2360.85 L2152.71,2359.48 L2153.42,2358.04 L2153.7,2355.69 L2154.14,2355.01 L2155.27,2354.47 L2156.74,2353.66 L2158.12,2352.54 L2159.96,2351.04 L2160.39,2349.03 L2160.88,2347.94 L2161.66,2347.58 L2162.65,2347.49 L2162.78,2347.1 L2162.63,2346.51 L2162.68,2345.97 L2162.83,2345.43 L2162.66,2344.69 L2162.11,2344.27 L2161.77,2343.16 L2162.28,2341.86 L2162.3,2341.37 L2162.67,2340.91 L2163.09,2340.67 L2163.56,2340.53 L2163.86,2340.7 L2164.14,2340.7 L2164.31,2340.51 L2164.89,2339.2 L2165.09,2338.07 L2165.79,2337.73 L2166.67,2337.18 L2167.42,2336.1 L2167.8,2335.83 L2167.85,2335.5 L2167.61,2335.27 L2168.14,2334.67 L2168.79,2334.58 L2168.95,2334.75 L2168.95,2335.2 L2169.16,2335.24 L2169.64,2335.16 L2170.07,2335.35 L2170.51,2335.17 L2170.81,2334.65 L2170.71,2334.32 L2170.58,2333.95 L2170.85,2333.46 L2170.74,2332.92 L2171.09,2332.52 L2171.33,2332.12 L2171.58,2331.88 L2171.27,2331.35 L2171.58,2330.69 L2172.93,2330.7 L2173.6,2330.39 L2173.49,2330.05 L2174.33,2329.45 L2174.9,2329.52 L2175.12,2328.13 L2176.01,2328.21 L2176.72,2327.55 L2177.51,2327.75 L2177.92,2327.29 L2178.71,2327.34 L2179.14,2326.89 L2179.58,2326.65 L2181.25,2326.94 L2182.24,2326.24 L2182.99,2325.42 L2182.52,2325.07 L2182.51,2324.38 L2183.3,2323.51 L2184.34,2323.41 L2184.56,2322.96 L2185.35,2322.63 L2185.26,2322.4 L2185,2322.36 L2185.15,2322.13 L2186.11,2322.01 L2186.3,2322.39 L2186.78,2322.34 L2189.93,2321.59 L2191.84,2321.02 L2193.01,2320.15 L2194.9,2318.46 L2197,2316.6 L2199.57,2314.68 L2202.56,2312.07 L2204.93,2309.64 L2207.34,2308.14 L2208.03,2307.19 L2209.17,2306.12 L2211.54,2304.54 L2212.78,2304.41 L2214.37,2304.14 L2216.2,2303.58 L2219.68,2300.66 L2218.49,2306.39 L2217.19,2311.03 L2216.85,2318.96 L2223.77,2330.46 L2224.55,2331.55 L2225.41,2332.29 L2228.7,2334.72 L2232.42,2338.44 L2237.23,2342.8 L2247.29,2352.22 L2248.46,2353.22 L2250.05,2353.98 L2283.47,2368.16 L2284.99,2369.02 L2306.47,2383.52 L2321.2,2393.46 L2321.98,2393.98 L2335.66,2390.01 L2382.9,2413.41 L2425.26,2398.41 L2433.15,2406.73 L2447.9,2422.29 L2459.98,2436.09 L2485.1,2440.25 L2510.63,2463.92 L2553.15,2500.45 L2553.29,2500.59 L2565.69,2513 L2567.03,2513.72 L2578.26,2518.56 L2579.4,2518.48 L2586.08,2516.09 L2593.32,2509.5 L2598.71,2504.68 L2599.17,2504.28 L2599.8,2503.84 L2600.86,2503.1 L2602.63,2502.8 L2621.32,2503.53 L2622.93,2502.51 L2629.43,2498.35 L2629.96,2498.17 L2634.63,2496.6 L2637.39,2493.97 L2647.7,2480.38 L2644.31,2463.67 L2644.29,2462.12 L2644.55,2461.69 L2645,2461.28 L2648.2,2454.9 L2653.06,2450.93 L2660.12,2447.84 L2664.53,2447.4 L2671.76,2443.36 L2676.89,2440.78 L2681.02,2440.18 L2684.88,2438.76 L2688.88,2434.64 L2690.11,2433.19 L2690.96,2433.03 L2692.34,2431.51 L2692.68,2430.39 L2694.31,2429.05 L2695.08,2427.99 L2695.43,2427.09 L2696.44,2421.1 L2697.88,2418.37 L2697.23,2413.31 L2697.55,2410.61 L2698.41,2409.47 L2699.54,2409.2 L2701.48,2407.25 L2703.34,2403.93 L2703.39,2402.48 L2702.22,2400.04 L2703.41,2396.76 L2705.73,2396.75 L2707.48,2396.19 L2708.25,2394.31 L2708.24,2393.1 L2707.59,2389.74 L2705.99,2388.05 L2705.76,2386.88 L2706.03,2384.71 L2705.45,2383.93 L2705.83,2382.12 L2706.91,2379.42 L2709.23,2375.49 L2709.82,2373.8 L2709.58,2372.43 L2709.94,2371.45 L2710.77,2369.46 L2710.1,2366.96 L2709.73,2365.26 L2710.02,2364.42 L2711.09,2362.92 L2712.54,2361.92 L2714.62,2361.3 L2715,2360.02 L2714.9,2358.88 L2715.19,2356.78 L2717.23,2353.56 L2718.02,2351.58 L2718.88,2350.84 L2719.98,2348.07 L2720.78,2347.4 L2721.42,2347.12 L2721.67,2345.52 L2721.14,2344.29 L2721.68,2343.13 L2721.5,2341.6 L2721.95,2340.32 L2721.9,2338.44 L2721.23,2337.26 L2720.24,2335.99 L2719.61,2334.17 L2720.62,2332.32 L2720.28,2329.78 L2720.54,2328.1 L2720.26,2326.76 L2720.97,2325.94 L2721.39,2324.41 L2720.89,2323.72 L2721.05,2323.24 L2720.49,2322.36 L2720.5,2321.46 L2721.11,2320.03 L2722.8,2320.21 L2725.29,2318.85 L2727.01,2317.95 L2727.32,2316.88 L2727.53,2315.59 L2726.64,2314.95 L2726.05,2312.19 L2724.93,2311.77 L2722.7,2311.86 L2719.87,2310.95 L2718.92,2311.29 L2717.39,2310.65 L2717.05,2309.48 L2716.13,2308.83 L2714.75,2306.96 L2714.26,2306.77 L2713.39,2307.32 L2711.76,2307.13 L2710.75,2306.59 L2710.9,2305.5 L2710.48,2305.05 L2709.54,2304.71 L2707.79,2305.05 L2704.83,2305.87 L2702.54,2306.43 L2701.16,2307.68 L2697.96,2307.17 L2695.45,2306.49 L2693.99,2306.44 L2692.58,2306.54 L2691.77,2305.97 L2690.58,2305.71 L2689.89,2304.76 L2689.76,2301.64 L2688.56,2297.31 L2686.58,2295.1 L2683.64,2294.08 L2681.76,2293.09 L2680.91,2291.2 L2679.1,2289.36 L2677.96,2288.4 L2677.8,2287.06 L2678.17,2286.17 L2679.21,2285.94 L2680.13,2285.97 L2681.27,2285.29 L2681.78,2284.3 L2681.66,2282.73 L2679.98,2279.76 L2678.22,2277.89 L2674.73,2276.31 L2674.11,2275.79 L2672.88,2273.64 L2669.51,2270.69 L2662.27,2266.57 L2657.47,2264.64 L2652.89,2263.32 L2650.66,2262.81 L2649.89,2260.82 L2647.12,2254.35 L2644.48,2251.51 L2642.8,2248.21 L2640.53,2246.3 L2639.21,2245.48 L2638.91,2243.77 L2639.27,2242.17 L2641.58,2239.92 L2642.91,2237.75 L2642.85,2234.42 L2641.77,2233.36 L2640.12,2229.95 L2639.15,2226.51 L2641.15,2219.32 L2642.39,2213.92 L2643.52,2207.49 L2644.23,2203.37 L2644.09,2198.41 L2645.48,2193.83 L2645.36,2191.68 L2643.79,2190.04 L2642.94,2188.31 L2642.41,2186.16 L2643,2183.18 L2643.98,2178.37 L2643.29,2177 L2641.5,2173.07 L2638.27,2166.6 L2638.05,2165.08 L2638.35,2163.83 L2639.71,2163.43 L2641.69,2160.71 L2642.72,2158.54 L2642.93,2156.74 L2642.11,2154.85 L2640.64,2153.68 L2638.05,2150.65 L2638.09,2146.18 L2639.55,2142.49 L2639.4,2138.83 L2638.94,2134.02 L2639.44,2130.15 L2642.09,2125.71 L2642.47,2122.15 L2643.33,2119.03 L2643.24,2116.36 L2641.74,2114.44 L2641.56,2112.28 L2641.94,2107.89 L2642.53,2106.34 L2644.02,2103.36 L2645.89,2100.74 L2648.26,2098.19 L2650.17,2095.78 L2650.47,2091.78 L2649.98,2087.1 L2650.62,2084.57 L2651.88,2081.65 L2654.11,2077.6 L2655.55,2072.68 L2653.94,2066.02 L2653.97,2063.17 L2655.37,2060.13 L2656.58,2058.03 L2657.86,2055.99 L2657.97,2053.9 L2656.98,2052.27 L2653.81,2049.92 L2650.18,2046.93 L2648.37,2043.96 L2647.93,2041.97 L2647.86,2039.03 L2647.57,2036.78 L2646.33,2035.46 L2643.24,2033.91 L2642.68,2033.01 L2641.06,2031.52 L2639.76,2030.53 L2638.35,2028.98 L2637.14,2028.23 L2636.4,2027.07 L2635.48,2026.62 L2633.87,2026.46 L2632.48,2027.03 L2630.1,2029.36 L2628.35,2030.72 L2626.05,2031.29 L2622.99,2031.5 L2619.32,2031.69 L2616.42,2032.85 L2613.71,2034.13 L2611.47,2035.76 L2610.73,2036.05 L2609.98,2036.56 L2609.52,2037.43 L2609.19,2038.25 L2608.84,2038.86 L2608.82,2039.72 L2608.55,2041.09 L2608.29,2042.82 L2607.91,2043.54 L2607.48,2044.06 L2606.87,2044.42 L2605.42,2044.7 L2604.91,2044.77 L2604.24,2044.58 L2603.41,2044.38 L2602.73,2044.37 L2602.12,2044.29 L2601.24,2043.95 L2600.97,2043.99 L2600.82,2044.21 L2600.36,2044.32 L2599.92,2044.3 L2599.6,2044.24 L2599.15,2043.83 L2598.65,2043.71 L2597.44,2044.37 L2595.66,2045.51 L2593.46,2046.57 L2592.45,2046.73 L2591.17,2046.94 L2588.17,2046.57 L2582.87,2043.92 L2578.8,2041.85 L2575.16,2039.61 L2572.81,2037.28 L2569.88,2030.82 L2567.92,2024.93 L2567.62,2022.32 L2567.07,2019.85 L2567.12,2018.8 L2566.37,2015.47 L2565.63,2014.62 L2565.2,2012.67 L2564.32,2009.56 L2563.8,2008.47 L2563.66,2007.29 L2564.42,2005.12 L2565,2003.19 L2564.55,2000.99 L2563.85,1999.05 L2563.48,1998.53 L2563.06,1997.63 L2562.91,1996.3 L2563.33,1993.53 L2562.93,1991.39 L2562.85,1989.25 L2561.27,1986.34 L2559.68,1984.26 L2558.59,1983.89 L2557.1,1981.94 L2555.53,1980.22 L2555,1977.46 L2555.21,1974.47 L2556.19,1972.04 L2557.08,1969.61 L2556.64,1967.02 L2554.62,1964.47 L2551.08,1961.82 L2548.85,1960.13 L2547.44,1958.69 L2546.39,1957.02 L2544.48,1951.64 L2544.05,1948.23 L2544.59,1945.08 L2544.86,1942.67 L2545.31,1941.26 L2546.01,1939.83 L2547.4,1938.29 L2548.62,1937.52 L2549.32,1935.82 L2550.22,1930.5 L2548.94,1923.64 L2544.46,1919.88 L2542.77,1918.4 L2541.43,1914.86 L2541.4,1912.48 L2538.28,1907.52 L2537.68,1905.83 L2535.9,1903.73 L2534.96,1903.19 L2533.81,1899.98 L2533.07,1896.39 L2533.16,1894.23 L2532.1,1892.07 L2529.01,1886.77 L2526.64,1882.91 L2524.19,1880.98 L2523.78,1877 L2522.1,1872.86 L2520.74,1869.22 L2519.76,1866.56 L2517.5,1864.13 L2516.84,1862.7 L2515.75,1861.7 L2515.25,1860.71 L2515.14,1859.41 L2515.14,1857.66 L2516.35,1855.8 L2516.46,1855.13 L2516.36,1854.51 L2516.05,1853.66 L2515.55,1852.64 L2515.57,1850.7 L2515.07,1849.41 L2513.31,1846.44 L2512.84,1845.41 L2512.81,1843.93 L2512.78,1841.5 L2512.35,1838.75 L2510.76,1836.52 L2507.96,1828.65 L2507.65,1825.6 L2507.82,1822.76 L2508.56,1817.31 L2508.39,1816.31 L2507.9,1815.55 L2507.48,1813.89 L2507.19,1810.64 L2507.32,1808.91 L2507.89,1807.69 L2509.35,1805.75 L2509.99,1805.4 L2510.76,1804.73 L2511.29,1803.41 L2511.93,1802.91 L2512.19,1802.48 L2512.94,1799.92 L2512.67,1799.3 L2511.83,1798.37 L2511.49,1797.52 L2510.4,1796.53 L2508.41,1793.7 L2506.45,1789.83 L2506.17,1788.23 L2506.32,1786.83 L2506.77,1783.7 L2507.02,1782.11 L2507.07,1780.35 L2506.83,1779.25 L2506.33,1778.15 L2505.4,1776.27 L2504.11,1773.29 L2504.44,1769.93 L2504.39,1768.71 L2503.97,1766.97 L2502.77,1764.4 L2502.35,1763.67 L2502.17,1762.86 L2501.79,1762.71 L2501.03,1761.05 L2499.44,1756.99 L2498.29,1755.63 L2497.55,1754.27 L2495.59,1752.65 L2495.12,1752.01 L2494.66,1750.62 L2494.54,1749.94 L2494.83,1749.3 L2495.16,1748.52 L2495.94,1747.7 L2495.92,1747.38 L2495.38,1746.31 L2495.18,1745.72 L2495.32,1745.04 L2495.93,1743.97 L2495.7,1743.17 L2494.4,1741.94 L2493.81,1740.54 L2493.42,1738.39 L2493.05,1736.26 L2491.83,1735.38 L2490.44,1734.61 L2488.14,1734.12 L2485.49,1732.39 L2485.03,1731.27 L2484.67,1730.31 L2484.76,1727.55 L2485.15,1726.34 L2485.61,1724.16 L2486.23,1722.55 L2487.38,1721.66 L2488.85,1721 L2490.04,1719.77 L2490.51,1718.73 L2490.07,1716.69 L2488.67,1715.91 L2488.12,1714.62 L2486.9,1713.74 L2486.13,1711.92 L2486.16,1710.65 L2486.65,1708.17 L2486.46,1706.47 L2486.64,1704.39 L2486.71,1701.02 L2485.57,1700.32 L2485.09,1697.9 L2484.23,1696.5 L2483.78,1693.83 L2483.89,1692.36 L2484.38,1690.34 L2485.15,1688.95 L2485.27,1687.42 L2485.13,1684.44 L2483.72,1684.3 L2483,1681.49 L2483.63,1678.89 L2482.06,1677.57 L2481.92,1675.56 L2481.81,1673.39 L2481.7,1671.14 L2481,1669.73 L2479.65,1668.42 L2478.1,1667.51 L2476.91,1666.27 L2475.59,1662.57 L2475.69,1659.22 L2474.68,1657.75 L2473.36,1654.89 L2473.4,1654.16 L2474.11,1651.9 L2475.39,1648.97 L2475.81,1646.05 L2475.38,1642.74 L2474.54,1642.17 L2473.01,1641.77 L2472.46,1640.68 L2471.47,1640.71 L2468.91,1638.97 L2466.53,1636.93 L2466.4,1635.8 L2462.99,1633.66 L2462,1632.28 L2461.34,1629.84 L2461.32,1626.83 L2461.49,1625.6 L2462.28,1624.71 L2464.41,1623.3 L2465.64,1622.65 L2465.93,1621.62 L2466.13,1621.35 L2466.59,1621.13 L2467,1620.8 L2467.3,1620.24 L2467.06,1619.77 L2466.05,1613.66 L2464.88,1612.24 L2463.55,1610.51 L2463.68,1607.36 L2461.32,1600.35 L2456.16,1595.07 L2450.73,1591.32 L2449.15,1590.95 L2448.39,1590.79 L2447.76,1590.17 L2447.3,1589.36 L2446.91,1587.98 L2446.75,1586.99 L2446.89,1586.05 L2447.76,1584.9 L2449.66,1583.02 L2449.5,1582.43 L2449.08,1581.7 L2448.08,1580.21 L2447.04,1579.86 L2446.3,1579.13 L2445.99,1578.16 L2445.41,1576.78 L2445.26,1575.77 L2444.99,1575.27 L2444.41,1575.09 L2443.82,1575.14 L2440.72,1574.99 L2440.27,1574.54 L2438.91,1574 L2438.04,1573.11 L2437.25,1571.56 L2436.01,1568.42 L2435.53,1567.62 L2435.36,1566.77 L2435.43,1566.16 L2435.73,1565.47 L2436.18,1565.21 L2437.34,1565.19 L2438.17,1565.45 L2439.23,1565.27 L2440.27,1564.53 L2440.92,1564.45 L2441.36,1564.04 L2441.83,1563.18 L2442.34,1561.83 L2442.44,1560.92 L2442.19,1560.29 L2441.7,1560.08 L2441.14,1560.09 L2440.74,1560.33 L2440.48,1560.82 L2439.9,1560.9 L2439.22,1560.31 L2438.14,1558.63 L2437.64,1557.04 L2435.93,1554.82 L2435.87,1551.74 L2435.87,1546.89 L2434.15,1545.4 L2432.24,1542.75 L2427.04,1540.71 L2424.78,1538.86 L2422.96,1536.19 L2421.84,1535.11 L2421.77,1533.52 L2420.89,1532.16 L2420.02,1529.94 L2420.05,1527.41 L2420.85,1524.93 L2422.07,1522.75 L2424.11,1521.63 L2427.25,1517.22 L2428.95,1515.67 L2429.8,1512.6 L2429.67,1510.73 L2430.42,1508.09 L2431.74,1502.35 L2431.46,1493.47 L2430.86,1486.01 L2427.92,1479.79 L2424.24,1472.77 L2419.54,1468.31 L2414.68,1463.46 L2408.94,1459.04 L2405.31,1454.32 L2404.53,1453.3 L2401.44,1448.45 L2399.52,1442.75 L2400.11,1436.09 L2399.52,1430.39 L2399.52,1424.65 L2398.35,1416.66 L2397.02,1407.84 L2398.47,1403.9 L2398.97,1399.36 L2398.58,1396.28 L2397.48,1394.53 L2396.19,1392.72 L2396.45,1389.81 L2398.15,1386.94 L2399.36,1384.17 L2400.41,1381.31 L2402.36,1380.05 L2404.53,1379.58 L2408.79,1378.74 L2412.4,1377.39 L2414.62,1376.17 L2416.21,1374.56 L2418.05,1370.64 L2420.9,1367.3 L2423.95,1360.6 L2423.97,1356.15 L2425.95,1348.19 L2427.04,1341.62 L2426,1332.39 L2423.51,1323.96 L2422.03,1316.5 L2422.03,1309.69 L2422.27,1305.44 L2421.17,1303.48 L2419.89,1301.99 L2416.89,1296.59 L2414.52,1292.19 L2413.8,1290.85 L2412.93,1288.39 L2411.33,1286.16 L2410.4,1284.54 L2409.08,1283.22 L2408.55,1281.02 L2407.19,1279.5 L2405.25,1278.94 L2403.15,1277.1 L2400.55,1273.2 L2398.26,1271.41 L2395.84,1269.78 L2392.59,1267.46 L2390.4,1266.58 L2385.67,1265.16 L2382.56,1263.78 L2381.36,1262.51 L2380.43,1260.88 L2378.48,1258.39 L2376.22,1257.45 L2373.71,1256.76 L2372.33,1256.28 L2370.94,1254.8 L2369.36,1252.71 L2367.86,1251.73 L2364.8,1252.89 L2358.18,1253.33 L2352.44,1253.77 L2344.49,1252.01 L2339.64,1250.68 L2333.9,1248.03 L2329.04,1245.39 L2322.42,1242.74 L2316.68,1236.56 L2314.03,1232.14 L2310.94,1225.52 L2308.29,1221.11 L2301.23,1214.06 L2301.01,1212 L2300.17,1211.32 L2300.19,1209.56 L2298.97,1209.48 L2297.07,1207.64 L2296.27,1206 L2296.51,1204.6 L2296.03,1203.64 L2295.71,1202.84 L2295.11,1203 L2294.65,1202.14 L2294.85,1200.6 L2295.13,1200.36 L2295.41,1199.3 L2296.55,1198.94 L2297.31,1198.68 L2296.99,1197.06 L2296.89,1194.75 L2296.09,1193.57 L2296.63,1191.11 L2296.29,1189.75 L2297.13,1187.13 L2297.95,1186.15 L2299.03,1185.07 L2299.15,1183.39 L2298.47,1182.69 L2298.85,1178.89 L2298.03,1178.35 L2298.07,1177.25 L2298.05,1172.89 L2299.15,1172.23 L2299.17,1171.19 L2298.37,1169.77 L2297.31,1168.39 L2296.71,1166.67 L2295.55,1165.21 L2294.79,1164.83 L2294.61,1163.47 L2293.79,1162.83 L2293.85,1162.03 L2293.51,1161.07 L2293.49,1159.06 L2294.61,1157.57 L2293.15,1154.55 L2293.15,1153.62 L2292.36,1151.57 L2291.52,1148.04 L2291.03,1145.35 L2291.17,1144.92 L2290.66,1144.12 L2290.84,1143.71 L2290.25,1142.8 L2290.04,1140.84 L2290.33,1140.06 L2289.56,1139.02 L2287.62,1138.02 L2285.02,1138.24 L2283.19,1137.17 L2281.48,1136.79 L2279.54,1135.21 L2277.45,1134.05 L2276.43,1131.74 L2275.44,1128.52 L2273.53,1125.87 L2272.62,1123.29 L2273.29,1122.3 L2270.93,1116.47 L2271.47,1116.02 L2272.81,1115.27 L2273,1114.08 L2271.87,1112.29 L2271.2,1110.52 L2271.2,1108.96 L2271.6,1108.72 L2271.47,1107.56 L2272.14,1106.25 L2272.22,1104.07 L2271.49,1102.03 L2269.29,1100.1 L2268.14,1099.03 L2267.87,1099.65 L2266.61,1099.62 L2264.49,1098.73 L2264.06,1097.77 L2263.33,1097.18 L2263.98,1094.79 L2263.41,1094.22 L2263.6,1092.26 L2263.58,1088.75 L2265.54,1084.21 L2268.46,1075.22 L2269.59,1072.67 L2273.53,1064.89 L2274.39,1061.94 L2275.76,1060.92 L2276.51,1059.44 L2278.18,1058.58 L2278.61,1057.91 L2278.66,1056.76 L2280.03,1054.88 L2280.81,1053.51 L2280.99,1052.11 L2280.54,1051.23 L2279.71,1050.88 L2278.26,1051.15 L2276.75,1050.75 L2275.17,1048.97 L2274.93,1048.3 L2274.37,1047.52 L2273.61,1047.71 L2272.59,1046.05 L2271.52,1044.44 L2270.9,1041.41 L2269.07,1038.94 L2270.28,1032.2 L2270.65,1029.68 L2271.65,1026.46 L2271.73,1024.23 L2271.38,1023.27 L2271.38,1022.46 L2270.6,1020.18 L2270.92,1019.35 L2270.36,1018.62 L2269.26,1016.91 L2268.13,1014.19 L2266.41,1014.19 L2265.72,1011.56 L2264.91,1008.91 L2264.02,1005.98 L2263,1004.32 L2262.09,1004.21 L2258.15,999.299 L2256.78,997.125 L2257.48,995.918 L2257.18,994.951 L2256.25,994.228 L2255.71,993.276 L2255.47,992.182 L2255.81,991.176 L2255.85,989.961 L2255.88,988.995 L2256.51,987.217 L2256.28,986.043 L2254.94,984.6 L2255.11,983.426 L2256.41,981.279 L2256.45,979.736 L2255.78,978.461 L2253.19,977.655 L2252.59,976.347 L2252.86,975.307 L2253.36,973.865 L2250.71,971.65 L2248.43,970.979 L2246.58,969.939 L2245.51,971.248 L2243.97,971.617 L2243.06,969.939 L2241.42,969.403 L2240.28,969.772 L2239.3,968.295 L2238.4,968.597 L2237.49,968.597 L2236.12,967.524 L2234.04,967.658 L2231.1,967.472 L2229.64,966.853 L2226.62,965.041 L2224.48,964.974 L2222.16,965.947 L2218.24,965.075 L2216.56,963.33 L2214.18,962.621 L2212.02,962.534 L2210.49,962.894 L2208.2,964.806 L2207.08,965.224 L2204.98,965.544 L2202.2,964.962 L2197.92,965.495 L2196.03,964.741 L2194.94,963.018 L2192.11,961.738 L2189.05,959.844 L2187.06,956.945 L2185.34,956.188 L2183,956.078 L2181.09,956.878 L2178.85,957.009 L2176.98,958.713 L2174.87,959.154 L2174.53,959.885 L2173.38,960.34 L2171.48,959.54 L2167.51,956.133 L2160.78,956.053 L2152.41,948.172 L2150.03,946.242 L2148.1,945.663 L2147.37,946.435 L2145.84,946.923 L2143.55,944.78 L2141.07,941.207 L2138.91,933.385 L2137.53,932.075 L2136.44,926.804 L2134.6,921.149 L2132.79,919.245 L2129.8,917.125 L2124.84,900.602 L2124.39,888.759 L2126.24,884.758 L2128.66,883.765 L2128.44,881.812 L2128.33,875.681 L2125.22,872.343 L2123.64,870.022 L2123.37,858.41 L2123.45,847.432 L2123.95,844.642 L2124.07,841.897 L2122.24,836.524 L2121.48,834.738 L2121.86,833.31 L2122.62,831.924 L2123.53,831.71 L2124.55,831.558 L2126.19,832.344 L2128.11,832.227 L2128.98,833.241 L2130.04,833.607 L2132.81,833.172 L2134.98,832.117 L2136.7,831.723 L2137.78,831.103 L2138.2,830.254 L2137.25,829.24 L2137.16,827.613 L2135.93,826.095 L2134.36,823.698 L2116.49,822.225 L2105.79,816.735 L2101.77,814.968 L2096.89,813.892 L2090.41,814.797 L2086.24,811.728 L2084.06,810.422 L2081.98,808.627 L2079.12,801.538 L2077.41,799.095 L2068.81,789.359 L2066.72,786.543 L2065.78,784.019 L2065.22,780.819 L2065.26,778.087 L2065.44,775.709 L2065.88,773.024 L2066.14,769.851 L2066.68,767.61 L2068.82,762.733 L2070.2,757.795 L2070.74,755.449 L2070.6,753.486 L2069.03,748.492 L2068.92,743.978 L2071.3,732.901 L2072.01,725.868 L2071.38,723.707 L2069.44,720.185 L2066.65,719.118 L2062.08,719.109 L2056.92,719.311 L2050.94,717.269 L2044.56,715.715 L2040.75,716.58 L2035.87,719.688 L2030.32,721.785 L2025.14,722.833 L2020.3,721.426 L2016.69,719.688 L2011.47,714.98 L2007.45,710.694 L2004.58,706.583 L2003.12,701.699 L2003.12,697.61 L2004.36,692.485 L2006.07,688.815 L2006.61,679.347 L2007.5,672.178 L2009.99,667.65 L2012.47,665.998 L2018.21,664.453 L2020.81,659.926 L2018.79,653.528 L2018.13,647.844 L2013.25,641.065 L2006.08,639.907 L2002.4,634.601 L1998.27,630.004 L1988.49,625.165 L1980.43,623.667 L1967.92,626.113 L1962.06,626.931 L1956.1,625.893 L1948.05,622.115 L1936.06,610.13 L1928.94,603.975 L1920.68,601.708 L1919.22,596.525 L1915.5,593.61 L1911.45,588.589 L1900.43,582.596 L1889.06,579.481 L1883.03,576.517 L1880.66,572.711 L1878.69,568.443 L1877.52,567.817 L1871.93,566.886 L1865.23,566.783 L1860.06,564.846 L1853.93,564.598 L1850.19,566.645 L1848.01,568.772 L1845.77,573.249 L1842.76,576.513 L1841.36,578.842 L1839.16,586.174 L1839.96,590.172 L1840.43,593.45 L1838.75,601.57 L1839.19,603.277 L1838.86,607.099 L1839.08,609.016 L1838.17,612.281 L1836.45,613.771 L1833.68,615.542 L1824.91,612.308 L1817.24,608.832 L1808.51,602.044 L1801.84,597.326 L1800.2,595.373 L1799.85,593.828 L1800.73,591.575 L1799.97,586.086 L1797.16,578.649 L1791.68,569.952 L1789.57,567.116 L1783.42,563.999 L1775.66,556.957 L1771.57,555.432 L1767.12,556.457 L1764.17,557.064 L1761.2,555.09 L1757.3,554.968 L1746.86,553.128 L1735.38,549.873 L1726.42,548.822 L1723.56,549.27 L1721.51,550.011 L1714.52,554.179 L1710.42,557.791 L1709.6,560.182 L1708.84,562.666 L1708.8,564.1 L1709.09,565.516 L1711.6,569.808 L1713.59,585.906 L1709.95,592.913 L1707.99,595.87 L1705.64,598.544 L1703.65,599.815 L1701.37,600.831 L1695.41,601.047 L1688.15,597.203 L1682.44,593.084 L1679.66,581.344 L1678.27,574.639 L1679.02,569.877 L1664.67,548.538 L1662.57,546.925 L1660.09,546.194 L1657.64,546.216 L1645.95,548.181 L1642.46,550.077 L1636.93,555.464 L1629.73,561.57 L1624.98,563.52 L1620.93,564.466 L1612.26,559.492 L1603.03,555.771 L1595.41,556.016 L1593.61,554.223 L1583.01,549.401 L1575.02,546.249 L1565.16,544.608 L1551.54,544.108 L1546.61,543.486 L1539.4,541.449 L1535.76,539.293 L1534.6,536.344 L1533.88,531.903 L1534.57,528.482 L1538.76,519.873 L1541.83,510.268 L1543.15,507.954 L1545.21,506.305 L1549.34,503.215 L1558.1,501.789 L1560.64,500.34 L1562.26,498.395 L1565.75,493.089 L1567.66,485.937 L1567.14,473.828 L1567.09,472.728 L1563.35,465.245 L1561.36,458.431 L1559.43,452.507 L1556.15,447.93 L1554.11,446.476 L1551.69,445.778 L1541.55,447.905 L1536.73,448.185 L1531.94,447.58 L1527.85,446.169 L1525.77,444.498 L1524.56,442.356 L1523.2,436.745 L1523.27,429.033 L1526.54,422.299 L1527.2,418.398 L1526.09,413.491 L1523.29,409.155 L1522.04,407.762 L1520.52,406.765 L1515.75,404.437 L1512.45,401.63 L1509.9,398.809 L1508.34,395.543 L1507.61,384.986 L1509.43,371.699 L1508.58,363.577 L1505.87,351.584 L1502.1,342.636 L1497.05,334.724 L1492.85,330.414 L1487.92,326.993 L1483.53,324.857 L1479.4,324.894 L1475.72,325.751 L1470.18,327.739 L1461.79,330.414 L1452.72,332.253 L1440.45,339.847 L1432.35,341.836 L1415.46,344.281 L1412.24,344.843 L1409.38,344.454 L1407.27,343.243 L1406.42,342.032 L1405.82,340.209 L1405.12,330.035 L1405.75,324.317 L1407.44,316.174 L1408.24,296.529 L1403.52,289.084 L1401.87,287.792 L1399.41,287.809 L1398.58,287.815 L1394.36,288.809 L1386.03,292.342 L1383.9,293.554 L1381.8,295.844 L1378.13,302.557 L1374.55,306.99 L1370.74,308.177 L1366.22,307.928 L1361.72,306.273 L1354.54,301.989 L1336.52,286.154 L1327.32,284.698 L1318,285.304 L1309.61,283.98 L1300.34,283.98 L1288.86,285.746 L1287.63,286.02 L1280.92,287.512 L1273.41,288.836 L1265.91,287.07 L1260.17,287.07 L1253.99,290.16 L1248.25,292.367 L1242.07,295.458 L1235.89,298.106 L1227.06,301.196 L1220.43,302.852 L1213.82,304.286 L1202.34,302.962 L1195.28,298.989 L1189.98,291.926 L1186.89,280.449 L1184.24,272.061 L1185.12,263.674 L1182.92,255.287 L1179.83,246.458 L1172.32,236.747 L1166.14,230.566 L1158.2,225.711 L1149.81,225.711 L1140.54,231.449 L1136.12,242.044 L1136.12,252.197 L1139.21,262.791 L1141.42,272.061 L1138.77,280.89 L1128.18,282.656 L1117.58,283.097 L1106.55,283.98 L1096.39,284.422 L1084.48,283.539 L1077.41,283.097 L1071.23,279.124 L1065.49,273.827 L1062.2,271.892 L1057.99,269.413 L1050.93,265.881 L1041.66,265.881 L1034.15,266.323 L1026.65,268.971 L1018.26,271.178 L1011.64,270.737 L1004.13,268.088 L996.188,265.44 L990.008,261.908 L983.386,259.701 L974.558,257.935 L965.287,256.17 L958.666,250.873 L956.458,241.161 L956.017,231.008 L956.017,222.179 L952.927,211.143 L947.63,204.522 L939.242,201.873 L929.089,201.873 L921.144,200.99 L914.964,193.044 L913.639,182.449 L914.522,170.531 L914.964,153.756 L913.639,143.603 L910.549,129.477 L901.279,118.883 L892.892,110.495 L880.973,103.874 L862.433,102.55 L846.69,102.082 L809.61,105.172 L791.802,109.612 L778.118,114.468 L769.731,123.297 L765.316,136.54 L760.019,151.107 L755.163,158.17 L750.307,166.999 L749.866,175.828 L751.19,187.747 L753.397,200.99 L753.397,213.35 L748.542,224.386 L741.037,229.683 L737.546,232.256 L732.65,235.863 L722.055,238.512 L715.875,245.575 L718.524,257.052 L722.938,269.413 L726.028,284.422 L726.513,290.971 L726.911,296.34 L726.028,304.728 L722.497,312.673 L720.445,313.88 L714.992,317.088 L706.605,316.205 L695.569,312.232 L688.506,309.584 L680.56,309.584 L672.173,312.232 L663.344,317.088 L653.633,320.62 L645.687,325.475 L640.831,332.538 L637.741,343.133 L635.092,354.61 L632.885,361.673 L628.029,366.97 L625.789,368.996 L622.291,372.268 L618.318,376.682 L613.234,381.986 L610.172,385.697 L608.723,389.435 L608.909,392.684 L610.241,396.83 L612.131,400.382 L614.786,403.996 L617.104,406.81 L620.083,408.465 L627.143,412.656 L628.658,414.591 L629.209,415.584 L631.075,416.629 L631.568,418.922 L630.713,420.978 L628.84,423.761 L623.502,427.955 L620.022,429.572 L617.667,429.927 L616.797,429.817 L614.945,429.186 L612.756,427.844 L609.045,424.879 L607.413,423.557 L604.489,421.157 L604.047,420.577 L603.972,419.874 L604.089,419.157 L605.527,417.264 L605.096,415.46 L604.337,413.997 L602.644,412.215 L598.671,409.415 L596.35,407.955 L593.001,406.669 L590.652,406.369 L587.941,406.796 L585.155,407.1 L581.855,407.98 L576.613,410.242 L574.595,409.542 L572.968,409.486 L571.305,410.162 L567.37,414.091 L562.145,417.005 L558.624,419.774 L556.896,421.861 L555.962,425.154 L555.338,429.558 L555.258,433.969 L555.531,438.083 L556.376,440.743 L558.9,446.385 L559.669,449.202 L559.935,452.372 L559.752,455.865 L559.324,457.244 L559.355,459.242 L559.104,462.693 L558.297,464.466 L558.317,465.59 L558.352,466.218 L558.048,466.763 L556.983,467.477 L554.924,468.542 L552.516,469.046 L548.792,469.743 L545.729,470.736 L542.274,472.115 L539.76,473.34 L538.26,474.433 L536.99,475.978 L535.325,478.824 L534.231,480.606 L533.176,481.524 L531.71,483.652 L530.003,485.993 L527.933,487.242 L526.389,489.835 L524.737,492.039 L521.602,497.45 L520.164,499.406 L518.291,500.388 L516.484,501.071 L515.574,501.016 L514.58,499.843 L512.304,499.388 L507.828,500.409 L503.577,500.848 L501.572,501.851 L499.463,502.661 L496.409,502.93 L490.719,502.835 L488.356,503.291 L486.739,504.014 L483.733,506.35 L482.083,508.562 L480.566,511.699 L479.588,514.899 L477.54,520.77 L473.23,527.185 L469.429,527.833 L466.802,529.475 L464.584,529.499 L459.055,533.972 L454.445,539.818 L453.379,545.173 L453.766,547.077 L455.135,550.426 L455.604,554.979 L456.814,558.679 L456.98,560.458 L456.459,561.931 L452.014,566.21 L447.633,568.638 L443.268,571.88 L437.946,575.009 L432.914,581.068 L429.476,586.017 L426.993,591.066 L422.33,597.467 L419.996,602.119 L417.464,605.788 L409.667,618.242 L407.476,618.479 L404.038,620.808 L396.727,630.464 L391.513,636.976 L390.398,639.585 L389.923,647.255 L389.619,648.938 L388.533,649.749 L387.881,652.746 L387.081,653.932 L386.96,655.35 L390.392,658.54 L391.771,661.05 L391.33,662.402 L388.571,663.23 L387.274,663.478 L386.474,664.416 L386.74,666.662 L386.971,668.5 L386.381,671.683 L389.895,678.542 L392.037,679.905 L394.686,687.41 L397.262,690.323 L398.172,693.524 L397.224,696.293 L395.413,698.407 L394.686,701.094 L396.186,704.835 L392.92,708.433 L389.195,717.482 L388.064,727.139 L386.298,735.527 L383.649,742.148 L380.928,747.213 L377.911,748.328 L373.237,750.386 L368.834,749.928 L364.43,751.104 L360.695,753.625 L355.204,757.902 L348.445,761.958 L345.696,762.912 L343.175,762.509 L335.798,761.174 L328.293,760.733 L320.347,761.174 L318.438,762.112 L316.623,763.629 L313.913,767.961 L311.402,769.561 L308.053,769.71 L301.442,773.507 L299.694,775.366 L298.756,779.642 L297.845,785.602 L298.794,791.109 L298.452,794.679 L297.911,798.779 L298.176,801.521 L299.29,803.828 L303.142,808.06 L305.36,809.704 L306.895,812.309 L307.595,815.25 L307.684,819.306 L306.408,822.699 L304.456,826.507 L303.528,827.888 L300.522,832.367 L296.162,838.188 L292.272,841.471 L288.122,845.93 L282.478,851.128 L277.318,856.094 L272.38,864.012 L269.582,867.119 L263.578,872.372 L257.84,878.993 L251.218,886.056 L248.846,890.25 L247.55,892.498" vector-effect="none"/>
  </g>
  <g font-weight="400" transform="matrix(0.999744,0,0,0.999744,0,0)" font-size="34.5833" font-style="normal" stroke-width="1" stroke-opacity="1" stroke="#000000" stroke-linejoin="bevel" font-family="MS Shell Dlg 2" stroke-linecap="square" fill="none"/>
  <g font-weight="400" transform="matrix(11.808,0,0,11.808,0,0)" font-size="34.5833" font-style="normal" stroke-width="1" stroke-opacity="1" stroke="#000000" stroke-linejoin="bevel" font-family="MS Shell Dlg 2" stroke-linecap="square" fill="none"/>
  <g font-weight="400" transform="matrix(11.808,0,0,11.808,0,0)" font-size="34.5833" font-style="normal" stroke-width="1" stroke-opacity="1" stroke="#000000" stroke-linejoin="bevel" font-family="MS Shell Dlg 2" stroke-linecap="square" fill="none"/>
  <g font-weight="400" transform="matrix(11.808,0,0,11.808,0,0)" font-size="34.5833" font-style="normal" stroke-width="1" stroke-opacity="1" stroke="#000000" stroke-linejoin="bevel" font-family="MS Shell Dlg 2" stroke-linecap="square" fill="none"/>
  <g font-weight="400" transform="matrix(1,0,0,1,0,0)" font-size="34.5833" font-style="normal" stroke-width="1" stroke-opacity="1" stroke="#000000" stroke-linejoin="bevel" font-family="MS Shell Dlg 2" stroke-linecap="square" fill="none"/>
  <g font-weight="400" transform="matrix(11.808,0,0,11.808,0,0)" font-size="34.5833" font-style="normal" stroke-width="1" stroke-opacity="1" stroke="#000000" stroke-linejoin="bevel" font-family="MS Shell Dlg 2" stroke-linecap="square" fill="none"/>
  <g font-weight="400" transform="matrix(11.808,0,0,11.808,0,0)" font-size="34.5833" font-style="normal" stroke-width="1" stroke-opacity="1" stroke="#000000" stroke-linejoin="bevel" font-family="MS Shell Dlg 2" stroke-linecap="square" fill="none"/>
  <g font-weight="400" transform="matrix(11.808,0,0,11.808,0,0)" font-size="34.5833" font-style="normal" stroke-width="1" stroke-opacity="1" stroke="#000000" stroke-linejoin="bevel" font-family="MS Shell Dlg 2" stroke-linecap="square" fill="none"/>
  <g font-weight="400" transform="matrix(11.808,0,0,11.808,0,0)" font-size="34.5833" font-style="normal" stroke-width="1" stroke-opacity="1" stroke="#000000" stroke-linejoin="bevel" font-family="MS Shell Dlg 2" stroke-linecap="square" fill="none"/>
  <g font-weight="400" transform="matrix(1,0,0,1,0,0)" font-size="34.5833" font-style="normal" stroke-width="1" stroke-opacity="1" stroke="#000000" stroke-linejoin="bevel" font-family="MS Shell Dlg 2" stroke-linecap="square" fill="none"/>
 </g>
</svg>
