<?xml version='1.0' encoding='UTF-8' standalone='no'?>
<svg xmlns:xlink="http://www.w3.org/1999/xlink" viewBox="0 0 2952 2952" xmlns="http://www.w3.org/2000/svg" height="249.936mm" version="1.2" baseProfile="tiny" width="249.936mm">
 <title>Qt SVG Document</title>
 <desc>Generated with Qt</desc>
 <defs/>
 <g fill-rule="evenodd" stroke-width="1" stroke="black" stroke-linejoin="bevel" stroke-linecap="square" fill="none">
  <g font-weight="400" transform="matrix(1,0,0,1,0,0)" font-size="34.5833" font-style="normal" stroke-width="1" stroke-opacity="1" stroke="#000000" stroke-linejoin="bevel" font-family="MS Shell Dlg 2" stroke-linecap="square" fill="none"/>
  <g font-weight="400" transform="matrix(1,0,0,1,0,0)" font-size="34.5833" font-style="normal" stroke-width="1" stroke-opacity="1" stroke="#000000" stroke-linejoin="bevel" font-family="MS Shell Dlg 2" stroke-linecap="square" fill="none"/>
  <g font-weight="400" transform="matrix(11.808,0,0,11.808,0,0)" font-size="34.5833" font-style="normal" stroke-width="1" stroke-opacity="1" stroke="#000000" stroke-linejoin="bevel" font-family="MS Shell Dlg 2" stroke-linecap="square" fill="none"/>
  <g font-weight="400" transform="matrix(0.999744,0,0,0.999744,0,0)" font-size="34.5833" font-style="normal" stroke-width="1" stroke-opacity="1" stroke="#000000" stroke-linejoin="bevel" font-family="MS Shell Dlg 2" stroke-linecap="square" fill="none"/>
  <g font-weight="400" transform="matrix(0.999744,0,0,0.999744,0,0)" font-size="34.5833" font-style="normal" stroke="none" font-family="MS Shell Dlg 2" fill-opacity="0" fill="#ffffff">
   <path fill-rule="evenodd" d="M-2,-2 L2955,-2 L2955,2955 L-2,2955 L-2,-2" vector-effect="none"/>
  </g>
  <g font-weight="400" transform="matrix(0.999744,0,0,0.999744,0,0)" font-size="34.5833" font-style="normal" stroke-width="1" stroke-opacity="1" stroke="#000000" stroke-linejoin="bevel" font-family="MS Shell Dlg 2" stroke-linecap="square" fill="none"/>
  <g font-weight="400" transform="matrix(11.808,0,0,11.808,0,0)" font-size="34.5833" font-style="normal" stroke-width="1" stroke-opacity="1" stroke="#000000" stroke-linejoin="bevel" font-family="MS Shell Dlg 2" stroke-linecap="square" fill="none"/>
  <g font-weight="400" transform="matrix(11.808,0,0,11.808,0,0)" font-size="34.5833" font-style="normal" stroke-width="1" stroke-opacity="1" stroke="#000000" stroke-linejoin="bevel" font-family="MS Shell Dlg 2" stroke-linecap="square" fill="none"/>
  <g font-weight="400" transform="matrix(11.808,0,0,11.808,0,0)" font-size="34.5833" font-style="normal" stroke-width="1" stroke-opacity="1" stroke="#000000" stroke-linejoin="bevel" font-family="MS Shell Dlg 2" stroke-linecap="square" fill="none"/>
  <g font-weight="400" transform="matrix(11.808,0,0,11.808,0,0)" font-size="34.5833" font-style="normal" stroke-width="1" stroke-opacity="1" stroke="#000000" stroke-linejoin="bevel" font-family="MS Shell Dlg 2" stroke-linecap="square" fill="none"/>
  <g font-weight="400" transform="matrix(11.808,0,0,11.808,0,0)" font-size="34.5833" font-style="normal" stroke-width="1" stroke-opacity="1" stroke="#000000" stroke-linejoin="bevel" font-family="MS Shell Dlg 2" stroke-linecap="square" fill="none"/>
  <g font-weight="400" transform="matrix(11.808,0,0,11.808,0,0)" font-size="34.5833" font-style="normal" stroke="none" font-family="MS Shell Dlg 2" fill-opacity="0" fill="#ffffff">
   <path fill-rule="evenodd" d="M0,0 L250,0 L250,250 L0,250 L0,0" vector-effect="none"/>
  </g>
  <g font-weight="400" transform="matrix(11.808,0,0,11.808,0,0)" font-size="34.5833" font-style="normal" stroke-width="1" stroke-opacity="1" stroke="#000000" stroke-linejoin="bevel" font-family="MS Shell Dlg 2" stroke-linecap="square" fill="none"/>
  <g font-weight="400" transform="matrix(11.808,0,0,11.808,0,0)" font-size="34.5833" font-style="normal" stroke-width="1" stroke-opacity="1" stroke="#000000" stroke-linejoin="bevel" font-family="MS Shell Dlg 2" stroke-linecap="square" fill="none"/>
  <g font-weight="400" transform="matrix(0.999744,0,0,0.999744,0,0)" font-size="34.5833" font-style="normal" stroke="none" font-family="MS Shell Dlg 2" fill-opacity="0" fill="#000000">
   <rect x="0" y="0" height="2953" width="2953"/>
  </g>
  <g font-weight="400" transform="matrix(0.999744,0,0,0.999744,0,0)" font-size="34.5833" font-style="normal" stroke-width="1" stroke-opacity="1" stroke="#000000" stroke-linejoin="bevel" font-family="MS Shell Dlg 2" stroke-linecap="square" fill="none"/>
  <g font-weight="400" transform="matrix(0.999744,0,0,0.999744,0,0)" font-size="34.5833" font-style="normal" stroke-width="1" stroke-opacity="1" stroke="#000000" stroke-linejoin="bevel" font-family="MS Shell Dlg 2" stroke-linecap="square" fill="none"/>
  <g font-weight="400" transform="matrix(0.999744,0,0,0.999744,0,0)" font-size="34.5833" font-style="normal" stroke-width="3.07087" stroke-opacity="1" stroke="#5c5c5c" stroke-linejoin="bevel" font-family="MS Shell Dlg 2" fill-opacity="1" stroke-linecap="square" fill="#c5c5c5">
   <path fill-rule="evenodd" d="M139.289,1660.34 L139.452,1663.78 L139.939,1666.13 L141.001,1670.24 L143.366,1677.64 L152.282,1706.64 L158.163,1726.48 L163.33,1751.19 L172.575,1794.17 L173.737,1799.27 L174.569,1802.95 L176.098,1807.84 L178.56,1813.16 L187.179,1827.03 L202.064,1850.15 L220.657,1879.51 L227.472,1889.88 L229.699,1894.43 L237.568,1918.8 L244.982,1941.84 L250.917,1960.45 L253.407,1968.04 L254.485,1974.68 L254.5,1978.51 L253.968,1990.84 L252.243,2008.68 L250.528,2026.28 L248.531,2042.43 L247.84,2049.24 L247.495,2056.66 L248.302,2072.25 L249.675,2097.88 L251.252,2131.72 L252.689,2159.27 L252.814,2161.88 L253.015,2166.04 L253.926,2182.75 L254.233,2195.84 L254.711,2208.42 L255.147,2214.66 L255.412,2218.31 L255.692,2221.51 L256.953,2233.87 L257.5,2238.76 L258.062,2244.8 L287.348,2242.86 L288.449,2242.44 L289.245,2242.28 L289.999,2242.34 L291.204,2242.56 L292.41,2242.75 L294.267,2242.84 L295.082,2242.84 L295.675,2242.77 L296.167,2242.46 L296.641,2242.03 L297.098,2241.67 L297.579,2241.51 L297.971,2241.56 L298.321,2241.92 L298.597,2242.44 L298.686,2243.06 L298.682,2243.68 L298.495,2244.46 L298.048,2245.23 L297.512,2246.42 L297.025,2247.93 L296.77,2249.1 L296.833,2250.01 L297.21,2251.2 L297.568,2251.95 L298.021,2252.31 L298.896,2252.8 L299.652,2253.09 L300.505,2253.13 L300.793,2252.88 L301.29,2252.15 L301.697,2251.73 L302.084,2251.34 L302.62,2251.19 L303.031,2251.15 L304.543,2251.74 L304.907,2251.93 L305.261,2252.21 L305.63,2252.81 L305.729,2253.43 L305.506,2254.02 L305.136,2254.35 L304.94,2254.8 L304.84,2255.59 L304.807,2256.47 L304.936,2257.04 L305.179,2257.45 L305.722,2257.51 L306.259,2257.31 L306.809,2257.19 L307.497,2257.28 L308.058,2257.51 L308.532,2258.03 L308.959,2259.02 L309.501,2259.76 L310.091,2260.21 L310.701,2260.4 L311.799,2260.54 L313.026,2260.43 L313.797,2260.28 L314.718,2259.96 L315.918,2259.38 L316.712,2258.96 L317.632,2258.29 L318.233,2258.14 L319.222,2258.1 L319.849,2257.76 L320.405,2257.3 L320.946,2256.75 L321.417,2256.46 L321.977,2256.29 L322.485,2256.28 L322.896,2256.37 L323.293,2256.52 L324.145,2257.21 L324.756,2257.65 L325.192,2257.85 L325.492,2258.07 L325.615,2258.37 L325.673,2258.94 L325.547,2260.01 L325.564,2260.82 L325.748,2261.69 L325.877,2262.47 L325.963,2262.88 L326.183,2263.31 L326.699,2263.58 L327.405,2263.74 L328.134,2263.77 L330.058,2264.29 L330.996,2265.26 L331.311,2266.14 L331.722,2266.85 L332.435,2267.29 L333.201,2267.76 L333.552,2268.29 L333.794,2268.83 L334.33,2269.76 L334.944,2270.7 L335.567,2271.33 L337.707,2272.41 L339.053,2273.46 L339.35,2273.99 L339.528,2274.65 L339.784,2275.23 L339.84,2275.36 L340.464,2275.59 L341.119,2275.69 L341.921,2275.51 L342.471,2275.08 L343.135,2274.59 L343.501,2274.3 L343.539,2273.84 L343.695,2273.54 L344.017,2273.44 L344.39,2273.56 L345.201,2273.65 L345.875,2273.83 L346.699,2273.74 L347.262,2273.78 L347.72,2273.99 L348.147,2274.3 L348.972,2275.26 L349.393,2275.75 L349.805,2276.74 L350.208,2276.84 L350.653,2276.73 L351.09,2276.79 L351.276,2277.05 L351.375,2277.47 L351.249,2277.89 L351.144,2278.28 L351.286,2278.42 L351.474,2278.56 L351.803,2278.63 L352.196,2278.6 L352.388,2278.45 L352.558,2278.26 L352.786,2277.49 L352.963,2277.17 L353.218,2276.87 L353.543,2276.66 L353.896,2276.51 L354.485,2276.32 L355.089,2275.78 L355.656,2275.23 L356.01,2275.11 L356.467,2275.2 L357.056,2275.57 L357.723,2275.79 L358.746,2275.84 L360.382,2276.16 L361.055,2276.56 L361.706,2276.65 L362.123,2276.56 L362.625,2276.06 L363.055,2275.82 L363.367,2275.78 L363.839,2276.06 L364.412,2275.85 L364.978,2275.77 L366.557,2275.84 L367.798,2275.3 L368.148,2275.03 L368.464,2274.96 L368.666,2275.21 L368.771,2275.63 L368.881,2275.98 L369.265,2276.05 L369.596,2276.12 L369.859,2276.03 L370.234,2275.73 L370.785,2275.26 L371.374,2275.08 L372.051,2275.09 L373.721,2274.54 L374.324,2274.48 L374.497,2274.71 L374.482,2275.23 L374.808,2275.52 L376.645,2274.76 L377.651,2274.59 L378.316,2274.26 L378.619,2274.11 L378.888,2274.13 L379.613,2274.34 L380.082,2274.17 L380.424,2273.71 L381.182,2273.51 L382.757,2272.7 L383.147,2272.68 L383.536,2272.73 L383.769,2272.66 L383.983,2272.47 L384.294,2272.48 L384.554,2272.58 L384.727,2273.04 L385.666,2273.47 L386.469,2273.56 L387.274,2273.61 L388.288,2274.14 L389.588,2274.14 L390.629,2274.1 L390.928,2274.69 L391.251,2275.02 L391.911,2274.96 L392.204,2274.74 L393.326,2272.74 L394.569,2271.56 L395.369,2270.52 L395.74,2270.11 L396.194,2269.97 L396.655,2270.02 L397.139,2270.23 L397.61,2270.04 L398.151,2270.06 L398.696,2269.83 L398.933,2269.95 L399.358,2270.05 L400.227,2269.51 L400.95,2269.28 L401.699,2269.1 L403.104,2268.63 L403.531,2268.61 L404.005,2268.73 L404.583,2269.06 L404.779,2269.53 L404.805,2269.92 L405.187,2270.27 L405.331,2270.83 L405.585,2271.18 L406.145,2272.14 L407.099,2272.53 L407.865,2272.57 L408.266,2272.8 L408.586,2273.7 L408.615,2274.13 L408.519,2274.42 L408.267,2274.62 L408.175,2274.84 L408.267,2275.09 L408.414,2275.28 L409.013,2275.45 L409.781,2275.57 L410.337,2275.53 L411.548,2275.35 L412.117,2275.46 L412.527,2275.32 L412.695,2275.03 L412.851,2274.58 L413.105,2274.49 L413.348,2274.51 L413.854,2274.73 L414.366,2274.9 L415.069,2275.48 L415.385,2275.55 L415.615,2275.41 L415.766,2275.17 L417.199,2274.71 L418.473,2273.92 L418.768,2273.4 L419.317,2273 L420.266,2272.38 L420.662,2272.11 L421.27,2271.61 L421.65,2270.88 L421.979,2269.63 L422.009,2268.89 L421.874,2268.09 L421.562,2267.43 L421.039,2266.81 L420.873,2266.07 L420.958,2265.18 L421.677,2264.55 L422.894,2264.44 L423.575,2264.12 L424.342,2262.14 L424.862,2261.31 L425.412,2261.09 L426.225,2261.25 L427.654,2260.79 L429.162,2260.58 L429.771,2260.14 L430.355,2259.85 L430.457,2258.97 L430.057,2258.07 L429.927,2256.57 L430.322,2254.97 L429.794,2253.6 L429.03,2252.8 L427.876,2252.27 L427.619,2251.68 L428.062,2250.52 L428.877,2250.14 L429.285,2249.49 L429.142,2248.81 L428.714,2248.42 L428.19,2246.82 L430.019,2245.66 L430.284,2244.76 L431.269,2242.84 L431.3,2240.57 L430.579,2239.4 L429.384,2238.25 L428.398,2236.94 L427.685,2236.2 L427.787,2235.59 L428.286,2235.23 L428.989,2235.34 L429.771,2236.01 L431.881,2235.46 L432.515,2233.58 L433.479,2232.54 L434.808,2232.35 L437.234,2232.99 L438.299,2232.8 L439.639,2233.22 L440.22,2233.87 L441.147,2234.5 L441.878,2234.26 L443.542,2233.29 L444.923,2232.49 L447.251,2233.15 L447.812,2233.59 L448.064,2234.2 L448.005,2235.26 L448.708,2236.4 L450.563,2237.84 L450.93,2238.64 L452.597,2239.47 L454.975,2239.79 L456.892,2239.88 L457.317,2239.22 L457.625,2237.42 L458.142,2236.34 L459.622,2234.62 L461.126,2234.1 L462.965,2233.85 L463.984,2233.09 L464.724,2232.03 L465.645,2231.73 L466.603,2230.84 L467.752,2229.71 L469.156,2229.4 L469.925,2229.56 L471.675,2230.18 L473.176,2231.61 L474.792,2232.27 L474.99,2233.4 L475.785,2234.05 L476.967,2233.79 L477.829,2234.34 L478.317,2234.34 L479.311,2233.74 L482.068,2233.58 L482.822,2233.85 L483.474,2233.56 L483.591,2233.13 L484.684,2232.59 L485.069,2230.89 L485.802,2230.11 L487.165,2229.49 L490.426,2227.86 L492.421,2228.26 L493.524,2229.33 L496.283,2228.59 L497.18,2229.03 L498.607,2230.91 L499.85,2231.28 L501.29,2233.38 L501.344,2234.07 L503.012,2236.18 L505.763,2240.17 L508.023,2239.52 L509.684,2239.56 L510.869,2240.57 L512.242,2242.03 L513.424,2242.69 L515.302,2242.56 L518.125,2241.89 L518.943,2241.53 L520.598,2241.64 L522.163,2242.04 L523.294,2241.9 L525.185,2240.82 L526.142,2239.33 L527.938,2237.68 L529.378,2236.58 L531.141,2235.74 L533.395,2235.34 L534.911,2233.95 L535.834,2232.79 L536.547,2231.31 L538.251,2228.28 L538.092,2227.18 L538.866,2226.59 L538.994,2225.78 L538.489,2224.45 L538.362,2223.41 L539.187,2222.76 L540.045,2221.29 L541.704,2219.37 L542.109,2219.29 L543.296,2218.54 L544.491,2217.15 L545.404,2215.12 L546.842,2213.51 L548.146,2210.25 L547.869,2207.69 L548.522,2204.75 L549.777,2201.77 L546.27,2187.63 L546.502,2187.59 L546.751,2187.49 L555.754,2181.67 L559.203,2179.44 L561.642,2177.89 L563.991,2176.39 L565.524,2175.38 L567.344,2174.22 L567.857,2176.37 L569.203,2175.47 L570.953,2174.36 L572.698,2173.22 L574.381,2172.15 L576.084,2171.05 L574.969,2169.3 L576.674,2168.2 L578.325,2167.11 L579.444,2168.89 L580.164,2170.01 L581.135,2171.51 L581.351,2171.81 L581.481,2171.98 L581.662,2172.19 L581.927,2171.64 L582.695,2169.89 L583.573,2168.09 L583.86,2167.59 L584.172,2167.19 L584.602,2166.72 L585.243,2166.12 L585.632,2165.83 L586.113,2165.52 L586.754,2165.2 L586.933,2165.12 L587.1,2165.04 L587.374,2164.94 L587.872,2164.78 L588.488,2164.63 L589.256,2164.47 L589.875,2164.35 L587.34,2164.63 L586.683,2164.76 L586.463,2160.31 L592.769,2158.04 L599.853,2154.16 L604.873,2148.63 L610.09,2145.37 L617.917,2141.46 L626.069,2139.83 L630.635,2141.13 L633.896,2146.35 L635.787,2150.23 L639.257,2153.44 L641.624,2152.94 L652.017,2150.57 L657.049,2146.67 L663.506,2144.03 L670.028,2143.38 L674.593,2143.71 L678.379,2144.72 L684.441,2146.67 L693.833,2146.97 L700.443,2147.77 L710.287,2145.39 L720.653,2142.79 L734.443,2139.56 L738.555,2139.31 L741.212,2139.93 L742.904,2140.3 L743.994,2140.53 L745.666,2140.87 L747.151,2141.17 L749.029,2141.58 L750.659,2141.93 L752.29,2142.28 L753.502,2142.59 L754.542,2142.85 L755.571,2143.06 L756.712,2143.28 L758.231,2143.54 L758.985,2143.66 L759.522,2143.73 L760.004,2143.78 L765.902,2142.08 L770.671,2137.05 L774.707,2131.31 L779.989,2127.76 L785.533,2122.87 L789.055,2117.29 L791.338,2105.55 L793.686,2099.72 L797.271,2095 L800.411,2093.03 L802.644,2091.74 L803.632,2091.16 L810.038,2087.37 L822.856,2079.86 L828.171,2076.73 L840.971,2069.2 L861.585,2079.66 L873.518,2085.82 L873.834,2085.95 L874.16,2086.03 L876.107,2086.26 L888.979,2087.29 L901.266,2093.77 L911.734,2110.53 L915.142,2113.88 L924.898,2123.32 L929.226,2125.9 L940.643,2132.1 L943.459,2128.61 L954.401,2134.71 L957.779,2146.3 L959.328,2155.11 L960.134,2161 L961.122,2166.76 L964.464,2172.88 L967.539,2178.01 L969.525,2181.42 L976.844,2174.64 L980.391,2171.36 L984.609,2166.34 L991.479,2166.49 L1004.68,2170.19 L1019.88,2179.22 L1025,2183.68 L1028.32,2186.51 L1028.49,2186.8 L1028.55,2187.15 L1025.87,2197.07 L1028.32,2206.17 L1031.32,2217.46 L1031.6,2218.51 L1031.5,2218.96 L1031.72,2218.99 L1032.61,2219.25 L1035.42,2219.26 L1038.38,2219.15 L1040.27,2219.17 L1040.94,2219.17 L1041.14,2219.1 L1041.31,2218.99 L1041.8,2218.47 L1042.16,2218.17 L1042.54,2218.08 L1043,2218.07 L1047.89,2218.64 L1053.19,2219.17 L1056.49,2219.46 L1057.1,2219.58 L1057.75,2220.23 L1059.23,2222.09 L1059.79,2223.25 L1062.49,2227.64 L1062.53,2227.7 L1066.03,2233.12 L1067.38,2235.37 L1070.43,2240.72 L1072.13,2245.48 L1073.44,2251.97 L1074.29,2254.26 L1077.79,2254.87 L1078.69,2255.16 L1079.76,2256.82 L1081.07,2258.94 L1085.33,2268.79 L1099.29,2299.67 L1107.37,2305.91 L1107.7,2306.19 L1107.91,2306.46 L1108.14,2306.81 L1108.34,2307.31 L1109.92,2311.99 L1114.55,2313.76 L1116.89,2320.77 L1118.91,2324.04 L1119.75,2327.92 L1126.79,2333.4 L1133.23,2338.47 L1139.14,2342.38 L1144.58,2337.54 L1145.61,2337.47 L1156.15,2336.68 L1159.49,2336.62 L1161.8,2335.84 L1168.11,2333.4 L1171.94,2331.92 L1173.41,2331.27 L1173.86,2331.03 L1175.36,2329.82 L1184.79,2320.55 L1190.3,2315.34 L1191.27,2314.64 L1192.48,2314.03 L1198.08,2311.45 L1199.59,2310.63 L1200.99,2309.73 L1202.09,2308.67 L1202.91,2307.64 L1203.64,2306.41 L1206.06,2299.4 L1206.04,2298.86 L1206.02,2298.69 L1205.91,2298.29 L1207.27,2291.95 L1210.29,2281.34 L1213.64,2282.06 L1226.27,2281.42 L1237.27,2284.11 L1241.19,2285.58 L1244.05,2294.41 L1254.4,2293.39 L1260.02,2292.02 L1272.9,2292.67 L1286.52,2295.44 L1308.19,2299.9 L1315.59,2301.51 L1322.47,2301.72 L1327.6,2304.06 L1330.45,2307.75 L1336.29,2312 L1348.63,2313.28 L1352.22,2313.7 L1369.83,2315.42 L1370.46,2315.51 L1371.21,2315.65 L1375.26,2316.94 L1394.74,2323.08 L1404.93,2326 L1405.72,2340.96 L1425.93,2356.4 L1442.99,2369.45 L1450.84,2375.49 L1462.77,2384.67 L1467.08,2387.96 L1471.27,2391.17 L1473.57,2392.93 L1476.81,2395.41 L1477.3,2395.54 L1477.91,2395.55 L1478.34,2395.47 L1478.67,2395.48 L1478.89,2395.56 L1479.07,2395.67 L1479.23,2395.85 L1479.33,2395.97 L1479.45,2396.24 L1479.56,2396.53 L1479.71,2396.69 L1480.11,2397 L1480.54,2397.23 L1480.75,2397.3 L1482.07,2397.73 L1484.03,2398.36 L1484.77,2398.58 L1486.64,2399.15 L1487.61,2399.45 L1491.65,2400.7 L1491.78,2401.25 L1492.14,2401.57 L1497.5,2404.78 L1500.46,2419.83 L1500.69,2420.73 L1500.9,2421.17 L1501.33,2421.95 L1501.63,2422.56 L1501.74,2422.91 L1504.6,2436.02 L1509.16,2437.69 L1514.22,2433.63 L1519.92,2432.16 L1535.9,2421.07 L1539.65,2417.49 L1543.19,2416.62 L1550.41,2415.2 L1555.47,2414.39 L1569.98,2419.6 L1575.94,2422.85 L1581.8,2424.48 L1594.76,2428.57 L1600.5,2431.06 L1601.69,2430.88 L1612.3,2431.33 L1630.8,2440.64 L1633.32,2443 L1635.68,2445.1 L1636.2,2445.83 L1637.14,2446.63 L1639.04,2448.37 L1640.86,2450 L1641.31,2450.41 L1641.64,2450.8 L1641.93,2451.19 L1643.72,2454.17 L1645.72,2457.52 L1647.14,2459.96 L1647.39,2460.23 L1647.65,2460.41 L1647.95,2460.47 L1648.96,2460.43 L1649.06,2460.41 L1652.72,2459.92 L1653.7,2459.84 L1654.02,2459.85 L1654.65,2459.82 L1655.69,2459.71 L1657.01,2459.57 L1658.81,2459.4 L1660.24,2459.34 L1661.89,2459.16 L1663.13,2459 L1665.73,2458.77 L1668.37,2458.51 L1670.41,2458.47 L1671.35,2458.43 L1672.02,2458.58 L1673.09,2458.73 L1675.82,2459.04 L1677.72,2459.3 L1679.38,2459.54 L1680.06,2459.7 L1681.41,2459.92 L1683.52,2460.04 L1684.15,2460.02 L1684.52,2460.13 L1703.2,2465.87 L1712.51,2468.79 L1718.9,2470.81 L1741.22,2477.71 L1743.63,2478.42 L1745.23,2478.68 L1746.37,2478.68 L1746.26,2478.08 L1746.25,2477.79 L1746.32,2477.59 L1746.56,2477.41 L1746.9,2477.18 L1747.45,2476.76 L1748.37,2475.91 L1749.66,2474.84 L1750.21,2474.39 L1750.54,2474.2 L1750.92,2474.09 L1752.02,2473.97 L1754.41,2473.71 L1755.76,2473.57 L1756.16,2473.57 L1756.66,2473.48 L1757.06,2473.38 L1757.33,2473.26 L1758.04,2472.66 L1759.16,2471.67 L1760.37,2470.59 L1761.08,2469.95 L1761.35,2469.61 L1761.53,2469.15 L1762.06,2467.79 L1762.53,2466.51 L1762.94,2465.47 L1763.18,2464.73 L1763.26,2464.42 L1764.23,2464.24 L1764.49,2464.48 L1764.86,2464.84 L1765.28,2465.25 L1765.7,2465.59 L1766.1,2465.79 L1766.51,2465.9 L1766.95,2465.81 L1767.6,2465.63 L1767.98,2465.45 L1768.23,2465.32 L1768.58,2465.73 L1770.52,2467.95 L1772.13,2469.74 L1773.44,2471.2 L1773.98,2471.93 L1774.18,2471.89 L1774.44,2471.84 L1774.8,2472.17 L1776.5,2474.08 L1778.94,2476.83 L1780.74,2478.89 L1782.82,2481.23 L1784.48,2483.03 L1784.98,2483.6 L1785.45,2484.13 L1785.79,2484.52 L1786.48,2485.29 L1788.26,2487.31 L1789.64,2488.88 L1790.55,2489.98 L1791.13,2490.52 L1791.75,2490.85 L1792.45,2491.12 L1793.53,2491.39 L1795.69,2491.86 L1797.49,2492.23 L1799.08,2492.58 L1800.38,2492.91 L1801.37,2493.12 L1802.76,2493.31 L1804.1,2493.54 L1805.43,2493.93 L1806.22,2494.19 L1807.15,2494.58 L1807.82,2494.81 L1808.38,2494.99 L1808.74,2495.19 L1809.01,2495.45 L1809.47,2496.14 L1810.16,2497.08 L1810.94,2498.25 L1811.5,2499.03 L1812.47,2500.38 L1813.13,2501.33 L1813.58,2500.14 L1814.22,2497.93 L1815.26,2495.05 L1816.11,2492.55 L1816.94,2490.38 L1817.94,2487.56 L1818.82,2484.98 L1819.36,2483.38 L1819.48,2482.84 L1819.5,2482.18 L1819.53,2481.7 L1819.72,2481.52 L1819.9,2481.37 L1820.46,2480.96 L1821.59,2480.15 L1823.07,2479.1 L1824.05,2478.4 L1824.87,2477.81 L1826.25,2476.85 L1828.1,2475.52 L1829.59,2474.46 L1830.95,2473.48 L1831.3,2473.28 L1831.6,2473.18 L1831.84,2473.16 L1832.2,2473.21 L1832.55,2473.3 L1834.89,2473.93 L1837.6,2474.67 L1839.73,2475.24 L1841.03,2475.58 L1841.46,2475.68 L1841.76,2475.68 L1842.07,2475.61 L1842.58,2475.41 L1843.82,2474.81 L1845.73,2473.91 L1846.17,2473.71 L1846.47,2473.67 L1846.84,2473.7 L1847.16,2473.79 L1847.56,2474.02 L1847.9,2474.16 L1848.22,2474.17 L1848.56,2474.12 L1848.89,2474.04 L1849.9,2473.66 L1851.37,2473.08 L1853.34,2472.26 L1855.18,2471.49 L1856.2,2471.13 L1858.08,2470.35 L1860.34,2469.41 L1862.25,2468.65 L1863.65,2468.08 L1864.74,2467.62 L1865.06,2467.4 L1865.28,2467.17 L1865.51,2466.8 L1865.7,2466.32 L1865.91,2465.63 L1866.31,2464.27 L1866.63,2463.15 L1866.89,2462.17 L1867.01,2461.95 L1867.18,2461.73 L1867.28,2461.62 L1867.57,2461.46 L1869.03,2460.87 L1870.21,2460.38 L1871.54,2459.87 L1873.1,2459.25 L1874.72,2458.56 L1876.12,2458.02 L1877.29,2457.52 L1878.05,2457.18 L1878.48,2456.87 L1878.76,2456.66 L1879.56,2455.76 L1880.63,2454.56 L1881.75,2453.25 L1882.62,2452.28 L1883.54,2451.24 L1884.43,2450.2 L1885.23,2449.32 L1885.74,2448.67 L1886.31,2447.7 L1886.75,2446.84 L1887.21,2445.95 L1887.45,2445.52 L1887.47,2445.17 L1887.59,2444.99 L1887.75,2444.84 L1887.93,2444.75 L1888.1,2444.74 L1889.08,2444.86 L1891.02,2445.21 L1893.08,2445.56 L1894.88,2445.88 L1896.29,2446.13 L1897.56,2446.37 L1899.03,2446.62 L1900.1,2446.83 L1900.98,2446.97 L1901.66,2447.1 L1901.99,2446.89 L1902.25,2446.8 L1902.48,2446.64 L1902.79,2446.3 L1903.12,2445.82 L1903.42,2445.27 L1903.8,2444.55 L1904.1,2444.03 L1904.61,2443.31 L1905.57,2441.79 L1906.76,2439.86 L1907.31,2439.05 L1907.6,2438.76 L1907.94,2438.68 L1908.32,2438.64 L1908.84,2438.64 L1910.7,2438.62 L1913.07,2438.65 L1915.7,2438.64 L1919.31,2438.6 L1922.12,2438.65 L1923.39,2438.63 L1923.85,2438.55 L1924.71,2438.26 L1926.66,2437.54 L1927.52,2437.26 L1928.12,2437.21 L1928.54,2437.04 L1928.91,2436.92 L1929.18,2436.79 L1929.52,2436.56 L1929.98,2436.18 L1930.79,2435.48 L1931.89,2434.57 L1933.17,2433.48 L1934.1,2432.69 L1934.9,2432.01 L1935.21,2431.69 L1935.58,2431.28 L1935.85,2431.04 L1936.25,2430.75 L1936.63,2430.65 L1936.64,2430.27 L1936.66,2430.09 L1936.73,2429.91 L1936.99,2429.61 L1937.59,2429.13 L1939.05,2428.18 L1940.55,2427.17 L1941.84,2426.3 L1943.32,2425.33 L1944.62,2424.5 L1945.88,2423.62 L1947.27,2422.74 L1948.88,2421.63 L1949.76,2421.05 L1951.45,2419.9 L1953.05,2418.86 L1954.32,2418.04 L1954.61,2417.87 L1954.89,2417.83 L1955.3,2417.89 L1955.89,2417.96 L1957.56,2418.05 L1959.39,2418.14 L1961.49,2418.27 L1962.42,2418.36 L1965.96,2418.51 L1966.81,2418.5 L1967.53,2418.44 L1968.62,2418.35 L1969.61,2418.24 L1970.09,2418.16 L1970.53,2418.06 L1971.05,2417.92 L1972.44,2417.46 L1974.99,2416.59 L1977.79,2415.64 L1979.65,2415.07 L1981.46,2414.55 L1984.31,2413.68 L1985.72,2413.26 L1986.97,2412.87 L1987.96,2412.57 L1988.4,2412.37 L1988.65,2412.22 L1988.86,2412 L1989.03,2411.78 L1989.19,2411.54 L1989.54,2411 L1990.39,2409.51 L1990.86,2408.6 L1991.27,2407.92 L1991.53,2407.61 L1991.68,2407.45 L1991.73,2407.38 L1991.84,2407.25 L1991.96,2407.18 L1992.2,2407.04 L1993.58,2406.85 L1995.95,2406.33 L1998.26,2405.86 L2000.09,2405.5 L2000.45,2405.5 L2001.94,2405.68 L2004.03,2405.97 L2006.25,2406.27 L2007.71,2406.5 L2008.19,2406.57 L2008.55,2406.53 L2008.93,2406.37 L2009.54,2405.97 L2010.21,2405.58 L2010.96,2405.13 L2011.39,2404.88 L2011.56,2404.83 L2011.74,2404.91 L2011.93,2404.96 L2012.37,2405.06 L2013.04,2405.18 L2013.48,2405.27 L2013.93,2405.37 L2014.27,2405.47 L2014.58,2405.57 L2014.75,2405.67 L2014.86,2405.75 L2014.96,2405.92 L2015.85,2405.6 L2016,2405.72 L2016.33,2405.86 L2018.55,2406.45 L2020.46,2406.86 L2022.58,2407.29 L2023.85,2407.62 L2024.95,2407.88 L2025.6,2408 L2025.99,2408.17 L2026.63,2408.53 L2027.41,2409.01 L2027.87,2409.28 L2028.31,2409.5 L2029.3,2410.02 L2030.61,2410.78 L2031.16,2411.05 L2031.48,2411.13 L2031.8,2411.11 L2032.17,2410.96 L2033.18,2410.62 L2035.16,2409.96 L2036.54,2409.49 L2037.29,2409.16 L2037.62,2409.01 L2037.97,2408.85 L2038.4,2408.69 L2038.83,2408.53 L2039.25,2408.4 L2039.73,2408.18 L2040.18,2408.06 L2040.64,2408.06 L2041.01,2408.12 L2041.28,2408.19 L2042.73,2408.52 L2043.04,2408.59 L2043.27,2408.61 L2043.58,2408.68 L2043.72,2408.72 L2044.08,2408.78 L2044.86,2408.97 L2045.21,2409.05 L2045.45,2409.18 L2045.71,2409.36 L2045.91,2409.58 L2046.2,2409.94 L2047.16,2410.78 L2048.08,2411.7 L2049.59,2413.05 L2050.38,2413.82 L2050.91,2414.32 L2051.12,2414.57 L2051.25,2414.75 L2051.4,2414.91 L2051.62,2414.99 L2051.87,2415.07 L2052.03,2415.25 L2052.6,2415.91 L2053.37,2416.52 L2053.95,2416.87 L2054.49,2417.06 L2055.34,2417.32 L2056.01,2417.38 L2056.37,2417.25 L2056.67,2417.09 L2057.08,2416.86 L2057.53,2416.6 L2057.93,2416.34 L2059.46,2415.21 L2061.59,2413.64 L2062.07,2413.26 L2062.4,2413.08 L2062.7,2412.95 L2063.03,2412.92 L2063.46,2412.95 L2064.06,2413.02 L2069.33,2413.5 L2070.45,2413.62 L2070.96,2413.6 L2071.22,2413.6 L2071.49,2413.57 L2071.9,2413.54 L2072.21,2413.48 L2072.71,2413.33 L2074.55,2412.59 L2075.18,2412.35 L2075.63,2412.21 L2077.88,2411.32 L2081.43,2409.89 L2082.89,2409.2 L2083.76,2408.69 L2084.6,2408.16 L2086.13,2407.22 L2087.38,2406.45 L2088.53,2405.72 L2090.17,2404.69 L2091.1,2404.08 L2091.56,2403.81 L2092.76,2403.14 L2093.69,2402.53 L2094.02,2402.28 L2094.23,2402.06 L2094.4,2401.85 L2094.91,2401.17 L2096.15,2399.54 L2096.62,2398.99 L2096.97,2398.71 L2098.39,2397.61 L2100.69,2395.74 L2102.33,2394.45 L2103.51,2393.48 L2104.85,2392.44 L2106.11,2391.44 L2106.51,2391.14 L2106.77,2391.02 L2107.11,2391 L2108.48,2391.04 L2111.06,2391.05 L2114.03,2391.1 L2116.07,2391.11 L2116.73,2391.04 L2117.49,2390.92 L2118.32,2390.74 L2121.08,2390 L2124.74,2389.06 L2126.76,2388.54 L2127.95,2388.21 L2128.38,2387.98 L2128.63,2387.77 L2128.96,2387.34 L2129.4,2386.68 L2130.25,2385.34 L2131.49,2383.34 L2132.33,2382.04 L2133.34,2380.4 L2134.07,2379.25 L2134.5,2378.65 L2135.95,2376.91 L2136.93,2375.75 L2138.25,2374.2 L2139.06,2373.21 L2140.4,2371.62 L2140.96,2370.96 L2141.23,2370.59 L2141.37,2370.35 L2141.46,2370.09 L2141.56,2369.79 L2141.63,2369.3 L2141.97,2366.86 L2142.32,2364.54 L2142.66,2362.35 L2142.96,2360.56 L2143.08,2359.97 L2143.19,2359.76 L2143.18,2359.55 L2143.27,2359.15 L2143.57,2358.1 L2143.86,2356.9 L2144.19,2355.67 L2144.59,2354.18 L2145.07,2352.32 L2145.28,2351.47 L2145.36,2350.97 L2145.38,2350.78 L2145.36,2350.49 L2145.41,2350.35 L2145.5,2350.2 L2145.65,2350.06 L2145.83,2349.94 L2148.65,2348.64 L2150.2,2347.91 L2152.68,2346.84 L2155.28,2345.69 L2157.83,2344.56 L2159.58,2343.74 L2160.9,2343.08 L2161.79,2342.69 L2162.52,2342.49 L2163.34,2342.24 L2164.52,2341.72 L2165.49,2341.24 L2165.74,2341.05 L2165.92,2340.92 L2166.2,2340.8 L2166.42,2340.74 L2166.66,2340.73 L2166.89,2340.77 L2167.52,2341.05 L2168.99,2341.7 L2170.54,2342.41 L2171.65,2342.88 L2171.89,2342.98 L2172.11,2343.1 L2172.27,2343.22 L2172.36,2343.29 L2172.96,2343.92 L2173.94,2345.07 L2174.43,2345.6 L2174.72,2345.83 L2175.18,2346.07 L2175.83,2346.36 L2176.74,2346.72 L2177.52,2347.04 L2177.92,2347.23 L2178.16,2347.36 L2183.26,2345.55 L2237.53,2325.96 L2241.79,2324.42 L2247.57,2322.4 L2252.99,2320.45 L2253.37,2320.33 L2253.73,2320.29 L2254.2,2320.23 L2254.61,2320.16 L2255.02,2320.07 L2255.29,2319.97 L2255.7,2319.68 L2256.41,2319.75 L2258,2319.88 L2259.21,2319.89 L2260.35,2319.85 L2270.05,2319.35 L2271.29,2319.3 L2275.5,2319.11 L2278.53,2318.93 L2279.85,2318.86 L2281.7,2318.76 L2288.1,2318.41 L2290.03,2318.37 L2290.9,2318.44 L2292.1,2318.63 L2293.62,2319.02 L2294.94,2319.61 L2296.09,2320.26 L2297.14,2320.99 L2298.33,2322.04 L2299.21,2323.05 L2299.69,2323.76 L2300.11,2324.48 L2301.11,2326.02 L2302.05,2327.7 L2302.65,2328.68 L2303.29,2329.72 L2303.44,2329.92 L2304.07,2330.77 L2304.74,2331.52 L2305.62,2332.44 L2306.55,2333.12 L2308.1,2334.2 L2317.2,2340.66 L2328.41,2348.19 L2335.34,2353 L2337.55,2354.79 L2339.58,2357.24 L2345.05,2363.93 L2352.22,2373.55 L2360.13,2383.65 L2366.9,2392.46 L2371.82,2398.62 L2373.86,2401.8 L2378.42,2409.06 L2385.68,2420.47 L2392.53,2431.4 L2395.59,2435.75 L2397.3,2437.62 L2399.21,2439.3 L2401.38,2440.47 L2403.26,2441.04 L2405.41,2441.26 L2407.17,2441.13 L2409.32,2440.36 L2412.71,2439.01 L2416.95,2437.38 L2421.76,2435.58 L2426.16,2433.79 L2429.46,2432.7 L2432.44,2432.08 L2435.62,2431.75 L2439.21,2431.66 L2445.4,2431.98 L2453.88,2431.33 L2462.76,2430.85 L2468.88,2430.68 L2478.76,2430.15 L2485.84,2429.7 L2489.37,2429.48 L2491.89,2429.49 L2493.22,2429.57 L2498.01,2430.11 L2499.8,2430.36 L2501.38,2430.72 L2502.66,2431.28 L2503.57,2431.78 L2505.48,2432.63 L2507.28,2433.23 L2510.96,2433.39 L2512.27,2433.19 L2513.61,2432.8 L2514.7,2432.27 L2515.99,2431.54 L2520.56,2428.58 L2522.53,2426.85 L2525.1,2424.19 L2528.71,2420.27 L2529.1,2419.9 L2531.1,2418.23 L2532.4,2417.28 L2533.96,2416.41 L2535.22,2415.78 L2537.15,2415.16 L2541.93,2411.46 L2546.1,2410.34 L2549.43,2411.46 L2552.69,2415.05 L2555.95,2418.96 L2560.89,2421.95 L2566.79,2424.9 L2572.35,2428.52 L2578.13,2431.03 L2583.02,2433.31 L2590.84,2438.53 L2598.67,2443.42 L2605.52,2447.66 L2610.59,2450.35 L2616.46,2451.98 L2622.98,2453.61 L2628.35,2452.88 L2632.91,2451.25 L2635.57,2450.62 L2638.05,2450.61 L2639.79,2451.09 L2641.69,2451.99 L2643.42,2453.14 L2644.69,2454.85 L2646.8,2458.29 L2649.95,2463.91 L2650.46,2464.71 L2651.39,2465.89 L2654.09,2468.35 L2656.48,2470.79 L2657.81,2471.9 L2659.34,2472.86 L2661.29,2473.51 L2663.04,2473.82 L2664.1,2473.88 L2665.12,2473.74 L2667.66,2473.21 L2669.98,2472.57 L2671.9,2472.24 L2677.18,2472.38 L2685.03,2472.6 L2686.48,2472.74 L2688.1,2473.13 L2689.13,2473.5 L2690.53,2474.25 L2691.65,2475.2 L2692.61,2476.13 L2693.28,2476.93 L2693.89,2477.99 L2694.96,2480.78 L2696.99,2485.79 L2698.29,2489.72 L2699.5,2492.11 L2700.58,2493.62 L2701.98,2495.09 L2703.17,2495.91 L2704.9,2496.75 L2707.63,2497.39 L2708.84,2497.41 L2710.06,2497.25 L2714.02,2496.69 L2718.56,2495.94 L2721.02,2495.81 L2723.46,2496.14 L2725.32,2496.7 L2727.13,2497.55 L2733.55,2502.25 L2736.75,2504.4 L2738.17,2505.12 L2739.63,2505.65 L2741.48,2506 L2743.46,2506.02 L2745.77,2505.42 L2747.93,2504.39 L2751.2,2501.69 L2752.91,2500.32 L2754.86,2499.35 L2756.33,2498.91 L2757.72,2498.78 L2760.08,2498.86 L2762.6,2499.24 L2767.21,2499.87 L2769.08,2499.9 L2770.83,2499.67 L2774.16,2498.73 L2778.86,2497.27 L2783.7,2495.75 L2788.02,2494.5 L2790.84,2494.72 L2792.49,2495.12 L2793.94,2495.74 L2795.68,2496.91 L2797.62,2498.82 L2798.5,2499.78 L2799.38,2501.11 L2799.6,2501.54 L2799.77,2501.97 L2800.11,2503.03 L2800.53,2505.29 L2809.16,2503.22 L2806.41,2495.91 L2804.45,2491.01 L2801.52,2487.43 L2800.54,2481.56 L2798.58,2476.67 L2796.95,2471.77 L2795.97,2467.21 L2795.16,2463.48 L2792.06,2457.26 L2790.1,2452.86 L2789.78,2448.95 L2787.82,2443.08 L2787.82,2438.19 L2786.84,2433.29 L2784.5,2427.91 L2783.16,2427.25 L2782.7,2426.13 L2782.69,2424.63 L2783.02,2424.09 L2782.72,2422.54 L2781.65,2422.39 L2780.65,2421.56 L2780.05,2421.25 L2779.45,2421.11 L2778.87,2421.31 L2778.59,2421.78 L2777.6,2423.72 L2777,2424.22 L2776.12,2424.39 L2775.49,2423.95 L2775.05,2422.9 L2774.77,2421.07 L2774.95,2417.56 L2775.17,2415.68 L2774.94,2414.7 L2773.12,2414.4 L2772.7,2414.07 L2771.51,2413.84 L2770,2413.04 L2769.15,2411.33 L2767.58,2409.92 L2767.84,2408.15 L2766.11,2404.82 L2763.98,2403.78 L2763.64,2401.81 L2762.21,2400.1 L2761.62,2397.57 L2762.02,2395.74 L2762.12,2394.01 L2760.72,2392.93 L2758.84,2390.61 L2759.46,2389.51 L2759.27,2388.45 L2758.84,2388.1 L2757.22,2386.07 L2756.06,2385.38 L2755.66,2384.54 L2754.98,2381.72 L2753.61,2379.7 L2752.55,2378.21 L2752.12,2375.33 L2752.2,2374.35 L2752.82,2373.35 L2754.25,2371.68 L2754.85,2370.77 L2755.27,2369.53 L2756.08,2367.52 L2755.78,2366.1 L2756.11,2363.48 L2756.4,2360.89 L2755.64,2358.79 L2755.41,2356.33 L2756.67,2351.28 L2756.63,2349.79 L2756.88,2348.9 L2757.6,2347.85 L2758.78,2347.12 L2760.57,2345.75 L2762.29,2344.45 L2764,2342.9 L2765.03,2341.07 L2765.55,2338.72 L2765.97,2337.39 L2766.01,2336.49 L2765.56,2335.5 L2762.1,2332.47 L2760.14,2329.22 L2758.89,2328.24 L2757.09,2325.88 L2755.6,2323.43 L2754.33,2321.1 L2754.15,2320.59 L2754.16,2319.99 L2754.27,2319.36 L2754.58,2318.86 L2755.53,2318.16 L2757.17,2317.2 L2757.33,2314.68 L2758.72,2311.19 L2759.78,2308.4 L2759.73,2307.49 L2759.52,2306.69 L2758.39,2305.61 L2757.76,2304.71 L2757.51,2303.17 L2755.71,2300.18 L2755.75,2297.85 L2755.51,2294.59 L2755.8,2289.6 L2755.75,2286.84 L2755.26,2283.99 L2754.62,2282.64 L2753.5,2281.41 L2751.95,2280.68 L2749.58,2279.76 L2748.04,2278.4 L2747.35,2276.86 L2746.62,2273.66 L2746.71,2270.55 L2747.16,2266.09 L2748.4,2259.81 L2748.2,2257.02 L2747.57,2252.21 L2748.81,2247.82 L2749.14,2244.96 L2748.75,2242.74 L2747.65,2240.5 L2746.18,2237.87 L2742.35,2232.93 L2739.56,2230.13 L2734.77,2226.5 L2732.24,2225.31 L2730.83,2223.42 L2730.87,2221.21 L2731.84,2220.25 L2733.04,2217.23 L2734.21,2212.57 L2733.14,2206.59 L2732.28,2204.48 L2730.63,2203.6 L2727.82,2200.46 L2722.93,2194.26 L2718.69,2188.72 L2717.06,2185.79 L2715.1,2182.85 L2713.53,2179.73 L2711.34,2176.84 L2709.52,2174.44 L2708.66,2171.93 L2707.6,2168.5 L2704.04,2161.66 L2702.72,2159 L2701.09,2156.52 L2699.77,2153.79 L2698.04,2151.99 L2695.51,2151.87 L2694.33,2150.8 L2691.36,2147.71 L2686.75,2144.47 L2684.32,2141.92 L2682.72,2139.52 L2681.54,2137.8 L2680.65,2136.32 L2678.4,2134.61 L2676.15,2133.2 L2670.42,2128.72 L2667.35,2126.48 L2664.64,2124.16 L2660.37,2121.59 L2657.94,2120.6 L2655.75,2120.24 L2654.73,2120.59 L2653.4,2120.88 L2651.58,2120.54 L2650.25,2119.15 L2648.07,2118.75 L2644.54,2119.13 L2642.29,2117.83 L2641.03,2116.65 L2640.33,2115.32 L2639.44,2112.41 L2639.46,2110.35 L2639.74,2108.36 L2640.12,2105.59 L2640.42,2102.63 L2640.63,2100.44 L2640.29,2099.31 L2639.2,2098.8 L2638.62,2098.03 L2638.41,2096.09 L2638.79,2093.6 L2639.18,2090.08 L2638.47,2088.97 L2636.7,2087.43 L2634.76,2086.6 L2632.85,2086.34 L2631.03,2085.25 L2629.39,2084.72 L2628.76,2084.2 L2628.52,2082.28 L2628.68,2080.45 L2627.37,2078.81 L2625.75,2077.52 L2623.61,2076.09 L2622.55,2074.77 L2621.82,2073.95 L2621.65,2073.03 L2621.22,2072.29 L2620.86,2070.02 L2621.02,2068.6 L2620.52,2067.88 L2620.34,2066.22 L2619.5,2062.2 L2620.1,2060.81 L2619.97,2058.61 L2620.37,2057.56 L2620.42,2055.65 L2620.02,2054.5 L2616.75,2051.28 L2613.85,2049.23 L2611.6,2046.1 L2610.4,2045.7 L2609.07,2045.26 L2607.49,2043.93 L2605.57,2040.14 L2604.88,2037.87 L2604.55,2035.78 L2603.49,2034.26 L2603.68,2030.96 L2604,2028.88 L2602.93,2027.3 L2602.23,2024.76 L2603.46,2023.48 L2603.39,2021.39 L2602.54,2018.34 L2601.34,2016.2 L2601.29,2013.48 L2600.87,2012.1 L2599.87,2010.5 L2599.46,2009.36 L2600.43,2004.98 L2600.68,2003.13 L2600.32,2000.75 L2600.61,1998.91 L2598.36,1992.08 L2596.8,1989.16 L2596.05,1985.6 L2595.95,1982.64 L2594.67,1979.91 L2594.5,1976.47 L2594.95,1972.68 L2595.2,1968.01 L2595.04,1964.02 L2595.4,1961.77 L2594.96,1958.52 L2594.87,1954.25 L2596.14,1951.16 L2597.74,1948.36 L2601.33,1944.24 L2603.16,1941.07 L2604.1,1936.04 L2604.23,1931.1 L2606.18,1925.23 L2609.12,1919.68 L2611.73,1915.12 L2612.05,1908.6 L2613.03,1901.1 L2615.64,1896.53 L2615.64,1891.64 L2617.79,1887.45 L2621.51,1883.81 L2625.29,1881.25 L2629.99,1879.25 L2635.4,1877.99 L2639.44,1874.36 L2643.55,1868.86 L2645.97,1861.96 L2647.6,1855.77 L2647.6,1850.55 L2647.78,1845.13 L2649.51,1841.3 L2649.84,1837.67 L2648.48,1834.69 L2648.9,1830.01 L2651.18,1826.75 L2654.45,1824.79 L2658.55,1824.51 L2661.41,1823.56 L2662.26,1822.37 L2665.23,1818.67 L2666.73,1816.26 L2667.16,1813.05 L2667.33,1808.5 L2667.31,1804.06 L2667.32,1798.51 L2668.14,1794.8 L2668.47,1788.61 L2667.16,1781.11 L2667.03,1780.76 L2665.04,1775.48 L2662.92,1771.98 L2659.66,1770.02 L2655.75,1769.04 L2652.49,1765.45 L2652.81,1760.24 L2655.29,1755.05 L2659.34,1749.8 L2662.84,1744.16 L2665.95,1738.5 L2667.15,1736.14 L2668.41,1731.28 L2670.69,1727 L2673.92,1723.32 L2674.92,1719.57 L2674.57,1718.48 L2674.66,1717.77 L2676.27,1716.8 L2676.18,1715.22 L2672.8,1712.51 L2668.72,1709.18 L2663.58,1702.84 L2662.5,1700.91 L2662.17,1699.38 L2660.75,1696.42 L2660.44,1695 L2660.68,1692.58 L2660.13,1691.07 L2659.15,1690.37 L2658.85,1688.11 L2658.21,1686.2 L2657.48,1684.51 L2656.25,1682.31 L2655.42,1681.96 L2655.09,1679.1 L2654.7,1677.45 L2654.23,1676.37 L2653.8,1675.03 L2653.34,1673.71 L2652.78,1673.26 L2652.26,1673.02 L2651.31,1672.82 L2650.24,1672.82 L2649.34,1673.2 L2646.94,1673.49 L2641.73,1676.43 L2640.69,1677.38 L2638.57,1678.47 L2637.49,1678.71 L2633.25,1678.71 L2628.36,1679.36 L2623.91,1679.38 L2622.8,1679.96 L2621.58,1680.4 L2620.49,1680.3 L2619.09,1680 L2616.52,1680.61 L2611.79,1681.22 L2608.96,1681.06 L2607.79,1680.8 L2607.75,1680.05 L2607.13,1679.66 L2606.91,1678.7 L2605.89,1678.14 L2605.25,1677.16 L2602.31,1676.51 L2598.41,1674.71 L2597.18,1673.89 L2594.61,1673.11 L2593.3,1672.09 L2592.03,1670.94 L2590.8,1669.11 L2590.34,1667.54 L2589.87,1665.53 L2589.3,1663.2 L2589.44,1661.32 L2588.84,1659.71 L2588.8,1656.56 L2588.46,1654.83 L2588.13,1653.63 L2588.12,1650.9 L2588.09,1647.16 L2587.49,1645 L2586.37,1641.59 L2584.66,1638.27 L2583.25,1635.31 L2583.21,1634.7 L2583.46,1634.04 L2583.79,1633.18 L2583.91,1632.94 L2584.19,1632.37 L2584.14,1630.69 L2583.77,1627.29 L2583.02,1626.25 L2582.57,1624.67 L2582.36,1623.56 L2581.73,1623.13 L2581.27,1620.66 L2581.07,1619.32 L2579.67,1617.65 L2578.16,1616.14 L2575.85,1613.82 L2570.79,1611.03 L2568.68,1610.11 L2568.19,1610.24 L2567.54,1610.11 L2567.23,1610.21 L2566.23,1609.88 L2565.36,1610.21 L2564.38,1610.02 L2561.98,1609.63 L2560.78,1609.7 L2559.61,1609.47 L2558.9,1609.24 L2558.02,1608.93 L2557.15,1608.99 L2555.98,1608.78 L2554.71,1608.1 L2553.51,1606.84 L2553,1605.43 L2552.32,1604.56 L2552.23,1603.4 L2552.58,1602.49 L2552.53,1601.98 L2552.13,1601.11 L2551.42,1598.64 L2550.62,1597.35 L2550.32,1595.72 L2549.96,1593.05 L2549.82,1590.7 L2549.46,1588.78 L2548.91,1587.7 L2548.63,1586.17 L2548.17,1585.01 L2548.35,1581.81 L2548.18,1580.84 L2547.65,1579.7 L2547,1578.79 L2546.12,1577.9 L2544.6,1576.76 L2543.77,1576.58 L2543.19,1576.57 L2539.12,1575.34 L2536.98,1575.14 L2534.07,1574.38 L2531.5,1573.89 L2529.45,1573.88 L2528.67,1574.03 L2528.02,1574.66 L2526.99,1574.87 L2525.6,1574.98 L2524.16,1575.16 L2523.37,1574.56 L2523.32,1573.83 L2521.89,1573.05 L2521.72,1572.1 L2520.88,1571.27 L2520.07,1571.6 L2518.04,1570.52 L2517.77,1569.49 L2516.59,1567.36 L2514.78,1565.42 L2513.79,1564.15 L2513.35,1562.9 L2511.58,1561.39 L2511.42,1559.49 L2511.67,1557.89 L2511.21,1554.35 L2510.81,1553.67 L2510.31,1550.23 L2510.09,1548.26 L2509.38,1546.78 L2508.54,1545.93 L2508.03,1544.36 L2508.95,1541.21 L2509.78,1538.63 L2510.36,1535.89 L2510.31,1533.62 L2510.05,1532.93 L2509.54,1532.37 L2508.52,1531.66 L2507.96,1530.62 L2507.11,1530.36 L2506.14,1529.85 L2505.36,1529.08 L2503.46,1527.73 L2501.74,1526.12 L2500.3,1524.05 L2499.55,1522.95 L2499.35,1521.13 L2499.1,1519.34 L2499.24,1518 L2500.18,1515.87 L2501.37,1514.06 L2503,1509.82 L2504.34,1506.3 L2504.85,1504.37 L2504.76,1501.16 L2503.89,1500.56 L2503.33,1497.59 L2502.63,1494.99 L2501.48,1493.97 L2500.52,1492.78 L2499.72,1491.8 L2498.88,1489.7 L2496.72,1486.01 L2494.63,1483.41 L2493.91,1482.08 L2493.13,1481.14 L2492.41,1480.67 L2491.41,1477.06 L2492.05,1471.96 L2491.67,1469.5 L2490.83,1467.74 L2490.86,1465.1 L2490.29,1463.64 L2489.68,1461.37 L2490.21,1458.86 L2490.44,1457.5 L2490.8,1455.96 L2491.11,1454.6 L2491.12,1453.44 L2491.49,1451.83 L2491.62,1451.35 L2491.88,1449.88 L2492.2,1448.92 L2492.63,1447.82 L2493.32,1445.1 L2493.63,1443.98 L2494.07,1443.03 L2494.79,1441.98 L2495.18,1440.62 L2495.37,1439.12 L2495.78,1437.64 L2495.63,1436.71 L2495.75,1435.75 L2495.74,1434.94 L2495.51,1434.26 L2495.14,1433.76 L2494.37,1433.14 L2493.06,1431.84 L2491.98,1430.4 L2490.38,1429.7 L2488.53,1427.67 L2487.43,1427.34 L2485.71,1425.13 L2483.74,1423.94 L2481.88,1423.21 L2481.15,1422.75 L2480.68,1422.13 L2479.79,1421.83 L2479.14,1421.78 L2478.61,1421.56 L2477.09,1421.81 L2476.4,1422.5 L2475,1423.3 L2474.15,1424.23 L2471.89,1425.78 L2470.59,1426.68 L2469.1,1427.47 L2466.89,1427.87 L2465.51,1428.12 L2462.19,1427.51 L2460.69,1427.6 L2459.5,1427.28 L2457.29,1426.14 L2455.75,1425.95 L2453.9,1425.4 L2450.26,1423.99 L2447.05,1423.24 L2444.36,1422.45 L2443.07,1421.62 L2442.18,1421 L2441.7,1418.6 L2441.5,1417.55 L2441.03,1415.67 L2439.65,1413.89 L2439.43,1412.66 L2438.68,1411.36 L2438.92,1409.94 L2438.87,1408.84 L2438.63,1407.71 L2438.04,1406.52 L2437.17,1406.45 L2435.97,1404.69 L2436,1404.05 L2435.86,1403.53 L2434.47,1401.81 L2433.27,1400.79 L2431.78,1400.34 L2430.09,1400.51 L2428.89,1399.7 L2426.87,1398.32 L2425.53,1397.32 L2424.33,1395.85 L2423.96,1394.1 L2424.31,1392.55 L2424.76,1391.1 L2424.09,1387.16 L2423.88,1385.71 L2423.97,1383.95 L2425.34,1381.48 L2425.9,1380.03 L2426.18,1378.53 L2426.7,1376.5 L2427.12,1375.04 L2427.47,1373.81 L2427.25,1373.15 L2426.56,1372.39 L2426.13,1371.89 L2426.07,1371.36 L2426.15,1370.75 L2426.41,1369.86 L2426.79,1368.62 L2426.95,1367.49 L2427.08,1366.5 L2427.43,1365.48 L2427.71,1364.37 L2428.33,1363.18 L2428.84,1362.01 L2429.16,1361.11 L2429.6,1360.27 L2430.34,1359.3 L2432.08,1357.4 L2433.24,1355.78 L2434.67,1353.08 L2436.31,1349.67 L2436.96,1346.74 L2436.98,1345.47 L2436.84,1344.29 L2435.97,1341.69 L2435.18,1340.45 L2433.44,1338.66 L2431.71,1337.36 L2429.43,1336.44 L2425.85,1334.02 L2422.97,1333.13 L2422.21,1332.52 L2422.16,1331.78 L2422.26,1331.01 L2422.48,1329.96 L2422.85,1328.58 L2423.01,1326.96 L2423.34,1325.69 L2424.07,1324.46 L2424.82,1321.91 L2425.91,1319.45 L2428.2,1317.04 L2429.84,1314.08 L2430.17,1312.87 L2430.28,1311.97 L2430.09,1311.08 L2429.69,1309.96 L2429.03,1309.19 L2428.49,1308.83 L2427.5,1308.65 L2426.75,1308.95 L2425.63,1308.73 L2424.97,1307.95 L2424.62,1307.29 L2424.45,1306.16 L2424.68,1305.14 L2425.06,1302.93 L2424.71,1300.13 L2423.68,1296.75 L2421.28,1291.95 L2418.67,1289.67 L2414.43,1287.71 L2408.89,1284.78 L2403.35,1281.52 L2399.76,1278.58 L2394.87,1274.34 L2392.59,1269.78 L2390.63,1265.21 L2384.11,1260.65 L2377.78,1257.75 L2371.06,1253.15 L2365.84,1250.54 L2361.61,1246.95 L2355.41,1242.71 L2349.21,1237.82 L2343.67,1232.93 L2337.47,1227.39 L2333.23,1224.13 L2326.06,1220.21 L2320.19,1216.3 L2314.32,1210.75 L2308.45,1206.19 L2306.87,1202.57 L2304.6,1199.58 L2302.04,1196.38 L2300.45,1194.88 L2298.66,1193.62 L2295.69,1189.52 L2295.83,1188.11 L2295.6,1186.64 L2293.93,1185.79 L2293.35,1183.23 L2294.31,1181.57 L2296.06,1178.47 L2300.95,1173.25 L2305.19,1168.36 L2309.62,1164.48 L2311.69,1162.19 L2315.34,1156.34 L2319.15,1152.67 L2323.32,1148.83 L2326.39,1145.53 L2329.26,1143.11 L2332.48,1138.81 L2334.7,1135.5 L2335.39,1134.48 L2336.83,1131.67 L2337.77,1129.16 L2337.71,1126.16 L2337.19,1123.99 L2336.05,1122.07 L2334.42,1120.85 L2331.57,1117.73 L2330.75,1116.02 L2330.55,1114 L2330.95,1110.97 L2331.2,1108.33 L2330.5,1104.26 L2331.18,1099.86 L2331.87,1096.7 L2333.16,1095.33 L2338.04,1092.52 L2340.52,1092.41 L2342.37,1091.23 L2344.38,1088.03 L2345.72,1086.91 L2347.13,1086.22 L2353,1085.89 L2358.54,1086.22 L2363.99,1087.2 L2365.85,1087.5 L2367.88,1086.8 L2372.88,1083.8 L2376.93,1080.64 L2379.69,1078.78 L2382.94,1077.91 L2386.2,1078.25 L2389.65,1076.73 L2391.88,1075.9 L2393.89,1072.16 L2395.85,1067.27 L2397.15,1061.07 L2397.99,1053.94 L2400.74,1047.26 L2403.15,1044.6 L2402.04,1041.83 L2402.58,1039.85 L2403.92,1038.29 L2404.62,1036.24 L2403.95,1033.88 L2402.04,1031.72 L2400.09,1026.18 L2398.5,1025.17 L2395.91,1020.11 L2396.34,1017.76 L2396.17,1016.4 L2395.98,1014.74 L2396.57,1014.05 L2397.53,1013.86 L2399.56,1013.25 L2399.89,1012.25 L2398.87,1010.4 L2396.34,1008.04 L2396.42,1006.99 L2397.02,1006.12 L2397.5,1003.9 L2398.3,1003.3 L2398.52,1002.06 L2398.87,996.396 L2399.7,994.468 L2403.55,989.658 L2408.95,982.524 L2411.49,980.804 L2413.11,980.629 L2418.87,971.428 L2420.74,968.718 L2422.46,965.282 L2425.91,960.553 L2427.74,956.823 L2430.28,953.167 L2434,948.691 L2437.93,946.38 L2441.16,943.985 L2444.39,942.192 L2447.68,939.03 L2448.06,937.942 L2447.94,936.627 L2447.04,933.894 L2446.7,930.531 L2445.69,928.057 L2445.4,926.651 L2446.19,922.695 L2449.59,918.376 L2453.68,915.072 L2455.32,915.054 L2457.26,913.841 L2460.07,913.362 L2463.25,908.623 L2464.76,904.287 L2465.48,901.922 L2466.6,899.605 L2467.82,897.971 L2470.04,896.245 L2471.24,895.711 L2472.98,895.374 L2477.19,895.445 L2479.44,895.246 L2481,894.647 L2482.48,893.907 L2485.62,893.582 L2488.93,892.828 L2490.61,893.164 L2491.35,894.03 L2492.02,894.071 L2493.35,893.567 L2494.74,892.841 L2495.8,891.396 L2498.11,887.399 L2499.34,885.771 L2500.48,883.855 L2502.01,882.933 L2503.27,881.203 L2504.35,879.631 L2505.13,878.953 L2505.94,877.636 L2507.17,875.534 L2508.1,874.393 L2509.21,873.586 L2511.07,872.681 L2513.62,871.662 L2515.88,870.928 L2518.64,870.413 L2520.41,870.041 L2521.94,869.255 L2522.72,868.727 L2522.95,868.324 L2522.92,867.861 L2522.91,867.03 L2523.5,865.721 L2523.69,863.171 L2523.67,861.695 L2523.98,860.676 L2524.12,858.096 L2523.92,855.754 L2523.35,853.673 L2521.49,849.505 L2520.86,847.54 L2520.66,844.501 L2520.72,841.243 L2521.18,837.989 L2521.87,835.556 L2523.15,834.015 L2525.75,831.969 L2529.61,829.817 L2532.52,826.914 L2533.74,826.415 L2534.95,826.456 L2536.44,826.974 L2540.31,825.302 L2542.75,824.652 L2544.81,824.428 L2546.81,824.112 L2548.54,824.334 L2551.02,825.284 L2552.73,826.362 L2555.67,828.431 L2556.92,829.747 L2557.48,830.828 L2557.8,832.161 L2556.73,833.559 L2556.65,834.089 L2556.7,834.608 L2557.03,835.036 L2559.19,836.81 L2560.4,837.786 L2563.14,839.977 L2564.75,840.968 L2566.12,841.434 L2566.76,841.515 L2568.5,841.253 L2571.08,840.058 L2575.02,836.96 L2576.4,834.904 L2577.03,833.385 L2576.67,831.692 L2575.29,830.919 L2574.88,830.186 L2573.77,828.757 L2568.55,825.661 L2566.35,824.438 L2564.64,822.359 L2562.68,819.689 L2561.28,817.065 L2560.3,814.003 L2560.16,811.603 L2561.23,808.841 L2563.49,806.1 L2567.25,802.182 L2570.18,798.921 L2572.76,796.504 L2574.42,795.007 L2578.01,791.094 L2579.64,785.876 L2581.59,777.398 L2583.88,769.571 L2587.46,764.354 L2593.33,760.767 L2600.51,758.158 L2607.03,754.571 L2613.23,752.614 L2619.1,752.614 L2624.31,754.571 L2632.47,757.506 L2638.66,758.158 L2642.69,755.788 L2644.21,754.897 L2646.81,749.027 L2647.47,742.831 L2647.17,738.864 L2646.81,734.026 L2644.53,722.939 L2641.27,713.808 L2639.31,705.329 L2643.88,700.112 L2651.71,698.155 L2655.32,695.49 L2657.9,693.59 L2663.45,689.676 L2667.03,681.524 L2667.03,672.393 L2665.4,662.61 L2664.42,653.805 L2664.75,647.283 L2668.34,640.761 L2671.92,635.543 L2675.84,624.782 L2679.1,614.999 L2685.29,608.477 L2695.4,604.89 L2708.56,601.609 L2677.58,590.196 L2660.95,587.913 L2640.4,601.609 L2629.32,618.567 L2603.23,625.415 L2597,628.288 L2586.92,632.915 L2574.2,643.024 L2559.86,649.872 L2548.77,646.285 L2538.66,629.98 L2532.79,613.349 L2520.72,596.718 L2497.24,600.957 L2484.53,620.523 L2482.91,621.199 L2464.31,629.002 L2456.48,617.588 L2450.94,593.783 L2419.31,558.564 L2397.46,537.367 L2385.18,531.888 L2378.9,529.082 L2364.37,522.595 L2360.93,521.062 L2323.11,495.626 L2291.47,485.843 L2275.12,483.069 L2256.09,479.841 L2254.95,479.647 L2221.36,479.647 L2212.23,491.387 L2206.52,516.615 L2198.11,535.659 L2182.83,536.804 L2179.6,537.045 L2159.14,538.154 L2145.59,525.925 L2138.79,492.402 L2127.57,466.416 L2123.39,459.648 L2121.97,456.545 L2121.32,455.267 L2120.9,454.231 L2120.36,452.586 L2119.35,446.31 L2118.2,438.818 L2117.78,436.11 L2116.91,425.887 L2116.03,411.818 L2105.92,384.425 L2104.7,382.82 L2103.31,381.817 L2101.73,381.286 L2097.14,380.379 L2091.25,378.556 L2076.57,372.034 L2069.44,369.148 L2063.2,367.794 L2056.63,367.6 L2053.36,367.906 L2050.17,368.416 L2031.24,374.968 L2028.19,375.503 L2024.81,375.757 L2020.62,375.457 L2016.92,374.449 L2013.87,373.174 L2010.53,371.444 L2001.24,360.62 L1993.42,350.185 L1982,336.489 L1979.61,333.889 L1977.11,331.597 L1975.21,330.465 L1972.84,329.867 L1971.93,329.827 L1969.41,330.129 L1966.57,331.026 L1961.53,333.125 L1957.59,335.917 L1954.28,339.749 L1947.31,351.497 L1941.24,361.598 L1936.56,366.306 L1931.13,370.077 L1921.42,373.133 L1911.12,375.763 L1901.95,378.759 L1894.03,381.992 L1892.3,382.373 L1890.16,382.646 L1888.28,383.274 L1881.6,388.606 L1877.98,388.991 L1859.71,393.23 L1835.68,409.741 L1832.5,410.732 L1801.67,420.297 L1796.51,424.5 L1795.67,428.788 L1795.83,433.92 L1800.04,449.972 L1801.99,484.865 L1801.52,491.266 L1799.73,497.97 L1794.13,506.242 L1785.99,513.09 L1782.28,514.804 L1779.07,516.07 L1774.83,516.991 L1771.56,516.475 L1767.35,514.398 L1750.11,511.943 L1735.29,510.179 L1729.93,505.083 L1723.4,493.996 L1709.38,478.343 L1693.85,471.902 L1638.29,467.255 L1618.78,461.686 L1600.14,455.516 L1597.4,453.502 L1595.36,450.288 L1592.31,443.776 L1587.41,433.559 L1580.9,425.188 L1576.69,422.137 L1571.99,419.838 L1567.25,418.584 L1562,417.573 L1557.24,417.146 L1553.07,416.896 L1544.13,417.53 L1531.32,421.455 L1529.5,422.407 L1527.85,423.598 L1517.58,434.076 L1508.5,444.102 L1506.62,446.464 L1499.37,454.211 L1496.94,456.083 L1493.95,457.063 L1487.62,457.576 L1476.87,457.146 L1464.63,452.075 L1462.19,450.41 L1460.23,448.809 L1455.41,443.676 L1450.13,435.624 L1444.82,428.14 L1438.72,421.601 L1422.41,407.579 L1407.74,397.469 L1396.53,393.38 L1389.52,391.622 L1364.37,385.73 L1355.31,378.293 L1349.37,374.968 L1341.2,372.247 L1333.48,371.49 L1328.55,372.267 L1323.03,374.187 L1319.04,376.599 L1316.94,380.199 L1316.38,381.156 L1315.45,385.73 L1320.67,410.514 L1319.9,413.98 L1318.06,417.688 L1314.59,420.964 L1313.11,422.366 L1302.41,427.797 L1299.76,429.68 L1267.51,452.581 L1250.23,456.494 L1232.95,457.472 L1229.51,456.938 L1218.27,455.19 L1208.82,456.494 L1198.71,464.973 L1188.25,471.583 L1174.67,480.672 L1171.49,483.785 L1165.72,491.817 L1160.77,500.681 L1158.67,507.982 L1159.19,511.623 L1159.9,515.192 L1165.55,524.355 L1168.92,525.675 L1175.78,526.997 L1183.38,531.171 L1185.91,538.859 L1185.25,545.383 L1185.01,547.802 L1187.62,583.348 L1183.38,611.392 L1174.9,626.067 L1162.83,636.828 L1152.61,641.393 L1142.94,643.676 L1137.6,642.782 L1131.84,640.257 L1123.42,636.971 L1119.76,633.872 L1115.22,626.393 L1103.16,619.871 L1087.75,617.466 L1079.67,617.384 L1072.32,618.139 L1063.16,618.179 L1050.66,614.653 L1032.39,603.566 L1012.69,592.968 L1001.92,591.561 L995.986,592.101 L993.761,593.202 L990.927,595.46 L989.349,596.718 L988.19,598.819 L985.504,605.064 L982.111,615.958 L978.261,624.762 L976.589,628.464 L975.232,633.93 L975.326,639.437 L979.551,656.024 L981.522,659.329 L998.806,683.461 L1000.77,688.82 L1001.99,696.117 L1002.72,711.18 L1011.85,727.811 L1019.68,738.898 L1019.68,764.008 L1020.63,778.051 L1028.19,794.685 L1030.23,807.014 L1031.14,813.837 L1032.78,818.633 L1049.37,832.93 L1054.22,841.813 L1057.39,848.837 L1058.95,855.477 L1059.53,862.31 L1059.3,866.689 L1058.77,868.101 L1056.81,871.605 L1054.72,874.677 L1052.57,876.312 L1049.95,877.207 L1044.79,877.902 L1042.86,877.761 L1040.01,877.328 L1028.65,875.876 L1018.7,876.513 L998.41,878.154 L986.748,877.06 L979.213,875.496 L966.195,869.339 L947.934,855.643 L915.323,851.403 L889.821,845.629 L880.757,843.577 L870.452,844.483 L851.081,846.186 L827.487,859.412 L818.723,886.561 L823.655,912.037 L827.08,920.83 L831.866,928.57 L834.885,932.806 L840.05,939.368 L847.494,947.93 L850.285,951.702 L865.104,971.735 L867.712,983.475 L864.451,995.867 L844.233,1011.85 L836.439,1019.4 L833.798,1021.95 L832.643,1022.63 L811.949,1034.67 L792.057,1037.61 L770.648,1030.61 L749.849,1020.92 L735.967,1014.45 L715.423,1011.19 L694.226,998.801 L671.725,994.236 L649.876,1005.32 L633.897,1027.5 L616.893,1039.68 L614.331,1041.52 L606.831,1046.09 L594.948,1048.56 L585.878,1050.46 L580.743,1056.52 L558.242,1093.37 L558.098,1097.06 L557.263,1118.48 L556.937,1135.11 L528.566,1164.46 L493.674,1189.9 L476.611,1192.28 L447.041,1196.42 L429.758,1195.44 L398.498,1207.9 L374.938,1209.02 L372.364,1209.14 L349.863,1214.35 L329.596,1241.36 L321.818,1252.51 L309.426,1273.71 L291.49,1298.49 L281.765,1307.06 L261.429,1313.83 L240.783,1330.68 L238.812,1337.29 L238.241,1339.56 L237.801,1342.07 L237.487,1345.53 L237.304,1350.44 L237.487,1353.89 L237.686,1355.77 L239.973,1368.91 L242.583,1382.96 L245.619,1399.85 L248.823,1417.24 L251.468,1431.27 L254.184,1446.51 L255.405,1454.13 L255.422,1457.16 L255.3,1460.99 L251.346,1480.31 L246.455,1505.22 L240.271,1535.27 L236.833,1551.13 L235.287,1555.99 L232.571,1560.62 L228.315,1564.97 L222.941,1569.35 L196.024,1591.74 L178.479,1605.77 L169.822,1613.16 L164.948,1618.46 L161.731,1622.99 L152.027,1636.22 L144.449,1646.46 L141.132,1651.02 L139.289,1660.34" vector-effect="none"/>
  </g>
  <g font-weight="400" transform="matrix(0.999744,0,0,0.999744,0,0)" font-size="34.5833" font-style="normal" stroke-width="1" stroke-opacity="1" stroke="#000000" stroke-linejoin="bevel" font-family="MS Shell Dlg 2" stroke-linecap="square" fill="none"/>
  <g font-weight="400" transform="matrix(11.808,0,0,11.808,0,0)" font-size="34.5833" font-style="normal" stroke-width="1" stroke-opacity="1" stroke="#000000" stroke-linejoin="bevel" font-family="MS Shell Dlg 2" stroke-linecap="square" fill="none"/>
  <g font-weight="400" transform="matrix(11.808,0,0,11.808,0,0)" font-size="34.5833" font-style="normal" stroke-width="1" stroke-opacity="1" stroke="#000000" stroke-linejoin="bevel" font-family="MS Shell Dlg 2" stroke-linecap="square" fill="none"/>
  <g font-weight="400" transform="matrix(11.808,0,0,11.808,0,0)" font-size="34.5833" font-style="normal" stroke-width="1" stroke-opacity="1" stroke="#000000" stroke-linejoin="bevel" font-family="MS Shell Dlg 2" stroke-linecap="square" fill="none"/>
  <g font-weight="400" transform="matrix(1,0,0,1,0,0)" font-size="34.5833" font-style="normal" stroke-width="1" stroke-opacity="1" stroke="#000000" stroke-linejoin="bevel" font-family="MS Shell Dlg 2" stroke-linecap="square" fill="none"/>
  <g font-weight="400" transform="matrix(11.808,0,0,11.808,0,0)" font-size="34.5833" font-style="normal" stroke-width="1" stroke-opacity="1" stroke="#000000" stroke-linejoin="bevel" font-family="MS Shell Dlg 2" stroke-linecap="square" fill="none"/>
  <g font-weight="400" transform="matrix(11.808,0,0,11.808,0,0)" font-size="34.5833" font-style="normal" stroke-width="1" stroke-opacity="1" stroke="#000000" stroke-linejoin="bevel" font-family="MS Shell Dlg 2" stroke-linecap="square" fill="none"/>
  <g font-weight="400" transform="matrix(11.808,0,0,11.808,0,0)" font-size="34.5833" font-style="normal" stroke-width="1" stroke-opacity="1" stroke="#000000" stroke-linejoin="bevel" font-family="MS Shell Dlg 2" stroke-linecap="square" fill="none"/>
  <g font-weight="400" transform="matrix(11.808,0,0,11.808,0,0)" font-size="34.5833" font-style="normal" stroke-width="1" stroke-opacity="1" stroke="#000000" stroke-linejoin="bevel" font-family="MS Shell Dlg 2" stroke-linecap="square" fill="none"/>
  <g font-weight="400" transform="matrix(1,0,0,1,0,0)" font-size="34.5833" font-style="normal" stroke-width="1" stroke-opacity="1" stroke="#000000" stroke-linejoin="bevel" font-family="MS Shell Dlg 2" stroke-linecap="square" fill="none"/>
 </g>
</svg>
